<?xml version="1.0" encoding="UTF-8" standalone="no"?>
<!-- Generator: flash2svg, http://dissentgraphics.com/tools/flash2svg -->

<svg
   xmlns:dc="http://purl.org/dc/elements/1.1/"
   xmlns:cc="http://creativecommons.org/ns#"
   xmlns:rdf="http://www.w3.org/1999/02/22-rdf-syntax-ns#"
   xmlns:svg="http://www.w3.org/2000/svg"
   xmlns="http://www.w3.org/2000/svg"
   xmlns:xlink="http://www.w3.org/1999/xlink"
   xmlns:sodipodi="http://sodipodi.sourceforge.net/DTD/sodipodi-0.dtd"
   xmlns:inkscape="http://www.inkscape.org/namespaces/inkscape"
   id="AvatarAssets"
   image-rendering="auto"
   version="1.1"
   x="0px"
   y="0px"
   width="15.317045"
   height="13.246166"
   viewBox="0 0 15.317045 13.246166"
   inkscape:version="0.48.4 r9939"
   sodipodi:docname="AvatarAssets_backPantsLegUpperRightA004.svg">
  <metadata
     id="metadata3501">
    <rdf:RDF>
      <cc:Work
         rdf:about="">
        <dc:format>image/svg+xml</dc:format>
        <dc:type
           rdf:resource="http://purl.org/dc/dcmitype/StillImage" />
      </cc:Work>
    </rdf:RDF>
  </metadata>
  <sodipodi:namedview
     pagecolor="#ffffff"
     bordercolor="#666666"
     borderopacity="1"
     objecttolerance="10"
     gridtolerance="10"
     guidetolerance="10"
     inkscape:pageopacity="0"
     inkscape:pageshadow="2"
     inkscape:window-width="640"
     inkscape:window-height="480"
     id="namedview3499"
     showgrid="false"
     fit-margin-top="0"
     fit-margin-left="0"
     fit-margin-right="0"
     fit-margin-bottom="0"
     inkscape:zoom="1.9032258"
     inkscape:cx="35.184716"
     inkscape:cy="-51.340252"
     inkscape:window-x="136"
     inkscape:window-y="0"
     inkscape:window-maximized="0"
     inkscape:current-layer="AvatarAssets" />
  <defs
     id="defs3473">
    <pattern
       id="bitmap"
       patternContentUnits="userSpaceOnUse"
       patternUnits="userSpaceOnUse"
       width="200"
       height="200"
       viewBox="0 0 200 200"
       patternTransform="matrix(1 0 0 1 -46.249 -10.349)">
      <symbol
         id="Denim_Texture_navy_symbol"
         viewBox="0 0 200 200">
        <image
           sodipodi:absref="C:\Users\Training\Documents\GitHub\Glitchen-Avatar-Engine\glitch-avatars-svg\base_avatar\AvatarAssets.fla\clothing\back\Denim_Texture_navy"
           xlink:href="Denim_Texture_navy"
           height="200"
           width="200"
           id="Denim_Texture_navy" />
      </symbol>
      <use
         id="Denim_Texture_navy_use"
         width="200"
         height="200"
         y="0"
         x="0"
         xlink:href="#Denim_Texture_navy_symbol"
         externalResourcesRequired="true" />
    </pattern>
    <pattern
       id="bitmap1"
       patternContentUnits="userSpaceOnUse"
       patternUnits="userSpaceOnUse"
       width="200"
       height="200"
       viewBox="0 0 200 200"
       patternTransform="matrix(0.86248779296875 -0.05377197265625 0 1.014892578125 -81.699 -91.949)">
      <symbol
         id="symbol3480"
         viewBox="0 0 200 200">
        <image
           sodipodi:absref="C:\Users\Training\Documents\GitHub\Glitchen-Avatar-Engine\glitch-avatars-svg\base_avatar\AvatarAssets.fla\clothing\back\Denim_Texture_navy"
           xlink:href="Denim_Texture_navy"
           height="200"
           width="200"
           id="image3482" />
      </symbol>
      <use
         id="use3484"
         width="200"
         height="200"
         y="0"
         x="0"
         xlink:href="#Denim_Texture_navy_symbol"
         externalResourcesRequired="true" />
    </pattern>
  </defs>
  <g
     id="backPantsLegUpperRightA5"
     overflow="visible"
     style="overflow:visible"
     transform="translate(3.1847164,2.586418)">
    <g
       id="backPantsLegUpperRightA004_0">
      <g
         id="element">
        <g
           id="drawingObject">
          <path
             id="path"
             d="M -1.319,6.487 C -0.025,7.675 2.519,8.328 3.468,8.827 4.46,9.323 7.91,10.986 9.16,10.603 11.23,10.018 12.869,6.414 11.791,4.096 10.928,2.171 6.659,-1.318 5.02,-1.926 3.382,-2.585 -1.319,-3.814 -2.958,0.753 q -0.474,1.349 0.043,3.093 0.518,1.693 1.596,2.641 z"
             inkscape:connector-curvature="0"
             style="fill:url(#bitmap1)" />
        </g>
        <g
           id="drawingObject1">
          <path
             id="path1"
             d="m 9.05,10.55 c 2,-0.6 3.65,-4.2 2.6,-6.55 L 10.95,2.9 C 10.85,3.5 10.55,4.15 9.1,3.85 7.15,3.3 6.15,3.35 5.6,3.7 5.1,4.05 4.85,3.9 4.45,4 4.05,4.05 3.45,4.15 3.55,4.9 3.6,5.5 3.7,6 3.35,6 2.95,6.05 1.75,4.95 1.05,5.15 0.35,5.3 -1.6,5.4 -2.8,4.4 c 0.4,0.8 0.8,1.5 1.3,2 1.35,1.2 3.85,1.85 4.85,2.35 q 4.35,2.15 5.7,1.8 z"
             inkscape:connector-curvature="0"
             style="fill:#000000;fill-opacity:0.2" />
        </g>
        <g
           id="drawingObject2">
          <path
             id="path2"
             d="M 9.1,10.5 C 11.05,9.95 12.65,6.6 11.8,4.25 Q 11.6,4.6 11.1,5.5 10.6,6.2 10.3,6.2 C 9.55,6.35 6.75,5.75 5.95,6.75 5.15,7.75 3.55,7.9 3.15,7.8 2.8,7.7 -0.1,7 -1.85,5.75 l 0.4,0.6 C -0.1,7.55 2.4,8.2 3.4,8.7 c 0.9,0.5 4.4,2.1 5.7,1.8 z"
             inkscape:connector-curvature="0"
             style="fill:#000000;fill-opacity:0.2" />
        </g>
        <g
           id="drawingObject3">
          <path
             id="path3"
             d="M 1.613,-1.034 C 0.315,-1.136 -0.726,-1.311 -0.726,-1.311 q 1.939,-0.541 4.191,0.371 c 2.252,0.913 2.689,1.237 3.252,1.465 0.563,0.228 1.021,0.622 1.941,1.01 0.92,0.388 2.278,1.618 2.278,1.618 0,0 -4.416,-2.461 -5.987,-2.959 C 3.356,-0.374 2.911,-0.933 1.613,-1.034 z"
             inkscape:connector-curvature="0"
             style="fill:#ffffff;fill-opacity:0.2" />
        </g>
        <g
           id="drawingObject4">
          <path
             id="path4"
             d="m -0.395,-1.856 c 0,0 2.406,-0.429 3.863,0 1.403,0.452 2.483,1.168 3.244,1.746 L 9.99,2.059 c 0,0 -1.097,-0.668 -1.546,-0.827 C 8.049,1.049 7.473,0.468 7.099,0.356 6.708,0.29 5.981,-0.383 3.902,-1.133 Q 1.86,-1.86 -0.395,-1.856 z"
             inkscape:connector-curvature="0"
             style="fill:#000000;fill-opacity:0.2" />
        </g>
      </g>
    </g>
  </g>
</svg>
