<?xml version="1.0" encoding="UTF-8" standalone="no"?>
<!-- Generator: flash2svg, http://dissentgraphics.com/tools/flash2svg -->

<svg
   xmlns:dc="http://purl.org/dc/elements/1.1/"
   xmlns:cc="http://creativecommons.org/ns#"
   xmlns:rdf="http://www.w3.org/1999/02/22-rdf-syntax-ns#"
   xmlns:svg="http://www.w3.org/2000/svg"
   xmlns="http://www.w3.org/2000/svg"
   xmlns:sodipodi="http://sodipodi.sourceforge.net/DTD/sodipodi-0.dtd"
   xmlns:inkscape="http://www.inkscape.org/namespaces/inkscape"
   id="AvatarAssets"
   image-rendering="auto"
   version="1.1"
   x="0px"
   y="0px"
   width="13.008725"
   height="13.499938"
   viewBox="0 0 13.008725 13.499938"
   inkscape:version="0.48.4 r9939"
   sodipodi:docname="AvatarAssets_backSockRightC004b.svg">
  <metadata
     id="metadata4175">
    <rdf:RDF>
      <cc:Work
         rdf:about="">
        <dc:format>image/svg+xml</dc:format>
        <dc:type
           rdf:resource="http://purl.org/dc/dcmitype/StillImage" />
      </cc:Work>
    </rdf:RDF>
  </metadata>
  <sodipodi:namedview
     pagecolor="#ffffff"
     bordercolor="#666666"
     borderopacity="1"
     objecttolerance="10"
     gridtolerance="10"
     guidetolerance="10"
     inkscape:pageopacity="0"
     inkscape:pageshadow="2"
     inkscape:window-width="640"
     inkscape:window-height="480"
     id="namedview4173"
     showgrid="false"
     fit-margin-top="0"
     fit-margin-left="0"
     fit-margin-right="0"
     fit-margin-bottom="0"
     inkscape:zoom="1.9032258"
     inkscape:cx="36.638443"
     inkscape:cy="-50.617062"
     inkscape:window-x="136"
     inkscape:window-y="0"
     inkscape:window-maximized="0"
     inkscape:current-layer="AvatarAssets" />
  <defs
     id="defs4158" />
  <g
     id="backSockRightC004b1"
     overflow="visible"
     style="overflow:visible"
     transform="translate(4.6384426,2.117)">
    <g
       id="backSockRightC004b_0">
      <g
         id="element">
        <g
           id="drawingObject">
          <path
             id="path"
             d="m 3.238,1.444 c 0.342,0.691 0.684,1.488 0.977,2.339 0,0 -0.489,0.531 0.782,0.797 1.32,0.266 3.274,2.658 3.372,4.146 C 8.418,10.267 7.05,10.852 6.463,11.224 5.926,11.596 3.775,11.33 2.504,10.267 1.185,9.204 -2.578,5.909 -3.947,4.155 -5.315,2.348 -4.338,0.594 -3.702,-0.575 l 0.977,-1.542 c 0.244,0.053 0.88,0.107 1.857,0.16 0.978,0.053 1.809,0.425 2.493,1.222 0.733,0.744 1.27,1.488 1.613,2.179 z"
             inkscape:connector-curvature="0"
             style="fill:#ddcdb8" />
        </g>
        <g
           id="group1">
          <g
             id="drawingObject1">
            <path
               id="path1"
               d="M 4.557,5.005 4.704,4.474 4.997,4.58 C 6.317,4.846 8.271,7.238 8.369,8.726 8.418,10.267 7.05,10.852 6.463,11.224 6.023,11.49 4.655,11.383 3.482,10.852 L 4.606,9.364 Q 5.535,8.194 5.144,6.493 L 4.557,5.005 z"
               inkscape:connector-curvature="0"
               style="fill:#3c372e" />
          </g>
          <g
             id="drawingObject2">
            <path
               id="path2"
               d="M -2.676,5.537 -3.947,4.155 Q -5.12,2.614 -4.289,0.647 c 2.346,-0.957 4.35,2.232 4.35,2.232 L -1.259,1.391 0.061,2.879 0.11,3.411 0.061,2.879 c 0,0 0.391,0.798 -0.587,1.967 -0.488,0.584 -1.417,0.691 -2.15,0.691 z"
               inkscape:connector-curvature="0"
               style="fill:#3c372e" />
          </g>
        </g>
        <g
           id="group2">
          <g
             id="drawingObject3">
            <path
               id="path3"
               d="M 8.369,8.726 C 8.418,10.267 7.05,10.852 6.463,11.224 5.926,11.596 3.775,11.33 2.504,10.267 1.185,9.204 -2.578,5.909 -3.947,4.155 -4.24,3.73 -4.435,3.358 -4.533,2.986 L -3.849,2.56 q 0.831,-0.691 4.545,2.711 c 1.613,1.541 3.324,3.295 5.718,3.295 0.929,0 1.466,-0.212 1.76,-0.584 l 0.195,0.744 z"
               inkscape:connector-curvature="0"
               style="fill:#000000;fill-opacity:0.25099996" />
          </g>
        </g>
      </g>
    </g>
  </g>
</svg>
