<?xml version="1.0" encoding="UTF-8" standalone="no"?>
<!-- Generator: flash2svg, http://dissentgraphics.com/tools/flash2svg -->

<svg
   xmlns:dc="http://purl.org/dc/elements/1.1/"
   xmlns:cc="http://creativecommons.org/ns#"
   xmlns:rdf="http://www.w3.org/1999/02/22-rdf-syntax-ns#"
   xmlns:svg="http://www.w3.org/2000/svg"
   xmlns="http://www.w3.org/2000/svg"
   xmlns:sodipodi="http://sodipodi.sourceforge.net/DTD/sodipodi-0.dtd"
   xmlns:inkscape="http://www.inkscape.org/namespaces/inkscape"
   id="AvatarAssets"
   image-rendering="auto"
   version="1.1"
   x="0px"
   y="0px"
   width="10.331643"
   height="11.401051"
   viewBox="0 0 10.331643 11.401051"
   inkscape:version="0.48.4 r9939"
   sodipodi:docname="AvatarAssets_backShoeRightA005.svg">
  <metadata
     id="metadata3872">
    <rdf:RDF>
      <cc:Work
         rdf:about="">
        <dc:format>image/svg+xml</dc:format>
        <dc:type
           rdf:resource="http://purl.org/dc/dcmitype/StillImage" />
      </cc:Work>
    </rdf:RDF>
  </metadata>
  <sodipodi:namedview
     pagecolor="#ffffff"
     bordercolor="#666666"
     borderopacity="1"
     objecttolerance="10"
     gridtolerance="10"
     guidetolerance="10"
     inkscape:pageopacity="0"
     inkscape:pageshadow="2"
     inkscape:window-width="640"
     inkscape:window-height="480"
     id="namedview3870"
     showgrid="false"
     fit-margin-top="0"
     fit-margin-left="0"
     fit-margin-right="0"
     fit-margin-bottom="0"
     inkscape:zoom="1.9032258"
     inkscape:cx="36.401653"
     inkscape:cy="-50.749477"
     inkscape:window-x="136"
     inkscape:window-y="0"
     inkscape:window-maximized="0"
     inkscape:current-layer="AvatarAssets" />
  <defs
     id="defs3855" />
  <g
     id="backShoeRightA6"
     overflow="visible"
     style="overflow:visible"
     transform="translate(4.4016531,0.1505274)">
    <g
       id="backShoeRightA005_0">
      <g
         id="element">
        <g
           id="drawingObject">
          <path
             id="path"
             d="M 4.391,3.616 C 4.32,3.27 4.301,2.97 4.233,2.674 L 4.207,2.65 Q 4.387,3.553 3.85,4.601 C 3.134,5.997 2.515,6.536 2.475,6.688 2.481,6.788 3.135,7.65 3.467,8.181 3.847,8.658 4.265,8.933 4.412,8.874 4.608,8.812 5.262,7.219 5.207,6.321 5.152,5.423 4.162,4.782 4.376,5.019 4.703,5.45 4.727,6.651 4.318,6.526 3.913,6.45 3.789,6.057 4.186,5.181 4.361,4.77 4.431,4.265 4.391,3.616 z"
             inkscape:connector-curvature="0"
             style="fill:#826326" />
        </g>
        <g
           id="drawingObject1">
          <path
             id="path1"
             d="M 4.19,4.43 C 4.216,4.027 3.652,5.464 2.946,6.209 2.24,6.953 3.302,6.287 3.302,6.287 L 3.483,5.976 Q 4.221,4.929 4.19,4.43 z"
             inkscape:connector-curvature="0"
             style="fill:#bf9137" />
        </g>
        <g
           id="drawingObject2">
          <path
             id="path2"
             d="M 4.519,8.167 C 4.744,7.752 4.82,6.545 4.82,6.545 L 4.586,6.81 C 4.352,7.075 4.181,6.734 3.816,6.506 3.504,6.325 3.633,5.966 3.633,5.966 L 3.595,6.169 3.633,5.966 3.008,6.405 Q 2.784,6.587 2.72,6.598 L 3.181,7.597 C 3.477,8.33 3.751,8.714 3.956,8.802 4.421,9.024 4.24,8.534 4.519,8.167 z"
             inkscape:connector-curvature="0"
             style="fill:#664e1e" />
        </g>
        <g
           id="drawingObject3">
          <path
             id="path3"
             d="M 0.623,1.792 C 0.06,0.775 -1.29,0.005 -2.3,-0.133 c -1.007,-0.089 -1.292,0.179 -1.579,0.397 -0.337,0.221 -0.362,0.623 -0.362,0.623 0,0 -0.492,0.982 0.246,2.389 0.734,1.358 1.596,2.358 2.621,3.547 0.974,1.193 3.481,3.695 4.959,4.106 1.531,0.457 2.133,0.47 2.34,-0.243 Q 6.009,10.43 4.679,9.159 3.191,7.747 2.939,6.911 C 2.498,5.435 1.189,2.86 0.623,1.792 z"
             inkscape:connector-curvature="0"
             style="fill:#69501d" />
        </g>
        <g
           id="drawingObject4">
          <path
             id="path4"
             d="m -4.245,0.837 0.004,0.05 c 0,0 -0.492,0.982 0.246,2.389 0.734,1.358 1.596,2.358 2.621,3.547 0.974,1.193 3.481,3.695 4.959,4.106 1.02,0.288 1.628,0.401 2.018,0.227 C 4.88,10.799 3.78,10.015 2.931,8.414 1.92,6.622 0.723,3.439 -0.089,2.437 -0.793,1.578 -3.236,0.124 -4.245,0.837 z"
             inkscape:connector-curvature="0"
             style="fill:#4d3b16" />
        </g>
      </g>
    </g>
  </g>
</svg>
