<?xml version="1.0" encoding="UTF-8" standalone="no"?>
<!-- Generator: flash2svg, http://dissentgraphics.com/tools/flash2svg -->

<svg
   xmlns:dc="http://purl.org/dc/elements/1.1/"
   xmlns:cc="http://creativecommons.org/ns#"
   xmlns:rdf="http://www.w3.org/1999/02/22-rdf-syntax-ns#"
   xmlns:svg="http://www.w3.org/2000/svg"
   xmlns="http://www.w3.org/2000/svg"
   xmlns:sodipodi="http://sodipodi.sourceforge.net/DTD/sodipodi-0.dtd"
   xmlns:inkscape="http://www.inkscape.org/namespaces/inkscape"
   id="AvatarAssets"
   image-rendering="auto"
   version="1.1"
   x="0px"
   y="0px"
   width="15.303684"
   height="13.246819"
   viewBox="0 0 15.303684 13.246819"
   inkscape:version="0.48.4 r9939"
   sodipodi:docname="AvatarAssets_backPantsLegUpperRightA009.svg">
  <metadata
     id="metadata3643">
    <rdf:RDF>
      <cc:Work
         rdf:about="">
        <dc:format>image/svg+xml</dc:format>
        <dc:type
           rdf:resource="http://purl.org/dc/dcmitype/StillImage" />
      </cc:Work>
    </rdf:RDF>
  </metadata>
  <sodipodi:namedview
     pagecolor="#ffffff"
     bordercolor="#666666"
     borderopacity="1"
     objecttolerance="10"
     gridtolerance="10"
     guidetolerance="10"
     inkscape:pageopacity="0"
     inkscape:pageshadow="2"
     inkscape:window-width="640"
     inkscape:window-height="480"
     id="namedview3641"
     showgrid="false"
     fit-margin-top="0"
     fit-margin-left="0"
     fit-margin-right="0"
     fit-margin-bottom="0"
     inkscape:zoom="1.9032258"
     inkscape:cx="35.093841"
     inkscape:cy="-51.302938"
     inkscape:window-x="136"
     inkscape:window-y="0"
     inkscape:window-maximized="0"
     inkscape:current-layer="AvatarAssets" />
  <defs
     id="defs3626" />
  <g
     id="backPantsLegUpperRightA10"
     overflow="visible"
     style="overflow:visible"
     transform="translate(3.0938407,2.5497576)">
    <g
       id="backPantsLegUpperRightA009_0">
      <g
         id="element">
        <g
           id="drawingObject">
          <path
             id="path"
             d="M 3.17,8.731 C 2.232,8.186 -0.26,7.527 -1.511,6.305 Q -2.51,5.365 -2.9,3.691 -3.344,1.923 -2.771,0.632 c 2.039,-4.493 6.665,-3.111 8.313,-2.463 1.611,0.624 5.687,4.201 6.445,6.112 0.891,2.353 -1.038,5.851 -3.16,6.379 C 7.522,10.945 4.129,9.231 3.17,8.731 z"
             inkscape:connector-curvature="0"
             style="fill:#d69244" />
        </g>
        <g
           id="drawingObject1">
          <path
             id="path1"
             d="M -1.511,6.305 C -2.001,5.812 -2.388,5.088 -2.697,4.296 -1.588,5.307 0.403,5.287 1.084,5.134 1.86,4.982 2.985,6.063 3.36,6.068 3.736,6.073 3.679,5.562 3.683,4.913 3.651,4.241 4.276,4.11 4.672,4.068 5.067,4.027 5.324,4.193 5.863,3.829 6.439,3.489 7.434,3.479 9.404,4.038 10.836,4.428 11.179,3.76 11.351,3.16 l 0.636,1.121 c 0.891,2.353 -1.038,5.851 -3.16,6.379 Q 7.464,10.967 3.17,8.731 C 2.232,8.186 -0.26,7.527 -1.511,6.305 z"
             inkscape:connector-curvature="0"
             style="fill:#000000;fill-opacity:0.047" />
        </g>
        <g
           id="drawingObject2">
          <path
             id="path2"
             d="M -1.511,6.305 -1.923,5.743 c 1.7,1.275 4.621,2.032 4.955,2.129 C 3.403,7.993 5.023,7.852 5.922,6.89 6.82,5.928 9.614,6.544 10.349,6.485 Q 10.687,6.466 11.218,5.801 11.794,4.927 12.052,4.56 c 0.704,2.35 -1.16,5.594 -3.225,6.1 C 7.522,10.945 4.129,9.231 3.17,8.731 2.232,8.186 -0.26,7.527 -1.511,6.305 z"
             inkscape:connector-curvature="0"
             style="fill:#000000;fill-opacity:0.08600003" />
        </g>
        <g
           id="drawingObject3">
          <path
             id="path3"
             d="m 0.658,-0.901 c -1.309,-0.133 -2.354,-0.332 -2.354,-0.332 q 2.008,-0.484 4.227,0.473 c 2.218,0.956 2.638,1.286 3.193,1.525 0.555,0.239 0.991,0.639 1.896,1.045 0.906,0.406 2.194,1.652 2.194,1.652 0,0 -4.302,-2.537 -5.86,-3.068 -1.575,-0.6 -1.986,-1.162 -3.296,-1.295 z"
             inkscape:connector-curvature="0"
             style="fill:#ffffff;fill-opacity:0.2" />
        </g>
        <g
           id="drawingObject4">
          <path
             id="path4"
             d="m -0.97,-1.712 c 0,0 2.473,-0.361 3.921,0.098 1.391,0.482 2.434,1.215 3.164,1.804 l 3.168,2.221 c 0,0 -1.064,-0.687 -1.508,-0.855 C 7.387,1.366 6.845,0.779 6.474,0.658 6.082,0.584 5.393,-0.098 3.338,-0.89 Q 1.319,-1.658 -0.97,-1.712 z"
             inkscape:connector-curvature="0"
             style="fill:#000000;fill-opacity:0.2" />
        </g>
      </g>
    </g>
  </g>
</svg>
