<?xml version="1.0" encoding="UTF-8" standalone="no"?>
<!-- Generator: flash2svg, http://dissentgraphics.com/tools/flash2svg -->

<svg
   xmlns:dc="http://purl.org/dc/elements/1.1/"
   xmlns:cc="http://creativecommons.org/ns#"
   xmlns:rdf="http://www.w3.org/1999/02/22-rdf-syntax-ns#"
   xmlns:svg="http://www.w3.org/2000/svg"
   xmlns="http://www.w3.org/2000/svg"
   xmlns:sodipodi="http://sodipodi.sourceforge.net/DTD/sodipodi-0.dtd"
   xmlns:inkscape="http://www.inkscape.org/namespaces/inkscape"
   id="AvatarAssets"
   image-rendering="auto"
   version="1.1"
   x="0px"
   y="0px"
   width="14.105937"
   height="15.884878"
   viewBox="0 0 14.105937 15.884878"
   inkscape:version="0.48.4 r9939"
   sodipodi:docname="AvatarAssets_backPantsLegLowerRightA009.svg">
  <metadata
     id="metadata3273">
    <rdf:RDF>
      <cc:Work
         rdf:about="">
        <dc:format>image/svg+xml</dc:format>
        <dc:type
           rdf:resource="http://purl.org/dc/dcmitype/StillImage" />
      </cc:Work>
    </rdf:RDF>
  </metadata>
  <sodipodi:namedview
     pagecolor="#ffffff"
     bordercolor="#666666"
     borderopacity="1"
     objecttolerance="10"
     gridtolerance="10"
     guidetolerance="10"
     inkscape:pageopacity="0"
     inkscape:pageshadow="2"
     inkscape:window-width="640"
     inkscape:window-height="480"
     id="namedview3271"
     showgrid="false"
     fit-margin-top="0"
     fit-margin-left="0"
     fit-margin-right="0"
     fit-margin-bottom="0"
     inkscape:zoom="1.9032258"
     inkscape:cx="43.537551"
     inkscape:cy="-48.542103"
     inkscape:window-x="136"
     inkscape:window-y="0"
     inkscape:window-maximized="0"
     inkscape:current-layer="AvatarAssets" />
  <defs
     id="defs3248" />
  <g
     id="backPantsLegLowerRightA10"
     overflow="visible"
     style="overflow:visible"
     transform="translate(11.537551,2.4269816)">
    <g
       id="backPantsLegLowerRightA009_0">
      <g
         id="element">
        <g
           id="group1">
          <g
             id="drawingObject">
            <path
               id="path"
               d="m -9.463,4.781 c 0.396,-0.859 0.858,-1.548 1.089,-1.791 0.566,-0.661 3.583,-4.679 4.396,-5.019 0.761,-0.355 2.259,-0.766 4.166,0.203 1.465,0.749 2.49,1.278 2.371,3.177 C 2.453,3.203 0.9,5.479 -0.383,7.371 -0.999,8.221 -1.796,9.125 -2.723,9.893 -3.011,9.307 -3.363,8.756 -3.844,8.271 L -4.118,7.842 C -4.379,7.365 -4.705,6.922 -5.172,6.593 -6.082,5.841 -6.835,5.334 -8.026,5.014 -8.493,4.889 -8.972,4.811 -9.463,4.781 z"
               inkscape:connector-curvature="0"
               style="fill:#d69244" />
          </g>
          <g
             id="drawingObject1">
            <path
               id="path1"
               d="m -6.507,8.268 -0.142,0.114 -0.247,-0.32 0.618,-0.444 c 1.107,-1.024 1.027,-1.35 1.721,-2.282 0.654,-0.993 1.232,-1.702 1.409,-2.366 l 0.369,-1.171 c 0,0 -0.493,2.052 -1.545,3.701 -1.064,1.696 -1.294,2.142 -2.183,2.768 z"
               inkscape:connector-curvature="0"
               style="fill:#000000;fill-opacity:0.2" />
          </g>
          <g
             id="drawingObject2">
            <path
               id="path2"
               d="m -9.463,4.781 c 0.396,-0.859 0.858,-1.548 1.089,-1.791 0.566,-0.661 3.583,-4.679 4.396,-5.019 0.761,-0.355 2.259,-0.766 4.166,0.203 l 1.349,0.769 C 0.695,-1.232 -0.339,-1.103 -1.178,-0.871 -2.134,-0.62 -3.999,1.166 -4.189,1.877 Q -4.253,2.114 -4.21,2.786 -4.169,3.255 -4.517,3.517 C -5.031,3.989 -5.562,3.897 -5.934,4.458 -6.101,4.667 -6.28,5.127 -6.432,5.696 -6.912,5.415 -7.405,5.181 -8.026,5.014 -8.493,4.889 -8.972,4.811 -9.463,4.781 z"
               inkscape:connector-curvature="0"
               style="fill:#000000;fill-opacity:0.08600003" />
          </g>
          <g
             id="drawingObject3">
            <path
               id="path3"
               d="m -3.228,2.441 -1.37,2.63 q -1.165,2.075 -2.17,2.72 L -6.975,7.939 -7.066,7.864 c 0.489,-0.581 1.645,-1.998 2.427,-3.262 l 1.564,-2.527 -0.153,0.366 z"
               inkscape:connector-curvature="0"
               style="fill:#ffffff;fill-opacity:0.2" />
          </g>
        </g>
        <g
           id="group2">
          <g
             id="drawingObject4">
            <path
               id="path4"
               d="m -4.853,5.815 c 1.844,1.41 1.959,3.473 1.959,3.473 L -3.72,9.676 -6.686,6.441 c 0,0 -3.645,-1.944 -2.586,-2.168 1.007,-0.238 2.587,0.085 4.419,1.542 z"
               inkscape:connector-curvature="0"
               style="fill:#dae2e9;fill-opacity:0.25099996" />
          </g>
          <g
             id="drawingObject5">
            <path
               id="path5"
               d="m -11.438,5.521 1.107,-1.024 q 0.593,-0.349 2.289,-0.046 c 1.061,0.183 3.436,1.684 3.97,2.387 0.483,0.688 0.991,1.485 1.201,1.948 0.145,0.496 0.138,1.561 -0.48,2.209 -0.565,0.661 -0.884,1.439 -0.96,1.723 -0.089,0.332 -0.81,0.952 -0.734,0.667 0.076,-0.284 -0.215,-3.97 -0.997,-4.993 -1.342,-1.834 -3.324,-2.315 -4.088,-2.571 -0.7,-0.289 -1.318,0.154 -1.318,0.154 0,0 -0.208,-0.055 0.01,-0.454 z"
               inkscape:connector-curvature="0"
               style="fill:#d69244" />
          </g>
          <g
             id="drawingObject6">
            <path
               id="path6"
               d="m -11.448,5.975 c 0,0 -0.208,-0.055 0.01,-0.454 l 1.107,-1.024 c 0.593,-0.349 1.227,-0.23 2.289,-0.046 0.789,0.161 2.23,1.005 3.216,1.676 L -5.188,6.03 c -1.283,-0.395 -0.438,0.39 0.747,1.775 1.132,1.372 0.159,0.856 -0.465,0.282 -0.559,-0.607 -2.299,-1.785 -1.999,-1.451 0.247,0.321 1.613,1.652 1.855,3.445 q 0.121,0.795 -0.014,2.131 C -5.226,10.949 -5.508,9.094 -6.042,8.392 -7.384,6.558 -9.366,6.077 -10.13,5.821 c -0.7,-0.289 -1.318,0.154 -1.318,0.154 z"
               inkscape:connector-curvature="0"
               style="fill:#000000;fill-opacity:0.08600003" />
          </g>
          <g
             id="drawingObject7">
            <path
               id="path7"
               d="m -11.489,5.711 q 0.347,-0.466 1.187,-0.495 c 0.44,0.017 1.045,-0.583 1.55,-0.397 0.506,0.187 0.859,0.942 0.472,1.143 -0.193,0.101 -0.14,0.318 -0.036,0.55 -0.739,-0.351 -1.4,-0.58 -1.814,-0.691 -0.7,-0.289 -1.318,0.154 -1.318,0.154 0,0 -0.091,-0.075 -0.041,-0.264 z"
               inkscape:connector-curvature="0"
               style="fill:#000000;fill-opacity:0.2" />
          </g>
        </g>
      </g>
    </g>
  </g>
</svg>
