<?xml version="1.0" encoding="UTF-8" standalone="no"?>
<!-- Generator: flash2svg, http://dissentgraphics.com/tools/flash2svg -->

<svg
   xmlns:dc="http://purl.org/dc/elements/1.1/"
   xmlns:cc="http://creativecommons.org/ns#"
   xmlns:rdf="http://www.w3.org/1999/02/22-rdf-syntax-ns#"
   xmlns:svg="http://www.w3.org/2000/svg"
   xmlns="http://www.w3.org/2000/svg"
   xmlns:sodipodi="http://sodipodi.sourceforge.net/DTD/sodipodi-0.dtd"
   xmlns:inkscape="http://www.inkscape.org/namespaces/inkscape"
   id="AvatarAssets"
   image-rendering="auto"
   version="1.1"
   x="0px"
   y="0px"
   width="15.1707"
   height="13.774747"
   viewBox="0 0 15.1707 13.774747"
   inkscape:version="0.48.4 r9939"
   sodipodi:docname="AvatarAssets_backPantsLegUpperRightA006.svg">
  <metadata
     id="metadata3550">
    <rdf:RDF>
      <cc:Work
         rdf:about="">
        <dc:format>image/svg+xml</dc:format>
        <dc:type
           rdf:resource="http://purl.org/dc/dcmitype/StillImage" />
      </cc:Work>
    </rdf:RDF>
  </metadata>
  <sodipodi:namedview
     pagecolor="#ffffff"
     bordercolor="#666666"
     borderopacity="1"
     objecttolerance="10"
     gridtolerance="10"
     guidetolerance="10"
     inkscape:pageopacity="0"
     inkscape:pageshadow="2"
     inkscape:window-width="640"
     inkscape:window-height="480"
     id="namedview3548"
     showgrid="false"
     fit-margin-top="0"
     fit-margin-left="0"
     fit-margin-right="0"
     fit-margin-bottom="0"
     inkscape:zoom="1.9032258"
     inkscape:cx="34.921"
     inkscape:cy="-50.73656"
     inkscape:window-x="136"
     inkscape:window-y="0"
     inkscape:window-maximized="0"
     inkscape:current-layer="AvatarAssets" />
  <defs
     id="defs3525" />
  <g
     id="backPantsLegUpperRightA7"
     overflow="visible"
     style="overflow:visible"
     transform="translate(2.921,2.5113063)">
    <g
       id="backPantsLegUpperRightA006_0">
      <g
         id="element">
        <g
           id="drawingObject">
          <path
             id="path"
             d="m 1.26,-2.464 c -2.622,0.35 -4.307,3.243 -4.147,6.318 0.15,2.901 5.502,4.796 7.569,5.397 2.456,0.671 3.654,2.87 5.791,1.379 C 11.755,9.736 12.464,7.982 12.192,5.624 11.921,3.266 10.367,1.802 8.637,0.118 Q 6.944,-1.544 4.466,-2.172 2.617,-2.638 1.26,-2.464 z"
             inkscape:connector-curvature="0"
             style="fill:#d9b558" />
        </g>
        <g
           id="group1">
          <g
             id="drawingObject1">
            <path
               id="path1"
               d="m -2.906,3.893 c 2.437,2.85 6.045,4.063 7.751,5.115 1.161,0.716 2.582,1.48 3.64,2.02 0.499,0.139 0.987,0.103 1.545,-0.171 L 9.609,10.654 C 9.35,10.607 8.784,10.314 7.514,9.531 6.244,8.748 3.27,7.588 0.434,5.952 -1.475,4.831 -2.459,3.944 -2.893,3.283 l -0.028,0.544 0.015,0.066 z"
               inkscape:connector-curvature="0"
               style="fill:#79592b;fill-opacity:0.4" />
          </g>
          <g
             id="drawingObject2">
            <path
               id="path2"
               d="m -2.62,1.36 0.671,0.207 c 1.048,0.382 4.863,2.804 7.713,4.743 2.641,1.853 4.444,3.362 5.282,3.657 L 11.256,9.713 10.711,9.061 C 10.124,8.314 8.992,7.694 7.609,6.746 6.184,5.753 4.297,4.005 1.866,2.433 0.357,1.492 -1.236,0.994 -2.41,0.765 L -2.62,1.36 z"
               inkscape:connector-curvature="0"
               style="fill:#79592b;fill-opacity:0.4" />
          </g>
          <g
             id="drawingObject3">
            <path
               id="path3"
               d="M 12.231,6.318 C 10.785,3.854 6.637,0.061 3.892,-1.182 2.263,-1.905 0.459,-1.782 -0.768,-1.584 l -0.71,0.685 c 1.877,-0.078 4.722,0.665 7.213,1.752 q 2.926,1.355 6.36,7.01 c 0.1,-0.5 0.144,-0.978 0.136,-1.545 z"
               inkscape:connector-curvature="0"
               style="fill:#79592b;fill-opacity:0.4" />
          </g>
        </g>
        <g
           id="group2">
          <g
             id="drawingObject4">
            <path
               id="path4"
               d="m -0.272,2.073 c -0.846,2.231 -1.064,3.556 -1.103,4.318 l 0.901,0.668 C -0.526,5.904 -0.369,4.316 0.532,2.457 1.643,0.166 2.938,-1.338 3.81,-2.261 L 2.807,-2.43 q -2.186,2.078 -3.079,4.503 z"
               inkscape:connector-curvature="0"
               style="fill:#79592b;fill-opacity:0.45100002" />
          </g>
          <g
             id="drawingObject5">
            <path
               id="path5"
               d="M 10.534,2.053 C 9.304,3.035 7.551,4.706 6.768,6.807 6.242,8.28 6.098,9.258 6.158,9.912 l 0.746,0.405 C 6.892,9.467 6.996,8.183 7.64,6.952 8.452,5.374 9.742,3.979 11.129,2.869 L 10.534,2.053 z"
               inkscape:connector-curvature="0"
               style="fill:#79592b;fill-opacity:0.45100002" />
          </g>
          <g
             id="drawingObject6">
            <path
               id="path6"
               d="M 3.253,4.527 C 2.784,5.979 2.612,7.502 2.628,8.635 L 3.511,8.954 C 3.458,7.799 3.615,6.211 4.37,4.654 5.523,2.277 6.793,0.533 8.002,-0.406 L 6.898,-1.143 Q 4.032,2.143 3.253,4.527 z"
               inkscape:connector-curvature="0"
               style="fill:#79592b;fill-opacity:0.45100002" />
          </g>
        </g>
        <g
           id="drawingObject7">
          <path
             id="path7"
             d="M 8.613,0.254 C 6.014,-2.282 2.535,-2.485 1.235,-2.367 c -0.922,0.146 -1.677,0.576 -2.305,1.242 0.964,-0.003 2.054,0.23 3.06,0.663 2.389,1.185 5.114,2.79 5.45,4.961 C 7.817,6.716 7.524,7.413 7.524,8.24 7.44,9.169 7.062,9.237 5.721,9.552 L 5.344,9.621 q 1.006,0.433 2.599,1.417 1.299,0.563 2.515,-0.28 C 11.716,9.864 12.47,8.121 12.177,5.754 11.925,3.384 10.332,1.961 8.613,0.254 z"
             inkscape:connector-curvature="0"
             style="fill:#000000;fill-opacity:0.2" />
        </g>
      </g>
    </g>
  </g>
</svg>
