<?xml version="1.0" encoding="UTF-8" standalone="no"?>
<!-- Generator: flash2svg, http://dissentgraphics.com/tools/flash2svg -->

<svg
   xmlns:dc="http://purl.org/dc/elements/1.1/"
   xmlns:cc="http://creativecommons.org/ns#"
   xmlns:rdf="http://www.w3.org/1999/02/22-rdf-syntax-ns#"
   xmlns:svg="http://www.w3.org/2000/svg"
   xmlns="http://www.w3.org/2000/svg"
   xmlns:sodipodi="http://sodipodi.sourceforge.net/DTD/sodipodi-0.dtd"
   xmlns:inkscape="http://www.inkscape.org/namespaces/inkscape"
   id="AvatarAssets"
   image-rendering="auto"
   version="1.1"
   x="0px"
   y="0px"
   width="9.8734684"
   height="9.0491056"
   viewBox="0 0 9.8734684 9.0491056"
   inkscape:version="0.48.4 r9939"
   sodipodi:docname="AvatarAssets_backSockUpperRightB006.svg">
  <metadata
     id="metadata4194">
    <rdf:RDF>
      <cc:Work
         rdf:about="">
        <dc:format>image/svg+xml</dc:format>
        <dc:type
           rdf:resource="http://purl.org/dc/dcmitype/StillImage" />
      </cc:Work>
    </rdf:RDF>
  </metadata>
  <sodipodi:namedview
     pagecolor="#ffffff"
     bordercolor="#666666"
     borderopacity="1"
     objecttolerance="10"
     gridtolerance="10"
     guidetolerance="10"
     inkscape:pageopacity="0"
     inkscape:pageshadow="2"
     inkscape:window-width="640"
     inkscape:window-height="480"
     id="namedview4192"
     showgrid="false"
     fit-margin-top="0"
     fit-margin-left="0"
     fit-margin-right="0"
     fit-margin-bottom="0"
     inkscape:zoom="1.9032258"
     inkscape:cx="41.803468"
     inkscape:cy="-50.744202"
     inkscape:window-x="136"
     inkscape:window-y="0"
     inkscape:window-maximized="0"
     inkscape:current-layer="AvatarAssets" />
  <defs
     id="defs4178" />
  <g
     id="backSockUpperRightB7"
     overflow="visible"
     style="overflow:visible"
     transform="translate(9.8034682,-2.2066928)">
    <g
       id="backSockUpperRightB006_0">
      <g
         id="element">
        <g
           id="drawingObject">
          <path
             id="path"
             d="m -8.047,2.738 -0.989,2.298 c -0.416,0.914 -1.885,3.399 0.85,5.296 2.692,1.835 4.363,0.468 5.094,-0.114 0.73,-0.582 3.162,-2.93 3.162,-2.93 Q 0.037,6.669 -0.289,5.877 -0.899,4.353 -2.251,3.459 C -4.419,2.008 -6.699,2.105 -7.138,2.352 l -0.909,0.386 z"
             inkscape:connector-curvature="0"
             style="fill:#292520" />
        </g>
        <g
           id="drawingObject1">
          <path
             id="path1"
             d="m -8.616,5.394 c -0.241,0.093 -0.481,0.187 -0.701,0.183 -0.52,1.143 -1.122,3.181 1.131,4.755 2.692,1.835 4.363,0.468 5.094,-0.114 0.73,-0.582 3.162,-2.93 3.162,-2.93 0,0 -0.141,-2.171 -2.038,-3.606 C -2.134,4.2 -2.676,4.931 -3.292,5.49 Q -3.97,6.085 -5.529,5.903 C -6.272,5.77 -7.76,4.996 -8.616,5.394 z"
             inkscape:connector-curvature="0"
             style="fill:#191714" />
        </g>
        <g
           id="group1">
          <g
             id="drawingObject2">
            <path
               id="path2"
               d="M -8.286,3.29 -8.37,3.422 c 0.324,-0.225 0.805,-0.411 1.516,-0.388 1.475,0.059 3.714,0.41 4.67,1.866 q 0.808,1.116 1.039,1.58 0.347,0.696 0.38,1.568 L -0.337,7.595 C -0.391,6.819 -0.886,5.527 -1.683,4.618 -2.721,3.547 -4.889,2.604 -6.227,2.68 -7.336,2.711 -7.952,3.017 -8.286,3.29 z"
               inkscape:connector-curvature="0"
               style="fill:#dcc7af" />
          </g>
          <g
             id="drawingObject3">
            <path
               id="path3"
               d="m -8.703,4.204 -0.02,0.097 C -8.4,4.076 -7.929,3.938 -7.385,3.97 q 0.701,0.072 1.956,0.128 1.067,0.162 1.802,1.107 c 0.997,1.263 1.763,2.317 1.965,3.689 L -1.328,8.621 C -1.53,7.249 -2.172,5.615 -3.409,4.699 -5.033,3.535 -6.351,3.514 -7.543,3.677 c -0.45,0.042 -0.826,0.254 -1.16,0.527 z"
               inkscape:connector-curvature="0"
               style="fill:#dcc7af" />
          </g>
        </g>
      </g>
    </g>
  </g>
</svg>
