<?xml version="1.0" encoding="UTF-8" standalone="no"?>
<!-- Generator: flash2svg, http://dissentgraphics.com/tools/flash2svg -->

<svg
   xmlns:dc="http://purl.org/dc/elements/1.1/"
   xmlns:cc="http://creativecommons.org/ns#"
   xmlns:rdf="http://www.w3.org/1999/02/22-rdf-syntax-ns#"
   xmlns:svg="http://www.w3.org/2000/svg"
   xmlns="http://www.w3.org/2000/svg"
   xmlns:sodipodi="http://sodipodi.sourceforge.net/DTD/sodipodi-0.dtd"
   xmlns:inkscape="http://www.inkscape.org/namespaces/inkscape"
   id="AvatarAssets"
   image-rendering="auto"
   version="1.1"
   x="0px"
   y="0px"
   width="15.178747"
   height="13.555945"
   viewBox="0 0 15.178747 13.555945"
   inkscape:version="0.48.4 r9939"
   sodipodi:docname="AvatarAssets_backPantsLegUpperRightA007.svg">
  <metadata
     id="metadata3571">
    <rdf:RDF>
      <cc:Work
         rdf:about="">
        <dc:format>image/svg+xml</dc:format>
        <dc:type
           rdf:resource="http://purl.org/dc/dcmitype/StillImage" />
      </cc:Work>
    </rdf:RDF>
  </metadata>
  <sodipodi:namedview
     pagecolor="#ffffff"
     bordercolor="#666666"
     borderopacity="1"
     objecttolerance="10"
     gridtolerance="10"
     guidetolerance="10"
     inkscape:pageopacity="0"
     inkscape:pageshadow="2"
     inkscape:window-width="640"
     inkscape:window-height="480"
     id="namedview3569"
     showgrid="false"
     fit-margin-top="0"
     fit-margin-left="0"
     fit-margin-right="0"
     fit-margin-bottom="0"
     inkscape:zoom="1.9032258"
     inkscape:cx="35.013362"
     inkscape:cy="-50.995555"
     inkscape:window-x="136"
     inkscape:window-y="0"
     inkscape:window-maximized="0"
     inkscape:current-layer="AvatarAssets" />
  <defs
     id="defs3553" />
  <g
     id="backPantsLegUpperRightA8"
     overflow="visible"
     style="overflow:visible"
     transform="translate(3.0133618,2.5515)">
    <g
       id="backPantsLegUpperRightA007_0">
      <g
         id="element">
        <g
           id="drawingObject">
          <path
             id="path"
             d="m -3.003,3.459 c 0.15,2.824 5.502,4.86 7.569,5.518 2.456,0.742 3.653,2.922 5.79,1.551 C 11.638,9.705 12.347,8.027 12.075,5.726 11.803,3.425 10.25,1.947 8.52,0.248 Q 6.827,-1.428 4.35,-2.129 2.501,-2.649 1.144,-2.529 c -2.622,0.245 -4.306,2.995 -4.147,5.988 z"
             inkscape:connector-curvature="0"
             style="fill:#80a92d" />
        </g>
        <g
           id="group1">
          <g
             id="drawingObject1">
            <path
               id="path1"
               d="m -2.929,3.557 c 2.396,2.858 5.943,4.169 7.621,5.253 1.142,0.738 2.539,1.532 3.58,2.096 0.49,0.153 0.97,0.136 1.518,-0.11 L 9.377,10.583 C 9.122,10.527 8.566,10.223 7.317,9.415 6.067,8.608 3.143,7.373 0.354,5.679 -1.522,4.521 -2.49,3.623 -2.917,2.965 l -0.028,0.528 0.016,0.064 z"
               inkscape:connector-curvature="0"
               style="fill:#b6c837" />
          </g>
          <g
             id="drawingObject2">
            <path
               id="path2"
               d="m -2.695,1.198 0.668,0.269 c 0.996,0.37 4.773,2.921 7.567,4.89 2.63,1.918 4.398,3.388 5.209,3.749 L 10.965,9.863 10.41,9.178 C 9.841,8.427 8.729,7.818 7.342,6.813 5.956,5.808 4.092,4.057 1.721,2.47 0.207,1.437 -1.335,0.932 -2.519,0.657 l -0.176,0.541 z"
               inkscape:connector-curvature="0"
               style="fill:#b6c837" />
          </g>
          <g
             id="drawingObject3">
            <path
               id="path3"
               d="M 11.82,7.961 C 11.92,7.48 11.962,7.016 11.954,6.465 10.533,4.019 6.453,0.182 3.754,-1.126 2.152,-1.889 0.378,-1.835 -0.829,-1.687 l -0.697,0.64 c 1.845,-0.008 4.643,0.818 7.092,1.965 q 2.877,1.423 6.254,7.043 z"
               inkscape:connector-curvature="0"
               style="fill:#b6c837" />
          </g>
        </g>
        <g
           id="drawingObject4">
          <path
             id="path4"
             d="M 12.108,5.747 C 11.836,3.446 10.282,1.968 8.553,0.269 5.948,-2.26 2.44,-2.633 1.176,-2.508 c -0.905,0.08 -1.676,0.464 -2.328,1.086 0.993,0.03 2.068,0.277 3.075,0.753 C 4.314,0.577 7.022,2.243 7.377,4.379 7.733,6.515 7.454,7.156 7.446,8.024 7.38,8.91 7.021,8.955 5.658,9.18 l -0.38,0.086 q 1.028,0.435 2.589,1.427 1.318,0.619 2.522,-0.144 c 1.282,-0.823 1.99,-2.501 1.719,-4.802 z"
             inkscape:connector-curvature="0"
             style="fill:#000000;fill-opacity:0.2" />
        </g>
      </g>
    </g>
  </g>
</svg>
