<?xml version="1.0" encoding="UTF-8" standalone="no"?>
<!-- Generator: flash2svg, http://dissentgraphics.com/tools/flash2svg -->

<svg
   xmlns:dc="http://purl.org/dc/elements/1.1/"
   xmlns:cc="http://creativecommons.org/ns#"
   xmlns:rdf="http://www.w3.org/1999/02/22-rdf-syntax-ns#"
   xmlns:svg="http://www.w3.org/2000/svg"
   xmlns="http://www.w3.org/2000/svg"
   xmlns:sodipodi="http://sodipodi.sourceforge.net/DTD/sodipodi-0.dtd"
   xmlns:inkscape="http://www.inkscape.org/namespaces/inkscape"
   id="AvatarAssets"
   image-rendering="auto"
   version="1.1"
   x="0px"
   y="0px"
   width="15.695272"
   height="16.94018"
   viewBox="0 0 15.695272 16.94018"
   inkscape:version="0.48.4 r9939"
   sodipodi:docname="AvatarAssets_backPantsLegLowerRightA007.svg">
  <metadata
     id="metadata3187">
    <rdf:RDF>
      <cc:Work
         rdf:about="">
        <dc:format>image/svg+xml</dc:format>
        <dc:type
           rdf:resource="http://purl.org/dc/dcmitype/StillImage" />
      </cc:Work>
    </rdf:RDF>
  </metadata>
  <sodipodi:namedview
     pagecolor="#ffffff"
     bordercolor="#666666"
     borderopacity="1"
     objecttolerance="10"
     gridtolerance="10"
     guidetolerance="10"
     inkscape:pageopacity="0"
     inkscape:pageshadow="2"
     inkscape:window-width="640"
     inkscape:window-height="480"
     id="namedview3185"
     showgrid="false"
     fit-margin-top="0"
     fit-margin-left="0"
     fit-margin-right="0"
     fit-margin-bottom="0"
     inkscape:zoom="1.9032258"
     inkscape:cx="44.872"
     inkscape:cy="-47.720821"
     inkscape:window-x="136"
     inkscape:window-y="0"
     inkscape:window-maximized="0"
     inkscape:current-layer="AvatarAssets" />
  <defs
     id="defs3169" />
  <g
     id="backPantsLegLowerRightA8"
     overflow="visible"
     style="overflow:visible"
     transform="translate(12.872,2.661)">
    <g
       id="backPantsLegLowerRightA007_0">
      <g
         id="element">
        <g
           id="drawingObject">
          <path
             id="path"
             d="m 1.881,-1.116 c -3.347,-2.19 -4.91,-1.574 -6.573,-0.777 -1.698,0.735 -3.085,2.434 -3.95,4.118 -0.901,1.622 -4.23,3.422 -4.23,3.422 l 0.403,-0.151 -0.403,0.151 c 0,0 0.564,-0.367 1.701,-0.166 1.124,0.25 2.747,0.374 4.575,4.177 1.664,3.448 1.718,4.601 1.718,4.601 0,0 0.653,0.071 0.548,-0.888 -0.057,-0.947 2.893,-3.263 4.088,-5.79 L 2.712,1.385 Q 2.916,0.818 2.746,0.1 2.54,-0.68 1.881,-1.116 z"
             inkscape:connector-curvature="0"
             style="fill:#80a92d" />
        </g>
        <g
           id="group1">
          <g
             id="drawingObject1">
            <path
               id="path1"
               d="m -3.497,-2.447 c -0.438,0.09 -0.805,0.302 -1.221,0.501 q -2.346,1.028 -3.95,4.118 c -0.526,0.998 -1.916,2.127 -4.072,3.413 0.368,-0.213 0.902,-0.276 1.543,-0.156 l 0.097,0.025 c 0.606,-0.717 1.402,-1.177 1.983,-1.798 0.728,-0.788 1.838,-2.613 3.654,-4.559 0.593,-0.669 1.306,-1.203 1.966,-1.544 z"
               inkscape:connector-curvature="0"
               style="fill:#b6c837" />
          </g>
          <g
             id="drawingObject2">
            <path
               id="path2"
               d="m -4.422,9.314 c -0.61,0.924 -1.155,1.606 -1.464,1.989 q 0.491,1.063 0.745,1.856 c 0.177,-0.47 0.642,-1.433 1.252,-2.356 0.845,-1.223 2.145,-2.79 3.749,-5.88 1.405,-2.73 2.341,-5.067 2.532,-5.585 L 1.855,-1.168 1.543,-1.355 c -0.23,0.663 -0.905,2.604 -1.687,4.362 -0.92,2.082 -3.245,4.772 -4.278,6.307 z"
               inkscape:connector-curvature="0"
               style="fill:#b6c837" />
          </g>
          <g
             id="drawingObject3">
            <path
               id="path3"
               d="m -0.949,-2.489 c -0.29,-0.077 -0.579,-0.155 -0.834,-0.172 -0.471,0.599 -1.383,1.493 -2.183,2.159 q -0.799,0.666 -2.29,2.751 -1.477,2.037 -1.671,2.761 c -0.194,0.725 -0.688,1.214 -0.897,1.417 0.37,0.357 0.81,0.838 1.26,1.476 L -7.025,6.857 C -6.608,5.882 -6.233,4.481 -5.01,2.428 -3.787,0.374 -1.623,-2.1 -0.949,-2.489 z"
               inkscape:connector-curvature="0"
               style="fill:#b6c837" />
          </g>
        </g>
        <g
           id="drawingObject4">
          <path
             id="path4"
             d="M 2.681,1.403 C 2.911,0.74 2.822,-0.474 1.85,-1.097 0.746,-1.807 -0.181,-2.211 -0.954,-2.418 l 0.958,1.448 -0.958,-1.448 c 0,0 2.32,1.968 0.806,5.496 C -1.724,6.642 -2.482,6.956 -3.786,6.607 -5.041,6.271 -5.822,4.353 -7.094,4.271 L -8.366,4.189 -7.378,4.558 -8.366,4.189 c 0,0 1.887,0.299 2.317,2.174 0.49,1.839 0.676,3.08 0.473,2.87 Q -6.332,7.995 -7.454,6.97 -9.568,5.006 -11.711,5.467 l 0.509,0.033 c 1.124,0.249 2.747,0.374 4.575,4.176 1.665,3.448 1.718,4.602 1.718,4.602 0,0 0.654,0.071 0.549,-0.889 -0.057,-0.947 2.893,-3.262 4.087,-5.789 L 2.681,1.403 z"
             inkscape:connector-curvature="0"
             style="fill:#000000;fill-opacity:0.2" />
        </g>
      </g>
    </g>
  </g>
</svg>
