<?xml version="1.0" encoding="UTF-8" standalone="no"?>
<!-- Generator: flash2svg, http://dissentgraphics.com/tools/flash2svg -->

<svg
   xmlns:dc="http://purl.org/dc/elements/1.1/"
   xmlns:cc="http://creativecommons.org/ns#"
   xmlns:rdf="http://www.w3.org/1999/02/22-rdf-syntax-ns#"
   xmlns:svg="http://www.w3.org/2000/svg"
   xmlns="http://www.w3.org/2000/svg"
   xmlns:sodipodi="http://sodipodi.sourceforge.net/DTD/sodipodi-0.dtd"
   xmlns:inkscape="http://www.inkscape.org/namespaces/inkscape"
   id="AvatarAssets"
   image-rendering="auto"
   version="1.1"
   x="0px"
   y="0px"
   width="9.3999996"
   height="12.413007"
   viewBox="0 0 9.3999996 12.413007"
   inkscape:version="0.48.4 r9939"
   sodipodi:docname="AvatarAssets_backPantsLegUpperRight20101122Color_1.svg">
  <metadata
     id="metadata3435">
    <rdf:RDF>
      <cc:Work
         rdf:about="">
        <dc:format>image/svg+xml</dc:format>
        <dc:type
           rdf:resource="http://purl.org/dc/dcmitype/StillImage" />
      </cc:Work>
    </rdf:RDF>
  </metadata>
  <sodipodi:namedview
     pagecolor="#ffffff"
     bordercolor="#666666"
     borderopacity="1"
     objecttolerance="10"
     gridtolerance="10"
     guidetolerance="10"
     inkscape:pageopacity="0"
     inkscape:pageshadow="2"
     inkscape:window-width="640"
     inkscape:window-height="480"
     id="namedview3433"
     showgrid="false"
     fit-margin-top="0"
     fit-margin-left="0"
     fit-margin-right="0"
     fit-margin-bottom="0"
     inkscape:zoom="1.9032258"
     inkscape:cx="36.65"
     inkscape:cy="-55.736994"
     inkscape:window-x="136"
     inkscape:window-y="0"
     inkscape:window-maximized="0"
     inkscape:current-layer="AvatarAssets" />
  <defs
     id="defs3426" />
  <g
     id="backPantsLegUpperRight20101122Color_2"
     overflow="visible"
     style="overflow:visible"
     transform="translate(4.65,6.15)">
    <g
       id="backPantsLegUpperRight20101122Color_1_0">
      <g
         id="element">
        <path
           id="path"
           d="M 2.2,-3.1 C 1.4,-3.7 0.75,-4.2 0.25,-4.65 c -0.1,0.05 -0.1,0.05 -0.15,0.1 -0.2,-0.05 -0.65,0.45 -1.75,1.9 -0.1,0.1 -0.15,0.25 -0.15,0.2 -0.15,0.35 -0.3,0.65 -0.55,1.15 -0.4,0.55 -0.75,1.35 -1.15,2.25 -0.55,1.1 -0.85,1.8 -0.95,2.1 -0.05,0.05 -0.1,0.2 -0.05,0.15 -0.1,0.25 -0.1,0.4 -0.1,0.45 0,0.1 0,0.25 -0.05,0.35 0.6,0.5 1.2,0.85 1.95,1.25 0.1,0.05 0.2,0.15 0.3,0.15 0.4,0.2 0.8,0.3 1.15,0.5 q 0.3,0.05 0.6,0.15 C -0.05,6.2 0.4,6.3 0.85,6.25 1.05,6.2 1.25,6.2 1.35,6.15 1.8,6.05 2.15,5.85 2.5,5.55 3.05,5.1 3.6,4.4 4.05,3.45 4.5,2.7 4.7,1.95 4.75,1.25 4.7,0.9 4.7,0.55 4.65,0.2 4.6,0.15 4.6,0.1 4.6,0.05 4.6,0 4.6,0 4.6,-0.05 4.55,-0.2 4.45,-0.35 4.4,-0.5 4.35,-0.7 4.25,-0.85 4.2,-0.95 L 3.95,-1.35 C 3.75,-1.7 3.55,-2 3.3,-2.2 3,-2.45 2.7,-2.75 2.4,-2.95 2.35,-3 2.25,-3.05 2.2,-3.1 z m -3.25,-2.55 0,-0.05 C -1.25,-5.9 -1.45,-6 -1.6,-6.15 l 0.55,0.5 z"
           inkscape:connector-curvature="0"
           style="fill:#edede4" />
        <path
           id="path3"
           d="m -3.3,0.05 c 0,0 -0.05,0.05 -0.05,0.1 -0.05,0.1 -0.05,0.15 0,0.15 C -3.3,0.2 -3.3,0.1 -3.3,0.05"
           inkscape:connector-curvature="0"
           style="fill:#edede4" />
      </g>
    </g>
  </g>
</svg>
