<?xml version="1.0" encoding="UTF-8" standalone="no"?>
<!-- Generator: flash2svg, http://dissentgraphics.com/tools/flash2svg -->

<svg
   xmlns:dc="http://purl.org/dc/elements/1.1/"
   xmlns:cc="http://creativecommons.org/ns#"
   xmlns:rdf="http://www.w3.org/1999/02/22-rdf-syntax-ns#"
   xmlns:svg="http://www.w3.org/2000/svg"
   xmlns="http://www.w3.org/2000/svg"
   xmlns:xlink="http://www.w3.org/1999/xlink"
   xmlns:sodipodi="http://sodipodi.sourceforge.net/DTD/sodipodi-0.dtd"
   xmlns:inkscape="http://www.inkscape.org/namespaces/inkscape"
   id="AvatarAssets"
   image-rendering="auto"
   version="1.1"
   x="0px"
   y="0px"
   width="15.690518"
   height="13.196564"
   viewBox="0 0 15.690518 13.196564"
   inkscape:version="0.48.4 r9939"
   sodipodi:docname="AvatarAssets_backPantsLegUpperRightA012.svg">
  <metadata
     id="metadata3734">
    <rdf:RDF>
      <cc:Work
         rdf:about="">
        <dc:format>image/svg+xml</dc:format>
        <dc:type
           rdf:resource="http://purl.org/dc/dcmitype/StillImage" />
      </cc:Work>
    </rdf:RDF>
  </metadata>
  <sodipodi:namedview
     pagecolor="#ffffff"
     bordercolor="#666666"
     borderopacity="1"
     objecttolerance="10"
     gridtolerance="10"
     guidetolerance="10"
     inkscape:pageopacity="0"
     inkscape:pageshadow="2"
     inkscape:window-width="640"
     inkscape:window-height="480"
     id="namedview3732"
     showgrid="false"
     fit-margin-top="0"
     fit-margin-left="0"
     fit-margin-right="0"
     fit-margin-bottom="0"
     inkscape:zoom="1.9032258"
     inkscape:cx="35.269314"
     inkscape:cy="-51.333743"
     inkscape:window-x="136"
     inkscape:window-y="0"
     inkscape:window-maximized="0"
     inkscape:current-layer="AvatarAssets" />
  <defs
     id="defs3706">
    <pattern
       id="bitmap"
       patternContentUnits="userSpaceOnUse"
       patternUnits="userSpaceOnUse"
       width="200"
       height="200"
       viewBox="0 0 200 200"
       patternTransform="matrix(1 0 0 1 -99.399 -93.849)">
      <symbol
         id="Denim_Texture_white_symbol"
         viewBox="0 0 200 200">
        <image
           sodipodi:absref="C:\Users\Training\Documents\GitHub\Glitchen-Avatar-Engine\glitch-avatars-svg\base_avatar\AvatarAssets.fla\clothing\back\Denim_Texture_white"
           xlink:href="Denim_Texture_white"
           height="200"
           width="200"
           id="Denim_Texture_white" />
      </symbol>
      <use
         id="Denim_Texture_white_use"
         width="200"
         height="200"
         y="0"
         x="0"
         xlink:href="#Denim_Texture_white_symbol"
         externalResourcesRequired="true" />
    </pattern>
    <pattern
       id="bitmap1"
       patternContentUnits="userSpaceOnUse"
       patternUnits="userSpaceOnUse"
       width="200"
       height="200"
       viewBox="0 0 200 200"
       patternTransform="matrix(-0.5843505859375 0.81121826171875 0.690216064453125 0.5242919921875 -5.999 -129.699)">
      <symbol
         id="symbol3713"
         viewBox="0 0 200 200">
        <image
           sodipodi:absref="C:\Users\Training\Documents\GitHub\Glitchen-Avatar-Engine\glitch-avatars-svg\base_avatar\AvatarAssets.fla\clothing\back\Denim_Texture_white"
           xlink:href="Denim_Texture_white"
           height="200"
           width="200"
           id="image3715" />
      </symbol>
      <use
         id="use3717"
         width="200"
         height="200"
         y="0"
         x="0"
         xlink:href="#Denim_Texture_white_symbol"
         externalResourcesRequired="true" />
    </pattern>
  </defs>
  <g
     id="backPantsLegUpperRightA13"
     overflow="visible"
     style="overflow:visible"
     transform="translate(3.2693137,2.5303068)">
    <g
       id="backPantsLegUpperRightA012_0">
      <g
         id="element">
        <g
           id="drawingObject">
          <path
             id="path"
             d="M -3.241,2.754 Q -3.408,1.059 -2.59,-0.077 c 2.898,-3.949 7.518,-2.134 9.137,-1.343 1.585,0.764 5.259,4.559 5.731,6.424 0.538,2.292 -2.075,5.327 -4.39,5.576 C 6.47,10.695 3.199,8.713 2.278,8.139 1.386,7.524 -1.118,6.626 -2.225,5.346 Q -3.114,4.357 -3.241,2.754 z"
             inkscape:connector-curvature="0"
             style="fill:url(#bitmap1)" />
        </g>
        <g
           id="drawingObject1">
          <path
             id="path1"
             d="M -2.153,5.426 C -2.583,4.912 -2.867,4.194 -3.058,3.421 -2.065,4.489 0.027,4.698 0.768,4.633 1.607,4.58 2.605,5.715 2.998,5.762 3.391,5.81 3.418,5.328 3.532,4.724 3.612,4.095 4.289,4.044 4.711,4.051 5.133,4.058 5.375,4.242 6.002,3.965 6.663,3.714 7.709,3.818 9.681,4.563 11.118,5.09 11.591,4.507 11.872,3.968 l 0.478,1.116 c 0.538,2.292 -2.075,5.327 -4.391,5.576 Q 6.478,10.79 2.35,8.219 C 1.458,7.604 -1.046,6.707 -2.153,5.426 z"
             inkscape:connector-curvature="0"
             style="fill:#000000;fill-opacity:0.2" />
        </g>
        <g
           id="drawingObject2">
          <path
             id="path2"
             d="M -2.153,5.426 -2.49,4.857 c 1.569,1.38 4.505,2.418 4.84,2.546 0.369,0.155 2.092,0.209 3.197,-0.583 1.105,-0.793 3.932,0.1 4.713,0.128 q 0.358,0.021 1.027,-0.537 0.752,-0.747 1.084,-1.06 C 12.713,7.619 10.211,10.425 7.959,10.66 6.541,10.776 3.271,8.793 2.35,8.219 1.458,7.604 -1.046,6.707 -2.153,5.426 z"
             inkscape:connector-curvature="0"
             style="fill:#000000;fill-opacity:0.2" />
        </g>
        <g
           id="drawingObject3">
          <path
             id="path3"
             d="M 2.684,-1.066 C 1.332,-1.339 0.27,-1.644 0.27,-1.644 q 2.188,-0.221 4.355,0.923 c 2.166,1.143 2.551,1.499 3.093,1.784 0.541,0.286 0.931,0.708 1.813,1.19 0.881,0.481 2.023,1.787 2.023,1.787 0,0 -4.086,-2.852 -5.631,-3.524 C 4.372,-0.222 4.035,-0.792 2.684,-1.066 z"
             inkscape:connector-curvature="0"
             style="fill:#ffffff;fill-opacity:0.2" />
        </g>
        <g
           id="drawingObject4">
          <path
             id="path4"
             d="m 0.754,-2.093 c 0,0 2.655,-0.054 4.097,0.539 1.377,0.608 2.349,1.409 3.015,2.04 l 2.95,2.429 c 0,0 -1.001,-0.76 -1.439,-0.968 C 9.002,1.726 8.533,1.118 8.164,0.963 7.765,0.849 7.158,0.136 5.135,-0.836 Q 3.146,-1.782 0.754,-2.093 z"
             inkscape:connector-curvature="0"
             style="fill:#000000;fill-opacity:0.2" />
        </g>
      </g>
    </g>
  </g>
</svg>
