<?xml version="1.0" encoding="UTF-8" standalone="no"?>
<!-- Generator: flash2svg, http://dissentgraphics.com/tools/flash2svg -->

<svg
   xmlns:dc="http://purl.org/dc/elements/1.1/"
   xmlns:cc="http://creativecommons.org/ns#"
   xmlns:rdf="http://www.w3.org/1999/02/22-rdf-syntax-ns#"
   xmlns:svg="http://www.w3.org/2000/svg"
   xmlns="http://www.w3.org/2000/svg"
   xmlns:sodipodi="http://sodipodi.sourceforge.net/DTD/sodipodi-0.dtd"
   xmlns:inkscape="http://www.inkscape.org/namespaces/inkscape"
   id="AvatarAssets"
   image-rendering="auto"
   version="1.1"
   x="0px"
   y="0px"
   width="15.983894"
   height="14.006055"
   viewBox="0 0 15.983894 14.006055"
   inkscape:version="0.48.4 r9939"
   sodipodi:docname="AvatarAssets_backPantsLegUpperRightA011b.svg">
  <metadata
     id="metadata3703">
    <rdf:RDF>
      <cc:Work
         rdf:about="">
        <dc:format>image/svg+xml</dc:format>
        <dc:type
           rdf:resource="http://purl.org/dc/dcmitype/StillImage" />
      </cc:Work>
    </rdf:RDF>
  </metadata>
  <sodipodi:namedview
     pagecolor="#ffffff"
     bordercolor="#666666"
     borderopacity="1"
     objecttolerance="10"
     gridtolerance="10"
     guidetolerance="10"
     inkscape:pageopacity="0"
     inkscape:pageshadow="2"
     inkscape:window-width="640"
     inkscape:window-height="480"
     id="namedview3701"
     showgrid="false"
     fit-margin-top="0"
     fit-margin-left="0"
     fit-margin-right="0"
     fit-margin-bottom="0"
     inkscape:zoom="1.9032258"
     inkscape:cx="34.996894"
     inkscape:cy="-50.635"
     inkscape:window-x="136"
     inkscape:window-y="0"
     inkscape:window-maximized="0"
     inkscape:current-layer="AvatarAssets" />
  <defs
     id="defs3676" />
  <g
     id="backPantsLegUpperRightA011b1"
     overflow="visible"
     style="overflow:visible"
     transform="translate(2.9968942,2.6410545)">
    <g
       id="backPantsLegUpperRightA011b_0">
      <g
         id="element">
        <g
           id="drawingObject">
          <path
             id="path"
             d="M 7.571,7.563 C 8.827,4.911 8.853,4.373 8.853,4.373 L 8.685,4.96 8.853,4.373 8.416,3.255 10.36,3.22 c 0,0 -1.51,-2.547 -3.979,-2.808 C 3.928,0.198 0.009,7.097 0.009,7.097 l 4.885,3.29 c 0.508,0.249 1.695,0.316 1.695,0.316 0,0 -0.322,-0.629 0.982,-3.14 z"
             inkscape:connector-curvature="0"
             style="fill:#000000;fill-opacity:0.29800002" />
        </g>
        <g
           id="drawingObject1">
          <path
             id="path1"
             d="M 11.295,1.788 C 10.772,1.651 7.345,-1.242 4.743,-2.197 Q 2.934,-2.844 1.009,-2.446 -0.616,-2.099 -1.179,-1.43 c -3.906,4.939 -0.531,9.066 0.996,9.968 1.51,0.855 4.06,1.353 5.155,1.77 1.111,0.463 1.844,1.057 1.844,1.057 L 6.575,10.972 C 6.429,10.547 6.371,9.456 6.919,7.206 7.498,4.892 9.055,4.039 9.055,4.039 L 8.24,4.743 9.055,4.039 8.829,3.535 6.525,0.679 7.925,1.52 c 1.318,0.604 2.448,1.431 2.448,1.431 L 11.787,1.989 11.295,1.788 z"
             inkscape:connector-curvature="0"
             style="fill:#fe8cd1" />
        </g>
        <g
           id="drawingObject2">
          <path
             id="path2"
             d="M 1.648,-0.029 C 3.078,0.748 3.377,0.54 3.089,1.855 2.801,3.17 2.494,4.122 2.467,4.66 L 2.426,5.308 c 0,0 0.821,-1.762 1.34,-2.099 L 4.237,2.888 4.016,6.242 C 4.044,7.554 3.636,7.906 3.025,8.433 L 2.35,8.93 0.99,8.975 3.148,9.713 3.416,9.726 3.56,9.836 4.019,9.942 C 4.098,9.862 4.126,9.482 4.622,8.466 5.272,6.973 6.344,5.018 6.678,5.221 6.996,5.376 6.127,7.155 6.061,8.5 5.976,9.481 6.047,10.302 5.861,10.683 l 0.97,0.671 -0.209,-0.456 C 6.444,10.536 6.37,9.398 6.918,7.147 7.56,4.864 9.054,3.981 9.054,3.981 L 8.239,4.684 9.054,3.981 8.781,3.493 6.524,0.621 8.034,1.476 c 1.208,0.59 2.385,1.401 2.385,1.401 L 11.85,1.962 11.326,1.825 C 10.834,1.624 7.344,-1.3 4.742,-2.256 2.156,-3.164 -0.539,-2.237 -1.133,-1.504 l -0.671,0.971 c 1.233,-0.107 2.452,0.055 3.452,0.504 z"
             inkscape:connector-curvature="0"
             style="fill:#e77dbd" />
        </g>
        <g
           id="drawingObject3">
          <path
             id="path3"
             d="m 1.936,-1.443 c 2.066,1.087 3.333,1.391 3.651,3.238 0.365,1.831 0.231,2.67 -0.218,3.67 L 4.953,6.56 c 0,0 1.056,-2.002 1.715,-2.546 C 7.232,3.503 7.962,3.781 7.967,4.255 7.97,4.571 7.894,4.967 7.77,5.221 8.442,4.409 9.055,4.039 9.055,4.039 L 8.662,4.28 9.055,4.039 8.829,3.535 6.525,0.679 7.925,1.52 q 1.318,0.604 2.448,1.431 L 11.787,1.989 11.295,1.788 c -0.523,-0.137 -3.95,-3.03 -6.552,-3.985 -2.079,-0.819 -4.146,-0.372 -5.247,0.271 0.664,-0.07 1.581,-0.015 2.44,0.483 z"
             inkscape:connector-curvature="0"
             style="fill:#d06ca9" />
        </g>
        <g
           id="drawingObject4">
          <path
             id="path4"
             d="M 3.217,-1.408 C 4.043,-1.005 5.654,0.45 5.875,0.48 6.128,0.446 6.14,0.019 5.486,-0.497 Q 5.056,-0.825 4.105,-1.132 L 3.217,-1.408 z"
             inkscape:connector-curvature="0"
             style="fill:#fe8cd1" />
        </g>
        <g
           id="drawingObject5">
          <path
             id="path5"
             d="m 10.373,2.951 c 0.093,-0.19 -0.19,-0.093 -0.19,-0.093 L 10.341,2.857 10.183,2.858 9.948,3.098 Q 9.822,3.194 9.082,3.501 C 8.893,3.566 8.863,3.788 8.863,3.788 L 9.055,4.039 9.29,3.8 C 9.511,3.671 10.342,3.015 10.373,2.951 z"
             inkscape:connector-curvature="0"
             style="fill:#d06ca9" />
        </g>
        <g
           id="drawingObject6">
          <path
             id="path6"
             d="m 9.698,3.448 c -0.127,-0.062 0.132,0.536 0.324,0.787 0.097,0.284 0.196,0.726 0.598,1.434 0.528,0.611 0.818,1.146 0.818,1.146 L 11.642,6.639 C 11.909,6.494 11.78,6.274 11.78,6.274 L 11.766,6.385 11.78,6.274 11.254,5.821 C 11.047,5.68 11.047,5.68 10.724,4.893 L 9.698,3.448 z"
             inkscape:connector-curvature="0"
             style="fill:#af4a87" />
        </g>
        <g
           id="drawingObject7">
          <path
             id="path7"
             d="m 9.889,3.541 c 0,0 -0.173,0.112 -0.062,0.127 0.189,-0.065 0.448,0.533 0.957,0.94 0.51,0.406 0.891,0.592 1.224,0.636 L 12.722,5.475 12.911,5.41 C 13.036,5.314 12.906,4.935 12.906,4.935 L 12.987,5.172 12.906,4.935 12.637,4.922 C 12.352,4.862 11.894,4.913 11.529,4.775 Q 11.291,4.698 10.574,4.151 9.905,3.588 9.889,3.541 z"
             inkscape:connector-curvature="0"
             style="fill:#af4a87" />
        </g>
        <g
           id="drawingObject8">
          <path
             id="path8"
             d="M 9.555,3.339 C 9.508,3.355 9.324,4.052 9.233,4.401 Q 9.095,4.924 8.948,6.032 C 8.889,6.476 9.099,6.932 9.369,7.104 9.607,7.18 10.031,6.876 10.405,6.272 10.637,5.716 10.374,4.643 10.212,4.329 L 9.697,3.29 C 9.491,3.308 9.589,3.591 9.83,3.984 10.056,4.488 10.176,5.452 10.1,5.848 9.962,6.213 9.775,6.594 9.569,6.453 9.345,6.266 9.342,5.95 9.339,5.633 9.335,5.159 9.502,4.414 9.546,4.082 9.543,3.766 9.604,3.481 9.555,3.339 z"
             inkscape:connector-curvature="0"
             style="fill:#d06ca9" />
        </g>
        <g
           id="drawingObject9">
          <path
             id="path9"
             d="M 9.853,3.13 9.948,3.098 c 0,0 -0.284,0.097 -0.141,0.207 L 9.935,3.367 C 9.824,3.352 9.856,3.446 9.856,3.446 L 10.001,3.714 9.856,3.446 c 0,0 0.257,0.441 0.718,0.705 0.461,0.265 0.905,0.324 1.36,-0.044 0.549,-0.401 0.923,-1.005 0.762,-1.32 C 12.615,2.551 11.807,2.353 11.193,2.722 10.644,3.123 10.042,3.065 9.948,3.098 m 1.461,0.713 Q 11.142,3.956 10.824,3.801 10.49,3.599 10.22,3.427 L 10.029,3.334 C 10.345,3.331 10.74,3.248 11.055,3.087 l 0.995,-0.025 0.018,0.205 c -0.046,0.175 -0.233,0.398 -0.659,0.544 z"
             inkscape:connector-curvature="0"
             style="fill:#d06ca9" />
        </g>
      </g>
    </g>
  </g>
</svg>
