<?xml version="1.0" encoding="UTF-8" standalone="no"?>
<!-- Generator: flash2svg, http://dissentgraphics.com/tools/flash2svg -->

<svg
   xmlns:dc="http://purl.org/dc/elements/1.1/"
   xmlns:cc="http://creativecommons.org/ns#"
   xmlns:rdf="http://www.w3.org/1999/02/22-rdf-syntax-ns#"
   xmlns:svg="http://www.w3.org/2000/svg"
   xmlns="http://www.w3.org/2000/svg"
   xmlns:sodipodi="http://sodipodi.sourceforge.net/DTD/sodipodi-0.dtd"
   xmlns:inkscape="http://www.inkscape.org/namespaces/inkscape"
   id="AvatarAssets"
   image-rendering="auto"
   version="1.1"
   x="0px"
   y="0px"
   width="11.778921"
   height="16.013239"
   viewBox="0 0 11.778921 16.013239"
   inkscape:version="0.48.4 r9939"
   sodipodi:docname="AvatarAssets_backShoeRightA002.svg">
  <metadata
     id="metadata3826">
    <rdf:RDF>
      <cc:Work
         rdf:about="">
        <dc:format>image/svg+xml</dc:format>
        <dc:type
           rdf:resource="http://purl.org/dc/dcmitype/StillImage" />
      </cc:Work>
    </rdf:RDF>
  </metadata>
  <sodipodi:namedview
     pagecolor="#ffffff"
     bordercolor="#666666"
     borderopacity="1"
     objecttolerance="10"
     gridtolerance="10"
     guidetolerance="10"
     inkscape:pageopacity="0"
     inkscape:pageshadow="2"
     inkscape:window-width="640"
     inkscape:window-height="480"
     id="namedview3824"
     showgrid="false"
     fit-margin-top="0"
     fit-margin-left="0"
     fit-margin-right="0"
     fit-margin-bottom="0"
     inkscape:zoom="1.9032258"
     inkscape:cx="36.383457"
     inkscape:cy="-50.335761"
     inkscape:window-x="136"
     inkscape:window-y="0"
     inkscape:window-maximized="0"
     inkscape:current-layer="AvatarAssets" />
  <defs
     id="defs3797" />
  <g
     id="backShoeRightA3"
     overflow="visible"
     style="overflow:visible"
     transform="translate(4.3834573,4.349)">
    <g
       id="backShoeRightA002_0">
      <g
         id="element">
        <g
           id="group1">
          <g
             id="group2">
            <g
               id="drawingObject">
              <path
                 id="path"
                 d="m 6.901,9.601 c 1.05,-1.45 -0.2,-3.9 -0.45,-4.1 l -1.75,-1.15 0.05,-0.55 c 0.1,-0.55 -0.5,-3.35 -0.8,-4.05 -0.3,-0.75 -2.45,-2.3 -2.45,-2.3 l 0.3,-0.4 c 0.3,-0.4 0.1,-1.05 0.1,-1.05 l -0.2,-0.15 -1.25,-0.2 c 0,0 -0.4,0.2 -0.45,0.55 -0.05,0.4 -0.25,0.7 -0.25,0.7 l -0.25,0.15 q -1.6,0.4 -2,0.65 c -2.3,1.5 -1.9,5.45 -1.2,6.5 0.7,1 1.2,3.25 2.8,4.05 1.65,0.8 4.35,2.8 5.5,2.95 1.1,0.1 1.25,-0.15 2.3,-1.6 z"
                 inkscape:connector-curvature="0"
                 style="fill:#b33120" />
            </g>
            <g
               id="drawingObject1">
              <path
                 id="path1"
                 d="m 2.751,2.101 c 0.2,-0.6 0.25,-2.3 -0.4,-3.3 q -0.45,-0.75 -1.75,-1.05 -1.25,-0.3 -2.2,0 c -1.25,0.35 -1.3,1.1 -1.55,1.45 0,0 -0.4,0.35 -0.9,0.95 -0.4,1.6 -0.1,3.4 0.35,4.05 0.7,1 1.2,3.25 2.8,4.05 1.45,0.75 3.8,2.4 5.1,2.85 l 1.15,-1.6 c 1,-1.6 -0.4,-4 -0.4,-4 l 0.6,1.4 -0.6,-1.4 c 0,0 -0.4,0.9 -0.9,1.25 -0.45,0.3 -0.75,-2.2 -0.9,-2.45 -0.15,-0.25 -0.6,-1.55 -0.4,-2.2 z"
                 inkscape:connector-curvature="0"
                 style="fill:#8c2619" />
            </g>
            <g
               id="drawingObject2">
              <path
                 id="path2"
                 d="m 7.301,8.951 c 0.3,-1 -0.15,-2.65 -0.85,-3.45 -0.65,-0.85 -1.75,-1.15 -1.75,-1.15 l 0.65,0.25 -0.65,-0.25 0.35,2.05 q 0.2,1.95 -0.7,2.95 c -0.7,0.75 -1.35,1.2 -1.1,1.4 0.25,0.15 1.3,0.7 1.9,0.55 0.55,-0.1 1.85,-1.3 2.15,-2.35 z"
                 inkscape:connector-curvature="0"
                 style="fill:#bdb7b6" />
            </g>
            <g
               id="drawingObject3">
              <path
                 id="path3"
                 d="m 6.451,5.501 c -0.8,-0.75 -1.55,-1.25 -1.25,-0.6 l 0.2,2.25 c 0,0.8 0.55,1.4 0.8,1.45 0.25,0 1.15,0.35 1.1,-0.5 0,-0.9 -0.05,-1.9 -0.85,-2.6 z"
                 inkscape:connector-curvature="0"
                 style="fill:#ded8d7" />
            </g>
            <g
               id="drawingObject4">
              <path
                 id="path4"
                 d="m 0.451,0.951 -0.75,-0.875 0,0.025 c 0.35,0.45 0.65,1 0.8,1.75 0.25,1.2 1.05,4.9 1.9,4.75 0.8,-0.15 1.3,-1.1 1.1,-2.05 -0.2,-1 -1.15,-0.55 -1.15,-0.55 l 0.5,-0.1 -0.5,0.1 0.25,0.25 c 0.2,0.2 -0.15,1.25 -0.45,1.05 q -0.15,-0.1 -0.3,-0.9 -0.2,-1.2 -0.35,-1.65 c -0.15,-0.5 -0.5,-1.1 -1.05,-1.8 z"
                 inkscape:connector-curvature="0"
                 style="fill:#ded8d7" />
            </g>
            <g
               id="drawingObject5">
              <path
                 id="path5"
                 d="m -1.499,0.251 c 0.85,0.4 1.8,1.45 1.6,1.45 q -0.5,-0.05 0.15,0.3 0.6,0.3 0.8,0.1 c 0.3,-0.25 0.6,-2 -0.9,-3.05 -1.55,-1.05 -2.65,-0.95 -3.65,-0.3 -0.95,0.65 -1,1.25 -0.65,1.35 0.4,0.1 1.8,-0.25 2.65,0.15 z"
                 inkscape:connector-curvature="0"
                 style="fill:#ded8d7" />
            </g>
            <g
               id="drawingObject6">
              <path
                 id="path6"
                 d="m -4.199,0.051 0.05,0.05 c 0.4,0.1 1.8,-0.25 2.65,0.15 0.85,0.4 1.8,1.45 1.6,1.45 -0.45,-0.05 0.05,0.3 0.5,0.45 -0.25,-0.45 0.05,-0.75 0,-1.45 -0.1,-0.85 -1.4,-2.25 -2.55,-2.25 q -0.75,0 -1.5,0.5 -0.8,0.55 -0.75,1.1 z"
                 inkscape:connector-curvature="0"
                 style="fill:#bfbab9" />
            </g>
            <g
               id="drawingObject7">
              <path
                 id="path7"
                 d="m -4.299,0.651 c -0.25,0.9 0.1,2.2 0.8,4.25 0.65,2 1.1,3 1.8,3.5 0.7,0.55 4.4,2.65 5.15,2.9 0.7,0.3 1.75,0.5 2,0.25 l 0.2,-0.35 -0.5,0.1 q -1.35,-0.45 -2.05,-1.15 -0.65,-0.65 -1.3,-2.05 c -0.9,-1.8 -1.4,-5.65 -1.7,-6.65 -0.25,-0.95 -1.9,-1.8 -2.8,-1.7 -0.9,0.1 -1.4,0 -1.6,0.9 z"
                 inkscape:connector-curvature="0"
                 style="fill:#ded8d7" />
            </g>
            <g
               id="drawingObject8">
              <path
                 id="path8"
                 d="m -4.349,0.901 c -0.15,0.9 0.2,2.15 0.85,4 0.65,2 1.1,3 1.8,3.5 0.7,0.55 4.4,2.65 5.15,2.9 l 0.1,0.05 c -0.75,-0.45 -1.5,-1.2 -2.05,-2.75 -1.25,-3.25 -1.55,-6.05 -1.8,-6.65 -0.25,-0.55 -0.8,-1.4 -2.15,-1.55 q -1.55,-0.15 -1.9,0.5 z"
                 inkscape:connector-curvature="0"
                 style="fill:#918e8e" />
            </g>
            <g
               id="drawingObject9">
              <path
                 id="path9"
                 d="m 1.651,-3.799 -0.75,1.1 c 1,-0.05 0.75,-1.1 0.75,-1.1"
                 inkscape:connector-curvature="0"
                 style="fill:#6e1e13" />
            </g>
          </g>
        </g>
      </g>
    </g>
  </g>
</svg>
