<?xml version="1.0" encoding="UTF-8" standalone="no"?>
<!-- Generator: flash2svg, http://dissentgraphics.com/tools/flash2svg -->

<svg
   xmlns:dc="http://purl.org/dc/elements/1.1/"
   xmlns:cc="http://creativecommons.org/ns#"
   xmlns:rdf="http://www.w3.org/1999/02/22-rdf-syntax-ns#"
   xmlns:svg="http://www.w3.org/2000/svg"
   xmlns="http://www.w3.org/2000/svg"
   xmlns:sodipodi="http://sodipodi.sourceforge.net/DTD/sodipodi-0.dtd"
   xmlns:inkscape="http://www.inkscape.org/namespaces/inkscape"
   id="AvatarAssets"
   image-rendering="auto"
   version="1.1"
   x="0px"
   y="0px"
   width="12.742285"
   height="11.954206"
   viewBox="0 0 12.742285 11.954206"
   inkscape:version="0.48.4 r9939"
   sodipodi:docname="AvatarAssets_backPantsLegUpperRightA002.svg">
  <metadata
     id="metadata3470">
    <rdf:RDF>
      <cc:Work
         rdf:about="">
        <dc:format>image/svg+xml</dc:format>
        <dc:type
           rdf:resource="http://purl.org/dc/dcmitype/StillImage" />
      </cc:Work>
    </rdf:RDF>
  </metadata>
  <sodipodi:namedview
     pagecolor="#ffffff"
     bordercolor="#666666"
     borderopacity="1"
     objecttolerance="10"
     gridtolerance="10"
     guidetolerance="10"
     inkscape:pageopacity="0"
     inkscape:pageshadow="2"
     inkscape:window-width="640"
     inkscape:window-height="480"
     id="namedview3468"
     showgrid="false"
     fit-margin-top="0"
     fit-margin-left="0"
     fit-margin-right="0"
     fit-margin-bottom="0"
     inkscape:zoom="1.9032258"
     inkscape:cx="35.115285"
     inkscape:cy="-52.588"
     inkscape:window-x="136"
     inkscape:window-y="0"
     inkscape:window-maximized="0"
     inkscape:current-layer="AvatarAssets" />
  <defs
     id="defs3449" />
  <g
     id="backPantsLegUpperRightA3"
     overflow="visible"
     style="overflow:visible"
     transform="translate(3.115285,2.5422066)">
    <g
       id="backPantsLegUpperRightA002_0">
      <g
         id="element">
        <g
           id="drawingObject">
          <path
             id="path"
             d="m 7.767,0.014 c 0,0 -5.552,7.137 -4.984,7.615 l 1.64,1.344 c 0,0 0.109,-1.072 0.915,-2.59 0.763,-1.462 2.8,-3.194 3.533,-3.745 0.727,-0.6 0.483,-0.92 0.255,-1.495 Q 8.635,0.1 7.767,0.014 z"
             inkscape:connector-curvature="0"
             style="fill:#000000;fill-opacity:0.29800002" />
        </g>
        <g
           id="drawingObject1">
          <path
             id="path1"
             d="m 9.627,1.312 c 0,0 -0.122,-1.294 -2.201,-1.774 C 5.39,-0.997 3.471,0.87 3.471,0.87 L 4.667,0.006 3.471,0.87 0.712,7.787 3.032,8.94 3.649,9.412 4.501,8.997 2.68,7.425 C 2.281,7.075 6.838,0.423 7.241,0.42 L 8.416,0.163 8.697,0.377 c 0.336,0.258 0.93,0.935 0.93,0.935 z"
             inkscape:connector-curvature="0"
             style="fill:#822417" />
        </g>
        <g
           id="drawingObject2">
          <path
             id="path2"
             d="M 7.742,2.671 C 9.492,1.43 8.416,0.163 8.416,0.163 l 0.31,0.815 -0.31,-0.815 c 0,0 1.096,0.66 1.056,0.363 C 9.39,0.285 5.585,-2.182 3.539,-2.414 q -4.043,-0.47 -5.136,0.783 c -2.731,3.336 -1.393,7.34 0.986,8.939 1.775,1.225 4.26,2.104 4.26,2.104 0,0 -0.214,-1.231 0.206,-2.244 C 4.268,6.105 5.949,3.967 7.742,2.671 z"
             inkscape:connector-curvature="0"
             style="fill:#b33120" />
        </g>
        <g
           id="drawingObject3">
          <path
             id="path3"
             d="M 9.472,0.526 C 9.39,0.285 5.585,-2.182 3.539,-2.414 Q 2.156,-2.583 0.757,-2.498 l -0.476,0.215 1.604,0.693 c 1.61,0.744 1.108,1.516 0.349,1.869 C 1.425,0.638 0.873,2.173 0.873,2.173 L 2.217,1.289 C 2.871,0.899 3.174,1.665 2.114,2.411 1.111,3.199 0.117,4.44 -1.26,4.32 -2.121,4.284 -2.728,3.508 -3.101,2.6 c 0.065,2.007 1.108,3.783 2.49,4.708 1.775,1.225 4.26,2.104 4.26,2.104 0,0 -0.214,-1.231 0.206,-2.244 C 4.268,6.105 5.949,3.967 7.742,2.671 9.492,1.43 8.416,0.163 8.416,0.163 l 0.31,0.815 -0.31,-0.815 c 0,0 1.096,0.66 1.056,0.363 z"
             inkscape:connector-curvature="0"
             style="fill:#9c2b1c" />
        </g>
        <g
           id="drawingObject4">
          <path
             id="path4"
             d="M 9.472,0.526 C 9.409,0.434 8.736,-0.082 7.753,-0.656 6.318,-1.221 4.902,-1.638 6.043,-0.631 Q 7.353,0.505 5.963,1.799 4.164,3.045 3.764,3.451 C 2.413,5.042 2.017,5.85 0.324,6.377 -1.221,6.885 -2.379,4.62 -2.995,3.392 c 0.273,1.677 1.219,3.113 2.384,3.916 1.775,1.225 4.26,2.104 4.26,2.104 0,0 -0.214,-1.231 0.206,-2.244 C 4.268,6.105 5.949,3.967 7.742,2.671 9.492,1.43 8.416,0.163 8.416,0.163 l 0.31,0.815 -0.31,-0.815 c 0,0 1.096,0.66 1.056,0.363 z"
             inkscape:connector-curvature="0"
             style="fill:#822417" />
        </g>
        <g
           id="drawingObject5">
          <path
             id="path5"
             d="m 7.679,1.822 c 0,0 0.314,-0.293 0.489,-0.871 0.218,-0.633 -2.299,-2.516 -4.25,-3.164 -1.95,-0.647 -5.423,0.52 -5.423,0.52 0,0 3.04,-0.253 6.291,1.078 q 1.864,0.76 2.382,1.246 0.238,0.27 0.511,1.191 z"
             inkscape:connector-curvature="0"
             style="fill:#ded8d7" />
        </g>
        <g
           id="drawingObject6">
          <path
             id="path6"
             d="M 7.742,2.671 C 9.492,1.43 8.416,0.163 8.416,0.163 l 0.31,0.815 -0.31,-0.815 c 0,0 1.096,0.66 1.056,0.363 -0.082,-0.241 -3.887,-2.708 -5.933,-2.94 -1.947,-0.245 -4.251,-0.14 -5.044,0.721 0.928,-0.224 1.974,-0.313 2.898,-0.184 1.446,0.261 3.763,1.012 4.591,1.557 l 1.257,0.74 c 0,0 0.841,0.643 -0.176,1.333 C 6.105,2.485 4.332,3.93 3.268,5.785 2.541,7.141 2.283,8.233 2.319,8.883 l 1.33,0.529 Q 3.435,8.181 3.855,7.168 C 4.268,6.105 5.949,3.967 7.742,2.671 z"
             inkscape:connector-curvature="0"
             style="fill:#aba6a5" />
        </g>
      </g>
    </g>
  </g>
</svg>
