<?xml version="1.0" encoding="UTF-8" standalone="no"?>
<!-- Generator: flash2svg, http://dissentgraphics.com/tools/flash2svg -->

<svg
   xmlns:dc="http://purl.org/dc/elements/1.1/"
   xmlns:cc="http://creativecommons.org/ns#"
   xmlns:rdf="http://www.w3.org/1999/02/22-rdf-syntax-ns#"
   xmlns:svg="http://www.w3.org/2000/svg"
   xmlns="http://www.w3.org/2000/svg"
   xmlns:sodipodi="http://sodipodi.sourceforge.net/DTD/sodipodi-0.dtd"
   xmlns:inkscape="http://www.inkscape.org/namespaces/inkscape"
   id="AvatarAssets"
   image-rendering="auto"
   version="1.1"
   x="0px"
   y="0px"
   width="11.764161"
   height="13.998117"
   viewBox="0 0 11.764161 13.998117"
   inkscape:version="0.48.4 r9939"
   sodipodi:docname="AvatarAssets_backShoeRightA004.svg">
  <metadata
     id="metadata3852">
    <rdf:RDF>
      <cc:Work
         rdf:about="">
        <dc:format>image/svg+xml</dc:format>
        <dc:type
           rdf:resource="http://purl.org/dc/dcmitype/StillImage" />
      </cc:Work>
    </rdf:RDF>
  </metadata>
  <sodipodi:namedview
     pagecolor="#ffffff"
     bordercolor="#666666"
     borderopacity="1"
     objecttolerance="10"
     gridtolerance="10"
     guidetolerance="10"
     inkscape:pageopacity="0"
     inkscape:pageshadow="2"
     inkscape:window-width="640"
     inkscape:window-height="480"
     id="namedview3850"
     showgrid="false"
     fit-margin-top="0"
     fit-margin-left="0"
     fit-margin-right="0"
     fit-margin-bottom="0"
     inkscape:zoom="1.9032258"
     inkscape:cx="36.314655"
     inkscape:cy="-50.751662"
     inkscape:window-x="136"
     inkscape:window-y="0"
     inkscape:window-maximized="0"
     inkscape:current-layer="AvatarAssets" />
  <defs
     id="defs3829" />
  <g
     id="backShoeRightA5"
     overflow="visible"
     style="overflow:visible"
     transform="translate(4.3146554,2.7497796)">
    <g
       id="backShoeRightA004_0">
      <g
         id="element">
        <g
           id="drawingObject">
          <path
             id="path"
             d="M 7.082,9.612 C 8.062,8.089 6.76,5.672 6.527,5.452 L 4.709,4.396 4.755,3.848 C 4.805,3.25 4.18,0.538 3.839,-0.193 L 3.661,-0.458 3.615,-0.512 C 3.159,-1.053 2.121,-1.842 1.598,-2.187 0.926,-2.544 0.095,-2.815 -0.764,-2.736 q -1.545,0.473 -1.915,0.692 c -2.243,1.619 -1.717,5.526 -0.999,6.54 0.722,0.963 1.335,3.223 2.929,3.958 1.64,0.79 4.442,2.681 5.588,2.777 1.096,0.092 1.266,-0.145 2.243,-1.619 z"
             inkscape:connector-curvature="0"
             style="fill:#6b5425" />
        </g>
        <g
           id="drawingObject1">
          <path
             id="path1"
             d="M 7.082,9.612 C 7.601,8.803 7.485,7.79 7.253,6.968 7.066,8.005 6.199,6.979 5.622,6.68 4.945,6.373 4.036,5.845 4.057,5.596 L 4.709,4.396 4.755,3.848 C 4.805,3.25 4.18,0.538 3.839,-0.193 L 3.661,-0.458 3.615,-0.512 C 3.159,-1.053 2.121,-1.842 1.598,-2.187 0.926,-2.544 0.095,-2.815 -0.764,-2.736 q -1.545,0.473 -1.915,0.692 c -2.243,1.619 -1.717,5.526 -0.999,6.54 0.722,0.963 1.335,3.223 2.929,3.958 1.64,0.79 4.442,2.681 5.588,2.777 1.096,0.092 1.266,-0.145 2.243,-1.619 z"
             inkscape:connector-curvature="0"
             style="fill:#594620" />
        </g>
        <g
           id="drawingObject2">
          <path
             id="path2"
             d="M 7.082,9.612 7.389,8.936 C 6.878,9.646 5.819,9.707 5.321,9.666 4.823,9.624 3.624,7.767 3.661,7.319 3.753,6.825 3.467,6.048 3.467,6.048 L 3.579,6.509 3.467,6.048 3.342,6.339 C 3.213,6.679 2.428,7.065 1.723,5.902 0.972,4.685 1.949,2.609 1.833,1.596 1.717,0.583 0.838,-0.896 2.121,-0.638 3.254,-0.392 4.138,1.037 4.354,1.456 L 3.839,-0.193 3.661,-0.458 3.615,-0.512 C 3.159,-1.053 2.121,-1.842 1.598,-2.187 0.926,-2.544 0.095,-2.815 -0.764,-2.736 q -1.545,0.473 -1.915,0.692 c -2.243,1.619 -1.717,5.526 -0.999,6.54 0.722,0.963 1.335,3.223 2.929,3.958 1.64,0.79 4.442,2.681 5.588,2.777 1.096,0.092 1.266,-0.145 2.243,-1.619 z"
             inkscape:connector-curvature="0"
             style="fill:#4f3e1d" />
        </g>
        <g
           id="drawingObject3">
          <path
             id="path3"
             d="m -0.479,0.449 c -0.407,-1.138 -2.378,-2.758 -3.08,-1.563 -0.657,1.25 1.114,5.864 1.487,6.196 0.137,0.162 1.195,1.907 2.748,3.14 q 2.071,1.629 4.682,2.801 c 0.664,-0.145 0.727,-0.29 0.727,-0.29 0,0 -1.777,-0.35 -2.811,-1.189 C 2.195,8.651 0.568,7.11 0.349,5.536 0.129,3.962 -0.077,1.637 -0.479,0.449 z"
             inkscape:connector-curvature="0"
             style="fill:#332813" />
        </g>
        <g
           id="drawingObject4">
          <path
             id="path4"
             d="m -3.559,-1.114 c -1.21,1.856 -0.75,4.754 -0.119,5.61 0.722,0.963 1.335,3.223 2.929,3.958 1.64,0.79 4.442,2.681 5.588,2.777 0.598,0.05 0.905,-0.025 1.279,-0.294 l -0.59,-0.15 C 4.445,10.545 2.386,9.369 1.386,8.131 0.336,6.889 -0.249,4.884 -0.206,3.181 -0.164,1.479 -0.919,-0.29 -1.816,-0.968 q -0.805,-0.569 -1.743,-0.146 z"
             inkscape:connector-curvature="0"
             style="fill:#3d3830" />
        </g>
        <g
           id="drawingObject5">
          <path
             id="path5"
             d="m -3.622,-0.969 c -1.105,1.814 -0.637,4.613 -0.056,5.465 0.722,0.963 1.335,3.223 2.929,3.958 1.64,0.79 4.442,2.681 5.588,2.777 0.448,0.037 0.751,0.013 1.017,-0.166 C 5.3,11.119 4.76,10.973 3.747,10.487 2.493,9.88 0.397,8.55 -0.274,6.387 -0.9,4.277 -0.717,2.085 -1.181,1.042 q -0.332,-0.83 -0.988,-1.387 -0.697,-0.661 -1.453,-0.624 z"
             inkscape:connector-curvature="0"
             style="fill:#2b2822" />
        </g>
        <g
           id="drawingObject6">
          <path
             id="path6"
             d="m -1.691,-1.258 c 0.926,0.328 1.486,1.429 1.68,3.302 L -0.034,2.017 -0.147,0.677 q -0.12,-0.963 -0.805,-1.773 -0.689,-0.76 -1.295,-0.711 c -0.507,0.058 -0.565,0.154 0.556,0.549 z"
             inkscape:connector-curvature="0"
             style="fill:#7a6231" />
        </g>
        <g
           id="drawingObject7">
          <path
             id="path7"
             d="m 0.975,7.043 1.17,1.604 C 2.56,9.083 3.835,10.043 4.378,10.138 4.918,10.284 3.229,9.49 2.722,8.946 L 0.975,7.043 z"
             inkscape:connector-curvature="0"
             style="fill:#7a6231" />
        </g>
      </g>
    </g>
  </g>
</svg>
