<?xml version="1.0" encoding="UTF-8" standalone="no"?>
<!-- Generator: flash2svg, http://dissentgraphics.com/tools/flash2svg -->

<svg
   xmlns:dc="http://purl.org/dc/elements/1.1/"
   xmlns:cc="http://creativecommons.org/ns#"
   xmlns:rdf="http://www.w3.org/1999/02/22-rdf-syntax-ns#"
   xmlns:svg="http://www.w3.org/2000/svg"
   xmlns="http://www.w3.org/2000/svg"
   xmlns:sodipodi="http://sodipodi.sourceforge.net/DTD/sodipodi-0.dtd"
   xmlns:inkscape="http://www.inkscape.org/namespaces/inkscape"
   id="AvatarAssets"
   image-rendering="auto"
   version="1.1"
   x="0px"
   y="0px"
   width="11.5"
   height="13.019615"
   viewBox="0 0 11.5 13.019615"
   inkscape:version="0.48.4 r9939"
   sodipodi:docname="AvatarAssets_backPantsLegLowerRight20101122Color_1.svg">
  <metadata
     id="metadata3079">
    <rdf:RDF>
      <cc:Work
         rdf:about="">
        <dc:format>image/svg+xml</dc:format>
        <dc:type
           rdf:resource="http://purl.org/dc/dcmitype/StillImage" />
      </cc:Work>
    </rdf:RDF>
  </metadata>
  <sodipodi:namedview
     pagecolor="#ffffff"
     bordercolor="#666666"
     borderopacity="1"
     objecttolerance="10"
     gridtolerance="10"
     guidetolerance="10"
     inkscape:pageopacity="0"
     inkscape:pageshadow="2"
     inkscape:window-width="640"
     inkscape:window-height="480"
     id="namedview3077"
     showgrid="false"
     fit-margin-top="0"
     fit-margin-left="0"
     fit-margin-right="0"
     fit-margin-bottom="0"
     inkscape:zoom="1.9032258"
     inkscape:cx="37.7"
     inkscape:cy="-55.45"
     inkscape:window-x="136"
     inkscape:window-y="0"
     inkscape:window-maximized="0"
     inkscape:current-layer="AvatarAssets" />
  <defs
     id="defs3071" />
  <g
     id="backPantsLegLowerRight20101122Color_2"
     overflow="visible"
     style="overflow:visible"
     transform="translate(5.7,6.4696152)">
    <g
       id="backPantsLegLowerRight20101122Color_1_0">
      <g
         id="element">
        <path
           id="path"
           d="m 1.15,-6.45 -0.6,0 c -0.55,0.1 -1.1,0.4 -1.6,0.85 -0.4,0.4 -0.95,1.15 -1.7,2.25 -0.2,0.25 -0.35,0.55 -0.6,0.8 -0.2,0.3 -0.35,0.55 -0.55,0.85 l -0.2,0.35 -0.05,0.05 c -0.3,0.55 -0.5,0.85 -0.6,1.15 l -0.2,0.3 -0.25,0.65 c 0,0 -0.3,0.65 -0.3,0.65 -0.1,0.05 -0.1,0.15 -0.1,0.2 L -5.7,1.9 -5.4,1.85 c 0.45,-0.05 0.9,0 1.3,0.2 l 1.35,1 c 0.05,0.05 0.1,0.05 0.15,0.15 0.05,0 0.1,0 0.15,0.05 0,0.1 0.05,0.1 0.1,0.15 0.95,1.1 1.5,2.1 1.65,3.15 C -0.5,6.45 -0.25,6.35 0,6.2 L 0.1,6.15 C 0.3,6.05 0.45,5.95 0.65,5.85 L 1.15,5.5 C 1.65,5.05 2.1,4.55 2.45,3.9 2.85,3.35 3.25,2.65 3.6,1.95 l 0,-0.1 1.3,-2.7 C 4.95,-0.95 5,-1.1 5,-1.2 5.1,-1.35 5.15,-1.45 5.2,-1.55 5.2,-1.6 5.2,-1.65 5.25,-1.7 5.3,-1.85 5.35,-2 5.4,-2.1 5.55,-2.3 5.65,-2.6 5.65,-2.85 l 0.15,-0.6 0,-1.05 c -0.1,-0.3 -0.45,-0.6 -1,-0.85 -0.05,0 -0.05,0 -0.1,-0.05 l -0.2,-0.1 0,0.05 C 4.3,-5.55 4,-5.7 3.65,-5.8 3.15,-6 2.6,-6.15 2.15,-6.25 l 0,-0.05 -0.4,-0.05 c -0.2,-0.1 -0.4,-0.15 -0.6,-0.1 z"
           inkscape:connector-curvature="0"
           style="fill:#edede4" />
      </g>
    </g>
  </g>
</svg>
