<?xml version="1.0" encoding="UTF-8" standalone="no"?>
<!-- Generator: flash2svg, http://dissentgraphics.com/tools/flash2svg -->

<svg
   xmlns:dc="http://purl.org/dc/elements/1.1/"
   xmlns:cc="http://creativecommons.org/ns#"
   xmlns:rdf="http://www.w3.org/1999/02/22-rdf-syntax-ns#"
   xmlns:svg="http://www.w3.org/2000/svg"
   xmlns="http://www.w3.org/2000/svg"
   xmlns:xlink="http://www.w3.org/1999/xlink"
   xmlns:sodipodi="http://sodipodi.sourceforge.net/DTD/sodipodi-0.dtd"
   xmlns:inkscape="http://www.inkscape.org/namespaces/inkscape"
   id="AvatarAssets"
   image-rendering="auto"
   version="1.1"
   x="0px"
   y="0px"
   width="12.993221"
   height="16.261736"
   viewBox="0 0 12.993221 16.261736"
   inkscape:version="0.48.4 r9939"
   sodipodi:docname="AvatarAssets_backPantsLegLowerRightA008.svg">
  <metadata
     id="metadata3245">
    <rdf:RDF>
      <cc:Work
         rdf:about="">
        <dc:format>image/svg+xml</dc:format>
        <dc:type
           rdf:resource="http://purl.org/dc/dcmitype/StillImage" />
      </cc:Work>
    </rdf:RDF>
  </metadata>
  <sodipodi:namedview
     pagecolor="#ffffff"
     bordercolor="#666666"
     borderopacity="1"
     objecttolerance="10"
     gridtolerance="10"
     guidetolerance="10"
     inkscape:pageopacity="0"
     inkscape:pageshadow="2"
     inkscape:window-width="640"
     inkscape:window-height="480"
     id="namedview3243"
     showgrid="false"
     fit-margin-top="0"
     fit-margin-left="0"
     fit-margin-right="0"
     fit-margin-bottom="0"
     inkscape:zoom="1.9032258"
     inkscape:cx="42.741428"
     inkscape:cy="-48.578509"
     inkscape:window-x="136"
     inkscape:window-y="0"
     inkscape:window-maximized="0"
     inkscape:current-layer="AvatarAssets" />
  <defs
     id="defs3211">
    <pattern
       id="bitmap"
       patternContentUnits="userSpaceOnUse"
       patternUnits="userSpaceOnUse"
       width="200"
       height="200"
       viewBox="0 0 200 200"
       patternTransform="matrix(1 0 0 1 -103.599 -96.699)">
      <symbol
         id="Denim_Texture_symbol"
         viewBox="0 0 200 200">
        <image
           sodipodi:absref="C:\Users\Training\Documents\GitHub\Glitchen-Avatar-Engine\glitch-avatars-svg\base_avatar\AvatarAssets.fla\clothing\back\Denim_Texture"
           xlink:href="Denim_Texture"
           height="200"
           width="200"
           id="Denim_Texture" />
      </symbol>
      <use
         id="Denim_Texture_use"
         width="200"
         height="200"
         y="0"
         x="0"
         xlink:href="#Denim_Texture_symbol"
         externalResourcesRequired="true" />
    </pattern>
    <pattern
       id="bitmap1"
       patternContentUnits="userSpaceOnUse"
       patternUnits="userSpaceOnUse"
       width="200"
       height="200"
       viewBox="0 0 200 200"
       patternTransform="matrix(1 0 0 1 -103.549 -96.649)">
      <symbol
         id="symbol3218"
         viewBox="0 0 200 200">
        <image
           sodipodi:absref="C:\Users\Training\Documents\GitHub\Glitchen-Avatar-Engine\glitch-avatars-svg\base_avatar\AvatarAssets.fla\clothing\back\Denim_Texture"
           xlink:href="Denim_Texture"
           height="200"
           width="200"
           id="image3220" />
      </symbol>
      <use
         id="use3222"
         width="200"
         height="200"
         y="0"
         x="0"
         xlink:href="#Denim_Texture_symbol"
         externalResourcesRequired="true" />
    </pattern>
  </defs>
  <g
     id="backPantsLegLowerRightA9"
     overflow="visible"
     style="overflow:visible"
     transform="translate(10.741428,2.8402439)">
    <g
       id="backPantsLegLowerRightA008_0">
      <g
         id="element">
        <g
           id="drawingObject">
          <path
             id="path"
             d="M -0.15,-2.4 Q -2.2,-3.35 -4,-2.25 c -0.7,0.4 -3.4,4.7 -3.9,5.4 C -8.3,3.6 -9.05,5.3 -9.4,6.9 l 1.3,-0.45 c 1.55,-0.35 3.2,0.2 4.25,1.3 0.65,0.5 1.2,1.1 1.7,1.7 C -1.45,8.75 -0.8,7.8 -0.3,6.95 0.85,4.9 2.2,2.55 2.25,0.6 2.3,-1.3 1.3,-1.75 -0.15,-2.4 z"
             inkscape:connector-curvature="0"
             style="fill:url(#bitmap1)" />
        </g>
        <g
           id="drawingObject1">
          <path
             id="path1"
             d="m -3.958,1.787 c 0.134,-0.749 1.84,-2.685 2.743,-2.997 0.794,-0.339 1.73,-0.505 2.517,-0.431 l -1.335,-0.665 q -2.069,-0.957 -3.87,0.129 c -0.723,0.424 -3.378,4.684 -3.925,5.427 -0.359,0.443 -1.14,2.164 -1.483,3.783 L -7.992,6.522 C -7.31,6.363 -6.583,6.4 -5.92,6.605 -5.928,5.683 -5.708,4.862 -5.484,4.502 -5.147,3.962 -4.675,4.007 -4.181,3.481 -3.687,2.956 -4.13,2.597 -3.958,1.787 z"
             inkscape:connector-curvature="0"
             style="fill:#000000;fill-opacity:0.2" />
        </g>
        <g
           id="drawingObject2">
          <path
             id="path2"
             d="M 0.263,3.169 C 0.118,3.87 -0.369,4.65 -0.956,5.658 q -0.287,0.529 -0.59,1.215 -0.325,0.589 -0.943,1.246 L -2.957,8.535 -2.683,8.831 -2.694,8.782 C -1.882,8.08 -1.68,7.623 -0.764,5.819 0.163,4.064 0.55,1.973 0.55,1.973 L 0.263,3.169 z"
             inkscape:connector-curvature="0"
             style="fill:#000000;fill-opacity:0.2" />
        </g>
        <g
           id="drawingObject3">
          <path
             id="path3"
             d="M -1.012,5.415 C -0.586,4.597 0.15,2.682 0.15,2.682 L 0.254,2.247 C 0.101,2.693 -0.351,3.619 -1.065,4.965 -1.753,6.203 -2.699,7.654 -3.148,8.374 L -3.077,8.46 -2.905,8.318 C -2.388,7.89 -1.39,6.221 -1.012,5.415 z"
             inkscape:connector-curvature="0"
             style="fill:#ffffff;fill-opacity:0.694" />
        </g>
        <g
           id="drawingObject4">
          <path
             id="path4"
             d="M -4.586,5.937 C -6.66,5.186 -8.143,5.428 -8.99,5.983 c -0.846,0.556 3,1.203 3,1.203 l 3.566,2.098 0.58,-0.597 c 0,0 -0.707,-1.94 -2.742,-2.75 z"
             inkscape:connector-curvature="0"
             style="fill:#dae2e9" />
        </g>
        <g
           id="drawingObject5">
          <path
             id="path5"
             d="M -3.906,6.713 C -4.529,6.242 -7.089,5.604 -8.086,5.733 q -1.629,0.275 -2.015,0.827 c 0,0 -0.549,0.948 -0.605,1.372 -0.116,0.386 0.09,0.39 0.09,0.39 0,0 0.423,-0.612 1.101,-0.564 0.728,0.037 2.623,-0.198 4.409,1.081 0.994,0.745 2.415,4.213 2.434,4.516 0.019,0.304 0.445,-0.513 0.415,-0.866 -0.031,-0.352 0.032,-1.188 0.312,-1.971 C -1.628,9.674 -1.925,8.614 -2.222,8.221 -2.567,7.839 -3.223,7.222 -3.906,6.713 z"
             inkscape:connector-curvature="0"
             style="fill:#99bdbd" />
        </g>
        <g
           id="drawingObject6">
          <path
             id="path6"
             d="m -9.836,6.539 c 0,0 -0.549,0.949 -0.605,1.372 -0.116,0.386 0.09,0.39 0.09,0.39 0,0 0.423,-0.611 1.101,-0.564 0.727,0.037 2.623,-0.198 4.409,1.082 0.682,0.508 1.55,2.257 2.028,3.43 Q -3.153,10.788 -3.457,10.14 C -4.193,8.514 -5.828,7.662 -6.177,7.486 -6.488,7.25 -4.667,7.803 -3.92,8.143 -3.212,8.543 -2.196,8.718 -3.647,7.772 -5.099,6.825 -6.085,6.336 -4.811,6.297 l 0.304,-0.02 C -5.568,5.908 -7.128,5.602 -7.821,5.712 -8.806,5.889 -9.45,5.988 -9.836,6.539 z"
             inkscape:connector-curvature="0"
             style="fill:#719f9e" />
        </g>
        <g
           id="drawingObject7">
          <path
             id="path7"
             d="m -8.352,6.297 c -0.461,0.005 -0.85,0.762 -1.228,0.901 q -0.723,0.425 -0.925,0.882 c 0.008,0.255 0.154,0.221 0.154,0.221 0,0 0.423,-0.611 1.101,-0.564 l 1.818,0.092 C -7.646,7.57 -7.68,7.424 -7.568,7.244 -7.283,6.922 -7.831,6.33 -8.352,6.297 z"
             inkscape:connector-curvature="0"
             style="fill:#496966" />
        </g>
      </g>
    </g>
  </g>
</svg>
