<?xml version="1.0" encoding="UTF-8" standalone="no"?>
<!-- Generator: flash2svg, http://dissentgraphics.com/tools/flash2svg -->

<svg
   xmlns:dc="http://purl.org/dc/elements/1.1/"
   xmlns:cc="http://creativecommons.org/ns#"
   xmlns:rdf="http://www.w3.org/1999/02/22-rdf-syntax-ns#"
   xmlns:svg="http://www.w3.org/2000/svg"
   xmlns="http://www.w3.org/2000/svg"
   xmlns:sodipodi="http://sodipodi.sourceforge.net/DTD/sodipodi-0.dtd"
   xmlns:inkscape="http://www.inkscape.org/namespaces/inkscape"
   id="AvatarAssets"
   image-rendering="auto"
   version="1.1"
   x="0px"
   y="0px"
   width="14.985413"
   height="13.715518"
   viewBox="0 0 14.985413 13.715518"
   inkscape:version="0.48.4 r9939"
   sodipodi:docname="AvatarAssets_backPantsLegUpperRightA007b.svg">
  <metadata
     id="metadata3592">
    <rdf:RDF>
      <cc:Work
         rdf:about="">
        <dc:format>image/svg+xml</dc:format>
        <dc:type
           rdf:resource="http://purl.org/dc/dcmitype/StillImage" />
      </cc:Work>
    </rdf:RDF>
  </metadata>
  <sodipodi:namedview
     pagecolor="#ffffff"
     bordercolor="#666666"
     borderopacity="1"
     objecttolerance="10"
     gridtolerance="10"
     guidetolerance="10"
     inkscape:pageopacity="0"
     inkscape:pageshadow="2"
     inkscape:window-width="640"
     inkscape:window-height="480"
     id="namedview3590"
     showgrid="false"
     fit-margin-top="0"
     fit-margin-left="0"
     fit-margin-right="0"
     fit-margin-bottom="0"
     inkscape:zoom="1.9032258"
     inkscape:cx="35.037"
     inkscape:cy="-51.038109"
     inkscape:window-x="136"
     inkscape:window-y="0"
     inkscape:window-maximized="0"
     inkscape:current-layer="AvatarAssets" />
  <defs
     id="defs3574" />
  <g
     id="backPantsLegUpperRightA007b1"
     overflow="visible"
     style="overflow:visible"
     transform="translate(3.037,2.7536266)">
    <g
       id="backPantsLegUpperRightA007b_0">
      <g
         id="element">
        <g
           id="drawingObject">
          <path
             id="path"
             d="M 8.371,0.014 Q 6.663,-1.678 4.238,-2.38 2.413,-2.869 1.073,-2.718 c -2.573,0.371 -4.237,3.206 -4.095,6.185 0.128,2.913 5.447,4.892 7.508,5.475 2.39,0.679 3.551,2.914 5.682,1.43 C 11.434,9.507 12.113,7.826 11.865,5.448 11.597,3.112 10.099,1.664 8.371,0.014 z"
             inkscape:connector-curvature="0"
             style="fill:#a40120" />
        </g>
        <g
           id="group1">
          <g
             id="drawingObject1">
            <path
               id="path1"
               d="m -3.022,3.536 c 2.422,2.921 5.983,4.177 7.632,5.22 1.147,0.726 2.606,1.484 3.63,2.077 0.477,0.08 0.96,0.052 1.51,-0.211 L 9.371,10.438 C 9.079,10.364 8.5,10.108 7.246,9.314 5.991,8.52 3.076,7.285 0.275,5.623 -1.609,4.486 -2.545,3.616 -3.03,2.976 l -0.007,0.495 0.015,0.065 z"
               inkscape:connector-curvature="0"
               style="fill:#e17531" />
          </g>
          <g
             id="drawingObject2">
            <path
               id="path2"
               d="m -2.594,0.641 -0.177,0.554 0.635,0.236 c 1,0.355 4.813,2.825 7.598,4.81 2.661,1.851 4.436,3.309 5.23,3.7 L 10.929,9.647 10.372,8.961 C 9.801,8.21 8.684,7.615 7.292,6.622 5.879,5.672 4.008,3.932 1.648,2.327 0.128,1.309 -1.441,0.871 -2.594,0.641 z"
               inkscape:connector-curvature="0"
               style="fill:#e17531" />
          </g>
          <g
             id="drawingObject3">
            <path
               id="path3"
               d="m -0.911,-1.849 -0.665,0.69 C 0.241,-1.23 3.05,-0.451 5.489,0.704 q 2.924,1.407 6.3,6.988 C 11.868,7.242 11.931,6.727 11.903,6.209 10.475,3.75 6.4,-0.108 3.69,-1.379 2.082,-2.12 0.301,-2.026 -0.911,-1.849 z"
               inkscape:connector-curvature="0"
               style="fill:#e17531" />
          </g>
        </g>
        <g
           id="drawingObject4">
          <path
             id="path4"
             d="M 8.381,0.131 C 5.773,-2.463 2.338,-2.766 1.097,-2.622 c -0.87,0.129 -1.656,0.592 -2.318,1.146 1.035,0.057 2.069,0.258 3.021,0.751 2.401,1.255 5.049,2.838 5.422,4.988 0.331,2.2 0.124,2.882 0.041,3.751 C 7.222,8.881 6.891,8.942 5.525,9.186 L 5.194,9.295 q 0.952,0.444 2.483,1.396 1.283,0.625 2.525,-0.192 C 11.443,9.634 12.147,7.924 11.899,5.528 11.609,3.183 10.119,1.796 8.381,0.131 z"
             inkscape:connector-curvature="0"
             style="fill:#000000;fill-opacity:0.2" />
        </g>
      </g>
    </g>
  </g>
</svg>
