<?xml version="1.0" encoding="UTF-8" standalone="no"?>
<!-- Generator: flash2svg, http://dissentgraphics.com/tools/flash2svg -->

<svg
   xmlns:dc="http://purl.org/dc/elements/1.1/"
   xmlns:cc="http://creativecommons.org/ns#"
   xmlns:rdf="http://www.w3.org/1999/02/22-rdf-syntax-ns#"
   xmlns:svg="http://www.w3.org/2000/svg"
   xmlns="http://www.w3.org/2000/svg"
   xmlns:sodipodi="http://sodipodi.sourceforge.net/DTD/sodipodi-0.dtd"
   xmlns:inkscape="http://www.inkscape.org/namespaces/inkscape"
   id="AvatarAssets"
   image-rendering="auto"
   version="1.1"
   x="0px"
   y="0px"
   width="10.530828"
   height="11.20354"
   viewBox="0 0 10.530828 11.20354"
   inkscape:version="0.48.4 r9939"
   sodipodi:docname="AvatarAssets_backShoeRightA011.svg">
  <metadata
     id="metadata3980">
    <rdf:RDF>
      <cc:Work
         rdf:about="">
        <dc:format>image/svg+xml</dc:format>
        <dc:type
           rdf:resource="http://purl.org/dc/dcmitype/StillImage" />
      </cc:Work>
    </rdf:RDF>
  </metadata>
  <sodipodi:namedview
     pagecolor="#ffffff"
     bordercolor="#666666"
     borderopacity="1"
     objecttolerance="10"
     gridtolerance="10"
     guidetolerance="10"
     inkscape:pageopacity="0"
     inkscape:pageshadow="2"
     inkscape:window-width="640"
     inkscape:window-height="480"
     id="namedview3978"
     showgrid="false"
     fit-margin-top="0"
     fit-margin-left="0"
     fit-margin-right="0"
     fit-margin-bottom="0"
     inkscape:zoom="1.9032258"
     inkscape:cx="36.499"
     inkscape:cy="-50.25"
     inkscape:window-x="136"
     inkscape:window-y="0"
     inkscape:window-maximized="0"
     inkscape:current-layer="AvatarAssets" />
  <defs
     id="defs3961" />
  <g
     id="backShoeRightA12"
     overflow="visible"
     style="overflow:visible"
     transform="translate(4.499,-0.54646036)">
    <g
       id="backShoeRightA011_0">
      <g
         id="element">
        <g
           id="drawingObject">
          <path
             id="path"
             d="m 5.851,11.75 0.05,-0.65 q -1.45,-0.6 -2.7,-3.25 c -1.3,-2.65 -2.3,-5.65 -3.25,-6.2 -1,-0.55 -3.65,-1.4 -4.05,-1 l -0.4,0.4 c 0,0 0.05,1.4 0.6,2.7 0.55,1.25 3.1,3.65 5,5.3 1.9,1.6 3.5,2.4 4.1,2.55 l 0.65,0.15 z"
             inkscape:connector-curvature="0"
             style="fill:#875113" />
        </g>
        <g
           id="drawingObject1">
          <path
             id="path1"
             d="m -0.549,2.45 c -0.95,-0.75 -3.7,-1.75 -3.95,-1.4 0,0 0.05,1.4 0.6,2.7 0.55,1.25 3.1,3.65 5,5.3 1.9,1.6 3.5,2.4 4.1,2.55 l 0.65,0.15 C 5.251,11.55 4.001,10.8 2.901,8.6 Q 1.201,5.1 1.001,4.7 0.051,2.95 -0.549,2.45 z"
             inkscape:connector-curvature="0"
             style="fill:#4f2f0b" />
        </g>
        <g
           id="drawingObject2">
          <path
             id="path2"
             d="M 5.001,5.2 C 4.951,3.6 4.151,2.1 4.151,2.1 q 0.5,2.2 -0.15,3.75 c -0.65,1.5 -1,1.75 -1,1.75 l 0.3,0.7 -0.3,-0.7 c 0,0 0.45,1.25 1.2,2 l 1.2,1.15 c 0,0 0.9,-2.9 0.55,-4 l -0.6,-1.4 c 0,0 0.3,1.2 0.05,1.8 -0.2,0.65 -0.5,0.5 -0.5,0.5 0,0 0.1,-0.8 0.1,-2.45 z"
             inkscape:connector-curvature="0"
             style="fill:#fff4b8" />
        </g>
        <g
           id="drawingObject3">
          <path
             id="path3"
             d="m 4.751,5.25 -0.05,-0.6 q -0.5,1.9 -1.05,2.5 c -0.25,0.3 -0.45,0.45 -0.6,0.55 0.15,0.35 0.55,1.3 1.15,1.9 l 0.95,0.9 c 0.1,-0.55 0.2,-1.25 0.45,-2.05 l 0.4,-1.25 c 0,0 -0.35,0.45 -0.8,0.6 -0.45,0.15 -0.8,-0.3 -0.55,-1 0.2,-0.65 0.1,-1.25 0.1,-1.55 z"
             inkscape:connector-curvature="0"
             style="fill:#e3daa4" />
        </g>
        <g
           id="drawingObject4">
          <path
             id="path4"
             d="m 5.151,8.4 c 0,0 -0.4,-0.45 -0.35,-0.15 0.05,0.35 -0.25,0.55 -0.25,0.25 l -0.3,-0.65 c 0,0 0.15,-0.25 -0.25,-0.25 q -0.55,-0.1 -0.8,0.25 l -0.05,0.1 c 0.15,0.4 0.55,1.15 1.05,1.65 l 0.95,0.9 0,-0.1 -0.2,-0.8 c 0,-0.2 0,-0.5 0.25,-0.7 0.25,-0.15 -0.05,-0.5 -0.05,-0.5 z"
             inkscape:connector-curvature="0"
             style="fill:#c9bf83" />
        </g>
        <g
           id="drawingObject5">
          <path
             id="path5"
             d="m 1.851,6.4 -0.75,-2.2 -1.3,-1.8 0.1,-0.55 c -0.05,0.15 -0.2,0.2 -0.4,0.15 -0.4,-0.05 -1.55,-0.85 -2.45,-0.95 -0.95,-0.15 -1.2,-0.1 -1.2,-0.1 0,0 2.75,0.3 3.6,1.5 0.85,1.15 1.7,2.65 2.05,3.3 l 0.35,0.65 z"
             inkscape:connector-curvature="0"
             style="fill:#ba8b54" />
        </g>
      </g>
    </g>
  </g>
</svg>
