<?xml version="1.0" encoding="UTF-8" standalone="no"?>
<!-- Generator: flash2svg, http://dissentgraphics.com/tools/flash2svg -->

<svg
   xmlns:dc="http://purl.org/dc/elements/1.1/"
   xmlns:cc="http://creativecommons.org/ns#"
   xmlns:rdf="http://www.w3.org/1999/02/22-rdf-syntax-ns#"
   xmlns:svg="http://www.w3.org/2000/svg"
   xmlns="http://www.w3.org/2000/svg"
   xmlns:sodipodi="http://sodipodi.sourceforge.net/DTD/sodipodi-0.dtd"
   xmlns:inkscape="http://www.inkscape.org/namespaces/inkscape"
   id="AvatarAssets"
   image-rendering="auto"
   version="1.1"
   x="0px"
   y="0px"
   width="15.953221"
   height="13.922377"
   viewBox="0 0 15.953221 13.922377"
   inkscape:version="0.48.4 r9939"
   sodipodi:docname="AvatarAssets_backPantsLegUpperRightA005.svg">
  <metadata
     id="metadata3522">
    <rdf:RDF>
      <cc:Work
         rdf:about="">
        <dc:format>image/svg+xml</dc:format>
        <dc:type
           rdf:resource="http://purl.org/dc/dcmitype/StillImage" />
      </cc:Work>
    </rdf:RDF>
  </metadata>
  <sodipodi:namedview
     pagecolor="#ffffff"
     bordercolor="#666666"
     borderopacity="1"
     objecttolerance="10"
     gridtolerance="10"
     guidetolerance="10"
     inkscape:pageopacity="0"
     inkscape:pageshadow="2"
     inkscape:window-width="640"
     inkscape:window-height="480"
     id="namedview3520"
     showgrid="false"
     fit-margin-top="0"
     fit-margin-left="0"
     fit-margin-right="0"
     fit-margin-bottom="0"
     inkscape:zoom="1.9032258"
     inkscape:cx="35.372221"
     inkscape:cy="-51.184"
     inkscape:window-x="136"
     inkscape:window-y="0"
     inkscape:window-maximized="0"
     inkscape:current-layer="AvatarAssets" />
  <defs
     id="defs3504" />
  <g
     id="backPantsLegUpperRightA6"
     overflow="visible"
     style="overflow:visible"
     transform="translate(3.3722214,3.1063766)">
    <g
       id="backPantsLegUpperRightA005_0">
      <g
         id="element">
        <g
           id="drawingObject">
          <path
             id="path"
             d="m 11.364,4.557 c 0,0 0.148,-1.993 -1.766,-2.611 C 7.687,1.379 4.083,8.426 4.083,8.426 Q 4.715,8.767 5.409,8.644 5.783,8.628 6.381,8.471 L 6.943,8.472 7.892,7.95 7.246,5.996 9.067,5.218 C 9.305,5.277 9.361,4.006 9.361,4.006 l 0.796,0.01 -0.796,-0.01 c 0,0 1.497,-0.014 1.752,0.293 l 0.251,0.258 z"
             inkscape:connector-curvature="0"
             style="fill:#000000;fill-opacity:0.29800002" />
        </g>
        <g
           id="drawingObject1">
          <path
             id="path1"
             d="M 11.437,2.118 C 10.799,1.677 8.86,-0.701 7.392,-1.651 5.921,-2.65 2.925,-3.327 0.744,-3.04 q -1.438,0.206 -2.357,1.176 -0.436,0.481 -1.189,1.826 c -0.879,1.569 -0.719,4.667 0.323,6.247 1.046,1.63 5.202,2.857 6.25,3.125 0.998,0.226 2.159,1.482 2.159,1.482 L 5.94,10.259 C 5.906,9.761 5.397,9.145 5.397,9.145 L 5.655,9.503 5.397,9.145 6.111,9.321 5.959,9.146 5.376,7.434 6.732,7.395 6.083,5.392 6.489,5.168 C 6.896,4.944 8.251,4.905 8.251,4.905 L 8.178,4.514 8.588,2.928 8.836,3.136 c 0.244,0.159 2.231,0.461 2.231,0.461 l -0.794,-1.372 2.308,0.9 -1.144,-1.007 z"
             inkscape:connector-curvature="0"
             style="fill:#ab4d16" />
        </g>
        <g
           id="drawingObject2">
          <path
             id="path2"
             d="m 6.745,0.583 c 0.992,0.832 0.9,0.849 0.742,1.986 -0.159,1.138 -2.062,2.788 -2.062,2.788 0,0 -0.327,0.008 -0.285,-0.756 C 5.183,3.837 6.412,2.609 6.412,2.609 L 4.191,3.005 C 2.941,3.227 2.541,2.844 1.397,2.544 0.3,2.235 -1.561,3.827 -2.09,2.912 -2.619,1.997 -2.627,0.486 -3.182,1.291 l -0.086,0.116 c -0.267,1.611 0.009,3.63 0.789,4.802 1.046,1.63 5.202,2.857 6.25,3.125 0.998,0.226 2.159,1.482 2.159,1.482 L 5.94,10.259 C 5.906,9.761 5.397,9.145 5.397,9.145 L 5.655,9.503 5.397,9.145 6.111,9.321 5.959,9.146 5.376,7.434 6.732,7.395 6.083,5.392 6.489,5.168 C 6.896,4.944 8.251,4.905 8.251,4.905 L 8.178,4.514 8.588,2.928 8.836,3.136 c 0.244,0.159 2.231,0.461 2.231,0.461 L 10.75,3.048 10.419,3.006 C 9.662,2.888 7.925,0.726 5.346,-0.732 Q 3.693,-1.648 2.278,-1.8 l -1.074,0.04 1.177,0.093 c 0.81,0.209 3.372,1.418 4.364,2.25 z"
             inkscape:connector-curvature="0"
             style="fill:#964313" />
        </g>
        <g
           id="group1">
          <g
             id="drawingObject3">
            <path
               id="path3"
               d="m -2.479,6.209 c 1.046,1.63 5.202,2.857 6.25,3.125 0.998,0.226 2.159,1.482 2.159,1.482 L 5.94,10.259 C 5.906,9.761 5.397,9.145 5.397,9.145 L 5.655,9.503 5.397,9.145 6.111,9.321 5.959,9.146 5.376,7.434 6.732,7.395 6.086,5.441 Q 5.746,5.956 5.859,6.239 c 0,0 -1.677,-0.56 -1.925,-0.768 C 3.686,5.263 3.171,5.254 2.698,5.187 2.225,5.12 2.205,4.115 2.205,4.115 L 2.284,4.605 2.205,4.115 1.279,4.279 c -0.925,0.165 -1.682,0.048 -2.8,0.146 -0.697,0.073 -1.074,0.746 -1.116,1.51 l 0.158,0.274 z"
               inkscape:connector-curvature="0"
               style="fill:#823a10" />
          </g>
          <g
             id="drawingObject4">
            <path
               id="path4"
               d="M 6.489,5.168 C 6.896,4.944 8.251,4.905 8.251,4.905 L 8.178,4.514 8.32,3.833 C 8.086,3.825 7.672,3.949 7.094,4.405 6.559,4.803 6.251,5.109 6.083,5.392 L 6.489,5.168 z"
               inkscape:connector-curvature="0"
               style="fill:#823a10" />
          </g>
        </g>
      </g>
    </g>
  </g>
</svg>
