<?xml version="1.0" encoding="UTF-8" standalone="no"?>
<!-- Generator: flash2svg, http://dissentgraphics.com/tools/flash2svg -->

<svg
   xmlns:dc="http://purl.org/dc/elements/1.1/"
   xmlns:cc="http://creativecommons.org/ns#"
   xmlns:rdf="http://www.w3.org/1999/02/22-rdf-syntax-ns#"
   xmlns:svg="http://www.w3.org/2000/svg"
   xmlns="http://www.w3.org/2000/svg"
   xmlns:xlink="http://www.w3.org/1999/xlink"
   xmlns:sodipodi="http://sodipodi.sourceforge.net/DTD/sodipodi-0.dtd"
   xmlns:inkscape="http://www.inkscape.org/namespaces/inkscape"
   id="AvatarAssets"
   image-rendering="auto"
   version="1.1"
   x="0px"
   y="0px"
   width="13.752651"
   height="12.967517"
   viewBox="0 0 13.752651 12.967517"
   inkscape:version="0.48.4 r9939"
   sodipodi:docname="AvatarAssets_backPantsLegUpperRightB011.svg">
  <metadata
     id="metadata3794">
    <rdf:RDF>
      <cc:Work
         rdf:about="">
        <dc:format>image/svg+xml</dc:format>
        <dc:type
           rdf:resource="http://purl.org/dc/dcmitype/StillImage" />
      </cc:Work>
    </rdf:RDF>
  </metadata>
  <sodipodi:namedview
     pagecolor="#ffffff"
     bordercolor="#666666"
     borderopacity="1"
     objecttolerance="10"
     gridtolerance="10"
     guidetolerance="10"
     inkscape:pageopacity="0"
     inkscape:pageshadow="2"
     inkscape:window-width="640"
     inkscape:window-height="480"
     id="namedview3792"
     showgrid="false"
     fit-margin-top="0"
     fit-margin-left="0"
     fit-margin-right="0"
     fit-margin-bottom="0"
     inkscape:zoom="1.9032258"
     inkscape:cx="35.302651"
     inkscape:cy="-51.634"
     inkscape:window-x="136"
     inkscape:window-y="0"
     inkscape:window-maximized="0"
     inkscape:current-layer="AvatarAssets" />
  <defs
     id="defs3768">
    <pattern
       id="bitmap"
       patternContentUnits="userSpaceOnUse"
       patternUnits="userSpaceOnUse"
       width="200"
       height="200"
       viewBox="0 0 200 200"
       patternTransform="matrix(1 0 0 1 -96.449 -96.349)">
      <symbol
         id="Denim_Texture_symbol"
         viewBox="0 0 200 200">
        <image
           sodipodi:absref="C:\Users\Training\Documents\GitHub\Glitchen-Avatar-Engine\glitch-avatars-svg\base_avatar\AvatarAssets.fla\clothing\back\Denim_Texture"
           xlink:href="Denim_Texture"
           height="200"
           width="200"
           id="Denim_Texture" />
      </symbol>
      <use
         id="Denim_Texture_use"
         width="200"
         height="200"
         y="0"
         x="0"
         xlink:href="#Denim_Texture_symbol"
         externalResourcesRequired="true" />
    </pattern>
    <pattern
       id="bitmap1"
       patternContentUnits="userSpaceOnUse"
       patternUnits="userSpaceOnUse"
       width="200"
       height="200"
       viewBox="0 0 200 200"
       patternTransform="matrix(1 0 0 1 -96.399 -96.299)">
      <symbol
         id="symbol3775"
         viewBox="0 0 200 200">
        <image
           sodipodi:absref="C:\Users\Training\Documents\GitHub\Glitchen-Avatar-Engine\glitch-avatars-svg\base_avatar\AvatarAssets.fla\clothing\back\Denim_Texture"
           xlink:href="Denim_Texture"
           height="200"
           width="200"
           id="image3777" />
      </symbol>
      <use
         id="use3779"
         width="200"
         height="200"
         y="0"
         x="0"
         xlink:href="#Denim_Texture_symbol"
         externalResourcesRequired="true" />
    </pattern>
  </defs>
  <g
     id="backPantsLegUpperRightB12"
     overflow="visible"
     style="overflow:visible"
     transform="translate(3.302651,2.6015168)">
    <g
       id="backPantsLegUpperRightB011_0">
      <g
         id="element">
        <g
           id="drawingObject">
          <path
             id="path"
             d="M 8.495,2.378 8.9,1.977 9.651,1.776 c 0,0 0.162,-0.08 -0.314,-0.355 C 8.904,1.171 9.359,0.684 9.712,0.772 l 0.353,0.088 0.161,-0.08 -0.161,0.08 c 0,0 0.867,0.097 -1.199,-0.923 C 6.775,-1.039 2.947,6.39 2.947,6.39 L 5.133,2.804 2.947,6.39 q 0.274,1.024 1.032,2.212 0.695,1.094 1.085,1.319 c 0.303,0.175 0.631,0.307 1.071,0.445 C 5.98,10.334 5.893,10.284 5.788,10.166 5.467,9.923 5.264,9.575 5.198,9.19 5.01,8.216 4.584,7.854 5.105,7.751 5.608,7.58 5.936,7.712 7.095,7.804 8.272,7.964 8.887,7.799 8.887,7.799 c 0,0 -0.8,-0.115 -1.392,-0.688 C 6.902,6.538 7.215,5.795 7.215,5.795 L 8.198,5.093 8.227,4.244 C 8.285,3.642 8.497,3.476 8.487,2.893 8.495,2.378 8.047,2.755 8.495,2.378 z"
             inkscape:connector-curvature="0"
             style="fill:#d0ebeb" />
        </g>
        <g
           id="drawingObject1">
          <path
             id="path1"
             d="M 7.7,-1.05 C 6.45,-1.45 3.2,-2.65 2,-2.6 0.5,-2.55 -1.8,-1.75 -2.85,0.1 -3.45,1.2 -3.7,3.95 -2,5.55 -0.3,7.1 1.75,8 2.2,8.2 L 2.7,8.45 2.85,8.4 C 3.15,8.6 3.5,8.8 3.8,9.1 L 5,9.9 4.7,8.4 4.5,7.85 4.95,7.45 4.5,7.85 c 0,0 0.35,-0.95 2.05,-0.4 1.65,0.5 2.05,0.35 2.5,0.6 L 9.5,8.3 C 9.5,8.3 8.8,7.6 7.95,7.1 7.15,6.6 6.6,6.45 6.65,6.05 6.65,5.65 7.6,4.95 7.6,4.95 L 8.1,5.1 C 8,5.05 7.85,4.9 7.85,4.6 7.85,3.95 7.6,4.7 7.95,3.5 8.35,2.3 8,2.15 8.25,1.8 c 0.2,-0.4 1.55,0.1 1.8,0.3 0.15,0.15 0.4,-0.05 0.4,-0.05 0,0 -0.5,-0.2 -0.95,-0.95 L 8.8,-0.05 9.6,0.2 c 0,0 -0.45,-0.85 -1.7,-1.15 l -0.2,-0.1 z"
             inkscape:connector-curvature="0"
             style="fill:url(#bitmap1)" />
        </g>
        <g
           id="drawingObject2">
          <path
             id="path2"
             d="m 2.851,3.951 c -1.9,0.6 -2.35,-0.55 -3.9,-1.45 -0.85,-0.55 -1.5,-1.25 -1.85,-2 -0.5,1.25 -0.5,3.65 1,5.15 1.7,1.55 3.75,2.45 4.2,2.65 l 0.5,0.25 0.15,-0.05 c 0.3,0.2 0.65,0.4 0.95,0.7 l 1.2,0.8 -0.3,-1.5 -0.2,-0.55 0.45,-0.4 -0.45,0.4 c 0,0 0.35,-0.95 2.05,-0.4 1.65,0.5 2.05,0.35 2.5,0.6 l 0.45,0.25 c 0,0 -0.7,-0.7 -1.55,-1.2 -0.8,-0.5 -1.35,-0.65 -1.3,-1.05 0,-0.4 0.95,-1.1 0.95,-1.1 l 0.5,0.15 c -0.1,-0.05 -0.25,-0.2 -0.25,-0.5 0,-0.65 -0.25,0.1 0.1,-1.1 0.4,-1.2 0.05,-1.35 0.3,-1.7 0.15,-0.3 0.75,-0.1 1.2,0 l -0.05,-0.1 c -0.35,-0.4 -1.6,-0.5 -2,0.25 q -0.25,0.45 -0.3,1.05 0,0.7 -0.15,1 c -0.2,0.7 -1.85,2.15 -2.45,1.95 -1.35,-0.55 0.4,-2.9 0.4,-2.9 0,0 -0.4,0.2 -2.15,0.8 z"
             inkscape:connector-curvature="0"
             style="fill:#000000;fill-opacity:0.2" />
        </g>
        <g
           id="drawingObject3">
          <path
             id="path3"
             d="m 0.751,-1.149 -0.5,-0.1 c 0,0 0.65,0.15 1.8,0.1 1.15,0 1.9,0.2 3.75,1.05 1.85,0.8 3.2,0.8 3.2,0.8 0,0 -0.8,-0.75 -1.65,-0.95 -0.9,-0.1 -1.95,-0.4 -3,-1 q -0.85,-0.45 -2.15,-0.45 -1.5,0.05 -1.95,0.45"
             inkscape:connector-curvature="0"
             style="fill:#ffffff;fill-opacity:0.2" />
        </g>
      </g>
    </g>
  </g>
</svg>
