<?xml version="1.0" encoding="UTF-8" standalone="no"?>
<!-- Generator: flash2svg, http://dissentgraphics.com/tools/flash2svg -->

<svg
   xmlns:dc="http://purl.org/dc/elements/1.1/"
   xmlns:cc="http://creativecommons.org/ns#"
   xmlns:rdf="http://www.w3.org/1999/02/22-rdf-syntax-ns#"
   xmlns:svg="http://www.w3.org/2000/svg"
   xmlns="http://www.w3.org/2000/svg"
   xmlns:sodipodi="http://sodipodi.sourceforge.net/DTD/sodipodi-0.dtd"
   xmlns:inkscape="http://www.inkscape.org/namespaces/inkscape"
   id="AvatarAssets"
   image-rendering="auto"
   version="1.1"
   x="0px"
   y="0px"
   width="9.6818571"
   height="9.2602549"
   viewBox="0 0 9.6818571 9.2602549"
   inkscape:version="0.48.4 r9939"
   sodipodi:docname="AvatarAssets_backBootUpperRightC010.svg">
  <metadata
     id="metadata3007">
    <rdf:RDF>
      <cc:Work
         rdf:about="">
        <dc:format>image/svg+xml</dc:format>
        <dc:type
           rdf:resource="http://purl.org/dc/dcmitype/StillImage" />
      </cc:Work>
    </rdf:RDF>
  </metadata>
  <sodipodi:namedview
     pagecolor="#ffffff"
     bordercolor="#666666"
     borderopacity="1"
     objecttolerance="10"
     gridtolerance="10"
     guidetolerance="10"
     inkscape:pageopacity="0"
     inkscape:pageshadow="2"
     inkscape:window-width="640"
     inkscape:window-height="480"
     id="namedview3005"
     showgrid="false"
     fit-margin-top="0"
     fit-margin-left="0"
     fit-margin-right="0"
     fit-margin-bottom="0"
     inkscape:zoom="1.9032258"
     inkscape:cx="41.589857"
     inkscape:cy="-50.618248"
     inkscape:window-x="136"
     inkscape:window-y="0"
     inkscape:window-maximized="0"
     inkscape:current-layer="AvatarAssets" />
  <defs
     id="defs2996" />
  <g
     id="backBootUpperRightC11"
     overflow="visible"
     style="overflow:visible"
     transform="translate(9.5898573,-2.1214974)">
    <g
       id="backBootUpperRightC010_0">
      <g
         id="element">
        <g
           id="drawingObject">
          <path
             id="path"
             d="m -7.291,2.316 -1.087,0.677 -0.824,2.722 c -0.366,0.964 -1.123,3.543 1.517,5.063 2.646,1.47 4.092,-0.122 4.776,-0.796 0.634,-0.681 2.712,-3.356 2.712,-3.356 Q -0.276,6.013 -0.641,5.265 -1.377,3.819 -2.703,3.109 C -4.832,1.951 -6.146,1.998 -7.291,2.316 z"
             inkscape:connector-curvature="0"
             style="fill:#333636" />
        </g>
        <g
           id="drawingObject1">
          <path
             id="path1"
             d="M -5.56,5.994 C -6.211,5.967 -7.654,5.394 -8.42,5.908 l -0.637,0.278 c -0.394,1.212 -0.845,3.324 1.372,4.592 2.646,1.47 4.092,-0.122 4.776,-0.796 0.634,-0.681 3.001,-2.818 3.001,-2.818 0,0 -0.639,-2.694 -2.514,-3.871 -0.114,0.54 -0.561,1.343 -1.09,1.986 Q -4.097,5.965 -5.56,5.994 z"
             inkscape:connector-curvature="0"
             style="fill:#242626" />
        </g>
      </g>
    </g>
  </g>
</svg>
