<?xml version="1.0" encoding="UTF-8" standalone="no"?>
<!-- Generator: flash2svg, http://dissentgraphics.com/tools/flash2svg -->

<svg
   xmlns:dc="http://purl.org/dc/elements/1.1/"
   xmlns:cc="http://creativecommons.org/ns#"
   xmlns:rdf="http://www.w3.org/1999/02/22-rdf-syntax-ns#"
   xmlns:svg="http://www.w3.org/2000/svg"
   xmlns="http://www.w3.org/2000/svg"
   xmlns:sodipodi="http://sodipodi.sourceforge.net/DTD/sodipodi-0.dtd"
   xmlns:inkscape="http://www.inkscape.org/namespaces/inkscape"
   id="AvatarAssets"
   image-rendering="auto"
   version="1.1"
   x="0px"
   y="0px"
   width="9.2558966"
   height="9.4393606"
   viewBox="0 0 9.2558966 9.4393606"
   inkscape:version="0.48.4 r9939"
   sodipodi:docname="AvatarAssets_backSockRightA002.svg">
  <metadata
     id="metadata4155">
    <rdf:RDF>
      <cc:Work
         rdf:about="">
        <dc:format>image/svg+xml</dc:format>
        <dc:type
           rdf:resource="http://purl.org/dc/dcmitype/StillImage" />
      </cc:Work>
    </rdf:RDF>
  </metadata>
  <sodipodi:namedview
     pagecolor="#ffffff"
     bordercolor="#666666"
     borderopacity="1"
     objecttolerance="10"
     gridtolerance="10"
     guidetolerance="10"
     inkscape:pageopacity="0"
     inkscape:pageshadow="2"
     inkscape:window-width="640"
     inkscape:window-height="480"
     id="namedview4153"
     showgrid="false"
     fit-margin-top="0"
     fit-margin-left="0"
     fit-margin-right="0"
     fit-margin-bottom="0"
     inkscape:zoom="1.9032258"
     inkscape:cx="41.637051"
     inkscape:cy="-50.764055"
     inkscape:window-x="136"
     inkscape:window-y="0"
     inkscape:window-maximized="0"
     inkscape:current-layer="AvatarAssets" />
  <defs
     id="defs4139" />
  <g
     id="backSockRightA3"
     overflow="visible"
     style="overflow:visible"
     transform="translate(9.6370506,-1.796585)">
    <g
       id="backSockRightA002_0">
      <g
         id="element">
        <g
           id="drawingObject">
          <path
             id="path"
             d="M -0.392,6.446 C -0.288,5.994 -0.915,3.958 -3.007,2.604 Q -5.099,1.3 -7.452,2.102 c 0,0 -1.517,3.133 -1.831,4.04 -0.314,0.907 -1.098,2.924 1.569,4.515 2.667,1.642 4.655,-0.652 5.387,-1.418 l 1.882,-1.842 c 0,0 -0.104,-0.447 0.053,-0.951 z"
             inkscape:connector-curvature="0"
             style="fill:#ded8d7" />
        </g>
        <g
           id="drawingObject1">
          <path
             id="path1"
             d="M -2.85,9 C -2.746,8.098 -3.949,7.075 -4.315,6.483 Q -5.047,5.299 -4.628,4.389 C -4.315,3.583 -3.792,2.821 -3.321,2.461 -5.308,1.404 -7.452,2.102 -7.452,2.102 c 0,0 -1.517,3.133 -1.831,4.04 -0.314,0.907 -1.098,2.924 1.569,4.515 2.249,1.351 3.975,-0.037 4.916,-0.958 L -2.85,9 z"
             inkscape:connector-curvature="0"
             style="fill:#bfbab9" />
        </g>
        <g
           id="group1">
          <g
             id="drawingObject2">
            <path
               id="path2"
               d="M -0.968,7.859 C -0.811,7.455 -0.706,6.803 -1.02,5.81 -1.386,4.618 -3.007,3.054 -4.367,2.634 -5.517,2.259 -6.877,2.389 -7.714,2.657 l -0.261,0.506 q 0.836,-0.268 1.673,-0.237 0.366,-0.008 1.83,0.21 c 1.726,0.262 2.772,2.089 3.295,3.377 0.262,0.595 0.209,1.096 0.105,1.498 l 0.104,-0.152 z"
               inkscape:connector-curvature="0"
               style="fill:#b33120" />
          </g>
          <g
             id="drawingObject3">
            <path
               id="path3"
               d="m -2.641,5.696 q 0.314,0.493 0.732,1.684 C -1.7,7.825 -1.7,8.275 -1.804,8.677 L -1.7,8.575 C -1.543,8.222 -1.491,7.77 -1.595,7.373 -1.804,6.277 -2.275,5.138 -3.896,4.173 -5.151,3.451 -6.982,3.541 -8.342,3.971 l -0.156,0.404 c 1.412,-0.431 2.667,-0.159 4.131,0.209 q 1.203,0.273 1.726,1.112 z"
               inkscape:connector-curvature="0"
               style="fill:#b33120" />
          </g>
        </g>
      </g>
    </g>
  </g>
</svg>
