<?xml version="1.0" encoding="UTF-8" standalone="no"?>
<!-- Generator: flash2svg, http://dissentgraphics.com/tools/flash2svg -->

<svg
   xmlns:dc="http://purl.org/dc/elements/1.1/"
   xmlns:cc="http://creativecommons.org/ns#"
   xmlns:rdf="http://www.w3.org/1999/02/22-rdf-syntax-ns#"
   xmlns:svg="http://www.w3.org/2000/svg"
   xmlns="http://www.w3.org/2000/svg"
   xmlns:sodipodi="http://sodipodi.sourceforge.net/DTD/sodipodi-0.dtd"
   xmlns:inkscape="http://www.inkscape.org/namespaces/inkscape"
   id="AvatarAssets"
   image-rendering="auto"
   version="1.1"
   x="0px"
   y="0px"
   width="15.740232"
   height="16.934034"
   viewBox="0 0 15.740232 16.934034"
   inkscape:version="0.48.4 r9939"
   sodipodi:docname="AvatarAssets_backPantsLegLowerRightA006.svg">
  <metadata
     id="metadata3166">
    <rdf:RDF>
      <cc:Work
         rdf:about="">
        <dc:format>image/svg+xml</dc:format>
        <dc:type
           rdf:resource="http://purl.org/dc/dcmitype/StillImage" />
      </cc:Work>
    </rdf:RDF>
  </metadata>
  <sodipodi:namedview
     pagecolor="#ffffff"
     bordercolor="#666666"
     borderopacity="1"
     objecttolerance="10"
     gridtolerance="10"
     guidetolerance="10"
     inkscape:pageopacity="0"
     inkscape:pageshadow="2"
     inkscape:window-width="640"
     inkscape:window-height="480"
     id="namedview3164"
     showgrid="false"
     fit-margin-top="0"
     fit-margin-left="0"
     fit-margin-right="0"
     fit-margin-bottom="0"
     inkscape:zoom="1.9032258"
     inkscape:cx="44.865"
     inkscape:cy="-47.603775"
     inkscape:window-x="136"
     inkscape:window-y="0"
     inkscape:window-maximized="0"
     inkscape:current-layer="AvatarAssets" />
  <defs
     id="defs3143" />
  <g
     id="backPantsLegLowerRightA7"
     overflow="visible"
     style="overflow:visible"
     transform="translate(12.865,2.5378096)">
    <g
       id="backPantsLegLowerRightA006_0">
      <g
         id="element">
        <g
           id="drawingObject">
          <path
             id="path"
             d="m 1.888,-1.028 c -3.347,-2.191 -4.91,-1.574 -6.573,-0.777 -1.698,0.735 -3.085,2.434 -3.95,4.118 -0.901,1.622 -4.23,3.422 -4.23,3.422 l 0.403,-0.151 -0.403,0.151 c 0,0 0.564,-0.367 1.701,-0.166 1.124,0.25 2.747,0.374 4.575,4.176 1.664,3.449 1.718,4.602 1.718,4.602 0,0 0.653,0.071 0.548,-0.889 -0.057,-0.947 2.893,-3.262 4.088,-5.789 L 2.719,1.473 Q 2.922,0.906 2.753,0.187 2.547,-0.592 1.888,-1.028 z"
             inkscape:connector-curvature="0"
             style="fill:#d9b558" />
        </g>
        <g
           id="group1">
          <g
             id="drawingObject1">
            <path
               id="path1"
               d="m -4.711,-1.758 q -2.346,1.028 -3.95,4.118 c -0.526,0.997 -1.915,2.126 -4.072,3.412 0.368,-0.212 0.902,-0.276 1.543,-0.156 l 0.097,0.026 c 0.606,-0.718 1.402,-1.177 1.983,-1.798 0.716,-0.74 1.839,-2.613 3.654,-4.56 0.594,-0.669 1.306,-1.203 1.967,-1.543 l -1.222,0.501 z"
               inkscape:connector-curvature="0"
               style="fill:#79592b;fill-opacity:0.4" />
          </g>
          <g
             id="drawingObject2">
            <path
               id="path2"
               d="M 1.862,-0.981 1.55,-1.168 c -0.23,0.663 -0.905,2.605 -1.687,4.362 -0.92,2.083 -3.245,4.773 -4.278,6.308 -0.609,0.923 -1.155,1.606 -1.464,1.988 q 0.491,1.064 0.745,1.856 c 0.178,-0.47 0.642,-1.432 1.252,-2.356 C -3.037,9.767 -1.737,8.2 -0.132,5.11 1.272,2.381 2.209,0.044 2.399,-0.474 L 1.862,-0.981 z"
               inkscape:connector-curvature="0"
               style="fill:#79592b;fill-opacity:0.4" />
          </g>
          <g
             id="drawingObject3">
            <path
               id="path3"
               d="m -0.942,-2.301 c -0.29,-0.078 -0.579,-0.156 -0.834,-0.172 -0.471,0.598 -1.383,1.493 -2.183,2.159 q -0.799,0.665 -2.29,2.751 -1.477,2.037 -1.671,2.761 c -0.194,0.724 -0.688,1.213 -0.897,1.416 0.37,0.358 0.81,0.838 1.261,1.477 l 0.539,-1.046 c 0.416,-0.976 0.792,-2.376 2.015,-4.43 1.223,-2.053 3.374,-4.479 4.06,-4.916 z"
               inkscape:connector-curvature="0"
               style="fill:#79592b;fill-opacity:0.4" />
          </g>
        </g>
        <g
           id="group2">
          <g
             id="drawingObject4">
            <path
               id="path4"
               d="M 1.851,3.116 C 1.167,2.001 -0.165,0.402 -2.373,-0.242 -4.341,-0.821 -5.626,-0.854 -6.379,-0.746 l -0.703,0.692 c 1.008,-0.092 2.583,0.019 4.289,0.994 Q 0.209,2.676 0.922,5.041 L 1.851,3.116 z"
               inkscape:connector-curvature="0"
               style="fill:#79592b;fill-opacity:0.45100002" />
          </g>
          <g
             id="drawingObject5">
            <path
               id="path5"
               d="m -5.521,5.323 c 1.335,1.393 2.363,3.739 2.937,5.653 l 1.09,-1.365 C -1.904,8.052 -2.919,5.658 -5.398,4.476 -7.371,3.534 -8.517,3.175 -9.158,3.055 l -0.628,0.608 q 2.834,0.241 4.265,1.66 z"
               inkscape:connector-curvature="0"
               style="fill:#79592b;fill-opacity:0.45100002" />
          </g>
        </g>
        <g
           id="drawingObject6">
          <path
             id="path6"
             d="M 1.938,-0.979 C 0.835,-1.689 -0.093,-2.093 -0.865,-2.3 L 0.093,-0.853 -0.865,-2.3 c 0,0 2.32,1.968 0.805,5.496 C -1.636,6.759 -2.393,7.074 -3.697,6.725 -4.953,6.388 -5.733,4.471 -7.005,4.389 L -8.278,4.307 -7.289,4.675 -8.278,4.307 c 0,0 1.887,0.298 2.317,2.173 0.49,1.84 0.676,3.08 0.473,2.871 Q -6.243,8.113 -7.366,7.088 -9.48,5.124 -11.622,5.585 l 0.509,0.033 c 1.123,0.249 2.746,0.373 4.575,4.176 1.664,3.448 1.717,4.601 1.717,4.601 0,0 0.654,0.072 0.549,-0.888 -0.057,-0.947 2.893,-3.263 4.087,-5.789 L 2.77,1.521 c 0.229,-0.663 0.14,-1.878 -0.832,-2.5 z"
             inkscape:connector-curvature="0"
             style="fill:#000000;fill-opacity:0.2" />
        </g>
      </g>
    </g>
  </g>
</svg>
