<?xml version="1.0" encoding="UTF-8" standalone="no"?>
<!-- Generator: flash2svg, http://dissentgraphics.com/tools/flash2svg -->

<svg
   xmlns:dc="http://purl.org/dc/elements/1.1/"
   xmlns:cc="http://creativecommons.org/ns#"
   xmlns:rdf="http://www.w3.org/1999/02/22-rdf-syntax-ns#"
   xmlns:svg="http://www.w3.org/2000/svg"
   xmlns="http://www.w3.org/2000/svg"
   xmlns:sodipodi="http://sodipodi.sourceforge.net/DTD/sodipodi-0.dtd"
   xmlns:inkscape="http://www.inkscape.org/namespaces/inkscape"
   id="AvatarAssets"
   image-rendering="auto"
   version="1.1"
   x="0px"
   y="0px"
   width="12.592622"
   height="15.459953"
   viewBox="0 0 12.592622 15.459953"
   inkscape:version="0.48.4 r9939"
   sodipodi:docname="AvatarAssets_backShoeRightA009.svg">
  <metadata
     id="metadata3932">
    <rdf:RDF>
      <cc:Work
         rdf:about="">
        <dc:format>image/svg+xml</dc:format>
        <dc:type
           rdf:resource="http://purl.org/dc/dcmitype/StillImage" />
      </cc:Work>
    </rdf:RDF>
  </metadata>
  <sodipodi:namedview
     pagecolor="#ffffff"
     bordercolor="#666666"
     borderopacity="1"
     objecttolerance="10"
     gridtolerance="10"
     guidetolerance="10"
     inkscape:pageopacity="0"
     inkscape:pageshadow="2"
     inkscape:window-width="640"
     inkscape:window-height="480"
     id="namedview3930"
     showgrid="false"
     fit-margin-top="0"
     fit-margin-left="0"
     fit-margin-right="0"
     fit-margin-bottom="0"
     inkscape:zoom="1.9032258"
     inkscape:cx="36.655"
     inkscape:cy="-50.539047"
     inkscape:window-x="136"
     inkscape:window-y="0"
     inkscape:window-maximized="0"
     inkscape:current-layer="AvatarAssets" />
  <defs
     id="defs3907" />
  <g
     id="backShoeRightA10"
     overflow="visible"
     style="overflow:visible"
     transform="translate(4.655,3.999)">
    <g
       id="backShoeRightA009_0">
      <g
         id="element">
        <g
           id="drawingObject">
          <path
             id="path"
             d="m 7.601,9.201 c 0.85,-1.55 -0.65,-3.85 -0.9,-4.05 l -1.85,-0.95 0,-0.55 c 0,-0.55 -0.9,-3.25 -1.25,-3.95 -0.4,-0.7 -2.7,-2 -2.7,-2 l 1.2,0.75 -1.2,-0.75 0.25,-0.45 c 0.25,-0.4 0,-1.05 0,-1.05 l -0.25,-0.1 -1.25,-0.1 c 0,0 -0.4,0.25 -0.4,0.65 0,0.35 -0.15,0.7 -0.15,0.7 l -0.25,0.15 q -1.55,0.6 -1.9,0.9 c -2.1,1.75 -1.3,5.6 -0.5,6.55 0.8,0.95 1.55,3.15 3.25,3.75 1.7,0.65 4.65,2.3 5.75,2.3 1.15,0 1.25,-0.25 2.15,-1.8 z"
             inkscape:connector-curvature="0"
             style="fill:#3b862b" />
        </g>
        <g
           id="drawingObject1">
          <path
             id="path1"
             d="m -2.149,-1.649 c -1.2,0.5 -1.2,1.25 -1.4,1.6 l -0.8,1.05 c -0.2,1.65 0.3,3.35 0.8,3.95 0.8,0.95 1.55,3.15 3.25,3.75 1.55,0.55 4.05,2 5.35,2.25 0.4,-0.6 0.75,-1.2 0.95,-1.7 0.85,-1.65 -0.8,-3.9 -0.8,-3.9 l 0.7,1.35 -0.7,-1.35 c 0,0 -0.3,0.9 -0.75,1.3 -0.45,0.35 -1,-2.05 -1.2,-2.3 -0.15,-0.25 -0.75,-1.5 -0.6,-2.15 0.1,-0.6 0,-2.3 -0.75,-3.25 q -0.55,-0.7 -1.85,-0.85 -1.3,-0.15 -2.2,0.25 z"
             inkscape:connector-curvature="0"
             style="fill:#327124" />
        </g>
        <g
           id="drawingObject2">
          <path
             id="path2"
             d="m 7.901,8.501 c 0.2,-1.05 -0.45,-2.6 -1.2,-3.35 -0.75,-0.75 -1.85,-0.95 -1.85,-0.95 l 0.65,0.2 -0.65,-0.2 0.55,2 q 0.35,2.1 -0.4,3 c -0.6,0.8 -1.15,1.4 -0.9,1.5 0.25,0.15 1.35,0.55 1.9,0.4 0.6,-0.2 1.7,-1.5 1.9,-2.6 z"
             inkscape:connector-curvature="0"
             style="fill:#c8bfaa" />
        </g>
        <g
           id="drawingObject3">
          <path
             id="path3"
             d="m 7.851,7.651 c -0.15,-0.9 -0.25,-1.9 -1.15,-2.5 -0.85,-0.65 -1.7,-1.05 -1.3,-0.45 l 0.45,2.2 c 0.05,0.8 0.65,1.35 0.9,1.35 0.25,0 1.2,0.25 1.1,-0.6 z"
             inkscape:connector-curvature="0"
             style="fill:#f6ebd1" />
        </g>
        <g
           id="drawingObject4">
          <path
             id="path4"
             d="m -0.299,-0.549 c -1.6,-0.85 -2.75,-0.7 -3.6,0.05 -0.9,0.75 -0.9,1.4 -0.5,1.45 l 1.1,-0.15 -1.1,0.15 c 0.35,0.05 1.75,-0.45 2.6,-0.1 0.9,0.3 1.95,1.25 1.75,1.25 q -0.5,0 0.2,0.25 0.65,0.25 0.8,0.05 c 0.25,-0.3 0.4,-2.05 -1.25,-2.95 z"
             inkscape:connector-curvature="0"
             style="fill:#3b862b" />
        </g>
        <g
           id="drawingObject5">
          <path
             id="path5"
             d="m -2.399,-0.899 q -0.75,0.1 -1.45,0.65 -0.7,0.6 -0.65,1.15 l 0.1,0.05 1.1,-0.15 -1.1,0.15 c 0.35,0.05 1.75,-0.45 2.6,-0.1 0.9,0.3 1.95,1.25 1.75,1.25 -0.4,0 0.1,0.25 0.55,0.35 -0.3,-0.4 0,-0.75 -0.15,-1.45 -0.2,-0.8 -1.65,-2.05 -2.75,-1.9 z"
             inkscape:connector-curvature="0"
             style="fill:#327124" />
        </g>
        <g
           id="drawingObject6">
          <path
             id="path6"
             d="m 2.351,8.251 c -1.1,-1.65 -2,-5.5 -2.4,-6.4 -0.35,-0.95 -2.1,-1.6 -3,-1.4 -0.85,0.2 -1.35,0.15 -1.5,1.05 -0.1,0.95 0.4,2.2 1.25,4.15 0.9,1.95 1.45,2.85 2.2,3.3 0.75,0.45 4.7,2.15 5.45,2.3 0.75,0.2 1.8,0.35 2,0 l 0.15,-0.35 -0.5,0.2 q -1.35,-0.35 -2.1,-0.95 -0.75,-0.6 -1.55,-1.9 z"
             inkscape:connector-curvature="0"
             style="fill:#ded8d7" />
        </g>
        <g
           id="drawingObject7">
          <path
             id="path7"
             d="m -1.099,8.951 c 0.75,0.45 4.7,2.15 5.45,2.3 -0.7,-0.3 -1.5,-1 -2.25,-2.5 -1.6,-3.05 -2.2,-5.8 -2.5,-6.35 l 0.75,2.25 -0.75,-2.25 c -0.35,-0.55 -0.95,-1.3 -2.35,-1.3 q -1.55,0 -1.8,0.65 c 0,0.9 0.45,2.1 1.25,3.9 0.9,1.95 1.45,2.85 2.2,3.3 z"
             inkscape:connector-curvature="0"
             style="fill:#918e8e" />
        </g>
        <g
           id="drawingObject8">
          <path
             id="path8"
             d="m 0.901,-3.549 -0.65,1.2 c 1,-0.2 0.65,-1.2 0.65,-1.2"
             inkscape:connector-curvature="0"
             style="fill:#2b621f" />
        </g>
      </g>
    </g>
  </g>
</svg>
