<?xml version="1.0" encoding="UTF-8" standalone="no"?>
<!-- Generator: flash2svg, http://dissentgraphics.com/tools/flash2svg -->

<svg
   xmlns:dc="http://purl.org/dc/elements/1.1/"
   xmlns:cc="http://creativecommons.org/ns#"
   xmlns:rdf="http://www.w3.org/1999/02/22-rdf-syntax-ns#"
   xmlns:svg="http://www.w3.org/2000/svg"
   xmlns="http://www.w3.org/2000/svg"
   xmlns:sodipodi="http://sodipodi.sourceforge.net/DTD/sodipodi-0.dtd"
   xmlns:inkscape="http://www.inkscape.org/namespaces/inkscape"
   id="AvatarAssets"
   image-rendering="auto"
   version="1.1"
   x="0px"
   y="0px"
   width="11.95"
   height="10.624332"
   viewBox="0 0 11.95 10.624332"
   inkscape:version="0.48.4 r9939"
   sodipodi:docname="AvatarAssets_backShoeRightD009.svg">
  <metadata
     id="metadata4090">
    <rdf:RDF>
      <cc:Work
         rdf:about="">
        <dc:format>image/svg+xml</dc:format>
        <dc:type
           rdf:resource="http://purl.org/dc/dcmitype/StillImage" />
      </cc:Work>
    </rdf:RDF>
  </metadata>
  <sodipodi:namedview
     pagecolor="#ffffff"
     bordercolor="#666666"
     borderopacity="1"
     objecttolerance="10"
     gridtolerance="10"
     guidetolerance="10"
     inkscape:pageopacity="0"
     inkscape:pageshadow="2"
     inkscape:window-width="640"
     inkscape:window-height="480"
     id="namedview4088"
     showgrid="false"
     fit-margin-top="0"
     fit-margin-left="0"
     fit-margin-right="0"
     fit-margin-bottom="0"
     inkscape:zoom="1.9032258"
     inkscape:cx="36.849"
     inkscape:cy="-50.349"
     inkscape:window-x="136"
     inkscape:window-y="0"
     inkscape:window-maximized="0"
     inkscape:current-layer="AvatarAssets" />
  <defs
     id="defs4067" />
  <g
     id="backShoeRightD10"
     overflow="visible"
     style="overflow:visible"
     transform="translate(4.849,-1.0266678)">
    <g
       id="backShoeRightD009_0">
      <g
         id="element">
        <g
           id="drawingObject">
          <path
             id="path"
             d="m -0.399,1.901 c -1,-0.5 -3.7,-1.15 -4.1,-0.75 l -0.35,0.45 0.15,0.85 -0.15,-0.85 c 0,0 0.1,1.4 0.75,2.65 0.6,1.25 3.3,3.5 5.3,5 2,1.5 3.65,2.15 4.25,2.3 l 0.65,0.1 0,-0.65 q -1.45,-0.5 -2.9,-3.1 c -1.45,-2.55 -2.6,-5.5 -3.6,-6 z"
             inkscape:connector-curvature="0"
             style="fill:#c59149" />
        </g>
        <g
           id="drawingObject1">
          <path
             id="path1"
             d="m -0.849,2.751 c -1,-0.7 -3.8,-1.5 -4,-1.15 l 0.15,0.85 -0.15,-0.85 c 0,0 0.1,1.4 0.75,2.65 0.6,1.25 3.3,3.5 5.3,5 2,1.5 3.65,2.15 4.25,2.3 l 0.65,0.1 c -0.6,-0.2 -1.95,-0.8 -3.15,-3 q -2.05,-3.65 -2.1,-3.75 -1.05,-1.75 -1.7,-2.15 z"
             inkscape:connector-curvature="0"
             style="fill:#85511d" />
        </g>
        <g
           id="drawingObject2">
          <path
             id="path2"
             d="m -0.799,2.351 c -0.45,-0.05 -1.6,-0.8 -2.55,-0.85 l -1.2,0 1.5,0.2 -1.5,-0.2 c 0,0 2.75,0.1 3.7,1.25 0.95,1.1 1.85,2.55 2.25,3.15 l 0.35,0.65 -0.85,-2.15 -1.4,-1.75 0.075,-0.55 0.025,0 c -0.05,0.15 -0.2,0.25 -0.4,0.25 z"
             inkscape:connector-curvature="0"
             style="fill:#fac880" />
        </g>
        <g
           id="drawingObject3">
          <path
             id="path3"
             d="m 4.501,2.501 c -0.3,-0.65 -0.8,-0.5 -0.8,-0.5 l 0.3,0 -0.3,0 0.05,3 c 0,1.5 -0.55,2.9 -0.55,2.9 l 0.3,0.75 c 0.35,0.75 1.25,1.25 1.25,1.25 0,0 1.1,-1.3 1,-3.25 q -0.05,-1.85 -1.25,-4.15 z"
             inkscape:connector-curvature="0"
             style="fill:#649022" />
        </g>
        <g
           id="drawingObject4">
          <path
             id="path4"
             d="m 4.601,6.501 c -0.35,0 -0.35,-0.6 -0.35,-2.1 0,-1.2 -0.15,-2.1 -0.2,-2.35 l -0.35,-0.05 0.05,3 c 0,1.5 -0.55,2.9 -0.55,2.9 l 0.3,0.75 c 0.35,0.75 1.25,1.25 1.25,1.25 0,0 1.05,-1.25 1,-3.15 -0.4,0 -0.95,-0.25 -1.15,-0.25 z"
             inkscape:connector-curvature="0"
             style="fill:#4f711a" />
        </g>
        <g
           id="drawingObject5">
          <path
             id="path5"
             d="m 4.001,1.751 c -0.15,0.6 0.25,0.25 0.5,0.75 0.25,0.5 0.45,1.25 1.35,1 l 0.4,0.05 q 0.1,0 0.25,-0.4 c 0.25,-0.65 0,-1.25 -0.55,-1.65 -0.6,-0.4 -1.75,-0.35 -1.95,0.25 z"
             inkscape:connector-curvature="0"
             style="fill:#f72c5b" />
        </g>
        <g
           id="drawingObject6">
          <path
             id="path6"
             d="m 4.001,1.751 c -0.15,0.6 0.25,0.25 0.5,0.75 q 0.35,0.7 0.45,0.8 0.3,0.35 0.9,0.2 l 0.4,0.05 -0.4,-0.05 c 0.4,-0.1 0.4,0.35 0.65,-0.35 0.1,-0.2 0.1,-0.45 0.1,-0.7 -0.3,-0.15 -0.65,-0.35 -1.1,-0.35 -0.7,0 -0.9,-0.15 -0.9,-0.8 -0.3,0.05 -0.5,0.2 -0.6,0.45 z"
             inkscape:connector-curvature="0"
             style="fill:#a91e3e" />
        </g>
        <g
           id="drawingObject7">
          <path
             id="path7"
             d="m 4.701,2.901 c 0,0 -0.45,0.35 -0.2,0.6 0.25,0.25 0.35,0.65 0.95,1 0.55,0.35 1.65,-0.4 1.65,-0.4 l -1,-0.7 q -0.55,-0.4 -0.75,-0.5 -0.25,-0.1 -0.65,0 z"
             inkscape:connector-curvature="0"
             style="fill:#4f711a" />
        </g>
      </g>
    </g>
  </g>
</svg>
