<?xml version="1.0" encoding="UTF-8" standalone="no"?>
<!-- Generator: flash2svg, http://dissentgraphics.com/tools/flash2svg -->

<svg
   xmlns:dc="http://purl.org/dc/elements/1.1/"
   xmlns:cc="http://creativecommons.org/ns#"
   xmlns:rdf="http://www.w3.org/1999/02/22-rdf-syntax-ns#"
   xmlns:svg="http://www.w3.org/2000/svg"
   xmlns="http://www.w3.org/2000/svg"
   xmlns:sodipodi="http://sodipodi.sourceforge.net/DTD/sodipodi-0.dtd"
   xmlns:inkscape="http://www.inkscape.org/namespaces/inkscape"
   id="AvatarAssets"
   image-rendering="auto"
   version="1.1"
   x="0px"
   y="0px"
   width="12.593276"
   height="15.459953"
   viewBox="0 0 12.593276 15.459953"
   inkscape:version="0.48.4 r9939"
   sodipodi:docname="AvatarAssets_backShoeRightA012.svg">
  <metadata
     id="metadata4008">
    <rdf:RDF>
      <cc:Work
         rdf:about="">
        <dc:format>image/svg+xml</dc:format>
        <dc:type
           rdf:resource="http://purl.org/dc/dcmitype/StillImage" />
      </cc:Work>
    </rdf:RDF>
  </metadata>
  <sodipodi:namedview
     pagecolor="#ffffff"
     bordercolor="#666666"
     borderopacity="1"
     objecttolerance="10"
     gridtolerance="10"
     guidetolerance="10"
     inkscape:pageopacity="0"
     inkscape:pageshadow="2"
     inkscape:window-width="640"
     inkscape:window-height="480"
     id="namedview4006"
     showgrid="false"
     fit-margin-top="0"
     fit-margin-left="0"
     fit-margin-right="0"
     fit-margin-bottom="0"
     inkscape:zoom="1.9032258"
     inkscape:cx="36.669137"
     inkscape:cy="-50.489047"
     inkscape:window-x="136"
     inkscape:window-y="0"
     inkscape:window-maximized="0"
     inkscape:current-layer="AvatarAssets" />
  <defs
     id="defs3983" />
  <g
     id="backShoeRightA13"
     overflow="visible"
     style="overflow:visible"
     transform="translate(4.6691367,3.949)">
    <g
       id="backShoeRightA012_0">
      <g
         id="element">
        <g
           id="drawingObject">
          <path
             id="path"
             d="m -3.049,-1.549 c -2.15,1.75 -1.3,5.6 -0.5,6.55 0.8,0.95 1.55,3.15 3.25,3.75 1.7,0.65 4.6,2.3 5.75,2.3 1.1,0 1.25,-0.25 2.1,-1.8 0.9,-1.55 -0.6,-3.85 -0.85,-4.05 l -1.9,-0.95 0,-0.55 c 0,-0.55 -0.85,-3.25 -1.25,-3.95 -0.35,-0.7 -2.65,-2 -2.65,-2 l 1.2,0.75 -1.2,-0.75 0.25,-0.45 c 0.25,-0.4 0,-1.05 0,-1.05 l -0.25,-0.1 -1.25,-0.1 c 0,0 -0.4,0.25 -0.4,0.65 0,0.35 -0.2,0.7 -0.2,0.7 l -0.25,0.15 q -1.5,0.6 -1.85,0.9 z"
             inkscape:connector-curvature="0"
             style="fill:#bc4377" />
        </g>
        <g
           id="drawingObject1">
          <path
             id="path1"
             d="m -2.199,-1.599 c -1.15,0.5 -1.15,1.25 -1.4,1.6 l -0.75,1.05 c -0.25,1.65 0.3,3.35 0.8,3.95 0.8,0.95 1.55,3.15 3.25,3.75 1.5,0.55 4,2 5.35,2.25 0.4,-0.6 0.75,-1.2 0.95,-1.7 0.8,-1.65 -0.8,-3.9 -0.8,-3.9 l 0.7,1.35 -0.7,-1.35 c 0,0 -0.3,0.9 -0.75,1.3 -0.45,0.35 -1,-2.05 -1.2,-2.3 -0.2,-0.25 -0.75,-1.5 -0.6,-2.15 0.1,-0.6 0,-2.3 -0.75,-3.25 q -0.55,-0.7 -1.9,-0.85 -1.25,-0.15 -2.2,0.25 z"
             inkscape:connector-curvature="0"
             style="fill:#9b3762" />
        </g>
        <g
           id="drawingObject2">
          <path
             id="path2"
             d="m 5.451,4.451 -0.65,-0.2 0.6,2 q 0.35,2.1 -0.4,3 c -0.6,0.8 -1.2,1.4 -0.95,1.5 0.25,0.15 1.4,0.55 1.95,0.4 0.55,-0.2 1.7,-1.5 1.9,-2.6 0.15,-1.05 -0.45,-2.6 -1.2,-3.35 -0.75,-0.75 -1.9,-0.95 -1.9,-0.95"
             inkscape:connector-curvature="0"
             style="fill:#d0b0bc" />
        </g>
        <g
           id="drawingObject3">
          <path
             id="path3"
             d="m 6.701,5.201 c -0.9,-0.65 -1.7,-1.05 -1.3,-0.45 l 0.4,2.2 c 0.1,0.8 0.7,1.35 0.95,1.35 0.25,0 1.2,0.25 1.05,-0.6 -0.1,-0.9 -0.25,-1.9 -1.1,-2.5 z"
             inkscape:connector-curvature="0"
             style="fill:#f5dae4" />
        </g>
        <g
           id="drawingObject4">
          <path
             id="path4"
             d="m -1.799,0.901 c 0.85,0.3 1.95,1.25 1.75,1.25 q -0.55,0 0.15,0.25 0.7,0.25 0.85,0.05 c 0.25,-0.3 0.35,-2.05 -1.25,-2.95 -1.65,-0.85 -2.75,-0.7 -3.65,0.05 -0.85,0.75 -0.85,1.4 -0.5,1.45 0.4,0.05 1.75,-0.45 2.65,-0.1 z"
             inkscape:connector-curvature="0"
             style="fill:#bc4377" />
        </g>
        <g
           id="drawingObject5">
          <path
             id="path5"
             d="m -4.549,0.951 0.1,0.05 c 0.4,0.05 1.75,-0.45 2.65,-0.1 0.85,0.3 1.95,1.25 1.75,1.25 -0.45,0 0.1,0.25 0.5,0.35 -0.25,-0.4 0,-0.75 -0.15,-1.45 -0.15,-0.8 -1.6,-2.05 -2.75,-1.9 q -0.75,0.1 -1.45,0.65 -0.7,0.6 -0.65,1.15 z"
             inkscape:connector-curvature="0"
             style="fill:#9b3762" />
        </g>
        <g
           id="drawingObject6">
          <path
             id="path6"
             d="m -3.299,5.701 c 0.85,1.95 1.45,2.85 2.2,3.3 0.75,0.45 4.65,2.15 5.4,2.3 0.75,0.2 1.85,0.35 2,0 l 0.2,-0.35 -0.5,0.2 q -1.35,-0.3 -2.15,-0.95 -0.7,-0.55 -1.55,-1.9 c -1.05,-1.65 -2,-5.5 -2.35,-6.4 -0.4,-0.95 -2.15,-1.6 -3,-1.4 -0.9,0.2 -1.4,0.15 -1.5,1.05 -0.15,0.95 0.35,2.2 1.25,4.15 z"
             inkscape:connector-curvature="0"
             style="fill:#f5dae4" />
        </g>
        <g
           id="drawingObject7">
          <path
             id="path7"
             d="m -4.549,1.801 c -0.05,0.9 0.45,2.1 1.25,3.9 0.85,1.95 1.45,2.85 2.2,3.3 0.75,0.45 4.65,2.15 5.4,2.3 -0.65,-0.3 -1.45,-1 -2.25,-2.5 -1.55,-3.05 -2.15,-5.8 -2.5,-6.35 -0.3,-0.55 -0.9,-1.3 -2.3,-1.3 q -1.6,0 -1.8,0.65 z"
             inkscape:connector-curvature="0"
             style="fill:#d0b0bc" />
        </g>
        <g
           id="drawingObject8">
          <path
             id="path8"
             d="m 0.901,-3.499 -0.65,1.2 c 1,-0.2 0.65,-1.2 0.65,-1.2"
             inkscape:connector-curvature="0"
             style="fill:#9b3762" />
        </g>
      </g>
    </g>
  </g>
</svg>
