<?xml version="1.0" encoding="UTF-8" standalone="no"?>
<!-- Generator: flash2svg, http://dissentgraphics.com/tools/flash2svg -->

<svg
   xmlns:dc="http://purl.org/dc/elements/1.1/"
   xmlns:cc="http://creativecommons.org/ns#"
   xmlns:rdf="http://www.w3.org/1999/02/22-rdf-syntax-ns#"
   xmlns:svg="http://www.w3.org/2000/svg"
   xmlns="http://www.w3.org/2000/svg"
   xmlns:sodipodi="http://sodipodi.sourceforge.net/DTD/sodipodi-0.dtd"
   xmlns:inkscape="http://www.inkscape.org/namespaces/inkscape"
   id="AvatarAssets"
   image-rendering="auto"
   version="1.1"
   x="0px"
   y="0px"
   width="15.67566"
   height="16.868523"
   viewBox="0 0 15.67566 16.868523"
   inkscape:version="0.48.4 r9939"
   sodipodi:docname="AvatarAssets_backPantsLegLowerRightA007b.svg">
  <metadata
     id="metadata3208">
    <rdf:RDF>
      <cc:Work
         rdf:about="">
        <dc:format>image/svg+xml</dc:format>
        <dc:type
           rdf:resource="http://purl.org/dc/dcmitype/StillImage" />
      </cc:Work>
    </rdf:RDF>
  </metadata>
  <sodipodi:namedview
     pagecolor="#ffffff"
     bordercolor="#666666"
     borderopacity="1"
     objecttolerance="10"
     gridtolerance="10"
     guidetolerance="10"
     inkscape:pageopacity="0"
     inkscape:pageshadow="2"
     inkscape:window-width="640"
     inkscape:window-height="480"
     id="namedview3206"
     showgrid="false"
     fit-margin-top="0"
     fit-margin-left="0"
     fit-margin-right="0"
     fit-margin-bottom="0"
     inkscape:zoom="1.9032258"
     inkscape:cx="44.894"
     inkscape:cy="-47.591012"
     inkscape:window-x="136"
     inkscape:window-y="0"
     inkscape:window-maximized="0"
     inkscape:current-layer="AvatarAssets" />
  <defs
     id="defs3190" />
  <g
     id="backPantsLegLowerRightA007b1"
     overflow="visible"
     style="overflow:visible"
     transform="translate(12.894,2.4595341)">
    <g
       id="backPantsLegLowerRightA007b_0">
      <g
         id="element">
        <g
           id="drawingObject">
          <path
             id="path"
             d="m -11.206,5.66 c 1.137,0.201 2.711,0.313 4.588,4.128 1.651,3.497 1.669,4.589 1.669,4.589 0,0 0.689,0.132 0.597,-0.876 -0.105,-0.96 2.845,-3.275 4.039,-5.802 C 0.882,5.172 2.425,2.117 2.642,1.502 Q 2.881,0.997 2.711,0.278 2.506,-0.501 1.846,-0.937 c -3.396,-2.203 -4.91,-1.574 -6.608,-0.838 -1.65,0.748 -3.037,2.447 -3.951,4.118 -0.865,1.683 -4.181,3.434 -4.181,3.434 l 0.403,-0.15 -0.403,0.15 c 0,0 0.516,-0.379 1.688,-0.117 z"
             inkscape:connector-curvature="0"
             style="fill:#a40120" />
        </g>
        <g
           id="group1">
          <g
             id="drawingObject1">
            <path
               id="path1"
               d="m -11.139,5.659 0.097,0.026 c 0.558,-0.731 1.367,-1.239 1.996,-1.846 0.716,-0.74 1.79,-2.626 3.606,-4.573 0.642,-0.656 1.341,-1.142 2.015,-1.53 l -1.27,0.488 q -2.249,1.053 -3.95,4.117 c -0.765,1.504 -3.582,3.13 -4.12,3.4 0.232,-0.093 0.744,-0.267 1.626,-0.082 z"
               inkscape:connector-curvature="0"
               style="fill:#e17531" />
          </g>
          <g
             id="drawingObject2">
            <path
               id="path2"
               d="m -0.086,3.237 c -0.92,2.083 -3.281,4.712 -4.265,6.26 l -1.465,1.988 q 0.386,0.88 0.684,1.892 c 0.239,-0.506 0.704,-1.468 1.301,-2.344 C -2.973,9.762 -1.686,8.244 -0.068,5.105 1.336,2.376 2.211,0.074 2.415,-0.493 2.296,-0.628 2.142,-0.825 1.913,-0.938 L 1.566,-1.186 C 1.371,-0.462 0.661,1.419 -0.086,3.237 z"
               inkscape:connector-curvature="0"
               style="fill:#e17531" />
          </g>
          <g
             id="drawingObject3">
            <path
               id="path3"
               d="m -7.856,5.193 c -0.194,0.724 -0.688,1.213 -0.91,1.464 0.383,0.31 0.823,0.79 1.273,1.428 l 0.478,-1.01 c 0.478,-1.011 0.84,-2.363 2.077,-4.465 1.223,-2.053 3.374,-4.479 4.06,-4.917 -0.338,-0.09 -0.592,-0.107 -0.847,-0.123 -0.506,0.537 -1.37,1.445 -2.17,2.11 q -0.86,0.701 -2.29,2.751 -1.477,2.037 -1.671,2.762 z"
               inkscape:connector-curvature="0"
               style="fill:#e17531" />
          </g>
        </g>
        <g
           id="drawingObject4">
          <path
             id="path4"
             d="m -11.749,5.601 0.5,0.1 c 1.2,0.2 2.75,0.3 4.65,4.1 1.65,3.5 1.65,4.6 1.65,4.6 0,0 0.65,0.15 0.55,-0.85 -0.05,-1 2.9,-3.3 4.1,-5.85 1.15,-2.5 2.7,-5.55 2.95,-6.15 0.25,-0.65 0.1,-1.85 -0.8,-2.5 -1.1,-0.7 -2.05,-1.1 -2.8,-1.3 l 0.95,1.4 -0.95,-1.4 c 0,0 2.3,1.95 0.8,5.5 -1.55,3.55 -2.35,3.8 -3.65,3.45 -1.3,-0.35 -2.05,-2.2 -3.35,-2.3 l -1.25,-0.1 1,0.45 -1,-0.45 c 0,0 1.9,0.35 2.35,2.2 0.45,1.8 0.65,3.1 0.45,2.85 q -0.75,-1.25 -1.85,-2.2 -2.15,-2.05 -4.3,-1.55 z"
             inkscape:connector-curvature="0"
             style="fill:#000000;fill-opacity:0.2" />
        </g>
      </g>
    </g>
  </g>
</svg>
