<?xml version="1.0" encoding="UTF-8" standalone="no"?>
<!-- Generator: flash2svg, http://dissentgraphics.com/tools/flash2svg -->

<svg
   xmlns:dc="http://purl.org/dc/elements/1.1/"
   xmlns:cc="http://creativecommons.org/ns#"
   xmlns:rdf="http://www.w3.org/1999/02/22-rdf-syntax-ns#"
   xmlns:svg="http://www.w3.org/2000/svg"
   xmlns="http://www.w3.org/2000/svg"
   xmlns:sodipodi="http://sodipodi.sourceforge.net/DTD/sodipodi-0.dtd"
   xmlns:inkscape="http://www.inkscape.org/namespaces/inkscape"
   id="AvatarAssets"
   image-rendering="auto"
   version="1.1"
   x="0px"
   y="0px"
   width="15.913068"
   height="14.144514"
   viewBox="0 0 15.913068 14.144514"
   inkscape:version="0.48.4 r9939"
   sodipodi:docname="AvatarAssets_backPantsLegUpperRightA011.svg">
  <metadata
     id="metadata3673">
    <rdf:RDF>
      <cc:Work
         rdf:about="">
        <dc:format>image/svg+xml</dc:format>
        <dc:type
           rdf:resource="http://purl.org/dc/dcmitype/StillImage" />
      </cc:Work>
    </rdf:RDF>
  </metadata>
  <sodipodi:namedview
     pagecolor="#ffffff"
     bordercolor="#666666"
     borderopacity="1"
     objecttolerance="10"
     gridtolerance="10"
     guidetolerance="10"
     inkscape:pageopacity="0"
     inkscape:pageshadow="2"
     inkscape:window-width="640"
     inkscape:window-height="480"
     id="namedview3671"
     showgrid="false"
     fit-margin-top="0"
     fit-margin-left="0"
     fit-margin-right="0"
     fit-margin-bottom="0"
     inkscape:zoom="1.9032258"
     inkscape:cx="35.095068"
     inkscape:cy="-50.544"
     inkscape:window-x="136"
     inkscape:window-y="0"
     inkscape:window-maximized="0"
     inkscape:current-layer="AvatarAssets" />
  <defs
     id="defs3646" />
  <g
     id="backPantsLegUpperRightA12"
     overflow="visible"
     style="overflow:visible"
     transform="translate(3.0950678,2.6885139)">
    <g
       id="backPantsLegUpperRightA011_0">
      <g
         id="element">
        <g
           id="drawingObject">
          <path
             id="path"
             d="M 7.651,7.327 C 8.975,4.709 9.016,4.172 9.016,4.172 L 8.832,4.754 9.016,4.172 8.607,3.042 10.552,3.059 c 0,0 -1.443,-2.586 -3.904,-2.912 C 4.201,-0.13 0.103,6.664 0.103,6.664 l 4.798,3.416 c 0.501,0.261 1.686,0.36 1.686,0.36 0,0 -0.306,-0.637 1.064,-3.113 z"
             inkscape:connector-curvature="0"
             style="fill:#000000;fill-opacity:0.29800002" />
        </g>
        <g
           id="drawingObject1">
          <path
             id="path1"
             d="M -0.389,8.361 C -1.881,7.432 -5.202,3.228 -1.17,-1.581 q 0.621,-0.651 2.253,-0.976 1.926,-0.326 3.693,0.348 c 2.582,0.998 5.96,4.018 6.454,4.204 l 0.494,0.185 -1.422,0.883 c 0,0 -1.147,-0.836 -2.387,-1.486 L 6.475,0.741 8.688,3.644 8.944,4.109 8.081,4.852 8.944,4.109 c 0,0 -1.558,0.86 -2.213,3.136 C 6.1,9.475 6.127,10.59 6.309,11.008 l 0.181,0.419 c 0,0 -0.712,-0.628 -1.789,-1.115 C 3.601,9.87 1.102,9.29 -0.389,8.361 z"
             inkscape:connector-curvature="0"
             style="fill:#a97b37" />
        </g>
        <g
           id="drawingObject2">
          <path
             id="path2"
             d="M 1.711,-0.052 C 3.146,0.755 3.43,0.56 3.103,1.869 2.777,3.177 2.48,4.109 2.406,4.657 L 2.363,5.299 c 0,0 0.878,-1.744 1.37,-2.056 L 4.225,2.931 3.947,6.268 C 3.92,7.587 3.487,7.933 2.861,8.444 L 2.175,8.923 0.846,8.922 2.968,9.721 3.222,9.746 3.357,9.861 3.835,9.973 C 3.909,9.897 3.938,9.521 4.459,8.518 5.173,7.035 6.29,5.111 6.604,5.327 6.903,5.495 6.025,7.239 5.908,8.586 5.82,9.557 5.836,10.391 5.658,10.761 L 6.615,11.456 6.42,10.993 C 6.255,10.626 6.193,9.492 6.816,7.252 7.484,4.997 9.036,4.142 9.036,4.142 L 8.171,4.833 9.036,4.142 8.781,3.645 6.581,0.721 8.046,1.623 c 1.225,0.61 2.376,1.453 2.376,1.453 L 11.869,2.201 11.331,2.056 C 10.868,1.835 7.458,-1.18 4.873,-2.2 2.303,-3.173 -0.428,-2.313 -1.039,-1.597 l -0.685,0.95 c 1.254,-0.081 2.449,0.12 3.435,0.595 z"
             inkscape:connector-curvature="0"
             style="fill:#946c30" />
        </g>
        <g
           id="drawingObject3">
          <path
             id="path3"
             d="M 5.547,1.809 C 5.245,-0.026 3.963,-0.397 1.978,-1.512 1.12,-2.046 0.225,-2.116 -0.484,-2.069 c 1.124,-0.581 3.232,-0.976 5.26,-0.14 2.582,0.998 5.96,4.018 6.454,4.204 L 11.724,2.18 10.302,3.063 Q 9.155,2.227 7.915,1.577 L 6.475,0.741 8.688,3.644 8.944,4.109 8.547,4.411 8.944,4.109 c 0,0 -0.616,0.348 -1.293,1.208 C 7.754,5.015 7.843,4.643 7.848,4.341 7.848,3.853 7.168,3.552 6.519,4.063 5.871,4.574 4.792,6.525 4.792,6.525 L 5.269,5.48 C 5.685,4.458 5.848,3.645 5.547,1.809 z"
             inkscape:connector-curvature="0"
             style="fill:#795a2c" />
        </g>
        <g
           id="drawingObject4">
          <path
             id="path4"
             d="M 5.869,0.485 C 5.636,0.462 4.094,-1.048 3.264,-1.443 l 0.84,0.279 q 0.95,0.348 1.375,0.674 c 0.698,0.557 0.624,0.998 0.39,0.975 z"
             inkscape:connector-curvature="0"
             style="fill:#946c30" />
        </g>
        <g
           id="drawingObject5">
          <path
             id="path5"
             d="m 8.767,3.877 c 0,0 -0.005,-0.186 0.177,-0.256 Q 9.733,3.319 9.84,3.203 L 10.092,2.994 10.25,2.97 10.092,2.994 c 0,0 0.28,-0.07 0.21,0.069 C 10.255,3.156 9.438,3.807 9.196,3.9 L 8.944,4.109 8.767,3.877 z"
             inkscape:connector-curvature="0"
             style="fill:#513c1d" />
        </g>
        <g
           id="drawingObject6">
          <path
             id="path6"
             d="M 9.881,4.388 C 9.69,4.086 9.481,3.528 9.592,3.598 l 0.979,1.463 c 0.311,0.743 0.311,0.743 0.549,0.952 l 0.475,0.419 0.028,0.139 -0.028,-0.139 c 0,0 0.117,0.255 -0.149,0.394 l -0.229,0.163 c 0,0 -0.27,-0.534 -0.726,-1.185 C 10.095,5.131 10.035,4.666 9.881,4.388 z"
             inkscape:connector-curvature="0"
             style="fill:#3c2d16" />
        </g>
        <g
           id="drawingObject7">
          <path
             id="path7"
             d="m 9.718,3.737 0.084,-0.07 q 0.014,0.07 0.676,0.604 0.675,0.604 0.923,0.697 c 0.382,0.116 0.834,0.093 1.104,0.139 l 0.271,0.047 0.042,0.209 -0.042,-0.209 c 0,0 0.107,0.371 -0.038,0.464 L 12.594,5.711 11.852,5.433 C 11.484,5.386 11.149,5.177 10.673,4.759 10.161,4.318 9.891,3.784 9.732,3.807 9.597,3.784 9.802,3.667 9.802,3.667"
             inkscape:connector-curvature="0"
             style="fill:#3c2d16" />
        </g>
        <g
           id="drawingObject8">
          <path
             id="path8"
             d="M 9.126,4.527 C 9.214,4.155 9.406,3.482 9.443,3.505 9.495,3.598 9.452,3.876 9.424,4.225 9.359,4.55 9.181,5.294 9.167,5.712 9.176,6.083 9.171,6.385 9.371,6.571 9.557,6.687 9.782,6.339 9.908,5.99 10.057,5.595 9.899,4.643 9.704,4.155 9.448,3.691 9.392,3.412 9.588,3.412 l 0.503,1.045 c 0.167,0.349 0.414,1.417 0.133,1.975 C 9.884,7.012 9.412,7.268 9.165,7.175 8.904,7.013 8.686,6.571 8.761,6.13 Q 8.929,5.015 9.126,4.527 z"
             inkscape:connector-curvature="0"
             style="fill:#513c1d" />
        </g>
        <g
           id="drawingObject9">
          <path
             id="path9"
             d="M 9.756,3.272 9.877,3.226 c 0.061,-0.023 0.686,0 1.241,-0.325 0.615,-0.349 1.403,-0.163 1.52,0.092 C 12.731,3.295 12.39,3.876 11.849,4.271 11.345,4.689 10.865,4.573 10.417,4.295 9.97,4.016 9.751,3.574 9.751,3.574 L 9.905,3.853 9.751,3.574 c 0,0 -0.014,-0.069 0.047,-0.092 L 9.686,3.412 C 9.597,3.296 9.877,3.226 9.877,3.226 m 0.862,0.72 q 0.298,0.186 0.564,0.046 C 11.728,3.83 11.942,3.597 12.013,3.458 L 11.971,3.249 10.931,3.272 C 10.628,3.389 10.25,3.458 9.956,3.458 l 0.187,0.116 q 0.261,0.163 0.596,0.372 z"
             inkscape:connector-curvature="0"
             style="fill:#513c1d" />
        </g>
      </g>
    </g>
  </g>
</svg>
