<?xml version="1.0" encoding="UTF-8" standalone="no"?>
<!-- Generator: flash2svg, http://dissentgraphics.com/tools/flash2svg -->

<svg
   xmlns:dc="http://purl.org/dc/elements/1.1/"
   xmlns:cc="http://creativecommons.org/ns#"
   xmlns:rdf="http://www.w3.org/1999/02/22-rdf-syntax-ns#"
   xmlns:svg="http://www.w3.org/2000/svg"
   xmlns="http://www.w3.org/2000/svg"
   xmlns:sodipodi="http://sodipodi.sourceforge.net/DTD/sodipodi-0.dtd"
   xmlns:inkscape="http://www.inkscape.org/namespaces/inkscape"
   id="AvatarAssets"
   image-rendering="auto"
   version="1.1"
   x="0px"
   y="0px"
   width="8.8007307"
   height="16.756805"
   viewBox="0 0 8.8007307 16.756805"
   inkscape:version="0.48.4 r9939"
   sodipodi:docname="AvatarAssets_sleeveUpperCloseA001.svg">
  <metadata
     id="metadata3183">
    <rdf:RDF>
      <cc:Work
         rdf:about="">
        <dc:format>image/svg+xml</dc:format>
        <dc:type
           rdf:resource="http://purl.org/dc/dcmitype/StillImage" />
      </cc:Work>
    </rdf:RDF>
  </metadata>
  <sodipodi:namedview
     pagecolor="#ffffff"
     bordercolor="#666666"
     borderopacity="1"
     objecttolerance="10"
     gridtolerance="10"
     guidetolerance="10"
     inkscape:pageopacity="0"
     inkscape:pageshadow="2"
     inkscape:window-width="640"
     inkscape:window-height="480"
     id="namedview3181"
     showgrid="false"
     fit-margin-top="0"
     fit-margin-left="0"
     fit-margin-right="0"
     fit-margin-bottom="0"
     inkscape:zoom="1.9032258"
     inkscape:cx="37.155459"
     inkscape:cy="-46.754412"
     inkscape:window-x="0"
     inkscape:window-y="0"
     inkscape:window-maximized="0"
     inkscape:current-layer="AvatarAssets" />
  <defs
     id="defs3157" />
  <g
     id="sleeveUpperCloseA2"
     overflow="visible"
     style="overflow:visible"
     transform="translate(5.1554587,1.5112174)">
    <g
       id="sleeveUpperCloseA001_0">
      <g
         id="element">
        <g
           id="group1">
          <g
             id="drawingObject">
            <path
               id="path"
               d="m 2.651,3.401 c -0.3,-0.45 -1.95,-2 -4.05,-0.7 q -0.3,0.2 -1.3,1.55 -0.95,1.35 -1.05,1.7 c -0.15,0.45 -1.3,4.35 -1.4,5.15 -0.05,0.8 0.15,2.8 2.05,3.6 1.95,0.8 4.05,0.8 4.7,-0.55 0.7,-1.4 1.2,-3.05 1.4,-3.6 0.2,-0.55 0,-6.65 -0.35,-7.15 z"
               inkscape:connector-curvature="0"
               style="fill:#e7e3b1" />
          </g>
          <g
             id="drawingObject1">
            <path
               id="path1"
               d="m -3.049,6.401 c -0.3,0 -0.65,0.3 -1,0.6 -0.4,1.35 -1,3.5 -1.1,4.1 -0.05,0.8 0.15,2.8 2.05,3.6 0.6,0.25 1.25,0.45 1.85,0.5 -0.8,-0.25 -1.45,-0.65 -1.5,-1.05 -0.1,-0.5 0.7,-0.7 0.7,-0.7 l -0.4,0.15 0.4,-0.15 -0.55,-0.1 c -0.55,-0.15 -0.55,-0.25 -0.45,-0.7 0.1,-0.45 0.45,-0.5 1.65,-0.55 q 1.2,-0.1 4.1,-0.7 l 0.3,-0.85 c 0.1,-0.2 0.1,-1.4 0.05,-2.75 -1.4,-0.4 -5.4,-1.4 -6.1,-1.4 z"
               inkscape:connector-curvature="0"
               style="fill:#ceca9e" />
          </g>
          <g
             id="drawingObject2">
            <path
               id="path2"
               d="m -3.049,6.401 c -0.3,0 -0.65,0.3 -1,0.6 -0.4,1.35 -1,3.5 -1.1,4.1 0,0.4 0,1.1 0.3,1.8 l 0.2,-0.2 c 0.25,-0.15 0.8,0.15 0.8,0.15 0,0 -0.25,-0.4 -0.35,-0.8 -0.15,-0.4 0.05,-1.1 0.3,-1.3 0.2,-0.2 0.5,0.05 0.9,0.25 0.35,0.2 1.25,0.35 2.2,0.45 0.95,0.15 1.7,0.15 2.25,-0.05 0.3,-0.05 1.05,-0.85 1.6,-1.45 0.05,-0.55 0.05,-1.3 0,-2.15 q -4.9,-1.4 -6.1,-1.4 z"
               inkscape:connector-curvature="0"
               style="fill:#aaa582" />
          </g>
          <g
             id="drawingObject3">
            <path
               id="path3"
               d="m -0.499,15.151 c 0.85,0.15 1.45,-0.5 1.45,-0.5 q -0.65,0.25 -1.35,0.2 l -1.05,-0.2 0.15,0.2 -0.15,-0.2 c 0,0 0.05,0.4 0.95,0.5 z"
               inkscape:connector-curvature="0"
               style="fill:#ceca9e" />
          </g>
        </g>
        <g
           id="drawingObject4">
          <path
             id="path4"
             d="m 2.451,-0.499 q -0.8,-0.95 -1.5,-1 c -2.45,-0.25 -3.85,3.4 -4.45,5.15 -0.55,1.75 -1.5,3.65 -1.5,3.65 l 0.4,1.15 -0.4,-1.15 c 0,0 0.1,2 2.75,3.35 2.35,1.2 5.5,1 5.5,1 0,0 -0.05,-0.6 0.2,-2.3 0.25,-1.7 0.25,-4.5 0.05,-7 q -0.1,-1.7 -1.05,-2.85 z"
             inkscape:connector-curvature="0"
             style="fill:#4a6f28" />
        </g>
        <g
           id="drawingObject5">
          <path
             id="path5"
             d="m -2.099,1.951 c 0.1,-0.75 0.9,-2.25 1.6,-3.1 -1.55,0.9 -2.55,3.45 -3,4.8 -0.55,1.75 -1.5,3.65 -1.5,3.65 l 0.4,1.15 -0.4,-1.15 c 0,0 0.1,2 2.75,3.35 2.35,1.2 5.5,1 5.5,1 0,0 -0.05,-0.6 0.2,-2.3 l 0.15,-1.6 q -0.3,0.55 -0.55,0.6 l 0,0.8 c -0.05,0.55 -1.1,1 -2.4,0.9 -1.25,-0.15 -2.3,-0.9 -3.2,-2.05 -0.85,-1.15 -0.15,-2.45 -0.15,-2.45 l -0.25,0.8 0.25,-0.8 0.6,0.85 c 0.55,0.65 1.2,0.95 1.2,0.95 0,0 -0.15,-0.1 -0.95,-1.25 -0.75,-1.1 -0.4,-3.2 -0.25,-4.15 z"
             inkscape:connector-curvature="0"
             style="fill:#3f5f22" />
        </g>
        <g
           id="drawingObject6">
          <path
             id="path6"
             d="m -3.499,3.651 c -0.55,1.75 -1.5,3.65 -1.5,3.65 l 0.1,0.5 c 0.35,0 0.9,0.8 1.55,1.55 0.8,0.95 3.15,1.6 3.15,1.6 q -1.05,-0.35 -2.2,-1.2 c -1.1,-0.85 -1.8,-2.4 -1.7,-3.25 0.1,-0.9 0.75,-2.15 0.75,-2.15 l -0.35,0.75 0.35,-0.75 0.25,0.4 0,-1.05 c -0.05,-0.3 0.05,-0.9 0.15,-1.5 l -0.55,1.45 z"
             inkscape:connector-curvature="0"
             style="fill:#38531e" />
        </g>
        <g
           id="drawingObject7">
          <path
             id="path7"
             d="m 3.251,6.651 c 0.05,-0.35 0.15,-0.8 -0.35,-0.55 q -1.25,0.6 -2.05,0.4 l -1.35,-0.55 0.4,0.65 -0.4,-0.65 c 0,0 0.5,1.3 1.85,1.4 1.3,0.05 1.9,-0.35 1.9,-0.7 z"
             inkscape:connector-curvature="0"
             style="fill:#51792c" />
        </g>
        <g
           id="drawingObject8">
          <path
             id="path8"
             d="m 2.351,8.851 c 0.45,-0.25 0.1,-0.45 -0.15,-0.35 q -0.45,0.2 -0.95,0.05 -0.6,-0.25 -1,-0.4 c -0.75,-0.25 -1.5,-0.55 -1.4,-0.4 0.05,0.1 0.75,1.1 1.75,1.25 1,0.1 1.3,0.1 1.75,-0.15 z"
             inkscape:connector-curvature="0"
             style="fill:#51792c" />
        </g>
      </g>
    </g>
  </g>
</svg>
