<?xml version="1.0" encoding="UTF-8" standalone="no"?>
<!-- Generator: flash2svg, http://dissentgraphics.com/tools/flash2svg -->

<svg
   xmlns:dc="http://purl.org/dc/elements/1.1/"
   xmlns:cc="http://creativecommons.org/ns#"
   xmlns:rdf="http://www.w3.org/1999/02/22-rdf-syntax-ns#"
   xmlns:svg="http://www.w3.org/2000/svg"
   xmlns="http://www.w3.org/2000/svg"
   xmlns:sodipodi="http://sodipodi.sourceforge.net/DTD/sodipodi-0.dtd"
   xmlns:inkscape="http://www.inkscape.org/namespaces/inkscape"
   id="AvatarAssets"
   image-rendering="auto"
   version="1.1"
   x="0px"
   y="0px"
   width="8.4350023"
   height="16.865322"
   viewBox="0 0 8.4350023 16.865322"
   inkscape:version="0.48.4 r9939"
   sodipodi:docname="AvatarAssets_sleeveUpperClose20101122Blouse.svg">
  <metadata
     id="metadata3058">
    <rdf:RDF>
      <cc:Work
         rdf:about="">
        <dc:format>image/svg+xml</dc:format>
        <dc:type
           rdf:resource="http://purl.org/dc/dcmitype/StillImage" />
      </cc:Work>
    </rdf:RDF>
  </metadata>
  <sodipodi:namedview
     pagecolor="#ffffff"
     bordercolor="#666666"
     borderopacity="1"
     objecttolerance="10"
     gridtolerance="10"
     guidetolerance="10"
     inkscape:pageopacity="0"
     inkscape:pageshadow="2"
     inkscape:window-width="640"
     inkscape:window-height="480"
     id="namedview3056"
     showgrid="false"
     fit-margin-top="0"
     fit-margin-left="0"
     fit-margin-right="0"
     fit-margin-bottom="0"
     inkscape:zoom="1.9032258"
     inkscape:cx="37.230079"
     inkscape:cy="-46.834678"
     inkscape:window-x="0"
     inkscape:window-y="0"
     inkscape:window-maximized="0"
     inkscape:current-layer="AvatarAssets" />
  <defs
     id="defs3046" />
  <g
     id="sleeveUpperClose20101122Blouse1"
     overflow="visible"
     style="overflow:visible"
     transform="translate(5.2300792,1.7)">
    <g
       id="sleeveUpperClose20101122Blouse_0">
      <g
         id="element">
        <path
           id="path"
           d="m 0.15,-0.15 c 0.1,-0.4 0.2,-0.7 0.55,-1 l 0.4,-0.2 c -0.25,-0.2 -0.5,-0.3 -0.75,-0.35 -0.85,0.45 -1.1,1.65 -1.4,2.45 l -0.6,1.8 c -0.3,1.05 -0.6,2.1 -0.65,3.2 -0.1,1.25 0.1,2.4 1.25,3.1 0.35,0.25 0.7,0.35 1,0.6 0.25,0.25 0.3,0.65 0.4,1 L 0.7,10.8 0.9,11.1 1.5,11.35 2,11.3 2.35,11.15 2.4,11 C 2.55,10.55 2.65,10.1 2.8,9.65 L 2.9,9.25 2.2,9.65 C 1.8,9.8 1.4,9.85 1,9.8 0.45,9.55 -0.2,9.35 -0.2,8.8 c 0.3,0 0.6,0.1 0.9,0.05 -0.7,-0.7 -1,-1.25 -1,-2.2 -0.05,-1.15 0.1,-2.3 0.1,-3.4 0,-1.2 0.1,-2.25 0.35,-3.4 z"
           inkscape:connector-curvature="0"
           style="fill:#787878" />
        <path
           id="path1"
           d="m 0.7,-1.15 c -0.35,0.3 -0.45,0.6 -0.55,1 -0.25,1.15 -0.35,2.2 -0.35,3.4 0,1.1 -0.15,2.25 -0.1,3.4 0,0.95 0.3,1.5 1,2.2 C 0.4,8.9 0.1,8.8 -0.2,8.8 c 0,0.55 0.65,0.75 1.2,1 0.4,0.05 0.8,0 1.2,-0.15 L 2.9,9.25 C 2.95,8.85 3,8.55 3.05,8.3 3.3,6.1 3.35,1.55 2.4,0.15 1.95,-0.55 1.55,-1 1.1,-1.35 l -0.4,0.2 z M 0.35,10.45 C 0.4,10.6 0.4,10.7 0.5,10.8 L 0.9,11.1 0.7,10.8 0.35,10.45 z m 1.1,2.85 0.5,-1.1 C 1.35,13.7 0.85,14.6 0.4,14.95 0.7,14.7 1.1,14.1 1.45,13.3 z"
           inkscape:connector-curvature="0"
           style="fill:#858585" />
        <path
           id="path2"
           d="m 0.35,-1.7 c 0,0 -0.05,0 -0.1,0 q -0.2,0 -0.4,0.1 l -0.05,0 0,0.05 c -0.65,0.6 -1.05,1.5 -1.5,2.25 -0.4,0.65 -0.65,1.5 -0.85,2.2 -0.4,1.5 -0.8,3 -0.7,4.5 0,0.65 0.1,1.15 0.7,1.5 l 1.45,0.85 c 0.35,0.25 1.05,0.4 1.45,0.7 C 0.25,10.1 0.2,9.7 -0.05,9.45 -0.35,9.2 -0.7,9.1 -1.05,8.85 -2.2,8.15 -2.4,7 -2.3,5.75 -2.25,4.65 -1.95,3.6 -1.65,2.55 l 0.6,-1.8 c 0.3,-0.8 0.55,-2 1.4,-2.45 z m 0.55,12.8 0.2,0.35 0.15,0.6 c 0.15,0.15 0.45,0.05 0.9,-0.2 l 0,-0.15 0,-0.05 L 2.3,11.3 2.35,11.15 2,11.3 1.5,11.35 0.9,11.1 z"
           inkscape:connector-curvature="0"
           style="fill:#5e5e5e" />
        <path
           id="path3"
           d="m -0.2,-1.55 0,-0.05 c 0,0 0,0 -0.15,0.1 -0.1,0.05 -0.2,0.1 -0.3,0.15 l -0.1,0.05 c -0.25,0.2 -0.7,0.6 -1,1.25 -0.6,1.2 -2.35,5.35 -2.85,7.45 -0.5,2.15 -1.1,4.45 -0.05,5.9 1.05,1.4 4.1,2.3 5.05,1.65 C 0.7,14.7 1.1,14.1 1.45,13.3 l 0.5,-1.1 0.2,-0.35 C 1.7,12.1 1.4,12.2 1.25,12.05 L 1.1,11.45 0.9,11.1 0.5,10.8 C 0.4,10.7 0.4,10.6 0.35,10.45 -0.05,10.15 -0.75,10 -1.1,9.75 L -2.55,8.9 c -0.6,-0.35 -0.7,-0.85 -0.7,-1.5 -0.1,-1.5 0.3,-3 0.7,-4.5 0.2,-0.7 0.45,-1.55 0.85,-2.2 0.45,-0.75 0.85,-1.65 1.5,-2.25 z"
           inkscape:connector-curvature="0"
           style="fill:#454545" />
        <path
           id="path8"
           d="m 2.15,11.65 0,0.05 c 0,-0.05 0.05,-0.15 0.15,-0.4 l -0.15,0.35"
           inkscape:connector-curvature="0"
           style="fill:#858585" />
      </g>
    </g>
  </g>
</svg>
