<?xml version="1.0" encoding="UTF-8" standalone="no"?>
<!-- Generator: flash2svg, http://dissentgraphics.com/tools/flash2svg -->

<svg
   xmlns:dc="http://purl.org/dc/elements/1.1/"
   xmlns:cc="http://creativecommons.org/ns#"
   xmlns:rdf="http://www.w3.org/1999/02/22-rdf-syntax-ns#"
   xmlns:svg="http://www.w3.org/2000/svg"
   xmlns="http://www.w3.org/2000/svg"
   xmlns:sodipodi="http://sodipodi.sourceforge.net/DTD/sodipodi-0.dtd"
   xmlns:inkscape="http://www.inkscape.org/namespaces/inkscape"
   id="AvatarAssets"
   image-rendering="auto"
   version="1.1"
   x="0px"
   y="0px"
   width="13.375"
   height="13.249247"
   viewBox="0 0 13.375 13.249247"
   inkscape:version="0.48.4 r9939"
   sodipodi:docname="AvatarAssets_sleeveLowerClose20101122Blouse.svg">
  <metadata
     id="metadata34">
    <rdf:RDF>
      <cc:Work
         rdf:about="">
        <dc:format>image/svg+xml</dc:format>
        <dc:type
           rdf:resource="http://purl.org/dc/dcmitype/StillImage" />
      </cc:Work>
    </rdf:RDF>
  </metadata>
  <sodipodi:namedview
     pagecolor="#ffffff"
     bordercolor="#666666"
     borderopacity="1"
     objecttolerance="10"
     gridtolerance="10"
     guidetolerance="10"
     inkscape:pageopacity="0"
     inkscape:pageshadow="2"
     inkscape:window-width="640"
     inkscape:window-height="480"
     id="namedview32"
     showgrid="false"
     fit-margin-top="0"
     fit-margin-left="0"
     fit-margin-right="0"
     fit-margin-bottom="0"
     inkscape:zoom="1.9032258"
     inkscape:cx="39.45"
     inkscape:cy="-50.15"
     inkscape:window-x="0"
     inkscape:window-y="0"
     inkscape:window-maximized="0"
     inkscape:current-layer="AvatarAssets" />
  <defs
     id="defs3">
    <linearGradient
       gradientUnits="userSpaceOnUse"
       color-interpolation="sRGB"
       x1="-4.4239998"
       y1="8.1000004"
       x2="3.026"
       y2="8.1000004"
       id="linearGradient">
      <stop
         stop-color="#000"
         stop-opacity="0.2980392156862745"
         offset="0"
         id="stop6" />
      <stop
         stop-color="#000"
         stop-opacity="0.2980392156862745"
         offset="0.85882"
         id="stop8" />
      <stop
         stop-color="#000"
         stop-opacity="0.2980392156862745"
         offset="1"
         id="stop10" />
    </linearGradient>
    <linearGradient
       gradientUnits="userSpaceOnUse"
       color-interpolation="sRGB"
       x1="-4.4239998"
       y1="8.1000004"
       x2="3.026"
       y2="8.1000004"
       id="linearGradient1">
      <stop
         stop-color="#000"
         stop-opacity="0.2980392156862745"
         offset="0"
         id="stop13" />
      <stop
         stop-color="#000"
         stop-opacity="0.2980392156862745"
         offset="0.85882"
         id="stop15" />
      <stop
         stop-color="#000"
         stop-opacity="0.2980392156862745"
         offset="1"
         id="stop17" />
    </linearGradient>
  </defs>
  <g
     id="sleeveLowerClose20101122Blouse1"
     overflow="visible"
     style="overflow:visible"
     transform="translate(7.45,1.3992464)">
    <g
       id="sleeveLowerClose20101122Blouse_0">
      <g
         id="element">
        <path
           id="path"
           d="M 3.25,-0.5 C 3,-0.7 2.75,-0.85 2.5,-1 2.4,-1.05 2.25,-1.05 2.15,-1.1 2,-1.15 1.9,-1.2 1.75,-1.25 l -0.05,0 c -0.45,0.05 -1,0.3 -1.7,0.75 -0.9,0.65 -1.5,1.4 -1.75,2.4 -0.1,0.3 -0.15,0.55 -0.15,0.85 -0.05,0.3 0.05,0.65 0.1,0.95 0,0.25 -0.1,0.35 -0.15,0.55 l 0,1.05 0.1,0.65 0.2,0.55 C -0.9,7.45 0.3,8 1.95,8.15 l 0.05,0 c 0.4,0.05 0.55,0 0.85,-0.1 0.3,-0.1 0.4,0.1 0.55,0.4 l 0.05,0.2 C 3.6,8.7 3.7,8.75 3.8,8.85 4.1,9 4.35,9.15 4.45,9.2 l 0,-0.05 c 0.1,0.05 0.2,0.15 0.2,0.15 0.05,0 0.05,0 0.1,0.05 0.3,0.15 0.5,0.3 0.65,0.5 C 5.35,9.65 5.3,9.45 5.25,9.25 5.1,8.8 4.8,8.65 4.55,8.75 4.45,8.8 4.45,9.05 4.2,8.9 4.1,8.8 3.95,8.3 3.85,8.15 3.7,7.75 3.3,6.9 2.85,7.55 l -0.2,0.3 0.2,-0.3 C 2.65,7.85 2.7,7.95 2.15,7.9 1.65,7.9 1.1,7.55 0.9,7.1 0.75,6.75 1,6.45 0.7,6.25 0.4,6.1 0.05,6.2 -0.2,5.95 -0.35,5.85 -0.35,5.8 -0.2,5.7 -0.1,5.6 0.1,5.55 0.35,5.5 0,5.45 -0.4,5.4 -0.7,5.25 l -0.05,0 C -0.4,4.95 0.85,5.1 1.35,5.2 l 0.5,0.15 0.3,0 L 2.55,5.3 2.25,5.15 C 2,5 1.8,4.85 1.5,4.75 1.75,4.7 2.25,4.8 2.45,4.8 2.45,4.4 1.55,4.35 1.15,4.3 L 0.5,4.15 C 0.3,3.95 0.45,3.7 0.3,3.55 0.5,3.45 0.8,3.35 0.8,3.2 L -0.15,2.75 C -0.35,2.65 -0.6,2.55 -0.65,2.4 -0.75,2.15 -0.35,2 -0.2,1.8 L 0,0.7 C 0.05,0.35 0.3,0.2 0.6,0 1.4,-0.5 2.25,-0.55 3.25,-0.5 z m -5.9,6.65 C -2.8,5.95 -2.9,5.7 -3.2,5.65 c -0.35,0 -0.7,0.6 -0.8,0.9 -0.15,0.4 -0.1,0.85 -0.2,1.3 l -0.05,0.3 C -4.1,7.9 -4,7.7 -3.9,7.65 -3.85,7.6 -3.7,7.6 -3.65,7.6 -3.6,7.45 -3.6,7.35 -3.55,7.2 -3.5,6.95 -3.3,6.4 -2.9,6.3 c 0.2,0 0.45,0.25 0.55,0.4 l 0.25,0.4 c 0.1,0.05 0.15,0.05 0.2,0.1 l 0,-0.05 -0.75,-1 z m -4,2.85 -0.1,0.25 c -0.1,0.2 -0.1,0.4 -0.1,0.5 0.05,-0.1 0.15,-0.2 0.25,-0.25 l 0.05,-0.35 c 0.15,-0.3 0.45,-0.55 0.85,-0.5 0.2,0.05 0.35,0.15 0.4,0.3 l 0.1,0 C -5.15,8.9 -5.15,8.85 -5.1,8.85 -5.15,8.75 -5.15,8.7 -5.15,8.65 -5.2,8.6 -5.2,8.55 -5.25,8.55 -5.3,8.5 -5.3,8.5 -5.35,8.45 l -0.05,0 C -5.75,8.3 -6,8.4 -6.2,8.55 L -6.25,8.65 -6.65,9 z M -1.75,7.4 -1.8,7.35 -2,7.2 -1.85,7.45 C -1.8,7.5 -1.75,7.5 -1.7,7.5 L -1.75,7.4 z"
           inkscape:connector-curvature="0"
           style="fill:#787878" />
        <path
           id="path1"
           d="M 2.5,-1 C 2.75,-0.85 3,-0.7 3.25,-0.5 2.25,-0.55 1.4,-0.5 0.6,0 0.3,0.2 0.05,0.35 0,0.7 l -0.2,1.1 c -0.15,0.2 -0.55,0.35 -0.45,0.6 0.05,0.15 0.3,0.25 0.5,0.35 L 0.8,3.2 c 0,0.15 -0.3,0.25 -0.5,0.35 0.15,0.15 0,0.4 0.2,0.6 L 1.15,4.3 c 0.4,0.05 1.3,0.1 1.3,0.5 C 2.25,4.8 1.75,4.7 1.5,4.75 1.8,4.85 2,5 2.25,5.15 l 0.3,0.15 -0.4,0.05 -0.3,0 C 2.2,5.5 2.6,5.7 2.9,5.95 l 0.65,0.5 C 2.85,6.05 2.5,5.85 1.7,5.7 1.55,5.6 1.3,5.55 1.1,5.55 L 0.8,5.55 0.35,5.5 C 0.1,5.55 -0.1,5.6 -0.2,5.7 -0.35,5.8 -0.35,5.85 -0.2,5.95 0.05,6.2 0.4,6.1 0.7,6.25 1,6.45 0.75,6.75 0.9,7.1 1.1,7.55 1.65,7.9 2.15,7.9 2.7,7.95 2.65,7.85 2.85,7.55 l -0.2,0.3 0.2,-0.3 C 3.3,6.9 3.7,7.75 3.85,8.15 3.95,8.3 4.1,8.8 4.2,8.9 4.45,9.05 4.45,8.8 4.55,8.75 4.8,8.65 5.1,8.8 5.25,9.25 c 0.05,0.2 0.1,0.4 0.15,0.6 0.05,0.05 0.05,0.1 0.1,0.15 0.15,0.35 0.25,0.75 0.35,1.2 0.1,-0.55 0.1,-1 0,-1.4 C 5.55,9 4.25,7.05 4.1,6.55 3.95,6.1 4,5.1 4.2,4.05 4.4,2.65 4.25,1.65 4.15,1.1 3.95,0.1 3.4,-0.6 2.5,-1 z m -4.05,0.15 C -0.7,-1.3 0.2,-1.5 1.2,-1.35 0.5,-1.4 -0.1,-1.35 -0.7,-1.2 -1,-1.15 -1.3,-1 -1.55,-0.85 z m -3.95,9.8 0.2,0 C -5.35,8.8 -5.5,8.7 -5.7,8.65 -6.1,8.6 -6.4,8.85 -6.55,9.15 L -6.6,9.5 C -6.3,9.2 -5.95,9 -5.5,8.95 z m -1.85,1.85 -0.05,0 c -0.05,-0.05 -0.05,-0.1 0,-0.15 l -0.05,0.05 0,0.15 c 0,0.1 0.05,0.2 0,0.1 0.05,-0.05 0.05,-0.1 0.1,-0.15 z M -2,7.2 -2.4,6.9 c 0.1,0.05 0.2,0.15 0.3,0.2 L -2.35,6.7 C -2.45,6.55 -2.7,6.3 -2.9,6.3 -3.3,6.4 -3.5,6.95 -3.55,7.2 -3.6,7.35 -3.6,7.45 -3.65,7.6 -3.35,7.45 -3,7.35 -2.55,7.4 L -2.6,7.3 c 0.15,0 0.35,0.05 0.75,0.15 L -2,7.2 z m -2.8,1.6 0.05,0 c 0,-0.15 0,-0.25 0,-0.3 0,0.05 0,0.15 -0.05,0.3 z"
           inkscape:connector-curvature="0"
           style="fill:#858585" />
        <path
           id="path2"
           d="m 1.7,-1.25 0.05,0 C 1.6,-1.3 1.35,-1.3 1.2,-1.35 c -0.7,-0.05 -1.3,0 -1.9,0.15 l -0.2,0.1 -0.95,0.85 c -0.85,0.75 -1.35,1.9 -1.5,2.95 -0.15,1.05 -0.5,2.05 -0.8,3 L -4.6,6.5 c -0.2,0.35 -0.2,0.8 -0.2,1.15 0,0.05 0,0.05 0,0.1 l 0.05,0.45 0,0.3 c 0,0.05 0,0.15 0,0.3 l -0.05,0 c 0,-0.05 -0.05,0 -0.1,0.05 L -5,9.2 c 0.05,0 0.1,-0.05 0.15,-0.15 l 0.05,0 0.45,-0.35 0.05,-0.1 c -0.05,0.05 0,0 0.05,-0.05 C -3.35,7.8 -3,7.65 -1.6,7.9 l 0.05,0 0.1,0 -1.1,-0.45 0,-0.05 C -3,7.35 -3.35,7.45 -3.65,7.6 -3.7,7.6 -3.85,7.6 -3.9,7.65 -4,7.7 -4.1,7.9 -4.25,8.15 l 0.05,-0.3 c 0.1,-0.45 0.05,-0.9 0.2,-1.3 0.1,-0.3 0.45,-0.9 0.8,-0.9 0.3,0.05 0.4,0.3 0.55,0.5 l 0.75,1 -0.35,-0.7 c 0.3,0.4 0.95,0.8 1.3,1 0.05,0.05 0.05,0.05 0.1,0.05 0.3,0.25 0.7,0.4 1.05,0.5 L 0.1,8 1.4,8.35 c 0.25,0.05 0.55,0 0.7,0.1 l -0.35,0 C 1.95,8.5 2.15,8.5 2.4,8.55 2.6,8.5 2.85,8.4 3.05,8.5 3.3,8.6 3.3,8.65 3.3,8.75 l -0.05,0 C 3.3,8.8 3.4,8.85 3.5,8.9 l 0.15,0.15 0.2,0.15 c 0.05,0.1 0.1,0.15 0.25,0.2 0.15,0.15 0.35,0.25 0.6,0.4 0.05,0.05 0.1,0.05 0.15,0.1 0.25,0.15 0.4,0.3 0.5,0.45 0.05,0.05 0.1,0.15 0.15,0.25 l 0,0.1 0.05,0.1 c 0.05,0.15 0.1,0.25 0.15,0.4 0,0.1 0,0.2 0.05,0.35 l 0.1,-0.3 0,-0.05 C 5.75,10.75 5.65,10.35 5.5,10 5.45,9.95 5.45,9.9 5.4,9.85 5.25,9.65 5.05,9.5 4.75,9.35 4.7,9.3 4.7,9.3 4.65,9.3 c 0,0 -0.1,-0.1 -0.2,-0.15 l 0,0.05 C 4.35,9.15 4.1,9 3.8,8.85 3.7,8.75 3.6,8.7 3.45,8.65 L 3.4,8.45 C 3.25,8.15 3.15,7.95 2.85,8.05 2.55,8.15 2.4,8.2 2,8.15 l -0.05,0 C 0.3,8 -0.9,7.45 -1.65,6.5 l -0.2,-0.55 -0.1,-0.65 0,-1.05 C -1.9,4.05 -1.8,3.95 -1.8,3.7 -1.85,3.4 -1.95,3.05 -1.9,2.75 -1.9,2.45 -1.85,2.2 -1.75,1.9 -1.5,0.9 -0.9,0.15 0,-0.5 0.7,-0.95 1.25,-1.2 1.7,-1.25 z m -2.45,6.5 0.05,0 C -0.4,5.4 0,5.45 0.35,5.5 l 0.45,0.05 0.3,0 c 0.2,0 0.45,0.05 0.6,0.15 0.8,0.15 1.15,0.35 1.85,0.75 L 2.9,5.95 C 2.6,5.7 2.2,5.5 1.85,5.35 L 1.35,5.2 C 0.85,5.1 -0.4,4.95 -0.75,5.25 z m -6,4 L -6.65,9 C -6.85,9.25 -7,9.45 -7.05,9.7 l -0.2,0.5 0,0.05 0.05,-0.05 C -7.15,10.15 -7.1,10.05 -7,9.95 L -6.25,9.4 c 0.45,-0.15 0.8,-0.25 1,-0.4 l 0.05,-0.05 -0.1,0 -0.2,0 C -5.95,9 -6.3,9.2 -6.6,9.5 c -0.1,0.05 -0.2,0.15 -0.25,0.25 0,-0.1 0,-0.3 0.1,-0.5 z m 1.35,-0.8 0.05,0 c 0.05,0.05 0.05,0.05 0.1,0.1 0.05,0 0.05,0.05 0.1,0.1 0,0.05 0,0.1 0.05,0.2 0,-0.1 0.05,-0.15 0.05,-0.3 0,-0.15 -0.15,-0.4 -0.65,-0.45 l -0.2,0 -0.05,0.05 C -6,8.2 -6,8.3 -6.05,8.35 L -6.2,8.55 C -6,8.4 -5.75,8.3 -5.4,8.45 z m -1.65,1.85 -0.05,0.15 c 0.1,-0.2 0.2,-0.35 0.25,-0.4 -0.1,0.05 -0.15,0.15 -0.2,0.25 z"
           inkscape:connector-curvature="0"
           style="fill:#5e5e5e" />
        <path
           id="path3"
           d="m -0.9,-1.1 0.2,-0.1 C -1,-1.15 -1.3,-1 -1.55,-0.85 L -1.575,-0.875 -1.95,-0.65 c -0.85,0.55 -1.6,2.55 -2,3.75 -0.35,1.25 -0.55,2.25 -0.6,2.75 l 0,0.05 -0.75,1.45 -0.1,0.15 -0.25,0.275 0,0.025 C -5.7,7.9 -5.8,8 -5.9,8.1 l 0.2,0 c 0.5,0.05 0.65,0.3 0.65,0.45 0,0.15 -0.05,0.2 -0.05,0.3 -0.05,0 -0.05,0.05 -0.1,0.1 L -5.25,9 c -0.2,0.15 -0.55,0.25 -1,0.4 L -7,9.95 c -0.1,0.1 -0.15,0.2 -0.2,0.25 l -0.05,0.05 c -0.15,0.15 -0.2,0.25 -0.15,0.4 -0.05,0.05 -0.05,0.1 0,0.15 l 0.05,0 c -0.05,0.05 -0.05,0.1 -0.1,0.15 0.5,0.5 1.25,0.6 1.5,0.65 -0.25,-0.05 -1.25,-0.2 -1.45,-0.55 0.5,0.05 2.25,0.45 1.7,-0.3 -0.1,-0.15 -0.2,-0.1 -0.3,-0.2 L -6.25,10.4 c -0.25,-0.1 -0.5,-0.1 -0.85,0.05 l 0.05,-0.15 c 0.05,-0.1 0.1,-0.2 0.2,-0.25 0,0 0.15,-0.15 0.15,-0.15 C -6.6,9.8 -6.5,9.7 -6.35,9.65 -6.2,9.55 -6.05,9.5 -5.9,9.45 -5.65,9.4 -5.35,9.35 -5.2,9.3 -5.1,9.25 -5.05,9.25 -5,9.2 L -4.9,8.85 C -4.85,8.8 -4.8,8.75 -4.8,8.8 -4.75,8.65 -4.75,8.55 -4.75,8.5 l 0,-0.3 -0.05,-0.45 c 0,-0.05 0,-0.05 0,-0.1 0,-0.35 0,-0.8 0.2,-1.15 l 0.45,-0.8 c 0.3,-0.95 0.65,-1.95 0.8,-3 0.15,-1.05 0.65,-2.2 1.5,-2.95 L -0.9,-1.1 z m 0.05,8.6 c -0.05,0 -0.05,0 -0.1,-0.05 -0.35,-0.2 -1,-0.6 -1.3,-1 l 0.35,0.7 0,0.05 C -1.95,7.15 -2,7.15 -2.1,7.1 -2.2,7.05 -2.3,6.95 -2.4,6.9 l 0.4,0.3 0.2,0.15 0.05,0.05 0.05,0.1 c -0.05,0 -0.1,0 -0.15,-0.05 C -2.25,7.35 -2.45,7.3 -2.6,7.3 l 0.05,0.1 0,0.05 1.1,0.45 0.1,0.05 1.75,0.3 c 0.05,0 0.2,0 0.25,0.05 0.05,0 0.05,0 0.1,0 0.1,0 0.2,0 0.35,0.05 l 0.55,0.1 0.1,0 0.35,0 C 1.95,8.35 1.65,8.4 1.4,8.35 L 0.1,8 0.2,8 C -0.15,7.9 -0.55,7.75 -0.85,7.5 z m 4.1,1.25 0.05,0 C 3.3,8.65 3.3,8.6 3.05,8.5 2.85,8.4 2.6,8.5 2.4,8.55 l 0.55,0.15 0.3,0.05 z m 0.1,2.5 -0.4,0 1.05,0.1 c 0.45,0 0.8,0.25 1.2,0.3 0,0 0,0 0.1,0 0.05,-0.3 -0.25,-0.45 -0.65,-0.6 -0.25,-0.05 -0.8,-0.25 -1,-0.2 -0.2,0.05 -0.25,0.2 -0.3,0.4 z"
           inkscape:connector-curvature="0"
           style="fill:#454545" />
        <path
           id="path17"
           d="M -5.95,8.15 -5.9,8.1 C -5.8,8 -5.7,7.9 -5.65,7.8 -5.75,7.9 -5.85,8 -5.95,8.15"
           inkscape:connector-curvature="0"
           style="fill:#858585" />
        <path
           id="path20"
           d="M -5.2,9.3 C -5.35,9.35 -5.65,9.4 -5.9,9.45 -6.05,9.5 -6.2,9.55 -6.35,9.65 -6.5,9.7 -6.6,9.8 -6.7,9.9 c 0,0 -0.15,0.15 -0.15,0.15 -0.05,0.05 -0.15,0.2 -0.25,0.4 0.35,-0.15 0.6,-0.15 0.85,-0.05 L -6,10.55 c 0.1,0.1 0.2,0.05 0.3,0.2 0.55,0.75 -1.2,0.35 -1.7,0.3 0.2,0.35 1.2,0.5 1.45,0.55 0.5,0.05 0.9,0.25 1.45,0.25 l -0.1,-0.9 c -0.05,-0.35 0,-0.7 0.05,-1.05 0.05,-0.2 0.1,-0.4 0.1,-0.8 C -4.4,9.15 -4.4,9 -4.4,8.8 l 0.05,-0.1 -0.45,0.35 -0.05,0 0,0.05 L -5,9.2 C -5.05,9.25 -5.1,9.25 -5.2,9.3 z M 2.95,8.7 3,8.75 3.05,8.95 c 0.05,0.7 -0.4,1.5 -0.1,2.15 l 0,0.15 0.4,0 c 0.05,-0.2 0.1,-0.35 0.3,-0.4 0.2,-0.05 0.75,0.15 1,0.2 0.4,0.15 0.7,0.3 0.65,0.6 0.25,0 0.35,-0.15 0.4,-0.45 C 5.65,11.05 5.6,10.95 5.55,10.8 L 5.5,10.7 5.5,10.6 C 5.45,10.55 5.4,10.45 5.35,10.4 l 0,-0.05 C 5.25,10.2 5.1,10.05 4.85,9.9 4.8,9.85 4.75,9.85 4.7,9.8 4.45,9.65 4.25,9.55 4.1,9.4 3.95,9.35 3.9,9.3 3.85,9.2 L 3.65,9.05 3.5,8.9 C 3.4,8.85 3.3,8.8 3.25,8.75 L 2.95,8.7 z"
           inkscape:connector-curvature="0"
           style="fill:#1d1a21" />
        <path
           id="path31"
           d="m -1.45,7.9 -0.1,0 c 0.05,0 0.15,0 0.2,0.05 L -1.45,7.9"
           inkscape:connector-curvature="0"
           style="fill:#858585" />
        <path
           id="path32"
           d="m -1.55,7.9 -0.05,0 C -3,7.65 -3.35,7.8 -4.25,8.55 -4.3,8.6 -4.35,8.65 -4.3,8.6 L -4.35,8.7 -4.4,8.8 c 0,0.2 0,0.35 -0.05,0.3 l 0,0.1 0.5,-0.2 -0.5,0.2 c 0,0 0.85,-0.4 1.8,-0.55 1,-0.1 2.45,0.15 3.35,0.3 0.9,0.15 1.85,0.25 2.05,0.4 L 2.95,9.55 3,8.75 2.95,8.7 2.4,8.55 C 2.15,8.5 1.95,8.5 1.75,8.45 l -0.1,0 L 1.1,8.35 C 0.95,8.3 0.85,8.3 0.75,8.3 0.7,8.3 0.7,8.3 0.65,8.3 0.6,8.25 0.45,8.25 0.4,8.25 L -1.35,7.95 C -1.4,7.9 -1.5,7.9 -1.55,7.9 z"
           inkscape:connector-curvature="0"
           style="fill:url(#linearGradient1)" />
        <path
           id="path33"
           d="M -4.85,9.05 C -4.9,9.15 -4.95,9.2 -5,9.2 l 0.15,-0.1 0,-0.05"
           inkscape:connector-curvature="0"
           style="fill:#454545" />
        <path
           id="path42"
           d="M 5.5,10.6 C 5.45,10.5 5.4,10.4 5.35,10.35 l 0,0.05 c 0.05,0.05 0.1,0.15 0.15,0.2"
           inkscape:connector-curvature="0"
           style="fill:#858585" />
      </g>
    </g>
  </g>
</svg>
