<?xml version="1.0" encoding="UTF-8" standalone="no"?>
<!-- Generator: flash2svg, http://dissentgraphics.com/tools/flash2svg -->

<svg
   xmlns:dc="http://purl.org/dc/elements/1.1/"
   xmlns:cc="http://creativecommons.org/ns#"
   xmlns:rdf="http://www.w3.org/1999/02/22-rdf-syntax-ns#"
   xmlns:svg="http://www.w3.org/2000/svg"
   xmlns="http://www.w3.org/2000/svg"
   xmlns:sodipodi="http://sodipodi.sourceforge.net/DTD/sodipodi-0.dtd"
   xmlns:inkscape="http://www.inkscape.org/namespaces/inkscape"
   id="AvatarAssets"
   image-rendering="auto"
   version="1.1"
   x="0px"
   y="0px"
   width="8.6686125"
   height="17.187771"
   viewBox="0 0 8.6686125 17.187771"
   inkscape:version="0.48.4 r9939"
   sodipodi:docname="AvatarAssets_sleeveUpperClose20101103Black2.svg">
  <metadata
     id="metadata3002">
    <rdf:RDF>
      <cc:Work
         rdf:about="">
        <dc:format>image/svg+xml</dc:format>
        <dc:type
           rdf:resource="http://purl.org/dc/dcmitype/StillImage" />
      </cc:Work>
    </rdf:RDF>
  </metadata>
  <sodipodi:namedview
     pagecolor="#ffffff"
     bordercolor="#666666"
     borderopacity="1"
     objecttolerance="10"
     gridtolerance="10"
     guidetolerance="10"
     inkscape:pageopacity="0"
     inkscape:pageshadow="2"
     inkscape:window-width="640"
     inkscape:window-height="480"
     id="namedview3000"
     showgrid="false"
     fit-margin-top="0"
     fit-margin-left="0"
     fit-margin-right="0"
     fit-margin-bottom="0"
     inkscape:zoom="1.9032258"
     inkscape:cx="37.221429"
     inkscape:cy="-46.462228"
     inkscape:window-x="0"
     inkscape:window-y="0"
     inkscape:window-maximized="0"
     inkscape:current-layer="AvatarAssets" />
  <defs
     id="defs2991" />
  <g
     id="sleeveUpperClose20101103Black3"
     overflow="visible"
     style="overflow:visible"
     transform="translate(5.2214286,1.65)">
    <g
       id="sleeveUpperClose20101103Black2_0">
      <g
         id="element">
        <path
           id="path"
           d="M 1.2,-1.4 C 0.85,-1.15 0.55,-0.65 0.45,-0.35 0.1,0.5 0.55,1.55 0.3,2.4 0.15,2.85 -0.1,3.1 -0.2,3.55 c -0.1,0.4 -0.1,0.9 -0.05,1.35 0.1,0.5 0.35,0.9 0.4,1.45 L 0.1,7.2 C 0.15,7.85 0.55,8.45 0.6,9.05 0.3,8.8 0.05,8.6 -0.3,8.6 c -0.05,0.5 0.35,0.8 0.4,1.25 -0.95,-0.4 -0.5,0.95 -0.25,1.4 0.3,0.55 0.8,0.85 1.35,1.05 -0.45,0.2 -1,-0.05 -1.5,-0.1 -0.1,0.5 0.4,0.95 0.85,1 0.55,0.05 1.1,-0.2 1.75,-0.7 l 0,-0.05 C 2.65,11.55 2.95,10.5 3.15,9.25 3.9,4.85 3.15,-0.55 1.8,-1.15 1.6,-1.25 1.4,-1.35 1.2,-1.4 z m -1.45,-0.2 c -0.25,0.1 -0.45,0.3 -0.7,0.6 0.35,-0.4 0.65,-0.6 1,-0.65 -0.05,0 -0.2,0 -0.3,0.05 z"
           inkscape:connector-curvature="0"
           style="fill:#2a2b2b" />
        <path
           id="path1"
           d="m 0.45,-0.35 c 0.1,-0.3 0.4,-0.8 0.75,-1.05 -0.45,-0.15 -0.8,-0.25 -1.05,-0.25 -0.05,0 -0.05,0 -0.1,0 -0.4,0.4 -0.85,0.75 -1.2,1.25 -0.6,0.9 -0.7,1.9 -0.7,3 -0.05,1.5 -0.55,2.75 -0.7,4.25 L -2.6,8.7 c -0.05,0.4 0,0.4 -0.2,0.65 -0.35,0.5 -0.45,0.1 -0.55,0.75 -0.1,0.6 0.3,1.85 0.75,2.35 0.4,0.4 1.1,0.55 1.65,0.6 -0.4,0.35 -1.15,0.3 -0.45,0.8 0.55,0.35 1.55,0.25 3.1,-0.3 0,-0.05 0,-0.05 0.05,-0.05 l 0.2,-0.4 C 2,12.95 2.1,12.85 2.15,12.75 L 2.3,12.5 C 1.65,13 1.1,13.25 0.55,13.2 0.1,13.15 -0.4,12.7 -0.3,12.2 0.2,12.25 0.75,12.5 1.2,12.3 0.65,12.1 0.15,11.8 -0.15,11.25 -0.4,10.8 -0.85,9.45 0.1,9.85 0.05,9.4 -0.35,9.1 -0.3,8.6 0.05,8.6 0.3,8.8 0.6,9.05 0.55,8.45 0.15,7.85 0.1,7.2 L 0.15,6.35 C 0.1,5.8 -0.15,5.4 -0.25,4.9 -0.3,4.45 -0.3,3.95 -0.2,3.55 -0.1,3.1 0.15,2.85 0.3,2.4 0.55,1.55 0.1,0.5 0.45,-0.35 z"
           inkscape:connector-curvature="0"
           style="fill:#202121" />
        <path
           id="path2"
           d="m 1.15,14.3 -0.05,0 C 0.25,14.35 -0.3,14.4 -0.65,14.35 -1,14.3 -2.7,14.5 -2.2,13.7 -4.45,13.1 -3.8,9.4 -3.55,7.8 -3.4,6.9 -3.4,6.05 -3.3,5.1 -3.1,3.8 -2.65,2.5 -2.2,1.05 -2.45,1.5 -2.65,2.05 -2.85,2.6 q -0.85,2.25 -1.6,5 -0.9,3.25 -0.75,4.25 c 0.25,1.85 2,4 4,3.65 0.85,-0.1 1.65,-0.5 2.35,-1.2 z"
           inkscape:connector-curvature="0"
           style="fill:#0f0f0f" />
        <path
           id="path3"
           d="m 1.1,14.3 0.05,0 0.6,-0.8 c -0.05,0 -0.05,0 -0.05,0.05 -1.55,0.55 -2.55,0.65 -3.1,0.3 -0.7,-0.5 0.05,-0.45 0.45,-0.8 C -1.5,13 -2.2,12.85 -2.6,12.45 -3.05,11.95 -3.45,10.7 -3.35,10.1 -3.25,9.45 -3.15,9.85 -2.8,9.35 -2.6,9.1 -2.65,9.1 -2.6,8.7 l 0.05,-1.85 c 0.15,-1.5 0.65,-2.75 0.7,-4.25 0,-1.1 0.1,-2.1 0.7,-3 0.35,-0.5 0.8,-0.85 1.2,-1.25 -0.35,0.05 -0.65,0.25 -1,0.65 l -0.25,0.3 c -0.3,0.35 -0.6,0.9 -0.9,1.55 -0.05,0 -0.05,0 -0.05,0.05 0,0.1 -0.05,0.2 -0.05,0.15 -0.45,1.45 -0.9,2.75 -1.1,4.05 -0.1,0.95 -0.1,1.8 -0.25,2.7 -0.25,1.6 -0.9,5.3 1.35,5.9 -0.5,0.8 1.2,0.6 1.55,0.65 0.35,0.05 0.9,0 1.75,-0.05 z"
           inkscape:connector-curvature="0"
           style="fill:#161717" />
      </g>
    </g>
  </g>
</svg>
