<?xml version="1.0" encoding="UTF-8" standalone="no"?>
<!-- Generator: flash2svg, http://dissentgraphics.com/tools/flash2svg -->

<svg
   xmlns:dc="http://purl.org/dc/elements/1.1/"
   xmlns:cc="http://creativecommons.org/ns#"
   xmlns:rdf="http://www.w3.org/1999/02/22-rdf-syntax-ns#"
   xmlns:svg="http://www.w3.org/2000/svg"
   xmlns="http://www.w3.org/2000/svg"
   xmlns:sodipodi="http://sodipodi.sourceforge.net/DTD/sodipodi-0.dtd"
   xmlns:inkscape="http://www.inkscape.org/namespaces/inkscape"
   id="AvatarAssets"
   image-rendering="auto"
   version="1.1"
   x="0px"
   y="0px"
   width="8.495842"
   height="17.064827"
   viewBox="0 0 8.495842 17.064827"
   inkscape:version="0.48.4 r9939"
   sodipodi:docname="AvatarAssets_hoodieSleeveUpperClose20101122.svg">
  <metadata
     id="metadata3101">
    <rdf:RDF>
      <cc:Work
         rdf:about="">
        <dc:format>image/svg+xml</dc:format>
        <dc:type
           rdf:resource="http://purl.org/dc/dcmitype/StillImage" />
      </cc:Work>
    </rdf:RDF>
  </metadata>
  <sodipodi:namedview
     pagecolor="#ffffff"
     bordercolor="#666666"
     borderopacity="1"
     objecttolerance="10"
     gridtolerance="10"
     guidetolerance="10"
     inkscape:pageopacity="0"
     inkscape:pageshadow="2"
     inkscape:window-width="640"
     inkscape:window-height="480"
     id="namedview3099"
     showgrid="false"
     fit-margin-top="0"
     fit-margin-left="0"
     fit-margin-right="0"
     fit-margin-bottom="0"
     inkscape:zoom="1.9032258"
     inkscape:cx="37.25762"
     inkscape:cy="-46.542359"
     inkscape:window-x="0"
     inkscape:window-y="0"
     inkscape:window-maximized="0"
     inkscape:current-layer="AvatarAssets" />
  <defs
     id="defs3089" />
  <g
     id="hoodieSleeveUpperClose20101123"
     overflow="visible"
     style="overflow:visible"
     transform="translate(5.2576197,1.6071866)">
    <g
       id="hoodieSleeveUpperClose20101122_0">
      <g
         id="element">
        <path
           id="path"
           d="M 0.7,-1.55 0.2,-1.6 q -0.4,0.05 -1.05,0.55 -0.2,0.15 -0.4,0.4 c 0.25,-0.3 0.55,-0.5 0.8,-0.65 0.2,-0.15 0.4,-0.2 0.55,-0.25 -0.3,0.3 -0.55,0.6 -0.7,1.05 -0.45,1.15 -1.6,5.15 -1.85,7.6 -0.25,2.45 1.95,4.15 2.55,4.7 0.7,-0.1 1.2,-0.45 1.2,-0.45 0,0 -1.4,0.05 -2.1,-0.85 -0.65,-0.95 -0.4,-2.85 -0.1,-3.85 0.3,-1 0.45,-4.8 0.6,-6.1 0.15,-0.85 0.65,-1.65 1,-2.1 z M 2.65,10.4 c -0.35,0.75 -0.7,1.3 -1.25,1.7 -0.15,0.1 -0.3,0.2 -0.6,0.3 0.4,0.4 0.6,0.6 0.9,0.9 -0.05,0 0.05,-0.2 0.15,-0.4 L 2.1,12.35 c 0.2,-0.55 0.45,-1.25 0.6,-2.1 -0.05,0.1 -0.1,0.2 -0.05,0.15 z"
           inkscape:connector-curvature="0"
           style="fill:#787878" />
        <path
           id="path1"
           d="m 0.2,-1.6 0.5,0.05 c -0.35,0.45 -0.85,1.25 -1,2.1 -0.15,1.3 -0.3,5.1 -0.6,6.1 -0.3,1 -0.55,2.9 0.1,3.85 0.7,0.9 2.1,0.85 2.1,0.85 0,0 -0.5,0.35 -1.2,0.45 0.15,0.1 0.15,0.1 0.15,0.1 0.3,0.25 0.5,0.45 0.55,0.5 C 1.1,12.3 1.25,12.2 1.4,12.1 1.95,11.7 2.3,11.15 2.65,10.4 2.7,10.25 2.7,10.15 2.7,10.05 3.4,6.35 3.4,2.5 2.8,0.85 2.15,-0.75 1.35,-1.7 0.2,-1.6 z"
           inkscape:connector-curvature="0"
           style="fill:#858585" />
        <path
           id="path2"
           d="m -0.45,-1.3 c -0.25,0.15 -0.55,0.35 -0.8,0.65 -0.35,0.35 -0.6,0.7 -0.8,1.15 l -2.8,7.35 c -0.3,0.9 -0.6,3.55 -0.25,4.65 0.4,1.05 2.7,3.35 4.25,2.9 -0.45,-0.25 -2.45,-1.15 -2.8,-1.9 -0.3,-0.55 -0.55,-1.35 -0.65,-2 l -0.3,0.05 c 0,0 -0.25,0.1 -0.15,-0.6 0.15,-0.7 0.3,-3.5 0.6,-4.25 0.3,-0.75 2.35,-6.8 2.9,-7.15 l -0.4,1 0.4,-1 c 0,0 -0.35,0.8 -0.6,1.6 0.3,-0.8 0.6,-1.4 0.75,-1.6 l 0.65,-0.85 z"
           inkscape:connector-curvature="0"
           style="fill:#3b3b3b" />
        <path
           id="path3"
           d="m -0.45,-1.3 -0.65,0.85 c -0.15,0.2 -0.45,0.8 -0.75,1.6 -0.15,0.5 -0.3,0.9 -0.35,1.25 -0.2,1.1 -1.6,5.05 -1.45,6.4 0.1,1.3 0.4,1.7 0.7,1.85 0.3,0.15 1.55,0.45 1.55,0.45 l -2.9,0.4 c 0.1,0.65 0.35,1.45 0.65,2 0.35,0.75 2.35,1.65 2.8,1.9 L 0.6,14.7 C 1,14.35 1.35,13.85 1.7,13.3 1.4,13 1.2,12.8 0.8,12.4 0.75,12.35 0.55,12.15 0.25,11.9 c 0,0 0,0 -0.15,-0.1 -0.6,-0.55 -2.8,-2.25 -2.55,-4.7 0.25,-2.45 1.4,-6.45 1.85,-7.6 0.15,-0.45 0.4,-0.75 0.7,-1.05 -0.15,0.05 -0.35,0.1 -0.55,0.25 z"
           inkscape:connector-curvature="0"
           style="fill:#666666" />
        <path
           id="path4"
           d="M -3.65,8.8 C -3.8,7.45 -2.4,3.5 -2.2,2.4 -2.15,2.05 -2,1.65 -1.85,1.15 c 0.25,-0.8 0.6,-1.6 0.6,-1.6 l -0.4,1 0.4,-1 c -0.55,0.35 -2.6,6.4 -2.9,7.15 -0.3,0.75 -0.45,3.55 -0.6,4.25 -0.1,0.7 0.15,0.6 0.15,0.6 l 0.3,-0.05 2.9,-0.4 c 0,0 -1.25,-0.3 -1.55,-0.45 -0.3,-0.15 -0.6,-0.55 -0.7,-1.85 z"
           inkscape:connector-curvature="0"
           style="fill:#4f4f4f" />
      </g>
    </g>
  </g>
</svg>
