<?xml version="1.0" encoding="UTF-8" standalone="no"?>
<!-- Generator: flash2svg, http://dissentgraphics.com/tools/flash2svg -->

<svg
   xmlns:dc="http://purl.org/dc/elements/1.1/"
   xmlns:cc="http://creativecommons.org/ns#"
   xmlns:rdf="http://www.w3.org/1999/02/22-rdf-syntax-ns#"
   xmlns:svg="http://www.w3.org/2000/svg"
   xmlns="http://www.w3.org/2000/svg"
   xmlns:sodipodi="http://sodipodi.sourceforge.net/DTD/sodipodi-0.dtd"
   xmlns:inkscape="http://www.inkscape.org/namespaces/inkscape"
   id="AvatarAssets"
   image-rendering="auto"
   version="1.1"
   x="0px"
   y="0px"
   width="9.3652124"
   height="17.866467"
   viewBox="0 0 9.3652124 17.866467"
   inkscape:version="0.48.4 r9939"
   sodipodi:docname="AvatarAssets_sleeveUpperCloseD007.svg">
  <metadata
     id="metadata3435">
    <rdf:RDF>
      <cc:Work
         rdf:about="">
        <dc:format>image/svg+xml</dc:format>
        <dc:type
           rdf:resource="http://purl.org/dc/dcmitype/StillImage" />
      </cc:Work>
    </rdf:RDF>
  </metadata>
  <sodipodi:namedview
     pagecolor="#ffffff"
     bordercolor="#666666"
     borderopacity="1"
     objecttolerance="10"
     gridtolerance="10"
     guidetolerance="10"
     inkscape:pageopacity="0"
     inkscape:pageshadow="2"
     inkscape:window-width="640"
     inkscape:window-height="480"
     id="namedview3433"
     showgrid="false"
     fit-margin-top="0"
     fit-margin-left="0"
     fit-margin-right="0"
     fit-margin-bottom="0"
     inkscape:zoom="1.9032258"
     inkscape:cx="37.723253"
     inkscape:cy="-46.082534"
     inkscape:window-x="0"
     inkscape:window-y="0"
     inkscape:window-maximized="0"
     inkscape:current-layer="AvatarAssets" />
  <defs
     id="defs3417" />
  <g
     id="sleeveUpperCloseD8"
     overflow="visible"
     style="overflow:visible"
     transform="translate(5.7232528,1.949)">
    <g
       id="sleeveUpperCloseD007_0">
      <g
         id="element">
        <g
           id="drawingObject">
          <path
             id="path"
             d="m 2.801,11.801 c 1.15,-5 1.75,-13.75 -2.5,-13.75 q -1.1,0 -2.45,2.3 -1.2,1.95 -2.05,4.7 c -1,3.25 -2.25,7.1 -1,9.35 1.25,2.25 6.9,2.4 8,-2.6 z"
             inkscape:connector-curvature="0"
             style="fill:#b80e1f" />
        </g>
        <g
           id="group1">
          <g
             id="drawingObject1">
            <path
               id="path1"
               d="m -5.149,8.351 c -0.2,0.8 -0.4,1.55 -0.45,2.3 0.7,0.65 1.55,1.8 3.05,2.4 1.9,0.8 3.65,0.6 4.6,0.55 0.35,-0.5 0.6,-1.1 0.75,-1.8 l 0.25,-1.15 c -1.05,0.2 -2.6,0.25 -4.5,-0.25 q -2.4,-0.55 -3.7,-2.05 z"
               inkscape:connector-curvature="0"
               style="fill:#382833" />
          </g>
          <g
             id="drawingObject2">
            <path
               id="path2"
               d="m 3.151,0.701 c -2,-0.15 -3.6,-0.65 -4.7,-1.35 q -0.7,1.05 -1.05,1.8 c 2,1.8 4.6,2.15 6.2,2.2 -0.1,-0.95 -0.25,-1.9 -0.45,-2.65 z"
               inkscape:connector-curvature="0"
               style="fill:#382833" />
          </g>
          <g
             id="drawingObject3">
            <path
               id="path3"
               d="m -3.699,3.651 -0.65,1.95 q 0.95,1.2 2.4,1.8 c 2.3,1.05 4.3,0.6 5.4,0.4 l 0.15,-1.9 c -0.6,-0.05 -1.4,-0.2 -2.55,-0.5 -2.35,-0.55 -3.85,-1.1 -4.75,-1.75 z"
               inkscape:connector-curvature="0"
               style="fill:#382833" />
          </g>
        </g>
        <g
           id="drawingObject4">
          <path
             id="path4"
             d="m -5.199,14.401 c 0.95,1.7 4.25,2.2 6.4,0.3 q -4.7,0.05 -3.4,-7.15 c 0.65,-3.7 1.6,-7.15 2.4,-9.5 -1.6,0.2 -3.4,3.8 -4.4,7 -1,3.25 -2.25,7.1 -1,9.35 z"
             inkscape:connector-curvature="0"
             style="fill:#000000;fill-opacity:0.2" />
        </g>
      </g>
    </g>
  </g>
</svg>
