<?xml version="1.0" encoding="UTF-8" standalone="no"?>
<!-- Generator: flash2svg, http://dissentgraphics.com/tools/flash2svg -->

<svg
   xmlns:dc="http://purl.org/dc/elements/1.1/"
   xmlns:cc="http://creativecommons.org/ns#"
   xmlns:rdf="http://www.w3.org/1999/02/22-rdf-syntax-ns#"
   xmlns:svg="http://www.w3.org/2000/svg"
   xmlns="http://www.w3.org/2000/svg"
   xmlns:sodipodi="http://sodipodi.sourceforge.net/DTD/sodipodi-0.dtd"
   xmlns:inkscape="http://www.inkscape.org/namespaces/inkscape"
   id="AvatarAssets"
   image-rendering="auto"
   version="1.1"
   x="0px"
   y="0px"
   width="12.416421"
   height="16.328226"
   viewBox="0 0 12.416421 16.328226"
   inkscape:version="0.48.4 r9939"
   sodipodi:docname="AvatarAssets_coatSleeveLowerCloseC006.svg">
  <metadata
     id="metadata3049">
    <rdf:RDF>
      <cc:Work
         rdf:about="">
        <dc:format>image/svg+xml</dc:format>
        <dc:type
           rdf:resource="http://purl.org/dc/dcmitype/StillImage" />
      </cc:Work>
    </rdf:RDF>
  </metadata>
  <sodipodi:namedview
     pagecolor="#ffffff"
     bordercolor="#666666"
     borderopacity="1"
     objecttolerance="10"
     gridtolerance="10"
     guidetolerance="10"
     inkscape:pageopacity="0"
     inkscape:pageshadow="2"
     inkscape:window-width="640"
     inkscape:window-height="480"
     id="namedview3047"
     showgrid="false"
     fit-margin-top="0"
     fit-margin-left="0"
     fit-margin-right="0"
     fit-margin-bottom="0"
     inkscape:zoom="1.9032258"
     inkscape:cx="39.040421"
     inkscape:cy="-47.16"
     inkscape:window-x="0"
     inkscape:window-y="0"
     inkscape:window-maximized="0"
     inkscape:current-layer="AvatarAssets" />
  <defs
     id="defs3003" />
  <g
     id="coatSleeveLowerCloseC7"
     overflow="visible"
     style="overflow:visible"
     transform="translate(7.0404214,1.4882258)">
    <g
       id="coatSleeveLowerCloseC006_0">
      <g
         id="element">
        <g
           id="drawingObject">
          <path
             id="path"
             d="m -4.149,10.497 -0.05,0.947 0.8,-1.578 0.1,-0.053 0.35,1.263 0.1,0.21 0.9,-0.421 -0.9,0.421 c 0,0 1.25,-0.842 3.3,-0.736 2.05,0.105 2.45,0.315 2.45,0.315 0,0 -0.2,-2.631 -0.1,-3.262 0.1,-0.632 -6.5,-1.105 -6.5,-1.105 l 3.3,0.316 -3.3,-0.316 q -0.15,0.473 -0.45,3.999 z"
             inkscape:connector-curvature="0"
             style="fill:#000000;fill-opacity:0.08600003" />
        </g>
        <g
           id="drawingObject1">
          <path
             id="path1"
             d="m 2.651,9.421 0.4,2.788 c 0,0 2.1,0 2.1,-0.684 0,-0.736 -0.5,-3.157 -0.65,-3.42 -0.2,-0.263 -1.7,-1.947 -2.35,-2.104 q -0.5,-0.158 -2.55,-0.369 -2.1,-0.21 -2.3,-0.105 l -2.4,3.262 c -0.75,1.737 -2,5.157 -1.9,5.262 l 1.9,0.632 0.85,0.157 c 0,0 -0.1,-5.367 0.5,-6.577 0.6,-1.263 1.05,-1.473 1.05,-1.473 l -0.3,0.263 0.3,-0.263 5.6,1.105 -0.25,1.526 z"
             inkscape:connector-curvature="0"
             style="fill:#1c274b" />
        </g>
        <g
           id="drawingObject2">
          <path
             id="path2"
             d="m -2.299,0.37 q -0.7,1.105 -1.2,2.473 c -0.45,1.211 -1.05,4.21 -1.5,5.999 0.65,-1.21 1.65,-1.894 3,-2.052 3.55,-0.474 6.5,3.473 6.5,3.473 L 4.401,4.58 c 0,-1.842 -0.4,-3.157 -0.4,-3.947 0,-1.315 -1.95,-2.736 -4.75,-1.841 q -0.7,0.21 -1.55,1.578 z m -3.05,9.735 c 0.1,-0.263 0.2,-0.684 0.35,-1.263 -0.05,0.105 -0.15,0.21 -0.2,0.368 -0.35,0.737 -0.5,1.421 -0.55,2.105 l 0.4,-1.21 z"
             inkscape:connector-curvature="0"
             style="fill:#721016" />
        </g>
        <g
           id="group1">
          <g
             id="drawingObject3">
            <path
               id="path5"
               d="m -5.549,10.736 0.55,-1.999 q -0.5,0.894 -0.7,1.999 l 0.15,0 z"
               inkscape:connector-curvature="0"
               style="fill:#510b0f" />
          </g>
          <g
             id="drawingObject4">
            <path
               id="path6"
               d="m -1.499,1.054 c 0,0 -1.15,0.895 -1,0.158 q 0.2,-0.631 0.9,-1.789 c -0.8,0.789 -1.5,2.263 -1.9,3.42 -0.45,1.211 -1.05,4.052 -1.5,5.894 0.5,-0.842 1.3,-1.632 2.6,-1.895 -0.4,-0.421 -1,-1.157 -0.95,-1.736 0.1,-0.895 1.85,-4.052 1.85,-4.052 z"
               inkscape:connector-curvature="0"
               style="fill:#510b0f" />
          </g>
        </g>
        <g
           id="drawingObject5">
          <path
             id="path7"
             d="m -2.249,1.896 0.75,-0.842 c 0,0 -1.35,1.316 -1.85,2.631 -0.5,1.316 -0.9,2.052 -0.9,2.052 l -1.2,1.579 -0.4,0.421 -1.05,5.63 c -0.1,0.316 -0.2,0.632 -0.1,0.684 0.05,0.158 0.8,0.421 1.55,0.632 0.75,0.157 1.2,0.157 1.2,0.157 l 0,-0.421 c 0,0 -0.85,-0.157 -1.35,-0.368 -0.45,-0.263 -0.85,-0.158 -0.55,-0.842 0.3,-0.631 1.45,-2.157 1.65,-2.262 l 0.15,-0.106 -0.05,-0.473 1.2,-3.052 0.1,0.842 c 0.05,0.473 0.15,1.21 0.3,1.789 l 0.35,-0.105 c 0.8,-0.158 1.55,-0.211 2.2,-0.211 l 0.15,0.053 c 2.35,0.368 3.1,0.579 3.75,1.052 l 0.9,0.737 c 0,0 -0.35,0.368 -0.6,0.421 l -0.95,0.052 -0.05,0.369 1.3,-0.158 c 0.4,0 0.85,-0.053 0.9,-0.632 l 0,-0.157 q 0,-0.106 0.2,-0.579 0.1,-0.263 -0.2,-0.474 c 0,-0.368 0,-0.789 0.1,-1.157 0.15,-1 0.05,-2.105 0.05,-2.105 l 0.05,0.684 -0.05,-0.684 c 0,0 -1.1,-1.842 -3.65,-2.315 -2.6,-0.421 -3.5,0.105 -3.5,0.105 l 0.8,-0.211 -0.8,0.211 c 0,0 -0.1,-0.632 0.1,-2 l 0.25,-1.789"
             inkscape:connector-curvature="0"
             style="fill:#364c8e" />
        </g>
        <g
           id="drawingObject6">
          <path
             id="path8"
             d="m -2.499,4.632 c -0.25,-0.578 -0.1,-0.999 0.05,-1.631 0.1,-0.421 0.4,-1.105 0.75,-1.736 -0.4,0.421 -1.25,1.421 -1.65,2.42 -0.5,1.316 -0.9,2.052 -0.9,2.052 l -1.2,1.579 -0.4,0.421 -1.025,5.525 2.275,-3.21 c 0.15,-0.158 0.35,-1.105 0.4,-1.473 0.05,-0.316 0.65,-0.895 0.95,-1.158 l 0.05,-0.105 0,0.053 0.1,-0.053 0.5,1.21 c 0.2,0.789 0.35,0.526 0.8,0.632 0.4,0.052 1.1,-0.211 2.45,-0.106 q 1.8,0.158 1.4,-0.105 c -0.35,-0.21 -1.5,-0.421 -2.05,-0.421 -0.5,-0.052 0.55,-0.368 0.7,-0.421 l -0.45,0 c -0.45,0 -0.6,-0.105 -1.25,-0.526 l -1.05,-0.737 1.05,0.737 c -0.6,-0.474 -1.75,-1.052 -1.5,-1.21 0.25,-0.158 0.6,-0.316 0.6,-0.632 0,-0.315 -0.35,-0.526 -0.6,-1.105 z"
             inkscape:connector-curvature="0"
             style="fill:#2a3b6e" />
        </g>
        <g
           id="drawingObject7">
          <path
             id="path9"
             d="m -4.949,8.316 0.65,-1.368 -0.2,0.157 c -0.25,0.211 -0.5,0.737 -0.45,0.106 l 0.1,-0.684 -0.6,0.789 -0.4,0.421 -1.025,5.525 1.175,-1.684 c 0.15,-0.579 0.65,-1.684 0.75,-2.105 0.15,-0.526 -0.1,-0.578 0,-1.157 z"
             inkscape:connector-curvature="0"
             style="fill:#202d55" />
        </g>
        <g
           id="drawingObject8">
          <path
             id="path10"
             d="m -0.399,7.947 c 0,-0.368 -0.55,-1.262 -1.55,-0.684 q -0.4,0.211 -0.5,0.947 -0.1,0.842 0.65,0.948 c 1.1,0.105 1.4,-0.79 1.4,-1.211 z"
             inkscape:connector-curvature="0"
             style="fill:#bb8b36" />
        </g>
        <g
           id="drawingObject9">
          <path
             id="path11"
             d="m -2.199,5.264 c 0.1,-0.316 0.2,-1.526 -0.55,-1.316 q -0.45,0.106 -0.75,0.684 -0.35,0.684 0,1.158 c 0.5,0.631 1.25,-0.158 1.3,-0.526 z"
             inkscape:connector-curvature="0"
             style="fill:#bb8b36" />
        </g>
        <g
           id="drawingObject10">
          <path
             id="path12"
             d="m -2.349,4.948 c 0.1,-1.157 -0.45,-1.052 -0.75,-0.737 -0.35,0.369 -0.75,1.053 -0.25,1.263 q 0.3,0.211 0.65,0 0.3,-0.21 0.35,-0.526 z"
             inkscape:connector-curvature="0"
             style="fill:#fcbb49" />
        </g>
        <g
           id="drawingObject11">
          <path
             id="path13"
             d="m -0.699,8.053 c 0.05,-0.158 0.1,-1 -0.9,-0.842 q -0.5,0.158 -0.75,0.789 -0.25,0.737 0.4,0.789 c 1,0.106 1.25,-0.631 1.25,-0.736 z"
             inkscape:connector-curvature="0"
             style="fill:#fcbb49" />
        </g>
        <g
           id="drawingObject12">
          <path
             id="path14"
             d="m -1.499,7.895 c 0.25,0.105 0.65,-0.474 0.05,-0.474 q -0.2,0 -0.25,0.211 0,0.21 0.2,0.263 z"
             inkscape:connector-curvature="0"
             style="fill:#fde2ac" />
        </g>
        <g
           id="drawingObject13">
          <path
             id="path15"
             d="m -2.849,4.685 c 0.15,0 0.4,-0.526 0,-0.474 q -0.2,0.053 -0.15,0.264 0,0.21 0.15,0.21 z"
             inkscape:connector-curvature="0"
             style="fill:#fde2ac" />
        </g>
        <g
           id="drawingObject14">
          <path
             id="path16"
             d="m -1.149,0.844 c 0.1,0.684 0.75,1 1.35,1.315 0.55,0.369 2.15,0.369 2.3,0.421 0.1,0.053 -0.75,0.316 -1.5,0.263 -0.75,-0.052 -1.45,0.106 -1.05,0.369 0.35,0.263 1.3,0.105 2.1,0.263 0.8,0.21 1.45,0.473 1.65,0.21 0.15,-0.315 0.05,-0.789 0.05,-0.947 0,-0.105 0.05,-0.684 0,-1.315 0,-0.632 0.25,-1.316 -0.5,-1.947 q -0.8,-0.579 -2.7,-0.474 c -0.8,0.106 -1.8,1.21 -1.7,1.842 z"
             inkscape:connector-curvature="0"
             style="fill:#8a131b" />
        </g>
        <g
           id="drawingObject15">
          <path
             id="path17"
             d="m 4.001,5.264 c 0.1,-0.368 0.15,-0.842 -1,-1.21 q -1.55,-0.421 -3,-0.316 c -0.8,0.105 -1.45,0.684 -1,0.631 0.4,-0.052 2.15,-0.105 2.75,0.106 0.65,0.157 2.2,1.105 2.25,0.789 z"
             inkscape:connector-curvature="0"
             style="fill:#8a131b" />
        </g>
        <g
           id="drawingObject16">
          <path
             id="path18"
             d="m 1.001,5.106 -1.75,0.21 0.65,0 c 0.65,0 2.35,0.211 2.95,0.421 l 1.9,0.895 c 0,0 -0.6,-0.474 -1.6,-1.052 Q 2.501,5.211 1.701,5.106 l -0.7,0 z"
             inkscape:connector-curvature="0"
             style="fill:#6381da" />
        </g>
        <g
           id="drawingObject17">
          <path
             id="path19"
             d="m 4.251,9.684 -1.95,-0.474 1.8,0.632 0.85,0.421 c 0,0 -0.2,-0.369 -0.7,-0.579 z"
             inkscape:connector-curvature="0"
             style="fill:#6381da" />
        </g>
        <g
           id="drawingObject18">
          <path
             id="path20"
             d="m 2.551,8.895 1.45,0.157 Q 3.851,8.631 3.451,8.631 l -0.9,0.264 z"
             inkscape:connector-curvature="0"
             style="fill:#6381da" />
        </g>
      </g>
    </g>
  </g>
</svg>
