<?xml version="1.0" encoding="UTF-8" standalone="no"?>
<!-- Generator: flash2svg, http://dissentgraphics.com/tools/flash2svg -->

<svg
   xmlns:dc="http://purl.org/dc/elements/1.1/"
   xmlns:cc="http://creativecommons.org/ns#"
   xmlns:rdf="http://www.w3.org/1999/02/22-rdf-syntax-ns#"
   xmlns:svg="http://www.w3.org/2000/svg"
   xmlns="http://www.w3.org/2000/svg"
   xmlns:sodipodi="http://sodipodi.sourceforge.net/DTD/sodipodi-0.dtd"
   xmlns:inkscape="http://www.inkscape.org/namespaces/inkscape"
   id="AvatarAssets"
   image-rendering="auto"
   version="1.1"
   x="0px"
   y="0px"
   width="8.4684219"
   height="10.303073"
   viewBox="0 0 8.4684219 10.303073"
   inkscape:version="0.48.4 r9939"
   sodipodi:docname="AvatarAssets_sleeveUpperCloseA012.svg">
  <metadata
     id="metadata3382">
    <rdf:RDF>
      <cc:Work
         rdf:about="">
        <dc:format>image/svg+xml</dc:format>
        <dc:type
           rdf:resource="http://purl.org/dc/dcmitype/StillImage" />
      </cc:Work>
    </rdf:RDF>
  </metadata>
  <sodipodi:namedview
     pagecolor="#ffffff"
     bordercolor="#666666"
     borderopacity="1"
     objecttolerance="10"
     gridtolerance="10"
     guidetolerance="10"
     inkscape:pageopacity="0"
     inkscape:pageshadow="2"
     inkscape:window-width="640"
     inkscape:window-height="480"
     id="namedview3380"
     showgrid="false"
     fit-margin-top="0"
     fit-margin-left="0"
     fit-margin-right="0"
     fit-margin-bottom="0"
     inkscape:zoom="1.9032258"
     inkscape:cx="36.435528"
     inkscape:cy="-53.391927"
     inkscape:window-x="0"
     inkscape:window-y="0"
     inkscape:window-maximized="0"
     inkscape:current-layer="AvatarAssets" />
  <defs
     id="defs3367" />
  <g
     id="sleeveUpperCloseA13"
     overflow="visible"
     style="overflow:visible"
     transform="translate(4.4355281,1.695)">
    <g
       id="sleeveUpperCloseA012_0">
      <g
         id="element">
        <g
           id="drawingObject">
          <path
             id="path"
             d="m 2.759,4.803 -6.5,1.95 0.784,0.882 -0.784,-0.882 c 0,0 0.907,1.674 3.532,1.836 C 3.123,8.786 3.548,7.392 3.548,7.392 Q 3.176,5.518 2.759,4.803 z"
             inkscape:connector-curvature="0"
             style="fill:#000000;fill-opacity:0.4" />
        </g>
        <g
           id="drawingObject1">
          <path
             id="path1"
             d="M 2.465,-0.836 Q 1.79,-1.628 0.383,-1.65 c -1.159,-0.044 -2.449,0.676 -3,2.333 l -1.809,4.935 0.268,0.729 -0.268,-0.729 c 0,0 -0.334,1.286 2.953,2.09 3.291,0.854 5.092,-0.315 5.092,-0.315 0,0 0.859,-1.585 0.102,-4.93 Q 3.149,0.056 2.465,-0.836 z"
             inkscape:connector-curvature="0"
             style="fill:#ff7d7d" />
        </g>
        <g
           id="drawingObject2">
          <path
             id="path2"
             d="m 0.328,-1.695 c -1.104,0.001 -2.394,0.721 -2.945,2.378 l -1.809,4.935 0.268,0.729 -0.268,-0.729 c 0,0 -0.334,1.286 2.953,2.09 C 1.818,8.562 3.619,7.393 3.619,7.393 Q 3.791,7.076 3.886,6.465 C 3.388,7.063 3.017,6.846 1.79,7.159 0.079,7.666 -1.37,6.092 -0.972,5.503 -0.52,4.96 0.608,5.76 0.608,5.76 c 0,0 0.032,-0.203 -0.82,-0.728 C -0.959,4.548 -1.439,4.793 -1.72,2.258 -1.807,1.312 -0.871,-1.083 0.328,-1.695 z"
             inkscape:connector-curvature="0"
             style="fill:#cc6464" />
        </g>
        <g
           id="drawingObject3">
          <path
             id="path3"
             d="m -2.255,1.905 c 0.208,-1.023 0.551,-2.209 1.176,-3.07 l -1.294,1.223 -2.053,5.56 0.268,0.729 -0.268,-0.729 c 0,0 -0.334,1.286 2.953,2.09 0.878,0.271 1.684,0.298 2.335,0.288 C -1.614,7.821 -2.99,6.491 -2.578,6.604 L -0.872,7.151 -1.401,6.848 C -1.927,6.595 -2.597,5.852 -2.837,5.423 -3.077,4.993 -2.616,3.444 -2.255,1.905 z"
             inkscape:connector-curvature="0"
             style="fill:#ab5454" />
        </g>
      </g>
    </g>
  </g>
</svg>
