<?xml version="1.0" encoding="UTF-8" standalone="no"?>
<!-- Generator: flash2svg, http://dissentgraphics.com/tools/flash2svg -->

<svg
   xmlns:dc="http://purl.org/dc/elements/1.1/"
   xmlns:cc="http://creativecommons.org/ns#"
   xmlns:rdf="http://www.w3.org/1999/02/22-rdf-syntax-ns#"
   xmlns:svg="http://www.w3.org/2000/svg"
   xmlns="http://www.w3.org/2000/svg"
   xmlns:sodipodi="http://sodipodi.sourceforge.net/DTD/sodipodi-0.dtd"
   xmlns:inkscape="http://www.inkscape.org/namespaces/inkscape"
   id="AvatarAssets"
   image-rendering="auto"
   version="1.1"
   x="0px"
   y="0px"
   width="8.6499996"
   height="13.35"
   viewBox="0 0 8.6499996 13.35"
   inkscape:version="0.48.4 r9939"
   sodipodi:docname="AvatarAssets_sleeveLowerClose20101103Black2.svg">
  <metadata
     id="metadata3115">
    <rdf:RDF>
      <cc:Work
         rdf:about="">
        <dc:format>image/svg+xml</dc:format>
        <dc:type
           rdf:resource="http://purl.org/dc/dcmitype/StillImage" />
      </cc:Work>
    </rdf:RDF>
  </metadata>
  <sodipodi:namedview
     pagecolor="#ffffff"
     bordercolor="#666666"
     borderopacity="1"
     objecttolerance="10"
     gridtolerance="10"
     guidetolerance="10"
     inkscape:pageopacity="0"
     inkscape:pageshadow="2"
     inkscape:window-width="640"
     inkscape:window-height="480"
     id="namedview3113"
     showgrid="false"
     fit-margin-top="0"
     fit-margin-left="0"
     fit-margin-right="0"
     fit-margin-bottom="0"
     inkscape:zoom="1.9032258"
     inkscape:cx="37.4"
     inkscape:cy="-50.25"
     inkscape:window-x="0"
     inkscape:window-y="0"
     inkscape:window-maximized="0"
     inkscape:current-layer="AvatarAssets" />
  <defs
     id="defs3104" />
  <g
     id="sleeveLowerClose20101103Black3"
     overflow="visible"
     style="overflow:visible"
     transform="translate(5.4,1.6)">
    <g
       id="sleeveLowerClose20101103Black2_0">
      <g
         id="element">
        <path
           id="path"
           d="m 0.4,-1.5 0.85,0.55 0.15,-0.2 C 1.15,-1.4 0.55,-1.6 -0.25,-1.6 l 0.65,0.1 z m 1.95,1.25 -1.1,-0.7 c -0.1,0.1 -0.2,0.15 -0.4,0.1 C 0.75,-0.2 -0.4,0 -0.7,0.6 L -0.75,1.05 C -1,1.6 -1.7,2.65 -1.6,3.25 c 0.05,0.3 0.35,0.1 0.35,0.3 0.1,0.3 -0.05,0.85 0.1,1.05 0.2,0.35 0.75,0.3 1,0.7 C -0.55,5.35 -1,5.35 -1.4,5.45 -0.55,5.75 1.15,5.95 1.5,6.8 0.75,6.9 -0.1,6.8 -0.9,6.85 -0.55,7 0,7.15 0.3,7.5 0.4,7.6 0.4,7.85 0.55,7.95 0.85,8.2 1.65,8.4 2.1,8.25 2.95,7.8 2.75,6.25 2.35,5.65 L 2.5,5.7 C 2.5,5.45 2.35,5.2 2.15,5 l 0.7,0.05 c 0,-0.3 0.05,-0.7 0.2,-1.2 0.15,-0.55 0.2,-1 0.2,-1.35 0,-0.55 -0.2,-1.65 -0.9,-2.75 z m -2.6,-1.35 -0.8,0.1 c -0.7,0.15 -1.2,0.5 -1.65,0.95 0.65,-0.7 1.45,-1.05 2.45,-1.05 z M -5.2,10.35 c -0.05,0.15 -0.1,0.25 -0.15,0.35 l 0.05,0 c 0.05,-0.2 0.1,-0.4 0.1,-0.35 z"
           inkscape:connector-curvature="0"
           style="fill:#2a2b2b" />
        <path
           id="path1"
           d="M 1.25,-0.95 0.4,-1.5 l -0.65,-0.1 -0.8,0.1 c -0.2,0.55 -0.9,1.15 -1.2,1.6 C -2.7,0.8 -3.1,1.8 -3,2.65 l 0.15,0 C -2.8,3.5 -3.05,4.4 -2.9,5.2 c 0.05,0.25 0.25,0.45 0.25,0.8 -0.05,0.35 -0.25,0.65 -0.2,1.05 0.3,0.1 0.55,0.25 0.7,0.55 L -2.3,7.7 c 0.4,0.35 1,0.1 1.3,0.45 C -1.45,8.3 -3.15,8.1 -2.85,9.1 l 0.1,0.1 c 0.45,-0.15 0.95,-0.25 1.5,-0.3 1.15,-0.1 2.2,0 3.2,0.35 0.35,0.15 0.65,0.25 0.9,0.4 0,-0.1 0,-0.2 0,-0.35 L 3,9.65 c 0,0.05 0,0.05 0,0.1 0.05,0 0.05,0 0.1,0.05 L 2.85,5.15 c 0,-0.05 0,-0.05 0,-0.1 L 2.15,5 C 2.35,5.2 2.5,5.45 2.5,5.7 L 2.35,5.65 C 2.75,6.25 2.95,7.8 2.1,8.25 1.65,8.4 0.85,8.2 0.55,7.95 0.4,7.85 0.4,7.6 0.3,7.5 0,7.15 -0.55,7 -0.9,6.85 -0.1,6.8 0.75,6.9 1.5,6.8 1.15,5.95 -0.55,5.75 -1.4,5.45 -1,5.35 -0.55,5.35 -0.15,5.3 c -0.25,-0.4 -0.8,-0.35 -1,-0.7 -0.15,-0.2 0,-0.75 -0.1,-1.05 0,-0.2 -0.3,0 -0.35,-0.3 C -1.7,2.65 -1,1.6 -0.75,1.05 L -0.7,0.6 c 0.3,-0.6 1.45,-0.8 1.55,-1.45 0.2,0.05 0.3,0 0.4,-0.1 z m 0.15,-0.2 -0.15,0.2 1.1,0.7 -0.2,-0.25 C 1.9,-0.75 1.65,-1 1.4,-1.15 z"
           inkscape:connector-curvature="0"
           style="fill:#202121" />
        <path
           id="path6"
           d="m 2.85,9.65 c 0,0.3 0,0.45 0.05,0.5 C 2.95,10.1 3,9.95 3,9.75 3,9.7 3,9.7 3,9.65 L 2.85,9.3 c 0,0.15 0,0.25 0,0.35 z M -3.75,1.55 -3.8,1.6 -5.05,8.95 c 0,0.15 0,0.3 -0.05,0.45 L -5.15,9.55 -5.2,10 l 0,0.3 -0.025,0.05 0.025,0 c 0,-0.05 -0.05,0.15 -0.1,0.35 l -0.05,0 -0.05,0.05 c 0.25,0.3 0.45,0.75 0.8,1 0,-0.4 0.15,-1.1 0.2,-1.8 0.15,-0.1 0.35,-0.2 0.55,-0.3 L -3.35,9.4 C -3.4,9.15 -3.5,8.95 -3.8,8.85 l 0.25,-0.7 c -0.2,-0.1 -0.45,-0.1 -0.7,-0.1 -0.05,-1 0,-2.05 0.1,-3.1 0.1,-0.9 0.55,-1.7 0.9,-2.55 C -2.95,1.65 -3.2,0.95 -3,0.15 l 0.3,-0.7 c -0.45,0.5 -0.8,1.2 -1.05,2.05 l 0,0.05 z"
           inkscape:connector-curvature="0"
           style="fill:#0f0f0f" />
        <path
           id="path10"
           d="m -1.05,-1.5 c -0.7,0.15 -1.2,0.5 -1.65,0.95 L -3,0.15 c -0.2,0.8 0.05,1.5 -0.25,2.25 -0.35,0.85 -0.8,1.65 -0.9,2.55 -0.1,1.05 -0.15,2.1 -0.1,3.1 0.25,0 0.5,0 0.7,0.1 l -0.25,0.7 c 0.3,0.1 0.4,0.3 0.45,0.55 0.2,-0.05 0.4,-0.15 0.6,-0.2 L -2.85,9.1 C -3.15,8.1 -1.45,8.3 -1,8.15 -1.3,7.8 -1.9,8.05 -2.3,7.7 L -2.15,7.6 C -2.3,7.3 -2.55,7.15 -2.85,7.05 -2.9,6.65 -2.7,6.35 -2.65,6 -2.65,5.65 -2.85,5.45 -2.9,5.2 -3.05,4.4 -2.8,3.5 -2.85,2.65 L -3,2.65 C -3.1,1.8 -2.7,0.8 -2.25,0.1 c 0.3,-0.45 1,-1.05 1.2,-1.6 z"
           inkscape:connector-curvature="0"
           style="fill:#161717" />
      </g>
    </g>
  </g>
</svg>
