<?xml version="1.0" encoding="UTF-8" standalone="no"?>
<!-- Generator: flash2svg, http://dissentgraphics.com/tools/flash2svg -->

<svg
   xmlns:dc="http://purl.org/dc/elements/1.1/"
   xmlns:cc="http://creativecommons.org/ns#"
   xmlns:rdf="http://www.w3.org/1999/02/22-rdf-syntax-ns#"
   xmlns:svg="http://www.w3.org/2000/svg"
   xmlns="http://www.w3.org/2000/svg"
   xmlns:sodipodi="http://sodipodi.sourceforge.net/DTD/sodipodi-0.dtd"
   xmlns:inkscape="http://www.inkscape.org/namespaces/inkscape"
   id="AvatarAssets"
   image-rendering="auto"
   version="1.1"
   x="0px"
   y="0px"
   width="8.6662912"
   height="16.900967"
   viewBox="0 0 8.6662912 16.900967"
   inkscape:version="0.48.4 r9939"
   sodipodi:docname="AvatarAssets_sleeveUpperCloseA011b.svg">
  <metadata
     id="metadata3364">
    <rdf:RDF>
      <cc:Work
         rdf:about="">
        <dc:format>image/svg+xml</dc:format>
        <dc:type
           rdf:resource="http://purl.org/dc/dcmitype/StillImage" />
      </cc:Work>
    </rdf:RDF>
  </metadata>
  <sodipodi:namedview
     pagecolor="#ffffff"
     bordercolor="#666666"
     borderopacity="1"
     objecttolerance="10"
     gridtolerance="10"
     guidetolerance="10"
     inkscape:pageopacity="0"
     inkscape:pageshadow="2"
     inkscape:window-width="640"
     inkscape:window-height="480"
     id="namedview3362"
     showgrid="false"
     fit-margin-top="0"
     fit-margin-left="0"
     fit-margin-right="0"
     fit-margin-bottom="0"
     inkscape:zoom="1.9032258"
     inkscape:cx="37.303943"
     inkscape:cy="-46.7147"
     inkscape:window-x="0"
     inkscape:window-y="0"
     inkscape:window-maximized="0"
     inkscape:current-layer="AvatarAssets" />
  <defs
     id="defs3349" />
  <g
     id="sleeveUpperCloseA011b1"
     overflow="visible"
     style="overflow:visible"
     transform="translate(5.3039435,1.6156667)">
    <g
       id="sleeveUpperCloseA011b_0">
      <g
         id="element">
        <g
           id="drawingObject">
          <path
             id="path"
             d="m -5.099,13.451 c 0.65,1.55 4.7,2.65 6.15,1.05 1.45,-1.55 2.25,-6.65 2.3,-8.4 0.05,-1.75 0.05,-7.2 -2.6,-7.7 q -0.55,-0.1 -1.3,0.4 -0.75,0.5 -1.2,1.35 c -0.65,1.1 -1.95,4.25 -2.5,6.2 -0.6,1.9 -1.45,5.55 -0.85,7.1 z"
             inkscape:connector-curvature="0"
             style="fill:#76a74c" />
        </g>
        <g
           id="drawingObject1">
          <path
             id="path1"
             d="m 0.251,-0.649 q -0.85,0.25 -1.5,1.4 -0.45,0.75 -1.1,2.65 c -0.65,2 -1,3.1 -0.6,4.3 0.35,1.2 0.75,1.75 0.75,1.75 0,0 -0.55,-0.7 -0.95,-0.8 -0.35,-0.15 -1.35,1.75 -1.35,2.2 0,0.4 1.8,1.4 3.15,1.5 1.4,0.05 2.75,0.85 3,0.6 0.25,-0.25 0,-0.25 0.5,-1 0.5,-0.75 0.35,-1.5 0.35,-1.5 l 0,0.45 0,-0.45 c 0,0 -0.5,0.45 -0.85,0.45 l -0.3,0 c 0,0 1.4,-0.95 1.65,-2.3 0.25,-1.4 0.5,-5.6 -0.15,-7.5 -0.4,-1.25 -0.75,-2.25 -2.6,-1.75 z"
             inkscape:connector-curvature="0"
             style="fill:#8fca5c" />
        </g>
        <g
           id="drawingObject2">
          <path
             id="path2"
             d="m 0.301,10.151 -0.4,0.05 c 0,0 1.4,0.3 2,-0.25 0.65,-0.55 1.15,-0.85 1.35,-3.55 0.15,-2.7 -0.15,-7 -1.5,-6.7 q -1.35,0.3 -2.15,2.45 c -0.35,1.05 -0.95,3.7 -1.05,4.45 -0.15,0.75 0.1,1.6 0.35,2.1 0.25,0.5 1.15,0.95 1.95,0.8 l 0.8,-0.1 c 0,0 -1,0.7 -1.35,0.75 z"
             inkscape:connector-curvature="0"
             style="fill:#a1e567" />
        </g>
        <g
           id="drawingObject3">
          <path
             id="path3"
             d="m -0.449,12.001 c 0.75,0.1 1.3,0.85 1.85,0.35 0.6,-0.5 0.85,-1.25 -0.1,-1.2 q -0.4,0.1 -0.7,0.15 -0.45,0.05 -1.2,-0.15 c -1.15,-0.3 -1.8,-0.65 -1.65,-0.2 0.1,0.45 1.05,1 1.8,1.05 z"
             inkscape:connector-curvature="0"
             style="fill:#a1e567" />
        </g>
      </g>
    </g>
  </g>
</svg>
