<?xml version="1.0" encoding="UTF-8" standalone="no"?>
<!-- Generator: flash2svg, http://dissentgraphics.com/tools/flash2svg -->

<svg
   xmlns:dc="http://purl.org/dc/elements/1.1/"
   xmlns:cc="http://creativecommons.org/ns#"
   xmlns:rdf="http://www.w3.org/1999/02/22-rdf-syntax-ns#"
   xmlns:svg="http://www.w3.org/2000/svg"
   xmlns="http://www.w3.org/2000/svg"
   xmlns:sodipodi="http://sodipodi.sourceforge.net/DTD/sodipodi-0.dtd"
   xmlns:inkscape="http://www.inkscape.org/namespaces/inkscape"
   id="AvatarAssets"
   image-rendering="auto"
   version="1.1"
   x="0px"
   y="0px"
   width="10.058"
   height="10.5811"
   viewBox="0 0 10.058 10.5811"
   inkscape:version="0.48.4 r9939"
   sodipodi:docname="AvatarAssets_sleeveLowerCloseA011.svg">
  <metadata
     id="metadata3224">
    <rdf:RDF>
      <cc:Work
         rdf:about="">
        <dc:format>image/svg+xml</dc:format>
        <dc:type
           rdf:resource="http://purl.org/dc/dcmitype/StillImage" />
      </cc:Work>
    </rdf:RDF>
  </metadata>
  <sodipodi:namedview
     pagecolor="#ffffff"
     bordercolor="#666666"
     borderopacity="1"
     objecttolerance="10"
     gridtolerance="10"
     guidetolerance="10"
     inkscape:pageopacity="0"
     inkscape:pageshadow="2"
     inkscape:window-width="640"
     inkscape:window-height="480"
     id="namedview3222"
     showgrid="false"
     fit-margin-top="0"
     fit-margin-left="0"
     fit-margin-right="0"
     fit-margin-bottom="0"
     inkscape:zoom="1.9032258"
     inkscape:cx="37.465"
     inkscape:cy="-52.501"
     inkscape:window-x="0"
     inkscape:window-y="0"
     inkscape:window-maximized="0"
     inkscape:current-layer="AvatarAssets" />
  <defs
     id="defs3202" />
  <g
     id="sleeveLowerCloseA12"
     overflow="visible"
     style="overflow:visible"
     transform="translate(5.465,1.0820996)">
    <g
       id="sleeveLowerCloseA011_0">
      <g
         id="element">
        <g
           id="drawingObject">
          <path
             id="path"
             d="m -4.188,8.336 -0.027,0.299 c 0,0 0.892,-0.973 3.617,-0.575 2.679,0.344 3.499,1.272 3.499,1.272 L 2.855,8.173 C 2.878,7.924 -1.531,6.168 -1.531,6.168 Q -1.943,6.281 -2.409,6.44 -3.341,6.757 -3.527,7.141 l -0.661,1.195 z"
             inkscape:connector-curvature="0"
             style="fill:#000000;fill-opacity:0.4" />
        </g>
        <g
           id="drawingObject1">
          <path
             id="path1"
             d="M 3.52,0.224 C 2.922,-0.934 -0.577,-1.654 -2.138,-0.49 q -0.647,0.493 -1.494,2.625 -0.647,1.598 -0.882,2.53 c -0.158,0.639 -0.376,2.476 -0.376,2.476 0,0 0.109,-1.195 3.209,-1.616 3.155,-0.466 5.355,1.29 5.355,1.29 0,0 -0.163,-2.073 0.176,-3.046 C 4.194,2.746 4.068,1.379 3.52,0.224 z"
             inkscape:connector-curvature="0"
             style="fill:#7f62c2" />
        </g>
        <g
           id="drawingObject2">
          <path
             id="path2"
             d="M 3.936,1.718 C 3.882,1.211 3.728,0.695 3.52,0.224 3.18,-0.459 1.822,-0.984 0.424,-1.061 c -0.317,0.172 -0.589,0.399 -0.842,0.426 -1.109,0.05 -1.625,1.86 -1.494,2.625 0.082,0.761 1.381,0.276 2.227,0.353 l 0.797,0.072 c 0,0 -1.503,-0.036 -2.218,0.652 -0.715,0.688 -0.842,0.978 -0.842,0.978 0,0 2.046,-0.417 3.273,-0.104 0.937,0.185 1.96,0.529 2.349,0.665 L 3.927,3.474 C 3.905,3.171 3.878,2.918 3.792,2.759 Q 3.665,2.497 3.936,1.718 z"
             inkscape:connector-curvature="0"
             style="fill:#9775e6" />
        </g>
        <g
           id="group1">
          <g
             id="drawingObject3">
            <path
               id="path3"
               d="M 3.936,1.718 Q 3.85,1.008 3.52,0.224 C 3.18,-0.459 1.872,-0.979 0.523,-1.052 c -0.651,0.543 -1.118,1.254 -1.004,1.666 0.28,0.779 0.629,0.81 1.027,0.846 L 1.628,1.709 2.578,2.298 2.796,2.393 2.818,2.42 C 2.239,2.166 1.687,2.166 1.112,2.415 L 0.184,2.682 C 0.741,2.633 2.352,2.578 2.999,3.189 L 3.792,3.864 3.85,3.769 3.927,3.474 C 3.905,3.171 3.878,2.918 3.792,2.759 3.62,2.442 3.801,2.107 3.936,1.718 z"
               inkscape:connector-curvature="0"
               style="fill:#a882ff" />
          </g>
        </g>
        <g
           id="drawingObject4">
          <path
             id="path4"
             d="M 4.285,5.615 C 3.927,4.579 3.552,3.189 1.936,2.741 0.324,2.243 -1.169,2.108 -2.581,2.732 l -2.884,1.345 0.191,0.67 -0.1,2.752 q 0.023,0.855 0.856,1.082 c 0.498,-1.06 4.214,-1.626 6.101,-0.852 1.838,0.77 1.245,1.77 1.245,1.77 0,0 0.552,-0.552 0.697,-1.041 C 3.62,7.964 4.593,6.647 4.593,6.647 L 4.285,5.615 z"
             inkscape:connector-curvature="0"
             style="fill:#c5abff" />
        </g>
        <g
           id="drawingObject5">
          <path
             id="path5"
             d="M 0.184,2.682 C -0.056,2.56 0.152,2.479 0.46,2.406 -0.581,2.262 -1.64,2.316 -2.581,2.732 L -4.415,3.57 C -4.487,3.814 -4.51,4.063 -4.473,4.217 l 0.05,1.109 c 0,0 0.47,-0.208 1.217,-0.14 l 0.747,0.068 c 0,0 -1.227,0.24 -1.783,0.842 -0.557,0.602 -0.634,1.448 -0.634,1.448 l 0.068,0.358 -0.068,-0.358 c 0,0 0.045,0.607 0.358,1.037 0.498,-1.06 4.214,-1.626 6.101,-0.852 Q 2.742,8.236 2.882,8.901 3,9.264 2.828,9.499 c 0,0 0.33,-0.322 0.511,-0.656 C 3.271,8.485 3.204,8.127 3.077,7.865 2.683,7.227 2.398,7.05 1.194,6.489 l -1.657,-0.552 0.62,-0.195 -0.62,0.195 c 0,0 1.05,-0.507 1.974,-0.172 0.873,0.33 1.222,0.362 1.222,0.362 L 1.606,5.271 C 1.135,4.927 0.773,4.493 1.411,4.651 2.103,4.764 3.077,5.104 2.873,4.583 2.669,4.063 0.795,3.14 0.184,2.682 z"
             inkscape:connector-curvature="0"
             style="fill:#ae94e8" />
        </g>
        <g
           id="drawingObject6">
          <path
             id="path6"
             d="M -4.364,3.652 C -4.437,3.896 -4.46,4.145 -4.423,4.299 l 0.05,1.109 c 0,0 0.47,-0.208 1.217,-0.141 l 0.747,0.068 c 0,0 -1.227,0.24 -1.783,0.842 -0.557,0.602 -0.634,1.449 -0.634,1.449 l 0.068,0.357 -0.068,-0.357 c 0,0 0.045,0.606 0.358,1.036 C -3.97,7.603 -0.254,7.037 1.633,7.811 2.507,8.141 2.819,8.571 2.937,8.933 3.136,7.847 1.773,7.372 0.352,6.992 Q -1.119,6.607 -3.364,7.558 c 0,0 0.086,-0.394 0.484,-0.91 l 1.028,-1.363 c 0,0 -0.851,-0.579 -0.046,-1.158 C -1.309,3.728 -0.707,3.733 -0.409,3.76 -0.703,3.683 -1.25,3.633 -2.002,3.615 -2.703,3.602 -2.355,3.081 -1.753,2.533 l -2.611,1.119 z"
             inkscape:connector-curvature="0"
             style="fill:#9781c9" />
        </g>
      </g>
    </g>
  </g>
</svg>
