<?xml version="1.0" encoding="UTF-8" standalone="no"?>
<!-- Generator: flash2svg, http://dissentgraphics.com/tools/flash2svg -->

<svg
   xmlns:dc="http://purl.org/dc/elements/1.1/"
   xmlns:cc="http://creativecommons.org/ns#"
   xmlns:rdf="http://www.w3.org/1999/02/22-rdf-syntax-ns#"
   xmlns:svg="http://www.w3.org/2000/svg"
   xmlns="http://www.w3.org/2000/svg"
   xmlns:sodipodi="http://sodipodi.sourceforge.net/DTD/sodipodi-0.dtd"
   xmlns:inkscape="http://www.inkscape.org/namespaces/inkscape"
   id="AvatarAssets"
   image-rendering="auto"
   version="1.1"
   x="0px"
   y="0px"
   width="9.957057"
   height="13.594444"
   viewBox="0 0 9.957057 13.594444"
   inkscape:version="0.48.4 r9939"
   sodipodi:docname="AvatarAssets_sleeveUpperCloseStaff01.svg">
  <metadata
     id="metadata3464">
    <rdf:RDF>
      <cc:Work
         rdf:about="">
        <dc:format>image/svg+xml</dc:format>
        <dc:type
           rdf:resource="http://purl.org/dc/dcmitype/StillImage" />
      </cc:Work>
    </rdf:RDF>
  </metadata>
  <sodipodi:namedview
     pagecolor="#ffffff"
     bordercolor="#666666"
     borderopacity="1"
     objecttolerance="10"
     gridtolerance="10"
     guidetolerance="10"
     inkscape:pageopacity="0"
     inkscape:pageshadow="2"
     inkscape:window-width="640"
     inkscape:window-height="480"
     id="namedview3462"
     showgrid="false"
     fit-margin-top="0"
     fit-margin-left="0"
     fit-margin-right="0"
     fit-margin-bottom="0"
     inkscape:zoom="1.9032258"
     inkscape:cx="37.95"
     inkscape:cy="-50.055556"
     inkscape:window-x="0"
     inkscape:window-y="0"
     inkscape:window-maximized="0"
     inkscape:current-layer="AvatarAssets" />
  <defs
     id="defs3438">
    <linearGradient
       gradientUnits="userSpaceOnUse"
       color-interpolation="sRGB"
       x1="-4.8990002"
       y1="7.0749998"
       x2="2.3010001"
       y2="6.9250002"
       id="linearGradient">
      <stop
         stop-color="#000"
         stop-opacity="0.2980392156862745"
         offset="0"
         id="stop3441" />
      <stop
         stop-color="#000"
         stop-opacity="0.2980392156862745"
         offset="0.85882"
         id="stop3443" />
      <stop
         stop-color="#000"
         stop-opacity="0.2980392156862745"
         offset="1"
         id="stop3445" />
    </linearGradient>
    <linearGradient
       gradientUnits="userSpaceOnUse"
       color-interpolation="sRGB"
       x1="-4.8990002"
       y1="7.0749998"
       x2="2.3010001"
       y2="6.9250002"
       id="linearGradient1">
      <stop
         stop-color="#000"
         stop-opacity="0.2980392156862745"
         offset="0"
         id="stop3448" />
      <stop
         stop-color="#000"
         stop-opacity="0.2980392156862745"
         offset="0.85882"
         id="stop3450" />
      <stop
         stop-color="#000"
         stop-opacity="0.2980392156862745"
         offset="1"
         id="stop3452" />
    </linearGradient>
  </defs>
  <g
     id="sleeveUpperCloseStaff2"
     overflow="visible"
     style="overflow:visible"
     transform="translate(5.95,1.65)">
    <g
       id="sleeveUpperCloseStaff01_0">
      <g
         id="element">
        <path
           id="path"
           d="M 3.55,1.95 C 3.2,-0.5 1.2,-1.65 0.35,-1.65 c -0.2,0 -0.4,0.05 -0.65,0.1 l -0.15,0 -0.95,0.45 c -0.75,0.95 -1.5,2.35 -1.55,3.1 -0.1,0.9 -0.4,3 0.55,4.05 1,1.05 1.2,1.15 1.2,1.15 0,0 -0.8,-0.3 -1.5,-0.85 l -0.75,-0.8 -0.25,0.8 0.25,-0.8 c 0,0 -0.7,1.35 0.35,2.4 C -2,9 -0.75,9.7 0.75,9.7 2.25,9.75 3.4,9.2 3.45,8.7 L 3.35,7.85 C 3.35,7.85 3.7,7.8 4,7.25 L 3.95,8.85 C 4.1,7.15 3.95,4.4 3.55,1.95 z M 3.5,5.7 3.5,6.2 C 3.55,6.5 2.9,7 1.35,7 -0.2,7.05 -0.9,5.8 -0.9,5.8 L -0.35,6.45 -0.9,5.8 0.7,6.2 C 1.8,6.45 2.6,5.95 3.05,5.7 3.65,5.4 3.5,5.85 3.5,6.2 z M 2.6,8.45 c -0.5,0.25 -0.8,0.3 -2,0.2 -1.15,0 -2,-0.95 -2.1,-1.05 L 0.15,7.95 C 1.05,8.1 1.6,8.5 2.4,8.15 2.7,7.95 3.1,8.1 2.6,8.45 z"
           inkscape:connector-curvature="0"
           style="fill:#2e2e2c" />
        <path
           id="path1"
           d="M 3.5,6.2 C 3.5,5.85 3.65,5.4 3.05,5.7 2.6,5.95 1.8,6.45 0.7,6.2 L -0.9,5.8 -0.35,6.45 -0.9,5.8 c 0,0 0.7,1.25 2.25,1.2 C 2.9,7 3.55,6.5 3.5,6.2 z"
           inkscape:connector-curvature="0"
           style="fill:#212120" />
        <path
           id="path4"
           d="M 2.6,8.45 C 3.1,8.1 2.7,7.95 2.4,8.15 1.6,8.5 1.05,8.1 0.15,7.95 L -1.5,7.6 c 0.1,0.1 0.95,1.05 2.1,1.05 1.2,0.1 1.5,0.05 2,-0.2 z M 3.95,8.85 4,7.25 C 3.7,7.8 3.35,7.85 3.35,7.85 L 3.45,8.7 C 3.4,9.2 2.25,9.75 0.75,9.7 -0.75,9.7 -2,9 -3.1,7.95 -4.15,6.9 -3.45,5.55 -3.45,5.55 l -0.25,0.8 0.25,-0.8 0.75,0.8 C -2,6.9 -1.2,7.2 -1.2,7.2 -1.2,7.2 -1.4,7.1 -2.4,6.05 -3.35,5 -3.05,2.9 -2.95,2 c 0.05,-0.75 0.8,-2.15 1.55,-3.1 -0.05,0 0,-0.05 0.05,-0.1 -0.1,0.05 -0.2,0.1 -0.3,0.2 l -0.025,0 -0.175,0.15 c -0.8,0.65 -1.45,1.65 -2,3.1 L -3.9,2.3 -4.05,3.75 -3.9,4.8 -4.25,4.4 -4.6,5.15 -4.25,4.4 c 0,0 -0.7,1.35 -0.7,2.2 -0.1,0.85 0.8,2.3 2.15,3.05 1.35,0.75 2.6,1.05 2.6,1.05 0,0 -2.75,-0.5 -3.7,-1.35 C -4.65,8.75 -5.25,8.1 -5.75,7.9 l 0.3,0.7 -0.3,-0.7 c 0.2,0.65 0.5,1.05 0.95,1.4 0.7,0.5 1.35,0.9 2.25,1.25 1.7,0.6 3.8,0.65 4.8,0.75 l 0.05,0 c 0.8,-0.1 1.25,-0.15 1.3,-0.1 0.2,-0.05 0.25,-0.05 0.25,-0.05 0,0 -0.15,-0.65 0.1,-2.3 z"
           inkscape:connector-curvature="0"
           style="fill:#212120" />
        <path
           id="path9"
           d="M 1.85,11.8 C 2,11.65 2.15,11.55 2.3,11.3 l -0.05,0 c -1,-0.1 -3.1,-0.15 -4.8,-0.75 C -3.45,10.2 -4.1,9.8 -4.8,9.3 l 0.05,0.35 q 0.2,0.75 0.65,1.05 c 0.8,0.6 1.65,1.2 3.65,1.2 1.1,0 1.7,0.1 2.1,0 l 0.2,-0.1 z"
           inkscape:connector-curvature="0"
           style="fill:url(#linearGradient1)" />
        <path
           id="path10"
           d="m -3.9,2.3 0,-0.05 -0.55,1.5 c -0.55,1.8 -1.5,3.7 -1.5,3.7 l 0.15,0.45 0.05,0 c 0.5,0.2 1.1,0.85 1.85,1.45 0.95,0.85 3.7,1.35 3.7,1.35 0,0 -1.25,-0.3 -2.6,-1.05 -1.35,-0.75 -2.25,-2.2 -2.15,-3.05 0,-0.85 0.7,-2.2 0.7,-2.2 L -4.6,5.15 -4.25,4.4 -3.9,4.8 -4.05,3.75 -3.9,2.3 z"
           inkscape:connector-curvature="0"
           style="fill:#121211" />
      </g>
    </g>
  </g>
</svg>
