<?xml version="1.0" encoding="UTF-8" standalone="no"?>
<!-- Generator: flash2svg, http://dissentgraphics.com/tools/flash2svg -->

<svg
   xmlns:dc="http://purl.org/dc/elements/1.1/"
   xmlns:cc="http://creativecommons.org/ns#"
   xmlns:rdf="http://www.w3.org/1999/02/22-rdf-syntax-ns#"
   xmlns:svg="http://www.w3.org/2000/svg"
   xmlns="http://www.w3.org/2000/svg"
   xmlns:sodipodi="http://sodipodi.sourceforge.net/DTD/sodipodi-0.dtd"
   xmlns:inkscape="http://www.inkscape.org/namespaces/inkscape"
   id="AvatarAssets"
   image-rendering="auto"
   version="1.1"
   x="0px"
   y="0px"
   width="8.351038"
   height="13.146302"
   viewBox="0 0 8.351038 13.146302"
   inkscape:version="0.48.4 r9939"
   sodipodi:docname="AvatarAssets_sleeveLowerCloseA001.svg">
  <metadata
     id="metadata3199">
    <rdf:RDF>
      <cc:Work
         rdf:about="">
        <dc:format>image/svg+xml</dc:format>
        <dc:type
           rdf:resource="http://purl.org/dc/dcmitype/StillImage" />
      </cc:Work>
    </rdf:RDF>
  </metadata>
  <sodipodi:namedview
     pagecolor="#ffffff"
     bordercolor="#666666"
     borderopacity="1"
     objecttolerance="10"
     gridtolerance="10"
     guidetolerance="10"
     inkscape:pageopacity="0"
     inkscape:pageshadow="2"
     inkscape:window-width="640"
     inkscape:window-height="480"
     id="namedview3197"
     showgrid="false"
     fit-margin-top="0"
     fit-margin-left="0"
     fit-margin-right="0"
     fit-margin-bottom="0"
     inkscape:zoom="1.9032258"
     inkscape:cx="36.842854"
     inkscape:cy="-50.240189"
     inkscape:window-x="0"
     inkscape:window-y="0"
     inkscape:window-maximized="0"
     inkscape:current-layer="AvatarAssets" />
  <defs
     id="defs3184" />
  <g
     id="sleeveLowerCloseA2"
     overflow="visible"
     style="overflow:visible"
     transform="translate(4.8428543,1.3864915)">
    <g
       id="sleeveLowerCloseA001_0">
      <g
         id="element">
        <g
           id="drawingObject">
          <path
             id="path"
             d="M 3.467,3.124 C 3.298,2.218 2.574,-0.008 1.107,-0.958 c -1.47,-0.901 -3.295,-0.164 -3.569,0.527 -0.274,0.69 -0.408,1.686 -0.669,1.977 -0.26,0.291 -0.11,0.296 -0.177,0.794 L -3.292,1.891 -3.308,2.34 C -3.375,2.838 -3.656,3.728 -4.05,5.015 -4.445,6.302 -4.314,8.307 -4.314,8.307 l -0.22,0.592 0.22,-0.592 c 0,0 -0.477,0.784 -0.525,2.182 q -0.046,1.349 0.457,1.266 c 0,0 0.742,-1.225 3.5,-1.43 1.705,-0.141 3.975,0.738 3.975,0.738 0,0 0.324,-0.689 0.351,-1.489 C 3.47,8.825 3.227,8.617 3.227,8.617 L 3.37,8.822 3.227,8.617 c 0,0 0.157,-0.195 0.172,-0.645 C 3.415,7.523 3.186,6.915 3.213,6.116 3.241,5.316 3.634,4.08 3.467,3.124 z"
             inkscape:connector-curvature="0"
             style="fill:#e7e3b1" />
        </g>
        <g
           id="drawingObject1">
          <path
             id="path1"
             d="M 3.467,3.124 C 3.298,2.218 2.574,-0.008 1.107,-0.958 q -1.029,-0.636 -2.24,-0.328 -1.109,0.262 -1.329,0.855 c -0.274,0.69 -0.408,1.686 -0.669,1.977 -0.26,0.291 -0.11,0.296 -0.177,0.794 L -3.292,1.891 -3.308,2.34 C -3.375,2.838 -3.656,3.728 -4.05,5.015 -4.445,6.302 -4.314,8.307 -4.314,8.307 l -0.22,0.592 0.22,-0.592 c 0,0 -0.477,0.784 -0.525,2.182 -0.046,1.349 0.457,1.266 0.457,1.266 0,0 0.742,-1.225 3.5,-1.43 1.002,-0.065 2.144,0.174 2.935,0.452 L 1.071,10.243 C -0.355,9.543 -1.721,9.996 -2.55,9.368 -3.427,8.687 -2.178,7.28 -0.478,7.289 1.172,7.296 2.84,8.253 2.84,8.253 2.84,8.253 2.016,7.475 0.785,6.932 -0.497,6.388 -2.455,6.62 -2.28,5.876 L -1.787,4.643 -2.069,4.133 C -2.206,3.728 -1.935,3.138 -1.534,3.101 -1.081,3.017 1.043,3.79 1.942,3.821 2.392,3.837 2.948,3.656 3.506,3.425 L 3.467,3.124 z"
             inkscape:connector-curvature="0"
             style="fill:#ceca9e" />
        </g>
        <g
           id="drawingObject2">
          <path
             id="path2"
             d="m -3.131,1.546 c -0.26,0.291 -0.11,0.296 -0.177,0.794 L -3.292,1.891 -3.308,2.34 C -3.375,2.838 -3.656,3.728 -4.05,5.015 -4.445,6.302 -4.314,8.307 -4.314,8.307 l -0.22,0.592 0.22,-0.592 c 0,0 -0.477,0.784 -0.525,2.182 -0.046,1.349 0.457,1.266 0.457,1.266 0,0 0.742,-1.225 3.5,-1.43 0.752,-0.074 1.596,0.105 2.29,0.279 q -1.13,-0.589 -2.985,-0.453 l -1.66,0.293 c 0,0 -0.348,-0.062 -0.624,-0.771 -0.275,-0.71 0.314,-1.84 1.127,-2.212 0.861,-0.32 2.261,-0.322 2.261,-0.322 L -1.463,6.855 C -2.453,6.571 -2.705,6.612 -2.996,6.352 -3.285,6.042 -3.122,5.647 -3.106,5.198 c 0.015,-0.45 0.303,-1.54 0.516,-1.933 0.164,-0.394 0.016,-0.449 0.037,-1.049 0.068,-0.548 1.007,-1.665 1.309,-1.705 0,0 -0.171,-0.856 -0.445,-1.616 -0.356,0.188 -0.665,0.427 -0.773,0.674 -0.274,0.69 -0.408,1.686 -0.669,1.977 z"
             inkscape:connector-curvature="0"
             style="fill:#aaa582" />
        </g>
        <g
           id="drawingObject3">
          <path
             id="path3"
             d="M 2.326,4.285 C 3.225,4.316 3.184,4.064 3.184,4.064 Q 1.729,4.214 1.382,4.102 L 0.986,3.988 1.281,4.149 0.986,3.988 c 0,0 0.391,0.264 1.34,0.297 z"
             inkscape:connector-curvature="0"
             style="fill:#ceca9e" />
        </g>
      </g>
    </g>
  </g>
</svg>
