<?xml version="1.0" encoding="UTF-8" standalone="no"?>
<!-- Generator: flash2svg, http://dissentgraphics.com/tools/flash2svg -->

<svg
   xmlns:dc="http://purl.org/dc/elements/1.1/"
   xmlns:cc="http://creativecommons.org/ns#"
   xmlns:rdf="http://www.w3.org/1999/02/22-rdf-syntax-ns#"
   xmlns:svg="http://www.w3.org/2000/svg"
   xmlns="http://www.w3.org/2000/svg"
   xmlns:sodipodi="http://sodipodi.sourceforge.net/DTD/sodipodi-0.dtd"
   xmlns:inkscape="http://www.inkscape.org/namespaces/inkscape"
   id="AvatarAssets"
   image-rendering="auto"
   version="1.1"
   x="0px"
   y="0px"
   width="10.131"
   height="10.497442"
   viewBox="0 0 10.131 10.497442"
   inkscape:version="0.48.4 r9939"
   sodipodi:docname="AvatarAssets_sleeveLowerCloseA011b.svg">
  <metadata
     id="metadata3249">
    <rdf:RDF>
      <cc:Work
         rdf:about="">
        <dc:format>image/svg+xml</dc:format>
        <dc:type
           rdf:resource="http://purl.org/dc/dcmitype/StillImage" />
      </cc:Work>
    </rdf:RDF>
  </metadata>
  <sodipodi:namedview
     pagecolor="#ffffff"
     bordercolor="#666666"
     borderopacity="1"
     objecttolerance="10"
     gridtolerance="10"
     guidetolerance="10"
     inkscape:pageopacity="0"
     inkscape:pageshadow="2"
     inkscape:window-width="640"
     inkscape:window-height="480"
     id="namedview3247"
     showgrid="false"
     fit-margin-top="0"
     fit-margin-left="0"
     fit-margin-right="0"
     fit-margin-bottom="0"
     inkscape:zoom="1.9032258"
     inkscape:cx="37.582"
     inkscape:cy="-52.682"
     inkscape:window-x="0"
     inkscape:window-y="0"
     inkscape:window-maximized="0"
     inkscape:current-layer="AvatarAssets" />
  <defs
     id="defs3227" />
  <g
     id="sleeveLowerCloseA011b1"
     overflow="visible"
     style="overflow:visible"
     transform="translate(5.582,1.1794422)">
    <g
       id="sleeveLowerCloseA011b_0">
      <g
         id="element">
        <g
           id="drawingObject">
          <path
             id="path"
             d="m -4.227,8.407 -0.018,0.299 0.779,-0.454 -0.779,0.454 c 0,0 0.862,-1 3.598,-0.683 C 2.042,8.287 2.888,9.19 2.888,9.19 L 2.809,8.033 C 2.824,7.784 -1.636,6.16 -1.636,6.16 q -0.408,0.125 -0.87,0.297 -0.922,0.345 -1.096,0.735 l -0.625,1.215 z"
             inkscape:connector-curvature="0"
             style="fill:#000000;fill-opacity:0.23899997" />
        </g>
        <g
           id="drawingObject1">
          <path
             id="path1"
             d="M 3.285,0.026 C 2.653,-1.114 -0.866,-1.729 -2.393,-0.52 q -0.632,0.513 -1.414,2.669 -0.6,1.617 -0.807,2.556 c -0.139,0.643 -0.302,2.486 -0.302,2.486 0,0 0.073,-1.197 3.16,-1.711 3.14,-0.56 5.391,1.13 5.391,1.13 0,0 -0.224,-2.068 0.086,-3.051 C 4.034,2.526 3.867,1.164 3.285,0.026 z"
             inkscape:connector-curvature="0"
             style="fill:#76a74c" />
        </g>
        <g
           id="drawingObject2">
          <path
             id="path2"
             d="m 3.285,0.026 c -0.36,-0.673 -1.733,-1.157 -3.134,-1.192 -0.311,0.181 -0.576,0.415 -0.829,0.45 -1.107,0.083 -1.568,1.908 -1.414,2.669 0.104,0.758 1.388,0.235 2.236,0.286 l 0.799,0.049 c 0,0 -1.503,0.009 -2.198,0.718 -0.694,0.709 -0.812,1.002 -0.812,1.002 l 1.163,-0.179 -1.163,0.179 c 0,0 2.033,-0.477 3.268,-0.201 0.942,0.157 1.975,0.47 2.368,0.594 L 3.789,3.263 C 3.757,2.96 3.723,2.708 3.632,2.552 Q 3.497,2.293 3.746,1.507 C 3.676,1.002 3.507,0.49 3.285,0.026 z"
             inkscape:connector-curvature="0"
             style="fill:#8fca5c" />
        </g>
        <g
           id="group1">
          <g
             id="drawingObject3">
            <path
               id="path3"
               d="M 3.285,0.026 C 2.925,-0.647 1.602,-1.128 0.251,-1.16 -0.384,-0.598 -0.829,0.126 -0.704,0.535 -0.4,1.305 -0.05,1.326 0.349,1.35 l 1.089,0.217 0.967,0.56 0.294,0.118 c 0,0 -0.88,-0.354 -1.756,0.043 L 0.023,2.583 C 0.578,2.516 2.188,2.414 2.853,3.005 L 3.665,3.656 3.721,3.559 3.789,3.263 C 3.757,2.96 3.723,2.708 3.632,2.552 3.451,2.24 3.621,1.9 3.746,1.507 Q 3.638,0.799 3.285,0.026 z"
               inkscape:connector-curvature="0"
               style="fill:#a1e567" />
          </g>
        </g>
        <g
           id="drawingObject4">
          <path
             id="path4"
             d="M 4.21,5.392 C 3.822,4.367 3.405,2.989 1.776,2.589 0.151,2.14 -1.347,2.049 -2.74,2.715 l -2.842,1.43 0.21,0.664 -0.017,2.754 q 0.048,0.855 0.887,1.056 C -4.035,7.545 -0.338,6.869 1.572,7.586 3.432,8.3 2.87,9.318 2.87,9.318 2.87,9.318 3.405,8.75 3.535,8.257 3.616,7.76 4.549,6.415 4.549,6.415 L 4.054,7.136 4.549,6.415 4.21,5.392 z"
             inkscape:connector-curvature="0"
             style="fill:#a1e567" />
        </g>
        <g
           id="drawingObject5">
          <path
             id="path5"
             d="M 2.768,4.403 C 2.549,3.889 0.648,3.021 0.023,2.583 L 1.572,3.478 0.023,2.583 C -0.22,2.468 -0.014,2.38 0.291,2.298 -0.754,2.185 -1.811,2.271 -2.74,2.715 l -1.807,0.892 c -0.065,0.247 -0.081,0.496 -0.04,0.649 l 0.083,1.107 0.306,-0.082 -0.306,0.082 c 0,0 0.465,-0.222 1.213,-0.177 l 0.749,0.046 c 0,0 -1.219,0.276 -1.758,0.895 -0.538,0.618 -0.59,1.467 -0.59,1.467 L -4.811,7.949 -4.89,7.594 c 0,0 0.063,0.605 0.388,1.025 0.467,-1.074 4.164,-1.75 6.074,-1.033 Q 2.746,8.058 2.906,8.719 3.035,9.078 2.87,9.318 c 0,0 0.32,-0.331 0.491,-0.671 C 3.283,8.291 3.204,7.936 3.07,7.677 2.657,7.051 2.367,6.883 1.146,6.358 L -0.526,5.855 0.088,5.642 -0.526,5.855 c 0,0 1.034,-0.538 1.967,-0.231 C 2.324,5.929 2.674,5.95 2.674,5.95 L 1.522,5.128 C 1.041,4.799 0.666,4.375 1.308,4.514 2.004,4.607 2.987,4.917 2.768,4.403 z"
             inkscape:connector-curvature="0"
             style="fill:#8fca5c" />
        </g>
        <g
           id="drawingObject6">
          <path
             id="path6"
             d="M -2.186,3.5 C -2.888,3.508 -2.555,2.977 -1.97,2.411 l -2.577,1.196 c -0.065,0.247 -0.081,0.496 -0.04,0.649 l 0.083,1.107 0.306,-0.082 -0.306,0.082 c 0,0 0.465,-0.222 1.213,-0.177 l 0.749,0.046 c 0,0 -1.219,0.276 -1.758,0.895 -0.538,0.618 -0.59,1.467 -0.59,1.467 L -4.811,7.949 -4.89,7.594 c 0,0 0.063,0.605 0.388,1.025 C -4.035,7.545 -0.338,6.869 1.572,7.586 2.456,7.89 2.781,8.311 2.909,8.669 3.076,7.577 1.7,7.143 0.267,6.805 Q -0.672,6.598 -2.149,7.009 l -1.282,0.473 c 0,0 0.075,-0.396 0.457,-0.924 l 0.987,-1.393 c 0,0 -0.868,-0.553 -0.08,-1.157 C -1.491,3.593 -0.889,3.579 -0.589,3.597 -0.886,3.529 -1.435,3.496 -2.186,3.5 z"
             inkscape:connector-curvature="0"
             style="fill:#76a74c" />
        </g>
      </g>
    </g>
  </g>
</svg>
