<?xml version="1.0" encoding="UTF-8" standalone="no"?>
<!-- Generator: flash2svg, http://dissentgraphics.com/tools/flash2svg -->

<svg
   xmlns:dc="http://purl.org/dc/elements/1.1/"
   xmlns:cc="http://creativecommons.org/ns#"
   xmlns:rdf="http://www.w3.org/1999/02/22-rdf-syntax-ns#"
   xmlns:svg="http://www.w3.org/2000/svg"
   xmlns="http://www.w3.org/2000/svg"
   xmlns:sodipodi="http://sodipodi.sourceforge.net/DTD/sodipodi-0.dtd"
   xmlns:inkscape="http://www.inkscape.org/namespaces/inkscape"
   id="AvatarAssets"
   image-rendering="auto"
   version="1.1"
   x="0px"
   y="0px"
   width="8.8500004"
   height="12.939541"
   viewBox="0 0 8.8500004 12.939541"
   inkscape:version="0.48.4 r9939"
   sodipodi:docname="AvatarAssets_sleeveUpperCloseA004.svg">
  <metadata
     id="metadata3231">
    <rdf:RDF>
      <cc:Work
         rdf:about="">
        <dc:format>image/svg+xml</dc:format>
        <dc:type
           rdf:resource="http://purl.org/dc/dcmitype/StillImage" />
      </cc:Work>
    </rdf:RDF>
  </metadata>
  <sodipodi:namedview
     pagecolor="#ffffff"
     bordercolor="#666666"
     borderopacity="1"
     objecttolerance="10"
     gridtolerance="10"
     guidetolerance="10"
     inkscape:pageopacity="0"
     inkscape:pageshadow="2"
     inkscape:window-width="640"
     inkscape:window-height="480"
     id="namedview3229"
     showgrid="false"
     fit-margin-top="0"
     fit-margin-left="0"
     fit-margin-right="0"
     fit-margin-bottom="0"
     inkscape:zoom="1.9032258"
     inkscape:cx="37.399"
     inkscape:cy="-50.791459"
     inkscape:window-x="0"
     inkscape:window-y="0"
     inkscape:window-maximized="0"
     inkscape:current-layer="AvatarAssets" />
  <defs
     id="defs3218" />
  <g
     id="sleeveUpperCloseA5"
     overflow="visible"
     style="overflow:visible"
     transform="translate(5.399,1.731)">
    <g
       id="sleeveUpperCloseA004_0">
      <g
         id="element">
        <g
           id="drawingObject">
          <path
             id="path"
             d="m 3.251,5.051 c 0.2,-1.6 -0.05,-5.85 -2.8,-6.75 q -0.7,-0.2 -1.7,0.85 -0.95,1.05 -1.9,3.05 c -1.25,2.6 -2.25,6.5 -2.25,6.5 0,0 2.75,2.1 4.25,2.35 2.6,0.5 4.6,-0.35 4.6,-0.35 0,0 -0.35,-4 -0.2,-5.65 z"
             inkscape:connector-curvature="0"
             style="fill:#9cbf6d" />
        </g>
        <g
           id="drawingObject1">
          <path
             id="path1"
             d="m -1.899,2.751 c 0.25,-1.65 1.35,-3.2 2,-4.45 -0.9,0.1 -2.15,1.55 -3.25,3.9 -1.25,2.6 -2.25,6.5 -2.25,6.5 0,0 2.75,2.1 4.25,2.35 2.6,0.5 4.6,-0.35 4.6,-0.35 -2.75,1 -4.75,-1 -5,-1.5 q -0.15,-0.3 0.8,-0.6 0.45,-0.2 0.95,-0.3 l -1,-0.6 c -1,-0.65 -1.75,-1.4 -1.1,-4.95 z"
             inkscape:connector-curvature="0"
             style="fill:#8cac62" />
        </g>
        <g
           id="drawingObject2">
          <path
             id="path2"
             d="m -0.299,11.201 c -1.9,-0.5 -2.95,-1.75 -3.25,-2.5 q -0.25,-0.75 -0.15,-1.9 0.15,-1.15 0.8,-3.75 c 0.45,-1.85 1.35,-3.3 2.35,-4.5 -0.8,0.55 -1.75,1.85 -2.6,3.65 -1.25,2.6 -2.25,6.5 -2.25,6.5 0,0 2.75,2.1 4.25,2.35 0.3,0.1 0.6,0.1 0.85,0.15 z"
             inkscape:connector-curvature="0"
             style="fill:#5c7140" />
        </g>
      </g>
    </g>
  </g>
</svg>
