<?xml version="1.0" encoding="UTF-8" standalone="no"?>
<!-- Generator: flash2svg, http://dissentgraphics.com/tools/flash2svg -->

<svg
   xmlns:dc="http://purl.org/dc/elements/1.1/"
   xmlns:cc="http://creativecommons.org/ns#"
   xmlns:rdf="http://www.w3.org/1999/02/22-rdf-syntax-ns#"
   xmlns:svg="http://www.w3.org/2000/svg"
   xmlns="http://www.w3.org/2000/svg"
   xmlns:sodipodi="http://sodipodi.sourceforge.net/DTD/sodipodi-0.dtd"
   xmlns:inkscape="http://www.inkscape.org/namespaces/inkscape"
   id="AvatarAssets"
   image-rendering="auto"
   version="1.1"
   x="0px"
   y="0px"
   width="12.15"
   height="7.6750002"
   viewBox="0 0 12.15 7.6750002"
   inkscape:version="0.48.4 r9939"
   sodipodi:docname="AvatarAssets_braceletCloseB010.svg">
  <metadata
     id="metadata25">
    <rdf:RDF>
      <cc:Work
         rdf:about="">
        <dc:format>image/svg+xml</dc:format>
        <dc:type
           rdf:resource="http://purl.org/dc/dcmitype/StillImage" />
      </cc:Work>
    </rdf:RDF>
  </metadata>
  <sodipodi:namedview
     pagecolor="#ffffff"
     bordercolor="#666666"
     borderopacity="1"
     objecttolerance="10"
     gridtolerance="10"
     guidetolerance="10"
     inkscape:pageopacity="0"
     inkscape:pageshadow="2"
     inkscape:window-width="640"
     inkscape:window-height="480"
     id="namedview23"
     showgrid="false"
     fit-margin-top="0"
     fit-margin-left="0"
     fit-margin-right="0"
     fit-margin-bottom="0"
     inkscape:zoom="1.9032258"
     inkscape:cx="39.449"
     inkscape:cy="-46.899"
     inkscape:window-x="0"
     inkscape:window-y="0"
     inkscape:window-maximized="0"
     inkscape:current-layer="AvatarAssets" />
  <defs
     id="defs3" />
  <g
     id="braceletCloseB11"
     overflow="visible"
     style="overflow:visible"
     transform="translate(7.449,-7.426)">
    <g
       id="braceletCloseB010_0">
      <g
         id="element">
        <g
           id="drawingObject">
          <path
             id="path"
             d="m -3.499,13.451 -0.45,1.2 c 0,0 0.75,-1.15 2.25,-1.35 1.5,-0.2 2.7,-0.2 2.7,-0.2 l -0.25,-0.25 1.05,-0.3 c 0.75,-0.2 0.95,-0.4 1.15,-0.35 l 0.15,0.05 0.2,-0.35 c 0,0 0.7,0.1 0,-0.6 -0.7,-0.65 -0.8,-1.05 -1.95,-1 -1.1,0.1 -4.85,3.15 -4.85,3.15 z"
             inkscape:connector-curvature="0"
             style="fill:#000000;fill-opacity:0.29800002" />
        </g>
        <g
           id="drawingObject1">
          <path
             id="path1"
             d="m 3.001,7.951 c -0.2,-0.15 -1.6,-0.25 -2.2,-0.15 l -0.7,0.1 0.5,-0.35 0.2,-0.1 c 0,0 -0.7,-0.1 -1.25,0.1 -0.5,0.25 -0.9,0.5 -1.25,0.4 l -0.6,-0.15 0.1,0.25 -0.95,-0.3 -1,-0.1 0.75,0.3 0.15,0.1 c 0,0 -0.65,-0.05 -0.95,-0.15 l -0.75,0.05 0.55,0.15 0.15,0.1 c 0,0 -0.55,-0.05 -0.85,0.05 l -0.45,0.2 0.45,0 -0.45,0 c 0,0 0.85,-0.05 1.05,0.1 l 0.2,0.1 -0.9,-0.1 0.55,0.25 q -0.4,0 -0.8,0.2 l -0.35,0.15 0.6,0.1 -0.45,0.2 0.45,-0.2 c 0,0 -0.85,0.35 -1.1,0.7 l -0.25,0.6 0.55,-0.3 -1,1.45 -0.45,0.85 0.55,-0.15 0,0.7 c 0.1,0.45 0.2,0.5 0.2,0.5 l 0.15,-0.45 0.1,0.4 -0.1,-0.4 c 0,0 0.25,0.75 0.15,1.05 l -0.15,0.3 0.8,-0.3 0.1,0.25 -0.1,-0.25 c 0,0 0.05,0.45 0.55,0.7 l 0.65,0.2 -0.15,-0.6 0.15,0.15 -0.15,-0.15 c 0,0 0.2,0.3 0.55,0.35 l 0.35,0.05 c 0,0 -0.35,-1 1.25,-1.65 1.65,-0.6 1.35,-0.65 2,-0.7 0.65,0 1.25,-0.15 1.25,-0.15 l -0.5,-0.1 1.05,-0.15 c 0.6,0.05 0.45,0.1 0.5,0.1 l -0.025,-0.025 0.475,-0.275 0.6,-0.1 -0.05,-0.25 0.5,0.15 0.05,0.15 0.5,-0.25 0.3,0 -0.4,-0.5 0.65,0.1 0.2,0.1 -0.85,-0.85 0.2,0 -0.2,0 c 0,0 0.35,-0.05 0.65,0.2 l 0.35,0.25 c 0,0 -0.25,-0.8 -0.6,-1.05 l -0.55,-0.5 0.5,0.25 0.15,0.15 c 0,0 -0.1,-0.55 -0.4,-0.75 l -0.7,-0.65 0.35,0 0.3,0.05 -0.75,-0.5 z"
             inkscape:connector-curvature="0"
             style="fill:#fd989a" />
        </g>
        <g
           id="group1">
          <g
             id="drawingObject2">
            <path
               id="path2"
               d="m -4.399,8.101 0.15,0.1 c 0,0 -0.55,-0.05 -0.85,0.05 l -0.45,0.2 0.45,0 -0.45,0 c 0,0 0.85,-0.05 1.05,0.1 l 0.2,0.1 -0.9,-0.1 0.55,0.25 c -0.65,0 -1.15,0.35 -1.15,0.35 l 0.35,-0.15 -0.35,0.15 0.6,0.1 -0.45,0.2 0.45,-0.2 c 0,0 -0.85,0.35 -1.1,0.7 l -0.25,0.6 0.55,-0.3 -1,1.45 -0.45,0.85 0.55,-0.15 0,0.7 c 0.1,0.45 0.2,0.5 0.2,0.5 l 0.15,-0.45 0.1,0.4 -0.1,-0.4 c 0,0 0.25,0.75 0.15,1.05 l -0.15,0.3 0.8,-0.3 0.1,0.25 -0.1,-0.25 c 0,0 0.05,0.45 0.55,0.7 l 0.65,0.2 -0.15,-0.6 0.15,0.15 -0.15,-0.15 c 0,0 0.2,0.3 0.55,0.35 l 0.35,0.05 c 0,0 -0.35,-1 1.25,-1.65 1.65,-0.6 1.35,-0.65 2,-0.7 0.65,0 1.25,-0.15 1.25,-0.15 l -0.5,-0.1 1.05,-0.15 0.45,0.1 c 0.05,-0.05 0.15,-0.2 0.5,-0.3 l 0.6,-0.1 -0.05,-0.25 0.5,0.15 0.05,0.15 0.5,-0.25 0.3,0 -0.4,-0.5 0.65,0.1 0.2,0.1 -0.85,-0.85 0.2,0 -0.2,0 c 0,0 0.35,-0.05 0.65,0.2 l 0.35,0.25 c 0,0 -0.25,-0.8 -0.6,-1.05 l -0.55,-0.5 0.5,0.25 0.15,0.15 c 0,0 -0.1,-0.55 -0.4,-0.75 l -0.7,-0.65 0.35,0 0.3,0.05 -0.75,-0.5 -0.3,-0.1 c 0.2,0.15 0.25,0.35 0.25,0.35 l -0.15,0.3 0.2,0.2 c 0.2,0.2 0.35,0.5 0.35,0.5 0,0 -0.4,-0.15 -0.6,-0.15 -0.2,0 0,0 0.25,0.45 0.25,0.4 0.25,0.75 0.25,0.75 l -0.7,-0.5 0.25,0.3 c 0.2,0.35 -0.05,0.8 -0.05,0.8 l -0.2,-0.3 -0.35,0.45 c -0.35,0.4 -1.15,0.25 -1.15,0.25 l 0.5,-0.3 c 0,0 0,-0.1 -0.8,-0.1 -0.5,0 -0.65,0.1 -0.75,0.15 l 0.3,-0.5 -0.55,0.3 c -0.6,0.3 -1.25,0.25 -1.25,0.25 l 0.85,-0.55 c 0,0 -0.25,0.15 -1,0.25 l -1.3,-0.1 0.35,-0.2 1.3,-0.6 -0.25,-0.1 -1.8,-0.5 1.25,-0.05 c 0.85,-0.05 1.35,-0.05 1.55,0 l -0.6,-0.2 -0.9,-0.5 1.85,0.1 c 0,0 -0.5,-0.05 -0.9,-0.35 -0.15,-0.1 -0.2,-0.2 -0.15,-0.3 -0.15,0.05 -0.35,0.05 -0.45,0 l -0.6,-0.15 0.1,0.25 -0.95,-0.3 -1,-0.1 0.75,0.3 0.15,0.1 c 0,0 -0.65,-0.05 -0.95,-0.15 l -0.75,0.05 0.55,0.15 z"
               inkscape:connector-curvature="0"
               style="fill:#000000;fill-opacity:0.08600003" />
          </g>
        </g>
        <g
           id="group2">
          <g
             id="drawingObject3">
            <path
               id="path3"
               d="m 3.401,9.651 -0.1,0.05 0.25,0.3 c 0.1,0.1 0.1,0.35 0.15,0.5 l 0.65,0.2 0.35,0.25 c 0,0 -0.25,-0.8 -0.6,-1.05 -0.75,-0.45 -0.8,-0.2 -0.8,-0.2"
               inkscape:connector-curvature="0"
               style="fill:#000000;fill-opacity:0.08600003" />
          </g>
          <g
             id="drawingObject4">
            <path
               id="path4"
               d="m -3.699,9.801 -0.7,0.05 -1,0.3 0.2,-0.3 0.75,-0.85 c 0,0 -0.45,0 -1.05,0.2 l 0.3,0.05 -0.45,0.2 0.45,-0.2 c 0,0 -0.85,0.35 -1.1,0.7 l -0.25,0.6 0.55,-0.3 -1,1.45 -0.45,0.85 0.55,-0.15 0,0.7 c 0.1,0.45 0.2,0.5 0.2,0.5 l 0.15,-0.45 0.1,0.4 -0.1,-0.4 c 0,0 0.25,0.75 0.15,1.05 l -0.15,0.3 0.8,-0.3 0.1,0.25 -0.1,-0.25 c 0,0 0.05,0.45 0.55,0.7 l 0.65,0.2 -0.15,-0.6 0.15,0.15 -0.15,-0.15 c 0,0 0.2,0.3 0.55,0.35 l 0.35,0.05 c 0,0 -0.35,-1 1.25,-1.65 1.65,-0.6 1.35,-0.65 2,-0.7 0.65,0 1.25,-0.15 1.25,-0.15 l -0.5,-0.1 1.05,-0.15 0.45,0.1 c 0.05,-0.05 0.15,-0.2 0.5,-0.3 l 0.6,-0.1 -0.05,-0.25 0.5,0.15 0.05,0.15 0.5,-0.25 0.3,0 -0.4,-0.5 0.65,0.1 0.2,0.1 -0.85,-0.85 0,0.3 -0.35,-0.05 -0.05,0.55 -0.45,-0.1 c 0,0 -0.35,0.35 -1.4,0.4 l -1.25,0.15 0.2,-0.3 -0.55,0.2 -1.55,0.3 0.55,-0.45 -1.3,0 c -0.8,0.05 -1.55,0.5 -1.55,0.5 l 0.5,-0.25 -0.5,0.25 0.5,-0.6 -0.9,0.1 c -0.55,0 -0.8,-0.3 -0.65,-0.75 0.15,-0.4 1.35,-0.95 1.35,-0.95 z"
               inkscape:connector-curvature="0"
               style="fill:#000000;fill-opacity:0.08600003" />
          </g>
        </g>
        <g
           id="group3">
          <g
             id="drawingObject5">
            <path
               id="path5"
               d="m -6.049,10.401 -0.25,0.25 -1.15,1.9 0.55,-0.15 0,0.7 c 0.1,0.45 0.2,0.5 0.2,0.5 l 0.15,-0.45 0.1,0.4 -0.1,-0.4 c 0,0 0.25,0.75 0.15,1.05 l -0.15,0.3 0.8,-0.3 0.1,0.25 -0.1,-0.25 c 0,0 0.05,0.45 0.55,0.7 l 0.65,0.2 -0.15,-0.6 0.15,0.15 -0.15,-0.15 c 0,0 0.2,0.3 0.55,0.35 l 0.35,0.05 c 0,0 -0.35,-1 1.25,-1.65 1.65,-0.6 1.35,-0.65 2,-0.7 0.65,0 1.25,-0.15 1.25,-0.15 l -0.5,-0.1 1.05,-0.15 0.45,0.1 c 0.05,-0.05 0.15,-0.2 0.5,-0.3 l 0.6,-0.1 -0.05,-0.25 0.5,0.15 0.05,0.15 0.2,-0.2 -0.05,0 q -0.45,-0.2 -0.8,-0.15 l -0.2,0.1 -0.2,0.15 c -0.2,0.1 -0.4,0.15 -1.3,0.15 -0.9,0 -1.15,0.45 -1.15,0.45 l 0,-0.25 -0.85,0.2 c -0.55,0.1 -0.5,0.05 -1.7,0.4 -1.2,0.4 -1.4,0.7 -1.4,0.7 l 0.1,-0.6 c 0,0 -0.85,0.8 -1.55,0.45 -0.7,-0.4 -0.3,-1.1 -0.3,-1.1 l -0.1,0.4 0.1,-0.4 c 0,0 -0.25,0.5 -0.4,0.6 l -0.1,-0.6 c -0.15,-0.55 0.35,-1.8 0.35,-1.8 z"
               inkscape:connector-curvature="0"
               style="fill:#000000;fill-opacity:0.08600003" />
          </g>
        </g>
      </g>
    </g>
  </g>
</svg>
