<?xml version="1.0" encoding="UTF-8" standalone="no"?>
<!-- Generator: flash2svg, http://dissentgraphics.com/tools/flash2svg -->

<svg
   xmlns:dc="http://purl.org/dc/elements/1.1/"
   xmlns:cc="http://creativecommons.org/ns#"
   xmlns:rdf="http://www.w3.org/1999/02/22-rdf-syntax-ns#"
   xmlns:svg="http://www.w3.org/2000/svg"
   xmlns="http://www.w3.org/2000/svg"
   xmlns:sodipodi="http://sodipodi.sourceforge.net/DTD/sodipodi-0.dtd"
   xmlns:inkscape="http://www.inkscape.org/namespaces/inkscape"
   id="AvatarAssets"
   image-rendering="auto"
   version="1.1"
   x="0px"
   y="0px"
   width="8"
   height="11.55"
   viewBox="0 0 8 11.55"
   inkscape:version="0.48.4 r9939"
   sodipodi:docname="AvatarAssets_sleeveLowerClose20101103White.svg">
  <metadata
     id="metadata3147">
    <rdf:RDF>
      <cc:Work
         rdf:about="">
        <dc:format>image/svg+xml</dc:format>
        <dc:type
           rdf:resource="http://purl.org/dc/dcmitype/StillImage" />
      </cc:Work>
    </rdf:RDF>
  </metadata>
  <sodipodi:namedview
     pagecolor="#ffffff"
     bordercolor="#666666"
     borderopacity="1"
     objecttolerance="10"
     gridtolerance="10"
     guidetolerance="10"
     inkscape:pageopacity="0"
     inkscape:pageshadow="2"
     inkscape:window-width="640"
     inkscape:window-height="480"
     id="namedview3145"
     showgrid="false"
     fit-margin-top="0"
     fit-margin-left="0"
     fit-margin-right="0"
     fit-margin-bottom="0"
     inkscape:zoom="1.9032258"
     inkscape:cx="36.95"
     inkscape:cy="-51.95"
     inkscape:window-x="0"
     inkscape:window-y="0"
     inkscape:window-maximized="0"
     inkscape:current-layer="AvatarAssets" />
  <defs
     id="defs3135" />
  <g
     id="sleeveLowerClose20101103White1"
     overflow="visible"
     style="overflow:visible"
     transform="translate(4.95,1.5)">
    <g
       id="sleeveLowerClose20101103White_0">
      <g
         id="element">
        <path
           id="path"
           d="m -0.6,0.4 c 0.3,-0.5 1.35,-0.7 1.4,-1.2 0.15,0 0.3,-0.05 0.45,-0.15 C 1.3,-1 1.35,-1 1.4,-1.05 l 0,-0.05 -0.1,0 -0.85,-0.3 -0.65,-0.1 -0.7,0.1 c -0.2,0.5 -0.85,1 -1.1,1.4 -0.45,0.6 -0.85,1.45 -0.7,2.2 l 0.1,0 c 0.05,0.7 -0.15,1.5 -0.05,2.2 0.05,0.2 0.25,0.35 0.25,0.65 0,0.35 -0.25,0.6 -0.15,0.95 0.25,0.05 0.5,0.2 0.6,0.45 l -0.1,0.1 c 0.35,0.3 0.9,0.1 1.2,0.4 -0.4,0.1 -2,-0.05 -1.7,0.8 l 0.05,0.1 0.15,0 C -1.95,7.7 -1.55,7.65 -1.1,7.6 1.1,7.45 2.5,8.15 2.65,8.25 2.7,8.3 2.8,8.3 2.85,8.35 L 2.9,8.4 c 0,0 -0.25,-3.25 -0.25,-4.05 0,-0.05 0,-0.05 0,-0.1 l -0.6,0 C 2.2,4.4 2.35,4.6 2.35,4.85 L 2.2,4.75 C 2.6,5.3 2.75,6.65 1.95,7 1.6,7.2 0.85,6.95 0.55,6.8 0.45,6.7 0.45,6.45 0.3,6.35 0.05,6.1 -0.45,5.95 -0.8,5.8 -0.05,5.75 0.7,5.85 1.45,5.8 1.1,5.05 -0.45,4.85 -1.2,4.6 L -0.1,4.5 C -0.3,4.1 -0.8,4.2 -1,3.85 -1.15,3.7 -1.05,3.2 -1.1,3 -1.1,2.8 -1.35,3 -1.4,2.7 -1.5,2.2 -0.85,1.3 -0.65,0.85 L -0.6,0.4 z"
           inkscape:connector-curvature="0"
           style="fill:#d8dede" />
        <path
           id="path1"
           d="m 0.8,-0.8 c -0.05,0.5 -1.1,0.7 -1.4,1.2 L -0.65,0.85 C -0.85,1.3 -1.5,2.2 -1.4,2.7 -1.35,3 -1.1,2.8 -1.1,3 -1.05,3.2 -1.15,3.7 -1,3.85 -0.8,4.2 -0.3,4.1 -0.1,4.5 L -1.2,4.6 C -0.45,4.85 1.1,5.05 1.45,5.8 0.7,5.85 -0.05,5.75 -0.8,5.8 -0.45,5.95 0.05,6.1 0.3,6.35 0.45,6.45 0.45,6.7 0.55,6.8 0.85,6.95 1.6,7.2 1.95,7 2.75,6.65 2.6,5.3 2.2,4.75 l 0.15,0.1 C 2.35,4.6 2.2,4.4 2.05,4.25 l 0.6,0 C 2.65,4 2.7,3.65 2.85,3.2 3,2.75 3.05,2.35 3.05,2.05 c 0,-0.7 -0.2,-1.4 -0.65,-2.1 -0.25,-0.45 -0.6,-0.75 -1,-1 0.35,0.25 0.65,0.5 0.8,0.75 L 1.25,-0.95 C 1.1,-0.85 0.95,-0.8 0.8,-0.8 z M 0.45,-1.4 -0.2,-1.5 c 0.55,0 1.05,0.15 1.5,0.4 L 0.45,-1.4 z m -1.35,0 c -0.65,0.15 -1.15,0.45 -1.55,0.85 0.55,-0.65 1.3,-0.95 2.25,-0.95 l -0.7,0.1 z M -2.35,7.85 -2.5,7.85 -2.7,8 c 0.05,-0.05 0.2,-0.1 0.35,-0.15 z"
           inkscape:connector-curvature="0"
           style="fill:#eaf2f2" />
        <path
           id="path2"
           d="M 2.2,-0.3 C 2.05,-0.55 1.75,-0.8 1.4,-1.05 1.35,-1 1.3,-1 1.25,-0.95 L 2.2,-0.3 z m -3.1,-1.1 c -0.65,0.15 -1.15,0.45 -1.55,0.85 C -2.6,-0.3 -2.7,-0.1 -2.7,0.05 -2.9,0.7 -2.65,1.3 -2.95,2 -3.25,2.7 -3.7,3.4 -3.8,4.2 -3.9,5.1 -3.9,6 -3.85,6.85 l 0.6,0.1 -0.2,0.6 c 0.3,0.05 0.4,0.25 0.4,0.5 C -3,8 -2.95,8 -2.9,8 l 0.2,0 0.2,-0.15 -0.05,-0.1 c -0.3,-0.85 1.3,-0.7 1.7,-0.8 -0.3,-0.3 -0.85,-0.1 -1.2,-0.4 l 0.1,-0.1 C -2.05,6.2 -2.3,6.05 -2.55,6 -2.65,5.65 -2.4,5.4 -2.4,5.05 -2.4,4.75 -2.6,4.6 -2.65,4.4 -2.75,3.7 -2.55,2.9 -2.6,2.2 l -0.1,0 C -2.85,1.45 -2.45,0.6 -2,0 c 0.25,-0.4 0.9,-0.9 1.1,-1.4 z"
           inkscape:connector-curvature="0"
           style="fill:#aeb3b3" />
        <path
           id="path9"
           d="M -2.45,-0.55 C -2.6,-0.4 -2.7,-0.25 -2.8,-0.1 L -2.9,0.05 C -3.1,0.4 -3.25,0.75 -3.4,1.2 Q -3.85,2.7 -4.8,9.05 L -4.95,9.2 c 0.25,0.25 0.45,0.6 0.75,0.85 0,-0.3 0.15,-0.85 0.2,-1.5 L -3.95,8.5 c 0.3,-0.15 0.6,-0.3 0.9,-0.45 0,-0.25 -0.1,-0.45 -0.4,-0.5 l 0.2,-0.6 -0.6,-0.1 C -3.9,6 -3.9,5.1 -3.8,4.2 -3.7,3.4 -3.25,2.7 -2.95,2 -2.65,1.3 -2.9,0.7 -2.7,0.05 c 0,-0.15 0.1,-0.35 0.25,-0.6 z"
           inkscape:connector-curvature="0"
           style="fill:#8e9191" />
        <path
           id="path14"
           d="M 2.85,8.35 C 2.8,8.3 2.7,8.3 2.65,8.25 2.65,8.6 2.7,8.65 2.75,8.7 2.8,8.6 2.85,8.4 2.85,8.35 z"
           inkscape:connector-curvature="0"
           style="fill:#636666" />
      </g>
    </g>
  </g>
</svg>
