<?xml version="1.0" encoding="UTF-8" standalone="no"?>
<!-- Generator: flash2svg, http://dissentgraphics.com/tools/flash2svg -->

<svg
   xmlns:dc="http://purl.org/dc/elements/1.1/"
   xmlns:cc="http://creativecommons.org/ns#"
   xmlns:rdf="http://www.w3.org/1999/02/22-rdf-syntax-ns#"
   xmlns:svg="http://www.w3.org/2000/svg"
   xmlns="http://www.w3.org/2000/svg"
   xmlns:sodipodi="http://sodipodi.sourceforge.net/DTD/sodipodi-0.dtd"
   xmlns:inkscape="http://www.inkscape.org/namespaces/inkscape"
   id="AvatarAssets"
   image-rendering="auto"
   version="1.1"
   x="0px"
   y="0px"
   width="9.0393763"
   height="12.131667"
   viewBox="0 0 9.0393763 12.131667"
   inkscape:version="0.48.4 r9939"
   sodipodi:docname="AvatarAssets_sleeveUpperCloseA002b.svg">
  <metadata
     id="metadata3215">
    <rdf:RDF>
      <cc:Work
         rdf:about="">
        <dc:format>image/svg+xml</dc:format>
        <dc:type
           rdf:resource="http://purl.org/dc/dcmitype/StillImage" />
      </cc:Work>
    </rdf:RDF>
  </metadata>
  <sodipodi:namedview
     pagecolor="#ffffff"
     bordercolor="#666666"
     borderopacity="1"
     objecttolerance="10"
     gridtolerance="10"
     guidetolerance="10"
     inkscape:pageopacity="0"
     inkscape:pageshadow="2"
     inkscape:window-width="640"
     inkscape:window-height="480"
     id="namedview3213"
     showgrid="false"
     fit-margin-top="0"
     fit-margin-left="0"
     fit-margin-right="0"
     fit-margin-bottom="0"
     inkscape:zoom="1.9032258"
     inkscape:cx="37.299"
     inkscape:cy="-51.367333"
     inkscape:window-x="0"
     inkscape:window-y="0"
     inkscape:window-maximized="0"
     inkscape:current-layer="AvatarAssets" />
  <defs
     id="defs3202" />
  <g
     id="sleeveUpperCloseA002b1"
     overflow="visible"
     style="overflow:visible"
     transform="translate(5.299,1.499)">
    <g
       id="sleeveUpperCloseA002b_0">
      <g
         id="element">
        <g
           id="drawingObject">
          <path
             id="path"
             d="m 0.901,-1.449 q -0.8,-0.15 -1.75,0.35 -1,0.6 -1.55,1.65 c -0.75,1.5 -2,5.6 -2.45,6.5 l -0.45,0.85 c 0,0 1.55,1.65 3.95,2.25 3.05,0.85 4.5,0.2 4.5,0.2 l 0.55,-5 c 0.15,-1.3 0,-6.2 -2.8,-6.8 z"
             inkscape:connector-curvature="0"
             style="fill:#f7a8bd" />
        </g>
        <g
           id="drawingObject1">
          <path
             id="path1"
             d="m 0.551,-1.499 c -1,0 -2.3,0.7 -2.95,2.05 -0.75,1.5 -2,5.6 -2.45,6.5 l -0.45,0.85 c 0,0 1.55,1.65 3.95,2.25 q 3.05,0.85 4.5,0.2 l 0.05,-0.75 c -1.15,0.45 -3.1,0.15 -4.45,-0.85 -1.35,-1 -1.25,-2.75 -1.25,-2.75 l 0.6,0.85 c 1.05,1.55 3.15,1.4 3.15,1.4 0,0 -1.9,-1.9 -2.25,-2.65 -0.4,-0.75 -1.1,-2.5 -0.65,-4.05 0.25,-1.05 1.25,-2.3 2.2,-3.05 z"
             inkscape:connector-curvature="0"
             style="fill:#d9879d" />
        </g>
        <g
           id="drawingObject2">
          <path
             id="path2"
             d="m -3.549,6.851 c -0.2,-1.25 0.8,-3.6 1.15,-4.75 0.2,-0.8 0.85,-2.2 1.5,-3.15 -0.6,0.35 -1.15,0.85 -1.5,1.6 -0.75,1.5 -2,5.6 -2.45,6.5 l -0.45,0.85 c 0,0 1.55,1.65 3.95,2.25 l 1.275,0.275 0.025,0.025 c -0.45,-0.1 -0.8,-0.25 -1.05,-0.45 q -2.15,-1.3 -2.45,-3.15 z"
             inkscape:connector-curvature="0"
             style="fill:#c27287" />
        </g>
      </g>
    </g>
  </g>
</svg>
