<?xml version="1.0" encoding="UTF-8" standalone="no"?>
<!-- Generator: flash2svg, http://dissentgraphics.com/tools/flash2svg -->

<svg
   xmlns:dc="http://purl.org/dc/elements/1.1/"
   xmlns:cc="http://creativecommons.org/ns#"
   xmlns:rdf="http://www.w3.org/1999/02/22-rdf-syntax-ns#"
   xmlns:svg="http://www.w3.org/2000/svg"
   xmlns="http://www.w3.org/2000/svg"
   xmlns:sodipodi="http://sodipodi.sourceforge.net/DTD/sodipodi-0.dtd"
   xmlns:inkscape="http://www.inkscape.org/namespaces/inkscape"
   id="AvatarAssets"
   image-rendering="auto"
   version="1.1"
   x="0px"
   y="0px"
   width="10.2"
   height="14.301317"
   viewBox="0 0 10.2 14.301317"
   inkscape:version="0.48.4 r9939"
   sodipodi:docname="AvatarAssets_sleeveUpperCloseA005b.svg">
  <metadata
     id="metadata3300">
    <rdf:RDF>
      <cc:Work
         rdf:about="">
        <dc:format>image/svg+xml</dc:format>
        <dc:type
           rdf:resource="http://purl.org/dc/dcmitype/StillImage" />
      </cc:Work>
    </rdf:RDF>
  </metadata>
  <sodipodi:namedview
     pagecolor="#ffffff"
     bordercolor="#666666"
     borderopacity="1"
     objecttolerance="10"
     gridtolerance="10"
     guidetolerance="10"
     inkscape:pageopacity="0"
     inkscape:pageshadow="2"
     inkscape:window-width="640"
     inkscape:window-height="480"
     id="namedview3298"
     showgrid="false"
     fit-margin-top="0"
     fit-margin-left="0"
     fit-margin-right="0"
     fit-margin-bottom="0"
     inkscape:zoom="1.9032258"
     inkscape:cx="38.349"
     inkscape:cy="-49.197683"
     inkscape:window-x="0"
     inkscape:window-y="0"
     inkscape:window-maximized="0"
     inkscape:current-layer="AvatarAssets" />
  <defs
     id="defs3277" />
  <g
     id="sleeveUpperCloseA005b1"
     overflow="visible"
     style="overflow:visible"
     transform="translate(6.349,1.499)">
    <g
       id="sleeveUpperCloseA005b_0">
      <g
         id="element">
        <g
           id="drawingObject">
          <path
             id="path"
             d="m 3.551,6.051 c -0.1,-1.8 -0.1,-7.5 -3.3,-7.55 q -2,0 -3.8,5.05 c -1.25,3.75 -2.1,5 -2.4,5.55 l -0.4,0.6 1,1.05 -1,-1.05 c 0,0 1.45,1.95 3.6,2.55 2.15,0.6 3.9,0.7 4.7,0.35 0.8,-0.3 1.9,-1 1.9,-1 0,0 -0.15,-3.8 -0.3,-5.55 z"
             inkscape:connector-curvature="0"
             style="fill:#de4d95" />
        </g>
        <g
           id="drawingObject1">
          <path
             id="path1"
             d="m -1.399,3.001 -0.4,-0.7 c 0,0 0.55,1.6 1.6,0.7 1.05,-0.9 0.8,-2.2 0.3,-2.35 l -0.45,-0.15 c 0,0 1.05,-1.05 0.4,-1.65 -0.35,-0.3 -0.8,0 -1.35,0.5 -0.55,0.55 -1.15,1.45 -1.7,2.8 -0.05,0.5 0.05,0.95 0.4,0.9 0.8,-0.2 0.8,-0.75 0.8,-0.75"
             inkscape:connector-curvature="0"
             style="fill:#efecd4" />
        </g>
        <g
           id="drawingObject2">
          <path
             id="path2"
             d="m 2.051,5.151 c 0.1,-0.65 -0.15,-1 -0.7,-1.05 -0.9,-0.05 -2.35,0.95 -1.85,1.45 0.5,0.5 1.05,0.75 1.05,0.75 l -0.5,0.2 0.5,-0.2 c 0,0 -1,0.25 -1.1,1 -0.1,0.75 1.25,2.3 1.7,1.85 l 0.85,-0.95 c 0,0 -0.15,1.5 0.55,1.3 0.7,-0.2 1.05,-0.7 1,-1.4 -0.05,-0.7 -0.5,-1.1 -0.5,-1.1 l 0.25,0.3 -0.25,-0.3 q 0.45,-0.4 0.4,-1.25 c -0.1,-0.85 -0.1,-1.45 -0.7,-1.4 -0.25,0.05 -0.45,0.2 -0.6,0.45 -0.05,0.1 -0.1,0.2 -0.1,0.35 z"
             inkscape:connector-curvature="0"
             style="fill:#efecd4" />
        </g>
        <g
           id="drawingObject3">
          <path
             id="path3"
             d="m -2.299,5.051 c -0.2,-0.35 -0.9,-0.65 -1.55,-0.6 -1,2.8 -1.7,3.95 -2,4.5 0,0.55 0.35,1.45 1.05,1.4 0.8,-0.05 0.9,-1.25 0.95,-1.45 l 0.05,-0.2 c 0,0 0.75,1.15 1.3,0.8 q 0.45,-0.35 0.7,-1.5 0.3,-1.25 -0.2,-1.55 c -0.5,-0.25 -0.75,-0.2 -0.85,-0.15 0.25,-0.2 0.85,-0.8 0.55,-1.25 z"
             inkscape:connector-curvature="0"
             style="fill:#efecd4" />
        </g>
        <g
           id="drawingObject4">
          <path
             id="path4"
             d="m -1.799,0.451 c 0,0 -0.05,-0.25 -0.35,0.15 -0.35,0.35 -0.1,0.5 -0.1,0.5 l -0.25,0.45 0.25,-0.45 c 0,0 -0.6,0.85 -0.15,1 0.4,0.1 0.75,-0.85 0.75,-0.85 l 0.25,0.4 c 0.15,0.2 0.9,0.55 0.95,0.15 0.05,-0.4 -1.15,-1 -1.15,-1 l 0.6,0.35 -0.6,-0.35 c 0,0 0.15,-0.2 0.5,-0.45 0.35,-0.25 0.85,-0.85 0.3,-0.8 q -0.35,0.05 -0.7,0.45 -0.2,0.25 -0.3,0.45 z"
             inkscape:connector-curvature="0"
             style="fill:#de4d95" />
        </g>
        <g
           id="drawingObject5">
          <path
             id="path5"
             d="m 1.801,5.651 c -0.2,-0.6 -0.75,-0.7 -0.8,-0.3 q -0.05,0.45 0.65,1.15 l -0.35,0.45 c -0.3,0.25 -0.8,0.65 -0.3,1 0.45,0.35 1,-0.7 1,-0.7 l 0.35,0.85 c 0.2,0.45 0.45,0.3 0.6,0 0.15,-0.3 -0.6,-1.15 -0.6,-1.15 l 0.35,0.45 -0.35,-0.45 0.5,-0.6 c 0.25,-0.25 0.3,-0.75 -0.05,-0.9 -0.35,-0.15 -0.65,1.1 -0.65,1.1 0,0 -0.15,-0.25 -0.35,-0.9 z"
             inkscape:connector-curvature="0"
             style="fill:#de4d95" />
        </g>
        <g
           id="drawingObject6">
          <path
             id="path6"
             d="m -3.549,8.101 c 0.25,0.1 0.75,0.05 0.8,-0.4 0.05,-0.5 -1.5,-0.8 -1.5,-0.8 l 0.75,0.2 -0.75,-0.2 0.85,-0.95 c 0.35,-0.4 0.15,-0.65 -0.25,-0.6 q -0.3,0.05 -0.6,0.6 -0.15,0.3 -0.25,0.55 c -0.25,0.1 -0.65,1.05 -0.65,1.05 l 0.25,0.15 -0.15,0.35 c -0.1,0.3 -0.25,1.05 0.2,1.15 0.45,0.05 0.45,-1.7 0.45,-1.7 l 0.85,0.6 z"
             inkscape:connector-curvature="0"
             style="fill:#de4d95" />
        </g>
        <g
           id="drawingObject7">
          <path
             id="path7"
             d="m 0.401,-1.499 -0.15,0 c -1.05,0 -2.5,1.35 -3.8,5.05 -1.25,3.75 -2.1,5 -2.4,5.55 l -0.4,0.6 1,1.05 -1,-1.05 c 0,0 1.45,1.95 3.6,2.55 2.15,0.6 3.9,0.7 4.7,0.35 0.8,-0.3 1.9,-1 1.9,-1 l -0.1,-2.2 q -0.5,2.1 -2.95,1.6 c -1.7,-0.4 -2.5,-1.9 -2.5,-1.9 l 0.6,0.8 -0.6,-0.8 1,0.4 c 0.95,0.25 1.5,0.1 1.5,0.1 0,0 -1.05,-0.75 -1.85,-1.95 -0.85,-1.2 -0.75,-4.8 -0.2,-6.5 0.35,-1.05 1.1,-2.05 1.65,-2.65 z"
             inkscape:connector-curvature="0"
             style="fill:#000000;fill-opacity:0.19599998" />
        </g>
      </g>
    </g>
  </g>
</svg>
