<?xml version="1.0" encoding="UTF-8" standalone="no"?>
<!-- Generator: flash2svg, http://dissentgraphics.com/tools/flash2svg -->

<svg
   xmlns:dc="http://purl.org/dc/elements/1.1/"
   xmlns:cc="http://creativecommons.org/ns#"
   xmlns:rdf="http://www.w3.org/1999/02/22-rdf-syntax-ns#"
   xmlns:svg="http://www.w3.org/2000/svg"
   xmlns="http://www.w3.org/2000/svg"
   xmlns:sodipodi="http://sodipodi.sourceforge.net/DTD/sodipodi-0.dtd"
   xmlns:inkscape="http://www.inkscape.org/namespaces/inkscape"
   id="AvatarAssets"
   image-rendering="auto"
   version="1.1"
   x="0px"
   y="0px"
   width="8.9962234"
   height="16.808846"
   viewBox="0 0 8.9962234 16.808846"
   inkscape:version="0.48.4 r9939"
   sodipodi:docname="AvatarAssets_coatSleeveUpperCloseC006.svg">
  <metadata
     id="metadata3069">
    <rdf:RDF>
      <cc:Work
         rdf:about="">
        <dc:format>image/svg+xml</dc:format>
        <dc:type
           rdf:resource="http://purl.org/dc/dcmitype/StillImage" />
      </cc:Work>
    </rdf:RDF>
  </metadata>
  <sodipodi:namedview
     pagecolor="#ffffff"
     bordercolor="#666666"
     borderopacity="1"
     objecttolerance="10"
     gridtolerance="10"
     guidetolerance="10"
     inkscape:pageopacity="0"
     inkscape:pageshadow="2"
     inkscape:window-width="640"
     inkscape:window-height="480"
     id="namedview3067"
     showgrid="false"
     fit-margin-top="0"
     fit-margin-left="0"
     fit-margin-right="0"
     fit-margin-bottom="0"
     inkscape:zoom="1.9032258"
     inkscape:cx="37.302759"
     inkscape:cy="-46.660262"
     inkscape:window-x="0"
     inkscape:window-y="0"
     inkscape:window-maximized="0"
     inkscape:current-layer="AvatarAssets" />
  <defs
     id="defs3052" />
  <g
     id="coatSleeveUpperCloseC7"
     overflow="visible"
     style="overflow:visible"
     transform="translate(5.3027592,1.469108)">
    <g
       id="coatSleeveUpperCloseC006_0">
      <g
         id="element">
        <g
           id="drawingObject">
          <path
             id="path"
             d="M 2.315,-0.506 C 1.445,-1.453 0.083,-2.068 -1.286,-0.554 Q -2.705,0.961 -4.74,6.592 c -0.709,1.988 -0.801,4.827 0.085,6.626 0.838,1.845 3.859,2.839 5.431,1.514 C 2.349,13.407 3.277,9.858 3.615,6.829 3.954,3.848 3.134,0.44 2.315,-0.506 z"
             inkscape:connector-curvature="0"
             style="fill:#721016" />
        </g>
        <g
           id="drawingObject1">
          <path
             id="path1"
             d="m -3.184,4.463 c 0.17,-1.467 1.659,-4.449 2.438,-5.49 q -0.099,0.048 -0.54,0.473 c -1.467,1.609 -2.744,5.206 -3.454,7.146 -0.661,1.893 -0.808,4.496 -0.07,6.342 0.146,-0.19 0.242,-0.379 0.39,-0.474 0.343,-0.331 0.412,-1.845 0.412,-1.845 l -0.083,0.804 0.083,-0.804 c 0,0 -0.41,-0.521 -0.471,-1.041 C -4.49,9.053 -4.556,8.249 -4.173,7.444 -3.79,6.592 -3.245,6.356 -3.245,6.356 L -3.54,6.592 -3.245,6.356 c 0,0 -0.154,-0.19 0.061,-1.893 z"
             inkscape:connector-curvature="0"
             style="fill:#510b0f" />
        </g>
        <g
           id="drawingObject2">
          <path
             id="path2"
             d="M 2.795,0.961 C 2.278,0.156 1.955,-0.979 1.06,-0.743 q -0.796,0.189 -1.573,1.325 -0.73,0.994 -0.959,1.988 c -0.276,1.183 -0.36,1.987 -0.156,2.177 0.204,0.189 1.064,0.662 0.865,0.71 l -1.235,0.757 1.104,0.189 -1.104,-0.189 c 0,0 1.904,0.189 3.017,0.804 C 2.18,7.586 2.786,7.87 2.782,7.681 2.778,7.491 2.312,6.687 2.31,6.592 2.307,6.45 3.412,6.687 3.433,5.267 3.504,3.848 3.312,1.813 2.795,0.961 z"
             inkscape:connector-curvature="0"
             style="fill:#8a131b" />
        </g>
        <g
           id="drawingObject3">
          <path
             id="path3"
             d="M -2.863,7.917 C -3.055,8.296 -2.855,8.296 -1.958,8.154 -1.011,8.012 0.49,8.059 1.046,8.343 1.602,8.627 2.422,9.621 2.515,9.29 2.658,8.959 2.346,8.343 1.938,7.965 Q 1.581,7.633 0.674,7.302 -0.331,7.018 -1.08,7.066 c -1.099,0.047 -1.591,0.473 -1.783,0.851 z"
             inkscape:connector-curvature="0"
             style="fill:#8a131b" />
        </g>
        <g
           id="drawingObject4">
          <path
             id="path4"
             d="m -2.141,9.006 -1.045,0.236 c 0,0 1.839,-0.52 2.894,-0.283 1.054,0.189 1.815,0.709 2.07,0.946 l 0.507,0.379 c 0,0 -0.313,-0.663 -0.822,-1.089 C 0.953,8.722 0.849,8.485 -0.101,8.485 Q -0.702,8.438 -1.6,8.533 -2.548,8.675 -2.645,8.817 C -2.79,9.053 -3.186,9.242 -3.186,9.242"
             inkscape:connector-curvature="0"
             style="fill:#8a131b" />
        </g>
      </g>
    </g>
  </g>
</svg>
