<?xml version="1.0" encoding="UTF-8" standalone="no"?>
<!-- Generator: flash2svg, http://dissentgraphics.com/tools/flash2svg -->

<svg
   xmlns:dc="http://purl.org/dc/elements/1.1/"
   xmlns:cc="http://creativecommons.org/ns#"
   xmlns:rdf="http://www.w3.org/1999/02/22-rdf-syntax-ns#"
   xmlns:svg="http://www.w3.org/2000/svg"
   xmlns="http://www.w3.org/2000/svg"
   xmlns:sodipodi="http://sodipodi.sourceforge.net/DTD/sodipodi-0.dtd"
   xmlns:inkscape="http://www.inkscape.org/namespaces/inkscape"
   id="AvatarAssets"
   image-rendering="auto"
   version="1.1"
   x="0px"
   y="0px"
   width="9.0396566"
   height="16.827583"
   viewBox="0 0 9.0396566 16.827583"
   inkscape:version="0.48.4 r9939"
   sodipodi:docname="AvatarAssets_sleeveUpperClose20101103Black3.svg">
  <metadata
     id="metadata3016">
    <rdf:RDF>
      <cc:Work
         rdf:about="">
        <dc:format>image/svg+xml</dc:format>
        <dc:type
           rdf:resource="http://purl.org/dc/dcmitype/StillImage" />
      </cc:Work>
    </rdf:RDF>
  </metadata>
  <sodipodi:namedview
     pagecolor="#ffffff"
     bordercolor="#666666"
     borderopacity="1"
     objecttolerance="10"
     gridtolerance="10"
     guidetolerance="10"
     inkscape:pageopacity="0"
     inkscape:pageshadow="2"
     inkscape:window-width="640"
     inkscape:window-height="480"
     id="namedview3014"
     showgrid="false"
     fit-margin-top="0"
     fit-margin-left="0"
     fit-margin-right="0"
     fit-margin-bottom="0"
     inkscape:zoom="1.9032258"
     inkscape:cx="37.532843"
     inkscape:cy="-46.747191"
     inkscape:window-x="0"
     inkscape:window-y="0"
     inkscape:window-maximized="0"
     inkscape:current-layer="AvatarAssets" />
  <defs
     id="defs3005" />
  <g
     id="sleeveUpperClose20101103Black4"
     overflow="visible"
     style="overflow:visible"
     transform="translate(5.5328427,1.5747732)">
    <g
       id="sleeveUpperClose20101103Black3_0">
      <g
         id="element">
        <path
           id="path"
           d="m 0.55,-1.55 c 0.25,0 0.5,0.05 0.7,0.15 -0.1,0.35 0,0.75 -0.15,1.15 C 0.95,0.15 0.45,0.3 0.3,0.7 0.2,0.85 0.25,1.15 0.2,1.35 0.1,1.75 -0.2,2.1 -0.3,2.5 -0.45,3.15 -0.35,3.75 -0.05,4.3 0.15,4.6 0.35,4.85 0.3,5.2 -0.45,4.45 -0.1,6.25 0,6.55 -0.55,6.65 -0.5,6.5 -0.6,7 c -0.1,0.3 -0.05,0.8 0,1.1 0,0.35 0.05,0.85 0.25,1.15 0.15,0.3 0.5,0.4 0.65,0.65 l -0.55,0 C -0.4,10.65 0.4,11 1,11 1.55,11.05 2.05,10.95 2.6,10.95 2.55,11.2 2.5,11.45 2.5,11.45 2.55,11.2 2.7,10.65 2.85,10.05 3.3,8.3 3.5,7 3.5,6.05 3.55,4.45 3.35,0.35 2.05,-0.9 1.5,-1.45 0.9,-1.65 0.15,-1.55 c 0.15,0 0.25,0 0.4,0 z m 0.5,15.9 c -0.4,0.35 -0.85,0.6 -1.4,0.75 0.2,-0.05 0.4,-0.15 0.6,-0.25 0.3,-0.15 0.55,-0.3 0.8,-0.5 z M -3.2,2.55 C -3.15,2.45 -3.05,2.35 -3,2.25 -2.75,1.8 -2.45,1.35 -2.1,0.35 -2.3,0.9 -2.6,1.5 -3,2.15 -3.05,2.3 -3.15,2.4 -3.2,2.55 z"
           inkscape:connector-curvature="0"
           style="fill:#2a2b2b" />
        <path
           id="path1"
           d="M 1.25,-1.4 C 1.05,-1.5 0.8,-1.55 0.55,-1.55 0,-1.15 -0.35,-0.55 -0.65,0.1 -0.9,0.55 -0.75,1 -0.9,1.45 -1.05,2 -1.5,2.35 -1.65,2.9 c -0.1,0.45 -0.2,0.55 -0.45,0.85 -0.25,0.4 -0.2,0.7 -0.25,1.15 l -0.1,1.25 c 0,0.35 0.15,0.9 0,1.25 -1.1,-0.1 -0.9,1.55 -0.6,2.1 0.95,1.65 2.8,2.65 4.7,2.65 -0.45,0.35 -1.7,0.2 -2.25,0.2 -0.65,0 -1.25,-0.15 -1.85,-0.2 -0.05,0.7 -0.1,1.1 0.4,1.55 0.35,0.35 0.75,0.6 1.15,0.75 0.4,0.15 0.8,0.05 1.15,0.2 l 0,0.2 c 0.3,-0.15 0.55,-0.3 0.8,-0.5 0.1,-0.15 0.2,-0.25 0.3,-0.4 0,-0.05 0,-0.05 0.05,-0.05 l 0.8,-1.55 c 0.05,-0.2 0.1,-0.4 0.3,-0.9 0,0 0.05,-0.25 0.1,-0.5 -0.55,0 -1.05,0.1 -1.6,0.05 -0.6,0 -1.4,-0.35 -1.25,-1.1 l 0.55,0 C 0.15,9.65 -0.2,9.55 -0.35,9.25 -0.55,8.95 -0.6,8.45 -0.6,8.1 -0.65,7.8 -0.7,7.3 -0.6,7 -0.5,6.5 -0.55,6.65 0,6.55 -0.1,6.25 -0.45,4.45 0.3,5.2 0.35,4.85 0.15,4.6 -0.05,4.3 -0.35,3.75 -0.45,3.15 -0.3,2.5 -0.2,2.1 0.1,1.75 0.2,1.35 0.25,1.15 0.2,0.85 0.3,0.7 0.45,0.3 0.95,0.15 1.1,-0.25 1.25,-0.65 1.15,-1.05 1.25,-1.4 z"
           inkscape:connector-curvature="0"
           style="fill:#202121" />
        <path
           id="path2"
           d="m 0.55,-1.55 c -0.15,0 -0.25,0 -0.4,0 -0.3,0.05 -0.6,0.15 -0.85,0.3 -0.1,0.05 -0.2,0.1 -0.3,0.15 0,0 0,0 -0.05,0.1 -0.45,0.25 -0.8,0.75 -1.05,1.35 -0.35,1 -0.65,1.45 -0.9,1.9 -0.1,0.7 0,1.45 -0.2,2.2 -0.25,0.9 -0.85,1.65 -1.05,2.65 -0.25,1.5 0.25,2.7 1.5,3.7 -0.7,0.25 -1.9,-1.3 -2.25,-0.1 -0.1,0.35 0,0.65 -0.15,0.95 -0.05,0.1 -0.2,0.1 -0.3,0.25 L -5.5,12 c 0.15,0.75 0.75,1.75 2,2.5 l 0.7,0.4 c 0.85,0.4 1.65,0.45 2.45,0.2 0.2,-0.05 0.4,-0.15 0.6,-0.25 l 0,-0.2 C -0.1,14.5 -0.5,14.6 -0.9,14.45 -1.3,14.3 -1.7,14.05 -2.05,13.7 c -0.5,-0.45 -0.45,-0.85 -0.4,-1.55 0.6,0.05 1.2,0.2 1.85,0.2 0.55,0 1.8,0.15 2.25,-0.2 -1.9,0 -3.75,-1 -4.7,-2.65 -0.3,-0.55 -0.5,-2.2 0.6,-2.1 0.15,-0.35 0,-0.9 0,-1.25 L -2.35,4.9 C -2.3,4.45 -2.35,4.15 -2.1,3.75 -1.85,3.45 -1.75,3.35 -1.65,2.9 -1.5,2.35 -1.05,2 -0.9,1.45 -0.75,1 -0.9,0.55 -0.65,0.1 -0.35,-0.55 0,-1.15 0.55,-1.55 z"
           inkscape:connector-curvature="0"
           style="fill:#161717" />
        <path
           id="path8"
           d="m -3,2.25 c -0.05,0.1 -0.15,0.2 -0.2,0.3 -0.15,0.35 -0.3,0.75 -0.4,1.1 q -0.45,1.7 -1.85,7.55 c -0.1,0.25 -0.1,0.5 -0.05,0.8 l 0.05,-0.1 c 0.1,-0.15 0.25,-0.15 0.3,-0.25 0.15,-0.3 0.05,-0.6 0.15,-0.95 0.35,-1.2 1.55,0.35 2.25,0.1 C -4,9.8 -4.5,8.6 -4.25,7.1 -4.05,6.1 -3.45,5.35 -3.2,4.45 -3,3.7 -3.1,2.95 -3,2.25 z"
           inkscape:connector-curvature="0"
           style="fill:#0f0f0f" />
      </g>
    </g>
  </g>
</svg>
