<?xml version="1.0" encoding="UTF-8" standalone="no"?>
<!-- Generator: flash2svg, http://dissentgraphics.com/tools/flash2svg -->

<svg
   xmlns:dc="http://purl.org/dc/elements/1.1/"
   xmlns:cc="http://creativecommons.org/ns#"
   xmlns:rdf="http://www.w3.org/1999/02/22-rdf-syntax-ns#"
   xmlns:svg="http://www.w3.org/2000/svg"
   xmlns="http://www.w3.org/2000/svg"
   xmlns:sodipodi="http://sodipodi.sourceforge.net/DTD/sodipodi-0.dtd"
   xmlns:inkscape="http://www.inkscape.org/namespaces/inkscape"
   id="AvatarAssets"
   image-rendering="auto"
   version="1.1"
   x="0px"
   y="0px"
   width="13.352866"
   height="14.820493"
   viewBox="0 0 13.352866 14.820493"
   inkscape:version="0.48.4 r9939"
   sodipodi:docname="AvatarAssets_sleeveLowerCloseC005.svg">
  <metadata
     id="metadata3269">
    <rdf:RDF>
      <cc:Work
         rdf:about="">
        <dc:format>image/svg+xml</dc:format>
        <dc:type
           rdf:resource="http://purl.org/dc/dcmitype/StillImage" />
      </cc:Work>
    </rdf:RDF>
  </metadata>
  <sodipodi:namedview
     pagecolor="#ffffff"
     bordercolor="#666666"
     borderopacity="1"
     objecttolerance="10"
     gridtolerance="10"
     guidetolerance="10"
     inkscape:pageopacity="0"
     inkscape:pageshadow="2"
     inkscape:window-width="640"
     inkscape:window-height="480"
     id="namedview3267"
     showgrid="false"
     fit-margin-top="0"
     fit-margin-left="0"
     fit-margin-right="0"
     fit-margin-bottom="0"
     inkscape:zoom="1.9032258"
     inkscape:cx="39.949"
     inkscape:cy="-48.416901"
     inkscape:window-x="0"
     inkscape:window-y="0"
     inkscape:window-maximized="0"
     inkscape:current-layer="AvatarAssets" />
  <defs
     id="defs3252" />
  <g
     id="sleeveLowerCloseC6"
     overflow="visible"
     style="overflow:visible"
     transform="translate(7.949,1.2373936)">
    <g
       id="sleeveLowerCloseC005_0">
      <g
         id="element">
        <g
           id="drawingObject">
          <path
             id="path"
             d="m 2.901,8.051 0.05,3.2 c 0,0 2.55,-0.3 2.45,-0.8 l -1.75,-2.9 c 0,0 -8.65,-1.35 -9,-0.35 q -0.15,0.4 -0.8,1.85 -0.55,1.15 -0.7,1.7 c -0.25,0.95 -1.1,2.05 -1.1,2.05 l 2.45,0.75 c 0.65,0.2 1.05,-0.6 1.05,-0.6 0,0 0.1,-3.05 0.45,-4.25 0.4,-1.2 1.3,-0.4 1.3,-0.4 l 5.6,-0.25 z"
             inkscape:connector-curvature="0"
             style="fill:#744e1d" />
        </g>
        <g
           id="drawingObject1">
          <path
             id="path1"
             d="m 1.101,4.901 -1.45,-1.1 q -3.5,2.95 -3.4,3.75 c 0.15,0.75 -0.5,3.15 -0.5,3.15 0,0 0.75,-1.25 3.5,-1.25 2.75,0 3.6,0.7 3.6,0.7 0,0 0.15,-2.45 -0.1,-3.45 -0.25,-1 -3.1,-2.9 -3.1,-2.9"
             inkscape:connector-curvature="0"
             style="fill:#000000;fill-opacity:0.29800002" />
        </g>
        <g
           id="drawingObject2">
          <path
             id="path2"
             d="m 4.151,1.301 c -0.2,-0.95 -2,-3.85 -6,-1.85 q -1.75,0.85 -3.65,5.6 c -1.25,3.15 -2.35,7.9 -2.35,7.9 0,0 1.35,-3.65 6,-4.25 5.2,-0.7 6.25,0.75 6.75,1.25 l 0.5,0.5 c 0,0 -1.15,-2.9 -1.25,-5 -0.15,-2.15 0.25,-2.65 0,-4.15 z"
             inkscape:connector-curvature="0"
             style="fill:#a16d29" />
        </g>
        <g
           id="drawingObject3">
          <path
             id="path3"
             d="m -1.849,8.701 c 5.2,-0.7 6.25,0.75 6.75,1.25 l 0.5,0.5 c 0,0 -0.45,-1.05 -0.8,-2.35 -1.65,-1.15 -3.8,-1.65 -6.85,-1.3 -2.25,0.3 -3.65,1.15 -4.55,2.15 -0.65,2.15 -1.05,4 -1.05,4 0,0 1.35,-3.65 6,-4.25 z"
             inkscape:connector-curvature="0"
             style="fill:#dcc041" />
        </g>
        <g
           id="drawingObject4">
          <path
             id="path4"
             d="m -0.199,-1.149 c -0.5,0.1 -1.05,0.3 -1.65,0.6 -1.4,0.7 -2.4,2.5 -3.65,5.6 -1.25,3.15 -2.35,7.9 -2.35,7.9 l 0.25,-0.55 c 0.05,-0.4 0.15,-0.8 0.35,-1.1 l 0.05,-0.25 0.35,-0.45 0.1,-0.1 c 1.1,-1.3 2.45,-2 4.05,-2.2 2.1,-1.1 4.85,-1 4.85,-1 l -1.5,-0.25 q -0.25,-0.05 -2.7,-0.1 -1.55,-0.05 -1.55,-0.5 c 0,-0.75 1.85,-2.75 2.2,-3.8 0.35,-1.1 2.55,-1.45 2.55,-1.45 l -1,-0.15 c -1,-0.1 -2.65,1 -2,-0.35 0.3,-0.75 0.95,-1.35 1.65,-1.85 z"
             inkscape:connector-curvature="0"
             style="fill:#000000;fill-opacity:0.2" />
        </g>
      </g>
    </g>
  </g>
</svg>
