<?xml version="1.0" encoding="UTF-8" standalone="no"?>
<!-- Generator: flash2svg, http://dissentgraphics.com/tools/flash2svg -->

<svg
   xmlns:dc="http://purl.org/dc/elements/1.1/"
   xmlns:cc="http://creativecommons.org/ns#"
   xmlns:rdf="http://www.w3.org/1999/02/22-rdf-syntax-ns#"
   xmlns:svg="http://www.w3.org/2000/svg"
   xmlns="http://www.w3.org/2000/svg"
   xmlns:xlink="http://www.w3.org/1999/xlink"
   xmlns:sodipodi="http://sodipodi.sourceforge.net/DTD/sodipodi-0.dtd"
   xmlns:inkscape="http://www.inkscape.org/namespaces/inkscape"
   id="AvatarAssets"
   image-rendering="auto"
   version="1.1"
   x="0px"
   y="0px"
   width="70.400002"
   height="14.573022"
   viewBox="0 0 70.400002 14.573022"
   inkscape:version="0.48.4 r9939"
   sodipodi:docname="AvatarAssets_backEars0001.svg">
  <metadata
     id="metadata49">
    <rdf:RDF>
      <cc:Work
         rdf:about="">
        <dc:format>image/svg+xml</dc:format>
        <dc:type
           rdf:resource="http://purl.org/dc/dcmitype/StillImage" />
      </cc:Work>
    </rdf:RDF>
  </metadata>
  <sodipodi:namedview
     pagecolor="#ffffff"
     bordercolor="#666666"
     borderopacity="1"
     objecttolerance="10"
     gridtolerance="10"
     guidetolerance="10"
     inkscape:pageopacity="0"
     inkscape:pageshadow="2"
     inkscape:window-width="640"
     inkscape:window-height="480"
     id="namedview47"
     showgrid="false"
     fit-margin-top="0"
     fit-margin-left="0"
     fit-margin-right="0"
     fit-margin-bottom="0"
     inkscape:zoom="1.9032258"
     inkscape:cx="67.549"
     inkscape:cy="-68.577292"
     inkscape:window-x="0"
     inkscape:window-y="0"
     inkscape:window-maximized="0"
     inkscape:current-layer="AvatarAssets" />
  <defs
     id="defs3">
    <pattern
       id="bitmap"
       patternContentUnits="userSpaceOnUse"
       patternUnits="userSpaceOnUse"
       width="200"
       height="200"
       viewBox="0 0 200 200"
       patternTransform="matrix(1 0 0 1 -87.799 -55.599)">
      <symbol
         id="Avatar_Texture_symbol"
         viewBox="0 0 200 200">
        <image
           sodipodi:absref="C:\Users\Training\Documents\GitHub\glitch-avatars\base_avatar\Avatar_Texture"
           xlink:href="Avatar_Texture"
           height="200"
           width="200"
           id="Avatar_Texture" />
      </symbol>
      <use
         id="Avatar_Texture_use"
         width="200"
         height="200"
         y="0"
         x="0"
         xlink:href="#Avatar_Texture_symbol"
         externalResourcesRequired="true" />
    </pattern>
    <pattern
       id="bitmap1"
       patternContentUnits="userSpaceOnUse"
       patternUnits="userSpaceOnUse"
       width="200"
       height="200"
       viewBox="0 0 200 200"
       patternTransform="matrix(1 0 0 1 -32.399 -55.599)">
      <symbol
         id="Avatar_Texture_symbol1"
         viewBox="0 0 200 200">
        <image
           sodipodi:absref="C:\Users\Training\Documents\GitHub\glitch-avatars\base_avatar\Avatar_Texture"
           xlink:href="Avatar_Texture"
           height="200"
           width="200"
           id="Avatar_Texture1" />
      </symbol>
      <use
         id="Avatar_Texture_use1"
         width="200"
         height="200"
         y="0"
         x="0"
         xlink:href="#Avatar_Texture_symbol1"
         externalResourcesRequired="true" />
    </pattern>
    <pattern
       id="bitmap2"
       patternContentUnits="userSpaceOnUse"
       patternUnits="userSpaceOnUse"
       width="200"
       height="200"
       viewBox="0 0 200 200"
       patternTransform="matrix(1 0 0 1 -126.899 -114.199)">
      <symbol
         id="symbol14"
         viewBox="0 0 200 200">
        <image
           sodipodi:absref="C:\Users\Training\Documents\GitHub\glitch-avatars\base_avatar\Avatar_Texture"
           xlink:href="Avatar_Texture"
           height="200"
           width="200"
           id="image16" />
      </symbol>
      <use
         id="use18"
         width="200"
         height="200"
         y="0"
         x="0"
         xlink:href="#Avatar_Texture_symbol"
         externalResourcesRequired="true" />
    </pattern>
    <pattern
       id="bitmap3"
       patternContentUnits="userSpaceOnUse"
       patternUnits="userSpaceOnUse"
       width="200"
       height="200"
       viewBox="0 0 200 200"
       patternTransform="matrix(1 0 0 1 -73.599 -114.199)">
      <symbol
         id="symbol21"
         viewBox="0 0 200 200">
        <image
           sodipodi:absref="C:\Users\Training\Documents\GitHub\glitch-avatars\base_avatar\Avatar_Texture"
           xlink:href="Avatar_Texture"
           height="200"
           width="200"
           id="image23" />
      </symbol>
      <use
         id="use25"
         width="200"
         height="200"
         y="0"
         x="0"
         xlink:href="#Avatar_Texture_symbol1"
         externalResourcesRequired="true" />
    </pattern>
  </defs>
  <g
     id="backEars2"
     overflow="visible"
     style="overflow:visible"
     transform="translate(35.549,21.150314)">
    <g
       id="backEars0001_0">
      <g
         id="element">
        <g
           id="drawingObject">
          <path
             id="path"
             d="m -20.949,-14.999 c -0.1,0.6 -0.05,1.55 0,2.55 0.4,7.1 4.35,6.6 3.6,4.5 -0.25,-0.55 -0.4,-1.1 -0.5,-1.6 q -1.9,-2.5 -3.1,-5.45 z"
             inkscape:connector-curvature="0"
             style="fill:#000000;fill-opacity:0.25099996" />
        </g>
        <g
           id="drawingObject1">
          <path
             id="path1"
             d="m -35.549,-20.199 c 0,0 0.9,7.05 7.45,10.75 7.8,4.4 9.7,0.1 9.7,0.1 l -0.15,-1.2 c -1.55,-2.25 -2.7,-4.75 -3.4,-7.45 q -2.05,-2.15 -4.9,-2.85 c -3.85,-0.95 -8.7,0.65 -8.7,0.65 z"
             inkscape:connector-curvature="0"
             style="fill:url(#bitmap2)" />
        </g>
        <g
           id="drawingObject2">
          <path
             id="path2"
             d="m -18.399,-9.349 -0.15,-1.2 c -1.55,-2.25 -2.7,-4.75 -3.4,-7.45 q -2.05,-2.15 -4.9,-2.85 c -3.85,-0.95 -8.7,0.65 -8.7,0.65 0,0 0.9,7.05 7.45,10.75 7.8,4.4 9.7,0.1 9.7,0.1 z"
             inkscape:connector-curvature="0"
             style="fill:#ffffff;fill-opacity:0.08600003" />
        </g>
        <g
           id="drawingObject3">
          <path
             id="path3"
             d="m -18.499,-10.499 c -1.3,-1.9 -2.3,-3.95 -3,-6.15 q -2.6,-1.95 -3.9,-2.25 c -2.25,-0.5 -7.75,-0.25 -7.75,-0.25 0,0 -0.5,2.5 0.45,5.55 1.1,1.5 2.6,3 4.65,4.2 7.8,4.4 9.7,0.1 9.7,0.1 l -0.15,-1.2 z"
             inkscape:connector-curvature="0"
             style="fill:#000000;fill-opacity:0.29800002" />
        </g>
      </g>
      <g
         id="element1">
        <g
           id="drawingObject4">
          <path
             id="path4"
             d="m 20.301,-12.449 0,-1.9 c -0.85,1.95 -1.95,3.75 -3.3,5.4 l -0.3,1 c -0.75,2.1 3.15,2.6 3.6,-4.5 z"
             inkscape:connector-curvature="0"
             style="fill:#000000;fill-opacity:0.29800002" />
        </g>
        <g
           id="drawingObject5">
          <path
             id="path5"
             d="m 17.801,-9.999 -0.05,0.65 1.9,1.6 -1.9,-1.6 c 0,0 1.9,4.3 9.65,-0.1 6.55,-3.7 7.45,-10.75 7.45,-10.75 0,0 -4.85,-1.6 -8.65,-0.65 q -2.6,0.65 -4.55,2.4 c -0.7,3.1 -2,5.95 -3.85,8.45 z"
             inkscape:connector-curvature="0"
             style="fill:url(#bitmap3)" />
        </g>
        <g
           id="drawingObject6">
          <path
             id="path6"
             d="m 34.851,-20.199 c 0,0 -4.85,-1.6 -8.65,-0.65 q -2.6,0.65 -4.55,2.4 c -0.7,3.1 -2,5.95 -3.85,8.45 l -0.05,0.65 1.9,1.6 -1.9,-1.6 c 0,0 1.9,4.3 9.65,-0.1 6.55,-3.7 7.45,-10.75 7.45,-10.75 z"
             inkscape:connector-curvature="0"
             style="fill:#ffffff;fill-opacity:0.08600003" />
        </g>
        <g
           id="drawingObject7">
          <path
             id="path7"
             d="m 32.101,-13.649 c 0.95,-3.05 0.45,-5.55 0.45,-5.55 q -5.5,-0.25 -7.75,0.25 c -0.85,0.2 -2.1,0.9 -3.5,1.95 -0.75,2.55 -1.95,4.9 -3.5,7 l -0.05,0.65 1.9,1.6 -1.9,-1.6 c 0,0 1.9,4.3 9.65,-0.1 2.1,-1.2 3.6,-2.7 4.7,-4.2 z"
             inkscape:connector-curvature="0"
             style="fill:#000000;fill-opacity:0.29800002" />
        </g>
      </g>
    </g>
  </g>
</svg>
