<?xml version="1.0" encoding="UTF-8" standalone="no"?>
<!-- Generator: flash2svg, http://dissentgraphics.com/tools/flash2svg -->

<svg
   xmlns:dc="http://purl.org/dc/elements/1.1/"
   xmlns:cc="http://creativecommons.org/ns#"
   xmlns:rdf="http://www.w3.org/1999/02/22-rdf-syntax-ns#"
   xmlns:svg="http://www.w3.org/2000/svg"
   xmlns="http://www.w3.org/2000/svg"
   xmlns:xlink="http://www.w3.org/1999/xlink"
   xmlns:sodipodi="http://sodipodi.sourceforge.net/DTD/sodipodi-0.dtd"
   xmlns:inkscape="http://www.inkscape.org/namespaces/inkscape"
   id="AvatarAssets"
   image-rendering="auto"
   version="1.1"
   x="0px"
   y="0px"
   width="61.228058"
   height="12.480907"
   viewBox="0 0 61.228058 12.480907"
   inkscape:version="0.48.4 r9939"
   sodipodi:docname="AvatarAssets_backEars0002.svg">
  <metadata
     id="metadata3074">
    <rdf:RDF>
      <cc:Work
         rdf:about="">
        <dc:format>image/svg+xml</dc:format>
        <dc:type
           rdf:resource="http://purl.org/dc/dcmitype/StillImage" />
      </cc:Work>
    </rdf:RDF>
  </metadata>
  <sodipodi:namedview
     pagecolor="#ffffff"
     bordercolor="#666666"
     borderopacity="1"
     objecttolerance="10"
     gridtolerance="10"
     guidetolerance="10"
     inkscape:pageopacity="0"
     inkscape:pageshadow="2"
     inkscape:window-width="640"
     inkscape:window-height="480"
     id="namedview3072"
     showgrid="false"
     fit-margin-top="0"
     fit-margin-left="0"
     fit-margin-right="0"
     fit-margin-bottom="0"
     inkscape:zoom="1.9032258"
     inkscape:cx="62.863028"
     inkscape:cy="-69.124"
     inkscape:window-x="0"
     inkscape:window-y="0"
     inkscape:window-maximized="0"
     inkscape:current-layer="AvatarAssets" />
  <defs
     id="defs3027">
    <pattern
       id="bitmap"
       patternContentUnits="userSpaceOnUse"
       patternUnits="userSpaceOnUse"
       width="200"
       height="200"
       viewBox="0 0 200 200"
       patternTransform="matrix(1 0 0 1 -84.099 -50.549)">
      <symbol
         id="Avatar_Texture_symbol"
         viewBox="0 0 200 200">
        <image
           sodipodi:absref="C:\Users\Training\Documents\GitHub\glitch-avatars\base_avatar\Avatar_Texture"
           xlink:href="Avatar_Texture"
           height="200"
           width="200"
           id="Avatar_Texture" />
      </symbol>
      <use
         id="Avatar_Texture_use"
         width="200"
         height="200"
         y="0"
         x="0"
         xlink:href="#Avatar_Texture_symbol"
         externalResourcesRequired="true" />
    </pattern>
    <pattern
       id="bitmap1"
       patternContentUnits="userSpaceOnUse"
       patternUnits="userSpaceOnUse"
       width="200"
       height="200"
       viewBox="0 0 200 200"
       patternTransform="matrix(1 0 0 1 -35.649 -50.549)">
      <symbol
         id="Avatar_Texture_symbol1"
         viewBox="0 0 200 200">
        <image
           sodipodi:absref="C:\Users\Training\Documents\GitHub\glitch-avatars\base_avatar\Avatar_Texture"
           xlink:href="Avatar_Texture"
           height="200"
           width="200"
           id="Avatar_Texture1" />
      </symbol>
      <use
         id="Avatar_Texture_use1"
         width="200"
         height="200"
         y="0"
         x="0"
         xlink:href="#Avatar_Texture_symbol1"
         externalResourcesRequired="true" />
    </pattern>
    <pattern
       id="bitmap2"
       patternContentUnits="userSpaceOnUse"
       patternUnits="userSpaceOnUse"
       width="200"
       height="200"
       viewBox="0 0 200 200"
       patternTransform="matrix(1 0 0 1 -124.749 -113.249)">
      <symbol
         id="symbol3038"
         viewBox="0 0 200 200">
        <image
           sodipodi:absref="C:\Users\Training\Documents\GitHub\glitch-avatars\base_avatar\Avatar_Texture"
           xlink:href="Avatar_Texture"
           height="200"
           width="200"
           id="image3040" />
      </symbol>
      <use
         id="use3042"
         width="200"
         height="200"
         y="0"
         x="0"
         xlink:href="#Avatar_Texture_symbol"
         externalResourcesRequired="true" />
    </pattern>
    <pattern
       id="bitmap3"
       patternContentUnits="userSpaceOnUse"
       patternUnits="userSpaceOnUse"
       width="200"
       height="200"
       viewBox="0 0 200 200"
       patternTransform="matrix(1 0 0 1 -75.549 -113.249)">
      <symbol
         id="symbol3045"
         viewBox="0 0 200 200">
        <image
           sodipodi:absref="C:\Users\Training\Documents\GitHub\glitch-avatars\base_avatar\Avatar_Texture"
           xlink:href="Avatar_Texture"
           height="200"
           width="200"
           id="image3047" />
      </symbol>
      <use
         id="use3049"
         width="200"
         height="200"
         y="0"
         x="0"
         xlink:href="#Avatar_Texture_symbol1"
         externalResourcesRequired="true" />
    </pattern>
  </defs>
  <g
     id="backEars3"
     overflow="visible"
     style="overflow:visible"
     transform="translate(30.863028,19.604907)">
    <g
       id="backEars0002_0">
      <g
         id="element">
        <g
           id="drawingObject">
          <path
             id="path"
             d="m -22.099,-18.199 -0.9,2.35 c 0,0 2,3.85 3.5,5.85 1.5,2 3.65,2.15 1.65,0.35 -2,-1.85 -4.25,-8.55 -4.25,-8.55 z"
             inkscape:connector-curvature="0"
             style="fill:#000000;fill-opacity:0.29800002" />
        </g>
        <g
           id="drawingObject1">
          <path
             id="path1"
             d="m -27.999,-19.199 c -3.15,1.65 -3.9,5.5 -1.25,8.8 2.1,2.55 6.5,3.95 8.35,2.95 1.85,-1 2.05,-2.6 2.05,-2.6 0,0 -1.15,-1.15 -1.85,-2.85 q -1.35,-3.1 -1.25,-5.2 c 0,0 -3.5,-2.45 -6.05,-1.1 z"
             inkscape:connector-curvature="0"
             style="fill:url(#bitmap2)" />
        </g>
        <g
           id="drawingObject2">
          <path
             id="path2"
             d="m -21.949,-18.099 c -0.35,0.35 -0.65,1.25 -0.8,2.7 -0.15,1.45 -0.8,2.1 -1.95,2.05 -1.15,-0.05 -1.45,0.95 -0.95,3.05 0.5,2.1 -0.45,2.35 -2.8,0.7 q 1.7,1.5 4,2.15 2.3,0.65 3.55,0 c 1.85,-1 2.05,-2.6 2.05,-2.6 0,0 -1.15,-1.15 -1.85,-2.85 -1.35,-3.1 -1.25,-5.2 -1.25,-5.2 z"
             inkscape:connector-curvature="0"
             style="fill:#000000;fill-opacity:0.29800002" />
        </g>
        <g
           id="drawingObject3">
          <path
             id="path3"
             d="m -22.099,-18.199 c -0.7,-0.4 -3.65,-2.15 -5.9,-1 q -1.45,0.75 -2.2,2.05 -0.7,1.3 -0.65,2.85 c 0.5,-1.9 1.85,-3.55 4.05,-4.1 1.75,-0.45 3.55,-0.15 4.7,0.2 z"
             inkscape:connector-curvature="0"
             style="fill:#ffffff;fill-opacity:0.25099996" />
        </g>
      </g>
      <g
         id="element1">
        <g
           id="group2">
          <g
             id="drawingObject4">
            <path
               id="path4"
               d="m 22.501,-15.849 -0.9,-2.35 c 0,0 -2.25,6.7 -4.25,8.55 -2,1.8 0.15,1.65 1.65,-0.35 1.5,-2 3.5,-5.85 3.5,-5.85 z"
               inkscape:connector-curvature="0"
               style="fill:#000000;fill-opacity:0.29800002" />
          </g>
          <g
             id="drawingObject5">
            <path
               id="path5"
               d="m 28.751,-10.399 c 2.65,-3.3 1.9,-7.15 -1.25,-8.8 -2.55,-1.35 -6.05,1.1 -6.05,1.1 l 2.05,-1.05 -2.05,1.05 q 0.1,2.1 -1.25,5.2 c -0.7,1.7 -1.85,2.85 -1.85,2.85 l 0.35,0.95 -0.35,-0.95 c 0,0 0.2,1.6 2.05,2.6 1.85,1 6.25,-0.4 8.35,-2.95 z"
               inkscape:connector-curvature="0"
               style="fill:url(#bitmap3)" />
          </g>
          <g
             id="drawingObject6">
            <path
               id="path6"
               d="m 22.051,-15.349 c -0.05,-1.45 -0.25,-2.4 -0.6,-2.75 0,0 0.1,2.1 -1.25,5.2 -0.7,1.7 -1.85,2.85 -1.85,2.85 l 0.35,0.95 -0.35,-0.95 c 0,0 0.2,1.6 2.05,2.6 q 1.2,0.65 3.5,0 2.35,-0.65 4.05,-2.15 c -2.35,1.65 -3.5,1.4 -3.35,-0.65 0.1,-2.05 -0.3,-3.05 -1.2,-3 -0.9,0.05 -1.35,-0.65 -1.35,-2.1 z"
               inkscape:connector-curvature="0"
               style="fill:#000000;fill-opacity:0.29800002" />
          </g>
          <g
             id="drawingObject7">
            <path
               id="path7"
               d="m 27.501,-19.199 c -2.25,-1.15 -5.2,0.6 -5.9,1 1.15,-0.35 2.9,-0.65 4.7,-0.2 2.2,0.55 3.55,2.2 4.05,4.1 q 0.1,-1.55 -0.65,-2.85 -0.75,-1.3 -2.2,-2.05 z"
               inkscape:connector-curvature="0"
               style="fill:#ffffff;fill-opacity:0.25099996" />
          </g>
        </g>
      </g>
    </g>
  </g>
</svg>
