<?xml version="1.0" encoding="UTF-8" standalone="no"?>
<!-- Generator: flash2svg, http://dissentgraphics.com/tools/flash2svg -->

<svg
   xmlns:dc="http://purl.org/dc/elements/1.1/"
   xmlns:cc="http://creativecommons.org/ns#"
   xmlns:rdf="http://www.w3.org/1999/02/22-rdf-syntax-ns#"
   xmlns:svg="http://www.w3.org/2000/svg"
   xmlns="http://www.w3.org/2000/svg"
   xmlns:xlink="http://www.w3.org/1999/xlink"
   xmlns:sodipodi="http://sodipodi.sourceforge.net/DTD/sodipodi-0.dtd"
   xmlns:inkscape="http://www.inkscape.org/namespaces/inkscape"
   id="AvatarAssets"
   image-rendering="auto"
   version="1.1"
   x="0px"
   y="0px"
   width="60.60574"
   height="10.568352"
   viewBox="0 0 60.60574 10.568352"
   inkscape:version="0.48.4 r9939"
   sodipodi:docname="AvatarAssets_backEars0005.svg">
  <metadata
     id="metadata3172">
    <rdf:RDF>
      <cc:Work
         rdf:about="">
        <dc:format>image/svg+xml</dc:format>
        <dc:type
           rdf:resource="http://purl.org/dc/dcmitype/StillImage" />
      </cc:Work>
    </rdf:RDF>
  </metadata>
  <sodipodi:namedview
     pagecolor="#ffffff"
     bordercolor="#666666"
     borderopacity="1"
     objecttolerance="10"
     gridtolerance="10"
     guidetolerance="10"
     inkscape:pageopacity="0"
     inkscape:pageshadow="2"
     inkscape:window-width="640"
     inkscape:window-height="480"
     id="namedview3170"
     showgrid="false"
     fit-margin-top="0"
     fit-margin-left="0"
     fit-margin-right="0"
     fit-margin-bottom="0"
     inkscape:zoom="1.9032258"
     inkscape:cx="62.401871"
     inkscape:cy="-70.549248"
     inkscape:window-x="0"
     inkscape:window-y="0"
     inkscape:window-maximized="0"
     inkscape:current-layer="AvatarAssets" />
  <defs
     id="defs3126">
    <pattern
       id="bitmap"
       patternContentUnits="userSpaceOnUse"
       patternUnits="userSpaceOnUse"
       width="200"
       height="200"
       viewBox="0 0 200 200"
       patternTransform="matrix(1 0 0 1 -85.149 -51.649)">
      <symbol
         id="Avatar_Texture_symbol"
         viewBox="0 0 200 200">
        <image
           sodipodi:absref="C:\Users\Training\Documents\GitHub\glitch-avatars\base_avatar\Avatar_Texture"
           xlink:href="Avatar_Texture"
           height="200"
           width="200"
           id="Avatar_Texture" />
      </symbol>
      <use
         id="Avatar_Texture_use"
         width="200"
         height="200"
         y="0"
         x="0"
         xlink:href="#Avatar_Texture_symbol"
         externalResourcesRequired="true" />
    </pattern>
    <pattern
       id="bitmap1"
       patternContentUnits="userSpaceOnUse"
       patternUnits="userSpaceOnUse"
       width="200"
       height="200"
       viewBox="0 0 200 200"
       patternTransform="matrix(1 0 0 1 -35.349 -51.699)">
      <symbol
         id="Avatar_Texture_symbol1"
         viewBox="0 0 200 200">
        <image
           sodipodi:absref="C:\Users\Training\Documents\GitHub\glitch-avatars\base_avatar\Avatar_Texture"
           xlink:href="Avatar_Texture"
           height="200"
           width="200"
           id="Avatar_Texture1" />
      </symbol>
      <use
         id="Avatar_Texture_use1"
         width="200"
         height="200"
         y="0"
         x="0"
         xlink:href="#Avatar_Texture_symbol1"
         externalResourcesRequired="true" />
    </pattern>
    <pattern
       id="bitmap2"
       patternContentUnits="userSpaceOnUse"
       patternUnits="userSpaceOnUse"
       width="200"
       height="200"
       viewBox="0 0 200 200"
       patternTransform="matrix(1 0 0 1 -125.149 -113.699)">
      <symbol
         id="symbol3137"
         viewBox="0 0 200 200">
        <image
           sodipodi:absref="C:\Users\Training\Documents\GitHub\glitch-avatars\base_avatar\Avatar_Texture"
           xlink:href="Avatar_Texture"
           height="200"
           width="200"
           id="image3139" />
      </symbol>
      <use
         id="use3141"
         width="200"
         height="200"
         y="0"
         x="0"
         xlink:href="#Avatar_Texture_symbol"
         externalResourcesRequired="true" />
    </pattern>
    <pattern
       id="bitmap3"
       patternContentUnits="userSpaceOnUse"
       patternUnits="userSpaceOnUse"
       width="200"
       height="200"
       viewBox="0 0 200 200"
       patternTransform="matrix(1 0 0 1 -74.899 -113.749)">
      <symbol
         id="symbol3144"
         viewBox="0 0 200 200">
        <image
           sodipodi:absref="C:\Users\Training\Documents\GitHub\glitch-avatars\base_avatar\Avatar_Texture"
           xlink:href="Avatar_Texture"
           height="200"
           width="200"
           id="image3146" />
      </symbol>
      <use
         id="use3148"
         width="200"
         height="200"
         y="0"
         x="0"
         xlink:href="#Avatar_Texture_symbol1"
         externalResourcesRequired="true" />
    </pattern>
  </defs>
  <g
     id="backEars6"
     overflow="visible"
     style="overflow:visible"
     transform="translate(30.401871,19.117599)">
    <g
       id="backEars0005_0">
      <g
         id="element">
        <g
           id="drawingObject">
          <path
             id="path"
             d="m -19.199,-13.299 c -1,-2.8 -2.5,-3.75 -2.5,-3.75 q 1,2.35 0.85,3.9 l -1.1,1.35 0.4,-0.2 -0.4,0.2 c 0,0 0.3,-0.95 2.15,1.05 2,2.2 1.5,0.1 0.6,-2.55 z"
             inkscape:connector-curvature="0"
             style="fill:#000000;fill-opacity:0.29800002" />
        </g>
        <g
           id="drawingObject1">
          <path
             id="path1"
             d="m -20.299,-13.749 c -0.65,-1.7 -1.5,-3.4 -2.05,-3.7 q -4.1,-2.35 -6,-1.3 c -1.5,0.85 -2.1,2.75 -2.05,3.95 0.05,1.2 0.6,2.15 3.05,3 2.45,0.9 3.15,1.05 3.4,1.75 0.2,0.65 1.35,2.5 2.5,0.8 1.15,-1.65 1.8,-2.8 1.15,-4.5 z"
             inkscape:connector-curvature="0"
             style="fill:url(#bitmap2)" />
        </g>
        <g
           id="drawingObject2">
          <path
             id="path2"
             d="m -20.299,-13.749 q -0.6,-1.65 -1.35,-2.85 c 0,0.35 -0.25,0.75 -0.95,0.9 -1.75,0.3 -3.45,1.15 -2.25,2.65 1.15,1.5 2.25,1.85 2.05,2.25 -0.1,0.25 -0.65,0.55 -1.15,0.7 l 0,0.05 c 0.2,0.65 1.35,2.5 2.5,0.8 1.15,-1.65 1.8,-2.8 1.15,-4.5 z"
             inkscape:connector-curvature="0"
             style="fill:#000000;fill-opacity:0.25099996" />
        </g>
        <g
           id="drawingObject3">
          <path
             id="path3"
             d="m -28.349,-18.749 c -0.95,0.55 -1.55,1.5 -1.85,2.45 q 1.3,-1.55 2.7,-1.7 c 1.65,-0.15 3.85,0.1 5.5,0.85 l -0.35,-0.3 c -2,-1.15 -4.5,-2.15 -6,-1.3 z"
             inkscape:connector-curvature="0"
             style="fill:#ffffff;fill-opacity:0.2" />
        </g>
      </g>
      <g
         id="element1">
        <g
           id="drawingObject4">
          <path
             id="path4"
             d="m 21.551,-17.149 c 0,0 -1.55,0.95 -2.5,3.75 -0.95,2.65 -1.45,4.75 0.55,2.6 1.4,-1.55 1.9,-1.4 2.05,-1.25 l -0.95,-1.2 q -0.15,-1.55 0.85,-3.9 z"
             inkscape:connector-curvature="0"
             style="fill:#000000;fill-opacity:0.29800002" />
        </g>
        <g
           id="drawingObject5">
          <path
             id="path5"
             d="m 30.201,-14.899 c 0.05,-1.2 -0.55,-3.1 -2.05,-3.9 q -1.8,-1 -6,1.25 c -0.55,0.3 -1.4,2.05 -2.05,3.7 -0.65,1.7 0.05,2.85 1.15,4.55 1.15,1.65 2.3,-0.15 2.55,-0.85 0.2,-0.7 0.9,-0.85 3.35,-1.7 2.45,-0.85 3,-1.85 3.05,-3.05 z"
             inkscape:connector-curvature="0"
             style="fill:url(#bitmap3)" />
        </g>
        <g
           id="drawingObject6">
          <path
             id="path6"
             d="m 24.701,-13.149 c 1.15,-1.5 -0.5,-2.3 -2.25,-2.65 -0.75,-0.15 -0.95,-0.5 -1,-0.9 q -0.7,1.2 -1.35,2.85 c -0.65,1.7 0.05,2.85 1.15,4.55 1.15,1.65 2.3,-0.15 2.55,-0.85 -0.55,-0.15 -1.1,-0.5 -1.2,-0.75 -0.15,-0.4 0.95,-0.75 2.1,-2.25 z"
             inkscape:connector-curvature="0"
             style="fill:#000000;fill-opacity:0.25099996" />
        </g>
        <g
           id="drawingObject7">
          <path
             id="path7"
             d="m 30.001,-16.349 c -0.3,-0.95 -0.85,-1.95 -1.85,-2.45 -1.5,-0.85 -3.95,0.15 -6,1.25 l -0.3,0.35 c 1.65,-0.8 3.85,-1.05 5.45,-0.9 q 1.45,0.15 2.7,1.75 z"
             inkscape:connector-curvature="0"
             style="fill:#ffffff;fill-opacity:0.2" />
        </g>
      </g>
    </g>
  </g>
</svg>
