<?xml version="1.0" encoding="UTF-8" standalone="no"?>
<!-- Generator: flash2svg, http://dissentgraphics.com/tools/flash2svg -->

<svg
   xmlns:dc="http://purl.org/dc/elements/1.1/"
   xmlns:cc="http://creativecommons.org/ns#"
   xmlns:rdf="http://www.w3.org/1999/02/22-rdf-syntax-ns#"
   xmlns:svg="http://www.w3.org/2000/svg"
   xmlns="http://www.w3.org/2000/svg"
   xmlns:xlink="http://www.w3.org/1999/xlink"
   xmlns:sodipodi="http://sodipodi.sourceforge.net/DTD/sodipodi-0.dtd"
   xmlns:inkscape="http://www.inkscape.org/namespaces/inkscape"
   id="AvatarAssets"
   image-rendering="auto"
   version="1.1"
   x="0px"
   y="0px"
   width="66.279312"
   height="13.032425"
   viewBox="0 0 66.279312 13.032425"
   inkscape:version="0.48.4 r9939"
   sodipodi:docname="AvatarAssets_backEars0003.svg">
  <metadata
     id="metadata3123">
    <rdf:RDF>
      <cc:Work
         rdf:about="">
        <dc:format>image/svg+xml</dc:format>
        <dc:type
           rdf:resource="http://purl.org/dc/dcmitype/StillImage" />
      </cc:Work>
    </rdf:RDF>
  </metadata>
  <sodipodi:namedview
     pagecolor="#ffffff"
     bordercolor="#666666"
     borderopacity="1"
     objecttolerance="10"
     gridtolerance="10"
     guidetolerance="10"
     inkscape:pageopacity="0"
     inkscape:pageshadow="2"
     inkscape:window-width="640"
     inkscape:window-height="480"
     id="namedview3121"
     showgrid="false"
     fit-margin-top="0"
     fit-margin-left="0"
     fit-margin-right="0"
     fit-margin-bottom="0"
     inkscape:zoom="1.9032258"
     inkscape:cx="65.238658"
     inkscape:cy="-70.366575"
     inkscape:window-x="0"
     inkscape:window-y="0"
     inkscape:window-maximized="0"
     inkscape:current-layer="AvatarAssets" />
  <defs
     id="defs3077">
    <pattern
       id="bitmap"
       patternContentUnits="userSpaceOnUse"
       patternUnits="userSpaceOnUse"
       width="200"
       height="200"
       viewBox="0 0 200 200"
       patternTransform="matrix(1 0 0 1 -84.249 -51.249)">
      <symbol
         id="Avatar_Texture_symbol"
         viewBox="0 0 200 200">
        <image
           sodipodi:absref="C:\Users\Training\Documents\GitHub\glitch-avatars\base_avatar\Avatar_Texture"
           xlink:href="Avatar_Texture"
           height="200"
           width="200"
           id="Avatar_Texture" />
      </symbol>
      <use
         id="Avatar_Texture_use"
         width="200"
         height="200"
         y="0"
         x="0"
         xlink:href="#Avatar_Texture_symbol"
         externalResourcesRequired="true" />
    </pattern>
    <pattern
       id="bitmap1"
       patternContentUnits="userSpaceOnUse"
       patternUnits="userSpaceOnUse"
       width="200"
       height="200"
       viewBox="0 0 200 200"
       patternTransform="matrix(1 0 0 1 -36.399 -51.099)">
      <symbol
         id="Avatar_Texture_symbol1"
         viewBox="0 0 200 200">
        <image
           sodipodi:absref="C:\Users\Training\Documents\GitHub\glitch-avatars\base_avatar\Avatar_Texture"
           xlink:href="Avatar_Texture"
           height="200"
           width="200"
           id="Avatar_Texture1" />
      </symbol>
      <use
         id="Avatar_Texture_use1"
         width="200"
         height="200"
         y="0"
         x="0"
         xlink:href="#Avatar_Texture_symbol1"
         externalResourcesRequired="true" />
    </pattern>
    <pattern
       id="bitmap2"
       patternContentUnits="userSpaceOnUse"
       patternUnits="userSpaceOnUse"
       width="200"
       height="200"
       viewBox="0 0 200 200"
       patternTransform="matrix(1 0 0 1 -126.049 -114.849)">
      <symbol
         id="symbol3088"
         viewBox="0 0 200 200">
        <image
           sodipodi:absref="C:\Users\Training\Documents\GitHub\glitch-avatars\base_avatar\Avatar_Texture"
           xlink:href="Avatar_Texture"
           height="200"
           width="200"
           id="image3090" />
      </symbol>
      <use
         id="use3092"
         width="200"
         height="200"
         y="0"
         x="0"
         xlink:href="#Avatar_Texture_symbol"
         externalResourcesRequired="true" />
    </pattern>
    <pattern
       id="bitmap3"
       patternContentUnits="userSpaceOnUse"
       patternUnits="userSpaceOnUse"
       width="200"
       height="200"
       viewBox="0 0 200 200"
       patternTransform="matrix(1 0 0 1 -73.949 -114.699)">
      <symbol
         id="symbol3095"
         viewBox="0 0 200 200">
        <image
           sodipodi:absref="C:\Users\Training\Documents\GitHub\glitch-avatars\base_avatar\Avatar_Texture"
           xlink:href="Avatar_Texture"
           height="200"
           width="200"
           id="image3097" />
      </symbol>
      <use
         id="use3099"
         width="200"
         height="200"
         y="0"
         x="0"
         xlink:href="#Avatar_Texture_symbol1"
         externalResourcesRequired="true" />
    </pattern>
  </defs>
  <g
     id="backEars4"
     overflow="visible"
     style="overflow:visible"
     transform="translate(33.238658,21.399)">
    <g
       id="backEars0003_0">
      <g
         id="element">
        <path
           id="path"
           d="m 18.101,-10.549 c -1,1.7 -0.15,3.35 2.85,-1.8 q 0.3,-0.6 0.3,-3.85 c 0,0 -2.15,4 -3.15,5.65 z"
           inkscape:connector-curvature="0"
           style="fill:#000000;fill-opacity:0.29800002" />
      </g>
      <g
         id="element1">
        <g
           id="drawingObject1">
          <path
             id="path1"
             d="m -21.449,-16.399 0.05,1.7 q 0.1,1.8 0.3,2.15 c 3,5.2 3.8,3.5 2.8,1.85 l -3.15,-5.7 z"
             inkscape:connector-curvature="0"
             style="fill:#000000;fill-opacity:0.29800002" />
        </g>
        <g
           id="drawingObject2">
          <path
             id="path2"
             d="m -31.749,-20.549 c -1.4,-0.75 -1.35,-0.85 -1.35,-0.85 0,0 -1.15,6 3.15,8.75 3.85,2.45 4.45,3.15 6.85,3.9 2.35,0.75 4.75,-0.55 3.8,-2.75 -0.9,-2.2 -1.5,-3.2 -1.8,-3.95 q -0.1,-0.55 -0.65,-1.25 -1.1,-1.35 -3.4,-2.05 c -3.7,-1.1 -4.3,-0.65 -6.6,-1.8 z"
             inkscape:connector-curvature="0"
             style="fill:url(#bitmap2)" />
        </g>
        <g
           id="drawingObject3">
          <path
             id="path3"
             d="m -20.799,-14.799 c -3.4,-1.15 -5.25,-1.25 -5.55,-0.3 -0.3,0.95 0,2.05 0.9,3.25 0.9,1.15 0.25,1.25 -1.95,0.2 -1.75,-0.8 -3.55,-2.25 -4.65,-3.25 0.5,0.85 1.15,1.65 2.1,2.25 3.85,2.45 4.45,3.15 6.85,3.9 2.35,0.75 4.75,-0.55 3.8,-2.75 q -0.55,-1.4 -1.5,-3.3 z"
             inkscape:connector-curvature="0"
             style="fill:#000000;fill-opacity:0.29800002" />
        </g>
        <g
           id="drawingObject4">
          <path
             id="path4"
             d="m -25.149,-18.749 c -3.7,-1.1 -4.3,-0.65 -6.6,-1.8 -0.7,-0.4 -1.05,-0.6 -1.35,-0.8 l -0.05,0.55 q 0.95,1.85 2.45,2.15 c 2.6,0.6 7.65,2.05 9.9,3.85 l -0.3,-0.65 c 0,0 -0.4,-2.2 -4.05,-3.3 z"
             inkscape:connector-curvature="0"
             style="fill:#ffffff;fill-opacity:0.25099996" />
        </g>
      </g>
      <g
         id="element2">
        <g
           id="drawingObject5">
          <path
             id="path5"
             d="m 21.551,-16.549 -0.65,1.25 c -0.3,0.75 -0.9,1.8 -1.8,3.95 -0.9,2.2 1.45,3.55 3.8,2.75 2.4,-0.75 3,-1.45 6.85,-3.9 4.3,-2.75 3.15,-8.75 3.15,-8.75 0,0 0.05,0.15 -1.35,0.85 -2.3,1.15 -2.9,0.75 -6.55,1.8 q -2.3,0.7 -3.45,2.05 z"
             inkscape:connector-curvature="0"
             style="fill:url(#bitmap3)" />
        </g>
        <g
           id="drawingObject6">
          <path
             id="path6"
             d="m 24.251,-10.549 c 0.35,-0.5 0.75,-1.4 1.2,-2.75 0.4,-1.35 -1.2,-1.8 -4.85,-1.35 q -0.85,1.7 -1.5,3.3 c -0.9,2.2 1.45,3.55 3.8,2.75 2.4,-0.75 3,-1.45 6.85,-3.9 0.95,-0.6 1.65,-1.4 2.1,-2.2 -1.05,0.95 -2.85,2.45 -4.65,3.25 -2.35,1.05 -3.35,1.35 -2.95,0.9 z"
             inkscape:connector-curvature="0"
             style="fill:#000000;fill-opacity:0.29800002" />
        </g>
        <g
           id="drawingObject7">
          <path
             id="path7"
             d="m 21.551,-16.549 -0.95,1.95 c 2.25,-1.85 7.3,-3.25 9.9,-3.9 q 1.5,-0.35 2.45,-2.1 l -0.05,-0.6 c -0.1,0.1 -0.3,0.3 -1.35,0.8 -2.3,1.15 -2.9,0.75 -6.55,1.8 -1.55,0.45 -2.7,1.15 -3.45,2.05 z"
             inkscape:connector-curvature="0"
             style="fill:#ffffff;fill-opacity:0.25099996" />
        </g>
      </g>
    </g>
  </g>
</svg>
