<?xml version="1.0" encoding="UTF-8" standalone="no"?>
<!-- Generator: flash2svg, http://dissentgraphics.com/tools/flash2svg -->

<svg
   xmlns:dc="http://purl.org/dc/elements/1.1/"
   xmlns:cc="http://creativecommons.org/ns#"
   xmlns:rdf="http://www.w3.org/1999/02/22-rdf-syntax-ns#"
   xmlns:svg="http://www.w3.org/2000/svg"
   xmlns="http://www.w3.org/2000/svg"
   xmlns:sodipodi="http://sodipodi.sourceforge.net/DTD/sodipodi-0.dtd"
   xmlns:inkscape="http://www.inkscape.org/namespaces/inkscape"
   id="AvatarAssets"
   image-rendering="auto"
   version="1.1"
   x="0px"
   y="0px"
   width="27.98975"
   height="9.7465563"
   viewBox="0 0 27.98975 9.7465563"
   inkscape:version="0.48.4 r9939"
   sodipodi:docname="AvatarAssets_sideMouth01Anim.svg">
  <metadata
     id="metadata3232">
    <rdf:RDF>
      <cc:Work
         rdf:about="">
        <dc:format>image/svg+xml</dc:format>
        <dc:type
           rdf:resource="http://purl.org/dc/dcmitype/StillImage" />
      </cc:Work>
    </rdf:RDF>
  </metadata>
  <sodipodi:namedview
     pagecolor="#ffffff"
     bordercolor="#666666"
     borderopacity="1"
     objecttolerance="10"
     gridtolerance="10"
     guidetolerance="10"
     inkscape:pageopacity="0"
     inkscape:pageshadow="2"
     inkscape:window-width="640"
     inkscape:window-height="480"
     id="namedview3230"
     showgrid="false"
     fit-margin-top="0"
     fit-margin-left="0"
     fit-margin-right="0"
     fit-margin-bottom="0"
     inkscape:zoom="1.9032258"
     inkscape:cx="46.588751"
     inkscape:cy="-56.472194"
     inkscape:window-x="0"
     inkscape:window-y="0"
     inkscape:window-maximized="0"
     inkscape:current-layer="AvatarAssets" />
  <defs
     id="defs2997">
    <linearGradient
       gradientUnits="userSpaceOnUse"
       color-interpolation="sRGB"
       x1="8.5249996"
       y1="0.76249999"
       x2="9.0749998"
       y2="7.2375002"
       id="linearGradient">
      <stop
         stop-color="#663613"
         stop-opacity="1"
         offset="0"
         id="stop3000" />
      <stop
         stop-color="#9E5A29"
         stop-opacity="1"
         offset="1"
         id="stop3002" />
    </linearGradient>
    <linearGradient
       gradientUnits="userSpaceOnUse"
       color-interpolation="sRGB"
       x1="5.7874999"
       y1="4.0875001"
       x2="6.7125001"
       y2="7.6125002"
       id="linearGradient1">
      <stop
         stop-color="#AD5936"
         stop-opacity="1"
         offset="0"
         id="stop3005" />
      <stop
         stop-color="#9E4C33"
         stop-opacity="1"
         offset="1"
         id="stop3007" />
    </linearGradient>
    <radialGradient
       gradientUnits="userSpaceOnUse"
       color-interpolation="sRGB"
       r="10.090055"
       cx="5.0999999"
       cy="6.6500001"
       fx="5.0999999"
       fy="6.6500001"
       gradientTransform="matrix(1,-0.04049683,-0.0269928,-0.85890198,0.2,12.55)"
       id="radialGradient">
      <stop
         stop-color="#FAF1E4"
         stop-opacity="1"
         offset="0"
         id="stop3010" />
      <stop
         stop-color="#E3D6BF"
         stop-opacity="1"
         offset="1"
         id="stop3012" />
    </radialGradient>
    <radialGradient
       gradientUnits="userSpaceOnUse"
       color-interpolation="sRGB"
       r="10.090055"
       cx="5.0999999"
       cy="6.6500001"
       fx="5.0999999"
       fy="6.6500001"
       gradientTransform="matrix(1,-0.04049683,-0.0269928,-0.85890198,0.2,12.55)"
       id="radialGradient1">
      <stop
         stop-color="#FAF1E4"
         stop-opacity="1"
         offset="0"
         id="stop3015" />
      <stop
         stop-color="#E3D6BF"
         stop-opacity="1"
         offset="1"
         id="stop3017" />
    </radialGradient>
    <radialGradient
       gradientUnits="userSpaceOnUse"
       color-interpolation="sRGB"
       r="10.090055"
       cx="5.0999999"
       cy="6.6500001"
       fx="5.0999999"
       fy="6.6500001"
       gradientTransform="matrix(1,-0.04049683,-0.0269928,-0.85890198,0.2,12.55)"
       id="radialGradient2">
      <stop
         stop-color="#FAF1E4"
         stop-opacity="1"
         offset="0"
         id="stop3020" />
      <stop
         stop-color="#E3D6BF"
         stop-opacity="1"
         offset="1"
         id="stop3022" />
    </radialGradient>
    <radialGradient
       gradientUnits="userSpaceOnUse"
       color-interpolation="sRGB"
       r="10.090055"
       cx="5.0999999"
       cy="6.6500001"
       fx="5.0999999"
       fy="6.6500001"
       gradientTransform="matrix(1,-0.04049683,-0.0269928,-0.85890198,0.2,12.55)"
       id="radialGradient3">
      <stop
         stop-color="#FAF1E4"
         stop-opacity="1"
         offset="0"
         id="stop3025" />
      <stop
         stop-color="#E3D6BF"
         stop-opacity="1"
         offset="1"
         id="stop3027" />
    </radialGradient>
    <linearGradient
       gradientUnits="userSpaceOnUse"
       color-interpolation="sRGB"
       x1="-0.31150001"
       y1="-2.8625"
       x2="-0.3865"
       y2="3.9625001"
       id="linearGradient2">
      <stop
         stop-color="#663613"
         stop-opacity="1"
         offset="0"
         id="stop3030" />
      <stop
         stop-color="#9E5A29"
         stop-opacity="1"
         offset="1"
         id="stop3032" />
    </linearGradient>
    <linearGradient
       gradientUnits="userSpaceOnUse"
       color-interpolation="sRGB"
       x1="-4.9864998"
       y1="-1.45"
       x2="-2.7114999"
       y2="4.5500002"
       id="linearGradient3">
      <stop
         stop-color="#AD5936"
         stop-opacity="1"
         offset="0"
         id="stop3035" />
      <stop
         stop-color="#9E4C33"
         stop-opacity="1"
         offset="1"
         id="stop3037" />
    </linearGradient>
    <linearGradient
       gradientUnits="userSpaceOnUse"
       color-interpolation="sRGB"
       x1="-4.9864998"
       y1="-1.45"
       x2="-2.7114999"
       y2="4.5500002"
       id="linearGradient4">
      <stop
         stop-color="#AD5936"
         stop-opacity="1"
         offset="0"
         id="stop3040" />
      <stop
         stop-color="#9E4C33"
         stop-opacity="1"
         offset="1"
         id="stop3042" />
    </linearGradient>
    <linearGradient
       gradientUnits="userSpaceOnUse"
       color-interpolation="sRGB"
       x1="-4.9864998"
       y1="-1.45"
       x2="-2.7114999"
       y2="4.5500002"
       id="linearGradient5">
      <stop
         stop-color="#AD5936"
         stop-opacity="1"
         offset="0"
         id="stop3045" />
      <stop
         stop-color="#9E4C33"
         stop-opacity="1"
         offset="1"
         id="stop3047" />
    </linearGradient>
    <linearGradient
       gradientUnits="userSpaceOnUse"
       color-interpolation="sRGB"
       x1="13.2625"
       y1="1.55"
       x2="14.3375"
       y2="9.0500002"
       id="linearGradient6">
      <stop
         stop-color="#663613"
         stop-opacity="1"
         offset="0"
         id="stop3050" />
      <stop
         stop-color="#9E5A29"
         stop-opacity="1"
         offset="1"
         id="stop3052" />
    </linearGradient>
    <linearGradient
       gradientUnits="userSpaceOnUse"
       color-interpolation="sRGB"
       x1="7.3000002"
       y1="2.95"
       x2="9.1999998"
       y2="7.9499998"
       id="linearGradient7">
      <stop
         stop-color="#AD5936"
         stop-opacity="1"
         offset="0"
         id="stop3055" />
      <stop
         stop-color="#9E4C33"
         stop-opacity="1"
         offset="1"
         id="stop3057" />
    </linearGradient>
    <radialGradient
       gradientUnits="userSpaceOnUse"
       color-interpolation="sRGB"
       r="1.6328796"
       cx="6.5500002"
       cy="1.5"
       fx="6.5500002"
       fy="1.5"
       gradientTransform="matrix(1,0,0,-1,0,3)"
       id="radialGradient4">
      <stop
         stop-color="#FAF1E4"
         stop-opacity="1"
         offset="0"
         id="stop3060" />
      <stop
         stop-color="#E3D6BF"
         stop-opacity="1"
         offset="1"
         id="stop3062" />
    </radialGradient>
    <radialGradient
       gradientUnits="userSpaceOnUse"
       color-interpolation="sRGB"
       r="11.051726"
       cx="9.1000004"
       cy="6.4000001"
       fx="9.1000004"
       fy="6.4000001"
       gradientTransform="matrix(1,0.03022766,0.03022766,-1,-0.199,12.5)"
       id="radialGradient5">
      <stop
         stop-color="#FAF1E4"
         stop-opacity="1"
         offset="0"
         id="stop3065" />
      <stop
         stop-color="#E3D6BF"
         stop-opacity="1"
         offset="1"
         id="stop3067" />
    </radialGradient>
    <radialGradient
       gradientUnits="userSpaceOnUse"
       color-interpolation="sRGB"
       r="11.051726"
       cx="9.1000004"
       cy="6.4000001"
       fx="9.1000004"
       fy="6.4000001"
       gradientTransform="matrix(1,0.03022766,0.03022766,-1,-0.199,12.5)"
       id="radialGradient6">
      <stop
         stop-color="#FAF1E4"
         stop-opacity="1"
         offset="0"
         id="stop3070" />
      <stop
         stop-color="#E3D6BF"
         stop-opacity="1"
         offset="1"
         id="stop3072" />
    </radialGradient>
    <linearGradient
       gradientUnits="userSpaceOnUse"
       color-interpolation="sRGB"
       x1="-1.336"
       y1="-2.549"
       x2="-0.26100001"
       y2="4.9510002"
       id="linearGradient8">
      <stop
         stop-color="#663613"
         stop-opacity="1"
         offset="0"
         id="stop3075" />
      <stop
         stop-color="#9E5A29"
         stop-opacity="1"
         offset="1"
         id="stop3077" />
    </linearGradient>
    <linearGradient
       gradientUnits="userSpaceOnUse"
       color-interpolation="sRGB"
       x1="-7.2989998"
       y1="-1.149"
       x2="-5.3990002"
       y2="3.8510001"
       id="linearGradient9">
      <stop
         stop-color="#AD5936"
         stop-opacity="1"
         offset="0"
         id="stop3080" />
      <stop
         stop-color="#9E4C33"
         stop-opacity="1"
         offset="1"
         id="stop3082" />
    </linearGradient>
    <radialGradient
       gradientUnits="userSpaceOnUse"
       color-interpolation="sRGB"
       r="1.633"
       cx="-7.9990001"
       cy="0.45100001"
       fx="-7.9990001"
       fy="0.45100001"
       gradientTransform="matrix(1,0,0,-1,0,-1.999)"
       id="radialGradient7">
      <stop
         stop-color="#FAF1E4"
         stop-opacity="1"
         offset="0"
         id="stop3085" />
      <stop
         stop-color="#E3D6BF"
         stop-opacity="1"
         offset="1"
         id="stop3087" />
    </radialGradient>
    <radialGradient
       gradientUnits="userSpaceOnUse"
       color-interpolation="sRGB"
       r="11.057"
       cx="-5.5949998"
       cy="14.853"
       fx="-5.5949998"
       fy="14.853"
       gradientTransform="matrix(1,0.03,0.03,-1,-0.249,17.3)"
       id="radialGradient8">
      <stop
         stop-color="#FAF1E4"
         stop-opacity="1"
         offset="0"
         id="stop3090" />
      <stop
         stop-color="#E3D6BF"
         stop-opacity="1"
         offset="1"
         id="stop3092" />
    </radialGradient>
    <radialGradient
       gradientUnits="userSpaceOnUse"
       color-interpolation="sRGB"
       r="11.057"
       cx="-5.5949998"
       cy="14.853"
       fx="-5.5949998"
       fy="14.853"
       gradientTransform="matrix(1,0.03,0.03,-1,-0.249,17.3)"
       id="radialGradient9">
      <stop
         stop-color="#FAF1E4"
         stop-opacity="1"
         offset="0"
         id="stop3095" />
      <stop
         stop-color="#E3D6BF"
         stop-opacity="1"
         offset="1"
         id="stop3097" />
    </radialGradient>
    <linearGradient
       gradientUnits="userSpaceOnUse"
       color-interpolation="sRGB"
       x1="-0.31099999"
       y1="-2.862"
       x2="-0.38600001"
       y2="3.9630001"
       id="linearGradient10">
      <stop
         stop-color="#663613"
         stop-opacity="1"
         offset="0"
         id="stop3100" />
      <stop
         stop-color="#9E5A29"
         stop-opacity="1"
         offset="1"
         id="stop3102" />
    </linearGradient>
    <linearGradient
       gradientUnits="userSpaceOnUse"
       color-interpolation="sRGB"
       x1="-4.9860001"
       y1="-1.45"
       x2="-2.711"
       y2="4.5500002"
       id="linearGradient11">
      <stop
         stop-color="#AD5936"
         stop-opacity="1"
         offset="0"
         id="stop3105" />
      <stop
         stop-color="#9E4C33"
         stop-opacity="1"
         offset="1"
         id="stop3107" />
    </linearGradient>
    <linearGradient
       gradientUnits="userSpaceOnUse"
       color-interpolation="sRGB"
       x1="1.676"
       y1="-2.737"
       x2="2.2260001"
       y2="3.7390001"
       id="linearGradient12">
      <stop
         stop-color="#663613"
         stop-opacity="1"
         offset="0"
         id="stop3110" />
      <stop
         stop-color="#9E5A29"
         stop-opacity="1"
         offset="1"
         id="stop3112" />
    </linearGradient>
    <linearGradient
       gradientUnits="userSpaceOnUse"
       color-interpolation="sRGB"
       x1="-1.062"
       y1="0.588"
       x2="-0.13600001"
       y2="4.1139998"
       id="linearGradient13">
      <stop
         stop-color="#AD5936"
         stop-opacity="1"
         offset="0"
         id="stop3115" />
      <stop
         stop-color="#9E4C33"
         stop-opacity="1"
         offset="1"
         id="stop3117" />
    </linearGradient>
    <radialGradient
       gradientUnits="userSpaceOnUse"
       color-interpolation="sRGB"
       r="10.099"
       cx="-1.495"
       cy="15.755"
       fx="-1.495"
       fy="15.755"
       gradientTransform="matrix(0.999,-0.04,-0.027,-0.858,0.25,16.6)"
       id="radialGradient10">
      <stop
         stop-color="#FAF1E4"
         stop-opacity="1"
         offset="0"
         id="stop3120" />
      <stop
         stop-color="#E3D6BF"
         stop-opacity="1"
         offset="1"
         id="stop3122" />
    </radialGradient>
    <radialGradient
       gradientUnits="userSpaceOnUse"
       color-interpolation="sRGB"
       r="10.099"
       cx="-1.495"
       cy="15.755"
       fx="-1.495"
       fy="15.755"
       gradientTransform="matrix(0.999,-0.04,-0.027,-0.858,0.25,16.6)"
       id="radialGradient11">
      <stop
         stop-color="#FAF1E4"
         stop-opacity="1"
         offset="0"
         id="stop3125" />
      <stop
         stop-color="#E3D6BF"
         stop-opacity="1"
         offset="1"
         id="stop3127" />
    </radialGradient>
  </defs>
  <g
     id="sideMouth01Anim1"
     overflow="visible"
     style="overflow:visible"
     transform="translate(14.588751,4.21875)">
    <g
       id="sideMouth01Anim_1_6">
      <g
         id="element6">
        <path
           id="path32"
           d="m 5.701,3.951 c 0,0 -0.75,-0.25 -4.45,-0.15 q -3.65,0.05 -7.05,0.9 c 0.65,-0.15 0.3,0.4 1.55,0.65 1.25,0.25 4.2,0.35 5.25,-0.5 1.1,-0.8 4.7,-0.9 4.7,-0.9 z"
           inkscape:connector-curvature="0"
           style="fill:#000000;fill-opacity:0.08600003" />
      </g>
      <g
         id="element7">
        <path
           id="path33"
           d="m 7.751,3.851 c 1.6,0 2,-1.55 2,-2.15 0,-0.6 -8.9,-1.5 -10.65,-1.5 -1.75,0 -9.85,0.6 -9.85,0.6 q -1.4,0.65 -3.75,-0.35 l 0.05,1.65 -0.05,-1.65 c 0,0 -0.9,3 3,4.1 3.95,1.05 7,-0.45 10.2,-0.7 3.15,-0.25 7.5,0 9.05,0 z"
           inkscape:connector-curvature="0"
           style="fill:#ffffff;fill-opacity:0.278" />
      </g>
      <g
         id="element8">
        <path
           id="path34"
           d="m 12.451,-1.849 c 0,0 -1,-0.2 -2.35,-0.25 q -4.35,0 -12.3,-1.6 c -7.25,-1.4 -13.1,1.25 -12.3,4.55 0.75,3.3 3.45,3.5 7.85,2.85 4.4,-0.7 10,-0.75 12.3,-0.6 2.3,0.15 3.55,0.2 3.9,-0.65 0.35,-0.9 0.35,-1.45 1.25,-2.3 0.85,-0.8 1.65,-2 1.65,-2 z"
           inkscape:connector-curvature="0"
           style="fill:url(#linearGradient8)" />
      </g>
      <g
         id="element9">
        <path
           id="path35"
           d="m 2.301,3.051 -0.05,-0.15 q -1.3,-1.8 -4.2,-3.2 -3.25,-1.55 -6.2,-1.2 c -2.95,0.35 -5.1,1.25 -6.4,2.25 l 0.05,0.1 c 0.2,0.9 0.55,1.6 1.1,2.1 0.55,0.25 1.15,0.5 1.85,0.7 l 1.15,0.35 c 1.05,0.05 2.3,-0.1 3.75,-0.3 2.9,-0.45 6.3,-0.65 8.95,-0.65 z"
           inkscape:connector-curvature="0"
           style="fill:url(#linearGradient9)" />
      </g>
      <g
         id="element10">
        <path
           id="path36"
           d="m -8.399,-1.199 c 1,0.35 2.1,-0.95 2.15,-2.5 l 0.05,-0.35 c -1.35,-0.05 -2.6,0.05 -3.65,0.3 0,0.95 0.65,2.3 1.45,2.55 z"
           inkscape:connector-curvature="0"
           style="fill:url(#radialGradient7)" />
      </g>
      <g
         id="element11">
        <path
           id="path37"
           d="m -6.199,-4.049 c -1.35,-0.05 -2.6,0.05 -3.65,0.3 q 0,0.75 0.45,1.55 0.4,0.8 1,1 c 0.45,0.15 0.85,0 1.25,-0.35 -1.1,0.05 -1.75,-1.5 -0.9,-1.75 l 1.85,-0.65 0,-0.1 z"
           inkscape:connector-curvature="0"
           style="fill:#cfc2aa" />
      </g>
      <g
         id="element12">
        <path
           id="path38"
           d="m -2.899,1.201 c -1.1,0 -1.75,0.35 -1.75,0.35 l 0.45,-0.15 -0.45,0.15 c 0,0 -0.5,-0.35 -1.75,-0.35 -1.25,0 -2.4,1.25 -2.4,1.25 0,0 -0.25,-0.85 -1.5,-0.75 -1.2,0.1 -1.9,0.7 -2,1.95 1.35,0.5 3.25,0.4 5.65,0.05 q 3.1,-0.45 7.15,-0.65 c -0.05,-1.35 -0.75,-1.7 -1.15,-1.75 -0.4,-0.1 -1.15,-0.1 -2.25,-0.1 z"
           inkscape:connector-curvature="0"
           style="fill:url(#radialGradient8)" />
      </g>
      <g
         id="element13">
        <path
           id="path39"
           d="m 5.651,3.101 0.55,0 q -0.4,-1.5 -1.5,-1.55 c -1.1,-0.1 -2,0.5 -2.1,1.15 l -0.1,0.35 c 1.3,-0.05 2.4,0 3.15,0.05 z"
           inkscape:connector-curvature="0"
           style="fill:url(#radialGradient9)" />
      </g>
      <g
         id="element14">
        <path
           id="path40"
           d="m -2.149,2.801 c -2.1,0 -2.45,-0.9 -2.45,-0.9 l 0.45,0.45 -0.45,-0.45 0,0.3 c 0,0.35 -2.05,1.2 -2.25,0.25 -0.05,-0.45 0.3,-0.9 0.7,-1.25 l -0.25,0 c -1.25,0 -2.4,1.25 -2.4,1.25 l -0.05,-0.1 c -0.8,0.8 -2.1,1.25 -2.25,0.55 -0.05,-0.3 0,-0.65 0.1,-1.05 -0.75,0.25 -1.25,0.8 -1.3,1.8 1.35,0.5 3.25,0.4 5.65,0.05 2.3,-0.35 4.85,-0.55 7.15,-0.65 l -0.05,-0.5 c -0.6,0.1 -1.5,0.25 -2.6,0.25 z"
           inkscape:connector-curvature="0"
           style="fill:#cfc2aa" />
      </g>
      <g
         id="element15">
        <path
           id="path41"
           d="m 4.351,2.251 0.35,-0.7 q -0.8,-0.05 -1.4,0.3 -0.6,0.35 -0.7,0.85 l -0.1,0.35 c 1.3,-0.05 2.4,0 3.15,0.05 l 0.55,0 c -2.95,-0.2 -1.5,-1.55 -1.5,-1.55"
           inkscape:connector-curvature="0"
           style="fill:#cfc2aa" />
      </g>
      <animate
         attributeName="display"
         begin="0s"
         repeatCount="indefinite"
         dur="0.25s"
         keyTimes="0;1;1"
         values="none;inline;none"
         id="animate3151" />
    </g>
    <g
       id="sideMouth01Anim_1_5">
      <g
         id="element5">
        <g
           id="drawingObject23">
          <path
             id="path29"
             d="m 11.401,0.451 c 0.1,-0.5 -0.9,-1.6 -2.55,-1.8 -1.7,-0.2 -10.95,0.2 -13.5,0.45 -2.6,0.2 -3.7,1.15 -3.7,1.15 q 1.85,0.3 3,0.85 c 1.2,0.55 3.45,0.75 5.7,0.2 2.25,-0.5 7,-0.5 8.15,-0.1 1.15,0.45 2.85,-0.2 2.9,-0.75 z"
             inkscape:connector-curvature="0"
             style="fill:#ffffff;fill-opacity:0.278" />
        </g>
        <g
           id="drawingObject24">
          <path
             id="path30"
             d="m 5.601,-1.249 c 4.55,-0.25 6.25,1.7 6.25,1.7 q -0.4,-0.55 -1.35,-1.1 -1.9,-1.1 -4.5,-1.15 c -4.9,-0.1 -11.55,0.9 -13.9,1.5 -2.5,0.65 -1.85,3.5 -1.35,1.85 0.7,-2.25 9.9,-2.5 14.85,-2.8 z"
             inkscape:connector-curvature="0"
             style="fill:#7d6034" />
        </g>
        <g
           id="drawingObject25">
          <path
             id="path31"
             d="m 6.601,3.351 c 0,0 0.25,-1.15 -0.5,-1.5 q -2.35,-0.65 -5.4,-0.25 c -3.1,0.45 -5.2,0.2 -6.2,0.1 -1,-0.1 -0.05,1.65 1.6,1.75 1.65,0.1 4.15,-1 5.9,-1.1 1.75,-0.05 3.75,-0.15 4.2,0.45 l 0.4,0.55 z"
             inkscape:connector-curvature="0"
             style="fill:#000000;fill-opacity:0.08600003" />
        </g>
      </g>
      <animate
         attributeName="display"
         begin="0s"
         repeatCount="indefinite"
         dur="0.25s"
         keyTimes="0;0.833;1"
         values="none;inline;none"
         id="animate3161" />
    </g>
    <g
       id="sideMouth01Anim_1_4">
      <g
         id="element4">
        <g
           id="drawingObject17">
          <path
             id="path21"
             d="m -0.799,-0.149 11.2,-2.05 c 1.3,-0.35 3,-1.2 3,-1.2 0,0 -0.45,-0.8 -2.25,-0.4 -6.1,1.35 -9.5,0.1 -12.75,-0.1 -3.25,-0.15 -11,-0.2 -11,-0.2 q 7.15,2.9 11.8,3.95 z"
             inkscape:connector-curvature="0"
             style="fill:#000000;fill-opacity:0.08600003" />
        </g>
        <g
           id="drawingObject18">
          <path
             id="path22"
             d="m 10.4,-0.15 0.15,0.05 c -0.05,-0.05 0,-0.5 0.3,-0.85 l 2.3,-2.55 c 0,0 -2.65,0.45 -7.65,0.55 Q -0.35,-2.8 -6.45,-3.6 c -3.45,-0.45 -5.6,-0.65 -6.9,-0.6 0.3,0 0.45,0 0.65,0 0.4,1.45 1.35,3.7 4.9,5.55 3.2,1.6 9.05,3.25 13.05,2.05 4,-1.15 4.95,-2.05 5.05,-2.8 l 0.1,-0.75 z"
             inkscape:connector-curvature="0"
             style="fill:url(#linearGradient10)" />
        </g>
        <g
           id="drawingObject19">
          <path
             id="path23"
             d="M -11.375,-0.125 -11.4,-0.1 c 0.25,0.25 0.5,0.5 0.7,0.65 -0.05,-0.15 -0.35,-0.4 -0.65,-0.65 m 6.85,-1.6 c -2.75,-0.15 -4.95,0.3 -6.15,1.05 0.9,0.8 1.75,1.4 2.85,2 2.9,1.45 7.95,2.95 11.6,2.4 l 0,-0.025 Q 2.949,1.964 0.75,0.4 -1.85,-1.5 -4.5,-1.7 z"
             inkscape:connector-curvature="0"
             style="fill:url(#linearGradient11)" />
        </g>
        <g
           id="drawingObject20">
          <path
             id="path26"
             d="M 10.55,-0.1 10.4,-0.15 10.3,0.6 C 10.2,1.35 9.25,2.25 5.25,3.4 1.25,4.6 -4.6,2.95 -7.8,1.35 c -3.55,-1.85 -4.5,-4.1 -4.9,-5.55 -0.7,-0.05 -1,0 -1,0.15 0,0.35 1.05,3.9 5.4,6.2 C -3.95,4.4 0,5.1 4.9,4.4 8.7,3.85 10.85,1.15 10.85,1.15 q -0.3,-0.6 -0.3,-1.25 z"
             inkscape:connector-curvature="0"
             style="fill:#ffffff;fill-opacity:0.278" />
        </g>
        <g
           id="drawingObject21">
          <path
             id="path27"
             d="m -5.249,-3.349 -3.7,-0.45 q 0.2,1.75 1.05,2.35 c 0.7,0.45 2.35,0.85 2.65,-1.9 z"
             inkscape:connector-curvature="0"
             style="fill:#f5ebdc" />
        </g>
        <g
           id="drawingObject22">
          <path
             id="path28"
             d="m -5.249,-3.349 -3.7,-0.45 q 0.2,1.75 1.05,2.35 c 0.4,0.25 1.1,0.5 1.65,0.15 -1.3,-0.1 -1.75,-1.75 -1.05,-1.75 0.45,0 1.1,-0.1 2.05,-0.3 z"
             inkscape:connector-curvature="0"
             style="fill:#cfc2aa" />
        </g>
      </g>
      <animate
         attributeName="display"
         begin="0s"
         repeatCount="indefinite"
         dur="0.25s"
         keyTimes="0;0.667;0.833;1"
         values="none;inline;none;none"
         id="animate3177" />
    </g>
    <g
       id="sideMouth01Anim_1_3">
      <g
         id="element3">
        <g
           id="drawingObject15">
          <path
             id="path19"
             d="m 11.651,-1.049 c 0,0 -4.6,1.55 -8.85,1.25 -2.2,-0.1 -4.75,-0.75 -4.75,-0.75 q -1.1,0 -2.7,-0.35 -1.5,-0.35 -1.7,-0.55 c -0.6,-0.55 -0.6,0.15 -0.6,0.15 0,0 2,2.1 4.25,2.6 1.25,0.3 3.6,0.85 6.75,0.65 3.2,-0.15 4.55,-0.6 5.6,-1.15 1.45,-0.75 2,-1.85 2,-1.85 z"
             inkscape:connector-curvature="0"
             style="fill:#ffffff;fill-opacity:0.278" />
        </g>
        <g
           id="drawingObject16">
          <path
             id="path20"
             d="m 4.501,0.401 c 6.5,-0.2 8.3,-2.1 8.3,-2.1 q -0.7,0.45 -2.15,0.85 -2.85,0.85 -6.3,0.7 c -3.85,-0.1 -8.75,-1.05 -10.6,-1.7 -1.9,-0.65 -2.55,2.25 -1.25,1 0.9,-0.95 5.6,1.4 12,1.25 z"
             inkscape:connector-curvature="0"
             style="fill:#7d6034" />
        </g>
      </g>
      <animate
         attributeName="display"
         begin="0s"
         repeatCount="indefinite"
         dur="0.25s"
         keyTimes="0;0.5;0.667;1"
         values="none;inline;none;none"
         id="animate3185" />
    </g>
    <g
       id="sideMouth01Anim_1_2">
      <g
         id="element2">
        <g
           id="drawingObject4">
          <path
             id="path4"
             d="m 7.351,3.551 c -0.95,0.25 -2.4,0.4 -4.55,0.25 q -1.45,-0.1 -3.2,0.25 -2.45,0.5 -3.15,0.55 l 2.35,0.25 c 1.7,0.25 2.55,0.9 4.35,0.2 1.5,-0.65 3.35,-1.15 4.2,-1.5 z"
             inkscape:connector-curvature="0"
             style="fill:#000000;fill-opacity:0.08600003" />
        </g>
        <g
           id="drawingObject5">
          <path
             id="path5"
             d="m 8.551,2.051 -1.3,-0.35 c 0.05,-0.25 -3.35,-2.35 -6.55,-2.1 q -2.2,0.2 -7.35,3.55 l 0.5,0.8 -0.5,-0.8 c 0,0 0.35,1.7 2.95,1.45 2.6,-0.25 3.9,-0.95 6.5,-0.8 3.95,0.25 5.5,-0.4 6.25,-0.95 1.2,-0.9 -1.9,-0.9 -1.8,-1.15"
             inkscape:connector-curvature="0"
             style="fill:#ffffff;fill-opacity:0.278" />
        </g>
        <g
           id="drawingObject6">
          <path
             id="path6"
             d="m 8.301,1.251 c 0.15,-0.4 0,-0.85 0.9,-1.9 q 0.35,-0.4 0.85,-0.35 0.55,0.05 0.7,-0.05 c -0.7,-0.65 -1.95,-1.6 -4.45,-2.15 -3.9,-0.8 -9.1,0.15 -10.95,2.1 -3.1,3.2 -2.45,4.85 0.95,3.95 4.75,-1.25 8.4,-0.85 10.6,-1.15 0.75,-0.1 0.9,-0.2 1.4,-0.45 z"
             inkscape:connector-curvature="0"
             style="fill:#000000;fill-opacity:0.08600003" />
        </g>
        <g
           id="drawingObject7">
          <path
             id="path7"
             d="m 8.901,2.151 c 0.1,-0.4 -0.55,-0.75 0.4,-1.85 q 0.5,-0.55 1.55,-1.4 c -0.7,-0.65 -2.4,-1.15 -4.9,-1.7 -3.9,-0.8 -9.1,0.4 -10.95,2.3 -3.1,3.2 -2.05,5.25 1.4,4.35 4.75,-1.25 8.35,-0.85 10.6,-1.15 0.75,-0.1 1.35,-0.3 1.9,-0.55 z"
             inkscape:connector-curvature="0"
             style="fill:url(#linearGradient12)" />
        </g>
        <g
           id="drawingObject8">
          <path
             id="path8"
             d="m -0.749,-1.249 c 0.75,-0.25 0.95,-1.05 1.05,-1.55 q -1.7,0.3 -2.85,0.8 c 0.35,0.6 1.1,1.05 1.8,0.75 z"
             inkscape:connector-curvature="0"
             style="fill:#f5ebdc" />
        </g>
        <g
           id="drawingObject9">
          <path
             id="path9"
             d="m 0.301,-2.799 c -1.05,0.2 -2,0.45 -2.85,0.8 q 0.3,0.5 0.75,0.7 0.55,0.25 1.05,0.05 l 0.15,-0.05 c -1.2,0 -1.25,-0.6 -0.25,-0.85 l 1.05,-0.35 0.1,-0.3 z"
             inkscape:connector-curvature="0"
             style="fill:#cfc2aa" />
        </g>
        <g
           id="drawingObject10">
          <path
             id="path10"
             d="m -3.599,3.851 c 4,-1.05 7.25,-0.9 9.45,-1.05 q -0.35,-1.05 -2,-2 -1.95,-1.15 -4.35,-1.15 c -3.3,-0.05 -4.95,0.85 -5.9,1.7 -1.15,2.1 0.05,3.2 2.8,2.5 z"
             inkscape:connector-curvature="0"
             style="fill:url(#linearGradient13)" />
        </g>
        <g
           id="group3">
          <g
             id="drawingObject11">
            <path
               id="path11"
               d="m -5.299,2.301 c -0.55,-0.25 -0.95,-0.4 -1.4,-0.3 -0.55,1.65 0.65,2.5 3.1,1.85 q 2.427,-0.672 5.55,-0.9 c 0,0 -0.35,-0.4 -1.35,-0.4 -0.95,0.05 -2.6,0.35 -3.75,0.4 -1.15,0.1 -1.4,-0.4 -2.15,-0.65 z m 7.5,0.4 -0.25,0.25 c 0.85,-0.05 1.5,-0.1 2.15,-0.1 0,0 -0.25,-0.6 -1.05,-0.5 -0.85,0.1 -1.1,0.6 -1.1,0.6 z"
               inkscape:connector-curvature="0"
               style="fill:url(#radialGradient10)" />
          </g>
          <g
             id="drawingObject12">
            <path
               id="path14"
               d="m 4.001,2.701 -0.45,-0.05 c -0.4,-0.05 -0.9,0 -1.4,0.05 l -0.2,0.25 c 0.7,-0.05 1.4,-0.05 2.15,-0.1 l -0.1,-0.15 z m -10.7,-0.7 c -0.55,1.65 0.65,2.5 3.1,1.85 1.65,-0.45 3.5,-0.75 5.55,-0.9 l -0.25,-0.2 -1.6,0.2 -1,0 -0.3,0.15 -1.55,0.2 c -1.55,0.25 -1.95,0.25 -2.05,0.05 -0.1,-0.2 0.25,-0.5 0.25,-0.5 l -0.15,0.2 0.15,-0.2 -0.3,0.1 c -0.35,0.1 -0.65,0.45 -0.65,0.45 l -0.5,-0.3 c -0.35,-0.15 -0.6,-0.6 -0.7,-1.1 z"
               inkscape:connector-curvature="0"
               style="fill:#cfc2aa" />
          </g>
          <g
             id="drawingObject13">
            <path
               id="path17"
               d="m 6.201,2.801 1.75,-0.3 c 0,-0.2 -0.25,-0.35 -0.35,-0.45 q -0.15,-0.1 -0.6,0 -0.45,0.05 -0.65,0.2 l -0.15,0.55 z"
               inkscape:connector-curvature="0"
               style="fill:url(#radialGradient11)" />
          </g>
          <g
             id="drawingObject14">
            <path
               id="path18"
               d="m 6.201,2.801 1.75,-0.3 q 0,-0.1 -0.2,-0.3 c -0.2,0.15 -0.5,0.2 -0.85,0.2 -0.2,0 -0.3,-0.1 -0.4,-0.2 l -0.15,0.05 -0.15,0.55 z"
               inkscape:connector-curvature="0"
               style="fill:#cfc2aa" />
          </g>
        </g>
      </g>
      <animate
         attributeName="display"
         begin="0s"
         repeatCount="indefinite"
         dur="0.25s"
         keyTimes="0;0.333;0.5;1"
         values="none;inline;none;none"
         id="animate3212" />
    </g>
    <g
       id="sideMouth01Anim_1_1">
      <g
         id="element1">
        <g
           id="drawingObject2">
          <path
             id="path2"
             d="m 9.501,1.151 c -0.15,-0.35 -4.35,-0.55 -7.3,-1.3 -1.9,-0.45 -5.05,-0.15 -5.05,-0.15 l -1.3,0.45 1.35,1.1 c 0.5,0.45 2.5,0.65 5.4,0.65 l 5.25,0.05 c 1.15,0 1.85,-0.5 1.65,-0.8 z"
             inkscape:connector-curvature="0"
             style="fill:#ffffff;fill-opacity:0.278" />
        </g>
        <g
           id="drawingObject3">
          <path
             id="path3"
             d="m 5.601,0.701 c 2.85,0.35 4.6,0.4 5.9,0 q -5.05,-0.25 -8.1,-0.75 c -3.05,-0.5 -5.9,-0.8 -6.95,-0.4 -1.05,0.45 -1.65,1.85 -1.65,1.85 0,0 1.05,-1.35 3.65,-1.6 2.65,-0.25 4.6,0.6 7.15,0.9 z"
             inkscape:connector-curvature="0"
             style="fill:#7d6034" />
        </g>
      </g>
      <animate
         attributeName="display"
         begin="0s"
         repeatCount="indefinite"
         dur="0.25s"
         keyTimes="0;0.167;0.333;1"
         values="none;inline;none;none"
         id="animate3220" />
    </g>
    <g
       id="sideMouth01Anim_1_0">
      <g
         id="element">
        <g
           id="drawingObject">
          <path
             id="path"
             d="M 3.95,-0.15 C 2.2,-0.15 0.2,-0.6 0.2,-0.6 q -1.3,0 -3.8,-0.25 l -0.75,0.05 c 0,0 1.65,1.55 3.35,2.05 C 0,1.5 2.3,1.6 4.75,1.45 7.25,1.3 8.5,1.25 9.3,0.7 c 1.15,-0.75 1.4,-1.95 1.4,-1.95 0,0 -5.05,1.05 -6.75,1.1 z"
             inkscape:connector-curvature="0"
             style="fill:#ffffff;fill-opacity:0.278" />
        </g>
        <g
           id="drawingObject1">
          <path
             id="path1"
             d="m 4.701,0.051 c 4.55,-0.2 6.8,-1.6 6.8,-1.6 q -4.2,0.85 -6.05,0.85 c -2.1,0.05 -6.7,0 -8.15,-0.65 -1.45,-0.65 -2.6,0.95 -1.25,0.55 0.8,-0.2 3.7,1.1 8.65,0.85 z"
             inkscape:connector-curvature="0"
             style="fill:#7d6034" />
        </g>
      </g>
      <animate
         attributeName="display"
         begin="0s"
         repeatCount="indefinite"
         dur="0.25s"
         keyTimes="0;0.167;1"
         values="inline;none;none"
         id="animate3228" />
    </g>
  </g>
</svg>
