<?xml version="1.0" encoding="UTF-8" standalone="no"?>
<!-- Generator: flash2svg, http://dissentgraphics.com/tools/flash2svg -->

<svg
   xmlns:dc="http://purl.org/dc/elements/1.1/"
   xmlns:cc="http://creativecommons.org/ns#"
   xmlns:rdf="http://www.w3.org/1999/02/22-rdf-syntax-ns#"
   xmlns:svg="http://www.w3.org/2000/svg"
   xmlns="http://www.w3.org/2000/svg"
   xmlns:sodipodi="http://sodipodi.sourceforge.net/DTD/sodipodi-0.dtd"
   xmlns:inkscape="http://www.inkscape.org/namespaces/inkscape"
   id="AvatarAssets"
   image-rendering="auto"
   version="1.1"
   x="0px"
   y="0px"
   width="59.182373"
   height="31.964624"
   viewBox="0 0 59.182373 31.964624"
   inkscape:version="0.48.4 r9939"
   sodipodi:docname="AvatarAssets_sideHatDeer.svg">
  <metadata
     id="metadata17333">
    <rdf:RDF>
      <cc:Work
         rdf:about="">
        <dc:format>image/svg+xml</dc:format>
        <dc:type
           rdf:resource="http://purl.org/dc/dcmitype/StillImage" />
      </cc:Work>
    </rdf:RDF>
  </metadata>
  <sodipodi:namedview
     pagecolor="#ffffff"
     bordercolor="#666666"
     borderopacity="1"
     objecttolerance="10"
     gridtolerance="10"
     guidetolerance="10"
     inkscape:pageopacity="0"
     inkscape:pageshadow="2"
     inkscape:window-width="640"
     inkscape:window-height="480"
     id="namedview17331"
     showgrid="false"
     fit-margin-top="0"
     fit-margin-left="0"
     fit-margin-right="0"
     fit-margin-bottom="0"
     inkscape:zoom="1.9032258"
     inkscape:cx="59.59726"
     inkscape:cy="-59.223375"
     inkscape:window-x="0"
     inkscape:window-y="0"
     inkscape:window-maximized="0"
     inkscape:current-layer="AvatarAssets" />
  <defs
     id="defs17190" />
  <g
     id="sideHatDeer1"
     overflow="visible"
     style="overflow:visible"
     transform="translate(27.59726,29.188)">
    <g
       id="sideHatDeer_1_1">
      <g
         id="element2">
        <g
           id="group9">
          <g
             id="drawingObject30">
            <path
               id="path32"
               d="m -11.53,-5.709 c 0,0 0.499,-0.798 1.447,-1.148 0.899,-0.3 0.649,0.049 0.949,0.099 0.349,0.05 0.399,-0.15 0.399,-0.15 0,0 0.149,-0.748 -0.599,-0.648 q -0.549,0 -0.849,0.05 -0.449,0.05 -0.599,0.25 l -0.848,0.948 0.1,0.599 z"
               inkscape:connector-curvature="0"
               style="fill:#ffffff;fill-opacity:0.29800002" />
          </g>
          <g
             id="drawingObject31">
            <path
               id="path33"
               d="m -7.886,-4.712 c 0.649,-0.1 0.649,-1.597 0.1,-1.697 q -0.25,-0.1 -0.699,0.15 -0.449,0.2 -0.499,0.5 c -0.05,0.449 0.449,1.098 1.098,1.047 z"
               inkscape:connector-curvature="0"
               style="fill:#ffffff;fill-opacity:0.29800002" />
          </g>
          <g
             id="drawingObject32">
            <path
               id="path34"
               d="m -7.885,-3.813 -0.25,0.2 q -0.299,0.299 -0.399,0.649 c -0.1,0.549 0.05,0.05 -0.099,0.649 -0.15,0.649 -0.1,0.948 -0.499,1.198 -0.399,0.25 -0.899,0.549 -0.848,0.849 0.05,0.299 -1.049,0.15 0.05,0.299 1.098,0.15 1.597,0 1.647,-0.649 -0.001,-0.599 -0.699,-0.299 -0.001,-0.599 0.699,-0.3 0.499,-0.4 0.849,-0.749 0.399,-0.35 0.399,0.549 0.399,-0.35 0,-0.948 -0.151,-1.996 -0.849,-1.497 z"
               inkscape:connector-curvature="0"
               style="fill:#ffffff;fill-opacity:0.29800002" />
          </g>
          <g
             id="drawingObject33">
            <path
               id="path35"
               d="m -11.778,-0.317 c 0,0 -0.499,-0.499 -1.347,-0.349 -0.849,0.1 0.2,1.497 0.4,2.046 0.15,0.499 1.048,0.15 1.048,0.15 0,0 -0.449,-0.35 -0.649,-0.849 q -0.3,-0.898 0.548,-0.998 z"
               inkscape:connector-curvature="0"
               style="fill:#ffffff;fill-opacity:0.29800002" />
          </g>
          <g
             id="drawingObject34">
            <path
               id="path36"
               d="m -6.488,-5.361 c 0.1,0.549 0.05,1.048 0.05,1.048 l 0.2,1.348 c 0.05,0.599 -0.049,1.348 -0.349,1.597 l -0.798,0.55 0.05,0.499 -0.05,-0.499 c 0,0 0.25,0.898 -0.249,1.298 -0.449,0.349 -0.349,0.549 -1.547,0.5 l -1.148,-0.05 -0.15,0.549 c 0,0 -0.25,-0.1 -0.499,0.15 -0.3,0.25 -0.699,0.4 -0.699,0.4 l -0.848,0.05 0.449,0.299 -0.449,-0.299 c 0,0 0.799,0.599 1.348,0.648 0.549,0 1.547,0.199 2.096,-0.2 l 1.497,-0.899 c 0.499,-0.4 0.749,-0.749 0.998,-1.298 0.25,-0.55 0.449,-0.6 0.499,-1.099 0.05,-0.549 0.349,-0.599 0.299,-1.947 l -0.101,-1.347 c -0.1,-0.949 -0.35,-1.947 -1.199,-2.895 l 0.6,1.597 z"
               inkscape:connector-curvature="0"
               style="fill:#000000;fill-opacity:0.08600003" />
          </g>
        </g>
        <g
           id="group10">
          <g
             id="drawingObject35">
            <path
               id="path37"
               d="m -13.754,-11.684 c 0,0.499 -0.299,2.247 -0.898,2.646 -0.599,0.4 -1.946,0.899 -2.146,0.9 -0.2,0 -0.149,0.798 -0.05,0.698 q 0.2,-0.099 0.799,0.499 0.699,0.699 0.899,0.749 c 0.499,0.099 1.797,-0.35 1.797,-0.35 0,0 0.848,-2.397 0.797,-3.695 -0.05,-1.297 -0.15,-1.547 -0.2,-2.296 l -0.051,-1.747 -0.549,-0.848 -0.049,1.747 c -0.05,0.549 -0.3,1.198 -0.349,1.697 z"
               inkscape:connector-curvature="0"
               style="fill:#bb7936" />
          </g>
          <g
             id="drawingObject36">
            <path
               id="path38"
               d="m -12.756,-12.533 -0.051,-1.747 -0.399,-0.649 0.1,0.599 c 0.1,0.749 0.15,1.398 0.1,2.047 l -0.049,0.998 c 0.05,0.35 0.2,0.599 -0.05,0.999 l -0.499,1.048 0.45,-0.15 -0.2,0.499 0.2,-0.499 c 0,0 -0.349,0.899 -0.749,1.248 -0.399,0.4 -0.549,0.25 -0.499,-0.099 l 0.05,-0.4 c 0,0 -0.898,0.7 -1.697,0.251 l -0.749,0.25 c -0.2,0 -0.149,0.798 -0.05,0.698 0.35,-0.149 1.249,1.098 1.698,1.248 0.499,0.099 1.797,-0.35 1.797,-0.35 0,0 0.848,-2.397 0.797,-3.695 -0.05,-1.297 -0.15,-1.547 -0.2,-2.296 z"
               inkscape:connector-curvature="0"
               style="fill:#8f5d29" />
          </g>
          <g
             id="drawingObject37">
            <path
               id="path39"
               d="m -13.555,-12.283 c -0.249,0.899 -0.448,2.646 -0.099,1.847 q 0.848,-1.647 0.648,-1.847 c -0.199,-0.2 -0.2,-0.349 -0.25,-0.749 0,-0.349 0.25,-1.148 0.15,-1.298 l -0.25,-0.798 0,1.098 0,-1.098 c 0,0 0.05,1.996 -0.199,2.845 z"
               inkscape:connector-curvature="0"
               style="fill:#d7934c" />
          </g>
        </g>
        <g
           id="group11">
          <g
             id="drawingObject38">
            <path
               id="path40"
               d="m -19.546,-14.976 c -0.15,-0.649 -0.45,-3.294 -0.152,-5.491 0.299,-2.196 1.596,-4.194 2.245,-4.893 0.648,-0.649 3.243,-2.098 3.243,-2.098 l -1.397,0.8 1.397,-0.8 c 0,0 -3.344,-0.497 -5.24,1.4 -1.048,1.049 -1.797,1.249 -2.844,4.144 -0.997,2.896 -1.346,4.294 -1.146,6.49 0.201,2.147 0.052,3.494 1.001,4.942 0.899,1.497 4.794,6.337 6.192,7.135 l 4.044,2.345 1.248,0.099 -1.248,-0.099 c 0,0 2.247,0.698 3.145,-1.449 q 0.498,-1.198 0.049,-2.296 l -0.6,-0.848 c 0,0 -2.995,-0.848 -4.793,-1.846 -1.797,-0.997 -2.546,-2.894 -3.545,-4.041 -0.999,-1.148 -1.499,-2.845 -1.599,-3.494 z"
               inkscape:connector-curvature="0"
               style="fill:#bb7936" />
          </g>
          <g
             id="drawingObject39">
            <path
               id="path41"
               d="m -22.49,-13.178 c 0,0 -0.199,1.747 0.051,2.696 0.899,1.497 4.794,6.337 6.192,7.135 l 4.044,2.345 1.248,0.099 -1.248,-0.099 c 0,0 2.247,0.698 3.145,-1.449 0.548,-1.298 0.098,-2.296 -0.251,-2.795 l -0.05,0.599 c -0.05,0.349 0.699,0.449 -0.05,0.349 -0.798,-0.049 -2.296,-1.297 -3.395,-1.596 -1.048,-0.249 -2.446,-1.197 -3.145,-1.696 l -1.199,-1.047 0.65,0.748 -0.65,-0.748 c 0,0 1.099,1.347 1.998,1.995 0.899,0.599 2.197,1.297 3.096,1.796 l 0.898,0.499 c 0,0 0.4,0.849 -0.399,0.45 l -0.749,-0.399 1.298,1.047 c 0.699,0.499 1.348,0.399 0.699,0.499 -0.698,0.15 -0.698,-0.149 -1.198,-0.249 -0.499,-0.1 -0.798,-0.299 -1.298,-0.698 -0.499,-0.449 -0.199,0 -1.198,-0.699 L -15,-5.144 -14.301,-4.296 -15,-5.144 c 0,0 1.149,1.597 2.048,1.996 0.898,0.399 2.146,0.748 1.597,0.798 -0.599,0 -2.146,-0.349 -2.945,-0.947 l -3.046,-2.595 c -1.099,-1.048 -1.648,-0.998 -2.597,-2.395 -0.949,-1.397 -1.249,-2.346 -1.299,-2.645 0,-0.35 -0.3,-1.198 -0.45,-1.847 l -0.4,-2.396 0.201,3.944 0.1,0.399 c 0,0 -0.599,-0.848 -0.649,-1.597 l -0.05,-0.749 z"
               inkscape:connector-curvature="0"
               style="fill:#8f5d29" />
          </g>
          <g
             id="drawingObject40">
            <path
               id="path42"
               d="m -9.608,-2.5 c -0.349,0.349 -0.898,0.399 -0.898,0.399 l -0.15,0.4 c -0.149,0.399 0,0 -0.449,0.1 -0.499,0.05 -0.749,0 -1.447,-0.1 l -0.649,0.1 0.998,0.599 1.248,0.099 -1.248,-0.099 c 0,0 2.247,0.698 3.145,-1.449 0.349,-0.898 0.248,-1.597 0.099,-2.146 q -0.05,0.798 -0.4,0.749 l 0.05,0.249 c 0.1,0.25 10e-4,0.799 -0.299,1.099 z"
               inkscape:connector-curvature="0"
               style="fill:#724c24" />
          </g>
          <g
             id="drawingObject41">
            <path
               id="path43"
               d="m -17.946,-7.888 -0.449,-0.15 0.25,0.399 q 0.349,0.399 0.699,0.499 c 0.549,0.2 0.848,0.449 0.848,0.449 l -0.749,-0.848 c -0.2,-0.25 -1.048,-0.499 -1.048,-0.499"
               inkscape:connector-curvature="0"
               style="fill:#8f5d29" />
          </g>
          <g
             id="drawingObject42">
            <path
               id="path44"
               d="m -17.903,-26.458 c 0.1,0 0.699,-0.599 0.699,-0.599 l -0.549,0.15 -1.398,0.849 0.25,0 q 0.1,0 0.399,-0.2 0.299,-0.15 0.599,-0.2 z"
               inkscape:connector-curvature="0"
               style="fill:#d7934c" />
          </g>
          <g
             id="drawingObject43">
            <path
               id="path45"
               d="m -20.498,-24.31 1.098,-1.448 -0.35,0.1 c -0.399,0.1 -0.898,0.599 -1.547,1.747 -0.648,1.099 -0.847,2.746 -0.847,2.746 l 0.848,-1.747 c 0.199,-0.45 0.449,-0.949 0.798,-1.398 z"
               inkscape:connector-curvature="0"
               style="fill:#d7934c" />
          </g>
          <g
             id="drawingObject44">
            <path
               id="path46"
               d="m -19.445,-11.083 -0.049,0.25 q 0.05,0.3 0.449,0.599 c 0.699,0.499 0.499,0.299 1.099,0.848 0.599,0.549 1.298,1.347 2.546,2.195 1.248,0.799 2.596,1.297 2.596,1.297 0,0 -2.197,-1.696 -2.746,-1.945 -0.499,-0.3 -1.248,-1.198 -1.598,-1.597 l -2.297,-1.647 z"
               inkscape:connector-curvature="0"
               style="fill:#d7934c" />
          </g>
          <g
             id="drawingObject45">
            <path
               id="path47"
               d="m -11.606,-5.794 0.25,0.299 q 0.599,0.599 1.398,0.698 c 0.649,0.1 0.2,-0.349 -0.3,-0.549 l -1.348,-0.448 z"
               inkscape:connector-curvature="0"
               style="fill:#d7934c" />
          </g>
          <g
             id="drawingObject46">
            <path
               id="path48"
               d="m -12.304,-4.296 -2.047,-1.447 q -0.349,-0.1 -1.098,-0.399 c -0.25,-0.05 -0.5,-0.399 -0.25,-0.05 l -0.05,-0.1 0.05,0.1 c 0.2,0.349 0.849,1.248 1.398,1.547 l 1.249,0.648 c 0.699,0.399 1.148,0.449 1.148,0.449 0,0 0.149,-0.399 -0.4,-0.748 z"
               inkscape:connector-curvature="0"
               style="fill:#d7934c" />
          </g>
          <g
             id="drawingObject47">
            <path
               id="path49"
               d="m -15.149,-4.345 -1.399,-1.897 q -0.149,-0.249 -0.249,-0.299 -0.05,-0.05 -0.749,-0.349 l -0.949,-0.399 0.35,0.599 -0.35,-0.599 c 0,0 0.55,1.148 1.149,1.397 0.649,0.249 1.048,0.599 1.598,1.048 l 0.599,0.499 z"
               inkscape:connector-curvature="0"
               style="fill:#d7934c" />
          </g>
          <g
             id="drawingObject48">
            <path
               id="path50"
               d="m -19.799,-23.462 c -0.249,0.35 -0.399,1.598 -0.748,1.847 -0.399,0.25 -0.249,-0.1 -0.399,0.25 l 0.1,-0.15 -0.1,0.15 c -0.1,0.399 0.4,1.098 0.4,1.098 l 0.15,0.799 -0.05,1.098 q 0,0.499 0.3,1.497 c 0.05,0.699 -0.099,1.498 -0.099,1.498 l 0.3,0.948 -0.2,0.2 0.2,-0.2 c 0,0 -0.499,0.3 -0.249,0.799 0.249,0.499 -0.749,0 0.249,0.499 l 1.298,0.648 c -0.549,-0.998 -0.849,-2.046 -0.899,-2.495 -0.15,-0.649 -0.45,-3.294 -0.152,-5.491 0.299,-2.196 1.596,-4.194 2.245,-4.893 0.349,-0.349 1.397,-0.999 2.195,-1.498 l -1.048,0.4 c -0.898,0.349 -1.397,0.599 -1.746,0.999 -0.4,0.349 -0.649,0.749 -0.998,0.998 -0.4,0.25 -0.499,0.6 -0.749,0.999 z"
               inkscape:connector-curvature="0"
               style="fill:#8f5d29" />
          </g>
        </g>
        <g
           id="group12">
          <g
             id="drawingObject49">
            <path
               id="path51"
               d="m -26.438,-26.506 0.199,-0.599 -0.848,1.149 q -0.798,1.447 -0.348,2.945 c 0.3,1.098 2.297,2.445 2.746,3.493 0.45,1.048 1.499,2.795 1.849,2.994 l 0.299,0.2 c 0,0 0.699,0.449 1.248,-0.799 0.548,-1.248 0.498,-1.997 0.298,-2.197 l -0.199,-0.399 c 0,0 -0.5,-0.249 -1.149,-0.349 -0.599,-0.1 -0.998,-0.299 -1.597,-1.147 -0.65,-0.849 -2.197,-1.647 -2.348,-2.495 -0.5,-2.895 0.049,-3.395 0.049,-3.395"
               inkscape:connector-curvature="0"
               style="fill:#bb7936" />
          </g>
          <g
             id="drawingObject50">
            <path
               id="path52"
               d="m -26.288,-23.71 c -0.3,-1.797 -0.2,-2.696 -0.101,-3.095 -0.498,1.148 -0.597,2.895 -0.597,2.895 l 0.05,0.549 c 0,0.2 0.549,0.499 0.599,0.849 0.1,0.299 0.599,0.049 1.148,0.399 0.549,0.349 1.199,1.347 1.948,1.746 0.749,0.399 1.697,0.998 1.797,1.297 l 0.4,1.323 0,0.025 c 0.249,-0.849 0.299,-1.348 0.049,-1.598 l -0.199,-0.399 q -0.5,-0.249 -1.149,-0.349 c -0.599,-0.1 -0.998,-0.299 -1.597,-1.147 -0.65,-0.849 -2.197,-1.647 -2.348,-2.495 z m 2.998,6.138 -0.649,-0.499 c 0.449,0.749 0.899,1.398 1.099,1.547 l 0.299,0.2 c 0,0 0.699,0.449 1.248,-0.799 0.05,-0.2 0.149,-0.35 0.249,-0.499 0.05,0.049 -1.598,-1.398 -1.548,-0.948 0.1,0.399 -0.199,0.599 -0.199,0.599 l -0.3,-0.499 c -0.299,-0.449 -0.699,-0.799 -0.849,-1.048 -0.15,-0.3 0.25,0.399 0.35,0.948 0.1,0.499 0.3,0.998 0.3,0.998 z"
               inkscape:connector-curvature="0"
               style="fill:#8f5d29" />
          </g>
          <g
             id="drawingObject51">
            <path
               id="path55"
               d="m -26.986,-23.91 0.298,-2.546 -0.449,0.799 c -0.249,0.449 -0.399,1.198 -0.349,1.847 q 0.001,0.449 0.2,0.399 0.15,-0.099 0.3,-0.499 z"
               inkscape:connector-curvature="0"
               style="fill:#d7934c" />
          </g>
        </g>
      </g>
      <g
         id="element3">
        <g
           id="group14">
          <g
             id="drawingObject52">
            <path
               id="path56"
               d="m 31.538,-22.844 q 0.2,-1.649 -0.449,-3.199 l -0.65,-1.199 0.2,0.649 -0.2,-0.649 c 0,0 0.4,0.55 0.299,3.698 -0.05,0.9 -1.05,1.899 -1.4,2.848 -0.4,0.95 -0.65,1.15 -1.05,1.35 l -0.75,0.449 -0.1,0.4 c -0.1,0.25 -0.1,1.099 0.35,2.399 0.499,1.3 0.949,0.75 0.949,0.75 l 0.2,-0.25 c 0.2,-0.2 0.8,-2.149 1,-3.348 0.25,-1.15 1.5,-2.749 1.601,-3.898 z"
               inkscape:connector-curvature="0"
               style="fill:#bb7936" />
          </g>
          <g
             id="drawingObject53">
            <path
               id="path57"
               d="m 31.188,-23.194 0,-0.6 c 0,0 -0.2,-1.899 -0.649,-3.098 0.15,0.449 0.25,1.399 0.199,3.348 -0.05,0.9 -1.05,1.899 -1.4,2.848 -0.4,0.95 -0.65,1.15 -1.05,1.35 l -0.75,0.449 -0.1,0.4 c -0.1,0.25 -0.1,1.099 0.35,2.399 0.499,1.3 0.949,0.75 0.949,0.75 l 0.2,-0.25 c 0.1,-0.1 0.35,-0.85 0.6,-1.699 l -0.15,0.25 -0.25,0.3 0.15,-1.1 c 0,-0.55 0.251,-1.349 0.151,-1.049 l -0.701,1.749 c 0,0 -0.199,-0.15 -0.149,-0.6 l 0.2,-0.85 c 0,0 -0.35,0.35 -0.3,0 l 0.05,-0.25 -0.05,0.25 c 0.05,-0.35 -0.05,-0.15 0.45,-0.599 0.45,-0.5 0.65,-1.649 0.95,-2.099 0.35,-0.4 0.9,-0.65 0.95,-0.999 0.05,-0.35 0.35,-0.7 0.35,-0.9 z"
               inkscape:connector-curvature="0"
               style="fill:#8f5d29" />
          </g>
          <g
             id="drawingObject54">
            <path
               id="path58"
               d="m 31.538,-23.744 c -0.05,-0.699 -0.15,-1.499 -0.4,-1.949 l -0.299,-0.849 0.349,2.748 q 0.15,0.4 0.25,0.5 0.15,0.05 0.1,-0.45 z"
               inkscape:connector-curvature="0"
               style="fill:#d7934c" />
          </g>
        </g>
        <g
           id="group15">
          <g
             id="drawingObject55">
            <path
               id="path59"
               d="m 22.014,-28.44 -1.147,-0.748 c 0,0 2.145,1.347 2.843,2.096 0.748,0.748 2.193,3.492 2.542,5.986 q 0.348,3.093 0.097,5.836 l 0.748,0.599 c 0.748,0.549 1.297,1.198 1.845,1.846 l 0.251,-3.042 c 0.2,-2.444 -0.149,-4.041 -1.295,-7.233 -1.146,-3.243 -2.094,-3.393 -3.091,-4.69 -0.997,-1.248 -3.94,-1.398 -3.94,-1.398 l 1.596,0.25"
               inkscape:connector-curvature="0"
               style="fill:#bb7936" />
          </g>
          <g
             id="drawingObject56">
            <path
               id="path60"
               d="m 21.615,-28.689 c 1.197,0.798 1.895,1.347 2.095,1.597 0.748,0.748 2.193,3.492 2.542,5.986 q 0.348,3.093 0.097,5.836 l 0.549,0.449 c 0.2,-1.097 0.4,-2.843 0.201,-4.09 l -0.697,-3.691 1.046,2.394 -0.149,-1.097 c -0.149,-1.097 -0.548,-2.245 -1.046,-3.342 -0.449,-1.148 -1.645,-2.645 -2.693,-3.044 -0.548,-0.2 -1.197,-0.549 -1.945,-0.998 z"
               inkscape:connector-curvature="0"
               style="fill:#8f5d29" />
          </g>
          <g
             id="drawingObject57">
            <path
               id="path61"
               d="m 28.047,-19.609 c 0,0 -0.2,-0.249 -0.55,1.596 l 0.1,1.247 q 0.199,1.347 0.648,1.796 c 0.249,0.2 0.499,-0.848 0.499,-0.848 0,0 -0.349,-2.593 -0.548,-3.242 l -0.149,-0.549 z"
               inkscape:connector-curvature="0"
               style="fill:#8f5d29" />
          </g>
          <g
             id="drawingObject58">
            <path
               id="path62"
               d="m 22.364,-28.889 0.698,0.699 q 0.349,0 0.698,0.25 0.349,0.199 0.449,0.199 l 0.249,0 c 0,0 -0.848,-0.748 -1.496,-0.948 l -0.598,-0.2 z"
               inkscape:connector-curvature="0"
               style="fill:#d7934c" />
          </g>
          <g
             id="drawingObject59">
            <path
               id="path63"
               d="m 24.757,-27.391 1.247,1.596 c 0.349,0.499 0.598,0.998 0.847,1.547 l 0.897,1.995 c 0,0 -0.198,-1.895 -0.946,-3.142 -0.698,-1.248 -1.247,-1.797 -1.646,-1.896 l -0.399,-0.1 z"
               inkscape:connector-curvature="0"
               style="fill:#d7934c" />
          </g>
        </g>
      </g>
    </g>
    <g
       id="sideHatDeer_1_0">
      <g
         id="element">
        <g
           id="group1">
          <g
             id="drawingObject">
            <path
               id="path"
               d="m -11.53,-5.709 c 0,0 0.499,-0.798 1.447,-1.148 0.899,-0.3 0.649,0.049 0.949,0.099 0.349,0.05 0.399,-0.15 0.399,-0.15 0,0 0.149,-0.748 -0.599,-0.648 q -0.549,0 -0.849,0.05 -0.449,0.05 -0.599,0.25 l -0.848,0.948 0.1,0.599 z"
               inkscape:connector-curvature="0"
               style="fill:#ffffff;fill-opacity:0.29800002" />
          </g>
          <g
             id="drawingObject1">
            <path
               id="path1"
               d="m -7.886,-4.712 c 0.649,-0.1 0.649,-1.597 0.1,-1.697 q -0.25,-0.1 -0.699,0.15 -0.449,0.2 -0.499,0.5 c -0.05,0.449 0.449,1.098 1.098,1.047 z"
               inkscape:connector-curvature="0"
               style="fill:#ffffff;fill-opacity:0.29800002" />
          </g>
          <g
             id="drawingObject2">
            <path
               id="path2"
               d="m -7.885,-3.813 -0.25,0.2 q -0.299,0.299 -0.399,0.649 c -0.1,0.549 0.05,0.05 -0.099,0.649 -0.15,0.649 -0.1,0.948 -0.499,1.198 -0.399,0.25 -0.899,0.549 -0.848,0.849 0.05,0.299 -1.049,0.15 0.05,0.299 1.098,0.15 1.597,0 1.647,-0.649 -0.001,-0.599 -0.699,-0.299 -0.001,-0.599 0.699,-0.3 0.499,-0.4 0.849,-0.749 0.399,-0.35 0.399,0.549 0.399,-0.35 0,-0.948 -0.151,-1.996 -0.849,-1.497 z"
               inkscape:connector-curvature="0"
               style="fill:#ffffff;fill-opacity:0.29800002" />
          </g>
          <g
             id="drawingObject3">
            <path
               id="path3"
               d="m -11.778,-0.317 c 0,0 -0.499,-0.499 -1.347,-0.349 -0.849,0.1 0.2,1.497 0.4,2.046 0.15,0.499 1.048,0.15 1.048,0.15 0,0 -0.449,-0.35 -0.649,-0.849 q -0.3,-0.898 0.548,-0.998 z"
               inkscape:connector-curvature="0"
               style="fill:#ffffff;fill-opacity:0.29800002" />
          </g>
          <g
             id="drawingObject4">
            <path
               id="path4"
               d="m -6.488,-5.361 c 0.1,0.549 0.05,1.048 0.05,1.048 l 0.2,1.348 c 0.05,0.599 -0.049,1.348 -0.349,1.597 l -0.798,0.55 0.05,0.499 -0.05,-0.499 c 0,0 0.25,0.898 -0.249,1.298 -0.449,0.349 -0.349,0.549 -1.547,0.5 l -1.148,-0.05 -0.15,0.549 c 0,0 -0.25,-0.1 -0.499,0.15 -0.3,0.25 -0.699,0.4 -0.699,0.4 l -0.848,0.05 0.449,0.299 -0.449,-0.299 c 0,0 0.799,0.599 1.348,0.648 0.549,0 1.547,0.199 2.096,-0.2 l 1.497,-0.899 c 0.499,-0.4 0.749,-0.749 0.998,-1.298 0.25,-0.55 0.449,-0.6 0.499,-1.099 0.05,-0.549 0.349,-0.599 0.299,-1.947 l -0.101,-1.347 c -0.1,-0.949 -0.35,-1.947 -1.199,-2.895 l 0.6,1.597 z"
               inkscape:connector-curvature="0"
               style="fill:#000000;fill-opacity:0.08600003" />
          </g>
        </g>
        <g
           id="group2">
          <g
             id="drawingObject5">
            <path
               id="path5"
               d="m -13.754,-11.684 c 0,0.499 -0.299,2.247 -0.898,2.646 -0.599,0.4 -1.946,0.899 -2.146,0.9 -0.2,0 -0.149,0.798 -0.05,0.698 q 0.2,-0.099 0.799,0.499 0.699,0.699 0.899,0.749 c 0.499,0.099 1.797,-0.35 1.797,-0.35 0,0 0.848,-2.397 0.797,-3.695 -0.05,-1.297 -0.15,-1.547 -0.2,-2.296 l -0.051,-1.747 -0.549,-0.848 -0.049,1.747 c -0.05,0.549 -0.3,1.198 -0.349,1.697 z"
               inkscape:connector-curvature="0"
               style="fill:#bb7936" />
          </g>
          <g
             id="drawingObject6">
            <path
               id="path6"
               d="m -12.756,-12.533 -0.051,-1.747 -0.399,-0.649 0.1,0.599 c 0.1,0.749 0.15,1.398 0.1,2.047 l -0.049,0.998 c 0.05,0.35 0.2,0.599 -0.05,0.999 l -0.499,1.048 0.45,-0.15 -0.2,0.499 0.2,-0.499 c 0,0 -0.349,0.899 -0.749,1.248 -0.399,0.4 -0.549,0.25 -0.499,-0.099 l 0.05,-0.4 c 0,0 -0.898,0.7 -1.697,0.251 l -0.749,0.25 c -0.2,0 -0.149,0.798 -0.05,0.698 0.35,-0.149 1.249,1.098 1.698,1.248 0.499,0.099 1.797,-0.35 1.797,-0.35 0,0 0.848,-2.397 0.797,-3.695 -0.05,-1.297 -0.15,-1.547 -0.2,-2.296 z"
               inkscape:connector-curvature="0"
               style="fill:#8f5d29" />
          </g>
          <g
             id="drawingObject7">
            <path
               id="path7"
               d="m -13.555,-12.283 c -0.249,0.899 -0.448,2.646 -0.099,1.847 q 0.848,-1.647 0.648,-1.847 c -0.199,-0.2 -0.2,-0.349 -0.25,-0.749 0,-0.349 0.25,-1.148 0.15,-1.298 l -0.25,-0.798 0,1.098 0,-1.098 c 0,0 0.05,1.996 -0.199,2.845 z"
               inkscape:connector-curvature="0"
               style="fill:#d7934c" />
          </g>
        </g>
        <g
           id="group3">
          <g
             id="drawingObject8">
            <path
               id="path8"
               d="m -19.546,-14.976 c -0.15,-0.649 -0.45,-3.294 -0.152,-5.491 0.299,-2.196 1.596,-4.194 2.245,-4.893 0.648,-0.649 3.243,-2.098 3.243,-2.098 l -1.397,0.8 1.397,-0.8 c 0,0 -3.344,-0.497 -5.24,1.4 -1.048,1.049 -1.797,1.249 -2.844,4.144 -0.997,2.896 -1.346,4.294 -1.146,6.49 0.201,2.147 0.052,3.494 1.001,4.942 0.899,1.497 4.794,6.337 6.192,7.135 l 4.044,2.345 1.248,0.099 -1.248,-0.099 c 0,0 2.247,0.698 3.145,-1.449 q 0.498,-1.198 0.049,-2.296 l -0.6,-0.848 c 0,0 -2.995,-0.848 -4.793,-1.846 -1.797,-0.997 -2.546,-2.894 -3.545,-4.041 -0.999,-1.148 -1.499,-2.845 -1.599,-3.494 z"
               inkscape:connector-curvature="0"
               style="fill:#bb7936" />
          </g>
          <g
             id="drawingObject9">
            <path
               id="path9"
               d="m -22.49,-13.178 c 0,0 -0.199,1.747 0.051,2.696 0.899,1.497 4.794,6.337 6.192,7.135 l 4.044,2.345 1.248,0.099 -1.248,-0.099 c 0,0 2.247,0.698 3.145,-1.449 0.548,-1.298 0.098,-2.296 -0.251,-2.795 l -0.05,0.599 c -0.05,0.349 0.699,0.449 -0.05,0.349 -0.798,-0.049 -2.296,-1.297 -3.395,-1.596 -1.048,-0.249 -2.446,-1.197 -3.145,-1.696 l -1.199,-1.047 0.65,0.748 -0.65,-0.748 c 0,0 1.099,1.347 1.998,1.995 0.899,0.599 2.197,1.297 3.096,1.796 l 0.898,0.499 c 0,0 0.4,0.849 -0.399,0.45 l -0.749,-0.399 1.298,1.047 c 0.699,0.499 1.348,0.399 0.699,0.499 -0.698,0.15 -0.698,-0.149 -1.198,-0.249 -0.499,-0.1 -0.798,-0.299 -1.298,-0.698 -0.499,-0.449 -0.199,0 -1.198,-0.699 L -15,-5.144 -14.301,-4.296 -15,-5.144 c 0,0 1.149,1.597 2.048,1.996 0.898,0.399 2.146,0.748 1.597,0.798 -0.599,0 -2.146,-0.349 -2.945,-0.947 l -3.046,-2.595 c -1.099,-1.048 -1.648,-0.998 -2.597,-2.395 -0.949,-1.397 -1.249,-2.346 -1.299,-2.645 0,-0.35 -0.3,-1.198 -0.45,-1.847 l -0.4,-2.396 0.201,3.944 0.1,0.399 c 0,0 -0.599,-0.848 -0.649,-1.597 l -0.05,-0.749 z"
               inkscape:connector-curvature="0"
               style="fill:#8f5d29" />
          </g>
          <g
             id="drawingObject10">
            <path
               id="path10"
               d="m -9.608,-2.5 c -0.349,0.349 -0.898,0.399 -0.898,0.399 l -0.15,0.4 c -0.149,0.399 0,0 -0.449,0.1 -0.499,0.05 -0.749,0 -1.447,-0.1 l -0.649,0.1 0.998,0.599 1.248,0.099 -1.248,-0.099 c 0,0 2.247,0.698 3.145,-1.449 0.349,-0.898 0.248,-1.597 0.099,-2.146 q -0.05,0.798 -0.4,0.749 l 0.05,0.249 c 0.1,0.25 10e-4,0.799 -0.299,1.099 z"
               inkscape:connector-curvature="0"
               style="fill:#724c24" />
          </g>
          <g
             id="drawingObject11">
            <path
               id="path11"
               d="m -17.946,-7.888 -0.449,-0.15 0.25,0.399 q 0.349,0.399 0.699,0.499 c 0.549,0.2 0.848,0.449 0.848,0.449 l -0.749,-0.848 c -0.2,-0.25 -1.048,-0.499 -1.048,-0.499"
               inkscape:connector-curvature="0"
               style="fill:#8f5d29" />
          </g>
          <g
             id="drawingObject12">
            <path
               id="path12"
               d="m -17.903,-26.458 c 0.1,0 0.699,-0.599 0.699,-0.599 l -0.549,0.15 -1.398,0.849 0.25,0 q 0.1,0 0.399,-0.2 0.299,-0.15 0.599,-0.2 z"
               inkscape:connector-curvature="0"
               style="fill:#d7934c" />
          </g>
          <g
             id="drawingObject13">
            <path
               id="path13"
               d="m -20.498,-24.31 1.098,-1.448 -0.35,0.1 c -0.399,0.1 -0.898,0.599 -1.547,1.747 -0.648,1.099 -0.847,2.746 -0.847,2.746 l 0.848,-1.747 c 0.199,-0.45 0.449,-0.949 0.798,-1.398 z"
               inkscape:connector-curvature="0"
               style="fill:#d7934c" />
          </g>
          <g
             id="drawingObject14">
            <path
               id="path14"
               d="m -19.445,-11.083 -0.049,0.25 q 0.05,0.3 0.449,0.599 c 0.699,0.499 0.499,0.299 1.099,0.848 0.599,0.549 1.298,1.347 2.546,2.195 1.248,0.799 2.596,1.297 2.596,1.297 0,0 -2.197,-1.696 -2.746,-1.945 -0.499,-0.3 -1.248,-1.198 -1.598,-1.597 l -2.297,-1.647 z"
               inkscape:connector-curvature="0"
               style="fill:#d7934c" />
          </g>
          <g
             id="drawingObject15">
            <path
               id="path15"
               d="m -11.606,-5.794 0.25,0.299 q 0.599,0.599 1.398,0.698 c 0.649,0.1 0.2,-0.349 -0.3,-0.549 l -1.348,-0.448 z"
               inkscape:connector-curvature="0"
               style="fill:#d7934c" />
          </g>
          <g
             id="drawingObject16">
            <path
               id="path16"
               d="m -12.304,-4.296 -2.047,-1.447 q -0.349,-0.1 -1.098,-0.399 c -0.25,-0.05 -0.5,-0.399 -0.25,-0.05 l -0.05,-0.1 0.05,0.1 c 0.2,0.349 0.849,1.248 1.398,1.547 l 1.249,0.648 c 0.699,0.399 1.148,0.449 1.148,0.449 0,0 0.149,-0.399 -0.4,-0.748 z"
               inkscape:connector-curvature="0"
               style="fill:#d7934c" />
          </g>
          <g
             id="drawingObject17">
            <path
               id="path17"
               d="m -15.149,-4.345 -1.399,-1.897 q -0.149,-0.249 -0.249,-0.299 -0.05,-0.05 -0.749,-0.349 l -0.949,-0.399 0.35,0.599 -0.35,-0.599 c 0,0 0.55,1.148 1.149,1.397 0.649,0.249 1.048,0.599 1.598,1.048 l 0.599,0.499 z"
               inkscape:connector-curvature="0"
               style="fill:#d7934c" />
          </g>
          <g
             id="drawingObject18">
            <path
               id="path18"
               d="m -19.799,-23.462 c -0.249,0.35 -0.399,1.598 -0.748,1.847 -0.399,0.25 -0.249,-0.1 -0.399,0.25 l 0.1,-0.15 -0.1,0.15 c -0.1,0.399 0.4,1.098 0.4,1.098 l 0.15,0.799 -0.05,1.098 q 0,0.499 0.3,1.497 c 0.05,0.699 -0.099,1.498 -0.099,1.498 l 0.3,0.948 -0.2,0.2 0.2,-0.2 c 0,0 -0.499,0.3 -0.249,0.799 0.249,0.499 -0.749,0 0.249,0.499 l 1.298,0.648 c -0.549,-0.998 -0.849,-2.046 -0.899,-2.495 -0.15,-0.649 -0.45,-3.294 -0.152,-5.491 0.299,-2.196 1.596,-4.194 2.245,-4.893 0.349,-0.349 1.397,-0.999 2.195,-1.498 l -1.048,0.4 c -0.898,0.349 -1.397,0.599 -1.746,0.999 -0.4,0.349 -0.649,0.749 -0.998,0.998 -0.4,0.25 -0.499,0.6 -0.749,0.999 z"
               inkscape:connector-curvature="0"
               style="fill:#8f5d29" />
          </g>
        </g>
        <g
           id="group4">
          <g
             id="drawingObject19">
            <path
               id="path19"
               d="m -26.438,-26.506 0.199,-0.599 -0.848,1.149 q -0.798,1.447 -0.348,2.945 c 0.3,1.098 2.297,2.445 2.746,3.493 0.45,1.048 1.499,2.795 1.849,2.994 l 0.299,0.2 c 0,0 0.699,0.449 1.248,-0.799 0.548,-1.248 0.498,-1.997 0.298,-2.197 l -0.199,-0.399 c 0,0 -0.5,-0.249 -1.149,-0.349 -0.599,-0.1 -0.998,-0.299 -1.597,-1.147 -0.65,-0.849 -2.197,-1.647 -2.348,-2.495 -0.5,-2.895 0.049,-3.395 0.049,-3.395"
               inkscape:connector-curvature="0"
               style="fill:#bb7936" />
          </g>
          <g
             id="drawingObject20">
            <path
               id="path20"
               d="m -26.288,-23.71 c -0.3,-1.797 -0.2,-2.696 -0.101,-3.095 -0.498,1.148 -0.597,2.895 -0.597,2.895 l 0.05,0.549 c 0,0.2 0.549,0.499 0.599,0.849 0.1,0.299 0.599,0.049 1.148,0.399 0.549,0.349 1.199,1.347 1.948,1.746 0.749,0.399 1.697,0.998 1.797,1.297 l 0.4,1.323 0,0.025 c 0.249,-0.849 0.299,-1.348 0.049,-1.598 l -0.199,-0.399 q -0.5,-0.249 -1.149,-0.349 c -0.599,-0.1 -0.998,-0.299 -1.597,-1.147 -0.65,-0.849 -2.197,-1.647 -2.348,-2.495 z m 2.998,6.138 -0.649,-0.499 c 0.449,0.749 0.899,1.398 1.099,1.547 l 0.299,0.2 c 0,0 0.699,0.449 1.248,-0.799 0.05,-0.2 0.149,-0.35 0.249,-0.499 0.05,0.049 -1.598,-1.398 -1.548,-0.948 0.1,0.399 -0.199,0.599 -0.199,0.599 l -0.3,-0.499 c -0.299,-0.449 -0.699,-0.799 -0.849,-1.048 -0.15,-0.3 0.25,0.399 0.35,0.948 0.1,0.499 0.3,0.998 0.3,0.998 z"
               inkscape:connector-curvature="0"
               style="fill:#8f5d29" />
          </g>
          <g
             id="drawingObject21">
            <path
               id="path23"
               d="m -26.986,-23.91 0.298,-2.546 -0.449,0.799 c -0.249,0.449 -0.399,1.198 -0.349,1.847 q 0.001,0.449 0.2,0.399 0.15,-0.099 0.3,-0.499 z"
               inkscape:connector-curvature="0"
               style="fill:#d7934c" />
          </g>
        </g>
      </g>
      <g
         id="element1">
        <g
           id="group6">
          <g
             id="drawingObject22">
            <path
               id="path24"
               d="m 31.538,-22.844 q 0.2,-1.649 -0.449,-3.199 l -0.65,-1.199 0.2,0.649 -0.2,-0.649 c 0,0 0.4,0.55 0.299,3.698 -0.05,0.9 -1.05,1.899 -1.4,2.848 -0.4,0.95 -0.65,1.15 -1.05,1.35 l -0.75,0.449 -0.1,0.4 c -0.1,0.25 -0.1,1.099 0.35,2.399 0.499,1.3 0.949,0.75 0.949,0.75 l 0.2,-0.25 c 0.2,-0.2 0.8,-2.149 1,-3.348 0.25,-1.15 1.5,-2.749 1.601,-3.898 z"
               inkscape:connector-curvature="0"
               style="fill:#bb7936" />
          </g>
          <g
             id="drawingObject23">
            <path
               id="path25"
               d="m 31.188,-23.194 0,-0.6 c 0,0 -0.2,-1.899 -0.649,-3.098 0.15,0.449 0.25,1.399 0.199,3.348 -0.05,0.9 -1.05,1.899 -1.4,2.848 -0.4,0.95 -0.65,1.15 -1.05,1.35 l -0.75,0.449 -0.1,0.4 c -0.1,0.25 -0.1,1.099 0.35,2.399 0.499,1.3 0.949,0.75 0.949,0.75 l 0.2,-0.25 c 0.1,-0.1 0.35,-0.85 0.6,-1.699 l -0.15,0.25 -0.25,0.3 0.15,-1.1 c 0,-0.55 0.251,-1.349 0.151,-1.049 l -0.701,1.749 c 0,0 -0.199,-0.15 -0.149,-0.6 l 0.2,-0.85 c 0,0 -0.35,0.35 -0.3,0 l 0.05,-0.25 -0.05,0.25 c 0.05,-0.35 -0.05,-0.15 0.45,-0.599 0.45,-0.5 0.65,-1.649 0.95,-2.099 0.35,-0.4 0.9,-0.65 0.95,-0.999 0.05,-0.35 0.35,-0.7 0.35,-0.9 z"
               inkscape:connector-curvature="0"
               style="fill:#8f5d29" />
          </g>
          <g
             id="drawingObject24">
            <path
               id="path26"
               d="m 31.538,-23.744 c -0.05,-0.699 -0.15,-1.499 -0.4,-1.949 l -0.299,-0.849 0.349,2.748 q 0.15,0.4 0.25,0.5 0.15,0.05 0.1,-0.45 z"
               inkscape:connector-curvature="0"
               style="fill:#d7934c" />
          </g>
        </g>
        <g
           id="group7">
          <g
             id="drawingObject25">
            <path
               id="path27"
               d="m 22.014,-28.44 -1.147,-0.748 c 0,0 2.145,1.347 2.843,2.096 0.748,0.748 2.193,3.492 2.542,5.986 q 0.348,3.093 0.097,5.836 l 0.748,0.599 c 0.748,0.549 1.297,1.198 1.845,1.846 l 0.251,-3.042 c 0.2,-2.444 -0.149,-4.041 -1.295,-7.233 -1.146,-3.243 -2.094,-3.393 -3.091,-4.69 -0.997,-1.248 -3.94,-1.398 -3.94,-1.398 l 1.596,0.25"
               inkscape:connector-curvature="0"
               style="fill:#bb7936" />
          </g>
          <g
             id="drawingObject26">
            <path
               id="path28"
               d="m 21.615,-28.689 c 1.197,0.798 1.895,1.347 2.095,1.597 0.748,0.748 2.193,3.492 2.542,5.986 q 0.348,3.093 0.097,5.836 l 0.549,0.449 c 0.2,-1.097 0.4,-2.843 0.201,-4.09 l -0.697,-3.691 1.046,2.394 -0.149,-1.097 c -0.149,-1.097 -0.548,-2.245 -1.046,-3.342 -0.449,-1.148 -1.645,-2.645 -2.693,-3.044 -0.548,-0.2 -1.197,-0.549 -1.945,-0.998 z"
               inkscape:connector-curvature="0"
               style="fill:#8f5d29" />
          </g>
          <g
             id="drawingObject27">
            <path
               id="path29"
               d="m 28.047,-19.609 c 0,0 -0.2,-0.249 -0.55,1.596 l 0.1,1.247 q 0.199,1.347 0.648,1.796 c 0.249,0.2 0.499,-0.848 0.499,-0.848 0,0 -0.349,-2.593 -0.548,-3.242 l -0.149,-0.549 z"
               inkscape:connector-curvature="0"
               style="fill:#8f5d29" />
          </g>
          <g
             id="drawingObject28">
            <path
               id="path30"
               d="m 22.364,-28.889 0.698,0.699 q 0.349,0 0.698,0.25 0.349,0.199 0.449,0.199 l 0.249,0 c 0,0 -0.848,-0.748 -1.496,-0.948 l -0.598,-0.2 z"
               inkscape:connector-curvature="0"
               style="fill:#d7934c" />
          </g>
          <g
             id="drawingObject29">
            <path
               id="path31"
               d="m 24.757,-27.391 1.247,1.596 c 0.349,0.499 0.598,0.998 0.847,1.547 l 0.897,1.995 c 0,0 -0.198,-1.895 -0.946,-3.142 -0.698,-1.248 -1.247,-1.797 -1.646,-1.896 l -0.399,-0.1 z"
               inkscape:connector-curvature="0"
               style="fill:#d7934c" />
          </g>
        </g>
      </g>
    </g>
  </g>
</svg>
