<?xml version="1.0" encoding="UTF-8" standalone="no"?>
<!-- Generator: flash2svg, http://dissentgraphics.com/tools/flash2svg -->

<svg
   xmlns:dc="http://purl.org/dc/elements/1.1/"
   xmlns:cc="http://creativecommons.org/ns#"
   xmlns:rdf="http://www.w3.org/1999/02/22-rdf-syntax-ns#"
   xmlns:svg="http://www.w3.org/2000/svg"
   xmlns="http://www.w3.org/2000/svg"
   xmlns:sodipodi="http://sodipodi.sourceforge.net/DTD/sodipodi-0.dtd"
   xmlns:inkscape="http://www.inkscape.org/namespaces/inkscape"
   id="AvatarAssets"
   image-rendering="auto"
   version="1.1"
   x="0px"
   y="0px"
   width="57.498001"
   height="64.713326"
   viewBox="0 0 57.498001 64.713326"
   inkscape:version="0.48.4 r9939"
   sodipodi:docname="AvatarAssets_sideHatYeti.svg">
  <metadata
     id="metadata46">
    <rdf:RDF>
      <cc:Work
         rdf:about="">
        <dc:format>image/svg+xml</dc:format>
        <dc:type
           rdf:resource="http://purl.org/dc/dcmitype/StillImage" />
      </cc:Work>
    </rdf:RDF>
  </metadata>
  <sodipodi:namedview
     pagecolor="#ffffff"
     bordercolor="#666666"
     borderopacity="1"
     objecttolerance="10"
     gridtolerance="10"
     guidetolerance="10"
     inkscape:pageopacity="0"
     inkscape:pageshadow="2"
     inkscape:window-width="640"
     inkscape:window-height="480"
     id="namedview44"
     showgrid="false"
     fit-margin-top="0"
     fit-margin-left="0"
     fit-margin-right="0"
     fit-margin-bottom="0"
     inkscape:zoom="1.9032258"
     inkscape:cx="51.997"
     inkscape:cy="-27.735671"
     inkscape:window-x="0"
     inkscape:window-y="0"
     inkscape:window-maximized="0"
     inkscape:current-layer="AvatarAssets" />
  <defs
     id="defs3" />
  <g
     id="sideHatYeti1"
     overflow="visible"
     style="overflow:visible"
     transform="translate(19.997,30.449)">
    <g
       id="sideHatYeti_0">
      <g
         id="element">
        <g
           id="group1">
          <g
             id="drawingObject">
            <path
               id="path"
               d="m 13.651,-0.499 0.1,-0.7 0.1,1.55 -0.1,-1.55 c 0,0 0.05,2.7 0.7,4.15 0.65,1.4 1.45,3.15 3.8,2.9 2.4,-0.3 2.7,-2.9 2.85,-3.75 l 0.1,-1.8 0.6,-0.8 -0.05,2.95 0.05,-2.95 c 0,0 -0.4,5.6 0.75,6.75 1.15,1.15 2.75,1.5 3.95,-0.65 1.25,-2.2 1.7,-5.3 1.7,-5.3 l -0.4,1.85 0.4,-1.85 0.6,-0.85 -0.45,1.95 0.45,-1.95 c 0,0 -1.1,3.5 -0.15,5 0.9,1.55 3.1,0.55 3.7,-1.8 l 1.3,-4.95 -0.25,1.95 0.25,-1.95 c 0,0 -0.6,3.6 -0.05,4.65 0.5,1.1 2.15,2.5 2.6,0.35 0.5,-2.15 0.35,-3 0.35,-3 l 0,0.7 0,-0.7 c 0,0 -4.75,-5.75 -10.6,-4.8 -5.85,0.9 -17.95,1.6 -17.95,1.6 l 6.8,-0.45 -6.8,0.45 -5.25,2 -1.7,3 0.1,1.6 -0.1,-1.6 c 0,0 -0.4,3.2 1.8,3.2 2.25,-0.05 2.65,-1 3.1,-3.05 0.45,-2 0.2,-2.15 0.2,-2.15 l 0.05,0.35 -0.05,-0.35 0.85,-0.85 -0.05,1.55 0.05,-1.55 c 0,0 -0.3,2.65 0.35,4.3 0.65,1.65 2.4,2.45 4.05,1.7 1.6,-0.75 2.15,-4.45 2.25,-5.15 z"
               inkscape:connector-curvature="0"
               style="fill:#000000;fill-opacity:0.08600003" />
          </g>
          <g
             id="drawingObject1">
            <path
               id="path1"
               d="m 37.251,-1.099 c 0,0 -4.75,-5.75 -10.6,-4.8 -5.85,0.95 -18,1.6 -18,1.6 l 6.8,-0.45 -6.8,0.45 -5.2,2 -1.7,3 0.05,1.6 -0.05,-1.6 c 0,0 -0.45,3.25 1.8,3.2 2.25,-0.05 2.6,-1 3.1,-3.05 0.45,-2 0.2,-2.15 0.2,-2.15 l 0.05,0.35 -0.05,-0.35 0.8,-0.85 -0.05,1.55 0.05,-1.55 c 0,0 -0.25,2.65 0.4,4.3 0.65,1.65 2.4,2.45 4,1.7 1.6,-0.7 2.2,-4.4 2.3,-5.15 l 0.1,-0.7 0.1,1.55 -0.1,-1.55 c 0,0 0.05,2.75 0.7,4.15 0.65,1.4 1.45,3.2 3.8,2.9 2.4,-0.25 2.7,-2.9 2.8,-3.75 l 0.1,-1.75 0.6,-0.85 -0.05,2.95 0.05,-2.95 c 0,0 -0.4,5.6 0.75,6.75 1.15,1.2 2.8,1.5 4,-0.65 1.2,-2.15 1.65,-5.25 1.65,-5.25 l -0.35,1.8 0.35,-1.8 0.6,-0.85 -0.4,1.9 0.4,-1.9 c 0,0 -1.05,3.45 -0.15,5 0.9,1.5 3.15,0.55 3.75,-1.85 l 1.25,-4.95 -0.2,1.95 0.2,-1.95 c 0,0 -0.55,3.6 -0.05,4.7 0.55,1.05 2.2,2.45 2.65,0.3 0.45,-2.15 0.35,-3 0.35,-3 z"
               inkscape:connector-curvature="0"
               style="fill:#ffffff" />
          </g>
          <g
             id="drawingObject2">
            <path
               id="path2"
               d="m 21.851,-0.449 0.6,-0.85 -0.05,2.95 0.05,-2.95 c 0,0 -0.4,5.6 0.75,6.75 0.8,0.8 1.8,1.2 2.75,0.7 l -0.3,-0.05 c -2.4,-0.5 -2.4,-3 -2.4,-3 l 0.3,1.3 -0.3,-1.3 2.4,0.1 c 0.8,0 1.85,-0.15 2.35,-0.25 0.6,-1.75 0.85,-3.4 0.85,-3.4 l -0.2,1.05 0.2,-1.05 0.6,-0.85 -0.4,1.9 0.4,-1.9 c 0,0 -1.05,3.45 -0.15,5 0.35,0.6 0.95,0.8 1.55,0.7 -1.1,-0.7 -1.1,-2.2 -1.1,-2.2 l 0.15,0.85 -0.15,-0.85 1.75,-0.75 c 0.55,-0.2 1.75,-1.15 1.95,-1.3 l 0.85,-3.25 -0.2,1.95 0.2,-1.95 c 0,0 -0.55,3.6 -0.05,4.7 0.35,0.6 1,1.35 1.65,1.4 -1.2,-1.1 -0.75,-2.55 -0.75,-2.55 l -0.05,0.85 0.05,-0.85 0.5,0.15 c 0.2,0.05 0.8,0.35 1.35,0.7 0.35,-1.7 0.25,-2.4 0.25,-2.4 l 0,0.55 0,-0.55 c 0,0 -4.75,-5.75 -10.6,-4.8 q -3.65,0.6 -11.2,1.15 l -6.8,0.45 -5.2,2 -1.7,3 0.05,1.6 -0.05,-1.6 c 0,0 -0.45,3.25 1.8,3.2 l 0.35,-0.05 c -1.15,-1.05 -1.25,-2.65 -1.25,-2.65 l 0.2,0.95 -0.2,-0.95 1.6,-0.6 c 1.15,-0.45 2.1,-0.55 2.55,-0.6 0.2,-1.2 0.05,-1.3 0.05,-1.3 l 0.05,0.2 -0.05,-0.2 0.8,-0.85 -0.05,1.55 0.05,-1.55 c 0,0 -0.25,2.65 0.4,4.3 0.55,1.4 1.9,2.2 3.3,1.95 -3.2,-0.55 -2.95,-4.5 -2.95,-4.5 l 0.3,2.05 -0.3,-2.05 1.15,0.05 -1.15,-0.05 c 0,0 1.75,0 3.75,0.35 0.9,0.2 1.4,0.55 1.75,0.9 0.25,-0.95 0.4,-1.85 0.45,-2.15 l 0.1,-0.7 0.1,1.55 -0.1,-1.55 c 0,0 0.05,2.75 0.7,4.15 0.65,1.4 1.45,3.2 3.8,2.9 l 0.1,0 c -0.3,-0.1 -0.7,-0.2 -1.15,-0.45 -1.9,-0.9 -2,-3.75 -2,-3.75 l 0.3,1.55 -0.3,-1.55 2.25,0.85 c 0.85,0.4 2.6,0.8 3.35,0.95 0.15,-0.55 0.25,-1.05 0.25,-1.35 l 0.1,-1.75 z"
               inkscape:connector-curvature="0"
               style="fill:#d4cec0" />
          </g>
        </g>
        <g
           id="drawingObject3">
          <path
             id="path3"
             d="m -3.549,-27.449 c 0.75,0.95 0.95,1.9 0.95,1.9 q -1.9,-0.4 -4.5,0.45 c -2.8,0.95 -3.15,1.65 -3.15,1.65 l 1.45,-0.35 -1.45,0.35 c 0,0 2.4,-0.75 4.2,-0.6 l 1.65,0.15 c 0,0 -4.3,0.85 -6.35,2.5 -2.2,1.8 -2.3,2.55 -2.3,2.55 l 1.2,-0.4 -1.2,0.4 c 0,0 1.9,-0.75 3.9,-0.9 l 2,-0.15 -3.25,1.2 3.25,-1.2 c 0,0 -5.65,1.25 -9,5.9 -3,4.2 -2.3,5.4 -2.3,5.4 0,0 0.15,-0.55 1.95,-1.25 1.3,-0.55 1.75,-0.2 1.75,-0.2 l -1.95,2.3 1.95,-2.3 c 0,0 -3.6,2.9 -4.8,9.85 -1.6,9.05 1.6,13.8 1.6,13.8 0,0 -0.4,-1.85 0.15,-3.7 0.5,-1.85 0.75,-1.9 0.75,-1.9 l -0.2,0.25 0.2,-0.25 0.35,4.65 -0.35,-4.65 c 0,0 -0.35,8 4,13.2 3.55,4.25 9.4,10 23.05,12.5 5.95,1.1 8.4,0.25 8.4,0.25 0,0 -12.55,-1.25 -16.25,-6.5 -4.05,-5.75 -6.75,-12.3 -4.05,-20.5 2.45,-7.3 8.1,-9 15.95,-7.25 5.75,1.3 10.4,5.5 18,0.75 2.6,-1.6 5.45,0 5.45,0 0,0 -1.55,-9.45 -6.05,-14.15 l -4.5,-4.65 1.65,0.65 -1.65,-0.65 c 0,0 3,1.1 4.1,1.9 l 1.1,0.75 c 0,0 -5,-4.65 -8.05,-5.95 -3.05,-1.25 -6.6,-1.9 -6.6,-1.9 l 2.15,0.5 -2.15,-0.5 1.9,-0.1 -1.9,0.1 c 0,0 3.5,-0.25 4.8,0.05 l 1.3,0.3 c 0,0 -2.95,-2.15 -7.75,-2.35 -4.8,-0.2 -8.95,-0.1 -8.95,-0.1 l 2.7,0 -2.7,0 c 0,0 1.8,-1.35 3.15,-1.5 l 1.35,-0.15 c 0,0 -3.65,-0.5 -5.35,-0.05 -1.7,0.45 -2.6,1.05 -2.6,1.05 l 0.65,-0.35 -0.65,0.35 c 0,0 -0.45,-1.7 0.3,-2.9 l 0.8,-1.25 -2.05,0.95 2.05,-0.95 c 0,0 -4,1.65 -4.25,2.75 l -0.3,1.1 c 0,0 -0.45,-1.9 -3.1,-2.2 l -2.6,-0.35 0.8,0.5 -0.8,-0.5 c 0,0 1.4,0.8 2.15,1.7 z"
             inkscape:connector-curvature="0"
             style="fill:#f2f2f2" />
        </g>
        <g
           id="drawingObject4">
          <path
             id="path4"
             d="m -0.449,-24.199 -2.85,-0.35 c -1.4,-0.15 -4.2,0.3 -6.7,0.8 l -0.25,0.25 0.25,-0.05 c 0.7,-0.2 2.5,-0.6 3.95,-0.5 l 1.65,0.15 -1.55,0.4 c 1.55,0.1 2.65,0.3 2.65,0.3 l -3.5,0.5 c -1.45,0.2 -3.1,1 -4.6,1.9 -1.55,1.35 -1.65,1.95 -1.65,1.95 l 1.2,-0.4 -1.2,0.4 c 0,0 1.9,-0.75 3.9,-0.9 l 2,-0.15 c 0,0 -0.9,0.2 -2.15,0.75 2.4,-0.15 4.85,-0.2 4.85,-0.2 0,0 -2.35,0.5 -7,2.15 -2.75,1 -5.05,3.95 -6.55,6.25 -0.75,1.75 -0.45,2.35 -0.45,2.35 0,0 0.15,-0.55 1.95,-1.25 1.3,-0.55 1.75,-0.2 1.75,-0.2 l -1.95,2.3 1.95,-2.3 c 0,0 -3.6,2.9 -4.8,9.85 -1.6,9.05 1.6,13.8 1.6,13.8 0,0 -0.4,-1.85 0.15,-3.7 0.5,-1.85 0.75,-1.9 0.75,-1.9 l -0.2,0.25 0.2,-0.25 0.35,4.65 -0.35,-4.65 c 0,0 -0.35,8 4,13.2 3.55,4.25 9.4,10 23.05,12.5 5.95,1.1 8.4,0.25 8.4,0.25 q -10.2,0.15 -16,-4.4 -4.3,-3.4 -6.7,-10.1 c -2.65,-7.3 0.15,-13.15 2,-15.8 1.25,-1.8 3.9,-2.95 5.85,-3.45 2.8,-1.35 6.35,-1.4 10.5,-0.5 5.75,1.3 10.4,5.5 18,0.75 2.6,-1.6 5.45,0 5.45,0 0,0 -0.15,-1.05 -0.55,-2.55 l -0.4,0.05 -1.2,-1.5 0,0.5 c 0,0.5 -0.5,1 -0.5,1 l -0.5,-0.65 -1.65,-1.65 0,0.65 c 0,0.65 -0.65,2.35 -0.65,2.35 l -0.2,-0.85 c -0.15,-0.85 -1.8,-2.5 -1.8,-2.5 l 0.85,0.95 -0.85,-0.95 0,1.65 c 0,0.7 -1.2,2 -1.2,2 l -0.15,-0.65 c -0.15,-0.65 -1.85,-2 -1.85,-2 l 0.85,0.75 -0.85,-0.75 0,0.85 c 0,0.8 -1.3,1.65 -1.3,1.65 l 0.15,-0.85 c 0.15,-0.8 -0.15,-2.5 -0.15,-2.5 l 0.15,0.95 -0.15,-0.95 -0.3,0.55 0.3,-0.55 c 0,0 -0.35,0.85 -1.35,1.7 -1,0.8 -2.65,0.65 -2.65,0.65 l 0.15,-1 -1.5,0 c -1.5,0 -3.5,0 -6.15,-0.85 -2.65,-0.8 -1.7,-1.65 -1.7,-1.65 l -0.15,0.55 0.15,-0.55 1.5,0 c 1.5,0 4.2,-0.5 4.2,-0.5 l -1.35,0 c -1.35,0 -2.65,-0.35 -4.65,-0.85 -2,-0.5 -4.35,-0.3 -4.35,-0.3 l 1.45,-0.05 -1.45,0.05 1,-0.5 c 1,-0.5 4.85,-1.35 4.85,-1.35 l -2.5,0 c -2.5,0 -4,0.65 -4,0.65 l 1.05,-0.3 -1.05,0.3 2.65,-1.8 c 1.5,-1 4.15,-1 4.15,-1 0,0 -0.8,-0.2 -2.65,-0.2 -1.85,0 -2.15,-0.15 -2.15,-0.15 l 0.4,0.1 -0.4,-0.1 1.15,-0.5 c 1.15,-0.5 4,-1 4,-1 l -3.35,0 c -2.5,0 -7.3,0.65 -7.3,0.65 l 2.7,-0.3 -2.7,0.3 1.6,-0.85 -1.6,0.85 c 0,0 2.5,-1.5 5.15,-2.15 2.7,-0.65 7.35,0 7.35,0 0,0 -1.35,-0.85 -4,-1.5 -2.65,-0.65 -7.7,0.5 -7.7,0.5 l 2.85,-0.5 -2.85,0.5 3.7,-1.5 c 1.5,-0.5 4.8,-0.5 4.8,-0.5 l -4.5,-0.85 2.2,-0.3 c 2.15,-0.35 5.5,0.3 5.5,0.3 l -3.2,-1.3 c -2.5,-1 -6.65,-0.85 -6.65,-0.85 l 2.4,0.05 -2.4,-0.05 2.5,-0.5 c 2.5,-0.5 4.85,-0.5 4.85,-0.5 l -2.7,-0.35 c -2.65,-0.3 -4.8,0 -4.8,0 l 1.4,-0.1 -1.4,0.1 1.5,-1.15 -1.35,-0.35 c -1.35,-0.3 -3.35,-0.5 -3.5,-1.3 l -0.15,-1.85 -0.85,1 c -0.85,1 -0.65,1.35 -0.65,1.35 l -0.85,-1 c -0.85,-1 -2.85,-2.35 -2.85,-2.35 l 1.1,0.8 -1.1,-0.8 1.2,1.5 c 1.15,1.5 1,2 1,2 z"
             inkscape:connector-curvature="0"
             style="fill:#e3ebf2" />
        </g>
        <g
           id="drawingObject5">
          <path
             id="path5"
             d="m 34.401,-0.249 -2.85,0.05 -0.5,-1.35 -0.35,1.2 c -0.3,1.15 -2.5,1.3 -2.5,1.3 l 0.15,-0.975 0,0.025 c 0,-0.05 -0.15,0.95 -1.65,1.65 -1.5,0.65 -3.85,0 -3.85,0 l 0.85,-0.5 c 0.85,-0.5 0.15,-1.2 0.15,-1.2 l -1,0.35 c -1,0.35 -1.8,0.15 -1.8,0.15 l 0.55,0.05 -0.55,-0.05 0.3,-1.15 c 0,0 -1,1 -4,0.65 -3,-0.3 -7.15,-2.15 -9.65,-2.15 -2.5,0 -10.85,3.85 -10.85,3.85 l 4.5,-1.9 -4.5,1.9 1,-1.35 c 1,-1.35 2.85,-3 2.85,-3 l -1.05,1 1.05,-1 -2.5,1.15 c -2.5,1.2 -4.15,3.5 -4.65,3.85 -0.5,0.35 0,0 0.65,-1.65 0.7,-1.7 2.85,-4.5 2.85,-4.5 l -1.15,1.6 1.15,-1.6 -1.85,1.8 c -1.8,1.85 -3.65,4.5 -3.65,4.5 l 0.65,-2.8 c 0.7,-2.85 3.5,-6.2 3.5,-6.2 l -1.5,2.05 1.5,-2.05 -1.85,1.5 c -1.8,1.5 -4.8,8 -4.8,8 l 1,-4 c 1,-4 4.3,-7.15 4.3,-7.15 l -1.75,2.1 1.75,-2.1 -2.15,1.5 c -2.15,1.5 -5.35,7 -5.35,7 l 0.7,-2.5 c 0.65,-2.5 2.5,-4.5 2.5,-4.5 l -1,1.3 1,-1.3 -1.85,1.65 c -1.8,1.7 -3,4.5 -3,4.5 l 0.5,-3 c 0.5,-3 3,-6 3,-6 l -1.3,1.9 1.3,-1.9 -1.15,0.85 c -1.2,0.85 -2.85,3.5 -2.85,3.5 0,0 0.65,-2.35 2.35,-4.35 1.65,-2 4.8,-5.15 4.8,-5.15 l -1.8,1.85 1.8,-1.85 -4.65,3 0.5,-1.35 c 0.5,-1.3 4.15,-3.8 4.15,-3.8 l -1.9,1.4 1.9,-1.4 -3.3,1.8 c -1.6,0.9 -4.4,3.55 -7.05,6.2 l 0.05,0.25 c 0,0 0.15,-0.55 1.95,-1.25 1.3,-0.55 1.75,-0.2 1.75,-0.2 l -1.95,2.3 1.95,-2.3 c 0,0 -3.6,2.9 -4.8,9.85 -1.6,9.05 1.6,13.8 1.6,13.8 0,0 -0.4,-1.85 0.15,-3.7 0.5,-1.85 0.75,-1.9 0.75,-1.9 l -0.2,0.25 0.2,-0.25 0.35,4.65 -0.35,-4.65 c 0,0 -0.35,8 4,13.2 3.55,4.25 9.4,10 23.05,12.5 5.95,1.1 8.4,0.25 8.4,0.25 -15,0.2 -20.05,-7.15 -22.7,-14.5 -2.65,-7.3 0.15,-13.15 2,-15.8 1.25,-1.8 3.9,-2.95 5.85,-3.45 q 3.95,-1.9 10.5,-0.5 c 5.75,1.3 10.4,5.5 18,0.75 0.85,-0.5 1.7,-0.7 2.35,-0.7 z"
             inkscape:connector-curvature="0"
             style="fill:#d5dfe7" />
        </g>
        <g
           id="drawingObject6">
          <path
             id="path6"
             d="m -13.149,4.701 0.15,-1.5 -0.7,1.6 0.7,-1.6 c 0,0 -1.35,2.75 -1.5,4.5 l -0.1,1.75 c 0,0 -0.75,-2.1 -0.65,-3.75 l 0.25,-2.75 -0.3,1.15 0.3,-1.15 c 0,0 -0.5,1.75 -0.75,3.9 l -0.25,2.1 c 0,0 -0.5,-1.1 -0.5,-2 l 0,-2.25 -1,2.2 1,-2.2 c 0,0 -2,3.4 -2,7.5 l 0,0.35 c 0.3,0.7 0.55,1.05 0.55,1.05 0,0 -0.4,-1.85 0.15,-3.7 0.5,-1.85 0.75,-1.9 0.75,-1.9 l -0.2,0.25 0.2,-0.25 0.35,4.65 -0.35,-4.65 c 0,0 -0.35,8 4,13.2 3.55,4.25 9.4,10 23.05,12.5 5.95,1.1 8.4,0.25 8.4,0.25 -15,0.2 -20.05,-7.15 -22.7,-14.5 q -2.6,-7.05 0.85,-13.9 l -1.15,0.9 c -1.9,1.5 -3.9,5 -3.9,5 0,0 0.4,-4.6 1,-6 l 0.65,-1.35 -1.3,1.65 1.3,-1.65 c 0,0 -2.5,2.75 -3,5 l -0.65,2.85 c 0,0 -0.5,-3.1 -0.1,-5 l 0.6,-2.5 -1,1.65 1,-1.65 c 0,0 -2,2.65 -2.1,5.25 l -0.15,3.5 c 0,0 -1.1,-3.25 -1.1,-5.35 0,-2.15 0.35,-4.65 0.35,-4.65"
             inkscape:connector-curvature="0"
             style="fill:#bec6d3" />
        </g>
        <g
           id="drawingObject7">
          <path
             id="path7"
             d="m 35.651,-0.149 -0.65,-0.5 -0.75,-1 c 0,0 0,0.85 -0.85,1.25 l -2.4,0.85 0.15,-0.5 c 0.1,-0.5 -0.4,-2 -0.4,-2 l 0.25,0.8 -0.25,-0.8 -0.1,0.9 c -0.15,0.85 -1.25,2.6 -3.4,3.1 -2.1,0.5 -2.5,-0.5 -2.5,-0.5 l 0.45,0.45 -0.45,-0.45 0.65,-0.85 c 0.6,-0.9 0.1,-2.75 0.1,-2.75 l 0.2,1.05 -0.2,-1.05 0.05,0.95 c 0.05,0.95 -0.9,1.55 -1.85,2.35 -0.9,0.8 -3.05,0.05 -3.05,0.05 l 1.25,-1.35 c 0.75,-0.9 0.5,-2.4 0.5,-2.4 l 0.05,0.85 -0.05,-0.85 -0.4,1.5 c -0.2,0.85 -2.75,1.65 -4.6,1.8 4.35,1.6 8.55,3.55 14.65,-0.3 1.25,-0.75 2.6,-0.8 3.6,-0.6 z"
             inkscape:connector-curvature="0"
             style="fill:#bec6d3" />
        </g>
        <g
           id="group2">
          <g
             id="drawingObject8">
            <path
               id="path8"
               d="m 24.651,-11.249 c 6.1,1.05 6.05,-1.2 0.95,-2.3 -5,-1.05 -27.1,-4.05 -28.8,-2.6 -1.75,1.5 -4.75,7.65 -2.2,11.3 q 1.25,1.7 2.55,2.45 1.7,0.95 3.95,0.55 c 3.3,-0.6 7.55,-4.7 10.5,-6.55 3,-1.85 7.05,-3.85 13.05,-2.85 z"
               inkscape:connector-curvature="0"
               style="fill:#ccd5dd" />
          </g>
          <g
             id="drawingObject9">
            <path
               id="path9"
               d="m 1.201,-2.949 c 0.25,-0.8 -1.35,-7.7 -3.2,-8.6 -1.9,-0.9 -1.85,-3.5 -5.65,1.95 q -1.2,1.75 -1.7,3.7 -0.25,1 -0.25,1.6 c 0,0 1,-1.9 1.45,-2.55 0.75,-1.15 2,-1.45 2,-1.45 l -0.7,0.3 0.7,-0.3 -1.45,2.25 1.45,-2.25 c 0,0 -2.7,3.85 -3.4,6.35 l -0.65,2.45 c 0,0 1.9,-3.3 3.15,-4.45 l 1.2,-1.15 -0.55,1.05 0.55,-1.05 c 0,0 -0.95,1.7 -1.45,3.45 l -0.5,1.75 c 0,0 1.25,-1.85 2.15,-2.5 l 0.95,-0.65 -0.2,0.5 0.2,-0.5 c 0,0 -0.4,0.8 -0.45,1.55 l -0.1,0.75 c 0,0 1.05,-1.35 3.1,-1.2 2.05,0.1 3.05,-0.15 3.35,-1 z"
               inkscape:connector-curvature="0"
               style="fill:#ccd5dd" />
          </g>
          <g
             id="drawingObject10">
            <path
               id="path10"
               d="m 23.951,-17.449 c -3.95,-1.05 -3.2,-0.55 -9.8,-1 q -9,-0.7 -10.95,-0.45 -5.85,0.6 -7.95,5.05 c -3.25,7 3.45,12.1 8.45,9.7 4.75,-2.3 10.6,-7.85 17.65,-7.4 9.95,0.65 14.4,7.05 14.15,4.6 -0.35,-3.6 -6.45,-9.1 -11.55,-10.5 z"
               inkscape:connector-curvature="0"
               style="fill:#d5b590" />
          </g>
          <g
             id="drawingObject11">
            <path
               id="path11"
               d="m 23.901,-18.049 c -4,-1.1 -3.25,-0.55 -9.8,-1.05 q -9.15,-0.65 -10.95,-0.45 -5.85,0.65 -7.95,5.05 c -3.25,7.05 3.45,12.1 8.45,9.75 4.75,-2.3 10.6,-7.85 17.65,-7.45 9.95,0.65 14.35,7.05 14.15,4.6 -0.35,-3.6 -6.45,-9.1 -11.55,-10.45 z"
               inkscape:connector-curvature="0"
               style="fill:#fedebb" />
          </g>
          <g
             id="drawingObject12">
            <path
               id="path12"
               d="m 34.101,-9.649 c -0.05,-0.15 -0.25,-0.2 -0.4,-0.1 -0.15,0.1 -0.2,0.3 -0.1,0.5 l 0.6,1.15 -0.15,-0.05 c -0.15,-0.1 -0.3,0 -0.4,0.15 -0.05,0.2 0,0.4 0.15,0.5 0.25,0.1 0.45,0.2 0.6,0.2 0.3,0.05 0.5,-0.15 0.5,-0.35 0.05,-0.2 0,-0.4 -0.15,-0.7 l -0.65,-1.3 z m -1.4,-1.05 0.15,0.1 c 0.1,0 0.2,0 0.25,-0.1 0.15,-0.1 0.15,-0.35 0.05,-0.5 -0.5,-0.65 -1.1,-1.35 -1.75,-1.95 -0.15,-0.15 -0.3,-0.1 -0.45,0.05 -0.1,0.15 -0.05,0.35 0.05,0.45 0.6,0.6 1.2,1.25 1.7,1.95 z m -0.25,2.4 c 0.1,0 0.25,-0.05 0.3,-0.2 0.1,-0.2 0,-0.4 -0.15,-0.45 -0.5,-0.3 -1.25,-0.75 -2.2,-1.2 -0.15,-0.05 -0.35,0.05 -0.4,0.2 -0.05,0.2 0,0.4 0.15,0.45 l 2.3,1.2 z m -8.1,-9.05 c -0.15,-0.05 -0.35,0.05 -0.4,0.2 -0.05,0.2 0.05,0.4 0.2,0.45 0.75,0.25 1.5,0.55 2.2,0.9 l 0.05,0 c 0.15,0 0.25,-0.05 0.35,-0.2 0.05,-0.2 -0.05,-0.4 -0.2,-0.45 -0.7,-0.35 -1.45,-0.65 -2.2,-0.9 z m -1.7,0.2 0.05,0 c 0.15,0.05 0.3,-0.1 0.3,-0.25 0.05,-0.2 -0.05,-0.4 -0.2,-0.4 -0.8,-0.2 -1.45,-0.35 -2.35,-0.45 -0.15,0 -0.25,0.15 -0.3,0.3 0,0.2 0.15,0.35 0.3,0.4 0.7,0.05 1.45,0.2 2.2,0.4 z m -0.3,5 c 0,0.15 0.1,0.35 0.25,0.35 0.8,0.1 1.6,0.25 2.3,0.45 0.2,0.05 0.35,-0.1 0.35,-0.25 0.05,-0.2 -0.05,-0.4 -0.2,-0.45 l -2.35,-0.4 c -0.2,-0.05 -0.3,0.1 -0.35,0.3 z m -0.95,-0.15 c 0,-0.15 -0.15,-0.35 -0.3,-0.35 l -2.35,-0.05 c -0.15,0 -0.3,0.2 -0.3,0.35 0,0.2 0.1,0.3 0.25,0.35 l 0.05,0 c 0.3,-0.05 0.55,-0.05 0.85,-0.05 l 1.45,0.1 c 0.15,0 0.3,-0.15 0.35,-0.35 z m 6.2,-3.25 c -0.05,0.2 0,0.4 0.15,0.5 0.7,0.4 1.4,0.85 2,1.35 l 0.15,0.05 c 0.1,0 0.2,-0.05 0.25,-0.15 0.1,-0.15 0.1,-0.35 -0.05,-0.5 -0.65,-0.5 -1.35,-0.95 -2.1,-1.4 -0.15,-0.05 -0.3,0 -0.4,0.15 z m -8.7,-2.85 -2.3,-0.05 c -0.15,0 -0.3,0.15 -0.3,0.35 0,0.15 0.1,0.3 0.25,0.35 l 2.3,0.05 c 0.2,0 0.3,-0.15 0.35,-0.3 0,-0.2 -0.1,-0.35 -0.3,-0.4 z m -6.45,0.4 c 0.05,0.05 0.1,0 0.15,-0.05 l 0.15,0.1 c 0.85,0.1 1.6,0.15 2.3,0.15 0.15,0 0.3,-0.15 0.3,-0.3 0,-0.2 -0.1,-0.35 -0.25,-0.35 l -2.3,-0.15 -0.15,0.05 -0.15,-0.1 -2.25,-0.2 c -0.15,-0.05 -0.3,0.1 -0.35,0.3 0,0.15 0.1,0.3 0.25,0.35 l 2.3,0.2 z m 4.8,6.15 c 0.15,0 0.25,-0.2 0.25,-0.35 -0.05,-0.2 -0.15,-0.35 -0.35,-0.3 -0.75,0.15 -1.5,0.35 -2.3,0.6 -0.15,0.05 -0.25,0.25 -0.2,0.4 0.05,0.15 0.15,0.25 0.25,0.25 l 0.1,0 c 0.75,-0.25 1.5,-0.45 2.25,-0.6 z m -3.7,1.15 c 0.15,-0.05 0.25,-0.25 0.2,-0.4 -0.05,-0.2 -0.2,-0.3 -0.4,-0.2 l -2.15,1.05 c -0.15,0.05 -0.2,0.25 -0.15,0.45 l 0.2,0.2 0.2,-0.05 2.1,-1.05 z m 15.5,0.35 c 0.1,-0.2 0,-0.4 -0.15,-0.45 -0.75,-0.3 -1.55,-0.6 -2.3,-0.8 -0.15,-0.05 -0.35,0.05 -0.4,0.25 0,0.15 0.05,0.35 0.25,0.4 l 2.25,0.8 0.05,0.05 c 0.15,0 0.25,-0.1 0.3,-0.25 z m -22.65,-8.1 0.05,0 c 0.75,0 1.45,0.05 2.2,0.1 0.2,0.05 0.3,-0.1 0.35,-0.3 0,-0.2 -0.1,-0.35 -0.25,-0.35 l -2.25,-0.15 c -0.15,0 -0.3,0.15 -0.3,0.35 -0.05,0.15 0.05,0.3 0.2,0.35 z m -4.85,-0.05 c 0,-0.15 -0.15,-0.25 -0.3,-0.25 -0.8,0.2 -1.55,0.45 -2.2,0.8 -0.15,0.1 -0.2,0.25 -0.15,0.45 0,0.1 0.1,0.15 0.2,0.2 l 0.15,-0.05 c 0.6,-0.3 1.3,-0.55 2.05,-0.75 0.15,-0.05 0.3,-0.2 0.25,-0.4 z m 0.9,-0.15 c 0.05,0.15 0.1,0.3 0.25,0.3 l 2.25,-0.15 c 0.15,0 0.3,-0.15 0.3,-0.3 0,-0.2 -0.1,-0.35 -0.25,-0.35 l -2.25,0.15 c -0.15,0 -0.3,0.2 -0.3,0.35 z m -7.25,5.1 c -0.25,0.55 -0.4,1.1 -0.5,1.65 l -0.1,1.05 c 0,0.15 0.1,0.3 0.25,0.3 l 0.05,0 c 0.15,0 0.25,-0.15 0.25,-0.3 l 0.1,-0.95 0.4,-1.5 c 0.1,-0.15 0.05,-0.35 -0.1,-0.45 -0.15,-0.05 -0.3,0 -0.35,0.2 z m 2.5,-3.5 c -0.65,0.5 -1.25,1.15 -1.7,1.9 -0.1,0.15 -0.1,0.35 0.05,0.45 l 0.1,0.05 c 0.1,0.05 0.2,0 0.25,-0.1 0.45,-0.7 0.95,-1.3 1.55,-1.8 0.15,-0.1 0.2,-0.3 0.1,-0.45 -0.05,-0.15 -0.25,-0.15 -0.35,-0.05 z m -1.55,10.45 0.25,-0.1 c 0.1,-0.15 0.1,-0.35 0,-0.5 -0.5,-0.6 -0.85,-1.3 -1.05,-2.05 -0.05,-0.2 -0.2,-0.25 -0.35,-0.2 -0.15,0.05 -0.2,0.25 -0.15,0.45 0.2,0.85 0.6,1.6 1.15,2.3 l 0.15,0.1 z m 0.95,0.55 c -0.05,0.2 -0.05,0.4 0.1,0.5 0.65,0.45 1.35,0.8 2.1,1 0.15,0.05 0.3,-0.1 0.35,-0.25 0.05,-0.2 -0.05,-0.35 -0.2,-0.4 -0.7,-0.2 -1.35,-0.5 -1.95,-0.95 -0.15,-0.1 -0.3,-0.05 -0.4,0.1 z m 12.95,-2.8 c 0.15,-0.1 0.2,-0.3 0.15,-0.45 -0.1,-0.2 -0.25,-0.25 -0.4,-0.15 l -2.05,1.25 c -0.15,0.1 -0.2,0.3 -0.1,0.45 0,0.1 0.1,0.15 0.2,0.2 l 0.15,-0.05 2.05,-1.25 z m -3.4,2.1 c 0.15,-0.1 0.2,-0.3 0.15,-0.45 -0.1,-0.15 -0.25,-0.25 -0.4,-0.15 l -2.05,1.2 c -0.15,0.1 -0.2,0.3 -0.15,0.45 l 0.2,0.2 0.2,0 2.05,-1.25 z m -5.85,2.4 0.05,0 c 0.8,0 1.55,-0.15 2.3,-0.45 0.15,-0.05 0.25,-0.25 0.2,-0.45 -0.05,-0.15 -0.2,-0.25 -0.35,-0.2 -0.7,0.3 -1.4,0.45 -2.15,0.45 -0.15,0 -0.25,0.15 -0.3,0.3 0,0.2 0.1,0.35 0.25,0.35 z"
               inkscape:connector-curvature="0"
               style="fill:#d5b590" />
          </g>
          <g
             id="drawingObject13">
            <path
               id="path57"
               d="m 34.851,-8.799 c -0.15,-0.45 -0.4,-0.9 -0.6,-1.3 -0.1,-0.15 -0.3,-0.2 -0.4,-0.1 -0.15,0.1 -0.2,0.3 -0.1,0.5 l 0.55,1.15 -0.1,-0.05 c -0.15,-0.1 -0.35,0 -0.4,0.15 -0.1,0.2 0,0.4 0.15,0.5 0.25,0.1 0.4,0.2 0.55,0.2 0.3,0.05 0.5,-0.15 0.55,-0.4 0,-0.15 -0.05,-0.35 -0.2,-0.65 z m -2,-0.15 c 0.1,-0.2 0.05,-0.4 -0.1,-0.45 -0.5,-0.3 -1.3,-0.75 -2.25,-1.2 -0.15,-0.05 -0.3,0.05 -0.35,0.2 -0.1,0.2 0,0.4 0.15,0.45 l 2.25,1.2 c 0.15,0 0.25,-0.05 0.3,-0.2 z m -0.05,-2.2 0.2,0.1 c 0.05,0 0.15,0 0.25,-0.1 0.1,-0.1 0.1,-0.35 0,-0.5 -0.5,-0.65 -1.1,-1.35 -1.75,-1.95 -0.1,-0.1 -0.3,-0.1 -0.4,0.05 -0.1,0.15 -0.1,0.35 0.05,0.5 0.6,0.55 1.15,1.2 1.65,1.9 z m -8.7,-6.45 c -0.05,0.2 0,0.4 0.15,0.45 0.75,0.25 1.5,0.55 2.2,0.9 l 0.05,0 c 0.15,0.05 0.3,-0.05 0.35,-0.2 0.05,-0.2 0,-0.4 -0.15,-0.45 l -2.25,-0.9 c -0.15,-0.05 -0.3,0.05 -0.35,0.2 z m -1.3,0 c 0.15,0.05 0.3,-0.1 0.35,-0.25 0,-0.2 -0.05,-0.35 -0.25,-0.4 -0.75,-0.2 -1.4,-0.3 -2.3,-0.4 -0.2,-0.05 -0.3,0.1 -0.3,0.3 0,0.15 0.1,0.35 0.3,0.35 q 1.5,0.2 2.2,0.4 z m -0.3,5 c -0.05,0.2 0.05,0.35 0.25,0.35 l 2.3,0.45 c 0.15,0.05 0.3,-0.1 0.35,-0.25 0,-0.2 -0.1,-0.4 -0.25,-0.4 -0.75,-0.2 -1.5,-0.35 -2.35,-0.45 -0.15,-0.05 -0.3,0.1 -0.3,0.3 z m -1,-0.1 c 0,-0.2 -0.1,-0.35 -0.25,-0.4 l -2.4,-0.05 c -0.15,0.05 -0.25,0.2 -0.25,0.4 0,0.15 0.1,0.25 0.2,0.3 l 2.4,0.05 c 0.15,0 0.3,-0.15 0.3,-0.3 z m 6.25,-3.3 c -0.1,0.2 -0.05,0.4 0.1,0.5 0.7,0.4 1.4,0.85 2.05,1.35 l 0.1,0.05 c 0.1,0 0.25,-0.05 0.3,-0.15 0.1,-0.15 0.05,-0.35 -0.1,-0.5 -0.65,-0.5 -1.35,-0.95 -2.05,-1.4 -0.15,-0.05 -0.35,0 -0.4,0.15 z m -1.05,3.95 c -0.15,-0.05 -0.3,0.05 -0.35,0.25 -0.05,0.2 0.05,0.35 0.2,0.4 l 2.25,0.8 0.05,0.05 c 0.15,0 0.3,-0.1 0.35,-0.25 0.05,-0.2 -0.05,-0.4 -0.2,-0.45 l -2.3,-0.8 z m -10.3,-6.5 c 0,0.2 0.1,0.3 0.25,0.35 l 2.35,0.05 c 0.15,0 0.3,-0.1 0.3,-0.3 0,-0.2 -0.1,-0.35 -0.25,-0.35 -0.9,-0.1 -1.5,-0.1 -2.2,-0.1 l -0.15,0 c -0.15,0 -0.25,0.15 -0.3,0.35 z m -3.85,0.15 0.15,-0.05 0.2,0.05 2.25,0.15 c 0.15,0.05 0.3,-0.1 0.3,-0.3 0.05,-0.2 -0.1,-0.35 -0.25,-0.35 l -2.25,-0.15 -0.2,0.05 c 0,-0.05 -0.05,-0.1 -0.15,-0.1 l -2.25,-0.2 c -0.15,0 -0.3,0.15 -0.3,0.3 0,0.2 0.1,0.35 0.2,0.35 l 0.05,0 2.25,0.25 z m 2.45,6.05 c -0.15,0.05 -0.25,0.25 -0.2,0.45 0,0.1 0.1,0.2 0.2,0.2 0.05,0.05 0.1,0.05 0.15,0 0.75,-0.25 1.5,-0.45 2.2,-0.55 0.15,-0.05 0.3,-0.2 0.25,-0.4 0,-0.2 -0.15,-0.3 -0.3,-0.3 -0.75,0.15 -1.55,0.35 -2.3,0.6 z m -3.6,2.3 0.15,-0.05 c 0.75,-0.4 1.45,-0.75 2.15,-1 0.15,-0.1 0.2,-0.3 0.15,-0.45 -0.05,-0.2 -0.2,-0.25 -0.35,-0.2 l -2.15,1.05 c -0.15,0.1 -0.25,0.3 -0.15,0.45 0,0.1 0.1,0.2 0.2,0.2 z m -4.8,-9.5 c -0.15,0 -0.3,0.15 -0.3,0.3 0,0.2 0.1,0.3 0.25,0.35 l 2.25,0.15 c 0.15,0 0.3,-0.15 0.3,-0.3 0.05,-0.2 -0.1,-0.35 -0.25,-0.4 l -2.25,-0.1 z m -3.75,0.1 c -0.15,0.05 -0.25,0.2 -0.25,0.4 0,0.15 0.1,0.25 0.2,0.25 0.05,0.05 0.05,0.05 0.1,0 0.65,-0.05 1.4,-0.1 2.2,-0.1 0.15,0 0.25,-0.15 0.3,-0.35 0,-0.2 -0.15,-0.35 -0.3,-0.35 l -2.25,0.15 z m -1.4,0.95 c 0.15,-0.05 0.25,-0.25 0.25,-0.4 -0.05,-0.2 -0.2,-0.3 -0.35,-0.25 -0.8,0.2 -1.55,0.45 -2.2,0.8 -0.1,0.05 -0.2,0.25 -0.15,0.4 0.05,0.1 0.1,0.2 0.2,0.2 l 0.15,0 c 0.65,-0.35 1.35,-0.6 2.1,-0.75 z m -6.15,4.5 c -0.2,0.55 -0.35,1.1 -0.45,1.65 l -0.1,1.05 c 0,0.2 0.1,0.3 0.2,0.35 l 0.05,0 c 0.15,0 0.3,-0.15 0.3,-0.35 0,-0.3 0,-0.65 0.1,-0.95 0.05,-0.5 0.2,-1 0.4,-1.5 0.05,-0.15 0,-0.35 -0.15,-0.4 -0.1,-0.1 -0.3,0 -0.35,0.15 z m 0.95,-1.05 0.3,-0.15 c 0.4,-0.7 0.95,-1.25 1.55,-1.75 0.15,-0.1 0.15,-0.3 0.1,-0.45 -0.1,-0.15 -0.25,-0.2 -0.4,-0.1 -0.65,0.55 -1.2,1.2 -1.7,1.9 -0.1,0.15 -0.05,0.4 0.05,0.5 l 0.1,0.05 z m 0.05,8 c 0.05,0.05 0.15,0 0.25,-0.1 0.1,-0.1 0.1,-0.35 0,-0.45 -0.5,-0.65 -0.85,-1.35 -1.05,-2.1 -0.05,-0.15 -0.2,-0.25 -0.35,-0.2 -0.15,0.1 -0.25,0.3 -0.2,0.45 0.25,0.85 0.65,1.65 1.2,2.3 l 0.15,0.1 z m 0.95,0.6 c -0.1,0.15 -0.05,0.35 0.05,0.45 0.65,0.45 1.35,0.8 2.15,1 0.15,0.05 0.3,-0.05 0.3,-0.25 0.05,-0.15 -0.05,-0.35 -0.2,-0.4 -0.7,-0.2 -1.35,-0.5 -1.9,-0.95 -0.15,-0.05 -0.3,0 -0.4,0.15 z m 12.95,-2.85 c 0.1,-0.1 0.2,-0.3 0.1,-0.45 -0.05,-0.15 -0.2,-0.25 -0.35,-0.15 l -2.05,1.25 c -0.15,0.1 -0.2,0.3 -0.15,0.45 0.05,0.1 0.1,0.2 0.2,0.2 l 0.2,-0.05 2.05,-1.25 z m -3.45,2.1 c 0.15,-0.1 0.2,-0.3 0.15,-0.45 -0.05,-0.15 -0.25,-0.25 -0.4,-0.15 l -2,1.25 c -0.15,0.05 -0.25,0.25 -0.15,0.45 0,0.1 0.1,0.15 0.2,0.15 l 0.15,0 2.05,-1.25 z m -3.3,1.55 c -0.05,-0.2 -0.2,-0.3 -0.35,-0.2 -0.65,0.25 -1.4,0.4 -2.1,0.4 -0.15,0 -0.3,0.15 -0.3,0.35 0,0.15 0.1,0.3 0.2,0.3 l 0.05,0.05 c 0.8,0 1.6,-0.15 2.35,-0.5 0.15,-0.05 0.2,-0.25 0.15,-0.4 z"
               inkscape:connector-curvature="0"
               style="fill:#ffffff" />
          </g>
          <g
             id="drawingObject14">
            <path
               id="path102"
               d="m 1.601,-11.549 c 0.25,-0.95 -0.4,-4.05 -3.25,-2.7 q -1.3,0.6 -1.5,2.4 -0.25,1.85 1.3,2.3 c 2.2,0.65 3.15,-1.1 3.45,-2 z"
               inkscape:connector-curvature="0"
               style="fill:#74502f" />
          </g>
          <g
             id="drawingObject15">
            <path
               id="path103"
               d="m 31.801,-10.849 c 0.55,-0.1 0.8,-1.05 -0.8,-2.45 q -0.8,-0.65 -1.35,-0.55 -0.6,0.1 -0.2,1 c 0.55,1.25 1.8,2.05 2.35,2 z"
               inkscape:connector-curvature="0"
               style="fill:#74502f" />
          </g>
        </g>
        <g
           id="drawingObject16">
          <path
             id="path104"
             d="m -18.299,6.151 c 0,0 -0.7,1.4 -0.5,6 0.2,4.55 1.2,7.3 1.2,7.3 l 1,-1.65 -0.05,2.4 0.05,-2.4 c 0,0 -0.5,4 1,7.15 l 1.5,3.2 c 0,0 0.3,-2.2 0.3,-3.2 l 0.2,-1.65 0.55,1.8 -0.55,-1.8 c 0,0 0.3,3 3.3,5.5 l 3,2.5 c 0,0 -0.15,-0.85 -0.15,-1.65 l 0,-0.85 1.5,1.05 -1.5,-1.05 c 0,0 2.3,2 5,2.5 l 2.65,0.5 c 0,0 0.5,-0.15 0.2,-0.65 0,0 -5.7,-7 -5.85,-7.5 -0.15,-0.5 -10.15,-10.2 -10.15,-10.2 q -0.75,-3 -1.8,-5.45 l -0.9,-1.85 z"
             inkscape:connector-curvature="0"
             style="fill:#bec6d3" />
        </g>
      </g>
    </g>
  </g>
</svg>
