<?xml version="1.0" encoding="UTF-8" standalone="no"?>
<!-- Generator: flash2svg, http://dissentgraphics.com/tools/flash2svg -->

<svg
   xmlns:dc="http://purl.org/dc/elements/1.1/"
   xmlns:cc="http://creativecommons.org/ns#"
   xmlns:rdf="http://www.w3.org/1999/02/22-rdf-syntax-ns#"
   xmlns:svg="http://www.w3.org/2000/svg"
   xmlns="http://www.w3.org/2000/svg"
   xmlns:sodipodi="http://sodipodi.sourceforge.net/DTD/sodipodi-0.dtd"
   xmlns:inkscape="http://www.inkscape.org/namespaces/inkscape"
   id="AvatarAssets"
   image-rendering="auto"
   version="1.1"
   x="0px"
   y="0px"
   width="66.978996"
   height="47.664825"
   viewBox="0 0 66.978996 47.664825"
   inkscape:version="0.48.4 r9939"
   sodipodi:docname="AvatarAssets_sideHatBear.ANI-jumpOver_fall.svg">
  <metadata
     id="metadata8768">
    <rdf:RDF>
      <cc:Work
         rdf:about="">
        <dc:format>image/svg+xml</dc:format>
        <dc:type
           rdf:resource="http://purl.org/dc/dcmitype/StillImage" />
      </cc:Work>
    </rdf:RDF>
  </metadata>
  <sodipodi:namedview
     pagecolor="#ffffff"
     bordercolor="#666666"
     borderopacity="1"
     objecttolerance="10"
     gridtolerance="10"
     guidetolerance="10"
     inkscape:pageopacity="0"
     inkscape:pageshadow="2"
     inkscape:window-width="640"
     inkscape:window-height="480"
     id="namedview8766"
     showgrid="false"
     fit-margin-top="0"
     fit-margin-left="0"
     fit-margin-right="0"
     fit-margin-bottom="0"
     inkscape:zoom="1.9032258"
     inkscape:cx="62.48"
     inkscape:cy="-38.139173"
     inkscape:window-x="0"
     inkscape:window-y="0"
     inkscape:window-maximized="0"
     inkscape:current-layer="AvatarAssets" />
  <defs
     id="defs8624">
    <linearGradient
       gradientUnits="userSpaceOnUse"
       color-interpolation="sRGB"
       x1="501.47501"
       y1="627.04999"
       x2="544.02502"
       y2="627.04999"
       id="linearGradient">
      <stop
         stop-color="#000"
         stop-opacity="0.08627450980392157"
         offset="0"
         id="stop8627" />
      <stop
         stop-color="#000"
         stop-opacity="0.08627450980392157"
         offset="1"
         id="stop8629" />
    </linearGradient>
    <radialGradient
       gradientUnits="userSpaceOnUse"
       color-interpolation="sRGB"
       r="4.1938419"
       cx="535.70001"
       cy="607.54999"
       fx="535.70001"
       fy="607.54999"
       gradientTransform="matrix(0.99409485,0.10914612,0.06489563,-0.58702087,-36.299,905.75)"
       id="radialGradient">
      <stop
         stop-color="#654316"
         stop-opacity="1"
         offset="0"
         id="stop8632" />
      <stop
         stop-color="#3C290C"
         stop-opacity="1"
         offset="1"
         id="stop8634" />
    </radialGradient>
    <radialGradient
       gradientUnits="userSpaceOnUse"
       color-interpolation="sRGB"
       r="12.365166"
       cx="499.95001"
       cy="613.54999"
       fx="499.95001"
       fy="613.54999"
       gradientTransform="matrix(-0.43743896,-0.89990234,-0.59959412,0.37237549,1086.55,835)"
       id="radialGradient1">
      <stop
         stop-color="#E1B067"
         stop-opacity="1"
         offset="0"
         id="stop8637" />
      <stop
         stop-color="#C79148"
         stop-opacity="1"
         offset="1"
         id="stop8639" />
    </radialGradient>
    <radialGradient
       gradientUnits="userSpaceOnUse"
       color-interpolation="sRGB"
       r="8.8792992"
       cx="533.90002"
       cy="609.54999"
       fx="533.90002"
       fy="609.54999"
       gradientTransform="matrix(0.71827698,-0.69735718,-0.50627136,-0.48396301,459,1276.85)"
       id="radialGradient2">
      <stop
         stop-color="#E1B067"
         stop-opacity="1"
         offset="0"
         id="stop8642" />
      <stop
         stop-color="#C79148"
         stop-opacity="1"
         offset="1"
         id="stop8644" />
    </radialGradient>
    <radialGradient
       gradientUnits="userSpaceOnUse"
       color-interpolation="sRGB"
       r="9.3850002"
       cx="370.79199"
       cy="1309.804"
       fx="370.79199"
       fy="1309.804"
       gradientTransform="matrix(0.842,-0.54,-0.4,-0.574,235.25,942.95)"
       id="radialGradient3">
      <stop
         stop-color="#E1B067"
         stop-opacity="1"
         offset="0"
         id="stop8647" />
      <stop
         stop-color="#C79148"
         stop-opacity="1"
         offset="1"
         id="stop8649" />
    </radialGradient>
    <radialGradient
       gradientUnits="userSpaceOnUse"
       color-interpolation="sRGB"
       r="13.075"
       cx="1158.8571"
       cy="802.62903"
       fx="1158.8571"
       fy="802.62903"
       gradientTransform="matrix(-0.54,-0.842,-0.551,0.44,1055.35,616.5)"
       id="radialGradient4">
      <stop
         stop-color="#E1B067"
         stop-opacity="1"
         offset="0"
         id="stop8652" />
      <stop
         stop-color="#C79148"
         stop-opacity="1"
         offset="1"
         id="stop8654" />
    </radialGradient>
    <linearGradient
       gradientUnits="userSpaceOnUse"
       color-interpolation="sRGB"
       x1="-10.733"
       y1="7.5770001"
       x2="34.303001"
       y2="7.5770001"
       id="linearGradient1">
      <stop
         stop-color="#000"
         stop-opacity="0.08627450980392157"
         offset="0"
         id="stop8657" />
      <stop
         stop-color="#000"
         stop-opacity="0.08627450980392157"
         offset="1"
         id="stop8659" />
    </linearGradient>
    <radialGradient
       gradientUnits="userSpaceOnUse"
       color-interpolation="sRGB"
       r="4.4390001"
       cx="-12.772"
       cy="945.67798"
       fx="-12.772"
       fy="945.67798"
       gradientTransform="matrix(0.994,0.109,0.065,-0.587,-23.099,543.5)"
       id="radialGradient5">
      <stop
         stop-color="#654316"
         stop-opacity="1"
         offset="0"
         id="stop8662" />
      <stop
         stop-color="#3C290C"
         stop-opacity="1"
         offset="1"
         id="stop8664" />
    </radialGradient>
  </defs>
  <g
     id="sideHatBear1"
     overflow="visible"
     style="overflow:visible"
     transform="translate(30.48,23.804)">
    <g
       id="sideHatBear_3_204">
      <g
         id="element2">
        <g
           id="drawingObject33">
          <path
             id="path33"
             d="m 30.862,-20.62 -0.859,-0.281 -0.722,-0.954 0.101,0.828 c -2.576,-0.576 -5.394,0.039 -7.211,2.094 l -1.391,1.28 0.445,0.198 c -0.552,1.127 -0.887,2.513 -0.891,4.127 0.082,8.363 11.815,7.076 11.815,7.076 4.222,-3.022 4.7,-7.771 2.143,-11.628 q -0.413,-0.621 -1.084,-1.296 l -1.114,-1.679 0.226,1.015 -0.631,-0.343 -1.001,-1.172 -0.641,-0.561 0.815,1.296 z"
             inkscape:connector-curvature="0"
             style="fill:#7c521b" />
        </g>
        <g
           id="drawingObject34">
          <path
             id="path34"
             d="m 33.955,-11.702 -0.727,0.93 c -0.676,0.94 -1.37,1.177 -1.37,1.177 l 0.509,-0.651 c 0,0 -0.197,0.175 -1.357,0.318 -1.16,0.142 -3.242,-3.403 -3.675,-4.19 -0.433,-0.788 -0.066,-2.329 -0.066,-2.329 l -0.127,0.889 0.127,-0.889 1.005,-0.443 -2.547,0.077 c 0,0 -0.049,-1.087 0.666,-1.427 0.664,-0.35 2.89,-0.438 2.89,-0.438 l -0.755,-0.261 c -0.807,-0.271 -3.23,-0.007 -3.23,-0.007 l 1.315,-0.111 -1.315,0.111 0.332,-0.31 1.617,-0.803 -0.818,0.049 -1.751,0.4 1.359,-0.856 c 1.399,-0.793 3.19,-0.593 3.138,-0.603 -2.545,-0.461 -5.26,0.174 -7.004,2.136 l -1.391,1.28 0.445,0.198 c -0.552,1.127 -0.887,2.513 -0.891,4.127 0.082,8.363 11.815,7.076 11.815,7.076 q 2.272,-1.64 3.179,-3.987 l -0.893,0.95 0.218,-0.279 0.45,-1.686 -0.417,0.993 c -0.333,0.579 -1.784,1.362 -1.784,1.362 l 0.54,-0.537 c 0.602,-0.578 0.738,-1.251 0.738,-1.251 l -0.136,0.404 0.136,-0.404 -0.384,0.299 c -0.425,0.238 -0.944,0.671 -0.944,0.671 l 0.364,-0.465 c 0.415,-0.454 0.739,-1.52 0.739,-1.52 z"
             inkscape:connector-curvature="0"
             style="fill:#724715" />
        </g>
        <g
           id="drawingObject35">
          <path
             id="path35"
             d="m 24.648,-19.993 c 0.54,-0.537 1.1,-0.908 1.577,-1.135 -1.564,0.276 -2.995,0.956 -4.054,2.195 l -1.391,1.28 0.445,0.198 c -0.552,1.127 -0.887,2.513 -0.891,4.127 0.082,8.363 11.815,7.076 11.815,7.076 1.017,-0.763 1.837,-1.62 2.45,-2.519 q -0.695,0.505 -1.264,0.659 l 0.581,-0.743 -0.653,0.298 c -0.705,0.288 -1.108,0.153 -1.108,0.153 l 0.489,-0.817 c 0,0 -0.301,0.155 -1.233,0.235 -0.942,0.133 -2.862,-2.356 -3.821,-3.735 -1.011,-1.389 -1.985,-1.101 -2.747,-2.656 -0.71,-1.543 0.452,-2.493 0.452,-2.493 l -0.509,0.651 0.509,-0.651 -1.514,0.824 0.137,-0.941 c 0.178,-0.879 0.821,-1.126 0.821,-1.126 l -0.322,0.258 0.322,-0.258 -1.119,0.204 1.028,-1.084 z"
             inkscape:connector-curvature="0"
             style="fill:#653f12" />
        </g>
        <g
           id="group9">
          <g
             id="drawingObject36">
            <path
               id="path36"
               d="m 21.225,-17.455 c -0.552,1.127 -0.887,2.513 -0.891,4.127 0.036,2.215 0.86,3.728 2.089,4.838 0.796,0.323 1.727,0.781 2.564,1.435 l 0.145,0.083 c 3.02,1.042 6.417,0.76 6.966,0.71 l 0.311,-0.206 q 0.27,-0.269 0.426,-0.775 l 0.105,-0.518 c 0,0 -0.591,0.258 -1.521,-0.469 -0.878,-0.716 -3.706,-4.035 -4.346,-4.864 -0.639,-0.83 -2.017,-0.409 -2.554,-0.948 -0.537,-0.54 -0.493,-1.823 -0.493,-1.823 l 0.071,0.714 -0.071,-0.714 -0.446,0.61 c -0.447,0.609 -0.304,1.23 -0.304,1.23 0,0 -0.196,-0.093 -0.503,-1.502 -0.277,-1.025 0.066,-1.655 0.284,-1.934 l -0.768,0.867 0.512,-1.727 c 0.303,-0.962 0.822,-1.664 1.455,-2.128 -0.767,0.329 -1.462,0.834 -2.085,1.516 l -1.391,1.28 0.445,0.198 z"
               inkscape:connector-curvature="0"
               style="fill:#583810" />
          </g>
        </g>
        <g
           id="drawingObject37">
          <path
             id="path37"
             d="m 33.321,-18.668 -0.279,-0.218 0.298,0.652 c 0,0 -0.918,-1.047 -1.931,-1.629 l -1.014,-0.582 1.653,1.411 c 0,0 -1.695,-0.935 -2.368,-1.071 l -0.724,-0.147 1.685,0.718 -1.685,-0.718 c 0,0 3.093,0.949 4.278,3.074 1.422,2.549 1.44,3.791 1.45,3.739 l -0.007,-1.293 0.306,1.946 0.018,0.973 0.151,-2.339 -0.061,-0.497 0.235,1.233 c 0.012,-0.59 -0.09,-1.418 -0.366,-2.444 q -0.174,-0.735 -0.783,-1.72 -0.536,-0.808 -0.856,-1.088 z"
             inkscape:connector-curvature="0"
             style="fill:#86591d" />
        </g>
        <g
           id="drawingObject38">
          <path
             id="path38"
             d="m 23.166,-11.355 c -0.035,1.501 5.891,3.885 5.891,3.885 q 2.226,-0.088 3.443,-2.103 1.185,-1.86 0.537,-3.714 c -0.822,-2.321 -3.932,-4.512 -6.731,-3.194 -2.571,1.257 -3.105,3.626 -3.14,5.126 z"
             inkscape:connector-curvature="0"
             style="fill:#ebc684" />
        </g>
        <g
           id="drawingObject39">
          <path
             id="path39"
             d="m 23.145,-11.251 c -0.025,1.449 5.746,3.801 5.746,3.801 q 2.164,-0.046 3.37,-2.01 1.134,-1.87 0.476,-3.673 c -0.792,-2.206 -3.809,-4.325 -6.546,-3.048 -2.446,1.174 -3.022,3.481 -3.046,4.93 z"
             inkscape:connector-curvature="0"
             style="fill:url(#radialGradient3)" />
        </g>
      </g>
      <animate
         attributeName="display"
         begin="0s"
         repeatCount="1"
         dur="0.458s"
         keyTimes="0;0.091;1"
         values="inline;none;none"
         id="animate8684" />
    </g>
    <g
       id="sideHatBear_2_204">
      <g
         id="element1">
        <g
           id="drawingObject26">
          <path
             id="path26"
             d="m -29.26,-12.618 c -0.672,3.751 0.227,7.742 3.069,10.171 l 0.006,0.053 c 0.748,0.922 1.718,1.925 1.718,1.925 0,0 0.016,-0.322 0.293,-0.674 1.523,0.724 3.375,1.09 5.65,0.98 11.356,-0.709 9.259,-17.488 9.259,-17.488 l 0.154,2.643 -0.154,-2.643 c -4.204,-5.833 -10.625,-6.135 -15.801,-2.222 q -0.737,0.513 -1.721,1.64 l -2.298,1.71 1.392,-0.378 -0.484,0.855 c -0.573,0.547 -1.193,1.153 -1.517,1.564 l -0.786,0.998 c 0,0 0.956,-0.912 1.81,-1.333 l -0.381,1.27 -1.299,1.165 1.09,-0.236 z"
             inkscape:connector-curvature="0"
             style="fill:#7c521b" />
        </g>
        <g
           id="drawingObject27">
          <path
             id="path27"
             d="m -29.328,-12.291 c -0.527,3.628 0.412,7.507 3.137,9.844 l 0.006,0.053 c 0.748,0.922 1.718,1.925 1.718,1.925 0,0 0.016,-0.322 0.293,-0.674 1.523,0.724 3.375,1.09 5.65,0.98 11.356,-0.709 9.259,-17.488 9.259,-17.488 l 0.154,2.643 -0.154,-2.643 q -2.346,-3.18 -5.511,-4.294 c 0.704,0.554 1.316,1.227 1.316,1.227 l -0.404,-0.271 c -0.405,-0.272 -2.245,-0.532 -2.245,-0.532 l 0.976,0.15 -0.976,-0.15 1.34,0.532 c 0.791,0.386 1.892,2.49 1.892,2.49 l -0.782,-0.759 c -0.735,-0.817 -1.659,-0.974 -1.659,-0.974 l 0.556,0.2 -0.556,-0.2 1.339,1.864 -0.6,-0.568 c -0.645,-0.509 -2.078,-0.924 -2.078,-0.924 l 0.778,0.28 -0.778,-0.28 1.285,0.965 c 1.285,0.965 1.561,1.943 1.561,1.943 l -0.88,-0.693 0.148,0.354 -0.148,-0.354 c 0,0 0.241,0.237 0.492,1.91 0.246,1.62 -4.585,4.854 -5.619,5.562 -1.039,0.655 -3.167,0.216 -3.167,0.216 l -0.594,-1.42 -0.048,1.39 c 0.005,1.383 0.221,2.315 0.221,2.315 0,0 -1.469,0.174 -1.961,-0.832 -0.485,-0.953 -0.655,-4.179 -0.655,-4.179 l 0.153,1.738 -0.153,-1.738 -0.394,1.164 c -0.341,1.158 0.069,4.621 0.069,4.621 l -0.37,-0.435 -1.12,-2.261 0.084,1.16 c 0.085,1.161 0.555,2.435 0.555,2.435 l -1.181,-1.882 c -1.128,-1.888 -0.856,-4.527 -0.856,-4.527 l 0.023,1.54 -0.023,-1.54 -0.093,0.117 z"
             inkscape:connector-curvature="0"
             style="fill:#724715" />
        </g>
        <g
           id="drawingObject28">
          <path
             id="path28"
             d="m -9.265,-17.651 c -1.02,-1.422 -2.212,-2.504 -3.426,-3.318 q 0.643,0.935 0.906,1.808 l -1.057,-0.832 0.381,0.966 c 0.427,0.907 0.292,1.561 0.292,1.561 l -1.091,-0.669 0.317,1.772 c 0.156,1.312 -3.114,4.254 -5.011,5.756 -1.838,1.548 -1.414,2.881 -3.506,4.087 -2.098,1.154 -3.399,-0.395 -3.399,-0.395 l 0.927,0.635 -0.927,-0.635 1.2,2.04 -1.29,-0.113 c -1.245,-0.172 -1.52,-1.15 -1.52,-1.15 l 0.272,0.5 -0.272,-0.5 0.251,1.673 -1.504,-1.471 c -0.723,-0.713 -1.243,-1.503 -1.527,-2.107 0.36,2.139 1.396,4.144 3.058,5.596 l 0.006,0.053 c 0.748,0.922 1.718,1.925 1.718,1.925 0,0 0.016,-0.322 0.293,-0.674 1.523,0.724 3.375,1.09 5.65,0.98 11.356,-0.709 9.259,-17.488 9.259,-17.488 z"
             inkscape:connector-curvature="0"
             style="fill:#653f12" />
        </g>
        <g
           id="group7">
          <g
             id="drawingObject29">
            <path
               id="path29"
               d="m -9.246,-17.493 -0.142,-0.303 -0.183,-0.191 c -0.547,-0.574 -1.732,-0.699 -1.732,-0.699 l 0.655,0.135 -0.655,-0.135 0.022,0.636 -0.022,-0.636 c 0,0 0.316,0.867 -0.637,2.257 -0.959,1.338 -5.35,5.584 -6.458,6.566 -1.107,0.983 -0.509,2.881 -1.209,3.709 -0.753,0.834 -2.45,0.876 -2.45,0.876 l 0.815,0.595 c 0.81,0.542 1.689,0.332 1.689,0.332 0,0 -0.126,0.281 -2.024,0.878 -1.438,0.437 -2.294,-0.047 -2.646,-0.324 l 1.187,1.029 -2.304,-0.578 c -1.374,-0.369 -2.313,-1.109 -2.996,-1.932 0.504,1.111 1.2,2.039 2.145,2.831 l 0.006,0.053 c 0.748,0.922 1.718,1.925 1.718,1.925 0,0 0.016,-0.322 0.293,-0.674 1.523,0.724 3.375,1.09 5.65,0.98 3.01,-0.198 5.036,-1.503 6.47,-3.322 0.44,-1.223 1.032,-2.517 1.886,-3.842 l 0.086,-0.17 c 1.345,-4.363 0.923,-9.262 0.836,-9.996 z"
               inkscape:connector-curvature="0"
               style="fill:#583810" />
          </g>
        </g>
        <g
           id="drawingObject30">
          <path
             id="path30"
             d="m -18.202,-21.22 1.365,-0.162 c 0,0 -2.563,-0.068 -3.245,0.013 l -0.682,0.081 1.713,-0.363 0.42,-0.05 c 0,0 -1.285,-0.06 -3.701,0.652 q -1.024,0.334 -2.348,1.289 -1.126,0.826 -1.443,1.289 l -0.318,0.463 0.901,-0.479 -0.805,0.841 0.805,-0.841 c 0,0 -1.385,1.335 -2.161,2.864 l -0.724,1.522 1.785,-2.446 -0.585,1.346 0.585,-1.346 c 0,0 -1.149,2.424 -1.352,3.406 l -0.196,1.034 c 0,0 1.279,-4.462 4.096,-6.286 3.409,-2.213 5.094,-2.36 5.094,-2.36 l -1.796,0.107 0.774,-0.199 -0.774,0.199 c 0,0 1.228,-0.412 2.592,-0.574 z"
             inkscape:connector-curvature="0"
             style="fill:#86591d" />
        </g>
        <g
           id="drawingObject31">
          <path
             id="path31"
             d="m -12.618,-8.686 1.771,-4.361 q -0.163,-3.173 -2.912,-4.815 -2.58,-1.557 -5.064,-0.517 c -3.141,1.33 -5.995,5.979 -4.151,9.857 1.754,3.57 4.974,4.252 7.039,4.167 2.019,-0.027 5.088,-8.692 5.088,-8.692"
             inkscape:connector-curvature="0"
             style="fill:#ebc684" />
        </g>
        <g
           id="drawingObject32">
          <path
             id="path32"
             d="m -12.553,-8.587 1.731,-4.25 q -0.157,-3.12 -2.848,-4.717 -2.52,-1.51 -4.899,-0.483 c -3.036,1.318 -5.798,5.849 -3.967,9.623 1.637,3.477 4.798,4.113 6.758,4.04 1.967,-0.02 4.956,-8.463 4.956,-8.463"
             inkscape:connector-curvature="0"
             style="fill:url(#radialGradient4)" />
        </g>
      </g>
      <animate
         attributeName="display"
         begin="0s"
         repeatCount="1"
         dur="0.458s"
         keyTimes="0;0.091;1"
         values="inline;none;none"
         id="animate8703" />
    </g>
    <g
       id="sideHatBear_1_204">
      <g
         id="element">
        <g
           id="group1">
          <g
             id="drawingObject">
            <path
               id="path"
               d="m 34.329,-0.519 c 0,0 -5.556,-6.986 -14.182,-7.621 -8.626,-0.635 -17.411,-1.323 -21.804,2.223 -4.445,3.545 -8.784,10.319 -9.049,13.441 q -0.212,2.647 1.376,8.574 1.376,4.868 2.17,6.509 c 0.635,1.429 1.481,1.164 1.481,1.164 0,0 1.641,0.476 2.117,-2.487 0.476,-2.911 1.905,-14.5 7.144,-18.205 5.24,-3.651 8.838,-5.821 21.063,-5.715 7.356,0.053 9.684,2.117 9.684,2.117 z"
               inkscape:connector-curvature="0"
               style="fill:url(#linearGradient1)" />
          </g>
          <g
             id="drawingObject1">
            <path
               id="path1"
               d="m 32.318,-14.702 c -0.476,-0.053 -1.481,-0.635 -1.958,-0.953 -1.482,-1.429 -3.228,-2.752 -5.398,-3.916 -5.98,-3.228 -14.923,-4.498 -23.126,-2.858 0.159,-0.688 1.641,-1.164 1.641,-1.164 l -0.741,0.318 0.741,-0.318 -1.006,0.212 c -1.005,0.159 -2.223,1.164 -2.223,1.164 l 0.106,-0.37 0.212,-1.217 -0.265,0.476 c -0.211,0.476 -0.952,1.27 -0.952,1.27 l -0.318,-0.582 -0.053,0.37 c -0.053,0.159 -0.264,0.476 -0.476,0.688 -3.651,1.164 -7.038,2.911 -9.79,5.451 -6.827,6.192 -8.256,13.177 -7.991,19.21 -0.053,1.747 -0.159,3.916 -0.106,4.763 l 0.159,1.535 0.476,-1.006 0.265,1.8 -0.265,-1.8 c 0,0 0.318,3.07 1.323,5.345 1.058,2.276 1.376,2.435 1.376,2.435 l 0.053,-0.847 c 1.005,1.587 2.117,2.963 3.334,4.233 l 0.317,0.583 0.688,1.005 0.159,-0.37 0.106,0.211 -0.106,-0.211 c 0,0 0.053,0.37 0.688,0.74 l 0.318,0.212 0.793,0.688 c 4.552,4.022 5.134,-0.9 5.663,-7.515 0.37,-5.556 3.651,-10.69 8.256,-14.182 4.551,-3.44 11.06,-5.081 19.316,-4.922 5.609,0.159 8.202,2.011 10.054,3.493 1.376,1.058 1.482,5.398 1.482,5.398 0,0 1.164,-1.852 1.376,-4.34 0.159,-2.169 -0.053,-4.868 -0.952,-7.673 l -0.212,-1.112 c -0.529,-2.328 -1.323,-3.228 -1.323,-3.228 l 0.476,0.741 -0.476,-0.741 1.058,0.635 -2.857,-3.387 0.74,-0.211 -0.582,-0.053 z"
               inkscape:connector-curvature="0"
               style="fill:#7c521b" />
          </g>
          <g
             id="drawingObject2">
            <path
               id="path2"
               d="m 24.327,-12.056 c -1.534,-0.847 -5.98,-2.011 -7.938,-1.059 -2.011,0.9 -2.963,2.011 -2.963,2.011 l 1.058,0 -0.476,0.265 -1.905,1.323 0.846,-0.317 c 0.794,-0.371 1.958,0 1.958,0 l -0.74,0.211 c -0.741,0.265 -2.964,1.8 -2.964,1.8 l 0.847,-0.371 c 0.794,-0.423 2.857,-0.529 2.857,-0.529 l -0.423,0.317 c -0.423,0.371 -1.64,1.165 -1.64,1.165 l 0.74,-0.424 c 0.741,-0.37 2.223,-0.158 2.223,-0.158 l -0.317,1.164 c -0.371,0.794 -2.382,1.376 -6.192,2.381 -3.757,1.006 -6.456,3.281 -6.456,3.281 L 3.477,-1.842 C 4.165,-2.636 6.599,-4.383 6.599,-4.383 L 5.276,-3.43 6.599,-4.383 c 0,0 -0.476,0 -3.281,1.747 -2.752,1.693 -5.663,4.339 -5.663,4.339 l 0.106,-0.635 c 0.053,-0.688 0.9,-2.54 0.9,-2.54 l -0.423,1.005 0.423,-1.005 -0.423,0.529 -1.906,2.805 c 0,0 0.53,-2.223 1.112,-3.281 0.529,-1.059 1.693,-2.064 1.693,-2.064 l -0.635,0.635 0.635,-0.635 -3.122,1.746 0.847,-1.481 c 0.793,-1.482 3.016,-2.699 3.016,-2.699 l -1.217,0.793 1.217,-0.793 -1.64,0.793 c -1.641,0.847 -3.123,1.747 -3.123,1.747 l 2.382,-2.805 -4.816,3.704 0,-0.582 c 0,-0.582 1.217,-2.857 1.217,-2.857 l -0.582,1.217 0.582,-1.217 -1.005,0.635 c -0.953,0.688 -1.641,1.587 -1.641,1.587 l 0.106,-1.058 c 0.053,-1.111 0.899,-2.487 0.899,-2.487 l -0.423,0.846 0.423,-0.846 -0.635,0.476 c -0.688,0.529 -1.587,1.588 -1.587,1.588 l 0.476,-1.323 c 0.529,-1.323 2.911,-3.758 2.911,-3.758 l -1.27,1.376 1.27,-1.376 -1.747,1.059 c -1.693,1.058 -3.016,2.804 -3.016,2.804 l 0,-1.005 c 0,-1.006 0.794,-2.434 0.794,-2.434 l -0.371,0.846 0.371,-0.846 -1.112,1.64 0.371,-1.64 c 0.423,-1.694 2.064,-3.229 2.064,-3.229 l -0.847,1.006 0.847,-1.006 -0.741,0.424 -2.117,1.693 1.641,-2.434 c 1.64,-2.487 4.022,-4.022 4.022,-4.022 l -1.376,1.058 1.376,-1.058 -1.959,0.635 1.112,-1.482 c 0.529,-0.635 1.164,-1.217 1.852,-1.799 -2.17,1.058 -4.128,2.328 -5.874,3.916 -6.827,6.192 -8.256,13.177 -7.991,19.21 -0.053,1.747 -0.159,3.916 -0.106,4.763 l 0.159,1.535 0.476,-1.006 0.265,1.8 -0.265,-1.8 c 0,0 0.318,3.07 1.323,5.345 1.058,2.276 1.376,2.435 1.376,2.435 l 0.053,-0.847 c 1.005,1.587 2.117,2.963 3.334,4.233 l 0.317,0.583 0.688,1.005 0.159,-0.37 0.106,0.211 -0.106,-0.211 c 0,0 0.053,0.37 0.688,0.74 l 0.318,0.212 0.793,0.688 c 4.552,4.022 5.134,-0.9 5.663,-7.515 0.37,-5.556 3.651,-10.69 8.256,-14.182 4.551,-3.44 11.06,-5.081 19.316,-4.922 5.609,0.159 8.202,2.011 10.054,3.493 1.376,1.058 1.482,5.398 1.482,5.398 0,0 1.164,-1.852 1.376,-4.34 l 0.053,-2.064 q -0.741,0.477 -1.323,-0.582 c -0.582,-0.952 -2.911,-2.434 -2.911,-2.434 l 1.218,0.847 -1.218,-0.847 1.747,0.529 c 0,0 -0.424,-0.212 -1.217,-0.9 -0.847,-0.635 -1.641,-0.899 -1.641,-0.899 l 0.529,0.211 -0.529,-0.211 1.27,0.37 -0.899,-1.005 c -0.318,-0.424 -0.9,-1.482 -1.059,-2.54 -0.159,-1.059 -4.551,-2.064 -6.139,-2.858 z"
               inkscape:connector-curvature="0"
               style="fill:#724715" />
          </g>
          <g
             id="drawingObject3">
            <path
               id="path3"
               d="m 17.977,-7.77 -0.476,-0.688 c 0,0 0.899,1.165 1.27,2.117 0.317,1.006 0.053,1.006 -4.446,1.588 -4.498,0.529 -11.589,4.392 -14.923,7.515 -3.387,3.122 -4.446,6.562 -4.446,6.562 0,0 0.424,-1.535 0.583,-2.593 0.158,-1.112 1.164,-2.382 1.164,-2.382 l -0.529,0.794 0.529,-0.794 -1.747,1.694 0,-1.217 c 0,-1.059 0.635,-2.117 0.794,-2.382 L -5.308,3.45 c -0.9,0.74 -1.641,2.116 -1.641,2.116 l 0,-0.582 c 0,-0.582 0.53,-2.064 0.53,-2.064 L -6.684,3.714 -6.419,2.92 -6.684,3.45 C -6.949,3.926 -7.848,5.143 -7.848,5.143 L -8.06,4.349 c -0.159,-0.529 0,-1.058 0.159,-1.323 l -1.165,1.905 0,-1.164 c 0,-1.164 1.218,-3.546 1.218,-3.546 L -8.43,1.544 -7.848,0.221 -8.907,1.068 c -1.058,0.794 -2.381,3.017 -2.381,3.017 l 0,-0.318 0.159,-2.117 -2.117,2.54 -0.318,-1.164 c -0.317,-1.164 0.318,-4.604 0.318,-4.604 l -0.265,1.852 0.265,-1.852 -0.424,0.582 c -0.37,0.582 -1.111,2.964 -1.111,2.964 l -0.159,-2.329 c -0.158,-2.275 0.9,-4.18 0.9,-4.18 l -0.529,1.217 0.529,-1.217 -0.423,0.582 c -0.424,0.582 -1.218,2.699 -1.218,2.699 l 1.112,-6.721 -0.582,0.899 c -0.53,0.9 -1.218,4.763 -1.218,4.763 l 0.106,-4.075 c 0.053,-2.116 0.9,-4.498 1.905,-6.456 -4.18,5.292 -5.133,10.955 -4.921,15.929 -0.053,1.747 -0.159,3.916 -0.106,4.763 l 0.159,1.535 0.476,-1.006 0.265,1.8 -0.265,-1.8 c 0,0 0.318,3.07 1.323,5.345 1.058,2.276 1.376,2.435 1.376,2.435 l 0.053,-0.847 c 1.005,1.587 2.117,2.963 3.334,4.233 l 0.317,0.583 0.688,1.005 0.159,-0.37 0.106,0.211 -0.106,-0.211 c 0,0 0.053,0.37 0.688,0.74 l 0.318,0.212 0.793,0.688 c 4.552,4.022 5.134,-0.9 5.663,-7.515 0.37,-5.556 3.651,-10.69 8.256,-14.182 4.551,-3.44 11.06,-5.081 19.316,-4.922 5.609,0.159 8.202,2.011 10.054,3.493 1.376,1.058 1.482,5.398 1.482,5.398 0,0 0.212,-0.318 0.424,-0.9 q 0.158,-1.323 0,-2.54 C 35.335,-0.096 34.012,-1.895 32.689,-3.324 31.366,-4.7 29.884,-5.282 29.884,-5.282 l 0.9,0.476 -0.9,-0.476 1.005,0.106 c 0,0 -1.058,-1.165 -2.434,-1.641 -1.429,-0.476 -10.954,-1.641 -10.954,-1.641 l 4.921,0.636"
               inkscape:connector-curvature="0"
               style="fill:#653f12" />
          </g>
          <g
             id="drawingObject4">
            <path
               id="path4"
               d="m 23.534,-4.224 c 4.392,0.106 6.932,1.27 8.678,2.434 Q 30.784,-3.642 29.249,-4.224 C 27.45,-4.859 28.243,-6.023 28.243,-6.023 l -0.158,0.688 0.158,-0.688 c 0,0 -1.27,-0.953 -1.799,-1.059 l -5.715,-0.423 1.27,1.217 -1.27,-1.217 c 0,0 3.757,2.329 -1.217,2.752 -5.028,0.37 -12.648,2.54 -17.835,6.721 -5.133,4.181 -6.985,11.801 -6.985,11.801 l 0.212,-2.117 -0.371,0.794 c -0.317,0.847 -0.9,3.546 -0.9,3.546 0,0 -0.476,-0.741 -0.793,-1.958 -0.318,-1.27 -0.159,-3.123 -0.159,-3.123 l -0.053,1.112 0.053,-1.112 -0.424,0.953 c -0.423,1.005 -0.476,2.699 -0.476,2.699 0,0 -0.264,-0.371 -0.582,-1.958 -0.317,-1.535 0.582,-5.239 0.582,-5.239 l -0.423,2.064 0.423,-2.064 -1.27,3.122 c -0.476,1.482 -0.476,3.334 -0.476,3.334 l -0.424,-0.635 -0.74,-1.905 -0.053,0.37 c -0.106,0.318 0.423,3.599 0.423,3.599 l -0.741,-0.9 c -0.741,-0.899 -1.27,-4.286 -1.27,-4.286 l 0.37,1.799 -0.37,-1.799 0.529,4.286 -1.746,-2.646 c -1.694,-2.593 -2.276,-6.456 -2.276,-6.456 l 0.529,2.275 -0.529,-2.275 0.053,4.763 -1.27,-3.387 c -0.952,-2.382 -1.482,-5.874 -1.588,-8.415 -0.211,1.641 -0.264,3.282 -0.211,4.869 -0.053,1.747 -0.159,3.916 -0.106,4.763 l 0.159,1.535 0.476,-1.006 0.265,1.8 -0.265,-1.8 c 0,0 0.318,3.07 1.323,5.345 1.058,2.276 1.376,2.435 1.376,2.435 l 0.053,-0.847 c 1.005,1.587 2.117,2.963 3.334,4.233 l 0.317,0.583 0.688,1.005 0.159,-0.37 0.106,0.211 -0.106,-0.211 c 0,0 0.053,0.37 0.688,0.74 l 0.318,0.212 0.793,0.688 c 4.552,4.022 5.134,-0.9 5.663,-7.515 0.37,-5.556 3.651,-10.69 8.256,-14.182 4.551,-3.44 11.06,-5.081 19.316,-4.922 z"
               inkscape:connector-curvature="0"
               style="fill:#583810" />
          </g>
          <g
             id="drawingObject5">
            <path
               id="path5"
               d="m -5.89,21.231 -0.371,0.952 -0.317,-1.217 -0.053,0.582 0.053,-0.582 c 0,0 0.106,1.059 -0.582,1.641 -0.424,0.37 -1.059,0.476 -1.694,0.476 3.758,2.699 4.34,-2.011 4.816,-8.203 q 0.212,-3.122 1.588,-6.085 c -0.688,1.005 -1.694,2.54 -2.011,4.339 -0.583,2.964 -1.059,7.091 -1.429,8.097 z"
               inkscape:connector-curvature="0"
               style="fill:#653f12" />
          </g>
          <g
             id="drawingObject6">
            <path
               id="path6"
               d="m 20.464,-18.618 -0.952,0 c 0,0 1.375,-0.159 3.492,0.37 l 2.17,0.582 c 0,0 -0.847,-1.058 -3.228,-1.64 l -2.805,-0.635 1.429,0.053 -1.429,-0.053 c 0,0 2.54,0 3.652,0.423 l 1.058,0.371 c 0,0 -3.281,-1.8 -5.61,-2.276 l -3.863,-0.741 c 0,0 -2.699,-0.476 -4.551,-0.423 q -3.704,-0.371 -6.562,0.582 L 0.354,-21 1.413,-21.211 0.354,-21 c 0,0 1.747,-0.423 3.123,-0.423 l 1.428,0 c 0,0 -3.81,0.317 -4.762,1.058 l -1.006,0.741 2.54,-0.529 -2.54,0.529 c 0,0 4.445,-1.058 7.039,-1.058 l 2.646,0 c 0,0 -2.858,0.476 -3.864,0.899 l -0.952,0.424 3.334,-0.159 c 0,0 -2.805,1.058 -3.281,1.482 l -0.477,0.37 1.112,-0.317 -1.112,0.317 c 0,0 1.641,-0.794 3.917,-0.37 2.328,0.37 2.963,0.635 4.339,0.212 1.429,-0.424 2.382,-0.636 3.705,-0.636 l 1.64,0 -2.963,1.059 1.428,-0.265 -1.428,0.265 c 0,0 2.328,-0.582 4.286,-0.476 l 2.805,0.053 -1.799,-0.794"
               inkscape:connector-curvature="0"
               style="fill:#86591d" />
          </g>
          <g
             id="drawingObject7">
            <path
               id="path7"
               d="m 18.453,-19.2 1.217,0 -1.534,-0.794 c -1.376,-0.794 -2.752,-1.323 -3.546,-1.747 -0.794,-0.423 -3.387,-1.27 -6.298,-1.164 l 1.588,0.265 q 1.905,0.423 3.599,1.27 c 2.751,1.376 3.387,1.958 3.387,1.958 l -0.477,0 0.529,0.423 -0.529,-0.423 c 0,0 1.006,0.688 1.217,1.27 l 0.159,0.529 1.323,0.053 c 0,0 0.053,-0.635 -0.264,-1.111 L 18.453,-19.2 z"
               inkscape:connector-curvature="0"
               style="fill:#7c521b" />
          </g>
        </g>
        <g
           id="group2">
          <g
             id="drawingObject8">
            <path
               id="path8"
               d="m 0.301,-10.098 1.006,-2.329 c 0,0 -1.27,0.265 -2.752,0.265 q -0.9,0 -1.429,-0.423 l -0.37,-0.477 c 0,0 -0.477,0 -0.635,0.318 l -0.424,0.741 0.741,-0.159 -0.264,0.159 -1.376,1.587 0.423,-0.37 1.641,-0.741 -0.583,0.529 c -0.582,0.477 -0.899,1.482 -0.899,1.482 l 0.423,-0.423 c 0.371,-0.424 1.694,-0.847 1.694,-0.847 l -0.953,0.741 c -1.005,0.741 -1.905,2.487 -1.905,2.487 l 1.905,-1.217 c 0.794,-0.582 1.958,-0.9 1.958,-0.9 l -0.582,0.53 c -0.265,0.423 -1.217,1.481 -1.217,1.481 l 0.582,-0.529 c 0.529,-0.582 3.016,-1.588 3.016,-1.905 z"
               inkscape:connector-curvature="0"
               style="fill:#724715" />
          </g>
          <g
             id="drawingObject9">
            <path
               id="path9"
               d="m 1.677,-8.14 c 0,0 1.641,0.318 2.541,-0.053 0.899,-0.423 1.27,-1.323 2.54,-1.905 l 1.64,-0.688 -1.482,0.106 c 0,0 0.583,-0.318 0.212,-0.424 l -1.27,-0.317 c -0.37,-0.106 -0.582,0.582 -0.582,0.582 Q 4.482,-8.934 3.424,-8.563 C 2.365,-8.14 1.677,-8.14 1.677,-8.14 z"
               inkscape:connector-curvature="0"
               style="fill:#724715" />
          </g>
          <g
             id="drawingObject10">
            <path
               id="path10"
               d="m 32.371,-9.251 -0.423,0 1.27,0.635 c 0.635,0.423 0.794,0.688 0.794,0.688 l 0,-0.027 -0.159,-0.238 0,-0.423 0.423,0.264 -0.423,-0.264 c 0,0 0.794,0.476 0.953,0.846 l 0.211,0.371 -0.476,-1.482 c 0,0 -0.529,0 -0.688,-0.159 l -0.582,-0.582 q -0.476,0.371 -0.9,0.371 z"
               inkscape:connector-curvature="0"
               style="fill:#724715" />
          </g>
          <g
             id="drawingObject11">
            <path
               id="path11"
               d="m 30.731,-12.268 0.37,0.953 0.106,0.37 0.476,-0.317 c 0.212,-0.212 0.106,-0.424 0.106,-0.424 l 0.053,0.159 -0.053,-0.159 -1.058,-0.582 z"
               inkscape:connector-curvature="0"
               style="fill:#724715" />
          </g>
        </g>
        <g
           id="group3">
          <g
             id="drawingObject12">
            <path
               id="path12"
               d="m 33.006,-12.427 c -0.476,-0.582 -2.064,-2.011 -2.593,-1.905 q -0.635,0.053 -0.476,0.582 0.212,0.53 1.058,1.165 c 1.165,0.899 2.646,2.222 2.964,2.91 0.317,0.688 0.635,0.741 0.635,-0.053 0,-0.793 -1.164,-2.169 -1.588,-2.699 z"
               inkscape:connector-curvature="0"
               style="fill:#dca556" />
          </g>
          <g
             id="drawingObject13">
            <path
               id="path13"
               d="m 34.541,-9.939 c -0.159,0.158 -0.318,0.053 -0.582,-0.477 q -0.212,-0.476 0,-0.793 l -0.212,-0.265 -0.264,-0.053 c -0.212,0 -0.635,-0.053 -1.906,-1.111 -0.952,-0.741 -1.27,-1.27 -1.27,-1.694 -0.741,0.159 -0.423,0.953 0.688,1.747 1.165,0.899 2.646,2.222 2.964,2.91 0.317,0.688 0.635,0.741 0.635,-0.053 l -0.053,-0.211 z"
               inkscape:connector-curvature="0"
               style="fill:#b68845" />
          </g>
          <g
             id="drawingObject14">
            <path
               id="path14"
               d="m 34.171,-11.897 c 0.105,-0.424 -0.688,-1.376 -0.953,-0.953 l -1.429,2.064 c -0.212,0.423 0,1.482 0.741,1.111 0.741,-0.37 1.376,-1.27 1.641,-2.222 z"
               inkscape:connector-curvature="0"
               style="fill:#e6b15b" />
          </g>
          <g
             id="drawingObject15">
            <path
               id="path15"
               d="m 34.118,-11.792 c -0.371,0.583 -0.953,1.218 -1.429,1.376 q -0.688,0.212 -0.9,-0.264 c -0.212,0.423 0.053,1.376 0.741,1.005 0.741,-0.37 1.323,-1.217 1.588,-2.117 z"
               inkscape:connector-curvature="0"
               style="fill:#b68845" />
          </g>
        </g>
        <g
           id="group4">
          <g
             id="drawingObject16">
            <path
               id="path16"
               d="m 3.9,-14.914 q -2.699,-0.476 -4.498,-0.212 c -2.329,0.371 -3.07,1.641 -1.958,1.906 1.058,0.264 3.44,-0.106 6.774,0.582 1.905,0.37 3.704,1.164 4.18,0.741 0.529,-0.424 0.477,-1.112 -0.211,-1.588 q -1.429,-0.9 -4.287,-1.429 z"
               inkscape:connector-curvature="0"
               style="fill:#dca556" />
          </g>
          <g
             id="drawingObject17">
            <path
               id="path17"
               d="m 6.017,-14.385 -0.476,-0.158 c -0.053,0.211 -1.165,1.376 -1.482,1.323 -0.371,-0.106 -1.852,-0.318 -4.604,-0.318 -1.482,0 -2.17,-0.106 -2.488,-0.212 -0.053,0.265 0.106,0.424 0.477,0.53 1.058,0.264 3.44,-0.106 6.774,0.582 1.905,0.37 3.704,1.164 4.18,0.741 q 0.424,-0.318 0.318,-0.741 c -0.794,0.635 -2.117,0.106 -2.593,-0.371 -0.371,-0.37 -0.212,-1.058 -0.106,-1.376 z"
               inkscape:connector-curvature="0"
               style="fill:#b68845" />
          </g>
          <g
             id="drawingObject18">
            <path
               id="path18"
               d="m 4.482,-11.315 c 0.9,-2.329 2.646,-4.869 1.799,-5.451 q -0.952,-0.635 -1.64,-0.318 -0.635,0.318 -0.794,1.165 c -0.265,0.952 -2.17,3.81 -2.593,4.763 -0.529,1.323 -0.37,2.011 0.423,2.381 0.847,0.317 1.905,-0.265 2.805,-2.54 z"
               inkscape:connector-curvature="0"
               style="fill:#e6b15b" />
          </g>
          <g
             id="drawingObject19">
            <path
               id="path19"
               d="m 4.482,-11.315 c 0.847,-2.223 2.487,-4.657 1.852,-5.345 q -0.053,0.794 -1.058,2.593 c -0.794,1.64 -2.064,4.445 -3.017,4.392 -0.635,-0.053 -1.058,-0.317 -1.217,-0.741 -0.211,0.847 0,1.376 0.635,1.641 0.847,0.317 1.905,-0.265 2.805,-2.54 z"
               inkscape:connector-curvature="0"
               style="fill:#b68845" />
          </g>
        </g>
        <g
           id="group5">
          <g
             id="drawingObject20">
            <path
               id="path20"
               d="m 30.202,-6.817 c 0.793,-1.27 2.698,-8.414 -8.15,-8.626 q -3.175,-0.053 -5.345,1.905 -2.17,1.958 -1.217,3.916 c 0.899,1.852 3.387,3.599 8.149,3.599 4.657,0 5.451,1.111 6.563,-0.794 z"
               inkscape:connector-curvature="0"
               style="fill:#cf9b52" />
          </g>
          <g
             id="drawingObject21">
            <path
               id="path21"
               d="m 21.681,-10.045 -0.264,-0.106 -1.112,-0.953 1.165,1.588 -0.688,-0.159 c -0.635,-0.158 -1.165,-1.429 -1.165,-1.429 l 0.371,0.635 -0.371,-0.635 0.212,0.688 c 0.159,0.688 0.847,1.429 0.847,1.429 l -0.688,-0.37 -0.953,-0.953 0.371,0.741 c 0.211,0.424 1.534,1.111 1.534,1.111 0,0 -0.529,0.053 -1.111,0 -0.635,-0.052 -1.111,-0.74 -1.111,-0.74 l 0.317,0.37 -0.317,-0.37 0.159,0.317 0.582,0.794 -0.582,-0.159 c -0.53,-0.212 -1.271,-1.005 -1.271,-1.005 l 0.424,0.423 -0.424,-0.423 0.318,0.582 c 0.212,0.317 0.476,0.582 0.794,0.794 l 0,-0.027 -0.794,-0.397 c -0.9,-0.476 -1.799,-1.799 -1.799,-1.799 l 0.582,0.741 -0.582,-0.741 0.476,0.847 c 0.529,0.846 1.799,1.534 1.799,1.534 l -1.217,-0.476 c -0.9,-0.37 -1.64,-1.535 -1.905,-2.17 0,0.265 0.106,0.53 0.212,0.741 0.899,1.852 3.387,3.599 8.149,3.599 4.657,0 5.451,1.111 6.563,-0.794 0.37,-0.529 0.899,-2.17 0.529,-3.863 q 0,0.582 -0.106,1.111 l 0,-0.952 -0.371,0.793 c 0,0 0.159,-0.423 0.106,-0.793 l -0.211,-1.323 0,0.264 c 0,0.265 -0.265,0.9 -0.265,0.9 l 0,-0.159 -0.159,-1.005 0,0.264 c 0,0.265 -0.476,1.588 -2.011,2.011 -1.534,0.424 -3.334,0 -4.868,-0.423 -1.059,-0.265 -1.641,-1.006 -1.906,-1.429 l 0.053,0.159 c 0.053,0.211 0.688,1.217 0.688,1.217 z"
               inkscape:connector-curvature="0"
               style="fill:#bd8e4a" />
          </g>
          <g
             id="drawingObject22">
            <path
               id="path22"
               d="m 22.634,-7.928 0.159,0.106 c 0.158,0.158 1.481,0.423 1.481,0.423 0,0 -0.211,0.053 -1.111,0.053 l -1.799,0 0.688,0.211 1.482,0.265 -1.535,0.159 c -1.376,0.159 -2.435,0 -3.546,-0.265 1.27,0.582 2.964,0.953 5.186,0.953 4.657,0 5.451,1.111 6.563,-0.794 0.158,-0.212 0.317,-0.582 0.476,-1.111 q -0.582,1.058 -1.535,1.005 l 0.635,-0.264 c 0.424,-0.159 0.582,-0.688 0.582,-0.688 l -0.106,0.158 c -0.158,0.159 -0.529,0.265 -0.529,0.265 l 0.371,-0.582 c 0.264,-0.371 0.158,-0.688 0.158,-0.688 l 0,0.212 0,-0.212 -0.052,0.212 c -0.053,0.211 -0.53,0.317 -0.53,0.317 l 0.265,-0.37 c 0.317,-0.371 0.212,-0.688 0.212,-0.688 l 0,0.211 0,-0.211 -0.053,0.158 c 0,0.159 -0.582,0.318 -0.582,0.318 l 0.105,-0.529 0,-0.953 -0.423,0.212 0.265,-0.9 c -0.265,0.529 -0.794,1.112 -1.747,1.376 -1.534,0.424 -3.334,0 -4.868,-0.423 l -0.265,-0.106 0.053,0.053 0.9,0.741 1.058,0.635 -0.847,0.053 -1.058,-0.053 0.211,0.159 1.218,0.635 -1.482,-0.053 z"
               inkscape:connector-curvature="0"
               style="fill:#a47a3f" />
          </g>
          <g
             id="drawingObject23">
            <path
               id="path23"
               d="m 29.514,-11.368 c -0.053,-0.582 -0.636,-2.17 -3.864,-2.699 q -1.799,-0.265 -3.069,0.264 -1.429,0.53 -1.376,1.694 c 0.106,1.64 1.905,2.593 4.657,2.699 3.069,0.159 3.704,-1.376 3.652,-1.958 z"
               inkscape:connector-curvature="0"
               style="fill:#f8dd94" />
          </g>
          <g
             id="drawingObject24">
            <path
               id="path24"
               d="m 29.196,-11.897 c -0.053,-0.582 -0.318,-2.117 -3.546,-2.593 q -1.799,-0.265 -3.069,0.211 -1.376,0.582 -1.323,1.747 c 0.053,1.587 1.905,2.54 4.657,2.699 3.016,0.105 3.334,-1.482 3.281,-2.064 z"
               inkscape:connector-curvature="0"
               style="fill:url(#radialGradient5)" />
          </g>
          <g
             id="drawingObject25">
            <path
               id="path25"
               d="m 25.28,-13.009 c 1.323,0.424 2.328,-0.423 0.688,-0.741 q -0.953,-0.211 -1.217,0.159 -0.265,0.318 0.529,0.582 z"
               inkscape:connector-curvature="0"
               style="fill:#ffffff" />
          </g>
        </g>
      </g>
      <animate
         attributeName="display"
         begin="0s"
         repeatCount="1"
         dur="0.458s"
         keyTimes="0;0.091;1"
         values="inline;none;none"
         id="animate8764" />
    </g>
  </g>
</svg>
