<?xml version="1.0" encoding="UTF-8" standalone="no"?>
<!-- Generator: flash2svg, http://dissentgraphics.com/tools/flash2svg -->

<svg
   xmlns:dc="http://purl.org/dc/elements/1.1/"
   xmlns:cc="http://creativecommons.org/ns#"
   xmlns:rdf="http://www.w3.org/1999/02/22-rdf-syntax-ns#"
   xmlns:svg="http://www.w3.org/2000/svg"
   xmlns="http://www.w3.org/2000/svg"
   xmlns:sodipodi="http://sodipodi.sourceforge.net/DTD/sodipodi-0.dtd"
   xmlns:inkscape="http://www.inkscape.org/namespaces/inkscape"
   id="AvatarAssets"
   image-rendering="auto"
   version="1.1"
   x="0px"
   y="0px"
   width="77.333702"
   height="56.749001"
   viewBox="0 0 77.333702 56.749001"
   inkscape:version="0.48.4 r9939"
   sodipodi:docname="AvatarAssets_sideHatRam.svg">
  <metadata
     id="metadata5301">
    <rdf:RDF>
      <cc:Work
         rdf:about="">
        <dc:format>image/svg+xml</dc:format>
        <dc:type
           rdf:resource="http://purl.org/dc/dcmitype/StillImage" />
      </cc:Work>
    </rdf:RDF>
  </metadata>
  <sodipodi:namedview
     pagecolor="#ffffff"
     bordercolor="#666666"
     borderopacity="1"
     objecttolerance="10"
     gridtolerance="10"
     guidetolerance="10"
     inkscape:pageopacity="0"
     inkscape:pageshadow="2"
     inkscape:window-width="640"
     inkscape:window-height="480"
     id="namedview5299"
     showgrid="false"
     fit-margin-top="0"
     fit-margin-left="0"
     fit-margin-right="0"
     fit-margin-bottom="0"
     inkscape:zoom="1.9032258"
     inkscape:cx="71.140031"
     inkscape:cy="-36.825"
     inkscape:window-x="0"
     inkscape:window-y="0"
     inkscape:window-maximized="0"
     inkscape:current-layer="AvatarAssets" />
  <defs
     id="defs5130">
    <linearGradient
       gradientUnits="userSpaceOnUse"
       color-interpolation="sRGB"
       x1="644.82501"
       y1="614.20001"
       x2="684.67499"
       y2="614.20001"
       id="linearGradient">
      <stop
         stop-color="#000"
         stop-opacity="0.08627450980392157"
         offset="0"
         id="stop5133" />
      <stop
         stop-color="#000"
         stop-opacity="0.08627450980392157"
         offset="1"
         id="stop5135" />
    </linearGradient>
    <linearGradient
       gradientUnits="userSpaceOnUse"
       color-interpolation="sRGB"
       x1="-9.7930002"
       y1="5.355"
       x2="34.780998"
       y2="5.355"
       id="linearGradient1">
      <stop
         stop-color="#000"
         stop-opacity="0.08627450980392157"
         offset="0"
         id="stop5138" />
      <stop
         stop-color="#000"
         stop-opacity="0.08627450980392157"
         offset="1"
         id="stop5140" />
    </linearGradient>
  </defs>
  <g
     id="sideHatRam1"
     overflow="visible"
     style="overflow:visible"
     transform="translate(39.140031,31.574)">
    <g
       id="sideHatRam_0">
      <g
         id="element">
        <g
           id="drawingObject">
          <path
             id="path"
             d="m 23.026,-27.577 c -5.089,0.664 -9.172,2.99 -11.241,8.858 7.829,1.329 16.61,3.71 21.084,9.302 q 0.951,-0.277 1.678,-0.941 c 2.852,-2.381 3.02,-7.419 1.901,-10.464 -1.23,-3.322 -6.655,-7.585 -13.422,-6.755 z"
             inkscape:connector-curvature="0"
             style="fill:#c0884a" />
        </g>
        <g
           id="drawingObject1">
          <path
             id="path1"
             d="m 23.865,-26.968 c -4.978,0.609 -9.004,2.879 -11.074,8.416 7.886,1.384 16.443,3.986 20.581,9.855 q 1.007,-0.277 2.014,-1.052 c 2.852,-2.381 3.02,-7.419 1.901,-10.464 -1.23,-3.378 -6.711,-7.585 -13.422,-6.755 z"
             inkscape:connector-curvature="0"
             style="fill:#9c6634" />
        </g>
        <g
           id="drawingObject2">
          <path
             id="path2"
             d="m 34.826,-20.324 -0.559,-2.879 c 0,0 1.622,4.983 -0.335,7.972 -1.287,2.049 -2.349,2.99 -3.356,3.544 l 1.007,0.886 c 1.062,-0.831 2.46,-2.104 3.188,-3.71 1.342,-2.823 1.286,-2.823 0.727,-5.315 -0.56,-2.547 -1.231,-3.377 -1.231,-3.377 l 0.392,0.72"
             inkscape:connector-curvature="0"
             style="fill:#84562c" />
        </g>
        <g
           id="drawingObject3">
          <path
             id="path3"
             d="m 32.254,-20.103 -0.224,-1.494 c 0,0 -0.335,3.82 -1.342,5.979 -0.559,1.163 -1.23,1.938 -1.902,2.602 q 0.336,0.166 0.895,0.609 l 0.727,-0.83 c 1.79,-2.381 1.958,-5.869 1.846,-6.866 z"
             inkscape:connector-curvature="0"
             style="fill:#84562c" />
        </g>
        <g
           id="drawingObject4">
          <path
             id="path4"
             d="m 37.175,-17.445 -0.223,-1.495 c 0,0 0.335,3.599 -1.063,5.204 -1.174,1.384 -2.628,2.824 -3.859,3.433 l 0.783,0.83 c 0.503,-0.276 1.063,-0.719 1.79,-1.328 2.964,-2.602 2.796,-5.149 2.572,-6.644 z"
             inkscape:connector-curvature="0"
             style="fill:#84562c" />
        </g>
        <g
           id="drawingObject5">
          <path
             id="path5"
             d="m 29.737,-21.597 -0.056,-4.264 c 0,0 0.727,7.641 -1.622,11.129 l -0.615,0.886 0.671,0.387 c 0.783,-1.495 1.622,-3.654 1.902,-6.145 0.447,-5.205 -0.336,-6.257 -0.336,-6.257 l 0.336,1.163"
             inkscape:connector-curvature="0"
             style="fill:#84562c" />
        </g>
        <g
           id="drawingObject6">
          <path
             id="path6"
             d="m 20.845,-25.584 c 0,0 -1.678,3.488 -1.51,7.253 l 0.112,1.273 1.51,0.443 c -0.895,-3.986 -0.112,-8.969 -0.112,-8.969 z"
             inkscape:connector-curvature="0"
             style="fill:#84562c" />
        </g>
        <g
           id="drawingObject7">
          <path
             id="path7"
             d="m 27.78,-25.916 c 0,0 -1.678,2.049 -3.132,6.755 -0.392,1.273 -0.615,2.491 -0.727,3.598 l 1.398,0.609 0.391,-2.989 c 0.672,-4.651 2.07,-7.973 2.07,-7.973 z"
             inkscape:connector-curvature="0"
             style="fill:#84562c" />
        </g>
        <g
           id="drawingObject8">
          <path
             id="path8"
             d="m 22.746,-26.082 c -0.894,0.277 -1.733,2.215 -1.677,4.651 0.055,1.937 0.559,3.986 0.95,5.149 l 0.448,0.221 q 0.167,-2.547 0.559,-3.876 c 0.783,-2.491 2.013,-4.484 2.573,-5.425 0.559,-0.997 -1.343,-1.108 -2.853,-0.72 z"
             inkscape:connector-curvature="0"
             style="fill:#ab7539" />
        </g>
        <g
           id="drawingObject9">
          <path
             id="path9"
             d="m 15.588,-19.992 c 0.223,0.831 0.615,1.606 0.95,2.215 l 1.175,0.277 0.056,-1.661 c 0,-3.156 0.839,-4.54 1.398,-5.149 0.559,-0.665 -0.391,-0.333 -1.23,0.11 -1.678,0.997 -2.797,2.492 -2.349,4.208 z"
             inkscape:connector-curvature="0"
             style="fill:#ab7539" />
        </g>
        <g
           id="drawingObject10">
          <path
             id="path10"
             d="m 29.01,-24.089 c 0.056,-0.941 0,-2.215 -0.447,-1.329 q -0.727,1.717 -0.951,3.267 c -0.224,1.218 -0.447,4.983 0.168,3.654 0.671,-1.273 1.118,-4.651 1.23,-5.592 z"
             inkscape:connector-curvature="0"
             style="fill:#ab7539" />
        </g>
        <g
           id="drawingObject11">
          <path
             id="path11"
             d="m 30.856,-24.476 -0.504,-0.72 0.056,2.159 q 0.056,2.325 -0.056,3.488 c -0.167,1.882 -0.391,2.602 -0.391,2.602 0,0 1.007,-2.325 1.174,-4.872 0.224,-2.547 -0.783,-3.377 -0.783,-3.377"
             inkscape:connector-curvature="0"
             style="fill:#ab7539" />
        </g>
        <g
           id="drawingObject12">
          <path
             id="path12"
             d="m 33.876,-23.812 c -0.615,-0.443 -1.678,-0.997 -1.566,-0.222 l 0.279,1.717 q 0.28,2.048 0.056,3.765 c -0.279,2.712 -1.006,4.318 -1.006,4.318 0,0 2.237,-3.433 2.349,-5.536 l 0.055,-2.769 c 0,0 0.448,-0.886 -0.167,-1.273 z"
             inkscape:connector-curvature="0"
             style="fill:#ab7539" />
        </g>
        <g
           id="drawingObject13">
          <path
             id="path13"
             d="m 36.225,-21.099 -0.392,-0.222 q -0.279,-0.443 -0.503,-0.498 -0.224,-0.055 -0.112,0.388 c 0.168,0.609 1.286,1.993 0.951,3.986 -0.28,1.993 -1.231,3.543 -1.231,3.543 l 1.175,-1.55 -1.175,1.55 c 0,0 2.405,-2.491 2.014,-5.038 -0.392,-2.602 -1.119,-2.381 -1.119,-2.381"
             inkscape:connector-curvature="0"
             style="fill:#ab7539" />
        </g>
        <g
           id="drawingObject14">
          <path
             id="path14"
             d="m 23.585,-24.643 c 0.839,-0.719 -0.391,-0.609 -1.006,-0.498 q -0.727,0.222 -0.951,1.993 -0.28,1.827 0.335,1.274 c 0.671,-0.665 0.839,-2.104 1.622,-2.769 z"
             inkscape:connector-curvature="0"
             style="fill:#c0884a" />
        </g>
        <g
           id="drawingObject15">
          <path
             id="path15"
             d="m 16.483,-20.712 c 0.838,-0.387 1.006,-2.491 0.615,-2.436 q -0.783,0.222 -1.063,1.495 -0.224,1.218 0.448,0.941 z"
             inkscape:connector-curvature="0"
             style="fill:#c0884a" />
        </g>
        <g
           id="group1">
          <g
             id="group2">
            <g
               id="drawingObject16">
              <path
                 id="path16"
                 d="m 33.131,-6.217 c -1.175,-1.605 -7.159,-6.754 -10.626,-7.253 -3.524,-0.553 -4.754,-1.771 -12.024,-0.276 -7.327,1.494 -16.89,5.758 -17.338,6.311 -0.447,0.609 -1.789,9.523 -2.572,13.177 -0.783,3.71 -0.224,12.236 0.335,13.454 0.504,1.218 4.307,5.979 4.307,5.979 Q -6.018,20.801 -5.682,14.49 c 0.28,-4.983 0.391,-13.454 9.563,-19.157 5.313,-3.321 9.172,-3.211 11.521,-2.048 2.349,1.163 3.02,1.273 3.02,1.273 l -0.056,-0.83 0.671,0.498 -0.671,-0.498 c 0,0 0.895,0.941 2.741,1.329 1.845,0.443 2.349,0.276 2.349,0.276 l -1.119,-0.83 0.671,0 -0.671,0 c 0,0 1.175,-0.166 1.902,0.277 0.727,0.443 1.677,0.775 1.677,0.775 l -0.447,-0.941 1.007,0.498 c 0.95,0.609 0.95,0.775 0.95,0.775 0,0 0.336,-0.941 0.28,-1.938 l -0.224,-1.384 1.622,0.665 -1.622,-0.665 c 0,0 2.629,0.665 5.034,3.101 2.069,2.048 2.237,2.546 2.237,2.546 0,0 -0.448,-2.823 -1.622,-4.429 z"
                 inkscape:connector-curvature="0"
                 style="fill:url(#linearGradient1)" />
            </g>
            <g
               id="drawingObject17">
              <path
                 id="path17"
                 d="m 4.72,-28.861 -1.174,1.273 c 0,0 0.279,-1.384 0.279,-2.436 l 0,-1.052 c 0,0 -1.062,2.326 -1.957,3.101 L 0.973,-27.2 c 0,0 0.392,-0.997 0.224,-1.938 l -0.112,-0.886 c 0,0 -0.28,0.775 -3.132,3.211 -1.174,1.052 -1.901,1.606 -2.181,1.772 l 0,-2.104 c 0,-0.886 -0.336,-1.052 -0.336,-1.052 l 0.168,0.222 -0.168,-0.222 c 0,0 -0.671,2.104 -2.46,3.987 -2.237,2.27 -6.32,4.706 -8.725,7.806 -3.411,4.208 -3.188,4.54 -4.642,8.526 -1.398,3.987 -0.503,6.312 -0.503,6.312 l 0.783,-0.664 -0.671,2.214 0.671,-2.214 c 0,0 -1.398,3.986 -1.175,5.924 0.28,1.937 0.672,0.664 0.672,0.664 l 0.615,2.325 0.391,-1.937 0.112,2.491 -0.112,-2.491 c 0,0 -0.112,4.207 1.063,7.197 1.174,2.934 5.201,7.087 8.053,9.412 2.852,2.325 5.705,3.82 5.705,3.82 0,0 -3.076,-8.194 -1.007,-18.381 2.069,-10.187 7.382,-12.9 11.689,-14.395 4.306,-1.55 7.046,-1.716 9.116,-1.052 2.069,0.665 3.132,1.163 3.132,1.163 l -0.672,-1.55 0.951,0.775 -0.951,-0.775 c 0,0 1.455,1.55 3.244,1.661 l 1.846,0.166 c 0,0 -1.846,-1.052 -2.07,-1.44 l -0.279,-0.387 0.503,0.332 -0.503,-0.332 c 0,0 0.503,0.664 2.349,0.775 l 1.789,0.11 -1.174,-1.162 1.007,0.277 -1.007,-0.277 c 0,0 1.734,0.277 2.629,1.329 l 0.894,0.996 -0.112,-1.938 1.902,0.609 -1.902,-0.609 c 0,0 3.132,0.554 5.593,3.101 2.461,2.602 2.741,4.872 2.741,4.872 0,0 1.901,-1.273 2.684,-3.599 0.783,-2.27 0.559,-3.82 0.559,-3.82 l 0,1.052 0,-1.052 -0.95,2.049 c 0,0 0.559,-2.215 0.167,-4.651 -0.391,-2.436 -0.783,-2.934 -0.783,-2.934 l 0.224,0.553 -0.224,-0.553 c 0,0 -0.112,1.882 -0.503,2.657 l -0.391,0.775 c 0,0 -0.672,-5.647 -6.264,-9.357 -5.593,-3.764 -12.64,-5.148 -14.541,-5.425 l -1.958,-0.277 c 0,0 0.224,-0.886 0.616,-1.274 0.391,-0.387 0.95,-0.664 0.95,-0.664 0,0 -1.845,0.166 -2.628,0.554 l -0.783,0.387 c 0,0 0,-0.387 1.286,-2.325 l 1.342,-1.938 c 0,0 -3.132,0.886 -4.697,1.938 l -2.349,1.55 c 0,0 0.503,-2.214 0.279,-3.211 l -0.279,-1.052 c 0,0 -0.783,1.44 -1.958,2.713 z"
                 inkscape:connector-curvature="0"
                 style="fill:#f4f1d9" />
            </g>
            <g
               id="drawingObject18">
              <path
                 id="path18"
                 d="m 4.776,-25.262 -0.839,0.664 1.958,-1.938 c 0.391,-0.387 0.391,-0.775 0.503,-2.048 0.168,-1.329 0,-1.44 0,-1.44 l 0.056,0.222 -0.056,-0.222 -1.678,2.215 c -1.006,1.384 -2.964,2.159 -2.964,2.159 l 1.119,-0.554 -1.119,0.554 0.783,-2.159 -0.783,1.107 c -0.783,1.163 -4.81,3.876 -4.81,3.876 l 1.287,-2.436 -1.063,0.775 c -1.007,0.775 -4.81,2.325 -4.53,1.661 l 0.951,-2.104 -0.615,0.72 c -2.237,2.27 -6.32,4.706 -8.725,7.806 -3.411,4.208 -3.188,4.54 -4.642,8.526 -1.398,3.987 -0.503,6.312 -0.503,6.312 l 0.783,-0.664 -0.671,2.214 0.671,-2.214 c 0,0 -1.398,3.986 -1.175,5.924 0.28,1.937 0.672,0.664 0.672,0.664 l 0.615,2.325 0.391,-1.937 0.112,2.491 -0.112,-2.491 c 0,0 -0.112,4.207 1.063,7.197 1.174,2.934 5.201,7.087 8.053,9.412 2.852,2.325 5.705,3.82 5.705,3.82 0,0 -0.504,-1.384 -0.951,-3.709 C -7.36,18.642 -9.317,11.112 -5.514,2.033 -1.096,-8.542 4.72,-8.93 7.349,-9.926 c 2.572,-1.052 6.991,-2.326 6.991,-2.326 l -0.783,-0.11 c -0.783,-0.166 -2.07,0 -2.07,0 l 0.727,-0.056 -0.727,0.056 2.237,-0.554 c 2.182,-0.498 6.208,-0.775 6.208,-0.775 l -10.514,-0.997 1.174,-0.664 c 1.175,-0.664 4.027,-1.052 4.027,-1.052 l -2.069,-0.111 c -1.79,-0.11 -2.237,0 -2.349,0 l 2.573,-0.775 c 2.628,-0.775 5.648,-0.609 5.648,-0.609 0,0 0.224,-0.11 -3.523,-0.498 -3.803,-0.388 -4.418,-0.166 -4.418,-0.166 l 0.783,-0.056 -0.783,0.056 1.789,-0.498 c 1.846,-0.554 5.146,-0.609 5.146,-0.609 l -3.803,-0.222 c -4.139,-0.277 -7.047,0.664 -7.047,0.664 l 1.957,-0.442 -1.957,0.442 0.503,-0.221 c 0.503,-0.277 6.264,-1.439 6.264,-1.439 l -1.846,0 C 9.698,-20.888 5,-19.726 5,-19.726 L 7.572,-20.279 5,-19.726 7.461,-21.165 c 2.46,-1.384 7.27,-1.883 7.27,-1.883 l -2.573,0 c -2.628,0 -3.523,0.499 -3.523,0.499 l 0.783,-0.222 -0.783,0.222 1.063,-0.776 c 1.006,-0.775 0.839,-2.214 0.839,-2.214 l 0.279,-0.388 c 0,0 0.727,-0.498 -0.056,-0.11 l -1.342,0.775 0.392,-1.052 c 0.391,-0.997 1.677,-2.824 1.677,-2.824 0,0 -1.789,0.775 -4.138,2.215 -2.349,1.384 -3.412,2.325 -3.412,2.325"
                 inkscape:connector-curvature="0"
                 style="fill:#e8e5cd" />
            </g>
            <g
               id="drawingObject19">
              <path
                 id="path19"
                 d="m 1.812,-10.535 0.895,-0.941 c 0.895,-0.997 5.425,-4.319 5.425,-4.319 l -3.244,1.329 c -3.3,1.384 -7.774,4.927 -7.774,4.927 l 2.629,-1.937 -2.629,1.937 0.28,-0.719 2.684,-4.374 c 0,0 -1.566,0.83 -3.187,3.322 -1.678,2.546 -2.293,4.263 -2.293,4.263 l 0,-0.831 -0.392,-5.038 -0.056,1.661 c -0.056,1.716 -0.727,5.426 -1.622,6.533 -0.951,1.107 -1.342,-1.052 -0.615,-3.377 0.727,-2.27 0.28,-4.54 -0.224,-5.813 l -10.402,1.66 c -0.615,1.163 -0.895,2.27 -1.678,4.374 -1.398,3.987 -0.503,6.312 -0.503,6.312 l 0.783,-0.664 -0.671,2.214 0.671,-2.214 c 0,0 -1.398,3.986 -1.175,5.924 0.28,1.937 0.672,0.664 0.672,0.664 l 0.615,2.325 0.391,-1.937 0.112,2.491 -0.112,-2.491 c 0,0 -0.112,4.207 1.063,7.197 1.174,2.934 5.201,7.087 8.053,9.412 2.852,2.325 5.705,3.82 5.705,3.82 0,0 -0.504,-1.384 -0.951,-3.709 -1.119,-1.827 -2.069,-7.032 -1.734,-10.963 0.392,-4.484 2.964,-12.457 5.761,-15.114 2.796,-2.602 8.445,-5.26 8.445,-5.26 l -5.705,1.938 1.342,-1.218 c 1.398,-1.218 5.201,-2.99 5.201,-2.99 l -5.76,1.606 z"
                 inkscape:connector-curvature="0"
                 style="fill:#dcd9c3" />
            </g>
            <g
               id="drawingObject20">
              <path
                 id="path20"
                 d="m -6.13,0.981 1.063,-2.879 -1.51,2.38 c -1.51,2.381 -3.02,8.637 -3.02,8.637 l 0.28,-2.989 c 0.279,-2.935 1.733,-6.201 1.733,-6.201 l -0.783,1.993 0.783,-1.993 -0.894,1.329 c -0.895,1.328 -1.902,4.595 -1.902,4.595 0,0 -0.056,-1.495 0.671,-3.876 0.336,-1.052 0.671,-1.882 0.951,-2.547 l -0.028,0 -2.153,3.931 0.056,-0.885 c 0.056,-0.886 0.839,-2.879 1.398,-3.987 0.503,-1.107 0.112,-1.882 0.112,-1.882 l -0.727,0.609 c -0.727,0.554 -4.027,2.713 -6.823,0.996 -2.797,-1.66 -0.56,-6.034 -0.56,-6.034 l -0.783,2.38 0.783,-2.38 c 0,0 -0.727,-0.333 -1.845,0 -0.392,0.11 -0.951,0.664 -1.51,1.439 -0.727,3.045 -0.056,4.817 -0.056,4.817 l 0.783,-0.664 -0.671,2.214 0.671,-2.214 c 0,0 -1.398,3.986 -1.175,5.924 0.28,1.937 0.672,0.664 0.672,0.664 l 0.615,2.325 0.391,-1.937 0.112,2.491 -0.112,-2.491 c 0,0 -0.112,4.207 1.063,7.197 1.174,2.934 5.201,7.087 8.053,9.412 2.852,2.325 5.705,3.82 5.705,3.82 0,0 -0.504,-1.384 -0.951,-3.709 -1.119,-1.827 -2.069,-7.032 -1.734,-10.963 0.336,-3.93 2.405,-10.63 4.81,-13.951 q -1.007,0.996 -2.349,3.155 L -6.185,1.645 -6.13,0.981 z"
                 inkscape:connector-curvature="0"
                 style="fill:#d0cdb8" />
            </g>
            <g
               id="drawingObject21">
              <path
                 id="path21"
                 d="m -4.787,25.175 c 0,0 -0.504,-1.384 -0.951,-3.709 -1.119,-1.827 -2.069,-7.032 -1.734,-10.963 0.112,-1.66 0.559,-3.764 1.231,-5.924 -0.448,0.665 -1.007,1.551 -1.622,2.879 -1.566,3.212 -1.342,5.703 -1.287,6.201 l -0.727,-4.54 -0.167,1.163 c 0,0.886 -0.224,2.491 -0.224,2.491 l -1.007,-2.768 C -12.226,7.237 -11.89,4.801 -11.89,4.801 l -0.056,1.55 0.056,-1.55 -0.224,0.775 c -0.167,0.775 -0.783,1.772 -0.783,1.772 l 0.056,-3.045 c 0,0 -0.895,0.941 -1.23,2.214 l -0.783,2.713 -0.168,-4.374 -0.503,1.495 c -0.559,1.495 -0.727,2.325 -0.727,2.325 l 0.112,-8.083 -0.168,0.388 0.168,-0.388 c 0,0 -0.28,0.388 -0.56,2.104 -0.335,1.661 -0.727,5.315 -0.727,5.315 L -17.818,6.296 C -18.21,4.524 -17.986,0.593 -17.986,0.593 l -0.056,2.215 0.056,-2.215 -0.28,0.941 c -0.335,0.886 -0.391,3.212 -0.391,3.212 0,0 -0.224,-0.388 -0.615,-1.661 C -19.664,1.756 -19.44,0.04 -19.44,0.04 l -0.056,1.051 0.056,-1.051 -0.671,1.55 0,-1.052 0.335,-2.99 -0.391,0.498 c -0.336,0.886 -1.342,3.987 -1.119,5.648 0.28,1.937 0.672,0.664 0.672,0.664 l 0.615,2.325 0.391,-1.937 0.112,2.491 -0.112,-2.491 c 0,0 -0.112,4.207 1.063,7.197 1.174,2.934 5.201,7.087 8.053,9.412 q 2.852,2.325 5.705,3.82 z"
                 inkscape:connector-curvature="0"
                 style="fill:#b4b19f" />
            </g>
            <g
               id="drawingObject22">
              <path
                 id="path22"
                 d="m -18.825,-4.833 c 0,0 -0.895,-0.996 -1.174,-0.387 -0.224,0.553 -0.615,2.048 -0.615,2.048 l 1.286,-0.886 0.224,4.042 0.503,-1.052 -0.28,2.824 0.056,0.443 1.063,-2.215 0.279,-0.277 0,2.824 2.237,-2.824 -0.111,2.27 0.727,-1.55 0.167,3.876 c 0,0 0.672,-2.547 1.343,-3.488 0.615,-0.997 1.006,-1.44 1.006,-1.44 l -0.391,1.883 1.174,-1.661 c 0.615,-0.776 0.783,-1.218 0.783,-1.218 0,0 -0.503,1.55 -0.727,1.993 l -0.168,0.443 c 0,0 0.951,-1.385 1.455,-2.326 0.559,-0.941 0.615,-1.882 0.615,-1.882 q -2.125,2.048 -4.139,2.159 c -2.013,0.055 -3.747,-0.166 -4.53,-1.882 l -0.783,-1.717 z"
                 inkscape:connector-curvature="0"
                 style="fill:#c5c3b0" />
            </g>
            <g
               id="drawingObject23">
              <path
                 id="path23"
                 d="m 26.587,-8.93 c 0,0 3.132,0.554 5.593,3.101 2.461,2.602 2.741,4.872 2.741,4.872 0,0 1.901,-1.273 2.684,-3.599 0.28,-0.72 0.391,-1.329 0.503,-1.882 l -0.839,0.941 0,-0.886 -0.055,0.056 0.055,-0.111 -0.055,-1.55 c -0.112,-1.495 -0.951,-2.658 -0.951,-2.658 l 0.447,0.775 -0.447,-0.775 0,4.097 -0.112,-0.664 c -0.056,-0.72 -2.517,-2.935 -2.517,-2.935 l 1.231,1.218 -1.231,-1.218 0.504,1.108 c 0.447,0.775 0.615,2.546 0.615,2.546 0,0 -0.671,-0.83 -3.524,-2.27 -2.852,-1.494 -5.48,-1.827 -5.48,-1.827 l 1.677,0.333 -1.677,-0.333 0.447,0.609 c 0.447,0.609 0.391,1.052 0.391,1.052 z"
                 inkscape:connector-curvature="0"
                 style="fill:#e8e5cd" />
            </g>
            <g
               id="drawingObject24">
              <path
                 id="path24"
                 d="m 15.346,-24.376 -0.95,-0.111 6.431,1.993 c 0,0 -2.852,-0.443 -4.418,-0.443 l -1.566,0 2.573,0.388 -2.573,-0.388 c 0,0 4.418,0.498 7.103,1.55 2.684,0.997 3.355,1.44 3.355,1.44 0,0 -1.174,-0.499 -3.188,-0.831 l -2.013,-0.387 2.237,0.996 -2.237,-0.996 c 0,0 4.027,1.716 5.593,2.879 l 1.51,1.107 -0.56,-1.107 1.007,0.553 -1.007,-0.553 c 0,0 1.79,0.941 2.573,1.716 l 0.783,0.775 -1.902,-2.491 0.839,0.387 -0.839,-0.387 c 0,0 1.287,0.387 2.965,1.882 l 1.957,1.716 -1.957,-2.602 2.404,1.883 c 0,0 -3.635,-4.042 -7.214,-5.648 q -4.474,-2.048 -7.606,-2.768 c -3.132,-0.664 -4.25,-0.664 -4.25,-0.664"
                 inkscape:connector-curvature="0"
                 style="fill:#fefce9" />
            </g>
            <g
               id="drawingObject25">
              <path
                 id="path25"
                 d="m 28.433,-12.196 c 3.132,0.553 5.649,2.104 5.649,2.104 l -1.231,-0.941 c -1.23,-0.942 -3.188,-1.772 -3.188,-1.772 l 1.119,0.553 -1.119,-0.553 1.622,0 -3.132,-0.886 q -1.901,-0.498 -3.859,-0.498 l -1.51,0.11 c -2.293,-0.11 -5.984,1.274 -5.984,1.274 l 2.126,-0.665 -2.126,0.665 1.175,-0.277 c 1.118,-0.277 4.25,-0.055 4.25,-0.055 l -2.628,0.498 3.243,0 -3.243,0 c 0,0 5.704,-0.166 8.836,0.443 z"
                 inkscape:connector-curvature="0"
                 style="fill:#fefce9" />
            </g>
            <g
               id="group3">
              <g
                 id="drawingObject26">
                <path
                   id="path26"
                   d="m 3.658,-28.197 -0.839,1.329 1.23,-0.72 q 1.398,-0.941 2.181,-2.159 l 0.671,-1.052 -0.223,-0.775 c 0,0 -0.783,1.44 -1.958,2.713 l -1.174,1.273 0.112,-0.609 z"
                   inkscape:connector-curvature="0"
                   style="fill:#fefce9" />
              </g>
              <g
                 id="drawingObject27">
                <path
                   id="path27"
                   d="m 2.931,-28.584 0.894,-1.218 0,-1.274 c 0,0 -1.062,2.326 -1.957,3.101 L 0.973,-27.2 c 0,0 0.392,-0.997 0.224,-1.938 l -0.112,-0.886 c 0,0 -0.28,0.775 -3.132,3.211 -1.174,1.052 -1.901,1.606 -2.181,1.772 l 0,-2.104 c 0,-0.886 -0.336,-1.052 -0.336,-1.052 l 0.168,0.222 -0.168,-0.222 c 0,0 -0.503,1.606 -1.789,3.212 l 1.23,-0.997 0.112,-0.222 c 0,0 0.391,1.052 0.056,1.606 l -0.559,0.775 1.845,-1.052 -1.845,1.052 c 0,0 3.411,-1.827 4.642,-3.045 l 1.845,-1.827 c 0,0 -0.224,1.827 -0.615,2.104 l 0.671,-0.388 q 1.23,-0.775 1.902,-1.605 z"
                   inkscape:connector-curvature="0"
                   style="fill:#fefce9" />
              </g>
              <g
                 id="drawingObject28">
                <path
                   id="path28"
                   d="m 11.767,-29.304 1.118,-0.332 0.839,-1.163 c 0,0 -3.132,0.886 -4.697,1.938 l -2.349,1.55 c 0,0 -0.951,1.107 -1.566,1.661 l -0.56,0.609 3.076,-1.993 -3.076,1.993 c 0,0 5.817,-3.875 7.215,-4.263 z"
                   inkscape:connector-curvature="0"
                   style="fill:#fefce9" />
              </g>
              <g
                 id="drawingObject29">
                <path
                   id="path29"
                   d="m 14.284,-27.422 c -0.504,0.056 -1.79,0.167 -2.405,0.499 l -0.783,0.387 -1.678,1.274 1.678,-0.886 -1.678,0.886 c 0,0 2.796,-1.661 4.866,-2.16 z"
                   inkscape:connector-curvature="0"
                   style="fill:#fefce9" />
              </g>
            </g>
            <g
               id="drawingObject30">
              <path
                 id="path30"
                 d="m -6.241,-10.48 c 0,0 0.727,-2.325 0.503,-4.152 -0.168,-1.772 -1.007,-3.488 -1.007,-3.488 l 0.448,1.107 -0.448,-1.107 -0.168,1.107 c 0,0 -0.447,-1.273 -1.51,-1.882 -1.006,-0.609 -2.125,-0.775 -2.125,-0.775 l 0.671,0.166 -0.671,-0.166 0.783,0.996 0.727,0.72 q 0.895,1.052 1.398,2.381 l 0.895,2.159 -0.112,-1.384 0.224,0.719 -0.224,-0.719 c 0,0 0.448,1.052 0.56,2.657 l 0.056,1.661 z"
                 inkscape:connector-curvature="0"
                 style="fill:#fefce9" />
            </g>
            <g
               id="group4" />
          </g>
          <g
             id="group5">
            <g
               id="drawingObject31">
              <path
                 id="path31"
                 d="m 11.208,-25.816 -0.168,-0.664 -0.112,0.553 q 0,0.665 0.224,1.218 c 0.391,0.942 3.803,1.772 6.543,4.263 3.132,2.879 2.964,5.426 3.803,7.752 1.231,3.321 1.622,3.377 1.622,3.377 0,0 -0.391,-2.215 -1.118,-4.042 -0.672,-1.772 -0.895,-4.65 -3.748,-7.308 -1.566,-1.495 -5.145,-3.267 -6.096,-3.931 -1.006,-0.72 -1.118,-1.882 -1.118,-1.882"
                 inkscape:connector-curvature="0"
                 style="fill:#fefce9" />
            </g>
            <g
               id="drawingObject32">
              <path
                 id="path32"
                 d="m 10.984,-25.761 0.112,-0.775 -0.224,0.554 q -0.112,0.664 0.112,1.218 c 0.391,0.941 3.132,1.439 5.816,3.931 3.188,2.879 3.58,5.204 4.419,7.53 1.286,3.377 1.957,3.986 1.957,3.986 l -1.678,-3.931 c -0.727,-1.772 -0.895,-4.595 -3.747,-7.308 -1.566,-1.495 -5.145,-3.211 -6.152,-3.931 -0.951,-0.72 -0.503,-2.049 -0.503,-2.049"
                 inkscape:connector-curvature="0"
                 style="fill:#9b8c6f" />
            </g>
          </g>
          <g
             id="group6">
            <g
               id="drawingObject33">
              <path
                 id="path33"
                 d="m 4.105,-20.833 c -1.51,0.72 -2.237,1.384 -0.336,0.83 1.902,-0.553 6.488,-0.941 6.488,-0.941 l -2.125,0.831 1.678,-0.056 c 1.677,-0.055 2.404,0.166 3.467,0.111 1.007,-0.055 2.181,-0.83 1.846,-0.72 -0.336,0.166 -0.895,-0.443 -0.895,-0.443 l 0.335,0.277 -0.335,-0.277 -0.727,0 c 0,0 -1.119,-0.11 -1.958,-0.387 q -0.559,-0.166 -0.839,-0.554 l -0.167,-0.332 c 0,0 -4.922,0.941 -6.432,1.661 z"
                 inkscape:connector-curvature="0"
                 style="fill:#dcd9c3" />
            </g>
            <g
               id="drawingObject34">
              <path
                 id="path34"
                 d="m 10.76,-18.729 4.866,0.055 c 1.062,0 1.566,-0.111 1.957,-0.055 0.336,0.055 0.951,0.332 0.951,0.332 l -0.839,-0.831 c -0.615,-0.719 -0.895,-1.328 -1.454,-1.384 q -0.391,0.997 -0.839,1.218 c -0.503,0.222 -1.062,0.056 -2.069,0.056 -0.951,0 -2.573,0.609 -2.573,0.609 z"
                 inkscape:connector-curvature="0"
                 style="fill:#dcd9c3" />
            </g>
            <g
               id="drawingObject35">
              <path
                 id="path35"
                 d="m 20.491,-20.888 c -0.559,0.332 -1.062,0.498 -1.454,0.332 l 0.224,0.332 q 0.224,0.332 0.503,0.387 l 1.455,0.056 0.391,0.111 -0.951,-0.776 0.839,0 c 0,0 -0.447,-0.719 -1.007,-0.442 z"
                 inkscape:connector-curvature="0"
                 style="fill:#dcd9c3" />
            </g>
            <g
               id="drawingObject36">
              <path
                 id="path36"
                 d="m 17.024,-14.521 -0.391,-0.72 -5.202,0.553 1.454,0 c 1.007,0 2.07,0.388 2.293,0.388 l -1.957,0.775 c -0.447,0.166 -0.28,0.166 0.224,0.111 0.503,-0.111 2.572,-0.111 3.971,-0.111 1.342,0 1.733,-0.111 0.727,-0.166 q -0.616,-0.055 -1.119,-0.83 z"
                 inkscape:connector-curvature="0"
                 style="fill:#dcd9c3" />
            </g>
            <g
               id="drawingObject37">
              <path
                 id="path37"
                 d="m 26.14,-15.02 -1.734,-0.221 q -0.112,0.72 -0.447,0.941 l -0.28,0.221 0.839,-0.11 -0.839,0.11 c 0,0 1.343,-0.276 2.741,0 1.454,0.222 3.523,0.776 3.523,0.776 l -3.523,-1.329 1.622,0.166 c 0,0 -1.063,-0.443 -1.902,-0.554 z"
                 inkscape:connector-curvature="0"
                 style="fill:#dcd9c3" />
            </g>
          </g>
          <g
             id="group7">
            <g
               id="drawingObject38">
              <path
                 id="path38"
                 d="m 23.847,-14.909 c 0.168,-0.554 -0.056,-1.163 -0.783,-1.384 q -1.957,-0.665 -5.145,0.111 c -0.895,0.276 -0.951,0.775 -0.448,1.605 0.56,0.831 2.517,0.498 3.971,0.443 1.454,-0.111 2.293,-0.166 2.405,-0.775 z"
                 inkscape:connector-curvature="0"
                 style="fill:#e6cb82" />
            </g>
            <g
               id="drawingObject39">
              <path
                 id="path39"
                 d="m 21.442,-14.134 c 1.454,-0.111 2.293,-0.166 2.405,-0.775 q 0.168,-0.332 -0.056,-0.831 c -0.335,0.886 -1.901,1.163 -4.362,1.108 -1.958,-0.056 -2.181,-0.609 -2.181,-1.108 -0.168,0.277 -0.056,0.665 0.223,1.163 0.56,0.831 2.517,0.498 3.971,0.443 z"
                 inkscape:connector-curvature="0"
                 style="fill:#d7bc6f" />
            </g>
            <g
               id="drawingObject40">
              <path
                 id="path40"
                 d="m 12.103,-23.38 c -0.951,0 -1.399,0.609 -1.399,0.609 l 0.336,-0.277 -0.336,0.277 0.224,0.388 c 0.224,0.332 0.559,0.443 0.559,0.443 l 0.616,0.221 -0.616,-0.221 c 0,0 0.895,0.498 2.237,0.387 2.014,-0.111 4.363,0.332 5.481,0.886 0.839,0.332 1.342,-0.609 0.504,-1.163 q -0.616,-0.443 -2.349,-0.941 c -1.79,-0.443 -4.363,-0.609 -5.257,-0.609 z"
                 inkscape:connector-curvature="0"
                 style="fill:#e6cb82" />
            </g>
            <g
               id="drawingObject41">
              <path
                 id="path41"
                 d="m 11.487,-21.94 c 0,0 0.895,0.498 2.237,0.387 2.014,-0.111 4.363,0.332 5.481,0.886 0.671,0.277 1.063,-0.277 0.839,-0.775 q -0.224,0.443 -1.174,0.221 -0.839,-0.166 -1.399,-0.553 c -0.391,-0.277 -0.391,-0.72 -0.335,-0.997 l -0.727,-0.166 c 0,0 0.783,1.163 -2.069,0.997 -2.182,-0.056 -3.076,-0.499 -3.412,-1.052 l -0.224,0.221 0.224,0.388 c 0.224,0.332 0.559,0.443 0.559,0.443 z"
                 inkscape:connector-curvature="0"
                 style="fill:#d7bc6f" />
            </g>
            <g
               id="drawingObject42">
              <path
                 id="path42"
                 d="m 16.688,-22.383 c 0.504,-0.499 0.728,-1.163 0.728,-1.163 q -2.07,-0.498 -2.573,0.609 c -0.447,0.886 -2.069,3.1 -1.51,3.322 0.503,0.277 1.678,0.332 2.069,-0.055 0.392,-0.388 0.783,-2.16 1.286,-2.713 z"
                 inkscape:connector-curvature="0"
                 style="fill:#e6cb82" />
            </g>
            <g
               id="drawingObject43">
              <path
                 id="path43"
                 d="m 16.129,-22.106 c -0.447,0.885 -0.503,1.937 -1.286,2.269 -0.559,0.277 -1.119,0.056 -1.566,-0.221 -0.056,0.221 -0.056,0.388 0.056,0.443 0.503,0.277 1.678,0.332 2.069,-0.055 0.392,-0.388 0.783,-2.16 1.286,-2.713 0.504,-0.499 0.728,-1.163 0.728,-1.163 l -0.112,0 c -0.224,0.332 -0.783,0.72 -1.175,1.44 z"
                 inkscape:connector-curvature="0"
                 style="fill:#d7bc6f" />
            </g>
            <g
               id="drawingObject44">
              <path
                 id="path44"
                 d="m 13.724,-20.778 c 0,0 0.336,-0.11 1.007,-1.384 0.727,-1.273 1.23,-1.55 1.23,-1.55 0,0 -0.223,-0.222 -0.783,0.277 q -0.335,0.332 -0.95,1.55 -0.28,0.609 -0.504,1.107 z"
                 inkscape:connector-curvature="0"
                 style="fill:#fae29f" />
            </g>
            <g
               id="drawingObject45">
              <path
                 id="path45"
                 d="m 21.834,-16.016 c 0.895,0.055 1.118,-0.554 -1.175,-0.443 q -0.839,0.055 -1.789,0.332 -0.951,0.277 -0.28,0.332 c 0.895,0.111 2.405,-0.221 3.244,-0.221 z"
                 inkscape:connector-curvature="0"
                 style="fill:#fae29f" />
            </g>
            <g
               id="drawingObject46">
              <path
                 id="path46"
                 d="m 13.948,-22.605 c 0.168,-0.111 0,-0.553 0,-0.553 q -2.74,-0.222 -2.013,0.221 c 0.727,0.443 1.845,0.443 2.013,0.332 z"
                 inkscape:connector-curvature="0"
                 style="fill:#fae29f" />
            </g>
            <g
               id="drawingObject47">
              <path
                 id="path47"
                 d="m 18.199,-21.94 c 0.559,0.221 1.51,0.387 0.335,-0.166 q -0.391,-0.222 -0.559,-0.056 -0.224,0.111 0.224,0.222 z"
                 inkscape:connector-curvature="0"
                 style="fill:#fae29f" />
            </g>
          </g>
          <g
             id="group8">
            <g
               id="drawingObject48">
              <path
                 id="path48"
                 d="m -8.982,-16.681 c -0.895,-0.609 -3.132,9.191 -3.691,10.187 q -1.063,2.16 -5.369,3.378 l 0.895,0.719 -0.895,-0.719 c 0,0 1.063,1.55 4.083,1.273 3.02,-0.221 5.704,-2.934 6.599,-6.533 0.839,-3.599 -0.783,-7.696 -1.622,-8.305 z"
                 inkscape:connector-curvature="0"
                 style="fill:#999587" />
            </g>
            <g
               id="drawingObject49">
              <path
                 id="path49"
                 d="m -20.559,-24.376 c -7.382,-0.942 -13.646,1.771 -17.505,13.232 -4.697,13.786 6.935,30.229 16.499,29.343 9.507,-0.83 10.57,-6.477 9.507,-9.024 -1.118,-2.824 -1.845,1.052 -4.306,2.214 -2.573,1.163 -4.978,0.72 -6.711,-2.436 -2.908,-5.426 -2.405,-14.45 1.733,-13.896 2.461,0.276 4.531,3.045 8.166,1.328 3.635,-1.716 5.201,-6.865 4.865,-10.297 q -0.335,-3.212 -3.523,-6.312 -3.635,-3.543 -8.725,-4.152 z"
                 inkscape:connector-curvature="0"
                 style="fill:#c0884a" />
            </g>
            <g
               id="drawingObject50">
              <path
                 id="path50"
                 d="m -19.832,-23.601 c -7.382,-0.886 -13.646,1.827 -17.56,13.287 -4.698,13.786 6.99,30.174 16.498,29.344 9.563,-0.886 10.178,-7.087 9.116,-9.689 -1.119,-2.768 -1.846,1.162 -4.306,2.325 -2.517,1.218 -4.53,1.274 -6.264,-1.938 -2.964,-5.37 -2.461,-14.395 1.734,-13.896 l 3.579,1.439 -3.579,-1.439 c 2.404,0.332 4.474,3.1 8.165,1.384 3.635,-1.716 5.201,-6.865 4.809,-10.298 q -0.335,-3.211 -3.523,-6.312 -3.635,-3.543 -8.669,-4.207 z"
                 inkscape:connector-curvature="0"
                 style="fill:#9c6634" />
            </g>
            <g
               id="group9">
              <g
                 id="drawingObject51">
                <path
                   id="path51"
                   d="m -23.411,-22.937 c 0,0 -2.684,3.156 -3.523,7.142 -0.895,3.931 0.224,8.028 1.006,9.246 l 0.783,1.218 c 0,0 -2.348,-1.218 -3.635,-3.599 -1.286,-2.436 -2.405,-5.924 -2.405,-7.474 l 0,-1.55 -0.223,1.716 0.223,-1.716 c 0,0 -0.727,2.547 0.168,6.09 0.839,3.488 3.132,6.146 4.083,6.755 l 0.951,0.609 -0.951,0.166 c 0,0 -2.014,-0.166 -4.195,-2.492 -2.125,-2.325 -2.572,-4.706 -2.572,-4.706 l 0.503,1.495 -0.503,-1.495 0.447,1.883 -0.447,-1.883 c 0,0 0.503,3.267 2.069,5.149 1.566,1.883 3.188,2.99 4.306,2.99 l 1.175,0 c 0,0 -0.615,1.218 -1.902,1.218 -1.342,0 -3.076,0.498 -5.201,-0.332 -2.181,-0.886 -3.747,-2.16 -3.747,-2.16 l 1.063,0.776 -1.063,-0.776 2.069,1.606 -2.069,-1.606 c 0,0 3.02,3.267 7.27,3.156 l 2.965,-0.027 0,0.027 c 0.447,-1.661 1.062,-2.713 1.901,-3.156 1.902,-1.051 4.698,-0.11 5.537,0.609 q 1.398,1.108 2.349,1.163 1.342,0.111 3.971,-1.163 c 3.803,-1.882 4.362,-4.539 4.53,-6.2 l 0.167,-1.606 c 0,0 -0.615,3.876 -2.516,5.149 -1.902,1.273 -4.139,2.547 -5.649,2.547 l -1.454,0 2.237,-0.886 -2.237,0.886 c 0,0 3.971,-1.108 6.152,-3.654 2.181,-2.602 2.069,-2.602 2.181,-5.315 0.056,-2.769 -0.391,-3.821 -0.391,-3.821 l 0.223,0.886 -0.223,-0.886 -0.168,3.101 0.168,-3.101 c 0,0 0.391,5.592 -2.461,8.194 -2.908,2.547 -4.418,2.879 -6.208,2.99 -1.734,0.056 -2.349,-0.055 -2.349,-0.055 l 0.503,0.055 -0.503,-0.055 1.23,-0.166 -1.23,0.166 c 0,0 1.79,0.111 4.306,-1.827 2.517,-1.993 3.636,-5.592 3.803,-6.644 l 0.168,-1.606 c 0,0 -1.398,3.876 -3.02,5.814 -1.678,1.993 -3.467,2.491 -4.81,3.266 l 1.399,-1.495 -1.399,1.495 c -1.286,0.775 3.244,-2.325 5.146,-7.529 1.901,-5.26 1.398,-6.533 1.398,-6.533 l 0,1.273 0,-1.273 -1.119,4.429 1.119,-4.429 c 0,0 -1.342,8.083 -4.81,11.073 l -4.027,3.432 c 0,0 0.504,-2.768 2.461,-7.363 2.014,-4.651 4.362,-7.751 4.362,-7.751 0,0 -2.348,1.716 -5.089,6.2 -2.796,4.43 -3.244,9.191 -3.244,9.191 0,0 -1.398,-2.491 -1.398,-6.976 0,-4.429 2.349,-9.855 2.349,-9.855 z M -26.99,-0.57 c 0,0.056 0,0.056 0,0.111 l -0.028,-0.027 1.538,-1.08 -1.286,0.028 0,0.027 c -0.056,0.277 -0.168,0.609 -0.224,0.941 z m 0.056,2.492 c 0,0 0.224,-0.498 -0.336,-0.664 -0.056,0.498 -0.056,1.051 -0.056,1.605 l -0.028,-0.028 0.42,-0.913 z M -27.27,1.258 c 0.056,-0.609 0.168,-1.163 0.28,-1.717 l -0.028,-0.027 -0.867,0.636 c 0,0 -3.747,1.108 -5.481,0.997 l -2.628,-0.222 2.125,0.499 -2.125,-0.499 c 0,0 3.411,1.108 6.543,0.443 1.175,-0.277 1.846,-0.277 2.181,-0.11 z m -0.084,1.577 -1.146,2.464 c 0,0 -1.51,0.941 -3.02,0.941 l -2.181,0 1.51,0.333 -1.51,-0.333 c 0,0 2.516,0.775 4.642,0.166 l 1.873,-0.525 0.028,0.027 c -0.168,-1.052 -0.224,-2.104 -0.168,-3.045 z m 0.364,4.457 c 0.112,0.499 0.28,0.997 0.503,1.44 0.056,-0.831 -0.279,-1.495 -0.279,-1.495 l 0.279,1.052 -0.279,-1.052 -0.224,0.055 z m 0,0 c -0.056,-0.166 -0.056,-0.387 -0.112,-0.609 -0.056,-0.277 -0.056,-0.498 -0.056,-0.719 -0.671,0.332 -1.957,0.941 -2.461,1.051 l -0.727,0.056 0.783,0.277 -0.783,-0.277 c 0,0 1.287,0.554 2.461,0.387 l 0.895,-0.166 z m 3.076,4.014 0.168,-0.36 -1.231,-0.775 -0.14,0.305 0.028,0.027 c 0.336,0.277 0.727,0.554 1.175,0.831 z m 0.279,0.139 c -0.111,-0.056 -0.223,-0.056 -0.279,-0.111 l 0,-0.028 -0.392,0.803 0.392,-0.775 c -0.28,0.498 -0.895,1.938 -0.783,3.211 0.168,1.716 0.783,2.27 0.783,2.27 0,0 -0.503,-2.104 -0.168,-3.433 l 0.336,-1.384 1.062,-0.11 c -0.335,-0.166 -0.671,-0.277 -0.951,-0.443 z m -1.845,-0.166 0.363,-0.803 0.028,0.027 c -0.615,-0.498 -1.062,-1.107 -1.398,-1.771 -0.056,0.553 -0.223,1.162 -0.727,1.716 -1.286,1.44 -2.684,2.381 -2.684,2.381 0,0 2.013,-0.775 3.02,-1.772 l 1.062,-1.052 c 0,0 -0.112,1.218 -0.783,2.215 l -1.677,2.436 c 0,0 2.293,-2.215 2.796,-3.377 z m 11.017,0.276 c -0.279,-0.166 0.28,-0.166 -0.279,-0.166 l 0.223,0 -0.223,0 -2.349,0.831 2.349,-0.831 c -0.504,0 -4.083,1.717 -5.09,1.274 -0.615,-0.111 -1.23,-0.277 -1.845,-0.443 l 0.168,0.111 -0.224,0.996 0.224,-0.996 c 0,0 -0.616,1.605 -0.056,3.155 0.503,1.551 2.852,1.993 2.852,1.993 0,0 -2.013,-0.664 -2.405,-1.882 -0.447,-1.218 0.392,-2.99 0.392,-2.99 l -0.336,1.052 0.336,-1.052 0.167,1.329 -0.167,-1.329 c 0,0 -0.392,2.381 2.293,3.322 2.684,0.941 4.026,-0.11 4.026,-0.11 l 0.448,-0.665 c 0,0 -1.902,1.218 -3.468,0.332 -1.566,-0.83 -1.566,-2.38 -1.566,-2.38 l 0.224,0.885 -0.224,-0.885 0.727,-0.056 -0.727,0.056 c 0,0 1.343,0 1.846,-0.443 l 0.503,-0.443 0.951,0.72 -0.951,-0.72 c 0,0 1.566,1.495 2.685,1.329 l 1.118,-0.167 c 0,0 -1.006,0.056 -1.733,-0.553 l -0.672,-0.609 0.504,0.166 -0.504,-0.166 c 0,0 0.783,0.387 1.622,0.111 0.895,-0.277 1.231,-0.499 1.231,-0.499 0,0 -1.79,-0.11 -2.07,-0.277 z"
                   inkscape:connector-curvature="0"
                   style="fill:#84562c" />
              </g>
              <g
                 id="drawingObject52">
                <path
                   id="path72"
                   d="m -18.433,-21.497 c 0.839,-0.831 -1.175,-1.44 -2.797,-1.44 q -0.839,0 -1.677,1.218 -0.895,1.273 -1.343,3.156 c -0.615,2.547 -0.559,5.592 -0.335,6.422 0.168,0.886 0.503,-1.938 1.957,-4.374 1.51,-2.38 3.3,-4.097 4.195,-4.982 z"
                   inkscape:connector-curvature="0"
                   style="fill:#ab7539" />
              </g>
              <g
                 id="drawingObject53">
                <path
                   id="path73"
                   d="m -25.48,-22.106 c 0.783,-0.499 -0.336,-0.388 -1.286,-0.167 q -1.622,0.443 -2.573,1.385 -1.063,0.996 -1.063,2.325 c 0,1.882 0.839,3.709 0.839,3.709 l 0.28,0.111 -0.28,-0.111 c 0,0 0.336,0.997 1.231,-2.27 0.839,-3.266 2.069,-4.429 2.852,-4.982 z"
                   inkscape:connector-curvature="0"
                   style="fill:#ab7539" />
              </g>
              <g
                 id="drawingObject54">
                <path
                   id="path74"
                   d="m -15.246,-19.228 c 0.336,-0.996 0.616,-2.325 -0.111,-1.494 q -1.51,2.214 -1.902,3.1 c -0.503,1.218 -1.79,5.038 -0.783,3.876 1.063,-1.218 2.461,-4.54 2.796,-5.482 z"
                   inkscape:connector-curvature="0"
                   style="fill:#ab7539" />
              </g>
              <g
                 id="drawingObject55">
                <path
                   id="path75"
                   d="m -13.232,-19.117 -0.28,-0.886 -0.503,2.215 q -0.615,2.436 -1.063,3.599 c -0.671,1.882 -1.118,2.546 -1.118,2.546 0,0 1.733,-2.103 2.572,-4.706 0.895,-2.546 0.112,-3.654 0.112,-3.654"
                   inkscape:connector-curvature="0"
                   style="fill:#ab7539" />
              </g>
              <g
                 id="drawingObject56">
                <path
                   id="path76"
                   d="m -10.212,-17.733 c -0.504,-0.553 -1.51,-1.439 -1.566,-0.553 l -0.168,1.827 q -0.335,2.159 -0.951,3.875 c -1.062,2.769 -2.293,4.208 -2.293,4.208 0,0 3.3,-2.99 4.027,-5.149 l 0.783,-2.824 c 0,0 0.671,-0.775 0.168,-1.384 z"
                   inkscape:connector-curvature="0"
                   style="fill:#ab7539" />
              </g>
              <g
                 id="drawingObject57">
                <path
                   id="path77"
                   d="m -8.814,-14.632 q -0.224,-0.554 -0.391,-0.609 -0.224,-0.111 -0.224,0.387 c 0,0.665 0.783,2.381 -0.112,4.374 -0.839,1.938 -2.237,3.322 -2.237,3.322 l 1.622,-1.329 -1.622,1.329 c 0,0 3.188,-1.993 3.467,-4.706 0.28,-2.768 -0.503,-2.768 -0.503,-2.768 z"
                   inkscape:connector-curvature="0"
                   style="fill:#ab7539" />
              </g>
              <g
                 id="drawingObject58">
                <path
                   id="path78"
                   d="m -32.303,-14.632 c 0.503,-1.606 -0.112,-2.547 -0.727,-2.049 q -0.895,0.775 -0.615,3.156 c 0.167,1.495 0.95,2.436 0.95,2.436 0,0 -0.167,-1.882 0.392,-3.543 z"
                   inkscape:connector-curvature="0"
                   style="fill:#ab7539" />
              </g>
              <g
                 id="drawingObject59">
                <path
                   id="path79"
                   d="m -34.037,-4.777 c 0.056,-0.499 -0.951,-4.153 -2.013,-5.205 q -0.615,-0.609 -1.063,1.108 -0.391,1.771 0.168,2.934 c 0.783,1.55 2.796,1.716 2.908,1.163 z"
                   inkscape:connector-curvature="0"
                   style="fill:#ab7539" />
              </g>
              <g
                 id="drawingObject60">
                <path
                   id="path80"
                   d="m -35.491,-1.511 -0.727,-0.775 q -0.615,-0.166 -0.727,0.609 -0.168,0.775 0.559,1.329 c 1.007,0.72 2.741,0.554 2.741,0.554 0,0 0.167,-0.222 -0.56,-0.665 -0.783,-0.443 -2.013,-1.827 -2.013,-1.827"
                   inkscape:connector-curvature="0"
                   style="fill:#ab7539" />
              </g>
              <g
                 id="drawingObject61">
                <path
                   id="path81"
                   d="m -35.099,3.638 -0.783,-0.332 q -0.336,0.609 0.055,1.495 0.392,0.996 1.678,0.996 c 1.902,0 2.237,-0.664 2.237,-0.664 0,0 -1.733,-0.111 -2.125,-0.72 -0.447,-0.609 -1.845,-1.107 -1.845,-1.107"
                   inkscape:connector-curvature="0"
                   style="fill:#ab7539" />
              </g>
              <g
                 id="drawingObject62">
                <path
                   id="path82"
                   d="m -32.415,10.67 -0.615,-0.167 0.615,0.831 q 0.783,0.886 1.454,0.83 c 1.175,-0.11 1.678,-0.885 1.678,-0.885 0,0 -0.951,0.276 -1.846,-0.167 -0.839,-0.442 -1.901,-0.609 -1.901,-0.609"
                   inkscape:connector-curvature="0"
                   style="fill:#ab7539" />
              </g>
              <g
                 id="drawingObject63">
                <path
                   id="path83"
                   d="m -27.493,12.773 -1.455,1.163 q -0.559,0.111 -0.95,0.388 -0.392,0.332 0.167,0.387 c 0.783,0.111 1.231,-0.609 1.734,-1.273 l 0.504,-0.665 z"
                   inkscape:connector-curvature="0"
                   style="fill:#ab7539" />
              </g>
            </g>
            <g
               id="group10">
              <g
                 id="drawingObject64">
                <path
                   id="path84"
                   d="m -21.006,-5.829 c -2.237,-1.772 -5.481,0 -6.879,1.827 q -1.454,1.827 -1.79,5.37 -0.391,4.429 2.014,7.585 c 3.635,4.762 9.787,4.651 11.577,2.713 -2.517,1.218 -4.53,1.274 -6.264,-1.938 -2.964,-5.37 -2.461,-14.395 1.734,-13.896 2.125,0.277 4.026,2.491 6.934,1.827 -3.299,0.277 -5.816,-2.27 -7.326,-3.488 z"
                   inkscape:connector-curvature="0"
                   style="fill:#84562c" />
              </g>
              <g
                 id="drawingObject65">
                <path
                   id="path85"
                   d="m -20.894,19.03 c 8.333,-0.775 9.843,-5.648 9.396,-8.527 q -0.336,-0.11 -1.119,0.72 -0.671,0.775 -1.23,1.772 c -2.237,3.82 -8.278,7.031 -14.374,3.654 2.405,1.716 4.922,2.602 7.327,2.381 z"
                   inkscape:connector-curvature="0"
                   style="fill:#84562c" />
              </g>
            </g>
            <g
               id="drawingObject66">
              <path
                 id="path86"
                 d="m -22.516,-5.442 c -1.063,-0.055 -2.349,-0.609 -3.635,-0.166 q -0.951,0.665 -1.734,1.606 c -1.454,1.772 -3.411,8.194 0.224,12.955 l 0.783,0.941 c -0.56,-1.273 -1.119,-3.1 -0.951,-5.37 0.224,-3.654 2.293,-5.703 3.971,-5.592 0.503,-1.993 1.566,-3.266 3.244,-3.1 l 1.062,0.277 c -0.895,-0.554 -1.51,-1.495 -2.964,-1.551 z"
                 inkscape:connector-curvature="0"
                 style="fill:#6f4925" />
            </g>
            <g
               id="drawingObject67">
              <path
                 id="path87"
                 d="m -26.263,10.448 -0.951,-0.941 1.007,1.273 q 1.51,1.384 3.859,1.993 c 6.208,1.551 8.165,-2.823 8.165,-2.823 0,0 -2.628,3.82 -8.277,2.214 -3.747,-1.107 -4.754,-2.657 -4.754,-2.657"
                 inkscape:connector-curvature="0"
                 style="fill:#c0884a" />
            </g>
            <g
               id="drawingObject68">
              <path
                 id="path88"
                 d="m -20.726,-21.276 c 1.006,-0.498 -0.28,-0.72 -0.951,-0.72 q -0.839,0 -1.566,1.772 -0.783,1.827 0,1.384 c 0.951,-0.498 1.454,-1.938 2.517,-2.436 z"
                 inkscape:connector-curvature="0"
                 style="fill:#c0884a" />
            </g>
            <g
               id="drawingObject69">
              <path
                 id="path89"
                 d="m -29.283,-19.061 c 1.007,-0.167 1.734,-2.326 1.286,-2.326 q -0.839,0 -1.454,1.218 -0.671,1.218 0.168,1.108 z"
                 inkscape:connector-curvature="0"
                 style="fill:#c0884a" />
            </g>
            <g
               id="drawingObject70">
              <path
                 id="path90"
                 d="m -33.254,-14.079 c 0.559,-0.609 0.056,-1.937 0.056,-1.937 q -0.391,0 -0.447,1.162 -0.056,1.163 0.391,0.775 z"
                 inkscape:connector-curvature="0"
                 style="fill:#c0884a" />
            </g>
            <g
               id="drawingObject71">
              <path
                 id="path91"
                 d="m -35.882,-7.435 c 0.503,-0.387 -0.28,-2.823 -0.783,-2.27 q -0.28,0.277 0.056,1.44 0.391,1.162 0.727,0.83 z"
                 inkscape:connector-curvature="0"
                 style="fill:#c0884a" />
            </g>
          </g>
        </g>
      </g>
    </g>
  </g>
</svg>
