<?xml version="1.0" encoding="UTF-8" standalone="no"?>
<!-- Generator: flash2svg, http://dissentgraphics.com/tools/flash2svg -->

<svg
   xmlns:dc="http://purl.org/dc/elements/1.1/"
   xmlns:cc="http://creativecommons.org/ns#"
   xmlns:rdf="http://www.w3.org/1999/02/22-rdf-syntax-ns#"
   xmlns:svg="http://www.w3.org/2000/svg"
   xmlns="http://www.w3.org/2000/svg"
   xmlns:sodipodi="http://sodipodi.sourceforge.net/DTD/sodipodi-0.dtd"
   xmlns:inkscape="http://www.inkscape.org/namespaces/inkscape"
   id="AvatarAssets"
   image-rendering="auto"
   version="1.1"
   x="0px"
   y="0px"
   width="74.625"
   height="63.352665"
   viewBox="0 0 74.625 63.352665"
   inkscape:version="0.48.4 r9939"
   sodipodi:docname="AvatarAssets_sideHatMoose.svg">
  <metadata
     id="metadata4117">
    <rdf:RDF>
      <cc:Work
         rdf:about="">
        <dc:format>image/svg+xml</dc:format>
        <dc:type
           rdf:resource="http://purl.org/dc/dcmitype/StillImage" />
      </cc:Work>
    </rdf:RDF>
  </metadata>
  <sodipodi:namedview
     pagecolor="#ffffff"
     bordercolor="#666666"
     borderopacity="1"
     objecttolerance="10"
     gridtolerance="10"
     guidetolerance="10"
     inkscape:pageopacity="0"
     inkscape:pageshadow="2"
     inkscape:window-width="640"
     inkscape:window-height="480"
     id="namedview4115"
     showgrid="false"
     fit-margin-top="0"
     fit-margin-left="0"
     fit-margin-right="0"
     fit-margin-bottom="0"
     inkscape:zoom="1.9032258"
     inkscape:cx="69.041"
     inkscape:cy="-30.617336"
     inkscape:window-x="0"
     inkscape:window-y="0"
     inkscape:window-maximized="0"
     inkscape:current-layer="AvatarAssets" />
  <defs
     id="defs3864" />
  <g
     id="sideHatMoose1"
     overflow="visible"
     style="overflow:visible"
     transform="translate(37.041,31.97)">
    <g
       id="sideHatMoose_1_1">
      <g
         id="element4">
        <path
           id="path60"
           d="m 29.851,-9.199 -0.1,-0.3 -3.7,-2.85 c -0.7,-0.5 -3.65,-1.4 -4.8,-1.75 l -0.45,-0.15 -11.75,1.15 c -3.5,0.35 -7.65,3.75 -9.15,4.5 -0.55,0.3 -1.6,1.9 -2.7,3.85 l -0.3,0.35 -0.05,0.25 c -1.8,3.3 -3.75,7.3 -4.2,8.05 -0.75,1.25 1.25,15.25 2.9,19.85 1.6,4.65 8.1,6.4 8.1,6.4 0,0 -1.5,-2.4 -1.6,-3.25 -0.15,-0.9 -0.15,-2.5 -0.15,-4.15 0,-1.6 -0.75,-9.5 -0.75,-9.5 l 0.4,4.15 -0.4,-4.15 0.65,1.15 0,-1.4 c 0,-1.35 -0.15,-4.25 -1.15,-9.6 -0.55,-3.05 0,-5.2 0.75,-6.5 0.45,-0.15 0.9,-0.1 1.4,0.2 2.3,1.4 3.4,1.75 4.05,1.9 l 1.25,0.35 c 0,0 -0.45,-0.4 -0.45,-0.75 l 0,-0.75 0.75,0.35 -0.75,-0.35 c 0,0 1,0.65 2.8,0.9 1.85,0.25 4.95,0.9 5.75,1.45 l 0.85,0.55 -0.95,-2 2.7,2.15 c 0.75,0.55 1.8,1.6 2.15,2.1 0.4,0.5 0.75,1.15 0.75,1.15 l -0.15,-2.55 0.6,0.15 -0.6,-0.15 c 0,0 1.15,0.25 1.5,0.5 l 1.9,1.85 -0.05,-2.1 0.15,-0.9 1.5,0.9 0.35,0.35 c 0,0 0.15,-1.1 0.25,-1.35 0.15,-0.25 0.3,-0.35 0.75,-0.15 0.45,0.2 0.9,0.8 0.9,0.8 l 0.3,-2.4 c 0,-0.35 0.2,-1 0.5,-1 l 0.3,0 c 0.25,-0.1 0.15,-0.45 0.25,-1.15 0.15,-0.7 0.55,-2.5 -0.2,-2.75 l -3.9,-1.3 0,-0.5 c 0,-0.9 0.85,-0.9 1.3,-1.05 0.5,-0.2 0.55,0.3 1.2,0.25 0.6,0 1,0.4 1,0.4 l 0.25,-0.5 c 0.25,-0.55 -0.05,-1 -0.05,-1 m -21.85,0.65 0.6,0.05 -3.5,0.6 0.05,-0.05 c 0.35,-0.5 2.85,-0.6 2.85,-0.6 z"
           inkscape:connector-curvature="0"
           style="fill:#000000;fill-opacity:0.08600003" />
      </g>
      <g
         id="element5">
        <g
           id="drawingObject58">
          <path
             id="path64"
             d="m 28.512,-6.985 -0.296,-0.064 0.325,0.665 c 1.68,-0.187 3.296,-0.614 4.376,-1.309 -1.432,0.233 -2.706,0.743 -4.405,0.708 z"
             inkscape:connector-curvature="0"
             style="fill:#9c622c" />
        </g>
        <g
           id="drawingObject59">
          <path
             id="path65"
             d="m 37.584,-24.791 c -2.253,0.28 -3.221,2.037 -5.816,1.966 0.957,-2.135 3.309,-4.679 5.107,-6.64 -2.917,1.14 -4.683,6.381 -7.766,7.401 -0.374,-2.826 3.215,-6.056 3.7,-8.754 -1.514,0.307 -1.896,4.493 -3.734,4.403 -1.453,-1.865 1.509,-4.058 1.091,-5.296 -1.983,1.888 -2.438,6.526 -3.479,8.2 -1.22,-0.433 -0.055,-5.913 -0.048,-7.41 -1.824,3.236 -2.652,11.904 -4.012,16.396 -0.101,0.388 -0.211,0.665 -0.387,0.971 1.082,0.645 2.136,1.493 3.043,2.444 3.813,-0.569 7.25,0.212 10.442,-2.425 0.48,-0.398 0.94,-1.286 1.503,-1.758 l 0.064,-0.564 q -1.337,1.878 -4.235,2.972 -3.028,1.15 -5.153,0.302 c 1.187,-2.847 2.383,-5.851 4.903,-7.204 1.513,-0.842 3.269,-0.41 4.624,-1.798 -1.597,0.381 -3.822,1.262 -5.364,0.968 1.086,-2.191 3.894,-2.518 5.517,-4.174 z"
             inkscape:connector-curvature="0"
             style="fill:#9c622c" />
        </g>
        <g
           id="group10">
          <g
             id="drawingObject60">
            <path
               id="path66"
               d="m 22.627,-14.525 -0.387,0.971 0.759,0.516 c 0.857,-0.944 0.984,-2.607 1.131,-3.245 0.239,-0.868 1.132,-9.028 1.259,-10.423 0.174,-1.377 1.25,-4.215 1.25,-4.215 l -0.579,1.59 0.579,-1.59 c -1.824,3.236 -2.652,11.904 -4.012,16.396 z"
               inkscape:connector-curvature="0"
               style="fill:#814f22" />
          </g>
        </g>
        <g
           id="group11">
          <g
             id="drawingObject61">
            <path
               id="path67"
               d="m 24.848,-11.498 0.435,0.388 c 3.813,-0.569 7.25,0.212 10.442,-2.425 0.48,-0.398 0.94,-1.286 1.503,-1.758 l 0.046,-0.249 -0.24,0.332 c -0.323,0.407 -0.986,1.268 -2.721,2.129 -1.671,0.834 -3.037,1.307 -4.395,1.355 -1.357,0.048 -2.918,0.068 -3.38,0.152 l -0.443,0.038 c 0,0 0.489,-0.287 0.904,-0.389 -0.397,0.056 -0.951,0.102 -1.431,0.232 l -0.72,0.195 z"
               inkscape:connector-curvature="0"
               style="fill:#814f22" />
          </g>
        </g>
        <g
           id="drawingObject62">
          <path
             id="path68"
             d="m 27.94,-12.675 c 1.169,-2.801 2.393,-5.741 4.867,-7.112 1.172,-0.657 2.456,-0.52 3.637,-1.067 l -0.415,0.102 c -1.182,0.279 -3.149,0.513 -3.823,0.726 -0.739,0.241 -1.514,0.575 -2.14,1.611 -0.627,1.035 -1.004,1.849 -1.004,1.849 l 0.774,-1.138 -1.511,2.719 q -0.627,1.035 -1.337,1.609 c -0.378,0.278 -0.6,0.296 -0.6,0.296 l 0.37,0.148 -0.489,0.287 1.671,-0.03 z"
             inkscape:connector-curvature="0"
             style="fill:#814f22" />
        </g>
        <g
           id="drawingObject63">
          <path
             id="path69"
             d="m 31.531,-20.884 -0.996,1.156 q 0.839,-0.629 1.55,-0.935 c 1.114,-2.127 3.765,-2.463 5.351,-4.026 -0.489,0.287 -1.172,0.657 -1.818,0.935 -0.969,0.417 -2.926,1.298 -3.479,1.88 l -0.978,0.842 0.37,0.148 z"
             inkscape:connector-curvature="0"
             style="fill:#814f22" />
        </g>
        <g
           id="drawingObject64">
          <path
             id="path70"
             d="m 28.449,-24.844 -0.056,-0.397 -1.188,2.311 -0.368,0.925 -0.805,-1.071 -0.153,2.67 c -0.146,1.174 -0.321,2.015 -0.477,2.542 q -0.211,0.665 -0.495,2.32 -0.257,1.45 -0.413,1.709 l -0.507,0.87 1.228,-0.261 c 0.591,-0.139 0.877,-0.454 1.199,-0.861 0.323,-0.407 0.978,-0.842 1.337,-1.877 0.377,-1.081 0.837,-2.237 1.27,-3.189 0.433,-0.952 0.599,-1.1 0.903,-1.461 l 0.765,-0.981 c 0,0 -0.581,0.251 -0.526,0.112 l 0.009,-0.157 -0.785,0.491 c -0.285,0.314 -0.959,0.796 -0.959,0.796 0,0 -0.241,-0.471 -0.251,-1.118 -0.01,-0.647 0.053,-1.478 0.237,-1.941 l 0.423,-1.331 c 0,0 -0.351,0.075 -0.388,-0.101 z"
             inkscape:connector-curvature="0"
             style="fill:#8f5a28" />
        </g>
        <g
           id="drawingObject65">
          <path
             id="path71"
             d="m 25.676,-26.485 -0.543,7.817 -0.091,0.499 -0.058,-1.201 -0.102,-0.415 -0.173,1.913 c 0.002,0.803 -0.385,1.774 -0.412,2.245 l -0.119,0.703 c 0,0 0.755,-1.628 0.819,-2.191 l 0.018,-0.582 -0.008,1.496 -0.027,0.204 c 0,0 1.056,-4.132 0.997,-6.404 -0.04,-2.319 0.15,-5.35 0.269,-6.052 l 0.311,-2.126 -0.661,2.736 c -0.147,0.638 -0.22,1.09 -0.22,1.358 z"
             inkscape:connector-curvature="0"
             style="fill:#b67337" />
        </g>
        <g
           id="drawingObject66">
          <path
             id="path72"
             d="m 31.907,-28.553 0.902,-2.265 -0.359,0.499 -0.7,1.489 c -0.322,0.675 -0.461,0.887 -0.912,1.618 -0.479,0.666 -0.783,1.294 -0.783,1.294 0,0 1.392,-1.748 1.852,-2.635 z"
             inkscape:connector-curvature="0"
             style="fill:#b67337" />
        </g>
        <g
           id="drawingObject67">
          <path
             id="path73"
             d="m 30.185,-31.489 -0.433,0.416 -0.543,1.23 c -0.24,0.601 -0.663,1.396 -0.764,2.052 -0.147,0.638 -0.073,0.989 0.168,1.46 0.195,0.452 0.408,0.59 0.5,0.627 l 0.139,0.055 -0.334,-0.775 c -0.139,-0.323 -0.186,-0.878 -0.048,-1.358 0.11,-0.546 0.349,-1.414 0.689,-2.136 l 0.498,-0.98 c 0.129,-0.323 0.248,-0.49 0.128,-0.591 z"
             inkscape:connector-curvature="0"
             style="fill:#b67337" />
        </g>
        <g
           id="drawingObject68">
          <path
             id="path74"
             d="m 28.996,-23.662 0.165,-0.684 -0.396,0.86 c -0.202,0.508 -0.128,0.859 -0.127,1.127 0.046,0.287 0.111,0.527 0.407,0.859 0.296,0.332 0.369,-0.121 0.369,-0.121 0,0 -0.138,-0.055 -0.305,-0.443 l -0.113,-1.598 z"
             inkscape:connector-curvature="0"
             style="fill:#b67337" />
        </g>
        <g
           id="drawingObject69">
          <path
             id="path75"
             d="m 36.608,-29.197 c -0.49,0.287 -1.163,0.768 -1.366,1.009 -0.295,0.471 -0.461,0.619 -0.894,1.036 -0.434,0.416 -1.918,2.395 -2.443,3.311 q -0.571,0.897 -0.534,1.072 l 0.563,0.064 c 0,0 -0.065,-0.24 0.036,-0.628 0.148,-0.37 2.001,-2.738 2.434,-3.154 1.042,-1.406 1.77,-2.294 2.204,-2.71 z"
             inkscape:connector-curvature="0"
             style="fill:#b67337" />
        </g>
        <g
           id="drawingObject70">
          <path
             id="path76"
             d="m 32.085,-20.663 c -0.462,0.084 -2.057,1.536 -2.159,1.656 -0.055,0.139 0.747,-0.666 1.319,-1.027 0.573,-0.361 0.748,-0.398 1.127,-0.408 0.314,0.018 1.865,-0.113 2.391,-0.225 q 1.182,-0.279 1.459,-0.436 l 1.071,-0.537 -1.367,0.473 -1.8,0.353 -2.041,0.151 z"
             inkscape:connector-curvature="0"
             style="fill:#b67337" />
        </g>
        <g
           id="drawingObject71">
          <path
             id="path77"
             d="m 26.639,-12.23 c 0.711,-0.038 1.228,0.008 1.644,0.173 q 0.739,0.295 1.635,0.063 c 0.895,-0.232 2.272,-0.059 3.056,-0.549 0.785,-0.491 1.717,-0.816 2.289,-1.177 0.572,-0.361 0.987,-0.731 1.19,-0.971 l 0.821,-0.851 -1.559,1.092 c -0.434,0.416 -1.588,1.028 -2.28,1.287 -0.711,0.306 -2.363,0.826 -2.899,0.826 -0.508,0.066 -1.523,0.196 -2.078,-0.025 -0.573,-0.174 -0.785,-0.313 -1.201,-0.211 -0.397,0.056 -0.776,0.066 -0.923,0.168 l -0.383,0.222 0.023,0.009 c 0.157,0.009 0.378,-0.009 0.665,-0.056 z"
             inkscape:connector-curvature="0"
             style="fill:#b67337" />
        </g>
        <g
           id="drawingObject72">
          <path
             id="path78"
             d="m 27.528,-23.337 c -0.138,0.213 -1.115,2.127 -1.225,2.672 -0.064,0.564 0.627,-0.767 0.333,0.24 l -1.488,5.619 0.681,-1.442 c 0.203,-0.508 0.406,-0.213 0.534,-1.34 l 0.228,-1.784 c 0.101,-0.388 0.157,-0.527 0.211,-1.201 0.055,-0.675 0.137,-1.284 0.431,-2.024 l 0.295,-0.74 z"
             inkscape:connector-curvature="0"
             style="fill:#9c622c" />
        </g>
        <g
           id="drawingObject73">
          <path
             id="path79"
             d="m 27.993,-21.009 -0.581,0.518 q 0.12,0.37 -0.036,0.629 -0.194,0.351 -0.138,0.748 c 0.131,0.748 -0.099,1.46 -0.099,1.46 0,0 0.184,-0.194 0.23,-0.712 0.073,-0.452 0.395,-1.127 0.284,-1.386 -0.065,-0.24 -0.092,-0.037 0.027,-0.471 l 0.313,-0.786 z"
             inkscape:connector-curvature="0"
             style="fill:#9c622c" />
        </g>
        <g
           id="drawingObject74">
          <path
             id="path80"
             d="m 26.476,-15.99 0.303,-1.432 -0.248,0.757 c -0.138,0.481 -0.507,0.87 -0.599,1.101 -0.092,0.231 -0.138,0.48 -0.082,0.878 0.075,0.351 0,0 0.268,-0.269 q 0.304,-0.36 0.358,-1.035 z"
             inkscape:connector-curvature="0"
             style="fill:#9c622c" />
        </g>
      </g>
      <g
         id="element6">
        <g
           id="drawingObject75">
          <path
             id="path81"
             d="m 11.451,-21.499 -0.35,0.2 c -0.35,0.2 -0.65,0.75 -0.65,0.75 l -0.1,-0.7 c -0.15,-0.65 0.35,-1.45 0.35,-1.45 l -0.25,0.5 0.25,-0.5 -1.2,0.75 c -0.6,0.4 -0.15,1.25 -0.15,1.25 l -0.65,-0.45 c -0.65,-0.45 -1.35,-1.3 -1.65,-1.95 l -1.1,-1.55 -0.15,1.15 c -0.1,0.8 -0.05,1.4 -0.05,1.4 l -1.7,-1.5 c -1.25,-1.2 -3.2,-1.75 -3.2,-1.75 l 1.15,0.45 -1.15,-0.45 0.85,1.15 c 0.65,0.75 1.55,2.5 1.55,2.5 0,0 -0.75,-0.55 -2.9,-1.3 -2.2,-0.75 -2.65,-0.5 -3.05,-0.45 -0.45,0 0,0 0.9,0.4 0.9,0.35 2,1.9 2,1.9 l -0.5,-0.25 -1.35,-0.3 0.4,0.25 c 0.45,0.2 0.65,1.1 -0.7,1.8 -1.35,0.75 -3.9,1.5 -6.4,2.8 -2.45,1.35 -3.8,4.25 -3.8,4.25 l -0.55,-0.35 0,2.1 c 0,2.1 -1.3,2.55 -1.55,2.6 -0.25,0.05 -0.4,0.9 -0.4,0.9 l 1,0.2 -0.15,0.9 c -0.15,0.9 -1.5,2.8 -2.1,4.4 -0.65,1.6 -1.05,3.8 -1.05,3.8 l -0.5,-0.35 c -0.3,-0.2 -0.35,-0.45 -0.4,-0.6 l -0.1,1.55 c -0.05,0.75 0.75,1.8 0.75,1.8 l -0.25,-0.05 -1.9,-0.2 1,0.75 c 0.45,0.5 0.75,1.3 0.75,1.3 l -1.5,-0.6 0.3,0.3 -0.3,-0.3 c 0,0 0.55,0.45 0.8,1 l 1.5,4 c 0.5,1.4 3.7,3.5 3.7,3.5 0,0 -0.65,0.65 -1,0.7 -0.35,0 -1.4,-0.9 -1.4,-0.9 l 0.55,0.45 -0.55,-0.45 0.8,1.2 c 0.75,1.2 2.1,1.75 2.1,1.75 l -1.1,-0.25 1.1,1.25 c 1.1,1.25 2.5,2.25 2.5,2.25 l -0.45,1.25 0.45,-0.15 -0.45,0.15 c 0,0 0.65,-0.45 1.75,0.15 1.05,0.55 1.85,2.15 1.85,2.15 l 0.15,0.3 -0.15,-0.3 c 0,0 0.35,0.5 0.3,0.9 0,0.45 0.2,0.45 0.3,1.65 0.1,1.2 -0.3,1.55 -0.3,1.55 l -0.95,-0.75 0.35,1 c 0.35,1 1.3,0.85 1.3,0.85 l -0.25,0.25 c -0.3,0.2 -1.05,-0.15 -1.05,-0.15 l 0.5,0.45 c 0.5,0.5 1.5,0.5 1.5,0.5 l 0.15,0.45 c 0.15,0.45 -0.25,0.9 -0.25,0.9 l 0.7,0.1 c 0.65,0.1 1.1,-0.85 1.1,-0.85 l 0.55,0.6 c 0.55,0.55 1.25,0.25 1.25,0.25 l -0.4,-0.15 c -0.45,-0.15 -0.05,-0.75 -0.05,-0.75 l -0.15,0.3 0.15,-0.3 0.8,-0.05 -0.35,-0.05 c -0.35,-0.05 -0.6,-1.5 0.05,-2.85 0.6,-1.35 1.45,-2.3 1.45,-2.3 l -0.5,0.65 0.5,-0.65 -0.25,1.9 1.05,-2.45 c 1,-2.45 0,-7.5 -0.4,-9.2 -0.35,-1.75 0.5,-4.75 0.5,-4.75 l -0.4,1.7 0.4,-1.7 0.6,1.55 0.15,-2.2 c 0.1,-1.5 -1.25,-4.05 -1.35,-7.25 -0.1,-3.2 0.6,-5.95 0.75,-7 0.15,-1.1 1.4,-2.65 1.4,-2.65 l -0.65,0.9 0.65,-0.9 0.1,0.75 c 0.1,0.8 1.3,0.8 1.3,0.8 0,0 -0.6,-1.1 -0.7,-1.9 -0.1,-0.75 0.35,-1.25 0.35,-1.25 l -0.2,0.35 0.2,-0.35 1.2,1.15 -0.3,-0.6 c -0.3,-0.65 0.5,-1.35 0.5,-1.35 l -0.35,0.45 0.35,-0.45 1.45,0.55 c 1.1,0.4 1.45,0.9 1.4,0.85 -0.3,-0.35 -0.6,-0.7 -0.9,-0.95 l -1.05,-1 1.05,0.3 c 0.7,0.25 1.3,0.75 1.55,1 l -0.25,-0.3 -1.55,-1.4 2.95,0.65 c 2.2,0.5 3.5,1.5 3.5,1.5 l -0.15,-0.25 -1.1,-1.35 2.7,0.9 c 0.8,0.3 4.1,2.4 4.6,2.7 l 0.15,0.1 -0.15,-0.1 c 0.5,0.35 0,0 -0.25,-0.35 l -0.95,-1.15 2.65,1.3 c 1,0.6 1.55,1.25 1.55,1.25 l -0.75,-1.8 1.35,0.9 c 1.3,0.85 2.3,1.35 2.3,1.35 0.55,0.6 1.35,1.3 1.35,1.3 l -0.2,-0.8 c -0.15,-0.65 -0.8,-1.85 -1,-2.2 l 0.25,0.2 0.05,0.05 1,1.25 c 0.7,1.15 0.75,1.55 0.75,1.55 0,0 0,-1.5 -0.1,-2.25 l -0.25,-1.5 0.55,0.5 0.3,0.35 c 0,0 0.3,-0.4 0.15,-1.15 l -0.25,-1.35 0.45,0.05 -0.45,-0.05 c 0,0 0.75,0 1.2,0.25 l 0.4,0.3 0.2,-1 0.65,0.6 c 0,0 -0.3,-1.2 -0.05,-1 0.25,0.15 0.4,-0.1 1.3,0.8 0.9,0.85 2,2.05 2.35,2.55 0.3,0.5 0.75,1.7 0.75,1.7 0,0 -0.05,-1 0,-1.45 0,-0.4 0.6,-0.95 0.6,-0.95 l -0.3,0.35 0.3,-0.35 -0.85,-0.1 -0.1,-1.95 -0.75,0.3 -0.25,0.2 c 0,0 -0.9,-1.7 -1.8,-2.35 l -0.55,-0.3 -0.1,-0.1 0.35,-0.05 0.85,0.05 -0.65,-0.5 c -0.65,-0.5 -1.35,-0.55 -1.35,-0.55 l 0.45,0.1 -0.45,-0.1 0.05,-0.65 c 0.05,-0.65 -0.5,-1.1 -0.5,-1.1 l 0.25,0.3 -0.25,-0.3 -0.4,0.45 c -0.2,0.4 0,-0.75 -1.35,-1.45 -1.3,-0.7 -3.45,-2.1 -6.15,-3.1 -4.25,-1.55 -7.9,-1.6 -8.75,-1.95 -0.85,-0.4 -1,-1.5 -1,-1.5 z"
             inkscape:connector-curvature="0"
             style="fill:#fefce9" />
        </g>
        <g
           id="drawingObject76">
          <path
             id="path82"
             d="m 14.151,-18.099 c -2.85,-0.5 -4.6,-0.4 -4.6,-0.4 l 1.25,0 -1.25,0 1,-0.1 c 1,-0.15 3.1,0 3.1,0 l -1.25,-0.25 c -1.25,-0.25 -3,-0.75 -4.35,-1.15 -1.4,-0.35 -0.65,-0.5 -1.15,-1.1 -0.5,-0.65 -0.5,-1 -0.5,-1 l 0.05,0.25 -0.05,-0.25 -0.1,1.6 -0.5,-0.6 c -0.5,-0.65 -2.25,-1.75 -2.25,-1.75 l 0.95,0.65 -0.95,-0.65 1,1.85 c 0.35,0.5 0.35,1.5 0.35,1.5 l -2.5,-1.75 c -0.75,-0.5 -2.25,-0.85 -2.25,-0.85 l 0.85,0.25 -0.85,-0.25 0.35,0.45 -0.35,-0.45 c 0,0 0.65,0.75 0.75,1.25 l 0.25,1.25 -0.6,-0.4 c -0.65,-0.35 -1,-0.1 -1,-0.1 l 0.25,-0.1 -0.25,0.1 0,0.35 c 0,0.4 0,0.5 -1.75,1.25 -1.75,0.75 -4.65,1.75 -6.9,3.65 -2.25,1.85 -2.25,2.85 -2.25,2.85 l -0.5,-0.1 -0.25,0.75 c -0.05,0.2 -0.3,0.55 -0.65,0.95 -0.15,1.7 -1.25,2.15 -1.5,2.15 l -0.15,0.1 c -0.1,0.3 -0.25,0.55 -0.25,0.8 l 1,0.2 -0.15,0.9 q -0.1,0.45 -0.9,1.95 -0.9,1.7 -1.2,2.45 c -0.65,1.6 -1.05,3.8 -1.05,3.8 l -0.5,-0.35 c -0.3,-0.2 -0.35,-0.45 -0.4,-0.6 l -0.1,1.55 c -0.05,0.75 0.75,1.8 0.75,1.8 l -0.25,-0.05 -1.9,-0.2 1,0.75 c 0.45,0.5 0.75,1.3 0.75,1.3 l -1.5,-0.6 0.3,0.3 -0.3,-0.3 c 0,0 0.55,0.45 0.8,1 l 1.5,4 c 0.5,1.4 3.7,3.5 3.7,3.5 0,0 -0.65,0.65 -1,0.7 -0.35,0 -1.4,-0.9 -1.4,-0.9 l 0.55,0.45 -0.55,-0.45 0.8,1.2 c 0.75,1.2 2.1,1.75 2.1,1.75 l -1.1,-0.25 1.1,1.25 c 1.1,1.25 2.5,2.25 2.5,2.25 l -0.45,1.25 0.45,-0.15 -0.45,0.15 c 0,0 0.65,-0.45 1.75,0.15 1.05,0.55 1.85,2.15 1.85,2.15 l 0.15,0.3 -0.15,-0.3 c 0,0 0.35,0.5 0.3,0.9 0,0.45 0.2,0.45 0.3,1.65 0.1,1.2 -0.3,1.55 -0.3,1.55 l -0.95,-0.75 0.35,1 c 0.35,1 1.3,0.85 1.3,0.85 l -0.25,0.25 c -0.3,0.2 -1.05,-0.15 -1.05,-0.15 l 0.5,0.45 c 0.5,0.5 1.5,0.5 1.5,0.5 l 0.15,0.45 c 0.15,0.45 -0.25,0.9 -0.25,0.9 l 0.7,0.1 c 0.65,0.1 1.1,-0.85 1.1,-0.85 l 0.55,0.6 c 0.55,0.55 1.25,0.25 1.25,0.25 l -0.4,-0.15 c -0.45,-0.15 -0.05,-0.75 -0.05,-0.75 l -0.15,0.3 0.15,-0.3 0.15,0 c -0.2,-0.35 -0.3,-0.8 -0.3,-1.75 0,-1.65 0.25,-2 0.75,-3.25 0.5,-1.25 0.5,-0.9 1,-2.4 0.5,-1.5 -0.6,-3.25 -0.6,-5.5 0,-2.25 0,-2.85 -0.15,-4.6 -0.1,-1.75 0.5,-3.9 0.5,-3.9 l -0.3,1.3 0.3,-1.3 0.5,-0.1 -0.1,-1.5 c -0.15,-1.5 -0.4,-3.5 -0.4,-6.75 0,-2.1 0.9,-3.45 1.5,-4.15 l 0.15,-0.75 c 0.15,-1.1 1.4,-2.65 1.4,-2.65 l -0.65,0.9 0.65,-0.9 0.1,0.75 c 0.1,0.8 1.3,0.8 1.3,0.8 0,0 -0.6,-1.1 -0.7,-1.9 -0.1,-0.75 0.35,-1.25 0.35,-1.25 l -0.2,0.35 0.2,-0.35 1.2,1.15 -0.3,-0.6 c -0.3,-0.65 0.5,-1.35 0.5,-1.35 l -0.35,0.45 0.35,-0.45 1.45,0.55 c 1.1,0.4 1.45,0.9 1.4,0.85 -0.3,-0.35 -0.6,-0.7 -0.9,-0.95 l -1.05,-1 1.05,0.3 c 0.7,0.25 1.3,0.75 1.55,1 l -0.25,-0.3 -1.55,-1.4 2.95,0.65 c 2.2,0.5 3.5,1.5 3.5,1.5 l -0.15,-0.25 -1.1,-1.35 2.7,0.9 c 0.8,0.3 4.1,2.4 4.6,2.7 l 0.15,0.1 -0.15,-0.1 c 0.5,0.35 0,0 -0.25,-0.35 l -0.95,-1.15 2.65,1.3 c 1,0.6 1.55,1.25 1.55,1.25 l -0.75,-1.8 1.35,0.9 c 1.3,0.85 2.3,1.35 2.3,1.35 0.55,0.6 1.35,1.3 1.35,1.3 l -0.2,-0.8 c -0.15,-0.65 -0.8,-1.85 -1,-2.2 l 0.25,0.2 0.05,0.05 1,1.25 c 0.7,1.15 0.75,1.55 0.75,1.55 0,0 0,-1.5 -0.1,-2.25 l -0.25,-1.5 0.55,0.5 0.3,0.35 c 0,0 0.3,-0.4 0.15,-1.15 l -0.25,-1.35 0.45,0.05 -0.45,-0.05 c 0,0 0.75,0 1.2,0.25 l 0.4,0.3 0.2,-1 0.65,0.6 c 0,0 -0.3,-1.2 -0.05,-1 0.25,0.15 0.4,-0.1 1.3,0.8 0.9,0.85 2,2.05 2.35,2.55 0.3,0.5 0.75,1.7 0.75,1.7 0,0 -0.05,-1 0,-1.45 0,-0.4 0.6,-0.95 0.6,-0.95 l -0.3,0.35 0.3,-0.35 -0.85,-0.1 -0.1,-1.95 -0.75,0.3 -0.25,0.2 c 0,0 -0.9,-1.7 -1.8,-2.35 l -0.55,-0.3 c -1.75,-0.2 -0.65,0.3 -0.65,0.3 l -1,-0.1 -0.65,-0.65 c -0.6,-0.6 -0.5,-0.25 -0.5,-0.25 l 0.05,-0.1 -0.05,0.1 -0.25,0.9 -1,-0.75 0.15,0.4 -0.15,-0.4 c 0,0 0.25,0.5 0.25,1.75 0,1.25 0,0 -0.75,-0.15 -0.75,-0.1 -1.5,-0.6 -1.5,-0.6 l 0.45,0.25 -0.45,-0.25 0.65,0.75 c 0.6,0.75 0.25,1.5 0.25,1.5 l -1.15,-1.15 c -1.1,-1.1 -2.25,-1.75 -2.25,-1.75 l 0.7,0.45 -0.7,-0.45 0.25,0.75 c 0.25,0.75 0.15,0.9 0.15,0.9 l -0.9,-0.5 -0.35,0.75 c -0.4,0.75 0,0 -1.4,-0.4 -1.35,-0.35 -1.25,-0.5 -3,-1.1 l -3.5,-1.15 3,0 -1,-0.75 c -1,-0.75 -2.75,-1.5 -2.75,-1.5 l 1,0.45 -1,-0.45 0.8,0.05 -0.8,-0.05 c 0,0 1.15,0 2.9,0.5 1.75,0.5 4.1,0.75 4.1,0.75 l -0.85,-0.25 c -0.9,-0.25 -2.15,-0.75 -4,-1.75 -1.05,-0.55 -2.05,-0.8 -3,-0.85 l -0.125,0 0.1,0 4.525,0.1 -1.15,-0.6 c -1.1,-0.65 -3.1,-1.25 -3.1,-1.25 l 1.15,0.4 -1.15,-0.4 5.25,0 -2.9,-0.5 z"
             inkscape:connector-curvature="0"
             style="fill:#f4f1d9" />
        </g>
        <g
           id="drawingObject77">
          <path
             id="path83"
             d="m 1.801,-17.349 0,-1.225 0,0.025 c 0,0.45 -0.45,0.8 -1.4,1.05 l -4,1.5 1.4,-1.5 c 0,0 -1.15,0.25 -4.75,1.75 -3.65,1.5 -4.5,3.5 -5.15,4.4 l -0.6,0.55 c 0,2.05 -1.3,2.5 -1.55,2.55 -0.25,0.05 -0.4,0.9 -0.4,0.9 l 1,0.2 -0.15,0.9 c -0.15,0.9 -1.5,2.8 -2.1,4.4 -0.65,1.6 -1.05,3.8 -1.05,3.8 l -0.5,-0.35 c -0.3,-0.2 -0.35,-0.45 -0.4,-0.6 l -0.1,1.55 c -0.05,0.75 0.75,1.8 0.75,1.8 l -0.25,-0.05 -1.9,-0.2 1,0.75 c 0.45,0.5 0.75,1.3 0.75,1.3 l -1.5,-0.6 0.3,0.3 -0.3,-0.3 c 0,0 0.55,0.45 0.8,1 l 1.5,4 c 0.5,1.4 3.7,3.5 3.7,3.5 0,0 -0.65,0.65 -1,0.7 -0.35,0 -1.4,-0.9 -1.4,-0.9 l 0.55,0.45 -0.55,-0.45 0.8,1.2 c 0.75,1.2 2.1,1.75 2.1,1.75 l -1.1,-0.25 1.1,1.25 c 1.1,1.25 2.5,2.25 2.5,2.25 l -0.45,1.25 0.45,-0.15 -0.45,0.15 c 0,0 0.65,-0.45 1.75,0.15 1.05,0.55 1.85,2.15 1.85,2.15 l 0.15,0.3 -0.15,-0.3 c 0,0 0.35,0.5 0.3,0.9 0,0.45 0.2,0.45 0.3,1.65 0.1,1.2 -0.3,1.55 -0.3,1.55 l -0.95,-0.75 0.35,1 c 0.35,1 1.3,0.85 1.3,0.85 l -0.25,0.25 c -0.3,0.2 -1.05,-0.15 -1.05,-0.15 l 0.5,0.45 c 0.5,0.5 1.5,0.5 1.5,0.5 l 0.15,0.45 c 0.15,0.45 -0.25,0.9 -0.25,0.9 l 0.7,0.1 c 0.65,0.1 1.1,-0.85 1.1,-0.85 l 0.55,0.6 c 0.55,0.55 1.25,0.25 1.25,0.25 l -0.4,-0.15 c -0.45,-0.15 -0.05,-0.75 -0.05,-0.75 l -0.15,0.3 0.15,-0.3 0.5,-0.05 -0.05,-0.05 c -0.1,0 -0.15,-0.1 -0.2,-0.25 -1.3,-1.6 0.15,-4.05 0.75,-5.15 0.6,-1.15 0.85,-3.15 0.5,-5.65 -0.4,-2.5 -0.25,-8.35 -0.15,-10.25 0.15,-1.85 0.5,-0.1 0.5,-0.1 0,0 0,-0.9 -0.35,-4.15 -0.4,-3.25 0.25,-6.6 0.5,-8.75 0.25,-2.1 4,-6.6 4.5,-7 0.5,-0.35 3.6,-0.5 3.6,-0.5 0,0 -0.6,-0.35 -1.35,-0.5 q -0.75,-0.1 -2.5,-0.1 c -0.65,0 -1.9,0.25 -2.9,0.85 -1,0.65 0,0 0.25,-0.85 0.1,-0.35 0.45,-0.65 1,-0.95 0.3,-0.15 0.6,-0.3 0.85,-0.35 l -0.025,-0.025 -2.075,0.675 0.4,-0.5 c 0.35,-0.5 3.5,-2.75 3.5,-2.75 l -1.6,1.2 1.6,-1.2 -1.65,0.25 c -1.6,0.25 -2.75,1.65 -3.1,1.9 -0.4,0.25 0.1,-0.5 1.35,-1.65 1.25,-1.1 3.15,-2.1 3.15,-2.1 l -1.1,0.65 1.1,-0.65 -3,0.25 z"
             inkscape:connector-curvature="0"
             style="fill:#e8e5cd" />
        </g>
        <g
           id="drawingObject78">
          <path
             id="path84"
             d="m -9.349,-5.999 c 1,0.5 1.25,1.15 1.25,1.15 l -0.1,-0.9 c -0.15,-0.85 -1.4,-1.6 -2.15,-1.6 l -1.5,0.1 0.25,0.35 -0.25,-0.35 c 0,0 0.4,0.65 0.9,0.65 0.5,0 0.6,0.1 1.6,0.6 z"
             inkscape:connector-curvature="0"
             style="fill:#fefce9" />
        </g>
        <g
           id="drawingObject79">
          <path
             id="path85"
             d="m -7.849,-3.849 c 0,0 -1.1,0.5 -1.5,1.35 q -0.6,1.45 -0.6,1.5 c 0,0.4 0.1,1 0.5,0.9 0.35,-0.15 0.85,-0.9 0.85,-0.9 0,0 0,-0.25 0.25,-0.75 l 0.25,-1 -0.75,0.4 c 0,0 0.25,-0.5 0.65,-1 l 0.35,-0.5 z"
             inkscape:connector-curvature="0"
             style="fill:#fefce9" />
        </g>
        <g
           id="drawingObject80">
          <path
             id="path86"
             d="m -13.099,0.901 0.5,0.25 1.15,-0.15 0.5,0 0.75,-0.35 -0.65,-0.75 -0.85,0.35 -1.65,-0.1 -0.05,0.3 0.05,-0.3 c 0,0 -0.25,0.5 0.25,0.75 z"
             inkscape:connector-curvature="0"
             style="fill:#fefce9" />
        </g>
        <g
           id="drawingObject81">
          <path
             id="path87"
             d="m -7.099,-5.199 -0.35,-0.4 q 0.05,0.2 0.15,0.4 0.05,0.25 -0.05,0.7 c -0.1,0.75 -1,2.25 -1,2.75 0,0.5 -1.25,2.4 -1.85,2.4 -0.65,0 -1.9,0.6 -2.4,0.5 -0.5,-0.15 -0.75,-1 -0.75,-1 l 0.2,0.45 -0.2,-0.45 c 0,0 -1,-0.15 -1.1,-0.9 l -0.15,-0.75 -0.5,0.45 0.5,-0.45 c 0,0 -1,0.65 -1.1,1.5 l -0.4,1.9 0.25,-1 0.5,0.05 -0.5,-0.05 c 0,0 0.9,-0.25 1.25,1.1 0.4,1.4 0.9,1.75 0.9,1.75 l 0.1,-1.35 0.05,0.3 -0.05,-0.3 c 0,0 -0.1,0.35 0.5,1.25 0.65,0.85 1.15,1.35 1.15,1.35 l 0,-2.5 0.75,2.75 c 0,0 0.1,-1.35 0.35,-2.1 l 0.25,-0.75 0.1,0.05 -0.1,-0.05 c 0,0 0.15,-0.15 0.25,0.85 l 0.25,1.75 c 0,0 0.25,-0.85 0.75,-1.85 0.5,-1 0.5,-0.65 0.65,-1.5 l 0.25,-1.5 0.2,0.35 -0.2,-0.35 c 0,0 0.35,0.5 0.35,1.25 l 0,1.75 c 0,0 0.65,-1 0.75,-2.25 0.15,-1.25 -0.1,-1.15 0.15,-1.75 0.25,-0.65 0.35,-0.65 0.5,-1.25 0.1,-0.65 0.1,-0.9 0.1,-1.5 0,-0.65 0.25,0.1 0,-0.65 -0.25,-0.75 -0.85,-1.35 -0.85,-1.35"
             inkscape:connector-curvature="0"
             style="fill:#d0cdb8" />
        </g>
        <g
           id="drawingObject82">
          <path
             id="path88"
             d="m -0.549,-1.549 c -0.15,0.25 -0.35,0.55 -0.4,0.95 -0.25,1 -0.9,3 -0.9,3 l 0,-1.75 c 0,-1.75 0.5,-6.25 0.5,-6.25 l -0.25,2.45 0.25,-2.45 -0.75,1.6 c -0.5,1 -0.75,3.4 -0.75,3.4 0,0 -0.1,-0.5 -0.5,-1.65 -0.35,-1.1 -0.25,-3.5 -0.25,-3.5 l 0,1.35 0,-1.35 -1,6.15 0,-2.25 -0.75,2.1 c -0.35,1 -1,4.25 -1,4.25 l -0.25,-4.25 0,0.65 c 0,0.6 -0.75,1.75 -1.5,2.25 -0.75,0.5 -0.25,4.75 -0.25,4.75 l -0.5,-1.65 0,-1.35 -0.6,1.6 c -0.25,0.75 -0.4,1.9 -0.4,1.9 l -0.6,-0.75 c -0.65,-0.75 -0.75,-2.4 -0.75,-2.4 l 0.15,0.9 -0.15,-0.9 -0.05,0.25 0.05,-0.25 c 0,0 0,0.4 -0.4,0.9 -0.35,0.5 0,2.35 0,2.35 l -1.25,-2.5 -0.1,1.5 -1.9,-2.45 c -0.4,-0.55 -0.55,-1.1 -0.55,-1.45 l -0.2,1.9 c 0,0 -0.6,-1.5 -0.85,-2.5 l -0.4,-1.55 -0.1,0.5 -0.5,-0.35 c -0.3,-0.2 -0.35,-0.45 -0.4,-0.6 l -0.1,1.55 c -0.05,0.75 0.75,1.8 0.75,1.8 l -0.25,-0.05 -1.9,-0.2 1,0.75 c 0.45,0.5 0.75,1.3 0.75,1.3 l -1.5,-0.6 0.3,0.3 -0.3,-0.3 c 0,0 0.55,0.45 0.8,1 l 1.5,4 c 0.5,1.4 3.7,3.5 3.7,3.5 0,0 -0.65,0.65 -1,0.7 -0.35,0 -1.4,-0.9 -1.4,-0.9 l 0.55,0.45 -0.55,-0.45 0.8,1.2 c 0.75,1.2 2.1,1.75 2.1,1.75 l -1.1,-0.25 1.1,1.25 c 1.1,1.25 2.5,2.25 2.5,2.25 l -0.45,1.25 0.45,-0.15 -0.45,0.15 c 0,0 0.65,-0.45 1.75,0.15 1.05,0.55 1.85,2.15 1.85,2.15 l 0.15,0.3 -0.15,-0.3 c 0,0 0.35,0.5 0.3,0.9 0,0.45 0.2,0.45 0.3,1.65 0.1,1.2 -0.3,1.55 -0.3,1.55 l -0.95,-0.75 0.35,1 c 0.35,1 1.3,0.85 1.3,0.85 l -0.25,0.25 c -0.3,0.2 -1.05,-0.15 -1.05,-0.15 l 0.5,0.45 c 0.5,0.5 1.5,0.5 1.5,0.5 l 0.15,0.45 c 0.15,0.45 -0.25,0.9 -0.25,0.9 l 0.7,0.1 c 0.65,0.1 1.1,-0.85 1.1,-0.85 l 0.55,0.6 c 0.55,0.55 1.25,0.25 1.25,0.25 l -0.4,-0.15 c -0.45,-0.15 -0.05,-0.75 -0.05,-0.75 l -0.15,0.3 0.15,-0.3 0.5,-0.05 -0.05,-0.05 c -0.1,0 -0.15,-0.1 -0.2,-0.25 -1.3,-1.6 0.15,-4.05 0.75,-5.15 0.6,-1.15 0.85,-3.15 0.5,-5.65 -0.4,-2.5 -0.25,-8.35 -0.15,-10.25 0.15,-1.85 0.5,-0.1 0.5,-0.1 0,0 0,-0.9 -0.35,-4.15 -0.3,-2.2 -0.05,-4.45 0.15,-6.3 z"
             inkscape:connector-curvature="0"
             style="fill:#dcd9c3" />
        </g>
        <g
           id="drawingObject83">
          <path
             id="path89"
             d="m -3.199,5.401 0,1.75 c 0,1.1 -0.65,4.6 -0.65,4.6 l -0.25,-1.25 -1.25,-4.1 0.25,3 c 0.15,1.5 -0.6,3.6 -0.6,3.6 l -0.4,-2.75 -0.1,2.25 c 0,1.15 -0.5,2.5 -0.5,2.5 l -1.65,-4.75 -0.1,1.75 c 0,1 0,3.4 -0.15,4 -0.1,0.65 -0.25,-1.1 -1,-2.6 l -1.35,-2.65 0,0.75 c 0,0.75 0.35,2.5 0.35,2.5 0,0 -1,-1.6 -2.5,-3.6 l -2.35,-3.15 0,0.75 c 0,0.75 1,2.25 1,2.65 0,0.35 -1.4,-1.15 -2.25,-1.9 -0.55,-0.4 -0.95,-1 -1.4,-1.65 l 1.3,3.45 c 0.5,1.4 3.7,3.5 3.7,3.5 0,0 -0.65,0.65 -1,0.7 -0.35,0 -1.4,-0.9 -1.4,-0.9 l 0.55,0.45 -0.55,-0.45 0.8,1.2 c 0.75,1.2 2.1,1.75 2.1,1.75 l -1.1,-0.25 1.1,1.25 c 1.1,1.25 2.5,2.25 2.5,2.25 l -0.45,1.25 0.45,-0.15 -0.45,0.15 c 0,0 0.65,-0.45 1.75,0.15 1.05,0.55 1.85,2.15 1.85,2.15 l 0.15,0.3 -0.15,-0.3 c 0,0 0.35,0.5 0.3,0.9 0,0.45 0.2,0.45 0.3,1.65 0.1,1.2 -0.3,1.55 -0.3,1.55 l -0.95,-0.75 0.35,1 c 0.35,1 1.3,0.85 1.3,0.85 l -0.25,0.25 c -0.3,0.2 -1.05,-0.15 -1.05,-0.15 l 0.5,0.45 c 0.5,0.5 1.5,0.5 1.5,0.5 l 0.15,0.45 c 0.15,0.45 -0.25,0.9 -0.25,0.9 l 0.7,0.1 c 0.65,0.1 1.1,-0.85 1.1,-0.85 l 0.55,0.6 c 0.55,0.55 1.25,0.25 1.25,0.25 l -0.4,-0.15 c -0.45,-0.15 -0.05,-0.75 -0.05,-0.75 l -0.15,0.3 0.15,-0.3 0.5,-0.05 -0.05,-0.05 c -0.1,0 -0.15,-0.1 -0.2,-0.25 -1.3,-1.6 0.15,-4.05 0.75,-5.15 0.6,-1.15 0.85,-3.15 0.5,-5.65 -0.25,-1.45 -0.3,-4.15 -0.25,-6.45 l -0.65,-1.15 q -0.2,-0.55 -0.2,-2.9 l 0.1,-2.25 -0.65,2.75 c -0.1,0.4 -0.1,-0.5 -0.1,-1 0,-0.5 -0.75,-2.85 -0.75,-2.85 z"
             inkscape:connector-curvature="0"
             style="fill:#cecbb6" />
        </g>
        <g
           id="drawingObject84">
          <path
             id="path90"
             d="m 15.801,-10.049 c -1.4,-0.2 -5.15,-1.05 -7.75,-0.8 q -2,0.35 -3.35,0.8 c -1.3,0.45 -3.05,3.05 -3.25,3.75 -0.15,0.7 -1.1,2.7 -1.15,3 l -0.1,0.3 0.9,-0.4 -0.9,0.4 c 0,0 1.35,-1.1 3.15,-0.1 1.8,1 2.5,1.6 3.7,1.85 1.15,0.25 1.75,0.25 1.75,0.25 0,0 -0.9,-0.05 -1.15,-0.8 l -0.45,-1.95 0.8,0.55 -0.8,-0.55 c 0,0 0.95,0.9 3.4,1.5 2.45,0.65 3.6,0.65 5.2,1.4 1.55,0.75 1.8,0.8 1.8,0.8 l -1,-1.3 1,0.4 -1,-0.4 c 0,0 1.55,0.35 3.2,2 1.6,1.6 3.5,2.75 3.5,2.75 l -1.15,-3 1,0.5 -1,-0.5 c 0,0 1.75,0.7 2.8,1.95 l 1.4,1.65 c 0,0 -0.05,-1.75 -0.4,-2.65 l -0.85,-2 1.05,1.05 -1.05,-1.05 c 0,0 1.95,1.9 2.45,2.75 l 0.5,0.8 c 0,0 0.1,-0.25 0.05,-1.25 l -0.2,-2.05 0.65,0.55 -0.65,-0.55 c 0,0 1.2,0.9 1.45,1.5 l 0.35,0.8 -0.05,-4.55 0.4,0.6 -0.4,-0.6 c 0,0 0.65,1.1 1.05,1.35 0.45,0.25 0.75,0.25 0.75,0.25 l -0.3,-0.8 c -0.1,-0.4 -0.05,-1.55 -0.05,-2.4 l -0.05,-2.9 0.85,1.1 -0.85,-1.1 c 0,0 1.6,1.85 2.15,3.05 0.6,1.2 1.15,1.45 1.4,2.25 l 0.5,1.95 0,-1.65 c 0,-0.95 0,-1.3 0.3,-1.6 l 0.65,-0.5 -1,0 c 0,0 -0.15,0 0.15,-0.65 l 0.6,-1.5 c 0,0 -0.95,0.45 -1.25,0.4 -0.35,-0.1 -0.4,-0.4 -0.7,-0.7 -0.3,-0.3 -2.3,-3.05 -3.05,-3.3 -0.75,-0.25 -1.2,-0.4 -1.5,-0.4 -0.35,0 -2.2,0.5 -2.35,0.75 -0.1,0.25 0.2,0.7 -0.9,1 -1.15,0.3 -3.1,0.5 -4.1,0.25 -1,-0.25 -4.8,-2.05 -6.15,-2.25 z"
             inkscape:connector-curvature="0"
             style="fill:#f4f1d9" />
        </g>
        <g
           id="group13">
          <g
             id="drawingObject85">
            <path
               id="path91"
               d="m 22.901,-1.299 c -0.6,-1.1 -2.35,-2.1 -2.35,-2.1 l 0.95,0.65 -0.95,-0.65 1.15,1.35 c 0.4,0.55 0.35,1.25 0.35,1.9 0,0.6 0.1,0.4 0.1,0.55 l 1,0.5 -1,-0.5 c 0,0 1.75,0.7 2.8,1.95 l 1.4,1.65 c -0.05,-0.35 -1.05,-2.15 -1.55,-2.6 -0.5,-0.45 -1.25,-1.55 -1.9,-2.7 z"
               inkscape:connector-curvature="0"
               style="fill:#dcd9c3" />
          </g>
          <g
             id="drawingObject86">
            <path
               id="path92"
               d="m 10.151,-2.999 q -0.65,-0.15 -1.65,-0.5 -0.8,-0.3 -1.05,-0.3 c -0.45,0 -0.1,0 0.1,0.3 0.4,0.3 1.35,0.85 3.05,1.25 2.45,0.65 3.6,0.65 5.2,1.4 1.55,0.75 1.8,0.8 1.8,0.8 l -0.1,-0.1 -0.8,-0.4 c -0.75,-0.35 -2.15,-1.25 -3,-1.5 -0.8,-0.25 -2.3,-0.7 -3.55,-0.95 z"
               inkscape:connector-curvature="0"
               style="fill:#dcd9c3" />
          </g>
          <g
             id="drawingObject87">
            <path
               id="path93"
               d="m 25.201,-1.599 c 0.2,0.8 0,0.6 -0.1,0.95 l 1.05,1.05 -1.05,-1.05 c 0,0 1.95,1.9 2.45,2.75 l 0.45,0.75 -0.1,-0.2 c -0.25,-0.7 -1.6,-3.3 -1.8,-3.8 l -1.3,-2.2 0.4,1.75 z"
               inkscape:connector-curvature="0"
               style="fill:#dcd9c3" />
          </g>
          <g
             id="drawingObject88">
            <path
               id="path94"
               d="m 23.301,3.401 -0.05,-0.05 -0.35,-0.25 c -0.6,-0.5 -2.1,-2.75 -2.55,-3.4 -0.45,-0.6 -0.9,-1.1 -2.5,-2.45 -1.65,-1.3 -4.5,-1.85 -4.5,-1.85 l 1.65,0.45 -1.65,-0.45 1.05,0.35 c 0.4,0.15 1.25,1.2 2,2.15 0.5,0.65 0.5,0.75 0.5,0.85 0.5,0.2 1.65,0.7 2.9,1.9 1.6,1.6 3.5,2.75 3.5,2.75 z"
               inkscape:connector-curvature="0"
               style="fill:#dcd9c3" />
          </g>
          <g
             id="drawingObject89">
            <path
               id="path95"
               d="m 33.201,-4.099 c -0.15,-0.7 -0.55,-1.9 -1,-2.25 l -1.15,-0.8 0.85,1.1 -0.85,-1.1 c 0,0 1.6,1.85 2.15,3.05 z"
               inkscape:connector-curvature="0"
               style="fill:#dcd9c3" />
          </g>
          <g
             id="drawingObject90">
            <path
               id="path96"
               d="m 29.001,-6.099 -0.65,-0.5 0.4,0.45 -0.4,-0.45 c 0,0 0.7,0.7 0.95,1.5 0.25,0.8 0.35,1.25 0.4,1.95 l 0.05,0.6 c 0.15,0.3 0.6,1.05 0.95,1.25 0.45,0.25 0.75,0.25 0.75,0.25 l -0.1,-0.25 q -0.8,-0.15 -1,-1.5 c -0.15,-0.7 -0.2,-1.7 -0.5,-2.3 -0.3,-0.65 -1.5,-1.5 -1.5,-1.5"
               inkscape:connector-curvature="0"
               style="fill:#dcd9c3" />
          </g>
          <g
             id="drawingObject91">
            <path
               id="path97"
               d="m 29.301,0.601 q -0.45,-1 -0.45,-1.25 c -0.05,-0.6 -1.3,-2 -1.3,-2 l 0.65,0.8 -0.65,-0.8 0.35,1.35 c 0.25,0.8 0.15,0.45 0,0.9 l 0.65,0.55 -0.65,-0.55 c 0,0 1.2,0.9 1.45,1.5 l 0.35,0.8 q 0,-0.35 -0.4,-1.3 z"
               inkscape:connector-curvature="0"
               style="fill:#dcd9c3" />
          </g>
        </g>
        <g
           id="drawingObject92">
          <path
             id="path98"
             d="m 0.201,-4.049 c 1,-1.7 3.95,-0.5 3.95,-0.5 0,0 -0.1,-0.45 -0.55,-0.8 -0.4,-0.4 -2.15,-0.95 -2.15,-0.95 l 0.95,0.35 -0.95,-0.35 c 0,0 0.45,-0.7 0.75,-0.6 0.3,0.05 2.35,-0.6 4.65,-0.6 1.35,0 3,0.25 5.05,0.75 -0.45,-0.2 -1.85,-1.05 -3.3,-1.8 -1.8,-0.85 -2.9,-0.55 -2.9,-0.55 l 0.8,-0.05 -0.8,0.05 c 0,0 0.2,-0.25 0.9,-0.75 0.7,-0.5 2.85,-0.8 2.85,-0.8 0,0 -1.15,-0.2 -2.8,-0.2 q -1.1,0 -3.55,1.05 -2.25,0.95 -3.65,1.9 l -0.5,6 1.25,-2.15 z"
             inkscape:connector-curvature="0"
             style="fill:#e8e5cd" />
        </g>
      </g>
      <g
         id="element7">
        <g
           id="drawingObject93">
          <path
             id="path99"
             d="m -23.708,-25.721 c -2.288,-0.198 -1.586,-5.116 -3.377,-5.732 -0.172,3.239 3.366,7.543 2.144,10.821 -3.492,-1.696 -4.255,-8.178 -7.471,-10.062 1.61,2.65 3.867,6.019 4.384,8.765 -3.217,-0.376 -3.921,-2.645 -6.633,-3.39 1.507,2.262 4.937,3.113 5.671,5.98 -1.959,0.01 -4.553,-1.354 -6.462,-2.105 1.306,1.887 3.64,1.677 5.362,2.905 2.686,2.055 3.34,5.838 4.074,9.459 -4.083,1.046 -9.498,-2.254 -11.025,-5.418 l 0,0.754 c 0.543,0.682 0.899,1.841 1.372,2.381 3.493,3.958 8.411,3.152 13.194,4.727 1.208,0.392 2.426,1.235 2.709,2.604 -1.33,2.087 -6.005,2.458 -8.77,0.565 -0.366,0.652 1.481,1.31 0.164,1.234 -2.183,-0.161 -3.647,-0.972 -5.418,-1.44 l 2.571,0.814 -2.571,-0.814 c 2.725,2.352 9.184,3.301 13.316,2.249 1.751,-0.435 2.973,-1.452 4.642,-1.372 1.923,0.096 3.266,1.123 4.912,1.407 1.363,-1.84 0.412,-3.322 0.106,-3.734 -5.34,-0.093 -7.815,-1.321 -8.22,-5.489 -0.489,-5.564 0.758,-15.832 -0.578,-19.826 -0.382,1.659 -0.416,8.198 -1.984,8.507 -0.783,-2.107 -0.153,-7.569 -1.989,-10.039 -0.879,1.324 2.135,4.34 -0.123,6.249 z"
             inkscape:connector-curvature="0"
             style="fill:#9c622c" />
        </g>
        <g
           id="group15">
          <g
             id="drawingObject94">
            <path
               id="path100"
               d="m -19.244,-25.411 c -0.178,1.683 -1.201,11.368 -1.155,12.467 q 0.023,0.55 0.065,2.756 0.368,2.012 2.057,2.239 c -0.395,-0.701 -0.661,-1.57 -0.757,-2.663 -0.489,-5.564 0.758,-15.832 -0.578,-19.826 l 0.256,1.926 -0.256,-1.926 c 0,0 0.552,3.395 0.368,5.027 z"
               inkscape:connector-curvature="0"
               style="fill:#814f22" />
          </g>
          <g
             id="drawingObject95">
            <path
               id="path101"
               d="m -17.744,-5.457 c 0,0 0.368,0.504 0.118,0.889 -0.25,0.385 -0.8,1.162 -1.126,1.356 -0.277,0.188 -1.607,0.767 -1.995,0.869 l 1.623,-0.266 c -0.474,0.214 -1.097,0.447 -1.831,0.595 -1.962,0.362 -3.631,0.283 -4.54,0.253 -0.902,0.019 -3.789,-0.149 -4.767,-0.321 l -0.921,-0.128 c 3.18,1.235 7.601,1.601 10.709,0.786 1.751,-0.435 2.973,-1.452 4.642,-1.372 1.923,0.096 3.266,1.123 4.912,1.407 1.363,-1.84 0.412,-3.322 0.106,-3.734 l -0.014,0.656 c 0.04,0.296 0.06,0.444 -0.961,0.329 -0.767,-0.099 -1.373,-0.119 -1.929,-0.146 l 2.057,0.732 0.458,0.039 c 0,0 -0.135,0.119 -0.728,0.198 l -1.205,0.009 0.991,0.27 0.408,0.046 c 0,0 0.017,0.501 -0.714,0.297 -0.681,-0.211 -0.866,-0.086 -1.468,-0.458 -0.596,-0.323 -0.665,-0.465 -1.291,-0.633 -0.625,-0.168 -0.747,0.05 -0.997,-0.319 -0.299,-0.362 -0.398,-0.349 -0.648,-0.718 l -0.889,-0.636 z"
               inkscape:connector-curvature="0"
               style="fill:#814f22" />
          </g>
        </g>
        <g
           id="group16">
          <g
             id="drawingObject96">
            <path
               id="path102"
               d="m -28.536,-3.467 c -0.244,0.434 0.464,0.843 0.645,1.07 q 0.415,0.095 1.794,0.264 l -0.161,-0.079 c -0.316,-0.109 -1.294,-0.281 -1.867,-0.807 l -0.306,-0.412 -0.105,-0.036 z"
               inkscape:connector-curvature="0"
               style="fill:#814f22" />
          </g>
        </g>
        <g
           id="group17">
          <g
             id="drawingObject97">
            <path
               id="path103"
               d="m -24.101,-7.525 -0.52,-0.132 c -0.569,-0.126 -2.505,-0.32 -4.201,-0.597 -1.646,-0.284 -3.259,-1.074 -5.191,-2.375 -1.932,-1.301 -2.541,-2.476 -2.817,-3.042 l -0.207,-0.425 -0.004,0.352 c 0.543,0.682 0.899,1.841 1.372,2.381 3.493,3.958 8.411,3.152 13.194,4.727 q 2.311,0.748 2.709,2.604 c 0.455,-0.362 0.593,-0.832 0.721,-1 0.178,-0.175 0.162,-0.675 0.162,-0.675 l -0.204,-0.023 c -0.204,-0.023 -0.399,-0.349 -0.866,-0.84 -0.517,-0.484 -1.577,-0.896 -1.83,-0.912 -0.254,-0.017 0,0 0.497,0.336 0.497,0.336 1.109,1.159 1.109,1.159 l -0.441,-0.293 c -0.385,-0.251 -1.633,-0.939 -2.742,-1.344 -0.583,-0.224 -1.258,-0.386 -1.771,-0.468 0.52,0.132 1.03,0.567 1.03,0.567 z"
               inkscape:connector-curvature="0"
               style="fill:#814f22" />
          </g>
        </g>
        <g
           id="drawingObject98">
          <path
             id="path104"
             d="m -29.307,-18.694 c -0.806,-0.395 -3.147,-0.988 -4.572,-1.502 l -0.484,-0.237 c 1.317,0.83 2.943,0.965 4.273,1.894 2.686,2.055 3.334,5.788 4.06,9.36 0.958,0.024 2.048,0.281 2.048,0.281 l -0.56,-0.428 0.537,-0.122 c 0,0 -0.309,-0.059 -0.665,-0.464 q -0.691,-0.662 -1.24,-2.147 l -1.116,-3.47 0.648,1.471 c 0,0 -0.187,-1.03 -0.717,-2.367 -0.529,-1.337 -1.405,-1.873 -2.212,-2.269 z"
             inkscape:connector-curvature="0"
             style="fill:#814f22" />
        </g>
        <g
           id="drawingObject99">
          <path
             id="path105"
             d="m -34.543,-25.184 c 1.544,2.157 4.776,3.034 5.54,5.746 q 0.763,0.452 1.642,1.39 l -0.151,-0.382 -0.757,-1.156 0.53,-0.171 c 0,0 -0.398,-0.349 -0.955,-1.129 -0.556,-0.78 -2.699,-2.154 -3.848,-2.855 -0.658,-0.415 -1.491,-1.008 -2.001,-1.443 z"
             inkscape:connector-curvature="0"
             style="fill:#814f22" />
        </g>
        <g
           id="drawingObject100">
          <path
             id="path106"
             d="m -21.448,-18.182 0.537,-3.137 c 0,0 -0.171,0.224 -0.405,0.356 l -0.853,0.766 -0.2,-1.129 -0.79,-2.91 -0.188,0.477 c -0.128,0.168 -0.5,0.016 -0.5,0.016 l 0.118,1.643 c 0.128,0.586 -0.043,1.564 -0.191,2.338 -0.205,0.73 -0.682,1.297 -0.682,1.297 0,0 -0.648,-0.718 -0.905,-1.136 -0.306,-0.412 -0.846,-0.692 -0.846,-0.692 l 0.329,0.208 -0.329,-0.208 0.026,0.198 c -0.023,0.204 -0.681,-0.211 -0.681,-0.211 l 0.671,1.267 c 0.27,0.517 0.444,0.695 0.757,1.91 l 0.68,3.98 c 0.178,1.334 0.813,1.953 1.132,2.463 0.326,0.56 0.534,0.985 1.271,1.238 l 1.425,0.514 -0.404,-1.152 q -0.096,-0.339 -0.03,-2.107 0.083,-2.022 -0.029,-2.861 c -0.092,-0.691 -0.081,-1.748 0.087,-3.128 z"
             inkscape:connector-curvature="0"
             style="fill:#8f5a28" />
        </g>
        <g
           id="drawingObject101">
          <path
             id="path107"
             d="m -19.78,-27.551 c 0.006,0.804 -0.577,4.349 -1.223,7.049 -0.646,2.699 -0.476,7.752 -0.476,7.752 l 0.016,-0.253 c 0.01,-0.303 0.29,-1.597 0.37,-1.758 l -0.113,0.668 c -0.062,0.662 0.411,2.71 0.411,2.71 l 0.043,-0.81 c 0.076,-0.563 -0.138,-1.791 0.083,-2.775 l 0.254,-2.245 -0.194,0.427 -0.409,1.462 0.063,-0.662 c 0.013,-0.655 0.313,-2.554 0.518,-4.039 l 0.817,-5.185 c 0.109,-0.316 0.142,-0.823 0.093,-1.57 l -0.082,-3.256 -0.171,2.485 z"
             inkscape:connector-curvature="0"
             style="fill:#b67337" />
        </g>
        <g
           id="drawingObject102">
          <path
             id="path108"
             d="m -26.752,-30.844 -0.333,-0.609 0.122,0.536 c 0.039,0.297 0.095,1.093 0.394,2.209 0.3,1.116 1.511,3.418 1.511,3.418 0,0 -0.211,-0.826 -0.576,-1.683 -0.372,-0.905 -0.454,-1.145 -0.671,-2.021 l -0.447,-1.85 z"
             inkscape:connector-curvature="0"
             style="fill:#b67337" />
        </g>
        <g
           id="drawingObject103">
          <path
             id="path109"
             d="m -23.408,-31.39 -0.299,-0.362 c -0.142,0.069 -0.059,0.309 0.043,0.698 l 0.312,1.215 c 0.217,0.875 0.263,1.975 0.243,2.581 0.023,0.549 -0.145,1.175 -0.395,1.56 l -0.642,0.839 0.197,-0.026 c 0.142,-0.069 0.431,-0.158 0.817,-0.661 0.385,-0.504 0.537,-0.876 0.58,-1.686 0,-0.754 -0.28,-1.722 -0.428,-2.456 -0.085,-0.642 -0.151,-1.136 -0.302,-1.518 l -0.126,-0.184 z"
             inkscape:connector-curvature="0"
             style="fill:#b67337" />
        </g>
        <g
           id="drawingObject104">
          <path
             id="path110"
             d="m -24.344,-23.325 c -0.138,-0.283 -0.043,0.81 -0.043,0.81 l -0.554,1.883 c -0.293,0.441 -0.49,0.468 -0.49,0.468 0,0 -0.027,0.556 0.434,0.243 0.455,-0.362 0.613,-0.684 0.721,-1 0.06,-0.31 0.261,-0.688 0.175,-1.33 l -0.243,-1.074 z"
             inkscape:connector-curvature="0"
             style="fill:#b67337" />
        </g>
        <g
           id="drawingObject105">
          <path
             id="path111"
             d="m -30.809,-28.847 c -0.151,-0.382 -0.898,-1.086 -1.547,-1.804 0.287,0.263 1.014,1.574 2.176,3.882 0.332,0.609 2,3.704 2.06,4.148 0.016,0.501 -0.106,0.718 -0.106,0.718 l 0.711,0.056 q 0.079,-0.161 -0.332,-1.363 c -0.454,-1.146 -1.705,-3.744 -2.129,-4.29 -0.431,-0.596 -0.556,-0.781 -0.833,-1.347 z"
             inkscape:connector-curvature="0"
             style="fill:#b67337" />
        </g>
        <g
           id="drawingObject106">
          <path
             id="path112"
             d="m -29.003,-19.438 c -0.577,-0.174 -1.752,-0.319 -2.489,-0.573 l -3.763,-1.459 1.218,0.843 q 0.28,0.214 1.705,0.728 c 0.583,0.224 2.502,0.672 2.96,0.712 0.401,-0.004 0.619,0.118 1.241,0.639 0.622,0.52 1.366,1.577 1.346,1.429 -0.076,-0.191 -1.692,-2.137 -2.218,-2.319 z"
             inkscape:connector-curvature="0"
             style="fill:#b67337" />
        </g>
        <g
           id="drawingObject107">
          <path
             id="path113"
             d="m -26.685,-8.438 c 1.357,-0.382 3.253,0.271 3.098,0.241 -0.155,-0.03 -0.336,-0.257 -0.553,-0.379 -0.168,-0.128 -0.583,-0.224 -1.109,-0.405 -0.521,-0.132 -0.804,0.007 -1.538,0.155 -0.783,0.154 -1.985,-0.189 -2.653,-0.301 -0.619,-0.118 -2.591,-0.962 -3.404,-1.406 -0.813,-0.445 -2.094,-1.38 -2.574,-1.969 l -1.619,-1.594 0.806,1.149 c 0.145,0.333 0.569,0.879 1.191,1.399 0.622,0.521 1.751,1.074 2.604,1.815 0.852,0.741 2.657,0.702 3.723,1.163 q 0.793,0.296 2.028,0.132 z"
             inkscape:connector-curvature="0"
             style="fill:#b67337" />
        </g>
        <g
           id="drawingObject108">
          <path
             id="path114"
             d="m -12.184,-4.84 c 0,0 -2.363,-0.389 -2.808,-0.33 q -1.202,-0.342 -1.699,-0.678 l -0.931,-0.58 0.438,0.646 -0.438,-0.646 c 0,0 0.826,1.297 1.142,1.406 0.316,0.109 0.787,0.247 1.083,0.208 0.296,-0.04 1.291,-0.122 2.008,-0.016 0.669,0.112 1.205,-0.01 1.205,-0.01 z"
             inkscape:connector-curvature="0"
             style="fill:#b67337" />
        </g>
        <g
           id="drawingObject109">
          <path
             id="path115"
             d="m -18.449,-4.709 -0.069,-0.896 -0.145,0.421 c -0.151,0.372 -0.579,0.932 -1.175,1.363 l -2.601,1.603 0.684,-0.142 c 0.642,-0.085 1.666,-1.076 2.664,-1.51 q 0.948,-0.428 0.642,-0.839 z"
             inkscape:connector-curvature="0"
             style="fill:#b67337" />
        </g>
        <g
           id="drawingObject110">
          <path
             id="path116"
             d="m -17.81,-5.197 c -0.069,-0.141 -0.283,-0.615 -0.398,-0.349 q -0.158,0.323 -0.126,0.57 0.04,0.296 0.182,0.227 c 0.325,-0.194 0.368,-0.25 0.342,-0.448 z"
             inkscape:connector-curvature="0"
             style="fill:#b67337" />
        </g>
        <g
           id="drawingObject111">
          <path
             id="path117"
             d="m -22.321,-18.317 c -0.108,-1.192 0.369,0.504 0.432,-0.158 0.006,-0.704 -0.619,-3.134 -0.806,-3.411 l 0.174,0.932 c 0.174,0.932 0.168,1.636 0.026,2.459 l -0.099,1.521 c 0.016,0.501 0,0.754 -0.175,2.084 -0.168,1.38 0.194,1.08 0.329,1.716 l -0.277,-0.567 0.277,0.567 c 0.079,0.592 0.44,1.8 0.44,1.8 0,0 -0.148,-0.734 -0.23,-1.728 -0.082,-0.994 -0.013,-0.853 -0.032,-1.755 l -0.059,-3.46 z"
             inkscape:connector-curvature="0"
             style="fill:#9c622c" />
        </g>
        <g
           id="drawingObject112">
          <path
             id="path118"
             d="m -23.799,-19.226 0.135,1.39 c 0.007,0.049 -0.036,0.105 -0.128,0.167 -0.165,0.274 0.052,1.149 -0.017,1.762 -0.02,0.606 0.112,0.839 0.112,0.839 0,0 -0.112,-0.839 0.27,-1.744 q 0.145,-0.422 0.03,-0.909 -0.102,-0.389 0.148,-0.774 c 0.043,-0.056 -0.55,-0.731 -0.55,-0.731 z"
             inkscape:connector-curvature="0"
             style="fill:#9c622c" />
        </g>
        <g
           id="drawingObject113">
          <path
             id="path119"
             d="m -23.299,-14.719 -0.066,1.768 q -0.086,0.866 0.17,1.284 c 0.251,0.369 0.056,0.797 0.251,0.369 0.187,-0.477 0.247,-0.787 0.158,-1.077 -0.04,-0.296 -0.408,-0.8 -0.438,-1.399 l -0.075,-0.945 z"
             inkscape:connector-curvature="0"
             style="fill:#9c622c" />
        </g>
      </g>
    </g>
    <g
       id="sideHatMoose_1_0">
      <g
         id="element">
        <path
           id="path"
           d="m 29.851,-9.199 -0.1,-0.3 -3.7,-2.85 c -0.7,-0.5 -3.65,-1.4 -4.8,-1.75 l -0.45,-0.15 -11.75,1.15 c -3.5,0.35 -7.65,3.75 -9.15,4.5 -0.55,0.3 -1.6,1.9 -2.7,3.85 l -0.3,0.35 -0.05,0.25 c -1.8,3.3 -3.75,7.3 -4.2,8.05 -0.75,1.25 1.25,15.25 2.9,19.85 1.6,4.65 8.1,6.4 8.1,6.4 0,0 -1.5,-2.4 -1.6,-3.25 -0.15,-0.9 -0.15,-2.5 -0.15,-4.15 0,-1.6 -0.75,-9.5 -0.75,-9.5 l 0.4,4.15 -0.4,-4.15 0.65,1.15 0,-1.4 c 0,-1.35 -0.15,-4.25 -1.15,-9.6 -0.55,-3.05 0,-5.2 0.75,-6.5 0.45,-0.15 0.9,-0.1 1.4,0.2 2.3,1.4 3.4,1.75 4.05,1.9 l 1.25,0.35 c 0,0 -0.45,-0.4 -0.45,-0.75 l 0,-0.75 0.75,0.35 -0.75,-0.35 c 0,0 1,0.65 2.8,0.9 1.85,0.25 4.95,0.9 5.75,1.45 l 0.85,0.55 -0.95,-2 2.7,2.15 c 0.75,0.55 1.8,1.6 2.15,2.1 0.4,0.5 0.75,1.15 0.75,1.15 l -0.15,-2.55 0.6,0.15 -0.6,-0.15 c 0,0 1.15,0.25 1.5,0.5 l 1.9,1.85 -0.05,-2.1 0.15,-0.9 1.5,0.9 0.35,0.35 c 0,0 0.15,-1.1 0.25,-1.35 0.15,-0.25 0.3,-0.35 0.75,-0.15 0.45,0.2 0.9,0.8 0.9,0.8 l 0.3,-2.4 c 0,-0.35 0.2,-1 0.5,-1 l 0.3,0 c 0.25,-0.1 0.15,-0.45 0.25,-1.15 0.15,-0.7 0.55,-2.5 -0.2,-2.75 l -3.9,-1.3 0,-0.5 c 0,-0.9 0.85,-0.9 1.3,-1.05 0.5,-0.2 0.55,0.3 1.2,0.25 0.6,0 1,0.4 1,0.4 l 0.25,-0.5 c 0.25,-0.55 -0.05,-1 -0.05,-1 m -21.85,0.65 0.6,0.05 -3.5,0.6 0.05,-0.05 c 0.35,-0.5 2.85,-0.6 2.85,-0.6 z"
           inkscape:connector-curvature="0"
           style="fill:#000000;fill-opacity:0.08600003" />
      </g>
      <g
         id="element1">
        <g
           id="drawingObject1">
          <path
             id="path4"
             d="m 28.512,-6.985 -0.296,-0.064 0.325,0.665 c 1.68,-0.187 3.296,-0.614 4.376,-1.309 -1.432,0.233 -2.706,0.743 -4.405,0.708 z"
             inkscape:connector-curvature="0"
             style="fill:#9c622c" />
        </g>
        <g
           id="drawingObject2">
          <path
             id="path5"
             d="m 37.584,-24.791 c -2.253,0.28 -3.221,2.037 -5.816,1.966 0.957,-2.135 3.309,-4.679 5.107,-6.64 -2.917,1.14 -4.683,6.381 -7.766,7.401 -0.374,-2.826 3.215,-6.056 3.7,-8.754 -1.514,0.307 -1.896,4.493 -3.734,4.403 -1.453,-1.865 1.509,-4.058 1.091,-5.296 -1.983,1.888 -2.438,6.526 -3.479,8.2 -1.22,-0.433 -0.055,-5.913 -0.048,-7.41 -1.824,3.236 -2.652,11.904 -4.012,16.396 -0.101,0.388 -0.211,0.665 -0.387,0.971 1.082,0.645 2.136,1.493 3.043,2.444 3.813,-0.569 7.25,0.212 10.442,-2.425 0.48,-0.398 0.94,-1.286 1.503,-1.758 l 0.064,-0.564 q -1.337,1.878 -4.235,2.972 -3.028,1.15 -5.153,0.302 c 1.187,-2.847 2.383,-5.851 4.903,-7.204 1.513,-0.842 3.269,-0.41 4.624,-1.798 -1.597,0.381 -3.822,1.262 -5.364,0.968 1.086,-2.191 3.894,-2.518 5.517,-4.174 z"
             inkscape:connector-curvature="0"
             style="fill:#9c622c" />
        </g>
        <g
           id="group1">
          <g
             id="drawingObject3">
            <path
               id="path6"
               d="m 22.627,-14.525 -0.387,0.971 0.759,0.516 c 0.857,-0.944 0.984,-2.607 1.131,-3.245 0.239,-0.868 1.132,-9.028 1.259,-10.423 0.174,-1.377 1.25,-4.215 1.25,-4.215 l -0.579,1.59 0.579,-1.59 c -1.824,3.236 -2.652,11.904 -4.012,16.396 z"
               inkscape:connector-curvature="0"
               style="fill:#814f22" />
          </g>
        </g>
        <g
           id="group2">
          <g
             id="drawingObject4">
            <path
               id="path7"
               d="m 24.848,-11.498 0.435,0.388 c 3.813,-0.569 7.25,0.212 10.442,-2.425 0.48,-0.398 0.94,-1.286 1.503,-1.758 l 0.046,-0.249 -0.24,0.332 c -0.323,0.407 -0.986,1.268 -2.721,2.129 -1.671,0.834 -3.037,1.307 -4.395,1.355 -1.357,0.048 -2.918,0.068 -3.38,0.152 l -0.443,0.038 c 0,0 0.489,-0.287 0.904,-0.389 -0.397,0.056 -0.951,0.102 -1.431,0.232 l -0.72,0.195 z"
               inkscape:connector-curvature="0"
               style="fill:#814f22" />
          </g>
        </g>
        <g
           id="drawingObject5">
          <path
             id="path8"
             d="m 27.94,-12.675 c 1.169,-2.801 2.393,-5.741 4.867,-7.112 1.172,-0.657 2.456,-0.52 3.637,-1.067 l -0.415,0.102 c -1.182,0.279 -3.149,0.513 -3.823,0.726 -0.739,0.241 -1.514,0.575 -2.14,1.611 -0.627,1.035 -1.004,1.849 -1.004,1.849 l 0.774,-1.138 -1.511,2.719 q -0.627,1.035 -1.337,1.609 c -0.378,0.278 -0.6,0.296 -0.6,0.296 l 0.37,0.148 -0.489,0.287 1.671,-0.03 z"
             inkscape:connector-curvature="0"
             style="fill:#814f22" />
        </g>
        <g
           id="drawingObject6">
          <path
             id="path9"
             d="m 31.531,-20.884 -0.996,1.156 q 0.839,-0.629 1.55,-0.935 c 1.114,-2.127 3.765,-2.463 5.351,-4.026 -0.489,0.287 -1.172,0.657 -1.818,0.935 -0.969,0.417 -2.926,1.298 -3.479,1.88 l -0.978,0.842 0.37,0.148 z"
             inkscape:connector-curvature="0"
             style="fill:#814f22" />
        </g>
        <g
           id="drawingObject7">
          <path
             id="path10"
             d="m 28.449,-24.844 -0.056,-0.397 -1.188,2.311 -0.368,0.925 -0.805,-1.071 -0.153,2.67 c -0.146,1.174 -0.321,2.015 -0.477,2.542 q -0.211,0.665 -0.495,2.32 -0.257,1.45 -0.413,1.709 l -0.507,0.87 1.228,-0.261 c 0.591,-0.139 0.877,-0.454 1.199,-0.861 0.323,-0.407 0.978,-0.842 1.337,-1.877 0.377,-1.081 0.837,-2.237 1.27,-3.189 0.433,-0.952 0.599,-1.1 0.903,-1.461 l 0.765,-0.981 c 0,0 -0.581,0.251 -0.526,0.112 l 0.009,-0.157 -0.785,0.491 c -0.285,0.314 -0.959,0.796 -0.959,0.796 0,0 -0.241,-0.471 -0.251,-1.118 -0.01,-0.647 0.053,-1.478 0.237,-1.941 l 0.423,-1.331 c 0,0 -0.351,0.075 -0.388,-0.101 z"
             inkscape:connector-curvature="0"
             style="fill:#8f5a28" />
        </g>
        <g
           id="drawingObject8">
          <path
             id="path11"
             d="m 25.676,-26.485 -0.543,7.817 -0.091,0.499 -0.058,-1.201 -0.102,-0.415 -0.173,1.913 c 0.002,0.803 -0.385,1.774 -0.412,2.245 l -0.119,0.703 c 0,0 0.755,-1.628 0.819,-2.191 l 0.018,-0.582 -0.008,1.496 -0.027,0.204 c 0,0 1.056,-4.132 0.997,-6.404 -0.04,-2.319 0.15,-5.35 0.269,-6.052 l 0.311,-2.126 -0.661,2.736 c -0.147,0.638 -0.22,1.09 -0.22,1.358 z"
             inkscape:connector-curvature="0"
             style="fill:#b67337" />
        </g>
        <g
           id="drawingObject9">
          <path
             id="path12"
             d="m 31.907,-28.553 0.902,-2.265 -0.359,0.499 -0.7,1.489 c -0.322,0.675 -0.461,0.887 -0.912,1.618 -0.479,0.666 -0.783,1.294 -0.783,1.294 0,0 1.392,-1.748 1.852,-2.635 z"
             inkscape:connector-curvature="0"
             style="fill:#b67337" />
        </g>
        <g
           id="drawingObject10">
          <path
             id="path13"
             d="m 30.185,-31.489 -0.433,0.416 -0.543,1.23 c -0.24,0.601 -0.663,1.396 -0.764,2.052 -0.147,0.638 -0.073,0.989 0.168,1.46 0.195,0.452 0.408,0.59 0.5,0.627 l 0.139,0.055 -0.334,-0.775 c -0.139,-0.323 -0.186,-0.878 -0.048,-1.358 0.11,-0.546 0.349,-1.414 0.689,-2.136 l 0.498,-0.98 c 0.129,-0.323 0.248,-0.49 0.128,-0.591 z"
             inkscape:connector-curvature="0"
             style="fill:#b67337" />
        </g>
        <g
           id="drawingObject11">
          <path
             id="path14"
             d="m 28.996,-23.662 0.165,-0.684 -0.396,0.86 c -0.202,0.508 -0.128,0.859 -0.127,1.127 0.046,0.287 0.111,0.527 0.407,0.859 0.296,0.332 0.369,-0.121 0.369,-0.121 0,0 -0.138,-0.055 -0.305,-0.443 l -0.113,-1.598 z"
             inkscape:connector-curvature="0"
             style="fill:#b67337" />
        </g>
        <g
           id="drawingObject12">
          <path
             id="path15"
             d="m 36.608,-29.197 c -0.49,0.287 -1.163,0.768 -1.366,1.009 -0.295,0.471 -0.461,0.619 -0.894,1.036 -0.434,0.416 -1.918,2.395 -2.443,3.311 q -0.571,0.897 -0.534,1.072 l 0.563,0.064 c 0,0 -0.065,-0.24 0.036,-0.628 0.148,-0.37 2.001,-2.738 2.434,-3.154 1.042,-1.406 1.77,-2.294 2.204,-2.71 z"
             inkscape:connector-curvature="0"
             style="fill:#b67337" />
        </g>
        <g
           id="drawingObject13">
          <path
             id="path16"
             d="m 32.085,-20.663 c -0.462,0.084 -2.057,1.536 -2.159,1.656 -0.055,0.139 0.747,-0.666 1.319,-1.027 0.573,-0.361 0.748,-0.398 1.127,-0.408 0.314,0.018 1.865,-0.113 2.391,-0.225 q 1.182,-0.279 1.459,-0.436 l 1.071,-0.537 -1.367,0.473 -1.8,0.353 -2.041,0.151 z"
             inkscape:connector-curvature="0"
             style="fill:#b67337" />
        </g>
        <g
           id="drawingObject14">
          <path
             id="path17"
             d="m 26.639,-12.23 c 0.711,-0.038 1.228,0.008 1.644,0.173 q 0.739,0.295 1.635,0.063 c 0.895,-0.232 2.272,-0.059 3.056,-0.549 0.785,-0.491 1.717,-0.816 2.289,-1.177 0.572,-0.361 0.987,-0.731 1.19,-0.971 l 0.821,-0.851 -1.559,1.092 c -0.434,0.416 -1.588,1.028 -2.28,1.287 -0.711,0.306 -2.363,0.826 -2.899,0.826 -0.508,0.066 -1.523,0.196 -2.078,-0.025 -0.573,-0.174 -0.785,-0.313 -1.201,-0.211 -0.397,0.056 -0.776,0.066 -0.923,0.168 l -0.383,0.222 0.023,0.009 c 0.157,0.009 0.378,-0.009 0.665,-0.056 z"
             inkscape:connector-curvature="0"
             style="fill:#b67337" />
        </g>
        <g
           id="drawingObject15">
          <path
             id="path18"
             d="m 27.528,-23.337 c -0.138,0.213 -1.115,2.127 -1.225,2.672 -0.064,0.564 0.627,-0.767 0.333,0.24 l -1.488,5.619 0.681,-1.442 c 0.203,-0.508 0.406,-0.213 0.534,-1.34 l 0.228,-1.784 c 0.101,-0.388 0.157,-0.527 0.211,-1.201 0.055,-0.675 0.137,-1.284 0.431,-2.024 l 0.295,-0.74 z"
             inkscape:connector-curvature="0"
             style="fill:#9c622c" />
        </g>
        <g
           id="drawingObject16">
          <path
             id="path19"
             d="m 27.993,-21.009 -0.581,0.518 q 0.12,0.37 -0.036,0.629 -0.194,0.351 -0.138,0.748 c 0.131,0.748 -0.099,1.46 -0.099,1.46 0,0 0.184,-0.194 0.23,-0.712 0.073,-0.452 0.395,-1.127 0.284,-1.386 -0.065,-0.24 -0.092,-0.037 0.027,-0.471 l 0.313,-0.786 z"
             inkscape:connector-curvature="0"
             style="fill:#9c622c" />
        </g>
        <g
           id="drawingObject17">
          <path
             id="path20"
             d="m 26.476,-15.99 0.303,-1.432 -0.248,0.757 c -0.138,0.481 -0.507,0.87 -0.599,1.101 -0.092,0.231 -0.138,0.48 -0.082,0.878 0.075,0.351 0,0 0.268,-0.269 q 0.304,-0.36 0.358,-1.035 z"
             inkscape:connector-curvature="0"
             style="fill:#9c622c" />
        </g>
      </g>
      <g
         id="element2">
        <g
           id="drawingObject18">
          <path
             id="path21"
             d="m 11.451,-21.499 -0.35,0.2 c -0.35,0.2 -0.65,0.75 -0.65,0.75 l -0.1,-0.7 c -0.15,-0.65 0.35,-1.45 0.35,-1.45 l -0.25,0.5 0.25,-0.5 -1.2,0.75 c -0.6,0.4 -0.15,1.25 -0.15,1.25 l -0.65,-0.45 c -0.65,-0.45 -1.35,-1.3 -1.65,-1.95 l -1.1,-1.55 -0.15,1.15 c -0.1,0.8 -0.05,1.4 -0.05,1.4 l -1.7,-1.5 c -1.25,-1.2 -3.2,-1.75 -3.2,-1.75 l 1.15,0.45 -1.15,-0.45 0.85,1.15 c 0.65,0.75 1.55,2.5 1.55,2.5 0,0 -0.75,-0.55 -2.9,-1.3 -2.2,-0.75 -2.65,-0.5 -3.05,-0.45 -0.45,0 0,0 0.9,0.4 0.9,0.35 2,1.9 2,1.9 l -0.5,-0.25 -1.35,-0.3 0.4,0.25 c 0.45,0.2 0.65,1.1 -0.7,1.8 -1.35,0.75 -3.9,1.5 -6.4,2.8 -2.45,1.35 -3.8,4.25 -3.8,4.25 l -0.55,-0.35 0,2.1 c 0,2.1 -1.3,2.55 -1.55,2.6 -0.25,0.05 -0.4,0.9 -0.4,0.9 l 1,0.2 -0.15,0.9 c -0.15,0.9 -1.5,2.8 -2.1,4.4 -0.65,1.6 -1.05,3.8 -1.05,3.8 l -0.5,-0.35 c -0.3,-0.2 -0.35,-0.45 -0.4,-0.6 l -0.1,1.55 c -0.05,0.75 0.75,1.8 0.75,1.8 l -0.25,-0.05 -1.9,-0.2 1,0.75 c 0.45,0.5 0.75,1.3 0.75,1.3 l -1.5,-0.6 0.3,0.3 -0.3,-0.3 c 0,0 0.55,0.45 0.8,1 l 1.5,4 c 0.5,1.4 3.7,3.5 3.7,3.5 0,0 -0.65,0.65 -1,0.7 -0.35,0 -1.4,-0.9 -1.4,-0.9 l 0.55,0.45 -0.55,-0.45 0.8,1.2 c 0.75,1.2 2.1,1.75 2.1,1.75 l -1.1,-0.25 1.1,1.25 c 1.1,1.25 2.5,2.25 2.5,2.25 l -0.45,1.25 0.45,-0.15 -0.45,0.15 c 0,0 0.65,-0.45 1.75,0.15 1.05,0.55 1.85,2.15 1.85,2.15 l 0.15,0.3 -0.15,-0.3 c 0,0 0.35,0.5 0.3,0.9 0,0.45 0.2,0.45 0.3,1.65 0.1,1.2 -0.3,1.55 -0.3,1.55 l -0.95,-0.75 0.35,1 c 0.35,1 1.3,0.85 1.3,0.85 l -0.25,0.25 c -0.3,0.2 -1.05,-0.15 -1.05,-0.15 l 0.5,0.45 c 0.5,0.5 1.5,0.5 1.5,0.5 l 0.15,0.45 c 0.15,0.45 -0.25,0.9 -0.25,0.9 l 0.7,0.1 c 0.65,0.1 1.1,-0.85 1.1,-0.85 l 0.55,0.6 c 0.55,0.55 1.25,0.25 1.25,0.25 l -0.4,-0.15 c -0.45,-0.15 -0.05,-0.75 -0.05,-0.75 l -0.15,0.3 0.15,-0.3 0.8,-0.05 -0.35,-0.05 c -0.35,-0.05 -0.6,-1.5 0.05,-2.85 0.6,-1.35 1.45,-2.3 1.45,-2.3 l -0.5,0.65 0.5,-0.65 -0.25,1.9 1.05,-2.45 c 1,-2.45 0,-7.5 -0.4,-9.2 -0.35,-1.75 0.5,-4.75 0.5,-4.75 l -0.4,1.7 0.4,-1.7 0.6,1.55 0.15,-2.2 c 0.1,-1.5 -1.25,-4.05 -1.35,-7.25 -0.1,-3.2 0.6,-5.95 0.75,-7 0.15,-1.1 1.4,-2.65 1.4,-2.65 l -0.65,0.9 0.65,-0.9 0.1,0.75 c 0.1,0.8 1.3,0.8 1.3,0.8 0,0 -0.6,-1.1 -0.7,-1.9 -0.1,-0.75 0.35,-1.25 0.35,-1.25 l -0.2,0.35 0.2,-0.35 1.2,1.15 -0.3,-0.6 c -0.3,-0.65 0.5,-1.35 0.5,-1.35 l -0.35,0.45 0.35,-0.45 1.45,0.55 c 1.1,0.4 1.45,0.9 1.4,0.85 -0.3,-0.35 -0.6,-0.7 -0.9,-0.95 l -1.05,-1 1.05,0.3 c 0.7,0.25 1.3,0.75 1.55,1 l -0.25,-0.3 -1.55,-1.4 2.95,0.65 c 2.2,0.5 3.5,1.5 3.5,1.5 l -0.15,-0.25 -1.1,-1.35 2.7,0.9 c 0.8,0.3 4.1,2.4 4.6,2.7 l 0.15,0.1 -0.15,-0.1 c 0.5,0.35 0,0 -0.25,-0.35 l -0.95,-1.15 2.65,1.3 c 1,0.6 1.55,1.25 1.55,1.25 l -0.75,-1.8 1.35,0.9 c 1.3,0.85 2.3,1.35 2.3,1.35 0.55,0.6 1.35,1.3 1.35,1.3 l -0.2,-0.8 c -0.15,-0.65 -0.8,-1.85 -1,-2.2 l 0.25,0.2 0.05,0.05 1,1.25 c 0.7,1.15 0.75,1.55 0.75,1.55 0,0 0,-1.5 -0.1,-2.25 l -0.25,-1.5 0.55,0.5 0.3,0.35 c 0,0 0.3,-0.4 0.15,-1.15 l -0.25,-1.35 0.45,0.05 -0.45,-0.05 c 0,0 0.75,0 1.2,0.25 l 0.4,0.3 0.2,-1 0.65,0.6 c 0,0 -0.3,-1.2 -0.05,-1 0.25,0.15 0.4,-0.1 1.3,0.8 0.9,0.85 2,2.05 2.35,2.55 0.3,0.5 0.75,1.7 0.75,1.7 0,0 -0.05,-1 0,-1.45 0,-0.4 0.6,-0.95 0.6,-0.95 l -0.3,0.35 0.3,-0.35 -0.85,-0.1 -0.1,-1.95 -0.75,0.3 -0.25,0.2 c 0,0 -0.9,-1.7 -1.8,-2.35 l -0.55,-0.3 -0.1,-0.1 0.35,-0.05 0.85,0.05 -0.65,-0.5 c -0.65,-0.5 -1.35,-0.55 -1.35,-0.55 l 0.45,0.1 -0.45,-0.1 0.05,-0.65 c 0.05,-0.65 -0.5,-1.1 -0.5,-1.1 l 0.25,0.3 -0.25,-0.3 -0.4,0.45 c -0.2,0.4 0,-0.75 -1.35,-1.45 -1.3,-0.7 -3.45,-2.1 -6.15,-3.1 -4.25,-1.55 -7.9,-1.6 -8.75,-1.95 -0.85,-0.4 -1,-1.5 -1,-1.5 z"
             inkscape:connector-curvature="0"
             style="fill:#fefce9" />
        </g>
        <g
           id="drawingObject19">
          <path
             id="path22"
             d="m 14.151,-18.099 c -2.85,-0.5 -4.6,-0.4 -4.6,-0.4 l 1.25,0 -1.25,0 1,-0.1 c 1,-0.15 3.1,0 3.1,0 l -1.25,-0.25 c -1.25,-0.25 -3,-0.75 -4.35,-1.15 -1.4,-0.35 -0.65,-0.5 -1.15,-1.1 -0.5,-0.65 -0.5,-1 -0.5,-1 l 0.05,0.25 -0.05,-0.25 -0.1,1.6 -0.5,-0.6 c -0.5,-0.65 -2.25,-1.75 -2.25,-1.75 l 0.95,0.65 -0.95,-0.65 1,1.85 c 0.35,0.5 0.35,1.5 0.35,1.5 l -2.5,-1.75 c -0.75,-0.5 -2.25,-0.85 -2.25,-0.85 l 0.85,0.25 -0.85,-0.25 0.35,0.45 -0.35,-0.45 c 0,0 0.65,0.75 0.75,1.25 l 0.25,1.25 -0.6,-0.4 c -0.65,-0.35 -1,-0.1 -1,-0.1 l 0.25,-0.1 -0.25,0.1 0,0.35 c 0,0.4 0,0.5 -1.75,1.25 -1.75,0.75 -4.65,1.75 -6.9,3.65 -2.25,1.85 -2.25,2.85 -2.25,2.85 l -0.5,-0.1 -0.25,0.75 c -0.05,0.2 -0.3,0.55 -0.65,0.95 -0.15,1.7 -1.25,2.15 -1.5,2.15 l -0.15,0.1 c -0.1,0.3 -0.25,0.55 -0.25,0.8 l 1,0.2 -0.15,0.9 q -0.1,0.45 -0.9,1.95 -0.9,1.7 -1.2,2.45 c -0.65,1.6 -1.05,3.8 -1.05,3.8 l -0.5,-0.35 c -0.3,-0.2 -0.35,-0.45 -0.4,-0.6 l -0.1,1.55 c -0.05,0.75 0.75,1.8 0.75,1.8 l -0.25,-0.05 -1.9,-0.2 1,0.75 c 0.45,0.5 0.75,1.3 0.75,1.3 l -1.5,-0.6 0.3,0.3 -0.3,-0.3 c 0,0 0.55,0.45 0.8,1 l 1.5,4 c 0.5,1.4 3.7,3.5 3.7,3.5 0,0 -0.65,0.65 -1,0.7 -0.35,0 -1.4,-0.9 -1.4,-0.9 l 0.55,0.45 -0.55,-0.45 0.8,1.2 c 0.75,1.2 2.1,1.75 2.1,1.75 l -1.1,-0.25 1.1,1.25 c 1.1,1.25 2.5,2.25 2.5,2.25 l -0.45,1.25 0.45,-0.15 -0.45,0.15 c 0,0 0.65,-0.45 1.75,0.15 1.05,0.55 1.85,2.15 1.85,2.15 l 0.15,0.3 -0.15,-0.3 c 0,0 0.35,0.5 0.3,0.9 0,0.45 0.2,0.45 0.3,1.65 0.1,1.2 -0.3,1.55 -0.3,1.55 l -0.95,-0.75 0.35,1 c 0.35,1 1.3,0.85 1.3,0.85 l -0.25,0.25 c -0.3,0.2 -1.05,-0.15 -1.05,-0.15 l 0.5,0.45 c 0.5,0.5 1.5,0.5 1.5,0.5 l 0.15,0.45 c 0.15,0.45 -0.25,0.9 -0.25,0.9 l 0.7,0.1 c 0.65,0.1 1.1,-0.85 1.1,-0.85 l 0.55,0.6 c 0.55,0.55 1.25,0.25 1.25,0.25 l -0.4,-0.15 c -0.45,-0.15 -0.05,-0.75 -0.05,-0.75 l -0.15,0.3 0.15,-0.3 0.15,0 c -0.2,-0.35 -0.3,-0.8 -0.3,-1.75 0,-1.65 0.25,-2 0.75,-3.25 0.5,-1.25 0.5,-0.9 1,-2.4 0.5,-1.5 -0.6,-3.25 -0.6,-5.5 0,-2.25 0,-2.85 -0.15,-4.6 -0.1,-1.75 0.5,-3.9 0.5,-3.9 l -0.3,1.3 0.3,-1.3 0.5,-0.1 -0.1,-1.5 c -0.15,-1.5 -0.4,-3.5 -0.4,-6.75 0,-2.1 0.9,-3.45 1.5,-4.15 l 0.15,-0.75 c 0.15,-1.1 1.4,-2.65 1.4,-2.65 l -0.65,0.9 0.65,-0.9 0.1,0.75 c 0.1,0.8 1.3,0.8 1.3,0.8 0,0 -0.6,-1.1 -0.7,-1.9 -0.1,-0.75 0.35,-1.25 0.35,-1.25 l -0.2,0.35 0.2,-0.35 1.2,1.15 -0.3,-0.6 c -0.3,-0.65 0.5,-1.35 0.5,-1.35 l -0.35,0.45 0.35,-0.45 1.45,0.55 c 1.1,0.4 1.45,0.9 1.4,0.85 -0.3,-0.35 -0.6,-0.7 -0.9,-0.95 l -1.05,-1 1.05,0.3 c 0.7,0.25 1.3,0.75 1.55,1 l -0.25,-0.3 -1.55,-1.4 2.95,0.65 c 2.2,0.5 3.5,1.5 3.5,1.5 l -0.15,-0.25 -1.1,-1.35 2.7,0.9 c 0.8,0.3 4.1,2.4 4.6,2.7 l 0.15,0.1 -0.15,-0.1 c 0.5,0.35 0,0 -0.25,-0.35 l -0.95,-1.15 2.65,1.3 c 1,0.6 1.55,1.25 1.55,1.25 l -0.75,-1.8 1.35,0.9 c 1.3,0.85 2.3,1.35 2.3,1.35 0.55,0.6 1.35,1.3 1.35,1.3 l -0.2,-0.8 c -0.15,-0.65 -0.8,-1.85 -1,-2.2 l 0.25,0.2 0.05,0.05 1,1.25 c 0.7,1.15 0.75,1.55 0.75,1.55 0,0 0,-1.5 -0.1,-2.25 l -0.25,-1.5 0.55,0.5 0.3,0.35 c 0,0 0.3,-0.4 0.15,-1.15 l -0.25,-1.35 0.45,0.05 -0.45,-0.05 c 0,0 0.75,0 1.2,0.25 l 0.4,0.3 0.2,-1 0.65,0.6 c 0,0 -0.3,-1.2 -0.05,-1 0.25,0.15 0.4,-0.1 1.3,0.8 0.9,0.85 2,2.05 2.35,2.55 0.3,0.5 0.75,1.7 0.75,1.7 0,0 -0.05,-1 0,-1.45 0,-0.4 0.6,-0.95 0.6,-0.95 l -0.3,0.35 0.3,-0.35 -0.85,-0.1 -0.1,-1.95 -0.75,0.3 -0.25,0.2 c 0,0 -0.9,-1.7 -1.8,-2.35 l -0.55,-0.3 c -1.75,-0.2 -0.65,0.3 -0.65,0.3 l -1,-0.1 -0.65,-0.65 c -0.6,-0.6 -0.5,-0.25 -0.5,-0.25 l 0.05,-0.1 -0.05,0.1 -0.25,0.9 -1,-0.75 0.15,0.4 -0.15,-0.4 c 0,0 0.25,0.5 0.25,1.75 0,1.25 0,0 -0.75,-0.15 -0.75,-0.1 -1.5,-0.6 -1.5,-0.6 l 0.45,0.25 -0.45,-0.25 0.65,0.75 c 0.6,0.75 0.25,1.5 0.25,1.5 l -1.15,-1.15 c -1.1,-1.1 -2.25,-1.75 -2.25,-1.75 l 0.7,0.45 -0.7,-0.45 0.25,0.75 c 0.25,0.75 0.15,0.9 0.15,0.9 l -0.9,-0.5 -0.35,0.75 c -0.4,0.75 0,0 -1.4,-0.4 -1.35,-0.35 -1.25,-0.5 -3,-1.1 l -3.5,-1.15 3,0 -1,-0.75 c -1,-0.75 -2.75,-1.5 -2.75,-1.5 l 1,0.45 -1,-0.45 0.8,0.05 -0.8,-0.05 c 0,0 1.15,0 2.9,0.5 1.75,0.5 4.1,0.75 4.1,0.75 l -0.85,-0.25 c -0.9,-0.25 -2.15,-0.75 -4,-1.75 -1.05,-0.55 -2.05,-0.8 -3,-0.85 l -0.125,0 0.1,0 4.525,0.1 -1.15,-0.6 c -1.1,-0.65 -3.1,-1.25 -3.1,-1.25 l 1.15,0.4 -1.15,-0.4 5.25,0 -2.9,-0.5 z"
             inkscape:connector-curvature="0"
             style="fill:#f4f1d9" />
        </g>
        <g
           id="drawingObject20">
          <path
             id="path23"
             d="m 1.801,-17.349 0,-1.225 0,0.025 c 0,0.45 -0.45,0.8 -1.4,1.05 l -4,1.5 1.4,-1.5 c 0,0 -1.15,0.25 -4.75,1.75 -3.65,1.5 -4.5,3.5 -5.15,4.4 l -0.6,0.55 c 0,2.05 -1.3,2.5 -1.55,2.55 -0.25,0.05 -0.4,0.9 -0.4,0.9 l 1,0.2 -0.15,0.9 c -0.15,0.9 -1.5,2.8 -2.1,4.4 -0.65,1.6 -1.05,3.8 -1.05,3.8 l -0.5,-0.35 c -0.3,-0.2 -0.35,-0.45 -0.4,-0.6 l -0.1,1.55 c -0.05,0.75 0.75,1.8 0.75,1.8 l -0.25,-0.05 -1.9,-0.2 1,0.75 c 0.45,0.5 0.75,1.3 0.75,1.3 l -1.5,-0.6 0.3,0.3 -0.3,-0.3 c 0,0 0.55,0.45 0.8,1 l 1.5,4 c 0.5,1.4 3.7,3.5 3.7,3.5 0,0 -0.65,0.65 -1,0.7 -0.35,0 -1.4,-0.9 -1.4,-0.9 l 0.55,0.45 -0.55,-0.45 0.8,1.2 c 0.75,1.2 2.1,1.75 2.1,1.75 l -1.1,-0.25 1.1,1.25 c 1.1,1.25 2.5,2.25 2.5,2.25 l -0.45,1.25 0.45,-0.15 -0.45,0.15 c 0,0 0.65,-0.45 1.75,0.15 1.05,0.55 1.85,2.15 1.85,2.15 l 0.15,0.3 -0.15,-0.3 c 0,0 0.35,0.5 0.3,0.9 0,0.45 0.2,0.45 0.3,1.65 0.1,1.2 -0.3,1.55 -0.3,1.55 l -0.95,-0.75 0.35,1 c 0.35,1 1.3,0.85 1.3,0.85 l -0.25,0.25 c -0.3,0.2 -1.05,-0.15 -1.05,-0.15 l 0.5,0.45 c 0.5,0.5 1.5,0.5 1.5,0.5 l 0.15,0.45 c 0.15,0.45 -0.25,0.9 -0.25,0.9 l 0.7,0.1 c 0.65,0.1 1.1,-0.85 1.1,-0.85 l 0.55,0.6 c 0.55,0.55 1.25,0.25 1.25,0.25 l -0.4,-0.15 c -0.45,-0.15 -0.05,-0.75 -0.05,-0.75 l -0.15,0.3 0.15,-0.3 0.5,-0.05 -0.05,-0.05 c -0.1,0 -0.15,-0.1 -0.2,-0.25 -1.3,-1.6 0.15,-4.05 0.75,-5.15 0.6,-1.15 0.85,-3.15 0.5,-5.65 -0.4,-2.5 -0.25,-8.35 -0.15,-10.25 0.15,-1.85 0.5,-0.1 0.5,-0.1 0,0 0,-0.9 -0.35,-4.15 -0.4,-3.25 0.25,-6.6 0.5,-8.75 0.25,-2.1 4,-6.6 4.5,-7 0.5,-0.35 3.6,-0.5 3.6,-0.5 0,0 -0.6,-0.35 -1.35,-0.5 q -0.75,-0.1 -2.5,-0.1 c -0.65,0 -1.9,0.25 -2.9,0.85 -1,0.65 0,0 0.25,-0.85 0.1,-0.35 0.45,-0.65 1,-0.95 0.3,-0.15 0.6,-0.3 0.85,-0.35 l -0.025,-0.025 -2.075,0.675 0.4,-0.5 c 0.35,-0.5 3.5,-2.75 3.5,-2.75 l -1.6,1.2 1.6,-1.2 -1.65,0.25 c -1.6,0.25 -2.75,1.65 -3.1,1.9 -0.4,0.25 0.1,-0.5 1.35,-1.65 1.25,-1.1 3.15,-2.1 3.15,-2.1 l -1.1,0.65 1.1,-0.65 -3,0.25 z"
             inkscape:connector-curvature="0"
             style="fill:#e8e5cd" />
        </g>
        <g
           id="drawingObject21">
          <path
             id="path24"
             d="m -9.349,-5.999 c 1,0.5 1.25,1.15 1.25,1.15 l -0.1,-0.9 c -0.15,-0.85 -1.4,-1.6 -2.15,-1.6 l -1.5,0.1 0.25,0.35 -0.25,-0.35 c 0,0 0.4,0.65 0.9,0.65 0.5,0 0.6,0.1 1.6,0.6 z"
             inkscape:connector-curvature="0"
             style="fill:#fefce9" />
        </g>
        <g
           id="drawingObject22">
          <path
             id="path25"
             d="m -7.849,-3.849 c 0,0 -1.1,0.5 -1.5,1.35 q -0.6,1.45 -0.6,1.5 c 0,0.4 0.1,1 0.5,0.9 0.35,-0.15 0.85,-0.9 0.85,-0.9 0,0 0,-0.25 0.25,-0.75 l 0.25,-1 -0.75,0.4 c 0,0 0.25,-0.5 0.65,-1 l 0.35,-0.5 z"
             inkscape:connector-curvature="0"
             style="fill:#fefce9" />
        </g>
        <g
           id="drawingObject23">
          <path
             id="path26"
             d="m -13.099,0.901 0.5,0.25 1.15,-0.15 0.5,0 0.75,-0.35 -0.65,-0.75 -0.85,0.35 -1.65,-0.1 -0.05,0.3 0.05,-0.3 c 0,0 -0.25,0.5 0.25,0.75 z"
             inkscape:connector-curvature="0"
             style="fill:#fefce9" />
        </g>
        <g
           id="drawingObject24">
          <path
             id="path27"
             d="m -7.099,-5.199 -0.35,-0.4 q 0.05,0.2 0.15,0.4 0.05,0.25 -0.05,0.7 c -0.1,0.75 -1,2.25 -1,2.75 0,0.5 -1.25,2.4 -1.85,2.4 -0.65,0 -1.9,0.6 -2.4,0.5 -0.5,-0.15 -0.75,-1 -0.75,-1 l 0.2,0.45 -0.2,-0.45 c 0,0 -1,-0.15 -1.1,-0.9 l -0.15,-0.75 -0.5,0.45 0.5,-0.45 c 0,0 -1,0.65 -1.1,1.5 l -0.4,1.9 0.25,-1 0.5,0.05 -0.5,-0.05 c 0,0 0.9,-0.25 1.25,1.1 0.4,1.4 0.9,1.75 0.9,1.75 l 0.1,-1.35 0.05,0.3 -0.05,-0.3 c 0,0 -0.1,0.35 0.5,1.25 0.65,0.85 1.15,1.35 1.15,1.35 l 0,-2.5 0.75,2.75 c 0,0 0.1,-1.35 0.35,-2.1 l 0.25,-0.75 0.1,0.05 -0.1,-0.05 c 0,0 0.15,-0.15 0.25,0.85 l 0.25,1.75 c 0,0 0.25,-0.85 0.75,-1.85 0.5,-1 0.5,-0.65 0.65,-1.5 l 0.25,-1.5 0.2,0.35 -0.2,-0.35 c 0,0 0.35,0.5 0.35,1.25 l 0,1.75 c 0,0 0.65,-1 0.75,-2.25 0.15,-1.25 -0.1,-1.15 0.15,-1.75 0.25,-0.65 0.35,-0.65 0.5,-1.25 0.1,-0.65 0.1,-0.9 0.1,-1.5 0,-0.65 0.25,0.1 0,-0.65 -0.25,-0.75 -0.85,-1.35 -0.85,-1.35"
             inkscape:connector-curvature="0"
             style="fill:#d0cdb8" />
        </g>
        <g
           id="drawingObject25">
          <path
             id="path28"
             d="m -0.549,-1.549 c -0.15,0.25 -0.35,0.55 -0.4,0.95 -0.25,1 -0.9,3 -0.9,3 l 0,-1.75 c 0,-1.75 0.5,-6.25 0.5,-6.25 l -0.25,2.45 0.25,-2.45 -0.75,1.6 c -0.5,1 -0.75,3.4 -0.75,3.4 0,0 -0.1,-0.5 -0.5,-1.65 -0.35,-1.1 -0.25,-3.5 -0.25,-3.5 l 0,1.35 0,-1.35 -1,6.15 0,-2.25 -0.75,2.1 c -0.35,1 -1,4.25 -1,4.25 l -0.25,-4.25 0,0.65 c 0,0.6 -0.75,1.75 -1.5,2.25 -0.75,0.5 -0.25,4.75 -0.25,4.75 l -0.5,-1.65 0,-1.35 -0.6,1.6 c -0.25,0.75 -0.4,1.9 -0.4,1.9 l -0.6,-0.75 c -0.65,-0.75 -0.75,-2.4 -0.75,-2.4 l 0.15,0.9 -0.15,-0.9 -0.05,0.25 0.05,-0.25 c 0,0 0,0.4 -0.4,0.9 -0.35,0.5 0,2.35 0,2.35 l -1.25,-2.5 -0.1,1.5 -1.9,-2.45 c -0.4,-0.55 -0.55,-1.1 -0.55,-1.45 l -0.2,1.9 c 0,0 -0.6,-1.5 -0.85,-2.5 l -0.4,-1.55 -0.1,0.5 -0.5,-0.35 c -0.3,-0.2 -0.35,-0.45 -0.4,-0.6 l -0.1,1.55 c -0.05,0.75 0.75,1.8 0.75,1.8 l -0.25,-0.05 -1.9,-0.2 1,0.75 c 0.45,0.5 0.75,1.3 0.75,1.3 l -1.5,-0.6 0.3,0.3 -0.3,-0.3 c 0,0 0.55,0.45 0.8,1 l 1.5,4 c 0.5,1.4 3.7,3.5 3.7,3.5 0,0 -0.65,0.65 -1,0.7 -0.35,0 -1.4,-0.9 -1.4,-0.9 l 0.55,0.45 -0.55,-0.45 0.8,1.2 c 0.75,1.2 2.1,1.75 2.1,1.75 l -1.1,-0.25 1.1,1.25 c 1.1,1.25 2.5,2.25 2.5,2.25 l -0.45,1.25 0.45,-0.15 -0.45,0.15 c 0,0 0.65,-0.45 1.75,0.15 1.05,0.55 1.85,2.15 1.85,2.15 l 0.15,0.3 -0.15,-0.3 c 0,0 0.35,0.5 0.3,0.9 0,0.45 0.2,0.45 0.3,1.65 0.1,1.2 -0.3,1.55 -0.3,1.55 l -0.95,-0.75 0.35,1 c 0.35,1 1.3,0.85 1.3,0.85 l -0.25,0.25 c -0.3,0.2 -1.05,-0.15 -1.05,-0.15 l 0.5,0.45 c 0.5,0.5 1.5,0.5 1.5,0.5 l 0.15,0.45 c 0.15,0.45 -0.25,0.9 -0.25,0.9 l 0.7,0.1 c 0.65,0.1 1.1,-0.85 1.1,-0.85 l 0.55,0.6 c 0.55,0.55 1.25,0.25 1.25,0.25 l -0.4,-0.15 c -0.45,-0.15 -0.05,-0.75 -0.05,-0.75 l -0.15,0.3 0.15,-0.3 0.5,-0.05 -0.05,-0.05 c -0.1,0 -0.15,-0.1 -0.2,-0.25 -1.3,-1.6 0.15,-4.05 0.75,-5.15 0.6,-1.15 0.85,-3.15 0.5,-5.65 -0.4,-2.5 -0.25,-8.35 -0.15,-10.25 0.15,-1.85 0.5,-0.1 0.5,-0.1 0,0 0,-0.9 -0.35,-4.15 -0.3,-2.2 -0.05,-4.45 0.15,-6.3 z"
             inkscape:connector-curvature="0"
             style="fill:#dcd9c3" />
        </g>
        <g
           id="drawingObject26">
          <path
             id="path29"
             d="m -3.199,5.401 0,1.75 c 0,1.1 -0.65,4.6 -0.65,4.6 l -0.25,-1.25 -1.25,-4.1 0.25,3 c 0.15,1.5 -0.6,3.6 -0.6,3.6 l -0.4,-2.75 -0.1,2.25 c 0,1.15 -0.5,2.5 -0.5,2.5 l -1.65,-4.75 -0.1,1.75 c 0,1 0,3.4 -0.15,4 -0.1,0.65 -0.25,-1.1 -1,-2.6 l -1.35,-2.65 0,0.75 c 0,0.75 0.35,2.5 0.35,2.5 0,0 -1,-1.6 -2.5,-3.6 l -2.35,-3.15 0,0.75 c 0,0.75 1,2.25 1,2.65 0,0.35 -1.4,-1.15 -2.25,-1.9 -0.55,-0.4 -0.95,-1 -1.4,-1.65 l 1.3,3.45 c 0.5,1.4 3.7,3.5 3.7,3.5 0,0 -0.65,0.65 -1,0.7 -0.35,0 -1.4,-0.9 -1.4,-0.9 l 0.55,0.45 -0.55,-0.45 0.8,1.2 c 0.75,1.2 2.1,1.75 2.1,1.75 l -1.1,-0.25 1.1,1.25 c 1.1,1.25 2.5,2.25 2.5,2.25 l -0.45,1.25 0.45,-0.15 -0.45,0.15 c 0,0 0.65,-0.45 1.75,0.15 1.05,0.55 1.85,2.15 1.85,2.15 l 0.15,0.3 -0.15,-0.3 c 0,0 0.35,0.5 0.3,0.9 0,0.45 0.2,0.45 0.3,1.65 0.1,1.2 -0.3,1.55 -0.3,1.55 l -0.95,-0.75 0.35,1 c 0.35,1 1.3,0.85 1.3,0.85 l -0.25,0.25 c -0.3,0.2 -1.05,-0.15 -1.05,-0.15 l 0.5,0.45 c 0.5,0.5 1.5,0.5 1.5,0.5 l 0.15,0.45 c 0.15,0.45 -0.25,0.9 -0.25,0.9 l 0.7,0.1 c 0.65,0.1 1.1,-0.85 1.1,-0.85 l 0.55,0.6 c 0.55,0.55 1.25,0.25 1.25,0.25 l -0.4,-0.15 c -0.45,-0.15 -0.05,-0.75 -0.05,-0.75 l -0.15,0.3 0.15,-0.3 0.5,-0.05 -0.05,-0.05 c -0.1,0 -0.15,-0.1 -0.2,-0.25 -1.3,-1.6 0.15,-4.05 0.75,-5.15 0.6,-1.15 0.85,-3.15 0.5,-5.65 -0.25,-1.45 -0.3,-4.15 -0.25,-6.45 l -0.65,-1.15 q -0.2,-0.55 -0.2,-2.9 l 0.1,-2.25 -0.65,2.75 c -0.1,0.4 -0.1,-0.5 -0.1,-1 0,-0.5 -0.75,-2.85 -0.75,-2.85 z"
             inkscape:connector-curvature="0"
             style="fill:#cecbb6" />
        </g>
        <g
           id="drawingObject27">
          <path
             id="path30"
             d="m 15.801,-10.049 c -1.4,-0.2 -5.15,-1.05 -7.75,-0.8 q -2,0.35 -3.35,0.8 c -1.3,0.45 -3.05,3.05 -3.25,3.75 -0.15,0.7 -1.1,2.7 -1.15,3 l -0.1,0.3 0.9,-0.4 -0.9,0.4 c 0,0 1.35,-1.1 3.15,-0.1 1.8,1 2.5,1.6 3.7,1.85 1.15,0.25 1.75,0.25 1.75,0.25 0,0 -0.9,-0.05 -1.15,-0.8 l -0.45,-1.95 0.8,0.55 -0.8,-0.55 c 0,0 0.95,0.9 3.4,1.5 2.45,0.65 3.6,0.65 5.2,1.4 1.55,0.75 1.8,0.8 1.8,0.8 l -1,-1.3 1,0.4 -1,-0.4 c 0,0 1.55,0.35 3.2,2 1.6,1.6 3.5,2.75 3.5,2.75 l -1.15,-3 1,0.5 -1,-0.5 c 0,0 1.75,0.7 2.8,1.95 l 1.4,1.65 c 0,0 -0.05,-1.75 -0.4,-2.65 l -0.85,-2 1.05,1.05 -1.05,-1.05 c 0,0 1.95,1.9 2.45,2.75 l 0.5,0.8 c 0,0 0.1,-0.25 0.05,-1.25 l -0.2,-2.05 0.65,0.55 -0.65,-0.55 c 0,0 1.2,0.9 1.45,1.5 l 0.35,0.8 -0.05,-4.55 0.4,0.6 -0.4,-0.6 c 0,0 0.65,1.1 1.05,1.35 0.45,0.25 0.75,0.25 0.75,0.25 l -0.3,-0.8 c -0.1,-0.4 -0.05,-1.55 -0.05,-2.4 l -0.05,-2.9 0.85,1.1 -0.85,-1.1 c 0,0 1.6,1.85 2.15,3.05 0.6,1.2 1.15,1.45 1.4,2.25 l 0.5,1.95 0,-1.65 c 0,-0.95 0,-1.3 0.3,-1.6 l 0.65,-0.5 -1,0 c 0,0 -0.15,0 0.15,-0.65 l 0.6,-1.5 c 0,0 -0.95,0.45 -1.25,0.4 -0.35,-0.1 -0.4,-0.4 -0.7,-0.7 -0.3,-0.3 -2.3,-3.05 -3.05,-3.3 -0.75,-0.25 -1.2,-0.4 -1.5,-0.4 -0.35,0 -2.2,0.5 -2.35,0.75 -0.1,0.25 0.2,0.7 -0.9,1 -1.15,0.3 -3.1,0.5 -4.1,0.25 -1,-0.25 -4.8,-2.05 -6.15,-2.25 z"
             inkscape:connector-curvature="0"
             style="fill:#f4f1d9" />
        </g>
        <g
           id="group4">
          <g
             id="drawingObject28">
            <path
               id="path31"
               d="m 22.901,-1.299 c -0.6,-1.1 -2.35,-2.1 -2.35,-2.1 l 0.95,0.65 -0.95,-0.65 1.15,1.35 c 0.4,0.55 0.35,1.25 0.35,1.9 0,0.6 0.1,0.4 0.1,0.55 l 1,0.5 -1,-0.5 c 0,0 1.75,0.7 2.8,1.95 l 1.4,1.65 c -0.05,-0.35 -1.05,-2.15 -1.55,-2.6 -0.5,-0.45 -1.25,-1.55 -1.9,-2.7 z"
               inkscape:connector-curvature="0"
               style="fill:#dcd9c3" />
          </g>
          <g
             id="drawingObject29">
            <path
               id="path32"
               d="m 10.151,-2.999 q -0.65,-0.15 -1.65,-0.5 -0.8,-0.3 -1.05,-0.3 c -0.45,0 -0.1,0 0.1,0.3 0.4,0.3 1.35,0.85 3.05,1.25 2.45,0.65 3.6,0.65 5.2,1.4 1.55,0.75 1.8,0.8 1.8,0.8 l -0.1,-0.1 -0.8,-0.4 c -0.75,-0.35 -2.15,-1.25 -3,-1.5 -0.8,-0.25 -2.3,-0.7 -3.55,-0.95 z"
               inkscape:connector-curvature="0"
               style="fill:#dcd9c3" />
          </g>
          <g
             id="drawingObject30">
            <path
               id="path33"
               d="m 25.201,-1.599 c 0.2,0.8 0,0.6 -0.1,0.95 l 1.05,1.05 -1.05,-1.05 c 0,0 1.95,1.9 2.45,2.75 l 0.45,0.75 -0.1,-0.2 c -0.25,-0.7 -1.6,-3.3 -1.8,-3.8 l -1.3,-2.2 0.4,1.75 z"
               inkscape:connector-curvature="0"
               style="fill:#dcd9c3" />
          </g>
          <g
             id="drawingObject31">
            <path
               id="path34"
               d="m 23.301,3.401 -0.05,-0.05 -0.35,-0.25 c -0.6,-0.5 -2.1,-2.75 -2.55,-3.4 -0.45,-0.6 -0.9,-1.1 -2.5,-2.45 -1.65,-1.3 -4.5,-1.85 -4.5,-1.85 l 1.65,0.45 -1.65,-0.45 1.05,0.35 c 0.4,0.15 1.25,1.2 2,2.15 0.5,0.65 0.5,0.75 0.5,0.85 0.5,0.2 1.65,0.7 2.9,1.9 1.6,1.6 3.5,2.75 3.5,2.75 z"
               inkscape:connector-curvature="0"
               style="fill:#dcd9c3" />
          </g>
          <g
             id="drawingObject32">
            <path
               id="path35"
               d="m 33.201,-4.099 c -0.15,-0.7 -0.55,-1.9 -1,-2.25 l -1.15,-0.8 0.85,1.1 -0.85,-1.1 c 0,0 1.6,1.85 2.15,3.05 z"
               inkscape:connector-curvature="0"
               style="fill:#dcd9c3" />
          </g>
          <g
             id="drawingObject33">
            <path
               id="path36"
               d="m 29.001,-6.099 -0.65,-0.5 0.4,0.45 -0.4,-0.45 c 0,0 0.7,0.7 0.95,1.5 0.25,0.8 0.35,1.25 0.4,1.95 l 0.05,0.6 c 0.15,0.3 0.6,1.05 0.95,1.25 0.45,0.25 0.75,0.25 0.75,0.25 l -0.1,-0.25 q -0.8,-0.15 -1,-1.5 c -0.15,-0.7 -0.2,-1.7 -0.5,-2.3 -0.3,-0.65 -1.5,-1.5 -1.5,-1.5"
               inkscape:connector-curvature="0"
               style="fill:#dcd9c3" />
          </g>
          <g
             id="drawingObject34">
            <path
               id="path37"
               d="m 29.301,0.601 q -0.45,-1 -0.45,-1.25 c -0.05,-0.6 -1.3,-2 -1.3,-2 l 0.65,0.8 -0.65,-0.8 0.35,1.35 c 0.25,0.8 0.15,0.45 0,0.9 l 0.65,0.55 -0.65,-0.55 c 0,0 1.2,0.9 1.45,1.5 l 0.35,0.8 q 0,-0.35 -0.4,-1.3 z"
               inkscape:connector-curvature="0"
               style="fill:#dcd9c3" />
          </g>
        </g>
        <g
           id="drawingObject35">
          <path
             id="path38"
             d="m 0.201,-4.049 c 1,-1.7 3.95,-0.5 3.95,-0.5 0,0 -0.1,-0.45 -0.55,-0.8 -0.4,-0.4 -2.15,-0.95 -2.15,-0.95 l 0.95,0.35 -0.95,-0.35 c 0,0 0.45,-0.7 0.75,-0.6 0.3,0.05 2.35,-0.6 4.65,-0.6 1.35,0 3,0.25 5.05,0.75 -0.45,-0.2 -1.85,-1.05 -3.3,-1.8 -1.8,-0.85 -2.9,-0.55 -2.9,-0.55 l 0.8,-0.05 -0.8,0.05 c 0,0 0.2,-0.25 0.9,-0.75 0.7,-0.5 2.85,-0.8 2.85,-0.8 0,0 -1.15,-0.2 -2.8,-0.2 q -1.1,0 -3.55,1.05 -2.25,0.95 -3.65,1.9 l -0.5,6 1.25,-2.15 z"
             inkscape:connector-curvature="0"
             style="fill:#e8e5cd" />
        </g>
      </g>
      <g
         id="element3">
        <g
           id="drawingObject36">
          <path
             id="path39"
             d="m -23.708,-25.721 c -2.288,-0.198 -1.586,-5.116 -3.377,-5.732 -0.172,3.239 3.366,7.543 2.144,10.821 -3.492,-1.696 -4.255,-8.178 -7.471,-10.062 1.61,2.65 3.867,6.019 4.384,8.765 -3.217,-0.376 -3.921,-2.645 -6.633,-3.39 1.507,2.262 4.937,3.113 5.671,5.98 -1.959,0.01 -4.553,-1.354 -6.462,-2.105 1.306,1.887 3.64,1.677 5.362,2.905 2.686,2.055 3.34,5.838 4.074,9.459 -4.083,1.046 -9.498,-2.254 -11.025,-5.418 l 0,0.754 c 0.543,0.682 0.899,1.841 1.372,2.381 3.493,3.958 8.411,3.152 13.194,4.727 1.208,0.392 2.426,1.235 2.709,2.604 -1.33,2.087 -6.005,2.458 -8.77,0.565 -0.366,0.652 1.481,1.31 0.164,1.234 -2.183,-0.161 -3.647,-0.972 -5.418,-1.44 l 2.571,0.814 -2.571,-0.814 c 2.725,2.352 9.184,3.301 13.316,2.249 1.751,-0.435 2.973,-1.452 4.642,-1.372 1.923,0.096 3.266,1.123 4.912,1.407 1.363,-1.84 0.412,-3.322 0.106,-3.734 -5.34,-0.093 -7.815,-1.321 -8.22,-5.489 -0.489,-5.564 0.758,-15.832 -0.578,-19.826 -0.382,1.659 -0.416,8.198 -1.984,8.507 -0.783,-2.107 -0.153,-7.569 -1.989,-10.039 -0.879,1.324 2.135,4.34 -0.123,6.249 z"
             inkscape:connector-curvature="0"
             style="fill:#9c622c" />
        </g>
        <g
           id="group6">
          <g
             id="drawingObject37">
            <path
               id="path40"
               d="m -19.244,-25.411 c -0.178,1.683 -1.201,11.368 -1.155,12.467 q 0.023,0.55 0.065,2.756 0.368,2.012 2.057,2.239 c -0.395,-0.701 -0.661,-1.57 -0.757,-2.663 -0.489,-5.564 0.758,-15.832 -0.578,-19.826 l 0.256,1.926 -0.256,-1.926 c 0,0 0.552,3.395 0.368,5.027 z"
               inkscape:connector-curvature="0"
               style="fill:#814f22" />
          </g>
          <g
             id="drawingObject38">
            <path
               id="path41"
               d="m -17.744,-5.457 c 0,0 0.368,0.504 0.118,0.889 -0.25,0.385 -0.8,1.162 -1.126,1.356 -0.277,0.188 -1.607,0.767 -1.995,0.869 l 1.623,-0.266 c -0.474,0.214 -1.097,0.447 -1.831,0.595 -1.962,0.362 -3.631,0.283 -4.54,0.253 -0.902,0.019 -3.789,-0.149 -4.767,-0.321 l -0.921,-0.128 c 3.18,1.235 7.601,1.601 10.709,0.786 1.751,-0.435 2.973,-1.452 4.642,-1.372 1.923,0.096 3.266,1.123 4.912,1.407 1.363,-1.84 0.412,-3.322 0.106,-3.734 l -0.014,0.656 c 0.04,0.296 0.06,0.444 -0.961,0.329 -0.767,-0.099 -1.373,-0.119 -1.929,-0.146 l 2.057,0.732 0.458,0.039 c 0,0 -0.135,0.119 -0.728,0.198 l -1.205,0.009 0.991,0.27 0.408,0.046 c 0,0 0.017,0.501 -0.714,0.297 -0.681,-0.211 -0.866,-0.086 -1.468,-0.458 -0.596,-0.323 -0.665,-0.465 -1.291,-0.633 -0.625,-0.168 -0.747,0.05 -0.997,-0.319 -0.299,-0.362 -0.398,-0.349 -0.648,-0.718 l -0.889,-0.636 z"
               inkscape:connector-curvature="0"
               style="fill:#814f22" />
          </g>
        </g>
        <g
           id="group7">
          <g
             id="drawingObject39">
            <path
               id="path42"
               d="m -28.536,-3.467 c -0.244,0.434 0.464,0.843 0.645,1.07 q 0.415,0.095 1.794,0.264 l -0.161,-0.079 c -0.316,-0.109 -1.294,-0.281 -1.867,-0.807 l -0.306,-0.412 -0.105,-0.036 z"
               inkscape:connector-curvature="0"
               style="fill:#814f22" />
          </g>
        </g>
        <g
           id="group8">
          <g
             id="drawingObject40">
            <path
               id="path43"
               d="m -24.101,-7.525 -0.52,-0.132 c -0.569,-0.126 -2.505,-0.32 -4.201,-0.597 -1.646,-0.284 -3.259,-1.074 -5.191,-2.375 -1.932,-1.301 -2.541,-2.476 -2.817,-3.042 l -0.207,-0.425 -0.004,0.352 c 0.543,0.682 0.899,1.841 1.372,2.381 3.493,3.958 8.411,3.152 13.194,4.727 q 2.311,0.748 2.709,2.604 c 0.455,-0.362 0.593,-0.832 0.721,-1 0.178,-0.175 0.162,-0.675 0.162,-0.675 l -0.204,-0.023 c -0.204,-0.023 -0.399,-0.349 -0.866,-0.84 -0.517,-0.484 -1.577,-0.896 -1.83,-0.912 -0.254,-0.017 0,0 0.497,0.336 0.497,0.336 1.109,1.159 1.109,1.159 l -0.441,-0.293 c -0.385,-0.251 -1.633,-0.939 -2.742,-1.344 -0.583,-0.224 -1.258,-0.386 -1.771,-0.468 0.52,0.132 1.03,0.567 1.03,0.567 z"
               inkscape:connector-curvature="0"
               style="fill:#814f22" />
          </g>
        </g>
        <g
           id="drawingObject41">
          <path
             id="path44"
             d="m -29.307,-18.694 c -0.806,-0.395 -3.147,-0.988 -4.572,-1.502 l -0.484,-0.237 c 1.317,0.83 2.943,0.965 4.273,1.894 2.686,2.055 3.334,5.788 4.06,9.36 0.958,0.024 2.048,0.281 2.048,0.281 l -0.56,-0.428 0.537,-0.122 c 0,0 -0.309,-0.059 -0.665,-0.464 q -0.691,-0.662 -1.24,-2.147 l -1.116,-3.47 0.648,1.471 c 0,0 -0.187,-1.03 -0.717,-2.367 -0.529,-1.337 -1.405,-1.873 -2.212,-2.269 z"
             inkscape:connector-curvature="0"
             style="fill:#814f22" />
        </g>
        <g
           id="drawingObject42">
          <path
             id="path45"
             d="m -34.543,-25.184 c 1.544,2.157 4.776,3.034 5.54,5.746 q 0.763,0.452 1.642,1.39 l -0.151,-0.382 -0.757,-1.156 0.53,-0.171 c 0,0 -0.398,-0.349 -0.955,-1.129 -0.556,-0.78 -2.699,-2.154 -3.848,-2.855 -0.658,-0.415 -1.491,-1.008 -2.001,-1.443 z"
             inkscape:connector-curvature="0"
             style="fill:#814f22" />
        </g>
        <g
           id="drawingObject43">
          <path
             id="path46"
             d="m -21.448,-18.182 0.537,-3.137 c 0,0 -0.171,0.224 -0.405,0.356 l -0.853,0.766 -0.2,-1.129 -0.79,-2.91 -0.188,0.477 c -0.128,0.168 -0.5,0.016 -0.5,0.016 l 0.118,1.643 c 0.128,0.586 -0.043,1.564 -0.191,2.338 -0.205,0.73 -0.682,1.297 -0.682,1.297 0,0 -0.648,-0.718 -0.905,-1.136 -0.306,-0.412 -0.846,-0.692 -0.846,-0.692 l 0.329,0.208 -0.329,-0.208 0.026,0.198 c -0.023,0.204 -0.681,-0.211 -0.681,-0.211 l 0.671,1.267 c 0.27,0.517 0.444,0.695 0.757,1.91 l 0.68,3.98 c 0.178,1.334 0.813,1.953 1.132,2.463 0.326,0.56 0.534,0.985 1.271,1.238 l 1.425,0.514 -0.404,-1.152 q -0.096,-0.339 -0.03,-2.107 0.083,-2.022 -0.029,-2.861 c -0.092,-0.691 -0.081,-1.748 0.087,-3.128 z"
             inkscape:connector-curvature="0"
             style="fill:#8f5a28" />
        </g>
        <g
           id="drawingObject44">
          <path
             id="path47"
             d="m -19.78,-27.551 c 0.006,0.804 -0.577,4.349 -1.223,7.049 -0.646,2.699 -0.476,7.752 -0.476,7.752 l 0.016,-0.253 c 0.01,-0.303 0.29,-1.597 0.37,-1.758 l -0.113,0.668 c -0.062,0.662 0.411,2.71 0.411,2.71 l 0.043,-0.81 c 0.076,-0.563 -0.138,-1.791 0.083,-2.775 l 0.254,-2.245 -0.194,0.427 -0.409,1.462 0.063,-0.662 c 0.013,-0.655 0.313,-2.554 0.518,-4.039 l 0.817,-5.185 c 0.109,-0.316 0.142,-0.823 0.093,-1.57 l -0.082,-3.256 -0.171,2.485 z"
             inkscape:connector-curvature="0"
             style="fill:#b67337" />
        </g>
        <g
           id="drawingObject45">
          <path
             id="path48"
             d="m -26.752,-30.844 -0.333,-0.609 0.122,0.536 c 0.039,0.297 0.095,1.093 0.394,2.209 0.3,1.116 1.511,3.418 1.511,3.418 0,0 -0.211,-0.826 -0.576,-1.683 -0.372,-0.905 -0.454,-1.145 -0.671,-2.021 l -0.447,-1.85 z"
             inkscape:connector-curvature="0"
             style="fill:#b67337" />
        </g>
        <g
           id="drawingObject46">
          <path
             id="path49"
             d="m -23.408,-31.39 -0.299,-0.362 c -0.142,0.069 -0.059,0.309 0.043,0.698 l 0.312,1.215 c 0.217,0.875 0.263,1.975 0.243,2.581 0.023,0.549 -0.145,1.175 -0.395,1.56 l -0.642,0.839 0.197,-0.026 c 0.142,-0.069 0.431,-0.158 0.817,-0.661 0.385,-0.504 0.537,-0.876 0.58,-1.686 0,-0.754 -0.28,-1.722 -0.428,-2.456 -0.085,-0.642 -0.151,-1.136 -0.302,-1.518 l -0.126,-0.184 z"
             inkscape:connector-curvature="0"
             style="fill:#b67337" />
        </g>
        <g
           id="drawingObject47">
          <path
             id="path50"
             d="m -24.344,-23.325 c -0.138,-0.283 -0.043,0.81 -0.043,0.81 l -0.554,1.883 c -0.293,0.441 -0.49,0.468 -0.49,0.468 0,0 -0.027,0.556 0.434,0.243 0.455,-0.362 0.613,-0.684 0.721,-1 0.06,-0.31 0.261,-0.688 0.175,-1.33 l -0.243,-1.074 z"
             inkscape:connector-curvature="0"
             style="fill:#b67337" />
        </g>
        <g
           id="drawingObject48">
          <path
             id="path51"
             d="m -30.809,-28.847 c -0.151,-0.382 -0.898,-1.086 -1.547,-1.804 0.287,0.263 1.014,1.574 2.176,3.882 0.332,0.609 2,3.704 2.06,4.148 0.016,0.501 -0.106,0.718 -0.106,0.718 l 0.711,0.056 q 0.079,-0.161 -0.332,-1.363 c -0.454,-1.146 -1.705,-3.744 -2.129,-4.29 -0.431,-0.596 -0.556,-0.781 -0.833,-1.347 z"
             inkscape:connector-curvature="0"
             style="fill:#b67337" />
        </g>
        <g
           id="drawingObject49">
          <path
             id="path52"
             d="m -29.003,-19.438 c -0.577,-0.174 -1.752,-0.319 -2.489,-0.573 l -3.763,-1.459 1.218,0.843 q 0.28,0.214 1.705,0.728 c 0.583,0.224 2.502,0.672 2.96,0.712 0.401,-0.004 0.619,0.118 1.241,0.639 0.622,0.52 1.366,1.577 1.346,1.429 -0.076,-0.191 -1.692,-2.137 -2.218,-2.319 z"
             inkscape:connector-curvature="0"
             style="fill:#b67337" />
        </g>
        <g
           id="drawingObject50">
          <path
             id="path53"
             d="m -26.685,-8.438 c 1.357,-0.382 3.253,0.271 3.098,0.241 -0.155,-0.03 -0.336,-0.257 -0.553,-0.379 -0.168,-0.128 -0.583,-0.224 -1.109,-0.405 -0.521,-0.132 -0.804,0.007 -1.538,0.155 -0.783,0.154 -1.985,-0.189 -2.653,-0.301 -0.619,-0.118 -2.591,-0.962 -3.404,-1.406 -0.813,-0.445 -2.094,-1.38 -2.574,-1.969 l -1.619,-1.594 0.806,1.149 c 0.145,0.333 0.569,0.879 1.191,1.399 0.622,0.521 1.751,1.074 2.604,1.815 0.852,0.741 2.657,0.702 3.723,1.163 q 0.793,0.296 2.028,0.132 z"
             inkscape:connector-curvature="0"
             style="fill:#b67337" />
        </g>
        <g
           id="drawingObject51">
          <path
             id="path54"
             d="m -12.184,-4.84 c 0,0 -2.363,-0.389 -2.808,-0.33 q -1.202,-0.342 -1.699,-0.678 l -0.931,-0.58 0.438,0.646 -0.438,-0.646 c 0,0 0.826,1.297 1.142,1.406 0.316,0.109 0.787,0.247 1.083,0.208 0.296,-0.04 1.291,-0.122 2.008,-0.016 0.669,0.112 1.205,-0.01 1.205,-0.01 z"
             inkscape:connector-curvature="0"
             style="fill:#b67337" />
        </g>
        <g
           id="drawingObject52">
          <path
             id="path55"
             d="m -18.449,-4.709 -0.069,-0.896 -0.145,0.421 c -0.151,0.372 -0.579,0.932 -1.175,1.363 l -2.601,1.603 0.684,-0.142 c 0.642,-0.085 1.666,-1.076 2.664,-1.51 q 0.948,-0.428 0.642,-0.839 z"
             inkscape:connector-curvature="0"
             style="fill:#b67337" />
        </g>
        <g
           id="drawingObject53">
          <path
             id="path56"
             d="m -17.81,-5.197 c -0.069,-0.141 -0.283,-0.615 -0.398,-0.349 q -0.158,0.323 -0.126,0.57 0.04,0.296 0.182,0.227 c 0.325,-0.194 0.368,-0.25 0.342,-0.448 z"
             inkscape:connector-curvature="0"
             style="fill:#b67337" />
        </g>
        <g
           id="drawingObject54">
          <path
             id="path57"
             d="m -22.321,-18.317 c -0.108,-1.192 0.369,0.504 0.432,-0.158 0.006,-0.704 -0.619,-3.134 -0.806,-3.411 l 0.174,0.932 c 0.174,0.932 0.168,1.636 0.026,2.459 l -0.099,1.521 c 0.016,0.501 0,0.754 -0.175,2.084 -0.168,1.38 0.194,1.08 0.329,1.716 l -0.277,-0.567 0.277,0.567 c 0.079,0.592 0.44,1.8 0.44,1.8 0,0 -0.148,-0.734 -0.23,-1.728 -0.082,-0.994 -0.013,-0.853 -0.032,-1.755 l -0.059,-3.46 z"
             inkscape:connector-curvature="0"
             style="fill:#9c622c" />
        </g>
        <g
           id="drawingObject55">
          <path
             id="path58"
             d="m -23.799,-19.226 0.135,1.39 c 0.007,0.049 -0.036,0.105 -0.128,0.167 -0.165,0.274 0.052,1.149 -0.017,1.762 -0.02,0.606 0.112,0.839 0.112,0.839 0,0 -0.112,-0.839 0.27,-1.744 q 0.145,-0.422 0.03,-0.909 -0.102,-0.389 0.148,-0.774 c 0.043,-0.056 -0.55,-0.731 -0.55,-0.731 z"
             inkscape:connector-curvature="0"
             style="fill:#9c622c" />
        </g>
        <g
           id="drawingObject56">
          <path
             id="path59"
             d="m -23.299,-14.719 -0.066,1.768 q -0.086,0.866 0.17,1.284 c 0.251,0.369 0.056,0.797 0.251,0.369 0.187,-0.477 0.247,-0.787 0.158,-1.077 -0.04,-0.296 -0.408,-0.8 -0.438,-1.399 l -0.075,-0.945 z"
             inkscape:connector-curvature="0"
             style="fill:#9c622c" />
        </g>
      </g>
    </g>
  </g>
</svg>
