<?xml version="1.0" encoding="UTF-8" standalone="no"?>
<!-- Generator: flash2svg, http://dissentgraphics.com/tools/flash2svg -->

<svg
   xmlns:dc="http://purl.org/dc/elements/1.1/"
   xmlns:cc="http://creativecommons.org/ns#"
   xmlns:rdf="http://www.w3.org/1999/02/22-rdf-syntax-ns#"
   xmlns:svg="http://www.w3.org/2000/svg"
   xmlns="http://www.w3.org/2000/svg"
   xmlns:sodipodi="http://sodipodi.sourceforge.net/DTD/sodipodi-0.dtd"
   xmlns:inkscape="http://www.inkscape.org/namespaces/inkscape"
   id="AvatarAssets"
   image-rendering="auto"
   version="1.1"
   x="0px"
   y="0px"
   width="65.304001"
   height="47.998272"
   viewBox="0 0 65.304001 47.998272"
   inkscape:version="0.48.4 r9939"
   sodipodi:docname="AvatarAssets_sideHatBear.ANI-do.svg">
  <metadata
     id="metadata147">
    <rdf:RDF>
      <cc:Work
         rdf:about="">
        <dc:format>image/svg+xml</dc:format>
        <dc:type
           rdf:resource="http://purl.org/dc/dcmitype/StillImage" />
      </cc:Work>
    </rdf:RDF>
  </metadata>
  <sodipodi:namedview
     pagecolor="#ffffff"
     bordercolor="#666666"
     borderopacity="1"
     objecttolerance="10"
     gridtolerance="10"
     guidetolerance="10"
     inkscape:pageopacity="0"
     inkscape:pageshadow="2"
     inkscape:window-width="640"
     inkscape:window-height="480"
     id="namedview145"
     showgrid="false"
     fit-margin-top="0"
     fit-margin-left="0"
     fit-margin-right="0"
     fit-margin-bottom="0"
     inkscape:zoom="1.9032258"
     inkscape:cx="60.805"
     inkscape:cy="-38.139173"
     inkscape:window-x="0"
     inkscape:window-y="0"
     inkscape:window-maximized="0"
     inkscape:current-layer="AvatarAssets" />
  <defs
     id="defs3">
    <linearGradient
       gradientUnits="userSpaceOnUse"
       color-interpolation="sRGB"
       x1="501.47501"
       y1="627.04999"
       x2="544.02502"
       y2="627.04999"
       id="linearGradient">
      <stop
         stop-color="#000"
         stop-opacity="0.08627450980392157"
         offset="0"
         id="stop6" />
      <stop
         stop-color="#000"
         stop-opacity="0.08627450980392157"
         offset="1"
         id="stop8" />
    </linearGradient>
    <radialGradient
       gradientUnits="userSpaceOnUse"
       color-interpolation="sRGB"
       r="4.1938419"
       cx="535.70001"
       cy="607.54999"
       fx="535.70001"
       fy="607.54999"
       gradientTransform="matrix(0.99409485,0.10914612,0.06489563,-0.58702087,-36.299,905.75)"
       id="radialGradient">
      <stop
         stop-color="#654316"
         stop-opacity="1"
         offset="0"
         id="stop11" />
      <stop
         stop-color="#3C290C"
         stop-opacity="1"
         offset="1"
         id="stop13" />
    </radialGradient>
    <radialGradient
       gradientUnits="userSpaceOnUse"
       color-interpolation="sRGB"
       r="12.365166"
       cx="499.95001"
       cy="613.54999"
       fx="499.95001"
       fy="613.54999"
       gradientTransform="matrix(-0.43743896,-0.89990234,-0.59959412,0.37237549,1086.55,835)"
       id="radialGradient1">
      <stop
         stop-color="#E1B067"
         stop-opacity="1"
         offset="0"
         id="stop16" />
      <stop
         stop-color="#C79148"
         stop-opacity="1"
         offset="1"
         id="stop18" />
    </radialGradient>
    <radialGradient
       gradientUnits="userSpaceOnUse"
       color-interpolation="sRGB"
       r="8.8792992"
       cx="533.90002"
       cy="609.54999"
       fx="533.90002"
       fy="609.54999"
       gradientTransform="matrix(0.71827698,-0.69735718,-0.50627136,-0.48396301,459,1276.85)"
       id="radialGradient2">
      <stop
         stop-color="#E1B067"
         stop-opacity="1"
         offset="0"
         id="stop21" />
      <stop
         stop-color="#C79148"
         stop-opacity="1"
         offset="1"
         id="stop23" />
    </radialGradient>
    <radialGradient
       gradientUnits="userSpaceOnUse"
       color-interpolation="sRGB"
       r="9.4060001"
       cx="509.74799"
       cy="1341.481"
       fx="509.74799"
       fy="1341.481"
       gradientTransform="matrix(0.717,-0.697,-0.506,-0.483,336.1,993.25)"
       id="radialGradient3">
      <stop
         stop-color="#E1B067"
         stop-opacity="1"
         offset="0"
         id="stop26" />
      <stop
         stop-color="#C79148"
         stop-opacity="1"
         offset="1"
         id="stop28" />
    </radialGradient>
    <radialGradient
       gradientUnits="userSpaceOnUse"
       color-interpolation="sRGB"
       r="13.095"
       cx="1138.017"
       cy="877.47302"
       fx="1138.017"
       fy="877.47302"
       gradientTransform="matrix(-0.437,-0.899,-0.599,0.372,1011,690.3)"
       id="radialGradient4">
      <stop
         stop-color="#E1B067"
         stop-opacity="1"
         offset="0"
         id="stop31" />
      <stop
         stop-color="#C79148"
         stop-opacity="1"
         offset="1"
         id="stop33" />
    </radialGradient>
    <linearGradient
       gradientUnits="userSpaceOnUse"
       color-interpolation="sRGB"
       x1="-10.733"
       y1="7.5770001"
       x2="34.303001"
       y2="7.5770001"
       id="linearGradient1">
      <stop
         stop-color="#000"
         stop-opacity="0.08627450980392157"
         offset="0"
         id="stop36" />
      <stop
         stop-color="#000"
         stop-opacity="0.08627450980392157"
         offset="1"
         id="stop38" />
    </linearGradient>
    <radialGradient
       gradientUnits="userSpaceOnUse"
       color-interpolation="sRGB"
       r="4.4390001"
       cx="-12.772"
       cy="945.67798"
       fx="-12.772"
       fy="945.67798"
       gradientTransform="matrix(0.994,0.109,0.065,-0.587,-23.099,543.5)"
       id="radialGradient5">
      <stop
         stop-color="#654316"
         stop-opacity="1"
         offset="0"
         id="stop41" />
      <stop
         stop-color="#3C290C"
         stop-opacity="1"
         offset="1"
         id="stop43" />
    </radialGradient>
  </defs>
  <g
     id="sideHatBear1"
     overflow="visible"
     style="overflow:visible"
     transform="translate(28.805,24.137446)">
    <g
       id="sideHatBear_3_1164">
      <g
         id="element2">
        <g
           id="drawingObject33">
          <path
             id="path33"
             d="m 26.852,-24.111 1.058,1.111 -0.9,-0.106 -0.899,-0.793 0.265,0.793 c -2.646,-0.052 -5.291,1.112 -6.666,3.492 l -1.111,1.535 0.476,0.106 c -0.317,1.216 -0.37,2.645 -0.053,4.232 1.747,8.2 13.015,4.602 13.015,4.602 3.545,-3.809 3.068,-8.571 -0.212,-11.851 q -0.529,-0.529 -1.323,-1.058 l -1.428,-1.428 0.423,0.952 -0.688,-0.211 -1.217,-0.953 -0.74,-0.423 z"
             inkscape:connector-curvature="0"
             style="fill:#7c521b" />
        </g>
        <g
           id="drawingObject34">
          <path
             id="path34"
             d="m 32.725,-14.853 -0.529,1.059 c -0.476,1.058 -1.111,1.428 -1.111,1.428 l 0.37,-0.741 c 0,0 -0.159,0.212 -1.27,0.582 -1.111,0.371 -3.862,-2.698 -4.444,-3.385 -0.582,-0.688 -0.529,-2.275 -0.529,-2.275 l 0.053,0.899 -0.053,-0.899 0.899,-0.635 -2.486,0.582 c 0,0 -0.265,-1.058 0.37,-1.534 0.582,-0.477 2.751,-1.006 2.751,-1.006 l -0.794,-0.106 c -0.846,-0.105 -3.174,0.635 -3.174,0.635 l 1.27,-0.37 -1.27,0.37 0.265,-0.37 1.428,-1.111 -0.793,0.212 -1.641,0.74 1.164,-1.111 c 1.217,-1.058 3.016,-1.217 2.963,-1.217 -2.592,0.053 -5.132,1.217 -6.454,3.492 l -1.111,1.535 0.476,0.106 c -0.317,1.216 -0.37,2.645 -0.053,4.232 1.747,8.2 13.015,4.602 13.015,4.602 q 1.905,-2.063 2.328,-4.55 l -0.688,1.111 0.159,-0.317 0.106,-1.746 -0.212,1.058 c -0.212,0.635 -1.481,1.693 -1.481,1.693 l 0.423,-0.635 c 0.476,-0.688 0.476,-1.375 0.476,-1.375 l -0.053,0.423 0.053,-0.423 -0.317,0.37 c -0.371,0.317 -0.794,0.847 -0.794,0.847 l 0.265,-0.53 c 0.317,-0.529 0.423,-1.64 0.423,-1.64 z"
             inkscape:connector-curvature="0"
             style="fill:#724715" />
        </g>
        <g
           id="drawingObject35">
          <path
             id="path35"
             d="m 21.932,-21.148 c 0.423,-0.635 0.899,-1.111 1.322,-1.428 -1.481,0.582 -2.751,1.534 -3.544,2.962 l -1.111,1.535 0.476,0.106 c -0.317,1.216 -0.37,2.645 -0.053,4.232 1.747,8.2 13.015,4.602 13.015,4.602 0.847,-0.952 1.481,-1.957 1.905,-2.963 q -0.582,0.635 -1.111,0.9 l 0.423,-0.847 -0.582,0.424 c -0.635,0.423 -1.058,0.37 -1.058,0.37 l 0.317,-0.899 c 0,0 -0.264,0.211 -1.164,0.476 -0.899,0.317 -3.28,-1.746 -4.497,-2.91 -1.27,-1.164 -2.169,-0.687 -3.227,-2.063 -1.005,-1.375 -0.053,-2.539 -0.053,-2.539 l -0.37,0.74 0.37,-0.74 -1.323,1.111 -0.053,-0.953 c 0,-0.899 0.582,-1.269 0.582,-1.269 l -0.264,0.317 0.264,-0.317 -1.058,0.423 0.794,-1.27 z"
             inkscape:connector-curvature="0"
             style="fill:#653f12" />
        </g>
        <g
           id="group9">
          <g
             id="drawingObject36">
            <path
               id="path36"
               d="m 19.075,-17.973 c -0.317,1.216 -0.37,2.645 -0.053,4.232 0.477,2.169 1.588,3.492 3.016,4.338 0.847,0.159 1.852,0.423 2.804,0.899 l 0.159,0.053 c 3.174,0.423 6.454,-0.529 6.983,-0.688 l 0.265,-0.264 q 0.211,-0.318 0.264,-0.847 l 0,-0.529 c 0,0 -0.529,0.37 -1.587,-0.159 -1.005,-0.529 -4.444,-3.227 -5.238,-3.914 -0.793,-0.688 -2.063,0 -2.698,-0.423 -0.635,-0.424 -0.846,-1.693 -0.846,-1.693 l 0.211,0.687 -0.211,-0.687 -0.318,0.687 c -0.317,0.688 -0.053,1.27 -0.053,1.27 0,0 -0.211,-0.053 -0.793,-1.375 -0.477,-0.953 -0.265,-1.64 -0.106,-1.958 l -0.582,1.005 0.158,-1.798 c 0.106,-1.006 0.476,-1.799 1.005,-2.381 -0.687,0.476 -1.269,1.111 -1.745,1.904 l -1.111,1.535 0.476,0.106 z"
               inkscape:connector-curvature="0"
               style="fill:#583810" />
          </g>
        </g>
        <g
           id="drawingObject37">
          <path
             id="path37"
             d="m 30.714,-21.571 -0.318,-0.159 0.424,0.582 c 0,0 -1.111,-0.847 -2.222,-1.217 l -1.111,-0.37 1.904,1.058 c 0,0 -1.851,-0.582 -2.539,-0.582 l -0.741,0 1.799,0.37 -1.799,-0.37 c 0,0 3.227,0.317 4.815,2.169 1.904,2.222 2.169,3.439 2.169,3.386 l -0.265,-1.27 0.688,1.852 0.212,0.952 -0.318,-2.328 -0.158,-0.476 0.476,1.164 c -0.106,-0.582 -0.371,-1.376 -0.847,-2.328 q -0.317,-0.688 -1.111,-1.534 -0.688,-0.688 -1.058,-0.899 z"
             inkscape:connector-curvature="0"
             style="fill:#86591d" />
        </g>
        <g
           id="drawingObject38">
          <path
             id="path38"
             d="m 22.197,-12.366 c 0.264,1.482 6.56,2.645 6.56,2.645 q 2.169,-0.529 2.963,-2.751 0.793,-2.063 -0.212,-3.756 c -1.27,-2.116 -4.762,-3.65 -7.248,-1.799 -2.275,1.746 -2.328,4.18 -2.063,5.661 z"
             inkscape:connector-curvature="0"
             style="fill:#ebc684" />
        </g>
        <g
           id="drawingObject39">
          <path
             id="path39"
             d="m 22.197,-12.26 c 0.264,1.429 6.401,2.592 6.401,2.592 q 2.117,-0.476 2.91,-2.645 0.741,-2.063 -0.265,-3.703 c -1.217,-2.011 -4.603,-3.492 -7.036,-1.693 -2.169,1.64 -2.275,4.021 -2.01,5.449 z"
             inkscape:connector-curvature="0"
             style="fill:url(#radialGradient3)" />
        </g>
      </g>
      <animate
         attributeName="display"
         begin="0s"
         repeatCount="1"
         dur="2.875s"
         keyTimes="0;0.014;1"
         values="inline;none;none"
         id="animate63" />
    </g>
    <g
       id="sideHatBear_2_1164">
      <g
         id="element1">
        <g
           id="drawingObject26">
          <path
             id="path26"
             d="m -27.694,-15.602 c -1.111,3.652 -0.688,7.727 1.853,10.478 l 0,0.053 c 0.635,1.006 1.481,2.117 1.481,2.117 0,0 0.053,-0.317 0.371,-0.635 1.429,0.9 3.228,1.482 5.504,1.641 11.378,0.635 11.272,-16.3 11.272,-16.3 l -0.159,2.646 0.159,-2.646 c -3.493,-6.297 -9.844,-7.356 -15.453,-4.075 q -0.794,0.424 -1.905,1.429 l -2.488,1.429 1.429,-0.212 -0.582,0.794 c -0.635,0.476 -1.323,1.006 -1.693,1.376 l -0.9,0.9 c 0,0 1.059,-0.794 1.958,-1.112 l -0.529,1.218 -1.429,1.005 1.111,-0.106 z"
             inkscape:connector-curvature="0"
             style="fill:#7c521b" />
        </g>
        <g
           id="drawingObject27">
          <path
             id="path27"
             d="m -27.799,-15.284 c -0.953,3.545 -0.477,7.514 1.958,10.16 l 0,0.053 c 0.635,1.006 1.481,2.117 1.481,2.117 0,0 0.053,-0.317 0.371,-0.635 1.429,0.9 3.228,1.482 5.504,1.641 11.378,0.635 11.272,-16.3 11.272,-16.3 l -0.159,2.646 0.159,-2.646 q -1.958,-3.44 -4.975,-4.921 c 0.635,0.635 1.164,1.375 1.164,1.375 l -0.37,-0.317 c -0.37,-0.318 -2.17,-0.794 -2.17,-0.794 l 0.953,0.265 -0.953,-0.265 1.27,0.688 c 0.741,0.476 1.588,2.699 1.588,2.699 l -0.688,-0.847 c -0.635,-0.899 -1.535,-1.164 -1.535,-1.164 l 0.529,0.265 -0.529,-0.265 1.112,2.011 -0.53,-0.635 c -0.582,-0.582 -1.958,-1.164 -1.958,-1.164 l 0.741,0.37 -0.741,-0.37 1.165,1.111 c 1.164,1.111 1.323,2.117 1.323,2.117 l -0.794,-0.794 0.106,0.371 -0.106,-0.371 c 0,0 0.211,0.265 0.264,1.958 0.053,1.641 -5.133,4.287 -6.244,4.869 -1.112,0.529 -3.175,-0.159 -3.175,-0.159 l -0.424,-1.482 -0.211,1.376 c -0.159,1.376 -0.053,2.329 -0.053,2.329 0,0 -1.482,0 -1.853,-1.059 -0.37,-1.005 -0.158,-4.233 -0.158,-4.233 l -0.053,1.746 0.053,-1.746 -0.53,1.111 c -0.476,1.111 -0.476,4.604 -0.476,4.604 l -0.317,-0.476 -0.847,-2.382 -0.053,1.165 c -0.053,1.164 0.265,2.487 0.265,2.487 l -0.953,-2.011 c -0.9,-2.011 -0.318,-4.604 -0.318,-4.604 l -0.158,1.535 0.158,-1.535 -0.105,0.106 z"
             inkscape:connector-curvature="0"
             style="fill:#724715" />
        </g>
        <g
           id="drawingObject28">
          <path
             id="path28"
             d="M -7.213,-18.248 C -8.06,-19.783 -9.118,-21 -10.23,-21.952 q 0.529,1.005 0.688,1.905 l -0.952,-0.953 0.264,1.006 c 0.318,0.952 0.106,1.587 0.106,1.587 l -1.005,-0.793 0.105,1.799 c 0,1.323 -3.598,3.863 -5.662,5.133 -2.011,1.323 -1.746,2.699 -3.969,3.652 -2.223,0.899 -3.334,-0.794 -3.334,-0.794 l 0.847,0.741 -0.847,-0.741 0.952,2.17 -1.27,-0.265 c -1.217,-0.317 -1.376,-1.323 -1.376,-1.323 l 0.212,0.529 -0.212,-0.529 0.053,1.693 -1.323,-1.64 c -0.635,-0.794 -1.058,-1.641 -1.27,-2.276 0.106,2.17 0.9,4.287 2.382,5.927 l 0,0.053 c 0.635,1.006 1.481,2.117 1.481,2.117 0,0 0.053,-0.317 0.371,-0.635 1.429,0.9 3.228,1.482 5.504,1.641 11.378,0.635 11.272,-16.3 11.272,-16.3 z"
             inkscape:connector-curvature="0"
             style="fill:#653f12" />
        </g>
        <g
           id="group7">
          <g
             id="drawingObject29">
            <path
               id="path29"
               d="m -7.213,-18.089 -0.106,-0.318 -0.159,-0.211 c -0.476,-0.635 -1.64,-0.9 -1.64,-0.9 l 0.635,0.212 -0.635,-0.212 -0.053,0.635 0.053,-0.635 c 0,0 0.211,0.9 -0.9,2.17 -1.111,1.217 -5.98,4.921 -7.197,5.768 -1.217,0.847 -0.847,2.805 -1.641,3.546 -0.847,0.741 -2.54,0.582 -2.54,0.582 l 0.741,0.688 c 0.741,0.635 1.64,0.529 1.64,0.529 0,0 -0.158,0.265 -2.116,0.635 -1.482,0.265 -2.276,-0.317 -2.594,-0.635 l 1.059,1.164 -2.223,-0.846 c -1.323,-0.53 -2.17,-1.376 -2.752,-2.276 0.371,1.164 0.953,2.17 1.8,3.069 l 0,0.053 c 0.635,1.006 1.481,2.117 1.481,2.117 0,0 0.053,-0.317 0.371,-0.635 1.429,0.9 3.228,1.482 5.504,1.641 3.016,0.158 5.186,-0.9 6.826,-2.54 0.582,-1.165 1.323,-2.382 2.329,-3.599 l 0.106,-0.159 c 1.852,-4.181 2.011,-9.102 2.011,-9.843 z"
               inkscape:connector-curvature="0"
               style="fill:#583810" />
          </g>
        </g>
        <g
           id="drawingObject30">
          <path
             id="path30"
             d="m -15.681,-22.852 1.376,0 c 0,0 -2.54,-0.37 -3.228,-0.37 l -0.688,0 1.747,-0.159 0.423,0 c 0,0 -1.27,-0.212 -3.757,0.212 q -1.059,0.211 -2.488,1.005 -1.217,0.688 -1.587,1.111 l -0.371,0.424 0.953,-0.371 -0.9,0.741 0.9,-0.741 c 0,0 -1.535,1.165 -2.487,2.593 l -0.9,1.429 2.064,-2.222 -0.741,1.27 0.741,-1.27 c 0,0 -1.429,2.275 -1.747,3.228 l -0.317,1.005 c 0,0 1.799,-4.286 4.816,-5.768 3.651,-1.799 5.345,-1.746 5.345,-1.746 l -1.8,-0.106 0.794,-0.106 -0.794,0.106 c 0,0 1.27,-0.265 2.646,-0.265 z"
             inkscape:connector-curvature="0"
             style="fill:#86591d" />
        </g>
        <g
           id="drawingObject31">
          <path
             id="path31"
             d="m -11.606,-9.728 2.276,-4.127 q 0.212,-3.176 -2.329,-5.134 -2.381,-1.852 -4.974,-1.111 c -3.281,0.953 -6.668,5.239 -5.292,9.314 1.323,3.757 4.445,4.816 6.509,4.974 2.011,0.212 6.086,-8.043 6.086,-8.043"
             inkscape:connector-curvature="0"
             style="fill:#ebc684" />
        </g>
        <g
           id="drawingObject32">
          <path
             id="path32"
             d="m -11.553,-9.622 2.223,-4.022 q 0.212,-3.122 -2.276,-5.027 -2.328,-1.799 -4.815,-1.059 c -3.176,0.953 -6.457,5.134 -5.081,9.103 1.217,3.651 4.287,4.657 6.245,4.815 1.958,0.212 5.927,-7.832 5.927,-7.832"
             inkscape:connector-curvature="0"
             style="fill:url(#radialGradient4)" />
        </g>
      </g>
      <animate
         attributeName="display"
         begin="0s"
         repeatCount="1"
         dur="2.875s"
         keyTimes="0;0.014;1"
         values="inline;none;none"
         id="animate82" />
    </g>
    <g
       id="sideHatBear_1_1164">
      <g
         id="element">
        <g
           id="group1">
          <g
             id="drawingObject">
            <path
               id="path"
               d="m 34.329,-0.519 c 0,0 -5.556,-6.986 -14.182,-7.621 -8.626,-0.635 -17.411,-1.323 -21.804,2.223 -4.445,3.545 -8.784,10.319 -9.049,13.441 q -0.212,2.647 1.376,8.574 1.376,4.868 2.17,6.509 c 0.635,1.429 1.481,1.164 1.481,1.164 0,0 1.641,0.476 2.117,-2.487 0.476,-2.911 1.905,-14.5 7.144,-18.205 5.24,-3.651 8.838,-5.821 21.063,-5.715 7.356,0.053 9.684,2.117 9.684,2.117 z"
               inkscape:connector-curvature="0"
               style="fill:url(#linearGradient1)" />
          </g>
          <g
             id="drawingObject1">
            <path
               id="path1"
               d="m 32.318,-14.702 c -0.476,-0.053 -1.481,-0.635 -1.958,-0.953 -1.482,-1.429 -3.228,-2.752 -5.398,-3.916 -5.98,-3.228 -14.923,-4.498 -23.126,-2.858 0.159,-0.688 1.641,-1.164 1.641,-1.164 l -0.741,0.318 0.741,-0.318 -1.006,0.212 c -1.005,0.159 -2.223,1.164 -2.223,1.164 l 0.106,-0.37 0.212,-1.217 -0.265,0.476 c -0.211,0.476 -0.952,1.27 -0.952,1.27 l -0.318,-0.582 -0.053,0.37 c -0.053,0.159 -0.264,0.476 -0.476,0.688 -3.651,1.164 -7.038,2.911 -9.79,5.451 -6.827,6.192 -8.256,13.177 -7.991,19.21 -0.053,1.747 -0.159,3.916 -0.106,4.763 l 0.159,1.535 0.476,-1.006 0.265,1.8 -0.265,-1.8 c 0,0 0.318,3.07 1.323,5.345 1.058,2.276 1.376,2.435 1.376,2.435 l 0.053,-0.847 c 1.005,1.587 2.117,2.963 3.334,4.233 l 0.317,0.583 0.688,1.005 0.159,-0.37 0.106,0.211 -0.106,-0.211 c 0,0 0.053,0.37 0.688,0.74 l 0.318,0.212 0.793,0.688 c 4.552,4.022 5.134,-0.9 5.663,-7.515 0.37,-5.556 3.651,-10.69 8.256,-14.182 4.551,-3.44 11.06,-5.081 19.316,-4.922 5.609,0.159 8.202,2.011 10.054,3.493 1.376,1.058 1.482,5.398 1.482,5.398 0,0 1.164,-1.852 1.376,-4.34 0.159,-2.169 -0.053,-4.868 -0.952,-7.673 l -0.212,-1.112 c -0.529,-2.328 -1.323,-3.228 -1.323,-3.228 l 0.476,0.741 -0.476,-0.741 1.058,0.635 -2.857,-3.387 0.74,-0.211 -0.582,-0.053 z"
               inkscape:connector-curvature="0"
               style="fill:#7c521b" />
          </g>
          <g
             id="drawingObject2">
            <path
               id="path2"
               d="m 24.327,-12.056 c -1.534,-0.847 -5.98,-2.011 -7.938,-1.059 -2.011,0.9 -2.963,2.011 -2.963,2.011 l 1.058,0 -0.476,0.265 -1.905,1.323 0.846,-0.317 c 0.794,-0.371 1.958,0 1.958,0 l -0.74,0.211 c -0.741,0.265 -2.964,1.8 -2.964,1.8 l 0.847,-0.371 c 0.794,-0.423 2.857,-0.529 2.857,-0.529 l -0.423,0.317 c -0.423,0.371 -1.64,1.165 -1.64,1.165 l 0.74,-0.424 c 0.741,-0.37 2.223,-0.158 2.223,-0.158 l -0.317,1.164 c -0.371,0.794 -2.382,1.376 -6.192,2.381 -3.757,1.006 -6.456,3.281 -6.456,3.281 L 3.477,-1.842 C 4.165,-2.636 6.599,-4.383 6.599,-4.383 L 5.276,-3.43 6.599,-4.383 c 0,0 -0.476,0 -3.281,1.747 -2.752,1.693 -5.663,4.339 -5.663,4.339 l 0.106,-0.635 c 0.053,-0.688 0.9,-2.54 0.9,-2.54 l -0.423,1.005 0.423,-1.005 -0.423,0.529 -1.906,2.805 c 0,0 0.53,-2.223 1.112,-3.281 0.529,-1.059 1.693,-2.064 1.693,-2.064 l -0.635,0.635 0.635,-0.635 -3.122,1.746 0.847,-1.481 c 0.793,-1.482 3.016,-2.699 3.016,-2.699 l -1.217,0.793 1.217,-0.793 -1.64,0.793 c -1.641,0.847 -3.123,1.747 -3.123,1.747 l 2.382,-2.805 -4.816,3.704 0,-0.582 c 0,-0.582 1.217,-2.857 1.217,-2.857 l -0.582,1.217 0.582,-1.217 -1.005,0.635 c -0.953,0.688 -1.641,1.587 -1.641,1.587 l 0.106,-1.058 c 0.053,-1.111 0.899,-2.487 0.899,-2.487 l -0.423,0.846 0.423,-0.846 -0.635,0.476 c -0.688,0.529 -1.587,1.588 -1.587,1.588 l 0.476,-1.323 c 0.529,-1.323 2.911,-3.758 2.911,-3.758 l -1.27,1.376 1.27,-1.376 -1.747,1.059 c -1.693,1.058 -3.016,2.804 -3.016,2.804 l 0,-1.005 c 0,-1.006 0.794,-2.434 0.794,-2.434 l -0.371,0.846 0.371,-0.846 -1.112,1.64 0.371,-1.64 c 0.423,-1.694 2.064,-3.229 2.064,-3.229 l -0.847,1.006 0.847,-1.006 -0.741,0.424 -2.117,1.693 1.641,-2.434 c 1.64,-2.487 4.022,-4.022 4.022,-4.022 l -1.376,1.058 1.376,-1.058 -1.959,0.635 1.112,-1.482 c 0.529,-0.635 1.164,-1.217 1.852,-1.799 -2.17,1.058 -4.128,2.328 -5.874,3.916 -6.827,6.192 -8.256,13.177 -7.991,19.21 -0.053,1.747 -0.159,3.916 -0.106,4.763 l 0.159,1.535 0.476,-1.006 0.265,1.8 -0.265,-1.8 c 0,0 0.318,3.07 1.323,5.345 1.058,2.276 1.376,2.435 1.376,2.435 l 0.053,-0.847 c 1.005,1.587 2.117,2.963 3.334,4.233 l 0.317,0.583 0.688,1.005 0.159,-0.37 0.106,0.211 -0.106,-0.211 c 0,0 0.053,0.37 0.688,0.74 l 0.318,0.212 0.793,0.688 c 4.552,4.022 5.134,-0.9 5.663,-7.515 0.37,-5.556 3.651,-10.69 8.256,-14.182 4.551,-3.44 11.06,-5.081 19.316,-4.922 5.609,0.159 8.202,2.011 10.054,3.493 1.376,1.058 1.482,5.398 1.482,5.398 0,0 1.164,-1.852 1.376,-4.34 l 0.053,-2.064 q -0.741,0.477 -1.323,-0.582 c -0.582,-0.952 -2.911,-2.434 -2.911,-2.434 l 1.218,0.847 -1.218,-0.847 1.747,0.529 c 0,0 -0.424,-0.212 -1.217,-0.9 -0.847,-0.635 -1.641,-0.899 -1.641,-0.899 l 0.529,0.211 -0.529,-0.211 1.27,0.37 -0.899,-1.005 c -0.318,-0.424 -0.9,-1.482 -1.059,-2.54 -0.159,-1.059 -4.551,-2.064 -6.139,-2.858 z"
               inkscape:connector-curvature="0"
               style="fill:#724715" />
          </g>
          <g
             id="drawingObject3">
            <path
               id="path3"
               d="m 17.977,-7.77 -0.476,-0.688 c 0,0 0.899,1.165 1.27,2.117 0.317,1.006 0.053,1.006 -4.446,1.588 -4.498,0.529 -11.589,4.392 -14.923,7.515 -3.387,3.122 -4.446,6.562 -4.446,6.562 0,0 0.424,-1.535 0.583,-2.593 0.158,-1.112 1.164,-2.382 1.164,-2.382 l -0.529,0.794 0.529,-0.794 -1.747,1.694 0,-1.217 c 0,-1.059 0.635,-2.117 0.794,-2.382 L -5.308,3.45 c -0.9,0.74 -1.641,2.116 -1.641,2.116 l 0,-0.582 c 0,-0.582 0.53,-2.064 0.53,-2.064 L -6.684,3.714 -6.419,2.92 -6.684,3.45 C -6.949,3.926 -7.848,5.143 -7.848,5.143 L -8.06,4.349 c -0.159,-0.529 0,-1.058 0.159,-1.323 l -1.165,1.905 0,-1.164 c 0,-1.164 1.218,-3.546 1.218,-3.546 L -8.43,1.544 -7.848,0.221 -8.907,1.068 c -1.058,0.794 -2.381,3.017 -2.381,3.017 l 0,-0.318 0.159,-2.117 -2.117,2.54 -0.318,-1.164 c -0.317,-1.164 0.318,-4.604 0.318,-4.604 l -0.265,1.852 0.265,-1.852 -0.424,0.582 c -0.37,0.582 -1.111,2.964 -1.111,2.964 l -0.159,-2.329 c -0.158,-2.275 0.9,-4.18 0.9,-4.18 l -0.529,1.217 0.529,-1.217 -0.423,0.582 c -0.424,0.582 -1.218,2.699 -1.218,2.699 l 1.112,-6.721 -0.582,0.899 c -0.53,0.9 -1.218,4.763 -1.218,4.763 l 0.106,-4.075 c 0.053,-2.116 0.9,-4.498 1.905,-6.456 -4.18,5.292 -5.133,10.955 -4.921,15.929 -0.053,1.747 -0.159,3.916 -0.106,4.763 l 0.159,1.535 0.476,-1.006 0.265,1.8 -0.265,-1.8 c 0,0 0.318,3.07 1.323,5.345 1.058,2.276 1.376,2.435 1.376,2.435 l 0.053,-0.847 c 1.005,1.587 2.117,2.963 3.334,4.233 l 0.317,0.583 0.688,1.005 0.159,-0.37 0.106,0.211 -0.106,-0.211 c 0,0 0.053,0.37 0.688,0.74 l 0.318,0.212 0.793,0.688 c 4.552,4.022 5.134,-0.9 5.663,-7.515 0.37,-5.556 3.651,-10.69 8.256,-14.182 4.551,-3.44 11.06,-5.081 19.316,-4.922 5.609,0.159 8.202,2.011 10.054,3.493 1.376,1.058 1.482,5.398 1.482,5.398 0,0 0.212,-0.318 0.424,-0.9 q 0.158,-1.323 0,-2.54 C 35.335,-0.096 34.012,-1.895 32.689,-3.324 31.366,-4.7 29.884,-5.282 29.884,-5.282 l 0.9,0.476 -0.9,-0.476 1.005,0.106 c 0,0 -1.058,-1.165 -2.434,-1.641 -1.429,-0.476 -10.954,-1.641 -10.954,-1.641 l 4.921,0.636"
               inkscape:connector-curvature="0"
               style="fill:#653f12" />
          </g>
          <g
             id="drawingObject4">
            <path
               id="path4"
               d="m 23.534,-4.224 c 4.392,0.106 6.932,1.27 8.678,2.434 Q 30.784,-3.642 29.249,-4.224 C 27.45,-4.859 28.243,-6.023 28.243,-6.023 l -0.158,0.688 0.158,-0.688 c 0,0 -1.27,-0.953 -1.799,-1.059 l -5.715,-0.423 1.27,1.217 -1.27,-1.217 c 0,0 3.757,2.329 -1.217,2.752 -5.028,0.37 -12.648,2.54 -17.835,6.721 -5.133,4.181 -6.985,11.801 -6.985,11.801 l 0.212,-2.117 -0.371,0.794 c -0.317,0.847 -0.9,3.546 -0.9,3.546 0,0 -0.476,-0.741 -0.793,-1.958 -0.318,-1.27 -0.159,-3.123 -0.159,-3.123 l -0.053,1.112 0.053,-1.112 -0.424,0.953 c -0.423,1.005 -0.476,2.699 -0.476,2.699 0,0 -0.264,-0.371 -0.582,-1.958 -0.317,-1.535 0.582,-5.239 0.582,-5.239 l -0.423,2.064 0.423,-2.064 -1.27,3.122 c -0.476,1.482 -0.476,3.334 -0.476,3.334 l -0.424,-0.635 -0.74,-1.905 -0.053,0.37 c -0.106,0.318 0.423,3.599 0.423,3.599 l -0.741,-0.9 c -0.741,-0.899 -1.27,-4.286 -1.27,-4.286 l 0.37,1.799 -0.37,-1.799 0.529,4.286 -1.746,-2.646 c -1.694,-2.593 -2.276,-6.456 -2.276,-6.456 l 0.529,2.275 -0.529,-2.275 0.053,4.763 -1.27,-3.387 c -0.952,-2.382 -1.482,-5.874 -1.588,-8.415 -0.211,1.641 -0.264,3.282 -0.211,4.869 -0.053,1.747 -0.159,3.916 -0.106,4.763 l 0.159,1.535 0.476,-1.006 0.265,1.8 -0.265,-1.8 c 0,0 0.318,3.07 1.323,5.345 1.058,2.276 1.376,2.435 1.376,2.435 l 0.053,-0.847 c 1.005,1.587 2.117,2.963 3.334,4.233 l 0.317,0.583 0.688,1.005 0.159,-0.37 0.106,0.211 -0.106,-0.211 c 0,0 0.053,0.37 0.688,0.74 l 0.318,0.212 0.793,0.688 c 4.552,4.022 5.134,-0.9 5.663,-7.515 0.37,-5.556 3.651,-10.69 8.256,-14.182 4.551,-3.44 11.06,-5.081 19.316,-4.922 z"
               inkscape:connector-curvature="0"
               style="fill:#583810" />
          </g>
          <g
             id="drawingObject5">
            <path
               id="path5"
               d="m -5.89,21.231 -0.371,0.952 -0.317,-1.217 -0.053,0.582 0.053,-0.582 c 0,0 0.106,1.059 -0.582,1.641 -0.424,0.37 -1.059,0.476 -1.694,0.476 3.758,2.699 4.34,-2.011 4.816,-8.203 q 0.212,-3.122 1.588,-6.085 c -0.688,1.005 -1.694,2.54 -2.011,4.339 -0.583,2.964 -1.059,7.091 -1.429,8.097 z"
               inkscape:connector-curvature="0"
               style="fill:#653f12" />
          </g>
          <g
             id="drawingObject6">
            <path
               id="path6"
               d="m 20.464,-18.618 -0.952,0 c 0,0 1.375,-0.159 3.492,0.37 l 2.17,0.582 c 0,0 -0.847,-1.058 -3.228,-1.64 l -2.805,-0.635 1.429,0.053 -1.429,-0.053 c 0,0 2.54,0 3.652,0.423 l 1.058,0.371 c 0,0 -3.281,-1.8 -5.61,-2.276 l -3.863,-0.741 c 0,0 -2.699,-0.476 -4.551,-0.423 q -3.704,-0.371 -6.562,0.582 L 0.354,-21 1.413,-21.211 0.354,-21 c 0,0 1.747,-0.423 3.123,-0.423 l 1.428,0 c 0,0 -3.81,0.317 -4.762,1.058 l -1.006,0.741 2.54,-0.529 -2.54,0.529 c 0,0 4.445,-1.058 7.039,-1.058 l 2.646,0 c 0,0 -2.858,0.476 -3.864,0.899 l -0.952,0.424 3.334,-0.159 c 0,0 -2.805,1.058 -3.281,1.482 l -0.477,0.37 1.112,-0.317 -1.112,0.317 c 0,0 1.641,-0.794 3.917,-0.37 2.328,0.37 2.963,0.635 4.339,0.212 1.429,-0.424 2.382,-0.636 3.705,-0.636 l 1.64,0 -2.963,1.059 1.428,-0.265 -1.428,0.265 c 0,0 2.328,-0.582 4.286,-0.476 l 2.805,0.053 -1.799,-0.794"
               inkscape:connector-curvature="0"
               style="fill:#86591d" />
          </g>
          <g
             id="drawingObject7">
            <path
               id="path7"
               d="m 18.453,-19.2 1.217,0 -1.534,-0.794 c -1.376,-0.794 -2.752,-1.323 -3.546,-1.747 -0.794,-0.423 -3.387,-1.27 -6.298,-1.164 l 1.588,0.265 q 1.905,0.423 3.599,1.27 c 2.751,1.376 3.387,1.958 3.387,1.958 l -0.477,0 0.529,0.423 -0.529,-0.423 c 0,0 1.006,0.688 1.217,1.27 l 0.159,0.529 1.323,0.053 c 0,0 0.053,-0.635 -0.264,-1.111 L 18.453,-19.2 z"
               inkscape:connector-curvature="0"
               style="fill:#7c521b" />
          </g>
        </g>
        <g
           id="group2">
          <g
             id="drawingObject8">
            <path
               id="path8"
               d="m 0.301,-10.098 1.006,-2.329 c 0,0 -1.27,0.265 -2.752,0.265 q -0.9,0 -1.429,-0.423 l -0.37,-0.477 c 0,0 -0.477,0 -0.635,0.318 l -0.424,0.741 0.741,-0.159 -0.264,0.159 -1.376,1.587 0.423,-0.37 1.641,-0.741 -0.583,0.529 c -0.582,0.477 -0.899,1.482 -0.899,1.482 l 0.423,-0.423 c 0.371,-0.424 1.694,-0.847 1.694,-0.847 l -0.953,0.741 c -1.005,0.741 -1.905,2.487 -1.905,2.487 l 1.905,-1.217 c 0.794,-0.582 1.958,-0.9 1.958,-0.9 l -0.582,0.53 c -0.265,0.423 -1.217,1.481 -1.217,1.481 l 0.582,-0.529 c 0.529,-0.582 3.016,-1.588 3.016,-1.905 z"
               inkscape:connector-curvature="0"
               style="fill:#724715" />
          </g>
          <g
             id="drawingObject9">
            <path
               id="path9"
               d="m 1.677,-8.14 c 0,0 1.641,0.318 2.541,-0.053 0.899,-0.423 1.27,-1.323 2.54,-1.905 l 1.64,-0.688 -1.482,0.106 c 0,0 0.583,-0.318 0.212,-0.424 l -1.27,-0.317 c -0.37,-0.106 -0.582,0.582 -0.582,0.582 Q 4.482,-8.934 3.424,-8.563 C 2.365,-8.14 1.677,-8.14 1.677,-8.14 z"
               inkscape:connector-curvature="0"
               style="fill:#724715" />
          </g>
          <g
             id="drawingObject10">
            <path
               id="path10"
               d="m 32.371,-9.251 -0.423,0 1.27,0.635 c 0.635,0.423 0.794,0.688 0.794,0.688 l 0,-0.027 -0.159,-0.238 0,-0.423 0.423,0.264 -0.423,-0.264 c 0,0 0.794,0.476 0.953,0.846 l 0.211,0.371 -0.476,-1.482 c 0,0 -0.529,0 -0.688,-0.159 l -0.582,-0.582 q -0.476,0.371 -0.9,0.371 z"
               inkscape:connector-curvature="0"
               style="fill:#724715" />
          </g>
          <g
             id="drawingObject11">
            <path
               id="path11"
               d="m 30.731,-12.268 0.37,0.953 0.106,0.37 0.476,-0.317 c 0.212,-0.212 0.106,-0.424 0.106,-0.424 l 0.053,0.159 -0.053,-0.159 -1.058,-0.582 z"
               inkscape:connector-curvature="0"
               style="fill:#724715" />
          </g>
        </g>
        <g
           id="group3">
          <g
             id="drawingObject12">
            <path
               id="path12"
               d="m 33.006,-12.427 c -0.476,-0.582 -2.064,-2.011 -2.593,-1.905 q -0.635,0.053 -0.476,0.582 0.212,0.53 1.058,1.165 c 1.165,0.899 2.646,2.222 2.964,2.91 0.317,0.688 0.635,0.741 0.635,-0.053 0,-0.793 -1.164,-2.169 -1.588,-2.699 z"
               inkscape:connector-curvature="0"
               style="fill:#dca556" />
          </g>
          <g
             id="drawingObject13">
            <path
               id="path13"
               d="m 34.541,-9.939 c -0.159,0.158 -0.318,0.053 -0.582,-0.477 q -0.212,-0.476 0,-0.793 l -0.212,-0.265 -0.264,-0.053 c -0.212,0 -0.635,-0.053 -1.906,-1.111 -0.952,-0.741 -1.27,-1.27 -1.27,-1.694 -0.741,0.159 -0.423,0.953 0.688,1.747 1.165,0.899 2.646,2.222 2.964,2.91 0.317,0.688 0.635,0.741 0.635,-0.053 l -0.053,-0.211 z"
               inkscape:connector-curvature="0"
               style="fill:#b68845" />
          </g>
          <g
             id="drawingObject14">
            <path
               id="path14"
               d="m 34.171,-11.897 c 0.105,-0.424 -0.688,-1.376 -0.953,-0.953 l -1.429,2.064 c -0.212,0.423 0,1.482 0.741,1.111 0.741,-0.37 1.376,-1.27 1.641,-2.222 z"
               inkscape:connector-curvature="0"
               style="fill:#e6b15b" />
          </g>
          <g
             id="drawingObject15">
            <path
               id="path15"
               d="m 34.118,-11.792 c -0.371,0.583 -0.953,1.218 -1.429,1.376 q -0.688,0.212 -0.9,-0.264 c -0.212,0.423 0.053,1.376 0.741,1.005 0.741,-0.37 1.323,-1.217 1.588,-2.117 z"
               inkscape:connector-curvature="0"
               style="fill:#b68845" />
          </g>
        </g>
        <g
           id="group4">
          <g
             id="drawingObject16">
            <path
               id="path16"
               d="m 3.9,-14.914 q -2.699,-0.476 -4.498,-0.212 c -2.329,0.371 -3.07,1.641 -1.958,1.906 1.058,0.264 3.44,-0.106 6.774,0.582 1.905,0.37 3.704,1.164 4.18,0.741 0.529,-0.424 0.477,-1.112 -0.211,-1.588 q -1.429,-0.9 -4.287,-1.429 z"
               inkscape:connector-curvature="0"
               style="fill:#dca556" />
          </g>
          <g
             id="drawingObject17">
            <path
               id="path17"
               d="m 6.017,-14.385 -0.476,-0.158 c -0.053,0.211 -1.165,1.376 -1.482,1.323 -0.371,-0.106 -1.852,-0.318 -4.604,-0.318 -1.482,0 -2.17,-0.106 -2.488,-0.212 -0.053,0.265 0.106,0.424 0.477,0.53 1.058,0.264 3.44,-0.106 6.774,0.582 1.905,0.37 3.704,1.164 4.18,0.741 q 0.424,-0.318 0.318,-0.741 c -0.794,0.635 -2.117,0.106 -2.593,-0.371 -0.371,-0.37 -0.212,-1.058 -0.106,-1.376 z"
               inkscape:connector-curvature="0"
               style="fill:#b68845" />
          </g>
          <g
             id="drawingObject18">
            <path
               id="path18"
               d="m 4.482,-11.315 c 0.9,-2.329 2.646,-4.869 1.799,-5.451 q -0.952,-0.635 -1.64,-0.318 -0.635,0.318 -0.794,1.165 c -0.265,0.952 -2.17,3.81 -2.593,4.763 -0.529,1.323 -0.37,2.011 0.423,2.381 0.847,0.317 1.905,-0.265 2.805,-2.54 z"
               inkscape:connector-curvature="0"
               style="fill:#e6b15b" />
          </g>
          <g
             id="drawingObject19">
            <path
               id="path19"
               d="m 4.482,-11.315 c 0.847,-2.223 2.487,-4.657 1.852,-5.345 q -0.053,0.794 -1.058,2.593 c -0.794,1.64 -2.064,4.445 -3.017,4.392 -0.635,-0.053 -1.058,-0.317 -1.217,-0.741 -0.211,0.847 0,1.376 0.635,1.641 0.847,0.317 1.905,-0.265 2.805,-2.54 z"
               inkscape:connector-curvature="0"
               style="fill:#b68845" />
          </g>
        </g>
        <g
           id="group5">
          <g
             id="drawingObject20">
            <path
               id="path20"
               d="m 30.202,-6.817 c 0.793,-1.27 2.698,-8.414 -8.15,-8.626 q -3.175,-0.053 -5.345,1.905 -2.17,1.958 -1.217,3.916 c 0.899,1.852 3.387,3.599 8.149,3.599 4.657,0 5.451,1.111 6.563,-0.794 z"
               inkscape:connector-curvature="0"
               style="fill:#cf9b52" />
          </g>
          <g
             id="drawingObject21">
            <path
               id="path21"
               d="m 21.681,-10.045 -0.264,-0.106 -1.112,-0.953 1.165,1.588 -0.688,-0.159 c -0.635,-0.158 -1.165,-1.429 -1.165,-1.429 l 0.371,0.635 -0.371,-0.635 0.212,0.688 c 0.159,0.688 0.847,1.429 0.847,1.429 l -0.688,-0.37 -0.953,-0.953 0.371,0.741 c 0.211,0.424 1.534,1.111 1.534,1.111 0,0 -0.529,0.053 -1.111,0 -0.635,-0.052 -1.111,-0.74 -1.111,-0.74 l 0.317,0.37 -0.317,-0.37 0.159,0.317 0.582,0.794 -0.582,-0.159 c -0.53,-0.212 -1.271,-1.005 -1.271,-1.005 l 0.424,0.423 -0.424,-0.423 0.318,0.582 c 0.212,0.317 0.476,0.582 0.794,0.794 l 0,-0.027 -0.794,-0.397 c -0.9,-0.476 -1.799,-1.799 -1.799,-1.799 l 0.582,0.741 -0.582,-0.741 0.476,0.847 c 0.529,0.846 1.799,1.534 1.799,1.534 l -1.217,-0.476 c -0.9,-0.37 -1.64,-1.535 -1.905,-2.17 0,0.265 0.106,0.53 0.212,0.741 0.899,1.852 3.387,3.599 8.149,3.599 4.657,0 5.451,1.111 6.563,-0.794 0.37,-0.529 0.899,-2.17 0.529,-3.863 q 0,0.582 -0.106,1.111 l 0,-0.952 -0.371,0.793 c 0,0 0.159,-0.423 0.106,-0.793 l -0.211,-1.323 0,0.264 c 0,0.265 -0.265,0.9 -0.265,0.9 l 0,-0.159 -0.159,-1.005 0,0.264 c 0,0.265 -0.476,1.588 -2.011,2.011 -1.534,0.424 -3.334,0 -4.868,-0.423 -1.059,-0.265 -1.641,-1.006 -1.906,-1.429 l 0.053,0.159 c 0.053,0.211 0.688,1.217 0.688,1.217 z"
               inkscape:connector-curvature="0"
               style="fill:#bd8e4a" />
          </g>
          <g
             id="drawingObject22">
            <path
               id="path22"
               d="m 22.634,-7.928 0.159,0.106 c 0.158,0.158 1.481,0.423 1.481,0.423 0,0 -0.211,0.053 -1.111,0.053 l -1.799,0 0.688,0.211 1.482,0.265 -1.535,0.159 c -1.376,0.159 -2.435,0 -3.546,-0.265 1.27,0.582 2.964,0.953 5.186,0.953 4.657,0 5.451,1.111 6.563,-0.794 0.158,-0.212 0.317,-0.582 0.476,-1.111 q -0.582,1.058 -1.535,1.005 l 0.635,-0.264 c 0.424,-0.159 0.582,-0.688 0.582,-0.688 l -0.106,0.158 c -0.158,0.159 -0.529,0.265 -0.529,0.265 l 0.371,-0.582 c 0.264,-0.371 0.158,-0.688 0.158,-0.688 l 0,0.212 0,-0.212 -0.052,0.212 c -0.053,0.211 -0.53,0.317 -0.53,0.317 l 0.265,-0.37 c 0.317,-0.371 0.212,-0.688 0.212,-0.688 l 0,0.211 0,-0.211 -0.053,0.158 c 0,0.159 -0.582,0.318 -0.582,0.318 l 0.105,-0.529 0,-0.953 -0.423,0.212 0.265,-0.9 c -0.265,0.529 -0.794,1.112 -1.747,1.376 -1.534,0.424 -3.334,0 -4.868,-0.423 l -0.265,-0.106 0.053,0.053 0.9,0.741 1.058,0.635 -0.847,0.053 -1.058,-0.053 0.211,0.159 1.218,0.635 -1.482,-0.053 z"
               inkscape:connector-curvature="0"
               style="fill:#a47a3f" />
          </g>
          <g
             id="drawingObject23">
            <path
               id="path23"
               d="m 29.514,-11.368 c -0.053,-0.582 -0.636,-2.17 -3.864,-2.699 q -1.799,-0.265 -3.069,0.264 -1.429,0.53 -1.376,1.694 c 0.106,1.64 1.905,2.593 4.657,2.699 3.069,0.159 3.704,-1.376 3.652,-1.958 z"
               inkscape:connector-curvature="0"
               style="fill:#f8dd94" />
          </g>
          <g
             id="drawingObject24">
            <path
               id="path24"
               d="m 29.196,-11.897 c -0.053,-0.582 -0.318,-2.117 -3.546,-2.593 q -1.799,-0.265 -3.069,0.211 -1.376,0.582 -1.323,1.747 c 0.053,1.587 1.905,2.54 4.657,2.699 3.016,0.105 3.334,-1.482 3.281,-2.064 z"
               inkscape:connector-curvature="0"
               style="fill:url(#radialGradient5)" />
          </g>
          <g
             id="drawingObject25">
            <path
               id="path25"
               d="m 25.28,-13.009 c 1.323,0.424 2.328,-0.423 0.688,-0.741 q -0.953,-0.211 -1.217,0.159 -0.265,0.318 0.529,0.582 z"
               inkscape:connector-curvature="0"
               style="fill:#ffffff" />
          </g>
        </g>
      </g>
      <animate
         attributeName="display"
         begin="0s"
         repeatCount="1"
         dur="2.875s"
         keyTimes="0;0.014;1"
         values="inline;none;none"
         id="animate143" />
    </g>
  </g>
</svg>
