<?xml version="1.0" encoding="UTF-8" standalone="no"?>
<!-- Generator: flash2svg, http://dissentgraphics.com/tools/flash2svg -->

<svg
   xmlns:dc="http://purl.org/dc/elements/1.1/"
   xmlns:cc="http://creativecommons.org/ns#"
   xmlns:rdf="http://www.w3.org/1999/02/22-rdf-syntax-ns#"
   xmlns:svg="http://www.w3.org/2000/svg"
   xmlns="http://www.w3.org/2000/svg"
   xmlns:sodipodi="http://sodipodi.sourceforge.net/DTD/sodipodi-0.dtd"
   xmlns:inkscape="http://www.inkscape.org/namespaces/inkscape"
   id="AvatarAssets"
   image-rendering="auto"
   version="1.1"
   x="0px"
   y="0px"
   width="44.973507"
   height="15.614958"
   viewBox="0 0 44.973507 15.614958"
   inkscape:version="0.48.4 r9939"
   sodipodi:docname="AvatarAssets_sideHatEvil.svg">
  <metadata
     id="metadata3223">
    <rdf:RDF>
      <cc:Work
         rdf:about="">
        <dc:format>image/svg+xml</dc:format>
        <dc:type
           rdf:resource="http://purl.org/dc/dcmitype/StillImage" />
      </cc:Work>
    </rdf:RDF>
  </metadata>
  <sodipodi:namedview
     pagecolor="#ffffff"
     bordercolor="#666666"
     borderopacity="1"
     objecttolerance="10"
     gridtolerance="10"
     guidetolerance="10"
     inkscape:pageopacity="0"
     inkscape:pageshadow="2"
     inkscape:window-width="640"
     inkscape:window-height="480"
     id="namedview3221"
     showgrid="false"
     fit-margin-top="0"
     fit-margin-left="0"
     fit-margin-right="0"
     fit-margin-bottom="0"
     inkscape:zoom="1.9032258"
     inkscape:cx="46.083421"
     inkscape:cy="-71.491857"
     inkscape:window-x="0"
     inkscape:window-y="0"
     inkscape:window-maximized="0"
     inkscape:current-layer="AvatarAssets" />
  <defs
     id="defs3124" />
  <g
     id="sideHatEvil1"
     overflow="visible"
     style="overflow:visible"
     transform="translate(14.083421,25.106815)">
    <g
       id="sideHatEvil_3_1">
      <g
         id="element5">
        <g
           id="group9">
          <g
             id="drawingObject34">
            <path
               id="path34"
               d="m -2.899,-15.799 -0.5,1.3 q -0.1,0.65 0.45,2.9 l 0.85,-0.05 0.1,0.7 -0.1,-0.7 c 0,0 0,1.35 0.8,1.6 0.8,0.3 1.9,-0.25 1.9,-0.25 l 0.65,-1.25 -1.75,-0.75 c 0,0 -0.35,0.3 -0.85,-0.1 -0.45,-0.4 -0.75,-0.6 -1,-1.15 -0.3,-0.55 -0.55,-2.25 -0.55,-2.25 z"
               inkscape:connector-curvature="0"
               style="fill:#ffffff;fill-opacity:0.29800002" />
          </g>
          <g
             id="drawingObject35">
            <path
               id="path35"
               d="m 2.651,-11.149 -0.5,0.35 q -0.3,0.5 -0.2,0.95 0.15,0.5 0.55,0.3 c 0.55,-0.3 1.1,-0.7 0.85,-1.4 -0.25,-0.7 -1.2,0.15 -1.2,0.15"
               inkscape:connector-curvature="0"
               style="fill:#ffffff;fill-opacity:0.29800002" />
          </g>
        </g>
        <g
           id="group10">
          <g
             id="drawingObject36">
            <path
               id="path36"
               d="m 8.851,-14.399 c -0.15,0.45 -0.5,0.55 -0.6,1.15 -0.15,0.65 -0.7,1.1 -1.35,1.65 q -1.65,1.5 -2.6,1.65 c 0,0 1.5,0.2 2.35,-0.15 l 0.4,-0.15 -0.4,0.15 c 0.9,-0.35 0,0 0.35,-0.25 0.4,-0.25 0.75,-0.65 1.05,-0.95 0.25,-0.35 0.75,-0.85 1.05,-1.35 0.45,-0.75 0.5,-1.05 1.1,-1.7 0.55,-0.6 0.35,-1 0.45,-1.45 0.15,-0.45 -0.1,-0.5 -0.25,-1 -0.1,-0.45 -0.3,-0.25 -0.5,-0.45 l -0.2,-0.35 0.2,0.35 c -0.25,-0.2 -0.05,-0.55 -0.8,-0.75 -0.8,-0.15 0.25,0.15 -0.55,-0.05 l 0.55,0.25 c 0.45,0.15 0,0.95 0.2,1.15 0.25,0.25 0.15,0.5 0.15,0.5 l -0.25,0.9 -0.25,0.4 -0.1,0.45 z"
               inkscape:connector-curvature="0"
               style="fill:#000000;fill-opacity:0.08600003" />
          </g>
        </g>
        <g
           id="group11">
          <g
             id="drawingObject37">
            <path
               id="path37"
               d="m 8.101,-17.849 -0.3,-0.25 -0.05,1.6 c 0.05,0.25 -0.8,1.7 -0.8,1.7 l -0.9,1.65 c 0.6,0.1 0.5,-0.45 1.05,-0.8 q 0.85,-0.55 1,-1.1 c 0,-0.2 0,0.45 0.2,-0.4 0.2,-0.8 0.15,-0.1 0.2,-0.75 l -0.4,-1.65 z"
               inkscape:connector-curvature="0"
               style="fill:#ffffff;fill-opacity:0.29800002" />
          </g>
        </g>
      </g>
    </g>
    <g
       id="sideHatEvil_3_0">
      <g
         id="element4">
        <g
           id="group5">
          <g
             id="drawingObject30">
            <path
               id="path30"
               d="m -2.899,-15.799 -0.5,1.3 q -0.1,0.65 0.45,2.9 l 0.85,-0.05 0.1,0.7 -0.1,-0.7 c 0,0 0,1.35 0.8,1.6 0.8,0.3 1.9,-0.25 1.9,-0.25 l 0.65,-1.25 -1.75,-0.75 c 0,0 -0.35,0.3 -0.85,-0.1 -0.45,-0.4 -0.75,-0.6 -1,-1.15 -0.3,-0.55 -0.55,-2.25 -0.55,-2.25 z"
               inkscape:connector-curvature="0"
               style="fill:#ffffff;fill-opacity:0.29800002" />
          </g>
          <g
             id="drawingObject31">
            <path
               id="path31"
               d="m 2.651,-11.149 -0.5,0.35 q -0.3,0.5 -0.2,0.95 0.15,0.5 0.55,0.3 c 0.55,-0.3 1.1,-0.7 0.85,-1.4 -0.25,-0.7 -1.2,0.15 -1.2,0.15"
               inkscape:connector-curvature="0"
               style="fill:#ffffff;fill-opacity:0.29800002" />
          </g>
        </g>
        <g
           id="group6">
          <g
             id="drawingObject32">
            <path
               id="path32"
               d="m 8.851,-14.399 c -0.15,0.45 -0.5,0.55 -0.6,1.15 -0.15,0.65 -0.7,1.1 -1.35,1.65 q -1.65,1.5 -2.6,1.65 c 0,0 1.5,0.2 2.35,-0.15 l 0.4,-0.15 -0.4,0.15 c 0.9,-0.35 0,0 0.35,-0.25 0.4,-0.25 0.75,-0.65 1.05,-0.95 0.25,-0.35 0.75,-0.85 1.05,-1.35 0.45,-0.75 0.5,-1.05 1.1,-1.7 0.55,-0.6 0.35,-1 0.45,-1.45 0.15,-0.45 -0.1,-0.5 -0.25,-1 -0.1,-0.45 -0.3,-0.25 -0.5,-0.45 l -0.2,-0.35 0.2,0.35 c -0.25,-0.2 -0.05,-0.55 -0.8,-0.75 -0.8,-0.15 0.25,0.15 -0.55,-0.05 l 0.55,0.25 c 0.45,0.15 0,0.95 0.2,1.15 0.25,0.25 0.15,0.5 0.15,0.5 l -0.25,0.9 -0.25,0.4 -0.1,0.45 z"
               inkscape:connector-curvature="0"
               style="fill:#000000;fill-opacity:0.08600003" />
          </g>
        </g>
        <g
           id="group7">
          <g
             id="drawingObject33">
            <path
               id="path33"
               d="m 8.101,-17.849 -0.3,-0.25 -0.05,1.6 c 0.05,0.25 -0.8,1.7 -0.8,1.7 l -0.9,1.65 c 0.6,0.1 0.5,-0.45 1.05,-0.8 q 0.85,-0.55 1,-1.1 c 0,-0.2 0,0.45 0.2,-0.4 0.2,-0.8 0.15,-0.1 0.2,-0.75 l -0.4,-1.65 z"
               inkscape:connector-curvature="0"
               style="fill:#ffffff;fill-opacity:0.29800002" />
          </g>
        </g>
      </g>
    </g>
    <g
       id="sideHatEvil_2_1">
      <g
         id="element3">
        <g
           id="drawingObject23">
          <path
             id="path23"
             d="m 23.339,-24.328 c -1.003,-0.393 -2.004,-0.433 -2.849,-0.149 -0.902,0.326 -1.373,1.167 -1.373,1.167 l 0.86,-0.031 -0.86,0.031 c 0,0 1.488,-0.194 2.413,0.389 q 1.857,1.117 2.84,2.715 c 0.665,1 -0.134,2.75 -0.134,2.75 l -0.443,0.643 c 1.686,0.539 3,1.58 4.075,2.889 0.459,0.316 0.855,0.724 1.145,1.168 l 0.509,0.675 c 0.738,-0.953 1.355,-2.478 1.367,-3.634 0.039,-1.354 -0.981,-3.411 -1.455,-3.981 -0.474,-0.57 -1.669,-2.45 -2.807,-3.314 -1.144,-0.816 -2.336,-0.933 -3.288,-1.318 z"
             inkscape:connector-curvature="0"
             style="fill:#ecd5bc" />
        </g>
        <g
           id="drawingObject24">
          <path
             id="path24"
             d="m 28.398,-19.489 c -0.622,-0.943 -0.997,-1.147 -1.343,-1.548 l -1.907,-1.476 1.364,1.4 c 0.791,0.816 1.463,1.766 1.762,2.865 0.355,1.057 -0.051,2.511 -0.051,2.511 l -0.221,-1.29 c -0.157,-0.677 -0.123,-1.276 -0.54,-1.889 l -0.912,-1.034 0.673,1.303 c 0.375,0.909 -0.04,1.354 -0.003,2.165 0.045,0.761 0.377,1.261 0.082,1.924 l 0.474,0.57 0.05,0.007 c 0.501,0.373 0.897,0.781 1.187,1.225 l 0.509,0.675 c 0.738,-0.953 1.355,-2.478 1.367,-3.634 0.039,-1.354 -0.981,-3.411 -1.455,-3.981 -0.474,-0.57 -1.669,-2.45 -2.807,-3.314 0.488,0.471 0.368,0.605 0.368,0.605 l -0.599,-0.034 0.262,0.289 0.989,0.844 1.004,1.45 c 0.319,0.599 0.554,1.79 0.554,1.79 0,0 -0.184,-0.479 -0.807,-1.423 z"
             inkscape:connector-curvature="0"
             style="fill:#d5c1aa" />
        </g>
        <g
           id="drawingObject25">
          <path
             id="path25"
             d="m 30.791,-15.376 c -0.325,-0.197 0,0 -0.078,-0.162 l -0.447,-1.121 0.058,0.663 -0.195,1.03 0.062,-0.444 c 0.007,-0.402 -0.616,-1.346 -0.658,-1.049 -0.091,0.289 0.073,0.916 0.039,1.515 -0.034,0.6 -0.484,1.292 -0.603,1.426 -0.07,0.141 -0.348,-1.106 -0.475,-1.275 -0.135,-0.12 0.163,0.627 -0.097,1.044 l -0.077,0.19 1.202,1.478 c 0.668,-0.812 1.208,-2.146 1.361,-3.232 l -0.092,-0.063 z"
             inkscape:connector-curvature="0"
             style="fill:#c1af9a" />
        </g>
        <g
           id="drawingObject26">
          <path
             id="path26"
             d="m 25.18,-17.726 c 0.07,-0.141 -0.49,-1.529 -0.49,-1.529 l -0.196,0.678 c -0.077,0.19 -0.033,0.952 -0.23,1.276 l -0.231,0.572 0.621,0.238 0.07,-0.141 c 0.542,-0.629 0.119,-0.487 0.456,-1.094 z"
             inkscape:connector-curvature="0"
             style="fill:#fbe7d1" />
        </g>
        <g
           id="drawingObject27">
          <path
             id="path27"
             d="m 26.435,-17.7 c -0.086,-0.466 -0.242,-0.79 -0.404,-1.064 l -0.333,-0.5 0.019,2.017 c 0.135,0.472 -0.14,0.634 -0.407,1.1 l 0.466,0.267 0.12,-0.134 -0.077,0.191 0.409,0.309 c 0.281,-0.565 0.344,-1.009 0.343,-1.362 L 26.435,-17.7 z"
             inkscape:connector-curvature="0"
             style="fill:#fbe7d1" />
        </g>
        <g
           id="drawingObject28">
          <path
             id="path28"
             d="m 26.55,-19.95 -0.6,-0.034 q 0.17,0.225 0.56,1.035 l 0.601,0.739 c 0,0 -0.385,-1.564 -0.561,-1.74 z"
             inkscape:connector-curvature="0"
             style="fill:#fbe7d1" />
        </g>
        <g
           id="drawingObject29">
          <path
             id="path29"
             d="m 21.452,-23.083 c 0.388,0.105 0.953,0.738 1.455,1.111 0.508,0.323 1.783,2.717 1.783,2.717 0,0 0.267,-0.466 -0.003,-1.057 -0.262,-0.641 -1.364,-1.753 -1.364,-1.753 l 0.565,0.633 -0.565,-0.633 c 0,0 1.377,0.949 0.917,0.28 l -1.202,-1.478 c -0.445,-0.415 -0.643,-0.443 -0.869,-0.626 q -0.042,-0.056 -0.839,0.235 -0.789,0.242 -1.086,-0.153 c -0.085,-0.112 -1.127,0.497 -1.127,0.497 l 1.312,-0.018 1.023,0.245 z"
             inkscape:connector-curvature="0"
             style="fill:#fbe7d1" />
        </g>
      </g>
    </g>
    <g
       id="sideHatEvil_2_0">
      <g
         id="element2">
        <g
           id="drawingObject16">
          <path
             id="path16"
             d="m 23.339,-24.328 c -1.003,-0.393 -2.004,-0.433 -2.849,-0.149 -0.902,0.326 -1.373,1.167 -1.373,1.167 l 0.86,-0.031 -0.86,0.031 c 0,0 1.488,-0.194 2.413,0.389 q 1.857,1.117 2.84,2.715 c 0.665,1 -0.134,2.75 -0.134,2.75 l -0.443,0.643 c 1.686,0.539 3,1.58 4.075,2.889 0.459,0.316 0.855,0.724 1.145,1.168 l 0.509,0.675 c 0.738,-0.953 1.355,-2.478 1.367,-3.634 0.039,-1.354 -0.981,-3.411 -1.455,-3.981 -0.474,-0.57 -1.669,-2.45 -2.807,-3.314 -1.144,-0.816 -2.336,-0.933 -3.288,-1.318 z"
             inkscape:connector-curvature="0"
             style="fill:#ecd5bc" />
        </g>
        <g
           id="drawingObject17">
          <path
             id="path17"
             d="m 28.398,-19.489 c -0.622,-0.943 -0.997,-1.147 -1.343,-1.548 l -1.907,-1.476 1.364,1.4 c 0.791,0.816 1.463,1.766 1.762,2.865 0.355,1.057 -0.051,2.511 -0.051,2.511 l -0.221,-1.29 c -0.157,-0.677 -0.123,-1.276 -0.54,-1.889 l -0.912,-1.034 0.673,1.303 c 0.375,0.909 -0.04,1.354 -0.003,2.165 0.045,0.761 0.377,1.261 0.082,1.924 l 0.474,0.57 0.05,0.007 c 0.501,0.373 0.897,0.781 1.187,1.225 l 0.509,0.675 c 0.738,-0.953 1.355,-2.478 1.367,-3.634 0.039,-1.354 -0.981,-3.411 -1.455,-3.981 -0.474,-0.57 -1.669,-2.45 -2.807,-3.314 0.488,0.471 0.368,0.605 0.368,0.605 l -0.599,-0.034 0.262,0.289 0.989,0.844 1.004,1.45 c 0.319,0.599 0.554,1.79 0.554,1.79 0,0 -0.184,-0.479 -0.807,-1.423 z"
             inkscape:connector-curvature="0"
             style="fill:#d5c1aa" />
        </g>
        <g
           id="drawingObject18">
          <path
             id="path18"
             d="m 30.791,-15.376 c -0.325,-0.197 0,0 -0.078,-0.162 l -0.447,-1.121 0.058,0.663 -0.195,1.03 0.062,-0.444 c 0.007,-0.402 -0.616,-1.346 -0.658,-1.049 -0.091,0.289 0.073,0.916 0.039,1.515 -0.034,0.6 -0.484,1.292 -0.603,1.426 -0.07,0.141 -0.348,-1.106 -0.475,-1.275 -0.135,-0.12 0.163,0.627 -0.097,1.044 l -0.077,0.19 1.202,1.478 c 0.668,-0.812 1.208,-2.146 1.361,-3.232 l -0.092,-0.063 z"
             inkscape:connector-curvature="0"
             style="fill:#c1af9a" />
        </g>
        <g
           id="drawingObject19">
          <path
             id="path19"
             d="m 25.18,-17.726 c 0.07,-0.141 -0.49,-1.529 -0.49,-1.529 l -0.196,0.678 c -0.077,0.19 -0.033,0.952 -0.23,1.276 l -0.231,0.572 0.621,0.238 0.07,-0.141 c 0.542,-0.629 0.119,-0.487 0.456,-1.094 z"
             inkscape:connector-curvature="0"
             style="fill:#fbe7d1" />
        </g>
        <g
           id="drawingObject20">
          <path
             id="path20"
             d="m 26.435,-17.7 c -0.086,-0.466 -0.242,-0.79 -0.404,-1.064 l -0.333,-0.5 0.019,2.017 c 0.135,0.472 -0.14,0.634 -0.407,1.1 l 0.466,0.267 0.12,-0.134 -0.077,0.191 0.409,0.309 c 0.281,-0.565 0.344,-1.009 0.343,-1.362 L 26.435,-17.7 z"
             inkscape:connector-curvature="0"
             style="fill:#fbe7d1" />
        </g>
        <g
           id="drawingObject21">
          <path
             id="path21"
             d="m 26.55,-19.95 -0.6,-0.034 q 0.17,0.225 0.56,1.035 l 0.601,0.739 c 0,0 -0.385,-1.564 -0.561,-1.74 z"
             inkscape:connector-curvature="0"
             style="fill:#fbe7d1" />
        </g>
        <g
           id="drawingObject22">
          <path
             id="path22"
             d="m 21.452,-23.083 c 0.388,0.105 0.953,0.738 1.455,1.111 0.508,0.323 1.783,2.717 1.783,2.717 0,0 0.267,-0.466 -0.003,-1.057 -0.262,-0.641 -1.364,-1.753 -1.364,-1.753 l 0.565,0.633 -0.565,-0.633 c 0,0 1.377,0.949 0.917,0.28 l -1.202,-1.478 c -0.445,-0.415 -0.643,-0.443 -0.869,-0.626 q -0.042,-0.056 -0.839,0.235 -0.789,0.242 -1.086,-0.153 c -0.085,-0.112 -1.127,0.497 -1.127,0.497 l 1.312,-0.018 1.023,0.245 z"
             inkscape:connector-curvature="0"
             style="fill:#fbe7d1" />
        </g>
      </g>
    </g>
    <g
       id="sideHatEvil_1_1">
      <g
         id="element1">
        <g
           id="drawingObject8">
          <path
             id="path8"
             d="m -7.81,-24.548 c -1.659,0.628 -3.777,2.567 -4.85,3.335 -1.121,0.778 -1.094,1.18 -1.365,2.404 -0.311,1.282 0.721,2.66 0.721,2.66 0,0 0.813,-1.838 2.12,-2.449 1.297,-0.659 3.338,-1.158 4.837,-1.042 1.539,0.058 2.819,2.456 2.819,2.456 l 0.685,1.954 q 0.436,0.933 1.314,1.781 1.053,0.966 2.082,1.021 c 1.538,0.057 3.815,-0.538 4.3,-1.447 0.534,-0.918 1.503,-2.481 1.16,-4.247 -0.294,-1.775 -1.731,-4.194 -3.127,-5.348 -1.395,-1.155 -4.293,-1.66 -5.204,-1.636 -0.952,0.083 -3.783,-0.079 -5.492,0.558 z"
             inkscape:connector-curvature="0"
             style="fill:#ecd5bc" />
        </g>
        <g
           id="drawingObject9">
          <path
             id="path9"
             d="m -7.81,-24.548 c 0.776,-0.201 0.882,0.083 0.882,0.083 l -0.444,0.596 0.509,0.003 1.541,-0.453 2.244,0.022 c 0.882,0.084 2.358,0.866 2.358,0.866 0,0 -0.705,-0.22 -2.145,-0.296 -1.391,-0.086 -1.893,0.215 -2.53,0.339 l -2.877,0.915 2.374,-0.359 c 1.422,-0.277 2.912,-0.21 4.281,0.288 1.369,0.497 2.654,2.131 2.654,2.131 l -1.534,-0.822 c -0.782,-0.357 -1.397,-0.899 -2.318,-0.924 -0.921,-0.024 -1.736,0.236 -1.736,0.236 l 0.54,-0.105 -0.54,0.105 0.461,0.012 -0.461,-0.012 c 0,0 0.648,-0.075 1.832,0.255 1.193,0.379 1.404,1.203 2.283,1.796 0.879,0.593 1.653,0.646 2.196,1.609 l 1.059,1.78 -0.614,-0.542 0.025,0.656 c 0.026,0.657 0.188,1.491 0.188,1.491 l -1.011,-1.534 c -0.496,-0.718 -0.17,-1.138 -0.569,-1.621 -0.35,-0.491 -1.298,-0.918 -1.298,-0.918 l 0.508,0.258 -0.508,-0.258 0.73,0.876 c 0.458,0.522 0.669,1.347 0.81,2.337 0.142,0.991 0.874,1.612 0.874,1.612 l -1.565,-0.714 0.066,0.598 c 0.007,0.559 0.86,0.495 1.042,1.172 0.232,0.668 -0.218,0.45 -0.944,0.642 1.538,0.057 3.815,-0.538 4.3,-1.447 0.534,-0.918 1.503,-2.481 1.16,-4.247 -0.294,-1.775 -1.731,-4.194 -3.127,-5.348 -1.395,-1.155 -4.293,-1.66 -5.204,-1.636 -0.952,0.083 -3.783,-0.079 -5.492,0.558 z"
             inkscape:connector-curvature="0"
             style="fill:#d5c1aa" />
        </g>
        <g
           id="drawingObject10">
          <path
             id="path10"
             d="m 3.316,-23.096 -0.089,0.068 c -0.52,0.203 0,0 -0.274,-0.099 l -1.448,-0.38 0.274,0.099 -0.274,-0.099 c 0,0 0.43,0.12 0.703,0.474 l 0.974,1.083 -0.429,-0.374 c -0.439,-0.424 -1.879,-0.501 -1.607,-0.146 0.263,0.305 1.045,0.662 1.66,1.204 0.614,0.543 1.03,1.633 1.127,1.868 0.096,0.236 -1.419,-0.487 -1.674,-0.489 -0.254,-0.001 0.763,0.259 1.044,0.917 0.281,0.658 0.794,1.729 0.82,2.386 0.026,0.657 -0.446,0.85 -0.447,1.105 l 0.181,0.932 -0.608,0.017 c -0.254,-0.002 -0.303,0.008 -0.218,0.449 l 0.242,0.717 -0.991,0.142 -10e-4,0.254 0.272,0.355 c 1.021,-0.25 2.003,-0.695 2.3,-1.262 0.534,-0.918 1.503,-2.481 1.16,-4.247 -0.256,-1.579 -1.43,-3.693 -2.697,-4.974 z"
             inkscape:connector-curvature="0"
             style="fill:#c1af9a" />
        </g>
        <g
           id="drawingObject11">
          <path
             id="path11"
             d="m 4.046,-22.219 c -0.275,0.155 -0.151,0.793 -0.151,0.793 l 0.863,1.563 c 0.476,0.874 0.447,0.727 0.548,2.031 0.052,1.314 -0.288,0.616 -0.288,0.616 l 0.071,1.412 c -0.025,0.921 -0.14,0.587 -0.38,1.448 L 4.252,-13.3 c 0.275,-0.155 0.492,-0.35 0.601,-0.575 0.534,-0.918 1.503,-2.481 1.16,-4.247 -0.199,-1.285 -1.023,-2.906 -1.967,-4.097 z"
             inkscape:connector-curvature="0"
             style="fill:#a29481" />
        </g>
        <g
           id="drawingObject12">
          <path
             id="path12"
             d="m -5.592,-19.685 c 0.41,0.277 1.35,0.4 1.35,0.4 l -0.564,-0.807 0.608,-0.016 c 0.598,-0.066 2.113,0.658 2.113,0.658 0,0 -0.594,-0.699 -1.493,-1.135 -0.85,-0.446 -1.918,-0.442 -2.673,-0.397 l -2.923,0.416 1.316,-0.562 c 0.992,-0.396 3.874,-0.498 3.874,-0.498 l -1.078,-0.045 c -1.068,0.004 -2.106,-0.1 -3.499,0.069 -1.392,0.169 -1.777,0.549 -1.777,0.549 l 0.364,-0.223 -0.364,0.223 1.025,-1.014 c 0,0 -0.598,0.066 -1.07,0.259 -0.52,0.203 -1.279,1.012 -2.059,1.978 -0.581,0.673 -0.725,1.77 -0.826,2.299 l 0.009,0.304 0.104,0.539 c 0,0 0.533,-0.663 0.909,-1.347 0.377,-0.684 1.822,-1.627 2.979,-1.699 1.157,-0.072 3.255,-0.276 3.675,0.049 z"
             inkscape:connector-curvature="0"
             style="fill:#fbe7d1" />
        </g>
        <g
           id="drawingObject13">
          <path
             id="path13"
             d="m -2.551,-18.443 -0.274,-0.099 0.776,1.631 c 0,0 -1.129,-1.614 -1.481,-1.596 -0.304,0.008 0.162,0.834 0.328,0.903 q 0.332,0.139 0.456,0.777 0.077,0.392 0.16,1.344 c 0.19,0.981 1.46,1.752 1.46,1.752 0,0 -0.545,-0.709 -0.582,-1.16 l -0.027,-0.402 0.301,0.502 -0.301,-0.502 c 0,0 0.476,0.875 0.963,1.29 l 0.878,0.847 c 0,0 -0.688,-1.444 -0.899,-2.269 -0.211,-0.824 -0.311,-0.55 -0.424,-1.394 -0.162,-0.834 -0.426,-0.884 -0.757,-1.278 -0.381,-0.384 -0.851,-0.445 -0.851,-0.445"
             inkscape:connector-curvature="0"
             style="fill:#fbe7d1" />
        </g>
        <g
           id="drawingObject14">
          <path
             id="path14"
             d="m -1.444,-20.083 c 0,0 0.041,1.519 0.373,1.658 q 0.508,0.257 0.779,0.867 c 0.33,0.648 0.397,0.992 0.513,1.325 l 0.258,1.07 -0.136,-2.01 c -0.075,-0.647 -0.541,-1.473 -1.135,-2.172 l -0.652,-0.738 z"
             inkscape:connector-curvature="0"
             style="fill:#fbe7d1" />
        </g>
        <g
           id="drawingObject15">
          <path
             id="path15"
             d="m 0.53,-19.093 c -0.234,-0.158 0.809,0.759 0.808,1.014 q 0.027,0.402 0.867,1.054 c 0,0 -0.231,-0.923 -0.777,-1.377 -0.546,-0.454 -0.614,-0.542 -0.898,-0.691 z"
             inkscape:connector-curvature="0"
             style="fill:#fbe7d1" />
        </g>
      </g>
    </g>
    <g
       id="sideHatEvil_1_0">
      <g
         id="element">
        <g
           id="drawingObject">
          <path
             id="path"
             d="m -7.81,-24.548 c -1.659,0.628 -3.777,2.567 -4.85,3.335 -1.121,0.778 -1.094,1.18 -1.365,2.404 -0.311,1.282 0.721,2.66 0.721,2.66 0,0 0.813,-1.838 2.12,-2.449 1.297,-0.659 3.338,-1.158 4.837,-1.042 1.539,0.058 2.819,2.456 2.819,2.456 l 0.685,1.954 q 0.436,0.933 1.314,1.781 1.053,0.966 2.082,1.021 c 1.538,0.057 3.815,-0.538 4.3,-1.447 0.534,-0.918 1.503,-2.481 1.16,-4.247 -0.294,-1.775 -1.731,-4.194 -3.127,-5.348 -1.395,-1.155 -4.293,-1.66 -5.204,-1.636 -0.952,0.083 -3.783,-0.079 -5.492,0.558 z"
             inkscape:connector-curvature="0"
             style="fill:#ecd5bc" />
        </g>
        <g
           id="drawingObject1">
          <path
             id="path1"
             d="m -7.81,-24.548 c 0.776,-0.201 0.882,0.083 0.882,0.083 l -0.444,0.596 0.509,0.003 1.541,-0.453 2.244,0.022 c 0.882,0.084 2.358,0.866 2.358,0.866 0,0 -0.705,-0.22 -2.145,-0.296 -1.391,-0.086 -1.893,0.215 -2.53,0.339 l -2.877,0.915 2.374,-0.359 c 1.422,-0.277 2.912,-0.21 4.281,0.288 1.369,0.497 2.654,2.131 2.654,2.131 l -1.534,-0.822 c -0.782,-0.357 -1.397,-0.899 -2.318,-0.924 -0.921,-0.024 -1.736,0.236 -1.736,0.236 l 0.54,-0.105 -0.54,0.105 0.461,0.012 -0.461,-0.012 c 0,0 0.648,-0.075 1.832,0.255 1.193,0.379 1.404,1.203 2.283,1.796 0.879,0.593 1.653,0.646 2.196,1.609 l 1.059,1.78 -0.614,-0.542 0.025,0.656 c 0.026,0.657 0.188,1.491 0.188,1.491 l -1.011,-1.534 c -0.496,-0.718 -0.17,-1.138 -0.569,-1.621 -0.35,-0.491 -1.298,-0.918 -1.298,-0.918 l 0.508,0.258 -0.508,-0.258 0.73,0.876 c 0.458,0.522 0.669,1.347 0.81,2.337 0.142,0.991 0.874,1.612 0.874,1.612 l -1.565,-0.714 0.066,0.598 c 0.007,0.559 0.86,0.495 1.042,1.172 0.232,0.668 -0.218,0.45 -0.944,0.642 1.538,0.057 3.815,-0.538 4.3,-1.447 0.534,-0.918 1.503,-2.481 1.16,-4.247 -0.294,-1.775 -1.731,-4.194 -3.127,-5.348 -1.395,-1.155 -4.293,-1.66 -5.204,-1.636 -0.952,0.083 -3.783,-0.079 -5.492,0.558 z"
             inkscape:connector-curvature="0"
             style="fill:#d5c1aa" />
        </g>
        <g
           id="drawingObject2">
          <path
             id="path2"
             d="m 3.316,-23.096 -0.089,0.068 c -0.52,0.203 0,0 -0.274,-0.099 l -1.448,-0.38 0.274,0.099 -0.274,-0.099 c 0,0 0.43,0.12 0.703,0.474 l 0.974,1.083 -0.429,-0.374 c -0.439,-0.424 -1.879,-0.501 -1.607,-0.146 0.263,0.305 1.045,0.662 1.66,1.204 0.614,0.543 1.03,1.633 1.127,1.868 0.096,0.236 -1.419,-0.487 -1.674,-0.489 -0.254,-0.001 0.763,0.259 1.044,0.917 0.281,0.658 0.794,1.729 0.82,2.386 0.026,0.657 -0.446,0.85 -0.447,1.105 l 0.181,0.932 -0.608,0.017 c -0.254,-0.002 -0.303,0.008 -0.218,0.449 l 0.242,0.717 -0.991,0.142 -10e-4,0.254 0.272,0.355 c 1.021,-0.25 2.003,-0.695 2.3,-1.262 0.534,-0.918 1.503,-2.481 1.16,-4.247 -0.256,-1.579 -1.43,-3.693 -2.697,-4.974 z"
             inkscape:connector-curvature="0"
             style="fill:#c1af9a" />
        </g>
        <g
           id="drawingObject3">
          <path
             id="path3"
             d="m 4.046,-22.219 c -0.275,0.155 -0.151,0.793 -0.151,0.793 l 0.863,1.563 c 0.476,0.874 0.447,0.727 0.548,2.031 0.052,1.314 -0.288,0.616 -0.288,0.616 l 0.071,1.412 c -0.025,0.921 -0.14,0.587 -0.38,1.448 L 4.252,-13.3 c 0.275,-0.155 0.492,-0.35 0.601,-0.575 0.534,-0.918 1.503,-2.481 1.16,-4.247 -0.199,-1.285 -1.023,-2.906 -1.967,-4.097 z"
             inkscape:connector-curvature="0"
             style="fill:#a29481" />
        </g>
        <g
           id="drawingObject4">
          <path
             id="path4"
             d="m -5.592,-19.685 c 0.41,0.277 1.35,0.4 1.35,0.4 l -0.564,-0.807 0.608,-0.016 c 0.598,-0.066 2.113,0.658 2.113,0.658 0,0 -0.594,-0.699 -1.493,-1.135 -0.85,-0.446 -1.918,-0.442 -2.673,-0.397 l -2.923,0.416 1.316,-0.562 c 0.992,-0.396 3.874,-0.498 3.874,-0.498 l -1.078,-0.045 c -1.068,0.004 -2.106,-0.1 -3.499,0.069 -1.392,0.169 -1.777,0.549 -1.777,0.549 l 0.364,-0.223 -0.364,0.223 1.025,-1.014 c 0,0 -0.598,0.066 -1.07,0.259 -0.52,0.203 -1.279,1.012 -2.059,1.978 -0.581,0.673 -0.725,1.77 -0.826,2.299 l 0.009,0.304 0.104,0.539 c 0,0 0.533,-0.663 0.909,-1.347 0.377,-0.684 1.822,-1.627 2.979,-1.699 1.157,-0.072 3.255,-0.276 3.675,0.049 z"
             inkscape:connector-curvature="0"
             style="fill:#fbe7d1" />
        </g>
        <g
           id="drawingObject5">
          <path
             id="path5"
             d="m -2.551,-18.443 -0.274,-0.099 0.776,1.631 c 0,0 -1.129,-1.614 -1.481,-1.596 -0.304,0.008 0.162,0.834 0.328,0.903 q 0.332,0.139 0.456,0.777 0.077,0.392 0.16,1.344 c 0.19,0.981 1.46,1.752 1.46,1.752 0,0 -0.545,-0.709 -0.582,-1.16 l -0.027,-0.402 0.301,0.502 -0.301,-0.502 c 0,0 0.476,0.875 0.963,1.29 l 0.878,0.847 c 0,0 -0.688,-1.444 -0.899,-2.269 -0.211,-0.824 -0.311,-0.55 -0.424,-1.394 -0.162,-0.834 -0.426,-0.884 -0.757,-1.278 -0.381,-0.384 -0.851,-0.445 -0.851,-0.445"
             inkscape:connector-curvature="0"
             style="fill:#fbe7d1" />
        </g>
        <g
           id="drawingObject6">
          <path
             id="path6"
             d="m -1.444,-20.083 c 0,0 0.041,1.519 0.373,1.658 q 0.508,0.257 0.779,0.867 c 0.33,0.648 0.397,0.992 0.513,1.325 l 0.258,1.07 -0.136,-2.01 c -0.075,-0.647 -0.541,-1.473 -1.135,-2.172 l -0.652,-0.738 z"
             inkscape:connector-curvature="0"
             style="fill:#fbe7d1" />
        </g>
        <g
           id="drawingObject7">
          <path
             id="path7"
             d="m 0.53,-19.093 c -0.234,-0.158 0.809,0.759 0.808,1.014 q 0.027,0.402 0.867,1.054 c 0,0 -0.231,-0.923 -0.777,-1.377 -0.546,-0.454 -0.614,-0.542 -0.898,-0.691 z"
             inkscape:connector-curvature="0"
             style="fill:#fbe7d1" />
        </g>
      </g>
    </g>
  </g>
</svg>
