<?xml version="1.0" encoding="UTF-8" standalone="no"?>
<!-- Generator: flash2svg, http://dissentgraphics.com/tools/flash2svg -->

<svg
   xmlns:dc="http://purl.org/dc/elements/1.1/"
   xmlns:cc="http://creativecommons.org/ns#"
   xmlns:rdf="http://www.w3.org/1999/02/22-rdf-syntax-ns#"
   xmlns:svg="http://www.w3.org/2000/svg"
   xmlns="http://www.w3.org/2000/svg"
   xmlns:sodipodi="http://sodipodi.sourceforge.net/DTD/sodipodi-0.dtd"
   xmlns:inkscape="http://www.inkscape.org/namespaces/inkscape"
   id="AvatarAssets"
   image-rendering="auto"
   version="1.1"
   x="0px"
   y="0px"
   width="9.2836962"
   height="9.0370655"
   viewBox="0 0 9.2836962 9.0370655"
   inkscape:version="0.48.4 r9939"
   sodipodi:docname="AvatarAssets_backSockUpperLeftD010.svg">
  <metadata
     id="metadata3389">
    <rdf:RDF>
      <cc:Work
         rdf:about="">
        <dc:format>image/svg+xml</dc:format>
        <dc:type
           rdf:resource="http://purl.org/dc/dcmitype/StillImage" />
      </cc:Work>
    </rdf:RDF>
  </metadata>
  <sodipodi:namedview
     pagecolor="#ffffff"
     bordercolor="#666666"
     borderopacity="1"
     objecttolerance="10"
     gridtolerance="10"
     guidetolerance="10"
     inkscape:pageopacity="0"
     inkscape:pageshadow="2"
     inkscape:window-width="640"
     inkscape:window-height="480"
     id="namedview3387"
     showgrid="false"
     fit-margin-top="0"
     fit-margin-left="0"
     fit-margin-right="0"
     fit-margin-bottom="0"
     inkscape:zoom="1.9032258"
     inkscape:cx="33.946"
     inkscape:cy="-48.518092"
     inkscape:window-x="0"
     inkscape:window-y="0"
     inkscape:window-maximized="0"
     inkscape:current-layer="AvatarAssets" />
  <defs
     id="defs3374" />
  <g
     id="backSockUpperLeftD11"
     overflow="visible"
     style="overflow:visible"
     transform="translate(1.946,-4.4448428)">
    <g
       id="backSockUpperLeftD010_0">
      <g
         id="element">
        <path
           id="path"
           d="m -1.946,8.101 2.377,3.65 c 0.568,0.75 1.86,2.5 4.753,1.35 2.945,-1.2 2.067,-4 1.86,-5 l -0.465,-2.5 c 0,0 -0.465,-0.2 -0.775,-0.6 -0.361,-0.35 -2.48,-1 -4.805,-0.1 q -1.446,0.55 -2.325,1.9 l -0.62,1.3 z"
           inkscape:connector-curvature="0"
           style="fill:#f5dae4" />
      </g>
      <g
         id="element1">
        <path
           id="path1"
           d="m 0.689,5.051 c -2.066,0.95 -2.635,3.05 -2.635,3.05 l 0.569,-1.15 -0.569,1.15 2.377,3.65 c 0.568,0.75 1.86,2.5 4.753,1.35 2.429,-1 2.274,-3.15 2.015,-4.4 C 6.993,8.651 6.786,8.501 6.579,8.351 5.856,7.751 4.306,8.151 3.583,8.101 Q 2.084,7.901 1.568,7.151 C 1.103,6.451 0.741,5.601 0.689,5.051 z"
           inkscape:connector-curvature="0"
           style="fill:#c7b1b9" />
      </g>
      <g
         id="element2">
        <g
           id="drawingObject2">
          <path
             id="path2"
             d="m -1.687,8.551 0.31,0.55 q 0.258,-0.85 0.723,-1.45 0.31,-0.4 1.292,-1.3 c 1.188,-1.2 3.358,-1 4.753,-0.7 0.62,0.15 1.033,0.45 1.343,0.75 L 6.683,6.251 c -0.259,-0.35 -0.775,-0.8 -1.809,-1.1 -1.24,-0.4 -3.461,0 -4.65,0.8 -0.93,0.7 -1.653,1.85 -1.911,2.6 z"
             inkscape:connector-curvature="0"
             style="fill:#4d4447" />
        </g>
        <g
           id="drawingObject3">
          <path
             id="path3"
             d="m -0.912,9.801 0.258,0.35 c 0.465,-1.3 1.395,-2.15 2.583,-3.15 q 0.879,-0.75 1.912,-0.65 0.62,0 1.86,0.35 c 0.517,0.1 0.93,0.35 1.188,0.65 l 0,-0.1 c -0.258,-0.35 -0.62,-0.65 -0.981,-0.8 -1.085,-0.45 -2.325,-0.75 -4.082,0 -1.343,0.6 -2.325,2.05 -2.738,3.35 z"
             inkscape:connector-curvature="0"
             style="fill:#4d4447" />
        </g>
      </g>
    </g>
  </g>
</svg>
