<?xml version="1.0" encoding="UTF-8" standalone="no"?>
<!-- Generator: flash2svg, http://dissentgraphics.com/tools/flash2svg -->

<svg
   xmlns:dc="http://purl.org/dc/elements/1.1/"
   xmlns:cc="http://creativecommons.org/ns#"
   xmlns:rdf="http://www.w3.org/1999/02/22-rdf-syntax-ns#"
   xmlns:svg="http://www.w3.org/2000/svg"
   xmlns="http://www.w3.org/2000/svg"
   xmlns:xlink="http://www.w3.org/1999/xlink"
   xmlns:sodipodi="http://sodipodi.sourceforge.net/DTD/sodipodi-0.dtd"
   xmlns:inkscape="http://www.inkscape.org/namespaces/inkscape"
   id="AvatarAssets"
   image-rendering="auto"
   version="1.1"
   x="0px"
   y="0px"
   width="11.810369"
   height="16.64908"
   viewBox="0 0 11.810369 16.64908"
   inkscape:version="0.48.4 r9939"
   sodipodi:docname="AvatarAssets_backPantsLegLowerLeftA012.svg">
  <metadata
     id="metadata39">
    <rdf:RDF>
      <cc:Work
         rdf:about="">
        <dc:format>image/svg+xml</dc:format>
        <dc:type
           rdf:resource="http://purl.org/dc/dcmitype/StillImage" />
      </cc:Work>
    </rdf:RDF>
  </metadata>
  <sodipodi:namedview
     pagecolor="#ffffff"
     bordercolor="#666666"
     borderopacity="1"
     objecttolerance="10"
     gridtolerance="10"
     guidetolerance="10"
     inkscape:pageopacity="0"
     inkscape:pageshadow="2"
     inkscape:window-width="640"
     inkscape:window-height="480"
     id="namedview37"
     showgrid="false"
     fit-margin-top="0"
     fit-margin-left="0"
     fit-margin-right="0"
     fit-margin-bottom="0"
     inkscape:zoom="1.9032258"
     inkscape:cx="35.18137"
     inkscape:cy="-46.932998"
     inkscape:window-x="0"
     inkscape:window-y="0"
     inkscape:window-maximized="0"
     inkscape:current-layer="AvatarAssets" />
  <defs
     id="defs3">
    <pattern
       id="bitmap"
       patternContentUnits="userSpaceOnUse"
       patternUnits="userSpaceOnUse"
       width="200"
       height="200"
       viewBox="0 0 200 200"
       patternTransform="matrix(1 0 0 1 -100.849 -102.099)">
      <symbol
         id="Denim_Texture_white_symbol"
         viewBox="0 0 200 200">
        <image
           sodipodi:absref="C:\Users\Training\Documents\GitHub\Glitchen-Avatar-Engine\glitch-avatars-svg\base_avatar\AvatarAssets.fla\clothing\back\Denim_Texture_white"
           xlink:href="Denim_Texture_white"
           height="200"
           width="200"
           id="Denim_Texture_white" />
      </symbol>
      <use
         id="Denim_Texture_white_use"
         width="200"
         height="200"
         y="0"
         x="0"
         xlink:href="#Denim_Texture_white_symbol"
         externalResourcesRequired="true" />
    </pattern>
    <pattern
       id="bitmap1"
       patternContentUnits="userSpaceOnUse"
       patternUnits="userSpaceOnUse"
       width="200"
       height="200"
       viewBox="0 0 200 200"
       patternTransform="matrix(1 0 0 1 -98.099 -95.349)">
      <symbol
         id="symbol10"
         viewBox="0 0 200 200">
        <image
           sodipodi:absref="C:\Users\Training\Documents\GitHub\Glitchen-Avatar-Engine\glitch-avatars-svg\base_avatar\AvatarAssets.fla\clothing\back\Denim_Texture_white"
           xlink:href="Denim_Texture_white"
           height="200"
           width="200"
           id="image12" />
      </symbol>
      <use
         id="use14"
         width="200"
         height="200"
         y="0"
         x="0"
         xlink:href="#Denim_Texture_white_symbol"
         externalResourcesRequired="true" />
    </pattern>
  </defs>
  <g
     id="backPantsLegLowerLeftA13"
     overflow="visible"
     style="overflow:visible"
     transform="translate(3.1813698,1.5820792)">
    <g
       id="backPantsLegLowerLeftA012_0">
      <g
         id="element">
        <g
           id="group1">
          <g
             id="drawingObject">
            <path
               id="path"
               d="M 6.35,5.55 C 6,4.75 4.25,0 3.6,-0.55 3,-1.1 1.75,-1.9 -0.2,-1.45 c -1.5,0.35 -2.55,0.6 -2.9,2.5 -0.35,1.85 0.5,4.5 1.2,6.7 0.35,1 0.85,2.1 1.5,3.1 C 0,10.35 0.45,9.9 1,9.55 L 1.35,9.2 C 1.7,8.8 2.1,8.45 2.6,8.25 3.6,7.75 4.4,7.45 5.55,7.45 6,7.45 6.45,7.5 6.9,7.6 6.75,6.65 6.5,5.85 6.35,5.55 z"
               inkscape:connector-curvature="0"
               style="fill:url(#bitmap1)" />
          </g>
          <g
             id="drawingObject1">
            <path
               id="path1"
               d="m 0.301,10.051 0.1,0.15 0.3,-0.25 -0.45,-0.6 c -0.75,-1.3 -0.6,-1.6 -1,-2.7 -0.35,-1.15 -0.7,-2 -0.7,-2.7 l -0.05,-1.25 c 0,0 -0.05,2.15 0.5,4.05 0.55,1.95 0.65,2.45 1.3,3.3 z"
               inkscape:connector-curvature="0"
               style="fill:#000000;fill-opacity:0.2" />
          </g>
          <g
             id="drawingObject2">
            <path
               id="path2"
               d="m -1.499,-0.949 c 0.8,0.05 1.7,0.45 2.4,0.9 0.8,0.5 2.05,2.75 2.05,3.5 q 0,0.25 -0.2,0.9 -0.15,0.45 0.1,0.8 c 0.35,0.6 0.85,0.65 1.05,1.3 0.1,0.25 0.15,0.75 0.15,1.35 0.5,-0.15 1,-0.25 1.6,-0.25 0.45,0 0.9,0.05 1.35,0.15 -0.15,-0.95 -0.4,-1.75 -0.55,-2.05 -0.35,-0.8 -2.1,-5.55 -2.75,-6.1 -0.6,-0.55 -1.85,-1.35 -3.8,-0.9 l -1.4,0.4 z"
               inkscape:connector-curvature="0"
               style="fill:#000000;fill-opacity:0.2" />
          </g>
          <g
             id="drawingObject3">
            <path
               id="path3"
               d="m -1.249,3.451 0.6,2.95 q 0.55,2.35 1.3,3.25 l 0.15,0.2 0.1,-0.05 c -0.3,-0.7 -1,-2.4 -1.4,-3.85 l -0.8,-2.9 0.05,0.4 z"
               inkscape:connector-curvature="0"
               style="fill:#ffffff;fill-opacity:0.694" />
          </g>
        </g>
        <g
           id="group2">
          <g
             id="drawingObject4">
            <path
               id="path4"
               d="m 0.651,11.001 3.45,-2.4 c 0,0 3.75,-0.95 2.85,-1.45 -0.85,-0.5 -2.35,-0.6 -4.35,0.35 -2,0.9 -2.6,2.9 -2.6,2.9 l 0.65,0.6 z"
               inkscape:connector-curvature="0"
               style="fill:#ffffff" />
          </g>
          <g
             id="drawingObject5">
            <path
               id="path5"
               d="m 0.101,9.901 c -0.25,0.45 -0.5,1.5 -0.1,2.3 0.35,0.8 0.45,1.65 0.45,1.95 0,0.35 0.5,1.15 0.5,0.85 0,-0.3 1.15,-3.85 2.1,-4.65 1.65,-1.45 3.55,-1.4 4.3,-1.45 0.7,-0.1 1.15,0.5 1.15,0.5 0,0 0.2,0 0.1,-0.45 l -0.75,-1.3 q -0.45,-0.5 -2.05,-0.65 c -1,-0.1 -3.5,0.75 -4.15,1.3 -0.6,0.55 -1.25,1.2 -1.55,1.6 z"
               inkscape:connector-curvature="0"
               style="fill:#d4d4d4" />
          </g>
          <g
             id="drawingObject6">
            <path
               id="path6"
               d="m 3.051,10.25 c 1.65,-1.45 3.55,-1.4 4.3,-1.45 0.7,-0.1 1.15,0.5 1.15,0.5 0,0 0.2,0 0.1,-0.45 L 7.851,7.55 C 7.401,7.05 6.801,7 5.801,6.9 5.051,6.85 3.551,7.3 2.501,7.7 l 0.35,0 c 1.25,-0.05 0.3,0.5 -1.1,1.55 -1.35,1.05 -0.35,0.8 0.35,0.4 0.65,-0.45 2.5,-1.15 2.15,-0.9 -0.3,0.25 -1.85,1.2 -2.5,2.9 q -0.3,0.75 -0.5,2.1 c 0.45,-1.2 1.15,-2.95 1.8,-3.5 z"
               inkscape:connector-curvature="0"
               style="fill:#b4bab5" />
          </g>
          <g
             id="drawingObject7">
            <path
               id="path7"
               d="m 5.551,9.101 c 0.75,-0.15 1.4,-0.2 1.8,-0.2 0.7,-0.1 1.15,0.5 1.15,0.5 0,0 0.1,-0.05 0.1,-0.25 q -0.2,-0.55 -0.95,-0.8 c -0.4,-0.1 -0.8,-0.85 -1.3,-0.8 -0.5,0.05 -1,0.7 -0.7,1 0.15,0.15 0.05,0.35 -0.1,0.55 z"
               inkscape:connector-curvature="0"
               style="fill:#999999" />
          </g>
        </g>
      </g>
    </g>
  </g>
</svg>
