<?xml version="1.0" encoding="UTF-8" standalone="no"?>
<!-- Generator: flash2svg, http://dissentgraphics.com/tools/flash2svg -->

<svg
   xmlns:dc="http://purl.org/dc/elements/1.1/"
   xmlns:cc="http://creativecommons.org/ns#"
   xmlns:rdf="http://www.w3.org/1999/02/22-rdf-syntax-ns#"
   xmlns:svg="http://www.w3.org/2000/svg"
   xmlns="http://www.w3.org/2000/svg"
   xmlns:sodipodi="http://sodipodi.sourceforge.net/DTD/sodipodi-0.dtd"
   xmlns:inkscape="http://www.inkscape.org/namespaces/inkscape"
   id="AvatarAssets"
   image-rendering="auto"
   version="1.1"
   x="0px"
   y="0px"
   width="11.504004"
   height="18.323141"
   viewBox="0 0 11.504004 18.323141"
   inkscape:version="0.48.4 r9939"
   sodipodi:docname="AvatarAssets_backPantsLegUpperLeftA006.svg">
  <metadata
     id="metadata3076">
    <rdf:RDF>
      <cc:Work
         rdf:about="">
        <dc:format>image/svg+xml</dc:format>
        <dc:type
           rdf:resource="http://purl.org/dc/dcmitype/StillImage" />
      </cc:Work>
    </rdf:RDF>
  </metadata>
  <sodipodi:namedview
     pagecolor="#ffffff"
     bordercolor="#666666"
     borderopacity="1"
     objecttolerance="10"
     gridtolerance="10"
     guidetolerance="10"
     inkscape:pageopacity="0"
     inkscape:pageshadow="2"
     inkscape:window-width="640"
     inkscape:window-height="480"
     id="namedview3074"
     showgrid="false"
     fit-margin-top="0"
     fit-margin-left="0"
     fit-margin-right="0"
     fit-margin-bottom="0"
     inkscape:zoom="1.9032258"
     inkscape:cx="37.251807"
     inkscape:cy="-46.309496"
     inkscape:window-x="0"
     inkscape:window-y="0"
     inkscape:window-maximized="0"
     inkscape:current-layer="AvatarAssets" />
  <defs
     id="defs3051" />
  <g
     id="backPantsLegUpperLeftA7"
     overflow="visible"
     style="overflow:visible"
     transform="translate(5.2518075,2.6326376)">
    <g
       id="backPantsLegUpperLeftA006_0">
      <g
         id="element">
        <g
           id="drawingObject">
          <path
             id="path"
             d="M 4.847,-1.587 C 2.3,-3.248 -1.209,-2.963 -3.088,-0.496 q -0.941,1.281 -1.608,3.369 -0.839,2.799 -0.37,5.314 c 0.468,2.562 0.795,4.84 2.7,6.263 1.954,1.424 3.849,1.566 5.377,0.712 2.595,-1.423 1.368,-3.701 2.158,-6.5 L 4.749,12.41 5.169,8.662 C 5.895,6.289 7.347,-0.021 4.847,-1.587 z"
             inkscape:connector-curvature="0"
             style="fill:#d9b558" />
        </g>
        <g
           id="group1">
          <g
             id="drawingObject1">
            <path
               id="path1"
               d="M 4.896,-1.54 4.847,-1.587 4.405,-1.824 c 0.276,0.759 0.48,2.182 0.351,4.65 -0.167,3.653 -0.881,7.212 -0.934,8.872 -0.053,1.661 -0.176,2.373 -0.235,2.657 L 3.47,14.877 C 4.034,14.45 4.349,13.976 4.567,13.406 4.71,12.078 4.867,10.275 4.916,8.756 4.987,6.526 6.023,2.304 4.896,-1.54 z"
               inkscape:connector-curvature="0"
               style="fill:#79592b;fill-opacity:0.4" />
          </g>
          <g
             id="drawingObject2">
            <path
               id="path2"
               d="M 2.5,-1.682 2.676,-2.489 2.079,-2.584 c -0.492,1.329 -1.05,3.132 -1.065,5.172 -0.002,3.179 0.41,5.931 0.449,7.829 -0.011,1.898 -0.107,3.322 0.163,4.27 L 1.897,15.589 2.3,15.494 C 2.432,14.498 2.213,11.983 2.178,8.377 2.15,4.581 2.212,-0.496 2.5,-1.682 z"
               inkscape:connector-curvature="0"
               style="fill:#79592b;fill-opacity:0.4" />
          </g>
          <g
             id="drawingObject3">
            <path
               id="path3"
               d="m -1.73,14.877 c 0.441,0.285 0.935,0.475 1.38,0.617 Q -3.252,9.326 -2.735,5.672 c 0.447,-3.036 1.45,-6.263 2.61,-8.113 l -1.013,0.379 c -0.886,1.139 -2.042,2.895 -2.356,4.888 -0.508,3.368 0.449,9.394 1.764,12.051 z"
               inkscape:connector-curvature="0"
               style="fill:#79592b;fill-opacity:0.4" />
          </g>
        </g>
        <g
           id="group2">
          <g
             id="drawingObject4">
            <path
               id="path4"
               d="M 6.162,1.07 C 5.473,0.738 4.236,0.311 1.794,0.074 Q -0.947,-0.211 -3.935,0.975 L -4.42,2.066 C -3.106,1.639 -1.038,1.07 1.662,1.07 c 2.1,0 3.63,0.617 4.561,1.234 L 6.162,1.07 z"
               inkscape:connector-curvature="0"
               style="fill:#79592b;fill-opacity:0.45100002" />
          </g>
          <g
             id="drawingObject5">
            <path
               id="path5"
               d="M 1.793,9.468 C -0.499,9.231 -2.98,10.18 -4.504,10.939 l 0.318,0.997 c 1.828,-0.855 3.747,-1.471 5.649,-1.519 1.401,-0.047 2.635,0.475 3.371,0.902 L 4.864,10.37 C 4.326,9.99 3.387,9.658 1.793,9.468 z"
               inkscape:connector-curvature="0"
               style="fill:#79592b;fill-opacity:0.45100002" />
          </g>
          <g
             id="drawingObject6">
            <path
               id="path6"
               d="M 5.798,6.194 C 4.816,5.625 3.435,5.056 1.892,4.818 Q -0.746,4.439 -5.187,5.72 c -0.065,0.474 -0.032,0.996 0.003,1.471 1.474,-0.759 3.738,-1.186 6.538,-1.186 1.8,0 3.23,0.616 4.211,1.233 L 5.798,6.194 z"
               inkscape:connector-curvature="0"
               style="fill:#79592b;fill-opacity:0.45100002" />
          </g>
        </g>
        <g
           id="drawingObject7">
          <path
             id="path7"
             d="m -0.7,-2.313 c -0.911,0.332 -1.779,0.902 -2.406,1.756 -0.888,1.186 -2.705,4.839 -1.978,8.683 0.468,2.562 0.795,4.839 2.699,6.263 1.955,1.423 3.85,1.566 5.377,0.712 Q 4.468,14.294 4.72,12.681 4.785,10.641 4.975,9.407 L 4.714,9.739 C 3.675,10.973 3.414,11.305 2.576,10.925 1.74,10.498 0.991,10.451 -0.713,9.027 -2.418,7.604 -2.205,4.093 -1.859,1.103 -1.72,-0.13 -1.282,-1.316 -0.7,-2.313 z"
             inkscape:connector-curvature="0"
             style="fill:#000000;fill-opacity:0.2" />
        </g>
      </g>
    </g>
  </g>
</svg>
