<?xml version="1.0" encoding="UTF-8" standalone="no"?>
<!-- Generator: flash2svg, http://dissentgraphics.com/tools/flash2svg -->

<svg
   xmlns:dc="http://purl.org/dc/elements/1.1/"
   xmlns:cc="http://creativecommons.org/ns#"
   xmlns:rdf="http://www.w3.org/1999/02/22-rdf-syntax-ns#"
   xmlns:svg="http://www.w3.org/2000/svg"
   xmlns="http://www.w3.org/2000/svg"
   xmlns:sodipodi="http://sodipodi.sourceforge.net/DTD/sodipodi-0.dtd"
   xmlns:inkscape="http://www.inkscape.org/namespaces/inkscape"
   id="AvatarAssets"
   image-rendering="auto"
   version="1.1"
   x="0px"
   y="0px"
   width="11.613029"
   height="18.50396"
   viewBox="0 0 11.613029 18.50396"
   inkscape:version="0.48.4 r9939"
   sodipodi:docname="AvatarAssets_backPantsLegUpperLeftA007.svg">
  <metadata
     id="metadata3097">
    <rdf:RDF>
      <cc:Work
         rdf:about="">
        <dc:format>image/svg+xml</dc:format>
        <dc:type
           rdf:resource="http://purl.org/dc/dcmitype/StillImage" />
      </cc:Work>
    </rdf:RDF>
  </metadata>
  <sodipodi:namedview
     pagecolor="#ffffff"
     bordercolor="#666666"
     borderopacity="1"
     objecttolerance="10"
     gridtolerance="10"
     guidetolerance="10"
     inkscape:pageopacity="0"
     inkscape:pageshadow="2"
     inkscape:window-width="640"
     inkscape:window-height="480"
     id="namedview3095"
     showgrid="false"
     fit-margin-top="0"
     fit-margin-left="0"
     fit-margin-right="0"
     fit-margin-bottom="0"
     inkscape:zoom="1.9032258"
     inkscape:cx="37.250809"
     inkscape:cy="-46.288973"
     inkscape:window-x="0"
     inkscape:window-y="0"
     inkscape:window-maximized="0"
     inkscape:current-layer="AvatarAssets" />
  <defs
     id="defs3079" />
  <g
     id="backPantsLegUpperLeftA8"
     overflow="visible"
     style="overflow:visible"
     transform="translate(5.2508086,2.7929335)">
    <g
       id="backPantsLegUpperLeftA007_0">
      <g
         id="element">
        <g
           id="drawingObject">
          <path
             id="path"
             d="M 5.165,8.625 C 5.895,6.23 7.493,-0.191 5.078,-1.772 2.516,-3.401 -0.949,-3.114 -2.882,-0.67 q -0.97,1.294 -1.684,3.402 -0.953,2.827 -0.543,5.414 c 0.41,2.588 0.738,4.84 2.61,6.277 1.872,1.437 3.814,1.581 5.361,0.719 2.578,-1.438 1.402,-3.738 2.303,-6.517 z"
             inkscape:connector-curvature="0"
             style="fill:#80a92d" />
        </g>
        <g
           id="group1">
          <g
             id="drawingObject1">
            <path
               id="path1"
               d="M 4.799,8.732 C 4.918,6.528 5.999,2.264 5.012,-1.665 L 4.965,-1.713 4.478,-1.953 c 0.305,0.815 0.48,2.204 0.295,4.696 -0.3,3.689 -1.045,7.283 -1.135,8.96 -0.091,1.677 -0.23,2.395 -0.348,2.731 l -0.076,0.479 c 0.573,-0.431 0.899,-0.91 1.078,-1.437 0.172,-1.342 0.423,-3.211 0.507,-4.744 z"
               inkscape:connector-curvature="0"
               style="fill:#b6c837" />
          </g>
          <g
             id="drawingObject2">
            <path
               id="path2"
               d="M 2.811,-2.576 2.166,-2.672 c -0.52,1.294 -1.068,3.115 -1.13,5.175 -0.074,3.21 0.276,5.989 0.222,7.906 -0.004,1.917 -0.182,3.354 0.116,4.312 L 1.625,15.632 2.03,15.536 C 2.184,14.53 2.022,11.99 2.069,8.349 2.077,4.516 2.305,-0.611 2.62,-1.809 l 0.191,-0.767 z"
               inkscape:connector-curvature="0"
               style="fill:#b6c837" />
          </g>
          <g
             id="drawingObject3">
            <path
               id="path3"
               d="m 0.009,-2.528 -1.019,0.336 c -0.912,1.15 -2.108,2.922 -2.467,4.935 -0.584,3.402 0.186,9.487 1.441,12.17 0.484,0.287 0.924,0.479 1.416,0.623 Q -3.427,9.211 -2.783,5.618 c 0.516,-3.067 1.593,-6.325 2.792,-8.146 z"
               inkscape:connector-curvature="0"
               style="fill:#b6c837" />
          </g>
        </g>
        <g
           id="drawingObject4">
          <path
             id="path4"
             d="m -0.467,-2.407 c -0.97,0.383 -1.802,0.958 -2.446,1.773 -0.915,1.197 -2.815,4.887 -2.227,8.816 0.409,2.587 0.737,4.839 2.609,6.277 1.873,1.437 3.815,1.581 5.361,0.718 Q 4.275,14.363 4.563,12.734 4.725,10.673 4.939,9.476 L 4.624,9.763 C 3.554,11.057 3.288,11.344 2.509,10.961 1.68,10.578 0.935,10.482 -0.737,9.044 -2.409,7.607 -2.12,4.109 -1.704,1.043 c 0.168,-1.246 0.63,-2.396 1.237,-3.45 z"
             inkscape:connector-curvature="0"
             style="fill:#000000;fill-opacity:0.2" />
        </g>
      </g>
    </g>
  </g>
</svg>
