<?xml version="1.0" encoding="UTF-8" standalone="no"?>
<!-- Generator: flash2svg, http://dissentgraphics.com/tools/flash2svg -->

<svg
   xmlns:dc="http://purl.org/dc/elements/1.1/"
   xmlns:cc="http://creativecommons.org/ns#"
   xmlns:rdf="http://www.w3.org/1999/02/22-rdf-syntax-ns#"
   xmlns:svg="http://www.w3.org/2000/svg"
   xmlns="http://www.w3.org/2000/svg"
   xmlns:sodipodi="http://sodipodi.sourceforge.net/DTD/sodipodi-0.dtd"
   xmlns:inkscape="http://www.inkscape.org/namespaces/inkscape"
   id="AvatarAssets"
   image-rendering="auto"
   version="1.1"
   x="0px"
   y="0px"
   width="12.410946"
   height="14.077801"
   viewBox="0 0 12.410946 14.077801"
   inkscape:version="0.48.4 r9939"
   sodipodi:docname="AvatarAssets_backBootLeftC010.svg">
  <metadata
     id="metadata18">
    <rdf:RDF>
      <cc:Work
         rdf:about="">
        <dc:format>image/svg+xml</dc:format>
        <dc:type
           rdf:resource="http://purl.org/dc/dcmitype/StillImage" />
      </cc:Work>
    </rdf:RDF>
  </metadata>
  <sodipodi:namedview
     pagecolor="#ffffff"
     bordercolor="#666666"
     borderopacity="1"
     objecttolerance="10"
     gridtolerance="10"
     guidetolerance="10"
     inkscape:pageopacity="0"
     inkscape:pageshadow="2"
     inkscape:window-width="640"
     inkscape:window-height="480"
     id="namedview16"
     showgrid="false"
     fit-margin-top="0"
     fit-margin-left="0"
     fit-margin-right="0"
     fit-margin-bottom="0"
     inkscape:zoom="1.9032258"
     inkscape:cx="39.133587"
     inkscape:cy="-51.359661"
     inkscape:window-x="0"
     inkscape:window-y="0"
     inkscape:window-maximized="0"
     inkscape:current-layer="AvatarAssets" />
  <defs
     id="defs3" />
  <g
     id="backBootLeftC11"
     overflow="visible"
     style="overflow:visible"
     transform="translate(7.1335867,3.4374615)">
    <g
       id="backBootLeftC010_0">
      <g
         id="element">
        <g
           id="drawingObject">
          <path
             id="path"
             d="m -5.999,4.301 c -0.25,0.2 -1.75,2.5 -0.85,4.1 0.85,1.55 1,1.8 2.1,1.8 1.15,0 4.05,-1.7 5.75,-2.3 1.7,-0.65 2.45,-2.85 3.25,-3.75 0.8,-0.95 1.65,-4.85 -0.5,-6.6 q -1.6,-0.65 -1.85,-0.85 l -2.2,0.25 c -0.45,0.25 -2.25,1.35 -2.55,1.95 -0.4,0.65 -1.25,3.35 -1.25,3.9 l 0,0.6 -1.9,0.9 z"
             inkscape:connector-curvature="0"
             style="fill:#333636" />
        </g>
        <g
           id="drawingObject1">
          <path
             id="path1"
             d="m 2.201,-3.249 q -0.9,-0.35 -2,-0.05 -1.1,0.3 -1.7,1.05 c -0.75,0.95 -0.55,3 -0.45,3.65 0.15,0.6 -0.4,1.85 -0.6,2.1 -0.2,0.25 -0.75,1.95 -1.2,2.3 -1.7,1.45 -2.8,-0.35 -2.8,-0.35 l 0.75,0.7 -0.75,-0.7 -0.4,0.95 0.4,-0.95 c 0,0 -1,1.5 -0.2,3.2 0.2,0.45 1.15,1.8 2.4,1.5 1.3,-0.3 3.85,-1.7 5.35,-2.25 1.7,-0.65 2.45,-2.85 3.25,-3.75 0.5,-0.6 1,-2.35 0.8,-4 l -0.8,-1.05 c -0.2,-0.35 -0.85,-1.85 -2.05,-2.35 z"
             inkscape:connector-curvature="0"
             style="fill:#242626" />
        </g>
        <g
           id="drawingObject2">
          <path
             id="path2"
             d="m -1.599,7.451 q -0.85,1.3 -1.45,1.8 -0.7,0.5 -2.05,0.8 l -0.25,-0.1 c 0,0 -0.45,0.2 -0.25,0.5 0.15,0.3 1.25,0.2 2,0 0.75,-0.2 4.65,-1.9 5.4,-2.3 0.75,-0.45 1.35,-1.4 2.2,-3.35 0.9,-1.9 1.4,-3.15 1.25,-4.1 -0.1,-0.95 -0.6,-0.9 -1.5,-1.05 -0.85,-0.2 -2.6,0.4 -3,1.35 -0.35,0.95 -1.3,4.75 -2.35,6.45 z"
             inkscape:connector-curvature="0"
             style="fill:#333636" />
        </g>
        <g
           id="drawingObject3">
          <path
             id="path3"
             d="m 4.001,4.801 c 0.8,-1.75 1.3,-2.95 1.25,-3.85 q -0.3,-0.7 -1.8,-0.7 c -1.4,0 -2,0.75 -2.3,1.3 -0.35,0.6 -0.95,3.35 -2.5,6.4 -0.8,1.5 -1.6,2.2 -2.4,2.5 l 0.15,0 c 0.75,-0.2 4.65,-1.9 5.4,-2.3 0.75,-0.45 1.35,-1.4 2.2,-3.35 z"
             inkscape:connector-curvature="0"
             style="fill:#242626" />
        </g>
      </g>
    </g>
  </g>
</svg>
