<?xml version="1.0" encoding="UTF-8" standalone="no"?>
<!-- Generator: flash2svg, http://dissentgraphics.com/tools/flash2svg -->

<svg
   xmlns:dc="http://purl.org/dc/elements/1.1/"
   xmlns:cc="http://creativecommons.org/ns#"
   xmlns:rdf="http://www.w3.org/1999/02/22-rdf-syntax-ns#"
   xmlns:svg="http://www.w3.org/2000/svg"
   xmlns="http://www.w3.org/2000/svg"
   xmlns:sodipodi="http://sodipodi.sourceforge.net/DTD/sodipodi-0.dtd"
   xmlns:inkscape="http://www.inkscape.org/namespaces/inkscape"
   id="AvatarAssets"
   image-rendering="auto"
   version="1.1"
   x="0px"
   y="0px"
   width="11.030145"
   height="18.724447"
   viewBox="0 0 11.030145 18.724447"
   inkscape:version="0.48.4 r9939"
   sodipodi:docname="AvatarAssets_backPantsLegUpperLeftA009.svg">
  <metadata
     id="metadata3169">
    <rdf:RDF>
      <cc:Work
         rdf:about="">
        <dc:format>image/svg+xml</dc:format>
        <dc:type
           rdf:resource="http://purl.org/dc/dcmitype/StillImage" />
      </cc:Work>
    </rdf:RDF>
  </metadata>
  <sodipodi:namedview
     pagecolor="#ffffff"
     bordercolor="#666666"
     borderopacity="1"
     objecttolerance="10"
     gridtolerance="10"
     guidetolerance="10"
     inkscape:pageopacity="0"
     inkscape:pageshadow="2"
     inkscape:window-width="640"
     inkscape:window-height="480"
     id="namedview3167"
     showgrid="false"
     fit-margin-top="0"
     fit-margin-left="0"
     fit-margin-right="0"
     fit-margin-bottom="0"
     inkscape:zoom="1.9032258"
     inkscape:cx="36.785696"
     inkscape:cy="-46.424552"
     inkscape:window-x="0"
     inkscape:window-y="0"
     inkscape:window-maximized="0"
     inkscape:current-layer="AvatarAssets" />
  <defs
     id="defs3152" />
  <g
     id="backPantsLegUpperLeftA10"
     overflow="visible"
     style="overflow:visible"
     transform="translate(4.7856957,3.149)">
    <g
       id="backPantsLegUpperLeftA009_0">
      <g
         id="element">
        <g
           id="drawingObject">
          <path
             id="path"
             d="m 5.699,6.951 c 0.038,-1.25 0.82,-4.2 0.443,-6.1 q -0.271,-1.5 -1.506,-2.7 -1.286,-1.3 -2.712,-1.3 c -4.989,0.05 -6.304,5.6 -6.638,7.65 -0.335,2 0.545,8 1.785,9.7 1.55,2.05 5.619,1.65 7.226,-0.35 0.954,-1.25 1.314,-5.65 1.402,-6.9 z"
             inkscape:connector-curvature="0"
             style="fill:#d69244" />
        </g>
        <g
           id="drawingObject1">
          <path
             id="path1"
             d="m 6.142,0.851 c -0.161,-0.75 -0.576,-1.5 -1.093,-2.2 0.273,1.65 -0.825,3.75 -1.327,4.4 -0.552,0.75 -0.228,2.45 -0.427,2.85 -0.2,0.4 -0.61,0.1 -1.173,-0.2 -0.564,-0.35 -1.016,0.25 -1.266,0.65 -0.251,0.4 -0.247,0.75 -0.853,1.15 -0.606,0.45 -1.155,1.5 -1.741,3.85 -0.44,1.7 -1.203,1.75 -1.815,1.65 l 0.624,1.2 c 1.55,2.05 5.619,1.65 7.226,-0.35 q 1.005,-1.3 1.402,-6.9 c 0.038,-1.25 0.82,-4.2 0.443,-6.1 z"
             inkscape:connector-curvature="0"
             style="fill:#000000;fill-opacity:0.047" />
        </g>
        <g
           id="drawingObject2">
          <path
             id="path2"
             d="M 6.142,0.851 5.88,0.151 c 0.179,2.4 -0.751,5.85 -0.849,6.25 -0.097,0.45 -1.097,2.1 -2.415,2.6 -1.319,0.5 -2.302,3.75 -2.752,4.5 q -0.2,0.35 -1.063,0.6 -1.067,0.2 -1.524,0.3 c 1.649,1.85 5.463,1.4 7.02,-0.55 0.954,-1.25 1.314,-5.65 1.402,-6.9 0.038,-1.25 0.82,-4.2 0.443,-6.1 z"
             inkscape:connector-curvature="0"
             style="fill:#000000;fill-opacity:0.08600003" />
        </g>
        <g
           id="drawingObject3">
          <path
             id="path3"
             d="m -2.136,1.001 c 0.595,-1.45 0.989,-2.65 0.989,-2.65 q -1.507,1.9 -1.884,4.7 c -0.377,2.8 -0.319,3.4 -0.413,4.1 -0.095,0.7 0.014,1.35 -0.126,2.5 -0.14,1.15 0.237,3.1 0.237,3.1 0,0 0.141,-5.75 0.528,-7.65 0.336,-1.95 0.073,-2.65 0.669,-4.1 z"
             inkscape:connector-curvature="0"
             style="fill:#ffffff;fill-opacity:0.2" />
        </g>
        <g
           id="drawingObject4">
          <path
             id="path4"
             d="m -1.807,-1.499 c 0,0 -1.654,2.45 -2.042,4.2 -0.338,1.7 -0.271,3.15 -0.158,4.2 l 0.2,4.4 c 0,0 -0.016,-1.45 0.08,-2 0.046,-0.5 -0.167,-1.35 -0.07,-1.8 0.148,-0.45 -0.067,-1.5 0.363,-4.05 q 0.432,-2.5 1.627,-4.95 z"
             inkscape:connector-curvature="0"
             style="fill:#000000;fill-opacity:0.2" />
        </g>
      </g>
    </g>
  </g>
</svg>
