<?xml version="1.0" encoding="UTF-8" standalone="no"?>
<!-- Generator: flash2svg, http://dissentgraphics.com/tools/flash2svg -->

<svg
   xmlns:dc="http://purl.org/dc/elements/1.1/"
   xmlns:cc="http://creativecommons.org/ns#"
   xmlns:rdf="http://www.w3.org/1999/02/22-rdf-syntax-ns#"
   xmlns:svg="http://www.w3.org/2000/svg"
   xmlns="http://www.w3.org/2000/svg"
   xmlns:xlink="http://www.w3.org/1999/xlink"
   xmlns:sodipodi="http://sodipodi.sourceforge.net/DTD/sodipodi-0.dtd"
   xmlns:inkscape="http://www.inkscape.org/namespaces/inkscape"
   id="AvatarAssets"
   image-rendering="auto"
   version="1.1"
   x="0px"
   y="0px"
   width="12.109906"
   height="16.54808"
   viewBox="0 0 12.109906 16.54808"
   inkscape:version="0.48.4 r9939"
   sodipodi:docname="AvatarAssets_backPantsLegLowerLeftA004.svg">
  <metadata
     id="metadata50">
    <rdf:RDF>
      <cc:Work
         rdf:about="">
        <dc:format>image/svg+xml</dc:format>
        <dc:type
           rdf:resource="http://purl.org/dc/dcmitype/StillImage" />
      </cc:Work>
    </rdf:RDF>
  </metadata>
  <sodipodi:namedview
     pagecolor="#ffffff"
     bordercolor="#666666"
     borderopacity="1"
     objecttolerance="10"
     gridtolerance="10"
     guidetolerance="10"
     inkscape:pageopacity="0"
     inkscape:pageshadow="2"
     inkscape:window-width="640"
     inkscape:window-height="480"
     id="namedview48"
     showgrid="false"
     fit-margin-top="0"
     fit-margin-left="0"
     fit-margin-right="0"
     fit-margin-bottom="0"
     inkscape:zoom="1.9032258"
     inkscape:cx="35.188169"
     inkscape:cy="-46.882998"
     inkscape:window-x="0"
     inkscape:window-y="0"
     inkscape:window-maximized="0"
     inkscape:current-layer="AvatarAssets" />
  <defs
     id="defs3">
    <pattern
       id="bitmap"
       patternContentUnits="userSpaceOnUse"
       patternUnits="userSpaceOnUse"
       width="200"
       height="200"
       viewBox="0 0 200 200"
       patternTransform="matrix(1 0 0 1 -67.399 2.2)">
      <symbol
         id="Denim_Texture_navy_symbol"
         viewBox="0 0 200 200">
        <image
           sodipodi:absref="C:\Users\Training\Documents\GitHub\Glitchen-Avatar-Engine\glitch-avatars-svg\base_avatar\AvatarAssets.fla\clothing\back\Denim_Texture_navy"
           xlink:href="Denim_Texture_navy"
           height="200"
           width="200"
           id="Denim_Texture_navy" />
      </symbol>
      <use
         id="Denim_Texture_navy_use"
         width="200"
         height="200"
         y="0"
         x="0"
         xlink:href="#Denim_Texture_navy_symbol"
         externalResourcesRequired="true" />
    </pattern>
    <pattern
       id="bitmap1"
       patternContentUnits="userSpaceOnUse"
       patternUnits="userSpaceOnUse"
       width="200"
       height="200"
       viewBox="0 0 200 200"
       patternTransform="matrix(1 0 0 1 -65.149 8.55)">
      <symbol
         id="Denim_Texture_navy_symbol1"
         viewBox="0 0 200 200">
        <image
           sodipodi:absref="C:\Users\Training\Documents\GitHub\Glitchen-Avatar-Engine\glitch-avatars-svg\base_avatar\AvatarAssets.fla\clothing\back\Denim_Texture_navy"
           xlink:href="Denim_Texture_navy"
           height="200"
           width="200"
           id="Denim_Texture_navy1" />
      </symbol>
      <use
         id="Denim_Texture_navy_use1"
         width="200"
         height="200"
         y="0"
         x="0"
         xlink:href="#Denim_Texture_navy_symbol1"
         externalResourcesRequired="true" />
    </pattern>
    <pattern
       id="bitmap2"
       patternContentUnits="userSpaceOnUse"
       patternUnits="userSpaceOnUse"
       width="200"
       height="200"
       viewBox="0 0 200 200"
       patternTransform="matrix(1.0341796875 0 0 1 -101.299 -95.199)">
      <symbol
         id="symbol14"
         viewBox="0 0 200 200">
        <image
           sodipodi:absref="C:\Users\Training\Documents\GitHub\Glitchen-Avatar-Engine\glitch-avatars-svg\base_avatar\AvatarAssets.fla\clothing\back\Denim_Texture_navy"
           xlink:href="Denim_Texture_navy"
           height="200"
           width="200"
           id="image16" />
      </symbol>
      <use
         id="use18"
         width="200"
         height="200"
         y="0"
         x="0"
         xlink:href="#Denim_Texture_navy_symbol"
         externalResourcesRequired="true" />
    </pattern>
    <pattern
       id="bitmap3"
       patternContentUnits="userSpaceOnUse"
       patternUnits="userSpaceOnUse"
       width="200"
       height="200"
       viewBox="0 0 200 200"
       patternTransform="matrix(1.0341796875 0 0 1 -98.999 -88.849)">
      <symbol
         id="symbol21"
         viewBox="0 0 200 200">
        <image
           sodipodi:absref="C:\Users\Training\Documents\GitHub\Glitchen-Avatar-Engine\glitch-avatars-svg\base_avatar\AvatarAssets.fla\clothing\back\Denim_Texture_navy"
           xlink:href="Denim_Texture_navy"
           height="200"
           width="200"
           id="image23" />
      </symbol>
      <use
         id="use25"
         width="200"
         height="200"
         y="0"
         x="0"
         xlink:href="#Denim_Texture_navy_symbol1"
         externalResourcesRequired="true" />
    </pattern>
  </defs>
  <g
     id="backPantsLegLowerLeftA5"
     overflow="visible"
     style="overflow:visible"
     transform="translate(3.1881695,1.4310792)">
    <g
       id="backPantsLegLowerLeftA004_0">
      <g
         id="element">
        <g
           id="group1">
          <g
             id="drawingObject">
            <path
               id="path"
               d="m -0.105,-1.299 c -1.551,0.35 -2.637,0.6 -2.999,2.5 -0.362,1.85 0.517,4.5 1.241,6.7 0.362,1 0.879,2.1 1.551,3.1 0.414,-0.5 0.879,-0.95 1.448,-1.3 l 0.362,-0.35 c 0.362,-0.4 0.776,-0.75 1.293,-0.95 1.034,-0.5 1.861,-0.8 3.051,-0.8 0.465,0 0.93,0.05 1.396,0.15 -0.155,-0.95 -0.414,-1.75 -0.569,-2.05 -0.362,-0.8 -2.172,-5.55 -2.844,-6.1 -0.62,-0.55 -1.913,-1.35 -3.93,-0.9 z"
               inkscape:connector-curvature="0"
               style="fill:url(#bitmap2)" />
          </g>
          <g
             id="drawingObject1">
            <path
               id="path1"
               d="m 0.309,10.101 0.103,0.15 0.311,-0.25 -0.466,-0.6 c -0.775,-1.3 -0.62,-1.6 -1.034,-2.7 -0.362,-1.15 -0.724,-2 -0.724,-2.7 l -0.052,-1.25 c 0,0 -0.051,2.15 0.517,4.05 0.569,1.95 0.673,2.45 1.345,3.3 z"
               inkscape:connector-curvature="0"
               style="fill:#000000;fill-opacity:0.2" />
          </g>
          <g
             id="drawingObject2">
            <path
               id="path2"
               d="m -1.553,-0.899 c 0.828,0.05 1.758,0.45 2.482,0.9 0.828,0.5 2.12,2.75 2.12,3.5 q 0,0.25 -0.206,0.9 -0.156,0.45 0.103,0.8 c 0.362,0.6 0.879,0.65 1.086,1.3 0.103,0.25 0.155,0.75 0.155,1.35 0.517,-0.15 1.034,-0.25 1.655,-0.25 0.465,0 0.93,0.05 1.396,0.15 -0.155,-0.95 -0.414,-1.75 -0.569,-2.05 -0.362,-0.8 -2.172,-5.55 -2.844,-6.1 -0.62,-0.55 -1.913,-1.35 -3.93,-0.9 l -1.448,0.4 z"
               inkscape:connector-curvature="0"
               style="fill:#000000;fill-opacity:0.2" />
          </g>
          <g
             id="drawingObject3">
            <path
               id="path3"
               d="m -1.294,3.501 0.62,2.95 q 0.569,2.35 1.345,3.25 l 0.155,0.2 0.103,-0.05 c -0.31,-0.7 -1.034,-2.4 -1.447,-3.85 l -0.828,-2.9 0.052,0.4 z"
               inkscape:connector-curvature="0"
               style="fill:#ffffff;fill-opacity:0.2" />
          </g>
        </g>
        <g
           id="group2">
          <g
             id="drawingObject4">
            <path
               id="path4"
               d="m 2.687,7.551 c -2.068,0.9 -2.688,2.9 -2.688,2.9 l 0.672,0.6 3.568,-2.4 c 0,0 3.878,-0.95 2.947,-1.45 -0.879,-0.5 -2.43,-0.6 -4.499,0.35 z"
               inkscape:connector-curvature="0"
               style="fill:#dae2e9;fill-opacity:0.25099996" />
          </g>
          <g
             id="drawingObject5">
            <path
               id="path5"
               d="m 8.117,7.701 q -0.465,-0.5 -2.12,-0.65 c -1.034,-0.1 -3.62,0.75 -4.292,1.3 -0.621,0.55 -1.293,1.2 -1.603,1.6 -0.259,0.45 -0.517,1.5 -0.103,2.3 0.362,0.8 0.465,1.65 0.465,1.95 0,0.35 0.517,1.15 0.517,0.85 0,-0.3 1.189,-3.85 2.172,-4.65 1.706,-1.45 3.671,-1.4 4.447,-1.45 0.724,-0.1 1.189,0.5 1.189,0.5 0,0 0.207,0 0.104,-0.45 l -0.776,-1.3 z"
               inkscape:connector-curvature="0"
               style="fill:url(#bitmap3)" />
          </g>
          <g
             id="drawingObject6">
            <path
               id="path6"
               d="M 8.117,7.701 C 7.652,7.201 7.031,7.151 5.997,7.051 5.221,7.001 3.67,7.451 2.584,7.851 l 0.362,0 c 1.293,-0.05 0.31,0.5 -1.138,1.55 -1.396,1.05 -0.362,0.8 0.362,0.4 0.673,-0.45 2.586,-1.15 2.224,-0.9 -0.31,0.25 -1.913,1.2 -2.586,2.9 q -0.31,0.75 -0.517,2.1 c 0.466,-1.2 1.19,-2.95 1.862,-3.5 1.706,-1.45 3.671,-1.4 4.447,-1.45 0.724,-0.1 1.189,0.5 1.189,0.5 0,0 0.207,0 0.104,-0.45 l -0.776,-1.3 z"
               inkscape:connector-curvature="0"
               style="fill:#000000;fill-opacity:0.2" />
          </g>
          <g
             id="drawingObject7">
            <path
               id="path7"
               d="m 8.789,9.451 c 0,0 0.104,-0.05 0.104,-0.25 Q 8.686,8.651 7.91,8.401 c -0.414,-0.1 -0.827,-0.85 -1.344,-0.8 -0.517,0.05 -1.035,0.7 -0.724,1 0.155,0.15 0.051,0.35 -0.104,0.55 0.776,-0.15 1.448,-0.2 1.862,-0.2 0.724,-0.1 1.189,0.5 1.189,0.5 z"
               inkscape:connector-curvature="0"
               style="fill:#000000;fill-opacity:0.2" />
          </g>
        </g>
      </g>
    </g>
  </g>
</svg>
