<?xml version="1.0" encoding="UTF-8" standalone="no"?>
<!-- Generator: flash2svg, http://dissentgraphics.com/tools/flash2svg -->

<svg
   xmlns:dc="http://purl.org/dc/elements/1.1/"
   xmlns:cc="http://creativecommons.org/ns#"
   xmlns:rdf="http://www.w3.org/1999/02/22-rdf-syntax-ns#"
   xmlns:svg="http://www.w3.org/2000/svg"
   xmlns="http://www.w3.org/2000/svg"
   xmlns:sodipodi="http://sodipodi.sourceforge.net/DTD/sodipodi-0.dtd"
   xmlns:inkscape="http://www.inkscape.org/namespaces/inkscape"
   id="AvatarAssets"
   image-rendering="auto"
   version="1.1"
   x="0px"
   y="0px"
   width="9.7875004"
   height="9.1372166"
   viewBox="0 0 9.7875004 9.1372166"
   inkscape:version="0.48.4 r9939"
   sodipodi:docname="AvatarAssets_backPantsLegUpperLeft20101122Color_1.svg">
  <metadata
     id="metadata11">
    <rdf:RDF>
      <cc:Work
         rdf:about="">
        <dc:format>image/svg+xml</dc:format>
        <dc:type
           rdf:resource="http://purl.org/dc/dcmitype/StillImage" />
      </cc:Work>
    </rdf:RDF>
  </metadata>
  <sodipodi:namedview
     pagecolor="#ffffff"
     bordercolor="#666666"
     borderopacity="1"
     objecttolerance="10"
     gridtolerance="10"
     guidetolerance="10"
     inkscape:pageopacity="0"
     inkscape:pageshadow="2"
     inkscape:window-width="640"
     inkscape:window-height="480"
     id="namedview9"
     showgrid="false"
     fit-margin-top="0"
     fit-margin-left="0"
     fit-margin-right="0"
     fit-margin-bottom="0"
     inkscape:zoom="1.9032258"
     inkscape:cx="36.8"
     inkscape:cy="-57.362783"
     inkscape:window-x="0"
     inkscape:window-y="0"
     inkscape:window-maximized="0"
     inkscape:current-layer="AvatarAssets" />
  <defs
     id="defs3" />
  <g
     id="backPantsLegUpperLeft20101122Color_2"
     overflow="visible"
     style="overflow:visible"
     transform="translate(4.8,4.5)">
    <g
       id="backPantsLegUpperLeft20101122Color_1_0">
      <g
         id="element">
        <path
           id="path"
           d="M 4.8,-0.1 C 4.85,-0.25 4.85,-0.4 4.85,-0.55 4.9,-0.75 4.9,-0.95 4.95,-1.2 5,-1.8 5,-2.4 4.95,-3.05 4.8,-3.1 4.7,-3.2 4.65,-3.25 4.55,-3.3 4.45,-3.35 4.2,-3.45 4.25,-3.45 4.1,-3.5 4,-3.5 3.75,-3.55 3,-3.75 1.8,-4 0.85,-4.15 0,-4.3 -0.65,-4.35 c -0.5,-0.05 -0.9,-0.1 -1.25,-0.15 0.05,0 -0.1,0 -0.25,0 -1.75,0.1 -2.45,0.2 -2.55,0.4 -0.05,0 -0.05,0 -0.1,0.05 l 0.15,2.75 c 0,0.05 0,0.05 0,0.1 0,0.05 0,0.15 0,0.2 0,0.4 0.05,0.85 0.1,1.25 0.05,0.4 0.15,0.8 0.3,1.2 l 0.2,0.45 c 0.05,0.15 0.15,0.35 0.25,0.5 0.35,0.55 0.75,1.05 1.25,1.4 0.6,0.4 1.3,0.65 2.15,0.75 C 0.65,4.7 1.5,4.65 2.2,4.45 2.65,4.3 3,4.1 3.3,3.8 3.45,3.7 3.55,3.55 3.65,3.4 3.95,3 4.15,2.5 4.35,1.9 Q 4.45,1.55 4.55,1.2 C 4.65,0.8 4.75,0.35 4.8,-0.1 z m -8.05,-2.1 0.3,-0.05 0.25,0 -0.45,0.05 -0.1,0 z m -0.8,0.05 0.2,0 -0.2,0.05 -0.4,0.05 -0.05,0 0.35,-0.05 0.1,-0.05 z"
           inkscape:connector-curvature="0"
           style="fill:#edede4" />
      </g>
    </g>
  </g>
</svg>
