<?xml version="1.0" encoding="UTF-8" standalone="no"?>
<!-- Generator: flash2svg, http://dissentgraphics.com/tools/flash2svg -->

<svg
   xmlns:dc="http://purl.org/dc/elements/1.1/"
   xmlns:cc="http://creativecommons.org/ns#"
   xmlns:rdf="http://www.w3.org/1999/02/22-rdf-syntax-ns#"
   xmlns:svg="http://www.w3.org/2000/svg"
   xmlns="http://www.w3.org/2000/svg"
   xmlns:sodipodi="http://sodipodi.sourceforge.net/DTD/sodipodi-0.dtd"
   xmlns:inkscape="http://www.inkscape.org/namespaces/inkscape"
   id="AvatarAssets"
   image-rendering="auto"
   version="1.1"
   x="0px"
   y="0px"
   width="10.070711"
   height="13.15"
   viewBox="0 0 10.070711 13.15"
   inkscape:version="0.48.4 r9939"
   sodipodi:docname="AvatarAssets_backPantsLegLowerLeft20101122Color_2.svg">
  <metadata
     id="metadata11">
    <rdf:RDF>
      <cc:Work
         rdf:about="">
        <dc:format>image/svg+xml</dc:format>
        <dc:type
           rdf:resource="http://purl.org/dc/dcmitype/StillImage" />
      </cc:Work>
    </rdf:RDF>
  </metadata>
  <sodipodi:namedview
     pagecolor="#ffffff"
     bordercolor="#666666"
     borderopacity="1"
     objecttolerance="10"
     gridtolerance="10"
     guidetolerance="10"
     inkscape:pageopacity="0"
     inkscape:pageshadow="2"
     inkscape:window-width="640"
     inkscape:window-height="480"
     id="namedview9"
     showgrid="false"
     fit-margin-top="0"
     fit-margin-left="0"
     fit-margin-right="0"
     fit-margin-bottom="0"
     inkscape:zoom="1.9032258"
     inkscape:cx="36.970711"
     inkscape:cy="-55.35"
     inkscape:window-x="0"
     inkscape:window-y="0"
     inkscape:window-maximized="0"
     inkscape:current-layer="AvatarAssets" />
  <defs
     id="defs3" />
  <g
     id="backPantsLegLowerLeft20101122Color_3"
     overflow="visible"
     style="overflow:visible"
     transform="translate(4.9707107,6.5)">
    <g
       id="backPantsLegLowerLeft20101122Color_2_0">
      <g
         id="element">
        <path
           id="path"
           d="M 0.75,-6.3 0.2,-6.45 C 0,-6.5 -0.2,-6.5 -0.4,-6.45 l -0.4,-0.05 0,0.05 c -0.5,0 -1.05,0.05 -1.6,0.1 -0.35,0.05 -0.65,0.1 -0.9,0.15 l 0,-0.05 -0.2,0.1 c -0.05,0 -0.05,0 -0.1,0 -0.55,0.15 -1,0.35 -1.15,0.6 l 0,0.05 -0.2,1 0,0.6 c -0.05,0.25 0,0.55 0.05,0.85 0.05,0.1 0.05,0.25 0.1,0.4 0,0.05 0,0.1 0,0.15 l 0.9,-1 c 0.35,-0.3 0.8,-0.65 1.45,-1.05 0.6,-0.4 1.15,-0.7 1.7,-0.85 0.5,-0.2 1.35,-0.15 2.6,0.1 L 2,-5.25 C 1.65,-5.75 1.25,-6.1 0.75,-6.3 z m 2.5,5.95 c 0.5,0.05 0.85,0.1 1,0.15 l 0,-0.1 L 4.1,-0.7 C 4,-1.05 3.9,-1.35 3.75,-1.65 c -1,-0.3 -2.35,-0.3 -3.65,0.4 l -0.35,0.2 -0.3,0.3 -0.35,0.25 -0.15,0.2 -0.15,0.15 -0.15,0.2 -0.15,0.15 -0.15,0.25 -0.1,0.1 -0.1,0.2 L -2.05,1 C -2.2,1.15 -2.3,1.35 -2.35,1.5 l -0.05,0 -0.3,0.65 -0.2,0.25 -0.05,0.2 -0.1,0.1 -0.05,0.25 -0.15,0.2 0,0.05 -0.05,0.1 0,0.1 c 0.25,0.7 0.55,1.3 0.95,1.8 0,-0.2 0.05,-0.65 0.25,-1.45 L -1.9,3.2 -1.8,3.1 -1.15,1.9 -0.7,1.3 -0.6,1.2 C -0.15,0.7 0.4,0.25 1,0 2,-0.3 2.75,-0.4 3.25,-0.35 z M 3.05,-3.15 2.5,-4.4 c -0.7,-0.15 -1.65,-0.25 -2.85,0 -0.4,0.05 -0.8,0.2 -1.15,0.45 l -0.45,0.35 c -0.05,0.05 -0.1,0.05 -0.15,0.1 l -0.05,0 c -0.45,0.4 -0.85,0.9 -1.2,1.35 l 0,0.1 -0.05,-0.05 0,0.05 -0.15,0.2 -0.05,0 -0.6,0.9 0,0.05 -0.2,0.3 0,0.05 0.4,1.65 0,0.15 0.05,-0.05 0.25,-0.7 0.05,-0.1 0.1,-0.15 0.1,-0.2 0.6,-0.9 0.05,-0.1 1.2,-1.2 0.5,-0.35 c 0.5,-0.3 1,-0.55 1.5,-0.6 0.95,-0.15 1.9,-0.1 2.65,-0.05 z M 4.7,1.35 C 4.55,1.3 4.35,1.3 4.2,1.25 L 2.4,1.45 C 2.15,1.5 1.85,1.6 1.55,1.7 L 0.9,2 0.85,2 c -1.45,0.9 -2.4,2.75 -2.8,3.7 0.15,0.15 0.3,0.25 0.45,0.4 l 0.1,0.1 C -1.2,6.35 -1,6.5 -0.75,6.65 -0.4,5.7 0.35,4.8 1.5,3.95 1.55,3.9 1.6,3.9 1.65,3.85 1.7,3.8 1.75,3.8 1.8,3.8 1.85,3.75 1.9,3.75 1.95,3.7 L 3.5,3 C 3.95,2.9 4.4,2.9 4.8,3.05 L 5.1,3.15 5.05,2.9 C 5.05,2.85 5.05,2.75 5,2.7 5,2.7 4.85,2 4.85,2 L 4.7,1.35 z"
           inkscape:connector-curvature="0"
           style="fill:#3d3d3b" />
      </g>
    </g>
  </g>
</svg>
