<?xml version="1.0" encoding="UTF-8" standalone="no"?>
<!-- Generator: flash2svg, http://dissentgraphics.com/tools/flash2svg -->

<svg
   xmlns:dc="http://purl.org/dc/elements/1.1/"
   xmlns:cc="http://creativecommons.org/ns#"
   xmlns:rdf="http://www.w3.org/1999/02/22-rdf-syntax-ns#"
   xmlns:svg="http://www.w3.org/2000/svg"
   xmlns="http://www.w3.org/2000/svg"
   xmlns:sodipodi="http://sodipodi.sourceforge.net/DTD/sodipodi-0.dtd"
   xmlns:inkscape="http://www.inkscape.org/namespaces/inkscape"
   id="AvatarAssets"
   image-rendering="auto"
   version="1.1"
   x="0px"
   y="0px"
   width="13.308921"
   height="12.699593"
   viewBox="0 0 13.308921 12.699593"
   inkscape:version="0.48.4 r9939"
   sodipodi:docname="AvatarAssets_backSockLeftC004b.svg">
  <metadata
     id="metadata3352">
    <rdf:RDF>
      <cc:Work
         rdf:about="">
        <dc:format>image/svg+xml</dc:format>
        <dc:type
           rdf:resource="http://purl.org/dc/dcmitype/StillImage" />
      </cc:Work>
    </rdf:RDF>
  </metadata>
  <sodipodi:namedview
     pagecolor="#ffffff"
     bordercolor="#666666"
     borderopacity="1"
     objecttolerance="10"
     gridtolerance="10"
     guidetolerance="10"
     inkscape:pageopacity="0"
     inkscape:pageshadow="2"
     inkscape:window-width="640"
     inkscape:window-height="480"
     id="namedview3350"
     showgrid="false"
     fit-margin-top="0"
     fit-margin-left="0"
     fit-margin-right="0"
     fit-margin-bottom="0"
     inkscape:zoom="1.9032258"
     inkscape:cx="40.100305"
     inkscape:cy="-51.799407"
     inkscape:window-x="0"
     inkscape:window-y="0"
     inkscape:window-maximized="0"
     inkscape:current-layer="AvatarAssets" />
  <defs
     id="defs3335" />
  <g
     id="backSockLeftC004b1"
     overflow="visible"
     style="overflow:visible"
     transform="translate(8.1003049,2.499)">
    <g
       id="backSockLeftC004b_0">
      <g
         id="element">
        <g
           id="drawingObject">
          <path
             id="path"
             d="m -2.849,0.851 c -0.35,0.65 -0.7,1.4 -1,2.2 0,0 0.5,0.5 -0.8,0.75 -1.35,0.25 -3.35,2.5 -3.45,3.9 -0.05,1.45 1.35,2 1.95,2.35 0.55,0.35 2.75,0.1 4.05,-0.9 1.35,-1 5.2,-4.1 6.6,-5.75 1.4,-1.7 0.4,-3.35 -0.25,-4.45 l -1,-1.45 c -0.25,0.05 -0.9,0.1 -1.9,0.15 -1,0.05 -1.85,0.4 -2.55,1.15 -0.75,0.7 -1.3,1.4 -1.65,2.05 z"
             inkscape:connector-curvature="0"
             style="fill:#ddcdb8" />
        </g>
        <g
           id="group1">
          <g
             id="drawingObject1">
            <path
               id="path1"
               d="m -4.199,4.201 -0.15,-0.5 -0.3,0.1 c -1.35,0.25 -3.35,2.5 -3.45,3.9 -0.05,1.45 1.35,2 1.95,2.35 0.45,0.25 1.85,0.15 3.05,-0.35 l -1.15,-1.4 q -0.95,-1.1 -0.55,-2.7 l 0.6,-1.4 z"
               inkscape:connector-curvature="0"
               style="fill:#3c372e" />
          </g>
          <g
             id="drawingObject2">
            <path
               id="path2"
               d="m 3.201,4.701 1.3,-1.3 q 1.2,-1.45 0.35,-3.3 c -2.4,-0.9 -4.45,2.1 -4.45,2.1 l 1.35,-1.4 -1.35,1.4 -0.05,0.5 0.05,-0.5 c 0,0 -0.4,0.75 0.6,1.85 0.5,0.55 1.45,0.65 2.2,0.65 z"
               inkscape:connector-curvature="0"
               style="fill:#3c372e" />
          </g>
        </g>
        <g
           id="group2">
          <g
             id="drawingObject3">
            <path
               id="path3"
               d="m -8.099,7.701 c -0.05,1.45 1.35,2 1.95,2.35 0.55,0.35 2.75,0.1 4.05,-0.9 1.35,-1 5.2,-4.1 6.6,-5.75 0.3,-0.4 0.5,-0.75 0.6,-1.1 l -0.7,-0.4 q -0.85,-0.65 -4.65,2.55 c -1.65,1.45 -3.4,3.1 -5.85,3.1 -0.95,0 -1.5,-0.2 -1.8,-0.55 l -0.2,0.7 z"
               inkscape:connector-curvature="0"
               style="fill:#000000;fill-opacity:0.25099996" />
          </g>
        </g>
      </g>
    </g>
  </g>
</svg>
