<?xml version="1.0" encoding="UTF-8" standalone="no"?>
<!-- Generator: flash2svg, http://dissentgraphics.com/tools/flash2svg -->

<svg
   xmlns:dc="http://purl.org/dc/elements/1.1/"
   xmlns:cc="http://creativecommons.org/ns#"
   xmlns:rdf="http://www.w3.org/1999/02/22-rdf-syntax-ns#"
   xmlns:svg="http://www.w3.org/2000/svg"
   xmlns="http://www.w3.org/2000/svg"
   xmlns:sodipodi="http://sodipodi.sourceforge.net/DTD/sodipodi-0.dtd"
   xmlns:inkscape="http://www.inkscape.org/namespaces/inkscape"
   id="AvatarAssets"
   image-rendering="auto"
   version="1.1"
   x="0px"
   y="0px"
   width="12.078766"
   height="16.09"
   viewBox="0 0 12.078766 16.09"
   inkscape:version="0.48.4 r9939"
   sodipodi:docname="AvatarAssets_backPantsLegUpperLeftA005.svg">
  <metadata
     id="metadata3048">
    <rdf:RDF>
      <cc:Work
         rdf:about="">
        <dc:format>image/svg+xml</dc:format>
        <dc:type
           rdf:resource="http://purl.org/dc/dcmitype/StillImage" />
      </cc:Work>
    </rdf:RDF>
  </metadata>
  <sodipodi:namedview
     pagecolor="#ffffff"
     bordercolor="#666666"
     borderopacity="1"
     objecttolerance="10"
     gridtolerance="10"
     guidetolerance="10"
     inkscape:pageopacity="0"
     inkscape:pageshadow="2"
     inkscape:window-width="640"
     inkscape:window-height="480"
     id="namedview3046"
     showgrid="false"
     fit-margin-top="0"
     fit-margin-left="0"
     fit-margin-right="0"
     fit-margin-bottom="0"
     inkscape:zoom="1.9032258"
     inkscape:cx="37.30818"
     inkscape:cy="-48.949"
     inkscape:window-x="0"
     inkscape:window-y="0"
     inkscape:window-maximized="0"
     inkscape:current-layer="AvatarAssets" />
  <defs
     id="defs3033" />
  <g
     id="backPantsLegUpperLeftA6"
     overflow="visible"
     style="overflow:visible"
     transform="translate(5.3081797,3.039)">
    <g
       id="backPantsLegUpperLeftA005_0">
      <g
         id="element">
        <g
           id="drawingObject">
          <path
             id="path"
             d="m -4.249,10.701 c 0.1,0.75 0.25,1.1 0.25,1.1 l 0.7,0.65 1.55,-2.4 0.55,0.35 -0.55,-0.35 c 0,0 1.1,0.65 1.2,0.9 0.05,0.25 -0.2,0.7 0.05,0.25 l 1.45,-1.5 1.5,1.4 0.55,-1.25 1.1,1.35 c 0,0 0.35,-2.25 0.35,-3.25 0,-1 -6.85,-0.9 -7.35,-0.15 q -1.4,2.15 -1.35,2.9 z"
             inkscape:connector-curvature="0"
             style="fill:#000000;fill-opacity:0.29800002" />
        </g>
        <g
           id="drawingObject1">
          <path
             id="path1"
             d="m 5.451,8.701 c 0.4,-1.1 1.8,-5.65 1.15,-7.6 -0.65,-1.9 -3,-3.9 -4.75,-4.05 q -1.4,-0.15 -2.1,-0.05 -1.3,0.25 -2.3,1.45 c -1.5,1.85 -2.7,5 -2.75,6.9 -0.1,1.95 0.65,5.2 0.65,6 0,0.85 0.1,1.7 0.1,1.7 l 0.65,-2.7 0.6,1.6 c 0,0 0.9,-2 0.9,-2.35 l 0,-0.3 0.65,0.2 -0.65,-0.2 c 0,0 1.25,0.3 1.5,0.55 l 0.25,0.25 1.25,-1.4 0.4,-0.25 1.2,1.85 0.8,-1.25 1,1.55 0.1,0.25 0.25,-0.75 0.15,0.45 -0.15,-0.45 c 0,0 0.15,0.85 0.6,1.2 l 0.4,0.3 c 0,0 -0.35,-1.8 0.1,-2.9 z"
             inkscape:connector-curvature="0"
             style="fill:#ab4d16" />
        </g>
        <g
           id="drawingObject2">
          <path
             id="path2"
             d="m 5.451,8.701 c 0.4,-1.1 1.8,-5.65 1.15,-7.6 q -0.6,-1.65 -2.35,-2.95 c -3.65,-1.2 -5.75,3.2 -5.9,4.4 -0.15,1.25 0,1.5 0,2.25 l -0.05,-0.95 0.05,0.95 c 0,0.75 -0.6,0.9 -0.9,1.25 -0.15,0.15 -0.4,0.2 -0.6,0.2 -0.1,-0.75 -0.1,-1.8 0,-3.05 0.25,-2.75 1.6,-4.15 1.6,-4.15 0,0 -1.6,1.3 -2,4.75 l -0.6,4.55 c -0.15,1.45 -0.3,1.55 -0.6,2.3 l 0.1,0.7 c 0,0.85 0.1,1.7 0.1,1.7 l 0.65,-2.7 0.6,1.6 c 0,0 0.9,-2 0.9,-2.35 l 0,-0.3 0.65,0.2 -0.65,-0.2 c 0,0 1.25,0.3 1.5,0.55 l 0.25,0.25 1.25,-1.4 0.4,-0.25 1.2,1.85 0.8,-1.25 1,1.55 0.1,0.25 0.25,-0.75 0.15,0.45 -0.15,-0.45 c 0,0 0.15,0.85 0.6,1.2 l 0.4,0.3 c 0,0 -0.35,-1.8 0.1,-2.9 z"
             inkscape:connector-curvature="0"
             style="fill:#964313" />
        </g>
        <g
           id="drawingObject3">
          <path
             id="path3"
             d="m 5.451,8.701 c 0.25,-0.7 0.9,-2.8 1.2,-4.7 l -0.15,-0.9 c -0.55,-4.55 -2.75,-2.25 -2.8,-0.8 -0.1,1.4 -1.6,1.9 -1.6,1.9 l 0.7,0.2 -0.7,-0.2 c 0,0 1.35,0.25 1.65,0.75 0.35,0.5 -2.05,0.85 -3.25,0.9 -1.15,0.1 -0.9,0.25 -1.3,1.35 -0.45,1.1 -0.85,1.75 -0.85,1.75 0,0 0.9,0.15 1.25,0 0.35,-0.15 1.5,-1 1.5,-1 l 0.5,0.3 -0.5,-0.3 c 0,0 1,0.35 1.15,1.15 0.2,0.85 0.7,-1.05 1.35,-0.15 l -0.15,0.7 0.55,0.95 0.1,0.25 0.25,-0.75 0.15,0.45 -0.15,-0.45 c 0,0 0.15,0.85 0.6,1.2 l 0.4,0.3 c 0,0 -0.35,-1.8 0.1,-2.9 z"
             inkscape:connector-curvature="0"
             style="fill:#823a10" />
        </g>
      </g>
    </g>
  </g>
</svg>
