<?xml version="1.0" encoding="UTF-8" standalone="no"?>
<!-- Generator: flash2svg, http://dissentgraphics.com/tools/flash2svg -->

<svg
   xmlns:dc="http://purl.org/dc/elements/1.1/"
   xmlns:cc="http://creativecommons.org/ns#"
   xmlns:rdf="http://www.w3.org/1999/02/22-rdf-syntax-ns#"
   xmlns:svg="http://www.w3.org/2000/svg"
   xmlns="http://www.w3.org/2000/svg"
   xmlns:sodipodi="http://sodipodi.sourceforge.net/DTD/sodipodi-0.dtd"
   xmlns:inkscape="http://www.inkscape.org/namespaces/inkscape"
   id="AvatarAssets"
   image-rendering="auto"
   version="1.1"
   x="0px"
   y="0px"
   width="10.070711"
   height="13.15"
   viewBox="0 0 10.070711 13.15"
   inkscape:version="0.48.4 r9939"
   sodipodi:docname="AvatarAssets_backPantsLegLowerLeft20101122.svg">
  <metadata
     id="metadata22">
    <rdf:RDF>
      <cc:Work
         rdf:about="">
        <dc:format>image/svg+xml</dc:format>
        <dc:type
           rdf:resource="http://purl.org/dc/dcmitype/StillImage" />
      </cc:Work>
    </rdf:RDF>
  </metadata>
  <sodipodi:namedview
     pagecolor="#ffffff"
     bordercolor="#666666"
     borderopacity="1"
     objecttolerance="10"
     gridtolerance="10"
     guidetolerance="10"
     inkscape:pageopacity="0"
     inkscape:pageshadow="2"
     inkscape:window-width="640"
     inkscape:window-height="480"
     id="namedview20"
     showgrid="false"
     fit-margin-top="0"
     fit-margin-left="0"
     fit-margin-right="0"
     fit-margin-bottom="0"
     inkscape:zoom="1.9032258"
     inkscape:cx="34.920711"
     inkscape:cy="-49.75"
     inkscape:window-x="0"
     inkscape:window-y="0"
     inkscape:window-maximized="0"
     inkscape:current-layer="AvatarAssets" />
  <defs
     id="defs3" />
  <g
     id="backPantsLegLowerLeft20101123"
     overflow="visible"
     style="overflow:visible"
     transform="translate(2.9207107,0.9)">
    <g
       id="backPantsLegLowerLeft20101122_2_0">
      <g
         id="element2"
         overflow="visible"
         style="overflow:visible">
        <g
           id="backPantsLegLowerLeft20101122Color_4_0">
          <g
             id="element4">
            <path
               id="path11"
               d="M 4.2,0.5 C 3.85,-0.1 3.35,-0.5 2.8,-0.7 L 2.25,-0.85 c -0.2,-0.05 -0.4,-0.05 -0.6,0 l -0.4,-0.05 0,0.05 c -0.5,0 -1.05,0.05 -1.6,0.1 -0.35,0.05 -0.65,0.1 -0.9,0.15 l 0,-0.05 -0.2,0.1 c -0.05,0 -0.05,0 -0.1,0 -0.55,0.15 -1,0.35 -1.15,0.6 l 0,0.05 -0.2,1 0,0.6 c -0.05,0.25 0,0.55 0.05,0.85 0.05,0.1 0.05,0.25 0.1,0.4 0,0.05 0,0.1 0,0.15 0.05,0.1 0.05,0.2 0.1,0.35 0,0.1 0,0.25 0.05,0.4 l 0.65,2.85 0,0.15 c 0.2,0.75 0.4,1.5 0.7,2.15 0.25,0.7 0.55,1.3 0.95,1.8 l 0.4,0.5 c 0.15,0.15 0.3,0.25 0.45,0.4 l 0.1,0.1 c 0.2,0.15 0.4,0.3 0.65,0.45 C 1.65,11.3 2.4,10.4 3.55,9.55 3.6,9.5 3.65,9.5 3.7,9.45 3.75,9.4 3.8,9.4 3.85,9.4 3.9,9.35 3.95,9.35 4,9.3 L 5.55,8.6 C 6,8.5 6.45,8.5 6.85,8.65 L 7.15,8.75 7.1,8.5 C 7.1,8.45 7.1,8.35 7.05,8.3 7.05,8.3 6.9,7.6 6.9,7.6 L 6.65,6.55 C 6.6,6.25 6.5,5.95 6.3,5.35 L 6.3,5.3 6.15,4.9 C 6.05,4.55 5.95,4.25 5.8,3.95 5.65,3.65 5.55,3.35 5.4,3.05 4.9,1.8 4.5,0.95 4.2,0.5 z"
               inkscape:connector-curvature="0"
               style="fill:#edede4" />
          </g>
        </g>
      </g>
    </g>
    <g
       id="backPantsLegLowerLeft20101122_1_0">
      <g
         id="element1"
         overflow="visible"
         style="overflow:visible">
        <g
           id="backPantsLegLowerLeft20101122Color_2_0">
          <g
             id="element3">
            <path
               id="path4"
               d="M 2.8,-0.7 2.25,-0.85 c -0.2,-0.05 -0.4,-0.05 -0.6,0 l -0.4,-0.05 0,0.05 c -0.5,0 -1.05,0.05 -1.6,0.1 -0.35,0.05 -0.65,0.1 -0.9,0.15 l 0,-0.05 -0.2,0.1 c -0.05,0 -0.05,0 -0.1,0 -0.55,0.15 -1,0.35 -1.15,0.6 l 0,0.05 -0.2,1 0,0.6 c -0.05,0.25 0,0.55 0.05,0.85 0.05,0.1 0.05,0.25 0.1,0.4 0,0.05 0,0.1 0,0.15 l 0.9,-1 C -1.5,1.8 -1.05,1.45 -0.4,1.05 0.2,0.65 0.75,0.35 1.3,0.2 1.8,0 2.65,0.05 3.9,0.3 L 4.05,0.35 C 3.7,-0.15 3.3,-0.5 2.8,-0.7 z m 2.5,5.95 c 0.5,0.05 0.85,0.1 1,0.15 L 6.3,5.3 6.15,4.9 C 6.05,4.55 5.95,4.25 5.8,3.95 4.8,3.65 3.45,3.65 2.15,4.35 L 1.8,4.55 1.5,4.85 1.15,5.1 1,5.3 0.85,5.45 0.7,5.65 0.55,5.8 0.4,6.05 0.3,6.15 0.2,6.35 0,6.6 c -0.15,0.15 -0.25,0.35 -0.3,0.5 l -0.05,0 -0.3,0.65 L -0.85,8 -0.9,8.2 -1,8.3 l -0.05,0.25 -0.15,0.2 0,0.05 -0.05,0.1 0,0.1 c 0.25,0.7 0.55,1.3 0.95,1.8 0,-0.2 0.05,-0.65 0.25,-1.45 L 0.15,8.8 0.25,8.7 0.9,7.5 1.35,6.9 1.45,6.8 C 1.9,6.3 2.45,5.85 3.05,5.6 4.05,5.3 4.8,5.2 5.3,5.25 z M 5.1,2.45 4.55,1.2 C 3.85,1.05 2.9,0.95 1.7,1.2 1.3,1.25 0.9,1.4 0.55,1.65 L 0.1,2 C 0.05,2.05 0,2.05 -0.05,2.1 l -0.05,0 C -0.55,2.5 -0.95,3 -1.3,3.45 l 0,0.1 -0.05,-0.05 0,0.05 -0.15,0.2 -0.05,0 -0.6,0.9 0,0.05 -0.2,0.3 0,0.05 0.4,1.65 0,0.15 L -1.9,6.8 -1.65,6.1 -1.6,6 l 0.1,-0.15 0.1,-0.2 0.6,-0.9 0.05,-0.1 1.2,-1.2 0.5,-0.35 C 1.45,2.8 1.95,2.55 2.45,2.5 3.4,2.35 4.35,2.4 5.1,2.45 z m 1.65,4.5 C 6.6,6.9 6.4,6.9 6.25,6.85 l -1.8,0.2 C 4.2,7.1 3.9,7.2 3.6,7.3 L 2.95,7.6 2.9,7.6 c -1.45,0.9 -2.4,2.75 -2.8,3.7 0.15,0.15 0.3,0.25 0.45,0.4 l 0.1,0.1 c 0.2,0.15 0.4,0.3 0.65,0.45 C 1.65,11.3 2.4,10.4 3.55,9.55 3.6,9.5 3.65,9.5 3.7,9.45 3.75,9.4 3.8,9.4 3.85,9.4 3.9,9.35 3.95,9.35 4,9.3 L 5.55,8.6 C 6,8.5 6.45,8.5 6.85,8.65 L 7.15,8.75 7.1,8.5 C 7.1,8.45 7.1,8.35 7.05,8.3 7.05,8.3 6.9,7.6 6.9,7.6 L 6.75,6.95 z"
               inkscape:connector-curvature="0"
               style="fill:#3d3d3b" />
          </g>
        </g>
      </g>
    </g>
    <g
       id="backPantsLegLowerLeft20101122_0_0">
      <g
         id="element">
        <path
           id="path"
           d="M -0.35,-0.75 C -0.7,-0.7 -1,-0.65 -1.25,-0.6 l 0,-0.05 -0.2,0.1 c -0.05,0 -0.05,0 -0.1,0 -0.55,0.15 -1,0.35 -1.15,0.6 l 0,0.05 -0.2,1 0,0.6 c -0.05,0.25 0,0.55 0.05,0.85 0.05,0.1 0.05,0.25 0.1,0.4 0,0.05 0,0.1 0,0.15 0.05,0.1 0.05,0.2 0.1,0.35 0,0.1 0,0.25 0.05,0.4 l 0.65,2.85 0,0.15 c 0.2,0.75 0.4,1.5 0.7,2.15 0.25,0.7 0.55,1.3 0.95,1.8 l 0.4,0.5 c 0.15,0.15 0.3,0.25 0.45,0.4 l 0.1,0.1 c 0.2,0.15 0.4,0.3 0.65,0.45 C 1.65,11.3 2.4,10.4 3.55,9.55 3.6,9.5 3.65,9.5 3.7,9.45 3.75,9.4 3.8,9.4 3.85,9.4 3.9,9.35 3.95,9.35 4,9.3 L 5.55,8.6 C 6,8.5 6.45,8.5 6.85,8.65 L 7.15,8.75 7.1,8.5 C 7.1,8.45 7.1,8.35 7.05,8.3 7.05,8.3 6.9,7.6 6.9,7.6 L 6.45,7.7 C 5.35,7.9 4.15,8.05 3,7.65 L 2.95,7.6 2.9,7.6 C 2.35,7.4 1.85,7.15 1.4,6.85 L 1.35,6.9 0.35,6.1 0.4,6.05 C -0.05,5.65 -0.4,5.2 -0.75,4.65 L -1.3,3.5 l 0,0.05 -0.05,-0.05 -0.3,-0.7 -0.1,-0.7 0.05,0 0,-0.25 -0.1,-1.05 0.05,-0.25 c 0.1,-0.4 0.25,-0.75 0.5,-1.1 1.05,-0.25 1.75,-0.2 2.3,-0.2 0.05,-0.05 0.1,-0.05 0.2,-0.1 -0.5,0 -1.05,0.05 -1.6,0.1 z M -1.45,2.1 C -1.45,2 -1.4,1.9 -1.35,1.8 -1.45,1.9 -1.55,2 -1.7,2.1 -1.55,2.05 -1.45,2.05 -1.45,2 l 0,0.1 z"
           inkscape:connector-curvature="0"
           style="fill:#30302f;fill-opacity:0.65899999" />
        <path
           id="path1"
           d="m 1.25,-0.75 c 0,0 0,0 -0.2,0 -0.55,0 -1.25,-0.05 -2.3,0.2 -0.25,0.35 -0.4,0.7 -0.5,1.1 l -0.05,0.25 0.1,1.05 0,0.25 C -1.55,2 -1.45,1.9 -1.35,1.8 -1.4,1.9 -1.45,2 -1.45,2.1 l 0,-0.1 c 0,0.05 -0.1,0.05 -0.25,0.1 l -0.05,0 0.1,0.7 0.3,0.7 0.05,0.05 0,-0.05 0.55,1.15 c 0.35,0.55 0.7,1 1.15,1.4 L 0.35,6.1 1.35,6.9 1.4,6.85 C 1.85,7.15 2.35,7.4 2.9,7.6 L 2.95,7.6 3,7.65 C 4.15,8.05 5.35,7.9 6.45,7.7 L 6.9,7.6 6.65,6.55 C 6.6,6.25 6.5,5.95 6.3,5.35 6.05,6.1 5.65,6.2 4.8,6.1 4.3,6.05 3.6,5.85 3.05,5.6 L 2.65,5.35 2.55,5.3 2.25,5.05 1.8,4.55 0.95,3.1 0.55,1.65 0.5,0.95 c 0,-0.15 0,-0.25 0.05,-0.5 -0.05,-0.4 -0.05,0.05 0,-0.1 0,-0.6 0.25,-0.8 0.7,-1.1 z"
           inkscape:connector-curvature="0"
           style="fill:#30302f;fill-opacity:0.29800002" />
      </g>
    </g>
  </g>
</svg>
