<?xml version="1.0" encoding="UTF-8" standalone="no"?>
<!-- Generator: flash2svg, http://dissentgraphics.com/tools/flash2svg -->

<svg
   xmlns:dc="http://purl.org/dc/elements/1.1/"
   xmlns:cc="http://creativecommons.org/ns#"
   xmlns:rdf="http://www.w3.org/1999/02/22-rdf-syntax-ns#"
   xmlns:svg="http://www.w3.org/2000/svg"
   xmlns="http://www.w3.org/2000/svg"
   xmlns:sodipodi="http://sodipodi.sourceforge.net/DTD/sodipodi-0.dtd"
   xmlns:inkscape="http://www.inkscape.org/namespaces/inkscape"
   id="AvatarAssets"
   image-rendering="auto"
   version="1.1"
   x="0px"
   y="0px"
   width="12.593276"
   height="15.451839"
   viewBox="0 0 12.593276 15.451839"
   inkscape:version="0.48.4 r9939"
   sodipodi:docname="AvatarAssets_backShoeLeftD010.svg">
  <metadata
     id="metadata3295">
    <rdf:RDF>
      <cc:Work
         rdf:about="">
        <dc:format>image/svg+xml</dc:format>
        <dc:type
           rdf:resource="http://purl.org/dc/dcmitype/StillImage" />
      </cc:Work>
    </rdf:RDF>
  </metadata>
  <sodipodi:namedview
     pagecolor="#ffffff"
     bordercolor="#666666"
     borderopacity="1"
     objecttolerance="10"
     gridtolerance="10"
     guidetolerance="10"
     inkscape:pageopacity="0"
     inkscape:pageshadow="2"
     inkscape:window-width="640"
     inkscape:window-height="480"
     id="namedview3293"
     showgrid="false"
     fit-margin-top="0"
     fit-margin-left="0"
     fit-margin-right="0"
     fit-margin-bottom="0"
     inkscape:zoom="1.9032258"
     inkscape:cx="39.222139"
     inkscape:cy="-51.409661"
     inkscape:window-x="0"
     inkscape:window-y="0"
     inkscape:window-maximized="0"
     inkscape:current-layer="AvatarAssets" />
  <defs
     id="defs3270" />
  <g
     id="backShoeLeftD11"
     overflow="visible"
     style="overflow:visible"
     transform="translate(7.2221392,4.8615)">
    <g
       id="backShoeLeftD010_0">
      <g
         id="element">
        <g
           id="drawingObject">
          <path
             id="path"
             d="m 1.651,-3.549 c 0,0 -0.2,-0.3 -0.2,-0.7 0,-0.35 -0.4,-0.6 -0.4,-0.6 l 0.2,0.15 -0.2,-0.15 c 0,0 -1,-0.05 -1.25,0.05 l -0.25,0.15 -0.1,0.35 0.1,-0.35 c 0,0 -0.25,0.6 0,1.05 l 0.25,0.45 c 0,0 -2.3,1.3 -2.65,2 -0.4,0.65 -1.25,3.35 -1.25,3.9 l 0,0.6 -1.9,0.9 c -0.25,0.2 -1.75,2.5 -0.85,4.1 0.85,1.55 1,1.8 2.1,1.8 1.15,0 4.05,-1.7 5.75,-2.3 1.7,-0.65 2.45,-2.85 3.25,-3.75 0.8,-0.95 1.65,-4.85 -0.5,-6.6 q -1.6,-0.65 -1.85,-0.85 l -0.25,-0.2 z"
             inkscape:connector-curvature="0"
             style="fill:#36322b" />
        </g>
        <g
           id="drawingObject1">
          <path
             id="path1"
             d="m -1.949,1.351 c 0.15,0.6 -0.4,1.85 -0.6,2.1 -0.2,0.25 -0.75,2.7 -1.2,2.3 -0.45,-0.35 -0.75,-1.3 -0.75,-1.3 l 0.2,0.5 -0.2,-0.5 -0.7,1.35 0.7,-1.35 c 0,0 -1.6,2.25 -0.8,3.95 l 0.95,1.7 c 1.3,-0.3 3.85,-1.7 5.35,-2.25 1.7,-0.65 2.45,-2.85 3.25,-3.75 0.5,-0.6 1,-2.35 0.8,-4 l -0.8,-1.05 c -0.2,-0.35 -0.2,-1.1 -1.35,-1.6 q -0.95,-0.4 -2.2,-0.2 -1.35,0.15 -1.9,0.85 c -0.75,0.9 -0.85,2.6 -0.75,3.25 z"
             inkscape:connector-curvature="0"
             style="fill:#1a1814" />
        </g>
        <g
           id="drawingObject2">
          <path
             id="path2"
             d="m -4.699,5.351 0.6,-2 c 0,0 -1.15,0.15 -1.9,0.9 -0.75,0.75 -1.35,2.35 -1.2,3.4 0.2,1.05 1.35,2.35 1.9,2.55 0.55,0.2 1.7,-0.25 1.95,-0.35 0.25,-0.15 -0.35,-0.7 -0.95,-1.5 q -0.75,-1 -0.4,-3 z"
             inkscape:connector-curvature="0"
             style="fill:#211f1a" />
        </g>
        <g
           id="drawingObject3">
          <path
             id="path3"
             d="m -4.699,3.851 c 0.4,-0.65 -0.4,-0.2 -1.3,0.4 -0.85,0.65 -1,1.65 -1.1,2.5 -0.15,0.9 0.8,0.65 1.05,0.65 0.25,0 0.85,-0.55 0.95,-1.4 l 0.4,-2.15 z"
             inkscape:connector-curvature="0"
             style="fill:#36322b" />
        </g>
        <g
           id="drawingObject4">
          <path
             id="path4"
             d="m 0.751,1.201 c -0.2,0 0.9,-0.95 1.75,-1.25 0.9,-0.3 2.25,0.2 2.65,0.15 0.35,-0.1 0.35,-0.7 -0.5,-1.45 -0.9,-0.75 -2,-0.95 -3.65,-0.05 -1.6,0.85 -1.5,2.6 -1.25,2.9 q 0.15,0.25 0.8,0 0.7,-0.3 0.2,-0.3 z"
             inkscape:connector-curvature="0"
             style="fill:#36322b" />
        </g>
        <g
           id="drawingObject5">
          <path
             id="path5"
             d="m 3.151,-1.799 c -1.15,-0.1 -2.6,1.15 -2.75,1.95 -0.2,0.7 0.1,1 -0.2,1.45 0.45,-0.1 1,-0.4 0.55,-0.4 -0.2,0 0.9,-0.95 1.75,-1.25 0.9,-0.3 2.25,0.2 2.65,0.15 l 0.05,-0.05 q 0.05,-0.55 -0.65,-1.15 -0.65,-0.6 -1.4,-0.7 z"
             inkscape:connector-curvature="0"
             style="fill:#1a1814" />
        </g>
        <g
           id="drawingObject6">
          <path
             id="path6"
             d="m 5.251,0.651 c -0.1,-0.95 -0.6,-0.9 -1.5,-1.05 -0.85,-0.2 -2.6,0.4 -3,1.35 -0.35,0.95 -1.3,4.75 -2.35,6.45 q -0.85,1.3 -1.55,1.85 -0.8,0.6 -2.15,0.95 l -0.5,-0.2 0.2,0.4 c 0.15,0.3 1.25,0.2 2,0 0.75,-0.2 4.65,-1.9 5.4,-2.3 0.75,-0.45 1.35,-1.4 2.2,-3.35 0.9,-1.9 1.4,-3.15 1.25,-4.1 z"
             inkscape:connector-curvature="0"
             style="fill:#f5dae4" />
        </g>
        <g
           id="drawingObject7">
          <path
             id="path7"
             d="m 3.451,0.201 c -1.4,0 -2,0.75 -2.3,1.3 -0.35,0.6 -0.95,3.35 -2.5,6.4 -0.8,1.5 -1.6,2.2 -2.4,2.5 l 0.15,0 c 0.75,-0.2 4.65,-1.9 5.4,-2.3 0.75,-0.45 1.35,-1.4 2.2,-3.35 0.8,-1.75 1.3,-2.95 1.25,-3.85 q -0.3,-0.7 -1.8,-0.7 z"
             inkscape:connector-curvature="0"
             style="fill:#baa5ad" />
        </g>
        <g
           id="drawingObject8">
          <path
             id="path8"
             d="m -0.199,-4.399 c 0,0 -0.35,1 0.65,1.15 l -0.65,-1.15 z"
             inkscape:connector-curvature="0"
             style="fill:#1a1814" />
        </g>
      </g>
    </g>
  </g>
</svg>
