<?xml version="1.0" encoding="UTF-8" standalone="no"?>
<!-- Generator: flash2svg, http://dissentgraphics.com/tools/flash2svg -->

<svg
   xmlns:dc="http://purl.org/dc/elements/1.1/"
   xmlns:cc="http://creativecommons.org/ns#"
   xmlns:rdf="http://www.w3.org/1999/02/22-rdf-syntax-ns#"
   xmlns:svg="http://www.w3.org/2000/svg"
   xmlns="http://www.w3.org/2000/svg"
   xmlns:xlink="http://www.w3.org/1999/xlink"
   xmlns:sodipodi="http://sodipodi.sourceforge.net/DTD/sodipodi-0.dtd"
   xmlns:inkscape="http://www.inkscape.org/namespaces/inkscape"
   id="AvatarAssets"
   image-rendering="auto"
   version="1.1"
   x="0px"
   y="0px"
   width="11.299851"
   height="18.344917"
   viewBox="0 0 11.299851 18.344917"
   inkscape:version="0.48.4 r9939"
   sodipodi:docname="AvatarAssets_backPantsLegUpperLeft20101103Black.svg">
  <metadata
     id="metadata31">
    <rdf:RDF>
      <cc:Work
         rdf:about="">
        <dc:format>image/svg+xml</dc:format>
        <dc:type
           rdf:resource="http://purl.org/dc/dcmitype/StillImage" />
      </cc:Work>
    </rdf:RDF>
  </metadata>
  <sodipodi:namedview
     pagecolor="#ffffff"
     bordercolor="#666666"
     borderopacity="1"
     objecttolerance="10"
     gridtolerance="10"
     guidetolerance="10"
     inkscape:pageopacity="0"
     inkscape:pageshadow="2"
     inkscape:window-width="640"
     inkscape:window-height="480"
     id="namedview29"
     showgrid="false"
     fit-margin-top="0"
     fit-margin-left="0"
     fit-margin-right="0"
     fit-margin-bottom="0"
     inkscape:zoom="1.9032258"
     inkscape:cx="37.015243"
     inkscape:cy="-46.449574"
     inkscape:window-x="0"
     inkscape:window-y="0"
     inkscape:window-maximized="0"
     inkscape:current-layer="AvatarAssets" />
  <defs
     id="defs3">
    <pattern
       id="bitmap"
       patternContentUnits="userSpaceOnUse"
       patternUnits="userSpaceOnUse"
       width="200"
       height="200"
       viewBox="0 0 200 200"
       patternTransform="matrix(1 0 0 1 5.15 124.7)">
      <symbol
         id="Denim_Texture_Black_symbol"
         viewBox="0 0 200 200">
        <image
           sodipodi:absref="C:\Users\Training\Documents\GitHub\Glitchen-Avatar-Engine\glitch-avatars-svg\base_avatar\AvatarAssets.fla\clothing\back\Denim Texture Black"
           xlink:href="Denim Texture Black"
           height="200"
           width="200"
           id="Denim_Texture_Black" />
      </symbol>
      <use
         id="Denim_Texture_Black_use"
         width="200"
         height="200"
         y="0"
         x="0"
         xlink:href="#Denim_Texture_Black_symbol"
         externalResourcesRequired="true" />
    </pattern>
    <pattern
       id="bitmap1"
       patternContentUnits="userSpaceOnUse"
       patternUnits="userSpaceOnUse"
       width="200"
       height="200"
       viewBox="0 0 200 200"
       patternTransform="matrix(-0.5992279052734375 0.80108642578125 0.8465576171875 0.5601806640625 -23.849 -129.649)">
      <symbol
         id="symbol10"
         viewBox="0 0 200 200">
        <image
           sodipodi:absref="C:\Users\Training\Documents\GitHub\Glitchen-Avatar-Engine\glitch-avatars-svg\base_avatar\AvatarAssets.fla\clothing\back\Denim Texture Black"
           xlink:href="Denim Texture Black"
           height="200"
           width="200"
           id="image12" />
      </symbol>
      <use
         id="use14"
         width="200"
         height="200"
         y="0"
         x="0"
         xlink:href="#Denim_Texture_Black_symbol"
         externalResourcesRequired="true" />
    </pattern>
  </defs>
  <g
     id="backPantsLegUpperLeft20101103Black1"
     overflow="visible"
     style="overflow:visible"
     transform="translate(5.0152428,2.7944906)">
    <g
       id="backPantsLegUpperLeft20101103Black_0">
      <g
         id="element">
        <g
           id="drawingObject">
          <path
             id="path"
             d="M -3.08,14.218 C -4.341,12.604 -5.29,6.767 -4.943,4.781 -4.597,2.795 -3.283,-2.683 1.799,-2.794 Q 3.209,-2.819 4.553,-1.57 5.8,-0.445 6.102,1.012 C 6.478,2.878 5.732,5.737 5.695,6.97 L 6.05,4.211 5.695,6.97 c -0.079,1.205 -0.409,5.538 -1.41,6.792 -1.612,1.986 -5.77,2.469 -7.365,0.456 z"
             inkscape:connector-curvature="0"
             style="fill:url(#bitmap1)" />
        </g>
        <g
           id="drawingObject1">
          <path
             id="path1"
             d="M 6.079,1.052 C 6.455,2.918 5.709,5.777 5.672,7.01 L 6.027,4.251 5.672,7.01 q -0.349,5.458 -1.41,6.792 c -1.613,1.987 -5.77,2.469 -7.365,0.456 -0.194,-0.249 -0.413,-0.633 -0.614,-1.125 0.645,0.068 1.423,0.043 1.819,-1.671 C -1.341,9.196 -0.719,8.11 -0.118,7.73 0.471,7.281 0.451,6.969 0.708,6.54 0.966,6.112 1.427,5.579 2.008,5.903 2.575,6.159 2.999,6.439 3.226,6.05 3.411,5.634 3.114,4 3.654,3.279 4.163,2.598 5.245,0.56 4.99,-1.046 5.518,-0.397 5.913,0.343 6.079,1.052 z"
             inkscape:connector-curvature="0"
             style="fill:#000000;fill-opacity:0.2" />
        </g>
        <g
           id="drawingObject2">
          <path
             id="path2"
             d="M 5.941,0.055 6.179,0.752 C 6.555,2.618 5.809,5.477 5.772,6.71 L 6.127,3.951 5.772,6.71 c -0.079,1.206 -0.409,5.538 -1.41,6.792 -1.553,1.906 -5.439,2.449 -7.171,0.704 q 1.042,-0.209 1.536,-0.361 0.927,-0.225 1.125,-0.573 C 0.306,12.495 1.293,9.315 2.647,8.774 3.971,8.273 5.012,6.627 5.082,6.194 5.165,5.83 6.144,2.406 5.941,0.055 z"
             inkscape:connector-curvature="0"
             style="fill:#000000;fill-opacity:0.2" />
        </g>
        <g
           id="drawingObject3">
          <path
             id="path3"
             d="m -1.281,-1.299 -0.971,2.651 c -0.603,1.398 -0.364,2.094 -0.693,3.972 -0.402,1.891 -0.497,7.516 -0.497,7.516 0,0 -0.418,-1.893 -0.255,-3.043 0.164,-1.149 0.023,-1.721 0.116,-2.438 0.063,-0.677 0.066,-1.273 0.422,-4.032 q 0.325,-2.719 1.878,-4.626 z"
             inkscape:connector-curvature="0"
             style="fill:#ffffff;fill-opacity:0.08600003" />
        </g>
        <g
           id="drawingObject4">
          <path
             id="path4"
             d="M -3.922,2.751 C -3.556,1.077 -1.915,-1.37 -1.915,-1.37 Q -3.11,1.073 -3.527,3.491 c -0.404,2.487 -0.177,3.536 -0.319,3.98 -0.143,0.445 0.108,1.21 0.02,1.75 l -0.015,1.966 c 0,0 -0.148,-3.271 -0.261,-4.304 -0.113,-1.033 -0.186,-2.458 0.18,-4.132 z"
             inkscape:connector-curvature="0"
             style="fill:#000000;fill-opacity:0.2" />
        </g>
      </g>
    </g>
  </g>
</svg>
