<?xml version="1.0" encoding="UTF-8" standalone="no"?>
<!-- Generator: flash2svg, http://dissentgraphics.com/tools/flash2svg -->

<svg
   xmlns:dc="http://purl.org/dc/elements/1.1/"
   xmlns:cc="http://creativecommons.org/ns#"
   xmlns:rdf="http://www.w3.org/1999/02/22-rdf-syntax-ns#"
   xmlns:svg="http://www.w3.org/2000/svg"
   xmlns="http://www.w3.org/2000/svg"
   xmlns:sodipodi="http://sodipodi.sourceforge.net/DTD/sodipodi-0.dtd"
   xmlns:inkscape="http://www.inkscape.org/namespaces/inkscape"
   id="AvatarAssets"
   image-rendering="auto"
   version="1.1"
   x="0px"
   y="0px"
   width="10.070711"
   height="13.15"
   viewBox="0 0 10.070711 13.15"
   inkscape:version="0.48.4 r9939"
   sodipodi:docname="AvatarAssets_backPantsLegLowerLeft20101122Color_1.svg">
  <metadata
     id="metadata11">
    <rdf:RDF>
      <cc:Work
         rdf:about="">
        <dc:format>image/svg+xml</dc:format>
        <dc:type
           rdf:resource="http://purl.org/dc/dcmitype/StillImage" />
      </cc:Work>
    </rdf:RDF>
  </metadata>
  <sodipodi:namedview
     pagecolor="#ffffff"
     bordercolor="#666666"
     borderopacity="1"
     objecttolerance="10"
     gridtolerance="10"
     guidetolerance="10"
     inkscape:pageopacity="0"
     inkscape:pageshadow="2"
     inkscape:window-width="640"
     inkscape:window-height="480"
     id="namedview9"
     showgrid="false"
     fit-margin-top="0"
     fit-margin-left="0"
     fit-margin-right="0"
     fit-margin-bottom="0"
     inkscape:zoom="1.9032258"
     inkscape:cx="36.970711"
     inkscape:cy="-55.35"
     inkscape:window-x="0"
     inkscape:window-y="0"
     inkscape:window-maximized="0"
     inkscape:current-layer="AvatarAssets" />
  <defs
     id="defs3" />
  <g
     id="backPantsLegLowerLeft20101122Color_2"
     overflow="visible"
     style="overflow:visible"
     transform="translate(4.9707107,6.5)">
    <g
       id="backPantsLegLowerLeft20101122Color_1_0">
      <g
         id="element">
        <path
           id="path"
           d="M 2.15,-5.1 C 1.8,-5.7 1.3,-6.1 0.75,-6.3 L 0.2,-6.45 C 0,-6.5 -0.2,-6.5 -0.4,-6.45 l -0.4,-0.05 0,0.05 c -0.5,0 -1.05,0.05 -1.6,0.1 -0.35,0.05 -0.65,0.1 -0.9,0.15 l 0,-0.05 -0.2,0.1 c -0.05,0 -0.05,0 -0.1,0 -0.55,0.15 -1,0.35 -1.15,0.6 l 0,0.05 -0.2,1 0,0.6 c -0.05,0.25 0,0.55 0.05,0.85 0.05,0.1 0.05,0.25 0.1,0.4 0,0.05 0,0.1 0,0.15 0.05,0.1 0.05,0.2 0.1,0.35 0,0.1 0,0.25 0.05,0.4 L -4,1.1 -4,1.25 c 0.2,0.75 0.4,1.5 0.7,2.15 0.25,0.7 0.55,1.3 0.95,1.8 l 0.4,0.5 c 0.15,0.15 0.3,0.25 0.45,0.4 l 0.1,0.1 C -1.2,6.35 -1,6.5 -0.75,6.65 -0.4,5.7 0.35,4.8 1.5,3.95 1.55,3.9 1.6,3.9 1.65,3.85 1.7,3.8 1.75,3.8 1.8,3.8 1.85,3.75 1.9,3.75 1.95,3.7 L 3.5,3 C 3.95,2.9 4.4,2.9 4.8,3.05 L 5.1,3.15 5.05,2.9 C 5.05,2.85 5.05,2.75 5,2.7 5,2.7 4.85,2 4.85,2 L 4.6,0.95 C 4.55,0.65 4.45,0.35 4.25,-0.25 L 4.25,-0.3 4.1,-0.7 C 4,-1.05 3.9,-1.35 3.75,-1.65 3.6,-1.95 3.5,-2.25 3.35,-2.55 2.85,-3.8 2.45,-4.65 2.15,-5.1 z"
           inkscape:connector-curvature="0"
           style="fill:#edede4" />
      </g>
    </g>
  </g>
</svg>
