<?xml version="1.0" encoding="UTF-8" standalone="no"?>
<!-- Generator: flash2svg, http://dissentgraphics.com/tools/flash2svg -->

<svg
   xmlns:dc="http://purl.org/dc/elements/1.1/"
   xmlns:cc="http://creativecommons.org/ns#"
   xmlns:rdf="http://www.w3.org/1999/02/22-rdf-syntax-ns#"
   xmlns:svg="http://www.w3.org/2000/svg"
   xmlns="http://www.w3.org/2000/svg"
   xmlns:sodipodi="http://sodipodi.sourceforge.net/DTD/sodipodi-0.dtd"
   xmlns:inkscape="http://www.inkscape.org/namespaces/inkscape"
   id="AvatarAssets"
   image-rendering="auto"
   version="1.1"
   x="0px"
   y="0px"
   width="9.6499996"
   height="7.5999999"
   viewBox="0 0 9.6499996 7.5999999"
   inkscape:version="0.48.4 r9939"
   sodipodi:docname="AvatarAssets_backPantsLegUpperLeft20101122Color_2.svg">
  <metadata
     id="metadata11">
    <rdf:RDF>
      <cc:Work
         rdf:about="">
        <dc:format>image/svg+xml</dc:format>
        <dc:type
           rdf:resource="http://purl.org/dc/dcmitype/StillImage" />
      </cc:Work>
    </rdf:RDF>
  </metadata>
  <sodipodi:namedview
     pagecolor="#ffffff"
     bordercolor="#666666"
     borderopacity="1"
     objecttolerance="10"
     gridtolerance="10"
     guidetolerance="10"
     inkscape:pageopacity="0"
     inkscape:pageshadow="2"
     inkscape:window-width="640"
     inkscape:window-height="480"
     id="namedview9"
     showgrid="false"
     fit-margin-top="0"
     fit-margin-left="0"
     fit-margin-right="0"
     fit-margin-bottom="0"
     inkscape:zoom="1.9032258"
     inkscape:cx="36.75"
     inkscape:cy="-58.15"
     inkscape:window-x="0"
     inkscape:window-y="0"
     inkscape:window-maximized="0"
     inkscape:current-layer="AvatarAssets" />
  <defs
     id="defs3" />
  <g
     id="backPantsLegUpperLeft20101122Color_3"
     overflow="visible"
     style="overflow:visible"
     transform="translate(4.75,3.75)">
    <g
       id="backPantsLegUpperLeft20101122Color_2_0">
      <g
         id="element">
        <path
           id="path"
           d="M 4.9,-2.8 4.35,-3.05 c -0.7,-0.2 -2.3,-0.45 -3.8,-0.6 l -2.4,-0.1 c -0.95,0 -2.05,0.2 -2.9,0.4 l 0.1,1.4 0.15,0 0.35,-0.05 0.1,-0.05 0.5,0 0,-0.05 0.3,0 0.3,-0.05 0.4,0 0.2,-0.05 3.8,-0.05 c 1.5,0.1 3,0.5 3.45,0.6 l 0,-1.15 z M 0.15,3.7 1.5,3.85 c 0.55,0 1.1,-0.1 1.6,-0.2 L 3.65,3.5 C 3.95,3.1 4.15,2.6 4.35,2 3.85,2.2 2.6,2.45 0.6,2.35 -0.2,2.3 -1.05,2.2 -1.85,2.05 l -0.05,0 -0.5,-0.1 -0.05,0 L -4,1.6 -4.05,1.6 -4.25,1.55 -4.05,2 c 0.2,0.35 0.4,0.7 0.6,1 1.1,0.25 2.55,0.55 3.6,0.7 z M 1,0.95 C 2.85,1.05 4.1,0.9 4.65,0.8 l 0.2,-1.25 -7.6,-0.25 -0.5,-0.05 -0.05,0 -0.15,-0.05 -0.15,0 -0.9,-0.1 -0.15,0 c 0,0.4 0.05,0.85 0.1,1.25 l 0.2,0.05 0.05,0 5.25,0.55 0.05,0 z"
           inkscape:connector-curvature="0"
           style="fill:#3d3d3b" />
      </g>
    </g>
  </g>
</svg>
