<?xml version="1.0" encoding="UTF-8" standalone="no"?>
<!-- Generator: flash2svg, http://dissentgraphics.com/tools/flash2svg -->

<svg
   xmlns:dc="http://purl.org/dc/elements/1.1/"
   xmlns:cc="http://creativecommons.org/ns#"
   xmlns:rdf="http://www.w3.org/1999/02/22-rdf-syntax-ns#"
   xmlns:svg="http://www.w3.org/2000/svg"
   xmlns="http://www.w3.org/2000/svg"
   xmlns:sodipodi="http://sodipodi.sourceforge.net/DTD/sodipodi-0.dtd"
   xmlns:inkscape="http://www.inkscape.org/namespaces/inkscape"
   id="AvatarAssets"
   image-rendering="auto"
   version="1.1"
   x="0px"
   y="0px"
   width="12.309939"
   height="16.54808"
   viewBox="0 0 12.309939 16.54808"
   inkscape:version="0.48.4 r9939"
   sodipodi:docname="AvatarAssets_backPantsLegLowerLeftA009.svg">
  <metadata
     id="metadata28">
    <rdf:RDF>
      <cc:Work
         rdf:about="">
        <dc:format>image/svg+xml</dc:format>
        <dc:type
           rdf:resource="http://purl.org/dc/dcmitype/StillImage" />
      </cc:Work>
    </rdf:RDF>
  </metadata>
  <sodipodi:namedview
     pagecolor="#ffffff"
     bordercolor="#666666"
     borderopacity="1"
     objecttolerance="10"
     gridtolerance="10"
     guidetolerance="10"
     inkscape:pageopacity="0"
     inkscape:pageshadow="2"
     inkscape:window-width="640"
     inkscape:window-height="480"
     id="namedview26"
     showgrid="false"
     fit-margin-top="0"
     fit-margin-left="0"
     fit-margin-right="0"
     fit-margin-bottom="0"
     inkscape:zoom="1.9032258"
     inkscape:cx="35.220539"
     inkscape:cy="-46.782998"
     inkscape:window-x="0"
     inkscape:window-y="0"
     inkscape:window-maximized="0"
     inkscape:current-layer="AvatarAssets" />
  <defs
     id="defs3" />
  <g
     id="backPantsLegLowerLeftA10"
     overflow="visible"
     style="overflow:visible"
     transform="translate(3.220539,1.3310792)">
    <g
       id="backPantsLegLowerLeftA009_0">
      <g
         id="element">
        <g
           id="group1">
          <g
             id="drawingObject">
            <path
               id="path"
               d="M 7.378,7.851 C 7.22,6.901 6.957,6.101 6.799,5.801 c -0.367,-0.8 -2.207,-5.55 -2.891,-6.1 -0.63,-0.55 -1.944,-1.35 -3.994,-0.9 -1.577,0.35 -2.681,0.6 -3.049,2.5 -0.368,1.85 0.526,4.5 1.261,6.7 0.368,1 0.894,2.1 1.577,3.1 0.421,-0.5 0.894,-0.95 1.472,-1.3 l 0.368,-0.35 c 0.368,-0.4 0.789,-0.75 1.314,-0.95 1.051,-0.5 1.892,-0.8 3.101,-0.8 0.474,0 0.947,0.05 1.42,0.15 z"
               inkscape:connector-curvature="0"
               style="fill:#d69244" />
          </g>
          <g
             id="drawingObject1">
            <path
               id="path1"
               d="m 0.238,10.201 0.105,0.15 0.315,-0.25 -0.473,-0.6 c -0.788,-1.3 -0.631,-1.6 -1.051,-2.7 -0.368,-1.15 -0.736,-2 -0.736,-2.7 l -0.052,-1.25 c 0,0 -0.053,2.15 0.525,4.05 0.578,1.95 0.683,2.45 1.367,3.3 z"
               inkscape:connector-curvature="0"
               style="fill:#000000;fill-opacity:0.2" />
          </g>
          <g
             id="drawingObject2">
            <path
               id="path2"
               d="M 7.378,7.851 C 7.22,6.901 6.957,6.101 6.799,5.801 c -0.367,-0.8 -2.207,-5.55 -2.891,-6.1 -0.63,-0.55 -1.944,-1.35 -3.994,-0.9 l -1.472,0.4 c 0.841,0.05 1.787,0.45 2.523,0.9 0.841,0.5 2.155,2.75 2.155,3.5 q 0,0.25 -0.21,0.9 -0.158,0.45 0.105,0.8 c 0.368,0.6 0.893,0.65 1.104,1.3 0.105,0.25 0.157,0.75 0.157,1.35 0.526,-0.15 1.052,-0.25 1.682,-0.25 0.474,0 0.947,0.05 1.42,0.15 z"
               inkscape:connector-curvature="0"
               style="fill:#000000;fill-opacity:0.08600003" />
          </g>
          <g
             id="drawingObject3">
            <path
               id="path3"
               d="m -1.392,3.601 0.631,2.95 q 0.578,2.35 1.367,3.25 l 0.157,0.2 0.106,-0.05 c -0.316,-0.7 -1.052,-2.4 -1.472,-3.85 l -0.841,-2.9 0.052,0.4 z"
               inkscape:connector-curvature="0"
               style="fill:#ffffff;fill-opacity:0.2" />
          </g>
        </g>
        <g
           id="group2">
          <g
             id="drawingObject4">
            <path
               id="path4"
               d="m 2.752,7.651 c -2.102,0.9 -2.733,2.9 -2.733,2.9 l 0.683,0.6 3.627,-2.4 c 0,0 3.942,-0.95 2.996,-1.45 -0.893,-0.5 -2.47,-0.6 -4.573,0.35 z"
               inkscape:connector-curvature="0"
               style="fill:#dae2e9;fill-opacity:0.25099996" />
          </g>
          <g
             id="drawingObject5">
            <path
               id="path5"
               d="M 9.06,9.101 8.271,7.801 Q 7.798,7.301 6.116,7.151 c -1.051,-0.1 -3.679,0.75 -4.363,1.3 -0.63,0.55 -1.314,1.2 -1.629,1.6 -0.263,0.45 -0.526,1.5 -0.105,2.3 0.368,0.8 0.473,1.65 0.473,1.95 0,0.35 0.525,1.15 0.525,0.85 0,-0.3 1.209,-3.85 2.208,-4.65 1.735,-1.45 3.732,-1.4 4.521,-1.45 0.735,-0.1 1.209,0.5 1.209,0.5 0,0 0.21,0 0.105,-0.45 z"
               inkscape:connector-curvature="0"
               style="fill:#d69244" />
          </g>
          <g
             id="drawingObject6">
            <path
               id="path6"
               d="m 8.955,9.551 c 0,0 0.21,0 0.105,-0.45 L 8.271,7.801 C 7.798,7.301 7.167,7.251 6.116,7.151 5.328,7.101 3.751,7.551 2.647,7.951 l 0.368,0 c 1.314,-0.05 0.315,0.5 -1.157,1.55 -1.419,1.05 -0.367,0.8 0.368,0.4 0.684,-0.45 2.629,-1.15 2.261,-0.9 -0.316,0.25 -1.945,1.2 -2.629,2.9 q -0.315,0.75 -0.525,2.1 c 0.473,-1.2 1.209,-2.95 1.892,-3.5 1.735,-1.45 3.732,-1.4 4.521,-1.45 0.735,-0.1 1.209,0.5 1.209,0.5 z"
               inkscape:connector-curvature="0"
               style="fill:#000000;fill-opacity:0.08600003" />
          </g>
          <g
             id="drawingObject7">
            <path
               id="path7"
               d="m 8.955,9.551 c 0,0 0.105,-0.05 0.105,-0.25 Q 8.849,8.751 8.061,8.501 C 7.64,8.401 7.22,7.651 6.694,7.701 c -0.525,0.05 -1.051,0.7 -0.736,1 0.158,0.15 0.053,0.35 -0.105,0.55 0.789,-0.15 1.472,-0.2 1.893,-0.2 0.735,-0.1 1.209,0.5 1.209,0.5 z"
               inkscape:connector-curvature="0"
               style="fill:#000000;fill-opacity:0.2" />
          </g>
        </g>
      </g>
    </g>
  </g>
</svg>
