<?xml version="1.0" encoding="UTF-8" standalone="no"?>
<!-- Generator: flash2svg, http://dissentgraphics.com/tools/flash2svg -->

<svg
   xmlns:dc="http://purl.org/dc/elements/1.1/"
   xmlns:cc="http://creativecommons.org/ns#"
   xmlns:rdf="http://www.w3.org/1999/02/22-rdf-syntax-ns#"
   xmlns:svg="http://www.w3.org/2000/svg"
   xmlns="http://www.w3.org/2000/svg"
   xmlns:sodipodi="http://sodipodi.sourceforge.net/DTD/sodipodi-0.dtd"
   xmlns:inkscape="http://www.inkscape.org/namespaces/inkscape"
   id="AvatarAssets"
   image-rendering="auto"
   version="1.1"
   x="0px"
   y="0px"
   width="13.85625"
   height="17.15"
   viewBox="0 0 13.85625 17.15"
   inkscape:version="0.48.4 r9939"
   sodipodi:docname="AvatarAssets_backPantsLegLowerLeftA007.svg">
  <metadata
     id="metadata21">
    <rdf:RDF>
      <cc:Work
         rdf:about="">
        <dc:format>image/svg+xml</dc:format>
        <dc:type
           rdf:resource="http://purl.org/dc/dcmitype/StillImage" />
      </cc:Work>
    </rdf:RDF>
  </metadata>
  <sodipodi:namedview
     pagecolor="#ffffff"
     bordercolor="#666666"
     borderopacity="1"
     objecttolerance="10"
     gridtolerance="10"
     guidetolerance="10"
     inkscape:pageopacity="0"
     inkscape:pageshadow="2"
     inkscape:window-width="640"
     inkscape:window-height="480"
     id="namedview19"
     showgrid="false"
     fit-margin-top="0"
     fit-margin-left="0"
     fit-margin-right="0"
     fit-margin-bottom="0"
     inkscape:zoom="1.9032258"
     inkscape:cx="35.40525"
     inkscape:cy="-46.049"
     inkscape:window-x="0"
     inkscape:window-y="0"
     inkscape:window-maximized="0"
     inkscape:current-layer="AvatarAssets" />
  <defs
     id="defs3" />
  <g
     id="backPantsLegLowerLeftA8"
     overflow="visible"
     style="overflow:visible"
     transform="translate(3.40525,1.199)">
    <g
       id="backPantsLegLowerLeftA007_0">
      <g
         id="element">
        <g
           id="drawingObject">
          <path
             id="path"
             d="m -1.949,-0.599 q -0.75,0.25 -1.15,0.95 -0.35,0.6 -0.3,1.2 l 1.25,6.75 c 0.5,2.75 2.75,5.75 2.45,6.65 -0.35,0.95 0.3,1 0.3,1 l 0.5,-0.9 -0.5,0.9 c 0,0 0.35,-1.05 2.85,-4 2.75,-3.2 4.35,-2.9 5.5,-2.8 0.85,0.05 1.35,0.3 1.45,0.45 -1.75,-1.65 -2.75,-3.1 -3.05,-4.3 -0.4,-1.85 -1.3,-3.85 -2.75,-5 -1.4,-1.15 -2.75,-2.15 -6.55,-0.9 z"
             inkscape:connector-curvature="0"
             style="fill:#80a92d" />
        </g>
        <g
           id="group1">
          <g
             id="drawingObject1">
            <path
               id="path1"
               d="m 4.601,0.301 -1.05,-0.8 c 0.55,0.55 1.1,1.2 1.55,2 1.25,2.35 1.8,4.45 2.3,5.35 0.4,0.75 1.1,1.45 1.45,2.3 l 0.1,0 c 0.9,0.05 1.35,0.35 1.5,0.5 -0.4,-0.4 -2.7,-2.7 -3.1,-4.35 q -0.75,-3.4 -2.75,-5 z"
               inkscape:connector-curvature="0"
               style="fill:#b6c837" />
          </g>
          <g
             id="drawingObject2">
            <path
               id="path2"
               d="m -1.599,5.751 c 0.75,3.45 1.6,5.25 2.1,6.7 0.35,1 0.55,2.05 0.6,2.6 l 1.2,-1.65 c -0.2,-0.45 -0.55,-1.25 -0.9,-2.3 -0.55,-1.75 -2.15,-4.9 -2.5,-7.15 -0.3,-1.95 -0.45,-3.95 -0.5,-4.7 l -0.35,0.15 c -0.25,0.05 -0.45,0.2 -0.65,0.3 0.1,0.6 0.35,3.05 1,6.05 z"
               inkscape:connector-curvature="0"
               style="fill:#b6c837" />
          </g>
          <g
             id="drawingObject3">
            <path
               id="path3"
               d="m 6.401,9.501 c -0.15,-0.3 -0.5,-0.9 -0.5,-1.65 q 0,-0.75 -0.9,-3.1 -0.85,-2.35 -1.5,-3.25 c -0.6,-0.85 -1.2,-1.95 -1.55,-2.6 l -0.85,-0.1 c 0.55,0.6 2,3.5 2.65,5.8 0.65,2.35 0.65,3.75 0.85,4.85 l 0.2,1.1 c 0.6,-0.5 1.15,-0.85 1.6,-1.05 z"
               inkscape:connector-curvature="0"
               style="fill:#b6c837" />
          </g>
        </g>
        <g
           id="drawingObject4">
          <path
             id="path4"
             d="m -1.949,-0.599 c -1.1,0.35 -1.5,1.5 -1.45,2.15 l 1.25,6.75 c 0.5,2.75 2.75,5.75 2.45,6.65 -0.35,0.95 0.3,1 0.3,1 l 0.5,-0.9 -0.5,0.9 c 0,0 0.35,-1.05 2.85,-4 2.75,-3.2 4.35,-2.9 5.5,-2.8 l 0.5,0.05 q -1.95,-1 -4.5,0.35 -2.25,1.65 -2.4,1.7 c -0.25,0.2 0.25,-1 1.2,-2.65 0.9,-1.65 2.8,-1.5 2.8,-1.5 l -1.25,-0.25 c -1.25,-0.25 -2.5,1.4 -3.8,1.4 -1.35,0 -2,-0.5 -2.6,-4.3 -0.55,-3.85 2.2,-5.15 2.2,-5.15 -0.8,0 -1.8,0.15 -3.05,0.6 z"
             inkscape:connector-curvature="0"
             style="fill:#000000;fill-opacity:0.2" />
        </g>
      </g>
    </g>
  </g>
</svg>
