<?xml version="1.0" encoding="UTF-8" standalone="no"?>
<!-- Generator: flash2svg, http://dissentgraphics.com/tools/flash2svg -->

<svg
   xmlns:dc="http://purl.org/dc/elements/1.1/"
   xmlns:cc="http://creativecommons.org/ns#"
   xmlns:rdf="http://www.w3.org/1999/02/22-rdf-syntax-ns#"
   xmlns:svg="http://www.w3.org/2000/svg"
   xmlns="http://www.w3.org/2000/svg"
   xmlns:sodipodi="http://sodipodi.sourceforge.net/DTD/sodipodi-0.dtd"
   xmlns:inkscape="http://www.inkscape.org/namespaces/inkscape"
   id="AvatarAssets"
   image-rendering="auto"
   version="1.1"
   x="0px"
   y="0px"
   width="9.6148405"
   height="9.2123327"
   viewBox="0 0 9.6148405 9.2123327"
   inkscape:version="0.48.4 r9939"
   sodipodi:docname="AvatarAssets_backBootUpperLeftC010.svg">
  <metadata
     id="metadata14">
    <rdf:RDF>
      <cc:Work
         rdf:about="">
        <dc:format>image/svg+xml</dc:format>
        <dc:type
           rdf:resource="http://purl.org/dc/dcmitype/StillImage" />
      </cc:Work>
    </rdf:RDF>
  </metadata>
  <sodipodi:namedview
     pagecolor="#ffffff"
     bordercolor="#666666"
     borderopacity="1"
     objecttolerance="10"
     gridtolerance="10"
     guidetolerance="10"
     inkscape:pageopacity="0"
     inkscape:pageshadow="2"
     inkscape:window-width="640"
     inkscape:window-height="480"
     id="namedview12"
     showgrid="false"
     fit-margin-top="0"
     fit-margin-left="0"
     fit-margin-right="0"
     fit-margin-bottom="0"
     inkscape:zoom="1.9032258"
     inkscape:cx="34.049"
     inkscape:cy="-48.518092"
     inkscape:window-x="0"
     inkscape:window-y="0"
     inkscape:window-maximized="0"
     inkscape:current-layer="AvatarAssets" />
  <defs
     id="defs3" />
  <g
     id="backBootUpperLeftC11"
     overflow="visible"
     style="overflow:visible"
     transform="translate(2.049,-4.2695757)">
    <g
       id="backBootUpperLeftC010_0">
      <g
         id="element">
        <g
           id="drawingObject">
          <path
             id="path"
             d="m 7.401,8.251 -0.5,-2.8 c 0,0 -0.55,-0.6 -1,-0.8 -1.15,-0.45 -2.45,-0.65 -4.7,0.25 q -1.4,0.55 -2.25,1.9 l -0.6,1.3 2.3,3.65 c 0.55,0.75 1.8,2.5 4.6,1.35 2.85,-1.2 2.35,-3.85 2.15,-4.85 z"
             inkscape:connector-curvature="0"
             style="fill:#333636" />
        </g>
        <g
           id="drawingObject1">
          <path
             id="path1"
             d="m 6.601,8.351 c -0.7,-0.6 -2.2,-0.2 -2.9,-0.25 q -1.45,-0.2 -1.95,-0.95 c -0.45,-0.7 -0.8,-1.55 -0.85,-2.1 -2,0.95 -2.95,3.55 -2.95,3.55 l 0.75,-1.4 -0.75,1.4 2.7,3.15 c 0.55,0.75 1.8,2.5 4.6,1.35 2.35,-1 2.2,-3.15 1.95,-4.4 -0.2,-0.05 -0.4,-0.2 -0.6,-0.35 z"
             inkscape:connector-curvature="0"
             style="fill:#242626" />
        </g>
      </g>
    </g>
  </g>
</svg>
