<?xml version="1.0" encoding="UTF-8" standalone="no"?>
<!-- Generator: flash2svg, http://dissentgraphics.com/tools/flash2svg -->

<svg
   xmlns:dc="http://purl.org/dc/elements/1.1/"
   xmlns:cc="http://creativecommons.org/ns#"
   xmlns:rdf="http://www.w3.org/1999/02/22-rdf-syntax-ns#"
   xmlns:svg="http://www.w3.org/2000/svg"
   xmlns="http://www.w3.org/2000/svg"
   xmlns:sodipodi="http://sodipodi.sourceforge.net/DTD/sodipodi-0.dtd"
   xmlns:inkscape="http://www.inkscape.org/namespaces/inkscape"
   id="AvatarAssets"
   image-rendering="auto"
   version="1.1"
   x="0px"
   y="0px"
   width="13.872222"
   height="17.176161"
   viewBox="0 0 13.872222 17.176161"
   inkscape:version="0.48.4 r9939"
   sodipodi:docname="AvatarAssets_backPantsLegLowerLeftA006.svg">
  <metadata
     id="metadata26">
    <rdf:RDF>
      <cc:Work
         rdf:about="">
        <dc:format>image/svg+xml</dc:format>
        <dc:type
           rdf:resource="http://purl.org/dc/dcmitype/StillImage" />
      </cc:Work>
    </rdf:RDF>
  </metadata>
  <sodipodi:namedview
     pagecolor="#ffffff"
     bordercolor="#666666"
     borderopacity="1"
     objecttolerance="10"
     gridtolerance="10"
     guidetolerance="10"
     inkscape:pageopacity="0"
     inkscape:pageshadow="2"
     inkscape:window-width="640"
     inkscape:window-height="480"
     id="namedview24"
     showgrid="false"
     fit-margin-top="0"
     fit-margin-left="0"
     fit-margin-right="0"
     fit-margin-bottom="0"
     inkscape:zoom="1.9032258"
     inkscape:cx="35.371222"
     inkscape:cy="-45.949"
     inkscape:window-x="0"
     inkscape:window-y="0"
     inkscape:window-maximized="0"
     inkscape:current-layer="AvatarAssets" />
  <defs
     id="defs3" />
  <g
     id="backPantsLegLowerLeftA7"
     overflow="visible"
     style="overflow:visible"
     transform="translate(3.3712222,1.1251616)">
    <g
       id="backPantsLegLowerLeftA006_0">
      <g
         id="element">
        <g
           id="drawingObject">
          <path
             id="path"
             d="m 4.651,0.401 c -1.45,-1.2 -2.75,-2.2 -6.6,-0.95 q -0.75,0.25 -1.15,0.95 -0.35,0.65 -0.25,1.25 c 0.05,0.65 0.75,4 1.25,6.75 0.5,2.75 2.75,5.75 2.4,6.65 -0.35,0.9 0.35,1 0.35,1 l 0.45,-0.9 -0.45,0.9 c 0,0 0.3,-1.1 2.8,-4 2.8,-3.2 4.35,-2.9 5.5,-2.85 0.9,0.05 1.35,0.35 1.4,0.45 -1.7,-1.65 -2.7,-3.1 -2.95,-4.25 -0.45,-1.85 -1.35,-3.85 -2.75,-5 z"
             inkscape:connector-curvature="0"
             style="fill:#d9b558" />
        </g>
        <g
           id="group1">
          <g
             id="drawingObject1">
            <path
               id="path1"
               d="m 10.501,9.751 c -0.45,-0.4 -2.75,-2.7 -3.1,-4.35 q -0.85,-3.4 -2.75,-5 l -1.1,-0.8 c 0.55,0.5 1.1,1.2 1.55,2 1.25,2.35 1.85,4.45 2.35,5.35 0.4,0.75 1.05,1.4 1.4,2.25 l 0.1,0 c 0.9,0.1 1.35,0.4 1.55,0.55 z"
               inkscape:connector-curvature="0"
               style="fill:#79592b;fill-opacity:0.4" />
          </g>
          <g
             id="drawingObject2">
            <path
               id="path2"
               d="m -2.549,-0.199 c 0.05,0.55 0.3,3.05 1,6.05 0.75,3.4 1.55,5.25 2.05,6.65 0.35,1.05 0.55,2.1 0.65,2.6 q 0.6,-0.9 1.15,-1.6 l -0.85,-2.3 c -0.6,-1.75 -2.2,-4.95 -2.5,-7.2 -0.3,-1.9 -0.5,-3.95 -0.5,-4.65 l -0.4,0.1 c -0.25,0.1 -0.45,0.2 -0.6,0.35 z"
               inkscape:connector-curvature="0"
               style="fill:#79592b;fill-opacity:0.4" />
          </g>
          <g
             id="drawingObject3">
            <path
               id="path3"
               d="m 2.001,-1.049 c -0.3,-0.05 -0.55,-0.05 -0.9,-0.05 0.55,0.6 2,3.5 2.65,5.8 0.7,2.3 0.7,3.75 0.85,4.8 l 0.2,1.15 c 0.6,-0.5 1.15,-0.85 1.6,-1.1 -0.15,-0.25 -0.45,-0.85 -0.45,-1.6 q 0,-0.75 -0.9,-3.1 -0.9,-2.4 -1.55,-3.25 c -0.6,-0.85 -1.2,-1.95 -1.5,-2.65 z"
               inkscape:connector-curvature="0"
               style="fill:#79592b;fill-opacity:0.4" />
          </g>
        </g>
        <g
           id="group2">
          <g
             id="drawingObject4">
            <path
               id="path4"
               d="m -3.049,3.501 0.4,2.1 q 1.35,-2.1 4.65,-3 c 1.9,-0.5 3.5,-0.2 4.45,0.15 l -0.5,-0.85 c -0.7,-0.3 -1.95,-0.6 -4,-0.55 -2.3,0.05 -4.05,1.25 -5,2.15 z"
               inkscape:connector-curvature="0"
               style="fill:#79592b;fill-opacity:0.45100002" />
          </g>
          <g
             id="drawingObject5">
            <path
               id="path5"
               d="m -0.699,12.151 c 1,-1.7 2.6,-3.7 4.3,-4.7 q 1.7,-1.05 4.5,-0.5 l -0.4,-0.75 c -0.7,-0.05 -1.85,0 -4,0.4 -2.75,0.5 -4.35,2.55 -5.15,3.95 l 0.75,1.6 z"
               inkscape:connector-curvature="0"
               style="fill:#79592b;fill-opacity:0.45100002" />
          </g>
        </g>
        <g
           id="drawingObject6">
          <path
             id="path6"
             d="m -1.949,-0.549 c -1.05,0.35 -1.5,1.5 -1.4,2.2 0.05,0.65 0.75,4 1.25,6.75 0.5,2.75 2.75,5.75 2.4,6.65 -0.35,0.9 0.35,1 0.35,1 l 0.45,-0.9 -0.45,0.9 c 0,0 0.3,-1.1 2.8,-4 2.8,-3.2 4.35,-2.9 5.5,-2.85 l 0.55,0.1 q -1.95,-1 -4.55,0.35 -2.2,1.65 -2.35,1.7 c -0.25,0.15 0.25,-1 1.15,-2.65 0.95,-1.7 2.85,-1.5 2.85,-1.5 l -1.25,-0.25 c -1.25,-0.25 -2.5,1.4 -3.85,1.4 -1.3,0 -2,-0.5 -2.55,-4.35 -0.6,-3.8 2.15,-5.1 2.15,-5.1 -0.8,0 -1.8,0.15 -3.05,0.55 z"
             inkscape:connector-curvature="0"
             style="fill:#000000;fill-opacity:0.2" />
        </g>
      </g>
    </g>
  </g>
</svg>
