<?xml version="1.0" encoding="UTF-8" standalone="no"?>
<!-- Generator: flash2svg, http://dissentgraphics.com/tools/flash2svg -->

<svg
   xmlns:dc="http://purl.org/dc/elements/1.1/"
   xmlns:cc="http://creativecommons.org/ns#"
   xmlns:rdf="http://www.w3.org/1999/02/22-rdf-syntax-ns#"
   xmlns:svg="http://www.w3.org/2000/svg"
   xmlns="http://www.w3.org/2000/svg"
   xmlns:sodipodi="http://sodipodi.sourceforge.net/DTD/sodipodi-0.dtd"
   xmlns:inkscape="http://www.inkscape.org/namespaces/inkscape"
   id="AvatarAssets"
   image-rendering="auto"
   version="1.1"
   x="0px"
   y="0px"
   width="10.95"
   height="10.624332"
   viewBox="0 0 10.95 10.624332"
   inkscape:version="0.48.4 r9939"
   sodipodi:docname="AvatarAssets_backShoeLeftA010.svg">
  <metadata
     id="metadata3134">
    <rdf:RDF>
      <cc:Work
         rdf:about="">
        <dc:format>image/svg+xml</dc:format>
        <dc:type
           rdf:resource="http://purl.org/dc/dcmitype/StillImage" />
      </cc:Work>
    </rdf:RDF>
  </metadata>
  <sodipodi:namedview
     pagecolor="#ffffff"
     bordercolor="#666666"
     borderopacity="1"
     objecttolerance="10"
     gridtolerance="10"
     guidetolerance="10"
     inkscape:pageopacity="0"
     inkscape:pageshadow="2"
     inkscape:window-width="640"
     inkscape:window-height="480"
     id="namedview3132"
     showgrid="false"
     fit-margin-top="0"
     fit-margin-left="0"
     fit-margin-right="0"
     fit-margin-bottom="0"
     inkscape:zoom="1.9032258"
     inkscape:cx="37.549"
     inkscape:cy="-51.499"
     inkscape:window-x="0"
     inkscape:window-y="0"
     inkscape:window-maximized="0"
     inkscape:current-layer="AvatarAssets" />
  <defs
     id="defs3115" />
  <g
     id="backShoeLeftA11"
     overflow="visible"
     style="overflow:visible"
     transform="translate(5.549,0.12333224)">
    <g
       id="backShoeLeftA010_0">
      <g
         id="element">
        <g
           id="drawingObject">
          <path
             id="path"
             d="m 4.651,3.101 c 0.65,-1.25 0.75,-2.65 0.75,-2.65 l -0.35,-0.45 c -0.4,-0.4 -3.1,0.25 -4.1,0.75 -1,0.5 -2.15,3.45 -3.6,6 q -1.45,2.6 -2.9,3.1 l 0,0.65 0.65,-0.1 c 0.6,-0.15 2.25,-0.8 4.25,-2.3 2,-1.5 4.7,-3.75 5.3,-5 z"
             inkscape:connector-curvature="0"
             style="fill:#d9526a" />
        </g>
        <g
           id="drawingObject1">
          <path
             id="path1"
             d="m 4.651,3.101 c 0.65,-1.25 0.75,-2.65 0.75,-2.65 -0.2,-0.35 -3,0.45 -4,1.15 q -0.65,0.4 -1.65,2.15 -0.1,0.1 -2.15,3.75 c -1.25,2.2 -2.55,2.8 -3.15,3 l 0.65,-0.1 c 0.6,-0.15 2.25,-0.8 4.25,-2.3 2,-1.5 4.7,-3.75 5.3,-5 z"
             inkscape:connector-curvature="0"
             style="fill:#99394b" />
        </g>
        <g
           id="drawingObject2">
          <path
             id="path2"
             d="m 1.351,1.201 c -0.4,0 -0.4,-0.45 -0.4,-0.45 l 0.05,0.25 -0.05,-0.25 0.1,0.75 -1.4,1.75 -0.85,2.15 0.35,-0.65 c 0.4,-0.6 1.3,-2.05 2.25,-3.15 0.95,-1.15 3.7,-1.25 3.7,-1.25 0,0 -0.25,-0.1 -1.2,0 -0.95,0.05 -2.1,0.8 -2.55,0.85 z"
             inkscape:connector-curvature="0"
             style="fill:#f7afbc" />
        </g>
        <g
           id="drawingObject3">
          <path
             id="path3"
             d="m -3.199,0.901 c 0,0 -1.85,2.7 -1.9,5.5 -0.05,1.65 0.05,3.05 0.05,3.05 l 0.25,-0.1 1.1,-0.9 c 0,0 -0.4,-0.2 -0.45,-1.95 q -0.05,-2.15 0.95,-5.6 z"
             inkscape:connector-curvature="0"
             style="fill:#db536b" />
        </g>
        <g
           id="drawingObject4">
          <path
             id="path4"
             d="m -3.499,1.651 c 0.1,-0.6 -0.2,-0.05 -0.85,1.45 -0.65,1.45 -0.75,3.05 -0.6,3.15 0.2,0.15 0.6,-0.75 0.65,-1.35 q 0.05,-0.6 0.8,-3.25 z"
             inkscape:connector-curvature="0"
             style="fill:#eb677e" />
        </g>
        <g
           id="drawingObject5">
          <path
             id="path5"
             d="m -3.949,4.051 -0.15,0.55 0,0.7 0.4,0.45 c 0.3,0.3 1.2,0.9 1.2,0.9 l 0.25,-0.5 0.25,-0.75 -0.85,-0.45 -1.1,-0.9 z"
             inkscape:connector-curvature="0"
             style="fill:#db536b" />
        </g>
      </g>
    </g>
  </g>
</svg>
