<?xml version="1.0" encoding="UTF-8" standalone="no"?>
<!-- Generator: flash2svg, http://dissentgraphics.com/tools/flash2svg -->

<svg
   xmlns:dc="http://purl.org/dc/elements/1.1/"
   xmlns:cc="http://creativecommons.org/ns#"
   xmlns:rdf="http://www.w3.org/1999/02/22-rdf-syntax-ns#"
   xmlns:svg="http://www.w3.org/2000/svg"
   xmlns="http://www.w3.org/2000/svg"
   xmlns:sodipodi="http://sodipodi.sourceforge.net/DTD/sodipodi-0.dtd"
   xmlns:inkscape="http://www.inkscape.org/namespaces/inkscape"
   id="AvatarAssets"
   image-rendering="auto"
   version="1.1"
   x="0px"
   y="0px"
   width="12.559014"
   height="15.467954"
   viewBox="0 0 12.559014 15.467954"
   inkscape:version="0.48.4 r9939"
   sodipodi:docname="AvatarAssets_backShoeLeftA008.svg">
  <metadata
     id="metadata3084">
    <rdf:RDF>
      <cc:Work
         rdf:about="">
        <dc:format>image/svg+xml</dc:format>
        <dc:type
           rdf:resource="http://purl.org/dc/dcmitype/StillImage" />
      </cc:Work>
    </rdf:RDF>
  </metadata>
  <sodipodi:namedview
     pagecolor="#ffffff"
     bordercolor="#666666"
     borderopacity="1"
     objecttolerance="10"
     gridtolerance="10"
     guidetolerance="10"
     inkscape:pageopacity="0"
     inkscape:pageshadow="2"
     inkscape:window-width="640"
     inkscape:window-height="480"
     id="namedview3082"
     showgrid="false"
     fit-margin-top="0"
     fit-margin-left="0"
     fit-margin-right="0"
     fit-margin-bottom="0"
     inkscape:zoom="1.9032258"
     inkscape:cx="39.187877"
     inkscape:cy="-51.389047"
     inkscape:window-x="0"
     inkscape:window-y="0"
     inkscape:window-maximized="0"
     inkscape:current-layer="AvatarAssets" />
  <defs
     id="defs3055" />
  <g
     id="backShoeLeftA9"
     overflow="visible"
     style="overflow:visible"
     transform="translate(7.1878774,4.857)">
    <g
       id="backShoeLeftA008_0">
      <g
         id="element">
        <g
           id="drawingObject">
          <path
             id="path"
             d="m -0.149,-4.749 -0.25,0.1 -0.1,0.4 0.1,-0.4 c 0,0 -0.25,0.65 0,1.05 l 0.25,0.45 c 0,0 -2.35,1.3 -2.7,2 -0.4,0.7 -1.25,3.4 -1.25,3.95 l 0,0.55 c 0,0 -1.65,0.75 -1.9,0.95 -0.25,0.2 -1.75,2.5 -0.85,4.05 0.85,1.55 1,1.8 2.1,1.8 1.15,0 4.1,-1.65 5.75,-2.3 1.7,-0.6 2.45,-2.8 3.25,-3.75 0.85,-0.95 1.65,-4.8 -0.5,-6.55 q -0.2,-0.15 -0.95,-0.5 -0.8,-0.3 -0.9,-0.4 l -0.25,-0.15 c 0,0 -0.2,-0.35 -0.2,-0.7 0,-0.4 -0.35,-0.65 -0.35,-0.65 l 0.2,0.2 -0.2,-0.2 c 0,0 -1,-0.05 -1.25,0.1 z"
             inkscape:connector-curvature="0"
             style="fill:#dfd3b3" />
        </g>
        <g
           id="drawingObject1">
          <path
             id="path1"
             d="m -1.899,1.351 c 0.1,0.65 -0.45,1.9 -0.65,2.15 -0.2,0.25 -0.75,2.65 -1.2,2.3 -0.4,-0.4 -0.75,-1.3 -0.75,-1.3 l 0.25,0.5 -0.25,-0.5 -0.7,1.35 0.7,-1.35 c 0,0 -1.6,2.25 -0.8,3.9 0.2,0.5 0.55,1.1 0.95,1.7 1.35,-0.25 3.85,-1.7 5.35,-2.25 1.7,-0.6 2.45,-2.8 3.25,-3.75 0.5,-0.55 1.05,-2.3 0.8,-3.95 l -0.75,-1.05 c -0.2,-0.35 -0.2,-1.1 -1.4,-1.6 q -0.95,-0.4 -2.2,-0.25 -1.3,0.15 -1.85,0.85 c -0.75,0.95 -0.9,2.65 -0.75,3.25 z"
             inkscape:connector-curvature="0"
             style="fill:#b7ab93" />
        </g>
        <g
           id="drawingObject2">
          <path
             id="path2"
             d="m -4.299,8.351 q -0.8,-1.05 -0.35,-3 l 0.55,-2 c 0,0 -1.15,0.2 -1.9,0.95 -0.75,0.75 -1.35,2.3 -1.15,3.35 0.15,1.1 1.3,2.4 1.85,2.6 0.55,0.15 1.7,-0.25 1.95,-0.4 0.25,-0.1 -0.3,-0.7 -0.95,-1.5 z"
             inkscape:connector-curvature="0"
             style="fill:#bcaf97" />
        </g>
        <g
           id="drawingObject3">
          <path
             id="path3"
             d="m -4.649,3.851 c 0.35,-0.6 -0.45,-0.2 -1.35,0.45 -0.85,0.6 -1,1.6 -1.1,2.5 -0.15,0.85 0.8,0.6 1.05,0.6 0.25,0 0.9,-0.55 0.95,-1.35 l 0.45,-2.2 z"
             inkscape:connector-curvature="0"
             style="fill:#dfd3b3" />
        </g>
        <g
           id="drawingObject4">
          <path
             id="path4"
             d="m 0.751,1.251 c -0.15,0 0.9,-0.95 1.75,-1.25 0.9,-0.35 2.25,0.15 2.65,0.1 0.35,-0.05 0.35,-0.7 -0.5,-1.45 -0.9,-0.75 -2,-0.9 -3.65,-0.05 -1.6,0.9 -1.5,2.65 -1.25,2.95 q 0.2,0.2 0.85,-0.05 0.7,-0.25 0.15,-0.25 z"
             inkscape:connector-curvature="0"
             style="fill:#eadcbd" />
        </g>
        <g
           id="drawingObject5">
          <path
             id="path5"
             d="m 0.751,1.251 c -0.15,0 0.9,-0.95 1.75,-1.25 0.9,-0.35 2.25,0.15 2.65,0.1 l 0.1,-0.05 q 0.05,-0.55 -0.65,-1.15 -0.7,-0.55 -1.45,-0.65 c -1.15,-0.15 -2.55,1.1 -2.75,1.9 -0.15,0.7 0.1,1.05 -0.15,1.45 0.4,-0.05 0.95,-0.35 0.5,-0.35 z"
             inkscape:connector-curvature="0"
             style="fill:#b7ab93" />
        </g>
        <g
           id="drawingObject6">
          <path
             id="path6"
             d="m 3.751,-0.399 c -0.85,-0.2 -2.6,0.45 -3,1.4 -0.35,0.9 -1.3,4.75 -2.35,6.4 q -0.8,1.35 -1.55,1.9 -0.75,0.6 -2.15,0.95 l -0.5,-0.2 0.2,0.35 c 0.2,0.35 1.25,0.2 2,0 0.75,-0.15 4.7,-1.85 5.45,-2.3 0.75,-0.45 1.3,-1.35 2.15,-3.3 0.9,-1.95 1.4,-3.2 1.25,-4.15 -0.1,-0.9 -0.6,-0.85 -1.5,-1.05 z"
             inkscape:connector-curvature="0"
             style="fill:#eadcbd" />
        </g>
        <g
           id="drawingObject7">
          <path
             id="path7"
             d="m 3.451,0.251 c -1.35,0 -2,0.75 -2.3,1.3 -0.3,0.55 -0.95,3.3 -2.5,6.35 -0.7,1.4 -1.5,2.1 -2.25,2.5 0.75,-0.15 4.7,-1.85 5.45,-2.3 0.75,-0.45 1.3,-1.35 2.15,-3.3 0.8,-1.8 1.3,-2.95 1.25,-3.9 q -0.2,-0.65 -1.8,-0.65 z"
             inkscape:connector-curvature="0"
             style="fill:#b7ab93" />
        </g>
        <g
           id="drawingObject8">
          <path
             id="path8"
             d="m -0.149,-4.399 c 0,0 -0.4,1 0.6,1.2 l -0.6,-1.2 z"
             inkscape:connector-curvature="0"
             style="fill:#b7ab93" />
        </g>
        <g
           id="drawingObject9">
          <path
             id="path9"
             d="m -4.499,5.901 -0.1,-0.8 -0.1,0.6 q -0.05,0.8 0.15,1.6 c 0.4,1.3 1.45,1.95 1.45,1.95 0,0 -0.55,-0.9 -1,-1.85 -0.45,-0.9 -0.5,-2.3 -0.5,-2.3"
             inkscape:connector-curvature="0"
             style="fill:#7c6a50" />
        </g>
        <g
           id="drawingObject10">
          <path
             id="path10"
             d="m -4.099,2.801 c -0.05,1.1 0.5,1.6 0.5,1.6 q -0.4,-0.9 -0.15,-2.25 c 0.25,-1.3 0.65,-3.15 0.9,-3.3 0.25,-0.1 2.7,-2 2.7,-2 0,0 -1.95,1 -2.6,1.65 -0.6,0.6 -1.3,3.15 -1.35,4.3 z"
             inkscape:connector-curvature="0"
             style="fill:#f6ebd1" />
        </g>
      </g>
    </g>
  </g>
</svg>
