<?xml version="1.0" encoding="UTF-8" standalone="no"?>
<!-- Generator: flash2svg, http://dissentgraphics.com/tools/flash2svg -->

<svg
   xmlns:dc="http://purl.org/dc/elements/1.1/"
   xmlns:cc="http://creativecommons.org/ns#"
   xmlns:rdf="http://www.w3.org/1999/02/22-rdf-syntax-ns#"
   xmlns:svg="http://www.w3.org/2000/svg"
   xmlns="http://www.w3.org/2000/svg"
   xmlns:xlink="http://www.w3.org/1999/xlink"
   xmlns:sodipodi="http://sodipodi.sourceforge.net/DTD/sodipodi-0.dtd"
   xmlns:inkscape="http://www.inkscape.org/namespaces/inkscape"
   id="AvatarAssets"
   image-rendering="auto"
   version="1.1"
   x="0px"
   y="0px"
   width="11.559528"
   height="14.951"
   viewBox="0 0 11.559528 14.951"
   inkscape:version="0.48.4 r9939"
   sodipodi:docname="AvatarAssets_backPantsLegUpperLeftB011.svg">
  <metadata
     id="metadata3320">
    <rdf:RDF>
      <cc:Work
         rdf:about="">
        <dc:format>image/svg+xml</dc:format>
        <dc:type
           rdf:resource="http://purl.org/dc/dcmitype/StillImage" />
      </cc:Work>
    </rdf:RDF>
  </metadata>
  <sodipodi:namedview
     pagecolor="#ffffff"
     bordercolor="#666666"
     borderopacity="1"
     objecttolerance="10"
     gridtolerance="10"
     guidetolerance="10"
     inkscape:pageopacity="0"
     inkscape:pageshadow="2"
     inkscape:window-width="640"
     inkscape:window-height="480"
     id="namedview3318"
     showgrid="false"
     fit-margin-top="0"
     fit-margin-left="0"
     fit-margin-right="0"
     fit-margin-bottom="0"
     inkscape:zoom="1.9032258"
     inkscape:cx="37.216528"
     inkscape:cy="-50.049"
     inkscape:window-x="0"
     inkscape:window-y="0"
     inkscape:window-maximized="0"
     inkscape:current-layer="AvatarAssets" />
  <defs
     id="defs3294">
    <pattern
       id="bitmap"
       patternContentUnits="userSpaceOnUse"
       patternUnits="userSpaceOnUse"
       width="200"
       height="200"
       viewBox="0 0 200 200"
       patternTransform="matrix(1 0 0 1 -99.549 -95.599)">
      <symbol
         id="Denim_Texture_symbol"
         viewBox="0 0 200 200">
        <image
           sodipodi:absref="C:\Users\Training\Documents\GitHub\Glitchen-Avatar-Engine\glitch-avatars-svg\base_avatar\AvatarAssets.fla\clothing\back\Denim_Texture"
           xlink:href="Denim_Texture"
           height="200"
           width="200"
           id="Denim_Texture" />
      </symbol>
      <use
         id="Denim_Texture_use"
         width="200"
         height="200"
         y="0"
         x="0"
         xlink:href="#Denim_Texture_symbol"
         externalResourcesRequired="true" />
    </pattern>
    <pattern
       id="bitmap1"
       patternContentUnits="userSpaceOnUse"
       patternUnits="userSpaceOnUse"
       width="200"
       height="200"
       viewBox="0 0 200 200"
       patternTransform="matrix(1 0 0 1 -99.499 -95.549)">
      <symbol
         id="symbol3301"
         viewBox="0 0 200 200">
        <image
           sodipodi:absref="C:\Users\Training\Documents\GitHub\Glitchen-Avatar-Engine\glitch-avatars-svg\base_avatar\AvatarAssets.fla\clothing\back\Denim_Texture"
           xlink:href="Denim_Texture"
           height="200"
           width="200"
           id="image3303" />
      </symbol>
      <use
         id="use3305"
         width="200"
         height="200"
         y="0"
         x="0"
         xlink:href="#Denim_Texture_symbol"
         externalResourcesRequired="true" />
    </pattern>
  </defs>
  <g
     id="backPantsLegUpperLeftB12"
     overflow="visible"
     style="overflow:visible"
     transform="translate(5.2165279,3)">
    <g
       id="backPantsLegUpperLeftB011_0">
      <g
         id="element">
        <g
           id="drawingObject">
          <path
             id="path"
             d="m 1.524,8.651 c 0,0 0.829,0.1 1.036,0.9 0.207,0.8 -0.104,1.55 -0.104,1.55 0,0 0.467,-0.45 0.985,-1.55 0.466,-1.05 0.57,-1.4 0.933,-1.75 0.362,-0.4 0.466,0.15 1.243,0.8 0.726,0.6 0.57,1.5 0.57,1.5 0,0 0.156,-0.7 0.156,-1.25 q 0,-0.45 -0.622,-1.6 -0.674,-1.25 -1.451,-2 c 0,0 -8.654,-0.4 -8.809,1.9 -0.207,2.3 0.155,1.5 0.155,1.5 l 0.104,-0.35 c 0.104,-0.35 0.777,-0.5 0.777,0 0,0.55 0.156,0.45 0.156,0.45 l 0.57,-0.55 0.57,-0.15 c 0.57,-0.2 0,0 0.518,0.25 0.466,0.3 0.725,0.2 1.295,0.45 l 0.778,0.4 1.14,-0.5 z"
             inkscape:connector-curvature="0"
             style="fill:#d0ebeb" />
        </g>
        <g
           id="drawingObject1">
          <path
             id="path1"
             d="M 5.9,0.5 C 5.35,-1.75 2.8,-2.95 1.45,-3 c -2.2,0 -4.1,1.65 -4.95,2.9 -0.6,1 -1.3,4.4 -1.55,5.7 L -5.1,5.8 c -0.35,1.25 0.2,2.05 0.2,2.05 l 0.2,-0.8 0.65,1.15 c 0.4,0.8 0.35,1.35 0.35,1.35 0,0 0.3,-0.1 0.25,-0.35 0,-0.3 0.15,-1.7 0.65,-1.7 0.45,0 0.45,0.35 1.7,0.6 1.25,0.3 0.45,0.1 1.05,0.45 0.25,0.15 0.3,0.35 0.3,0.5 L 0.45,8.5 1,8.3 0.45,8.5 c 0,0 1.05,-0.45 1.4,-0.3 0.35,0.2 0.3,0.75 0.3,1.7 0,1 0.25,1.95 0.25,1.95 l 0,-0.5 C 2.4,10.8 2.8,10.55 3.2,8.85 3.55,7.15 4.6,7.3 4.6,7.3 L 6.2,8.75 5.95,6.15 6.05,6.05 6.1,5.45 C 6.15,5 6.4,2.75 5.9,0.5 z"
             inkscape:connector-curvature="0"
             style="fill:url(#bitmap1)" />
        </g>
        <g
           id="drawingObject2">
          <path
             id="path2"
             d="m 5.993,0.601 c -0.467,-2.05 -2.695,-3.25 -4.094,-3.45 0.57,0.7 0.777,1.6 0.829,2.6 0.052,1.8 0.829,2.8 -0.673,4.1 l -1.814,1.45 1.451,0.05 -1.451,-0.05 c 0,0 2.954,-0.3 2.746,1.1 -0.103,0.65 -2.28,1.35 -3.057,1.2 q -0.311,-0.05 -0.933,-0.4 -0.518,-0.25 -1.036,-0.25 c -0.933,0 -1.503,1.1 -1.295,1.6 l 0.051,0.1 c 0.104,-0.45 0.259,-1.05 0.57,-1.05 0.467,0 0.467,0.35 1.71,0.6 1.244,0.3 0.467,0.1 1.037,0.45 0.259,0.15 0.311,0.35 0.311,0.5 l 0.207,-0.55 0.57,-0.2 -0.57,0.2 c 0,0 1.036,-0.45 1.399,-0.3 0.363,0.2 0.311,0.75 0.311,1.7 0,1 0.259,1.95 0.259,1.95 l 0,-0.5 c 0,-0.55 0.363,-0.8 0.777,-2.5 0.363,-1.7 1.399,-1.55 1.399,-1.55 l 1.607,1.45 -0.259,-2.6 0.103,-0.1 0.052,-0.6 c 0.052,-0.45 0.311,-2.7 -0.207,-4.95 z"
             inkscape:connector-curvature="0"
             style="fill:#000000;fill-opacity:0.2" />
        </g>
        <g
           id="drawingObject3">
          <path
             id="path3"
             d="m -2.091,0.651 c 0.622,-1 0.777,-1.6 0.777,-1.6 q -0.673,0.15 -1.347,1.4 -0.725,1.2 -0.725,2.1 c -0.052,1.2 -0.311,2.3 -0.622,3.1 -0.363,0.85 -0.104,1.95 -0.104,1.95 0,0 0.726,-1.2 0.933,-3.2 0.207,-2 0.415,-2.75 1.088,-3.75 z"
             inkscape:connector-curvature="0"
             style="fill:#ffffff;fill-opacity:0.2" />
        </g>
      </g>
    </g>
  </g>
</svg>
