<?xml version="1.0" encoding="UTF-8" standalone="no"?>
<!-- Generator: flash2svg, http://dissentgraphics.com/tools/flash2svg -->

<svg
   xmlns:dc="http://purl.org/dc/elements/1.1/"
   xmlns:cc="http://creativecommons.org/ns#"
   xmlns:rdf="http://www.w3.org/1999/02/22-rdf-syntax-ns#"
   xmlns:svg="http://www.w3.org/2000/svg"
   xmlns="http://www.w3.org/2000/svg"
   xmlns:sodipodi="http://sodipodi.sourceforge.net/DTD/sodipodi-0.dtd"
   xmlns:inkscape="http://www.inkscape.org/namespaces/inkscape"
   id="AvatarAssets"
   image-rendering="auto"
   version="1.1"
   x="0px"
   y="0px"
   width="10.95"
   height="10.624332"
   viewBox="0 0 10.95 10.624332"
   inkscape:version="0.48.4 r9939"
   sodipodi:docname="AvatarAssets_backShoeLeftD011.svg">
  <metadata
     id="metadata3313">
    <rdf:RDF>
      <cc:Work
         rdf:about="">
        <dc:format>image/svg+xml</dc:format>
        <dc:type
           rdf:resource="http://purl.org/dc/dcmitype/StillImage" />
      </cc:Work>
    </rdf:RDF>
  </metadata>
  <sodipodi:namedview
     pagecolor="#ffffff"
     bordercolor="#666666"
     borderopacity="1"
     objecttolerance="10"
     gridtolerance="10"
     guidetolerance="10"
     inkscape:pageopacity="0"
     inkscape:pageshadow="2"
     inkscape:window-width="640"
     inkscape:window-height="480"
     id="namedview3311"
     showgrid="false"
     fit-margin-top="0"
     fit-margin-left="0"
     fit-margin-right="0"
     fit-margin-bottom="0"
     inkscape:zoom="1.9032258"
     inkscape:cx="37.449"
     inkscape:cy="-51.399"
     inkscape:window-x="0"
     inkscape:window-y="0"
     inkscape:window-maximized="0"
     inkscape:current-layer="AvatarAssets" />
  <defs
     id="defs3298" />
  <g
     id="backShoeLeftD12"
     overflow="visible"
     style="overflow:visible"
     transform="translate(5.449,0.02333224)">
    <g
       id="backShoeLeftD011_0">
      <g
         id="element">
        <g
           id="drawingObject">
          <path
             id="path"
             d="m -0.549,8.201 c 2,-1.5 4.7,-3.75 5.3,-5 0.65,-1.25 0.75,-2.65 0.75,-2.65 l -0.35,-0.45 c -0.4,-0.4 -3.1,0.25 -4.1,0.75 -1,0.5 -2.15,3.45 -3.6,6 q -0.9,1.65 -2,2.55 l -0.9,0.55 0,0.65 0.65,-0.1 c 0.6,-0.15 2.25,-0.8 4.25,-2.3 z"
             inkscape:connector-curvature="0"
             style="fill:#976d24" />
        </g>
        <g
           id="drawingObject1">
          <path
             id="path1"
             d="m 5.501,0.551 c -0.2,-0.35 -3,0.45 -4,1.15 q -0.65,0.4 -1.65,2.15 -0.1,0.1 -2.15,3.75 c -1.25,2.2 -2.55,2.8 -3.15,3 l 0.65,-0.1 c 0.6,-0.15 2.25,-0.8 4.25,-2.3 2,-1.5 4.7,-3.75 5.3,-5 0.65,-1.25 0.75,-2.65 0.75,-2.65 z"
             inkscape:connector-curvature="0"
             style="fill:#583d10" />
        </g>
        <g
           id="drawingObject2">
          <path
             id="path2"
             d="m 4.001,0.451 c -0.95,0.05 -2.1,0.8 -2.55,0.85 -0.4,0 -0.4,-0.45 -0.4,-0.45 l 0.05,0.25 -0.05,-0.25 0.1,0.75 -1.4,1.75 -0.85,2.15 0.35,-0.65 c 0.4,-0.6 1.3,-2.05 2.25,-3.15 0.95,-1.15 3.7,-1.25 3.7,-1.25 0,0 -0.25,-0.1 -1.2,0 z"
             inkscape:connector-curvature="0"
             style="fill:#c58e30" />
        </g>
        <g
           id="drawingObject3">
          <path
             id="path3"
             d="m -3.949,4.201 c 0.35,-1.45 0.95,-2.45 -0.05,-1.7 q -0.35,0.25 -0.6,2 -0.15,1.35 -0.15,2.75 c 0,1.35 0.9,2.25 1,1.75 0.15,-0.5 -0.55,-3.4 -0.2,-4.8 z"
             inkscape:connector-curvature="0"
             style="fill:#583d10" />
        </g>
      </g>
    </g>
  </g>
</svg>
