<?xml version="1.0" encoding="UTF-8" standalone="no"?>
<!-- Generator: flash2svg, http://dissentgraphics.com/tools/flash2svg -->

<svg
   xmlns:dc="http://purl.org/dc/elements/1.1/"
   xmlns:cc="http://creativecommons.org/ns#"
   xmlns:rdf="http://www.w3.org/1999/02/22-rdf-syntax-ns#"
   xmlns:svg="http://www.w3.org/2000/svg"
   xmlns="http://www.w3.org/2000/svg"
   xmlns:xlink="http://www.w3.org/1999/xlink"
   xmlns:sodipodi="http://sodipodi.sourceforge.net/DTD/sodipodi-0.dtd"
   xmlns:inkscape="http://www.inkscape.org/namespaces/inkscape"
   id="Avatar"
   image-rendering="auto"
   version="1.1"
   x="0px"
   y="0px"
   width="20.477186"
   height="42.580448"
   viewBox="0 0 20.477186 42.580448"
   inkscape:version="0.48.4 r9939"
   sodipodi:docname="Avatar_sideTorsoContainer.svg">
  <metadata
     id="metadata41">
    <rdf:RDF>
      <cc:Work
         rdf:about="">
        <dc:format>image/svg+xml</dc:format>
        <dc:type
           rdf:resource="http://purl.org/dc/dcmitype/StillImage" />
      </cc:Work>
    </rdf:RDF>
  </metadata>
  <sodipodi:namedview
     pagecolor="#ffffff"
     bordercolor="#666666"
     borderopacity="1"
     objecttolerance="10"
     gridtolerance="10"
     guidetolerance="10"
     inkscape:pageopacity="0"
     inkscape:pageshadow="2"
     inkscape:window-width="640"
     inkscape:window-height="480"
     id="namedview39"
     showgrid="false"
     fit-margin-top="0"
     fit-margin-left="0"
     fit-margin-right="0"
     fit-margin-bottom="0"
     inkscape:zoom="1.8730159"
     inkscape:cx="43.283748"
     inkscape:cy="35.775303"
     inkscape:window-x="0"
     inkscape:window-y="0"
     inkscape:window-maximized="0"
     inkscape:current-layer="Avatar" />
  <defs
     id="defs3">
    <pattern
       id="bitmap"
       patternContentUnits="userSpaceOnUse"
       patternUnits="userSpaceOnUse"
       width="200"
       height="200"
       viewBox="0 0 200 200"
       patternTransform="matrix(1 0 0 1 -79.649 -33.249)">
      <symbol
         id="Avatar_Texture_symbol"
         viewBox="0 0 200 200">
        <image
           sodipodi:absref="C:\Users\Training\Documents\GitHub\glitch-avatars\base_avatar\Avatar_Texture"
           xlink:href="Avatar_Texture"
           height="200"
           width="200"
           id="Avatar_Texture" />
      </symbol>
      <use
         id="Avatar_Texture_use"
         width="200"
         height="200"
         y="0"
         x="0"
         xlink:href="#Avatar_Texture_symbol"
         externalResourcesRequired="true" />
    </pattern>
    <linearGradient
       gradientUnits="userSpaceOnUse"
       color-interpolation="sRGB"
       x1="25.924999"
       y1="48.112499"
       x2="23.674999"
       y2="59.587502"
       id="linearGradient">
      <stop
         stop-color="#000"
         stop-opacity="1"
         offset="0"
         id="stop10" />
      <stop
         stop-color="#000"
         stop-opacity="0"
         offset="1"
         id="stop12" />
    </linearGradient>
    <pattern
       id="bitmap1"
       patternContentUnits="userSpaceOnUse"
       patternUnits="userSpaceOnUse"
       width="200"
       height="200"
       viewBox="0 0 200 200"
       patternTransform="matrix(1 0 0 1 -98.949 -118.049)">
      <symbol
         id="symbol15"
         viewBox="0 0 200 200">
        <image
           sodipodi:absref="C:\Users\Training\Documents\GitHub\glitch-avatars\base_avatar\Avatar_Texture"
           xlink:href="Avatar_Texture"
           height="200"
           width="200"
           id="image17" />
      </symbol>
      <use
         id="use19"
         width="200"
         height="200"
         y="0"
         x="0"
         xlink:href="#Avatar_Texture_symbol"
         externalResourcesRequired="true" />
    </pattern>
    <linearGradient
       gradientUnits="userSpaceOnUse"
       color-interpolation="sRGB"
       x1="6.526"
       y1="-36.786999"
       x2="4.276"
       y2="-25.311001"
       id="linearGradient1">
      <stop
         stop-color="#000"
         stop-opacity="1"
         offset="0"
         id="stop22" />
      <stop
         stop-color="#000"
         stop-opacity="0"
         offset="1"
         id="stop24" />
    </linearGradient>
  </defs>
  <g
     id="sideTorsoContainer1"
     overflow="visible"
     style="overflow:visible"
     transform="translate(9.2837484,39.349)">
    <g
       id="sideTorsoContainer_0_0">
      <g
         id="element"
         overflow="visible"
         style="overflow:visible">
        <g
           id="sideTorso_0">
          <g
             id="element1">
            <g
               id="drawingObject">
              <path
                 id="path"
                 d="m -1.399,-37.799 -0.15,-1.55 c 0,0 0.45,2.85 -0.05,3.95 l -0.5,1.25 q -0.65,1.4 -1.5,2.2 c -1.35,1.3 -3.2,6.35 -3.3,9.55 -0.05,3.25 -1.75,11.7 -2.1,14.2 -0.35,2.55 -0.6,5.75 0.65,7.35 1.25,1.55 3.75,3.15 8.25,3.8 4.75,0.65 8.8,-0.55 10.05,-3.8 1.2,-3.1 1.9,-6.15 0.35,-16.3 -1.3,-9 -5.35,-10 -5.75,-16.25 -0.15,-2.6 0.6,-5.2 0.6,-5.2 l -0.35,1.65 0.35,-1.65 -6.7,-0.75"
                 inkscape:connector-curvature="0"
                 style="fill:url(#bitmap1)" />
            </g>
            <g
               id="drawingObject1">
              <path
                 id="path1"
                 d="m 2.401,-15.399 1.55,-1.75 c 0,0 -1.15,-0.45 -1.8,-1.1 -0.7,-0.7 -1.1,-1.75 -1.35,-3.8 -0.55,-3.75 -1.8,-5.7 -3.15,-5.45 -3.25,0.6 -2.25,-1.1 -2.9,0.2 l -0.6,-0.05 c -0.6,1.75 -1,3.6 -1.05,5.05 -0.05,3.25 -1.75,11.7 -2.1,14.2 -0.35,2.55 -0.6,5.75 0.65,7.35 1.25,1.55 3.75,3.15 8.25,3.8 4.75,0.65 8.8,-0.55 10.05,-3.8 0.3,-0.85 0.6,-1.7 0.85,-2.75 -0.85,2 -1.35,3.65 -5.7,2.75 q -3.95,-0.8 -4.8,-4.6 -0.5,-2.25 0.15,-6 c 0.5,-3.1 3.5,-5.8 3.5,-5.8"
                 inkscape:connector-curvature="0"
                 style="fill:#000000;fill-opacity:0.2" />
            </g>
            <g
               id="drawingObject2">
              <path
                 id="path2"
                 d="m -1.599,-14.049 c 0.55,-2.6 0.65,-3.95 1.1,-7.6 0.4,-3.1 -1.75,-6.35 -2.4,-6.95 -0.8,-0.75 -0.95,-1.3 -2.2,-0.75 -0.9,2.1 -1.7,4.95 -1.8,7.05 -0.05,3.25 -1.75,11.7 -2.1,14.2 -0.35,2.55 -0.6,5.75 0.65,7.35 1.25,1.55 3.75,3.15 8.25,3.8 3.9,0.55 7.3,-0.15 9.1,-2.2 -2.95,1.75 -7.95,0.25 -9.9,-4.2 q -2,-4.55 -0.7,-10.7 z"
                 inkscape:connector-curvature="0"
                 style="fill:#000000;fill-opacity:0.2" />
            </g>
            <g
               id="drawingObject3">
              <path
                 id="path3"
                 d="m -1.399,-37.799 -0.15,-1.55 c 0,0 0.45,2.85 -0.05,3.95 l -0.5,1.25 q -0.65,1.4 -1.5,2.2 c -1.35,1.3 -3.2,6.35 -3.3,9.55 -0.05,3.25 -1.75,11.7 -2.1,14.2 -0.35,2.55 -0.6,5.75 0.65,7.35 1.25,1.55 3.75,3.15 8.25,3.8 4.75,0.65 8.8,-0.55 10.05,-3.8 1.2,-3.1 1.9,-6.15 0.35,-16.3 -1.3,-9 -5.35,-10 -5.75,-16.25 -0.15,-2.6 0.6,-5.2 0.6,-5.2 l -0.35,1.65 0.35,-1.65 -6.7,-0.75"
                 inkscape:connector-curvature="0"
                 style="fill:url(#linearGradient1)" />
            </g>
          </g>
        </g>
      </g>
    </g>
  </g>
</svg>
