<?xml version="1.0" encoding="UTF-8" standalone="no"?>
<!-- Generator: flash2svg, http://dissentgraphics.com/tools/flash2svg -->

<svg
   xmlns:dc="http://purl.org/dc/elements/1.1/"
   xmlns:cc="http://creativecommons.org/ns#"
   xmlns:rdf="http://www.w3.org/1999/02/22-rdf-syntax-ns#"
   xmlns:svg="http://www.w3.org/2000/svg"
   xmlns="http://www.w3.org/2000/svg"
   xmlns:sodipodi="http://sodipodi.sourceforge.net/DTD/sodipodi-0.dtd"
   xmlns:inkscape="http://www.inkscape.org/namespaces/inkscape"
   id="AvatarAssets"
   image-rendering="auto"
   version="1.1"
   x="0px"
   y="0px"
   width="12.4985"
   height="16.166964"
   viewBox="0 0 12.4985 16.166964"
   inkscape:version="0.48.4 r9939"
   sodipodi:docname="AvatarAssets_pantsLegUpperOffsideA011.svg">
  <metadata
     id="metadata3902">
    <rdf:RDF>
      <cc:Work
         rdf:about="">
        <dc:format>image/svg+xml</dc:format>
        <dc:type
           rdf:resource="http://purl.org/dc/dcmitype/StillImage" />
      </cc:Work>
    </rdf:RDF>
  </metadata>
  <sodipodi:namedview
     pagecolor="#ffffff"
     bordercolor="#666666"
     borderopacity="1"
     objecttolerance="10"
     gridtolerance="10"
     guidetolerance="10"
     inkscape:pageopacity="0"
     inkscape:pageshadow="2"
     inkscape:window-width="640"
     inkscape:window-height="480"
     id="namedview3900"
     showgrid="false"
     fit-margin-top="0"
     fit-margin-left="0"
     fit-margin-right="0"
     fit-margin-bottom="0"
     inkscape:zoom="1.9032258"
     inkscape:cx="38.633"
     inkscape:cy="-46.847424"
     inkscape:window-x="0"
     inkscape:window-y="0"
     inkscape:window-maximized="0"
     inkscape:current-layer="AvatarAssets" />
  <defs
     id="defs3883" />
  <g
     id="pantsLegUpperOffsideA12"
     overflow="visible"
     style="overflow:visible"
     transform="translate(6.633,1.0143869)">
    <g
       id="pantsLegUpperOffsideA011_0">
      <g
         id="element">
        <g
           id="drawingObject">
          <path
             id="path"
             d="m -0.007,13.001 c 0,0 -2.338,-0.8 -2.634,0.15 -0.296,0.9 0.636,2.05 2.964,2 3.614,-0.1 4.15,-1.5 4.15,-1.5 l -0.728,0.7 0.728,-0.7 -4.48,-0.65 z"
             inkscape:connector-curvature="0"
             style="fill:#000000;fill-opacity:0.25099996" />
        </g>
        <g
           id="drawingObject1">
          <path
             id="path1"
             d="m -1.776,14.101 c -0.429,0 -1.965,-0.35 -2.521,-0.75 q -0.124,-0.1 -0.12,0.2 0.063,0.15 0.064,0.3 l 0.74,0.35 -0.74,-0.35 c 0,0 1.172,0.7 2.213,0.6 1.04,-0.15 0.854,-0.3 0.364,-0.35 z"
             inkscape:connector-curvature="0"
             style="fill:#513c1d" />
        </g>
        <g
           id="drawingObject2">
          <path
             id="path2"
             d="m 0.076,-0.999 c -2.822,-0.25 -4.567,2.6 -4.911,4.65 -0.29,1.5 -1.463,6.15 -1.798,9 0.373,0.5 1.297,0.9 2.28,1.2 l 1.182,-3.85 0.662,4.35 0.369,0.1 c 3.564,0.95 6.737,-0.25 7.893,-1 0.398,-2.7 -0.34,-8.45 -0.966,-9.6 Q 3.224,1.101 3.1,0.951 1.793,-0.849 0.076,-0.999 z"
             inkscape:connector-curvature="0"
             style="fill:#815e2b" />
        </g>
        <g
           id="drawingObject3">
          <path
             id="path3"
             d="m 0.076,-0.999 c -2.822,-0.25 -4.567,2.6 -4.911,4.65 -0.29,1.5 -1.463,6.15 -1.798,9 0.186,0.25 0.557,0.5 0.988,0.7 -0.067,-0.5 0.615,0.2 0.917,-0.2 0.362,-0.5 1.076,-2.35 1.379,-2.65 l 0.178,-0.5 0.662,4.35 0.369,0.1 c 2.028,0.55 2.821,0.25 4.349,-0.1 1.713,-0.25 2.87,-0.85 3.601,-1.25 l 0.047,-1.3 q -0.721,1.25 -2.004,1.65 c 0,0 -1.283,0.3 -2.33,-0.2 -1.109,-0.5 -2.41,-1.75 -2.968,-2.35 -0.557,-0.55 -1.305,-1.65 -1.676,-1.95 -0.372,-0.35 -1.05,-0.7 -1.42,-0.95 -0.371,-0.25 0.532,-1.7 1.081,-1.9 0.488,-0.2 1.797,1.75 2.968,2.35 1.172,0.65 2.33,0.1 2.33,0.1 -0.867,-0.8 -1.16,0.4 -2.646,-0.95 -1.176,-1.05 -0.883,-2.25 -1.134,-2.75 -0.189,-0.5 0.033,-2.5 0.396,-2.95 0.301,-0.45 0.784,-1.1 1.821,-1.55 0.609,-0.3 1.963,0.2 3.011,0.8 -0.747,-1.05 -1.799,-2 -3.21,-2.15 z"
             inkscape:connector-curvature="0"
             style="fill:#725529" />
        </g>
        <g
           id="drawingObject4">
          <path
             id="path4"
             d="m -3.259,7.551 0.802,0.5 q -0.133,-0.95 0.035,-2.35 c 0.113,-0.85 -0.013,-1.1 0.041,-1.75 0.054,-0.65 0.05,-1 0.167,-1.5 l 0.112,-0.9 -0.469,1.8 c -0.234,1.05 -0.157,2.45 -0.396,2.95 l -0.292,1.25 z"
             inkscape:connector-curvature="0"
             style="fill:#946c30" />
        </g>
        <g
           id="drawingObject5">
          <path
             id="path5"
             d="m 0.502,9.651 c 0.251,0.5 1.491,1.8 2.476,2.2 0.984,0.35 2.142,-0.2 2.142,-0.2 l -0.608,0.45 0.608,-0.45 c 0,0 -1.337,0.95 -0.91,0.85 0.49,-0.05 1.528,-0.35 1.453,-1.55 -0.074,-1.2 -0.215,-2.8 -0.88,-2 q -0.605,0.7 -2.506,0.55 C 1.051,9.451 0.251,9.151 0.502,9.651 z"
             inkscape:connector-curvature="0"
             style="fill:#946c30" />
        </g>
      </g>
    </g>
  </g>
</svg>
