<?xml version="1.0" encoding="UTF-8" standalone="no"?>
<!-- Generator: flash2svg, http://dissentgraphics.com/tools/flash2svg -->

<svg
   xmlns:dc="http://purl.org/dc/elements/1.1/"
   xmlns:cc="http://creativecommons.org/ns#"
   xmlns:rdf="http://www.w3.org/1999/02/22-rdf-syntax-ns#"
   xmlns:svg="http://www.w3.org/2000/svg"
   xmlns="http://www.w3.org/2000/svg"
   xmlns:sodipodi="http://sodipodi.sourceforge.net/DTD/sodipodi-0.dtd"
   xmlns:inkscape="http://www.inkscape.org/namespaces/inkscape"
   id="AvatarAssets"
   image-rendering="auto"
   version="1.1"
   x="0px"
   y="0px"
   width="20.022497"
   height="11.9"
   viewBox="0 0 20.022497 11.9"
   inkscape:version="0.48.4 r9939"
   sodipodi:docname="AvatarAssets_bootOffsideC010.svg">
  <metadata
     id="metadata17">
    <rdf:RDF>
      <cc:Work
         rdf:about="">
        <dc:format>image/svg+xml</dc:format>
        <dc:type
           rdf:resource="http://purl.org/dc/dcmitype/StillImage" />
      </cc:Work>
    </rdf:RDF>
  </metadata>
  <sodipodi:namedview
     pagecolor="#ffffff"
     bordercolor="#666666"
     borderopacity="1"
     objecttolerance="10"
     gridtolerance="10"
     guidetolerance="10"
     inkscape:pageopacity="0"
     inkscape:pageshadow="2"
     inkscape:window-width="640"
     inkscape:window-height="480"
     id="namedview15"
     showgrid="false"
     fit-margin-top="0"
     fit-margin-left="0"
     fit-margin-right="0"
     fit-margin-bottom="0"
     inkscape:zoom="1.9032258"
     inkscape:cx="39.271"
     inkscape:cy="-50.849"
     inkscape:window-x="0"
     inkscape:window-y="0"
     inkscape:window-maximized="0"
     inkscape:current-layer="AvatarAssets" />
  <defs
     id="defs3" />
  <g
     id="bootOffsideC11"
     overflow="visible"
     style="overflow:visible"
     transform="translate(7.271,0.749)">
    <g
       id="bootOffsideC010_0">
      <g
         id="element">
        <g
           id="drawingObject">
          <path
             id="path"
             d="m 6.251,0.251 -3.8,-1 c -0.4,1.25 -2.15,2 -5.3,2.2 -1.35,-0.25 -2.2,-0.9 -2.6,-1.85 l -0.8,1.3 c -0.45,0.75 -0.65,1.55 -0.65,2.4 0.05,1.85 0,3.2 2,4.3 1.9,1.2 5.55,2.2 6.9,2.5 1.35,0.45 3.4,0.8 4.8,1.05 1.45,-0.2 2.75,-0.95 4.05,-2.3 1.7,-1.7 2.05,-3.5 1.85,-4.85 q -0.05,-1.9 -3.65,-3 c -0.8,-0.2 -1.75,-0.45 -2.8,-0.75 z"
             inkscape:connector-curvature="0"
             style="fill:#333636" />
        </g>
        <g
           id="group1">
          <g
             id="drawingObject1">
            <path
               id="path1"
               d="M 1.721,0.525 C 1.016,0.997 -0.689,1.292 -3.392,1.351 -4.861,0.879 -5.625,0.407 -5.684,-0.065 l -0.823,1.062 c -0.529,0.649 -0.764,1.357 -0.764,2.183 0.059,1.888 0,3.186 1.998,4.425 1.998,1.121 5.701,2.183 6.994,2.419 1.234,0.413 3.409,0.826 4.819,0.885 1.293,0.059 2.645,-0.708 3.879,-2.065 1.763,-1.711 2.175,-3.481 1.998,-4.838 Q 12.476,3.298 11.771,2.649 c 0.352,0.649 0.352,1.357 0.117,2.006 C 11.653,5.599 8.95,7.133 7.833,7.074 6.775,7.251 6.129,6.543 6.481,5.894 6.775,5.186 8.773,3.416 8.773,3.416 L 7.716,4.419 8.773,3.416 C 7.892,3.829 6.775,4.183 5.424,4.36 4.072,4.537 2.661,4.419 1.133,4.006 -0.336,3.534 -0.16,2.354 1.721,0.525 z"
               inkscape:connector-curvature="0"
               style="fill:#2c2e2e" />
          </g>
        </g>
        <g
           id="drawingObject2">
          <path
             id="path2"
             d="M -4.313,1.057 -5.446,-0.3 -6.636,0.821 c -0.397,0.766 -0.567,1.533 -0.567,2.359 0.057,1.887 0,3.184 1.983,4.422 1.983,1.121 5.667,2.182 6.97,2.418 1.246,0.413 3.399,0.826 4.816,0.885 1.303,0.058 2.663,-0.708 3.91,-2.064 1.133,-1.062 1.7,-2.182 1.983,-3.244 -0.34,0.767 -0.907,1.592 -1.983,2.536 q -1.247,1.179 -1.983,1.592 -0.794,0.413 -0.85,0 C 7.529,9.135 8.436,8.015 8.436,8.015 L 7.926,8.664 8.436,8.015 7.813,8.192 C 7.473,8.369 6.566,8.133 6.226,8.133 5.943,8.133 4.753,6.718 3.79,6.659 2.94,6.6 1.75,6.364 0.22,5.833 -1.197,5.302 -1.82,4.713 -1.65,4.005 -1.423,3.239 -1.253,2.472 -1.083,1.587 l -3.23,-0.53 z"
             inkscape:connector-curvature="0"
             style="fill:#242626" />
        </g>
      </g>
    </g>
  </g>
</svg>
