<?xml version="1.0" encoding="UTF-8" standalone="no"?>
<!-- Generator: flash2svg, http://dissentgraphics.com/tools/flash2svg -->

<svg
   xmlns:dc="http://purl.org/dc/elements/1.1/"
   xmlns:cc="http://creativecommons.org/ns#"
   xmlns:rdf="http://www.w3.org/1999/02/22-rdf-syntax-ns#"
   xmlns:svg="http://www.w3.org/2000/svg"
   xmlns="http://www.w3.org/2000/svg"
   xmlns:sodipodi="http://sodipodi.sourceforge.net/DTD/sodipodi-0.dtd"
   xmlns:inkscape="http://www.inkscape.org/namespaces/inkscape"
   id="AvatarAssets"
   image-rendering="auto"
   version="1.1"
   x="0px"
   y="0px"
   width="10.45"
   height="11.367678"
   viewBox="0 0 10.45 11.367678"
   inkscape:version="0.48.4 r9939"
   sodipodi:docname="AvatarAssets_pantsLegUpperOffsideA002.svg">
  <metadata
     id="metadata3708">
    <rdf:RDF>
      <cc:Work
         rdf:about="">
        <dc:format>image/svg+xml</dc:format>
        <dc:type
           rdf:resource="http://purl.org/dc/dcmitype/StillImage" />
      </cc:Work>
    </rdf:RDF>
  </metadata>
  <sodipodi:namedview
     pagecolor="#ffffff"
     bordercolor="#666666"
     borderopacity="1"
     objecttolerance="10"
     gridtolerance="10"
     guidetolerance="10"
     inkscape:pageopacity="0"
     inkscape:pageshadow="2"
     inkscape:window-width="640"
     inkscape:window-height="480"
     id="namedview3706"
     showgrid="false"
     fit-margin-top="0"
     fit-margin-left="0"
     fit-margin-right="0"
     fit-margin-bottom="0"
     inkscape:zoom="1.9032258"
     inkscape:cx="37.299"
     inkscape:cy="-51.481687"
     inkscape:window-x="0"
     inkscape:window-y="0"
     inkscape:window-maximized="0"
     inkscape:current-layer="AvatarAssets" />
  <defs
     id="defs3687" />
  <g
     id="pantsLegUpperOffsideA3"
     overflow="visible"
     style="overflow:visible"
     transform="translate(5.299,0.84936514)">
    <g
       id="pantsLegUpperOffsideA002_0">
      <g
         id="element">
        <g
           id="drawingObject">
          <path
             id="path"
             d="m -2.605,8.951 -0.367,0.15 c -0.244,0.1 -1.1,0.05 -1.711,0 0.245,0.75 2.445,0.8 2.445,0.8 l 0.244,0.05 c 0,0 2.995,0.8 4.339,0.5 0.856,-0.25 1.406,-0.65 1.65,-0.9 q -0.367,0.2 -1.222,0.3 l -1.65,0.1 -0.367,-0.05 -0.55,0 -0.367,-0.05 -0.122,0 -0.427,-0.1 c -0.978,-0.25 -1.895,-0.8 -1.895,-0.8 z"
             inkscape:connector-curvature="0"
             style="fill:#000000;fill-opacity:0.4" />
        </g>
        <g
           id="drawingObject1">
          <path
             id="path1"
             d="m 4.906,6.101 c -1.222,0.8 -2.444,1.5 -3.055,1.6 q -2.017,0.5 -2.017,1.1 l 0.856,0.1 c 1.65,0.05 3.544,-0.25 4.4,-1 -0.061,-0.7 -0.122,-1.3 -0.184,-1.8 z"
             inkscape:connector-curvature="0"
             style="fill:#9c2b1c" />
        </g>
        <g
           id="drawingObject2">
          <path
             id="path2"
             d="m 0.69,8.901 -0.856,-0.1 c 0,0.15 0.123,0.25 0.306,0.4 0.55,0.5 1.833,0.6 3.055,0.6 0.367,-0.05 0.673,-0.15 0.856,-0.25 l 1.1,-0.6 -0.061,-1.05 c -0.856,0.75 -2.75,1.05 -4.4,1 z"
             inkscape:connector-curvature="0"
             style="fill:#ded8d7" />
        </g>
        <g
           id="drawingObject3">
          <path
             id="path3"
             d="m 0.14,7.751 q -1.406,0.4 -1.711,0.55 c 0.428,0.2 0.916,0.4 1.405,0.5 0,-0.5 1.039,-0.85 2.017,-1.1 0.611,-0.1 1.833,-0.8 3.055,-1.6 l -0.061,-0.45 0,-0.05 c -0.855,0.65 -1.65,1.15 -2.2,1.35 q -0.916,0.35 -2.505,0.8 z"
             inkscape:connector-curvature="0"
             style="fill:#822417" />
        </g>
        <g
           id="drawingObject4">
          <path
             id="path4"
             d="m 0.262,9.901 0.55,0 0.367,0.05 0.061,0 1.528,-0.1 0.061,0 0.427,-0.05 c -1.283,0 -2.566,-0.1 -3.116,-0.6 q -0.306,-0.25 -0.306,-0.4 c -0.489,-0.1 -0.977,-0.3 -1.405,-0.5 -0.122,0.1 -0.245,0.15 -0.245,0.25 0,0.35 0.55,0.95 1.284,1.25 l 0,-0.025 0.305,0.075 0.122,0 0.367,0.05 z"
             inkscape:connector-curvature="0"
             style="fill:#aba6a5" />
        </g>
        <g
           id="drawingObject5">
          <path
             id="path5"
             d="m 4.784,5.251 c -0.305,-1.05 -0.916,-6.15 -5.805,-6.1 -0.672,0 -3.178,1.1 -3.545,3.3 -0.305,1.95 -0.611,4.6 -0.672,5.65 0.489,0 1.1,0 1.528,-0.25 l 0.794,-0.4 1.345,0.85 c 0.672,-0.35 2.444,-0.65 4.216,-1.35 0.55,-0.2 1.345,-0.7 2.2,-1.35 L 4.784,5.251 z"
             inkscape:connector-curvature="0"
             style="fill:#822417" />
        </g>
        <g
           id="drawingObject6">
          <path
             id="path6"
             d="m -5.238,8.101 0,0.05 -0.061,0.3 0,0.55 0.672,0.1 c 0.611,0.05 1.467,0.1 1.711,0 l 0.367,-0.15 0.611,0.3 -0.611,-0.3 c 0,0 0.917,0.55 1.894,0.8 l 0.184,0.05 c -0.795,-0.3 -1.345,-0.9 -1.345,-1.25 0,-0.1 0.123,-0.15 0.245,-0.25 l -1.345,-0.85 -0.794,0.4 c -0.428,0.25 -1.039,0.25 -1.528,0.25 z"
             inkscape:connector-curvature="0"
             style="fill:#969291" />
        </g>
      </g>
    </g>
  </g>
</svg>
