<?xml version="1.0" encoding="UTF-8" standalone="no"?>
<!-- Generator: flash2svg, http://dissentgraphics.com/tools/flash2svg -->

<svg
   xmlns:dc="http://purl.org/dc/elements/1.1/"
   xmlns:cc="http://creativecommons.org/ns#"
   xmlns:rdf="http://www.w3.org/1999/02/22-rdf-syntax-ns#"
   xmlns:svg="http://www.w3.org/2000/svg"
   xmlns="http://www.w3.org/2000/svg"
   xmlns:sodipodi="http://sodipodi.sourceforge.net/DTD/sodipodi-0.dtd"
   xmlns:inkscape="http://www.inkscape.org/namespaces/inkscape"
   id="AvatarAssets"
   image-rendering="auto"
   version="1.1"
   x="0px"
   y="0px"
   width="12.403802"
   height="16.316963"
   viewBox="0 0 12.403802 16.316963"
   inkscape:version="0.48.4 r9939"
   sodipodi:docname="AvatarAssets_pantsLegUpperOffsideA011b.svg">
  <metadata
     id="metadata3924">
    <rdf:RDF>
      <cc:Work
         rdf:about="">
        <dc:format>image/svg+xml</dc:format>
        <dc:type
           rdf:resource="http://purl.org/dc/dcmitype/StillImage" />
      </cc:Work>
    </rdf:RDF>
  </metadata>
  <sodipodi:namedview
     pagecolor="#ffffff"
     bordercolor="#666666"
     borderopacity="1"
     objecttolerance="10"
     gridtolerance="10"
     guidetolerance="10"
     inkscape:pageopacity="0"
     inkscape:pageshadow="2"
     inkscape:window-width="640"
     inkscape:window-height="480"
     id="namedview3922"
     showgrid="false"
     fit-margin-top="0"
     fit-margin-left="0"
     fit-margin-right="0"
     fit-margin-bottom="0"
     inkscape:zoom="1.9032258"
     inkscape:cx="38.728"
     inkscape:cy="-46.697424"
     inkscape:window-x="0"
     inkscape:window-y="0"
     inkscape:window-maximized="0"
     inkscape:current-layer="AvatarAssets" />
  <defs
     id="defs3905" />
  <g
     id="pantsLegUpperOffsideA011b1"
     overflow="visible"
     style="overflow:visible"
     transform="translate(6.728,1.0143869)">
    <g
       id="pantsLegUpperOffsideA011b_0">
      <g
         id="element">
        <g
           id="drawingObject">
          <path
             id="path"
             d="m -0.193,13.151 c 0,0 -2.316,-0.8 -2.613,0.15 -0.297,0.9 0.624,2.05 2.933,2 3.586,-0.1 4.122,-1.5 4.122,-1.5 l -0.724,0.7 0.724,-0.7 -4.442,-0.65 z"
             inkscape:connector-curvature="0"
             style="fill:#000000;fill-opacity:0.25099996" />
        </g>
        <g
           id="drawingObject1">
          <path
             id="path1"
             d="m -1.915,14.101 c -0.425,0 -1.948,-0.35 -2.498,-0.75 q -0.122,-0.1 -0.12,0.2 0.062,0.15 0.063,0.3 l 0.732,0.35 -0.732,-0.35 c 0,0 1.16,0.7 2.193,0.6 1.032,-0.15 0.849,-0.3 0.362,-0.35 z"
             inkscape:connector-curvature="0"
             style="fill:#af6593" />
        </g>
        <g
           id="drawingObject2">
          <path
             id="path2"
             d="m -0.021,-0.999 c -2.798,-0.25 -4.54,2.6 -4.889,4.65 -0.293,1.5 -1.474,6.15 -1.818,9 0.369,0.5 1.283,0.9 2.258,1.2 l 1.187,-3.85 0.64,4.35 0.366,0.1 c 3.532,0.95 6.684,-0.25 7.834,-1 0.405,-2.7 -0.306,-8.45 -0.923,-9.6 q -1.54,-2.75 -1.662,-2.9 -1.29,-1.8 -2.993,-1.95 z"
             inkscape:connector-curvature="0"
             style="fill:#fe8cd1" />
        </g>
        <g
           id="drawingObject3">
          <path
             id="path3"
             d="m -0.021,-0.999 c -2.798,-0.25 -4.54,2.6 -4.889,4.65 -0.293,1.5 -1.474,6.15 -1.818,9 0.185,0.25 0.551,0.5 0.978,0.7 -0.064,-0.5 0.609,0.2 0.91,-0.2 0.361,-0.5 1.077,-2.35 1.379,-2.65 l 0.178,-0.5 0.64,4.35 0.366,0.1 c 2.01,0.55 2.798,0.25 4.315,-0.1 1.7,-0.25 2.85,-0.85 3.577,-1.25 l 0.051,-1.3 q -0.72,1.25 -1.994,1.65 c 0,0 -1.274,0.3 -2.311,-0.2 -1.098,-0.5 -2.384,-1.75 -2.935,-2.35 -0.551,-0.55 -1.289,-1.65 -1.656,-1.95 -0.367,-0.35 -1.038,-0.7 -1.405,-0.95 -0.366,-0.25 0.535,-1.7 1.08,-1.9 0.485,-0.2 1.776,1.75 2.935,2.35 1.16,0.65 2.311,0.1 2.311,0.1 -0.857,-0.8 -1.152,0.4 -2.621,-0.95 -1.163,-1.05 -0.868,-2.25 -1.115,-2.75 -0.186,-0.5 0.043,-2.5 0.404,-2.95 0.301,-0.45 0.782,-1.1 1.812,-1.55 0.606,-0.3 1.947,0.2 2.984,0.8 -0.737,-1.05 -1.777,-2 -3.176,-2.15 z"
             inkscape:connector-curvature="0"
             style="fill:#c371a4" />
        </g>
        <g
           id="drawingObject4">
          <path
             id="path4"
             d="m -3.362,7.551 0.794,0.5 q -0.128,-0.95 0.044,-2.35 c 0.115,-0.85 -0.009,-1.1 0.047,-1.75 0.056,-0.65 0.054,-1 0.172,-1.5 l 0.114,-0.9 -0.472,1.8 c -0.236,1.05 -0.165,2.45 -0.404,2.95 l -0.295,1.25 z"
             inkscape:connector-curvature="0"
             style="fill:#fe8cd1" />
        </g>
        <g
           id="drawingObject5">
          <path
             id="path5"
             d="m 0.362,9.651 c 0.247,0.5 1.472,1.8 2.447,2.2 0.976,0.35 2.126,-0.2 2.126,-0.2 l -0.604,0.45 0.604,-0.45 c 0,0 -1.33,0.95 -0.905,0.85 0.486,-0.05 1.517,-0.35 1.447,-1.55 -0.069,-1.2 -0.203,-2.8 -0.866,-2 q -0.602,0.7 -2.488,0.55 C 0.907,9.451 0.115,9.151 0.362,9.651 z"
             inkscape:connector-curvature="0"
             style="fill:#fea4da" />
        </g>
      </g>
    </g>
  </g>
</svg>
