<?xml version="1.0" encoding="UTF-8" standalone="no"?>
<!-- Generator: flash2svg, http://dissentgraphics.com/tools/flash2svg -->

<svg
   xmlns:dc="http://purl.org/dc/elements/1.1/"
   xmlns:cc="http://creativecommons.org/ns#"
   xmlns:rdf="http://www.w3.org/1999/02/22-rdf-syntax-ns#"
   xmlns:svg="http://www.w3.org/2000/svg"
   xmlns="http://www.w3.org/2000/svg"
   xmlns:sodipodi="http://sodipodi.sourceforge.net/DTD/sodipodi-0.dtd"
   xmlns:inkscape="http://www.inkscape.org/namespaces/inkscape"
   id="AvatarAssets"
   image-rendering="auto"
   version="1.1"
   x="0px"
   y="0px"
   width="11.524"
   height="12.035968"
   viewBox="0 0 11.524 12.035968"
   inkscape:version="0.48.4 r9939"
   sodipodi:docname="AvatarAssets_pantsLegLowerOffsideA009.svg">
  <metadata
     id="metadata3414">
    <rdf:RDF>
      <cc:Work
         rdf:about="">
        <dc:format>image/svg+xml</dc:format>
        <dc:type
           rdf:resource="http://purl.org/dc/dcmitype/StillImage" />
      </cc:Work>
    </rdf:RDF>
  </metadata>
  <sodipodi:namedview
     pagecolor="#ffffff"
     bordercolor="#666666"
     borderopacity="1"
     objecttolerance="10"
     gridtolerance="10"
     guidetolerance="10"
     inkscape:pageopacity="0"
     inkscape:pageshadow="2"
     inkscape:window-width="640"
     inkscape:window-height="480"
     id="namedview3412"
     showgrid="false"
     fit-margin-top="0"
     fit-margin-left="0"
     fit-margin-right="0"
     fit-margin-bottom="0"
     inkscape:zoom="1.9032258"
     inkscape:cx="38.442"
     inkscape:cy="-53.331723"
     inkscape:window-x="0"
     inkscape:window-y="0"
     inkscape:window-maximized="0"
     inkscape:current-layer="AvatarAssets" />
  <defs
     id="defs3391" />
  <g
     id="pantsLegLowerOffsideA10"
     overflow="visible"
     style="overflow:visible"
     transform="translate(6.442,3.3676912)">
    <g
       id="pantsLegLowerOffsideA009_0">
      <g
         id="element">
        <g
           id="drawingObject">
          <path
             id="path"
             d="m 3.372,-1.149 c -0.224,-0.95 -1.963,-2.4 -4.374,-2.2 q -1.066,0.1 -2.243,0.6 -1.178,0.6 -1.57,1.2 c -0.449,0.85 -0.225,2.2 -0.393,3.75 -0.168,1.55 -0.785,3.4 -0.785,3.4 l 0.897,0.95 -0.897,-0.95 c 0,0 1.121,1.85 3.869,2.1 2.748,0.2 3.87,-0.35 4.879,-1 0.954,-0.65 1.066,-1.45 1.066,-1.45 l -0.169,0.5 0.169,-0.5 c 0,0 -0.617,-3.4 -0.505,-4.5 0.056,-1.1 0.112,-1.65 0.056,-1.9 z"
             inkscape:connector-curvature="0"
             style="fill:#d4924d" />
        </g>
        <g
           id="drawingObject1">
          <path
             id="path1"
             d="m 3.4,-1.149 c -0.224,-0.95 -1.963,-2.4 -4.374,-2.2 q -1.066,0.1 -2.243,0.6 -1.178,0.6 -1.571,1.2 c -0.448,0.85 -0.224,2.2 -0.392,3.75 -0.168,1.55 -0.785,3.4 -0.785,3.4 l 0.897,0.95 -0.897,-0.95 c 0,0 1.121,1.85 3.869,2.1 2.748,0.2 3.87,-0.35 4.879,-1 0.953,-0.65 1.066,-1.45 1.066,-1.45 l -0.169,0.5 0.169,-0.5 c 0,0 -0.617,-3.4 -0.505,-4.5 0.056,-1.1 0.112,-1.65 0.056,-1.9 z"
             inkscape:connector-curvature="0"
             style="fill:#000000;fill-opacity:0.08600003" />
        </g>
        <g
           id="drawingObject2">
          <path
             id="path2"
             d="m -1.255,-1.749 c -0.504,-0.7 -0.673,-1.1 -0.729,-1.4 -1.177,0.3 -2.411,0.95 -2.804,1.6 -0.448,0.85 -0.224,2.2 -0.392,3.75 -0.168,1.55 -0.785,3.4 -0.785,3.4 l 0.897,0.95 -0.897,-0.95 c 0,0 1.121,1.85 3.869,2.1 2.748,0.2 3.87,-0.35 4.879,-1 0.953,-0.65 1.066,-1.45 1.066,-1.45 l -0.169,0.5 0.169,-0.5 c 0,0 -0.505,-2.7 -0.505,-4.05 -0.168,1 0.112,2.5 -1.851,3.15 q -2.243,0.7 -3.196,-2.2 c -0.393,-1 -0.281,-1.55 0.729,-1.7 0.953,-0.15 2.916,0.05 2.916,0.05 l -0.617,-0.2 c -0.673,-0.15 -1.514,-0.65 -2.58,-2.05 z"
             inkscape:connector-curvature="0"
             style="fill:#000000;fill-opacity:0.08600003" />
        </g>
        <g
           id="drawingObject3">
          <path
             id="path3"
             d="m -1.871,6.701 -0.954,-0.55 q -0.617,-0.3 -0.897,-0.65 -0.168,-0.4 -0.28,-0.6 c -0.225,-0.45 -0.113,-1.5 0,-2.3 l 0.28,-2.55 0.561,-0.6 c 0.056,-0.05 -0.225,-0.2 -0.337,-0.75 -0.112,-0.4 0.056,-0.95 0.225,-1.4 -0.673,0.35 -1.234,0.75 -1.515,1.15 -0.448,0.85 -0.224,2.2 -0.392,3.75 -0.168,1.55 -0.785,3.4 -0.785,3.4 l 0.392,0.45 -0.392,-0.45 c 0,0 0.504,0.75 1.514,1.35 l 0,-0.05 c -0.056,-0.35 0.28,-0.75 0.953,-0.65 l 1.627,0.45 z"
             inkscape:connector-curvature="0"
             style="fill:#000000;fill-opacity:0.08600003" />
        </g>
        <g
           id="drawingObject4">
          <path
             id="path4"
             d="m 1.578,5.501 q -1.346,0.5 -2.131,0.55 -1.01,0.05 -3.085,-0.45 c -1.738,-0.4 -2.131,-1.2 -2.131,-1.2 l 0.393,0.45 -0.393,-0.45 -0.056,0.45 c -0.056,0.45 -0.617,0.95 -0.617,0.95 l 0.225,0.55 c 0.224,0.6 1.794,1.85 3.196,2.05 1.346,0.15 3.87,0.9 6.001,-1.1 0.841,-0.8 2.074,-1.4 2.074,-1.4 l -0.729,0.4 0.729,-0.4 c 0,0 -0.504,-0.2 -0.897,-0.6 -0.448,-0.4 -0.448,-1.45 -0.448,-1.45 l 0.056,0.6 -0.056,-0.6 c 0,0 -0.505,0.95 -2.131,1.65 z"
             inkscape:connector-curvature="0"
             style="fill:#de9950" />
        </g>
        <g
           id="drawingObject5">
          <path
             id="path5"
             d="m -0.133,6.401 c 0.617,-0.1 1.402,-0.4 2.131,-0.8 0.729,-0.4 1.738,-1.25 1.738,-1.75 0,0 -0.504,0.95 -2.131,1.65 -1.682,0.65 -2.299,0.8 -5.215,0.1 -1.738,-0.4 -2.131,-1.2 -2.131,-1.2 l 0.393,0.45 -0.393,-0.45 0.337,0.45 -0.337,-0.45 c 0,0 0.224,0.75 2.075,1.4 q 2.299,0.8 3.533,0.6 z"
             inkscape:connector-curvature="0"
             style="fill:#ffffff;fill-opacity:0.29800002" />
        </g>
        <g
           id="drawingObject6">
          <path
             id="path6"
             d="m 4.353,6.301 0.729,-0.4 c -0.841,0.1 -2.299,1 -2.916,1.5 -0.617,0.55 -1.346,0.55 -1.346,0.1 q -0.056,-0.3 0.785,-0.9 l 0.786,-0.55 -0.729,0.4 c -0.617,0.3 -1.346,0.55 -2.356,0.5 -0.897,0 -2.187,-0.85 -2.467,-1.25 l -0.449,-0.1 c -1.738,-0.4 -2.131,-1.2 -2.131,-1.2 l 0.393,0.45 -0.393,-0.45 -0.056,0.45 c -0.056,0.45 -0.617,0.95 -0.617,0.95 l 0.224,0.55 c 0.225,0.6 1.795,1.85 3.197,2.05 1.346,0.15 3.869,0.9 6,-1.1 0.842,-0.8 2.075,-1.4 2.075,-1.4"
             inkscape:connector-curvature="0"
             style="fill:#000000;fill-opacity:0.2" />
        </g>
        <g
           id="drawingObject7">
          <path
             id="path7"
             d="m -2.993,8.401 c 0.785,0.1 1.963,0.4 3.253,0.2 q -1.571,0 -3.309,-0.85 c -1.234,-0.6 -1.458,-1.6 -1.402,-2.4 -1.01,-0.45 -1.29,-0.95 -1.29,-0.95 l 0.28,0.3 -0.28,-0.3 -0.056,0.45 c -0.056,0.45 -0.617,0.95 -0.617,0.95 l 0.224,0.55 c 0.225,0.6 1.795,1.85 3.197,2.05 z"
             inkscape:connector-curvature="0"
             style="fill:#000000;fill-opacity:0.25099996" />
        </g>
      </g>
    </g>
  </g>
</svg>
