<?xml version="1.0" encoding="UTF-8" standalone="no"?>
<!-- Generator: flash2svg, http://dissentgraphics.com/tools/flash2svg -->

<svg
   xmlns:dc="http://purl.org/dc/elements/1.1/"
   xmlns:cc="http://creativecommons.org/ns#"
   xmlns:rdf="http://www.w3.org/1999/02/22-rdf-syntax-ns#"
   xmlns:svg="http://www.w3.org/2000/svg"
   xmlns="http://www.w3.org/2000/svg"
   xmlns:xlink="http://www.w3.org/1999/xlink"
   xmlns:sodipodi="http://sodipodi.sourceforge.net/DTD/sodipodi-0.dtd"
   xmlns:inkscape="http://www.inkscape.org/namespaces/inkscape"
   id="AvatarAssets"
   image-rendering="auto"
   version="1.1"
   x="0px"
   y="0px"
   width="11.5"
   height="11.574031"
   viewBox="0 0 11.5 11.574031"
   inkscape:version="0.48.4 r9939"
   sodipodi:docname="AvatarAssets_pantsLegLowerOffsideA004.svg">
  <metadata
     id="metadata3263">
    <rdf:RDF>
      <cc:Work
         rdf:about="">
        <dc:format>image/svg+xml</dc:format>
        <dc:type
           rdf:resource="http://purl.org/dc/dcmitype/StillImage" />
      </cc:Work>
    </rdf:RDF>
  </metadata>
  <sodipodi:namedview
     pagecolor="#ffffff"
     bordercolor="#666666"
     borderopacity="1"
     objecttolerance="10"
     gridtolerance="10"
     guidetolerance="10"
     inkscape:pageopacity="0"
     inkscape:pageshadow="2"
     inkscape:window-width="640"
     inkscape:window-height="480"
     id="namedview3261"
     showgrid="false"
     fit-margin-top="0"
     fit-margin-left="0"
     fit-margin-right="0"
     fit-margin-bottom="0"
     inkscape:zoom="1.9032258"
     inkscape:cx="38.365"
     inkscape:cy="-53.79366"
     inkscape:window-x="0"
     inkscape:window-y="0"
     inkscape:window-maximized="0"
     inkscape:current-layer="AvatarAssets" />
  <defs
     id="defs3224">
    <pattern
       id="bitmap"
       patternContentUnits="userSpaceOnUse"
       patternUnits="userSpaceOnUse"
       width="200"
       height="200"
       viewBox="0 0 200 200"
       patternTransform="matrix(1 0 0 1 -32.649 9.45)">
      <symbol
         id="Denim_Texture_navy_symbol"
         viewBox="0 0 200 200">
        <image
           sodipodi:absref="C:\Users\Training\Documents\GitHub\Glitchen-Avatar-Engine\glitch-avatars-svg\base_avatar\AvatarAssets.fla\clothing\side\Denim_Texture_navy"
           xlink:href="Denim_Texture_navy"
           height="200"
           width="200"
           id="Denim_Texture_navy" />
      </symbol>
      <use
         id="Denim_Texture_navy_use"
         width="200"
         height="200"
         y="0"
         x="0"
         xlink:href="#Denim_Texture_navy_symbol"
         externalResourcesRequired="true" />
    </pattern>
    <pattern
       id="bitmap1"
       patternContentUnits="userSpaceOnUse"
       patternUnits="userSpaceOnUse"
       width="200"
       height="200"
       viewBox="0 0 200 200"
       patternTransform="matrix(1 0 0 1 -32.249 13)">
      <symbol
         id="Denim_Texture_navy_symbol1"
         viewBox="0 0 200 200">
        <image
           sodipodi:absref="C:\Users\Training\Documents\GitHub\Glitchen-Avatar-Engine\glitch-avatars-svg\base_avatar\AvatarAssets.fla\clothing\side\Denim_Texture_navy"
           xlink:href="Denim_Texture_navy"
           height="200"
           width="200"
           id="Denim_Texture_navy1" />
      </symbol>
      <use
         id="Denim_Texture_navy_use1"
         width="200"
         height="200"
         y="0"
         x="0"
         xlink:href="#Denim_Texture_navy_symbol1"
         externalResourcesRequired="true" />
    </pattern>
    <pattern
       id="bitmap2"
       patternContentUnits="userSpaceOnUse"
       patternUnits="userSpaceOnUse"
       width="200"
       height="200"
       viewBox="0 0 200 200"
       patternTransform="matrix(1.12744140625 0 0 1 -113.699 -97.799)">
      <symbol
         id="symbol3235"
         viewBox="0 0 200 200">
        <image
           sodipodi:absref="C:\Users\Training\Documents\GitHub\Glitchen-Avatar-Engine\glitch-avatars-svg\base_avatar\AvatarAssets.fla\clothing\side\Denim_Texture_navy"
           xlink:href="Denim_Texture_navy"
           height="200"
           width="200"
           id="image3237" />
      </symbol>
      <use
         id="use3239"
         width="200"
         height="200"
         y="0"
         x="0"
         xlink:href="#Denim_Texture_navy_symbol"
         externalResourcesRequired="true" />
    </pattern>
    <pattern
       id="bitmap3"
       patternContentUnits="userSpaceOnUse"
       patternUnits="userSpaceOnUse"
       width="200"
       height="200"
       viewBox="0 0 200 200"
       patternTransform="matrix(1.12744140625 0 0 1 -113.249 -94.249)">
      <symbol
         id="symbol3242"
         viewBox="0 0 200 200">
        <image
           sodipodi:absref="C:\Users\Training\Documents\GitHub\Glitchen-Avatar-Engine\glitch-avatars-svg\base_avatar\AvatarAssets.fla\clothing\side\Denim_Texture_navy"
           xlink:href="Denim_Texture_navy"
           height="200"
           width="200"
           id="image3244" />
      </symbol>
      <use
         id="use3246"
         width="200"
         height="200"
         y="0"
         x="0"
         xlink:href="#Denim_Texture_navy_symbol1"
         externalResourcesRequired="true" />
    </pattern>
  </defs>
  <g
     id="pantsLegLowerOffsideA5"
     overflow="visible"
     style="overflow:visible"
     transform="translate(6.365,3.3676912)">
    <g
       id="pantsLegLowerOffsideA004_0">
      <g
         id="element">
        <g
           id="drawingObject">
          <path
             id="path"
             d="m 3.331,0.751 c 0.057,-1.1 0.113,-1.7 0.057,-1.9 -0.226,-0.95 -1.973,-2.4 -4.397,-2.2 q -1.072,0.1 -2.199,0.6 -1.24,0.6 -1.578,1.2 c -0.508,0.85 -0.282,2.2 -0.451,3.75 -0.169,1.55 -0.733,3.4 -0.733,3.4 l 0.902,0.95 -0.902,-0.95 c 0,0 1.127,1.85 3.833,2.05 2.762,0.25 3.946,-0.35 4.904,-0.95 0.959,-0.65 1.128,-1.45 1.128,-1.45 l -0.226,0.5 0.226,-0.5 c 0,0 -0.677,-3.4 -0.564,-4.5 z"
             inkscape:connector-curvature="0"
             style="fill:url(#bitmap2)" />
        </g>
        <g
           id="drawingObject1">
          <path
             id="path1"
             d="m 3.331,1.151 c -0.169,1.05 0.113,2.55 -1.86,3.15 q -2.255,0.75 -3.213,-2.15 c -0.339,-1 -0.226,-1.55 0.733,-1.7 0.958,-0.15 2.987,0.05 2.987,0.05 l -0.676,-0.2 c -0.677,-0.2 -1.522,-0.65 -2.537,-2.05 -0.564,-0.7 -0.733,-1.1 -0.789,-1.4 -1.184,0.3 -2.424,0.95 -2.762,1.6 -0.508,0.85 -0.282,2.2 -0.451,3.75 -0.169,1.55 -0.733,3.4 -0.733,3.4 l 0.902,0.95 -0.902,-0.95 c 0,0 1.127,1.85 3.833,2.05 2.762,0.25 3.946,-0.35 4.904,-0.95 0.959,-0.65 1.128,-1.45 1.128,-1.45 l -0.226,0.5 0.226,-0.5 c 0,0 -0.507,-2.7 -0.564,-4.1 z"
             inkscape:connector-curvature="0"
             style="fill:#000000;fill-opacity:0.2" />
        </g>
        <g
           id="drawingObject2">
          <path
             id="path2"
             d="M 3.726,3.751 3.613,3.201 c 0,0 -0.395,0.95 -2.029,1.75 q -1.241,0.6 -2.03,0.65 -1.014,0.1 -3.1,-0.3 c -1.748,-0.3 -2.199,-1.1 -2.199,-1.1 l 0.451,0.45 -0.451,-0.45 -0.056,0.45 c -0.056,0.5 -0.564,1 -0.564,1 l 0.282,0.55 c 0.282,0.55 1.917,1.75 3.27,1.85 1.409,0.1 3.946,0.7 5.975,-1.4 0.789,-0.8 1.973,-1.5 1.973,-1.5 l -0.676,0.45 0.676,-0.45 c 0,0 -0.507,-0.15 -0.958,-0.55 -0.451,-0.4 -0.564,-1.4 -0.564,-1.4"
             inkscape:connector-curvature="0"
             style="fill:url(#bitmap3)" />
        </g>
        <g
           id="drawingObject3">
          <path
             id="path3"
             d="m -5.745,4.201 c 0,0 0.226,0.75 2.142,1.3 q 2.368,0.7 3.552,0.4 c 0.62,-0.1 1.353,-0.4 2.029,-0.85 0.733,-0.45 1.691,-1.35 1.635,-1.85 0,0 -0.395,0.95 -2.029,1.75 -1.579,0.75 -2.199,0.9 -5.13,0.35 -1.748,-0.3 -2.199,-1.1 -2.199,-1.1 z"
             inkscape:connector-curvature="0"
             style="fill:#fee1c1;fill-opacity:0.25099996" />
        </g>
        <g
           id="drawingObject4">
          <path
             id="path4"
             d="M 0.907,7.001 Q 0.851,6.701 1.64,6.051 l 0.789,-0.6 -0.733,0.4 c -0.563,0.35 -1.24,0.65 -2.254,0.65 -0.902,0.05 -2.255,-0.7 -2.537,-1.1 l -0.451,-0.1 c -1.748,-0.3 -2.199,-1.1 -2.199,-1.1 l 0.451,0.45 -0.451,-0.45 -0.056,0.45 c -0.056,0.5 -0.564,1 -0.564,1 l 0.282,0.55 c 0.282,0.55 1.917,1.75 3.27,1.85 1.409,0.1 3.946,0.7 5.975,-1.4 0.789,-0.8 1.973,-1.5 1.973,-1.5 l -0.676,0.45 0.676,-0.45 -0.056,0 c -0.789,0.15 -2.199,1.15 -2.762,1.65 -0.621,0.6 -1.297,0.65 -1.41,0.2 z"
             inkscape:connector-curvature="0"
             style="fill:#000000;fill-opacity:0.2" />
        </g>
      </g>
    </g>
  </g>
</svg>
