<?xml version="1.0" encoding="UTF-8" standalone="no"?>
<!-- Generator: flash2svg, http://dissentgraphics.com/tools/flash2svg -->

<svg
   xmlns:dc="http://purl.org/dc/elements/1.1/"
   xmlns:cc="http://creativecommons.org/ns#"
   xmlns:rdf="http://www.w3.org/1999/02/22-rdf-syntax-ns#"
   xmlns:svg="http://www.w3.org/2000/svg"
   xmlns="http://www.w3.org/2000/svg"
   xmlns:xlink="http://www.w3.org/1999/xlink"
   xmlns:sodipodi="http://sodipodi.sourceforge.net/DTD/sodipodi-0.dtd"
   xmlns:inkscape="http://www.inkscape.org/namespaces/inkscape"
   id="AvatarAssets"
   image-rendering="auto"
   version="1.1"
   x="0px"
   y="0px"
   width="9.2273293"
   height="14.916265"
   viewBox="0 0 9.2273293 14.916265"
   inkscape:version="0.48.4 r9939"
   sodipodi:docname="AvatarAssets_pantsLegUpperOffsideA008.svg">
  <metadata
     id="metadata3860">
    <rdf:RDF>
      <cc:Work
         rdf:about="">
        <dc:format>image/svg+xml</dc:format>
        <dc:type
           rdf:resource="http://purl.org/dc/dcmitype/StillImage" />
      </cc:Work>
    </rdf:RDF>
  </metadata>
  <sodipodi:namedview
     pagecolor="#ffffff"
     bordercolor="#666666"
     borderopacity="1"
     objecttolerance="10"
     gridtolerance="10"
     guidetolerance="10"
     inkscape:pageopacity="0"
     inkscape:pageshadow="2"
     inkscape:window-width="640"
     inkscape:window-height="480"
     id="namedview3858"
     showgrid="false"
     fit-margin-top="0"
     fit-margin-left="0"
     fit-margin-right="0"
     fit-margin-bottom="0"
     inkscape:zoom="1.9032258"
     inkscape:cx="36.716352"
     inkscape:cy="-48.048804"
     inkscape:window-x="0"
     inkscape:window-y="0"
     inkscape:window-maximized="0"
     inkscape:current-layer="AvatarAssets" />
  <defs
     id="defs3832">
    <pattern
       id="bitmap"
       patternContentUnits="userSpaceOnUse"
       patternUnits="userSpaceOnUse"
       width="200"
       height="200"
       viewBox="0 0 200 200"
       patternTransform="matrix(1 0 0 1 -53.549 4.8)">
      <symbol
         id="Denim_Texture_symbol"
         viewBox="0 0 200 200">
        <image
           sodipodi:absref="C:\Users\Training\Documents\GitHub\Glitchen-Avatar-Engine\glitch-avatars-svg\base_avatar\AvatarAssets.fla\clothing\side\Denim_Texture"
           xlink:href="Denim_Texture"
           height="200"
           width="200"
           id="Denim_Texture" />
      </symbol>
      <use
         id="Denim_Texture_use"
         width="200"
         height="200"
         y="0"
         x="0"
         xlink:href="#Denim_Texture_symbol"
         externalResourcesRequired="true" />
    </pattern>
    <pattern
       id="bitmap1"
       patternContentUnits="userSpaceOnUse"
       patternUnits="userSpaceOnUse"
       width="200"
       height="200"
       viewBox="0 0 200 200"
       patternTransform="matrix(1.17724609375 0.0303497314453125 -0.0552978515625 1.02001953125 -112.149 -98.449)">
      <symbol
         id="symbol3839"
         viewBox="0 0 200 200">
        <image
           sodipodi:absref="C:\Users\Training\Documents\GitHub\Glitchen-Avatar-Engine\glitch-avatars-svg\base_avatar\AvatarAssets.fla\clothing\side\Denim_Texture"
           xlink:href="Denim_Texture"
           height="200"
           width="200"
           id="image3841" />
      </symbol>
      <use
         id="use3843"
         width="200"
         height="200"
         y="0"
         x="0"
         xlink:href="#Denim_Texture_symbol"
         externalResourcesRequired="true" />
    </pattern>
  </defs>
  <g
     id="pantsLegUpperOffsideA9"
     overflow="visible"
     style="overflow:visible"
     transform="translate(4.7163521,0.9650683)">
    <g
       id="pantsLegUpperOffsideA008_0">
      <g
         id="element">
        <g
           id="drawingObject">
          <path
             id="path"
             d="m -0.364,-0.956 q -1.233,-0.082 -2.407,0.909 -1.053,0.943 -1.475,2.209 c -0.501,1.621 -0.291,4.282 -0.408,5.352 -0.058,1.071 -0.233,3.212 0.468,4.404 1.137,1.868 5.858,2.858 7.364,1.16 C 4.371,11.73 4.573,8.007 4.493,6.218 4.414,4.428 3.914,-0.488 -0.364,-0.956 z"
             inkscape:connector-curvature="0"
             style="fill:url(#bitmap1)" />
        </g>
        <g
           id="drawingObject1">
          <path
             id="path1"
             d="m -0.19,-0.9 -0.174,-0.056 c -1.701,-0.146 -3.382,1.496 -3.882,3.118 -0.501,1.621 -0.291,4.282 -0.408,5.352 -0.058,1.071 -0.233,3.212 0.468,4.404 1.137,1.868 5.858,2.858 7.364,1.16 Q 3.993,12.18 4.297,9.839 4.573,8.007 4.493,6.218 L 4.502,6.065 C 4.307,7.49 4.054,7.79 3.937,7.787 L 4.158,8.048 C 4.265,8.255 4.58,8.978 3.359,10.836 2.079,12.693 -0.684,9.302 -1.148,8.064 -1.611,6.826 -1.475,5.4 -1.294,3.157 -1.144,1.476 -0.834,0.105 -0.19,-0.9 z"
             inkscape:connector-curvature="0"
             style="fill:#000000;fill-opacity:0.2" />
        </g>
        <g
           id="drawingObject2">
          <path
             id="path2"
             d="m -1.373,-0.828 c -1.317,0.374 -2.51,1.722 -2.873,2.99 -0.501,1.621 -0.291,4.282 -0.408,5.352 -0.058,1.071 -0.233,3.212 0.468,4.404 0.545,0.831 1.804,1.528 3.144,1.818 L -1.096,13.632 Q -2.42,11.964 -2.508,10.327 -2.318,9.004 -2.369,8.85 L -2.824,7.459 C -2.97,6.893 -3.318,6.782 -3.339,4.994 -3.289,4.076 -3.362,4.33 -2.828,2.096 -2.462,0.778 -2,-0.13 -1.373,-0.828 z"
             inkscape:connector-curvature="0"
             style="fill:#000000;fill-opacity:0.25099996" />
        </g>
        <g
           id="drawingObject3">
          <path
             id="path3"
             d="m -1.136,4.591 0.471,7.622 0.026,-5.923 C -0.665,4.604 -0.929,4.035 -0.681,2.713 L -0.31,0.22 q -0.929,1.917 -0.826,4.371 z"
             inkscape:connector-curvature="0"
             style="fill:#ffffff;fill-opacity:0.2" />
        </g>
        <g
           id="drawingObject4">
          <path
             id="path4"
             d="m -1.778,4.473 c -0.024,1.531 0.207,2.712 0.454,3.586 0.186,0.925 0.336,3.584 0.336,3.584 L -0.963,11.184 -1.057,8.577 C -1.035,8.169 -1.339,7.242 -1.396,5.044 q 10e-4,-2.196 0.599,-4.53 c 0,0 -0.957,2.427 -0.981,3.959 z"
             inkscape:connector-curvature="0"
             style="fill:#000000;fill-opacity:0.25099996" />
        </g>
      </g>
    </g>
  </g>
</svg>
