<?xml version="1.0" encoding="UTF-8" standalone="no"?>
<!-- Generator: flash2svg, http://dissentgraphics.com/tools/flash2svg -->

<svg
   xmlns:dc="http://purl.org/dc/elements/1.1/"
   xmlns:cc="http://creativecommons.org/ns#"
   xmlns:rdf="http://www.w3.org/1999/02/22-rdf-syntax-ns#"
   xmlns:svg="http://www.w3.org/2000/svg"
   xmlns="http://www.w3.org/2000/svg"
   xmlns:sodipodi="http://sodipodi.sourceforge.net/DTD/sodipodi-0.dtd"
   xmlns:inkscape="http://www.inkscape.org/namespaces/inkscape"
   id="AvatarAssets"
   image-rendering="auto"
   version="1.1"
   x="0px"
   y="0px"
   width="9.6000004"
   height="10.60542"
   viewBox="0 0 9.6000004 10.60542"
   inkscape:version="0.48.4 r9939"
   sodipodi:docname="AvatarAssets_pantsLegUpperOffside20101122Color_3.svg">
  <metadata
     id="metadata3684">
    <rdf:RDF>
      <cc:Work
         rdf:about="">
        <dc:format>image/svg+xml</dc:format>
        <dc:type
           rdf:resource="http://purl.org/dc/dcmitype/StillImage" />
      </cc:Work>
    </rdf:RDF>
  </metadata>
  <sodipodi:namedview
     pagecolor="#ffffff"
     bordercolor="#666666"
     borderopacity="1"
     objecttolerance="10"
     gridtolerance="10"
     guidetolerance="10"
     inkscape:pageopacity="0"
     inkscape:pageshadow="2"
     inkscape:window-width="640"
     inkscape:window-height="480"
     id="namedview3682"
     showgrid="false"
     fit-margin-top="0"
     fit-margin-left="0"
     fit-margin-right="0"
     fit-margin-bottom="0"
     inkscape:zoom="1.9032258"
     inkscape:cx="36.75"
     inkscape:cy="-56.617157"
     inkscape:window-x="0"
     inkscape:window-y="0"
     inkscape:window-maximized="0"
     inkscape:current-layer="AvatarAssets" />
  <defs
     id="defs3667" />
  <g
     id="pantsLegUpperOffside20101122Color_4"
     overflow="visible"
     style="overflow:visible"
     transform="translate(4.75,5.2225771)">
    <g
       id="pantsLegUpperOffside20101122Color_3_0">
      <g
         id="element">
        <path
           id="path"
           d="m 2.75,-4.2 -0.9,-0.6 c -0.3,-0.25 -1.2,-0.5 -2.4,-0.4 -1.95,0.15 -3.45,0.75 -4,4.2 -0.1,0.8 -0.2,1.95 -0.05,3.45 0,0.5 0.05,1 0.1,1.5 -0.05,0 0,-0.1 0.3,-0.2 C -4.1,3.7 -3.85,3.6 -3.7,3.5 -3.6,3.45 -3.6,3.45 -3.6,3.45 -3.55,3.4 -3.3,3.3 -2.95,3.25 -2.65,3.2 -2.25,3.1 -1.7,3 -1.2,2.9 -0.75,2.8 -0.4,2.75 0.15,2.65 0.5,2.6 0.75,2.6 c 0.2,0 0.45,0 0.5,0 l 0.45,0 q 0.25,0 0.5,0.05 L 2.1,2.55 C 1.9,2.45 1.2,2.35 1.35,2.1 1.45,1.9 2,2 2.3,1.95 l -0.55,0 0.55,0 C 2.35,1.9 2.4,1.9 2.45,1.9 2.95,1.8 3.4,1.55 3.8,1.25 3.85,1.2 4,1.15 4.05,1.1 L 4.5,1.05 4.55,1 C 4.45,0.3 4.4,-0.5 4.15,-1.5 4.05,-1.75 4.05,-1.9 4,-2.1 3.95,-2.15 3.95,-2.15 3.95,-2.2 3.8,-2.6 3.65,-3 3.45,-3.3 3.25,-3.65 2.95,-3.95 2.75,-4.2 z"
           inkscape:connector-curvature="0"
           style="fill:#2e2e2e" />
        <path
           id="path1"
           d="M 4.5,1.05 4.05,1.1 C 4,1.15 3.85,1.2 3.8,1.25 3.4,1.55 2.95,1.8 2.45,1.9 2.4,1.9 2.35,1.9 2.3,1.95 l -0.55,0 0.55,0 C 2,2 1.45,1.9 1.35,2.1 1.2,2.35 1.9,2.45 2.1,2.55 l 0.2,0.1 C 3.05,2.6 3.55,2.65 3.85,2.75 4.05,2.8 4.15,2.85 4.3,2.9 4.45,2.95 4.55,3 4.6,3.05 L 4.55,2.85 4.05,2.6 3.6,2.55 3.2,2.45 C 2.9,2.4 1.95,2.45 1.9,2.15 2.2,2.1 2.45,2.1 2.7,2.05 3.15,1.95 3.55,1.85 3.9,1.7 L 4,1.65 C 4.15,1.55 4.35,1.45 4.55,1.35 L 4.55,1 4.5,1.05 z M 4.6,4.15 4.65,4.1 C 4.6,4.05 4.6,4.05 4.55,4.05 l -0.05,0 C 4.2,3.95 3.9,3.85 3.55,3.8 l -0.1,0 c -0.05,0 -0.05,0 -0.1,0 l -0.1,0 C 2.95,3.75 2,3.8 0.85,3.9 0.55,3.95 0.25,4 -0.1,4.05 c -0.55,0.05 -1,0.15 -1.35,0.2 0,-0.05 -0.2,0 -0.35,0.05 C -1.95,4.35 -2.1,4.35 -2.3,4.35 -3.05,4.5 -3.6,4.7 -3.95,4.9 -4.1,4.95 -4.3,5.05 -4.4,5.15 -4.65,5.35 -4.3,5.3 -4.3,5.3 -4.25,5.25 -4.2,5.15 -4.05,5.15 -3.85,5 -3.5,4.9 -2.9,4.75 -2.85,4.7 -2.85,4.7 -2.8,4.7 -2.65,4.65 -2.55,4.65 -2.4,4.6 -2.3,4.55 -2.15,4.5 -2.05,4.45 -1.9,4.4 -1.8,4.35 -1.7,4.35 -1.3,4.35 -0.75,4.25 -0.15,4.2 0.55,4.1 1.3,4 2.25,3.95 2.95,3.9 3.35,3.9 3.55,3.9 c 0.15,0 0.35,0.05 0.3,0 0.3,0.05 0.3,0.05 0.3,0.05 C 4.2,4 4.35,4.05 4.5,4.1 l 0.05,0 0.05,0.05 z"
           inkscape:connector-curvature="0"
           style="fill:#3d3d3d" />
        <path
           id="path2"
           d="m 3.2,2.45 0.4,0.1 0.45,0.05 0.5,0.25 0.05,0.2 c 0,-0.3 0,-0.8 -0.05,-1.7 -0.2,0.1 -0.4,0.2 -0.55,0.3 L 3.9,1.7 C 3.55,1.85 3.15,1.95 2.7,2.05 2.45,2.1 2.2,2.1 1.9,2.15 c 0.05,0.3 1,0.25 1.3,0.3 z m -0.9,0.2 -0.2,-0.1 0.1,0.1 0.1,0 z"
           inkscape:connector-curvature="0"
           style="fill:#4d4d4d" />
        <path
           id="path3"
           d="M 4.3,2.9 C 4.15,2.85 4.05,2.8 3.85,2.75 3.55,2.65 3.05,2.6 2.3,2.65 l -0.1,0 Q 1.95,2.6 1.7,2.6 l -0.45,0 c -0.05,0 -0.3,0 -0.5,0 -0.25,0 -0.6,0.05 -1.15,0.15 l -0.25,0.1 0,0.25 0.85,0.1 -0.85,0.25 0,0.05 c -0.05,0.05 0,0.15 0.05,0.2 0.1,0.1 0.2,0.15 0.4,0.15 l 3.1,-0.2 1.5,0.15 0.15,0 c 0.2,0.05 0.25,0 0.2,-0.1 L 4.55,3.45 4.8,3.5 4.75,3.2 C 4.75,3.15 4.7,3.1 4.6,3.05 4.55,3 4.45,2.95 4.3,2.9 z M -1.65,3 -0.4,2.75 C -0.75,2.8 -1.2,2.9 -1.7,3 -2.25,3.1 -2.65,3.2 -2.95,3.25 L -1.65,3 z"
           inkscape:connector-curvature="0"
           style="fill:#52524e" />
        <path
           id="path6"
           d="m 4.75,3.7 c 0.05,0.1 0,0.15 -0.2,0.1 L 4.4,3.8 2.9,3.65 -0.2,3.85 C -0.4,3.85 -0.5,3.8 -0.6,3.7 -0.65,3.65 -0.7,3.55 -0.65,3.5 l 0,-0.05 L 0.2,3.2 -0.65,3.1 -0.65,2.85 -0.4,2.75 -1.65,3 C -1.85,3.1 -2,3.2 -2,3.3 c -0.05,0.25 0.15,0.25 0.15,0.25 l -0.55,0.4 c 0,0.15 0.05,0.2 0.25,0.25 0.2,0 0.35,0 0.6,-0.05 C -0.95,4.05 -0.45,4 0,3.95 0.95,3.8 1.75,3.75 2.45,3.75 2.7,3.7 3,3.75 3.35,3.8 c 0.05,0 0.05,0 0.1,0 l 0.1,0 c 0.1,0 0.25,0 0.3,0 0.05,0 0.1,0 0.1,0.05 0.1,0 0.15,0 0.15,0 0.1,0 0.25,0 0.4,0.05 l 0.05,0 C 4.6,3.95 4.75,3.95 4.8,4 4.8,3.95 4.8,3.9 4.85,3.9 4.85,3.8 4.85,3.65 4.8,3.6 L 4.8,3.5 4.55,3.45 4.75,3.7 z"
           inkscape:connector-curvature="0"
           style="fill:#454541" />
        <path
           id="path7"
           d="M 4.55,3.9 4.5,3.9 C 4.35,3.85 4.2,3.85 4.1,3.85 4.2,3.9 4.35,3.9 4.5,3.95 L 4.55,4 C 4.6,4.05 4.6,4.05 4.65,4.1 L 4.75,4 4.8,4 C 4.75,3.95 4.6,3.95 4.55,3.9 z m -1.3,-0.1 0.1,0 C 3,3.75 2.7,3.7 2.45,3.75 1.75,3.75 0.95,3.8 0,3.95 -0.45,4 -0.95,4.05 -1.55,4.15 -1.8,4.2 -1.95,4.2 -2.15,4.2 -2.35,4.15 -2.4,4.1 -2.4,3.95 l 0.55,-0.4 c 0,0 -0.2,0 -0.15,-0.25 0,-0.1 0.15,-0.2 0.35,-0.3 l -1.3,0.25 -0.55,0.45 0,0.05 c 0,0.1 0,0.2 0,0.35 0,0.2 0.2,0.25 0.5,0.25 0.2,0 0.4,0 0.7,0 C -2.1,4.3 -1.8,4.3 -1.45,4.25 -1.1,4.2 -0.65,4.1 -0.1,4.05 0.25,4 0.55,3.95 0.85,3.9 2,3.8 2.95,3.75 3.25,3.8 z"
           inkscape:connector-curvature="0"
           style="fill:#3d3d3a" />
        <path
           id="path8"
           d="m 4.1,3.85 c 0,0 -0.05,0 -0.15,0 C 3.95,3.8 3.9,3.8 3.85,3.8 3.8,3.8 3.65,3.8 3.55,3.8 3.9,3.85 4.2,3.95 4.5,4.05 l 0.05,0 c 0.05,0 0.05,0 0.1,0.05 C 4.6,4.05 4.6,4.05 4.55,4 L 4.5,3.95 C 4.35,3.9 4.2,3.9 4.1,3.85 z M -3,4.35 c -0.3,0 -0.5,-0.05 -0.5,-0.25 0,-0.15 0,-0.25 0,-0.35 l 0,-0.05 0.55,-0.45 c -0.35,0.05 -0.6,0.15 -0.65,0.2 0,0 0,0 -0.1,0.05 -0.15,0.1 -0.4,0.2 -0.5,0.25 -0.3,0.1 -0.35,0.2 -0.3,0.2 -0.25,0.15 -0.25,0.15 -0.2,0.1 l -0.05,0.05 0.1,1.1 c 0.1,0.05 0.1,0.1 0.15,0.15 0.05,0.05 0.1,0.05 0.2,-0.05 0,0 -0.35,0.05 -0.1,-0.15 0.1,-0.1 0.3,-0.2 0.45,-0.25 0.35,-0.2 0.9,-0.4 1.65,-0.55 -0.3,0 -0.5,0 -0.7,0 z"
           inkscape:connector-curvature="0"
           style="fill:#30302e" />
        <path
           id="path17"
           d="m -2.8,4.7 c -0.05,0 -0.05,0 -0.1,0.05 l 0.4,-0.1 -0.3,0.05 z"
           inkscape:connector-curvature="0"
           style="fill:#edede4" />
        <path
           id="path18"
           d="M -2.8,4.7 -2.5,4.65 -2.4,4.6 c -0.15,0.05 -0.25,0.05 -0.4,0.1 z"
           inkscape:connector-curvature="0"
           style="fill:#1f1f1e" />
        <path
           id="path19"
           d="M -1.8,4.3 C -1.65,4.25 -1.45,4.2 -1.45,4.25 -1.8,4.3 -2.1,4.3 -2.3,4.35 c 0.2,0 0.35,0 0.5,-0.05"
           inkscape:connector-curvature="0"
           style="fill:#30302e" />
      </g>
    </g>
  </g>
</svg>
