<?xml version="1.0" encoding="UTF-8" standalone="no"?>
<!-- Generator: flash2svg, http://dissentgraphics.com/tools/flash2svg -->

<svg
   xmlns:dc="http://purl.org/dc/elements/1.1/"
   xmlns:cc="http://creativecommons.org/ns#"
   xmlns:rdf="http://www.w3.org/1999/02/22-rdf-syntax-ns#"
   xmlns:svg="http://www.w3.org/2000/svg"
   xmlns="http://www.w3.org/2000/svg"
   xmlns:sodipodi="http://sodipodi.sourceforge.net/DTD/sodipodi-0.dtd"
   xmlns:inkscape="http://www.inkscape.org/namespaces/inkscape"
   id="AvatarAssets"
   image-rendering="auto"
   version="1.1"
   x="0px"
   y="0px"
   width="20.062992"
   height="13.566802"
   viewBox="0 0 20.062992 13.566802"
   inkscape:version="0.48.4 r9939"
   sodipodi:docname="AvatarAssets_shoeOffsideB006.svg">
  <metadata
     id="metadata3243">
    <rdf:RDF>
      <cc:Work
         rdf:about="">
        <dc:format>image/svg+xml</dc:format>
        <dc:type
           rdf:resource="http://purl.org/dc/dcmitype/StillImage" />
      </cc:Work>
    </rdf:RDF>
  </metadata>
  <sodipodi:namedview
     pagecolor="#ffffff"
     bordercolor="#666666"
     borderopacity="1"
     objecttolerance="10"
     gridtolerance="10"
     guidetolerance="10"
     inkscape:pageopacity="0"
     inkscape:pageshadow="2"
     inkscape:window-width="640"
     inkscape:window-height="480"
     id="namedview3241"
     showgrid="false"
     fit-margin-top="0"
     fit-margin-left="0"
     fit-margin-right="0"
     fit-margin-bottom="0"
     inkscape:zoom="1.9032258"
     inkscape:cx="39.602"
     inkscape:cy="-50.969198"
     inkscape:window-x="0"
     inkscape:window-y="0"
     inkscape:window-maximized="0"
     inkscape:current-layer="AvatarAssets" />
  <defs
     id="defs3206" />
  <g
     id="shoeOffsideB7"
     overflow="visible"
     style="overflow:visible"
     transform="translate(7.602,2.536)">
    <g
       id="shoeOffsideB006_0">
      <g
         id="element">
        <g
           id="group1">
          <g
             id="drawingObject">
            <path
               id="path"
               d="M 12.199,6.62 4.506,5.201 C 4.387,5.092 -6.671,4.637 -6.671,4.637 l -0.262,1.182 0.187,0.445 -0.187,-0.445 c 0,0 0.078,0.783 0.617,1.277 0.654,0.436 2.596,0.958 4.069,1.433 l 5.887,1.678 c 1.766,0.47 3.769,1.103 5.097,0.46 1.446,-0.589 2.416,-1.505 2.975,-2.524 L 12.199,6.62 z"
               inkscape:connector-curvature="0"
               style="fill:#c2945c" />
          </g>
          <g
             id="drawingObject1">
            <path
               id="path1"
               d="M 7.402,11.03 C 7.044,10.757 6.86,10.424 6.215,10.325 Q 5.453,10.228 5.313,9.333 4.997,8.387 5.642,8.486 L 5.759,8.484 c 0,0 -2.033,-1.81 -4.295,-3.391 L -6.728,4.694 -6.99,5.876 -6.803,6.321 -6.99,5.876 c 0,0 0.078,0.783 0.617,1.277 0.654,0.436 2.596,0.958 4.069,1.434 l 5.887,1.677 c 1.236,0.312 2.65,0.789 3.819,0.766 z"
               inkscape:connector-curvature="0"
               style="fill:#84643f" />
          </g>
          <g
             id="drawingObject2">
            <path
               id="path2"
               d="M -5.008,2.002 -6.659,0.993 -6.509,2.4 c 0.217,0.335 2.08,0.742 4.228,1.016 2.078,0.274 3.15,-0.058 3.65,-0.257 0.5,-0.2 1.784,-1.067 1.784,-1.067 0,0 -1.357,0.599 -3.146,0.795 q -2.36,0.261 -5.015,-0.885 z"
               inkscape:connector-curvature="0"
               style="fill:#362f28" />
          </g>
          <g
             id="drawingObject3">
            <path
               id="path3"
               d="M 4.811,1.104 4.907,0.261 c 0,0 0.035,1.401 -0.998,2.15 C 3.045,2.876 2.292,3.171 1.594,3.297 0.895,3.367 -0.277,3.278 -1.805,2.915 -3.393,2.554 -4.28,2.123 -4.404,1.846 -4.587,1.569 -4.893,1.014 -5.382,0.183 L -5.533,-1.159 C -6.06,-1.205 -6.297,-1.312 -6.301,-1.48 l -0.494,-1.056 -0.289,0.118 -0.518,0.347 0.191,0.613 c 0.067,0.335 0.423,0.552 0.659,0.603 l -0.515,0.459 0.545,0.718 c 0.243,0.387 0.249,0.611 0.198,0.893 -0.448,0.793 -1.056,2.15 -0.597,4.103 0.389,1.506 3.727,1.777 6.21,2.905 2.72,1.235 7.304,2.21 8.824,2.236 1.579,0.025 3.334,-2.195 3.958,-2.936 0.446,-0.85 0.69,-2.76 0.551,-3.598 C 12.284,3.087 11.226,2.827 9.447,1.853 7.614,0.992 4.907,0.261 4.907,0.261 l 1.53,0.418 m -13.38,-2.147 0.303,0.443 -0.055,0.113 c -0.361,-0.385 -0.312,-0.779 -0.312,-0.779 l 0.005,0.225 -0.005,-0.225 0.064,0.223 z"
               inkscape:connector-curvature="0"
               style="fill:#211f1a" />
          </g>
          <g
             id="drawingObject4">
            <path
               id="path7"
               d="m 10.242,2.581 c 0,0 0.07,-0.267 -0.289,-0.402 C 9.595,2.044 8.809,2.309 7.455,3.578 6.03,4.779 5.82,5.783 5.679,6.184 5.466,6.653 6.254,6.722 6.254,6.722 L 7.605,4.984 10.242,2.581 z"
               inkscape:connector-curvature="0"
               style="fill:#1a1814" />
          </g>
          <g
             id="group2">
            <g
               id="drawingObject5">
              <path
                 id="path8"
                 d="m -4.259,7.41 c 1.206,-0.864 3.591,-1.304 3.591,-1.304 l 0.34,1.899 2.843,-0.84 0.069,0.447 c 0.009,0.336 0.387,1.393 0.7,2.228 L 4.518,10.096 2.658,5.929 0.346,6.927 0.1,6.427 -0.65,4.536 -5.025,7.145 -4.259,7.41 z"
                 inkscape:connector-curvature="0"
                 style="fill:#ddc7ad" />
            </g>
            <g
               id="drawingObject6">
              <path
                 id="path9"
                 d="m -3.262,7.498 1.649,0.608 0.065,-1.273 -1.714,0.665 z"
                 inkscape:connector-curvature="0"
                 style="fill:#ddc7ad" />
            </g>
            <g
               id="drawingObject7">
              <path
                 id="path10"
                 d="M 0.539,8.915 1.829,9.254 1.681,8.249 0.539,8.915 z"
                 inkscape:connector-curvature="0"
                 style="fill:#ddc7ad" />
            </g>
          </g>
          <g
             id="drawingObject8">
            <path
               id="path11"
               d="M 5.599,4.69 C 5.599,4.007 5.431,2.055 4.367,1.567 4.199,1.909 3.919,2.153 3.583,2.494 2.463,3.08 1.567,3.811 -2.465,3.128 -4.761,2.787 -5.602,2.006 -6.05,1.519 c -0.224,-0.586 0.112,-1.805 0.112,-2.342 -0.056,0.098 -0.672,0 -0.672,0.586 0,0.536 0.224,1.17 0.168,1.268 l -0.28,0.244 c -0.392,0.731 -1.064,2.195 -0.616,4.097 0.392,1.513 3.697,1.805 6.217,2.976 2.688,1.171 7.28,2.147 8.736,2.147 1.681,0.048 3.361,-2.147 3.977,-2.976 0.504,-0.781 0.728,-2.732 0.56,-3.561 L 12.096,3.714 11.704,4.348 C 12.432,5.372 11.088,7.031 10.08,7.421 9.8,7.47 9.408,7.324 9.352,6.934 L 9.296,6.787 C 8.512,7.324 8.008,7.373 7.279,7.324 6.439,7.129 5.879,6.982 4.815,6.446 3.807,5.86 3.303,5.714 3.303,5.372 3.303,4.933 3.751,4.933 4.479,4.885 5.263,4.933 5.599,5.177 5.599,4.69 z"
               inkscape:connector-curvature="0"
               style="fill:#000000;fill-opacity:0.4" />
          </g>
          <g
             id="drawingObject9">
            <path
               id="path12"
               d="M -1.233,7.031 C -2.465,6.836 -2.969,5.812 -3.305,4.885 -3.473,4.397 -3.361,3.763 -2.969,3.08 -4.873,2.787 -5.546,2.055 -5.882,1.665 l -0.336,-1.22 c 0.056,1.269 -0.224,1.269 -0.616,1.318 -0.392,0.829 -0.728,2 -0.336,3.707 0.336,1.512 3.641,1.805 6.161,2.976 2.744,1.219 7.28,2.146 8.736,2.146 1.345,0.049 2.689,-1.366 3.529,-2.39 Q 10.36,9.177 9.352,9.714 8.232,10.202 8.12,10.007 c -0.393,-0.439 -0.449,-2 -0.449,-2 l 0,0.829 0,-0.829 -0.672,1.024 C 6.663,9.763 6.159,10.007 4.703,9.714 3.303,9.617 1.735,8.299 1.231,7.909 0.727,7.519 -0.001,7.129 -1.233,7.031 z"
               inkscape:connector-curvature="0"
               style="fill:#000000;fill-opacity:0.4" />
          </g>
          <g
             id="drawingObject10">
            <path
               id="path13"
               d="M 2.934,-0.299 2.165,0.763 C 1.451,1.295 0.956,1.507 0.627,1.56 0.297,1.613 -0.307,1.72 -1.076,1.932 -1.9,2.092 -2.559,2.41 -3.219,2.729 l 1.758,0.585 C 0.407,3.792 1.506,4.217 1.89,4.535 Q 4.527,5.917 4.857,5.173 C 5.186,4.482 5.186,3.048 5.845,2.57 5.955,2.517 6.34,2.304 6.944,2.038 7.603,1.826 7.658,1.348 7.054,0.657 6.45,-0.033 5.076,-0.299 3.154,-0.14 l -0.22,-0.159 z"
               inkscape:connector-curvature="0"
               style="fill:#36322b" />
          </g>
          <g
             id="drawingObject11">
            <path
               id="path14"
               d="M -0.595,3.789 C -0.327,3.838 0.483,4.257 1.78,4.938 3.077,5.619 3.987,5.764 4.512,5.428 4.983,5.093 5.184,4.599 5.112,3.894 4.988,3.19 5.031,2.809 5.19,2.751 5.295,2.695 5.72,2.632 6.351,2.294 6.929,1.956 7.135,1.68 7.016,1.194 6.608,1.908 5.487,1.876 4.848,1.888 L 3.249,1.92 4.278,2.552 C 4.493,2.602 4.602,2.709 4.552,2.818 4.4,3.147 4.299,3.367 4.254,3.694 4.153,3.913 3.734,4.193 3.052,4.641 l -2.8,-1.086 c -0.379,-0.21 -0.965,-0.198 -1.6,-0.023 l -0.373,0.008 1.126,0.249 z"
               inkscape:connector-curvature="0"
               style="fill:#1f1d18" />
          </g>
          <g
             id="drawingObject12">
            <path
               id="path15"
               d="m 8.787,5.236 c 0.181,0.288 0.359,0.46 0.535,0.515 0.295,0.228 0.471,0.283 0.524,0.107 L 10.482,5.787 Q 12.129,4.468 12.113,3.825 C 12.098,3.241 11.733,2.546 10.988,2.912 10.587,3.095 10.075,3.456 9.451,3.995 8.827,4.533 8.606,4.947 8.787,5.236 z"
               inkscape:connector-curvature="0"
               style="fill:#36322b" />
          </g>
          <g
             id="drawingObject13">
            <path
               id="path16"
               d="M 8.025,2.977 C 8.595,2.577 9.308,1.909 8.235,2.04 Q 7.805,2.039 7.307,2.64 6.88,3.107 6.739,3.509 L 6.527,4.044 8.025,2.977 z"
               inkscape:connector-curvature="0"
               style="fill:#36322b" />
          </g>
        </g>
      </g>
    </g>
  </g>
</svg>
