<?xml version="1.0" encoding="UTF-8" standalone="no"?>
<!-- Generator: flash2svg, http://dissentgraphics.com/tools/flash2svg -->

<svg
   xmlns:dc="http://purl.org/dc/elements/1.1/"
   xmlns:cc="http://creativecommons.org/ns#"
   xmlns:rdf="http://www.w3.org/1999/02/22-rdf-syntax-ns#"
   xmlns:svg="http://www.w3.org/2000/svg"
   xmlns="http://www.w3.org/2000/svg"
   xmlns:sodipodi="http://sodipodi.sourceforge.net/DTD/sodipodi-0.dtd"
   xmlns:inkscape="http://www.inkscape.org/namespaces/inkscape"
   id="AvatarAssets"
   image-rendering="auto"
   version="1.1"
   x="0px"
   y="0px"
   width="18.756521"
   height="11.004757"
   viewBox="0 0 18.756521 11.004757"
   inkscape:version="0.48.4 r9939"
   sodipodi:docname="AvatarAssets_shoeOffsideA004.svg">
  <metadata
     id="metadata3021">
    <rdf:RDF>
      <cc:Work
         rdf:about="">
        <dc:format>image/svg+xml</dc:format>
        <dc:type
           rdf:resource="http://purl.org/dc/dcmitype/StillImage" />
      </cc:Work>
    </rdf:RDF>
  </metadata>
  <sodipodi:namedview
     pagecolor="#ffffff"
     bordercolor="#666666"
     borderopacity="1"
     objecttolerance="10"
     gridtolerance="10"
     guidetolerance="10"
     inkscape:pageopacity="0"
     inkscape:pageshadow="2"
     inkscape:window-width="640"
     inkscape:window-height="480"
     id="namedview3019"
     showgrid="false"
     fit-margin-top="0"
     fit-margin-left="0"
     fit-margin-right="0"
     fit-margin-bottom="0"
     inkscape:zoom="1.9032258"
     inkscape:cx="38.921296"
     inkscape:cy="-51.362243"
     inkscape:window-x="0"
     inkscape:window-y="0"
     inkscape:window-maximized="0"
     inkscape:current-layer="AvatarAssets" />
  <defs
     id="defs3008" />
  <g
     id="shoeOffsideA5"
     overflow="visible"
     style="overflow:visible"
     transform="translate(6.9212963,0.367)">
    <g
       id="shoeOffsideA004_0">
      <g
         id="element">
        <g
           id="drawingObject">
          <path
             id="path"
             d="M 2.359,-0.367 C 2.308,0.289 2.054,0.844 1.699,1.298 1.292,1.702 0.378,2.004 -1.096,2.156 -2.57,2.307 -4.094,1.802 -5.669,0.642 c -1.169,1.615 -1.474,2.977 -1.016,4.087 0.457,1.161 1.067,1.917 1.829,2.372 0.762,0.454 1.728,0.857 2.795,1.261 1.016,0.353 3.15,1.009 6.402,1.917 q 1.067,0.303 1.575,0.303 0.711,0.152 1.778,-0.555 C 9.117,9.422 10.54,7.908 11.048,7.05 11.2,6.798 11.404,6.344 11.607,5.688 11.759,5.032 11.81,4.426 11.709,3.821 11.607,3.165 10.896,2.458 9.625,1.651 5.916,0.743 3.477,0.087 2.359,-0.367 z"
             inkscape:connector-curvature="0"
             style="fill:#6b5425" />
        </g>
        <g
           id="drawingObject1">
          <path
             id="path1"
             d="M 2.968,3.756 C 3.248,3.255 3.248,2.586 3.08,1.639 2.014,2.809 1.116,3.533 0.275,3.756 c -0.954,0.223 -1.459,0 -1.515,-0.724 -2.525,0.167 -4.04,-0.39 -4.657,-1.783 -0.673,1.393 -0.898,2.563 -0.729,3.454 0.28,0.892 1.01,1.727 2.076,2.452 0.729,0.278 1.627,0.724 2.805,1.281 q 1.403,0.557 6.228,1.839 c 1.122,0.39 1.739,0.612 3.142,-0.112 C 9.14,9.439 10.43,7.99 10.991,7.043 11.216,6.765 11.44,6.319 11.664,5.706 11.833,5.093 11.889,4.48 11.777,3.867 11.608,3.255 11.159,2.642 10.43,2.14 10.823,2.753 10.991,3.533 10.935,4.536 10.823,5.483 10.318,6.207 9.42,6.653 8.466,7.043 7.625,7.155 6.895,6.987 6.11,6.82 5.605,6.597 5.324,6.319 5.044,6.04 5.044,5.539 5.38,4.87 5.661,4.202 6.559,3.032 7.961,1.416 7.513,1.583 7.064,1.806 6.671,2.084 6.166,2.307 5.549,2.697 4.819,3.31 4.034,3.923 3.473,4.257 3.08,4.313 2.687,4.369 2.687,4.202 2.968,3.756 z"
             inkscape:connector-curvature="0"
             style="fill:#594620" />
        </g>
        <g
           id="drawingObject2">
          <path
             id="path2"
             d="m -1.158,4.759 c 0,-0.056 0.502,-0.279 1.562,-0.613 0.892,-0.279 1.84,-1.226 2.9,-2.897 L 0.85,2.697 C -0.6,2.976 -1.492,2.92 -1.827,2.53 -4.002,2.586 -5.452,2.196 -6.066,1.249 -7.181,2.864 -6.958,4.09 -5.397,4.815 L -4.56,5.483 C -4.727,5.427 -5.062,5.205 -5.675,4.87 -6.289,4.48 -6.679,4.313 -6.847,4.425 c -0.223,0.055 0.056,0.557 0.837,1.56 1.171,1.225 3.123,1.838 4.239,2.451 1.394,0.557 5.019,1.449 6.246,1.839 1.116,0.39 1.729,0.612 3.123,-0.112 1.506,-0.724 2.789,-2.173 3.347,-3.12 L 11.112,6.709 C 10.164,7.712 8.547,8.937 7.431,9.049 5.646,9.216 5.479,7.489 5.2,6.876 4.81,6.43 4.252,6.765 2.635,6.319 1.854,6.152 1.017,5.873 0.125,5.427 -0.712,5.037 -1.158,4.815 -1.158,4.759 z"
             inkscape:connector-curvature="0"
             style="fill:#4f3e1d" />
        </g>
      </g>
    </g>
  </g>
</svg>
