<?xml version="1.0" encoding="UTF-8" standalone="no"?>
<!-- Generator: flash2svg, http://dissentgraphics.com/tools/flash2svg -->

<svg
   xmlns:dc="http://purl.org/dc/elements/1.1/"
   xmlns:cc="http://creativecommons.org/ns#"
   xmlns:rdf="http://www.w3.org/1999/02/22-rdf-syntax-ns#"
   xmlns:svg="http://www.w3.org/2000/svg"
   xmlns="http://www.w3.org/2000/svg"
   xmlns:sodipodi="http://sodipodi.sourceforge.net/DTD/sodipodi-0.dtd"
   xmlns:inkscape="http://www.inkscape.org/namespaces/inkscape"
   id="AvatarAssets"
   image-rendering="auto"
   version="1.1"
   x="0px"
   y="0px"
   width="18.997831"
   height="10.645292"
   viewBox="0 0 18.997831 10.645292"
   inkscape:version="0.48.4 r9939"
   sodipodi:docname="AvatarAssets_shoeOffsideA002.svg">
  <metadata
     id="metadata30">
    <rdf:RDF>
      <cc:Work
         rdf:about="">
        <dc:format>image/svg+xml</dc:format>
        <dc:type
           rdf:resource="http://purl.org/dc/dcmitype/StillImage" />
      </cc:Work>
    </rdf:RDF>
  </metadata>
  <sodipodi:namedview
     pagecolor="#ffffff"
     bordercolor="#666666"
     borderopacity="1"
     objecttolerance="10"
     gridtolerance="10"
     guidetolerance="10"
     inkscape:pageopacity="0"
     inkscape:pageshadow="2"
     inkscape:window-width="640"
     inkscape:window-height="480"
     id="namedview28"
     showgrid="false"
     fit-margin-top="0"
     fit-margin-left="0"
     fit-margin-right="0"
     fit-margin-bottom="0"
     inkscape:zoom="1.9032258"
     inkscape:cx="38.942719"
     inkscape:cy="-51.753708"
     inkscape:window-x="0"
     inkscape:window-y="0"
     inkscape:window-maximized="0"
     inkscape:current-layer="AvatarAssets" />
  <defs
     id="defs3" />
  <g
     id="shoeOffsideA3"
     overflow="visible"
     style="overflow:visible"
     transform="translate(6.9427187,0.399)">
    <g
       id="shoeOffsideA002_0">
      <g
         id="element">
        <g
           id="drawingObject">
          <path
             id="path"
             d="M 10.403,8.234 Q 11.313,7.251 12.04,5.493 C 12.394,2.239 6.529,1.728 -5.557,3.962 l -0.43,0.356 c -0.259,0.343 -0.392,0.805 -0.4,1.386 -0.007,0.582 0.563,1.183 1.815,1.666 1.195,0.487 2.447,0.971 3.688,1.326 1.241,0.354 2.482,0.709 3.843,1.119 1.298,0.351 2.408,0.523 3.376,0.382 C 7.303,10.057 8.036,9.871 8.649,9.63 9.205,9.393 9.797,8.895 10.434,8.264"
             inkscape:connector-curvature="0"
             style="fill:#b0abaa" />
        </g>
        <g
           id="drawingObject1">
          <path
             id="path1"
             d="m 2.251,-0.399 c -0.1,1.75 -1.05,2.65 -2.85,2.75 -1.8,0.05 -3.3,-0.25 -4.5,-1 l -0.95,-1.1 -0.8,1.7 c 0.05,0.95 0.1,1.7 0.15,2.3 -0.05,0.6 0.2,1.05 0.7,1.25 0.4,0.3 1.95,1.05 4.8,2.55 q 0.55,0.4 3.5,1.05 2.6,0.45 4.1,0.65 c 1.1,0.15 2.1,-0.2 3.05,-1.15 0.9,-0.95 1.6,-1.8 1.95,-2.55 0.4,-0.7 0.6,-1.45 0.55,-2.1 -0.05,-0.7 -0.4,-1.25 -1.15,-1.7 -0.7,-0.45 -1.6,-0.7 -2.65,-0.9 -1.05,-0.15 -2,-0.35 -2.9,-0.6 l -3,-1.15 z"
             inkscape:connector-curvature="0"
             style="fill:#b12e26" />
        </g>
        <g
           id="drawingObject2">
          <path
             id="path2"
             d="M 1.207,9.482 Q 3.8,9.971 5.346,10.116 l 0,0.028 C 6.394,10.199 7.553,9.813 8.878,8.985 6.45,10.144 5.015,9.206 4.518,6.06 4.96,5.287 4.794,4.846 4.077,4.736 3.304,4.57 2.421,4.349 1.428,4.073 0.379,3.742 -0.283,3.301 -0.559,2.749 L 1.428,1.921 C -0.669,2.307 -2.159,2.528 -3.042,2.473 -3.925,2.418 -4.753,2.197 -5.47,1.756 L -5.801,1.093 -6.464,2.087 C -6.96,2.749 -7.071,3.632 -6.795,4.68 l 0.359,1.573 4.056,2.125 c 0.386,0.276 1.6,0.662 3.587,1.104 z"
             inkscape:connector-curvature="0"
             style="fill:#000000;fill-opacity:0.08600003" />
        </g>
        <g
           id="drawingObject3">
          <path
             id="path3"
             d="M 6.615,5.619 C 5.677,5.674 5.125,5.729 4.849,5.894 4.573,6.005 4.297,6.446 4.132,7.274 3.911,8.047 4.187,8.874 4.904,9.702 L 5.898,9.868 C 7.277,9.923 8.436,9.537 9.374,8.764 10.313,7.992 11.03,7.164 11.471,6.336 11.913,5.508 12.079,4.625 11.913,3.742 11.747,2.804 11.251,2.252 10.313,2.032 Q 11.03,3.19 9.816,4.184 C 8.602,5.122 7.553,5.563 6.615,5.619 z"
             inkscape:connector-curvature="0"
             style="fill:#ded8d7" />
        </g>
        <g
           id="drawingObject4">
          <path
             id="path4"
             d="M 6.268,6.072 C 5.352,6.144 4.82,5.992 4.523,5.886 4.253,6.101 4.115,6.499 3.946,7.222 3.743,8.205 4.341,9.127 4.791,9.673 L 5.844,9.849 C 7.24,9.998 9.041,8.825 9.908,8.176 10.717,7.532 11.893,5.117 11.766,3.643 11.727,3.194 11.408,2.832 11.037,2.538 Q 11.119,3.5 10.43,4.199 C 9.689,4.967 7.929,5.943 6.268,6.072 z"
             inkscape:connector-curvature="0"
             style="fill:#000000;fill-opacity:0.08600003" />
        </g>
        <g
           id="drawingObject5">
          <path
             id="path5"
             d="M 5.754,6.064 C 4.846,5.936 4.271,5.665 3.98,5.497 3.718,5.65 3.541,6.005 3.392,6.681 3.196,7.603 3.767,8.633 4.236,9.269 L 5.305,9.674 C 6.724,10.127 8.591,9.377 9.45,8.928 Q 10.115,8.642 10.639,7.513 C 8.854,9.224 6.678,8.791 6.45,7.745 6.256,7.085 6.142,6.562 6.167,6.059 L 5.754,6.064 z"
             inkscape:connector-curvature="0"
             style="fill:#000000;fill-opacity:0.08600003" />
        </g>
        <g
           id="drawingObject6">
          <path
             id="path6"
             d="m -6.795,3.522 c -0.055,0.993 0.387,1.931 0.773,2.207 l 2.594,1.324 Q -3.87,5.839 -4.146,5.232 C -4.918,4.018 -6.795,3.522 -6.795,3.522 z"
             inkscape:connector-curvature="0"
             style="fill:#ded8d7" />
        </g>
        <g
           id="drawingObject7">
          <path
             id="path7"
             d="M 4.78,1.369 C 4.888,1.259 4.997,1.149 5.159,0.983 L 3.807,0.928 C 2.455,2.528 0.995,3.135 -0.628,2.859 -2.304,2.583 -3.548,2.197 -4.359,1.7 L -5.874,1.259 -6.523,2.528 c -0.108,0.166 -0.162,0.773 -0.216,1.435 -0.108,0.717 0.108,1.38 0.649,1.766 0.541,0.386 1.623,0.883 3.191,1.655 1.622,0.718 3.245,1.215 5.029,1.766 1.785,0.497 3.083,0.773 4.056,0.883 1.352,0.166 3.137,-1.048 4.002,-1.655 0.866,-0.662 1.947,-3.091 1.839,-4.525 -0.054,-0.773 -0.811,-1.325 -1.568,-1.656 0,1.38 -0.866,1.876 -2.38,2.539 C 6.403,5.398 5.7,5.232 5.754,4.404 5.916,3.632 8.025,1.811 8.025,1.811 L 6.943,2.804 8.025,1.811 6.457,2.418 C 6.024,2.639 5.429,3.577 4.726,4.018 4.023,4.46 3.536,3.632 3.807,2.97 4.131,2.307 5.7,1.535 5.916,1.314 L 4.753,1.369 M 3.915,2.087 c -0.054,0.11 -0.162,0.22 -0.162,0.22 0,0 -1.082,1.049 -1.515,0.939 C 1.968,3.19 1.914,3.08 1.968,2.97 2.022,2.859 2.347,2.749 2.887,2.639 3.158,2.583 3.536,2.363 3.915,2.087 z"
             inkscape:connector-curvature="0"
             style="fill:#000000;fill-opacity:0.08600003" />
        </g>
        <g
           id="drawingObject8">
          <path
             id="path11"
             d="M 3.801,1.48 C 3.304,1.7 2.752,2.197 2.2,2.914 L 1.649,3.632 C 1.428,4.791 1.759,5.067 2.421,4.404 2.256,4.018 2.918,3.135 4.629,1.756 L 6.45,1.038 C 5.843,0.652 5.401,0.542 5.07,0.817 4.684,1.038 4.297,1.259 3.801,1.48 z"
             inkscape:connector-curvature="0"
             style="fill:#ded8d7" />
        </g>
        <g
           id="drawingObject9">
          <path
             id="path12"
             d="M 5.787,4.073 C 6.67,3.025 7.498,2.252 8.326,1.811 L 9.099,1.535 C 9.043,1.369 8.933,1.259 8.602,1.204 8.326,1.149 7.884,1.259 7.388,1.48 6.781,1.7 6.174,2.142 5.511,2.859 4.794,3.522 4.518,4.184 4.463,4.791 c 0,0.552 0.386,0.276 1.324,-0.718 z"
             inkscape:connector-curvature="0"
             style="fill:#ded8d7" />
        </g>
      </g>
    </g>
  </g>
</svg>
