<?xml version="1.0" encoding="UTF-8" standalone="no"?>
<!-- Generator: flash2svg, http://dissentgraphics.com/tools/flash2svg -->

<svg
   xmlns:dc="http://purl.org/dc/elements/1.1/"
   xmlns:cc="http://creativecommons.org/ns#"
   xmlns:rdf="http://www.w3.org/1999/02/22-rdf-syntax-ns#"
   xmlns:svg="http://www.w3.org/2000/svg"
   xmlns="http://www.w3.org/2000/svg"
   xmlns:sodipodi="http://sodipodi.sourceforge.net/DTD/sodipodi-0.dtd"
   xmlns:inkscape="http://www.inkscape.org/namespaces/inkscape"
   id="AvatarAssets"
   image-rendering="auto"
   version="1.1"
   x="0px"
   y="0px"
   width="9.8954077"
   height="14.862635"
   viewBox="0 0 9.8954077 14.862635"
   inkscape:version="0.48.4 r9939"
   sodipodi:docname="AvatarAssets_pantsLegUpperOffsideA007b.svg">
  <metadata
     id="metadata3829">
    <rdf:RDF>
      <cc:Work
         rdf:about="">
        <dc:format>image/svg+xml</dc:format>
        <dc:type
           rdf:resource="http://purl.org/dc/dcmitype/StillImage" />
      </cc:Work>
    </rdf:RDF>
  </metadata>
  <sodipodi:namedview
     pagecolor="#ffffff"
     bordercolor="#666666"
     borderopacity="1"
     objecttolerance="10"
     gridtolerance="10"
     guidetolerance="10"
     inkscape:pageopacity="0"
     inkscape:pageshadow="2"
     inkscape:window-width="640"
     inkscape:window-height="480"
     id="namedview3827"
     showgrid="false"
     fit-margin-top="0"
     fit-margin-left="0"
     fit-margin-right="0"
     fit-margin-bottom="0"
     inkscape:zoom="1.9032258"
     inkscape:cx="37.112408"
     inkscape:cy="-48.099"
     inkscape:window-x="0"
     inkscape:window-y="0"
     inkscape:window-maximized="0"
     inkscape:current-layer="AvatarAssets" />
  <defs
     id="defs3807" />
  <g
     id="pantsLegUpperOffsideA007b1"
     overflow="visible"
     style="overflow:visible"
     transform="translate(5.1124077,0.96163463)">
    <g
       id="pantsLegUpperOffsideA007b_0">
      <g
         id="element">
        <g
           id="drawingObject">
          <path
             id="path"
             d="m -0.522,-0.955 c -1.092,0 -3.432,1.246 -3.652,2.396 -0.219,1.15 -0.444,4.984 -0.542,6.134 -0.037,1.15 -0.575,1.533 -0.322,2.061 0.193,0.527 0.133,0.575 0.144,1.102 l 0.007,0.335 0.066,0.24 c 0.133,0.575 0.446,1.054 0.819,1.485 1.97,1.438 4.024,1.007 6.089,1.103 C 2.626,13.565 3.165,13.23 3.706,12.99 L 4.297,12.175 4.203,10.546 C 4.184,9.636 5.282,6.952 4.5,4.316 3.658,1.681 2.086,-1.003 -0.522,-0.955 z"
             inkscape:connector-curvature="0"
             style="fill:#a60c1b" />
        </g>
        <g
           id="group1">
          <g
             id="drawingObject1">
            <path
               id="path1"
               d="M 1.124,-0.572 C 2.133,1.297 3.135,2.831 3.061,5.131 3.043,7.24 2.478,9.3 2.644,11.457 q 0.005,0.239 -0.258,2.252 l 0.6,-0.335 C 2.953,11.744 3.162,10.115 3.193,8.629 3.332,6.521 3.9,4.652 3.432,2.495 3.297,1.824 2.981,1.249 2.666,0.674 2.231,0.147 1.737,-0.284 1.124,-0.572 z"
               inkscape:connector-curvature="0"
               style="fill:#c76c27" />
          </g>
          <g
             id="drawingObject2">
            <path
               id="path2"
               d="m -1.186,-0.811 c -0.362,0.096 -0.784,0.239 -1.204,0.479 -1.71,2.396 -0.987,5.128 -1.778,8.003 -0.454,1.533 -0.302,3.019 -0.271,4.552 l 0.437,0.575 0.123,0.096 c 0.049,-0.575 0.036,-1.198 -0.036,-1.773 -0.164,-2.06 0.647,-3.977 0.727,-5.99 0.014,-2.3 0.217,-4.217 2.002,-5.942 z"
               inkscape:connector-curvature="0"
               style="fill:#c76c27" />
          </g>
          <g
             id="drawingObject3">
            <path
               id="path3"
               d="m -0.522,-0.955 -0.302,0.048 c -0.465,1.006 -0.687,2.013 -0.968,3.115 -0.502,2.156 0.153,4.504 -0.654,6.613 -0.17,0.575 -0.096,1.198 -0.086,1.725 0.083,1.102 0.041,2.013 -0.183,2.923 q 0.612,0.24 1.038,0.288 c 0.104,-0.815 0.149,-1.582 0.133,-2.396 -0.039,-1.917 0.346,-3.834 0.367,-5.799 0.082,-1.917 0.221,-4.025 1.033,-5.846 1.531,3.69 0.106,8.147 0.547,11.932 0.135,0.671 0.09,1.438 0.046,2.253 l 0.789,0 C 1.272,12.607 1.306,11.313 1.158,10.019 0.781,6.377 2.039,2.639 0.573,-0.811 0.207,-0.907 -0.158,-0.955 -0.522,-0.955 z"
               inkscape:connector-curvature="0"
               style="fill:#c76c27" />
          </g>
        </g>
        <g
           id="drawingObject4">
          <path
             id="path4"
             d="m -0.528,-0.961 c -1.093,0 -3.433,1.246 -3.652,2.396 -0.22,1.15 -0.445,4.984 -0.543,6.134 -0.037,1.15 -0.575,1.533 -0.322,2.06 0.193,0.527 0.134,0.575 0.144,1.103 l 0.007,0.335 0.066,0.24 c 0.133,0.575 0.446,1.054 0.819,1.485 1.417,1.054 2.934,1.102 4.451,1.102 l 0.72,-0.383 c 0,0 -1.873,0.383 -3.348,-0.575 -1.415,-0.958 -0.397,-1.581 0.187,-2.732 C -1.415,9.102 0.688,8.096 2.497,7.569 3.1,7.377 3.942,7.042 4.783,6.61 4.768,5.891 4.691,5.077 4.493,4.31 3.651,1.674 2.079,-1.009 -0.528,-0.961 z"
             inkscape:connector-curvature="0"
             style="fill:#000000;fill-opacity:0.2" />
        </g>
        <g
           id="drawingObject5">
          <path
             id="path5"
             d="m -0.528,-0.961 c -1.093,0 -3.433,1.246 -3.652,2.396 -0.22,1.15 -0.445,4.984 -0.543,6.134 -0.037,1.15 -0.575,1.533 -0.322,2.06 0.193,0.527 0.134,0.575 0.144,1.103 l 0.007,0.335 0.066,0.24 c 0.133,0.575 0.446,1.054 0.756,1.389 -0.127,-0.287 -0.133,-0.575 -0.018,-0.91 0.284,-0.911 0.456,-1.438 0.455,-1.486 C -3.363,8.767 -1.438,8 0.914,7.281 2.542,6.802 3.983,6.083 4.704,5.7 4.694,5.221 4.624,4.789 4.493,4.31 3.651,1.674 2.079,-1.009 -0.528,-0.961 z"
             inkscape:connector-curvature="0"
             style="fill:#000000;fill-opacity:0.2" />
        </g>
        <g
           id="drawingObject6">
          <path
             id="path6"
             d="M 2.762,13.032 C 3.003,12.936 3.16,11.738 2.434,11.834 q -1.209,0.191 -1.39,0.239 -0.664,0.192 -0.353,0.575 c 0.496,0.528 1.829,0.432 2.071,0.384 z"
             inkscape:connector-curvature="0"
             style="fill:#ffffff;fill-opacity:0.2" />
        </g>
      </g>
    </g>
  </g>
</svg>
