<?xml version="1.0" encoding="UTF-8" standalone="no"?>
<!-- Generator: flash2svg, http://dissentgraphics.com/tools/flash2svg -->

<svg
   xmlns:dc="http://purl.org/dc/elements/1.1/"
   xmlns:cc="http://creativecommons.org/ns#"
   xmlns:rdf="http://www.w3.org/1999/02/22-rdf-syntax-ns#"
   xmlns:svg="http://www.w3.org/2000/svg"
   xmlns="http://www.w3.org/2000/svg"
   xmlns:sodipodi="http://sodipodi.sourceforge.net/DTD/sodipodi-0.dtd"
   xmlns:inkscape="http://www.inkscape.org/namespaces/inkscape"
   id="AvatarAssets"
   image-rendering="auto"
   version="1.1"
   x="0px"
   y="0px"
   width="9.6000004"
   height="14.785077"
   viewBox="0 0 9.6000004 14.785077"
   inkscape:version="0.48.4 r9939"
   sodipodi:docname="AvatarAssets_pantsLegUpperOffside20101122.svg">
  <metadata
     id="metadata3642">
    <rdf:RDF>
      <cc:Work
         rdf:about="">
        <dc:format>image/svg+xml</dc:format>
        <dc:type
           rdf:resource="http://purl.org/dc/dcmitype/StillImage" />
      </cc:Work>
    </rdf:RDF>
  </metadata>
  <sodipodi:namedview
     pagecolor="#ffffff"
     bordercolor="#666666"
     borderopacity="1"
     objecttolerance="10"
     gridtolerance="10"
     guidetolerance="10"
     inkscape:pageopacity="0"
     inkscape:pageshadow="2"
     inkscape:window-width="640"
     inkscape:window-height="480"
     id="namedview3640"
     showgrid="false"
     fit-margin-top="0"
     fit-margin-left="0"
     fit-margin-right="0"
     fit-margin-bottom="0"
     inkscape:zoom="1.9032258"
     inkscape:cx="36.75"
     inkscape:cy="-48.1375"
     inkscape:window-x="0"
     inkscape:window-y="0"
     inkscape:window-maximized="0"
     inkscape:current-layer="AvatarAssets" />
  <defs
     id="defs3609" />
  <g
     id="pantsLegUpperOffside20101123"
     overflow="visible"
     style="overflow:visible"
     transform="translate(4.75,0.92257713)">
    <g
       id="pantsLegUpperOffside20101122_3_0">
      <g
         id="element3"
         overflow="visible"
         style="overflow:visible">
        <g
           id="pantsLegUpperOffside20101122Color_7_0">
          <g
             id="element6">
            <path
               id="path27"
               d="M 4.5,8.35 C 4.35,8.3 4.2,8.25 4.15,8.2 c 0,0 0,0 -0.3,-0.05 0.05,0.05 -0.15,0 -0.3,0 -0.2,0 -0.6,0 -1.3,0.05 C 1.3,8.25 0.55,8.35 -0.15,8.45 -0.75,8.5 -1.3,8.6 -1.7,8.6 -1.8,8.6 -1.9,8.65 -2.05,8.7 -2.15,8.75 -2.3,8.8 -2.4,8.85 L -2.5,8.9 -2.9,9 c -0.6,0.15 -0.95,0.25 -1.15,0.4 -0.15,0 -0.2,0.1 -0.25,0.15 -0.1,0.1 -0.15,0.1 -0.2,0.05 0,0.05 0,0.15 0,0.2 l 0.05,0.15 0,0.25 -0.05,0 c -0.05,0.8 0.2,1.5 0.65,2.1 l 0.1,0.1 c 0.1,0.15 0.15,0.25 0.25,0.35 0.6,0.6 1.55,1.05 3,1.05 q 1.1,0.05 2,-0.1 l 1,-0.25 C 2.8,13.3 3,13.1 3.2,12.95 3.3,12.9 3.4,12.8 3.45,12.7 3.8,12.25 4.1,11.65 4.25,10.9 4.3,10.75 4.3,10.65 4.35,10.5 4.4,10.4 4.4,10.3 4.4,10.2 c 0,-0.1 0,-0.2 0,-0.3 L 4.5,9.6 C 4.55,9.2 4.55,8.75 4.55,8.35 l -0.05,0 z"
               inkscape:connector-curvature="0"
               style="fill:#edede4" />
          </g>
        </g>
      </g>
    </g>
    <g
       id="pantsLegUpperOffside20101122_2_0">
      <g
         id="element2"
         overflow="visible"
         style="overflow:visible">
        <g
           id="pantsLegUpperOffside20101122Color_5_0">
          <g
             id="element5">
            <path
               id="path22"
               d="m 4.5,8.75 0,-0.4 C 4.35,8.3 4.2,8.25 4.15,8.2 c 0,0 0,0 -0.3,-0.05 0.05,0.05 -0.15,0 -0.3,0 -0.2,0 -0.6,0 -1.3,0.05 C 1.3,8.25 0.55,8.35 -0.15,8.45 -0.75,8.5 -1.3,8.6 -1.7,8.6 -1.8,8.6 -1.9,8.65 -2.05,8.7 -2.15,8.75 -2.3,8.8 -2.4,8.85 l -0.1,0.05 0.2,0 0.15,-0.05 0.55,-0.05 0.05,0 0.6,-0.05 0.1,-0.05 2.1,-0.1 C 2.65,8.55 4.05,8.7 4.5,8.75 z M 4.4,9.9 4.5,9.6 C 4.1,9.65 3.25,9.75 1.25,9.8 L -0.2,9.85 c -0.9,0.05 -1.65,0.1 -2.4,0.1 l -1.85,0 0,0.9 0.25,0 0.45,0.05 1.4,0 c 0.95,0.05 2.05,0.05 3.2,0 1.8,-0.05 3,-0.3 3.5,-0.4 0.05,-0.1 0.05,-0.2 0.05,-0.3 0,-0.1 0,-0.2 0,-0.3 z M 0.7,13 2.95,12.8 3.5,12.6 c 0.2,-0.3 0.45,-0.7 0.6,-1.2 -0.45,0.25 -1.7,0.5 -3.6,0.55 -0.8,0.05 -1.6,0 -2.4,-0.05 l -2.1,-0.15 0,-0.05 -0.2,0 c 0.05,0.25 0.2,0.45 0.35,0.6 l 0.1,0.1 c 0.1,0.15 0.15,0.25 0.25,0.35 l 0.05,0 C -2.25,12.9 -0.9,13 0,13 l 0.7,0 z"
               inkscape:connector-curvature="0"
               style="fill:#3d3d3b" />
          </g>
        </g>
      </g>
    </g>
    <g
       id="pantsLegUpperOffside20101122_1_0">
      <g
         id="element1">
        <path
           id="path"
           d="M 0.3,10.7 0.25,10.65 C 0.1,10.6 0.05,10.5 0,10.45 -0.05,10.4 -0.05,10.3 -0.1,10.25 -0.15,10.1 -0.2,10 -0.25,9.9 l 0,-0.45 -0.05,-0.35 0.05,-0.4 0,-0.05 0.05,-0.15 c -0.6,0.05 -1.15,0.15 -1.55,0.15 -0.1,0 -0.2,0.05 -0.35,0.1 -0.1,0.05 -0.25,0.1 -0.35,0.15 l -0.1,0.05 C -2.7,9.3 -2.8,9.65 -2.65,10 l 0.05,0.4 0.2,0.4 0,0.15 c 0.05,0.35 0.15,0.75 0.45,1 0.05,0.1 0.1,0.2 0.25,0.25 l 0.85,0.5 1.15,0.3 0.35,0.05 0.7,0 c 0.5,0 1.05,-0.05 1.55,-0.2 l 0.5,-0.1 C 3.75,12.3 4.05,11.7 4.2,10.95 l -0.1,0.1 -0.85,0.3 c -0.5,0.15 -1.2,0.2 -1.7,0.05 L 1.2,11.1 1.65,11.1 0.8,10.95 0.55,10.85 0.3,10.7 z"
           inkscape:connector-curvature="0"
           style="fill:#30302f;fill-opacity:0.29800002" />
        <path
           id="path1"
           d="m 1.45,13.75 1,-0.25 c 0.3,-0.15 0.5,-0.35 0.7,-0.5 0.1,-0.05 0.2,-0.15 0.25,-0.25 l -0.5,0.1 C 2.4,13 1.85,13.05 1.35,13.05 l -0.7,0 L 0.3,13 -0.85,12.7 -1.7,12.2 c -0.15,-0.05 -0.2,-0.15 -0.25,-0.25 -0.3,-0.25 -0.4,-0.65 -0.45,-1 L -2.4,10.8 -2.6,10.4 -2.65,10 C -2.8,9.65 -2.7,9.3 -2.55,8.95 l -0.4,0.1 c -0.6,0.15 -0.95,0.25 -1.15,0.4 -0.15,0 -0.2,0.1 -0.25,0.15 -0.1,0.1 -0.15,0.1 -0.2,0.05 0,0.05 0,0.15 0,0.2 l 0.05,0.15 0,0.25 -0.075,0 0.025,0 c -0.05,0.8 0.2,1.5 0.65,2.1 L -3.925,12.325 -3.8,12.45 c 0.1,0.15 0.15,0.25 0.25,0.35 0.6,0.6 1.55,1.05 3,1.05 q 1.1,0.05 2,-0.1 z"
           inkscape:connector-curvature="0"
           style="fill:#30302f;fill-opacity:0.65899999" />
      </g>
    </g>
    <g
       id="pantsLegUpperOffside20101122_0_0">
      <g
         id="element"
         overflow="visible"
         style="overflow:visible">
        <g
           id="pantsLegUpperOffside20101122Color_3_0">
          <g
             id="element4">
            <path
               id="path2"
               d="m 2.75,0.1 -0.9,-0.6 c -0.3,-0.25 -1.2,-0.5 -2.4,-0.4 -1.95,0.15 -3.45,0.75 -4,4.2 -0.1,0.8 -0.2,1.95 -0.05,3.45 0,0.5 0.05,1 0.1,1.5 -0.05,0 0,-0.1 0.3,-0.2 C -4.1,8 -3.85,7.9 -3.7,7.8 -3.6,7.75 -3.6,7.75 -3.6,7.75 -3.55,7.7 -3.3,7.6 -2.95,7.55 -2.65,7.5 -2.25,7.4 -1.7,7.3 -1.2,7.2 -0.75,7.1 -0.4,7.05 0.15,6.95 0.5,6.9 0.75,6.9 c 0.2,0 0.45,0 0.5,0 l 0.45,0 q 0.25,0 0.5,0.05 L 2.1,6.85 C 1.9,6.75 1.2,6.65 1.35,6.4 1.45,6.2 2,6.3 2.3,6.25 l -0.55,0 0.55,0 C 2.35,6.2 2.4,6.2 2.45,6.2 2.95,6.1 3.4,5.85 3.8,5.55 3.85,5.5 4,5.45 4.05,5.4 L 4.5,5.35 4.55,5.3 C 4.45,4.6 4.4,3.8 4.15,2.8 4.05,2.55 4.05,2.4 4,2.2 3.95,2.15 3.95,2.15 3.95,2.1 3.8,1.7 3.65,1.3 3.45,1 3.25,0.65 2.95,0.35 2.75,0.1 z"
               inkscape:connector-curvature="0"
               style="fill:#2e2e2e" />
            <path
               id="path3"
               d="M 4.5,5.35 4.05,5.4 C 4,5.45 3.85,5.5 3.8,5.55 3.4,5.85 2.95,6.1 2.45,6.2 2.4,6.2 2.35,6.2 2.3,6.25 l -0.55,0 0.55,0 C 2,6.3 1.45,6.2 1.35,6.4 1.2,6.65 1.9,6.75 2.1,6.85 l 0.2,0.1 c 0.75,-0.05 1.25,0 1.55,0.1 0.2,0.05 0.3,0.1 0.45,0.15 0.15,0.05 0.25,0.1 0.3,0.15 L 4.55,7.15 4.05,6.9 3.6,6.85 3.2,6.75 C 2.9,6.7 1.95,6.75 1.9,6.45 2.2,6.4 2.45,6.4 2.7,6.35 3.15,6.25 3.55,6.15 3.9,6 L 4,5.95 C 4.15,5.85 4.35,5.75 4.55,5.65 L 4.55,5.3 4.5,5.35 z M 4.6,8.45 4.65,8.4 C 4.6,8.35 4.6,8.35 4.55,8.35 l -0.05,0 C 4.2,8.25 3.9,8.15 3.55,8.1 l -0.1,0 c -0.05,0 -0.05,0 -0.1,0 l -0.1,0 C 2.95,8.05 2,8.1 0.85,8.2 0.55,8.25 0.25,8.3 -0.1,8.35 c -0.55,0.05 -1,0.15 -1.35,0.2 0,-0.05 -0.2,0 -0.35,0.05 C -1.95,8.65 -2.1,8.65 -2.3,8.65 -3.05,8.8 -3.6,9 -3.95,9.2 -4.1,9.25 -4.3,9.35 -4.4,9.45 -4.65,9.65 -4.3,9.6 -4.3,9.6 -4.25,9.55 -4.2,9.45 -4.05,9.45 -3.85,9.3 -3.5,9.2 -2.9,9.05 -2.85,9 -2.85,9 -2.8,9 -2.65,8.95 -2.55,8.95 -2.4,8.9 -2.3,8.85 -2.15,8.8 -2.05,8.75 -1.9,8.7 -1.8,8.65 -1.7,8.65 -1.3,8.65 -0.75,8.55 -0.15,8.5 0.55,8.4 1.3,8.3 2.25,8.25 2.95,8.2 3.35,8.2 3.55,8.2 c 0.15,0 0.35,0.05 0.3,0 0.3,0.05 0.3,0.05 0.3,0.05 0.05,0.05 0.2,0.1 0.35,0.15 l 0.05,0 0.05,0.05 z"
               inkscape:connector-curvature="0"
               style="fill:#3d3d3d" />
            <path
               id="path4"
               d="m 3.2,6.75 0.4,0.1 0.45,0.05 0.5,0.25 0.05,0.2 c 0,-0.3 0,-0.8 -0.05,-1.7 -0.2,0.1 -0.4,0.2 -0.55,0.3 L 3.9,6 C 3.55,6.15 3.15,6.25 2.7,6.35 2.45,6.4 2.2,6.4 1.9,6.45 c 0.05,0.3 1,0.25 1.3,0.3 z m -0.9,0.2 -0.2,-0.1 0.1,0.1 0.1,0 z"
               inkscape:connector-curvature="0"
               style="fill:#4d4d4d" />
            <path
               id="path5"
               d="M 4.3,7.2 C 4.15,7.15 4.05,7.1 3.85,7.05 3.55,6.95 3.05,6.9 2.3,6.95 l -0.1,0 Q 1.95,6.9 1.7,6.9 l -0.45,0 c -0.05,0 -0.3,0 -0.5,0 -0.25,0 -0.6,0.05 -1.15,0.15 l -0.25,0.1 0,0.25 0.85,0.1 -0.85,0.25 0,0.05 c -0.05,0.05 0,0.15 0.05,0.2 0.1,0.1 0.2,0.15 0.4,0.15 l 3.1,-0.2 1.5,0.15 0.15,0 C 4.75,8.15 4.8,8.1 4.75,8 L 4.55,7.75 4.8,7.8 4.75,7.5 C 4.75,7.45 4.7,7.4 4.6,7.35 4.55,7.3 4.45,7.25 4.3,7.2 z M -1.65,7.3 -0.4,7.05 C -0.75,7.1 -1.2,7.2 -1.7,7.3 -2.25,7.4 -2.65,7.5 -2.95,7.55 l 1.3,-0.25 z"
               inkscape:connector-curvature="0"
               style="fill:#52524e" />
            <path
               id="path8"
               d="m 4.75,8 c 0.05,0.1 0,0.15 -0.2,0.1 L 4.4,8.1 2.9,7.95 -0.2,8.15 C -0.4,8.15 -0.5,8.1 -0.6,8 -0.65,7.95 -0.7,7.85 -0.65,7.8 l 0,-0.05 L 0.2,7.5 -0.65,7.4 -0.65,7.15 -0.4,7.05 -1.65,7.3 C -1.85,7.4 -2,7.5 -2,7.6 c -0.05,0.25 0.15,0.25 0.15,0.25 l -0.55,0.4 c 0,0.15 0.05,0.2 0.25,0.25 0.2,0 0.35,0 0.6,-0.05 C -0.95,8.35 -0.45,8.3 0,8.25 0.95,8.1 1.75,8.05 2.45,8.05 2.7,8 3,8.05 3.35,8.1 c 0.05,0 0.05,0 0.1,0 l 0.1,0 c 0.1,0 0.25,0 0.3,0 0.05,0 0.1,0 0.1,0.05 0.1,0 0.15,0 0.15,0 0.1,0 0.25,0 0.4,0.05 l 0.05,0 c 0.05,0.05 0.2,0.05 0.25,0.1 0,-0.05 0,-0.1 0.05,-0.1 0,-0.1 0,-0.25 -0.05,-0.3 L 4.8,7.8 4.55,7.75 4.75,8 z"
               inkscape:connector-curvature="0"
               style="fill:#454541" />
            <path
               id="path9"
               d="M 4.55,8.2 4.5,8.2 C 4.35,8.15 4.2,8.15 4.1,8.15 4.2,8.2 4.35,8.2 4.5,8.25 L 4.55,8.3 C 4.6,8.35 4.6,8.35 4.65,8.4 l 0.1,-0.1 0.05,0 C 4.75,8.25 4.6,8.25 4.55,8.2 z m -1.3,-0.1 0.1,0 C 3,8.05 2.7,8 2.45,8.05 1.75,8.05 0.95,8.1 0,8.25 -0.45,8.3 -0.95,8.35 -1.55,8.45 -1.8,8.5 -1.95,8.5 -2.15,8.5 -2.35,8.45 -2.4,8.4 -2.4,8.25 l 0.55,-0.4 c 0,0 -0.2,0 -0.15,-0.25 0,-0.1 0.15,-0.2 0.35,-0.3 L -2.95,7.55 -3.5,8 l 0,0.05 c 0,0.1 0,0.2 0,0.35 0,0.2 0.2,0.25 0.5,0.25 0.2,0 0.4,0 0.7,0 C -2.1,8.6 -1.8,8.6 -1.45,8.55 -1.1,8.5 -0.65,8.4 -0.1,8.35 0.25,8.3 0.55,8.25 0.85,8.2 2,8.1 2.95,8.05 3.25,8.1 z"
               inkscape:connector-curvature="0"
               style="fill:#3d3d3a" />
            <path
               id="path10"
               d="m 4.1,8.15 c 0,0 -0.05,0 -0.15,0 C 3.95,8.1 3.9,8.1 3.85,8.1 3.8,8.1 3.65,8.1 3.55,8.1 3.9,8.15 4.2,8.25 4.5,8.35 l 0.05,0 c 0.05,0 0.05,0 0.1,0.05 C 4.6,8.35 4.6,8.35 4.55,8.3 L 4.5,8.25 C 4.35,8.2 4.2,8.2 4.1,8.15 z M -3,8.65 c -0.3,0 -0.5,-0.05 -0.5,-0.25 0,-0.15 0,-0.25 0,-0.35 L -3.5,8 -2.95,7.55 c -0.35,0.05 -0.6,0.15 -0.65,0.2 0,0 0,0 -0.1,0.05 -0.15,0.1 -0.4,0.2 -0.5,0.25 -0.3,0.1 -0.35,0.2 -0.3,0.2 -0.25,0.15 -0.25,0.15 -0.2,0.1 l -0.05,0.05 0.1,1.1 c 0.1,0.05 0.1,0.1 0.15,0.15 0.05,0.05 0.1,0.05 0.2,-0.05 0,0 -0.35,0.05 -0.1,-0.15 0.1,-0.1 0.3,-0.2 0.45,-0.25 0.35,-0.2 0.9,-0.4 1.65,-0.55 -0.3,0 -0.5,0 -0.7,0 z"
               inkscape:connector-curvature="0"
               style="fill:#30302e" />
            <path
               id="path19"
               d="M -2.8,9 C -2.85,9 -2.85,9 -2.9,9.05 L -2.5,8.95 -2.8,9 z"
               inkscape:connector-curvature="0"
               style="fill:#edede4" />
            <path
               id="path20"
               d="M -2.8,9 -2.5,8.95 -2.4,8.9 C -2.55,8.95 -2.65,8.95 -2.8,9 z"
               inkscape:connector-curvature="0"
               style="fill:#1f1f1e" />
            <path
               id="path21"
               d="M -1.8,8.6 C -1.65,8.55 -1.45,8.5 -1.45,8.55 -1.8,8.6 -2.1,8.6 -2.3,8.65 c 0.2,0 0.35,0 0.5,-0.05"
               inkscape:connector-curvature="0"
               style="fill:#30302e" />
          </g>
        </g>
      </g>
    </g>
  </g>
</svg>
