<?xml version="1.0" encoding="UTF-8" standalone="no"?>
<!-- Generator: flash2svg, http://dissentgraphics.com/tools/flash2svg -->

<svg
   xmlns:dc="http://purl.org/dc/elements/1.1/"
   xmlns:cc="http://creativecommons.org/ns#"
   xmlns:rdf="http://www.w3.org/1999/02/22-rdf-syntax-ns#"
   xmlns:svg="http://www.w3.org/2000/svg"
   xmlns="http://www.w3.org/2000/svg"
   xmlns:xlink="http://www.w3.org/1999/xlink"
   xmlns:sodipodi="http://sodipodi.sourceforge.net/DTD/sodipodi-0.dtd"
   xmlns:inkscape="http://www.inkscape.org/namespaces/inkscape"
   id="AvatarAssets"
   image-rendering="auto"
   version="1.1"
   x="0px"
   y="0px"
   width="9.5969963"
   height="14.873127"
   viewBox="0 0 9.5969963 14.873127"
   inkscape:version="0.48.4 r9939"
   sodipodi:docname="AvatarAssets_pantsLegUpperOffside20101103Black.svg">
  <metadata
     id="metadata3606">
    <rdf:RDF>
      <cc:Work
         rdf:about="">
        <dc:format>image/svg+xml</dc:format>
        <dc:type
           rdf:resource="http://purl.org/dc/dcmitype/StillImage" />
      </cc:Work>
    </rdf:RDF>
  </metadata>
  <sodipodi:namedview
     pagecolor="#ffffff"
     bordercolor="#666666"
     borderopacity="1"
     objecttolerance="10"
     gridtolerance="10"
     guidetolerance="10"
     inkscape:pageopacity="0"
     inkscape:pageshadow="2"
     inkscape:window-width="640"
     inkscape:window-height="480"
     id="namedview3604"
     showgrid="false"
     fit-margin-top="0"
     fit-margin-left="0"
     fit-margin-right="0"
     fit-margin-bottom="0"
     inkscape:zoom="1.9032258"
     inkscape:cx="36.787996"
     inkscape:cy="-48.054309"
     inkscape:window-x="0"
     inkscape:window-y="0"
     inkscape:window-maximized="0"
     inkscape:current-layer="AvatarAssets" />
  <defs
     id="defs3506">
    <pattern
       id="bitmap"
       patternContentUnits="userSpaceOnUse"
       patternUnits="userSpaceOnUse"
       width="200"
       height="200"
       viewBox="0 0 200 200"
       patternTransform="matrix(1 0 0 1 178.8 140.3)">
      <symbol
         id="Denim_Texture_Black_symbol"
         viewBox="0 0 200 200">
        <image
           sodipodi:absref="C:\Users\Training\Documents\GitHub\Glitchen-Avatar-Engine\glitch-avatars-svg\base_avatar\AvatarAssets.fla\clothing\side\Denim Texture Black"
           xlink:href="Denim Texture Black"
           height="200"
           width="200"
           id="Denim_Texture_Black" />
      </symbol>
      <use
         id="Denim_Texture_Black_use"
         width="200"
         height="200"
         y="0"
         x="0"
         xlink:href="#Denim_Texture_Black_symbol"
         externalResourcesRequired="true" />
    </pattern>
    <linearGradient
       gradientUnits="userSpaceOnUse"
       color-interpolation="sRGB"
       x1="274.86249"
       y1="240.25"
       x2="282.73749"
       y2="240.25"
       id="linearGradient">
      <stop
         stop-color="#000"
         stop-opacity="0.24705882352941178"
         offset="0"
         id="stop3513" />
      <stop
         stop-color="#000"
         stop-opacity="0.24705882352941178"
         offset="0.85882"
         id="stop3515" />
      <stop
         stop-color="#000"
         stop-opacity="0.24705882352941178"
         offset="1"
         id="stop3517" />
    </linearGradient>
    <linearGradient
       gradientUnits="userSpaceOnUse"
       color-interpolation="sRGB"
       x1="381.01251"
       y1="685.20001"
       x2="388.88751"
       y2="685.20001"
       id="linearGradient1">
      <stop
         stop-color="#000"
         stop-opacity="0.24705882352941178"
         offset="0"
         id="stop3520" />
      <stop
         stop-color="#000"
         stop-opacity="0.24705882352941178"
         offset="0.85882"
         id="stop3522" />
      <stop
         stop-color="#000"
         stop-opacity="0.24705882352941178"
         offset="1"
         id="stop3524" />
    </linearGradient>
    <linearGradient
       gradientUnits="userSpaceOnUse"
       color-interpolation="sRGB"
       x1="381.02499"
       y1="685.15002"
       x2="384.47501"
       y2="685.15002"
       id="linearGradient2">
      <stop
         stop-color="#000"
         stop-opacity="0.24705882352941178"
         offset="0"
         id="stop3527" />
      <stop
         stop-color="#000"
         stop-opacity="0.24705882352941178"
         offset="0.85882"
         id="stop3529" />
      <stop
         stop-color="#000"
         stop-opacity="0.24705882352941178"
         offset="1"
         id="stop3531" />
    </linearGradient>
    <linearGradient
       gradientUnits="userSpaceOnUse"
       color-interpolation="sRGB"
       x1="383.91251"
       y1="684.95001"
       x2="384.6875"
       y2="684.95001"
       id="linearGradient3">
      <stop
         stop-color="#F7FFFF"
         stop-opacity="0.08627450980392157"
         offset="0"
         id="stop3534" />
      <stop
         stop-color="#F7FFFF"
         stop-opacity="0.08627450980392157"
         offset="0.85882"
         id="stop3536" />
      <stop
         stop-color="#F7FFFF"
         stop-opacity="0.08627450980392157"
         offset="1"
         id="stop3538" />
    </linearGradient>
    <linearGradient
       gradientUnits="userSpaceOnUse"
       color-interpolation="sRGB"
       x1="383.38751"
       y1="684.79999"
       x2="384.41251"
       y2="684.79999"
       id="linearGradient4">
      <stop
         stop-color="#000"
         stop-opacity="0.24705882352941178"
         offset="0"
         id="stop3541" />
      <stop
         stop-color="#000"
         stop-opacity="0.24705882352941178"
         offset="0.85882"
         id="stop3543" />
      <stop
         stop-color="#000"
         stop-opacity="0.24705882352941178"
         offset="1"
         id="stop3545" />
    </linearGradient>
    <pattern
       id="bitmap1"
       patternContentUnits="userSpaceOnUse"
       patternUnits="userSpaceOnUse"
       width="200"
       height="200"
       viewBox="0 0 200 200"
       patternTransform="matrix(1.2140350341796875 0 0 1.017059326171875 -121.399 -95.099)">
      <symbol
         id="symbol3548"
         viewBox="0 0 200 200">
        <image
           sodipodi:absref="C:\Users\Training\Documents\GitHub\Glitchen-Avatar-Engine\glitch-avatars-svg\base_avatar\AvatarAssets.fla\clothing\side\Denim Texture Black"
           xlink:href="Denim Texture Black"
           height="200"
           width="200"
           id="image3550" />
      </symbol>
      <use
         id="use3552"
         width="200"
         height="200"
         y="0"
         x="0"
         xlink:href="#Denim_Texture_Black_symbol"
         externalResourcesRequired="true" />
    </pattern>
    <linearGradient
       gradientUnits="userSpaceOnUse"
       color-interpolation="sRGB"
       x1="-4.8060002"
       y1="6.5"
       x2="4.7540002"
       y2="6.5"
       id="linearGradient5">
      <stop
         stop-color="#000"
         stop-opacity="0.24705882352941178"
         offset="0"
         id="stop3555" />
      <stop
         stop-color="#000"
         stop-opacity="0.24705882352941178"
         offset="0.85882"
         id="stop3557" />
      <stop
         stop-color="#000"
         stop-opacity="0.24705882352941178"
         offset="1"
         id="stop3559" />
    </linearGradient>
    <linearGradient
       gradientUnits="userSpaceOnUse"
       color-interpolation="sRGB"
       x1="-4.7360001"
       y1="6.54"
       x2="4.8239999"
       y2="6.54"
       id="linearGradient6">
      <stop
         stop-color="#000"
         stop-opacity="0.24705882352941178"
         offset="0"
         id="stop3562" />
      <stop
         stop-color="#000"
         stop-opacity="0.24705882352941178"
         offset="0.85882"
         id="stop3564" />
      <stop
         stop-color="#000"
         stop-opacity="0.24705882352941178"
         offset="1"
         id="stop3566" />
    </linearGradient>
    <linearGradient
       gradientUnits="userSpaceOnUse"
       color-interpolation="sRGB"
       x1="-4.7210002"
       y1="6.4889998"
       x2="-0.53299999"
       y2="6.4889998"
       id="linearGradient7">
      <stop
         stop-color="#000"
         stop-opacity="0.24705882352941178"
         offset="0"
         id="stop3569" />
      <stop
         stop-color="#000"
         stop-opacity="0.24705882352941178"
         offset="0.85882"
         id="stop3571" />
      <stop
         stop-color="#000"
         stop-opacity="0.24705882352941178"
         offset="1"
         id="stop3573" />
    </linearGradient>
    <linearGradient
       gradientUnits="userSpaceOnUse"
       color-interpolation="sRGB"
       x1="-1.216"
       y1="6.2859998"
       x2="-0.27500001"
       y2="6.2859998"
       id="linearGradient8">
      <stop
         stop-color="#F7FFFF"
         stop-opacity="0.08627450980392157"
         offset="0"
         id="stop3576" />
      <stop
         stop-color="#F7FFFF"
         stop-opacity="0.08627450980392157"
         offset="0.85882"
         id="stop3578" />
      <stop
         stop-color="#F7FFFF"
         stop-opacity="0.08627450980392157"
         offset="1"
         id="stop3580" />
    </linearGradient>
    <linearGradient
       gradientUnits="userSpaceOnUse"
       color-interpolation="sRGB"
       x1="-1.853"
       y1="6.1329999"
       x2="-0.60900003"
       y2="6.1329999"
       id="linearGradient9">
      <stop
         stop-color="#000"
         stop-opacity="0.24705882352941178"
         offset="0"
         id="stop3583" />
      <stop
         stop-color="#000"
         stop-opacity="0.24705882352941178"
         offset="0.85882"
         id="stop3585" />
      <stop
         stop-color="#000"
         stop-opacity="0.24705882352941178"
         offset="1"
         id="stop3587" />
    </linearGradient>
  </defs>
  <g
     id="pantsLegUpperOffside20101103Black1"
     overflow="visible"
     style="overflow:visible"
     transform="translate(4.7879964,0.92743539)">
    <g
       id="pantsLegUpperOffside20101103Black_0">
      <g
         id="element">
        <g
           id="drawingObject">
          <path
             id="path"
             d="M -0.754,-0.874 Q -2.029,-0.925 -3.183,0.092 -4.214,1.058 -4.579,2.33 c -0.425,1.627 -0.06,4.22 -0.121,5.339 0,1.068 -0.061,3.204 0.728,4.373 1.275,1.831 6.192,2.696 7.649,0.967 C 4.83,11.636 4.83,7.923 4.648,6.144 4.466,4.364 3.677,-0.569 -0.754,-0.874 z"
             inkscape:connector-curvature="0"
             style="fill:url(#bitmap1)" />
        </g>
        <g
           id="drawingObject1">
          <path
             id="path1"
             d="m -3.972,11.992 c 1.275,1.83 6.192,2.695 7.649,0.966 C 4.83,11.585 4.83,7.873 4.648,6.093 4.466,4.313 3.677,-0.62 -0.754,-0.925 Q -2.029,-0.976 -3.183,0.041 -4.214,1.007 -4.579,2.279 C -5.004,3.906 -4.639,6.5 -4.7,7.618 c 0,1.068 -0.061,3.204 0.728,4.374 z"
             inkscape:connector-curvature="0"
             style="fill:url(#linearGradient5)" />
        </g>
        <g
           id="drawingObject2">
          <path
             id="path2"
             d="m -4.63,7.659 c 0,1.068 -0.061,3.204 0.728,4.373 1.275,1.831 6.192,2.695 7.649,0.966 Q 4.536,12.083 4.718,9.744 4.9,7.913 4.718,6.133 l 0,-0.203 C 4.596,7.405 4.354,7.71 4.232,7.71 L 4.475,7.913 C 4.596,8.167 4.961,8.879 3.807,10.761 2.593,12.642 -0.442,9.337 -0.988,8.116 -1.534,6.845 -1.474,5.472 -1.413,3.235 -1.352,1.556 -1.11,0.183 -0.503,-0.834 l -0.182,-0.05 C -2.445,-0.986 -4.084,0.692 -4.509,2.319 -4.934,3.947 -4.57,6.54 -4.63,7.659 z"
             inkscape:connector-curvature="0"
             style="fill:url(#linearGradient6)" />
        </g>
        <g
           id="drawingObject3">
          <path
             id="path3"
             d="m -1.717,-0.732 c -1.335,0.407 -2.488,1.729 -2.792,3.051 -0.425,1.628 -0.061,4.221 -0.121,5.34 0,1.068 -0.061,3.204 0.728,4.373 0.607,0.814 1.943,1.475 3.339,1.729 L -0.624,13.659 Q -2.081,12.032 -2.263,10.405 -2.141,9.083 -2.202,8.93 C -2.263,8.574 -2.566,8.167 -2.748,7.557 -2.931,6.998 -3.295,6.896 -3.416,5.116 c 0,-0.915 -0.061,-0.661 0.364,-2.898 0.304,-1.373 0.728,-2.289 1.335,-2.95 z"
             inkscape:connector-curvature="0"
             style="fill:url(#linearGradient7)" />
        </g>
        <g
           id="drawingObject4">
          <path
             id="path4"
             d="M -0.563,0.285 -0.927,1.556 Q -1.292,3.133 -1.17,4.658 l 0.91,7.578 -0.303,-5.899 C -0.685,4.608 -0.988,4.099 -0.806,2.726 l 0.243,-2.441 z"
             inkscape:connector-curvature="0"
             style="fill:url(#linearGradient8)" />
        </g>
        <g
           id="drawingObject5">
          <path
             id="path5"
             d="m -1.049,0.59 c 0,0 -0.85,2.441 -0.789,3.916 0.061,1.526 0.364,2.746 0.668,3.61 0.243,0.865 0.546,3.56 0.546,3.56 l 0,-0.457 -0.243,-2.645 c 0,-0.407 -0.364,-1.271 -0.546,-3.458 Q -1.474,3.743 -1.292,2.014 L -1.049,0.59 z"
             inkscape:connector-curvature="0"
             style="fill:url(#linearGradient9)" />
        </g>
      </g>
    </g>
  </g>
</svg>
