<?xml version="1.0" encoding="UTF-8" standalone="no"?>
<!-- Generator: flash2svg, http://dissentgraphics.com/tools/flash2svg -->

<svg
   xmlns:dc="http://purl.org/dc/elements/1.1/"
   xmlns:cc="http://creativecommons.org/ns#"
   xmlns:rdf="http://www.w3.org/1999/02/22-rdf-syntax-ns#"
   xmlns:svg="http://www.w3.org/2000/svg"
   xmlns="http://www.w3.org/2000/svg"
   xmlns:sodipodi="http://sodipodi.sourceforge.net/DTD/sodipodi-0.dtd"
   xmlns:inkscape="http://www.inkscape.org/namespaces/inkscape"
   id="AvatarAssets"
   image-rendering="auto"
   version="1.1"
   x="0px"
   y="0px"
   width="19.287849"
   height="11.241934"
   viewBox="0 0 19.287849 11.241934"
   inkscape:version="0.48.4 r9939"
   sodipodi:docname="AvatarAssets_shoeOffsideA005.svg">
  <metadata
     id="metadata3041">
    <rdf:RDF>
      <cc:Work
         rdf:about="">
        <dc:format>image/svg+xml</dc:format>
        <dc:type
           rdf:resource="http://purl.org/dc/dcmitype/StillImage" />
      </cc:Work>
    </rdf:RDF>
  </metadata>
  <sodipodi:namedview
     pagecolor="#ffffff"
     bordercolor="#666666"
     borderopacity="1"
     objecttolerance="10"
     gridtolerance="10"
     guidetolerance="10"
     inkscape:pageopacity="0"
     inkscape:pageshadow="2"
     inkscape:window-width="640"
     inkscape:window-height="480"
     id="namedview3039"
     showgrid="false"
     fit-margin-top="0"
     fit-margin-left="0"
     fit-margin-right="0"
     fit-margin-bottom="0"
     inkscape:zoom="1.9032258"
     inkscape:cx="38.928199"
     inkscape:cy="-50.547066"
     inkscape:window-x="0"
     inkscape:window-y="0"
     inkscape:window-maximized="0"
     inkscape:current-layer="AvatarAssets" />
  <defs
     id="defs3024" />
  <g
     id="shoeOffsideA6"
     overflow="visible"
     style="overflow:visible"
     transform="translate(6.9281986,-0.211)">
    <g
       id="shoeOffsideA005_0">
      <g
         id="element">
        <g
           id="group1">
          <g
             id="drawingObject">
            <path
               id="path"
               d="M 1.527,8.451 C 1.27,8.401 0.09,8.101 -1.912,7.551 c -2.002,-0.6 -3.234,-1.1 -3.644,-1.5 -0.462,-0.4 -0.616,-0.7 -0.565,-0.85 -0.257,-0.35 -0.462,-0.35 -0.565,-0.05 -0.102,0.35 -0.154,0.55 -0.154,0.6 0,0.05 0,0.2 0.052,0.4 l 0,-0.025 0.051,0.175 0.154,-0.5 c -0.051,0.25 0.051,0.55 0.257,0.95 0.205,0.35 0.975,0.75 2.207,1.1 1.283,0.35 2.515,0.75 3.85,1.05 1.334,0.25 2.669,0.55 4.055,0.8 0.308,0.05 0.513,0.1 0.77,0.15 0.462,0.05 0.821,0.05 1.077,0.05 0.668,0.1 1.284,0.2 1.643,0.2 l 0.051,0 c 0.462,0 0.976,-0.4 1.386,-0.75 0.206,-0.15 0.308,-0.2 0.411,-0.25 l 0.462,-0.45 c 0.359,-0.25 0.616,-0.5 0.77,-0.65 0,-0.05 0.051,-0.05 0.102,-0.1 0.154,-0.25 0.257,-0.45 0.411,-0.65 l 0.565,-0.8 c 0.308,-0.55 0.616,-1 0.77,-1.6 l -0.052,-0.05 0.052,-0.05 0,-0.1 -0.873,-0.4 c -0.103,0.4 -0.308,0.5 -0.719,0.4 0.308,0.5 0.411,0.95 0.36,1.3 -0.052,0.15 -0.206,0.3 -0.308,0.5 0,0 0,0 -0.052,0.1 -0.102,0.05 -0.205,0.15 -0.256,0.2 l 0.256,-0.55 c -0.462,0.55 -0.821,0.7 -1.077,0.5 L 8.919,6.251 c 0.308,1.35 0.051,2.2 -0.822,2.6 -0.872,0.4 -1.437,0.55 -1.642,0.5 -0.257,-0.1 -0.719,-0.25 -1.489,-0.45 l -0.872,0 C 3.786,9.001 3.375,8.951 2.81,8.801 2.246,8.601 1.784,8.501 1.527,8.451 z"
               inkscape:connector-curvature="0"
               style="fill:#4d3b16" />
            <path
               id="path1"
               d="m -0.269,8.901 c -1.335,-0.3 -2.567,-0.7 -3.85,-1.05 -1.232,-0.35 -2.002,-0.75 -2.207,-1.1 -0.206,-0.4 -0.308,-0.7 -0.257,-0.95 l -0.154,0.5 -0.051,-0.175 -0.103,-0.425 c -0.257,1.75 0.821,3 3.131,3.7 2.31,0.7 4.568,1.25 6.724,1.7 2.156,0.35 3.593,0.45 4.312,0.25 l 0,-0.025 -0.436,0.05 0.025,0.025 c 0.308,-0.2 0.514,-0.35 0.565,-0.4 l 0,-0.1 -0.051,0 c -0.052,-0.05 -0.052,-0.05 0,-0.1 0.051,-0.05 0.102,-0.05 0.102,-0.1 l 0.052,-0.25 -0.052,-0.05 0.052,0 -0.052,-0.05 c -0.051,-0.05 -0.102,-0.15 -0.205,-0.25 -0.359,0 -0.975,-0.1 -1.643,-0.2 -0.256,0 -0.615,0 -1.077,-0.05 C 4.299,9.801 4.094,9.751 3.786,9.701 2.4,9.451 1.065,9.151 -0.269,8.901 z"
               inkscape:connector-curvature="0"
               style="fill:#69501d" />
            <path
               id="path2"
               d="m 10.664,6.451 c 0.102,-0.2 0.256,-0.35 0.308,-0.5 Q 10.8,6.286 10.587,6.526 l 0.025,0.025 c 0.052,-0.1 0.052,-0.1 0.052,-0.1 z m -1.951,2.9 c -0.41,0.35 -0.924,0.75 -1.386,0.75 l -0.051,0 c 0.103,0.1 0.154,0.2 0.205,0.25 l 0.052,0.05 -0.052,0 0.052,0.05 -0.052,0.25 c 0,0.05 -0.051,0.05 -0.102,0.1 -0.052,0.05 -0.052,0.05 0,0.1 l 0.051,0 0,0.1 c -0.051,0.05 -0.257,0.2 -0.565,0.4 l -0.025,-0.025 0.436,-0.05 2.105,-1.2 0,0.025 c 2.412,-2.3 3.387,-4.05 2.823,-5.3 -0.154,0.6 -0.462,1.05 -0.77,1.6 l -0.565,0.8 c -0.154,0.2 -0.257,0.4 -0.411,0.65 -0.051,0.05 -0.102,0.05 -0.102,0.1 -0.154,0.15 -0.411,0.4 -0.77,0.65 l -0.462,0.45 c -0.103,0.05 -0.205,0.1 -0.411,0.25 z"
               inkscape:connector-curvature="0"
               style="fill:#755a21" />
            <path
               id="path5"
               d="m 12.204,4.851 0,-0.1 -0.052,0.05 0.052,0.05"
               inkscape:connector-curvature="0"
               style="fill:#755a21" />
          </g>
        </g>
        <g
           id="drawingObject1">
          <path
             id="path6"
             d="M 0.69,2.839 C 0.46,3.182 0.23,3.467 0.115,3.81 0.115,4.324 0.23,4.953 0.517,5.524 1.265,6.78 2.931,7.58 3.794,6.723 4.368,5.924 4.771,5.01 5.575,4.039 5.058,4.553 4.368,5.352 3.851,6.324 c 0,0 1.264,-2.4 2.357,-3.142 l 1.781,-1.257 0.46,0.286 c 0,0 -0.057,0 -0.345,0.171 0.46,-0.057 0.632,0 0.805,0.114 0,0 -1.15,-0.914 -1.954,-1.371 C 6.15,0.668 4.541,0.211 4.541,0.211 L 5.46,0.497 4.541,0.211 c 0,0 -2.069,0.057 -3.851,2.628 z M 3.161,1.582 2.472,2.096 c 0,0 1.264,-1.085 2.069,-1.256 L 5.345,0.783 c 0,0 -1.264,-0.686 -2.873,1.313 z"
             inkscape:connector-curvature="0"
             style="fill:#826326" />
          <path
             id="path7"
             d="M 3.161,1.582 2.472,2.096 c 0,0 1.264,-1.085 2.069,-1.256 L 5.345,0.783 c 0,0 -1.264,-0.686 -2.873,1.313 M 8.104,2.382 C 7.817,2.496 6.725,2.953 5.575,4.039 5.058,4.553 4.368,5.352 3.851,6.324 c 0,0 1.264,-2.4 2.357,-3.142 l 1.781,-1.257 0.46,0.286 c 0,0 -0.057,0 -0.345,0.171 z"
             inkscape:connector-curvature="0"
             style="fill:#bf9137" />
          <path
             id="path9"
             d="M 2.357,3.41 Q 2.702,2.496 3.851,1.925 C 5.518,1.24 6.437,1.639 6.38,2.382 6.782,1.925 6.61,0.954 5.115,0.954 4.311,0.954 2.816,1.925 2.414,2.668 2.184,3.01 2.242,3.353 2.357,3.41 z m -2.242,0.4 c 0,0 0,-0.057 0,-0.114 -1.149,2.228 -0.69,4.227 -0.69,4.227 0,0 2.357,0.857 3.564,0.914 l 1.207,0 c 0,0 0,-2.685 1.494,-4.399 C 7.185,2.725 8.909,2.496 8.909,2.496 L 8.88,2.468 8.909,2.496 C 8.736,2.382 8.564,2.325 8.104,2.382 7.817,2.496 6.725,2.953 5.575,4.039 4.771,5.01 4.368,5.924 3.794,6.723 2.931,7.58 1.265,6.78 0.517,5.524 0.23,4.953 0.115,4.324 0.115,3.81 z"
             inkscape:connector-curvature="0"
             style="fill:#664e1e" />
        </g>
      </g>
    </g>
  </g>
</svg>
