<?xml version="1.0" encoding="UTF-8" standalone="no"?>
<!-- Generator: flash2svg, http://dissentgraphics.com/tools/flash2svg -->

<svg
   xmlns:dc="http://purl.org/dc/elements/1.1/"
   xmlns:cc="http://creativecommons.org/ns#"
   xmlns:rdf="http://www.w3.org/1999/02/22-rdf-syntax-ns#"
   xmlns:svg="http://www.w3.org/2000/svg"
   xmlns="http://www.w3.org/2000/svg"
   xmlns:sodipodi="http://sodipodi.sourceforge.net/DTD/sodipodi-0.dtd"
   xmlns:inkscape="http://www.inkscape.org/namespaces/inkscape"
   id="AvatarAssets"
   image-rendering="auto"
   version="1.1"
   x="0px"
   y="0px"
   width="9.0563087"
   height="5.6624999"
   viewBox="0 0 9.0563087 5.6624999"
   inkscape:version="0.48.4 r9939"
   sodipodi:docname="AvatarAssets_pantsLegUpperOffside20101122Color_1.svg">
  <metadata
     id="metadata3653">
    <rdf:RDF>
      <cc:Work
         rdf:about="">
        <dc:format>image/svg+xml</dc:format>
        <dc:type
           rdf:resource="http://purl.org/dc/dcmitype/StillImage" />
      </cc:Work>
    </rdf:RDF>
  </metadata>
  <sodipodi:namedview
     pagecolor="#ffffff"
     bordercolor="#666666"
     borderopacity="1"
     objecttolerance="10"
     gridtolerance="10"
     guidetolerance="10"
     inkscape:pageopacity="0"
     inkscape:pageshadow="2"
     inkscape:window-width="640"
     inkscape:window-height="480"
     id="namedview3651"
     showgrid="false"
     fit-margin-top="0"
     fit-margin-left="0"
     fit-margin-right="0"
     fit-margin-bottom="0"
     inkscape:zoom="1.9032258"
     inkscape:cx="36.506309"
     inkscape:cy="-59.0875"
     inkscape:window-x="0"
     inkscape:window-y="0"
     inkscape:window-maximized="0"
     inkscape:current-layer="AvatarAssets" />
  <defs
     id="defs3645" />
  <g
     id="pantsLegUpperOffside20101122Color_2"
     overflow="visible"
     style="overflow:visible"
     transform="translate(4.5063091,2.75)">
    <g
       id="pantsLegUpperOffside20101122Color_1_0">
      <g
         id="element">
        <path
           id="path"
           d="M 4.5,-2.55 C 4.35,-2.6 4.2,-2.65 4.15,-2.7 c 0,0 0,0 -0.3,-0.05 0.05,0.05 -0.15,0 -0.3,0 -0.2,0 -0.6,0 -1.3,0.05 -0.95,0.05 -1.7,0.15 -2.4,0.25 -0.6,0.05 -1.15,0.15 -1.55,0.15 -0.1,0 -0.2,0.05 -0.35,0.1 -0.1,0.05 -0.25,0.1 -0.35,0.15 L -2.5,-2 -2.9,-1.9 c -0.6,0.15 -0.95,0.25 -1.15,0.4 -0.15,0 -0.2,0.1 -0.25,0.15 -0.1,0.1 -0.15,0.1 -0.2,0.05 0,0.05 0,0.15 0,0.2 l 0.05,0.15 0,0.25 -0.05,0 c -0.05,0.8 0.2,1.5 0.65,2.1 l 0.1,0.1 c 0.1,0.15 0.15,0.25 0.25,0.35 0.6,0.6 1.55,1.05 3,1.05 q 1.1,0.05 2,-0.1 l 1,-0.25 C 2.8,2.4 3,2.2 3.2,2.05 3.3,2 3.4,1.9 3.45,1.8 3.8,1.35 4.1,0.75 4.25,0 4.3,-0.15 4.3,-0.25 4.35,-0.4 4.4,-0.5 4.4,-0.6 4.4,-0.7 c 0,-0.1 0,-0.2 0,-0.3 l 0.1,-0.3 c 0.05,-0.4 0.05,-0.85 0.05,-1.25 l -0.05,0 z"
           inkscape:connector-curvature="0"
           style="fill:#edede4" />
      </g>
    </g>
  </g>
</svg>
