<?xml version="1.0" encoding="UTF-8" standalone="no"?>
<!-- Generator: flash2svg, http://dissentgraphics.com/tools/flash2svg -->

<svg
   xmlns:dc="http://purl.org/dc/elements/1.1/"
   xmlns:cc="http://creativecommons.org/ns#"
   xmlns:rdf="http://www.w3.org/1999/02/22-rdf-syntax-ns#"
   xmlns:svg="http://www.w3.org/2000/svg"
   xmlns="http://www.w3.org/2000/svg"
   xmlns:sodipodi="http://sodipodi.sourceforge.net/DTD/sodipodi-0.dtd"
   xmlns:inkscape="http://www.inkscape.org/namespaces/inkscape"
   id="AvatarAssets"
   image-rendering="auto"
   version="1.1"
   x="0px"
   y="0px"
   width="8.9499998"
   height="4.8499999"
   viewBox="0 0 8.9499998 4.8499999"
   inkscape:version="0.48.4 r9939"
   sodipodi:docname="AvatarAssets_pantsLegUpperOffside20101122Color_2.svg">
  <metadata
     id="metadata3664">
    <rdf:RDF>
      <cc:Work
         rdf:about="">
        <dc:format>image/svg+xml</dc:format>
        <dc:type
           rdf:resource="http://purl.org/dc/dcmitype/StillImage" />
      </cc:Work>
    </rdf:RDF>
  </metadata>
  <sodipodi:namedview
     pagecolor="#ffffff"
     bordercolor="#666666"
     borderopacity="1"
     objecttolerance="10"
     gridtolerance="10"
     guidetolerance="10"
     inkscape:pageopacity="0"
     inkscape:pageshadow="2"
     inkscape:window-width="640"
     inkscape:window-height="480"
     id="namedview3662"
     showgrid="false"
     fit-margin-top="0"
     fit-margin-left="0"
     fit-margin-right="0"
     fit-margin-bottom="0"
     inkscape:zoom="1.9032258"
     inkscape:cx="36.45"
     inkscape:cy="-59.5"
     inkscape:window-x="0"
     inkscape:window-y="0"
     inkscape:window-maximized="0"
     inkscape:current-layer="AvatarAssets" />
  <defs
     id="defs3656" />
  <g
     id="pantsLegUpperOffside20101122Color_3"
     overflow="visible"
     style="overflow:visible"
     transform="translate(4.45,2.35)">
    <g
       id="pantsLegUpperOffside20101122Color_2_0">
      <g
         id="element">
        <path
           id="path"
           d="m 4.5,-1.75 0,-0.4 C 4.35,-2.2 4.2,-2.25 4.15,-2.3 c 0,0 0,0 -0.3,-0.05 0.05,0.05 -0.15,0 -0.3,0 -0.2,0 -0.6,0 -1.3,0.05 -0.95,0.05 -1.7,0.15 -2.4,0.25 -0.6,0.05 -1.15,0.15 -1.55,0.15 -0.1,0 -0.2,0.05 -0.35,0.1 -0.1,0.05 -0.25,0.1 -0.35,0.15 l -0.1,0.05 0.2,0 0.15,-0.05 0.55,-0.05 0.05,0 0.6,-0.05 0.1,-0.05 2.1,-0.1 c 1.4,-0.05 2.8,0.1 3.25,0.15 z M 4.4,-0.6 4.5,-0.9 c -0.4,0.05 -1.25,0.15 -3.25,0.2 l -1.45,0.05 c -0.9,0.05 -1.65,0.1 -2.4,0.1 l -1.85,0 0,0.9 0.25,0 0.45,0.05 1.4,0 c 0.95,0.05 2.05,0.05 3.2,0 1.8,-0.05 3,-0.3 3.5,-0.4 0.05,-0.1 0.05,-0.2 0.05,-0.3 0,-0.1 0,-0.2 0,-0.3 z M 0.7,2.5 2.95,2.3 3.5,2.1 C 3.7,1.8 3.95,1.4 4.1,0.9 3.65,1.15 2.4,1.4 0.5,1.45 -0.3,1.5 -1.1,1.45 -1.9,1.4 L -4,1.25 -4,1.2 l -0.2,0 c 0.05,0.25 0.2,0.45 0.35,0.6 l 0.1,0.1 c 0.1,0.15 0.15,0.25 0.25,0.35 l 0.05,0 C -2.25,2.4 -0.9,2.5 0,2.5 l 0.7,0 z"
           inkscape:connector-curvature="0"
           style="fill:#3d3d3b" />
      </g>
    </g>
  </g>
</svg>
