<?xml version="1.0" encoding="UTF-8" standalone="no"?>
<!-- Generator: flash2svg, http://dissentgraphics.com/tools/flash2svg -->

<svg
   xmlns:dc="http://purl.org/dc/elements/1.1/"
   xmlns:cc="http://creativecommons.org/ns#"
   xmlns:rdf="http://www.w3.org/1999/02/22-rdf-syntax-ns#"
   xmlns:svg="http://www.w3.org/2000/svg"
   xmlns="http://www.w3.org/2000/svg"
   xmlns:sodipodi="http://sodipodi.sourceforge.net/DTD/sodipodi-0.dtd"
   xmlns:inkscape="http://www.inkscape.org/namespaces/inkscape"
   id="AvatarAssets"
   image-rendering="auto"
   version="1.1"
   x="0px"
   y="0px"
   width="11.216116"
   height="11.365613"
   viewBox="0 0 11.216116 11.365613"
   inkscape:version="0.48.4 r9939"
   sodipodi:docname="AvatarAssets_pantsLegLowerOffsideA007.svg">
  <metadata
     id="metadata3324">
    <rdf:RDF>
      <cc:Work
         rdf:about="">
        <dc:format>image/svg+xml</dc:format>
        <dc:type
           rdf:resource="http://purl.org/dc/dcmitype/StillImage" />
      </cc:Work>
    </rdf:RDF>
  </metadata>
  <sodipodi:namedview
     pagecolor="#ffffff"
     bordercolor="#666666"
     borderopacity="1"
     objecttolerance="10"
     gridtolerance="10"
     guidetolerance="10"
     inkscape:pageopacity="0"
     inkscape:pageshadow="2"
     inkscape:window-width="640"
     inkscape:window-height="480"
     id="namedview3322"
     showgrid="false"
     fit-margin-top="0"
     fit-margin-left="0"
     fit-margin-right="0"
     fit-margin-bottom="0"
     inkscape:zoom="1.9032258"
     inkscape:cx="38.627116"
     inkscape:cy="-54.052406"
     inkscape:window-x="0"
     inkscape:window-y="0"
     inkscape:window-maximized="0"
     inkscape:current-layer="AvatarAssets" />
  <defs
     id="defs3302" />
  <g
     id="pantsLegLowerOffsideA8"
     overflow="visible"
     style="overflow:visible"
     transform="translate(6.6271162,3.4180189)">
    <g
       id="pantsLegLowerOffsideA007_0">
      <g
         id="element">
        <g
           id="drawingObject">
          <path
             id="path"
             d="m -5.278,-0.349 -0.061,0.1 c 0.061,0.9 0.121,1.9 0,2.5 -0.242,1.05 -1.15,4.1 -1.271,4.2 -0.182,0.1 1.09,1.2 3.693,1.45 2.542,0.25 5.206,-0.55 6.357,-1.35 l 1.089,-0.75 c 0,0 -1.15,-2.25 -0.908,-3.35 q 0.182,-0.75 0.061,-3.2 L 3.44,-1.599 c -1.09,-1.2 -2.422,-1.95 -4.844,-1.8 -2.785,0.1 -3.329,0.8 -3.874,3.05 z"
             inkscape:connector-curvature="0"
             style="fill:#80a92d" />
        </g>
        <g
           id="group1">
          <g
             id="drawingObject1">
            <path
               id="path1"
               d="m 2.047,-1.349 c 0.061,1.1 -0.363,2.1 -0.303,3.2 l 0.364,2.9 c 0.06,0.65 0.363,1.4 0.847,2.1 L 3.44,6.551 3.5,6.501 C 2.047,3.851 2.289,0.551 2.531,-2.449 l -0.423,-0.25 -0.061,1.35 z"
               inkscape:connector-curvature="0"
               style="fill:#b6c837" />
          </g>
          <g
             id="drawingObject2">
            <path
               id="path2"
               d="m -4.491,-1.699 0,-0.65 q -0.182,0.25 -0.545,1.1 l 0,2.1 c -0.121,1.2 -0.424,2.35 -0.908,3.5 l -0.666,2.1 c -0.061,0 0.06,0.15 0.242,0.3 1.271,-2.8 2.058,-5.4 1.877,-8.45 z"
               inkscape:connector-curvature="0"
               style="fill:#b6c837" />
          </g>
          <g
             id="drawingObject3">
            <path
               id="path3"
               d="m -0.193,-3.399 c -0.06,0.75 -0.06,1.5 0,2.25 0.182,1.9 -0.242,4.3 -0.484,6.2 -0.121,1 0.787,1.8 1.453,2.6 L 1.744,7.351 1.26,6.851 C 0.291,5.701 0.352,4.551 0.413,3.201 q 0.363,-4.05 0.181,-6.05 l 0,-0.45 -0.787,-0.1 z"
               inkscape:connector-curvature="0"
               style="fill:#b6c837" />
          </g>
          <g
             id="drawingObject4">
            <path
               id="path4"
               d="m -2.07,-3.349 c -0.363,0 -0.726,0.05 -1.029,0.15 l 0,0.9 c 0.061,1.7 -0.121,2.9 -0.605,4.55 -0.242,0.65 -0.121,1.4 -0.242,2.05 -0.182,1.1 -0.666,2.15 -1.151,3.1 l 0.787,0.25 c 1.393,-2.85 2.18,-6.05 2.18,-9.1 l 0.06,-1.9 z"
               inkscape:connector-curvature="0"
               style="fill:#b6c837" />
          </g>
        </g>
        <g
           id="drawingObject5">
          <path
             id="path5"
             d="M 4.589,5.801 C 3.923,4.451 3.62,3.451 3.68,2.701 q -0.242,1.05 -1.15,1.95 -1.029,1.05 -2.058,0.75 c -1.453,-0.35 -2.24,-1.3 -2.119,-2.55 0.06,-1.25 2.24,-2.05 2.24,-2.05 l -1.09,0.55 1.09,-0.55 c 0,0 -1.877,0.4 -3.33,-0.6 -1.392,-1 -0.363,-1.65 0.242,-2.85 0.121,-0.25 0.303,-0.5 0.606,-0.7 -2.301,0.2 -2.846,0.95 -3.33,3 l -0.061,0.1 c 0.061,0.9 0.122,1.9 0,2.5 -0.242,1.05 -1.15,4.1 -1.271,4.2 -0.182,0.1 1.09,1.2 3.693,1.45 2.543,0.25 5.207,-0.55 6.357,-1.35 l 1.09,-0.75 z"
             inkscape:connector-curvature="0"
             style="fill:#000000;fill-opacity:0.2" />
        </g>
        <g
           id="drawingObject6">
          <path
             id="path6"
             d="m 4.407,5.901 c -2.543,1.5 -5.57,1.15 -6.781,0.35 q -0.908,-0.65 -1.089,-2.05 -0.121,-1.25 0.302,-2.35 c 0.545,-1.3 -0.242,-0.3 -1.15,-1.4 -0.908,-1.1 -0.121,-1.4 0.182,-3 l 0.06,-0.15 c -0.605,0.5 -0.908,1.2 -1.15,2.35 l -0.061,0.1 c 0.061,0.9 0.122,1.9 0,2.5 -0.242,1.05 -1.15,4.1 -1.271,4.2 -0.182,0.1 1.09,1.2 3.693,1.45 2.543,0.25 5.207,-0.55 6.357,-1.35 l 0.908,-0.65 z"
             inkscape:connector-curvature="0"
             style="fill:#000000;fill-opacity:0.2" />
        </g>
      </g>
    </g>
  </g>
</svg>
