<?xml version="1.0" encoding="UTF-8" standalone="no"?>
<!-- Generator: flash2svg, http://dissentgraphics.com/tools/flash2svg -->

<svg
   xmlns:dc="http://purl.org/dc/elements/1.1/"
   xmlns:cc="http://creativecommons.org/ns#"
   xmlns:rdf="http://www.w3.org/1999/02/22-rdf-syntax-ns#"
   xmlns:svg="http://www.w3.org/2000/svg"
   xmlns="http://www.w3.org/2000/svg"
   xmlns:sodipodi="http://sodipodi.sourceforge.net/DTD/sodipodi-0.dtd"
   xmlns:inkscape="http://www.inkscape.org/namespaces/inkscape"
   id="AvatarAssets"
   image-rendering="auto"
   version="1.1"
   x="0px"
   y="0px"
   width="10.526"
   height="11.669688"
   viewBox="0 0 10.526 11.669688"
   inkscape:version="0.48.4 r9939"
   sodipodi:docname="AvatarAssets_pantsLegLowerOffsideA006.svg">
  <metadata
     id="metadata3299">
    <rdf:RDF>
      <cc:Work
         rdf:about="">
        <dc:format>image/svg+xml</dc:format>
        <dc:type
           rdf:resource="http://purl.org/dc/dcmitype/StillImage" />
      </cc:Work>
    </rdf:RDF>
  </metadata>
  <sodipodi:namedview
     pagecolor="#ffffff"
     bordercolor="#666666"
     borderopacity="1"
     objecttolerance="10"
     gridtolerance="10"
     guidetolerance="10"
     inkscape:pageopacity="0"
     inkscape:pageshadow="2"
     inkscape:window-width="640"
     inkscape:window-height="480"
     id="namedview3297"
     showgrid="false"
     fit-margin-top="0"
     fit-margin-left="0"
     fit-margin-right="0"
     fit-margin-bottom="0"
     inkscape:zoom="1.9032258"
     inkscape:cx="37.884"
     inkscape:cy="-53.524089"
     inkscape:window-x="0"
     inkscape:window-y="0"
     inkscape:window-maximized="0"
     inkscape:current-layer="AvatarAssets" />
  <defs
     id="defs3266" />
  <g
     id="pantsLegLowerOffsideA7"
     overflow="visible"
     style="overflow:visible"
     transform="translate(5.884,3.1937774)">
    <g
       id="pantsLegLowerOffsideA006_0">
      <g
         id="element">
        <g
           id="drawingObject">
          <path
             id="path"
             d="m 2.116,3.101 c 0,0 -7.654,1.25 -6.906,3.1 0.69,1.9 2.993,2.4 4.719,2.25 1.727,-0.1 4.605,-2.05 4.605,-2.05 l -2.418,-3.3 z"
             inkscape:connector-curvature="0"
             style="fill:#000000;fill-opacity:0.2" />
        </g>
        <g
           id="drawingObject1">
          <path
             id="path1"
             d="m -4.509,-2.399 c -0.403,0.6 -0.633,1.35 -0.806,2 -0.115,0.7 -0.057,2.45 0.058,3.25 0.115,0.95 -0.23,2.1 -0.345,2.6 l -0.231,0.85 1.382,0.95 -1.382,-0.95 c 0,0 1.785,2 5.468,1.75 3.684,-0.25 5.007,-2.25 5.007,-2.25 l -1.093,1.05 1.093,-1.05 c 0,0 -0.978,-1.6 -1.036,-3 -0.115,-1.45 -0.115,-1.95 0.058,-2.9 l 0,-1.1 c -0.288,-0.4 -0.518,-0.8 -0.633,-1.25 -2.302,-1.05 -5.123,-0.95 -7.54,0.05 z"
             inkscape:connector-curvature="0"
             style="fill:#d9b558" />
        </g>
        <g
           id="group1">
          <g
             id="drawingObject2">
            <path
               id="path2"
               d="m -1.286,-3.149 -0.921,0.1 q 0.461,3.6 -0.23,5.4 c -0.633,1.7 -0.403,3.65 -0.691,5.4 l 0.806,0.2 0.288,-1.4 c 0.173,-1.1 0.058,-2.15 0.23,-3.2 0.115,-1.1 0.921,-2.1 0.863,-3.25 -0.057,-1.1 -0.23,-2.15 -0.345,-3.25 z"
               inkscape:connector-curvature="0"
               style="fill:#79592b;fill-opacity:0.4" />
          </g>
          <g
             id="drawingObject3">
            <path
               id="path3"
               d="m -3.473,-1.299 0,-1.45 -0.633,0.2 0.058,3.7 c 0.115,1.3 0,2.6 -0.288,3.85 -0.115,0.7 -0.461,1.25 -0.864,1.85 l 0.461,0.25 c 0.46,-0.8 0.921,-1.55 1.093,-2.65 0.403,-1.9 0.173,-3.85 0.173,-5.75 z"
               inkscape:connector-curvature="0"
               style="fill:#79592b;fill-opacity:0.4" />
          </g>
          <g
             id="drawingObject4">
            <path
               id="path4"
               d="m 3.031,-2.449 -0.518,-0.2 c -0.346,3 -0.633,6.65 1.669,8.95 l 0.403,-0.4 C 2.628,3.851 2.743,0.551 3.031,-2.399 l 0,-0.05 z"
               inkscape:connector-curvature="0"
               style="fill:#79592b;fill-opacity:0.4" />
          </g>
          <g
             id="drawingObject5">
            <path
               id="path5"
               d="m 0.786,-1.999 c 0.576,2.4 -0.23,4.1 -0.633,6.45 -0.173,1.05 0.576,2.25 1.094,3.3 L 1.88,7.601 C 1.189,5.651 0.729,4.201 1.419,1.901 q 0.403,-1.25 0.23,-2.4 -0.057,-0.4 -0.518,-2.35 l 0,-0.2 -0.575,-0.05 0.23,1.1 z"
               inkscape:connector-curvature="0"
               style="fill:#79592b;fill-opacity:0.4" />
          </g>
        </g>
        <g
           id="group2">
          <g
             id="drawingObject6">
            <path
               id="path6"
               d="m 3.376,-1.649 -0.173,-0.4 q -1.669,0.5 -4.259,0.35 c -1.151,-0.1 -2.474,-0.05 -3.568,-0.45 l -0.23,0.45 c 0.921,0.35 1.957,0.5 2.993,0.45 2.014,0 3.683,0.1 5.237,-0.4 z"
               inkscape:connector-curvature="0"
               style="fill:#79592b;fill-opacity:0.45100002" />
          </g>
          <g
             id="drawingObject7">
            <path
               id="path7"
               d="m -1.228,5.551 c 1.899,0.15 3.626,-0.65 5.007,-1.75 L 3.606,3.251 c -1.151,0.9 -2.417,1.55 -4.144,1.75 -1.266,0.15 -3.395,-0.35 -4.719,-1.25 l -0.058,0.55 c 1.209,0.75 2.821,1.15 4.087,1.25 z"
               inkscape:connector-curvature="0"
               style="fill:#79592b;fill-opacity:0.45100002" />
          </g>
          <g
             id="drawingObject8">
            <path
               id="path8"
               d="m 3.549,1.451 0,-0.65 c -1.324,0.85 -2.648,1.2 -4.547,1.15 q -2.993,0 -4.374,-1 l 0,0.65 c 0.921,0.5 2.072,0.75 3.28,0.85 2.36,0.2 3.972,-0.05 5.641,-1 z"
               inkscape:connector-curvature="0"
               style="fill:#79592b;fill-opacity:0.45100002" />
          </g>
        </g>
        <g
           id="drawingObject9">
          <path
             id="path9"
             d="m 0.793,2.201 c 0,-0.15 -0.518,0.15 -1.842,0.15 -1.381,0 -1.266,-0.8 -1.266,-2.5 0,-1.35 0.921,-2.2 2.129,-3 -1.439,-0.1 -2.993,0.2 -4.374,0.75 -0.403,0.6 -0.633,1.35 -0.806,2 -0.115,0.7 -0.057,2.45 0.058,3.25 0.115,0.95 -0.23,2.1 -0.346,2.6 l -0.23,0.85 1.094,0.8 -1.094,-0.8 c 0,0 1.439,1.6 4.432,1.75 0.345,-0.05 0.691,-0.05 1.151,-0.05 3.569,-0.25 4.892,-2.2 4.892,-2.2 l -1.093,1 1.093,-1 c 0,0 -0.403,-0.65 -0.69,-1.45 l -1.324,0.55 q -0.403,0.2 -0.748,0.15 -0.461,-0.15 -0.806,-0.2 c -0.633,-0.15 -0.748,-0.5 -1.036,-1.05 -0.288,-0.6 0.806,-1.4 0.806,-1.6 z"
             inkscape:connector-curvature="0"
             style="fill:#000000;fill-opacity:0.08600003" />
        </g>
        <g
           id="drawingObject10">
          <path
             id="path10"
             d="m -3.524,-1.299 c 0.115,-0.65 0.345,-1.2 0.748,-1.65 l -1.784,0.55 c -0.403,0.6 -0.633,1.35 -0.806,2 -0.115,0.7 -0.057,2.45 0.058,3.25 0.115,0.95 -0.23,2.1 -0.346,2.6 l -0.23,0.85 1.094,0.8 -1.094,-0.8 c 0,0 1.439,1.6 4.432,1.75 0.345,-0.05 0.691,-0.05 1.151,-0.05 2.59,-0.2 3.971,-1.25 4.605,-1.85 -2.993,1.45 -5.296,0.7 -5.814,-0.05 q -0.46,-0.65 -0.978,-1.55 -0.518,-0.9 -0.46,-1.1 c 0.057,-0.25 -0.403,-0.4 -0.921,-1.35 -0.518,-0.95 0.115,-1.75 0.345,-3.4 z"
             inkscape:connector-curvature="0"
             style="fill:#000000;fill-opacity:0.08600003" />
        </g>
        <g
           id="drawingObject11">
          <path
             id="path11"
             d="m 3.268,0.801 c 0.23,-0.4 -0.116,-1 -0.921,-0.9 q -0.691,0.1 -1.267,0.5 -0.69,0.45 0.116,0.65 c 1.323,0.3 1.841,0.1 2.072,-0.25 z"
             inkscape:connector-curvature="0"
             style="fill:#ffffff;fill-opacity:0.08600003" />
        </g>
      </g>
    </g>
  </g>
</svg>
