<?xml version="1.0" encoding="UTF-8" standalone="no"?>
<!-- Generator: flash2svg, http://dissentgraphics.com/tools/flash2svg -->

<svg
   xmlns:dc="http://purl.org/dc/elements/1.1/"
   xmlns:cc="http://creativecommons.org/ns#"
   xmlns:rdf="http://www.w3.org/1999/02/22-rdf-syntax-ns#"
   xmlns:svg="http://www.w3.org/2000/svg"
   xmlns="http://www.w3.org/2000/svg"
   xmlns:sodipodi="http://sodipodi.sourceforge.net/DTD/sodipodi-0.dtd"
   xmlns:inkscape="http://www.inkscape.org/namespaces/inkscape"
   id="AvatarAssets"
   image-rendering="auto"
   version="1.1"
   x="0px"
   y="0px"
   width="9.3500118"
   height="15.043979"
   viewBox="0 0 9.3500118 15.043979"
   inkscape:version="0.48.4 r9939"
   sodipodi:docname="AvatarAssets_pantsLegUpperOffsideA009.svg">
  <metadata
     id="metadata3880">
    <rdf:RDF>
      <cc:Work
         rdf:about="">
        <dc:format>image/svg+xml</dc:format>
        <dc:type
           rdf:resource="http://purl.org/dc/dcmitype/StillImage" />
      </cc:Work>
    </rdf:RDF>
  </metadata>
  <sodipodi:namedview
     pagecolor="#ffffff"
     bordercolor="#666666"
     borderopacity="1"
     objecttolerance="10"
     gridtolerance="10"
     guidetolerance="10"
     inkscape:pageopacity="0"
     inkscape:pageshadow="2"
     inkscape:window-width="640"
     inkscape:window-height="480"
     id="namedview3878"
     showgrid="false"
     fit-margin-top="0"
     fit-margin-left="0"
     fit-margin-right="0"
     fit-margin-bottom="0"
     inkscape:zoom="1.9032258"
     inkscape:cx="36.684842"
     inkscape:cy="-47.996401"
     inkscape:window-x="0"
     inkscape:window-y="0"
     inkscape:window-maximized="0"
     inkscape:current-layer="AvatarAssets" />
  <defs
     id="defs3863" />
  <g
     id="pantsLegUpperOffsideA10"
     overflow="visible"
     style="overflow:visible"
     transform="translate(4.6848424,1.0403802)">
    <g
       id="pantsLegUpperOffsideA009_0">
      <g
         id="element">
        <g
           id="drawingObject">
          <path
             id="path"
             d="M 4.599,6.057 C 4.478,4.26 3.866,-0.723 -0.449,-1.031 q -1.182,-0.103 -2.34,0.925 -1.099,1.027 -1.495,2.311 c -0.467,1.644 -0.195,4.263 -0.29,5.393 -0.034,1.079 -0.16,3.185 0.572,4.366 1.186,1.849 5.956,2.774 7.433,1.027 1.17,-1.386 1.348,-5.136 1.168,-6.934 z"
             inkscape:connector-curvature="0"
             style="fill:#d4924d" />
        </g>
        <g
           id="drawingObject1">
          <path
             id="path1"
             d="m -0.443,-0.949 q -1.182,-0.102 -2.34,0.925 -1.099,1.027 -1.495,2.311 c -0.467,1.644 -0.195,4.263 -0.29,5.393 -0.034,1.079 -0.16,3.185 0.572,4.366 1.186,1.849 5.956,2.774 7.433,1.028 C 4.607,11.687 4.785,7.937 4.605,6.14 4.484,4.342 3.872,-0.64 -0.443,-0.949 z"
             inkscape:connector-curvature="0"
             style="fill:#000000;fill-opacity:0.08600003" />
        </g>
        <g
           id="drawingObject2">
          <path
             id="path2"
             d="m 4.224,7.899 c 0.054,0.154 0.221,0.513 0.02,1.232 Q 4.361,9.183 4.473,9.388 C 4.627,8.258 4.661,7.179 4.518,6.101 L 4.524,5.895 C 4.36,7.334 4.112,7.693 3.993,7.693 l 0.231,0.206 z"
             inkscape:connector-curvature="0"
             style="fill:#000000;fill-opacity:0.08600003" />
        </g>
        <g
           id="drawingObject3">
          <path
             id="path3"
             d="M -0.354,-0.936 -0.53,-0.987 c -1.654,-0.154 -3.368,1.592 -3.835,3.236 -0.467,1.643 -0.195,4.263 -0.29,5.393 -0.034,1.078 -0.16,3.184 0.572,4.366 0.903,1.438 3.898,2.26 5.926,1.849 C 0.96,13.651 0.386,13.086 -0.004,12.316 Q -0.059,12.162 0.07,11.854 C -0.268,11.289 -0.425,10.621 -0.283,9.902 L -0.664,8.823 C -0.893,8.566 -1.003,8.309 -1.115,8.104 -1.607,6.82 -1.502,5.382 -1.373,3.173 -1.201,1.478 -0.979,0.091 -0.354,-0.936 z"
             inkscape:connector-curvature="0"
             style="fill:#000000;fill-opacity:0.08600003" />
        </g>
        <g
           id="drawingObject4">
          <path
             id="path4"
             d="M -0.822,13.805 -0.937,13.703 Q -2.307,12.059 -2.432,10.415 -2.271,9.08 -2.326,8.926 C -2.374,8.566 -2.657,8.155 -2.815,7.539 -2.975,6.974 -3.327,6.871 -3.387,5.022 -3.359,4.149 -3.427,4.406 -2.94,2.146 c 0.34,-1.387 0.784,-2.311 1.398,-2.979 -1.257,0.411 -2.425,1.746 -2.823,3.082 -0.467,1.643 -0.195,4.263 -0.29,5.393 -0.034,1.078 -0.16,3.184 0.572,4.366 0.565,0.873 1.849,1.489 3.261,1.797 z"
             inkscape:connector-curvature="0"
             style="fill:#000000;fill-opacity:0.08600003" />
        </g>
      </g>
    </g>
  </g>
</svg>
