<?xml version="1.0" encoding="UTF-8" standalone="no"?>
<!-- Generator: flash2svg, http://dissentgraphics.com/tools/flash2svg -->

<svg
   xmlns:dc="http://purl.org/dc/elements/1.1/"
   xmlns:cc="http://creativecommons.org/ns#"
   xmlns:rdf="http://www.w3.org/1999/02/22-rdf-syntax-ns#"
   xmlns:svg="http://www.w3.org/2000/svg"
   xmlns="http://www.w3.org/2000/svg"
   xmlns:sodipodi="http://sodipodi.sourceforge.net/DTD/sodipodi-0.dtd"
   xmlns:inkscape="http://www.inkscape.org/namespaces/inkscape"
   id="AvatarAssets"
   image-rendering="auto"
   version="1.1"
   x="0px"
   y="0px"
   width="18.54759"
   height="10.73738"
   viewBox="0 0 18.54759 10.73738"
   inkscape:version="0.48.4 r9939"
   sodipodi:docname="AvatarAssets_shoeOffsideA010.svg">
  <metadata
     id="metadata3127">
    <rdf:RDF>
      <cc:Work
         rdf:about="">
        <dc:format>image/svg+xml</dc:format>
        <dc:type
           rdf:resource="http://purl.org/dc/dcmitype/StillImage" />
      </cc:Work>
    </rdf:RDF>
  </metadata>
  <sodipodi:namedview
     pagecolor="#ffffff"
     bordercolor="#666666"
     borderopacity="1"
     objecttolerance="10"
     gridtolerance="10"
     guidetolerance="10"
     inkscape:pageopacity="0"
     inkscape:pageshadow="2"
     inkscape:window-width="640"
     inkscape:window-height="480"
     id="namedview3125"
     showgrid="false"
     fit-margin-top="0"
     fit-margin-left="0"
     fit-margin-right="0"
     fit-margin-bottom="0"
     inkscape:zoom="1.9032258"
     inkscape:cx="38.780591"
     inkscape:cy="-51.363"
     inkscape:window-x="0"
     inkscape:window-y="0"
     inkscape:window-maximized="0"
     inkscape:current-layer="AvatarAssets" />
  <defs
     id="defs3108" />
  <g
     id="shoeOffsideA11"
     overflow="visible"
     style="overflow:visible"
     transform="translate(6.7805912,0.10038015)">
    <g
       id="shoeOffsideA010_0">
      <g
         id="element">
        <g
           id="drawingObject">
          <path
             id="path"
             d="M 0.593,8.245 C 0.271,8.245 -0.427,8.09 -1.556,7.778 -2.684,7.414 -3.543,7.102 -4.027,6.842 -5.262,6.27 -5.961,5.646 -6.175,5.022 c -0.162,0 -0.323,0.364 -0.484,1.04 0.806,0.832 1.719,1.404 2.74,1.768 1.773,0.571 3.921,1.143 6.392,1.559 C 4.569,9.805 5.912,9.961 6.395,9.857 8.275,9.441 9.188,9.233 9.242,9.181 9.457,9.077 9.726,8.713 10.209,8.09 10.8,7.57 11.23,6.946 11.498,6.27 11.66,5.906 11.713,5.646 11.767,5.438 11.713,5.282 11.767,5.126 11.713,4.763 L 11.66,4.711 c 0,-0.156 -0.108,-0.312 -0.162,-0.572 L 11.445,4.087 c -0.269,0.26 -0.484,0.468 -0.537,0.728 L 11.069,4.763 C 11.015,5.542 10.908,5.958 10.854,6.01 10.746,6.062 10.585,6.166 10.37,6.426 10.155,6.686 9.887,6.79 9.511,6.842 L 8.974,6.582 c 0,0.624 0,1.092 0,1.352 0,0.052 0,0.104 0,0.156 Q 9.135,8.297 8.705,8.765 C 8.759,8.713 8.651,8.817 8.598,8.869 c 0,0 0,0 -0.054,0.052 L 8.517,8.895 8.49,8.921 C 8.436,8.973 8.329,9.077 8.383,9.077 c 0,0 -0.108,0 -0.269,0.052 C 7.631,9.389 7.201,9.441 6.717,9.285 L 5.482,9.181 5.428,9.181 4.783,8.973 2.688,8.869 C 2.312,8.817 1.99,8.661 1.721,8.505 1.292,8.349 0.862,8.245 0.593,8.245 z"
             inkscape:connector-curvature="0"
             style="fill:#ba465b" />
          <path
             id="path1"
             d="M 6.395,9.857 C 5.912,9.961 4.569,9.805 2.473,9.389 0.002,8.973 -2.146,8.401 -3.919,7.83 -4.94,7.466 -5.853,6.894 -6.659,6.062 c -0.322,0.52 0,1.092 0.913,1.768 0.914,0.623 2.955,1.247 6.124,1.871 2.74,0.572 4.674,0.884 5.802,0.936 0,-0.052 0.054,-0.156 0.161,-0.208 0.054,-0.104 0.108,-0.312 0.054,-0.572 z"
             inkscape:connector-curvature="0"
             style="fill:#99394b" />
          <path
             id="path2"
             d="m 6.395,9.857 c 0.054,0.26 0,0.468 -0.054,0.572 -0.107,0.052 -0.161,0.156 -0.161,0.208 0.484,-0.052 0.806,-0.104 0.967,-0.104 0.161,0 0.967,-0.26 2.31,-0.832 0.43,-0.364 0.806,-0.676 1.074,-0.988 0.806,-0.935 1.236,-1.871 1.236,-2.911 0,-0.104 -0.054,-0.208 0,-0.364 C 11.713,5.646 11.66,5.906 11.498,6.27 11.23,6.946 10.8,7.57 10.209,8.09 9.726,8.713 9.457,9.077 9.242,9.181 9.188,9.233 8.275,9.441 6.395,9.857 z"
             inkscape:connector-curvature="0"
             style="fill:#d9526a" />
          <path
             id="path3"
             d="M 8.544,8.921 C 8.598,8.869 8.598,8.869 8.598,8.869 l -0.054,0 -0.027,0.026"
             inkscape:connector-curvature="0"
             style="fill:#99394b" />
        </g>
        <g
           id="drawingObject1">
          <path
             id="path4"
             d="M -0.607,8.388 C -0.357,8.371 -0.907,6.103 2.284,4.375 2.704,4.115 3.127,3.911 3.55,3.708 4.277,3.368 4.887,3.151 5.436,2.939 7.325,2.227 8.506,2.084 8.506,2.084 8.435,1.974 8.364,1.864 8.159,1.648 c 0,0 0,0 -0.183,0.071 0.134,0.106 0.201,0.158 0.08,0.225 L 5.552,2.815 C 4.504,3.063 3.288,3.554 2.811,3.876 L 2.809,3.848 2.748,3.881 C 1.723,4.416 0.35,5.321 -0.065,5.639 L -0.098,5.613 -0.127,5.644 C -0.595,6.081 -1.864,5.076 -0.932,4.145 0.13,3.261 1.948,2.439 3.789,1.904 5.629,1.368 6.498,1.248 6.876,1.279 7.068,1.323 7.393,1.472 7.584,1.516 L 7.553,1.518 8.159,1.648 C 7.812,1.212 6.489,1.133 6.489,1.133 6.489,1.133 6.115,1.16 5.25,1.337 4.943,1.417 4.386,1.515 3.593,1.802 2.973,1.904 2.18,2.192 1.329,2.541 -1.35,3.598 -2.827,5.607 -2.894,6.361 l -0.091,1.275 2.378,0.752 z"
             inkscape:connector-curvature="0"
             style="fill:#db536b" />
          <path
             id="path5"
             d="M -0.247,5.71 0.159,5.277 C 1.224,4.451 2.838,3.413 4.478,2.719 6.194,2.192 7.303,1.94 7.348,1.706 7.331,1.477 7.077,1.437 7.077,1.437 L 7.206,1.486 7.077,1.437 7.553,1.518 7.584,1.516 C 7.393,1.472 7.068,1.323 6.876,1.279 6.498,1.248 5.629,1.368 3.789,1.904 1.948,2.439 0.13,3.261 -0.932,4.145 c -0.932,0.931 0.337,1.936 0.805,1.499 l 0.029,-0.031 0.033,0.026 C -0.189,5.648 -0.247,5.71 -0.247,5.71 z M 8.056,1.944 C 8.177,1.877 8.11,1.825 7.976,1.719 8.23,1.758 6.51,2.227 4.019,3.271 3.716,3.408 3.354,3.607 2.811,3.876 3.288,3.554 4.504,3.063 5.552,2.815 L 8.056,1.944 z"
             inkscape:connector-curvature="0"
             style="fill:#eb677e" />
          <path
             id="path6"
             d="M 0.159,5.277 -0.247,5.71 c 0,0 0.058,-0.062 0.182,-0.071 C 0.35,5.321 1.723,4.416 2.748,3.881 L 2.809,3.848 2.811,3.876 C 3.354,3.607 3.716,3.408 4.019,3.271 6.51,2.227 8.23,1.758 7.976,1.719 8.159,1.648 8.159,1.648 8.159,1.648 L 7.553,1.518 7.077,1.437 7.206,1.486 7.077,1.437 c 0,0 0.254,0.04 0.271,0.269 C 7.303,1.94 6.194,2.192 4.478,2.719 2.838,3.413 1.224,4.451 0.159,5.277 z"
             inkscape:connector-curvature="0"
             style="fill:#f7afbc" />
          <path
             id="path7"
             d="M 5.082,0.773 C 4.918,0.266 4.321,-0.153 3.51,-0.095 q 0.046,0.91 0.049,1.871 L 3.593,1.802 C 4.386,1.515 4.943,1.417 5.25,1.337 5.242,1.223 5.157,0.94 5.082,0.773 z M 4.725,1.029 3.919,1.145 3.928,0.452 C 3.911,0.223 4.343,0.134 4.614,0.403 l 0.111,0.626 z m 0.672,4.68 C 5.544,5.18 5.537,4.258 5.436,2.939 4.887,3.151 4.277,3.368 3.55,3.708 3.523,4.171 3.549,4.515 3.513,4.864 c -0.11,2.66 -0.57,4.02 -0.57,4.02 l 1.153,0.321 c 0.762,0.118 1.243,-0.147 1.243,-0.147 0,0 -0.358,-2.223 0.058,-3.349 z M 5.049,6.08 C 4.981,6.835 3.837,6.628 3.699,6.465 3.614,6.183 3.651,5.027 3.799,4.498 3.951,4.025 4.557,3.751 4.923,3.61 5.226,3.473 5.175,5.264 5.049,6.08 z"
             inkscape:connector-curvature="0"
             style="fill:#c44a61" />
          <path
             id="path8"
             d="M 4.725,1.029 4.614,0.403 C 4.343,0.134 3.911,0.223 3.928,0.452 L 3.919,1.145 4.725,1.029 z"
             inkscape:connector-curvature="0"
             style="fill:#e35671" />
          <path
             id="path15"
             d="M 5.049,6.08 C 5.175,5.264 5.226,3.473 4.923,3.61 4.557,3.751 3.951,4.025 3.799,4.498 3.651,5.027 3.614,6.183 3.699,6.465 3.837,6.628 4.981,6.835 5.049,6.08 z"
             inkscape:connector-curvature="0"
             style="fill:#e35671" />
        </g>
      </g>
    </g>
  </g>
</svg>
