<?xml version="1.0" encoding="UTF-8" standalone="no"?>
<!-- Generator: flash2svg, http://dissentgraphics.com/tools/flash2svg -->

<svg
   xmlns:dc="http://purl.org/dc/elements/1.1/"
   xmlns:cc="http://creativecommons.org/ns#"
   xmlns:rdf="http://www.w3.org/1999/02/22-rdf-syntax-ns#"
   xmlns:svg="http://www.w3.org/2000/svg"
   xmlns="http://www.w3.org/2000/svg"
   xmlns:sodipodi="http://sodipodi.sourceforge.net/DTD/sodipodi-0.dtd"
   xmlns:inkscape="http://www.inkscape.org/namespaces/inkscape"
   id="AvatarAssets"
   image-rendering="auto"
   version="1.1"
   x="0px"
   y="0px"
   width="18.973726"
   height="10.911481"
   viewBox="0 0 18.973726 10.911481"
   inkscape:version="0.48.4 r9939"
   sodipodi:docname="AvatarAssets_shoeOffsideA012b.svg">
  <metadata
     id="metadata3203">
    <rdf:RDF>
      <cc:Work
         rdf:about="">
        <dc:format>image/svg+xml</dc:format>
        <dc:type
           rdf:resource="http://purl.org/dc/dcmitype/StillImage" />
      </cc:Work>
    </rdf:RDF>
  </metadata>
  <sodipodi:namedview
     pagecolor="#ffffff"
     bordercolor="#666666"
     borderopacity="1"
     objecttolerance="10"
     gridtolerance="10"
     guidetolerance="10"
     inkscape:pageopacity="0"
     inkscape:pageshadow="2"
     inkscape:window-width="640"
     inkscape:window-height="480"
     id="namedview3201"
     showgrid="false"
     fit-margin-top="0"
     fit-margin-left="0"
     fit-margin-right="0"
     fit-margin-bottom="0"
     inkscape:zoom="1.9032258"
     inkscape:cx="38.805292"
     inkscape:cy="-51.434519"
     inkscape:window-x="0"
     inkscape:window-y="0"
     inkscape:window-maximized="0"
     inkscape:current-layer="AvatarAssets" />
  <defs
     id="defs3179" />
  <g
     id="shoeOffsideA012b1"
     overflow="visible"
     style="overflow:visible"
     transform="translate(6.8052919,0.346)">
    <g
       id="shoeOffsideA012b_0">
      <g
         id="element">
        <g
           id="group1">
          <g
             id="drawingObject">
            <path
               id="path"
               d="m 9.589,3.541 c 0.489,0.056 1.522,1.062 1.522,1.062 C 11.492,4.212 11.709,3.876 11.655,3.485 11.601,3.149 11.438,2.925 11.274,2.981 11.22,3.429 10.513,3.597 9.154,3.429 l 0.435,0.112 z"
               inkscape:connector-curvature="0"
               style="fill:#000000;fill-opacity:0.2" />
          </g>
          <g
             id="drawingObject1">
            <path
               id="path1"
               d="M 11.22,4.771 11.057,4.492 C 11.003,4.995 10.568,5.387 9.806,5.666 9.045,5.946 8.284,5.89 7.577,5.443 l 1.414,1.174 0.054,0 c 0.272,0.168 0.653,0.224 1.196,0 0.544,-0.056 0.87,-0.391 1.142,-0.839 C 11.492,5.61 11.438,5.275 11.22,4.771 z"
               inkscape:connector-curvature="0"
               style="fill:#000000;fill-opacity:0.2" />
          </g>
        </g>
        <g
           id="drawingObject2">
          <path
             id="path2"
             d="m -5.12,7.04 c 0.542,0.495 4.644,1.816 6.685,2.37 2.047,0.626 4.605,1.389 6.26,0.805 C 9.409,9.632 11.529,8.687 11.957,7.114 12.379,5.47 11.456,4.693 11.456,4.693 L 11.863,5.261 11.456,4.693 -1.046,4.082 -6.003,5.121 -5.79,5.904 -6.003,5.121 c 0,0 0.27,1.424 0.883,1.919 z"
             inkscape:connector-curvature="0"
             style="fill:#c7b0b8" />
        </g>
        <g
           id="drawingObject3">
          <path
             id="path3"
             d="M -5.973,6.093 -6.175,5.31 c 0,0 0.259,1.425 0.898,1.919 0.573,0.494 4.654,1.816 6.685,2.37 1.629,0.486 3.528,1.042 5.04,0.958 C 6.093,10.275 6.582,9.843 6.815,9.484 7.04,9.054 11.649,6.663 11.9,6.518 L 9.734,6.678 11.027,4.885 -1.182,4.271 -6.175,5.31"
             inkscape:connector-curvature="0"
             style="fill:#000000;fill-opacity:0.08600003" />
        </g>
        <g
           id="drawingObject4">
          <path
             id="path4"
             d="M 2.201,-0.346 C 2.452,1.042 1.648,1.813 -0.112,1.967 -1.971,2.07 -3.68,1.659 -5.239,0.785 -5.49,0.631 -5.641,0.219 -5.59,-0.346 c -0.201,0.565 -0.403,0.977 -0.654,1.182 -0.301,0.823 -0.553,1.44 -0.553,2.16 q -0.1,2.211 1.006,3.033 c 0.955,0.874 4.473,1.8 5.579,2.314 C 0.844,8.703 5.769,9.937 7.227,9.68 8.886,9.474 11.047,8.034 11.851,6.543 12.103,5.926 12.103,5.309 11.902,4.641 11.65,3.973 11.299,3.304 10.846,2.739 10.394,2.173 9.137,1.607 7.177,1.042 5.217,0.476 4.161,0.219 4.06,0.168 L 2.201,-0.346 z"
             inkscape:connector-curvature="0"
             style="fill:#436fbc" />
        </g>
        <g
           id="drawingObject5">
          <path
             id="path5"
             d="M 11.396,3.066 Q 10.741,2.213 9.486,1.755 C 8.632,2.012 7.426,2.732 5.767,3.966 4.108,5.199 3.404,6.999 3.555,9.364 5.616,9.827 6.973,9.93 7.627,9.775 8.28,9.621 9.135,9.21 10.14,8.644 11.095,7.976 11.698,7.359 11.949,6.742 12.15,6.074 12.201,5.457 12.15,4.84 12.1,4.223 11.849,3.657 11.396,3.091"
             inkscape:connector-curvature="0"
             style="fill:#f5dae4" />
        </g>
        <g
           id="drawingObject6">
          <path
             id="path6"
             d="M 3.865,2.714 6.594,1.408 c 0,0 0.652,0.137 0.401,-0.289 C 6.743,0.693 5.554,0.917 4.261,1.57 3.033,2.15 2.36,2.584 2.263,3.084 2.088,3.513 3.005,3.434 3.005,3.434 l 0.86,-0.72 z"
             inkscape:connector-curvature="0"
             style="fill:#c09541" />
        </g>
        <g
           id="drawingObject7">
          <path
             id="path7"
             d="M 6.823,1.31 6.222,1.423 C 5.622,1.366 4.256,2.041 2.891,2.659 1.471,3.334 1.253,4.795 0.598,4.346 -0.167,3.896 0.379,3.109 1.308,2.659 1.69,2.434 2.454,1.929 3.055,1.366 2.454,1.76 1.308,2.153 -0.276,2.491 -1.86,2.884 -3.498,2.378 -5.136,1.029 L -5.792,0.13 -6.228,1.029 -5.792,0.13 c 0,0 -0.928,1.293 -0.982,2.867 0,1.686 0.054,2.417 0.982,3.091 0.983,0.787 4.478,1.799 5.516,2.249 1.147,0.449 6.007,1.686 7.481,1.461 C 8.898,9.517 11.082,7.999 11.847,6.594 12.284,5.582 12.065,4.346 11.792,3.671 10.864,4.851 9.663,5.638 8.134,6.088 6.605,6.538 5.349,6.594 4.366,6.313 3.328,5.976 2.946,5.582 3.219,5.133 3.492,4.683 3.656,4.289 3.765,3.896 Q 4.093,3.165 5.458,2.21 l 1.365,-0.9 z"
             inkscape:connector-curvature="0"
             style="fill:#000000;fill-opacity:0.2" />
        </g>
      </g>
    </g>
  </g>
</svg>
