<?xml version="1.0" encoding="UTF-8" standalone="no"?>
<!-- Generator: flash2svg, http://dissentgraphics.com/tools/flash2svg -->

<svg
   xmlns:dc="http://purl.org/dc/elements/1.1/"
   xmlns:cc="http://creativecommons.org/ns#"
   xmlns:rdf="http://www.w3.org/1999/02/22-rdf-syntax-ns#"
   xmlns:svg="http://www.w3.org/2000/svg"
   xmlns="http://www.w3.org/2000/svg"
   xmlns:sodipodi="http://sodipodi.sourceforge.net/DTD/sodipodi-0.dtd"
   xmlns:inkscape="http://www.inkscape.org/namespaces/inkscape"
   id="AvatarAssets"
   image-rendering="auto"
   version="1.1"
   x="0px"
   y="0px"
   width="20.1675"
   height="11.785428"
   viewBox="0 0 20.1675 11.785428"
   inkscape:version="0.48.4 r9939"
   sodipodi:docname="AvatarAssets_shoeOffsideD009.svg">
  <metadata
     id="metadata3286">
    <rdf:RDF>
      <cc:Work
         rdf:about="">
        <dc:format>image/svg+xml</dc:format>
        <dc:type
           rdf:resource="http://purl.org/dc/dcmitype/StillImage" />
      </cc:Work>
    </rdf:RDF>
  </metadata>
  <sodipodi:namedview
     pagecolor="#ffffff"
     bordercolor="#666666"
     borderopacity="1"
     objecttolerance="10"
     gridtolerance="10"
     guidetolerance="10"
     inkscape:pageopacity="0"
     inkscape:pageshadow="2"
     inkscape:window-width="640"
     inkscape:window-height="480"
     id="namedview3284"
     showgrid="false"
     fit-margin-top="0"
     fit-margin-left="0"
     fit-margin-right="0"
     fit-margin-bottom="0"
     inkscape:zoom="1.9032258"
     inkscape:cx="39.3375"
     inkscape:cy="-50.737072"
     inkscape:window-x="0"
     inkscape:window-y="0"
     inkscape:window-maximized="0"
     inkscape:current-layer="AvatarAssets" />
  <defs
     id="defs3246" />
  <g
     id="shoeOffsideD10"
     overflow="visible"
     style="overflow:visible"
     transform="translate(7.3375,0.5225)">
    <g
       id="shoeOffsideD009_0">
      <g
         id="element">
        <g
           id="group1">
          <g
             id="drawingObject">
            <path
               id="path"
               d="m 5.054,11.101 c 0.328,0.053 0.986,0.106 1.971,0.159 0.986,0.054 2.136,-0.639 3.505,-2.077 1.314,-1.438 2.026,-2.503 2.136,-3.089 0.054,-0.639 0.109,-1.119 0.164,-1.438 0,-0.16 0,-0.373 -0.055,-0.533 L 12.392,4.177 C 12.227,4.443 12.063,5.029 11.789,5.828 11.351,6.52 11.023,6.999 10.749,7.212 10.475,7.372 10.147,7.585 9.763,7.798 9.38,8.011 9.051,8.437 8.778,9.023 8.339,9.503 7.354,9.716 5.875,9.769 4.452,9.769 2.59,9.449 0.345,8.757 -1.682,8.065 -2.996,7.585 -3.543,7.319 -4.146,6.999 -4.803,6.68 -5.46,6.36 -6.172,6.041 -6.61,5.828 -6.829,5.721 -7.103,5.561 -7.158,5.774 -6.993,6.36 c 0.054,0.586 0.219,0.852 0.383,0.906 0.164,0.053 0.876,0.373 2.136,1.065 1.204,0.639 2.683,1.172 4.38,1.651 q 2.738,0.586 5.148,1.119 z"
               inkscape:connector-curvature="0"
               style="fill:#875113" />
          </g>
          <g
             id="drawingObject1">
            <path
               id="path1"
               d="M 10.8,4.6 C 11.05,5.4 11,6 10.6,6.4 10.15,6.8 9.55,6.9 8.8,6.75 9.55,7.6 9.55,8.3 8.75,8.75 8,9.5 7.05,9.7 5.9,9.35 4.75,9 3.85,8.85 3.2,8.85 2.55,8.85 2,8.8 1.55,8.75 L 0.7,8.6 C -0.15,8.25 -0.85,7.95 -1.45,7.8 -2.05,7.6 -2.6,7.35 -3.15,7.05 -3.7,6.7 -4.1,6.5 -4.35,6.4 -5.45,6.05 -6.15,5.6 -6.45,5 L -7.3,5.25 c -0.05,0.05 -0.05,0.05 0,0.1 -0.05,0.25 0.1,0.55 0.5,0.75 0.4,0.25 1.5,0.8 3.25,1.6 1.9,0.9 3.8,1.55 5.75,1.95 1.95,0.4 3.45,0.6 4.6,0.6 C 7.9,10.2 8.75,9.95 9.35,9.4 9.9,8.85 10.55,8 11.4,6.85 12.2,5.7 12.6,4.9 12.65,4.45 12.6,4.2 12.5,3.95 12.3,3.9 11.85,3.7 11.55,3.7 11.45,3.9 11.35,4 11.25,4.15 11.15,4.35 L 10.8,4.6 z"
               inkscape:connector-curvature="0"
               style="fill:#c79140" />
          </g>
          <g
             id="group2">
            <g
               id="drawingObject2">
              <path
                 id="path2"
                 d="m 10.8,4.55 0.25,0.65 c 0.45,-0.35 0.65,-0.65 0.7,-0.8 0,-0.2 -0.1,-0.45 -0.3,-0.7 0.05,0.35 -0.2,0.6 -0.65,0.85 z"
                 inkscape:connector-curvature="0"
                 style="fill:#875113" />
            </g>
            <g
               id="drawingObject3">
              <path
                 id="path3"
                 d="M 11.2,6.8 Q 11.85,6.2 11,5 C 11,6.3 10.35,6.9 9,6.8 9.3,7.85 9.1,8.55 8.45,8.9 8.1,9.1 7.6,9.3 6.85,9.5 5.9,9.35 5.25,9.2 4.9,9.15 4.55,9.05 4.2,8.95 3.85,8.9 3.5,8.85 3.1,8.75 2.65,8.7 0.8,8.25 -0.6,7.85 -1.6,7.5 -2.85,6.8 -3.6,6.4 -3.85,6.35 -4.9,6.05 -5.8,5.65 -6.45,5.15 c -0.05,0.1 -0.1,0.2 -0.05,0.3 -0.05,0 -0.05,0 0,0.05 0.05,0.2 0.25,0.45 0.65,0.7 0.4,0.25 1.4,0.7 2.95,1.35 1.55,0.65 3,1.1 4.35,1.45 1.3,0.35 2.35,0.55 3.15,0.7 0.55,0.15 1.15,0.2 1.8,0.2 0.15,0 0.4,0 0.7,0 0.05,0 0.1,0 0.2,0.05 C 7.65,9.9 8.35,9.55 9.5,8.9 l 0.25,-1 c 0.35,-0.35 0.55,-0.5 0.7,-0.5 0.05,0 0.3,-0.2 0.75,-0.6 z"
                 inkscape:connector-curvature="0"
                 style="fill:#875113" />
            </g>
          </g>
        </g>
        <g
           id="group3">
          <g
             id="drawingObject4">
            <path
               id="path4"
               d="M 7.75,2.35 C 6.9,2.35 6.35,2.45 6,2.7 5.65,2.9 5,4.1 3.95,6.35 2.9,8.55 2.7,9.7 3.35,9.8 L 4.3,10.05 C 4.45,9.95 4.65,9.6 4.8,9.05 5.05,7.95 5.35,7.25 5.65,7 Q 6.05,6.7 6.55,6.5 6.8,6.4 7.1,6.3 C 7.15,6.3 7.25,6 7.5,5.45 7.75,4.85 8.1,4.4 8.55,4.05 8.7,3.95 8.85,3.85 9.05,3.8 9.1,3.25 9.3,2.9 9.7,2.7 L 9.65,2.55 C 9.2,2.4 8.55,2.3 7.75,2.35 z"
               inkscape:connector-curvature="0"
               style="fill:#000000;fill-opacity:0.2" />
          </g>
          <g
             id="drawingObject5">
            <path
               id="path5"
               d="M 5.738,5.226 C 7.988,2.59 9.863,2.788 9.863,2.788 Q 9.426,2.129 8.238,1.404 C 7.113,0.614 5.426,0.153 5.426,0.153 l 1,0.329 -1,-0.329 c 0,0 -2.625,0.724 -4.063,2.503 -1.437,1.779 -1.937,3.229 -2,4.612 l 0,1.45 0.625,0.461 -0.625,-0.461 c 0,0 0.875,0.856 2.438,1.12 1.5,0.329 2.125,0.329 2.125,0.329 0,0 -0.5,-2.306 1.812,-4.941 z"
               inkscape:connector-curvature="0"
               style="fill:#649022" />
          </g>
          <g
             id="drawingObject6">
            <path
               id="path6"
               d="M 9.738,2.656 9.426,2.327 8.676,2.129 C 7.801,1.997 5.551,2.59 4.426,3.183 3.363,3.776 -0.012,5.292 -0.012,5.292 L 0.926,5.95 C 1.613,6.346 3.551,6.543 3.551,6.543 L 2.863,7.136 C 2.488,7.4 2.426,7.861 1.238,7.795 0.551,7.729 -0.137,7.4 -0.574,7.07 l -0.063,0.198 0,1.45 0.625,0.461 -0.625,-0.461 c 0,0 0.875,0.856 2.438,1.12 1.5,0.329 2.125,0.329 2.125,0.329 0,0 -0.5,-1.384 0,-2.701 0.5,-1.318 1.312,-2.57 2.875,-3.69 1,-0.79 2.25,-1.054 2.937,-1.12 z"
               inkscape:connector-curvature="0"
               style="fill:#4f711a" />
          </g>
          <g
             id="drawingObject7">
            <path
               id="path7"
               d="m 9.926,1.932 0.312,-1.45 c 0,0 -0.937,0.329 -2.687,0.527 -1.688,0.198 -3.625,2.57 -3.625,2.57 Q 2.426,2.524 1.863,2.524 c -0.5,0 -1.187,0.528 -2.125,1.384 -0.937,0.857 -1.687,0.988 -1.687,0.988 l 1.375,0.659 -1.375,-0.659 c 0,0 2.187,1.384 4.5,1.054 C 4.863,5.555 4.988,5.226 5.926,4.237 6.863,3.249 7.676,2.722 8.426,2.656 9.238,2.59 9.738,2.459 9.926,1.932 z"
               inkscape:connector-curvature="0"
               style="fill:#507918" />
          </g>
          <g
             id="drawingObject8">
            <path
               id="path8"
               d="m 9.926,1.932 0.312,-1.45 -0.75,1.45 c -0.125,0.065 -1.375,0 -0.812,-0.396 l 0.5,-0.395 c 0,0 -0.813,0.329 -1.313,-0.132 L 7.801,0.943 7.551,1.009 C 5.863,1.207 3.926,3.579 3.926,3.579 3.551,3.315 2.301,2.524 1.863,2.524 L 1.426,2.59 1.301,3.447 C 1.363,3.776 0.051,4.435 0.051,4.435 L 0.863,4.237 0.051,4.435 c 0,0 1.25,-0.395 2.5,-0.198 1.25,0.132 1.562,0.593 1.187,0.791 -0.25,0.198 -1,0.264 -2.312,0.329 -1.438,0.066 -2.563,-0.065 -3.313,-0.395 l 0,-0.033 1.313,0.626 C 0.551,5.95 1.613,6.082 2.551,5.95 Q 4.113,5.687 4.738,5.292 5.113,5.094 5.926,4.237 C 6.863,3.249 7.676,2.722 8.426,2.656 9.238,2.59 9.738,2.459 9.926,1.932 z"
               inkscape:connector-curvature="0"
               style="fill:#406211" />
          </g>
          <g
             id="drawingObject9">
            <path
               id="path9"
               d="M 1.988,0.284 C 1.676,0.877 1.176,1.8 1.488,2.459 1.801,3.183 2.301,4.172 3.426,4.435 4.551,4.765 6.113,4.896 6.988,3.776 7.801,2.722 8.238,2.459 8.051,1.932 c -0.188,-0.593 0,-2.241 -3.25,-2.438 q -0.563,-0.066 -1.5,0.132 -1.125,0.263 -1.313,0.658 z"
               inkscape:connector-curvature="0"
               style="fill:#f72c5b" />
          </g>
          <g
             id="drawingObject10">
            <path
               id="path10"
               d="M 1.426,1.602 C 1.363,1.932 1.363,2.195 1.488,2.459 1.801,3.183 2.301,4.172 3.426,4.435 4.551,4.765 6.113,4.896 6.988,3.776 Q 8.113,2.393 8.113,2.129 L 7.801,2.327 C 7.363,2.656 6.551,3.644 6.238,3.71 5.863,3.776 6.551,2.92 6.551,2.92 L 6.238,3.315 6.551,2.92 l -1,0.527 C 4.988,3.776 4.613,3.71 4.176,3.249 L 2.863,1.8 2.926,2.327 c 0,0.527 0.687,1.976 0.687,1.976 0,0 -0.625,-0.395 -1.062,-1.383 C 2.113,1.932 1.488,1.602 1.488,1.602 l 0.375,0.264 -0.375,-0.264 -0.062,0 z"
               inkscape:connector-curvature="0"
               style="fill:#ca254b" />
          </g>
          <g
             id="drawingObject11">
            <path
               id="path11"
               d="M 3.609,1.573 C 3.252,1.325 3.074,1.077 3.074,0.829 L 3.55,-0.039 q -0.179,0 -0.535,0.248 -0.476,0.372 -0.536,0.744 c -0.059,0.62 0.536,0.745 0.892,1.179 0.417,0.496 1.368,0.992 1.903,0.93 0.476,0 1.427,-0.186 1.725,-0.62 0.356,-0.496 0.416,-1.055 0,-1.551 C 6.582,0.457 6.047,0.085 5.631,0.085 l -1.189,0 c -0.654,0 -1.011,0.372 -1.011,0.372 L 3.669,0.333 3.431,0.457 4.025,0.333 3.431,0.457 c 0,0 0.892,-0.434 2.022,-0.124 1.07,0.31 1.427,0.558 1.486,0.93 0.06,0.435 0.06,0.993 -0.416,1.055 C 6.166,2.442 5.809,2.504 5.512,2.442 5.215,2.38 4.917,2.256 4.62,2.132 4.323,2.008 3.966,1.822 3.609,1.573 z"
               inkscape:connector-curvature="0"
               style="fill:#a91e3e" />
          </g>
          <g
             id="drawingObject12">
            <path
               id="path12"
               d="M 4.977,0.581 C 4.323,0.333 4.025,0.457 4.144,0.953 4.263,1.387 4.561,1.635 5.096,1.573 5.631,1.511 5.988,1.511 6.166,1.511 6.344,1.449 6.404,1.387 6.404,1.263 l 0,-0.31 -0.535,-0.062 c 0,0 0,0.31 -0.416,0.248 C 5.036,1.077 4.977,1.015 5.274,0.891 L 5.453,0.767 4.977,0.581 z"
               inkscape:connector-curvature="0"
               style="fill:#a91e3e" />
          </g>
          <g
             id="drawingObject13">
            <path
               id="path13"
               d="M 3.738,0.68 4.051,0.35 c 0,0 -0.688,0.461 -0.625,0.989 0,0.593 0.562,0.593 0.562,0.593 L 3.863,1.339 Q 3.801,0.943 3.926,0.614 L 4.051,0.35"
               inkscape:connector-curvature="0"
               style="fill:#a91e3e" />
          </g>
          <g
             id="drawingObject14">
            <path
               id="path14"
               d="m 5.301,3.974 c 0,0 -0.875,0.593 -1.438,0.461 Q 3.363,3.974 3.113,3.117 C 2.926,2.195 3.176,1.602 2.801,1.207 l -0.625,-0.725 0.5,1.252 c 0.062,0.659 0.25,1.318 0.5,1.976 0.25,0.659 0.75,1.252 1.437,0.857 L 5.301,3.974 z"
               inkscape:connector-curvature="0"
               style="fill:#a91e3e" />
          </g>
        </g>
      </g>
    </g>
  </g>
</svg>
