<?xml version="1.0" encoding="UTF-8" standalone="no"?>
<!-- Generator: flash2svg, http://dissentgraphics.com/tools/flash2svg -->

<svg
   xmlns:dc="http://purl.org/dc/elements/1.1/"
   xmlns:cc="http://creativecommons.org/ns#"
   xmlns:rdf="http://www.w3.org/1999/02/22-rdf-syntax-ns#"
   xmlns:svg="http://www.w3.org/2000/svg"
   xmlns="http://www.w3.org/2000/svg"
   xmlns:sodipodi="http://sodipodi.sourceforge.net/DTD/sodipodi-0.dtd"
   xmlns:inkscape="http://www.inkscape.org/namespaces/inkscape"
   id="AvatarAssets"
   image-rendering="auto"
   version="1.1"
   x="0px"
   y="0px"
   width="19.2917"
   height="10.694906"
   viewBox="0 0 19.2917 10.694906"
   inkscape:version="0.48.4 r9939"
   sodipodi:docname="AvatarAssets_shoeOffsideA012.svg">
  <metadata
     id="metadata3176">
    <rdf:RDF>
      <cc:Work
         rdf:about="">
        <dc:format>image/svg+xml</dc:format>
        <dc:type
           rdf:resource="http://purl.org/dc/dcmitype/StillImage" />
      </cc:Work>
    </rdf:RDF>
  </metadata>
  <sodipodi:namedview
     pagecolor="#ffffff"
     bordercolor="#666666"
     borderopacity="1"
     objecttolerance="10"
     gridtolerance="10"
     guidetolerance="10"
     inkscape:pageopacity="0"
     inkscape:pageshadow="2"
     inkscape:window-width="640"
     inkscape:window-height="480"
     id="namedview3174"
     showgrid="false"
     fit-margin-top="0"
     fit-margin-left="0"
     fit-margin-right="0"
     fit-margin-bottom="0"
     inkscape:zoom="1.9032258"
     inkscape:cx="39.053184"
     inkscape:cy="-51.504094"
     inkscape:window-x="0"
     inkscape:window-y="0"
     inkscape:window-maximized="0"
     inkscape:current-layer="AvatarAssets" />
  <defs
     id="defs3157" />
  <g
     id="shoeOffsideA13"
     overflow="visible"
     style="overflow:visible"
     transform="translate(7.053184,0.199)">
    <g
       id="shoeOffsideA012_0">
      <g
         id="element">
        <g
           id="drawingObject">
          <path
             id="path"
             d="m 1.507,9.517 c 2.06,0.615 4.634,1.366 6.289,0.748 C 9.38,9.649 11.5,8.656 11.916,7.041 12.325,5.352 11.392,4.568 11.392,4.568 l 0.413,0.576 -0.413,-0.576 -12.55,-0.476 -4.966,1.123 0.22,0.8 -0.22,-0.8 c 0,0 0.283,1.456 0.903,1.954 0.548,0.501 4.675,1.805 6.728,2.348 z"
             inkscape:connector-curvature="0"
             style="fill:#c7b0b8" />
        </g>
        <g
           id="drawingObject1">
          <path
             id="path1"
             d="m -6.139,5.988 -0.21,-0.8 c 0,0 0.273,1.456 0.918,1.954 0.579,0.5 4.686,1.804 6.729,2.347 1.639,0.478 3.55,1.024 5.066,0.92 C 6.005,10.124 6.493,9.676 6.722,9.306 6.945,8.863 11.549,6.359 11.8,6.208 L 9.628,6.398 10.91,4.546 -1.347,4.064 -6.349,5.188"
             inkscape:connector-curvature="0"
             style="fill:#000000;fill-opacity:0.08600003" />
        </g>
        <g
           id="drawingObject2">
          <path
             id="path2"
             d="m 2.351,-0.199 c 0.25,0.8 0.05,1.45 -0.6,1.95 -0.65,0.45 -1.55,0.6 -2.75,0.4 -1.25,-0.2 -2.55,-0.65 -4,-1.4 l -0.6,-0.75 c -0.65,0.55 -1.05,1 -1.2,1.45 -0.15,0.4 -0.25,1.15 -0.25,2.3 -0.05,1.1 0.35,1.9 1.1,2.45 q 0.95,0.75 5.6,2.2 c 1.05,0.5 5.95,1.65 7.45,1.45 1.65,-0.35 3.9,-1.9 4.65,-3.35 0.55,-1.35 -0.05,-3 -0.3,-3.5 -0.8,-0.8 -2.25,-1.6 -4.35,-2.25 -2.1,-0.5 -3.7,-0.8 -4.75,-0.95 z"
             inkscape:connector-curvature="0"
             style="fill:#95355f" />
        </g>
        <g
           id="drawingObject3">
          <path
             id="path3"
             d="m 9.601,1.601 c -0.6,0.45 -1.85,1.2 -3.7,2.25 -1.85,1.05 -2.7,2.85 -2.5,5.4 1.55,0.35 3.2,0.5 4,0.45 q 1.15,-0.25 2.6,-1.2 1.4,-1.1 1.95,-2.1 c 0.65,-1.4 0.05,-3.05 -0.35,-3.6 -0.5,-0.55 -1.15,-0.95 -2,-1.2 z"
             inkscape:connector-curvature="0"
             style="fill:#f0cdda" />
        </g>
        <g
           id="drawingObject4">
          <path
             id="path4"
             d="m 6.634,1.158 c 0,0 0.656,0.133 0.4,-0.3 C 6.778,0.425 5.587,0.668 4.295,1.352 3.067,1.961 2.396,2.413 2.302,2.926 2.131,3.368 3.051,3.276 3.051,3.276 L 3.908,2.528 6.634,1.158 z"
             inkscape:connector-curvature="0"
             style="fill:#c09541" />
        </g>
        <g
           id="drawingObject5">
          <path
             id="path5"
             d="m 2.751,2.501 c -1.4,0.75 -1.65,2.25 -2.3,1.7 -0.7,-0.4 -0.25,-1.2 0.7,-1.65 0.4,-0.25 1.15,-0.8 1.8,-1.35 -0.65,0.35 -1.8,0.8 -3.35,1.2 -1.65,0.35 -3.2,-0.1 -4.9,-1.45 l -0.65,-0.95 -0.5,0.9 0.5,-0.9 c 0,0 -0.95,1.35 -1,3 0,1.7 0.1,2.45 1,3.1 1,0.8 4.55,1.8 5.6,2.25 1.15,0.4 6,1.65 7.5,1.4 1.7,-0.3 3.85,-1.9 4.6,-3.35 0.5,-1.05 0.25,-2.3 -0.1,-3 -0.55,0.95 -1.55,1.7 -2.9,2.35 -1.4,0.65 -2.65,0.7 -3.75,0.15 -1.15,-0.55 -1.7,-0.9 -1.75,-1.1 0.15,-0.35 0.3,-0.7 0.4,-1.05 q 0.3,-0.75 1.65,-1.8 l 1.35,-0.85 -0.55,0.05 c -0.6,0 -2,0.7 -3.35,1.35 z"
             inkscape:connector-curvature="0"
             style="fill:#000000;fill-opacity:0.2" />
        </g>
      </g>
    </g>
  </g>
</svg>
