<?xml version="1.0" encoding="UTF-8" standalone="no"?>
<!-- Generator: flash2svg, http://dissentgraphics.com/tools/flash2svg -->

<svg
   xmlns:dc="http://purl.org/dc/elements/1.1/"
   xmlns:cc="http://creativecommons.org/ns#"
   xmlns:rdf="http://www.w3.org/1999/02/22-rdf-syntax-ns#"
   xmlns:svg="http://www.w3.org/2000/svg"
   xmlns="http://www.w3.org/2000/svg"
   xmlns:sodipodi="http://sodipodi.sourceforge.net/DTD/sodipodi-0.dtd"
   xmlns:inkscape="http://www.inkscape.org/namespaces/inkscape"
   id="AvatarAssets"
   image-rendering="auto"
   version="1.1"
   x="0px"
   y="0px"
   width="19.048"
   height="11.078605"
   viewBox="0 0 19.048 11.078605"
   inkscape:version="0.48.4 r9939"
   sodipodi:docname="AvatarAssets_shoeOffsideA011.svg">
  <metadata
     id="metadata3154">
    <rdf:RDF>
      <cc:Work
         rdf:about="">
        <dc:format>image/svg+xml</dc:format>
        <dc:type
           rdf:resource="http://purl.org/dc/dcmitype/StillImage" />
      </cc:Work>
    </rdf:RDF>
  </metadata>
  <sodipodi:namedview
     pagecolor="#ffffff"
     bordercolor="#666666"
     borderopacity="1"
     objecttolerance="10"
     gridtolerance="10"
     guidetolerance="10"
     inkscape:pageopacity="0"
     inkscape:pageshadow="2"
     inkscape:window-width="640"
     inkscape:window-height="480"
     id="namedview3152"
     showgrid="false"
     fit-margin-top="0"
     fit-margin-left="0"
     fit-margin-right="0"
     fit-margin-bottom="0"
     inkscape:zoom="1.9032258"
     inkscape:cx="38.771"
     inkscape:cy="-50.871395"
     inkscape:window-x="0"
     inkscape:window-y="0"
     inkscape:window-maximized="0"
     inkscape:current-layer="AvatarAssets" />
  <defs
     id="defs3130" />
  <g
     id="shoeOffsideA12"
     overflow="visible"
     style="overflow:visible"
     transform="translate(6.771,-0.05)">
    <g
       id="shoeOffsideA011_0">
      <g
         id="element">
        <g
           id="drawingObject">
          <path
             id="path"
             d="m 0.18,10.021 c 1.332,0.348 2.609,0.592 3.938,0.783 1.329,0.192 2.392,0.282 3.241,0.323 0.85,0.041 1.848,-0.704 3.048,-2.182 1.096,-1.373 1.719,-2.374 1.87,-3.002 C 12.272,5.629 12.269,5.368 12.265,5.107 12.21,4.951 12.208,4.847 12.208,4.794 L 11.942,4.798 C 11.892,5.008 11.685,5.376 11.32,5.851 10.955,6.326 10.748,6.694 10.592,6.958 10.436,7.169 10.28,7.38 10.123,7.591 9.967,7.802 9.706,8.118 9.447,8.592 9.188,9.013 8.449,9.337 7.284,9.509 Q 5.427,9.533 2.286,8.792 C 0.156,8.298 -1.228,7.95 -1.868,7.75 -2.562,7.446 -3.362,7.143 -4.267,6.894 -5.281,6.542 -6.081,6.239 -6.56,6.089 l 0.054,0.104 c -0.206,0.472 -0.254,0.839 -0.091,1.098 0.11,0.259 0.965,0.718 2.512,1.324 1.547,0.554 2.934,1.058 4.265,1.406 z"
             inkscape:connector-curvature="0"
             style="fill:#875113" />
        </g>
        <g
           id="drawingObject1">
          <path
             id="path1"
             d="m -1.749,8.689 c 1.387,0.504 2.612,0.801 3.622,0.944 1.01,0.143 2.073,0.286 3.138,0.533 1.065,0.247 2.073,0.233 3.078,-0.041 0.157,-0.107 0.263,-0.16 0.37,-0.11 C 8.509,9.858 8.667,9.752 8.93,9.591 L 8.903,9.566 8.93,9.591 C 9.085,9.276 9.502,8.748 10.129,8.008 10.336,7.64 10.754,7.112 11.38,6.32 Q 12.631,4.684 11.883,4.329 C 11.402,4.074 11.191,4.181 11.251,4.651 l -0.636,0.06 C 10.888,5.282 10.896,5.857 10.584,6.383 10.219,6.858 9.691,7.022 8.947,6.927 L 9.011,7.71 8.984,7.736 9.011,7.762 C 9.014,7.919 9.014,7.971 9.015,8.023 9.016,8.075 9.016,8.128 9.018,8.232 8.965,8.233 8.965,8.233 8.965,8.233 9.077,8.649 8.665,9.595 6.967,9.617 5.375,9.639 6.007,9.265 3.99,9.239 L 3.247,9.197 C 2.667,9.518 2.447,8.894 2.186,9.211 L -1.222,8.421 C -1.703,8.166 -2.24,7.703 -2.879,7.555 -2.932,7.555 -2.985,7.556 -3.305,7.456 -3.572,7.303 -3.839,7.202 -4.212,7.05 -5.28,6.594 -5.869,6.184 -5.926,5.924 -6.036,5.612 -6.145,5.456 -6.198,5.457 -6.251,5.458 -6.355,5.564 -6.565,5.775 l 0.008,0.549 -0.214,-0.128 c 1.02,0.874 1.77,1.387 2.25,1.537 0.426,0.151 1.333,0.452 2.772,0.956 z"
             inkscape:connector-curvature="0"
             style="fill:#c79140" />
          <path
             id="path2"
             d="m 7.652,9.217 0,0.026 L 7.678,9.242 7.652,9.217"
             inkscape:connector-curvature="0"
             style="fill:#c79140" />
        </g>
        <g
           id="group1">
          <path
             id="path3"
             d="M 10.6,6.7 C 10.7,6.6 10.7,6.6 10.7,6.6 L 10.6,6.55 C 10.35,6.5 10.4,6.6 10.1,6.7 l 0.05,-0.05 -0.05,0.05 0.5,0 z"
             inkscape:connector-curvature="0"
             style="fill:#875113" />
          <g
             id="drawingObject2">
            <path
               id="path4"
               d="M 11.842,4.55 C 11.784,4.185 11.675,4.03 11.518,4.137 l -0.895,0.586 0.109,0.208 c 0.745,0.094 1.115,-0.015 1.11,-0.381 z"
               inkscape:connector-curvature="0"
               style="fill:#875113" />
          </g>
          <g
             id="drawingObject3">
            <path
               id="path5"
               d="M 11.1,6.15 C 11,5.95 10.85,5.7 10.7,5.45 10.65,6.05 10.4,6.45 10.05,6.6 10,6.6 9.7,6.65 9.15,6.65 L 9,6.6 8.95,6.7 8.85,6.7 C 8.95,7.75 8.85,8.4 8.6,8.65 8.35,8.9 7.95,9.1 7.45,9.25 6.9,9.4 6.55,9.45 6.3,9.4 6.05,9.35 5.9,9.3 5.8,9.25 5.35,9 5,8.9 4.75,8.9 4.45,8.9 4.25,8.9 4.15,8.95 4,8.95 3.55,8.9 2.75,8.8 2,8.65 1.05,8.45 0,8.1 -1.3,7.45 -2.1,7.1 -2.4,7.05 -3.75,6.75 -5.05,6.2 -6.3,5.4 c -0.1,0.15 -0.05,0.4 0.1,0.7 0.15,0.3 0.55,0.6 1.15,0.85 0.6,0.25 2.2,0.7 4.9,1.6 1,0.3 2.4,0.65 4.2,1.05 0.8,0.2 1.65,0.3 2.5,0.3 C 6.9,9.85 7.35,9.8 7.8,9.75 L 7.85,9.7 C 8.1,9.6 8.6,9.25 9.35,8.55 L 9.6,7.65 C 9.75,7.55 9.9,7.45 10,7.45 10.05,7.3 10.3,7.05 10.85,6.7 l 0.2,-0.5 0.05,-0.05 z"
               inkscape:connector-curvature="0"
               style="fill:#875113" />
          </g>
        </g>
        <g
           id="drawingObject4">
          <path
             id="path6"
             d="M 8.95,2.7 8.3,2.25 C 8.05,1.9 8,1.9 8.15,2.25 8.3,2.4 8.2,3.1 7.95,4.25 6.6,4.45 5.4,5.05 4.35,6 3.8,6.45 3.4,7.05 3.2,7.75 3.1,8 3.05,8.35 3.05,8.7 l 0,0.05 L 3.025,8.775 3.05,8.8 C 3,8.8 3,8.8 3,8.85 3.45,8.55 3.85,8.2 4.1,7.8 4.55,6.95 5.05,6.45 5.55,6.3 L 6.5,5.4 8.2,5.7 C 7.35,5.45 7.1,5.2 7.35,5.05 7.8,4.8 8.25,4.6 8.8,4.55 L 9.35,3.45 8.95,2.7 z m -2,0.1 C 6.75,2.1 6.5,1.65 6.15,1.5 6.3,2.05 6.15,2.5 5.8,2.9 5.55,3 5.15,3.15 4.7,3.3 4.55,3.6 4.25,3.85 3.9,4 3.5,4.1 3,4.35 2.4,4.8 2.15,5.05 1.9,5.2 1.75,5.35 L 2.3,5 C 3.2,4.55 3.95,4.2 4.55,4.05 L 6.15,3.7 C 6.3,3.6 6.4,3.45 6.45,3.3 l 0.3,-0.65 0.2,0.15 z"
             inkscape:connector-curvature="0"
             style="fill:#000000;fill-opacity:0.29800002" />
          <path
             id="path7"
             d="M 8.15,2.25 C 7.9,1.8 7.7,1.5 7.65,1.45 7.1,1.05 6.35,0.7 5.4,0.4 L 4.1,0.05 C 4.25,0.15 4.45,0.45 4.7,1 4.9,1.65 4.95,2.2 4.85,2.65 4.4,2.5 3.35,2.9 1.7,3.9 1.05,4.25 0.45,4.7 -0.05,5.2 L 2.35,3.85 C 1.95,4.1 1.65,4.5 1.4,5 1.15,5.35 1,5.7 1.05,5.95 l 2,-0.9 C 4.45,4.45 4.95,4.3 4.55,4.65 4.2,4.9 4.1,5 4.25,4.95 4.35,4.95 4.95,4.75 6.05,4.4 6.95,4.3 7.4,4.05 7.35,3.7 L 7.3,3.25 7.6,3.45 C 7.75,3.5 7.8,3.55 7.75,3.6 7.7,3.75 7.55,3.9 7.3,4.15 6.75,4.3 6.3,4.45 5.9,4.55 5.35,4.8 4.85,5.1 4.45,5.45 4.5,5.45 4.55,5.45 4.6,5.5 4.15,5.85 3.8,6.1 3.65,6.35 3.6,6.4 3.6,6.45 3.6,6.5 3.15,7.15 2.95,7.95 2.95,8.8 3,8.8 3,8.8 3.05,8.8 L 3.025,8.775 3.05,8.75 3.05,8.7 C 3.05,8.35 3.1,8 3.2,7.75 3.4,7.05 3.8,6.45 4.35,6 5.4,5.05 6.6,4.45 7.95,4.25 8.2,3.1 8.3,2.4 8.15,2.25 z M 6.95,2.8 C 7,2.95 7.05,3.2 7.1,3.55 L 6.15,3.7 C 6.3,3.6 6.4,3.45 6.45,3.3 L 6.75,2.65 6.95,2.8 z M 1.75,5.35 1.2,5.65 C 1.6,5.05 2.2,4.55 3,4.15 3.4,3.95 3.9,3.7 4.55,3.4 4.6,3.35 4.65,3.3 4.7,3.3 4.55,3.6 4.25,3.85 3.9,4 3.5,4.1 3,4.35 2.4,4.8 2.15,5.05 1.9,5.2 1.75,5.35 z M 5.6,1.45 C 5.65,1.55 5.55,1.8 5.3,2.25 L 4.95,0.4 6.2,0.7 C 6.55,0.85 7.05,1.2 7.65,1.65 L 7.35,2.75 6.9,1.95 C 6.45,1.4 6.15,1.1 5.95,1.15 L 5.8,1.85 C 5.8,1.6 5.75,1.45 5.6,1.45 z"
             inkscape:connector-curvature="0"
             style="fill:#fff4b8" />
          <path
             id="path16"
             d="m 5.6,1.45 c 0.15,0 0.2,0.15 0.2,0.4 L 5.95,1.15 C 6.15,1.1 6.45,1.4 6.9,1.95 l 0.45,0.8 0.3,-1.1 C 7.05,1.2 6.55,0.85 6.2,0.7 L 4.95,0.4 5.3,2.25 C 5.55,1.8 5.65,1.55 5.6,1.45 z"
             inkscape:connector-curvature="0"
             style="fill:#fff8d4" />
          <path
             id="path19"
             d="M 7.35,3.7 C 7.4,4.05 6.95,4.3 6.05,4.4 4.95,4.75 4.35,4.95 4.25,4.95 4.1,5 4.2,4.9 4.55,4.65 4.95,4.3 4.45,4.45 3.05,5.05 l -2,0.9 C 1,5.7 1.15,5.35 1.4,5 1.65,4.5 1.95,4.1 2.35,3.85 L -0.05,5.2 C -0.5,5.6 -0.9,6.05 -1.2,6.5 -1.55,6.95 -1.75,7.35 -1.8,7.7 -1.65,7.15 -1.2,6.55 -0.55,5.8 -0.1,5.55 0.15,5.55 0.2,5.7 0.35,6.15 0.5,6.35 0.75,6.4 0.9,6.45 1.15,6.4 1.5,6.35 1.65,6.3 1.9,6.15 2.15,5.95 L 3.1,5.85 C 3.05,5.8 3.05,5.8 3,5.75 2.95,5.6 2.95,5.5 3,5.45 3.2,5.4 3.4,5.35 3.65,5.4 c 0.05,0 0.3,0 0.8,0.05 C 4.85,5.1 5.35,4.8 5.9,4.55 6.3,4.45 6.75,4.3 7.3,4.15 7.55,3.9 7.7,3.75 7.75,3.6 7.8,3.55 7.75,3.5 7.6,3.45 L 7.3,3.25 7.35,3.7 z"
             inkscape:connector-curvature="0"
             style="fill:#e3daa4" />
          <path
             id="path20"
             d="M 3,5.75 C 3.05,5.8 3.05,5.8 3.1,5.85 L 2.15,5.95 C 1.9,6.15 1.65,6.3 1.5,6.35 1.15,6.4 0.9,6.45 0.75,6.4 0.5,6.35 0.35,6.15 0.2,5.7 0.15,5.55 -0.1,5.55 -0.55,5.8 -1.2,6.55 -1.65,7.15 -1.8,7.7 c 0.15,0.15 0.85,0.45 2.2,0.85 1.05,0.25 1.85,0.35 2.35,0.3 0.05,0 0.1,0 0.2,0 l 0,-0.05 C 2.95,7.95 3.15,7.15 3.6,6.5 3.6,6.45 3.6,6.4 3.65,6.35 3.8,6.1 4.15,5.85 4.6,5.5 4.55,5.45 4.5,5.45 4.45,5.45 3.95,5.4 3.7,5.4 3.65,5.4 3.4,5.35 3.2,5.4 3,5.45 2.95,5.5 2.95,5.6 3,5.75 z"
             inkscape:connector-curvature="0"
             style="fill:#c9bf83" />
        </g>
      </g>
    </g>
  </g>
</svg>
