<?xml version="1.0" encoding="UTF-8" standalone="no"?>
<!-- Generator: flash2svg, http://dissentgraphics.com/tools/flash2svg -->

<svg
   xmlns:dc="http://purl.org/dc/elements/1.1/"
   xmlns:cc="http://creativecommons.org/ns#"
   xmlns:rdf="http://www.w3.org/1999/02/22-rdf-syntax-ns#"
   xmlns:svg="http://www.w3.org/2000/svg"
   xmlns="http://www.w3.org/2000/svg"
   xmlns:sodipodi="http://sodipodi.sourceforge.net/DTD/sodipodi-0.dtd"
   xmlns:inkscape="http://www.inkscape.org/namespaces/inkscape"
   id="AvatarAssets"
   image-rendering="auto"
   version="1.1"
   x="0px"
   y="0px"
   width="19.552"
   height="10.975806"
   viewBox="0 0 19.552 10.975806"
   inkscape:version="0.48.4 r9939"
   sodipodi:docname="AvatarAssets_sockOffsideC004b.svg">
  <metadata
     id="metadata3387">
    <rdf:RDF>
      <cc:Work
         rdf:about="">
        <dc:format>image/svg+xml</dc:format>
        <dc:type
           rdf:resource="http://purl.org/dc/dcmitype/StillImage" />
      </cc:Work>
    </rdf:RDF>
  </metadata>
  <sodipodi:namedview
     pagecolor="#ffffff"
     bordercolor="#666666"
     borderopacity="1"
     objecttolerance="10"
     gridtolerance="10"
     guidetolerance="10"
     inkscape:pageopacity="0"
     inkscape:pageshadow="2"
     inkscape:window-width="640"
     inkscape:window-height="480"
     id="namedview3385"
     showgrid="false"
     fit-margin-top="0"
     fit-margin-left="0"
     fit-margin-right="0"
     fit-margin-bottom="0"
     inkscape:zoom="1.9032258"
     inkscape:cx="39.626039"
     inkscape:cy="-51.473194"
     inkscape:window-x="0"
     inkscape:window-y="0"
     inkscape:window-maximized="0"
     inkscape:current-layer="AvatarAssets" />
  <defs
     id="defs3371" />
  <g
     id="sockOffsideC004b1"
     overflow="visible"
     style="overflow:visible"
     transform="translate(7.6260389,0.449)">
    <g
       id="sockOffsideC004b_0">
      <g
         id="element">
        <g
           id="drawingObject">
          <path
             id="path"
             d="m -7.399,4.451 c 0,0.6 0.35,1.2 1.05,1.8 1.4,1 3.65,2.05 6.75,3.1 q 4.5,1.35 6,1.15 c 0.95,-0.25 1.8,-0.65 2.45,-1.25 0.6,-0.8 1.1,-1.25 1.45,-1.55 0.3,-0.5 0.6,-0.8 0.95,-0.95 0.15,-0.25 0.3,-0.75 0.5,-1.55 0.05,-0.25 0.05,-0.45 0.05,-0.55 0,-0.2 0.05,-0.45 0.1,-0.6 -0.05,-0.95 -0.65,-1.55 -1.75,-1.9 -1.15,-0.35 -2.45,-0.7 -4,-1.15 -1.55,-0.45 -2.9,-0.95 -4.05,-1.45 l -0.2,0.75 c -0.55,0.9 -1.55,1.3 -2.9,1.2 -1.45,0.25 -3.05,-0.1 -4.75,-1.15 0.05,0.15 -0.1,0.3 -0.45,0.55 -0.2,0.05 -0.35,0.35 -0.5,0.9 -0.35,0.2 -0.6,0.55 -0.6,1.05 -0.1,0.5 -0.15,0.9 -0.15,1.25 0,0.05 0,0.1 0,0.25 l 0,0.05 0.05,0.05 z"
             inkscape:connector-curvature="0"
             style="fill:#e9dfd2" />
        </g>
        <g
           id="group1">
          <g
             id="drawingObject1">
            <path
               id="path1"
               d="m -6.975,5.65 q 0.916,1.007 3.275,2.1 C -5.45,4.8 -6.7,3.35 -7.45,3.4 -7.75,4.25 -7.6,5 -6.95,5.65"
               inkscape:connector-curvature="0"
               style="fill:#3c372e" />
          </g>
          <g
             id="drawingObject2">
            <path
               id="path2"
               d="M 11.9,4.4 C 12.05,3.45 11.55,2.7 10.4,2.15 L 9.15,1.75 C 7.85,2.15 6.55,2.9 5.2,4.05 3.45,5.55 2.7,7.5 3,9.95 c 1.75,0.55 2.95,0.7 3.55,0.45 0.6,-0.25 1.3,-0.6 2.1,-1 l -0.025,0 Q 9.799,8.796 10.35,8.05 C 10.7,7.5 11.05,6.95 11.3,6.5 11.5,6 11.7,5.3 11.9,4.4 z"
               inkscape:connector-curvature="0"
               style="fill:#3c372e" />
          </g>
        </g>
        <g
           id="drawingObject3">
          <path
             id="path3"
             d="M 3.25,2.9 C 3.5,2.45 3.9,2 4.45,1.55 L 5,0.85 C 3.05,1.5 1.8,1.95 1.3,2.25 L 0.45,2.4 1,2.15 C 1.35,1.9 1.75,1.65 2.2,1.45 3.3,0.5 3.5,-0.05 2.8,-0.25 2.7,-0.15 2.6,0 2.45,0.15 1.85,0.85 1,1.35 -0.1,1.7 -1.4,2 -2.65,2.05 -3.9,1.85 L -5.1,1.05 -5.45,0.35 C -5.8,0.6 -6.2,0.8 -6.55,1 -7.15,2.05 -7.5,3.05 -7.6,3.95 c -0.15,0.9 0.35,1.7 1.45,2.35 1.1,0.65 2.25,1.2 3.45,1.75 1.15,0.55 2.6,1.05 4.25,1.5 1.6,0.45 2.65,0.7 3.1,0.8 0.45,0.1 1.15,0.1 2.1,-0.05 C 7.65,10.15 8.9,9.45 10.45,8.2 8.6,8.55 7.5,8.8 7.15,8.9 6.7,8.9 6.25,8.9 5.9,8.95 5.45,8.95 5.15,9 5.1,9.15 L 4.8,9.05 C 4.75,8.9 4.75,8.8 4.8,8.65 4.85,8.1 5.1,7.75 5.55,7.7 5.8,7.55 6.3,7.5 6.95,7.55 L 11.1,5.05 C 7.9,5.95 5.95,6.1 5.25,5.5 4.5,4.85 3.9,4.4 3.4,4.15 2.85,3.9 2.8,3.45 3.25,2.9 z"
             inkscape:connector-curvature="0"
             style="fill:#231f20;fill-opacity:0.08600003" />
        </g>
      </g>
    </g>
  </g>
</svg>
