<?xml version="1.0" encoding="UTF-8" standalone="no"?>
<!-- Generator: flash2svg, http://dissentgraphics.com/tools/flash2svg -->

<svg
   xmlns:dc="http://purl.org/dc/elements/1.1/"
   xmlns:cc="http://creativecommons.org/ns#"
   xmlns:rdf="http://www.w3.org/1999/02/22-rdf-syntax-ns#"
   xmlns:svg="http://www.w3.org/2000/svg"
   xmlns="http://www.w3.org/2000/svg"
   xmlns:sodipodi="http://sodipodi.sourceforge.net/DTD/sodipodi-0.dtd"
   xmlns:inkscape="http://www.inkscape.org/namespaces/inkscape"
   id="AvatarAssets"
   image-rendering="auto"
   version="1.1"
   x="0px"
   y="0px"
   width="19.193445"
   height="14.04539"
   viewBox="0 0 19.193445 14.04539"
   inkscape:version="0.48.4 r9939"
   sodipodi:docname="AvatarAssets_shoeOffsideA009.svg">
  <metadata
     id="metadata3105">
    <rdf:RDF>
      <cc:Work
         rdf:about="">
        <dc:format>image/svg+xml</dc:format>
        <dc:type
           rdf:resource="http://purl.org/dc/dcmitype/StillImage" />
      </cc:Work>
    </rdf:RDF>
  </metadata>
  <sodipodi:namedview
     pagecolor="#ffffff"
     bordercolor="#666666"
     borderopacity="1"
     objecttolerance="10"
     gridtolerance="10"
     guidetolerance="10"
     inkscape:pageopacity="0"
     inkscape:pageshadow="2"
     inkscape:window-width="640"
     inkscape:window-height="480"
     id="namedview3103"
     showgrid="false"
     fit-margin-top="0"
     fit-margin-left="0"
     fit-margin-right="0"
     fit-margin-bottom="0"
     inkscape:zoom="1.9032258"
     inkscape:cx="39.149"
     inkscape:cy="-50.95361"
     inkscape:window-x="0"
     inkscape:window-y="0"
     inkscape:window-maximized="0"
     inkscape:current-layer="AvatarAssets" />
  <defs
     id="defs3076" />
  <g
     id="shoeOffsideA10"
     overflow="visible"
     style="overflow:visible"
     transform="translate(7.149,2.999)">
    <g
       id="shoeOffsideA009_0">
      <g
         id="element">
        <g
           id="drawingObject">
          <path
             id="path"
             d="m -6.317,5.584 c 0,0 0.064,0.825 0.614,1.312 0.549,0.487 2.409,1.059 3.786,1.555 l 5.649,1.784 c 1.584,0.499 3.512,1.208 4.827,0.537 1.314,-0.671 2.217,-1.622 2.705,-2.646 0.558,-0.955 0.561,-1.504 0.561,-1.504 L 11.753,7.033 11.825,6.622 4.519,5.094 C 4.381,5.023 -6.103,4.351 -6.103,4.351 q -0.211,0.684 -0.214,1.233 z"
             inkscape:connector-curvature="0"
             style="fill:#c2945c" />
        </g>
        <g
           id="drawingObject1">
          <path
             id="path1"
             d="m -6.317,5.584 c 0,0 0.064,0.825 0.614,1.312 0.549,0.487 2.409,1.059 3.786,1.555 l 5.649,1.784 c 1.102,0.356 2.41,0.783 3.583,0.797 C 6.902,10.821 6.767,10.408 6.146,10.263 Q 5.457,10.186 5.255,9.222 4.984,8.258 5.605,8.334 l 0.138,0.001 c 0,0 -1.991,-1.808 -4.052,-3.481 L -6.103,4.351 c -0.211,0.684 -0.214,1.233 -0.214,1.233 z"
             inkscape:connector-curvature="0"
             style="fill:#84643f" />
        </g>
        <g
           id="drawingObject2">
          <path
             id="path2"
             d="m 2.201,-0.549 -0.4,1.55 c -0.6,0.6 -1.2,0.95 -1.8,1.05 -0.65,0.05 -1.05,0.15 -1.3,0.2 -0.2,0.05 -0.65,0 -1.35,-0.05 -0.7,-0.1 -1.25,-0.3 -1.7,-0.55 -0.45,-0.35 -0.7,-0.95 -0.75,-1.9 l -0.4,-1.8 c -0.3,0.3 -0.45,0.35 -0.45,0.2 l -0.55,-1.15 -0.65,0.55 0.05,0.6 c 0.15,0.4 0.45,0.6 0.55,0.65 l -0.35,0.45 0.4,0.7 c 0.4,0.5 0.4,0.75 0.25,1.05 -0.4,0.7 -1,2.15 -0.5,4.1 0.2,1.55 3.45,1.85 5.9,3.1 2.55,1.25 7,2.2 8.35,2.3 1.55,0.1 3.3,-2.15 3.85,-3 0.5,-0.85 0.65,-2.8 0.55,-3.6 -0.05,-0.4 -0.3,-0.75 -0.75,-1.1 -0.55,-0.4 -1.15,-0.8 -1.8,-1.15 -0.65,-0.45 -1.85,-0.8 -3.6,-1.15 l -3.55,-1.05 z"
             inkscape:connector-curvature="0"
             style="fill:#357927" />
        </g>
        <g
           id="drawingObject3">
          <path
             id="path3"
             d="M 1.215,2.725 C 1.842,3.419 3.164,4.121 3.92,4.267 L 5.055,4.555 4.928,4.691 4.928,4.76 4.549,4.756 C 4.296,4.821 3.853,4.953 3.788,5.365 3.786,5.777 4.036,6.26 4.541,6.266 5.108,6.342 5.489,5.934 5.491,5.522 L 5.43,5.247 5.811,4.839 6.189,4.981 C 6.755,5.262 6.756,5.193 7.45,5.27 7.765,5.343 8.144,5.278 8.65,5.078 Q 7.387,5.201 6.694,4.987 L 5.938,4.703 C 6.509,4.16 7.525,3.074 8.158,2.6 L 8.919,2.06 8.982,2.061 9.862,2.689 C 10.113,2.967 10.3,3.518 10.235,3.861 10.17,4.135 9.599,4.609 9.029,4.945 9.978,4.545 10.422,4.138 10.362,3.656 10.302,3.106 10.18,2.281 9.172,1.926 L 9.677,1.931 C 9.74,1.864 9.93,1.797 9.489,1.655 9.174,1.582 8.921,1.648 8.668,1.782 7.912,1.499 7.03,1.214 6.464,0.795 6.338,0.725 6.275,0.656 6.023,0.584 5.834,0.582 5.708,0.58 5.519,0.509 l -0.032,0 0.723,0.558 C 6.399,1.138 6.651,1.278 6.966,1.282 7.219,1.285 7.975,1.568 8.478,1.849 L 8.352,1.847 C 8.099,1.982 6.006,3.743 5.245,4.42 L 4.678,4.276 C 4.047,4.132 3.48,3.988 2.725,3.498 L 1.467,2.659 1.215,2.725 z"
             inkscape:connector-curvature="0"
             style="fill:#235019" />
        </g>
        <g
           id="drawingObject4">
          <path
             id="path4"
             d="M 4.103,5.432 C 4.17,5.776 4.928,5.991 4.999,5.58 Q 6.044,3.738 7.499,2.725 L 9.437,1.58 c 0,0 -0.068,-0.206 -0.412,-0.279 C 8.749,1.16 8.404,1.294 7.297,1.83 6.19,2.366 5.079,3.521 4.593,4.064 4.107,4.677 3.966,5.156 4.103,5.432 z"
             inkscape:connector-curvature="0"
             style="fill:#dfd3b3" />
        </g>
        <g
           id="drawingObject5">
          <path
             id="path5"
             d="M 6.49,10.473 C 7.455,10.69 8.213,10.905 9.391,9.958 10.5,9.009 11.612,7.58 11.827,6.21 12.041,4.839 12.256,3.399 11.637,3.048 l -0.003,0.55 Q 11.561,4.284 11.005,5.032 C 10.102,6.121 9.064,6.795 7.96,6.782 6.856,6.769 5.478,6.41 5.131,6.68 4.923,6.815 4.713,7.362 4.504,7.84 L 4.36,8.937 c 0.269,1.308 1.234,1.32 2.13,1.536 z"
             inkscape:connector-curvature="0"
             style="fill:#eadcbd" />
        </g>
        <g
           id="drawingObject6">
          <path
             id="path6"
             d="m 7.544,7.121 c 1.104,0.013 2,0.092 2.903,-0.996 q 1.598,-1.904 1.395,-2.662 l -0.068,-0.276 -0.137,-0.139 -0.003,0.55 0.003,-0.55 c 0,0 0.272,0.828 -0.632,1.984 C 10.102,6.121 9.064,6.795 7.96,6.782 6.856,6.769 5.478,6.41 5.131,6.68 L 4.853,7.02 C 5.061,6.954 5.268,6.888 5.544,6.96 l 2,0.161 z"
             inkscape:connector-curvature="0"
             style="fill:#f6ebd1" />
        </g>
        <g
           id="drawingObject7">
          <path
             id="path7"
             d="m 3.851,0.051 c -0.3,1.15 -0.8,1.85 -1.45,2.15 -0.65,0.3 -1.35,0.45 -2.05,0.5 -0.7,0 -1.65,-0.05 -2.8,-0.1 -1.15,-0.05 -1.95,-0.45 -2.55,-1 -0.3,-0.2 -0.55,-0.45 -0.75,-0.75 l -0.25,-2.75 -0.05,0 0,-0.3 c 0,-0.25 -0.2,-0.55 -0.35,-0.75 l -0.2,0.05 -0.15,0.1 0.15,0.7 0.05,0.1 0,-0.1 0.05,0.2 0.25,0.5 -0.15,0.15 -0.1,-0.45 0,0.1 -0.1,-0.2 0.05,0.25 -0.05,0.1 0.15,0.2 -0.35,0.45 0.4,0.75 c 0.3,0.4 0.3,0.6 0.25,0.95 -0.5,0.75 -1.05,2.15 -0.6,4.15 0.3,1.55 3.55,1.9 6.05,3.15 2.45,1.2 7.15,2.3 8.65,2.35 1.5,0.1 2.95,-2.2 3.45,-3.1 0.4,-0.6 0.6,-1.8 0.6,-2.7 -0.25,0.35 -1.05,2.1 -2.25,2.85 q -0.95,0.7 -2.35,0.65 -1.2,0 -2.05,-0.45 c -0.85,-0.6 -0.85,-0.45 -1.8,-0.75 -1.05,-0.25 -1.6,-0.8 -1.4,-1.4 0.2,-0.5 1.7,-1.55 2.4,-2.4 0.5,-0.6 1.95,-1.6 2.9,-2.3 l -3.6,-0.9 z"
             inkscape:connector-curvature="0"
             style="fill:#000000;fill-opacity:0.2" />
        </g>
        <g
           id="drawingObject8">
          <path
             id="path8"
             d="m -6.6,-2.832 -0.114,0.068 0.122,0.733 0.059,0.133 -0.002,-0.134 0.237,0.732 -0.057,0.067 -0.118,-0.399 0,0.067 -0.116,-0.133 0.059,0.2 -0.056,0.134 0.174,0.132 -0.34,0.469 0.409,0.731 c 0.292,0.464 0.294,0.664 0.239,0.998 -0.51,0.738 -1.071,2.144 -0.592,4.141 0.244,1.532 3.465,1.838 5.949,3.151 1.558,0.654 4.036,1.433 5.995,1.95 L 5.132,10.143 Q 4.323,9.616 4.315,8.749 L 4.423,8.014 c 0,0 -0.684,0.606 -1.603,0.681 C 1.787,8.837 1.323,8.441 0.11,7.784 -0.931,7.059 -2.947,6.543 -2.84,5.741 -2.733,4.94 -1.356,4.728 0.713,4.71 2.84,4.759 2.602,3.961 2.886,3.625 L 3.733,2.017 C 3.048,2.489 2.306,3.029 0.755,3.042 0.124,3.181 -0.681,3.188 -2.005,2.866 -3.617,2.613 -4.426,2.153 -4.948,1.623 -5.237,1.426 -5.47,1.161 -5.702,0.896 L -5.958,-1.837 -6.016,-1.836 -6.019,-2.17 C -6.021,-2.436 -6.254,-2.701 -6.371,-2.9 L -6.6,-2.832 z"
             inkscape:connector-curvature="0"
             style="fill:#000000;fill-opacity:0.2" />
        </g>
        <g
           id="drawingObject9">
          <path
             id="path9"
             d="M -2.666,6.726 C -3.491,6.098 -3.695,5.478 -4.243,4.853 -4.86,4.159 -5.897,4.353 -5.897,4.353 l 0.621,0.007 -0.621,-0.007 0.689,0.283 c 0.619,0.282 0.825,0.628 1.236,1.113 q 0.411,0.554 0.892,0.903 c 0.136,0.345 1.858,0.915 1.858,0.915 0,0 -0.619,-0.282 -1.444,-0.841 z"
             inkscape:connector-curvature="0"
             style="fill:#3b862b" />
        </g>
        <g
           id="drawingObject10">
          <path
             id="path10"
             d="M 1.473,6.843 C 1.063,6.152 -0.176,5.656 -1.142,5.645 l 0.688,0.283 q 0.757,0.283 1.169,0.7 C 1.471,7.187 1.607,7.6 2.158,7.744 l 0.689,0.145 c 0,0 -1.033,-0.355 -1.374,-1.046 z"
             inkscape:connector-curvature="0"
             style="fill:#3b862b" />
        </g>
      </g>
    </g>
  </g>
</svg>
