<?xml version="1.0" encoding="UTF-8" standalone="no"?>
<!-- Generator: flash2svg, http://dissentgraphics.com/tools/flash2svg -->

<svg
   xmlns:dc="http://purl.org/dc/elements/1.1/"
   xmlns:cc="http://creativecommons.org/ns#"
   xmlns:rdf="http://www.w3.org/1999/02/22-rdf-syntax-ns#"
   xmlns:svg="http://www.w3.org/2000/svg"
   xmlns="http://www.w3.org/2000/svg"
   xmlns:sodipodi="http://sodipodi.sourceforge.net/DTD/sodipodi-0.dtd"
   xmlns:inkscape="http://www.inkscape.org/namespaces/inkscape"
   id="AvatarAssets"
   image-rendering="auto"
   version="1.1"
   x="0px"
   y="0px"
   width="8.8826532"
   height="11.376666"
   viewBox="0 0 8.8826532 11.376666"
   inkscape:version="0.48.4 r9939"
   sodipodi:docname="AvatarAssets_pantsLegLowerOffside20101122Color_1.svg">
  <metadata
     id="metadata3210">
    <rdf:RDF>
      <cc:Work
         rdf:about="">
        <dc:format>image/svg+xml</dc:format>
        <dc:type
           rdf:resource="http://purl.org/dc/dcmitype/StillImage" />
      </cc:Work>
    </rdf:RDF>
  </metadata>
  <sodipodi:namedview
     pagecolor="#ffffff"
     bordercolor="#666666"
     borderopacity="1"
     objecttolerance="10"
     gridtolerance="10"
     guidetolerance="10"
     inkscape:pageopacity="0"
     inkscape:pageshadow="2"
     inkscape:window-width="640"
     inkscape:window-height="480"
     id="namedview3208"
     showgrid="false"
     fit-margin-top="0"
     fit-margin-left="0"
     fit-margin-right="0"
     fit-margin-bottom="0"
     inkscape:zoom="1.9032258"
     inkscape:cx="36.4"
     inkscape:cy="-56.238235"
     inkscape:window-x="0"
     inkscape:window-y="0"
     inkscape:window-maximized="0"
     inkscape:current-layer="AvatarAssets" />
  <defs
     id="defs3202" />
  <g
     id="pantsLegLowerOffside20101122Color_2"
     overflow="visible"
     style="overflow:visible"
     transform="translate(4.4,5.6149015)">
    <g
       id="pantsLegLowerOffside20101122Color_1_0">
      <g
         id="element">
        <path
           id="path"
           d="m 4.45,-2.35 c 0,-0.3 0.1,-0.7 -0.05,-1.1 L 4.35,-3.75 C 4.3,-3.9 4.25,-4.1 4.2,-4.3 c -0.3,-1 -1.8,-1.4 -4.4,-1.3 -0.1,0 -0.25,0 -0.3,0 l -0.35,0.05 c -2.05,0.15 -3.2,0.85 -3.5,2 0,0.05 0,0.1 0,0.1 -0.05,0.15 -0.05,0.2 -0.05,0.25 0,0.2 0,0.45 0.05,0.7 0,0.2 0,0.45 0.1,0.8 0,0.05 0,0.15 0.05,0.2 -0.05,0 -0.05,0 0,0.05 0,0.1 0,0.2 0,0.25 0.1,0.5 0.15,0.95 0.1,1.4 -0.15,1.35 -0.1,2.4 0.2,3.25 0.1,0.6 0.4,1 0.75,1.4 q 0.8,0.85 2.4,0.9 1.7,0.1 2.85,-0.65 L 2.2,5.1 3.1,4.45 3.15,4.4 C 3.2,4.35 3.35,4.25 3.4,4.15 3.4,4 3.55,3.9 3.6,3.75 c 0,-0.1 0,-0.15 0.05,-0.2 0,-0.05 0,-0.1 0.05,-0.15 L 3.8,3.05 3.8,3 C 3.85,2.75 3.8,2.5 3.85,2.25 L 4.05,0.6 c 0,-0.25 0,-0.45 0.05,-0.65 0.15,-0.85 0.3,-1.5 0.3,-1.9 0.05,-0.2 0.05,-0.3 0.05,-0.4 z"
           inkscape:connector-curvature="0"
           style="fill:#edede4" />
      </g>
    </g>
  </g>
</svg>
