<?xml version="1.0" encoding="UTF-8" standalone="no"?>
<!-- Generator: flash2svg, http://dissentgraphics.com/tools/flash2svg -->

<svg
   xmlns:dc="http://purl.org/dc/elements/1.1/"
   xmlns:cc="http://creativecommons.org/ns#"
   xmlns:rdf="http://www.w3.org/1999/02/22-rdf-syntax-ns#"
   xmlns:svg="http://www.w3.org/2000/svg"
   xmlns="http://www.w3.org/2000/svg"
   xmlns:sodipodi="http://sodipodi.sourceforge.net/DTD/sodipodi-0.dtd"
   xmlns:inkscape="http://www.inkscape.org/namespaces/inkscape"
   id="AvatarAssets"
   image-rendering="auto"
   version="1.1"
   x="0px"
   y="0px"
   width="19.251879"
   height="13.783229"
   viewBox="0 0 19.251879 13.783229"
   inkscape:version="0.48.4 r9939"
   sodipodi:docname="AvatarAssets_shoeOffsideA008.svg">
  <metadata
     id="metadata3073">
    <rdf:RDF>
      <cc:Work
         rdf:about="">
        <dc:format>image/svg+xml</dc:format>
        <dc:type
           rdf:resource="http://purl.org/dc/dcmitype/StillImage" />
      </cc:Work>
    </rdf:RDF>
  </metadata>
  <sodipodi:namedview
     pagecolor="#ffffff"
     bordercolor="#666666"
     borderopacity="1"
     objecttolerance="10"
     gridtolerance="10"
     guidetolerance="10"
     inkscape:pageopacity="0"
     inkscape:pageshadow="2"
     inkscape:window-width="640"
     inkscape:window-height="480"
     id="namedview3071"
     showgrid="false"
     fit-margin-top="0"
     fit-margin-left="0"
     fit-margin-right="0"
     fit-margin-bottom="0"
     inkscape:zoom="1.9032258"
     inkscape:cx="39.158004"
     inkscape:cy="-51.115771"
     inkscape:window-x="0"
     inkscape:window-y="0"
     inkscape:window-maximized="0"
     inkscape:current-layer="AvatarAssets" />
  <defs
     id="defs3044" />
  <g
     id="shoeOffsideA9"
     overflow="visible"
     style="overflow:visible"
     transform="translate(7.1580039,2.899)">
    <g
       id="shoeOffsideA008_0">
      <g
         id="element">
        <g
           id="drawingObject">
          <path
             id="path"
             d="m -6.442,5.453 c 0,0 0.029,0.804 0.561,1.282 0.532,0.479 2.378,1.05 3.742,1.545 l 5.606,1.782 c 1.572,0.499 3.481,1.206 4.833,0.563 1.351,-0.642 2.3,-1.56 2.836,-2.553 0.602,-0.924 0.629,-1.459 0.629,-1.459 l -0.09,0.4 0.09,-0.4 L 4.481,5.066 C 4.345,4.996 -6.173,4.255 -6.173,4.255 q -0.242,0.664 -0.269,1.198 z"
             inkscape:connector-curvature="0"
             style="fill:#c2945c" />
        </g>
        <g
           id="drawingObject1">
          <path
             id="path1"
             d="m -2.995,8.469 c 1.891,1.042 4.45,1.81 7.62,2.248 0.445,0.165 1.224,0.22 2.392,0.11 C 6.627,10.663 6.461,10.224 5.849,10.059 Q 5.181,10.005 5.014,9.073 4.792,8.14 5.404,8.195 l 0.167,0 c 0,0 -1.947,-1.754 -3.95,-3.399 L -6.221,4.247 c -0.223,0.658 -0.278,1.152 -0.278,1.152 l -0.112,-0.11 c -0.055,0.658 0.112,1.097 0.39,1.316 0.222,0.219 1.279,0.823 3.226,1.864 z"
             inkscape:connector-curvature="0"
             style="fill:#84643f" />
        </g>
        <g
           id="drawingObject2">
          <path
             id="path2"
             d="m 1.401,1.401 c -0.55,0.5 -1.6,0.8 -3.15,0.9 l -0.95,-0.25 c -0.65,-0.05 -1.1,-0.3 -1.45,-0.7 -0.35,-0.45 -0.65,-0.95 -1.05,-1.6 l -0.35,-1.45 c -0.15,0.05 -0.2,0.05 -0.2,0 l -0.45,-1.2 -0.8,0.55 0.1,0.65 c 0.15,0.2 0.5,0.45 0.6,0.5 l -0.45,0.45 0.45,0.7 c 0.25,0.5 0.25,0.7 0.1,0.95 -0.75,1.15 -1,2.3 -0.8,3.55 0.25,1.15 1.35,2.1 3.2,2.95 1.85,0.8 3.15,1.3 3.85,1.5 0.75,0.25 1.95,0.55 3.65,0.9 1.65,0.45 2.85,0.65 3.55,0.65 0.65,0 1.45,-0.45 2.4,-1.3 0.65,-0.5 1.15,-1.05 1.6,-1.7 0.5,-0.75 0.8,-2.75 0.8,-3.55 q -0.15,-0.45 -0.85,-1.05 -1.1,-0.65 -1.9,-1 c -0.75,-0.45 -1.85,-0.9 -3.25,-1.05 l -3.85,-1.6 c -0.05,0.95 -0.3,1.65 -0.8,2.2 z"
             inkscape:connector-curvature="0"
             style="fill:#cec2a5" />
        </g>
        <g
           id="drawingObject3">
          <path
             id="path3"
             d="M 6.238,1.341 C 5.96,1.177 5.793,1.122 5.626,1.122 5.459,1.067 5.181,1.012 4.681,0.958 L 5.96,1.506 c 0.111,0.055 0.389,0.164 0.667,0.11 0.223,0 0.946,0.164 1.335,0.438 l -0.111,0 C 7.684,2.219 5.849,3.918 5.126,4.631 L 4.569,4.467 C 3.958,4.467 3.513,4.357 2.734,3.918 L 1.566,3.206 1.399,3.26 C 1.9,3.864 3.123,4.467 3.846,4.522 l 1.113,0.219 -0.112,0.11 0,0.109 -0.389,0.055 C 4.291,5.07 3.846,5.18 3.791,5.563 c 0,0.384 0.278,0.768 0.723,0.768 0.5,0.055 0.89,-0.384 0.89,-0.768 L 5.292,5.344 5.626,4.96 6.016,5.07 C 6.516,5.289 6.572,5.234 7.184,5.234 7.462,5.289 7.795,5.18 8.296,4.96 Q 7.184,5.18 6.461,5.07 L 5.793,4.796 C 6.238,4.302 7.184,3.26 7.74,2.767 L 8.463,2.219 8.518,2.273 9.353,2.767 C 9.575,3.041 9.798,3.425 9.742,3.809 9.631,4.083 9.186,4.522 8.63,4.905 9.52,4.467 9.853,4.028 9.853,3.589 9.742,3.096 9.631,2.328 8.685,2.109 L 9.13,2.054 C 9.186,1.999 9.353,1.945 8.963,1.835 8.685,1.78 8.463,1.835 8.24,1.945 7.184,1.67 6.516,1.451 6.238,1.341 z"
             inkscape:connector-curvature="0"
             style="fill:#7c6a50" />
        </g>
        <g
           id="drawingObject4">
          <path
             id="path4"
             d="M 7.128,1.67 C 6.238,2.164 5.459,2.822 4.792,3.754 4.124,4.686 3.846,5.234 3.958,5.399 4.013,5.563 4.18,5.673 4.458,5.728 4.736,5.783 4.847,5.673 4.903,5.509 Q 6.071,3.699 7.573,2.767 L 8.63,1.945 C 9.019,1.89 9.13,1.67 8.852,1.396 8.574,1.067 8.018,1.177 7.128,1.67 z"
             inkscape:connector-curvature="0"
             style="fill:#dfd3b3" />
        </g>
        <g
           id="drawingObject5">
          <path
             id="path5"
             d="M 4.347,7.739 4.155,8.805 c 0.213,1.275 1.185,1.294 2.077,1.512 0.961,0.22 1.714,0.435 2.94,-0.477 C 10.329,8.926 11.51,7.545 11.785,6.212 12.06,4.88 12.338,3.481 11.731,3.135 L 11.704,3.669 Q 11.601,4.336 11.009,5.06 C 10.054,6.112 8.979,6.759 7.869,6.738 6.759,6.716 5.388,6.354 5.028,6.615 4.813,6.744 4.578,7.275 4.347,7.739 z"
             inkscape:connector-curvature="0"
             style="fill:#eadcbd" />
        </g>
        <g
           id="drawingObject6">
          <path
             id="path6"
             d="M 7.436,7.063 C 8.546,7.085 9.445,7.17 10.4,6.118 Q 12.09,4.279 11.919,3.54 L 11.863,3.271 11.731,3.135 11.704,3.669 11.731,3.135 c 0,0 0.237,0.807 -0.722,1.925 C 10.054,6.112 8.979,6.759 7.869,6.738 6.759,6.716 5.388,6.354 5.028,6.615 L 4.734,6.944 C 4.945,6.881 5.157,6.818 5.431,6.89 l 2.005,0.173 z"
             inkscape:connector-curvature="0"
             style="fill:#f6ebd1" />
        </g>
        <g
           id="drawingObject7">
          <path
             id="path7"
             d="M 7.295,1.287 3.958,0.245 C 3.346,1.451 2.623,2.219 1.677,2.548 0.732,2.877 -0.103,3.041 -0.882,3.096 -1.716,3.096 -2.439,2.986 -3.162,2.767 -3.885,2.548 -4.553,2.164 -5.053,1.616 -5.387,1.341 -5.609,1.067 -5.832,0.848 l -0.111,-2.687 -0.056,0 0,-0.329 c 0,-0.219 -0.222,-0.493 -0.333,-0.658 l -0.279,0.055 -0.111,0.055 0.111,0.658 0.056,0.164 0,-0.164 0.111,0.219 0.167,0.548 -0.055,0.055 -0.167,-0.383 0,0.054 -0.167,-0.164 0.055,0.219 -0.055,0.11 0.278,0.164 -0.389,0.439 0.389,0.768 c 0.278,0.383 0.222,0.603 0.111,0.932 -0.723,1.042 -1.001,2.138 -0.834,3.29 0.167,1.151 1.112,2.193 2.837,3.125 1.724,0.932 3.17,1.535 4.449,1.919 1.224,0.329 2.559,0.603 3.949,0.822 1.391,0.165 2.559,0.275 3.449,0.329 1.557,0.11 3.059,-2.138 3.615,-3.015 0.39,-0.549 0.612,-1.7 0.668,-2.577 C 11.578,5.125 10.743,6.77 9.408,7.592 Q 8.463,8.195 7.072,8.14 5.849,8.14 5.014,7.647 C 4.18,7.099 4.18,7.263 3.234,6.989 2.233,6.66 1.733,6.112 1.9,5.618 2.122,5.07 3.679,4.138 4.403,3.315 4.903,2.822 5.849,2.164 7.295,1.287 z"
             inkscape:connector-curvature="0"
             style="fill:#000000;fill-opacity:0.2" />
        </g>
        <g
           id="drawingObject8">
          <path
             id="path8"
             d="M 2.901,2.931 C 3.513,2.273 3.846,1.506 3.791,0.683 2.734,2.109 1.677,2.877 0.62,2.931 -0.492,2.986 -1.549,2.931 -2.606,2.767 -3.663,2.602 -4.441,2.273 -4.942,1.67 -5.109,1.506 -5.276,1.232 -5.442,0.958 c 0.389,-0.494 0.278,-1.426 -0.39,-2.687 l -0.055,0 0,-0.329 c 0,-0.274 -0.223,-0.548 -0.334,-0.713 l -0.223,0.055 -0.111,0.055 0.111,0.713 0.056,0.164 0,-0.164 0.167,0.712 -0.056,0.055 -0.055,-0.384 0,0.055 -0.112,-0.109 0,0.164 -0.055,0.164 0.167,0.11 -0.334,0.494 0.389,0.658 c 0.223,0.493 0.223,0.712 0.167,0.987 -0.501,0.767 -1.112,2.138 -0.779,4.057 0.112,0.603 0.89,1.261 2.281,1.974 1.39,0.658 2.503,1.151 3.337,1.535 0.779,0.384 2.837,0.878 6.174,1.535 L 4.792,10.005 Q 4.069,9.456 4.069,8.634 L 4.236,7.921 c 0,0 -0.779,0.603 -1.669,0.658 C 1.455,8.689 1.01,8.36 -0.158,7.647 -1.215,6.989 -3.162,6.441 -3.051,5.673 -2.94,4.96 -2.55,4.631 -2.05,4.631 -1.549,4.631 -0.715,4.522 0.342,4.247 1.399,3.973 2.289,3.535 2.901,2.931 z"
             inkscape:connector-curvature="0"
             style="fill:#000000;fill-opacity:0.2" />
        </g>
        <g
           id="drawingObject9">
          <path
             id="path9"
             d="m -4.324,4.759 c -0.591,-0.68 -1.641,-0.5 -1.641,-0.5 l 0.624,0.012 -0.624,-0.012 0.68,0.281 c 0.611,0.279 0.803,0.617 1.195,1.093 q 0.39,0.543 0.859,0.887 c 0.122,0.337 1.83,0.905 1.83,0.905 0,0 -0.612,-0.279 -1.417,-0.83 C -3.621,5.977 -3.799,5.372 -4.324,4.759 z"
             inkscape:connector-curvature="0"
             style="fill:#cec2a5" />
        </g>
        <g
           id="drawingObject10">
          <path
             id="path10"
             d="m -0.558,5.836 q 0.75,0.283 1.146,0.692 c 0.736,0.549 0.855,0.953 1.403,1.097 l 0.687,0.148 c 0,0 -1.023,-0.355 -1.337,-1.03 C 0.958,6.067 -0.267,5.575 -1.238,5.556 l 0.68,0.28 z"
             inkscape:connector-curvature="0"
             style="fill:#cec2a5" />
        </g>
      </g>
    </g>
  </g>
</svg>
