<?xml version="1.0" encoding="UTF-8" standalone="no"?>
<!-- Generator: flash2svg, http://dissentgraphics.com/tools/flash2svg -->

<svg
   xmlns:dc="http://purl.org/dc/elements/1.1/"
   xmlns:cc="http://creativecommons.org/ns#"
   xmlns:rdf="http://www.w3.org/1999/02/22-rdf-syntax-ns#"
   xmlns:svg="http://www.w3.org/2000/svg"
   xmlns="http://www.w3.org/2000/svg"
   xmlns:xlink="http://www.w3.org/1999/xlink"
   xmlns:sodipodi="http://sodipodi.sourceforge.net/DTD/sodipodi-0.dtd"
   xmlns:inkscape="http://www.inkscape.org/namespaces/inkscape"
   id="AvatarAssets"
   image-rendering="auto"
   version="1.1"
   x="0px"
   y="0px"
   width="11.487"
   height="12.035968"
   viewBox="0 0 11.487 12.035968"
   inkscape:version="0.48.4 r9939"
   sodipodi:docname="AvatarAssets_pantsLegLowerOffsideB008.svg">
  <metadata
     id="metadata3503">
    <rdf:RDF>
      <cc:Work
         rdf:about="">
        <dc:format>image/svg+xml</dc:format>
        <dc:type
           rdf:resource="http://purl.org/dc/dcmitype/StillImage" />
      </cc:Work>
    </rdf:RDF>
  </metadata>
  <sodipodi:namedview
     pagecolor="#ffffff"
     bordercolor="#666666"
     borderopacity="1"
     objecttolerance="10"
     gridtolerance="10"
     guidetolerance="10"
     inkscape:pageopacity="0"
     inkscape:pageshadow="2"
     inkscape:window-width="640"
     inkscape:window-height="480"
     id="namedview3501"
     showgrid="false"
     fit-margin-top="0"
     fit-margin-left="0"
     fit-margin-right="0"
     fit-margin-bottom="0"
     inkscape:zoom="1.9032258"
     inkscape:cx="38.38"
     inkscape:cy="-53.381723"
     inkscape:window-x="0"
     inkscape:window-y="0"
     inkscape:window-maximized="0"
     inkscape:current-layer="AvatarAssets" />
  <defs
     id="defs3456">
    <pattern
       id="bitmap"
       patternContentUnits="userSpaceOnUse"
       patternUnits="userSpaceOnUse"
       width="200"
       height="199"
       viewBox="0 0 200 199"
       patternTransform="matrix(1 0 0 1 -78.099 12.85)">
      <symbol
         id="Denim_Texture_brown_symbol"
         viewBox="0 0 200 199">
        <image
           sodipodi:absref="C:\Users\Training\Documents\GitHub\Glitchen-Avatar-Engine\glitch-avatars-svg\base_avatar\AvatarAssets.fla\clothing\side\Denim_Texture_brown"
           xlink:href="Denim_Texture_brown"
           height="199"
           width="200"
           id="Denim_Texture_brown" />
      </symbol>
      <use
         id="Denim_Texture_brown_use"
         width="200"
         height="199"
         y="0"
         x="0"
         xlink:href="#Denim_Texture_brown_symbol"
         externalResourcesRequired="true" />
    </pattern>
    <pattern
       id="bitmap1"
       patternContentUnits="userSpaceOnUse"
       patternUnits="userSpaceOnUse"
       width="200"
       height="199"
       viewBox="0 0 200 199"
       patternTransform="matrix(1 0 0 1 -77.749 16.9)">
      <symbol
         id="Denim_Texture_brown_symbol1"
         viewBox="0 0 200 199">
        <image
           sodipodi:absref="C:\Users\Training\Documents\GitHub\Glitchen-Avatar-Engine\glitch-avatars-svg\base_avatar\AvatarAssets.fla\clothing\side\Denim_Texture_brown"
           xlink:href="Denim_Texture_brown"
           height="199"
           width="200"
           id="Denim_Texture_brown1" />
      </symbol>
      <use
         id="Denim_Texture_brown_use1"
         width="200"
         height="199"
         y="0"
         x="0"
         xlink:href="#Denim_Texture_brown_symbol1"
         externalResourcesRequired="true" />
    </pattern>
    <pattern
       id="bitmap2"
       patternContentUnits="userSpaceOnUse"
       patternUnits="userSpaceOnUse"
       width="200"
       height="199"
       viewBox="0 0 200 199"
       patternTransform="matrix(1.12066650390625 0 0 1 -112.999 -97.299)">
      <symbol
         id="symbol3467"
         viewBox="0 0 200 199">
        <image
           sodipodi:absref="C:\Users\Training\Documents\GitHub\Glitchen-Avatar-Engine\glitch-avatars-svg\base_avatar\AvatarAssets.fla\clothing\side\Denim_Texture_brown"
           xlink:href="Denim_Texture_brown"
           height="199"
           width="200"
           id="image3469" />
      </symbol>
      <use
         id="use3471"
         width="200"
         height="199"
         y="0"
         x="0"
         xlink:href="#Denim_Texture_brown_symbol"
         externalResourcesRequired="true" />
    </pattern>
    <pattern
       id="bitmap3"
       patternContentUnits="userSpaceOnUse"
       patternUnits="userSpaceOnUse"
       width="200"
       height="199"
       viewBox="0 0 200 199"
       patternTransform="matrix(1.12066650390625 0 0 1 -112.649 -93.249)">
      <symbol
         id="symbol3474"
         viewBox="0 0 200 199">
        <image
           sodipodi:absref="C:\Users\Training\Documents\GitHub\Glitchen-Avatar-Engine\glitch-avatars-svg\base_avatar\AvatarAssets.fla\clothing\side\Denim_Texture_brown"
           xlink:href="Denim_Texture_brown"
           height="199"
           width="200"
           id="image3476" />
      </symbol>
      <use
         id="use3478"
         width="200"
         height="199"
         y="0"
         x="0"
         xlink:href="#Denim_Texture_brown_symbol1"
         externalResourcesRequired="true" />
    </pattern>
  </defs>
  <g
     id="pantsLegLowerOffsideB9"
     overflow="visible"
     style="overflow:visible"
     transform="translate(6.38,3.4176912)">
    <g
       id="pantsLegLowerOffsideB008_0">
      <g
         id="element">
        <g
           id="drawingObject">
          <path
             id="path"
             d="m 3.37,-1.199 c -0.224,-0.95 -1.961,-2.4 -4.314,-2.2 q -1.065,0.1 -2.242,0.6 -1.232,0.6 -1.569,1.2 c -0.504,0.85 -0.28,2.2 -0.448,3.75 -0.112,1.55 -0.728,3.4 -0.728,3.4 l 0.896,0.95 -0.896,-0.95 c 0,0 1.12,1.85 3.866,2.1 2.69,0.2 3.866,-0.35 4.819,-1 0.952,-0.65 1.121,-1.45 1.121,-1.45 0,0 -0.617,-3.4 -0.561,-4.5 0.056,-1.1 0.112,-1.65 0.056,-1.9 z"
             inkscape:connector-curvature="0"
             style="fill:url(#bitmap2)" />
        </g>
        <g
           id="drawingObject1">
          <path
             id="path1"
             d="m -1.236,-1.799 c -0.505,-0.7 -0.729,-1.1 -0.785,-1.4 -1.12,0.3 -2.353,0.95 -2.745,1.6 -0.505,0.85 -0.281,2.2 -0.449,3.75 -0.112,1.55 -0.728,3.4 -0.728,3.4 l 0.896,0.95 -0.896,-0.95 c 0,0 1.121,1.85 3.866,2.1 2.69,0.2 3.867,-0.35 4.819,-1 0.953,-0.65 1.121,-1.45 1.121,-1.45 0,0 -0.505,-2.7 -0.561,-4.05 -0.168,1 0.112,2.5 -1.849,3.15 q -2.241,0.7 -3.194,-2.2 c -0.336,-1 -0.224,-1.55 0.729,-1.7 0.952,-0.15 2.97,0.05 2.97,0.05 l -0.673,-0.2 c -0.616,-0.15 -1.513,-0.65 -2.521,-2.05 z"
             inkscape:connector-curvature="0"
             style="fill:#000000;fill-opacity:0.2" />
        </g>
        <g
           id="drawingObject2">
          <path
             id="path2"
             d="m -2.133,-0.749 -0.056,-1.5 q 0,1.65 -0.448,2.8 c -0.448,1.1 -0.56,2.2 -0.616,3.45 -0.113,1.25 0.056,1.55 0.056,1.55 0,0 0.28,-2.95 0.448,-3.75 0.224,-0.8 0.616,-1.85 0.616,-2.55 z"
             inkscape:connector-curvature="0"
             style="fill:#000000;fill-opacity:0.2" />
        </g>
        <g
           id="drawingObject3">
          <path
             id="path3"
             d="m -2.245,2.101 c 0.28,-1.85 0.504,-3.8 0.168,-4.1 q 0.168,1.75 -0.224,2.95 c -0.392,1.2 -0.28,3.1 -0.28,3.65 0,0.55 0.392,1.35 0.84,1.65 0.505,0.3 1.625,0.5 2.466,0.3 -0.056,0 -0.168,0 -0.28,0 -0.841,0 -1.513,-0.2 -1.905,-0.65 -0.897,-1.05 -1.065,-2.3 -0.785,-3.8 z"
             inkscape:connector-curvature="0"
             style="fill:#ffffff;fill-opacity:0.2" />
        </g>
        <g
           id="drawingObject4">
          <path
             id="path4"
             d="m -3.534,-1.349 c -0.112,-0.4 0.056,-0.95 0.224,-1.4 -0.672,0.35 -1.232,0.75 -1.456,1.15 -0.505,0.85 -0.281,2.2 -0.449,3.75 -0.112,1.55 -0.728,3.4 -0.728,3.4 0,0 0.448,0.75 1.513,1.35 l 0,-0.05 c -0.112,-0.35 0.224,-0.75 0.952,-0.65 l 1.625,0.45 -1.008,-0.55 q -0.617,-0.3 -0.841,-0.65 -0.168,-0.4 -0.28,-0.6 c -0.224,-0.45 -0.112,-1.5 -0.056,-2.3 l 0.336,-2.55 0.561,-0.6 c 0.056,-0.05 -0.225,-0.2 -0.393,-0.75 z"
             inkscape:connector-curvature="0"
             style="fill:#000000;fill-opacity:0.25099996" />
        </g>
        <g
           id="drawingObject5">
          <path
             id="path5"
             d="m 3.762,4.401 -0.056,-0.6 c 0,0 -0.448,0.95 -2.129,1.65 q -1.289,0.5 -2.129,0.55 -1.009,0.05 -3.026,-0.45 c -1.737,-0.4 -2.129,-1.2 -2.129,-1.2 l -0.112,0.45 c -0.056,0.45 -0.561,0.95 -0.561,0.95 l 0.225,0.55 c 0.224,0.6 1.737,1.85 3.137,2.05 1.401,0.15 3.923,0.9 6.052,-1.1 0.841,-0.8 2.073,-1.4 2.073,-1.4 0,0 -0.504,-0.2 -0.952,-0.6 -0.393,-0.4 -0.449,-1.45 -0.449,-1.45"
             inkscape:connector-curvature="0"
             style="fill:url(#bitmap3)" />
        </g>
        <g
           id="drawingObject6">
          <path
             id="path6"
             d="m -5.707,4.351 c 0,0 0.168,0.75 2.017,1.4 q 2.297,0.8 3.586,0.6 c 0.56,-0.1 1.345,-0.4 2.073,-0.8 0.729,-0.4 1.793,-1.25 1.737,-1.75 0,0 -0.448,0.95 -2.129,1.65 -1.625,0.65 -2.297,0.8 -5.155,0.1 -1.737,-0.4 -2.129,-1.2 -2.129,-1.2 z"
             inkscape:connector-curvature="0"
             style="fill:#d6e4e4;fill-opacity:0.25099996" />
        </g>
        <g
           id="drawingObject7">
          <path
             id="path7"
             d="m 3.034,7.251 c 0.841,-0.8 2.073,-1.4 2.073,-1.4 l -0.056,0 c -0.784,0.1 -2.297,1 -2.857,1.5 -0.673,0.55 -1.345,0.55 -1.401,0.1 q -0.056,-0.3 0.784,-0.9 0.392,-0.3 0.785,-0.55 l -0.729,0.4 c -0.56,0.3 -1.289,0.55 -2.297,0.5 -0.897,0 -2.185,-0.85 -2.466,-1.25 l -0.448,-0.1 c -1.737,-0.4 -2.129,-1.2 -2.129,-1.2 l -0.112,0.45 c -0.056,0.45 -0.561,0.95 -0.561,0.95 l 0.225,0.55 c 0.224,0.6 1.737,1.85 3.137,2.05 1.401,0.15 3.923,0.9 6.052,-1.1 z"
             inkscape:connector-curvature="0"
             style="fill:#000000;fill-opacity:0.2" />
        </g>
        <g
           id="drawingObject8">
          <path
             id="path8"
             d="m -3.018,8.351 c 0.785,0.1 2.018,0.4 3.25,0.2 q -1.569,0 -3.306,-0.85 c -1.232,-0.6 -1.4,-1.6 -1.344,-2.4 -1.009,-0.45 -1.289,-0.95 -1.289,-0.95 l -0.112,0.45 c -0.056,0.45 -0.561,0.95 -0.561,0.95 l 0.225,0.55 c 0.224,0.6 1.737,1.85 3.137,2.05 z"
             inkscape:connector-curvature="0"
             style="fill:#000000;fill-opacity:0.2" />
        </g>
      </g>
    </g>
  </g>
</svg>
