<?xml version="1.0" encoding="UTF-8" standalone="no"?>
<!-- Generator: flash2svg, http://dissentgraphics.com/tools/flash2svg -->

<svg
   xmlns:dc="http://purl.org/dc/elements/1.1/"
   xmlns:cc="http://creativecommons.org/ns#"
   xmlns:rdf="http://www.w3.org/1999/02/22-rdf-syntax-ns#"
   xmlns:svg="http://www.w3.org/2000/svg"
   xmlns="http://www.w3.org/2000/svg"
   xmlns:sodipodi="http://sodipodi.sourceforge.net/DTD/sodipodi-0.dtd"
   xmlns:inkscape="http://www.inkscape.org/namespaces/inkscape"
   id="AvatarAssets"
   image-rendering="auto"
   version="1.1"
   x="0px"
   y="0px"
   width="7.0051045"
   height="6.5730824"
   viewBox="0 0 7.0051045 6.5730824"
   inkscape:version="0.48.4 r9939"
   sodipodi:docname="AvatarAssets_sockOffsideA002.svg">
  <metadata
     id="metadata3368">
    <rdf:RDF>
      <cc:Work
         rdf:about="">
        <dc:format>image/svg+xml</dc:format>
        <dc:type
           rdf:resource="http://purl.org/dc/dcmitype/StillImage" />
      </cc:Work>
    </rdf:RDF>
  </metadata>
  <sodipodi:namedview
     pagecolor="#ffffff"
     bordercolor="#666666"
     borderopacity="1"
     objecttolerance="10"
     gridtolerance="10"
     guidetolerance="10"
     inkscape:pageopacity="0"
     inkscape:pageshadow="2"
     inkscape:window-width="640"
     inkscape:window-height="480"
     id="namedview3366"
     showgrid="false"
     fit-margin-top="0"
     fit-margin-left="0"
     fit-margin-right="0"
     fit-margin-bottom="0"
     inkscape:zoom="1.9032258"
     inkscape:cx="36.219104"
     inkscape:cy="-59.703917"
     inkscape:window-x="0"
     inkscape:window-y="0"
     inkscape:window-maximized="0"
     inkscape:current-layer="AvatarAssets" />
  <defs
     id="defs3337" />
  <g
     id="sockOffsideA3"
     overflow="visible"
     style="overflow:visible"
     transform="translate(4.2191044,4.277)">
    <g
       id="sockOffsideA002_0">
      <g
         id="element">
        <g
           id="drawingObject">
          <path
             id="path"
             d="m 2.695,-2.587 0.091,-0.57 c 0,0 -1.147,0.619 -3.776,0.228 -0.545,-0.089 -0.983,-0.271 -1.375,-0.4 l 0.431,0.282 0.488,0.186 0.691,0.15 c 1.243,0.14 2.144,0.155 2.144,0.155 l -0.873,0.288 c 0.955,-0.031 1.771,-0.223 2.199,-0.593 l -0.02,0.274 z m -0.091,0.57 0.05,-0.347 0.025,10e-4 c -0.977,0.331 -1.835,0.419 -2.833,0.347 -0.417,0.221 -0.734,0.448 -0.905,0.737 1.489,0.208 3.01,-0.033 3.663,-0.738 z"
             inkscape:connector-curvature="0"
             style="fill:#ded8d7" />
        </g>
        <g
           id="drawingObject1">
          <path
             id="path3"
             d="M 2.567,-1.518 C 1.22,-0.914 0.316,-0.879 -1.081,-0.98 q 0.053,0.655 0.975,1.073 0.969,0.471 1.6,0.066 c 0.527,-0.363 0.805,-0.744 0.98,-1.083 l 0.093,-0.594 z"
             inkscape:connector-curvature="0"
             style="fill:#ded8d7" />
        </g>
        <g
           id="drawingObject2">
          <path
             id="path4"
             d="m -0.154,-2.016 c 0.998,0.072 1.856,-0.016 2.833,-0.347 l 0.036,-0.498 c -0.428,0.37 -1.244,0.562 -2.199,0.593 l -0.67,0.252 z"
             inkscape:connector-curvature="0"
             style="fill:#b33120" />
        </g>
        <g
           id="drawingObject3">
          <path
             id="path5"
             d="m -1.059,-1.279 -0.022,0.299 q 2.095,0.151 3.648,-0.538 l 0.037,-0.499 c -0.653,0.705 -2.174,0.946 -3.663,0.738 z"
             inkscape:connector-curvature="0"
             style="fill:#b33120" />
        </g>
        <g
           id="drawingObject4">
          <path
             id="path6"
             d="m -1.771,-2.534 c 0.738,0.204 1.536,0.262 2.287,0.266 l 0.873,-0.288 c 0,0 -0.901,-0.015 -2.144,-0.155 l -0.691,-0.15 -0.325,0.327 z"
             inkscape:connector-curvature="0"
             style="fill:#c2bdbc" />
        </g>
        <g
           id="drawingObject5">
          <path
             id="path7"
             d="m 2.374,-0.229 0.014,-0.199 0.086,-0.496 c -0.175,0.339 -0.453,0.72 -0.98,1.083 Q 0.863,0.564 -0.106,0.093 -1.028,-0.325 -1.081,-0.98 l -0.548,-0.04 -0.738,-0.203 c -0.054,1.449 1.113,2.637 2.802,2.157 L 2.178,0.408 2.374,-0.229 z"
             inkscape:connector-curvature="0"
             style="fill:#c2bdbc" />
        </g>
        <g
           id="drawingObject6">
          <path
             id="path8"
             d="m -1.059,-1.279 c 0.171,-0.289 0.488,-0.516 0.905,-0.737 l -1.542,-0.161 -0.296,-0.072 c -0.164,0.189 -0.232,0.434 -0.299,0.68 l 1.232,0.29 z"
             inkscape:connector-curvature="0"
             style="fill:#c2bdbc" />
        </g>
        <g
           id="drawingObject7">
          <path
             id="path9"
             d="m -1.696,-2.177 1.542,0.161 0.67,-0.252 c -0.751,-0.004 -1.549,-0.062 -2.287,-0.266 -0.103,0.043 -0.16,0.139 -0.221,0.285 l 0.296,0.072 z"
             inkscape:connector-curvature="0"
             style="fill:#99291c" />
        </g>
        <g
           id="drawingObject8">
          <path
             id="path10"
             d="m -1.081,-0.98 0.022,-0.299 -1.232,-0.29 -0.068,0.246 -0.008,0.1 0.738,0.203 0.548,0.04 z"
             inkscape:connector-curvature="0"
             style="fill:#99291c" />
        </g>
        <g
           id="drawingObject9">
          <path
             id="path11"
             d="M 1.183,1.69 1.557,1.366 1.892,0.889 1.946,0.843 2.178,0.408 0.435,0.934 c -1.689,0.48 -2.856,-0.708 -2.802,-2.157 q -1.079,-0.329 -1.737,-0.928 l 0.082,-0.445 c 0.417,0.481 1.043,0.827 1.731,1.027 0.067,-0.246 0.135,-0.491 0.299,-0.68 -0.737,-0.204 -1.417,-0.503 -1.876,-1.088 l 0.09,-0.545 c 0.405,0.631 1.124,1.084 2.007,1.348 L -1.446,-2.861 -1.934,-3.047 -2.365,-3.329 -3.234,-3.793 -3.28,-3.846 -3.515,-4.063 -3.7,-4.277 c 0,0 -0.59,2.614 -0.512,3.622 0.024,1.054 0.589,2.248 1.408,2.709 0.819,0.46 2.493,0.18 3.57,-0.143 L 1.183,1.69 z"
             inkscape:connector-curvature="0"
             style="fill:#a39f9e" />
        </g>
        <g
           id="drawingObject10">
          <path
             id="path12"
             d="m -1.771,-2.534 c -0.883,-0.264 -1.602,-0.717 -2.007,-1.348 l -0.09,0.545 c 0.459,0.585 1.139,0.884 1.876,1.088 0.061,-0.146 0.118,-0.242 0.221,-0.285 z"
             inkscape:connector-curvature="0"
             style="fill:#7a2117" />
        </g>
        <g
           id="drawingObject11">
          <path
             id="path13"
             d="m -2.359,-1.323 0.068,-0.246 Q -3.42,-1.901 -4.022,-2.596 l -0.082,0.445 c 0.377,0.328 1.15,0.735 1.737,0.928 l 0.008,-0.1 z"
             inkscape:connector-curvature="0"
             style="fill:#7a2117" />
        </g>
      </g>
    </g>
  </g>
</svg>
