<?xml version="1.0" encoding="UTF-8" standalone="no"?>
<!-- Generator: flash2svg, http://dissentgraphics.com/tools/flash2svg -->

<svg
   xmlns:dc="http://purl.org/dc/elements/1.1/"
   xmlns:cc="http://creativecommons.org/ns#"
   xmlns:rdf="http://www.w3.org/1999/02/22-rdf-syntax-ns#"
   xmlns:svg="http://www.w3.org/2000/svg"
   xmlns="http://www.w3.org/2000/svg"
   xmlns:xlink="http://www.w3.org/1999/xlink"
   xmlns:sodipodi="http://sodipodi.sourceforge.net/DTD/sodipodi-0.dtd"
   xmlns:inkscape="http://www.inkscape.org/namespaces/inkscape"
   id="Avatar"
   image-rendering="optimizeQuality"
   version="1.1"
   x="0px"
   y="0px"
   width="68"
   height="126"
   viewBox="0 0 68 126"
   inkscape:version="0.48.4 r9939"
   sodipodi:docname="Avatar_sideLegUpperOffside.svg">
  <metadata
     id="metadata20">
    <rdf:RDF>
      <cc:Work
         rdf:about="">
        <dc:format>image/svg+xml</dc:format>
        <dc:type
           rdf:resource="http://purl.org/dc/dcmitype/StillImage" />
      </cc:Work>
    </rdf:RDF>
  </metadata>
  <sodipodi:namedview
     pagecolor="#ffffff"
     bordercolor="#666666"
     borderopacity="1"
     objecttolerance="10"
     gridtolerance="10"
     guidetolerance="10"
     inkscape:pageopacity="0"
     inkscape:pageshadow="2"
     inkscape:window-width="640"
     inkscape:window-height="480"
     id="namedview18"
     showgrid="false"
     inkscape:zoom="1.8730159"
     inkscape:cx="34"
     inkscape:cy="63"
     inkscape:window-x="0"
     inkscape:window-y="0"
     inkscape:window-maximized="0"
     inkscape:current-layer="Avatar" />
  <defs
     id="defs3">
    <pattern
       id="bitmap"
       patternContentUnits="userSpaceOnUse"
       patternUnits="userSpaceOnUse"
       width="200"
       height="200"
       viewBox="0 0 200 200"
       patternTransform="matrix(1 0 0 1 -75.699 -12.899)">
      <image
         sodipodi:absref="F:\EveryStuff\Glitch\_public.domain\glitch-avatars-master\glitch-avatars-master\base_avatar\Avatar_Texture"
         xlink:href="Avatar_Texture"
         height="200"
         width="200"
         id="Avatar_Texture" />
    </pattern>
  </defs>
  <g
     id="sideLegUpperOffside1"
     overflow="visible"
     transform="translate(5.8728811,2.1355935)"
     style="overflow:visible">
    <g
       id="sideLegUpperOffside_0">
      <g
         id="element">
        <g
           id="drawingObject"
           transform="matrix(1.2284393,0,0,1.0048676,-29.899,-81.099)">
          <path
             id="path"
             d="m 27.65,84.75 q -0.75,-4.05 -3.35,-4.9 -1.45,-0.4 -2.9,1.85 -0.55,0.85 -0.6,3.4 0,1.4 -0.05,3.9 -0.4,4.15 2.7,5.2 1.75,0.6 2.7,-0.15 1,-0.8 1.5,-3.1 0.6,-3.1 0,-6.2 z"
             inkscape:connector-curvature="0"
             style="fill:url(#bitmap)" />
        </g>
        <g
           id="drawingObject1"
           transform="matrix(1.2284393,0,0,1.0048676,-29.899,-81.099)">
          <path
             id="path1"
             d="m 21.4,81.7 q -0.55,0.85 -0.6,3.4 0,1.4 -0.05,3.9 -0.4,3.9 2.45,5.1 -0.5,-2.5 0.8,-5.75 0.35,-1 1.8,-1.1 1.1,-0.05 2.15,0.4 0,-2.75 -0.75,-4.7 -0.95,-2.45 -2.9,-3.1 -1.45,-0.4 -2.9,1.85 z"
             inkscape:connector-curvature="0"
             style="fill:#000000;fill-opacity:0.2" />
        </g>
        <g
           id="drawingObject2"
           transform="matrix(1,0,0,0.85546875,-45.599,-82.399)">
          <path
             id="path2"
             d="m 43.85,95.65 q -1.251953,0.681055 -1.85,1.725 -0.595703,1.046484 -0.7,5.025 -0.105078,3.98398 -0.125,5.5 -0.02305,1.50469 0.875,2.7 0.35,-1.65 0.75,-4.9 0.25,-2.5 2.65,-3.8 2.6,-1.35 4.4,0.85 -1.001758,-6.082227 -2.875,-6.925 -1.870703,-0.850781 -3.125,-0.175 z"
             inkscape:connector-curvature="0"
             style="fill:#000000;fill-opacity:0.2" />
        </g>
        <g
           id="drawingObject3"
           transform="matrix(1,0,0,0.85546875,-45.599,-82.399)">
          <path
             id="path3"
             d="m 45.5,95.3 q -1.8,-0.5 -3.6,2.15 -0.65,1 -0.7,4 0,1.6 -0.1,4.55 -0.5,4.9 3.3,6.15 2.15,0.65 3.35,-0.2 1.2,-0.95 1.85,-3.65 0.7,-3.65 0,-7.3 -0.95,-4.75 -4.1,-5.7 z"
             inkscape:connector-curvature="0"
             style="fill:#000000;fill-opacity:0.08600003" />
        </g>
      </g>
    </g>
  </g>
</svg>
