<?xml version="1.0" encoding="UTF-8" standalone="no"?>
<!-- Generator: flash2svg, http://dissentgraphics.com/tools/flash2svg -->

<svg
   xmlns:dc="http://purl.org/dc/elements/1.1/"
   xmlns:cc="http://creativecommons.org/ns#"
   xmlns:rdf="http://www.w3.org/1999/02/22-rdf-syntax-ns#"
   xmlns:svg="http://www.w3.org/2000/svg"
   xmlns="http://www.w3.org/2000/svg"
   xmlns:xlink="http://www.w3.org/1999/xlink"
   xmlns:sodipodi="http://sodipodi.sourceforge.net/DTD/sodipodi-0.dtd"
   xmlns:inkscape="http://www.inkscape.org/namespaces/inkscape"
   id="Avatar"
   image-rendering="optimizeQuality"
   version="1.1"
   x="0px"
   y="0px"
   width="20.536978"
   height="42.722004"
   viewBox="0 0 20.536978 42.722004"
   inkscape:version="0.48.4 r9939"
   sodipodi:docname="Avatar_sideTorso.svg">
  <metadata
     id="metadata40">
    <rdf:RDF>
      <cc:Work
         rdf:about="">
        <dc:format>image/svg+xml</dc:format>
        <dc:type
           rdf:resource="http://purl.org/dc/dcmitype/StillImage" />
      </cc:Work>
    </rdf:RDF>
  </metadata>
  <sodipodi:namedview
     pagecolor="#ffffff"
     bordercolor="#666666"
     borderopacity="1"
     objecttolerance="10"
     gridtolerance="10"
     guidetolerance="10"
     inkscape:pageopacity="0"
     inkscape:pageshadow="2"
     inkscape:window-width="640"
     inkscape:window-height="480"
     id="namedview38"
     showgrid="false"
     inkscape:zoom="1.8730159"
     inkscape:cx="31.936147"
     inkscape:cy="29.755665"
     inkscape:window-x="0"
     inkscape:window-y="0"
     inkscape:window-maximized="0"
     inkscape:current-layer="Avatar"
     fit-margin-top="0"
     fit-margin-left="0"
     fit-margin-right="0"
     fit-margin-bottom="0" />
  <defs
     id="defs3">
    <symbol
       id="sideTorso"
       viewBox="-59.35 -89.55 120.45 142.6">
      <g
         id="sideTorso_0">
        <g
           id="element">
          <g
             id="drawingObject">
            <path
               id="path"
               d="m -1.549,-39.449 0.15,1.55 q 0.1,1.7 -0.2,2.4 l -0.5,1.25 q -0.65,1.4 -1.5,2.2 -1.05,1 -2.1,4.05 -1.15,3.15 -1.2,5.5 -0.05,3.25 -2.1,14.2 -0.75,5.55 0.65,7.35 2.4,2.95 8.25,3.8 3.7,0.5 6.35,-0.45 2.8,-1 3.7,-3.35 1.05,-2.75 1.2,-5.5 0.2,-3.85 -0.85,-10.8 -0.7,-4.7 -3.2,-9.15 -2.35,-4.15 -2.55,-7.1 -0.1,-1.6 0.25,-3.55 l 0.35,-1.65 -6.7,-0.75 z"
               inkscape:connector-curvature="0"
               style="fill:url(#bitmap1)" />
          </g>
          <g
             id="drawingObject1">
            <path
               id="path1"
               d="m 2.401,-15.499 1.55,-1.75 q -1.15,-0.45 -1.8,-1.1 -1,-1 -1.35,-3.8 -0.4,-2.75 -1.25,-4.2 -0.85,-1.45 -1.9,-1.25 -1.8,0.35 -2.4,-0.15 -0.25,-0.2 -0.5,0.35 l -0.6,-0.05 q -0.95,2.85 -1.05,5.05 -0.05,3.25 -2.1,14.2 -0.75,5.55 0.65,7.35 2.4,2.95 8.25,3.8 3.7,0.5 6.35,-0.45 2.8,-1 3.7,-3.35 0.6,-1.7 0.85,-2.75 -0.85,1.95 -1.55,2.45 -1.25,0.9 -4.15,0.3 -3.95,-0.8 -4.8,-4.6 -0.5,-2.25 0.15,-6 0.3,-1.95 1.95,-4.05 z"
               inkscape:connector-curvature="0"
               style="fill:#000000;fill-opacity:0.2" />
          </g>
          <g
             id="drawingObject2">
            <path
               id="path2"
               d="m -1.599,-14.149 q 0.4,-1.85 1.1,-7.6 0.25,-2 -0.8,-4.4 -0.8,-1.8 -1.6,-2.55 -0.9,-0.85 -0.95,-0.85 -0.45,-0.25 -1.25,0.1 -1.65,3.85 -1.8,7.05 -0.05,3.25 -2.1,14.2 -0.75,5.55 0.65,7.35 2.4,2.95 8.25,3.8 6.4,0.9 9.1,-2.2 -2.3,1.4 -5.3,0.25 -3.2,-1.25 -4.6,-4.45 -2,-4.55 -0.7,-10.7 z"
               inkscape:connector-curvature="0"
               style="fill:#000000;fill-opacity:0.2" />
          </g>
          <g
             id="drawingObject3">
            <path
               id="path3"
               d="m -1.549,-39.449 0.15,1.55 q 0.1,1.7 -0.2,2.4 l -0.5,1.25 q -0.65,1.4 -1.5,2.2 -1.05,1 -2.1,4.05 -1.15,3.15 -1.2,5.5 -0.05,3.25 -2.1,14.2 -0.75,5.55 0.65,7.35 2.4,2.95 8.25,3.8 3.7,0.5 6.35,-0.45 2.8,-1 3.7,-3.35 1.05,-2.75 1.2,-5.5 0.2,-3.85 -0.85,-10.8 -0.7,-4.7 -3.2,-9.15 -2.35,-4.15 -2.55,-7.1 -0.1,-1.6 0.25,-3.55 l 0.35,-1.65 -6.7,-0.75 z"
               inkscape:connector-curvature="0"
               style="fill:url(#linearGradient1)" />
          </g>
        </g>
      </g>
    </symbol>
    <pattern
       id="bitmap"
       patternContentUnits="userSpaceOnUse"
       patternUnits="userSpaceOnUse"
       width="200"
       height="200"
       viewBox="0 0 200 200"
       patternTransform="matrix(1 0 0 1 -79.649 -33.249)">
      <symbol
         id="Avatar_Texture_symbol"
         viewBox="0 0 200 200">
        <image
           sodipodi:absref="C:\Users\Training\Documents\GitHub\Glitchen-Avatar-Engine\glitch-avatars-svg\base_avatar\Avatar.fla\body parts\side\Avatar_Texture"
           xlink:href="Avatar_Texture"
           id="Avatar_Texture"
           width="200"
           height="200" />
      </symbol>
      <use
         id="Avatar_Texture_use"
         width="200"
         height="200"
         y="0"
         x="0"
         xlink:href="#Avatar_Texture_symbol"
         externalResourcesRequired="true" />
    </pattern>
    <linearGradient
       gradientUnits="userSpaceOnUse"
       color-interpolation="sRGB"
       x1="25.924999"
       y1="48.112499"
       x2="23.674999"
       y2="59.587502"
       id="linearGradient">
      <stop
         stop-color="#000"
         stop-opacity="1"
         offset="0"
         id="stop21" />
      <stop
         stop-color="#000"
         stop-opacity="0"
         offset="1"
         id="stop23" />
    </linearGradient>
    <pattern
       id="bitmap1"
       patternContentUnits="userSpaceOnUse"
       patternUnits="userSpaceOnUse"
       width="200"
       height="200"
       viewBox="0 0 200 200"
       patternTransform="matrix(1 0 0 1 -98.949 -118.149)">
      <symbol
         id="symbol26"
         viewBox="0 0 200 200">
        <image
           sodipodi:absref="C:\Users\Training\Documents\GitHub\Glitchen-Avatar-Engine\glitch-avatars-svg\base_avatar\Avatar.fla\body parts\side\Avatar_Texture"
           xlink:href="Avatar_Texture"
           id="image28"
           width="200"
           height="200" />
      </symbol>
      <use
         id="use30"
         width="200"
         height="200"
         y="0"
         x="0"
         xlink:href="#Avatar_Texture_symbol"
         externalResourcesRequired="true" />
    </pattern>
    <linearGradient
       gradientUnits="userSpaceOnUse"
       color-interpolation="sRGB"
       x1="6.526"
       y1="-36.886002"
       x2="4.276"
       y2="-25.410999"
       id="linearGradient1">
      <stop
         stop-color="#000"
         stop-opacity="1"
         offset="0"
         id="stop33" />
      <stop
         stop-color="#000"
         stop-opacity="0"
         offset="1"
         id="stop35" />
    </linearGradient>
  </defs>
  <use
     xlink:href="#sideTorso"
     id="sideTorso1"
     width="121"
     height="143"
     x="-60"
     y="-90"
     overflow="visible"
     transform="translate(9.6819093,39.758464)"
     style="overflow:visible" />
</svg>
