<?xml version="1.0" encoding="UTF-8" standalone="no"?>
<!-- Generator: flash2svg, http://dissentgraphics.com/tools/flash2svg -->

<svg
   xmlns:dc="http://purl.org/dc/elements/1.1/"
   xmlns:cc="http://creativecommons.org/ns#"
   xmlns:rdf="http://www.w3.org/1999/02/22-rdf-syntax-ns#"
   xmlns:svg="http://www.w3.org/2000/svg"
   xmlns="http://www.w3.org/2000/svg"
   xmlns:xlink="http://www.w3.org/1999/xlink"
   xmlns:sodipodi="http://sodipodi.sourceforge.net/DTD/sodipodi-0.dtd"
   xmlns:inkscape="http://www.inkscape.org/namespaces/inkscape"
   id="Avatar"
   image-rendering="optimizeQuality"
   version="1.1"
   x="0px"
   y="0px"
   width="9.6048489"
   height="17.285345"
   viewBox="0 0 9.6048489 17.285345"
   inkscape:version="0.48.4 r9939"
   sodipodi:docname="Avatar_sideLegUpperClose.svg">
  <metadata
     id="metadata21">
    <rdf:RDF>
      <cc:Work
         rdf:about="">
        <dc:format>image/svg+xml</dc:format>
        <dc:type
           rdf:resource="http://purl.org/dc/dcmitype/StillImage" />
      </cc:Work>
    </rdf:RDF>
  </metadata>
  <sodipodi:namedview
     pagecolor="#ffffff"
     bordercolor="#666666"
     borderopacity="1"
     objecttolerance="10"
     gridtolerance="10"
     guidetolerance="10"
     inkscape:pageopacity="0"
     inkscape:pageshadow="2"
     inkscape:window-width="640"
     inkscape:window-height="480"
     id="namedview19"
     showgrid="false"
     inkscape:zoom="1.8730159"
     inkscape:cx="32.929452"
     inkscape:cy="-44.067468"
     inkscape:window-x="0"
     inkscape:window-y="0"
     inkscape:window-maximized="0"
     inkscape:current-layer="Avatar"
     fit-margin-top="0"
     fit-margin-left="0"
     fit-margin-right="0"
     fit-margin-bottom="0" />
  <defs
     id="defs3">
    <pattern
       id="bitmap"
       patternContentUnits="userSpaceOnUse"
       patternUnits="userSpaceOnUse"
       width="200"
       height="200"
       viewBox="0 0 200 200"
       patternTransform="matrix(1 0 0 1 -82.849 -8.899)">
      <image
         sodipodi:absref="C:\Users\Training\Documents\GitHub\Glitchen-Avatar-Engine\glitch-avatars-svg\base_avatar\Avatar.fla\body parts\side\Avatar_Texture"
         xlink:href="Avatar_Texture"
         id="Avatar_Texture"
         width="200"
         height="200" />
    </pattern>
    <pattern
       id="bitmap1"
       patternContentUnits="userSpaceOnUse"
       patternUnits="userSpaceOnUse"
       width="200"
       height="200"
       viewBox="0 0 200 200"
       patternTransform="matrix(1 0 0 1 -99.899 -93.899)">
      <image
         sodipodi:absref="C:\Users\Training\Documents\GitHub\Glitchen-Avatar-Engine\glitch-avatars-svg\base_avatar\Avatar.fla\body parts\side\Avatar_Texture"
         xlink:href="Avatar_Texture"
         id="image8"
         width="200"
         height="200" />
    </pattern>
  </defs>
  <g
     id="sideLegUpperClose1"
     overflow="visible"
     transform="translate(4.8023333,2.624)"
     style="overflow:visible">
    <g
       id="sideLegUpperClose_0">
      <g
         id="element">
        <g
           id="drawingObject">
          <path
             id="path"
             d="m 4.001,2.601 q -1.4,-4.65 -4.85,-5.2 -0.9,-0.15 -1.85,0.6 -0.95,0.75 -1.7,2.1 -0.55,1.1 -0.35,4.1 0.3,4.65 0.3,4.7 -0.05,2.1 0.85,3.6 1.05,1.7 3.2,2.05 2.3,0.4 3.5,-0.65 1.2,-1.1 1.55,-3.95 0.5,-3.7 -0.65,-7.35 z"
             inkscape:connector-curvature="0"
             style="fill:url(#bitmap1)" />
        </g>
        <g
           id="drawingObject1">
          <path
             id="path1"
             d="m -2.699,-1.999 q -0.95,0.75 -1.7,2.1 -0.55,1.1 -0.35,4.1 0.3,4.65 0.3,4.7 -0.05,1.8 0.6,3.1 0.75,1.55 2.25,2.2 0.8,-1.3 0.95,-2 0.1,-0.7 -0.55,-4.35 -0.65,-3.65 -0.15,-5.85 0.8,-3.35 2.45,-3.8 -0.9,-0.65 -1.95,-0.8 -0.9,-0.15 -1.85,0.6 z"
             inkscape:connector-curvature="0"
             style="fill:#000000;fill-opacity:0.2" />
        </g>
        <g
           id="drawingObject2">
          <path
             id="path2"
             d="m -2.699,-1.999 q -0.95,0.75 -1.7,2.1 -0.55,1.1 -0.35,4.1 0.3,4.65 0.3,4.7 0,2.25 0.85,3.6 0.95,-2.2 0.6,-3.8 -0.65,-2 -0.9,-3.2 -0.4,-2.2 0.5,-4.85 0.9,-2.4 3.15,-3.1 l -0.6,-0.15 q -0.9,-0.15 -1.85,0.6 z"
             inkscape:connector-curvature="0"
             style="fill:#000000;fill-opacity:0.2" />
        </g>
      </g>
    </g>
  </g>
</svg>
