<?xml version="1.0" encoding="UTF-8" standalone="no"?>
<!-- Generator: flash2svg, http://dissentgraphics.com/tools/flash2svg -->

<svg
   xmlns:dc="http://purl.org/dc/elements/1.1/"
   xmlns:cc="http://creativecommons.org/ns#"
   xmlns:rdf="http://www.w3.org/1999/02/22-rdf-syntax-ns#"
   xmlns:svg="http://www.w3.org/2000/svg"
   xmlns="http://www.w3.org/2000/svg"
   xmlns:xlink="http://www.w3.org/1999/xlink"
   xmlns:sodipodi="http://sodipodi.sourceforge.net/DTD/sodipodi-0.dtd"
   xmlns:inkscape="http://www.inkscape.org/namespaces/inkscape"
   id="Avatar"
   image-rendering="optimizeQuality"
   version="1.1"
   x="0px"
   y="0px"
   width="50.135563"
   height="53.359001"
   viewBox="0 0 50.135563 53.359001"
   inkscape:version="0.48.4 r9939"
   sodipodi:docname="Avatar_sideSkull.svg">
  <metadata
     id="metadata31">
    <rdf:RDF>
      <cc:Work
         rdf:about="">
        <dc:format>image/svg+xml</dc:format>
        <dc:type
           rdf:resource="http://purl.org/dc/dcmitype/StillImage" />
      </cc:Work>
    </rdf:RDF>
  </metadata>
  <sodipodi:namedview
     pagecolor="#ffffff"
     bordercolor="#666666"
     borderopacity="1"
     objecttolerance="10"
     gridtolerance="10"
     guidetolerance="10"
     inkscape:pageopacity="0"
     inkscape:pageshadow="2"
     inkscape:window-width="640"
     inkscape:window-height="480"
     id="namedview29"
     showgrid="false"
     inkscape:zoom="1.8730159"
     inkscape:cx="32.254464"
     inkscape:cy="55.619426"
     inkscape:window-x="0"
     inkscape:window-y="0"
     inkscape:window-maximized="0"
     inkscape:current-layer="Avatar"
     fit-margin-top="0"
     fit-margin-left="0"
     fit-margin-right="0"
     fit-margin-bottom="0" />
  <defs
     id="defs3">
    <pattern
       id="bitmap"
       patternContentUnits="userSpaceOnUse"
       patternUnits="userSpaceOnUse"
       width="200"
       height="200"
       viewBox="0 0 200 200"
       patternTransform="matrix(1 0 0 1 -74.749 -73.349)">
      <image
         sodipodi:absref="C:\Users\Training\Documents\GitHub\Glitchen-Avatar-Engine\glitch-avatars-svg\base_avatar\Avatar.fla\body parts\side\Avatar_Texture"
         xlink:href="Avatar_Texture"
         id="Avatar_Texture"
         width="200"
         height="200" />
    </pattern>
    <radialGradient
       gradientUnits="userSpaceOnUse"
       color-interpolation="sRGB"
       r="45.674385"
       cx="56.049999"
       cy="25.549999"
       fx="56.049999"
       fy="25.549999"
       gradientTransform="matrix(-0.37757874,0.92605591,0.87324524,0.40275574,54.9,-36.649)"
       id="radialGradient">
      <stop
         stop-color="#FFF"
         stop-opacity="0.2980392156862745"
         offset="0"
         id="stop8" />
      <stop
         stop-color="#000"
         stop-opacity="0.2980392156862745"
         offset="1"
         id="stop10" />
    </radialGradient>
    <pattern
       id="bitmap1"
       patternContentUnits="userSpaceOnUse"
       patternUnits="userSpaceOnUse"
       width="200"
       height="200"
       viewBox="0 0 200 200"
       patternTransform="matrix(1 0 0 1 -99.849 -99.849)">
      <image
         sodipodi:absref="C:\Users\Training\Documents\GitHub\Glitchen-Avatar-Engine\glitch-avatars-svg\base_avatar\Avatar.fla\body parts\side\Avatar_Texture"
         xlink:href="Avatar_Texture"
         id="image13"
         width="200"
         height="200" />
    </pattern>
    <radialGradient
       gradientUnits="userSpaceOnUse"
       color-interpolation="sRGB"
       r="45.678001"
       cx="63.804001"
       cy="-55.297001"
       fx="63.804001"
       fy="-55.297001"
       gradientTransform="matrix(-0.378,0.926,0.873,0.403,81.2,-55.399)"
       id="radialGradient1">
      <stop
         stop-color="#FFF"
         stop-opacity="0.2980392156862745"
         offset="0"
         id="stop16" />
      <stop
         stop-color="#000"
         stop-opacity="0.2980392156862745"
         offset="1"
         id="stop18" />
    </radialGradient>
  </defs>
  <g
     id="sideSkull1"
     overflow="visible"
     transform="translate(24.949379,26.584366)"
     style="overflow:visible">
    <g
       id="sideSkull_0">
      <g
         id="element">
        <g
           id="drawingObject">
          <path
             id="path"
             d="m 21.501,17.001 q 4.4,-5.55 3.4,-24.5 -0.25,-4.75 -4.1,-9.85 -4.1,-5.45 -9.35,-7.05 -18.9,-5.6 -29.9,3.15 -6.55,5.25 -6.5,19.55 0.05,11.65 10.55,20.5 4.25,3.6 11.6,6.05 6.75,2.3 10.1,1.85 3.65,-0.45 6.9,-2.6 3.5,-2.35 7.3,-7.1 z"
             inkscape:connector-curvature="0"
             style="fill:url(#bitmap1)" />
        </g>
        <g
           id="drawingObject1">
          <path
             id="path1"
             d="m -13.699,13.851 q -4.3,-4.5 -7.3,-12 -2.7,-6.7 -3.15,-12.35 -0.8,3.8 -0.8,8.8 0.05,11.65 10.55,20.5 4.25,3.6 11.6,6.05 6.75,2.3 10.1,1.85 2.5,-0.3 4.9,-1.5 -13.75,1.45 -25.9,-11.35 z"
             inkscape:connector-curvature="0"
             style="fill:#000000;fill-opacity:0.2" />
        </g>
        <g
           id="drawingObject2">
          <path
             id="path2"
             d="m 20.901,-17.349 q -4.1,-5.45 -9.35,-7.05 -18.9,-5.6 -29.9,3.15 -6.55,5.25 -6.5,19.55 0.05,11.65 10.55,20.5 4.25,3.6 11.6,6.05 6.75,2.3 10.1,1.85 3.65,-0.45 6.9,-2.6 3.5,-2.35 7.3,-7.1 4.4,-5.55 3.4,-24.5 -0.25,-4.75 -4.1,-9.85 z"
             style="fill:url(#radialGradient1)"
             inkscape:connector-curvature="0" />
        </g>
      </g>
    </g>
  </g>
</svg>
