<?xml version="1.0" encoding="UTF-8" standalone="no"?>
<!-- Generator: flash2svg, http://dissentgraphics.com/tools/flash2svg -->

<svg
   xmlns:dc="http://purl.org/dc/elements/1.1/"
   xmlns:cc="http://creativecommons.org/ns#"
   xmlns:rdf="http://www.w3.org/1999/02/22-rdf-syntax-ns#"
   xmlns:svg="http://www.w3.org/2000/svg"
   xmlns="http://www.w3.org/2000/svg"
   xmlns:xlink="http://www.w3.org/1999/xlink"
   xmlns:sodipodi="http://sodipodi.sourceforge.net/DTD/sodipodi-0.dtd"
   xmlns:inkscape="http://www.inkscape.org/namespaces/inkscape"
   id="Avatar"
   image-rendering="optimizeQuality"
   version="1.1"
   x="0px"
   y="0px"
   width="68"
   height="126"
   viewBox="0 0 68 126"
   inkscape:version="0.48.4 r9939"
   sodipodi:docname="Avatar_sideHandClose.svg">
  <metadata
     id="metadata30">
    <rdf:RDF>
      <cc:Work
         rdf:about="">
        <dc:format>image/svg+xml</dc:format>
        <dc:type
           rdf:resource="http://purl.org/dc/dcmitype/StillImage" />
      </cc:Work>
    </rdf:RDF>
  </metadata>
  <sodipodi:namedview
     pagecolor="#ffffff"
     bordercolor="#666666"
     borderopacity="1"
     objecttolerance="10"
     gridtolerance="10"
     guidetolerance="10"
     inkscape:pageopacity="0"
     inkscape:pageshadow="2"
     inkscape:window-width="640"
     inkscape:window-height="480"
     id="namedview28"
     showgrid="false"
     inkscape:zoom="1.8730159"
     inkscape:cx="34"
     inkscape:cy="63"
     inkscape:window-x="0"
     inkscape:window-y="0"
     inkscape:window-maximized="0"
     inkscape:current-layer="Avatar" />
  <defs
     id="defs3">
    <pattern
       id="bitmap"
       patternContentUnits="userSpaceOnUse"
       patternUnits="userSpaceOnUse"
       width="200"
       height="200"
       viewBox="0 0 200 200"
       patternTransform="matrix(1 0 0 1 -99.049 -95.749)">
      <symbol
         id="Avatar_Texture_symbol"
         viewBox="0 0 200 200">
        <image
           sodipodi:absref="F:\EveryStuff\Glitch\_public.domain\glitch-avatars-master\glitch-avatars-master\base_avatar\Avatar_Texture"
           xlink:href="Avatar_Texture"
           height="200"
           width="200"
           id="Avatar_Texture" />
      </symbol>
      <use
         id="Avatar_Texture_use"
         width="200"
         height="200"
         y="0"
         x="0"
         xlink:href="#Avatar_Texture_symbol"
         externalResourcesRequired="true" />
    </pattern>
    <pattern
       id="bitmap1"
       patternContentUnits="userSpaceOnUse"
       patternUnits="userSpaceOnUse"
       width="200"
       height="200"
       viewBox="0 0 200 200"
       patternTransform="matrix(1 0 0 1 -98.999 -95.699)">
      <symbol
         id="symbol10"
         viewBox="0 0 200 200">
        <image
           sodipodi:absref="F:\EveryStuff\Glitch\_public.domain\glitch-avatars-master\glitch-avatars-master\base_avatar\Avatar_Texture"
           xlink:href="Avatar_Texture"
           height="200"
           width="200"
           id="image12" />
      </symbol>
      <use
         id="use14"
         width="200"
         height="200"
         y="0"
         x="0"
         xlink:href="#Avatar_Texture_symbol"
         externalResourcesRequired="true" />
    </pattern>
  </defs>
  <g
     id="sideHandClose1"
     overflow="visible"
     transform="translate(4.8050845,3.7372883)"
     style="overflow:visible">
    <g
       id="sideHandClose_0_0">
      <g
         id="element">
        <path
           id="path"
           d="m -1.05,-1.8 -0.2,-0.025 0,0.025 c -1.3,0.45 -2.05,1.1 -2.3,1.95 -0.25,0.85 -0.3,1.8 -0.2,2.85 0.1,1 0.25,1.95 0.4,2.8 l 0.2,0.8 c 0.45,1.45 1,2.45 1.75,3 0.7,0.55 1.2,0.75 1.55,0.6 0.3,-0.15 0.4,-0.35 0.35,-0.5 0.1,0.15 0.35,0.3 0.75,0.55 0.4,0.25 0.85,0.25 1.3,0.1 C 3,10.1 3.25,9.8 3.25,9.4 3.25,9 3.15,8.65 2.9,8.35 3.35,8.7 3.75,8.8 4.1,8.75 4.45,8.65 4.75,8.4 4.95,8 5.15,7.6 5.15,7.25 5,6.9 4.85,6.55 4.55,6.2 4.15,5.8 3.7,5.35 3.5,4.9 3.45,4.4 c 0,0 0.5,0.4 1.25,0.25 C 5.15,4.55 5.75,4.35 5.6,3.6 5.55,3.35 5.35,3.1 5.05,2.85 4.75,2.6 4.5,2.4 4.25,2.2 4,2 3.7,1.45 3.45,0.55 3.15,-0.35 2.6,-1 1.75,-1.35 0.9,-1.75 0,-1.9 -1.05,-1.8 z"
           inkscape:connector-curvature="0"
           style="fill:url(#bitmap1)" />
        <g
           id="drawingObject">
          <path
             id="path3"
             d="M 5.4,4.4 C 5.65,4.2 5.7,3.85 5.45,3.3 l 0,0.3 q -0.6,1 -2.7,0.1 l 0.6,1.5 C 3.45,5.35 3.6,5.5 3.8,5.75 3.95,6 4.1,6.25 4.2,6.6 4.3,6.9 4.3,7.15 4.25,7.4 4.15,7.6 3.95,7.7 3.7,7.75 3.4,7.8 3,7.5 2.55,6.95 L 2,6.45 C 2,6.8 2.2,7.3 2.6,7.85 3,8.4 3.4,8.7 3.85,8.7 4.25,8.65 4.55,8.55 4.8,8.3 4.95,8.05 5.05,7.7 5.05,7.25 5.05,6.8 4.85,6.45 4.5,6.2 4.15,5.95 3.9,5.55 3.65,4.95 L 3.35,4.35 4.3,4.75 C 4.75,4.7 5.15,4.6 5.4,4.4 z"
             inkscape:connector-curvature="0"
             style="fill:#000000;fill-opacity:0.2" />
        </g>
        <g
           id="drawingObject1">
          <path
             id="path4"
             d="M 3.15,8.75 Q 2.722,9.672 1.85,9.5 C 1.3,9.4 0.85,9.15 0.5,8.8 L 0.25,8.4 0.5,9.75 c 0.05,0 0.3,0.15 0.7,0.4 0.35,0.25 0.75,0.3 1.15,0.25 C 2.7,10.3 3.05,10 3.3,9.45 L 3.15,8.75 z"
             inkscape:connector-curvature="0"
             style="fill:#000000;fill-opacity:0.2" />
        </g>
        <g
           id="drawingObject2">
          <path
             id="path5"
             d="M -1.3,4.7 C -0.8,4 -0.6,2.85 -0.7,1.2 -0.9,-0.45 -1,-1.45 -1,-1.85 Q -3.1,-1.5 -3.7,0.4 c -0.1,0.35 -0.1,1.05 -0.05,2.1 0.1,1.05 0.2,2 0.3,2.9 l 0.25,0.9 c 0.3,1.35 0.9,2.45 1.8,3.3 0.9,0.8 1.55,0.85 1.95,0.1 C 0,9.7 -0.4,9.4 -0.75,8.8 -1.15,8.2 -1.45,7.55 -1.7,6.85 -1.95,6.1 -1.85,5.4 -1.3,4.7 z"
             inkscape:connector-curvature="0"
             style="fill:#000000;fill-opacity:0.2" />
        </g>
        <g
           id="drawingObject3">
          <path
             id="path6"
             d="M -1.325,8.95 Q -1.755,8.333 -2.5,5.9 C -3,4.25 -3.15,2 -2.95,-0.9 c -0.35,0.35 -0.55,0.75 -0.7,1.1 -0.15,0.35 -0.2,0.95 -0.15,1.7 0,0.75 0.1,1.9 0.35,3.55 L -3.3,6 c 0.35,1.45 0.9,2.6 1.65,3.35 0.75,0.75 1.35,1 1.85,0.8 -0.75,-0.4 -1.25,-0.8 -1.5,-1.2"
             inkscape:connector-curvature="0"
             style="fill:#000000;fill-opacity:0.2" />
        </g>
      </g>
    </g>
  </g>
</svg>
