<?xml version="1.0" encoding="UTF-8" standalone="no"?>
<!-- Generator: flash2svg, http://dissentgraphics.com/tools/flash2svg -->

<svg
   xmlns:dc="http://purl.org/dc/elements/1.1/"
   xmlns:cc="http://creativecommons.org/ns#"
   xmlns:rdf="http://www.w3.org/1999/02/22-rdf-syntax-ns#"
   xmlns:svg="http://www.w3.org/2000/svg"
   xmlns="http://www.w3.org/2000/svg"
   xmlns:xlink="http://www.w3.org/1999/xlink"
   xmlns:sodipodi="http://sodipodi.sourceforge.net/DTD/sodipodi-0.dtd"
   xmlns:inkscape="http://www.inkscape.org/namespaces/inkscape"
   id="Avatar"
   image-rendering="auto"
   version="1.1"
   x="0px"
   y="0px"
   width="68"
   height="126"
   viewBox="0 0 68 126"
   inkscape:version="0.48.4 r9939"
   sodipodi:docname="Avatar_sideFootClose.svg">
  <metadata
     id="metadata33">
    <rdf:RDF>
      <cc:Work
         rdf:about="">
        <dc:format>image/svg+xml</dc:format>
        <dc:type
           rdf:resource="http://purl.org/dc/dcmitype/StillImage" />
      </cc:Work>
    </rdf:RDF>
  </metadata>
  <sodipodi:namedview
     pagecolor="#ffffff"
     bordercolor="#666666"
     borderopacity="1"
     objecttolerance="10"
     gridtolerance="10"
     guidetolerance="10"
     inkscape:pageopacity="0"
     inkscape:pageshadow="2"
     inkscape:window-width="640"
     inkscape:window-height="480"
     id="namedview31"
     showgrid="false"
     inkscape:zoom="5.55"
     inkscape:cx="19.214303"
     inkscape:cy="106.24324"
     inkscape:window-x="0"
     inkscape:window-y="0"
     inkscape:window-maximized="0"
     inkscape:current-layer="Avatar" />
  <defs
     id="defs3">
    <pattern
       id="bitmap"
       patternContentUnits="userSpaceOnUse"
       patternUnits="userSpaceOnUse"
       width="200"
       height="200"
       viewBox="0 0 200 200"
       patternTransform="matrix(0.8318771362304688 0.0240692138671875 -0.065423583984375 0.8733100891113281 -34.099 35.5)">
      <symbol
         id="Avatar_Texture_symbol"
         viewBox="0 0 200 200">
        <image
           sodipodi:absref="F:\EveryStuff\Glitch\_public.domain\glitch-avatars-master\glitch-avatars-master\base_avatar\Avatar_Texture"
           xlink:href="Avatar_Texture"
           height="200"
           width="200"
           id="Avatar_Texture" />
      </symbol>
      <use
         id="Avatar_Texture_use"
         width="200"
         height="200"
         y="0"
         x="0"
         xlink:href="#Avatar_Texture_symbol"
         externalResourcesRequired="true" />
    </pattern>
    <pattern
       id="bitmap1"
       patternContentUnits="userSpaceOnUse"
       patternUnits="userSpaceOnUse"
       width="200"
       height="200"
       viewBox="0 0 200 200"
       patternTransform="matrix(0.888671875 0.02618408203125 -0.06988525390625 0.950164794921875 -77.299 -90.199)">
      <symbol
         id="symbol10"
         viewBox="0 0 200 200">
        <image
           sodipodi:absref="F:\EveryStuff\Glitch\_public.domain\glitch-avatars-master\glitch-avatars-master\base_avatar\Avatar_Texture"
           xlink:href="Avatar_Texture"
           height="200"
           width="200"
           id="image12" />
      </symbol>
      <use
         id="use14"
         width="200"
         height="200"
         y="0"
         x="0"
         xlink:href="#Avatar_Texture_symbol"
         externalResourcesRequired="true" />
    </pattern>
  </defs>
  <g
     id="sideFootClose1"
     overflow="visible"
     transform="translate(4.6846843,-1.8018018)"
     style="overflow:visible">
    <g
       id="sideFootClose_0">
      <g
         id="element">
        <g
           id="drawingObject">
          <path
             id="path"
             d="M 10.009,5.684 C 9.475,5.085 8.727,4.596 7.659,3.997 6.537,3.399 5.682,3.073 5.095,3.018 4.507,2.909 3.973,2.855 3.385,2.746 2.851,2.637 1.676,2.637 -0.193,3.018 -2.063,3.399 -3.238,3.834 -3.559,4.433 q -0.267,0.435 -0.48,1.686 -0.374,1.469 -0.107,2.067 c 0.214,0.925 2.136,1.795 3.258,1.795 1.175,0.327 2.137,1.36 3.579,1.578 1.389,0.218 2.724,0.163 2.724,0.163 l 0.321,-0.054 0.694,0.598 c 0.748,0.381 1.496,0.381 2.243,0.055 0.748,-0.381 1.069,-0.871 0.909,-1.469 l 1.281,-0.109 C 11.451,10.58 11.772,10.199 11.825,9.601 11.932,8.948 11.398,8.73 11.398,8.73 L 11.611,8.948 11.398,8.73 C 12.092,8.785 12.573,8.676 12.893,8.404 13.107,8.186 13.321,7.751 13.321,7.098 13.374,6.5 13.107,6.01 12.466,5.793 11.878,5.521 11.077,5.575 10.009,5.684 z"
             inkscape:connector-curvature="0"
             style="fill:url(#bitmap1)" />
        </g>
        <g
           id="group1">
          <g
             id="drawingObject1">
            <path
               id="path1"
               d="m 12.626,8.458 0.641,-0.761 c -0.961,0.435 -1.709,0.598 -2.19,0.489 L 10.49,7.969 10.703,8.241 c 0.16,0.217 0.641,0.435 0.695,0.435 0.641,-0.055 1.068,-0.163 1.228,-0.218 z"
               inkscape:connector-curvature="0"
               style="fill:#000000;fill-opacity:0.2" />
          </g>
          <g
             id="drawingObject2">
            <path
               id="path2"
               d="M 9.368,11.668 9.154,11.722 C 6.27,12.375 5.308,11.015 5.308,11.015 l 0.855,0.653 -0.855,-0.653 c 0,0 -1.549,0 -2.777,-0.109 -0.428,0 -1.069,-0.217 -1.87,-0.707 C -0.193,9.709 -0.941,9.165 -1.636,8.513 -2.33,7.805 -2.597,7.316 -2.544,6.935 -2.437,6.554 -0.087,5.303 4.561,3.073 3.866,2.365 2.317,2.311 -0.033,2.909 -1.903,3.562 -2.971,4.052 -3.238,4.433 -3.559,4.759 -3.772,5.303 -3.932,6.01 -4.146,6.717 -4.2,7.261 -4.146,7.697 c 0.053,0.38 0.214,0.816 0.481,1.196 0.267,0.381 0.801,0.708 1.549,0.871 0.747,0.163 1.549,0.489 2.35,0.925 0.801,0.38 1.602,0.707 2.404,0.87 0.801,0.163 1.655,0.218 2.617,0.163 l 0.32,-0.054 0.054,0.054 0.748,0.544 c 0.48,0.163 1.121,0.218 2.35,-0.217 q 0.427,-0.164 0.641,-0.381 z"
               inkscape:connector-curvature="0"
               style="fill:#000000;fill-opacity:0.2" />
          </g>
          <g
             id="drawingObject3">
            <path
               id="path3"
               d="m 10.703,10.634 1.175,-0.761 c -1.228,0.38 -2.136,0.435 -2.617,0.272 L 8.78,9.818 l 0.107,0.327 0.267,0.489 c 0.374,0 0.908,0 1.549,0 z"
               inkscape:connector-curvature="0"
               style="fill:#000000;fill-opacity:0.2" />
          </g>
        </g>
        <g
           id="group2">
          <g
             id="drawingObject4">
            <path
               id="path4"
               d="M 11.131,8.676 C 12.145,8.785 12.733,8.73 12.893,8.458 13.053,8.186 13.16,7.86 13.267,7.479 12.893,7.588 12.306,7.642 11.611,7.697 10.383,7.751 9.101,7.316 9.101,7.316 L 9.902,7.479 9.101,7.316 9.795,7.697 9.101,7.316 c 0,0 1.282,0.653 1.762,1.251 C 11.344,9.165 10.97,9.709 9.849,9.873 9.261,9.981 8.567,9.764 8.032,9.655 8.727,9.927 9.154,10.852 9.154,10.852 L 8.941,11.124 C 8.78,11.287 8.513,11.287 8.032,11.233 7.552,11.178 7.018,11.124 6.43,11.124 5.842,11.124 5.522,10.906 5.415,10.471 L 5.522,9.655 4.4,9.818 C 2.638,9.873 1.356,9.601 0.501,8.948 -0.354,8.295 -0.834,7.751 -0.941,7.261 L -1.262,6.609 C 2.424,4.977 4.293,3.834 4.347,3.236 4.347,2.637 3.492,2.42 1.73,2.583 c -1.763,0.163 -2.725,0.326 -2.831,0.49 -0.161,0.108 -0.641,0.38 -1.55,0.816 -0.854,0.435 -1.335,1.088 -1.388,2.012 -0.107,0.925 -0.161,1.469 -0.107,1.687 0,0.217 0.107,0.598 0.32,1.088 0.161,0.489 0.908,0.925 2.19,1.197 1.282,0.272 2.19,0.598 2.671,0.924 0.481,0.272 0.962,0.544 1.549,0.762 0.534,0.218 1.229,0.326 2.137,0.326 l 0.32,-0.217 0.962,0.217 c 0.48,0.544 1.121,0.708 2.029,0.544 0.909,-0.163 1.336,-0.652 1.282,-1.414 l 1.389,-0.218 C 11.344,10.58 11.665,10.199 11.772,9.601 11.825,8.948 11.131,8.676 11.131,8.676 z"
               inkscape:connector-curvature="0"
               style="fill:#000000;fill-opacity:0.2" />
          </g>
        </g>
      </g>
    </g>
  </g>
</svg>
