<?xml version="1.0" encoding="UTF-8" standalone="no"?>
<!-- Generator: flash2svg, http://dissentgraphics.com/tools/flash2svg -->

<svg
   xmlns:dc="http://purl.org/dc/elements/1.1/"
   xmlns:cc="http://creativecommons.org/ns#"
   xmlns:rdf="http://www.w3.org/1999/02/22-rdf-syntax-ns#"
   xmlns:svg="http://www.w3.org/2000/svg"
   xmlns="http://www.w3.org/2000/svg"
   xmlns:xlink="http://www.w3.org/1999/xlink"
   xmlns:sodipodi="http://sodipodi.sourceforge.net/DTD/sodipodi-0.dtd"
   xmlns:inkscape="http://www.inkscape.org/namespaces/inkscape"
   id="Avatar"
   image-rendering="optimizeQuality"
   version="1.1"
   x="0px"
   y="0px"
   width="8.4541664"
   height="11.153321"
   viewBox="0 0 8.4541664 11.153321"
   inkscape:version="0.48.4 r9939"
   sodipodi:docname="Avatar_sideLegLowerOffside.svg">
  <metadata
     id="metadata29">
    <rdf:RDF>
      <cc:Work
         rdf:about="">
        <dc:format>image/svg+xml</dc:format>
        <dc:type
           rdf:resource="http://purl.org/dc/dcmitype/StillImage" />
      </cc:Work>
    </rdf:RDF>
  </metadata>
  <sodipodi:namedview
     pagecolor="#ffffff"
     bordercolor="#666666"
     borderopacity="1"
     objecttolerance="10"
     gridtolerance="10"
     guidetolerance="10"
     inkscape:pageopacity="0"
     inkscape:pageshadow="2"
     inkscape:window-width="640"
     inkscape:window-height="480"
     id="namedview27"
     showgrid="false"
     inkscape:zoom="1.8730159"
     inkscape:cx="32.679721"
     inkscape:cy="-50.580492"
     inkscape:window-x="0"
     inkscape:window-y="0"
     inkscape:window-maximized="0"
     inkscape:current-layer="Avatar"
     fit-margin-top="0"
     fit-margin-left="0"
     fit-margin-right="0"
     fit-margin-bottom="0" />
  <defs
     id="defs3">
    <pattern
       id="bitmap"
       patternContentUnits="userSpaceOnUse"
       patternUnits="userSpaceOnUse"
       width="200"
       height="200"
       viewBox="0 0 200 200"
       patternTransform="matrix(1.2284393310546875 0 0 1.174652099609375 -77.599 -4.549)">
      <symbol
         id="Avatar_Texture_symbol"
         viewBox="0 0 200 200">
        <image
           sodipodi:absref="C:\Users\Training\Documents\GitHub\Glitchen-Avatar-Engine\glitch-avatars-svg\base_avatar\Avatar.fla\body parts\side\Avatar_Texture"
           xlink:href="Avatar_Texture"
           id="Avatar_Texture"
           width="200"
           height="200" />
      </symbol>
      <use
         id="Avatar_Texture_use"
         width="200"
         height="200"
         y="0"
         x="0"
         xlink:href="#Avatar_Texture_symbol"
         externalResourcesRequired="true" />
    </pattern>
    <pattern
       id="bitmap1"
       patternContentUnits="userSpaceOnUse"
       patternUnits="userSpaceOnUse"
       width="200"
       height="200"
       viewBox="0 0 200 200"
       patternTransform="matrix(1.2284393310546875 0 0 0.9922637939453125 -123.549 -96.549)">
      <symbol
         id="symbol10"
         viewBox="0 0 200 200">
        <image
           sodipodi:absref="C:\Users\Training\Documents\GitHub\Glitchen-Avatar-Engine\glitch-avatars-svg\base_avatar\Avatar.fla\body parts\side\Avatar_Texture"
           xlink:href="Avatar_Texture"
           id="image12"
           width="200"
           height="200" />
      </symbol>
      <use
         id="use14"
         width="200"
         height="200"
         y="0"
         x="0"
         xlink:href="#Avatar_Texture_symbol"
         externalResourcesRequired="true" />
    </pattern>
  </defs>
  <g
     id="sideLegLowerOffside1"
     overflow="visible"
     transform="translate(5.0865,3.005)"
     style="overflow:visible">
    <g
       id="sideLegLowerOffside_0">
      <g
         id="element">
        <g
           id="drawingObject">
          <path
             id="path"
             d="m -1.049,-2.92 q -3.55,0.042 -3.85,2.154 0,0.211 0.05,1.352 0.05,1.055 -0.05,1.858 -0.35,3.337 0.85,4.73 0.8,0.93 2.5,0.972 1.65,0.042 2.85,-0.718 1.15,-0.718 1.4,-1.394 0.2,-0.591 0.35,-3.717 0.25,-1.689 0.3,-2.112 0.1,-0.675 -0.4,-1.9 -0.5,-1.267 -4,-1.225 z"
             inkscape:connector-curvature="0"
             style="fill:url(#bitmap1)" />
        </g>
        <g
           id="drawingObject1">
          <path
             id="path1"
             d="m -2.999,-2.751 q -1.567,0.666 -1.775,1.288 -0.212,0.62 -0.175,1.711 0.046,1.095 -0.05,1.9 -0.35,3.379 0.7,4.604 1.05,1.225 2.65,1.309 1.6,0.085 2.85,-0.802 -0.9,0 -2.4,-1.056 -1.55,-0.971 -0.1,-9.208 l -1.7,0.254 z"
             inkscape:connector-curvature="0"
             style="fill:#000000;fill-opacity:0.2" />
        </g>
        <g
           id="drawingObject2">
          <path
             id="path2"
             d="m -3.349,-0.259 -0.55,-1.943 q -0.85,0.549 -1.05,1.436 0,0.211 0.1,1.352 0.05,1.055 -0.1,1.858 -0.3,3.337 0.9,4.73 1.15,1.141 3.35,0.93 -1.85,-0.634 -2.5,-1.774 -0.3,-0.549 -0.5,-2.07 -0.1,-0.887 0.1,-2.788 l 0.25,-1.731 z"
             inkscape:connector-curvature="0"
             style="fill:#000000;fill-opacity:0.2" />
        </g>
        <g
           id="drawingObject3">
          <path
             id="path3"
             d="m -4.949,-0.724 q 0,0.169 0.05,1.352 0.05,1.056 -0.05,1.816 -0.35,3.379 0.85,4.773 0.8,0.887 2.5,0.929 1.65,0.042 2.8,-0.676 1.15,-0.802 1.45,-1.394 0.15,-0.591 0.35,-3.717 0.25,-1.689 0.3,-2.154 0.05,-0.633 -0.45,-1.858 -0.5,-1.309 -3.95,-1.267 -3.6,0.042 -3.85,2.196 z"
             inkscape:connector-curvature="0"
             style="fill:#000000;fill-opacity:0.08600003" />
        </g>
      </g>
    </g>
  </g>
</svg>
