<?xml version="1.0" encoding="UTF-8" standalone="no"?>
<!-- Generator: flash2svg, http://dissentgraphics.com/tools/flash2svg -->

<svg
   xmlns:dc="http://purl.org/dc/elements/1.1/"
   xmlns:cc="http://creativecommons.org/ns#"
   xmlns:rdf="http://www.w3.org/1999/02/22-rdf-syntax-ns#"
   xmlns:svg="http://www.w3.org/2000/svg"
   xmlns="http://www.w3.org/2000/svg"
   xmlns:xlink="http://www.w3.org/1999/xlink"
   xmlns:sodipodi="http://sodipodi.sourceforge.net/DTD/sodipodi-0.dtd"
   xmlns:inkscape="http://www.inkscape.org/namespaces/inkscape"
   id="Avatar"
   image-rendering="optimizeQuality"
   version="1.1"
   x="0px"
   y="0px"
   width="68"
   height="126"
   viewBox="0 0 68 126"
   inkscape:version="0.48.4 r9939"
   sodipodi:docname="Avatar_sideLegLowerClose.svg">
  <metadata
     id="metadata31">
    <rdf:RDF>
      <cc:Work
         rdf:about="">
        <dc:format>image/svg+xml</dc:format>
        <dc:type
           rdf:resource="http://purl.org/dc/dcmitype/StillImage" />
      </cc:Work>
    </rdf:RDF>
  </metadata>
  <sodipodi:namedview
     pagecolor="#ffffff"
     bordercolor="#666666"
     borderopacity="1"
     objecttolerance="10"
     gridtolerance="10"
     guidetolerance="10"
     inkscape:pageopacity="0"
     inkscape:pageshadow="2"
     inkscape:window-width="640"
     inkscape:window-height="480"
     id="namedview29"
     showgrid="false"
     inkscape:zoom="1.8730159"
     inkscape:cx="34"
     inkscape:cy="63"
     inkscape:window-x="0"
     inkscape:window-y="0"
     inkscape:window-maximized="0"
     inkscape:current-layer="Avatar" />
  <defs
     id="defs3">
    <pattern
       id="bitmap"
       patternContentUnits="userSpaceOnUse"
       patternUnits="userSpaceOnUse"
       width="200"
       height="200"
       viewBox="0 0 200 200"
       patternTransform="matrix(1 0 0 1 -82.749 -0.199)">
      <symbol
         id="Avatar_Texture_symbol"
         viewBox="0 0 200 200">
        <image
           sodipodi:absref="F:\EveryStuff\Glitch\_public.domain\glitch-avatars-master\glitch-avatars-master\base_avatar\Avatar_Texture"
           xlink:href="Avatar_Texture"
           height="200"
           width="200"
           id="Avatar_Texture" />
      </symbol>
      <use
         id="Avatar_Texture_use"
         width="200"
         height="200"
         y="0"
         x="0"
         xlink:href="#Avatar_Texture_symbol"
         externalResourcesRequired="true" />
    </pattern>
    <pattern
       id="bitmap1"
       patternContentUnits="userSpaceOnUse"
       patternUnits="userSpaceOnUse"
       width="200"
       height="200"
       viewBox="0 0 200 200"
       patternTransform="matrix(1 0 0 1 -99.699 -96.199)">
      <symbol
         id="symbol10"
         viewBox="0 0 200 200">
        <image
           sodipodi:absref="F:\EveryStuff\Glitch\_public.domain\glitch-avatars-master\glitch-avatars-master\base_avatar\Avatar_Texture"
           xlink:href="Avatar_Texture"
           height="200"
           width="200"
           id="image12" />
      </symbol>
      <use
         id="use14"
         width="200"
         height="200"
         y="0"
         x="0"
         xlink:href="#Avatar_Texture_symbol"
         externalResourcesRequired="true" />
    </pattern>
  </defs>
  <g
     id="sideLegLowerClose1"
     overflow="visible"
     transform="translate(5.3389831,4.2711862)"
     style="overflow:visible">
    <g
       id="sideLegLowerClose_0">
      <g
         id="element">
        <g
           id="drawingObject">
          <path
             id="path"
             d="m 0.151,-2.899 q -3.8,0 -4.15,2.55 -0.05,0.35 -0.05,1.6 0.05,1.35 -0.05,2.2 -0.5,4.1 0.7,5.7 0.8,1.05 2.6,1.2 1.75,0.1 3.05,-0.8 1.25,-0.85 1.5,-1.65 0.25,-0.7 0.55,-4.5 0.3,-1.95 0.4,-2.55 0.05,-0.75 -0.4,-2.25 -0.5,-1.55 -4.15,-1.5 z"
             inkscape:connector-curvature="0"
             style="fill:url(#bitmap1)" />
        </g>
        <g
           id="drawingObject1">
          <path
             id="path1"
             d="m -3.999,-0.349 q -0.05,0.35 -0.05,1.6 0.05,1.35 -0.05,2.2 -0.5,4.1 0.7,5.7 1.05,1.4 3.4,1.2 l 0,-0.05 q -1.05,-1.4 -0.55,-5.1 0.55,-4.35 0.45,-4.75 -0.15,-0.85 -1.7,-3.1 -2,0.7 -2.2,2.3 z"
             inkscape:connector-curvature="0"
             style="fill:#000000;fill-opacity:0.2" />
        </g>
        <g
           id="drawingObject2">
          <path
             id="path2"
             d="m -3.999,-0.349 q -0.05,0.35 -0.05,1.6 0.05,1.35 -0.05,2.2 -0.5,4.1 0.7,5.7 0.3,0.35 0.7,0.6 -0.5,-0.8 -0.5,-2.2 0,-0.7 0.2,-2.7 0.3,-2.6 0.25,-3.6 -0.05,-1.7 -0.7,-2.85 -0.5,0.55 -0.55,1.25 z"
             inkscape:connector-curvature="0"
             style="fill:#000000;fill-opacity:0.2" />
        </g>
        <g
           id="drawingObject3">
          <path
             id="path3"
             d="m 1.051,1.501 0.3,0.8 q 0.45,0.75 1.25,0.8 1.25,0.1 1.5,-1.5 -1.05,0.75 -2.05,0.35 l -1,-0.45 z"
             inkscape:connector-curvature="0"
             style="fill:#000000;fill-opacity:0.2" />
        </g>
        <g
           id="drawingObject4">
          <path
             id="path4"
             d="m 3.851,0.751 q 0.45,-0.75 -0.8,-1 -0.7,-0.1 -1,0.55 -0.35,0.65 0.45,0.95 0.9,0.3 1.35,-0.5 z"
             inkscape:connector-curvature="0"
             style="fill:#ffffff;fill-opacity:0.2" />
        </g>
      </g>
    </g>
  </g>
</svg>
