<?xml version="1.0" encoding="UTF-8" standalone="no"?>
<!-- Generator: flash2svg, http://dissentgraphics.com/tools/flash2svg -->

<svg
   xmlns:dc="http://purl.org/dc/elements/1.1/"
   xmlns:cc="http://creativecommons.org/ns#"
   xmlns:rdf="http://www.w3.org/1999/02/22-rdf-syntax-ns#"
   xmlns:svg="http://www.w3.org/2000/svg"
   xmlns="http://www.w3.org/2000/svg"
   xmlns:xlink="http://www.w3.org/1999/xlink"
   xmlns:sodipodi="http://sodipodi.sourceforge.net/DTD/sodipodi-0.dtd"
   xmlns:inkscape="http://www.inkscape.org/namespaces/inkscape"
   id="Avatar"
   image-rendering="optimizeQuality"
   version="1.1"
   x="0px"
   y="0px"
   width="68"
   height="126"
   viewBox="0 0 68 126"
   inkscape:version="0.48.4 r9939"
   sodipodi:docname="Avatar_sideFootOffside.svg">
  <metadata
     id="metadata36">
    <rdf:RDF>
      <cc:Work
         rdf:about="">
        <dc:format>image/svg+xml</dc:format>
        <dc:type
           rdf:resource="http://purl.org/dc/dcmitype/StillImage" />
      </cc:Work>
    </rdf:RDF>
  </metadata>
  <sodipodi:namedview
     pagecolor="#ffffff"
     bordercolor="#666666"
     borderopacity="1"
     objecttolerance="10"
     gridtolerance="10"
     guidetolerance="10"
     inkscape:pageopacity="0"
     inkscape:pageshadow="2"
     inkscape:window-width="640"
     inkscape:window-height="480"
     id="namedview34"
     showgrid="false"
     inkscape:zoom="1.8730159"
     inkscape:cx="34"
     inkscape:cy="71.336021"
     inkscape:window-x="0"
     inkscape:window-y="0"
     inkscape:window-maximized="0"
     inkscape:current-layer="Avatar" />
  <defs
     id="defs3">
    <pattern
       id="bitmap"
       patternContentUnits="userSpaceOnUse"
       patternUnits="userSpaceOnUse"
       width="200"
       height="200"
       viewBox="0 0 200 200"
       patternTransform="matrix(1 0 0 1 -51.699 19.7)">
      <symbol
         id="Avatar_Texture_symbol"
         viewBox="0 0 200 200">
        <image
           sodipodi:absref="F:\EveryStuff\Glitch\_public.domain\glitch-avatars-master\glitch-avatars-master\base_avatar\Avatar_Texture"
           xlink:href="Avatar_Texture"
           height="200"
           width="200"
           id="Avatar_Texture" />
      </symbol>
      <use
         id="Avatar_Texture_use"
         width="200"
         height="200"
         y="0"
         x="0"
         xlink:href="#Avatar_Texture_symbol"
         externalResourcesRequired="true" />
    </pattern>
    <pattern
       id="bitmap1"
       patternContentUnits="userSpaceOnUse"
       patternUnits="userSpaceOnUse"
       width="200"
       height="200"
       viewBox="0 0 200 200"
       patternTransform="matrix(1.08154296875 0 0 1.0880126953125 -105.599 -104.199)">
      <symbol
         id="symbol10"
         viewBox="0 0 200 200">
        <image
           sodipodi:absref="F:\EveryStuff\Glitch\_public.domain\glitch-avatars-master\glitch-avatars-master\base_avatar\Avatar_Texture"
           xlink:href="Avatar_Texture"
           height="200"
           width="200"
           id="image12" />
      </symbol>
      <use
         id="use14"
         width="200"
         height="200"
         y="0"
         x="0"
         xlink:href="#Avatar_Texture_symbol"
         externalResourcesRequired="true" />
    </pattern>
  </defs>
  <g
     id="sideFootOffside1"
     overflow="visible"
     transform="translate(7.4745759,1.6016946)"
     style="overflow:visible">
    <g
       id="sideFootOffside_0">
      <g
         id="element">
        <path
           id="path"
           d="M 4.765,0.728 C 2.872,0.13 1.628,-0.197 1.088,-0.306 0.547,-0.414 -0.21,-0.523 -1.13,-0.578 c -0.973,-0.163 -1.838,-0.054 -2.649,0.327 -0.92,0.326 -1.515,0.707 -1.785,1.142 -0.162,0.327 -0.487,0.707 -0.703,1.034 -0.162,0.272 -0.216,0.544 -0.216,0.816 -0.108,0.435 -0.108,0.979 0.054,1.578 -0.054,0.326 0,0.544 0.108,0.761 0.162,0.707 0.649,1.197 1.19,1.578 0.757,0.326 1.189,0.544 1.352,0.489 q 0.108,-0.054 1.46,0.762 c 0.703,0.544 1.73,0.816 2.595,1.034 0.649,0.163 1.244,0.272 1.731,0.326 0.162,0 0.27,0 0.433,0.054 L 4.711,9.16 5.684,9.487 C 5.955,9.65 6.387,9.704 7.144,9.65 7.847,9.487 8.496,9.16 8.983,8.725 c 0,0 0,0 0.108,-0.054 C 9.578,8.344 9.632,7.855 9.47,7.311 L 8.875,6.821 9.307,6.93 c 0.271,0.054 0.595,0 0.92,-0.055 0.324,-0.054 0.703,-0.38 0.919,-0.761 0.27,-0.544 0.162,-0.979 -0.162,-1.36 L 10.713,4.645 c 0.433,0 0.757,-0.163 0.757,-0.598 C 11.524,3.666 11.362,3.285 11.092,2.959 10.767,2.795 10.335,2.686 9.686,2.741 8.929,2.85 8.334,2.686 8.064,2.251 7.739,1.816 6.658,1.381 4.765,0.728 z"
           inkscape:connector-curvature="0"
           style="fill:url(#bitmap1)" />
      </g>
      <g
         id="element1">
        <g
           id="drawingObject1">
          <path
             id="path1"
             d="M 11.156,5.157 C 10.669,6.027 10.02,6.462 9.155,6.408 L 8.29,6.081 8.776,6.625 C 9.155,6.897 9.642,6.897 10.128,6.68 10.615,6.462 10.94,6.245 11.048,5.973 11.156,5.646 11.21,5.429 11.264,5.211 L 11.156,5.157 z"
             inkscape:connector-curvature="0"
             style="fill:#000000;fill-opacity:0.2" />
        </g>
        <g
           id="drawingObject2">
          <path
             id="path2"
             d="m 1.301,1.001 0.45,-0.75 c -0.6,-0.35 -1.4,-0.5 -2.45,-0.45 -1,0 -2.2,0.2 -3.6,0.7 -1.4,0.5 -2.15,1.15 -2.3,1.95 -0.1,0.8 -0.05,1.7 0.2,2.55 0.2,0.85 0.75,1.5 1.6,1.85 0.8,0.4 1.5,0.7 2,0.95 0.5,0.2 1.1,0.5 1.9,0.85 0.75,0.4 2.05,0.6 3.95,0.65 l 1.05,-0.1 1.05,0.4 c 0.3,0.2 0.8,0.3 1.5,0.25 0.75,0 1.3,-0.1 1.8,-0.45 0.5,-0.25 0.7,-0.5 0.7,-0.95 -0.7,0.65 -1.55,0.95 -2.4,0.85 q -0.85,-0.05 -1.35,-0.55 l -0.45,-0.45 -0.55,0 c -0.5,0 -1.85,-0.1 -3.2,-0.35 -0.6,-0.15 -1.1,-0.4 -1.7,-0.65 l -0.65,-0.6 -1.1,-0.55 c -1.05,-1.15 -1.05,-1.85 0,-2.1 1.05,-0.25 2.2,-1.25 3.55,-3.05 z"
             inkscape:connector-curvature="0"
             style="fill:#000000;fill-opacity:0.2" />
        </g>
        <g
           id="drawingObject3">
          <path
             id="path3"
             d="m 9.966,3.688 0.757,0.544 0.487,-0.109 c 0.054,-0.109 0.054,-0.109 0.054,-0.109 -0.054,0 0,-0.163 0.108,-0.272 l -0.054,0 0,-0.761 c -0.162,0.598 -0.649,0.87 -1.352,0.707 z"
             inkscape:connector-curvature="0"
             style="fill:#000000;fill-opacity:0.2" />
        </g>
      </g>
      <g
         id="element2">
        <g
           id="drawingObject4">
          <path
             id="path4"
             d="m 1.051,4.151 c 0.05,-0.15 0.55,-0.75 1.4,-1.8 0.85,-1 0.65,-1.8 -0.65,-2.4 0.3,-0.3 -0.6,-0.35 -2.8,-0.15 -2.25,0.3 -3.65,0.5 -4.1,0.65 -0.5,0.2 -0.95,0.95 -1.2,2.2 -0.35,1.25 -0.25,2.2 0.25,2.95 0.5,0.7 1.15,1.1 1.95,1.35 0.75,0.15 1.25,0.4 1.5,0.7 0.3,0.25 1,0.6 2.25,0.95 1.2,0.35 2.1,0.5 2.8,0.55 l 2.25,-0.1 1,0.5 0.7,0.1 c 0.5,0.05 1.15,-0.1 1.95,-0.5 0.8,-0.35 1.2,-0.9 1,-1.5 -0.05,0.25 -0.3,0.5 -0.8,0.6 -0.6,0.1 -1.15,0.15 -1.55,0.15 q -0.7,0 -1.05,-0.7 c -0.25,-0.5 -0.2,-0.95 0.05,-1.35 l -0.4,-0.1 c -0.5,0.15 -1.25,0.2 -2.35,0.25 -1.15,0.05 -1.9,-0.2 -2.35,-0.75 -0.5,-0.55 -0.6,-0.95 -0.35,-1.1 0.2,-0.15 0.4,-0.3 0.5,-0.5 z"
             inkscape:connector-curvature="0"
             style="fill:#000000;fill-opacity:0.2" />
        </g>
        <g
           id="drawingObject5">
          <path
             id="path5"
             d="M 9.425,3.525 C 9.912,3.579 10.94,4.558 10.94,4.558 11.318,4.177 11.535,3.851 11.481,3.47 11.426,3.144 11.264,2.926 11.102,2.981 11.048,3.416 10.345,3.579 8.993,3.416 l 0.432,0.109 z"
             inkscape:connector-curvature="0"
             style="fill:#000000;fill-opacity:0.2" />
        </g>
        <g
           id="drawingObject6">
          <path
             id="path6"
             d="M 11.048,4.721 10.886,4.449 C 10.832,4.939 10.399,5.32 9.642,5.592 8.885,5.864 8.127,5.809 7.424,5.374 l 1.407,1.143 0.054,0 c 0.27,0.163 0.649,0.217 1.189,0 0.541,-0.055 0.866,-0.381 1.136,-0.816 0.108,-0.164 0.054,-0.49 -0.162,-0.98 z"
             inkscape:connector-curvature="0"
             style="fill:#000000;fill-opacity:0.2" />
        </g>
      </g>
    </g>
  </g>
</svg>
