<?xml version="1.0" encoding="UTF-8" standalone="no"?>
<!-- Generator: flash2svg, http://dissentgraphics.com/tools/flash2svg -->

<svg
   xmlns:dc="http://purl.org/dc/elements/1.1/"
   xmlns:cc="http://creativecommons.org/ns#"
   xmlns:rdf="http://www.w3.org/1999/02/22-rdf-syntax-ns#"
   xmlns:svg="http://www.w3.org/2000/svg"
   xmlns="http://www.w3.org/2000/svg"
   xmlns:sodipodi="http://sodipodi.sourceforge.net/DTD/sodipodi-0.dtd"
   xmlns:inkscape="http://www.inkscape.org/namespaces/inkscape"
   id="AvatarAssets"
   image-rendering="auto"
   version="1.1"
   x="0px"
   y="0px"
   width="55.039658"
   height="59.299999"
   viewBox="0 0 55.039658 59.299999"
   inkscape:version="0.48.4 r9939"
   sodipodi:docname="AvatarAssets_backHatYeti.svg">
  <metadata
     id="metadata4245">
    <rdf:RDF>
      <cc:Work
         rdf:about="">
        <dc:format>image/svg+xml</dc:format>
        <dc:type
           rdf:resource="http://purl.org/dc/dcmitype/StillImage" />
      </cc:Work>
    </rdf:RDF>
  </metadata>
  <sodipodi:namedview
     pagecolor="#ffffff"
     bordercolor="#666666"
     borderopacity="1"
     objecttolerance="10"
     gridtolerance="10"
     guidetolerance="10"
     inkscape:pageopacity="0"
     inkscape:pageshadow="2"
     inkscape:window-width="640"
     inkscape:window-height="480"
     id="namedview4243"
     showgrid="false"
     fit-margin-top="0"
     fit-margin-left="0"
     fit-margin-right="0"
     fit-margin-bottom="0"
     inkscape:zoom="1.9032258"
     inkscape:cx="59.719214"
     inkscape:cy="-61.199"
     inkscape:window-x="0"
     inkscape:window-y="0"
     inkscape:window-maximized="0"
     inkscape:current-layer="AvatarAssets" />
  <defs
     id="defs4221" />
  <g
     id="backHatYeti1"
     overflow="visible"
     style="overflow:visible"
     transform="translate(27.719214,58.499)">
    <g
       id="backHatYeti_0">
      <g
         id="element">
        <g
           id="drawingObject">
          <path
             id="path"
             d="m 2.501,-52.549 2.3,-3.6 c 0,0 -1.85,0.5 -3.35,1.2 l -0.05,-0.45 c -0.35,-1.9 -1.2,-3.1 -1.2,-3.1 l 0.45,0.85 -0.45,-0.85 0,2.25 c 0,0.75 -0.45,1.75 -0.9,2.65 l -1,0.65 c 0,0 0.5,-2.05 0.25,-3 l -0.2,-1 c 0,0 -0.75,1.35 -1.85,2.55 l -1.1,1.2 c 0,0 0.25,-1.35 0.3,-2.3 l 0,-1 c 0,0 -1,2.2 -1.85,2.9 l -0.85,0.75 c 0,0 0.4,-1 0.3,-1.85 l -0.15,-0.85 c 0,0 -0.25,0.75 -2.9,3.05 -2.65,2.25 -2.05,1.6 -2.05,1.6 l 0.05,0.05 -0.05,-0.05 0.05,-1.95 c 0,-0.85 -0.35,-1 -0.35,-1 l 0.2,0.2 -0.2,-0.2 c 0,0 -0.6,2 -2.25,3.7 -2.1,2.2 -5.85,4.45 -8.1,7.3 -3.15,4 -2.95,4.3 -4.3,8.05 -1.35,3.75 -0.55,5.9 -0.55,5.9 l 0.75,-0.6 -0.65,2.1 0.65,-2.1 c 0,0 -1.35,3.75 -1.15,5.6 0.25,1.8 0.6,0.6 0.6,0.6 l 0.6,2.2 0.35,-1.8 0.05,2.35 -0.05,-2.35 c 0,0 -0.15,4 0.9,6.8 l 0.6,1.2 c -0.15,2.6 1.45,4.55 1.45,4.55 l 0,-0.25 -0.15,-1.5 2.1,3.75 c 0.7,1.25 4.95,5.65 6.5,6.85 1.5,1.25 3.9,2.3 3.9,2.3 0,0 -0.95,-0.6 -1.35,-0.95 l -1.45,-1.25 2.15,1 c 1.7,0.7 3.15,0.45 3.15,0.45 l -0.5,-0.25 -2.8,-2.05 1.95,0.65 c 1.95,0.6 4.8,0.45 4.8,0.45 l -1.8,-1.5 0.85,0.35 c 0.85,0.35 3,0.2 3,0.2 l -0.75,-0.45 c -0.75,-0.4 -1.9,-1.65 -1.9,-1.65 l 0.65,0.7 -0.65,-0.7 1.4,0.6 c 1.35,0.65 3.95,1.6 3.95,1.6 l -0.35,-0.6 -0.7,-1.9 0.95,0.6 c 0.95,0.6 1.1,0.95 1.1,0.95 l 0.2,-0.5 c 0.15,-0.5 0.95,-1.3 0.95,-1.3 l 0,0.55 c 0,0.5 -0.1,0.95 -0.1,0.95 l 1.65,-1.2 -0.2,0.75 c -0.15,0.8 -0.95,1.5 -0.95,1.5 l 1.05,-0.55 c 1,-0.5 3.2,-2.5 3.2,-2.5 l -0.55,1.75 c -0.25,0.65 -0.85,1.3 -1.9,1.85 l -0.025,-0.025 4.675,-2.125 -0.35,1.2 c -0.35,1.2 -1.75,2.25 -1.75,2.25 l 0.55,-0.35 c 0.5,-0.35 5.3,-2.05 5.3,-2.05 l -0.7,0.7 c -0.65,0.7 -1.9,2.75 -1.9,2.75 l 0.7,-1.1 -0.7,1.1 0.7,-0.25 -0.7,0.25 c 0,0 0.95,-0.25 2.7,-1.45 0.7,-0.5 2.05,-2 2.45,-2.35 l 0.05,0.05 0.9,-0.85 c 2.3,-1.95 5.55,-4.8 6.2,-6.95 l 0.25,-0.9 0.15,-0.2 -0.2,1.45 0,0.25 c 0,0 1.65,-1.9 1.55,-4.5 l 0.6,-1.2 c 0.8,-2 0.95,-4.55 1,-5.9 l 0.1,-0.4 0.25,1.3 0.65,-2.15 0.2,0.4 -0.2,-0.4 c 0,0 0.3,1.2 0.6,-0.6 0.1,-0.95 -0.15,-2.35 -0.45,-3.55 l 0.45,-3.2 q 0.25,-1.4 -0.4,-2.95 l -0.35,-1.25 c -1.3,-3.75 -1.1,-4.05 -4.2,-8.1 -0.65,-0.85 -1.4,-1.65 -2.25,-2.4 -0.5,-0.65 -1.25,-1.4 -2.25,-2.25 -4.75,-3.95 -11.15,-4.35 -13.6,-4.35 0.15,-0.25 0.25,-0.5 0.45,-0.65 0.35,-0.35 0.85,-0.6 0.85,-0.6 0,0 -1.7,0.1 -2.4,0.45 l -0.4,0.2 -0.2,-0.2 z"
             inkscape:connector-curvature="0"
             style="fill:#f2f2f2" />
        </g>
        <g
           id="drawingObject1">
          <path
             id="path1"
             d="m -7.599,-51.199 c 0,0 -0.55,0.7 -1.4,1.55 -0.8,0.9 -3.65,3.1 -3.65,3.1 l 1.55,-1.2 -1.55,1.2 c 0,0 0.55,-0.95 0.85,-1.7 l 0.45,-1.6 -0.65,0.9 c -0.6,0.85 -2.55,2.5 -4.8,4.2 -2.3,1.75 -6.2,5.6 -7.8,8.3 -1.55,2.7 -2.05,6.05 -2.05,6.05 l 1.05,-1.9 c 0.65,-1.2 3.2,-3.35 3.2,-3.35 l -1.2,1.9 c -1.2,1.9 -2.2,3.8 -2.7,6.15 -0.45,2.35 -0.45,3.85 -0.45,3.85 l 0.6,-1.3 c 0.5,-0.95 2.5,-2.85 2.5,-2.85 0,0 -0.4,0.5 -0.95,2.05 -0.55,1.55 -0.75,3.85 -0.75,6.1 0,1.3 0.2,2.8 0.4,4.1 l 0.4,0.75 c -0.15,2.6 1.55,4.55 1.55,4.55 l 0,-0.25 -0.15,-1.5 2.25,3.8 c 0.6,1.05 4.15,4.55 6.1,6.25 0.7,-0.8 1.65,-1.45 2.8,-1.85 q 6.65,-2.4 17.65,-2 c 3.6,0.1 5.8,1 9.3,0.9 l 1.35,-1.45 0,0.1 1.85,-0.05 0.15,-0.2 c 1.1,-2.7 0.4,-5.65 0.4,-5.65 l 0.2,1.8 -0.2,-1.8 0.8,2.5 c 0,0 2.75,-2.2 3.2,-4.3 l 0.2,-0.9 0.25,-0.25 c 0.55,-0.5 2.35,-2.15 2.95,-4.75 0.55,-2.6 -0.85,-6.1 -0.85,-6.1 l 0.65,2.1 -0.65,-2.1 1.15,0.35 c 0,0 -0.45,-0.7 -1.05,-2.35 -0.65,-1.65 -0.7,-6.35 -2.1,-9.05 -1.45,-2.7 -7.3,-8.35 -11.05,-10.1 -3.8,-1.75 -9.5,-2 -9.5,-2 l 3.35,0.35 -3.35,-0.35 0.95,-1.35 -2.95,1.45 c 0,0 0.1,-0.45 0.1,-1.15 0,-0.7 0.55,-1.75 0.55,-1.75 l -0.25,0.6 0.25,-0.6 c 0,0 -0.35,0.55 -1.75,2 l -2.9,3.2 1,-4.1 c 0,0 -0.35,0.9 -1,1.9 -0.65,1.05 -3.45,2.25 -3.45,2.25 0,0 0.35,-0.6 0.85,-1.8 l 1.1,-3.5 c 0,0 -0.55,0.7 -1.3,1.4 l -3,2.4 0.45,-0.7 c 0.5,-0.7 1.05,-2.25 1.05,-2.25 z"
             inkscape:connector-curvature="0"
             style="fill:#e3ebf2" />
        </g>
        <g
           id="drawingObject2">
          <path
             id="path2"
             d="m 9.901,-24.649 -0.75,-2.85 -0.15,3.4 c -0.7,10.3 -5.6,12.1 -5.6,12.1 l 2.55,-2.2 -2.55,2.2 c 0,0 0.15,-3.15 0.15,-4.95 0,-1.85 -0.5,-3.65 -0.5,-3.65 l 0.25,1.15 -0.25,-1.15 c 0,0 -0.5,1.55 -1.05,2.7 -0.5,1.2 -1.55,2.9 -1.55,2.9 0,0 0,-1.2 -0.5,-3.3 -0.5,-2.1 -2,-5.9 -2,-5.9 l 0.8,2.15 -0.8,-2.15 -0.05,3 c 0,2.35 -2.9,7.85 -2.9,7.85 l -0.5,-1.45 -1.1,-4.35 -0.8,2.1 c -0.8,2.1 -0.8,4.55 -0.8,4.55 l -0.65,-1.15 c -0.6,-1.2 -1.85,-5.65 -1.85,-5.65 l 0.7,2.4 -0.7,-2.4 -0.3,3.55 c -0.3,2.7 -0.05,3.35 -0.05,3.35 l -1.25,-1.95 c -1.25,-1.95 -2.65,-9.4 -2.65,-9.4 l 0.85,3.95 -0.85,-3.95 -0.65,4.05 c -0.4,2.2 0.45,6.75 0.45,6.75 l -1.65,-1.95 c -1.65,-1.95 -2,-5.5 -2,-5.5 l 0.4,2 -0.4,-2 0.3,6.25 -2,-3.5 c -2.05,-3.55 -0.7,-10.6 -0.7,-10.6 l -0.4,3.95 0.4,-3.95 -0.5,1.35 0.5,-1.35 c 0,0 -0.9,2.1 -1.45,4.4 -0.55,2.35 -0.55,5.5 -0.55,5.5 l -0.9,-2.2 c -0.9,-2.25 -0.35,-5.5 -0.35,-5.5 l -0.15,1.9 0.15,-1.9 -0.25,0.2 c -0.5,1.55 -0.7,3.85 -0.75,6.1 0,1.3 0.25,2.8 0.4,4.1 l 0.4,0.75 c -0.15,2.6 1.45,4.55 1.45,4.55 l 0,-0.25 -0.15,-1.5 2.1,3.75 c 0.7,1.25 4.95,5.65 6.5,6.85 1.5,1.25 3.9,2.3 3.9,2.3 0,0 -0.95,-0.6 -1.35,-0.95 l -1.45,-1.25 2.15,1 c 1.7,0.7 3.15,0.45 3.15,0.45 l -0.5,-0.25 -2.8,-2.05 1.95,0.65 c 1.95,0.6 4.8,0.45 4.8,0.45 l -1.8,-1.5 0.85,0.35 c 0.85,0.35 3,0.2 3,0.2 l -0.75,-0.45 c -0.75,-0.4 -1.9,-1.65 -1.9,-1.65 l 0.65,0.7 -0.65,-0.7 1.4,0.6 c 1.35,0.65 3.95,1.6 3.95,1.6 l -0.35,-0.6 -0.7,-1.9 0.95,0.6 c 0.95,0.6 1.1,0.95 1.1,0.95 l 0.2,-0.5 c 0.15,-0.5 0.95,-1.3 0.95,-1.3 l 0,0.55 c 0,0.5 -0.1,0.95 -0.1,0.95 l 1.65,-1.2 -0.2,0.75 c -0.15,0.8 -0.95,1.5 -0.95,1.5 l 1.05,-0.55 c 1,-0.5 3.2,-2.5 3.2,-2.5 l -0.55,1.75 c -0.25,0.65 -0.85,1.3 -1.9,1.85 l -0.025,-0.025 4.675,-2.125 -0.35,1.2 c -0.35,1.2 -1.75,2.25 -1.75,2.25 l 0.55,-0.35 c 0.5,-0.35 5.3,-2.05 5.3,-2.05 l -0.7,0.7 -0.25,0.3 -0.05,0.1 -0.2,0.25 -0.1,0.1 -0.25,0.4 -0.1,0.1 -0.2,0.3 -0.1,0.2 -0.65,1 0.7,-0.25 -0.7,0.25 c 0,0 0.95,-0.25 2.7,-1.45 0.7,-0.5 2.05,-2 2.45,-2.35 l 0.05,0.05 0.9,-0.85 c 2.3,-1.95 5.55,-4.8 6.2,-6.95 l 0.25,-0.9 0.15,-0.2 -0.2,1.45 0,0.25 c 0,0 0.9,-1 1.35,-2.6 l -0.1,-0.15 0.25,-0.8 0.05,-0.95 0.6,-1.2 0.25,-0.7 0,-0.15 c 0.3,-1.3 -0.75,-3.5 -0.75,-3.5 l 0.5,1.25 -0.5,-1.25 -0.25,1.7 c -0.95,4.95 -3.8,6.75 -3.8,6.75 l 1.55,-1.5 -1.55,1.5 1.6,-5.5 c 0.15,-0.5 -0.25,-2.2 -0.25,-2.2 0,0 -4,7.15 -3.75,6.5 0.35,-1.2 -0.35,-7.95 -0.35,-7.95 l 0,0.5 c 0,0.55 -1.45,7.55 -1.45,7.55 0,0 0.4,-2.75 0.25,-4.05 -0.1,-1.3 -1.25,-3.8 -1.25,-3.8 l 0.6,1.4 -0.6,-1.4 -0.15,3.15 c -0.15,4.05 -1.85,4.95 -1.85,4.95 l 0.85,-0.95 -0.85,0.95 c 0,0 0.8,-2.35 0.85,-4.95 0,-2.6 -1.15,-4.95 -1.15,-4.95 l 0.6,1.5 -0.6,-1.5 0.1,2.4 -0.1,-2.4 c 0,0 0.5,3.9 -0.7,7.3 -0.55,1.5 -2.2,3.6 -2.2,3.6 0,0 0.9,-2.85 0.95,-7 0.05,-4.2 -1.5,-8.8 -1.5,-8.8"
             inkscape:connector-curvature="0"
             style="fill:#d5dfe7" />
        </g>
        <g
           id="group1">
          <g
             id="drawingObject3">
            <path
               id="path3"
               d="m -25.049,-15.649 0.4,0.75 c -0.15,2.6 1.45,4.55 1.45,4.55 l 0,-0.25 -0.15,-1.5 2.1,3.75 c 0.7,1.25 4.95,5.65 6.5,6.85 1.5,1.25 3.9,2.3 3.9,2.3 0,0 -0.95,-0.6 -1.35,-0.95 l -1.45,-1.25 2.15,1 c 1.7,0.7 3.15,0.45 3.15,0.45 l -0.5,-0.25 -2.8,-2.05 1.95,0.65 c 1.95,0.6 4.8,0.45 4.8,0.45 l -1.8,-1.5 0.85,0.35 c 0.85,0.35 3,0.2 3,0.2 l -0.75,-0.45 c -0.75,-0.4 -1.9,-1.65 -1.9,-1.65 l 0.65,0.7 -0.65,-0.7 1.4,0.6 c 1.35,0.65 3.95,1.6 3.95,1.6 l -0.35,-0.6 -0.7,-1.9 0.95,0.6 c 0.95,0.6 1.1,0.95 1.1,0.95 l 0.2,-0.5 c 0.15,-0.5 0.95,-1.3 0.95,-1.3 l 0,0.55 c 0,0.5 -0.1,0.95 -0.1,0.95 l 1.65,-1.2 -0.2,0.75 c -0.15,0.8 -0.95,1.5 -0.95,1.5 l 1.05,-0.55 c 1,-0.5 3.2,-2.5 3.2,-2.5 l -0.55,1.75 c -0.25,0.65 -0.85,1.3 -1.9,1.85 l -0.025,-0.025 4.675,-2.125 -0.35,1.2 c -0.35,1.2 -1.75,2.25 -1.75,2.25 l 0.55,-0.35 c 0.5,-0.35 5.3,-2.05 5.3,-2.05 l -0.7,0.7 -0.25,0.3 -0.05,0.1 -0.2,0.25 -0.1,0.1 -0.25,0.4 -0.1,0.1 -0.2,0.3 -0.1,0.2 -0.65,1 0.7,-0.25 -0.7,0.25 c 0,0 0.95,-0.25 2.7,-1.45 0.7,-0.5 2.05,-2 2.45,-2.35 l 0.05,0.05 0.9,-0.85 c 2.3,-1.95 5.55,-4.8 6.2,-6.95 l 0.2,-0.75 0,-0.1 c -0.2,0.25 -1.2,1.25 -3.5,3.1 q -1.6,1.3 -3.8,2.4 l -1.85,0.85 4.5,-5 -2.45,1.9 c -2.4,1.9 -5,2.05 -5,2.05 l 1.6,-0.3 -1.6,0.3 1.05,-0.9 c 1.05,-0.85 2.25,-2.9 2.25,-2.9 l -1.9,1 c -1.9,1.05 -5.3,1.35 -5.3,1.35 l 1.95,-0.3 -1.95,0.3 0,-2.25 c 0,0 -0.5,0.85 -1.05,1.4 -0.5,0.5 -2.4,1.55 -2.4,1.55 l 1,-0.6 -1,0.6 -4.8,-3.2 0.5,1.4 c 0.35,0.55 2.4,2.45 2.4,2.45 0,0 -0.85,0 -3.6,-0.2 -2.75,-0.2 -6.85,-2.85 -6.85,-2.85 l 2.4,1.35 -2.4,-1.35 0.7,0.9 c 0.65,0.85 4.1,2.3 4.1,2.3 l -3.6,-0.75 c -3.6,-0.7 -8.2,-4.4 -8.2,-4.4 l 2.75,1.95 -2.75,-1.95 0.3,0.7 c 0.35,0.7 3.25,3.15 3.25,3.15 l -3.25,-1.75 c -3.25,-1.8 -5.95,-6 -5.95,-6 l 1.75,2.35 -1.75,-2.35 0,0.7 c 0,0.7 0.85,2.45 0.85,2.45 l -1.7,-1.75 c -0.85,-0.85 -1.7,-2.05 -2.45,-3.05 l 0.2,1.4 z"
               inkscape:connector-curvature="0"
               style="fill:#bec6d3" />
          </g>
          <g
             id="drawingObject4">
            <path
               id="path4"
               d="m 22.551,-11.749 c 0,0 0.65,-2.2 0.1,-1.2 q -0.15,0.3 -0.15,1.25 l 0.05,-0.05 z"
               inkscape:connector-curvature="0"
               style="fill:#d0cdb8" />
          </g>
        </g>
        <g
           id="drawingObject5">
          <path
             id="path5"
             d="m -6.549,-38.499 c 0,0 -0.25,-0.85 0.35,-1.3 l 0.6,-0.4 c 0,0 -1.55,0.25 -2.7,1 l -1.1,0.8 1.75,-1.85 c 0,0 -1.55,0.1 -2.45,0.7 l -0.85,0.6 0.65,-0.7 -0.65,0.7 c 0,0 1.15,-1.3 1.75,-1.65 l 0.6,-0.35 c 0,0 -1.75,0.25 -3.45,1.2 l -2.15,1.2 0.4,-0.7 -0.4,0.7 c 0,0 0.6,-1.3 1.2,-1.8 l 0.6,-0.55 c 0,0 -1.45,0.55 -1.9,0.8 l -0.4,0.25 c 0,0 0.1,-0.7 0.4,-1.05 0.35,-0.35 1.5,-1.1 1.5,-1.1 l -3,0.85 0.2,-0.55 -0.2,0.55 c 0,0 0.15,-1.05 1,-1.25 0.9,-0.15 1.25,-0.4 1.25,-0.4 0,0 -2.1,0.5 -3.65,1.1 l -1.55,0.6 c 0,0 -0.5,-0.6 0.1,-0.85 0.6,-0.3 1.2,-0.9 1.2,-0.9 0,0 -0.85,0.25 -1.8,0.8 l -1.3,0.65 0,-0.5 q -0.45,0.25 -1.65,1.45 -1.4,1.35 -1.95,2.35 c -0.9,1.45 -1.35,2.75 -1.35,2.75 l 1.9,-2.1 -1.9,2.1 c 0,0 3.6,-4.05 4.55,-4.65 l 0.9,-0.6 -3.2,4.5 c 0.25,-0.25 2.35,-2.25 4.05,-3.45 l 1.75,-1.2 c 0,0 -1.65,2.75 -2.1,3.9 -0.45,1.15 -0.8,3.45 -0.7,3.2 0.1,-0.25 1.9,-3 3.2,-4.3 l 1.3,-1.3 -0.45,1.3 0.45,-1.3 c 0,0 -0.85,2.25 -1.15,3.8 -0.25,1.6 -0.25,2.6 -0.25,2.6 0,0 0.75,-2.3 1.3,-3 l 0.5,-0.7 0.05,4.85 c 0,0 0.1,-1.35 0.9,-3 0.75,-1.65 3.55,-3.2 3.55,-3.2 l -0.5,1.25 0.5,-1.25 c 0,0 -1,2.25 -1.05,3.4 -0.1,1.1 -0.2,1.45 -0.2,1.45 0,0 0.85,-2.15 1.45,-3.05 l 0.65,-0.85 -0.3,2.2 0,0.65 c 0,0 0.35,-0.5 0.95,-1.9 0.6,-1.35 2.1,-1.7 2.1,-1.7 l -0.15,4.1 c 0,0 1.65,-2.45 2,-3.2 l 0.35,-0.8 0.1,2.2 0.7,-1.25 0.25,-0.35 1.5,3.7 c 0,0 0,-1.5 0.2,-2.35 l 0.25,-1.25 0.25,0.8 -0.25,-0.8 c 0,0 0.45,1.4 0.45,2.05 l -0.05,0.6 0.45,-2.95 0.45,0.4 -0.45,-0.4 c 0,0 0.9,0.7 0.95,0.95 l 0.1,0.25 c 0,0 0.15,-0.7 0,-1.4 l -0.4,-1.55 -0.2,0.6 -0.75,0.1 0,0.7 -0.8,-0.9 -0.7,1.4 c 0,0 -0.3,-1.05 -0.2,-1.5 l 0.05,-0.45 -0.7,0.8 -0.25,0.35 c 0,0 -0.25,-0.1 -0.25,-0.7 0,-0.6 -0.7,0.35 -0.7,0.35 l 0.35,-0.4 -0.35,0.4 c 0,0 -0.15,-0.95 0.1,-1.3 l 0.3,-0.35 -1.6,1.1 -0.3,0.25 z"
             inkscape:connector-curvature="0"
             style="fill:#f2f2f2" />
        </g>
        <g
           id="drawingObject6">
          <path
             id="path6"
             d="m 6.551,-37.999 -0.5,-0.4 0.45,0.8 q 0.4,0.9 0.4,1.25 l 0,0.5 c 0,0 0.25,-0.85 0.15,-1.4 -0.05,-0.5 -1,-1.15 -1,-1.15"
             inkscape:connector-curvature="0"
             style="fill:#f4f1d9" />
        </g>
        <g
           id="drawingObject7">
          <path
             id="path7"
             d="m 13.651,-40.199 -0.85,-0.35 1,0.85 0.5,0.35 c 0,0 -0.65,-0.15 -1.1,-0.5 l -1.45,-0.9 1.35,1.6 -2.4,-0.55 0.85,0.7 q 0.9,0.85 1.2,1.55 l 0.7,1.6 c 0,0 0.05,-0.25 0,-0.95 l -0.2,-1.15 0.75,0.5 -0.75,-0.5 c 0,0 1.3,0.8 2.05,1.65 0.8,0.9 0.95,1.4 0.95,1.4 0,0 -0.25,-1.65 -0.6,-2.6 l -0.3,-0.95 1.25,0.6 -1.25,-0.6 c 0,0 2.3,0.95 3.15,1.95 0.85,0.95 1.2,1.2 1.2,1.2 0,0 -0.5,-1.65 -1.1,-2.8 l -0.85,-1.45 1.55,0.5 -1.55,-0.5 c 0,0 2.85,0.7 3.95,1.95 l 1.1,1.2 c 0,0 -0.85,-2.25 -1.8,-3.25 -0.9,-0.95 -1.25,-1.65 -2.4,-1.9 l -1.1,-0.3 1.55,1.35 c 0,0 -1.2,-0.8 -2.25,-1 l -1,-0.15 1.55,0.95 0.15,0.25 c 0,0 -1.2,-0.7 -2.2,-1.15 l -1.5,-0.45 2.3,1.95 c 0,0 -1.1,-0.25 -1.95,-0.7 l -1.45,-0.55 2.15,1.5 c 0,0 -0.35,0 -1.2,-0.35 z"
             inkscape:connector-curvature="0"
             style="fill:#f2f2f2" />
        </g>
      </g>
    </g>
  </g>
</svg>
