<?xml version="1.0" encoding="UTF-8" standalone="no"?>
<!-- Generator: flash2svg, http://dissentgraphics.com/tools/flash2svg -->

<svg
   xmlns:dc="http://purl.org/dc/elements/1.1/"
   xmlns:cc="http://creativecommons.org/ns#"
   xmlns:rdf="http://www.w3.org/1999/02/22-rdf-syntax-ns#"
   xmlns:svg="http://www.w3.org/2000/svg"
   xmlns="http://www.w3.org/2000/svg"
   xmlns:sodipodi="http://sodipodi.sourceforge.net/DTD/sodipodi-0.dtd"
   xmlns:inkscape="http://www.inkscape.org/namespaces/inkscape"
   id="AvatarAssets"
   image-rendering="auto"
   version="1.1"
   x="0px"
   y="0px"
   width="66.042999"
   height="60.853462"
   viewBox="0 0 66.042999 60.853462"
   inkscape:version="0.48.4 r9939"
   sodipodi:docname="AvatarAssets_backHatPanda.svg">
  <metadata
     id="metadata4048">
    <rdf:RDF>
      <cc:Work
         rdf:about="">
        <dc:format>image/svg+xml</dc:format>
        <dc:type
           rdf:resource="http://purl.org/dc/dcmitype/StillImage" />
      </cc:Work>
    </rdf:RDF>
  </metadata>
  <sodipodi:namedview
     pagecolor="#ffffff"
     bordercolor="#666666"
     borderopacity="1"
     objecttolerance="10"
     gridtolerance="10"
     guidetolerance="10"
     inkscape:pageopacity="0"
     inkscape:pageshadow="2"
     inkscape:window-width="640"
     inkscape:window-height="480"
     id="namedview4046"
     showgrid="false"
     fit-margin-top="0"
     fit-margin-left="0"
     fit-margin-right="0"
     fit-margin-bottom="0"
     inkscape:zoom="1.9032258"
     inkscape:cx="65.026664"
     inkscape:cy="-56.995539"
     inkscape:window-x="0"
     inkscape:window-y="0"
     inkscape:window-maximized="0"
     inkscape:current-layer="AvatarAssets" />
  <defs
     id="defs3980" />
  <g
     id="backHatPanda1"
     overflow="visible"
     style="overflow:visible"
     transform="translate(33.026664,55.849)">
    <g
       id="backHatPanda_0">
      <g
         id="element">
        <g
           id="group1">
          <g
             id="drawingObject">
            <path
               id="path"
               d="m 21.201,-10.149 c 0,0 -1.2,1.25 -1.7,2.25 q -0.7,1.4 -5.05,4.05 l -1,2.2 1,0 c 0.5,0 0.25,0.45 0.25,0.75 0,0.35 -0.45,1.2 -0.45,1.2 l 0.4,0.3 -0.4,-0.3 c 0,0 0.75,0.4 1,1 0.25,0.55 0.2,1.3 0.2,1.75 0,0.4 -0.75,0.55 -0.75,0.55 l 0.4,0.7 c 0.4,0.65 1.65,0.8 1.9,0.65 0.25,-0.15 0.45,-1 0.45,-1 l 0.9,1 c 0,0 -0.25,-0.6 -0.15,-1.4 0.05,-0.85 0.25,-1.35 0.4,-2.5 l 0.1,-3.2 0.3,0 c 0.35,0 0.85,-0.75 0.85,-0.75 l -0.5,0.1 c -0.5,0.1 -0.5,-1 -0.35,-2 0.15,-1 2.2,-5.35 2.2,-5.35 z"
               inkscape:connector-curvature="0"
               style="fill:#d0cdb8" />
          </g>
          <g
             id="drawingObject1">
            <path
               id="path1"
               d="m -14.749,-1.749 -0.75,-1.4 q -0.95,-0.6 -2.65,-2.05 l -1.5,-1.35 0.75,1.55 -0.75,-1.55 c 0,0 1.5,2.5 1.5,4.9 0,1.35 -0.15,2.2 -0.15,2.2 l 0.5,-0.2 -0.05,0.8 0.05,-0.8 c 0,0 -0.25,1.35 0.15,2.25 0.4,0.95 0.75,1 0.75,1 l 0,-0.65 1.1,0.85 c 1,0.75 2.3,-0.1 2.3,-0.1 0,0 -1,0 -1,-0.4 l 0,-0.75 1.45,-0.1 c 0.5,-0.1 0.75,0 0.5,-0.1 -0.25,-0.05 -1.45,-0.95 -1.45,-1.95 0,-1.05 -1.5,-3.55 -1.5,-3.55"
               inkscape:connector-curvature="0"
               style="fill:#d0cdb8" />
          </g>
        </g>
        <g
           id="group2">
          <g
             id="drawingObject2">
            <path
               id="path2"
               d="m -3.799,-51.899 -1.05,1.15 0.25,-2.2 0,-0.95 c 0,0 -0.95,2.1 -1.75,2.8 l -0.8,0.7 0.15,-0.55 -0.15,0.55 c 0,0 0.35,-0.95 0.2,-1.75 l -0.1,-0.8 c 0,0 -0.25,0.7 -2.8,2.9 -1.05,0.95 -1.7,1.45 -1.95,1.6 l 0,-1.9 c 0,-0.8 -0.35,-0.95 -0.35,-0.95 0,0 -0.55,1.9 -2.15,3.6 -2,2.05 -5.65,4.25 -7.8,7.05 -3.05,3.8 -2.85,4.1 -4.15,7.7 -1.25,3.6 -0.45,5.7 -0.45,5.7 l 0.7,-0.6 c 0,0 -1.3,3.6 -1.05,5.35 0.25,1.75 0.6,0.6 0.6,0.6 l 0.55,2.1 0.35,-1.75 0.1,2.25 -0.1,-2.25 c 0,0 -0.1,3.8 0.95,6.5 l 0.55,1.15 c -0.1,2.5 1.5,4.35 1.5,4.35 l 0,-0.25 -0.2,-1.4 2.1,3.6 c 0.65,1.15 4.85,5.3 6.35,6.5 1.5,1.15 3.8,2.15 3.8,2.15 l -2.75,-2.1 2.1,0.95 c 1.65,0.65 3.1,0.4 3.1,0.4 l -0.5,-0.25 -2.75,-1.9 1.9,0.55 c 1.9,0.6 4.65,0.45 4.65,0.45 l -1.75,-1.45 0.85,0.35 c 0.85,0.3 2.9,0.15 2.9,0.15 l -0.75,-0.4 c -0.75,-0.45 -1.8,-1.6 -1.8,-1.6 l 0.6,0.65 -0.6,-0.65 5.15,2.1 -0.35,-0.6 -0.65,-1.8 0.9,0.55 c 0.95,0.6 1.1,0.95 1.1,0.95 l 0.15,-0.5 c 0.2,-0.5 0.95,-1.25 0.95,-1.25 l 0,0.5 c 0,0.5 -0.1,0.9 -0.1,0.9 l 1.6,-1.15 -0.2,0.75 c -0.15,0.75 -0.9,1.4 -0.9,1.4 l 1,-0.5 c 1,-0.5 3.1,-2.4 3.1,-2.4 l -0.5,1.65 c -0.25,0.65 -0.9,1.3 -1.95,1.85 l 0,-0.025 4.6,-2.175 -0.35,1.2 c -0.3,1.15 -1.65,2.15 -1.65,2.15 l 0.5,-0.35 c 0.5,-0.35 5.15,-2 5.15,-2 l -0.65,0.7 c -0.65,0.65 -1.85,2.65 -1.85,2.65 l 0.7,-1.1 -0.7,1.1 0.7,-0.25 -0.7,0.25 c 0,0 0.95,-0.25 2.6,-1.4 0.7,-0.5 1.95,-1.95 2.35,-2.3 l 0.05,0.05 0.9,-0.85 c 2.2,-1.85 5.35,-4.6 5.95,-6.65 l 0.25,-0.85 0.15,-0.25 -0.2,1.4 0,0.25 c 0,0 1.6,-1.85 1.45,-4.35 l 0.6,-1.15 c 0.75,-1.9 0.9,-4.35 0.9,-5.65 l 0.1,-0.4 0.25,1.3 0.6,-2.1 0.2,0.35 -0.2,-0.35 c 0,0 0.35,1.15 0.6,-0.6 0.1,-0.9 -0.15,-2.25 -0.45,-3.35 l 0.4,-3.1 q 0.2,-1.5 -0.4,-2.8 l -0.4,-1.2 c -1.25,-3.6 -1.05,-3.9 -4.1,-7.7 -0.65,-0.85 -1.4,-1.6 -2.2,-2.3 -0.5,-0.65 -1.2,-1.35 -2.2,-2.15 -4.65,-3.75 -10.9,-4.05 -13.25,-4.05 l 0.4,-0.65 c 0.35,-0.35 0.85,-0.6 0.85,-0.6 0,0 -1.65,0.15 -2.35,0.5 l -0.4,0.2 -0.15,-0.25 c 0.1,-0.3 0.4,-0.8 1,-1.7 l 1.2,-1.75 c 0,0 -1.8,0.5 -3.25,1.2 l -0.05,-0.4 c -0.35,-1.85 -1.2,-3 -1.2,-3 l 0,2.15 c 0,0.7 -0.4,1.7 -0.85,2.55 l -0.95,0.65 0.2,-1.1 -0.2,1.1 c 0,0 0.45,-2 0.25,-2.9 l -0.25,-0.95 c 0,0 -0.7,1.3 -1.75,2.45 z"
               inkscape:connector-curvature="0"
               style="fill:#f4f1d9" />
          </g>
          <g
             id="drawingObject3">
            <path
               id="path3"
               d="m -23.149,-31.949 c -1.15,1.8 -2.15,3.65 -2.55,5.9 -0.45,2.25 -0.45,3.7 -0.45,3.7 l 0.6,-1.25 c 0.45,-0.95 2.4,-2.75 2.4,-2.75 0,0 -0.35,0.5 -0.9,2 -0.5,1.5 -0.7,3.65 -0.7,5.8 0,1.25 0.25,2.7 0.45,3.95 l 0.4,0.7 c -0.15,2.5 1.5,4.35 1.5,4.35 l 0,-0.25 -0.15,-1.4 2.2,3.6 c 0.6,1 4.1,4.35 6,5.95 0.65,-0.8 1.55,-1.4 2.7,-1.85 q 6.5,-2.3 17.1,-2 c 3.55,0.1 5.65,0.9 9.1,0.8 l 1.25,-1.4 0,0.05 1.85,0 0.1,-0.25 c 1.05,-2.55 0.35,-5.4 0.35,-5.4 l 0.75,2.4 c 0,0 2.7,-2.15 3.1,-4.15 l 0.2,-0.9 0.25,-0.2 c 0.5,-0.5 2.3,-2.05 2.8,-4.55 0.55,-2.5 -0.9,-5.85 -0.9,-5.85 l 1.15,0.35 c 0,0 -0.4,-0.7 -1.05,-2.25 -0.6,-1.6 -0.7,-6.1 -2.1,-8.7 -1.4,-2.55 -7.1,-7.9 -10.8,-9.55 -3.7,-1.7 -9.25,-1.85 -9.25,-1.85 l 3.25,0.3 -3.25,-0.3 0.95,-1.3 -1.15,0.45 -1.75,0.95 0.1,-1.1 c 0,-0.65 0.55,-1.65 0.55,-1.65 0,0 -0.35,0.5 -1.7,1.9 l -2.8,3.1 0.95,-3.95 c 0,0 -0.35,0.85 -0.95,1.85 -0.6,1 -3.35,2.15 -3.35,2.15 l 1.45,-0.7 -1.45,0.7 0.8,-1.75 c 0.45,-1.15 1.05,-3.3 1.05,-3.3 0,0 -0.55,0.65 -1.25,1.3 l -2.9,2.35 0.45,-0.65 c 0.45,-0.7 0.95,-2.2 0.95,-2.2 0,0 -0.5,0.7 -1.3,1.5 -0.8,0.85 -3.5,3 -3.5,3 l 1.45,-1.2 -1.45,1.2 0.8,-1.65 c 0.25,-0.75 0.4,-1.5 0.4,-1.5 l -0.6,0.85 c -0.6,0.8 -2.45,2.4 -4.65,4.05 -2.2,1.7 -6,5.45 -7.5,8 -1.5,2.6 -1.9,5.85 -1.9,5.85 l 0.4,-1.95 -0.4,1.95 0.95,-1.85 c 0.6,-1.15 3.1,-3.25 3.1,-3.25 l -1.15,1.85 z"
               inkscape:connector-curvature="0"
               style="fill:#e8e5cd" />
          </g>
          <g
             id="drawingObject4">
            <path
               id="path4"
               d="m 23.851,-15.299 0.25,-0.8 c 0.25,-1.25 -0.75,-3.35 -0.75,-3.35 l -0.25,1.6 c -0.9,4.75 -3.65,6.5 -3.65,6.5 l 1.5,-1.45 -1.5,1.45 1.5,-5.25 c 0.15,-0.5 -0.25,-2.1 -0.25,-2.1 0,0 -3.8,6.85 -3.6,6.25 0.35,-1.15 -0.4,-7.65 -0.4,-7.65 l 0,0.5 c 0,0.5 -1.35,7.25 -1.35,7.25 0,0 0.35,-2.6 0.25,-3.85 -0.15,-1.25 -1.25,-3.65 -1.25,-3.65 l 0.55,1.35 -0.55,-1.35 -0.15,3 c -0.1,3.9 -1.75,4.75 -1.75,4.75 l 0.85,-0.9 -0.85,0.9 c 0,0 0.75,-2.25 0.75,-4.75 0,-2.5 -1.1,-4.75 -1.1,-4.75 0,0 0.5,3.75 -0.65,7 -0.5,1.5 -2.1,3.5 -2.1,3.5 0,0 0.85,-2.75 0.85,-6.75 0,-3.4 -1.05,-7 -1.45,-8.25 0,0.25 -0.05,1.3 -0.15,3.15 -0.65,9.85 -5.4,11.6 -5.4,11.6 l 2.45,-2.1 -2.45,2.1 c 0,0 0.15,-3 0.15,-4.75 0,-1.75 -0.5,-3.5 -0.5,-3.5 0,0 -0.5,1.5 -1,2.65 -0.5,1.1 -1.5,2.75 -1.5,2.75 0,0 0,-1.15 -0.5,-3.15 -0.5,-2 -2,-5.6 -2,-5.6 l 0,2.85 c 0,2.25 -2.75,7.5 -2.75,7.5 l -0.5,-1.35 -1.15,-4.15 -0.75,2 c -0.75,2 -0.75,4.4 -0.75,4.4 l -0.6,-1.15 c -0.65,-1.1 -1.9,-5.35 -1.9,-5.35 l 0.7,2.25 -0.7,-2.25 c 0,0 0,0.75 -0.25,3.35 -0.25,2.65 0,3.25 0,3.25 l -1.25,-1.85 c -1.25,-1.9 -2.6,-9 -2.6,-9 l -0.65,3.85 c -0.35,2.15 0.5,6.5 0.5,6.5 l -1.6,-1.85 c -1.65,-1.9 -2,-5.25 -2,-5.25 l 0.4,1.9 -0.4,-1.9 0.35,6 -2,-3.4 c -2,-3.35 -0.75,-10.1 -0.75,-10.1 0,0 -0.85,2 -1.35,4.25 -0.5,2.25 -0.5,5.25 -0.5,5.25 l -0.9,-2.15 c -0.85,-2.1 -0.35,-5.25 -0.35,-5.25 l -0.25,0.25 c -0.5,1.5 -0.65,3.65 -0.65,5.8 0,1.25 0.2,2.7 0.4,3.95 l 0.35,0.7 c -0.1,2.5 1.5,4.35 1.5,4.35 l 0,-0.25 -0.2,-1.4 2.1,3.6 c 0.65,1.15 4.85,5.3 6.35,6.5 1.5,1.15 3.8,2.15 3.8,2.15 l -2.75,-2.1 2.1,0.95 c 1.65,0.65 3.1,0.4 3.1,0.4 l -0.5,-0.25 -2.75,-1.9 1.9,0.55 c 1.9,0.6 4.65,0.45 4.65,0.45 l -1.75,-1.45 0.85,0.35 c 0.85,0.3 2.9,0.15 2.9,0.15 l -0.75,-0.4 c -0.75,-0.45 -1.8,-1.6 -1.8,-1.6 l 0.6,0.65 -0.6,-0.65 5.15,2.1 -0.35,-0.6 -0.65,-1.8 0.9,0.55 c 0.95,0.6 1.1,0.95 1.1,0.95 l 0.15,-0.5 c 0.2,-0.5 0.95,-1.25 0.95,-1.25 l 0,0.5 c 0,0.5 -0.1,0.9 -0.1,0.9 l 1.6,-1.15 -0.2,0.75 c -0.15,0.75 -0.9,1.4 -0.9,1.4 l 1,-0.5 c 1,-0.5 3.1,-2.4 3.1,-2.4 l -0.5,1.65 c -0.25,0.65 -0.9,1.3 -1.95,1.85 l 0,-0.025 4.6,-2.175 -0.35,1.2 c -0.3,1.15 -1.65,2.15 -1.65,2.15 l 0.5,-0.35 c 0.5,-0.35 5.15,-2 5.15,-2 l -1,1.05 -0.2,0.25 -0.05,0.1 -0.25,0.4 -0.1,0.1 -0.3,0.45 -0.1,0.2 -0.5,0.8 0.7,-0.25 -0.7,0.25 c 0,0 0.95,-0.25 2.6,-1.4 0.7,-0.5 1.95,-1.95 2.35,-2.3 l 0.05,0.05 0.9,-0.85 c 2.2,-1.85 5.35,-4.6 5.95,-6.65 l 0.25,-0.85 0.15,-0.25 -0.2,1.4 0,0.25 c 0,0 0.85,-1 1.25,-2.55 l -0.1,-0.1 0.3,-0.75 0,-0.95 0.6,-1.15 z"
               inkscape:connector-curvature="0"
               style="fill:#dcd9c3" />
          </g>
          <g
             id="group3">
            <g
               id="drawingObject5">
              <path
                 id="path5"
                 d="m 21.801,-11.199 c -0.2,0.25 -1.15,1.25 -3.35,3 q -1.55,1.25 -3.7,2.35 l -1.8,0.8 4.3,-4.8 -2.3,1.8 c -2.35,1.85 -4.85,2 -4.85,2 l 1.55,-0.3 -1.55,0.3 1,-0.8 c 1,-0.85 2.15,-2.85 2.15,-2.85 l -1.8,1 c -1.85,1 -5.2,1.35 -5.2,1.35 l 1.9,-0.3 -1.9,0.3 0,-2.2 c 0,0 -0.5,0.85 -1,1.35 -0.5,0.5 -2.3,1.5 -2.3,1.5 l 0.95,-0.55 -0.95,0.55 -4.7,-3 0.5,1.35 c 0.35,0.5 2.35,2.3 2.35,2.3 l -3.5,-0.15 c -2.65,-0.2 -6.65,-2.65 -6.65,-2.65 l 2.35,1.25 -2.35,-1.25 0.65,0.8 c 0.65,0.85 4,2.2 4,2.2 l -3.5,-0.7 c -3.5,-0.65 -8,-4.15 -8,-4.15 l 2.7,1.85 -2.7,-1.85 0.35,0.65 c 0.3,0.7 3.15,3 3.15,3 l -3.15,-1.65 c -3.2,-1.7 -5.85,-5.65 -5.85,-5.65 l 1.75,2.2 -1.75,-2.2 0,0.65 c 0,0.65 0.85,2.35 0.85,2.35 l -1.7,-1.7 c -0.8,-0.8 -1.65,-1.95 -2.35,-2.9 l 0.2,1.35 0.35,0.7 c -0.1,2.5 1.5,4.35 1.5,4.35 l 0,-0.25 -0.2,-1.4 2.1,3.6 c 0.65,1.15 4.85,5.3 6.35,6.5 1.5,1.15 3.8,2.15 3.8,2.15 l -2.75,-2.1 2.1,0.95 c 1.65,0.65 3.1,0.4 3.1,0.4 l -0.5,-0.25 -2.75,-1.9 1.9,0.55 c 1.9,0.6 4.65,0.45 4.65,0.45 l -1.75,-1.45 0.85,0.35 c 0.85,0.3 2.9,0.15 2.9,0.15 l -0.75,-0.4 c -0.75,-0.45 -1.8,-1.6 -1.8,-1.6 l 0.6,0.65 -0.6,-0.65 5.15,2.1 -0.35,-0.6 -0.65,-1.8 0.9,0.55 c 0.95,0.6 1.1,0.95 1.1,0.95 l 0.15,-0.5 c 0.2,-0.5 0.95,-1.25 0.95,-1.25 l 0,0.5 c 0,0.5 -0.1,0.9 -0.1,0.9 l 1.6,-1.15 -0.2,0.75 c -0.15,0.75 -0.9,1.4 -0.9,1.4 l 1,-0.5 c 1,-0.5 3.1,-2.4 3.1,-2.4 l -0.5,1.65 c -0.25,0.65 -0.9,1.3 -1.95,1.85 l 0,-0.025 4.6,-2.175 -0.35,1.2 c -0.3,1.15 -1.65,2.15 -1.65,2.15 l 0.5,-0.35 c 0.5,-0.35 5.15,-2 5.15,-2 l -1,1.05 -0.2,0.25 -0.05,0.1 -0.25,0.4 -0.1,0.1 -0.3,0.45 -0.1,0.2 -0.5,0.8 0.7,-0.25 -0.7,0.25 c 0,0 0.95,-0.25 2.6,-1.4 0.7,-0.5 1.95,-1.95 2.35,-2.3 l 0.05,0.05 0.9,-0.85 c 2.2,-1.85 5.35,-4.6 5.95,-6.65 l 0.2,-0.75 0,-0.1 z"
                 inkscape:connector-curvature="0"
                 style="fill:#d0cdb8" />
            </g>
            <g
               id="drawingObject6">
              <path
                 id="path6"
                 d="m 21.851,-11.199 c 0,0 0.6,-2.15 0.1,-1.15 q -0.15,0.25 -0.15,1.15 l 0.05,0 z"
                 inkscape:connector-curvature="0"
                 style="fill:#d0cdb8" />
            </g>
          </g>
          <g
             id="drawingObject7">
            <path
               id="path7"
               d="m -23.749,-36.099 -1.25,2.65 1.85,-2.05 -1.85,2.05 c 0,0 3.45,-3.95 4.35,-4.5 l 0.9,-0.6 -3.05,4.35 c 0.25,-0.25 2.25,-2.15 3.9,-3.35 l 1.65,-1.15 c 0,0 -1.55,2.65 -2,3.75 -0.4,1.1 -0.75,3.35 -0.65,3.1 0.1,-0.25 1.85,-2.95 3.1,-4.2 l 1.25,-1.25 c 0,0 -0.85,2.2 -1.1,3.7 l -0.25,2.5 0.45,-1.2 -0.45,1.2 c 0,0 0.75,-2.25 1.25,-2.95 l 0.5,-0.65 0.1,4.65 0.1,-0.85 -0.1,0.85 c 0,0 0.05,-1.35 0.8,-2.9 0.75,-1.6 3.45,-3.1 3.45,-3.1 0,0 -0.95,2.2 -1,3.25 l -0.2,1.45 0.5,-1.15 -0.5,1.15 c 0,0 0.85,-2.1 1.45,-2.95 l 0.55,-0.8 c 0,0 -0.25,1.4 -0.25,2.05 l 0,0.7 0.95,-1.85 c 0.55,-1.35 2,-1.65 2,-1.65 l -0.1,3.9 0.85,-1.25 -0.85,1.25 c 0,0 1.6,-2.35 1.9,-3.1 l 0.35,-0.75 0.1,2.1 0.65,-1.15 0.25,-0.35 1.5,3.5 0.15,-2.25 0.25,-1.15 c 0,0 0.45,1.3 0.45,1.9 l 0,0.6 0.3,-2.5 0.1,-0.35 c 0,0 0.85,0.65 0.9,0.9 l 0.1,0.25 0.05,-0.4 -0.05,0.4 c 0,0 0.15,-0.65 0,-1.3 l -0.4,-1.5 -0.2,0.55 -0.75,0.1 0,0.65 -0.75,-0.8 -0.65,1.3 -0.15,-0.55 0.15,0.55 c 0,0 -0.35,-1 -0.25,-1.4 l 0.1,-0.4 c 0,0 -0.45,0.4 -0.7,0.75 l -0.25,0.3 c 0,0 -0.25,-0.1 -0.25,-0.65 0,-0.6 -0.65,0.35 -0.65,0.35 l -0.05,-0.5 0.05,0.5 c 0,0 -0.15,-0.95 0.1,-1.25 l 0.25,-0.35 -1.85,1.35 -0.05,-0.45 0.05,0.45 c 0,0 -0.25,-0.85 0.35,-1.25 l 0.55,-0.45 c 0,0 -1.5,0.25 -2.55,1 l -1.1,0.75 1.65,-1.75 c 0,0 -1.5,0.1 -2.3,0.7 l -0.85,0.55 0.6,-0.65 -0.6,0.65 c 0,0 1.1,-1.25 1.65,-1.55 l 0.6,-0.35 c 0,0 -1.65,0.25 -3.35,1.15 l -2.05,1.2 0.35,-0.7 -0.35,0.7 c 0,0 0.55,-1.25 1.15,-1.75 l 0.6,-0.5 c 0,0 -1.45,0.5 -1.85,0.75 l -0.4,0.25 0.05,-0.4 -0.05,0.4 c 0,0 0.05,-0.7 0.4,-1 0.35,-0.35 1.4,-1.1 1.4,-1.1 l -2.9,0.85 0.2,-0.5 -0.2,0.5 c 0,0 0.15,-1 1,-1.2 0.85,-0.15 1.15,-0.4 1.15,-0.4 0,0 -2,0.5 -3.5,1.1 l -1.5,0.55 -0.15,-0.3 0.15,0.3 c 0,0 -0.5,-0.55 0.1,-0.8 0.6,-0.25 1.15,-0.85 1.15,-0.85 0,0 -0.8,0.25 -1.75,0.75 l -1.25,0.65 0,-0.5 q -0.45,0.25 -1.6,1.4 -1.3,1.3 -1.9,2.3 z"
               inkscape:connector-curvature="0"
               style="fill:#f4f1d9" />
          </g>
          <g
             id="drawingObject8">
            <path
               id="path8"
               d="m 6.601,-35.549 c -0.1,-0.5 -1,-1.05 -1,-1.05 q 0.85,1.4 0.85,1.9 l 0,0.5 0.1,-0.5 -0.1,0.5 c 0,0 0.25,-0.85 0.15,-1.35 z"
               inkscape:connector-curvature="0"
               style="fill:#f4f1d9" />
          </g>
          <g
             id="drawingObject9">
            <path
               id="path9"
               d="m 11.501,-38.299 -1.4,-0.5 2.1,1.45 -1.2,-0.35 -0.8,-0.35 1,0.85 0.5,0.35 c 0,0 -0.7,-0.2 -1.1,-0.5 l -1.4,-0.85 1.3,1.5 -2.3,-0.5 q 1.5,1.1 2,2.15 l 0.65,1.5 0,-0.9 -0.15,-1.1 0.7,0.5 -0.7,-0.5 c 0,0 1.25,0.75 2,1.6 0.75,0.85 0.9,1.35 0.9,1.35 l -0.9,-3.45 1.25,0.55 -1.25,-0.55 c 0,0 2.25,0.9 3.05,1.85 0.85,0.9 1.2,1.15 1.2,1.15 0,0 -0.5,-1.6 -1.1,-2.65 l -0.85,-1.4 1.5,0.45 -1.5,-0.45 c 0,0 2.75,0.65 3.85,1.8 l 1.1,1.2 c 0,0 -0.85,-2.2 -1.75,-3.1 -0.95,-0.9 -1.25,-1.6 -2.35,-1.85 l -1.1,-0.25 1.5,1.25 c 0,0 -1.15,-0.75 -2.15,-0.9 l -1,-0.15 c 0,0 1.35,0.65 1.5,0.9 l 0.15,0.25 c 0,0 -1.15,-0.65 -2.15,-1.1 l -1.4,-0.4 2.25,1.85 c 0,0 -1.1,-0.25 -1.95,-0.7 z"
               inkscape:connector-curvature="0"
               style="fill:#f4f1d9" />
          </g>
          <g
             id="drawingObject10">
            <path
               id="path10"
               d="m 20.951,-36.699 c -0.25,-0.75 -3.45,-2.4 -3.45,-2.4 q 2.1,1.65 2.95,3.15 c 0.8,1.5 1.05,2.15 1.05,2.15 l -0.55,-2.9 z"
               inkscape:connector-curvature="0"
               style="fill:#f4f1d9" />
          </g>
        </g>
        <g
           id="group4">
          <g
             id="drawingObject11">
            <path
               id="path11"
               d="m -26.299,-30.949 q -0.3,0.45 -0.5,1.15 -0.25,0.7 -0.15,0.9 c 0.15,0.2 0.95,-0.05 1.3,-0.05 0.35,0 0.9,-0.25 1.35,0.3 0.4,0.6 0.3,0.7 0.25,1.6 -0.1,0.9 0,1.4 0,1.4 0,0 0.4,-2.55 1.25,-3.9 0.8,-1.35 0.9,-1.65 0.9,-1.65 l -0.35,2.05 -0.05,0.6 0.35,-0.95 -0.35,0.95 c 0,0 0.55,-1.65 1.25,-2.65 0.15,-0.25 0.3,-0.5 0.5,-0.75 -0.15,0.3 -0.2,0.55 -0.2,0.8 l 0,1.25 0.7,-1.85 -0.7,1.85 c 0,0 1.2,-3.3 2,-4.8 l 1.2,-2 0.15,2.05 0.6,-2.9 c 0.25,-0.75 0.55,-1.65 1.55,-2.4 1,-0.75 1.25,-1.35 1.25,-1.35 l 0.25,-0.9 -0.25,0.9 c 0,0 0.5,-1.6 0.5,-2.25 l 0,-0.65 c 0,0 -0.3,-0.4 -1.65,-0.5 -1.35,-0.1 -3.35,1.65 -3.3,2.1 0.05,0.45 -7.85,11.65 -7.85,11.65 z"
               inkscape:connector-curvature="0"
               style="fill:#d0cdb8" />
          </g>
          <g
             id="drawingObject12">
            <path
               id="path12"
               d="m 15.501,-41.149 c 0.7,0.95 1.1,1.25 1.7,2.6 l 0.9,2.15 0.1,-0.8 c 0,0 0.75,2.05 1.5,3.4 l 1.4,2.35 -0.1,-0.95 c 0,0 0.75,2.6 1.45,3.2 l 1.05,0.9 c 0.85,0.75 1.25,1.35 1.25,1.35 0,0 -0.25,-2 -0.05,-1.75 0.15,0.25 0.9,1.15 0.9,1.4 l 0,0.25 c 0,0 0.25,0 0.25,-2.35 0,-2.3 -0.25,-2.5 -0.35,-3.5 -0.05,-1 -3.55,-6.55 -3.55,-6.55 q -1,-0.75 -2.6,-1.75 c -1.6,-1 -3.4,-1.5 -3.75,-2.1 -0.35,-0.6 -0.05,-1 -0.35,-1.35 l -0.4,-0.75 c 0,0 0.25,1.25 0,1.85 -0.25,0.6 0,1.5 0.65,2.4 z"
               inkscape:connector-curvature="0"
               style="fill:#d0cdb8" />
          </g>
        </g>
        <g
           id="group5">
          <g
             id="drawingObject13">
            <path
               id="path13"
               d="m -14.649,-46.199 -1.1,1 0.35,0.15 c 0.35,0.2 0.35,0.25 1.1,1.1 0.75,0.8 1.55,2.9 1.55,2.9 l 0.35,-1.15 c 0.1,-0.35 -0.15,-1.1 -0.6,-2.45 q -0.4,-1.3 -1.65,-1.55 z"
               inkscape:connector-curvature="0"
               style="fill:#f4f1d9" />
          </g>
          <g
             id="drawingObject14">
            <path
               id="path14"
               d="m 14.601,-44.549 c -0.15,-0.4 -0.6,-1.5 -1.6,-1.6 q -0.55,1.35 -0.65,1.95 l -0.1,1.4 0.45,-0.4 c 0,0 -0.25,0.8 0.25,1.55 0.5,0.75 1,1.1 1,1.1 l 0,-1.15 c 0.05,-0.95 0.25,-1.45 0.25,-1.45 l 0.2,0.15 -0.2,-0.15 c 0,0 0.4,0.45 0.4,-0.15 0,-0.6 0.15,-0.8 0,-1.25 z"
               inkscape:connector-curvature="0"
               style="fill:#f4f1d9" />
          </g>
        </g>
        <g
           id="group6">
          <g
             id="drawingObject15">
            <path
               id="path15"
               d="m -27.599,-48.549 -0.95,0.6 0.45,0.15 c 0,0 -1.8,1 -2.95,2.95 l -1.65,2.85 0.45,-0.4 c 0,0 -0.95,1.65 -0.75,3.45 0.2,1.8 0.5,2.3 0.5,2.3 l -0.15,-0.45 0.15,0.45 0.25,-0.55 c 0,0 0.45,0.35 0.45,1.1 l 0,0.8 0.6,-0.35 c 0,0 0.05,1.35 0.35,1.75 0.3,0.4 1.05,1.05 1.05,1.05 l 0.05,-0.55 c 0,0 1,0.3 0.95,1.35 l 0.05,1.55 c 0,0 0.1,-0.2 0.25,0.25 0.15,0.5 0,1.1 0,1.1 l 1.05,0.5 c 0.2,0.15 1,-0.8 1.35,-0.7 0.4,0.1 0.35,-0.3 1,-0.3 0.6,-0.05 1.1,0.6 1.6,-0.2 0.55,-0.85 1.8,-2.3 2.05,-2.75 l 0.25,-0.5 0.4,-1.6 -0.4,1.6 c 0,0 0.65,-3 1.35,-3.95 0.7,-0.95 0.9,-1.2 1.5,-1.4 0.55,-0.2 0.75,-0.45 0.95,-0.85 l 0.7,-1.05 0.7,-0.7 -0.7,0.7 c 0,0 1.25,-1.2 1.8,-2.2 l 0.55,-1 c 0,0 0.05,-0.95 -0.2,-1.45 -0.25,-0.5 -1.5,-0.95 -1.5,-0.95 0,0 1.1,0.85 0.75,1.1 q -1.95,-0.55 -3.2,-1 c -1.25,-0.45 -2.2,-1.5 -2.2,-1.5 l 0.65,0.6 -0.65,-0.6 -0.35,0.9 c 0,0 -1.9,-2.15 -3.1,-2.55 l -1.45,-0.5 0.1,0.45 c 0,0 -1.15,-0.1 -2.1,0.5 z"
               inkscape:connector-curvature="0"
               style="fill:#4a4942" />
          </g>
          <g
             id="drawingObject16">
            <path
               id="path16"
               d="m -26.749,-47.599 c 0,0 1.3,-1.1 2.6,-0.35 1.3,0.8 3.1,1.5 3.1,1.5 0,0 -1.9,-2.15 -3.1,-2.55 l -1.45,-0.5 0.1,0.45 c 0,0 -1.15,-0.1 -2.1,0.5 l -0.95,0.6 0.45,0.15 c 0,0 -1.5,0.85 -2.6,2.45 l 1,-0.7 c 0.7,-0.55 1.35,-0.5 1.35,-0.5 0,0 -0.45,0.5 -0.65,0.9 -0.2,0.45 1.35,-1.2 2.55,-1.4 l 1.25,-0.15 c 0,0 -0.45,-0.35 -1,-0.35 l -0.55,-0.05 z"
               inkscape:connector-curvature="0"
               style="fill:#706f66" />
          </g>
          <g
             id="drawingObject17">
            <path
               id="path17"
               d="m -23.299,-46.849 -0.45,-0.55 -0.05,0.3 0.25,1.45 c 0,0 -0.3,-0.1 -0.95,-0.15 -0.7,-0.1 -2.15,0.35 -2.15,0.35 l 0.8,-0.2 -0.8,0.2 1.5,0.3 c 0.75,0.2 1.4,0.7 1.4,0.7 l -2.2,0.4 c -1.3,0.25 -1.45,0.8 -1.45,0.8 l 0.25,-0.3 -0.25,0.3 0.9,0.1 c 0.45,-0.1 0.95,0 1.8,0.15 0.85,0.1 2,2.2 2.5,2.7 0.5,0.5 -0.7,3.9 -1.35,4.75 -0.6,0.8 -1.45,0.25 -2.35,-0.1 -0.9,-0.3 -0.9,-1.4 -1.05,-1.55 l -0.15,1.7 -0.5,-1 c -0.45,-1 -0.3,-4.45 -0.3,-4.45 0,0 -0.4,2.2 -0.45,2.85 l 0.1,2 -0.55,-0.85 c -0.55,-0.8 -0.55,-2.4 -0.55,-2.4 l -0.1,0.35 -0.35,1.9 -0.35,-1.1 c -0.4,-1.1 0.2,-2.85 0.2,-2.85 l -0.5,1 c -0.25,0.6 -0.3,2.25 -0.3,2.25 l 0.05,-0.9 -0.05,0.9 -0.25,-1.1 c -0.25,-1.15 0.45,-3.85 0.45,-3.85 l -1.25,3.2 -0.15,-1.2 c -0.15,-0.75 0.2,-2.25 0.55,-3.45 l -1.3,2.2 0.45,-0.4 c 0,0 -0.95,1.65 -0.75,3.45 0.2,1.8 0.5,2.3 0.5,2.3 l -0.15,-0.45 0.15,0.45 0.25,-0.55 c 0,0 0.45,0.35 0.45,1.1 l 0,0.8 0.6,-0.35 q 0,0.35 0.05,0.75 0.1,0.75 0.3,1 c 0.3,0.4 1.05,1.05 1.05,1.05 l 0.05,-0.55 c 0,0 1,0.3 0.95,1.35 l 0.05,1.55 c 0,0 0.1,-0.2 0.25,0.25 0.15,0.5 0,1.1 0,1.1 l 1.05,0.5 c 0.2,0.15 1,-0.8 1.35,-0.7 0.4,0.1 0.35,-0.3 1,-0.3 0.6,-0.05 1.1,0.6 1.6,-0.2 0.55,-0.85 1.8,-2.3 2.05,-2.75 l 0.25,-0.5 0.4,-1.6 -0.4,1.6 c 0,0 0.65,-3 1.35,-3.95 0.7,-0.95 0.9,-1.2 1.5,-1.4 0.55,-0.2 0.75,-0.45 0.95,-0.85 l 0.7,-1.05 0.7,-0.7 -0.7,0.7 c 0,0 1.25,-1.2 1.8,-2.2 l 0.4,-0.7 c -0.8,-1 -1.3,-0.95 -1.3,-0.95 l 0.35,0.1 -0.35,-0.1 -0.05,0.4 c 0,0 -0.7,-0.5 -2,-1.1 -1.3,-0.55 -1.25,-0.3 -2.05,-0.55 -0.5,-0.15 -0.6,-0.3 -0.65,-0.35 l -0.1,0.4 -1.5,-0.6 c -1,-0.4 -1.6,-1.4 -1.6,-1.4"
               inkscape:connector-curvature="0"
               style="fill:#403f39" />
          </g>
          <g
             id="drawingObject18">
            <path
               id="path18"
               d="m -24.099,-32.099 c -0.55,-0.2 -0.85,-0.7 -0.85,-0.7 l 0.2,0.3 -0.2,-0.3 -0.3,1.05 -0.35,-0.45 c -0.35,-0.4 -1.25,-0.85 -2.5,-1.7 -0.75,-0.5 -0.95,-0.8 -1,-0.95 l -0.05,0.95 -0.75,-0.9 c -0.45,-0.5 -0.8,-1.45 -0.8,-1.45 l -0.35,0.85 -0.1,0.5 c 0.05,0.4 0.15,0.8 0.3,1 0.3,0.4 1.05,1.05 1.05,1.05 l 0.05,-0.55 c 0,0 1,0.3 0.95,1.35 l 0.05,1.55 c 0,0 0.1,-0.2 0.25,0.25 0.15,0.5 0,1.1 0,1.1 l 1.05,0.5 c 0.2,0.15 1,-0.8 1.35,-0.7 0.4,0.1 0.35,-0.3 1,-0.3 0.6,-0.05 1.1,0.6 1.6,-0.2 0.55,-0.85 1.8,-2.3 2.05,-2.75 l 0.25,-0.5 0.55,-2.1 c -0.65,1.1 -1.4,2.2 -2.05,2.95 -1.7,1.95 -0.8,0.4 -1.4,0.15 z"
               inkscape:connector-curvature="0"
               style="fill:#3b3934" />
          </g>
          <g
             id="drawingObject19">
            <path
               id="path19"
               d="m -24.899,-43.449 -1.6,0.3 3.2,0.75 c 0.6,0.2 3.15,2.15 3.9,3.1 0.3,0.3 0.2,1 -0.1,1.8 0.45,-0.55 0.7,-0.75 1.15,-0.95 0.55,-0.2 0.75,-0.45 0.95,-0.85 l 0.7,-1.05 0.7,-0.7 -0.7,0.7 c 0,0 1.25,-1.2 1.8,-2.2 0,0 -0.45,-0.15 -1.2,-0.05 q -0.4,0.05 -0.4,-0.05 -0.05,-0.15 -0.5,-0.35 c -0.85,-0.4 -3.1,-0.9 -3.1,-0.9 l 1.25,0.3 -1.25,-0.3 1.75,1.25 -3.4,-0.8 c -2.1,-0.45 -4.75,0.3 -4.75,0.3"
               inkscape:connector-curvature="0"
               style="fill:#3b3934" />
          </g>
          <g
             id="drawingObject20">
            <path
               id="path20"
               d="m -23.049,-42.499 c -0.35,-0.05 -0.75,0 -1,0.05 l -2.3,0.1 -0.95,-0.15 2.2,1.2 c 0.6,0.25 0.85,0.65 0.85,0.65 0,0 -0.65,0.55 -1.35,0.3 -0.75,-0.25 -2.65,-1 -1.9,-0.45 0.75,0.6 0.85,1.95 1.35,2.7 0.45,0.75 0.9,0.95 0.9,0.95 0,0 -1.2,-0.15 -1.5,-1 -0.35,-0.8 -0.55,-1.75 -0.55,-1.75 0,0 -0.95,2.45 -0.3,3.4 0.7,0.95 1.05,1.2 1.05,1.2 0,0 -0.9,-0.2 -1.25,-0.6 l -0.35,-0.35 c 0,0 -0.2,0.9 0.35,1.55 l 0.9,1.1 c 0,0 -0.5,0.1 -1.35,-0.65 -0.8,-0.75 -1.45,-1.75 -1.45,-1.75 l 0.45,0.6 -0.45,-0.6 0.55,1.1 -0.55,-1.1 c 0,0 1,2.1 1.35,2.4 l 0.9,1.15 -0.9,-1.15 c 0.35,0.3 1.3,1.95 2.15,2.35 0.85,0.4 1.6,1.15 2,1.45 0.4,0.25 -0.05,0.8 0.7,-0.05 0.8,-0.85 1.3,-1.9 2.05,-2.75 0.75,-0.9 0.65,-1.55 1.15,-2.45 0.45,-0.85 0.9,-1.4 0.9,-1.4 l -0.05,1.1 c 0.1,-0.4 0.2,-1.5 0.6,-1.95 l 0.35,-0.6 -0.35,0.6 c 0.35,-0.45 0.35,-0.8 0.8,-0.95 0.4,-0.2 1.15,-1.1 1.3,-1.35 0.2,-0.25 -0.15,-0.35 -0.15,-0.35 0,0 -1.45,-0.25 -1.6,-0.5 -0.2,-0.2 -1.95,-1.15 -1.95,-1.15 q -2.2,-0.85 -2.6,-0.9 z"
               inkscape:connector-curvature="0"
               style="fill:#3b3934" />
          </g>
        </g>
        <g
           id="group7">
          <g
             id="drawingObject21">
            <path
               id="path21"
               d="m 15.751,-45.049 c -0.35,-0.2 0.7,-1.05 0.7,-1.05 0,0 -1.2,0.45 -1.45,0.95 -0.2,0.5 -0.15,1.4 -0.15,1.4 l 0,-0.5 0,0.5 -0.25,-0.45 0.75,1.45 c 0.55,1 1.75,2.15 1.75,2.15 l 0.65,1.05 c 0.2,0.4 0.45,0.65 0.95,0.85 0.55,0.2 0.8,0.45 1.5,1.45 0.65,0.95 1.35,4.05 1.35,4.05 l 0.25,0.5 c 0.3,0.45 1.55,1.95 2.1,2.85 0.55,0.85 1,0.2 1.6,0.2 0.65,0.05 0.6,0.45 1,0.35 0.4,-0.1 1.2,0.85 1.35,0.75 l 1.1,-0.55 -0.1,-0.4 0.1,0.4 c 0,0 -0.2,-0.65 -0.05,-1.15 0.15,-0.5 0.25,-0.3 0.25,-0.3 l -0.05,-1.65 c -0.05,-1.1 0.9,-1.4 0.9,-1.4 l 0.1,0.6 1,-1.1 c 0.3,-0.4 0.3,-1.85 0.3,-1.85 l 0.55,0.4 0,-0.8 c -0.05,-0.8 0.4,-1.15 0.4,-1.15 l 0.25,0.5 0.15,-0.45 -0.15,0.45 c 0,0 0.3,-0.45 0.4,-2.35 0.15,-1.75 -0.85,-3.45 -0.85,-3.45 l 0.45,0.4 -1.75,-2.8 c -1.15,-1.9 -2.95,-2.85 -2.95,-2.85 l 1.05,0.7 -1.05,-0.7 0.45,-0.2 -0.95,-0.55 c -0.95,-0.55 -2,-0.45 -2,-0.45 l 0.65,0 -0.65,0 0.1,-0.4 -1.4,0.5 c -1.1,0.4 -2.9,2.5 -2.9,2.5 l 1.05,-1.1 -1.05,1.1 -0.35,-0.85 c 0,0 -0.9,1 -2.05,1.45 l -3.05,1 z"
               inkscape:connector-curvature="0"
               style="fill:#4a4942" />
          </g>
          <g
             id="drawingObject22">
            <path
               id="path22"
               d="m 28.251,-47.399 2.25,1.7 c -1.15,-1.55 -2.6,-2.35 -2.6,-2.35 l 0.85,0.6 -0.85,-0.6 0.45,-0.2 -0.95,-0.55 c -0.95,-0.55 -2,-0.45 -2,-0.45 l 0.65,0 -0.65,0 0.1,-0.4 -1.4,0.5 c -1.1,0.4 -2.9,2.5 -2.9,2.5 l 1.05,-1.1 -1.05,1.1 2.95,-1.5 c 1.2,-0.75 2.5,0.3 2.5,0.3 l -0.55,0.05 c -0.55,0 -0.95,0.35 -0.95,0.35 l 0.25,-0.15 -0.25,0.15 0.3,-0.15 -0.3,0.15 c 0,0 0.25,-0.35 1.45,-0.05 2.05,0.55 2.95,1.95 2.75,1.55 l -0.55,-0.4 0.55,0.4 c -0.2,-0.4 -1.1,-1.45 -1.1,-1.45 z"
               inkscape:connector-curvature="0"
               style="fill:#706f66" />
          </g>
          <g
             id="drawingObject23">
            <path
               id="path23"
               d="m 16.751,-44.349 -0.5,0.35 -0.05,-0.4 c 0,0 -0.45,-0.05 -1.2,1 l 0.35,0.65 c 0.55,1 1.75,2.15 1.75,2.15 l 0.65,1.05 c 0.2,0.4 0.45,0.65 0.95,0.85 0.55,0.2 0.8,0.45 1.5,1.45 0.65,0.95 1.35,4.05 1.35,4.05 l 0.25,0.5 c 0.3,0.45 1.55,1.95 2.1,2.85 0.55,0.85 1,0.2 1.6,0.2 0.65,0.05 0.6,0.45 1,0.35 0.4,-0.1 1.2,0.85 1.35,0.75 l 1.1,-0.55 -0.1,-0.4 0.1,0.4 c 0,0 -0.2,-0.65 -0.05,-1.15 0.15,-0.5 0.25,-0.3 0.25,-0.3 l -0.05,-1.65 c -0.05,-1.1 0.9,-1.4 0.9,-1.4 l 0.1,0.6 1,-1.1 q 0.3,-0.4 0.3,-1.85 l 0.55,0.4 0,-0.8 c -0.05,-0.8 0.4,-1.15 0.4,-1.15 l 0.25,0.5 0.15,-0.45 -0.15,0.45 c 0,0 0.3,-0.45 0.4,-2.35 0.15,-1.75 -0.85,-3.45 -0.85,-3.45 l 0.45,0.4 -1.35,-2.15 c 0.4,1.2 0.75,2.65 0.7,3.4 l -0.15,1.25 c 0,0 0.1,-1.1 -0.3,-2 -0.1,-0.25 -0.15,-0.4 -0.2,-0.55 0.15,1.1 0.25,2.5 -0.15,3.65 l -0.3,0.7 c 0,0 0.5,-1.9 0.2,-2.5 -0.3,-0.6 -0.65,-1.05 -0.65,-1.05 0,0 0.65,1.65 -0.15,3.1 -0.2,0.35 -0.3,0.65 -0.35,0.9 -0.1,-0.3 -0.25,-1.45 -0.35,-1.7 l -0.15,-0.3 c 0,0 0.05,1.6 -0.45,2.45 l -0.5,0.85 0,-2.1 c -0.05,-0.6 -0.5,-2.85 -0.5,-2.85 0,0 0.25,3.5 -0.2,4.5 l -0.45,1.05 -0.1,-1.2 -0.1,-0.55 c -0.1,0.15 -0.1,1.3 -0.95,1.6 -0.9,0.35 -1.7,0.95 -2.35,0.1 -0.65,-0.85 -1.85,-4.3 -1.35,-4.8 0.45,-0.5 1.5,-2.6 2.35,-2.75 0.8,-0.15 1.3,-0.2 1.7,-0.15 0.4,0.05 0.9,-0.1 0.9,-0.1 0,0 -0.2,-0.5 -1.45,-0.75 l -2.15,-0.4 0.4,-0.25 -0.4,0.25 c 0,0 0.65,-0.5 1.35,-0.7 l 1.45,-0.3 c 0,0 -1.4,-0.4 -2.05,-0.3 l -0.95,0.15 0.2,-1.45 -0.05,-0.25 c 0,0 -0.55,1 -1.5,1.4 l -1.4,0.6 -0.1,-0.4 c -0.05,0.05 -0.15,0.15 -0.6,0.3 -0.8,0.3 -0.75,0.05 -1.95,0.6 -1.25,0.55 -1.95,1.1 -1.95,1.1"
               inkscape:connector-curvature="0"
               style="fill:#403f39" />
          </g>
          <g
             id="drawingObject24">
            <path
               id="path24"
               d="m 25.301,-32.949 c 0,0 -0.3,0.55 -0.85,0.75 -0.55,0.25 0.3,1.9 -1.4,-0.15 -0.65,-0.8 -1.45,-1.9 -2.1,-3.05 q 0.35,1.1 0.6,2.2 l 0.25,0.5 c 0.3,0.45 1.55,1.95 2.1,2.85 0.55,0.85 1,0.2 1.6,0.2 0.65,0.05 0.6,0.45 1,0.35 0.4,-0.1 1.2,0.85 1.35,0.75 l 1.1,-0.55 -0.1,-0.4 0.1,0.4 c 0,0 -0.2,-0.65 -0.05,-1.15 0.15,-0.5 0.25,-0.3 0.25,-0.3 l -0.05,-1.65 c -0.05,-1.1 0.9,-1.4 0.9,-1.4 l 0.1,0.6 1,-1.1 c 0.15,-0.2 0.2,-0.65 0.25,-1.05 l -0.15,-0.5 c -0.05,-0.35 -0.35,-0.9 -0.35,-0.9 0,0 -0.3,1 -0.7,1.55 l -0.75,0.9 -0.1,-0.95 c -0.05,0.15 -0.25,0.45 -0.9,0.95 -1.25,0.9 -2.1,1.35 -2.45,1.8 l -0.35,0.45 -0.3,-1.1 z"
               inkscape:connector-curvature="0"
               style="fill:#3b3934" />
          </g>
          <g
             id="drawingObject25">
            <path
               id="path25"
               d="m 16.551,-42.849 -1.2,0.1 c 0.55,1 1.75,2.15 1.75,2.15 l 0.65,1.05 c 0.2,0.4 0.45,0.65 0.95,0.85 0.45,0.2 0.7,0.4 1.15,0.95 -0.3,-0.8 -0.4,-1.5 -0.15,-1.8 0.75,-1 3.15,-2.95 3.75,-3.15 l 3.05,-0.8 c 0,0 -2.6,-0.7 -4.6,-0.2 l -3.25,0.8 1.65,-1.2 c 0,0 -2.1,0.45 -2.95,0.85 q -0.4,0.2 -0.4,0.35 0,0.1 -0.4,0.05 z"
               inkscape:connector-curvature="0"
               style="fill:#3b3934" />
          </g>
          <g
             id="drawingObject26">
            <path
               id="path26"
               d="m 17.151,-40.749 -0.35,-0.7 c 0,0.25 0.7,0.95 0.55,1.8 -0.15,0.8 0.6,1.2 1.15,2 0.5,0.8 0.6,0.8 1.3,1.5 0.7,0.75 0.4,1 0.4,1 l -0.45,-0.05 c 0,0 0.15,0.75 0.65,1.3 0.55,0.55 1.2,0.45 1.65,0.95 0.45,0.45 1.55,1.75 2.25,2.2 0.7,0.5 0.9,0 1.8,-0.05 0.85,-0.1 1.8,-1.75 2.45,-2.05 0.65,-0.35 1.65,-2.2 2.1,-2.65 0.45,-0.45 0.7,-1.15 0.7,-1.15 l -0.05,-0.4 c -0.1,-0.4 0.55,-1.25 0.7,-2.05 0.15,-0.8 0.4,-1.25 0.1,-2.8 -0.3,-1.55 -1.55,-3.2 -1.55,-3.2 0,0 0.3,0.5 0.5,1.2 0.15,0.7 -0.2,1.95 -0.2,1.95 l 0.15,-0.7 -0.15,0.7 -0.15,-0.6 c -0.15,-0.55 -0.65,-1.45 -0.65,-1.45 l 0.2,1.7 c 0.2,1.15 -0.55,1.8 -0.55,1.8 l 0.35,-0.45 -0.35,0.45 0,-0.45 c 0,-0.4 -0.25,-1.8 -0.25,-1.8 l -0.25,1 c -0.15,0.4 -1.25,0.45 -1.25,0.45 l 0.55,-0.05 -0.55,0.05 -0.05,-0.95 c 0,0 -0.4,0.45 -0.8,0.7 -0.4,0.3 -1.25,0.3 -1.25,0.3 l 0.5,-0.05 -0.5,0.05 0.35,-0.75 c 0.35,-0.65 1.2,-1.15 1.2,-1.15 l -0.65,0.05 c -0.7,0.1 -0.95,-0.1 -1.95,-0.25 q -0.65,-0.05 -2.7,0.7 -2.3,0.85 -3,1.1 c 0,0 -2.3,-0.1 -2.3,0.1"
               inkscape:connector-curvature="0"
               style="fill:#3b3934" />
          </g>
        </g>
      </g>
    </g>
  </g>
</svg>
