<?xml version="1.0" encoding="UTF-8" standalone="no"?>
<!-- Generator: flash2svg, http://dissentgraphics.com/tools/flash2svg -->

<svg
   xmlns:dc="http://purl.org/dc/elements/1.1/"
   xmlns:cc="http://creativecommons.org/ns#"
   xmlns:rdf="http://www.w3.org/1999/02/22-rdf-syntax-ns#"
   xmlns:svg="http://www.w3.org/2000/svg"
   xmlns="http://www.w3.org/2000/svg"
   xmlns:sodipodi="http://sodipodi.sourceforge.net/DTD/sodipodi-0.dtd"
   xmlns:inkscape="http://www.inkscape.org/namespaces/inkscape"
   id="AvatarAssets"
   image-rendering="auto"
   version="1.1"
   x="0px"
   y="0px"
   width="71"
   height="49.200001"
   viewBox="0 0 71 49.200001"
   inkscape:version="0.48.4 r9939"
   sodipodi:docname="AvatarAssets_backHatBear.svg">
  <metadata
     id="metadata49">
    <rdf:RDF>
      <cc:Work
         rdf:about="">
        <dc:format>image/svg+xml</dc:format>
        <dc:type
           rdf:resource="http://purl.org/dc/dcmitype/StillImage" />
      </cc:Work>
    </rdf:RDF>
  </metadata>
  <sodipodi:namedview
     pagecolor="#ffffff"
     bordercolor="#666666"
     borderopacity="1"
     objecttolerance="10"
     gridtolerance="10"
     guidetolerance="10"
     inkscape:pageopacity="0"
     inkscape:pageshadow="2"
     inkscape:window-width="640"
     inkscape:window-height="480"
     id="namedview47"
     showgrid="false"
     fit-margin-top="0"
     fit-margin-left="0"
     fit-margin-right="0"
     fit-margin-bottom="0"
     inkscape:zoom="1.9032258"
     inkscape:cx="67.999"
     inkscape:cy="-63.699"
     inkscape:window-x="0"
     inkscape:window-y="0"
     inkscape:window-maximized="0"
     inkscape:current-layer="AvatarAssets" />
  <defs
     id="defs3" />
  <g
     id="backHatBear1"
     overflow="visible"
     style="overflow:visible"
     transform="translate(35.999,50.899)">
    <g
       id="backHatBear_0">
      <g
         id="element">
        <g
           id="drawingObject">
          <path
             id="path"
             d="m -9.599,-49.799 -0.05,0.35 c 0,0.15 -0.2,0.45 -0.4,0.7 -3.4,1.05 -6.55,2.7 -9.1,5.1 -6.3,5.85 -7.65,12.45 -7.4,18.15 -0.05,1.65 -0.15,3.7 -0.1,4.5 l 0.15,1.5 0.45,-1 0.25,1.7 -0.25,-1.7 c 0,0 0.3,2.9 1.25,5.05 0.95,2.15 1.25,2.3 1.25,2.3 l 0.05,-0.8 1.35,1.95 c 0.25,2.05 1,3.65 1,3.65 l -0.15,-1.5 0.4,0.65 c 0.35,0.6 4.1,5.25 4.85,5.85 0.75,0.65 3.4,1.65 3.4,1.65 l -1.25,-1 2.35,0.5 c 1.05,0.2 3.35,0.3 4.3,0.35 -0.45,-0.1 -1.65,-1.1 -1.65,-1.1 l 0.65,0.5 -0.65,-0.5 1.35,0.35 c 1.4,0.4 3.65,0 3.65,0 l -0.4,-0.75 1.4,0.4 c 1.35,0.35 2.85,0.35 2.85,0.35 l -0.85,-0.6 1.1,0.1 c 0.65,0.15 2.9,0.25 4,0.25 1.15,0 1.15,-0.5 1.15,-0.5 l 0,1 0.6,-0.1 c 0.65,-0.15 1.65,-1.15 1.65,-1.15 l 0,0.5 c 0,0.5 -0.5,1 -0.5,1 l 1,-0.25 c 1,-0.25 2.6,-1 2.6,-1 l -0.1,0.5 0,1 0.85,-0.35 c 0.9,-0.4 1.75,-0.65 1.75,-0.65 l 0.15,0.9 2.15,-2.05 -2.15,2.05 c 0,0 3.75,-3.5 5.85,-6 2.15,-2.5 3.65,-6.4 3.65,-6.4 l 0,1.25 c 0,0 0.6,-0.25 1.35,-3.85 0.75,-3.65 0.4,-7.65 0.4,-7.65 l 0.1,2.45 -0.1,-2.45 0.6,0.9 c 0,0 0.25,-2.5 0,-5.25 l -0.05,-0.4 c 0,-1.8 -0.25,-3.85 -0.95,-6 l -0.2,-1.05 c -0.45,-2.2 -1.2,-3.05 -1.2,-3.05 l 0.45,0.7 -0.45,-0.7 1,0.65 -2.65,-3.2 0.7,-0.25 -0.6,-0.05 c -0.4,-0.05 -1.35,-0.6 -1.8,-0.9 -1.35,-1.35 -3,-2.6 -4.95,-3.7 -5.55,-3.05 -13.85,-4.25 -21.45,-2.7 0.15,-0.6 1.5,-1.1 1.5,-1.1 l -0.95,0.2 c -0.9,0.15 -2.05,1.1 -2.05,1.1 l 0.7,-0.5 -0.7,0.5 0.15,-0.35 0.15,-1.15 -0.25,0.45 c -0.2,0.45 -0.9,1.2 -0.9,1.2 l -0.3,-0.55 z"
             inkscape:connector-curvature="0"
             style="fill:#7c521b" />
        </g>
        <g
           id="drawingObject1">
          <path
             id="path1"
             d="m -15.899,-28.349 c 0,0 -0.75,2.15 -0.75,3.4 l 0,3.35 -1.25,-1.85 c -1.25,-1.9 -1.75,-5.5 -1.75,-5.5 l 0.4,2.05 -0.4,-2.05 -0.5,1.75 c -0.4,1.25 0,4 0,4 l -0.9,-3.5 c -0.85,-3.5 -0.25,-9.4 -0.25,-9.4 l -0.2,3.4 0.2,-3.4 -0.75,1.5 c -0.5,1 -1.25,4.65 -1.25,4.65 l 0.15,-1.75 c 0.1,-1.25 0.1,-3.4 1.85,-7.5 1.2,-2.8 5.35,-6.3 7.95,-8.3 -2.1,1 -4.1,2.25 -5.8,3.85 -6.3,5.85 -7.65,12.45 -7.4,18.15 -0.05,1.65 -0.15,3.7 -0.1,4.5 l 0.15,1.5 0.45,-1 0.25,1.7 -0.25,-1.7 c 0,0 0.3,2.9 1.25,5.05 0.95,2.15 1.25,2.3 1.25,2.3 l 0.05,-0.8 1.35,1.95 c 0.25,2.05 1,3.65 1,3.65 l -0.15,-1.5 0.4,0.65 c 0.35,0.6 4.1,5.25 4.85,5.85 0.75,0.65 3.4,1.65 3.4,1.65 l -1.25,-1 2.35,0.5 c 1.05,0.2 3.35,0.3 4.3,0.35 -0.45,-0.1 -1.65,-1.1 -1.65,-1.1 l 0.65,0.5 -0.65,-0.5 1.35,0.35 c 1.4,0.4 3.65,0 3.65,0 l -0.4,-0.75 1.4,0.4 c 1.35,0.35 2.85,0.35 2.85,0.35 l -0.85,-0.6 1.1,0.1 c 0.65,0.15 2.9,0.25 4,0.25 1.15,0 1.15,-0.5 1.15,-0.5 l 0,1 0.6,-0.1 c 0.65,-0.15 1.65,-1.15 1.65,-1.15 l 0,0.5 c 0,0.5 -0.5,1 -0.5,1 l 1,-0.25 c 1,-0.25 2.6,-1 2.6,-1 l -0.1,0.5 0,1 0.85,-0.35 c 0.9,-0.4 1.75,-0.65 1.75,-0.65 l 0.15,0.9 2.15,-2.05 -2.15,2.05 c 0,0 3.75,-3.5 5.85,-6 2.15,-2.5 3.65,-6.4 3.65,-6.4 l 0,1.25 c 0,0 0.6,-0.25 1.35,-3.85 q 0.45,-2.3 0.5,-5.2 l -0.1,-2.45 0.6,0.9 c 0,0 0.25,-2.5 0,-5.25 l -0.05,-0.4 c 0,-1.8 -0.25,-3.85 -0.95,-6 l -0.2,-1.05 c -0.45,-2.2 -1.2,-3.05 -1.2,-3.05 l 0.45,0.7 -0.45,-0.7 1,0.65 -2.65,-3.2 0.7,-0.25 -0.6,-0.05 c -0.4,-0.05 -1.35,-0.6 -1.8,-0.9 l -1.05,-1 c 0.2,0.9 0.05,1.35 0.05,1.35 l 1.15,1.1 -1.15,-1.1 c 0,0 2.15,1.9 2.9,2.9 0.75,1 1.35,4 1.35,4 l -1.5,-1.25 0.35,1.1 -0.35,-1.1 c 0,0 0.65,1.6 0.75,3.85 0.15,2.25 0.15,5.4 0.15,5.4 l -0.15,-1.25 c -0.1,-1.25 -1.6,-4 -1.6,-4 l 0.75,1.55 -0.75,-1.55 0,3.1 c 0,2.5 -1.5,7 -1.5,7 0,0 -0.15,-0.6 -0.25,-2.5 -0.15,-1.85 -2,-5 -2,-5 l 0.95,1.8 -0.95,-1.8 0,2.65 c 0,2.6 -2.15,6.35 -2.15,6.35 l -0.1,-1.1 c -0.15,-1.15 -1.4,-3 -1.4,-3 l 0.65,1.05 -0.65,-1.05 -0.35,2.35 c -0.4,2.4 -3,4.5 -3,4.5 l 1.35,-1.35 -1.35,1.35 -0.15,-2.25 c -0.1,-1.6 -1.1,-5.75 -1.1,-5.75 l 0.5,2.3 -0.5,-2.3 c 0,0 0,1.5 -1.25,3.9 -1.25,2.35 -3.75,3.6 -3.75,3.6 l 0,-1.75 c 0,-1.1 0.6,-3.25 0.6,-3.25 l -0.3,1.2 0.3,-1.2 c 0,0 -1.1,1.5 -1.5,2.65 -0.35,1.1 -2.35,2.6 -2.35,2.6 l -0.25,-2.75 c -0.15,-1.5 -0.9,-3.75 -0.9,-3.75 l 0.4,1.3 -0.4,-1.3 -0.05,1.4 0.05,-1.4 c 0,0 0,2.5 -0.25,3.75 -0.25,1.25 -0.25,3.5 -0.25,3.5 l -1.25,-0.85 c -1.25,-0.9 -1.75,-5.25 -1.85,-4.75 l 0.5,1.85 -0.5,-1.85 c -0.15,0.5 0,1.25 0,2.35 0,1.15 -0.4,2.9 -0.4,2.9 l -1.75,-1.75 -0.35,-1.15 c -0.4,-1.1 -0.4,-3.5 -0.4,-3.5 l 0.05,1.35 -0.05,-1.35 -0.35,1.45 0.35,-1.45 c 0,0 -0.75,2.5 -0.75,3.9 l 0,2.25 c 0,0 -0.5,-0.25 -1.25,-1.4 -0.75,-1.1 -1.85,-3.75 -1.85,-3.75 l 0.65,1.45 -0.65,-1.45 -0.15,4.15 -2.6,-2.5 c -1.65,-1.65 -1.75,-5.9 -1.75,-5.9 z"
             inkscape:connector-curvature="0"
             style="fill:#724715" />
        </g>
        <g
           id="drawingObject2">
          <path
             id="path2"
             d="m 25.201,-28.799 c -0.35,0.65 -0.75,1.25 -0.75,1.95 0,1.5 -1,3.65 -1,3.65 l -0.6,-1.5 -0.25,2.75 c -0.25,2.1 -1,3.1 -1,3.1 l -0.25,-4.35 -1,3.75 c -0.9,3.1 -2.75,4.1 -2.75,4.1 l 1.05,-0.9 -1.05,0.9 0.25,-3.75 c 0,0 -0.9,2 -2.15,3.5 -1.25,1.5 -4.35,3.5 -4.35,3.5 l 1.7,-1.2 -1.7,1.2 0.35,-0.85 c 0.4,-0.9 1.4,-5 1.4,-5 l -1.75,2.1 c -1.75,2.15 -4.5,4.15 -4.5,4.15 l 1.6,-1.25 -1.6,1.25 c 0,0 0,-0.75 0.5,-2 0.5,-1.25 0.25,-3.25 0.25,-3.25 l -1.5,2.35 c -1,1.5 -3.4,3.65 -3.4,3.65 l 1.35,-1.25 -1.35,1.25 c 0,0 0.15,-0.75 0.15,-1.75 l -0.15,-3 c 0,0 -0.1,0.75 -0.6,1.75 -0.5,1 -1.9,2.35 -1.9,2.35 l -0.35,-0.5 c -0.4,-0.5 -1.25,-3.25 -1.25,-3.25 l 0.5,1.45 -0.5,-1.45 -0.15,2.25 c 0,0.75 -0.6,1.5 -0.6,1.5 l -1.65,-1 c -1.6,-1 -2.1,-3.5 -2.1,-3.5 l 0.45,1.4 -0.45,-1.4 0.1,1.4 c 0.15,0.85 -0.1,2.85 -0.1,2.85 l -2.25,-1.35 c -2.25,-1.4 -4,-3.75 -4,-3.75 l 1.15,1.35 -1.15,-1.35 0.1,1.6 0.5,2 c 0,0 -1.35,-0.35 -3.6,-2.1 -2.25,-1.75 -3.5,-3.9 -3.5,-3.9 l 0.9,1.3 -0.9,-1.3 0.1,1.5 c 0.15,0.9 0.65,2.65 0.65,2.65 0,0 -1.15,-0.4 -3.5,-3.75 -2.4,-3.4 -2.25,-7.65 -2.25,-7.65 l 0.25,2.55 -0.25,-2.55 -0.5,4.15 c 0,0 -1.15,-2.9 -1.4,-7.75 -0.1,-2.05 0.45,-4.35 1.1,-6.4 -1.8,3.75 -2.25,7.6 -2.1,11.1 -0.05,1.65 -0.15,3.7 -0.1,4.5 l 0.15,1.5 0.45,-1 0.25,1.7 -0.25,-1.7 c 0,0 0.3,2.9 1.25,5.05 0.95,2.15 1.25,2.3 1.25,2.3 l 0.05,-0.8 1.35,1.95 c 0.25,2.05 1,3.65 1,3.65 l -0.15,-1.5 0.4,0.65 c 0.35,0.6 4.1,5.25 4.85,5.85 0.75,0.65 3.4,1.65 3.4,1.65 l -1.25,-1 2.35,0.5 c 1.05,0.2 3.35,0.3 4.3,0.35 -0.45,-0.1 -1.65,-1.1 -1.65,-1.1 l 0.65,0.5 -0.65,-0.5 1.35,0.35 c 1.4,0.4 3.65,0 3.65,0 l -0.4,-0.75 1.4,0.4 c 1.35,0.35 2.85,0.35 2.85,0.35 l -0.85,-0.6 1.1,0.1 c 0.65,0.15 2.9,0.25 4,0.25 1.15,0 1.15,-0.5 1.15,-0.5 l 0,1 0.6,-0.1 c 0.65,-0.15 1.65,-1.15 1.65,-1.15 l 0,0.5 c 0,0.5 -0.5,1 -0.5,1 l 1,-0.25 c 1,-0.25 2.6,-1 2.6,-1 l -0.1,0.5 0,1 0.85,-0.35 c 0.9,-0.4 1.75,-0.65 1.75,-0.65 l 0.15,0.9 2.15,-2.05 -2.15,2.05 c 0,0 3.75,-3.5 5.85,-6 2.15,-2.5 3.65,-6.4 3.65,-6.4 l 0,1.25 c 0,0 0.6,-0.25 1.35,-3.85 0.75,-3.65 0.4,-7.65 0.4,-7.65 l 0.1,2.45 -0.1,-2.45 0.6,0.9 c 0,0 0.25,-2.4 0,-5.1 z"
             inkscape:connector-curvature="0"
             style="fill:#653f12" />
        </g>
        <g
           id="drawingObject3">
          <path
             id="path3"
             d="m -23.499,-13.949 1.35,1.95 c 0.25,2.05 1,3.65 1,3.65 l -0.15,-1.5 0.4,0.65 c 0.35,0.6 4.1,5.25 4.85,5.85 0.75,0.65 3.4,1.65 3.4,1.65 l -1.25,-1 2.35,0.5 c 1.05,0.2 3.35,0.3 4.3,0.35 -0.45,-0.1 -1.65,-1.1 -1.65,-1.1 l 0.65,0.5 -0.65,-0.5 1.35,0.35 c 1.4,0.4 3.65,0 3.65,0 l -0.4,-0.75 1.4,0.4 c 1.35,0.35 2.85,0.35 2.85,0.35 l -0.85,-0.6 1.1,0.1 c 0.65,0.15 2.9,0.25 4,0.25 1.15,0 1.15,-0.5 1.15,-0.5 l 0,1 0.6,-0.1 c 0.65,-0.15 1.65,-1.15 1.65,-1.15 l 0,0.5 c 0,0.5 -0.5,1 -0.5,1 l 1,-0.25 c 1,-0.25 2.6,-1 2.6,-1 l -0.1,0.5 0,1 0.85,-0.35 c 0.9,-0.4 1.75,-0.65 1.75,-0.65 l 0.15,0.9 2.15,-2.05 -2.15,2.05 c 0,0 3.75,-3.5 5.85,-6 2.15,-2.5 3.65,-6.4 3.65,-6.4 l 0,1.25 c 0,0 0.6,-0.25 1.35,-3.85 l 0.2,-1.2 c -0.85,2.05 -1.3,2.8 -1.3,2.8 l 0,-1.5 c 0,0 -1.15,1.65 -2.65,4.75 -1.5,3.15 -3.6,4 -3.6,4 l 1.25,-0.8 -1.25,0.8 0.25,-1.75 c 0,0 -0.5,1.25 -1.4,2.15 l -2.35,2.5 1.25,-2 c 1.25,-2 1.6,-3.4 1.6,-3.4 l -0.85,1 -2.75,2.65 c 0,0 -1.25,0.5 -1,-0.15 l 0.75,-2.5 c 0,0 -0.9,1.25 -2.65,2.5 l -2.75,2 0.25,-0.5 c 0.25,-0.5 0.65,-2.5 0.65,-2.5 0,0 -0.65,1 -1.75,1.9 l -1.9,1.25 0,-0.5 0.75,-2.9 -0.6,1 -1.9,2.5 0,-0.6 -0.25,-2.75 -0.1,1.25 c -0.15,0.75 -0.65,1.35 -0.65,1.35 0,0 -1.1,-1.75 -1.25,-2.1 l 0,0.6 0.4,1.9 -1,-0.5 c -1,-0.5 -2,-1.65 -2,-1.65 l 0.65,0.65 -0.65,-0.65 1.5,2.25 c 0,0 -0.9,-0.1 -2.15,-0.6 -1.25,-0.5 -2.85,-2.65 -2.85,-2.65 l 0.95,1.15 -0.95,-1.15 0.1,1 c 0.15,1 0.9,1.75 0.9,1.75 l -1.75,-0.5 c -1.75,-0.5 -4.25,-2.75 -4.25,-2.75 l 1.45,1.2 -1.45,-1.2 0.1,0.4 0.9,1.75 c 0,0 -0.5,0 -2.65,-0.9 -2.1,-0.85 -4.6,-2.85 -4.6,-2.85 l 1.5,1.1 -1.5,-1.1 1.1,2.75 c 0,0 -1.75,-1.15 -3.25,-2.65 -1.5,-1.5 -2.85,-2.75 -4,-4.6 -1.1,-1.9 -2.1,-3.65 -2.25,-3.15 l -0.05,0.15 c 0.2,0.8 0.45,1.7 0.8,2.5 0.95,2.15 1.25,2.3 1.25,2.3 l 0.05,-0.8 z"
             inkscape:connector-curvature="0"
             style="fill:#583810" />
        </g>
        <g
           id="drawingObject4">
          <path
             id="path4"
             d="m -1.549,-43.849 -0.1,-1.1 -1.4,1 0,-1 -1.35,1 c 0,0 -0.25,-0.65 -0.15,-1 l 0.15,-0.4 -1.4,0.65 0,-0.75 c 0,0 -2.85,0.35 -3.75,0.85 l -0.85,0.5 0.25,-1.1 c 0,0 -1.4,-0.15 -2.5,0.35 l -1.15,0.5 c 0,0 0,-0.5 0.65,-1.1 l 0.6,-0.65 c 0,0 -0.75,0.15 -1.5,0.4 q -0.6,0.45 -1.2,0.95 -1.25,1.05 -1.4,1.4 l -0.25,0.65 1.75,-0.9 c 0,0 -1.65,1.75 -2,2.9 l -0.4,1.1 1.2,-1.45 -1.2,1.45 c 0,0 2,-2.75 3.5,-3.35 l 1.5,-0.65 -1.25,1.75 -0.35,0.75 3.25,-2.25 -0.75,1.9 c -0.4,0.85 -0.5,1.35 -0.5,1.35 l 0.6,-0.85 -0.6,0.85 c 0,0 0.85,-1.5 2.1,-2.35 l 1.25,-0.9 -0.75,2.15 0.45,-0.55 -0.45,0.55 c 0,0 0.75,-1 1.5,-1.5 0.75,-0.5 1.5,-0.75 1.5,-0.75 l -0.25,0.65 0.25,-0.65 c 0,0 -0.5,1 -0.5,2 l -0.1,2.5 1.25,-2.4 c 0.35,-0.6 1.1,-1.5 1.1,-1.5 l 0,3.65 1.9,-2.9 0.1,3.15 c 0,0 1,-1.25 1.5,-2.4 l 0.5,-1.1 0.25,1.85 0.15,0.4 c 0,0 1.1,-1.4 1.25,-1.75 l 0.1,-0.4 0.6,1.05 -0.6,-1.05 c 0,0 1.15,2 1.15,2.5 l 0,0.5 c 0,0 0.6,-0.6 0.6,-1.25 l 0,-1.6 0.95,0.6 -0.95,-0.6 c 0,0 1.75,1 2.15,1.75 l 0.35,0.75 c 0,0 0.25,-0.9 0,-1.75 l -0.25,-0.9 0.95,0.25 -0.95,-0.25 c 0,0 1.65,0.25 2.75,1.4 l 1.15,1.1 -1,-2.85 1,0.3 -1,-0.3 c 0,0 1.75,0.35 2.75,1.25 l 1,0.85 c 0,0 -0.25,-1.1 -0.75,-1.6 l -0.5,-0.5 0.8,-0.1 -0.8,0.1 c 0,0 1.1,-0.5 3.1,0.75 l 2,1.25 c 0,0 -0.35,-1.25 -0.85,-1.9 -0.5,-0.6 -2.9,-2 -2.9,-2 l 1.25,0.8 -1.25,-0.8 2.25,0.25 0.5,0.15 c 0,0 -1.35,-1.25 -2,-1.65 l -2.25,-0.85 1,1 c 0,0 -1.35,0 -2,-0.15 l -0.6,-0.1 1.25,1.25 c 0,0 -1.4,-0.75 -2.5,-1.15 l -1.15,-0.35 0.9,1.75 c 0,0 0.25,0.5 -1.15,0.35 -1.35,-0.1 -1,-0.35 -2,-0.35 l -1.85,0.25 c 0,0 -1.15,0.6 -1.65,0.5 -0.5,-0.15 -0.75,-0.75 -0.75,-0.75 l 0.2,0.3 -0.2,-0.3 -1.25,0.6 z"
             inkscape:connector-curvature="0"
             style="fill:#86591d" />
        </g>
        <g
           id="group1">
          <g
             id="drawingObject5">
            <path
               id="path5"
               d="m -22.099,-32.949 -0.3,-0.25 -4.9,1.6 q 0,0.5 0.45,1.3 0.55,1.1 0.7,1.6 c 0.35,1.25 1,3 1,3 0,0 0,-2.5 0.25,-2.9 l 0.25,-0.35 0.4,0.8 -0.4,-0.8 c 0,0 0.75,1.35 1,2.35 l 0.25,1 c 0,0 -0.15,-2 0.25,-3.1 0.35,-1.15 1.1,-1.9 1.1,-1.9 l 0.2,0.45 -0.2,-0.45 c 0,0 0.4,0.65 0.5,1.75 0.15,1.15 0.5,2.15 0.5,2.15 0,0 0.15,-2.9 0.9,-4.15 l 1.85,-3.25 c 0.65,-1.1 0.75,-2 0.75,-2 0,0 -2.1,3.65 -3.35,3.5 -1.25,-0.1 -1.5,-0.6 -1.5,-0.6"
               inkscape:connector-curvature="0"
               style="fill:#583810" />
          </g>
          <g
             id="drawingObject6">
            <path
               id="path6"
               d="m 20.751,-30.749 c -1.25,-0.95 -2.05,-1.65 -2.45,-2.15 l -0.025,-0.025 0.975,1.425 q 1.35,1.85 2.45,2.8 c 1.75,1.5 2,3.35 2,3.35 l 0.4,-2.1 0.45,0.75 -0.45,-0.75 c 0,0 0.85,1.25 1,2.1 l 0.1,0.9 -0.1,-6.15 c 0,0.15 -0.65,1.65 -1.5,1.5 -0.45,-0.05 -1.4,-0.6 -2.85,-1.65 z"
               inkscape:connector-curvature="0"
               style="fill:#583810" />
          </g>
        </g>
        <g
           id="group2">
          <g
             id="drawingObject7">
            <path
               id="path7"
               d="m -17.099,-41.449 0.25,-2.35 c -2.8,-5.85 -8.35,-7.1 -13.45,-4.4 q -0.65,0.3 -1.75,1.2 l -2.25,1.2 1.3,-0.15 -0.55,0.7 c -0.6,0.4 -1.25,0.85 -1.6,1.2 l -0.8,0.7 1.75,-0.85 -0.55,1.05 -1.25,0.8 0.95,0 c -1.15,3.2 -0.95,6.95 1.15,9.55 l 0.05,0.05 1.2,1.95 0.35,-0.55 c 1.2,0.85 2.8,1.45 4.8,1.7 10,1.1 10.65,-14.15 10.65,-14.15"
               inkscape:connector-curvature="0"
               style="fill:#7c521b" />
          </g>
          <g
             id="drawingObject8">
            <path
               id="path8"
               d="m -17.099,-41.449 0.25,-2.35 q -1.55,-3.2 -4.1,-4.7 l 0.95,1.3 -0.3,-0.3 c -0.35,-0.3 -1.95,-0.8 -1.95,-0.8 l 0.85,0.3 -0.85,-0.3 1.1,0.65 c 0.65,0.5 1.3,2.5 1.3,2.5 l -0.55,-0.8 c -0.55,-0.8 -1.3,-1.1 -1.3,-1.1 l 0.45,0.25 -0.45,-0.25 0.9,1.85 -0.5,-0.55 c -0.45,-0.6 -1.65,-1.15 -1.65,-1.15 l 0.65,0.35 -0.65,-0.35 0.95,1.05 c 1,1.05 1.1,1.95 1.1,1.95 l -0.65,-0.75 0.05,0.35 -0.05,-0.35 c 0,0 0.15,0.3 0.1,1.8 0,1.5 -1.2,4.25 -4.85,5 -1.1,0.25 -3.65,-1.15 -3.65,-1.15 l 1.4,0.65 -1.4,-0.65 -0.3,-1.35 -0.25,1.2 c -0.2,1.2 -0.15,2.1 -0.15,2.1 0,0 -1.3,-0.05 -1.6,-1.05 -0.25,-0.95 0.05,-3.8 0.05,-3.8 l -0.1,1.55 0.1,-1.55 -0.5,0.95 c -0.5,1 -0.65,4.15 -0.65,4.15 l -0.25,-0.45 -0.65,-2.2 -0.1,1.05 c -0.1,1.05 0.1,2.25 0.1,2.25 l -0.7,-1.85 c -0.75,-1.85 -0.1,-4.15 -0.1,-4.15 l -0.25,1.4 0.25,-1.4 -0.1,0.05 c -1,3.2 -0.8,6.75 1.25,9.3 l 0.05,0.05 1.2,1.95 0.35,-0.55 c 1.2,0.85 2.8,1.45 4.8,1.7 10,1.1 10.65,-14.15 10.65,-14.15"
               inkscape:connector-curvature="0"
               style="fill:#724715" />
          </g>
          <g
             id="drawingObject9">
            <path
               id="path9"
               d="m -17.099,-41.449 0.25,-2.35 c -0.65,-1.45 -1.5,-2.6 -2.5,-3.5 q 0.45,0.95 0.55,1.7 l -0.8,-0.85 0.2,0.9 c 0.25,0.9 0,1.45 0,1.45 l -0.85,-0.75 -0.15,0.35 0.15,-0.35 c 0,0 -0.4,0.45 0.05,1.6 0.65,1.8 -1.5,5 -3.35,6.05 -1.85,1.05 -3.6,0.7 -5.6,1.45 -2,0.75 -2.9,-0.9 -2.9,-0.9 l 0.7,0.75 -0.7,-0.75 0.7,2.05 -1.05,-0.3 c -1.05,-0.35 -1.2,-1.25 -1.2,-1.25 l 0.2,0.5 -0.2,-0.5 0,1.5 -1.1,-1.5 c -0.5,-0.75 -0.85,-1.55 -1,-2.15 0,2 0.55,3.95 1.8,5.5 l 0.05,0.05 1.2,1.95 0.35,-0.55 c 1.2,0.85 2.8,1.45 4.8,1.7 10,1.1 10.65,-14.15 10.65,-14.15"
               inkscape:connector-curvature="0"
               style="fill:#653f12" />
          </g>
          <g
             id="group3">
            <g
               id="drawingObject10">
              <path
                 id="path10"
                 d="m -16.849,-43.699 0,-0.1 -0.1,-0.2 -0.05,-0.15 c -0.45,-0.6 -1.45,-0.9 -1.45,-0.9 l 0.55,0.25 -0.55,-0.25 0.1,0.7 -0.1,-0.7 c 0,0 0.25,1.05 -0.1,2.45 -0.45,1.85 -1.5,4.9 -3.6,6.75 -2.3,2 -4.7,0.1 -5.45,0.75 -0.75,0.6 -2.25,0.35 -2.25,0.35 l 0.85,0.05 -0.85,-0.05 0.6,0.65 c 0.65,0.65 1.45,0.6 1.45,0.6 0,0 -0.15,0.2 -1.9,0.45 -1.3,0.15 -2,-0.4 -2.25,-0.7 l 0.85,1.1 -1.9,-0.85 c -1.15,-0.55 -1.85,-1.35 -2.35,-2.15 0.3,1 0.75,2 1.45,2.85 l 0.05,0.05 1.2,1.95 0.35,-0.55 c 1.2,0.85 2.8,1.45 4.8,1.7 2.6,0.3 4.6,-0.55 6.1,-2 0.6,-1 1.3,-2.05 2.25,-3.1 l 0.1,-0.15 c 1.85,-3.7 2.15,-8.1 2.2,-8.8 z"
                 inkscape:connector-curvature="0"
                 style="fill:#583810" />
            </g>
          </g>
          <g
             id="drawingObject11">
            <path
               id="path11"
               d="m -26.449,-48.249 3.55,-0.05 c 0,0 -2.2,-0.45 -2.8,-0.45 l -0.6,-0.05 1.5,-0.1 0.4,0.05 c 0,0 -1.15,-0.25 -3.3,0.05 q -0.95,0.1 -2.25,0.8 -1.05,0.55 -1.45,0.9 l -0.35,0.35 0.85,-0.25 c 0,0 -1.45,0.95 -2.3,2.2 l -0.9,1.25 1.95,-1.9 c 0,0 -1.4,1.95 -1.7,2.85 l -0.35,0.85 1.25,-2.05 -1.25,2.05 c 0,0 1.8,-3.8 4.5,-5 3.35,-1.45 4.85,-1.3 4.85,-1.3 l -1.6,-0.2 z"
               inkscape:connector-curvature="0"
               style="fill:#86591d" />
          </g>
        </g>
        <g
           id="group4">
          <g
             id="drawingObject12">
            <path
               id="path12"
               d="m 29.301,-48.199 c -5.15,-2.7 -10.65,-1.45 -13.5,4.4 l 0.25,2.35 -0.25,-2.35 c 0,0 0.7,15.25 10.7,14.15 2,-0.25 3.55,-0.85 4.8,-1.7 0.3,0.3 0.35,0.55 0.35,0.55 l 1.2,-1.95 0,-0.05 c 2.1,-2.6 2.3,-6.35 1.15,-9.55 l 1,0 -1.3,-0.8 -0.5,-1.05 c 0.8,0.25 1.75,0.85 1.75,0.85 l -2.4,-1.9 -0.55,-0.7 1.3,0.15 -2.3,-1.2 q -0.85,-0.8 -1.7,-1.2 z"
               inkscape:connector-curvature="0"
               style="fill:#7c521b" />
          </g>
          <g
             id="drawingObject13">
            <path
               id="path13"
               d="m 20.101,-47.649 c 0.65,-0.45 1.15,-0.65 1.15,-0.65 0,0 -1.65,0.5 -1.95,0.8 l -0.3,0.3 0.95,-1.3 q -2.65,1.5 -4.15,4.7 l 0.25,2.35 -0.25,-2.35 c 0,0 0.7,15.25 10.7,14.15 2,-0.25 3.55,-0.85 4.8,-1.7 0.3,0.3 0.35,0.55 0.35,0.55 l 1.2,-1.95 0,-0.05 c 2.05,-2.55 2.3,-6.1 1.25,-9.3 l -0.05,-0.05 c 0,0 0.65,2.3 -0.1,4.15 l -0.7,1.85 c 0,0 0.2,-1.2 0.1,-2.25 l -0.15,-1.05 c 0,0 -0.4,1.75 -0.65,2.2 l -0.2,0.45 c 0,0 -0.2,-3.15 -0.65,-4.15 l -0.5,-0.95 c 0,0 0.3,2.85 0,3.8 -0.25,1 -1.55,1.05 -1.55,1.05 0,0 0.05,-0.9 -0.15,-2.1 l -0.25,-1.2 -0.3,1.35 c 0,0 -2.6,1.4 -3.65,1.15 -3.65,-0.75 -4.85,-3.5 -4.9,-5 l 0.15,-1.8 -0.7,0.75 c 0,0 0.15,-0.9 1.1,-1.95 l 1,-1.05 c 0,0 -1.2,0.55 -1.7,1.15 l -0.45,0.55 0.9,-1.85 c 0,0 -0.75,0.3 -1.3,1.1 l -0.55,0.8 c 0,0 0.65,-2 1.25,-2.5 z"
               inkscape:connector-curvature="0"
               style="fill:#724715" />
          </g>
          <g
             id="drawingObject14">
            <path
               id="path14"
               d="m 17.851,-46.099 q 0.2,-0.6 0.5,-1.2 c -1,0.9 -1.85,2.05 -2.55,3.5 l 0.25,2.35 -0.25,-2.35 c 0,0 0.7,15.25 10.7,14.15 2,-0.25 3.55,-0.85 4.8,-1.7 0.3,0.3 0.35,0.55 0.35,0.55 l 1.2,-1.95 0,-0.05 c 1.25,-1.55 1.85,-3.5 1.85,-5.5 -0.2,0.6 -0.5,1.4 -1.05,2.15 l -1.05,1.5 0,-1.5 c 0,0 -0.15,0.9 -1.2,1.25 l -1.1,0.3 0.75,-2.05 c 0,0 -0.9,1.65 -2.9,0.9 -2,-0.75 -3.75,-0.4 -5.6,-1.45 -1.85,-1.05 -4,-4.25 -3.35,-6.05 0.4,-1.15 0,-1.6 0,-1.6 l 0.15,0.35 -0.15,-0.35 -0.8,0.75 c 0,0 -0.25,-0.55 -0.05,-1.45 l 0.25,-0.9 -0.85,0.85 q 0.05,-0.2 0.1,-0.5 z"
               inkscape:connector-curvature="0"
               style="fill:#653f12" />
          </g>
          <g
             id="group5">
            <g
               id="drawingObject15">
              <path
                 id="path15"
                 d="m 15.851,-43.799 -0.05,0.1 c 0.05,0.7 0.4,5.1 2.25,8.8 l 0.1,0.15 c 0.95,1.05 1.65,2.1 2.25,3.1 1.5,1.45 3.45,2.3 6.1,2 2,-0.25 3.55,-0.85 4.8,-1.7 0.3,0.3 0.35,0.55 0.35,0.55 l 1.2,-1.95 0,-0.05 c 0.7,-0.85 1.2,-1.85 1.5,-2.85 -0.5,0.8 -1.2,1.6 -2.35,2.15 l -1.9,0.85 0.85,-1.1 c -0.3,0.3 -0.95,0.85 -2.25,0.7 -1.75,-0.25 -1.95,-0.45 -1.95,-0.45 l 0.3,0.15 -0.3,-0.15 0.5,-0.05 -0.5,0.05 c 0,0 0.85,0.05 1.45,-0.6 l 0.65,-0.65 c 0,0 -1.55,0.25 -2.25,-0.35 -0.75,-0.65 -3.2,1.25 -5.45,-0.75 -2.1,-1.85 -3.15,-4.9 -3.6,-6.75 -0.4,-1.4 -0.15,-2.45 -0.15,-2.45 l -0.05,0.7 0.05,-0.7 c 0,0 -1,0.3 -1.4,0.9 l -0.1,0.15 -0.05,0.2 z"
                 inkscape:connector-curvature="0"
                 style="fill:#583810" />
            </g>
          </g>
          <g
             id="drawingObject16">
            <path
               id="path16"
               d="m 33.151,-41.749 -0.3,-0.85 c -0.3,-0.9 -1.75,-2.85 -1.75,-2.85 l 0.75,1.1 -0.75,-1.1 1.95,1.9 -0.85,-1.25 c -0.9,-1.25 -2.3,-2.2 -2.3,-2.2 l 0.8,0.65 -0.8,-0.65 0.85,0.25 -0.35,-0.35 q -0.35,-0.35 -1.45,-0.9 -1.3,-0.7 -2.25,-0.8 c -0.9,-0.15 -1.7,-0.2 -2.45,-0.15 l -0.425,0.05 0.025,0 c 0.55,0 1.45,0.1 1.45,0.1 l -0.6,0.05 -2.8,0.45 1.2,-0.05 c 1.15,-0.05 2.35,0.1 2.35,0.1 l -1.6,0.2 1.15,0.1 -1.15,-0.1 c 0,0 1.45,-0.15 4.8,1.3 2.75,1.2 4.5,5 4.5,5 z"
               inkscape:connector-curvature="0"
               style="fill:#86591d" />
          </g>
        </g>
      </g>
    </g>
  </g>
</svg>
