<?xml version="1.0" encoding="UTF-8" standalone="no"?>
<!-- Generator: flash2svg, http://dissentgraphics.com/tools/flash2svg -->

<svg
   xmlns:dc="http://purl.org/dc/elements/1.1/"
   xmlns:cc="http://creativecommons.org/ns#"
   xmlns:rdf="http://www.w3.org/1999/02/22-rdf-syntax-ns#"
   xmlns:svg="http://www.w3.org/2000/svg"
   xmlns="http://www.w3.org/2000/svg"
   xmlns:sodipodi="http://sodipodi.sourceforge.net/DTD/sodipodi-0.dtd"
   xmlns:inkscape="http://www.inkscape.org/namespaces/inkscape"
   id="AvatarAssets"
   image-rendering="auto"
   version="1.1"
   x="0px"
   y="0px"
   width="79.040459"
   height="56.900002"
   viewBox="0 0 79.040459 56.900002"
   inkscape:version="0.48.4 r9939"
   sodipodi:docname="AvatarAssets_backHatRam.svg">
  <metadata
     id="metadata4218">
    <rdf:RDF>
      <cc:Work
         rdf:about="">
        <dc:format>image/svg+xml</dc:format>
        <dc:type
           rdf:resource="http://purl.org/dc/dcmitype/StillImage" />
      </cc:Work>
    </rdf:RDF>
  </metadata>
  <sodipodi:namedview
     pagecolor="#ffffff"
     bordercolor="#666666"
     borderopacity="1"
     objecttolerance="10"
     gridtolerance="10"
     guidetolerance="10"
     inkscape:pageopacity="0"
     inkscape:pageshadow="2"
     inkscape:window-width="640"
     inkscape:window-height="480"
     id="namedview4216"
     showgrid="false"
     fit-margin-top="0"
     fit-margin-left="0"
     fit-margin-right="0"
     fit-margin-bottom="0"
     inkscape:zoom="1.9032258"
     inkscape:cx="71.080317"
     inkscape:cy="-61.249"
     inkscape:window-x="0"
     inkscape:window-y="0"
     inkscape:window-maximized="0"
     inkscape:current-layer="AvatarAssets" />
  <defs
     id="defs4051" />
  <g
     id="backHatRam1"
     overflow="visible"
     style="overflow:visible"
     transform="translate(39.080317,56.149)">
    <g
       id="backHatRam_0">
      <g
         id="element">
        <g
           id="drawingObject">
          <path
             id="path"
             d="m 2.051,-50.449 2.2,-3.45 c 0,0 -1.8,0.5 -3.2,1.2 l -0.1,-0.45 c -0.35,-1.8 -1.15,-3 -1.15,-3 l 0.45,0.85 -0.45,-0.85 0,2.15 c 0,0.75 -0.4,1.7 -0.85,2.55 l -0.95,0.65 c 0,0 0.45,-1.95 0.2,-2.9 l -0.2,-0.9 c 0,0 -0.7,1.25 -1.75,2.45 l -1.05,1.15 c 0,0 0.2,-1.3 0.2,-2.2 l 0,-0.95 c 0,0 -0.9,2.1 -1.7,2.8 l -0.85,0.7 c 0,0 0.35,-0.95 0.25,-1.75 l -0.1,-0.8 c 0,0 -0.25,0.7 -2.8,2.9 -2.55,2.2 -2,1.55 -2,1.55 l 0.05,0.05 -0.05,-0.05 0,-1.85 c 0,-0.85 -0.3,-0.95 -0.3,-0.95 l 0.15,0.15 -0.15,-0.15 c 0,0 -0.55,1.9 -2.15,3.55 -2.05,2.1 -5.65,4.3 -7.85,7.05 -3,3.85 -2.8,4.1 -4.1,7.7 -1.3,3.65 -0.45,5.7 -0.45,5.7 l 0.7,-0.55 -0.6,2 0.6,-2 c 0,0 -1.3,3.6 -1.05,5.35 0.2,1.75 0.55,0.55 0.55,0.55 l 0.6,2.1 0.35,-1.75 0.1,2.25 -0.1,-2.25 c 0,0 -0.1,3.85 0.95,6.55 0.1,0.35 0.3,0.75 0.55,1.15 -0.1,2.5 1.45,4.35 1.45,4.35 l 0,-0.25 -0.15,-1.45 2.1,3.6 c 0.65,1.15 4.8,5.35 6.3,6.5 1.5,1.15 3.85,2.15 3.85,2.15 l -2.75,-2.05 2.1,0.9 c 1.65,0.65 3.05,0.4 3.05,0.4 l -0.5,-0.25 -2.75,-1.9 1.95,0.6 c 1.9,0.6 4.65,0.4 4.65,0.4 l -1.75,-1.4 0.85,0.3 c 0.8,0.35 2.9,0.2 2.9,0.2 l -0.75,-0.45 c -0.75,-0.4 -1.85,-1.55 -1.85,-1.55 l 0.65,0.65 -0.65,-0.65 1.35,0.55 c 1.35,0.6 3.85,1.5 3.85,1.5 l -0.35,-0.55 c -0.35,-0.6 -0.65,-1.85 -0.65,-1.85 l 0.2,0.7 -0.2,-0.7 0.9,0.6 c 0.9,0.6 1.1,0.9 1.1,0.9 l 0.15,-0.5 c 0.15,-0.5 0.9,-1.25 0.9,-1.25 l -0.05,1.4 1.55,-1.15 -0.15,0.75 c -0.15,0.75 -0.9,1.4 -0.9,1.4 l 1,-0.5 c 1,-0.5 3.05,-2.4 3.05,-2.4 l -0.5,1.65 c -0.25,0.65 -0.9,1.3 -1.95,1.85 l 0,-0.025 4.65,-2.125 -0.35,1.15 c -0.35,1.2 -1.65,2.15 -1.65,2.15 l 0.5,-0.3 c 0.5,-0.35 5.15,-2 5.15,-2 l -0.65,0.65 c -0.7,0.7 -1.85,2.65 -1.85,2.65 l 0.65,-1.05 -0.65,1.05 0.65,-0.25 -0.65,0.25 c 0,0 0.9,-0.2 2.6,-1.4 0.7,-0.5 1.95,-1.9 2.35,-2.25 l 0.05,0 0.9,-0.8 c 2.15,-1.9 5.3,-4.65 5.95,-6.7 l 0.2,-0.85 0.15,-0.25 -0.15,1.45 0,0.25 c 0,0 1.55,-1.85 1.45,-4.35 0.25,-0.4 0.45,-0.8 0.55,-1.15 0.75,-1.9 0.9,-4.4 0.95,-5.65 l 0.1,-0.4 0.25,1.25 0.6,-2.1 c 0,0 0.35,1.2 0.55,-0.55 0.15,-0.9 -0.15,-2.25 -0.45,-3.4 l 0.45,-3.1 q 0.2,-1.5 -0.45,-2.75 l -0.35,-1.25 c -1.3,-3.6 -1.1,-3.85 -4.1,-7.7 -0.65,-0.8 -1.4,-1.55 -2.2,-2.25 -0.5,-0.65 -1.25,-1.4 -2.25,-2.2 -4.65,-3.7 -10.85,-4.05 -13.2,-4 l 0.4,-0.65 c 0.35,-0.35 0.8,-0.6 0.8,-0.6 0,0 -1.6,0.1 -2.3,0.45 l -0.4,0.2 -0.2,-0.2 z"
             inkscape:connector-curvature="0"
             style="fill:#f4f1d9" />
        </g>
        <g
           id="drawingObject1">
          <path
             id="path1"
             d="m 0.701,-49.299 0.25,-0.6 c 0,0 -0.35,0.5 -1.65,1.95 l -2.8,3.05 0.95,-3.9 c 0,0 -0.35,0.85 -0.95,1.85 -0.65,1 -3.35,2.15 -3.35,2.15 0,0 0.35,-0.6 0.8,-1.75 l 1.05,-3.35 c 0,0 -0.55,0.7 -1.25,1.35 l -2.9,2.35 0.45,-0.7 c 0.45,-0.65 0.95,-2.15 0.95,-2.15 0,0 -0.5,0.65 -1.3,1.5 -0.8,0.85 -3.55,3 -3.55,3 l 1.5,-1.2 -1.5,1.2 c 0,0 0.55,-0.9 0.8,-1.65 l 0.45,-1.5 -0.6,0.8 c -0.65,0.85 -2.5,2.45 -4.7,4.1 -2.2,1.65 -5.95,5.4 -7.45,8 -1.5,2.6 -1.95,5.85 -1.95,5.85 l 1,-1.85 c 0.6,-1.15 3.05,-3.25 3.05,-3.25 l -1.15,1.8 c -1.15,1.85 -2.1,3.7 -2.55,5.95 -0.4,2.25 -0.4,3.65 -0.4,3.65 l 0.6,-1.25 c 0.45,-0.9 2.35,-2.75 2.35,-2.75 l -0.85,2 c -0.55,1.5 -0.7,3.65 -0.7,5.85 0,1.25 0.2,2.7 0.4,3.9 l 0.4,0.75 c -0.1,2.5 1.55,4.35 1.55,4.35 l 0,-0.25 -0.15,-1.45 2.2,3.6 c 0.6,1.05 4.05,4.35 5.95,5.95 0.7,-0.75 1.6,-1.4 2.75,-1.8 q 3.4,-1.25 8.45,-1.75 4.15,-0.45 8.65,-0.3 c 3.5,0.1 5.65,0.95 9.05,0.8 l 1.3,-1.4 -0.05,0.1 1.85,-0.05 0.1,-0.2 c 1.05,-2.6 0.35,-5.4 0.35,-5.4 l 0.2,1.75 -0.2,-1.75 0.8,2.4 c 0,0 2.65,-2.2 3.1,-4.2 l 0.2,-0.85 0.2,-0.2 c 0.55,-0.5 2.3,-2.1 2.85,-4.6 0.5,-2.5 -0.9,-5.8 -0.9,-5.8 l 0.65,1.95 -0.65,-1.95 1.15,0.3 c 0,0 -0.45,-0.65 -1.05,-2.25 -0.6,-1.55 -0.7,-6.05 -2.1,-8.65 -1.4,-2.6 -7.15,-7.9 -10.85,-9.6 -3.7,-1.65 -9.2,-1.8 -9.2,-1.8 l 3.2,0.3 -3.2,-0.3 0.9,-1.3 -2.85,1.35 c 0,0 0.1,-0.4 0.1,-1.05 0,-0.7 0.5,-1.7 0.5,-1.7"
             inkscape:connector-curvature="0"
             style="fill:#e8e5cd" />
        </g>
        <g
           id="drawingObject2">
          <path
             id="path2"
             d="m -23.849,-24.849 -0.25,0.2 c -0.5,1.5 -0.7,3.65 -0.7,5.85 0,1.25 0.25,2.7 0.4,3.9 l 0.4,0.75 c -0.1,2.5 1.45,4.35 1.45,4.35 l 0,-0.25 -0.15,-1.45 2.1,3.6 c 0.65,1.15 4.8,5.35 6.3,6.5 1.5,1.15 3.85,2.15 3.85,2.15 l -2.75,-2.05 2.1,0.9 c 1.65,0.65 3.05,0.4 3.05,0.4 l -0.5,-0.25 -2.75,-1.9 1.95,0.6 c 1.9,0.6 4.65,0.4 4.65,0.4 l -1.75,-1.4 0.85,0.3 c 0.8,0.35 2.9,0.2 2.9,0.2 l -0.75,-0.45 c -0.75,-0.4 -1.85,-1.55 -1.85,-1.55 l 0.65,0.65 -0.65,-0.65 1.35,0.55 c 1.35,0.6 3.85,1.5 3.85,1.5 l -0.35,-0.55 c -0.35,-0.6 -0.65,-1.85 -0.65,-1.85 l 0.2,0.7 -0.2,-0.7 0.9,0.6 c 0.9,0.6 1.1,0.9 1.1,0.9 l 0.15,-0.5 c 0.15,-0.5 0.9,-1.25 0.9,-1.25 l -0.05,1.4 1.55,-1.15 -0.15,0.75 c -0.15,0.75 -0.9,1.4 -0.9,1.4 l 1,-0.5 c 1,-0.5 3.05,-2.4 3.05,-2.4 l -0.5,1.65 c -0.25,0.65 -0.9,1.3 -1.95,1.85 l 0,-0.025 4.65,-2.125 -0.35,1.15 c -0.35,1.2 -1.65,2.15 -1.65,2.15 l 0.5,-0.3 c 0.5,-0.35 5.15,-2 5.15,-2 l -0.65,0.65 -0.25,0.3 -0.1,0.1 -0.2,0.25 -0.05,0.1 -0.3,0.4 -0.05,0.1 -0.2,0.25 -0.1,0.2 -0.6,0.95 0.65,-0.25 -0.65,0.25 c 0,0 0.9,-0.2 2.6,-1.4 0.7,-0.5 1.95,-1.9 2.35,-2.25 l 0.05,0 0.9,-0.8 c 2.15,-1.9 5.3,-4.65 5.95,-6.7 l 0.2,-0.85 0.15,-0.25 -0.15,1.45 0,0.25 c 0,0 0.85,-1 1.25,-2.55 l -0.1,-0.15 0.25,-0.75 0.05,-0.9 c 0.25,-0.4 0.45,-0.8 0.55,-1.15 l 0.3,-0.8 c 0.25,-1.25 -0.75,-3.4 -0.75,-3.4 l 0.45,1.25 -0.45,-1.25 -0.25,1.65 c -0.9,4.75 -3.65,6.5 -3.65,6.5 l 1.5,-1.45 -1.5,1.45 1.5,-5.25 c 0.15,-0.5 -0.25,-2.15 -0.25,-2.15 0,0 -3.85,6.9 -3.6,6.25 0.35,-1.1 -0.4,-7.6 -0.4,-7.6 l 0,0.5 c 0,0.5 -1.35,7.25 -1.35,7.25 0,0 0.35,-2.65 0.25,-3.9 -0.15,-1.25 -1.25,-3.6 -1.25,-3.6 l 0.55,1.35 -0.55,-1.35 -0.15,3 c -0.1,3.85 -1.75,4.75 -1.75,4.75 l 0.85,-0.95 -0.85,0.95 c 0,0 0.75,-2.25 0.75,-4.75 0,-2.5 -1.1,-4.75 -1.1,-4.75 l 0.55,1.45 -0.55,-1.45 0.1,2.3 -0.1,-2.3 c 0,0 0.5,3.75 -0.65,7 -0.5,1.45 -2.1,3.5 -2.1,3.5 0,0 0.85,-2.75 0.85,-6.75 0,-4 -1.5,-8.4 -1.5,-8.4 l 0.75,2.7 -0.75,-2.7 -0.1,3.25 c -0.65,9.9 -5.4,11.65 -5.4,11.65 l 2.45,-2.1 -2.45,2.1 c 0,0 0.15,-3 0.15,-4.75 0,-1.75 -0.5,-3.5 -0.5,-3.5 l 0.25,1.1 -0.25,-1.1 -1,2.6 c -0.5,1.15 -1.5,2.75 -1.5,2.75 0,0 0,-1.1 -0.5,-3.1 -0.5,-2 -2,-5.65 -2,-5.65 l 0.8,2.1 -0.8,-2.1 0,2.9 c 0,2.25 -2.75,7.5 -2.75,7.5 l -1.65,-5.5 -0.75,2 c -0.75,2 -0.75,4.35 -0.75,4.35 l -0.6,-1.1 c -0.65,-1.15 -1.9,-5.4 -1.9,-5.4 l 0.7,2.25 -0.7,-2.25 -0.25,3.4 c -0.25,2.6 0,3.25 0,3.25 l -1.25,-1.9 c -1.25,-1.85 -2.6,-9 -2.6,-9 l 0.85,3.8 -0.85,-3.8 -0.65,3.9 c -0.35,2.1 0.5,6.5 0.5,6.5 l -1.6,-1.9 c -1.65,-1.85 -2,-5.25 -2,-5.25 l 0.4,1.95 -0.4,-1.95 0.35,6 -2,-3.35 c -2,-3.4 -0.75,-10.15 -0.75,-10.15 l -0.35,3.8 0.35,-3.8 -0.5,1.3 0.5,-1.3 c 0,0 -0.85,2 -1.35,4.25 -0.5,2.25 -0.5,5.25 -0.5,5.25 l -0.9,-2.1 c -0.85,-2.15 -0.35,-5.25 -0.35,-5.25 z"
             inkscape:connector-curvature="0"
             style="fill:#dcd9c3" />
        </g>
        <g
           id="group1">
          <g
             id="drawingObject3">
            <path
               id="path3"
               d="m -24.399,-14.899 0.4,0.75 c -0.1,2.5 1.45,4.35 1.45,4.35 l 0,-0.25 -0.15,-1.45 2.1,3.6 c 0.65,1.15 4.8,5.35 6.3,6.5 1.5,1.15 3.85,2.15 3.85,2.15 l -2.75,-2.05 2.1,0.9 c 1.65,0.65 3.05,0.4 3.05,0.4 l -0.5,-0.25 -2.75,-1.9 1.95,0.6 c 1.9,0.6 4.65,0.4 4.65,0.4 l -1.75,-1.4 0.85,0.3 c 0.8,0.35 2.9,0.2 2.9,0.2 l -0.75,-0.45 c -0.75,-0.4 -1.85,-1.55 -1.85,-1.55 l 0.65,0.65 -0.65,-0.65 1.35,0.55 c 1.35,0.6 3.85,1.5 3.85,1.5 l -0.35,-0.55 c -0.35,-0.6 -0.65,-1.85 -0.65,-1.85 l 0.2,0.7 -0.2,-0.7 0.9,0.6 c 0.9,0.6 1.1,0.9 1.1,0.9 l 0.15,-0.5 c 0.15,-0.5 0.9,-1.25 0.9,-1.25 l -0.05,1.4 1.55,-1.15 -0.15,0.75 c -0.15,0.75 -0.9,1.4 -0.9,1.4 l 1,-0.5 c 1,-0.5 3.05,-2.4 3.05,-2.4 l -0.5,1.65 c -0.25,0.65 -0.9,1.3 -1.95,1.85 l 0,-0.025 4.65,-2.125 -0.35,1.15 c -0.35,1.2 -1.65,2.15 -1.65,2.15 l 0.5,-0.3 c 0.5,-0.35 5.15,-2 5.15,-2 l -0.65,0.65 -0.25,0.3 -0.1,0.1 -0.2,0.25 -0.05,0.1 -0.3,0.4 -0.05,0.1 -0.2,0.25 -0.1,0.2 -0.6,0.95 0.65,-0.25 -0.65,0.25 c 0,0 0.9,-0.2 2.6,-1.4 0.7,-0.5 1.95,-1.9 2.35,-2.25 l 0.05,0 0.9,-0.8 c 2.15,-1.9 5.3,-4.65 5.95,-6.7 l 0.2,-0.7 0,-0.1 c -0.2,0.2 -1.2,1.2 -3.4,2.95 q -1.55,1.25 -3.7,2.35 l -1.8,0.85 4.35,-4.85 -2.35,1.85 c -2.3,1.85 -4.8,2 -4.8,2 l 1.55,-0.3 -1.55,0.3 1,-0.85 c 1,-0.85 2.15,-2.85 2.15,-2.85 l -1.85,1 c -1.8,1 -5.15,1.35 -5.15,1.35 l 1.9,-0.3 -1.9,0.3 0,-2.15 c 0,0 -0.5,0.8 -1,1.3 -0.5,0.5 -2.35,1.5 -2.35,1.5 l 1,-0.55 -1,0.55 -4.65,-3 0.1,0.5 -0.1,-0.5 c 0,0 0.15,0.85 0.5,1.35 0.35,0.5 2.35,2.35 2.35,2.35 0,0 -0.85,0 -3.5,-0.2 -2.7,-0.15 -6.7,-2.65 -6.7,-2.65 l 2.35,1.25 -2.35,-1.25 0.7,0.85 c 0.65,0.85 4,2.15 4,2.15 l -3.5,-0.65 c -3.5,-0.65 -8,-4.2 -8,-4.2 l 2.7,1.85 -2.7,-1.85 0.3,0.7 c 0.35,0.65 3.2,3 3.2,3 l -3.2,-1.7 c -3.15,-1.65 -5.8,-5.65 -5.8,-5.65 l 1.7,2.2 -1.7,-2.2 0,0.65 c 0,0.7 0.8,2.35 0.8,2.35 l -1.65,-1.65 c -0.8,-0.8 -1.7,-1.95 -2.35,-2.9 l 0.15,1.3 z"
               inkscape:connector-curvature="0"
               style="fill:#d0cdb8" />
          </g>
          <g
             id="drawingObject4">
            <path
               id="path4"
               d="m 21.851,-11.499 c 0,0 0.6,-2.15 0.1,-1.15 q -0.2,0.45 -0.1,1.2 l 0,-0.05 z"
               inkscape:connector-curvature="0"
               style="fill:#d0cdb8" />
          </g>
        </g>
        <g
           id="drawingObject5">
          <path
             id="path5"
             d="m 3.151,-49.249 c 0,0 -0.35,-0.75 -1.25,0 -0.95,0.75 -1.95,3.6 -1.7,5.95 0.25,2.3 1.05,17.5 1.25,21 0.1,2.05 0.05,5.9 -0.2,11.65 0.65,-2.6 1.05,-8.85 0.55,-13.75 -0.5,-4.9 -1.5,-18.25 -0.9,-21.75 q 0.2,-1.2 1.25,-2.3 0.5,-0.5 1,-0.8 z"
             inkscape:connector-curvature="0"
             style="fill:#f4f1d9" />
        </g>
        <g
           id="drawingObject6">
          <path
             id="path6"
             d="m 0.801,-47.399 c 0.35,-1.1 0.9,-2.05 1.45,-2.85 q -0.85,0.7 -1.25,1.95 -0.15,0.4 -0.55,2.15 c -0.35,1.3 0.1,7.6 0.1,10.9 0,3.35 1.15,17.1 0.65,23.1 -0.45,5.3 -0.4,6.65 -0.05,7.65 l 0.15,0.6 0.1,-0.1 c -0.1,-0.9 -0.3,-2.75 -0.25,-3.85 0.05,-1.5 0.5,-6.2 0.5,-8.25 0,-2.05 -0.2,-9 -0.35,-10.95 -0.1,-1.95 -0.6,-10.3 -0.6,-11.35 0,-1.1 -0.5,-7.15 0.1,-9 z"
             inkscape:connector-curvature="0"
             style="fill:#d0cdb8" />
        </g>
        <g
           id="group2">
          <g
             id="drawingObject7">
            <path
               id="path7"
               d="m -18.699,-43.349 q -1.55,-0.25 -1.65,-1.5 l -0.15,-1.25 c 0,0 -0.6,0.6 -0.75,1.1 l -0.1,0.5 c 0,0 0.1,-0.6 -1.15,-0.85 l -1.85,-0.25 0.15,0.2 -0.15,-0.2 c 0,0 0.25,0.25 0.25,0.85 0,0.65 1.35,3.75 1.35,3.75 l 0.8,0.45 -0.8,-0.45 c 0,0 1.5,0.9 2,0.9 0.5,0 2.05,-3.25 2.05,-3.25 z"
               inkscape:connector-curvature="0"
               style="fill:#f4f1d9" />
          </g>
          <g
             id="drawingObject8">
            <path
               id="path8"
               d="m -16.499,-40.599 0.65,-1.25 q -1.5,0.35 -2.25,0 c -0.75,-0.4 -1.65,-0.65 -2.15,-1.4 l -1.1,-1.25 c 0,0 -1.5,0 -2.15,0.15 -0.6,0.1 -0.85,0.6 -0.75,1.1 0.15,0.5 3.15,5.25 3.65,5 0.5,-0.25 1.6,-1.8 2.25,-1.9 l 1.85,-0.45 z"
               inkscape:connector-curvature="0"
               style="fill:#e8e5cd" />
          </g>
          <g
             id="drawingObject9">
            <path
               id="path9"
               d="m -17.249,-39.349 0.3,-0.55 c 0.3,-0.55 -0.65,-1.2 -1.15,-1.95 -0.5,-0.75 -2.4,-1.5 -2.4,-2.5 q 0,-0.6 0.25,-1.35 l 0.25,-0.65 -0.5,0.25 c -0.85,0.6 -0.75,1.1 -0.75,1.1 l -1.25,-0.35 -1.85,-0.25 0.5,0.4 -0.5,-0.4 c 0,0 1,0.6 0.85,1.25 -0.1,0.6 1,0.85 1.75,1.5 0.75,0.6 0,0 1.5,0.5 1.5,0.5 3,3 3,3 z"
               inkscape:connector-curvature="0"
               style="fill:#fefce9" />
          </g>
        </g>
        <g
           id="group3">
          <g
             id="drawingObject10">
            <path
               id="path10"
               d="m 0.251,-42.849 -2.35,-0.1 q -0.35,-0.05 -0.5,-0.4 l -0.05,-0.3 c 0,0 -0.55,-0.05 -0.95,0.05 l -1,0.4 c 0.45,-0.1 1.05,-0.05 1.05,-0.05 l -0.75,0.35 c -0.75,0.4 -1.25,1.1 -1.25,1.1 l 0.35,-0.4 -0.35,0.4 1.2,-0.55 c 0.65,-0.3 1.8,-0.45 1.8,-0.45 l -1.3,0.6 1.4,-0.3 c 0.8,-0.15 1.2,0 1.2,0 l -0.3,0.05 -0.6,0.25 2.2,-0.1 c 0.2,-0.1 0.2,-0.55 0.2,-0.55 z"
               inkscape:connector-curvature="0"
               style="fill:#dcd9c3" />
          </g>
          <g
             id="drawingObject11">
            <path
               id="path11"
               d="m 0.851,-42.549 -0.05,-0.25 c 0,0 0,0.45 0.2,0.45 l 1.6,0 0.7,0.1 -0.6,-0.25 2.8,0.3 -1.8,-0.75 1.95,0.25 1.15,0.3 c 0,0 -0.8,-0.4 -1.6,-0.65 l -0.8,-0.25 c 0.15,0 0.85,0.05 1.6,0.2 l 0.75,0.15 c 0,0 -0.9,-0.5 -1.65,-0.65 l -0.75,-0.15 1.55,0.05 -2.1,-0.25 c -0.55,0 -0.65,0.2 -0.65,0.2 l 0.1,-0.1 -0.1,0.1 q 0.15,0.7 -0.7,0.8 l -1.65,0.15"
               inkscape:connector-curvature="0"
               style="fill:#dcd9c3" />
          </g>
          <g
             id="drawingObject12">
            <path
               id="path12"
               d="m 0.651,-22.249 c -0.05,-0.15 -1.1,0.4 -1.5,0.2 -0.45,-0.2 -0.65,-0.5 -0.7,-0.85 l -0.35,-0.65 q -0.25,0.15 -0.55,0.3 -0.6,0.35 -0.75,0.55 l -0.25,0.4 0.6,-0.35 0.25,-0.1 c 0,0 -0.4,0.25 -0.6,0.75 l -0.2,0.55 1.05,-0.65 0.2,-0.1 -0.2,0.4 0.2,-0.4 c 0,0 -0.45,0.65 -0.4,1.3 0.05,0.65 0.35,1.25 0.35,1.25 0,0 -0.2,-0.75 0.35,-1.1 0.5,-0.4 0.8,-0.45 1.3,-0.4 0.5,0.1 0.6,0.05 0.65,0.3 l 0.15,0.6 0.05,-0.75 0.3,0.65 0.1,0.6 0,-1.35 c 0,-0.7 0.05,-1.05 -0.05,-1.15 z"
               inkscape:connector-curvature="0"
               style="fill:#dcd9c3" />
          </g>
          <g
             id="drawingObject13">
            <path
               id="path13"
               d="m 4.951,-23.549 0.025,0 -0.575,-0.2 -0.3,-0.05 -0.05,1.05 c -0.15,0.4 -0.3,0.5 -0.7,0.45 -0.45,-0.1 -0.95,-0.85 -0.95,-0.85 l 0.3,0.4 -0.3,-0.4 -0.3,0.9 c -0.05,0.45 -0.1,0.75 -0.1,1.5 0,0.75 0.1,1.1 0.1,1.1 0,0 0.05,-0.8 0.4,-1.15 0.4,-0.4 0.15,-0.5 0.85,-0.2 0.65,0.25 0.8,0.4 0.8,0.4 l -0.4,-0.8 0.55,0 -0.55,0 c 0,0 0.95,-0.05 1.6,0.2 l 0.6,0.25 -0.8,-0.6 -0.2,-0.2 c 0.15,0 0.75,0.15 1.35,0.45 l 0.6,0.3 c 0,0 -0.85,-0.8 -1.55,-1.2 l -0.7,-0.35 1.25,0.3 0.95,0.35 c 0,0 -0.75,-0.75 -1.45,-1.15 l -0.65,-0.45 0.2,-0.05 z"
               inkscape:connector-curvature="0"
               style="fill:#dcd9c3" />
          </g>
        </g>
        <g
           id="group4">
          <g
             id="drawingObject14">
            <path
               id="path14"
               d="m -6.299,-38.149 0.6,-0.4 c 0,0 -1.5,0.25 -2.6,1 l -1.05,0.75 1.65,-1.75 c 0,0 -1.5,0.05 -2.35,0.65 l -0.8,0.6 0.6,-0.65 -0.6,0.65 c 0,0 1.05,-1.25 1.65,-1.6 l 0.6,-0.35 c 0,0 -1.7,0.3 -3.35,1.2 l -2.1,1.15 0.4,-0.7 -0.4,0.7 c 0,0 0.6,-1.25 1.2,-1.75 l 0.55,-0.5 c 0,0 -1.4,0.5 -1.8,0.75 l -0.45,0.25 c 0,0 0.1,-0.65 0.45,-1 0.3,-0.35 1.4,-1.1 1.4,-1.1 0,0 -1.6,0.55 -2.25,0.7 l -0.65,0.15 0.2,-0.5 -0.2,0.5 c 0,0 0.15,-1 1,-1.15 0.8,-0.2 1.15,-0.45 1.15,-0.45 0,0 -2,0.5 -3.5,1.1 l -1.5,0.6 c 0,0 -0.5,-0.6 0.1,-0.85 0.55,-0.25 1.15,-0.85 1.15,-0.85 0,0 -0.85,0.25 -1.75,0.75 l -1.25,0.7 0,-0.5 q -0.45,0.25 -1.6,1.4 -1.3,1.3 -1.9,2.25 c -0.85,1.4 -1.25,2.65 -1.25,2.65 l 1.8,-2 -1.8,2 c 0,0 3.4,-3.9 4.35,-4.5 l 0.9,-0.55 -3.1,4.3 c 0.25,-0.25 2.25,-2.15 3.95,-3.3 l 1.65,-1.2 c 0,0 -1.6,2.7 -2,3.75 -0.4,1.1 -0.75,3.35 -0.65,3.1 0.05,-0.25 1.8,-2.9 3.05,-4.15 l 1.25,-1.25 -0.45,1.25 0.45,-1.25 c 0,0 -0.8,2.15 -1.05,3.65 -0.25,1.5 -0.25,2.5 -0.25,2.5 0,0 0.75,-2.25 1.25,-2.9 l 0.5,-0.7 0.05,4.7 c 0,0 0.1,-1.35 0.85,-2.95 0.75,-1.55 3.4,-3.05 3.4,-3.05 l -0.45,1.2 0.45,-1.2 c 0,0 -0.9,2.15 -1,3.25 -0.05,1.05 -0.15,1.4 -0.15,1.4 0,0 0.8,-2.05 1.4,-2.9 l 0.6,-0.85 -0.25,2.1 0,0.65 c 0,0 0.3,-0.5 0.9,-1.85 0.6,-1.3 2,-1.65 2,-1.65 l -0.05,3.9 c 0,0 1.55,-2.3 1.9,-3.05 l 0.35,-0.75 0.05,2.05 0.95,-1.5 1.5,3.5 c 0,0 0,-1.4 0.15,-2.25 l 0.25,-1.15 0.4,1.9 0,0.6 0.35,-2.5 0.1,-0.35 0.9,0.95 0.1,0.25 c 0,0 0.15,-0.7 0,-1.35 l -0.45,-1.5 -0.15,0.6 -0.75,0.05 0,0.7 -0.75,-0.85 -0.65,1.35 c 0,0 -0.35,-1 -0.25,-1.45 l 0.05,-0.4 -0.65,0.75 -0.25,0.35 c 0,0 -0.25,-0.1 -0.25,-0.7 0,-0.55 -0.65,0.35 -0.65,0.35 l 0.35,-0.4 -0.35,0.4 c 0,0 -0.2,-0.9 0.05,-1.25 l 0.25,-0.35 -1.8,1.35 c 0,0 -0.3,-0.85 0.3,-1.25 z"
               inkscape:connector-curvature="0"
               style="fill:#f4f1d9" />
          </g>
          <g
             id="drawingObject15">
            <path
               id="path15"
               d="m 6.101,-36.549 -0.45,-0.35 0.4,0.75 q 0.4,0.85 0.4,1.15 l 0,0.5 c 0,0 0.25,-0.8 0.2,-1.3 -0.1,-0.5 -1,-1.1 -1,-1.1"
               inkscape:connector-curvature="0"
               style="fill:#f4f1d9" />
          </g>
          <g
             id="drawingObject16">
            <path
               id="path16"
               d="m 14.151,-39.249 -1,-0.15 1.5,0.9 0.15,0.25 c 0,0 -1.15,-0.65 -2.15,-1.05 -1,-0.45 -1.45,-0.45 -1.45,-0.45 l 0.35,0.05 -0.35,-0.05 2.25,1.85 c 0,0 -1.05,-0.25 -1.9,-0.65 -0.85,-0.45 -1.4,-0.5 -1.4,-0.5 l 0.4,0.1 -0.4,-0.1 2.05,1.4 c 0,0 -0.3,0 -1.15,-0.35 l -0.85,-0.3 1.5,1.15 c 0,0 -0.65,-0.15 -1.05,-0.5 l -1.45,-0.85 1.35,1.5 -2.35,-0.5 0.8,0.7 q 0.9,0.8 1.2,1.5 l 0.7,1.5 c 0,0 0.05,-0.25 0,-0.95 l -0.2,-1.05 0.7,0.5 -0.7,-0.5 c 0,0 1.25,0.75 2,1.55 0.75,0.85 0.95,1.35 0.95,1.35 0,0 -0.25,-1.6 -0.6,-2.5 l -0.35,-0.9 1.25,0.55 -1.25,-0.55 c 0,0 2.25,0.9 3.1,1.8 l 1.15,1.2 c 0,0 -0.5,-1.6 -1.05,-2.7 l -0.85,-1.4 1.5,0.5 -1.5,-0.5 c 0,0 2.75,0.7 3.85,1.85 l 1.05,1.15 c 0,0 -0.85,-2.15 -1.75,-3.1 -0.9,-0.9 -1.25,-1.55 -2.3,-1.8 l -1.1,-0.25 1.15,1 0.35,0.25 c 0,0 -1.15,-0.75 -2.15,-0.95 z"
               inkscape:connector-curvature="0"
               style="fill:#f4f1d9" />
          </g>
          <g
             id="drawingObject17">
            <path
               id="path17"
               d="m 19.151,-38.499 -1.6,-0.9 1.15,1 q 1.2,1.2 1.75,2.15 c 0.85,1.5 1.1,2.2 1.1,2.2 0,0 -0.35,-2.2 -0.6,-2.95 -0.25,-0.75 -3.4,-2.4 -3.4,-2.4"
               inkscape:connector-curvature="0"
               style="fill:#f4f1d9" />
          </g>
        </g>
        <g
           id="group5">
          <g
             id="drawingObject18">
            <path
               id="path18"
               d="m 2.801,-43.499 c 0.2,-0.45 0.15,-0.95 -0.45,-1.15 q -0.75,-0.3 -2.2,-0.25 -1,0 -1.85,0.2 c -0.7,0.15 -0.85,0.5 -0.6,1.15 0.3,0.6 1.85,0.5 3,0.5 1.15,0 1.85,0 2.1,-0.45 z"
               inkscape:connector-curvature="0"
               style="fill:#e6cb82" />
          </g>
          <g
             id="drawingObject19">
            <path
               id="path19"
               d="m 0.701,-43.049 c 1.15,0 1.85,0 2.1,-0.45 q 0.15,-0.4 0.1,-0.65 c -0.45,0.65 -1.85,0.8 -3.75,0.65 -1.4,-0.1 -1.55,-0.5 -1.45,-0.9 -0.15,0.2 -0.15,0.45 0,0.85 0.3,0.6 1.85,0.5 3,0.5 z"
               inkscape:connector-curvature="0"
               style="fill:#d7bc6f" />
          </g>
          <g
             id="drawingObject20">
            <path
               id="path20"
               d="m 1.301,-44.449 c 0.7,0.05 1.1,-0.45 -0.9,-0.4 q -0.65,0 -1.4,0.2 -0.75,0.2 -0.3,0.25 c 0.7,0.1 1.9,-0.1 2.6,-0.05 z"
               inkscape:connector-curvature="0"
               style="fill:#fae29f" />
          </g>
        </g>
        <g
           id="group6">
          <g
             id="drawingObject21">
            <path
               id="path21"
               d="m 2.951,-6.649 c 0.15,-0.25 0.1,-0.45 -0.3,-0.6 q -1.35,-0.3 -2.9,0 c -0.5,0.1 -0.6,0.25 -0.4,0.55 0.2,0.3 1.3,0.25 2.1,0.25 0.85,0 1.35,0 1.5,-0.2 z"
               inkscape:connector-curvature="0"
               style="fill:#e6cb82" />
          </g>
          <g
             id="drawingObject22">
            <path
               id="path22"
               d="m 1.451,-6.449 c 0.85,0 1.35,0 1.5,-0.2 q 0.15,-0.15 0.05,-0.35 c -0.3,0.35 -1.25,0.4 -2.65,0.35 -1,-0.05 -1.05,-0.25 -1,-0.45 -0.1,0.1 -0.1,0.25 0,0.4 0.2,0.3 1.3,0.25 2.1,0.25 z"
               inkscape:connector-curvature="0"
               style="fill:#d7bc6f" />
          </g>
          <g
             id="drawingObject23">
            <path
               id="path23"
               d="m 1.901,-7.149 c 0.5,0.05 0.75,-0.2 -0.65,-0.15 q -0.45,0 -1,0.1 -0.5,0.05 -0.2,0.1 c 0.5,0.05 1.35,-0.05 1.85,-0.05 z"
               inkscape:connector-curvature="0"
               style="fill:#fae29f" />
          </g>
        </g>
        <g
           id="group7">
          <g
             id="drawingObject24">
            <path
               id="path24"
               d="m 1.151,-24.599 q -1.1,0.1 -1.9,0.35 c -0.7,0.2 -0.8,0.75 -0.55,1.65 0.25,0.9 1.8,0.7 2.95,0.75 1.2,0 1.9,0 2.1,-0.65 0.25,-0.7 0.2,-1.35 -0.4,-1.7 q -0.8,-0.45 -2.2,-0.4 z"
               inkscape:connector-curvature="0"
               style="fill:#e6cb82" />
          </g>
          <g
             id="drawingObject25">
            <path
               id="path25"
               d="m 1.651,-21.849 c 1.2,0 1.9,0 2.1,-0.65 q 0.2,-0.45 0.1,-1 c -0.4,1.45 -1.9,1.45 -3.8,1.25 -1.45,-0.2 -1.45,-1 -1.35,-1.55 -0.15,0.3 -0.15,0.65 0,1.2 0.25,0.9 1.8,0.7 2.95,0.75 z"
               inkscape:connector-curvature="0"
               style="fill:#d7bc6f" />
          </g>
          <g
             id="drawingObject26">
            <path
               id="path26"
               d="m 2.451,-23.949 c 0.7,0.1 0.65,-0.45 -1.3,-0.4 q -0.7,0 -1.45,0.2 -0.7,0.25 -0.25,0.35 c 0.6,0.05 2.45,-0.2 3,-0.15 z"
               inkscape:connector-curvature="0"
               style="fill:#fae29f" />
          </g>
        </g>
        <g
           id="group8">
          <g
             id="drawingObject27">
            <path
               id="path27"
               d="m 19.751,-45.999 c 0.15,0.5 0.5,1.75 0.4,2.15 -0.15,0.35 -0.25,0.25 -0.65,0.85 -0.35,0.65 -0.6,1.25 -0.75,1.75 l -0.25,1.75 0.85,-1.45 -0.85,1.45 c 0,0 1.5,-3.1 2.4,-2.25 0.85,0.9 1.75,0.75 1.75,0.75 q -0.15,-3.25 0,-4.25 l 0.1,-1 -1.225,2.225 0.025,0.025 c -0.05,-0.3 -0.25,-0.65 -0.65,-1 -1.15,-1 -1.25,-1.5 -1.15,-1 z"
               inkscape:connector-curvature="0"
               style="fill:#fefce9" />
          </g>
        </g>
        <g
           id="group9">
          <g
             id="drawingObject28">
            <path
               id="path28"
               d="m -17.999,-26.349 c 0.65,-2.15 0.65,-1.75 0.65,-3 l 0,-5 -0.25,2.35 q -0.15,1.65 -0.65,2.95 -0.4,1 -1.25,2.45 c -0.85,1.5 -2.85,1.6 -2.85,1.6 l 0.25,2.75 c 0,0.75 0,2 0.1,3.65 0.15,1.6 1.15,2.5 1.15,2.5 l -0.15,-7.15 0.25,2.5 c 0.25,2 1.4,3.5 1.4,3.5 l -0.25,-2.25 c -0.1,-0.95 -0.1,-1.95 -0.05,-3.1 l 0.025,-0.35 0.025,0 c 0.2,1.2 0.85,2.7 0.85,2.7 l 0,-2.25 c 0,-1.5 0.15,-1.75 0.75,-3.85 z"
               inkscape:connector-curvature="0"
               style="fill:#b4b19f" />
          </g>
          <g
             id="drawingObject29">
            <path
               id="path29"
               d="m -25.599,-24.599 c 0,0 0.25,3.6 2.25,11.25 2,7.6 6.6,8.75 6.6,8.75 l -4,-4.4 0.55,0.55 -0.55,-0.55 c 0,0 0.75,0.9 2.15,1.75 1.35,0.9 2.25,0.75 2.25,0.75 0,0 -0.75,-0.35 -2,-1.35 -1.25,-1 -1.25,-2.65 -3,-6.15 q -1.1,-2.2 -0.95,-6 0.1,-2.35 0.45,-3.85 l -3.75,-0.75 z"
               inkscape:connector-curvature="0"
               style="fill:#b4b19f" />
          </g>
        </g>
        <g
           id="group10">
          <g
             id="drawingObject30">
            <path
               id="path30"
               d="m 20.651,-24.199 -0.4,-0.8 c 0,0 0.75,1.25 0.9,2.75 l 0.1,2 c 0,0 0.65,-0.75 0.9,-2.1 l 0.25,-1.4 0.6,2.15 0.15,3.5 0.75,-2.75 c 0.35,-1.65 -0.2,-3.25 0.45,-4.35 0.65,-1.15 0.8,-8.9 0.8,-8.9 q -1.45,9.05 -2.2,8.95 c -3,-0.35 -4.3,-4 -4.45,-7.95 -0.1,-3.05 -0.5,-3 -0.5,-3 l 0.2,0.35 -0.2,-0.35 -0.2,2.9 0.2,-2.9 c 0,0 -0.5,5.5 -0.1,6.6 0.35,1.15 1.35,3.5 1.5,5.75 l 0.1,2.25 0.65,-2.75 0.1,-0.75"
               inkscape:connector-curvature="0"
               style="fill:#b4b19f" />
          </g>
        </g>
        <g
           id="group11">
          <g
             id="group12">
            <g
               id="drawingObject31">
              <path
                 id="path31"
                 d="m -34.699,-42.649 c -3.8,4.55 -5.85,13.65 -3.15,24 2.25,8.75 7.65,13.5 8.8,12.15 1.2,-1.3 6.2,-35.15 6.2,-35.15 l 0,-2.15 -1.35,-1.35 c 0,0 -7.15,-1.5 -10.5,2.5 z"
                 inkscape:connector-curvature="0"
                 style="fill:#c0884a" />
            </g>
            <g
               id="drawingObject32">
              <path
                 id="path32"
                 d="m -18.049,-34.999 c 0.35,-7.65 -4.5,-10.8 -9.3,-10.15 q -3.85,0.5 -6.1,2.55 -2.5,2.25 -3.6,6.8 c -1.5,6.3 -1.8,15.3 1.5,21.8 3.85,7.5 6.5,10 10.2,8.5 3.25,-1.3 2.8,-7.65 2.65,-12.3 -0.1,-2.6 0.5,-8 0.5,-8 l -0.3,3.05 0.3,-3.05 1.95,-1.2 -1.95,1.2 c 0,0 3.75,-0.2 4.15,-9.2 z"
                 inkscape:connector-curvature="0"
                 style="fill:#9c6634" />
            </g>
            <g
               id="group13">
              <g
                 id="drawingObject33">
                <path
                   id="path33"
                   d="m -22.649,-15.849 -0.05,-2.65 c -0.6,1 -1.7,2 -3.85,2.35 l -5.15,0.85 2.7,0.25 -2.7,-0.25 c 0,0 4.75,0.65 7.15,0 l 1.9,-0.55 z"
                   inkscape:connector-curvature="0"
                   style="fill:#84562c" />
              </g>
              <g
                 id="drawingObject34">
                <path
                   id="path34"
                   d="m -30.199,-43.799 c 0,0 5.5,3 6.5,7.4 1,4.4 1.15,6.75 1.15,6.75 0,0 -1.5,-3.65 -5,-6 -3.5,-2.35 -8.3,0 -8.3,0 l 2.85,-0.9 -2.85,0.9 2.75,-0.1 -2.75,0.1 c 0,0 4.8,-0.65 7.5,1 2.65,1.65 4.3,4.35 5,5.85 l 0.65,1.5 c 0,0 -2,-3.2 -7.65,-3 -5.7,0.15 -6.35,1.65 -6.35,1.65 l 1.05,-0.75 -1.05,0.75 2.1,-0.5 -2.1,0.5 c 0,0 3.35,-1.15 6.65,-0.5 3.35,0.65 6.35,2.15 6.7,3.15 0.3,1 0.3,3 0.3,3 0,0 -1.65,-0.5 -5.5,-0.5 -3.8,0 -6.5,1.35 -6.5,1.35 l 1.85,-0.65 -1.85,0.65 2.45,-0.65 q 3,-0.55 5.6,0.05 c 2.65,0.6 3.9,0.95 4.4,1.15 l 0.4,-4.2 1.95,-1.2 -1.95,1.2 c 0,0 3.75,-0.2 4.15,-9.2 0.1,-1.65 -0.1,-3.05 -0.45,-4.3 0,2.45 -0.15,6.3 -1.05,8.5 -1.3,3.3 -2.15,3.65 -2.15,3.65 0,0 2.35,-5.15 1.65,-10.35 l -0.65,-5.15 0.15,3.5 -0.15,-3.5 c 0,0 0.5,6 -0.35,10 l -0.8,4 c 0,0 1,-6.15 -2.2,-10.5 -3.15,-4.35 -6.15,-4.65 -6.15,-4.65 z"
                   inkscape:connector-curvature="0"
                   style="fill:#84562c" />
              </g>
              <g
                 id="drawingObject35">
                <path
                   id="path35"
                   d="m -31.699,-9.299 c 0,0 2.35,2.65 6.85,1 l 1.85,-0.75 c 0.15,-0.55 0.25,-1.15 0.3,-1.75 -0.05,0.05 -1.75,2.6 -4.95,2.2 -3.2,-0.4 -4.05,-0.7 -4.05,-0.7 z"
                   inkscape:connector-curvature="0"
                   style="fill:#84562c" />
              </g>
              <g
                 id="drawingObject36">
                <path
                   id="path36"
                   d="m -29.849,-12.499 c 0,0 3.6,0.85 7.25,-0.85 l 0,-1.8 c -0.45,0.7 -1.4,1.6 -3.25,2 l -4,0.65 z"
                   inkscape:connector-curvature="0"
                   style="fill:#84562c" />
              </g>
            </g>
          </g>
          <g
             id="group14">
            <g
               id="drawingObject37">
              <path
                 id="path37"
                 d="m -27.949,-44.499 c -0.65,0.35 0.4,0.95 1.6,1.2 1.15,0.25 2.65,0.55 3.5,1.05 0.8,0.5 1.25,1 1.4,0.75 0.15,-0.25 0.15,-0.45 0.15,-0.8 0,-0.35 -1,-1.95 -3.3,-2.35 q -2.3,-0.35 -3.35,0.15 z"
                 inkscape:connector-curvature="0"
                 style="fill:#ab7539" />
            </g>
            <g
               id="drawingObject38">
              <path
                 id="path38"
                 d="m -26.849,-40.399 c -1.45,-1.4 -2.7,-2.9 -4.75,-2.65 q -1,0.1 -2.45,1.55 -1.6,1.55 -0.65,2.2 c 1.4,1 4.85,0.35 6.75,1 1.9,0.65 2.65,1.05 2.65,1.05 0,0 -0.15,-1.75 -1.55,-3.15 z"
                 inkscape:connector-curvature="0"
                 style="fill:#ab7539" />
            </g>
            <g
               id="drawingObject39">
              <path
                 id="path39"
                 d="m -28.049,-31.899 c 0,0 -0.8,-3.1 -5.15,-3.1 q -1.55,0 -2.1,0.2 -0.55,0.2 -1,0.9 c -0.55,0.9 -1,1.65 -0.4,1.9 0.6,0.25 3.9,-0.3 5.9,-0.25 2,0.1 2.75,0.35 2.75,0.35 z"
                 inkscape:connector-curvature="0"
                 style="fill:#ab7539" />
            </g>
            <g
               id="drawingObject40">
              <path
                 id="path40"
                 d="m -27.449,-25.999 c 0,-0.25 -1.65,-2.15 -4.6,-2.25 q -1.6,-0.05 -3.05,0.4 -1.2,0.35 -1.5,0.7 c -0.35,0.4 -1.1,1.65 -0.2,2.15 0.95,0.5 2.95,0 4.45,-0.25 1.5,-0.25 2.75,-0.25 3,-0.25 0.25,0 1.9,-0.25 1.9,-0.5 z"
                 inkscape:connector-curvature="0"
                 style="fill:#ab7539" />
            </g>
            <g
               id="drawingObject41">
              <path
                 id="path41"
                 d="m -31.049,-20.649 c 0.25,-0.25 -0.5,-0.65 -1.05,-0.9 q -0.95,-0.4 -2.35,0.25 -1.35,0.6 -1.35,1.05 c 0,0.5 -0.25,1.25 1.45,0.75 1.65,-0.5 3.05,-0.9 3.3,-1.15 z"
                 inkscape:connector-curvature="0"
                 style="fill:#ab7539" />
            </g>
            <g
               id="drawingObject42">
              <path
                 id="path42"
                 d="m -32.949,-17.549 c 0.35,-0.25 0,-1.25 -0.1,-1.35 q -0.25,-0.25 -0.75,0.05 -0.5,0.35 -0.4,0.7 c 0.15,0.5 0.9,0.85 1.25,0.6 z"
                 inkscape:connector-curvature="0"
                 style="fill:#ab7539" />
            </g>
            <g
               id="drawingObject43">
              <path
                 id="path43"
                 d="m -31.099,-13.149 c 0.75,-0.35 -0.35,-1.15 -0.85,-1.25 q -0.6,-0.1 -0.75,-0.05 -0.3,0.1 -0.15,0.45 c 0.15,0.6 1,1.2 1.75,0.85 z"
                 inkscape:connector-curvature="0"
                 style="fill:#ab7539" />
            </g>
            <g
               id="drawingObject44">
              <path
                 id="path44"
                 d="m -29.199,-10.899 c 0,0 -1.4,-0.25 -2.15,-0.65 q -0.4,-0.25 -0.75,-0.1 -0.3,0.15 -0.2,0.6 c 0.2,0.55 1.45,1.25 2.25,1 0.85,-0.25 0.85,-0.85 0.85,-0.85 z"
                 inkscape:connector-curvature="0"
                 style="fill:#ab7539" />
            </g>
            <g
               id="drawingObject45">
              <path
                 id="path45"
                 d="m -29.299,-6.499 c 0.6,-0.15 -0.15,-0.8 -0.15,-0.8 l -0.5,-0.25 q -0.3,-0.15 -0.25,0.2 c 0.1,0.6 0.35,1.05 0.9,0.85 z"
                 inkscape:connector-curvature="0"
                 style="fill:#ab7539" />
            </g>
            <g
               id="drawingObject46">
              <path
                 id="path46"
                 d="m -25.049,-44.499 c -1.05,-0.05 -1.7,-0.05 -1.4,0.25 q 0.6,0.6 1.75,0.6 c 0.6,0 1.4,0.4 1.2,0 -0.2,-0.45 -0.5,-0.75 -1.55,-0.85 z"
                 inkscape:connector-curvature="0"
                 style="fill:#c0884a" />
            </g>
            <g
               id="drawingObject47">
              <path
                 id="path47"
                 d="m -29.349,-40.899 c -0.1,-0.5 -1.15,-1.6 -2.45,-1.5 q -0.55,0 -1.35,0.45 -0.8,0.5 -0.85,0.95 c -0.05,0.7 2.8,0.75 3.55,0.75 0.75,0 1.15,-0.15 1.1,-0.65 z"
                 inkscape:connector-curvature="0"
                 style="fill:#c0884a" />
            </g>
            <g
               id="drawingObject48">
              <path
                 id="path48"
                 d="m -32.999,-32.999 c 0.45,-0.1 0.25,-1.6 -1.6,-1.5 q -0.55,0.05 -1.2,0.55 -0.7,0.5 -0.45,0.9 c 0.4,0.55 2.8,0.2 3.25,0.05 z"
                 inkscape:connector-curvature="0"
                 style="fill:#c0884a" />
            </g>
            <g
               id="drawingObject49">
              <path
                 id="path49"
                 d="m -33.349,-26.049 c 0.75,-0.2 0.15,-1.2 -1.35,-1.2 q -0.65,0 -1.45,0.5 -0.75,0.5 -0.4,0.75 c 0.5,0.4 2.45,0.15 3.2,-0.05 z"
                 inkscape:connector-curvature="0"
                 style="fill:#c0884a" />
            </g>
            <g
               id="drawingObject50">
              <path
                 id="path50"
                 d="m -33.699,-20.249 c 0.45,-0.3 0.4,-0.8 -0.25,-0.85 q -0.4,-0.05 -0.85,0.35 -0.5,0.35 -0.45,0.65 c 0.15,0.35 1.15,0.2 1.55,-0.15 z"
                 inkscape:connector-curvature="0"
                 style="fill:#c0884a" />
            </g>
          </g>
        </g>
        <g
           id="group15">
          <g
             id="group16">
            <g
               id="drawingObject51">
              <path
                 id="path51"
                 d="m 38.751,-18.649 c 2.65,-10.35 0.65,-19.45 -3.15,-24 -3.35,-4 -10.5,-2.5 -10.5,-2.5 l 4,-0.25 -4,0.25 -1.35,1.35 0,2.15 c 0,0 5,33.85 6.15,35.15 1.2,1.35 6.6,-3.4 8.85,-12.15 z"
                 inkscape:connector-curvature="0"
                 style="fill:#c0884a" />
            </g>
            <g
               id="drawingObject52">
              <path
                 id="path52"
                 d="m 28.251,-45.149 c -4.85,-0.65 -9.65,2.5 -9.35,10.15 0.4,9 4.2,9.2 4.2,9.2 l 0.3,3.05 -0.3,-3.05 c 0,0 0.6,5.4 0.5,8 -0.2,4.65 -0.65,11 2.65,12.3 3.65,1.5 6.3,-1 10.15,-8.5 3.35,-6.5 3,-15.5 1.5,-21.8 q -1.1,-4.55 -3.55,-6.8 -2.25,-2.05 -6.1,-2.55 z"
                 inkscape:connector-curvature="0"
                 style="fill:#9c6634" />
            </g>
            <g
               id="group17">
              <g
                 id="drawingObject53">
                <path
                   id="path53"
                   d="m 23.601,-18.499 -0.1,2.65 1.95,0.55 c 2.35,0.65 7.15,0 7.15,0 l -5.2,-0.85 c -2.15,-0.35 -3.25,-1.35 -3.8,-2.35 z"
                   inkscape:connector-curvature="0"
                   style="fill:#84562c" />
              </g>
              <g
                 id="drawingObject54">
                <path
                   id="path54"
                   d="m 21.901,-32.649 c -0.8,-4 -0.3,-10 -0.3,-10 l -0.15,3.5 0.15,-3.5 -0.7,5.15 c -0.65,5.2 1.7,10.35 1.7,10.35 0,0 -0.85,-0.35 -2.2,-3.65 -0.85,-2.2 -1,-6.05 -1,-8.5 -0.4,1.25 -0.55,2.65 -0.5,4.3 0.4,9 4.2,9.2 4.2,9.2 l 0.35,4.2 c 0.55,-0.2 1.75,-0.55 4.45,-1.15 q 2.55,-0.6 5.55,-0.05 1.5,0.25 2.45,0.65 c 0,0 -2.65,-1.35 -6.5,-1.35 -3.8,0 -5.5,0.5 -5.5,0.5 l 1.35,-0.25 -1.35,0.25 c 0,0 0,-2 0.35,-3 0.35,-1 3.35,-2.5 6.65,-3.15 3.35,-0.65 6.7,0.5 6.7,0.5 0,0 -0.7,-1.5 -6.35,-1.65 -5.65,-0.2 -7.65,3 -7.65,3 l 1.7,-1.55 -1.7,1.55 0.65,-1.5 c 0.65,-1.5 2.35,-4.2 5,-5.85 2.65,-1.65 7.5,-1 7.5,-1 0,0 -4.85,-2.35 -8.35,0 -3.5,2.35 -5,6 -5,6 l 1.2,-2.1 -1.2,2.1 c 0,0 0.2,-2.35 1.2,-6.75 1,-4.4 6.5,-7.4 6.5,-7.4 0,0 -3,0.3 -6.2,4.65 -3.15,4.35 -2.15,10.5 -2.15,10.5 l -0.85,-4 z"
                   inkscape:connector-curvature="0"
                   style="fill:#84562c" />
              </g>
              <g
                 id="drawingObject55">
                <path
                   id="path55"
                   d="m 25.751,-8.299 c 4.5,1.65 6.85,-1 6.85,-1 0,0 -0.85,0.3 -4.05,0.7 -3.2,0.4 -4.95,-2.15 -4.95,-2.2 l 0.25,1.75 1.9,0.75 z"
                   inkscape:connector-curvature="0"
                   style="fill:#84562c" />
              </g>
              <g
                 id="drawingObject56">
                <path
                   id="path56"
                   d="m 23.451,-13.349 c 3.65,1.7 7.3,0.85 7.3,0.85 0,0 -0.85,0 -4,-0.65 -1.85,-0.4 -2.8,-1.3 -3.25,-2 l -0.05,1.8 z"
                   inkscape:connector-curvature="0"
                   style="fill:#84562c" />
              </g>
            </g>
          </g>
          <g
             id="group18">
            <g
               id="drawingObject57">
              <path
                 id="path57"
                 d="m 27.251,-43.299 c 1.15,-0.25 2.25,-0.85 1.6,-1.2 q -1.15,-0.5 -3.35,-0.15 c -2.35,0.4 -3.35,2 -3.35,2.35 0,0.35 0,0.55 0.2,0.8 0.15,0.25 0.55,-0.25 1.4,-0.75 0.85,-0.5 2.35,-0.8 3.5,-1.05 z"
                 inkscape:connector-curvature="0"
                 style="fill:#ab7539" />
            </g>
            <g
               id="drawingObject58">
              <path
                 id="path58"
                 d="m 28.851,-38.299 c 1.9,-0.65 5.3,0 6.75,-1 q 0.95,-0.65 -0.65,-2.2 -1.5,-1.45 -2.45,-1.55 c -2.1,-0.25 -3.35,1.25 -4.75,2.65 -1.4,1.4 -1.6,3.15 -1.6,3.15 l 2.7,-1.05 z"
                 inkscape:connector-curvature="0"
                 style="fill:#ab7539" />
            </g>
            <g
               id="drawingObject59">
              <path
                 id="path59"
                 d="m 29.851,-33.449 -0.95,1.55 0.65,-0.15 -0.65,0.15 c 0,0 0.75,-0.25 2.75,-0.35 2,-0.05 5.35,0.5 5.95,0.25 0.55,-0.25 0.15,-1 -0.45,-1.9 q -0.4,-0.7 -0.95,-0.9 -0.6,-0.2 -2.1,-0.2 c -4.35,0 -5.2,3.1 -5.2,3.1"
                 inkscape:connector-curvature="0"
                 style="fill:#ab7539" />
            </g>
            <g
               id="drawingObject60">
              <path
                 id="path60"
                 d="m 32.901,-28.249 c -2.9,0.1 -4.55,2 -4.55,2.25 0,0.25 1.65,0.5 1.9,0.5 0.25,0 1.5,0 3,0.25 1.5,0.25 3.5,0.75 4.4,0.25 0.95,-0.5 0.2,-1.75 -0.15,-2.15 q -0.35,-0.4 -1.5,-0.7 -1.45,-0.45 -3.1,-0.4 z"
                 inkscape:connector-curvature="0"
                 style="fill:#ab7539" />
            </g>
            <g
               id="drawingObject61">
              <path
                 id="path61"
                 d="m 33.001,-21.549 c -0.6,0.25 -1.35,0.65 -1.1,0.9 0.25,0.25 1.7,0.65 3.35,1.15 1.65,0.5 1.4,-0.25 1.4,-0.75 q 0,-0.45 -1.3,-1.05 -1.4,-0.65 -2.35,-0.25 z"
                 inkscape:connector-curvature="0"
                 style="fill:#ab7539" />
            </g>
            <g
               id="drawingObject62">
              <path
                 id="path62"
                 d="m 33.901,-18.899 c -0.05,0.1 -0.4,1.1 -0.05,1.35 0.3,0.25 1.05,-0.1 1.25,-0.6 q 0.1,-0.35 -0.4,-0.7 -0.55,-0.3 -0.8,-0.05 z"
                 inkscape:connector-curvature="0"
                 style="fill:#ab7539" />
            </g>
            <g
               id="drawingObject63">
              <path
                 id="path63"
                 d="m 32.851,-14.399 c -0.5,0.1 -1.6,0.9 -0.85,1.25 0.75,0.35 1.6,-0.25 1.75,-0.85 q 0.1,-0.35 -0.15,-0.45 -0.15,-0.05 -0.75,0.05 z"
                 inkscape:connector-curvature="0"
                 style="fill:#ab7539" />
            </g>
            <g
               id="drawingObject64">
              <path
                 id="path64"
                 d="m 32.251,-11.549 c -0.75,0.4 -2.15,0.65 -2.15,0.65 l 0.8,-0.15 -0.8,0.15 0.1,0.35 -0.1,-0.35 c 0,0 0,0.6 0.8,0.85 0.85,0.25 2.1,-0.45 2.25,-1 q 0.15,-0.45 -0.2,-0.6 -0.3,-0.15 -0.7,0.1 z"
                 inkscape:connector-curvature="0"
                 style="fill:#ab7539" />
            </g>
            <g
               id="drawingObject65">
              <path
                 id="path65"
                 d="m 30.351,-7.299 c 0,0 -0.75,0.65 -0.2,0.8 0.6,0.2 0.85,-0.25 0.9,-0.85 q 0.05,-0.35 -0.2,-0.2 -0.45,0.25 -0.5,0.25 z"
                 inkscape:connector-curvature="0"
                 style="fill:#ab7539" />
            </g>
            <g
               id="drawingObject66">
              <path
                 id="path66"
                 d="m 27.301,-44.249 c 0.35,-0.3 -0.3,-0.3 -1.35,-0.25 -1.05,0.1 -1.4,0.4 -1.55,0.85 -0.2,0.4 0.6,0 1.15,0 q 1.25,0 1.75,-0.6 z"
                 inkscape:connector-curvature="0"
                 style="fill:#c0884a" />
            </g>
            <g
               id="drawingObject67">
              <path
                 id="path67"
                 d="m 32.701,-42.399 c -1.3,-0.1 -2.4,1 -2.45,1.5 -0.05,0.5 0.3,0.65 1.05,0.65 0.75,0 3.65,-0.05 3.6,-0.75 q -0.05,-0.45 -0.85,-0.95 -0.8,-0.45 -1.35,-0.45 z"
                 inkscape:connector-curvature="0"
                 style="fill:#c0884a" />
            </g>
            <g
               id="drawingObject68">
              <path
                 id="path68"
                 d="m 35.501,-34.499 c -1.85,-0.1 -2.05,1.4 -1.6,1.5 0.4,0.15 2.85,0.5 3.25,-0.05 q 0.25,-0.4 -0.45,-0.9 -0.65,-0.5 -1.2,-0.55 z"
                 inkscape:connector-curvature="0"
                 style="fill:#c0884a" />
            </g>
            <g
               id="drawingObject69">
              <path
                 id="path69"
                 d="m 35.551,-27.249 c -1.5,0 -2.05,1 -1.3,1.2 0.75,0.2 2.7,0.45 3.2,0.05 q 0.35,-0.25 -0.4,-0.75 -0.8,-0.5 -1.5,-0.5 z"
                 inkscape:connector-curvature="0"
                 style="fill:#c0884a" />
            </g>
            <g
               id="drawingObject70">
              <path
                 id="path70"
                 d="m 34.801,-21.099 c -0.6,0.05 -0.65,0.55 -0.25,0.85 0.45,0.35 1.45,0.5 1.6,0.15 q 0.1,-0.3 -0.45,-0.65 -0.5,-0.4 -0.9,-0.35 z"
                 inkscape:connector-curvature="0"
                 style="fill:#c0884a" />
            </g>
          </g>
        </g>
      </g>
    </g>
  </g>
</svg>
