<?xml version="1.0" encoding="UTF-8" standalone="no"?>
<!-- Generator: flash2svg, http://dissentgraphics.com/tools/flash2svg -->

<svg
   xmlns:dc="http://purl.org/dc/elements/1.1/"
   xmlns:cc="http://creativecommons.org/ns#"
   xmlns:rdf="http://www.w3.org/1999/02/22-rdf-syntax-ns#"
   xmlns:svg="http://www.w3.org/2000/svg"
   xmlns="http://www.w3.org/2000/svg"
   xmlns:sodipodi="http://sodipodi.sourceforge.net/DTD/sodipodi-0.dtd"
   xmlns:inkscape="http://www.inkscape.org/namespaces/inkscape"
   id="AvatarAssets"
   image-rendering="auto"
   version="1.1"
   x="0px"
   y="0px"
   width="47.700001"
   height="13.077443"
   viewBox="0 0 47.700001 13.077443"
   inkscape:version="0.48.4 r9939"
   sodipodi:docname="AvatarAssets_backHatEvil.svg">
  <metadata
     id="metadata3152">
    <rdf:RDF>
      <cc:Work
         rdf:about="">
        <dc:format>image/svg+xml</dc:format>
        <dc:type
           rdf:resource="http://purl.org/dc/dcmitype/StillImage" />
      </cc:Work>
    </rdf:RDF>
  </metadata>
  <sodipodi:namedview
     pagecolor="#ffffff"
     bordercolor="#666666"
     borderopacity="1"
     objecttolerance="10"
     gridtolerance="10"
     guidetolerance="10"
     inkscape:pageopacity="0"
     inkscape:pageshadow="2"
     inkscape:window-width="640"
     inkscape:window-height="480"
     id="namedview3150"
     showgrid="false"
     fit-margin-top="0"
     fit-margin-left="0"
     fit-margin-right="0"
     fit-margin-bottom="0"
     inkscape:zoom="1.9032258"
     inkscape:cx="56.249"
     inkscape:cy="-22.446809"
     inkscape:window-x="406"
     inkscape:window-y="372"
     inkscape:window-maximized="0"
     inkscape:current-layer="AvatarAssets" />
  <defs
     id="defs3113" />
  <g
     id="backHatEvil1"
     overflow="visible"
     style="overflow:visible"
     transform="translate(24.249,54.226443)">
    <g
       id="backHatEvil_0">
      <g
         id="element">
        <g
           id="drawingObject">
          <path
             id="path"
             d="m -10.549,-47.599 c 0,0 -0.3,-1.55 -1.25,-2.75 -4,-4.9 -7.8,-4.05 -9.65,-3.3 q -0.8,0.35 -1.6,1.4 -0.8,1.05 -1.05,2.1 c -0.3,1.35 0.15,2.8 0.5,3.15 0.45,0.45 1.1,0.7 1.1,0.7 0,0 0.7,0.55 1.1,-0.5 0.5,-1.25 0.6,-0.5 1,0.2 0.8,1.4 -0.2,5.45 -0.2,5.45 l 1.45,-1.35 -1.45,1.35 c 0,0 2.65,-2.6 3.7,-3.2 2.3,-1.4 6.35,-3.25 6.35,-3.25 z"
             inkscape:connector-curvature="0"
             style="fill:#ecd5bc" />
        </g>
        <g
           id="group1">
          <g
             id="drawingObject1">
            <path
               id="path1"
               d="m -17.799,-52.349 0.1,0.45 c 0.1,0.4 -0.05,1.3 -1,1.65 -0.8,0.35 -2.15,1.75 -2.25,2.8 0.2,0.05 0.3,0.45 0.55,0.85 0.8,1.4 -0.2,5.45 -0.2,5.45 l 1.45,-1.35 -1.45,1.35 c 0,0 2.65,-2.6 3.7,-3.2 2.3,-1.4 6.35,-3.25 6.35,-3.25 0,0 -0.3,-1.55 -1.25,-2.75 q -1.2,-1.5 -2.65,-2.5 l -1.6,-0.4 c -0.75,-0.25 -1.45,-0.3 -2.1,-0.2 l 0.2,-0.05 -0.225,0.05 0.025,0 c 0.25,0 0.6,0.05 1.05,0.2 l -0.6,0.05 -1.35,0.35 1.45,-0.1 c 0.65,0.05 1.5,0.25 2.25,0.95 0.7,0.65 0.4,1.05 0.8,1.7 0.4,0.7 0.95,1.95 0.95,1.95 l -2.6,-3.1 0.4,0.55 c 0.35,0.55 0.75,1.5 0.75,1.5 0,0 -0.25,0.05 -1.15,-0.2 -0.85,-0.25 -0.9,-0.9 -1.05,-1.45 l -0.55,-1.3 z"
               inkscape:connector-curvature="0"
               style="fill:#d5c1aa" />
          </g>
        </g>
        <g
           id="drawingObject2">
          <path
             id="path2"
             d="m -23.549,-50.549 -0.25,0.55 q -0.25,0.6 -0.2,0.9 l 0.1,0.5 -0.35,-0.15 0.1,0.7 -0.1,-0.7 c 0,0 0,1.25 0.65,1.75 0.6,0.5 1.3,1.35 1.9,0.65 0.65,-0.7 0.15,-1.8 0.65,-3 0.5,-1.2 0.5,-1.3 0.85,-1.5 l 0.3,-0.2 c 0,0 -0.6,0 -0.95,0.5 l -0.55,0.85 c 0,0 0.5,-1.3 0.95,-1.8 l 0.5,-0.55 c 0,0 -1.6,0.75 -1.8,1.45 l -0.25,0.7 c 0,0 0.45,-2.1 0.9,-2.5 l 0.4,-0.4 c 0,0 -1.2,0.7 -1.5,1.4 l -0.3,0.7 -0.05,-0.7 -0.4,0.6 -0.15,0.8 c 0,0 -0.6,-0.1 -0.45,-0.55 z"
             inkscape:connector-curvature="0"
             style="fill:#fbe7d1" />
        </g>
        <g
           id="group2">
          <g
             id="drawingObject3">
            <path
               id="path3"
               d="m -14.099,-50.999 0.65,1.7 c 0.55,1.4 0.5,2 0.5,2 l -1.25,-1.45 0.55,2.2 -0.2,-0.35 c -0.2,-0.35 -1.25,-0.75 -1.25,-0.75 l 0.55,0.25 -0.55,-0.25 0.2,0.75 c 0.15,0.8 -0.15,0.5 -0.15,0.5 l -0.2,-0.45 c -0.15,-0.5 -1,-1.6 -1,-1.6 l 0.45,0.6 -0.45,-0.6 0.2,0.9 c 0.2,0.95 0,1.4 0,1.4 l -0.15,-0.7 c 0.05,0.3 0.05,0.85 -0.25,1.4 -0.45,0.65 -1.05,0.4 -1.05,0.4 l 0.35,0.05 -0.35,-0.05 -0.25,-1.3 -0.15,1.25 c -0.15,0.85 -0.45,1.25 -0.45,1.25 l -0.15,-0.925 0,0.025 c 0,0.2 0.05,0.6 -0.2,1 -0.35,0.5 -0.7,-0.7 -0.7,-0.7 0,0 0,0.45 -0.25,1 -0.2,0.35 -0.4,0.4 -0.55,0.2 -0.15,1.15 -0.4,2.1 -0.4,2.1 l 1.45,-1.35 -1.45,1.35 c 0,0 2.65,-2.6 3.7,-3.2 2.3,-1.4 6.35,-3.25 6.35,-3.25 0,0 -0.3,-1.55 -1.25,-2.75 -0.75,-0.9 -1.45,-1.6 -2.2,-2.15 l -1.95,-0.55 1.4,1.05 c 1.45,1.05 2.05,3.2 2.05,3.2 l -0.35,-0.75 c -0.35,-0.75 -1.25,-1.45 -1.25,-1.45 z"
               inkscape:connector-curvature="0"
               style="fill:#c1af9a" />
          </g>
          <g
             id="drawingObject4">
            <path
               id="path4"
               d="m -17.699,-50.399 -0.05,-0.85 c -0.1,0.4 -0.35,0.8 -0.95,1 -0.8,0.35 -2.15,1.75 -2.25,2.8 q 0.1,0.05 0.25,0.3 0.25,0.5 0.3,0.55 c 0.2,0.35 0.3,0.85 0.3,1.4 0.2,-0.75 0.5,-1.55 0.7,-1.8 l 0.25,-0.4 c 0.15,-0.25 0.1,-0.4 0.1,-0.5 l 0.2,0.4 c 0.2,0.45 0.5,1.65 0.5,1.65 l 0,-2.9 1,2.2 c 0,0 0.05,-0.25 -0.2,-1.3 l -0.35,-1.6 0.65,0.6 c 0,0 -0.35,-0.7 -0.45,-1.55 z"
               inkscape:connector-curvature="0"
               style="fill:#c1af9a" />
          </g>
        </g>
        <g
           id="drawingObject5">
          <path
             id="path5"
             d="m -23.949,-47.899 c 0.65,1.3 0.7,-0.4 0.7,-0.4 q -0.05,-0.5 0.05,-1.25 0.1,-1.4 0.6,-2.3 c 0.8,-1.4 1.65,-1.8 2.6,-2.05 1,-0.3 2.85,-0.15 2.85,-0.15 0,0 -3.05,-0.6 -4.75,0.45 -1.7,1.1 -2.85,4 -2.05,5.7 z"
             inkscape:connector-curvature="0"
             style="fill:#fbe7d1" />
        </g>
        <g
           id="drawingObject6">
          <path
             id="path6"
             d="m -18.049,-49.899 c 0.3,-0.5 0.3,-1.35 0.3,-1.35 0,0 -1,0.45 -1.9,1.6 l -1.15,1.65 c 0,0 1,0 0.8,0.5 q 0,0.1 0.25,-0.65 l 0.25,-0.75 0.25,0.1 -0.25,-0.1 c 0,0 0.5,0.15 0.6,0.4 0.1,0.25 0.15,-0.8 0.15,-0.8 l 0.2,-0.1 -0.2,0.1 c 0,0 0.35,-0.1 0.7,-0.6 z"
             inkscape:connector-curvature="0"
             style="fill:#af9f8b" />
        </g>
        <g
           id="drawingObject7">
          <path
             id="path7"
             d="m 20.701,-53.649 c -1.85,-0.75 -5.7,-1.6 -9.65,3.3 -1,1.2 -1.3,2.75 -1.3,2.75 l 2.35,1.1 -2.35,-1.1 c 0,0 4.1,1.85 6.35,3.25 1.05,0.6 3.7,3.2 3.7,3.2 0,0 -0.95,-4.05 -0.15,-5.45 0.4,-0.7 0.45,-1.45 1,-0.2 0.4,1.05 1.1,0.5 1.1,0.5 l 1.1,-0.7 c 0.35,-0.35 0.8,-1.8 0.45,-3.15 q -0.25,-1.05 -1,-2.1 -0.8,-1.05 -1.6,-1.4 z"
             inkscape:connector-curvature="0"
             style="fill:#ecd5bc" />
        </g>
        <g
           id="group3">
          <g
             id="drawingObject8">
            <path
               id="path8"
               d="m 16.951,-51.899 0.05,-0.45 -0.5,1.3 c -0.2,0.55 -0.2,1.2 -1.1,1.45 l -1.1,0.2 0.75,-1.5 0.4,-0.55 c 0,0 -0.65,0.55 -1.6,1.8 l -1,1.3 0.9,-1.95 c 0.4,-0.65 0.1,-1.05 0.85,-1.7 0.7,-0.7 1.6,-0.9 2.25,-0.95 0.65,-0.05 1.4,0.1 1.4,0.1 0,0 -0.7,-0.25 -1.3,-0.35 l -0.65,-0.05 1.25,-0.2 0.45,0.1 c 0,0 -1.25,-0.4 -2.7,0.1 l -1.65,0.4 q -1.3,0.95 -2.6,2.5 c -1,1.2 -1.3,2.75 -1.3,2.75 l 2.35,1.1 -2.35,-1.1 c 0,0 4.1,1.85 6.35,3.25 1.05,0.6 3.7,3.2 3.7,3.2 0,0 -0.95,-4.05 -0.15,-5.45 0.2,-0.4 0.35,-0.8 0.5,-0.85 -0.05,-1.05 -1.4,-2.45 -2.25,-2.8 -0.95,-0.35 -1.05,-1.25 -0.95,-1.65 z"
               inkscape:connector-curvature="0"
               style="fill:#d5c1aa" />
          </g>
        </g>
        <g
           id="drawingObject9">
          <path
             id="path9"
             d="m 20.551,-52.349 -0.6,-0.45 0.4,0.4 c 0.45,0.4 0.9,2.5 0.9,2.5 l -0.25,-0.7 c -0.25,-0.7 -1.8,-1.45 -1.8,-1.45 l 0.8,0.45 -0.8,-0.45 0.45,0.55 c 0.45,0.5 0.95,1.8 0.95,1.8 l -0.5,-0.85 c -0.35,-0.5 -1,-0.5 -1,-0.5 l 0.35,0.05 -0.35,-0.05 0.35,0.2 c 0.35,0.2 0.3,0.3 0.85,1.5 0.5,1.2 0,2.3 0.6,3 0.65,0.7 1.35,-0.15 1.95,-0.65 0.6,-0.5 0.6,-1.75 0.6,-1.75 l -0.3,0.15 0.1,-0.5 q 0.05,-0.3 -0.2,-0.9 l -0.3,-0.55 c 0.2,0.45 -0.4,0.55 -0.4,0.55 l -0.15,-0.8 -0.4,-0.6 -0.1,0.7 -0.3,-0.7 c -0.3,-0.7 -1.45,-1.4 -1.45,-1.4"
             inkscape:connector-curvature="0"
             style="fill:#fbe7d1" />
        </g>
        <g
           id="group4">
          <g
             id="drawingObject10">
            <path
               id="path10"
               d="m 11.751,-48.799 c 0,0 0.55,-2.15 2,-3.2 l 1.45,-1.05 q -0.95,0.2 -2,0.55 c -0.7,0.55 -1.45,1.25 -2.15,2.15 -1,1.2 -1.3,2.75 -1.3,2.75 l 2.35,1.1 -2.35,-1.1 c 0,0 4.1,1.85 6.35,3.25 1.05,0.6 3.7,3.2 3.7,3.2 l -0.35,-2.1 c -0.15,0.2 -0.4,0.15 -0.55,-0.2 l -0.3,-1 c 0,0 -0.3,1.2 -0.65,0.7 -0.35,-0.55 -0.2,-1.1 -0.2,-1.1 l -0.05,0.35 0.05,-0.35 -0.15,0.55 0,0.45 c 0,0 -0.3,-0.4 -0.45,-1.25 l -0.2,-1.25 -0.2,1.3 c 0,0 -0.65,0.25 -1.05,-0.4 -0.45,-0.7 -0.3,-1.45 -0.3,-1.45 l 0,0.45 0,-0.45 -0.15,0.75 c 0,0 -0.15,-0.45 0.05,-1.4 l 0.2,-0.9 c 0,0 -0.9,1.1 -1.05,1.6 l -0.15,0.45 c 0,0 -0.35,0.3 -0.15,-0.5 l 0.15,-0.75 c 0,0 -1.05,0.4 -1.25,0.75 l -0.2,0.35 c 0,0 0.15,-0.75 0.4,-1.5 l 0.2,-0.7 -1.25,1.45 c 0,0 -0.1,-0.6 0.45,-2 l 0.7,-1.7 c 0,0 -0.9,0.7 -1.25,1.45 l -0.35,0.75 z"
               inkscape:connector-curvature="0"
               style="fill:#c1af9a" />
          </g>
          <g
             id="drawingObject11">
            <path
               id="path11"
               d="m 20.151,-47.449 c -0.05,-1.05 -1.4,-2.45 -2.25,-2.8 -0.55,-0.2 -0.8,-0.6 -0.95,-1 l -0.05,0.85 c -0.1,0.85 -0.4,1.55 -0.4,1.55 l 0.6,-0.6 -0.55,2.9 1.05,-2.2 -0.05,2.9 0.55,-1.65 0.2,-0.4 c -0.05,0.1 -0.05,0.25 0.1,0.5 l 0.25,0.4 c 0.2,0.25 0.5,1.05 0.7,1.8 0,-0.55 0.1,-1.05 0.3,-1.4 q 0.4,-0.8 0.5,-0.85 z"
               inkscape:connector-curvature="0"
               style="fill:#c1af9a" />
          </g>
        </g>
        <g
           id="drawingObject12">
          <path
             id="path12"
             d="m 21.101,-53.599 c -1.7,-1.05 -4.75,-0.45 -4.75,-0.45 l 1.75,-0.15 -1.75,0.15 1.05,-0.05 -1.05,0.05 c 0,0 1.9,-0.15 2.85,0.15 0.95,0.25 1.85,0.65 2.65,2.05 q 0.75,1.45 0.65,3.55 c 0,0 0.05,1.7 0.65,0.4 0.8,-1.7 -0.35,-4.6 -2.05,-5.7 z"
             inkscape:connector-curvature="0"
             style="fill:#fbe7d1" />
        </g>
        <g
           id="drawingObject13">
          <path
             id="path13"
             d="m 18.051,-48.949 -0.3,-0.2 c 0,0 0.5,0.25 0.95,0.85 q 0.36,0.54 0.4,0.825 l 0,0.025 c 0,-0.25 0.15,-0.3 0.5,-0.2 0.15,0.05 0.35,0.1 0.55,0.2 0,0 -0.9,-1.85 -1.65,-2.55 l -1.3,-0.9 0.05,0.4 -0.05,-0.4 c 0,0 0.05,0.65 0.4,1.1 0.3,0.4 0.15,0.65 0.15,0.65"
             inkscape:connector-curvature="0"
             style="fill:#af9f8b" />
        </g>
      </g>
    </g>
  </g>
</svg>
