<?xml version="1.0" encoding="UTF-8" standalone="no"?>
<!-- Generator: flash2svg, http://dissentgraphics.com/tools/flash2svg -->

<svg
   xmlns:dc="http://purl.org/dc/elements/1.1/"
   xmlns:cc="http://creativecommons.org/ns#"
   xmlns:rdf="http://www.w3.org/1999/02/22-rdf-syntax-ns#"
   xmlns:svg="http://www.w3.org/2000/svg"
   xmlns="http://www.w3.org/2000/svg"
   xmlns:sodipodi="http://sodipodi.sourceforge.net/DTD/sodipodi-0.dtd"
   xmlns:inkscape="http://www.inkscape.org/namespaces/inkscape"
   id="AvatarAssets"
   image-rendering="auto"
   version="1.1"
   x="0px"
   y="0px"
   width="78.380753"
   height="26.759453"
   viewBox="0 0 78.380753 26.759453"
   inkscape:version="0.48.4 r9939"
   sodipodi:docname="AvatarAssets_backHatDeer.svg">
  <metadata
     id="metadata3110">
    <rdf:RDF>
      <cc:Work
         rdf:about="">
        <dc:format>image/svg+xml</dc:format>
        <dc:type
           rdf:resource="http://purl.org/dc/dcmitype/StillImage" />
      </cc:Work>
    </rdf:RDF>
  </metadata>
  <sodipodi:namedview
     pagecolor="#ffffff"
     bordercolor="#666666"
     borderopacity="1"
     objecttolerance="10"
     gridtolerance="10"
     guidetolerance="10"
     inkscape:pageopacity="0"
     inkscape:pageshadow="2"
     inkscape:window-width="640"
     inkscape:window-height="480"
     id="namedview3108"
     showgrid="false"
     fit-margin-top="0"
     fit-margin-left="0"
     fit-margin-right="0"
     fit-margin-bottom="0"
     inkscape:zoom="1.9032258"
     inkscape:cx="71.761"
     inkscape:cy="0.19069564"
     inkscape:window-x="0"
     inkscape:window-y="0"
     inkscape:window-maximized="0"
     inkscape:current-layer="AvatarAssets" />
  <defs
     id="defs3027" />
  <g
     id="backHatDeer1"
     overflow="visible"
     style="overflow:visible"
     transform="translate(39.761,57.208453)">
    <g
       id="backHatDeer_0">
      <g
         id="element">
        <g
           id="group1">
          <g
             id="drawingObject">
            <path
               id="path"
               d="m -26.949,-38.599 c -0.55,0.4 -1.9,0.9 -2.1,0.9 -0.2,0 -0.15,0.8 0,0.75 q 0.15,-0.1 0.75,0.5 0.7,0.7 0.9,0.75 c 0.45,0.1 1.7,-0.4 1.7,-0.4 0,0 0.85,-2.35 0.8,-3.65 -0.05,-1.35 -0.15,-1.6 -0.2,-2.35 l -0.05,-1.75 -0.5,-0.85 -0.05,1.75 c -0.05,0.5 -0.3,1.2 -0.35,1.7 -0.05,0.5 -0.3,2.25 -0.9,2.65 z"
               inkscape:connector-curvature="0"
               style="fill:#bb7936" />
          </g>
          <g
             id="drawingObject1">
            <path
               id="path1"
               d="m -25.149,-43.849 -0.4,-0.7 0.15,0.65 c 0.05,0.7 0.1,1.35 0.05,2.05 -0.05,0.65 -0.05,0.65 0,1 0,0.35 0.15,0.6 -0.1,1.05 l -0.5,1 0.45,-0.15 c 0,0 -0.35,0.9 -0.75,1.3 -0.35,0.35 -0.5,0.2 -0.45,-0.15 l 0.05,-0.35 c 0,0 -0.85,0.65 -1.65,0.25 l -0.75,0.2 c -0.2,0 -0.15,0.8 0,0.75 0.3,-0.2 1.15,1.1 1.65,1.25 0.45,0.1 1.7,-0.4 1.7,-0.4 0,0 0.85,-2.35 0.8,-3.65 -0.05,-1.35 -0.15,-1.6 -0.2,-2.35 l -0.05,-1.75 z"
               inkscape:connector-curvature="0"
               style="fill:#8f5d29" />
          </g>
          <g
             id="drawingObject2">
            <path
               id="path2"
               d="m -25.549,-42.599 c -0.05,-0.35 0.2,-1.15 0.15,-1.3 l -0.25,-0.8 0,1.1 0,-1.1 c 0,0 0,1.95 -0.2,2.85 -0.25,0.9 -0.45,2.65 -0.15,1.85 q 0.25,-0.55 0.45,-0.95 0.35,-0.75 0.2,-0.9 c -0.2,-0.25 -0.2,-0.35 -0.2,-0.75 z"
               inkscape:connector-curvature="0"
               style="fill:#d7934c" />
          </g>
          <g
             id="drawingObject3">
            <path
               id="path3"
               d="m -31.649,-55.749 c -1,1.05 -1.7,1.3 -2.75,4.2 -1,2.9 -1.3,4.35 -1.1,6.5 0.15,2.2 0.05,3.55 0.95,5 0.9,1.5 4.7,6.4 6.05,7.2 l 3.95,2.35 0.1,0.05 q 0.45,-2.5 1.2,-5.05 c -1,-0.35 -2.45,-0.9 -3.45,-1.5 -1.75,-1 -2.45,-2.9 -3.45,-4.05 -1,-1.15 -1.45,-2.85 -1.6,-3.5 -0.1,-0.7 -0.4,-3.35 -0.1,-5.55 0.25,-2.2 1.55,-4.2 2.2,-4.9 0.6,-0.7 3.15,-2.15 3.15,-2.15 0,0 -3.3,-0.5 -5.15,1.4 z"
               inkscape:connector-curvature="0"
               style="fill:#bb7936" />
          </g>
          <g
             id="drawingObject4">
            <path
               id="path4"
               d="m -25.149,-33.199 c -0.45,-0.45 -0.15,0 -1.15,-0.75 l -0.95,-0.7 0.65,0.85 -0.65,-0.85 c 0,0 1.1,1.6 1.95,2 l 1.2,0.5 0.05,-0.4 c -0.35,-0.1 -0.65,-0.3 -1.1,-0.65 z"
               inkscape:connector-curvature="0"
               style="fill:#8f5d29" />
          </g>
          <g
             id="drawingObject5">
            <path
               id="path5"
               d="m -34.049,-43.999 -0.15,-0.75 0.2,3.95 0.1,0.4 c 0,0 -0.6,-0.85 -0.65,-1.6 l -0.05,-0.75 -0.05,1 0.05,-1 c 0,0 -0.2,1.75 0.05,2.7 0.9,1.5 4.7,6.4 6.05,7.2 l 3.95,2.35 0.1,0.05 0.25,-1.45 c -0.7,-0.1 -1.8,-0.4 -2.4,-0.9 l -2.95,-2.6 c -1.1,-1.05 -1.65,-1.05 -2.55,-2.45 -0.9,-1.35 -1.25,-2.35 -1.25,-2.65 0,-0.35 -0.35,-1.2 -0.45,-1.85 -0.15,-0.65 -0.15,-0.9 -0.25,-1.65 z"
               inkscape:connector-curvature="0"
               style="fill:#8f5d29" />
          </g>
          <g
             id="drawingObject6">
            <path
               id="path6"
               d="m -29.399,-38.199 c 0,0 1.1,1.4 2,2 q 0.9,0.65 3,1.85 l 0.7,0.4 0.2,-0.65 c -0.55,-0.35 -1.15,-0.7 -1.65,-0.8 -1,-0.3 -2.4,-1.2 -3.05,-1.75 l -1.2,-1.05 z"
               inkscape:connector-curvature="0"
               style="fill:#8f5d29" />
          </g>
          <g
             id="drawingObject7">
            <path
               id="path7"
               d="m -30.149,-37.399 -0.45,-0.15 0.25,0.35 q 0.35,0.4 0.7,0.5 c 0.5,0.2 0.8,0.45 0.8,0.45 l -0.75,-0.8 c -0.2,-0.3 -1,-0.5 -1,-0.5"
               inkscape:connector-curvature="0"
               style="fill:#8f5d29" />
          </g>
          <g
             id="drawingObject8">
            <path
               id="path8"
               d="m -30.099,-56.149 0.65,-0.6 -0.55,0.15 c -0.55,0.2 -1.3,0.9 -1.3,0.9 l 0.45,-0.35 -0.45,0.35 0.25,-0.05 q 0.1,0 0.35,-0.2 0.3,-0.15 0.6,-0.2 z"
               inkscape:connector-curvature="0"
               style="fill:#d7934c" />
          </g>
          <g
             id="drawingObject9">
            <path
               id="path9"
               d="m -32.249,-54.499 0.7,-0.9 -0.35,0.05 c -0.4,0.1 -0.85,0.65 -1.5,1.75 -0.65,1.1 -0.85,2.8 -0.85,2.8 l 0.8,-1.8 1.2,-1.9 z"
               inkscape:connector-curvature="0"
               style="fill:#d7934c" />
          </g>
          <g
             id="drawingObject10">
            <path
               id="path10"
               d="m -29.349,-38.999 -2.25,-1.6 -0.05,0.25 q 0.05,0.3 0.45,0.6 c 0.65,0.45 0.45,0.25 1,0.8 0.6,0.55 1.3,1.4 2.55,2.2 1.2,0.8 2.5,1.35 2.5,1.35 0,0 -2.15,-1.7 -2.65,-2 -0.5,-0.25 -1.25,-1.15 -1.55,-1.6 z"
               inkscape:connector-curvature="0"
               style="fill:#d7934c" />
          </g>
          <g
             id="drawingObject11">
            <path
               id="path11"
               d="m -24.699,-33.799 -1.95,-1.45 q -0.85,-0.35 -1.1,-0.4 c -0.25,-0.05 -0.45,-0.4 -0.25,-0.05 l -0.05,-0.1 0.05,0.1 c 0.2,0.35 0.85,1.25 1.4,1.5 l 1.2,0.7 c 0.7,0.4 1.15,0.45 1.15,0.45 0,0 0.15,-0.4 -0.45,-0.75 z"
               inkscape:connector-curvature="0"
               style="fill:#d7934c" />
          </g>
          <g
             id="drawingObject12">
            <path
               id="path12"
               d="m -27.399,-33.849 -1.4,-1.9 q -0.1,-0.25 -0.2,-0.35 -0.1,-0.1 -0.75,-0.35 l -0.95,-0.35 0.35,0.6 -0.35,-0.6 c 0,0 0.55,1.1 1.15,1.4 0.6,0.25 1,0.6 1.55,1.05 l 0.6,0.5 z"
               inkscape:connector-curvature="0"
               style="fill:#d7934c" />
          </g>
          <g
             id="drawingObject13">
            <path
               id="path13"
               d="m -28.549,-56.149 c -0.9,0.4 -1.35,0.65 -1.75,1 -0.35,0.4 -0.6,0.75 -0.95,1 -0.35,0.25 -0.5,0.65 -0.75,1.05 -0.25,0.35 -0.35,1.6 -0.7,1.85 -0.4,0.25 -0.25,-0.1 -0.4,0.25 l 0.1,-0.15 -0.1,0.15 c -0.1,0.4 0.4,1.1 0.4,1.1 l 0.15,0.8 -0.05,1.15 q 0,0.5 0.3,1.5 c 0.05,0.7 -0.1,1.5 -0.1,1.5 l 0.3,0.95 c 0,0 -0.5,0.3 -0.25,0.8 0.25,0.5 -0.75,0 0.25,0.5 l 1.25,0.65 c -0.5,-1 -0.8,-2.05 -0.9,-2.5 -0.1,-0.7 -0.4,-3.35 -0.1,-5.55 0.25,-2.2 1.55,-4.2 2.2,-4.9 0.35,-0.4 1.35,-1.05 2.1,-1.55 l -1,0.4 z"
               inkscape:connector-curvature="0"
               style="fill:#8f5d29" />
          </g>
          <g
             id="drawingObject14">
            <path
               id="path14"
               d="m -36.199,-49.999 c -0.65,-0.85 -2.1,-1.65 -2.25,-2.5 -0.5,-2.95 0.05,-3.45 0.05,-3.45 l -0.2,0.6 0.2,-0.6 -0.85,1.2 q -0.8,1.45 -0.35,2.95 c 0.3,1.05 2.25,2.4 2.7,3.5 0.4,1.05 1.45,2.8 1.75,3 l 0.3,0.2 c 0,0 0.7,0.5 1.25,-0.75 0.5,-1.25 0.5,-2.05 0.3,-2.25 l -0.2,-0.4 c 0,0 -0.55,-0.25 -1.1,-0.35 -0.6,-0.1 -1,-0.3 -1.6,-1.15 z"
               inkscape:connector-curvature="0"
               style="fill:#bb7936" />
          </g>
          <g
             id="drawingObject15">
            <path
               id="path15"
               d="m -37.399,-50.899 c 0.5,0.35 1.15,1.35 1.9,1.75 0.75,0.4 1.65,1 1.75,1.3 l 0.4,1.35 c 0.25,-0.85 0.3,-1.35 0.05,-1.6 l -0.2,-0.4 q -0.55,-0.25 -1.1,-0.35 c -0.6,-0.1 -1,-0.3 -1.6,-1.15 -0.65,-0.85 -2.1,-1.65 -2.25,-2.5 -0.35,-1.8 -0.25,-2.7 -0.1,-3.15 -0.5,1.15 -0.6,2.95 -0.6,2.95 l 0,0.55 c 0.05,0.2 0.55,0.5 0.65,0.8 0.05,0.35 0.6,0.05 1.1,0.45 z m 3.8,5.05 c 0.1,-0.2 0.2,-0.4 0.25,-0.55 0.05,0.05 -1.6,-1.4 -1.5,-0.95 0.1,0.45 -0.2,0.6 -0.2,0.6 l -0.3,-0.45 c -0.2,-0.3 -0.4,-0.55 -0.8,-1.05 0.15,0.25 0.25,0.55 0.3,0.9 0.05,0.55 0.3,1 0.3,1 l -0.65,-0.5 c 0.45,0.75 0.9,1.45 1.05,1.55 l 0.3,0.2 c 0,0 0.7,0.5 1.25,-0.75 z"
               inkscape:connector-curvature="0"
               style="fill:#8f5d29" />
            <path
               id="path18"
               d="m -33.349,-46.499 c 0,0.05 0,0.05 0,0.1 0.05,0.05 0.05,0.05 0.05,0.05 l -0.05,-0.15"
               inkscape:connector-curvature="0"
               style="fill:#8f5d29" />
          </g>
          <g
             id="drawingObject16">
            <path
               id="path19"
               d="m -39.149,-52.699 0.25,-2.6 c 0,0 -0.1,0.4 -0.4,0.8 -0.25,0.45 -0.4,1.25 -0.35,1.85 q 0,0.45 0.2,0.4 0.15,-0.05 0.3,-0.45 z"
               inkscape:connector-curvature="0"
               style="fill:#d7934c" />
          </g>
          <g
             id="drawingObject17">
            <path
               id="path20"
               d="m -27.599,-36.449 -0.6,-0.7 c 0,0 0.85,1.1 2.05,2.15 1.15,1.1 0.25,1.25 0.25,1.25 l -1.2,-0.05 c -1.15,-0.1 -2,-0.6 -2,-0.6 l 0.55,0.25 -0.55,-0.25 -0.05,1.05 0.65,0.5 3.95,2.35 0.1,0.05 c 0.3,-1.75 0.7,-3.4 1.2,-5.05 l -0.5,-0.2 c -0.05,0.3 -0.55,0.3 -1.4,0.3 q -0.8,0 -2,-0.85 l -1.05,-0.9"
               inkscape:connector-curvature="0"
               style="fill:#8f5d29" />
          </g>
        </g>
        <g
           id="group2">
          <g
             id="drawingObject18">
            <path
               id="path21"
               d="m 24.501,-44.699 -0.5,0.85 -0.2,4.1 c -0.05,1.3 0.75,3.65 0.75,3.65 l 0.7,0.25 -0.7,-0.25 c 0,0 1.25,0.5 1.75,0.4 q 0.2,-0.05 0.85,-0.75 0.6,-0.6 0.8,-0.5 c 0.1,0.05 0.15,-0.75 -0.05,-0.75 -0.2,0 -1.5,-0.5 -2.1,-0.9 -0.6,-0.4 -0.85,-2.15 -0.9,-2.65 l -0.4,-3.45 z"
               inkscape:connector-curvature="0"
               style="fill:#bb7936" />
          </g>
          <g
             id="drawingObject19">
            <path
               id="path22"
               d="m 24.401,-44.549 -0.4,0.7 -0.2,4.1 c -0.05,1.3 0.75,3.65 0.75,3.65 l 0.7,0.25 -0.7,-0.25 c 0,0 1.25,0.5 1.75,0.4 0.45,-0.15 1.3,-1.45 1.65,-1.25 0.1,0.05 0.15,-0.75 -0.05,-0.75 l -0.7,-0.2 c -0.8,0.4 -1.7,-0.25 -1.7,-0.25 l 0.55,0.3 -0.55,-0.3 c 0,0 -0.6,-1.1 0.05,0.35 0.15,0.35 -0.05,0.5 -0.45,0.15 -0.4,-0.4 -0.75,-1.3 -0.75,-1.3 l 0.25,0.5 -0.25,-0.5 0.45,0.15 -0.5,-1 c -0.25,-0.45 -0.1,-0.7 -0.05,-1.05 l -0.05,-1 c -0.05,-0.7 0,-1.35 0.1,-2.05 l 0.1,-0.65 z"
               inkscape:connector-curvature="0"
               style="fill:#8f5d29" />
          </g>
          <g
             id="drawingObject20">
            <path
               id="path23"
               d="m 24.301,-43.899 c -0.1,0.15 0.15,0.95 0.15,1.3 -0.05,0.4 -0.05,0.5 -0.25,0.75 q -0.1,0.15 0.2,0.9 0.2,0.4 0.45,0.95 c 0.3,0.8 0.1,-0.95 -0.1,-1.85 -0.25,-0.9 -0.25,-2.85 -0.25,-2.85 l 0.05,1.1 -0.05,-1.1 -0.2,0.8 z"
               inkscape:connector-curvature="0"
               style="fill:#d7934c" />
          </g>
          <g
             id="drawingObject21">
            <path
               id="path24"
               d="m 33.251,-51.549 q -0.65,-1.85 -1.35,-2.8 -0.9,-0.85 -1.4,-1.4 c -1.85,-1.9 -5.15,-1.4 -5.15,-1.4 l 1.9,0 -1.9,0 1.35,0.8 -1.35,-0.8 c 0,0 2.55,1.45 3.2,2.15 0.6,0.7 1.9,2.7 2.2,4.9 0.25,2.2 0,4.85 -0.15,5.55 -0.1,0.65 -0.6,2.35 -1.6,3.5 -0.95,1.15 -1.7,3.05 -3.45,4.05 -0.9,0.55 -2.2,1.05 -3.2,1.4 0.5,1.65 0.9,3.3 1.2,5.05 l 3.8,-2.3 c 1.4,-0.8 5.15,-5.7 6.05,-7.2 0.95,-1.45 0.8,-2.8 1,-5 0.15,-2.15 -0.15,-3.6 -1.15,-6.5 z"
               inkscape:connector-curvature="0"
               style="fill:#bb7936" />
          </g>
          <g
             id="drawingObject22">
            <path
               id="path25"
               d="m 22.601,-34.749 0.2,0.7 0.5,-0.3 c 0.85,-0.5 2.1,-1.2 3,-1.85 0.85,-0.6 1.95,-2 1.95,-2 0,0 -0.5,0.55 -1.15,1.05 -0.7,0.55 -2.05,1.45 -3.1,1.75 -0.45,0.1 -0.9,0.4 -1.4,0.65 z"
               inkscape:connector-curvature="0"
               style="fill:#8f5d29" />
          </g>
          <g
             id="drawingObject23">
            <path
               id="path26"
               d="m 24.151,-32.649 c 0.85,-0.4 2,-2 2,-2 l -1,0.7 c -0.95,0.75 -0.65,0.3 -1.15,0.75 l -0.85,0.6 0.05,0.35 0.95,-0.4 z"
               inkscape:connector-curvature="0"
               style="fill:#8f5d29" />
          </g>
          <g
             id="drawingObject24">
            <path
               id="path27"
               d="m 33.051,-44.749 -0.4,2.4 c -0.1,0.65 -0.9,1.9 -0.9,2.2 0,0.35 0.15,0.95 -0.8,2.3 -0.9,1.4 -1.45,1.4 -2.55,2.45 l -2.9,2.6 c -0.6,0.45 -1.5,0.75 -2.2,0.9 l 0.25,1.35 3.8,-2.3 c 1.4,-0.8 5.15,-5.7 6.05,-7.2 0.25,-0.95 0.05,-2.7 0.05,-2.7 l 0.05,1 -0.05,-1 -0.05,0.75 c 0,0.75 -0.6,1.6 -0.6,1.6 l 0.1,-0.4 c 0.1,-0.45 0.15,-3.95 0.15,-3.95 z"
               inkscape:connector-curvature="0"
               style="fill:#8f5d29" />
          </g>
          <g
             id="drawingObject25">
            <path
               id="path28"
               d="m 29.451,-37.549 c 0,0 -0.8,0.2 -1,0.5 l -0.75,0.8 0.8,-0.45 q 0.55,-0.2 0.95,-0.85 z"
               inkscape:connector-curvature="0"
               style="fill:#8f5d29" />
          </g>
          <g
             id="drawingObject26">
            <path
               id="path29"
               d="m 28.301,-56.749 0.65,0.6 q 0.55,0.05 1,0.4 l 0.25,0.05 c 0,0 -0.8,-0.7 -1.35,-0.9 l -0.55,-0.15 z"
               inkscape:connector-curvature="0"
               style="fill:#d7934c" />
          </g>
          <g
             id="drawingObject27">
            <path
               id="path30"
               d="m 30.401,-55.399 1,1.2 c 0.25,0.3 0.45,0.7 0.7,1.15 q 0.5,1.1 1.55,3 c 0,0 -0.75,-2.45 -1.35,-3.55 -0.65,-1.1 -1.15,-1.65 -1.5,-1.75 l -0.4,-0.05 z"
               inkscape:connector-curvature="0"
               style="fill:#d7934c" />
          </g>
          <g
             id="drawingObject28">
            <path
               id="path31"
               d="m 29.851,-40.199 c 0,0 -1.3,0.8 -1.6,1.2 -0.35,0.45 -1.05,1.35 -1.6,1.6 l -2.65,2 0.8,-0.35 -0.8,0.35 c 0,0 1.3,-0.55 2.5,-1.35 1.25,-0.8 1.95,-1.65 2.55,-2.2 0.6,-0.55 0.4,-0.35 1.05,-0.8 0.6,-0.5 0.65,-2.4 0.65,-2.4 q -0.5,1.6 -0.9,1.95 z"
               inkscape:connector-curvature="0"
               style="fill:#d7934c" />
          </g>
          <g
             id="drawingObject29">
            <path
               id="path32"
               d="m 25.501,-34.199 c 0.5,-0.25 1.15,-1.15 1.35,-1.5 l 0.05,-0.1 -0.05,0.1 c 0.2,-0.35 0,0 -0.25,0.05 l -1.05,0.4 c 0,0 -1.45,1.15 -2,1.45 -0.55,0.35 -0.4,0.75 -0.4,0.75 l 1.1,-0.45 1.25,-0.7 z"
               inkscape:connector-curvature="0"
               style="fill:#d7934c" />
          </g>
          <g
             id="drawingObject30">
            <path
               id="path33"
               d="m 27.651,-35.749 -1.35,1.9 0.55,-0.5 c 0.6,-0.45 1,-0.8 1.55,-1.05 0.6,-0.3 1.2,-1.4 1.2,-1.4 0,0 1.9,-2.75 -0.95,0.35 q -0.4,0.45 -0.65,0.5 -0.25,0.05 -0.35,0.2 z"
               inkscape:connector-curvature="0"
               style="fill:#d7934c" />
          </g>
          <g
             id="drawingObject31">
            <path
               id="path34"
               d="m 29.151,-55.149 c -0.35,-0.35 -0.85,-0.6 -1.7,-1 l -1.05,-0.4 c 0.8,0.5 1.75,1.15 2.15,1.55 0.6,0.7 1.9,2.7 2.2,4.9 0.25,2.2 0,4.85 -0.15,5.55 -0.1,0.45 -0.35,1.5 -0.9,2.5 l 0.3,-0.15 c 0,0 -0.4,2.05 0.1,1.05 0.15,-0.35 1.5,-1 1.1,-2.05 l -0.25,-0.8 0.3,-0.95 c 0,0 -0.15,-0.8 -0.1,-1.5 q 0.3,-1 0.3,-1.5 l -0.05,-1.15 0.35,-0.8 c 0,0 0.8,0.8 0.85,0.4 0.15,-1.4 -0.65,-2.65 -1,-2.9 -0.4,-0.25 -0.5,-0.35 -0.75,-0.7 -0.25,-0.4 -0.35,-0.8 -0.75,-1.05 -0.35,-0.25 -0.6,-0.6 -0.95,-1 z"
               inkscape:connector-curvature="0"
               style="fill:#8f5d29" />
          </g>
          <g
             id="drawingObject32">
            <path
               id="path35"
               d="m 37.501,-55.349 -0.2,-0.6 c 0,0 0.55,0.5 0.05,3.45 -0.15,0.85 -1.65,1.65 -2.25,2.5 -0.65,0.85 -1.05,1.05 -1.6,1.15 l -1.15,0.35 c 0,0 0.05,0.15 -0.15,0.4 -0.2,0.2 -0.25,1 0.3,2.25 0.5,1.25 1.2,0.75 1.2,0.75 l 0.3,-0.2 c 0.3,-0.2 1.35,-1.95 1.8,-3 0.4,-1.1 2.35,-2.45 2.65,-3.5 q 0.45,-1.5 -0.3,-2.95 l -0.85,-1.2"
               inkscape:connector-curvature="0"
               style="fill:#bb7936" />
          </g>
          <g
             id="drawingObject33">
            <path
               id="path36"
               d="m 36.301,-49.549 c -0.3,0.25 -1.4,0.75 -1.65,1.15 l -0.75,1.65 c 0,0 -0.25,-0.15 -0.2,-0.6 0.1,-0.45 -1.5,1 -1.45,0.95 l 0.75,-0.6 -0.75,0.6 c 0.05,0.15 0.15,0.35 0.25,0.55 0.5,1.25 1.2,0.75 1.2,0.75 l 0.3,-0.2 c 0.2,-0.1 0.65,-0.8 1.05,-1.55 l -0.25,0.25 -0.4,0.25 c 0,0 0.65,-0.85 0.75,-1.4 0.05,-0.2 0.3,-0.65 0.75,-1.3 0.15,-0.2 0.3,-0.35 0.4,-0.5 z m -0.05,-1.35 c 0.55,-0.4 1.05,-0.1 1.15,-0.45 0.05,-0.3 0.6,-0.6 0.6,-0.8 l 0,-0.55 c 0,0 -0.05,-1.8 -0.55,-2.95 0.1,0.45 0.2,1.35 -0.1,3.15 -0.15,0.85 -1.65,1.65 -2.25,2.5 -0.65,0.85 -1.05,1.05 -1.6,1.15 l -1.15,0.35 c 0,0 0.05,0.15 -0.15,0.4 -0.25,0.25 -0.25,0.8 0.05,1.65 l -0.025,-0.025 0.375,-1.375 c 0.1,-0.3 1.05,-0.9 1.8,-1.3 0.7,-0.4 1.35,-1.4 1.85,-1.75 z"
               inkscape:connector-curvature="0"
               style="fill:#8f5d29" />
          </g>
          <g
             id="drawingObject34">
            <path
               id="path39"
               d="m 37.751,-55.299 0.25,2.6 q 0.15,0.4 0.35,0.45 0.15,0.05 0.15,-0.4 c 0.05,-0.6 -0.05,-1.4 -0.35,-1.85 l -0.4,-0.8 z"
               inkscape:connector-curvature="0"
               style="fill:#d7934c" />
          </g>
          <g
             id="group3">
            <g
               id="drawingObject35">
              <path
                 id="path40"
                 d="m 29.601,-36.099 c -0.35,0.3 -0.85,0.65 -1.5,0.95 -1.75,0.85 -0.7,-0.85 -0.7,-0.85 l -0.3,0.75 0.3,-0.75 c 0,0 -0.3,0.5 -0.65,0.85 -0.45,0.45 -0.95,1.05 -2.35,1.75 -0.9,0.45 -1,-0.85 0.6,-1.75 0.4,-0.25 0.6,-0.65 0.6,-0.65 l -1.5,-0.45 c -0.6,0.25 -1.2,0.5 -1.75,0.65 0.45,1.45 0.8,2.95 1.05,4.45 q 1.5,-0.25 6.2,-4.95 z"
                 inkscape:connector-curvature="0"
                 style="fill:#8f5d29" />
            </g>
          </g>
        </g>
      </g>
    </g>
  </g>
</svg>
