<?xml version="1.0" encoding="UTF-8" standalone="no"?>
<!-- Generator: flash2svg, http://dissentgraphics.com/tools/flash2svg -->

<svg
   xmlns:dc="http://purl.org/dc/elements/1.1/"
   xmlns:cc="http://creativecommons.org/ns#"
   xmlns:rdf="http://www.w3.org/1999/02/22-rdf-syntax-ns#"
   xmlns:svg="http://www.w3.org/2000/svg"
   xmlns="http://www.w3.org/2000/svg"
   xmlns:sodipodi="http://sodipodi.sourceforge.net/DTD/sodipodi-0.dtd"
   xmlns:inkscape="http://www.inkscape.org/namespaces/inkscape"
   id="AvatarAssets"
   image-rendering="auto"
   version="1.1"
   x="0px"
   y="0px"
   width="59.572136"
   height="60"
   viewBox="0 0 59.572136 60"
   inkscape:version="0.48.4 r9939"
   sodipodi:docname="AvatarAssets_backHatFox.svg">
  <metadata
     id="metadata3219">
    <rdf:RDF>
      <cc:Work
         rdf:about="">
        <dc:format>image/svg+xml</dc:format>
        <dc:type
           rdf:resource="http://purl.org/dc/dcmitype/StillImage" />
      </cc:Work>
    </rdf:RDF>
  </metadata>
  <sodipodi:namedview
     pagecolor="#ffffff"
     bordercolor="#666666"
     borderopacity="1"
     objecttolerance="10"
     gridtolerance="10"
     guidetolerance="10"
     inkscape:pageopacity="0"
     inkscape:pageshadow="2"
     inkscape:window-width="640"
     inkscape:window-height="480"
     id="namedview3217"
     showgrid="false"
     fit-margin-top="0"
     fit-margin-left="0"
     fit-margin-right="0"
     fit-margin-bottom="0"
     inkscape:zoom="1.9032258"
     inkscape:cx="62.899"
     inkscape:cy="-60.999"
     inkscape:window-x="0"
     inkscape:window-y="0"
     inkscape:window-maximized="0"
     inkscape:current-layer="AvatarAssets" />
  <defs
     id="defs3155" />
  <g
     id="backHatFox1"
     overflow="visible"
     style="overflow:visible"
     transform="translate(30.899,58.999)">
    <g
       id="backHatFox_0">
      <g
         id="element">
        <g
           id="drawingObject">
          <path
             id="path"
             d="m -16.699,-45.899 c 0,0 -3.5,-0.8 -6.4,-0.2 -2.95,0.6 -3.85,1.25 -3.65,1.2 0.2,-0.1 0.65,-0.2 1.1,-0.25 l 0.45,0 c 0,0 -1.25,0.15 -2.8,1.2 -1.6,1.05 -1.9,2.05 -1.65,1.6 l 0.15,-0.25 -0.175,0.25 0.025,0 c 0.2,-0.35 1.1,-0.9 1.55,-1.1 l 0.5,-0.2 -0.9,0.9 0.9,-0.9 c 0,0 -1.65,1.45 -2.4,2.75 l -0.8,1.3 1.6,-1.3 -0.7,1.05 0.7,-1.05 c 0,0 -1.4,1.75 -1.55,2.95 l -0.15,1.25 c 0,0 0.65,-1.6 1.1,-2.1 l 0.45,-0.55 -0.3,1.15 0.3,-1.15 c 0,0 -0.65,2.05 -0.55,3.05 l 0.15,1 c 0,0 0.2,-1 0.8,-1.65 l 0.6,-0.65 -0.3,2.25 0,0.65 c 0,0 0.75,-1.25 1.4,-1.85 l 0.65,-0.55 -0.35,1.1 -0.1,0.45 c 0,0 0.8,-1.1 1.9,-1.55 l 1.05,-0.4 -0.85,1.25 c 0,0 0.95,-1.45 4.5,-1.65 3.55,-0.2 8.4,-0.45 9.8,-0.35 1.35,0.1 1,-3.75 1,-3.75 l 0,1.9 0,-1.9 q -1.6,-2.95 -4.15,-4 c -2,-0.9 -5.1,-0.65 -5.1,-0.65 l 1.8,0 -1.8,0 0.7,0.1 -0.7,-0.1 c 0,0 1.3,0.15 1.75,0.45 l 0.45,0.3 z"
             inkscape:connector-curvature="0"
             style="fill:#f1c34c" />
        </g>
        <g
           id="drawingObject1">
          <path
             id="path1"
             d="m -17.799,-45.749 -0.7,-0.1 c 0,0 1.3,0.1 1.75,0.4 l 0.45,0.3 c 0,0 -3.5,-0.75 -6.45,-0.15 -2.95,0.55 -3.9,1.15 -3.65,1.1 0.2,-0.05 0.6,-0.2 1.1,-0.2 -0.2,0.1 -1.2,0.35 -2.4,1.1 -1,0.6 -1.5,1.2 -1.6,1.45 l 0.1,-0.15 -0.125,0.15 0.025,0 c 0.25,-0.35 0.75,-0.65 1.5,-1 l 0.5,-0.15 -0.9,0.85 0.9,-0.85 c 0,0 -1.65,1.35 -2.4,2.55 l -0.8,1.2 1.6,-1.2 -0.7,0.95 0.7,-0.95 c 0,0 -1.35,1.6 -1.55,2.75 l -0.15,1.15 c 0,0 0.65,-1.5 1.1,-2 l 0.45,-0.45 -0.3,1.05 0.3,-1.05 c 0,0 -0.6,1.85 -0.5,2.8 l 0.1,0.9 c 0,0 0.2,-0.9 0.8,-1.5 l 0.6,-0.6 -0.25,2.05 0,0.65 c 0,0 0.75,-1.2 1.4,-1.75 l 0.65,-0.5 -0.35,1 -0.1,0.45 c 0,0 0.85,-1.05 1.9,-1.45 l 1.05,-0.4 -0.55,0.7 -0.3,0.5 0.95,-0.7 -0.95,0.7 c 0,0 0.95,-1.35 4.55,-1.55 3.6,-0.25 8.5,-0.45 9.9,-0.35 1.35,0.1 1,-3.5 1,-3.5 l 0,1.8 0,-1.8 q -1.6,-2.7 -4.15,-3.75 c -2.1,-0.8 -5.2,-0.55 -5.2,-0.55 l 1.8,0"
             inkscape:connector-curvature="0"
             style="fill:#dfaf36" />
        </g>
        <g
           id="drawingObject2">
          <path
             id="path2"
             d="m 20.551,-46.099 c -2.95,-0.6 -6.4,0.2 -6.4,0.2 l 2.1,-0.3 -2.1,0.3 0.45,-0.3 c 0.45,-0.3 1.75,-0.45 1.75,-0.45 0,0 -3.1,-0.25 -5.15,0.65 q -1.4,0.6 -2.6,1.85 -0.95,1.05 -1.5,2.15 l 0,1.9 0,-1.9 c 0,0 -0.35,3.85 1,3.75 1.35,-0.1 6.25,0.15 9.8,0.35 3.55,0.2 4.5,1.65 4.5,1.65 l -0.85,-1.25 1.05,0.4 c 1.05,0.45 1.9,1.55 1.9,1.55 l -0.45,-1.55 0.65,0.55 c 0.65,0.6 1.4,1.85 1.4,1.85 l -0.3,-2.9 0.6,0.65 c 0.6,0.65 0.8,1.65 0.8,1.65 l 0.1,-1 c 0.1,-1 -0.5,-3.05 -0.5,-3.05 l 0.3,1.15 -0.3,-1.15 0.45,0.55 c 0.45,0.5 1.1,2.1 1.1,2.1 l -0.2,-1.25 c -0.15,-1.2 -1.55,-2.95 -1.55,-2.95 l 0.7,1.05 -0.7,-1.05 1.65,1.3 -0.8,-1.3 c -0.8,-1.3 -2.4,-2.75 -2.4,-2.75 l 0.9,0.9 -0.9,-0.9 0.45,0.2 c 0.5,0.2 1.4,0.75 1.6,1.15 0.25,0.4 -0.05,-0.6 -1.65,-1.65 -1.6,-1.05 -2.85,-1.2 -2.85,-1.2 l 0.85,0.2 -0.85,-0.2 0.5,0 c 0.45,0.05 0.85,0.15 1.05,0.25 0.2,0.05 -0.7,-0.6 -3.6,-1.2 z"
             inkscape:connector-curvature="0"
             style="fill:#f1c34c" />
        </g>
        <g
           id="drawingObject3">
          <path
             id="path3"
             d="m 27.001,-39.499 -0.7,-0.95 0.4,0.25 1.25,0.95 -0.8,-1.2 c -0.8,-1.2 -2.4,-2.55 -2.4,-2.55 l 0.9,0.85 -0.9,-0.85 0.45,0.15 c 0.5,0.2 1.4,0.75 1.6,1.1 0.25,0.35 -0.05,-0.55 -1.65,-1.55 -1.6,-1 -2.9,-1.15 -2.9,-1.15 l 0.85,0.2 -0.85,-0.2 0.5,0.05 c 0.45,0 0.9,0.15 1.1,0.2 0.2,0.05 -0.7,-0.55 -3.7,-1.1 -2.95,-0.6 -6.45,0.15 -6.45,0.15 l 2.1,-0.3 -2.1,0.3 0.45,-0.3 c 0.45,-0.3 1.8,-0.4 1.8,-0.4 0,0 -3.15,-0.25 -5.2,0.55 q -1.4,0.6 -2.6,1.8 -1,0.95 -1.55,1.95 l 0,1.8 0,-1.8 c 0,0 -0.4,3.6 1,3.5 1.35,-0.1 6.3,0.1 9.85,0.35 3.6,0.2 4.55,1.55 4.55,1.55 l -0.3,-0.5 -0.55,-0.7 1.1,0.4 c 1.05,0.4 1.85,1.45 1.85,1.45 l -0.4,-1.45 0.65,0.5 c 0.65,0.55 1.4,1.75 1.4,1.75 l -0.3,-2.7 0.6,0.6 c 0.6,0.6 0.8,1.5 0.8,1.5 l 0.15,-0.9 c 0.1,-0.95 -0.5,-2.8 -0.5,-2.8 l 0.3,1.05 -0.3,-1.05 0.4,0.45 c 0.45,0.5 1.1,2 1.1,2 l -0.15,-1.15 c -0.15,-1.15 -1.55,-2.75 -1.55,-2.75"
             inkscape:connector-curvature="0"
             style="fill:#dfaf36" />
        </g>
        <g
           id="drawingObject4">
          <path
             id="path4"
             d="m -17.949,-56.699 c -1.2,0.45 -3,11.1 -1.75,13.6 l 0.15,0.3 c 0.45,-0.05 0.9,0 1.4,0.15 0.6,0.15 1.2,0.2 1.9,0.2 l 1.6,0.15 c 0,0 -0.15,-0.15 -0.15,-0.25 l 0.45,-0.05 1.8,0.15 0.75,0.15 -0.6,-0.4 1.5,0.15 0.65,0.15 -1.2,-0.65 -0.15,-0.05 1.3,0.05 -0.3,-0.35 0.5,-0.2 c 0.45,-0.15 0.55,-0.25 0.65,-0.4 l 0.35,-0.3 0.05,0.3 c 0.1,-0.1 0.45,-0.2 0.5,-0.65 0.05,-0.45 0.4,-0.75 0.4,-0.75 l 0.15,0.2 0.35,-0.5 c 0.1,-0.15 0.5,-0.35 0.55,-0.45 l 0.1,-0.1 0.5,-0.2 1.2,-1.5 q -1.5,-1.9 -3.7,-4.15 -2.6,-2.6 -3.85,-3.3 c -2.55,-1.45 -3.85,-1.8 -5.1,-1.3 z"
             inkscape:connector-curvature="0"
             style="fill:#dfaf36" />
        </g>
        <g
           id="drawingObject5">
          <path
             id="path5"
             d="m -16.749,-58.199 -0.4,0.2 c -0.4,0.2 -0.6,0.7 -0.6,0.7 l 0.15,-0.25 -0.15,0.25 0,-0.4 c 0,-0.35 -0.4,-0.85 -0.4,-0.85 l 0.2,0.3 -0.2,-0.3 0.1,0.4 q 0.1,0.45 -0.3,1.25 c 0,-0.3 -0.3,-0.55 -0.3,-0.55 l 0.15,0.15 -0.15,-0.15 0.1,0.25 c 0.1,0.3 -0.2,0.55 -0.3,1.2 -0.05,0.65 -0.35,1.55 -0.35,1.55 l -0.15,-0.25 c 0.05,0.15 -0.05,0.85 -0.25,2.15 l -0.45,3.5 -0.2,-0.25 0.25,6.25 c 0.05,0.9 0.35,0.15 0.35,0.15 0,0 0.5,0 0.5,-0.15 l 0.05,-0.25 0.45,0.25 -0.1,-0.4 0.25,0.1 c 0.25,0.1 1.15,0.05 1.15,0.05 l -0.3,-0.15 -0.9,-0.65 0.6,0.3 c 0.3,0.25 0.9,0.15 0.9,0.15 l -0.4,-0.4 0.4,0 c 0.35,0.05 0.4,-0.4 0.4,-0.4 0,0 -0.7,-0.4 -0.9,-0.7 l -0.35,-0.75 -0.05,0.7 -0.3,-0.4 c -0.3,-0.45 -0.6,-1.15 -0.65,-1.65 l 0.05,-1.85 -0.25,0.95 c 0,0 -0.05,-0.5 0.1,-1.3 l 0.8,-3.8 -0.4,0.65 0.25,-2.35 c 0.05,-0.55 0.95,-1.85 0.95,-1.85 l 1.2,0.1 c 0.5,0.1 1.25,0.45 1.75,0.7 0.55,0.3 1.6,0.6 1.6,0.6 l -0.95,-0.6 0.4,0.05 c 0,0 -0.15,-0.25 -0.85,-0.55 l -1.95,-0.6 -0.9,-0.15 0.05,-0.2 0.3,-0.75 z"
             inkscape:connector-curvature="0"
             style="fill:#f1c34c" />
        </g>
        <g
           id="drawingObject6">
          <path
             id="path6"
             d="m 9.901,-55.399 q -1.25,0.7 -3.8,3.3 -2.3,2.35 -3.7,4.15 l 1.15,1.5 0.5,0.2 0.1,0.1 c 0.1,0.1 0.5,0.3 0.55,0.45 l 0.35,0.5 0.15,-0.2 0.2,0.2 -0.2,-0.2 c 0,0 0.4,0.3 0.45,0.75 0.05,0.45 0.35,0.55 0.45,0.65 0.1,0.15 0.05,-0.3 0.05,-0.3 l 0.4,0.3 c 0.1,0.15 0.2,0.25 0.6,0.4 0.45,0.1 0.55,0.2 0.55,0.2 l -0.35,0.35 0.5,-0.05 c 0.55,-0.05 0.85,0 0.85,0 l -0.15,0.05 -1.25,0.65 0.65,-0.15 1.5,-0.15 -0.55,0.4 0.75,-0.15 1.8,-0.15 0.4,0.05 c 0.05,0.1 -0.1,0.25 -0.1,0.25 l 1.6,-0.15 c 0.65,0 1.3,-0.05 1.85,-0.2 0.5,-0.15 1,-0.2 1.4,-0.15 l 0.15,-0.3 c 1.25,-2.5 -0.55,-13.15 -1.75,-13.6 -1.2,-0.5 -2.55,-0.15 -5.1,1.3 z"
             inkscape:connector-curvature="0"
             style="fill:#dfaf36" />
        </g>
        <g
           id="drawingObject7">
          <path
             id="path7"
             d="m 14.251,-57.999 -0.4,-0.2 0.3,0.75 0.05,0.2 -0.95,0.15 -1.95,0.6 -0.85,0.55 0.45,-0.05 -1,0.6 1.6,-0.6 c 0.55,-0.25 1.3,-0.6 1.75,-0.7 0.5,-0.15 1.2,-0.1 1.2,-0.1 l 0.45,0.7 -0.45,-0.7 c 0,0 0.9,1.3 0.95,1.85 l 0.25,2.35 -0.35,-0.65 0.8,3.8 c 0.15,0.8 0.1,1.3 0.1,1.3 l -0.3,-0.95 0.05,1.85 c -0.05,0.5 -0.35,1.2 -0.6,1.65 l -0.3,0.4 -0.05,-0.7 -0.4,0.75 c -0.2,0.3 -0.9,0.7 -0.9,0.7 l 0.1,0.2 -0.1,-0.2 c 0,0 0.05,0.45 0.45,0.4 l 0.35,0 -0.35,0.4 0.3,0 -0.3,0 c 0,0 0.55,0.1 0.9,-0.15 0.3,-0.25 0.55,-0.3 0.55,-0.3 0,0 -0.6,0.55 -0.9,0.65 l -0.3,0.15 1.15,-0.05 0.25,-0.1 -0.1,0.4 0.5,-0.25 0.05,0.25 c 0,0.15 0.45,0.15 0.45,0.15 0,0 0.35,0.75 0.4,-0.15 l 0.25,-6.25 -0.2,0.25 -0.75,-5.625 -0.1,0.225 c 0,0 -0.3,-0.9 -0.4,-1.55 -0.1,-0.65 -0.4,-0.9 -0.3,-1.2 l 0.1,-0.25 c 0,0 -0.3,0.25 -0.3,0.55 q 0,0.25 -0.15,-0.4 -0.15,-0.55 -0.1,-0.85 l 0.1,-0.4 c 0,0 -0.45,0.5 -0.45,0.85 l 0,0.4 c 0,0 -0.2,-0.5 -0.55,-0.7 z"
             inkscape:connector-curvature="0"
             style="fill:#f1c34c" />
        </g>
        <g
           id="drawingObject8">
          <path
             id="path8"
             d="m -12.999,-52.499 c 0.15,0.2 0.35,0 0.5,0.2 -1.35,0.5 -3,1 -3.85,2 0.5,-0.2 1,0 1.35,0 -0.5,1.15 -1.35,2.15 -1.85,3.3 0.35,-0.3 1,-0.65 1.35,-1 -1.15,6.5 3.15,9.85 9.65,11.2 4.85,0.8 12.85,2 17.35,-1 2.65,-1.85 5.5,-8.2 2.35,-11.2 0.65,0.2 -0.2,-0.65 -0.85,-1.5 0.15,-0.15 0.35,0.2 0.35,-0.15 -0.85,-0.65 -1.5,-1.15 -2.35,-1.65 0.35,0 0.85,-0.2 1.15,-0.35 -0.8,-0.85 -2,-1.15 -3,-1.65 l 0.7,0.15 c -1.5,-0.65 -3.5,-1 -5.2,-1 l 1.85,-0.15 c -0.5,-0.2 -1,-0.35 -1.65,-0.35 0.15,-0.15 0.3,-0.15 0.3,-0.35 -0.5,-0.15 -1,-0.15 -1.3,-0.3 0.15,-0.2 0.3,-0.35 0.3,-0.5 -0.5,0 -1.3,-0.2 -1.65,-0.2 l 0.65,-0.65 c -1.8,1.15 -2.65,-1.5 -3.8,0.35 -0.2,-0.5 -0.35,-0.7 -0.35,-1 -0.15,0 -0.5,0.5 -0.65,0.5 -0.2,-0.35 -1,-0.7 -1.2,-1.2 0,0.35 0.2,0.5 0.2,0.85 -0.85,-0.35 -1.5,-0.35 -2.35,-0.65 0.25,0.25 0.5,0.55 0.75,0.95 l -0.025,-0.025 q -0.303,-0.198 -0.725,-0.275 c 0.15,0.35 0.15,1 0.35,1.35 -0.35,0 -0.7,0 -1.2,-0.2 -0.15,0.5 -0.15,0.5 -0.65,0.5 l 0.5,0.5 c -2.5,0.5 -5,2 -7,3.5 z"
             inkscape:connector-curvature="0"
             style="fill:#f1c34c" />
        </g>
        <g
           id="drawingObject9">
          <path
             id="path9"
             d="m -15.349,-46.349 c 0.3,-0.3 0.95,-0.6 1.25,-0.95 -1.1,6.15 2.95,9.3 8.95,10.55 4.5,0.8 11.9,1.9 16.1,-0.95 2.45,-1.7 5.1,-7.7 2.15,-10.5 0.65,0.15 -0.15,-0.65 -0.75,-1.45 0.15,-0.15 0.3,0.15 0.3,-0.15 -0.8,-0.6 -1.4,-1.1 -2.15,-1.55 0.3,0 0.75,-0.15 1.05,-0.3 -0.75,-0.8 -1.85,-1.1 -2.75,-1.6 l 0.6,0.15 c -1.4,-0.6 -3.25,-0.95 -4.8,-0.95 l 1.7,-0.15 c -0.45,-0.15 -0.9,-0.3 -1.55,-0.3 l 0.3,-0.3 c -0.45,-0.15 -0.9,-0.15 -1.2,-0.35 0.15,-0.15 0.3,-0.3 0.3,-0.45 l -1.55,-0.15 0.6,-0.65 c -1.7,1.1 -2.45,-1.4 -3.55,0.35 -0.15,-0.5 -0.3,-0.65 -0.3,-0.95 -0.15,0 -0.45,0.45 -0.6,0.45 -0.15,-0.3 -0.95,-0.6 -1.1,-1.1 0,0.3 0.15,0.5 0.15,0.8 -0.75,-0.3 -1.4,-0.3 -2.15,-0.65 0.25,0.25 0.45,0.55 0.65,0.9 q -0.257,-0.171 -0.65,-0.25 c 0.15,0.3 0.15,0.95 0.3,1.25 -0.3,0 -0.6,0 -1.1,-0.15 -0.15,0.45 -0.15,0.45 -0.6,0.45 l 0.45,0.5 c -2.3,0.45 -4.65,1.85 -6.5,3.3 0.15,0.15 0.3,0 0.5,0.15 -1.25,0.45 -2.8,0.95 -3.6,1.85 0.5,-0.15 0.95,0 1.25,0 -0.45,1.1 -1.25,2.05 -1.7,3.15 z"
             inkscape:connector-curvature="0"
             style="fill:#dfaf36" />
        </g>
        <g
           id="drawingObject10">
          <path
             id="path10"
             d="m -0.749,-55.799 -0.9,-0.25 0.55,0.5 c 0.25,0.15 1.2,1 1.45,1.25 l 0.05,0.05 -0.05,-0.05 c 0.25,0.25 0,0 -0.45,-0.25 l -2.25,-0.85 0.95,0.75 c 0.5,0.4 0.4,1.15 0.4,1.15 l -1.65,-1.25 0.5,1.45 c 0,0 -0.5,-0.1 -0.85,-0.35 -0.35,-0.25 -0.65,-1.25 -0.65,-1.25 l 0.2,0.55 -0.2,-0.55 0.25,1 c 0.25,1 0.15,1.5 0.15,1.5 l -0.25,-0.35 -1,-0.8 0.1,0.8 c 0.05,0.85 0.15,0.95 0.15,0.95 l -0.5,-0.6 c 0,0 -0.15,0.9 -0.9,1.4 -0.75,0.5 -2.35,1 -3.6,1.1 -1.25,0.1 0,0.85 0.4,1.75 l -0.2,1.2 0.2,-1.2 c 0,0 -2.5,7.35 8.1,10.4 3.9,1.15 6.9,1.35 9.45,1.1 0.85,-0.25 1.6,-0.6 2.25,-1.05 2.45,-1.7 5.1,-7.7 2.15,-10.5 0.65,0.15 -0.15,-0.65 -0.75,-1.45 0.15,-0.15 0.3,0.15 0.3,-0.15 -0.8,-0.6 -1.4,-1.1 -2.15,-1.55 0.3,0 0.75,-0.15 1.05,-0.3 -0.75,-0.8 -1.85,-1.1 -2.75,-1.6 l 0.6,0.15 c -1.4,-0.6 -3.25,-0.95 -4.8,-0.95 l 1.7,-0.15 c -0.45,-0.15 -0.9,-0.3 -1.55,-0.3 l 0.3,-0.3 c -0.45,-0.15 -0.9,-0.15 -1.2,-0.35 0.15,-0.15 0.3,-0.3 0.3,-0.45 l -1.55,-0.15 0.6,-0.65 c -1.15,0.75 -1.9,-0.2 -2.6,-0.3 l -0.55,0.2 c -0.15,0.1 -0.25,0.2 -0.4,0.45 l -0.4,0.25 z"
             inkscape:connector-curvature="0"
             style="fill:#cb9c2a" />
        </g>
        <g
           id="drawingObject11">
          <path
             id="path11"
             d="m -19.999,-46.049 1.45,-0.2 c 0,0 -1.65,0.8 -2.9,1.7 l -1.25,0.9 1.2,-0.3 c 0,0 -1.25,0.75 -2.3,2.1 -1.1,1.4 -1.4,2.45 -1.4,2.45 l 0.65,-0.6 -1.65,2.7 c -0.85,1.45 -1.1,2.75 -1.1,2.75 l 0.55,-0.55 -0.4,1.1 0.4,-1.1 c 0,0 -0.6,1.35 -1.35,4.75 -0.75,3.5 -0.55,5.65 -0.55,5.65 l 0.4,-1.05 0.35,3.1 c 0.25,2.55 0.8,4.15 0.75,4.85 l -0.05,0.75 0.35,-0.6 0.55,2.65 c 0.5,2.35 0.85,2.45 1.15,3.4 0.35,0.9 0.25,2.45 0.25,2.45 l 0.45,-0.6 0.1,0.9 -0.1,-0.9 c 0,0 0,1.45 0.85,2.8 l 0.9,1.35 0.1,-0.6 0.3,0.55 -0.3,-0.55 c 0,0 0.4,0.85 1.35,1.75 l 1,0.9 -0.2,0.75 c 0,0 0.7,-0.2 0.85,-0.4 l 0.15,-0.25 0.05,0.3 -0.05,-0.3 c 0,0 0,0.5 0.55,1.05 0.55,0.6 0.85,0.65 0.85,0.65 l -0.1,-0.8 0.3,0.4 -0.3,-0.4 c 0,0 0.3,0.7 1.6,1.2 1.3,0.5 2.35,0.5 2.35,0.5 l -0.7,-0.7 c 0.2,0.2 1.8,0.95 3.6,1.15 1.5,0.85 4.65,1.4 4.65,1.4 l -0.65,-1.35 0.2,0 0.75,0.35 c 1,0.5 2.1,0.7 2.1,0.7 l -0.25,-0.85 0.65,0.15 2.35,0.85 -0.5,-0.65 2.15,0.15 c 1,0 2.2,-0.35 2.2,-0.35 l 0.15,0.7 1.15,-0.35 c 1.2,-0.35 2.05,-0.7 2.05,-0.7 l -0.7,1.2 1,-0.35 c 0.4,-0.1 1,-0.45 1.5,-0.75 l 0.45,-0.05 -0.1,0.15 1.6,-0.25 0.2,0 c 1.9,-0.1 3.7,-0.9 3.85,-1.05 l -0.025,-0.025 -0.625,0.625 0.65,-0.05 -0.65,0.05 c 0,0 1,0 2.3,-0.5 1.3,-0.5 1.65,-1.2 1.65,-1.2 l -0.1,0.8 c 0,0 0.3,-0.05 0.85,-0.65 0.55,-0.55 0.5,-1.05 0.5,-1.05 l 0.2,0.25 c 0.15,0.2 0.8,0.4 0.8,0.4 l -0.2,-0.75 1,-0.9 c 1,-0.9 1.35,-1.75 1.35,-1.75 l 0.15,0.6 0.85,-1.35 c 0.9,-1.35 0.85,-2.8 0.85,-2.8 l 0.5,0.6 c 0,0 -0.1,-1.55 0.2,-2.45 0.3,-0.95 0.65,-1.05 1.15,-3.4 l 0.6,-2.65 0.3,0.6 -0.05,-0.75 c -0.05,-0.7 0.5,-2.3 0.8,-4.85 l 0.35,-3.1 0.35,1.05 c 0,0 0.2,-2.15 -0.55,-5.65 q -0.45,-2.1 -0.9,-3.65 l -0.4,-1.1 0.5,0.55 c 0,0 -0.2,-1.3 -1.1,-2.75 l -1.6,-2.7 0.6,0.6 c 0,0 -0.3,-1.05 -1.35,-2.45 -1.1,-1.35 -2.35,-2.1 -2.35,-2.1 l 0.75,0.55 -0.75,-0.55 1.2,0.3 -1.25,-0.9 c -1.25,-0.9 -2.9,-1.7 -2.9,-1.7 l 1,0.5 -1,-0.5 1.5,0.2 c 0,0 -2.25,-1.1 -3.5,-1.2 -1.25,-0.1 -2.8,-1.3 -2.8,-1.3 l 0.95,0.6 -0.95,-0.6 1.35,0.35 c 0,0 -0.8,-0.8 -2.7,-1.45 -0.9,-0.3 -1.8,-0.45 -2.55,-0.55 l -1.35,-0.35 0.05,-0.15 -0.8,0 c -2.05,-0.35 -4.55,-0.45 -7.05,-0.4 -2.5,-0.05 -5,0.05 -7,0.4 l -0.8,0 0.05,0.15 -1.35,0.35 c -0.75,0.1 -1.7,0.25 -2.55,0.55 -1.9,0.65 -2.7,1.45 -2.7,1.45 l 0.65,-0.5 -0.65,0.5 1.3,-0.35 c 0,0 -1.5,1.2 -2.75,1.3 -1.3,0.1 -3.5,1.2 -3.5,1.2 z"
             inkscape:connector-curvature="0"
             style="fill:#cb9c2a" />
        </g>
        <g
           id="drawingObject12">
          <path
             id="path12"
             d="m 26.401,-31.749 -11.4,6.45 c -2.15,1 -7,2.65 -8.35,4.5 -1.5,2.15 -1.15,2 0.85,4.3 0.15,-0.3 0.85,-0.65 1,-1 l 0.15,1.2 c 0.2,-0.35 0.85,-0.7 1.2,-1 0,0.65 0.3,1.3 0.15,2 0.15,-0.5 0.35,-1.2 0.35,-1.65 0,1.95 -0.2,4.8 -1.7,6.15 0,-1.2 -0.15,-2.2 -0.5,-3.2 -0.15,0.35 -0.8,0.85 -1,1.35 l 0,-1.5 c -0.3,1.85 -0.15,3.65 -1.3,5.15 0,-0.8 -0.2,-1.8 -0.35,-2.5 -0.35,1 -0.85,2.2 -1.65,2.85 0.15,-1 0.15,-2 -0.2,-3 -0.8,1.35 -1.65,2.85 -2.65,4.15 0,-0.8 -0.15,-1.65 -0.15,-2.3 -0.35,1.15 -0.5,2.5 -1,3.65 -0.7,-1.65 -1.2,-3.35 -1.85,-4.85 0,1 0,2.2 -0.35,3.35 -0.5,-1 -1,-2 -1.65,-3 0,0.85 -0.35,1.85 -0.35,2.5 -0.9,-0.6 -1.65,-1.85 -2.25,-3.2 0.55,1.25 0.95,2.4 0.75,3.55 -2.15,-1.5 -3.8,-3.85 -5.15,-6.2 0.35,1.5 0.65,3.5 0,5 -1.35,-1.65 -2.15,-3.65 -2.65,-5.8 l -0.5,4.15 c -0.2,-1.15 -0.5,-2.15 -0.85,-3.15 0,1.15 0,2.5 -0.15,3.65 -0.45,-0.65 -0.75,-1.45 -1,-2.25 l 0,-0.1 -0.4,-3.3 -0.15,1.6 c -0.2,1.65 -1,3.65 -1,3.65 l -0.05,-1 -0.65,-3.6 -0.15,0.4 0.15,-0.4 c 0,0 -0.25,0.55 -0.3,1.5 -0.05,1 -0.3,2.85 -0.3,2.85 0,0 -0.15,-0.55 -0.85,-2 -0.45,-1 -0.3,-2.35 -0.15,-3.1 l -0.15,0.6 c -0.3,1.2 -0.4,3.15 -0.45,3.95 -0.05,0.75 0,0 -0.5,-1.35 -0.55,-1.3 -0.2,-4.9 -0.2,-4.9 l -0.1,1.95 0.1,-1.95 -0.5,2.5 c -0.3,1.75 -0.05,3.05 -0.05,3.05 l -0.8,-1.9 c -0.75,-1.9 -1.1,-4.5 -1.1,-4.5 l 0.25,1.55 -0.25,-1.55 -0.1,0.9 c -0.05,0.85 -0.35,2.25 -0.35,2.25 l -1.05,-5.4 -0.05,0.85 c -0.1,0.85 -0.15,1.75 -0.25,2.15 -0.15,0.45 0,0 -0.65,-1.9 l -1.35,-4.85 -0.2,3.05 c 0.3,1.85 0.65,3.05 0.6,3.6 l -0.05,0.75 0.35,-0.6 0.55,2.65 c 0.5,2.35 0.85,2.45 1.15,3.4 0.35,0.9 0.25,2.45 0.25,2.45 l 0.45,-0.6 0.1,0.9 -0.1,-0.9 c 0,0 0,1.45 0.85,2.8 l 0.9,1.35 0.1,-0.6 0.3,0.55 -0.3,-0.55 c 0,0 0.4,0.85 1.35,1.75 l 1,0.9 -0.2,0.75 c 0,0 0.7,-0.2 0.85,-0.4 l 0.15,-0.25 0.05,0.3 -0.05,-0.3 c 0,0 0,0.5 0.55,1.05 0.55,0.6 0.85,0.65 0.85,0.65 l -0.1,-0.8 0.3,0.4 -0.3,-0.4 c 0,0 0.3,0.7 1.6,1.2 1.3,0.5 2.35,0.5 2.35,0.5 l -0.6,-0.6 0.1,0.05 0.15,0.1 0.3,0.15 0.2,0.05 0.2,0.1 1.2,0.35 0.05,0 0.55,0.15 0.75,0.1 c 1.5,0.85 4.65,1.4 4.65,1.4 l -0.65,-1.35 0.2,0 0.75,0.35 c 1,0.5 2.1,0.7 2.1,0.7 l -0.25,-0.85 0.65,0.15 2.35,0.85 -0.5,-0.65 2.15,0.15 c 1,0 2.2,-0.35 2.2,-0.35 l 0.15,0.7 1.15,-0.35 c 1.2,-0.35 2.05,-0.7 2.05,-0.7 l -0.7,1.2 1,-0.35 c 0.4,-0.1 1,-0.45 1.5,-0.75 l 0.45,-0.05 -0.1,0.15 1.6,-0.25 0.2,0 c 1.9,-0.1 3.7,-0.9 3.85,-1.05 l -0.025,-0.025 -0.625,0.625 0.65,-0.05 -0.65,0.05 c 0,0 1,0 2.3,-0.5 1.3,-0.5 1.65,-1.2 1.65,-1.2 l -0.1,0.8 c 0,0 0.3,-0.05 0.85,-0.65 0.55,-0.55 0.5,-1.05 0.5,-1.05 l 0.2,0.25 c 0.15,0.2 0.8,0.4 0.8,0.4 l -0.2,-0.75 1,-0.9 c 1,-0.9 1.35,-1.75 1.35,-1.75 l 0.15,0.6 0.85,-1.35 c 0.9,-1.35 0.85,-2.8 0.85,-2.8 l 0.5,0.6 c 0,0 -0.1,-1.55 0.2,-2.45 0.3,-0.95 0.65,-1.05 1.15,-3.4 l 0.6,-2.65 0.3,0.6 -0.05,-0.75 c -0.05,-0.7 0.5,-2.3 0.8,-4.85 l 0.35,-3.1 0.35,1.05 c 0,0 0.2,-2.15 -0.55,-5.65 l -0.3,-1.4 z"
             inkscape:connector-curvature="0"
             style="fill:#966f19" />
        </g>
        <g
           id="group1">
          <g
             id="drawingObject13">
            <path
               id="path13"
               d="m 25.351,-29.649 -11.2,5.5 q -1.4,0.5 -3.05,1.3 -2.35,1.1 -2.75,1.85 c -0.5,1.35 -0.2,2.2 0.8,3.35 0.2,-0.15 0.5,-0.35 0.7,-0.65 1,0.5 2.15,0.3 2.5,1.5 0.3,-0.35 0.3,-0.5 0.65,-0.7 0,0.5 0.35,1.5 0.35,2 l 1,-1 c 0,0.7 0.15,1.5 0.15,2 l 0.5,-1.15 c 0.15,1.35 -0.15,2.85 -0.15,4.15 0.65,-0.8 1.15,-2.15 1.65,-3.3 -0.15,1 -0.15,2 -0.35,3 1,-0.85 1.85,-2.2 2,-3.5 l 0,2.15 c 1,-1 1.5,-2.85 2.35,-4 0.15,0.85 0.15,2 0.15,3 0.2,-0.85 0.35,-1.65 0.35,-2.5 0.5,3.15 0.65,6.85 -1.65,9.15 0.3,-1.15 0.8,-2.15 0.5,-3.15 -0.7,1.85 -1.85,3.5 -3.5,4.85 0.3,-0.85 0.65,-2 0.3,-3 -0.8,1.5 -1.65,3 -3.15,4.15 0.15,-0.5 0,-1.85 0.15,-2.35 -1,1 -2.15,2.2 -3.5,2.85 0.35,-0.65 0.2,-1.65 0.35,-2.35 -1,0.85 -2,2 -3.15,2.5 0.15,-0.8 0,-1.3 0,-1.65 -1,1.15 -1.85,2.35 -3.2,3 0.5,-0.85 0,-1.15 0.2,-1.85 -0.85,0.7 -1.7,1.5 -2.85,1.5 0,-0.15 -0.15,-0.3 -0.15,-0.5 -0.5,0.5 -1.5,1 -2,1.5 0,-0.1 -0.35,-0.35 -0.4,-0.45 -0.3,0.35 -0.45,0.65 -0.8,0.8 0,-0.35 -0.15,-0.65 -0.15,-1 -0.35,0 -0.35,0.5 -0.65,0.5 -0.35,-0.35 -0.5,-0.85 -0.85,-1.15 -0.15,0.15 -0.15,0.8 -0.35,0.8 -0.15,0 -0.3,-0.5 -0.5,-0.65 l -0.3,1 c -0.2,-0.35 -0.7,-0.65 -1,-1.15 0,0.3 -0.35,1 -0.35,1.5 -0.5,-0.5 -1.5,-0.7 -1.85,-1.2 l -0.15,1.35 c -0.4,-0.5 -0.85,-0.9 -1.35,-1.7 0.05,0.15 0.05,0.35 0.1,0.55 0,0.4 0.05,0.65 0.1,0.8 -1.2,-0.65 -2,-1.65 -2.85,-2.5 0,0.2 0.15,0.35 0.15,0.7 -0.8,-0.7 -1.5,-1.35 -2.15,-2.2 0.35,0.7 0.5,1.5 0.65,2.35 -0.65,-0.5 -1.3,-1.35 -1.8,-2 l 0,0.65 c -0.85,-0.3 -1.35,-1.15 -1.5,-2.15 l 0.3,3.85 c -0.35,0.65 -0.5,1.25 -0.5,1.8 l 0.3,0.15 c 1.3,0.5 2.35,0.5 2.35,0.5 l -0.6,-0.6 0.1,0.05 0.15,0.1 0.3,0.15 0.2,0.05 0.2,0.1 1.2,0.35 0.05,0 0.55,0.15 0.75,0.1 c 1.5,0.85 4.65,1.4 4.65,1.4 l -0.65,-1.35 0.2,0 0.75,0.35 c 1,0.5 2.1,0.7 2.1,0.7 l -0.25,-0.85 0.65,0.15 2.35,0.85 -0.5,-0.65 2.15,0.15 c 1,0 2.2,-0.35 2.2,-0.35 l 0.15,0.7 1.15,-0.35 c 1.2,-0.35 2.05,-0.7 2.05,-0.7 l -0.7,1.2 1,-0.35 c 0.4,-0.1 1,-0.45 1.5,-0.75 l 0.45,-0.05 -0.1,0.15 1.6,-0.25 0.2,0 c 1.9,-0.1 3.7,-0.9 3.85,-1.05 l -0.025,-0.025 -0.625,0.625 0.65,-0.05 -0.65,0.05 c 0,0 1,0 2.3,-0.5 1.3,-0.5 1.65,-1.2 1.65,-1.2 l -0.1,0.8 c 0,0 0.3,-0.05 0.85,-0.65 0.55,-0.55 0.5,-1.05 0.5,-1.05 l 0.2,0.25 c 0.15,0.2 0.8,0.4 0.8,0.4 l -0.2,-0.75 1,-0.9 c 1,-0.9 1.35,-1.75 1.35,-1.75 l 0.15,0.6 0.85,-1.35 c 0.9,-1.35 0.85,-2.8 0.85,-2.8 l 0.5,0.6 c 0,0 -0.1,-1.55 0.2,-2.45 0.3,-0.95 0.65,-1.05 1.15,-3.4 l 0.6,-2.65 0.3,0.6 -0.05,-0.75 c -0.05,-0.7 0.5,-2.3 0.8,-4.85 l 0.35,-3.1 0.35,1.05 c 0,0 0.2,-2.15 -0.55,-5.65 l 0,-0.1 -1.35,0.8 z"
               inkscape:connector-curvature="0"
               style="fill:#826015" />
          </g>
        </g>
        <g
           id="drawingObject14">
          <path
             id="path14"
             d="m -25.149,-11.599 c 0.35,0.9 0.25,2.45 0.25,2.45 l 0.45,-0.6 0.1,0.9 -0.1,-0.9 c 0,0 0,1.45 0.85,2.8 l 0.9,1.35 0.1,-0.6 0.3,0.55 -0.3,-0.55 c 0,0 0.4,0.85 1.35,1.75 l 1,0.9 -0.2,0.75 c 0,0 0.7,-0.2 0.85,-0.4 l 0.15,-0.25 0.05,0.3 -0.05,-0.3 c 0,0 0,0.5 0.55,1.05 0.55,0.6 0.85,0.65 0.85,0.65 l -0.1,-0.8 0.3,0.4 -0.3,-0.4 c 0,0 0.3,0.7 1.6,1.2 1.3,0.5 2.35,0.5 2.35,0.5 l -0.7,-0.7 c 0.1,0.1 0.55,0.35 1.25,0.6 q -1.7,-3.05 -2.6,-6 l -0.2,-0.2 c -0.35,-0.35 -0.8,-1.65 -0.8,-1.65 l 0.25,0.7 -0.25,-0.7 -0.05,1.45 c -0.05,0.9 0.45,2.1 0.45,2.1 l -0.4,-0.4 c -0.45,-0.4 -1.8,-3.05 -1.8,-3.05 l 0.75,1.4 -0.75,-1.4 0,0.8 c 0.05,0.5 0.5,2.05 0.5,2.05 l -0.8,-0.7 c -0.75,-0.7 -1.65,-2.8 -1.65,-2.8 l 0.55,1.15 -0.55,-1.15 0.1,0.65 c 0.1,0.65 0.1,1.75 0.1,1.75 l -1.15,-1.8 c -1.1,-1.75 -1.45,-3.15 -1.45,-3.15 l 0.3,0.9 -0.3,-0.9 -0.25,2.55 -1.2,-5.1 -1.1,0.75 c 0.3,1.15 0.6,1.4 0.8,2.1 z"
             inkscape:connector-curvature="0"
             style="fill:#826015" />
        </g>
        <g
           id="group2">
          <g
             id="drawingObject15">
            <path
               id="path15"
               d="m -16.499,-47.249 c -1.3,0.1 -3.5,1.2 -3.5,1.2 l 1.25,-0.55 -1.25,0.55 1.45,-0.2 c 0,0 -1.65,0.8 -2.9,1.7 l -1.25,0.9 1.2,-0.3 c 0,0 -1.25,0.75 -2.3,2.1 -1.1,1.4 -1.4,2.45 -1.4,2.45 l 0.65,-0.6 -1.65,2.7 c -0.85,1.45 -1.1,2.75 -1.1,2.75 l 0.55,-0.55 -0.4,1.1 0.4,-1.1 c 0,0 -0.6,1.35 -1.35,4.75 -0.75,3.5 -0.55,5.65 -0.55,5.65 l 0.4,-1.05 0.35,3.1 c 0.25,2.55 0.8,4.15 0.75,4.85 l -0.05,0.75 0.35,-0.6 0.55,2.65 c 0.5,2.35 0.85,2.45 1.15,3.4 0.35,0.9 0.25,2.45 0.25,2.45 l 0.45,-0.6 0.1,0.9 -0.1,-0.9 c 0,0 0,1.45 0.85,2.8 l 0.4,0.55 -0.3,-0.85 c -1.05,-3.3 -0.6,-5.2 -0.6,-5.2 l -0.1,1.35 0.1,-1.35 -0.45,1.1 c 0,0 -0.2,-0.7 -0.2,-1.6 0,-0.85 -0.65,-3.2 -0.65,-3.2 l 0.35,1.3 -0.35,-1.3 -0.1,1.35 -0.55,-1.6 c -0.55,-1.65 -0.55,-5.2 -0.55,-5.2 l 0.05,2 -0.05,-2 -0.35,2.45 c 0,0 -0.15,-0.3 -0.1,-4.05 l 0,-5.8 -0.65,1.1 0.55,-2.9 c 0.55,-2.5 2.55,-6.25 2.55,-6.25 l -1.05,2.2 1.05,-2.2 -0.7,0.4 0.9,-1.75 1.65,-2.45 -0.35,0 c 0,0 0.75,-1.3 1.7,-2.1 0.95,-0.75 2.7,-1.55 2.7,-1.55 l -0.85,0.05 0.9,-0.7 c 0.4,-0.3 2.3,-0.8 3,-1 l 0.05,-0.05 -1.45,-0.15 1.85,-0.3 c 1,-1.15 2.1,-2.2 3.3,-3.15 l -0.45,0.15 c -1.9,0.65 -2.7,1.45 -2.7,1.45 l 0.65,-0.5 -0.65,0.5 1.3,-0.35 c 0,0 -1.5,1.2 -2.75,1.3 z"
               inkscape:connector-curvature="0"
               style="fill:#dfaf36" />
          </g>
        </g>
        <g
           id="group3">
          <g
             id="drawingObject16">
            <path
               id="path16"
               d="m 12.951,-29.799 c 0.15,-1.4 0.15,-3.05 -0.45,-4.3 q 0.1,0.7 0.3,2.1 0.2,1.3 0.15,2.2 z"
               inkscape:connector-curvature="0"
               style="fill:#dfaf36" />
          </g>
          <g
             id="drawingObject17">
            <path
               id="path17"
               d="m 17.051,-37.799 c -1.35,-1.3 -2.55,-3.1 -4.3,-3.75 0.5,1.7 1.5,3.5 1.5,5.3 -1.55,-1.45 -2.75,-4.6 -5.05,-5.3 0.5,1.7 1.2,3.6 0.65,5.6 -0.55,-1.4 -1.2,-3 -2.5,-3.6 -0.1,1 -0.2,2.15 -0.6,2.95 -0.75,-1.25 -1.6,-2.8 -2.7,-3.4 -0.1,0.95 -0.2,2.15 -0.65,3.1 -0.85,-1.25 -1.7,-2.85 -2.95,-3.8 -0.15,1.35 -0.15,3.15 -1.1,4.25 -0.55,-1.4 -0.85,-3.1 -1.75,-4.35 -0.05,0.65 -0.8,1.45 -1,1.9 -0.15,-0.65 -0.7,-1.55 -0.8,-2.25 -1.1,0.75 -1.85,1.7 -2.75,2.45 -0.1,-0.7 -0.2,-1.7 -0.1,-2.7 -0.9,0.6 -1.65,1.7 -2.4,2.45 0.05,-0.65 -0.2,-1.2 -0.15,-1.7 -0.4,0.5 -1.45,0.75 -1.8,1.2 0.2,-0.5 0.1,-1 0.15,-1.5 l 0,0.75 0,-0.75 c -0.8,0.3 -1.45,0.85 -2,1.5 -2.35,0.25 -3.8,3 -3.85,5.3 0.65,-1.4 1,-3.4 2.45,-4.45 l -0.1,0.95 0.6,-0.7 -0.6,0.75 c -0.2,1.55 -0.45,3.15 -0.45,4.65 0.35,-1.65 1.2,-3.9 2.8,-4.6 0.45,2.05 -0.1,4.35 0.4,6.4 0.65,-1.95 0.9,-4.6 2.4,-6.15 0.85,1.95 0.95,4.45 1.05,6.5 0,-1.7 0.15,-3.35 0.8,-4.8 0.75,1.25 0.9,3.1 1.45,4.5 0.3,-1.65 0.15,-3.7 1.3,-5.25 0.65,1.9 0.5,3.75 1,5.6 0.1,-1.3 0.2,-2.45 0.5,-3.6 0.15,1.65 -0.2,3.65 0.5,5.2 1.15,-1.7 1.7,-3.85 3.15,-5.2 0.2,1.5 -0.25,3.15 0.1,4.7 1,-1.75 1.7,-4.05 3.15,-5.4 0.2,1.5 -0.1,3.15 -0.1,4.85 0.3,-1.65 0.65,-3.3 1.6,-4.7 0.4,1.2 -0.1,3 0.6,4.4 0.15,-1.35 0.25,-2.85 0.7,-4.15 0.8,0.9 0.95,2.45 1.55,3.65 0.1,-1.3 0.05,-2.5 0.15,-3.8 0.85,1.6 1.2,3.6 2.4,5.05 0.5,-1.95 0.35,-3.8 1.05,-5.75 0.55,0.3 0.9,0.8 1.15,1.4 l -0.05,-0.95 c 0.55,1.2 0.95,2.4 1.85,3.7 -0.1,-1.05 -0.15,-2.2 -0.05,-3.05 l 0.55,0.95 -0.2,-1.25 c 1.05,1.45 1.2,3.45 1.35,5.3 0.15,-1.65 0.15,-3.3 0.3,-4.95 0.9,1.05 1.25,2.45 1.3,3.8 0.2,-1.85 -0.5,-3.75 -0.65,-5.45 1.1,0.95 1.8,2.2 2.35,3.6 -0.05,-1.55 -0.7,-3.25 -1.25,-4.65 1.1,0.95 2.1,2.35 2.65,3.75 -0.05,-1 -0.45,-2.2 -0.85,-3.25 0.25,0.6 0.45,1.25 0.7,1.85 -0.15,-0.75 -0.25,-1.35 -0.2,-1.8 0.5,0.6 1,1.35 1.3,2.2 -0.7,-3.1 -3.25,-6.05 -6,-7.65 q 0.1,0.25 0.95,2 0.6,1.25 0.5,2.15 z"
               inkscape:connector-curvature="0"
               style="fill:#dfaf36" />
          </g>
        </g>
        <g
           id="drawingObject18">
          <path
             id="path18"
             d="m -12.449,-42.299 c 0,0 -1.6,1.05 -2.1,1.5 l -1.8,1.45 c 0,0 0.5,-1.4 1.05,-2.05 l 0.9,-1.15 c 0,0 -1.55,1.05 -2.05,1.6 l -0.55,0.55 c 0,0 0.1,-0.95 0.55,-1.4 0.4,-0.5 0.6,-1 0.6,-1 0,0 -1.4,1.05 -2.15,1.5 l -0.7,0.45 c 0,0 0.75,-1.25 1.55,-1.75 0.8,-0.5 1.7,-1.2 1.7,-1.2 0,0 -3.3,1.2 -4.1,1.95 l -1.15,1 c 0,0 1.4,-1.55 2.05,-1.9 l 0.95,-0.55 c 0,0 -1.4,0.45 -2.1,0.8 l -1.7,0.9 c 0,0 1.55,-1.25 2.5,-1.6 l 0.95,-0.4 c 0,0 -1.35,0 -2.15,0.35 l -0.8,0.35 2.35,-1.35 -2.45,0.95 q -1.35,1 -2.1,1.8 l -0.75,0.75 c 0,0 1,-0.25 1.4,-0.6 l 0.35,-0.35 -0.45,0.5 0.45,-0.5 c 0,0 -0.75,0.65 -1.4,1.9 l -0.65,1.25 c 0,0 1.05,-1.4 1.7,-1.85 l 0.65,-0.4 -0.5,0.6 0.5,-0.6 c 0,0 -0.85,0.9 -1.45,1.95 -0.65,1.05 -0.9,1.65 -0.9,1.65 0,0 1.55,-1.95 2.3,-2.45 l 0.75,-0.5 -0.45,0.65 0.45,-0.65 c 0,0 -0.7,0.8 -1.45,2.6 l -0.95,2.25 c -0.1,0.35 1.7,-2.8 2.45,-3.7 l 1.05,-1.2 -0.5,1.1 0.5,-1.1 c 0,0 -0.9,1.85 -1.25,3.25 l -0.75,2.7 2.6,-4.9 -1.25,4.75 c 0,0 1.75,-2.8 2.45,-4.1 l 0.75,-1.3 -0.55,1.25 0.55,-1.25 c 0,0 -1.05,2.1 -1.4,3.85 -0.3,1.7 -0.35,2.8 -0.35,2.8 0,0 1.15,-2.7 1.55,-3.4 l 0.4,-0.7 -0.45,4.1 c 0,0 0.55,-0.9 1.5,-2.85 l 1.4,-2.5 -0.8,4.1 c -0.2,1.05 -0.3,1.55 -0.2,1.35 0.1,-0.25 1.25,-3.4 2.15,-4.75 0.9,-1.3 1.55,-2.7 1.55,-2.7 l -2.05,1.5 c 0,0 0.45,-1.3 0.9,-2.05 0.45,-0.75 0.9,-1.25 0.9,-1.25 z"
             inkscape:connector-curvature="0"
             style="fill:#dfaf36" />
        </g>
        <g
           id="drawingObject19">
          <path
             id="path19"
             d="m -20.999,-42.899 -0.5,-0.35 q -1.15,0.75 -1.65,1.2 c -0.55,0.4 -0.75,0.85 -0.75,0.85 l 1.55,-1.15 c 0.6,-0.45 1.35,-0.55 1.35,-0.55 z"
             inkscape:connector-curvature="0"
             style="fill:#f1c34c" />
        </g>
        <g
           id="drawingObject20">
          <path
             id="path20"
             d="m -19.499,-40.749 -0.25,0 c 0,0 -0.05,0.05 -0.3,-0.2 l -0.25,-0.25 -0.5,-0.2 q -0.3,0.15 -0.55,0.45 -0.25,0.35 0,0.3 c 0.35,0 0.25,-0.35 0.65,0 0.4,0.3 0.05,0.45 0.6,0.45 0.6,-0.05 0.45,-0.3 0.6,-0.05 l 0.15,0.55 0.5,-0.1 c 0.5,0 0.55,0.05 0.8,0.15 l 0.8,0.15 c 0,0 -0.3,-0.55 -1,-0.65 -0.7,-0.1 -0.5,0.25 -0.7,-0.1 -0.2,-0.35 -0.25,-0.55 -0.55,-0.5 z"
             inkscape:connector-curvature="0"
             style="fill:#f1c34c" />
        </g>
        <g
           id="drawingObject21">
          <path
             id="path21"
             d="m -21.399,-42.049 c -0.05,-0.25 -0.75,0.15 -1.1,0.8 -0.3,0.6 0,0 0.3,0.05 q 0.2,0.05 0.5,-0.3 0.35,-0.35 0.3,-0.55 z"
             inkscape:connector-curvature="0"
             style="fill:#f1c34c" />
        </g>
        <g
           id="drawingObject22">
          <path
             id="path22"
             d="m 1.751,-22.299 q -3.4,-0.5 -4.6,-0.85 c -2.9,-0.85 -5.7,-1.2 -8.5,-1.35 l 0.05,-0.6 c 0.1,-1.25 0.85,-2.6 -0.7,-3.1 -1.5,-0.5 -9.3,-1.3 -9.3,-1.3 l 4.1,0.45 -4.1,-0.45 c -0.25,0 -2.75,0.4 -3.85,0.3 l -2,0 -0.1,1.1 0.1,-1.1 c 0,0 -0.3,2 0,2.8 l 0.3,0.85 0.35,-0.5 0.25,0.1 -0.25,-0.1 c 0,0 0.35,0.05 0.8,0.65 l 0.5,0.6 0.1,-0.7 1.3,2.65 0.2,-0.95 0.7,1.15 c 0.2,0.45 -0.1,0.5 0.2,0.45 0.3,-0.1 0.35,-0.75 0.35,-0.75 l 0.7,0.45 -0.7,-0.45 c 0,0 1.3,0.8 1.5,1.35 l 0.2,0.55 -0.05,-1.55 0.5,0.25 -0.5,-0.25 c 0,0 0.9,0.4 1.2,0.95 0.35,0.5 0.55,1 0.55,1 l 0.15,-1.75 0.3,0.5 -0.3,-0.5 c 0,0 0.6,0.8 0.7,1.6 l 0.15,1.25 0.35,-1.3 0.4,1.35 0.15,-1.45 0.7,1.25 0.4,0.55 0.25,-1.6 0.4,0.05 -0.4,-0.05 c 0,0 0.7,-0.1 0.95,0.55 l 0.25,0.6 0.05,-0.7 c 0.7,0.3 1.45,0.55 2.3,1.15 0.15,-0.15 0.15,-0.35 0.15,-0.5 1,0.65 1.85,1.85 3,2.35 l 0.15,-0.7 c 0.35,0.5 1.35,1 1.7,1.5 0.15,-0.15 0.15,-0.15 0.15,-0.3 0.35,0.3 0.85,0.8 1.15,1.3 0.2,-0.3 0.35,-0.65 0.35,-0.8 1,1.65 2.85,1.3 3.85,2.8 l 0.15,-0.15 c 0.65,0.85 1,2 2.15,2.35 0.35,-0.7 0.85,-1.5 1,-2.2 0,0.35 0,0.5 0.2,0.7 0.15,-0.7 0.8,-1.35 1,-2 0,0.5 0.3,1 0.3,1.65 0,-0.85 0.35,-1.65 0.7,-2.5 l 0.15,0.35 c 0.35,-1.35 1.5,-3.7 1.15,-4.85 q -0.5,-1.45 -3.4,-2.15 z"
             inkscape:connector-curvature="0"
             style="fill:#b68c21" />
        </g>
        <g
           id="drawingObject23">
          <path
             id="path23"
             d="m 22.151,-37.999 c 0.5,0.85 0.85,2 0.7,2.85 -0.7,-0.85 -1.5,-1.85 -2.5,-2.65 0.3,1 0.65,2.15 0.3,3.3 -0.25,-0.25 -0.7,-0.5 -1.15,-1.1 0.45,0.85 0.65,1.7 0.5,2.45 l -2.85,-3 c 0.35,1.35 0.85,3 0.35,4.35 -0.85,-1 -1.85,-2.5 -3.15,-3.2 0.3,1 0.3,2 0.15,2.85 -0.5,-1 -1.15,-2 -2.15,-2.65 0.15,0.65 -0.35,1.5 -0.35,2.15 -0.35,-0.65 -0.85,-1.65 -1.35,-2.35 -0.15,1.35 0,2.85 -0.3,4.2 -0.7,-1 -1.35,-2.2 -2.35,-3 0,1 0,2.15 -0.35,3.3 -0.65,-1.15 -1,-2.5 -1.8,-3.65 0.15,1 0.15,2 -0.2,2.85 -0.5,-0.85 -1,-1.7 -1.8,-2.2 0,1.2 -0.2,2.2 -0.35,3.35 -0.15,-1.35 -0.5,-2.85 -1.15,-4.15 -0.35,1.3 -0.35,2.65 -0.85,4 -0.15,-1.2 -0.5,-2.5 -0.65,-3.7 -0.35,1.2 -0.5,2.2 -0.85,3.35 -0.15,-1 -0.35,-2 -0.85,-3 l -0.65,1.5 0.65,-1.5 c -0.5,1 -0.8,2 -1.5,3 -0.3,-1.35 -0.5,-2.85 -1.15,-4.15 -0.35,1.3 -0.65,2.8 -1.35,4.15 0,-1.35 0,-2.65 -0.5,-4 -0.3,1.15 -0.8,2.35 -1.3,3.35 -0.2,-1 -0.2,-2.35 -0.35,-3.5 -0.35,0.65 -0.65,1.65 -1,2.5 0,-1.2 0,-2.2 -0.35,-3.2 l -1.5,2.35 c 0.2,-0.85 0.2,-1.65 0.35,-2.35 -0.85,0.85 -1.5,2 -2,3.2 -0.15,-1 0.15,-2.35 0.15,-3.35 -0.8,0.65 -1.3,1.85 -2,2.85 l 0.95,-1.55 -0.95,1.55 c 0.35,-0.85 0.35,-1.85 0.7,-2.5 -0.85,0.8 -1.35,1.8 -1.85,3 0.35,-1.2 0.65,-2.2 0.85,-3.35 -0.5,0.55 -1,1 -1.5,1.45 l 0.3,-0.7 -1,0.65 c 0,0 0.7,-1.85 1.2,-2.55 l 0.55,-0.7 c 0,0 -1.35,0.9 -1.65,1.35 l -0.3,0.4 c 0,0 -0.1,-0.75 0.5,-1.5 l 0.6,-0.75 c 0,0 -1.45,1 -2.2,1.9 l -1.05,1.25 c 0,0 0,-1.15 0.45,-1.7 0.45,-0.55 0.8,-1.4 0.8,-1.4 0,0 -1.15,1 -1.65,1.55 l -0.55,0.6 0.6,-1.45 0.05,-0.35 c 0,0 -1.35,0.7 -1.9,1.55 l -0.55,0.85 c 0,0 -0.05,-0.2 0.55,-1.4 l 1.05,-1.95 -1.95,1.95 c -0.55,0.6 -0.8,1.05 -0.8,1.05 0,0 0.15,-0.55 0.55,-1.35 l 0.65,-1.25 c 0,0 -0.85,0.65 -1.45,1 l -0.6,0.4 1.35,-2.25 c 0,0 -0.65,0.35 -1.25,0.8 l -0.9,0.7 c 0,0 0.2,-0.6 0.6,-1.1 l 0.55,-0.85 -0.95,0.45 -1.15,0.85 c 0,0 0.1,-0.35 0.4,-0.75 l 0.7,-0.9 -0.75,0.35 0.75,-0.35 c 0,0 -1.45,0.65 -1.7,1 l -1.6,1.35 c -1.2,1.1 -1.6,1.8 -1.6,1.8 l 1,-0.4 -1.2,1.1 -0.1,0.2 0.8,-0.2 c -0.35,0.6 -0.85,0.9 -0.85,0.9 l 0.5,0 -0.25,0.3 c -0.35,0.5 -1,1.35 -1.25,1.95 -0.45,0.85 -0.45,1.65 -0.45,1.65 l 0.7,-0.75 0.05,0.7 -0.05,-0.7 c 0,0 0,1.25 0.25,1.95 l 0.25,0.7 0.55,-1.4 c 0.1,0.2 0.15,0.4 0.15,0.6 l 0.05,0.55 0.25,-1.05 0.7,2.45 0.1,-1.3 c 0,-0.2 0.4,1 0.7,1.55 l 0.3,0.55 c 0,0 0,-0.6 0.15,-1.1 l 0.2,-0.5 0.45,0.35 -0.45,-0.35 c 0,0 0.85,0.5 0.85,1.3 0.05,0.75 0,1.4 0,1.4 l 0.2,-1 0.65,1.25 0.1,0.25 c 0,0 0,-0.7 0.25,-1.2 l 0.25,-0.5 0.35,1.3 0.05,0.35 0.15,-0.65 0.85,0.7 0.35,0.4 0.1,-0.8 0.35,0.4 -0.35,-0.4 c 0,0 0.6,0.75 1.1,1 l 0.5,0.25 -0.15,-0.45 0.45,0.15 -0.45,-0.15 c 0,0 0.8,0.25 1.05,0.55 0.2,0.3 0.25,0.55 0.25,0.55 l 0.05,-0.7 0.2,0.25 -0.2,-0.25 c 0,0 0.4,0.35 0.5,1.05 l 0.15,0.7 0.35,-1.15 0.85,1.25 0.05,-3.25 c 0.5,1.1 0.95,2.25 1.75,3.15 0,-0.5 0.2,-1 0.2,-1.35 0.15,0.7 1,1.5 1.3,2 0.2,-0.3 0.35,-1 0.5,-1.5 0.2,0.5 1.2,1.2 1.35,1.5 0,-0.5 0.35,-0.8 0.35,-1.15 0.3,0.5 1.3,1.5 1.5,1.85 0,-0.5 0.5,-1 0.5,-1.5 0.15,0.65 0.65,1.3 0.8,2 0,-0.85 0.7,-1.35 0.85,-1.85 0.15,0.65 0.65,1.5 0.65,2.15 0,-0.3 0.35,-1 0.5,-1.3 0.2,0.65 0.85,1.3 1,1.65 0,-0.5 0.2,-1 0.35,-1.35 0.5,1 1.15,2 2,2.85 0,-0.15 0.35,-0.65 0.35,-1 0.3,0.85 1,1.65 1.65,2.15 0.1,-0.5 0.15,-0.9 0.15,-1.2 0,1.25 0.1,2.15 0.35,2.7 0.15,-0.8 0.35,-1.8 0.85,-2.65 0.3,1.15 0.3,2.5 0.65,3.65 0.35,-0.8 0.35,-2.15 0.5,-3.3 0.85,1.3 0.65,3 0.85,4.5 0.5,-1.5 0.15,-3.85 0.8,-5.35 0,0.5 0.2,1 0.2,1.5 0.3,-0.85 0.8,-1.85 1.65,-2.15 0,0.15 0.15,0.3 0.15,0.3 0.35,-0.15 0.85,-0.5 1.2,-0.8 0.15,0.15 0,0.5 0.3,0.65 0.5,-0.5 1.35,-0.85 1.7,-1.5 -0.2,0.5 -0.2,1.15 -0.35,1.65 1,-0.15 2.15,-0.65 3.15,-0.8 0,0.15 -0.15,0.3 -0.15,0.65 1.15,-0.5 2.15,-1.35 3.35,-1.85 -0.2,0.35 -0.35,0.85 -0.5,1.2 1.3,-0.2 2.3,-1 3.5,-1.7 -0.35,0.5 -0.5,1.35 -0.85,1.85 1.15,-0.65 2.15,-1.5 3.15,-2.35 -0.15,0.5 -0.15,1 -0.15,1.5 0.35,-0.5 1.15,-1 1.5,-1.3 -0.15,0.3 0,1 0,1.15 0.35,-0.65 1,-1.15 1.35,-1.85 0,0.2 0.15,0.35 0.15,0.5 0.5,-0.5 1.35,-1.15 1.65,-1.8 0,0.3 0.2,0.8 0.2,1.3 0.8,-0.8 1.15,-2.15 1.8,-3.15 0,0.5 0.2,1 0.2,1.5 l 1,-2.85 c 0,0.85 0.5,1.7 0.65,2.5 0.15,-1 0.15,-2.3 0.35,-3.3 l 0.8,0.8 c 0.2,-1.8 -1,-3.15 -1.8,-4.65 q 0.3,0.5 1.15,1.35 c 0,-1.2 -0.5,-2.5 -1,-3.7 0.15,0 0.5,0.2 0.85,0.35 -0.7,-2.15 -2.5,-5 -5,-5 0.3,0.85 0.8,1.85 0.8,2.5 -0.3,-0.65 -1,-1.15 -1.5,-1.85 z"
             inkscape:connector-curvature="0"
             style="fill:#e9dbc0" />
        </g>
        <g
           id="drawingObject24">
          <path
             id="path24"
             d="m 26.351,-35.149 c -0.35,-1.1 -1.85,-2.25 -2.35,-3.3 -0.4,-0.1 -0.75,-0.2 -1.15,-0.2 0.3,0.85 0.8,1.85 0.8,2.5 -0.3,-0.65 -1,-1.15 -1.5,-1.85 0.35,0.6 0.65,1.4 0.7,2.05 0.4,0.85 0.75,1.8 0.8,2.8 -0.25,-0.4 -0.6,-0.95 -0.95,-1.7 0.6,1.65 0.75,3.1 0.45,4.35 -0.15,-0.8 -0.65,-1.5 -1,-2.15 l 0,3 c -0.3,-0.85 -0.65,-1.35 -1,-2.15 0,1.15 0,2.3 -0.15,3.5 0,-0.5 -0.15,-1.2 -0.35,-1.5 -0.3,1 -0.8,2.15 -1.8,2.65 -0.2,-0.65 -0.7,-1.5 -0.85,-1.85 -0.35,1 -0.65,2.2 -1.5,2.85 l -0.15,-2.15 c -0.2,0.8 -0.7,1.8 -1.2,2.65 0.2,-0.85 0,-1.65 -0.15,-2.5 -0.35,0.85 -0.85,1.85 -1.65,2.35 0,-0.35 -0.2,-0.7 -0.2,-1 -1,0.8 -1.8,1.65 -2.8,2.3 0,-0.5 -0.35,-1.15 -0.35,-1.5 -0.15,0.5 -0.85,0.85 -1.15,1.2 0,-0.35 -0.2,-0.7 -0.35,-1 -0.35,0.5 -1.35,1 -1.65,1.3 0,-0.3 -0.2,-0.8 -0.2,-1.3 -0.15,0.65 -0.8,1.3 -1,1.8 -0.15,-0.5 -0.65,-0.8 -0.8,-1.3 l -1,1.15 c -0.2,-0.85 -0.85,-1.5 -1,-2.35 -0.2,0.7 -0.85,1.2 -1,1.85 0,-0.35 -0.35,-1 -0.35,-1.5 -0.35,0.85 -0.85,1.65 -1.35,2.5 -0.15,-0.5 -0.65,-1 -0.8,-1.5 0,0.5 -0.2,1.15 -0.35,1.65 -0.65,-0.5 -1.5,-1.15 -2.15,-1.8 0,0.3 -0.2,0.65 -0.2,1 -0.65,-0.35 -1.3,-1.2 -1.8,-1.85 0,0.15 -0.2,0.5 -0.2,0.85 -0.15,-0.35 -0.8,-1 -1.15,-1.7 0,0.35 -0.35,0.7 -0.35,1 -0.15,-0.5 -0.8,-1 -1,-1.65 -0.15,0.15 -1,1 -1.15,1.35 0,-0.5 -0.5,-1 -0.65,-1.5 -0.2,0.5 -0.7,1 -0.85,1.3 0,-0.3 -0.35,-1 -0.35,-1.5 -0.15,0.7 -0.8,1.35 -1.15,2 -0.35,-0.5 -1.15,-1.15 -1.35,-1.65 -0.15,0.15 -0.3,0.5 -0.5,0.65 -0.3,-0.5 -1.15,-1.15 -1.3,-1.65 l -0.35,0.65 c -0.15,0 -0.35,-0.5 -0.65,-0.5 0,0.5 -0.2,0.85 -0.35,1 -0.35,-0.3 -0.85,-0.65 -1.15,-1.15 0,0.5 -0.2,1.15 -0.2,1.65 l -0.65,-1.3 c 0,0.3 -0.35,0.8 -0.35,1.15 -0.3,-0.85 -0.8,-1.65 -0.8,-2.5 l -0.4,0.85 0.1,-2.25 -1.2,2.1 c -0.85,1.65 -0.3,0.4 -0.3,0.4 l -0.75,-1.35 -0.35,1.5 -0.05,-0.3 c -0.05,-0.25 -0.9,-1.15 -1.1,-1.55 l -0.45,-1.25 -0.35,0.6 0,-1.55 -0.75,0.55 c -0.2,0.15 0,0 0.2,-0.6 l 0.95,-2.35 c 0,0 -0.7,0.5 -1.45,0.85 -0.75,0.4 -2.05,1 -2.6,1.5 -0.3,0.3 -1.15,0.95 -2.05,1.6 l -0.1,0.75 0.7,-0.75 0.05,0.7 -0.05,-0.7 c 0,0 0,1.25 0.25,1.95 l 0.25,0.7 0.55,-1.4 c 0.1,0.2 0.15,0.4 0.15,0.6 l 0.05,0.55 0.25,-1.05 0.7,2.45 0.1,-1.3 c 0,-0.2 0.4,1 0.7,1.55 l 0.3,0.55 c 0,0 0,-0.6 0.15,-1.1 l 0.2,-0.5 0.45,0.35 -0.45,-0.35 c 0,0 0.85,0.5 0.85,1.3 0.05,0.75 0,1.4 0,1.4 l 0.2,-1 0.65,1.25 0.1,0.25 c 0,0 0,-0.7 0.25,-1.2 l 0.25,-0.5 0.35,1.3 0.05,0.35 0.15,-0.65 0.85,0.7 0.35,0.4 0.1,-0.8 0.35,0.4 -0.35,-0.4 c 0,0 0.6,0.75 1.1,1 l 0.5,0.25 -0.15,-0.45 0.5,0.15 0.05,0.05 0.2,0.1 0.1,0.1 0.05,0 0.15,0.15 c 0.2,0.3 0.25,0.55 0.25,0.55 l 0.05,-0.7 0.2,0.25 -0.2,-0.25 c 0,0 0.4,0.35 0.5,1.05 l 0.15,0.7 0.05,-0.3 0.3,-0.85 0.85,1.25 0.05,-3.25 c 0.5,1.1 0.95,2.25 1.75,3.15 0,-0.5 0.2,-1 0.2,-1.35 0.15,0.7 1,1.5 1.3,2 0.2,-0.3 0.35,-1 0.5,-1.5 0.2,0.5 1.2,1.2 1.35,1.5 0,-0.5 0.35,-0.8 0.35,-1.15 0.3,0.5 1.3,1.5 1.5,1.85 0,-0.5 0.5,-1 0.5,-1.5 0.15,0.65 0.65,1.3 0.8,2 0,-0.85 0.7,-1.35 0.85,-1.85 0.15,0.65 0.65,1.5 0.65,2.15 0,-0.3 0.35,-1 0.5,-1.3 0.2,0.65 0.85,1.3 1,1.65 0,-0.5 0.2,-1 0.35,-1.35 0.5,1 1.15,2 2,2.85 0,-0.15 0.35,-0.65 0.35,-1 0.3,0.85 1,1.65 1.65,2.15 0.1,-0.5 0.15,-0.9 0.15,-1.2 0,1.25 0.1,2.15 0.35,2.7 0.15,-0.8 0.35,-1.8 0.85,-2.65 0.3,1.15 0.3,2.5 0.65,3.65 0.35,-0.8 0.35,-2.15 0.5,-3.3 0.85,1.3 0.65,3 0.85,4.5 0.5,-1.5 0.15,-3.85 0.8,-5.35 0,0.5 0.2,1 0.2,1.5 0.3,-0.85 0.8,-1.85 1.65,-2.15 0,0.15 0.15,0.3 0.15,0.3 0.35,-0.15 0.85,-0.5 1.2,-0.8 0.15,0.15 0,0.5 0.3,0.65 0.5,-0.5 1.35,-0.85 1.7,-1.5 -0.2,0.5 -0.2,1.15 -0.35,1.65 1,-0.15 2.15,-0.65 3.15,-0.8 0,0.15 -0.15,0.3 -0.15,0.65 1.15,-0.5 2.15,-1.35 3.35,-1.85 -0.2,0.35 -0.35,0.85 -0.5,1.2 1.3,-0.2 2.3,-1 3.5,-1.7 -0.35,0.5 -0.5,1.35 -0.85,1.85 1.15,-0.65 2.15,-1.5 3.15,-2.35 -0.15,0.5 -0.15,1 -0.15,1.5 0.35,-0.5 1.15,-1 1.5,-1.3 -0.15,0.3 0,1 0,1.15 0.35,-0.65 1,-1.15 1.35,-1.85 0,0.2 0.15,0.35 0.15,0.5 0.5,-0.5 1.35,-1.15 1.65,-1.8 0,0.3 0.2,0.8 0.2,1.3 0.65,-0.65 1.05,-1.7 1.5,-2.6 0.35,-1.2 0.55,-2.35 0.8,-4.05 0.2,0 0.35,0.15 0.5,0 -0.15,-0.65 -0.5,-1.5 -1,-2.15 l 0.7,0.65 c -0.35,-1.65 -0.85,-3.15 -1.2,-4.65 0.35,0 0.85,0.15 1.2,0.15 z"
             inkscape:connector-curvature="0"
             style="fill:#dccaa8" />
        </g>
        <g
           id="drawingObject25">
          <path
             id="path25"
             d="m 13.351,-23.299 c -1,0.5 -1.85,1.3 -2.7,1.8 -0.3,0 -0.3,-0.15 -0.65,-0.3 -0.35,0.5 -1,0.65 -1.5,0.8 -0.15,-0.15 -0.15,-0.5 -0.35,-0.65 l -1.3,0.65 c 0,-0.3 -0.35,-1 -0.35,-1.5 l -1,0.5 c -0.15,-0.5 -0.5,-0.8 -0.65,-1.3 -0.2,0.5 -1,1.3 -1.2,1.8 -0.15,-0.5 -0.65,-0.8 -0.8,-1.15 0,0.65 -0.35,1.5 -0.35,2.15 -0.15,-0.5 -0.5,-1.15 -0.65,-1.8 0,1 0,2 -0.2,3.15 -0.3,-1 -0.5,-2.15 -1,-3 l -0.5,3 c 0,-0.5 -0.15,-1 -0.3,-1.65 0,0.5 -0.35,1.15 -0.5,1.65 0,-0.15 -0.7,-0.85 -0.85,-1.15 -0.45,1 -1.4,1 -2.8,-0.05 -1.35,-1.05 -2.05,-2 -2.05,-2.9 0,0.3 -0.05,0.65 -0.15,1.1 -0.85,-0.65 -1.65,-1.65 -2.35,-2.5 0,0.35 -0.3,0.85 -0.3,1.15 -0.35,-0.5 -1.2,-0.8 -1.5,-1.5 -0.2,0.2 -0.2,0.5 -0.35,0.85 -0.5,-0.35 -1,-1 -1.15,-1.5 l -0.45,0 0.35,-0.65 -1,-0.9 -0.55,0.55 c -0.65,0.65 -0.4,0.3 -0.4,0.3 l 0,-0.55 -0.8,0.8 0.55,-1.15 -0.8,0.5 c -0.5,0.35 -0.65,0.55 -0.65,0.55 l 0,-0.45 -0.6,0.35 c -0.6,0.3 -0.75,1 -0.75,1 l -0.4,-0.55 c 0,0 -0.1,0.55 -0.55,0.6 -0.45,0 -1.2,-0.25 -1.35,-0.45 l -0.55,-0.95 -0.2,0.95 -0.35,-2.1 -0.35,0.5 c -0.4,0.5 -0.55,0.5 -0.55,0.5 l -0.4,-0.9 -0.05,1.15 c 0,0 -0.45,-0.4 -0.8,-0.9 -0.35,-0.45 -0.55,-1.3 -0.55,-1.3 l 0.15,0.5 -0.15,-0.5 -0.15,1.2 -0.2,-0.45 -0.4,-1.6 -0.3,1.25 -0.4,-0.75 -0.75,-1.85 -0.2,0.3 c -0.25,0.3 -0.3,1.05 -0.3,1.05 l -0.1,-0.55 0,-1.3 -0.75,1.25 c 0,0 0.05,-0.75 0.75,-2.25 0.7,-1.45 1.75,-2.45 1.75,-2.45 l -0.6,0.7 0.6,-0.7 -1.55,0.75 c -0.25,0.05 0,0 0.25,-0.65 l 0.25,-1.25 -1.2,0.2 c -0.5,0.05 -0.35,0.35 -0.35,0.35 l 0.45,0.25 -0.2,0.15 -0.95,0.85 0.65,0 -1.6,1.25 c -0.95,0.8 -1.45,2.1 -1.65,2.7 l 0,0.15 0.7,-0.75 0.05,0.7 -0.05,-0.7 c 0,0 0,1.25 0.25,1.95 l 0.25,0.7 0.55,-1.4 c 0.1,0.2 0.15,0.4 0.15,0.6 l 0.05,0.55 0.25,-1.05 0.7,2.45 0.1,-1.3 c 0,-0.2 0.4,1 0.7,1.55 l 0.3,0.55 c 0,0 0,-0.6 0.15,-1.1 l 0.2,-0.5 0.45,0.35 -0.45,-0.35 c 0,0 0.85,0.5 0.85,1.3 0.05,0.75 0,1.4 0,1.4 l 0.2,-1 0.65,1.25 0.1,0.25 c 0,0 0,-0.7 0.25,-1.2 l 0.25,-0.5 0.35,1.3 0.05,0.35 0.15,-0.65 0.85,0.7 0.35,0.4 0.1,-0.8 0.35,0.4 -0.35,-0.4 c 0,0 0.6,0.75 1.1,1 l 0.5,0.25 -0.15,-0.45 0.45,0.15 -0.45,-0.15 c 0,0 0.8,0.25 1.05,0.55 0.2,0.3 0.25,0.55 0.25,0.55 l 0.05,-0.7 0.2,0.25 -0.2,-0.25 c 0,0 0.4,0.35 0.5,1.05 l 0.1,0.4 0,0.15 0.05,0.15 0.05,-0.3 0.3,-0.85 0.2,0.3 0.05,0.05 0,0.05 0.25,0.35 0.05,0.05 0.3,0.45 0.05,-1.35 0.15,-0.75 0.6,1.6 0.15,-0.85 c 0.25,0.45 0.5,0.85 0.85,1.25 l 0.1,-0.9 0.15,-0.2 c 0.25,0.6 0.95,1.35 1.25,1.75 0.2,-0.3 0.35,-1 0.5,-1.5 0.2,0.5 1.2,1.2 1.35,1.5 0,-0.5 0.35,-0.8 0.35,-1.15 0.3,0.5 1.3,1.5 1.5,1.85 0,-0.5 0.5,-1 0.5,-1.5 0.15,0.65 0.65,1.3 0.8,2 0,-0.85 0.7,-1.35 0.85,-1.85 0.15,0.65 0.65,1.5 0.65,2.15 0,-0.3 0.35,-1 0.5,-1.3 0.2,0.65 0.85,1.3 1,1.65 0,-0.5 0.2,-1 0.35,-1.35 0.5,1 1.15,2 2,2.85 0,-0.15 0.35,-0.65 0.35,-1 0.3,0.85 1,1.65 1.65,2.15 0.1,-0.5 0.15,-0.9 0.15,-1.2 0,1.25 0.1,2.15 0.35,2.7 0.15,-0.8 0.35,-1.8 0.85,-2.65 0.3,1.15 0.3,2.5 0.65,3.65 0.35,-0.8 0.35,-2.15 0.5,-3.3 0.85,1.3 0.65,3 0.85,4.5 0.5,-1.5 0.15,-3.85 0.8,-5.35 0,0.5 0.2,1 0.2,1.5 0.3,-0.85 0.8,-1.85 1.65,-2.15 0,0.15 0.15,0.3 0.15,0.3 0.35,-0.15 0.85,-0.5 1.2,-0.8 0.15,0.15 0,0.5 0.3,0.65 0.5,-0.5 1.35,-0.85 1.7,-1.5 -0.2,0.5 -0.2,1.15 -0.35,1.65 1,-0.15 2.15,-0.65 3.15,-0.8 0,0.15 -0.15,0.3 -0.15,0.65 1.15,-0.5 2.15,-1.35 3.35,-1.85 -0.2,0.35 -0.35,0.85 -0.5,1.2 1.3,-0.2 2.3,-1 3.5,-1.7 -0.35,0.5 -0.5,1.35 -0.85,1.85 1.15,-0.65 2.15,-1.5 3.15,-2.35 -0.15,0.5 -0.15,1 -0.15,1.5 0.35,-0.5 1.15,-1 1.5,-1.3 -0.15,0.3 0,1 0,1.15 0.35,-0.65 1,-1.15 1.35,-1.85 0,0.2 0.15,0.35 0.15,0.5 0.5,-0.5 1.35,-1.15 1.65,-1.8 0,0.3 0.2,0.8 0.2,1.3 0.65,-0.65 1.05,-1.7 1.5,-2.6 0.35,-1.2 0.55,-2.35 0.8,-4.05 0.2,0 0.35,0.15 0.5,0 -0.15,-0.65 -0.5,-1.5 -1,-2.15 l 0.7,0.65 c -0.3,-1.45 -0.75,-2.8 -1.05,-4.15 -0.4,1.7 -0.2,3.5 -0.15,5.05 -0.05,-0.15 -0.1,-0.35 -0.15,-0.55 -0.35,1.5 -0.85,3 -1.85,3.8 0,-0.3 -0.15,-0.8 -0.15,-1.3 -0.35,1.3 -1,2.65 -2.15,3.5 0.15,-0.5 0,-1.2 -0.2,-1.5 -0.65,1 -1.5,2 -2.65,2.8 0.15,-0.5 0,-1 0.15,-1.5 -0.5,0.85 -1.3,1.7 -2.15,2 0,-0.5 -0.15,-1.15 -0.15,-1.5 -0.85,0.5 -1.5,1.35 -2.35,1.7 0,-0.5 -0.15,-0.85 -0.15,-1 z"
             inkscape:connector-curvature="0"
             style="fill:#d2be91" />
        </g>
        <g
           id="drawingObject26">
          <path
             id="path26"
             d="m 1.251,-51.399 c -0.9,-0.25 -1.9,-0.75 -2.9,-0.65 0.55,0.55 1.25,0.9 1.75,1.5 -0.5,0 -1.1,-0.25 -1.7,-0.45 0.1,0.25 0,0.6 0.1,0.75 -0.6,-0.05 -1.1,-0.5 -1.5,-0.8 0.15,0.5 0.25,1.05 0.15,1.5 l 0.1,0.05 c -0.6,-0.15 -1.35,-0.4 -2,-0.4 l 0.35,0.5 -1.5,0 0.65,0.35 c -1.35,0.25 -2.9,0 -4.25,0.4 0.65,0.1 1.4,0.1 2.1,0.1 -1.35,0.3 -2.6,0.5 -3.85,1.15 1.85,-0.35 3.85,-0.5 5.65,-0.4 -0.8,0.4 -1.75,0.8 -2.4,1.5 1.35,-0.5 2.75,-1.2 4.15,-1.45 -0.65,0.75 -1.55,1.25 -2.05,2.2 1,-0.35 1.9,-1 2.9,-1.5 -0.1,0.55 -0.35,1.05 -0.4,1.65 0.4,-0.4 0.75,-1 1.25,-1.35 l 0.15,1.35 c 0.15,-0.6 0.25,-1.25 0.5,-1.75 0.35,0.65 0.35,1.4 0.5,2.1 0.1,-0.5 0.1,-1 0.1,-1.6 0.4,0.6 0.65,1.25 0.9,1.85 l 0.15,-1.7 c 0.7,0.6 1.1,1.5 1.6,2.25 -0.1,-0.75 -0.35,-1.5 -0.35,-2.25 0.6,0.2 0.95,0.7 1.35,1 -0.25,-0.8 -0.85,-1.55 -1.25,-2.3 0.6,-0.15 1.35,0 2.1,0.25 1.1,0.05 2.2,0.4 3.15,0.55 -0.5,-0.5 -1.15,-0.75 -1.75,-1.05 1.75,-0.25 3.5,0.05 5.25,0.15 -1.35,-0.4 -2.85,-0.35 -4.15,-0.75 1.65,-0.15 3.4,0.15 5.05,0 -0.9,-0.35 -1.9,-0.35 -2.9,-0.4 1.25,0 2.65,0.05 3.9,-0.2 -0.25,-0.35 -0.65,-0.65 -1.3,-0.9 -0.75,-0.2 -1.25,-0.35 -1.55,-0.5 0.15,0.05 0.4,0.05 0.8,-0.05 q -1.5,-0.7 -2.55,-1.7 l -0.3,-0.1 0.4,0.35 c -0.55,-0.4 -1.15,-0.75 -1.75,-0.85 l 0.35,1.35 c -0.9,-0.35 -1.75,-0.9 -2.65,-1.25 0.15,0.4 0.55,0.75 0.9,1.15 -0.9,-0.4 -1.85,-1 -2.85,-1.3 0.5,0.5 1.1,0.9 1.5,1.3 -1.05,-0.25 -2.05,-0.8 -3.15,-1.05 0.25,0.55 0.85,1 1.25,1.4 z"
             inkscape:connector-curvature="0"
             style="fill:#b68521" />
        </g>
      </g>
    </g>
  </g>
</svg>
