<?xml version="1.0" encoding="UTF-8" standalone="no"?>
<!-- Generator: flash2svg, http://dissentgraphics.com/tools/flash2svg -->

<svg
   xmlns:dc="http://purl.org/dc/elements/1.1/"
   xmlns:cc="http://creativecommons.org/ns#"
   xmlns:rdf="http://www.w3.org/1999/02/22-rdf-syntax-ns#"
   xmlns:svg="http://www.w3.org/2000/svg"
   xmlns="http://www.w3.org/2000/svg"
   xmlns:sodipodi="http://sodipodi.sourceforge.net/DTD/sodipodi-0.dtd"
   xmlns:inkscape="http://www.inkscape.org/namespaces/inkscape"
   id="AvatarAssets"
   image-rendering="auto"
   version="1.1"
   x="0px"
   y="0px"
   width="56.257477"
   height="65.656158"
   viewBox="0 0 56.257477 65.656158"
   inkscape:version="0.48.4 r9939"
   sodipodi:docname="AvatarAssets_backHatOctopus.svg">
  <metadata
     id="metadata3977">
    <rdf:RDF>
      <cc:Work
         rdf:about="">
        <dc:format>image/svg+xml</dc:format>
        <dc:type
           rdf:resource="http://purl.org/dc/dcmitype/StillImage" />
      </cc:Work>
    </rdf:RDF>
  </metadata>
  <sodipodi:namedview
     pagecolor="#ffffff"
     bordercolor="#666666"
     borderopacity="1"
     objecttolerance="10"
     gridtolerance="10"
     guidetolerance="10"
     inkscape:pageopacity="0"
     inkscape:pageshadow="2"
     inkscape:window-width="640"
     inkscape:window-height="480"
     id="namedview3975"
     showgrid="false"
     fit-margin-top="0"
     fit-margin-left="0"
     fit-margin-right="0"
     fit-margin-bottom="0"
     inkscape:zoom="1.9032258"
     inkscape:cx="61.500776"
     inkscape:cy="-59.749"
     inkscape:window-x="0"
     inkscape:window-y="0"
     inkscape:window-maximized="0"
     inkscape:current-layer="AvatarAssets" />
  <defs
     id="defs3482" />
  <g
     id="backHatOctopus1"
     overflow="visible"
     style="overflow:visible"
     transform="translate(29.500776,63.405156)">
    <g
       id="backHatOctopus_2_1">
      <g
         id="element10">
        <g
           id="drawingObject178">
          <path
             id="path179"
             d="m 17.451,-33.849 c 0,-2.1 2.7,-1.75 3.95,2.35 1.25,4.15 1.9,8.7 -0.5,16.25 -2.4,7.6 -4.25,10.5 -4.25,10.5 l 5.3,-6.8 c 0.5,-0.65 6.4,-13.95 3.25,-21.25 q -2.35,-5.3 -7.6,-10.35 -5.15,-4.9 -8.1,-4.9 c -3.8,0 -19.5,13.15 -19.5,13.15 -1.3,0 -4.15,0.4 -7.5,1.95 -3.3,1.55 -6,12.5 -5.4,16.7 0.6,4.25 4.85,13.2 6.2,14.25 0.85,0.7 2.9,1.65 6.05,2.9 -0.95,-0.45 -2.05,-1.35 -3.25,-2.65 -1.25,-1.35 -2.2,-3.25 -2.95,-5.7 -0.75,-2.45 -1.2,-4.75 -1.35,-6.9 -0.1,-1.85 0,-3.9 0.35,-6.15 0.6,-4.2 4.25,-8.6 4.25,-8.6 l -1.9,2.75 1.9,-2.75 1,5.75 -1,-5.75 c 0,0 1.95,10.95 2.1,13.2 0.2,2.25 2.75,9.85 3.35,11.95 0.6,2.1 3.5,5.9 3.5,5.9 0,0 -2.85,-5.75 -2.6,-9.85 0.25,-4.1 0,-12.35 0.2,-15.25 0.05,-1.65 0.95,-3.15 2.6,-4.6 3.15,1.15 5.95,1.6 8.4,1.3 2.45,-0.3 4.25,-1 5.5,-2.15 1.2,-1.15 2.2,-1.15 2.95,-0.05 4.2,5.95 4.4,11.5 4.35,14.3 0.15,-3.3 0.35,-9.8 0.7,-19.5 z"
             inkscape:connector-curvature="0"
             style="fill:#000000;fill-opacity:0.29800002" />
        </g>
      </g>
      <g
         id="element11">
        <g
           id="group16">
          <g
             id="drawingObject179">
            <path
               id="path180"
               d="m -9.299,-43.699 c -0.65,-0.4 0.75,0.05 0.2,-0.45 -0.2,0.2 -1.9,-0.5 -1.9,-0.5 0,0 -3.45,-0.65 -8.8,1.45 q -3.25,1.3 -5.55,4.4 -1.8,2.4 -3.3,6.35 c -1.65,4.5 -0.6,15.1 0.6,17.75 1.25,2.6 2.35,3.85 4.15,5.7 2.75,2.75 6.85,2.95 6.85,2.95 0,0 -1.75,-0.75 -2.9,-2.95 -1.45,-2.75 -3.3,-4.55 -4.45,-7.3 -1,-2.35 -1.65,-8.4 -1.2,-11.25 0.45,-2.9 4.6,-10.8 10.55,-11.55 1.85,-0.25 3.9,-0.45 6.4,0.05 l -0.65,-4.65 z"
               inkscape:connector-curvature="0"
               style="fill:#9d5e60" />
          </g>
          <g
             id="drawingObject180">
            <path
               id="path181"
               d="m -24.299,-37.549 c 0.55,-0.8 1.3,-1.3 2.75,-2.4 1.5,-1.2 3.35,-2.7 4.5,-3.05 1.15,-0.3 2.6,-0.55 2.75,-0.75 q 0.1,-0.15 -0.4,-0.25 -0.6,-0.1 -1.2,0.05 c -3.3,0.65 -5.5,2.4 -6.35,3.25 -0.45,0.45 -1.1,1.5 -2.05,3.15 z"
               inkscape:connector-curvature="0"
               style="fill:#b46b6f" />
          </g>
          <g
             id="drawingObject181">
            <path
               id="path182"
               d="m -27.699,-30.949 0.25,-1.2 c -0.1,0.2 -0.6,0.7 -0.85,1.3 -0.2,0.6 -0.2,1.05 -0.2,1.65 0,0.6 -0.1,0.65 -0.1,1.5 0,0.85 0,1.65 0.45,2.9 0.15,0.3 0.25,-0.85 0.45,-1.75 0.25,-0.95 0,-1.15 0,-1.65 l 0,-2.75 z"
               inkscape:connector-curvature="0"
               style="fill:#b46b6f" />
          </g>
          <g
             id="drawingObject182">
            <path
               id="path183"
               d="m -27.699,-15.949 c 0.25,0.45 1.05,0.85 0.85,0.55 -0.2,-0.25 -0.15,-0.8 -0.35,-1.2 -0.25,-0.4 -0.35,-0.65 -0.55,-1.5 l -0.4,-1.45 -0.15,2.05 q 0,0.4 0.25,0.85 0.1,0.25 0.35,0.7 z"
               inkscape:connector-curvature="0"
               style="fill:#834f53" />
          </g>
          <g
             id="drawingObject183">
            <path
               id="path184"
               d="m -9.299,-43.699 c -0.65,-0.4 0.75,0.05 0.2,-0.45 q -0.2,0.2 -1.9,-0.5 c 0,0 -2.8,-0.55 -7.3,0.9 0.2,0.7 0.4,1.55 -0.1,1.85 -0.8,0.55 -5.3,5.3 -6.65,8.05 -1.35,2.75 -2.35,8.05 -2.1,11.15 0.25,3.1 0.85,6.4 1.45,7.55 0.55,1.15 0.75,1.4 0.75,1.4 0,0 -1.1,-0.95 -1,-0.2 0.05,0.75 0.3,1.5 0.3,1.5 0,0 -1.15,-1.1 -1.25,-0.6 0,0.1 -0.05,0.15 -0.15,0.25 0.9,1.45 1.85,2.45 3.15,3.8 2.75,2.75 6.85,2.95 6.85,2.95 0,0 -1.75,-0.75 -2.9,-2.95 -1.45,-2.75 -3.3,-4.55 -4.45,-7.3 -1,-2.35 -1.65,-8.4 -1.2,-11.25 0.45,-2.9 4.6,-10.8 10.55,-11.55 1.85,-0.25 3.9,-0.45 6.4,0.05 l -0.65,-4.65 z"
               inkscape:connector-curvature="0"
               style="fill:#895254" />
          </g>
        </g>
      </g>
      <g
         id="element12">
        <g
           id="drawingObject184">
          <path
             id="path185"
             d="m 12.401,-40.749 c 5.95,0.9 10.25,9.9 10.5,13.2 1.35,15.95 -7.7,24.1 -7.7,24.1 1.45,-0.75 3.3,-2.1 5.5,-4 2.2,-1.95 3.65,-3.85 4.35,-5.7 0.65,-1.9 1.2,-5.1 1.55,-9.65 0.35,-4.55 0.1,-8 -0.65,-10.3 q -1.45,-4.5 -3.25,-7.25 -2.3,-3.5 -5.6,-5 c -5.35,-2.45 -8.75,-1.7 -8.75,-1.7 l 2.35,-0.05 -2.35,0.05 c 0,0 -1.75,0.8 -1.9,0.6 -0.6,0.55 0.8,0.05 0.2,0.5 l -0.7,5.3 c 2.5,-0.55 4.55,-0.35 6.45,-0.1 z"
             inkscape:connector-curvature="0"
             style="fill:#9d5e60" />
        </g>
        <g
           id="drawingObject185">
          <path
             id="path186"
             d="m 16.401,-42.849 c -0.7,-0.9 -3.75,-2.2 -5.65,-2.75 -0.15,-0.05 -0.35,-0.15 -0.85,-0.35 -0.25,-0.15 -0.7,-0.45 -1.45,-0.9 l -0.05,0.05 c -0.2,0.15 -0.5,0.3 -0.85,0.45 -0.45,0.15 -0.75,0.25 -0.9,0.4 l -0.7,5.3 c 2.5,-0.55 4.55,-0.35 6.45,-0.1 5.95,0.9 10.15,9.9 10.5,13.2 1.45,14.05 -7.45,23.95 -7.45,23.95 1.5,-0.8 3,-1.9 4.45,-3.25 1.45,-1.4 2.7,-2.8 3.75,-4.25 1.05,-1.45 1.5,-3.2 1.4,-5.25 -0.15,-2.1 -0.2,-3.65 -0.2,-4.6 q 0,-2 -0.45,-4.15 -0.45,-2.15 -0.45,-2.7 l 0,-3.7 -0.35,0.9 -0.25,-2.15 c -0.2,-2.15 -2.5,-5.5 -3.85,-6.75 -1.1,-0.95 -3,-2.5 -3.95,-3.15 l 1.5,0.7 -0.65,-0.9 z"
             inkscape:connector-curvature="0"
             style="fill:#895254" />
        </g>
        <g
           id="drawingObject186">
          <path
             id="path187"
             d="m 14.601,-44.949 c 1.15,0.4 3,2.1 4.5,3.45 1.55,1.35 2.3,1.95 2.8,2.8 -0.95,-1.95 -1.65,-3.15 -2.1,-3.6 -0.85,-1 -3.05,-3 -6.35,-3.75 q -0.65,-0.15 -1.2,-0.05 -0.5,0.1 -0.4,0.25 c 0.15,0.25 1.6,0.55 2.75,0.9 z"
             inkscape:connector-curvature="0"
             style="fill:#b46b6f" />
        </g>
        <g
           id="drawingObject187">
          <path
             id="path188"
             d="m 24.751,-32.749 0.25,1.3 0,3.15 c 0,0.6 -0.25,0.85 0,1.9 0.25,1.05 0.35,2.35 0.45,2 0.45,-1.4 0.45,-2.3 0.45,-3.3 l -0.05,-1.7 c 0,-0.7 0,-1.2 -0.25,-1.85 -0.2,-0.7 -0.75,-1.3 -0.85,-1.5 z"
             inkscape:connector-curvature="0"
             style="fill:#b46b6f" />
        </g>
        <g
           id="drawingObject188">
          <path
             id="path189"
             d="m 25.601,-16.099 -0.15,-2.3 -0.35,1.65 c -0.25,0.95 -0.35,1.25 -0.55,1.7 -0.25,0.45 -0.15,1.05 -0.35,1.4 -0.25,0.3 0.55,-0.1 0.8,-0.65 q 0.6,-1.2 0.6,-1.8 z"
             inkscape:connector-curvature="0"
             style="fill:#834f53" />
        </g>
        <g
           id="drawingObject189">
          <path
             id="path190"
             d="m 13.251,-40.249 c 5.5,1.9 8.1,8.1 8.1,8.1 0,0 -0.55,-2.35 -2.5,-5.6 -1.95,-3.3 -5.95,-4.75 -5.95,-4.75 l 2.25,1.15 -2.25,-1.15 0.8,-0.55 c 0,0 -0.8,0 -2.65,-1.25 -1.8,-1.2 0.35,-2.7 0.35,-2.7 0,0 -1.25,-0.3 -2.85,0.1 q -1,0.25 -2.3,1.55 l -1.15,1.2 0.15,1.65 -0.15,-1.65 c 0,0 0,3.25 1.05,3.35 1,0.1 3.75,-0.6 7.1,0.55 z"
             inkscape:connector-curvature="0"
             style="fill:#724446" />
        </g>
      </g>
      <g
         id="element13">
        <g
           id="drawingObject190">
          <path
             id="path191"
             d="m -14.249,-38.749 -2.45,0.25 c -0.95,0.55 -2.05,0.6 -3.1,1.1 -1.2,1 -3.8,3.95 -4.85,6.05 -1.2,2.45 -1.05,9 -1,12.55 0.05,3.2 1.35,5.55 2.05,8.05 0.7,2.55 1.7,5.1 4.55,7.85 3.85,3.75 7.65,3.7 7.65,3.7 0,0 -2.75,-1.55 -4.55,-3.35 -1.75,-1.7 -3.65,-11.7 -3.45,-13.65 0.85,-6.85 4,-13.25 4.2,-13.4 0.5,-1 0.7,-1.15 1.35,-2.1 -0.1,-0.8 1.4,-2 1.4,-2.8 -0.05,-1.6 -1.7,-2.7 -1.8,-4.25 z"
             inkscape:connector-curvature="0"
             style="fill:#9d5e60" />
        </g>
        <g
           id="drawingObject191">
          <path
             id="path192"
             d="m -19.199,-36.199 c 0.2,-0.35 -1.3,0.75 -1.3,0.75 q -0.05,0.05 -0.25,0.4 -0.15,0.2 -0.55,0.55 c -0.65,0.6 -1.05,0.5 -1.25,0.95 -0.2,0.4 -0.3,0.95 -0.3,0.95 l 0.9,-0.6 c 0.45,-0.25 -0.1,-0.25 0.75,-0.7 0.9,-0.4 1.4,-0.6 1.6,-1.2 0.2,-0.6 0.2,-0.75 0.4,-1.1 z"
             inkscape:connector-curvature="0"
             style="fill:#b46a6c" />
        </g>
        <g
           id="drawingObject192">
          <path
             id="path193"
             d="m -20.899,-32.849 -0.3,-0.3 q -0.25,0.3 -0.5,0.7 -0.25,0.45 -0.05,0.5 c 0.25,0.1 0.45,0 0.85,-0.35 0.4,-0.3 -0.3,-0.85 -0.3,-0.85"
             inkscape:connector-curvature="0"
             style="fill:#b46a6c" />
        </g>
        <g
           id="drawingObject193">
          <path
             id="path194"
             d="m -23.949,-31.099 c 0.8,0 0.6,-1.25 0.2,-0.9 q -0.4,0.3 -0.55,0.55 -0.2,0.35 0.35,0.35 z"
             inkscape:connector-curvature="0"
             style="fill:#b46a6c" />
        </g>
        <g
           id="drawingObject194">
          <path
             id="path195"
             d="m -23.949,-25.399 0.4,-0.55 c 0,0 -0.8,0.9 -0.9,1.85 l 0,1.45 c 0,0.5 0.8,3.05 0.9,3.75 0.1,0.7 0.3,1.35 0.3,2.05 l 0.1,1.7 0.5,1 -0.1,-2.8 c 0,-0.7 -0.1,-2.1 -0.2,-2.55 -0.1,-0.45 -0.9,-2.9 -0.9,-3.75 0,-0.85 0.1,-1.2 0.2,-1.7 l 0.1,-1"
             inkscape:connector-curvature="0"
             style="fill:#b46a6c" />
        </g>
        <g
           id="drawingObject195">
          <path
             id="path196"
             d="m -18.649,-34.249 0,-0.3 q -0.35,0 -0.65,0.2 l -0.85,0.65 -0.25,0.25 0.25,-0.25 c 0,0 -0.75,0.5 0.05,0.3 0.8,-0.15 1,0 1.25,-0.3 0.25,-0.3 0.2,-0.85 0.2,-0.85"
             inkscape:connector-curvature="0"
             style="fill:#b46a6c" />
        </g>
        <g
           id="drawingObject196">
          <path
             id="path197"
             d="m -19.199,-31.249 c 0.2,-0.2 0.4,-1.5 -0.1,-1.35 q -0.65,0.15 -0.75,0.35 c -0.15,0.25 -0.4,1.15 -0.15,1.15 0.25,0 0.8,0.05 1,-0.15 z"
             inkscape:connector-curvature="0"
             style="fill:#b46a6c" />
        </g>
        <g
           id="drawingObject197">
          <path
             id="path198"
             d="m -22.699,-30.449 c 0.5,-0.2 0.6,-1.2 0.6,-1.2 q -0.5,-0.2 -0.5,-0.15 c 0,0.1 -0.15,0.35 -0.3,0.5 -0.15,0.2 -0.3,1.05 0.2,0.85 z"
             inkscape:connector-curvature="0"
             style="fill:#b46a6c" />
        </g>
        <g
           id="drawingObject198">
          <path
             id="path199"
             d="m -21.499,-29.899 c 0.35,-0.35 0.6,-1.55 0.05,-1.25 q -0.3,0.2 -0.45,0.65 -0.1,0.35 -0.05,0.55 c 0,0.1 0.1,0.4 0.45,0.05 z"
             inkscape:connector-curvature="0"
             style="fill:#b46a6c" />
        </g>
        <g
           id="drawingObject199">
          <path
             id="path200"
             d="m -23.949,-29.549 c 0.2,-0.15 0.05,-0.9 -0.2,-0.75 q -0.5,0.2 -0.4,0.55 c 0.05,0.2 0.4,0.35 0.6,0.2 z"
             inkscape:connector-curvature="0"
             style="fill:#b46a6c" />
        </g>
        <g
           id="drawingObject200">
          <path
             id="path201"
             d="m -22.249,-29.299 c 0,-0.1 -0.2,-0.65 -0.4,-0.4 q -0.25,0.55 0,0.6 c 0.25,0 0.4,-0.05 0.4,-0.2 z"
             inkscape:connector-curvature="0"
             style="fill:#b46a6c" />
        </g>
        <g
           id="drawingObject201">
          <path
             id="path202"
             d="m -22.749,-24.199 0.35,-1 c 0.05,-0.25 -0.3,-0.45 -0.5,-0.3 q -0.25,0.15 -0.25,0.4 0,0.15 0.05,0.5 c -0.05,0.35 0.05,0.9 0.05,0.9 0,0 0.15,0.05 0.3,-0.5 z"
             inkscape:connector-curvature="0"
             style="fill:#b46a6c" />
        </g>
        <g
           id="drawingObject202">
          <path
             id="path203"
             d="m -22.449,-20.649 -0.2,-0.75 -0.15,0.4 c 0,0.2 0.3,0.5 0.35,0.35 z"
             inkscape:connector-curvature="0"
             style="fill:#b46a6c" />
        </g>
        <g
           id="drawingObject203">
          <path
             id="path204"
             d="m -16.699,-38.499 c -0.95,0.55 -2.05,0.6 -3.1,1.1 -0.3,0.25 -0.7,0.6 -1.1,1.05 1.45,-0.8 2.6,-1.4 3.75,1 1.45,2.9 -0.8,5.15 -1.8,7.6 -1,2.45 -2.8,5.8 -2.7,9.35 0.1,3.6 0.7,6.8 0.7,7.9 l 0,1.15 c 0,0 -1.1,-2.4 -1.25,-1.65 -0.2,0.75 -0.1,1.4 -0.1,1.4 0,0 -0.9,-1.35 -0.9,-0.65 l -0.1,0.55 c 0.7,2.2 1.8,4.45 4.25,6.8 3.85,3.75 7.65,3.7 7.65,3.7 0,0 -2.75,-1.55 -4.55,-3.35 q -1.2,-1.15 -2.45,-6.75 -1.2,-5.15 -1,-6.9 c 0.85,-6.85 4,-13.25 4.2,-13.4 0.5,-1 0.7,-1.15 1.35,-2.1 -0.1,-0.8 1.4,-2 1.4,-2.8 -0.05,-1.6 -1.7,-2.7 -1.8,-4.25 l -2.45,0.25 z"
             inkscape:connector-curvature="0"
             style="fill:#895254" />
        </g>
        <g
           id="drawingObject204">
          <path
             id="path205"
             d="m -12.449,-34.499 c -0.05,-1.6 -1.7,-2.7 -1.8,-4.25 l -2.45,0.25 c -0.85,0.5 -1.75,0.6 -2.85,1 1.25,-0.45 2.2,-0.1 2.9,0.95 1.45,2.2 1.6,3.35 0.5,6.05 -1.05,2.65 -3.25,6.85 -4,11.3 -0.75,4.45 -0.4,9.9 1.5,13.4 1.25,2.3 2.15,3.5 2.65,4.05 -0.85,-0.85 -2.65,-2.65 -2.7,-1.45 l -0.05,0.6 c 1.55,1.45 3.25,2.45 5.1,3 0.9,0.25 1.8,0.4 2.75,0.45 -1.45,-1.15 -2.8,-2.2 -4.05,-3.15 -1.25,-0.95 -2.3,-3.25 -3.25,-6.8 -0.95,-3.55 -1.35,-5.95 -1.2,-7.1 0.85,-6.85 4,-13.25 4.2,-13.4 0.5,-1 0.7,-1.15 1.35,-2.1 -0.1,-0.8 1.4,-2 1.4,-2.8 z"
             inkscape:connector-curvature="0"
             style="fill:#724446" />
          <path
             id="path206"
             d="m -19.599,-37.449 c -0.1,0 -0.2,0 -0.25,0.05 l 0.05,0 c 0.05,-0.05 0.15,-0.05 0.2,-0.05"
             inkscape:connector-curvature="0"
             style="fill:#724446" />
        </g>
      </g>
      <g
         id="element14">
        <g
           id="drawingObject205">
          <path
             id="path207"
             d="m 0.101,-32.899 c 0,0 -0.8,-9.4 -9.15,-6.75 q -2.15,0.7 -3.25,1.5 -2.3,1.65 -3.25,4.85 c -1.5,4.95 -0.95,17.15 1,22.5 3.9,10.85 9.9,12.8 9.9,12.8 0,0 -3.05,-2.25 -3.05,-8.7 0,-6.45 -0.5,-14.9 0.3,-17.75 0.85,-2.8 4,-7 6.5,-7.85 1.15,-0.4 1,-0.6 1,-0.6 z"
             inkscape:connector-curvature="0"
             style="fill:#9d5e60" />
        </g>
        <g
           id="drawingObject206">
          <path
             id="path208"
             d="m 0.101,-32.899 c 0,0 -0.8,-9.4 -9.15,-6.75 l -1.4,0.5 c 1.25,-0.15 2.55,0.05 3.55,1.05 2.85,2.95 -2.15,4.95 -2.3,7.45 -0.2,2.55 -0.85,6.65 -1,8.35 l -0.2,1.65 c 0,0 -0.8,-4.5 -0.65,-5.9 l 0.15,-1.95 -0.4,3.65 0.4,-3.65 c 0,0 -1.15,6.2 0.2,10.7 1.3,4.5 1.3,5.2 1.3,5.2 0,0 -2.3,-4.8 -2.65,-6.05 l -0.5,-1.85 0.2,2.2 -0.2,-2.2 c 0,0 0.15,3.65 1,6.5 0.4,1.4 0.6,3.05 0.55,4.55 0.8,3.65 1.6,5.15 1.35,6.95 -0.2,1.75 4.95,4.4 4.65,4.7 0.2,-0.3 -2.7,-3.35 -2.7,-8.9 0,-6.45 -0.5,-14.9 0.3,-17.75 0.85,-2.8 4,-7 6.5,-7.85 q 1.15,-0.4 1,-0.6 z"
             inkscape:connector-curvature="0"
             style="fill:#895254" />
        </g>
        <g
           id="drawingObject207">
          <path
             id="path209"
             d="m -12.199,-35.949 c 1.3,-0.85 2.5,-2.4 1.15,-2.15 q -0.9,0.2 -1.55,1.45 -0.65,1.3 0.4,0.7 z"
             inkscape:connector-curvature="0"
             style="fill:#b46a6c" />
        </g>
        <g
           id="drawingObject208">
          <path
             id="path210"
             d="m -11.399,-34.449 c 1.2,0.15 2.7,-2.1 2,-2.5 q -0.8,-0.55 -1.85,0.95 -1.05,1.45 -0.15,1.55 z"
             inkscape:connector-curvature="0"
             style="fill:#b46a6c" />
        </g>
        <g
           id="drawingObject209">
          <path
             id="path211"
             d="m -14.049,-31.899 c 1.5,0.45 0.85,-1.7 0.35,-2.4 q -0.4,-0.55 -0.9,0.85 -0.45,1.3 0.55,1.55 z"
             inkscape:connector-curvature="0"
             style="fill:#b46a6c" />
        </g>
        <g
           id="drawingObject210">
          <path
             id="path212"
             d="m -11.899,-30.899 c 1.2,0.4 1.35,-3.1 0.35,-2.25 q -0.6,0.5 -0.85,1.15 -0.25,0.8 0.5,1.1 z"
             inkscape:connector-curvature="0"
             style="fill:#b46a6c" />
        </g>
        <g
           id="drawingObject211">
          <path
             id="path213"
             d="m -14.549,-27.649 c 1,-0.15 0.85,-3.25 0,-2.85 q -0.45,0.2 -0.55,1.55 -0.15,1.35 0.55,1.3 z"
             inkscape:connector-curvature="0"
             style="fill:#b46a6c" />
        </g>
        <g
           id="drawingObject212">
          <path
             id="path214"
             d="m -12.899,-26.249 c 0.7,0 0.35,-4.25 0,-3.25 q -0.25,0.85 -0.35,1.95 -0.1,1.3 0.35,1.3 z"
             inkscape:connector-curvature="0"
             style="fill:#b46a6c" />
        </g>
        <g
           id="drawingObject213">
          <path
             id="path215"
             d="m -14.199,-22.199 c 1,0 -0.35,-2.5 -0.35,-3.35 q -0.65,3.35 0.35,3.35 z"
             inkscape:connector-curvature="0"
             style="fill:#b46a6c" />
        </g>
        <g
           id="drawingObject214">
          <path
             id="path216"
             d="m -9.549,-32.749 c 0.65,-0.4 1.15,-2.4 0,-1.25 q -0.4,0.35 -0.45,0.95 0,0.65 0.45,0.3 z"
             inkscape:connector-curvature="0"
             style="fill:#b46a6c" />
        </g>
        <g
           id="drawingObject215">
          <path
             id="path217"
             d="m -7.549,-35.399 c 1,-0.15 0.85,-2.1 0.35,-1.85 q -0.6,0.35 -0.8,1.15 -0.25,0.8 0.45,0.7 z"
             inkscape:connector-curvature="0"
             style="fill:#b46a6c" />
        </g>
        <g
           id="drawingObject216">
          <path
             id="path218"
             d="m -14.699,-33.749 0.8,-0.6 c 0,0 -1.55,0.95 -1.9,1.85 -0.2,0.7 -0.45,3.55 -0.55,4.95 0.15,-1.3 1.3,-2.3 1.7,-2.55 0.35,-0.25 0.55,0 0.8,0.05 0.25,0.05 0.45,0.2 0.75,0.4 0.3,0.15 0.55,-0.25 1.4,-0.1 0.8,0.2 1.6,1.45 2.45,3.7 l 0.45,3 c -0.25,0.75 -0.35,2.3 -0.25,4.65 0.25,5.95 0.1,14.2 0.65,17.7 2.1,2.55 3.9,2.75 3.65,2.95 -0.45,-0.75 -0.9,-1.65 -1.4,-2.6 -1.05,-2 -1.55,-4.1 -1.55,-6.35 0,-6.45 -0.5,-14.9 0.3,-17.75 0.85,-2.8 4,-7 6.5,-7.85 1.15,-0.4 2.2,-1.2 2.2,-1.2 0,0 -1.95,-7.95 -9.25,-6.45 q 1.95,0.35 3.25,1.6 c 2.5,2.35 1.3,4.9 0,6.75 -0.45,0.55 -1.05,1.35 -1.65,2.4 0.1,-0.85 0.2,-1.75 -0.35,-2.65 -0.65,-1 -7.2,-2.5 -7.2,-2.5 l 3.35,0.9"
             inkscape:connector-curvature="0"
             style="fill:#724446" />
        </g>
      </g>
      <g
         id="element15">
        <g
           id="drawingObject217">
          <path
             id="path219"
             d="m 12.851,-28.799 c 1.2,2.25 5,7.05 3.35,12.45 q -1.55,4.9 -1.7,9.65 c 0.4,0 0.85,0 1.25,0.1 l 0.4,0.15 c 1.05,-2.9 4.4,-9.15 4.9,-14.55 0.5,-5.7 -0.2,-18.6 -8.2,-20.5 -2.55,-0.65 -4.5,1.6 -4.8,4 -0.35,2.4 0.15,3.45 0.15,3.45 l 1.9,1.8 -1.9,-1.8 c 0,0 3.5,3 4.65,5.25 z"
             inkscape:connector-curvature="0"
             style="fill:#9d5e60" />
        </g>
        <g
           id="group21">
          <g
             id="drawingObject218">
            <path
               id="path220"
               d="m 12.851,-28.799 c 0.95,1.8 3.6,5.25 3.75,9.35 l 0.1,-3.95 c 0,-5.85 -4.35,-9.6 -6.5,-10.5 -1.05,-0.4 -1.75,-0.85 -2.25,-1.1 0.1,0.65 0.25,0.95 0.25,0.95 l 1.9,1.8 -1.9,-1.8 c 0,0 3.5,3 4.65,5.25 z"
               inkscape:connector-curvature="0"
               style="fill:#895254" />
          </g>
          <g
             id="drawingObject219">
            <path
               id="path221"
               d="m 21.051,-20.999 c 0.5,-5.7 -0.2,-18.6 -8.2,-20.5 q -2.6,-0.65 -4.1,1.95 c 1.1,-0.6 2.65,-0.8 4.45,1 3.5,3.6 5,8.55 5.15,13.2 0.2,4.65 0.15,7.05 -0.15,9 -0.35,1.95 -2.15,3.3 -2.15,3.3 0,0 0.25,-1.85 0.45,-4.7 l -0.3,1.4 c -1.65,5.4 -0.85,7.45 -2.5,11.85 -1.3,3.45 -4,5.75 -4,5.75 0,0 5.5,-4.6 6.35,-7.3 0.8,-2.7 4.5,-9.25 5,-14.95 z"
               inkscape:connector-curvature="0"
               style="fill:#895254" />
          </g>
        </g>
        <g
           id="drawingObject220">
          <path
             id="path222"
             d="m 16.051,-6.049 c 0.8,-2.7 4.5,-9.25 5,-14.95 q 0.5,-5.85 -0.8,-11.1 -1.75,-7.3 -6.4,-9.1 c 1.5,1.05 3.15,2.7 3.85,5.2 1.35,4.8 3.65,14.4 1.15,20.85 -2.4,6.15 -3.4,9.3 -4.05,5.15 -0.4,2.8 -0.3,4.05 -1.3,5.95 -1.8,3.55 -3.65,5.4 -3.65,5.4 0,0 5.35,-4.7 6.2,-7.4 z"
             inkscape:connector-curvature="0"
             style="fill:#724446" />
        </g>
        <g
           id="drawingObject221">
          <path
             id="path223"
             d="m 11.351,-36.899 c 0.85,1.2 2.5,0.9 1.35,-0.75 q -0.75,-1 -1.35,-0.6 -0.6,0.4 0,1.35 z"
             inkscape:connector-curvature="0"
             style="fill:#b46a6c" />
        </g>
        <g
           id="drawingObject222">
          <path
             id="path224"
             d="m 15.701,-32.699 c 0.35,-0.45 -0.35,-2.85 -1.65,-2.55 q -0.4,0.1 0.5,1.5 0.9,1.4 1.15,1.05 z"
             inkscape:connector-curvature="0"
             style="fill:#b46a6c" />
        </g>
        <g
           id="drawingObject223">
          <path
             id="path225"
             d="m 12.201,-34.049 c 0.85,0.9 1.8,0 0.5,-1.05 q -0.6,-0.45 -0.85,-0.05 -0.25,0.45 0.35,1.1 z"
             inkscape:connector-curvature="0"
             style="fill:#b46a6c" />
        </g>
        <g
           id="drawingObject224">
          <path
             id="path226"
             d="m 8.701,-35.549 c 1.35,0.45 1.35,-0.75 0.85,-1.5 q -0.4,-0.55 -1.1,0.35 -0.7,0.85 0.25,1.15 z"
             inkscape:connector-curvature="0"
             style="fill:#b46a6c" />
        </g>
        <g
           id="drawingObject225">
          <path
             id="path227"
             d="m 16.551,-27.449 c 0.65,0.45 0.5,-3.6 -0.7,-3.45 q -0.45,0.1 -0.15,1.6 0.3,1.5 0.85,1.85 z"
             inkscape:connector-curvature="0"
             style="fill:#b46a6c" />
        </g>
      </g>
      <g
         id="element16">
        <g
           id="drawingObject226">
          <path
             id="path228"
             d="m 18.701,-43.699 c 0.4,-0.15 0.8,-0.1 1.25,0.15 -0.4,-0.45 -1.2,-1.05 -2.4,-1.7 q -4.8,-2.6 -10.25,-2 c 0,0 6.3,5.2 6.9,5.5 0.55,0.35 3.65,3.85 3.65,3.85 l -0.25,-0.35 c -0.25,-0.3 -0.9,-2.65 -0.4,-4.15 0.2,-0.65 0.7,-1.05 1.5,-1.3 z"
             inkscape:connector-curvature="0"
             style="fill:#724446" />
        </g>
      </g>
      <g
         id="element17">
        <g
           id="drawingObject227">
          <path
             id="path229"
             d="m 10.801,-41.349 c 1,-0.25 -20.05,-5.65 -20.05,-5.65 q -2.4,0.65 -3.7,1 -2.45,0.7 -2.4,1.6 c 0.15,1.45 -0.6,3.3 -1.25,4.15 l -0.6,0.85 1.5,0.15 -1.5,-0.15 c 0,0 3,0 3.1,1.2 l 0.15,1.2 1.8,-1.25 -1.8,1.25 c 0,0 2.75,-2.65 6,-1.95 3.25,0.75 6.25,1.5 6.25,3.3 0,1.8 -1.65,5.2 -1.65,5.2 0,0 2,-2.3 4.65,-3.05 2.6,-0.7 4.75,-1.2 5.75,-0.45 l 0.55,0.375 0,0.025 c -0.1,-0.1 -0.2,-0.2 -0.25,-0.35 -0.35,-0.7 -0.25,-1.7 0.2,-2.95 1.1,-3.05 2.25,-4.25 3.25,-4.5 z"
             inkscape:connector-curvature="0"
             style="fill:#5d393a" />
        </g>
        <g
           id="drawingObject228">
          <path
             id="path230"
             d="m 15.701,-40.249 c -0.85,-1.05 -2.6,-2.1 -3.65,-2.25 -1.1,-0.15 -26.6,0.6 -26.6,0.6 q -0.8,0.35 -1.95,1.75 -1.2,1.3 -1.4,1.4 c -0.55,0.25 -1.75,0.95 -2.25,1.35 l -0.5,0.4 1.3,0.15 -1.3,-0.15 c 0,0 2.35,-0.15 3.2,1.75 0.8,1.95 1.2,3.05 1.3,4.75 l 0.1,1.7 c 0,0 0.15,-3.5 0.6,-4.2 0.4,-0.65 4.65,0.95 5.75,2.35 1.05,1.4 2.05,2.15 2.05,4.15 l 0,2 c 0,0 3,-5.55 4.75,-6.25 1.75,-0.65 10.35,-3.55 12.25,-1.9 1.95,1.65 2.2,2.15 2.2,2.15 0,0 -0.1,-3.3 1.8,-4.65 1.95,-1.35 3.6,-0.95 4.35,-0.85 0.75,0.1 1.5,0.45 1.15,-0.3 -0.3,-0.75 -2.35,-2.85 -3.15,-3.95 z"
             inkscape:connector-curvature="0"
             style="fill:#724446" />
        </g>
        <g
           id="drawingObject229">
          <path
             id="path231"
             d="m 17.601,-44.899 c 0.25,-0.05 0.55,0 0.9,0.15 -1.95,-1.5 -3.55,-2.3 -4.9,-2.4 -2,-0.15 -29.05,2.4 -29.05,2.4 l -2.25,4.75 c -0.25,0.75 -1.85,2.1 -1.85,2.1 l 1.15,1.2 -1.15,-1.2 c 0,0 2.1,1.95 2.85,3.6 0.75,1.65 0.8,2.15 0.8,2.15 l 0.85,-0.6 -0.85,0.6 c 0,0 0.95,-1.6 4,0.15 3.1,1.75 4.75,3.2 5,4 0.25,0.85 0.25,1.85 0.25,1.85 0,0 1.75,-3.4 2.85,-4 1.1,-0.6 6.15,-2 8,-2.1 1.85,-0.05 4.35,-1.25 5.15,-0.4 l 1.35,1.2 c 0.55,-1.45 1.45,-2.8 2.75,-4.05 2.1,-2 5,-1.65 5,-1.65 0,0 -2.35,-2.75 -2.75,-3.1 -0.4,-0.3 -0.35,0.2 -0.4,-0.3 l 0.05,0.25 -0.05,-0.25 c -0.1,-0.5 1.4,-2.9 1.5,-3.7 0.05,-0.3 0.3,-0.5 0.8,-0.65 z"
             inkscape:connector-curvature="0"
             style="fill:#583233" />
        </g>
      </g>
    </g>
    <g
       id="backHatOctopus_2_0">
      <g
         id="element2">
        <g
           id="drawingObject126">
          <path
             id="path126"
             d="m 17.451,-33.849 c 0,-2.1 2.7,-1.75 3.95,2.35 1.25,4.15 1.9,8.7 -0.5,16.25 -2.4,7.6 -4.25,10.5 -4.25,10.5 l 5.3,-6.8 c 0.5,-0.65 6.4,-13.95 3.25,-21.25 q -2.35,-5.3 -7.6,-10.35 -5.15,-4.9 -8.1,-4.9 c -3.8,0 -19.5,13.15 -19.5,13.15 -1.3,0 -4.15,0.4 -7.5,1.95 -3.3,1.55 -6,12.5 -5.4,16.7 0.6,4.25 4.85,13.2 6.2,14.25 0.85,0.7 2.9,1.65 6.05,2.9 -0.95,-0.45 -2.05,-1.35 -3.25,-2.65 -1.25,-1.35 -2.2,-3.25 -2.95,-5.7 -0.75,-2.45 -1.2,-4.75 -1.35,-6.9 -0.1,-1.85 0,-3.9 0.35,-6.15 0.6,-4.2 4.25,-8.6 4.25,-8.6 l -1.9,2.75 1.9,-2.75 1,5.75 -1,-5.75 c 0,0 1.95,10.95 2.1,13.2 0.2,2.25 2.75,9.85 3.35,11.95 0.6,2.1 3.5,5.9 3.5,5.9 0,0 -2.85,-5.75 -2.6,-9.85 0.25,-4.1 0,-12.35 0.2,-15.25 0.05,-1.65 0.95,-3.15 2.6,-4.6 3.15,1.15 5.95,1.6 8.4,1.3 2.45,-0.3 4.25,-1 5.5,-2.15 1.2,-1.15 2.2,-1.15 2.95,-0.05 4.2,5.95 4.4,11.5 4.35,14.3 0.15,-3.3 0.35,-9.8 0.7,-19.5 z"
             inkscape:connector-curvature="0"
             style="fill:#000000;fill-opacity:0.29800002" />
        </g>
      </g>
      <g
         id="element3">
        <g
           id="group6">
          <g
             id="drawingObject127">
            <path
               id="path127"
               d="m -9.299,-43.699 c -0.65,-0.4 0.75,0.05 0.2,-0.45 -0.2,0.2 -1.9,-0.5 -1.9,-0.5 0,0 -3.45,-0.65 -8.8,1.45 q -3.25,1.3 -5.55,4.4 -1.8,2.4 -3.3,6.35 c -1.65,4.5 -0.6,15.1 0.6,17.75 1.25,2.6 2.35,3.85 4.15,5.7 2.75,2.75 6.85,2.95 6.85,2.95 0,0 -1.75,-0.75 -2.9,-2.95 -1.45,-2.75 -3.3,-4.55 -4.45,-7.3 -1,-2.35 -1.65,-8.4 -1.2,-11.25 0.45,-2.9 4.6,-10.8 10.55,-11.55 1.85,-0.25 3.9,-0.45 6.4,0.05 l -0.65,-4.65 z"
               inkscape:connector-curvature="0"
               style="fill:#9d5e60" />
          </g>
          <g
             id="drawingObject128">
            <path
               id="path128"
               d="m -24.299,-37.549 c 0.55,-0.8 1.3,-1.3 2.75,-2.4 1.5,-1.2 3.35,-2.7 4.5,-3.05 1.15,-0.3 2.6,-0.55 2.75,-0.75 q 0.1,-0.15 -0.4,-0.25 -0.6,-0.1 -1.2,0.05 c -3.3,0.65 -5.5,2.4 -6.35,3.25 -0.45,0.45 -1.1,1.5 -2.05,3.15 z"
               inkscape:connector-curvature="0"
               style="fill:#b46b6f" />
          </g>
          <g
             id="drawingObject129">
            <path
               id="path129"
               d="m -27.699,-30.949 0.25,-1.2 c -0.1,0.2 -0.6,0.7 -0.85,1.3 -0.2,0.6 -0.2,1.05 -0.2,1.65 0,0.6 -0.1,0.65 -0.1,1.5 0,0.85 0,1.65 0.45,2.9 0.15,0.3 0.25,-0.85 0.45,-1.75 0.25,-0.95 0,-1.15 0,-1.65 l 0,-2.75 z"
               inkscape:connector-curvature="0"
               style="fill:#b46b6f" />
          </g>
          <g
             id="drawingObject130">
            <path
               id="path130"
               d="m -27.699,-15.949 c 0.25,0.45 1.05,0.85 0.85,0.55 -0.2,-0.25 -0.15,-0.8 -0.35,-1.2 -0.25,-0.4 -0.35,-0.65 -0.55,-1.5 l -0.4,-1.45 -0.15,2.05 q 0,0.4 0.25,0.85 0.1,0.25 0.35,0.7 z"
               inkscape:connector-curvature="0"
               style="fill:#834f53" />
          </g>
          <g
             id="drawingObject131">
            <path
               id="path131"
               d="m -9.299,-43.699 c -0.65,-0.4 0.75,0.05 0.2,-0.45 q -0.2,0.2 -1.9,-0.5 c 0,0 -2.8,-0.55 -7.3,0.9 0.2,0.7 0.4,1.55 -0.1,1.85 -0.8,0.55 -5.3,5.3 -6.65,8.05 -1.35,2.75 -2.35,8.05 -2.1,11.15 0.25,3.1 0.85,6.4 1.45,7.55 0.55,1.15 0.75,1.4 0.75,1.4 0,0 -1.1,-0.95 -1,-0.2 0.05,0.75 0.3,1.5 0.3,1.5 0,0 -1.15,-1.1 -1.25,-0.6 0,0.1 -0.05,0.15 -0.15,0.25 0.9,1.45 1.85,2.45 3.15,3.8 2.75,2.75 6.85,2.95 6.85,2.95 0,0 -1.75,-0.75 -2.9,-2.95 -1.45,-2.75 -3.3,-4.55 -4.45,-7.3 -1,-2.35 -1.65,-8.4 -1.2,-11.25 0.45,-2.9 4.6,-10.8 10.55,-11.55 1.85,-0.25 3.9,-0.45 6.4,0.05 l -0.65,-4.65 z"
               inkscape:connector-curvature="0"
               style="fill:#895254" />
          </g>
        </g>
      </g>
      <g
         id="element4">
        <g
           id="drawingObject132">
          <path
             id="path132"
             d="m 12.401,-40.749 c 5.95,0.9 10.25,9.9 10.5,13.2 1.35,15.95 -7.7,24.1 -7.7,24.1 1.45,-0.75 3.3,-2.1 5.5,-4 2.2,-1.95 3.65,-3.85 4.35,-5.7 0.65,-1.9 1.2,-5.1 1.55,-9.65 0.35,-4.55 0.1,-8 -0.65,-10.3 q -1.45,-4.5 -3.25,-7.25 -2.3,-3.5 -5.6,-5 c -5.35,-2.45 -8.75,-1.7 -8.75,-1.7 l 2.35,-0.05 -2.35,0.05 c 0,0 -1.75,0.8 -1.9,0.6 -0.6,0.55 0.8,0.05 0.2,0.5 l -0.7,5.3 c 2.5,-0.55 4.55,-0.35 6.45,-0.1 z"
             inkscape:connector-curvature="0"
             style="fill:#9d5e60" />
        </g>
        <g
           id="drawingObject133">
          <path
             id="path133"
             d="m 16.401,-42.849 c -0.7,-0.9 -3.75,-2.2 -5.65,-2.75 -0.15,-0.05 -0.35,-0.15 -0.85,-0.35 -0.25,-0.15 -0.7,-0.45 -1.45,-0.9 l -0.05,0.05 c -0.2,0.15 -0.5,0.3 -0.85,0.45 -0.45,0.15 -0.75,0.25 -0.9,0.4 l -0.7,5.3 c 2.5,-0.55 4.55,-0.35 6.45,-0.1 5.95,0.9 10.15,9.9 10.5,13.2 1.45,14.05 -7.45,23.95 -7.45,23.95 1.5,-0.8 3,-1.9 4.45,-3.25 1.45,-1.4 2.7,-2.8 3.75,-4.25 1.05,-1.45 1.5,-3.2 1.4,-5.25 -0.15,-2.1 -0.2,-3.65 -0.2,-4.6 q 0,-2 -0.45,-4.15 -0.45,-2.15 -0.45,-2.7 l 0,-3.7 -0.35,0.9 -0.25,-2.15 c -0.2,-2.15 -2.5,-5.5 -3.85,-6.75 -1.1,-0.95 -3,-2.5 -3.95,-3.15 l 1.5,0.7 -0.65,-0.9 z"
             inkscape:connector-curvature="0"
             style="fill:#895254" />
        </g>
        <g
           id="drawingObject134">
          <path
             id="path134"
             d="m 14.601,-44.949 c 1.15,0.4 3,2.1 4.5,3.45 1.55,1.35 2.3,1.95 2.8,2.8 -0.95,-1.95 -1.65,-3.15 -2.1,-3.6 -0.85,-1 -3.05,-3 -6.35,-3.75 q -0.65,-0.15 -1.2,-0.05 -0.5,0.1 -0.4,0.25 c 0.15,0.25 1.6,0.55 2.75,0.9 z"
             inkscape:connector-curvature="0"
             style="fill:#b46b6f" />
        </g>
        <g
           id="drawingObject135">
          <path
             id="path135"
             d="m 24.751,-32.749 0.25,1.3 0,3.15 c 0,0.6 -0.25,0.85 0,1.9 0.25,1.05 0.35,2.35 0.45,2 0.45,-1.4 0.45,-2.3 0.45,-3.3 l -0.05,-1.7 c 0,-0.7 0,-1.2 -0.25,-1.85 -0.2,-0.7 -0.75,-1.3 -0.85,-1.5 z"
             inkscape:connector-curvature="0"
             style="fill:#b46b6f" />
        </g>
        <g
           id="drawingObject136">
          <path
             id="path136"
             d="m 25.601,-16.099 -0.15,-2.3 -0.35,1.65 c -0.25,0.95 -0.35,1.25 -0.55,1.7 -0.25,0.45 -0.15,1.05 -0.35,1.4 -0.25,0.3 0.55,-0.1 0.8,-0.65 q 0.6,-1.2 0.6,-1.8 z"
             inkscape:connector-curvature="0"
             style="fill:#834f53" />
        </g>
        <g
           id="drawingObject137">
          <path
             id="path137"
             d="m 13.251,-40.249 c 5.5,1.9 8.1,8.1 8.1,8.1 0,0 -0.55,-2.35 -2.5,-5.6 -1.95,-3.3 -5.95,-4.75 -5.95,-4.75 l 2.25,1.15 -2.25,-1.15 0.8,-0.55 c 0,0 -0.8,0 -2.65,-1.25 -1.8,-1.2 0.35,-2.7 0.35,-2.7 0,0 -1.25,-0.3 -2.85,0.1 q -1,0.25 -2.3,1.55 l -1.15,1.2 0.15,1.65 -0.15,-1.65 c 0,0 0,3.25 1.05,3.35 1,0.1 3.75,-0.6 7.1,0.55 z"
             inkscape:connector-curvature="0"
             style="fill:#724446" />
        </g>
      </g>
      <g
         id="element5">
        <g
           id="drawingObject138">
          <path
             id="path138"
             d="m -14.249,-38.749 -2.45,0.25 c -0.95,0.55 -2.05,0.6 -3.1,1.1 -1.2,1 -3.8,3.95 -4.85,6.05 -1.2,2.45 -1.05,9 -1,12.55 0.05,3.2 1.35,5.55 2.05,8.05 0.7,2.55 1.7,5.1 4.55,7.85 3.85,3.75 7.65,3.7 7.65,3.7 0,0 -2.75,-1.55 -4.55,-3.35 -1.75,-1.7 -3.65,-11.7 -3.45,-13.65 0.85,-6.85 4,-13.25 4.2,-13.4 0.5,-1 0.7,-1.15 1.35,-2.1 -0.1,-0.8 1.4,-2 1.4,-2.8 -0.05,-1.6 -1.7,-2.7 -1.8,-4.25 z"
             inkscape:connector-curvature="0"
             style="fill:#9d5e60" />
        </g>
        <g
           id="drawingObject139">
          <path
             id="path139"
             d="m -19.199,-36.199 c 0.2,-0.35 -1.3,0.75 -1.3,0.75 q -0.05,0.05 -0.25,0.4 -0.15,0.2 -0.55,0.55 c -0.65,0.6 -1.05,0.5 -1.25,0.95 -0.2,0.4 -0.3,0.95 -0.3,0.95 l 0.9,-0.6 c 0.45,-0.25 -0.1,-0.25 0.75,-0.7 0.9,-0.4 1.4,-0.6 1.6,-1.2 0.2,-0.6 0.2,-0.75 0.4,-1.1 z"
             inkscape:connector-curvature="0"
             style="fill:#b46a6c" />
        </g>
        <g
           id="drawingObject140">
          <path
             id="path140"
             d="m -20.899,-32.849 -0.3,-0.3 q -0.25,0.3 -0.5,0.7 -0.25,0.45 -0.05,0.5 c 0.25,0.1 0.45,0 0.85,-0.35 0.4,-0.3 -0.3,-0.85 -0.3,-0.85"
             inkscape:connector-curvature="0"
             style="fill:#b46a6c" />
        </g>
        <g
           id="drawingObject141">
          <path
             id="path141"
             d="m -23.949,-31.099 c 0.8,0 0.6,-1.25 0.2,-0.9 q -0.4,0.3 -0.55,0.55 -0.2,0.35 0.35,0.35 z"
             inkscape:connector-curvature="0"
             style="fill:#b46a6c" />
        </g>
        <g
           id="drawingObject142">
          <path
             id="path142"
             d="m -23.949,-25.399 0.4,-0.55 c 0,0 -0.8,0.9 -0.9,1.85 l 0,1.45 c 0,0.5 0.8,3.05 0.9,3.75 0.1,0.7 0.3,1.35 0.3,2.05 l 0.1,1.7 0.5,1 -0.1,-2.8 c 0,-0.7 -0.1,-2.1 -0.2,-2.55 -0.1,-0.45 -0.9,-2.9 -0.9,-3.75 0,-0.85 0.1,-1.2 0.2,-1.7 l 0.1,-1"
             inkscape:connector-curvature="0"
             style="fill:#b46a6c" />
        </g>
        <g
           id="drawingObject143">
          <path
             id="path143"
             d="m -18.649,-34.249 0,-0.3 q -0.35,0 -0.65,0.2 l -0.85,0.65 -0.25,0.25 0.25,-0.25 c 0,0 -0.75,0.5 0.05,0.3 0.8,-0.15 1,0 1.25,-0.3 0.25,-0.3 0.2,-0.85 0.2,-0.85"
             inkscape:connector-curvature="0"
             style="fill:#b46a6c" />
        </g>
        <g
           id="drawingObject144">
          <path
             id="path144"
             d="m -19.199,-31.249 c 0.2,-0.2 0.4,-1.5 -0.1,-1.35 q -0.65,0.15 -0.75,0.35 c -0.15,0.25 -0.4,1.15 -0.15,1.15 0.25,0 0.8,0.05 1,-0.15 z"
             inkscape:connector-curvature="0"
             style="fill:#b46a6c" />
        </g>
        <g
           id="drawingObject145">
          <path
             id="path145"
             d="m -22.699,-30.449 c 0.5,-0.2 0.6,-1.2 0.6,-1.2 q -0.5,-0.2 -0.5,-0.15 c 0,0.1 -0.15,0.35 -0.3,0.5 -0.15,0.2 -0.3,1.05 0.2,0.85 z"
             inkscape:connector-curvature="0"
             style="fill:#b46a6c" />
        </g>
        <g
           id="drawingObject146">
          <path
             id="path146"
             d="m -21.499,-29.899 c 0.35,-0.35 0.6,-1.55 0.05,-1.25 q -0.3,0.2 -0.45,0.65 -0.1,0.35 -0.05,0.55 c 0,0.1 0.1,0.4 0.45,0.05 z"
             inkscape:connector-curvature="0"
             style="fill:#b46a6c" />
        </g>
        <g
           id="drawingObject147">
          <path
             id="path147"
             d="m -23.949,-29.549 c 0.2,-0.15 0.05,-0.9 -0.2,-0.75 q -0.5,0.2 -0.4,0.55 c 0.05,0.2 0.4,0.35 0.6,0.2 z"
             inkscape:connector-curvature="0"
             style="fill:#b46a6c" />
        </g>
        <g
           id="drawingObject148">
          <path
             id="path148"
             d="m -22.249,-29.299 c 0,-0.1 -0.2,-0.65 -0.4,-0.4 q -0.25,0.55 0,0.6 c 0.25,0 0.4,-0.05 0.4,-0.2 z"
             inkscape:connector-curvature="0"
             style="fill:#b46a6c" />
        </g>
        <g
           id="drawingObject149">
          <path
             id="path149"
             d="m -22.749,-24.199 0.35,-1 c 0.05,-0.25 -0.3,-0.45 -0.5,-0.3 q -0.25,0.15 -0.25,0.4 0,0.15 0.05,0.5 c -0.05,0.35 0.05,0.9 0.05,0.9 0,0 0.15,0.05 0.3,-0.5 z"
             inkscape:connector-curvature="0"
             style="fill:#b46a6c" />
        </g>
        <g
           id="drawingObject150">
          <path
             id="path150"
             d="m -22.449,-20.649 -0.2,-0.75 -0.15,0.4 c 0,0.2 0.3,0.5 0.35,0.35 z"
             inkscape:connector-curvature="0"
             style="fill:#b46a6c" />
        </g>
        <g
           id="drawingObject151">
          <path
             id="path151"
             d="m -16.699,-38.499 c -0.95,0.55 -2.05,0.6 -3.1,1.1 -0.3,0.25 -0.7,0.6 -1.1,1.05 1.45,-0.8 2.6,-1.4 3.75,1 1.45,2.9 -0.8,5.15 -1.8,7.6 -1,2.45 -2.8,5.8 -2.7,9.35 0.1,3.6 0.7,6.8 0.7,7.9 l 0,1.15 c 0,0 -1.1,-2.4 -1.25,-1.65 -0.2,0.75 -0.1,1.4 -0.1,1.4 0,0 -0.9,-1.35 -0.9,-0.65 l -0.1,0.55 c 0.7,2.2 1.8,4.45 4.25,6.8 3.85,3.75 7.65,3.7 7.65,3.7 0,0 -2.75,-1.55 -4.55,-3.35 q -1.2,-1.15 -2.45,-6.75 -1.2,-5.15 -1,-6.9 c 0.85,-6.85 4,-13.25 4.2,-13.4 0.5,-1 0.7,-1.15 1.35,-2.1 -0.1,-0.8 1.4,-2 1.4,-2.8 -0.05,-1.6 -1.7,-2.7 -1.8,-4.25 l -2.45,0.25 z"
             inkscape:connector-curvature="0"
             style="fill:#895254" />
        </g>
        <g
           id="drawingObject152">
          <path
             id="path152"
             d="m -12.449,-34.499 c -0.05,-1.6 -1.7,-2.7 -1.8,-4.25 l -2.45,0.25 c -0.85,0.5 -1.75,0.6 -2.85,1 1.25,-0.45 2.2,-0.1 2.9,0.95 1.45,2.2 1.6,3.35 0.5,6.05 -1.05,2.65 -3.25,6.85 -4,11.3 -0.75,4.45 -0.4,9.9 1.5,13.4 1.25,2.3 2.15,3.5 2.65,4.05 -0.85,-0.85 -2.65,-2.65 -2.7,-1.45 l -0.05,0.6 c 1.55,1.45 3.25,2.45 5.1,3 0.9,0.25 1.8,0.4 2.75,0.45 -1.45,-1.15 -2.8,-2.2 -4.05,-3.15 -1.25,-0.95 -2.3,-3.25 -3.25,-6.8 -0.95,-3.55 -1.35,-5.95 -1.2,-7.1 0.85,-6.85 4,-13.25 4.2,-13.4 0.5,-1 0.7,-1.15 1.35,-2.1 -0.1,-0.8 1.4,-2 1.4,-2.8 z"
             inkscape:connector-curvature="0"
             style="fill:#724446" />
          <path
             id="path153"
             d="m -19.599,-37.449 c -0.1,0 -0.2,0 -0.25,0.05 l 0.05,0 c 0.05,-0.05 0.15,-0.05 0.2,-0.05"
             inkscape:connector-curvature="0"
             style="fill:#724446" />
        </g>
      </g>
      <g
         id="element6">
        <g
           id="drawingObject153">
          <path
             id="path154"
             d="m 0.101,-32.899 c 0,0 -0.8,-9.4 -9.15,-6.75 q -2.15,0.7 -3.25,1.5 -2.3,1.65 -3.25,4.85 c -1.5,4.95 -0.95,17.15 1,22.5 3.9,10.85 9.9,12.8 9.9,12.8 0,0 -3.05,-2.25 -3.05,-8.7 0,-6.45 -0.5,-14.9 0.3,-17.75 0.85,-2.8 4,-7 6.5,-7.85 1.15,-0.4 1,-0.6 1,-0.6 z"
             inkscape:connector-curvature="0"
             style="fill:#9d5e60" />
        </g>
        <g
           id="drawingObject154">
          <path
             id="path155"
             d="m 0.101,-32.899 c 0,0 -0.8,-9.4 -9.15,-6.75 l -1.4,0.5 c 1.25,-0.15 2.55,0.05 3.55,1.05 2.85,2.95 -2.15,4.95 -2.3,7.45 -0.2,2.55 -0.85,6.65 -1,8.35 l -0.2,1.65 c 0,0 -0.8,-4.5 -0.65,-5.9 l 0.15,-1.95 -0.4,3.65 0.4,-3.65 c 0,0 -1.15,6.2 0.2,10.7 1.3,4.5 1.3,5.2 1.3,5.2 0,0 -2.3,-4.8 -2.65,-6.05 l -0.5,-1.85 0.2,2.2 -0.2,-2.2 c 0,0 0.15,3.65 1,6.5 0.4,1.4 0.6,3.05 0.55,4.55 0.8,3.65 1.6,5.15 1.35,6.95 -0.2,1.75 4.95,4.4 4.65,4.7 0.2,-0.3 -2.7,-3.35 -2.7,-8.9 0,-6.45 -0.5,-14.9 0.3,-17.75 0.85,-2.8 4,-7 6.5,-7.85 q 1.15,-0.4 1,-0.6 z"
             inkscape:connector-curvature="0"
             style="fill:#895254" />
        </g>
        <g
           id="drawingObject155">
          <path
             id="path156"
             d="m -12.199,-35.949 c 1.3,-0.85 2.5,-2.4 1.15,-2.15 q -0.9,0.2 -1.55,1.45 -0.65,1.3 0.4,0.7 z"
             inkscape:connector-curvature="0"
             style="fill:#b46a6c" />
        </g>
        <g
           id="drawingObject156">
          <path
             id="path157"
             d="m -11.399,-34.449 c 1.2,0.15 2.7,-2.1 2,-2.5 q -0.8,-0.55 -1.85,0.95 -1.05,1.45 -0.15,1.55 z"
             inkscape:connector-curvature="0"
             style="fill:#b46a6c" />
        </g>
        <g
           id="drawingObject157">
          <path
             id="path158"
             d="m -14.049,-31.899 c 1.5,0.45 0.85,-1.7 0.35,-2.4 q -0.4,-0.55 -0.9,0.85 -0.45,1.3 0.55,1.55 z"
             inkscape:connector-curvature="0"
             style="fill:#b46a6c" />
        </g>
        <g
           id="drawingObject158">
          <path
             id="path159"
             d="m -11.899,-30.899 c 1.2,0.4 1.35,-3.1 0.35,-2.25 q -0.6,0.5 -0.85,1.15 -0.25,0.8 0.5,1.1 z"
             inkscape:connector-curvature="0"
             style="fill:#b46a6c" />
        </g>
        <g
           id="drawingObject159">
          <path
             id="path160"
             d="m -14.549,-27.649 c 1,-0.15 0.85,-3.25 0,-2.85 q -0.45,0.2 -0.55,1.55 -0.15,1.35 0.55,1.3 z"
             inkscape:connector-curvature="0"
             style="fill:#b46a6c" />
        </g>
        <g
           id="drawingObject160">
          <path
             id="path161"
             d="m -12.899,-26.249 c 0.7,0 0.35,-4.25 0,-3.25 q -0.25,0.85 -0.35,1.95 -0.1,1.3 0.35,1.3 z"
             inkscape:connector-curvature="0"
             style="fill:#b46a6c" />
        </g>
        <g
           id="drawingObject161">
          <path
             id="path162"
             d="m -14.199,-22.199 c 1,0 -0.35,-2.5 -0.35,-3.35 q -0.65,3.35 0.35,3.35 z"
             inkscape:connector-curvature="0"
             style="fill:#b46a6c" />
        </g>
        <g
           id="drawingObject162">
          <path
             id="path163"
             d="m -9.549,-32.749 c 0.65,-0.4 1.15,-2.4 0,-1.25 q -0.4,0.35 -0.45,0.95 0,0.65 0.45,0.3 z"
             inkscape:connector-curvature="0"
             style="fill:#b46a6c" />
        </g>
        <g
           id="drawingObject163">
          <path
             id="path164"
             d="m -7.549,-35.399 c 1,-0.15 0.85,-2.1 0.35,-1.85 q -0.6,0.35 -0.8,1.15 -0.25,0.8 0.45,0.7 z"
             inkscape:connector-curvature="0"
             style="fill:#b46a6c" />
        </g>
        <g
           id="drawingObject164">
          <path
             id="path165"
             d="m -14.699,-33.749 0.8,-0.6 c 0,0 -1.55,0.95 -1.9,1.85 -0.2,0.7 -0.45,3.55 -0.55,4.95 0.15,-1.3 1.3,-2.3 1.7,-2.55 0.35,-0.25 0.55,0 0.8,0.05 0.25,0.05 0.45,0.2 0.75,0.4 0.3,0.15 0.55,-0.25 1.4,-0.1 0.8,0.2 1.6,1.45 2.45,3.7 l 0.45,3 c -0.25,0.75 -0.35,2.3 -0.25,4.65 0.25,5.95 0.1,14.2 0.65,17.7 2.1,2.55 3.9,2.75 3.65,2.95 -0.45,-0.75 -0.9,-1.65 -1.4,-2.6 -1.05,-2 -1.55,-4.1 -1.55,-6.35 0,-6.45 -0.5,-14.9 0.3,-17.75 0.85,-2.8 4,-7 6.5,-7.85 1.15,-0.4 2.2,-1.2 2.2,-1.2 0,0 -1.95,-7.95 -9.25,-6.45 q 1.95,0.35 3.25,1.6 c 2.5,2.35 1.3,4.9 0,6.75 -0.45,0.55 -1.05,1.35 -1.65,2.4 0.1,-0.85 0.2,-1.75 -0.35,-2.65 -0.65,-1 -7.2,-2.5 -7.2,-2.5 l 3.35,0.9"
             inkscape:connector-curvature="0"
             style="fill:#724446" />
        </g>
      </g>
      <g
         id="element7">
        <g
           id="drawingObject165">
          <path
             id="path166"
             d="m 12.851,-28.799 c 1.2,2.25 5,7.05 3.35,12.45 q -1.55,4.9 -1.7,9.65 c 0.4,0 0.85,0 1.25,0.1 l 0.4,0.15 c 1.05,-2.9 4.4,-9.15 4.9,-14.55 0.5,-5.7 -0.2,-18.6 -8.2,-20.5 -2.55,-0.65 -4.5,1.6 -4.8,4 -0.35,2.4 0.15,3.45 0.15,3.45 l 1.9,1.8 -1.9,-1.8 c 0,0 3.5,3 4.65,5.25 z"
             inkscape:connector-curvature="0"
             style="fill:#9d5e60" />
        </g>
        <g
           id="group11">
          <g
             id="drawingObject166">
            <path
               id="path167"
               d="m 12.851,-28.799 c 0.95,1.8 3.6,5.25 3.75,9.35 l 0.1,-3.95 c 0,-5.85 -4.35,-9.6 -6.5,-10.5 -1.05,-0.4 -1.75,-0.85 -2.25,-1.1 0.1,0.65 0.25,0.95 0.25,0.95 l 1.9,1.8 -1.9,-1.8 c 0,0 3.5,3 4.65,5.25 z"
               inkscape:connector-curvature="0"
               style="fill:#895254" />
          </g>
          <g
             id="drawingObject167">
            <path
               id="path168"
               d="m 21.051,-20.999 c 0.5,-5.7 -0.2,-18.6 -8.2,-20.5 q -2.6,-0.65 -4.1,1.95 c 1.1,-0.6 2.65,-0.8 4.45,1 3.5,3.6 5,8.55 5.15,13.2 0.2,4.65 0.15,7.05 -0.15,9 -0.35,1.95 -2.15,3.3 -2.15,3.3 0,0 0.25,-1.85 0.45,-4.7 l -0.3,1.4 c -1.65,5.4 -0.85,7.45 -2.5,11.85 -1.3,3.45 -4,5.75 -4,5.75 0,0 5.5,-4.6 6.35,-7.3 0.8,-2.7 4.5,-9.25 5,-14.95 z"
               inkscape:connector-curvature="0"
               style="fill:#895254" />
          </g>
        </g>
        <g
           id="drawingObject168">
          <path
             id="path169"
             d="m 16.051,-6.049 c 0.8,-2.7 4.5,-9.25 5,-14.95 q 0.5,-5.85 -0.8,-11.1 -1.75,-7.3 -6.4,-9.1 c 1.5,1.05 3.15,2.7 3.85,5.2 1.35,4.8 3.65,14.4 1.15,20.85 -2.4,6.15 -3.4,9.3 -4.05,5.15 -0.4,2.8 -0.3,4.05 -1.3,5.95 -1.8,3.55 -3.65,5.4 -3.65,5.4 0,0 5.35,-4.7 6.2,-7.4 z"
             inkscape:connector-curvature="0"
             style="fill:#724446" />
        </g>
        <g
           id="drawingObject169">
          <path
             id="path170"
             d="m 11.351,-36.899 c 0.85,1.2 2.5,0.9 1.35,-0.75 q -0.75,-1 -1.35,-0.6 -0.6,0.4 0,1.35 z"
             inkscape:connector-curvature="0"
             style="fill:#b46a6c" />
        </g>
        <g
           id="drawingObject170">
          <path
             id="path171"
             d="m 15.701,-32.699 c 0.35,-0.45 -0.35,-2.85 -1.65,-2.55 q -0.4,0.1 0.5,1.5 0.9,1.4 1.15,1.05 z"
             inkscape:connector-curvature="0"
             style="fill:#b46a6c" />
        </g>
        <g
           id="drawingObject171">
          <path
             id="path172"
             d="m 12.201,-34.049 c 0.85,0.9 1.8,0 0.5,-1.05 q -0.6,-0.45 -0.85,-0.05 -0.25,0.45 0.35,1.1 z"
             inkscape:connector-curvature="0"
             style="fill:#b46a6c" />
        </g>
        <g
           id="drawingObject172">
          <path
             id="path173"
             d="m 8.701,-35.549 c 1.35,0.45 1.35,-0.75 0.85,-1.5 q -0.4,-0.55 -1.1,0.35 -0.7,0.85 0.25,1.15 z"
             inkscape:connector-curvature="0"
             style="fill:#b46a6c" />
        </g>
        <g
           id="drawingObject173">
          <path
             id="path174"
             d="m 16.551,-27.449 c 0.65,0.45 0.5,-3.6 -0.7,-3.45 q -0.45,0.1 -0.15,1.6 0.3,1.5 0.85,1.85 z"
             inkscape:connector-curvature="0"
             style="fill:#b46a6c" />
        </g>
      </g>
      <g
         id="element8">
        <g
           id="drawingObject174">
          <path
             id="path175"
             d="m 18.701,-43.699 c 0.4,-0.15 0.8,-0.1 1.25,0.15 -0.4,-0.45 -1.2,-1.05 -2.4,-1.7 q -4.8,-2.6 -10.25,-2 c 0,0 6.3,5.2 6.9,5.5 0.55,0.35 3.65,3.85 3.65,3.85 l -0.25,-0.35 c -0.25,-0.3 -0.9,-2.65 -0.4,-4.15 0.2,-0.65 0.7,-1.05 1.5,-1.3 z"
             inkscape:connector-curvature="0"
             style="fill:#724446" />
        </g>
      </g>
      <g
         id="element9">
        <g
           id="drawingObject175">
          <path
             id="path176"
             d="m 10.801,-41.349 c 1,-0.25 -20.05,-5.65 -20.05,-5.65 q -2.4,0.65 -3.7,1 -2.45,0.7 -2.4,1.6 c 0.15,1.45 -0.6,3.3 -1.25,4.15 l -0.6,0.85 1.5,0.15 -1.5,-0.15 c 0,0 3,0 3.1,1.2 l 0.15,1.2 1.8,-1.25 -1.8,1.25 c 0,0 2.75,-2.65 6,-1.95 3.25,0.75 6.25,1.5 6.25,3.3 0,1.8 -1.65,5.2 -1.65,5.2 0,0 2,-2.3 4.65,-3.05 2.6,-0.7 4.75,-1.2 5.75,-0.45 l 0.55,0.375 0,0.025 c -0.1,-0.1 -0.2,-0.2 -0.25,-0.35 -0.35,-0.7 -0.25,-1.7 0.2,-2.95 1.1,-3.05 2.25,-4.25 3.25,-4.5 z"
             inkscape:connector-curvature="0"
             style="fill:#5d393a" />
        </g>
        <g
           id="drawingObject176">
          <path
             id="path177"
             d="m 15.701,-40.249 c -0.85,-1.05 -2.6,-2.1 -3.65,-2.25 -1.1,-0.15 -26.6,0.6 -26.6,0.6 q -0.8,0.35 -1.95,1.75 -1.2,1.3 -1.4,1.4 c -0.55,0.25 -1.75,0.95 -2.25,1.35 l -0.5,0.4 1.3,0.15 -1.3,-0.15 c 0,0 2.35,-0.15 3.2,1.75 0.8,1.95 1.2,3.05 1.3,4.75 l 0.1,1.7 c 0,0 0.15,-3.5 0.6,-4.2 0.4,-0.65 4.65,0.95 5.75,2.35 1.05,1.4 2.05,2.15 2.05,4.15 l 0,2 c 0,0 3,-5.55 4.75,-6.25 1.75,-0.65 10.35,-3.55 12.25,-1.9 1.95,1.65 2.2,2.15 2.2,2.15 0,0 -0.1,-3.3 1.8,-4.65 1.95,-1.35 3.6,-0.95 4.35,-0.85 0.75,0.1 1.5,0.45 1.15,-0.3 -0.3,-0.75 -2.35,-2.85 -3.15,-3.95 z"
             inkscape:connector-curvature="0"
             style="fill:#724446" />
        </g>
        <g
           id="drawingObject177">
          <path
             id="path178"
             d="m 17.601,-44.899 c 0.25,-0.05 0.55,0 0.9,0.15 -1.95,-1.5 -3.55,-2.3 -4.9,-2.4 -2,-0.15 -29.05,2.4 -29.05,2.4 l -2.25,4.75 c -0.25,0.75 -1.85,2.1 -1.85,2.1 l 1.15,1.2 -1.15,-1.2 c 0,0 2.1,1.95 2.85,3.6 0.75,1.65 0.8,2.15 0.8,2.15 l 0.85,-0.6 -0.85,0.6 c 0,0 0.95,-1.6 4,0.15 3.1,1.75 4.75,3.2 5,4 0.25,0.85 0.25,1.85 0.25,1.85 0,0 1.75,-3.4 2.85,-4 1.1,-0.6 6.15,-2 8,-2.1 1.85,-0.05 4.35,-1.25 5.15,-0.4 l 1.35,1.2 c 0.55,-1.45 1.45,-2.8 2.75,-4.05 2.1,-2 5,-1.65 5,-1.65 0,0 -2.35,-2.75 -2.75,-3.1 -0.4,-0.3 -0.35,0.2 -0.4,-0.3 l 0.05,0.25 -0.05,-0.25 c -0.1,-0.5 1.4,-2.9 1.5,-3.7 0.05,-0.3 0.3,-0.5 0.8,-0.65 z"
             inkscape:connector-curvature="0"
             style="fill:#583233" />
        </g>
      </g>
    </g>
    <g
       id="backHatOctopus_1_1">
      <g
         id="element1">
        <g
           id="drawingObject63">
          <path
             id="path63"
             d="m 8.101,-37.899 q -0.1,-1.001 -0.05,-2.318 l 0.05,-1.159 c 0,0 -1.65,0.158 -3.5,1.58 -1.85,1.423 -2.9,6.006 1.15,5.216 4.05,-0.79 4.35,-1.264 4.05,-1.739 -0.3,-0.474 -1.7,-1.58 -1.7,-1.58 z"
             inkscape:connector-curvature="0"
             style="fill:#724446" />
        </g>
        <g
           id="drawingObject64">
          <path
             id="path64"
             d="m -10.349,-40.428 0.05,1.106 q 0.05,1.317 -0.05,2.318 l -0.75,0.633 0.75,-0.633 c 0,0 -1.4,1.107 -1.7,1.581 -0.3,0.422 0,0.896 4.05,1.686 4.05,0.79 3,-3.741 1.15,-5.163 -1.85,-1.37 -3.5,-1.528 -3.5,-1.528 z"
             inkscape:connector-curvature="0"
             style="fill:#724446" />
        </g>
        <g
           id="drawingObject65">
          <path
             id="path65"
             d="m 16.001,-45.117 c -0.15,-6.375 -3.35,-14.857 -8.5,-16.701 q -4.2,-1.476 -8.9,-1.581 -5.25,-0.105 -8.45,1.581 l -0.25,0.21 c -3.8,1.792 -9.25,6.059 -9.65,10.274 -0.25,3.108 -0.4,6.27 0,9.062 0.15,3.266 1.1,6.849 8.4,10.063 9,3.951 16.35,2.107 20.35,0 4,-2.108 7.15,-6.533 7,-12.908 z"
             inkscape:connector-curvature="0"
             style="fill:#9d5e60" />
        </g>
        <g
           id="drawingObject66">
          <path
             id="path66"
             d="m -4.049,-60.975 c 0.55,-0.053 1.55,-1.16 -0.35,-1.054 q -0.8,0.053 -1.3,0.369 -0.45,0.316 -0.4,0.579 c 0,0.369 0.45,0.422 1,0.316 0.55,-0.158 0.5,-0.158 1.05,-0.21 z"
             inkscape:connector-curvature="0"
             style="fill:#ddafb0" />
        </g>
        <g
           id="drawingObject67">
          <path
             id="path67"
             d="m -2.549,-59.658 c 0.3,-0.58 -0.05,-0.791 -1.05,-0.896 q -0.5,-0.053 -1.05,0.263 -0.5,0.264 -0.15,0.422 c 0.5,0.263 0.75,0.263 1.5,0.211 0.75,0 0.45,0.579 0.75,0 z"
             inkscape:connector-curvature="0"
             style="fill:#ddafb0" />
        </g>
        <g
           id="drawingObject68">
          <path
             id="path68"
             d="m -7.849,-60.343 c 0.45,-0.158 0.75,-0.738 0.15,-0.738 q -0.7,0 -1.05,0.316 -0.35,0.316 -0.1,0.422 c 0.3,0.105 0.55,0.211 1,0 z"
             inkscape:connector-curvature="0"
             style="fill:#b46a6c" />
        </g>
        <g
           id="drawingObject69">
          <path
             id="path69"
             d="m -6.849,-58.921 c 0.45,-0.158 0.5,-0.737 -0.5,-0.79 q -0.45,0 -0.7,0.211 -0.3,0.21 -0.05,0.369 c 0.35,0.158 0.85,0.316 1.25,0.21 z"
             inkscape:connector-curvature="0"
             style="fill:#b46a6c" />
        </g>
        <g
           id="drawingObject70">
          <path
             id="path70"
             d="m -2.999,-57.604 c 0.2,-0.474 -0.25,-1.053 -1.65,-1.159 q -0.7,-0.052 -1,0.158 -0.35,0.264 0.05,0.58 c 0.5,0.474 1.05,0.579 1.6,0.579 0.6,-0.052 0.85,0.317 1,-0.158 z"
             inkscape:connector-curvature="0"
             style="fill:#b46a6c" />
        </g>
        <g
           id="drawingObject71">
          <path
             id="path71"
             d="m -10.399,-59.184 c 0.3,-0.106 0.95,-0.58 0.05,-0.632 q -0.4,0 -0.55,0.316 l -0.1,0.263 0.2,0.106 -0.2,-0.106 c 0,0 0.3,0.211 0.6,0.053 z"
             inkscape:connector-curvature="0"
             style="fill:#b46a6c" />
        </g>
        <g
           id="drawingObject72">
          <path
             id="path72"
             d="m -8.849,-57.551 c 0.75,0 0.85,-0.738 -0.2,-0.738 q -0.3,-0.052 -0.5,0.211 -0.2,0.264 0,0.369 c 0.25,0.105 -0.05,0.158 0.7,0.158 z"
             inkscape:connector-curvature="0"
             style="fill:#b46a6c" />
        </g>
        <g
           id="drawingObject73">
          <path
             id="path73"
             d="m -6.749,-56.286 c 0.15,-0.211 0.1,-0.738 -0.65,-0.685 q -0.35,0 -0.5,0.316 -0.15,0.263 0.2,0.316 c 0.5,0.053 0.75,0.211 0.95,0.053 z"
             inkscape:connector-curvature="0"
             style="fill:#b46a6c" />
        </g>
        <g
           id="drawingObject74">
          <path
             id="path74"
             d="m 1.051,-57.972 c 0.05,-0.527 -1.05,-1.159 -2.25,-1.107 q -0.95,0 -0.7,0.527 c 0.2,0.263 0.95,0.738 1.3,0.738 l 1.1,0 c 0.3,-0.053 0.5,0.368 0.55,-0.158 z"
             inkscape:connector-curvature="0"
             style="fill:#ddafb0" />
        </g>
        <g
           id="drawingObject75">
          <path
             id="path75"
             d="m 1.201,-60.975 c 0.05,-0.264 -0.75,-0.58 -2.2,-0.58 q -0.65,0 -0.95,0.211 -0.35,0.21 -0.1,0.316 c 0.3,0.211 1.8,0.421 2.3,0.369 0.5,0 0.9,0 0.95,-0.316 z"
             inkscape:connector-curvature="0"
             style="fill:#ddafb0" />
        </g>
        <g
           id="drawingObject76">
          <path
             id="path76"
             d="m 2.501,-61.924 c 0.3,0 -0.5,-0.263 -1.5,-0.316 q -0.25,0 -0.45,0.105 -0.15,0.106 0.3,0.159 l 1.65,0.052 z"
             inkscape:connector-curvature="0"
             style="fill:#b46a6c" />
        </g>
        <g
           id="drawingObject77">
          <path
             id="path77"
             d="m 7.401,-60.712 c 0,0 -1.55,-0.896 -2.2,-1.001 q -0.4,-0.105 -0.75,0.053 -0.35,0.158 0.1,0.263 l 1.5,0.474 1.35,0.211 z"
             inkscape:connector-curvature="0"
             style="fill:#b46a6c" />
        </g>
        <g
           id="drawingObject78">
          <path
             id="path78"
             d="m 3.851,-60.185 c 0.55,0 0.2,-0.738 -0.05,-0.79 q -0.85,-0.211 -1.45,-0.159 -0.55,0.053 -0.45,0.211 c 0.1,0.264 1.4,0.738 1.95,0.738 z"
             inkscape:connector-curvature="0"
             style="fill:#ddafb0" />
        </g>
        <g
           id="drawingObject79">
          <path
             id="path79"
             d="m 2.101,-59.395 c 0.3,-0.369 0.5,-0.737 -1.5,-0.79 q -0.5,-0.053 -0.75,-0.053 -0.4,0 -0.3,0.211 c 0.1,0.316 0.55,0.632 1.35,0.685 0.85,0 0.9,0.316 1.2,-0.053 z"
             inkscape:connector-curvature="0"
             style="fill:#ddafb0" />
        </g>
        <g
           id="drawingObject80">
          <path
             id="path80"
             d="m 5.751,-58.394 c 0.6,-0.053 -0.2,-0.896 -1.15,-1.106 q -0.45,-0.106 -0.65,0.052 -0.2,0.158 0.05,0.422 c 0.3,0.421 1.15,0.685 1.75,0.632 z"
             inkscape:connector-curvature="0"
             style="fill:#ddafb0" />
        </g>
        <g
           id="drawingObject81">
          <path
             id="path81"
             d="m 4.101,-57.604 c 0.2,-0.263 0.1,-0.526 -0.8,-0.632 q -0.2,-0.053 -0.4,0.158 -0.15,0.158 0.05,0.264 c 0.3,0.158 0.9,0.421 1.15,0.21 z"
             inkscape:connector-curvature="0"
             style="fill:#b46a6c" />
        </g>
        <g
           id="drawingObject82">
          <path
             id="path82"
             d="m 8.551,-59.184 c 0.1,-0.316 -0.5,-0.738 -0.7,-0.79 q -0.65,-0.211 -0.75,-0.264 -0.1,0 -0.15,0.316 c -0.05,0.527 0.8,0.791 1.05,0.791 0.25,0 0.45,0.21 0.55,-0.053 z"
             inkscape:connector-curvature="0"
             style="fill:#b46a6c" />
        </g>
        <g
           id="drawingObject83">
          <path
             id="path83"
             d="m 1.001,-55.549 c 0.5,-0.263 -0.1,-0.737 -0.85,-0.737 q -0.35,-0.053 -0.65,0.21 -0.3,0.264 0.1,0.369 c 0.65,0.158 0.9,0.369 1.4,0.158 z"
             inkscape:connector-curvature="0"
             style="fill:#b46a6c" />
        </g>
        <g
           id="drawingObject84">
          <path
             id="path84"
             d="m -3.449,-55.707 c 0.45,-0.263 -0.25,-0.474 -0.4,-0.527 q -0.2,-0.105 -0.5,0.158 -0.25,0.264 -0.05,0.316 c 0.25,0.053 0.5,0.264 0.95,0.053 z"
             inkscape:connector-curvature="0"
             style="fill:#b46a6c" />
        </g>
        <g
           id="drawingObject85">
          <path
             id="path85"
             d="m 6.851,-56.497 c 0.3,-0.106 -0.25,-0.58 -0.65,-0.58 q -0.3,0 -0.5,0.106 -0.3,0.105 0.1,0.21 c 0.55,0.158 0.75,0.422 1.05,0.264 z"
             inkscape:connector-curvature="0"
             style="fill:#b46a6c" />
        </g>
        <g
           id="drawingObject86">
          <path
             id="path86"
             d="m 16.001,-45.117 c -0.05,-2.266 -0.5,-4.795 -1.25,-7.165 q -0.7,4.899 -5.15,7.218 -3.65,1.949 -9.25,1.844 c -0.85,-0.053 -1.75,-0.053 -2.65,-0.158 -0.7,0.158 -1.45,0.158 -2.15,0.052 -3.25,-0.474 -6.5,-1.159 -9.5,-2.529 -3.75,-1.633 -4.75,-5.637 -4.05,-9.483 -0.95,1.264 -1.6,2.634 -1.75,4.004 -0.25,3.108 -0.4,6.27 0,9.062 0.15,3.266 1.1,6.849 8.4,10.063 9,3.951 16.35,2.107 20.35,0 4,-2.108 7.15,-6.533 7,-12.908 z"
             inkscape:connector-curvature="0"
             style="fill:#93585a" />
        </g>
        <g
           id="drawingObject87">
          <path
             id="path87"
             d="m -17.249,-44.959 c 0.5,-0.527 -0.4,-1.423 -0.4,-1.423 q -0.3,0 -0.45,0 -0.25,0.053 -0.2,0.369 c 0,0.527 0.6,1.528 1.05,1.054 z"
             inkscape:connector-curvature="0"
             style="fill:#9d5e60" />
        </g>
        <g
           id="drawingObject88">
          <path
             id="path88"
             d="m -13.099,-42.536 c 1.05,-0.421 -0.75,-1.844 -1.55,-1.844 q -0.35,0 -0.6,0.369 -0.3,0.369 0.15,0.685 c 0.65,0.527 0.95,1.212 2,0.79 z"
             inkscape:connector-curvature="0"
             style="fill:#9d5e60" />
        </g>
        <g
           id="drawingObject89">
          <path
             id="path89"
             d="m -8.699,-41.798 c 0.9,-0.158 -0.3,-1.106 -1.2,-1.264 q -0.95,-0.106 -1.4,0.158 -0.45,0.21 0,0.474 c 0.6,0.316 1.75,0.79 2.6,0.632 z"
             inkscape:connector-curvature="0"
             style="fill:#9d5e60" />
        </g>
        <g
           id="drawingObject90">
          <path
             id="path90"
             d="m -4.449,-41.429 c 0.6,-0.053 0.85,-1.107 -0.7,-1.001 q -1.5,0 -0.8,0.527 c 0.55,0.421 0.85,0.579 1.5,0.474 z"
             inkscape:connector-curvature="0"
             style="fill:#9d5e60" />
        </g>
        <g
           id="drawingObject91">
          <path
             id="path91"
             d="m -0.949,-40.955 c 0.95,-0.421 -0.1,-0.843 -0.35,-0.738 q -0.45,0.211 -0.6,0.317 -0.25,0.105 0.05,0.263 c 0.45,0.211 0.6,0.316 0.9,0.158 z"
             inkscape:connector-curvature="0"
             style="fill:#9d5e60" />
        </g>
        <g
           id="drawingObject92">
          <path
             id="path92"
             d="m -16.349,-42.536 c 0.4,-0.21 -0.2,-1.264 -0.2,-1.264 q -0.3,-0.105 -0.65,-0.158 -0.6,-0.105 -0.55,0.158 c 0.1,0.474 0.95,1.423 1.4,1.264 z"
             inkscape:connector-curvature="0"
             style="fill:#9d5e60" />
        </g>
        <g
           id="drawingObject93">
          <path
             id="path93"
             d="m -11.499,-40.481 c 0.7,-0.105 0.65,-1.212 -0.6,-1.212 q -1.15,0 -0.95,0.527 c 0.15,0.316 0.85,0.738 1.55,0.685 z"
             inkscape:connector-curvature="0"
             style="fill:#9d5e60" />
        </g>
        <g
           id="drawingObject94">
          <path
             id="path94"
             d="m -6.699,-39.743 c 0.45,-0.106 0.15,-1.107 -1.2,-1.001 q -0.4,0.052 -0.65,0.316 -0.25,0.316 0,0.421 c 0.4,0.158 1.4,0.422 1.85,0.264 z"
             inkscape:connector-curvature="0"
             style="fill:#9d5e60" />
        </g>
        <g
           id="drawingObject95">
          <path
             id="path95"
             d="m -3.049,-39.322 c 0.75,-0.263 1,-1.053 -0.25,-1.001 q -0.35,0.053 -0.6,0.316 -0.3,0.211 -0.1,0.422 c 0.25,0.316 0.2,0.527 0.95,0.263 z"
             inkscape:connector-curvature="0"
             style="fill:#9d5e60" />
        </g>
        <g
           id="drawingObject96">
          <path
             id="path96"
             d="m 3.151,-40.902 c 0.65,-0.843 -1.7,-1.159 -2.4,-0.791 q -0.3,0.211 -0.3,0.633 0,0.474 0.55,0.527 c 0.85,0.052 1.5,0.526 2.15,-0.369 z"
             inkscape:connector-curvature="0"
             style="fill:#9d5e60" />
        </g>
        <g
           id="drawingObject97">
          <path
             id="path97"
             d="m 7.251,-42.483 c 0.65,-0.579 -0.85,-0.79 -1.7,-0.474 q -0.85,0.369 -1.1,0.843 -0.25,0.421 0.25,0.369 c 0.7,0 1.95,-0.211 2.55,-0.738 z"
             inkscape:connector-curvature="0"
             style="fill:#9d5e60" />
        </g>
        <g
           id="drawingObject98">
          <path
             id="path98"
             d="m 11.051,-44.327 c 0.45,-0.369 0.1,-1.37 -1.15,-0.474 q -0.45,0.263 -0.6,0.527 -0.2,0.263 0.25,0.316 c 0.65,0.053 1,0.053 1.5,-0.369 z"
             inkscape:connector-curvature="0"
             style="fill:#9d5e60" />
        </g>
        <g
           id="drawingObject99">
          <path
             id="path99"
             d="m 13.751,-46.908 c 0,-0.317 -0.7,-0.58 -0.8,-0.317 q -0.05,0.211 -0.25,0.527 -0.05,0.264 0.25,0.211 c 0.45,-0.158 0.75,-0.105 0.8,-0.421 z"
             inkscape:connector-curvature="0"
             style="fill:#9d5e60" />
        </g>
        <g
           id="drawingObject100">
          <path
             id="path100"
             d="m 5.651,-40.007 c 0.55,-0.421 -0.15,-1.317 -1.2,-0.685 q -0.95,0.58 -0.5,0.896 c 0.35,0.211 1.2,0.211 1.7,-0.211 z"
             inkscape:connector-curvature="0"
             style="fill:#9d5e60" />
        </g>
        <g
           id="drawingObject101">
          <path
             id="path101"
             d="m 10.151,-41.745 c 0.25,-0.369 -0.55,-1.001 -1.6,-0.264 q -0.3,0.264 -0.35,0.633 -0.05,0.368 0.25,0.316 c 0.4,-0.053 1.4,-0.369 1.7,-0.685 z"
             inkscape:connector-curvature="0"
             style="fill:#9d5e60" />
        </g>
        <g
           id="drawingObject102">
          <path
             id="path102"
             d="m 13.001,-43.431 c 0.25,-0.685 -0.2,-1.37 -0.95,-0.474 q -0.25,0.263 -0.2,0.632 0.05,0.369 0.35,0.369 l 0.45,0 -0.45,0 c 0.4,0 0.55,0.158 0.8,-0.527 z"
             inkscape:connector-curvature="0"
             style="fill:#9d5e60" />
        </g>
        <g
           id="group3">
          <g
             id="drawingObject103">
            <path
               id="path103"
               d="m 16.001,-45.067 -0.1,-1.37 c -3.1,7.007 -12.2,8.957 -19.05,8.64 q -10.75,-0.474 -16.8,-7.165 c 0,0.949 0.1,1.844 0.2,2.74 0.15,3.266 1.1,6.849 8.4,10.063 9,3.951 16.35,2.107 20.35,0 4,-2.108 7.15,-6.533 7,-12.908 z"
               inkscape:connector-curvature="0"
               style="fill:#864f51" />
          </g>
        </g>
        <g
           id="drawingObject104">
          <path
             id="path104"
             d="m -17.249,-40.85 c 1.4,1.212 1.7,-0.105 0.75,-0.843 q -0.8,-0.632 -1.25,-0.316 -0.5,0.316 0.5,1.159 z"
             inkscape:connector-curvature="0"
             style="fill:#93585a" />
        </g>
        <g
           id="drawingObject105">
          <path
             id="path105"
             d="m -14.099,-38.11 c 1.1,1.001 2.4,0.632 1.6,-0.158 q -0.6,-0.527 -1.5,-0.527 -0.9,0 -0.1,0.685 z"
             inkscape:connector-curvature="0"
             style="fill:#93585a" />
        </g>
        <g
           id="drawingObject106">
          <path
             id="path106"
             d="m -9.149,-37.53 c 1.5,0.79 2.85,0.21 1.6,-0.369 q -0.9,-0.474 -1.8,-0.369 -0.9,0.158 0.2,0.738 z"
             inkscape:connector-curvature="0"
             style="fill:#93585a" />
        </g>
        <g
           id="drawingObject107">
          <path
             id="path107"
             d="m -1.499,-36.161 c 2.35,0.211 2.75,-1.369 0.25,-1.475 q -0.85,0 -1.3,0.685 -0.5,0.632 1.05,0.79 z"
             inkscape:connector-curvature="0"
             style="fill:#93585a" />
        </g>
        <g
           id="drawingObject108">
          <path
             id="path108"
             d="m 6.001,-37.32 c 1.3,0.264 3.8,-1.58 1.75,-1.58 q -1.35,0 -2.05,0.685 -0.75,0.685 0.3,0.895 z"
             inkscape:connector-curvature="0"
             style="fill:#93585a" />
        </g>
        <g
           id="drawingObject109">
          <path
             id="path109"
             d="m 13.051,-40.586 c 1.15,-0.316 2.2,-2.634 0.8,-1.844 q -0.9,0.579 -1.25,1.317 -0.35,0.738 0.45,0.527 z"
             inkscape:connector-curvature="0"
             style="fill:#93585a" />
        </g>
        <g
           id="drawingObject110">
          <path
             id="path110"
             d="m 11.201,-37.056 c 2,-0.791 0.85,-2.371 -1,-1.423 q -0.7,0.369 -0.5,1.159 0.15,0.791 1.5,0.264 z"
             inkscape:connector-curvature="0"
             style="fill:#93585a" />
        </g>
        <g
           id="drawingObject111">
          <path
             id="path111"
             d="m 2.251,-35.16 c 1.5,0.159 1.5,-1.369 0.65,-1.211 q -1.35,0.263 -1.55,0.685 -0.25,0.421 0.9,0.526 z"
             inkscape:connector-curvature="0"
             style="fill:#93585a" />
        </g>
        <g
           id="drawingObject112">
          <path
             id="path112"
             d="m -6.299,-35.634 c 1.4,0.527 2.35,-0.052 1.45,-0.685 q -0.55,-0.368 -1.55,-0.052 -0.9,0.316 0.1,0.737 z"
             inkscape:connector-curvature="0"
             style="fill:#93585a" />
        </g>
        <g
           id="drawingObject113">
          <path
             id="path113"
             d="m 16.001,-45.117 -0.05,-0.896 c -1.3,11.433 -9.8,12.381 -9.8,12.381 l 0.85,-0.474 c 0.85,-0.474 2.85,-2.371 2.85,-2.371 l -2.85,1.107 c -2.85,1.106 -7.5,1.264 -11.65,0.632 -4.2,-0.632 -6.85,-3.109 -6.85,-3.109 l 1.85,1.318 -1.85,-1.318 0.65,1.37 c 0.7,1.423 6.5,3.003 6.5,3.003 l -2,-0.158 c -2,-0.158 -5.15,-1.58 -9.8,-5.163 -1.55,-1.159 -2.75,-2.792 -3.7,-4.425 l 0.1,0.948 c 0.15,3.266 1.1,6.849 8.4,10.063 9,3.951 16.35,2.107 20.35,0 q 3.2,-1.686 5.05,-4.847 2.05,-3.53 1.95,-8.061 z"
             inkscape:connector-curvature="0"
             style="fill:#724446" />
        </g>
        <g
           id="drawingObject114">
          <path
             id="path114"
             d="m -16.849,-37.214 c 0,0.737 3.85,2.318 2.35,0.895 q -0.7,-0.632 -1.45,-1.001 -0.9,-0.421 -0.9,0.106 z"
             inkscape:connector-curvature="0"
             style="fill:#7f4b4d" />
        </g>
        <g
           id="drawingObject115">
          <path
             id="path115"
             d="m 4.501,-33.474 -5.85,0 1.8,0.527 q 2.2,0.316 4.05,-0.527 z"
             inkscape:connector-curvature="0"
             style="fill:#7f4b4d" />
        </g>
        <g
           id="drawingObject116">
          <path
             id="path116"
             d="m -3.849,-32.104 c 1.35,0 0.5,-0.79 0.5,-0.79 q -0.95,0 -1.2,0.421 -0.25,0.369 0.7,0.369 z"
             inkscape:connector-curvature="0"
             style="fill:#7f4b4d" />
        </g>
        <g
           id="drawingObject117">
          <path
             id="path117"
             d="m -12.699,-56.55 c 1,-0.158 1.5,-1.633 0.35,-1.422 q -0.55,0.105 -0.8,0.79 -0.25,0.685 0.45,0.632 z"
             inkscape:connector-curvature="0"
             style="fill:#b46a6c" />
        </g>
        <g
           id="drawingObject118">
          <path
             id="path118"
             d="m -10.199,-55.022 c 0.85,0.105 1,-1.212 0,-1.054 q -0.5,0.053 -0.6,0.474 -0.05,0.475 0.6,0.58 z"
             inkscape:connector-curvature="0"
             style="fill:#b46a6c" />
        </g>
        <g
           id="drawingObject119">
          <path
             id="path119"
             d="m -13.099,-53.968 c 0.65,-0.369 0.4,-1.212 -0.25,-1.054 q -0.55,0.105 -0.4,0.685 0.2,0.632 0.65,0.369 z"
             inkscape:connector-curvature="0"
             style="fill:#b46a6c" />
        </g>
        <g
           id="drawingObject120">
          <path
             id="path120"
             d="m -5.099,-53.547 c 1,-0.211 1.15,-1.738 -0.85,-1.159 q -0.7,0.264 -0.3,0.79 0.4,0.58 1.15,0.369 z"
             inkscape:connector-curvature="0"
             style="fill:#b46a6c" />
        </g>
        <g
           id="drawingObject121">
          <path
             id="path121"
             d="m 2.551,-53.652 c 1.35,-0.106 1.5,-1.265 0.6,-1.054 q -0.8,0.211 -1.2,0.685 -0.35,0.422 0.6,0.369 z"
             inkscape:connector-curvature="0"
             style="fill:#b46a6c" />
        </g>
        <g
           id="drawingObject122">
          <path
             id="path122"
             d="m 9.551,-55.76 c 0.75,0.264 1.35,-0.685 0.35,-0.685 q -0.6,0 -0.75,0.264 -0.15,0.263 0.4,0.421 z"
             inkscape:connector-curvature="0"
             style="fill:#b46a6c" />
        </g>
        <g
           id="drawingObject123">
          <path
             id="path123"
             d="m 7.051,-52.967 c 1,0.158 2.35,-1.265 0.25,-1.001 q -0.55,0.052 -0.75,0.474 -0.2,0.474 0.5,0.527 z"
             inkscape:connector-curvature="0"
             style="fill:#b46a6c" />
        </g>
        <g
           id="drawingObject124">
          <path
             id="path124"
             d="m -1.949,-51.281 c 1.1,0.21 0.5,-1.054 0.5,-1.054 q -0.65,0.105 -0.95,0.474 -0.35,0.422 0.45,0.58 z"
             inkscape:connector-curvature="0"
             style="fill:#b46a6c" />
        </g>
        <g
           id="drawingObject125">
          <path
             id="path125"
             d="m -9.599,-51.755 c 0.75,0.21 1.25,-0.738 0.65,-0.949 q -0.6,-0.211 -0.9,0.264 -0.3,0.474 0.25,0.685 z"
             inkscape:connector-curvature="0"
             style="fill:#b46a6c" />
        </g>
      </g>
    </g>
    <g
       id="backHatOctopus_1_0">
      <g
         id="element">
        <g
           id="drawingObject">
          <path
             id="path"
             d="m 8.101,-37.899 q -0.1,-1.001 -0.05,-2.318 l 0.05,-1.159 c 0,0 -1.65,0.158 -3.5,1.58 -1.85,1.423 -2.9,6.006 1.15,5.216 4.05,-0.79 4.35,-1.264 4.05,-1.739 -0.3,-0.474 -1.7,-1.58 -1.7,-1.58 z"
             inkscape:connector-curvature="0"
             style="fill:#724446" />
        </g>
        <g
           id="drawingObject1">
          <path
             id="path1"
             d="m -10.349,-40.428 0.05,1.106 q 0.05,1.317 -0.05,2.318 l -0.75,0.633 0.75,-0.633 c 0,0 -1.4,1.107 -1.7,1.581 -0.3,0.422 0,0.896 4.05,1.686 4.05,0.79 3,-3.741 1.15,-5.163 -1.85,-1.37 -3.5,-1.528 -3.5,-1.528 z"
             inkscape:connector-curvature="0"
             style="fill:#724446" />
        </g>
        <g
           id="drawingObject2">
          <path
             id="path2"
             d="m 16.001,-45.117 c -0.15,-6.375 -3.35,-14.857 -8.5,-16.701 q -4.2,-1.476 -8.9,-1.581 -5.25,-0.105 -8.45,1.581 l -0.25,0.21 c -3.8,1.792 -9.25,6.059 -9.65,10.274 -0.25,3.108 -0.4,6.27 0,9.062 0.15,3.266 1.1,6.849 8.4,10.063 9,3.951 16.35,2.107 20.35,0 4,-2.108 7.15,-6.533 7,-12.908 z"
             inkscape:connector-curvature="0"
             style="fill:#9d5e60" />
        </g>
        <g
           id="drawingObject3">
          <path
             id="path3"
             d="m -4.049,-60.975 c 0.55,-0.053 1.55,-1.16 -0.35,-1.054 q -0.8,0.053 -1.3,0.369 -0.45,0.316 -0.4,0.579 c 0,0.369 0.45,0.422 1,0.316 0.55,-0.158 0.5,-0.158 1.05,-0.21 z"
             inkscape:connector-curvature="0"
             style="fill:#ddafb0" />
        </g>
        <g
           id="drawingObject4">
          <path
             id="path4"
             d="m -2.549,-59.658 c 0.3,-0.58 -0.05,-0.791 -1.05,-0.896 q -0.5,-0.053 -1.05,0.263 -0.5,0.264 -0.15,0.422 c 0.5,0.263 0.75,0.263 1.5,0.211 0.75,0 0.45,0.579 0.75,0 z"
             inkscape:connector-curvature="0"
             style="fill:#ddafb0" />
        </g>
        <g
           id="drawingObject5">
          <path
             id="path5"
             d="m -7.849,-60.343 c 0.45,-0.158 0.75,-0.738 0.15,-0.738 q -0.7,0 -1.05,0.316 -0.35,0.316 -0.1,0.422 c 0.3,0.105 0.55,0.211 1,0 z"
             inkscape:connector-curvature="0"
             style="fill:#b46a6c" />
        </g>
        <g
           id="drawingObject6">
          <path
             id="path6"
             d="m -6.849,-58.921 c 0.45,-0.158 0.5,-0.737 -0.5,-0.79 q -0.45,0 -0.7,0.211 -0.3,0.21 -0.05,0.369 c 0.35,0.158 0.85,0.316 1.25,0.21 z"
             inkscape:connector-curvature="0"
             style="fill:#b46a6c" />
        </g>
        <g
           id="drawingObject7">
          <path
             id="path7"
             d="m -2.999,-57.604 c 0.2,-0.474 -0.25,-1.053 -1.65,-1.159 q -0.7,-0.052 -1,0.158 -0.35,0.264 0.05,0.58 c 0.5,0.474 1.05,0.579 1.6,0.579 0.6,-0.052 0.85,0.317 1,-0.158 z"
             inkscape:connector-curvature="0"
             style="fill:#b46a6c" />
        </g>
        <g
           id="drawingObject8">
          <path
             id="path8"
             d="m -10.399,-59.184 c 0.3,-0.106 0.95,-0.58 0.05,-0.632 q -0.4,0 -0.55,0.316 l -0.1,0.263 0.2,0.106 -0.2,-0.106 c 0,0 0.3,0.211 0.6,0.053 z"
             inkscape:connector-curvature="0"
             style="fill:#b46a6c" />
        </g>
        <g
           id="drawingObject9">
          <path
             id="path9"
             d="m -8.849,-57.551 c 0.75,0 0.85,-0.738 -0.2,-0.738 q -0.3,-0.052 -0.5,0.211 -0.2,0.264 0,0.369 c 0.25,0.105 -0.05,0.158 0.7,0.158 z"
             inkscape:connector-curvature="0"
             style="fill:#b46a6c" />
        </g>
        <g
           id="drawingObject10">
          <path
             id="path10"
             d="m -6.749,-56.286 c 0.15,-0.211 0.1,-0.738 -0.65,-0.685 q -0.35,0 -0.5,0.316 -0.15,0.263 0.2,0.316 c 0.5,0.053 0.75,0.211 0.95,0.053 z"
             inkscape:connector-curvature="0"
             style="fill:#b46a6c" />
        </g>
        <g
           id="drawingObject11">
          <path
             id="path11"
             d="m 1.051,-57.972 c 0.05,-0.527 -1.05,-1.159 -2.25,-1.107 q -0.95,0 -0.7,0.527 c 0.2,0.263 0.95,0.738 1.3,0.738 l 1.1,0 c 0.3,-0.053 0.5,0.368 0.55,-0.158 z"
             inkscape:connector-curvature="0"
             style="fill:#ddafb0" />
        </g>
        <g
           id="drawingObject12">
          <path
             id="path12"
             d="m 1.201,-60.975 c 0.05,-0.264 -0.75,-0.58 -2.2,-0.58 q -0.65,0 -0.95,0.211 -0.35,0.21 -0.1,0.316 c 0.3,0.211 1.8,0.421 2.3,0.369 0.5,0 0.9,0 0.95,-0.316 z"
             inkscape:connector-curvature="0"
             style="fill:#ddafb0" />
        </g>
        <g
           id="drawingObject13">
          <path
             id="path13"
             d="m 2.501,-61.924 c 0.3,0 -0.5,-0.263 -1.5,-0.316 q -0.25,0 -0.45,0.105 -0.15,0.106 0.3,0.159 l 1.65,0.052 z"
             inkscape:connector-curvature="0"
             style="fill:#b46a6c" />
        </g>
        <g
           id="drawingObject14">
          <path
             id="path14"
             d="m 7.401,-60.712 c 0,0 -1.55,-0.896 -2.2,-1.001 q -0.4,-0.105 -0.75,0.053 -0.35,0.158 0.1,0.263 l 1.5,0.474 1.35,0.211 z"
             inkscape:connector-curvature="0"
             style="fill:#b46a6c" />
        </g>
        <g
           id="drawingObject15">
          <path
             id="path15"
             d="m 3.851,-60.185 c 0.55,0 0.2,-0.738 -0.05,-0.79 q -0.85,-0.211 -1.45,-0.159 -0.55,0.053 -0.45,0.211 c 0.1,0.264 1.4,0.738 1.95,0.738 z"
             inkscape:connector-curvature="0"
             style="fill:#ddafb0" />
        </g>
        <g
           id="drawingObject16">
          <path
             id="path16"
             d="m 2.101,-59.395 c 0.3,-0.369 0.5,-0.737 -1.5,-0.79 q -0.5,-0.053 -0.75,-0.053 -0.4,0 -0.3,0.211 c 0.1,0.316 0.55,0.632 1.35,0.685 0.85,0 0.9,0.316 1.2,-0.053 z"
             inkscape:connector-curvature="0"
             style="fill:#ddafb0" />
        </g>
        <g
           id="drawingObject17">
          <path
             id="path17"
             d="m 5.751,-58.394 c 0.6,-0.053 -0.2,-0.896 -1.15,-1.106 q -0.45,-0.106 -0.65,0.052 -0.2,0.158 0.05,0.422 c 0.3,0.421 1.15,0.685 1.75,0.632 z"
             inkscape:connector-curvature="0"
             style="fill:#ddafb0" />
        </g>
        <g
           id="drawingObject18">
          <path
             id="path18"
             d="m 4.101,-57.604 c 0.2,-0.263 0.1,-0.526 -0.8,-0.632 q -0.2,-0.053 -0.4,0.158 -0.15,0.158 0.05,0.264 c 0.3,0.158 0.9,0.421 1.15,0.21 z"
             inkscape:connector-curvature="0"
             style="fill:#b46a6c" />
        </g>
        <g
           id="drawingObject19">
          <path
             id="path19"
             d="m 8.551,-59.184 c 0.1,-0.316 -0.5,-0.738 -0.7,-0.79 q -0.65,-0.211 -0.75,-0.264 -0.1,0 -0.15,0.316 c -0.05,0.527 0.8,0.791 1.05,0.791 0.25,0 0.45,0.21 0.55,-0.053 z"
             inkscape:connector-curvature="0"
             style="fill:#b46a6c" />
        </g>
        <g
           id="drawingObject20">
          <path
             id="path20"
             d="m 1.001,-55.549 c 0.5,-0.263 -0.1,-0.737 -0.85,-0.737 q -0.35,-0.053 -0.65,0.21 -0.3,0.264 0.1,0.369 c 0.65,0.158 0.9,0.369 1.4,0.158 z"
             inkscape:connector-curvature="0"
             style="fill:#b46a6c" />
        </g>
        <g
           id="drawingObject21">
          <path
             id="path21"
             d="m -3.449,-55.707 c 0.45,-0.263 -0.25,-0.474 -0.4,-0.527 q -0.2,-0.105 -0.5,0.158 -0.25,0.264 -0.05,0.316 c 0.25,0.053 0.5,0.264 0.95,0.053 z"
             inkscape:connector-curvature="0"
             style="fill:#b46a6c" />
        </g>
        <g
           id="drawingObject22">
          <path
             id="path22"
             d="m 6.851,-56.497 c 0.3,-0.106 -0.25,-0.58 -0.65,-0.58 q -0.3,0 -0.5,0.106 -0.3,0.105 0.1,0.21 c 0.55,0.158 0.75,0.422 1.05,0.264 z"
             inkscape:connector-curvature="0"
             style="fill:#b46a6c" />
        </g>
        <g
           id="drawingObject23">
          <path
             id="path23"
             d="m 16.001,-45.117 c -0.05,-2.266 -0.5,-4.795 -1.25,-7.165 q -0.7,4.899 -5.15,7.218 -3.65,1.949 -9.25,1.844 c -0.85,-0.053 -1.75,-0.053 -2.65,-0.158 -0.7,0.158 -1.45,0.158 -2.15,0.052 -3.25,-0.474 -6.5,-1.159 -9.5,-2.529 -3.75,-1.633 -4.75,-5.637 -4.05,-9.483 -0.95,1.264 -1.6,2.634 -1.75,4.004 -0.25,3.108 -0.4,6.27 0,9.062 0.15,3.266 1.1,6.849 8.4,10.063 9,3.951 16.35,2.107 20.35,0 4,-2.108 7.15,-6.533 7,-12.908 z"
             inkscape:connector-curvature="0"
             style="fill:#93585a" />
        </g>
        <g
           id="drawingObject24">
          <path
             id="path24"
             d="m -17.249,-44.959 c 0.5,-0.527 -0.4,-1.423 -0.4,-1.423 q -0.3,0 -0.45,0 -0.25,0.053 -0.2,0.369 c 0,0.527 0.6,1.528 1.05,1.054 z"
             inkscape:connector-curvature="0"
             style="fill:#9d5e60" />
        </g>
        <g
           id="drawingObject25">
          <path
             id="path25"
             d="m -13.099,-42.536 c 1.05,-0.421 -0.75,-1.844 -1.55,-1.844 q -0.35,0 -0.6,0.369 -0.3,0.369 0.15,0.685 c 0.65,0.527 0.95,1.212 2,0.79 z"
             inkscape:connector-curvature="0"
             style="fill:#9d5e60" />
        </g>
        <g
           id="drawingObject26">
          <path
             id="path26"
             d="m -8.699,-41.798 c 0.9,-0.158 -0.3,-1.106 -1.2,-1.264 q -0.95,-0.106 -1.4,0.158 -0.45,0.21 0,0.474 c 0.6,0.316 1.75,0.79 2.6,0.632 z"
             inkscape:connector-curvature="0"
             style="fill:#9d5e60" />
        </g>
        <g
           id="drawingObject27">
          <path
             id="path27"
             d="m -4.449,-41.429 c 0.6,-0.053 0.85,-1.107 -0.7,-1.001 q -1.5,0 -0.8,0.527 c 0.55,0.421 0.85,0.579 1.5,0.474 z"
             inkscape:connector-curvature="0"
             style="fill:#9d5e60" />
        </g>
        <g
           id="drawingObject28">
          <path
             id="path28"
             d="m -0.949,-40.955 c 0.95,-0.421 -0.1,-0.843 -0.35,-0.738 q -0.45,0.211 -0.6,0.317 -0.25,0.105 0.05,0.263 c 0.45,0.211 0.6,0.316 0.9,0.158 z"
             inkscape:connector-curvature="0"
             style="fill:#9d5e60" />
        </g>
        <g
           id="drawingObject29">
          <path
             id="path29"
             d="m -16.349,-42.536 c 0.4,-0.21 -0.2,-1.264 -0.2,-1.264 q -0.3,-0.105 -0.65,-0.158 -0.6,-0.105 -0.55,0.158 c 0.1,0.474 0.95,1.423 1.4,1.264 z"
             inkscape:connector-curvature="0"
             style="fill:#9d5e60" />
        </g>
        <g
           id="drawingObject30">
          <path
             id="path30"
             d="m -11.499,-40.481 c 0.7,-0.105 0.65,-1.212 -0.6,-1.212 q -1.15,0 -0.95,0.527 c 0.15,0.316 0.85,0.738 1.55,0.685 z"
             inkscape:connector-curvature="0"
             style="fill:#9d5e60" />
        </g>
        <g
           id="drawingObject31">
          <path
             id="path31"
             d="m -6.699,-39.743 c 0.45,-0.106 0.15,-1.107 -1.2,-1.001 q -0.4,0.052 -0.65,0.316 -0.25,0.316 0,0.421 c 0.4,0.158 1.4,0.422 1.85,0.264 z"
             inkscape:connector-curvature="0"
             style="fill:#9d5e60" />
        </g>
        <g
           id="drawingObject32">
          <path
             id="path32"
             d="m -3.049,-39.322 c 0.75,-0.263 1,-1.053 -0.25,-1.001 q -0.35,0.053 -0.6,0.316 -0.3,0.211 -0.1,0.422 c 0.25,0.316 0.2,0.527 0.95,0.263 z"
             inkscape:connector-curvature="0"
             style="fill:#9d5e60" />
        </g>
        <g
           id="drawingObject33">
          <path
             id="path33"
             d="m 3.151,-40.902 c 0.65,-0.843 -1.7,-1.159 -2.4,-0.791 q -0.3,0.211 -0.3,0.633 0,0.474 0.55,0.527 c 0.85,0.052 1.5,0.526 2.15,-0.369 z"
             inkscape:connector-curvature="0"
             style="fill:#9d5e60" />
        </g>
        <g
           id="drawingObject34">
          <path
             id="path34"
             d="m 7.251,-42.483 c 0.65,-0.579 -0.85,-0.79 -1.7,-0.474 q -0.85,0.369 -1.1,0.843 -0.25,0.421 0.25,0.369 c 0.7,0 1.95,-0.211 2.55,-0.738 z"
             inkscape:connector-curvature="0"
             style="fill:#9d5e60" />
        </g>
        <g
           id="drawingObject35">
          <path
             id="path35"
             d="m 11.051,-44.327 c 0.45,-0.369 0.1,-1.37 -1.15,-0.474 q -0.45,0.263 -0.6,0.527 -0.2,0.263 0.25,0.316 c 0.65,0.053 1,0.053 1.5,-0.369 z"
             inkscape:connector-curvature="0"
             style="fill:#9d5e60" />
        </g>
        <g
           id="drawingObject36">
          <path
             id="path36"
             d="m 13.751,-46.908 c 0,-0.317 -0.7,-0.58 -0.8,-0.317 q -0.05,0.211 -0.25,0.527 -0.05,0.264 0.25,0.211 c 0.45,-0.158 0.75,-0.105 0.8,-0.421 z"
             inkscape:connector-curvature="0"
             style="fill:#9d5e60" />
        </g>
        <g
           id="drawingObject37">
          <path
             id="path37"
             d="m 5.651,-40.007 c 0.55,-0.421 -0.15,-1.317 -1.2,-0.685 q -0.95,0.58 -0.5,0.896 c 0.35,0.211 1.2,0.211 1.7,-0.211 z"
             inkscape:connector-curvature="0"
             style="fill:#9d5e60" />
        </g>
        <g
           id="drawingObject38">
          <path
             id="path38"
             d="m 10.151,-41.745 c 0.25,-0.369 -0.55,-1.001 -1.6,-0.264 q -0.3,0.264 -0.35,0.633 -0.05,0.368 0.25,0.316 c 0.4,-0.053 1.4,-0.369 1.7,-0.685 z"
             inkscape:connector-curvature="0"
             style="fill:#9d5e60" />
        </g>
        <g
           id="drawingObject39">
          <path
             id="path39"
             d="m 13.001,-43.431 c 0.25,-0.685 -0.2,-1.37 -0.95,-0.474 q -0.25,0.263 -0.2,0.632 0.05,0.369 0.35,0.369 l 0.45,0 -0.45,0 c 0.4,0 0.55,0.158 0.8,-0.527 z"
             inkscape:connector-curvature="0"
             style="fill:#9d5e60" />
        </g>
        <g
           id="group1">
          <g
             id="drawingObject40">
            <path
               id="path40"
               d="m 16.001,-45.067 -0.1,-1.37 c -3.1,7.007 -12.2,8.957 -19.05,8.64 q -10.75,-0.474 -16.8,-7.165 c 0,0.949 0.1,1.844 0.2,2.74 0.15,3.266 1.1,6.849 8.4,10.063 9,3.951 16.35,2.107 20.35,0 4,-2.108 7.15,-6.533 7,-12.908 z"
               inkscape:connector-curvature="0"
               style="fill:#864f51" />
          </g>
        </g>
        <g
           id="drawingObject41">
          <path
             id="path41"
             d="m -17.249,-40.85 c 1.4,1.212 1.7,-0.105 0.75,-0.843 q -0.8,-0.632 -1.25,-0.316 -0.5,0.316 0.5,1.159 z"
             inkscape:connector-curvature="0"
             style="fill:#93585a" />
        </g>
        <g
           id="drawingObject42">
          <path
             id="path42"
             d="m -14.099,-38.11 c 1.1,1.001 2.4,0.632 1.6,-0.158 q -0.6,-0.527 -1.5,-0.527 -0.9,0 -0.1,0.685 z"
             inkscape:connector-curvature="0"
             style="fill:#93585a" />
        </g>
        <g
           id="drawingObject43">
          <path
             id="path43"
             d="m -9.149,-37.53 c 1.5,0.79 2.85,0.21 1.6,-0.369 q -0.9,-0.474 -1.8,-0.369 -0.9,0.158 0.2,0.738 z"
             inkscape:connector-curvature="0"
             style="fill:#93585a" />
        </g>
        <g
           id="drawingObject44">
          <path
             id="path44"
             d="m -1.499,-36.161 c 2.35,0.211 2.75,-1.369 0.25,-1.475 q -0.85,0 -1.3,0.685 -0.5,0.632 1.05,0.79 z"
             inkscape:connector-curvature="0"
             style="fill:#93585a" />
        </g>
        <g
           id="drawingObject45">
          <path
             id="path45"
             d="m 6.001,-37.32 c 1.3,0.264 3.8,-1.58 1.75,-1.58 q -1.35,0 -2.05,0.685 -0.75,0.685 0.3,0.895 z"
             inkscape:connector-curvature="0"
             style="fill:#93585a" />
        </g>
        <g
           id="drawingObject46">
          <path
             id="path46"
             d="m 13.051,-40.586 c 1.15,-0.316 2.2,-2.634 0.8,-1.844 q -0.9,0.579 -1.25,1.317 -0.35,0.738 0.45,0.527 z"
             inkscape:connector-curvature="0"
             style="fill:#93585a" />
        </g>
        <g
           id="drawingObject47">
          <path
             id="path47"
             d="m 11.201,-37.056 c 2,-0.791 0.85,-2.371 -1,-1.423 q -0.7,0.369 -0.5,1.159 0.15,0.791 1.5,0.264 z"
             inkscape:connector-curvature="0"
             style="fill:#93585a" />
        </g>
        <g
           id="drawingObject48">
          <path
             id="path48"
             d="m 2.251,-35.16 c 1.5,0.159 1.5,-1.369 0.65,-1.211 q -1.35,0.263 -1.55,0.685 -0.25,0.421 0.9,0.526 z"
             inkscape:connector-curvature="0"
             style="fill:#93585a" />
        </g>
        <g
           id="drawingObject49">
          <path
             id="path49"
             d="m -6.299,-35.634 c 1.4,0.527 2.35,-0.052 1.45,-0.685 q -0.55,-0.368 -1.55,-0.052 -0.9,0.316 0.1,0.737 z"
             inkscape:connector-curvature="0"
             style="fill:#93585a" />
        </g>
        <g
           id="drawingObject50">
          <path
             id="path50"
             d="m 16.001,-45.117 -0.05,-0.896 c -1.3,11.433 -9.8,12.381 -9.8,12.381 l 0.85,-0.474 c 0.85,-0.474 2.85,-2.371 2.85,-2.371 l -2.85,1.107 c -2.85,1.106 -7.5,1.264 -11.65,0.632 -4.2,-0.632 -6.85,-3.109 -6.85,-3.109 l 1.85,1.318 -1.85,-1.318 0.65,1.37 c 0.7,1.423 6.5,3.003 6.5,3.003 l -2,-0.158 c -2,-0.158 -5.15,-1.58 -9.8,-5.163 -1.55,-1.159 -2.75,-2.792 -3.7,-4.425 l 0.1,0.948 c 0.15,3.266 1.1,6.849 8.4,10.063 9,3.951 16.35,2.107 20.35,0 q 3.2,-1.686 5.05,-4.847 2.05,-3.53 1.95,-8.061 z"
             inkscape:connector-curvature="0"
             style="fill:#724446" />
        </g>
        <g
           id="drawingObject51">
          <path
             id="path51"
             d="m -16.849,-37.214 c 0,0.737 3.85,2.318 2.35,0.895 q -0.7,-0.632 -1.45,-1.001 -0.9,-0.421 -0.9,0.106 z"
             inkscape:connector-curvature="0"
             style="fill:#7f4b4d" />
        </g>
        <g
           id="drawingObject52">
          <path
             id="path52"
             d="m 4.501,-33.474 -5.85,0 1.8,0.527 q 2.2,0.316 4.05,-0.527 z"
             inkscape:connector-curvature="0"
             style="fill:#7f4b4d" />
        </g>
        <g
           id="drawingObject53">
          <path
             id="path53"
             d="m -3.849,-32.104 c 1.35,0 0.5,-0.79 0.5,-0.79 q -0.95,0 -1.2,0.421 -0.25,0.369 0.7,0.369 z"
             inkscape:connector-curvature="0"
             style="fill:#7f4b4d" />
        </g>
        <g
           id="drawingObject54">
          <path
             id="path54"
             d="m -12.699,-56.55 c 1,-0.158 1.5,-1.633 0.35,-1.422 q -0.55,0.105 -0.8,0.79 -0.25,0.685 0.45,0.632 z"
             inkscape:connector-curvature="0"
             style="fill:#b46a6c" />
        </g>
        <g
           id="drawingObject55">
          <path
             id="path55"
             d="m -10.199,-55.022 c 0.85,0.105 1,-1.212 0,-1.054 q -0.5,0.053 -0.6,0.474 -0.05,0.475 0.6,0.58 z"
             inkscape:connector-curvature="0"
             style="fill:#b46a6c" />
        </g>
        <g
           id="drawingObject56">
          <path
             id="path56"
             d="m -13.099,-53.968 c 0.65,-0.369 0.4,-1.212 -0.25,-1.054 q -0.55,0.105 -0.4,0.685 0.2,0.632 0.65,0.369 z"
             inkscape:connector-curvature="0"
             style="fill:#b46a6c" />
        </g>
        <g
           id="drawingObject57">
          <path
             id="path57"
             d="m -5.099,-53.547 c 1,-0.211 1.15,-1.738 -0.85,-1.159 q -0.7,0.264 -0.3,0.79 0.4,0.58 1.15,0.369 z"
             inkscape:connector-curvature="0"
             style="fill:#b46a6c" />
        </g>
        <g
           id="drawingObject58">
          <path
             id="path58"
             d="m 2.551,-53.652 c 1.35,-0.106 1.5,-1.265 0.6,-1.054 q -0.8,0.211 -1.2,0.685 -0.35,0.422 0.6,0.369 z"
             inkscape:connector-curvature="0"
             style="fill:#b46a6c" />
        </g>
        <g
           id="drawingObject59">
          <path
             id="path59"
             d="m 9.551,-55.76 c 0.75,0.264 1.35,-0.685 0.35,-0.685 q -0.6,0 -0.75,0.264 -0.15,0.263 0.4,0.421 z"
             inkscape:connector-curvature="0"
             style="fill:#b46a6c" />
        </g>
        <g
           id="drawingObject60">
          <path
             id="path60"
             d="m 7.051,-52.967 c 1,0.158 2.35,-1.265 0.25,-1.001 q -0.55,0.052 -0.75,0.474 -0.2,0.474 0.5,0.527 z"
             inkscape:connector-curvature="0"
             style="fill:#b46a6c" />
        </g>
        <g
           id="drawingObject61">
          <path
             id="path61"
             d="m -1.949,-51.281 c 1.1,0.21 0.5,-1.054 0.5,-1.054 q -0.65,0.105 -0.95,0.474 -0.35,0.422 0.45,0.58 z"
             inkscape:connector-curvature="0"
             style="fill:#b46a6c" />
        </g>
        <g
           id="drawingObject62">
          <path
             id="path62"
             d="m -9.599,-51.755 c 0.75,0.21 1.25,-0.738 0.65,-0.949 q -0.6,-0.211 -0.9,0.264 -0.3,0.474 0.25,0.685 z"
             inkscape:connector-curvature="0"
             style="fill:#b46a6c" />
        </g>
      </g>
    </g>
  </g>
</svg>
