<?xml version="1.0" encoding="UTF-8" standalone="no"?>
<!-- Generator: flash2svg, http://dissentgraphics.com/tools/flash2svg -->

<svg
   xmlns:dc="http://purl.org/dc/elements/1.1/"
   xmlns:cc="http://creativecommons.org/ns#"
   xmlns:rdf="http://www.w3.org/1999/02/22-rdf-syntax-ns#"
   xmlns:svg="http://www.w3.org/2000/svg"
   xmlns="http://www.w3.org/2000/svg"
   xmlns:sodipodi="http://sodipodi.sourceforge.net/DTD/sodipodi-0.dtd"
   xmlns:inkscape="http://www.inkscape.org/namespaces/inkscape"
   id="AvatarAssets"
   image-rendering="auto"
   version="1.1"
   x="0px"
   y="0px"
   width="93.800003"
   height="66.800003"
   viewBox="0 0 93.800003 66.800003"
   inkscape:version="0.48.4 r9939"
   sodipodi:docname="AvatarAssets_backHatMoose.svg">
  <metadata
     id="metadata3479">
    <rdf:RDF>
      <cc:Work
         rdf:about="">
        <dc:format>image/svg+xml</dc:format>
        <dc:type
           rdf:resource="http://purl.org/dc/dcmitype/StillImage" />
      </cc:Work>
    </rdf:RDF>
  </metadata>
  <sodipodi:namedview
     pagecolor="#ffffff"
     bordercolor="#666666"
     borderopacity="1"
     objecttolerance="10"
     gridtolerance="10"
     guidetolerance="10"
     inkscape:pageopacity="0"
     inkscape:pageshadow="2"
     inkscape:window-width="640"
     inkscape:window-height="480"
     id="namedview3477"
     showgrid="false"
     fit-margin-top="0"
     fit-margin-left="0"
     fit-margin-right="0"
     fit-margin-bottom="0"
     inkscape:zoom="1.9032258"
     inkscape:cx="78.899"
     inkscape:cy="-59.099"
     inkscape:window-x="0"
     inkscape:window-y="0"
     inkscape:window-maximized="0"
     inkscape:current-layer="AvatarAssets" />
  <defs
     id="defs3367" />
  <g
     id="backHatMoose1"
     overflow="visible"
     style="overflow:visible"
     transform="translate(46.899,63.899)">
    <g
       id="backHatMoose_0">
      <g
         id="element">
        <g
           id="drawingObject">
          <path
             id="path"
             d="m 3.701,-49.299 c 0.1,-0.25 0.2,-0.5 0.4,-0.65 0.35,-0.35 0.8,-0.6 0.8,-0.6 0,0 -1.65,0.1 -2.35,0.45 l -0.35,0.2 -0.2,-0.2 2.2,-3.45 c 0,0 -1.8,0.5 -3.25,1.2 l -0.05,-0.45 c -0.35,-1.8 -1.15,-3 -1.15,-3 l 0.45,0.85 -0.45,-0.85 0,2.15 c 0,0.75 -0.4,1.7 -0.85,2.55 l -1,0.65 c 0,0 0.5,-1.95 0.25,-2.9 l -0.25,-0.9 c 0,0 -0.7,1.25 -1.75,2.45 l -1,1.15 c 0,0 0.2,-1.3 0.2,-2.2 l 0,-0.95 c 0,0 -0.9,2.1 -1.75,2.8 l -0.8,0.7 c 0,0 0.35,-0.95 0.25,-1.75 l -0.15,-0.8 c 0,0 -0.2,0.7 -2.75,2.9 -2.6,2.2 -2,1.55 -2,1.55 l 0.05,0.05 -0.05,-0.05 0,-1.85 c 0,-0.85 -0.3,-0.95 -0.3,-0.95 l 0.15,0.15 -0.15,-0.15 c 0,0 -0.6,1.9 -2.2,3.55 -2,2.1 -5.6,4.3 -7.8,7.05 -3.05,3.85 -2.85,4.1 -4.1,7.7 -1.3,3.65 -0.5,5.7 -0.5,5.7 l 0.7,-0.55 -0.6,2 0.6,-2 c 0,0 -1.25,3.6 -1.05,5.35 0.25,1.75 0.6,0.55 0.6,0.55 l 0.6,2.1 0.35,-1.75 0.05,2.25 -0.05,-2.25 c 0,0 -0.15,3.85 0.9,6.55 l 0.6,1.15 c -0.15,2.5 1.45,4.35 1.45,4.35 l 0,-0.25 -0.15,-1.45 2.05,3.6 c 0.7,1.15 4.85,5.35 6.35,6.5 1.5,1.15 3.85,2.15 3.85,2.15 0,0 -0.95,-0.55 -1.35,-0.9 l -1.4,-1.15 2.05,0.9 c 1.7,0.65 3.1,0.4 3.1,0.4 l -0.5,-0.25 -2.75,-1.9 1.9,0.6 c 1.95,0.6 4.7,0.4 4.7,0.4 l -1.75,-1.4 0.8,0.3 c 0.85,0.35 2.95,0.2 2.95,0.2 l -0.75,-0.45 c -0.75,-0.4 -1.85,-1.55 -1.85,-1.55 l 0.65,0.65 -0.65,-0.65 1.35,0.55 c 1.3,0.6 3.8,1.5 3.8,1.5 l -0.3,-0.55 -0.7,-1.85 0.95,0.6 c 0.9,0.6 1.05,0.9 1.05,0.9 l 0.2,-0.5 c 0.15,-0.5 0.9,-1.25 0.9,-1.25 l 0,0.5 c 0,0.5 -0.1,0.9 -0.1,0.9 l 1.6,-1.15 -0.15,0.75 c -0.2,0.75 -0.95,1.4 -0.95,1.4 l 1,-0.5 c 1,-0.5 3.1,-2.4 3.1,-2.4 l -0.5,1.65 c -0.25,0.65 -0.9,1.3 -1.95,1.85 l 0,-0.025 4.6,-2.125 -0.3,1.15 c -0.35,1.2 -1.7,2.15 -1.7,2.15 l 0.5,-0.3 c 0.5,-0.35 5.2,-2 5.2,-2 l -0.7,0.65 c -0.65,0.7 -1.8,2.65 -1.8,2.65 l 0.65,-1.05 -0.65,1.05 0.65,-0.25 -0.65,0.25 c 0,0 0.9,-0.2 2.55,-1.4 0.7,-0.5 2,-1.9 2.4,-2.25 l 0.05,0 0.85,-0.8 c 2.2,-1.9 5.35,-4.65 5.95,-6.7 l 0.25,-0.85 0.15,-0.25 -0.15,1.45 0,0.25 c 0,0 1.55,-1.85 1.45,-4.35 l 0.55,-1.15 c 0.75,-1.9 0.9,-4.4 0.95,-5.65 l 0.1,-0.4 0.25,1.25 0.55,-2.1 0.2,0.4 -0.2,-0.4 c 0,0 0.35,1.2 0.6,-0.55 0.1,-0.9 -0.15,-2.25 -0.45,-3.4 l 0.45,-3.1 q 0.2,-1.4 -0.45,-2.75 l -0.35,-1.25 c -1.3,-3.6 -1.1,-3.85 -4.1,-7.7 -0.65,-0.8 -1.4,-1.55 -2.2,-2.25 -0.55,-0.65 -1.25,-1.4 -2.25,-2.2 -4.65,-3.7 -10.85,-4.05 -13.2,-4 z"
             inkscape:connector-curvature="0"
             style="fill:#f4f1d9" />
        </g>
        <g
           id="drawingObject1">
          <path
             id="path1"
             d="m 2.201,-46.849 0.95,-1.3 -2.85,1.35 0.05,-1.05 c 0,-0.7 0.55,-1.7 0.55,-1.7 l -0.25,0.6 0.25,-0.6 c 0,0 -0.35,0.5 -1.65,1.95 l -2.85,3.05 1,-3.9 c 0,0 -0.35,0.85 -1,1.85 -0.6,1 -3.35,2.15 -3.35,2.15 0,0 0.35,-0.6 0.8,-1.75 l 1.05,-3.35 c 0,0 -0.5,0.7 -1.2,1.35 l -2.9,2.35 0.4,-0.7 c 0.45,-0.65 1,-2.15 1,-2.15 l -1.35,1.5 c -0.75,0.85 -3.5,3 -3.5,3 l 1.45,-1.2 -1.45,1.2 c 0,0 0.55,-0.9 0.8,-1.65 l 0.45,-1.5 -0.65,0.8 c -0.6,0.85 -2.45,2.45 -4.65,4.1 -2.2,1.65 -5.95,5.4 -7.45,8 -1.5,2.6 -1.95,5.85 -1.95,5.85 l 0.95,-1.85 c 0.65,-1.15 3.1,-3.25 3.1,-3.25 l -1.15,1.8 c -1.15,1.85 -2.1,3.7 -2.55,5.95 -0.45,2.25 -0.45,3.65 -0.45,3.65 l 0.6,-1.25 c 0.45,-0.9 2.4,-2.75 2.4,-2.75 l -0.9,2 c -0.5,1.5 -0.7,3.65 -0.7,5.85 0,1.25 0.25,2.7 0.45,3.9 l 0.4,0.75 c -0.1,2.5 1.55,4.35 1.55,4.35 l 0,-0.25 -0.2,-1.45 2.2,3.6 c 0.65,1.05 4.1,4.35 6,5.95 0.7,-0.75 1.6,-1.4 2.75,-1.8 q 3.4,-1.25 8.45,-1.75 4.15,-0.45 8.65,-0.3 c 3.5,0.1 5.65,0.95 9.05,0.8 l 1.25,-1.4 0,0.1 1.85,-0.05 0.1,-0.2 c 1.05,-2.6 0.35,-5.4 0.35,-5.4 l 0.2,1.75 -0.2,-1.75 0.8,2.4 c 0,0 2.65,-2.2 3.1,-4.2 l 0.2,-0.85 0.2,-0.2 c 0.55,-0.5 2.3,-2.1 2.8,-4.6 0.55,-2.5 -0.85,-5.8 -0.85,-5.8 l 0.65,1.95 -0.65,-1.95 1.15,0.3 c 0,0 -0.45,-0.65 -1.05,-2.25 -0.65,-1.55 -0.7,-6.05 -2.15,-8.65 -1.4,-2.6 -7.1,-7.9 -10.8,-9.6 -3.7,-1.65 -9.25,-1.8 -9.25,-1.8 z"
             inkscape:connector-curvature="0"
             style="fill:#e8e5cd" />
        </g>
        <g
           id="drawingObject2">
          <path
             id="path2"
             d="m 3.051,-18.399 -0.25,-1.1 -1,2.6 c -0.5,1.15 -1.5,2.75 -1.5,2.75 0,0 0,-1.1 -0.5,-3.1 -0.5,-2 -2,-5.65 -2,-5.65 l 0.8,2.1 -0.8,-2.1 0,2.9 c 0,2.25 -2.75,7.5 -2.75,7.5 l -0.5,-1.4 c -0.5,-1.35 -1.1,-4.1 -1.1,-4.1 l 0.35,1.55 -0.35,-1.55 -0.75,2 c -0.75,2 -0.75,4.35 -0.75,4.35 l -0.65,-1.1 c -0.6,-1.15 -1.85,-5.4 -1.85,-5.4 l 0.7,2.25 -0.7,-2.25 -0.25,3.4 c -0.25,2.6 0,3.25 0,3.25 l -1.25,-1.9 c -1.25,-1.85 -2.65,-9 -2.65,-9 l 0.85,3.8 -0.85,-3.8 -0.6,3.9 c -0.4,2.1 0.5,6.5 0.5,6.5 l -1.65,-1.9 c -1.6,-1.85 -2,-5.25 -2,-5.25 l 0.4,1.95 -0.4,-1.95 0.4,6 -2,-3.35 c -2,-3.4 -0.75,-10.15 -0.75,-10.15 l -0.35,3.8 0.35,-3.8 -0.5,1.3 0.5,-1.3 c 0,0 -0.9,2 -1.4,4.25 -0.5,2.25 -0.5,5.25 -0.5,5.25 l -0.85,-2.1 c -0.9,-2.15 -0.4,-5.25 -0.4,-5.25 l -0.15,1.8 0.15,-1.8 -0.25,0.2 c -0.5,1.5 -0.65,3.65 -0.65,5.85 0,1.25 0.2,2.7 0.4,3.9 l 0.4,0.75 c -0.15,2.5 1.45,4.35 1.45,4.35 l 0,-0.25 -0.15,-1.45 2.05,3.6 c 0.7,1.15 4.85,5.35 6.35,6.5 1.5,1.15 3.85,2.15 3.85,2.15 0,0 -0.95,-0.55 -1.35,-0.9 l -1.4,-1.15 2.05,0.9 c 1.7,0.65 3.1,0.4 3.1,0.4 l -0.5,-0.25 -2.75,-1.9 1.9,0.6 c 1.95,0.6 4.7,0.4 4.7,0.4 l -1.75,-1.4 0.8,0.3 c 0.85,0.35 2.95,0.2 2.95,0.2 l -0.75,-0.45 c -0.75,-0.4 -1.85,-1.55 -1.85,-1.55 l 0.65,0.65 -0.65,-0.65 1.35,0.55 c 1.3,0.6 3.8,1.5 3.8,1.5 l -0.3,-0.55 -0.7,-1.85 0.95,0.6 c 0.9,0.6 1.05,0.9 1.05,0.9 l 0.2,-0.5 c 0.15,-0.5 0.9,-1.25 0.9,-1.25 l 0,0.5 c 0,0.5 -0.1,0.9 -0.1,0.9 l 1.6,-1.15 -0.15,0.75 c -0.2,0.75 -0.95,1.4 -0.95,1.4 l 1,-0.5 c 1,-0.5 3.1,-2.4 3.1,-2.4 l -0.5,1.65 c -0.25,0.65 -0.9,1.3 -1.95,1.85 l 0,-0.025 4.6,-2.125 -0.3,1.15 c -0.35,1.2 -1.7,2.15 -1.7,2.15 l 0.5,-0.3 c 0.5,-0.35 5.2,-2 5.2,-2 l -0.7,0.65 -0.25,0.3 -0.05,0.1 -0.2,0.25 -0.1,0.1 -0.25,0.4 -0.1,0.1 -0.25,0.45 -0.15,0.15 -0.45,0.8 0.65,-0.25 -0.65,0.25 c 0,0 0.9,-0.2 2.55,-1.4 0.7,-0.5 2,-1.9 2.4,-2.25 l 0.05,0 0.85,-0.8 c 2.2,-1.9 5.35,-4.65 5.95,-6.7 l 0.25,-0.85 0.15,-0.25 -0.15,1.45 0,0.25 c 0,0 0.85,-1 1.25,-2.55 l -0.1,-0.15 0.25,-0.75 0.05,-0.9 0.8,-1.8 0,-0.15 c 0.25,-1.25 -0.75,-3.4 -0.75,-3.4 l 0.45,1.25 -0.45,-1.25 -0.25,1.65 c -0.85,4.75 -3.6,6.5 -3.6,6.5 l 1.5,-1.45 -1.5,1.45 1.5,-5.25 c 0.1,-0.5 -0.25,-2.15 -0.25,-2.15 l 0.15,0.9 -0.15,-0.9 c 0,0 -3.85,6.9 -3.65,6.25 0.4,-1.1 -0.35,-7.6 -0.35,-7.6 l 0,0.5 c 0,0.5 -1.4,7.25 -1.4,7.25 0,0 0.4,-2.65 0.25,-3.9 -0.1,-1.25 -1.25,-3.6 -1.25,-3.6 l 0.6,1.35 -0.6,-1.35 -0.1,3 c -0.15,3.85 -1.75,4.75 -1.75,4.75 l 0.8,-0.95 -0.8,0.95 c 0,0 0.75,-2.25 0.75,-4.75 0,-2.5 -1.15,-4.75 -1.15,-4.75 l 0.6,1.45 -0.6,-1.45 0.1,2.3 -0.1,-2.3 c 0,0 0.5,3.75 -0.6,7 -0.5,1.45 -2.15,3.5 -2.15,3.5 0,0 0.9,-2.75 0.9,-6.75 0,-4 -1.5,-8.4 -1.5,-8.4 l 0.75,2.7 -0.75,-2.7 -0.15,3.25 c -0.6,9.9 -5.35,11.65 -5.35,11.65 l 2.45,-2.1 -2.45,2.1 0.1,-4.75 c 0,-1.75 -0.5,-3.5 -0.5,-3.5"
             inkscape:connector-curvature="0"
             style="fill:#dcd9c3" />
        </g>
        <g
           id="group1">
          <g
             id="drawingObject3">
            <path
               id="path3"
               d="m -24.449,-14.549 0.4,0.75 c -0.15,2.5 1.45,4.35 1.45,4.35 l 0,-0.25 -0.15,-1.45 2.05,3.6 c 0.7,1.15 4.85,5.35 6.35,6.5 1.5,1.15 3.85,2.15 3.85,2.15 0,0 -0.95,-0.55 -1.35,-0.9 l -1.4,-1.15 2.05,0.9 c 1.7,0.65 3.1,0.4 3.1,0.4 l -0.5,-0.25 -2.75,-1.9 1.9,0.6 c 1.95,0.6 4.7,0.4 4.7,0.4 l -1.75,-1.4 0.8,0.3 c 0.85,0.35 2.95,0.2 2.95,0.2 l -0.75,-0.45 c -0.75,-0.4 -1.85,-1.55 -1.85,-1.55 l 0.65,0.65 -0.65,-0.65 1.35,0.55 c 1.3,0.6 3.8,1.5 3.8,1.5 l -0.3,-0.55 -0.7,-1.85 0.95,0.6 c 0.9,0.6 1.05,0.9 1.05,0.9 l 0.2,-0.5 c 0.15,-0.5 0.9,-1.25 0.9,-1.25 l 0,0.5 c 0,0.5 -0.1,0.9 -0.1,0.9 l 1.6,-1.15 -0.15,0.75 c -0.2,0.75 -0.95,1.4 -0.95,1.4 l 1,-0.5 c 1,-0.5 3.1,-2.4 3.1,-2.4 l -0.5,1.65 c -0.25,0.65 -0.9,1.3 -1.95,1.85 l 0,-0.025 4.6,-2.125 -0.3,1.15 c -0.35,1.2 -1.7,2.15 -1.7,2.15 l 0.5,-0.3 c 0.5,-0.35 5.2,-2 5.2,-2 l -0.7,0.65 -0.25,0.3 -0.05,0.1 -0.2,0.25 -0.1,0.1 -0.25,0.4 -0.1,0.1 -0.25,0.45 -0.15,0.15 -0.45,0.8 0.65,-0.25 -0.65,0.25 c 0,0 0.9,-0.2 2.55,-1.4 0.7,-0.5 2,-1.9 2.4,-2.25 l 0.05,0 0.85,-0.8 c 2.2,-1.9 5.35,-4.65 5.95,-6.7 l 0.2,-0.7 0,-0.1 c -0.2,0.2 -1.15,1.2 -3.35,2.95 q -1.55,1.25 -3.7,2.35 l -1.8,0.85 4.35,-4.85 -2.35,1.85 c -2.35,1.85 -4.85,2 -4.85,2 l 1.55,-0.3 -1.55,0.3 1,-0.85 c 1,-0.85 2.2,-2.85 2.2,-2.85 l -1.85,1 c -1.85,1 -5.15,1.35 -5.15,1.35 l 1.9,-0.3 -1.9,0.3 0,-2.15 c 0,0 -0.5,0.8 -1,1.3 -0.5,0.5 -2.35,1.5 -2.35,1.5 l 1,-0.55 -1,0.55 -4.65,-3 0.1,0.5 -0.1,-0.5 c 0,0 0.15,0.85 0.5,1.35 0.3,0.5 2.3,2.35 2.3,2.35 0,0 -0.8,0 -3.5,-0.2 -2.65,-0.15 -6.65,-2.65 -6.65,-2.65 l 2.35,1.25 -2.35,-1.25 0.65,0.85 c 0.7,0.85 4,2.15 4,2.15 l -3.5,-0.65 c -3.5,-0.65 -8,-4.2 -8,-4.2 l 2.7,1.85 -2.7,-1.85 0.35,0.7 c 0.35,0.65 3.15,3 3.15,3 l -3.15,-1.7 c -3.15,-1.65 -5.85,-5.65 -5.85,-5.65 l 1.75,2.2 -1.75,-2.2 0,0.65 c 0,0.7 0.85,2.35 0.85,2.35 l -1.65,-1.65 c -0.8,-0.8 -1.7,-1.95 -2.4,-2.9 l 0.2,1.3 z"
               inkscape:connector-curvature="0"
               style="fill:#d0cdb8" />
          </g>
          <g
             id="drawingObject4">
            <path
               id="path4"
               d="m 21.801,-11.149 c 0,0 0.6,-2.15 0.1,-1.15 q -0.15,0.25 -0.15,1.2 l 0.05,-0.05 z"
               inkscape:connector-curvature="0"
               style="fill:#d0cdb8" />
          </g>
        </g>
        <g
           id="drawingObject5">
          <path
             id="path5"
             d="m -16.249,-39.199 -0.6,0.15 0.15,-0.5 -0.15,0.5 c 0,0 0.15,-1 0.85,-1.15 0.75,-0.2 1.05,-0.45 1.05,-0.45 0,0 -1.75,0.5 -3.05,1.1 l -1.35,0.6 c 0,0 -0.4,-0.6 0.1,-0.85 0.5,-0.25 1,-0.85 1,-0.85 0,0 -0.7,0.25 -1.5,0.75 l -1.1,0.7 0,-0.5 q -0.4,0.2 -1.45,1.4 -1.15,1.3 -1.65,2.25 c -0.7,1.4 -1.05,2.65 -1.05,2.65 l 1.6,-2 -1.6,2 c 0,0 2.95,-3.9 3.75,-4.5 l 0.8,-0.55 -2.7,4.3 c 0.25,-0.25 2,-2.15 3.45,-3.3 l 1.45,-1.2 -1.75,3.75 c -0.35,1.1 -0.65,3.35 -0.6,3.1 0.1,-0.25 1.65,-2.9 2.7,-4.15 l 1.1,-1.25 -0.4,1.25 0.4,-1.25 c 0,0 -0.7,2.15 -0.95,3.65 -0.2,1.5 -0.2,2.5 -0.2,2.5 0,0 0.65,-2.25 1.1,-2.9 l 0.45,-0.7 0.05,4.7 c 0,0 0.1,-1.35 0.75,-2.95 0.65,-1.55 2.95,-3.05 2.95,-3.05 l -0.4,1.2 0.4,-1.2 c 0,0 -0.8,2.15 -0.85,3.25 l -0.15,1.4 1.25,-2.9 0.5,-0.85 -0.2,2.1 0,0.65 0.8,-1.85 c 0.5,-1.3 1.75,-1.65 1.75,-1.65 l -0.1,3.9 c 0,0 1.4,-2.3 1.7,-3.05 l 0.3,-0.75 0.05,2.05 0.8,-1.5 1.3,3.5 c 0,0 0,-1.4 0.15,-2.25 l 0.25,-1.15 0.35,1.9 0,0.6 0.35,-2.85 0.8,0.95 0.1,0.25 c 0,0 0.15,-0.7 0,-1.35 l -0.4,-1.5 -0.15,0.6 -0.65,0.05 0,0.7 -0.65,-0.85 -0.55,1.35 c 0,0 -0.3,-1 -0.25,-1.45 l 0.1,-0.4 c 0,0 -0.4,0.4 -0.6,0.75 l -0.2,0.35 c 0,0 -0.25,-0.1 -0.25,-0.7 0,-0.55 -0.55,0.35 -0.55,0.35 l 0.3,-0.4 -0.3,0.4 c 0,0 -0.15,-0.9 0.05,-1.25 l 0.2,-0.35 -1.6,1.35 c 0,0 -0.2,-0.85 0.3,-1.25 l 0.5,-0.4 c 0,0 -1.3,0.25 -2.25,1 l -0.95,0.75 1.45,-1.75 c 0,0 -1.3,0.05 -2,0.65 l -0.75,0.6 0.55,-0.65 -0.55,0.65 c 0,0 0.95,-1.25 1.45,-1.6 l 0.5,-0.35 c 0,0 -1.45,0.3 -2.9,1.2 l -1.8,1.15 0.3,-0.7 -0.3,0.7 c 0,0 0.5,-1.25 1,-1.75 l 0.5,-0.5 c 0,0 -1.25,0.5 -1.6,0.75 l -0.35,0.25 c 0,0 0.05,-0.65 0.35,-1 0.3,-0.35 1.25,-1.1 1.25,-1.1 l -1.95,0.7 z"
             inkscape:connector-curvature="0"
             style="fill:#f4f1d9" />
        </g>
        <g
           id="drawingObject6">
          <path
             id="path6"
             d="m 6.051,-36.199 -0.5,-0.35 0.45,0.75 q 0.4,0.85 0.4,1.15 l 0,0.5 c 0,0 0.25,-0.8 0.15,-1.3 -0.05,-0.5 -1,-1.1 -1,-1.1"
             inkscape:connector-curvature="0"
             style="fill:#f4f1d9" />
        </g>
        <g
           id="drawingObject7">
          <path
             id="path7"
             d="m 10.451,-38.599 -0.4,-0.1 2.1,1.4 c 0,0 -0.35,0 -1.15,-0.35 l -0.85,-0.3 1.5,1.15 c 0,0 -0.65,-0.15 -1.1,-0.5 l -1.4,-0.85 1.35,1.5 -2.35,-0.5 0.8,0.7 q 0.9,0.8 1.2,1.5 l 0.65,1.5 c 0,0 0.1,-0.25 0,-0.95 l -0.15,-1.05 0.7,0.5 -0.7,-0.5 c 0,0 1.25,0.75 2,1.55 0.75,0.85 0.9,1.35 0.9,1.35 0,0 -0.25,-1.6 -0.55,-2.5 l -0.35,-0.9 1.25,0.55 -1.25,-0.55 c 0,0 2.25,0.9 3.1,1.8 0.8,0.95 1.15,1.2 1.15,1.2 0,0 -0.5,-1.6 -1.1,-2.7 l -0.8,-1.4 1.5,0.5 -1.5,-0.5 c 0,0 2.75,0.7 3.8,1.85 l 1.1,1.15 c 0,0 -0.85,-2.15 -1.75,-3.1 -0.9,-0.9 -1.25,-1.55 -2.35,-1.8 l -1.05,-0.25 1.15,1 0.35,0.25 c 0,0 -1.2,-0.75 -2.2,-0.95 l -1,-0.15 1.5,0.9 0.2,0.25 c 0,0 -1.2,-0.65 -2.2,-1.05 -1,-0.45 -1.4,-0.45 -1.4,-0.45 l 0.35,0.05 -0.35,-0.05 2.25,1.85 c 0,0 -1.1,-0.25 -1.9,-0.65 -0.85,-0.45 -1.45,-0.5 -1.45,-0.5"
             inkscape:connector-curvature="0"
             style="fill:#f4f1d9" />
        </g>
        <g
           id="drawingObject8">
          <path
             id="path8"
             d="m 19.101,-38.149 -1.6,-0.9 1.15,1 q 1.2,1.2 1.75,2.15 c 0.85,1.5 1.1,2.2 1.1,2.2 0,0 -0.35,-2.2 -0.6,-2.95 -0.25,-0.75 -3.4,-2.4 -3.4,-2.4"
             inkscape:connector-curvature="0"
             style="fill:#f4f1d9" />
        </g>
        <g
           id="drawingObject9">
          <path
             id="path9"
             d="m -15.449,-1.399 c 1.75,0.9 2.1,0.9 2.1,0.9 l -5.4,-8.2 -5,-4 1.8,3.2 -1.8,-3.2 c 0,0 3.75,6 3.25,7.75 -0.5,1.75 -1.5,2.25 -1.5,2.25 0,0 0.75,0.35 0.85,0.15 -0.4,0.45 -0.8,0.7 -1.2,0.65 l -0.75,-0.05 0.05,0.15 -0.05,-0.15 c 0,0 0,0.25 0.5,0.35 l 0.5,0.15 c 0,0 -0.5,0.35 -0.55,1.35 l -0.05,1 0.55,-1.05 0.25,-0.25 -0.05,0.9 0.05,-0.9 c 0,0 -0.45,1.65 0.75,2.3 l 1.2,0.7 c 0,0 -0.55,-0.7 -0.55,-1.2 l 0,-0.5 0.15,0.5 -0.15,-0.5 c 0,0 -0.1,0.9 1.5,1.1 1.55,0.15 2.5,0.05 2.5,0.05 0,0 -1.1,-0.05 -1.25,-0.8 -0.2,-0.75 -0.4,-1.75 0.05,-2.45 l 0.45,-0.7 -0.15,1 0,0.65 0.3,-0.9 -0.3,0.9 c 0,0 0.2,-2 1.95,-1.15 z"
             inkscape:connector-curvature="0"
             style="fill:#d0cdb8" />
        </g>
        <g
           id="drawingObject10">
          <path
             id="path10"
             d="m 13.901,-1.399 c 1.75,-0.85 1.95,1.15 1.95,1.15 l -0.1,-1.65 0.4,0.7 c 0.45,0.7 0.25,1.7 0.1,2.45 -0.2,0.75 -1.25,1.05 -1.25,1.05 l 0.45,0 -0.45,0 c 0,0 0.55,0.05 2.1,-0.15 1.55,-0.15 1.9,-1.25 1.9,-1.25 l 0,0.5 c 0,0.5 -0.7,1.5 -0.7,1.5 l 1.25,-0.6 c 1.2,-0.7 0.8,-2.7 0.8,-2.7 l 0.25,0.25 c 0.25,0.25 0.45,1.75 0.45,1.75 0,0 0.35,-0.3 0.3,-1.3 -0.05,-1 -0.8,-1.75 -0.8,-1.75 l 0.4,0.5 -0.4,-0.5 0.5,-0.15 c 0.5,-0.1 1,0.25 1,0.25 0,0 -0.45,-0.75 -1.2,-0.65 -0.45,0 -0.9,-0.25 -1.2,-0.55 q 0.3,0.1 1.4,-0.1 c 0,0 -1.5,-0.25 -2.05,-2.3 -0.25,-0.75 0.35,-2.3 1.05,-3.8 -1.6,1.9 -3.6,3.45 -5.85,4.6 l -2.4,3.65 0.4,-0.1 -0.4,0.1 c 0,0 0.35,0 2.1,-0.9 z"
             inkscape:connector-curvature="0"
             style="fill:#d0cdb8" />
        </g>
        <g
           id="group2">
          <g
             id="drawingObject11">
            <path
               id="path11"
               d="m 39.551,-51.349 c 1.45,-1.5 3.75,-1.55 4.8,-3.65 -1.75,1 -4.1,2.75 -6,2.95 0.35,-2.95 3.55,-4.25 4.75,-6.65 -2.55,1.05 -2.95,3.4 -6.05,4.2 0.2,-2.75 1.95,-6.45 3.15,-9.3 -2.9,2.3 -2.75,8.85 -5.95,11 -1.6,-3.05 1.25,-7.85 0.7,-11.05 -1.65,0.85 -0.35,5.65 -2.5,6.15 -2.5,-1.6 0.05,-5 -0.95,-6.2 -1.5,2.7 -0.15,8.1 -0.65,10.3 -1.55,-0.15 -2.4,-6.6 -3,-8.25 -0.8,4.15 1.7,14.2 1.95,19.8 0.2,4.2 -2.05,5.75 -7.25,6.55 -0.2,0.5 -0.95,2.1 0.6,3.7 1.55,-0.5 2.75,-1.7 4.6,-2.05 1.6,-0.25 2.9,0.55 4.65,0.75 4.15,0.55 10.3,-1.3 12.65,-4 -1.7,0.75 -3,1.7 -5.1,2.15 -1.3,0.25 0.45,-0.65 0,-1.25 -2.4,2.25 -7,2.5 -8.6,0.6 0.15,-1.4 1.2,-2.4 2.35,-2.95 4.4,-2.15 9.25,-2.05 12.15,-6.4 0.4,-0.65 0.6,-1.85 1.05,-2.6 l -0.15,-0.75 c -1.05,3.35 -5.85,7.35 -9.95,6.85 0.25,-3.65 0.4,-7.55 2.75,-9.9 z"
               inkscape:connector-curvature="0"
               style="fill:#9c622c" />
          </g>
          <g
             id="group3">
            <g
               id="drawingObject12">
              <path
                 id="path12"
                 d="m 30.851,-44.549 c -0.1,-1.1 -2.35,-10.6 -2.75,-12.25 -0.35,-1.6 -0.25,-5.05 -0.25,-5.05 l 0,1.95 0,-1.95 c -0.8,4.15 1.7,14.2 1.95,19.8 0.05,1.1 -0.05,2 -0.35,2.75 q 1.6,-0.45 1.7,-2.5 -0.25,-2.2 -0.3,-2.75 z"
                 inkscape:connector-curvature="0"
                 style="fill:#814f22" />
            </g>
            <g
               id="drawingObject13">
              <path
                 id="path13"
                 d="m 32.401,-33.099 c 3.15,0.4 7.4,-0.55 10.3,-2.2 l -0.9,0.25 c -0.95,0.3 -3.7,0.85 -4.55,1 -0.85,0.1 -2.5,0.4 -4.45,0.3 -0.7,-0.05 -1.35,-0.2 -1.85,-0.35 l 0.75,0.05 c 0.95,0.05 1.2,0 1.2,0 l -0.35,0 c -0.35,0 -1.75,-0.45 -2.05,-0.6 -0.3,-0.15 -1,-0.8 -1.25,-1.2 -0.3,-0.35 -0.05,-0.9 -0.05,-0.9 l -0.1,0.3 0.1,-0.3 -0.7,0.75 c -0.25,0.4 -0.35,0.4 -0.55,0.8 -0.25,0.4 -0.4,0.2 -0.95,0.45 -0.55,0.3 -0.6,0.4 -1.15,0.85 -0.55,0.4 -0.7,0.3 -1.4,0.6 -0.65,0.3 -0.7,-0.2 -0.7,-0.2 l 0.1,0.2 -0.1,-0.2 0.35,-0.1 c 0.4,-0.1 0.95,-0.4 0.95,-0.4 l -1.15,0.15 -0.75,-0.1 0.45,-0.1 c 0.4,-0.1 2.35,-1.2 2.35,-1.2 l -0.3,0.15 c -0.3,0.15 -1,0.25 -2,0.45 -0.95,0.25 -0.95,0.15 -1,-0.15 l -0.1,-0.7 c -0.2,0.5 -0.95,2.1 0.6,3.7 1.55,-0.5 2.75,-1.7 4.6,-2.05 1.6,-0.25 2.9,0.55 4.65,0.75 z"
                 inkscape:connector-curvature="0"
                 style="fill:#814f22" />
            </g>
          </g>
          <g
             id="group4">
            <g
               id="drawingObject14">
              <path
                 id="path14"
                 d="m 39.501,-35.049 c 0.15,-0.25 0.75,-0.75 0.45,-1.15 l -0.05,0.05 -0.3,0.45 c -0.5,0.6 -1.4,0.9 -1.65,1.1 q 1.004,-0.222 1.55,-0.45 z"
                 inkscape:connector-curvature="0"
                 style="fill:#814f22" />
            </g>
          </g>
          <g
             id="group5">
            <g
               id="drawingObject15">
              <path
                 id="path15"
                 d="m 32.901,-39.299 c -0.25,0.05 -1.2,0.6 -1.65,1.15 -0.4,0.6 -0.55,0.9 -0.75,0.95 l -0.2,0.05 0.3,0.7 c 0.1,0.1 0.3,0.6 0.75,0.85 q 0.2,-1.9 2.35,-2.95 c 4.4,-2.15 9.25,-2.05 12.15,-6.4 0.4,-0.65 0.6,-1.85 1.05,-2.6 l -0.05,-0.35 -0.15,0.5 c -0.2,0.55 -0.65,1.8 -2.35,3.35 -1.7,1.6 -3.15,2.55 -4.75,3.05 -1.6,0.5 -3.45,0.95 -3.95,1.2 l -0.5,0.2 0.9,-0.75 c -0.5,0.15 -1.1,0.4 -1.65,0.7 -1,0.6 -2.1,1.4 -2.5,1.75 l -0.35,0.3 0.9,-1.3 c 0.45,-0.4 0.7,-0.4 0.45,-0.4 z"
                 inkscape:connector-curvature="0"
                 style="fill:#814f22" />
            </g>
          </g>
          <g
             id="drawingObject16">
            <path
               id="path16"
               d="m 39.551,-51.349 c 1.1,-1.15 2.75,-1.45 3.9,-2.5 l -0.45,0.3 c -1.3,0.7 -3.55,1.65 -4.25,2.1 -0.75,0.5 -1.55,1.15 -1.85,2.55 -0.35,1.4 -0.4,2.45 -0.4,2.45 l 0.45,-1.55 -0.65,3.6 q -0.35,1.6 -0.9,2.3 l -0.6,0.6 0.5,0 -0.45,0.5 0.65,-0.2 -0.65,0.2 c 0,0 1.05,-0.4 1.95,-0.5 0.25,-3.65 0.4,-7.5 2.75,-9.85 z"
               inkscape:connector-curvature="0"
               style="fill:#814f22" />
          </g>
          <g
             id="drawingObject17">
            <path
               id="path17"
               d="m 37.601,-52.199 -0.7,1.65 0.45,-0.6 q 0.55,-0.65 1,-1 c 0.4,-2.8 3.4,-4.1 4.65,-6.45 -0.45,0.5 -1.15,1.2 -1.8,1.7 -1,0.85 -2.9,2.5 -3.3,3.35 l -0.8,1.25 0.5,0.1 z"
               inkscape:connector-curvature="0"
               style="fill:#814f22" />
          </g>
          <g
             id="drawingObject18">
            <path
               id="path18"
               d="m 34.951,-63.849 -0.25,0.7 -0.2,1.85 c -0.1,0.9 -0.15,1.2 -0.4,2.1 -0.25,0.95 -0.35,1.75 -0.35,1.75 0,0 0.9,-2.4 1.05,-3.6 0.15,-1.15 0.1,-1.95 0.1,-2.2 l 0.05,-0.6 z"
               inkscape:connector-curvature="0"
               style="fill:#b67337" />
          </g>
          <g
             id="drawingObject19">
            <path
               id="path19"
               d="m 31.651,-63.699 -0.25,0.4 -0.1,0.25 c -0.1,0.35 -0.1,0.9 -0.1,1.5 -0.05,0.75 -0.2,1.75 -0.1,2.55 0.1,0.75 0.35,1.15 0.8,1.55 0.4,0.45 0.7,0.55 0.9,0.55 l 0.15,0 -0.75,-0.75 c -0.3,-0.3 -0.5,-0.9 -0.6,-1.5 -0.05,-0.6 -0.15,-1.65 -0.05,-2.6 l 0.15,-1.25 c 0,-0.4 0.1,-0.65 -0.05,-0.7 z"
               inkscape:connector-curvature="0"
               style="fill:#b67337" />
          </g>
          <g
             id="drawingObject20">
            <path
               id="path20"
               d="m 33.451,-54.549 c 0,0 0,-1.15 -0.1,-0.85 l -0.1,1.1 c 0,0.65 0.2,1 0.35,1.35 0.15,0.3 0.3,0.6 0.8,0.85 0.5,0.25 0.4,-0.25 0.4,-0.25 0,0 -0.2,-0.05 -0.55,-0.45 l -0.8,-1.75 z"
               inkscape:connector-curvature="0"
               style="fill:#b67337" />
          </g>
          <g
             id="drawingObject21">
            <path
               id="path21"
               d="m 39.701,-63.049 0.45,-0.65 c -0.3,0.45 -1.15,1.55 -1.25,1.95 -0.2,0.6 -0.3,0.8 -0.65,1.45 -0.35,0.6 -1.2,3.35 -1.5,4.55 q -0.25,1.25 -0.15,1.4 l 0.65,-0.1 c 0,0 -0.15,-0.25 -0.15,-0.75 -0.05,-0.45 1.2,-3.75 1.45,-4.4 0.05,-0.15 0.35,-0.85 0.85,-2.2 0.35,-1.05 0.6,-1.65 0.75,-1.9"
               inkscape:connector-curvature="0"
               style="fill:#b67337" />
          </g>
          <g
             id="drawingObject22">
            <path
               id="path22"
               d="m 40.701,-53.049 c -0.7,0.35 -1.8,0.7 -2.35,0.9 -0.5,0.25 -1.8,2.4 -1.85,2.6 0,0.15 0.55,-1 1.1,-1.6 0.55,-0.6 0.75,-0.7 1.15,-0.8 0.4,-0.1 2.2,-0.75 2.8,-1.1 q 1.3,-0.7 1.5,-0.95 l 1.1,-1 c 0,0 -0.7,0.6 -1.45,0.95 l -2,1 z"
               inkscape:connector-curvature="0"
               style="fill:#b67337" />
          </g>
          <g
             id="drawingObject23">
            <path
               id="path23"
               d="m 36.051,-41.199 c -0.45,0.2 -0.85,0.35 -1,0.5 -0.2,0.2 -0.35,0.4 -0.4,0.45 l -0.025,-0.025 0.825,-0.375 c 0.8,-0.25 1.5,-0.3 2.05,-0.25 q 0.9,0.25 1.95,-0.4 c 1,-0.6 2.75,-0.8 3.5,-1.65 0.75,-0.8 1.7,-1.55 2.25,-2.15 0.55,-0.6 0.9,-1.2 1,-1.55 l 0.65,-1.25 c 0,0 -1,1.2 -1.4,1.8 -0.35,0.65 -1.5,1.75 -2.2,2.3 -0.75,0.55 -2.55,1.7 -3.15,1.9 -0.6,0.2 -1.75,0.65 -2.5,0.6 -0.75,-0.05 -1.05,-0.1 -1.55,0.1 z"
               inkscape:connector-curvature="0"
               style="fill:#b67337" />
          </g>
          <g
             id="drawingObject24">
            <path
               id="path24"
               d="m 26.601,-36.099 -2.65,0.7 1.15,-0.15 c 0.7,-0.2 1.65,-0.25 1.95,-0.25 0.3,0.05 0.7,-0.2 1.05,-0.35 0.3,-0.15 0.9,-1.55 0.9,-1.55 l -0.85,0.75 -1.55,0.85 z"
               inkscape:connector-curvature="0"
               style="fill:#b67337" />
          </g>
          <g
             id="drawingObject25">
            <path
               id="path25"
               d="m 33.551,-34.149 0.65,0 -2.7,-1.25 c -0.65,-0.35 -1.15,-0.85 -1.3,-1.2 l -0.2,-0.35 0,0.85 0.05,0.25 q 0.15,0.3 0.75,0.5 c 0.95,0.3 2.1,1.15 2.75,1.2 z"
               inkscape:connector-curvature="0"
               style="fill:#b67337" />
          </g>
          <g
             id="drawingObject26">
            <path
               id="path26"
               d="m 29.701,-36.849 c -0.15,-0.25 -0.35,0.2 -0.35,0.35 0,0.2 0.05,0.25 0.4,0.4 q 0.1,0.05 0.1,-0.2 0,-0.3 -0.15,-0.55 z"
               inkscape:connector-curvature="0"
               style="fill:#b67337" />
          </g>
          <g
             id="drawingObject27">
            <path
               id="path27"
               d="m 30.101,-52.849 0,1.15 q 0,5.25 0.15,6.6 l 0.25,1.1 -0.25,-1.1 c 0,0 0.6,1.4 0.1,4.5 -0.5,3.15 -1.35,3.25 -0.35,2.4 0.95,-0.9 3.15,-2.25 3.15,-2.25 l -1.2,0.35 0.65,-0.7 -0.65,0.7 c 0,0 1.1,-1.1 1.8,-2.25 0.75,-1.1 1.3,-1.1 1.55,-2.6 l 0.55,-5.15 c 0,0 -0.5,0.4 -1,1.4 l -0.7,1.5 0.35,-3.9 -1,1.65 c -0.65,0.95 -0.7,3.55 -0.7,3.95 l 0,-0.025 0,-0.425 c 0,-0.9 0.25,-1.15 -0.6,-3.25 -0.35,-0.9 -0.55,-2.25 -0.55,-4 -0.1,1.35 -0.2,2.75 -0.2,2.75 l 0,-1.25 c 0,-1.25 -0.5,-4.9 -0.5,-4.9 l 0.25,2 -0.25,-2 0.15,9.75 -1,-6 z"
               inkscape:connector-curvature="0"
               style="fill:#814f22" />
          </g>
          <g
             id="drawingObject28">
            <path
               id="path28"
               d="m 23.851,-36.799 c -1.5,-1.3 -2.65,-0.5 -3,0.65 -0.3,1.2 0.35,3 0.35,3 l 0.5,-1.8 q 0.3,-1.15 1.25,-1.6 0.5,-0.25 0.9,-0.25 z"
               inkscape:connector-curvature="0"
               style="fill:#fefce9" />
          </g>
          <g
             id="drawingObject29">
            <path
               id="path29"
               d="m 21.151,-31.599 -1,-0.85 0.65,1.3 -0.65,-1.3 c 0,0 1,2.5 2,2.85 1,0.3 1.35,0.3 1.85,1.15 0.5,0.85 0.4,1.65 0.4,1.65 l 0.75,-2.15 0.35,2.35 c 0,0 0.5,-2.35 0.3,-3.5 -0.15,-1.2 0,-1.8 0,-1.8 l -0.05,0.45 0.05,-0.45 c 0,0 -1.8,1.1 -2.5,0.95 q -1.15,0.15 -2.15,-0.65 z"
               inkscape:connector-curvature="0"
               style="fill:#d0cdb8" />
          </g>
        </g>
        <g
           id="group6">
          <g
             id="drawingObject30">
            <path
               id="path30"
               d="m -37.049,-54.499 c -3.1,-0.8 -3.45,-3.15 -6.05,-4.2 1.2,2.4 4.4,3.7 4.75,6.65 -1.9,-0.2 -4.25,-1.95 -6,-2.95 1.05,2.1 3.35,2.15 4.8,3.65 2.35,2.35 2.5,6.25 2.75,9.9 -4.1,0.5 -8.9,-3.5 -9.95,-6.85 l -0.15,0.75 c 0.45,0.75 0.65,1.95 1.05,2.6 2.9,4.35 7.75,4.25 12.15,6.4 1.15,0.55 2.25,1.55 2.35,2.95 -1.55,1.9 -6.15,1.65 -8.6,-0.6 -0.45,0.6 1.3,1.5 0,1.25 -2.1,-0.45 -3.4,-1.4 -5.1,-2.15 2.4,2.7 8.5,4.55 12.65,4 1.75,-0.2 3.05,-1 4.65,-0.75 1.9,0.35 3.05,1.55 4.6,2.05 1.55,-1.6 0.8,-3.2 0.6,-3.7 -5.2,-0.8 -7.45,-2.35 -7.25,-6.55 0.25,-5.6 2.75,-15.65 1.95,-19.8 -0.6,1.65 -1.45,8.1 -3,8.25 -0.5,-2.2 0.85,-7.6 -0.65,-10.3 -1,1.2 1.55,4.6 -0.9,6.2 -2.2,-0.5 -0.9,-5.3 -2.55,-6.15 -0.55,3.2 2.3,8 0.7,11.05 -3.15,-2.15 -3.05,-8.7 -5.95,-11 1.2,2.85 2.95,6.55 3.15,9.3 z"
               inkscape:connector-curvature="0"
               style="fill:#9c622c" />
          </g>
          <g
             id="group7">
            <g
               id="drawingObject31">
              <path
                 id="path31"
                 d="m -28.099,-56.799 c -0.4,1.65 -2.65,11.15 -2.75,12.25 q -0.05,0.55 -0.25,2.75 0.05,2.05 1.65,2.5 c -0.3,-0.75 -0.4,-1.65 -0.35,-2.75 0.25,-5.6 2.75,-15.65 1.95,-19.8 l 0,1.95 0,-1.95 c 0,0 0.1,3.45 -0.25,5.05 z"
                 inkscape:connector-curvature="0"
                 style="fill:#814f22" />
            </g>
            <g
               id="drawingObject32">
              <path
                 id="path32"
                 d="m -41.799,-35.049 -0.9,-0.25 c 2.9,1.65 7.15,2.6 10.3,2.2 1.75,-0.2 3.05,-1 4.65,-0.75 1.9,0.35 3.05,1.55 4.6,2.05 1.55,-1.6 0.8,-3.2 0.6,-3.7 l -0.1,0.7 c -0.05,0.3 -0.05,0.4 -1,0.15 -0.75,-0.15 -1.35,-0.25 -1.95,-0.4 l -0.025,-0.025 2.075,1.025 0.4,0.1 c 0,0 -0.15,0.1 -0.7,0.1 l -1.2,-0.15 0.95,0.4 0.35,0.1 c 0,0 -0.05,0.5 -0.7,0.2 -0.65,-0.3 -0.85,-0.2 -1.4,-0.6 -0.5,-0.45 -0.6,-0.55 -1.15,-0.85 -0.55,-0.25 -0.7,-0.05 -0.95,-0.45 -0.2,-0.4 -0.3,-0.4 -0.55,-0.8 -0.2,-0.4 -0.7,-0.75 -0.7,-0.75 l 0.3,0.25 -0.3,-0.25 c 0,0 0.25,0.55 -0.05,0.9 -0.25,0.4 -0.95,1.05 -1.25,1.2 -0.3,0.15 -1.7,0.6 -2,0.6 l 1.55,-0.05 c 0.8,-0.3 1.2,-0.6 1.2,-0.6 l -0.25,0.25 c -0.25,0.2 -0.5,0.3 -0.95,0.35 -0.5,0.15 -1.15,0.3 -1.85,0.35 -1.95,0.1 -3.55,-0.2 -4.45,-0.3 -0.85,-0.15 -3.6,-0.7 -4.55,-1 z"
                 inkscape:connector-curvature="0"
                 style="fill:#814f22" />
            </g>
          </g>
          <g
             id="group8">
            <g
               id="drawingObject33">
              <path
                 id="path36"
                 d="m -39.949,-36.199 c -0.3,0.4 0.3,0.9 0.45,1.15 l 1.75,0.5 -0.15,-0.05 c -0.3,-0.2 -1.2,-0.5 -1.7,-1.1 l -0.3,-0.45 -0.05,-0.05 z"
                 inkscape:connector-curvature="0"
                 style="fill:#814f22" />
            </g>
          </g>
          <g
             id="group9">
            <g
               id="drawingObject34">
              <path
                 id="path37"
                 d="m -45.849,-44.949 c 2.9,4.35 7.75,4.25 12.15,6.4 q 2.15,1.05 2.35,2.95 c 0.45,-0.25 0.65,-0.75 0.8,-0.85 0.15,-0.2 0.25,-0.7 0.25,-0.7 l -0.2,-0.05 c -0.2,-0.05 -0.35,-0.35 -0.75,-0.95 -0.45,-0.55 -1.4,-1.1 -1.65,-1.15 -0.25,0 0,0 0.45,0.4 0.4,0.4 0.9,1.3 0.9,1.3 l -0.35,-0.3 c -0.4,-0.35 -1.5,-1.15 -2.5,-1.75 -0.55,-0.3 -1.15,-0.55 -1.65,-0.7 0.5,0.25 0.9,0.75 0.9,0.75 l -0.5,-0.2 c -0.5,-0.25 -2.35,-0.7 -3.95,-1.2 -1.6,-0.5 -3.05,-1.45 -4.75,-3.05 -1.7,-1.55 -2.15,-2.8 -2.35,-3.35 l -0.15,-0.5 -0.05,0.35 c 0.45,0.75 0.65,1.95 1.05,2.6 z"
                 inkscape:connector-curvature="0"
                 style="fill:#814f22" />
            </g>
          </g>
          <g
             id="drawingObject35">
            <path
               id="path38"
               d="m -43.449,-53.849 c 1.2,1.05 2.8,1.35 3.9,2.5 2.35,2.35 2.5,6.2 2.75,9.85 0.9,0.1 1.95,0.5 1.95,0.5 l -0.45,-0.5 0.5,0 c 0,0 -0.25,-0.15 -0.6,-0.6 q -0.55,-0.85 -0.9,-2.3 l -0.65,-3.6 0.45,1.55 c 0,0 -0.05,-1.05 -0.4,-2.45 -0.3,-1.4 -1.1,-2.05 -1.85,-2.55 -0.7,-0.45 -2.95,-1.4 -4.25,-2.1 l -0.45,-0.3 z"
               inkscape:connector-curvature="0"
               style="fill:#814f22" />
          </g>
          <g
             id="drawingObject36">
            <path
               id="path39"
               d="m -42.999,-58.599 c 1.25,2.35 4.25,3.65 4.65,6.45 q 0.7,0.55 1.45,1.6 l -0.7,-1.65 0.5,-0.1 c 0,0 -0.3,-0.4 -0.75,-1.25 -0.45,-0.85 -2.35,-2.5 -3.35,-3.35 -0.6,-0.5 -1.35,-1.2 -1.8,-1.7 z"
               inkscape:connector-curvature="0"
               style="fill:#814f22" />
          </g>
          <g
             id="drawingObject37">
            <path
               id="path40"
               d="m -34.699,-63.149 -0.25,-0.7 0.05,0.6 c 0,0.25 -0.05,1.05 0.1,2.2 0.15,1.2 1.05,3.6 1.05,3.6 0,0 -0.1,-0.8 -0.35,-1.75 -0.25,-0.9 -0.3,-1.2 -0.4,-2.1 l -0.2,-1.85 z"
               inkscape:connector-curvature="0"
               style="fill:#b67337" />
          </g>
          <g
             id="drawingObject38">
            <path
               id="path41"
               d="m -31.399,-63.299 -0.25,-0.4 c -0.15,0.05 -0.05,0.3 -0.05,0.7 l 0.15,1.25 c 0.1,0.95 0,2 -0.05,2.6 -0.1,0.6 -0.3,1.2 -0.6,1.5 l -0.7,0.75 0.15,0 c 0.15,0 0.45,-0.1 0.85,-0.55 0.45,-0.4 0.7,-0.8 0.8,-1.55 0.1,-0.8 -0.05,-1.8 -0.05,-2.55 -0.05,-0.6 -0.05,-1.15 -0.15,-1.5 l -0.1,-0.25 z"
               inkscape:connector-curvature="0"
               style="fill:#b67337" />
          </g>
          <g
             id="drawingObject39">
            <path
               id="path42"
               d="m -33.349,-55.399 -0.1,0.85 q -0.5,1.35 -0.8,1.75 l -0.55,0.45 0,0.2 0,-0.2 c 0,0 -0.1,0.5 0.4,0.25 0.5,-0.25 0.65,-0.55 0.8,-0.85 0.15,-0.35 0.4,-0.7 0.35,-1.35 l -0.1,-1.1 z"
               inkscape:connector-curvature="0"
               style="fill:#b67337" />
          </g>
          <g
             id="drawingObject40">
            <path
               id="path43"
               d="m -37.249,-54.449 0.65,0.1 q 0.1,-0.15 -0.15,-1.4 c -0.25,-1.2 -1.15,-3.95 -1.5,-4.55 -0.35,-0.65 -0.45,-0.85 -0.6,-1.45 -0.15,-0.35 -0.75,-1.15 -1.3,-1.95 0.25,0.35 0.75,1.7 1.6,4.1 0.25,0.65 1.5,3.95 1.45,4.4 0,0.5 -0.15,0.75 -0.15,0.75 z"
               inkscape:connector-curvature="0"
               style="fill:#b67337" />
          </g>
          <g
             id="drawingObject41">
            <path
               id="path44"
               d="m -40.099,-41.899 c -0.6,-0.2 -2.4,-1.35 -3.1,-1.9 -0.75,-0.55 -1.85,-1.65 -2.25,-2.3 l -1.4,-1.8 0.65,1.25 c 0.15,0.35 0.45,0.95 1,1.55 0.55,0.6 1.55,1.35 2.3,2.15 0.7,0.85 2.45,1.05 3.45,1.65 q 1.15,0.7 1.95,0.4 c 0.85,-0.15 1.85,0.1 2.9,0.65 -0.1,-0.05 -0.25,-0.25 -0.4,-0.45 -0.2,-0.15 -0.6,-0.3 -1.05,-0.5 -0.5,-0.2 -0.8,-0.15 -1.55,-0.1 -0.75,0.05 -1.9,-0.4 -2.5,-0.6 z"
               inkscape:connector-curvature="0"
               style="fill:#b67337" />
          </g>
          <g
             id="drawingObject42">
            <path
               id="path45"
               d="m -23.949,-35.399 c 0,0 -2.2,-0.7 -2.65,-0.7 q -1.15,-0.5 -1.55,-0.85 l -0.85,-0.75 0.35,0.7 -0.35,-0.7 c 0,0 0.6,1.4 0.9,1.55 0.35,0.15 0.75,0.4 1.05,0.35 0.3,0 1.25,0.05 1.95,0.25 0.65,0.2 1.15,0.15 1.15,0.15 z"
               inkscape:connector-curvature="0"
               style="fill:#b67337" />
          </g>
          <g
             id="drawingObject43">
            <path
               id="path46"
               d="m -29.999,-36.099 0,-0.85 -0.2,0.35 c -0.15,0.35 -0.65,0.85 -1.3,1.2 l -2.7,1.25 0.65,0 c 0.65,-0.05 1.8,-0.9 2.8,-1.2 q 1,-0.3 0.75,-0.75 z"
               inkscape:connector-curvature="0"
               style="fill:#b67337" />
          </g>
          <g
             id="drawingObject44">
            <path
               id="path47"
               d="m -29.349,-36.499 c 0,-0.15 -0.2,-0.6 -0.35,-0.35 q -0.15,0.25 -0.15,0.55 0,0.25 0.1,0.2 c 0.35,-0.15 0.4,-0.2 0.4,-0.4 z"
               inkscape:connector-curvature="0"
               style="fill:#b67337" />
          </g>
          <g
             id="drawingObject45">
            <path
               id="path48"
               d="m -34.849,-50.299 -0.5,-1.4 c 0,0 1,2.5 1.1,3.5 l 0.15,1 -0.75,-1.5 c -0.5,-1 -1,-1.4 -1,-1.4 l 0.3,0.35 -0.3,-0.35 0.65,1.65 -0.65,-1.65 c 0,0 1.25,2.9 1.5,4.4 0.25,1.5 -0.15,2.25 0.6,3.35 0.7,1.15 1.8,2.25 1.8,2.25 l -1.2,-0.35 1.2,0.8 -1.2,-0.8 c 0,0 2.2,1.35 3.15,2.25 1,0.85 0.15,0.75 -0.35,-2.4 -0.5,-3.1 0.1,-4.5 0.1,-4.5 l -0.25,1.1 0.25,-1.1 q 0.15,-1.35 0.15,-6.6 l 0,-1.15 -1,6 0.15,-9.75 -0.5,4.9 0,1.25 c 0,0 -0.1,-0.75 -0.15,-1.85 -0.05,1.25 -0.25,2.3 -0.6,3.1 -0.85,2.1 -0.6,2.35 -0.6,3.25 l 0,0.85 c 0,0 -0.45,-3.6 -1.2,-4.75 l -1.35,-1.85"
               inkscape:connector-curvature="0"
               style="fill:#814f22" />
          </g>
          <g
             id="drawingObject46">
            <path
               id="path49"
               d="m -20.849,-36.149 c -0.35,-1.15 -1.5,-1.95 -3,-0.65 l 0.9,0.25 q 0.95,0.45 1.25,1.6 l 0.5,1.8 c 0,0 0.7,-1.8 0.35,-3 z"
               inkscape:connector-curvature="0"
               style="fill:#fefce9" />
          </g>
          <g
             id="drawingObject47">
            <path
               id="path50"
               d="m -19.499,-33.149 -0.2,0.85 c 0.15,-0.15 0.2,-0.25 0.25,-0.4 l -0.05,-0.45 z m -0.2,0.85 c -0.2,0.15 -0.5,0.35 -0.9,0.5 l -0.6,0.15 q -0.3,0.85 -1.8,0.7 l -1.5,-0.2 c 0,0 -0.7,0.85 -0.7,1.7 l 0,0.8 1.35,-1.15 0,2 c 0,1.35 0.15,2.15 0.15,2.15 l 0.85,-3.3 0.475,3.175 0.025,0.025 c -0.05,-0.4 -0.1,-0.8 -0.05,-1.25 0,-0.95 0.2,-1.6 0.55,-1.95 0.85,-0.85 1.5,-1 1.85,-2 l 0.3,-1.35 z"
               inkscape:connector-curvature="0"
               style="fill:#d0cdb8" />
          </g>
        </g>
      </g>
    </g>
  </g>
</svg>
