<?xml version="1.0" encoding="UTF-8" standalone="no"?>
<!-- Generator: flash2svg, http://dissentgraphics.com/tools/flash2svg -->

<svg
   xmlns:dc="http://purl.org/dc/elements/1.1/"
   xmlns:cc="http://creativecommons.org/ns#"
   xmlns:rdf="http://www.w3.org/1999/02/22-rdf-syntax-ns#"
   xmlns:svg="http://www.w3.org/2000/svg"
   xmlns="http://www.w3.org/2000/svg"
   xmlns:sodipodi="http://sodipodi.sourceforge.net/DTD/sodipodi-0.dtd"
   xmlns:inkscape="http://www.inkscape.org/namespaces/inkscape"
   id="AvatarAssets"
   image-rendering="auto"
   version="1.1"
   x="0px"
   y="0px"
   width="26.90106"
   height="54.299"
   viewBox="0 0 26.90106 54.299"
   inkscape:version="0.48.4 r9939"
   sodipodi:docname="AvatarAssets_coatCloseC006-idle0.svg">
  <metadata
     id="metadata9253">
    <rdf:RDF>
      <cc:Work
         rdf:about="">
        <dc:format>image/svg+xml</dc:format>
        <dc:type
           rdf:resource="http://purl.org/dc/dcmitype/StillImage" />
      </cc:Work>
    </rdf:RDF>
  </metadata>
  <sodipodi:namedview
     pagecolor="#ffffff"
     bordercolor="#666666"
     borderopacity="1"
     objecttolerance="10"
     gridtolerance="10"
     guidetolerance="10"
     inkscape:pageopacity="0"
     inkscape:pageshadow="2"
     inkscape:window-width="640"
     inkscape:window-height="480"
     id="namedview9251"
     showgrid="false"
     fit-margin-top="0"
     fit-margin-left="0"
     fit-margin-right="0"
     fit-margin-bottom="0"
     inkscape:zoom="1.9032258"
     inkscape:cx="52.100059"
     inkscape:cy="-42"
     inkscape:window-x="0"
     inkscape:window-y="0"
     inkscape:window-maximized="0"
     inkscape:current-layer="AvatarAssets" />
  <defs
     id="defs9186" />
  <g
     id="coatCloseC7"
     overflow="visible"
     style="overflow:visible"
     transform="translate(20.100059,34.299)">
    <g
       id="coatCloseC006_2_1">
      <g
         id="element3">
        <path
           id="path28"
           d="m 0.25,-26.45 c 0.55,1 1.9,1.75 3.15,2.75 1.05,0.85 1.55,2.25 1.7,3.2 0.2,-0.9 0.25,-1.7 0.2,-2.5 l 1.35,2.55 c 0,0 -1.05,-2.15 -3.05,-5.65 q -1.25,-2.2 -4.05,-5.05 l -2.55,-2.4 -0.7,0.025 0,0.025 c -0.1,0 -0.55,0.05 -1.1,0.15 -0.2,0.05 -0.55,0.15 -0.9,0.25 l 0.25,0.1 0.2,0.45 -0.2,-0.45 c 0,0 0.2,0.65 0.95,1.65 l 0.025,0.025 0.025,0.025 c 0.5,0.55 1.15,1.05 1.7,1.5 0.25,0.15 0.5,0.3 0.7,0.55 0.55,0.4 0.9,0.7 1.1,0.9 0.6,0.65 0.6,0.9 1.2,1.9 z m 1.75,4.6 c -0.6,-0.1 -1.95,-0.75 -2.25,-2.65 -0.35,-1.9 -0.7,-3.2 -1.15,-3.95 -0.15,-0.3 -0.4,-0.55 -0.65,-0.8 0.1,0.15 0.1,0.15 0.1,0.15 0.55,0.7 1,1.95 1,4.15 0.1,5.6 -0.55,5.7 -0.55,7.25 0,1.6 -0.7,3.5 -0.5,4.85 0.15,1.25 0.7,2.35 1.3,2.3 1.8,-1.65 2.5,-3.7 3.8,-6 -0.05,0 -0.2,0.15 -0.35,0.3 -1.2,1.05 -1.85,0.3 -1.85,0.3 l 0.5,0.25 -0.5,-0.25 -0.1,1.6 c -0.05,0.65 -0.65,1.75 -1.5,1.9 -0.8,0.2 -0.55,-1.4 -0.4,-2.15 0.15,-0.75 2.15,-1.85 1.15,-2.25 -1,-0.4 -0.8,-2.4 -0.25,-3.6 0.6,-1.15 2.75,-1.3 2.75,-1.3 L 2,-21.85 z M -8.85,-29.6 c 0.45,0.55 1,1.4 1.35,2.3 0.15,0.35 0.2,0.95 0.25,1.1 0.9,-1.95 1.9,-3.8 2.7,-3.85 0.35,0 0.9,-0.05 1.4,0.1 l 0.55,0.3 -0.25,-0.2 c 0.05,0 0.1,0.05 0.1,0.05 -0.45,-0.25 -0.95,-0.5 -1.5,-0.65 -2.05,-0.6 -3.9,0.4 -4.6,0.85 z m -0.2,20.65 0,-0.425 0,0.025 c -0.05,2.15 -0.75,4.95 -2,8.5 -1.1,3.1 -2.25,5.75 -3.5,8 -1.75,3.1 -4.7,6.95 -5.35,7.8 0.55,1.55 1.9,2.3 2.75,2.55 0.05,-0.7 0.15,-1.6 0.3,-2.1 l 1.4,-3.75 -0.4,0.85 c -0.4,0.8 -0.9,1.75 -1.5,1.3 -0.6,-0.4 2.9,-6.05 4.1,-8 0.2,-0.3 0.55,-0.65 1.15,-1.05 0.1,-0.3 0.25,-0.65 0.4,-1 1.3,-3.2 2.85,-5.8 4.45,-7.85 0,0.05 -0.05,-0.05 -0.1,-0.15 -0.7,-1 -1.35,-2.7 -1.7,-4.7 z M -9.8,2.8 c -0.2,0.35 -0.35,0.7 -0.5,1.05 l -0.025,0 z"
           inkscape:connector-curvature="0"
           style="fill:#721016" />
        <path
           id="path29"
           d="m 3.4,-23.7 c -1.25,-1 -2.6,-1.75 -3.15,-2.75 -0.6,-1 -0.6,-1.25 -1.2,-1.9 -0.2,-0.2 -0.55,-0.5 -1.1,-0.9 0.25,0.25 0.5,0.5 0.65,0.8 0.45,0.75 0.8,2.05 1.15,3.95 0.3,1.9 1.65,2.55 2.25,2.65 l 0.55,0.1 c 0,0 -2.15,0.15 -2.75,1.3 -0.55,1.2 -0.75,3.2 0.25,3.6 1,0.4 -1,1.5 -1.15,2.25 -0.15,0.75 -0.4,2.35 0.4,2.15 0.85,-0.15 1.45,-1.25 1.5,-1.9 l 0.1,-1.6 0.5,0.25 -0.5,-0.25 c 0,0 0.65,0.75 1.85,-0.3 0.15,-0.15 0.3,-0.3 0.35,-0.3 0.2,-0.6 0.5,-1.1 0.85,-1.6 0.55,-0.85 0.9,-1.6 1.15,-2.35 -0.15,-0.95 -0.65,-2.35 -1.7,-3.2 z m -13,-6.8 0.75,0.9 c 0.7,-0.45 2.55,-1.45 4.6,-0.85 0.55,0.15 1.05,0.4 1.5,0.65 -0.55,-0.45 -1.2,-0.95 -1.7,-1.5 L -4.475,-31.325 -5.85,-31.4 c -1.7,-0.1 -2.85,0.3 -3.5,0.7 0.2,-0.2 0.5,-0.5 0.9,-0.8 -0.7,0.55 -1.15,1 -1.15,1 z m -2.5,35.25 c -0.6,0.4 -0.95,0.75 -1.15,1.05 -1.2,1.95 -4.7,7.6 -4.1,8 0.6,0.45 1.1,-0.5 1.5,-1.3 l 0.4,-0.85 -1.4,3.75 c -0.15,0.5 -0.25,1.4 -0.3,2.1 1.05,0.3 1.7,0.3 1.7,0.3 l 0.1,-2.05 c 0.1,-2 0.4,-4 3.25,-11 z"
           inkscape:connector-curvature="0"
           style="fill:#8a131b" />
        <path
           id="path30"
           d="M 6.65,-20.45 5.3,-23 c 0.05,0.8 0,1.6 -0.2,2.5 -0.25,0.75 -0.6,1.5 -1.15,2.35 -0.35,0.5 -0.65,1 -0.85,1.6 -1.3,2.3 -2,4.35 -3.8,6 -0.1,0.05 -0.3,0.2 -0.5,0.35 -1.5,1.15 -3.8,3.1 -6.05,6.1 -1.6,2.05 -3.15,4.65 -4.45,7.85 -0.15,0.35 -0.3,0.7 -0.4,1 -2.85,7 -3.15,9 -3.25,11 l -0.1,2.05 c 0,0 -0.65,0 -1.7,-0.3 -0.85,-0.25 -2.2,-1 -2.75,-2.55 -0.15,0.2 -0.2,0.25 -0.2,0.25 l 0.35,1.15 -0.35,-1.15 c 0,0 -0.05,1.95 2.75,3.2 0.15,0.05 0.3,0.1 0.1,0.05 2.95,1.25 3.95,1.55 3.95,1.55 0,0 -0.75,-2.2 -0.2,-7.5 0.2,-2.05 1.55,-5.4 3.2,-8.65 0.15,-0.35 0.3,-0.7 0.5,-1.05 l 3.55,-6.15 c 2.45,-3.6 6.95,-5.45 9.4,-10.1 2.45,-4.6 3.5,-7 3.5,-7 z"
           inkscape:connector-curvature="0"
           style="fill:#263667" />
        <path
           id="path33"
           d="M -4.475,-31.325 -4.5,-31.35 c -0.75,-1 -0.95,-1.65 -0.95,-1.65 l 0.2,0.45 -0.2,-0.45 -0.25,-0.1 c 0.35,-0.1 0.7,-0.2 0.9,-0.25 -0.8,0.15 -1.7,0.45 -2.5,1 l -1.15,0.825 0,0.025 c -0.4,0.3 -0.7,0.6 -0.9,0.8 0.65,-0.4 1.8,-0.8 3.5,-0.7 l 1.375,0.075 z"
           inkscape:connector-curvature="0"
           style="fill:#bd1a26" />
        <path
           id="path38"
           d="m -7.25,-26.2 c 0.05,0.4 0.05,0.5 0.05,0.6 l 0,0.35 c 0,0.85 0,1.4 0,1.85 -0.1,1.15 -0.15,1.9 -0.2,2.45 -0.15,1.6 -1.7,6.15 -1.65,11.1 0,0.15 0,0.3 0,0.35 l 0,-0.025 0,0.15 0,0.425 c 0.35,2 1,3.7 1.7,4.7 0.05,0.1 0.1,0.2 0.1,0.15 2.25,-3 4.55,-4.95 6.05,-6.1 0.2,-0.15 0.4,-0.3 0.5,-0.35 -0.6,0.05 -1.15,-1.05 -1.3,-2.3 -0.2,-1.35 0.5,-3.25 0.5,-4.85 0,-1.55 0.65,-1.65 0.55,-7.25 0,-2.2 -0.45,-3.45 -1,-4.15 0,0 0,0 -0.1,-0.15 -0.2,-0.25 -0.45,-0.4 -0.7,-0.55 0,0 -0.05,-0.05 -0.1,-0.05 l 0.25,0.2 -0.55,-0.3 c -0.5,-0.15 -1.05,-0.1 -1.4,-0.1 -0.8,0.05 -1.8,1.9 -2.7,3.85 z"
           inkscape:connector-curvature="0"
           style="fill:#510b0f" />
      </g>
      <g
         id="element4">
        <g
           id="drawingObject11">
          <path
             id="path45"
             d="m 5.601,-20.199 c -0.2,-0.35 -1.1,-0.75 -1.65,0.25 q -0.25,0.4 0.05,1.05 0.35,0.75 1,0.4 c 1,-0.5 0.8,-1.4 0.6,-1.7 z"
             inkscape:connector-curvature="0"
             style="fill:#bb8b36" />
        </g>
        <g
           id="drawingObject12">
          <path
             id="path46"
             d="m 5.401,-19.999 c -0.05,-0.1 -0.45,-0.85 -1.2,-0.15 q -0.35,0.35 -0.2,1 0.15,0.7 0.7,0.4 c 0.9,-0.45 0.75,-1.1 0.7,-1.25 z"
             inkscape:connector-curvature="0"
             style="fill:#fcbb49" />
        </g>
        <g
           id="drawingObject13">
          <path
             id="path47"
             d="m 4.601,-19.649 c 0.3,-0.1 0.3,-0.75 -0.15,-0.45 q -0.15,0.1 -0.1,0.3 0.05,0.2 0.25,0.15 z"
             inkscape:connector-curvature="0"
             style="fill:#fde2ac" />
        </g>
        <g
           id="drawingObject14">
          <path
             id="path48"
             d="m 3.701,-15.699 c -0.2,-0.35 -1.05,-0.85 -1.7,0.05 q -0.25,0.35 -0.05,1.05 0.2,0.75 0.9,0.5 c 1.1,-0.35 1,-1.25 0.85,-1.6 z"
             inkscape:connector-curvature="0"
             style="fill:#bb8b36" />
        </g>
        <g
           id="drawingObject15">
          <path
             id="path49"
             d="m 3.451,-15.499 c 0,-0.15 -0.35,-0.9 -1.15,-0.3 q -0.4,0.3 -0.35,0.95 0.05,0.7 0.65,0.5 c 0.95,-0.35 0.9,-1 0.85,-1.15 z"
             inkscape:connector-curvature="0"
             style="fill:#fcbb49" />
        </g>
        <g
           id="drawingObject16">
          <path
             id="path50"
             d="m 2.651,-15.299 c 0.25,0 0.4,-0.7 -0.1,-0.45 q -0.2,0.1 -0.15,0.3 0.05,0.2 0.25,0.15 z"
             inkscape:connector-curvature="0"
             style="fill:#fde2ac" />
        </g>
        <g
           id="drawingObject17">
          <path
             id="path51"
             d="m 0.801,-11.249 c -0.1,-0.35 -0.8,-1.05 -1.65,-0.25 q -0.35,0.3 -0.3,1 0.1,0.8 0.85,0.7 c 1.1,-0.15 1.2,-1.05 1.1,-1.45 z"
             inkscape:connector-curvature="0"
             style="fill:#bb8b36" />
        </g>
        <g
           id="drawingObject18">
          <path
             id="path52"
             d="m 0.551,-11.099 c 0,-0.1 -0.15,-0.95 -1.05,-0.55 q -0.5,0.25 -0.55,0.95 -0.1,0.65 0.55,0.6 c 1,-0.15 1.05,-0.85 1.05,-1 z"
             inkscape:connector-curvature="0"
             style="fill:#fcbb49" />
        </g>
        <g
           id="drawingObject19">
          <path
             id="path53"
             d="m -0.299,-11.049 c 0.3,0.05 0.55,-0.6 0,-0.45 q -0.2,0.05 -0.2,0.25 0,0.2 0.2,0.2 z"
             inkscape:connector-curvature="0"
             style="fill:#fde2ac" />
        </g>
      </g>
      <g
         id="element5">
        <g
           id="drawingObject20">
          <path
             id="path54"
             d="m 4.951,-22.699 c 1.1,1.55 1.85,2.3 1.85,2.3 0,0 -1.6,-3.75 -3.85,-7.15 -2.25,-3.4 -5.25,-6.1 -5.25,-6.1 l 1.8,1.8 -1.8,-1.8 q -0.1,-0.65 -1.75,-0.65 c -1.65,0 -2.65,0.6 -2.65,0.6 l 0.7,-0.3 -0.7,0.3 0.55,0.95 -0.55,-0.95 c 0,0 0.75,1.75 2.25,2.4 1.5,0.65 3.65,2.1 4.55,3.25 0.95,1.15 3.75,3.75 4.85,5.35 z"
             inkscape:connector-curvature="0"
             style="fill:#97141e" />
        </g>
        <g
           id="drawingObject21">
          <path
             id="path55"
             d="m 4.951,-22.699 c 1.1,1.55 1.85,2.3 1.85,2.3 0,0 -1.2,-2.75 -2.95,-5.75 -0.6,-0.7 -1.4,-1.55 -2.4,-2.4 q -1.3,-1.1 -3.15,-2.5 -1.9,-1.4 -2.6,-2 c -0.55,-0.45 -0.7,-0.85 -0.65,-1.2 -1.1,0.15 -1.75,0.55 -1.75,0.55 l 0.45,-0.2 -0.45,0.2 0.55,0.95 -0.55,-0.95 c 0,0 0.75,1.75 2.25,2.4 1.5,0.65 3.65,2.1 4.55,3.25 0.95,1.15 3.75,3.75 4.85,5.35 z"
             inkscape:connector-curvature="0"
             style="fill:#314582" />
        </g>
      </g>
    </g>
    <g
       id="coatCloseC006_2_0">
      <g
         id="element">
        <path
           id="path"
           d="m 0.25,-26.45 c 0.55,1 1.9,1.75 3.15,2.75 1.05,0.85 1.55,2.25 1.7,3.2 0.2,-0.9 0.25,-1.7 0.2,-2.5 l 1.35,2.55 c 0,0 -1.05,-2.15 -3.05,-5.65 q -1.25,-2.2 -4.05,-5.05 l -2.55,-2.4 -0.7,0.025 0,0.025 c -0.1,0 -0.55,0.05 -1.1,0.15 -0.2,0.05 -0.55,0.15 -0.9,0.25 l 0.25,0.1 0.2,0.45 -0.2,-0.45 c 0,0 0.2,0.65 0.95,1.65 l 0.025,0.025 0.025,0.025 c 0.5,0.55 1.15,1.05 1.7,1.5 0.25,0.15 0.5,0.3 0.7,0.55 0.55,0.4 0.9,0.7 1.1,0.9 0.6,0.65 0.6,0.9 1.2,1.9 z m 1.75,4.6 c -0.6,-0.1 -1.95,-0.75 -2.25,-2.65 -0.35,-1.9 -0.7,-3.2 -1.15,-3.95 -0.15,-0.3 -0.4,-0.55 -0.65,-0.8 0.1,0.15 0.1,0.15 0.1,0.15 0.55,0.7 1,1.95 1,4.15 0.1,5.6 -0.55,5.7 -0.55,7.25 0,1.6 -0.7,3.5 -0.5,4.85 0.15,1.25 0.7,2.35 1.3,2.3 1.8,-1.65 2.5,-3.7 3.8,-6 -0.05,0 -0.2,0.15 -0.35,0.3 -1.2,1.05 -1.85,0.3 -1.85,0.3 l 0.5,0.25 -0.5,-0.25 -0.1,1.6 c -0.05,0.65 -0.65,1.75 -1.5,1.9 -0.8,0.2 -0.55,-1.4 -0.4,-2.15 0.15,-0.75 2.15,-1.85 1.15,-2.25 -1,-0.4 -0.8,-2.4 -0.25,-3.6 0.6,-1.15 2.75,-1.3 2.75,-1.3 L 2,-21.85 z M -8.85,-29.6 c 0.45,0.55 1,1.4 1.35,2.3 0.15,0.35 0.2,0.95 0.25,1.1 0.9,-1.95 1.9,-3.8 2.7,-3.85 0.35,0 0.9,-0.05 1.4,0.1 l 0.55,0.3 -0.25,-0.2 c 0.05,0 0.1,0.05 0.1,0.05 -0.45,-0.25 -0.95,-0.5 -1.5,-0.65 -2.05,-0.6 -3.9,0.4 -4.6,0.85 z m -0.2,20.65 0,-0.425 0,0.025 c -0.05,2.15 -0.75,4.95 -2,8.5 -1.1,3.1 -2.25,5.75 -3.5,8 -1.75,3.1 -4.7,6.95 -5.35,7.8 0.55,1.55 1.9,2.3 2.75,2.55 0.05,-0.7 0.15,-1.6 0.3,-2.1 l 1.4,-3.75 -0.4,0.85 c -0.4,0.8 -0.9,1.75 -1.5,1.3 -0.6,-0.4 2.9,-6.05 4.1,-8 0.2,-0.3 0.55,-0.65 1.15,-1.05 0.1,-0.3 0.25,-0.65 0.4,-1 1.3,-3.2 2.85,-5.8 4.45,-7.85 0,0.05 -0.05,-0.05 -0.1,-0.15 -0.7,-1 -1.35,-2.7 -1.7,-4.7 z M -9.8,2.8 c -0.2,0.35 -0.35,0.7 -0.5,1.05 l -0.025,0 z"
           inkscape:connector-curvature="0"
           style="fill:#721016" />
        <path
           id="path1"
           d="m 3.4,-23.7 c -1.25,-1 -2.6,-1.75 -3.15,-2.75 -0.6,-1 -0.6,-1.25 -1.2,-1.9 -0.2,-0.2 -0.55,-0.5 -1.1,-0.9 0.25,0.25 0.5,0.5 0.65,0.8 0.45,0.75 0.8,2.05 1.15,3.95 0.3,1.9 1.65,2.55 2.25,2.65 l 0.55,0.1 c 0,0 -2.15,0.15 -2.75,1.3 -0.55,1.2 -0.75,3.2 0.25,3.6 1,0.4 -1,1.5 -1.15,2.25 -0.15,0.75 -0.4,2.35 0.4,2.15 0.85,-0.15 1.45,-1.25 1.5,-1.9 l 0.1,-1.6 0.5,0.25 -0.5,-0.25 c 0,0 0.65,0.75 1.85,-0.3 0.15,-0.15 0.3,-0.3 0.35,-0.3 0.2,-0.6 0.5,-1.1 0.85,-1.6 0.55,-0.85 0.9,-1.6 1.15,-2.35 -0.15,-0.95 -0.65,-2.35 -1.7,-3.2 z m -13,-6.8 0.75,0.9 c 0.7,-0.45 2.55,-1.45 4.6,-0.85 0.55,0.15 1.05,0.4 1.5,0.65 -0.55,-0.45 -1.2,-0.95 -1.7,-1.5 L -4.475,-31.325 -5.85,-31.4 c -1.7,-0.1 -2.85,0.3 -3.5,0.7 0.2,-0.2 0.5,-0.5 0.9,-0.8 -0.7,0.55 -1.15,1 -1.15,1 z m -2.5,35.25 c -0.6,0.4 -0.95,0.75 -1.15,1.05 -1.2,1.95 -4.7,7.6 -4.1,8 0.6,0.45 1.1,-0.5 1.5,-1.3 l 0.4,-0.85 -1.4,3.75 c -0.15,0.5 -0.25,1.4 -0.3,2.1 1.05,0.3 1.7,0.3 1.7,0.3 l 0.1,-2.05 c 0.1,-2 0.4,-4 3.25,-11 z"
           inkscape:connector-curvature="0"
           style="fill:#8a131b" />
        <path
           id="path2"
           d="M 6.65,-20.45 5.3,-23 c 0.05,0.8 0,1.6 -0.2,2.5 -0.25,0.75 -0.6,1.5 -1.15,2.35 -0.35,0.5 -0.65,1 -0.85,1.6 -1.3,2.3 -2,4.35 -3.8,6 -0.1,0.05 -0.3,0.2 -0.5,0.35 -1.5,1.15 -3.8,3.1 -6.05,6.1 -1.6,2.05 -3.15,4.65 -4.45,7.85 -0.15,0.35 -0.3,0.7 -0.4,1 -2.85,7 -3.15,9 -3.25,11 l -0.1,2.05 c 0,0 -0.65,0 -1.7,-0.3 -0.85,-0.25 -2.2,-1 -2.75,-2.55 -0.15,0.2 -0.2,0.25 -0.2,0.25 l 0.35,1.15 -0.35,-1.15 c 0,0 -0.05,1.95 2.75,3.2 0.15,0.05 0.3,0.1 0.1,0.05 2.95,1.25 3.95,1.55 3.95,1.55 0,0 -0.75,-2.2 -0.2,-7.5 0.2,-2.05 1.55,-5.4 3.2,-8.65 0.15,-0.35 0.3,-0.7 0.5,-1.05 l 3.55,-6.15 c 2.45,-3.6 6.95,-5.45 9.4,-10.1 2.45,-4.6 3.5,-7 3.5,-7 z"
           inkscape:connector-curvature="0"
           style="fill:#263667" />
        <path
           id="path5"
           d="M -4.475,-31.325 -4.5,-31.35 c -0.75,-1 -0.95,-1.65 -0.95,-1.65 l 0.2,0.45 -0.2,-0.45 -0.25,-0.1 c 0.35,-0.1 0.7,-0.2 0.9,-0.25 -0.8,0.15 -1.7,0.45 -2.5,1 l -1.15,0.825 0,0.025 c -0.4,0.3 -0.7,0.6 -0.9,0.8 0.65,-0.4 1.8,-0.8 3.5,-0.7 l 1.375,0.075 z"
           inkscape:connector-curvature="0"
           style="fill:#bd1a26" />
        <path
           id="path10"
           d="m -7.25,-26.2 c 0.05,0.4 0.05,0.5 0.05,0.6 l 0,0.35 c 0,0.85 0,1.4 0,1.85 -0.1,1.15 -0.15,1.9 -0.2,2.45 -0.15,1.6 -1.7,6.15 -1.65,11.1 0,0.15 0,0.3 0,0.35 l 0,-0.025 0,0.15 0,0.425 c 0.35,2 1,3.7 1.7,4.7 0.05,0.1 0.1,0.2 0.1,0.15 2.25,-3 4.55,-4.95 6.05,-6.1 0.2,-0.15 0.4,-0.3 0.5,-0.35 -0.6,0.05 -1.15,-1.05 -1.3,-2.3 -0.2,-1.35 0.5,-3.25 0.5,-4.85 0,-1.55 0.65,-1.65 0.55,-7.25 0,-2.2 -0.45,-3.45 -1,-4.15 0,0 0,0 -0.1,-0.15 -0.2,-0.25 -0.45,-0.4 -0.7,-0.55 0,0 -0.05,-0.05 -0.1,-0.05 l 0.25,0.2 -0.55,-0.3 c -0.5,-0.15 -1.05,-0.1 -1.4,-0.1 -0.8,0.05 -1.8,1.9 -2.7,3.85 z"
           inkscape:connector-curvature="0"
           style="fill:#510b0f" />
      </g>
      <g
         id="element1">
        <g
           id="drawingObject">
          <path
             id="path17"
             d="m 5.601,-20.199 c -0.2,-0.35 -1.1,-0.75 -1.65,0.25 q -0.25,0.4 0.05,1.05 0.35,0.75 1,0.4 c 1,-0.5 0.8,-1.4 0.6,-1.7 z"
             inkscape:connector-curvature="0"
             style="fill:#bb8b36" />
        </g>
        <g
           id="drawingObject1">
          <path
             id="path18"
             d="m 5.401,-19.999 c -0.05,-0.1 -0.45,-0.85 -1.2,-0.15 q -0.35,0.35 -0.2,1 0.15,0.7 0.7,0.4 c 0.9,-0.45 0.75,-1.1 0.7,-1.25 z"
             inkscape:connector-curvature="0"
             style="fill:#fcbb49" />
        </g>
        <g
           id="drawingObject2">
          <path
             id="path19"
             d="m 4.601,-19.649 c 0.3,-0.1 0.3,-0.75 -0.15,-0.45 q -0.15,0.1 -0.1,0.3 0.05,0.2 0.25,0.15 z"
             inkscape:connector-curvature="0"
             style="fill:#fde2ac" />
        </g>
        <g
           id="drawingObject3">
          <path
             id="path20"
             d="m 3.701,-15.699 c -0.2,-0.35 -1.05,-0.85 -1.7,0.05 q -0.25,0.35 -0.05,1.05 0.2,0.75 0.9,0.5 c 1.1,-0.35 1,-1.25 0.85,-1.6 z"
             inkscape:connector-curvature="0"
             style="fill:#bb8b36" />
        </g>
        <g
           id="drawingObject4">
          <path
             id="path21"
             d="m 3.451,-15.499 c 0,-0.15 -0.35,-0.9 -1.15,-0.3 q -0.4,0.3 -0.35,0.95 0.05,0.7 0.65,0.5 c 0.95,-0.35 0.9,-1 0.85,-1.15 z"
             inkscape:connector-curvature="0"
             style="fill:#fcbb49" />
        </g>
        <g
           id="drawingObject5">
          <path
             id="path22"
             d="m 2.651,-15.299 c 0.25,0 0.4,-0.7 -0.1,-0.45 q -0.2,0.1 -0.15,0.3 0.05,0.2 0.25,0.15 z"
             inkscape:connector-curvature="0"
             style="fill:#fde2ac" />
        </g>
        <g
           id="drawingObject6">
          <path
             id="path23"
             d="m 0.801,-11.249 c -0.1,-0.35 -0.8,-1.05 -1.65,-0.25 q -0.35,0.3 -0.3,1 0.1,0.8 0.85,0.7 c 1.1,-0.15 1.2,-1.05 1.1,-1.45 z"
             inkscape:connector-curvature="0"
             style="fill:#bb8b36" />
        </g>
        <g
           id="drawingObject7">
          <path
             id="path24"
             d="m 0.551,-11.099 c 0,-0.1 -0.15,-0.95 -1.05,-0.55 q -0.5,0.25 -0.55,0.95 -0.1,0.65 0.55,0.6 c 1,-0.15 1.05,-0.85 1.05,-1 z"
             inkscape:connector-curvature="0"
             style="fill:#fcbb49" />
        </g>
        <g
           id="drawingObject8">
          <path
             id="path25"
             d="m -0.299,-11.049 c 0.3,0.05 0.55,-0.6 0,-0.45 q -0.2,0.05 -0.2,0.25 0,0.2 0.2,0.2 z"
             inkscape:connector-curvature="0"
             style="fill:#fde2ac" />
        </g>
      </g>
      <g
         id="element2">
        <g
           id="drawingObject9">
          <path
             id="path26"
             d="m 4.951,-22.699 c 1.1,1.55 1.85,2.3 1.85,2.3 0,0 -1.6,-3.75 -3.85,-7.15 -2.25,-3.4 -5.25,-6.1 -5.25,-6.1 l 1.8,1.8 -1.8,-1.8 q -0.1,-0.65 -1.75,-0.65 c -1.65,0 -2.65,0.6 -2.65,0.6 l 0.7,-0.3 -0.7,0.3 0.55,0.95 -0.55,-0.95 c 0,0 0.75,1.75 2.25,2.4 1.5,0.65 3.65,2.1 4.55,3.25 0.95,1.15 3.75,3.75 4.85,5.35 z"
             inkscape:connector-curvature="0"
             style="fill:#97141e" />
        </g>
        <g
           id="drawingObject10">
          <path
             id="path27"
             d="m 4.951,-22.699 c 1.1,1.55 1.85,2.3 1.85,2.3 0,0 -1.2,-2.75 -2.95,-5.75 -0.6,-0.7 -1.4,-1.55 -2.4,-2.4 q -1.3,-1.1 -3.15,-2.5 -1.9,-1.4 -2.6,-2 c -0.55,-0.45 -0.7,-0.85 -0.65,-1.2 -1.1,0.15 -1.75,0.55 -1.75,0.55 l 0.45,-0.2 -0.45,0.2 0.55,0.95 -0.55,-0.95 c 0,0 0.75,1.75 2.25,2.4 1.5,0.65 3.65,2.1 4.55,3.25 0.95,1.15 3.75,3.75 4.85,5.35 z"
             inkscape:connector-curvature="0"
             style="fill:#314582" />
        </g>
      </g>
    </g>
  </g>
</svg>
