<?xml version="1.0" encoding="UTF-8" standalone="no"?>
<!-- Generator: flash2svg, http://dissentgraphics.com/tools/flash2svg -->

<svg
   xmlns:dc="http://purl.org/dc/elements/1.1/"
   xmlns:cc="http://creativecommons.org/ns#"
   xmlns:rdf="http://www.w3.org/1999/02/22-rdf-syntax-ns#"
   xmlns:svg="http://www.w3.org/2000/svg"
   xmlns="http://www.w3.org/2000/svg"
   xmlns:sodipodi="http://sodipodi.sourceforge.net/DTD/sodipodi-0.dtd"
   xmlns:inkscape="http://www.inkscape.org/namespaces/inkscape"
   id="AvatarAssets"
   image-rendering="auto"
   version="1.1"
   x="0px"
   y="0px"
   width="33.38047"
   height="59.249001"
   viewBox="0 0 33.38047 59.249001"
   inkscape:version="0.48.4 r9939"
   sodipodi:docname="AvatarAssets_coatCloseC006.ANI-jumpUp_land.svg">
  <metadata
     id="metadata8075">
    <rdf:RDF>
      <cc:Work
         rdf:about="">
        <dc:format>image/svg+xml</dc:format>
        <dc:type
           rdf:resource="http://purl.org/dc/dcmitype/StillImage" />
      </cc:Work>
    </rdf:RDF>
  </metadata>
  <sodipodi:namedview
     pagecolor="#ffffff"
     bordercolor="#666666"
     borderopacity="1"
     objecttolerance="10"
     gridtolerance="10"
     guidetolerance="10"
     inkscape:pageopacity="0"
     inkscape:pageshadow="2"
     inkscape:window-width="640"
     inkscape:window-height="480"
     id="namedview8073"
     showgrid="false"
     fit-margin-top="0"
     fit-margin-left="0"
     fit-margin-right="0"
     fit-margin-bottom="0"
     inkscape:zoom="1.9032258"
     inkscape:cx="58.579469"
     inkscape:cy="-37.05"
     inkscape:window-x="0"
     inkscape:window-y="0"
     inkscape:window-maximized="0"
     inkscape:current-layer="AvatarAssets" />
  <defs
     id="defs7893" />
  <g
     id="coatCloseC7"
     overflow="visible"
     style="overflow:visible"
     transform="translate(26.579469,34.299)">
    <g
       id="coatCloseC006_2_190">
      <g
         id="element12">
        <g
           id="drawingObject44">
          <path
             id="path120"
             d="m 5.851,-18.599 0.85,-1.8 c 0,0 -1.05,-2.15 -3.05,-5.65 q -1.25,-2.2 -4.05,-5.05 l -2.55,-2.4 c 0,0 -2.55,0 -4.3,1.2 -1.35,0.9 -2.3,1.85 -2.3,1.85 l 0.8,0.95 -0.8,-0.95 c 0,0 1.45,1.45 2.1,3.2 0.55,1.4 0.2,4.8 0.1,6.35 -0.15,1.6 -1.7,6.15 -1.65,11.1 0.05,4.9 -3.5,13.4 -5.5,17 -2,3.55 -5.55,8.05 -5.55,8.05 l 0.35,1.15 -0.35,-1.15 c 0,0 -0.05,1.95 2.75,3.2 2.95,1.3 4.05,1.6 4.05,1.6 0,0 -0.75,-2.2 -0.2,-7.5 0.4,-3.85 4.85,-12.3 7.25,-15.85 2.45,-3.6 6.95,-5.45 9.4,-10.1 2.45,-4.6 3.5,-7 3.5,-7"
             inkscape:connector-curvature="0"
             style="fill:#8a131b" />
        </g>
        <g
           id="drawingObject45">
          <path
             id="path121"
             d="m -5.799,-31.349 3,0.15 q 0.5,-0.6 -0.8,-1.35 l -1.15,-0.75 c -0.8,0.15 -1.7,0.45 -2.5,1 -0.95,0.65 -1.7,1.3 -2.05,1.65 0.65,-0.4 1.8,-0.8 3.5,-0.7 z"
             inkscape:connector-curvature="0"
             style="fill:#bd1a26" />
        </g>
        <g
           id="drawingObject46">
          <path
             id="path122"
             d="m 5.851,-18.599 0.85,-1.8 c 0,0 -1.05,-2.15 -3.05,-5.65 -2,-3.5 -6.6,-7.45 -6.6,-7.45 l 2.55,2.4 -2.55,-2.4 c 0,0 -1.3,0 -2.7,0.45 l 0.25,0.1 0.2,0.45 -0.2,-0.45 c 0,0 0.2,0.65 0.95,1.65 0.35,0.5 1.1,1.05 1.75,1.55 -0.45,-0.25 -0.95,-0.5 -1.5,-0.65 -2.05,-0.6 -3.9,0.4 -4.6,0.85 0.45,0.55 1,1.4 1.35,2.3 0.55,1.4 0.2,4.8 0.1,6.35 -0.15,1.6 -1.7,6.15 -1.65,11.1 0.05,4.9 -3.5,13.4 -5.5,17 -2,3.55 -5.55,8.05 -5.55,8.05 l 0.35,1.15 -0.35,-1.15 c 0,0 -0.05,1.95 2.75,3.2 l 0.1,0.05 c 0.05,-1 0.2,-2.35 0.4,-3.05 l 1.4,-3.75 -0.4,0.85 c -0.4,0.8 -0.9,1.75 -1.5,1.3 -0.6,-0.4 2.9,-6.05 4.1,-8 0.4,-0.65 1.55,-1.35 2.95,-1.95 1.35,-2.85 2.95,-5.55 4.05,-7.2 2.45,-3.6 6.95,-5.45 9.4,-10.1 q 1.55,-2.85 2.65,-5.2 z m -0.75,-1.3 c -0.05,1 -1.15,2.6 -2.3,3.7 -1.2,1.05 -1.85,0.3 -1.85,0.3 l 0.5,0.25 -0.5,-0.25 -0.1,1.6 c -0.05,0.65 -0.65,1.75 -1.5,1.9 -0.8,0.2 -0.55,-1.4 -0.4,-2.15 0.15,-0.75 2.15,-1.85 1.15,-2.25 -1,-0.4 -0.8,-2.4 -0.25,-3.6 0.6,-1.15 2.75,-1.3 2.75,-1.3 l -0.55,-0.1 c -0.6,-0.1 -1.95,-0.75 -2.25,-2.65 -0.35,-1.9 -0.7,-3.2 -1.15,-3.95 -0.15,-0.3 -0.4,-0.55 -0.65,-0.8 0.55,0.4 0.9,0.7 1.1,0.9 0.6,0.65 0.6,0.9 1.2,1.9 0.55,1 1.9,1.75 3.15,2.75 1.25,1 1.75,2.75 1.65,3.75 z"
             inkscape:connector-curvature="0"
             style="fill:#721016" />
        </g>
        <g
           id="drawingObject47">
          <path
             id="path126"
             d="m -3.099,-29.899 c -0.5,-0.15 -1.05,-0.1 -1.4,-0.1 -0.8,0.05 -1.8,1.9 -2.7,3.85 0.15,1.65 -0.05,4.05 -0.15,5.25 -0.15,1.6 -1.7,6.15 -1.65,11.1 l 0,0.9 c 0.35,2 1,3.7 1.7,4.7 1.05,1.55 1.65,-0.75 2.4,-1.6 0.75,-0.85 5.75,-5 4.75,-4.75 q -0.7,0.2 -1.2,-0.5 -0.5,-0.65 -0.6,-1.75 c -0.2,-1.35 0.5,-3.25 0.5,-4.85 0,-1.55 0.65,-1.65 0.55,-7.25 0,-2.2 -0.45,-3.45 -1,-4.15 0,0 0,0 -0.1,-0.15 l -0.025,-0.025 0.025,0.025 c -0.25,-0.3 -0.55,-0.5 -0.8,-0.6 l 0.25,0.2 -0.55,-0.3 z"
             inkscape:connector-curvature="0"
             style="fill:#510b0f" />
        </g>
        <g
           id="drawingObject48">
          <path
             id="path127"
             d="m 5.851,-18.599 0.85,-1.8 -1.35,-2.55 c 0.1,1.4 -0.05,2.9 -1.35,4.85 -2.15,3.3 -2.55,6.05 -5.15,7.95 -2.55,1.95 -7.25,6.1 -10.5,13.95 -3.25,7.8 -3.55,9.9 -3.65,12 l -0.1,2.05 c 0,0 -3.45,-0.05 -4.45,-2.85 l -0.2,0.25 0.35,1.15 -0.35,-1.15 c 0,0 -0.05,1.95 2.75,3.2 2.95,1.3 4.05,1.6 4.05,1.6 0,0 -0.75,-2.2 -0.2,-7.5 0.4,-3.85 4.85,-12.3 7.25,-15.85 q 1,-1.5 4.7,-4.65 3.35,-2.9 4.7,-5.45 c 2.45,-4.6 3.5,-7 3.5,-7"
             inkscape:connector-curvature="0"
             style="fill:#263667" />
        </g>
        <g
           id="drawingObject49">
          <path
             id="path128"
             d="m 4.951,-22.699 c 1.1,1.55 1.85,2.3 1.85,2.3 0,0 -1.6,-3.75 -3.85,-7.15 -2.25,-3.4 -5.25,-6.1 -5.25,-6.1 l 1.8,1.8 -1.8,-1.8 q -0.1,-0.65 -1.75,-0.65 c -1.65,0 -2.65,0.6 -2.65,0.6 l 0.7,-0.3 -0.7,0.3 0.55,0.95 -0.55,-0.95 c 0,0 0.75,1.75 2.25,2.4 1.5,0.65 3.65,2.1 4.55,3.25 0.95,1.15 3.75,3.75 4.85,5.35 z"
             inkscape:connector-curvature="0"
             style="fill:#97141e" />
        </g>
        <g
           id="drawingObject50">
          <path
             id="path129"
             d="m 4.951,-22.699 c 1.1,1.55 1.85,2.3 1.85,2.3 0,0 -1.2,-2.75 -2.95,-5.75 -0.6,-0.7 -1.4,-1.55 -2.4,-2.4 q -1.3,-1.1 -3.15,-2.5 -1.9,-1.4 -2.6,-2 c -0.55,-0.45 -0.7,-0.85 -0.65,-1.2 -1.1,0.15 -1.75,0.55 -1.75,0.55 l 0.45,-0.2 -0.45,0.2 0.55,0.95 -0.55,-0.95 c 0,0 0.75,1.75 2.25,2.4 1.5,0.65 3.65,2.1 4.55,3.25 0.95,1.15 3.75,3.75 4.85,5.35 z"
             inkscape:connector-curvature="0"
             style="fill:#314582" />
        </g>
        <g
           id="group9">
          <g
             id="drawingObject51">
            <path
               id="path130"
               d="m 5.601,-20.199 c -0.2,-0.35 -1.1,-0.75 -1.65,0.25 q -0.25,0.4 0.05,1.05 0.35,0.75 1,0.4 c 1,-0.5 0.8,-1.4 0.6,-1.7 z"
               inkscape:connector-curvature="0"
               style="fill:#bb8b36" />
          </g>
          <g
             id="drawingObject52">
            <path
               id="path131"
               d="m 5.401,-19.999 c -0.05,-0.1 -0.45,-0.85 -1.2,-0.15 q -0.35,0.35 -0.2,1 0.15,0.7 0.7,0.4 c 0.9,-0.45 0.75,-1.1 0.7,-1.25 z"
               inkscape:connector-curvature="0"
               style="fill:#fcbb49" />
          </g>
          <g
             id="drawingObject53">
            <path
               id="path132"
               d="m 4.601,-19.649 c 0.3,-0.1 0.3,-0.75 -0.15,-0.45 q -0.15,0.1 -0.1,0.3 0.05,0.2 0.25,0.15 z"
               inkscape:connector-curvature="0"
               style="fill:#fde2ac" />
          </g>
          <g
             id="drawingObject54">
            <path
               id="path133"
               d="m 3.701,-15.699 c -0.2,-0.35 -1.05,-0.85 -1.7,0.05 q -0.25,0.35 -0.05,1.05 0.2,0.75 0.9,0.5 c 1.1,-0.35 1,-1.25 0.85,-1.6 z"
               inkscape:connector-curvature="0"
               style="fill:#bb8b36" />
          </g>
          <g
             id="drawingObject55">
            <path
               id="path134"
               d="m 3.451,-15.499 c 0,-0.15 -0.35,-0.9 -1.15,-0.3 q -0.4,0.3 -0.35,0.95 0.05,0.7 0.65,0.5 c 0.95,-0.35 0.9,-1 0.85,-1.15 z"
               inkscape:connector-curvature="0"
               style="fill:#fcbb49" />
          </g>
          <g
             id="drawingObject56">
            <path
               id="path135"
               d="m 2.651,-15.299 c 0.25,0 0.4,-0.7 -0.1,-0.45 q -0.2,0.1 -0.15,0.3 0.05,0.2 0.25,0.15 z"
               inkscape:connector-curvature="0"
               style="fill:#fde2ac" />
          </g>
          <g
             id="drawingObject57">
            <path
               id="path136"
               d="m 0.801,-11.249 c -0.1,-0.35 -0.8,-1.05 -1.65,-0.25 q -0.35,0.3 -0.3,1 0.1,0.8 0.85,0.7 c 1.1,-0.15 1.2,-1.05 1.1,-1.45 z"
               inkscape:connector-curvature="0"
               style="fill:#bb8b36" />
          </g>
          <g
             id="drawingObject58">
            <path
               id="path137"
               d="m 0.551,-11.099 c 0,-0.1 -0.15,-0.95 -1.05,-0.55 q -0.5,0.25 -0.55,0.95 -0.1,0.65 0.55,0.6 c 1,-0.15 1.05,-0.85 1.05,-1 z"
               inkscape:connector-curvature="0"
               style="fill:#fcbb49" />
          </g>
          <g
             id="drawingObject59">
            <path
               id="path138"
               d="m -0.299,-11.049 c 0.3,0.05 0.55,-0.6 0,-0.45 q -0.2,0.05 -0.2,0.25 0,0.2 0.2,0.2 z"
               inkscape:connector-curvature="0"
               style="fill:#fde2ac" />
          </g>
        </g>
      </g>
      <animate
         attributeName="display"
         begin="0s"
         repeatCount="1"
         dur="0.375s"
         keyTimes="0;0.778;1"
         values="none;inline;none"
         id="animate7931" />
    </g>
    <g
       id="coatCloseC006_2_188">
      <g
         id="element9">
        <path
           id="path89"
           d="m 0.4,-26.1 q 0.25,0.65 1.3,1.35 c 0.35,0.25 0.9,0.65 1.75,1.2 0.55,0.5 1,1.1 1.35,1.85 0.1,0.45 0.2,0.95 0.3,1.4 0.15,-0.95 0.25,-1.85 0.25,-2.65 l 0.75,1.25 c -0.7,-1.25 -1.5,-2.65 -2.4,-4.25 -0.9,-1.4 -2.2,-3.15 -3.95,-5.3 l -2.65,-2.85 -0.75,0 c -0.35,0.15 -0.75,0.2 -1.1,0.25 l -0.1,0.05 c -0.25,0.1 -0.5,0.2 -0.75,0.35 l 0.2,0.1 0.25,0.55 c 0.25,0.45 0.5,0.95 0.75,1.45 0.3,0.4 0.9,0.95 1.75,1.7 -0.35,-0.2 -0.85,-0.4 -1.45,-0.6 -1.55,-0.5 -3.05,-0.1 -4.6,1.15 0.6,0.75 1.05,1.6 1.4,2.5 0.1,0.2 0.15,0.35 0.15,0.45 1.25,-2.4 2.15,-3.65 2.75,-3.7 0.75,-0.05 1.2,0 1.45,0.1 l 0.55,0.25 c 0.15,0.15 0.3,0.3 0.55,0.45 0.7,0.45 1.1,0.8 1.15,1.05 0.1,0.1 0.45,0.75 1.1,1.9 z"
           inkscape:connector-curvature="0"
           style="fill:#721016" />
        <path
           id="path90"
           d="m 1.7,-24.75 q -1.05,-0.7 -1.3,-1.35 c -0.65,-1.15 -1,-1.8 -1.1,-1.9 -0.05,-0.25 -0.45,-0.6 -1.15,-1.05 0.35,0.3 0.55,0.6 0.65,0.9 0.45,0.8 0.8,2.2 1.15,4.2 -0.05,0.85 0.25,1.5 0.9,1.95 0.35,0.35 0.8,0.5 1.3,0.55 l 0.5,0.1 c -0.45,0.15 -0.8,0.2 -1.15,0.2 -0.85,0.35 -1.35,0.9 -1.5,1.55 -0.2,0.75 -0.3,1.5 -0.35,2.25 0,0.9 0.2,1.45 0.6,1.7 0.35,0.1 0.35,0.5 -0.1,1.2 -0.55,0.85 -0.85,1.4 -0.9,1.65 -0.25,1.95 -0.15,2.85 0.4,2.7 0.25,-0.05 0.55,-0.45 0.95,-1.1 0.2,-0.5 0.35,-1 0.4,-1.45 l 0.1,-2.15 0.45,0.35 c 0.35,0.05 0.8,-0.2 1.3,-0.85 0.1,-0.2 0.2,-0.35 0.3,-0.45 0.45,-1.05 0.75,-1.7 0.9,-2 0.45,-0.85 0.8,-1.7 1.05,-2.55 C 5,-20.75 4.9,-21.25 4.8,-21.7 4.45,-22.45 4,-23.05 3.45,-23.55 2.6,-24.1 2.05,-24.5 1.7,-24.75 z m -11.2,-5.4 0.8,1.05 c 1.55,-1.25 3.05,-1.65 4.6,-1.15 0.6,0.2 1.1,0.4 1.45,0.6 -0.85,-0.75 -1.45,-1.3 -1.75,-1.7 l -1.3,-0.05 c -1.45,-0.05 -2.6,0.3 -3.5,1.05 0.3,-0.35 0.6,-0.75 0.9,-1.1 -0.45,0.35 -0.85,0.8 -1.2,1.3 z m -1,39.85 c -0.45,0.35 -0.8,0.75 -0.95,1.1 -1.4,2.75 -1.9,5.85 -1.45,9.35 0,-1.05 0.15,-2.15 0.35,-3.25 0.4,-1.75 1.1,-4.15 2.05,-7.2 z m -3.375,9.2 -0.2,0.7 0.025,0 c 0.05,0.05 0.05,0.15 0.1,0.25 0.6,1.45 0.95,2.2 1,2.3 l 0,-0.025 0.9,0.525 c -0.15,-0.2 -0.25,-0.4 -0.35,-0.6 -0.75,-1.35 -1.25,-2.4 -1.45,-3.15 z"
           inkscape:connector-curvature="0"
           style="fill:#8a131b" />
        <path
           id="path91"
           d="m 6.8,-20.5 -0.7,-1.2 -0.75,-1.25 c 0,0.8 -0.1,1.7 -0.25,2.65 -0.25,0.85 -0.6,1.7 -1.05,2.55 -0.15,0.3 -0.45,0.95 -0.9,2 -0.4,1 -0.85,2.3 -1.4,3.85 -0.8,1.85 -1.5,3.3 -2.05,4.3 -0.2,0.3 -0.35,0.55 -0.4,0.7 -2.2,2.55 -4.05,5 -5.55,7.35 -1.55,2.3 -2.85,5.05 -3.85,8.25 -0.15,0.35 -0.25,0.65 -0.4,1 -0.95,3.05 -1.65,5.45 -2.05,7.2 -0.2,1.1 -0.35,2.2 -0.35,3.25 -0.05,0.2 0.15,0.85 0.5,1.9 0.1,0.2 0.2,0.4 0.35,0.6 l -0.9,-0.525 0,0.025 c -0.05,-0.1 -0.4,-0.85 -1,-2.3 -0.05,-0.1 -0.05,-0.2 -0.1,-0.25 -0.2,-0.45 -0.35,-0.7 -0.4,-0.75 0.05,-0.1 0,-0.25 -0.15,-0.45 -0.15,-1.95 -0.15,-3.25 0,-4 -0.05,0.15 -0.1,0.25 -0.15,0.4 l -0.025,-0.025 0,0.025 0.025,0 c -0.05,0.05 -0.05,0.15 -0.05,0.25 -0.7,1.35 -0.35,3.6 1,6.75 1.3,1.75 2.1,2.8 2.35,3.15 -0.15,-1.55 -0.15,-4.05 0,-7.4 0.1,-1.8 0.9,-4.5 2.35,-8.1 0.05,-0.3 0.15,-0.55 0.2,-0.75 0.05,-0.15 0.15,-0.35 0.2,-0.5 L -8.65,8.05 -8.65,8 -8.55,7.95 -5.3,1.2 c 0.65,-1.1 2.05,-2.85 4.3,-5.2 1.95,-2.85 3.4,-5.45 4.25,-7.85 1,-2.7 1.85,-4.9 2.6,-6.55 l 0.95,-2.1 z m -21.3,39.4 c 0,-0.05 0,-0.05 0.05,-0.05 0,0.15 0.1,0.45 0.25,0.95 -0.1,-0.25 -0.2,-0.55 -0.3,-0.9 z"
           inkscape:connector-curvature="0"
           style="fill:#263667" />
        <path
           id="path92"
           d="m -14.5,18.9 c 0.1,0.35 0.2,0.65 0.3,0.9 -0.15,-0.5 -0.25,-0.8 -0.25,-0.95 -0.05,0 -0.05,0 -0.05,0.05 z M 2.15,-21.45 c -0.5,-0.05 -0.95,-0.2 -1.3,-0.55 -0.65,-0.45 -0.95,-1.1 -0.9,-1.95 -0.35,-2 -0.7,-3.4 -1.15,-4.2 -0.1,-0.3 -0.3,-0.6 -0.65,-0.9 -0.05,0.05 0,0.15 0.1,0.2 0.75,0.85 1.1,2.35 1.05,4.5 0.05,2.25 0,4.1 -0.2,5.5 -0.15,1.35 -0.25,2.15 -0.25,2.4 -0.05,0.45 -0.15,1.45 -0.3,2.95 -0.15,1.35 -0.2,2.35 -0.1,3 0.05,0.95 0.3,1.7 0.65,2.25 0.15,0.45 0.35,0.65 0.6,0.65 0.55,-1 1.25,-2.45 2.05,-4.3 0.55,-1.55 1,-2.85 1.4,-3.85 -0.1,0.1 -0.2,0.25 -0.3,0.45 -0.5,0.65 -0.95,0.9 -1.3,0.85 L 1.1,-14.8 1,-12.65 c -0.05,0.45 -0.2,0.95 -0.4,1.45 -0.4,0.65 -0.7,1.05 -0.95,1.1 -0.55,0.15 -0.65,-0.75 -0.4,-2.7 0.05,-0.25 0.35,-0.8 0.9,-1.65 0.45,-0.7 0.45,-1.1 0.1,-1.2 -0.4,-0.25 -0.6,-0.8 -0.6,-1.7 0.05,-0.75 0.15,-1.5 0.35,-2.25 0.15,-0.65 0.65,-1.2 1.5,-1.55 0.35,0 0.7,-0.05 1.15,-0.2 l -0.5,-0.1 z m -8.95,21 c -0.35,-0.5 -0.95,-2.1 -1.9,-4.8 l 0,-0.025 -0.05,0.075 c 0,-0.05 0,-0.1 0.05,-0.15 -0.05,0 -0.2,-0.55 -0.5,-1.6 0.1,3.55 -0.3,6.85 -1.15,9.95 -0.85,3.1 -1.7,5.55 -2.5,7.3 -0.8,1.75 -1.4,3.15 -1.75,4.1 -0.15,0.75 -0.15,2.05 0,4 0.15,0.2 0.2,0.35 0.15,0.45 0.05,0.05 0.2,0.3 0.4,0.75 l -0.025,0 0.2,-0.7 0.025,0 c 0.2,0.75 0.7,1.8 1.45,3.15 -0.35,-1.05 -0.55,-1.7 -0.5,-1.9 -0.45,-3.5 0.05,-6.6 1.45,-9.35 0.15,-0.35 0.5,-0.75 0.95,-1.1 0.15,-0.35 0.25,-0.65 0.4,-1 1,-3.2 2.3,-5.95 3.85,-8.25 C -6.3,0.3 -6.45,0 -6.8,-0.45 z M -8.7,8.2 c -0.05,0.15 -0.15,0.35 -0.2,0.5 l 0.05,0 C -8.75,8.55 -8.7,8.35 -8.7,8.2 z"
           inkscape:connector-curvature="0"
           style="fill:#721016" />
        <path
           id="path97"
           d="m -7.25,-32.45 -1.05,1 c -0.3,0.35 -0.6,0.75 -0.9,1.1 0.9,-0.75 2.05,-1.1 3.5,-1.05 l 1.3,0.05 c -0.25,-0.5 -0.5,-1 -0.75,-1.45 l -0.25,-0.55 -0.2,-0.1 c 0.25,-0.15 0.5,-0.25 0.75,-0.35 -0.95,0.3 -1.75,0.75 -2.4,1.35 z"
           inkscape:connector-curvature="0"
           style="fill:#bd1a26" />
        <path
           id="path98"
           d="m -7.15,-26.15 c -0.05,0.05 -0.05,0.35 -0.05,0.9 -0.05,0.55 -0.05,1.2 -0.1,1.9 0,0.7 0,1.2 -0.05,1.45 -0.05,0.25 -0.1,0.8 -0.15,1.65 -0.1,0.85 -0.4,2.35 -0.9,4.4 -0.5,2.05 -0.75,4.35 -0.7,6.85 l -0.1,2.05 c 0.3,1.05 0.45,1.6 0.5,1.6 -0.05,0.05 -0.05,0.1 -0.05,0.15 l 0.05,-0.075 0,0.025 c 0.95,2.7 1.55,4.3 1.9,4.8 0.35,0.45 0.5,0.75 0.55,0.9 1.5,-2.35 3.35,-4.8 5.55,-7.35 0.05,-0.15 0.2,-0.4 0.4,-0.7 -0.25,0 -0.45,-0.2 -0.6,-0.65 -0.35,-0.55 -0.6,-1.3 -0.65,-2.25 -0.1,-0.65 -0.05,-1.65 0.1,-3 0.15,-1.5 0.25,-2.5 0.3,-2.95 0,-0.25 0.1,-1.05 0.25,-2.4 0.2,-1.4 0.25,-3.25 0.2,-5.5 0.05,-2.15 -0.3,-3.65 -1.05,-4.5 -0.1,-0.05 -0.15,-0.15 -0.1,-0.2 -0.25,-0.15 -0.4,-0.3 -0.55,-0.45 l -0.55,-0.25 c -0.25,-0.1 -0.7,-0.15 -1.45,-0.1 -0.6,0.05 -1.5,1.3 -2.75,3.7 z"
           inkscape:connector-curvature="0"
           style="fill:#510b0f" />
      </g>
      <g
         id="element10">
        <g
           id="drawingObject33">
          <path
             id="path109"
             d="m 5.573,-20.111 c -0.238,-0.325 -1.178,-0.621 -1.612,0.435 q -0.203,0.425 0.169,1.037 0.432,0.706 1.038,0.285 c 0.938,-0.61 0.637,-1.481 0.405,-1.757 z"
             inkscape:connector-curvature="0"
             style="fill:#bb8b36" />
        </g>
        <g
           id="drawingObject34">
          <path
             id="path110"
             d="m 5.397,-19.89 c -0.061,-0.093 -0.543,-0.794 -1.21,-0.013 q -0.308,0.387 -0.086,1.016 0.228,0.678 0.741,0.318 c 0.844,-0.548 0.621,-1.177 0.555,-1.321 z"
             inkscape:connector-curvature="0"
             style="fill:#fcbb49" />
        </g>
        <g
           id="drawingObject35">
          <path
             id="path111"
             d="m 4.641,-19.452 c 0.287,-0.133 0.214,-0.779 -0.2,-0.43 q -0.137,0.116 -0.065,0.309 0.072,0.194 0.265,0.121 z"
             inkscape:connector-curvature="0"
             style="fill:#fde2ac" />
        </g>
        <g
           id="drawingObject36">
          <path
             id="path112"
             d="m 4.192,-15.425 c -0.238,-0.326 -1.139,-0.727 -1.683,0.241 q -0.209,0.376 0.069,1.049 0.283,0.723 0.95,0.395 c 1.054,-0.472 0.853,-1.355 0.664,-1.685 z"
             inkscape:connector-curvature="0"
             style="fill:#bb8b36" />
        </g>
        <g
           id="drawingObject37">
          <path
             id="path113"
             d="M 3.966,-15.198 C 3.95,-15.348 3.517,-16.053 2.79,-15.367 q -0.364,0.343 -0.241,0.984 0.129,0.689 0.703,0.423 c 0.904,-0.455 0.781,-1.095 0.714,-1.238 z"
             inkscape:connector-curvature="0"
             style="fill:#fcbb49" />
        </g>
        <g
           id="drawingObject38">
          <path
             id="path114"
             d="m 3.194,-14.91 c 0.249,-0.028 0.319,-0.74 -0.15,-0.435 q -0.187,0.122 -0.115,0.315 0.072,0.193 0.265,0.12 z"
             inkscape:connector-curvature="0"
             style="fill:#fde2ac" />
        </g>
        <g
           id="drawingObject39">
          <path
             id="path115"
             d="M 1.813,-10.677 C 1.674,-11.013 0.899,-11.63 0.145,-10.739 q -0.314,0.337 -0.185,1.027 0.189,0.784 0.923,0.6 c 1.076,-0.273 1.074,-1.179 0.93,-1.565 z"
             inkscape:connector-curvature="0"
             style="fill:#bb8b36" />
        </g>
        <g
           id="drawingObject40">
          <path
             id="path116"
             d="M 1.581,-10.5 C 1.57,-10.599 1.325,-11.427 0.476,-10.928 q -0.469,0.305 -0.44,1.006 -0.026,0.657 0.615,0.534 c 0.976,-0.261 0.947,-0.962 0.93,-1.112 z"
             inkscape:connector-curvature="0"
             style="fill:#fcbb49" />
        </g>
        <g
           id="drawingObject41">
          <path
             id="path117"
             d="m 0.742,-10.354 c 0.304,0.016 0.479,-0.658 -0.051,-0.447 q -0.193,0.072 -0.17,0.271 0.022,0.199 0.221,0.176 z"
             inkscape:connector-curvature="0"
             style="fill:#fde2ac" />
        </g>
      </g>
      <g
         id="element11">
        <g
           id="drawingObject42">
          <path
             id="path118"
             d="m 4.951,-22.699 c 1.1,1.55 1.85,2.3 1.85,2.3 0,0 -1.6,-3.75 -3.85,-7.15 -2.25,-3.4 -5.25,-6.1 -5.25,-6.1 l 1.8,1.8 -1.8,-1.8 q -0.1,-0.65 -1.75,-0.65 c -1.65,0 -2.65,0.6 -2.65,0.6 l 0.7,-0.3 -0.7,0.3 0.55,0.95 -0.55,-0.95 c 0,0 0.75,1.75 2.25,2.4 1.5,0.65 3.65,2.1 4.55,3.25 0.95,1.15 3.75,3.75 4.85,5.35 z"
             inkscape:connector-curvature="0"
             style="fill:#97141e" />
        </g>
        <g
           id="drawingObject43">
          <path
             id="path119"
             d="m 4.951,-22.699 c 1.1,1.55 1.85,2.3 1.85,2.3 0,0 -1.2,-2.75 -2.95,-5.75 -0.6,-0.7 -1.4,-1.55 -2.4,-2.4 q -1.3,-1.1 -3.15,-2.5 -1.9,-1.4 -2.6,-2 c -0.55,-0.45 -0.7,-0.85 -0.65,-1.2 -1.1,0.15 -1.75,0.55 -1.75,0.55 l 0.45,-0.2 -0.45,0.2 0.55,0.95 -0.55,-0.95 c 0,0 0.75,1.75 2.25,2.4 1.5,0.65 3.65,2.1 4.55,3.25 0.95,1.15 3.75,3.75 4.85,5.35 z"
             inkscape:connector-curvature="0"
             style="fill:#314582" />
        </g>
      </g>
      <animate
         attributeName="display"
         begin="0s"
         repeatCount="1"
         dur="0.375s"
         keyTimes="0;0.556;0.778;1"
         values="none;inline;none;none"
         id="animate7965" />
    </g>
    <g
       id="coatCloseC006_2_186">
      <g
         id="element6">
        <path
           id="path56"
           d="m 6.25,-21.55 c -0.1,-0.4 -0.2,-0.7 -0.3,-0.95 -0.3,-0.15 -0.6,-0.35 -0.95,-0.6 -0.1,0.85 -0.15,1.6 -0.15,2.25 -0.55,1.35 -1.2,2.9 -1.9,4.65 -0.95,1.85 -1.6,3.55 -2.05,5.05 -0.25,0.25 -0.35,0.4 -0.3,0.45 l -0.15,0 c -0.25,0.5 -0.4,1 -0.5,1.5 -0.05,0.15 -0.15,0.2 -0.2,0.25 0.05,0.05 0.1,0.05 0.05,0.1 l 0,0.05 C -0.25,-8.85 -0.3,-8.9 -0.35,-9.05 -0.7,-8.6 -1.4,-7.5 -2.4,-5.8 l -0.625,0.9 0.025,0 c -0.55,1.2 -1,2.05 -1.35,2.5 -0.4,0.45 -0.65,0.8 -0.8,0.95 l 0.05,0 c -0.05,0.05 -0.05,0.05 -0.05,0.1 -0.05,0.05 -0.05,0.15 -0.1,0.25 0,-0.05 0,-0.05 -0.05,-0.1 -0.35,0.35 -0.65,0.75 -0.9,1.2 0.15,0.1 0.2,0.15 0.25,0.2 0.1,-0.05 0.2,-0.15 0.3,-0.2 0.05,0 0.05,0 0.1,-0.05 0.1,0.05 0.15,0 0.15,-0.05 0.05,-0.05 0.1,-0.05 0.15,-0.1 0.8,-0.55 1.75,-1.5 2.9,-2.85 0.55,-0.7 1.2,-1.5 1.85,-2.35 1.75,-2.7 3.15,-5.05 4.1,-7.05 0.75,-2.05 1.45,-3.9 2.2,-5.65 0.35,-1.4 0.65,-2.35 0.95,-2.8 q -0.65,-0.15 -0.5,-0.65 z"
           inkscape:connector-curvature="0"
           style="fill:#263667" />
        <path
           id="path57"
           d="m 4.85,-20.85 c 0,-0.65 0.05,-1.4 0.15,-2.25 l 0,-0.05 c -0.15,0.05 -0.15,0 -0.05,-0.15 -1.85,-2.15 -3.45,-4.4 -4.9,-6.75 -1.25,-1.9 -2,-3 -2.3,-3.3 -0.2,0.2 -0.65,0.35 -1.4,0.45 -0.55,0.3 -1,0.4 -1.25,0.3 0.65,0.85 1,1.4 1,1.6 0.6,0.75 0.9,1.15 0.85,1.25 -1.7,-0.25 -3.45,-0.05 -5.3,0.65 0.25,0.4 0.65,1.55 1.2,3.25 0,-0.6 0.35,-1.45 1,-2.3 0.8,-0.8 1.7,-1.3 2.85,-1.5 0.05,0.05 0.05,0.05 0.1,0.1 0.05,0.05 0.05,0.05 0.1,0.05 0.75,0.2 1.15,0.4 1.2,0.55 0.1,0 0.3,0.95 0.8,2.8 0.6,1.85 0.9,2.95 0.9,3.25 0.1,0.8 0,1.95 -0.05,3.05 0.2,-0.6 0.85,-1.25 2.05,-1.75 -0.15,0.05 -0.2,0.05 -0.15,0 -1.05,-0.15 -1.6,-1.2 -1.6,-3.05 -0.2,-1.95 -0.55,-3.15 -1.05,-3.6 l -0.025,0 0.125,0.1 c 0.65,0.25 1,0.85 1.15,1.8 0.35,1.15 0.8,1.8 1.25,2 0.4,0.3 1.05,0.85 1.95,1.7 0.75,0.85 1.2,1.45 1.4,1.8 z m -1.9,4.65 c -0.55,0.6 -1.1,1 -1.55,1.2 -0.55,0.35 -0.85,0.5 -0.9,0.45 0.05,1.4 0.2,2.55 0.4,3.4 0.45,-1.5 1.1,-3.2 2.05,-5.05 z m -2.825,5.625 0.025,0.025 c -0.3,0.45 -1.05,1.75 -2.2,3.8 -0.35,0.7 -0.7,1.4 -0.95,1.85 l -0.025,0 0.625,-0.9 c 1,-1.7 1.7,-2.8 2.05,-3.25 0.05,0.15 0.1,0.2 0.15,0.25 l 0,-0.05 c 0.05,-0.05 0,-0.05 -0.05,-0.1 0.05,-0.05 0.15,-0.1 0.2,-0.25 0.1,-0.5 0.25,-1 0.5,-1.5 -0.1,0.05 -0.2,0.1 -0.3,0.15 z M -0.55,-17.4 c -0.25,2.8 -0.25,4.5 -0.1,5 0.05,0.5 0.25,0.95 0.45,1.15 -0.05,-0.15 -0.15,-0.55 -0.25,-1 0,-0.35 0.25,-1.4 0.8,-3.1 -0.1,-1.05 -0.35,-2.25 -0.7,-3.7 -0.1,0.7 -0.15,1.15 -0.2,1.65 z m -8.35,9.25 c 0,0.05 0,0.05 0,0.1 -0.75,7.25 -2.25,11.3 -4.55,12.25 -0.05,0.05 -0.05,0.1 -0.1,0.15 0.05,-0.05 0.1,-0.1 0.15,-0.15 2.3,-0.35 4.8,-1.75 7.75,-4.2 -0.1,0.05 -0.2,0.15 -0.3,0.2 C -6,0.15 -6.05,0.1 -6.2,0 c 0.25,-0.45 0.55,-0.85 0.9,-1.2 0.05,-0.05 0.1,-0.1 0.15,-0.15 0,-0.05 0,-0.05 0.05,-0.1 l -0.05,0 -0.25,-0.025 -0.1,0 -0.05,-0.125 c 0.05,-0.15 0,-0.2 -0.05,-0.15 0,0 0,0 -0.05,0.05 -0.2,-0.05 -0.45,-0.25 -0.6,-0.75 C -6.4,-2.8 -6.6,-3.2 -6.8,-3.65 -7.05,-4.1 -7.3,-4.5 -7.55,-4.95 -7.8,-5.4 -8,-5.85 -8.05,-6.2 l 0,-0.025 -0.025,0 L -8.1,-6.2 c 0,-0.1 0,-0.15 -0.05,-0.2 C -8.3,-6.55 -8.4,-6.65 -8.5,-6.8 l 0.25,0.125 0,0.025 C -8.3,-6.7 -8.3,-6.7 -8.3,-6.75 c 0.1,0.05 0.05,0 -0.1,-0.05 l 0,-0.025 -0.125,-0.225 0.025,0 c 0.05,0.15 0.05,0.15 0.05,0.15 C -8.5,-6.95 -8.5,-7 -8.55,-7.05 l 0,-0.025 -0.35,-1.075 z"
           inkscape:connector-curvature="0"
           style="fill:#721016" />
        <path
           id="path59"
           d="m 1.65,-21.6 c -0.05,0.05 0,0.05 0.15,0 -1.2,0.5 -1.85,1.15 -2.05,1.75 -0.1,0.3 -0.15,0.55 -0.1,0.8 0.35,1.45 0.6,2.65 0.7,3.7 -0.55,1.7 -0.8,2.75 -0.8,3.1 0.1,0.45 0.2,0.85 0.25,1 0.1,0.2 0.1,0.2 0.1,0.2 0.15,0.3 0.2,0.45 0.25,0.5 0.1,-0.05 0.2,-0.1 0.3,-0.15 l 0.15,0 c -0.05,-0.05 0.05,-0.2 0.3,-0.45 -0.2,-0.85 -0.35,-2 -0.4,-3.4 0.05,0.05 0.35,-0.1 0.9,-0.45 0.45,-0.2 1,-0.6 1.55,-1.2 0.7,-1.75 1.35,-3.3 1.9,-4.65 -0.2,-0.35 -0.65,-0.95 -1.4,-1.8 -0.9,-0.85 -1.55,-1.4 -1.95,-1.7 -0.45,-0.2 -0.9,-0.85 -1.25,-2 -0.15,-0.95 -0.5,-1.55 -1.15,-1.8 l -0.125,-0.1 0.025,0 c 0.5,0.45 0.85,1.65 1.05,3.6 0,1.85 0.55,2.9 1.6,3.05 z m -10.1,-9.15 c 0.1,0.05 0.15,0.15 0.15,0.2 -0.05,0.05 -0.2,0.2 -0.5,0.4 0.4,0.45 0.55,0.8 0.45,1.05 1.85,-0.7 3.6,-0.9 5.3,-0.65 0.05,-0.1 -0.25,-0.5 -0.85,-1.25 -0.1,0.15 -0.5,0.2 -1.25,0.1 -1.05,0.1 -2.15,0.15 -3.3,0.15 z"
           inkscape:connector-curvature="0"
           style="fill:#8a131b" />
        <path
           id="path62"
           d="m 0.125,-10.575 0.025,0.025 c -0.05,-0.05 -0.1,-0.2 -0.25,-0.5 0,0 0,0 -0.1,-0.2 -0.2,-0.2 -0.4,-0.65 -0.45,-1.15 -0.15,-0.5 -0.15,-2.2 0.1,-5 0.05,-0.5 0.1,-0.95 0.2,-1.65 -0.05,-0.25 0,-0.5 0.1,-0.8 0.05,-1.1 0.15,-2.25 0.05,-3.05 0,-0.3 -0.3,-1.4 -0.9,-3.25 -0.5,-1.85 -0.7,-2.8 -0.8,-2.8 -0.05,-0.15 -0.45,-0.35 -1.2,-0.55 -0.05,0 -0.05,0 -0.1,-0.05 -0.05,-0.05 -0.05,-0.05 -0.1,-0.1 -1.15,0.2 -2.05,0.7 -2.85,1.5 -0.65,0.85 -1,1.7 -1,2.3 0,0.15 0,0.4 0,0.85 -0.05,0.45 -0.05,1.05 -0.1,1.85 -0.05,0.8 -0.2,1.7 -0.35,2.65 -0.15,0.95 -0.3,1.8 -0.4,2.55 0,0.2 0,0.35 -0.05,0.45 -0.05,0.15 -0.05,0.3 -0.1,0.45 -0.05,0.15 -0.05,0.25 -0.05,0.4 -0.05,0.1 -0.05,0.2 -0.05,0.3 l 0,-0.025 -0.05,-0.025 c -0.05,0.35 -0.1,0.7 -0.05,0.9 -0.1,0.35 -0.2,0.65 -0.25,1 -0.15,1.15 -0.3,2.25 -0.35,3.35 -0.05,0.55 -0.05,1.15 0,1.7 -0.1,0.55 -0.1,0.75 -0.1,0.95 0.05,0.15 0.1,0.3 0.15,0.45 0,-0.05 0,-0.05 0,-0.1 l 0.35,1.075 0,0.025 c 0.05,0.05 0.05,0.1 0.1,0.15 0,0 0,0 -0.05,-0.15 l -0.025,0 0.125,0.225 0,0.025 c 0.15,0.05 0.2,0.1 0.1,0.05 0,0.05 0,0.05 0.05,0.1 l 0,-0.025 L -8.5,-6.8 c 0.1,0.15 0.2,0.25 0.35,0.4 0.05,0.05 0.05,0.1 0.05,0.2 l 0.025,-0.025 0.025,-0.025 0,0.025 0,0.025 c 0.05,0.35 0.25,0.8 0.5,1.25 0.25,0.45 0.5,0.85 0.75,1.3 0.2,0.45 0.4,0.85 0.55,1.2 0.15,0.5 0.4,0.7 0.6,0.75 0.05,-0.05 0.05,-0.05 0.05,-0.05 0.05,-0.05 0.1,0 0.05,0.15 l 0.05,0.125 0,-0.025 0.05,0 0.05,0.025 0.25,0.025 c 0.15,-0.15 0.4,-0.5 0.8,-0.95 0.35,-0.45 0.8,-1.3 1.35,-2.5 0.25,-0.45 0.6,-1.15 0.95,-1.85 1.15,-2.05 1.9,-3.35 2.2,-3.8 m -5.3,9.2 c -0.05,0.05 -0.1,0.1 -0.15,0.15 0.05,0.05 0.05,0.05 0.05,0.1 0.05,-0.1 0.05,-0.2 0.1,-0.25 z"
           inkscape:connector-curvature="0"
           style="fill:#510b0f" />
        <path
           id="path63"
           d="m -8.4,-7.3 c 0,-0.05 0,-0.05 -0.05,-0.1 l 0.05,0.125 0,-0.025"
           inkscape:connector-curvature="0"
           style="fill:#721016" />
        <path
           id="path66"
           d="m -3.9,-31 c 0,-0.2 -0.35,-0.75 -1,-1.6 -1,0.4 -2.2,1 -3.55,1.85 1.15,0 2.25,-0.05 3.3,-0.15 0.75,0.1 1.15,0.05 1.25,-0.1 z"
           inkscape:connector-curvature="0"
           style="fill:#bd1a26" />
        <path
           id="path74"
           d="m -5.45,-1.5 -0.05,0 0,0.025 0.1,0 -0.05,-0.025"
           inkscape:connector-curvature="0"
           style="fill:#263667" />
        <path
           id="path77"
           d="m -5.25,-0.2 c -0.05,0.05 -0.1,0.05 -0.15,0.1 0,0.05 -0.05,0.1 -0.15,0.05 C -5.6,0 -5.6,0 -5.65,0 -8.6,2.45 -11.1,3.85 -13.4,4.2 c -0.05,0.05 -0.1,0.1 -0.15,0.15 0.05,-0.05 0.05,-0.1 0.1,-0.15 -0.35,0.1 -0.9,0.1 -1.4,0 -3.05,-0.55 -5.1,-1.55 -6.05,-3 -0.95,-1.55 -1.75,-2.95 -2.3,-4.2 -0.55,2.15 -0.6,5.15 -0.15,9 0.45,3.85 2.6,5.7 6.5,5.5 3.9,-0.25 8.75,-5.1 14.6,-14.65 -0.05,0.05 -0.05,0.05 -0.1,0.1 -1.15,1.35 -2.1,2.3 -2.9,2.85 z"
           inkscape:connector-curvature="0"
           style="fill:#5b0d11" />
      </g>
      <g
         id="element7">
        <g
           id="drawingObject22">
          <path
             id="path78"
             d="m 5.391,-19.849 c -0.235,-0.328 -1.17,-0.635 -1.616,0.415 q -0.209,0.423 0.155,1.039 0.424,0.711 1.035,0.297 c 0.944,-0.598 0.655,-1.473 0.426,-1.751 z"
             inkscape:connector-curvature="0"
             style="fill:#bb8b36" />
        </g>
        <g
           id="drawingObject23">
          <path
             id="path79"
             d="m 5.212,-19.63 c -0.06,-0.094 -0.533,-0.8 -1.209,-0.028 q -0.313,0.383 -0.098,1.015 0.22,0.681 0.736,0.327 c 0.85,-0.538 0.636,-1.17 0.571,-1.314 z"
             inkscape:connector-curvature="0"
             style="fill:#fcbb49" />
        </g>
        <g
           id="drawingObject24">
          <path
             id="path80"
             d="m 4.451,-19.201 c 0.289,-0.13 0.223,-0.776 -0.194,-0.433 q -0.139,0.115 -0.069,0.309 0.069,0.194 0.263,0.124 z"
             inkscape:connector-curvature="0"
             style="fill:#fde2ac" />
        </g>
        <g
           id="drawingObject25">
          <path
             id="path81"
             d="m 3.954,-15.182 c -0.234,-0.328 -1.13,-0.739 -1.686,0.221 q -0.213,0.374 0.056,1.05 0.274,0.726 0.946,0.407 c 1.058,-0.459 0.868,-1.344 0.684,-1.678 z"
             inkscape:connector-curvature="0"
             style="fill:#bb8b36" />
        </g>
        <g
           id="drawingObject26">
          <path
             id="path82"
             d="m 3.725,-14.957 c -0.015,-0.15 -0.438,-0.86 -1.174,-0.183 q -0.367,0.339 -0.252,0.98 0.12,0.691 0.697,0.432 c 0.909,-0.444 0.794,-1.085 0.729,-1.229 z"
             inkscape:connector-curvature="0"
             style="fill:#fcbb49" />
        </g>
        <g
           id="drawingObject27">
          <path
             id="path83"
             d="m 2.95,-14.678 c 0.248,-0.025 0.327,-0.736 -0.145,-0.437 q -0.189,0.119 -0.119,0.313 0.07,0.194 0.264,0.124 z"
             inkscape:connector-curvature="0"
             style="fill:#fde2ac" />
        </g>
        <g
           id="drawingObject28">
          <path
             id="path84"
             d="m 1.517,-10.463 c -0.134,-0.338 -0.901,-0.964 -1.666,-0.083 q -0.318,0.334 -0.198,1.025 0.18,0.786 0.916,0.611 c 1.079,-0.26 1.088,-1.165 0.948,-1.553 z"
             inkscape:connector-curvature="0"
             style="fill:#bb8b36" />
        </g>
        <g
           id="drawingObject29">
          <path
             id="path85"
             d="m 1.284,-10.289 c -0.01,-0.099 -0.245,-0.93 -1.1,-0.441 q -0.472,0.299 -0.451,1 -0.034,0.657 0.607,0.542 c 0.98,-0.25 0.959,-0.951 0.944,-1.101 z"
             inkscape:connector-curvature="0"
             style="fill:#fcbb49" />
        </g>
        <g
           id="drawingObject30">
          <path
             id="path86"
             d="m 0.443,-10.153 c 0.304,0.019 0.487,-0.653 -0.045,-0.448 q -0.194,0.07 -0.174,0.269 0.02,0.199 0.219,0.179 z"
             inkscape:connector-curvature="0"
             style="fill:#fde2ac" />
        </g>
      </g>
      <g
         id="element8">
        <g
           id="drawingObject31">
          <path
             id="path87"
             d="m 4.951,-22.699 c 1.1,1.55 1.85,2.3 1.85,2.3 0,0 -1.6,-3.75 -3.85,-7.15 -2.25,-3.4 -5.25,-6.1 -5.25,-6.1 l 1.8,1.8 -1.8,-1.8 q -0.1,-0.65 -1.75,-0.65 c -1.65,0 -2.65,0.6 -2.65,0.6 l 0.7,-0.3 -0.7,0.3 0.55,0.95 -0.55,-0.95 c 0,0 0.75,1.75 2.25,2.4 1.5,0.65 3.65,2.1 4.55,3.25 0.95,1.15 3.75,3.75 4.85,5.35 z"
             inkscape:connector-curvature="0"
             style="fill:#97141e" />
        </g>
        <g
           id="drawingObject32">
          <path
             id="path88"
             d="m 4.951,-22.699 c 1.1,1.55 1.85,2.3 1.85,2.3 0,0 -1.2,-2.75 -2.95,-5.75 -0.6,-0.7 -1.4,-1.55 -2.4,-2.4 q -1.3,-1.1 -3.15,-2.5 -1.9,-1.4 -2.6,-2 c -0.55,-0.45 -0.7,-0.85 -0.65,-1.2 -1.1,0.15 -1.75,0.55 -1.75,0.55 l 0.45,-0.2 -0.45,0.2 0.55,0.95 -0.55,-0.95 c 0,0 0.75,1.75 2.25,2.4 1.5,0.65 3.65,2.1 4.55,3.25 0.95,1.15 3.75,3.75 4.85,5.35 z"
             inkscape:connector-curvature="0"
             style="fill:#314582" />
        </g>
      </g>
      <animate
         attributeName="display"
         begin="0s"
         repeatCount="1"
         dur="0.375s"
         keyTimes="0;0.333;0.556;1"
         values="none;inline;none;none"
         id="animate8001" />
    </g>
    <g
       id="coatCloseC006_2_184">
      <g
         id="element3">
        <path
           id="path27"
           d="m 1.45,-24.9 q -0.75,-0.45 -1.3,-2.05 c -0.25,-0.95 -0.65,-1.5 -1.2,-1.75 -0.05,-0.05 -0.1,-0.05 -0.25,-0.1 0.55,0.4 1,1.55 1.3,3.45 0.05,1.7 0.6,2.75 1.6,3.1 0.05,0.05 0.1,0.1 0.2,0.05 -1.6,0.35 -2.35,1.05 -2.25,2 0.45,1.4 0.65,2.55 0.7,3.45 -0.65,1.45 -1,2.4 -1,2.8 0.05,0.75 0.2,1.35 0.4,1.75 0.25,0.05 0.4,0 0.5,-0.05 0.05,0 0.15,0 0.2,0 0,-0.05 0.1,-0.2 0.3,-0.45 -0.1,-0.85 -0.2,-1.95 -0.25,-3.3 0.1,0.05 0.4,-0.05 0.9,-0.25 0.55,-0.15 1.05,-0.4 1.6,-0.8 0.7,-1.45 1.35,-2.8 1.9,-3.95 -0.15,-0.35 -0.6,-1 -1.35,-2 -0.95,-0.95 -1.6,-1.6 -2,-1.9 z m -6.85,-6.35 c -1.05,0.05 -2.1,0.05 -3.25,0.1 l 0.15,0.2 c -0.05,-0.05 -0.25,0.05 -0.55,0.3 0.45,0.35 0.6,0.6 0.5,0.85 1.8,-0.65 3.55,-0.8 5.25,-0.35 0.05,-0.15 -0.25,-0.5 -0.9,-1.15 -0.05,0.05 -0.45,0.1 -1.2,0.05 z"
           inkscape:connector-curvature="0"
           style="fill:#8a131b" />
        <path
           id="path28"
           d="m 0.15,-26.95 q 0.55,1.6 1.3,2.05 c 0.4,0.3 1.05,0.95 2,1.9 0.75,1 1.2,1.65 1.35,2 0,-0.65 0.05,-1.4 0.2,-2.2 l 0,-0.05 c -0.05,0 -0.1,-0.05 -0.05,-0.15 -1.8,-2.45 -3.5,-4.8 -5.05,-7 -1.4,-1.8 -2.2,-2.8 -2.35,-2.95 -0.3,0.1 -0.8,0.2 -1.45,0.35 -0.65,0.2 -1.05,0.3 -1.25,0.25 0.65,0.75 0.95,1.2 0.95,1.45 0.65,0.65 0.95,1 0.9,1.15 -1.7,-0.45 -3.45,-0.3 -5.25,0.35 0.3,0.35 0.8,1.4 1.5,3.25 0.05,-0.9 0.4,-1.75 1.15,-2.5 0.85,-0.65 1.8,-1 2.95,-1 l 0,-0.05 c 0.05,0.05 0.05,0.1 0.1,0.15 0.05,0.05 0.05,0.05 0.1,0.1 0.7,0.3 1.1,0.55 1.15,0.7 0.05,0.05 0.2,1 0.55,2.9 0.45,1.95 0.7,3.1 0.65,3.35 0.05,1.15 -0.2,2.95 -0.7,5.4 -0.45,2.75 -0.6,4.4 -0.5,4.9 0.05,0.55 0.2,1 0.45,1.45 0.15,0.3 0.2,0.5 0.25,0.55 0.05,0.05 0.15,0.15 0.2,0.25 l 0,-0.05 -0.05,-0.1 c 0.05,-0.1 0.15,-0.2 0.2,-0.25 0.25,-0.5 0.45,-1 0.7,-1.5 -0.1,0.05 -0.25,0.1 -0.5,0.05 -0.2,-0.4 -0.35,-1 -0.4,-1.75 0,-0.4 0.35,-1.35 1,-2.8 -0.05,-0.9 -0.25,-2.05 -0.7,-3.45 -0.1,-0.95 0.65,-1.65 2.25,-2 -0.1,0.05 -0.15,0 -0.2,-0.05 -1,-0.35 -1.55,-1.4 -1.6,-3.1 -0.3,-1.9 -0.75,-3.05 -1.3,-3.45 0.15,0.05 0.2,0.05 0.25,0.1 0.55,0.25 0.95,0.8 1.2,1.75 z m 0.5,14.25 c 0.6,-1.5 1.35,-2.95 2.25,-4.35 -0.55,0.4 -1.05,0.65 -1.6,0.8 -0.5,0.2 -0.8,0.3 -0.9,0.25 0.05,1.35 0.15,2.45 0.25,3.3 z m -18.2,11.15 c 0.4,0.3 0.65,0.5 0.75,0.55 1.35,0.9 2.95,1.35 4.9,1.4 L -11.925,0.375 -11.95,0.4 c 0,0 0.05,0 0.05,0 2.1,-1 3.2,-1.65 3.3,-1.9 l 0.05,0 0,-0.05 c 0,-0.05 0,-0.05 0.05,-0.05 -0.05,0.05 -0.05,0.05 -0.05,0.1 0.5,-0.4 0.95,-0.8 1.35,-1.2 -0.05,-0.05 -0.05,-0.05 -0.1,-0.1 l 0,-0.05 c -0.2,-0.05 -0.4,-0.3 -0.55,-0.85 -0.2,-0.6 -0.45,-1.45 -0.8,-2.55 0,-0.25 -0.05,-0.45 -0.2,-0.7 C -9,-7.4 -9.05,-7.5 -9,-7.25 l -0.2,-0.6 -0.025,-0.025 0.025,0.025 c -0.05,0.05 -0.05,0.1 -0.1,0.15 -1.2,2.9 -2.45,4.75 -3.8,5.55 -1.35,0.8 -2.85,1 -4.45,0.6 z"
           inkscape:connector-curvature="0"
           style="fill:#721016" />
        <path
           id="path29"
           d="m 6.2,-21.5 c -0.05,-0.45 -0.15,-0.75 -0.25,-0.9 -0.3,-0.2 -0.6,-0.45 -0.95,-0.8 -0.15,0.8 -0.2,1.55 -0.2,2.2 -0.55,1.15 -1.2,2.5 -1.9,3.95 -0.9,1.4 -1.65,2.85 -2.25,4.35 -0.2,0.25 -0.3,0.4 -0.3,0.45 -0.05,0 -0.15,0 -0.2,0 -0.25,0.5 -0.45,1 -0.7,1.5 -0.05,0.05 -0.15,0.15 -0.2,0.25 l 0.05,0.1 0,0.05 c -0.05,-0.1 -0.15,-0.2 -0.2,-0.25 -0.35,0.4 -1.2,1.55 -2.45,3.4 -1.15,1.85 -2.4,3.4 -3.75,4.6 -0.05,0 -0.05,0 -0.1,0 l 0,-0.05 0,-0.05 c -0.4,0.4 -0.85,0.8 -1.35,1.2 l -0.05,0 c -0.1,0.25 -1.2,0.9 -3.3,1.9 0,0 -0.05,0 -0.05,0 0.05,0 0.05,0 0.1,0 l -0.025,-0.025 0.275,0 0,0.025 C -10.95,0.35 -10.3,0.3 -9.55,0.2 -9.7,0.25 -9.6,0.25 -9.3,0.15 l -0.025,-0.025 0.025,0 0.05,-0.1 0,0.075 c 0.05,-0.05 0.05,-0.05 0.1,-0.05 0.35,-0.2 0.7,-0.4 1.05,-0.65 -0.4,0.25 -0.6,0.45 -0.65,0.6 -0.15,0.05 -0.25,0.15 -0.4,0.25 -0.05,0.05 -0.1,0.05 -0.1,0.1 0.2,-0.1 0.35,-0.2 0.45,-0.3 -0.05,0.1 -0.15,0.2 -0.2,0.3 0.35,-0.3 1.05,-0.75 2.1,-1.4 1.35,-0.85 3.2,-2.7 5.55,-5.55 2.3,-2.9 3.9,-5.25 4.85,-7 0.95,-1.8 1.7,-3.35 2.25,-4.7 0.45,-1.25 0.75,-2.05 0.9,-2.5 -0.35,-0.15 -0.5,-0.4 -0.45,-0.7 z m -13.5,18.65 0,0.05 c 0.05,0.05 0.05,0.05 0.1,0.1 0.05,-0.15 0,-0.2 -0.05,-0.2 0.05,0.05 0,0.1 -0.05,0.05 z"
           inkscape:connector-curvature="0"
           style="fill:#263667" />
        <path
           id="path34"
           d="m -8.65,-31.15 c 1.15,-0.05 2.2,-0.05 3.25,-0.1 0.75,0.05 1.15,0 1.2,-0.05 0,-0.25 -0.3,-0.7 -0.95,-1.45 -1.05,0.35 -2.2,0.85 -3.5,1.6 z"
           inkscape:connector-curvature="0"
           style="fill:#bd1a26" />
        <path
           id="path35"
           d="m -5.9,-29.05 c -0.75,0.75 -1.1,1.6 -1.15,2.5 -0.05,2.95 -0.4,5.75 -1.05,8.45 -0.75,3.05 -1.1,5.4 -1,7 0.05,1.6 -0.05,2.65 -0.3,3.2 0,0.1 0,0.15 0.05,0.15 l 0.05,0.05 c 0.05,-0.05 0.05,-0.1 0.1,-0.15 l -0.025,-0.025 0.025,0.025 0.2,0.6 c -0.05,-0.25 0,-0.15 0.15,0.3 0.15,0.25 0.2,0.45 0.2,0.7 0.35,1.1 0.6,1.95 0.8,2.55 0.15,0.55 0.35,0.8 0.55,0.85 0.05,0.05 0.1,0 0.05,-0.05 0.05,0 0.1,0.05 0.05,0.2 0.05,0 0.05,0 0.1,0 -0.05,0 -0.05,0 -0.1,0.05 l 0,0.05 c 0.05,0 0.05,0 0.1,0 1.35,-1.2 2.6,-2.75 3.75,-4.6 1.25,-1.85 2.1,-3 2.45,-3.4 -0.05,-0.05 -0.1,-0.25 -0.25,-0.55 -0.25,-0.45 -0.4,-0.9 -0.45,-1.45 -0.1,-0.5 0.05,-2.15 0.5,-4.9 0.5,-2.45 0.75,-4.25 0.7,-5.4 0.05,-0.25 -0.2,-1.4 -0.65,-3.35 -0.35,-1.9 -0.5,-2.85 -0.55,-2.9 -0.05,-0.15 -0.45,-0.4 -1.15,-0.7 -0.05,-0.05 -0.05,-0.05 -0.1,-0.1 -0.05,-0.05 -0.05,-0.05 -0.1,-0.1 -1.15,0 -2.1,0.35 -2.95,1 z"
           inkscape:connector-curvature="0"
           style="fill:#510b0f" />
        <path
           id="path36"
           d="m -2.95,-30.05 c 0.05,0.05 0.05,0.05 0.1,0.1 -0.05,-0.05 -0.05,-0.1 -0.1,-0.15 l 0,0.05"
           inkscape:connector-curvature="0"
           style="fill:#8a131b" />
        <path
           id="path37"
           d="m -22.75,-16.85 c -1.15,2.4 -1.7,5.95 -1.55,10.65 0.15,4.7 1.3,7.55 3.55,8.55 2.25,1 4.45,1.15 6.6,0.4 1.35,-0.45 3,-1.3 5,-2.5 0.15,-0.1 0.25,-0.2 0.4,-0.25 0.05,-0.15 0.25,-0.35 0.65,-0.6 -0.35,0.25 -0.7,0.45 -1.05,0.65 -0.05,0 -0.05,0 -0.1,0.05 l -0.05,0.025 -0.025,0 0.025,0 0,0.025 c -0.3,0.1 -0.4,0.1 -0.25,0.05 -0.75,0.1 -1.4,0.15 -2.05,0.2 l 0,-0.025 -0.275,0 0.025,0.025 c -0.05,0 -0.05,0 -0.1,0 L -11.925,0.375 -11.9,0.4 c -1.95,-0.05 -3.55,-0.5 -4.9,-1.4 -0.1,-0.05 -0.35,-0.25 -0.75,-0.55 l 0.125,0.125 0.025,0.025 c -1.65,-1.25 -2.8,-2.8 -3.55,-4.65 -0.85,-2.1 -1.35,-4 -1.6,-5.7 -0.25,-1.7 -0.3,-3.4 -0.2,-5.1 z"
           inkscape:connector-curvature="0"
           style="fill:#5b0d11" />
        <path
           id="path41"
           d="m -7.1,-2.7 c -0.05,0 -0.05,0 -0.1,0 l 0,0.05 c 0.05,-0.05 0.05,-0.05 0.1,-0.05"
           inkscape:connector-curvature="0"
           style="fill:#721016" />
      </g>
      <g
         id="element4">
        <g
           id="drawingObject11">
          <path
             id="path45"
             d="m 5.717,-19.892 c -0.191,-0.355 -1.08,-0.778 -1.655,0.208 q -0.26,0.393 0.023,1.051 0.331,0.758 0.989,0.425 c 1.013,-0.474 0.836,-1.379 0.643,-1.684 z"
             inkscape:connector-curvature="0"
             style="fill:#bb8b36" />
        </g>
        <g
           id="drawingObject12">
          <path
             id="path46"
             d="m 5.512,-19.697 c -0.047,-0.101 -0.428,-0.861 -1.195,-0.181 q -0.359,0.341 -0.226,0.995 0.132,0.703 0.69,0.417 c 0.911,-0.427 0.777,-1.08 0.731,-1.231 z"
             inkscape:connector-curvature="0"
             style="fill:#fcbb49" />
        </g>
        <g
           id="drawingObject13">
          <path
             id="path47"
             d="m 4.704,-19.368 c 0.302,-0.092 0.319,-0.742 -0.139,-0.453 q -0.152,0.096 -0.107,0.297 0.045,0.201 0.246,0.156 z"
             inkscape:connector-curvature="0"
             style="fill:#fde2ac" />
        </g>
        <g
           id="drawingObject14">
          <path
             id="path48"
             d="m 3.704,-15.442 c -0.191,-0.355 -1.028,-0.876 -1.701,0.007 q -0.258,0.343 -0.076,1.048 0.181,0.755 0.887,0.523 c 1.108,-0.322 1.031,-1.225 0.89,-1.578 z"
             inkscape:connector-curvature="0"
             style="fill:#bb8b36" />
        </g>
        <g
           id="drawingObject15">
          <path
             id="path49"
             d="m 3.449,-15.249 c 0.004,-0.15 -0.327,-0.908 -1.142,-0.329 q -0.407,0.29 -0.374,0.941 0.032,0.701 0.637,0.516 c 0.959,-0.325 0.925,-0.976 0.879,-1.128 z"
             inkscape:connector-curvature="0"
             style="fill:#fcbb49" />
        </g>
        <g
           id="drawingObject16">
          <path
             id="path50"
             d="m 2.644,-15.069 c 0.25,0.006 0.418,-0.69 -0.088,-0.452 q -0.203,0.095 -0.158,0.296 0.045,0.201 0.246,0.156 z"
             inkscape:connector-curvature="0"
             style="fill:#fde2ac" />
        </g>
        <g
           id="drawingObject17">
          <path
             id="path51"
             d="m 0.692,-11.068 c -0.091,-0.352 -0.773,-1.069 -1.643,-0.291 q -0.357,0.291 -0.325,0.992 0.08,0.802 0.832,0.721 c 1.103,-0.122 1.226,-1.019 1.136,-1.422 z"
             inkscape:connector-curvature="0"
             style="fill:#bb8b36" />
        </g>
        <g
           id="drawingObject18">
          <path
             id="path52"
             d="m 0.439,-10.924 c 0.002,-0.1 -0.126,-0.953 -1.036,-0.576 q -0.506,0.237 -0.574,0.935 -0.116,0.647 0.535,0.614 c 1.003,-0.125 1.071,-0.823 1.075,-0.973 z"
             inkscape:connector-curvature="0"
             style="fill:#fcbb49" />
        </g>
        <g
           id="drawingObject19">
          <path
             id="path53"
             d="m -0.412,-10.896 c 0.298,0.058 0.565,-0.585 0.011,-0.449 q -0.201,0.044 -0.206,0.244 -0.005,0.2 0.195,0.205 z"
             inkscape:connector-curvature="0"
             style="fill:#fde2ac" />
        </g>
      </g>
      <g
         id="element5">
        <g
           id="drawingObject20">
          <path
             id="path54"
             d="m 4.951,-22.699 c 1.1,1.55 1.85,2.3 1.85,2.3 0,0 -1.6,-3.75 -3.85,-7.15 -2.25,-3.4 -5.25,-6.1 -5.25,-6.1 l 1.8,1.8 -1.8,-1.8 q -0.1,-0.65 -1.75,-0.65 c -1.65,0 -2.65,0.6 -2.65,0.6 l 0.7,-0.3 -0.7,0.3 0.55,0.95 -0.55,-0.95 c 0,0 0.75,1.75 2.25,2.4 1.5,0.65 3.65,2.1 4.55,3.25 0.95,1.15 3.75,3.75 4.85,5.35 z"
             inkscape:connector-curvature="0"
             style="fill:#97141e" />
        </g>
        <g
           id="drawingObject21">
          <path
             id="path55"
             d="m 4.951,-22.699 c 1.1,1.55 1.85,2.3 1.85,2.3 0,0 -1.2,-2.75 -2.95,-5.75 -0.6,-0.7 -1.4,-1.55 -2.4,-2.4 q -1.3,-1.1 -3.15,-2.5 -1.9,-1.4 -2.6,-2 c -0.55,-0.45 -0.7,-0.85 -0.65,-1.2 -1.1,0.15 -1.75,0.55 -1.75,0.55 l 0.45,-0.2 -0.45,0.2 0.55,0.95 -0.55,-0.95 c 0,0 0.75,1.75 2.25,2.4 1.5,0.65 3.65,2.1 4.55,3.25 0.95,1.15 3.75,3.75 4.85,5.35 z"
             inkscape:connector-curvature="0"
             style="fill:#314582" />
        </g>
      </g>
      <animate
         attributeName="display"
         begin="0s"
         repeatCount="1"
         dur="0.375s"
         keyTimes="0;0.111;0.333;1"
         values="none;inline;none;none"
         id="animate8037" />
    </g>
    <g
       id="coatCloseC006_2_183">
      <g
         id="element">
        <path
           id="path"
           d="m 6.1,-21.4 q 0.005,-0.659 -0.25,-0.925 l 0,0.025 C 5.6,-22.55 5.3,-22.8 4.9,-23.1 c -0.15,0.75 -0.25,1.5 -0.25,2.2 -0.55,1.15 -1.2,2.45 -2,3.9 -0.85,1.35 -1.75,2.75 -2.8,4.1 -0.05,0.05 -0.1,0.15 -0.05,0.3 l -0.025,-0.025 -0.2,0 0.025,0.025 c -0.35,0.35 -0.65,0.75 -0.95,1.15 -0.1,0.05 -0.2,0.15 -0.25,0.25 l -0.025,0 0.05,0.05 0,0.05 0.025,0 c -0.05,-0.05 -0.15,-0.15 -0.2,-0.2 -0.45,0.25 -1.4,1.05 -2.75,2.35 -1.35,1.25 -2.8,2.15 -4.35,2.8 -0.05,0 -0.05,0 -0.1,0 l -0.025,-0.05 0.025,0 -0.025,-0.025 0,-0.025 -1.425,0.65 -0.05,0 0.025,-0.05 -0.05,0.025 -0.025,0.025 -0.65,0.225 0,-0.025 c -1.55,0.25 -2.7,0.35 -3.45,0.25 -0.75,-0.1 -1.5,-0.25 -2.15,-0.4 0.5,0.35 1.1,0.75 1.8,1.2 1.35,0.45 2.75,0.5 4.2,0.15 l -0.4,0.225 0.575,-0.1 0.025,0.025 c 3.05,-0.5 5.9,-1.95 8.5,-4.3 2.6,-2.4 4.4,-4.3 5.4,-5.7 1,-1.45 1.75,-2.8 2.3,-4.1 0.5,-1.35 0.8,-2.15 0.85,-2.5 -0.25,-0.25 -0.4,-0.5 -0.4,-0.75 z m -15.15,15.05 0.075,0.075 -0.05,-0.175 0.025,0 c -0.05,0.05 -0.1,0.15 -0.05,0.05 0,0.05 0,0.05 0,0.05 z"
           inkscape:connector-curvature="0"
           style="fill:#263667" />
        <path
           id="path1"
           d="m 4.65,-20.9 c 0,-0.7 0.1,-1.45 0.25,-2.2 l 0,-0.05 -0.05,-0.15 c -1.75,-2.55 -3.4,-4.9 -5,-7.1 -1.45,-1.95 -2.2,-2.95 -2.3,-2.95 -0.35,0 -0.85,0.1 -1.5,0.3 -0.65,0.15 -1.1,0.25 -1.3,0.25 0.65,0.7 0.95,1.2 1,1.45 0.55,0.65 0.85,1.05 0.85,1.2 -1.8,-0.55 -3.55,-0.45 -5.3,0.25 0.3,0.35 0.8,1.45 1.45,3.3 0,-0.95 0.4,-1.8 1.2,-2.45 0.85,-0.65 1.85,-1 3,-1 l 0,-0.05 0.2,0.25 c 0.65,0.3 1,0.55 1.15,0.7 -0.05,0.05 0.1,1.05 0.45,2.9 0.35,2 0.55,3.15 0.55,3.45 0,1.15 -0.3,2.95 -0.85,5.45 -0.55,2.45 -0.85,3.9 -0.8,4.3 0,0.4 0.1,0.8 0.35,1.25 0.05,0.2 0.15,0.35 0.25,0.5 0.05,0.05 0.15,0.15 0.2,0.2 l -0.025,0 0,-0.05 -0.05,-0.05 0.025,0 c 0.05,-0.1 0.15,-0.2 0.25,-0.25 0.3,-0.4 0.6,-0.8 0.95,-1.15 l -0.025,-0.025 -0.625,0 0,0.025 c -0.2,-0.45 -0.3,-0.95 -0.3,-1.55 0,-0.35 0.4,-1.2 1.25,-2.45 0,-0.9 -0.25,-2.05 -0.7,-3.45 -0.15,-1 0.7,-1.7 2.45,-2.05 l -0.025,0 -0.225,-0.05 c -0.95,-0.35 -1.5,-1.4 -1.65,-3.1 -0.25,-1.95 -0.6,-3.15 -1.15,-3.6 l -0.025,0 0.25,0.15 0.025,0 c 0.45,0.25 0.85,0.85 1.2,1.8 0.35,1 0.75,1.7 1.3,2.05 0.45,0.25 1.1,0.9 1.95,1.95 0.8,0.95 1.25,1.65 1.35,2 z m -2,3.9 c -0.45,0.35 -1,0.65 -1.65,0.85 -0.5,0.15 -0.85,0.2 -1,0.2 0,1.15 -0.05,2.2 -0.15,3.05 1.05,-1.35 1.95,-2.75 2.8,-4.1 z m -23.8,6.95 c -0.15,0 -0.25,0 -0.4,-0.05 0.2,0.15 0.4,0.35 0.65,0.5 l -0.025,-0.025 0,0.025 0.025,0 c 0.15,0.35 0.45,0.75 0.85,1.2 0.4,0.4 0.7,0.75 0.85,1.05 0.1,0.2 0.9,0.8 2.45,1.8 0.65,0.15 1.4,0.3 2.15,0.4 0.75,0.1 1.9,0 3.45,-0.25 l 0,0.025 0.65,-0.225 0.025,-0.025 0.175,-0.275 c -0.05,0.1 -0.1,0.2 -0.1,0.25 l -0.025,0 -0.025,0.05 0.05,0 1.425,-0.65 0,0.025 0.025,0.025 0.3,-0.1 -0.3,0.05 -0.025,-0.025 -0.075,-0.075 c 0,0 0,0 0,-0.05 -0.15,-0.1 -0.35,-0.4 -0.5,-0.8 -0.15,-0.55 -0.35,-1.2 -0.55,-2 0,-0.2 -0.05,-0.35 -0.15,-0.55 -0.1,-0.35 -0.15,-0.45 -0.1,-0.25 -0.05,-0.05 -0.1,-0.15 -0.15,-0.4 l 0,-0.1 c -0.05,0.05 -0.1,0.1 -0.1,0.15 -3.05,3.7 -6.6,3.8 -10.55,0.3 z"
           inkscape:connector-curvature="0"
           style="fill:#721016" />
        <path
           id="path2"
           d="m 1.4,-22.15 0.225,0.05 0.025,0 c -1.75,0.35 -2.6,1.05 -2.45,2.05 0.45,1.4 0.7,2.55 0.7,3.45 -0.85,1.25 -1.25,2.1 -1.25,2.45 0,0.6 0.1,1.1 0.3,1.55 l 0,-0.025 0.625,0 0.2,0 0.025,0.025 c -0.05,-0.15 0,-0.25 0.05,-0.3 0.1,-0.85 0.15,-1.9 0.15,-3.05 0.15,0 0.5,-0.05 1,-0.2 0.65,-0.2 1.2,-0.5 1.65,-0.85 0.8,-1.45 1.45,-2.75 2,-3.9 -0.1,-0.35 -0.55,-1.05 -1.35,-2 -0.85,-1.05 -1.5,-1.7 -1.95,-1.95 -0.55,-0.35 -0.95,-1.05 -1.3,-2.05 -0.35,-0.95 -0.75,-1.55 -1.2,-1.8 l -0.025,0 -0.25,-0.15 0.025,0 c 0.55,0.45 0.9,1.65 1.15,3.6 0.15,1.7 0.7,2.75 1.65,3.1 z m -6.9,-9.15 c -1.1,0 -2.2,0.05 -3.25,0.1 l -0.025,-0.025 0.125,0.2 0,0.025 c -0.15,-0.05 -0.3,0.05 -0.55,0.3 0.4,0.3 0.55,0.55 0.5,0.8 1.75,-0.7 3.5,-0.8 5.3,-0.25 0,-0.15 -0.3,-0.55 -0.85,-1.2 -0.15,0 -0.6,0 -1.25,0.05 z"
           inkscape:connector-curvature="0"
           style="fill:#8a131b" />
        <path
           id="path7"
           d="m -8.75,-31.2 c 1.05,-0.05 2.15,-0.1 3.25,-0.1 0.65,-0.05 1.1,-0.05 1.25,-0.05 -0.05,-0.25 -0.35,-0.75 -1,-1.45 -1.05,0.25 -2.2,0.8 -3.5,1.6 z"
           inkscape:connector-curvature="0"
           style="fill:#bd1a26" />
        <path
           id="path8"
           d="m -6.05,-29.05 c -0.8,0.65 -1.2,1.5 -1.2,2.45 0.15,2.15 -0.05,4.75 -0.6,7.8 -0.55,3.05 -1.1,5.1 -1.6,6.2 -0.55,1.1 -0.95,1.8 -1.2,2.1 l 0,-0.025 0,0.125 0.025,0.05 0.025,0 c 0,-0.05 0.05,-0.1 0.1,-0.15 l 0,0.1 c 0.05,0.25 0.1,0.35 0.15,0.4 -0.05,-0.2 0,-0.1 0.1,0.25 0.1,0.2 0.15,0.35 0.15,0.55 0.2,0.8 0.4,1.45 0.55,2 0.15,0.4 0.35,0.7 0.5,0.8 -0.05,0.1 0,0 0.05,-0.05 l -0.025,0 0.05,0.175 0.025,0.025 0.3,-0.05 -0.3,0.1 -0.025,0 0.025,0.05 c 0.05,0 0.05,0 0.1,0 1.55,-0.65 3,-1.55 4.35,-2.8 1.35,-1.3 2.3,-2.1 2.75,-2.35 -0.1,-0.15 -0.2,-0.3 -0.25,-0.5 -0.25,-0.45 -0.35,-0.85 -0.35,-1.25 -0.05,-0.4 0.25,-1.85 0.8,-4.3 0.55,-2.5 0.85,-4.3 0.85,-5.45 0,-0.3 -0.2,-1.45 -0.55,-3.45 -0.35,-1.85 -0.5,-2.85 -0.45,-2.9 -0.15,-0.15 -0.5,-0.4 -1.15,-0.7 l -0.2,-0.2 c -1.15,0 -2.15,0.35 -3,1 z"
           inkscape:connector-curvature="0"
           style="fill:#510b0f" />
        <path
           id="path10"
           d="m -21.55,-10.1 c 0.15,0.05 0.25,0.05 0.4,0.05 -0.15,-0.3 -0.35,-0.65 -0.55,-1 -0.35,-0.6 -0.65,-1.3 -0.9,-2.1 -0.3,-0.8 -0.55,-1.9 -0.75,-3.25 -0.2,-1.35 -0.25,-2.8 -0.2,-4.35 0.05,-1.55 0.1,-3.1 0.15,-4.7 -1.15,1.65 -1.95,3.2 -2.45,4.7 -1.25,3.55 -0.9,6.7 1.1,9.45 1.95,2.75 4.05,4.6 6.2,5.6 2.15,1 3.4,1.5 3.75,1.45 -0.05,-0.05 -0.1,-0.05 -0.15,-0.1 -0.7,-0.45 -1.3,-0.85 -1.8,-1.2 -1.55,-1 -2.35,-1.6 -2.45,-1.8 -0.15,-0.3 -0.45,-0.65 -0.85,-1.05 -0.4,-0.45 -0.7,-0.85 -0.85,-1.2 l -0.025,-0.025 0,0.025 0.025,0 c -0.25,-0.15 -0.45,-0.35 -0.65,-0.5 z"
           inkscape:connector-curvature="0"
           style="fill:#5b0d11" />
      </g>
      <g
         id="element1">
        <g
           id="drawingObject">
          <path
             id="path16"
             d="m 5.707,-19.595 c -0.156,-0.371 -1.002,-0.876 -1.668,0.051 q -0.296,0.367 -0.076,1.048 0.258,0.786 0.945,0.517 c 1.053,-0.377 0.962,-1.294 0.799,-1.616 z"
             inkscape:connector-curvature="0"
             style="fill:#bb8b36" />
        </g>
        <g
           id="drawingObject1">
          <path
             id="path17"
             d="M 5.485,-19.42 C 5.447,-19.526 5.14,-20.318 4.312,-19.713 q -0.39,0.305 -0.319,0.969 0.065,0.713 0.647,0.481 c 0.948,-0.339 0.877,-1.002 0.845,-1.157 z"
             inkscape:connector-curvature="0"
             style="fill:#fcbb49" />
        </g>
        <g
           id="drawingObject2">
          <path
             id="path18"
             d="m 4.649,-19.169 c 0.31,-0.063 0.387,-0.708 -0.095,-0.464 q -0.161,0.081 -0.136,0.285 0.026,0.205 0.231,0.179 z"
             inkscape:connector-curvature="0"
             style="fill:#fde2ac" />
        </g>
        <g
           id="drawingObject3">
          <path
             id="path19"
             d="m 3.282,-15.355 c -0.157,-0.372 -0.941,-0.97 -1.694,-0.154 q -0.29,0.317 -0.175,1.036 0.108,0.769 0.833,0.604 c 1.134,-0.215 1.143,-1.121 1.036,-1.486 z"
             inkscape:connector-curvature="0"
             style="fill:#bb8b36" />
        </g>
        <g
           id="drawingObject4">
          <path
             id="path20"
             d="m 3.01,-15.187 c 0.018,-0.149 -0.24,-0.935 -1.106,-0.435 q -0.433,0.25 -0.461,0.901 -0.035,0.701 0.585,0.574 c 0.985,-0.234 1.013,-0.885 0.982,-1.04 z"
             inkscape:connector-curvature="0"
             style="fill:#fcbb49" />
        </g>
        <g
           id="drawingObject5">
          <path
             id="path21"
             d="m 2.191,-15.084 c 0.249,0.03 0.481,-0.647 -0.045,-0.459 q -0.21,0.076 -0.185,0.28 0.026,0.205 0.23,0.179 z"
             inkscape:connector-curvature="0"
             style="fill:#fde2ac" />
        </g>
        <g
           id="drawingObject6">
          <path
             id="path22"
             d="m -0.131,-11.285 c -0.057,-0.36 -0.668,-1.138 -1.608,-0.446 q -0.383,0.256 -0.417,0.957 0.003,0.806 0.76,0.796 c 1.11,-0.017 1.317,-0.898 1.265,-1.307 z"
             inkscape:connector-curvature="0"
             style="fill:#bb8b36" />
        </g>
        <g
           id="drawingObject7">
          <path
             id="path23"
             d="m -0.397,-11.166 c 0.012,-0.099 -0.035,-0.961 -0.976,-0.672 q -0.526,0.188 -0.66,0.877 -0.177,0.633 0.474,0.662 c 1.011,-0.029 1.144,-0.718 1.162,-0.867 z"
             inkscape:connector-curvature="0"
             style="fill:#fcbb49" />
        </g>
        <g
           id="drawingObject8">
          <path
             id="path24"
             d="m -1.246,-11.218 c 0.291,0.085 0.617,-0.53 0.053,-0.447 q -0.204,0.025 -0.228,0.224 -0.024,0.199 0.175,0.223 z"
             inkscape:connector-curvature="0"
             style="fill:#fde2ac" />
        </g>
      </g>
      <g
         id="element2">
        <g
           id="drawingObject9">
          <path
             id="path25"
             d="m 4.951,-22.699 c 1.1,1.55 1.85,2.3 1.85,2.3 0,0 -1.6,-3.75 -3.85,-7.15 -2.25,-3.4 -5.25,-6.1 -5.25,-6.1 l 1.8,1.8 -1.8,-1.8 q -0.1,-0.65 -1.75,-0.65 c -1.65,0 -2.65,0.6 -2.65,0.6 l 0.7,-0.3 -0.7,0.3 0.55,0.95 -0.55,-0.95 c 0,0 0.75,1.75 2.25,2.4 1.5,0.65 3.65,2.1 4.55,3.25 0.95,1.15 3.75,3.75 4.85,5.35 z"
             inkscape:connector-curvature="0"
             style="fill:#97141e" />
        </g>
        <g
           id="drawingObject10">
          <path
             id="path26"
             d="m 4.951,-22.699 c 1.1,1.55 1.85,2.3 1.85,2.3 0,0 -1.2,-2.75 -2.95,-5.75 -0.6,-0.7 -1.4,-1.55 -2.4,-2.4 q -1.3,-1.1 -3.15,-2.5 -1.9,-1.4 -2.6,-2 c -0.55,-0.45 -0.7,-0.85 -0.65,-1.2 -1.1,0.15 -1.75,0.55 -1.75,0.55 l 0.45,-0.2 -0.45,0.2 0.55,0.95 -0.55,-0.95 c 0,0 0.75,1.75 2.25,2.4 1.5,0.65 3.65,2.1 4.55,3.25 0.95,1.15 3.75,3.75 4.85,5.35 z"
             inkscape:connector-curvature="0"
             style="fill:#314582" />
        </g>
      </g>
      <animate
         attributeName="display"
         begin="0s"
         repeatCount="1"
         dur="0.375s"
         keyTimes="0;0.111;1"
         values="inline;none;none"
         id="animate8071" />
    </g>
  </g>
</svg>
