<?xml version="1.0" encoding="UTF-8" standalone="no"?>
<!-- Generator: flash2svg, http://dissentgraphics.com/tools/flash2svg -->

<svg
   xmlns:dc="http://purl.org/dc/elements/1.1/"
   xmlns:cc="http://creativecommons.org/ns#"
   xmlns:rdf="http://www.w3.org/1999/02/22-rdf-syntax-ns#"
   xmlns:svg="http://www.w3.org/2000/svg"
   xmlns="http://www.w3.org/2000/svg"
   xmlns:sodipodi="http://sodipodi.sourceforge.net/DTD/sodipodi-0.dtd"
   xmlns:inkscape="http://www.inkscape.org/namespaces/inkscape"
   id="AvatarAssets"
   image-rendering="auto"
   version="1.1"
   x="0px"
   y="0px"
   width="29.450001"
   height="49.23875"
   viewBox="0 0 29.450001 49.23875"
   inkscape:version="0.48.4 r9939"
   sodipodi:docname="AvatarAssets_capeD006.ANI-idle2.svg">
  <metadata
     id="metadata140">
    <rdf:RDF>
      <cc:Work
         rdf:about="">
        <dc:format>image/svg+xml</dc:format>
        <dc:type
           rdf:resource="http://purl.org/dc/dcmitype/StillImage" />
      </cc:Work>
    </rdf:RDF>
  </metadata>
  <sodipodi:namedview
     pagecolor="#ffffff"
     bordercolor="#666666"
     borderopacity="1"
     objecttolerance="10"
     gridtolerance="10"
     guidetolerance="10"
     inkscape:pageopacity="0"
     inkscape:pageshadow="2"
     inkscape:window-width="640"
     inkscape:window-height="480"
     id="namedview138"
     showgrid="false"
     fit-margin-top="0"
     fit-margin-left="0"
     fit-margin-right="0"
     fit-margin-bottom="0"
     inkscape:zoom="1.9032258"
     inkscape:cx="51.45"
     inkscape:cy="-46.98"
     inkscape:window-x="0"
     inkscape:window-y="0"
     inkscape:window-maximized="0"
     inkscape:current-layer="AvatarAssets" />
  <defs
     id="defs3" />
  <g
     id="capeD7"
     overflow="visible"
     style="overflow:visible"
     transform="translate(19.45,34.21875)">
    <g
       id="capeD006_1_932">
      <g
         id="element19">
        <path
           id="path124"
           d="m -2.725,-33.225 q -0.117,0.041 -0.225,0.075 c -0.35,0.35 -1.9,2.05 -4.55,5 -2.7,2.95 -4.6,6.85 -5.7,11.6 -1.1,4.75 -1.75,8 -1.95,9.75 -0.25,0.55 -0.45,2.25 -0.6,5.1 0.05,0.45 0.15,1.15 0.25,2.2 0.05,1 0.1,2.35 0.1,4.05 -0.05,0.5 -0.05,1 -0.1,1.45 -0.15,1.1 -0.5,2.05 -0.95,2.9 -0.35,0.55 -0.75,1.25 -1.2,2.05 1,-0.95 1.85,-2 2.6,-3.15 0.7,-1.2 1.1,-3.3 1.25,-6.25 0.2,-3.1 0.6,-7.55 1.25,-13.35 0.65,-5.8 1.95,-10 3.95,-12.65 2,-2.65 3.45,-4.25 4.35,-4.8 0.85,-0.55 1.35,-0.9 1.45,-0.95 0.15,0 0.25,0 0.35,0 0.05,0 0.05,0 0.05,0.05 0.05,0.15 0.1,0.55 0.05,1.3 -0.05,0.75 0.25,1.55 0.9,2.4 0.6,0.85 1.45,0.9 2.55,0.1 1.05,-0.8 2.2,-1.65 3.4,-2.5 -0.1,-0.25 -0.2,-0.45 -0.3,-0.7 -0.05,-0.1 -0.1,-0.2 -0.15,-0.3 -0.75,-1.5 -2,-2.75 -3.75,-3.8 -0.3,-0.05 -0.6,-0.1 -0.9,-0.05 -0.05,-0.05 -0.1,-0.05 -0.15,-0.05 -0.15,-0.05 -0.35,-0.05 -0.5,-0.1 -0.05,0 -0.15,0 -0.25,0 -0.45,0.15 -0.85,0.4 -1.2,0.65 M 1.1,3.45 C 1.05,3.4 0.95,3.4 0.85,3.45 0.7,3.6 0.5,3.75 0.25,3.9 0,4.05 -0.3,4.45 -0.7,5.05 -1.1,5.65 -1.35,6.35 -1.45,7.1 -1.4,7 -1.4,6.9 -1.35,6.85 L 1.125,4.625 1.15,4.65 C 1.2,4.6 1.3,4.6 1.35,4.55 1.5,4.5 1.6,4.5 1.75,4.45 1.85,4.4 1.95,4.4 2.05,4.4 2.3,4.35 2.5,4.35 2.75,4.35 3.35,4.35 4,4.4 4.65,4.45 4.25,4 3.6,3.75 2.65,3.65 1.7,3.5 1.15,3.45 1.1,3.45 z m -9.7,7.9 C -8.65,10.65 -8.8,9.8 -8.95,8.85 -9.1,8.1 -9.2,7.85 -9.25,8.1 c -0.3,-0.7 -0.65,-1 -1.1,-0.9 -0.45,0.05 -0.65,0.1 -0.7,0.1 -0.1,0 -0.35,0.1 -0.75,0.3 -0.45,0.2 -1.05,0.8 -1.85,1.8 -0.55,0.75 -1.1,1.45 -1.6,2.15 l 0,0.025 0,0.025 c 0.5,-0.2 1,-0.35 1.55,-0.45 0.2,-0.25 0.4,-0.3 0.55,-0.25 0,0.05 0,0.1 0,0.15 0.6,-0.1 1.25,-0.15 1.9,-0.1 0.7,0.05 1.45,0.15 2.2,0.3 0.15,0.05 0.3,0.05 0.45,0.1 z"
           inkscape:connector-curvature="0"
           style="fill:#c21d1a" />
        <path
           id="path125"
           d="m -1.45,-26.45 c -0.65,-0.85 -0.95,-1.65 -0.9,-2.4 0.05,-0.75 0,-1.15 -0.05,-1.3 0,-0.05 0,-0.05 -0.05,-0.05 -0.1,0 -0.2,0 -0.35,0 -0.1,0.05 -0.6,0.4 -1.45,0.95 -0.9,0.55 -2.35,2.15 -4.35,4.8 -2,2.65 -3.3,6.85 -3.95,12.65 -0.65,5.8 -1.05,10.25 -1.25,13.35 -0.15,2.95 -0.55,5.05 -1.25,6.25 -0.75,1.15 -1.6,2.2 -2.6,3.15 -0.5,0.9 -1.1,1.95 -1.8,3.2 1.35,-1.2 2.75,-2.05 4.2,-2.55 l 0,-0.025 0,-0.025 c 0.5,-0.7 1.05,-1.4 1.6,-2.15 0.8,-1 1.4,-1.6 1.85,-1.8 0.4,-0.2 0.65,-0.3 0.75,-0.3 0.05,0 0.25,-0.05 0.7,-0.1 0.45,-0.1 0.8,0.2 1.1,0.9 0.05,-0.25 0.15,0 0.3,0.75 0.15,0.95 0.3,1.8 0.35,2.5 3.45,0.65 5.65,-0.3 6.55,-2.9 C -1.9,7.95 -1.7,7.5 -1.45,7.1 -1.35,6.35 -1.1,5.65 -0.7,5.05 -0.3,4.45 0,4.05 0.25,3.9 0.5,3.75 0.7,3.6 0.85,3.45 c 0.1,-0.05 0.2,-0.05 0.25,0 0.05,0 0.6,0.05 1.55,0.2 0.95,0.1 1.6,0.35 2,0.8 C 6.35,4.6 8.15,5.05 10,5.7 9.85,5.3 9.15,3.35 7.9,-0.15 6.7,-3.65 5.95,-8.1 5.65,-13.45 5.3,-18.85 5.1,-23.1 5,-26.25 c -0.05,-0.95 -0.25,-1.8 -0.5,-2.6 -1.2,0.85 -2.35,1.7 -3.4,2.5 -1.1,0.8 -1.95,0.75 -2.55,-0.1 z m -11.7,37.35 c -0.15,-0.05 -0.35,0 -0.55,0.25 0.2,-0.05 0.4,-0.05 0.55,-0.1 0,-0.05 0,-0.1 0,-0.15 z"
           inkscape:connector-curvature="0"
           style="fill:#851611" />
        <path
           id="path132"
           d="m -19,14.225 0,0.025 0.025,-0.025 -0.025,0"
           inkscape:connector-curvature="0"
           style="fill:#851611" />
      </g>
      <animate
         attributeName="display"
         begin="0s"
         repeatCount="1"
         dur="3.917s"
         keyTimes="0;0.862;1"
         values="none;inline;none"
         id="animate11" />
    </g>
    <g
       id="capeD006_1_930">
      <g
         id="element18">
        <path
           id="path113"
           d="m -4.65,-29.525 q 2.065,-1.669 2.6,1.75 l 0,0.025 c 0.35,2.25 1.55,2.6 3.5,1 1.95,-1.6 2.95,-2.4 3.1,-2.4 0.1,-0.05 0.25,0.05 0.4,0.2 C 4.2,-30.3 3.3,-31.4 2.35,-32.15 2.5,-32.1 2.6,-32 2.7,-31.95 2.7,-32 2.55,-32.1 2.25,-32.35 1.9,-32.6 1.45,-33 0.9,-33.5 c -0.55,-0.55 -1.4,-0.7 -2.45,-0.5 -1.8,0.65 -3.3,1.85 -4.5,3.5 -0.75,1 -1.45,2.05 -2.1,3.2 -0.25,0.5 -0.5,0.9 -0.7,1.2 -0.2,0.25 -0.45,0.75 -0.75,1.4 -0.35,0.65 -0.65,1.25 -0.95,1.85 -0.3,0.6 -0.75,1.9 -1.35,3.9 -0.65,2 -1.25,4.8 -1.9,8.45 -0.65,3.65 -0.95,6.35 -1,8.15 -0.05,1.75 -0.1,3.2 -0.15,4.25 -0.05,1.05 -0.2,2.3 -0.45,3.65 -0.3,1.1 -0.7,2.15 -1.2,3.2 -0.65,1.2 -1.25,2.35 -1.9,3.5 0.15,-0.25 0.35,-0.55 0.5,-0.8 0.05,-0.05 0.15,-0.05 0.2,0 0.05,0.05 0.05,0.1 0.1,0.15 0.4,-0.75 0.8,-1.5 1.25,-2.25 0.75,-1.35 1.35,-2.65 1.75,-3.8 0.35,-1.65 0.6,-3.1 0.7,-4.3 0.1,-1.2 0.3,-3.2 0.65,-6.05 0.3,-2.85 0.8,-5.65 1.45,-8.3 0.65,-2.7 1.05,-4.55 1.3,-5.6 0.25,-1.05 0.95,-2.8 2.15,-5.35 1.15,-2.55 2.45,-4.35 3.8,-5.45"
           inkscape:connector-curvature="0"
           style="fill:#c21d1a" />
        <path
           id="path114"
           d="m -2.05,-27.775 q -0.535,-3.419 -2.6,-1.75 l 0,0.025 c -1.35,1.1 -2.65,2.9 -3.8,5.45 -1.2,2.55 -1.9,4.3 -2.15,5.35 -0.25,1.05 -0.65,2.9 -1.3,5.6 -0.65,2.65 -1.15,5.45 -1.45,8.3 -0.35,2.85 -0.55,4.85 -0.65,6.05 -0.1,1.2 -0.35,2.65 -0.7,4.3 -0.4,1.15 -1,2.45 -1.75,3.8 -0.45,0.75 -0.85,1.5 -1.25,2.25 -0.05,-0.05 -0.05,-0.1 -0.1,-0.15 -0.05,-0.05 -0.15,-0.05 -0.2,0 -0.15,0.25 -0.35,0.55 -0.5,0.8 l -0.45,0.8 c 0,0.05 0,0.15 -0.05,0.2 -0.05,0.05 -0.05,0.1 0,0.15 -0.05,0 -0.05,0 -0.1,0.05 0.05,0 0.05,0 0.1,0 0,0.05 0.05,0.05 0.1,0.05 0.05,-0.05 0.05,-0.05 0.1,-0.1 0.2,-0.05 0.4,-0.1 0.6,-0.15 0.45,-0.35 0.95,-0.65 1.5,-1 0.4,-0.25 0.7,-0.5 0.85,-0.75 0.6,-0.5 1.4,-1.3 2.45,-2.4 1.45,-1.55 2.75,-2.65 3.95,-3.3 1.2,-0.7 1.85,-0.2 1.95,1.45 0.1,1.65 0.7,2.65 1.8,3.05 0.3,0.1 0.6,0.15 0.9,0.2 0.05,0.05 0.15,0.05 0.2,0.05 0.05,0 0.05,0.05 -0.05,0.15 0.45,0 0.85,0 1.3,-0.05 0.15,0 0.3,-0.05 0.45,-0.1 l 0,-0.025 0.05,-0.05 0,0.025 C -2.8,10.35 -2.75,10.25 -2.7,10.15 -2.05,9.7 -1.45,8.75 -0.8,7.3 -0.15,5.65 0.5,4.65 1.15,4.25 1.8,3.8 2.9,3.85 4.45,4.35 6,4.8 7.15,5.05 7.8,5.1 c 0.15,0 0.25,0 0.4,0 0.25,0.05 0.55,0.15 0.85,0.2 0.1,0 0.2,0 0.25,0.05 L 9.3,5.325 9.575,5.35 9.6,5.375 9.6,5.4 c 0,0 0,0 0.05,0.05 L 9.675,5.425 9.65,5.425 9.7,5.45 C 9.65,5.4 9.65,5.4 9.65,5.35 9.6,5.3 9.6,5.2 9.6,5.15 c 0,0 0,0 0,-0.05 C 9.55,5.05 9.55,5.05 9.55,5 L 8.975,3.075 9,3.1 C 8.95,3 8.95,2.9 8.9,2.8 7.8,-1.2 7.1,-5.3 6.8,-9.55 c -0.35,-5 -0.75,-10 -1.15,-14.95 0,0 0,0 -0.05,0.05 0,-0.35 0,-0.65 0,-1 -0.05,-1.25 -0.3,-2.4 -0.65,-3.4 l -0.025,-0.025 0.05,0.025 0.025,0 c 0,0 0.05,0.05 0.15,0.1 -0.05,-0.05 -0.15,-0.15 -0.2,-0.2 -0.15,-0.15 -0.3,-0.25 -0.4,-0.2 -0.15,0 -1.15,0.8 -3.1,2.4 -1.95,1.6 -3.15,1.25 -3.5,-1 M 8.95,4.4 C 8.85,4.25 8.8,4.15 8.75,4 c 0,0.05 0,0.05 0.05,0.1 0.05,0.1 0.1,0.2 0.15,0.3 z"
           inkscape:connector-curvature="0"
           style="fill:#851611" />
        <path
           id="path115"
           d="m 8.925,4.4 0.025,0 C 8.9,4.3 8.85,4.2 8.8,4.1 8.75,4.05 8.75,4.05 8.75,4 8.8,4.15 8.85,4.25 8.95,4.4 M 8.2,5.1 c -0.15,0 -0.25,0 -0.4,0 C 7.15,5.05 6,4.8 4.45,4.35 2.9,3.85 1.8,3.8 1.15,4.25 0.5,4.65 -0.15,5.65 -0.8,7.3 c -0.65,1.45 -1.25,2.4 -1.9,2.85 -0.05,0.1 -0.1,0.2 -0.15,0.35 l 0,-0.025 -0.05,0.05 0,0.025 C -2.85,10.5 -2.8,10.45 -2.75,10.4 -1.35,9.05 0.05,7.65 1.4,6.2 1.75,5.85 2.25,5.6 2.8,5.5 4.95,5.25 7,5.15 9.05,5.3 8.75,5.25 8.45,5.15 8.2,5.1 z M -5.7,10.3 C -6.8,9.9 -7.4,8.9 -7.5,7.25 -7.6,5.6 -8.25,5.1 -9.45,5.8 c -1.2,0.65 -2.5,1.75 -3.95,3.3 -1.05,1.1 -1.85,1.9 -2.45,2.4 -0.15,0.25 -0.45,0.5 -0.85,0.75 -0.55,0.35 -1.05,0.65 -1.5,1 0.35,-0.15 0.75,-0.4 1.15,-0.65 1.05,-0.75 2.2,-1.35 3.45,-1.75 1.95,-0.65 3.95,-0.75 5.9,-0.3 -0.05,0 -0.05,0 -0.1,-0.05 -0.1,-0.05 -0.2,-0.05 -0.3,-0.1 1.1,0.2 2.25,0.3 3.45,0.3 0.1,-0.1 0.1,-0.15 0.05,-0.15 -0.05,0 -0.15,0 -0.2,-0.05 -0.3,-0.05 -0.6,-0.1 -0.9,-0.2 z"
           inkscape:connector-curvature="0"
           style="fill:#c21d1a" />
        <path
           id="path118"
           d="m 4.975,-28.85 -0.025,0 0.05,0.05 -0.025,-0.05"
           inkscape:connector-curvature="0"
           style="fill:#c21d1a" />
        <path
           id="path121"
           d="M 9.65,5.45 C 9.6,5.4 9.6,5.4 9.6,5.4 c 0.05,0.05 0.05,0.05 0.1,0.1 0,-0.05 0,-0.05 0,-0.05 m -0.025,-0.025 -0.025,0"
           inkscape:connector-curvature="0"
           style="fill:#c21d1a" />
      </g>
      <animate
         attributeName="display"
         begin="0s"
         repeatCount="1"
         dur="3.917s"
         keyTimes="0;0.84;0.862;1"
         values="none;inline;none;none"
         id="animate20" />
    </g>
    <g
       id="capeD006_1_928">
      <g
         id="element17">
        <path
           id="path102"
           d="m 2.35,-32.15 q 0.176,0.1 0.35,0.2 c 0,-0.05 0,-0.05 -0.05,-0.1 -0.6,-0.45 -1.15,-0.95 -1.7,-1.5 -0.6,-0.55 -1.35,-0.75 -2.3,-0.5 -1.95,0.7 -3.5,1.9 -4.7,3.55 -0.75,1 -1.45,2.05 -2.1,3.2 -0.25,0.5 -0.45,1 -0.5,1.45 -0.1,0.05 -0.15,0.1 -0.2,0.2 -0.25,1.05 -0.55,2.15 -0.8,3.25 -0.75,3.3 -1.5,6.65 -2.15,10.05 -0.65,3.7 -1.25,7.35 -1.7,10.95 -0.15,0.25 -0.25,0.5 -0.3,0.8 -0.25,1.3 -0.8,3.55 -1.6,6.7 -0.35,1.2 -1,2.75 -2,4.6 0.2,-0.35 0.45,-0.75 0.75,-1.3 0.25,-0.55 0.65,-1.35 1.1,-2.4 0.45,-1.05 0.8,-2.15 1.15,-3.25 0.35,-1.15 0.55,-1.95 0.65,-2.5 0.1,-0.55 0.2,-1.05 0.35,-1.45 0.1,-0.4 0.2,-0.85 0.3,-1.3 0.65,-3.15 1.3,-6.5 1.9,-9.95 0.55,-3.45 1.4,-7.05 2.45,-10.7 0.05,-0.1 0.05,-0.2 0.1,-0.25 1.05,-3.55 2.25,-5.85 3.7,-7 1.45,-1.15 2.5,-0.6 3.25,1.65 0.75,2.25 1.95,2.4 3.5,0.55 1.55,-1.9 2.4,-2.7 2.6,-2.45 0.2,0.25 0.3,0.35 0.35,0.4 -0.6,-1.15 -1.4,-2.1 -2.4,-2.9 z"
           inkscape:connector-curvature="0"
           style="fill:#c21d1a" />
        <path
           id="path103"
           d="m 4.4,-29.65 c -0.2,-0.25 -1.05,0.55 -2.6,2.45 -1.55,1.85 -2.75,1.7 -3.5,-0.55 -0.75,-2.25 -1.8,-2.8 -3.25,-1.65 -1.45,1.15 -2.65,3.45 -3.7,7 -0.05,0.05 -0.05,0.15 -0.1,0.25 -1.05,3.65 -1.9,7.25 -2.45,10.7 -0.6,3.45 -1.25,6.8 -1.9,9.95 -0.1,0.45 -0.2,0.9 -0.3,1.3 -0.15,0.4 -0.25,0.9 -0.35,1.45 -0.1,0.55 -0.3,1.35 -0.65,2.5 -0.35,1.1 -0.7,2.2 -1.15,3.25 -0.45,1.05 -0.85,1.85 -1.1,2.4 -0.3,0.55 -0.55,0.95 -0.75,1.3 -0.3,0.55 -0.65,1.1 -1,1.7 -0.05,0.15 -0.15,0.3 -0.2,0.45 l -0.025,0.025 0.025,0.025 c 0.05,-0.05 0.05,-0.05 0.1,-0.05 0.3,-0.15 0.65,-0.25 1.1,-0.35 0.45,-0.15 1,-0.5 1.75,-1.05 0.65,-0.6 1.3,-1.25 1.9,-2 0.6,-0.75 1.9,-1.9 3.9,-3.55 1.95,-1.65 3.25,-1.55 3.8,0.3 0.55,1.85 1.1,2.95 1.6,3.25 C -4,9.7 -3.7,9.9 -3.55,9.95 -3,9.85 -2.5,9.8 -2.05,9.8 -1.65,9.75 -1.4,9.7 -1.25,9.65 -0.35,9.2 0.55,8.25 1.5,6.8 2.45,5.3 3.7,4.65 5.25,4.8 6.2,4.9 6.95,5 7.6,5.15 8,5.2 8.35,5.25 8.6,5.35 9.2,5.5 9.3,5.25 8.85,4.7 l 0,-0.025 0,0.025 C 8.75,4.15 8.65,3.65 8.6,3.15 8.25,0.6 7.95,-1.95 7.65,-4.5 7.3,-7.4 7.1,-10.3 6.95,-13.15 c 0.05,-0.8 0.05,-1.6 0,-2.4 -0.1,-2.3 -0.3,-4.6 -0.6,-6.85 C 6.2,-23.6 6,-24.8 5.8,-26 5.65,-27.05 5.35,-28 4.95,-28.85 4.9,-28.95 4.85,-29.05 4.8,-29.15 4.75,-29.2 4.75,-29.2 4.75,-29.25 4.7,-29.3 4.6,-29.4 4.4,-29.65 z M 1.6,-4.7 c 0.05,0.05 0.1,0.1 0.15,0.15 0,0.05 0,0.1 0.05,0.15 l 0,0.05 C 1.75,-4.25 1.7,-4.25 1.65,-4.4 1.6,-4.5 1.6,-4.6 1.6,-4.7 z"
           inkscape:connector-curvature="0"
           style="fill:#851611" />
        <path
           id="path104"
           d="m 1.6,-4.7 c 0,0.1 0,0.2 0.05,0.3 0.05,0.15 0.1,0.15 0.15,0.05 l 0,-0.05 C 1.75,-4.45 1.75,-4.5 1.75,-4.55 1.7,-4.6 1.65,-4.65 1.6,-4.7 z M 5.25,4.8 C 3.7,4.65 2.45,5.3 1.5,6.8 0.55,8.25 -0.35,9.2 -1.25,9.65 -0.9,9.55 -0.55,9.4 -0.2,9.2 1,8.5 2.15,7.6 3.2,6.5 4.05,5.55 5.55,5.1 7.6,5.15 6.95,5 6.2,4.9 5.25,4.8 z M -6.05,6.2 C -6.6,4.35 -7.9,4.25 -9.85,5.9 c -2,1.65 -3.3,2.8 -3.9,3.55 -0.6,0.75 -1.25,1.4 -1.9,2 -0.75,0.55 -1.3,0.9 -1.75,1.05 -0.45,0.1 -0.8,0.2 -1.1,0.35 1.4,-0.3 2.45,-0.7 3.2,-1.25 1,-0.75 2.1,-1.25 3.35,-1.6 1.85,-0.5 3.65,-0.65 5.5,-0.5 0.6,0.15 1.2,0.25 1.85,0.35 0.35,0.05 0.7,0.1 1.05,0.1 C -3.7,9.9 -4,9.7 -4.45,9.45 -4.95,9.15 -5.5,8.05 -6.05,6.2 z m -12.65,6.7 c 0.05,-0.05 0.05,-0.05 0.1,-0.05 0.05,-0.15 0.15,-0.3 0.2,-0.45 -0.1,0.15 -0.2,0.35 -0.3,0.5 z"
           inkscape:connector-curvature="0"
           style="fill:#c21d1a" />
      </g>
      <animate
         attributeName="display"
         begin="0s"
         repeatCount="1"
         dur="3.917s"
         keyTimes="0;0.819;0.84;1"
         values="none;inline;none;none"
         id="animate27" />
    </g>
    <g
       id="capeD006_1_926">
      <g
         id="element16">
        <path
           id="path93"
           d="m 2.65,-32.05 q -0.9,-0.7 -1.7,-1.5 c -0.6,-0.55 -1.5,-0.7 -2.75,-0.35 -1.25,0.35 -2.3,1.1 -3.25,2.3 -0.95,1.2 -1.85,2.55 -2.65,4 -0.25,0.75 -0.6,1.95 -1,3.7 0.05,-0.2 0.05,-0.4 0.1,-0.6 l -0.15,0.75 c -0.15,0.55 -0.5,1.85 -0.95,3.9 -0.5,2.05 -0.85,3.95 -1.1,5.8 -0.25,1.8 -0.4,2.75 -0.4,2.85 -0.05,0.4 -0.1,0.8 -0.15,1.25 l -0.025,0 -0.5,3.5 0.025,0 c -0.05,0.25 -0.05,0.45 -0.1,0.65 0.05,-0.35 0.15,-0.75 0.25,-1.1 0.45,-1.85 0.8,-3.7 1.15,-5.55 0.55,-2.75 1.4,-6.1 2.55,-10.15 1.15,-4.05 2.3,-6.5 3.45,-7.3 1.15,-0.85 2.15,-0.15 3,2.1 0.85,2.2 2,2.2 3.35,0.05 1.15,-1.85 2.1,-2.35 2.85,-1.55 -1.1,-1.55 -1.85,-2.5 -2.3,-2.85 0.15,0.05 0.25,0.15 0.35,0.2 0,-0.05 0,-0.05 -0.05,-0.1 z m -11.3,9.35 c 0,0.05 -0.1,0.45 -0.25,1.2 0.05,-0.4 0.15,-0.8 0.2,-1.2 0,0 0,0 0.05,0 z m 4.1,29.45 C -5.6,3.95 -7.1,3.4 -8.95,5.15 c -1.85,1.7 -3.65,3.35 -5.3,4.95 l 0,-0.025 -0.025,0.025 0.025,0 c -0.05,0.05 -0.05,0.05 -0.05,0.05 -1.1,1.05 -2,1.65 -2.7,1.9 l -0.025,0 -0.025,0.025 0,0.025 c -0.2,0.15 -0.45,0.25 -0.7,0.35 -0.05,0.05 -0.15,0.1 -0.2,0.15 1.05,-0.2 2.15,-0.55 3.25,-1.1 0.35,-0.15 0.65,-0.35 1,-0.55 C -11.15,9.4 -8.4,8.8 -5.45,9.1 -3.9,9.25 -2.35,9.45 -0.8,9.65 0.1,9.75 0.9,9.5 1.55,8.9 1.6,8.85 1.65,8.8 1.7,8.75 2.2,8.4 2.7,8.05 3.15,7.6 3.2,7.55 3.3,7.5 3.35,7.45 c 1.1,-0.8 2.3,-1.4 3.6,-1.75 0.3,-0.1 0.65,-0.2 1,-0.25 0,0.05 0,0.1 0,0.15 C 8,5.55 8,5.55 8,5.5 8,5.45 8,5.45 8,5.45 8.05,5.4 8.15,5.4 8.2,5.4 c 0,-0.05 0,-0.15 0,-0.2 -0.05,0 -0.1,0 -0.15,0 l 0,0.05 C 7.9,5.2 7.75,5.2 7.6,5.2 c -0.15,0 -0.35,0 -0.5,0 -0.05,0 -0.15,0 -0.2,0 -0.1,-0.05 -0.2,0 -0.3,0.05 l 0,-0.025 -0.025,0 L 6.6,5.25 C 6.55,5.2 6.5,5.2 6.45,5.25 5.7,5.3 5,5.55 4.25,6 3.5,6.45 2.9,6.9 2.55,7.45 2.15,7.95 1.85,8.35 1.6,8.7 c -3,1.45 -5.05,0.8 -6.15,-1.95 z"
           inkscape:connector-curvature="0"
           style="fill:#c21d1a" />
        <path
           id="path95"
           d="m -8.65,-22.7 c -0.05,0 -0.05,0 -0.05,0 -0.05,0.4 -0.15,0.8 -0.2,1.2 0.15,-0.75 0.25,-1.15 0.25,-1.2 z M 5,-28.75 c -0.15,-0.2 -0.25,-0.4 -0.35,-0.55 -0.75,-0.8 -1.7,-0.3 -2.85,1.55 -1.35,2.15 -2.5,2.15 -3.35,-0.05 -0.85,-2.25 -1.85,-2.95 -3,-2.1 -1.15,0.8 -2.3,3.25 -3.45,7.3 -1.15,4.05 -2,7.4 -2.55,10.15 -0.35,1.85 -0.7,3.7 -1.15,5.55 -0.1,0.35 -0.2,0.75 -0.25,1.1 0.05,-0.2 0.05,-0.4 0.1,-0.65 -0.35,2 -0.75,3.95 -1.2,5.9 l -0.025,0.075 0.025,0.025 c -0.25,0.65 -0.8,2.65 -1.75,5.9 -0.85,3 -2.15,5.35 -3.8,7 -0.05,0.05 -0.15,0.1 -0.2,0.15 l 0,0.025 0,0.025 c -0.05,0.05 -0.15,0.1 -0.2,0.15 0.05,0.2 0.2,0.2 0.35,0.05 0.1,-0.05 0.2,-0.15 0.25,-0.2 0.15,-0.05 0.3,-0.05 0.45,-0.05 0.05,-0.05 0.15,-0.1 0.2,-0.15 0.25,-0.1 0.5,-0.2 0.7,-0.35 l 0,-0.025 0.025,-0.025 0.025,0 c 0.7,-0.25 1.6,-0.85 2.7,-1.9 0,0 0,0 0.05,-0.05 l 0,-0.025 -0.025,0.025 0.025,0 c 1.65,-1.6 3.45,-3.25 5.3,-4.95 1.85,-1.75 3.35,-1.2 4.4,1.6 1.1,2.75 3.15,3.4 6.15,1.95 C 1.85,8.35 2.15,7.95 2.55,7.45 2.9,6.9 3.5,6.45 4.25,6 5,5.55 5.7,5.3 6.45,5.25 6.5,5.2 6.55,5.2 6.6,5.25 l -0.025,-0.025 0.025,0 0,0.025 C 6.7,5.2 6.8,5.15 6.9,5.2 c 0.05,0 0.15,0 0.2,0 0.15,0 0.35,0 0.5,0 0.15,0 0.3,0 0.45,0.05 l 0,-0.05 c 0.05,0 0.1,0 0.15,0 C 8.25,4.3 8.25,3.65 8.3,3.2 8.35,2.5 8.3,1.8 8.25,1.1 8.3,-1.35 8.2,-3.85 7.95,-6.35 7.85,-7.2 7.8,-8.1 7.8,-9 7.9,-13.55 7.5,-18 6.6,-22.25 6.5,-24.3 5.95,-26.45 5,-28.75 z"
           inkscape:connector-curvature="0"
           style="fill:#851611" />
      </g>
      <animate
         attributeName="display"
         begin="0s"
         repeatCount="1"
         dur="3.917s"
         keyTimes="0;0.798;0.819;1"
         values="none;inline;none;none"
         id="animate33" />
    </g>
    <g
       id="capeD006_1_918">
      <g
         id="element15">
        <path
           id="path88"
           d="m 6.5,-24.55 q -0.322,-1.72 -0.95,-3.2 c -0.2,-0.45 -0.45,-0.8 -0.7,-1.15 -1.2,-1.5 -2.2,-1.1 -2.95,1.2 -0.8,2.3 -2,2.1 -3.55,-0.6 -1.6,-2.75 -3.1,-2.45 -4.55,0.9 -1.45,3.3 -2.55,7.95 -3.3,14 -0.3,2.25 -0.65,4.4 -1,6.45 -0.15,1.05 -0.35,2.15 -0.5,3.25 -0.45,3.2 -1.35,6.15 -2.65,8.9 -1.25,2.65 -2.95,5.15 -5,7.4 0.6,0.05 1.35,-0.05 2.3,-0.3 0,-0.05 0,-0.05 0.05,-0.05 4.8,-5.15 7.95,-7.95 9.5,-8.4 1.55,-0.45 2.7,0.3 3.35,2.35 0.5,1.45 1.3,2.4 2.45,2.8 0.4,0.15 0.85,0.2 1.35,0.25 C 2.2,9.25 3.65,8.75 4.7,7.7 4.75,7.65 4.75,7.65 4.75,7.65 5.3,7.2 6.05,6.4 7,5.2 8.25,-0.85 8.65,-7.05 8.1,-13.45 7.75,-17.2 7.2,-20.9 6.5,-24.55 z"
           inkscape:connector-curvature="0"
           style="fill:#851611" />
        <path
           id="path89"
           d="m 1.9,-27.7 c 0.75,-2.3 1.75,-2.7 2.95,-1.2 0.25,0.35 0.5,0.7 0.7,1.15 -1.15,-2.7 -3.05,-4.8 -5.7,-6.3 -0.15,0.05 -0.35,0.05 -0.55,0.1 -0.05,0 -0.05,0 -0.05,0.05 -0.1,0 -0.2,0 -0.35,0 -0.35,0.05 -0.65,0.1 -1,0.1 -3.25,1.85 -5.15,4.75 -5.7,8.7 -0.85,6.05 -1.75,12.1 -2.7,18.15 0.35,-2.05 0.7,-4.2 1,-6.45 0.75,-6.05 1.85,-10.7 3.3,-14 1.45,-3.35 2.95,-3.65 4.55,-0.9 1.55,2.7 2.75,2.9 3.55,0.6 z M -7.6,7.85 C -6.35,7.6 -5.1,7.7 -3.95,8.2 -2.95,8.65 -1.95,8.9 -1,9 -2.15,8.6 -2.95,7.65 -3.45,6.2 -4.1,4.15 -5.25,3.4 -6.8,3.85 c -1.55,0.45 -4.7,3.25 -9.5,8.4 0.45,-0.25 0.9,-0.55 1.35,-0.9 2.1,-1.75 4.55,-2.95 7.35,-3.5 z"
           inkscape:connector-curvature="0"
           style="fill:#c21d1a" />
        <path
           id="path92"
           d="m -19.3,13.3 c 0.05,-0.05 0.05,-0.05 0.1,-0.1 -0.05,0.05 -0.1,0.05 -0.15,0.1 -0.05,0.05 -0.05,0.05 -0.1,0.1 0.05,-0.05 0.1,-0.05 0.15,-0.1"
           inkscape:connector-curvature="0"
           style="fill:#851611" />
      </g>
      <animate
         attributeName="display"
         begin="0s"
         repeatCount="1"
         dur="3.917s"
         keyTimes="0;0.713;0.798;1"
         values="none;inline;none;none"
         id="animate40" />
    </g>
    <g
       id="capeD006_1_916">
      <g
         id="element14">
        <path
           id="path84"
           d="m -8.125,-25.7 q 1.304,-2.411 1.9,-3.1 l 0.025,0 c 0.35,-0.45 0.95,-0.85 1.7,-1.2 0.75,-0.35 1.5,0.2 2.2,1.65 0.7,1.4 1.8,2.2 3.3,2.35 0.25,-0.2 0.45,-0.5 0.65,-0.95 0.2,-0.45 0.5,-1.1 0.95,-1.9 0.4,-0.8 1.05,-1.1 1.95,-0.95 l -0.025,0 -0.025,-0.025 0,0.025 C 4.45,-29.9 4.45,-30 4.4,-30.05 l 0.025,0 0.275,0.3 C 4.45,-30.1 4.35,-30.3 4.3,-30.35 3.85,-31.5 2.9,-32.55 1.45,-33.5 l -0.05,0 c -0.25,-0.25 -0.6,-0.45 -1,-0.55 -0.55,-0.15 -1.1,-0.2 -1.7,-0.15 -4.5,2.25 -7.3,5.8 -8.35,10.65 -1.1,4.8 -1.8,8.7 -2.1,11.75 -0.3,3 -0.55,5.65 -0.7,7.95 -0.15,2.25 -0.7,5.2 -1.55,8.75 -0.8,3.15 -1.8,6 -2.95,8.45 -0.25,0.25 -0.5,0.55 -0.75,0.8 0.05,0.05 0.15,0.1 0.3,0.1 0.05,-0.05 0.15,-0.1 0.3,-0.25 1.2,-1.35 2.55,-2.55 4.05,-3.5 1.15,-0.75 2.4,-1.35 3.75,-1.8 2,-0.55 4,-0.5 6,0.25 0.7,0.25 1.35,0.4 1.95,0.45 C -1.7,9.35 -2.05,9.15 -2.45,8.9 -2.9,8.6 -3.3,7.9 -3.65,6.85 -4.2,5.25 -5.2,4.35 -6.7,4.1 c -0.85,0.15 -1.65,0.45 -2.35,1 -1.15,0.85 -2.2,1.85 -3.15,2.9 -0.6,0.65 -1.2,1.35 -1.75,2 L -13.975,9.975 -14,10 c -0.45,0.4 -0.9,0.85 -1.35,1.3 -0.35,0.4 -0.7,0.85 -1,1.4 -0.15,0.1 -0.25,0.2 -0.35,0.35 1.3,-3.1 2.35,-6.15 3.1,-9.1 0.75,-3 1.25,-5.7 1.45,-8.05 0.2,-2.4 0.6,-5.7 1.2,-9.85 0.25,-2.15 0.6,-4.25 1,-6.3 0.35,-2.05 1,-3.85 1.85,-5.45 M 2.45,7.3 C 2,7.8 1.35,8.3 0.55,8.8 0.05,9.1 -0.35,9.3 -0.7,9.4 L -0.725,9.375 -0.05,9.35 C 0.8,9.25 2.05,8.8 3.75,8 5.45,7.2 6.35,6.75 6.5,6.65 6,6.5 5.7,6.4 5.55,6.35 5.05,6.3 4.55,6.25 4.05,6.2 3.4,6.4 2.9,6.75 2.45,7.3 z"
           inkscape:connector-curvature="0"
           style="fill:#c21d1a" />
        <path
           id="path85"
           d="m -6.225,-28.8 q -0.596,0.689 -1.9,3.1 l 0.025,0 c -0.85,1.6 -1.5,3.4 -1.85,5.45 -0.4,2.05 -0.75,4.15 -1,6.3 -0.6,4.15 -1,7.45 -1.2,9.85 -0.2,2.35 -0.7,5.05 -1.45,8.05 -0.75,2.95 -1.8,6 -3.1,9.1 0.1,-0.15 0.2,-0.25 0.35,-0.35 0.3,-0.55 0.65,-1 1,-1.4 0.45,-0.45 0.9,-0.9 1.35,-1.3 L -13.975,9.975 -13.95,10 c 0.55,-0.65 1.15,-1.35 1.75,-2 0.95,-1.05 2,-2.05 3.15,-2.9 0.7,-0.55 1.5,-0.85 2.35,-1 1.5,0.25 2.5,1.15 3.05,2.75 0.35,1.05 0.75,1.75 1.2,2.05 0.4,0.25 0.75,0.45 1.1,0.5 0.05,0 0.1,0 0.15,0.05 0.15,0 0.3,0 0.5,-0.05 C -0.35,9.3 0.05,9.1 0.55,8.8 1.35,8.3 2,7.8 2.45,7.3 2.9,6.75 3.4,6.4 4.05,6.2 c 0.5,0.05 1,0.1 1.5,0.15 C 5.7,6.4 6,6.5 6.5,6.65 L 6.475,6.625 6.5,6.6 C 6.55,6.65 6.65,6.65 6.7,6.65 6.65,6.6 6.6,6.6 6.55,6.6 6.6,6.55 6.6,6.55 6.65,6.5 6.7,6.45 6.7,6.45 6.75,6.5 7.2,4.35 7.5,2.15 7.65,-0.1 7.75,-1.85 7.8,-3.75 7.85,-5.85 7.85,-8 7.8,-9.95 7.65,-11.75 7.5,-13.55 7.35,-15.45 7.3,-17.45 7.25,-19.5 6.85,-21.9 6.1,-24.7 6,-25.35 5.85,-26 5.6,-26.7 5.35,-27.45 5.15,-28.05 5,-28.5 4.85,-29 4.7,-29.45 4.55,-29.8 3.65,-29.95 3,-29.65 2.6,-28.85 c -0.45,0.8 -0.75,1.45 -0.95,1.9 -0.2,0.45 -0.4,0.75 -0.65,0.95 -1.5,-0.15 -2.6,-0.95 -3.3,-2.35 -0.7,-1.45 -1.45,-2 -2.2,-1.65 -0.75,0.35 -1.35,0.75 -1.7,1.2"
           inkscape:connector-curvature="0"
           style="fill:#851611" />
      </g>
      <animate
         attributeName="display"
         begin="0s"
         repeatCount="1"
         dur="3.917s"
         keyTimes="0;0.691;0.713;1"
         values="none;inline;none;none"
         id="animate46" />
    </g>
    <g
       id="capeD006_1_914">
      <g
         id="element13">
        <path
           id="path78"
           d="m -2.6,-33.375 q -0.377,0.192 -0.725,0.4 l 0.025,0.025 c -0.75,0.4 -1.4,0.9 -2.05,1.45 -1.05,0.95 -1.9,2.1 -2.65,3.4 -2.45,4.4 -4.05,9.15 -4.75,14.2 -0.7,4.95 -1.15,10 -1.4,15.1 -0.1,2.45 -0.45,4.85 -1.05,7.15 -0.55,2.05 -0.85,4 -0.9,5.85 0.05,-0.15 0.05,-0.25 0.1,-0.35 0.15,0 0.25,-0.05 0.3,-0.15 1.15,-3.55 1.85,-7.25 2.15,-11.2 0.25,-3.95 0.6,-8.25 1.05,-12.85 0.4,-4.65 1.3,-8.65 2.75,-12.1 1.4,-3.45 2.7,-5.8 3.95,-7.15 1.2,-1.35 2.2,-1.2 2.95,0.45 0.75,1.6 1.45,2.65 2.2,3.1 0.75,0.45 1.65,-0.2 2.75,-1.85 0.95,-1.5 1.65,-2.15 2.05,-1.9 C 4.1,-29.85 4.1,-29.85 4.1,-29.9 4.05,-29.95 4.05,-29.95 4.05,-30 4.1,-30 4.1,-30 4.1,-30.05 L 4,-30.15 c -0.35,-0.95 -0.85,-1.8 -1.55,-2.45 -0.8,-0.75 -1.75,-1.2 -2.85,-1.3 -0.45,-0.05 -0.8,-0.05 -1.15,0.1 -0.35,0.05 -0.5,0.1 -0.45,0.05 -0.05,0.05 -0.05,0.1 0.1,0.05 -0.25,0.1 -0.45,0.2 -0.7,0.35 M 7,6.55 C 5.05,5.4 3.75,5.15 3.05,5.85 2.3,6.55 1.2,7.65 -0.25,9.15 -0.3,9.2 -0.4,9.3 -0.45,9.35 0.4,9.15 1.25,8.8 2.1,8.25 3.45,7.4 5.05,6.8 7,6.55 z m -10.1,2.8 c -0.45,-0.4 -0.85,-1 -1.2,-1.8 -1.25,-2.5 -2.7,-3.35 -4.35,-2.6 -1.55,0.75 -3.7,3.4 -6.55,8.05 1.7,-2.25 4.05,-3.7 7.1,-4.3 1.25,-0.25 2.4,-0.15 3.55,0.25 0.5,0.15 1,0.3 1.45,0.4 z"
           inkscape:connector-curvature="0"
           style="fill:#c21d1a" />
        <path
           id="path79"
           d="m -0.65,-26.05 c -0.75,-0.45 -1.45,-1.5 -2.2,-3.1 -0.75,-1.65 -1.75,-1.8 -2.95,-0.45 -1.25,1.35 -2.55,3.7 -3.95,7.15 -1.45,3.45 -2.35,7.45 -2.75,12.1 -0.45,4.6 -0.8,8.9 -1.05,12.85 -0.3,3.95 -1,7.65 -2.15,11.2 -0.05,0.05 -0.05,0.15 -0.05,0.2 0.2,-0.35 0.4,-0.65 0.55,-0.9 2.85,-4.65 5,-7.3 6.55,-8.05 1.65,-0.75 3.1,0.1 4.35,2.6 0.35,0.8 0.75,1.4 1.2,1.8 0.85,0.35 1.75,0.35 2.65,0 C -0.4,9.3 -0.3,9.2 -0.25,9.15 1.2,7.65 2.3,6.55 3.05,5.85 3.75,5.15 5.05,5.4 7,6.55 7.05,6.6 7.15,6.65 7.25,6.7 7.2,6.6 7.1,6.5 7.05,6.35 7.3,3.7 7.35,0.55 7.15,-3.1 6.95,-6.75 6.75,-10.95 6.55,-15.75 6.35,-20.6 6,-24.05 5.45,-26.1 4.9,-28.15 4.5,-29.35 4.3,-29.65 4.25,-29.7 4.2,-29.75 4.15,-29.8 c -0.4,-0.25 -1.1,0.4 -2.05,1.9 -1.1,1.65 -2,2.3 -2.75,1.85 z"
           inkscape:connector-curvature="0"
           style="fill:#851611" />
      </g>
      <animate
         attributeName="display"
         begin="0s"
         repeatCount="1"
         dur="3.917s"
         keyTimes="0;0.67;0.691;1"
         values="none;inline;none;none"
         id="animate52" />
    </g>
    <g
       id="capeD006_1_912">
      <g
         id="element12">
        <path
           id="path73"
           d="M -1.225,-34.125 Q -1.432,-34.15 -1.65,-34.15 c -0.1,0.05 -0.2,0.1 -0.25,0.15 -0.25,0.05 -0.45,0.15 -0.65,0.3 -0.25,0.15 -0.45,0.3 -0.65,0.5 -0.3,0.15 -0.95,0.6 -2,1.3 -1.05,0.7 -1.9,1.6 -2.6,2.65 -0.75,1.05 -1.3,2.05 -1.7,2.9 -0.45,0.8 -0.85,1.6 -1.25,2.4 -0.4,0.8 -0.75,1.8 -1.1,2.95 -0.65,2 -1.2,4.15 -1.75,6.5 -0.55,2.3 -0.95,4.45 -1.2,6.4 -0.3,1.95 -0.55,3.9 -0.75,5.75 -0.25,1.85 -0.35,3.95 -0.4,6.2 -0.05,2.25 0,4.55 0.2,7 0.2,2.4 0.8,3.65 1.85,3.75 -0.2,-0.65 -0.35,-1.35 -0.5,-2 0.25,-0.25 0.45,-0.55 0.7,-0.85 0.85,-1.05 2,-1.8 3.35,-2.15 C -9.6,9.4 -9,9.2 -8.6,8.95 c 0.85,-0.15 2.3,-0.05 4.35,0.4 0.3,0.05 0.6,0.05 0.9,0.1 0.05,0.05 0.15,0.1 0.25,0.1 0.15,0 0.25,0 0.4,0.05 0.05,-0.05 0.1,-0.05 0.15,0 -0.1,-0.15 -0.25,-0.25 -0.4,-0.25 -0.15,0 -0.3,-0.05 -0.35,-0.1 l -0.05,0 0,0.075 0,0.025 C -4.15,9 -5.05,8.15 -6.05,6.8 -7.25,5.15 -8.45,4.75 -9.7,5.55 c -1.45,1.55 -2.6,3 -3.4,4.3 -0.8,1.3 -1.3,2 -1.45,2.15 -0.25,-1.35 -0.45,-2.75 -0.5,-4.15 -0.05,-1.05 0,-3.1 0.1,-6.15 0.05,-3.1 0.3,-6.15 0.75,-9.1 0.45,-2.95 0.95,-5.55 1.55,-7.75 0.6,-2.25 1.2,-4.35 1.8,-6.2 0.6,-1.85 1.15,-3.25 1.65,-4.15 0.5,-0.95 1.05,-1.8 1.65,-2.55 0.6,-0.8 1.4,-1.55 2.4,-2.3 0.95,-0.75 1.7,-0.3 2.25,1.3 0.55,1.55 1.2,2.5 2,2.85 0.75,0.35 1.75,-0.35 2.95,-2.1 1.15,-1.75 2,-2.1 2.45,-1.05 0,0 0,0 0.05,0 C 4.5,-29.4 4.5,-29.4 4.5,-29.45 4.45,-29.55 4.45,-29.6 4.4,-29.6 c 0,-0.05 0,-0.05 -0.05,-0.05 l 0,-0.05 c -0.3,-0.55 -0.5,-0.9 -0.65,-1.1 -0.75,-1 -1.05,-1.5 -1,-1.5 -0.05,-0.05 -0.05,-0.05 -0.1,-0.1 -0.5,-0.6 -1.1,-1.05 -1.85,-1.4 -0.65,-0.3 -1.3,-0.4 -1.95,-0.3 m 8.4,40 C 6.75,5.8 6.3,5.55 5.85,5.2 5.4,4.8 4.85,4.55 4.25,4.5 3.6,4.4 2.9,4.9 2.1,6.05 1.25,7.2 0.7,7.95 0.35,8.3 0,8.65 -0.3,8.95 -0.6,9.1 -0.85,9.2 -1,9.25 -1.1,9.3 -0.85,9.25 -0.65,9.15 -0.4,9.05 0.25,8.8 0.9,8.4 1.55,7.9 3,6.8 4.9,6.15 7.2,5.9 z"
           inkscape:connector-curvature="0"
           style="fill:#c21d1a" />
        <path
           id="path74"
           d="m -5.15,-30.35 c -1,0.75 -1.8,1.5 -2.4,2.3 -0.6,0.75 -1.15,1.6 -1.65,2.55 -0.5,0.9 -1.05,2.3 -1.65,4.15 -0.6,1.85 -1.2,3.95 -1.8,6.2 -0.6,2.2 -1.1,4.8 -1.55,7.75 -0.45,2.95 -0.7,6 -0.75,9.1 -0.1,3.05 -0.15,5.1 -0.1,6.15 0.05,1.4 0.25,2.8 0.5,4.15 0.15,-0.15 0.65,-0.85 1.45,-2.15 0.8,-1.3 1.95,-2.75 3.4,-4.3 1.25,-0.8 2.45,-0.4 3.65,1.25 1,1.35 1.9,2.2 2.7,2.55 l 0,-0.025 0,-0.075 0.05,0 c 0.05,0.05 0.2,0.1 0.35,0.1 0.15,0 0.3,0.1 0.4,0.25 L -2.575,9.575 -2.55,9.6 l 0.375,-0.05 0.025,0 c 0.3,0.1 0.65,0.05 1,-0.2 l 0,-0.025 L -1.1,9.3 C -1,9.25 -0.85,9.2 -0.6,9.1 -0.3,8.95 0,8.65 0.35,8.3 0.7,7.95 1.25,7.2 2.1,6.05 2.9,4.9 3.6,4.4 4.25,4.5 4.85,4.55 5.4,4.8 5.85,5.2 6.3,5.55 6.75,5.8 7.2,5.9 7.3,5.9 7.4,5.9 7.55,5.95 7.5,5.9 7.5,5.9 7.5,5.85 c 0.05,0 0.15,0 0.2,0 C 7.35,4.4 7.1,2.85 6.85,1.1 6.4,-1.65 6.15,-4.35 6.1,-7 6.05,-9.65 6,-11.55 6.05,-12.7 c 0,-1.15 -0.05,-2.4 -0.2,-3.65 0.05,-0.8 0.1,-1.9 0.1,-3.35 -0.05,-1.85 -0.25,-3.9 -0.6,-6.15 -0.25,-1.45 -0.5,-2.6 -0.85,-3.5 l -0.025,-0.025 0,0.025 0.025,0 c -0.45,-1.05 -1.3,-0.7 -2.45,1.05 -1.2,1.75 -2.2,2.45 -2.95,2.1 -0.8,-0.35 -1.45,-1.3 -2,-2.85 -0.55,-1.6 -1.3,-2.05 -2.25,-1.3 z"
           inkscape:connector-curvature="0"
           style="fill:#851611" />
        <path
           id="path77"
           d="M 7.725,6.025 7.75,6.2 C 7.8,6.25 7.8,6.25 7.8,6.25 7.75,6.2 7.75,6.1 7.75,6.05"
           inkscape:connector-curvature="0"
           style="fill:#c21d1a" />
      </g>
      <animate
         attributeName="display"
         begin="0s"
         repeatCount="1"
         dur="3.917s"
         keyTimes="0;0.649;0.67;1"
         values="none;inline;none;none"
         id="animate59" />
    </g>
    <g
       id="capeD006_1_896">
      <g
         id="element11">
        <path
           id="path65"
           d="m -0.1,-34 q -0.287,-0.107 -0.6,-0.1 c -0.05,0 -0.15,0 -0.25,0 -0.05,0.05 -0.1,0.05 -0.15,0.1 -0.05,0.05 -0.05,0.05 -0.1,0.1 -0.2,-0.05 -0.4,-0.05 -0.55,-0.1 -0.15,0.05 -0.25,0.15 -0.35,0.2 -2.05,1.05 -3.85,2.4 -5.35,4.1 -1.1,1.25 -2.05,2.6 -2.9,4.15 -0.35,0.7 -0.7,1.4 -1.05,2.1 -0.2,0.35 -0.4,0.75 -0.55,1.2 -0.95,2 -1.7,4.05 -2.3,6.2 -1.05,3.45 -1.75,7.05 -2.2,10.7 -0.75,6.2 -0.4,12.35 1.1,18.4 0.05,-0.05 0.05,-0.1 0.05,-0.15 0.1,0.15 0.3,0.4 0.55,0.7 0.75,0.75 1.45,1.05 2.15,0.85 l -0.05,-0.05 c -0.05,-0.05 -0.05,-0.05 -0.1,-0.1 0.05,-0.15 0.05,-0.3 0,-0.45 -0.2,-0.95 -0.4,-1.9 -0.55,-2.75 l 0.05,0 c 0.05,0 0.05,0 0.1,0.05 0.25,-0.15 0.5,-0.25 0.75,-0.4 0.15,-0.15 0.3,-0.25 0.45,-0.35 2.2,-1.05 4.15,-1.5 5.9,-1.35 -2.55,-3.35 -4.25,-4 -5.1,-1.95 -0.9,2.1 -1.5,3.25 -1.75,3.45 -0.25,0.15 -0.4,0.25 -0.45,0.3 -0.05,-0.05 -0.05,-0.05 -0.05,-0.05 -0.05,-0.05 -0.05,-0.1 -0.05,-0.15 0,0 0,0.05 0,0.1 L -13.475,10.725 -13.5,10.7 c 0.05,-0.1 0.05,-0.2 0.05,-0.3 -0.75,-3.95 -1.25,-7.95 -1.45,-12 -0.2,-4.1 -0.05,-7.45 0.5,-10 0.5,-2.6 1,-4.7 1.55,-6.35 0.55,-1.65 1.15,-3.25 1.85,-4.85 0.65,-1.65 1.75,-3.45 3.2,-5.45 l 0.05,0 c 0.65,-0.75 1.3,-1.35 1.9,-1.85 0.55,-0.55 1.15,-0.65 1.75,-0.3 0.55,0.3 0.95,1 1.15,2.1 0.15,1.05 0.75,1.75 1.7,2.1 0.95,0.3 1.85,-0.2 2.8,-1.5 0.95,-1.3 1.8,-1.95 2.65,-1.9 -0.05,-0.1 -0.1,-0.2 -0.15,-0.3 -0.45,-0.8 -0.95,-1.55 -1.5,-2.2 -0.6,-0.65 -1.3,-1.3 -2.05,-1.85 -0.05,0.05 -0.05,0.1 -0.1,0.15 -0.05,-0.05 -0.1,-0.05 -0.15,-0.1 -0.1,-0.05 -0.2,-0.05 -0.35,-0.1 z m -13.35,16 c 0.35,-0.95 0.7,-1.85 0.95,-2.8 -0.5,1.35 -0.9,2.6 -1.25,3.7 0.1,-0.3 0.2,-0.6 0.3,-0.9 z M 2.25,4.3 C 1.9,4.65 1.45,5.7 0.8,7.5 1.15,7.25 1.55,7.05 1.95,6.8 3.2,6 5.15,5.6 7.7,5.6 7.25,5.45 6.8,5.4 6.35,5.45 5.9,5.5 5.1,4.95 4,3.9 3.25,3.7 2.7,3.85 2.25,4.3 z"
           inkscape:connector-curvature="0"
           style="fill:#c21d1a" />
        <path
           id="path66"
           d="m -13.45,-18 c 0.35,-0.95 0.7,-1.85 0.95,-2.8 -0.5,1.35 -0.9,2.6 -1.25,3.7 0.1,-0.3 0.2,-0.6 0.3,-0.9 z m 5.7,-10.25 c 0.65,-0.75 1.3,-1.35 1.9,-1.85 0.55,-0.55 1.15,-0.65 1.75,-0.3 0.55,0.3 0.95,1 1.15,2.1 0.15,1.05 0.75,1.75 1.7,2.1 0.95,0.3 1.85,-0.2 2.8,-1.5 0.95,-1.3 1.8,-1.95 2.65,-1.9 0.15,0.35 0.25,0.7 0.4,1.05 0.65,1.9 0.85,4.05 0.55,6.5 -0.95,6.7 -0.85,13.05 0.25,19 0.15,0.85 0.35,1.7 0.6,2.55 0.35,1.45 0.85,2.8 1.4,4.15 0.2,0.45 0.4,1.1 0.55,1.95 -0.1,0 -0.2,0 -0.25,0 C 7.25,5.45 6.8,5.4 6.35,5.45 5.9,5.5 5.1,4.95 4,3.9 3.25,3.7 2.7,3.85 2.25,4.3 1.9,4.65 1.45,5.7 0.8,7.5 -0.15,8.1 -0.95,8.55 -1.55,8.9 -1.7,9 -1.9,9.1 -2.1,9.15 -2.95,9.4 -4.05,9.4 -5.4,9.15 -5.65,9.1 -5.85,9.05 -6.05,9.05 -8.6,5.7 -10.3,5.05 -11.15,7.1 c -0.9,2.1 -1.5,3.25 -1.75,3.45 -0.25,0.15 -0.4,0.25 -0.45,0.3 -0.05,-0.05 -0.05,-0.05 -0.05,-0.05 -0.05,-0.05 -0.05,-0.1 -0.05,-0.15 0,0 0,0.05 0,0.1 L -13.475,10.725 -13.5,10.7 c 0.05,-0.1 0.05,-0.2 0.05,-0.3 -0.75,-3.95 -1.25,-7.95 -1.45,-12 -0.2,-4.1 -0.05,-7.45 0.5,-10 0.5,-2.6 1,-4.7 1.55,-6.35 0.55,-1.65 1.15,-3.25 1.85,-4.85 0.65,-1.65 1.75,-3.45 3.2,-5.45 l 0.05,0 z"
           inkscape:connector-curvature="0"
           style="fill:#851611" />
      </g>
      <animate
         attributeName="display"
         begin="0s"
         repeatCount="1"
         dur="3.917s"
         keyTimes="0;0.479;0.649;1"
         values="none;inline;none;none"
         id="animate65" />
    </g>
    <g
       id="capeD006_1_894">
      <g
         id="element10">
        <path
           id="path60"
           d="M -1.225,-34.125 Q -1.432,-34.15 -1.65,-34.15 c -0.1,0.05 -0.2,0.1 -0.25,0.15 -0.25,0.05 -0.45,0.15 -0.65,0.3 -0.25,0.15 -0.45,0.3 -0.65,0.5 -0.3,0.15 -0.95,0.6 -2,1.3 -1.05,0.7 -1.9,1.6 -2.6,2.65 -0.75,1.05 -1.3,2.05 -1.7,2.9 -0.45,0.8 -0.85,1.6 -1.25,2.4 -0.4,0.8 -0.75,1.8 -1.1,2.95 -0.65,2 -1.2,4.15 -1.75,6.5 -0.55,2.3 -0.95,4.45 -1.2,6.4 -0.3,1.95 -0.55,3.9 -0.75,5.75 -0.25,1.85 -0.35,3.95 -0.4,6.2 -0.05,2.25 0,4.55 0.2,7 0.2,2.4 0.8,3.65 1.85,3.75 -0.2,-0.65 -0.35,-1.35 -0.5,-2 0.25,-0.25 0.45,-0.55 0.7,-0.85 0.85,-1.05 2,-1.8 3.35,-2.15 C -9.6,9.4 -9,9.2 -8.6,8.95 c 0.85,-0.15 2.3,-0.05 4.35,0.4 0.3,0.05 0.6,0.05 0.9,0.1 0.05,0.05 0.15,0.1 0.25,0.1 0.15,0 0.25,0 0.4,0.05 0.05,-0.05 0.1,-0.05 0.15,0 -0.1,-0.15 -0.25,-0.25 -0.4,-0.25 -0.15,0 -0.3,-0.05 -0.35,-0.1 l -0.05,0 0,0.075 0,0.025 C -4.15,9 -5.05,8.15 -6.05,6.8 -7.25,5.15 -8.45,4.75 -9.7,5.55 c -1.45,1.55 -2.6,3 -3.4,4.3 -0.8,1.3 -1.3,2 -1.45,2.15 -0.25,-1.35 -0.45,-2.75 -0.5,-4.15 -0.05,-1.05 0,-3.1 0.1,-6.15 0.05,-3.1 0.3,-6.15 0.75,-9.1 0.45,-2.95 0.95,-5.55 1.55,-7.75 0.6,-2.25 1.2,-4.35 1.8,-6.2 0.6,-1.85 1.15,-3.25 1.65,-4.15 0.5,-0.95 1.05,-1.8 1.65,-2.55 0.6,-0.8 1.4,-1.55 2.4,-2.3 0.95,-0.75 1.7,-0.3 2.25,1.3 0.55,1.55 1.2,2.5 2,2.85 0.75,0.35 1.75,-0.35 2.95,-2.1 1.15,-1.75 2,-2.1 2.45,-1.05 0,0 0,0 0.05,0 C 4.5,-29.4 4.5,-29.4 4.5,-29.45 4.45,-29.55 4.45,-29.6 4.4,-29.6 c 0,-0.05 0,-0.05 -0.05,-0.05 l 0,-0.05 c -0.3,-0.55 -0.5,-0.9 -0.65,-1.1 -0.75,-1 -1.05,-1.5 -1,-1.5 -0.05,-0.05 -0.05,-0.05 -0.1,-0.1 -0.5,-0.6 -1.1,-1.05 -1.85,-1.4 -0.65,-0.3 -1.3,-0.4 -1.95,-0.3 m 8.4,40 C 6.75,5.8 6.3,5.55 5.85,5.2 5.4,4.8 4.85,4.55 4.25,4.5 3.6,4.4 2.9,4.9 2.1,6.05 1.25,7.2 0.7,7.95 0.35,8.3 0,8.65 -0.3,8.95 -0.6,9.1 -0.85,9.2 -1,9.25 -1.1,9.3 -0.85,9.25 -0.65,9.15 -0.4,9.05 0.25,8.8 0.9,8.4 1.55,7.9 3,6.8 4.9,6.15 7.2,5.9 z"
           inkscape:connector-curvature="0"
           style="fill:#c21d1a" />
        <path
           id="path61"
           d="m -5.15,-30.35 c -1,0.75 -1.8,1.5 -2.4,2.3 -0.6,0.75 -1.15,1.6 -1.65,2.55 -0.5,0.9 -1.05,2.3 -1.65,4.15 -0.6,1.85 -1.2,3.95 -1.8,6.2 -0.6,2.2 -1.1,4.8 -1.55,7.75 -0.45,2.95 -0.7,6 -0.75,9.1 -0.1,3.05 -0.15,5.1 -0.1,6.15 0.05,1.4 0.25,2.8 0.5,4.15 0.15,-0.15 0.65,-0.85 1.45,-2.15 0.8,-1.3 1.95,-2.75 3.4,-4.3 1.25,-0.8 2.45,-0.4 3.65,1.25 1,1.35 1.9,2.2 2.7,2.55 l 0,-0.025 0,-0.075 0.05,0 c 0.05,0.05 0.2,0.1 0.35,0.1 0.15,0 0.3,0.1 0.4,0.25 L -2.575,9.575 -2.55,9.6 l 0.375,-0.05 0.025,0 c 0.3,0.1 0.65,0.05 1,-0.2 l 0,-0.025 L -1.1,9.3 C -1,9.25 -0.85,9.2 -0.6,9.1 -0.3,8.95 0,8.65 0.35,8.3 0.7,7.95 1.25,7.2 2.1,6.05 2.9,4.9 3.6,4.4 4.25,4.5 4.85,4.55 5.4,4.8 5.85,5.2 6.3,5.55 6.75,5.8 7.2,5.9 7.3,5.9 7.4,5.9 7.55,5.95 7.5,5.9 7.5,5.9 7.5,5.85 c 0.05,0 0.15,0 0.2,0 C 7.35,4.4 7.1,2.85 6.85,1.1 6.4,-1.65 6.15,-4.35 6.1,-7 6.05,-9.65 6,-11.55 6.05,-12.7 c 0,-1.15 -0.05,-2.4 -0.2,-3.65 0.05,-0.8 0.1,-1.9 0.1,-3.35 -0.05,-1.85 -0.25,-3.9 -0.6,-6.15 -0.25,-1.45 -0.5,-2.6 -0.85,-3.5 l -0.025,-0.025 0,0.025 0.025,0 c -0.45,-1.05 -1.3,-0.7 -2.45,1.05 -1.2,1.75 -2.2,2.45 -2.95,2.1 -0.8,-0.35 -1.45,-1.3 -2,-2.85 -0.55,-1.6 -1.3,-2.05 -2.25,-1.3 z"
           inkscape:connector-curvature="0"
           style="fill:#851611" />
        <path
           id="path64"
           d="M 7.725,6.025 7.75,6.2 C 7.8,6.25 7.8,6.25 7.8,6.25 7.75,6.2 7.75,6.1 7.75,6.05"
           inkscape:connector-curvature="0"
           style="fill:#c21d1a" />
      </g>
      <animate
         attributeName="display"
         begin="0s"
         repeatCount="1"
         dur="3.917s"
         keyTimes="0;0.457;0.479;1"
         values="none;inline;none;none"
         id="animate72" />
    </g>
    <g
       id="capeD006_1_892">
      <g
         id="element9">
        <path
           id="path54"
           d="m -2.6,-33.375 q -0.377,0.192 -0.725,0.4 l 0.025,0.025 c -0.75,0.4 -1.4,0.9 -2.05,1.45 -1.05,0.95 -1.9,2.1 -2.65,3.4 -2.45,4.4 -4.05,9.15 -4.75,14.2 -0.7,4.95 -1.15,10 -1.4,15.1 -0.1,2.45 -0.45,4.85 -1.05,7.15 -0.55,2.05 -0.85,4 -0.9,5.85 0.05,-0.15 0.05,-0.25 0.1,-0.35 0.15,0 0.25,-0.05 0.3,-0.15 1.15,-3.55 1.85,-7.25 2.15,-11.2 0.25,-3.95 0.6,-8.25 1.05,-12.85 0.4,-4.65 1.3,-8.65 2.75,-12.1 1.4,-3.45 2.7,-5.8 3.95,-7.15 1.2,-1.35 2.2,-1.2 2.95,0.45 0.75,1.6 1.45,2.65 2.2,3.1 0.75,0.45 1.65,-0.2 2.75,-1.85 0.95,-1.5 1.65,-2.15 2.05,-1.9 C 4.1,-29.85 4.1,-29.85 4.1,-29.9 4.05,-29.95 4.05,-29.95 4.05,-30 4.1,-30 4.1,-30 4.1,-30.05 L 4,-30.15 c -0.35,-0.95 -0.85,-1.8 -1.55,-2.45 -0.8,-0.75 -1.75,-1.2 -2.85,-1.3 -0.45,-0.05 -0.8,-0.05 -1.15,0.1 -0.35,0.05 -0.5,0.1 -0.45,0.05 -0.05,0.05 -0.05,0.1 0.1,0.05 -0.25,0.1 -0.45,0.2 -0.7,0.35 M 7,6.55 C 5.05,5.4 3.75,5.15 3.05,5.85 2.3,6.55 1.2,7.65 -0.25,9.15 -0.3,9.2 -0.4,9.3 -0.45,9.35 0.4,9.15 1.25,8.8 2.1,8.25 3.45,7.4 5.05,6.8 7,6.55 z m -10.1,2.8 c -0.45,-0.4 -0.85,-1 -1.2,-1.8 -1.25,-2.5 -2.7,-3.35 -4.35,-2.6 -1.55,0.75 -3.7,3.4 -6.55,8.05 1.7,-2.25 4.05,-3.7 7.1,-4.3 1.25,-0.25 2.4,-0.15 3.55,0.25 0.5,0.15 1,0.3 1.45,0.4 z"
           inkscape:connector-curvature="0"
           style="fill:#c21d1a" />
        <path
           id="path55"
           d="m -0.65,-26.05 c -0.75,-0.45 -1.45,-1.5 -2.2,-3.1 -0.75,-1.65 -1.75,-1.8 -2.95,-0.45 -1.25,1.35 -2.55,3.7 -3.95,7.15 -1.45,3.45 -2.35,7.45 -2.75,12.1 -0.45,4.6 -0.8,8.9 -1.05,12.85 -0.3,3.95 -1,7.65 -2.15,11.2 -0.05,0.05 -0.05,0.15 -0.05,0.2 0.2,-0.35 0.4,-0.65 0.55,-0.9 2.85,-4.65 5,-7.3 6.55,-8.05 1.65,-0.75 3.1,0.1 4.35,2.6 0.35,0.8 0.75,1.4 1.2,1.8 0.85,0.35 1.75,0.35 2.65,0 C -0.4,9.3 -0.3,9.2 -0.25,9.15 1.2,7.65 2.3,6.55 3.05,5.85 3.75,5.15 5.05,5.4 7,6.55 7.05,6.6 7.15,6.65 7.25,6.7 7.2,6.6 7.1,6.5 7.05,6.35 7.3,3.7 7.35,0.55 7.15,-3.1 6.95,-6.75 6.75,-10.95 6.55,-15.75 6.35,-20.6 6,-24.05 5.45,-26.1 4.9,-28.15 4.5,-29.35 4.3,-29.65 4.25,-29.7 4.2,-29.75 4.15,-29.8 c -0.4,-0.25 -1.1,0.4 -2.05,1.9 -1.1,1.65 -2,2.3 -2.75,1.85 z"
           inkscape:connector-curvature="0"
           style="fill:#851611" />
      </g>
      <animate
         attributeName="display"
         begin="0s"
         repeatCount="1"
         dur="3.917s"
         keyTimes="0;0.436;0.457;1"
         values="none;inline;none;none"
         id="animate78" />
    </g>
    <g
       id="capeD006_1_890">
      <g
         id="element8">
        <path
           id="path50"
           d="m 1.45,-33.5 -0.05,0 c -0.25,-0.25 -0.6,-0.45 -1,-0.55 -0.55,-0.15 -1.1,-0.2 -1.7,-0.15 -4.5,2.25 -7.3,5.8 -8.35,10.65 -1.1,4.8 -1.8,8.7 -2.1,11.75 -0.3,3 -0.55,5.65 -0.7,7.95 -0.15,2.25 -0.7,5.2 -1.55,8.75 -0.8,3.15 -1.8,6 -2.95,8.45 -0.25,0.25 -0.5,0.55 -0.75,0.8 0.05,0.05 0.15,0.1 0.3,0.1 0.05,-0.05 0.15,-0.1 0.3,-0.25 1.2,-1.35 2.55,-2.55 4.05,-3.5 1.15,-0.75 2.4,-1.35 3.75,-1.8 2,-0.55 4,-0.5 6,0.25 0.7,0.25 1.35,0.4 1.95,0.45 C -1.7,9.35 -2.05,9.15 -2.45,8.9 -2.9,8.6 -3.3,7.9 -3.65,6.85 -4.2,5.25 -5.2,4.35 -6.7,4.1 c -0.85,0.15 -1.65,0.45 -2.35,1 -1.15,0.85 -2.2,1.85 -3.15,2.9 -0.6,0.65 -1.2,1.35 -1.75,2 L -13.975,9.975 -14,10 c -0.45,0.4 -0.9,0.85 -1.35,1.3 -0.35,0.4 -0.7,0.85 -1,1.4 -0.15,0.1 -0.25,0.2 -0.35,0.35 1.3,-3.1 2.35,-6.15 3.1,-9.1 0.75,-3 1.25,-5.7 1.45,-8.05 0.2,-2.4 0.6,-5.7 1.2,-9.85 0.25,-2.15 0.6,-4.25 1,-6.3 0.35,-2.05 1,-3.85 1.85,-5.45 0.85,-1.6 1.5,-2.65 1.9,-3.1 0.35,-0.45 0.95,-0.85 1.7,-1.2 0.75,-0.35 1.5,0.2 2.2,1.65 0.7,1.4 1.8,2.2 3.3,2.35 0.25,-0.2 0.45,-0.5 0.65,-0.95 0.2,-0.45 0.5,-1.1 0.95,-1.9 0.4,-0.8 1.05,-1.1 1.95,-0.95 l -0.025,0 -0.025,-0.025 0,0.025 C 4.45,-29.9 4.45,-30 4.4,-30.05 l 0.025,0 0.275,0.3 C 4.45,-30.1 4.35,-30.3 4.3,-30.35 3.85,-31.5 2.9,-32.55 1.45,-33.5 z m 1,40.8 C 2,7.8 1.35,8.3 0.55,8.8 0.05,9.1 -0.35,9.3 -0.7,9.4 L -0.725,9.375 -0.05,9.35 C 0.8,9.25 2.05,8.8 3.75,8 5.45,7.2 6.35,6.75 6.5,6.65 6,6.5 5.7,6.4 5.55,6.35 5.05,6.3 4.55,6.25 4.05,6.2 3.4,6.4 2.9,6.75 2.45,7.3 z"
           inkscape:connector-curvature="0"
           style="fill:#c21d1a" />
        <path
           id="path51"
           d="m 4.55,-29.8 c -0.9,-0.15 -1.55,0.15 -1.95,0.95 -0.45,0.8 -0.75,1.45 -0.95,1.9 -0.2,0.45 -0.4,0.75 -0.65,0.95 -1.5,-0.15 -2.6,-0.95 -3.3,-2.35 -0.7,-1.45 -1.45,-2 -2.2,-1.65 -0.75,0.35 -1.35,0.75 -1.7,1.2 -0.4,0.45 -1.05,1.5 -1.9,3.1 -0.85,1.6 -1.5,3.4 -1.85,5.45 -0.4,2.05 -0.75,4.15 -1,6.3 -0.6,4.15 -1,7.45 -1.2,9.85 -0.2,2.35 -0.7,5.05 -1.45,8.05 -0.75,2.95 -1.8,6 -3.1,9.1 0.1,-0.15 0.2,-0.25 0.35,-0.35 0.3,-0.55 0.65,-1 1,-1.4 0.45,-0.45 0.9,-0.9 1.35,-1.3 L -13.975,9.975 -13.95,10 c 0.55,-0.65 1.15,-1.35 1.75,-2 0.95,-1.05 2,-2.05 3.15,-2.9 0.7,-0.55 1.5,-0.85 2.35,-1 1.5,0.25 2.5,1.15 3.05,2.75 0.35,1.05 0.75,1.75 1.2,2.05 0.4,0.25 0.75,0.45 1.1,0.5 0.05,0 0.1,0 0.15,0.05 0.15,0 0.3,0 0.5,-0.05 C -0.35,9.3 0.05,9.1 0.55,8.8 1.35,8.3 2,7.8 2.45,7.3 2.9,6.75 3.4,6.4 4.05,6.2 c 0.5,0.05 1,0.1 1.5,0.15 C 5.7,6.4 6,6.5 6.5,6.65 L 6.475,6.625 6.5,6.6 C 6.55,6.65 6.65,6.65 6.7,6.65 6.65,6.6 6.6,6.6 6.55,6.6 6.6,6.55 6.6,6.55 6.65,6.5 6.7,6.45 6.7,6.45 6.75,6.5 7.2,4.35 7.5,2.15 7.65,-0.1 7.75,-1.85 7.8,-3.75 7.85,-5.85 7.85,-8 7.8,-9.95 7.65,-11.75 7.5,-13.55 7.35,-15.45 7.3,-17.45 7.25,-19.5 6.85,-21.9 6.1,-24.7 6,-25.35 5.85,-26 5.6,-26.7 5.35,-27.45 5.15,-28.05 5,-28.5 4.85,-29 4.7,-29.45 4.55,-29.8 z"
           inkscape:connector-curvature="0"
           style="fill:#851611" />
      </g>
      <animate
         attributeName="display"
         begin="0s"
         repeatCount="1"
         dur="3.917s"
         keyTimes="0;0.415;0.436;1"
         values="none;inline;none;none"
         id="animate84" />
    </g>
    <g
       id="capeD006_1_878">
      <g
         id="element7">
        <path
           id="path45"
           d="m 6.5,-24.55 q -0.322,-1.72 -0.95,-3.2 c -0.2,-0.45 -0.45,-0.8 -0.7,-1.15 -1.2,-1.5 -2.2,-1.1 -2.95,1.2 -0.8,2.3 -2,2.1 -3.55,-0.6 -1.6,-2.75 -3.1,-2.45 -4.55,0.9 -1.45,3.3 -2.55,7.95 -3.3,14 -0.3,2.25 -0.65,4.4 -1,6.45 -0.15,1.05 -0.35,2.15 -0.5,3.25 -0.45,3.2 -1.35,6.15 -2.65,8.9 -1.25,2.65 -2.95,5.15 -5,7.4 0.6,0.05 1.35,-0.05 2.3,-0.3 0,-0.05 0,-0.05 0.05,-0.05 4.8,-5.15 7.95,-7.95 9.5,-8.4 1.55,-0.45 2.7,0.3 3.35,2.35 0.5,1.45 1.3,2.4 2.45,2.8 0.4,0.15 0.85,0.2 1.35,0.25 C 2.2,9.25 3.65,8.75 4.7,7.7 4.75,7.65 4.75,7.65 4.75,7.65 5.3,7.2 6.05,6.4 7,5.2 8.25,-0.85 8.65,-7.05 8.1,-13.45 7.75,-17.2 7.2,-20.9 6.5,-24.55 z"
           inkscape:connector-curvature="0"
           style="fill:#851611" />
        <path
           id="path46"
           d="m 1.9,-27.7 c 0.75,-2.3 1.75,-2.7 2.95,-1.2 0.25,0.35 0.5,0.7 0.7,1.15 -1.15,-2.7 -3.05,-4.8 -5.7,-6.3 -0.15,0.05 -0.35,0.05 -0.55,0.1 -0.05,0 -0.05,0 -0.05,0.05 -0.1,0 -0.2,0 -0.35,0 -0.35,0.05 -0.65,0.1 -1,0.1 -3.25,1.85 -5.15,4.75 -5.7,8.7 -0.85,6.05 -1.75,12.1 -2.7,18.15 0.35,-2.05 0.7,-4.2 1,-6.45 0.75,-6.05 1.85,-10.7 3.3,-14 1.45,-3.35 2.95,-3.65 4.55,-0.9 1.55,2.7 2.75,2.9 3.55,0.6 z M -7.6,7.85 C -6.35,7.6 -5.1,7.7 -3.95,8.2 -2.95,8.65 -1.95,8.9 -1,9 -2.15,8.6 -2.95,7.65 -3.45,6.2 -4.1,4.15 -5.25,3.4 -6.8,3.85 c -1.55,0.45 -4.7,3.25 -9.5,8.4 0.45,-0.25 0.9,-0.55 1.35,-0.9 2.1,-1.75 4.55,-2.95 7.35,-3.5 z"
           inkscape:connector-curvature="0"
           style="fill:#c21d1a" />
        <path
           id="path49"
           d="m -19.3,13.3 c 0.05,-0.05 0.05,-0.05 0.1,-0.1 -0.05,0.05 -0.1,0.05 -0.15,0.1 -0.05,0.05 -0.05,0.05 -0.1,0.1 0.05,-0.05 0.1,-0.05 0.15,-0.1"
           inkscape:connector-curvature="0"
           style="fill:#851611" />
      </g>
      <animate
         attributeName="display"
         begin="0s"
         repeatCount="1"
         dur="3.917s"
         keyTimes="0;0.287;0.415;1"
         values="none;inline;none;none"
         id="animate91" />
    </g>
    <g
       id="capeD006_1_876">
      <g
         id="element6">
        <path
           id="path41"
           d="m -8.125,-25.7 q 1.304,-2.411 1.9,-3.1 l 0.025,0 c 0.35,-0.45 0.95,-0.85 1.7,-1.2 0.75,-0.35 1.5,0.2 2.2,1.65 0.7,1.4 1.8,2.2 3.3,2.35 0.25,-0.2 0.45,-0.5 0.65,-0.95 0.2,-0.45 0.5,-1.1 0.95,-1.9 0.4,-0.8 1.05,-1.1 1.95,-0.95 l -0.025,0 -0.025,-0.025 0,0.025 C 4.45,-29.9 4.45,-30 4.4,-30.05 l 0.025,0 0.275,0.3 C 4.45,-30.1 4.35,-30.3 4.3,-30.35 3.85,-31.5 2.9,-32.55 1.45,-33.5 l -0.05,0 c -0.25,-0.25 -0.6,-0.45 -1,-0.55 -0.55,-0.15 -1.1,-0.2 -1.7,-0.15 -4.5,2.25 -7.3,5.8 -8.35,10.65 -1.1,4.8 -1.8,8.7 -2.1,11.75 -0.3,3 -0.55,5.65 -0.7,7.95 -0.15,2.25 -0.7,5.2 -1.55,8.75 -0.8,3.15 -1.8,6 -2.95,8.45 -0.25,0.25 -0.5,0.55 -0.75,0.8 0.05,0.05 0.15,0.1 0.3,0.1 0.05,-0.05 0.15,-0.1 0.3,-0.25 1.2,-1.35 2.55,-2.55 4.05,-3.5 1.15,-0.75 2.4,-1.35 3.75,-1.8 2,-0.55 4,-0.5 6,0.25 0.7,0.25 1.35,0.4 1.95,0.45 C -1.7,9.35 -2.05,9.15 -2.45,8.9 -2.9,8.6 -3.3,7.9 -3.65,6.85 -4.2,5.25 -5.2,4.35 -6.7,4.1 c -0.85,0.15 -1.65,0.45 -2.35,1 -1.15,0.85 -2.2,1.85 -3.15,2.9 -0.6,0.65 -1.2,1.35 -1.75,2 L -13.975,9.975 -14,10 c -0.45,0.4 -0.9,0.85 -1.35,1.3 -0.35,0.4 -0.7,0.85 -1,1.4 -0.15,0.1 -0.25,0.2 -0.35,0.35 1.3,-3.1 2.35,-6.15 3.1,-9.1 0.75,-3 1.25,-5.7 1.45,-8.05 0.2,-2.4 0.6,-5.7 1.2,-9.85 0.25,-2.15 0.6,-4.25 1,-6.3 0.35,-2.05 1,-3.85 1.85,-5.45 M 2.45,7.3 C 2,7.8 1.35,8.3 0.55,8.8 0.05,9.1 -0.35,9.3 -0.7,9.4 L -0.725,9.375 -0.05,9.35 C 0.8,9.25 2.05,8.8 3.75,8 5.45,7.2 6.35,6.75 6.5,6.65 6,6.5 5.7,6.4 5.55,6.35 5.05,6.3 4.55,6.25 4.05,6.2 3.4,6.4 2.9,6.75 2.45,7.3 z"
           inkscape:connector-curvature="0"
           style="fill:#c21d1a" />
        <path
           id="path42"
           d="m -6.225,-28.8 q -0.596,0.689 -1.9,3.1 l 0.025,0 c -0.85,1.6 -1.5,3.4 -1.85,5.45 -0.4,2.05 -0.75,4.15 -1,6.3 -0.6,4.15 -1,7.45 -1.2,9.85 -0.2,2.35 -0.7,5.05 -1.45,8.05 -0.75,2.95 -1.8,6 -3.1,9.1 0.1,-0.15 0.2,-0.25 0.35,-0.35 0.3,-0.55 0.65,-1 1,-1.4 0.45,-0.45 0.9,-0.9 1.35,-1.3 L -13.975,9.975 -13.95,10 c 0.55,-0.65 1.15,-1.35 1.75,-2 0.95,-1.05 2,-2.05 3.15,-2.9 0.7,-0.55 1.5,-0.85 2.35,-1 1.5,0.25 2.5,1.15 3.05,2.75 0.35,1.05 0.75,1.75 1.2,2.05 0.4,0.25 0.75,0.45 1.1,0.5 0.05,0 0.1,0 0.15,0.05 0.15,0 0.3,0 0.5,-0.05 C -0.35,9.3 0.05,9.1 0.55,8.8 1.35,8.3 2,7.8 2.45,7.3 2.9,6.75 3.4,6.4 4.05,6.2 c 0.5,0.05 1,0.1 1.5,0.15 C 5.7,6.4 6,6.5 6.5,6.65 L 6.475,6.625 6.5,6.6 C 6.55,6.65 6.65,6.65 6.7,6.65 6.65,6.6 6.6,6.6 6.55,6.6 6.6,6.55 6.6,6.55 6.65,6.5 6.7,6.45 6.7,6.45 6.75,6.5 7.2,4.35 7.5,2.15 7.65,-0.1 7.75,-1.85 7.8,-3.75 7.85,-5.85 7.85,-8 7.8,-9.95 7.65,-11.75 7.5,-13.55 7.35,-15.45 7.3,-17.45 7.25,-19.5 6.85,-21.9 6.1,-24.7 6,-25.35 5.85,-26 5.6,-26.7 5.35,-27.45 5.15,-28.05 5,-28.5 4.85,-29 4.7,-29.45 4.55,-29.8 3.65,-29.95 3,-29.65 2.6,-28.85 c -0.45,0.8 -0.75,1.45 -0.95,1.9 -0.2,0.45 -0.4,0.75 -0.65,0.95 -1.5,-0.15 -2.6,-0.95 -3.3,-2.35 -0.7,-1.45 -1.45,-2 -2.2,-1.65 -0.75,0.35 -1.35,0.75 -1.7,1.2"
           inkscape:connector-curvature="0"
           style="fill:#851611" />
      </g>
      <animate
         attributeName="display"
         begin="0s"
         repeatCount="1"
         dur="3.917s"
         keyTimes="0;0.266;0.287;1"
         values="none;inline;none;none"
         id="animate97" />
    </g>
    <g
       id="capeD006_1_874">
      <g
         id="element5">
        <path
           id="path35"
           d="m -2.6,-33.375 q -0.377,0.192 -0.725,0.4 l 0.025,0.025 c -0.75,0.4 -1.4,0.9 -2.05,1.45 -1.05,0.95 -1.9,2.1 -2.65,3.4 -2.45,4.4 -4.05,9.15 -4.75,14.2 -0.7,4.95 -1.15,10 -1.4,15.1 -0.1,2.45 -0.45,4.85 -1.05,7.15 -0.55,2.05 -0.85,4 -0.9,5.85 0.05,-0.15 0.05,-0.25 0.1,-0.35 0.15,0 0.25,-0.05 0.3,-0.15 1.15,-3.55 1.85,-7.25 2.15,-11.2 0.25,-3.95 0.6,-8.25 1.05,-12.85 0.4,-4.65 1.3,-8.65 2.75,-12.1 1.4,-3.45 2.7,-5.8 3.95,-7.15 1.2,-1.35 2.2,-1.2 2.95,0.45 0.75,1.6 1.45,2.65 2.2,3.1 0.75,0.45 1.65,-0.2 2.75,-1.85 0.95,-1.5 1.65,-2.15 2.05,-1.9 C 4.1,-29.85 4.1,-29.85 4.1,-29.9 4.05,-29.95 4.05,-29.95 4.05,-30 4.1,-30 4.1,-30 4.1,-30.05 L 4,-30.15 c -0.35,-0.95 -0.85,-1.8 -1.55,-2.45 -0.8,-0.75 -1.75,-1.2 -2.85,-1.3 -0.45,-0.05 -0.8,-0.05 -1.15,0.1 -0.35,0.05 -0.5,0.1 -0.45,0.05 -0.05,0.05 -0.05,0.1 0.1,0.05 -0.25,0.1 -0.45,0.2 -0.7,0.35 M 7,6.55 C 5.05,5.4 3.75,5.15 3.05,5.85 2.3,6.55 1.2,7.65 -0.25,9.15 -0.3,9.2 -0.4,9.3 -0.45,9.35 0.4,9.15 1.25,8.8 2.1,8.25 3.45,7.4 5.05,6.8 7,6.55 z m -10.1,2.8 c -0.45,-0.4 -0.85,-1 -1.2,-1.8 -1.25,-2.5 -2.7,-3.35 -4.35,-2.6 -1.55,0.75 -3.7,3.4 -6.55,8.05 1.7,-2.25 4.05,-3.7 7.1,-4.3 1.25,-0.25 2.4,-0.15 3.55,0.25 0.5,0.15 1,0.3 1.45,0.4 z"
           inkscape:connector-curvature="0"
           style="fill:#c21d1a" />
        <path
           id="path36"
           d="m -0.65,-26.05 c -0.75,-0.45 -1.45,-1.5 -2.2,-3.1 -0.75,-1.65 -1.75,-1.8 -2.95,-0.45 -1.25,1.35 -2.55,3.7 -3.95,7.15 -1.45,3.45 -2.35,7.45 -2.75,12.1 -0.45,4.6 -0.8,8.9 -1.05,12.85 -0.3,3.95 -1,7.65 -2.15,11.2 -0.05,0.05 -0.05,0.15 -0.05,0.2 0.2,-0.35 0.4,-0.65 0.55,-0.9 2.85,-4.65 5,-7.3 6.55,-8.05 1.65,-0.75 3.1,0.1 4.35,2.6 0.35,0.8 0.75,1.4 1.2,1.8 0.85,0.35 1.75,0.35 2.65,0 C -0.4,9.3 -0.3,9.2 -0.25,9.15 1.2,7.65 2.3,6.55 3.05,5.85 3.75,5.15 5.05,5.4 7,6.55 7.05,6.6 7.15,6.65 7.25,6.7 7.2,6.6 7.1,6.5 7.05,6.35 7.3,3.7 7.35,0.55 7.15,-3.1 6.95,-6.75 6.75,-10.95 6.55,-15.75 6.35,-20.6 6,-24.05 5.45,-26.1 4.9,-28.15 4.5,-29.35 4.3,-29.65 4.25,-29.7 4.2,-29.75 4.15,-29.8 c -0.4,-0.25 -1.1,0.4 -2.05,1.9 -1.1,1.65 -2,2.3 -2.75,1.85 z"
           inkscape:connector-curvature="0"
           style="fill:#851611" />
      </g>
      <animate
         attributeName="display"
         begin="0s"
         repeatCount="1"
         dur="3.917s"
         keyTimes="0;0.245;0.266;1"
         values="none;inline;none;none"
         id="animate103" />
    </g>
    <g
       id="capeD006_1_872">
      <g
         id="element4">
        <path
           id="path30"
           d="M -1.225,-34.125 Q -1.432,-34.15 -1.65,-34.15 c -0.1,0.05 -0.2,0.1 -0.25,0.15 -0.25,0.05 -0.45,0.15 -0.65,0.3 -0.25,0.15 -0.45,0.3 -0.65,0.5 -0.3,0.15 -0.95,0.6 -2,1.3 -1.05,0.7 -1.9,1.6 -2.6,2.65 -0.75,1.05 -1.3,2.05 -1.7,2.9 -0.45,0.8 -0.85,1.6 -1.25,2.4 -0.4,0.8 -0.75,1.8 -1.1,2.95 -0.65,2 -1.2,4.15 -1.75,6.5 -0.55,2.3 -0.95,4.45 -1.2,6.4 -0.3,1.95 -0.55,3.9 -0.75,5.75 -0.25,1.85 -0.35,3.95 -0.4,6.2 -0.05,2.25 0,4.55 0.2,7 0.2,2.4 0.8,3.65 1.85,3.75 -0.2,-0.65 -0.35,-1.35 -0.5,-2 0.25,-0.25 0.45,-0.55 0.7,-0.85 0.85,-1.05 2,-1.8 3.35,-2.15 C -9.6,9.4 -9,9.2 -8.6,8.95 c 0.85,-0.15 2.3,-0.05 4.35,0.4 0.3,0.05 0.6,0.05 0.9,0.1 0.05,0.05 0.15,0.1 0.25,0.1 0.15,0 0.25,0 0.4,0.05 0.05,-0.05 0.1,-0.05 0.15,0 -0.1,-0.15 -0.25,-0.25 -0.4,-0.25 -0.15,0 -0.3,-0.05 -0.35,-0.1 l -0.05,0 0,0.075 0,0.025 C -4.15,9 -5.05,8.15 -6.05,6.8 -7.25,5.15 -8.45,4.75 -9.7,5.55 c -1.45,1.55 -2.6,3 -3.4,4.3 -0.8,1.3 -1.3,2 -1.45,2.15 -0.25,-1.35 -0.45,-2.75 -0.5,-4.15 -0.05,-1.05 0,-3.1 0.1,-6.15 0.05,-3.1 0.3,-6.15 0.75,-9.1 0.45,-2.95 0.95,-5.55 1.55,-7.75 0.6,-2.25 1.2,-4.35 1.8,-6.2 0.6,-1.85 1.15,-3.25 1.65,-4.15 0.5,-0.95 1.05,-1.8 1.65,-2.55 0.6,-0.8 1.4,-1.55 2.4,-2.3 0.95,-0.75 1.7,-0.3 2.25,1.3 0.55,1.55 1.2,2.5 2,2.85 0.75,0.35 1.75,-0.35 2.95,-2.1 1.15,-1.75 2,-2.1 2.45,-1.05 0,0 0,0 0.05,0 C 4.5,-29.4 4.5,-29.4 4.5,-29.45 4.45,-29.55 4.45,-29.6 4.4,-29.6 c 0,-0.05 0,-0.05 -0.05,-0.05 l 0,-0.05 c -0.3,-0.55 -0.5,-0.9 -0.65,-1.1 -0.75,-1 -1.05,-1.5 -1,-1.5 -0.05,-0.05 -0.05,-0.05 -0.1,-0.1 -0.5,-0.6 -1.1,-1.05 -1.85,-1.4 -0.65,-0.3 -1.3,-0.4 -1.95,-0.3 m 8.4,40 C 6.75,5.8 6.3,5.55 5.85,5.2 5.4,4.8 4.85,4.55 4.25,4.5 3.6,4.4 2.9,4.9 2.1,6.05 1.25,7.2 0.7,7.95 0.35,8.3 0,8.65 -0.3,8.95 -0.6,9.1 -0.85,9.2 -1,9.25 -1.1,9.3 -0.85,9.25 -0.65,9.15 -0.4,9.05 0.25,8.8 0.9,8.4 1.55,7.9 3,6.8 4.9,6.15 7.2,5.9 z"
           inkscape:connector-curvature="0"
           style="fill:#c21d1a" />
        <path
           id="path31"
           d="m -5.15,-30.35 c -1,0.75 -1.8,1.5 -2.4,2.3 -0.6,0.75 -1.15,1.6 -1.65,2.55 -0.5,0.9 -1.05,2.3 -1.65,4.15 -0.6,1.85 -1.2,3.95 -1.8,6.2 -0.6,2.2 -1.1,4.8 -1.55,7.75 -0.45,2.95 -0.7,6 -0.75,9.1 -0.1,3.05 -0.15,5.1 -0.1,6.15 0.05,1.4 0.25,2.8 0.5,4.15 0.15,-0.15 0.65,-0.85 1.45,-2.15 0.8,-1.3 1.95,-2.75 3.4,-4.3 1.25,-0.8 2.45,-0.4 3.65,1.25 1,1.35 1.9,2.2 2.7,2.55 l 0,-0.025 0,-0.075 0.05,0 c 0.05,0.05 0.2,0.1 0.35,0.1 0.15,0 0.3,0.1 0.4,0.25 L -2.575,9.575 -2.55,9.6 l 0.375,-0.05 0.025,0 c 0.3,0.1 0.65,0.05 1,-0.2 l 0,-0.025 L -1.1,9.3 C -1,9.25 -0.85,9.2 -0.6,9.1 -0.3,8.95 0,8.65 0.35,8.3 0.7,7.95 1.25,7.2 2.1,6.05 2.9,4.9 3.6,4.4 4.25,4.5 4.85,4.55 5.4,4.8 5.85,5.2 6.3,5.55 6.75,5.8 7.2,5.9 7.3,5.9 7.4,5.9 7.55,5.95 7.5,5.9 7.5,5.9 7.5,5.85 c 0.05,0 0.15,0 0.2,0 C 7.35,4.4 7.1,2.85 6.85,1.1 6.4,-1.65 6.15,-4.35 6.1,-7 6.05,-9.65 6,-11.55 6.05,-12.7 c 0,-1.15 -0.05,-2.4 -0.2,-3.65 0.05,-0.8 0.1,-1.9 0.1,-3.35 -0.05,-1.85 -0.25,-3.9 -0.6,-6.15 -0.25,-1.45 -0.5,-2.6 -0.85,-3.5 l -0.025,-0.025 0,0.025 0.025,0 c -0.45,-1.05 -1.3,-0.7 -2.45,1.05 -1.2,1.75 -2.2,2.45 -2.95,2.1 -0.8,-0.35 -1.45,-1.3 -2,-2.85 -0.55,-1.6 -1.3,-2.05 -2.25,-1.3 z"
           inkscape:connector-curvature="0"
           style="fill:#851611" />
        <path
           id="path34"
           d="M 7.725,6.025 7.75,6.2 C 7.8,6.25 7.8,6.25 7.8,6.25 7.75,6.2 7.75,6.1 7.75,6.05"
           inkscape:connector-curvature="0"
           style="fill:#c21d1a" />
      </g>
      <animate
         attributeName="display"
         begin="0s"
         repeatCount="1"
         dur="3.917s"
         keyTimes="0;0.223;0.245;1"
         values="none;inline;none;none"
         id="animate110" />
    </g>
    <g
       id="capeD006_1_858">
      <g
         id="element3">
        <path
           id="path22"
           d="m -0.1,-34 q -0.287,-0.107 -0.6,-0.1 c -0.05,0 -0.15,0 -0.25,0 -0.05,0.05 -0.1,0.05 -0.15,0.1 -0.05,0.05 -0.05,0.05 -0.1,0.1 -0.2,-0.05 -0.4,-0.05 -0.55,-0.1 -0.15,0.05 -0.25,0.15 -0.35,0.2 -2.05,1.05 -3.85,2.4 -5.35,4.1 -1.1,1.25 -2.05,2.6 -2.9,4.15 -0.35,0.7 -0.7,1.4 -1.05,2.1 -0.2,0.35 -0.4,0.75 -0.55,1.2 -0.95,2 -1.7,4.05 -2.3,6.2 -1.05,3.45 -1.75,7.05 -2.2,10.7 -0.75,6.2 -0.4,12.35 1.1,18.4 0.05,-0.05 0.05,-0.1 0.05,-0.15 0.1,0.15 0.3,0.4 0.55,0.7 0.75,0.75 1.45,1.05 2.15,0.85 l -0.05,-0.05 c -0.05,-0.05 -0.05,-0.05 -0.1,-0.1 0.05,-0.15 0.05,-0.3 0,-0.45 -0.2,-0.95 -0.4,-1.9 -0.55,-2.75 l 0.05,0 c 0.05,0 0.05,0 0.1,0.05 0.25,-0.15 0.5,-0.25 0.75,-0.4 0.15,-0.15 0.3,-0.25 0.45,-0.35 2.2,-1.05 4.15,-1.5 5.9,-1.35 -2.55,-3.35 -4.25,-4 -5.1,-1.95 -0.9,2.1 -1.5,3.25 -1.75,3.45 -0.25,0.15 -0.4,0.25 -0.45,0.3 -0.05,-0.05 -0.05,-0.05 -0.05,-0.05 -0.05,-0.05 -0.05,-0.1 -0.05,-0.15 0,0 0,0.05 0,0.1 L -13.475,10.725 -13.5,10.7 c 0.05,-0.1 0.05,-0.2 0.05,-0.3 -0.75,-3.95 -1.25,-7.95 -1.45,-12 -0.2,-4.1 -0.05,-7.45 0.5,-10 0.5,-2.6 1,-4.7 1.55,-6.35 0.55,-1.65 1.15,-3.25 1.85,-4.85 0.65,-1.65 1.75,-3.45 3.2,-5.45 l 0.05,0 c 0.65,-0.75 1.3,-1.35 1.9,-1.85 0.55,-0.55 1.15,-0.65 1.75,-0.3 0.55,0.3 0.95,1 1.15,2.1 0.15,1.05 0.75,1.75 1.7,2.1 0.95,0.3 1.85,-0.2 2.8,-1.5 0.95,-1.3 1.8,-1.95 2.65,-1.9 -0.05,-0.1 -0.1,-0.2 -0.15,-0.3 -0.45,-0.8 -0.95,-1.55 -1.5,-2.2 -0.6,-0.65 -1.3,-1.3 -2.05,-1.85 -0.05,0.05 -0.05,0.1 -0.1,0.15 -0.05,-0.05 -0.1,-0.05 -0.15,-0.1 -0.1,-0.05 -0.2,-0.05 -0.35,-0.1 z m -13.65,16.9 c 0.1,-0.3 0.2,-0.6 0.3,-0.9 0.35,-0.95 0.7,-1.85 0.95,-2.8 -0.5,1.35 -0.9,2.6 -1.25,3.7 z m 16,21.4 C 1.9,4.65 1.45,5.7 0.8,7.5 1.15,7.25 1.55,7.05 1.95,6.8 3.2,6 5.15,5.6 7.7,5.6 7.25,5.45 6.8,5.4 6.35,5.45 5.9,5.5 5.1,4.95 4,3.9 3.25,3.7 2.7,3.85 2.25,4.3 z"
           inkscape:connector-curvature="0"
           style="fill:#c21d1a" />
        <path
           id="path23"
           d="m -13.75,-17.1 c 0.1,-0.3 0.2,-0.6 0.3,-0.9 0.35,-0.95 0.7,-1.85 0.95,-2.8 -0.5,1.35 -0.9,2.6 -1.25,3.7 z m 6,-11.15 c 0.65,-0.75 1.3,-1.35 1.9,-1.85 0.55,-0.55 1.15,-0.65 1.75,-0.3 0.55,0.3 0.95,1 1.15,2.1 0.15,1.05 0.75,1.75 1.7,2.1 0.95,0.3 1.85,-0.2 2.8,-1.5 0.95,-1.3 1.8,-1.95 2.65,-1.9 0.15,0.35 0.25,0.7 0.4,1.05 0.65,1.9 0.85,4.05 0.55,6.5 -0.95,6.7 -0.85,13.05 0.25,19 0.15,0.85 0.35,1.7 0.6,2.55 0.35,1.45 0.85,2.8 1.4,4.15 0.2,0.45 0.4,1.1 0.55,1.95 -0.1,0 -0.2,0 -0.25,0 C 7.25,5.45 6.8,5.4 6.35,5.45 5.9,5.5 5.1,4.95 4,3.9 3.25,3.7 2.7,3.85 2.25,4.3 1.9,4.65 1.45,5.7 0.8,7.5 -0.15,8.1 -0.95,8.55 -1.55,8.9 -1.7,9 -1.9,9.1 -2.1,9.15 -2.95,9.4 -4.05,9.4 -5.4,9.15 -5.65,9.1 -5.85,9.05 -6.05,9.05 -8.6,5.7 -10.3,5.05 -11.15,7.1 c -0.9,2.1 -1.5,3.25 -1.75,3.45 -0.25,0.15 -0.4,0.25 -0.45,0.3 -0.05,-0.05 -0.05,-0.05 -0.05,-0.05 -0.05,-0.05 -0.05,-0.1 -0.05,-0.15 0,0 0,0.05 0,0.1 L -13.475,10.725 -13.5,10.7 c 0.05,-0.1 0.05,-0.2 0.05,-0.3 -0.75,-3.95 -1.25,-7.95 -1.45,-12 -0.2,-4.1 -0.05,-7.45 0.5,-10 0.5,-2.6 1,-4.7 1.55,-6.35 0.55,-1.65 1.15,-3.25 1.85,-4.85 0.65,-1.65 1.75,-3.45 3.2,-5.45 l 0.05,0 z"
           inkscape:connector-curvature="0"
           style="fill:#851611" />
      </g>
      <animate
         attributeName="display"
         begin="0s"
         repeatCount="1"
         dur="3.917s"
         keyTimes="0;0.074;0.223;1"
         values="none;inline;none;none"
         id="animate116" />
    </g>
    <g
       id="capeD006_1_856">
      <g
         id="element2">
        <path
           id="path18"
           d="M 2.525,-32.1 Q 1.652,-33.099 0.5,-33.95 c -0.05,0.05 -0.05,0.1 -0.1,0.15 -0.05,-0.05 -0.1,-0.05 -0.15,-0.1 -0.1,-0.05 -0.2,-0.05 -0.35,-0.1 -0.2,-0.05 -0.4,-0.1 -0.6,-0.1 -0.05,0 -0.15,0 -0.25,0 -0.05,0.05 -0.1,0.05 -0.15,0.1 -0.05,0.05 -0.05,0.05 -0.1,0.1 -0.2,-0.05 -0.4,-0.05 -0.55,-0.1 -0.15,0.05 -0.25,0.15 -0.35,0.2 -2.05,1.05 -3.85,2.4 -5.35,4.1 -1.1,1.25 -2.05,2.6 -2.9,4.15 -0.35,0.7 -0.7,1.4 -1.05,2.1 -0.2,0.35 -0.4,0.75 -0.55,1.2 -0.95,2 -1.7,4.05 -2.3,6.2 -1.05,3.45 -1.9,8.7 -2.55,15.7 -0.65,6.95 -0.5,11.6 0.55,13.9 0.2,0.55 0.6,1 1.2,1.35 0.35,0.2 0.55,0.15 0.65,-0.15 0,-0.05 0,-0.1 0.05,-0.15 l -0.025,-0.025 0.025,-0.775 c 0,-0.05 0,-0.1 0,-0.15 -0.15,-1.2 -0.15,-1.6 -0.1,-1.25 0.1,-0.15 0.2,-0.3 0.3,-0.45 0.3,-0.5 0.65,-0.9 1.05,-1.25 0.5,-0.45 1.1,-0.8 1.8,-1 1.35,-0.4 2.4,-0.55 3.15,-0.45 0.45,0.05 0.95,0.15 1.4,0.3 0.3,0.1 0.6,0.2 0.95,0.35 0.2,0.1 0.4,0.15 0.65,0.2 -0.2,-0.25 -0.4,-0.45 -0.55,-0.7 -1.15,-1.75 -2.65,-2.75 -4.6,-3.05 -0.05,0 -0.15,0 -0.25,0.05 -0.75,0.15 -1.3,0.6 -1.7,1.3 -0.45,0.95 -0.95,1.9 -1.5,2.8 -0.15,0.3 -0.3,0.6 -0.35,0.9 -0.7,-6.55 -0.85,-13.1 -0.5,-19.7 0.35,-6.65 2.35,-12.8 5.9,-18.5 0.65,-0.95 1.25,-1.6 1.7,-1.85 0.45,-0.3 0.7,-0.5 0.8,-0.6 0,-0.05 0,-0.05 0.05,-0.1 0,-0.05 0,-0.05 0.05,-0.05 0.05,-0.05 0.1,-0.15 0.15,-0.2 0,-0.05 0,-0.05 0.05,-0.05 0,-0.05 0.05,-0.05 0.1,-0.1 0,-0.05 0,-0.05 0.05,-0.05 0.05,-0.05 0.05,-0.05 0.1,-0.1 0.45,-0.4 1,-0.55 1.65,-0.5 0.1,-0.05 0.2,-0.05 0.3,0 0.35,1.15 0.8,2.2 1.4,3.25 0.8,1.35 1.8,1.45 2.95,0.25 1.15,-1.25 2.4,-1.95 3.75,-2.15 -0.05,-0.2 -0.15,-0.4 -0.2,-0.55 l -0.025,0 -0.05,-0.1 0.025,0 C 4.1,-29.75 4.05,-29.85 4.05,-29.9 3.6,-30.7 3.1,-31.45 2.55,-32.1 M 7.7,5.5 C 7.25,5.3 6.9,5.05 6.55,4.75 5.55,3.85 4.35,3.4 3,3.35 2.8,3.4 2.6,3.5 2.45,3.65 1.8,4.15 1.35,4.75 1.05,5.5 0.75,6.1 0.45,6.75 0.2,7.45 0.15,7.5 0.15,7.6 0.1,7.7 l 0,0.025 0,0.025 C 0.15,7.7 0.2,7.65 0.25,7.6 l 0,-0.025 0.025,-0.025 0.025,0 C 0.55,7.3 0.8,7.1 1.15,6.85 1.6,6.5 2.05,6.2 2.6,5.85 c 0.8,-0.5 1.75,-0.7 2.9,-0.6 0.1,0 0.25,0 0.4,0.05 0.75,0.1 1.35,0.15 1.8,0.2 z"
           inkscape:connector-curvature="0"
           style="fill:#c21d1a" />
        <path
           id="path19"
           d="m 4.4,-29.05 c -1.35,0.2 -2.6,0.9 -3.75,2.15 -1.15,1.2 -2.15,1.1 -2.95,-0.25 -0.6,-1.05 -1.05,-2.1 -1.4,-3.25 -0.1,-0.05 -0.2,-0.05 -0.3,0 -0.65,-0.05 -1.2,0.1 -1.65,0.5 -0.05,0.05 -0.05,0.05 -0.1,0.1 -0.05,0 -0.05,0 -0.05,0.05 -0.05,0.05 -0.1,0.05 -0.1,0.1 -0.05,0 -0.05,0 -0.05,0.05 -0.05,0.05 -0.1,0.15 -0.15,0.2 -0.05,0 -0.05,0 -0.05,0.05 -0.05,0.05 -0.05,0.05 -0.05,0.1 -0.1,0.1 -0.35,0.3 -0.8,0.6 -0.45,0.25 -1.05,0.9 -1.7,1.85 -3.55,5.7 -5.55,11.85 -5.9,18.5 -0.35,6.6 -0.2,13.15 0.5,19.7 0.05,-0.3 0.2,-0.6 0.35,-0.9 0.55,-0.9 1.05,-1.85 1.5,-2.8 0.4,-0.7 0.95,-1.15 1.7,-1.3 0.1,-0.05 0.2,-0.05 0.25,-0.05 1.95,0.3 3.45,1.3 4.6,3.05 0.15,0.25 0.35,0.45 0.55,0.7 0.6,0.1 1.25,0 1.95,-0.35 C -2.25,9.3 -1.7,9 -1.55,8.9 -1,8.6 -0.45,8.2 0.1,7.7 0.15,7.6 0.15,7.5 0.2,7.45 0.45,6.75 0.75,6.1 1.05,5.5 1.35,4.75 1.8,4.15 2.45,3.65 2.6,3.5 2.8,3.4 3,3.35 4.35,3.4 5.55,3.85 6.55,4.75 6.9,5.05 7.25,5.3 7.7,5.5 8,5.55 8.25,5.55 8.45,5.5 8.15,4.65 7.85,3.75 7.55,2.85 7.2,1.9 6.9,0.9 6.55,-0.15 6.2,-1.2 5.75,-3.45 5.2,-6.8 4.65,-10.2 4.55,-14.2 5,-18.8 5.4,-23.4 5.25,-26.65 4.6,-28.55 4.55,-28.7 4.45,-28.9 4.4,-29.05 z"
           inkscape:connector-curvature="0"
           style="fill:#851611" />
      </g>
      <animate
         attributeName="display"
         begin="0s"
         repeatCount="1"
         dur="3.917s"
         keyTimes="0;0.053;0.074;1"
         values="none;inline;none;none"
         id="animate122" />
    </g>
    <g
       id="capeD006_1_854">
      <g
         id="element1">
        <path
           id="path9"
           d="m -2.75,-33.2 c -0.1,0 -0.55,0.2 -1.3,0.55 -0.8,0.35 -2.4,2 -4.75,4.85 -2.4,2.85 -4.1,6.65 -5.1,11.35 -1.05,4.65 -1.65,7.9 -1.9,9.65 -0.25,0.55 -0.5,2.25 -0.7,5.1 0,0.45 0,1.1 -0.05,2.05 -0.05,0.95 -0.1,2 -0.2,3.15 -0.1,1.15 -0.2,2.2 -0.35,3.15 -0.15,0.95 -0.4,2.8 -0.65,5.55 0,0.05 0,0.05 0,0.1 0,0.3 0.05,0.8 0.2,1.55 0.1,0.75 0.35,1 0.75,0.75 0.4,-0.25 0.75,-1.2 1.1,-2.85 0.05,-0.05 0.1,-0.1 0.1,-0.05 -0.05,-0.05 -0.1,-0.05 -0.15,-0.1 0.1,-2.35 0.3,-5.45 0.6,-9.2 0.3,-3.8 0.9,-8.55 1.85,-14.3 0.9,-5.75 2.3,-10 4.2,-12.8 1.9,-2.85 3.25,-4.55 4.05,-5.15 0.8,-0.65 1.4,-0.85 1.8,-0.65 l -0.025,0 0.025,0.025 0,0.025 c 0.05,0.15 0.1,0.4 0.2,0.65 0.35,1.35 0.8,2.5 1.4,3.35 0.6,0.85 1.75,0.5 3.45,-1.1 1.35,-1.25 2.15,-1.8 2.45,-1.6 -0.05,-0.05 -0.1,-0.2 -0.15,-0.4 -0.05,-0.1 -0.1,-0.2 -0.15,-0.3 -0.75,-1.5 -1.95,-2.75 -3.7,-3.8 -0.3,-0.05 -0.6,-0.1 -0.9,-0.05 -0.05,-0.05 -0.1,-0.05 -0.15,-0.05 -0.15,-0.05 -0.35,-0.05 -0.45,-0.1 q -0.1,0 -0.25,0 c -0.5,0.15 -0.9,0.4 -1.25,0.65 z M 3.4,3.35 C 2.55,3.2 1.8,3.45 1.15,4.15 0.5,4.8 0.1,5.4 -0.15,5.85 -0.4,6.3 -0.75,7.15 -1.2,8.35 -0.45,7.8 0,7.45 0.05,7.4 L 0.025,7.4 -1.15,8.25 C 0.65,6.05 2.1,4.95 3.2,5 4.3,4.95 5.1,4.9 5.55,4.85 L 6.6,4.95 C 6.85,5 7.15,5.1 7.4,5.15 6.95,4.8 6.35,4.45 5.7,4.1 5,3.75 4.25,3.5 3.4,3.35 z m -9.1,7.3 C -6.25,10.1 -6.95,9.25 -7.85,8.1 -8.8,6.95 -9.75,6.55 -10.8,7 c -1.05,0.4 -1.85,1.05 -2.45,1.95 -0.6,0.85 -1.15,1.6 -1.7,2.2 -0.15,0.15 -0.3,0.3 -0.4,0.45 0.15,-0.1 0.2,-0.15 0.25,-0.15 l 0.95,-0.475 0,0.025 c 0.65,-0.35 1.45,-0.7 2.2,-0.95 l -0.025,-0.025 0.025,-0.025 0,0.025 0,0.025 c 0.2,-0.1 0.2,-0.1 0.2,-0.1 0.95,-0.35 1.75,-0.55 2.5,-0.5 0.25,0 0.5,0.05 0.5,0.05 0.3,0.05 0.4,0.05 0.5,0.1 l 1.05,0.475 0,0.025 c 0.15,0.05 0.15,0.05 0.15,0.05 0.45,0.3 1,0.45 1.35,0.5 z"
           inkscape:connector-curvature="0"
           style="fill:#c21d1a" />
        <path
           id="path10"
           d="m -5.05,-29.85 c -0.8,0.6 -2.15,2.3 -4.05,5.15 -1.9,2.8 -3.3,7.05 -4.2,12.8 -0.95,5.75 -1.55,10.5 -1.85,14.3 -0.3,3.75 -0.5,6.85 -0.6,9.2 0.05,0.05 0.1,0.05 0.15,0.1 0,-0.05 -0.05,0 -0.1,0.05 0.1,-0.05 0.2,-0.1 0.15,-0.05 0.1,-0.05 0.2,-0.1 0.2,-0.1 0.1,-0.15 0.25,-0.3 0.4,-0.45 0.55,-0.6 1.1,-1.35 1.7,-2.2 0.6,-0.9 1.4,-1.55 2.45,-1.95 1.05,-0.45 2,-0.05 2.95,1.1 0.9,1.15 1.6,2 2.15,2.55 0.6,0.05 1,0.05 1.45,0 C -3.1,10.55 -2.1,9.8 -1.2,8.35 -0.75,7.15 -0.4,6.3 -0.15,5.85 0.1,5.4 0.5,4.8 1.15,4.15 1.8,3.45 2.55,3.2 3.4,3.35 4.25,3.5 5,3.75 5.7,4.1 6.35,4.45 6.95,4.8 7.4,5.15 7.15,5.1 6.85,5 6.6,4.95 7.65,5.25 8.35,5.45 9.05,5.7 8.95,5.3 8.25,3.35 7.1,-0.15 6,-3.65 5.35,-8.1 5.15,-13.45 c -0.2,-5.4 -0.3,-9.65 -0.35,-12.8 -0.05,-0.95 -0.2,-1.8 -0.45,-2.6 -0.05,-0.05 -0.1,-0.1 -0.1,-0.3 -0.3,-0.2 -1.1,0.35 -2.45,1.6 -1.7,1.6 -2.85,1.95 -3.45,1.1 -0.6,-0.85 -1.05,-2 -1.4,-3.35 -0.1,-0.25 -0.15,-0.5 -0.2,-0.65 l 0,-0.025 -0.025,-0.025 0.025,0 c -0.4,-0.2 -1,0 -1.8,0.65 z m -12.7,42.15 c 0,-0.05 0,-0.05 0,-0.1 -0.15,0.05 -0.25,0.15 -0.35,0.25 0.1,-0.05 0.2,-0.05 0.3,-0.1 0,0 0,0 0.05,-0.05 z"
           inkscape:connector-curvature="0"
           style="fill:#851611" />
        <path
           id="path17"
           d="m -11.95,10 -0.025,0.025 0.025,0 0,-0.025"
           inkscape:connector-curvature="0"
           style="fill:#851611" />
      </g>
      <animate
         attributeName="display"
         begin="0s"
         repeatCount="1"
         dur="3.917s"
         keyTimes="0;0.032;0.053;1"
         values="none;inline;none;none"
         id="animate129" />
    </g>
    <g
       id="capeD006_1_851">
      <g
         id="element">
        <path
           id="path"
           d="m -2.7,-33.2 c -0.1,0 -0.2,0 -0.25,0.05 -0.35,0.35 -1.9,2.05 -4.55,5 -2.7,2.95 -4.6,6.85 -5.7,11.6 -1.1,4.75 -1.75,8 -1.95,9.75 -0.25,0.55 -0.45,2.25 -0.6,5.1 0.05,0.45 0.15,1.15 0.25,2.2 0.05,1 0.1,2.35 0.1,4.05 -0.05,0.5 -0.05,1 -0.1,1.45 -0.15,1.1 -0.5,2.05 -0.95,2.9 -0.35,0.55 -0.75,1.25 -1.2,2.05 1,-0.95 1.85,-2 2.6,-3.15 0.7,-1.2 1.1,-3.3 1.25,-6.25 0.2,-3.1 0.6,-7.55 1.25,-13.35 0.65,-5.8 1.95,-10 3.95,-12.65 2,-2.65 3.45,-4.25 4.35,-4.8 0.85,-0.55 1.35,-0.9 1.45,-0.95 0.15,0 0.25,0 0.35,0 0.05,0 0.05,0 0.05,0.05 0.05,0.15 0.1,0.55 0.05,1.3 -0.05,0.75 0.25,1.55 0.9,2.4 0.6,0.85 1.45,0.9 2.55,0.1 1.05,-0.8 2.2,-1.65 3.4,-2.5 -0.1,-0.25 -0.2,-0.45 -0.3,-0.7 -0.05,-0.1 -0.1,-0.2 -0.15,-0.3 l 0,-0.025 Q 2.893,-32.096 0.3,-33.65 c -0.3,-0.05 -0.6,-0.1 -0.9,-0.05 -0.05,-0.05 -0.1,-0.05 -0.15,-0.05 -0.15,-0.05 -0.35,-0.05 -0.5,-0.1 -0.05,0 -0.15,0 -0.25,0 -0.45,0.15 -0.85,0.4 -1.2,0.65 z M 1.1,3.45 C 1.05,3.4 0.95,3.4 0.85,3.45 0.7,3.6 0.5,3.75 0.25,3.9 0,4.05 -0.3,4.45 -0.7,5.05 -1.1,5.65 -1.35,6.35 -1.45,7.1 -1.4,7 -1.4,6.9 -1.35,6.85 L 1.125,4.625 1.15,4.65 C 1.2,4.6 1.3,4.6 1.35,4.55 1.5,4.5 1.6,4.5 1.75,4.45 1.85,4.4 1.95,4.4 2.05,4.4 2.3,4.35 2.5,4.35 2.75,4.35 3.35,4.35 4,4.4 4.65,4.45 4.25,4 3.6,3.75 2.65,3.65 1.7,3.5 1.15,3.45 1.1,3.45 z m -9.7,7.9 C -8.65,10.65 -8.8,9.8 -8.95,8.85 -9.1,8.1 -9.2,7.85 -9.25,8.1 c -0.3,-0.7 -0.65,-1 -1.1,-0.9 -0.45,0.05 -0.65,0.1 -0.7,0.1 -0.1,0 -0.35,0.1 -0.75,0.3 -0.45,0.2 -1.05,0.8 -1.85,1.8 -0.55,0.75 -1.1,1.45 -1.6,2.15 l 0,0.025 0,0.025 c 0.5,-0.2 1,-0.35 1.55,-0.45 0.2,-0.25 0.4,-0.3 0.55,-0.25 0,0.05 0,0.1 0,0.15 0.6,-0.1 1.25,-0.15 1.9,-0.1 0.7,0.05 1.45,0.15 2.2,0.3 0.15,0.05 0.3,0.05 0.45,0.1 z"
           inkscape:connector-curvature="0"
           style="fill:#c21d1a" />
        <path
           id="path1"
           d="m -2.8,-30.2 c -0.1,0.05 -0.6,0.4 -1.45,0.95 -0.9,0.55 -2.35,2.15 -4.35,4.8 -2,2.65 -3.3,6.85 -3.95,12.65 -0.65,5.8 -1.05,10.25 -1.25,13.35 -0.15,2.95 -0.55,5.05 -1.25,6.25 -0.75,1.15 -1.6,2.2 -2.6,3.15 -0.5,0.9 -1.1,1.95 -1.8,3.2 1.35,-1.2 2.75,-2.05 4.2,-2.55 l 0,-0.025 0,-0.025 c 0.5,-0.7 1.05,-1.4 1.6,-2.15 0.8,-1 1.4,-1.6 1.85,-1.8 0.4,-0.2 0.65,-0.3 0.75,-0.3 0.05,0 0.25,-0.05 0.7,-0.1 0.45,-0.1 0.8,0.2 1.1,0.9 0.05,-0.25 0.15,0 0.3,0.75 0.15,0.95 0.3,1.8 0.35,2.5 3.45,0.65 5.65,-0.3 6.55,-2.9 C -1.9,7.95 -1.7,7.5 -1.45,7.1 -1.35,6.35 -1.1,5.65 -0.7,5.05 -0.3,4.45 0,4.05 0.25,3.9 0.5,3.75 0.7,3.6 0.85,3.45 c 0.1,-0.05 0.2,-0.05 0.25,0 0.05,0 0.6,0.05 1.55,0.2 0.95,0.1 1.6,0.35 2,0.8 C 6.35,4.6 8.15,5.05 10,5.7 9.85,5.3 9.15,3.35 7.9,-0.15 6.7,-3.65 5.95,-8.1 5.65,-13.45 5.3,-18.85 5.1,-23.1 5,-26.25 c -0.05,-0.95 -0.25,-1.8 -0.5,-2.6 -1.2,0.85 -2.35,1.7 -3.4,2.5 -1.1,0.8 -1.95,0.75 -2.55,-0.1 -0.65,-0.85 -0.95,-1.65 -0.9,-2.4 0.05,-0.75 0,-1.15 -0.05,-1.3 0,-0.05 0,-0.05 -0.05,-0.05 -0.1,0 -0.2,0 -0.35,0 z m -10.35,41.1 c -0.15,-0.05 -0.35,0 -0.55,0.25 0.2,-0.05 0.4,-0.05 0.55,-0.1 0,-0.05 0,-0.1 0,-0.15 z"
           inkscape:connector-curvature="0"
           style="fill:#851611" />
        <path
           id="path8"
           d="m -18.975,14.225 -0.025,0 0,0.025 0.025,-0.025"
           inkscape:connector-curvature="0"
           style="fill:#851611" />
      </g>
      <animate
         attributeName="display"
         begin="0s"
         repeatCount="1"
         dur="3.917s"
         keyTimes="0;0.011;1"
         values="inline;none;none"
         id="animate136" />
    </g>
  </g>
</svg>
