<?xml version="1.0" encoding="UTF-8" standalone="no"?>
<!-- Generator: flash2svg, http://dissentgraphics.com/tools/flash2svg -->

<svg
   xmlns:dc="http://purl.org/dc/elements/1.1/"
   xmlns:cc="http://creativecommons.org/ns#"
   xmlns:rdf="http://www.w3.org/1999/02/22-rdf-syntax-ns#"
   xmlns:svg="http://www.w3.org/2000/svg"
   xmlns="http://www.w3.org/2000/svg"
   xmlns:sodipodi="http://sodipodi.sourceforge.net/DTD/sodipodi-0.dtd"
   xmlns:inkscape="http://www.inkscape.org/namespaces/inkscape"
   id="AvatarAssets"
   image-rendering="auto"
   version="1.1"
   x="0px"
   y="0px"
   width="13.308"
   height="7.3986568"
   viewBox="0 0 13.308 7.3986568"
   inkscape:version="0.48.4 r9939"
   sodipodi:docname="AvatarAssets_capeTieD006.svg">
  <metadata
     id="metadata4105">
    <rdf:RDF>
      <cc:Work
         rdf:about="">
        <dc:format>image/svg+xml</dc:format>
        <dc:type
           rdf:resource="http://purl.org/dc/dcmitype/StillImage" />
      </cc:Work>
    </rdf:RDF>
  </metadata>
  <sodipodi:namedview
     pagecolor="#ffffff"
     bordercolor="#666666"
     borderopacity="1"
     objecttolerance="10"
     gridtolerance="10"
     guidetolerance="10"
     inkscape:pageopacity="0"
     inkscape:pageshadow="2"
     inkscape:window-width="640"
     inkscape:window-height="480"
     id="namedview4103"
     showgrid="false"
     fit-margin-top="0"
     fit-margin-left="0"
     fit-margin-right="0"
     fit-margin-bottom="0"
     inkscape:zoom="1.9032258"
     inkscape:cx="36.507"
     inkscape:cy="-26.146184"
     inkscape:window-x="0"
     inkscape:window-y="0"
     inkscape:window-maximized="0"
     inkscape:current-layer="AvatarAssets" />
  <defs
     id="defs4080" />
  <g
     id="capeTieD7"
     overflow="visible"
     style="overflow:visible"
     transform="translate(4.507,32.699)">
    <g
       id="capeTieD006_0">
      <g
         id="element">
        <g
           id="drawingObject">
          <path
             id="path"
             d="m 4.951,-29.999 -0.05,-0.95 c 0,0 0.5,2 -1.1,1.4 q -3.6,-1 -4.85,-1.5 c -1.25,-0.5 -2,-1.65 -2,-1.65 l 0.55,0.65 -0.55,-0.65 -0.85,0.7 0.85,-0.7 c 0,0 -1.8,1.25 -1.4,1.65 0.4,0.45 2.35,0.95 4.5,1.7 2.15,0.75 3.4,0.55 4.15,0.9 0.75,0.35 0.95,0.55 0.95,0.55 0,0 0.3,-0.3 0.4,-1.05 0.1,-0.75 -0.15,-1.5 -0.15,-1.5 l 0.1,0.45 -0.1,-0.45 -0.5,-0.5"
             inkscape:connector-curvature="0"
             style="fill:#c21d1a" />
        </g>
        <g
           id="drawingObject1">
          <path
             id="path1"
             d="m 4.201,-28.449 q 0.75,0.35 0.95,0.55 c 0,0 0.3,-0.3 0.4,-1.05 0.05,-0.45 0,-0.85 -0.1,-1.15 l -0.15,0.25 -0.45,0.1 c -0.15,0.3 -0.45,0.4 -1.05,0.2 l -0.35,0.1 c -1.05,0.2 -3.8,-0.85 -3.8,-0.85 l 1.5,0.5 -1.5,-0.5 0.5,0.25 c 0.45,0.25 2,0.65 2,0.65 l -0.55,0 c -0.55,0 -2.35,-0.5 -4.5,-1.3 -0.95,-0.35 -1.3,-0.35 -1.3,-0.15 0.7,0.35 2.4,0.85 4.25,1.5 2.15,0.75 3.4,0.55 4.15,0.9 z"
             inkscape:connector-curvature="0"
             style="fill:#851611" />
        </g>
        <g
           id="drawingObject2">
          <path
             id="path2"
             d="m 8.801,-28.449 c 0,0 -0.1,0.2 -0.75,0.15 q -0.4,0.05 -1.25,-0.35 c -0.9,-0.45 -1.35,-0.4 -1.35,-0.1 0,0.3 0.15,1.45 1.6,1.4 1.4,0 1.75,-1.1 1.75,-1.1 z"
             inkscape:connector-curvature="0"
             style="fill:#c21d1a" />
        </g>
        <g
           id="drawingObject3">
          <path
             id="path3"
             d="m 8.801,-28.449 c 0,0 -0.1,0.2 -0.75,0.15 q -0.4,0.05 -1.25,-0.35 c -0.9,-0.45 -1.35,-0.4 -1.35,-0.1 0,0.3 0.15,1.45 1.6,1.4 1.4,0 1.75,-1.1 1.75,-1.1 z"
             inkscape:connector-curvature="0"
             style="fill:#c21d1a" />
        </g>
        <g
           id="drawingObject4">
          <path
             id="path4"
             d="m 4.901,-29.099 0.5,-0.3 c 0,0 -1,0.45 -1.2,0.95 -0.15,0.5 0.45,0.85 0.65,1.15 0.15,0.3 1.9,0.55 2.8,0.65 0.85,0.05 1.15,-0.8 1.15,-0.8 0,0 -1.9,-0.15 -2.3,-0.45 -0.15,-0.1 -0.05,-0.15 0.3,-0.1 0.05,0 0.15,0 0.25,0 -0.05,0 -0.4,-0.1 -0.75,-0.3 -0.55,-0.35 0.5,-0.5 0.5,-0.5 q -0.55,-0.15 -1.4,-0.6"
             inkscape:connector-curvature="0"
             style="fill:#851611" />
        </g>
        <g
           id="drawingObject5">
          <path
             id="path5"
             d="m 5.651,-29.199 c 0,0 -0.15,-1.2 -1,-0.7 q -0.3,0.15 -0.9,0.05 l -0.4,0.05 0.05,0.75 -0.05,0.45 1.15,0.8 c 0.6,0.45 1.15,0.45 1.15,-0.05 l 0,-1.35 z"
             inkscape:connector-curvature="0"
             style="fill:#c21d1a" />
        </g>
        <g
           id="drawingObject6">
          <path
             id="path6"
             d="m 4.501,-27.799 c 0.6,0.45 1.15,0.45 1.15,-0.05 l 0,-0.7 c -0.35,0.8 -1.1,0.25 -1.45,0.1 -0.35,-0.2 0.7,-0.25 0.7,-0.25 0,0 -0.6,-0.05 -1.1,-0.45 -0.3,-0.2 -0.35,-0.45 -0.35,-0.7 l -0.1,0.05 0.05,0.75 -0.05,0.45 1.15,0.8 z"
             inkscape:connector-curvature="0"
             style="fill:#851611" />
        </g>
        <g
           id="drawingObject7">
          <path
             id="path7"
             d="m 3.601,-25.599 c 1.35,-0.75 1.95,-2.5 0.85,-2.9 q -0.2,-0.15 -0.45,-0.15 -0.55,0 -1,0.7 c -0.7,1.1 -0.75,1.8 -1.05,2.05 l -0.3,0.25 c 0,0 0.55,0.75 1.95,0.05 z"
             inkscape:connector-curvature="0"
             style="fill:#c21d1a" />
        </g>
        <g
           id="drawingObject8">
          <path
             id="path8"
             d="m 4.751,-26.749 c 0.4,-0.65 0.35,-1.4 -0.15,-1.65 -0.3,0.15 -0.65,0.4 -0.85,0.7 q -0.65,0.85 -0.65,1.25 l 1.15,-1.1 -0.1,0.3 0.1,-0.3 c 0,0 -0.1,0.45 -0.65,1 l -0.55,0.55 c 0,0 0.85,-0.2 1.7,-0.75 z"
             inkscape:connector-curvature="0"
             style="fill:#851611" />
        </g>
      </g>
    </g>
  </g>
</svg>
