<?xml version="1.0" encoding="UTF-8" standalone="no"?>
<!-- Generator: flash2svg, http://dissentgraphics.com/tools/flash2svg -->

<svg
   xmlns:dc="http://purl.org/dc/elements/1.1/"
   xmlns:cc="http://creativecommons.org/ns#"
   xmlns:rdf="http://www.w3.org/1999/02/22-rdf-syntax-ns#"
   xmlns:svg="http://www.w3.org/2000/svg"
   xmlns="http://www.w3.org/2000/svg"
   xmlns:sodipodi="http://sodipodi.sourceforge.net/DTD/sodipodi-0.dtd"
   xmlns:inkscape="http://www.inkscape.org/namespaces/inkscape"
   id="AvatarAssets"
   image-rendering="auto"
   version="1.1"
   x="0px"
   y="0px"
   width="35.05909"
   height="50.656349"
   viewBox="0 0 35.05909 50.656349"
   inkscape:version="0.48.4 r9939"
   sodipodi:docname="AvatarAssets_coatOffsideC006.ANI-jumpOver_land.svg">
  <metadata
     id="metadata3447">
    <rdf:RDF>
      <cc:Work
         rdf:about="">
        <dc:format>image/svg+xml</dc:format>
        <dc:type
           rdf:resource="http://purl.org/dc/dcmitype/StillImage" />
      </cc:Work>
    </rdf:RDF>
  </metadata>
  <sodipodi:namedview
     pagecolor="#ffffff"
     bordercolor="#666666"
     borderopacity="1"
     objecttolerance="10"
     gridtolerance="10"
     guidetolerance="10"
     inkscape:pageopacity="0"
     inkscape:pageshadow="2"
     inkscape:window-width="640"
     inkscape:window-height="480"
     id="namedview3445"
     showgrid="false"
     fit-margin-top="0"
     fit-margin-left="0"
     fit-margin-right="0"
     fit-margin-bottom="0"
     inkscape:zoom="1.9032258"
     inkscape:cx="56.2"
     inkscape:cy="-42.55"
     inkscape:window-x="0"
     inkscape:window-y="0"
     inkscape:window-maximized="0"
     inkscape:current-layer="AvatarAssets" />
  <defs
     id="defs3411" />
  <g
     id="coatOffsideC7"
     overflow="visible"
     style="overflow:visible"
     transform="translate(24.2,31.206348)">
    <g
       id="coatOffsideC006_2_223">
      <g
         id="element4">
        <path
           id="path16"
           d="m 3.25,-30.75 -1,-0.4 c -1.65,-0.3 -2.75,0.6 -3.3,2.65 l -1.65,5.5 1.65,-5.5 c 0,0 -3.2,10 -3.75,13.9 -0.5,3.9 -6.1,14.45 -7.2,17.2 l -5.8,14.75 c 0,0 1.9,-1.95 4.65,-3.35 C -10.4,12.55 -7,13.1 -2.5,12.6 2,12.1 4.45,13.9 4.45,13.9 L 4,12.75 c -0.25,-0.7 0,-2.5 0.75,-5 0.75,-2.5 2.6,-8.6 3.5,-10.9 Q 9,-5 9.95,-8.8 q 1,-4 0.9,-4.95 C 10.7,-14.9 9.9,-17.65 8.45,-22 6.95,-26.35 5.85,-29 5.1,-29.85 L 4.95,-29.9 c -0.35,-0.25 -0.9,-0.5 -1.7,-0.85 z"
           inkscape:connector-curvature="0"
           style="fill:#5b0d11" />
      </g>
      <animate
         attributeName="display"
         begin="0s"
         repeatCount="1"
         dur="0.417s"
         keyTimes="0;0.799;1"
         values="none;inline;none"
         id="animate3417" />
    </g>
    <g
       id="coatOffsideC006_2_221">
      <g
         id="element3">
        <path
           id="path15"
           d="m 8.25,-2.95 c 0.5,-1.35 1.05,-3.3 1.7,-5.85 0.65,-2.65 0.95,-4.3 0.9,-4.95 C 10.7,-14.9 9.9,-17.65 8.45,-22 6.95,-26.35 5.85,-29 5.1,-29.85 L 4.95,-29.9 c -0.35,-0.25 -0.9,-0.5 -1.7,-0.85 l -1,-0.4 c -1.65,-0.3 -2.75,0.6 -3.3,2.65 L -2.7,-23 c -0.55,3.3 -1.05,5.95 -1.5,7.95 -0.45,2 -1.15,4.85 -2.15,8.6 -1.05,3.75 -2.9,10.05 -5.65,18.9 -1.15,3.8 -1.5,6.15 -1.05,7 1.35,-2.65 3.8,-4.05 7.25,-4.3 3.45,-0.25 7.5,0.65 12.15,2.65 L 5.75,12.75 C 5.6,10.4 5.85,7.5 6.5,4.15 7.15,0.75 7.7,-1.6 8.25,-2.95 z"
           inkscape:connector-curvature="0"
           style="fill:#5b0d11" />
      </g>
      <animate
         attributeName="display"
         begin="0s"
         repeatCount="1"
         dur="0.417s"
         keyTimes="0;0.6;0.799;1"
         values="none;inline;none;none"
         id="animate3422" />
    </g>
    <g
       id="coatOffsideC006_2_219">
      <g
         id="element2">
        <path
           id="path12"
           d="m 7.3,-5.1 c 2.1,-4.7 3,-8.3 2.75,-10.85 C 9.8,-18.5 9.1,-21.2 7.95,-24.15 6.8,-27.1 5.85,-29 5.1,-29.85 L 4.95,-29.9 c -0.35,-0.25 -0.9,-0.5 -1.7,-0.85 l -1,-0.4 c -1.65,-0.3 -2.75,0.6 -3.3,2.65 L -2.7,-23 c -0.4,3.5 -0.9,6.45 -1.55,8.9 -0.65,2.4 -1.25,4.95 -1.9,7.7 -0.5,2.05 -1.2,3.5 -2.1,4.45 0,0.3 -0.1,0.65 -0.25,1.05 -0.2,0.55 -0.4,1.1 -0.6,1.65 -0.8,2.15 -1.9,4.15 -3.35,6 C -10.8,5.9 -9.1,4.7 -7.25,3.05 -6.8,3.1 -5.95,3.3 -4.6,3.65 -3.25,3.95 -1.5,3.75 0.75,3 3,2.25 5.15,-0.45 7.3,-5.1 z"
           inkscape:connector-curvature="0"
           style="fill:#5b0d11" />
        <path
           id="path13"
           d="m -9.3,-1.2 c -0.45,-0.25 -0.85,-0.4 -1.3,-0.55 -0.15,1.95 -1.45,3.15 -3.85,3.6 -1.55,0.3 -3.1,0.45 -4.65,0.5 -0.75,1.2 -1.5,2.65 -2.25,4.35 2.15,1.65 4.75,1.85 7.75,0.6 0.35,-0.15 0.75,-0.35 1.15,-0.55 1.45,-1.85 2.55,-3.85 3.35,-6 0.2,-0.55 0.4,-1.1 0.6,-1.65 0.15,-0.4 0.25,-0.75 0.25,-1.05 l -0.025,-0.025 0,-0.025 0.025,0 c -0.15,0.15 -0.35,0.3 -0.5,0.45 l -0.025,0 -0.525,0.35 z"
           inkscape:connector-curvature="0"
           style="fill:#721016" />
        <path
           id="path14"
           d="m -19.1,2.35 c 1.55,-0.05 3.1,-0.2 4.65,-0.5 2.4,-0.45 3.7,-1.65 3.85,-3.6 -3.1,-1.05 -5.85,0.25 -8.3,3.85 -0.05,0.05 -0.15,0.15 -0.2,0.25 z"
           inkscape:connector-curvature="0"
           style="fill:#8a131b" />
      </g>
      <animate
         attributeName="display"
         begin="0s"
         repeatCount="1"
         dur="0.417s"
         keyTimes="0;0.4;0.6;1"
         values="none;inline;none;none"
         id="animate3429" />
    </g>
    <g
       id="coatOffsideC006_2_217">
      <g
         id="element1">
        <path
           id="path5"
           d="m 6.4,-7.6 c 2.55,-3.6 3.75,-6.5 3.55,-8.75 -0.2,-2.25 -0.85,-4.85 -2,-7.8 C 6.8,-27.1 5.85,-29 5.1,-29.85 L 4.95,-29.9 c -0.35,-0.25 -0.9,-0.5 -1.7,-0.85 l -1,-0.4 c -1.65,-0.3 -2.75,0.6 -3.3,2.65 L -2.7,-23 c -0.9,3.05 -1.5,5.15 -1.85,6.3 -0.35,1.15 -0.9,3.05 -1.7,5.8 -0.55,1.9 -1.1,3.15 -1.6,3.8 0.05,0.05 0.1,0.1 0.2,0.15 0.05,0 0.05,0 0.05,0.05 -0.1,0.45 -0.3,0.95 -0.55,1.4 -0.3,0.45 -0.65,0.85 -1,1.3 -0.05,0.05 -0.05,0.05 -0.05,0.1 -0.25,1.05 -0.8,2 -1.6,2.9 -0.05,0.05 -0.05,0.1 -0.1,0.15 2.3,-1.7 4.35,-2.4 6.2,-2.1 4.8,0.6 8.5,-0.9 11.1,-4.45 z m -19.8,8.2 c -0.05,0.05 -0.15,0.1 -0.25,0.2 0.15,-0.05 0.3,-0.15 0.45,-0.25 -0.05,0.05 -0.15,0.05 -0.2,0.05 z"
           inkscape:connector-curvature="0"
           style="fill:#5b0d11" />
        <path
           id="path6"
           d="m -10.95,-17.55 c -0.1,0.95 -0.25,1.8 -0.4,2.6 l -0.2,1.075 0,0.025 c -0.05,0.05 -0.05,0.15 -0.05,0.3 0.05,0.7 0.1,1.4 0.2,2.05 0.2,1.1 0.65,1.8 1.4,2.15 0,-0.05 0,-0.15 -0.05,-0.2 l -0.15,-0.8 c -0.35,-1.75 -0.6,-4.15 -0.75,-7.2 z m -7.1,0.9 c -0.55,-0.15 -1.25,1.25 -2.1,4.15 -0.05,0.05 -0.05,0.15 -0.05,0.25 0.75,1.65 2,3 3.75,4 0.3,0.2 0.5,0.15 0.6,-0.15 0.25,-0.6 0.4,-1.2 0.5,-1.8 -0.15,-0.35 -0.25,-0.8 -0.3,-1.25 l -0.025,0 -0.025,-0.125 0,0.025 c -0.65,-3.2 -1.45,-4.9 -2.35,-5.1 z"
           inkscape:connector-curvature="0"
           style="fill:#8a131b" />
        <path
           id="path9"
           d="m -10.9,-1.05 c 0.05,-0.05 0.05,-0.1 0.1,-0.15 0.8,-0.9 1.35,-1.85 1.6,-2.9 0,-0.05 0,-0.05 0.05,-0.1 0.35,-0.45 0.7,-0.85 1,-1.3 0.25,-0.45 0.45,-0.95 0.55,-1.4 0,-0.05 0,-0.05 -0.05,-0.05 -0.1,-0.05 -0.15,-0.1 -0.2,-0.15 -0.25,0.25 -0.45,0.35 -0.65,0.4 -0.05,0 -0.15,0 -0.2,-0.05 -0.5,-0.2 -0.95,-1.05 -1.3,-2.6 -0.75,-0.35 -1.2,-1.05 -1.4,-2.15 -0.1,-0.65 -0.15,-1.35 -0.2,-2.05 -0.45,1.75 -0.95,3.15 -1.55,4.25 -0.85,1.55 -1.6,1.25 -2.2,-0.9 -0.1,0.6 -0.25,1.2 -0.5,1.8 -0.1,0.3 -0.3,0.35 -0.6,0.15 -1.75,-1 -3,-2.35 -3.75,-4 0,-0.1 0,-0.2 0.05,-0.25 -0.55,1.85 -1.2,4.35 -1.9,7.5 -0.1,1.65 0.95,3.35 3.1,5.1 1.4,1.15 2.9,1.5 4.55,1 l 0,-0.025 0.175,-0.05 0.025,0.025 c 0.15,-0.1 0.35,-0.2 0.55,-0.25 l -0.025,0 0.025,-0.025 0,0.025 c 0.1,-0.1 0.2,-0.15 0.25,-0.2 0.05,0 0.15,0 0.2,-0.05 0.45,-0.25 0.95,-0.6 1.45,-0.95 0.25,-0.25 0.55,-0.45 0.85,-0.65 z"
           inkscape:connector-curvature="0"
           style="fill:#721016" />
      </g>
      <animate
         attributeName="display"
         begin="0s"
         repeatCount="1"
         dur="0.417s"
         keyTimes="0;0.2;0.4;1"
         values="none;inline;none;none"
         id="animate3436" />
    </g>
    <g
       id="coatOffsideC006_2_215">
      <g
         id="element">
        <path
           id="path"
           d="M 5.95,-13.45 C 7.6,-15.25 8.45,-16.8 8.6,-18.1 8.7,-19.4 8.35,-21.45 7.5,-24.3 6.65,-27.15 5.85,-29 5.1,-29.85 L 4.95,-29.9 c -0.35,-0.25 -0.9,-0.5 -1.7,-0.85 l -1,-0.4 c -1.65,-0.3 -2.75,0.6 -3.3,2.65 L -2.7,-23 c -0.75,2.6 -1.6,4.55 -2.55,5.8 -0.25,2.55 -1.25,4.95 -2.95,7.2 -1.25,1.65 -2.7,3.05 -4.3,4.2 2.3,-0.25 4.35,-1.05 6.2,-2.35 2.55,-1.85 4,-2.95 4.35,-3.2 3.9,0.2 6.45,-0.5 7.9,-2.1 z"
           inkscape:connector-curvature="0"
           style="fill:#5b0d11" />
        <path
           id="path1"
           d="m -22.05,-17.1 c -0.15,-0.5 -0.3,-1 -0.35,-1.5 -0.55,1.15 -1.15,2.65 -1.8,4.5 2.4,5.25 5.35,8.05 8.85,8.3 0.65,0.05 1.35,0.1 2,0.05 l 0,-0.025 -0.025,0.025 0.025,0 c 0.25,0 0.55,0 0.8,-0.05 l 0.025,-0.025 0.025,0.025 c 1.6,-1.15 3.05,-2.55 4.3,-4.2 1.7,-2.25 2.7,-4.65 2.95,-7.2 -0.15,0.15 -0.25,0.3 -0.35,0.45 l -0.025,-0.025 -0.125,0.125 -0.05,0 c -0.85,-0.1 -1.95,-1.1 -3.35,-3.15 0.1,0.15 0.2,0.35 0.35,0.5 -1.05,-0.15 -1.95,-0.85 -2.8,-2 -0.35,-0.55 -0.6,-1.1 -0.7,-1.7 -0.05,-0.25 -0.05,-0.55 -0.1,-0.85 0.3,3.8 -0.15,5.75 -1.35,6.35 -0.95,0.45 -1.7,0.45 -2.35,-0.05 0.45,0.8 0.85,1.65 1.25,2.5 0.65,1.5 1.8,2.3 3.45,2.4 0.1,0.95 -0.5,1.45 -1.75,1.5 -4.55,0.05 -7.5,-1.9 -8.9,-5.95 z"
           inkscape:connector-curvature="0"
           style="fill:#721016" />
        <path
           id="path2"
           d="m -22.4,-18.6 c 0.05,0.5 0.2,1 0.35,1.5 1.4,4.05 4.35,6 8.9,5.95 1.25,-0.05 1.85,-0.55 1.75,-1.5 -1.65,-0.1 -2.8,-0.9 -3.45,-2.4 -0.4,-0.85 -0.8,-1.7 -1.25,-2.5 -0.35,-0.3 -0.65,-0.75 -0.9,-1.3 -0.1,-0.25 -0.2,-0.45 -0.3,-0.65 -0.65,-1.25 -1.5,-1.95 -2.5,-2.1 -0.65,-0.1 -1.35,0.6 -2.15,2.15 -0.15,0.25 -0.3,0.55 -0.45,0.85 z m 13.6,-0.7 c -0.15,-0.15 -0.25,-0.35 -0.35,-0.5 -0.95,-1.45 -2.15,-3.55 -3.5,-6.25 0.15,0.9 0.25,1.7 0.25,2.2 l 0,-0.025 0,0.025 c 0.05,0.3 0.05,0.6 0.1,0.85 0.1,0.6 0.35,1.15 0.7,1.7 0.85,1.15 1.75,1.85 2.8,2 z"
           inkscape:connector-curvature="0"
           style="fill:#8a131b" />
      </g>
      <animate
         attributeName="display"
         begin="0s"
         repeatCount="1"
         dur="0.417s"
         keyTimes="0;0.1;1"
         values="inline;none;none"
         id="animate3443" />
    </g>
  </g>
</svg>
