<?xml version="1.0" encoding="UTF-8" standalone="no"?>
<!-- Generator: flash2svg, http://dissentgraphics.com/tools/flash2svg -->

<svg
   xmlns:dc="http://purl.org/dc/elements/1.1/"
   xmlns:cc="http://creativecommons.org/ns#"
   xmlns:rdf="http://www.w3.org/1999/02/22-rdf-syntax-ns#"
   xmlns:svg="http://www.w3.org/2000/svg"
   xmlns="http://www.w3.org/2000/svg"
   xmlns:sodipodi="http://sodipodi.sourceforge.net/DTD/sodipodi-0.dtd"
   xmlns:inkscape="http://www.inkscape.org/namespaces/inkscape"
   id="AvatarAssets"
   image-rendering="auto"
   version="1.1"
   x="0px"
   y="0px"
   width="39.700001"
   height="48.349998"
   viewBox="0 0 39.700001 48.349998"
   inkscape:version="0.48.4 r9939"
   sodipodi:docname="AvatarAssets_capeD006.ANI-jumpUp_lift.svg">
  <metadata
     id="metadata3889">
    <rdf:RDF>
      <cc:Work
         rdf:about="">
        <dc:format>image/svg+xml</dc:format>
        <dc:type
           rdf:resource="http://purl.org/dc/dcmitype/StillImage" />
      </cc:Work>
    </rdf:RDF>
  </metadata>
  <sodipodi:namedview
     pagecolor="#ffffff"
     bordercolor="#666666"
     borderopacity="1"
     objecttolerance="10"
     gridtolerance="10"
     guidetolerance="10"
     inkscape:pageopacity="0"
     inkscape:pageshadow="2"
     inkscape:window-width="640"
     inkscape:window-height="480"
     id="namedview3887"
     showgrid="false"
     fit-margin-top="0"
     fit-margin-left="0"
     fit-margin-right="0"
     fit-margin-bottom="0"
     inkscape:zoom="1.9032258"
     inkscape:cx="61.7"
     inkscape:cy="-47.75"
     inkscape:window-x="0"
     inkscape:window-y="0"
     inkscape:window-maximized="0"
     inkscape:current-layer="AvatarAssets" />
  <defs
     id="defs3840" />
  <g
     id="capeD7"
     overflow="visible"
     style="overflow:visible"
     transform="translate(29.7,34.1)">
    <g
       id="capeD006_1_169">
      <g
         id="element6">
        <path
           id="path53"
           d="m -0.4,-33.75 c -0.05,-0.05 -0.1,-0.05 -0.15,-0.1 -0.15,-0.05 -0.35,-0.1 -0.5,-0.2 -0.05,0 -0.15,-0.05 -0.25,-0.05 -0.4,0.05 -0.85,0.2 -1.25,0.4 -0.1,-0.05 -0.2,-0.1 -0.25,-0.05 -0.4,0.3 -2.35,1.55 -5.6,3.85 -3.3,2.25 -6,5.65 -8.15,10.05 -2.15,4.35 -3.55,7.3 -4.15,9 -0.35,0.45 -0.95,2.1 -1.75,4.8 -0.05,0.45 -0.1,1.2 -0.25,2.25 -0.2,1 -0.45,2.25 -0.85,3.95 -0.15,0.5 -0.25,1 -0.45,1.4 -0.35,1 -0.9,1.9 -1.55,2.65 -0.45,0.4 -1,1 -1.65,1.7 1.2,-0.75 2.25,-1.5 3.3,-2.5 0.9,-1 1.8,-2.95 2.6,-5.75 0.9,-3.05 2.35,-7.25 4.25,-12.75 2,-5.5 4.25,-9.3 6.7,-11.4 2.6,-2.2 4.35,-3.4 5.35,-3.7 1,-0.35 1.55,-0.6 1.65,-0.6 0.15,0 0.25,0 0.35,0.05 0.05,0 0.05,0 0.05,0.05 0.05,0.15 -0.05,0.55 -0.25,1.3 -0.25,0.75 -0.1,1.55 0.3,2.55 0.4,0.95 1.2,1.2 2.5,0.65 1.15,-0.55 2.5,-1.05 3.9,-1.6 C 3.45,-28.1 3.35,-28.3 3.35,-28.55 3.3,-28.7 3.3,-28.8 3.25,-28.9 q -0.6,-2.45 -2.75,-4.55 c -0.3,-0.15 -0.6,-0.25 -0.9,-0.3 z m -6.15,37.8 c 0.25,-0.05 0.45,0 0.7,0.05 0.6,0.15 1.25,0.35 1.9,0.55 C -4.3,4.15 -4.85,3.75 -5.8,3.4 -6.6,3 -7.15,2.9 -7.2,2.85 -7.25,2.8 -7.35,2.75 -7.45,2.8 -7.65,2.9 -7.85,3 -8.2,3.1 c -0.25,0.1 -0.6,0.45 -1.15,0.95 -0.5,0.4 -0.95,1.05 -1.15,1.75 0,-0.05 0.05,-0.15 0.1,-0.2 L -7.45,4.05 C -7.4,4 -7.3,4.05 -7.25,4 -7.1,4 -7,4 -6.8,4 -6.7,3.95 -6.65,3.95 -6.55,4.05 z M -19.2,3.9 c -0.45,-0.1 -0.7,-0.05 -0.75,-0.05 -0.05,-0.05 -0.35,0 -0.8,0.1 -0.45,0.1 -1.2,0.6 -2.2,1.3 -0.65,0.6 -1.35,1.2 -2.05,1.8 l 0,0.05 c 0.55,-0.15 1.05,-0.15 1.65,-0.1 0.2,-0.2 0.45,-0.25 0.55,-0.1 0,0.05 0,0.1 0,0.15 0.55,0 1.2,0.1 1.85,0.3 0.7,0.2 1.4,0.5 2.05,0.8 0.15,0.1 0.3,0.1 0.45,0.2 0.1,-0.75 0.15,-1.6 0.2,-2.55 0.05,-0.75 0,-1 -0.05,-0.8 -0.15,-0.75 -0.4,-1.1 -0.9,-1.1 z"
           inkscape:connector-curvature="0"
           style="fill:#c21d1a" />
        <path
           id="path54"
           d="m -0.4,-26.2 c -1.3,0.55 -2.1,0.3 -2.5,-0.65 -0.4,-1 -0.55,-1.8 -0.3,-2.55 0.2,-0.75 0.3,-1.15 0.25,-1.3 0,-0.05 0,-0.05 -0.05,-0.05 -0.1,-0.05 -0.2,-0.05 -0.35,-0.05 -0.1,0 -0.65,0.25 -1.65,0.6 -1,0.3 -2.75,1.5 -5.35,3.7 -2.45,2.1 -4.7,5.9 -6.7,11.4 -1.9,5.5 -3.35,9.7 -4.25,12.75 -0.8,2.8 -1.7,4.75 -2.6,5.75 -1.05,1 -2.1,1.75 -3.3,2.5 -0.7,0.75 -1.5,1.65 -2.5,2.7 1.65,-0.85 3.2,-1.35 4.7,-1.5 l 0,-0.05 c 0.7,-0.6 1.4,-1.2 2.05,-1.8 1,-0.7 1.75,-1.2 2.2,-1.3 0.45,-0.1 0.75,-0.15 0.8,-0.1 0.05,0 0.3,-0.05 0.75,0.05 0.5,0 0.75,0.35 0.9,1.1 0.05,-0.2 0.1,0.05 0.05,0.8 -0.05,0.95 -0.1,1.8 -0.2,2.55 3.2,1.45 5.55,1 7,-1.35 0.3,-0.4 0.55,-0.85 0.9,-1.2 l 0.05,0.05 0,-0.05 C -10.3,5.1 -9.85,4.45 -9.35,4.05 -8.8,3.55 -8.45,3.2 -8.2,3.1 -7.85,3 -7.65,2.9 -7.45,2.8 c 0.1,-0.05 0.2,0 0.25,0.05 0.05,0.05 0.6,0.15 1.4,0.55 0.95,0.35 1.5,0.75 1.85,1.25 C -2.4,5.2 -0.7,6.05 0.9,7.1 0.9,6.65 0.65,4.6 0.25,0.9 c -0.4,-3.7 -0.1,-8.25 0.8,-13.45 0.95,-5.35 1.7,-9.55 2.3,-12.65 0.2,-0.95 0.2,-1.8 0.15,-2.6 -1.4,0.55 -2.75,1.05 -3.9,1.6 z M -22.8,6.9 c -0.1,-0.15 -0.35,-0.1 -0.55,0.1 0.2,0 0.4,0 0.55,0.05 0,-0.05 0,-0.1 0,-0.15 z"
           inkscape:connector-curvature="0"
           style="fill:#851611" />
      </g>
      <animate
         attributeName="display"
         begin="0s"
         repeatCount="1"
         dur="0.542s"
         keyTimes="0;0.846;0.999;1"
         values="none;inline;none;none"
         id="animate3847" />
    </g>
    <g
       id="capeD006_1_167">
      <g
         id="element5">
        <path
           id="path44"
           d="m -10,-25.75 q 2.5,-4.05 6.7,-5.05 c -0.05,0.05 -0.05,0.15 -0.05,0.2 0.1,0.2 0.1,0.4 0.05,0.55 -0.05,0.15 0,0.25 0.15,0.35 0,0.2 0,0.4 0.05,0.65 0,0.65 0.2,1.25 0.65,1.8 1.45,2.05 3.15,2.1 5.1,0.25 0.35,-0.35 0.7,-0.7 1,-1.05 -0.05,-0.3 -0.1,-0.55 -0.15,-0.8 -0.3,-1.4 -0.65,-2.35 -1,-2.8 -0.75,-1 -1.6,-1.6 -2.45,-1.8 -0.9,-0.25 -1.4,-0.4 -1.45,-0.45 -3.1,1.05 -5.75,2.85 -7.9,5.3 -2.85,3.15 -5.2,6.55 -7.05,10.3 -2.9,5.75 -4.75,12 -5.5,18.65 -0.1,0.45 -0.2,0.9 -0.25,1.35 -0.35,2.15 -0.6,4.3 -0.8,6.35 -0.05,0.75 0,1.35 0.15,1.9 0.1,0.45 0.3,0.8 0.55,1.1 0,-0.1 0,-0.2 0.05,-0.3 0,-0.05 0,-0.1 0,-0.15 l 0,-0.05 C -22.2,8 -22,5.45 -21.55,2.9 c 0.25,-1.35 0.45,-2.7 0.7,-4 1.15,-7.3 3.75,-13.95 7.8,-19.9 1.1,-1.55 2.1,-3.1 3.05,-4.75 z m 9.55,29.3 C -0.8,2.5 -1.45,1.85 -2.4,1.5 -3.7,1.95 -4.65,3.1 -5.25,4.95 -5.9,6.75 -6.95,8.3 -8.4,9.55 -7.75,9.2 -7.15,8.75 -6.65,8.3 -6.35,8.05 -6.05,7.75 -5.8,7.5 -5.55,7.2 -5.35,6.95 -5.1,6.7 -4.7,6.25 -4.2,5.95 -3.55,5.85 -2.8,5.75 -2.15,5.8 -1.7,6.05 -1.35,6.1 -0.95,6.5 -0.4,7.2 -0.1,5.75 -0.1,4.5 -0.45,3.55 z m -17,-1.05 c -0.45,0.15 -1.05,0.95 -1.8,2.35 -0.7,1.45 -1.2,2.75 -1.55,3.9 0.05,-0.1 0.15,-0.2 0.2,-0.3 l 0.2,-0.15 c 0.3,-0.35 0.6,-0.6 0.9,-0.85 0.7,-0.5 1.35,-0.65 2,-0.4 1.25,1.55 2.25,2.6 3,3.15 0.15,0.15 0.3,0.3 0.45,0.4 l 0.05,0 c 0.1,0.05 0.2,0.05 0.35,0.1 l 0.7,0.25 c 0.15,0 0.35,0 0.5,0 -0.35,-0.1 -0.65,-0.2 -0.9,-0.25 -0.05,-0.15 -0.35,-0.55 -0.8,-1.3 -0.45,-0.75 -0.65,-1.9 -0.6,-3.5 0.05,-1.55 -0.15,-2.55 -0.5,-3 -0.4,-0.45 -0.65,-0.7 -0.7,-0.7 -0.15,-0.05 -0.25,-0.05 -0.4,-0.05 -0.15,0.05 -0.55,0.15 -1.1,0.35 z"
           inkscape:connector-curvature="0"
           style="fill:#c21d1a" />
        <path
           id="path45"
           d="m -3.3,-30.8 q -4.2,1 -6.7,5.05 c -0.95,1.65 -1.95,3.2 -3.05,4.75 -4.05,5.95 -6.65,12.6 -7.8,19.9 -0.25,1.3 -0.45,2.65 -0.7,4 -0.45,2.55 -0.65,5.1 -0.6,7.65 l 0,0.05 c 0,0.05 0,0.1 0,0.15 0.05,-0.2 0.05,-0.4 0.05,-0.55 0.05,-0.05 0.1,-0.15 0.2,-0.2 l 0,-0.05 c 0.35,-0.35 0.75,-0.75 1.1,-1.2 0.35,-1.15 0.85,-2.45 1.55,-3.9 0.75,-1.4 1.35,-2.2 1.8,-2.35 0.55,-0.2 0.95,-0.3 1.1,-0.35 0.15,0 0.25,0 0.4,0.05 0.05,0 0.3,0.25 0.7,0.7 0.35,0.45 0.55,1.45 0.5,3 -0.05,1.6 0.15,2.75 0.6,3.5 0.45,0.75 0.75,1.15 0.8,1.3 0.25,0.05 0.55,0.15 0.9,0.25 0.35,-0.05 0.75,-0.1 1.15,-0.2 1.05,-0.25 2.05,-0.65 2.9,-1.2 1.45,-1.25 2.5,-2.8 3.15,-4.6 0.6,-1.85 1.55,-3 2.85,-3.45 0.95,0.35 1.6,1 1.95,2.05 0.35,0.95 0.35,2.2 0.05,3.65 0.05,0 0.05,0.45 0.05,1.4 C -0.4,8.65 -0.4,8.65 -0.4,8.7 l 0.05,-0.05 c 0,0.1 0,0.2 -0.05,0.3 C -0.35,9 -0.3,9 -0.25,8.95 0,8.5 0.15,8.1 0.2,7.65 1.05,5.8 1.65,3.95 2,2.05 2.45,-0.2 3.1,-3.45 3.85,-7.7 c 0.75,-4.3 0.9,-9.1 0.5,-14.35 -0.2,-2.45 -0.45,-4.45 -0.7,-6 -0.3,0.35 -0.65,0.7 -1,1.05 -1.95,1.85 -3.65,1.8 -5.1,-0.25 -0.45,-0.55 -0.65,-1.15 -0.65,-1.8 -0.05,-0.25 -0.05,-0.45 -0.05,-0.65 -0.15,-0.1 -0.2,-0.2 -0.15,-0.35 0.05,-0.15 0.05,-0.35 -0.05,-0.55 0,-0.05 0,-0.15 0.05,-0.2 z M -22.05,9.65 c 0,-0.25 0,-0.5 0.05,-0.75 0,0.15 0,0.35 0,0.5 -0.05,0.05 -0.05,0.15 -0.05,0.25 z"
           inkscape:connector-curvature="0"
           style="fill:#851611" />
      </g>
      <animate
         attributeName="display"
         begin="0s"
         repeatCount="1"
         dur="0.542s"
         keyTimes="0;0.692;0.846;1"
         values="none;inline;none;none"
         id="animate3853" />
    </g>
    <g
       id="capeD006_1_165">
      <g
         id="element4">
        <path
           id="path36"
           d="m -0.5,-33.75 c -0.05,-0.05 -0.1,-0.05 -0.15,-0.05 -0.15,-0.05 -0.35,-0.05 -0.5,-0.2 -0.05,0 -0.15,0 -0.25,0 -0.45,0.1 -0.9,0.3 -1.25,0.5 -0.1,0 -0.2,-0.05 -0.25,0 -0.4,0.35 -2.2,1.85 -5.15,4.4 -3.1,2.65 -5.4,6.25 -7.05,10.9 -1.7,4.45 -2.75,7.65 -3.15,9.35 -0.35,0.5 -0.75,2.2 -1.3,5 0.05,0.45 0.05,1.2 0,2.25 -0.1,1 -0.2,2.3 -0.4,4 -0.1,0.5 -0.15,1 -0.3,1.45 -0.25,1.1 -0.7,1.95 -1.25,2.8 -0.45,0.45 -0.95,1.15 -1.5,1.85 1.1,-0.85 2.05,-1.8 3,-2.8 0.85,-1.15 1.5,-3.15 2,-6.05 0.6,-3.1 1.55,-7.45 2.9,-13.15 1.35,-5.6 3.1,-9.65 5.45,-12 2.3,-2.45 3.95,-3.85 4.95,-4.3 0.9,-0.35 1.45,-0.7 1.55,-0.75 0.15,0 0.25,0.1 0.35,0.1 0.05,0 0.05,0 0.05,0.05 0.05,0.15 0,0.55 -0.15,1.3 -0.1,0.75 0.05,1.55 0.6,2.5 0.5,0.9 1.35,1.05 2.55,0.4 q 1.75,-1 3.7,-2.05 C 3.9,-28.5 3.8,-28.7 3.75,-29 c 0,-0.1 -0.05,-0.2 -0.1,-0.3 -0.55,-1.6 -1.7,-3 -3.25,-4.3 -0.3,-0.05 -0.6,-0.1 -0.9,-0.15 z m -3.1,38.3 c 0.05,-0.05 0.15,0.05 0.2,0 0.15,-0.05 0.25,-0.05 0.45,-0.1 0.1,-0.05 0.2,-0.05 0.3,0 0.25,0 0.45,0 0.7,0.05 0.6,0.05 1.2,0.2 1.85,0.35 C -0.4,4.3 -1.05,4 -2,3.75 -2.85,3.5 -3.4,3.35 -3.45,3.35 -3.5,3.3 -3.6,3.3 -3.7,3.35 -3.9,3.5 -4.15,3.65 -4.4,3.7 -4.65,3.85 -5,4.25 -5.45,4.75 c -0.5,0.6 -0.85,1.2 -1,1.95 0.05,-0.1 0.05,-0.2 0.1,-0.25 L -3.6,4.55 z M -16,5.7 c -0.1,-0.05 -0.4,0.05 -0.8,0.2 -0.4,0.15 -1.1,0.65 -2,1.55 -0.65,0.7 -1.3,1.35 -1.9,1.95 l 0,0.05 c 0.5,-0.1 1.05,-0.25 1.65,-0.25 0.2,-0.25 0.4,-0.25 0.55,-0.15 0,0.05 0,0.1 0,0.15 0.6,-0.05 1.25,0 1.85,0.1 0.65,0.15 1.35,0.35 2.05,0.55 0.15,0.1 0.3,0.15 0.45,0.2 0.05,-0.7 0,-1.55 0,-2.55 -0.05,-0.75 -0.15,-1 -0.2,-0.8 -0.25,-0.7 -0.55,-1.05 -1,-1 -0.45,0 -0.6,0 -0.65,0 z"
           inkscape:connector-curvature="0"
           style="fill:#c21d1a" />
        <path
           id="path37"
           d="m -2.3,-26.6 c -0.55,-0.95 -0.7,-1.75 -0.6,-2.5 0.15,-0.75 0.2,-1.15 0.15,-1.3 0,-0.05 0,-0.05 -0.05,-0.05 -0.1,0 -0.2,-0.1 -0.35,-0.1 -0.1,0.05 -0.65,0.4 -1.55,0.75 -1,0.45 -2.65,1.85 -4.95,4.3 -2.35,2.35 -4.1,6.4 -5.45,12 -1.35,5.7 -2.3,10.05 -2.9,13.15 -0.5,2.9 -1.15,4.9 -2,6.05 -0.95,1 -1.9,1.95 -3,2.8 -0.6,0.8 -1.35,1.8 -2.2,2.95 1.5,-1.1 3,-1.75 4.5,-2 l 0,-0.05 c 0.6,-0.6 1.25,-1.25 1.9,-1.95 0.9,-0.9 1.6,-1.4 2,-1.55 0.4,-0.15 0.7,-0.25 0.8,-0.2 0.05,0 0.2,0 0.65,0 0.45,-0.05 0.75,0.3 1,1 0.05,-0.2 0.15,0.05 0.2,0.8 0,1 0.05,1.85 0,2.55 3.4,1 5.7,0.4 6.9,-2.1 0.25,-0.5 0.45,-0.85 0.8,-1.25 0.15,-0.75 0.5,-1.35 1,-1.95 0.45,-0.5 0.8,-0.9 1.05,-1.05 0.25,-0.05 0.5,-0.2 0.7,-0.35 0.1,-0.05 0.2,-0.05 0.25,0 0.05,0 0.6,0.15 1.45,0.4 C -1.05,4 -0.4,4.3 -0.1,4.85 1.6,5.2 3.35,5.9 5.1,6.75 5,6.35 4.55,4.3 3.75,0.65 3,-2.95 2.8,-7.5 3.2,-12.85 c 0.3,-5.35 0.65,-9.6 0.95,-12.8 0.05,-0.95 -0.05,-1.8 -0.2,-2.6 Q 2,-27.2 0.25,-26.2 c -1.2,0.65 -2.05,0.5 -2.55,-0.4 z M -18.5,9.05 c -0.15,-0.1 -0.35,-0.1 -0.55,0.15 0.2,-0.05 0.4,0 0.55,0 0,-0.05 0,-0.1 0,-0.15 z"
           inkscape:connector-curvature="0"
           style="fill:#851611" />
      </g>
      <animate
         attributeName="display"
         begin="0s"
         repeatCount="1"
         dur="0.542s"
         keyTimes="0;0.538;0.692;1"
         values="none;inline;none;none"
         id="animate3859" />
    </g>
    <g
       id="capeD006_1_163">
      <g
         id="element3">
        <path
           id="path27"
           d="m -9.25,-25 q 2.05,-4.25 6.15,-5.6 c 0,0.05 0,0.15 0,0.2 0.1,0.2 0.15,0.4 0.1,0.55 -0.05,0.15 0.05,0.25 0.2,0.35 0.05,0.2 0.05,0.4 0.05,0.6 0.1,0.7 0.35,1.3 0.8,1.75 1.65,1.9 3.35,1.85 5.15,-0.15 0.3,-0.4 0.6,-0.75 0.85,-1.1 C 4,-28.75 3.95,-29 3.85,-29.25 3.45,-30.6 3.05,-31.45 2.6,-31.9 1.75,-32.8 0.9,-33.35 0,-33.55 c -0.9,-0.2 -1.4,-0.3 -1.45,-0.3 -2.95,1.35 -5.45,3.35 -7.4,6 -2.55,3.35 -4.6,7 -6.15,10.85 -2.4,6.05 -3.7,12.4 -3.85,19.1 -0.1,0.45 -0.15,0.9 -0.2,1.35 -0.15,2.2 -0.2,4.35 -0.2,6.4 0.05,0.75 0.15,1.35 0.3,1.85 0.15,0.45 0.4,0.75 0.65,1 0,-0.1 0,-0.2 0.05,-0.3 l 0,-0.2 c -0.25,-2.5 -0.3,-5.05 -0.1,-7.65 0.15,-1.35 0.25,-2.7 0.35,-4 0.55,-7.35 2.55,-14.2 6.1,-20.55 0.9,-1.65 1.8,-3.3 2.65,-5 z M 2.7,3.4 C 2.3,2.35 1.6,1.75 0.6,1.55 -0.6,2.1 -1.45,3.35 -1.9,5.2 -2.35,7.05 -3.25,8.7 -4.6,10.1 -4.05,9.65 -3.5,9.2 -2.95,8.7 -2.7,8.4 -2.5,8.1 -2.25,7.8 -2,7.55 -1.8,7.25 -1.55,6.95 -1.2,6.45 -0.75,6.1 -0.15,5.95 0.6,5.8 1.2,5.75 1.75,5.9 2.05,6.05 2.5,6.4 3.15,7.05 3.3,5.55 3.15,4.35 2.7,3.4 z M -8.5,11.8 C -8.85,11.75 -9.15,11.7 -9.45,11.65 -9.6,11.5 -9.9,11.1 -10.4,10.4 -10.95,9.75 -11.25,8.6 -11.35,7 -11.4,5.4 -11.6,4.4 -12.05,4 -12.5,3.6 -12.75,3.4 -12.8,3.4 c -0.15,-0.05 -0.25,-0.05 -0.4,-0.05 -0.15,0.05 -0.5,0.2 -1.05,0.45 -0.5,0.2 -1.05,1.05 -1.6,2.55 -0.65,1.5 -1.05,2.85 -1.25,4 0.05,-0.1 0.15,-0.2 0.2,-0.3 l 0.15,-0.2 c 0.25,-0.35 0.55,-0.65 0.8,-0.9 0.7,-0.55 1.4,-0.75 2.1,-0.6 1.3,1.4 2.35,2.35 3.15,2.9 0.2,0.15 0.4,0.25 0.55,0.3 l 0.05,0 c 0.1,0.05 0.2,0.1 0.35,0.2 l 0.75,0.1 c 0.15,0 0.3,0 0.45,-0.05 l 0.05,0 z"
           inkscape:connector-curvature="0"
           style="fill:#c21d1a" />
        <path
           id="path28"
           d="m -3.1,-30.6 q -4.1,1.35 -6.15,5.6 c -0.85,1.7 -1.75,3.35 -2.65,5 -3.55,6.35 -5.55,13.2 -6.1,20.55 -0.1,1.3 -0.2,2.65 -0.35,4 -0.2,2.6 -0.15,5.15 0.1,7.65 0,-0.15 0,-0.25 0,-0.35 0.05,-0.05 0.1,-0.1 0.15,-0.15 l 0,-0.05 c 0.35,-0.4 0.65,-0.85 1,-1.3 0.2,-1.15 0.6,-2.5 1.25,-4 0.55,-1.5 1.1,-2.35 1.6,-2.55 0.55,-0.25 0.9,-0.4 1.05,-0.45 0.15,0 0.25,0 0.4,0.05 0.05,0 0.3,0.2 0.75,0.6 0.45,0.4 0.65,1.4 0.7,3 0.1,1.6 0.4,2.75 0.95,3.4 0.5,0.7 0.8,1.1 0.95,1.25 0.3,0.05 0.6,0.1 0.95,0.15 0.35,-0.05 0.75,-0.1 1.1,-0.25 1,-0.35 1.95,-0.85 2.8,-1.45 1.35,-1.4 2.25,-3.05 2.7,-4.9 0.45,-1.85 1.3,-3.1 2.5,-3.65 1,0.2 1.7,0.8 2.1,1.85 0.45,0.95 0.6,2.15 0.45,3.65 0.05,0 0.1,0.45 0.15,1.4 C 3.25,8.5 3.25,8.5 3.25,8.55 L 3.3,8.5 c 0,0.1 0,0.2 0,0.3 0.05,0 0.1,0 0.15,-0.05 C 3.6,8.3 3.7,7.9 3.7,7.45 4.4,5.5 4.85,3.6 5.05,1.7 5.3,-0.6 5.65,-3.9 6.05,-8.25 6.45,-12.5 6.2,-17.3 5.3,-22.6 4.85,-25 4.45,-26.95 4.05,-28.4 c -0.25,0.35 -0.55,0.7 -0.85,1.1 -1.8,2 -3.5,2.05 -5.15,0.15 -0.45,-0.45 -0.7,-1.05 -0.8,-1.75 0,-0.2 0,-0.4 -0.05,-0.6 -0.15,-0.1 -0.25,-0.2 -0.2,-0.35 0.05,-0.15 0,-0.35 -0.1,-0.55 0,-0.05 0,-0.15 0,-0.2 z m -15.1,41.65 c -0.05,0.05 -0.05,0.15 -0.05,0.25 -0.05,-0.25 -0.05,-0.5 -0.05,-0.75 0.05,0.15 0.05,0.35 0.1,0.5 z"
           inkscape:connector-curvature="0"
           style="fill:#851611" />
      </g>
      <animate
         attributeName="display"
         begin="0s"
         repeatCount="1"
         dur="0.542s"
         keyTimes="0;0.384;0.538;1"
         values="none;inline;none;none"
         id="animate3865" />
    </g>
    <g
       id="capeD006_1_161">
      <g
         id="element2">
        <path
           id="path18"
           d="m -2.725,-33.225 q -0.117,0.041 -0.225,0.075 c -0.35,0.35 -1.9,2.05 -4.55,5 -2.7,2.95 -4.6,6.85 -5.7,11.6 -1.1,4.75 -1.75,8 -1.95,9.75 -0.25,0.55 -0.45,2.25 -0.6,5.1 0.05,0.45 0.15,1.15 0.25,2.2 0.05,1 0.1,2.35 0.1,4.05 -0.05,0.5 -0.05,1 -0.1,1.45 -0.15,1.1 -0.5,2.05 -0.95,2.9 -0.35,0.55 -0.75,1.25 -1.2,2.05 1,-0.95 1.85,-2 2.6,-3.15 0.7,-1.2 1.1,-3.3 1.25,-6.25 0.2,-3.1 0.6,-7.55 1.25,-13.35 0.65,-5.8 1.95,-10 3.95,-12.65 2,-2.65 3.45,-4.25 4.35,-4.8 0.85,-0.55 1.35,-0.9 1.45,-0.95 0.15,0 0.25,0 0.35,0 0.05,0 0.05,0 0.05,0.05 0.05,0.15 0.1,0.55 0.05,1.3 -0.05,0.75 0.25,1.55 0.9,2.4 0.6,0.85 1.45,0.9 2.55,0.1 1.05,-0.8 2.2,-1.65 3.4,-2.5 -0.1,-0.25 -0.2,-0.45 -0.3,-0.7 -0.05,-0.1 -0.1,-0.2 -0.15,-0.3 -0.75,-1.5 -2,-2.75 -3.75,-3.8 -0.3,-0.05 -0.6,-0.1 -0.9,-0.05 -0.05,-0.05 -0.1,-0.05 -0.15,-0.05 -0.15,-0.05 -0.35,-0.05 -0.5,-0.1 -0.05,0 -0.15,0 -0.25,0 -0.45,0.15 -0.85,0.4 -1.2,0.65 M 1.1,3.45 C 1.05,3.4 0.95,3.4 0.85,3.45 0.7,3.6 0.5,3.75 0.25,3.9 0,4.05 -0.3,4.45 -0.7,5.05 -1.1,5.65 -1.35,6.35 -1.45,7.1 -1.4,7 -1.4,6.9 -1.35,6.85 L 1.125,4.625 1.15,4.65 C 1.2,4.6 1.3,4.6 1.35,4.55 1.5,4.5 1.6,4.5 1.75,4.45 1.85,4.4 1.95,4.4 2.05,4.4 2.3,4.35 2.5,4.35 2.75,4.35 3.35,4.35 4,4.4 4.65,4.45 4.25,4 3.6,3.75 2.65,3.65 1.7,3.5 1.15,3.45 1.1,3.45 z m -9.7,7.9 C -8.65,10.65 -8.8,9.8 -8.95,8.85 -9.1,8.1 -9.2,7.85 -9.25,8.1 c -0.3,-0.7 -0.65,-1 -1.1,-0.9 -0.45,0.05 -0.65,0.1 -0.7,0.1 -0.1,0 -0.35,0.1 -0.75,0.3 -0.45,0.2 -1.05,0.8 -1.85,1.8 -0.55,0.75 -1.1,1.45 -1.6,2.15 l 0,0.025 0,0.025 c 0.5,-0.2 1,-0.35 1.55,-0.45 0.2,-0.25 0.4,-0.3 0.55,-0.25 0,0.05 0,0.1 0,0.15 0.6,-0.1 1.25,-0.15 1.9,-0.1 0.7,0.05 1.45,0.15 2.2,0.3 0.15,0.05 0.3,0.05 0.45,0.1 z"
           inkscape:connector-curvature="0"
           style="fill:#c21d1a" />
        <path
           id="path19"
           d="m -1.45,-26.45 c -0.65,-0.85 -0.95,-1.65 -0.9,-2.4 0.05,-0.75 0,-1.15 -0.05,-1.3 0,-0.05 0,-0.05 -0.05,-0.05 -0.1,0 -0.2,0 -0.35,0 -0.1,0.05 -0.6,0.4 -1.45,0.95 -0.9,0.55 -2.35,2.15 -4.35,4.8 -2,2.65 -3.3,6.85 -3.95,12.65 -0.65,5.8 -1.05,10.25 -1.25,13.35 -0.15,2.95 -0.55,5.05 -1.25,6.25 -0.75,1.15 -1.6,2.2 -2.6,3.15 -0.5,0.9 -1.1,1.95 -1.8,3.2 1.35,-1.2 2.75,-2.05 4.2,-2.55 l 0,-0.025 0,-0.025 c 0.5,-0.7 1.05,-1.4 1.6,-2.15 0.8,-1 1.4,-1.6 1.85,-1.8 0.4,-0.2 0.65,-0.3 0.75,-0.3 0.05,0 0.25,-0.05 0.7,-0.1 0.45,-0.1 0.8,0.2 1.1,0.9 0.05,-0.25 0.15,0 0.3,0.75 0.15,0.95 0.3,1.8 0.35,2.5 3.45,0.65 5.65,-0.3 6.55,-2.9 C -1.9,7.95 -1.7,7.5 -1.45,7.1 -1.35,6.35 -1.1,5.65 -0.7,5.05 -0.3,4.45 0,4.05 0.25,3.9 0.5,3.75 0.7,3.6 0.85,3.45 c 0.1,-0.05 0.2,-0.05 0.25,0 0.05,0 0.6,0.05 1.55,0.2 0.95,0.1 1.6,0.35 2,0.8 C 6.35,4.6 8.15,5.05 10,5.7 9.85,5.3 9.15,3.35 7.9,-0.15 6.7,-3.65 5.95,-8.1 5.65,-13.45 5.3,-18.85 5.1,-23.1 5,-26.25 c -0.05,-0.95 -0.25,-1.8 -0.5,-2.6 -1.2,0.85 -2.35,1.7 -3.4,2.5 -1.1,0.8 -1.95,0.75 -2.55,-0.1 z m -11.7,37.35 c -0.15,-0.05 -0.35,0 -0.55,0.25 0.2,-0.05 0.4,-0.05 0.55,-0.1 0,-0.05 0,-0.1 0,-0.15 z"
           inkscape:connector-curvature="0"
           style="fill:#851611" />
        <path
           id="path26"
           d="m -19,14.225 0,0.025 0.025,-0.025 -0.025,0"
           inkscape:connector-curvature="0"
           style="fill:#851611" />
      </g>
      <animate
         attributeName="display"
         begin="0s"
         repeatCount="1"
         dur="0.542s"
         keyTimes="0;0.231;0.384;1"
         values="none;inline;none;none"
         id="animate3872" />
    </g>
    <g
       id="capeD006_1_159">
      <g
         id="element1">
        <path
           id="path9"
           d="m -2.95,-30.4 q 0,0.1 0,0.2 c 0.1,0.15 0.15,0.35 0.1,0.55 -0.05,0.15 0.05,0.25 0.2,0.3 0.05,0.2 0.05,0.4 0.1,0.6 0.15,0.65 0.45,1.25 0.9,1.7 1.75,1.8 3.45,1.65 5.1,-0.45 0.3,-0.4 0.6,-0.8 0.85,-1.15 -0.1,-0.3 -0.2,-0.55 -0.3,-0.8 -0.45,-1.35 -0.9,-2.2 -1.35,-2.6 -0.9,-0.85 -1.8,-1.35 -2.7,-1.5 -0.9,-0.15 -1.4,-0.2 -1.45,-0.2 -2.9,1.5 -5.25,3.6 -7.1,6.35 -2.35,3.5 -4.15,7.25 -5.5,11.2 -2.05,6.15 -3,12.55 -2.8,19.25 -0.05,0.45 -0.1,0.9 -0.1,1.35 0,2.2 0.05,4.35 0.15,6.4 0.05,0.75 0.2,1.35 0.4,1.85 0.15,0.45 0.4,0.75 0.7,1 0,-0.1 0,-0.2 0,-0.3 l 0,-0.025 0,0.025 c 0,-0.05 0,-0.1 0,-0.15 l -0.025,-0.075 0,0.05 0.025,-0.025 c -0.4,-2.5 -0.55,-5.05 -0.5,-7.65 0.05,-1.35 0.05,-2.7 0.1,-4 0.15,-7.4 1.8,-14.35 4.95,-20.85 0.85,-1.7 1.6,-3.4 2.35,-5.15 1.25,-2.9 3.2,-4.85 5.9,-5.9 z M 2.5,1.45 C 1.3,2.1 0.55,3.35 0.2,5.25 -0.15,7.1 -1,8.8 -2.25,10.25 -1.7,9.8 -1.15,9.3 -0.7,8.75 -0.45,8.45 -0.25,8.15 0,7.85 0.2,7.55 0.4,7.25 0.6,6.95 0.95,6.4 1.4,6.05 2,5.9 2.7,5.65 3.3,5.6 3.85,5.75 4.2,5.8 4.65,6.15 5.3,6.8 5.4,5.3 5.2,4.1 4.7,3.15 4.25,2.2 3.5,1.6 2.5,1.45 z M -8,10.9 C -8.55,10.25 -8.95,9.1 -9.1,7.55 -9.25,5.95 -9.55,4.95 -10,4.6 -10.45,4.25 -10.75,4.05 -10.8,4.05 -10.95,4 -11.05,4 -11.2,4 c -0.15,0.05 -0.5,0.25 -1,0.5 -0.5,0.25 -1,1.1 -1.5,2.65 -0.5,1.55 -0.85,2.9 -1,4.05 l 0,-0.025 0,0.025 c 0.05,-0.1 0.15,-0.2 0.2,-0.3 l 0,-0.025 0.1,-0.175 c 0.25,-0.35 0.55,-0.7 0.8,-0.95 0.65,-0.6 1.3,-0.85 2,-0.7 1.4,1.35 2.5,2.25 3.35,2.7 0.2,0.15 0.4,0.25 0.55,0.3 0,0 0,0 0.05,0 0.1,0.05 0.2,0.05 0.35,0.1 l -0.025,0 0.775,0.075 0,0.025 C -6.4,12.2 -6.2,12.2 -6.05,12.2 -6.4,12.15 -6.7,12.1 -7,12.05 -7.15,11.9 -7.45,11.55 -8,10.9 z"
           inkscape:connector-curvature="0"
           style="fill:#c21d1a" />
        <path
           id="path10"
           d="m -2.95,-30.2 q 0,-0.1 0,-0.2 c -2.7,1.05 -4.65,3 -5.9,5.9 -0.75,1.75 -1.5,3.45 -2.35,5.15 -3.15,6.5 -4.8,13.45 -4.95,20.85 -0.05,1.3 -0.05,2.65 -0.1,4 -0.05,2.6 0.1,5.15 0.5,7.65 l -0.025,-0.025 0,0.05 0.025,0.025 c 0,0.05 0,0.1 0,0.15 0,-0.2 0,-0.4 0,-0.55 0.05,-0.05 0.1,-0.15 0.15,-0.2 0,0.05 0,0.15 0.05,0.25 -0.05,-0.05 -0.05,-0.15 -0.05,-0.3 0.3,-0.45 0.6,-0.9 0.9,-1.35 0.15,-1.15 0.5,-2.5 1,-4.05 0.5,-1.55 1,-2.4 1.5,-2.65 0.5,-0.25 0.85,-0.45 1,-0.5 0.15,0 0.25,0 0.4,0.05 0.05,0 0.35,0.2 0.8,0.55 0.45,0.35 0.75,1.35 0.9,2.95 0.15,1.55 0.55,2.7 1.1,3.35 0.55,0.65 0.85,1 1,1.15 0.3,0.05 0.6,0.1 0.95,0.15 -0.15,0 -0.35,0 -0.5,0.05 0.5,-0.05 1.05,-0.15 1.6,-0.4 1,-0.45 1.9,-0.95 2.7,-1.6 C -1,8.8 -0.15,7.1 0.2,5.25 0.55,3.35 1.3,2.1 2.5,1.45 3.5,1.6 4.25,2.2 4.7,3.15 5.2,4.1 5.4,5.3 5.3,6.8 5.35,6.8 5.4,7.25 5.55,8.2 5.5,8.25 5.5,8.25 5.5,8.3 l 0.025,-0.05 0.025,0 c 0,0.1 0,0.2 0,0.3 0.05,0 0.1,0 0.15,-0.05 C 5.85,8.05 5.95,7.6 5.9,7.15 6.5,5.2 6.85,3.25 6.95,1.35 7.1,-0.95 7.25,-4.25 7.4,-8.6 7.55,-12.95 7,-17.7 5.8,-22.9 c -0.55,-2.35 -1.05,-4.3 -1.5,-5.75 -0.25,0.35 -0.55,0.75 -0.85,1.15 -1.65,2.1 -3.35,2.25 -5.1,0.45 -0.45,-0.45 -0.75,-1.05 -0.9,-1.7 -0.05,-0.2 -0.05,-0.4 -0.1,-0.6 -0.15,-0.05 -0.25,-0.15 -0.2,-0.3 0.05,-0.2 0,-0.4 -0.1,-0.55 z M -15.8,12.25 c -0.05,-0.25 -0.05,-0.5 -0.05,-0.75 0.05,0.15 0.05,0.35 0.1,0.5 -0.05,0.05 -0.05,0.15 -0.05,0.25 z"
           inkscape:connector-curvature="0"
           style="fill:#851611" />
      </g>
      <animate
         attributeName="display"
         begin="0s"
         repeatCount="1"
         dur="0.542s"
         keyTimes="0;0.077;0.231;1"
         values="none;inline;none;none"
         id="animate3878" />
    </g>
    <g
       id="capeD006_1_158">
      <g
         id="element">
        <path
           id="path"
           d="m -2.725,-33.225 q -0.117,0.041 -0.225,0.075 c -0.35,0.35 -1.9,2.05 -4.55,5 -2.7,2.95 -4.6,6.85 -5.7,11.6 -1.1,4.75 -1.75,8 -1.95,9.75 -0.25,0.55 -0.45,2.25 -0.6,5.1 0.05,0.45 0.15,1.15 0.25,2.2 0.05,1 0.1,2.35 0.1,4.05 -0.05,0.5 -0.05,1 -0.1,1.45 -0.15,1.1 -0.5,2.05 -0.95,2.9 -0.35,0.55 -0.75,1.25 -1.2,2.05 1,-0.95 1.85,-2 2.6,-3.15 0.7,-1.2 1.1,-3.3 1.25,-6.25 0.2,-3.1 0.6,-7.55 1.25,-13.35 0.65,-5.8 1.95,-10 3.95,-12.65 2,-2.65 3.45,-4.25 4.35,-4.8 0.85,-0.55 1.35,-0.9 1.45,-0.95 0.15,0 0.25,0 0.35,0 0.05,0 0.05,0 0.05,0.05 0.05,0.15 0.1,0.55 0.05,1.3 -0.05,0.75 0.25,1.55 0.9,2.4 0.6,0.85 1.45,0.9 2.55,0.1 1.05,-0.8 2.2,-1.65 3.4,-2.5 -0.1,-0.25 -0.2,-0.45 -0.3,-0.7 -0.05,-0.1 -0.1,-0.2 -0.15,-0.3 -0.75,-1.5 -2,-2.75 -3.75,-3.8 -0.3,-0.05 -0.6,-0.1 -0.9,-0.05 -0.05,-0.05 -0.1,-0.05 -0.15,-0.05 -0.15,-0.05 -0.35,-0.05 -0.5,-0.1 -0.05,0 -0.15,0 -0.25,0 -0.45,0.15 -0.85,0.4 -1.2,0.65 M 1.35,4.55 C 1.5,4.5 1.6,4.5 1.75,4.45 1.85,4.4 1.95,4.4 2.05,4.4 2.3,4.35 2.5,4.35 2.75,4.35 3.35,4.35 4,4.4 4.65,4.45 4.25,4 3.6,3.75 2.65,3.65 1.7,3.5 1.15,3.45 1.1,3.45 1.05,3.4 0.95,3.4 0.85,3.45 0.7,3.6 0.5,3.75 0.25,3.9 0,4.05 -0.3,4.45 -0.7,5.05 -1.1,5.65 -1.35,6.35 -1.45,7.1 -1.4,7 -1.4,6.9 -1.35,6.85 L 1.125,4.625 1.15,4.65 C 1.2,4.6 1.3,4.6 1.35,4.55 z m -10.4,6.7 c 0.15,0.05 0.3,0.05 0.45,0.1 -0.05,-0.7 -0.2,-1.55 -0.35,-2.5 -0.15,-0.75 -0.25,-1 -0.3,-0.75 -0.3,-0.7 -0.65,-1 -1.1,-0.9 -0.45,0.05 -0.65,0.1 -0.7,0.1 -0.1,0 -0.35,0.1 -0.75,0.3 -0.45,0.2 -1.05,0.8 -1.85,1.8 -0.55,0.75 -1.1,1.45 -1.6,2.15 l 0,0.025 0,0.025 c 0.5,-0.2 1,-0.35 1.55,-0.45 0.2,-0.25 0.4,-0.3 0.55,-0.25 0,0.05 0,0.1 0,0.15 0.6,-0.1 1.25,-0.15 1.9,-0.1 0.7,0.05 1.45,0.15 2.2,0.3 z"
           inkscape:connector-curvature="0"
           style="fill:#c21d1a" />
        <path
           id="path1"
           d="m -2.8,-30.2 c -0.1,0.05 -0.6,0.4 -1.45,0.95 -0.9,0.55 -2.35,2.15 -4.35,4.8 -2,2.65 -3.3,6.85 -3.95,12.65 -0.65,5.8 -1.05,10.25 -1.25,13.35 -0.15,2.95 -0.55,5.05 -1.25,6.25 -0.75,1.15 -1.6,2.2 -2.6,3.15 -0.5,0.9 -1.1,1.95 -1.8,3.2 1.35,-1.2 2.75,-2.05 4.2,-2.55 l 0,-0.025 0,-0.025 c 0.5,-0.7 1.05,-1.4 1.6,-2.15 0.8,-1 1.4,-1.6 1.85,-1.8 0.4,-0.2 0.65,-0.3 0.75,-0.3 0.05,0 0.25,-0.05 0.7,-0.1 0.45,-0.1 0.8,0.2 1.1,0.9 0.05,-0.25 0.15,0 0.3,0.75 0.15,0.95 0.3,1.8 0.35,2.5 3.45,0.65 5.65,-0.3 6.55,-2.9 C -1.9,7.95 -1.7,7.5 -1.45,7.1 -1.35,6.35 -1.1,5.65 -0.7,5.05 -0.3,4.45 0,4.05 0.25,3.9 0.5,3.75 0.7,3.6 0.85,3.45 c 0.1,-0.05 0.2,-0.05 0.25,0 0.05,0 0.6,0.05 1.55,0.2 0.95,0.1 1.6,0.35 2,0.8 C 6.35,4.6 8.15,5.05 10,5.7 9.85,5.3 9.15,3.35 7.9,-0.15 6.7,-3.65 5.95,-8.1 5.65,-13.45 5.3,-18.85 5.1,-23.1 5,-26.25 c -0.05,-0.95 -0.25,-1.8 -0.5,-2.6 -1.2,0.85 -2.35,1.7 -3.4,2.5 -1.1,0.8 -1.95,0.75 -2.55,-0.1 -0.65,-0.85 -0.95,-1.65 -0.9,-2.4 0.05,-0.75 0,-1.15 -0.05,-1.3 0,-0.05 0,-0.05 -0.05,-0.05 -0.1,0 -0.2,0 -0.35,0 z m -10.35,41.1 c -0.15,-0.05 -0.35,0 -0.55,0.25 0.2,-0.05 0.4,-0.05 0.55,-0.1 0,-0.05 0,-0.1 0,-0.15 z"
           inkscape:connector-curvature="0"
           style="fill:#851611" />
        <path
           id="path8"
           d="m -19,14.225 0,0.025 0.025,-0.025 -0.025,0"
           inkscape:connector-curvature="0"
           style="fill:#851611" />
      </g>
      <animate
         attributeName="display"
         begin="0s"
         repeatCount="1"
         dur="0.542s"
         keyTimes="0;0.077;1"
         values="inline;none;none"
         id="animate3885" />
    </g>
  </g>
</svg>
