<?xml version="1.0" encoding="UTF-8" standalone="no"?>
<!-- Generator: flash2svg, http://dissentgraphics.com/tools/flash2svg -->

<svg
   xmlns:dc="http://purl.org/dc/elements/1.1/"
   xmlns:cc="http://creativecommons.org/ns#"
   xmlns:rdf="http://www.w3.org/1999/02/22-rdf-syntax-ns#"
   xmlns:svg="http://www.w3.org/2000/svg"
   xmlns="http://www.w3.org/2000/svg"
   xmlns:sodipodi="http://sodipodi.sourceforge.net/DTD/sodipodi-0.dtd"
   xmlns:inkscape="http://www.inkscape.org/namespaces/inkscape"
   id="AvatarAssets"
   image-rendering="auto"
   version="1.1"
   x="0px"
   y="0px"
   width="28.65909"
   height="48.556347"
   viewBox="0 0 28.65909 48.556347"
   inkscape:version="0.48.4 r9939"
   sodipodi:docname="AvatarAssets_coatOffsideC006.ANI-idle2.svg">
  <metadata
     id="metadata73">
    <rdf:RDF>
      <cc:Work
         rdf:about="">
        <dc:format>image/svg+xml</dc:format>
        <dc:type
           rdf:resource="http://purl.org/dc/dcmitype/StillImage" />
      </cc:Work>
    </rdf:RDF>
  </metadata>
  <sodipodi:namedview
     pagecolor="#ffffff"
     bordercolor="#666666"
     borderopacity="1"
     objecttolerance="10"
     gridtolerance="10"
     guidetolerance="10"
     inkscape:pageopacity="0"
     inkscape:pageshadow="2"
     inkscape:window-width="640"
     inkscape:window-height="480"
     id="namedview71"
     showgrid="false"
     fit-margin-top="0"
     fit-margin-left="0"
     fit-margin-right="0"
     fit-margin-bottom="0"
     inkscape:zoom="1.9032258"
     inkscape:cx="49.8"
     inkscape:cy="-44.65"
     inkscape:window-x="0"
     inkscape:window-y="0"
     inkscape:window-maximized="0"
     inkscape:current-layer="AvatarAssets" />
  <defs
     id="defs3" />
  <g
     id="coatOffsideC7"
     overflow="visible"
     style="overflow:visible"
     transform="translate(17.8,31.206348)">
    <g
       id="coatOffsideC006_2_916">
      <g
         id="element12">
        <path
           id="path12"
           d="m 3.25,-30.75 -1,-0.4 c -1.65,-0.3 -2.75,0.6 -3.3,2.65 l -1.65,5.5 1.65,-5.5 c 0,0 -3.2,10 -3.75,13.9 -0.5,3.9 -6.1,14.45 -7.2,17.2 l -5.8,14.75 c 0,0 1.9,-1.95 4.65,-3.35 C -10.4,12.55 -7,13.1 -2.5,12.6 2,12.1 4.45,13.9 4.45,13.9 L 4,12.75 c -0.25,-0.7 0,-2.5 0.75,-5 0.75,-2.5 2.6,-8.6 3.5,-10.9 Q 9,-5 9.95,-8.8 q 1,-4 0.9,-4.95 C 10.7,-14.9 9.9,-17.65 8.45,-22 6.95,-26.35 5.85,-29 5.1,-29.85 L 4.95,-29.9 c -0.35,-0.25 -0.9,-0.5 -1.7,-0.85 z"
           inkscape:connector-curvature="0"
           style="fill:#5b0d11" />
      </g>
      <animate
         attributeName="display"
         begin="0s"
         repeatCount="1"
         dur="3.917s"
         keyTimes="0;0.691;1"
         values="none;inline;none"
         id="animate9" />
    </g>
    <g
       id="coatOffsideC006_2_914">
      <g
         id="element11">
        <path
           id="path11"
           d="m 8.35,-1.1 c 0.6,-2.45 1.2,-5 1.75,-7.65 0.55,-2.7 0.8,-4.35 0.75,-5 C 10.7,-14.9 9.9,-17.65 8.45,-22 6.95,-26.35 5.85,-29 5.1,-29.85 L 4.95,-29.9 c -0.35,-0.25 -0.9,-0.5 -1.7,-0.85 l -1,-0.4 c -1.65,-0.3 -2.75,0.6 -3.3,2.65 L -2.7,-23 c -1.15,3.95 -1.85,6.75 -2,8.4 -0.2,1.6 -0.9,4.1 -2.05,7.45 -1.2,3.35 -2.5,6.95 -3.9,10.75 -2.2,5 -3.1,9.15 -2.7,12.4 1.7,-1.45 3.25,-2.3 4.65,-2.5 1.35,-0.2 2.5,-0.35 3.45,-0.4 0.95,-0.1 2.6,0 5,0.25 2.35,0.25 4.7,0.7 7.05,1.45 L 5.75,11.7 C 5.3,9.85 5.45,7.85 6.25,5.7 7.05,3.55 7.75,1.3 8.35,-1.1 z"
           inkscape:connector-curvature="0"
           style="fill:#5b0d11" />
      </g>
      <animate
         attributeName="display"
         begin="0s"
         repeatCount="1"
         dur="3.917s"
         keyTimes="0;0.67;0.691;1"
         values="none;inline;none;none"
         id="animate14" />
    </g>
    <g
       id="coatOffsideC006_2_912">
      <g
         id="element10">
        <path
           id="path10"
           d="M 2.75,-30.95 Q 1.3,-31.25 0.6,-29.8 c -1.05,0.75 -1.9,2.1 -2.45,4.05 -0.85,2.9 -1.5,5.2 -1.85,6.95 -0.65,2.8 -1.35,5.45 -2.05,7.95 -0.7,2.45 -1.75,5.4 -3.15,8.8 -1.5,3.95 -2.3,7.8 -2.45,11.5 -0.15,3.7 0,6.35 0.45,7.9 1,-1.65 2.35,-2.65 4.05,-3.1 1.7,-0.45 3.65,-0.6 5.8,-0.45 2.15,0.15 4.2,0.4 6.25,0.85 l 3.2,0.9 C 7.55,13 7.15,11.15 7.2,10 6.95,7.85 7.2,5.2 7.9,2.05 c 0.65,-3.2 1.2,-5.8 1.55,-7.85 0.35,-2.05 0.7,-3.9 0.95,-5.45 0.25,-1.9 0,-4.1 -0.75,-6.6 C 8.85,-20.6 7.9,-23.3 6.8,-25.9 6.05,-28.1 5.45,-29.4 5.05,-29.85 4.85,-30 4.55,-30.15 4.1,-30.3 3.75,-30.5 3.3,-30.7 2.75,-30.95 z"
           inkscape:connector-curvature="0"
           style="fill:#5b0d11" />
      </g>
      <animate
         attributeName="display"
         begin="0s"
         repeatCount="1"
         dur="3.917s"
         keyTimes="0;0.649;0.67;1"
         values="none;inline;none;none"
         id="animate19" />
    </g>
    <g
       id="coatOffsideC006_2_894">
      <g
         id="element9">
        <path
           id="path9"
           d="m 8.75,-2.9 c 0.15,-1.4 0.55,-3.35 1.2,-5.9 0.65,-2.65 0.95,-4.3 0.9,-4.95 C 10.7,-14.9 9.9,-17.65 8.45,-22 6.95,-26.35 5.85,-29 5.1,-29.85 L 4.95,-29.9 c -0.35,-0.25 -0.9,-0.5 -1.7,-0.85 l -1,-0.4 c -1.65,-0.3 -2.75,0.6 -3.3,2.65 L -2.7,-23 q -1.75,5.95 -2.1,8.4 c -0.2,1.6 -1,3.9 -2.4,6.85 -1.4,2.95 -2.4,6.45 -2.95,10.45 -0.95,7.5 -0.65,12.35 0.9,14.6 0.55,-1.05 1.45,-1.8 2.65,-2.3 1.2,-0.55 2.75,-0.8 4.7,-0.75 1.9,0.05 3.75,0.1 5.5,0.25 1.75,0.1 4.15,0.75 7.2,1.95 L 9.6,14.3 C 8.3,11.65 7.8,8.45 8.1,4.75 8.35,1.05 8.6,-1.5 8.75,-2.9 z"
           inkscape:connector-curvature="0"
           style="fill:#5b0d11" />
      </g>
      <animate
         attributeName="display"
         begin="0s"
         repeatCount="1"
         dur="3.917s"
         keyTimes="0;0.457;0.649;1"
         values="none;inline;none;none"
         id="animate24" />
    </g>
    <g
       id="coatOffsideC006_2_892">
      <g
         id="element8">
        <path
           id="path8"
           d="M 2.75,-30.95 Q 1.3,-31.25 0.6,-29.8 c -1.05,0.75 -1.9,2.1 -2.45,4.05 -0.85,2.9 -1.5,5.2 -1.85,6.95 -0.65,2.8 -1.35,5.45 -2.05,7.95 -0.7,2.45 -1.75,5.4 -3.15,8.8 -1.5,3.95 -2.3,7.8 -2.45,11.5 -0.15,3.7 0,6.35 0.45,7.9 1,-1.65 2.35,-2.65 4.05,-3.1 1.7,-0.45 3.65,-0.6 5.8,-0.45 2.15,0.15 4.2,0.4 6.25,0.85 l 3.2,0.9 C 7.55,13 7.15,11.15 7.2,10 6.95,7.85 7.2,5.2 7.9,2.05 c 0.65,-3.2 1.2,-5.8 1.55,-7.85 0.35,-2.05 0.7,-3.9 0.95,-5.45 0.25,-1.9 0,-4.1 -0.75,-6.6 C 8.85,-20.6 7.9,-23.3 6.8,-25.9 6.05,-28.1 5.45,-29.4 5.05,-29.85 4.85,-30 4.55,-30.15 4.1,-30.3 3.75,-30.5 3.3,-30.7 2.75,-30.95 z"
           inkscape:connector-curvature="0"
           style="fill:#5b0d11" />
      </g>
      <animate
         attributeName="display"
         begin="0s"
         repeatCount="1"
         dur="3.917s"
         keyTimes="0;0.436;0.457;1"
         values="none;inline;none;none"
         id="animate29" />
    </g>
    <g
       id="coatOffsideC006_2_890">
      <g
         id="element7">
        <path
           id="path7"
           d="m 8.35,-1.1 c 0.6,-2.45 1.2,-5 1.75,-7.65 0.55,-2.7 0.8,-4.35 0.75,-5 C 10.7,-14.9 9.9,-17.65 8.45,-22 6.95,-26.35 5.85,-29 5.1,-29.85 L 4.95,-29.9 c -0.35,-0.25 -0.9,-0.5 -1.7,-0.85 l -1,-0.4 c -1.65,-0.3 -2.75,0.6 -3.3,2.65 L -2.7,-23 c -1.15,3.95 -1.85,6.75 -2,8.4 -0.2,1.6 -0.9,4.1 -2.05,7.45 -1.2,3.35 -2.5,6.95 -3.9,10.75 -2.2,5 -3.1,9.15 -2.7,12.4 1.7,-1.45 3.25,-2.3 4.65,-2.5 1.35,-0.2 2.5,-0.35 3.45,-0.4 0.95,-0.1 2.6,0 5,0.25 2.35,0.25 4.7,0.7 7.05,1.45 L 5.75,11.7 C 5.3,9.85 5.45,7.85 6.25,5.7 7.05,3.55 7.75,1.3 8.35,-1.1 z"
           inkscape:connector-curvature="0"
           style="fill:#5b0d11" />
      </g>
      <animate
         attributeName="display"
         begin="0s"
         repeatCount="1"
         dur="3.917s"
         keyTimes="0;0.415;0.436;1"
         values="none;inline;none;none"
         id="animate34" />
    </g>
    <g
       id="coatOffsideC006_2_876">
      <g
         id="element6">
        <path
           id="path6"
           d="m 3.25,-30.75 -1,-0.4 c -1.65,-0.3 -2.75,0.6 -3.3,2.65 l -1.65,5.5 1.65,-5.5 c 0,0 -3.2,10 -3.75,13.9 -0.5,3.9 -6.1,14.45 -7.2,17.2 l -5.8,14.75 c 0,0 1.9,-1.95 4.65,-3.35 C -10.4,12.55 -7,13.1 -2.5,12.6 2,12.1 4.45,13.9 4.45,13.9 L 4,12.75 c -0.25,-0.7 0,-2.5 0.75,-5 0.75,-2.5 2.6,-8.6 3.5,-10.9 Q 9,-5 9.95,-8.8 q 1,-4 0.9,-4.95 C 10.7,-14.9 9.9,-17.65 8.45,-22 6.95,-26.35 5.85,-29 5.1,-29.85 L 4.95,-29.9 c -0.35,-0.25 -0.9,-0.5 -1.7,-0.85 z"
           inkscape:connector-curvature="0"
           style="fill:#5b0d11" />
      </g>
      <animate
         attributeName="display"
         begin="0s"
         repeatCount="1"
         dur="3.917s"
         keyTimes="0;0.266;0.415;1"
         values="none;inline;none;none"
         id="animate39" />
    </g>
    <g
       id="coatOffsideC006_2_874">
      <g
         id="element5">
        <path
           id="path5"
           d="m 8.35,-1.1 c 0.6,-2.45 1.2,-5 1.75,-7.65 0.55,-2.7 0.8,-4.35 0.75,-5 C 10.7,-14.9 9.9,-17.65 8.45,-22 6.95,-26.35 5.85,-29 5.1,-29.85 L 4.95,-29.9 c -0.35,-0.25 -0.9,-0.5 -1.7,-0.85 l -1,-0.4 c -1.65,-0.3 -2.75,0.6 -3.3,2.65 L -2.7,-23 c -1.15,3.95 -1.85,6.75 -2,8.4 -0.2,1.6 -0.9,4.1 -2.05,7.45 -1.2,3.35 -2.5,6.95 -3.9,10.75 -2.2,5 -3.1,9.15 -2.7,12.4 1.7,-1.45 3.25,-2.3 4.65,-2.5 1.35,-0.2 2.5,-0.35 3.45,-0.4 0.95,-0.1 2.6,0 5,0.25 2.35,0.25 4.7,0.7 7.05,1.45 L 5.75,11.7 C 5.3,9.85 5.45,7.85 6.25,5.7 7.05,3.55 7.75,1.3 8.35,-1.1 z"
           inkscape:connector-curvature="0"
           style="fill:#5b0d11" />
      </g>
      <animate
         attributeName="display"
         begin="0s"
         repeatCount="1"
         dur="3.917s"
         keyTimes="0;0.245;0.266;1"
         values="none;inline;none;none"
         id="animate44" />
    </g>
    <g
       id="coatOffsideC006_2_872">
      <g
         id="element4">
        <path
           id="path4"
           d="M 2.75,-30.95 Q 1.3,-31.25 0.6,-29.8 c -1.05,0.75 -1.9,2.1 -2.45,4.05 -0.85,2.9 -1.5,5.2 -1.85,6.95 -0.65,2.8 -1.35,5.45 -2.05,7.95 -0.7,2.45 -1.75,5.4 -3.15,8.8 -1.5,3.95 -2.3,7.8 -2.45,11.5 -0.15,3.7 0,6.35 0.45,7.9 1,-1.65 2.35,-2.65 4.05,-3.1 1.7,-0.45 3.65,-0.6 5.8,-0.45 2.15,0.15 4.2,0.4 6.25,0.85 l 3.2,0.9 C 7.55,13 7.15,11.15 7.2,10 6.95,7.85 7.2,5.2 7.9,2.05 c 0.65,-3.2 1.2,-5.8 1.55,-7.85 0.35,-2.05 0.7,-3.9 0.95,-5.45 0.25,-1.9 0,-4.1 -0.75,-6.6 C 8.85,-20.6 7.9,-23.3 6.8,-25.9 6.05,-28.1 5.45,-29.4 5.05,-29.85 4.85,-30 4.55,-30.15 4.1,-30.3 3.75,-30.5 3.3,-30.7 2.75,-30.95 z"
           inkscape:connector-curvature="0"
           style="fill:#5b0d11" />
      </g>
      <animate
         attributeName="display"
         begin="0s"
         repeatCount="1"
         dur="3.917s"
         keyTimes="0;0.223;0.245;1"
         values="none;inline;none;none"
         id="animate49" />
    </g>
    <g
       id="coatOffsideC006_2_860">
      <g
         id="element3">
        <path
           id="path3"
           d="m 8.75,-2.9 c 0.15,-1.4 0.55,-3.35 1.2,-5.9 0.65,-2.65 0.95,-4.3 0.9,-4.95 C 10.7,-14.9 9.9,-17.65 8.45,-22 6.95,-26.35 5.85,-29 5.1,-29.85 L 4.95,-29.9 c -0.35,-0.25 -0.9,-0.5 -1.7,-0.85 l -1,-0.4 c -1.65,-0.3 -2.75,0.6 -3.3,2.65 L -2.7,-23 q -1.75,5.95 -2.1,8.4 c -0.2,1.6 -1,3.9 -2.4,6.85 -1.4,2.95 -2.4,6.45 -2.95,10.45 -0.95,7.5 -0.65,12.35 0.9,14.6 0.55,-1.05 1.45,-1.8 2.65,-2.3 1.2,-0.55 2.75,-0.8 4.7,-0.75 1.9,0.05 3.75,0.1 5.5,0.25 1.75,0.1 4.15,0.75 7.2,1.95 L 9.6,14.3 C 8.3,11.65 7.8,8.45 8.1,4.75 8.35,1.05 8.6,-1.5 8.75,-2.9 z"
           inkscape:connector-curvature="0"
           style="fill:#5b0d11" />
      </g>
      <animate
         attributeName="display"
         begin="0s"
         repeatCount="1"
         dur="3.917s"
         keyTimes="0;0.096;0.223;1"
         values="none;inline;none;none"
         id="animate54" />
    </g>
    <g
       id="coatOffsideC006_2_858">
      <g
         id="element2">
        <path
           id="path2"
           d="M 2.75,-30.95 Q 1.3,-31.25 0.6,-29.8 c -1.05,0.75 -1.9,2.1 -2.45,4.05 -0.85,2.9 -1.5,5.2 -1.85,6.95 -0.65,2.8 -1.35,5.45 -2.05,7.95 -0.7,2.45 -1.75,5.4 -3.15,8.8 -1.5,3.95 -2.3,7.8 -2.45,11.5 -0.15,3.7 0,6.35 0.45,7.9 1,-1.65 2.35,-2.65 4.05,-3.1 1.7,-0.45 3.65,-0.6 5.8,-0.45 2.15,0.15 4.2,0.4 6.25,0.85 l 3.2,0.9 C 7.55,13 7.15,11.15 7.2,10 6.95,7.85 7.2,5.2 7.9,2.05 c 0.65,-3.2 1.2,-5.8 1.55,-7.85 0.35,-2.05 0.7,-3.9 0.95,-5.45 0.25,-1.9 0,-4.1 -0.75,-6.6 C 8.85,-20.6 7.9,-23.3 6.8,-25.9 6.05,-28.1 5.45,-29.4 5.05,-29.85 4.85,-30 4.55,-30.15 4.1,-30.3 3.75,-30.5 3.3,-30.7 2.75,-30.95 z"
           inkscape:connector-curvature="0"
           style="fill:#5b0d11" />
      </g>
      <animate
         attributeName="display"
         begin="0s"
         repeatCount="1"
         dur="3.917s"
         keyTimes="0;0.074;0.096;1"
         values="none;inline;none;none"
         id="animate59" />
    </g>
    <g
       id="coatOffsideC006_2_856">
      <g
         id="element1">
        <path
           id="path1"
           d="m 8.35,-1.1 c 0.6,-2.45 1.2,-5 1.75,-7.65 0.55,-2.7 0.8,-4.35 0.75,-5 C 10.7,-14.9 9.9,-17.65 8.45,-22 6.95,-26.35 5.85,-29 5.1,-29.85 L 4.95,-29.9 c -0.35,-0.25 -0.9,-0.5 -1.7,-0.85 l -1,-0.4 c -1.65,-0.3 -2.75,0.6 -3.3,2.65 L -2.7,-23 c -1.15,3.95 -1.85,6.75 -2,8.4 -0.2,1.6 -0.9,4.1 -2.05,7.45 -1.2,3.35 -2.5,6.95 -3.9,10.75 -2.2,5 -3.1,9.15 -2.7,12.4 1.7,-1.45 3.25,-2.3 4.65,-2.5 1.35,-0.2 2.5,-0.35 3.45,-0.4 0.95,-0.1 2.6,0 5,0.25 2.35,0.25 4.7,0.7 7.05,1.45 L 5.75,11.7 C 5.3,9.85 5.45,7.85 6.25,5.7 7.05,3.55 7.75,1.3 8.35,-1.1 z"
           inkscape:connector-curvature="0"
           style="fill:#5b0d11" />
      </g>
      <animate
         attributeName="display"
         begin="0s"
         repeatCount="1"
         dur="3.917s"
         keyTimes="0;0.053;0.074;1"
         values="none;inline;none;none"
         id="animate64" />
    </g>
    <g
       id="coatOffsideC006_2_851">
      <g
         id="element">
        <path
           id="path"
           d="m 3.25,-30.75 -1,-0.4 c -1.65,-0.3 -2.75,0.6 -3.3,2.65 l -1.65,5.5 1.65,-5.5 c 0,0 -3.2,10 -3.75,13.9 -0.5,3.9 -6.1,14.45 -7.2,17.2 l -5.8,14.75 c 0,0 1.9,-1.95 4.65,-3.35 C -10.4,12.55 -7,13.1 -2.5,12.6 2,12.1 4.45,13.9 4.45,13.9 L 4,12.75 c -0.25,-0.7 0,-2.5 0.75,-5 0.75,-2.5 2.6,-8.6 3.5,-10.9 Q 9,-5 9.95,-8.8 q 1,-4 0.9,-4.95 C 10.7,-14.9 9.9,-17.65 8.45,-22 6.95,-26.35 5.85,-29 5.1,-29.85 L 4.95,-29.9 c -0.35,-0.25 -0.9,-0.5 -1.7,-0.85 z"
           inkscape:connector-curvature="0"
           style="fill:#5b0d11" />
      </g>
      <animate
         attributeName="display"
         begin="0s"
         repeatCount="1"
         dur="3.917s"
         keyTimes="0;0.011;1"
         values="inline;none;none"
         id="animate69" />
    </g>
  </g>
</svg>
