<?xml version="1.0" encoding="UTF-8" standalone="no"?>
<!-- Generator: flash2svg, http://dissentgraphics.com/tools/flash2svg -->

<svg
   xmlns:dc="http://purl.org/dc/elements/1.1/"
   xmlns:cc="http://creativecommons.org/ns#"
   xmlns:rdf="http://www.w3.org/1999/02/22-rdf-syntax-ns#"
   xmlns:svg="http://www.w3.org/2000/svg"
   xmlns="http://www.w3.org/2000/svg"
   xmlns:sodipodi="http://sodipodi.sourceforge.net/DTD/sodipodi-0.dtd"
   xmlns:inkscape="http://www.inkscape.org/namespaces/inkscape"
   id="AvatarAssets"
   image-rendering="auto"
   version="1.1"
   x="0px"
   y="0px"
   width="29.450001"
   height="48.099998"
   viewBox="0 0 29.450001 48.099998"
   inkscape:version="0.48.4 r9939"
   sodipodi:docname="AvatarAssets_capeD006-idle0.svg">
  <metadata
     id="metadata4077">
    <rdf:RDF>
      <cc:Work
         rdf:about="">
        <dc:format>image/svg+xml</dc:format>
        <dc:type
           rdf:resource="http://purl.org/dc/dcmitype/StillImage" />
      </cc:Work>
    </rdf:RDF>
  </metadata>
  <sodipodi:namedview
     pagecolor="#ffffff"
     bordercolor="#666666"
     borderopacity="1"
     objecttolerance="10"
     gridtolerance="10"
     guidetolerance="10"
     inkscape:pageopacity="0"
     inkscape:pageshadow="2"
     inkscape:window-width="640"
     inkscape:window-height="480"
     id="namedview4075"
     showgrid="false"
     fit-margin-top="0"
     fit-margin-left="0"
     fit-margin-right="0"
     fit-margin-bottom="0"
     inkscape:zoom="1.9032258"
     inkscape:cx="51.45"
     inkscape:cy="-47.75"
     inkscape:window-x="0"
     inkscape:window-y="0"
     inkscape:window-maximized="0"
     inkscape:current-layer="AvatarAssets" />
  <defs
     id="defs4062" />
  <g
     id="capeD7"
     overflow="visible"
     style="overflow:visible"
     transform="translate(19.45,33.85)">
    <g
       id="capeD006_1_801">
      <g
         id="element1">
        <path
           id="path9"
           d="m -2.725,-33.225 q -0.117,0.041 -0.225,0.075 c -0.35,0.35 -1.9,2.05 -4.55,5 -2.7,2.95 -4.6,6.85 -5.7,11.6 -1.1,4.75 -1.75,8 -1.95,9.75 -0.25,0.55 -0.45,2.25 -0.6,5.1 0.05,0.45 0.15,1.15 0.25,2.2 0.05,1 0.1,2.35 0.1,4.05 -0.05,0.5 -0.05,1 -0.1,1.45 -0.15,1.1 -0.5,2.05 -0.95,2.9 -0.35,0.55 -0.75,1.25 -1.2,2.05 1,-0.95 1.85,-2 2.6,-3.15 0.7,-1.2 1.1,-3.3 1.25,-6.25 0.2,-3.1 0.6,-7.55 1.25,-13.35 0.65,-5.8 1.95,-10 3.95,-12.65 2,-2.65 3.45,-4.25 4.35,-4.8 0.85,-0.55 1.35,-0.9 1.45,-0.95 0.15,0 0.25,0 0.35,0 0.05,0 0.05,0 0.05,0.05 0.05,0.15 0.1,0.55 0.05,1.3 -0.05,0.75 0.25,1.55 0.9,2.4 0.6,0.85 1.45,0.9 2.55,0.1 1.05,-0.8 2.2,-1.65 3.4,-2.5 -0.1,-0.25 -0.2,-0.45 -0.3,-0.7 -0.05,-0.1 -0.1,-0.2 -0.15,-0.3 -0.75,-1.5 -2,-2.75 -3.75,-3.8 -0.3,-0.05 -0.6,-0.1 -0.9,-0.05 -0.05,-0.05 -0.1,-0.05 -0.15,-0.05 -0.15,-0.05 -0.35,-0.05 -0.5,-0.1 -0.05,0 -0.15,0 -0.25,0 -0.45,0.15 -0.85,0.4 -1.2,0.65 M 1.1,3.45 C 1.05,3.4 0.95,3.4 0.85,3.45 0.7,3.6 0.5,3.75 0.25,3.9 0,4.05 -0.3,4.45 -0.7,5.05 -1.1,5.65 -1.35,6.35 -1.45,7.1 -1.4,7 -1.4,6.9 -1.35,6.85 L 1.125,4.625 1.15,4.65 C 1.2,4.6 1.3,4.6 1.35,4.55 1.5,4.5 1.6,4.5 1.75,4.45 1.85,4.4 1.95,4.4 2.05,4.4 2.3,4.35 2.5,4.35 2.75,4.35 3.35,4.35 4,4.4 4.65,4.45 4.25,4 3.6,3.75 2.65,3.65 1.7,3.5 1.15,3.45 1.1,3.45 z m -9.7,7.9 C -8.65,10.65 -8.8,9.8 -8.95,8.85 -9.1,8.1 -9.2,7.85 -9.25,8.1 c -0.3,-0.7 -0.65,-1 -1.1,-0.9 -0.45,0.05 -0.65,0.1 -0.7,0.1 -0.1,0 -0.35,0.1 -0.75,0.3 -0.45,0.2 -1.05,0.8 -1.85,1.8 -0.55,0.75 -1.1,1.45 -1.6,2.15 l 0,0.025 0,0.025 c 0.5,-0.2 1,-0.35 1.55,-0.45 0.2,-0.25 0.4,-0.3 0.55,-0.25 0,0.05 0,0.1 0,0.15 0.6,-0.1 1.25,-0.15 1.9,-0.1 0.7,0.05 1.45,0.15 2.2,0.3 0.15,0.05 0.3,0.05 0.45,0.1 z"
           inkscape:connector-curvature="0"
           style="fill:#c21d1a" />
        <path
           id="path10"
           d="m -2.8,-30.2 c -0.1,0.05 -0.6,0.4 -1.45,0.95 -0.9,0.55 -2.35,2.15 -4.35,4.8 -2,2.65 -3.3,6.85 -3.95,12.65 -0.65,5.8 -1.05,10.25 -1.25,13.35 -0.15,2.95 -0.55,5.05 -1.25,6.25 -0.75,1.15 -1.6,2.2 -2.6,3.15 -0.5,0.9 -1.1,1.95 -1.8,3.2 1.35,-1.2 2.75,-2.05 4.2,-2.55 l 0,-0.025 0,-0.025 c 0.5,-0.7 1.05,-1.4 1.6,-2.15 0.8,-1 1.4,-1.6 1.85,-1.8 0.4,-0.2 0.65,-0.3 0.75,-0.3 0.05,0 0.25,-0.05 0.7,-0.1 0.45,-0.1 0.8,0.2 1.1,0.9 0.05,-0.25 0.15,0 0.3,0.75 0.15,0.95 0.3,1.8 0.35,2.5 3.45,0.65 5.65,-0.3 6.55,-2.9 C -1.9,7.95 -1.7,7.5 -1.45,7.1 -1.35,6.35 -1.1,5.65 -0.7,5.05 -0.3,4.45 0,4.05 0.25,3.9 0.5,3.75 0.7,3.6 0.85,3.45 c 0.1,-0.05 0.2,-0.05 0.25,0 0.05,0 0.6,0.05 1.55,0.2 0.95,0.1 1.6,0.35 2,0.8 C 6.35,4.6 8.15,5.05 10,5.7 9.85,5.3 9.15,3.35 7.9,-0.15 6.7,-3.65 5.95,-8.1 5.65,-13.45 5.3,-18.85 5.1,-23.1 5,-26.25 c -0.05,-0.95 -0.25,-1.8 -0.5,-2.6 -1.2,0.85 -2.35,1.7 -3.4,2.5 -1.1,0.8 -1.95,0.75 -2.55,-0.1 -0.65,-0.85 -0.95,-1.65 -0.9,-2.4 0.05,-0.75 0,-1.15 -0.05,-1.3 0,-0.05 0,-0.05 -0.05,-0.05 -0.1,0 -0.2,0 -0.35,0 z m -10.35,41.1 c -0.15,-0.05 -0.35,0 -0.55,0.25 0.2,-0.05 0.4,-0.05 0.55,-0.1 0,-0.05 0,-0.1 0,-0.15 z"
           inkscape:connector-curvature="0"
           style="fill:#851611" />
        <path
           id="path17"
           d="m -19,14.225 0,0.025 0.025,-0.025 -0.025,0"
           inkscape:connector-curvature="0"
           style="fill:#851611" />
      </g>
    </g>
    <g
       id="capeD006_1_800">
      <g
         id="element">
        <path
           id="path"
           d="m -2.725,-33.225 q -0.117,0.041 -0.225,0.075 c -0.35,0.35 -1.9,2.05 -4.55,5 -2.7,2.95 -4.6,6.85 -5.7,11.6 -1.1,4.75 -1.75,8 -1.95,9.75 -0.25,0.55 -0.45,2.25 -0.6,5.1 0.05,0.45 0.15,1.15 0.25,2.2 0.05,1 0.1,2.35 0.1,4.05 -0.05,0.5 -0.05,1 -0.1,1.45 -0.15,1.1 -0.5,2.05 -0.95,2.9 -0.35,0.55 -0.75,1.25 -1.2,2.05 1,-0.95 1.85,-2 2.6,-3.15 0.7,-1.2 1.1,-3.3 1.25,-6.25 0.2,-3.1 0.6,-7.55 1.25,-13.35 0.65,-5.8 1.95,-10 3.95,-12.65 2,-2.65 3.45,-4.25 4.35,-4.8 0.85,-0.55 1.35,-0.9 1.45,-0.95 0.15,0 0.25,0 0.35,0 0.05,0 0.05,0 0.05,0.05 0.05,0.15 0.1,0.55 0.05,1.3 -0.05,0.75 0.25,1.55 0.9,2.4 0.6,0.85 1.45,0.9 2.55,0.1 1.05,-0.8 2.2,-1.65 3.4,-2.5 -0.1,-0.25 -0.2,-0.45 -0.3,-0.7 -0.05,-0.1 -0.1,-0.2 -0.15,-0.3 -0.75,-1.5 -2,-2.75 -3.75,-3.8 -0.3,-0.05 -0.6,-0.1 -0.9,-0.05 -0.05,-0.05 -0.1,-0.05 -0.15,-0.05 -0.15,-0.05 -0.35,-0.05 -0.5,-0.1 -0.05,0 -0.15,0 -0.25,0 -0.45,0.15 -0.85,0.4 -1.2,0.65 M 1.1,3.45 C 1.05,3.4 0.95,3.4 0.85,3.45 0.7,3.6 0.5,3.75 0.25,3.9 0,4.05 -0.3,4.45 -0.7,5.05 -1.1,5.65 -1.35,6.35 -1.45,7.1 -1.4,7 -1.4,6.9 -1.35,6.85 L 1.125,4.625 1.15,4.65 C 1.2,4.6 1.3,4.6 1.35,4.55 1.5,4.5 1.6,4.5 1.75,4.45 1.85,4.4 1.95,4.4 2.05,4.4 2.3,4.35 2.5,4.35 2.75,4.35 3.35,4.35 4,4.4 4.65,4.45 4.25,4 3.6,3.75 2.65,3.65 1.7,3.5 1.15,3.45 1.1,3.45 z m -9.7,7.9 C -8.65,10.65 -8.8,9.8 -8.95,8.85 -9.1,8.1 -9.2,7.85 -9.25,8.1 c -0.3,-0.7 -0.65,-1 -1.1,-0.9 -0.45,0.05 -0.65,0.1 -0.7,0.1 -0.1,0 -0.35,0.1 -0.75,0.3 -0.45,0.2 -1.05,0.8 -1.85,1.8 -0.55,0.75 -1.1,1.45 -1.6,2.15 l 0,0.025 0,0.025 c 0.5,-0.2 1,-0.35 1.55,-0.45 0.2,-0.25 0.4,-0.3 0.55,-0.25 0,0.05 0,0.1 0,0.15 0.6,-0.1 1.25,-0.15 1.9,-0.1 0.7,0.05 1.45,0.15 2.2,0.3 0.15,0.05 0.3,0.05 0.45,0.1 z"
           inkscape:connector-curvature="0"
           style="fill:#c21d1a" />
        <path
           id="path1"
           d="m -2.8,-30.2 c -0.1,0.05 -0.6,0.4 -1.45,0.95 -0.9,0.55 -2.35,2.15 -4.35,4.8 -2,2.65 -3.3,6.85 -3.95,12.65 -0.65,5.8 -1.05,10.25 -1.25,13.35 -0.15,2.95 -0.55,5.05 -1.25,6.25 -0.75,1.15 -1.6,2.2 -2.6,3.15 -0.5,0.9 -1.1,1.95 -1.8,3.2 1.35,-1.2 2.75,-2.05 4.2,-2.55 l 0,-0.025 0,-0.025 c 0.5,-0.7 1.05,-1.4 1.6,-2.15 0.8,-1 1.4,-1.6 1.85,-1.8 0.4,-0.2 0.65,-0.3 0.75,-0.3 0.05,0 0.25,-0.05 0.7,-0.1 0.45,-0.1 0.8,0.2 1.1,0.9 0.05,-0.25 0.15,0 0.3,0.75 0.15,0.95 0.3,1.8 0.35,2.5 3.45,0.65 5.65,-0.3 6.55,-2.9 C -1.9,7.95 -1.7,7.5 -1.45,7.1 -1.35,6.35 -1.1,5.65 -0.7,5.05 -0.3,4.45 0,4.05 0.25,3.9 0.5,3.75 0.7,3.6 0.85,3.45 c 0.1,-0.05 0.2,-0.05 0.25,0 0.05,0 0.6,0.05 1.55,0.2 0.95,0.1 1.6,0.35 2,0.8 C 6.35,4.6 8.15,5.05 10,5.7 9.85,5.3 9.15,3.35 7.9,-0.15 6.7,-3.65 5.95,-8.1 5.65,-13.45 5.3,-18.85 5.1,-23.1 5,-26.25 c -0.05,-0.95 -0.25,-1.8 -0.5,-2.6 -1.2,0.85 -2.35,1.7 -3.4,2.5 -1.1,0.8 -1.95,0.75 -2.55,-0.1 -0.65,-0.85 -0.95,-1.65 -0.9,-2.4 0.05,-0.75 0,-1.15 -0.05,-1.3 0,-0.05 0,-0.05 -0.05,-0.05 -0.1,0 -0.2,0 -0.35,0 z m -10.35,41.1 c -0.15,-0.05 -0.35,0 -0.55,0.25 0.2,-0.05 0.4,-0.05 0.55,-0.1 0,-0.05 0,-0.1 0,-0.15 z"
           inkscape:connector-curvature="0"
           style="fill:#851611" />
        <path
           id="path8"
           d="m -19,14.225 0,0.025 0.025,-0.025 -0.025,0"
           inkscape:connector-curvature="0"
           style="fill:#851611" />
      </g>
    </g>
  </g>
</svg>
