<?xml version="1.0" encoding="UTF-8" standalone="no"?>
<!-- Generator: flash2svg, http://dissentgraphics.com/tools/flash2svg -->

<svg
   xmlns:dc="http://purl.org/dc/elements/1.1/"
   xmlns:cc="http://creativecommons.org/ns#"
   xmlns:rdf="http://www.w3.org/1999/02/22-rdf-syntax-ns#"
   xmlns:svg="http://www.w3.org/2000/svg"
   xmlns="http://www.w3.org/2000/svg"
   xmlns:sodipodi="http://sodipodi.sourceforge.net/DTD/sodipodi-0.dtd"
   xmlns:inkscape="http://www.inkscape.org/namespaces/inkscape"
   id="AvatarAssets"
   image-rendering="auto"
   version="1.1"
   x="0px"
   y="0px"
   width="28.65909"
   height="49.556347"
   viewBox="0 0 28.65909 49.556347"
   inkscape:version="0.48.4 r9939"
   sodipodi:docname="AvatarAssets_coatOffsideC006.ANI-ignore_walk2x.svg">
  <metadata
     id="metadata3379">
    <rdf:RDF>
      <cc:Work
         rdf:about="">
        <dc:format>image/svg+xml</dc:format>
        <dc:type
           rdf:resource="http://purl.org/dc/dcmitype/StillImage" />
      </cc:Work>
    </rdf:RDF>
  </metadata>
  <sodipodi:namedview
     pagecolor="#ffffff"
     bordercolor="#666666"
     borderopacity="1"
     objecttolerance="10"
     gridtolerance="10"
     guidetolerance="10"
     inkscape:pageopacity="0"
     inkscape:pageshadow="2"
     inkscape:window-width="640"
     inkscape:window-height="480"
     id="namedview3377"
     showgrid="false"
     fit-margin-top="0"
     fit-margin-left="0"
     fit-margin-right="0"
     fit-margin-bottom="0"
     inkscape:zoom="1.9032258"
     inkscape:cx="49.8"
     inkscape:cy="-43.65"
     inkscape:window-x="0"
     inkscape:window-y="0"
     inkscape:window-maximized="0"
     inkscape:current-layer="AvatarAssets" />
  <defs
     id="defs3219" />
  <g
     id="coatOffsideC7"
     overflow="visible"
     style="overflow:visible"
     transform="translate(17.8,31.206348)">
    <g
       id="coatOffsideC006_2_150">
      <g
         id="element30">
        <path
           id="path30"
           d="m 3.25,-30.75 -1,-0.4 c -1.65,-0.3 -2.75,0.6 -3.3,2.65 l -1.65,5.5 1.65,-5.5 c 0,0 -3.2,10 -3.75,13.9 -0.5,3.9 -6.1,14.45 -7.2,17.2 l -5.8,14.75 c 0,0 1.9,-1.95 4.65,-3.35 C -10.4,12.55 -7,13.1 -2.5,12.6 2,12.1 4.45,13.9 4.45,13.9 L 4,12.75 c -0.25,-0.7 0,-2.5 0.75,-5 0.75,-2.5 2.6,-8.6 3.5,-10.9 Q 9,-5 9.95,-8.8 q 1,-4 0.9,-4.95 C 10.7,-14.9 9.9,-17.65 8.45,-22 6.95,-26.35 5.85,-29 5.1,-29.85 L 4.95,-29.9 c -0.35,-0.25 -0.9,-0.5 -1.7,-0.85 z"
           inkscape:connector-curvature="0"
           style="fill:#5b0d11" />
      </g>
      <animate
         attributeName="display"
         begin="0s"
         repeatCount="1"
         dur="1.792s"
         keyTimes="0;0.814;1"
         values="none;inline;none"
         id="animate3225" />
    </g>
    <g
       id="coatOffsideC006_2_149">
      <g
         id="element29">
        <path
           id="path29"
           d="m 2.55,-31.05 q -0.3,-0.05 -0.6,-0.1 c -1.35,-0.15 -2.3,0.65 -2.85,2.3 -0.1,0.25 -0.2,0.5 -0.25,0.75 l -1.4,4.6 c -0.1,0.35 -0.2,0.65 -0.3,1 -0.95,3.3 -1.55,5.75 -1.8,7.3 -0.05,0.45 -0.1,0.85 -0.2,1.25 -0.3,1.65 -1.15,4.1 -2.6,7.35 -0.05,0.15 -0.15,0.3 -0.2,0.45 -1.05,2.35 -2.25,5.05 -3.6,8.1 -0.45,1.05 -0.85,2.15 -1.3,3.2 -1.7,4.15 -2.75,8.05 -3.1,11.7 l 0.05,-0.05 c 0.35,-0.35 0.75,-0.65 1.2,-1 1.05,-0.75 2.2,-1.4 3.35,-1.9 0.3,-0.15 0.6,-0.25 0.95,-0.35 1.15,-0.35 2.35,-0.6 3.7,-0.75 0.65,-0.1 1.35,-0.15 2.15,-0.2 1.25,-0.15 2.55,-0.2 3.9,-0.25 0.3,0 0.6,0 0.85,0 1.35,0 2.75,0.2 4.2,0.6 0.45,0.15 0.9,0.3 1.3,0.45 0.05,0 0.1,0 0.15,0 C 5.9,13.05 5.7,12.65 5.5,12.25 4.9,11.15 4.8,9.55 5.15,7.4 5.2,7 5.25,6.6 5.3,6.2 5.85,3.2 6.6,0.7 7.45,-1.3 7.75,-2.05 8,-2.75 8.25,-3.35 8.85,-4.8 9.4,-6.6 9.95,-8.75 l 0,-0.05 c 0.65,-2.65 0.95,-4.25 0.9,-4.9 l 0,-0.05 c -0.15,-1.15 -0.9,-3.85 -2.35,-8.1 -0.05,-0.1 -0.05,-0.2 -0.1,-0.3 -1.35,-3.95 -2.35,-6.4 -3.1,-7.4 C 5.25,-29.6 5.25,-29.6 5.2,-29.65 5.1,-29.8 5,-29.9 4.85,-29.95 4.8,-30 4.75,-30 4.7,-30.05 4.45,-30.2 4.05,-30.4 3.6,-30.6 3.4,-30.65 3.2,-30.75 2.95,-30.85 l -0.4,-0.2 z"
           inkscape:connector-curvature="0"
           style="fill:#5b0d11" />
      </g>
      <animate
         attributeName="display"
         begin="0s"
         repeatCount="1"
         dur="1.792s"
         keyTimes="0;0.791;0.814;1"
         values="none;inline;none;none"
         id="animate3230" />
    </g>
    <g
       id="coatOffsideC006_2_148">
      <g
         id="element28">
        <path
           id="path28"
           d="m 7.35,-1.6 c 1.05,-2.25 1.95,-4.65 2.6,-7.25 0.65,-2.65 0.95,-4.25 0.9,-4.9 C 10.7,-14.9 9.9,-17.65 8.45,-22 6.95,-26.35 5.85,-29 5.1,-29.85 L 4.95,-29.9 c -0.35,-0.25 -0.9,-0.5 -1.7,-0.85 l -1,-0.4 c -1.65,-0.3 -2.75,0.6 -3.3,2.65 L -2.7,-23 c -1.15,3.95 -1.8,6.75 -1.95,8.4 -0.15,1.6 -0.95,4.05 -2.3,7.4 -1.4,3.3 -3.05,7.15 -4.9,11.6 -1.85,4.45 -2.45,8.4 -1.7,11.9 1.6,-1.35 3.45,-2.3 5.55,-2.85 2.1,-0.6 4.05,-1 5.85,-1.15 C -0.4,12.1 1.2,12.05 2.6,12.15 4,12.25 5.75,12.55 7.9,13.1 6.15,10.95 5.35,8.55 5.5,5.8 5.65,3.05 6.3,0.6 7.35,-1.6 z"
           inkscape:connector-curvature="0"
           style="fill:#5b0d11" />
      </g>
      <animate
         attributeName="display"
         begin="0s"
         repeatCount="1"
         dur="1.792s"
         keyTimes="0;0.767;0.791;1"
         values="none;inline;none;none"
         id="animate3235" />
    </g>
    <g
       id="coatOffsideC006_2_147">
      <g
         id="element27">
        <path
           id="path27"
           d="m 8.25,-1.85 c 0.45,-2.05 1.05,-4.4 1.7,-7 0.65,-2.65 0.95,-4.25 0.9,-4.9 C 10.7,-14.9 9.9,-17.65 8.45,-22 6.95,-26.35 5.85,-29 5.1,-29.85 L 4.95,-29.9 c -0.35,-0.25 -0.9,-0.5 -1.7,-0.85 l -1,-0.4 c -1.65,-0.3 -2.75,0.6 -3.3,2.65 L -2.7,-23 c -1.15,3.95 -1.8,6.75 -1.95,8.4 -0.15,1.6 -0.8,4.1 -1.85,7.55 -1.1,3.45 -2.5,7.45 -4.15,12.1 -2.2,6.1 -2.45,10.5 -0.75,13.25 0.2,-2.25 1.3,-3.65 3.25,-4.2 2.1,-0.65 3.75,-1 4.95,-1.05 1.2,-0.15 2.7,-0.1 4.45,0.15 1.75,0.15 3.1,0.4 4.1,0.7 l 3.9,0.6 C 7.9,12.35 7.25,9.6 7.35,6.25 7.4,2.85 7.7,0.15 8.25,-1.85 z"
           inkscape:connector-curvature="0"
           style="fill:#5b0d11" />
      </g>
      <animate
         attributeName="display"
         begin="0s"
         repeatCount="1"
         dur="1.792s"
         keyTimes="0;0.744;0.767;1"
         values="none;inline;none;none"
         id="animate3240" />
    </g>
    <g
       id="coatOffsideC006_2_146">
      <g
         id="element26">
        <path
           id="path26"
           d="m 4.95,-29.9 c -0.35,-0.25 -0.9,-0.5 -1.7,-0.85 l -1,-0.4 c -1.65,-0.3 -2.75,0.6 -3.3,2.65 L -2.7,-23 c -1.15,3.95 -1.85,6.75 -2.05,8.4 -0.25,1.6 -0.9,4.05 -2.05,7.35 -1.15,3.3 -2.5,6.6 -3.95,9.85 -2.9,5.5 -4.5,10.75 -4.85,15.75 1.4,-2 2.75,-3.2 4,-3.65 1.25,-0.45 2.55,-0.85 3.9,-1.15 1.35,-0.3 3.05,-0.55 5.1,-0.7 2.05,-0.15 3.6,-0.1 4.75,0.2 C 3.3,13.3 4.8,13.65 6.7,14 L 6.05,12.15 C 5.5,10.05 5.6,7.4 6.25,4.2 6.9,0.95 7.6,-1.5 8.25,-3.15 Q 9,-5 9.95,-8.8 q 1,-4 0.9,-4.95 C 10.7,-14.9 9.9,-17.65 8.45,-22 6.95,-26.35 5.85,-29 5.1,-29.85 L 4.95,-29.9 z"
           inkscape:connector-curvature="0"
           style="fill:#5b0d11" />
      </g>
      <animate
         attributeName="display"
         begin="0s"
         repeatCount="1"
         dur="1.792s"
         keyTimes="0;0.721;0.744;1"
         values="none;inline;none;none"
         id="animate3245" />
    </g>
    <g
       id="coatOffsideC006_2_144">
      <g
         id="element25">
        <path
           id="path25"
           d="m 3.25,-30.75 -1,-0.4 c -1.65,-0.3 -2.75,0.6 -3.3,2.65 l -1.65,5.5 1.65,-5.5 c 0,0 -3.2,10 -3.75,13.9 -0.5,3.9 -6.1,14.45 -7.2,17.2 l -5.8,14.75 c 0,0 1.9,-1.95 4.65,-3.35 C -10.4,12.55 -7,13.1 -2.5,12.6 2,12.1 4.45,13.9 4.45,13.9 L 4,12.75 c -0.25,-0.7 0,-2.5 0.75,-5 0.75,-2.5 2.6,-8.6 3.5,-10.9 Q 9,-5 9.95,-8.8 q 1,-4 0.9,-4.95 C 10.7,-14.9 9.9,-17.65 8.45,-22 6.95,-26.35 5.85,-29 5.1,-29.85 L 4.95,-29.9 c -0.35,-0.25 -0.9,-0.5 -1.7,-0.85 z"
           inkscape:connector-curvature="0"
           style="fill:#5b0d11" />
      </g>
      <animate
         attributeName="display"
         begin="0s"
         repeatCount="1"
         dur="1.792s"
         keyTimes="0;0.674;0.721;1"
         values="none;inline;none;none"
         id="animate3250" />
    </g>
    <g
       id="coatOffsideC006_2_143">
      <g
         id="element24">
        <path
           id="path24"
           d="m 2.55,-31.05 q -0.3,-0.05 -0.6,-0.1 c -1.35,-0.15 -2.3,0.65 -2.85,2.3 -0.1,0.25 -0.2,0.5 -0.25,0.75 l -1.4,4.6 c -0.1,0.35 -0.2,0.65 -0.3,1 -0.95,3.3 -1.55,5.75 -1.8,7.3 -0.05,0.45 -0.1,0.85 -0.2,1.25 -0.3,1.65 -1.15,4.1 -2.6,7.35 -0.05,0.15 -0.15,0.3 -0.2,0.45 -1.05,2.35 -2.25,5.05 -3.6,8.1 -0.45,1.05 -0.85,2.15 -1.3,3.2 -1.7,4.15 -2.75,8.05 -3.1,11.7 l 0.05,-0.05 c 0.35,-0.35 0.75,-0.65 1.2,-1 1.05,-0.75 2.2,-1.4 3.35,-1.9 0.3,-0.15 0.6,-0.25 0.95,-0.35 1.15,-0.35 2.35,-0.6 3.7,-0.75 0.65,-0.1 1.35,-0.15 2.15,-0.2 1.25,-0.15 2.55,-0.2 3.9,-0.25 0.3,0 0.6,0 0.85,0 1.35,0 2.75,0.2 4.2,0.6 0.45,0.15 0.9,0.3 1.3,0.45 0.05,0 0.1,0 0.15,0 C 5.9,13.05 5.7,12.65 5.5,12.25 4.9,11.15 4.8,9.55 5.15,7.4 5.2,7 5.25,6.6 5.3,6.2 5.85,3.2 6.6,0.7 7.45,-1.3 7.75,-2.05 8,-2.75 8.25,-3.35 8.85,-4.8 9.4,-6.6 9.95,-8.75 l 0,-0.05 c 0.65,-2.65 0.95,-4.25 0.9,-4.9 l 0,-0.05 c -0.15,-1.15 -0.9,-3.85 -2.35,-8.1 -0.05,-0.1 -0.05,-0.2 -0.1,-0.3 -1.35,-3.95 -2.35,-6.4 -3.1,-7.4 C 5.25,-29.6 5.25,-29.6 5.2,-29.65 5.1,-29.8 5,-29.9 4.85,-29.95 4.8,-30 4.75,-30 4.7,-30.05 4.45,-30.2 4.05,-30.4 3.6,-30.6 3.4,-30.65 3.2,-30.75 2.95,-30.85 l -0.4,-0.2 z"
           inkscape:connector-curvature="0"
           style="fill:#5b0d11" />
      </g>
      <animate
         attributeName="display"
         begin="0s"
         repeatCount="1"
         dur="1.792s"
         keyTimes="0;0.651;0.674;1"
         values="none;inline;none;none"
         id="animate3255" />
    </g>
    <g
       id="coatOffsideC006_2_142">
      <g
         id="element23">
        <path
           id="path23"
           d="m 7.35,-1.6 c 1.05,-2.25 1.95,-4.65 2.6,-7.25 0.65,-2.65 0.95,-4.25 0.9,-4.9 C 10.7,-14.9 9.9,-17.65 8.45,-22 6.95,-26.35 5.85,-29 5.1,-29.85 L 4.95,-29.9 c -0.35,-0.25 -0.9,-0.5 -1.7,-0.85 l -1,-0.4 c -1.65,-0.3 -2.75,0.6 -3.3,2.65 L -2.7,-23 c -1.15,3.95 -1.8,6.75 -1.95,8.4 -0.15,1.6 -0.95,4.05 -2.3,7.4 -1.4,3.3 -3.05,7.15 -4.9,11.6 -1.85,4.45 -2.45,8.4 -1.7,11.9 1.6,-1.35 3.45,-2.3 5.55,-2.85 2.1,-0.6 4.05,-1 5.85,-1.15 C -0.4,12.1 1.2,12.05 2.6,12.15 4,12.25 5.75,12.55 7.9,13.1 6.15,10.95 5.35,8.55 5.5,5.8 5.65,3.05 6.3,0.6 7.35,-1.6 z"
           inkscape:connector-curvature="0"
           style="fill:#5b0d11" />
      </g>
      <animate
         attributeName="display"
         begin="0s"
         repeatCount="1"
         dur="1.792s"
         keyTimes="0;0.628;0.651;1"
         values="none;inline;none;none"
         id="animate3260" />
    </g>
    <g
       id="coatOffsideC006_2_141">
      <g
         id="element22">
        <path
           id="path22"
           d="m 8.25,-1.85 c 0.45,-2.05 1.05,-4.4 1.7,-7 0.65,-2.65 0.95,-4.25 0.9,-4.9 C 10.7,-14.9 9.9,-17.65 8.45,-22 6.95,-26.35 5.85,-29 5.1,-29.85 L 4.95,-29.9 c -0.35,-0.25 -0.9,-0.5 -1.7,-0.85 l -1,-0.4 c -1.65,-0.3 -2.75,0.6 -3.3,2.65 L -2.7,-23 c -1.15,3.95 -1.8,6.75 -1.95,8.4 -0.15,1.6 -0.8,4.1 -1.85,7.55 -1.1,3.45 -2.5,7.45 -4.15,12.1 -2.2,6.1 -2.45,10.5 -0.75,13.25 0.2,-2.25 1.3,-3.65 3.25,-4.2 2.1,-0.65 3.75,-1 4.95,-1.05 1.2,-0.15 2.7,-0.1 4.45,0.15 1.75,0.15 3.1,0.4 4.1,0.7 l 3.9,0.6 C 7.9,12.35 7.25,9.6 7.35,6.25 7.4,2.85 7.7,0.15 8.25,-1.85 z"
           inkscape:connector-curvature="0"
           style="fill:#5b0d11" />
      </g>
      <animate
         attributeName="display"
         begin="0s"
         repeatCount="1"
         dur="1.792s"
         keyTimes="0;0.605;0.628;1"
         values="none;inline;none;none"
         id="animate3265" />
    </g>
    <g
       id="coatOffsideC006_2_140">
      <g
         id="element21">
        <path
           id="path21"
           d="m 4.95,-29.9 c -0.35,-0.25 -0.9,-0.5 -1.7,-0.85 l -1,-0.4 c -1.65,-0.3 -2.75,0.6 -3.3,2.65 L -2.7,-23 c -1.15,3.95 -1.85,6.75 -2.05,8.4 -0.25,1.6 -0.9,4.05 -2.05,7.35 -1.15,3.3 -2.5,6.6 -3.95,9.85 -2.9,5.5 -4.5,10.75 -4.85,15.75 1.4,-2 2.75,-3.2 4,-3.65 1.25,-0.45 2.55,-0.85 3.9,-1.15 1.35,-0.3 3.05,-0.55 5.1,-0.7 2.05,-0.15 3.6,-0.1 4.75,0.2 C 3.3,13.3 4.8,13.65 6.7,14 L 6.05,12.15 C 5.5,10.05 5.6,7.4 6.25,4.2 6.9,0.95 7.6,-1.5 8.25,-3.15 Q 9,-5 9.95,-8.8 q 1,-4 0.9,-4.95 C 10.7,-14.9 9.9,-17.65 8.45,-22 6.95,-26.35 5.85,-29 5.1,-29.85 L 4.95,-29.9 z"
           inkscape:connector-curvature="0"
           style="fill:#5b0d11" />
      </g>
      <animate
         attributeName="display"
         begin="0s"
         repeatCount="1"
         dur="1.792s"
         keyTimes="0;0.581;0.605;1"
         values="none;inline;none;none"
         id="animate3270" />
    </g>
    <g
       id="coatOffsideC006_2_138">
      <g
         id="element20">
        <path
           id="path20"
           d="m 3.25,-30.75 -1,-0.4 c -1.65,-0.3 -2.75,0.6 -3.3,2.65 l -1.65,5.5 1.65,-5.5 c 0,0 -3.2,10 -3.75,13.9 -0.5,3.9 -6.1,14.45 -7.2,17.2 l -5.8,14.75 c 0,0 1.9,-1.95 4.65,-3.35 C -10.4,12.55 -7,13.1 -2.5,12.6 2,12.1 4.45,13.9 4.45,13.9 L 4,12.75 c -0.25,-0.7 0,-2.5 0.75,-5 0.75,-2.5 2.6,-8.6 3.5,-10.9 Q 9,-5 9.95,-8.8 q 1,-4 0.9,-4.95 C 10.7,-14.9 9.9,-17.65 8.45,-22 6.95,-26.35 5.85,-29 5.1,-29.85 L 4.95,-29.9 c -0.35,-0.25 -0.9,-0.5 -1.7,-0.85 z"
           inkscape:connector-curvature="0"
           style="fill:#5b0d11" />
      </g>
      <animate
         attributeName="display"
         begin="0s"
         repeatCount="1"
         dur="1.792s"
         keyTimes="0;0.535;0.581;1"
         values="none;inline;none;none"
         id="animate3275" />
    </g>
    <g
       id="coatOffsideC006_2_137">
      <g
         id="element19">
        <path
           id="path19"
           d="m 2.55,-31.05 q -0.3,-0.05 -0.6,-0.1 c -1.35,-0.15 -2.3,0.65 -2.85,2.3 -0.1,0.25 -0.2,0.5 -0.25,0.75 l -1.4,4.6 c -0.1,0.35 -0.2,0.65 -0.3,1 -0.95,3.3 -1.55,5.75 -1.8,7.3 -0.05,0.45 -0.1,0.85 -0.2,1.25 -0.3,1.65 -1.15,4.1 -2.6,7.35 -0.05,0.15 -0.15,0.3 -0.2,0.45 -1.05,2.35 -2.25,5.05 -3.6,8.1 -0.45,1.05 -0.85,2.15 -1.3,3.2 -1.7,4.15 -2.75,8.05 -3.1,11.7 l 0.05,-0.05 c 0.35,-0.35 0.75,-0.65 1.2,-1 1.05,-0.75 2.2,-1.4 3.35,-1.9 0.3,-0.15 0.6,-0.25 0.95,-0.35 1.15,-0.35 2.35,-0.6 3.7,-0.75 0.65,-0.1 1.35,-0.15 2.15,-0.2 1.25,-0.15 2.55,-0.2 3.9,-0.25 0.3,0 0.6,0 0.85,0 1.35,0 2.75,0.2 4.2,0.6 0.45,0.15 0.9,0.3 1.3,0.45 0.05,0 0.1,0 0.15,0 C 5.9,13.05 5.7,12.65 5.5,12.25 4.9,11.15 4.8,9.55 5.15,7.4 5.2,7 5.25,6.6 5.3,6.2 5.85,3.2 6.6,0.7 7.45,-1.3 7.75,-2.05 8,-2.75 8.25,-3.35 8.85,-4.8 9.4,-6.6 9.95,-8.75 l 0,-0.05 c 0.65,-2.65 0.95,-4.25 0.9,-4.9 l 0,-0.05 c -0.15,-1.15 -0.9,-3.85 -2.35,-8.1 -0.05,-0.1 -0.05,-0.2 -0.1,-0.3 -1.35,-3.95 -2.35,-6.4 -3.1,-7.4 C 5.25,-29.6 5.25,-29.6 5.2,-29.65 5.1,-29.8 5,-29.9 4.85,-29.95 4.8,-30 4.75,-30 4.7,-30.05 4.45,-30.2 4.05,-30.4 3.6,-30.6 3.4,-30.65 3.2,-30.75 2.95,-30.85 l -0.4,-0.2 z"
           inkscape:connector-curvature="0"
           style="fill:#5b0d11" />
      </g>
      <animate
         attributeName="display"
         begin="0s"
         repeatCount="1"
         dur="1.792s"
         keyTimes="0;0.512;0.535;1"
         values="none;inline;none;none"
         id="animate3280" />
    </g>
    <g
       id="coatOffsideC006_2_136">
      <g
         id="element18">
        <path
           id="path18"
           d="m 7.35,-1.6 c 1.05,-2.25 1.95,-4.65 2.6,-7.25 0.65,-2.65 0.95,-4.25 0.9,-4.9 C 10.7,-14.9 9.9,-17.65 8.45,-22 6.95,-26.35 5.85,-29 5.1,-29.85 L 4.95,-29.9 c -0.35,-0.25 -0.9,-0.5 -1.7,-0.85 l -1,-0.4 c -1.65,-0.3 -2.75,0.6 -3.3,2.65 L -2.7,-23 c -1.15,3.95 -1.8,6.75 -1.95,8.4 -0.15,1.6 -0.95,4.05 -2.3,7.4 -1.4,3.3 -3.05,7.15 -4.9,11.6 -1.85,4.45 -2.45,8.4 -1.7,11.9 1.6,-1.35 3.45,-2.3 5.55,-2.85 2.1,-0.6 4.05,-1 5.85,-1.15 C -0.4,12.1 1.2,12.05 2.6,12.15 4,12.25 5.75,12.55 7.9,13.1 6.15,10.95 5.35,8.55 5.5,5.8 5.65,3.05 6.3,0.6 7.35,-1.6 z"
           inkscape:connector-curvature="0"
           style="fill:#5b0d11" />
      </g>
      <animate
         attributeName="display"
         begin="0s"
         repeatCount="1"
         dur="1.792s"
         keyTimes="0;0.488;0.512;1"
         values="none;inline;none;none"
         id="animate3285" />
    </g>
    <g
       id="coatOffsideC006_2_135">
      <g
         id="element17">
        <path
           id="path17"
           d="m 8.25,-1.85 c 0.45,-2.05 1.05,-4.4 1.7,-7 0.65,-2.65 0.95,-4.25 0.9,-4.9 C 10.7,-14.9 9.9,-17.65 8.45,-22 6.95,-26.35 5.85,-29 5.1,-29.85 L 4.95,-29.9 c -0.35,-0.25 -0.9,-0.5 -1.7,-0.85 l -1,-0.4 c -1.65,-0.3 -2.75,0.6 -3.3,2.65 L -2.7,-23 c -1.15,3.95 -1.8,6.75 -1.95,8.4 -0.15,1.6 -0.8,4.1 -1.85,7.55 -1.1,3.45 -2.5,7.45 -4.15,12.1 -2.2,6.1 -2.45,10.5 -0.75,13.25 0.2,-2.25 1.3,-3.65 3.25,-4.2 2.1,-0.65 3.75,-1 4.95,-1.05 1.2,-0.15 2.7,-0.1 4.45,0.15 1.75,0.15 3.1,0.4 4.1,0.7 l 3.9,0.6 C 7.9,12.35 7.25,9.6 7.35,6.25 7.4,2.85 7.7,0.15 8.25,-1.85 z"
           inkscape:connector-curvature="0"
           style="fill:#5b0d11" />
      </g>
      <animate
         attributeName="display"
         begin="0s"
         repeatCount="1"
         dur="1.792s"
         keyTimes="0;0.465;0.488;1"
         values="none;inline;none;none"
         id="animate3290" />
    </g>
    <g
       id="coatOffsideC006_2_134">
      <g
         id="element16">
        <path
           id="path16"
           d="m 4.95,-29.9 c -0.35,-0.25 -0.9,-0.5 -1.7,-0.85 l -1,-0.4 c -1.65,-0.3 -2.75,0.6 -3.3,2.65 L -2.7,-23 c -1.15,3.95 -1.85,6.75 -2.05,8.4 -0.25,1.6 -0.9,4.05 -2.05,7.35 -1.15,3.3 -2.5,6.6 -3.95,9.85 -2.9,5.5 -4.5,10.75 -4.85,15.75 1.4,-2 2.75,-3.2 4,-3.65 1.25,-0.45 2.55,-0.85 3.9,-1.15 1.35,-0.3 3.05,-0.55 5.1,-0.7 2.05,-0.15 3.6,-0.1 4.75,0.2 C 3.3,13.3 4.8,13.65 6.7,14 L 6.05,12.15 C 5.5,10.05 5.6,7.4 6.25,4.2 6.9,0.95 7.6,-1.5 8.25,-3.15 Q 9,-5 9.95,-8.8 q 1,-4 0.9,-4.95 C 10.7,-14.9 9.9,-17.65 8.45,-22 6.95,-26.35 5.85,-29 5.1,-29.85 L 4.95,-29.9 z"
           inkscape:connector-curvature="0"
           style="fill:#5b0d11" />
      </g>
      <animate
         attributeName="display"
         begin="0s"
         repeatCount="1"
         dur="1.792s"
         keyTimes="0;0.442;0.465;1"
         values="none;inline;none;none"
         id="animate3295" />
    </g>
    <g
       id="coatOffsideC006_2_132">
      <g
         id="element15">
        <path
           id="path15"
           d="m 3.25,-30.75 -1,-0.4 c -1.65,-0.3 -2.75,0.6 -3.3,2.65 l -1.65,5.5 1.65,-5.5 c 0,0 -3.2,10 -3.75,13.9 -0.5,3.9 -6.1,14.45 -7.2,17.2 l -5.8,14.75 c 0,0 1.9,-1.95 4.65,-3.35 C -10.4,12.55 -7,13.1 -2.5,12.6 2,12.1 4.45,13.9 4.45,13.9 L 4,12.75 c -0.25,-0.7 0,-2.5 0.75,-5 0.75,-2.5 2.6,-8.6 3.5,-10.9 Q 9,-5 9.95,-8.8 q 1,-4 0.9,-4.95 C 10.7,-14.9 9.9,-17.65 8.45,-22 6.95,-26.35 5.85,-29 5.1,-29.85 L 4.95,-29.9 c -0.35,-0.25 -0.9,-0.5 -1.7,-0.85 z"
           inkscape:connector-curvature="0"
           style="fill:#5b0d11" />
      </g>
      <animate
         attributeName="display"
         begin="0s"
         repeatCount="1"
         dur="1.792s"
         keyTimes="0;0.395;0.442;1"
         values="none;inline;none;none"
         id="animate3300" />
    </g>
    <g
       id="coatOffsideC006_2_131">
      <g
         id="element14">
        <path
           id="path14"
           d="m 2.55,-31.05 q -0.3,-0.05 -0.6,-0.1 c -1.35,-0.15 -2.3,0.65 -2.85,2.3 -0.1,0.25 -0.2,0.5 -0.25,0.75 l -1.4,4.6 c -0.1,0.35 -0.2,0.65 -0.3,1 -0.95,3.3 -1.55,5.75 -1.8,7.3 -0.05,0.45 -0.1,0.85 -0.2,1.25 -0.3,1.65 -1.15,4.1 -2.6,7.35 -0.05,0.15 -0.15,0.3 -0.2,0.45 -1.05,2.35 -2.25,5.05 -3.6,8.1 -0.45,1.05 -0.85,2.15 -1.3,3.2 -1.7,4.15 -2.75,8.05 -3.1,11.7 l 0.05,-0.05 c 0.35,-0.35 0.75,-0.65 1.2,-1 1.05,-0.75 2.2,-1.4 3.35,-1.9 0.3,-0.15 0.6,-0.25 0.95,-0.35 1.15,-0.35 2.35,-0.6 3.7,-0.75 0.65,-0.1 1.35,-0.15 2.15,-0.2 1.25,-0.15 2.55,-0.2 3.9,-0.25 0.3,0 0.6,0 0.85,0 1.35,0 2.75,0.2 4.2,0.6 0.45,0.15 0.9,0.3 1.3,0.45 0.05,0 0.1,0 0.15,0 C 5.9,13.05 5.7,12.65 5.5,12.25 4.9,11.15 4.8,9.55 5.15,7.4 5.2,7 5.25,6.6 5.3,6.2 5.85,3.2 6.6,0.7 7.45,-1.3 7.75,-2.05 8,-2.75 8.25,-3.35 8.85,-4.8 9.4,-6.6 9.95,-8.75 l 0,-0.05 c 0.65,-2.65 0.95,-4.25 0.9,-4.9 l 0,-0.05 c -0.15,-1.15 -0.9,-3.85 -2.35,-8.1 -0.05,-0.1 -0.05,-0.2 -0.1,-0.3 -1.35,-3.95 -2.35,-6.4 -3.1,-7.4 C 5.25,-29.6 5.25,-29.6 5.2,-29.65 5.1,-29.8 5,-29.9 4.85,-29.95 4.8,-30 4.75,-30 4.7,-30.05 4.45,-30.2 4.05,-30.4 3.6,-30.6 3.4,-30.65 3.2,-30.75 2.95,-30.85 l -0.4,-0.2 z"
           inkscape:connector-curvature="0"
           style="fill:#5b0d11" />
      </g>
      <animate
         attributeName="display"
         begin="0s"
         repeatCount="1"
         dur="1.792s"
         keyTimes="0;0.372;0.395;1"
         values="none;inline;none;none"
         id="animate3305" />
    </g>
    <g
       id="coatOffsideC006_2_130">
      <g
         id="element13">
        <path
           id="path13"
           d="m 7.35,-1.6 c 1.05,-2.25 1.95,-4.65 2.6,-7.25 0.65,-2.65 0.95,-4.25 0.9,-4.9 C 10.7,-14.9 9.9,-17.65 8.45,-22 6.95,-26.35 5.85,-29 5.1,-29.85 L 4.95,-29.9 c -0.35,-0.25 -0.9,-0.5 -1.7,-0.85 l -1,-0.4 c -1.65,-0.3 -2.75,0.6 -3.3,2.65 L -2.7,-23 c -1.15,3.95 -1.8,6.75 -1.95,8.4 -0.15,1.6 -0.95,4.05 -2.3,7.4 -1.4,3.3 -3.05,7.15 -4.9,11.6 -1.85,4.45 -2.45,8.4 -1.7,11.9 1.6,-1.35 3.45,-2.3 5.55,-2.85 2.1,-0.6 4.05,-1 5.85,-1.15 C -0.4,12.1 1.2,12.05 2.6,12.15 4,12.25 5.75,12.55 7.9,13.1 6.15,10.95 5.35,8.55 5.5,5.8 5.65,3.05 6.3,0.6 7.35,-1.6 z"
           inkscape:connector-curvature="0"
           style="fill:#5b0d11" />
      </g>
      <animate
         attributeName="display"
         begin="0s"
         repeatCount="1"
         dur="1.792s"
         keyTimes="0;0.349;0.372;1"
         values="none;inline;none;none"
         id="animate3310" />
    </g>
    <g
       id="coatOffsideC006_2_129">
      <g
         id="element12">
        <path
           id="path12"
           d="m 8.25,-1.85 c 0.45,-2.05 1.05,-4.4 1.7,-7 0.65,-2.65 0.95,-4.25 0.9,-4.9 C 10.7,-14.9 9.9,-17.65 8.45,-22 6.95,-26.35 5.85,-29 5.1,-29.85 L 4.95,-29.9 c -0.35,-0.25 -0.9,-0.5 -1.7,-0.85 l -1,-0.4 c -1.65,-0.3 -2.75,0.6 -3.3,2.65 L -2.7,-23 c -1.15,3.95 -1.8,6.75 -1.95,8.4 -0.15,1.6 -0.8,4.1 -1.85,7.55 -1.1,3.45 -2.5,7.45 -4.15,12.1 -2.2,6.1 -2.45,10.5 -0.75,13.25 0.2,-2.25 1.3,-3.65 3.25,-4.2 2.1,-0.65 3.75,-1 4.95,-1.05 1.2,-0.15 2.7,-0.1 4.45,0.15 1.75,0.15 3.1,0.4 4.1,0.7 l 3.9,0.6 C 7.9,12.35 7.25,9.6 7.35,6.25 7.4,2.85 7.7,0.15 8.25,-1.85 z"
           inkscape:connector-curvature="0"
           style="fill:#5b0d11" />
      </g>
      <animate
         attributeName="display"
         begin="0s"
         repeatCount="1"
         dur="1.792s"
         keyTimes="0;0.326;0.349;1"
         values="none;inline;none;none"
         id="animate3315" />
    </g>
    <g
       id="coatOffsideC006_2_128">
      <g
         id="element11">
        <path
           id="path11"
           d="m 4.95,-29.9 c -0.35,-0.25 -0.9,-0.5 -1.7,-0.85 l -1,-0.4 c -1.65,-0.3 -2.75,0.6 -3.3,2.65 L -2.7,-23 c -1.15,3.95 -1.85,6.75 -2.05,8.4 -0.25,1.6 -0.9,4.05 -2.05,7.35 -1.15,3.3 -2.5,6.6 -3.95,9.85 -2.9,5.5 -4.5,10.75 -4.85,15.75 1.4,-2 2.75,-3.2 4,-3.65 1.25,-0.45 2.55,-0.85 3.9,-1.15 1.35,-0.3 3.05,-0.55 5.1,-0.7 2.05,-0.15 3.6,-0.1 4.75,0.2 C 3.3,13.3 4.8,13.65 6.7,14 L 6.05,12.15 C 5.5,10.05 5.6,7.4 6.25,4.2 6.9,0.95 7.6,-1.5 8.25,-3.15 Q 9,-5 9.95,-8.8 q 1,-4 0.9,-4.95 C 10.7,-14.9 9.9,-17.65 8.45,-22 6.95,-26.35 5.85,-29 5.1,-29.85 L 4.95,-29.9 z"
           inkscape:connector-curvature="0"
           style="fill:#5b0d11" />
      </g>
      <animate
         attributeName="display"
         begin="0s"
         repeatCount="1"
         dur="1.792s"
         keyTimes="0;0.302;0.326;1"
         values="none;inline;none;none"
         id="animate3320" />
    </g>
    <g
       id="coatOffsideC006_2_126">
      <g
         id="element10">
        <path
           id="path10"
           d="m 3.25,-30.75 -1,-0.4 c -1.65,-0.3 -2.75,0.6 -3.3,2.65 l -1.65,5.5 1.65,-5.5 c 0,0 -3.2,10 -3.75,13.9 -0.5,3.9 -6.1,14.45 -7.2,17.2 l -5.8,14.75 c 0,0 1.9,-1.95 4.65,-3.35 C -10.4,12.55 -7,13.1 -2.5,12.6 2,12.1 4.45,13.9 4.45,13.9 L 4,12.75 c -0.25,-0.7 0,-2.5 0.75,-5 0.75,-2.5 2.6,-8.6 3.5,-10.9 Q 9,-5 9.95,-8.8 q 1,-4 0.9,-4.95 C 10.7,-14.9 9.9,-17.65 8.45,-22 6.95,-26.35 5.85,-29 5.1,-29.85 L 4.95,-29.9 c -0.35,-0.25 -0.9,-0.5 -1.7,-0.85 z"
           inkscape:connector-curvature="0"
           style="fill:#5b0d11" />
      </g>
      <animate
         attributeName="display"
         begin="0s"
         repeatCount="1"
         dur="1.792s"
         keyTimes="0;0.256;0.302;1"
         values="none;inline;none;none"
         id="animate3325" />
    </g>
    <g
       id="coatOffsideC006_2_125">
      <g
         id="element9">
        <path
           id="path9"
           d="m 2.55,-31.05 q -0.3,-0.05 -0.6,-0.1 c -1.35,-0.15 -2.3,0.65 -2.85,2.3 -0.1,0.25 -0.2,0.5 -0.25,0.75 l -1.4,4.6 c -0.1,0.35 -0.2,0.65 -0.3,1 -0.95,3.3 -1.55,5.75 -1.8,7.3 -0.05,0.45 -0.1,0.85 -0.2,1.25 -0.3,1.65 -1.15,4.1 -2.6,7.35 -0.05,0.15 -0.15,0.3 -0.2,0.45 -1.05,2.35 -2.25,5.05 -3.6,8.1 -0.45,1.05 -0.85,2.15 -1.3,3.2 -1.7,4.15 -2.75,8.05 -3.1,11.7 l 0.05,-0.05 c 0.35,-0.35 0.75,-0.65 1.2,-1 1.05,-0.75 2.2,-1.4 3.35,-1.9 0.3,-0.15 0.6,-0.25 0.95,-0.35 1.15,-0.35 2.35,-0.6 3.7,-0.75 0.65,-0.1 1.35,-0.15 2.15,-0.2 1.25,-0.15 2.55,-0.2 3.9,-0.25 0.3,0 0.6,0 0.85,0 1.35,0 2.75,0.2 4.2,0.6 0.45,0.15 0.9,0.3 1.3,0.45 0.05,0 0.1,0 0.15,0 C 5.9,13.05 5.7,12.65 5.5,12.25 4.9,11.15 4.8,9.55 5.15,7.4 5.2,7 5.25,6.6 5.3,6.2 5.85,3.2 6.6,0.7 7.45,-1.3 7.75,-2.05 8,-2.75 8.25,-3.35 8.85,-4.8 9.4,-6.6 9.95,-8.75 l 0,-0.05 c 0.65,-2.65 0.95,-4.25 0.9,-4.9 l 0,-0.05 c -0.15,-1.15 -0.9,-3.85 -2.35,-8.1 -0.05,-0.1 -0.05,-0.2 -0.1,-0.3 -1.35,-3.95 -2.35,-6.4 -3.1,-7.4 C 5.25,-29.6 5.25,-29.6 5.2,-29.65 5.1,-29.8 5,-29.9 4.85,-29.95 4.8,-30 4.75,-30 4.7,-30.05 4.45,-30.2 4.05,-30.4 3.6,-30.6 3.4,-30.65 3.2,-30.75 2.95,-30.85 l -0.4,-0.2 z"
           inkscape:connector-curvature="0"
           style="fill:#5b0d11" />
      </g>
      <animate
         attributeName="display"
         begin="0s"
         repeatCount="1"
         dur="1.792s"
         keyTimes="0;0.233;0.256;1"
         values="none;inline;none;none"
         id="animate3330" />
    </g>
    <g
       id="coatOffsideC006_2_124">
      <g
         id="element8">
        <path
           id="path8"
           d="m 7.35,-1.6 c 1.05,-2.25 1.95,-4.65 2.6,-7.25 0.65,-2.65 0.95,-4.25 0.9,-4.9 C 10.7,-14.9 9.9,-17.65 8.45,-22 6.95,-26.35 5.85,-29 5.1,-29.85 L 4.95,-29.9 c -0.35,-0.25 -0.9,-0.5 -1.7,-0.85 l -1,-0.4 c -1.65,-0.3 -2.75,0.6 -3.3,2.65 L -2.7,-23 c -1.15,3.95 -1.8,6.75 -1.95,8.4 -0.15,1.6 -0.95,4.05 -2.3,7.4 -1.4,3.3 -3.05,7.15 -4.9,11.6 -1.85,4.45 -2.45,8.4 -1.7,11.9 1.6,-1.35 3.45,-2.3 5.55,-2.85 2.1,-0.6 4.05,-1 5.85,-1.15 C -0.4,12.1 1.2,12.05 2.6,12.15 4,12.25 5.75,12.55 7.9,13.1 6.15,10.95 5.35,8.55 5.5,5.8 5.65,3.05 6.3,0.6 7.35,-1.6 z"
           inkscape:connector-curvature="0"
           style="fill:#5b0d11" />
      </g>
      <animate
         attributeName="display"
         begin="0s"
         repeatCount="1"
         dur="1.792s"
         keyTimes="0;0.209;0.233;1"
         values="none;inline;none;none"
         id="animate3335" />
    </g>
    <g
       id="coatOffsideC006_2_123">
      <g
         id="element7">
        <path
           id="path7"
           d="m 8.25,-1.85 c 0.45,-2.05 1.05,-4.4 1.7,-7 0.65,-2.65 0.95,-4.25 0.9,-4.9 C 10.7,-14.9 9.9,-17.65 8.45,-22 6.95,-26.35 5.85,-29 5.1,-29.85 L 4.95,-29.9 c -0.35,-0.25 -0.9,-0.5 -1.7,-0.85 l -1,-0.4 c -1.65,-0.3 -2.75,0.6 -3.3,2.65 L -2.7,-23 c -1.15,3.95 -1.8,6.75 -1.95,8.4 -0.15,1.6 -0.8,4.1 -1.85,7.55 -1.1,3.45 -2.5,7.45 -4.15,12.1 -2.2,6.1 -2.45,10.5 -0.75,13.25 0.2,-2.25 1.3,-3.65 3.25,-4.2 2.1,-0.65 3.75,-1 4.95,-1.05 1.2,-0.15 2.7,-0.1 4.45,0.15 1.75,0.15 3.1,0.4 4.1,0.7 l 3.9,0.6 C 7.9,12.35 7.25,9.6 7.35,6.25 7.4,2.85 7.7,0.15 8.25,-1.85 z"
           inkscape:connector-curvature="0"
           style="fill:#5b0d11" />
      </g>
      <animate
         attributeName="display"
         begin="0s"
         repeatCount="1"
         dur="1.792s"
         keyTimes="0;0.186;0.209;1"
         values="none;inline;none;none"
         id="animate3340" />
    </g>
    <g
       id="coatOffsideC006_2_122">
      <g
         id="element6">
        <path
           id="path6"
           d="m 4.95,-29.9 c -0.35,-0.25 -0.9,-0.5 -1.7,-0.85 l -1,-0.4 c -1.65,-0.3 -2.75,0.6 -3.3,2.65 L -2.7,-23 c -1.15,3.95 -1.85,6.75 -2.05,8.4 -0.25,1.6 -0.9,4.05 -2.05,7.35 -1.15,3.3 -2.5,6.6 -3.95,9.85 -2.9,5.5 -4.5,10.75 -4.85,15.75 1.4,-2 2.75,-3.2 4,-3.65 1.25,-0.45 2.55,-0.85 3.9,-1.15 1.35,-0.3 3.05,-0.55 5.1,-0.7 2.05,-0.15 3.6,-0.1 4.75,0.2 C 3.3,13.3 4.8,13.65 6.7,14 L 6.05,12.15 C 5.5,10.05 5.6,7.4 6.25,4.2 6.9,0.95 7.6,-1.5 8.25,-3.15 Q 9,-5 9.95,-8.8 q 1,-4 0.9,-4.95 C 10.7,-14.9 9.9,-17.65 8.45,-22 6.95,-26.35 5.85,-29 5.1,-29.85 L 4.95,-29.9 z"
           inkscape:connector-curvature="0"
           style="fill:#5b0d11" />
      </g>
      <animate
         attributeName="display"
         begin="0s"
         repeatCount="1"
         dur="1.792s"
         keyTimes="0;0.163;0.186;1"
         values="none;inline;none;none"
         id="animate3345" />
    </g>
    <g
       id="coatOffsideC006_2_120">
      <g
         id="element5">
        <path
           id="path5"
           d="m 3.25,-30.75 -1,-0.4 c -1.65,-0.3 -2.75,0.6 -3.3,2.65 l -1.65,5.5 1.65,-5.5 c 0,0 -3.2,10 -3.75,13.9 -0.5,3.9 -6.1,14.45 -7.2,17.2 l -5.8,14.75 c 0,0 1.9,-1.95 4.65,-3.35 C -10.4,12.55 -7,13.1 -2.5,12.6 2,12.1 4.45,13.9 4.45,13.9 L 4,12.75 c -0.25,-0.7 0,-2.5 0.75,-5 0.75,-2.5 2.6,-8.6 3.5,-10.9 Q 9,-5 9.95,-8.8 q 1,-4 0.9,-4.95 C 10.7,-14.9 9.9,-17.65 8.45,-22 6.95,-26.35 5.85,-29 5.1,-29.85 L 4.95,-29.9 c -0.35,-0.25 -0.9,-0.5 -1.7,-0.85 z"
           inkscape:connector-curvature="0"
           style="fill:#5b0d11" />
      </g>
      <animate
         attributeName="display"
         begin="0s"
         repeatCount="1"
         dur="1.792s"
         keyTimes="0;0.116;0.163;1"
         values="none;inline;none;none"
         id="animate3350" />
    </g>
    <g
       id="coatOffsideC006_2_119">
      <g
         id="element4">
        <path
           id="path4"
           d="m 2.55,-31.05 q -0.3,-0.05 -0.6,-0.1 c -1.35,-0.15 -2.3,0.65 -2.85,2.3 -0.1,0.25 -0.2,0.5 -0.25,0.75 l -1.4,4.6 c -0.1,0.35 -0.2,0.65 -0.3,1 -0.95,3.3 -1.55,5.75 -1.8,7.3 -0.05,0.45 -0.1,0.85 -0.2,1.25 -0.3,1.65 -1.15,4.1 -2.6,7.35 -0.05,0.15 -0.15,0.3 -0.2,0.45 -1.05,2.35 -2.25,5.05 -3.6,8.1 -0.45,1.05 -0.85,2.15 -1.3,3.2 -1.7,4.15 -2.75,8.05 -3.1,11.7 l 0.05,-0.05 c 0.35,-0.35 0.75,-0.65 1.2,-1 1.05,-0.75 2.2,-1.4 3.35,-1.9 0.3,-0.15 0.6,-0.25 0.95,-0.35 1.15,-0.35 2.35,-0.6 3.7,-0.75 0.65,-0.1 1.35,-0.15 2.15,-0.2 1.25,-0.15 2.55,-0.2 3.9,-0.25 0.3,0 0.6,0 0.85,0 1.35,0 2.75,0.2 4.2,0.6 0.45,0.15 0.9,0.3 1.3,0.45 0.05,0 0.1,0 0.15,0 C 5.9,13.05 5.7,12.65 5.5,12.25 4.9,11.15 4.8,9.55 5.15,7.4 5.2,7 5.25,6.6 5.3,6.2 5.85,3.2 6.6,0.7 7.45,-1.3 7.75,-2.05 8,-2.75 8.25,-3.35 8.85,-4.8 9.4,-6.6 9.95,-8.75 l 0,-0.05 c 0.65,-2.65 0.95,-4.25 0.9,-4.9 l 0,-0.05 c -0.15,-1.15 -0.9,-3.85 -2.35,-8.1 -0.05,-0.1 -0.05,-0.2 -0.1,-0.3 -1.35,-3.95 -2.35,-6.4 -3.1,-7.4 C 5.25,-29.6 5.25,-29.6 5.2,-29.65 5.1,-29.8 5,-29.9 4.85,-29.95 4.8,-30 4.75,-30 4.7,-30.05 4.45,-30.2 4.05,-30.4 3.6,-30.6 3.4,-30.65 3.2,-30.75 2.95,-30.85 l -0.4,-0.2 z"
           inkscape:connector-curvature="0"
           style="fill:#5b0d11" />
      </g>
      <animate
         attributeName="display"
         begin="0s"
         repeatCount="1"
         dur="1.792s"
         keyTimes="0;0.093;0.116;1"
         values="none;inline;none;none"
         id="animate3355" />
    </g>
    <g
       id="coatOffsideC006_2_118">
      <g
         id="element3">
        <path
           id="path3"
           d="m 7.35,-1.6 c 1.05,-2.25 1.95,-4.65 2.6,-7.25 0.65,-2.65 0.95,-4.25 0.9,-4.9 C 10.7,-14.9 9.9,-17.65 8.45,-22 6.95,-26.35 5.85,-29 5.1,-29.85 L 4.95,-29.9 c -0.35,-0.25 -0.9,-0.5 -1.7,-0.85 l -1,-0.4 c -1.65,-0.3 -2.75,0.6 -3.3,2.65 L -2.7,-23 c -1.15,3.95 -1.8,6.75 -1.95,8.4 -0.15,1.6 -0.95,4.05 -2.3,7.4 -1.4,3.3 -3.05,7.15 -4.9,11.6 -1.85,4.45 -2.45,8.4 -1.7,11.9 1.6,-1.35 3.45,-2.3 5.55,-2.85 2.1,-0.6 4.05,-1 5.85,-1.15 C -0.4,12.1 1.2,12.05 2.6,12.15 4,12.25 5.75,12.55 7.9,13.1 6.15,10.95 5.35,8.55 5.5,5.8 5.65,3.05 6.3,0.6 7.35,-1.6 z"
           inkscape:connector-curvature="0"
           style="fill:#5b0d11" />
      </g>
      <animate
         attributeName="display"
         begin="0s"
         repeatCount="1"
         dur="1.792s"
         keyTimes="0;0.07;0.093;1"
         values="none;inline;none;none"
         id="animate3360" />
    </g>
    <g
       id="coatOffsideC006_2_117">
      <g
         id="element2">
        <path
           id="path2"
           d="m 8.25,-1.85 c 0.45,-2.05 1.05,-4.4 1.7,-7 0.65,-2.65 0.95,-4.25 0.9,-4.9 C 10.7,-14.9 9.9,-17.65 8.45,-22 6.95,-26.35 5.85,-29 5.1,-29.85 L 4.95,-29.9 c -0.35,-0.25 -0.9,-0.5 -1.7,-0.85 l -1,-0.4 c -1.65,-0.3 -2.75,0.6 -3.3,2.65 L -2.7,-23 c -1.15,3.95 -1.8,6.75 -1.95,8.4 -0.15,1.6 -0.8,4.1 -1.85,7.55 -1.1,3.45 -2.5,7.45 -4.15,12.1 -2.2,6.1 -2.45,10.5 -0.75,13.25 0.2,-2.25 1.3,-3.65 3.25,-4.2 2.1,-0.65 3.75,-1 4.95,-1.05 1.2,-0.15 2.7,-0.1 4.45,0.15 1.75,0.15 3.1,0.4 4.1,0.7 l 3.9,0.6 C 7.9,12.35 7.25,9.6 7.35,6.25 7.4,2.85 7.7,0.15 8.25,-1.85 z"
           inkscape:connector-curvature="0"
           style="fill:#5b0d11" />
      </g>
      <animate
         attributeName="display"
         begin="0s"
         repeatCount="1"
         dur="1.792s"
         keyTimes="0;0.047;0.07;1"
         values="none;inline;none;none"
         id="animate3365" />
    </g>
    <g
       id="coatOffsideC006_2_116">
      <g
         id="element1">
        <path
           id="path1"
           d="m 4.95,-29.9 c -0.35,-0.25 -0.9,-0.5 -1.7,-0.85 l -1,-0.4 c -1.65,-0.3 -2.75,0.6 -3.3,2.65 L -2.7,-23 c -1.15,3.95 -1.85,6.75 -2.05,8.4 -0.25,1.6 -0.9,4.05 -2.05,7.35 -1.15,3.3 -2.5,6.6 -3.95,9.85 -2.9,5.5 -4.5,10.75 -4.85,15.75 1.4,-2 2.75,-3.2 4,-3.65 1.25,-0.45 2.55,-0.85 3.9,-1.15 1.35,-0.3 3.05,-0.55 5.1,-0.7 2.05,-0.15 3.6,-0.1 4.75,0.2 C 3.3,13.3 4.8,13.65 6.7,14 L 6.05,12.15 C 5.5,10.05 5.6,7.4 6.25,4.2 6.9,0.95 7.6,-1.5 8.25,-3.15 Q 9,-5 9.95,-8.8 q 1,-4 0.9,-4.95 C 10.7,-14.9 9.9,-17.65 8.45,-22 6.95,-26.35 5.85,-29 5.1,-29.85 L 4.95,-29.9 z"
           inkscape:connector-curvature="0"
           style="fill:#5b0d11" />
      </g>
      <animate
         attributeName="display"
         begin="0s"
         repeatCount="1"
         dur="1.792s"
         keyTimes="0;0.023;0.047;1"
         values="none;inline;none;none"
         id="animate3370" />
    </g>
    <g
       id="coatOffsideC006_2_115">
      <g
         id="element">
        <path
           id="path"
           d="m 3.25,-30.75 -1,-0.4 c -1.65,-0.3 -2.75,0.6 -3.3,2.65 l -1.65,5.5 1.65,-5.5 c 0,0 -3.2,10 -3.75,13.9 -0.5,3.9 -6.1,14.45 -7.2,17.2 l -5.8,14.75 c 0,0 1.9,-1.95 4.65,-3.35 C -10.4,12.55 -7,13.1 -2.5,12.6 2,12.1 4.45,13.9 4.45,13.9 L 4,12.75 c -0.25,-0.7 0,-2.5 0.75,-5 0.75,-2.5 2.6,-8.6 3.5,-10.9 Q 9,-5 9.95,-8.8 q 1,-4 0.9,-4.95 C 10.7,-14.9 9.9,-17.65 8.45,-22 6.95,-26.35 5.85,-29 5.1,-29.85 L 4.95,-29.9 c -0.35,-0.25 -0.9,-0.5 -1.7,-0.85 z"
           inkscape:connector-curvature="0"
           style="fill:#5b0d11" />
      </g>
      <animate
         attributeName="display"
         begin="0s"
         repeatCount="1"
         dur="1.792s"
         keyTimes="0;0.023;1"
         values="inline;none;none"
         id="animate3375" />
    </g>
  </g>
</svg>
