<?xml version="1.0" encoding="UTF-8" standalone="no"?>
<!-- Generator: flash2svg, http://dissentgraphics.com/tools/flash2svg -->

<svg
   xmlns:dc="http://purl.org/dc/elements/1.1/"
   xmlns:cc="http://creativecommons.org/ns#"
   xmlns:rdf="http://www.w3.org/1999/02/22-rdf-syntax-ns#"
   xmlns:svg="http://www.w3.org/2000/svg"
   xmlns="http://www.w3.org/2000/svg"
   xmlns:sodipodi="http://sodipodi.sourceforge.net/DTD/sodipodi-0.dtd"
   xmlns:inkscape="http://www.inkscape.org/namespaces/inkscape"
   id="AvatarAssets"
   image-rendering="auto"
   version="1.1"
   x="0px"
   y="0px"
   width="39.834927"
   height="80.400002"
   viewBox="0 0 39.834927 80.400002"
   inkscape:version="0.48.4 r9939"
   sodipodi:docname="AvatarAssets_capeD006.ANI-jumpUp_fall.svg">
  <metadata
     id="metadata3797">
    <rdf:RDF>
      <cc:Work
         rdf:about="">
        <dc:format>image/svg+xml</dc:format>
        <dc:type
           rdf:resource="http://purl.org/dc/dcmitype/StillImage" />
      </cc:Work>
    </rdf:RDF>
  </metadata>
  <sodipodi:namedview
     pagecolor="#ffffff"
     bordercolor="#666666"
     borderopacity="1"
     objecttolerance="10"
     gridtolerance="10"
     guidetolerance="10"
     inkscape:pageopacity="0"
     inkscape:pageshadow="2"
     inkscape:window-width="640"
     inkscape:window-height="480"
     id="namedview3795"
     showgrid="false"
     fit-margin-top="0"
     fit-margin-left="0"
     fit-margin-right="0"
     fit-margin-bottom="0"
     inkscape:zoom="1.9032258"
     inkscape:cx="65.182843"
     inkscape:cy="-63.8"
     inkscape:window-x="0"
     inkscape:window-y="0"
     inkscape:window-maximized="0"
     inkscape:current-layer="AvatarAssets" />
  <defs
     id="defs3738" />
  <g
     id="capeD7"
     overflow="visible"
     style="overflow:visible"
     transform="translate(33.182843,82.2)">
    <g
       id="capeD006_1_181">
      <g
         id="element5">
        <path
           id="path101"
           d="M 1.35,-79.575 Q 0.84,-77.352 0.2,-75.1 c -0.45,1.5 -0.7,3.05 -0.8,4.65 -0.15,1.75 -0.65,3.45 -1.55,5 -2.25,0.7 -3.75,-0.8 -4.6,-4.5 -0.85,-3.7 -2.1,-7.25 -3.75,-10.65 -0.95,-0.35 -1.9,-0.6 -2.75,-0.75 -1.15,-0.2 -2.3,-0.15 -3.35,0.15 -0.35,0.5 -0.7,1.1 -1.05,1.8 -0.75,1.35 -0.85,4.15 -0.35,8.45 0.5,4.25 -0.3,6 -2.4,5.15 -1.35,-1.75 -2.3,-3.7 -2.85,-5.75 -0.55,-2.1 -1,-3.65 -1.3,-4.65 -0.25,-1 -0.4,-1.55 -0.4,-1.6 -0.05,0 -0.15,0 -0.2,0 -0.35,8.45 0.85,16.75 3.7,24.95 2.6,7.55 6.65,14.1 12.2,19.65 0.95,0.95 2,1.8 3.1,2.6 l -0.025,-0.025 0.8,0.325 0.025,0 c -0.25,-0.15 -0.45,-0.35 -0.65,-0.5 -1.85,-1.6 -2.95,-4.15 -3.2,-7.6 -0.25,-3.2 0.05,-6.2 0.9,-9.05 0.2,-0.65 0.55,-1.15 1,-1.6 -0.15,0.35 -0.25,0.7 -0.3,1.05 -0.05,0.15 -0.1,0.35 -0.15,0.55 0.05,-0.2 0.1,-0.4 0.2,-0.55 0.2,-0.5 0.45,-0.9 0.8,-1.25 -0.8,4.1 -0.6,8.2 0.65,12.35 0.85,2.75 2.15,4.45 3.9,5 2.65,-0.3 3.4,-2.45 2.35,-6.4 -0.5,-1.8 -1,-3.65 -1.55,-5.6 0.1,0.15 0.2,0.3 0.3,0.45 -0.3,-0.45 -0.6,-0.85 -0.9,-1.2 -0.05,-0.05 0.05,-0.05 0.2,0 2.35,2.15 4,4.8 5,7.85 0.5,1.55 0.6,2.9 0.3,4 -0.05,0 -0.05,0 -0.05,0 -0.1,0 -0.2,0 -0.25,0.05 0.15,-0.05 0.35,-0.05 0.6,0 -0.15,0.3 -0.3,0.55 -0.45,0.8 0.4,-0.45 0.75,-1 1.05,-1.6 1.05,-2.1 1.45,-4.75 1.2,-7.9 C 5.35,-44.6 4.8,-49.55 4,-56.2 3.15,-62.9 2.6,-68.4 2.25,-72.7 1.9,-76.7 1.65,-79 1.6,-79.65 c 0,-0.05 0,-0.05 0,-0.1 -0.05,0 -0.1,0.05 -0.25,0.2 m -3.05,34.4 c 0.45,0.55 0.85,1.15 1.2,1.8 -0.35,-0.35 -0.7,-0.75 -1.05,-1.1 -0.05,-0.05 -0.05,-0.15 -0.1,-0.25 -0.05,-0.1 -0.05,-0.2 -0.1,-0.35 l 0.05,-0.1 z"
           inkscape:connector-curvature="0"
           style="fill:#c21d1a" />
        <path
           id="path102"
           d="m -1.7,-45.15 -0.05,0.1 c 0.05,0.15 0.05,0.25 0.1,0.35 0.05,0.1 0.05,0.2 0.1,0.25 0.35,0.35 0.7,0.75 1.05,1.1 -0.35,-0.65 -0.75,-1.25 -1.2,-1.8 z M 0.2,-75.1 q 0.64,-2.252 1.15,-4.475 l 0,0.025 c -0.3,0.25 -0.85,0.85 -1.65,1.8 l -0.025,-0.025 0,0.025 -0.025,0 c -1.1,1.25 -3,1.1 -5.65,-0.55 -0.95,-0.65 -1.9,-1.15 -2.8,-1.6 -0.6,-0.25 -1.15,-0.5 -1.7,-0.7 1.65,3.4 2.9,6.95 3.75,10.65 0.85,3.7 2.35,5.2 4.6,4.5 0.9,-1.55 1.4,-3.25 1.55,-5 0.1,-1.6 0.35,-3.15 0.8,-4.65 z m 3.3,42.3 c 0.3,-1.1 0.2,-2.45 -0.3,-4 -1,-3.05 -2.65,-5.7 -5,-7.85 -0.15,-0.05 -0.25,-0.05 -0.2,0 0.3,0.35 0.6,0.75 0.9,1.2 -0.1,-0.15 -0.2,-0.3 -0.3,-0.45 0.55,1.95 1.05,3.8 1.55,5.6 1.05,3.95 0.3,6.1 -2.35,6.4 -1.75,-0.55 -3.05,-2.25 -3.9,-5 -1.25,-4.15 -1.45,-8.25 -0.65,-12.35 -0.35,0.35 -0.6,0.75 -0.8,1.25 -0.1,0.15 -0.15,0.35 -0.2,0.55 0.05,-0.2 0.1,-0.4 0.15,-0.55 0.05,-0.35 0.15,-0.7 0.3,-1.05 -0.45,0.45 -0.8,0.95 -1,1.6 -0.85,2.85 -1.15,5.85 -0.9,9.05 0.25,3.45 1.35,6 3.2,7.6 0.2,0.15 0.4,0.35 0.65,0.5 l -0.025,0 0.225,0.1 c 0.65,0.15 1.3,0.3 1.95,0.35 1.2,0.1 2.3,0.05 3.25,-0.15 l 0,-0.025 0.125,-0.275 0.025,0 c 0.1,0 0.2,0 0.3,0 -0.15,0.1 -0.3,0.2 -0.45,0.3 0.35,-0.1 0.7,-0.2 1.05,-0.35 0.85,-0.35 1.6,-0.9 2.25,-1.6 0.15,-0.25 0.3,-0.5 0.45,-0.8 -0.25,-0.05 -0.45,-0.05 -0.6,0 0.05,-0.05 0.15,-0.05 0.25,-0.05 0,0 0,0 0.05,0 z m -3,1 c -0.25,0.05 -0.45,0.05 -0.7,0.1 0.25,-0.05 0.5,-0.05 0.75,-0.1 L 0.525,-31.825 0.5,-31.8 z m -18.4,-48.95 c -0.05,0 -0.05,0 -0.05,0.05 -0.35,0.15 -0.65,0.3 -1,0.55 -0.1,0.1 -0.2,0.25 -0.25,0.4 l 0,-0.025 -0.2,-0.075 c -1.5,1.1 -3.05,1.75 -4.6,2 -0.3,0.05 -0.6,0.05 -0.85,0.05 -0.05,0 -0.1,0 -0.1,0 0,0.05 0.15,0.6 0.4,1.6 0.3,1 0.75,2.55 1.3,4.65 0.55,2.05 1.5,4 2.85,5.75 2.1,0.85 2.9,-0.9 2.4,-5.15 -0.5,-4.3 -0.4,-7.1 0.35,-8.45 0.35,-0.7 0.7,-1.3 1.05,-1.8 -0.15,0 -0.25,0.05 -0.35,0.1 l 0,-0.025 -0.925,0.35 0.025,0.025 c -0.05,0 -0.05,0 -0.05,0 z m -6.9,-1.4 c -0.05,0 -0.1,0 -0.15,0.05 -0.25,0.05 -0.6,0.2 -1.05,0.35 -0.85,0.3 -1.55,0.75 -2.1,1.3 -0.5,0.55 -0.75,0.95 -0.8,1.2 -0.05,0.25 -0.15,0.55 -0.2,1 -0.1,0.45 -0.15,0.7 -0.1,0.65 -0.35,3.55 0.35,8.6 2.1,15.1 1.7,6.45 4.3,12.6 7.85,18.45 1.45,2.4 2.95,4.55 4.5,6.4 2.15,2.6 4.3,4.65 6.55,6.2 l 2.025,0.825 0.025,0.025 c -1.1,-0.8 -2.15,-1.65 -3.1,-2.6 -5.55,-5.55 -9.6,-12.1 -12.2,-19.65 -2.85,-8.2 -4.05,-16.5 -3.7,-24.95 l -0.05,0 0.15,-1.75 c 0,-0.2 0,-0.4 0.05,-0.55 0.05,-0.7 0.15,-1.4 0.2,-2.05 z"
           inkscape:connector-curvature="0"
           style="fill:#851611" />
        <path
           id="path109"
           d="m 0.5,-31.8 0.025,-0.025 0.025,0.025 c -0.25,0.05 -0.5,0.05 -0.75,0.1 0.25,-0.05 0.45,-0.05 0.7,-0.1 z M 0.05,-30 c 0.15,-0.1 0.3,-0.2 0.45,-0.3 -0.1,0 -0.2,0 -0.3,0 l -0.025,0 -0.125,0.275 z m -19,-50.15 c -0.15,0.1 -0.3,0.2 -0.45,0.3 l 0.2,0.075 0,0.025 c 0.05,-0.15 0.15,-0.3 0.25,-0.4 z m -6,-0.35 c 0.25,-0.55 0.4,-1.1 0.5,-1.6 -0.05,0 -0.1,0 -0.15,0.05 0.1,-0.1 0.1,-0.15 0,-0.15 -0.05,0 -0.1,0 -0.2,0.05 -0.05,0.65 -0.15,1.35 -0.2,2.05 -0.05,0.15 -0.05,0.35 -0.05,0.55 0.05,-0.3 0.05,-0.6 0.1,-0.95 z"
           inkscape:connector-curvature="0"
           style="fill:#c21d1a" />
        <path
           id="path112"
           d="m -3.5,-31.9 0,0.025 0.025,0 L -3.5,-31.9"
           inkscape:connector-curvature="0"
           style="fill:#c21d1a" />
        <path
           id="path119"
           d="m -0.325,-77.75 0,-0.025 -0.025,0.025 0.025,0"
           inkscape:connector-curvature="0"
           style="fill:#c21d1a" />
      </g>
      <animate
         attributeName="display"
         begin="0s"
         repeatCount="1"
         dur="0.5s"
         keyTimes="0;0.833;1"
         values="none;inline;none"
         id="animate3748" />
    </g>
    <g
       id="capeD006_1_179">
      <g
         id="element4">
        <path
           id="path83"
           d="M 4.075,-79.6 Q 4.058,-79.871 4.05,-80.15 C 4,-79.85 4,-79.55 4,-79.3 c 0,-0.05 0,-0.15 0,-0.25 0.05,0 0.05,0 0.1,-0.05 m 0.05,2.7 c 0,-0.1 0,-0.2 0,-0.25 -0.05,0 -0.05,0.05 -0.1,0.1 -0.1,0.05 -0.2,0.1 -0.25,0.15 -1.55,1.25 -2.8,2.8 -3.75,4.55 -1.75,3.2 -3.55,3.15 -5.3,-0.2 -1.05,-2.05 -2.5,-3.85 -4.3,-5.4 -0.85,-0.25 -1.75,-0.45 -2.65,-0.55 l -0.025,-0.025 -0.025,0 0,0.025 c 0,0 0,0 -0.05,0 0.05,0 0.05,0 0.05,0.05 -4.45,0.05 -7.3,2.5 -8.55,7.35 -0.6,2.35 -1.85,2.55 -3.8,0.7 -1.45,-1.45 -2.5,-3.15 -3.15,-5.15 0,-0.05 0,-0.05 0,-0.05 -0.15,-0.35 -0.25,-0.7 -0.3,-0.95 0,0.35 0,0.7 0,1.05 0.25,7.45 2.25,14.75 5.95,21.8 2.45,4.65 4.7,9.35 6.8,14.1 0.45,0.95 0.85,1.9 1.3,2.85 2.65,3.45 5.85,5.8 9.65,6.95 l -0.05,-0.025 0,0.025 c -0.95,-0.3 -1.85,-0.65 -2.7,-1.1 -1.65,-1.65 -2.7,-3.95 -3.1,-6.9 -0.25,-1.9 -0.3,-3.75 -0.05,-5.6 l -0.025,0 0.675,-4 c 0.25,-0.25 0.5,-0.5 0.75,-0.7 0.05,0.45 0.05,0.95 0.1,1.4 0.35,3.75 1.3,7.55 2.85,11.4 0.7,1.75 1.65,3.05 2.9,3.9 3.4,-0.1 4.5,-2.25 3.35,-6.4 -0.55,-2.05 -1.3,-3.9 -2.2,-5.65 -0.1,-0.15 -0.2,-0.35 -0.25,-0.5 -0.05,-0.05 -0.15,-0.1 -0.2,-0.15 -0.55,-0.45 -1.1,-0.9 -1.65,-1.35 -0.35,-0.3 -0.3,-0.5 0.05,-0.65 0.25,0.15 0.55,0.25 0.85,0.4 L -3.075,-45.725 -3,-45.75 c 0.05,0.05 0.1,0.1 0.15,0.15 3.15,1.65 5.2,4.3 6.25,8 0.65,2.25 0.6,4.2 -0.15,5.8 -0.25,0.55 -0.6,1.05 -0.95,1.5 0.05,-0.05 0.15,-0.05 0.25,-0.05 -0.25,0.25 -0.55,0.45 -0.8,0.6 l -0.025,0 0.025,-0.025 0,0.025 c 0.75,-0.4 1.3,-1.05 1.7,-1.9 0,-0.05 0,-0.05 0,-0.05 0.85,-0.25 1.75,-2.3 2.6,-6.05 0.85,-3.75 0.8,-9.65 -0.15,-17.7 -0.85,-7 -1.45,-14.15 -1.75,-21.45 z m -35.2,-0.2 c 0,-0.05 0,-0.05 0,-0.1 l -0.15,-0.2 c 0,0.1 0,0.2 0.05,0.35 l -0.025,-0.025 0.125,-0.025 z m 3.05,-4.2 c 0,0 0.05,0 0.1,0.05 -0.05,0.1 -0.05,0.2 -0.05,0.35 0.1,-0.05 0.2,-0.05 0.3,-0.1 0,-0.05 0,-0.1 -0.05,-0.15 -0.1,-0.05 -0.2,-0.1 -0.3,-0.15 z m 5.275,29.825 -0.4,0.15 0.025,0.025 c 0.55,1 1.1,2.05 1.75,3.2 0.25,0.45 0.45,0.85 0.7,1.3 0.6,1.05 1.35,2.3 2.3,3.75 -0.75,-1.8 -1.6,-3.55 -2.6,-5.2 -0.65,-1.05 -1.2,-2.15 -1.75,-3.2 z"
           inkscape:connector-curvature="0"
           style="fill:#c21d1a" />
        <path
           id="path84"
           d="m 4,-79.55 c 0,0.1 0,0.2 0,0.25 l -0.025,0 -0.075,0.775 0,0.025 c 0,0.05 0,0.1 0,0.15 L 3.8,-78.4 c 0.05,-0.25 0.05,-0.5 0,-0.8 -0.35,0.25 -0.7,0.5 -1.05,0.7 -0.45,0.25 -0.9,0.45 -1.4,0.65 -0.85,0.35 -1.7,0.7 -2.55,1 -1.95,0.35 -3.85,0.25 -5.8,-0.3 l -0.025,-0.025 0,0.025 0.025,0 c -0.25,-0.05 -0.45,-0.15 -0.7,-0.2 l 0,-0.025 -0.225,-0.075 0.025,0 c -0.05,0 -0.1,0 -0.15,-0.05 -0.5,-0.15 -1,-0.3 -1.5,-0.45 1.8,1.55 3.25,3.35 4.3,5.4 1.75,3.35 3.55,3.4 5.3,0.2 0.95,-1.75 2.2,-3.3 3.75,-4.55 0.05,-0.05 0.15,-0.1 0.25,-0.15 0.05,-0.05 0.05,-0.1 0.1,-0.1 C 4.1,-78 4.1,-78.8 4.1,-79.6 4.05,-79.55 4.05,-79.55 4,-79.55 z m -3.65,50.275 0,-0.025 0.025,0 -0.025,0.025 z m -17.2,-49.275 -0.3,0.05 c -1.35,0.25 -2.65,0.6 -3.9,0.95 -2.05,0.55 -4.05,0.65 -6.1,0.25 l -0.025,-0.025 0.025,0.025 c -0.25,-0.05 -0.45,-0.1 -0.65,-0.15 L -28,-77.5 c -0.05,0 -0.05,0 -0.05,0 -0.1,-0.05 -0.2,-0.05 -0.3,-0.1 -0.05,0 -0.05,0 -0.1,0 -0.05,-1.1 0.05,-2.2 0.25,-3.25 0.05,0 0.15,0 0.25,-0.05 0,-0.15 0,-0.25 0.05,-0.35 -0.05,-0.05 -0.1,-0.05 -0.1,-0.05 l -0.025,0 -0.025,0 c 0,-0.05 0,-0.15 -0.05,-0.2 -0.15,-0.05 -0.25,0 -0.3,0.05 l 0.05,0.05 c -0.05,0 -0.1,0 -0.15,0 -0.05,0 -0.05,0 -0.05,0 l -0.2,-0.05 c -0.3,0.15 -0.6,0.35 -0.9,0.6 -0.75,0.6 -1.25,1.3 -1.6,2.15 -0.15,0.45 -0.15,0.85 0.05,1.3 l 0.15,0.2 c 0,0.05 0,0.05 0.05,0.1 l -0.05,0 -0.125,0.025 0.025,0.025 c 0.45,5.65 1.45,10.55 3.1,14.8 1.65,4.3 2.95,7.35 3.95,9.15 0.3,0.55 0.65,1.15 1,1.8 l -0.025,-0.025 0.4,-0.15 0.025,0.025 c 0.55,1.05 1.1,2.15 1.75,3.2 1,1.65 1.85,3.4 2.6,5.2 1.05,1.65 2.35,3.5 3.8,5.55 0.15,0.25 0.35,0.5 0.55,0.75 -0.45,-0.95 -0.85,-1.9 -1.3,-2.85 -2.1,-4.75 -4.35,-9.45 -6.8,-14.1 -3.7,-7.05 -5.7,-14.35 -5.95,-21.8 0,-0.35 0,-0.7 0,-1.05 0.05,0.25 0.15,0.6 0.3,0.95 0,0 0,0 0,0.05 0.65,2 1.7,3.7 3.15,5.15 1.95,1.85 3.2,1.65 3.8,-0.7 1.25,-4.85 4.1,-7.3 8.55,-7.35 0,-0.05 0,-0.05 -0.05,-0.05 -1.5,-0.2 -3,-0.2 -4.55,-0.05 z"
           inkscape:connector-curvature="0"
           style="fill:#851611" />
        <path
           id="path89"
           d="m -0.075,-42.125 0.025,0 -0.025,-0.025 m 0.025,0 c -0.05,-0.05 -0.15,-0.15 -0.2,-0.2 0.05,0.05 0.15,0.15 0.2,0.25"
           inkscape:connector-curvature="0"
           style="fill:#c21d1a" />
        <path
           id="path90"
           d="m 0.35,-29.3 0,0.025 0.025,-0.025 -0.025,0"
           inkscape:connector-curvature="0"
           style="fill:#c21d1a" />
        <path
           id="path98"
           d="m -28.5,-81.4 c -0.1,-0.05 -0.2,-0.05 -0.25,-0.05 l 0.2,0.05 c 0,0 0,0 0.05,0"
           inkscape:connector-curvature="0"
           style="fill:#c21d1a" />
      </g>
      <animate
         attributeName="display"
         begin="0s"
         repeatCount="1"
         dur="0.5s"
         keyTimes="0;0.667;0.833;1"
         values="none;inline;none;none"
         id="animate3757" />
    </g>
    <g
       id="capeD006_1_177">
      <g
         id="element3">
        <path
           id="path60"
           d="m 1.6,-79.75 q -0.069,0.014 -0.25,0.175 l 0,0.025 C 1,-78.1 0.65,-76.6 0.2,-75.1 c -0.45,1.5 -0.7,3.05 -0.8,4.65 -0.15,1.75 -0.65,3.45 -1.55,5 -2.25,0.7 -3.75,-0.8 -4.6,-4.5 -0.85,-3.7 -2.1,-7.25 -3.75,-10.65 -0.95,-0.35 -1.9,-0.6 -2.75,-0.75 -1.15,-0.2 -2.3,-0.15 -3.35,0.15 -0.35,0.5 -0.7,1.1 -1.05,1.8 -0.75,1.35 -0.85,4.15 -0.35,8.45 0.5,4.25 -0.3,6 -2.4,5.15 -1.35,-1.75 -2.3,-3.7 -2.85,-5.75 -0.55,-2.1 -1,-3.65 -1.3,-4.65 -0.25,-1 -0.4,-1.55 -0.4,-1.6 -0.05,0 -0.15,0 -0.2,0 -0.35,8.45 0.85,16.75 3.7,24.95 2.6,7.55 6.65,14.1 12.2,19.65 0.95,0.95 2,1.8 3.1,2.6 l -0.025,-0.025 0.8,0.325 0.025,0 c -0.25,-0.15 -0.45,-0.35 -0.65,-0.5 -1.85,-1.6 -2.95,-4.15 -3.2,-7.6 -0.25,-3.2 0.05,-6.2 0.9,-9.05 0.2,-0.65 0.55,-1.15 1,-1.6 -0.15,0.35 -0.25,0.7 -0.3,1.05 -0.05,0.15 -0.1,0.35 -0.15,0.55 0.05,-0.2 0.1,-0.4 0.2,-0.55 0.2,-0.5 0.45,-0.9 0.8,-1.25 -0.8,4.1 -0.6,8.2 0.65,12.35 0.85,2.75 2.15,4.45 3.9,5 2.65,-0.3 3.4,-2.45 2.35,-6.4 -0.5,-1.8 -1,-3.65 -1.55,-5.6 0.1,0.15 0.2,0.3 0.3,0.45 -0.3,-0.45 -0.6,-0.85 -0.9,-1.2 -0.05,-0.05 0.05,-0.05 0.2,0 2.35,2.15 4,4.8 5,7.85 0.5,1.55 0.6,2.9 0.3,4 -0.05,0 -0.05,0 -0.05,0 -0.1,0 -0.2,0 -0.25,0.05 0.15,-0.05 0.35,-0.05 0.6,0 -0.15,0.3 -0.3,0.55 -0.45,0.8 0.4,-0.45 0.75,-1 1.05,-1.6 1.05,-2.1 1.45,-4.75 1.2,-7.9 C 5.35,-44.6 4.8,-49.55 4,-56.2 3.15,-62.9 2.6,-68.4 2.25,-72.7 1.9,-76.7 1.65,-79 1.6,-79.65 c 0,-0.05 0,-0.05 0,-0.1 z m -3.3,34.6 c 0.45,0.55 0.85,1.15 1.2,1.8 -0.35,-0.35 -0.7,-0.75 -1.05,-1.1 -0.05,-0.05 -0.05,-0.15 -0.1,-0.25 -0.05,-0.1 -0.05,-0.2 -0.1,-0.35 l 0.05,-0.1 z"
           inkscape:connector-curvature="0"
           style="fill:#c21d1a" />
        <path
           id="path61"
           d="m -1.7,-45.15 -0.05,0.1 c 0.05,0.15 0.05,0.25 0.1,0.35 0.05,0.1 0.05,0.2 0.1,0.25 0.35,0.35 0.7,0.75 1.05,1.1 -0.35,-0.65 -0.75,-1.25 -1.2,-1.8 z M 0.2,-75.1 c 0.45,-1.5 0.8,-3 1.15,-4.45 -0.3,0.25 -0.85,0.85 -1.65,1.8 l -0.025,-0.025 0,0.025 -0.025,0 c -1.1,1.25 -3,1.1 -5.65,-0.55 -0.95,-0.65 -1.9,-1.15 -2.8,-1.6 -0.6,-0.25 -1.15,-0.5 -1.7,-0.7 1.65,3.4 2.9,6.95 3.75,10.65 0.85,3.7 2.35,5.2 4.6,4.5 0.9,-1.55 1.4,-3.25 1.55,-5 0.1,-1.6 0.35,-3.15 0.8,-4.65 z m 3.3,42.3 c 0.3,-1.1 0.2,-2.45 -0.3,-4 -1,-3.05 -2.65,-5.7 -5,-7.85 -0.15,-0.05 -0.25,-0.05 -0.2,0 0.3,0.35 0.6,0.75 0.9,1.2 -0.1,-0.15 -0.2,-0.3 -0.3,-0.45 0.55,1.95 1.05,3.8 1.55,5.6 1.05,3.95 0.3,6.1 -2.35,6.4 -1.75,-0.55 -3.05,-2.25 -3.9,-5 -1.25,-4.15 -1.45,-8.25 -0.65,-12.35 -0.35,0.35 -0.6,0.75 -0.8,1.25 -0.1,0.15 -0.15,0.35 -0.2,0.55 0.05,-0.2 0.1,-0.4 0.15,-0.55 0.05,-0.35 0.15,-0.7 0.3,-1.05 -0.45,0.45 -0.8,0.95 -1,1.6 -0.85,2.85 -1.15,5.85 -0.9,9.05 0.25,3.45 1.35,6 3.2,7.6 0.2,0.15 0.4,0.35 0.65,0.5 l -0.025,0 0.225,0.1 c 0.65,0.15 1.3,0.3 1.95,0.35 1.2,0.1 2.3,0.05 3.25,-0.15 l 0,-0.025 0.125,-0.275 0.025,0 c 0.1,0 0.2,0 0.3,0 -0.15,0.1 -0.3,0.2 -0.45,0.3 0.35,-0.1 0.7,-0.2 1.05,-0.35 0.85,-0.35 1.6,-0.9 2.25,-1.6 0.15,-0.25 0.3,-0.5 0.45,-0.8 -0.25,-0.05 -0.45,-0.05 -0.6,0 0.05,-0.05 0.15,-0.05 0.25,-0.05 0,0 0,0 0.05,0 z m -3,1 c -0.25,0.05 -0.45,0.05 -0.7,0.1 0.25,-0.05 0.5,-0.05 0.75,-0.1 L 0.525,-31.825 0.5,-31.8 z m -18.4,-48.95 c -0.05,0 -0.05,0 -0.05,0.05 -0.35,0.15 -0.65,0.3 -1,0.55 -0.1,0.1 -0.2,0.25 -0.25,0.4 l 0,-0.025 -0.2,-0.075 c -1.5,1.1 -3.05,1.75 -4.6,2 -0.3,0.05 -0.6,0.05 -0.85,0.05 -0.05,0 -0.1,0 -0.1,0 0,0.05 0.15,0.6 0.4,1.6 0.3,1 0.75,2.55 1.3,4.65 0.55,2.05 1.5,4 2.85,5.75 2.1,0.85 2.9,-0.9 2.4,-5.15 -0.5,-4.3 -0.4,-7.1 0.35,-8.45 0.35,-0.7 0.7,-1.3 1.05,-1.8 -0.15,0 -0.25,0.05 -0.35,0.1 l 0,-0.025 -0.925,0.35 0.025,0.025 c -0.05,0 -0.05,0 -0.05,0 z m -6.9,-1.4 c -0.05,0 -0.1,0 -0.15,0.05 -0.25,0.05 -0.6,0.2 -1.05,0.35 -0.85,0.3 -1.55,0.75 -2.1,1.3 -0.5,0.55 -0.75,0.95 -0.8,1.2 -0.05,0.25 -0.15,0.55 -0.2,1 -0.1,0.45 -0.15,0.7 -0.1,0.65 -0.35,3.55 0.35,8.6 2.1,15.1 1.7,6.45 4.3,12.6 7.85,18.45 1.45,2.4 2.95,4.55 4.5,6.4 2.15,2.6 4.3,4.65 6.55,6.2 l 2.025,0.825 0.025,0.025 c -1.1,-0.8 -2.15,-1.65 -3.1,-2.6 -5.55,-5.55 -9.6,-12.1 -12.2,-19.65 -2.85,-8.2 -4.05,-16.5 -3.7,-24.95 l -0.05,0 0.15,-1.75 c 0,-0.2 0,-0.4 0.05,-0.55 0.05,-0.7 0.15,-1.4 0.2,-2.05 z"
           inkscape:connector-curvature="0"
           style="fill:#851611" />
        <path
           id="path68"
           d="m 0.5,-31.8 0.025,-0.025 0.025,0.025 c -0.25,0.05 -0.5,0.05 -0.75,0.1 0.25,-0.05 0.45,-0.05 0.7,-0.1 z M 0.05,-30 c 0.15,-0.1 0.3,-0.2 0.45,-0.3 -0.1,0 -0.2,0 -0.3,0 l -0.025,0 -0.125,0.275 z m -19,-50.15 c -0.15,0.1 -0.3,0.2 -0.45,0.3 l 0.2,0.075 0,0.025 c 0.05,-0.15 0.15,-0.3 0.25,-0.4 z m -6,-0.35 c 0.25,-0.55 0.4,-1.1 0.5,-1.6 -0.05,0 -0.1,0 -0.15,0.05 0.1,-0.1 0.1,-0.15 0,-0.15 -0.05,0 -0.1,0 -0.2,0.05 -0.05,0.65 -0.15,1.35 -0.2,2.05 -0.05,0.15 -0.05,0.35 -0.05,0.55 0.05,-0.3 0.05,-0.6 0.1,-0.95 z"
           inkscape:connector-curvature="0"
           style="fill:#c21d1a" />
        <path
           id="path71"
           d="m -3.5,-31.9 0,0.025 0.025,0 L -3.5,-31.9"
           inkscape:connector-curvature="0"
           style="fill:#c21d1a" />
        <path
           id="path78"
           d="m -0.325,-77.75 0,-0.025 -0.025,0.025 0.025,0"
           inkscape:connector-curvature="0"
           style="fill:#c21d1a" />
      </g>
      <animate
         attributeName="display"
         begin="0s"
         repeatCount="1"
         dur="0.5s"
         keyTimes="0;0.5;0.667;1"
         values="none;inline;none;none"
         id="animate3766" />
    </g>
    <g
       id="capeD006_1_175">
      <g
         id="element2">
        <path
           id="path49"
           d="m 2.85,-31 q 0.986,-1.513 1.375,-3.475 l 0.025,0.025 c -0.35,-3.7 -2.2,-6.3 -5.45,-7.85 l -0.2,0 c 0.45,0.25 0.85,0.55 1.25,0.85 -0.6,-0.35 -1.25,-0.6 -2,-0.65 1.25,0.75 2.3,1.8 3.25,3.15 1.4,2 1.5,4.05 0.3,6.1 -1.25,2.1 -3,2.5 -5.3,1.15 -2.6,-1.55 -4,-3.95 -4.15,-7.3 -0.15,-2.7 0.15,-5.15 0.8,-7.4 0.1,-0.15 0.2,-0.35 0.35,-0.5 -0.05,0.05 -0.15,0.1 -0.2,0.15 0,-0.05 0,-0.15 0.05,-0.2 -0.05,0 -0.1,0 -0.15,0.05 -0.05,0.05 -0.15,0.05 -0.2,0.1 -0.05,0.05 -0.1,0.05 -0.15,0.1 -0.1,0.25 -0.2,0.45 -0.25,0.7 -2.05,2.5 -2.95,5.45 -2.75,8.8 0.25,3.55 1.75,6.2 4.6,7.95 0.25,0.1 0.55,0.2 0.8,0.25 0.15,0.05 0.25,0.05 0.4,0.1 0.05,0 0.05,0 0.1,0.05 0.35,0.05 0.7,0.1 1.05,0.15 0.1,0 0.2,0 0.35,0 0.2,0 0.4,0 0.6,0 1.95,-0.05 3.5,-0.45 4.55,-1.25 0.35,-0.3 0.7,-0.65 0.95,-1.05 z m -25.25,-39.975 -1.075,-0.25 0.025,0.025 c 0.95,0.75 1.9,1.7 2.85,2.8 1.2,1.4 2.5,2.7 3.95,3.85 2.15,1.8 3.95,1.65 5.4,-0.5 0.45,-0.75 0.8,-1.6 0.95,-2.45 0.3,-1.55 1.05,-2.65 2.25,-3.3 l -0.025,-0.025 -0.5,0.15 -5.25,1.7 0.025,0.025 c -0.05,0.05 -0.05,0.05 0,0.1 -0.2,0 -0.4,0 -0.55,0.05 -0.25,0.05 -0.45,0.05 -0.6,0.1 -1.15,0.25 -1.25,0.2 -0.3,-0.1 -1.45,-0.1 -2.9,-0.45 -4.25,-1.1 -0.6,-0.25 -1.2,-0.5 -1.8,-0.7 l 0,-0.025 -0.025,-0.025 0.025,0 c -0.35,-0.15 -0.75,-0.25 -1.1,-0.3 z m -4.45,8.675 c -0.25,-1.25 -0.6,-2.45 -1.05,-3.5 -0.5,-1.15 -1.4,-1.85 -2.75,-2.2 -0.3,-0.05 -0.55,0 -0.8,0.15 -0.45,0.25 -0.8,0.55 -1.05,0.95 -0.05,0.1 -0.05,0.2 -0.1,0.3 l -0.125,0.475 0.025,0.025 c -0.05,0.05 -0.05,0.05 -0.05,0.1 -0.05,0.15 -0.05,0.3 -0.1,0.45 -0.15,0.65 -0.25,1.25 -0.3,1.85 0,0.05 0,0.15 0,0.25 -0.05,0.35 -0.05,0.6 0.05,0.85 0.05,0.25 0,0.65 -0.05,1.3 -0.05,0.65 0,1.95 0.2,3.9 0.05,-0.05 0.1,-0.05 0.15,-0.1 0.05,0 0.05,0 0.05,0.05 -0.05,0.05 -0.15,0.05 -0.2,0.05 0.1,0.15 0.2,0.25 0.3,0.4 1.05,-2.35 2,-3.7 2.85,-4 0.8,-0.3 1.85,-0.4 3.1,-0.35 0.05,-0.1 0.1,-0.15 0.15,-0.1 -0.05,-0.05 -0.05,-0.15 -0.1,-0.2 -0.1,-0.25 -0.15,-0.45 -0.2,-0.65 z m -5.35,-3.95 c 0.05,-0.1 0.1,-0.15 0.25,-0.2 -0.05,0.1 -0.15,0.2 -0.2,0.3 0,-0.05 0,-0.1 0.05,-0.15 -0.05,0.05 -0.05,0.05 -0.1,0.05 z"
           inkscape:connector-curvature="0"
           style="fill:#851611" />
        <path
           id="path50"
           d="M 4.5,-37.05 C 4.75,-39.2 4.65,-41.4 4.3,-43.65 3.25,-50.3 2,-56.95 0.65,-63.5 c -0.95,-4.6 -3.6,-7.1 -8.05,-7.55 l -1.175,0.375 0.5,-0.15 0.025,0.025 c -1.2,0.65 -1.95,1.75 -2.25,3.3 -0.15,0.85 -0.5,1.7 -0.95,2.45 -1.45,2.15 -3.25,2.3 -5.4,0.5 -1.45,-1.15 -2.75,-2.45 -3.95,-3.85 -0.95,-1.1 -1.9,-2.05 -2.85,-2.8 -0.8,-0.2 -1.6,-0.3 -2.45,-0.35 -0.8,0.05 -1.6,0.15 -2.4,0.35 -1.8,0.35 -3.05,1.3 -3.7,2.8 -0.2,0.45 -0.35,0.95 -0.5,1.5 0.25,-0.4 0.6,-0.7 1.05,-0.95 0.25,-0.15 0.5,-0.2 0.8,-0.15 1.35,0.35 2.25,1.05 2.75,2.2 0.45,1.05 0.8,2.25 1.05,3.5 0.05,0.2 0.1,0.4 0.2,0.65 0.05,0.05 0.05,0.15 0.1,0.2 -0.05,-0.05 -0.1,0 -0.15,0.1 0.05,-0.05 0.1,-0.05 0.15,-0.05 0.1,0.25 0.2,0.55 0.3,0.85 1.45,4.45 3.15,8.4 5.05,11.9 1.85,3.45 3.3,5.9 4.3,7.35 1.05,1.45 2.8,3.9 5.35,7.35 1.75,2.35 3.6,3.9 5.6,4.7 -2.85,-1.75 -4.35,-4.4 -4.6,-7.95 -0.2,-3.35 0.7,-6.3 2.75,-8.8 0.05,-0.25 0.15,-0.45 0.25,-0.7 0.05,-0.05 0.1,-0.05 0.15,-0.1 0.05,-0.05 0.15,-0.05 0.2,-0.1 0.05,-0.05 0.1,-0.05 0.15,-0.05 -0.05,0.05 -0.05,0.15 -0.05,0.2 0.05,-0.05 0.15,-0.1 0.2,-0.15 -0.15,0.15 -0.25,0.35 -0.35,0.5 -0.65,2.25 -0.95,4.7 -0.8,7.4 0.15,3.35 1.55,5.75 4.15,7.3 2.3,1.35 4.05,0.95 5.3,-1.15 1.2,-2.05 1.1,-4.1 -0.3,-6.1 -0.95,-1.35 -2,-2.4 -3.25,-3.15 0.75,0.05 1.4,0.3 2,0.65 -0.4,-0.3 -0.8,-0.6 -1.25,-0.85 l 0.2,0 c 3.25,1.55 5.1,4.15 5.45,7.85 0.15,-0.8 0.2,-1.65 0.25,-2.55 l -0.025,-0.025 0,-0.05"
           inkscape:connector-curvature="0"
           style="fill:#c21d1a" />
        <path
           id="path55"
           d="m -32.2,-66.25 c 0.05,0 0.05,0 0.1,-0.05 -0.05,0.05 -0.05,0.1 -0.05,0.15 0.05,-0.1 0.15,-0.2 0.2,-0.3 -0.15,0.05 -0.2,0.1 -0.25,0.2 z"
           inkscape:connector-curvature="0"
           style="fill:#c21d1a" />
        <path
           id="path58"
           d="m -32.95,-57.4 c 0.05,0 0.15,0 0.2,-0.05 0,-0.05 0,-0.05 -0.05,-0.05 -0.05,0.05 -0.1,0.05 -0.15,0.1"
           inkscape:connector-curvature="0"
           style="fill:#c21d1a" />
        <path
           id="path59"
           d="m -33,-56.6 c 0.05,-0.1 0.05,-0.2 0.1,-0.25 l -0.025,-0.025"
           inkscape:connector-curvature="0"
           style="fill:#851611" />
      </g>
      <animate
         attributeName="display"
         begin="0s"
         repeatCount="1"
         dur="0.5s"
         keyTimes="0;0.333;0.5;1"
         values="none;inline;none;none"
         id="animate3775" />
    </g>
    <g
       id="capeD006_1_173">
      <g
         id="element1">
        <path
           id="path20"
           d="M 3.3,-33.25 C 3.35,-33.4 3.35,-33.6 3.4,-33.75 3.35,-34 3.35,-34.2 3.3,-34.4 l -0.025,0 0,-0.05 0.025,0 c -0.2,-2.95 -1.8,-4.75 -4.75,-5.4 -0.75,-0.1 -1.5,0.05 -2.25,0.5 -0.1,0.05 -0.2,0.15 -0.3,0.25 0.5,0.1 1,0.2 1.45,0.35 0.2,0.05 0.4,0.1 0.6,0.15 0.75,0.8 1.4,1.85 1.9,3.2 1.15,3.2 0.05,4.6 -3.3,4.2 -0.25,-0.25 -0.45,-0.55 -0.65,-0.85 -1.95,-2.9 -2.85,-6 -2.7,-9.25 -0.55,0.55 -0.85,1.3 -0.9,2.2 l -0.025,0 -0.025,0.025 0,0.025 c 0.15,-0.8 0.35,-1.6 0.6,-2.4 -0.75,0.65 -1.25,1.55 -1.4,2.7 -0.45,2.5 -0.05,4.85 1.1,7 0.05,0.15 0.1,0.25 0.15,0.4 0.15,0.25 0.3,0.45 0.5,0.7 0.75,1.15 1.55,2 2.35,2.55 0.6,0.1 1.2,0.1 1.75,0.05 0.5,-0.05 1,-0.2 1.5,-0.4 0.05,0 0.05,0 0.1,0 l -0.025,-0.025 0,-0.025 0.025,0 c 0.35,-0.15 0.65,-0.3 0.95,-0.45 0.15,-0.05 0.25,-0.15 0.4,-0.2 0.15,-0.15 0.35,-0.25 0.5,-0.35 1.25,-0.95 2.05,-2.2 2.45,-3.75 z m -2.7,-4.5 C 0.35,-38 0.15,-38.2 -0.1,-38.4 c 0.2,0.05 0.45,0.25 0.8,0.55 l -0.025,0 q -0.057,0.048 -0.1,0.1 z m -1.35,8 c -0.05,0.1 -0.1,0.2 -0.15,0.25 -0.2,-0.05 -0.4,-0.15 -0.55,-0.2 0.25,-0.05 0.5,-0.05 0.75,-0.1 0,0 0,0 -0.05,0.05 z"
           inkscape:connector-curvature="0"
           style="fill:#851611" />
        <path
           id="path21"
           d="m 0.575,-37.75 q 0.043,-0.052 0.1,-0.1 l 0.025,0 c -0.35,-0.3 -0.6,-0.5 -0.8,-0.55 0.25,0.2 0.45,0.4 0.7,0.65"
           inkscape:connector-curvature="0"
           style="fill:#c21d1a" />
        <path
           id="path24"
           d="m -0.75,-29.75 c 0.05,-0.05 0.05,-0.05 0.05,-0.05 -0.25,0.05 -0.5,0.05 -0.75,0.1 0.15,0.05 0.35,0.15 0.55,0.2 0.05,-0.05 0.1,-0.15 0.15,-0.25 z m 4.25,-5.1 c 0.15,-3.1 -0.55,-7.15 -2.1,-12.1 -1.15,-3.7 -3,-5.5 -5.5,-5.45 -0.5,0.1 -1.15,0.6 -1.95,1.45 -0.8,0.85 -0.95,1.75 -0.4,2.8 0.55,1 0.5,2.2 -0.1,3.6 -1.35,0.85 -4.5,0.05 -9.4,-2.45 -4.95,-2.55 -8.15,-3.25 -9.7,-2.2 -1.55,1.05 -2.45,1.7 -2.6,1.85 0.1,-0.2 0.2,-0.4 0.3,-0.6 -0.45,0.75 -0.8,1.6 -1.15,2.65 -0.85,2.65 -1.15,5.2 -1,7.7 0.15,2.85 0.7,5.45 1.55,7.8 0,0.15 0.05,0.35 0.1,0.55 -0.05,0.05 0,0.1 0.05,0.25 l -0.025,0 0.025,0.025 0,0.075 c 0,-0.05 0,-0.05 0,-0.05 l 0,0.025 0.15,-0.025 c 0.1,0.25 0.2,0.5 0.35,0.75 0.1,0.25 0.2,0.55 0.35,0.8 0.2,0.35 0.4,0.7 0.6,1.05 l 0.15,-0.075 0,0.025 c 1.1,1.15 2.6,1.95 4.55,2.45 l 0.1,-0.15 c 0.05,0.05 0.15,0.05 0.3,0.1 l -0.025,0 0.375,0.225 0.3,-0.25 0,0.025 c -1.45,-1.65 -2.65,-3.45 -3.7,-5.4 0.05,-0.05 0.1,-0.05 0.15,-0.05 -0.05,-0.05 -0.1,-0.05 -0.15,-0.1 -0.05,0 -0.15,-0.05 -0.2,-0.1 0.05,-0.3 0,-0.55 -0.2,-0.8 l -0.025,-0.025 0.025,0.025 c -0.05,0.05 -0.05,0.15 -0.05,0.2 -0.15,-0.3 -0.25,-0.6 -0.4,-0.9 -0.2,-0.45 -0.4,-0.95 -0.55,-1.45 -0.15,-0.35 -0.25,-0.65 -0.35,-1 -0.55,-1.85 -0.9,-3.55 -1.05,-5.1 l -0.025,-0.025 -0.075,0.425 c -0.05,0.15 -0.05,0.3 -0.05,0.45 0,-0.15 0,-1.05 0,-2.75 -0.05,-1.75 0.15,-3.05 0.55,-3.95 0.4,-0.95 0.65,-1.3 0.75,-1.05 0.05,0.2 0.1,0.2 0.15,-0.05 0,-0.25 0.05,-0.45 0.2,-0.55 l 0,-0.025 0.05,-0.175 c 0,0.05 0,0.1 0,0.15 0.5,-0.45 1.85,0.1 4.1,1.65 2.75,1.95 5.3,4.6 7.6,7.95 0.85,1.25 2.5,3.05 4.95,5.4 0.2,0.25 0.35,0.55 0.5,0.85 0.25,0.15 0.45,0.35 0.7,0.5 1.35,0.95 2.7,1.55 3.95,1.8 -0.8,-0.55 -1.6,-1.4 -2.35,-2.55 -0.2,-0.25 -0.35,-0.45 -0.5,-0.7 -0.05,-0.15 -0.1,-0.25 -0.15,-0.4 -1.15,-2.15 -1.55,-4.5 -1.1,-7 0.15,-1.15 0.65,-2.05 1.4,-2.7 -0.25,0.8 -0.45,1.6 -0.6,2.4 l 0,-0.025 0.025,-0.025 0.025,0 c 0.05,-0.9 0.35,-1.65 0.9,-2.2 -0.15,3.25 0.75,6.35 2.7,9.25 0.2,0.3 0.4,0.6 0.65,0.85 3.35,0.4 4.45,-1 3.3,-4.2 -0.5,-1.35 -1.15,-2.4 -1.9,-3.2 -0.2,-0.05 -0.4,-0.1 -0.6,-0.15 C -3,-38.9 -3.5,-39 -4,-39.1 c 0.1,-0.1 0.2,-0.2 0.3,-0.25 0.75,-0.45 1.5,-0.6 2.25,-0.5 2.95,0.65 4.55,2.45 4.75,5.4 l -0.025,0 0,0.05 0.025,0 c 0.05,0.2 0.05,0.4 0.1,0.65 0.05,-0.35 0.05,-0.75 0.1,-1.1 z m -12.9,1.2 c 0,0 0,0 0.05,0 -0.05,0.05 -0.05,0.15 -0.05,0.2 -0.05,0 -0.05,0.05 -0.05,0.1 l 0,-0.025 -0.225,-0.2 0.025,0.025 c 0.05,-0.05 0.05,-0.1 0.1,-0.15 0.05,-0.05 0.1,0 0.15,0.05 z"
           inkscape:connector-curvature="0"
           style="fill:#c21d1a" />
        <path
           id="path29"
           d="m -9.4,-33.65 c -0.05,-0.05 -0.1,-0.1 -0.15,-0.05 -0.05,0.05 -0.05,0.1 -0.1,0.15 l -0.025,-0.025 0.225,0.2 0,0.025 c 0,-0.05 0,-0.1 0.05,-0.1 0,-0.05 0,-0.15 0.05,-0.2 -0.05,0 -0.05,0 -0.05,0 z M -24.9,-50.8 c -0.05,0 -0.15,0.1 -0.3,0.3 l -2.75,2.525 0,0.025 c -0.1,0.2 -0.2,0.4 -0.3,0.6 0.15,-0.15 1.05,-0.8 2.6,-1.85 1.55,-1.05 4.75,-0.35 9.7,2.2 4.9,2.5 8.05,3.3 9.4,2.45 0.6,-1.4 0.65,-2.6 0.1,-3.6 -0.55,-1.05 -0.4,-1.95 0.4,-2.8 0.8,-0.85 1.45,-1.35 1.95,-1.45 -0.3,0 -0.6,0.05 -0.85,0.1 l 0,-0.025 -1.525,0.45 0.025,0.025 c -0.25,0.05 -0.45,0.15 -0.65,0.25 -0.35,0.15 -1.45,0.7 -3.35,1.55 -1.95,0.85 -5.15,0.65 -9.6,-0.7 -1.85,-0.55 -3.5,-0.6 -4.85,-0.05 z m 6.25,17.05 c 2.55,-0.6 4.7,-0.3 6.45,0.85 1.7,1.15 2.75,1.95 3.2,2.5 l -0.025,-0.025 0,0.025 0.025,0 c -0.15,-0.3 -0.3,-0.6 -0.5,-0.85 -2.45,-2.35 -4.1,-4.15 -4.95,-5.4 -2.3,-3.35 -4.85,-6 -7.6,-7.95 -2.25,-1.55 -3.6,-2.1 -4.1,-1.65 0,-0.05 0,-0.1 0,-0.15 l -0.05,0.175 0,0.025 c -0.15,0.1 -0.2,0.3 -0.2,0.55 -0.05,0.25 -0.1,0.25 -0.15,0.05 -0.1,-0.25 -0.35,0.1 -0.75,1.05 -0.4,0.9 -0.6,2.2 -0.55,3.95 0,1.7 0,2.6 0,2.75 0,-0.15 0,-0.3 0.05,-0.45 l 0.075,-0.425 0.025,0.025 c 0.15,1.55 0.5,3.25 1.05,5.1 0.1,0.15 0.2,0.35 0.35,0.55 0,0.05 0,0.15 0,0.2 0,0.1 0,0.2 0,0.25 0.15,0.5 0.35,1 0.55,1.45 0.15,0.3 0.25,0.6 0.4,0.9 0,-0.05 0,-0.15 0.05,-0.2 l -0.025,-0.025 0.025,0.025 c 0.2,0.25 0.25,0.5 0.2,0.8 0.05,0.05 0.15,0.1 0.2,0.1 0.05,0.05 0.1,0.05 0.15,0.1 0.15,-0.15 0.25,-0.25 0.4,-0.4 0,-0.05 0,-0.05 0.05,-0.1 0,-0.05 0,-0.05 0.05,-0.1 1.05,-1.9 2.9,-3.15 5.6,-3.7 z m -7.65,0.7 c 0,0.05 0,0.15 0,0.2 0,0.1 0,0.2 0,0.25 -0.15,-0.35 -0.25,-0.65 -0.35,-1 0.1,0.15 0.2,0.35 0.35,0.55 z m -1.95,4.1 -0.15,0.025 0,0.025 c 0.1,0.45 0.2,0.95 0.35,1.4 -0.05,-0.5 -0.15,-1 -0.2,-1.45 z m 1.35,2.7 c 0.05,-0.05 0.05,-0.1 0.1,-0.15 l 0,-0.025 -0.15,0.075 c 0,0.05 0,0.05 0.05,0.1 z m 5.95,2.5 c -0.1,-0.1 -0.2,-0.2 -0.25,-0.25 l 0,-0.025 -0.3,0.25 0,0.025 c 0.25,0.1 0.5,0.2 0.75,0.35 -0.05,-0.1 -0.05,-0.2 -0.1,-0.25 0.15,0 0.35,0 0.5,0.05 -0.25,-0.05 -0.45,-0.1 -0.6,-0.15 z m -0.95,-0.1 c 0.15,0.05 0.25,0.05 0.4,0.1 l 0,-0.025 -0.375,-0.225 0.025,0 c -0.15,-0.05 -0.25,-0.05 -0.3,-0.1 l -0.1,0.15 c 0.1,0.05 0.2,0.05 0.3,0.1 l 0,-0.025 0.025,0 z"
           inkscape:connector-curvature="0"
           style="fill:#851611" />
        <path
           id="path47"
           d="m -19.125,-32.95 0.025,0 m 0.1,0.05 c -0.05,-0.05 -0.1,-0.05 -0.1,-0.05 l 0.075,0.025"
           inkscape:connector-curvature="0"
           style="fill:#851611" />
        <path
           id="path48"
           d="m -16.4,-31.95 c -0.05,-0.05 -0.05,-0.05 -0.05,-0.1 -0.05,-0.25 -0.05,-0.25 -0.05,0 l 0,0.05 c 0.05,0 0.05,0 0.1,0.05"
           inkscape:connector-curvature="0"
           style="fill:#c21d1a" />
      </g>
      <animate
         attributeName="display"
         begin="0s"
         repeatCount="1"
         dur="0.5s"
         keyTimes="0;0.167;0.333;1"
         values="none;inline;none;none"
         id="animate3785" />
    </g>
    <g
       id="capeD006_1_171">
      <g
         id="element">
        <path
           id="path"
           d="M 2.4,-34.4 Q 2.3,-34.45 2.25,-34.55 C 2.2,-34.7 2.15,-34.85 2.1,-34.95 1.65,-35.65 1,-36.35 0.15,-37 0.1,-37.05 0,-37.1 -0.05,-37.15 -0.2,-37.1 -0.3,-37 -0.4,-36.95 l 0,0.05 c -0.25,0.05 -0.5,0.05 -0.75,0.1 -0.95,1.05 -2.5,1.65 -4.7,1.75 -3.35,0.25 -6.55,0.1 -9.6,-0.4 -0.85,-0.15 -1.5,-0.4 -2,-0.75 -2.2,0.35 -4.2,1.4 -6.05,3.25 -0.05,0 -0.1,0.05 -0.15,0.1 -0.05,0.05 -0.05,0.05 -0.05,0.1 -0.6,0.55 -1.15,1.2 -1.65,1.95 l -1.15,2 c -0.15,0.25 -0.25,0.5 -0.35,0.75 -0.2,0.45 -0.4,0.9 -0.55,1.4 -0.65,1.85 -1.2,3.95 -1.55,6.35 -0.85,5.75 -1.2,9.55 -1,11.3 0.05,0.9 0.05,1.95 0.1,3.2 0.05,0 0.05,0 0.05,0.05 0,0.15 0,0.3 -0.05,0.45 -0.05,0.85 -0.05,1.85 -0.1,3 -0.05,0.15 -0.05,0.35 -0.05,0.5 0.3,-0.25 0.6,-0.45 0.9,-0.6 0.05,-0.15 0.1,-0.3 0.15,-0.45 -0.05,0.1 -0.05,0.2 -0.05,0.35 0.3,-0.25 0.6,-0.4 0.9,-0.5 0.15,-0.1 0.3,-0.2 0.5,-0.25 l 0,-0.05 c 0.15,-0.1 0.3,-0.15 0.5,-0.15 0.35,-0.15 0.65,-0.25 1,-0.25 2.85,-0.4 5.6,-0.25 8.2,0.5 0.45,0.15 0.95,0.35 1.4,0.55 0.05,0 0.05,0 0.1,0 l 0.2,0.1 c 0.2,0.05 0.4,0.15 0.65,0.2 -0.9,-0.85 -1.65,-1.85 -2.25,-2.95 -0.95,-1.9 -2,-3.1 -3.1,-3.55 -0.55,-0.15 -1.35,0.3 -2.45,1.35 -1.15,1.05 -2.05,1.85 -2.75,2.35 -0.75,0.45 -1.25,0.8 -1.5,1 0.05,-1 0.15,-2 0.3,-3 -0.05,-0.05 -0.15,-0.05 -0.25,-0.1 l 0.25,0 c -0.05,-0.15 -0.05,-0.35 -0.05,-0.55 l -0.15,-1.45 c 0,-0.1 0,-0.2 -0.05,-0.3 0.05,-0.15 0.05,-0.35 0.05,-0.5 -0.05,-0.9 -0.1,-1.75 -0.15,-2.55 0,-0.15 0,-0.25 -0.05,-0.35 l -0.05,-3.5 c 0.05,-0.15 0.05,-0.3 0.05,-0.4 -0.05,-0.05 -0.05,-0.05 -0.05,-0.1 l 0,-0.05 c 0,-0.1 0,-0.2 0.05,-0.25 0,-0.15 0,-0.3 0,-0.4 l 0,-0.5 c 0.6,-6.15 1.9,-9.9 3.95,-11.35 0.5,-0.35 1,-0.65 1.55,-0.95 0.25,-0.15 0.45,-0.25 0.65,-0.3 0.05,-0.05 0.1,-0.15 0.15,-0.2 0,-0.05 0,-0.05 0,-0.1 1.7,-0.2 3.35,-0.05 4.9,0.4 0.1,0.05 0.2,0.1 0.25,0.15 0.1,0 0.2,0 0.35,0.05 0.1,0.05 0.2,0.05 0.3,0.1 l 3.65,1 c 0.45,0.05 0.85,0.15 1.25,0.2 0.05,0 0.1,0 0.15,-0.05 0.05,0.05 0.05,0.1 0.05,0.15 0.35,0.05 0.65,0.15 1,0.2 l 1.7,0.25 c 0.15,0 0.25,0 0.4,0.05 -0.05,0.05 -0.1,0.15 -0.1,0.2 0.05,-0.05 0.15,-0.05 0.25,-0.05 0.05,0.05 0.1,0.1 0.2,0.15 -0.05,-0.05 -0.05,-0.15 -0.05,-0.2 l 0.05,-0.05 0.15,0 c 0.35,0.05 0.7,0.1 1.05,0.15 -0.75,-0.15 -1.5,-0.3 -2.25,-0.5 -0.6,-0.15 -1.1,-0.35 -1.5,-0.7 -0.05,-0.05 -0.05,-0.15 -0.05,-0.2 -0.05,-0.05 -0.05,-0.15 0,-0.2 -0.05,-0.05 -0.05,-0.1 -0.05,-0.15 0.05,-0.05 0.05,-0.15 0.05,-0.2 0,-0.05 0,-0.15 0.05,-0.2 0,-0.05 0,-0.1 0.05,-0.15 0,-0.15 0,-0.25 0.05,-0.4 0.05,-0.05 0.05,-0.1 0.05,-0.15 0.15,-0.15 0.35,-0.25 0.5,-0.3 0.35,-0.15 0.65,-0.25 0.9,-0.35 1.85,-0.9 3.5,-0.95 4.85,-0.2 -0.1,0.1 -0.2,0.2 -0.3,0.25 -0.05,0.05 -0.15,0.1 -0.25,0.1 -0.65,0.05 -1.3,0.05 -1.95,0.1 -0.7,0.05 -1.25,0.3 -1.65,0.75 -0.05,0.05 -0.05,0.1 -0.1,0.15 -0.2,0.55 0.05,0.9 0.8,1.15 3,0.85 5.7,0.35 8.15,-1.4 0.1,-0.05 0.15,-0.15 0.2,-0.2 0,-0.35 -0.15,-0.65 -0.4,-0.8 -2.6,-1.55 -5.65,-2.2 -9.1,-1.9 0,-0.05 0.05,-0.05 0.1,-0.1 0.05,-0.05 0.15,-0.15 0.2,-0.2 0.15,-0.05 0.25,-0.1 0.4,-0.15 0.15,-0.1 0.3,-0.15 0.45,-0.15 0.35,-0.05 0.75,-0.15 1.1,-0.2 0.15,0 0.2,-0.05 0.25,-0.1 2.2,0.05 4.2,0.5 6,1.3 1.1,0.5 1.75,1.05 1.9,1.6 0.3,-0.85 0.25,-1.7 -0.2,-2.55 z m -1.5,2.8 c -0.05,0.05 -0.05,0.15 0,0.25 -0.1,0.05 -0.15,0.1 -0.2,0.15 0.05,-0.1 0.05,-0.2 0.1,-0.3 0.05,-0.05 0.05,-0.05 0.1,-0.1 z M 1.2,-9.45 C 0.9,-9.6 0.6,-9.65 0.25,-9.6 c -2.15,-1.05 -3.95,-1.2 -5.4,-0.35 -1.4,0.85 -2.45,1.8 -3.1,2.85 -0.65,1.05 -1.1,2.1 -1.25,3.15 0.25,-0.2 0.45,-0.45 0.7,-0.75 2.15,-2.45 5.45,-4.05 10,-4.75 z"
           inkscape:connector-curvature="0"
           style="fill:#c21d1a" />
        <path
           id="path1"
           d="m 0.9,-31.6 c -0.05,0.05 -0.05,0.05 -0.1,0.1 -0.05,0.1 -0.05,0.2 -0.1,0.3 0.05,-0.05 0.1,-0.1 0.2,-0.15 -0.05,-0.1 -0.05,-0.2 0,-0.25 z m -12.85,2.25 c 0.45,0.1 0.95,0.2 1.45,0.3 0,-0.05 0,-0.1 -0.05,-0.15 -0.05,0.05 -0.1,0.05 -0.15,0.05 -0.4,-0.05 -0.8,-0.15 -1.25,-0.2 z m -15.75,12.5 c 0,-0.15 0,-0.3 0,-0.4 -0.05,0.05 -0.05,0.15 -0.05,0.25 l 0,0.05 c 0,0.05 0,0.05 0.05,0.1 z m -2.1,11.1 c 0,-0.05 0,-0.05 -0.05,-0.05 0,0.15 0,0.3 0,0.5 0.05,-0.15 0.05,-0.3 0.05,-0.45 z m 0.85,2.9 c -0.05,0.15 -0.1,0.3 -0.15,0.45 0.35,-0.25 0.65,-0.45 1,-0.6 -0.3,0.1 -0.6,0.25 -0.9,0.5 0,-0.15 0,-0.25 0.05,-0.35 z"
           inkscape:connector-curvature="0"
           style="fill:#3300ff" />
        <path
           id="path4"
           d="m 1.3,-31.95 c 0.25,0.15 0.4,0.45 0.4,0.8 -0.05,0.05 -0.1,0.15 -0.2,0.2 -2.45,1.75 -5.15,2.25 -8.15,1.4 -0.75,-0.25 -1,-0.6 -0.8,-1.15 0.05,-0.05 0.05,-0.1 0.1,-0.15 0.4,-0.45 0.95,-0.7 1.65,-0.75 0.65,-0.05 1.3,-0.05 1.95,-0.1 0.1,0 0.2,-0.05 0.25,-0.1 0.1,-0.05 0.2,-0.15 0.3,-0.25 -1.35,-0.75 -3,-0.7 -4.85,0.2 -0.25,0.1 -0.55,0.2 -0.9,0.35 -0.15,0.05 -0.35,0.15 -0.5,0.3 0,0.05 0,0.1 -0.05,0.15 -0.05,0.15 -0.05,0.25 -0.05,0.4 -0.05,0.05 -0.05,0.1 -0.05,0.15 -0.05,0.05 -0.05,0.15 -0.05,0.2 0,0.05 0,0.15 -0.05,0.2 0,0.05 0,0.1 0.05,0.15 -0.05,0.05 -0.05,0.15 0,0.2 0,0.05 0,0.15 0.05,0.2 0.4,0.35 0.9,0.55 1.5,0.7 0.75,0.2 1.5,0.35 2.25,0.5 l 0,-0.025 0.15,0.025 c 0.05,0 0.15,0 0.2,0 0.25,0.05 0.5,0.05 0.75,0.1 l 2.25,0.15 c 0.05,0 0.15,0 0.2,0 0.05,0 1,-0.4 2.85,-1.2 0.05,-0.1 0.15,-0.15 0.2,-0.2 0.05,-0.05 0.15,-0.15 0.2,-0.2 0.85,-0.7 1.4,-1.4 1.65,-2.15 -0.15,-0.55 -0.8,-1.1 -1.9,-1.6 -1.8,-0.8 -3.8,-1.25 -6,-1.3 -0.05,0.05 -0.1,0.1 -0.25,0.1 -0.35,0.05 -0.75,0.15 -1.1,0.2 -0.15,0 -0.3,0.05 -0.45,0.15 -0.15,0.05 -0.25,0.1 -0.4,0.15 -0.05,0.05 -0.15,0.15 -0.2,0.2 -0.05,0.05 -0.1,0.05 -0.1,0.1 3.45,-0.3 6.5,0.35 9.1,1.9 z M 0.25,-9.6 c 0.35,-0.05 0.65,0 0.95,0.15 0.05,-0.05 0.15,-0.05 0.2,-0.05 -3.8,-3.75 -6.25,-6.95 -7.3,-9.6 -1.2,-3 -1.6,-6.05 -1.15,-9.15 -0.1,-0.05 -0.15,-0.1 -0.2,-0.15 -0.1,0 -0.2,0 -0.25,0.05 0,-0.05 0.05,-0.15 0.1,-0.2 -0.15,-0.05 -0.25,-0.05 -0.4,-0.05 l -1.7,-0.25 c -0.35,-0.05 -0.65,-0.15 -1,-0.2 -0.5,-0.1 -1,-0.2 -1.45,-0.3 l -3.65,-1 c -0.1,-0.05 -0.2,-0.05 -0.3,-0.1 -0.15,-0.05 -0.25,-0.05 -0.35,-0.05 -0.05,-0.05 -0.15,-0.1 -0.25,-0.15 -1.55,-0.45 -3.2,-0.6 -4.9,-0.4 0,0.05 0,0.05 0,0.1 -0.05,0.05 -0.1,0.15 -0.15,0.2 -0.2,0.05 -0.4,0.15 -0.65,0.3 -0.55,0.3 -1.05,0.6 -1.55,0.95 -2.05,1.45 -3.35,5.2 -3.95,11.35 l 0,0.5 c 0,0.1 0,0.25 0,0.4 0,0.1 0,0.25 0,0.4 0,0.1 0,0.25 -0.05,0.4 l 0.05,3.5 c 0.05,0.1 0.05,0.2 0.05,0.35 0.05,0.8 0.1,1.65 0.15,2.55 0,0.15 0,0.35 -0.05,0.5 0.05,0.1 0.05,0.2 0.05,0.3 l 0.15,1.45 c 0,0.2 0,0.4 0.05,0.55 l -0.25,0 c 0.1,0.05 0.2,0.05 0.25,0.1 -0.15,1 -0.25,2 -0.3,3 0.25,-0.2 0.75,-0.55 1.5,-1 0.7,-0.5 1.6,-1.3 2.75,-2.35 1.1,-1.05 1.9,-1.5 2.45,-1.35 1.1,0.45 2.15,1.65 3.1,3.55 0.6,1.1 1.35,2.1 2.25,2.95 2.25,0.65 4.25,0.1 6.05,-1.6 0.15,-1.05 0.6,-2.1 1.25,-3.15 0.65,-1.05 1.7,-2 3.1,-2.85 1.45,-0.85 3.25,-0.7 5.4,0.35 z m -17.7,-26.6 c 0.5,0.35 1.15,0.6 2,0.75 3.05,0.5 6.25,0.65 9.6,0.4 2.2,-0.1 3.75,-0.7 4.7,-1.75 -0.75,0.15 -1.25,0.2 -1.5,0.25 -4.45,0.6 -8.4,0.7 -11.75,0.25 -1.05,-0.1 -2.05,-0.05 -3.05,0.1 z"
           inkscape:connector-curvature="0"
           style="fill:#851611" />
        <path
           id="path19"
           d="m -0.2,-8.95 c 0.05,0.05 0.05,0.1 0.1,0.15 0.05,0.05 0.1,0.15 0.2,0.2 C 0,-8.75 -0.1,-8.85 -0.2,-8.95"
           inkscape:connector-curvature="0"
           style="fill:#3300ff" />
      </g>
      <animate
         attributeName="display"
         begin="0s"
         repeatCount="1"
         dur="0.5s"
         keyTimes="0;0.167;1"
         values="inline;none;none"
         id="animate3793" />
    </g>
  </g>
</svg>
