<?xml version="1.0" encoding="UTF-8" standalone="no"?>
<!-- Generator: flash2svg, http://dissentgraphics.com/tools/flash2svg -->

<svg
   xmlns:dc="http://purl.org/dc/elements/1.1/"
   xmlns:cc="http://creativecommons.org/ns#"
   xmlns:rdf="http://www.w3.org/1999/02/22-rdf-syntax-ns#"
   xmlns:svg="http://www.w3.org/2000/svg"
   xmlns="http://www.w3.org/2000/svg"
   xmlns:sodipodi="http://sodipodi.sourceforge.net/DTD/sodipodi-0.dtd"
   xmlns:inkscape="http://www.inkscape.org/namespaces/inkscape"
   id="AvatarAssets"
   image-rendering="auto"
   version="1.1"
   x="0px"
   y="0px"
   width="40.834499"
   height="30.578903"
   viewBox="0 0 40.834499 30.578903"
   inkscape:version="0.48.4 r9939"
   sodipodi:docname="AvatarAssets_coatCloseC006.ANI-jumpOver_fall.svg">
  <metadata
     id="metadata7211">
    <rdf:RDF>
      <cc:Work
         rdf:about="">
        <dc:format>image/svg+xml</dc:format>
        <dc:type
           rdf:resource="http://purl.org/dc/dcmitype/StillImage" />
      </cc:Work>
    </rdf:RDF>
  </metadata>
  <sodipodi:namedview
     pagecolor="#ffffff"
     bordercolor="#666666"
     borderopacity="1"
     objecttolerance="10"
     gridtolerance="10"
     guidetolerance="10"
     inkscape:pageopacity="0"
     inkscape:pageshadow="2"
     inkscape:window-width="640"
     inkscape:window-height="480"
     id="namedview7209"
     showgrid="false"
     fit-margin-top="0"
     fit-margin-left="0"
     fit-margin-right="0"
     fit-margin-bottom="0"
     inkscape:zoom="1.9032258"
     inkscape:cx="66.0335"
     inkscape:cy="-65.720096"
     inkscape:window-x="0"
     inkscape:window-y="0"
     inkscape:window-maximized="0"
     inkscape:current-layer="AvatarAssets" />
  <defs
     id="defs7104" />
  <g
     id="coatCloseC7"
     overflow="visible"
     style="overflow:visible"
     transform="translate(34.0335,34.299)">
    <g
       id="coatCloseC006_2_210">
      <g
         id="element6">
        <path
           id="path60"
           d="m 6.1,-21.4 q 0.005,-0.659 -0.25,-0.925 l 0,0.025 C 5.6,-22.55 5.3,-22.8 4.9,-23.1 c -0.15,0.75 -0.25,1.5 -0.25,2.2 -0.55,1.15 -1.2,2.45 -2,3.9 -0.85,1.35 -1.75,2.75 -2.8,4.1 -0.05,0.05 -0.1,0.15 -0.05,0.3 l -0.025,-0.025 -0.2,0 0.025,0.025 c -0.35,0.35 -0.65,0.75 -0.95,1.15 -0.1,0.05 -0.2,0.15 -0.25,0.25 l -0.025,0 0.05,0.05 0,0.05 0.025,0 c -0.05,-0.05 -0.15,-0.15 -0.2,-0.2 -0.45,0.25 -1.4,1.05 -2.75,2.35 -1.35,1.25 -2.8,2.15 -4.35,2.8 -0.05,0 -0.05,0 -0.1,0 l -0.025,-0.05 0.025,0 -0.025,-0.025 0,-0.025 -1.425,0.65 -0.05,0 0.025,-0.05 -0.05,0.025 -0.025,0.025 -0.65,0.225 0,-0.025 c -1.55,0.25 -2.7,0.35 -3.45,0.25 -0.75,-0.1 -1.5,-0.25 -2.15,-0.4 0.5,0.35 1.1,0.75 1.8,1.2 1.35,0.45 2.75,0.5 4.2,0.15 l -0.4,0.225 0.575,-0.1 0.025,0.025 c 3.05,-0.5 5.9,-1.95 8.5,-4.3 2.6,-2.4 4.4,-4.3 5.4,-5.7 1,-1.45 1.75,-2.8 2.3,-4.1 0.5,-1.35 0.8,-2.15 0.85,-2.5 -0.25,-0.25 -0.4,-0.5 -0.4,-0.75 z m -15.15,15.05 0.075,0.075 -0.05,-0.175 0.025,0 c -0.05,0.05 -0.1,0.15 -0.05,0.05 0,0.05 0,0.05 0,0.05 z"
           inkscape:connector-curvature="0"
           style="fill:#263667" />
        <path
           id="path61"
           d="m 4.65,-20.9 c 0,-0.7 0.1,-1.45 0.25,-2.2 l 0,-0.05 -0.05,-0.15 c -1.75,-2.55 -3.4,-4.9 -5,-7.1 -1.45,-1.95 -2.2,-2.95 -2.3,-2.95 -0.35,0 -0.85,0.1 -1.5,0.3 -0.65,0.15 -1.1,0.25 -1.3,0.25 0.65,0.7 0.95,1.2 1,1.45 0.55,0.65 0.85,1.05 0.85,1.2 -1.8,-0.55 -3.55,-0.45 -5.3,0.25 0.3,0.35 0.8,1.45 1.45,3.3 0,-0.95 0.4,-1.8 1.2,-2.45 0.85,-0.65 1.85,-1 3,-1 l 0,-0.05 0.2,0.25 c 0.65,0.3 1,0.55 1.15,0.7 -0.05,0.05 0.1,1.05 0.45,2.9 0.35,2 0.55,3.15 0.55,3.45 0,1.15 -0.3,2.95 -0.85,5.45 -0.55,2.45 -0.85,3.9 -0.8,4.3 0,0.4 0.1,0.8 0.35,1.25 0.05,0.2 0.15,0.35 0.25,0.5 0.05,0.05 0.15,0.15 0.2,0.2 l -0.025,0 0,-0.05 -0.05,-0.05 0.025,0 c 0.05,-0.1 0.15,-0.2 0.25,-0.25 0.3,-0.4 0.6,-0.8 0.95,-1.15 l -0.025,-0.025 -0.625,0 0,0.025 c -0.2,-0.45 -0.3,-0.95 -0.3,-1.55 0,-0.35 0.4,-1.2 1.25,-2.45 0,-0.9 -0.25,-2.05 -0.7,-3.45 -0.15,-1 0.7,-1.7 2.45,-2.05 l -0.025,0 -0.225,-0.05 c -0.95,-0.35 -1.5,-1.4 -1.65,-3.1 -0.25,-1.95 -0.6,-3.15 -1.15,-3.6 l -0.025,0 0.25,0.15 0.025,0 c 0.45,0.25 0.85,0.85 1.2,1.8 0.35,1 0.75,1.7 1.3,2.05 0.45,0.25 1.1,0.9 1.95,1.95 0.8,0.95 1.25,1.65 1.35,2 z m -2,3.9 c -0.45,0.35 -1,0.65 -1.65,0.85 -0.5,0.15 -0.85,0.2 -1,0.2 0,1.15 -0.05,2.2 -0.15,3.05 1.05,-1.35 1.95,-2.75 2.8,-4.1 z m -23.8,6.95 c -0.15,0 -0.25,0 -0.4,-0.05 0.2,0.15 0.4,0.35 0.65,0.5 l -0.025,-0.025 0,0.025 0.025,0 c 0.15,0.35 0.45,0.75 0.85,1.2 0.4,0.4 0.7,0.75 0.85,1.05 0.1,0.2 0.9,0.8 2.45,1.8 0.65,0.15 1.4,0.3 2.15,0.4 0.75,0.1 1.9,0 3.45,-0.25 l 0,0.025 0.65,-0.225 0.025,-0.025 0.175,-0.275 c -0.05,0.1 -0.1,0.2 -0.1,0.25 l -0.025,0 -0.025,0.05 0.05,0 1.425,-0.65 0,0.025 0.025,0.025 0.3,-0.1 -0.3,0.05 -0.025,-0.025 -0.075,-0.075 c 0,0 0,0 0,-0.05 -0.15,-0.1 -0.35,-0.4 -0.5,-0.8 -0.15,-0.55 -0.35,-1.2 -0.55,-2 0,-0.2 -0.05,-0.35 -0.15,-0.55 -0.1,-0.35 -0.15,-0.45 -0.1,-0.25 -0.05,-0.05 -0.1,-0.15 -0.15,-0.4 l 0,-0.1 c -0.05,0.05 -0.1,0.1 -0.1,0.15 -3.35,-0.95 -6.85,-0.85 -10.55,0.3 z"
           inkscape:connector-curvature="0"
           style="fill:#721016" />
        <path
           id="path62"
           d="m 1.4,-22.15 0.225,0.05 0.025,0 c -1.75,0.35 -2.6,1.05 -2.45,2.05 0.45,1.4 0.7,2.55 0.7,3.45 -0.85,1.25 -1.25,2.1 -1.25,2.45 0,0.6 0.1,1.1 0.3,1.55 l 0,-0.025 0.625,0 0.2,0 0.025,0.025 c -0.05,-0.15 0,-0.25 0.05,-0.3 0.1,-0.85 0.15,-1.9 0.15,-3.05 0.15,0 0.5,-0.05 1,-0.2 0.65,-0.2 1.2,-0.5 1.65,-0.85 0.8,-1.45 1.45,-2.75 2,-3.9 -0.1,-0.35 -0.55,-1.05 -1.35,-2 -0.85,-1.05 -1.5,-1.7 -1.95,-1.95 -0.55,-0.35 -0.95,-1.05 -1.3,-2.05 -0.35,-0.95 -0.75,-1.55 -1.2,-1.8 l -0.025,0 -0.25,-0.15 0.025,0 c 0.55,0.45 0.9,1.65 1.15,3.6 0.15,1.7 0.7,2.75 1.65,3.1 z m -6.9,-9.15 c -1.1,0 -2.2,0.05 -3.25,0.1 l -0.025,-0.025 0.125,0.2 0,0.025 c -0.15,-0.05 -0.3,0.05 -0.55,0.3 0.4,0.3 0.55,0.55 0.5,0.8 1.75,-0.7 3.5,-0.8 5.3,-0.25 0,-0.15 -0.3,-0.55 -0.85,-1.2 -0.15,0 -0.6,0 -1.25,0.05 z"
           inkscape:connector-curvature="0"
           style="fill:#8a131b" />
        <path
           id="path67"
           d="m -8.75,-31.2 c 1.05,-0.05 2.15,-0.1 3.25,-0.1 0.65,-0.05 1.1,-0.05 1.25,-0.05 -0.05,-0.25 -0.35,-0.75 -1,-1.45 -1.05,0.25 -2.2,0.8 -3.5,1.6 z"
           inkscape:connector-curvature="0"
           style="fill:#bd1a26" />
        <path
           id="path68"
           d="m -6.05,-29.05 c -0.8,0.65 -1.2,1.5 -1.2,2.45 0.1,2.2 -0.1,4.8 -0.55,7.85 -0.5,3.05 -1.05,5.1 -1.6,6.2 -0.55,1.05 -1,1.75 -1.25,2.05 l 0,-0.025 0,0.125 0.025,0.05 0.025,0 c 0,-0.05 0.05,-0.1 0.1,-0.15 l 0,0.1 c 0.05,0.25 0.1,0.35 0.15,0.4 -0.05,-0.2 0,-0.1 0.1,0.25 0.1,0.2 0.15,0.35 0.15,0.55 0.2,0.8 0.4,1.45 0.55,2 0.15,0.4 0.35,0.7 0.5,0.8 -0.05,0.1 0,0 0.05,-0.05 l -0.025,0 0.05,0.175 0.025,0.025 0.3,-0.05 -0.3,0.1 -0.025,0 0.025,0.05 c 0.05,0 0.05,0 0.1,0 1.55,-0.65 3,-1.55 4.35,-2.8 1.35,-1.3 2.3,-2.1 2.75,-2.35 -0.1,-0.15 -0.2,-0.3 -0.25,-0.5 -0.25,-0.45 -0.35,-0.85 -0.35,-1.25 -0.05,-0.4 0.25,-1.85 0.8,-4.3 0.55,-2.5 0.85,-4.3 0.85,-5.45 0,-0.3 -0.2,-1.45 -0.55,-3.45 -0.35,-1.85 -0.5,-2.85 -0.45,-2.9 -0.15,-0.15 -0.5,-0.4 -1.15,-0.7 l -0.2,-0.2 c -1.15,0 -2.15,0.35 -3,1 z"
           inkscape:connector-curvature="0"
           style="fill:#510b0f" />
        <path
           id="path70"
           d="m -21.55,-10.1 c 0.15,0.05 0.25,0.05 0.4,0.05 -0.15,-0.3 -0.35,-0.65 -0.55,-1 -0.35,-0.6 -0.65,-1.3 -0.9,-2.1 -0.3,-0.8 -0.55,-1.9 -0.75,-3.25 -0.2,-1.35 -0.25,-2.8 -0.2,-4.35 0.05,-1.55 0.1,-3.1 0.15,-4.7 -1.15,1.65 -1.95,3.2 -2.45,4.7 -1.25,3.55 -0.9,6.7 1.1,9.45 1.95,2.75 4.05,4.6 6.2,5.6 2.15,1 3.4,1.5 3.75,1.45 -0.05,-0.05 -0.1,-0.05 -0.15,-0.1 -0.7,-0.45 -1.3,-0.85 -1.8,-1.2 -1.55,-1 -2.35,-1.6 -2.45,-1.8 -0.15,-0.3 -0.45,-0.65 -0.85,-1.05 -0.4,-0.45 -0.7,-0.85 -0.85,-1.2 l -0.025,-0.025 0,0.025 0.025,0 c -0.25,-0.15 -0.45,-0.35 -0.65,-0.5 z"
           inkscape:connector-curvature="0"
           style="fill:#5b0d11" />
      </g>
      <g
         id="element7">
        <g
           id="drawingObject22">
          <path
             id="path76"
             d="m 5.707,-19.595 c -0.156,-0.371 -1.002,-0.876 -1.668,0.051 q -0.296,0.367 -0.076,1.048 0.258,0.786 0.945,0.517 c 1.053,-0.377 0.962,-1.294 0.799,-1.616 z"
             inkscape:connector-curvature="0"
             style="fill:#bb8b36" />
        </g>
        <g
           id="drawingObject23">
          <path
             id="path77"
             d="M 5.485,-19.42 C 5.447,-19.526 5.14,-20.318 4.312,-19.713 q -0.39,0.305 -0.319,0.969 0.065,0.713 0.647,0.481 c 0.948,-0.339 0.877,-1.002 0.845,-1.157 z"
             inkscape:connector-curvature="0"
             style="fill:#fcbb49" />
        </g>
        <g
           id="drawingObject24">
          <path
             id="path78"
             d="m 4.649,-19.169 c 0.31,-0.063 0.387,-0.708 -0.095,-0.464 q -0.161,0.081 -0.136,0.285 0.026,0.205 0.231,0.179 z"
             inkscape:connector-curvature="0"
             style="fill:#fde2ac" />
        </g>
        <g
           id="drawingObject25">
          <path
             id="path79"
             d="m 3.282,-15.355 c -0.157,-0.372 -0.941,-0.97 -1.694,-0.154 q -0.29,0.317 -0.175,1.036 0.108,0.769 0.833,0.604 c 1.134,-0.215 1.143,-1.121 1.036,-1.486 z"
             inkscape:connector-curvature="0"
             style="fill:#bb8b36" />
        </g>
        <g
           id="drawingObject26">
          <path
             id="path80"
             d="m 3.01,-15.187 c 0.018,-0.149 -0.24,-0.935 -1.106,-0.435 q -0.433,0.25 -0.461,0.901 -0.035,0.701 0.585,0.574 c 0.985,-0.234 1.013,-0.885 0.982,-1.04 z"
             inkscape:connector-curvature="0"
             style="fill:#fcbb49" />
        </g>
        <g
           id="drawingObject27">
          <path
             id="path81"
             d="m 2.191,-15.084 c 0.249,0.03 0.481,-0.647 -0.045,-0.459 q -0.21,0.076 -0.185,0.28 0.026,0.205 0.23,0.179 z"
             inkscape:connector-curvature="0"
             style="fill:#fde2ac" />
        </g>
        <g
           id="drawingObject28">
          <path
             id="path82"
             d="m -0.131,-11.285 c -0.057,-0.36 -0.668,-1.138 -1.608,-0.446 q -0.383,0.256 -0.417,0.957 0.003,0.806 0.76,0.796 c 1.11,-0.017 1.317,-0.898 1.265,-1.307 z"
             inkscape:connector-curvature="0"
             style="fill:#bb8b36" />
        </g>
        <g
           id="drawingObject29">
          <path
             id="path83"
             d="m -0.397,-11.166 c 0.012,-0.099 -0.035,-0.961 -0.976,-0.672 q -0.526,0.188 -0.66,0.877 -0.177,0.633 0.474,0.662 c 1.011,-0.029 1.144,-0.718 1.162,-0.867 z"
             inkscape:connector-curvature="0"
             style="fill:#fcbb49" />
        </g>
        <g
           id="drawingObject30">
          <path
             id="path84"
             d="m -1.246,-11.218 c 0.291,0.085 0.617,-0.53 0.053,-0.447 q -0.204,0.025 -0.228,0.224 -0.024,0.199 0.175,0.223 z"
             inkscape:connector-curvature="0"
             style="fill:#fde2ac" />
        </g>
      </g>
      <g
         id="element8">
        <g
           id="drawingObject31">
          <path
             id="path85"
             d="m 4.951,-22.699 c 1.1,1.55 1.85,2.3 1.85,2.3 0,0 -1.6,-3.75 -3.85,-7.15 -2.25,-3.4 -5.25,-6.1 -5.25,-6.1 l 1.8,1.8 -1.8,-1.8 q -0.1,-0.65 -1.75,-0.65 c -1.65,0 -2.65,0.6 -2.65,0.6 l 0.7,-0.3 -0.7,0.3 0.55,0.95 -0.55,-0.95 c 0,0 0.75,1.75 2.25,2.4 1.5,0.65 3.65,2.1 4.55,3.25 0.95,1.15 3.75,3.75 4.85,5.35 z"
             inkscape:connector-curvature="0"
             style="fill:#97141e" />
        </g>
        <g
           id="drawingObject32">
          <path
             id="path86"
             d="m 4.951,-22.699 c 1.1,1.55 1.85,2.3 1.85,2.3 0,0 -1.2,-2.75 -2.95,-5.75 -0.6,-0.7 -1.4,-1.55 -2.4,-2.4 q -1.3,-1.1 -3.15,-2.5 -1.9,-1.4 -2.6,-2 c -0.55,-0.45 -0.7,-0.85 -0.65,-1.2 -1.1,0.15 -1.75,0.55 -1.75,0.55 l 0.45,-0.2 -0.45,0.2 0.55,0.95 -0.55,-0.95 c 0,0 0.75,1.75 2.25,2.4 1.5,0.65 3.65,2.1 4.55,3.25 0.95,1.15 3.75,3.75 4.85,5.35 z"
             inkscape:connector-curvature="0"
             style="fill:#314582" />
        </g>
      </g>
      <animate
         attributeName="display"
         begin="0s"
         repeatCount="1"
         dur="0.458s"
         keyTimes="0;0.546;1"
         values="none;inline;none"
         id="animate7139" />
    </g>
    <g
       id="coatCloseC006_2_208">
      <g
         id="element3">
        <path
           id="path31"
           d="m 6.1,-21.4 q 0.005,-0.659 -0.25,-0.925 l 0,0.025 C 5.6,-22.55 5.3,-22.8 4.9,-23.1 c -0.15,0.75 -0.25,1.5 -0.25,2.2 -0.55,1.15 -1.2,2.45 -2,3.9 -0.85,1.35 -1.75,2.75 -2.8,4.1 -0.05,0.05 -0.1,0.15 -0.05,0.3 l -0.025,-0.025 -0.2,0 0.025,0.025 c -0.35,0.35 -0.65,0.75 -0.95,1.15 -0.1,0.05 -0.2,0.15 -0.25,0.25 l -0.025,0 0.05,0.05 0,0.05 0.025,0 c -0.05,-0.05 -0.15,-0.15 -0.2,-0.2 -0.45,0.25 -1.4,1.05 -2.75,2.35 -1.35,1.25 -2.8,2.15 -4.35,2.8 -0.05,0 -0.05,0 -0.1,0 l -0.025,-0.05 0.025,0 -0.025,-0.025 0,-0.025 -1.425,0.65 -0.05,0 0.025,-0.05 -0.05,0.025 -0.025,0.025 -1.75,0.575 0,0.025 c -1.25,0.2 -2.25,0.3 -2.95,0.3 -0.75,0 -1.4,-0.1 -2.05,-0.3 0.55,0.35 1.15,0.7 1.8,1.05 1.1,0.15 2.4,0.15 3.9,0 l -0.7,0.15 c 0.25,-0.05 0.3,-0.05 0.35,-0.05 0.85,-0.15 1.3,-0.2 1.35,-0.2 3.05,-0.5 5.9,-1.95 8.5,-4.3 2.6,-2.4 4.4,-4.3 5.4,-5.7 1,-1.45 1.75,-2.8 2.3,-4.1 0.5,-1.35 0.8,-2.15 0.85,-2.5 -0.25,-0.25 -0.4,-0.5 -0.4,-0.75 z m -22.2,17.3 c -0.75,-0.2 -1.5,-0.4 -2.2,-0.65 0.15,0.05 0.3,0.1 0.45,0.15 0.6,0.25 1.2,0.4 1.75,0.5 z M -9,-6.45 c -0.05,0.05 -0.1,0.15 -0.05,0.05 0,0.05 0,0.05 0,0.05 l 0.075,0.075 -0.05,-0.175 z"
           inkscape:connector-curvature="0"
           style="fill:#263667" />
        <path
           id="path32"
           d="m 4.65,-20.9 c 0,-0.7 0.1,-1.45 0.25,-2.2 l 0,-0.05 -0.05,-0.15 c -1.75,-2.55 -3.4,-4.9 -5,-7.1 -1.45,-1.95 -2.2,-2.95 -2.3,-2.95 -0.35,0 -0.85,0.1 -1.5,0.3 -0.65,0.15 -1.1,0.25 -1.3,0.25 0.65,0.7 0.95,1.2 1,1.45 0.55,0.65 0.85,1.05 0.85,1.2 -1.8,-0.55 -3.55,-0.45 -5.3,0.25 0.3,0.35 0.8,1.45 1.45,3.3 0,-0.95 0.4,-1.8 1.2,-2.45 0.85,-0.65 1.85,-1 3,-1 l 0,-0.05 0.2,0.25 c 0.65,0.3 1,0.55 1.15,0.7 -0.05,0.05 0.1,1.05 0.45,2.9 0.35,2 0.55,3.15 0.55,3.45 0,1.15 -0.3,2.95 -0.85,5.45 -0.55,2.45 -0.85,3.9 -0.8,4.3 0,0.4 0.1,0.8 0.35,1.25 0.05,0.2 0.15,0.35 0.25,0.5 0.05,0.05 0.15,0.15 0.2,0.2 l -0.025,0 0,-0.05 -0.05,-0.05 0.025,0 c 0.05,-0.1 0.15,-0.2 0.25,-0.25 0.3,-0.4 0.6,-0.8 0.95,-1.15 l -0.025,-0.025 -0.625,0 0,0.025 c -0.2,-0.45 -0.3,-0.95 -0.3,-1.55 0,-0.35 0.4,-1.2 1.25,-2.45 0,-0.9 -0.25,-2.05 -0.7,-3.45 -0.15,-1 0.7,-1.7 2.45,-2.05 l -0.025,0 -0.225,-0.05 c -0.95,-0.35 -1.5,-1.4 -1.65,-3.1 -0.25,-1.95 -0.6,-3.15 -1.15,-3.6 l -0.025,0 0.25,0.15 0.025,0 c 0.45,0.25 0.85,0.85 1.2,1.8 0.35,1 0.75,1.7 1.3,2.05 0.45,0.25 1.1,0.9 1.95,1.95 0.8,0.95 1.25,1.65 1.35,2 z m -2,3.9 c -0.45,0.35 -1,0.65 -1.65,0.85 -0.5,0.15 -0.85,0.2 -1,0.2 0,1.15 -0.05,2.2 -0.15,3.05 1.05,-1.35 1.95,-2.75 2.8,-4.1 z m -23.6,9.05 c 0.3,0.35 0.5,0.55 0.75,0.75 0.75,0.75 1.75,1.45 2.95,2.2 0.65,0.2 1.3,0.3 2.05,0.3 0.7,0 1.7,-0.1 2.95,-0.3 l 0,-0.025 1.75,-0.575 0.025,-0.025 0.175,-0.275 c -0.05,0.1 -0.1,0.2 -0.1,0.25 l -0.025,0 -0.025,0.05 0.05,0 1.425,-0.65 0,0.025 0.025,0.025 0.3,-0.1 -0.3,0.05 -0.025,-0.025 -0.075,-0.075 c 0,0 0,0 0,-0.05 -0.15,-0.1 -0.35,-0.4 -0.5,-0.8 -0.15,-0.55 -0.35,-1.2 -0.55,-2 0,-0.2 -0.05,-0.35 -0.15,-0.55 -0.1,-0.35 -0.15,-0.45 -0.1,-0.25 -0.05,-0.05 -0.1,-0.15 -0.15,-0.4 l 0,-0.1 c -0.05,0.05 -0.1,0.1 -0.1,0.15 -0.75,0.25 -1.5,0.35 -2.3,0.3 -0.8,-0.05 -1.85,-0.05 -3.1,0.1 -1.3,0.1 -2.6,0.2 -3.95,0.35 -1.35,0.1 -2.05,0.3 -2.15,0.6 0.4,0.3 0.75,0.65 1.15,1.05 z"
           inkscape:connector-curvature="0"
           style="fill:#721016" />
        <path
           id="path33"
           d="m 1.4,-22.15 0.225,0.05 0.025,0 c -1.75,0.35 -2.6,1.05 -2.45,2.05 0.45,1.4 0.7,2.55 0.7,3.45 -0.85,1.25 -1.25,2.1 -1.25,2.45 0,0.6 0.1,1.1 0.3,1.55 l 0,-0.025 0.625,0 0.2,0 0.025,0.025 c -0.05,-0.15 0,-0.25 0.05,-0.3 0.1,-0.85 0.15,-1.9 0.15,-3.05 0.15,0 0.5,-0.05 1,-0.2 0.65,-0.2 1.2,-0.5 1.65,-0.85 0.8,-1.45 1.45,-2.75 2,-3.9 -0.1,-0.35 -0.55,-1.05 -1.35,-2 -0.85,-1.05 -1.5,-1.7 -1.95,-1.95 -0.55,-0.35 -0.95,-1.05 -1.3,-2.05 -0.35,-0.95 -0.75,-1.55 -1.2,-1.8 l -0.025,0 -0.25,-0.15 0.025,0 c 0.55,0.45 0.9,1.65 1.15,3.6 0.15,1.7 0.7,2.75 1.65,3.1 z m -6.9,-9.15 c -1.1,0 -2.2,0.05 -3.25,0.1 l -0.025,-0.025 0.125,0.2 0,0.025 c -0.15,-0.05 -0.3,0.05 -0.55,0.3 0.4,0.3 0.55,0.55 0.5,0.8 1.75,-0.7 3.5,-0.8 5.3,-0.25 0,-0.15 -0.3,-0.55 -0.85,-1.2 -0.15,0 -0.6,0 -1.25,0.05 z"
           inkscape:connector-curvature="0"
           style="fill:#8a131b" />
        <path
           id="path38"
           d="m -8.75,-31.2 c 1.05,-0.05 2.15,-0.1 3.25,-0.1 0.65,-0.05 1.1,-0.05 1.25,-0.05 -0.05,-0.25 -0.35,-0.75 -1,-1.45 -1.05,0.25 -2.2,0.8 -3.5,1.6 z"
           inkscape:connector-curvature="0"
           style="fill:#bd1a26" />
        <path
           id="path39"
           d="m -6.05,-29.05 c -0.8,0.65 -1.2,1.5 -1.2,2.45 0.2,2.2 0,4.8 -0.55,7.85 -0.6,3.05 -1.15,5.1 -1.7,6.15 -0.5,1.1 -0.9,1.8 -1.15,2.1 l 0,-0.025 0,0.125 0.025,0.05 0.025,0 c 0,-0.05 0.05,-0.1 0.1,-0.15 l 0,0.1 c 0.05,0.25 0.1,0.35 0.15,0.4 -0.05,-0.2 0,-0.1 0.1,0.25 0.1,0.2 0.15,0.35 0.15,0.55 0.2,0.8 0.4,1.45 0.55,2 0.15,0.4 0.35,0.7 0.5,0.8 -0.05,0.1 0,0 0.05,-0.05 l -0.025,0 0.05,0.175 0.025,0.025 0.3,-0.05 -0.3,0.1 -0.025,0 0.025,0.05 c 0.05,0 0.05,0 0.1,0 1.55,-0.65 3,-1.55 4.35,-2.8 1.35,-1.3 2.3,-2.1 2.75,-2.35 -0.1,-0.15 -0.2,-0.3 -0.25,-0.5 -0.25,-0.45 -0.35,-0.85 -0.35,-1.25 -0.05,-0.4 0.25,-1.85 0.8,-4.3 0.55,-2.5 0.85,-4.3 0.85,-5.45 0,-0.3 -0.2,-1.45 -0.55,-3.45 -0.35,-1.85 -0.5,-2.85 -0.45,-2.9 -0.15,-0.15 -0.5,-0.4 -1.15,-0.7 l -0.2,-0.2 c -1.15,0 -2.15,0.35 -3,1 z"
           inkscape:connector-curvature="0"
           style="fill:#510b0f" />
        <path
           id="path41"
           d="m -29.3,-23.05 c -0.15,0.05 -0.45,1.4 -0.95,4.1 -0.5,2.7 0.4,5.5 2.7,8.4 1.85,2.35 4.95,4.3 9.25,5.8 0.7,0.25 1.45,0.45 2.2,0.65 0.3,0.1 0.6,0.2 0.9,0.25 -0.1,-0.05 -0.2,-0.05 -0.25,-0.1 -0.65,-0.35 -1.25,-0.7 -1.8,-1.05 -1.2,-0.75 -2.2,-1.45 -2.95,-2.2 -0.25,-0.2 -0.45,-0.4 -0.75,-0.75 -0.4,-0.4 -0.75,-0.75 -1.15,-1.05 -0.15,-0.2 -0.3,-0.35 -0.45,-0.5 -0.55,-0.5 -1.05,-1.15 -1.7,-1.95 -0.35,-0.4 -0.75,-1.1 -1.2,-1.85 -1.25,-2 -2.15,-4.1 -2.9,-6.25 -0.35,-1.15 -0.65,-2.2 -0.9,-3.35 0.05,0 0.05,-0.1 0.05,-0.1 l -0.05,-0.05 0,0.05 -0.05,-0.05 z"
           inkscape:connector-curvature="0"
           style="fill:#5b0d11" />
      </g>
      <g
         id="element4">
        <g
           id="drawingObject11">
          <path
             id="path49"
             d="m 5.707,-19.595 c -0.156,-0.371 -1.002,-0.876 -1.668,0.051 q -0.296,0.367 -0.076,1.048 0.258,0.786 0.945,0.517 c 1.053,-0.377 0.962,-1.294 0.799,-1.616 z"
             inkscape:connector-curvature="0"
             style="fill:#bb8b36" />
        </g>
        <g
           id="drawingObject12">
          <path
             id="path50"
             d="M 5.485,-19.42 C 5.447,-19.526 5.14,-20.318 4.312,-19.713 q -0.39,0.305 -0.319,0.969 0.065,0.713 0.647,0.481 c 0.948,-0.339 0.877,-1.002 0.845,-1.157 z"
             inkscape:connector-curvature="0"
             style="fill:#fcbb49" />
        </g>
        <g
           id="drawingObject13">
          <path
             id="path51"
             d="m 4.649,-19.169 c 0.31,-0.063 0.387,-0.708 -0.095,-0.464 q -0.161,0.081 -0.136,0.285 0.026,0.205 0.231,0.179 z"
             inkscape:connector-curvature="0"
             style="fill:#fde2ac" />
        </g>
        <g
           id="drawingObject14">
          <path
             id="path52"
             d="m 3.282,-15.355 c -0.157,-0.372 -0.941,-0.97 -1.694,-0.154 q -0.29,0.317 -0.175,1.036 0.108,0.769 0.833,0.604 c 1.134,-0.215 1.143,-1.121 1.036,-1.486 z"
             inkscape:connector-curvature="0"
             style="fill:#bb8b36" />
        </g>
        <g
           id="drawingObject15">
          <path
             id="path53"
             d="m 3.01,-15.187 c 0.018,-0.149 -0.24,-0.935 -1.106,-0.435 q -0.433,0.25 -0.461,0.901 -0.035,0.701 0.585,0.574 c 0.985,-0.234 1.013,-0.885 0.982,-1.04 z"
             inkscape:connector-curvature="0"
             style="fill:#fcbb49" />
        </g>
        <g
           id="drawingObject16">
          <path
             id="path54"
             d="m 2.191,-15.084 c 0.249,0.03 0.481,-0.647 -0.045,-0.459 q -0.21,0.076 -0.185,0.28 0.026,0.205 0.23,0.179 z"
             inkscape:connector-curvature="0"
             style="fill:#fde2ac" />
        </g>
        <g
           id="drawingObject17">
          <path
             id="path55"
             d="m -0.131,-11.285 c -0.057,-0.36 -0.668,-1.138 -1.608,-0.446 q -0.383,0.256 -0.417,0.957 0.003,0.806 0.76,0.796 c 1.11,-0.017 1.317,-0.898 1.265,-1.307 z"
             inkscape:connector-curvature="0"
             style="fill:#bb8b36" />
        </g>
        <g
           id="drawingObject18">
          <path
             id="path56"
             d="m -0.397,-11.166 c 0.012,-0.099 -0.035,-0.961 -0.976,-0.672 q -0.526,0.188 -0.66,0.877 -0.177,0.633 0.474,0.662 c 1.011,-0.029 1.144,-0.718 1.162,-0.867 z"
             inkscape:connector-curvature="0"
             style="fill:#fcbb49" />
        </g>
        <g
           id="drawingObject19">
          <path
             id="path57"
             d="m -1.246,-11.218 c 0.291,0.085 0.617,-0.53 0.053,-0.447 q -0.204,0.025 -0.228,0.224 -0.024,0.199 0.175,0.223 z"
             inkscape:connector-curvature="0"
             style="fill:#fde2ac" />
        </g>
      </g>
      <g
         id="element5">
        <g
           id="drawingObject20">
          <path
             id="path58"
             d="m 4.951,-22.699 c 1.1,1.55 1.85,2.3 1.85,2.3 0,0 -1.6,-3.75 -3.85,-7.15 -2.25,-3.4 -5.25,-6.1 -5.25,-6.1 l 1.8,1.8 -1.8,-1.8 q -0.1,-0.65 -1.75,-0.65 c -1.65,0 -2.65,0.6 -2.65,0.6 l 0.7,-0.3 -0.7,0.3 0.55,0.95 -0.55,-0.95 c 0,0 0.75,1.75 2.25,2.4 1.5,0.65 3.65,2.1 4.55,3.25 0.95,1.15 3.75,3.75 4.85,5.35 z"
             inkscape:connector-curvature="0"
             style="fill:#97141e" />
        </g>
        <g
           id="drawingObject21">
          <path
             id="path59"
             d="m 4.951,-22.699 c 1.1,1.55 1.85,2.3 1.85,2.3 0,0 -1.2,-2.75 -2.95,-5.75 -0.6,-0.7 -1.4,-1.55 -2.4,-2.4 q -1.3,-1.1 -3.15,-2.5 -1.9,-1.4 -2.6,-2 c -0.55,-0.45 -0.7,-0.85 -0.65,-1.2 -1.1,0.15 -1.75,0.55 -1.75,0.55 l 0.45,-0.2 -0.45,0.2 0.55,0.95 -0.55,-0.95 c 0,0 0.75,1.75 2.25,2.4 1.5,0.65 3.65,2.1 4.55,3.25 0.95,1.15 3.75,3.75 4.85,5.35 z"
             inkscape:connector-curvature="0"
             style="fill:#314582" />
        </g>
      </g>
      <animate
         attributeName="display"
         begin="0s"
         repeatCount="1"
         dur="0.458s"
         keyTimes="0;0.364;0.546;1"
         values="none;inline;none;none"
         id="animate7173" />
    </g>
    <g
       id="coatCloseC006_2_204">
      <g
         id="element">
        <path
           id="path"
           d="m 6.1,-21.4 q 0.005,-0.659 -0.25,-0.925 l 0,0.025 C 5.6,-22.55 5.3,-22.8 4.9,-23.1 c -0.15,0.75 -0.25,1.5 -0.25,2.2 -0.55,1.15 -1.2,2.45 -2,3.9 -0.85,1.35 -1.75,2.75 -2.8,4.1 -0.05,0.05 -0.1,0.15 -0.05,0.3 l -0.025,-0.025 -0.2,0 0.025,0.025 c -0.35,0.35 -0.65,0.75 -0.95,1.15 -0.1,0.05 -0.2,0.15 -0.25,0.25 l -0.025,0 0.05,0.05 0,0.05 0.025,0 c -0.05,-0.05 -0.15,-0.15 -0.2,-0.2 -0.45,0.25 -1.4,1.05 -2.75,2.35 -1.35,1.25 -2.8,2.15 -4.35,2.8 -0.05,0 -0.05,0 -0.1,0 l -0.025,-0.05 0.025,0 -0.025,-0.025 0,-0.025 -1.575,0.65 -0.05,0 -0.05,0 -2.3,0.7 c -1.7,0.45 -3.8,0.6 -6.3,0.4 l -0.025,0 0.325,0.2 c 0.75,0.3 1.9,0.5 3.45,0.55 1.55,0.05 2.75,0.05 3.6,-0.1 0.85,-0.15 1.3,-0.2 1.35,-0.2 3.05,-0.5 5.9,-1.95 8.5,-4.3 2.6,-2.4 4.4,-4.3 5.4,-5.7 1,-1.45 1.75,-2.8 2.3,-4.1 0.5,-1.35 0.8,-2.15 0.85,-2.5 -0.25,-0.25 -0.4,-0.5 -0.4,-0.75 z M -9,-6.45 c -0.05,0.05 -0.1,0.15 -0.1,0.1 l -0.025,0 0.025,-0.025 0,0.025 c 0,0 0.05,0 0.1,0.05 l -0.025,0 0.025,0 0.025,0.025 -0.05,-0.175 z"
           inkscape:connector-curvature="0"
           style="fill:#263667" />
        <path
           id="path1"
           d="m 4.65,-20.9 c 0,-0.7 0.1,-1.45 0.25,-2.2 l 0,-0.05 -0.05,-0.15 c -1.75,-2.55 -3.4,-4.9 -5,-7.1 -1.45,-1.95 -2.2,-2.95 -2.3,-2.95 -0.35,0 -0.85,0.1 -1.5,0.3 -0.65,0.15 -1.1,0.25 -1.3,0.25 0.65,0.7 0.95,1.2 1,1.45 0.55,0.65 0.85,1.05 0.85,1.2 -1.8,-0.55 -3.55,-0.45 -5.3,0.25 0.3,0.35 0.8,1.45 1.45,3.3 0,-0.95 0.4,-1.8 1.2,-2.45 0.85,-0.65 1.85,-1 3,-1 l 0,-0.05 0.2,0.25 c 0.65,0.3 1,0.55 1.15,0.7 -0.05,0.05 0.1,1.05 0.45,2.9 0.35,2 0.55,3.15 0.55,3.45 0,1.15 -0.3,2.95 -0.85,5.45 -0.55,2.45 -0.85,3.9 -0.8,4.3 0,0.4 0.1,0.8 0.35,1.25 0.05,0.2 0.15,0.35 0.25,0.5 0.05,0.05 0.15,0.15 0.2,0.2 l -0.025,0 0,-0.05 -0.05,-0.05 0.025,0 c 0.05,-0.1 0.15,-0.2 0.25,-0.25 0.3,-0.4 0.6,-0.8 0.95,-1.15 l -0.025,-0.025 -0.625,0 0,0.025 c -0.2,-0.45 -0.3,-0.95 -0.3,-1.55 0,-0.35 0.4,-1.2 1.25,-2.45 0,-0.9 -0.25,-2.05 -0.7,-3.45 -0.15,-1 0.7,-1.7 2.45,-2.05 l -0.025,0 -0.225,-0.05 c -0.95,-0.35 -1.5,-1.4 -1.65,-3.1 -0.25,-1.95 -0.6,-3.15 -1.15,-3.6 l -0.025,0 0.25,0.15 0.025,0 c 0.45,0.25 0.85,0.85 1.2,1.8 0.35,1 0.75,1.7 1.3,2.05 0.45,0.25 1.1,0.9 1.95,1.95 0.8,0.95 1.25,1.65 1.35,2 z m -2,3.9 c -0.45,0.35 -1,0.65 -1.65,0.85 -0.5,0.15 -0.85,0.2 -1,0.2 0,1.15 -0.05,2.2 -0.15,3.05 1.05,-1.35 1.95,-2.75 2.8,-4.1 z m -27.3,9.3 c 0.6,0.45 0.9,0.7 1.25,0.9 1.35,0.95 2.55,1.7 3.6,2.2 0.15,0.05 0.25,0.05 0.4,0.1 0.05,-0.05 0.15,-0.05 0.2,-0.1 l -0.075,0.1 0.025,0 c 2.5,0.2 4.6,0.05 6.3,-0.4 l 2.3,-0.7 0.2,-0.3 c -0.05,0.1 -0.1,0.2 -0.15,0.3 l 0.05,0 1.575,-0.65 0,-0.025 L -9,-6.3 l -0.025,0 0.025,0 c -0.05,-0.05 -0.1,-0.05 -0.1,-0.05 l -0.025,0 0.025,-0.025 0,0.025 C -9.25,-6.5 -9.45,-6.8 -9.6,-7.2 c -0.2,-0.55 -0.4,-1.2 -0.6,-2 -0.05,-0.2 -0.1,-0.35 -0.2,-0.55 -0.1,-0.35 -0.15,-0.45 -0.1,-0.25 -0.05,-0.05 -0.1,-0.15 -0.15,-0.4 l 0,-0.125 0,0.025 c -0.85,0.1 -1.8,0.05 -2.8,-0.15 -1.05,-0.2 -2.5,-0.25 -4.45,-0.15 -1.95,0.05 -3.6,0.5 -4.95,1.35 -1.35,0.8 -2.6,0.8 -3.75,0.05 0.75,0.75 1.35,1.3 1.95,1.7 z m 15.7,1.45 -0.025,0 0,0.025 0.025,0.025 0.3,-0.1 -0.3,0.05 z"
           inkscape:connector-curvature="0"
           style="fill:#721016" />
        <path
           id="path2"
           d="m 1.4,-22.15 0.225,0.05 0.025,0 c -1.75,0.35 -2.6,1.05 -2.45,2.05 0.45,1.4 0.7,2.55 0.7,3.45 -0.85,1.25 -1.25,2.1 -1.25,2.45 0,0.6 0.1,1.1 0.3,1.55 l 0,-0.025 0.625,0 0.2,0 0.025,0.025 c -0.05,-0.15 0,-0.25 0.05,-0.3 0.1,-0.85 0.15,-1.9 0.15,-3.05 0.15,0 0.5,-0.05 1,-0.2 0.65,-0.2 1.2,-0.5 1.65,-0.85 0.8,-1.45 1.45,-2.75 2,-3.9 -0.1,-0.35 -0.55,-1.05 -1.35,-2 -0.85,-1.05 -1.5,-1.7 -1.95,-1.95 -0.55,-0.35 -0.95,-1.05 -1.3,-2.05 -0.35,-0.95 -0.75,-1.55 -1.2,-1.8 l -0.025,0 -0.25,-0.15 0.025,0 c 0.55,0.45 0.9,1.65 1.15,3.6 0.15,1.7 0.7,2.75 1.65,3.1 z m -6.9,-9.15 c -1.1,0 -2.2,0.05 -3.25,0.1 l -0.025,-0.025 0.125,0.2 0,0.025 c -0.15,-0.05 -0.3,0.05 -0.55,0.3 0.4,0.3 0.55,0.55 0.5,0.8 1.75,-0.7 3.5,-0.8 5.3,-0.25 0,-0.15 -0.3,-0.55 -0.85,-1.2 -0.15,0 -0.6,0 -1.25,0.05 z"
           inkscape:connector-curvature="0"
           style="fill:#8a131b" />
        <path
           id="path7"
           d="m -8.75,-31.2 c 1.05,-0.05 2.15,-0.1 3.25,-0.1 0.65,-0.05 1.1,-0.05 1.25,-0.05 -0.05,-0.25 -0.35,-0.75 -1,-1.45 -1.05,0.25 -2.2,0.8 -3.5,1.6 z"
           inkscape:connector-curvature="0"
           style="fill:#bd1a26" />
        <path
           id="path8"
           d="m -6.05,-29.05 c -0.8,0.65 -1.2,1.5 -1.2,2.45 0.15,2.45 -0.05,5.3 -0.7,8.55 -0.65,3.25 -1.15,5.15 -1.45,5.8 -0.35,0.65 -0.75,1.2 -1.25,1.75 l 0,-0.025 0,0.125 c 0.05,0.25 0.1,0.35 0.15,0.4 -0.05,-0.2 0,-0.1 0.1,0.25 0.1,0.2 0.15,0.35 0.2,0.55 0.2,0.8 0.4,1.45 0.6,2 0.15,0.4 0.35,0.7 0.5,0.85 0,0.05 0.05,-0.05 0.1,-0.1 l -0.025,0 0.05,0.175 0,0.025 0.025,0 0.3,-0.05 -0.3,0.1 -0.025,0 0.025,0.05 c 0.05,0 0.05,0 0.1,0 1.55,-0.65 3,-1.55 4.35,-2.8 1.35,-1.3 2.3,-2.1 2.75,-2.35 -0.1,-0.15 -0.2,-0.3 -0.25,-0.5 -0.25,-0.45 -0.35,-0.85 -0.35,-1.25 -0.05,-0.4 0.25,-1.85 0.8,-4.3 0.55,-2.5 0.85,-4.3 0.85,-5.45 0,-0.3 -0.2,-1.45 -0.55,-3.45 -0.35,-1.85 -0.5,-2.85 -0.45,-2.9 -0.15,-0.15 -0.5,-0.4 -1.15,-0.7 l -0.2,-0.2 c -1.15,0 -2.15,0.35 -3,1 z"
           inkscape:connector-curvature="0"
           style="fill:#510b0f" />
        <path
           id="path10"
           d="m -33.475,-19.9 -0.025,-0.05 c -0.05,0.1 -0.05,0.2 -0.1,0.35 -0.85,2.55 -0.45,4.9 1.2,7.05 3.25,4.25 7.6,7 13,8.25 l 0.45,0 -0.325,-0.2 0.075,-0.1 c -0.05,0.05 -0.15,0.05 -0.2,0.1 -0.15,-0.05 -0.25,-0.05 -0.4,-0.1 -1.05,-0.5 -2.25,-1.25 -3.6,-2.2 -0.35,-0.2 -0.65,-0.45 -1.25,-0.9 -0.6,-0.4 -1.2,-0.95 -1.95,-1.7 -0.4,-0.35 -0.95,-0.95 -1.5,-1.6 -1.55,-1.8 -2.85,-3.7 -3.9,-5.7 -0.55,-1.05 -1,-2.05 -1.45,-3.1 0.05,-0.05 0.05,-0.15 0.05,-0.2 l -0.05,0 c 0,0.05 0,0.05 0,0.1 m 22.8,14.3 0.2,-0.3 c -0.05,0.1 -0.1,0.2 -0.15,0.3 l -0.05,0 z"
           inkscape:connector-curvature="0"
           style="fill:#5b0d11" />
      </g>
      <g
         id="element1">
        <g
           id="drawingObject">
          <path
             id="path20"
             d="m 5.707,-19.595 c -0.156,-0.371 -1.002,-0.876 -1.668,0.051 q -0.296,0.367 -0.076,1.048 0.258,0.786 0.945,0.517 c 1.053,-0.377 0.962,-1.294 0.799,-1.616 z"
             inkscape:connector-curvature="0"
             style="fill:#bb8b36" />
        </g>
        <g
           id="drawingObject1">
          <path
             id="path21"
             d="M 5.485,-19.42 C 5.447,-19.526 5.14,-20.318 4.312,-19.713 q -0.39,0.305 -0.319,0.969 0.065,0.713 0.647,0.481 c 0.948,-0.339 0.877,-1.002 0.845,-1.157 z"
             inkscape:connector-curvature="0"
             style="fill:#fcbb49" />
        </g>
        <g
           id="drawingObject2">
          <path
             id="path22"
             d="m 4.649,-19.169 c 0.31,-0.063 0.387,-0.708 -0.095,-0.464 q -0.161,0.081 -0.136,0.285 0.026,0.205 0.231,0.179 z"
             inkscape:connector-curvature="0"
             style="fill:#fde2ac" />
        </g>
        <g
           id="drawingObject3">
          <path
             id="path23"
             d="m 3.282,-15.355 c -0.157,-0.372 -0.941,-0.97 -1.694,-0.154 q -0.29,0.317 -0.175,1.036 0.108,0.769 0.833,0.604 c 1.134,-0.215 1.143,-1.121 1.036,-1.486 z"
             inkscape:connector-curvature="0"
             style="fill:#bb8b36" />
        </g>
        <g
           id="drawingObject4">
          <path
             id="path24"
             d="m 3.01,-15.187 c 0.018,-0.149 -0.24,-0.935 -1.106,-0.435 q -0.433,0.25 -0.461,0.901 -0.035,0.701 0.585,0.574 c 0.985,-0.234 1.013,-0.885 0.982,-1.04 z"
             inkscape:connector-curvature="0"
             style="fill:#fcbb49" />
        </g>
        <g
           id="drawingObject5">
          <path
             id="path25"
             d="m 2.191,-15.084 c 0.249,0.03 0.481,-0.647 -0.045,-0.459 q -0.21,0.076 -0.185,0.28 0.026,0.205 0.23,0.179 z"
             inkscape:connector-curvature="0"
             style="fill:#fde2ac" />
        </g>
        <g
           id="drawingObject6">
          <path
             id="path26"
             d="m -0.131,-11.285 c -0.057,-0.36 -0.668,-1.138 -1.608,-0.446 q -0.383,0.256 -0.417,0.957 0.003,0.806 0.76,0.796 c 1.11,-0.017 1.317,-0.898 1.265,-1.307 z"
             inkscape:connector-curvature="0"
             style="fill:#bb8b36" />
        </g>
        <g
           id="drawingObject7">
          <path
             id="path27"
             d="m -0.397,-11.166 c 0.012,-0.099 -0.035,-0.961 -0.976,-0.672 q -0.526,0.188 -0.66,0.877 -0.177,0.633 0.474,0.662 c 1.011,-0.029 1.144,-0.718 1.162,-0.867 z"
             inkscape:connector-curvature="0"
             style="fill:#fcbb49" />
        </g>
        <g
           id="drawingObject8">
          <path
             id="path28"
             d="m -1.246,-11.218 c 0.291,0.085 0.617,-0.53 0.053,-0.447 q -0.204,0.025 -0.228,0.224 -0.024,0.199 0.175,0.223 z"
             inkscape:connector-curvature="0"
             style="fill:#fde2ac" />
        </g>
      </g>
      <g
         id="element2">
        <g
           id="drawingObject9">
          <path
             id="path29"
             d="m 4.951,-22.699 c 1.1,1.55 1.85,2.3 1.85,2.3 0,0 -1.6,-3.75 -3.85,-7.15 -2.25,-3.4 -5.25,-6.1 -5.25,-6.1 l 1.8,1.8 -1.8,-1.8 q -0.1,-0.65 -1.75,-0.65 c -1.65,0 -2.65,0.6 -2.65,0.6 l 0.7,-0.3 -0.7,0.3 0.55,0.95 -0.55,-0.95 c 0,0 0.75,1.75 2.25,2.4 1.5,0.65 3.65,2.1 4.55,3.25 0.95,1.15 3.75,3.75 4.85,5.35 z"
             inkscape:connector-curvature="0"
             style="fill:#97141e" />
        </g>
        <g
           id="drawingObject10">
          <path
             id="path30"
             d="m 4.951,-22.699 c 1.1,1.55 1.85,2.3 1.85,2.3 0,0 -1.2,-2.75 -2.95,-5.75 -0.6,-0.7 -1.4,-1.55 -2.4,-2.4 q -1.3,-1.1 -3.15,-2.5 -1.9,-1.4 -2.6,-2 c -0.55,-0.45 -0.7,-0.85 -0.65,-1.2 -1.1,0.15 -1.75,0.55 -1.75,0.55 l 0.45,-0.2 -0.45,0.2 0.55,0.95 -0.55,-0.95 c 0,0 0.75,1.75 2.25,2.4 1.5,0.65 3.65,2.1 4.55,3.25 0.95,1.15 3.75,3.75 4.85,5.35 z"
             inkscape:connector-curvature="0"
             style="fill:#314582" />
        </g>
      </g>
      <animate
         attributeName="display"
         begin="0s"
         repeatCount="1"
         dur="0.458s"
         keyTimes="0;0.091;1"
         values="inline;none;none"
         id="animate7207" />
    </g>
  </g>
</svg>
