<?xml version="1.0" encoding="UTF-8" standalone="no"?>
<!-- Generator: flash2svg, http://dissentgraphics.com/tools/flash2svg -->

<svg
   xmlns:dc="http://purl.org/dc/elements/1.1/"
   xmlns:cc="http://creativecommons.org/ns#"
   xmlns:rdf="http://www.w3.org/1999/02/22-rdf-syntax-ns#"
   xmlns:svg="http://www.w3.org/2000/svg"
   xmlns="http://www.w3.org/2000/svg"
   xmlns:sodipodi="http://sodipodi.sourceforge.net/DTD/sodipodi-0.dtd"
   xmlns:inkscape="http://www.inkscape.org/namespaces/inkscape"
   id="AvatarAssets"
   image-rendering="auto"
   version="1.1"
   x="0px"
   y="0px"
   width="46.634018"
   height="80.75"
   viewBox="0 0 46.634018 80.75"
   inkscape:version="0.48.4 r9939"
   sodipodi:docname="AvatarAssets_capeD006.ANI-jumpUp_land.svg">
  <metadata
     id="metadata3837">
    <rdf:RDF>
      <cc:Work
         rdf:about="">
        <dc:format>image/svg+xml</dc:format>
        <dc:type
           rdf:resource="http://purl.org/dc/dcmitype/StillImage" />
      </cc:Work>
    </rdf:RDF>
  </metadata>
  <sodipodi:namedview
     pagecolor="#ffffff"
     bordercolor="#666666"
     borderopacity="1"
     objecttolerance="10"
     gridtolerance="10"
     guidetolerance="10"
     inkscape:pageopacity="0"
     inkscape:pageshadow="2"
     inkscape:window-width="640"
     inkscape:window-height="480"
     id="namedview3835"
     showgrid="false"
     fit-margin-top="0"
     fit-margin-left="0"
     fit-margin-right="0"
     fit-margin-bottom="0"
     inkscape:zoom="1.9032258"
     inkscape:cx="68.634017"
     inkscape:cy="-40.95"
     inkscape:window-x="0"
     inkscape:window-y="0"
     inkscape:window-maximized="0"
     inkscape:current-layer="AvatarAssets" />
  <defs
     id="defs3800" />
  <g
     id="capeD7"
     overflow="visible"
     style="overflow:visible"
     transform="translate(36.634017,59.7)">
    <g
       id="capeD006_1_191">
      <g
         id="element4">
        <path
           id="path35"
           d="m 2.4,-32.5 c -0.55,-0.45 -1.25,-0.75 -2.3,-0.9 -1.05,-0.15 -2.4,-0.1 -3.85,0.1 -1.55,0.2 -3.45,0.6 -5.65,1.2 0.5,-0.1 2.1,-0.2 5.05,-0.45 2.9,-0.35 5.55,0.1 8,1.35 -0.45,-0.4 -0.8,-0.9 -1.25,-1.3 z m -0.05,5.2 c -0.25,-0.15 -0.5,-0.25 -0.85,-0.3 -0.05,0.05 0,0.1 0.25,0.15 l -2.85,0.35 c -1.6,0 -1.6,-0.75 0.05,-2.15 1.65,-1.45 0.3,-2 -3.95,-1.75 -4.25,0.3 -8.55,1.7 -12.85,4.15 -4.4,2.5 -7.6,5.05 -9.75,7.7 -2.1,2.65 -3.55,6.6 -4.25,11.9 0.9,-2 1.85,-3.15 2.65,-3.55 0.8,-0.45 1.7,-0.25 2.8,0.45 1.05,0.8 2.25,2.15 3.55,4.15 0.9,1.35 1.5,2.45 1.85,2.9 l 0.05,0.1 c 0.15,0.15 0.15,0.15 0.15,0.15 0.25,0.45 0.35,0.55 0.4,0.6 0.05,0.25 0.05,0.25 0.05,0.25 0.1,0.1 0.1,0.1 0.1,0.1 0.05,0.05 0.15,0.1 0.2,0.15 l 0.1,0.3 c 0.3,0.45 0.6,0.9 0.95,1.4 0,-0.05 0,-0.1 0,-0.15 0.05,0.2 0.05,0.2 0.05,0.2 0,-0.15 0.05,-0.3 0.05,-0.45 -0.05,0 -0.05,0 -0.05,0.05 0,-0.55 0,-0.85 0.05,-1 0.05,0 0.05,0 0.05,0.05 L -18,-6.6 c 0,-0.05 0,-0.05 0.05,-0.1 0,-0.2 0,-0.4 0.1,-0.55 0.05,-0.35 0.2,-0.7 0.3,-1 l 0.05,0 c 0.7,-2.55 1.7,-4.7 2.85,-6.4 2,-2.9 4.35,-5.3 7,-7.35 1.1,-0.75 2.2,-1.5 3.45,-2.15 1.4,-0.85 3.05,-1.6 4.7,-2.15 l 1.3,-0.6 C 2,-27 2.2,-27.2 2.4,-27.3 l -0.05,0 z"
           inkscape:connector-curvature="0"
           style="fill:#851611" />
        <path
           id="path36"
           d="m 3.7,-31.15 c 0,0 0,0 -0.05,-0.05 -2.45,-1.25 -5.1,-1.7 -8,-1.35 -2.95,0.25 -4.55,0.35 -5.05,0.45 -3.6,1.4 -6.15,2.5 -7.7,3.15 -1.4,0.6 -4.35,2.4 -8.6,5.3 -4.3,2.85 -7.5,6.65 -9.5,11.35 -2,4.65 -1.9,8.4 0.25,11.1 -0.2,-0.35 -0.3,-0.65 -0.5,-1.2 0.1,0.25 0.3,0.55 0.45,0.95 0.85,2 2.25,3.7 3.7,4.9 -0.15,-0.75 -0.3,-2 -0.45,-3.6 -0.25,-2.9 -0.2,-5.4 0.1,-7.5 2.9,-1.5 5.5,-1 8.2,1.5 0.9,0.85 1.9,2.2 2.45,2.85 -0.35,-0.45 -0.95,-1.55 -1.85,-2.9 -1.3,-2 -2.5,-3.35 -3.55,-4.15 -1.1,-0.7 -2,-0.9 -2.8,-0.45 -0.8,0.4 -1.75,1.55 -2.65,3.55 0.7,-5.3 2.15,-9.25 4.25,-11.9 2.15,-2.65 5.35,-5.2 9.75,-7.7 4.3,-2.45 8.6,-3.85 12.85,-4.15 4.25,-0.25 5.6,0.3 3.95,1.75 -1.65,1.4 -1.65,2.15 -0.05,2.15 l 2.85,-0.35 c -0.25,-0.05 -0.3,-0.1 -0.25,-0.15 0.35,0.05 0.6,0.15 0.85,0.3 0.95,-0.75 1.5,-1.75 1.7,-2.95 0.2,0.05 0.2,0.05 0.2,0.05 q -0.1,-0.15 -0.2,-0.3 C 4.1,-30.65 4.1,-30.75 4.1,-30.9 4.05,-30.95 3.95,-30.95 3.85,-31 3.8,-31.05 3.8,-31.1 3.75,-31.15 l -0.05,0 z m -21.55,23.9 c -0.1,0.15 -0.1,0.35 -0.1,0.55 0.1,-0.55 0.25,-1.05 0.45,-1.55 l -0.05,0 c -0.1,0.3 -0.25,0.65 -0.3,1 z"
           inkscape:connector-curvature="0"
           style="fill:#c21d1a" />
      </g>
      <animate
         attributeName="display"
         begin="0s"
         repeatCount="1"
         dur="0.375s"
         keyTimes="0;0.889;1"
         values="none;inline;none"
         id="animate3807" />
    </g>
    <g
       id="capeD006_1_189">
      <g
         id="element3">
        <path
           id="path26"
           d="m -2.725,-33.225 q -0.117,0.041 -0.225,0.075 c -0.35,0.35 -1.9,2.05 -4.55,5 -2.7,2.95 -4.6,6.85 -5.7,11.6 -1.1,4.75 -1.75,8 -1.95,9.75 -0.25,0.55 -0.45,2.25 -0.6,5.1 0.05,0.45 0.15,1.15 0.25,2.2 0.05,1 0.1,2.35 0.1,4.05 -0.05,0.5 -0.05,1 -0.1,1.45 -0.15,1.1 -0.5,2.05 -0.95,2.9 -0.35,0.55 -0.75,1.25 -1.2,2.05 1,-0.95 1.85,-2 2.6,-3.15 0.7,-1.2 1.1,-3.3 1.25,-6.25 0.2,-3.1 0.6,-7.55 1.25,-13.35 0.65,-5.8 1.95,-10 3.95,-12.65 2,-2.65 3.45,-4.25 4.35,-4.8 0.85,-0.55 1.35,-0.9 1.45,-0.95 0.15,0 0.25,0 0.35,0 0.05,0 0.05,0 0.05,0.05 0.05,0.15 0.1,0.55 0.05,1.3 -0.05,0.75 0.25,1.55 0.9,2.4 0.6,0.85 1.45,0.9 2.55,0.1 1.05,-0.8 2.2,-1.65 3.4,-2.5 -0.1,-0.25 -0.2,-0.45 -0.3,-0.7 -0.05,-0.1 -0.1,-0.2 -0.15,-0.3 -0.75,-1.5 -2,-2.75 -3.75,-3.8 -0.3,-0.05 -0.6,-0.1 -0.9,-0.05 -0.05,-0.05 -0.1,-0.05 -0.15,-0.05 -0.15,-0.05 -0.35,-0.05 -0.5,-0.1 -0.05,0 -0.15,0 -0.25,0 -0.45,0.15 -0.85,0.4 -1.2,0.65 M 1.1,3.45 C 1.05,3.4 0.95,3.4 0.85,3.45 0.7,3.6 0.5,3.75 0.25,3.9 0,4.05 -0.3,4.45 -0.7,5.05 -1.1,5.65 -1.35,6.35 -1.45,7.1 -1.4,7 -1.4,6.9 -1.35,6.85 L 1.125,4.625 1.15,4.65 C 1.2,4.6 1.3,4.6 1.35,4.55 1.5,4.5 1.6,4.5 1.75,4.45 1.85,4.4 1.95,4.4 2.05,4.4 2.3,4.35 2.5,4.35 2.75,4.35 3.35,4.35 4,4.4 4.65,4.45 4.25,4 3.6,3.75 2.65,3.65 1.7,3.5 1.15,3.45 1.1,3.45 z m -9.7,7.9 C -8.65,10.65 -8.8,9.8 -8.95,8.85 -9.1,8.1 -9.2,7.85 -9.25,8.1 c -0.3,-0.7 -0.65,-1 -1.1,-0.9 -0.45,0.05 -0.65,0.1 -0.7,0.1 -0.1,0 -0.35,0.1 -0.75,0.3 -0.45,0.2 -1.05,0.8 -1.85,1.8 -0.55,0.75 -1.1,1.45 -1.6,2.15 l 0,0.025 0,0.025 c 0.5,-0.2 1,-0.35 1.55,-0.45 0.2,-0.25 0.4,-0.3 0.55,-0.25 0,0.05 0,0.1 0,0.15 0.6,-0.1 1.25,-0.15 1.9,-0.1 0.7,0.05 1.45,0.15 2.2,0.3 0.15,0.05 0.3,0.05 0.45,0.1 z"
           inkscape:connector-curvature="0"
           style="fill:#c21d1a" />
        <path
           id="path27"
           d="m -1.45,-26.45 c -0.65,-0.85 -0.95,-1.65 -0.9,-2.4 0.05,-0.75 0,-1.15 -0.05,-1.3 0,-0.05 0,-0.05 -0.05,-0.05 -0.1,0 -0.2,0 -0.35,0 -0.1,0.05 -0.6,0.4 -1.45,0.95 -0.9,0.55 -2.35,2.15 -4.35,4.8 -2,2.65 -3.3,6.85 -3.95,12.65 -0.65,5.8 -1.05,10.25 -1.25,13.35 -0.15,2.95 -0.55,5.05 -1.25,6.25 -0.75,1.15 -1.6,2.2 -2.6,3.15 -0.5,0.9 -1.1,1.95 -1.8,3.2 1.35,-1.2 2.75,-2.05 4.2,-2.55 l 0,-0.025 0,-0.025 c 0.5,-0.7 1.05,-1.4 1.6,-2.15 0.8,-1 1.4,-1.6 1.85,-1.8 0.4,-0.2 0.65,-0.3 0.75,-0.3 0.05,0 0.25,-0.05 0.7,-0.1 0.45,-0.1 0.8,0.2 1.1,0.9 0.05,-0.25 0.15,0 0.3,0.75 0.15,0.95 0.3,1.8 0.35,2.5 3.45,0.65 5.65,-0.3 6.55,-2.9 C -1.9,7.95 -1.7,7.5 -1.45,7.1 -1.35,6.35 -1.1,5.65 -0.7,5.05 -0.3,4.45 0,4.05 0.25,3.9 0.5,3.75 0.7,3.6 0.85,3.45 c 0.1,-0.05 0.2,-0.05 0.25,0 0.05,0 0.6,0.05 1.55,0.2 0.95,0.1 1.6,0.35 2,0.8 C 6.35,4.6 8.15,5.05 10,5.7 9.85,5.3 9.15,3.35 7.9,-0.15 6.7,-3.65 5.95,-8.1 5.65,-13.45 5.3,-18.85 5.1,-23.1 5,-26.25 c -0.05,-0.95 -0.25,-1.8 -0.5,-2.6 -1.2,0.85 -2.35,1.7 -3.4,2.5 -1.1,0.8 -1.95,0.75 -2.55,-0.1 z m -11.7,37.35 c -0.15,-0.05 -0.35,0 -0.55,0.25 0.2,-0.05 0.4,-0.05 0.55,-0.1 0,-0.05 0,-0.1 0,-0.15 z"
           inkscape:connector-curvature="0"
           style="fill:#851611" />
        <path
           id="path34"
           d="m -19,14.225 0,0.025 0.025,-0.025 -0.025,0"
           inkscape:connector-curvature="0"
           style="fill:#851611" />
      </g>
      <animate
         attributeName="display"
         begin="0s"
         repeatCount="1"
         dur="0.375s"
         keyTimes="0;0.667;0.889;1"
         values="none;inline;none;none"
         id="animate3814" />
    </g>
    <g
       id="capeD006_1_187">
      <g
         id="element2">
        <path
           id="path17"
           d="m -3.05,-30.1 q 0,0.1 0,0.2 c 0.1,0.2 0.15,0.4 0.1,0.65 -0.05,0.15 0,0.2 0.15,0.25 0.05,0.25 0.05,0.5 0.1,0.7 0.15,0.75 0.4,1.35 0.8,1.85 1.55,1.95 3.05,1.7 4.55,-0.8 0.25,-0.45 0.5,-0.9 0.75,-1.35 -0.1,-0.35 -0.2,-0.65 -0.3,-0.9 -0.4,-1.5 -0.8,-2.45 -1.15,-2.9 -0.85,-0.95 -1.65,-1.5 -2.45,-1.55 -0.75,-0.05 -1.2,-0.1 -1.25,-0.1 -2.6,1.9 -4.7,4.45 -6.3,7.7 -2.1,4.15 -3.75,8.5 -5,13.15 -1.85,7.15 -2.65,14.6 -2.45,22.25 -0.05,0.45 -0.1,0.95 -0.1,1.5 0,2.55 0.05,5 0.1,7.35 0.05,0.85 0.2,1.5 0.35,2.05 0.15,0.5 0.35,0.85 0.6,1.1 0,-0.1 0,-0.2 0,-0.35 0,-0.05 0,-0.1 0,-0.15 l 0,-0.05 c -0.35,-2.85 -0.5,-5.75 -0.4,-8.7 0.05,-1.6 0.05,-3.15 0.1,-4.6 0.15,-8.45 1.6,-16.55 4.45,-24.2 0.75,-2 1.45,-4 2.1,-6.05 1.1,-3.35 2.85,-5.7 5.25,-7.05 z M 3.7,7.7 C 3.25,6.65 2.6,6.05 1.75,5.95 0.7,6.7 0,8.2 -0.3,10.4 c -0.35,2.15 -1.05,4.1 -2.2,5.95 0.5,-0.6 0.95,-1.25 1.35,-1.9 0.25,-0.35 0.45,-0.7 0.65,-1.05 0.2,-0.35 0.4,-0.75 0.55,-1.1 0.3,-0.6 0.7,-1 1.25,-1.25 0.6,-0.35 1.15,-0.45 1.65,-0.35 0.3,0.05 0.75,0.45 1.3,1.2 C 4.3,10.1 4.15,8.7 3.7,7.7 z m -14.15,2.05 c -0.15,0.05 -0.45,0.25 -0.9,0.6 -0.45,0.3 -0.85,1.35 -1.3,3.15 -0.45,1.75 -0.8,3.35 -0.95,4.7 0.05,-0.1 0.15,-0.2 0.2,-0.35 l 0.1,-0.25 c 0.2,-0.45 0.45,-0.85 0.7,-1.1 0.55,-0.75 1.15,-1.05 1.75,-1 1.25,1.45 2.25,2.45 2.95,2.9 0.2,0.15 0.4,0.3 0.55,0.35 l 0,-0.05 c 0.1,0.05 0.2,0.05 0.35,0.1 l 0.65,0.05 c 0.05,0 0.1,0 0.15,0 C -6.15,18.8 -6.05,18.8 -6,18.8 -6.25,18.75 -6.5,18.7 -6.75,18.7 -6.9,18.55 -7.2,18.1 -7.65,17.4 -8.15,16.7 -8.45,15.45 -8.6,13.65 -8.7,11.8 -8.95,10.7 -9.4,10.3 -9.8,9.95 -10.05,9.75 -10.1,9.75 c -0.1,0 -0.2,0 -0.35,0 z"
           inkscape:connector-curvature="0"
           style="fill:#c21d1a" />
        <path
           id="path18"
           d="m -3.05,-29.9 q 0,-0.1 0,-0.2 c -2.4,1.35 -4.15,3.7 -5.25,7.05 -0.65,2.05 -1.35,4.05 -2.1,6.05 -2.85,7.65 -4.3,15.75 -4.45,24.2 -0.05,1.45 -0.05,3 -0.1,4.6 -0.1,2.95 0.05,5.85 0.4,8.7 0,-0.15 0,-0.3 0,-0.45 0.05,-0.05 0.1,-0.15 0.15,-0.2 l 0,-0.05 c 0.25,-0.5 0.55,-1.05 0.8,-1.6 0.15,-1.35 0.5,-2.95 0.95,-4.7 0.45,-1.8 0.85,-2.85 1.3,-3.15 0.45,-0.35 0.75,-0.55 0.9,-0.6 0.15,0 0.25,0 0.35,0 0.05,0 0.3,0.2 0.7,0.55 0.45,0.4 0.7,1.5 0.8,3.35 0.15,1.8 0.45,3.05 0.95,3.75 0.45,0.7 0.75,1.15 0.9,1.3 0.25,0 0.5,0.05 0.75,0.1 0.35,-0.1 0.7,-0.25 1.05,-0.5 0.9,-0.55 1.7,-1.2 2.45,-1.95 1.15,-1.85 1.85,-3.8 2.2,-5.95 0.3,-2.2 1,-3.7 2.05,-4.45 0.85,0.1 1.5,0.7 1.95,1.75 0.45,1 0.6,2.4 0.55,4.2 l 0.2,1.55 C 4.4,13.5 4.4,13.5 4.4,13.55 L 4.45,13.5 c 0,0.1 0,0.2 0,0.3 0.05,0 0.1,0 0.15,-0.05 C 4.75,13.2 4.8,12.7 4.8,12.2 5.35,9.95 5.65,7.75 5.75,5.5 5.8,2.85 5.95,-0.95 6.1,-5.9 6.25,-10.85 5.8,-16.3 4.75,-22.15 4.25,-24.85 3.8,-27 3.4,-28.6 c -0.25,0.45 -0.5,0.9 -0.75,1.35 -1.5,2.5 -3,2.75 -4.55,0.8 -0.4,-0.5 -0.65,-1.1 -0.8,-1.85 -0.05,-0.2 -0.05,-0.45 -0.1,-0.7 -0.15,-0.05 -0.2,-0.1 -0.15,-0.25 0.05,-0.25 0,-0.45 -0.1,-0.65 z M -14.6,18.85 c 0,0.1 0,0.2 0.05,0.3 -0.05,0.1 -0.05,0.2 -0.05,0.35 0,-0.25 0,-0.5 0,-0.65 z"
           inkscape:connector-curvature="0"
           style="fill:#851611" />
      </g>
      <animate
         attributeName="display"
         begin="0s"
         repeatCount="1"
         dur="0.375s"
         keyTimes="0;0.444;0.667;1"
         values="none;inline;none;none"
         id="animate3820" />
    </g>
    <g
       id="capeD006_1_185">
      <g
         id="element1">
        <path
           id="path10"
           d="M 1.125,-34.025 Q 0.935,-34.111 0.7,-34.15 c -0.55,-0.15 -1.1,-0.2 -1.55,-0.2 -0.5,-0.05 -0.95,-0.05 -1.35,-0.1 -0.45,-0.05 -1.25,0.3 -2.4,1.05 -0.7,0.45 -1.6,1.6 -2.75,3.5 l -0.025,-0.025 -2.025,3.65 0,0.025 c -0.15,0.25 -0.25,0.5 -0.4,0.8 -0.1,0.2 -0.2,0.4 -0.35,0.65 l -3.175,7.725 0.025,0.025 c -0.05,0.1 -0.1,0.2 -0.15,0.35 l 0,-0.025 0.025,-0.05 0.025,0.025 c -0.15,0.35 -0.25,0.65 -0.35,1 l -0.025,0 -0.5,1.675 0.025,0.025 c -0.05,0.15 -0.15,0.35 -0.2,0.55 l 0.025,-0.025 0.025,0.025 c 1.2,-2.4 2.85,-5.85 4.9,-10.3 2.05,-4.45 3.65,-6.4 4.8,-5.85 1.05,0.65 1.85,1.25 2.35,1.9 1.2,1.5 2.55,1.65 4,0.45 0.75,-0.65 1.4,-1.3 1.85,-2 0,-0.05 0,-0.1 -0.05,-0.15 l 0,-0.025 0.025,-0.025 0.025,0 c -0.05,-0.15 -0.1,-0.25 -0.15,-0.4 -0.15,-0.45 -0.3,-0.85 -0.45,-1.2 -0.05,0 -0.05,0 -0.05,-0.05 -0.65,-1.3 -0.95,-1.95 -1,-2 -0.15,-0.4 -0.35,-0.7 -0.65,-0.85 -0.05,-0.05 -0.05,-0.05 -0.1,-0.1 0,0.05 0,0.05 0.05,0.1 m -24.1,25.95 c 0,0.2 0.05,0.5 0.1,0.95 0.25,1.35 0.45,2.65 0.7,4 0.3,1.65 0.85,3.6 1.6,5.85 -0.1,-1.1 -0.15,-1.7 -0.2,-1.75 0.05,0.15 0.05,0.3 0.1,0.45 l 0,0.025 0,0.025 c 0,1.1 0.25,1.7 0.75,1.85 0.45,0.1 0.85,-0.35 1.1,-1.3 0.25,-1 0.35,-1.5 0.4,-1.55 0.05,-0.05 0.05,-0.15 0.1,-0.2 l -0.025,-0.025 0,-0.025 0.025,0 c 0.35,-1.35 1,-3.45 1.9,-6.3 -0.05,0 -0.05,0 -0.1,0.05 0.05,-0.05 0.05,-0.15 0.1,-0.2 0.1,-0.25 0.2,-0.45 0.25,-0.7 -0.95,0.6 -2.05,0.8 -3.3,0.55 -0.05,0 -0.1,0 -0.15,0 -0.05,-0.05 -0.05,-0.05 -0.1,-0.05 l -2.075,-1.05 0.025,0 c -0.05,-0.05 -0.1,-0.05 -0.15,-0.1 -0.15,-0.15 -0.25,-0.3 -0.4,-0.45 l 0,-0.025 0,0.025 c -0.25,-0.3 -0.45,-0.65 -0.65,-1.05 -0.15,0.05 -0.25,0.2 -0.2,0.35 0,0.05 0,0.15 0.05,0.25 l -0.025,0 0,0.05 0.025,0 c 0,0.05 0,0.1 0.05,0.15 0.05,0.05 0.05,0.15 0.1,0.2 z M -5.4,3.1 c 1.85,0.65 3.5,0.9 4.95,0.85 l -0.025,0 0.025,0 C -0.1,3.9 0.3,3.85 0.65,3.8 c 0.05,0 0.05,0 0.1,0 L 0.725,3.775 0.95,3.725 0.95,3.75 C 1.2,3.7 1.4,3.6 1.6,3.55 l 0,-0.025 -0.05,0 0,0.025 C 1.1,3.6 0.6,3.65 0.15,3.65 -0.4,3.7 -1.25,2.7 -2.4,0.75 -3.6,-1.2 -5.05,-1.8 -6.8,-1 c -1.75,0.75 -3,1.5 -3.85,2.15 -0.85,0.65 -1.85,1.35 -2.95,2.15 -1.25,0.95 -2.55,1.6 -3.95,2 0.25,0 0.45,0 0.65,0 0.85,-0.15 1.75,-0.4 2.8,-0.85 0,0 0,0 0.05,0 0.5,-0.25 1.05,-0.5 1.6,-0.75 2.35,-1.25 4.7,-1.45 7.05,-0.6 z"
           inkscape:connector-curvature="0"
           style="fill:#c21d1a" />
        <path
           id="path11"
           d="m 3.5,-29.3 c -0.45,0.7 -1.1,1.35 -1.85,2 -1.45,1.2 -2.8,1.05 -4,-0.45 -0.5,-0.65 -1.3,-1.25 -2.35,-1.9 -1.15,-0.55 -2.75,1.4 -4.8,5.85 -2.05,4.45 -3.7,7.9 -4.9,10.3 -0.25,0.75 -0.45,1.5 -0.6,2.3 -0.35,1.45 -0.75,2.85 -1.15,4.3 -0.05,0.25 -0.15,0.45 -0.25,0.7 -0.05,0.05 -0.05,0.15 -0.1,0.2 0.05,-0.05 0.05,-0.05 0.1,-0.05 -0.9,2.85 -1.55,4.95 -1.9,6.3 l -0.025,0 0,0.025 0.025,0.025 c -0.05,0.05 -0.05,0.15 -0.1,0.2 -0.05,0.05 -0.15,0.55 -0.4,1.55 -0.25,0.95 -0.65,1.4 -1.1,1.3 C -20.4,3.2 -20.65,2.6 -20.65,1.5 l 0,-0.025 0,-0.025 C -20.7,1.3 -20.7,1.15 -20.75,1 c 0.05,0.05 0.1,0.65 0.2,1.75 -0.75,-2.25 -1.3,-4.2 -1.6,-5.85 -0.25,-1.35 -0.45,-2.65 -0.7,-4 0.05,0.75 0.1,1.75 0.25,3.1 0.2,2.2 0.6,4.3 1.15,6.25 0.55,1.95 1.6,3 3.15,3.1 0.45,0.05 0.9,0 1.4,-0.05 -0.2,0 -0.4,0 -0.65,0 1.4,-0.4 2.7,-1.05 3.95,-2 1.1,-0.8 2.1,-1.5 2.95,-2.15 0.85,-0.65 2.1,-1.4 3.85,-2.15 1.75,-0.8 3.2,-0.2 4.4,1.75 1.15,1.95 2,2.95 2.55,2.9 C 0.6,3.65 1.1,3.6 1.55,3.55 2.8,3.05 3.8,2.1 4.55,0.7 4.3,0.9 4.1,1.1 3.9,1.25 5.65,-0.7 6.3,-4.7 5.85,-10.75 5.35,-16.8 4.9,-21.35 4.45,-24.5 c -0.3,-2.05 -0.6,-3.75 -0.95,-5 l -0.025,0 -0.025,0.025 0,0.025 c 0.05,0.05 0.05,0.1 0.05,0.15 z"
           inkscape:connector-curvature="0"
           style="fill:#851611" />
        <path
           id="path14"
           d="m -13.75,-15.75 c 0.1,-0.35 0.2,-0.65 0.35,-1 m -0.025,-0.025 -0.025,0.05 m 0,0.025 c -0.1,0.3 -0.2,0.6 -0.3,0.95"
           inkscape:connector-curvature="0"
           style="fill:#851611" />
      </g>
      <animate
         attributeName="display"
         begin="0s"
         repeatCount="1"
         dur="0.375s"
         keyTimes="0;0.222;0.444;1"
         values="none;inline;none;none"
         id="animate3827" />
    </g>
    <g
       id="capeD006_1_183">
      <g
         id="element">
        <path
           id="path"
           d="M 2.05,-33.15 Q 1.903,-33.326 1.75,-33.5 C 1,-34.4 0,-34.8 -1.2,-34.65 c -0.5,0.15 -1,0.3 -1.5,0.45 -0.1,0.05 -0.2,0.1 -0.35,0.15 -0.1,0.05 -0.2,0.05 -0.3,0.1 -0.15,0.55 0.05,1.05 0.6,1.55 0.95,0.95 2.15,1.2 3.55,0.75 0.65,-0.25 1.2,-0.55 1.7,-0.9 -0.15,-0.2 -0.3,-0.4 -0.45,-0.6 z m -0.2,10.7 c -0.1,-0.05 -0.2,-0.1 -0.25,-0.15 -0.25,0.15 -0.45,0.15 -0.6,0.05 -0.45,-0.3 -1.3,-1.1 -2.45,-2.35 -1.2,-1.25 -3.05,-1.1 -5.55,0.5 -2.15,1.35 -4.45,2.5 -6.95,3.45 -0.25,0.15 -0.45,0.3 -0.65,0.45 1.95,-0.65 4.05,-1.45 6.35,-2.45 2.45,-1.1 4.8,-1.1 7.05,0.05 0.05,0 0.05,0 0.1,0 0.65,0.35 1.25,0.55 1.8,0.6 0.45,0.05 0.8,0 1.15,-0.15 z m -30.075,-33.675 -0.05,0 0.025,0.025 c -0.05,-0.15 -0.1,-0.25 -0.15,-0.4 l -0.075,-0.075 0.05,0.05 -0.025,-0.025 c 0.25,5.85 0.7,11.7 1.35,17.5 0.55,4.65 1.7,9.1 3.55,13.3 0.5,1.15 1.2,2.1 2.1,2.85 -0.2,-0.05 -0.4,-0.1 -0.6,-0.15 0.3,0.1 0.6,0.15 0.9,0.15 0.65,0.3 1.3,0.35 1.95,0.2 1.1,-0.3 2.4,-1.1 3.85,-2.35 l 2.3,-2.1 c -0.15,0.15 -0.3,0.25 -0.45,0.35 0.75,-0.75 1.75,-1.75 3.05,-3 0,0.05 0,0.05 0,0.1 0.65,-0.55 1.25,-1 1.8,-1.35 1.25,-0.85 2.35,-1.5 3.3,-1.95 0.05,-0.05 0.05,-0.05 0.1,-0.1 0.05,-0.05 0.05,-0.05 0.05,-0.05 l 0,-0.15 c -0.7,-4.15 -0.85,-8.45 -0.5,-12.8 0.35,-3.9 0.8,-7.75 1.35,-11.55 0.4,-0.6 0.6,-1.3 0.6,-2.05 l -0.05,0 c -0.05,0.05 -0.1,0.1 -0.15,0.15 -0.35,0.65 -0.65,1.3 -0.9,2.05 -0.1,0.35 -0.2,0.65 -0.3,1 -0.6,0.85 -1.5,2.1 -2.65,3.85 -1.55,2.3 -3.3,1.9 -5.15,-1.15 -1.9,-3.05 -3.35,-4.2 -4.4,-3.45 -1.05,0.75 -2.3,2.6 -3.85,5.5 -1.55,2.9 -3.9,1.45 -7,-4.35 z m 1.775,25.225 c -0.2,-1.65 -0.45,-3.25 -0.7,-4.85 -0.15,-0.95 -0.3,-1.85 -0.45,-2.75 0.1,0.8 0.2,1.6 0.35,2.45 0.15,1.05 0.25,2.05 0.4,3.1 0.15,1.05 0.35,2 0.6,2.95 -0.05,-0.3 -0.15,-0.6 -0.2,-0.9 z"
           inkscape:connector-curvature="0"
           style="fill:#c21d1a" />
        <path
           id="path1"
           d="m 3.35,-30.7 c -0.2,-0.65 -0.5,-1.3 -0.85,-1.85 -0.5,0.35 -1.05,0.65 -1.7,0.9 -1.4,0.45 -2.6,0.2 -3.55,-0.75 -0.55,-0.5 -0.75,-1 -0.6,-1.55 -0.65,0.25 -1.25,0.55 -1.85,0.85 l 0,-0.05 c 0,0 0,0 -0.05,0.05 -0.05,0.05 -0.05,0.05 -0.1,0.1 -0.95,0.45 -2.05,1.1 -3.3,1.95 -0.55,0.35 -1.15,0.8 -1.8,1.35 0,-0.05 0,-0.05 0,-0.1 -1.3,1.25 -2.3,2.25 -3.05,3 0.15,-0.1 0.3,-0.2 0.45,-0.35 l -2.3,2.1 c -1.45,1.25 -2.75,2.05 -3.85,2.35 -0.65,0.15 -1.3,0.1 -1.95,-0.2 -0.3,0 -0.6,-0.05 -0.9,-0.15 0.2,0.05 0.4,0.1 0.6,0.15 -0.9,-0.75 -1.6,-1.7 -2.1,-2.85 -1.85,-4.2 -3,-8.65 -3.55,-13.3 -0.65,-5.8 -1.1,-11.65 -1.35,-17.5 -0.15,-0.15 -0.25,-0.3 -0.35,-0.45 -0.15,-0.25 -0.3,-0.5 -0.45,-0.65 -0.05,0 -0.05,0 -0.05,-0.05 -0.05,-0.05 -0.05,-0.05 -0.05,-0.05 -0.1,0 -0.15,0.05 -0.15,0.1 -0.1,0.2 -0.1,0.4 0,0.6 -0.1,1.15 -0.1,2.25 0,3.35 0.05,1.45 0.15,2.35 0.2,2.75 0.05,0.35 0.1,0.8 0.2,1.35 0.1,0.55 0.25,1.65 0.5,3.35 0.25,1.7 0.55,4.15 0.95,7.4 0.05,0.1 0.05,0.2 0.05,0.35 0.15,0.9 0.3,1.8 0.45,2.75 0.25,1.6 0.5,3.2 0.7,4.85 0.05,0.3 0.15,0.6 0.2,0.9 l 0,-0.025 0.425,1.25 0.025,0.025 c 0.05,0.05 0.05,0.15 0.1,0.25 0,0.05 0,0.15 0.05,0.2 l -0.025,0 0.425,1.325 0,0.025 c 0.35,0.9 0.8,1.8 1.35,2.65 0.85,1.3 1.8,2.25 2.9,2.9 -0.2,-0.05 -0.4,-0.05 -0.55,-0.1 2.25,1.45 4.4,1.8 6.45,1.15 0.15,-0.05 0.35,-0.1 0.5,-0.15 0.2,-0.15 0.4,-0.3 0.65,-0.45 2.5,-0.95 4.8,-2.1 6.95,-3.45 2.5,-1.6 4.35,-1.75 5.55,-0.5 1.15,1.25 2,2.05 2.45,2.35 0.15,0.1 0.35,0.1 0.6,-0.05 0.05,0.05 0.15,0.1 0.25,0.15 0.65,-0.25 1.1,-0.75 1.45,-1.55 0.75,-1.85 0.9,-3.4 0.55,-4.65 -0.35,-1.25 -0.55,-1.85 -0.5,-1.9 0.05,-0.05 0.05,-0.1 0,-0.15 z m -31.625,-25.425 0.05,0 0.025,0.025 c 3.1,5.8 5.45,7.25 7,4.35 1.55,-2.9 2.8,-4.75 3.85,-5.5 1.05,-0.75 2.5,0.4 4.4,3.45 1.85,3.05 3.6,3.45 5.15,1.15 1.15,-1.75 2.05,-3 2.65,-3.85 0.1,-0.35 0.2,-0.65 0.3,-1 0.25,-0.75 0.55,-1.4 0.9,-2.05 0.05,-0.05 0.1,-0.1 0.15,-0.15 -0.2,0.05 -0.35,0.25 -0.45,0.5 -0.45,0.9 -1.05,1.6 -1.85,2.15 -2.2,1.35 -4.4,1.35 -6.6,-0.05 -1.1,-0.7 -2.25,-0.9 -3.5,-0.65 -1.85,0.4 -3.6,1 -5.35,1.75 -2.7,1.2 -5,1.05 -6.85,-0.5 0.05,0.15 0.1,0.25 0.15,0.4 z"
           inkscape:connector-curvature="0"
           style="fill:#851611" />
      </g>
      <animate
         attributeName="display"
         begin="0s"
         repeatCount="1"
         dur="0.375s"
         keyTimes="0;0.222;1"
         values="inline;none;none"
         id="animate3833" />
    </g>
  </g>
</svg>
