<?xml version="1.0" encoding="UTF-8" standalone="no"?>
<!-- Generator: flash2svg, http://dissentgraphics.com/tools/flash2svg -->

<svg
   xmlns:dc="http://purl.org/dc/elements/1.1/"
   xmlns:cc="http://creativecommons.org/ns#"
   xmlns:rdf="http://www.w3.org/1999/02/22-rdf-syntax-ns#"
   xmlns:svg="http://www.w3.org/2000/svg"
   xmlns="http://www.w3.org/2000/svg"
   xmlns:sodipodi="http://sodipodi.sourceforge.net/DTD/sodipodi-0.dtd"
   xmlns:inkscape="http://www.inkscape.org/namespaces/inkscape"
   id="AvatarAssets"
   image-rendering="auto"
   version="1.1"
   x="0px"
   y="0px"
   width="33.518749"
   height="57.348999"
   viewBox="0 0 33.518749 57.348999"
   inkscape:version="0.48.4 r9939"
   sodipodi:docname="AvatarAssets_coatCloseC006.ANI-jumpUp_lift.svg">
  <metadata
     id="metadata8321">
    <rdf:RDF>
      <cc:Work
         rdf:about="">
        <dc:format>image/svg+xml</dc:format>
        <dc:type
           rdf:resource="http://purl.org/dc/dcmitype/StillImage" />
      </cc:Work>
    </rdf:RDF>
  </metadata>
  <sodipodi:namedview
     pagecolor="#ffffff"
     bordercolor="#666666"
     borderopacity="1"
     objecttolerance="10"
     gridtolerance="10"
     guidetolerance="10"
     inkscape:pageopacity="0"
     inkscape:pageshadow="2"
     inkscape:window-width="640"
     inkscape:window-height="480"
     id="namedview8319"
     showgrid="false"
     fit-margin-top="0"
     fit-margin-left="0"
     fit-margin-right="0"
     fit-margin-bottom="0"
     inkscape:zoom="1.9032258"
     inkscape:cx="58.66875"
     inkscape:cy="-38.95"
     inkscape:window-x="0"
     inkscape:window-y="0"
     inkscape:window-maximized="0"
     inkscape:current-layer="AvatarAssets" />
  <defs
     id="defs8078" />
  <g
     id="coatCloseC7"
     overflow="visible"
     style="overflow:visible"
     transform="translate(26.66875,34.299)">
    <g
       id="coatCloseC006_2_170">
      <g
         id="element16">
        <path
           id="path152"
           d="m 0.25,-25.8 c 0.55,0.7 0.75,0.55 1.5,1.05 0.3,0.25 0.7,0.45 1.2,0.65 0.55,0.95 1.05,1.6 1.45,1.9 0.15,0.8 0.25,1.2 0.3,1.25 -0.1,-0.55 0,-1.3 0.25,-2.2 l 0,-0.05 C 4.8,-23.2 4.8,-23.25 4.9,-23.35 4.45,-24 3.8,-25 3.05,-26.45 1.75,-27.65 0.7,-29.25 -0.1,-31.2 l -1.05,-0.95 c -0.6,-0.7 -0.85,-1.65 -1.5,-1 -0.15,0.1 -0.3,0.15 -0.5,0.05 -0.15,0.05 -0.5,0.05 -1.05,0.1 -0.25,0.25 -0.55,0.35 -0.9,0.2 l 0.45,0.45 q 0.55,0.65 0.55,0.95 l 0,0.05 0.6,0.7 c 0.15,0.2 0.4,0.6 0.15,0.5 l -0.6,-0.35 c -1.25,-0.3 -2.8,-0.05 -4.7,0.7 0.15,0.05 0.4,0.4 0.7,1.1 0.35,0.75 0.6,1.5 0.8,2.25 1.55,-2.3 2.5,-3.55 2.85,-3.7 0.85,0.15 1.35,0.25 1.45,0.2 C -2.8,-30 -2.8,-30 -2.8,-30 l -0.025,0 -0.025,-0.05 c 0.2,0.05 0.25,0.15 0.2,0.3 l 0,-0.025 0,0.025 0.025,0 0.025,0 c 0.05,0.05 0.1,0.05 0.25,0.05 0.25,0.05 0.5,0.2 0.65,0.35 l 0.05,0.1 c 0.1,0.1 0.15,0.15 0.1,0.15 -0.75,-0.25 0.5,0.65 0.7,1.45 0.15,0.65 0.2,1.45 0.05,2.4 0.35,2.45 0.2,4.2 -0.35,5.25 0.05,0.8 0,1.4 -0.05,1.8 -0.1,0.8 0,0.85 -0.1,1.65 -0.05,0.4 -0.25,0.8 -0.55,1.25 0,1.35 -0.15,2.2 -0.4,2.6 0.05,0.95 0.25,1.55 0.6,1.85 l 0.15,0.15 0.05,0 0,-0.025 0,0.025 c 0,-0.05 0,-0.05 -0.05,-0.1 0.9,-1 1.75,-2 2.5,-3 0.55,-1.05 1.1,-2.1 1.75,-3.15 l -0.6,0.15 c -0.35,0.35 -0.1,0.7 -0.55,0.9 -0.25,0.15 -0.45,0.2 -0.65,0.05 -0.25,0.05 -0.45,0.05 -0.6,0 -0.35,0 -0.15,0.4 -0.15,0.75 -0.05,0.25 -0.1,0.5 -0.05,0.7 -0.05,0.55 -0.05,0.95 -0.1,1.25 0.05,0.55 -0.2,0.8 -0.8,0.85 -0.15,0.1 -0.25,-0.05 -0.35,-0.45 -0.15,-1.05 -0.3,-1.2 0.35,-2.05 0.2,-0.2 0.4,-0.6 0.6,-1.15 0.1,-0.2 0.2,-0.35 0.2,-0.5 0,-0.35 -0.1,-0.4 -0.25,-0.7 -0.15,-0.3 -0.3,-0.75 -0.45,-1.4 0.15,-0.4 0.35,-1.15 0.55,-2.2 -0.05,-0.35 0.25,-0.75 0.9,-1.1 0.05,0.05 0.2,0 0.4,-0.05 0.2,-0.05 0.55,-0.2 0.35,-0.2 L 1.5,-22.15 c -0.4,0 -0.45,0.1 -0.8,-0.1 -0.25,-0.1 -0.4,-0.3 -0.5,-0.6 -0.1,-0.2 -0.2,-0.85 -0.35,-2 -0.05,-1.75 -0.4,-3 -0.95,-3.8 l -0.15,-0.15 c -0.05,-0.15 0.15,0.05 0.25,0.15 l 0.1,0.05 c 0.3,0.3 0.4,0.2 0.55,0.6 0.15,0.3 0.25,0.7 0.4,1.25 -0.1,0.4 0,0.7 0.2,0.95 z m -10.9,17.05 c -0.15,1.55 -1.6,4.15 -4.4,7.85 -2.55,2.65 -4.85,5.6 -7,8.8 -1.95,2.3 -3.35,4.45 -4.05,6.35 0.05,-0.05 0.15,0 0.2,0.05 l -0.2,0.15 -0.05,0.05 0,0.05 c -0.05,0.6 -0.1,1.25 -0.15,2 -0.05,0.7 0.05,1.55 0.3,2.55 0.05,-1.35 0.1,-2.15 0.05,-2.4 l 0.65,-1.55 c 0.1,-0.25 0.25,-0.7 0.05,-0.5 -0.15,0.15 -0.25,0.2 -0.35,0.1 -0.05,-0.05 -0.1,-0.15 -0.15,-0.2 0.05,-0.75 1.9,-3.55 5.45,-8.35 0.75,-0.5 1.4,-0.85 2.05,-1.1 0.65,-0.65 0.95,-1.1 0.9,-1.35 2.5,-3.15 5.2,-5.85 8.15,-8.2 l 0.15,0 -0.15,-0.15 c 0,-0.9 -0.45,-0.85 -0.7,-1.7 l -0.75,-2.45 z"
           inkscape:connector-curvature="0"
           style="fill:#721016" />
        <path
           id="path153"
           d="M 1.75,-24.75 C 1,-25.25 0.8,-25.1 0.25,-25.8 0.05,-26.05 -0.05,-26.35 0.05,-26.75 -0.1,-27.3 -0.2,-27.7 -0.35,-28 -0.5,-28.4 -0.6,-28.3 -0.9,-28.6 L -1,-28.65 c -0.1,-0.1 -0.3,-0.3 -0.25,-0.15 l 0.15,0.15 c 0.55,0.8 0.9,2.05 0.95,3.8 0.15,1.15 0.25,1.8 0.35,2 0.1,0.3 0.25,0.5 0.5,0.6 0.35,0.2 0.4,0.1 0.8,0.1 l 0.05,0.05 c 0.2,0 -0.15,0.15 -0.35,0.2 -0.2,0.05 -0.35,0.1 -0.4,0.05 -0.65,0.35 -0.95,0.75 -0.9,1.1 -0.2,1.05 -0.4,1.8 -0.55,2.2 0.15,0.65 0.3,1.1 0.45,1.4 0.15,0.3 0.25,0.35 0.25,0.7 0,0.15 -0.1,0.3 -0.2,0.5 -0.2,0.55 -0.4,0.95 -0.6,1.15 -0.65,0.85 -0.5,1 -0.35,2.05 0.1,0.4 0.2,0.55 0.35,0.45 0.6,-0.05 0.85,-0.3 0.8,-0.85 0.05,-0.3 0.05,-0.7 0.1,-1.25 -0.05,-0.2 0,-0.45 0.05,-0.7 0,-0.35 -0.2,-0.75 0.15,-0.75 0.15,0.05 0.35,0.05 0.6,0 0.2,0.15 0.4,0.1 0.65,-0.05 0.45,-0.2 0.2,-0.55 0.55,-0.9 l 0.6,-0.15 c 0.25,-0.5 0.55,-1 0.8,-1.5 C 3.8,-19 4.2,-19.85 4.7,-20.95 4.65,-21 4.55,-21.4 4.4,-22.2 4,-22.5 3.5,-23.15 2.95,-24.1 c -0.5,-0.2 -0.9,-0.4 -1.2,-0.65 z m -10.5,-6.3 -0.05,0.05 c -0.15,0 -0.25,0.1 -0.25,0.25 l -0.05,0.05 c -0.3,0 0.3,0.2 0.45,0.45 0.1,0.15 0.1,0.3 0,0.45 1.9,-0.75 3.45,-1 4.7,-0.7 l 0.6,0.35 c 0.25,0.1 0,-0.3 -0.15,-0.5 l -0.6,-0.7 c -0.2,0.2 -0.65,0.2 -1.35,0 -1.1,0.2 -2.2,0.25 -3.25,0.2 0.1,0.15 0.15,0.25 0.1,0.2 -0.05,-0.05 -0.15,-0.2 -0.15,-0.1 z m -17,45.6 c 0.05,0.05 0.1,0.15 0.15,0.2 0.1,0.1 0.2,0.05 0.35,-0.1 0.2,-0.2 0.05,0.25 -0.05,0.5 l -0.65,1.55 c 0.05,0.25 0,1.05 -0.05,2.4 l 0.15,0.1 -0.1,-0.15 c 0.1,-0.05 0.15,-0.5 0.2,-0.75 l 0.2,-0.8 c 0.55,-1.45 1.15,-2.9 1.7,-4.25 0.95,-1.9 2.8,-4.6 5.6,-8.15 -0.65,0.25 -1.3,0.6 -2.05,1.1 -3.55,4.8 -5.4,7.6 -5.45,8.35 z"
           inkscape:connector-curvature="0"
           style="fill:#8a131b" />
        <path
           id="path154"
           d="m 6.05,-22.25 c -0.3,-0.35 -0.6,-0.65 -0.9,-0.85 -0.1,-0.05 -0.15,-0.05 -0.2,-0.05 -0.25,0.9 -0.35,1.65 -0.25,2.2 -0.5,1.1 -0.9,1.95 -1.15,2.5 -0.25,0.5 -0.55,1 -0.8,1.5 -0.65,1.05 -1.2,2.1 -1.75,3.15 -0.75,1 -1.6,2 -2.5,3 l 0.05,0.05 0.05,0 -0.05,0.025 0,0.025 c 2.1,0.1 -1.8,1.8 -3.65,3.3 -1.3,1.1 -2.6,2.1 -3.95,2.95 l -0.15,0 c -2.95,2.35 -5.65,5.05 -8.15,8.2 0.05,0.25 -0.25,0.7 -0.9,1.35 -2.8,3.55 -4.65,6.25 -5.6,8.15 -0.55,1.35 -1.15,2.8 -1.7,4.25 l -0.2,0.8 c -0.05,0.25 -0.1,0.7 -0.2,0.75 l 0.1,0.15 -0.15,-0.1 c -0.25,-1 -0.35,-1.85 -0.3,-2.55 0.05,-0.75 0.1,-1.4 0.15,-2 l 0,-0.05 0.05,-0.05 0.2,-0.15 c -0.05,-0.05 -0.15,-0.1 -0.2,-0.05 -0.1,0.05 -0.25,0.6 -0.4,1.65 -0.15,1.05 -0.2,1.8 -0.15,2.25 0.05,0.45 0.1,0.75 0.15,0.95 0,0.15 0.2,1 0.6,2.5 l 2.85,-7.35 c 1,-2.15 3.35,-5.35 7.05,-9.55 0.3,-0.25 0.5,-0.45 0.55,-0.6 0.45,-0.9 0.55,-0.9 1.2,-1.65 L -12.7,0.7 c 1.25,-1.15 2.8,-2.5 4.65,-4.15 1.25,-0.9 3.3,-2.4 6.05,-4.45 1.8,-1.8 3.4,-3.75 4.8,-5.8 l 1.25,-2.65 c 0.85,-1.6 0.55,-1.75 1.55,-3.25 0.2,-0.35 -0.15,0.2 0.1,-0.15 0.7,-1.05 1.1,-1.5 0.35,-2.5 z"
           inkscape:connector-curvature="0"
           style="fill:#263667" />
        <path
           id="path155"
           d="m 4.9,-23.3 0,-0.05 c -0.1,0.1 -0.1,0.15 0.05,0.15 -0.05,-0.05 -0.1,-0.05 -0.05,-0.1"
           inkscape:connector-curvature="0"
           style="fill:#263667" />
        <path
           id="path156"
           d="m -4.1,-31.35 0,-0.05 q 0,-0.3 -0.55,-0.95 l -0.45,-0.45 -0.05,-0.05 c -0.55,0.15 -1,0.35 -1.35,0.55 -0.1,0 -0.05,-0.05 -0.1,-0.1 -0.75,0.45 -1.45,0.9 -2.1,1.25 1.05,0.05 2.15,0 3.25,-0.2 0.7,0.2 1.15,0.2 1.35,0 z"
           inkscape:connector-curvature="0"
           style="fill:#bd1a26" />
        <path
           id="path159"
           d="m -7,-24.9 c 0.05,0.2 0.05,-0.1 0,0.1 -0.1,0.3 -0.1,0.3 -0.1,0.6 0,0.15 -0.05,0.3 -0.2,0.5 0.15,0.75 0.1,1.6 -0.25,2.55 0.05,0.95 -0.35,2.4 -1.2,4.35 -0.75,3.25 -1.25,5.6 -1.5,7.1 0.1,0.15 0.1,0.25 0.05,0.3 -0.05,0.05 -0.1,0.15 -0.05,0.15 0.05,0.05 0.05,0.05 0,0.05 -0.15,0 -0.25,0.05 -0.25,0.2 l -0.05,0.05 0.05,0.05 -0.05,-0.05 c -0.15,0 0.25,0.05 0.25,0.2 -0.15,0 -0.35,-0.25 -0.35,-0.1 0.05,0.05 0.05,0.1 0,0.1 l 0.75,2.45 c 0.25,0.85 0.7,0.8 0.7,1.7 l 0.15,0.15 C -7.7,-5.3 -6.4,-6.3 -5.1,-7.4 c 1.85,-1.5 5.75,-3.2 3.65,-3.3 l -0.05,0 -0.15,-0.15 c -0.35,-0.3 -0.55,-0.9 -0.6,-1.85 0.25,-0.4 0.4,-1.25 0.4,-2.6 0.3,-0.45 0.5,-0.85 0.55,-1.25 0.1,-0.8 0,-0.85 0.1,-1.65 0.05,-0.4 0.1,-1 0.05,-1.8 0.55,-1.05 0.7,-2.8 0.35,-5.25 0.15,-0.95 0.1,-1.75 -0.05,-2.4 -0.2,-0.8 -1.45,-1.7 -0.7,-1.45 0.05,0 0,-0.05 -0.1,-0.15 l -0.05,-0.1 c -0.15,-0.15 -0.4,-0.3 -0.65,-0.35 -0.15,0 -0.2,0 -0.25,-0.05 l -0.025,0 -0.025,0 0,-0.025 0,0.025 C -2.6,-29.7 -2.7,-29.8 -2.8,-30 c 0,0 0,0 -0.05,0.05 -0.1,0.05 -0.6,-0.05 -1.45,-0.2 -0.35,0.15 -1.3,1.4 -2.85,3.7 0.1,0.25 0.15,0.4 0.1,0.5 l 0,0.35 c 0.05,0.1 0.05,0.05 0,0.1 -0.25,-0.15 0.05,0.3 0.05,0.6 z"
           inkscape:connector-curvature="0"
           style="fill:#510b0f" />
      </g>
      <g
         id="element17">
        <g
           id="drawingObject71">
          <path
             id="path166"
             d="M 5.315,-20.027 C 5.12,-20.38 4.227,-20.794 3.661,-19.803 q -0.257,0.395 0.033,1.05 0.338,0.756 0.993,0.416 c 1.008,-0.483 0.823,-1.386 0.628,-1.69 z"
             inkscape:connector-curvature="0"
             style="fill:#bb8b36" />
        </g>
        <g
           id="drawingObject72">
          <path
             id="path167"
             d="m 5.111,-19.83 c -0.048,-0.101 -0.436,-0.857 -1.197,-0.169 q -0.356,0.344 -0.216,0.996 0.138,0.703 0.693,0.412 c 0.907,-0.436 0.768,-1.088 0.72,-1.239 z"
             inkscape:connector-curvature="0"
             style="fill:#fcbb49" />
        </g>
        <g
           id="drawingObject73">
          <path
             id="path168"
             d="m 4.306,-19.493 c 0.301,-0.095 0.312,-0.745 -0.143,-0.452 q -0.151,0.097 -0.105,0.298 0.047,0.201 0.248,0.154 z"
             inkscape:connector-curvature="0"
             style="fill:#fde2ac" />
        </g>
        <g
           id="drawingObject74">
          <path
             id="path169"
             d="m 3.342,-15.558 c -0.194,-0.353 -1.036,-0.867 -1.701,0.022 q -0.255,0.346 -0.067,1.049 0.188,0.753 0.892,0.515 c 1.105,-0.332 1.02,-1.234 0.876,-1.586 z"
             inkscape:connector-curvature="0"
             style="fill:#bb8b36" />
        </g>
        <g
           id="drawingObject75">
          <path
             id="path170"
             d="m 3.089,-15.362 c 0.002,-0.15 -0.336,-0.906 -1.145,-0.319 q -0.405,0.294 -0.366,0.944 0.039,0.701 0.642,0.511 c 0.956,-0.335 0.916,-0.986 0.869,-1.136 z"
             inkscape:connector-curvature="0"
             style="fill:#fcbb49" />
        </g>
        <g
           id="drawingObject76">
          <path
             id="path171"
             d="m 2.286,-15.175 c 0.249,0.004 0.411,-0.694 -0.093,-0.452 q -0.202,0.097 -0.155,0.298 0.047,0.2 0.248,0.154 z"
             inkscape:connector-curvature="0"
             style="fill:#fde2ac" />
        </g>
        <g
           id="drawingObject77">
          <path
             id="path172"
             d="m 0.37,-11.156 c -0.094,-0.352 -0.783,-1.063 -1.646,-0.277 q -0.355,0.294 -0.316,0.995 0.087,0.802 0.839,0.714 c 1.102,-0.132 1.216,-1.03 1.123,-1.432 z"
             inkscape:connector-curvature="0"
             style="fill:#bb8b36" />
        </g>
        <g
           id="drawingObject78">
          <path
             id="path173"
             d="m 0.118,-11.01 c 0.001,-0.1 -0.135,-0.952 -1.041,-0.567 q -0.504,0.242 -0.566,0.941 -0.11,0.648 0.54,0.609 c 1.003,-0.134 1.064,-0.833 1.067,-0.983 z"
             inkscape:connector-curvature="0"
             style="fill:#fcbb49" />
        </g>
        <g
           id="drawingObject79">
          <path
             id="path174"
             d="m -0.733,-10.974 c 0.299,0.055 0.56,-0.591 0.007,-0.45 q -0.201,0.047 -0.204,0.247 -0.003,0.2 0.197,0.203 z"
             inkscape:connector-curvature="0"
             style="fill:#fde2ac" />
        </g>
      </g>
      <g
         id="element18">
        <g
           id="drawingObject80">
          <path
             id="path175"
             d="m 4.951,-22.699 c 1.1,1.55 1.85,2.3 1.85,2.3 0,0 -1.6,-3.75 -3.85,-7.15 -2.25,-3.4 -5.25,-6.1 -5.25,-6.1 l 1.8,1.8 -1.8,-1.8 q -0.1,-0.65 -1.75,-0.65 c -1.65,0 -2.65,0.6 -2.65,0.6 l 0.7,-0.3 -0.7,0.3 0.55,0.95 -0.55,-0.95 c 0,0 0.75,1.75 2.25,2.4 1.5,0.65 3.65,2.1 4.55,3.25 0.95,1.15 3.75,3.75 4.85,5.35 z"
             inkscape:connector-curvature="0"
             style="fill:#97141e" />
        </g>
        <g
           id="drawingObject81">
          <path
             id="path176"
             d="m 4.951,-22.699 c 1.1,1.55 1.85,2.3 1.85,2.3 0,0 -1.2,-2.75 -2.95,-5.75 -0.6,-0.7 -1.4,-1.55 -2.4,-2.4 q -1.3,-1.1 -3.15,-2.5 -1.9,-1.4 -2.6,-2 c -0.55,-0.45 -0.7,-0.85 -0.65,-1.2 -1.1,0.15 -1.75,0.55 -1.75,0.55 l 0.45,-0.2 -0.45,0.2 0.55,0.95 -0.55,-0.95 c 0,0 0.75,1.75 2.25,2.4 1.5,0.65 3.65,2.1 4.55,3.25 0.95,1.15 3.75,3.75 4.85,5.35 z"
             inkscape:connector-curvature="0"
             style="fill:#314582" />
        </g>
      </g>
      <animate
         attributeName="display"
         begin="0s"
         repeatCount="1"
         dur="0.542s"
         keyTimes="0;0.923;1"
         values="none;inline;none"
         id="animate8113" />
    </g>
    <g
       id="coatCloseC006_2_168">
      <g
         id="element13">
        <path
           id="path123"
           d="m 6.75,-20.65 c -0.4,-1.05 -0.9,-1.8 -1.55,-2.25 -0.15,0.05 -0.2,0 -0.2,-0.05 -0.2,0.9 -0.3,1.65 -0.25,2.3 -0.5,1.1 -0.9,1.95 -1.15,2.55 -0.25,0.5 -0.55,1 -0.8,1.55 -0.65,1 -1.2,2.05 -1.75,3.2 l -2.6,3 c 0.05,0.05 0.05,0.05 0.1,0.05 l -0.025,0.025 -0.025,0.025 c -2.45,2.5 -5,4.65 -7.6,6.4 l -0.15,0 c -2.95,2.35 -5.55,5.1 -7.8,8.35 -0.05,0.3 -0.3,0.75 -0.85,1.3 -2.5,3.55 -4.1,6.25 -4.85,8.1 -0.45,1.35 -0.85,2.75 -1.2,4.2 0,0.45 -0.1,1.2 -0.3,2.2 l -0.45,-1 0,-0.05 c 0.05,-0.25 0,-0.25 -0.05,-0.1 -0.05,-1.25 -0.1,-2.6 -0.15,-4 l -0.025,0 0.025,0 c 0.05,0.35 0,0.9 -0.15,1.6 -0.15,0.65 -0.05,1.75 0.25,3.2 0.05,-0.05 0.15,0.25 0.35,0.85 0.2,0.6 0.55,1.2 1.05,1.8 0.15,-1.65 0.65,-4.2 1.5,-7.75 0.7,-2 2.75,-5.15 6.1,-9.45 0.5,-0.45 0.65,-0.75 0.5,-0.8 0.6,-0.8 1.5,-1.85 2.65,-3.15 1.15,-1.35 2.7,-2.8 4.55,-4.35 1.15,-0.9 3.2,-2.4 6.1,-4.5 1.95,-1.85 3.55,-3.8 4.8,-5.85 0.85,-1.75 1.75,-3.55 2.7,-5.4 q -0.15,-0.5 1.25,-2 z"
           inkscape:connector-curvature="0"
           style="fill:#263667" />
        <path
           id="path124"
           d="m 4.45,-21.9 c -0.35,-0.4 -0.8,-1.05 -1.4,-1.95 -1,-0.4 -1.6,-0.85 -1.8,-1.4 -0.85,-0.15 -1.25,-0.6 -1.2,-1.35 -0.25,-1.1 -0.45,-1.7 -0.7,-1.85 -0.15,0.05 -0.4,-0.2 -0.75,-0.65 0.1,0.35 0.2,0.55 0.3,0.5 0.5,0.85 0.8,2.2 0.95,4 0.15,1.15 0.3,1.8 0.45,2.05 0.25,0.6 0.65,0.8 1.25,0.6 0,0.2 0.15,0.2 0.5,0.05 -0.6,0.3 -1,0.4 -1.15,0.35 -0.75,0.3 -1.05,0.7 -1,1.15 -0.25,1.05 -0.45,1.8 -0.6,2.2 0.25,1.15 0.5,1.75 0.75,1.7 0.05,0.15 0,0.5 -0.25,0.95 -0.35,1.05 -0.7,1.45 -1.05,1.3 0,1.8 0.15,2.6 0.45,2.4 0.65,-0.05 0.9,-0.35 0.85,-0.9 0,-0.3 0.05,-0.7 0.15,-1.25 -0.1,-0.35 -0.05,-0.9 0.15,-1.6 0,0.15 0.2,0.15 0.65,0.1 0.35,0.35 0.8,0.1 1.35,-0.75 -0.25,-0.1 -0.1,-0.2 0.45,-0.3 0.25,-0.55 0.55,-1.05 0.8,-1.55 0.25,-0.6 0.65,-1.45 1.15,-2.55 -0.05,-0.15 -0.15,-0.6 -0.3,-1.25 z m -9.9,-9.5 c -1.1,0.15 -2.2,0.25 -3.25,0.3 0.15,0.2 0.15,0.2 -0.05,0.05 0.05,0.1 -0.05,0.15 -0.3,0.1 0.05,0.25 0,0.35 -0.2,0.3 0.55,0.35 0.75,0.65 0.65,0.9 1.85,-0.75 3.4,-1 4.65,-0.7 0.35,0.2 0.75,0.35 1.1,0.45 0.2,0.05 0.35,0.05 0.4,0.1 -0.7,-0.55 -1.25,-1.05 -1.65,-1.45 -0.2,0.25 -0.65,0.2 -1.35,-0.05 z M -17.9,5.8 c -0.65,0.35 -1.25,0.7 -1.85,1.15 -3.65,5.55 -5.2,8.35 -4.6,8.4 0.25,0.25 0.45,0.05 0.7,-0.65 -0.25,0.65 -0.5,1.5 -0.8,2.55 0.05,0.25 -0.05,0.95 -0.25,2 l 0,0.05 0.45,1 c 0.2,-1 0.3,-1.75 0.3,-2.2 0.35,-1.45 0.75,-2.85 1.2,-4.2 0.75,-1.85 2.35,-4.55 4.85,-8.1 z"
           inkscape:connector-curvature="0"
           style="fill:#8a131b" />
        <path
           id="path125"
           d="m 3.05,-23.85 c 0.6,0.9 1.05,1.55 1.4,1.95 0.15,0.65 0.25,1.1 0.3,1.25 -0.05,-0.65 0.05,-1.4 0.25,-2.3 -0.05,0 -0.1,-0.05 -0.05,-0.15 -0.4,-0.75 -1,-1.8 -1.8,-3.15 -1.2,-1.3 -2.3,-2.95 -3.25,-4.9 -0.55,-0.55 -1.35,-1.4 -2.3,-2.5 -0.2,0.45 -0.45,0.6 -0.75,0.5 -0.25,0.05 -0.6,0.1 -1.05,0.05 -0.25,0.35 -0.55,0.4 -0.9,0.25 l 0.2,0.15 c 0,0.1 0.1,0.2 0.25,0.35 0.3,0.35 0.5,0.7 0.55,0.95 l 0,0.05 c 0.4,0.4 0.95,0.9 1.65,1.45 l 0.75,0.6 c 0.05,0.1 0.1,0.15 0.05,0.15 0.1,0.15 0.1,0.15 -0.05,0.05 0.85,0.75 1.15,2.1 0.9,4.05 0.25,2.5 0.15,4.3 -0.35,5.35 0,1.55 -0.1,2.35 -0.35,2.3 0.35,0.85 0.2,1.65 -0.35,2.5 -0.1,1.35 -0.25,2.2 -0.45,2.65 0.05,0.85 0.25,1.5 0.6,1.85 0.05,0.05 0.15,0.1 0.2,0.15 l 0.025,-0.025 0.025,0.025 c -0.05,-0.05 -0.05,-0.05 -0.1,-0.1 l 2.6,-3 c 0.55,-1.15 1.1,-2.2 1.75,-3.2 -0.55,0.1 -0.7,0.2 -0.45,0.3 -0.55,0.85 -1,1.1 -1.35,0.75 -0.45,0.05 -0.65,0.05 -0.65,-0.1 -0.2,0.7 -0.25,1.25 -0.15,1.6 -0.1,0.55 -0.15,0.95 -0.15,1.25 0.05,0.55 -0.2,0.85 -0.85,0.9 -0.3,0.2 -0.45,-0.6 -0.45,-2.4 0.35,0.15 0.7,-0.25 1.05,-1.3 0.25,-0.45 0.3,-0.8 0.25,-0.95 -0.25,0.05 -0.5,-0.55 -0.75,-1.7 0.15,-0.4 0.35,-1.15 0.6,-2.2 -0.05,-0.45 0.25,-0.85 1,-1.15 0.15,0.05 0.55,-0.05 1.15,-0.35 -0.35,0.15 -0.5,0.15 -0.5,-0.05 -0.6,0.2 -1,0 -1.25,-0.6 -0.15,-0.25 -0.3,-0.9 -0.45,-2.05 -0.15,-1.8 -0.45,-3.15 -0.95,-4 -0.1,0.05 -0.2,-0.15 -0.3,-0.5 0.35,0.45 0.6,0.7 0.75,0.65 0.25,0.15 0.45,0.75 0.7,1.85 -0.05,0.75 0.35,1.2 1.2,1.35 0.2,0.55 0.8,1 1.8,1.4 z m -11.65,-5.9 c 0.15,0.05 0.35,0.45 0.7,1.2 0.3,0.7 0.55,1.45 0.75,2.3 1.45,-2.45 2.4,-3.7 2.85,-3.85 1.05,0.25 1.55,0.25 1.45,0.1 -0.35,-0.1 -0.75,-0.25 -1.1,-0.45 -1.25,-0.3 -2.8,-0.05 -4.65,0.7 z m -2.05,21.5 c -0.25,1.65 -1.65,4.3 -4.3,7.95 -2.35,2.85 -4.45,5.8 -6.4,8.9 -1.8,2.4 -3,4.55 -3.55,6.4 0,0.05 0,0.05 0,0.1 l 0,0.05 c 0.05,1.4 0.1,2.75 0.15,4 0.05,-0.15 0.1,-0.15 0.05,0.1 0.2,-1.05 0.3,-1.75 0.25,-2 0.3,-1.05 0.55,-1.9 0.8,-2.55 -0.25,0.7 -0.45,0.9 -0.7,0.65 -0.6,-0.05 0.95,-2.85 4.6,-8.4 0.6,-0.45 1.2,-0.8 1.85,-1.15 0.55,-0.55 0.8,-1 0.85,-1.3 2.25,-3.25 4.85,-6 7.8,-8.35 l 0.15,0 c -0.15,0 -0.2,-0.05 -0.15,-0.2 -0.55,-0.95 -1,-2.35 -1.4,-4.2 z"
           inkscape:connector-curvature="0"
           style="fill:#721016" />
        <path
           id="path126"
           d="M 5,-22.95 C 5,-23 5,-23 4.95,-23.05 l 0,-0.05 c -0.05,0.1 0,0.15 0.05,0.15"
           inkscape:connector-curvature="0"
           style="fill:#263667" />
        <path
           id="path127"
           d="m -4.1,-31.35 0,-0.05 C -4.15,-31.65 -4.35,-32 -4.65,-32.35 -4.8,-32.5 -4.9,-32.6 -4.9,-32.7 l -0.2,-0.15 -0.05,-0.05 c -0.55,0.2 -1.05,0.4 -1.5,0.65 0.05,-0.05 0.1,-0.1 0.05,-0.15 -0.75,0.45 -1.45,0.85 -2.1,1.3 1.05,-0.05 2.15,-0.15 3.25,-0.3 0.7,0.25 1.15,0.3 1.35,0.05 z"
           inkscape:connector-curvature="0"
           style="fill:#bd1a26" />
        <path
           id="path132"
           d="m -7.15,-26.25 c 0.15,0.3 0.15,0.5 0.05,0.55 0.1,0.3 0.1,0.4 -0.05,0.35 0.2,0.55 0.2,0.95 0,1.1 0.15,0.2 0.1,0.45 -0.15,0.8 0.1,0.65 0,1.55 -0.25,2.65 0.05,0.95 -0.4,2.4 -1.25,4.45 -0.75,3.15 -1.25,5.55 -1.5,7.15 0.15,0.25 0.05,0.4 -0.2,0.4 0.25,0.1 0.25,0.15 0,0.1 0.05,0.15 0,0.25 -0.1,0.3 0.45,0.25 0.4,0.3 -0.05,0.05 0.05,0.05 0.05,0.05 0,0.1 0.4,1.85 0.85,3.25 1.4,4.2 -0.05,0.15 0,0.2 0.15,0.2 2.6,-1.75 5.15,-3.9 7.6,-6.4 -0.05,-0.05 -0.15,-0.1 -0.2,-0.15 -0.35,-0.35 -0.55,-1 -0.6,-1.85 0.2,-0.45 0.35,-1.3 0.45,-2.65 0.55,-0.85 0.7,-1.65 0.35,-2.5 0.25,0.05 0.35,-0.75 0.35,-2.3 0.5,-1.05 0.6,-2.85 0.35,-5.35 0.25,-1.95 -0.05,-3.3 -0.9,-4.05 0.15,0.1 0.15,0.1 0.05,-0.05 0.05,0 0,-0.05 -0.05,-0.15 l -0.75,-0.6 0,0.05 c 0.05,0.05 0.05,0.05 0.1,0.1 -0.05,0.3 -0.2,0.2 -0.5,-0.25 0.1,0.15 -0.4,0.15 -1.45,-0.1 -0.45,0.15 -1.4,1.4 -2.85,3.85 z"
           inkscape:connector-curvature="0"
           style="fill:#510b0f" />
        <path
           id="path138"
           d="m -1.45,-10.3 c -0.05,0 -0.05,0 -0.1,-0.05 0.05,0.05 0.05,0.05 0.1,0.1 m -0.025,-0.025 0.025,-0.025"
           inkscape:connector-curvature="0"
           style="fill:#510b0f" />
      </g>
      <g
         id="element14">
        <g
           id="drawingObject60">
          <path
             id="path141"
             d="M 5.315,-20.027 C 5.12,-20.38 4.227,-20.794 3.661,-19.803 q -0.257,0.395 0.033,1.05 0.338,0.756 0.993,0.416 c 1.008,-0.483 0.823,-1.386 0.628,-1.69 z"
             inkscape:connector-curvature="0"
             style="fill:#bb8b36" />
        </g>
        <g
           id="drawingObject61">
          <path
             id="path142"
             d="m 5.111,-19.83 c -0.048,-0.101 -0.436,-0.857 -1.197,-0.169 q -0.356,0.344 -0.216,0.996 0.138,0.703 0.693,0.412 c 0.907,-0.436 0.768,-1.088 0.72,-1.239 z"
             inkscape:connector-curvature="0"
             style="fill:#fcbb49" />
        </g>
        <g
           id="drawingObject62">
          <path
             id="path143"
             d="m 4.306,-19.493 c 0.301,-0.095 0.312,-0.745 -0.143,-0.452 q -0.151,0.097 -0.105,0.298 0.047,0.201 0.248,0.154 z"
             inkscape:connector-curvature="0"
             style="fill:#fde2ac" />
        </g>
        <g
           id="drawingObject63">
          <path
             id="path144"
             d="m 3.342,-15.558 c -0.194,-0.353 -1.036,-0.867 -1.701,0.022 q -0.255,0.346 -0.067,1.049 0.188,0.753 0.892,0.515 c 1.105,-0.332 1.02,-1.234 0.876,-1.586 z"
             inkscape:connector-curvature="0"
             style="fill:#bb8b36" />
        </g>
        <g
           id="drawingObject64">
          <path
             id="path145"
             d="m 3.089,-15.362 c 0.002,-0.15 -0.336,-0.906 -1.145,-0.319 q -0.405,0.294 -0.366,0.944 0.039,0.701 0.642,0.511 c 0.956,-0.335 0.916,-0.986 0.869,-1.136 z"
             inkscape:connector-curvature="0"
             style="fill:#fcbb49" />
        </g>
        <g
           id="drawingObject65">
          <path
             id="path146"
             d="m 2.286,-15.175 c 0.249,0.004 0.411,-0.694 -0.093,-0.452 q -0.202,0.097 -0.155,0.298 0.047,0.2 0.248,0.154 z"
             inkscape:connector-curvature="0"
             style="fill:#fde2ac" />
        </g>
        <g
           id="drawingObject66">
          <path
             id="path147"
             d="m 0.37,-11.156 c -0.094,-0.352 -0.783,-1.063 -1.646,-0.277 q -0.355,0.294 -0.316,0.995 0.087,0.802 0.839,0.714 c 1.102,-0.132 1.216,-1.03 1.123,-1.432 z"
             inkscape:connector-curvature="0"
             style="fill:#bb8b36" />
        </g>
        <g
           id="drawingObject67">
          <path
             id="path148"
             d="m 0.118,-11.01 c 0.001,-0.1 -0.135,-0.952 -1.041,-0.567 q -0.504,0.242 -0.566,0.941 -0.11,0.648 0.54,0.609 c 1.003,-0.134 1.064,-0.833 1.067,-0.983 z"
             inkscape:connector-curvature="0"
             style="fill:#fcbb49" />
        </g>
        <g
           id="drawingObject68">
          <path
             id="path149"
             d="m -0.733,-10.974 c 0.299,0.055 0.56,-0.591 0.007,-0.45 q -0.201,0.047 -0.204,0.247 -0.003,0.2 0.197,0.203 z"
             inkscape:connector-curvature="0"
             style="fill:#fde2ac" />
        </g>
      </g>
      <g
         id="element15">
        <g
           id="drawingObject69">
          <path
             id="path150"
             d="m 4.951,-22.699 c 1.1,1.55 1.85,2.3 1.85,2.3 0,0 -1.6,-3.75 -3.85,-7.15 -2.25,-3.4 -5.25,-6.1 -5.25,-6.1 l 1.8,1.8 -1.8,-1.8 q -0.1,-0.65 -1.75,-0.65 c -1.65,0 -2.65,0.6 -2.65,0.6 l 0.7,-0.3 -0.7,0.3 0.55,0.95 -0.55,-0.95 c 0,0 0.75,1.75 2.25,2.4 1.5,0.65 3.65,2.1 4.55,3.25 0.95,1.15 3.75,3.75 4.85,5.35 z"
             inkscape:connector-curvature="0"
             style="fill:#97141e" />
        </g>
        <g
           id="drawingObject70">
          <path
             id="path151"
             d="m 4.951,-22.699 c 1.1,1.55 1.85,2.3 1.85,2.3 0,0 -1.2,-2.75 -2.95,-5.75 -0.6,-0.7 -1.4,-1.55 -2.4,-2.4 q -1.3,-1.1 -3.15,-2.5 -1.9,-1.4 -2.6,-2 c -0.55,-0.45 -0.7,-0.85 -0.65,-1.2 -1.1,0.15 -1.75,0.55 -1.75,0.55 l 0.45,-0.2 -0.45,0.2 0.55,0.95 -0.55,-0.95 c 0,0 0.75,1.75 2.25,2.4 1.5,0.65 3.65,2.1 4.55,3.25 0.95,1.15 3.75,3.75 4.85,5.35 z"
             inkscape:connector-curvature="0"
             style="fill:#314582" />
        </g>
      </g>
      <animate
         attributeName="display"
         begin="0s"
         repeatCount="1"
         dur="0.542s"
         keyTimes="0;0.769;0.923;1"
         values="none;inline;none;none"
         id="animate8148" />
    </g>
    <g
       id="coatCloseC006_2_166">
      <g
         id="element10">
        <path
           id="path96"
           d="m 0.15,-26.5 q -0.1,0.95 1.2,1.35 c 0.25,0.4 0.85,0.85 1.8,1.4 0.65,0.7 1.15,1.35 1.4,1.95 0.25,0.65 0.35,1.05 0.3,1.3 0.1,-0.65 0.2,-1.45 0.25,-2.45 -0.4,-0.85 -1,-1.95 -1.8,-3.2 -1,-1.35 -2.15,-3 -3.45,-5 -0.7,-0.65 -1.5,-1.45 -2.45,-2.5 -0.25,0.35 -0.5,0.45 -0.75,0.4 -0.3,0.05 -0.65,0.1 -1.05,0.05 -0.25,0.25 -0.6,0.35 -0.95,0.25 0.25,0.1 0.35,0.15 0.25,0.15 0,0.15 0.1,0.25 0.25,0.3 0.25,0.5 0.4,0.85 0.55,1.1 l 0,0.05 c 0.3,0.45 0.85,0.95 1.7,1.5 0.35,0.35 0.6,0.55 0.75,0.65 l 0.05,0.05 -0.05,0.15 c 0.85,0.75 1.15,2.1 0.95,4.05 0.15,2.4 0,4.15 -0.45,5.25 -0.1,1.55 -0.2,2.25 -0.3,2.2 0.2,0.75 0.1,1.6 -0.35,2.55 -0.25,1.25 -0.4,2.15 -0.45,2.6 0,0.8 0.2,1.4 0.6,1.85 0.4,0.35 0.65,0.45 0.8,0.4 0.75,-0.45 1.45,-1.5 2.2,-3.25 0.6,-1.1 1.2,-2.15 1.75,-3.1 -0.4,0.1 -0.55,0.2 -0.45,0.3 -0.55,0.65 -1,0.9 -1.4,0.65 -0.4,0.05 -0.6,0 -0.6,-0.2 -0.15,0.6 -0.2,1.15 -0.15,1.65 -0.15,0.4 -0.25,0.8 -0.25,1.25 -0.05,0.55 -0.4,0.8 -0.95,0.85 -0.5,0.2 -0.65,-0.6 -0.45,-2.35 0.3,0.1 0.65,-0.3 1.1,-1.25 0.25,-0.55 0.35,-0.85 0.2,-1 -0.35,-0.05 -0.6,-0.6 -0.75,-1.65 0.15,-0.55 0.35,-1.25 0.55,-2.15 0.05,-0.45 0.45,-0.85 1.3,-1.15 0.25,0 0.65,-0.1 1.25,-0.35 -0.25,0.1 -0.45,0.1 -0.6,-0.05 -0.55,0.2 -0.95,0 -1.25,-0.6 -0.3,-0.2 -0.55,-0.85 -0.7,-2 -0.15,-1.9 -0.45,-3.25 -1,-4.05 -0.05,-0.05 -0.15,-0.2 -0.3,-0.45 0.4,0.4 0.65,0.6 0.8,0.6 0.25,0.15 0.55,0.8 0.9,1.9 z m -7.65,-0.95 c 0.05,0.6 0.15,1 0.2,1.25 1.35,-2.45 2.3,-3.7 2.85,-3.85 0.95,0.15 1.4,0.2 1.45,0.1 -0.35,-0.05 -0.75,-0.25 -1.1,-0.55 -1.35,-0.25 -2.9,0 -4.65,0.8 0.85,0.95 1.3,1.7 1.25,2.25 z m -2.8,18.8 c -0.25,2 -1.45,4.65 -3.6,8 -1.95,2.75 -3.85,5.45 -5.65,8.15 -1.85,2.3 -3.25,4.4 -4.2,6.3 0,0.05 0,0.05 0,0.1 -0.05,1.65 0.15,3.25 0.5,4.75 -0.05,-0.15 0,-0.15 0.1,0.1 0.15,-1.25 0.25,-2 0.4,-2.35 0.35,-1.2 0.7,-2.2 1.05,-3 -0.5,0.9 -0.85,1.2 -1.1,0.85 -0.55,-0.35 1.05,-3.1 4.9,-8.15 0.45,-0.45 1,-0.8 1.65,-1.1 0.35,-0.45 0.6,-0.8 0.75,-1.15 2.1,-2.55 4.25,-5.15 6.5,-7.7 0.05,0 0.05,0 0.1,0 -0.1,0 -0.15,-0.05 -0.1,-0.2 -0.5,-1.15 -0.95,-2.65 -1.3,-4.6 z"
           inkscape:connector-curvature="0"
           style="fill:#721016" />
        <path
           id="path97"
           d="m 1.35,-25.15 q -1.3,-0.4 -1.2,-1.35 c -0.35,-1.1 -0.65,-1.75 -0.9,-1.9 -0.15,0 -0.4,-0.2 -0.8,-0.6 0.15,0.25 0.25,0.4 0.3,0.45 0.55,0.8 0.85,2.15 1,4.05 0.15,1.15 0.4,1.8 0.7,2 0.3,0.6 0.7,0.8 1.25,0.6 0.15,0.15 0.35,0.15 0.6,0.05 -0.6,0.25 -1,0.35 -1.25,0.35 -0.85,0.3 -1.25,0.7 -1.3,1.15 -0.2,0.9 -0.4,1.6 -0.55,2.15 0.15,1.05 0.4,1.6 0.75,1.65 0.15,0.15 0.05,0.45 -0.2,1 -0.45,0.95 -0.8,1.35 -1.1,1.25 -0.2,1.75 -0.05,2.55 0.45,2.35 0.55,-0.05 0.9,-0.3 0.95,-0.85 0,-0.45 0.1,-0.85 0.25,-1.25 -0.05,-0.5 0,-1.05 0.15,-1.65 0,0.2 0.2,0.25 0.6,0.2 0.4,0.25 0.85,0 1.4,-0.65 -0.1,-0.1 0.05,-0.2 0.45,-0.3 0.35,-0.6 0.65,-1.1 0.85,-1.55 0.35,-0.65 0.75,-1.45 1.1,-2.5 0.05,-0.25 -0.05,-0.65 -0.3,-1.3 -0.25,-0.6 -0.75,-1.25 -1.4,-1.95 -0.95,-0.55 -1.55,-1 -1.8,-1.4 z m -7,-6.2 c -1.2,-0.05 -2.25,0.1 -3.2,0.35 0.05,0.05 0,0.1 -0.05,0.05 -0.05,0.1 -0.1,0.15 -0.25,0.1 -0.05,0.25 -0.1,0.35 -0.25,0.3 0.4,0.4 0.6,0.7 0.65,0.85 1.75,-0.8 3.3,-1.05 4.65,-0.8 0.35,0.3 0.75,0.5 1.1,0.55 0.2,0.05 0.35,0.05 0.4,0.1 -0.85,-0.55 -1.4,-1.05 -1.7,-1.5 -0.25,0.2 -0.7,0.2 -1.35,0 z M -16.25,5 c -0.65,0.3 -1.2,0.65 -1.65,1.1 -3.85,5.05 -5.45,7.8 -4.9,8.15 0.25,0.35 0.6,0.05 1.1,-0.85 -0.35,0.8 -0.7,1.8 -1.05,3 -0.15,0.35 -0.25,1.1 -0.4,2.35 l -0.05,0.05 c 0.45,0.3 0.75,0.6 0.95,0.85 0.15,-0.9 0.25,-1.7 0.3,-2.35 0.4,-1.55 0.8,-3.05 1.25,-4.5 0.85,-1.95 2.35,-4.55 4.45,-7.8 z"
           inkscape:connector-curvature="0"
           style="fill:#8a131b" />
        <path
           id="path98"
           d="M 5.3,-22.8 C 5.15,-22.85 5.1,-22.95 5.15,-23 l -0.05,0.05 c -0.05,1 -0.15,1.8 -0.25,2.45 -0.35,1.05 -0.75,1.85 -1.1,2.5 -0.2,0.45 -0.5,0.95 -0.85,1.55 -0.55,0.95 -1.15,2 -1.75,3.1 -0.75,1.75 -1.45,2.8 -2.2,3.25 0.05,0.15 -0.2,0.35 -0.7,0.5 -2.4,1.85 -4.8,3.75 -7.15,5.75 -0.05,0 -0.05,0 -0.1,0 -2.25,2.55 -4.4,5.15 -6.5,7.7 -0.15,0.35 -0.4,0.7 -0.75,1.15 -2.1,3.25 -3.6,5.85 -4.45,7.8 -0.45,1.45 -0.85,2.95 -1.25,4.5 -0.05,0.65 -0.15,1.45 -0.3,2.35 -0.2,-0.25 -0.5,-0.55 -0.95,-0.85 l 0.05,-0.05 c -0.1,-0.25 -0.15,-0.25 -0.1,-0.1 -0.35,-1.5 -0.55,-3.1 -0.5,-4.75 -0.05,0.05 -0.1,0.1 -0.25,0.15 0.15,0.35 0.2,0.85 0.1,1.6 0.15,1.15 0.35,2.5 0.55,4.05 0,0.05 0,0.05 0.05,0.1 1.05,1.65 1.85,2.7 2.4,3.25 0.05,-2.3 0.5,-5.4 1.35,-9.3 0.6,-2.1 2.35,-5.15 5.2,-9.1 0.35,-0.4 0.45,-0.6 0.4,-0.65 0.45,-0.55 0.75,-0.9 0.8,-1.05 2,-1.9 3.75,-3.85 5.2,-5.9 1.05,-0.8 3,-2.3 5.8,-4.55 2.15,-1.85 3.85,-3.75 5.05,-5.7 0.95,-1.75 1.85,-3.55 2.7,-5.3 0,-0.45 0.4,-1.1 1.15,-1.95 C 6,-21 5.55,-21.75 5.3,-22.8 z"
           inkscape:connector-curvature="0"
           style="fill:#263667" />
        <path
           id="path99"
           d="m -4.3,-31.35 0,-0.05 c -0.15,-0.25 -0.3,-0.6 -0.55,-1.1 -0.15,-0.05 -0.25,-0.15 -0.25,-0.3 0.1,0 0,-0.05 -0.25,-0.15 -0.55,0.25 -1.05,0.5 -1.6,0.65 0.05,-0.05 0.1,-0.05 0.15,-0.1 -0.75,0.35 -1.45,0.8 -2.05,1.4 0.95,-0.25 2,-0.4 3.2,-0.35 0.65,0.2 1.1,0.2 1.35,0 z"
           inkscape:connector-curvature="0"
           style="fill:#bd1a26" />
        <path
           id="path102"
           d="m -7.25,-25.6 c 0.05,0.25 0,0.35 -0.05,0.3 0.1,0.55 0.1,0.9 -0.05,1.05 0.1,0.15 0.1,0.4 -0.05,0.85 0.05,0.65 -0.05,1.45 -0.25,2.5 -0.05,0.75 -0.4,2.2 -1.1,4.3 -0.7,2.8 -1.15,5.15 -1.3,7 0,0.25 -0.05,0.4 -0.15,0.4 0.2,0.1 0.2,0.15 0,0.1 0.05,0.15 0,0.25 -0.05,0.3 0.25,0.15 0.2,0.15 -0.05,0.05 0.05,0.05 0.05,0.05 0,0.1 0.35,1.95 0.8,3.45 1.3,4.6 -0.05,0.15 0,0.2 0.1,0.2 2.35,-2 4.75,-3.9 7.15,-5.75 0.5,-0.15 0.75,-0.35 0.7,-0.5 -0.15,0.05 -0.4,-0.05 -0.8,-0.4 -0.4,-0.45 -0.6,-1.05 -0.6,-1.85 0.05,-0.45 0.2,-1.35 0.45,-2.6 0.45,-0.95 0.55,-1.8 0.35,-2.55 0.1,0.05 0.2,-0.65 0.3,-2.2 0.45,-1.1 0.6,-2.85 0.45,-5.25 0.2,-1.95 -0.1,-3.3 -0.95,-4.05 l 0.05,-0.15 -0.05,-0.05 c -0.15,-0.1 -0.4,-0.3 -0.75,-0.65 l 0,0.1 c 0.1,0.05 0.15,0.05 0.1,0.1 -0.05,0.05 -0.2,-0.05 -0.5,-0.3 -0.05,0.1 -0.5,0.05 -1.45,-0.1 -0.55,0.15 -1.5,1.4 -2.85,3.85 0.05,0.25 0.1,0.45 0.05,0.6 z"
           inkscape:connector-curvature="0"
           style="fill:#510b0f" />
      </g>
      <g
         id="element11">
        <g
           id="drawingObject49">
          <path
             id="path112"
             d="m 5.431,-20.01 c -0.19,-0.356 -1.077,-0.782 -1.657,0.201 q -0.262,0.392 0.019,1.051 0.327,0.76 0.988,0.429 c 1.014,-0.47 0.841,-1.375 0.65,-1.681 z"
             inkscape:connector-curvature="0"
             style="fill:#bb8b36" />
        </g>
        <g
           id="drawingObject50">
          <path
             id="path113"
             d="M 5.225,-19.816 C 5.178,-19.917 4.801,-20.679 4.03,-20.002 q -0.36,0.34 -0.23,0.994 0.129,0.704 0.688,0.421 c 0.913,-0.423 0.783,-1.078 0.737,-1.229 z"
             inkscape:connector-curvature="0"
             style="fill:#fcbb49" />
        </g>
        <g
           id="drawingObject51">
          <path
             id="path114"
             d="m 4.415,-19.49 c 0.303,-0.091 0.322,-0.741 -0.137,-0.454 q -0.152,0.095 -0.108,0.297 0.044,0.201 0.245,0.157 z"
             inkscape:connector-curvature="0"
             style="fill:#fde2ac" />
        </g>
        <g
           id="drawingObject52">
          <path
             id="path115"
             d="m 3.398,-15.569 c -0.19,-0.355 -1.024,-0.88 -1.701,0 q -0.26,0.342 -0.081,1.048 0.177,0.755 0.885,0.526 c 1.109,-0.317 1.036,-1.219 0.897,-1.574 z"
             inkscape:connector-curvature="0"
             style="fill:#bb8b36" />
        </g>
        <g
           id="drawingObject53">
          <path
             id="path116"
             d="m 3.142,-15.376 c 0.004,-0.15 -0.323,-0.91 -1.141,-0.334 q -0.408,0.288 -0.378,0.939 0.029,0.701 0.635,0.519 c 0.96,-0.321 0.929,-0.973 0.884,-1.124 z"
             inkscape:connector-curvature="0"
             style="fill:#fcbb49" />
        </g>
        <g
           id="drawingObject54">
          <path
             id="path117"
             d="m 2.336,-15.2 c 0.25,0.007 0.421,-0.688 -0.086,-0.453 q -0.203,0.094 -0.159,0.296 0.044,0.201 0.245,0.157 z"
             inkscape:connector-curvature="0"
             style="fill:#fde2ac" />
        </g>
        <g
           id="drawingObject55">
          <path
             id="path118"
             d="m 0.367,-11.207 c -0.09,-0.353 -0.769,-1.073 -1.642,-0.299 q -0.359,0.29 -0.33,0.991 0.076,0.802 0.829,0.725 c 1.104,-0.118 1.231,-1.014 1.143,-1.417 z"
             inkscape:connector-curvature="0"
             style="fill:#bb8b36" />
        </g>
        <g
           id="drawingObject56">
          <path
             id="path119"
             d="m 0.112,-11.064 c 0.003,-0.1 -0.121,-0.954 -1.033,-0.581 q -0.507,0.235 -0.578,0.933 -0.119,0.646 0.532,0.616 c 1.004,-0.12 1.075,-0.818 1.079,-0.968 z"
             inkscape:connector-curvature="0"
             style="fill:#fcbb49" />
        </g>
        <g
           id="drawingObject57">
          <path
             id="path120"
             d="m -0.739,-11.04 c 0.299,0.059 0.568,-0.583 0.014,-0.45 q -0.202,0.044 -0.208,0.244 -0.006,0.2 0.194,0.206 z"
             inkscape:connector-curvature="0"
             style="fill:#fde2ac" />
        </g>
      </g>
      <g
         id="element12">
        <g
           id="drawingObject58">
          <path
             id="path121"
             d="m 4.951,-22.699 c 1.1,1.55 1.85,2.3 1.85,2.3 0,0 -1.6,-3.75 -3.85,-7.15 -2.25,-3.4 -5.25,-6.1 -5.25,-6.1 l 1.8,1.8 -1.8,-1.8 q -0.1,-0.65 -1.75,-0.65 c -1.65,0 -2.65,0.6 -2.65,0.6 l 0.7,-0.3 -0.7,0.3 0.55,0.95 -0.55,-0.95 c 0,0 0.75,1.75 2.25,2.4 1.5,0.65 3.65,2.1 4.55,3.25 0.95,1.15 3.75,3.75 4.85,5.35 z"
             inkscape:connector-curvature="0"
             style="fill:#97141e" />
        </g>
        <g
           id="drawingObject59">
          <path
             id="path122"
             d="m 4.951,-22.699 c 1.1,1.55 1.85,2.3 1.85,2.3 0,0 -1.2,-2.75 -2.95,-5.75 -0.6,-0.7 -1.4,-1.55 -2.4,-2.4 q -1.3,-1.1 -3.15,-2.5 -1.9,-1.4 -2.6,-2 c -0.55,-0.45 -0.7,-0.85 -0.65,-1.2 -1.1,0.15 -1.75,0.55 -1.75,0.55 l 0.45,-0.2 -0.45,0.2 0.55,0.95 -0.55,-0.95 c 0,0 0.75,1.75 2.25,2.4 1.5,0.65 3.65,2.1 4.55,3.25 0.95,1.15 3.75,3.75 4.85,5.35 z"
             inkscape:connector-curvature="0"
             style="fill:#314582" />
        </g>
      </g>
      <animate
         attributeName="display"
         begin="0s"
         repeatCount="1"
         dur="0.542s"
         keyTimes="0;0.615;0.769;1"
         values="none;inline;none;none"
         id="animate8181" />
    </g>
    <g
       id="coatCloseC006_2_164">
      <g
         id="element7">
        <path
           id="path69"
           d="m 0.15,-26.5 q -0.05,0.85 1.25,1.3 c 0.3,0.35 0.9,0.8 1.85,1.3 0.6,0.6 1.05,1.2 1.4,1.85 0.25,0.55 0.35,0.95 0.3,1.2 0.1,-0.65 0.2,-1.45 0.25,-2.35 -0.45,-0.8 -1.05,-1.8 -1.8,-3 -1,-1.3 -2.2,-2.95 -3.6,-4.9 -0.75,-0.65 -1.6,-1.5 -2.5,-2.55 -0.25,0.3 -0.5,0.4 -0.75,0.35 -0.35,0.05 -0.7,0.1 -1.05,0.05 -0.25,0.2 -0.6,0.3 -0.95,0.25 0.25,0.1 0.35,0.15 0.25,0.15 0,0.15 0.05,0.25 0.2,0.3 0.25,0.55 0.5,0.95 0.65,1.2 l 0,0.05 c 0.3,0.35 0.85,0.85 1.7,1.5 0.25,0.25 0.5,0.45 0.75,0.6 l 0,0.05 c -0.05,0.1 -0.05,0.15 0,0.15 0.75,0.8 1.05,2.15 1,4 0.1,2.25 -0.05,3.95 -0.45,5.1 -0.1,1.4 -0.2,2.1 -0.3,2.05 0.2,0.65 0.1,1.5 -0.35,2.45 -0.2,1.15 -0.3,2 -0.35,2.5 0,0.7 0.2,1.25 0.6,1.7 0.35,0.3 0.6,0.4 0.75,0.35 0.75,-0.55 1.5,-1.6 2.25,-3.2 0.65,-1.15 1.2,-2.15 1.7,-3 -0.25,0.1 -0.4,0.2 -0.4,0.3 -0.55,0.6 -1,0.8 -1.45,0.65 -0.35,0.05 -0.55,0 -0.5,-0.15 -0.1,0.55 -0.15,1.05 -0.15,1.6 -0.15,0.35 -0.3,0.75 -0.35,1.2 -0.15,0.45 -0.45,0.75 -1,0.85 -0.5,0.2 -0.65,-0.55 -0.45,-2.2 0.3,-0.05 0.7,-0.45 1.15,-1.3 0.25,-0.45 0.3,-0.75 0.15,-0.9 -0.35,-0.05 -0.6,-0.6 -0.75,-1.55 0.15,-0.5 0.35,-1.2 0.55,-2.05 0.05,-0.45 0.55,-0.8 1.4,-1.1 0.3,-0.05 0.7,-0.2 1.25,-0.35 -0.25,0.05 -0.45,0 -0.6,-0.05 -0.5,0.2 -0.95,0 -1.3,-0.55 -0.35,-0.25 -0.6,-0.85 -0.75,-1.9 -0.15,-1.85 -0.5,-3.2 -1.05,-3.95 0,-0.1 -0.1,-0.25 -0.35,-0.45 0.45,0.35 0.75,0.55 0.8,0.55 0.25,0.25 0.6,0.85 1,1.9 z m -7.65,-0.85 c 0.05,0.45 0.15,0.9 0.2,1.25 1.2,-2.55 2.15,-3.85 2.8,-3.9 0.85,0.1 1.35,0.15 1.45,0.1 -0.35,-0.15 -0.75,-0.3 -1.1,-0.55 -1.45,-0.25 -3,0 -4.65,0.8 0.75,0.9 1.2,1.65 1.3,2.3 z m -1.15,23.2 0.05,0 c -0.05,0 -0.05,-0.05 -0.1,-0.2 C -9.2,-5.5 -9.65,-7 -10,-8.8 c -0.35,1.95 -1.45,4.65 -3.35,8.2 -1.9,3 -3.65,5.8 -5.3,8.4 -1.7,2.35 -3,4.35 -3.85,6 0.05,1.55 0.2,3.05 0.55,4.45 0.05,-0.05 0.05,0 0.1,0.1 0.15,-1.05 0.25,-1.75 0.4,-2.15 0.3,-1.25 0.75,-2.5 1.3,-3.65 -0.15,0.05 -0.25,0.3 -0.4,0.85 -0.45,0.9 -0.8,1.2 -1,0.85 -0.55,-0.25 0.95,-2.9 4.4,-7.85 0.45,-0.4 1,-0.8 1.6,-1.2 0.3,-0.45 0.55,-0.8 0.7,-1.15 2,-2.8 4.05,-5.55 6.2,-8.2 z"
           inkscape:connector-curvature="0"
           style="fill:#721016" />
        <path
           id="path70"
           d="m 1.4,-25.2 q -1.3,-0.45 -1.25,-1.3 c -0.4,-1.05 -0.75,-1.65 -1,-1.9 -0.05,0 -0.35,-0.2 -0.8,-0.55 0.25,0.2 0.35,0.35 0.35,0.45 0.55,0.75 0.9,2.1 1.05,3.95 0.15,1.05 0.4,1.65 0.75,1.9 0.35,0.55 0.8,0.75 1.3,0.55 0.15,0.05 0.35,0.1 0.6,0.05 -0.55,0.15 -0.95,0.3 -1.25,0.35 -0.85,0.3 -1.35,0.65 -1.4,1.1 -0.2,0.85 -0.4,1.55 -0.55,2.05 0.15,0.95 0.4,1.5 0.75,1.55 0.15,0.15 0.1,0.45 -0.15,0.9 -0.45,0.85 -0.85,1.25 -1.15,1.3 -0.2,1.65 -0.05,2.4 0.45,2.2 0.55,-0.1 0.85,-0.4 1,-0.85 0.05,-0.45 0.2,-0.85 0.35,-1.2 0,-0.55 0.05,-1.05 0.15,-1.6 -0.05,0.15 0.15,0.2 0.5,0.15 0.45,0.15 0.9,-0.05 1.45,-0.65 0,-0.1 0.15,-0.2 0.4,-0.3 0.45,-0.65 0.7,-1.1 0.85,-1.45 0.4,-0.65 0.8,-1.45 1.15,-2.35 C 5,-21.1 4.9,-21.5 4.65,-22.05 4.3,-22.7 3.85,-23.3 3.25,-23.9 2.3,-24.4 1.7,-24.85 1.4,-25.2 z m -7.1,-6.15 c -1.2,0.05 -2.25,0.2 -3.2,0.45 -0.05,0 -0.05,0 -0.1,0 -0.05,0.1 -0.15,0.15 -0.2,0.1 -0.1,0.25 -0.2,0.35 -0.3,0.3 0.35,0.4 0.6,0.7 0.7,0.85 1.65,-0.8 3.2,-1.05 4.65,-0.8 0.35,0.25 0.75,0.4 1.1,0.55 0.15,0.05 0.25,0.05 0.4,0.1 -0.85,-0.65 -1.4,-1.15 -1.7,-1.5 -0.35,0.1 -0.8,0.1 -1.35,-0.05 z M -15.55,5.2 c -0.6,0.4 -1.15,0.8 -1.6,1.2 -3.45,4.95 -4.95,7.6 -4.4,7.85 0.2,0.35 0.55,0.05 1,-0.85 0.15,-0.55 0.25,-0.8 0.4,-0.85 -0.55,1.15 -1,2.4 -1.3,3.65 -0.15,0.4 -0.25,1.1 -0.4,2.15 l 0,0.05 c 0.35,0.3 0.7,0.6 0.95,0.9 0.15,-0.8 0.2,-1.55 0.2,-2.2 0.3,-1.45 0.65,-2.85 1.1,-4.2 0.65,-1.85 2,-4.4 4.05,-7.7 z"
           inkscape:connector-curvature="0"
           style="fill:#8a131b" />
        <path
           id="path71"
           d="M 5.25,-23.25 5.2,-23.2 c -0.05,0.9 -0.15,1.7 -0.25,2.35 -0.35,0.9 -0.75,1.7 -1.15,2.35 -0.15,0.35 -0.4,0.8 -0.85,1.45 -0.5,0.85 -1.05,1.85 -1.7,3 -0.75,1.6 -1.5,2.65 -2.25,3.2 -0.05,0.15 -0.25,0.35 -0.65,0.5 -2.4,1.85 -4.7,3.95 -6.95,6.2 l -0.05,0 c -2.15,2.65 -4.2,5.4 -6.2,8.2 -0.15,0.35 -0.4,0.7 -0.7,1.15 -2.05,3.3 -3.4,5.85 -4.05,7.7 -0.45,1.35 -0.8,2.75 -1.1,4.2 0,0.65 -0.05,1.4 -0.2,2.2 -0.25,-0.3 -0.6,-0.6 -0.95,-0.9 l 0,-0.05 c -0.05,-0.1 -0.05,-0.15 -0.1,-0.1 -0.35,-1.4 -0.5,-2.9 -0.55,-4.45 0,0.05 -0.05,0.15 -0.15,0.2 0.1,0.35 0.15,0.85 0.1,1.55 0.05,1.1 0.25,2.35 0.6,3.7 l 0,0.1 c 1.05,1.65 1.85,2.65 2.4,3.1 -0.05,-2.1 0.3,-5 1.05,-8.7 0.5,-1.95 2.1,-4.95 4.75,-9 0.25,-0.25 0.4,-0.45 0.45,-0.6 0.35,-0.5 0.6,-0.9 0.75,-1.15 1.9,-2 3.55,-4.1 4.9,-6.35 0.95,-0.95 2.8,-2.6 5.6,-4.9 2.2,-1.95 3.85,-3.85 5,-5.75 1,-1.75 1.9,-3.45 2.75,-5.05 0.1,-0.45 0.45,-1.05 1.05,-1.8 -0.65,-0.55 -1.15,-1.25 -1.4,-2.2 -0.1,-0.05 -0.15,-0.15 -0.1,-0.2 z"
           inkscape:connector-curvature="0"
           style="fill:#263667" />
        <path
           id="path72"
           d="m -4.35,-31.3 0,-0.05 C -4.5,-31.6 -4.75,-32 -5,-32.55 c -0.15,-0.05 -0.2,-0.15 -0.2,-0.3 0.1,0 0,-0.05 -0.25,-0.15 -0.55,0.25 -1.05,0.45 -1.6,0.7 l 0.1,-0.1 c -0.7,0.35 -1.35,0.85 -1.95,1.5 0.95,-0.25 2,-0.4 3.2,-0.45 0.55,0.15 1,0.15 1.35,0.05 z"
           inkscape:connector-curvature="0"
           style="fill:#bd1a26" />
        <path
           id="path75"
           d="m -7.25,-25.55 c 0.05,0.25 0,0.35 -0.05,0.35 0.1,0.45 0.1,0.8 -0.05,1 0,0.15 0,0.4 0,0.8 -0.05,0.65 -0.1,1.45 -0.25,2.5 -0.1,0.65 -0.45,2.1 -1.05,4.25 -0.6,2.7 -1,5 -1.15,6.9 -0.05,0.25 -0.05,0.35 -0.1,0.35 0.1,0.1 0.1,0.15 -0.05,0.15 0.05,0.1 0.05,0.2 0,0.3 0.1,0.05 0.1,0.1 -0.05,0.05 0,0.05 0,0.05 0,0.1 0.35,1.8 0.8,3.3 1.3,4.45 0.05,0.15 0.05,0.2 0.1,0.2 2.25,-2.25 4.55,-4.35 6.95,-6.2 0.4,-0.15 0.6,-0.35 0.65,-0.5 -0.15,0.05 -0.4,-0.05 -0.75,-0.35 -0.4,-0.45 -0.6,-1 -0.6,-1.7 0.05,-0.5 0.15,-1.35 0.35,-2.5 0.45,-0.95 0.55,-1.8 0.35,-2.45 0.1,0.05 0.2,-0.65 0.3,-2.05 0.4,-1.15 0.55,-2.85 0.45,-5.1 0.05,-1.85 -0.25,-3.2 -1,-4 -0.05,0 -0.05,-0.05 0,-0.15 l 0,-0.05 c -0.25,-0.15 -0.5,-0.35 -0.75,-0.6 -0.05,0.05 -0.05,0.05 -0.05,0.1 0.05,0 0.1,0 0.1,0.05 -0.1,0.05 -0.25,-0.05 -0.45,-0.25 -0.1,0.05 -0.6,0 -1.45,-0.1 -0.65,0.05 -1.6,1.35 -2.8,3.9 -0.05,0.25 -0.05,0.4 0.05,0.55 z"
           inkscape:connector-curvature="0"
           style="fill:#510b0f" />
      </g>
      <g
         id="element8">
        <g
           id="drawingObject38">
          <path
             id="path85"
             d="m 5.687,-19.943 c -0.174,-0.363 -1.042,-0.828 -1.664,0.128 q -0.279,0.381 -0.028,1.051 0.294,0.774 0.968,0.473 c 1.034,-0.426 0.901,-1.338 0.724,-1.652 z"
             inkscape:connector-curvature="0"
             style="fill:#bb8b36" />
        </g>
        <g
           id="drawingObject39">
          <path
             id="path86"
             d="M 5.472,-19.758 C 5.43,-19.861 5.086,-20.639 4.287,-19.996 q -0.375,0.324 -0.273,0.983 0.098,0.709 0.669,0.45 c 0.93,-0.382 0.828,-1.042 0.789,-1.195 z"
             inkscape:connector-curvature="0"
             style="fill:#fcbb49" />
        </g>
        <g
           id="drawingObject40">
          <path
             id="path87"
             d="m 4.649,-19.468 c 0.306,-0.077 0.354,-0.726 -0.117,-0.459 q -0.157,0.088 -0.121,0.291 0.035,0.204 0.238,0.168 z"
             inkscape:connector-curvature="0"
             style="fill:#fde2ac" />
        </g>
        <g
           id="drawingObject41">
          <path
             id="path88"
             d="m 3.461,-15.594 c -0.174,-0.364 -0.985,-0.925 -1.699,-0.075 q -0.275,0.33 -0.127,1.043 0.144,0.763 0.861,0.565 c 1.123,-0.268 1.089,-1.173 0.965,-1.533 z"
             inkscape:connector-curvature="0"
             style="fill:#bb8b36" />
        </g>
        <g
           id="drawingObject42">
          <path
             id="path89"
             d="m 3.197,-15.413 c 0.011,-0.15 -0.283,-0.924 -1.125,-0.384 q -0.421,0.27 -0.419,0.922 -0.001,0.701 0.612,0.546 c 0.973,-0.279 0.971,-0.931 0.932,-1.084 z"
             inkscape:connector-curvature="0"
             style="fill:#fcbb49" />
        </g>
        <g
           id="drawingObject43">
          <path
             id="path90"
             d="m 2.385,-15.273 c 0.249,0.019 0.45,-0.668 -0.067,-0.456 q -0.207,0.085 -0.172,0.288 0.036,0.203 0.239,0.168 z"
             inkscape:connector-curvature="0"
             style="fill:#fde2ac" />
        </g>
        <g
           id="drawingObject44">
          <path
             id="path91"
             d="m 0.242,-11.37 c -0.074,-0.356 -0.721,-1.105 -1.627,-0.37 q -0.371,0.273 -0.373,0.975 0.041,0.805 0.797,0.761 c 1.108,-0.069 1.274,-0.959 1.203,-1.366 z"
             inkscape:connector-curvature="0"
             style="fill:#bb8b36" />
        </g>
        <g
           id="drawingObject45">
          <path
             id="path92"
             d="m -0.018,-11.238 c 0.007,-0.1 -0.08,-0.959 -1.007,-0.626 q -0.517,0.213 -0.618,0.907 -0.148,0.641 0.504,0.639 c 1.009,-0.076 1.11,-0.771 1.121,-0.92 z"
             inkscape:connector-curvature="0"
             style="fill:#fcbb49" />
        </g>
        <g
           id="drawingObject46">
          <path
             id="path93"
             d="m -0.87,-11.251 c 0.296,0.072 0.593,-0.558 0.034,-0.449 q -0.204,0.035 -0.218,0.235 -0.015,0.199 0.184,0.214 z"
             inkscape:connector-curvature="0"
             style="fill:#fde2ac" />
        </g>
      </g>
      <g
         id="element9">
        <g
           id="drawingObject47">
          <path
             id="path94"
             d="m 4.951,-22.699 c 1.1,1.55 1.85,2.3 1.85,2.3 0,0 -1.6,-3.75 -3.85,-7.15 -2.25,-3.4 -5.25,-6.1 -5.25,-6.1 l 1.8,1.8 -1.8,-1.8 q -0.1,-0.65 -1.75,-0.65 c -1.65,0 -2.65,0.6 -2.65,0.6 l 0.7,-0.3 -0.7,0.3 0.55,0.95 -0.55,-0.95 c 0,0 0.75,1.75 2.25,2.4 1.5,0.65 3.65,2.1 4.55,3.25 0.95,1.15 3.75,3.75 4.85,5.35 z"
             inkscape:connector-curvature="0"
             style="fill:#97141e" />
        </g>
        <g
           id="drawingObject48">
          <path
             id="path95"
             d="m 4.951,-22.699 c 1.1,1.55 1.85,2.3 1.85,2.3 0,0 -1.2,-2.75 -2.95,-5.75 -0.6,-0.7 -1.4,-1.55 -2.4,-2.4 q -1.3,-1.1 -3.15,-2.5 -1.9,-1.4 -2.6,-2 c -0.55,-0.45 -0.7,-0.85 -0.65,-1.2 -1.1,0.15 -1.75,0.55 -1.75,0.55 l 0.45,-0.2 -0.45,0.2 0.55,0.95 -0.55,-0.95 c 0,0 0.75,1.75 2.25,2.4 1.5,0.65 3.65,2.1 4.55,3.25 0.95,1.15 3.75,3.75 4.85,5.35 z"
             inkscape:connector-curvature="0"
             style="fill:#314582" />
        </g>
      </g>
      <animate
         attributeName="display"
         begin="0s"
         repeatCount="1"
         dur="0.542s"
         keyTimes="0;0.461;0.615;1"
         values="none;inline;none;none"
         id="animate8214" />
    </g>
    <g
       id="coatCloseC006_2_162">
      <g
         id="element4">
        <path
           id="path43"
           d="m 0.25,-26.5 q 0,0.75 1.25,1.3 c 0.3,0.35 0.95,0.8 1.9,1.35 0.6,0.55 1.05,1.2 1.4,1.9 0.25,0.55 0.35,0.95 0.3,1.2 0.15,-0.75 0.25,-1.55 0.25,-2.4 -0.45,-0.85 -1.05,-1.9 -1.8,-3.05 -0.95,-1.35 -2.2,-3 -3.8,-4.9 -0.8,-0.7 -1.65,-1.55 -2.55,-2.5 -0.25,0.25 -0.45,0.35 -0.7,0.3 -0.45,0 -0.8,0 -1.05,0.05 -0.35,0.2 -0.65,0.3 -0.95,0.25 0.2,0.05 0.3,0.1 0.25,0.15 0,0.15 0.05,0.3 0.2,0.35 0.2,0.45 0.4,0.85 0.65,1.2 l 0,0.05 c 0.3,0.25 0.85,0.75 1.7,1.5 0.25,0.25 0.45,0.4 0.7,0.55 l 0,0.05 c 0,0.05 0,0.1 0.05,0.15 0.75,0.85 1.1,2.2 1.05,4.05 0.05,2.25 -0.15,3.95 -0.5,5.1 -0.1,1.35 -0.2,2 -0.3,2.05 0.1,0.6 -0.05,1.4 -0.45,2.45 -0.25,1.15 -0.35,2 -0.3,2.45 0,0.7 0.2,1.25 0.6,1.7 0.3,0.25 0.55,0.4 0.75,0.45 0.8,-0.6 1.6,-1.65 2.4,-3.2 0.7,-1.2 1.25,-2.2 1.7,-2.95 -0.2,0.1 -0.35,0.2 -0.4,0.3 -0.55,0.55 -1,0.75 -1.45,0.6 -0.35,0 -0.5,-0.05 -0.5,-0.15 -0.05,0.45 -0.1,1 -0.15,1.55 -0.15,0.45 -0.3,0.85 -0.45,1.2 -0.15,0.45 -0.55,0.75 -1.1,0.85 -0.55,0.2 -0.65,-0.55 -0.4,-2.2 0.25,-0.05 0.6,-0.45 1.15,-1.3 0.4,-0.45 0.45,-0.8 0.2,-0.95 -0.4,-0.1 -0.65,-0.6 -0.75,-1.45 0.15,-0.55 0.35,-1.25 0.55,-2.1 0.2,-0.45 0.7,-0.8 1.55,-1.1 0.35,-0.1 0.8,-0.2 1.25,-0.3 C 2.25,-22 2.05,-22 1.9,-22.05 1.4,-21.9 0.95,-22.1 0.6,-22.6 c -0.3,-0.35 -0.6,-1 -0.85,-1.95 -0.25,-1.85 -0.6,-3.15 -1.1,-3.9 -0.05,-0.15 -0.15,-0.35 -0.35,-0.5 0.5,0.35 0.75,0.55 0.8,0.6 0.25,0.2 0.6,0.8 1.15,1.85 z m -9.1,-3.05 c 0.75,0.85 1.2,1.6 1.3,2.25 0.05,0.4 0.15,0.8 0.2,1.2 1.2,-2.5 2.15,-3.8 2.8,-3.9 0.85,0.15 1.35,0.2 1.45,0.15 -0.35,-0.15 -0.75,-0.35 -1.1,-0.6 -1.5,-0.3 -3.05,0 -4.65,0.9 z M -10.1,-9.1 c -0.3,1.9 -1.25,4.6 -2.85,8.15 -1.5,3.1 -2.95,5.9 -4.35,8.45 -1.55,2.45 -2.85,4.45 -4,6.1 0.05,1.65 0.4,3.1 1.05,4.4 0.05,0 0.1,0.05 0.1,0.1 0.15,-0.95 0.3,-1.65 0.35,-2.1 0.3,-1.2 0.75,-2.45 1.3,-3.7 -0.2,0.1 -0.35,0.4 -0.4,0.85 -0.45,1 -0.85,1.3 -1.15,0.9 -0.45,-0.2 0.9,-2.85 4.1,-7.95 0.3,-0.35 0.75,-0.75 1.35,-1.15 0.15,-0.35 0.35,-0.75 0.55,-1.1 1.65,-2.9 3.4,-5.65 5.35,-8.2 l 0.05,0 c -0.05,-0.05 -0.05,-0.1 -0.1,-0.2 -0.55,-1.2 -1,-2.7 -1.35,-4.55 z"
           inkscape:connector-curvature="0"
           style="fill:#721016" />
        <path
           id="path44"
           d="m 1.5,-25.2 q -1.25,-0.55 -1.25,-1.3 c -0.55,-1.05 -0.9,-1.65 -1.15,-1.85 -0.05,-0.05 -0.3,-0.25 -0.8,-0.6 0.2,0.15 0.3,0.35 0.35,0.5 0.5,0.75 0.85,2.05 1.1,3.9 0.25,0.95 0.55,1.6 0.85,1.95 0.35,0.5 0.8,0.7 1.3,0.55 0.15,0.05 0.35,0.05 0.6,0.1 -0.45,0.1 -0.9,0.2 -1.25,0.3 -0.85,0.3 -1.35,0.65 -1.55,1.1 -0.2,0.85 -0.4,1.55 -0.55,2.1 0.1,0.85 0.35,1.35 0.75,1.45 0.25,0.15 0.2,0.5 -0.2,0.95 -0.55,0.85 -0.9,1.25 -1.15,1.3 -0.25,1.65 -0.15,2.4 0.4,2.2 0.55,-0.1 0.95,-0.4 1.1,-0.85 0.15,-0.35 0.3,-0.75 0.45,-1.2 0.05,-0.55 0.1,-1.1 0.15,-1.55 0,0.1 0.15,0.15 0.5,0.15 0.45,0.15 0.9,-0.05 1.45,-0.6 0.05,-0.1 0.2,-0.2 0.4,-0.3 0.5,-0.7 0.8,-1.2 0.9,-1.5 0.45,-0.65 0.85,-1.45 1.2,-2.35 0.05,-0.25 -0.05,-0.65 -0.3,-1.2 -0.35,-0.7 -0.8,-1.35 -1.4,-1.9 -0.95,-0.55 -1.6,-1 -1.9,-1.35 z m -11.1,-5.25 c 0.35,0.35 0.6,0.65 0.75,0.9 1.6,-0.9 3.15,-1.2 4.65,-0.9 0.35,0.25 0.75,0.45 1.1,0.6 0.15,0.05 0.25,0.05 0.4,0.1 -0.85,-0.75 -1.4,-1.25 -1.7,-1.5 -0.4,0.05 -0.85,0 -1.35,-0.1 -1.3,0 -2.4,0.2 -3.35,0.6 -0.05,0 -0.15,0 -0.2,0.05 -0.1,0.15 -0.2,0.2 -0.3,0.25 z m -5,35.4 c -0.6,0.4 -1.05,0.8 -1.35,1.15 -3.2,5.1 -4.55,7.75 -4.1,7.95 0.3,0.4 0.7,0.1 1.15,-0.9 0.05,-0.45 0.2,-0.75 0.4,-0.85 -0.55,1.25 -1,2.5 -1.3,3.7 -0.05,0.45 -0.2,1.15 -0.35,2.1 l 0,0.05 c 0.45,0.4 0.85,0.7 1.2,0.95 0.1,-0.85 0.15,-1.6 0.15,-2.2 0.15,-1.45 0.45,-2.85 0.9,-4.2 0.55,-1.85 1.65,-4.4 3.3,-7.75 z"
           inkscape:connector-curvature="0"
           style="fill:#8a131b" />
        <path
           id="path45"
           d="m 5.4,-23.2 -0.05,0.05 c 0,0.85 -0.1,1.65 -0.25,2.4 -0.35,0.9 -0.75,1.7 -1.2,2.35 -0.1,0.3 -0.4,0.8 -0.9,1.5 -0.45,0.75 -1,1.75 -1.7,2.95 -0.8,1.55 -1.6,2.6 -2.4,3.2 -0.1,0.15 -0.3,0.3 -0.65,0.45 -2.45,1.75 -4.75,3.75 -6.9,5.95 l -0.05,0 c -1.95,2.55 -3.7,5.3 -5.35,8.2 -0.2,0.35 -0.4,0.75 -0.55,1.1 -1.65,3.35 -2.75,5.9 -3.3,7.75 -0.45,1.35 -0.75,2.75 -0.9,4.2 0,0.6 -0.05,1.35 -0.15,2.2 -0.35,-0.25 -0.75,-0.55 -1.2,-0.95 l 0,-0.05 c 0,-0.05 -0.05,-0.1 -0.1,-0.1 -0.65,-1.3 -1,-2.75 -1.05,-4.4 -0.05,0.05 -0.15,0.15 -0.2,0.2 0.2,0.4 0.25,0.9 0.2,1.5 0.25,1.15 0.6,2.4 1.05,3.7 0,0.05 0,0.05 0,0.1 1.25,1.55 2.2,2.55 2.85,2.9 -0.2,-1.85 0,-4.65 0.55,-8.45 0.35,-1.9 1.65,-4.9 3.8,-8.95 0.25,-0.25 0.4,-0.5 0.4,-0.65 0.25,-0.5 0.5,-0.9 0.65,-1.15 1.55,-2.05 3,-4.15 4.35,-6.3 0.85,-0.95 2.7,-2.5 5.5,-4.7 2.35,-1.85 4.05,-3.75 5.15,-5.6 1.05,-1.85 2,-3.55 2.85,-5.1 0.15,-0.55 0.45,-1.15 1,-1.8 -0.55,-0.65 -1,-1.4 -1.35,-2.3 -0.1,-0.05 -0.15,-0.15 -0.1,-0.2 z"
           inkscape:connector-curvature="0"
           style="fill:#263667" />
        <path
           id="path46"
           d="m -4.4,-31.25 0,-0.05 c -0.25,-0.35 -0.45,-0.75 -0.65,-1.2 -0.15,-0.05 -0.2,-0.2 -0.2,-0.35 0.05,-0.05 -0.05,-0.1 -0.25,-0.15 -0.55,0.25 -1.1,0.45 -1.65,0.7 -0.35,0.35 -0.75,0.6 -1.2,0.85 -0.25,0.3 -0.5,0.55 -0.75,0.7 0.95,-0.4 2.05,-0.6 3.35,-0.6 0.5,0.1 0.95,0.15 1.35,0.1 z m 1.3,1.4 c 0.15,0.15 0.3,0.25 0.45,0.25 -0.05,-0.05 -0.1,-0.05 -0.15,-0.1 0.05,0 0.05,0 0.1,-0.05 -0.15,-0.05 -0.25,-0.05 -0.4,-0.1 z"
           inkscape:connector-curvature="0"
           style="fill:#bd1a26" />
        <path
           id="path47"
           d="m -7.35,-25.55 c 0.05,0.25 0,0.35 -0.05,0.35 0.05,0.4 0.05,0.75 0,1 0,0.15 0,0.4 0,0.8 -0.15,0.6 -0.25,1.4 -0.35,2.45 -0.1,0.65 -0.45,2.05 -1.05,4.2 -0.65,2.65 -1,4.85 -1.1,6.7 -0.05,0.25 -0.05,0.35 -0.1,0.35 0.05,0.1 0,0.15 -0.05,0.15 0.05,0.1 0.05,0.2 0,0.3 0.05,0.05 0,0.1 -0.05,0.05 0,0.05 0,0.05 0,0.1 0.35,1.85 0.8,3.35 1.35,4.55 0.05,0.1 0.05,0.15 0.1,0.2 2.15,-2.2 4.45,-4.2 6.9,-5.95 0.35,-0.15 0.55,-0.3 0.65,-0.45 -0.2,-0.05 -0.45,-0.2 -0.75,-0.45 -0.4,-0.45 -0.6,-1 -0.6,-1.7 -0.05,-0.45 0.05,-1.3 0.3,-2.45 0.4,-1.05 0.55,-1.85 0.45,-2.45 0.1,-0.05 0.2,-0.7 0.3,-2.05 0.35,-1.15 0.55,-2.85 0.5,-5.1 0.05,-1.85 -0.3,-3.2 -1.05,-4.05 C -2,-29.05 -2,-29.1 -2,-29.15 l 0,-0.05 c -0.25,-0.15 -0.45,-0.3 -0.7,-0.55 -0.05,0.05 -0.05,0.05 -0.1,0.05 0.05,0.05 0.1,0.05 0.15,0.1 -0.15,0 -0.3,-0.1 -0.45,-0.25 -0.1,0.05 -0.6,0 -1.45,-0.15 -0.65,0.1 -1.6,1.4 -2.8,3.9 -0.05,0.15 -0.05,0.35 0,0.55 z"
           inkscape:connector-curvature="0"
           style="fill:#510b0f" />
      </g>
      <g
         id="element5">
        <g
           id="drawingObject27">
          <path
             id="path58"
             d="m 5.687,-19.943 c -0.174,-0.363 -1.042,-0.828 -1.664,0.128 q -0.279,0.381 -0.028,1.051 0.294,0.774 0.968,0.473 c 1.034,-0.426 0.901,-1.338 0.724,-1.652 z"
             inkscape:connector-curvature="0"
             style="fill:#bb8b36" />
        </g>
        <g
           id="drawingObject28">
          <path
             id="path59"
             d="M 5.472,-19.758 C 5.43,-19.861 5.086,-20.639 4.287,-19.996 q -0.375,0.324 -0.273,0.983 0.098,0.709 0.669,0.45 c 0.93,-0.382 0.828,-1.042 0.789,-1.195 z"
             inkscape:connector-curvature="0"
             style="fill:#fcbb49" />
        </g>
        <g
           id="drawingObject29">
          <path
             id="path60"
             d="m 4.649,-19.468 c 0.306,-0.077 0.354,-0.726 -0.117,-0.459 q -0.157,0.088 -0.121,0.291 0.035,0.204 0.238,0.168 z"
             inkscape:connector-curvature="0"
             style="fill:#fde2ac" />
        </g>
        <g
           id="drawingObject30">
          <path
             id="path61"
             d="m 3.461,-15.594 c -0.174,-0.364 -0.985,-0.925 -1.699,-0.075 q -0.275,0.33 -0.127,1.043 0.144,0.763 0.861,0.565 c 1.123,-0.268 1.089,-1.173 0.965,-1.533 z"
             inkscape:connector-curvature="0"
             style="fill:#bb8b36" />
        </g>
        <g
           id="drawingObject31">
          <path
             id="path62"
             d="m 3.197,-15.413 c 0.011,-0.15 -0.283,-0.924 -1.125,-0.384 q -0.421,0.27 -0.419,0.922 -0.001,0.701 0.612,0.546 c 0.973,-0.279 0.971,-0.931 0.932,-1.084 z"
             inkscape:connector-curvature="0"
             style="fill:#fcbb49" />
        </g>
        <g
           id="drawingObject32">
          <path
             id="path63"
             d="m 2.385,-15.273 c 0.249,0.019 0.45,-0.668 -0.067,-0.456 q -0.207,0.085 -0.172,0.288 0.036,0.203 0.239,0.168 z"
             inkscape:connector-curvature="0"
             style="fill:#fde2ac" />
        </g>
        <g
           id="drawingObject33">
          <path
             id="path64"
             d="m 0.242,-11.37 c -0.074,-0.356 -0.721,-1.105 -1.627,-0.37 q -0.371,0.273 -0.373,0.975 0.041,0.805 0.797,0.761 c 1.108,-0.069 1.274,-0.959 1.203,-1.366 z"
             inkscape:connector-curvature="0"
             style="fill:#bb8b36" />
        </g>
        <g
           id="drawingObject34">
          <path
             id="path65"
             d="m -0.018,-11.238 c 0.007,-0.1 -0.08,-0.959 -1.007,-0.626 q -0.517,0.213 -0.618,0.907 -0.148,0.641 0.504,0.639 c 1.009,-0.076 1.11,-0.771 1.121,-0.92 z"
             inkscape:connector-curvature="0"
             style="fill:#fcbb49" />
        </g>
        <g
           id="drawingObject35">
          <path
             id="path66"
             d="m -0.87,-11.251 c 0.296,0.072 0.593,-0.558 0.034,-0.449 q -0.204,0.035 -0.218,0.235 -0.015,0.199 0.184,0.214 z"
             inkscape:connector-curvature="0"
             style="fill:#fde2ac" />
        </g>
      </g>
      <g
         id="element6">
        <g
           id="drawingObject36">
          <path
             id="path67"
             d="m 4.951,-22.699 c 1.1,1.55 1.85,2.3 1.85,2.3 0,0 -1.6,-3.75 -3.85,-7.15 -2.25,-3.4 -5.25,-6.1 -5.25,-6.1 l 1.8,1.8 -1.8,-1.8 q -0.1,-0.65 -1.75,-0.65 c -1.65,0 -2.65,0.6 -2.65,0.6 l 0.7,-0.3 -0.7,0.3 0.55,0.95 -0.55,-0.95 c 0,0 0.75,1.75 2.25,2.4 1.5,0.65 3.65,2.1 4.55,3.25 0.95,1.15 3.75,3.75 4.85,5.35 z"
             inkscape:connector-curvature="0"
             style="fill:#97141e" />
        </g>
        <g
           id="drawingObject37">
          <path
             id="path68"
             d="m 4.951,-22.699 c 1.1,1.55 1.85,2.3 1.85,2.3 0,0 -1.2,-2.75 -2.95,-5.75 -0.6,-0.7 -1.4,-1.55 -2.4,-2.4 q -1.3,-1.1 -3.15,-2.5 -1.9,-1.4 -2.6,-2 c -0.55,-0.45 -0.7,-0.85 -0.65,-1.2 -1.1,0.15 -1.75,0.55 -1.75,0.55 l 0.45,-0.2 -0.45,0.2 0.55,0.95 -0.55,-0.95 c 0,0 0.75,1.75 2.25,2.4 1.5,0.65 3.65,2.1 4.55,3.25 0.95,1.15 3.75,3.75 4.85,5.35 z"
             inkscape:connector-curvature="0"
             style="fill:#314582" />
        </g>
      </g>
      <animate
         attributeName="display"
         begin="0s"
         repeatCount="1"
         dur="0.542s"
         keyTimes="0;0.308;0.461;1"
         values="none;inline;none;none"
         id="animate8247" />
    </g>
    <g
       id="coatCloseC006_2_160">
      <g
         id="element1">
        <path
           id="path19"
           d="m 0.15,-26.4 c 0.15,0.45 0.6,0.9 1.3,1.35 0.35,0.3 1,0.75 1.85,1.35 0.6,0.5 1.05,1.15 1.4,1.9 0.15,0.55 0.25,0.95 0.3,1.25 0.25,-0.75 0.3,-1.6 0.25,-2.45 -0.5,-0.95 -1.1,-1.95 -1.75,-3.1 -0.9,-1.45 -2.2,-3.1 -3.95,-5.05 -0.85,-0.75 -1.65,-1.6 -2.5,-2.5 -0.25,0.15 -0.5,0.2 -0.75,0.2 -0.35,0.05 -0.7,0.05 -1.05,0.1 -0.35,0.05 -0.65,0.15 -0.9,0.25 0.05,0.05 0.15,0.05 0.25,0.1 0.05,0.2 0.1,0.35 0.15,0.45 0.25,0.45 0.45,0.9 0.7,1.25 l 0.05,0.05 c 0.25,0.25 0.8,0.75 1.7,1.5 0.3,0.15 0.55,0.35 0.7,0.55 0.05,0.1 0.05,0.15 0.1,0.15 0.65,0.85 1,2.25 1,4.2 0.05,2.3 -0.05,4 -0.3,5.15 -0.15,1.3 -0.25,2 -0.3,2.1 0,0.55 -0.1,1.35 -0.35,2.45 -0.25,1.1 -0.3,1.95 -0.25,2.4 0,0.7 0.2,1.25 0.6,1.7 0.25,0.3 0.45,0.45 0.7,0.5 0.75,-0.65 1.55,-1.65 2.3,-3.1 0.65,-1.2 1.2,-2.2 1.6,-2.95 -0.15,0.1 -0.3,0.2 -0.35,0.3 -0.55,0.45 -1,0.65 -1.4,0.6 -0.25,-0.05 -0.4,-0.1 -0.5,-0.25 -0.05,0.55 -0.05,1.05 -0.1,1.6 -0.05,0.45 -0.2,0.85 -0.5,1.15 -0.15,0.55 -0.45,0.8 -1,0.8 -0.6,0.25 -0.75,-0.45 -0.4,-2.15 0.15,-0.1 0.5,-0.5 1.05,-1.25 0.4,-0.55 0.45,-0.85 0.15,-1 -0.4,-0.1 -0.65,-0.6 -0.75,-1.45 0.1,-0.65 0.3,-1.35 0.55,-2.1 0.15,-0.45 0.7,-0.85 1.55,-1.15 0.35,-0.1 0.7,-0.2 1.15,-0.25 -0.25,-0.05 -0.4,-0.05 -0.55,-0.1 -0.55,0.05 -0.95,-0.15 -1.25,-0.6 -0.55,-0.45 -0.85,-1.15 -0.95,-2 -0.25,-1.85 -0.65,-3.2 -1.15,-3.95 -0.1,-0.25 -0.3,-0.5 -0.6,-0.75 0.6,0.45 0.95,0.75 1.05,0.85 0.15,0.15 0.55,0.8 1.15,1.9 z m -9.05,-3.15 c 0.65,0.75 1.1,1.55 1.35,2.35 0.05,0.35 0.15,0.75 0.2,1.15 1.15,-2.6 2.1,-3.9 2.75,-3.95 0.75,0.05 1.2,0.1 1.4,0.15 0.2,0.15 0.4,0.2 0.55,0.25 -0.05,-0.05 -0.15,-0.1 -0.25,-0.15 0.05,0 0.05,0 0.1,0 -0.45,-0.15 -0.95,-0.4 -1.5,-0.7 -1.45,-0.35 -3,-0.05 -4.6,0.9 z m 1,25.4 c -0.05,0 -0.05,-0.05 -0.1,-0.2 -0.65,-1.25 -1.1,-2.75 -1.45,-4.6 -0.25,1.95 -1.05,4.65 -2.45,8.1 -1.3,3.2 -2.6,6 -3.9,8.35 -1.35,2.45 -2.9,4.75 -4.65,6.95 0.25,1.5 0.8,2.7 1.75,3.65 0.1,0.05 0.15,0.05 0.15,0.1 q 0.15,-1.35 0.3,-2.15 c 0.4,-1.25 0.85,-2.5 1.4,-3.75 -0.15,0.15 -0.25,0.45 -0.4,0.85 -0.55,1.15 -1,1.5 -1.35,1.1 -0.45,-0.25 0.95,-3 4.1,-8.15 0.25,-0.35 0.7,-0.75 1.25,-1.1 0.15,-0.35 0.3,-0.7 0.45,-1.05 1.45,-2.95 3.05,-5.65 4.9,-8.1 z"
           inkscape:connector-curvature="0"
           style="fill:#721016" />
        <path
           id="path20"
           d="m 1.45,-25.05 c -0.7,-0.45 -1.15,-0.9 -1.3,-1.35 -0.6,-1.1 -1,-1.75 -1.15,-1.9 -0.1,-0.1 -0.45,-0.4 -1.05,-0.85 0.3,0.25 0.5,0.5 0.6,0.75 0.5,0.75 0.9,2.1 1.15,3.95 0.1,0.85 0.4,1.55 0.95,2 0.3,0.45 0.7,0.65 1.25,0.6 0.15,0.05 0.3,0.05 0.55,0.1 -0.45,0.05 -0.8,0.15 -1.15,0.25 -0.85,0.3 -1.4,0.7 -1.55,1.15 -0.25,0.75 -0.45,1.45 -0.55,2.1 0.1,0.85 0.35,1.35 0.75,1.45 0.3,0.15 0.25,0.45 -0.15,1 -0.55,0.75 -0.9,1.15 -1.05,1.25 -0.35,1.7 -0.2,2.4 0.4,2.15 0.55,0 0.85,-0.25 1,-0.8 0.3,-0.3 0.45,-0.7 0.5,-1.15 0.05,-0.55 0.05,-1.05 0.1,-1.6 0.1,0.15 0.25,0.2 0.5,0.25 0.4,0.05 0.85,-0.15 1.4,-0.6 0.05,-0.1 0.2,-0.2 0.35,-0.3 0.45,-0.8 0.75,-1.35 0.9,-1.6 0.5,-0.75 0.85,-1.5 1.1,-2.35 -0.05,-0.3 -0.15,-0.7 -0.3,-1.25 -0.35,-0.75 -0.8,-1.4 -1.4,-1.9 -0.85,-0.6 -1.5,-1.05 -1.85,-1.35 z m -11.1,-5.4 c 0.3,0.3 0.55,0.6 0.75,0.9 1.6,-0.95 3.15,-1.25 4.6,-0.9 0.55,0.3 1.05,0.55 1.5,0.7 -0.9,-0.75 -1.45,-1.25 -1.7,-1.5 -0.45,0.05 -0.95,0 -1.4,-0.1 -1.45,-0.05 -2.6,0.15 -3.45,0.65 -0.1,0.1 -0.2,0.2 -0.3,0.25 z M -13.25,5 c -0.55,0.35 -1,0.75 -1.25,1.1 -3.15,5.15 -4.55,7.9 -4.1,8.15 0.35,0.4 0.8,0.05 1.35,-1.1 0.15,-0.4 0.25,-0.7 0.4,-0.85 -0.55,1.25 -1,2.5 -1.4,3.75 q -0.15,0.8 -0.3,2.15 c 0.55,0.3 1,0.5 1.45,0.65 0.1,-0.75 0.15,-1.5 0.1,-2.15 0.2,-1.35 0.45,-2.65 0.8,-4.05 0.5,-1.85 1.5,-4.4 2.95,-7.65 z"
           inkscape:connector-curvature="0"
           style="fill:#8a131b" />
        <path
           id="path21"
           d="m 5.25,-23.05 0,0.05 c 0.05,0.85 0,1.7 -0.25,2.45 -0.25,0.85 -0.6,1.6 -1.1,2.35 -0.15,0.25 -0.45,0.8 -0.9,1.6 -0.4,0.75 -0.95,1.75 -1.6,2.95 -0.75,1.45 -1.55,2.45 -2.3,3.1 -0.15,0.15 -0.3,0.25 -0.55,0.4 -2.35,1.65 -4.5,3.65 -6.45,6 -1.85,2.45 -3.45,5.15 -4.9,8.1 -0.15,0.35 -0.3,0.7 -0.45,1.05 -1.45,3.25 -2.45,5.8 -2.95,7.65 -0.35,1.4 -0.6,2.7 -0.8,4.05 0.05,0.65 0,1.4 -0.1,2.15 -0.45,-0.15 -0.9,-0.35 -1.45,-0.65 0,-0.05 -0.05,-0.05 -0.15,-0.1 -0.95,-0.95 -1.5,-2.15 -1.75,-3.65 l -0.2,0.2 c 0.15,0.4 0.25,0.85 0.3,1.35 0.25,1.1 0.8,2.15 1.65,3.1 l 0.05,0.05 c 1.65,1.25 2.8,2 3.45,2.15 -0.35,-1.55 -0.3,-4.2 0.15,-7.95 0.3,-1.95 1.4,-4.8 3.3,-8.65 0.15,-0.2 0.3,-0.4 0.35,-0.65 0.25,-0.45 0.4,-0.8 0.55,-1.1 1.35,-2.1 2.65,-4.2 3.9,-6.3 0.75,-1.05 2.45,-2.6 5.1,-4.65 2.3,-1.9 3.95,-3.7 4.9,-5.45 1.05,-2 1.95,-3.7 2.7,-5.25 C 6,-19.3 6.3,-19.9 6.65,-20.5 6.15,-21.25 5.7,-22 5.35,-22.85 5.3,-22.9 5.3,-23 5.25,-23.05 z"
           inkscape:connector-curvature="0"
           style="fill:#263667" />
        <path
           id="path22"
           d="m -4.5,-31.25 -0.05,-0.05 c -0.25,-0.35 -0.45,-0.8 -0.7,-1.25 -0.05,-0.1 -0.1,-0.25 -0.15,-0.45 -0.1,-0.05 -0.2,-0.05 -0.25,-0.1 -0.6,0.2 -1.15,0.45 -1.65,0.75 -0.35,0.3 -0.7,0.6 -1.15,0.9 -0.3,0.3 -0.6,0.55 -0.9,0.75 0.85,-0.5 2,-0.7 3.45,-0.65 0.45,0.1 0.95,0.15 1.4,0.1 z"
           inkscape:connector-curvature="0"
           style="fill:#bd1a26" />
        <path
           id="path23"
           d="m -7.3,-25.45 c 0,0.15 0,0.3 0,0.35 0,0.4 0,0.75 0,1.05 0,0.15 0,0.4 0,0.8 -0.1,0.55 -0.2,1.4 -0.25,2.5 -0.05,0.6 -0.35,2 -0.9,4.25 -0.55,2.5 -0.85,4.75 -0.9,6.6 -0.05,0.15 -0.05,0.3 -0.05,0.35 l 0,0.15 c 0.05,0.1 0.05,0.2 0,0.3 l -0.05,0.05 c 0,0.05 0,0.05 0,0.1 0.35,1.85 0.8,3.35 1.45,4.6 0.05,0.15 0.05,0.2 0.1,0.2 1.95,-2.35 4.1,-4.35 6.45,-6 0.25,-0.15 0.4,-0.25 0.55,-0.4 -0.25,-0.05 -0.45,-0.2 -0.7,-0.5 -0.4,-0.45 -0.6,-1 -0.6,-1.7 -0.05,-0.45 0,-1.3 0.25,-2.4 0.25,-1.1 0.35,-1.9 0.35,-2.45 0.05,-0.1 0.15,-0.8 0.3,-2.1 0.25,-1.15 0.35,-2.85 0.3,-5.15 0,-1.95 -0.35,-3.35 -1,-4.2 -0.05,0 -0.05,-0.05 -0.1,-0.15 -0.15,-0.2 -0.4,-0.4 -0.7,-0.55 -0.05,0 -0.05,0 -0.1,0 0.1,0.05 0.2,0.1 0.25,0.15 -0.15,-0.05 -0.35,-0.1 -0.55,-0.25 -0.2,-0.05 -0.65,-0.1 -1.4,-0.15 -0.65,0.05 -1.6,1.35 -2.75,3.95 0,0.15 0,0.35 0.05,0.6 z"
           inkscape:connector-curvature="0"
           style="fill:#510b0f" />
      </g>
      <g
         id="element2">
        <g
           id="drawingObject16">
          <path
             id="path32"
             d="m 5.61,-20.081 c -0.186,-0.357 -1.07,-0.792 -1.658,0.186 q -0.266,0.39 0.009,1.051 0.32,0.763 0.983,0.438 c 1.019,-0.46 0.854,-1.367 0.666,-1.675 z"
             inkscape:connector-curvature="0"
             style="fill:#bb8b36" />
        </g>
        <g
           id="drawingObject17">
          <path
             id="path33"
             d="m 5.403,-19.889 c -0.046,-0.102 -0.417,-0.867 -1.194,-0.196 q -0.363,0.336 -0.238,0.991 0.122,0.705 0.683,0.427 c 0.917,-0.415 0.793,-1.07 0.749,-1.222 z"
             inkscape:connector-curvature="0"
             style="fill:#fcbb49" />
        </g>
        <g
           id="drawingObject18">
          <path
             id="path34"
             d="m 4.59,-19.57 c 0.303,-0.088 0.329,-0.738 -0.133,-0.456 q -0.153,0.094 -0.111,0.296 0.042,0.202 0.244,0.16 z"
             inkscape:connector-curvature="0"
             style="fill:#fde2ac" />
        </g>
        <g
           id="drawingObject19">
          <path
             id="path35"
             d="M 3.536,-15.658 C 3.35,-16.016 2.52,-16.549 1.835,-15.675 q -0.263,0.34 -0.091,1.047 0.171,0.758 0.88,0.535 c 1.113,-0.307 1.048,-1.21 0.912,-1.565 z"
             inkscape:connector-curvature="0"
             style="fill:#bb8b36" />
        </g>
        <g
           id="drawingObject20">
          <path
             id="path36"
             d="m 3.278,-15.468 c 0.006,-0.15 -0.314,-0.913 -1.137,-0.345 q -0.411,0.284 -0.387,0.936 0.023,0.701 0.63,0.525 c 0.963,-0.313 0.939,-0.964 0.894,-1.116 z"
             inkscape:connector-curvature="0"
             style="fill:#fcbb49" />
        </g>
        <g
           id="drawingObject21">
          <path
             id="path37"
             d="m 2.471,-15.3 c 0.25,0.01 0.427,-0.684 -0.082,-0.453 q -0.204,0.092 -0.162,0.294 0.042,0.201 0.244,0.159 z"
             inkscape:connector-curvature="0"
             style="fill:#fde2ac" />
        </g>
        <g
           id="drawingObject22">
          <path
             id="path38"
             d="m 0.465,-11.325 c -0.087,-0.354 -0.759,-1.08 -1.639,-0.314 q -0.362,0.286 -0.339,0.987 0.068,0.804 0.822,0.733 c 1.105,-0.107 1.24,-1.002 1.156,-1.406 z"
             inkscape:connector-curvature="0"
             style="fill:#bb8b36" />
        </g>
        <g
           id="drawingObject23">
          <path
             id="path39"
             d="m 0.209,-11.185 c 0.004,-0.1 -0.113,-0.955 -1.028,-0.591 q -0.509,0.231 -0.587,0.928 -0.125,0.646 0.527,0.621 c 1.005,-0.111 1.082,-0.808 1.088,-0.958 z"
             inkscape:connector-curvature="0"
             style="fill:#fcbb49" />
        </g>
        <g
           id="drawingObject24">
          <path
             id="path40"
             d="m -0.642,-11.168 c 0.297,0.062 0.573,-0.578 0.017,-0.45 q -0.202,0.042 -0.209,0.242 -0.008,0.2 0.192,0.208 z"
             inkscape:connector-curvature="0"
             style="fill:#fde2ac" />
        </g>
      </g>
      <g
         id="element3">
        <g
           id="drawingObject25">
          <path
             id="path41"
             d="m 4.951,-22.699 c 1.1,1.55 1.85,2.3 1.85,2.3 0,0 -1.6,-3.75 -3.85,-7.15 -2.25,-3.4 -5.25,-6.1 -5.25,-6.1 l 1.8,1.8 -1.8,-1.8 q -0.1,-0.65 -1.75,-0.65 c -1.65,0 -2.65,0.6 -2.65,0.6 l 0.7,-0.3 -0.7,0.3 0.55,0.95 -0.55,-0.95 c 0,0 0.75,1.75 2.25,2.4 1.5,0.65 3.65,2.1 4.55,3.25 0.95,1.15 3.75,3.75 4.85,5.35 z"
             inkscape:connector-curvature="0"
             style="fill:#97141e" />
        </g>
        <g
           id="drawingObject26">
          <path
             id="path42"
             d="m 4.951,-22.699 c 1.1,1.55 1.85,2.3 1.85,2.3 0,0 -1.2,-2.75 -2.95,-5.75 -0.6,-0.7 -1.4,-1.55 -2.4,-2.4 q -1.3,-1.1 -3.15,-2.5 -1.9,-1.4 -2.6,-2 c -0.55,-0.45 -0.7,-0.85 -0.65,-1.2 -1.1,0.15 -1.75,0.55 -1.75,0.55 l 0.45,-0.2 -0.45,0.2 0.55,0.95 -0.55,-0.95 c 0,0 0.75,1.75 2.25,2.4 1.5,0.65 3.65,2.1 4.55,3.25 0.95,1.15 3.75,3.75 4.85,5.35 z"
             inkscape:connector-curvature="0"
             style="fill:#314582" />
        </g>
      </g>
      <animate
         attributeName="display"
         begin="0s"
         repeatCount="1"
         dur="0.542s"
         keyTimes="0;0.154;0.308;1"
         values="none;inline;none;none"
         id="animate8280" />
    </g>
    <g
       id="coatCloseC006_2_158">
      <g
         id="element">
        <g
           id="drawingObject">
          <path
             id="path"
             d="m 5.851,-18.599 0.85,-1.8 c 0,0 -1.05,-2.15 -3.05,-5.65 q -1.25,-2.2 -4.05,-5.05 l -2.55,-2.4 c 0,0 -2.55,0 -4.3,1.2 -1.35,0.9 -2.3,1.85 -2.3,1.85 l 0.8,0.95 -0.8,-0.95 c 0,0 1.45,1.45 2.1,3.2 0.55,1.4 0.2,4.8 0.1,6.35 -0.15,1.6 -1.7,6.15 -1.65,11.1 0.05,4.9 -3.5,13.4 -5.5,17 -2,3.55 -5.55,8.05 -5.55,8.05 l 0.35,1.15 -0.35,-1.15 c 0,0 -0.05,1.95 2.75,3.2 2.95,1.3 4.05,1.6 4.05,1.6 0,0 -0.75,-2.2 -0.2,-7.5 0.4,-3.85 4.85,-12.3 7.25,-15.85 2.45,-3.6 6.95,-5.45 9.4,-10.1 2.45,-4.6 3.5,-7 3.5,-7"
             inkscape:connector-curvature="0"
             style="fill:#8a131b" />
        </g>
        <g
           id="drawingObject1">
          <path
             id="path1"
             d="m -5.799,-31.349 3,0.15 q 0.5,-0.6 -0.8,-1.35 l -1.15,-0.75 c -0.8,0.15 -1.7,0.45 -2.5,1 -0.95,0.65 -1.7,1.3 -2.05,1.65 0.65,-0.4 1.8,-0.8 3.5,-0.7 z"
             inkscape:connector-curvature="0"
             style="fill:#bd1a26" />
        </g>
        <g
           id="drawingObject2">
          <path
             id="path2"
             d="m 5.851,-18.599 0.85,-1.8 c 0,0 -1.05,-2.15 -3.05,-5.65 -2,-3.5 -6.6,-7.45 -6.6,-7.45 l 2.55,2.4 -2.55,-2.4 c 0,0 -1.3,0 -2.7,0.45 l 0.25,0.1 0.2,0.45 -0.2,-0.45 c 0,0 0.2,0.65 0.95,1.65 0.35,0.5 1.1,1.05 1.75,1.55 -0.45,-0.25 -0.95,-0.5 -1.5,-0.65 -2.05,-0.6 -3.9,0.4 -4.6,0.85 0.45,0.55 1,1.4 1.35,2.3 0.55,1.4 0.2,4.8 0.1,6.35 -0.15,1.6 -1.7,6.15 -1.65,11.1 0.05,4.9 -3.5,13.4 -5.5,17 -2,3.55 -5.55,8.05 -5.55,8.05 l 0.35,1.15 -0.35,-1.15 c 0,0 -0.05,1.95 2.75,3.2 l 0.1,0.05 c 0.05,-1 0.2,-2.35 0.4,-3.05 l 1.4,-3.75 -0.4,0.85 c -0.4,0.8 -0.9,1.75 -1.5,1.3 -0.6,-0.4 2.9,-6.05 4.1,-8 0.4,-0.65 1.55,-1.35 2.95,-1.95 1.35,-2.85 2.95,-5.55 4.05,-7.2 2.45,-3.6 6.95,-5.45 9.4,-10.1 q 1.55,-2.85 2.65,-5.2 z m -0.75,-1.3 c -0.05,1 -1.15,2.6 -2.3,3.7 -1.2,1.05 -1.85,0.3 -1.85,0.3 l 0.5,0.25 -0.5,-0.25 -0.1,1.6 c -0.05,0.65 -0.65,1.75 -1.5,1.9 -0.8,0.2 -0.55,-1.4 -0.4,-2.15 0.15,-0.75 2.15,-1.85 1.15,-2.25 -1,-0.4 -0.8,-2.4 -0.25,-3.6 0.6,-1.15 2.75,-1.3 2.75,-1.3 l -0.55,-0.1 c -0.6,-0.1 -1.95,-0.75 -2.25,-2.65 -0.35,-1.9 -0.7,-3.2 -1.15,-3.95 -0.15,-0.3 -0.4,-0.55 -0.65,-0.8 0.55,0.4 0.9,0.7 1.1,0.9 0.6,0.65 0.6,0.9 1.2,1.9 0.55,1 1.9,1.75 3.15,2.75 1.25,1 1.75,2.75 1.65,3.75 z"
             inkscape:connector-curvature="0"
             style="fill:#721016" />
        </g>
        <g
           id="drawingObject3">
          <path
             id="path6"
             d="m -3.099,-29.899 c -0.5,-0.15 -1.05,-0.1 -1.4,-0.1 -0.8,0.05 -1.8,1.9 -2.7,3.85 0.15,1.65 -0.05,4.05 -0.15,5.25 -0.15,1.6 -1.7,6.15 -1.65,11.1 l 0,0.9 c 0.35,2 1,3.7 1.7,4.7 1.05,1.55 1.65,-0.75 2.4,-1.6 0.75,-0.85 5.75,-5 4.75,-4.75 q -0.7,0.2 -1.2,-0.5 -0.5,-0.65 -0.6,-1.75 c -0.2,-1.35 0.5,-3.25 0.5,-4.85 0,-1.55 0.65,-1.65 0.55,-7.25 0,-2.2 -0.45,-3.45 -1,-4.15 0,0 0,0 -0.1,-0.15 l -0.025,-0.025 0.025,0.025 c -0.25,-0.3 -0.55,-0.5 -0.8,-0.6 l 0.25,0.2 -0.55,-0.3 z"
             inkscape:connector-curvature="0"
             style="fill:#510b0f" />
        </g>
        <g
           id="drawingObject4">
          <path
             id="path7"
             d="m 5.851,-18.599 0.85,-1.8 -1.35,-2.55 c 0.1,1.4 -0.05,2.9 -1.35,4.85 -2.15,3.3 -2.55,6.05 -5.15,7.95 -2.55,1.95 -7.25,6.1 -10.5,13.95 -3.25,7.8 -3.55,9.9 -3.65,12 l -0.1,2.05 c 0,0 -3.45,-0.05 -4.45,-2.85 l -0.2,0.25 0.35,1.15 -0.35,-1.15 c 0,0 -0.05,1.95 2.75,3.2 2.95,1.3 4.05,1.6 4.05,1.6 0,0 -0.75,-2.2 -0.2,-7.5 0.4,-3.85 4.85,-12.3 7.25,-15.85 q 1,-1.5 4.7,-4.65 3.35,-2.9 4.7,-5.45 c 2.45,-4.6 3.5,-7 3.5,-7"
             inkscape:connector-curvature="0"
             style="fill:#263667" />
        </g>
        <g
           id="drawingObject5">
          <path
             id="path8"
             d="m 4.951,-22.699 c 1.1,1.55 1.85,2.3 1.85,2.3 0,0 -1.6,-3.75 -3.85,-7.15 -2.25,-3.4 -5.25,-6.1 -5.25,-6.1 l 1.8,1.8 -1.8,-1.8 q -0.1,-0.65 -1.75,-0.65 c -1.65,0 -2.65,0.6 -2.65,0.6 l 0.7,-0.3 -0.7,0.3 0.55,0.95 -0.55,-0.95 c 0,0 0.75,1.75 2.25,2.4 1.5,0.65 3.65,2.1 4.55,3.25 0.95,1.15 3.75,3.75 4.85,5.35 z"
             inkscape:connector-curvature="0"
             style="fill:#97141e" />
        </g>
        <g
           id="drawingObject6">
          <path
             id="path9"
             d="m 4.951,-22.699 c 1.1,1.55 1.85,2.3 1.85,2.3 0,0 -1.2,-2.75 -2.95,-5.75 -0.6,-0.7 -1.4,-1.55 -2.4,-2.4 q -1.3,-1.1 -3.15,-2.5 -1.9,-1.4 -2.6,-2 c -0.55,-0.45 -0.7,-0.85 -0.65,-1.2 -1.1,0.15 -1.75,0.55 -1.75,0.55 l 0.45,-0.2 -0.45,0.2 0.55,0.95 -0.55,-0.95 c 0,0 0.75,1.75 2.25,2.4 1.5,0.65 3.65,2.1 4.55,3.25 0.95,1.15 3.75,3.75 4.85,5.35 z"
             inkscape:connector-curvature="0"
             style="fill:#314582" />
        </g>
        <g
           id="group1">
          <g
             id="drawingObject7">
            <path
               id="path10"
               d="m 5.601,-20.199 c -0.2,-0.35 -1.1,-0.75 -1.65,0.25 q -0.25,0.4 0.05,1.05 0.35,0.75 1,0.4 c 1,-0.5 0.8,-1.4 0.6,-1.7 z"
               inkscape:connector-curvature="0"
               style="fill:#bb8b36" />
          </g>
          <g
             id="drawingObject8">
            <path
               id="path11"
               d="m 5.401,-19.999 c -0.05,-0.1 -0.45,-0.85 -1.2,-0.15 q -0.35,0.35 -0.2,1 0.15,0.7 0.7,0.4 c 0.9,-0.45 0.75,-1.1 0.7,-1.25 z"
               inkscape:connector-curvature="0"
               style="fill:#fcbb49" />
          </g>
          <g
             id="drawingObject9">
            <path
               id="path12"
               d="m 4.601,-19.649 c 0.3,-0.1 0.3,-0.75 -0.15,-0.45 q -0.15,0.1 -0.1,0.3 0.05,0.2 0.25,0.15 z"
               inkscape:connector-curvature="0"
               style="fill:#fde2ac" />
          </g>
          <g
             id="drawingObject10">
            <path
               id="path13"
               d="m 3.701,-15.699 c -0.2,-0.35 -1.05,-0.85 -1.7,0.05 q -0.25,0.35 -0.05,1.05 0.2,0.75 0.9,0.5 c 1.1,-0.35 1,-1.25 0.85,-1.6 z"
               inkscape:connector-curvature="0"
               style="fill:#bb8b36" />
          </g>
          <g
             id="drawingObject11">
            <path
               id="path14"
               d="m 3.451,-15.499 c 0,-0.15 -0.35,-0.9 -1.15,-0.3 q -0.4,0.3 -0.35,0.95 0.05,0.7 0.65,0.5 c 0.95,-0.35 0.9,-1 0.85,-1.15 z"
               inkscape:connector-curvature="0"
               style="fill:#fcbb49" />
          </g>
          <g
             id="drawingObject12">
            <path
               id="path15"
               d="m 2.651,-15.299 c 0.25,0 0.4,-0.7 -0.1,-0.45 q -0.2,0.1 -0.15,0.3 0.05,0.2 0.25,0.15 z"
               inkscape:connector-curvature="0"
               style="fill:#fde2ac" />
          </g>
          <g
             id="drawingObject13">
            <path
               id="path16"
               d="m 0.801,-11.249 c -0.1,-0.35 -0.8,-1.05 -1.65,-0.25 q -0.35,0.3 -0.3,1 0.1,0.8 0.85,0.7 c 1.1,-0.15 1.2,-1.05 1.1,-1.45 z"
               inkscape:connector-curvature="0"
               style="fill:#bb8b36" />
          </g>
          <g
             id="drawingObject14">
            <path
               id="path17"
               d="m 0.551,-11.099 c 0,-0.1 -0.15,-0.95 -1.05,-0.55 q -0.5,0.25 -0.55,0.95 -0.1,0.65 0.55,0.6 c 1,-0.15 1.05,-0.85 1.05,-1 z"
               inkscape:connector-curvature="0"
               style="fill:#fcbb49" />
          </g>
          <g
             id="drawingObject15">
            <path
               id="path18"
               d="m -0.299,-11.049 c 0.3,0.05 0.55,-0.6 0,-0.45 q -0.2,0.05 -0.2,0.25 0,0.2 0.2,0.2 z"
               inkscape:connector-curvature="0"
               style="fill:#fde2ac" />
          </g>
        </g>
      </g>
      <animate
         attributeName="display"
         begin="0s"
         repeatCount="1"
         dur="0.542s"
         keyTimes="0;0.154;1"
         values="inline;none;none"
         id="animate8317" />
    </g>
  </g>
</svg>
