<?xml version="1.0" encoding="UTF-8" standalone="no"?>
<!-- Generator: flash2svg, http://dissentgraphics.com/tools/flash2svg -->

<svg
   xmlns:dc="http://purl.org/dc/elements/1.1/"
   xmlns:cc="http://creativecommons.org/ns#"
   xmlns:rdf="http://www.w3.org/1999/02/22-rdf-syntax-ns#"
   xmlns:svg="http://www.w3.org/2000/svg"
   xmlns="http://www.w3.org/2000/svg"
   xmlns:sodipodi="http://sodipodi.sourceforge.net/DTD/sodipodi-0.dtd"
   xmlns:inkscape="http://www.inkscape.org/namespaces/inkscape"
   id="AvatarAssets"
   image-rendering="auto"
   version="1.1"
   x="0px"
   y="0px"
   width="46.201"
   height="44.499001"
   viewBox="0 0 46.201 44.499001"
   inkscape:version="0.48.4 r9939"
   sodipodi:docname="AvatarAssets_coatCloseC006.ANI-jumpOver_lift.svg">
  <metadata
     id="metadata7390">
    <rdf:RDF>
      <cc:Work
         rdf:about="">
        <dc:format>image/svg+xml</dc:format>
        <dc:type
           rdf:resource="http://purl.org/dc/dcmitype/StillImage" />
      </cc:Work>
    </rdf:RDF>
  </metadata>
  <sodipodi:namedview
     pagecolor="#ffffff"
     bordercolor="#666666"
     borderopacity="1"
     objecttolerance="10"
     gridtolerance="10"
     guidetolerance="10"
     inkscape:pageopacity="0"
     inkscape:pageshadow="2"
     inkscape:window-width="640"
     inkscape:window-height="480"
     id="namedview7388"
     showgrid="false"
     fit-margin-top="0"
     fit-margin-left="0"
     fit-margin-right="0"
     fit-margin-bottom="0"
     inkscape:zoom="1.9032258"
     inkscape:cx="71.4"
     inkscape:cy="-51.8"
     inkscape:window-x="0"
     inkscape:window-y="0"
     inkscape:window-maximized="0"
     inkscape:current-layer="AvatarAssets" />
  <defs
     id="defs7214" />
  <g
     id="coatCloseC7"
     overflow="visible"
     style="overflow:visible"
     transform="translate(39.4,34.299)">
    <g
       id="coatCloseC006_2_200">
      <g
         id="element12">
        <path
           id="path121"
           d="m 6.1,-21.4 q 0.005,-0.659 -0.25,-0.925 l 0,0.025 C 5.6,-22.55 5.3,-22.8 4.9,-23.1 c -0.15,0.75 -0.25,1.5 -0.25,2.2 -0.55,1.15 -1.2,2.45 -2,3.9 -0.85,1.35 -1.75,2.75 -2.8,4.1 -0.05,0.05 -0.1,0.15 -0.05,0.3 l -0.025,-0.025 -0.2,0 0.025,0.025 c -0.35,0.35 -0.65,0.75 -0.95,1.15 -0.1,0.05 -0.2,0.15 -0.25,0.25 l -0.025,0 0.05,0.05 0,0.05 0.025,0 c -0.05,-0.05 -0.15,-0.15 -0.2,-0.2 -0.45,0.25 -1.4,1.05 -2.75,2.35 -1.35,1.25 -2.8,2.15 -4.35,2.8 -0.05,0 -0.05,0 -0.1,0 l -0.025,-0.05 0.025,0 -0.025,-0.025 0,-0.025 -1.575,0.65 -0.05,0 -0.05,0 -2.3,0.7 c -1.7,0.45 -3.8,0.6 -6.3,0.4 l -0.025,0 0.325,0.2 c 0.75,0.3 1.9,0.5 3.45,0.55 1.55,0.05 2.75,0.05 3.6,-0.1 0.85,-0.15 1.3,-0.2 1.35,-0.2 3.05,-0.5 5.9,-1.95 8.5,-4.3 2.6,-2.4 4.4,-4.3 5.4,-5.7 1,-1.45 1.75,-2.8 2.3,-4.1 0.5,-1.35 0.8,-2.15 0.85,-2.5 -0.25,-0.25 -0.4,-0.5 -0.4,-0.75 z M -9,-6.45 c -0.05,0.05 -0.1,0.15 -0.1,0.1 l -0.025,0 0.025,-0.025 0,0.025 c 0,0 0.05,0 0.1,0.05 l -0.025,0 0.025,0 0.025,0.025 -0.05,-0.175 z"
           inkscape:connector-curvature="0"
           style="fill:#263667" />
        <path
           id="path122"
           d="m 4.65,-20.9 c 0,-0.7 0.1,-1.45 0.25,-2.2 l 0,-0.05 -0.05,-0.15 c -1.75,-2.55 -3.4,-4.9 -5,-7.1 -1.45,-1.95 -2.2,-2.95 -2.3,-2.95 -0.35,0 -0.85,0.1 -1.5,0.3 -0.65,0.15 -1.1,0.25 -1.3,0.25 0.65,0.7 0.95,1.2 1,1.45 0.55,0.65 0.85,1.05 0.85,1.2 -1.8,-0.55 -3.55,-0.45 -5.3,0.25 0.3,0.35 0.8,1.45 1.45,3.3 0,-0.95 0.4,-1.8 1.2,-2.45 0.85,-0.65 1.85,-1 3,-1 l 0,-0.05 0.2,0.25 c 0.65,0.3 1,0.55 1.15,0.7 -0.05,0.05 0.1,1.05 0.45,2.9 0.35,2 0.55,3.15 0.55,3.45 0,1.15 -0.3,2.95 -0.85,5.45 -0.55,2.45 -0.85,3.9 -0.8,4.3 0,0.4 0.1,0.8 0.35,1.25 0.05,0.2 0.15,0.35 0.25,0.5 0.05,0.05 0.15,0.15 0.2,0.2 l -0.025,0 0,-0.05 -0.05,-0.05 0.025,0 c 0.05,-0.1 0.15,-0.2 0.25,-0.25 0.3,-0.4 0.6,-0.8 0.95,-1.15 l -0.025,-0.025 -0.625,0 0,0.025 c -0.2,-0.45 -0.3,-0.95 -0.3,-1.55 0,-0.35 0.4,-1.2 1.25,-2.45 0,-0.9 -0.25,-2.05 -0.7,-3.45 -0.15,-1 0.7,-1.7 2.45,-2.05 l -0.025,0 -0.225,-0.05 c -0.95,-0.35 -1.5,-1.4 -1.65,-3.1 -0.25,-1.95 -0.6,-3.15 -1.15,-3.6 l -0.025,0 0.25,0.15 0.025,0 c 0.45,0.25 0.85,0.85 1.2,1.8 0.35,1 0.75,1.7 1.3,2.05 0.45,0.25 1.1,0.9 1.95,1.95 0.8,0.95 1.25,1.65 1.35,2 z m -2,3.9 c -0.45,0.35 -1,0.65 -1.65,0.85 -0.5,0.15 -0.85,0.2 -1,0.2 0,1.15 -0.05,2.2 -0.15,3.05 1.05,-1.35 1.95,-2.75 2.8,-4.1 z m -27.3,9.3 c 0.6,0.45 0.9,0.7 1.25,0.9 1.35,0.95 2.55,1.7 3.6,2.2 0.15,0.05 0.25,0.05 0.4,0.1 0.05,-0.05 0.15,-0.05 0.2,-0.1 l -0.075,0.1 0.025,0 c 2.5,0.2 4.6,0.05 6.3,-0.4 l 2.3,-0.7 0.2,-0.3 c -0.05,0.1 -0.1,0.2 -0.15,0.3 l 0.05,0 1.575,-0.65 0,-0.025 L -9,-6.3 l -0.025,0 0.025,0 c -0.05,-0.05 -0.1,-0.05 -0.1,-0.05 l -0.025,0 0.025,-0.025 0,0.025 C -9.25,-6.5 -9.45,-6.8 -9.6,-7.2 c -0.2,-0.55 -0.4,-1.2 -0.6,-2 -0.05,-0.2 -0.1,-0.35 -0.2,-0.55 -0.1,-0.35 -0.15,-0.45 -0.1,-0.25 -0.05,-0.05 -0.1,-0.15 -0.15,-0.4 l 0,-0.125 0,0.025 c -0.85,0.1 -1.8,0.05 -2.8,-0.15 -1.05,-0.2 -2.5,-0.25 -4.45,-0.15 -1.95,0.05 -3.6,0.5 -4.95,1.35 -1.35,0.8 -2.6,0.8 -3.75,0.05 0.75,0.75 1.35,1.3 1.95,1.7 z m 15.7,1.45 -0.025,0 0,0.025 0.025,0.025 0.3,-0.1 -0.3,0.05 z"
           inkscape:connector-curvature="0"
           style="fill:#721016" />
        <path
           id="path123"
           d="m 1.4,-22.15 0.225,0.05 0.025,0 c -1.75,0.35 -2.6,1.05 -2.45,2.05 0.45,1.4 0.7,2.55 0.7,3.45 -0.85,1.25 -1.25,2.1 -1.25,2.45 0,0.6 0.1,1.1 0.3,1.55 l 0,-0.025 0.625,0 0.2,0 0.025,0.025 c -0.05,-0.15 0,-0.25 0.05,-0.3 0.1,-0.85 0.15,-1.9 0.15,-3.05 0.15,0 0.5,-0.05 1,-0.2 0.65,-0.2 1.2,-0.5 1.65,-0.85 0.8,-1.45 1.45,-2.75 2,-3.9 -0.1,-0.35 -0.55,-1.05 -1.35,-2 -0.85,-1.05 -1.5,-1.7 -1.95,-1.95 -0.55,-0.35 -0.95,-1.05 -1.3,-2.05 -0.35,-0.95 -0.75,-1.55 -1.2,-1.8 l -0.025,0 -0.25,-0.15 0.025,0 c 0.55,0.45 0.9,1.65 1.15,3.6 0.15,1.7 0.7,2.75 1.65,3.1 z m -6.9,-9.15 c -1.1,0 -2.2,0.05 -3.25,0.1 l -0.025,-0.025 0.125,0.2 0,0.025 c -0.15,-0.05 -0.3,0.05 -0.55,0.3 0.4,0.3 0.55,0.55 0.5,0.8 1.75,-0.7 3.5,-0.8 5.3,-0.25 0,-0.15 -0.3,-0.55 -0.85,-1.2 -0.15,0 -0.6,0 -1.25,0.05 z"
           inkscape:connector-curvature="0"
           style="fill:#8a131b" />
        <path
           id="path128"
           d="m -8.75,-31.2 c 1.05,-0.05 2.15,-0.1 3.25,-0.1 0.65,-0.05 1.1,-0.05 1.25,-0.05 -0.05,-0.25 -0.35,-0.75 -1,-1.45 -1.05,0.25 -2.2,0.8 -3.5,1.6 z"
           inkscape:connector-curvature="0"
           style="fill:#bd1a26" />
        <path
           id="path129"
           d="m -6.05,-29.05 c -0.8,0.65 -1.2,1.5 -1.2,2.45 0.15,2.45 -0.05,5.3 -0.7,8.55 -0.65,3.25 -1.15,5.15 -1.45,5.8 -0.35,0.65 -0.75,1.2 -1.25,1.75 l 0,-0.025 0,0.125 c 0.05,0.25 0.1,0.35 0.15,0.4 -0.05,-0.2 0,-0.1 0.1,0.25 0.1,0.2 0.15,0.35 0.2,0.55 0.2,0.8 0.4,1.45 0.6,2 0.15,0.4 0.35,0.7 0.5,0.85 0,0.05 0.05,-0.05 0.1,-0.1 l -0.025,0 0.05,0.175 0,0.025 0.025,0 0.3,-0.05 -0.3,0.1 -0.025,0 0.025,0.05 c 0.05,0 0.05,0 0.1,0 1.55,-0.65 3,-1.55 4.35,-2.8 1.35,-1.3 2.3,-2.1 2.75,-2.35 -0.1,-0.15 -0.2,-0.3 -0.25,-0.5 -0.25,-0.45 -0.35,-0.85 -0.35,-1.25 -0.05,-0.4 0.25,-1.85 0.8,-4.3 0.55,-2.5 0.85,-4.3 0.85,-5.45 0,-0.3 -0.2,-1.45 -0.55,-3.45 -0.35,-1.85 -0.5,-2.85 -0.45,-2.9 -0.15,-0.15 -0.5,-0.4 -1.15,-0.7 l -0.2,-0.2 c -1.15,0 -2.15,0.35 -3,1 z"
           inkscape:connector-curvature="0"
           style="fill:#510b0f" />
        <path
           id="path131"
           d="m -33.475,-19.9 -0.025,-0.05 c -0.05,0.1 -0.05,0.2 -0.1,0.35 -0.85,2.55 -0.45,4.9 1.2,7.05 3.25,4.25 7.6,7 13,8.25 l 0.45,0 -0.325,-0.2 0.075,-0.1 c -0.05,0.05 -0.15,0.05 -0.2,0.1 -0.15,-0.05 -0.25,-0.05 -0.4,-0.1 -1.05,-0.5 -2.25,-1.25 -3.6,-2.2 -0.35,-0.2 -0.65,-0.45 -1.25,-0.9 -0.6,-0.4 -1.2,-0.95 -1.95,-1.7 -0.4,-0.35 -0.95,-0.95 -1.5,-1.6 -1.55,-1.8 -2.85,-3.7 -3.9,-5.7 -0.55,-1.05 -1,-2.05 -1.45,-3.1 0.05,-0.05 0.05,-0.15 0.05,-0.2 l -0.05,0 c 0,0.05 0,0.05 0,0.1 m 22.8,14.3 0.2,-0.3 c -0.05,0.1 -0.1,0.2 -0.15,0.3 l -0.05,0 z"
           inkscape:connector-curvature="0"
           style="fill:#5b0d11" />
      </g>
      <g
         id="element13">
        <g
           id="drawingObject44">
          <path
             id="path141"
             d="m 5.707,-19.595 c -0.156,-0.371 -1.002,-0.876 -1.668,0.051 q -0.296,0.367 -0.076,1.048 0.258,0.786 0.945,0.517 c 1.053,-0.377 0.962,-1.294 0.799,-1.616 z"
             inkscape:connector-curvature="0"
             style="fill:#bb8b36" />
        </g>
        <g
           id="drawingObject45">
          <path
             id="path142"
             d="M 5.485,-19.42 C 5.447,-19.526 5.14,-20.318 4.312,-19.713 q -0.39,0.305 -0.319,0.969 0.065,0.713 0.647,0.481 c 0.948,-0.339 0.877,-1.002 0.845,-1.157 z"
             inkscape:connector-curvature="0"
             style="fill:#fcbb49" />
        </g>
        <g
           id="drawingObject46">
          <path
             id="path143"
             d="m 4.649,-19.169 c 0.31,-0.063 0.387,-0.708 -0.095,-0.464 q -0.161,0.081 -0.136,0.285 0.026,0.205 0.231,0.179 z"
             inkscape:connector-curvature="0"
             style="fill:#fde2ac" />
        </g>
        <g
           id="drawingObject47">
          <path
             id="path144"
             d="m 3.282,-15.355 c -0.157,-0.372 -0.941,-0.97 -1.694,-0.154 q -0.29,0.317 -0.175,1.036 0.108,0.769 0.833,0.604 c 1.134,-0.215 1.143,-1.121 1.036,-1.486 z"
             inkscape:connector-curvature="0"
             style="fill:#bb8b36" />
        </g>
        <g
           id="drawingObject48">
          <path
             id="path145"
             d="m 3.01,-15.187 c 0.018,-0.149 -0.24,-0.935 -1.106,-0.435 q -0.433,0.25 -0.461,0.901 -0.035,0.701 0.585,0.574 c 0.985,-0.234 1.013,-0.885 0.982,-1.04 z"
             inkscape:connector-curvature="0"
             style="fill:#fcbb49" />
        </g>
        <g
           id="drawingObject49">
          <path
             id="path146"
             d="m 2.191,-15.084 c 0.249,0.03 0.481,-0.647 -0.045,-0.459 q -0.21,0.076 -0.185,0.28 0.026,0.205 0.23,0.179 z"
             inkscape:connector-curvature="0"
             style="fill:#fde2ac" />
        </g>
        <g
           id="drawingObject50">
          <path
             id="path147"
             d="m -0.131,-11.285 c -0.057,-0.36 -0.668,-1.138 -1.608,-0.446 q -0.383,0.256 -0.417,0.957 0.003,0.806 0.76,0.796 c 1.11,-0.017 1.317,-0.898 1.265,-1.307 z"
             inkscape:connector-curvature="0"
             style="fill:#bb8b36" />
        </g>
        <g
           id="drawingObject51">
          <path
             id="path148"
             d="m -0.397,-11.166 c 0.012,-0.099 -0.035,-0.961 -0.976,-0.672 q -0.526,0.188 -0.66,0.877 -0.177,0.633 0.474,0.662 c 1.011,-0.029 1.144,-0.718 1.162,-0.867 z"
             inkscape:connector-curvature="0"
             style="fill:#fcbb49" />
        </g>
        <g
           id="drawingObject52">
          <path
             id="path149"
             d="m -1.246,-11.218 c 0.291,0.085 0.617,-0.53 0.053,-0.447 q -0.204,0.025 -0.228,0.224 -0.024,0.199 0.175,0.223 z"
             inkscape:connector-curvature="0"
             style="fill:#fde2ac" />
        </g>
      </g>
      <g
         id="element14">
        <g
           id="drawingObject53">
          <path
             id="path150"
             d="m 4.951,-22.699 c 1.1,1.55 1.85,2.3 1.85,2.3 0,0 -1.6,-3.75 -3.85,-7.15 -2.25,-3.4 -5.25,-6.1 -5.25,-6.1 l 1.8,1.8 -1.8,-1.8 q -0.1,-0.65 -1.75,-0.65 c -1.65,0 -2.65,0.6 -2.65,0.6 l 0.7,-0.3 -0.7,0.3 0.55,0.95 -0.55,-0.95 c 0,0 0.75,1.75 2.25,2.4 1.5,0.65 3.65,2.1 4.55,3.25 0.95,1.15 3.75,3.75 4.85,5.35 z"
             inkscape:connector-curvature="0"
             style="fill:#97141e" />
        </g>
        <g
           id="drawingObject54">
          <path
             id="path151"
             d="m 4.951,-22.699 c 1.1,1.55 1.85,2.3 1.85,2.3 0,0 -1.2,-2.75 -2.95,-5.75 -0.6,-0.7 -1.4,-1.55 -2.4,-2.4 q -1.3,-1.1 -3.15,-2.5 -1.9,-1.4 -2.6,-2 c -0.55,-0.45 -0.7,-0.85 -0.65,-1.2 -1.1,0.15 -1.75,0.55 -1.75,0.55 l 0.45,-0.2 -0.45,0.2 0.55,0.95 -0.55,-0.95 c 0,0 0.75,1.75 2.25,2.4 1.5,0.65 3.65,2.1 4.55,3.25 0.95,1.15 3.75,3.75 4.85,5.35 z"
             inkscape:connector-curvature="0"
             style="fill:#314582" />
        </g>
      </g>
      <animate
         attributeName="display"
         begin="0s"
         repeatCount="1"
         dur="0.5s"
         keyTimes="0;0.667;1"
         values="none;inline;none"
         id="animate7249" />
    </g>
    <g
       id="coatCloseC006_2_198">
      <g
         id="element9">
        <path
           id="path89"
           d="m 6.1,-21.4 q 0.005,-0.659 -0.25,-0.925 l 0,0.025 C 5.6,-22.55 5.3,-22.8 4.9,-23.1 c -0.15,0.75 -0.25,1.5 -0.25,2.2 -0.55,1.15 -1.2,2.45 -2,3.9 -0.85,1.35 -1.75,2.75 -2.8,4.1 -0.05,0.05 -0.1,0.15 -0.05,0.3 l -0.025,-0.025 -0.2,0 0.025,0.025 c -0.35,0.35 -0.65,0.75 -0.95,1.15 -0.1,0.05 -0.2,0.15 -0.25,0.25 l -0.025,0 0.05,0.05 0,0.05 0.025,0 c -0.05,-0.05 -0.15,-0.15 -0.2,-0.2 -0.45,0.25 -1.4,1.05 -2.75,2.35 -1.35,1.25 -2.8,2.15 -4.35,2.8 -0.05,0 -0.05,0 -0.1,0 l -0.025,-0.05 0.025,0 -0.025,-0.025 0,-0.025 -1.575,0.65 -0.05,0 -0.05,0 -2.3,0.7 c -1.25,0.35 -3.6,0.75 -7.1,1.2 -0.05,0 -0.1,0 -0.15,0 0.05,0 0.15,0 0.2,0 2,0.3 3.65,0.4 4.9,0.3 1.25,-0.15 2.35,-0.25 3.2,-0.4 0.85,-0.15 1.3,-0.25 1.35,-0.25 3.05,-0.5 5.9,-1.95 8.5,-4.3 2.6,-2.4 4.4,-4.3 5.4,-5.7 1,-1.45 1.75,-2.8 2.3,-4.1 0.5,-1.35 0.8,-2.15 0.85,-2.5 -0.25,-0.25 -0.4,-0.5 -0.4,-0.75 z M -9,-6.45 c -0.05,0.05 -0.1,0.15 -0.1,0.1 l -0.025,0 0.025,-0.025 0,0.025 c 0,0 0.05,0 0.1,0.05 l -0.025,0 0.025,0 0.025,0.025 -0.05,-0.175 z"
           inkscape:connector-curvature="0"
           style="fill:#263667" />
        <path
           id="path90"
           d="m 4.65,-20.9 c 0,-0.7 0.1,-1.45 0.25,-2.2 l 0,-0.05 -0.05,-0.15 c -1.75,-2.55 -3.4,-4.9 -5,-7.1 -1.45,-1.95 -2.2,-2.95 -2.3,-2.95 -0.35,0 -0.85,0.1 -1.5,0.3 -0.65,0.15 -1.1,0.25 -1.3,0.25 0.65,0.7 0.95,1.2 1,1.45 0.55,0.65 0.85,1.05 0.85,1.2 -1.8,-0.55 -3.55,-0.45 -5.3,0.25 0.3,0.35 0.8,1.45 1.45,3.3 0,-0.95 0.4,-1.8 1.2,-2.45 0.85,-0.65 1.85,-1 3,-1 l 0,-0.05 0.2,0.25 c 0.65,0.3 1,0.55 1.15,0.7 -0.05,0.05 0.1,1.05 0.45,2.9 0.35,2 0.55,3.15 0.55,3.45 0,1.15 -0.3,2.95 -0.85,5.45 -0.55,2.45 -0.85,3.9 -0.8,4.3 0,0.4 0.1,0.8 0.35,1.25 0.05,0.2 0.15,0.35 0.25,0.5 0.05,0.05 0.15,0.15 0.2,0.2 l -0.025,0 0,-0.05 -0.05,-0.05 0.025,0 c 0.05,-0.1 0.15,-0.2 0.25,-0.25 0.3,-0.4 0.6,-0.8 0.95,-1.15 l -0.025,-0.025 -0.625,0 0,0.025 c -0.2,-0.45 -0.3,-0.95 -0.3,-1.55 0,-0.35 0.4,-1.2 1.25,-2.45 0,-0.9 -0.25,-2.05 -0.7,-3.45 -0.15,-1 0.7,-1.7 2.45,-2.05 l -0.025,0 -0.225,-0.05 c -0.95,-0.35 -1.5,-1.4 -1.65,-3.1 -0.25,-1.95 -0.6,-3.15 -1.15,-3.6 l -0.025,0 0.25,0.15 0.025,0 c 0.45,0.25 0.85,0.85 1.2,1.8 0.35,1 0.75,1.7 1.3,2.05 0.45,0.25 1.1,0.9 1.95,1.95 0.8,0.95 1.25,1.65 1.35,2 z m -2,3.9 c -0.45,0.35 -1,0.65 -1.65,0.85 -0.5,0.15 -0.85,0.2 -1,0.2 0,1.15 -0.05,2.2 -0.15,3.05 1.05,-1.35 1.95,-2.75 2.8,-4.1 z M -25.8,-5.55 c 0.55,0.25 1.35,0.55 2.4,1 0.4,0.15 1.45,0.45 3.2,0.8 l 0.025,0 0.025,0 c 0,0 0,0 0.05,0.05 l 0,-0.025 0.025,0 0.025,0.025 c 3.5,-0.45 5.85,-0.85 7.1,-1.2 l 2.3,-0.7 0.2,-0.3 c -0.05,0.1 -0.1,0.2 -0.15,0.3 l 0.05,0 1.575,-0.65 0,-0.025 L -9,-6.3 l -0.025,0 0.025,0 c -0.05,-0.05 -0.1,-0.05 -0.1,-0.05 l -0.025,0 0.025,-0.025 0,0.025 C -9.25,-6.5 -9.45,-6.8 -9.6,-7.2 c -0.2,-0.55 -0.4,-1.2 -0.6,-2 -0.05,-0.2 -0.1,-0.35 -0.2,-0.55 -0.1,-0.35 -0.15,-0.45 -0.1,-0.25 -0.05,-0.05 -0.1,-0.15 -0.15,-0.4 l 0,-0.125 0,0.025 c -0.6,0.65 -1.15,1.25 -1.65,1.8 -0.5,0.5 -1.95,0.8 -4.4,0.95 l -13.325,-0.6 0.025,0 c -0.15,0 -0.25,0 -0.35,-0.05 0.15,0.05 0.3,0.1 0.45,0.15 0,0 0,0 0.05,0.05 l -0.025,0 0.025,0 c 1.1,0.85 1.9,1.4 2.4,1.75 0.5,0.35 1.05,0.65 1.65,0.9 z m 16.85,-0.7 -0.025,0 0,0.025 0.025,0.025 0.3,-0.1 -0.3,0.05 z"
           inkscape:connector-curvature="0"
           style="fill:#721016" />
        <path
           id="path91"
           d="M 4.65,-20.9 C 4.55,-21.25 4.1,-21.95 3.3,-22.9 2.45,-23.95 1.8,-24.6 1.35,-24.85 0.8,-25.2 0.4,-25.9 0.05,-26.9 c -0.35,-0.95 -0.75,-1.55 -1.2,-1.8 l -0.025,0 -0.25,-0.15 0.025,0 c 0.55,0.45 0.9,1.65 1.15,3.6 0.15,1.7 0.7,2.75 1.65,3.1 l 0.225,0.05 0.025,0 c -1.75,0.35 -2.6,1.05 -2.45,2.05 0.45,1.4 0.7,2.55 0.7,3.45 -0.85,1.25 -1.25,2.1 -1.25,2.45 0,0.6 0.1,1.1 0.3,1.55 l 0,-0.025 0.625,0 0.2,0 0.025,0.025 c -0.05,-0.15 0,-0.25 0.05,-0.3 0.1,-0.85 0.15,-1.9 0.15,-3.05 0.15,0 0.5,-0.05 1,-0.2 0.65,-0.2 1.2,-0.5 1.65,-0.85 0.8,-1.45 1.45,-2.75 2,-3.9 z M -5.5,-31.3 c -1.1,0 -2.2,0.05 -3.25,0.1 l -0.025,-0.025 0.125,0.2 0,0.025 c -0.15,-0.05 -0.3,0.05 -0.55,0.3 0.4,0.3 0.55,0.55 0.5,0.8 1.75,-0.7 3.5,-0.8 5.3,-0.25 0,-0.15 -0.3,-0.55 -0.85,-1.2 -0.15,0 -0.6,0 -1.25,0.05 z"
           inkscape:connector-curvature="0"
           style="fill:#8a131b" />
        <path
           id="path96"
           d="m -8.75,-31.2 c 1.05,-0.05 2.15,-0.1 3.25,-0.1 0.65,-0.05 1.1,-0.05 1.25,-0.05 -0.05,-0.25 -0.35,-0.75 -1,-1.45 -1.05,0.25 -2.2,0.8 -3.5,1.6 z"
           inkscape:connector-curvature="0"
           style="fill:#bd1a26" />
        <path
           id="path97"
           d="m -6.05,-29.05 c -0.8,0.65 -1.2,1.5 -1.2,2.45 0.2,2.35 0,4.8 -0.55,7.25 -0.6,2.45 -0.9,3.8 -0.9,4.05 -0.05,0.25 -0.7,1.85 -1.95,4.8 l 0,-0.025 0,0.125 c 0.05,0.25 0.1,0.35 0.15,0.4 -0.05,-0.2 0,-0.1 0.1,0.25 0.1,0.2 0.15,0.35 0.2,0.55 0.2,0.8 0.4,1.45 0.6,2 0.15,0.4 0.35,0.7 0.5,0.85 0,0.05 0.05,-0.05 0.1,-0.1 l -0.025,0 0.05,0.175 0,0.025 0.025,0 0.3,-0.05 -0.3,0.1 -0.025,0 0.025,0.05 c 0.05,0 0.05,0 0.1,0 1.55,-0.65 3,-1.55 4.35,-2.8 1.35,-1.3 2.3,-2.1 2.75,-2.35 -0.1,-0.15 -0.2,-0.3 -0.25,-0.5 -0.25,-0.45 -0.35,-0.85 -0.35,-1.25 -0.05,-0.4 0.25,-1.85 0.8,-4.3 0.55,-2.5 0.85,-4.3 0.85,-5.45 0,-0.3 -0.2,-1.45 -0.55,-3.45 -0.35,-1.85 -0.5,-2.85 -0.45,-2.9 -0.15,-0.15 -0.5,-0.4 -1.15,-0.7 l -0.2,-0.2 c -1.15,0 -2.15,0.35 -3,1 z"
           inkscape:connector-curvature="0"
           style="fill:#510b0f" />
        <path
           id="path101"
           d="m -23.4,-4.55 c -1.05,-0.45 -1.85,-0.75 -2.4,-1 -0.6,-0.25 -1.15,-0.55 -1.65,-0.9 -0.5,-0.35 -1.3,-0.9 -2.4,-1.75 l -0.025,0 0.025,0 c -0.05,-0.05 -0.05,-0.05 -0.05,-0.05 -0.15,-0.05 -0.3,-0.1 -0.45,-0.15 0.1,0.05 0.2,0.05 0.35,0.05 -0.05,-0.05 -0.15,-0.1 -0.2,-0.15 -1.35,-1 -2.5,-1.95 -3.55,-2.85 -1.1,-0.85 -2.15,-1.5 -3.2,-1.85 -0.05,1.05 1.2,2.7 3.8,4.9 2.55,2.15 7.25,3.75 14.1,4.8 -0.35,-0.05 -0.65,-0.15 -0.95,-0.2 -0.05,0 -0.15,0 -0.2,0 0.05,0 0.1,0 0.15,0 l -0.025,-0.025 -0.025,0 0,0.025 c -0.05,-0.05 -0.05,-0.05 -0.05,-0.05 l -0.025,0 -0.025,0 c -1.75,-0.35 -2.8,-0.65 -3.2,-0.8 z m 12.75,-1.05 0.2,-0.3 c -0.05,0.1 -0.1,0.2 -0.15,0.3 l -0.05,0 z"
           inkscape:connector-curvature="0"
           style="fill:#5b0d11" />
        <path
           id="path109"
           d="m -36.25,-13.325 0,0.025 m -0.25,0 c 0.15,0 0.2,0 0.25,0 l -0.275,0"
           inkscape:connector-curvature="0"
           style="fill:#5b0d11" />
      </g>
      <g
         id="element10">
        <g
           id="drawingObject33">
          <path
             id="path110"
             d="m 5.707,-19.595 c -0.156,-0.371 -1.002,-0.876 -1.668,0.051 q -0.296,0.367 -0.076,1.048 0.258,0.786 0.945,0.517 c 1.053,-0.377 0.962,-1.294 0.799,-1.616 z"
             inkscape:connector-curvature="0"
             style="fill:#bb8b36" />
        </g>
        <g
           id="drawingObject34">
          <path
             id="path111"
             d="M 5.485,-19.42 C 5.447,-19.526 5.14,-20.318 4.312,-19.713 q -0.39,0.305 -0.319,0.969 0.065,0.713 0.647,0.481 c 0.948,-0.339 0.877,-1.002 0.845,-1.157 z"
             inkscape:connector-curvature="0"
             style="fill:#fcbb49" />
        </g>
        <g
           id="drawingObject35">
          <path
             id="path112"
             d="m 4.649,-19.169 c 0.31,-0.063 0.387,-0.708 -0.095,-0.464 q -0.161,0.081 -0.136,0.285 0.026,0.205 0.231,0.179 z"
             inkscape:connector-curvature="0"
             style="fill:#fde2ac" />
        </g>
        <g
           id="drawingObject36">
          <path
             id="path113"
             d="m 3.282,-15.355 c -0.157,-0.372 -0.941,-0.97 -1.694,-0.154 q -0.29,0.317 -0.175,1.036 0.108,0.769 0.833,0.604 c 1.134,-0.215 1.143,-1.121 1.036,-1.486 z"
             inkscape:connector-curvature="0"
             style="fill:#bb8b36" />
        </g>
        <g
           id="drawingObject37">
          <path
             id="path114"
             d="m 3.01,-15.187 c 0.018,-0.149 -0.24,-0.935 -1.106,-0.435 q -0.433,0.25 -0.461,0.901 -0.035,0.701 0.585,0.574 c 0.985,-0.234 1.013,-0.885 0.982,-1.04 z"
             inkscape:connector-curvature="0"
             style="fill:#fcbb49" />
        </g>
        <g
           id="drawingObject38">
          <path
             id="path115"
             d="m 2.191,-15.084 c 0.249,0.03 0.481,-0.647 -0.045,-0.459 q -0.21,0.076 -0.185,0.28 0.026,0.205 0.23,0.179 z"
             inkscape:connector-curvature="0"
             style="fill:#fde2ac" />
        </g>
        <g
           id="drawingObject39">
          <path
             id="path116"
             d="m -0.131,-11.285 c -0.057,-0.36 -0.668,-1.138 -1.608,-0.446 q -0.383,0.256 -0.417,0.957 0.003,0.806 0.76,0.796 c 1.11,-0.017 1.317,-0.898 1.265,-1.307 z"
             inkscape:connector-curvature="0"
             style="fill:#bb8b36" />
        </g>
        <g
           id="drawingObject40">
          <path
             id="path117"
             d="m -0.397,-11.166 c 0.012,-0.099 -0.035,-0.961 -0.976,-0.672 q -0.526,0.188 -0.66,0.877 -0.177,0.633 0.474,0.662 c 1.011,-0.029 1.144,-0.718 1.162,-0.867 z"
             inkscape:connector-curvature="0"
             style="fill:#fcbb49" />
        </g>
        <g
           id="drawingObject41">
          <path
             id="path118"
             d="m -1.246,-11.218 c 0.291,0.085 0.617,-0.53 0.053,-0.447 q -0.204,0.025 -0.228,0.224 -0.024,0.199 0.175,0.223 z"
             inkscape:connector-curvature="0"
             style="fill:#fde2ac" />
        </g>
      </g>
      <g
         id="element11">
        <g
           id="drawingObject42">
          <path
             id="path119"
             d="m 4.951,-22.699 c 1.1,1.55 1.85,2.3 1.85,2.3 0,0 -1.6,-3.75 -3.85,-7.15 -2.25,-3.4 -5.25,-6.1 -5.25,-6.1 l 1.8,1.8 -1.8,-1.8 q -0.1,-0.65 -1.75,-0.65 c -1.65,0 -2.65,0.6 -2.65,0.6 l 0.7,-0.3 -0.7,0.3 0.55,0.95 -0.55,-0.95 c 0,0 0.75,1.75 2.25,2.4 1.5,0.65 3.65,2.1 4.55,3.25 0.95,1.15 3.75,3.75 4.85,5.35 z"
             inkscape:connector-curvature="0"
             style="fill:#97141e" />
        </g>
        <g
           id="drawingObject43">
          <path
             id="path120"
             d="m 4.951,-22.699 c 1.1,1.55 1.85,2.3 1.85,2.3 0,0 -1.2,-2.75 -2.95,-5.75 -0.6,-0.7 -1.4,-1.55 -2.4,-2.4 q -1.3,-1.1 -3.15,-2.5 -1.9,-1.4 -2.6,-2 c -0.55,-0.45 -0.7,-0.85 -0.65,-1.2 -1.1,0.15 -1.75,0.55 -1.75,0.55 l 0.45,-0.2 -0.45,0.2 0.55,0.95 -0.55,-0.95 c 0,0 0.75,1.75 2.25,2.4 1.5,0.65 3.65,2.1 4.55,3.25 0.95,1.15 3.75,3.75 4.85,5.35 z"
             inkscape:connector-curvature="0"
             style="fill:#314582" />
        </g>
      </g>
      <animate
         attributeName="display"
         begin="0s"
         repeatCount="1"
         dur="0.5s"
         keyTimes="0;0.5;0.667;1"
         values="none;inline;none;none"
         id="animate7284" />
    </g>
    <g
       id="coatCloseC006_2_196">
      <g
         id="element6">
        <path
           id="path61"
           d="m 6.1,-21.4 q 0.005,-0.659 -0.25,-0.925 l 0,0.025 C 5.6,-22.55 5.3,-22.8 4.9,-23.1 c -0.15,0.75 -0.25,1.5 -0.25,2.2 -0.55,1.15 -1.2,2.45 -2,3.9 -0.85,1.35 -1.75,2.75 -2.8,4.1 -0.05,0.05 -0.1,0.15 -0.05,0.3 l -0.025,-0.025 -0.2,0 0.025,0.025 c -0.35,0.35 -0.65,0.75 -0.95,1.15 -0.1,0.05 -0.2,0.15 -0.25,0.25 l -0.025,0 0.05,0.05 0,0.05 0.025,0 c -0.05,-0.05 -0.15,-0.15 -0.2,-0.2 -0.45,0.25 -1.4,1.05 -2.75,2.35 -1.35,1.25 -2.8,2.15 -4.35,2.8 -0.05,0 -0.05,0 -0.1,0 l -0.025,-0.05 0.025,0 -0.025,-0.025 0,-0.025 -1.575,0.65 c -0.15,0.05 -0.25,0.05 -0.4,0.1 -0.05,0 -0.15,0.05 -0.2,0.15 -0.1,0.05 -1.85,0.35 -5.3,0.9 -3.45,0.55 -9.75,0.25 -18.8,-0.8 -0.25,-0.15 -0.55,-0.25 -0.85,-0.3 0.6,-0.4 2.15,-1 4.35,-1.65 -0.05,-0.05 -0.05,-0.05 -0.05,-0.05 -2.3,0.35 -4.05,0.75 -5.05,1.15 -0.55,0.2 -1.1,0.45 -1.6,0.75 -0.15,0.1 -0.25,0.2 -0.25,0.2 -0.3,0.05 -0.55,0.2 -0.7,0.4 0.15,-0.05 0.35,-0.05 0.6,0 0.05,0.05 0.05,0.05 0.1,0.05 0.15,0 0.7,0.05 1.75,0.2 1.05,0.15 2.6,0.35 4.75,0.6 2.15,0.25 5.1,0.5 8.85,0.8 3.75,0.3 7.85,0 12.4,-0.95 l 0,0.1 c 0.95,-0.3 1.9,-0.7 2.5,-0.9 C -8.3,-4.9 -8.2,-4.95 -8.1,-5 l -0.05,0 c 2.15,-1 4,-2.2 5.85,-3.7 2.8,-2.35 4.7,-4.15 5.7,-5.5 0.95,-1.35 1.7,-2.7 2.25,-3.95 0.5,-1.35 0.8,-2.15 0.85,-2.5 -0.25,-0.25 -0.4,-0.5 -0.4,-0.75 z M -9,-6.45 c -0.05,0.05 -0.1,0.15 -0.1,0.1 l -0.025,0 0.025,-0.025 0,0.025 c 0,0 0.05,0 0.1,0.05 l -0.025,0 0.025,0 0.025,0.025 -0.05,-0.175 z"
           inkscape:connector-curvature="0"
           style="fill:#263667" />
        <path
           id="path63"
           d="m 4.65,-20.9 c 0,-0.7 0.1,-1.45 0.25,-2.2 l 0,-0.05 -0.05,-0.15 c -1.75,-2.55 -3.4,-4.9 -5,-7.1 -1.45,-1.95 -2.2,-2.95 -2.3,-2.95 -0.35,0 -0.85,0.1 -1.5,0.3 -0.65,0.15 -1.1,0.25 -1.3,0.25 0.65,0.7 0.95,1.2 1,1.45 0.55,0.65 0.85,1.05 0.85,1.2 -1.8,-0.55 -3.55,-0.45 -5.3,0.25 0.3,0.35 0.8,1.45 1.45,3.3 0,-0.95 0.4,-1.8 1.2,-2.45 0.85,-0.65 1.85,-1 3,-1 l 0,-0.05 0.2,0.25 c 0.65,0.3 1,0.55 1.15,0.7 -0.05,0.05 0.1,1.05 0.45,2.9 0.35,2 0.55,3.15 0.55,3.45 0,1.15 -0.3,2.95 -0.85,5.45 -0.55,2.45 -0.85,3.9 -0.8,4.3 0,0.4 0.1,0.8 0.35,1.25 0.05,0.2 0.15,0.35 0.25,0.5 0.05,0.05 0.15,0.15 0.2,0.2 l -0.025,0 0,-0.05 -0.05,-0.05 0.025,0 c 0.05,-0.1 0.15,-0.2 0.25,-0.25 0.3,-0.4 0.6,-0.8 0.95,-1.15 l -0.025,-0.025 -0.625,0 0,0.025 c -0.2,-0.45 -0.3,-0.95 -0.3,-1.55 0,-0.35 0.4,-1.2 1.25,-2.45 0,-0.9 -0.25,-2.05 -0.7,-3.45 -0.15,-1 0.7,-1.7 2.45,-2.05 l -0.025,0 -0.225,-0.05 c -0.95,-0.35 -1.5,-1.4 -1.65,-3.1 -0.25,-1.95 -0.6,-3.15 -1.15,-3.6 l -0.025,0 0.25,0.15 0.025,0 c 0.45,0.25 0.85,0.85 1.2,1.8 0.35,1 0.75,1.7 1.3,2.05 0.45,0.25 1.1,0.9 1.95,1.95 0.8,0.95 1.25,1.65 1.35,2 z m -2,3.9 c -0.45,0.35 -1,0.65 -1.65,0.85 -0.5,0.15 -0.85,0.2 -1,0.2 0,1.15 -0.05,2.2 -0.15,3.05 1.05,-1.35 1.95,-2.75 2.8,-4.1 z m -34.45,9.75 c 0,0 0,0 0.05,0.05 -2.2,0.65 -3.75,1.25 -4.35,1.65 0.3,0.05 0.6,0.15 0.85,0.3 9.05,1.05 15.35,1.35 18.8,0.8 3.45,-0.55 5.2,-0.85 5.3,-0.9 0.05,-0.1 0.15,-0.15 0.2,-0.15 0.15,-0.05 0.25,-0.05 0.4,-0.1 l 1.575,-0.65 0,-0.025 L -9,-6.3 l -0.025,0 0.025,0 c -0.05,-0.05 -0.1,-0.05 -0.1,-0.05 l -0.025,0 0.025,-0.025 0,0.025 C -9.25,-6.5 -9.45,-6.8 -9.6,-7.2 c -0.2,-0.55 -0.4,-1.2 -0.6,-2 -0.25,-0.8 -0.35,-1.05 -0.3,-0.8 -0.05,-0.05 -0.1,-0.2 -0.15,-0.45 -0.05,-0.05 -0.05,-0.05 -0.05,-0.05 0,0.05 0,0.15 0.05,0.2 0.05,0.05 -0.05,0.2 -0.3,0.45 -0.25,0.2 -0.75,0.6 -1.4,1.15 -0.75,0.55 -2,1.15 -3.75,1.9 -1.75,0.7 -4.4,0.75 -7.85,0.15 -3.45,-0.6 -6.15,-0.85 -8.05,-0.7 0.05,0.05 0.15,0.05 0.2,0.1 z m 22.85,1 -0.025,0 0,0.025 0.025,0.025 0.3,-0.1 -0.3,0.05 z"
           inkscape:connector-curvature="0"
           style="fill:#721016" />
        <path
           id="path64"
           d="m 1.4,-22.15 0.225,0.05 0.025,0 c -1.75,0.35 -2.6,1.05 -2.45,2.05 0.45,1.4 0.7,2.55 0.7,3.45 -0.85,1.25 -1.25,2.1 -1.25,2.45 0,0.6 0.1,1.1 0.3,1.55 l 0,-0.025 0.625,0 0.2,0 0.025,0.025 c -0.05,-0.15 0,-0.25 0.05,-0.3 0.1,-0.85 0.15,-1.9 0.15,-3.05 0.15,0 0.5,-0.05 1,-0.2 0.65,-0.2 1.2,-0.5 1.65,-0.85 0.8,-1.45 1.45,-2.75 2,-3.9 -0.1,-0.35 -0.55,-1.05 -1.35,-2 -0.85,-1.05 -1.5,-1.7 -1.95,-1.95 -0.55,-0.35 -0.95,-1.05 -1.3,-2.05 -0.35,-0.95 -0.75,-1.55 -1.2,-1.8 l -0.025,0 -0.25,-0.15 0.025,0 c 0.55,0.45 0.9,1.65 1.15,3.6 0.15,1.7 0.7,2.75 1.65,3.1 z m -6.9,-9.15 c -1.1,0 -2.2,0.05 -3.25,0.1 l -0.025,-0.025 0.125,0.2 0,0.025 c -0.15,-0.05 -0.3,0.05 -0.55,0.3 0.4,0.3 0.55,0.55 0.5,0.8 1.75,-0.7 3.5,-0.8 5.3,-0.25 0,-0.15 -0.3,-0.55 -0.85,-1.2 -0.15,0 -0.6,0 -1.25,0.05 z"
           inkscape:connector-curvature="0"
           style="fill:#8a131b" />
        <path
           id="path69"
           d="m -8.75,-31.2 c 1.05,-0.05 2.15,-0.1 3.25,-0.1 0.65,-0.05 1.1,-0.05 1.25,-0.05 -0.05,-0.25 -0.35,-0.75 -1,-1.45 -1.05,0.25 -2.2,0.8 -3.5,1.6 z"
           inkscape:connector-curvature="0"
           style="fill:#bd1a26" />
        <path
           id="path70"
           d="m -6.05,-29.05 c -0.8,0.65 -1.2,1.5 -1.2,2.45 0.25,2.35 0,5.2 -0.65,8.55 -0.6,2.55 -1.5,5.1 -2.75,7.6 0.05,0.25 0.1,0.4 0.15,0.45 -0.05,-0.25 0.05,0 0.3,0.8 0.2,0.8 0.4,1.45 0.6,2 0.15,0.4 0.35,0.7 0.5,0.85 0,0.05 0.05,-0.05 0.1,-0.1 l -0.025,0 0.05,0.175 0,0.025 0.025,0 0.3,-0.05 -0.3,0.1 -0.025,0 0.025,0.05 c 0.05,0 0.05,0 0.1,0 1.55,-0.65 3,-1.55 4.35,-2.8 1.35,-1.3 2.3,-2.1 2.75,-2.35 -0.1,-0.15 -0.2,-0.3 -0.25,-0.5 -0.25,-0.45 -0.35,-0.85 -0.35,-1.25 -0.05,-0.4 0.25,-1.85 0.8,-4.3 0.55,-2.5 0.85,-4.3 0.85,-5.45 0,-0.3 -0.2,-1.45 -0.55,-3.45 -0.35,-1.85 -0.5,-2.85 -0.45,-2.9 -0.15,-0.15 -0.5,-0.4 -1.15,-0.7 l -0.2,-0.2 c -1.15,0 -2.15,0.35 -3,1 z"
           inkscape:connector-curvature="0"
           style="fill:#510b0f" />
      </g>
      <g
         id="element7">
        <g
           id="drawingObject22">
          <path
             id="path78"
             d="m 5.707,-19.595 c -0.156,-0.371 -1.002,-0.876 -1.668,0.051 q -0.296,0.367 -0.076,1.048 0.258,0.786 0.945,0.517 c 1.053,-0.377 0.962,-1.294 0.799,-1.616 z"
             inkscape:connector-curvature="0"
             style="fill:#bb8b36" />
        </g>
        <g
           id="drawingObject23">
          <path
             id="path79"
             d="M 5.485,-19.42 C 5.447,-19.526 5.14,-20.318 4.312,-19.713 q -0.39,0.305 -0.319,0.969 0.065,0.713 0.647,0.481 c 0.948,-0.339 0.877,-1.002 0.845,-1.157 z"
             inkscape:connector-curvature="0"
             style="fill:#fcbb49" />
        </g>
        <g
           id="drawingObject24">
          <path
             id="path80"
             d="m 4.649,-19.169 c 0.31,-0.063 0.387,-0.708 -0.095,-0.464 q -0.161,0.081 -0.136,0.285 0.026,0.205 0.231,0.179 z"
             inkscape:connector-curvature="0"
             style="fill:#fde2ac" />
        </g>
        <g
           id="drawingObject25">
          <path
             id="path81"
             d="m 3.282,-15.355 c -0.157,-0.372 -0.941,-0.97 -1.694,-0.154 q -0.29,0.317 -0.175,1.036 0.108,0.769 0.833,0.604 c 1.134,-0.215 1.143,-1.121 1.036,-1.486 z"
             inkscape:connector-curvature="0"
             style="fill:#bb8b36" />
        </g>
        <g
           id="drawingObject26">
          <path
             id="path82"
             d="m 3.01,-15.187 c 0.018,-0.149 -0.24,-0.935 -1.106,-0.435 q -0.433,0.25 -0.461,0.901 -0.035,0.701 0.585,0.574 c 0.985,-0.234 1.013,-0.885 0.982,-1.04 z"
             inkscape:connector-curvature="0"
             style="fill:#fcbb49" />
        </g>
        <g
           id="drawingObject27">
          <path
             id="path83"
             d="m 2.191,-15.084 c 0.249,0.03 0.481,-0.647 -0.045,-0.459 q -0.21,0.076 -0.185,0.28 0.026,0.205 0.23,0.179 z"
             inkscape:connector-curvature="0"
             style="fill:#fde2ac" />
        </g>
        <g
           id="drawingObject28">
          <path
             id="path84"
             d="m -0.131,-11.285 c -0.057,-0.36 -0.668,-1.138 -1.608,-0.446 q -0.383,0.256 -0.417,0.957 0.003,0.806 0.76,0.796 c 1.11,-0.017 1.317,-0.898 1.265,-1.307 z"
             inkscape:connector-curvature="0"
             style="fill:#bb8b36" />
        </g>
        <g
           id="drawingObject29">
          <path
             id="path85"
             d="m -0.397,-11.166 c 0.012,-0.099 -0.035,-0.961 -0.976,-0.672 q -0.526,0.188 -0.66,0.877 -0.177,0.633 0.474,0.662 c 1.011,-0.029 1.144,-0.718 1.162,-0.867 z"
             inkscape:connector-curvature="0"
             style="fill:#fcbb49" />
        </g>
        <g
           id="drawingObject30">
          <path
             id="path86"
             d="m -1.246,-11.218 c 0.291,0.085 0.617,-0.53 0.053,-0.447 q -0.204,0.025 -0.228,0.224 -0.024,0.199 0.175,0.223 z"
             inkscape:connector-curvature="0"
             style="fill:#fde2ac" />
        </g>
      </g>
      <g
         id="element8">
        <g
           id="drawingObject31">
          <path
             id="path87"
             d="m 4.951,-22.699 c 1.1,1.55 1.85,2.3 1.85,2.3 0,0 -1.6,-3.75 -3.85,-7.15 -2.25,-3.4 -5.25,-6.1 -5.25,-6.1 l 1.8,1.8 -1.8,-1.8 q -0.1,-0.65 -1.75,-0.65 c -1.65,0 -2.65,0.6 -2.65,0.6 l 0.7,-0.3 -0.7,0.3 0.55,0.95 -0.55,-0.95 c 0,0 0.75,1.75 2.25,2.4 1.5,0.65 3.65,2.1 4.55,3.25 0.95,1.15 3.75,3.75 4.85,5.35 z"
             inkscape:connector-curvature="0"
             style="fill:#97141e" />
        </g>
        <g
           id="drawingObject32">
          <path
             id="path88"
             d="m 4.951,-22.699 c 1.1,1.55 1.85,2.3 1.85,2.3 0,0 -1.2,-2.75 -2.95,-5.75 -0.6,-0.7 -1.4,-1.55 -2.4,-2.4 q -1.3,-1.1 -3.15,-2.5 -1.9,-1.4 -2.6,-2 c -0.55,-0.45 -0.7,-0.85 -0.65,-1.2 -1.1,0.15 -1.75,0.55 -1.75,0.55 l 0.45,-0.2 -0.45,0.2 0.55,0.95 -0.55,-0.95 c 0,0 0.75,1.75 2.25,2.4 1.5,0.65 3.65,2.1 4.55,3.25 0.95,1.15 3.75,3.75 4.85,5.35 z"
             inkscape:connector-curvature="0"
             style="fill:#314582" />
        </g>
      </g>
      <animate
         attributeName="display"
         begin="0s"
         repeatCount="1"
         dur="0.5s"
         keyTimes="0;0.333;0.5;1"
         values="none;inline;none;none"
         id="animate7317" />
    </g>
    <g
       id="coatCloseC006_2_194">
      <g
         id="element3">
        <path
           id="path27"
           d="M 6.55,-20.15 C 6.65,-20.3 6.5,-20.8 6.1,-21.7 c -0.4,-0.9 -0.75,-1.55 -1.1,-2 -0.3,0.8 -0.4,1.6 -0.35,2.4 -0.75,1.25 -1.45,2.8 -2.1,4.6 -1.25,2.05 -2.6,3.55 -4.05,4.5 0.05,0.15 0,0.25 -0.05,0.4 l -0.2,0 c -0.45,0.5 -0.85,0.95 -1.3,1.3 -0.1,0.15 -0.2,0.25 -0.3,0.4 l 0.05,0.1 0,0.1 c -0.05,-0.05 -0.1,-0.1 -0.25,-0.25 -0.6,0.2 -1.3,0.65 -2.15,1.35 0,0 0,0 -0.05,0.05 l 0.2,0 c -0.05,0 -0.1,0.05 -0.15,0.1 -2.65,1.65 -4.75,2.8 -6.4,3.45 l -0.025,-0.025 -0.1,0 0.025,0.025 c -0.1,0 -0.15,0.1 -0.15,0.25 -0.25,0 -0.4,0.05 -0.5,0.15 l -0.05,0.05 -0.15,0.075 0.575,-0.425 0.125,-0.125 -1.275,0.525 0,-0.15 0.025,0 c -1.95,0.4 -3.25,0.7 -3.85,0.85 -0.7,0.15 -2.25,0.4 -4.65,0.75 -2.4,0.35 -4.2,0.65 -5.45,0.9 -1.25,0.25 -2.8,0.45 -4.65,0.6 l -4.375,1.15 0.025,0 c 1.15,-1.45 2.7,-2.55 4.6,-3.25 0,-0.05 0,-0.05 0.05,-0.05 -0.15,0.05 -0.35,0.1 -0.6,0.15 -1.05,0.2 -2.15,0.75 -3.3,1.65 -1.15,0.85 -1.9,1.5 -2.35,2.05 -0.45,0.45 -0.7,0.85 -0.8,1.15 -0.1,0.25 -0.15,0.6 -0.15,0.95 1.75,-1.4 5.55,-2.45 11.45,-3.1 5.9,-0.65 9.5,-1.1 10.8,-1.3 1.3,-0.2 2.75,-0.55 4.35,-1 3.2,-1.25 5.9,-2.5 8.35,-4 0.8,-0.5 1.55,-1 2.15,-1.45 l -0.2,0 c 2.4,-1.95 4.15,-3.45 5.2,-4.55 1.15,-1.6 2,-3.1 2.55,-4.5 0.55,-1.4 0.85,-2.15 1,-2.3 z"
           inkscape:connector-curvature="0"
           style="fill:#263667" />
        <path
           id="path28"
           d="M -36.675,-0.575 -36.9,-0.5 c 0.45,-0.7 0.55,-0.7 0.25,-0.05"
           inkscape:connector-curvature="0"
           style="fill:#721016" />
        <path
           id="path29"
           d="M 4.65,-21.3 C 4.6,-22.1 4.7,-22.9 5,-23.7 l 0,-0.05 -0.05,-0.15 c -2.1,-2.65 -3.95,-5.15 -5.5,-7.4 -1.4,-1.75 -2.15,-2.65 -2.2,-2.65 -0.4,0.05 -0.9,0.2 -1.55,0.4 -0.65,0.15 -1.05,0.25 -1.3,0.3 0.55,0.55 0.85,0.95 0.9,1.25 0.55,0.55 0.8,0.85 0.85,1 -1.8,-0.3 -3.6,0 -5.35,0.95 0.25,0.25 0.8,1.3 1.55,3.05 -0.2,-1.05 0.1,-1.95 0.9,-2.6 0.95,-0.75 2,-1.2 3.2,-1.25 l 0,-0.15 0.2,0.3 c 0.65,0.25 1,0.45 1.15,0.6 -0.05,0.05 0.1,1 0.35,2.8 0.25,2 0.35,3.2 0.3,3.6 0.05,1.25 -0.4,3.25 -1.25,6 -0.85,2.95 -1.3,4.7 -1.35,5.15 -0.05,0.45 0.1,1 0.35,1.65 0.05,0.25 0.15,0.5 0.25,0.75 0.15,0.15 0.2,0.2 0.25,0.25 l 0,-0.1 -0.05,-0.1 c 0.1,-0.15 0.2,-0.25 0.3,-0.4 0.45,-0.35 0.85,-0.8 1.3,-1.3 l -0.85,-0.05 c -0.2,-0.55 -0.25,-1.2 -0.2,-2 0.05,-0.45 0.6,-1.4 1.65,-2.85 0.15,-0.95 -0.05,-2.3 -0.65,-4.05 -0.05,-1.05 0.9,-1.7 2.85,-2.05 L 0.8,-22.85 c -0.9,-0.45 -1.45,-1.6 -1.65,-3.4 -0.15,-1.95 -0.55,-3.15 -1.1,-3.6 l 0.25,0.2 c 0.5,0.2 0.95,0.8 1.3,1.85 0.2,0.95 0.6,1.6 1.2,2.05 0.5,0.25 1.25,1 2.25,2.25 0.95,1 1.45,1.75 1.6,2.2 z m -2.1,4.6 c -0.85,0.25 -1.7,0.5 -2.45,0.65 -0.45,0.1 -0.85,0.15 -1.15,0.15 -0.05,1.45 -0.2,2.65 -0.45,3.7 1.45,-0.95 2.8,-2.45 4.05,-4.5 z m -34.65,12.9 0.125,-0.075 0.025,0.025 c -1.9,0.7 -3.45,1.8 -4.6,3.25 l -0.025,0 4.375,-1.15 c 1.85,-0.15 3.4,-0.35 4.65,-0.6 1.25,-0.25 3.05,-0.55 5.45,-0.9 2.4,-0.35 3.95,-0.6 4.65,-0.75 0.6,-0.15 1.9,-0.45 3.85,-0.85 l -0.025,0 0,0.15 1.275,-0.525 0.075,-0.075 0.025,0 c -0.1,0 0.3,-0.15 1.25,-0.5 -0.4,-0.3 -0.8,-0.65 -1.15,-1.1 -0.4,-0.45 -0.55,-1.05 -0.45,-1.85 0.05,-0.85 0.15,-1.35 0.2,-1.6 -0.15,0.2 -0.35,0.45 -0.55,0.65 -0.15,0.2 -0.3,0.35 -0.25,0.35 -0.25,0.3 -0.35,0.4 -0.45,0.5 l 0,-0.025 0.675,-0.875 -0.15,0.175 0.05,-0.075 0.625,-0.85 c -0.05,0 -0.15,0.15 -0.35,0.45 l 0,-0.025 -0.025,0.05 -0.65,0.8 -0.275,0.325 -0.05,0 c -0.15,0.25 -0.6,0.65 -1.35,1.25 -0.8,0.55 -2.2,1.25 -4.25,2 -3.8,1.05 -7.05,1.55 -9.75,1.6 l -2.95,0.25 z m 19.675,-1.225 -0.05,-0.075 -0.575,0.425 0.15,-0.075 0.05,-0.05 c 0.1,-0.1 0.25,-0.15 0.5,-0.15 l -0.025,-0.025 -0.05,-0.05 z m -0.45,-4.85 0.225,-0.225 c 0.05,-0.1 0.15,-0.2 0.25,-0.3 l -0.025,0 -0.45,0.525 z"
           inkscape:connector-curvature="0"
           style="fill:#721016" />
        <path
           id="path30"
           d="M 4.65,-21.3 C 4.5,-21.75 4,-22.5 3.05,-23.5 c -1,-1.25 -1.75,-2 -2.25,-2.25 -0.6,-0.45 -1,-1.1 -1.2,-2.05 -0.35,-1.05 -0.8,-1.65 -1.3,-1.85 l -0.25,-0.2 c 0.55,0.45 0.95,1.65 1.1,3.6 0.2,1.8 0.75,2.95 1.65,3.4 l 0.25,0.05 c -1.95,0.35 -2.9,1 -2.85,2.05 0.6,1.75 0.8,3.1 0.65,4.05 -1.05,1.45 -1.6,2.4 -1.65,2.85 -0.05,0.8 0,1.45 0.2,2 l 0.85,0.05 0.2,0 c 0.05,-0.15 0.1,-0.25 0.05,-0.4 0.25,-1.05 0.4,-2.25 0.45,-3.7 0.3,0 0.7,-0.05 1.15,-0.15 0.75,-0.15 1.6,-0.4 2.45,-0.65 0.65,-1.8 1.35,-3.35 2.1,-4.6 z m -8.5,-9.7 c -0.05,-0.15 -0.3,-0.45 -0.85,-1 -0.25,0.05 -0.65,0.15 -1.25,0.25 -1.1,0.15 -2.2,0.35 -3.25,0.6 l 0.1,0.15 c -0.1,-0.05 -0.25,0.1 -0.5,0.35 0.4,0.25 0.55,0.45 0.4,0.6 1.75,-0.95 3.55,-1.25 5.35,-0.95 z"
           inkscape:connector-curvature="0"
           style="fill:#8a131b" />
        <path
           id="path35"
           d="m -9.2,-31.15 c 1.05,-0.25 2.15,-0.45 3.25,-0.6 0.6,-0.1 1,-0.2 1.25,-0.25 -0.05,-0.3 -0.35,-0.7 -0.9,-1.25 -1.05,0.45 -2.25,1.15 -3.6,2.1 z"
           inkscape:connector-curvature="0"
           style="fill:#bd1a26" />
        <path
           id="path36"
           d="m -6.75,-29.6 c -0.8,0.65 -1.1,1.55 -0.9,2.6 0.75,2.45 0.55,5.4 -0.6,8.9 -1,2.85 -2.4,5.5 -4.15,7.75 -0.05,0.25 -0.15,0.75 -0.2,1.6 -0.1,0.8 0.05,1.4 0.45,1.85 0.35,0.45 0.75,0.8 1.15,1.1 -0.95,0.35 -1.35,0.5 -1.25,0.5 l -0.025,0 -0.075,0.075 -0.125,0.125 0.05,0.075 0.05,0.05 0.025,0.025 c 0,-0.15 0.05,-0.25 0.15,-0.25 l -0.025,-0.025 0.1,0 0.025,0.025 c 1.65,-0.65 3.75,-1.8 6.4,-3.45 0.05,-0.05 0.1,-0.1 0.15,-0.1 l -0.2,0 C -5.7,-8.8 -5.7,-8.8 -5.7,-8.8 c 0.85,-0.7 1.55,-1.15 2.15,-1.35 -0.1,-0.25 -0.2,-0.5 -0.25,-0.75 -0.25,-0.65 -0.4,-1.2 -0.35,-1.65 0.05,-0.45 0.5,-2.2 1.35,-5.15 0.85,-2.75 1.3,-4.75 1.25,-6 0.05,-0.4 -0.05,-1.6 -0.3,-3.6 -0.25,-1.8 -0.4,-2.75 -0.35,-2.8 -0.15,-0.15 -0.5,-0.35 -1.15,-0.6 l -0.2,-0.15 c -1.2,0.05 -2.25,0.5 -3.2,1.25 z m -7,20.7 0.275,-0.325 -0.325,0.325 0.05,0 z"
           inkscape:connector-curvature="0"
           style="fill:#510b0f" />
        <path
           id="path42"
           d="m -13.125,-9.575 0.15,-0.175 -0.1,0.1 -0.05,0.075"
           inkscape:connector-curvature="0"
           style="fill:#510b0f" />
        <path
           id="path47"
           d="m -12.95,-9.775 0.3,-0.325 -0.225,0.225 -0.075,0.1"
           inkscape:connector-curvature="0"
           style="fill:#510b0f" />
      </g>
      <g
         id="element4">
        <g
           id="drawingObject11">
          <path
             id="path50"
             d="m 5.769,-19.665 c -0.148,-0.375 -0.981,-0.899 -1.668,0.012 q -0.305,0.36 -0.101,1.046 0.24,0.792 0.933,0.539 c 1.061,-0.352 0.992,-1.272 0.836,-1.597 z"
             inkscape:connector-curvature="0"
             style="fill:#bb8b36" />
        </g>
        <g
           id="drawingObject12">
          <path
             id="path51"
             d="m 5.543,-19.496 c -0.035,-0.106 -0.324,-0.905 -1.166,-0.32 q -0.397,0.297 -0.341,0.962 0.049,0.714 0.636,0.495 c 0.955,-0.316 0.899,-0.981 0.871,-1.137 z"
             inkscape:connector-curvature="0"
             style="fill:#fcbb49" />
        </g>
        <g
           id="drawingObject13">
          <path
             id="path52"
             d="m 4.701,-19.264 c 0.311,-0.056 0.404,-0.699 -0.084,-0.466 q -0.163,0.077 -0.142,0.282 0.021,0.205 0.226,0.184 z"
             inkscape:connector-curvature="0"
             style="fill:#fde2ac" />
        </g>
        <g
           id="drawingObject14">
          <path
             id="path53"
             d="m 3.246,-15.483 c -0.147,-0.375 -0.917,-0.991 -1.689,-0.193 q -0.298,0.311 -0.2,1.032 0.091,0.771 0.82,0.623 c 1.138,-0.189 1.168,-1.094 1.069,-1.462 z"
             inkscape:connector-curvature="0"
             style="fill:#bb8b36" />
        </g>
        <g
           id="drawingObject15">
          <path
             id="path54"
             d="m 2.97,-15.321 c 0.022,-0.148 -0.217,-0.94 -1.095,-0.461 q -0.439,0.24 -0.482,0.891 -0.05,0.699 0.572,0.587 c 0.99,-0.211 1.034,-0.861 1.005,-1.017 z"
             inkscape:connector-curvature="0"
             style="fill:#fcbb49" />
        </g>
        <g
           id="drawingObject16">
          <path
             id="path55"
             d="m 2.15,-15.237 c 0.248,0.036 0.496,-0.636 -0.035,-0.46 q -0.212,0.071 -0.191,0.276 0.021,0.205 0.226,0.184 z"
             inkscape:connector-curvature="0"
             style="fill:#fde2ac" />
        </g>
        <g
           id="drawingObject17">
          <path
             id="path56"
             d="m -0.259,-11.493 c -0.049,-0.361 -0.642,-1.153 -1.597,-0.483 q -0.39,0.247 -0.44,0.947 -0.015,0.806 0.741,0.814 c 1.11,0.009 1.338,-0.868 1.296,-1.278 z"
             inkscape:connector-curvature="0"
             style="fill:#bb8b36" />
        </g>
        <g
           id="drawingObject18">
          <path
             id="path57"
             d="m -0.528,-11.38 c 0.014,-0.099 -0.013,-0.962 -0.961,-0.694 q -0.53,0.176 -0.679,0.861 -0.192,0.629 0.458,0.673 c 1.011,-0.006 1.161,-0.692 1.182,-0.84 z"
             inkscape:connector-curvature="0"
             style="fill:#fcbb49" />
        </g>
        <g
           id="drawingObject19">
          <path
             id="path58"
             d="m -1.376,-11.452 c 0.29,0.092 0.63,-0.515 0.064,-0.445 q -0.205,0.021 -0.234,0.219 -0.028,0.197 0.17,0.226 z"
             inkscape:connector-curvature="0"
             style="fill:#fde2ac" />
        </g>
      </g>
      <g
         id="element5">
        <g
           id="drawingObject20">
          <path
             id="path59"
             d="m 4.951,-22.699 c 1.1,1.55 1.85,2.3 1.85,2.3 0,0 -1.6,-3.75 -3.85,-7.15 -2.25,-3.4 -5.25,-6.1 -5.25,-6.1 l 1.8,1.8 -1.8,-1.8 q -0.1,-0.65 -1.75,-0.65 c -1.65,0 -2.65,0.6 -2.65,0.6 l 0.7,-0.3 -0.7,0.3 0.55,0.95 -0.55,-0.95 c 0,0 0.75,1.75 2.25,2.4 1.5,0.65 3.65,2.1 4.55,3.25 0.95,1.15 3.75,3.75 4.85,5.35 z"
             inkscape:connector-curvature="0"
             style="fill:#97141e" />
        </g>
        <g
           id="drawingObject21">
          <path
             id="path60"
             d="m 4.951,-22.699 c 1.1,1.55 1.85,2.3 1.85,2.3 0,0 -1.2,-2.75 -2.95,-5.75 -0.6,-0.7 -1.4,-1.55 -2.4,-2.4 q -1.3,-1.1 -3.15,-2.5 -1.9,-1.4 -2.6,-2 c -0.55,-0.45 -0.7,-0.85 -0.65,-1.2 -1.1,0.15 -1.75,0.55 -1.75,0.55 l 0.45,-0.2 -0.45,0.2 0.55,0.95 -0.55,-0.95 c 0,0 0.75,1.75 2.25,2.4 1.5,0.65 3.65,2.1 4.55,3.25 0.95,1.15 3.75,3.75 4.85,5.35 z"
             inkscape:connector-curvature="0"
             style="fill:#314582" />
        </g>
      </g>
      <animate
         attributeName="display"
         begin="0s"
         repeatCount="1"
         dur="0.5s"
         keyTimes="0;0.167;0.333;1"
         values="none;inline;none;none"
         id="animate7353" />
    </g>
    <g
       id="coatCloseC006_2_192">
      <g
         id="element">
        <path
           id="path"
           d="M 6.55,-20.15 C 6.65,-20.3 6.5,-20.8 6.1,-21.7 c -0.4,-0.9 -0.75,-1.55 -1.1,-2 -0.3,0.8 -0.4,1.6 -0.35,2.4 -0.75,1.25 -1.45,2.8 -2.1,4.6 -1.25,2.05 -2.6,3.55 -4.05,4.5 0.05,0.15 0,0.25 -0.05,0.4 l -0.2,0 c -0.45,0.5 -0.85,0.95 -1.3,1.3 -0.1,0.15 -0.2,0.25 -0.3,0.4 l 0.05,0.1 0,0.1 c -0.05,-0.05 -0.1,-0.1 -0.25,-0.25 -0.6,0.2 -1.3,0.65 -2.15,1.35 0,0 0,0 -0.05,0.05 l 0.2,0 c -0.05,0 -0.1,0.05 -0.15,0.1 -2.65,1.65 -4.75,2.8 -6.4,3.45 l -0.025,-0.025 -0.1,0 0.025,0.025 c -0.1,0 -0.15,0.1 -0.15,0.25 -0.25,0 -0.4,0.05 -0.5,0.15 l -0.05,0.05 -0.15,0.075 0.575,-0.425 0.2,-0.2 0.025,0 c -0.15,0 -0.2,0.05 -0.2,0.15 l -0.025,0 -3.05,1.225 0.05,-0.05 0.025,0.025 c -0.25,0 -0.4,0.05 -0.5,0.1 l -0.025,0 q -1.369,0.394 -2.325,0.775 l 0,0.025 c -3.5,1.15 -5.95,1.95 -7.35,2.5 -1.35,0.45 -3.15,1.2 -5.35,2.3 -2.25,1 -4.3,2.5 -6.15,4.55 0.25,-1.15 0.6,-2.1 1,-2.75 0.35,-0.8 0.85,-1.45 1.5,-1.9 l 0,-0.025 0.725,-0.95 -0.025,0.05 0.05,-0.05 0.025,-0.025 0.025,0 c -0.1,0 -0.2,0.05 -0.3,0.2 -1.4,1.1 -2.4,2.3 -3,3.65 -0.7,1.5 -1.1,2.6 -1.2,3.25 -0.1,0.75 -0.15,1.25 -0.2,1.55 -0.05,0.3 -0.15,0.6 -0.2,0.9 1,-1.65 2.25,-3 3.75,-4.15 1.8,-1.45 3.8,-2.7 5.95,-3.7 1.7,-0.85 3.5,-1.55 5.35,-2.05 2.15,-0.65 4.3,-1.35 6.45,-2.1 0.15,-0.1 0.4,-0.2 0.65,-0.25 l -0.025,0 -0.1,0.1 0.125,0.05 c -0.05,-0.05 -0.1,-0.05 -0.1,-0.05 l 0.075,0.05 0,-0.1 0.025,0 c 4.7,-1.4 8.85,-3.2 12.45,-5.35 0.8,-0.5 1.55,-1 2.15,-1.45 l -0.2,0 c 2.4,-1.95 4.15,-3.45 5.2,-4.55 1.15,-1.6 2,-3.1 2.55,-4.5 0.55,-1.4 0.85,-2.15 1,-2.3 z"
           inkscape:connector-curvature="0"
           style="fill:#263667" />
        <path
           id="path1"
           d="M 4.65,-21.3 C 4.6,-22.1 4.7,-22.9 5,-23.7 l 0,-0.05 -0.05,-0.15 c -2.1,-2.65 -3.95,-5.15 -5.5,-7.4 -1.4,-1.75 -2.15,-2.65 -2.2,-2.65 -0.4,0.05 -0.9,0.2 -1.55,0.4 -0.65,0.15 -1.05,0.25 -1.3,0.3 0.55,0.55 0.85,0.95 0.9,1.25 0.55,0.55 0.8,0.85 0.85,1 -1.8,-0.3 -3.6,0 -5.35,0.95 0.25,0.25 0.8,1.3 1.55,3.05 -0.2,-1.05 0.1,-1.95 0.9,-2.6 0.95,-0.75 2,-1.2 3.2,-1.25 l 0,-0.15 0.2,0.3 c 0.65,0.25 1,0.45 1.15,0.6 -0.05,0.05 0.1,1 0.35,2.8 0.25,2 0.35,3.2 0.3,3.6 0.05,1.25 -0.4,3.25 -1.25,6 -0.85,2.95 -1.3,4.7 -1.35,5.15 -0.05,0.45 0.1,1 0.35,1.65 0.05,0.25 0.15,0.5 0.25,0.75 0.15,0.15 0.2,0.2 0.25,0.25 l 0,-0.1 -0.05,-0.1 c 0.1,-0.15 0.2,-0.25 0.3,-0.4 0.45,-0.35 0.85,-0.8 1.3,-1.3 l -0.85,-0.05 c -0.2,-0.55 -0.25,-1.2 -0.2,-2 0.05,-0.45 0.6,-1.4 1.65,-2.85 0.15,-0.95 -0.05,-2.3 -0.65,-4.05 -0.05,-1.05 0.9,-1.7 2.85,-2.05 L 0.8,-22.85 c -0.9,-0.45 -1.45,-1.6 -1.65,-3.4 -0.15,-1.95 -0.55,-3.15 -1.1,-3.6 l 0.25,0.2 c 0.5,0.2 0.95,0.8 1.3,1.85 0.2,0.95 0.6,1.6 1.2,2.05 0.5,0.25 1.25,1 2.25,2.25 0.95,1 1.45,1.75 1.6,2.2 z m -2.1,4.6 c -0.85,0.25 -1.7,0.5 -2.45,0.65 -0.45,0.1 -0.85,0.15 -1.15,0.15 -0.05,1.45 -0.2,2.65 -0.45,3.7 1.45,-0.95 2.8,-2.45 4.05,-4.5 z m -16.05,8.25 c -0.05,-0.25 -0.2,-0.3 -0.35,-0.25 0,-0.05 0,-0.05 0,-0.1 l 0.05,0 0.05,-0.05 -0.2,0.05 0.025,0 0.025,0 c -0.75,0.5 -2.15,1.65 -4.3,3.4 -2.95,2.25 -8.15,4.25 -15.7,6.1 l 0,-0.025 -0.05,0.05 0.025,-0.05 -0.725,0.95 0,0.025 c -0.65,0.45 -1.15,1.1 -1.5,1.9 -0.4,0.65 -0.75,1.6 -1,2.75 1.85,-2.05 3.9,-3.55 6.15,-4.55 2.2,-1.1 4,-1.85 5.35,-2.3 1.4,-0.55 3.85,-1.35 7.35,-2.5 l 0,-0.025 q 0.956,-0.381 2.325,-0.775 l 0.025,0 c 0.1,-0.05 0.25,-0.1 0.5,-0.1 l -0.025,-0.025 -0.05,0.05 3.05,-1.225 0.025,0 c -0.05,-0.05 -0.2,-0.4 -0.4,-0.95 -0.2,-0.65 -0.4,-1.4 -0.65,-2.35 z m 1.075,3.425 -0.05,-0.075 -0.575,0.425 0.15,-0.075 0.05,-0.05 c 0.1,-0.1 0.25,-0.15 0.5,-0.15 l -0.025,-0.025 -0.05,-0.05 z"
           inkscape:connector-curvature="0"
           style="fill:#721016" />
        <path
           id="path2"
           d="M 4.65,-21.3 C 4.5,-21.75 4,-22.5 3.05,-23.5 c -1,-1.25 -1.75,-2 -2.25,-2.25 -0.6,-0.45 -1,-1.1 -1.2,-2.05 -0.35,-1.05 -0.8,-1.65 -1.3,-1.85 l -0.25,-0.2 c 0.55,0.45 0.95,1.65 1.1,3.6 0.2,1.8 0.75,2.95 1.65,3.4 l 0.25,0.05 c -1.95,0.35 -2.9,1 -2.85,2.05 0.6,1.75 0.8,3.1 0.65,4.05 -1.05,1.45 -1.6,2.4 -1.65,2.85 -0.05,0.8 0,1.45 0.2,2 l 0.85,0.05 0.2,0 c 0.05,-0.15 0.1,-0.25 0.05,-0.4 0.25,-1.05 0.4,-2.25 0.45,-3.7 0.3,0 0.7,-0.05 1.15,-0.15 0.75,-0.15 1.6,-0.4 2.45,-0.65 0.65,-1.8 1.35,-3.35 2.1,-4.6 z m -8.5,-9.7 c -0.05,-0.15 -0.3,-0.45 -0.85,-1 -0.25,0.05 -0.65,0.15 -1.25,0.25 -1.1,0.15 -2.2,0.35 -3.25,0.6 l 0.1,0.15 c -0.1,-0.05 -0.25,0.1 -0.5,0.35 0.4,0.25 0.55,0.45 0.4,0.6 1.75,-0.95 3.55,-1.25 5.35,-0.95 z"
           inkscape:connector-curvature="0"
           style="fill:#8a131b" />
        <path
           id="path7"
           d="m -9.2,-31.15 c 1.05,-0.25 2.15,-0.45 3.25,-0.6 0.6,-0.1 1,-0.2 1.25,-0.25 -0.05,-0.3 -0.35,-0.7 -0.9,-1.25 -1.05,0.45 -2.25,1.15 -3.6,2.1 z"
           inkscape:connector-curvature="0"
           style="fill:#bd1a26" />
        <path
           id="path8"
           d="m -6.75,-29.6 c -0.8,0.65 -1.1,1.55 -0.9,2.6 0.75,2.45 0.55,5.4 -0.6,8.9 -1.2,3.5 -3,6.6 -5.45,9.3 l -0.05,0 c -0.05,0.05 -0.05,0.05 -0.1,0.1 0.15,-0.05 0.3,0 0.35,0.25 0.25,0.95 0.45,1.7 0.65,2.35 0.2,0.55 0.35,0.9 0.4,0.95 0,-0.1 0.05,-0.15 0.2,-0.15 l -0.025,0 -0.2,0.2 0.05,0.075 0.05,0.05 0.025,0.025 c 0,-0.15 0.05,-0.25 0.15,-0.25 l -0.025,-0.025 0.1,0 0.025,0.025 c 1.65,-0.65 3.75,-1.8 6.4,-3.45 0.05,-0.05 0.1,-0.1 0.15,-0.1 l -0.2,0 C -5.7,-8.8 -5.7,-8.8 -5.7,-8.8 c 0.85,-0.7 1.55,-1.15 2.15,-1.35 -0.1,-0.25 -0.2,-0.5 -0.25,-0.75 -0.25,-0.65 -0.4,-1.2 -0.35,-1.65 0.05,-0.45 0.5,-2.2 1.35,-5.15 0.85,-2.75 1.3,-4.75 1.25,-6 0.05,-0.4 -0.05,-1.6 -0.3,-3.6 -0.25,-1.8 -0.4,-2.75 -0.35,-2.8 -0.15,-0.15 -0.5,-0.35 -1.15,-0.6 l -0.2,-0.15 c -1.2,0.05 -2.25,0.5 -3.2,1.25 z"
           inkscape:connector-curvature="0"
           style="fill:#510b0f" />
      </g>
      <g
         id="element1">
        <g
           id="drawingObject">
          <path
             id="path16"
             d="m 5.769,-19.665 c -0.148,-0.375 -0.981,-0.899 -1.668,0.012 q -0.305,0.36 -0.101,1.046 0.24,0.792 0.933,0.539 c 1.061,-0.352 0.992,-1.272 0.836,-1.597 z"
             inkscape:connector-curvature="0"
             style="fill:#bb8b36" />
        </g>
        <g
           id="drawingObject1">
          <path
             id="path17"
             d="m 5.543,-19.496 c -0.035,-0.106 -0.324,-0.905 -1.166,-0.32 q -0.397,0.297 -0.341,0.962 0.049,0.714 0.636,0.495 c 0.955,-0.316 0.899,-0.981 0.871,-1.137 z"
             inkscape:connector-curvature="0"
             style="fill:#fcbb49" />
        </g>
        <g
           id="drawingObject2">
          <path
             id="path18"
             d="m 4.701,-19.264 c 0.311,-0.056 0.404,-0.699 -0.084,-0.466 q -0.163,0.077 -0.142,0.282 0.021,0.205 0.226,0.184 z"
             inkscape:connector-curvature="0"
             style="fill:#fde2ac" />
        </g>
        <g
           id="drawingObject3">
          <path
             id="path19"
             d="m 3.246,-15.483 c -0.147,-0.375 -0.917,-0.991 -1.689,-0.193 q -0.298,0.311 -0.2,1.032 0.091,0.771 0.82,0.623 c 1.138,-0.189 1.168,-1.094 1.069,-1.462 z"
             inkscape:connector-curvature="0"
             style="fill:#bb8b36" />
        </g>
        <g
           id="drawingObject4">
          <path
             id="path20"
             d="m 2.97,-15.321 c 0.022,-0.148 -0.217,-0.94 -1.095,-0.461 q -0.439,0.24 -0.482,0.891 -0.05,0.699 0.572,0.587 c 0.99,-0.211 1.034,-0.861 1.005,-1.017 z"
             inkscape:connector-curvature="0"
             style="fill:#fcbb49" />
        </g>
        <g
           id="drawingObject5">
          <path
             id="path21"
             d="m 2.15,-15.237 c 0.248,0.036 0.496,-0.636 -0.035,-0.46 q -0.212,0.071 -0.191,0.276 0.021,0.205 0.226,0.184 z"
             inkscape:connector-curvature="0"
             style="fill:#fde2ac" />
        </g>
        <g
           id="drawingObject6">
          <path
             id="path22"
             d="m -0.259,-11.493 c -0.049,-0.361 -0.642,-1.153 -1.597,-0.483 q -0.39,0.247 -0.44,0.947 -0.015,0.806 0.741,0.814 c 1.11,0.009 1.338,-0.868 1.296,-1.278 z"
             inkscape:connector-curvature="0"
             style="fill:#bb8b36" />
        </g>
        <g
           id="drawingObject7">
          <path
             id="path23"
             d="m -0.528,-11.38 c 0.014,-0.099 -0.013,-0.962 -0.961,-0.694 q -0.53,0.176 -0.679,0.861 -0.192,0.629 0.458,0.673 c 1.011,-0.006 1.161,-0.692 1.182,-0.84 z"
             inkscape:connector-curvature="0"
             style="fill:#fcbb49" />
        </g>
        <g
           id="drawingObject8">
          <path
             id="path24"
             d="m -1.376,-11.452 c 0.29,0.092 0.63,-0.515 0.064,-0.445 q -0.205,0.021 -0.234,0.219 -0.028,0.197 0.17,0.226 z"
             inkscape:connector-curvature="0"
             style="fill:#fde2ac" />
        </g>
      </g>
      <g
         id="element2">
        <g
           id="drawingObject9">
          <path
             id="path25"
             d="m 4.951,-22.699 c 1.1,1.55 1.85,2.3 1.85,2.3 0,0 -1.6,-3.75 -3.85,-7.15 -2.25,-3.4 -5.25,-6.1 -5.25,-6.1 l 1.8,1.8 -1.8,-1.8 q -0.1,-0.65 -1.75,-0.65 c -1.65,0 -2.65,0.6 -2.65,0.6 l 0.7,-0.3 -0.7,0.3 0.55,0.95 -0.55,-0.95 c 0,0 0.75,1.75 2.25,2.4 1.5,0.65 3.65,2.1 4.55,3.25 0.95,1.15 3.75,3.75 4.85,5.35 z"
             inkscape:connector-curvature="0"
             style="fill:#97141e" />
        </g>
        <g
           id="drawingObject10">
          <path
             id="path26"
             d="m 4.951,-22.699 c 1.1,1.55 1.85,2.3 1.85,2.3 0,0 -1.2,-2.75 -2.95,-5.75 -0.6,-0.7 -1.4,-1.55 -2.4,-2.4 q -1.3,-1.1 -3.15,-2.5 -1.9,-1.4 -2.6,-2 c -0.55,-0.45 -0.7,-0.85 -0.65,-1.2 -1.1,0.15 -1.75,0.55 -1.75,0.55 l 0.45,-0.2 -0.45,0.2 0.55,0.95 -0.55,-0.95 c 0,0 0.75,1.75 2.25,2.4 1.5,0.65 3.65,2.1 4.55,3.25 0.95,1.15 3.75,3.75 4.85,5.35 z"
             inkscape:connector-curvature="0"
             style="fill:#314582" />
        </g>
      </g>
      <animate
         attributeName="display"
         begin="0s"
         repeatCount="1"
         dur="0.5s"
         keyTimes="0;0.167;1"
         values="inline;none;none"
         id="animate7386" />
    </g>
  </g>
</svg>
