<?xml version="1.0" encoding="UTF-8" standalone="no"?>
<!-- Generator: flash2svg, http://dissentgraphics.com/tools/flash2svg -->

<svg
   xmlns:dc="http://purl.org/dc/elements/1.1/"
   xmlns:cc="http://creativecommons.org/ns#"
   xmlns:rdf="http://www.w3.org/1999/02/22-rdf-syntax-ns#"
   xmlns:svg="http://www.w3.org/2000/svg"
   xmlns="http://www.w3.org/2000/svg"
   xmlns:sodipodi="http://sodipodi.sourceforge.net/DTD/sodipodi-0.dtd"
   xmlns:inkscape="http://www.inkscape.org/namespaces/inkscape"
   id="AvatarAssets"
   image-rendering="auto"
   version="1.1"
   x="0px"
   y="0px"
   width="52.316071"
   height="70.650002"
   viewBox="0 0 52.316071 70.650002"
   inkscape:version="0.48.4 r9939"
   sodipodi:docname="AvatarAssets_capeD006.ANI-jumpOver_land.svg">
  <metadata
     id="metadata3685">
    <rdf:RDF>
      <cc:Work
         rdf:about="">
        <dc:format>image/svg+xml</dc:format>
        <dc:type
           rdf:resource="http://purl.org/dc/dcmitype/StillImage" />
      </cc:Work>
    </rdf:RDF>
  </metadata>
  <sodipodi:namedview
     pagecolor="#ffffff"
     bordercolor="#666666"
     borderopacity="1"
     objecttolerance="10"
     gridtolerance="10"
     guidetolerance="10"
     inkscape:pageopacity="0"
     inkscape:pageshadow="2"
     inkscape:window-width="640"
     inkscape:window-height="480"
     id="namedview3683"
     showgrid="false"
     fit-margin-top="0"
     fit-margin-left="0"
     fit-margin-right="0"
     fit-margin-bottom="0"
     inkscape:zoom="1.9032258"
     inkscape:cx="74.316071"
     inkscape:cy="-40.95"
     inkscape:window-x="0"
     inkscape:window-y="0"
     inkscape:window-maximized="0"
     inkscape:current-layer="AvatarAssets" />
  <defs
     id="defs3641" />
  <g
     id="capeD7"
     overflow="visible"
     style="overflow:visible"
     transform="translate(42.316071,49.6)">
    <g
       id="capeD006_1_223">
      <g
         id="element4">
        <path
           id="path55"
           d="m -2.725,-33.225 q -0.117,0.041 -0.225,0.075 c -0.35,0.35 -1.9,2.05 -4.55,5 -2.7,2.95 -4.6,6.85 -5.7,11.6 -1.1,4.75 -1.75,8 -1.95,9.75 -0.25,0.55 -0.45,2.25 -0.6,5.1 0.05,0.45 0.15,1.15 0.25,2.2 0.05,1 0.1,2.35 0.1,4.05 -0.05,0.5 -0.05,1 -0.1,1.45 -0.15,1.1 -0.5,2.05 -0.95,2.9 -0.35,0.55 -0.75,1.25 -1.2,2.05 1,-0.95 1.85,-2 2.6,-3.15 0.7,-1.2 1.1,-3.3 1.25,-6.25 0.2,-3.1 0.6,-7.55 1.25,-13.35 0.65,-5.8 1.95,-10 3.95,-12.65 2,-2.65 3.45,-4.25 4.35,-4.8 0.85,-0.55 1.35,-0.9 1.45,-0.95 0.15,0 0.25,0 0.35,0 0.05,0 0.05,0 0.05,0.05 0.05,0.15 0.1,0.55 0.05,1.3 -0.05,0.75 0.25,1.55 0.9,2.4 0.6,0.85 1.45,0.9 2.55,0.1 1.05,-0.8 2.2,-1.65 3.4,-2.5 -0.1,-0.25 -0.2,-0.45 -0.3,-0.7 -0.05,-0.1 -0.1,-0.2 -0.15,-0.3 -0.75,-1.5 -2,-2.75 -3.75,-3.8 -0.3,-0.05 -0.6,-0.1 -0.9,-0.05 -0.05,-0.05 -0.1,-0.05 -0.15,-0.05 -0.15,-0.05 -0.35,-0.05 -0.5,-0.1 -0.05,0 -0.15,0 -0.25,0 -0.45,0.15 -0.85,0.4 -1.2,0.65 M 1.1,3.45 C 1.05,3.4 0.95,3.4 0.85,3.45 0.7,3.6 0.5,3.75 0.25,3.9 0,4.05 -0.3,4.45 -0.7,5.05 -1.1,5.65 -1.35,6.35 -1.45,7.1 -1.4,7 -1.4,6.9 -1.35,6.85 L 1.125,4.625 1.15,4.65 C 1.2,4.6 1.3,4.6 1.35,4.55 1.5,4.5 1.6,4.5 1.75,4.45 1.85,4.4 1.95,4.4 2.05,4.4 2.3,4.35 2.5,4.35 2.75,4.35 3.35,4.35 4,4.4 4.65,4.45 4.25,4 3.6,3.75 2.65,3.65 1.7,3.5 1.15,3.45 1.1,3.45 z m -9.7,7.9 C -8.65,10.65 -8.8,9.8 -8.95,8.85 -9.1,8.1 -9.2,7.85 -9.25,8.1 c -0.3,-0.7 -0.65,-1 -1.1,-0.9 -0.45,0.05 -0.65,0.1 -0.7,0.1 -0.1,0 -0.35,0.1 -0.75,0.3 -0.45,0.2 -1.05,0.8 -1.85,1.8 -0.55,0.75 -1.1,1.45 -1.6,2.15 l 0,0.025 0,0.025 c 0.5,-0.2 1,-0.35 1.55,-0.45 0.2,-0.25 0.4,-0.3 0.55,-0.25 0,0.05 0,0.1 0,0.15 0.6,-0.1 1.25,-0.15 1.9,-0.1 0.7,0.05 1.45,0.15 2.2,0.3 0.15,0.05 0.3,0.05 0.45,0.1 z"
           inkscape:connector-curvature="0"
           style="fill:#c21d1a" />
        <path
           id="path56"
           d="m -2.8,-30.2 c -0.1,0.05 -0.6,0.4 -1.45,0.95 -0.9,0.55 -2.35,2.15 -4.35,4.8 -2,2.65 -3.3,6.85 -3.95,12.65 -0.65,5.8 -1.05,10.25 -1.25,13.35 -0.15,2.95 -0.55,5.05 -1.25,6.25 -0.75,1.15 -1.6,2.2 -2.6,3.15 -0.5,0.9 -1.1,1.95 -1.8,3.2 1.35,-1.2 2.75,-2.05 4.2,-2.55 l 0,-0.025 0,-0.025 c 0.5,-0.7 1.05,-1.4 1.6,-2.15 0.8,-1 1.4,-1.6 1.85,-1.8 0.4,-0.2 0.65,-0.3 0.75,-0.3 0.05,0 0.25,-0.05 0.7,-0.1 0.45,-0.1 0.8,0.2 1.1,0.9 0.05,-0.25 0.15,0 0.3,0.75 0.15,0.95 0.3,1.8 0.35,2.5 3.45,0.65 5.65,-0.3 6.55,-2.9 C -1.9,7.95 -1.7,7.5 -1.45,7.1 -1.35,6.35 -1.1,5.65 -0.7,5.05 -0.3,4.45 0,4.05 0.25,3.9 0.5,3.75 0.7,3.6 0.85,3.45 c 0.1,-0.05 0.2,-0.05 0.25,0 0.05,0 0.6,0.05 1.55,0.2 0.95,0.1 1.6,0.35 2,0.8 C 6.35,4.6 8.15,5.05 10,5.7 9.85,5.3 9.15,3.35 7.9,-0.15 6.7,-3.65 5.95,-8.1 5.65,-13.45 5.3,-18.85 5.1,-23.1 5,-26.25 c -0.05,-0.95 -0.25,-1.8 -0.5,-2.6 -1.2,0.85 -2.35,1.7 -3.4,2.5 -1.1,0.8 -1.95,0.75 -2.55,-0.1 -0.65,-0.85 -0.95,-1.65 -0.9,-2.4 0.05,-0.75 0,-1.15 -0.05,-1.3 0,-0.05 0,-0.05 -0.05,-0.05 -0.1,0 -0.2,0 -0.35,0 z m -10.35,41.1 c -0.15,-0.05 -0.35,0 -0.55,0.25 0.2,-0.05 0.4,-0.05 0.55,-0.1 0,-0.05 0,-0.1 0,-0.15 z"
           inkscape:connector-curvature="0"
           style="fill:#851611" />
        <path
           id="path63"
           d="m -19,14.225 0,0.025 0.025,-0.025 -0.025,0"
           inkscape:connector-curvature="0"
           style="fill:#851611" />
      </g>
      <animate
         attributeName="display"
         begin="0s"
         repeatCount="1"
         dur="0.417s"
         keyTimes="0;0.799;1"
         values="none;inline;none"
         id="animate3649" />
    </g>
    <g
       id="capeD006_1_221">
      <g
         id="element3">
        <path
           id="path46"
           d="m -3.05,-30.1 q 0,0.1 0,0.2 c 0.1,0.2 0.15,0.4 0.1,0.65 -0.05,0.15 0,0.2 0.15,0.25 0.05,0.25 0.05,0.5 0.1,0.7 0.15,0.75 0.4,1.35 0.8,1.85 1.55,1.95 3.05,1.7 4.55,-0.8 0.25,-0.45 0.5,-0.9 0.75,-1.35 -0.1,-0.35 -0.2,-0.65 -0.3,-0.9 -0.4,-1.5 -0.8,-2.45 -1.15,-2.9 -0.85,-0.95 -1.65,-1.5 -2.45,-1.55 -0.75,-0.05 -1.2,-0.1 -1.25,-0.1 -2.6,1.9 -4.7,4.45 -6.3,7.7 -2.1,4.15 -3.75,8.5 -5,13.15 -1.85,7.15 -2.65,14.6 -2.45,22.25 -0.05,0.45 -0.1,0.95 -0.1,1.5 0,2.55 0.05,5 0.1,7.35 0.05,0.85 0.2,1.5 0.35,2.05 0.15,0.5 0.35,0.85 0.6,1.1 0,-0.1 0,-0.2 0,-0.35 0,-0.05 0,-0.1 0,-0.15 l 0,-0.05 c -0.35,-2.85 -0.5,-5.75 -0.4,-8.7 0.05,-1.6 0.05,-3.15 0.1,-4.6 0.15,-8.45 1.6,-16.55 4.45,-24.2 0.75,-2 1.45,-4 2.1,-6.05 1.1,-3.35 2.85,-5.7 5.25,-7.05 z M 3.7,7.7 C 3.25,6.65 2.6,6.05 1.75,5.95 0.7,6.7 0,8.2 -0.3,10.4 c -0.35,2.15 -1.05,4.1 -2.2,5.95 0.5,-0.6 0.95,-1.25 1.35,-1.9 0.25,-0.35 0.45,-0.7 0.65,-1.05 0.2,-0.35 0.4,-0.75 0.55,-1.1 0.3,-0.6 0.7,-1 1.25,-1.25 0.6,-0.35 1.15,-0.45 1.65,-0.35 0.3,0.05 0.75,0.45 1.3,1.2 C 4.3,10.1 4.15,8.7 3.7,7.7 z m -14.15,2.05 c -0.15,0.05 -0.45,0.25 -0.9,0.6 -0.45,0.3 -0.85,1.35 -1.3,3.15 -0.45,1.75 -0.8,3.35 -0.95,4.7 0.05,-0.1 0.15,-0.2 0.2,-0.35 l 0.1,-0.25 c 0.2,-0.45 0.45,-0.85 0.7,-1.1 0.55,-0.75 1.15,-1.05 1.75,-1 1.25,1.45 2.25,2.45 2.95,2.9 0.2,0.15 0.4,0.3 0.55,0.35 l 0,-0.05 c 0.1,0.05 0.2,0.05 0.35,0.1 l 0.65,0.05 c 0.05,0 0.1,0 0.15,0 C -6.15,18.8 -6.05,18.8 -6,18.8 -6.25,18.75 -6.5,18.7 -6.75,18.7 -6.9,18.55 -7.2,18.1 -7.65,17.4 -8.15,16.7 -8.45,15.45 -8.6,13.65 -8.7,11.8 -8.95,10.7 -9.4,10.3 -9.8,9.95 -10.05,9.75 -10.1,9.75 c -0.1,0 -0.2,0 -0.35,0 z"
           inkscape:connector-curvature="0"
           style="fill:#c21d1a" />
        <path
           id="path47"
           d="m -3.05,-29.9 q 0,-0.1 0,-0.2 c -2.4,1.35 -4.15,3.7 -5.25,7.05 -0.65,2.05 -1.35,4.05 -2.1,6.05 -2.85,7.65 -4.3,15.75 -4.45,24.2 -0.05,1.45 -0.05,3 -0.1,4.6 -0.1,2.95 0.05,5.85 0.4,8.7 0,-0.15 0,-0.3 0,-0.45 0.05,-0.05 0.1,-0.15 0.15,-0.2 l 0,-0.05 c 0.25,-0.5 0.55,-1.05 0.8,-1.6 0.15,-1.35 0.5,-2.95 0.95,-4.7 0.45,-1.8 0.85,-2.85 1.3,-3.15 0.45,-0.35 0.75,-0.55 0.9,-0.6 0.15,0 0.25,0 0.35,0 0.05,0 0.3,0.2 0.7,0.55 0.45,0.4 0.7,1.5 0.8,3.35 0.15,1.8 0.45,3.05 0.95,3.75 0.45,0.7 0.75,1.15 0.9,1.3 0.25,0 0.5,0.05 0.75,0.1 0.35,-0.1 0.7,-0.25 1.05,-0.5 0.9,-0.55 1.7,-1.2 2.45,-1.95 1.15,-1.85 1.85,-3.8 2.2,-5.95 0.3,-2.2 1,-3.7 2.05,-4.45 0.85,0.1 1.5,0.7 1.95,1.75 0.45,1 0.6,2.4 0.55,4.2 l 0.2,1.55 C 4.4,13.5 4.4,13.5 4.4,13.55 L 4.45,13.5 c 0,0.1 0,0.2 0,0.3 0.05,0 0.1,0 0.15,-0.05 C 4.75,13.2 4.8,12.7 4.8,12.2 5.35,9.95 5.65,7.75 5.75,5.5 5.8,2.85 5.95,-0.95 6.1,-5.9 6.25,-10.85 5.8,-16.3 4.75,-22.15 4.25,-24.85 3.8,-27 3.4,-28.6 c -0.25,0.45 -0.5,0.9 -0.75,1.35 -1.5,2.5 -3,2.75 -4.55,0.8 -0.4,-0.5 -0.65,-1.1 -0.8,-1.85 -0.05,-0.2 -0.05,-0.45 -0.1,-0.7 -0.15,-0.05 -0.2,-0.1 -0.15,-0.25 0.05,-0.25 0,-0.45 -0.1,-0.65 z M -14.6,18.85 c 0,0.1 0,0.2 0.05,0.3 -0.05,0.1 -0.05,0.2 -0.05,0.35 0,-0.25 0,-0.5 0,-0.65 z"
           inkscape:connector-curvature="0"
           style="fill:#851611" />
      </g>
      <animate
         attributeName="display"
         begin="0s"
         repeatCount="1"
         dur="0.417s"
         keyTimes="0;0.6;0.799;1"
         values="none;inline;none;none"
         id="animate3655" />
    </g>
    <g
       id="capeD006_1_219">
      <g
         id="element2">
        <path
           id="path33"
           d="m 1.1,-34 q -0.15,-0.1 -0.4,-0.15 c -0.55,-0.15 -1.1,-0.2 -1.55,-0.2 -0.5,-0.05 -0.95,-0.05 -1.35,-0.1 -0.4,-0.05 -1.25,0.3 -2.5,1.05 -0.45,0.25 -1.3,1.45 -2.5,3.5 l -0.025,0 -1,2.375 0.025,0.025 c 0,0.05 -0.1,0.3 -0.25,0.75 -0.2,0.4 -0.7,1.45 -1.45,3.2 -0.8,1.75 -1.4,3.2 -1.85,4.45 -0.45,1.2 -0.65,1.9 -0.7,2.05 l -0.025,0 -2.15,5.6 0.025,0 c -0.05,0.15 -0.1,0.25 -0.15,0.4 1.45,-2.35 2.7,-4.85 3.65,-7.55 1.5,-4.2 2.85,-7.2 4.05,-9 1.2,-1.85 1.85,-2.8 2,-2.9 0.1,-0.1 0.4,-0.25 0.95,-0.4 0.5,-0.15 1.05,0.7 1.6,2.6 0.55,1.85 1.6,2.2 3.25,1 0.85,-0.65 1.55,-1.3 2.1,-2 0,-0.05 0,-0.1 0,-0.15 L 2.9,-29.5 c -0.05,-0.15 -0.1,-0.25 -0.1,-0.4 -0.1,-0.45 -0.2,-0.85 -0.3,-1.2 -0.05,0 -0.05,0 -0.05,-0.05 -0.45,-1.3 -0.7,-1.95 -0.75,-2 -0.05,-0.4 -0.25,-0.7 -0.55,-0.85 -0.05,-0.05 -0.05,-0.05 -0.05,-0.1 -0.05,0.05 -0.05,0.05 0,0.1 z m -34.45,25.05 c 0.05,0.1 0.6,1.9 1.55,5.45 0.95,3.55 3.35,5.9 7.1,7.15 l 0.05,0 -0.025,-0.025 0.025,0.025 C -24.7,3.5 -24.8,3.4 -24.85,3.3 c 0.05,0.05 0.1,0.05 0.15,0.05 0.05,0 0.15,0 0.2,0.05 l -0.025,-0.025 -0.15,0.25 0.025,0.025 c 0.15,-0.2 0.45,-0.2 0.9,-0.05 0.4,0.15 0.95,-0.15 1.7,-0.85 2.1,-2.55 3.55,-4.8 4.35,-6.75 0.35,-0.95 0.7,-1.85 1,-2.6 l 0.4,0.05 c -0.15,-0.05 -0.25,-0.05 -0.4,-0.05 0.05,-0.15 0.1,-0.25 0.15,-0.4 -0.15,0.2 -0.25,0.45 -0.35,0.75 -0.1,0.25 -0.35,0.45 -0.7,0.5 -0.35,0.05 -1.55,0.15 -3.5,0.25 -1.95,0.1 -3.2,0 -3.65,-0.25 l 0.1,0.15 c -2.5,-0.55 -4.1,-1.05 -4.8,-1.6 -0.65,-0.25 -1.9,-0.85 -3.75,-1.7 -0.05,-0.05 -0.1,-0.05 -0.15,-0.05 z m 8.1,10.4 0,0.05 c 0,0.05 0,0.1 0,0.15 0,-0.4 0,-0.6 0,-0.65 0,0.15 0,0.3 0,0.45 z M -3.3,3.55 C -3.75,3.6 -4.25,3.65 -4.7,3.65 -5.25,3.7 -5.95,2.7 -6.9,0.75 -7.85,-1.2 -9.2,-1.8 -11.05,-1 c -1.85,0.75 -3.2,1.5 -4.15,2.15 -0.95,0.65 -2,1.35 -3.2,2.15 -1.35,0.95 -2.75,1.6 -4.15,2 0,0 0,0 0.05,0 0.2,0 0.4,0 0.55,0 0.85,-0.15 1.8,-0.4 2.9,-0.85 l 0.05,0 c 0.55,-0.25 1.1,-0.5 1.7,-0.75 2.45,-1.25 4.85,-1.45 7.1,-0.6 1.75,0.65 3.4,0.9 4.85,0.85 0.35,-0.05 0.75,-0.1 1.1,-0.15 0.05,0 0.05,0 0.1,0 L -3.9,3.75 C -3.65,3.7 -3.45,3.6 -3.25,3.55 l -0.05,0 z M -17.05,-13.5 c 0.05,-0.15 0.15,-0.35 0.2,-0.5 -0.1,0.15 -0.2,0.35 -0.25,0.5 l 0.05,0 z"
           inkscape:connector-curvature="0"
           style="fill:#c21d1a" />
        <path
           id="path34"
           d="m 2.9,-29.5 -0.05,0.05 c 0,0.05 0,0.1 0,0.15 -0.55,0.7 -1.25,1.35 -2.1,2 -1.65,1.2 -2.7,0.85 -3.25,-1 -0.55,-1.9 -1.1,-2.75 -1.6,-2.6 -0.55,0.15 -0.85,0.3 -0.95,0.4 -0.15,0.1 -0.8,1.05 -2,2.9 -1.2,1.8 -2.55,4.8 -4.05,9 -0.95,2.7 -2.2,5.2 -3.65,7.55 -0.7,1.65 -1.25,2.9 -1.65,3.65 -0.05,0.05 -0.1,0.2 -0.15,0.4 -0.05,0.15 -0.1,0.25 -0.15,0.4 l 0.4,0.05 c -0.15,-0.05 -0.25,-0.05 -0.4,-0.05 -0.3,0.75 -0.65,1.65 -1,2.6 -0.8,1.95 -2.25,4.2 -4.35,6.75 -0.75,0.7 -1.3,1 -1.7,0.85 -0.45,-0.15 -0.75,-0.15 -0.9,0.05 l -0.025,-0.025 0.025,0.025 -0.05,0 c -3.75,-1.25 -6.15,-3.6 -7.1,-7.15 -0.95,-3.55 -1.5,-5.35 -1.55,-5.45 0.05,0 0.1,0 0.15,0.05 -0.05,-0.05 -0.05,-0.05 -0.05,-0.1 l -0.15,0.05 c 0.95,5.35 2.1,8.8 3.35,10.4 1.25,1.6 2.65,2.65 4.25,3.1 1.6,0.45 2.7,0.7 3.25,0.75 1.4,-0.4 2.8,-1.05 4.15,-2 1.2,-0.8 2.25,-1.5 3.2,-2.15 0.95,-0.65 2.3,-1.4 4.15,-2.15 1.85,-0.8 3.2,-0.2 4.15,1.75 0.95,1.95 1.65,2.95 2.2,2.9 0.45,0 0.95,-0.05 1.4,-0.1 C -1.95,3.05 -0.85,2.1 0.05,0.7 -0.2,0.9 -0.4,1.1 -0.65,1.25 1.45,-0.4 2.75,-4 3.2,-9.55 3.65,-15.1 3.8,-19.5 3.55,-22.75 3.3,-26 3.05,-28.25 2.9,-29.5 z"
           inkscape:connector-curvature="0"
           style="fill:#851611" />
        <path
           id="path37"
           d="m -25.25,1.45 c 0,-0.15 0,-0.3 0,-0.45 0,0.05 0,0.25 0,0.65 0,-0.05 0,-0.1 0,-0.15 l 0,-0.05 z m 0.4,1.85 c 0.05,0.1 0.15,0.2 0.2,0.35 l -0.025,-0.025 0.15,-0.25 0.025,0.025 c -0.05,-0.05 -0.15,-0.05 -0.2,-0.05 -0.05,0 -0.1,0 -0.15,-0.05 z"
           inkscape:connector-curvature="0"
           style="fill:#851611" />
      </g>
      <animate
         attributeName="display"
         begin="0s"
         repeatCount="1"
         dur="0.417s"
         keyTimes="0;0.4;0.6;1"
         values="none;inline;none;none"
         id="animate3662" />
    </g>
    <g
       id="capeD006_1_217">
      <g
         id="element1">
        <path
           id="path17"
           d="M 0.775,-33.75 Q 0.707,-33.8 0.65,-33.8 c -0.4,-0.1 -0.8,-0.15 -1.25,-0.15 -0.55,0.1 -1.15,0.25 -1.75,0.5 -0.3,0.1 -0.55,0.25 -0.9,0.4 0.15,-0.05 -0.35,0.35 -1.45,1.3 -1.15,0.9 -2.75,2.45 -4.85,4.6 -0.15,0.1 -0.25,0.2 -0.35,0.35 -0.05,0.05 -0.05,0.05 -0.1,0.1 l -0.025,0.025 0.025,0.025 c -0.85,0.85 -1.55,1.6 -2.1,2.2 0.15,-0.15 0.75,-0.75 1.85,-1.7 1.1,-1.05 2.15,-1.95 3.1,-2.7 0.95,-0.8 1.65,-1.3 2.1,-1.55 0.45,-0.25 1,-0.3 1.65,-0.2 0.65,0.05 1.1,0.85 1.3,2.4 0.2,1.5 0.9,1.7 2.15,0.6 1.2,-1.15 1.8,-1.75 1.8,-1.9 l 0,-0.025 0.45,-0.375 c -0.15,-0.15 -0.05,-0.25 0.25,-0.35 -0.05,-0.1 -0.05,-0.2 -0.05,-0.3 0.05,-0.1 0.15,-0.2 0.25,-0.3 C 2.7,-30.9 2.7,-30.9 2.65,-30.95 2.6,-31 2.5,-31.05 2.35,-31.1 2.1,-32.05 1.7,-32.95 1.15,-33.8 c -0.15,0 -0.3,0 -0.35,0.05"
           inkscape:connector-curvature="0"
           style="fill:#c21d1a" />
        <path
           id="path18"
           d="m 2.55,-30.25 c -0.3,0.1 -0.4,0.2 -0.25,0.35 l -0.45,0.375 0,0.025 c 0,0.15 -0.6,0.75 -1.8,1.9 -1.25,1.1 -1.95,0.9 -2.15,-0.6 -0.2,-1.55 -0.65,-2.35 -1.3,-2.4 -0.65,-0.1 -1.2,-0.05 -1.65,0.2 -0.45,0.25 -1.15,0.75 -2.1,1.55 -0.95,0.75 -2,1.65 -3.1,2.7 -1.1,0.95 -1.7,1.55 -1.85,1.7 -0.4,0.45 -0.7,0.8 -0.95,1.05 0.1,-0.05 0.2,-0.15 0.35,-0.25 -0.2,0.15 -0.35,0.35 -0.5,0.5 -0.1,0.15 -0.15,0.2 -0.2,0.25 0,0 0,0 -0.05,0.1 0,0 0,0 -0.1,-0.05 -0.5,0.45 -0.7,0.7 -0.55,0.65 -1.65,1.75 -3.25,3.4 -4.95,5 -2.35,2.3 -5.15,3.3 -8.4,3.05 l -1.65,-0.2 c 0,0 0,0 -0.1,0 0,0.05 -0.1,0.05 -0.15,0.05 1.25,0.5 1.95,0.7 2.7,0.8 0.25,0.1 0.5,0.15 0.8,0.2 2,0.2 4,0.25 5.9,0.1 0,0 0,0 0.05,0 l 0,-0.025 0,0.025 c 1.45,-0.1 2.85,-0.25 4.25,-0.45 2.9,-0.45 5.65,-1.3 8.2,-2.6 2.95,-1.5 5.35,-3.5 7.35,-6.25 -0.05,0 -0.1,0 -0.15,-0.05 0.05,-0.05 0.15,-0.15 0.25,-0.25 0.1,-0.1 0.2,-0.2 0.3,-0.25 0.3,-0.5 0.7,-1.2 1.1,-1.95 0.95,-1.85 1.35,-3.6 1.15,-5.25 z M -2.7,-20.2 c 0.1,-0.1 0.2,-0.2 0.35,-0.3 0.15,-0.15 0.3,-0.25 0.45,-0.35 0.15,-0.05 0.15,-0.05 -0.05,0.1 -0.25,0.2 -0.5,0.4 -0.75,0.55 z m -15.9,-17.4 c -0.05,0.15 -0.1,0.25 -0.15,0.4 -0.35,1.05 -0.85,2.05 -1.45,2.9 -1.6,2.35 -3.6,2.6 -6.05,0.8 -1.15,-0.85 -2.3,-0.9 -3.45,-0.15 -0.8,0.5 -1.6,0.9 -2.35,1.2 -2,0.85 -4.05,0.5 -6.4,-1.2 -0.05,0 -0.2,-0.1 -0.45,-0.3 l 0,-0.025 -0.025,-0.025 0,0.025 0.025,0.025 c 0.6,0.9 1.15,1.5 1.5,1.9 3.1,3.6 5.05,4.4 5.95,2.65 1.05,-2.1 1.95,-3.55 2.65,-4.3 0.7,-0.8 1.9,-0.15 3.55,1.9 1.25,1.55 2.45,2.25 3.2,2.15 0.1,-0.1 0.2,-0.1 0.25,-0.05 0.05,0.05 0.05,0.05 0.1,0 0.05,-0.05 0.1,-0.1 0.15,-0.05 0.05,0 0.05,0 0.1,0 0.35,-0.1 0.55,-0.2 0.7,-0.3 1,-0.7 1.65,-2.15 1.95,-4.45 0,-0.05 0,-0.1 0,-0.15 l 0,-0.025 0,0.025 c 0.1,-0.8 0.15,-1.6 0.2,-2.5 0.05,0.1 0.1,0.2 0.15,0.3 0.05,-0.15 -0.05,-0.45 -0.15,-0.75 z"
           inkscape:connector-curvature="0"
           style="fill:#851611" />
        <path
           id="path19"
           d="m -2.7,-20.2 c 0.25,-0.15 0.5,-0.35 0.75,-0.55 0.2,-0.15 0.2,-0.15 0.05,-0.1 -0.15,0.1 -0.3,0.2 -0.45,0.35 -0.15,0.1 -0.25,0.2 -0.35,0.3 z m -16.1,-14.45 c 0,0.05 0,0.1 0,0.15 -0.3,2.3 -0.95,3.75 -1.95,4.45 -0.15,0.1 -0.35,0.2 -0.7,0.3 -0.05,0 -0.05,0 -0.1,0 -0.05,-0.05 -0.1,0 -0.15,0.05 -0.05,0.05 -0.05,0.05 -0.1,0 -0.05,-0.05 -0.15,-0.05 -0.25,0.05 -0.75,0.1 -1.95,-0.6 -3.2,-2.15 -1.65,-2.05 -2.85,-2.7 -3.55,-1.9 -0.7,0.75 -1.6,2.2 -2.65,4.3 -0.9,1.75 -2.85,0.95 -5.95,-2.65 -0.35,-0.4 -0.9,-1 -1.5,-1.9 -0.05,-0.05 -0.05,-0.05 -0.05,-0.05 -0.05,-0.05 -0.05,-0.05 -0.1,-0.1 -0.2,-0.15 -0.4,-0.35 -0.6,-0.55 l 0.6,1.15 -0.025,0 0.025,0 c 0.2,1.15 0.4,2.05 0.6,2.65 0.75,3.75 1.8,7.1 3.2,10.4 0.75,1.85 1.95,3.3 3.15,4.15 0.05,0.05 0.1,0.15 0.2,0.25 0.35,0.45 0.8,0.8 1.3,1.1 0.5,0.3 1,0.55 1.1,0.6 -0.05,0 -0.15,0 -0.25,0 l 0.3,0 0.025,0.025 0.025,0 0.025,0 0.025,0.025 c 0.05,0 0.15,0 0.15,-0.05 0.1,0 0.1,0 0.1,0 l 1.65,0.2 c 3.25,0.25 6.05,-0.75 8.4,-3.05 1.7,-1.6 3.3,-3.25 4.95,-5 -0.15,0.05 0.05,-0.2 0.55,-0.65 0.05,0 0,-0.05 -0.1,-0.1 l -0.025,0 -0.1,0.175 0.025,0.025 c -0.05,0.1 -0.45,-0.1 -1.15,-0.65 -0.7,-0.55 -1.25,-1.95 -1.6,-4.3 -0.35,-2.35 -0.75,-4.25 -1.1,-5.75 -0.35,-1.5 -0.65,-2.55 -0.8,-3.2 0,-0.05 0,-0.1 -0.05,-0.2 -0.05,-0.1 -0.1,-0.2 -0.15,-0.3 -0.05,0.9 -0.1,1.7 -0.2,2.5 z m 18.55,12.1 c 0.05,0.05 0.1,0.05 0.15,0.05 0.1,-0.15 0.25,-0.35 0.4,-0.55 -0.1,0.05 -0.2,0.15 -0.3,0.25 -0.1,0.1 -0.2,0.2 -0.25,0.25 z m -12.45,-1.1 c -0.15,0.1 -0.25,0.2 -0.35,0.25 -0.1,0.1 -0.15,0.2 -0.15,0.25 0.15,-0.15 0.3,-0.35 0.5,-0.5 z"
           inkscape:connector-curvature="0"
           style="fill:#c21d1a" />
        <path
           id="path26"
           d="m -39.05,-34.1 c 0.05,0.05 0.05,0.05 0.1,0.1 C -39,-34.05 -39,-34.05 -39,-34.1 m -0.025,0 -0.025,-0.025"
           inkscape:connector-curvature="0"
           style="fill:#851611" />
        <path
           id="path27"
           d="m -29.4,-14.325 -0.025,0 m 0.025,0.025 c -0.05,0 -0.05,0 -0.1,0 l 0.1,-0.025"
           inkscape:connector-curvature="0"
           style="fill:#851611" />
        <path
           id="path32"
           d="m -19.9,-13.225 0,0.025 c -0.05,0 -0.05,0 -0.05,0"
           inkscape:connector-curvature="0"
           style="fill:#c21d1a" />
      </g>
      <animate
         attributeName="display"
         begin="0s"
         repeatCount="1"
         dur="0.417s"
         keyTimes="0;0.2;0.4;1"
         values="none;inline;none;none"
         id="animate3672" />
    </g>
    <g
       id="capeD006_1_215">
      <g
         id="element">
        <path
           id="path"
           d="M 2.25,-34.2 C 2,-34.25 1.7,-34.3 1.45,-34.35 l -0.025,0 q 0.064,-0.024 0.125,-0.05 c -0.1,0 -0.2,0 -0.3,0.05 -1.35,-0.2 -2.7,-0.2 -4,0.05 -1.65,-0.05 -3.55,-0.15 -5.7,-0.3 -2.15,-0.15 -5.1,-1.05 -8.95,-2.65 -3.65,-1.55 -6.5,-5.7 -8.65,-12.35 -0.4,0.6 -0.7,1.1 -0.9,1.4 0.05,0.05 0.05,0.05 0.05,0.1 0.1,0.3 0.15,0.65 0.15,1 0.05,0.05 0.05,0.05 0.1,0.05 l 0.025,0 0.025,0 c 0,0.65 0.1,1.6 0.25,2.9 0.15,1.95 -0.4,2.2 -1.75,0.7 -1.35,-1.55 -2.45,-2.75 -3.3,-3.6 0,0 0,0 -0.15,-0.15 0,-0.1 0,-0.2 -0.05,-0.25 -0.2,-0.15 -0.4,-0.25 -0.6,-0.3 l -1.9,-0.2 c 0,0.05 -0.05,0.05 -0.1,0.05 -0.1,0 -0.1,0 -0.1,0 -0.15,0.05 -0.3,0.1 -0.45,0.15 l -0.025,-0.025 0.025,-0.025 c -0.05,0 -0.1,0 -0.15,0.05 -0.3,0.15 -0.6,0.3 -0.9,0.45 0,0 0,0 0.05,0.05 0.1,0.05 0.2,0.1 0.35,0.05 0.05,-0.05 0.05,-0.05 0.1,-0.05 0.15,-0.05 0.25,-0.1 0.35,-0.15 l 0,0.025 0,0.025 c 0,0 -0.1,0.05 -0.2,0.1 -0.3,0.3 -0.45,0.4 -0.4,0.25 l -0.3,0.05 c 0.55,5.45 -0.05,7 -1.8,4.65 -1.75,-2.35 -2.8,-3.65 -3.1,-4 -0.3,-0.35 -0.1,0.45 0.6,2.45 0.7,2 1.65,4.05 2.8,6.2 1.15,2.15 3.2,4.3 6.05,6.55 1,0.75 2.2,1.35 3.3,1.7 0.1,0.05 0.2,0.1 0.25,0.15 0.25,0.15 0.45,0.25 0.7,0.4 1.85,0.4 3.6,0.65 5.45,0.8 0.4,0.05 0.65,0.05 0.9,0.05 6,0.35 11.35,0.1 16,-0.85 4.65,-0.95 7.15,-2.5 7.5,-4.55 l 0,-0.05 c 0,0 0,0 0,-0.2 0,-0.05 0,-0.1 -0.1,-0.25 0.05,-0.05 -0.1,-0.25 -0.45,-0.3 z m -0.8,1.05 c -2.05,0.2 -4.25,0.2 -6.7,-0.05 1.85,-0.25 3.75,-0.45 5.7,-0.6 0.05,0 0.2,0 0.35,0 0.15,-0.05 0.45,-0.05 0.95,-0.05 0.45,0 0.75,0.1 0.9,0.3 0.15,0.2 0.05,0.45 -0.2,0.7 -0.3,0.25 -0.75,0.55 -1.4,0.95 -0.65,0.35 -1.7,0.55 -3.25,0.55 -1.55,0 -3.2,0.05 -5.05,0.1 -0.4,0 -0.75,-0.1 -1.05,-0.35 3.4,0.1 6.6,-0.4 9.65,-1.45 0.05,-0.05 0.05,-0.05 0.1,-0.1 z m -17.75,-3 c -0.35,-0.15 -0.7,-0.3 -1.1,-0.45 0.1,-0.05 0.2,-0.05 0.35,0 0.25,0.15 0.5,0.3 0.75,0.45 z m 15.75,2.1 c -0.05,0 -0.5,0 -1.05,0 -0.1,0 -0.2,0 -0.5,0.05 0.2,-0.05 0.4,-0.05 0.6,-0.1 0.3,-0.05 0.6,0 0.95,0.05 z m -24.9,-12.35 c 0.05,0.1 0.1,0.25 0.15,0.4 0,0.05 0,0.1 0.05,0.15 -0.15,-0.35 -0.3,-0.65 -0.45,-1.2 0.05,0.2 0.15,0.4 0.25,0.65 z"
           inkscape:connector-curvature="0"
           style="fill:#c21d1a" />
        <path
           id="path1"
           d="m 1.45,-33.15 c -0.05,0.05 -0.05,0.05 -0.1,0.1 -3.05,1.05 -6.25,1.55 -9.65,1.45 0.3,0.25 0.65,0.35 1.05,0.35 1.85,-0.05 3.5,-0.1 5.05,-0.1 1.55,0 2.6,-0.2 3.25,-0.55 0.65,-0.4 1.1,-0.7 1.4,-0.95 0.25,-0.25 0.35,-0.5 0.2,-0.7 -0.15,-0.2 -0.45,-0.3 -0.9,-0.3 -0.5,0 -0.8,0 -0.95,0.05 -0.15,0 -0.3,0 -0.35,0 -1.95,0.15 -3.85,0.35 -5.7,0.6 2.45,0.25 4.65,0.25 6.7,0.05 z"
           inkscape:connector-curvature="0"
           style="fill:#851611" />
        <path
           id="path4"
           d="m -16.3,-36.15 c -0.25,-0.15 -0.5,-0.3 -0.75,-0.45 -0.15,-0.05 -0.25,-0.05 -0.35,0 0.4,0.15 0.75,0.3 1.1,0.45 z"
           inkscape:connector-curvature="0"
           style="fill:#851611" />
        <path
           id="path7"
           d="m -0.55,-34.05 c -0.35,-0.05 -0.65,-0.1 -0.95,-0.05 -0.2,0.05 -0.4,0.05 -0.6,0.1 0.3,-0.05 0.4,-0.05 0.5,-0.05 0.55,0 1,0 1.05,0 z"
           inkscape:connector-curvature="0"
           style="fill:#851611" />
        <path
           id="path10"
           d="m -25.45,-46.4 c -0.1,-0.25 -0.2,-0.45 -0.25,-0.65 0.15,0.55 0.3,0.85 0.45,1.2 -0.05,-0.05 -0.05,-0.1 -0.05,-0.15 -0.05,-0.15 -0.1,-0.3 -0.15,-0.4 z m -15.8,-0.75 c -0.05,-0.25 -0.15,-0.55 -0.2,-0.8 0.05,0.25 0.05,0.5 0.1,0.75 -0.05,-0.05 -0.3,-0.45 -0.75,-1.1 -0.55,2.55 -0.05,5.35 1.5,8.45 1.55,3.1 3.75,5.75 6.6,8 1.8,1.4 4.25,2.4 6.95,3 -0.25,-0.15 -0.45,-0.25 -0.7,-0.4 -0.05,-0.05 -0.15,-0.1 -0.25,-0.15 -1.1,-0.35 -2.3,-0.95 -3.3,-1.7 -2.85,-2.25 -4.9,-4.4 -6.05,-6.55 -1.15,-2.15 -2.1,-4.2 -2.8,-6.2 -0.7,-2 -0.9,-2.8 -0.6,-2.45 0.3,0.35 1.35,1.65 3.1,4 1.75,2.35 2.35,0.8 1.8,-4.65 l 0.3,-0.05 c -0.05,0.15 0.1,0.05 0.4,-0.25 0.1,-0.05 0.2,-0.1 0.2,-0.1 l 0,-0.025 0,-0.025 c -0.1,0.05 -0.2,0.1 -0.35,0.15 -0.05,0 -0.05,0 -0.1,0.05 -0.15,0.05 -0.25,0 -0.35,-0.05 -0.05,-0.05 -0.05,-0.05 -0.05,-0.05 -0.3,0.15 -0.55,0.35 -0.8,0.55 -0.25,0.15 -0.45,0.35 -0.7,0.5 -0.05,-0.05 -0.2,0 -0.4,0.05 -1.35,0.1 -2.5,-0.2 -3.55,-0.95 z m 14.625,0.1 -0.025,0 c -0.05,0 -0.05,0 -0.1,-0.05 0,-0.35 -0.05,-0.7 -0.15,-1 0,-0.05 0,-0.05 -0.05,-0.1 -0.25,0.4 -0.4,0.6 -0.55,0.8 -0.45,0.5 -0.8,0.8 -1.1,0.9 -0.3,0.05 -0.55,0.1 -0.7,0.15 -0.2,0.05 -0.35,0.05 -0.4,0 -0.1,-0.05 -0.65,-0.4 -1.7,-1 -0.2,-0.15 -0.45,-0.25 -0.8,-0.4 0.2,0.05 0.4,0.15 0.6,0.3 0.05,0.05 0.05,0.15 0.05,0.25 0.15,0.15 0.15,0.15 0.15,0.15 0.85,0.85 1.95,2.05 3.3,3.6 1.35,1.5 1.9,1.25 1.75,-0.7 -0.15,-1.3 -0.25,-2.25 -0.25,-2.9 z"
           inkscape:connector-curvature="0"
           style="fill:#851611" />
      </g>
      <animate
         attributeName="display"
         begin="0s"
         repeatCount="1"
         dur="0.417s"
         keyTimes="0;0.2;1"
         values="inline;none;none"
         id="animate3681" />
    </g>
  </g>
</svg>
