<?xml version="1.0" encoding="UTF-8" standalone="no"?>
<!-- Generator: flash2svg, http://dissentgraphics.com/tools/flash2svg -->

<svg
   xmlns:dc="http://purl.org/dc/elements/1.1/"
   xmlns:cc="http://creativecommons.org/ns#"
   xmlns:rdf="http://www.w3.org/1999/02/22-rdf-syntax-ns#"
   xmlns:svg="http://www.w3.org/2000/svg"
   xmlns="http://www.w3.org/2000/svg"
   xmlns:sodipodi="http://sodipodi.sourceforge.net/DTD/sodipodi-0.dtd"
   xmlns:inkscape="http://www.inkscape.org/namespaces/inkscape"
   id="AvatarAssets"
   image-rendering="auto"
   version="1.1"
   x="0px"
   y="0px"
   width="41.599998"
   height="25.573849"
   viewBox="0 0 41.599998 25.573849"
   inkscape:version="0.48.4 r9939"
   sodipodi:docname="AvatarAssets_coatOffsideC006.ANI-jumpOver_fall.svg">
  <metadata
     id="metadata3408">
    <rdf:RDF>
      <cc:Work
         rdf:about="">
        <dc:format>image/svg+xml</dc:format>
        <dc:type
           rdf:resource="http://purl.org/dc/dcmitype/StillImage" />
      </cc:Work>
    </rdf:RDF>
  </metadata>
  <sodipodi:namedview
     pagecolor="#ffffff"
     bordercolor="#666666"
     borderopacity="1"
     objecttolerance="10"
     gridtolerance="10"
     guidetolerance="10"
     inkscape:pageopacity="0"
     inkscape:pageshadow="2"
     inkscape:window-width="640"
     inkscape:window-height="480"
     id="namedview3406"
     showgrid="false"
     fit-margin-top="0"
     fit-margin-left="0"
     fit-margin-right="0"
     fit-margin-bottom="0"
     inkscape:zoom="1.9032258"
     inkscape:cx="64.85"
     inkscape:cy="-67.6325"
     inkscape:window-x="0"
     inkscape:window-y="0"
     inkscape:window-maximized="0"
     inkscape:current-layer="AvatarAssets" />
  <defs
     id="defs3382" />
  <g
     id="coatOffsideC7"
     overflow="visible"
     style="overflow:visible"
     transform="translate(32.85,31.206348)">
    <g
       id="coatOffsideC006_2_210">
      <g
         id="element2">
        <path
           id="path10"
           d="M 5.95,-13.45 C 7.6,-15.25 8.45,-16.8 8.6,-18.1 8.7,-19.4 8.35,-21.45 7.5,-24.3 6.65,-27.15 5.85,-29 5.1,-29.85 L 4.95,-29.9 c -0.35,-0.25 -0.9,-0.5 -1.7,-0.85 l -1,-0.4 c -1.65,-0.3 -2.75,0.6 -3.3,2.65 L -2.7,-23 c -0.75,2.6 -1.6,4.55 -2.55,5.8 -0.25,2.55 -1.25,4.95 -2.95,7.2 -1.25,1.65 -2.7,3.05 -4.3,4.2 2.3,-0.25 4.35,-1.05 6.2,-2.35 2.55,-1.85 4,-2.95 4.35,-3.2 3.9,0.2 6.45,-0.5 7.9,-2.1 z"
           inkscape:connector-curvature="0"
           style="fill:#5b0d11" />
        <path
           id="path11"
           d="m -22.05,-17.1 c -0.15,-0.5 -0.3,-1 -0.35,-1.5 -0.55,1.15 -1.15,2.65 -1.8,4.5 2.4,5.25 5.35,8.05 8.85,8.3 0.65,0.05 1.35,0.1 2,0.05 l 0,-0.025 -0.025,0.025 0.025,0 c 0.25,0 0.55,0 0.8,-0.05 l 0.025,-0.025 0.025,0.025 c 1.6,-1.15 3.05,-2.55 4.3,-4.2 1.7,-2.25 2.7,-4.65 2.95,-7.2 -0.15,0.15 -0.25,0.3 -0.35,0.45 l -0.025,-0.025 -0.125,0.125 -0.05,0 c -0.85,-0.1 -1.95,-1.1 -3.35,-3.15 0.1,0.15 0.2,0.35 0.35,0.5 -1.05,-0.15 -1.95,-0.85 -2.8,-2 -0.35,-0.55 -0.6,-1.1 -0.7,-1.7 -0.05,-0.25 -0.05,-0.55 -0.1,-0.85 0.3,3.8 -0.15,5.75 -1.35,6.35 -0.95,0.45 -1.7,0.45 -2.35,-0.05 0.45,0.8 0.85,1.65 1.25,2.5 0.65,1.5 1.8,2.3 3.45,2.4 0.1,0.95 -0.5,1.45 -1.75,1.5 -4.55,0.05 -7.5,-1.9 -8.9,-5.95 z"
           inkscape:connector-curvature="0"
           style="fill:#721016" />
        <path
           id="path12"
           d="m -22.4,-18.6 c 0.05,0.5 0.2,1 0.35,1.5 1.4,4.05 4.35,6 8.9,5.95 1.25,-0.05 1.85,-0.55 1.75,-1.5 -1.65,-0.1 -2.8,-0.9 -3.45,-2.4 -0.4,-0.85 -0.8,-1.7 -1.25,-2.5 -0.35,-0.3 -0.65,-0.75 -0.9,-1.3 -0.1,-0.25 -0.2,-0.45 -0.3,-0.65 -0.65,-1.25 -1.5,-1.95 -2.5,-2.1 -0.65,-0.1 -1.35,0.6 -2.15,2.15 -0.15,0.25 -0.3,0.55 -0.45,0.85 z m 13.6,-0.7 c -0.15,-0.15 -0.25,-0.35 -0.35,-0.5 -0.95,-1.45 -2.15,-3.55 -3.5,-6.25 0.15,0.9 0.25,1.7 0.25,2.2 l 0,-0.025 0,0.025 c 0.05,0.3 0.05,0.6 0.1,0.85 0.1,0.6 0.35,1.15 0.7,1.7 0.85,1.15 1.75,1.85 2.8,2 z"
           inkscape:connector-curvature="0"
           style="fill:#8a131b" />
      </g>
      <animate
         attributeName="display"
         begin="0s"
         repeatCount="1"
         dur="0.458s"
         keyTimes="0;0.546;1"
         values="none;inline;none"
         id="animate3390" />
    </g>
    <g
       id="coatOffsideC006_2_208">
      <g
         id="element1">
        <path
           id="path5"
           d="m 6.35,-12.8 c 1.55,-1.95 2.35,-3.65 2.4,-5.1 0,-1.45 -0.4,-3.55 -1.25,-6.4 C 6.65,-27.15 5.85,-29 5.1,-29.85 L 4.95,-29.9 c -0.35,-0.25 -0.9,-0.5 -1.7,-0.85 l -1,-0.4 c -1.65,-0.3 -2.75,0.6 -3.3,2.65 L -2.7,-23 c -1.15,3.95 -1.9,6.7 -2.25,8.2 -0.05,0.25 -0.6,0.65 -1.6,1.2 0.1,-0.05 0.2,-0.1 0.35,-0.15 -0.2,1.35 -0.55,2.8 -1.1,4.3 -0.25,0.65 -0.55,1.25 -0.95,1.8 0.45,-0.25 0.85,-0.5 1.25,-0.8 0.9,-0.3 2.7,-0.55 5.45,-0.8 3.65,-0.4 6.3,-1.6 7.9,-3.55 z"
           inkscape:connector-curvature="0"
           style="fill:#5b0d11" />
        <path
           id="path6"
           d="m -25.8,-14.95 c -0.7,-0.85 -1.35,-1.8 -1.9,-2.75 -0.35,0.3 -0.7,0.6 -1.05,0.95 1.75,5.65 5,9.1 9.65,10.35 3.55,0.95 6.75,0.75 9.6,-0.55 -0.05,0 -0.05,0 -0.05,0.05 0.45,-0.25 0.85,-0.45 1.3,-0.7 l 0,-0.025 0,-0.025 c 0.4,-0.55 0.7,-1.15 0.95,-1.8 0.55,-1.5 0.9,-2.95 1.1,-4.3 -0.15,0.05 -0.25,0.1 -0.35,0.15 l -0.025,0 -0.025,0.025 0,0.025 c -0.05,0 -0.05,0 -0.05,0 -1.2,0.1 -2.35,-0.2 -3.6,-0.9 -0.9,0 -1.8,-0.3 -2.7,-0.9 -1.45,-1 -2.75,-2.25 -3.8,-3.7 -0.05,-0.05 -0.05,-0.1 -0.1,-0.15 -0.45,0.8 -0.85,1.15 -1.25,1.35 -0.55,0.25 -1.1,0.3 -1.8,0.2 0,0.05 0,0.15 0.05,0.25 0.15,0.45 0.3,0.9 0.55,1.25 0.05,0.05 0.05,0.1 0.05,0.15 -0.15,0.15 0,0.6 0.45,1.25 0.75,1.05 1.65,2 2.65,2.9 0.45,0.4 0.55,0.85 0.4,1.4 -2.3,0.75 -4.5,0.35 -6.55,-1.2 -1.3,-0.95 -2.45,-2.05 -3.5,-3.3 z"
           inkscape:connector-curvature="0"
           style="fill:#721016" />
        <path
           id="path7"
           d="m -27.7,-17.7 c 0.55,0.95 1.2,1.9 1.9,2.75 1.05,1.25 2.2,2.35 3.5,3.3 2.05,1.55 4.25,1.95 6.55,1.2 0.15,-0.55 0.05,-1 -0.4,-1.4 -1,-0.9 -1.9,-1.85 -2.65,-2.9 -0.45,-0.65 -0.6,-1.1 -0.45,-1.25 0,-0.05 0,-0.1 -0.05,-0.15 -0.25,-0.35 -0.4,-0.8 -0.55,-1.25 -0.05,-0.1 -0.05,-0.2 -0.05,-0.25 -0.4,-0.05 -0.95,-0.25 -1.45,-0.55 -1.1,-0.7 -2.1,-1.05 -2.95,-1.05 -1.1,0.25 -2.2,0.65 -3,1.3 -0.15,0.05 -0.2,0.1 -0.25,0.15 l -0.15,0.1 z m 10.85,-1.5 c 0.05,0.05 0.05,0.1 0.1,0.15 1.05,1.45 2.35,2.7 3.8,3.7 0.9,0.6 1.8,0.9 2.7,0.9 -0.3,-0.2 -0.6,-0.45 -1.1,-0.85 -1.5,-1.3 -3.1,-3.85 -4.6,-7.5 -0.15,1.4 -0.4,2.5 -0.65,3.1 -0.1,0.25 -0.2,0.5 -0.25,0.5 z"
           inkscape:connector-curvature="0"
           style="fill:#8a131b" />
      </g>
      <animate
         attributeName="display"
         begin="0s"
         repeatCount="1"
         dur="0.458s"
         keyTimes="0;0.364;0.546;1"
         values="none;inline;none;none"
         id="animate3397" />
    </g>
    <g
       id="coatOffsideC006_2_204">
      <g
         id="element">
        <path
           id="path"
           d="m 6.2,-12.1 c 1.65,-2.45 2.5,-4.35 2.55,-5.8 0,-1.45 -0.4,-3.55 -1.25,-6.4 C 6.65,-27.15 5.85,-29 5.1,-29.85 L 4.95,-29.9 c -0.35,-0.25 -0.9,-0.5 -1.7,-0.85 l -1,-0.4 c -1.65,-0.3 -2.75,0.6 -3.3,2.65 L -2.7,-23 c -1.15,3.95 -1.9,6.7 -2.25,8.2 -0.3,1.25 -1.4,2.7 -3.25,4.4 l -0.025,0 0.025,0 c -0.75,1.15 -1.75,2.2 -2.95,3.15 -0.65,0.55 -1.35,1.05 -2,1.45 0.85,-0.1 1.4,-0.15 2,-0.25 2.6,-0.55 5.75,-1.1 9.4,-1.6 3.6,-0.55 6.25,-2 7.95,-4.45 z"
           inkscape:connector-curvature="0"
           style="fill:#5b0d11" />
        <path
           id="path1"
           d="m -25.65,-16.8 c -0.1,-0.05 -0.25,-0.1 -0.45,-0.1 -0.15,-0.05 -0.3,-0.05 -0.45,-0.1 -1.15,-0.35 -2.15,-0.6 -2.9,-0.7 -0.6,0.1 -1.15,0.25 -1.6,0.45 -0.2,0.1 -0.4,0.2 -0.45,0.25 l -0.025,-0.025 -0.025,0 0,0.025 c -0.05,0.05 -0.15,0.1 -0.2,0.1 0.1,0.1 0.2,0.2 0.35,0.25 0.7,0.85 1.35,1.45 2.1,2.05 2.55,2.05 5.45,3.15 8.6,3.25 0.2,-0.25 0.2,-0.5 0,-0.75 -1.1,-1.3 -2.25,-2.55 -3.5,-3.8 -0.25,-0.25 -0.5,-0.55 -0.75,-0.8 -0.2,0 -0.4,-0.05 -0.7,-0.1 z m 3.8,-0.5 c 0.4,0.55 0.85,1.05 1.3,1.6 1.15,1.3 2.5,2.05 4,2.3 -0.45,-0.3 -0.85,-0.6 -1.3,-1.05 -1.25,-1.05 -2.25,-2.55 -2.8,-4.25 -0.3,0.55 -0.65,0.95 -0.85,1.15 l -0.025,-0.025 -0.2,0.15 0.025,0.025 c -0.05,0.05 -0.1,0.05 -0.15,0.1 z"
           inkscape:connector-curvature="0"
           style="fill:#8a131b" />
        <path
           id="path2"
           d="m -24.95,-16.7 c 0.25,0.25 0.5,0.55 0.75,0.8 1.25,1.25 2.4,2.5 3.5,3.8 0.2,0.25 0.2,0.5 0,0.75 -3.15,-0.1 -6.05,-1.2 -8.6,-3.25 -0.75,-0.6 -1.4,-1.2 -2.1,-2.05 -0.15,-0.05 -0.25,-0.15 -0.35,-0.25 -0.5,0.35 -0.85,0.65 -1.1,1 1.85,5.05 5.9,8.35 12.15,9.9 1.6,0.35 3.75,0.45 6.35,0.3 0.5,-0.05 1,-0.1 1.2,-0.1 0.65,-0.4 1.35,-0.9 2,-1.45 1.2,-0.95 2.2,-2 2.95,-3.15 -0.4,-0.05 -0.75,-0.1 -1.25,-0.25 -2.8,-0.6 -5.1,-1.5 -7.1,-2.75 -1.5,-0.25 -2.85,-1 -4,-2.3 -0.45,-0.55 -0.9,-1.05 -1.3,-1.6 0.05,-0.05 0.1,-0.05 0.15,-0.1 -0.5,0.35 -0.95,0.5 -1.45,0.6 -0.6,0.15 -1.15,0.2 -1.8,0.1 z"
           inkscape:connector-curvature="0"
           style="fill:#721016" />
      </g>
      <animate
         attributeName="display"
         begin="0s"
         repeatCount="1"
         dur="0.458s"
         keyTimes="0;0.091;1"
         values="inline;none;none"
         id="animate3404" />
    </g>
  </g>
</svg>
