<?xml version="1.0" encoding="UTF-8" standalone="no"?>
<!-- Generator: flash2svg, http://dissentgraphics.com/tools/flash2svg -->

<svg
   xmlns:dc="http://purl.org/dc/elements/1.1/"
   xmlns:cc="http://creativecommons.org/ns#"
   xmlns:rdf="http://www.w3.org/1999/02/22-rdf-syntax-ns#"
   xmlns:svg="http://www.w3.org/2000/svg"
   xmlns="http://www.w3.org/2000/svg"
   xmlns:sodipodi="http://sodipodi.sourceforge.net/DTD/sodipodi-0.dtd"
   xmlns:inkscape="http://www.inkscape.org/namespaces/inkscape"
   id="AvatarAssets"
   image-rendering="auto"
   version="1.1"
   x="0px"
   y="0px"
   width="28.65909"
   height="49.556347"
   viewBox="0 0 28.65909 49.556347"
   inkscape:version="0.48.4 r9939"
   sodipodi:docname="AvatarAssets_coatOffsideC006.ANI-ignore_walk1x.svg">
  <metadata
     id="metadata3216">
    <rdf:RDF>
      <cc:Work
         rdf:about="">
        <dc:format>image/svg+xml</dc:format>
        <dc:type
           rdf:resource="http://purl.org/dc/dcmitype/StillImage" />
      </cc:Work>
    </rdf:RDF>
  </metadata>
  <sodipodi:namedview
     pagecolor="#ffffff"
     bordercolor="#666666"
     borderopacity="1"
     objecttolerance="10"
     gridtolerance="10"
     guidetolerance="10"
     inkscape:pageopacity="0"
     inkscape:pageshadow="2"
     inkscape:window-width="640"
     inkscape:window-height="480"
     id="namedview3214"
     showgrid="false"
     fit-margin-top="0"
     fit-margin-left="0"
     fit-margin-right="0"
     fit-margin-bottom="0"
     inkscape:zoom="1.9032258"
     inkscape:cx="49.8"
     inkscape:cy="-43.65"
     inkscape:window-x="0"
     inkscape:window-y="0"
     inkscape:window-maximized="0"
     inkscape:current-layer="AvatarAssets" />
  <defs
     id="defs3051" />
  <g
     id="coatOffsideC7"
     overflow="visible"
     style="overflow:visible"
     transform="translate(17.8,31.206348)">
    <g
       id="coatOffsideC006_2_102">
      <g
         id="element31">
        <path
           id="path31"
           d="m 3.25,-30.75 -1,-0.4 c -1.65,-0.3 -2.75,0.6 -3.3,2.65 l -1.65,5.5 1.65,-5.5 c 0,0 -3.2,10 -3.75,13.9 -0.5,3.9 -6.1,14.45 -7.2,17.2 l -5.8,14.75 c 0,0 1.9,-1.95 4.65,-3.35 C -10.4,12.55 -7,13.1 -2.5,12.6 2,12.1 4.45,13.9 4.45,13.9 L 4,12.75 c -0.25,-0.7 0,-2.5 0.75,-5 0.75,-2.5 2.6,-8.6 3.5,-10.9 Q 9,-5 9.95,-8.8 q 1,-4 0.9,-4.95 C 10.7,-14.9 9.9,-17.65 8.45,-22 6.95,-26.35 5.85,-29 5.1,-29.85 L 4.95,-29.9 c -0.35,-0.25 -0.9,-0.5 -1.7,-0.85 z"
           inkscape:connector-curvature="0"
           style="fill:#5b0d11" />
      </g>
      <animate
         attributeName="display"
         begin="0s"
         repeatCount="1"
         dur="3.25s"
         keyTimes="0;0.987;1"
         values="none;inline;none"
         id="animate3057" />
    </g>
    <g
       id="coatOffsideC006_2_96">
      <g
         id="element30">
        <path
           id="path30"
           d="m 3.25,-30.75 -1,-0.4 c -1.65,-0.3 -2.75,0.6 -3.3,2.65 l -1.65,5.5 1.65,-5.5 c 0,0 -3.2,10 -3.75,13.9 -0.5,3.9 -6.1,14.45 -7.2,17.2 l -5.8,14.75 c 0,0 1.9,-1.95 4.65,-3.35 C -10.4,12.55 -7,13.1 -2.5,12.6 2,12.1 4.45,13.9 4.45,13.9 L 4,12.75 c -0.25,-0.7 0,-2.5 0.75,-5 0.75,-2.5 2.6,-8.6 3.5,-10.9 Q 9,-5 9.95,-8.8 q 1,-4 0.9,-4.95 C 10.7,-14.9 9.9,-17.65 8.45,-22 6.95,-26.35 5.85,-29 5.1,-29.85 L 4.95,-29.9 c -0.35,-0.25 -0.9,-0.5 -1.7,-0.85 z"
           inkscape:connector-curvature="0"
           style="fill:#5b0d11" />
      </g>
      <animate
         attributeName="display"
         begin="0s"
         repeatCount="1"
         dur="3.25s"
         keyTimes="0;0.91;0.987;1"
         values="none;inline;none;none"
         id="animate3062" />
    </g>
    <g
       id="coatOffsideC006_2_94">
      <g
         id="element29">
        <path
           id="path29"
           d="m 2.55,-31.05 q -0.3,-0.05 -0.6,-0.1 c -1.35,-0.15 -2.3,0.65 -2.85,2.3 -0.1,0.25 -0.2,0.5 -0.25,0.75 l -1.4,4.6 c -0.1,0.35 -0.2,0.65 -0.3,1 -0.95,3.3 -1.55,5.75 -1.8,7.3 -0.05,0.45 -0.1,0.85 -0.2,1.25 -0.3,1.65 -1.15,4.1 -2.6,7.35 -0.05,0.15 -0.15,0.3 -0.2,0.45 -1.05,2.35 -2.25,5.05 -3.6,8.1 -0.45,1.05 -0.85,2.15 -1.3,3.2 -1.7,4.15 -2.75,8.05 -3.1,11.7 l 0.05,-0.05 c 0.35,-0.35 0.75,-0.65 1.2,-1 1.05,-0.75 2.2,-1.4 3.35,-1.9 0.3,-0.15 0.6,-0.25 0.95,-0.35 1.15,-0.35 2.35,-0.6 3.7,-0.75 0.65,-0.1 1.35,-0.15 2.15,-0.2 1.25,-0.15 2.55,-0.2 3.9,-0.25 0.3,0 0.6,0 0.85,0 1.35,0 2.75,0.2 4.2,0.6 0.45,0.15 0.9,0.3 1.3,0.45 0.05,0 0.1,0 0.15,0 C 5.9,13.05 5.7,12.65 5.5,12.25 4.9,11.15 4.8,9.55 5.15,7.4 5.2,7 5.25,6.6 5.3,6.2 5.85,3.2 6.6,0.7 7.45,-1.3 7.75,-2.05 8,-2.75 8.25,-3.35 8.85,-4.8 9.4,-6.6 9.95,-8.75 l 0,-0.05 c 0.65,-2.65 0.95,-4.25 0.9,-4.9 l 0,-0.05 c -0.15,-1.15 -0.9,-3.85 -2.35,-8.1 -0.05,-0.1 -0.05,-0.2 -0.1,-0.3 -1.35,-3.95 -2.35,-6.4 -3.1,-7.4 C 5.25,-29.6 5.25,-29.6 5.2,-29.65 5.1,-29.8 5,-29.9 4.85,-29.95 4.8,-30 4.75,-30 4.7,-30.05 4.45,-30.2 4.05,-30.4 3.6,-30.6 3.4,-30.65 3.2,-30.75 2.95,-30.85 l -0.4,-0.2 z"
           inkscape:connector-curvature="0"
           style="fill:#5b0d11" />
      </g>
      <animate
         attributeName="display"
         begin="0s"
         repeatCount="1"
         dur="3.25s"
         keyTimes="0;0.885;0.91;1"
         values="none;inline;none;none"
         id="animate3067" />
    </g>
    <g
       id="coatOffsideC006_2_92">
      <g
         id="element28">
        <path
           id="path28"
           d="m 7.35,-1.6 c 1.05,-2.25 1.95,-4.65 2.6,-7.25 0.65,-2.65 0.95,-4.25 0.9,-4.9 C 10.7,-14.9 9.9,-17.65 8.45,-22 6.95,-26.35 5.85,-29 5.1,-29.85 L 4.95,-29.9 c -0.35,-0.25 -0.9,-0.5 -1.7,-0.85 l -1,-0.4 c -1.65,-0.3 -2.75,0.6 -3.3,2.65 L -2.7,-23 c -1.15,3.95 -1.8,6.75 -1.95,8.4 -0.15,1.6 -0.95,4.05 -2.3,7.4 -1.4,3.3 -3.05,7.15 -4.9,11.6 -1.85,4.45 -2.45,8.4 -1.7,11.9 1.6,-1.35 3.45,-2.3 5.55,-2.85 2.1,-0.6 4.05,-1 5.85,-1.15 C -0.4,12.1 1.2,12.05 2.6,12.15 4,12.25 5.75,12.55 7.9,13.1 6.15,10.95 5.35,8.55 5.5,5.8 5.65,3.05 6.3,0.6 7.35,-1.6 z"
           inkscape:connector-curvature="0"
           style="fill:#5b0d11" />
      </g>
      <animate
         attributeName="display"
         begin="0s"
         repeatCount="1"
         dur="3.25s"
         keyTimes="0;0.859;0.885;1"
         values="none;inline;none;none"
         id="animate3072" />
    </g>
    <g
       id="coatOffsideC006_2_90">
      <g
         id="element27">
        <path
           id="path27"
           d="m 8.25,-1.85 c 0.45,-2.05 1.05,-4.4 1.7,-7 0.65,-2.65 0.95,-4.25 0.9,-4.9 C 10.7,-14.9 9.9,-17.65 8.45,-22 6.95,-26.35 5.85,-29 5.1,-29.85 L 4.95,-29.9 c -0.35,-0.25 -0.9,-0.5 -1.7,-0.85 l -1,-0.4 c -1.65,-0.3 -2.75,0.6 -3.3,2.65 L -2.7,-23 c -1.15,3.95 -1.8,6.75 -1.95,8.4 -0.15,1.6 -0.8,4.1 -1.85,7.55 -1.1,3.45 -2.5,7.45 -4.15,12.1 -2.2,6.1 -2.45,10.5 -0.75,13.25 0.2,-2.25 1.3,-3.65 3.25,-4.2 2.1,-0.65 3.75,-1 4.95,-1.05 1.2,-0.15 2.7,-0.1 4.45,0.15 1.75,0.15 3.1,0.4 4.1,0.7 l 3.9,0.6 C 7.9,12.35 7.25,9.6 7.35,6.25 7.4,2.85 7.7,0.15 8.25,-1.85 z"
           inkscape:connector-curvature="0"
           style="fill:#5b0d11" />
      </g>
      <animate
         attributeName="display"
         begin="0s"
         repeatCount="1"
         dur="3.25s"
         keyTimes="0;0.833;0.859;1"
         values="none;inline;none;none"
         id="animate3077" />
    </g>
    <g
       id="coatOffsideC006_2_88">
      <g
         id="element26">
        <path
           id="path26"
           d="m 4.95,-29.9 c -0.35,-0.25 -0.9,-0.5 -1.7,-0.85 l -1,-0.4 c -1.65,-0.3 -2.75,0.6 -3.3,2.65 L -2.7,-23 c -1.15,3.95 -1.85,6.75 -2.05,8.4 -0.25,1.6 -0.9,4.05 -2.05,7.35 -1.15,3.3 -2.5,6.6 -3.95,9.85 -2.9,5.5 -4.5,10.75 -4.85,15.75 1.4,-2 2.75,-3.2 4,-3.65 1.25,-0.45 2.55,-0.85 3.9,-1.15 1.35,-0.3 3.05,-0.55 5.1,-0.7 2.05,-0.15 3.6,-0.1 4.75,0.2 C 3.3,13.3 4.8,13.65 6.7,14 L 6.05,12.15 C 5.5,10.05 5.6,7.4 6.25,4.2 6.9,0.95 7.6,-1.5 8.25,-3.15 Q 9,-5 9.95,-8.8 q 1,-4 0.9,-4.95 C 10.7,-14.9 9.9,-17.65 8.45,-22 6.95,-26.35 5.85,-29 5.1,-29.85 L 4.95,-29.9 z"
           inkscape:connector-curvature="0"
           style="fill:#5b0d11" />
      </g>
      <animate
         attributeName="display"
         begin="0s"
         repeatCount="1"
         dur="3.25s"
         keyTimes="0;0.808;0.833;1"
         values="none;inline;none;none"
         id="animate3082" />
    </g>
    <g
       id="coatOffsideC006_2_84">
      <g
         id="element25">
        <path
           id="path25"
           d="m 3.25,-30.75 -1,-0.4 c -1.65,-0.3 -2.75,0.6 -3.3,2.65 l -1.65,5.5 1.65,-5.5 c 0,0 -3.2,10 -3.75,13.9 -0.5,3.9 -6.1,14.45 -7.2,17.2 l -5.8,14.75 c 0,0 1.9,-1.95 4.65,-3.35 C -10.4,12.55 -7,13.1 -2.5,12.6 2,12.1 4.45,13.9 4.45,13.9 L 4,12.75 c -0.25,-0.7 0,-2.5 0.75,-5 0.75,-2.5 2.6,-8.6 3.5,-10.9 Q 9,-5 9.95,-8.8 q 1,-4 0.9,-4.95 C 10.7,-14.9 9.9,-17.65 8.45,-22 6.95,-26.35 5.85,-29 5.1,-29.85 L 4.95,-29.9 c -0.35,-0.25 -0.9,-0.5 -1.7,-0.85 z"
           inkscape:connector-curvature="0"
           style="fill:#5b0d11" />
      </g>
      <animate
         attributeName="display"
         begin="0s"
         repeatCount="1"
         dur="3.25s"
         keyTimes="0;0.756;0.808;1"
         values="none;inline;none;none"
         id="animate3087" />
    </g>
    <g
       id="coatOffsideC006_2_82">
      <g
         id="element24">
        <path
           id="path24"
           d="m 2.55,-31.05 q -0.3,-0.05 -0.6,-0.1 c -1.35,-0.15 -2.3,0.65 -2.85,2.3 -0.1,0.25 -0.2,0.5 -0.25,0.75 l -1.4,4.6 c -0.1,0.35 -0.2,0.65 -0.3,1 -0.95,3.3 -1.55,5.75 -1.8,7.3 -0.05,0.45 -0.1,0.85 -0.2,1.25 -0.3,1.65 -1.15,4.1 -2.6,7.35 -0.05,0.15 -0.15,0.3 -0.2,0.45 -1.05,2.35 -2.25,5.05 -3.6,8.1 -0.45,1.05 -0.85,2.15 -1.3,3.2 -1.7,4.15 -2.75,8.05 -3.1,11.7 l 0.05,-0.05 c 0.35,-0.35 0.75,-0.65 1.2,-1 1.05,-0.75 2.2,-1.4 3.35,-1.9 0.3,-0.15 0.6,-0.25 0.95,-0.35 1.15,-0.35 2.35,-0.6 3.7,-0.75 0.65,-0.1 1.35,-0.15 2.15,-0.2 1.25,-0.15 2.55,-0.2 3.9,-0.25 0.3,0 0.6,0 0.85,0 1.35,0 2.75,0.2 4.2,0.6 0.45,0.15 0.9,0.3 1.3,0.45 0.05,0 0.1,0 0.15,0 C 5.9,13.05 5.7,12.65 5.5,12.25 4.9,11.15 4.8,9.55 5.15,7.4 5.2,7 5.25,6.6 5.3,6.2 5.85,3.2 6.6,0.7 7.45,-1.3 7.75,-2.05 8,-2.75 8.25,-3.35 8.85,-4.8 9.4,-6.6 9.95,-8.75 l 0,-0.05 c 0.65,-2.65 0.95,-4.25 0.9,-4.9 l 0,-0.05 c -0.15,-1.15 -0.9,-3.85 -2.35,-8.1 -0.05,-0.1 -0.05,-0.2 -0.1,-0.3 -1.35,-3.95 -2.35,-6.4 -3.1,-7.4 C 5.25,-29.6 5.25,-29.6 5.2,-29.65 5.1,-29.8 5,-29.9 4.85,-29.95 4.8,-30 4.75,-30 4.7,-30.05 4.45,-30.2 4.05,-30.4 3.6,-30.6 3.4,-30.65 3.2,-30.75 2.95,-30.85 l -0.4,-0.2 z"
           inkscape:connector-curvature="0"
           style="fill:#5b0d11" />
      </g>
      <animate
         attributeName="display"
         begin="0s"
         repeatCount="1"
         dur="3.25s"
         keyTimes="0;0.731;0.756;1"
         values="none;inline;none;none"
         id="animate3092" />
    </g>
    <g
       id="coatOffsideC006_2_80">
      <g
         id="element23">
        <path
           id="path23"
           d="m 7.35,-1.6 c 1.05,-2.25 1.95,-4.65 2.6,-7.25 0.65,-2.65 0.95,-4.25 0.9,-4.9 C 10.7,-14.9 9.9,-17.65 8.45,-22 6.95,-26.35 5.85,-29 5.1,-29.85 L 4.95,-29.9 c -0.35,-0.25 -0.9,-0.5 -1.7,-0.85 l -1,-0.4 c -1.65,-0.3 -2.75,0.6 -3.3,2.65 L -2.7,-23 c -1.15,3.95 -1.8,6.75 -1.95,8.4 -0.15,1.6 -0.95,4.05 -2.3,7.4 -1.4,3.3 -3.05,7.15 -4.9,11.6 -1.85,4.45 -2.45,8.4 -1.7,11.9 1.6,-1.35 3.45,-2.3 5.55,-2.85 2.1,-0.6 4.05,-1 5.85,-1.15 C -0.4,12.1 1.2,12.05 2.6,12.15 4,12.25 5.75,12.55 7.9,13.1 6.15,10.95 5.35,8.55 5.5,5.8 5.65,3.05 6.3,0.6 7.35,-1.6 z"
           inkscape:connector-curvature="0"
           style="fill:#5b0d11" />
      </g>
      <animate
         attributeName="display"
         begin="0s"
         repeatCount="1"
         dur="3.25s"
         keyTimes="0;0.705;0.731;1"
         values="none;inline;none;none"
         id="animate3097" />
    </g>
    <g
       id="coatOffsideC006_2_78">
      <g
         id="element22">
        <path
           id="path22"
           d="m 8.25,-1.85 c 0.45,-2.05 1.05,-4.4 1.7,-7 0.65,-2.65 0.95,-4.25 0.9,-4.9 C 10.7,-14.9 9.9,-17.65 8.45,-22 6.95,-26.35 5.85,-29 5.1,-29.85 L 4.95,-29.9 c -0.35,-0.25 -0.9,-0.5 -1.7,-0.85 l -1,-0.4 c -1.65,-0.3 -2.75,0.6 -3.3,2.65 L -2.7,-23 c -1.15,3.95 -1.8,6.75 -1.95,8.4 -0.15,1.6 -0.8,4.1 -1.85,7.55 -1.1,3.45 -2.5,7.45 -4.15,12.1 -2.2,6.1 -2.45,10.5 -0.75,13.25 0.2,-2.25 1.3,-3.65 3.25,-4.2 2.1,-0.65 3.75,-1 4.95,-1.05 1.2,-0.15 2.7,-0.1 4.45,0.15 1.75,0.15 3.1,0.4 4.1,0.7 l 3.9,0.6 C 7.9,12.35 7.25,9.6 7.35,6.25 7.4,2.85 7.7,0.15 8.25,-1.85 z"
           inkscape:connector-curvature="0"
           style="fill:#5b0d11" />
      </g>
      <animate
         attributeName="display"
         begin="0s"
         repeatCount="1"
         dur="3.25s"
         keyTimes="0;0.679;0.705;1"
         values="none;inline;none;none"
         id="animate3102" />
    </g>
    <g
       id="coatOffsideC006_2_76">
      <g
         id="element21">
        <path
           id="path21"
           d="m 4.95,-29.9 c -0.35,-0.25 -0.9,-0.5 -1.7,-0.85 l -1,-0.4 c -1.65,-0.3 -2.75,0.6 -3.3,2.65 L -2.7,-23 c -1.15,3.95 -1.85,6.75 -2.05,8.4 -0.25,1.6 -0.9,4.05 -2.05,7.35 -1.15,3.3 -2.5,6.6 -3.95,9.85 -2.9,5.5 -4.5,10.75 -4.85,15.75 1.4,-2 2.75,-3.2 4,-3.65 1.25,-0.45 2.55,-0.85 3.9,-1.15 1.35,-0.3 3.05,-0.55 5.1,-0.7 2.05,-0.15 3.6,-0.1 4.75,0.2 C 3.3,13.3 4.8,13.65 6.7,14 L 6.05,12.15 C 5.5,10.05 5.6,7.4 6.25,4.2 6.9,0.95 7.6,-1.5 8.25,-3.15 Q 9,-5 9.95,-8.8 q 1,-4 0.9,-4.95 C 10.7,-14.9 9.9,-17.65 8.45,-22 6.95,-26.35 5.85,-29 5.1,-29.85 L 4.95,-29.9 z"
           inkscape:connector-curvature="0"
           style="fill:#5b0d11" />
      </g>
      <animate
         attributeName="display"
         begin="0s"
         repeatCount="1"
         dur="3.25s"
         keyTimes="0;0.654;0.679;1"
         values="none;inline;none;none"
         id="animate3107" />
    </g>
    <g
       id="coatOffsideC006_2_72">
      <g
         id="element20">
        <path
           id="path20"
           d="m 3.25,-30.75 -1,-0.4 c -1.65,-0.3 -2.75,0.6 -3.3,2.65 l -1.65,5.5 1.65,-5.5 c 0,0 -3.2,10 -3.75,13.9 -0.5,3.9 -6.1,14.45 -7.2,17.2 l -5.8,14.75 c 0,0 1.9,-1.95 4.65,-3.35 C -10.4,12.55 -7,13.1 -2.5,12.6 2,12.1 4.45,13.9 4.45,13.9 L 4,12.75 c -0.25,-0.7 0,-2.5 0.75,-5 0.75,-2.5 2.6,-8.6 3.5,-10.9 Q 9,-5 9.95,-8.8 q 1,-4 0.9,-4.95 C 10.7,-14.9 9.9,-17.65 8.45,-22 6.95,-26.35 5.85,-29 5.1,-29.85 L 4.95,-29.9 c -0.35,-0.25 -0.9,-0.5 -1.7,-0.85 z"
           inkscape:connector-curvature="0"
           style="fill:#5b0d11" />
      </g>
      <animate
         attributeName="display"
         begin="0s"
         repeatCount="1"
         dur="3.25s"
         keyTimes="0;0.603;0.654;1"
         values="none;inline;none;none"
         id="animate3112" />
    </g>
    <g
       id="coatOffsideC006_2_70">
      <g
         id="element19">
        <path
           id="path19"
           d="m 2.55,-31.05 q -0.3,-0.05 -0.6,-0.1 c -1.35,-0.15 -2.3,0.65 -2.85,2.3 -0.1,0.25 -0.2,0.5 -0.25,0.75 l -1.4,4.6 c -0.1,0.35 -0.2,0.65 -0.3,1 -0.95,3.3 -1.55,5.75 -1.8,7.3 -0.05,0.45 -0.1,0.85 -0.2,1.25 -0.3,1.65 -1.15,4.1 -2.6,7.35 -0.05,0.15 -0.15,0.3 -0.2,0.45 -1.05,2.35 -2.25,5.05 -3.6,8.1 -0.45,1.05 -0.85,2.15 -1.3,3.2 -1.7,4.15 -2.75,8.05 -3.1,11.7 l 0.05,-0.05 c 0.35,-0.35 0.75,-0.65 1.2,-1 1.05,-0.75 2.2,-1.4 3.35,-1.9 0.3,-0.15 0.6,-0.25 0.95,-0.35 1.15,-0.35 2.35,-0.6 3.7,-0.75 0.65,-0.1 1.35,-0.15 2.15,-0.2 1.25,-0.15 2.55,-0.2 3.9,-0.25 0.3,0 0.6,0 0.85,0 1.35,0 2.75,0.2 4.2,0.6 0.45,0.15 0.9,0.3 1.3,0.45 0.05,0 0.1,0 0.15,0 C 5.9,13.05 5.7,12.65 5.5,12.25 4.9,11.15 4.8,9.55 5.15,7.4 5.2,7 5.25,6.6 5.3,6.2 5.85,3.2 6.6,0.7 7.45,-1.3 7.75,-2.05 8,-2.75 8.25,-3.35 8.85,-4.8 9.4,-6.6 9.95,-8.75 l 0,-0.05 c 0.65,-2.65 0.95,-4.25 0.9,-4.9 l 0,-0.05 c -0.15,-1.15 -0.9,-3.85 -2.35,-8.1 -0.05,-0.1 -0.05,-0.2 -0.1,-0.3 -1.35,-3.95 -2.35,-6.4 -3.1,-7.4 C 5.25,-29.6 5.25,-29.6 5.2,-29.65 5.1,-29.8 5,-29.9 4.85,-29.95 4.8,-30 4.75,-30 4.7,-30.05 4.45,-30.2 4.05,-30.4 3.6,-30.6 3.4,-30.65 3.2,-30.75 2.95,-30.85 l -0.4,-0.2 z"
           inkscape:connector-curvature="0"
           style="fill:#5b0d11" />
      </g>
      <animate
         attributeName="display"
         begin="0s"
         repeatCount="1"
         dur="3.25s"
         keyTimes="0;0.577;0.603;1"
         values="none;inline;none;none"
         id="animate3117" />
    </g>
    <g
       id="coatOffsideC006_2_68">
      <g
         id="element18">
        <path
           id="path18"
           d="m 7.35,-1.6 c 1.05,-2.25 1.95,-4.65 2.6,-7.25 0.65,-2.65 0.95,-4.25 0.9,-4.9 C 10.7,-14.9 9.9,-17.65 8.45,-22 6.95,-26.35 5.85,-29 5.1,-29.85 L 4.95,-29.9 c -0.35,-0.25 -0.9,-0.5 -1.7,-0.85 l -1,-0.4 c -1.65,-0.3 -2.75,0.6 -3.3,2.65 L -2.7,-23 c -1.15,3.95 -1.8,6.75 -1.95,8.4 -0.15,1.6 -0.95,4.05 -2.3,7.4 -1.4,3.3 -3.05,7.15 -4.9,11.6 -1.85,4.45 -2.45,8.4 -1.7,11.9 1.6,-1.35 3.45,-2.3 5.55,-2.85 2.1,-0.6 4.05,-1 5.85,-1.15 C -0.4,12.1 1.2,12.05 2.6,12.15 4,12.25 5.75,12.55 7.9,13.1 6.15,10.95 5.35,8.55 5.5,5.8 5.65,3.05 6.3,0.6 7.35,-1.6 z"
           inkscape:connector-curvature="0"
           style="fill:#5b0d11" />
      </g>
      <animate
         attributeName="display"
         begin="0s"
         repeatCount="1"
         dur="3.25s"
         keyTimes="0;0.551;0.577;1"
         values="none;inline;none;none"
         id="animate3122" />
    </g>
    <g
       id="coatOffsideC006_2_66">
      <g
         id="element17">
        <path
           id="path17"
           d="m 8.25,-1.85 c 0.45,-2.05 1.05,-4.4 1.7,-7 0.65,-2.65 0.95,-4.25 0.9,-4.9 C 10.7,-14.9 9.9,-17.65 8.45,-22 6.95,-26.35 5.85,-29 5.1,-29.85 L 4.95,-29.9 c -0.35,-0.25 -0.9,-0.5 -1.7,-0.85 l -1,-0.4 c -1.65,-0.3 -2.75,0.6 -3.3,2.65 L -2.7,-23 c -1.15,3.95 -1.8,6.75 -1.95,8.4 -0.15,1.6 -0.8,4.1 -1.85,7.55 -1.1,3.45 -2.5,7.45 -4.15,12.1 -2.2,6.1 -2.45,10.5 -0.75,13.25 0.2,-2.25 1.3,-3.65 3.25,-4.2 2.1,-0.65 3.75,-1 4.95,-1.05 1.2,-0.15 2.7,-0.1 4.45,0.15 1.75,0.15 3.1,0.4 4.1,0.7 l 3.9,0.6 C 7.9,12.35 7.25,9.6 7.35,6.25 7.4,2.85 7.7,0.15 8.25,-1.85 z"
           inkscape:connector-curvature="0"
           style="fill:#5b0d11" />
      </g>
      <animate
         attributeName="display"
         begin="0s"
         repeatCount="1"
         dur="3.25s"
         keyTimes="0;0.526;0.551;1"
         values="none;inline;none;none"
         id="animate3127" />
    </g>
    <g
       id="coatOffsideC006_2_64">
      <g
         id="element16">
        <path
           id="path16"
           d="m 4.95,-29.9 c -0.35,-0.25 -0.9,-0.5 -1.7,-0.85 l -1,-0.4 c -1.65,-0.3 -2.75,0.6 -3.3,2.65 L -2.7,-23 c -1.15,3.95 -1.85,6.75 -2.05,8.4 -0.25,1.6 -0.9,4.05 -2.05,7.35 -1.15,3.3 -2.5,6.6 -3.95,9.85 -2.9,5.5 -4.5,10.75 -4.85,15.75 1.4,-2 2.75,-3.2 4,-3.65 1.25,-0.45 2.55,-0.85 3.9,-1.15 1.35,-0.3 3.05,-0.55 5.1,-0.7 2.05,-0.15 3.6,-0.1 4.75,0.2 C 3.3,13.3 4.8,13.65 6.7,14 L 6.05,12.15 C 5.5,10.05 5.6,7.4 6.25,4.2 6.9,0.95 7.6,-1.5 8.25,-3.15 Q 9,-5 9.95,-8.8 q 1,-4 0.9,-4.95 C 10.7,-14.9 9.9,-17.65 8.45,-22 6.95,-26.35 5.85,-29 5.1,-29.85 L 4.95,-29.9 z"
           inkscape:connector-curvature="0"
           style="fill:#5b0d11" />
      </g>
      <animate
         attributeName="display"
         begin="0s"
         repeatCount="1"
         dur="3.25s"
         keyTimes="0;0.5;0.526;1"
         values="none;inline;none;none"
         id="animate3132" />
    </g>
    <g
       id="coatOffsideC006_2_60">
      <g
         id="element15">
        <path
           id="path15"
           d="m 3.25,-30.75 -1,-0.4 c -1.65,-0.3 -2.75,0.6 -3.3,2.65 l -1.65,5.5 1.65,-5.5 c 0,0 -3.2,10 -3.75,13.9 -0.5,3.9 -6.1,14.45 -7.2,17.2 l -5.8,14.75 c 0,0 1.9,-1.95 4.65,-3.35 C -10.4,12.55 -7,13.1 -2.5,12.6 2,12.1 4.45,13.9 4.45,13.9 L 4,12.75 c -0.25,-0.7 0,-2.5 0.75,-5 0.75,-2.5 2.6,-8.6 3.5,-10.9 Q 9,-5 9.95,-8.8 q 1,-4 0.9,-4.95 C 10.7,-14.9 9.9,-17.65 8.45,-22 6.95,-26.35 5.85,-29 5.1,-29.85 L 4.95,-29.9 c -0.35,-0.25 -0.9,-0.5 -1.7,-0.85 z"
           inkscape:connector-curvature="0"
           style="fill:#5b0d11" />
      </g>
      <animate
         attributeName="display"
         begin="0s"
         repeatCount="1"
         dur="3.25s"
         keyTimes="0;0.449;0.5;1"
         values="none;inline;none;none"
         id="animate3137" />
    </g>
    <g
       id="coatOffsideC006_2_58">
      <g
         id="element14">
        <path
           id="path14"
           d="m 2.55,-31.05 q -0.3,-0.05 -0.6,-0.1 c -1.35,-0.15 -2.3,0.65 -2.85,2.3 -0.1,0.25 -0.2,0.5 -0.25,0.75 l -1.4,4.6 c -0.1,0.35 -0.2,0.65 -0.3,1 -0.95,3.3 -1.55,5.75 -1.8,7.3 -0.05,0.45 -0.1,0.85 -0.2,1.25 -0.3,1.65 -1.15,4.1 -2.6,7.35 -0.05,0.15 -0.15,0.3 -0.2,0.45 -1.05,2.35 -2.25,5.05 -3.6,8.1 -0.45,1.05 -0.85,2.15 -1.3,3.2 -1.7,4.15 -2.75,8.05 -3.1,11.7 l 0.05,-0.05 c 0.35,-0.35 0.75,-0.65 1.2,-1 1.05,-0.75 2.2,-1.4 3.35,-1.9 0.3,-0.15 0.6,-0.25 0.95,-0.35 1.15,-0.35 2.35,-0.6 3.7,-0.75 0.65,-0.1 1.35,-0.15 2.15,-0.2 1.25,-0.15 2.55,-0.2 3.9,-0.25 0.3,0 0.6,0 0.85,0 1.35,0 2.75,0.2 4.2,0.6 0.45,0.15 0.9,0.3 1.3,0.45 0.05,0 0.1,0 0.15,0 C 5.9,13.05 5.7,12.65 5.5,12.25 4.9,11.15 4.8,9.55 5.15,7.4 5.2,7 5.25,6.6 5.3,6.2 5.85,3.2 6.6,0.7 7.45,-1.3 7.75,-2.05 8,-2.75 8.25,-3.35 8.85,-4.8 9.4,-6.6 9.95,-8.75 l 0,-0.05 c 0.65,-2.65 0.95,-4.25 0.9,-4.9 l 0,-0.05 c -0.15,-1.15 -0.9,-3.85 -2.35,-8.1 -0.05,-0.1 -0.05,-0.2 -0.1,-0.3 -1.35,-3.95 -2.35,-6.4 -3.1,-7.4 C 5.25,-29.6 5.25,-29.6 5.2,-29.65 5.1,-29.8 5,-29.9 4.85,-29.95 4.8,-30 4.75,-30 4.7,-30.05 4.45,-30.2 4.05,-30.4 3.6,-30.6 3.4,-30.65 3.2,-30.75 2.95,-30.85 l -0.4,-0.2 z"
           inkscape:connector-curvature="0"
           style="fill:#5b0d11" />
      </g>
      <animate
         attributeName="display"
         begin="0s"
         repeatCount="1"
         dur="3.25s"
         keyTimes="0;0.423;0.449;1"
         values="none;inline;none;none"
         id="animate3142" />
    </g>
    <g
       id="coatOffsideC006_2_56">
      <g
         id="element13">
        <path
           id="path13"
           d="m 7.35,-1.6 c 1.05,-2.25 1.95,-4.65 2.6,-7.25 0.65,-2.65 0.95,-4.25 0.9,-4.9 C 10.7,-14.9 9.9,-17.65 8.45,-22 6.95,-26.35 5.85,-29 5.1,-29.85 L 4.95,-29.9 c -0.35,-0.25 -0.9,-0.5 -1.7,-0.85 l -1,-0.4 c -1.65,-0.3 -2.75,0.6 -3.3,2.65 L -2.7,-23 c -1.15,3.95 -1.8,6.75 -1.95,8.4 -0.15,1.6 -0.95,4.05 -2.3,7.4 -1.4,3.3 -3.05,7.15 -4.9,11.6 -1.85,4.45 -2.45,8.4 -1.7,11.9 1.6,-1.35 3.45,-2.3 5.55,-2.85 2.1,-0.6 4.05,-1 5.85,-1.15 C -0.4,12.1 1.2,12.05 2.6,12.15 4,12.25 5.75,12.55 7.9,13.1 6.15,10.95 5.35,8.55 5.5,5.8 5.65,3.05 6.3,0.6 7.35,-1.6 z"
           inkscape:connector-curvature="0"
           style="fill:#5b0d11" />
      </g>
      <animate
         attributeName="display"
         begin="0s"
         repeatCount="1"
         dur="3.25s"
         keyTimes="0;0.397;0.423;1"
         values="none;inline;none;none"
         id="animate3147" />
    </g>
    <g
       id="coatOffsideC006_2_54">
      <g
         id="element12">
        <path
           id="path12"
           d="m 8.25,-1.85 c 0.45,-2.05 1.05,-4.4 1.7,-7 0.65,-2.65 0.95,-4.25 0.9,-4.9 C 10.7,-14.9 9.9,-17.65 8.45,-22 6.95,-26.35 5.85,-29 5.1,-29.85 L 4.95,-29.9 c -0.35,-0.25 -0.9,-0.5 -1.7,-0.85 l -1,-0.4 c -1.65,-0.3 -2.75,0.6 -3.3,2.65 L -2.7,-23 c -1.15,3.95 -1.8,6.75 -1.95,8.4 -0.15,1.6 -0.8,4.1 -1.85,7.55 -1.1,3.45 -2.5,7.45 -4.15,12.1 -2.2,6.1 -2.45,10.5 -0.75,13.25 0.2,-2.25 1.3,-3.65 3.25,-4.2 2.1,-0.65 3.75,-1 4.95,-1.05 1.2,-0.15 2.7,-0.1 4.45,0.15 1.75,0.15 3.1,0.4 4.1,0.7 l 3.9,0.6 C 7.9,12.35 7.25,9.6 7.35,6.25 7.4,2.85 7.7,0.15 8.25,-1.85 z"
           inkscape:connector-curvature="0"
           style="fill:#5b0d11" />
      </g>
      <animate
         attributeName="display"
         begin="0s"
         repeatCount="1"
         dur="3.25s"
         keyTimes="0;0.372;0.397;1"
         values="none;inline;none;none"
         id="animate3152" />
    </g>
    <g
       id="coatOffsideC006_2_52">
      <g
         id="element11">
        <path
           id="path11"
           d="m 4.95,-29.9 c -0.35,-0.25 -0.9,-0.5 -1.7,-0.85 l -1,-0.4 c -1.65,-0.3 -2.75,0.6 -3.3,2.65 L -2.7,-23 c -1.15,3.95 -1.85,6.75 -2.05,8.4 -0.25,1.6 -0.9,4.05 -2.05,7.35 -1.15,3.3 -2.5,6.6 -3.95,9.85 -2.9,5.5 -4.5,10.75 -4.85,15.75 1.4,-2 2.75,-3.2 4,-3.65 1.25,-0.45 2.55,-0.85 3.9,-1.15 1.35,-0.3 3.05,-0.55 5.1,-0.7 2.05,-0.15 3.6,-0.1 4.75,0.2 C 3.3,13.3 4.8,13.65 6.7,14 L 6.05,12.15 C 5.5,10.05 5.6,7.4 6.25,4.2 6.9,0.95 7.6,-1.5 8.25,-3.15 Q 9,-5 9.95,-8.8 q 1,-4 0.9,-4.95 C 10.7,-14.9 9.9,-17.65 8.45,-22 6.95,-26.35 5.85,-29 5.1,-29.85 L 4.95,-29.9 z"
           inkscape:connector-curvature="0"
           style="fill:#5b0d11" />
      </g>
      <animate
         attributeName="display"
         begin="0s"
         repeatCount="1"
         dur="3.25s"
         keyTimes="0;0.346;0.372;1"
         values="none;inline;none;none"
         id="animate3157" />
    </g>
    <g
       id="coatOffsideC006_2_48">
      <g
         id="element10">
        <path
           id="path10"
           d="m 3.25,-30.75 -1,-0.4 c -1.65,-0.3 -2.75,0.6 -3.3,2.65 l -1.65,5.5 1.65,-5.5 c 0,0 -3.2,10 -3.75,13.9 -0.5,3.9 -6.1,14.45 -7.2,17.2 l -5.8,14.75 c 0,0 1.9,-1.95 4.65,-3.35 C -10.4,12.55 -7,13.1 -2.5,12.6 2,12.1 4.45,13.9 4.45,13.9 L 4,12.75 c -0.25,-0.7 0,-2.5 0.75,-5 0.75,-2.5 2.6,-8.6 3.5,-10.9 Q 9,-5 9.95,-8.8 q 1,-4 0.9,-4.95 C 10.7,-14.9 9.9,-17.65 8.45,-22 6.95,-26.35 5.85,-29 5.1,-29.85 L 4.95,-29.9 c -0.35,-0.25 -0.9,-0.5 -1.7,-0.85 z"
           inkscape:connector-curvature="0"
           style="fill:#5b0d11" />
      </g>
      <animate
         attributeName="display"
         begin="0s"
         repeatCount="1"
         dur="3.25s"
         keyTimes="0;0.295;0.346;1"
         values="none;inline;none;none"
         id="animate3162" />
    </g>
    <g
       id="coatOffsideC006_2_46">
      <g
         id="element9">
        <path
           id="path9"
           d="m 2.55,-31.05 q -0.3,-0.05 -0.6,-0.1 c -1.35,-0.15 -2.3,0.65 -2.85,2.3 -0.1,0.25 -0.2,0.5 -0.25,0.75 l -1.4,4.6 c -0.1,0.35 -0.2,0.65 -0.3,1 -0.95,3.3 -1.55,5.75 -1.8,7.3 -0.05,0.45 -0.1,0.85 -0.2,1.25 -0.3,1.65 -1.15,4.1 -2.6,7.35 -0.05,0.15 -0.15,0.3 -0.2,0.45 -1.05,2.35 -2.25,5.05 -3.6,8.1 -0.45,1.05 -0.85,2.15 -1.3,3.2 -1.7,4.15 -2.75,8.05 -3.1,11.7 l 0.05,-0.05 c 0.35,-0.35 0.75,-0.65 1.2,-1 1.05,-0.75 2.2,-1.4 3.35,-1.9 0.3,-0.15 0.6,-0.25 0.95,-0.35 1.15,-0.35 2.35,-0.6 3.7,-0.75 0.65,-0.1 1.35,-0.15 2.15,-0.2 1.25,-0.15 2.55,-0.2 3.9,-0.25 0.3,0 0.6,0 0.85,0 1.35,0 2.75,0.2 4.2,0.6 0.45,0.15 0.9,0.3 1.3,0.45 0.05,0 0.1,0 0.15,0 C 5.9,13.05 5.7,12.65 5.5,12.25 4.9,11.15 4.8,9.55 5.15,7.4 5.2,7 5.25,6.6 5.3,6.2 5.85,3.2 6.6,0.7 7.45,-1.3 7.75,-2.05 8,-2.75 8.25,-3.35 8.85,-4.8 9.4,-6.6 9.95,-8.75 l 0,-0.05 c 0.65,-2.65 0.95,-4.25 0.9,-4.9 l 0,-0.05 c -0.15,-1.15 -0.9,-3.85 -2.35,-8.1 -0.05,-0.1 -0.05,-0.2 -0.1,-0.3 -1.35,-3.95 -2.35,-6.4 -3.1,-7.4 C 5.25,-29.6 5.25,-29.6 5.2,-29.65 5.1,-29.8 5,-29.9 4.85,-29.95 4.8,-30 4.75,-30 4.7,-30.05 4.45,-30.2 4.05,-30.4 3.6,-30.6 3.4,-30.65 3.2,-30.75 2.95,-30.85 l -0.4,-0.2 z"
           inkscape:connector-curvature="0"
           style="fill:#5b0d11" />
      </g>
      <animate
         attributeName="display"
         begin="0s"
         repeatCount="1"
         dur="3.25s"
         keyTimes="0;0.269;0.295;1"
         values="none;inline;none;none"
         id="animate3167" />
    </g>
    <g
       id="coatOffsideC006_2_44">
      <g
         id="element8">
        <path
           id="path8"
           d="m 7.35,-1.6 c 1.05,-2.25 1.95,-4.65 2.6,-7.25 0.65,-2.65 0.95,-4.25 0.9,-4.9 C 10.7,-14.9 9.9,-17.65 8.45,-22 6.95,-26.35 5.85,-29 5.1,-29.85 L 4.95,-29.9 c -0.35,-0.25 -0.9,-0.5 -1.7,-0.85 l -1,-0.4 c -1.65,-0.3 -2.75,0.6 -3.3,2.65 L -2.7,-23 c -1.15,3.95 -1.8,6.75 -1.95,8.4 -0.15,1.6 -0.95,4.05 -2.3,7.4 -1.4,3.3 -3.05,7.15 -4.9,11.6 -1.85,4.45 -2.45,8.4 -1.7,11.9 1.6,-1.35 3.45,-2.3 5.55,-2.85 2.1,-0.6 4.05,-1 5.85,-1.15 C -0.4,12.1 1.2,12.05 2.6,12.15 4,12.25 5.75,12.55 7.9,13.1 6.15,10.95 5.35,8.55 5.5,5.8 5.65,3.05 6.3,0.6 7.35,-1.6 z"
           inkscape:connector-curvature="0"
           style="fill:#5b0d11" />
      </g>
      <animate
         attributeName="display"
         begin="0s"
         repeatCount="1"
         dur="3.25s"
         keyTimes="0;0.244;0.269;1"
         values="none;inline;none;none"
         id="animate3172" />
    </g>
    <g
       id="coatOffsideC006_2_42">
      <g
         id="element7">
        <path
           id="path7"
           d="m 8.25,-1.85 c 0.45,-2.05 1.05,-4.4 1.7,-7 0.65,-2.65 0.95,-4.25 0.9,-4.9 C 10.7,-14.9 9.9,-17.65 8.45,-22 6.95,-26.35 5.85,-29 5.1,-29.85 L 4.95,-29.9 c -0.35,-0.25 -0.9,-0.5 -1.7,-0.85 l -1,-0.4 c -1.65,-0.3 -2.75,0.6 -3.3,2.65 L -2.7,-23 c -1.15,3.95 -1.8,6.75 -1.95,8.4 -0.15,1.6 -0.8,4.1 -1.85,7.55 -1.1,3.45 -2.5,7.45 -4.15,12.1 -2.2,6.1 -2.45,10.5 -0.75,13.25 0.2,-2.25 1.3,-3.65 3.25,-4.2 2.1,-0.65 3.75,-1 4.95,-1.05 1.2,-0.15 2.7,-0.1 4.45,0.15 1.75,0.15 3.1,0.4 4.1,0.7 l 3.9,0.6 C 7.9,12.35 7.25,9.6 7.35,6.25 7.4,2.85 7.7,0.15 8.25,-1.85 z"
           inkscape:connector-curvature="0"
           style="fill:#5b0d11" />
      </g>
      <animate
         attributeName="display"
         begin="0s"
         repeatCount="1"
         dur="3.25s"
         keyTimes="0;0.218;0.244;1"
         values="none;inline;none;none"
         id="animate3177" />
    </g>
    <g
       id="coatOffsideC006_2_40">
      <g
         id="element6">
        <path
           id="path6"
           d="m 4.95,-29.9 c -0.35,-0.25 -0.9,-0.5 -1.7,-0.85 l -1,-0.4 c -1.65,-0.3 -2.75,0.6 -3.3,2.65 L -2.7,-23 c -1.15,3.95 -1.85,6.75 -2.05,8.4 -0.25,1.6 -0.9,4.05 -2.05,7.35 -1.15,3.3 -2.5,6.6 -3.95,9.85 -2.9,5.5 -4.5,10.75 -4.85,15.75 1.4,-2 2.75,-3.2 4,-3.65 1.25,-0.45 2.55,-0.85 3.9,-1.15 1.35,-0.3 3.05,-0.55 5.1,-0.7 2.05,-0.15 3.6,-0.1 4.75,0.2 C 3.3,13.3 4.8,13.65 6.7,14 L 6.05,12.15 C 5.5,10.05 5.6,7.4 6.25,4.2 6.9,0.95 7.6,-1.5 8.25,-3.15 Q 9,-5 9.95,-8.8 q 1,-4 0.9,-4.95 C 10.7,-14.9 9.9,-17.65 8.45,-22 6.95,-26.35 5.85,-29 5.1,-29.85 L 4.95,-29.9 z"
           inkscape:connector-curvature="0"
           style="fill:#5b0d11" />
      </g>
      <animate
         attributeName="display"
         begin="0s"
         repeatCount="1"
         dur="3.25s"
         keyTimes="0;0.192;0.218;1"
         values="none;inline;none;none"
         id="animate3182" />
    </g>
    <g
       id="coatOffsideC006_2_36">
      <g
         id="element5">
        <path
           id="path5"
           d="m 3.25,-30.75 -1,-0.4 c -1.65,-0.3 -2.75,0.6 -3.3,2.65 l -1.65,5.5 1.65,-5.5 c 0,0 -3.2,10 -3.75,13.9 -0.5,3.9 -6.1,14.45 -7.2,17.2 l -5.8,14.75 c 0,0 1.9,-1.95 4.65,-3.35 C -10.4,12.55 -7,13.1 -2.5,12.6 2,12.1 4.45,13.9 4.45,13.9 L 4,12.75 c -0.25,-0.7 0,-2.5 0.75,-5 0.75,-2.5 2.6,-8.6 3.5,-10.9 Q 9,-5 9.95,-8.8 q 1,-4 0.9,-4.95 C 10.7,-14.9 9.9,-17.65 8.45,-22 6.95,-26.35 5.85,-29 5.1,-29.85 L 4.95,-29.9 c -0.35,-0.25 -0.9,-0.5 -1.7,-0.85 z"
           inkscape:connector-curvature="0"
           style="fill:#5b0d11" />
      </g>
      <animate
         attributeName="display"
         begin="0s"
         repeatCount="1"
         dur="3.25s"
         keyTimes="0;0.141;0.192;1"
         values="none;inline;none;none"
         id="animate3187" />
    </g>
    <g
       id="coatOffsideC006_2_34">
      <g
         id="element4">
        <path
           id="path4"
           d="m 2.55,-31.05 q -0.3,-0.05 -0.6,-0.1 c -1.35,-0.15 -2.3,0.65 -2.85,2.3 -0.1,0.25 -0.2,0.5 -0.25,0.75 l -1.4,4.6 c -0.1,0.35 -0.2,0.65 -0.3,1 -0.95,3.3 -1.55,5.75 -1.8,7.3 -0.05,0.45 -0.1,0.85 -0.2,1.25 -0.3,1.65 -1.15,4.1 -2.6,7.35 -0.05,0.15 -0.15,0.3 -0.2,0.45 -1.05,2.35 -2.25,5.05 -3.6,8.1 -0.45,1.05 -0.85,2.15 -1.3,3.2 -1.7,4.15 -2.75,8.05 -3.1,11.7 l 0.05,-0.05 c 0.35,-0.35 0.75,-0.65 1.2,-1 1.05,-0.75 2.2,-1.4 3.35,-1.9 0.3,-0.15 0.6,-0.25 0.95,-0.35 1.15,-0.35 2.35,-0.6 3.7,-0.75 0.65,-0.1 1.35,-0.15 2.15,-0.2 1.25,-0.15 2.55,-0.2 3.9,-0.25 0.3,0 0.6,0 0.85,0 1.35,0 2.75,0.2 4.2,0.6 0.45,0.15 0.9,0.3 1.3,0.45 0.05,0 0.1,0 0.15,0 C 5.9,13.05 5.7,12.65 5.5,12.25 4.9,11.15 4.8,9.55 5.15,7.4 5.2,7 5.25,6.6 5.3,6.2 5.85,3.2 6.6,0.7 7.45,-1.3 7.75,-2.05 8,-2.75 8.25,-3.35 8.85,-4.8 9.4,-6.6 9.95,-8.75 l 0,-0.05 c 0.65,-2.65 0.95,-4.25 0.9,-4.9 l 0,-0.05 c -0.15,-1.15 -0.9,-3.85 -2.35,-8.1 -0.05,-0.1 -0.05,-0.2 -0.1,-0.3 -1.35,-3.95 -2.35,-6.4 -3.1,-7.4 C 5.25,-29.6 5.25,-29.6 5.2,-29.65 5.1,-29.8 5,-29.9 4.85,-29.95 4.8,-30 4.75,-30 4.7,-30.05 4.45,-30.2 4.05,-30.4 3.6,-30.6 3.4,-30.65 3.2,-30.75 2.95,-30.85 l -0.4,-0.2 z"
           inkscape:connector-curvature="0"
           style="fill:#5b0d11" />
      </g>
      <animate
         attributeName="display"
         begin="0s"
         repeatCount="1"
         dur="3.25s"
         keyTimes="0;0.115;0.141;1"
         values="none;inline;none;none"
         id="animate3192" />
    </g>
    <g
       id="coatOffsideC006_2_32">
      <g
         id="element3">
        <path
           id="path3"
           d="m 7.35,-1.6 c 1.05,-2.25 1.95,-4.65 2.6,-7.25 0.65,-2.65 0.95,-4.25 0.9,-4.9 C 10.7,-14.9 9.9,-17.65 8.45,-22 6.95,-26.35 5.85,-29 5.1,-29.85 L 4.95,-29.9 c -0.35,-0.25 -0.9,-0.5 -1.7,-0.85 l -1,-0.4 c -1.65,-0.3 -2.75,0.6 -3.3,2.65 L -2.7,-23 c -1.15,3.95 -1.8,6.75 -1.95,8.4 -0.15,1.6 -0.95,4.05 -2.3,7.4 -1.4,3.3 -3.05,7.15 -4.9,11.6 -1.85,4.45 -2.45,8.4 -1.7,11.9 1.6,-1.35 3.45,-2.3 5.55,-2.85 2.1,-0.6 4.05,-1 5.85,-1.15 C -0.4,12.1 1.2,12.05 2.6,12.15 4,12.25 5.75,12.55 7.9,13.1 6.15,10.95 5.35,8.55 5.5,5.8 5.65,3.05 6.3,0.6 7.35,-1.6 z"
           inkscape:connector-curvature="0"
           style="fill:#5b0d11" />
      </g>
      <animate
         attributeName="display"
         begin="0s"
         repeatCount="1"
         dur="3.25s"
         keyTimes="0;0.09;0.115;1"
         values="none;inline;none;none"
         id="animate3197" />
    </g>
    <g
       id="coatOffsideC006_2_30">
      <g
         id="element2">
        <path
           id="path2"
           d="m 8.25,-1.85 c 0.45,-2.05 1.05,-4.4 1.7,-7 0.65,-2.65 0.95,-4.25 0.9,-4.9 C 10.7,-14.9 9.9,-17.65 8.45,-22 6.95,-26.35 5.85,-29 5.1,-29.85 L 4.95,-29.9 c -0.35,-0.25 -0.9,-0.5 -1.7,-0.85 l -1,-0.4 c -1.65,-0.3 -2.75,0.6 -3.3,2.65 L -2.7,-23 c -1.15,3.95 -1.8,6.75 -1.95,8.4 -0.15,1.6 -0.8,4.1 -1.85,7.55 -1.1,3.45 -2.5,7.45 -4.15,12.1 -2.2,6.1 -2.45,10.5 -0.75,13.25 0.2,-2.25 1.3,-3.65 3.25,-4.2 2.1,-0.65 3.75,-1 4.95,-1.05 1.2,-0.15 2.7,-0.1 4.45,0.15 1.75,0.15 3.1,0.4 4.1,0.7 l 3.9,0.6 C 7.9,12.35 7.25,9.6 7.35,6.25 7.4,2.85 7.7,0.15 8.25,-1.85 z"
           inkscape:connector-curvature="0"
           style="fill:#5b0d11" />
      </g>
      <animate
         attributeName="display"
         begin="0s"
         repeatCount="1"
         dur="3.25s"
         keyTimes="0;0.064;0.09;1"
         values="none;inline;none;none"
         id="animate3202" />
    </g>
    <g
       id="coatOffsideC006_2_28">
      <g
         id="element1">
        <path
           id="path1"
           d="m 4.95,-29.9 c -0.35,-0.25 -0.9,-0.5 -1.7,-0.85 l -1,-0.4 c -1.65,-0.3 -2.75,0.6 -3.3,2.65 L -2.7,-23 c -1.15,3.95 -1.85,6.75 -2.05,8.4 -0.25,1.6 -0.9,4.05 -2.05,7.35 -1.15,3.3 -2.5,6.6 -3.95,9.85 -2.9,5.5 -4.5,10.75 -4.85,15.75 1.4,-2 2.75,-3.2 4,-3.65 1.25,-0.45 2.55,-0.85 3.9,-1.15 1.35,-0.3 3.05,-0.55 5.1,-0.7 2.05,-0.15 3.6,-0.1 4.75,0.2 C 3.3,13.3 4.8,13.65 6.7,14 L 6.05,12.15 C 5.5,10.05 5.6,7.4 6.25,4.2 6.9,0.95 7.6,-1.5 8.25,-3.15 Q 9,-5 9.95,-8.8 q 1,-4 0.9,-4.95 C 10.7,-14.9 9.9,-17.65 8.45,-22 6.95,-26.35 5.85,-29 5.1,-29.85 L 4.95,-29.9 z"
           inkscape:connector-curvature="0"
           style="fill:#5b0d11" />
      </g>
      <animate
         attributeName="display"
         begin="0s"
         repeatCount="1"
         dur="3.25s"
         keyTimes="0;0.038;0.064;1"
         values="none;inline;none;none"
         id="animate3207" />
    </g>
    <g
       id="coatOffsideC006_2_25">
      <g
         id="element">
        <path
           id="path"
           d="m 3.25,-30.75 -1,-0.4 c -1.65,-0.3 -2.75,0.6 -3.3,2.65 l -1.65,5.5 1.65,-5.5 c 0,0 -3.2,10 -3.75,13.9 -0.5,3.9 -6.1,14.45 -7.2,17.2 l -5.8,14.75 c 0,0 1.9,-1.95 4.65,-3.35 C -10.4,12.55 -7,13.1 -2.5,12.6 2,12.1 4.45,13.9 4.45,13.9 L 4,12.75 c -0.25,-0.7 0,-2.5 0.75,-5 0.75,-2.5 2.6,-8.6 3.5,-10.9 Q 9,-5 9.95,-8.8 q 1,-4 0.9,-4.95 C 10.7,-14.9 9.9,-17.65 8.45,-22 6.95,-26.35 5.85,-29 5.1,-29.85 L 4.95,-29.9 c -0.35,-0.25 -0.9,-0.5 -1.7,-0.85 z"
           inkscape:connector-curvature="0"
           style="fill:#5b0d11" />
      </g>
      <animate
         attributeName="display"
         begin="0s"
         repeatCount="1"
         dur="3.25s"
         keyTimes="0;0.013;1"
         values="inline;none;none"
         id="animate3212" />
    </g>
  </g>
</svg>
