<?xml version="1.0" encoding="UTF-8" standalone="no"?>
<!-- Generator: flash2svg, http://dissentgraphics.com/tools/flash2svg -->

<svg
   xmlns:dc="http://purl.org/dc/elements/1.1/"
   xmlns:cc="http://creativecommons.org/ns#"
   xmlns:rdf="http://www.w3.org/1999/02/22-rdf-syntax-ns#"
   xmlns:svg="http://www.w3.org/2000/svg"
   xmlns="http://www.w3.org/2000/svg"
   xmlns:sodipodi="http://sodipodi.sourceforge.net/DTD/sodipodi-0.dtd"
   xmlns:inkscape="http://www.inkscape.org/namespaces/inkscape"
   id="AvatarAssets"
   image-rendering="auto"
   version="1.1"
   x="0px"
   y="0px"
   width="28.65909"
   height="48.556347"
   viewBox="0 0 28.65909 48.556347"
   inkscape:version="0.48.4 r9939"
   sodipodi:docname="AvatarAssets_coatOffsideC006-idle0.svg">
  <metadata
     id="metadata3755">
    <rdf:RDF>
      <cc:Work
         rdf:about="">
        <dc:format>image/svg+xml</dc:format>
        <dc:type
           rdf:resource="http://purl.org/dc/dcmitype/StillImage" />
      </cc:Work>
    </rdf:RDF>
  </metadata>
  <sodipodi:namedview
     pagecolor="#ffffff"
     bordercolor="#666666"
     borderopacity="1"
     objecttolerance="10"
     gridtolerance="10"
     guidetolerance="10"
     inkscape:pageopacity="0"
     inkscape:pageshadow="2"
     inkscape:window-width="640"
     inkscape:window-height="480"
     id="namedview3753"
     showgrid="false"
     fit-margin-top="0"
     fit-margin-left="0"
     fit-margin-right="0"
     fit-margin-bottom="0"
     inkscape:zoom="1.9032258"
     inkscape:cx="49.8"
     inkscape:cy="-44.65"
     inkscape:window-x="0"
     inkscape:window-y="0"
     inkscape:window-maximized="0"
     inkscape:current-layer="AvatarAssets" />
  <defs
     id="defs3744" />
  <g
     id="coatOffsideC7"
     overflow="visible"
     style="overflow:visible"
     transform="translate(17.8,31.206348)">
    <g
       id="coatOffsideC006_2_801">
      <g
         id="element1">
        <path
           id="path1"
           d="m 3.25,-30.75 -1,-0.4 c -1.65,-0.3 -2.75,0.6 -3.3,2.65 l -1.65,5.5 1.65,-5.5 c 0,0 -3.2,10 -3.75,13.9 -0.5,3.9 -6.1,14.45 -7.2,17.2 l -5.8,14.75 c 0,0 1.9,-1.95 4.65,-3.35 C -10.4,12.55 -7,13.1 -2.5,12.6 2,12.1 4.45,13.9 4.45,13.9 L 4,12.75 c -0.25,-0.7 0,-2.5 0.75,-5 0.75,-2.5 2.6,-8.6 3.5,-10.9 Q 9,-5 9.95,-8.8 q 1,-4 0.9,-4.95 C 10.7,-14.9 9.9,-17.65 8.45,-22 6.95,-26.35 5.85,-29 5.1,-29.85 L 4.95,-29.9 c -0.35,-0.25 -0.9,-0.5 -1.7,-0.85 z"
           inkscape:connector-curvature="0"
           style="fill:#5b0d11" />
      </g>
    </g>
    <g
       id="coatOffsideC006_2_800">
      <g
         id="element">
        <path
           id="path"
           d="m 3.25,-30.75 -1,-0.4 c -1.65,-0.3 -2.75,0.6 -3.3,2.65 l -1.65,5.5 1.65,-5.5 c 0,0 -3.2,10 -3.75,13.9 -0.5,3.9 -6.1,14.45 -7.2,17.2 l -5.8,14.75 c 0,0 1.9,-1.95 4.65,-3.35 C -10.4,12.55 -7,13.1 -2.5,12.6 2,12.1 4.45,13.9 4.45,13.9 L 4,12.75 c -0.25,-0.7 0,-2.5 0.75,-5 0.75,-2.5 2.6,-8.6 3.5,-10.9 Q 9,-5 9.95,-8.8 q 1,-4 0.9,-4.95 C 10.7,-14.9 9.9,-17.65 8.45,-22 6.95,-26.35 5.85,-29 5.1,-29.85 L 4.95,-29.9 c -0.35,-0.25 -0.9,-0.5 -1.7,-0.85 z"
           inkscape:connector-curvature="0"
           style="fill:#5b0d11" />
      </g>
    </g>
  </g>
</svg>
