<?xml version="1.0" encoding="UTF-8" standalone="no"?>
<!-- Generator: flash2svg, http://dissentgraphics.com/tools/flash2svg -->

<svg
   xmlns:dc="http://purl.org/dc/elements/1.1/"
   xmlns:cc="http://creativecommons.org/ns#"
   xmlns:rdf="http://www.w3.org/1999/02/22-rdf-syntax-ns#"
   xmlns:svg="http://www.w3.org/2000/svg"
   xmlns="http://www.w3.org/2000/svg"
   xmlns:xlink="http://www.w3.org/1999/xlink"
   xmlns:sodipodi="http://sodipodi.sourceforge.net/DTD/sodipodi-0.dtd"
   xmlns:inkscape="http://www.inkscape.org/namespaces/inkscape"
   id="AvatarAssets"
   image-rendering="auto"
   version="1.1"
   x="0px"
   y="0px"
   width="22.327187"
   height="16.617279"
   viewBox="0 0 22.327187 16.617279"
   inkscape:version="0.48.4 r9939"
   sodipodi:docname="AvatarAssets_backPantsTop20101103Black.svg">
  <metadata
     id="metadata33">
    <rdf:RDF>
      <cc:Work
         rdf:about="">
        <dc:format>image/svg+xml</dc:format>
        <dc:type
           rdf:resource="http://purl.org/dc/dcmitype/StillImage" />
      </cc:Work>
    </rdf:RDF>
  </metadata>
  <sodipodi:namedview
     pagecolor="#ffffff"
     bordercolor="#666666"
     borderopacity="1"
     objecttolerance="10"
     gridtolerance="10"
     guidetolerance="10"
     inkscape:pageopacity="0"
     inkscape:pageshadow="2"
     inkscape:window-width="640"
     inkscape:window-height="480"
     id="namedview31"
     showgrid="false"
     fit-margin-top="0"
     fit-margin-left="0"
     fit-margin-right="0"
     fit-margin-bottom="0"
     inkscape:zoom="1.9032258"
     inkscape:cx="43.776186"
     inkscape:cy="-54.710512"
     inkscape:window-x="0"
     inkscape:window-y="0"
     inkscape:window-maximized="0"
     inkscape:current-layer="AvatarAssets" />
  <defs
     id="defs3">
    <pattern
       id="bitmap"
       patternContentUnits="userSpaceOnUse"
       patternUnits="userSpaceOnUse"
       width="200"
       height="200"
       viewBox="0 0 200 200"
       patternTransform="matrix(1 0 0 1 -8.449 119.95)">
      <symbol
         id="Denim_Texture_Black_symbol"
         viewBox="0 0 200 200">
        <image
           sodipodi:absref="C:\Users\Training\Documents\GitHub\Glitchen-Avatar-Engine\glitch-avatars-svg\base_avatar\AvatarAssets.fla\clothing\back\Denim Texture Black"
           xlink:href="Denim Texture Black"
           height="200"
           width="200"
           id="Denim_Texture_Black" />
      </symbol>
      <use
         id="Denim_Texture_Black_use"
         width="200"
         height="200"
         y="0"
         x="0"
         xlink:href="#Denim_Texture_Black_symbol"
         externalResourcesRequired="true" />
    </pattern>
    <pattern
       id="bitmap1"
       patternContentUnits="userSpaceOnUse"
       patternUnits="userSpaceOnUse"
       width="200"
       height="200"
       viewBox="0 0 200 200"
       patternTransform="matrix(1 0 0 1 -100.549 -100.999)">
      <symbol
         id="symbol10"
         viewBox="0 0 200 200">
        <image
           sodipodi:absref="C:\Users\Training\Documents\GitHub\Glitchen-Avatar-Engine\glitch-avatars-svg\base_avatar\AvatarAssets.fla\clothing\back\Denim Texture Black"
           xlink:href="Denim Texture Black"
           height="200"
           width="200"
           id="image12" />
      </symbol>
      <use
         id="use14"
         width="200"
         height="200"
         y="0"
         x="0"
         xlink:href="#Denim_Texture_Black_symbol"
         externalResourcesRequired="true" />
    </pattern>
  </defs>
  <g
     id="backPantsTop20101103Black1"
     overflow="visible"
     style="overflow:visible"
     transform="translate(11.776186,9.3277919)">
    <g
       id="backPantsTop20101103Black_0">
      <g
         id="element">
        <g
           id="drawingObject">
          <path
             id="path"
             d="m 10.551,-1.649 c 0,-1.5 -0.25,-3.9 -0.25,-3.9 0,0 -0.7,-1 -1.75,-1.85 -1.6,-1.25 -8.15,-2.5 -12.5,-1.65 q -3.85,0.75 -6.75,2.9 c 0,0 -1.6,3.45 -0.9,6.95 0.65,3.5 4.9,5.8 9.25,6.3 4.3,0.5 7.15,-0.05 9.25,-1 2.05,-0.9 3.65,-6.25 3.65,-7.75 z"
             inkscape:connector-curvature="0"
             style="fill:url(#bitmap1)" />
        </g>
        <g
           id="drawingObject1">
          <path
             id="path1"
             d="m 1.201,-0.299 c -1.55,-0.25 -3.25,-1.05 -2.8,-2 0.4,-0.9 1.4,-1.75 3.3,-1.65 l 2.45,0.05 c 0,0 -2.25,-1.3 -4,-1.4 l -2.45,-0.1 2.3,-0.85 -2.3,0.85 c 0,0 3.75,-1.9 6.95,-1.25 3.15,0.7 4,0.75 4,0.75 0,0 -4,-1.45 -4.95,-1.65 l -1.8,-0.9 0,1.05 c 0,0 0.05,0.25 -1,-0.05 -1,-0.35 -6.85,0.65 -6.85,0.65 l -1.45,0.6 -3.7,2.5 c 0,0 0.75,-1.25 0.5,-1.45 -0.25,-0.1 0.4,-1.1 0.75,-1.55 l -0.85,0.55 c 0,0 -1.6,3.45 -0.9,6.95 0.65,3.5 4.9,5.8 9.25,6.3 4.3,0.5 7.15,-0.05 9.25,-1 2.05,-0.9 3.65,-6.25 3.65,-7.75 l 0,-0.2 c -1.15,-0.6 -3.6,-1.1 -5.15,0.15 -1.85,1.4 -2.6,1.65 -4.2,1.4 z"
             inkscape:connector-curvature="0"
             style="fill:#000000;fill-opacity:0.2" />
        </g>
        <g
           id="drawingObject2">
          <path
             id="path2"
             d="m -4.399,-7.049 -1.55,0.25 -1.45,0.6 -3.7,2.5 c 0,0 0.75,-1.25 0.5,-1.45 -0.25,-0.1 0.4,-1.1 0.75,-1.55 l -0.85,0.55 c 0,0 -1.6,3.45 -0.9,6.95 0.65,3.5 4.9,5.8 9.25,6.3 4.3,0.5 7.15,-0.05 9.25,-1 q 1.3,-0.55 2.5,-3.4 c -0.3,-1.75 -0.95,-3.35 -1.7,-3.5 -1.4,-0.25 -3,1 -3.75,3.4 -0.75,2.45 -1.75,2.7 -5.15,2.45 -3.45,-0.25 -2.15,-1.75 -2.15,-1.75 l -0.2,0.8 0.2,-0.8 1.15,0 c 1.15,0 3.1,-0.45 3.1,-0.45 0,0 -0.35,0 -2.95,-0.5 -2.55,-0.5 -1.75,-2 -3.4,-5.25 -1.15,-2.15 -0.05,-3.35 1.05,-4.15 z"
             inkscape:connector-curvature="0"
             style="fill:#000000;fill-opacity:0.2" />
        </g>
        <g
           id="drawingObject3">
          <path
             id="path3"
             d="m -7.399,-6.199 0.15,-0.85 q -2.2,0.95 -3.35,1.9 l -0.5,1.45 c 0,0 1.5,-1.2 3.4,-2.35 l 0.3,-0.15 z"
             inkscape:connector-curvature="0"
             style="fill:#312408" />
        </g>
        <g
           id="drawingObject4">
          <path
             id="path4"
             d="m 0.901,-7.449 0,-1.1 q -3.1,-0.15 -5.95,0.65 l -1.1,0.4 -0.2,0.85 c 1.75,-0.6 4.15,-0.9 7.25,-0.8 z"
             inkscape:connector-curvature="0"
             style="fill:#312408" />
        </g>
        <g
           id="drawingObject5">
          <path
             id="path5"
             d="m 10.051,-4.049 -0.1,-0.65 q -0.25,-0.5 -0.9,-1.2 c -0.7,-0.65 -2,-1.25 -4.4,-2 l -2.75,-0.55 0,1.05 1,0 c 5.05,0.35 7.15,3.35 7.15,3.35 z"
             inkscape:connector-curvature="0"
             style="fill:#312408" />
        </g>
      </g>
    </g>
  </g>
</svg>
