<?xml version="1.0" encoding="UTF-8" standalone="no"?>
<!-- Generator: flash2svg, http://dissentgraphics.com/tools/flash2svg -->

<svg
   xmlns:dc="http://purl.org/dc/elements/1.1/"
   xmlns:cc="http://creativecommons.org/ns#"
   xmlns:rdf="http://www.w3.org/1999/02/22-rdf-syntax-ns#"
   xmlns:svg="http://www.w3.org/2000/svg"
   xmlns="http://www.w3.org/2000/svg"
   xmlns:sodipodi="http://sodipodi.sourceforge.net/DTD/sodipodi-0.dtd"
   xmlns:inkscape="http://www.inkscape.org/namespaces/inkscape"
   id="AvatarAssets"
   image-rendering="auto"
   version="1.1"
   x="0px"
   y="0px"
   width="22.754"
   height="25.016811"
   viewBox="0 0 22.754 25.016811"
   inkscape:version="0.48.4 r9939"
   sodipodi:docname="AvatarAssets_backShirtTorsoStaff01.svg">
  <metadata
     id="metadata3506">
    <rdf:RDF>
      <cc:Work
         rdf:about="">
        <dc:format>image/svg+xml</dc:format>
        <dc:type
           rdf:resource="http://purl.org/dc/dcmitype/StillImage" />
      </cc:Work>
    </rdf:RDF>
  </metadata>
  <sodipodi:namedview
     pagecolor="#ffffff"
     bordercolor="#666666"
     borderopacity="1"
     objecttolerance="10"
     gridtolerance="10"
     guidetolerance="10"
     inkscape:pageopacity="0"
     inkscape:pageshadow="2"
     inkscape:window-width="640"
     inkscape:window-height="480"
     id="namedview3504"
     showgrid="false"
     fit-margin-top="0"
     fit-margin-left="0"
     fit-margin-right="0"
     fit-margin-bottom="0"
     inkscape:zoom="1.9032258"
     inkscape:cx="43.35"
     inkscape:cy="-64.05"
     inkscape:window-x="0"
     inkscape:window-y="0"
     inkscape:window-maximized="0"
     inkscape:current-layer="AvatarAssets" />
  <defs
     id="defs3493" />
  <g
     id="backShirtTorsoStaff2"
     overflow="visible"
     style="overflow:visible"
     transform="translate(11.35,27.066812)">
    <g
       id="backShirtTorsoStaff01_0">
      <g
         id="element">
        <path
           id="path"
           d="m 5.05,-24.8 c 0.05,0.1 -0.05,0 -0.15,-0.15 -0.3,-0.3 -0.7,-0.55 -1.4,-0.8 0.15,0.15 0.15,0.15 0.15,0.15 0.65,0.25 1.2,0.6 1.4,0.8 z m -10.5,0 c 0.1,-0.05 0.2,-0.1 0.2,-0.1 0.65,-0.4 1.3,-0.75 1.9,-0.95 l 0.15,-0.05 c 0.65,-0.25 1.35,-0.4 2.05,-0.45 0.5,-0.05 0.7,-0.05 0.9,-0.05 -1,-0.1 -2,-0.05 -2.35,0 -0.5,0.05 0.55,-0.3 1.95,-0.65 -0.2,0.05 -0.4,0.05 -0.6,0.05 -3.1,0.35 -4.6,1.9 -4.6,1.9 l 0.1,0.55 c 0.05,-0.05 0.1,-0.05 0.15,-0.1 l 0.15,-0.1 0,-0.05 z"
           inkscape:connector-curvature="0"
           style="fill:#161717" />
        <path
           id="path1"
           d="m 4.9,-24.95 c 0.1,0.15 0.2,0.25 0.15,0.15 0.2,0.2 0.4,0.4 0.45,0.45 -0.2,-2 -3.3,-2.85 -6.15,-2.7 -1.4,0.35 -2.45,0.7 -1.95,0.65 0.35,-0.05 1.35,-0.1 2.35,0 0.3,-0.05 0.45,-0.05 0.6,-0.05 2.8,0 3.3,0.85 3.15,0.7 0.7,0.25 1.1,0.5 1.4,0.8 z"
           inkscape:connector-curvature="0"
           style="fill:#252626" />
        <path
           id="path2"
           d="m 3.65,-25.6 c 0,0 0,0 -0.15,-0.15 0.15,0.15 -0.35,-0.7 -3.15,-0.7 -0.15,0 -0.3,0 -0.6,0.05 -0.2,0 -0.4,0 -0.9,0.05 -1.25,0.5 -2.1,1.6 -2.7,2.8 -0.4,0.85 -0.15,1.7 -0.3,2.55 l -0.3,0.05 c 0.05,0.95 1.7,1.25 2.25,1.7 l -1.65,0.05 c 0.75,0.4 1.7,0.35 2.45,0.75 -0.5,0.2 -1,-0.05 -1.45,0.35 1.7,0.4 3.5,-0.6 5.1,0.45 -1.1,0 -2.3,-0.1 -3.2,0.15 l -0.15,0.05 -0.3,0.05 c 0.55,0.05 1.2,0.15 1.7,0.4 -1.1,0.3 -2.15,0.25 -3.05,0.95 l -0.8,0.85 c -0.8,1.1 -0.9,1.8 -1,3.15 L -4.6,-12.1 c -0.15,1.1 0.9,2 1.85,2.3 1,0.25 2.4,-0.1 3.3,0.45 -0.4,0.15 -0.8,0.1 -1.15,0.2 1.2,0 2.35,0.05 3.45,0.6 0.7,0.4 1.4,0.75 2.2,0.8 0.95,0.05 1.85,0.3 2.8,0.45 0.35,0.05 0.8,0.2 1.1,-0.05 l -0.15,0.3 c 1.1,0.1 1.5,-0.75 1.6,-1.65 0.1,0.3 0.2,0.65 0.3,0.85 C 10.6,-8.2 10.4,-8.8 10.15,-9.4 8.55,-12.85 8.05,-18.45 7.7,-19.85 7.5,-20.75 6.95,-22.6 5.5,-24.35 5.45,-24.4 5.25,-24.6 5.05,-24.8 4.85,-25 4.3,-25.35 3.65,-25.6 z m 7.65,20.8 c 0.2,1.8 0.05,2.75 0.05,2.75 0,0 0.15,-0.9 -0.05,-2.75 z"
           inkscape:connector-curvature="0"
           style="fill:#2e2e2c" />
        <path
           id="path3"
           d="M 8.95,-7.35 C 8.65,-7.1 8.2,-7.25 7.85,-7.3 6.9,-7.45 6,-7.7 5.05,-7.75 4.25,-7.8 3.55,-8.15 2.85,-8.55 1.75,-9.1 0.6,-9.15 -0.6,-9.15 c 0.35,-0.1 0.75,-0.05 1.15,-0.2 -0.9,-0.55 -2.3,-0.2 -3.3,-0.45 -0.95,-0.3 -2,-1.2 -1.85,-2.3 l 0.05,0.05 c 0.1,-1.35 0.2,-2.05 1,-3.15 l 0.8,-0.85 c 0.9,-0.7 1.95,-0.65 3.05,-0.95 -0.5,-0.25 -1.15,-0.35 -1.7,-0.4 -0.05,0 -0.1,0 -0.25,0.05 -0.65,0.15 -1.4,0.1 -2.15,0.2 -0.85,0.1 -1.5,0.85 -2.1,1.45 -0.5,0.5 -1.95,3.9 -0.8,4 l 0,1.35 c 0.05,0.7 0,0.5 0.5,0.8 0.6,0.4 1.25,0.45 1.9,0.6 1.25,0.2 2.55,0.25 3.8,0.8 0.85,0.4 1.65,0.5 2.7,0.6 0.75,0.05 1.5,0.1 2.25,0.3 0.95,0.25 1.85,0.7 2.7,1.2 0.6,0.35 1.3,0.6 1.85,1.05 -0.05,-0.15 0.05,-0.3 0,-0.45 0.65,0.1 1.35,0.6 1.95,-0.15 l 0.2,-0.4 c -0.05,-0.15 -0.1,-0.55 -0.2,-0.95 l -0.25,-0.9 c -0.1,-0.2 -0.2,-0.55 -0.3,-0.85 -0.1,0.9 -0.5,1.75 -1.6,1.65 l 0.15,-0.3 z m -10.1,-19 c -0.7,0.05 -1.4,0.2 -2.05,0.45 -0.75,0.5 -1.5,1.15 -1.9,1.85 -0.65,1.1 -1.1,3.05 -0.75,4.35 l 0.3,0.75 c 0.15,0.4 -0.25,0.35 0.25,0.7 0.3,0.2 1,0.3 1.35,0.4 1,0.35 2.1,0.15 3.2,0.2 l -0.2,0.15 c 0.9,-0.25 2.1,-0.15 3.2,-0.15 -1.6,-1.05 -3.4,-0.05 -5.1,-0.45 0.45,-0.4 0.95,-0.15 1.45,-0.35 -0.75,-0.4 -1.7,-0.35 -2.45,-0.75 l 1.65,-0.05 c -0.55,-0.45 -2.2,-0.75 -2.25,-1.7 l 0.3,-0.05 c 0.15,-0.85 -0.1,-1.7 0.3,-2.55 0.6,-1.2 1.45,-2.3 2.7,-2.8 z"
           inkscape:connector-curvature="0"
           style="fill:#212120" />
        <path
           id="path4"
           d="m 0.15,-6.4 c 0.4,0 0.8,0 1.1,0.05 l -2.1,-0.55 c -1.45,-0.25 -3.15,-0.3 -4.6,0 -0.95,0.25 -3.15,1.45 -4.1,1.1 0.35,-0.6 1.1,-0.9 1.4,-1.5 -0.65,0.15 -1.25,0.5 -1.9,0.75 0.15,-0.95 1,-1.95 1.4,-2.8 0.55,-1.15 0.7,-1.7 0.7,-2.95 0,-1.05 0.25,-2 0.35,-3.05 0.05,-0.85 -0.2,-1.6 0.9,-1.45 0.05,-0.75 -0.35,-1.4 -0.35,-2.15 l 0.25,-2.35 c 0.05,-0.55 0.2,-1.15 0.5,-1.8 0,-0.05 0,-0.05 0.05,-0.05 l 0.5,-0.95 c 0.1,-0.25 0.2,-0.5 0.3,-0.65 l -0.15,0.1 c -0.05,0.05 -0.1,0.05 -0.15,0.1 -0.1,0.05 -0.25,0.2 -0.4,0.35 -1.2,1.2 -2.1,6.25 -2.45,8.55 -0.35,2.25 -2.4,8.7 -2.6,11.15 l -0.15,2.45 c 0,0 2.45,-4.7 11.5,-4.35 z"
           inkscape:connector-curvature="0"
           style="fill:#0f0f0f" />
        <path
           id="path5"
           d="m 1.25,-6.35 c 0.45,0 0.8,0.05 1.1,0.1 l 5.4,1.4 c 2.85,1.4 3.6,2.8 3.6,2.8 0,0 0.15,-0.95 -0.05,-2.75 L 11.15,-6 10.95,-5.6 C 10.35,-4.85 9.65,-5.35 9,-5.45 9.05,-5.3 8.95,-5.15 9,-5 8.45,-5.45 7.75,-5.7 7.15,-6.05 6.3,-6.55 5.4,-7 4.45,-7.25 3.7,-7.45 2.95,-7.5 2.2,-7.55 c -1.05,-0.1 -1.85,-0.2 -2.7,-0.6 -1.25,-0.55 -2.55,-0.6 -3.8,-0.8 -0.65,-0.15 -1.3,-0.2 -1.9,-0.6 -0.5,-0.3 -0.45,-0.1 -0.5,-0.8 l 0,-1.35 c -1.15,-0.1 0.3,-3.5 0.8,-4 0.6,-0.6 1.25,-1.35 2.1,-1.45 0.75,-0.1 1.5,-0.05 2.15,-0.2 0.15,-0.05 0.2,-0.05 0.25,-0.05 l 0.3,-0.05 0.15,-0.05 0.2,-0.15 c -1.1,-0.05 -2.2,0.15 -3.2,-0.2 -0.35,-0.1 -1.05,-0.2 -1.35,-0.4 -0.5,-0.35 -0.1,-0.3 -0.25,-0.7 l -0.3,-0.75 c -0.35,-1.3 0.1,-3.25 0.75,-4.35 0.4,-0.7 1.15,-1.35 1.9,-1.85 l -0.15,0.05 c -0.6,0.2 -1.25,0.55 -1.9,0.95 0,0 -0.1,0.05 -0.2,0.1 l 0,0.05 c -0.1,0.15 -0.2,0.4 -0.3,0.65 l -0.5,0.95 c -0.05,0 -0.05,0 -0.05,0.05 -0.3,0.65 -0.45,1.25 -0.5,1.8 l -0.25,2.35 c 0,0.75 0.4,1.4 0.35,2.15 -1.1,-0.15 -0.85,0.6 -0.9,1.45 -0.1,1.05 -0.35,2 -0.35,3.05 0,1.25 -0.15,1.8 -0.7,2.95 -0.4,0.85 -1.25,1.85 -1.4,2.8 0.65,-0.25 1.25,-0.6 1.9,-0.75 -0.3,0.6 -1.05,0.9 -1.4,1.5 0.95,0.35 3.15,-0.85 4.1,-1.1 1.45,-0.3 3.15,-0.25 4.6,0 l 2.1,0.55 z"
           inkscape:connector-curvature="0"
           style="fill:#121211" />
      </g>
    </g>
  </g>
</svg>
