<?xml version="1.0" encoding="UTF-8" standalone="no"?>
<!-- Generator: flash2svg, http://dissentgraphics.com/tools/flash2svg -->

<svg
   xmlns:dc="http://purl.org/dc/elements/1.1/"
   xmlns:cc="http://creativecommons.org/ns#"
   xmlns:rdf="http://www.w3.org/1999/02/22-rdf-syntax-ns#"
   xmlns:svg="http://www.w3.org/2000/svg"
   xmlns="http://www.w3.org/2000/svg"
   xmlns:xlink="http://www.w3.org/1999/xlink"
   xmlns:sodipodi="http://sodipodi.sourceforge.net/DTD/sodipodi-0.dtd"
   xmlns:inkscape="http://www.inkscape.org/namespaces/inkscape"
   id="AvatarAssets"
   image-rendering="auto"
   version="1.1"
   x="0px"
   y="0px"
   width="22.288179"
   height="16.58835"
   viewBox="0 0 22.288179 16.58835"
   inkscape:version="0.48.4 r9939"
   sodipodi:docname="AvatarAssets_backPantsTopA012.svg">
  <metadata
     id="metadata3292">
    <rdf:RDF>
      <cc:Work
         rdf:about="">
        <dc:format>image/svg+xml</dc:format>
        <dc:type
           rdf:resource="http://purl.org/dc/dcmitype/StillImage" />
      </cc:Work>
    </rdf:RDF>
  </metadata>
  <sodipodi:namedview
     pagecolor="#ffffff"
     bordercolor="#666666"
     borderopacity="1"
     objecttolerance="10"
     gridtolerance="10"
     guidetolerance="10"
     inkscape:pageopacity="0"
     inkscape:pageshadow="2"
     inkscape:window-width="640"
     inkscape:window-height="480"
     id="namedview3290"
     showgrid="false"
     fit-margin-top="0"
     fit-margin-left="0"
     fit-margin-right="0"
     fit-margin-bottom="0"
     inkscape:zoom="1.9032258"
     inkscape:cx="43.627379"
     inkscape:cy="-54.77901"
     inkscape:window-x="0"
     inkscape:window-y="0"
     inkscape:window-maximized="0"
     inkscape:current-layer="AvatarAssets" />
  <defs
     id="defs3262">
    <pattern
       id="bitmap"
       patternContentUnits="userSpaceOnUse"
       patternUnits="userSpaceOnUse"
       width="200"
       height="200"
       viewBox="0 0 200 200"
       patternTransform="matrix(1 0 0 1 -99.999 -99.999)">
      <symbol
         id="Denim_Texture_white_symbol"
         viewBox="0 0 200 200">
        <image
           sodipodi:absref="C:\Users\Training\Documents\GitHub\Glitchen-Avatar-Engine\glitch-avatars-svg\base_avatar\AvatarAssets.fla\clothing\back\Denim_Texture_white"
           xlink:href="Denim_Texture_white"
           height="200"
           width="200"
           id="Denim_Texture_white" />
      </symbol>
      <use
         id="Denim_Texture_white_use"
         width="200"
         height="200"
         y="0"
         x="0"
         xlink:href="#Denim_Texture_white_symbol"
         externalResourcesRequired="true" />
    </pattern>
    <pattern
       id="bitmap1"
       patternContentUnits="userSpaceOnUse"
       patternUnits="userSpaceOnUse"
       width="200"
       height="200"
       viewBox="0 0 200 200"
       patternTransform="matrix(0.9958343505859375 -0.080413818359375 0.09295654296875 0.995635986328125 -109.249 -92.449)">
      <symbol
         id="symbol3269"
         viewBox="0 0 200 200">
        <image
           sodipodi:absref="C:\Users\Training\Documents\GitHub\Glitchen-Avatar-Engine\glitch-avatars-svg\base_avatar\AvatarAssets.fla\clothing\back\Denim_Texture_white"
           xlink:href="Denim_Texture_white"
           height="200"
           width="200"
           id="image3271" />
      </symbol>
      <use
         id="use3273"
         width="200"
         height="200"
         y="0"
         x="0"
         xlink:href="#Denim_Texture_white_symbol"
         externalResourcesRequired="true" />
    </pattern>
  </defs>
  <g
     id="backPantsTopA13"
     overflow="visible"
     style="overflow:visible"
     transform="translate(11.627379,9.3673611)">
    <g
       id="backPantsTopA012_0">
      <g
         id="element">
        <g
           id="drawingObject">
          <path
             id="path"
             d="m 10.649,-2.547 c -0.14,-1.493 -0.612,-3.863 -0.612,-3.863 0,0 -0.79,-0.939 -1.915,-1.701 -1.709,-1.116 -8.348,-1.834 -12.601,-0.638 q -3.764,1.057 -6.452,3.43 c 0,0 -1.273,3.564 -0.25,6.992 0.972,3.433 5.418,5.381 9.797,5.529 4.328,0.152 7.115,-0.625 9.118,-1.739 1.958,-1.061 3.054,-6.517 2.915,-8.01 z"
             inkscape:connector-curvature="0"
             style="fill:url(#bitmap1)" />
        </g>
        <g
           id="drawingObject1">
          <path
             id="path1"
             d="m 1.415,-0.472 c -1.567,-0.124 -3.334,-0.784 -2.975,-1.766 0.315,-0.928 1.232,-1.855 3.133,-1.908 l 2.445,-0.147 c 0,0 -2.362,-1.113 -4.114,-1.072 l -2.449,0.097 2.212,-1.031 -2.212,1.031 c 0,0 3.558,-2.193 6.805,-1.803 3.202,0.443 4.053,0.425 4.053,0.425 0,0 -4.118,-1.122 -5.083,-1.245 l -1.876,-0.751 0.098,1.045 c 0,0 0.073,0.245 -1.001,0.031 -1.028,-0.268 -6.761,1.198 -6.761,1.198 l -1.388,0.714 -3.452,2.786 c 0,0 0.63,-1.304 0.363,-1.484 -0.258,-0.079 0.296,-1.127 0.603,-1.603 l -0.796,0.616 c 0,0 -1.272,3.563 -0.25,6.992 0.973,3.432 5.419,5.381 9.797,5.529 C 2.896,7.334 5.683,6.557 7.686,5.442 9.644,4.381 10.74,-1.074 10.6,-2.568 L 10.582,-2.767 C 9.381,-3.272 6.894,-3.572 5.467,-2.203 3.755,-0.661 3.031,-0.351 1.415,-0.472 z"
             inkscape:connector-curvature="0"
             style="fill:#000000;fill-opacity:0.08600003" />
        </g>
        <g
           id="drawingObject2">
          <path
             id="path2"
             d="m -4.79,-6.742 -1.52,0.374 -1.388,0.714 -3.452,2.786 c 0,0 0.63,-1.304 0.363,-1.484 -0.258,-0.079 0.296,-1.127 0.603,-1.603 l -0.796,0.616 c 0,0 -1.272,3.563 -0.25,6.992 0.973,3.432 5.419,5.381 9.797,5.529 4.329,0.152 7.116,-0.625 9.119,-1.74 Q 8.929,4.79 9.859,1.856 C 9.398,0.138 8.602,-1.403 7.841,-1.492 6.424,-1.628 4.947,-0.255 4.423,2.195 3.904,4.694 2.931,5.024 -0.478,5.048 -3.937,5.077 -2.782,3.479 -2.782,3.479 l -0.125,0.812 0.125,-0.812 1.145,-0.093 c 1.146,-0.092 3.046,-0.697 3.046,-0.697 0,0 -0.349,0.028 -2.985,-0.261 -2.585,-0.293 -1.928,-1.85 -3.873,-4.953 -1.345,-2.049 -0.362,-3.332 0.659,-4.217 z"
             inkscape:connector-curvature="0"
             style="fill:#000000;fill-opacity:0.2" />
        </g>
        <g
           id="drawingObject3">
          <path
             id="path3"
             d="m -7.629,-5.566 0.07,-0.859 q -2.102,1.123 -3.159,2.161 l -0.363,1.484 c 0,0 1.382,-1.315 3.167,-2.613 l 0.285,-0.173 z"
             inkscape:connector-curvature="0"
             style="fill:#613a1f" />
        </g>
        <g
           id="drawingObject4">
          <path
             id="path4"
             d="M 0.52,-7.478 0.418,-8.574 q -3.101,0.1 -5.865,1.126 l -1.058,0.487 -0.12,0.862 c 1.687,-0.738 4.049,-1.23 7.145,-1.379 z"
             inkscape:connector-curvature="0"
             style="fill:#7a4c2b" />
        </g>
        <g
           id="drawingObject5">
          <path
             id="path5"
             d="M 9.948,-4.829 9.788,-5.468 Q 9.493,-5.946 8.78,-6.59 C 8.023,-7.181 6.672,-7.674 4.213,-8.228 l -2.79,-0.326 0.098,1.045 0.995,-0.08 c 5.062,-0.058 7.432,2.76 7.432,2.76 z"
             inkscape:connector-curvature="0"
             style="fill:#7a4c2b" />
        </g>
      </g>
    </g>
  </g>
</svg>
