<?xml version="1.0" encoding="UTF-8" standalone="no"?>
<!-- Generator: flash2svg, http://dissentgraphics.com/tools/flash2svg -->

<svg
   xmlns:dc="http://purl.org/dc/elements/1.1/"
   xmlns:cc="http://creativecommons.org/ns#"
   xmlns:rdf="http://www.w3.org/1999/02/22-rdf-syntax-ns#"
   xmlns:svg="http://www.w3.org/2000/svg"
   xmlns="http://www.w3.org/2000/svg"
   xmlns:sodipodi="http://sodipodi.sourceforge.net/DTD/sodipodi-0.dtd"
   xmlns:inkscape="http://www.inkscape.org/namespaces/inkscape"
   id="AvatarAssets"
   image-rendering="auto"
   version="1.1"
   x="0px"
   y="0px"
   width="22.772223"
   height="25.002075"
   viewBox="0 0 22.772223 25.002075"
   inkscape:version="0.48.4 r9939"
   sodipodi:docname="AvatarAssets_backShirtTorso20101130Color_2.svg">
  <metadata
     id="metadata3368">
    <rdf:RDF>
      <cc:Work
         rdf:about="">
        <dc:format>image/svg+xml</dc:format>
        <dc:type
           rdf:resource="http://purl.org/dc/dcmitype/StillImage" />
      </cc:Work>
    </rdf:RDF>
  </metadata>
  <sodipodi:namedview
     pagecolor="#ffffff"
     bordercolor="#666666"
     borderopacity="1"
     objecttolerance="10"
     gridtolerance="10"
     guidetolerance="10"
     inkscape:pageopacity="0"
     inkscape:pageshadow="2"
     inkscape:window-width="640"
     inkscape:window-height="480"
     id="namedview3366"
     showgrid="false"
     fit-margin-top="0"
     fit-margin-left="0"
     fit-margin-right="0"
     fit-margin-bottom="0"
     inkscape:zoom="1.9032258"
     inkscape:cx="32"
     inkscape:cy="-37"
     inkscape:window-x="0"
     inkscape:window-y="0"
     inkscape:window-maximized="0"
     inkscape:current-layer="AvatarAssets" />
  <defs
     id="defs3350" />
  <g
     id="backShirtTorso20101130Color_3"
     overflow="visible"
     style="overflow:visible"
     transform="translate(0,0.00207484)">
    <g
       id="backShirtTorso20101130Color_2_0">
      <g
         id="element">
        <path
           id="path"
           d="M 21.25,17.05 20.85,15.85 20,15 19.85,14.8 c 0,0.05 0,0.05 0.05,0.1 0.35,0.85 0.55,1.4 0.7,1.65 0.25,0.15 0.45,0.35 0.65,0.5 z M 5.35,15.1 c 0.85,-0.35 1.7,-0.6 2.6,-0.85 0,0 0,0 0.1,-0.05 0.75,-0.5 1.9,-1 3.3,-1.4 2.65,-0.75 4.75,0.1 5.7,0.65 L 16.35,13 C 14.3,12.25 11.95,11.8 10,11.8 7.65,11.85 4.1,13.75 1.9,15.05 2.85,14.5 4.05,13.8 5.3,13.25 4.75,13.9 4.2,14.75 4.05,15.75 2.7,16.55 1.8,17.2 1.2,17.8 1.9,17.15 2.95,16.35 4.65,15.45 L 5.35,15.1 z M 22.2,19.55 C 22,19.3 21.8,19.1 21.55,18.9 21.3,18.7 21.05,18.5 20.8,18.3 c -0.25,0.45 -0.95,0.6 -1.9,0.6 0.1,0.05 0.2,0.1 0.15,0.1 0.3,0.15 0.4,0.2 0.55,0.3 l 3,2.3 C 22.5,20.95 22.4,20.25 22.2,19.55 z M 6.15,16.8 l 0,-0.05 C 6,16.8 5.9,16.85 5.8,16.9 5.3,17.1 4.8,17.35 4.25,17.65 4.4,18 4.8,18.3 5.35,18.45 l 0.05,0 C 7.55,17.6 9.7,17.25 11.8,17.3 10.6,17.05 9.25,17.05 7.8,17.2 6.8,17.3 6.25,17.15 6.15,16.8 z M 13.3,2.25 13.05,2.2 C 11.6,2 10.05,2.1 8.4,2.45 9.05,2.35 9.35,2.3 9.65,2.25 9.15,2.5 8.75,2.8 8.4,3.2 L 8.15,3.5 10.1,3.3 c 0.15,-0.05 0.35,-0.05 0.5,-0.05 0.5,-0.35 1.55,-0.75 2.7,-1 z m 3.55,0.9 0.05,-0.2 C 16.9,0.8 13.9,-0.05 10.75,0 9.3,0.35 8.25,0.7 8.75,0.65 9,0.6 9.5,0.6 10,0.6 c 0.5,-0.1 1.2,-0.15 1.9,-0.1 2.05,0.2 3.85,1.05 4.95,2.65 z m -5.6,7 c 0.1,0 0.2,0 0.3,0 l -2.2,-0.1 C 8.55,10 8.1,9.6 8.05,8.75 l 0,-0.05 C 6.95,9 5.8,9.45 4.6,9.95 c 0.25,0.85 0.5,1.3 0.85,1.55 0.15,-0.05 0.3,-0.15 0.45,-0.2 0,-0.05 0,-0.05 0.05,-0.05 1.6,-0.75 3.35,-1.1 5.3,-1.1 z m 7.85,0.85 0,0.1 0.2,1.65 0.4,0.35 0.2,0.15 c 0.05,0.05 0.15,0.15 0.25,0.2 0.05,0.05 0.05,0.05 0.1,0.1 l -0.2,-0.8 C 19.9,12.35 19.65,11.75 19.1,11 z M 9.1,5.2 C 8.75,5.25 8.35,5.35 8,5.4 L 6.75,5.8 C 6.4,5.9 6.05,6.05 5.55,6.3 5.2,6.8 4.9,7.35 4.75,7.9 L 7,7.05 C 7.45,6.9 7.95,6.8 8.4,6.7 8.55,6.15 8.8,5.65 9.1,5.2 z m 0.1,14.05 c -0.3,0 -0.7,0.1 -1.1,0.15 0,0 -0.25,0.05 -0.25,0.05 C 7.05,19.6 6.4,19.8 5.95,20 5.6,20.15 5.3,20.3 5.1,20.45 L 3.7,21.7 7.3,20.05 3.7,21.7 c 0,0 5.25,-4.2 13.1,-0.7 3.35,1.45 5.1,2.55 5.95,3.3 l 0,0.7 c 0,0 0.05,-0.45 0,-1.2 C 21.45,22.4 18.3,20.7 15.9,19.95 15.8,19.9 15.7,19.9 15.65,19.9 15.4,19.8 15.15,19.7 14.9,19.65 l -5.2,-0.45 -0.05,0 c 0,0 0,0 -0.2,0.05 0.05,-0.05 -0.05,-0.05 -0.1,0 0,0 0,0 -0.15,0 z"
           inkscape:connector-curvature="0"
           style="fill:#545454" />
        <path
           id="path1"
           d="M 20.85,15.85 20.25,15.2 C 20.2,15.15 20.1,15.05 20,15 l 0.85,0.85 z M 8.05,14.2 c 2.6,-0.6 5.3,-0.6 7.85,0.05 1.65,0.45 3.25,1.25 4.7,2.3 -0.15,-0.25 -0.35,-0.8 -0.7,-1.65 -0.9,-0.8 -2.25,-1.5 -4.05,-2.1 -2.05,-0.7 -4,-1.05 -5.85,-1 1.95,0 4.3,0.45 6.35,1.2 l 0.7,0.45 C 16.1,12.9 14,12.05 11.35,12.8 9.95,13.2 8.8,13.7 8.05,14.2 z m 12.75,4.1 c 0.25,0.2 0.5,0.4 0.75,0.6 -0.45,-0.45 -1,-0.85 -1.6,-1.25 -2.7,-1.85 -6.15,-1.95 -10.4,-1.75 -1,0.05 -2.1,0.3 -3.4,0.85 l 0,0.05 c 0.1,0.35 0.65,0.5 1.65,0.4 1.45,-0.15 2.8,-0.15 4,0.1 l 0.05,0 c 1.6,0.05 3.15,0.25 4.8,0.7 0.85,0.2 1.7,0.6 2.4,1 0.05,0 -0.05,-0.05 -0.15,-0.1 0.95,0 1.65,-0.15 1.9,-0.6 z M 18.3,4.85 C 17.65,4.05 16.6,2.7 13.05,2.2 l 0.25,0.05 c -1.15,0.25 -2.2,0.65 -2.7,1 -0.15,0 -0.35,0 -0.5,0.05 C 10.55,3.25 11,3.25 11.45,3.25 13.5,3.3 15,3.5 16,3.9 17.1,4.35 18.1,5.3 18.7,6 L 18.3,4.85 z m 0.8,6.25 C 18.95,10.85 18.75,10.65 18.55,10.45 17.15,9.05 13.75,8.05 10.75,8.2 10,8.25 9.1,8.4 8.05,8.7 l 0,0.05 c 0.05,0.85 0.5,1.25 1.3,1.3 l 2.2,0.1 c 1.5,0 2.95,0.2 4.35,0.65 1.05,0.35 2.3,1.1 3.8,2.3 L 19.3,12.75 19.1,11.1 z M 19.35,8.75 19.2,7.9 C 18.15,6.35 16.2,5.15 10.9,5.05 9.9,5.05 8.95,5.15 8,5.4 8.35,5.35 8.75,5.25 9.1,5.2 8.8,5.65 8.55,6.15 8.4,6.7 8.65,6.65 8.85,6.6 9.1,6.55 c 2.05,-0.35 4,-0.35 5.8,0.1 2.05,0.45 3.55,1.4 4.45,2.1 z"
           inkscape:connector-curvature="0"
           style="fill:#737373" />
        <path
           id="path6"
           d="m 1.2,17.8 c 0.6,-0.6 1.5,-1.25 2.85,-2.05 0.15,-1 0.7,-1.85 1.25,-2.5 -1.25,0.55 -2.45,1.25 -3.4,1.8 L 1.2,17.8 z m 4.2,0.65 -0.05,0 C 4.8,18.3 4.4,18 4.25,17.65 4.1,17.7 4,17.8 3.9,17.85 L 3.25,18.2 C 2.2,18.85 1.3,19.5 0.6,20.05 l -0.2,1.1 c 0.7,-0.6 1.95,-1.35 4.25,-2.4 L 5.4,18.45 z M 9.65,2.25 C 9.35,2.3 9.05,2.35 8.4,2.45 6.95,2.8 5.7,3.25 4.65,3.8 L 4.2,5 C 4.7,4.65 5.35,4.3 6.25,3.95 6.5,3.85 6.8,3.8 7.05,3.7 c 0.05,0 0.1,0 0.15,0 0.05,-0.05 0.05,-0.05 0.1,-0.05 0.05,0 0.15,0 0.2,-0.05 C 7.7,3.55 7.9,3.55 8.1,3.5 L 8.15,3.5 8.4,3.2 C 8.75,2.8 9.15,2.5 9.65,2.25 z M 10.75,0 c 0,0 -0.3,0 -0.6,0.05 C 7,0.4 5.5,1.95 5.5,1.95 L 5.6,2.5 C 6.15,1.75 6.95,1.2 7.9,1 l 2.2,-0.4 c 0,0 0,0 -0.1,0 -0.5,0 -1,0 -1.25,0.05 C 8.25,0.7 9.3,0.35 10.75,0 z M 4.6,9.95 4.6,9.9 4.25,10.1 c -0.4,0.15 -0.9,0.4 -1.35,0.65 L 2.8,11.4 C 2.75,11.85 2.6,12.45 2.4,13.15 3,12.75 4,12.25 5.45,11.5 5.1,11.25 4.85,10.8 4.6,9.95 z m 0,-3.1 C 4.5,6.9 4.5,6.9 4.5,6.9 l -1,0.65 -0.25,1.2 C 3.7,8.45 4.15,8.2 4.6,8 4.65,7.95 4.75,7.9 4.75,7.9 4.9,7.35 5.2,6.8 5.55,6.3 5.2,6.45 4.85,6.65 4.6,6.85 z M 4.55,20.4 c -2.15,0.85 -3.5,1.75 -4.4,2.55 L 0,25 2.35,22.7 0,25 C 0,25 2.45,20.3 11.55,20.65 20.65,21 22.75,25 22.75,25 l 0,-0.7 C 21.9,23.55 20.15,22.45 16.8,21 8.95,17.5 3.7,21.7 3.7,21.7 L 7.3,20.05 3.7,21.7 5.1,20.45 C 5.3,20.3 5.6,20.15 5.95,20 l -0.6,0.15 C 5.1,20.2 4.8,20.3 4.55,20.4 z m 3.55,-1 c 0.4,-0.05 0.8,-0.15 1.1,-0.15 0,0 -0.1,0 -0.2,0 -0.3,0.05 -0.6,0.1 -0.9,0.15 z"
           inkscape:connector-curvature="0"
           style="fill:#2e2e2e" />
      </g>
      <g
         id="element1">
        <path
           id="path45"
           d="M 20.85,15.85 20.25,15.2 C 20.2,15.15 20.1,15.05 20,15 l 0.85,0.85 z M 8.05,14.2 c 2.6,-0.6 5.3,-0.6 7.85,0.05 1.65,0.45 3.25,1.25 4.7,2.3 -0.15,-0.25 -0.35,-0.8 -0.7,-1.65 -0.9,-0.8 -2.25,-1.5 -4.05,-2.1 -2.05,-0.7 -4,-1.05 -5.85,-1 1.95,0 4.3,0.45 6.35,1.2 l 0.7,0.45 C 16.1,12.9 14,12.05 11.35,12.8 9.95,13.2 8.8,13.7 8.05,14.2 z m 12.75,4.1 c 0.25,0.2 0.5,0.4 0.75,0.6 -0.45,-0.45 -1,-0.85 -1.6,-1.25 -2.7,-1.85 -6.15,-1.95 -10.4,-1.75 -1,0.05 -2.1,0.3 -3.4,0.85 l 0,0.05 c 0.1,0.35 0.65,0.5 1.65,0.4 1.45,-0.15 2.8,-0.15 4,0.1 l 0.05,0 c 1.6,0.05 3.15,0.25 4.8,0.7 0.85,0.2 1.7,0.6 2.4,1 0.05,0 -0.05,-0.05 -0.15,-0.1 0.95,0 1.65,-0.15 1.9,-0.6 z M 18.3,4.85 C 17.65,4.05 16.6,2.7 13.05,2.2 l 0.25,0.05 c -1.15,0.25 -2.2,0.65 -2.7,1 -0.15,0 -0.35,0 -0.5,0.05 C 10.55,3.25 11,3.25 11.45,3.25 13.5,3.3 15,3.5 16,3.9 17.1,4.35 18.1,5.3 18.7,6 L 18.3,4.85 z m 0.8,6.25 C 18.95,10.85 18.75,10.65 18.55,10.45 17.15,9.05 13.75,8.05 10.75,8.2 10,8.25 9.1,8.4 8.05,8.7 l 0,0.05 c 0.05,0.85 0.5,1.25 1.3,1.3 l 2.2,0.1 c 1.5,0 2.95,0.2 4.35,0.65 1.05,0.35 2.3,1.1 3.8,2.3 L 19.3,12.75 19.1,11.1 z M 19.35,8.75 19.2,7.9 C 18.15,6.35 16.2,5.15 10.9,5.05 9.9,5.05 8.95,5.15 8,5.4 8.35,5.35 8.75,5.25 9.1,5.2 8.8,5.65 8.55,6.15 8.4,6.7 8.65,6.65 8.85,6.6 9.1,6.55 c 2.05,-0.35 4,-0.35 5.8,0.1 2.05,0.45 3.55,1.4 4.45,2.1 z"
           inkscape:connector-curvature="0"
           style="fill:#737373" />
        <path
           id="path46"
           d="m 20.6,16.55 c 0.25,0.15 0.45,0.35 0.65,0.5 L 20.85,15.85 20,15 19.85,14.8 c 0,0.05 0,0.05 0.05,0.1 0.35,0.85 0.55,1.4 0.7,1.65 z M 7.95,14.25 c 0,0 0,0 0.1,-0.05 0.75,-0.5 1.9,-1 3.3,-1.4 2.65,-0.75 4.75,0.1 5.7,0.65 L 16.35,13 C 14.3,12.25 11.95,11.8 10,11.8 7.65,11.85 4.1,13.75 1.9,15.05 2.85,14.5 4.05,13.8 5.3,13.25 4.75,13.9 4.2,14.75 4.05,15.75 2.7,16.55 1.8,17.2 1.2,17.8 1.9,17.15 2.95,16.35 4.65,15.45 l 0.7,-0.35 c 0.85,-0.35 1.7,-0.6 2.6,-0.85 z m 13.6,4.65 c -0.25,-0.2 -0.5,-0.4 -0.75,-0.6 -0.25,0.45 -0.95,0.6 -1.9,0.6 0.1,0.05 0.2,0.1 0.15,0.1 0.3,0.15 0.4,0.2 0.55,0.3 l 3,2.3 C 22.5,20.95 22.4,20.25 22.2,19.55 22,19.3 21.8,19.1 21.55,18.9 z M 7.8,17.2 c -1,0.1 -1.55,-0.05 -1.65,-0.4 l 0,-0.05 C 6,16.8 5.9,16.85 5.8,16.9 5.3,17.1 4.8,17.35 4.25,17.65 4.4,18 4.8,18.3 5.35,18.45 l 0.05,0 C 7.55,17.6 9.7,17.25 11.8,17.3 10.6,17.05 9.25,17.05 7.8,17.2 z M 16.85,3.15 16.9,2.95 C 16.9,0.8 13.9,-0.05 10.75,0 9.3,0.35 8.25,0.7 8.75,0.65 9,0.6 9.5,0.6 10,0.6 c 0.5,-0.1 1.2,-0.15 1.9,-0.1 2.05,0.2 3.85,1.05 4.95,2.65 z m -6.25,0.1 c 0.5,-0.35 1.55,-0.75 2.7,-1 L 13.05,2.2 C 11.6,2 10.05,2.1 8.4,2.45 9.05,2.35 9.35,2.3 9.65,2.25 9.15,2.5 8.75,2.8 8.4,3.2 L 8.15,3.5 10.1,3.3 c 0.15,-0.05 0.35,-0.05 0.5,-0.05 z m 0.65,6.9 c 0.1,0 0.2,0 0.3,0 l -2.2,-0.1 C 8.55,10 8.1,9.6 8.05,8.75 l 0,-0.05 C 6.95,9 5.8,9.45 4.6,9.95 c 0.25,0.85 0.5,1.3 0.85,1.55 0.15,-0.05 0.3,-0.15 0.45,-0.2 0,-0.05 0,-0.05 0.05,-0.05 1.6,-0.75 3.35,-1.1 5.3,-1.1 z m 7.85,0.85 0,0.1 0.2,1.65 0.4,0.35 0.2,0.15 c 0.05,0.05 0.15,0.15 0.25,0.2 0.05,0.05 0.05,0.05 0.1,0.1 l -0.2,-0.8 C 19.9,12.35 19.65,11.75 19.1,11 z M 9.1,5.2 C 8.75,5.25 8.35,5.35 8,5.4 L 6.75,5.8 C 6.4,5.9 6.05,6.05 5.55,6.3 5.2,6.8 4.9,7.35 4.75,7.9 L 7,7.05 C 7.45,6.9 7.95,6.8 8.4,6.7 8.55,6.15 8.8,5.65 9.1,5.2 z m 0.1,14.05 c -0.3,0 -0.7,0.1 -1.1,0.15 0,0 -0.25,0.05 -0.25,0.05 C 7.05,19.6 6.4,19.8 5.95,20 5.6,20.15 5.3,20.3 5.1,20.45 L 3.7,21.7 7.3,20.05 3.7,21.7 c 0,0 5.25,-4.2 13.1,-0.7 3.35,1.45 5.1,2.55 5.95,3.3 l 0,0.7 c 0,0 0.05,-0.45 0,-1.2 C 21.45,22.4 18.3,20.7 15.9,19.95 15.8,19.9 15.7,19.9 15.65,19.9 15.4,19.8 15.15,19.7 14.9,19.65 l -5.2,-0.45 -0.05,0 c 0,0 0,0 -0.2,0.05 0.05,-0.05 -0.05,-0.05 -0.1,0 0,0 0,0 -0.15,0 z"
           inkscape:connector-curvature="0"
           style="fill:#545454" />
        <path
           id="path51"
           d="m 1.2,17.8 c 0.6,-0.6 1.5,-1.25 2.85,-2.05 0.15,-1 0.7,-1.85 1.25,-2.5 -1.25,0.55 -2.45,1.25 -3.4,1.8 L 1.2,17.8 z m 4.2,0.65 -0.05,0 C 4.8,18.3 4.4,18 4.25,17.65 4.1,17.7 4,17.8 3.9,17.85 L 3.25,18.2 C 2.2,18.85 1.3,19.5 0.6,20.05 l -0.2,1.1 c 0.7,-0.6 1.95,-1.35 4.25,-2.4 L 5.4,18.45 z M 10.75,0 c 0,0 -0.3,0 -0.6,0.05 C 7,0.4 5.5,1.95 5.5,1.95 L 5.6,2.5 C 6.15,1.75 6.95,1.2 7.9,1 l 2.2,-0.4 c 0,0 0,0 -0.1,0 -0.5,0 -1,0 -1.25,0.05 C 8.25,0.7 9.3,0.35 10.75,0 z M 9.65,2.25 C 9.35,2.3 9.05,2.35 8.4,2.45 6.95,2.8 5.7,3.25 4.65,3.8 L 4.2,5 C 4.7,4.65 5.35,4.3 6.25,3.95 6.5,3.85 6.8,3.8 7.05,3.7 c 0.05,0 0.1,0 0.15,0 0.05,-0.05 0.05,-0.05 0.1,-0.05 0.05,0 0.15,0 0.2,-0.05 C 7.7,3.55 7.9,3.55 8.1,3.5 L 8.15,3.5 8.4,3.2 C 8.75,2.8 9.15,2.5 9.65,2.25 z M 4.6,9.95 4.6,9.9 4.25,10.1 c -0.4,0.15 -0.9,0.4 -1.35,0.65 L 2.8,11.4 C 2.75,11.85 2.6,12.45 2.4,13.15 3,12.75 4,12.25 5.45,11.5 5.1,11.25 4.85,10.8 4.6,9.95 z m 0,-3.1 C 4.5,6.9 4.5,6.9 4.5,6.9 l -1,0.65 -0.25,1.2 C 3.7,8.45 4.15,8.2 4.6,8 4.65,7.95 4.75,7.9 4.75,7.9 4.9,7.35 5.2,6.8 5.55,6.3 5.2,6.45 4.85,6.65 4.6,6.85 z M 4.55,20.4 c -2.15,0.85 -3.5,1.75 -4.4,2.55 L 0,25 2.35,22.7 0,25 C 0,25 2.45,20.3 11.55,20.65 20.65,21 22.75,25 22.75,25 l 0,-0.7 C 21.9,23.55 20.15,22.45 16.8,21 8.95,17.5 3.7,21.7 3.7,21.7 L 7.3,20.05 3.7,21.7 5.1,20.45 C 5.3,20.3 5.6,20.15 5.95,20 l -0.6,0.15 C 5.1,20.2 4.8,20.3 4.55,20.4 z m 3.55,-1 c 0.4,-0.05 0.8,-0.15 1.1,-0.15 0,0 -0.1,0 -0.2,0 -0.3,0.05 -0.6,0.1 -0.9,0.15 z"
           inkscape:connector-curvature="0"
           style="fill:#2e2e2e" />
      </g>
      <g
         id="element2">
        <path
           id="path90"
           d="M 20.85,15.85 20.25,15.2 C 20.2,15.15 20.1,15.05 20,15 l 0.85,0.85 z M 8.05,14.2 c 2.6,-0.6 5.3,-0.6 7.85,0.05 1.65,0.45 3.25,1.25 4.7,2.3 -0.15,-0.25 -0.35,-0.8 -0.7,-1.65 -0.9,-0.8 -2.25,-1.5 -4.05,-2.1 -2.05,-0.7 -4,-1.05 -5.85,-1 1.95,0 4.3,0.45 6.35,1.2 l 0.7,0.45 C 16.1,12.9 14,12.05 11.35,12.8 9.95,13.2 8.8,13.7 8.05,14.2 z m 12.75,4.1 c 0.25,0.2 0.5,0.4 0.75,0.6 -0.45,-0.45 -1,-0.85 -1.6,-1.25 -2.7,-1.85 -6.15,-1.95 -10.4,-1.75 -1,0.05 -2.1,0.3 -3.4,0.85 l 0,0.05 c 0.1,0.35 0.65,0.5 1.65,0.4 1.45,-0.15 2.8,-0.15 4,0.1 l 0.05,0 c 1.6,0.05 3.15,0.25 4.8,0.7 0.85,0.2 1.7,0.6 2.4,1 0.05,0 -0.05,-0.05 -0.15,-0.1 0.95,0 1.65,-0.15 1.9,-0.6 z M 18.3,4.85 C 17.65,4.05 16.6,2.7 13.05,2.2 l 0.25,0.05 c -1.15,0.25 -2.2,0.65 -2.7,1 -0.15,0 -0.35,0 -0.5,0.05 C 10.55,3.25 11,3.25 11.45,3.25 13.5,3.3 15,3.5 16,3.9 17.1,4.35 18.1,5.3 18.7,6 L 18.3,4.85 z m 0.8,6.25 C 18.95,10.85 18.75,10.65 18.55,10.45 17.15,9.05 13.75,8.05 10.75,8.2 10,8.25 9.1,8.4 8.05,8.7 l 0,0.05 c 0.05,0.85 0.5,1.25 1.3,1.3 l 2.2,0.1 c 1.5,0 2.95,0.2 4.35,0.65 1.05,0.35 2.3,1.1 3.8,2.3 L 19.3,12.75 19.1,11.1 z M 19.35,8.75 19.2,7.9 C 18.15,6.35 16.2,5.15 10.9,5.05 9.9,5.05 8.95,5.15 8,5.4 8.35,5.35 8.75,5.25 9.1,5.2 8.8,5.65 8.55,6.15 8.4,6.7 8.65,6.65 8.85,6.6 9.1,6.55 c 2.05,-0.35 4,-0.35 5.8,0.1 2.05,0.45 3.55,1.4 4.45,2.1 z"
           inkscape:connector-curvature="0"
           style="fill:#737373" />
        <path
           id="path91"
           d="m 20.6,16.55 c 0.25,0.15 0.45,0.35 0.65,0.5 L 20.85,15.85 20,15 19.85,14.8 c 0,0.05 0,0.05 0.05,0.1 0.35,0.85 0.55,1.4 0.7,1.65 z M 7.95,14.25 c 0,0 0,0 0.1,-0.05 0.75,-0.5 1.9,-1 3.3,-1.4 2.65,-0.75 4.75,0.1 5.7,0.65 L 16.35,13 C 14.3,12.25 11.95,11.8 10,11.8 7.65,11.85 4.1,13.75 1.9,15.05 2.85,14.5 4.05,13.8 5.3,13.25 4.75,13.9 4.2,14.75 4.05,15.75 2.7,16.55 1.8,17.2 1.2,17.8 1.9,17.15 2.95,16.35 4.65,15.45 l 0.7,-0.35 c 0.85,-0.35 1.7,-0.6 2.6,-0.85 z m 13.6,4.65 c -0.25,-0.2 -0.5,-0.4 -0.75,-0.6 -0.25,0.45 -0.95,0.6 -1.9,0.6 0.1,0.05 0.2,0.1 0.15,0.1 0.3,0.15 0.4,0.2 0.55,0.3 l 3,2.3 C 22.5,20.95 22.4,20.25 22.2,19.55 22,19.3 21.8,19.1 21.55,18.9 z M 7.8,17.2 c -1,0.1 -1.55,-0.05 -1.65,-0.4 l 0,-0.05 C 6,16.8 5.9,16.85 5.8,16.9 5.3,17.1 4.8,17.35 4.25,17.65 4.4,18 4.8,18.3 5.35,18.45 l 0.05,0 C 7.55,17.6 9.7,17.25 11.8,17.3 10.6,17.05 9.25,17.05 7.8,17.2 z M 16.85,3.15 16.9,2.95 C 16.9,0.8 13.9,-0.05 10.75,0 9.3,0.35 8.25,0.7 8.75,0.65 9,0.6 9.5,0.6 10,0.6 c 0.5,-0.1 1.2,-0.15 1.9,-0.1 2.05,0.2 3.85,1.05 4.95,2.65 z m -6.25,0.1 c 0.5,-0.35 1.55,-0.75 2.7,-1 L 13.05,2.2 C 11.6,2 10.05,2.1 8.4,2.45 9.05,2.35 9.35,2.3 9.65,2.25 9.15,2.5 8.75,2.8 8.4,3.2 L 8.15,3.5 10.1,3.3 c 0.15,-0.05 0.35,-0.05 0.5,-0.05 z m 0.65,6.9 c 0.1,0 0.2,0 0.3,0 l -2.2,-0.1 C 8.55,10 8.1,9.6 8.05,8.75 l 0,-0.05 C 6.95,9 5.8,9.45 4.6,9.95 c 0.25,0.85 0.5,1.3 0.85,1.55 0.15,-0.05 0.3,-0.15 0.45,-0.2 0,-0.05 0,-0.05 0.05,-0.05 1.6,-0.75 3.35,-1.1 5.3,-1.1 z m 7.85,0.85 0,0.1 0.2,1.65 0.4,0.35 0.2,0.15 c 0.05,0.05 0.15,0.15 0.25,0.2 0.05,0.05 0.05,0.05 0.1,0.1 l -0.2,-0.8 C 19.9,12.35 19.65,11.75 19.1,11 z M 9.1,5.2 C 8.75,5.25 8.35,5.35 8,5.4 L 6.75,5.8 C 6.4,5.9 6.05,6.05 5.55,6.3 5.2,6.8 4.9,7.35 4.75,7.9 L 7,7.05 C 7.45,6.9 7.95,6.8 8.4,6.7 8.55,6.15 8.8,5.65 9.1,5.2 z m 0.1,14.05 c -0.3,0 -0.7,0.1 -1.1,0.15 0,0 -0.25,0.05 -0.25,0.05 C 7.05,19.6 6.4,19.8 5.95,20 5.6,20.15 5.3,20.3 5.1,20.45 L 3.7,21.7 7.3,20.05 3.7,21.7 c 0,0 5.25,-4.2 13.1,-0.7 3.35,1.45 5.1,2.55 5.95,3.3 l 0,0.7 c 0,0 0.05,-0.45 0,-1.2 C 21.45,22.4 18.3,20.7 15.9,19.95 15.8,19.9 15.7,19.9 15.65,19.9 15.4,19.8 15.15,19.7 14.9,19.65 l -5.2,-0.45 -0.05,0 c 0,0 0,0 -0.2,0.05 0.05,-0.05 -0.05,-0.05 -0.1,0 0,0 0,0 -0.15,0 z"
           inkscape:connector-curvature="0"
           style="fill:#545454" />
        <path
           id="path96"
           d="m 1.2,17.8 c 0.6,-0.6 1.5,-1.25 2.85,-2.05 0.15,-1 0.7,-1.85 1.25,-2.5 -1.25,0.55 -2.45,1.25 -3.4,1.8 L 1.2,17.8 z m 4.2,0.65 -0.05,0 C 4.8,18.3 4.4,18 4.25,17.65 4.1,17.7 4,17.8 3.9,17.85 L 3.25,18.2 C 2.2,18.85 1.3,19.5 0.6,20.05 l -0.2,1.1 c 0.7,-0.6 1.95,-1.35 4.25,-2.4 L 5.4,18.45 z M 10.75,0 c 0,0 -0.3,0 -0.6,0.05 C 7,0.4 5.5,1.95 5.5,1.95 L 5.6,2.5 C 6.15,1.75 6.95,1.2 7.9,1 l 2.2,-0.4 c 0,0 0,0 -0.1,0 -0.5,0 -1,0 -1.25,0.05 C 8.25,0.7 9.3,0.35 10.75,0 z M 9.65,2.25 C 9.35,2.3 9.05,2.35 8.4,2.45 6.95,2.8 5.7,3.25 4.65,3.8 L 4.2,5 C 4.7,4.65 5.35,4.3 6.25,3.95 6.5,3.85 6.8,3.8 7.05,3.7 c 0.05,0 0.1,0 0.15,0 0.05,-0.05 0.05,-0.05 0.1,-0.05 0.05,0 0.15,0 0.2,-0.05 C 7.7,3.55 7.9,3.55 8.1,3.5 L 8.15,3.5 8.4,3.2 C 8.75,2.8 9.15,2.5 9.65,2.25 z M 4.6,9.95 4.6,9.9 4.25,10.1 c -0.4,0.15 -0.9,0.4 -1.35,0.65 L 2.8,11.4 C 2.75,11.85 2.6,12.45 2.4,13.15 3,12.75 4,12.25 5.45,11.5 5.1,11.25 4.85,10.8 4.6,9.95 z m 0,-3.1 C 4.5,6.9 4.5,6.9 4.5,6.9 l -1,0.65 -0.25,1.2 C 3.7,8.45 4.15,8.2 4.6,8 4.65,7.95 4.75,7.9 4.75,7.9 4.9,7.35 5.2,6.8 5.55,6.3 5.2,6.45 4.85,6.65 4.6,6.85 z M 4.55,20.4 c -2.15,0.85 -3.5,1.75 -4.4,2.55 L 0,25 2.35,22.7 0,25 C 0,25 2.45,20.3 11.55,20.65 20.65,21 22.75,25 22.75,25 l 0,-0.7 C 21.9,23.55 20.15,22.45 16.8,21 8.95,17.5 3.7,21.7 3.7,21.7 L 7.3,20.05 3.7,21.7 5.1,20.45 C 5.3,20.3 5.6,20.15 5.95,20 l -0.6,0.15 C 5.1,20.2 4.8,20.3 4.55,20.4 z m 3.55,-1 c 0.4,-0.05 0.8,-0.15 1.1,-0.15 0,0 -0.1,0 -0.2,0 -0.3,0.05 -0.6,0.1 -0.9,0.15 z"
           inkscape:connector-curvature="0"
           style="fill:#2e2e2e" />
      </g>
    </g>
  </g>
</svg>
