<?xml version="1.0" encoding="UTF-8" standalone="no"?>
<!-- Generator: flash2svg, http://dissentgraphics.com/tools/flash2svg -->

<svg
   xmlns:dc="http://purl.org/dc/elements/1.1/"
   xmlns:cc="http://creativecommons.org/ns#"
   xmlns:rdf="http://www.w3.org/1999/02/22-rdf-syntax-ns#"
   xmlns:svg="http://www.w3.org/2000/svg"
   xmlns="http://www.w3.org/2000/svg"
   xmlns:sodipodi="http://sodipodi.sourceforge.net/DTD/sodipodi-0.dtd"
   xmlns:inkscape="http://www.inkscape.org/namespaces/inkscape"
   id="AvatarAssets"
   image-rendering="auto"
   version="1.1"
   x="0px"
   y="0px"
   width="27.25"
   height="28.15"
   viewBox="0 0 27.25 28.15"
   inkscape:version="0.48.4 r9939"
   sodipodi:docname="AvatarAssets_backShirtTorsoB010.svg">
  <metadata
     id="metadata3422">
    <rdf:RDF>
      <cc:Work
         rdf:about="">
        <dc:format>image/svg+xml</dc:format>
        <dc:type
           rdf:resource="http://purl.org/dc/dcmitype/StillImage" />
      </cc:Work>
    </rdf:RDF>
  </metadata>
  <sodipodi:namedview
     pagecolor="#ffffff"
     bordercolor="#666666"
     borderopacity="1"
     objecttolerance="10"
     gridtolerance="10"
     guidetolerance="10"
     inkscape:pageopacity="0"
     inkscape:pageshadow="2"
     inkscape:window-width="640"
     inkscape:window-height="480"
     id="namedview3420"
     showgrid="false"
     inkscape:zoom="1.9032258"
     inkscape:cx="45.249"
     inkscape:cy="-59.049"
     inkscape:window-x="0"
     inkscape:window-y="0"
     inkscape:window-maximized="0"
     inkscape:current-layer="AvatarAssets"
     fit-margin-top="0"
     fit-margin-left="0"
     fit-margin-right="0"
     fit-margin-bottom="0" />
  <defs
     id="defs3407" />
  <g
     id="backShirtTorsoB11"
     overflow="visible"
     style="overflow:visible"
     transform="translate(13.249,25.199)">
    <g
       id="backShirtTorsoB010_0">
      <g
         id="element">
        <path
           id="path"
           d="m -10.199,-8.249 c -0.2,1.2 -1.7,6.2 -2.2,8.2 -0.5,2 -0.85,3 -0.85,3 l 1.45,-2.05 -1.45,2.05 c 0,0 1.5,-3.7 7.25,-5.35 5.7,-1.65 9.75,-0.5 12.95,0 3.2,0.5 5.4,2.35 6.2,3.15 l 0.85,0.85 c 0,0 -2.2,-3.5 -2.85,-6.35 q -0.2,-0.75 -1.7,-5.9 -1.25,-4.15 -1.3,-5.25 c -1,-1.45 -1.8,-3 -2.25,-4.75 -0.25,-1 -0.2,-2 0.15,-2.9 l -1.05,-1.05 c -0.4,0.25 -0.8,0.4 -1.2,0.55 -0.4,0.2 -0.85,0.4 -1.35,0.5 -0.5,0.15 -1,0.25 -1.55,0.25 l -0.3,0 c -0.5,0 -0.9,-0.1 -1.35,-0.2 -1.3,-0.1 -2.5,-0.7 -3.4,-1.7 -0.55,0.3 -1.05,0.7 -1.45,1.2 0.5,1.35 0.45,2.9 -0.35,4.2 -0.5,0.85 -1.05,1.65 -1.7,2.45 l -0.2,1.3 c -0.35,3 -2.2,6.65 -2.35,7.8 z"
           inkscape:connector-curvature="0"
           style="fill:#f5f1e7" />
      </g>
      <g
         id="element1">
        <path
           id="path1"
           d="m -4.149,-25.199 c -0.55,0.3 -1.05,0.7 -1.45,1.2 0.5,1.35 0.45,2.9 -0.35,4.2 -0.5,0.85 -1.05,1.65 -1.7,2.45 l -0.2,1.3 c -0.35,3 -2.2,6.65 -2.35,7.8 -0.2,1.2 -1.7,6.2 -2.2,8.2 -0.5,2 -0.85,3 -0.85,3 l 1.45,-2.05 -1.45,2.05 c 0,0 1.5,-3.7 7.25,-5.35 5.7,-1.65 9.75,-0.5 12.95,0 3.2,0.5 5.4,2.35 6.2,3.15 l 0.85,0.85 c 0,0 -2.2,-3.5 -2.85,-6.35 l -1.4,-4.8 0,0.05 c -0.35,2.85 -1.35,2.35 -2.85,2.2 -1.5,-0.2 -3,-0.85 -3.65,-1 l 1.5,0.5 -1.5,-0.5 c -0.65,-0.2 0.35,-1.2 0.35,-1.2 0,0 -2,-6.5 -1.85,-3.3 0.05,0.7 -0.15,4.5 -4.65,2.3 -1.7,-0.8 -0.35,-4.3 -0.2,-5.65 0.2,-1.3 1.7,-3.85 2.65,-4.05 0.95,-0.25 2.2,-0.95 2.2,-0.95 l -4.35,-0.65 2.7,-0.2 c 1.65,-0.15 3.3,-0.8 3.3,-0.8 0,0 -0.8,0.15 -3.65,-0.2 -2.85,-0.3 -3.9,-2.2 -3.9,-2.2 z"
           inkscape:connector-curvature="0"
           style="fill:#000000;fill-opacity:0.08600003" />
      </g>
      <g
         id="element2">
        <g
           id="drawingObject2">
          <path
             id="path2"
             d="m -4.499,-24.949 -0.8,0.65 q 0.55,0.55 0.9,1.85 0.3,1.05 0.3,1.8 c 0,1 2.35,0 2.35,0 l -0.85,-0.35 c -0.8,-0.3 -1.15,-1.65 -1.15,-1.65 l 0.3,0.7 -0.3,-0.7 1.15,0 -1.9,-2.3 z"
             inkscape:connector-curvature="0"
             style="fill:#000000;fill-opacity:0.08600003" />
        </g>
        <g
           id="drawingObject3">
          <path
             id="path3"
             d="m -7.849,-16.049 c -0.35,3 -2.2,6.65 -2.35,7.8 -0.2,1.2 -1.7,6.2 -2.2,8.2 -0.5,2 -0.85,3 -0.85,3 l 1.45,-2.05 -1.45,2.05 c 0,0 1.5,-3.7 7.25,-5.35 q 3.65,-1.05 7.4,-0.8 0.7,0.05 5.55,0.8 c 3.2,0.5 5.4,2.35 6.2,3.15 l 0.85,0.85 c 0,0 -1.9,-3.05 -2.7,-5.75 -1.45,-0.1 -3.8,-1.65 -6.35,-2.45 -3.65,-1.15 -8.35,0.6 -9.55,0.45 -1.15,-0.15 1.5,-1.85 1.5,-1.85 l -1,-0.3 c -1,-0.35 -2.3,-1 -2.65,-3.5 -0.35,-2.5 1.5,-7.5 1.5,-7.5 l -0.9,2.8 0.9,-2.8 -1.15,1.3 c -0.55,0.65 -1,0.8 -1.3,0.85 l -0.15,1.1 z"
             inkscape:connector-curvature="0"
             style="fill:#000000;fill-opacity:0.08600003" />
        </g>
      </g>
    </g>
  </g>
</svg>
