<?xml version="1.0" encoding="UTF-8" standalone="no"?>
<!-- Generator: flash2svg, http://dissentgraphics.com/tools/flash2svg -->

<svg
   xmlns:dc="http://purl.org/dc/elements/1.1/"
   xmlns:cc="http://creativecommons.org/ns#"
   xmlns:rdf="http://www.w3.org/1999/02/22-rdf-syntax-ns#"
   xmlns:svg="http://www.w3.org/2000/svg"
   xmlns="http://www.w3.org/2000/svg"
   xmlns:sodipodi="http://sodipodi.sourceforge.net/DTD/sodipodi-0.dtd"
   xmlns:inkscape="http://www.inkscape.org/namespaces/inkscape"
   id="AvatarAssets"
   image-rendering="auto"
   version="1.1"
   x="0px"
   y="0px"
   width="22.7875"
   height="24.978485"
   viewBox="0 0 22.7875 24.978485"
   inkscape:version="0.48.4 r9939"
   sodipodi:docname="AvatarAssets_backShirtTorso20101103Brown.svg">
  <metadata
     id="metadata3034">
    <rdf:RDF>
      <cc:Work
         rdf:about="">
        <dc:format>image/svg+xml</dc:format>
        <dc:type
           rdf:resource="http://purl.org/dc/dcmitype/StillImage" />
      </cc:Work>
    </rdf:RDF>
  </metadata>
  <sodipodi:namedview
     pagecolor="#ffffff"
     bordercolor="#666666"
     borderopacity="1"
     objecttolerance="10"
     gridtolerance="10"
     guidetolerance="10"
     inkscape:pageopacity="0"
     inkscape:pageshadow="2"
     inkscape:window-width="640"
     inkscape:window-height="480"
     id="namedview3032"
     showgrid="false"
     fit-margin-top="0"
     fit-margin-left="0"
     fit-margin-right="0"
     fit-margin-bottom="0"
     inkscape:zoom="1.9032258"
     inkscape:cx="43.35"
     inkscape:cy="-64.05"
     inkscape:window-x="0"
     inkscape:window-y="0"
     inkscape:window-maximized="0"
     inkscape:current-layer="AvatarAssets" />
  <defs
     id="defs3023" />
  <g
     id="backShirtTorso20101103Brown1"
     overflow="visible"
     style="overflow:visible"
     transform="translate(11.35,27.028486)">
    <g
       id="backShirtTorso20101103Brown_0">
      <g
         id="element">
        <path
           id="path"
           d="m 7.7,-19.85 c -0.25,-1 -0.75,-2.85 -2.15,-4.5 -0.2,-2 -3.3,-2.85 -6.2,-2.65 -1.4,0.3 -2.45,0.65 -1.95,0.6 0.35,-0.05 1.4,-0.1 2.4,0 -0.25,0 -0.5,0 -0.9,0.05 -1.25,0.5 -2.15,1.65 -2.7,2.8 -0.45,0.85 -0.15,1.7 -0.3,2.6 l -0.3,0 c 0.05,0.95 1.65,1.25 2.25,1.7 l -1.65,0.05 c 0.75,0.4 1.65,0.35 2.4,0.75 -0.45,0.2 -1,-0.05 -1.45,0.35 1.75,0.45 3.55,-0.55 5.15,0.5 -1.45,-0.05 -2.55,0 -3.3,0.15 l -0.05,0 -0.2,0.1 c 0.6,0.05 1.1,0.15 1.55,0.35 -1.1,0.3 -2.1,0.25 -3,0.95 -0.3,0.25 -0.6,0.55 -0.8,0.9 -0.85,1.1 -0.9,1.8 -1.05,3.1 L -4.6,-12.1 c -0.15,1.1 0.9,2 1.9,2.3 1,0.3 2.4,-0.1 3.25,0.45 -0.35,0.15 -0.75,0.1 -1.15,0.25 1.25,-0.05 2.4,0 3.45,0.6 0.7,0.35 1.4,0.7 2.2,0.75 L 7.9,-7.3 c 0.35,0.05 0.75,0.2 1.1,-0.05 l -0.15,0.3 c 0.95,0.1 1.45,-0.45 1.6,-1.6 -0.1,-0.25 -0.2,-0.45 -0.3,-0.7 -1.55,-3.5 -2.1,-9.1 -2.45,-10.5 z m -2.95,-5.2 c -0.2,-0.2 -0.6,-0.4 -1.05,-0.55 0,0 0,0 -0.1,-0.15 0.7,0.3 1.05,0.55 1.15,0.7 z m 6.65,23 c 0.05,-0.65 0.05,-1.4 0,-2.35 -0.1,-1.15 -0.3,-2.15 -0.55,-3.1 0.1,0.45 0.2,0.95 0.3,1.5 0.4,2.2 0.25,3.95 0.25,3.95 z M -5.75,-24.5 c -0.05,0 -0.2,0.15 -0.35,0.3 l 0.7,-0.55 c 0.1,-0.05 0.2,-0.15 0.3,-0.2 -0.25,0.15 -0.45,0.3 -0.65,0.45 z"
           inkscape:connector-curvature="0"
           style="fill:#6a5335" />
        <path
           id="path1"
           d="m 4.75,-25.05 c -0.1,-0.15 -0.45,-0.4 -1.15,-0.7 0.1,0.15 0.1,0.15 0.1,0.15 0.45,0.15 0.85,0.35 1.05,0.55 z M 4.5,-7.25 2.25,-7.55 C 1.2,-7.65 0.4,-7.75 -0.5,-8.15 -1.7,-8.7 -3.05,-8.7 -4.3,-8.95 c -0.65,-0.1 -1.3,-0.2 -1.9,-0.55 -0.45,-0.35 -0.45,-0.1 -0.5,-0.85 l 0,-1.35 c -1.1,-0.1 0.35,-3.5 0.85,-4 0.6,-0.55 1.25,-1.3 2.1,-1.45 0.8,-0.1 1.6,-0.05 2.35,-0.25 l -0.2,0.1 0.35,-0.05 0.2,-0.1 0.05,0 0.25,-0.15 c -1.05,-0.1 -2.15,0.1 -3.15,-0.2 -0.35,-0.1 -1.1,-0.25 -1.35,-0.4 -0.5,-0.4 -0.15,-0.35 -0.25,-0.75 -0.1,-0.25 -0.3,-0.5 -0.35,-0.75 -0.35,-1.3 0.1,-3.25 0.75,-4.35 0.45,-0.7 1.15,-1.35 1.9,-1.8 0.7,-0.25 1.45,-0.45 2.1,-0.5 0.4,-0.05 0.65,-0.05 0.9,-0.05 -1,-0.1 -2.05,-0.05 -2.4,0 -0.5,0.05 0.55,-0.3 1.95,-0.6 -0.15,0.05 -0.35,0.05 -0.55,0.05 -3.15,0.3 -4.65,1.9 -4.65,1.9 l 1.15,-0.85 -1.15,0.85 0.1,0.55 c 0.2,-0.15 0.4,-0.3 0.65,-0.45 -0.1,0.05 -0.2,0.15 -0.3,0.2 -0.55,1.15 -1.3,2.15 -1.35,3.45 -0.05,0.8 -0.25,1.65 -0.25,2.35 -0.05,0.75 0.4,1.4 0.3,2.15 -1.1,-0.1 -0.8,0.6 -0.9,1.45 -0.05,1.05 -0.3,2 -0.3,3.05 -0.05,1.25 -0.15,1.8 -0.7,2.95 -0.4,0.85 -1.3,1.85 -1.4,2.8 0.6,-0.2 1.25,-0.6 1.9,-0.7 -0.3,0.55 -1.1,0.85 -1.45,1.45 0.95,0.35 3.15,-0.85 4.15,-1.05 1.4,-0.35 3.15,-0.3 4.6,-0.05 l 2.05,0.55 6.35,1.4 c 0.65,0.3 1.25,0.65 1.8,1 1,0.65 1.65,1.3 2,1.9 0,0 0.15,-1.75 -0.25,-3.95 -0.05,0.2 -0.1,0.35 -0.2,0.45 C 10.4,-4.8 9.7,-5.3 9,-5.45 L 9,-5 C 8.5,-5.45 7.75,-5.65 7.15,-6 6.35,-6.5 5.45,-7 4.5,-7.25 z"
           inkscape:connector-curvature="0"
           style="fill:#403221" />
        <path
           id="path4"
           d="M 8.85,-7.05 9,-7.35 C 8.65,-7.1 8.25,-7.25 7.9,-7.3 L 5.05,-7.75 C 4.25,-7.8 3.55,-8.15 2.85,-8.5 1.8,-9.1 0.65,-9.15 -0.6,-9.1 -0.2,-9.25 0.2,-9.2 0.55,-9.35 -0.3,-9.9 -1.7,-9.5 -2.7,-9.8 c -1,-0.3 -2.05,-1.2 -1.9,-2.3 l 0.05,0.05 c 0.15,-1.3 0.2,-2 1.05,-3.1 0.2,-0.35 0.5,-0.65 0.8,-0.9 0.9,-0.7 1.9,-0.65 3,-0.95 -0.45,-0.2 -0.95,-0.3 -1.55,-0.35 l -0.35,0.05 0.2,-0.1 c -0.75,0.2 -1.55,0.15 -2.35,0.25 -0.85,0.15 -1.5,0.9 -2.1,1.45 -0.5,0.5 -1.95,3.9 -0.85,4 l 0,1.35 c 0.05,0.75 0.05,0.5 0.5,0.85 0.6,0.35 1.25,0.45 1.9,0.55 1.25,0.25 2.6,0.25 3.8,0.8 0.9,0.4 1.7,0.5 2.75,0.6 l 2.25,0.3 C 5.45,-7 6.35,-6.5 7.15,-6 7.75,-5.65 8.5,-5.45 9,-5 l 0,-0.45 c 0.7,0.15 1.4,0.65 1.95,-0.1 0.1,-0.1 0.15,-0.25 0.2,-0.45 -0.1,-0.55 -0.2,-1.05 -0.3,-1.5 -0.15,-0.45 -0.25,-0.85 -0.4,-1.2 l 0,0.05 c -0.15,1.15 -0.65,1.7 -1.6,1.6 z m -9.95,-19.3 c -0.65,0.05 -1.4,0.25 -2.1,0.5 -0.75,0.45 -1.45,1.1 -1.9,1.8 -0.65,1.1 -1.1,3.05 -0.75,4.35 0.05,0.25 0.25,0.5 0.35,0.75 0.1,0.4 -0.25,0.35 0.25,0.75 0.25,0.15 1,0.3 1.35,0.4 1,0.3 2.1,0.1 3.15,0.2 L -1,-17.45 c 0.75,-0.15 1.85,-0.2 3.3,-0.15 -1.6,-1.05 -3.4,-0.05 -5.15,-0.5 0.45,-0.4 1,-0.15 1.45,-0.35 -0.75,-0.4 -1.65,-0.35 -2.4,-0.75 l 1.65,-0.05 c -0.6,-0.45 -2.2,-0.75 -2.25,-1.7 l 0.3,0 c 0.15,-0.9 -0.15,-1.75 0.3,-2.6 0.55,-1.15 1.45,-2.3 2.7,-2.8 z"
           inkscape:connector-curvature="0"
           style="fill:#57442c" />
        <path
           id="path7"
           d="m 0.2,-6.4 c 0.35,0 0.7,0 1.05,0.05 L -0.8,-6.9 c -1.45,-0.25 -3.2,-0.3 -4.6,0.05 -1,0.2 -3.2,1.4 -4.15,1.05 0.35,-0.6 1.15,-0.9 1.45,-1.45 -0.65,0.1 -1.3,0.5 -1.9,0.7 0.1,-0.95 1,-1.95 1.4,-2.8 0.55,-1.15 0.65,-1.7 0.7,-2.95 0,-1.05 0.25,-2 0.3,-3.05 0.1,-0.85 -0.2,-1.55 0.9,-1.45 0.1,-0.75 -0.35,-1.4 -0.3,-2.15 0,-0.7 0.2,-1.55 0.25,-2.35 0.05,-1.3 0.8,-2.3 1.35,-3.45 l -0.7,0.55 c -1.2,1.25 -2.1,6.3 -2.45,8.55 -0.35,2.25 -2.45,8.75 -2.6,11.15 l -0.2,2.45 2.35,-2.3 -2.35,2.3 c 0,0 2.45,-4.7 11.55,-4.35 z"
           inkscape:connector-curvature="0"
           style="fill:#2f2519" />
      </g>
    </g>
  </g>
</svg>
