<?xml version="1.0" encoding="UTF-8" standalone="no"?>
<!-- Generator: flash2svg, http://dissentgraphics.com/tools/flash2svg -->

<svg
   xmlns:dc="http://purl.org/dc/elements/1.1/"
   xmlns:cc="http://creativecommons.org/ns#"
   xmlns:rdf="http://www.w3.org/1999/02/22-rdf-syntax-ns#"
   xmlns:svg="http://www.w3.org/2000/svg"
   xmlns="http://www.w3.org/2000/svg"
   xmlns:sodipodi="http://sodipodi.sourceforge.net/DTD/sodipodi-0.dtd"
   xmlns:inkscape="http://www.inkscape.org/namespaces/inkscape"
   id="AvatarAssets"
   image-rendering="auto"
   version="1.1"
   x="0px"
   y="0px"
   width="22.551006"
   height="16.75708"
   viewBox="0 0 22.551006 16.75708"
   inkscape:version="0.48.4 r9939"
   sodipodi:docname="AvatarAssets_backPantsTopA005.svg">
  <metadata
     id="metadata3098">
    <rdf:RDF>
      <cc:Work
         rdf:about="">
        <dc:format>image/svg+xml</dc:format>
        <dc:type
           rdf:resource="http://purl.org/dc/dcmitype/StillImage" />
      </cc:Work>
    </rdf:RDF>
  </metadata>
  <sodipodi:namedview
     pagecolor="#ffffff"
     bordercolor="#666666"
     borderopacity="1"
     objecttolerance="10"
     gridtolerance="10"
     guidetolerance="10"
     inkscape:pageopacity="0"
     inkscape:pageshadow="2"
     inkscape:window-width="640"
     inkscape:window-height="480"
     id="namedview3096"
     showgrid="false"
     fit-margin-top="0"
     fit-margin-left="0"
     fit-margin-right="0"
     fit-margin-bottom="0"
     inkscape:zoom="1.9032258"
     inkscape:cx="43.834243"
     inkscape:cy="-54.551572"
     inkscape:window-x="0"
     inkscape:window-y="0"
     inkscape:window-maximized="0"
     inkscape:current-layer="AvatarAssets" />
  <defs
     id="defs3083" />
  <g
     id="backPantsTopA6"
     overflow="visible"
     style="overflow:visible"
     transform="translate(11.834243,9.3086521)">
    <g
       id="backPantsTopA005_0">
      <g
         id="element">
        <g
           id="drawingObject">
          <path
             id="path"
             d="m 10.701,-1.697 -0.55,-5.728 -0.05,-0.098 c -0.95,-0.312 -2.55,-0.799 -5.45,-1.383 -6.6,-1.337 -13,0.918 -15.7,2.925 l 0,0.4 c -0.1,0.504 -1.65,4.216 -0.1,7.354 1.6,3.086 5.55,6.829 14.15,5.337 7.05,-1.231 7.85,-7.463 7.7,-8.807 z"
             inkscape:connector-curvature="0"
             style="fill:#ab4d16" />
        </g>
        <g
           id="drawingObject1">
          <path
             id="path1"
             d="m 10.701,-0.997 -0.75,-0.32 c 0,0 -3.05,-1.329 -4.4,0.225 q -1.3,1.552 -1.9,1.976 -1.25,0.849 -3.6,1.043 c -3.5,0.339 -3.15,-1.024 -3.15,-1.024 l 0.25,0.64 -0.25,-0.64 0.85,-0.034 c 0.8,-0.032 2.15,-0.736 2.15,-0.736 0,0 -0.85,0.034 -4.85,-1.807 -4,-1.84 0.25,-4.86 2.5,-6.099 3.35,-1.884 8.9,-0.205 12.55,0.35 l 0,-0.1 c -0.95,-0.312 -2.6,-0.797 -5.45,-1.383 -6.6,-1.337 -13,0.918 -15.7,2.925 l 0,0.4 c -0.1,0.504 -1.65,4.216 -0.1,7.354 1.6,3.086 5.55,6.829 14.15,5.337 6.25,-1.099 7.6,-6.053 7.7,-8.107 z"
             inkscape:connector-curvature="0"
             style="fill:#964313" />
        </g>
        <g
           id="drawingObject2">
          <path
             id="path2"
             d="m 3.001,7.11 c 5.05,-0.902 6.9,-4.325 7.5,-6.699 -1.85,-1.126 -4.25,-1.931 -4.95,-1.503 l -0.4,0.516 c -0.75,1.33 -0.95,4.488 -3.25,4.279 -2.65,-0.194 -3.15,0.476 -4.85,0.544 -1.65,0.065 -0.3,-2.338 -1.7,-4.283 -1.35,-1.946 -2.95,-0.732 -5.1,0.203 l -1.75,0.72 0.35,0.886 c 1.6,3.086 5.55,6.829 14.15,5.337 z"
             inkscape:connector-curvature="0"
             style="fill:#823a10" />
        </g>
        <g
           id="drawingObject3">
          <path
             id="path3"
             d="m 0.151,-5.527 c -0.45,1.168 -0.75,1.38 -0.75,1.38 l 0.95,0.012 0.2,3.742 c 0,1.25 0.35,2.636 0.35,2.636 0,0 -0.2,-4.042 -0.1,-5.896 0.1,-1.854 -0.05,-3.448 0,-4.2 l 0,-1.1 c -0.3,0.012 -0.55,0.022 -0.8,0.082 l 0,-0.025 q 0.548,2.258 0.15,3.369 z"
             inkscape:connector-curvature="0"
             style="fill:#964313" />
        </g>
      </g>
    </g>
  </g>
</svg>
