<?xml version="1.0" encoding="UTF-8" standalone="no"?>
<!-- Generator: flash2svg, http://dissentgraphics.com/tools/flash2svg -->

<svg
   xmlns:dc="http://purl.org/dc/elements/1.1/"
   xmlns:cc="http://creativecommons.org/ns#"
   xmlns:rdf="http://www.w3.org/1999/02/22-rdf-syntax-ns#"
   xmlns:svg="http://www.w3.org/2000/svg"
   xmlns="http://www.w3.org/2000/svg"
   xmlns:sodipodi="http://sodipodi.sourceforge.net/DTD/sodipodi-0.dtd"
   xmlns:inkscape="http://www.inkscape.org/namespaces/inkscape"
   id="AvatarAssets"
   image-rendering="auto"
   version="1.1"
   x="0px"
   y="0px"
   width="22.762741"
   height="24.450001"
   viewBox="0 0 22.762741 24.450001"
   inkscape:version="0.48.4 r9939"
   sodipodi:docname="AvatarAssets_backShirtTorso20101103Black2.svg">
  <metadata
     id="metadata3004">
    <rdf:RDF>
      <cc:Work
         rdf:about="">
        <dc:format>image/svg+xml</dc:format>
        <dc:type
           rdf:resource="http://purl.org/dc/dcmitype/StillImage" />
      </cc:Work>
    </rdf:RDF>
  </metadata>
  <sodipodi:namedview
     pagecolor="#ffffff"
     bordercolor="#666666"
     borderopacity="1"
     objecttolerance="10"
     gridtolerance="10"
     guidetolerance="10"
     inkscape:pageopacity="0"
     inkscape:pageshadow="2"
     inkscape:window-width="640"
     inkscape:window-height="480"
     id="namedview3002"
     showgrid="false"
     fit-margin-top="0"
     fit-margin-left="0"
     fit-margin-right="0"
     fit-margin-bottom="0"
     inkscape:zoom="1.9032258"
     inkscape:cx="43.612742"
     inkscape:cy="-64"
     inkscape:window-x="0"
     inkscape:window-y="0"
     inkscape:window-maximized="0"
     inkscape:current-layer="AvatarAssets" />
  <defs
     id="defs2993" />
  <g
     id="backShirtTorso20101103Black3"
     overflow="visible"
     style="overflow:visible"
     transform="translate(11.612742,26.45)">
    <g
       id="backShirtTorso20101103Black2_0">
      <g
         id="element">
        <path
           id="path"
           d="m 1,-26.3 -0.15,-0.05 0,0.1 L 1,-26.3 z m 0.4,1.05 c -1.05,-0.75 -1.65,-0.65 -3,-0.6 l 0.2,-0.05 -2.25,0.15 -0.05,0 -0.2,0.15 c -0.5,0.2 -0.9,0.5 -1.3,0.8 0.8,-0.15 1.55,-0.25 2.55,-0.2 1.2,0.1 4.05,0.75 4.5,2 0.1,0.3 -0.1,0.7 0,1 0.2,0.5 0.4,0.4 0.75,0.7 l -0.45,-0.25 0.45,0.25 c 0.75,0.65 1.25,1.2 1.25,2.25 0,1.3 -0.55,1.45 -1.25,2.05 L 3.5,-17.75 2.6,-17 c -0.1,0.1 -0.2,0.2 -0.3,0.35 -0.4,-0.35 -0.75,-0.95 -1,-1.9 -0.4,-1.9 -0.7,-3.05 -0.9,-3.4 -0.8,1.45 -0.2,3.3 -0.8,4.8 -0.4,0.95 -1,0.9 -2.1,1.4 0.6,0 1.55,0 2.8,-0.05 0.65,-0.05 1.2,-0.05 1.75,0 0.65,0.1 1.05,0.15 1.1,0.15 0.85,0.2 0.95,0.45 0.35,0.7 0.7,0.5 1.7,0.15 2,1.1 0.2,0.55 -0.25,2.05 -0.3,2.7 -0.35,-0.05 -0.75,-0.15 -1.15,-0.1 -0.75,0.1 -0.6,0.4 -1.1,0.75 -2.05,1.5 -5.8,0.85 -8,-0.05 1.7,0.85 3.5,1.3 5.25,1.7 -1.35,0.6 -3.05,0.3 -4.55,0.35 l 0.95,0.75 c -2,0.1 -3.95,-0.1 -5.9,0.5 -0.65,0.2 -1.25,0.3 -1.8,0.15 l -0.25,1.35 c -0.2,0.95 -0.3,1.85 -0.25,2.7 l 0.05,1.05 1.4,-1.5 c 0.6,-0.5 1.3,-0.95 2.15,-1.3 l 0.75,-0.3 c 0.75,-0.3 1.65,-0.55 2.6,-0.75 L -4.8,-6 c -0.45,-0.3 -1.9,0 -2.45,0 0.85,-0.1 1.55,-0.55 2.4,-0.6 0.55,-0.1 1.3,0.15 1.85,0 0.45,-0.15 0.75,-0.55 1.25,-0.75 C -0.2,-7.9 2.05,-7.2 3.45,-8 3.3,-8.15 3.2,-8.45 2.9,-8.5 4.1,-9 5.75,-7.75 6.4,-9.15 6.85,-10.2 6.45,-11.7 6.2,-12.75 6,-13.6 5.95,-14.5 5.85,-15.4 5.65,-16.65 5.3,-17.6 5.1,-18.8 c -0.15,-0.9 -0.45,-1.65 -0.5,-2.6 0,-0.45 0.2,-1.3 -0.15,-1.7 -0.25,-0.3 -0.35,-0.05 -0.6,-0.25 l -2.45,-1.9 z"
           inkscape:connector-curvature="0"
           style="fill:#202121" />
        <path
           id="path1"
           d="M 0.85,-26.35 1,-26.3 c 0.85,0.1 1.65,0.3 2.35,0.6 1.1,0.4 1.95,0.95 2.55,1.55 q -0.95,-1 -2.6,-1.6 -1.85,-0.7 -3.85,-0.7 c -1.15,0 -2.05,0.15 -2.7,0.45 l -0.4,0.25 2.25,-0.15 2.25,-0.25 0,-0.1 0,-0.1 z m 1,4.35 c -0.1,-0.3 0.1,-0.7 0,-1 -0.45,-1.25 -3.3,-1.9 -4.5,-2 -1,-0.05 -1.75,0.05 -2.55,0.2 0.4,-0.3 0.8,-0.6 1.3,-0.8 -2.8,1.05 -3.65,4.4 -4,5.8 -0.35,1.4 -0.85,6.95 -2.45,10.45 -0.3,0.7 -0.55,1.45 -0.75,2.25 0.55,0.15 1.15,0.05 1.8,-0.15 1.95,-0.6 3.9,-0.4 5.9,-0.5 L -4.35,-8.5 c 1.5,-0.05 3.2,0.25 4.55,-0.35 -1.75,-0.4 -3.55,-0.85 -5.25,-1.7 2.2,0.9 5.95,1.55 8,0.05 0.5,-0.35 0.35,-0.65 1.1,-0.75 0.4,-0.05 0.8,0.05 1.15,0.1 0.05,-0.65 0.5,-2.15 0.3,-2.7 -0.3,-0.95 -1.3,-0.6 -2,-1.1 0.6,-0.25 0.5,-0.5 -0.35,-0.7 -0.05,0 -0.45,-0.05 -1.1,-0.15 -0.55,-0.05 -1.1,-0.05 -1.75,0 -1.25,0.05 -2.2,0.05 -2.8,0.05 1.1,-0.5 1.7,-0.45 2.1,-1.4 0.6,-1.5 0,-3.35 0.8,-4.8 0.2,0.35 0.5,1.5 0.9,3.4 0.25,0.95 0.6,1.55 1,1.9 C 2.4,-16.8 2.5,-16.9 2.6,-17 L 3.5,-17.75 2.6,-17 c 0.7,-0.6 1.25,-0.75 1.25,-2.05 0,-1.05 -0.5,-1.6 -1.25,-2.25 L 2.15,-21.55 2.6,-21.3 C 2.25,-21.6 2.05,-21.5 1.85,-22 z m -12,18.5 -1.4,1.5 2.2,-2.05 c 0.4,-0.25 0.85,-0.5 1.35,-0.75 -0.85,0.35 -1.55,0.8 -2.15,1.3 z"
           inkscape:connector-curvature="0"
           style="fill:#2a2b2b" />
        <path
           id="path2"
           d="m 1,-26.3 -0.15,0.05 0,0.1 -2.25,0.25 -0.2,0.05 c 1.35,-0.05 1.95,-0.15 3,0.6 l 2.45,1.9 c 0.25,0.2 0.35,-0.05 0.6,0.25 0.35,0.4 0.15,1.25 0.15,1.7 0.05,0.95 0.35,1.7 0.5,2.6 0.2,1.2 0.55,2.15 0.75,3.4 0.1,0.9 0.15,1.8 0.35,2.65 0.25,1.05 0.65,2.55 0.2,3.6 -0.65,1.4 -2.3,0.15 -3.5,0.65 0.3,0.05 0.4,0.35 0.55,0.5 -1.4,0.8 -3.65,0.1 -5.2,0.65 -0.5,0.2 -0.8,0.6 -1.25,0.75 -0.55,0.15 -1.3,-0.1 -1.85,0 -0.85,0.05 -1.55,0.5 -2.4,0.6 0.55,0 2,-0.3 2.45,0 l 0.15,0.15 c 1.2,-0.3 2.6,-0.45 4.25,-0.55 0.05,0 0.1,0 0.15,0 0.05,0 0.1,0 0.15,0 l 5.6,0.65 c 0.55,0.15 1.1,0.3 1.6,0.55 l 0,-0.05 C 7,-5.4 6.75,-5.85 6.4,-6.55 c 0.6,-0.1 1.3,0 1.95,-0.1 0.1,-2.7 -0.9,-5.2 -1.1,-7.85 -0.1,-1.4 0.1,-2.85 -0.15,-4.2 -0.2,-1.2 -0.9,-2.35 -1.45,-3.4 -0.6,-1.2 -2.2,-2.25 -2.3,-3.6 C 2.65,-26 1.85,-26.2 1,-26.3 z"
           inkscape:connector-curvature="0"
           style="fill:#161717" />
        <path
           id="path5"
           d="m 5.65,-22.1 c 0.55,1.05 1.25,2.2 1.45,3.4 0.25,1.35 0.05,2.8 0.15,4.2 0.2,2.65 1.2,5.15 1.1,7.85 -0.65,0.1 -1.35,0 -1.95,0.1 0.35,0.7 0.6,1.15 0.7,1.3 l 0,0.05 c 3.05,1.3 4.05,3.2 4.05,3.2 L 11,-4.45 C 10.8,-6.9 8.7,-13.35 8.35,-15.6 8,-17.9 7.15,-22.95 5.9,-24.15 5.3,-24.75 4.45,-25.3 3.35,-25.7 c 0.1,1.35 1.7,2.4 2.3,3.6 z"
           inkscape:connector-curvature="0"
           style="fill:#0f0f0f" />
      </g>
    </g>
  </g>
</svg>
