<?xml version="1.0" encoding="UTF-8" standalone="no"?>
<!-- Generator: flash2svg, http://dissentgraphics.com/tools/flash2svg -->

<svg
   xmlns:dc="http://purl.org/dc/elements/1.1/"
   xmlns:cc="http://creativecommons.org/ns#"
   xmlns:rdf="http://www.w3.org/1999/02/22-rdf-syntax-ns#"
   xmlns:svg="http://www.w3.org/2000/svg"
   xmlns="http://www.w3.org/2000/svg"
   xmlns:sodipodi="http://sodipodi.sourceforge.net/DTD/sodipodi-0.dtd"
   xmlns:inkscape="http://www.inkscape.org/namespaces/inkscape"
   id="AvatarAssets"
   image-rendering="auto"
   version="1.1"
   x="0px"
   y="0px"
   width="22.75"
   height="24.4"
   viewBox="0 0 22.75 24.4"
   inkscape:version="0.48.4 r9939"
   sodipodi:docname="AvatarAssets_backShirtTorsoD010.svg">
  <metadata
     id="metadata3490">
    <rdf:RDF>
      <cc:Work
         rdf:about="">
        <dc:format>image/svg+xml</dc:format>
        <dc:type
           rdf:resource="http://purl.org/dc/dcmitype/StillImage" />
      </cc:Work>
    </rdf:RDF>
  </metadata>
  <sodipodi:namedview
     pagecolor="#ffffff"
     bordercolor="#666666"
     borderopacity="1"
     objecttolerance="10"
     gridtolerance="10"
     guidetolerance="10"
     inkscape:pageopacity="0"
     inkscape:pageshadow="2"
     inkscape:window-width="640"
     inkscape:window-height="480"
     id="namedview3488"
     showgrid="false"
     fit-margin-top="0"
     fit-margin-left="0"
     fit-margin-right="0"
     fit-margin-bottom="0"
     inkscape:zoom="1.9032258"
     inkscape:cx="43.249"
     inkscape:cy="-63.799"
     inkscape:window-x="0"
     inkscape:window-y="0"
     inkscape:window-maximized="0"
     inkscape:current-layer="AvatarAssets" />
  <defs
     id="defs3473" />
  <g
     id="backShirtTorsoD11"
     overflow="visible"
     style="overflow:visible"
     transform="translate(11.249,26.199)">
    <g
       id="backShirtTorsoD010_0">
      <g
         id="element">
        <g
           id="drawingObject">
          <path
             id="path"
             d="m 3.801,-25.349 q -0.55,-0.85 -3.35,-0.85 c -2.8,0 -5.25,1.05 -6.45,2.25 -1.25,1.25 -2.1,6.3 -2.45,8.55 -0.35,2.25 -2.45,8.75 -2.65,11.15 l -0.15,2.45 2.35,-2.3 -2.35,2.3 c 0,0 2.45,-4.7 11.55,-4.35 9.05,0.35 11.15,4.35 11.15,4.35 0,0 0.35,-3.85 -1.2,-7.3 -1.6,-3.5 -2.1,-9.1 -2.45,-10.5 -0.35,-1.4 -1.2,-4.7 -4,-5.75 z"
             inkscape:connector-curvature="0"
             style="fill:#e8cedb" />
        </g>
        <g
           id="drawingObject1">
          <path
             id="path1"
             d="m 0.451,-26.199 c -2.45,0 -4.65,0.8 -5.95,1.85 0.65,1.1 1.4,2.2 1.85,2.65 1,1 2.15,2.5 3.15,3.65 1,1.15 2.15,2.65 2.15,2.65 l 0.75,-1.3 q 0.9,-1.45 1.6,-2.2 c 0.85,-0.8 1.85,-2.4 2.35,-4.3 -0.6,-0.9 -1.45,-1.75 -2.55,-2.15 0,0 -0.55,-0.85 -3.35,-0.85 z"
             inkscape:connector-curvature="0"
             style="fill:#b6363c" />
        </g>
        <g
           id="drawingObject2">
          <path
             id="path2"
             d="m 1.651,-12.049 c 0,0 2.35,-2.85 2.85,-4 q 0.15,-0.35 1.3,-2.35 1,-1.7 1.2,-2.5 l 0.15,-0.75 -0.5,-1.05 c -0.95,2.55 -2.15,4.8 -2.5,5.3 -0.5,0.85 -2.5,3.2 -2.5,3.2 0,0 -0.8,-1.35 -2,-2.85 -1.15,-1.5 -3.3,-3.5 -4.65,-5.35 -0.3,-0.35 -0.6,-0.9 -1,-1.55 l -0.4,0.5 c 1.35,2 3.65,5.15 4.4,6.4 1,1.65 3.65,5 3.65,5 z"
             inkscape:connector-curvature="0"
             style="fill:#b6363c" />
        </g>
        <g
           id="drawingObject3">
          <path
             id="path3"
             d="m 0.451,-26.199 c -2.8,0 -5.25,1.05 -6.45,2.25 -1.25,1.25 -2.1,6.3 -2.45,8.55 -0.35,2.25 -2.45,8.75 -2.65,11.15 l -0.15,2.45 2.35,-2.3 -2.35,2.3 c 0,0 2.45,-4.7 11.55,-4.35 9.05,0.35 11.15,4.35 11.15,4.35 q 0.1,-0.95 0,-2.35 -0.25,-2.8 -1.2,-4.95 c -1.4,-3.05 -1.95,-7.7 -2.3,-9.75 -0.15,1 -0.25,2.05 -0.15,2.75 0.15,1.6 0,2.8 1.55,5.95 1.6,3.15 -2.8,2.6 -7.3,1.05 -4.55,-1.55 -6.85,0.35 -7.2,-0.9 -0.35,-1.2 1.6,-2.95 5.25,-4 2.65,-0.75 4.7,0.1 5.7,0.65 l -1.85,-1.15 c -2.45,-1.6 -5.4,-0.7 -5.4,-0.7 l 1.8,-0.25 -1.8,0.25 0.5,-0.35 c 0.55,-0.35 4.2,-0.55 4.2,-0.55 l -2.25,-0.5 c -2.3,-0.55 -4.05,0.7 -4.2,-1.4 -0.2,-2.1 1.4,-4.35 2.45,-5.4 0.7,-0.7 3.15,-1.35 5.3,-1.55 l -0.75,-0.4 c 0,0 -0.55,-0.85 -3.35,-0.85 z"
             inkscape:connector-curvature="0"
             style="fill:#000000;fill-opacity:0.08600003" />
        </g>
        <g
           id="drawingObject4">
          <path
             id="path4"
             d="m 0.451,-26.199 c -2.8,0 -5.25,1.05 -6.45,2.25 -1.25,1.25 -2.1,6.3 -2.45,8.55 -0.35,2.25 -2.45,8.75 -2.65,11.15 l -0.15,2.45 2.35,-2.3 -2.35,2.3 c 0,0 2.45,-4.7 11.55,-4.35 9.05,0.35 11.15,4.35 11.15,4.35 l 0.05,-0.7 c -0.9,-0.75 -2.6,-1.8 -6,-3.3 -7.85,-3.5 -13.1,0.7 -13.1,0.7 l 3.6,-1.65 -3.6,1.65 1.4,-1.25 c 1.4,-1.2 7.7,-1.55 7.7,-1.55 l -3.65,-0.15 c -3.7,-0.2 -5.25,0.15 -5.1,-2.65 0.2,-2.8 3.15,-4.35 3.15,-4.35 l -0.5,0.2 c -0.55,0.15 -2.1,-0.35 -2.1,-2.8 0,-2.45 1.9,-3.85 3.85,-5.95 1.3,-1.4 3.75,-2 6.15,-2.1 -0.45,-0.25 -1.3,-0.5 -2.85,-0.5 z"
             inkscape:connector-curvature="0"
             style="fill:#000000;fill-opacity:0.08600003" />
        </g>
      </g>
    </g>
  </g>
</svg>
