<?xml version="1.0" encoding="UTF-8" standalone="no"?>
<!-- Generator: flash2svg, http://dissentgraphics.com/tools/flash2svg -->

<svg
   xmlns:dc="http://purl.org/dc/elements/1.1/"
   xmlns:cc="http://creativecommons.org/ns#"
   xmlns:rdf="http://www.w3.org/1999/02/22-rdf-syntax-ns#"
   xmlns:svg="http://www.w3.org/2000/svg"
   xmlns="http://www.w3.org/2000/svg"
   xmlns:sodipodi="http://sodipodi.sourceforge.net/DTD/sodipodi-0.dtd"
   xmlns:inkscape="http://www.inkscape.org/namespaces/inkscape"
   id="AvatarAssets"
   image-rendering="auto"
   version="1.1"
   x="0px"
   y="0px"
   width="22.75"
   height="25.75"
   viewBox="0 0 22.75 25.75"
   inkscape:version="0.48.4 r9939"
   sodipodi:docname="AvatarAssets_backShirtTorsoA005.svg">
  <metadata
     id="metadata3118">
    <rdf:RDF>
      <cc:Work
         rdf:about="">
        <dc:format>image/svg+xml</dc:format>
        <dc:type
           rdf:resource="http://purl.org/dc/dcmitype/StillImage" />
      </cc:Work>
    </rdf:RDF>
  </metadata>
  <sodipodi:namedview
     pagecolor="#ffffff"
     bordercolor="#666666"
     borderopacity="1"
     objecttolerance="10"
     gridtolerance="10"
     guidetolerance="10"
     inkscape:pageopacity="0"
     inkscape:pageshadow="2"
     inkscape:window-width="640"
     inkscape:window-height="480"
     id="namedview3116"
     showgrid="false"
     fit-margin-top="0"
     fit-margin-left="0"
     fit-margin-right="0"
     fit-margin-bottom="0"
     inkscape:zoom="1.9032258"
     inkscape:cx="43.249"
     inkscape:cy="-63.799"
     inkscape:window-x="0"
     inkscape:window-y="0"
     inkscape:window-maximized="0"
     inkscape:current-layer="AvatarAssets" />
  <defs
     id="defs3075" />
  <g
     id="backShirtTorsoA6"
     overflow="visible"
     style="overflow:visible"
     transform="translate(11.249,27.549)">
    <g
       id="backShirtTorsoA005_0">
      <g
         id="element">
        <g
           id="drawingObject">
          <path
             id="path"
             d="m -5.499,-23.299 c 0,0 11.1,2.5 11.1,-0.45 0,-3 -3.6,-4.15 -6.75,-3.7 -3.1,0.4 -4.6,2.4 -4.6,2.4 l 0.25,1.75 z"
             inkscape:connector-curvature="0"
             style="fill:#55a6e0" />
        </g>
        <g
           id="drawingObject1">
          <path
             id="path1"
             d="m -5.499,-23.299 c 0,0 8.55,1.95 10.65,0.4 q 0.55,-1.05 -0.15,-1.95 c -1.75,-2.25 -6.65,-2 -7.5,-1.9 -0.55,0.1 0.55,-0.35 1.95,-0.8 l -0.6,0.1 c -3.1,0.4 -4.6,2.4 -4.6,2.4 l 0.25,1.75 z"
             inkscape:connector-curvature="0"
             style="fill:#397097" />
        </g>
        <g
           id="drawingObject2">
          <path
             id="path2"
             d="m 11.451,-1.799 c 0,0 0.35,-3.85 -1.2,-7.35 -1.6,-3.45 -2.1,-9.05 -2.45,-10.45 -0.35,-1.4 -1.25,-4.75 -4.05,-5.75 q -0.1,-0.2 -0.6,-0.45 -0.95,-0.45 -2.7,-0.45 c -2.8,0 -5.25,1.05 -6.5,2.3 -1.2,1.2 -2.1,6.25 -2.45,8.55 -0.35,2.25 -2.45,8.7 -2.6,11.15 l -0.15,2.45 c 0,0 2.4,-4.7 11.5,-4.35 9.1,0.35 11.2,4.35 11.2,4.35 z"
             inkscape:connector-curvature="0"
             style="fill:#55a6e0" />
        </g>
        <g
           id="drawingObject3">
          <path
             id="path3"
             d="m 6.351,-22.849 c -0.85,-1.85 -1.75,-0.8 -2.35,0.1 0,0 -0.5,-1.1 -1.7,-0.9 -1.2,0.2 -1.4,1.75 -0.8,1.8 l 0.55,0.05 c 0,0 -1.5,1.1 -0.7,2.55 0.8,1.45 2.65,-0.35 2.65,-0.35 l -0.25,0.95 0.25,-0.95 c 0,0 -1,1.95 0.85,1.75 1.9,-0.2 2.25,-2 1.75,-2.6 l -0.5,-0.65 0.45,-0.2 -0.45,0.2 c 0,0 1.15,0.1 0.25,-1.75 z m -1.2,1.25 -0.75,0.25 c 0,0 1.2,0.8 1,1.25 q -0.15,0.35 -0.55,0.35 -0.4,0 -0.5,-0.25 l -0.4,-0.95 c 0,0 -0.7,1.1 -1.1,0.95 -0.45,-0.15 -0.2,-1 0.2,-1.2 0.4,-0.2 0.45,-0.35 0.45,-0.35 l -0.8,-0.7 c 0,-0.15 0.45,-0.5 0.85,-0.15 0.35,0.4 0.4,0.65 0.4,0.65 l 0.45,-0.35 -0.45,0.35 c 0,0 0.85,-0.8 1.2,-0.55 0.35,0.2 0.35,0.45 0,0.7 z"
             inkscape:connector-curvature="0"
             style="fill:#c6e0f2" />
        </g>
        <g
           id="drawingObject4">
          <path
             id="path7"
             d="m 5.151,-21.599 c 0.35,-0.25 0.35,-0.5 0,-0.7 q -0.2,-0.15 -0.75,0.2 l -0.45,0.35 c 0,0 -0.05,-0.25 -0.4,-0.65 -0.4,-0.35 -0.85,0 -0.85,0.15 l 0.8,0.7 c 0,0 -0.05,0.15 -0.45,0.35 -0.4,0.2 -0.65,1.05 -0.2,1.2 0.4,0.15 1.1,-0.95 1.1,-0.95 l 0.4,0.95 c 0.1,0.35 0.85,0.35 1.05,-0.1 0.2,-0.45 -1,-1.25 -1,-1.25 l 0.75,-0.25 z"
             inkscape:connector-curvature="0"
             style="fill:#55a6e0" />
        </g>
        <g
           id="drawingObject5">
          <path
             id="path8"
             d="m 5.651,-14.049 c 0,0 -1.7,-1.5 -2.7,0 -1,1.55 1.5,3.2 1.5,3.2 0,0 -2.3,-0.6 -1.25,1.7 1,2.3 2.85,2.15 3.25,1.3 l 0.35,-0.85 0.35,0.5 -0.35,-0.5 c 0,0 0.4,1.45 1.75,-0.25 1.35,-1.7 0,-2.45 -1.15,-2.95 0,0 0.8,-1 0.1,-2.45 -0.7,-1.4 -2.25,-1.15 -2.05,-0.4 l 0.2,0.7 z m 1.2,1.7 c -0.2,0.6 -0.4,0.75 -0.4,0.75 l 0.55,0.45 -0.55,-0.45 c 0,0 1.1,0.8 1.05,1.35 -0.05,0.5 -0.3,0.55 -0.65,0.2 l -0.6,-0.85 c 0,0 -0.15,1.75 -0.7,1.65 q -0.35,-0.05 -0.55,-0.6 -0.25,-0.5 0,-0.7 l 0.65,-0.8 c 0,0 -1.3,-0.5 -1.35,-1.1 0,-0.55 0.85,-0.5 1.25,-0.1 0.35,0.45 0.5,0.45 0.5,0.45 l 0.3,-1.25 c 0.15,-0.05 0.7,0.4 0.5,1 z"
             inkscape:connector-curvature="0"
             style="fill:#c6e0f2" />
        </g>
        <g
           id="drawingObject6">
          <path
             id="path12"
             d="m 6.851,-12.349 c 0.2,-0.6 -0.35,-1.05 -0.5,-1 l -0.3,1.25 c 0,0 -0.15,0 -0.5,-0.45 -0.4,-0.4 -1.25,-0.45 -1.25,0.1 0.05,0.6 1.35,1.1 1.35,1.1 l -0.65,0.8 c -0.3,0.25 0.05,1.2 0.55,1.3 0.55,0.1 0.7,-1.65 0.7,-1.65 l 0.6,0.85 c 0.35,0.35 0.6,0.3 0.65,-0.2 q 0.05,-0.35 -0.5,-0.9 l -0.55,-0.45 c 0,0 0.2,-0.15 0.4,-0.75 z"
             inkscape:connector-curvature="0"
             style="fill:#55a6e0" />
        </g>
        <g
           id="drawingObject7">
          <path
             id="path13"
             d="m -0.449,-12.649 c -0.75,-0.65 -1.75,0 -1.5,0.4 l 0.25,0.35 c 0,0 -1.45,-0.35 -1.9,0.85 -0.5,1.25 1.5,1.45 1.5,1.45 l -0.7,0.3 0.7,-0.3 c 0,0 -1.65,0.35 -0.6,1.4 1.05,1.05 2.35,0.35 2.45,-0.25 l 0.15,-0.6 c 0,0 0.5,0.7 1.2,-0.75 0.65,-1.45 -0.4,-1.45 -1.25,-1.4 0,0 0.4,-0.85 -0.3,-1.45 z m -1.1,1.7 0.4,0.1 0.05,-0.85 c 0.1,-0.1 0.55,0 0.5,0.45 -0.05,0.4 -0.2,0.55 -0.2,0.55 l 0.45,0.1 -0.45,-0.1 c 0,0 0.9,0.1 0.95,0.45 0.05,0.35 -0.1,0.45 -0.4,0.35 l -0.55,-0.35 c 0,0 0.15,1.15 -0.25,1.25 q -0.3,0.05 -0.5,-0.15 -0.2,-0.25 -0.1,-0.45 l 0.35,-0.7 c 0,0 -1,0.1 -1.1,-0.2 -0.1,-0.35 0.5,-0.6 0.85,-0.45 z"
             inkscape:connector-curvature="0"
             style="fill:#c6e0f2" />
        </g>
        <g
           id="drawingObject8">
          <path
             id="path17"
             d="m -1.649,-9.599 c -0.15,0.25 0.2,0.7 0.6,0.6 0.4,-0.1 0.25,-1.25 0.25,-1.25 l 0.55,0.35 c 0.3,0.1 0.45,0 0.4,-0.35 q -0.05,-0.2 -0.5,-0.35 l -0.45,-0.1 c 0,0 0.15,-0.15 0.2,-0.55 0.05,-0.45 -0.4,-0.55 -0.5,-0.45 l -0.05,0.85 -0.4,-0.1 c -0.35,-0.15 -0.95,0.1 -0.85,0.45 0.1,0.3 1.1,0.2 1.1,0.2 l -0.35,0.7 z"
             inkscape:connector-curvature="0"
             style="fill:#55a6e0" />
        </g>
        <g
           id="drawingObject9">
          <path
             id="path18"
             d="m 11.451,-4.149 q -0.25,-2.8 -1.2,-5 c -1.4,-3.05 -1.95,-7.7 -2.35,-9.75 -0.1,1 -0.2,2.1 -0.1,2.8 0.15,1.55 0,2.8 1.55,5.9 1.6,3.15 -2.8,2.65 -7.35,1.1 -4.5,-1.55 -6.8,0.3 -7.15,-0.9 -0.35,-1.25 1.55,-2.95 5.25,-4 2.6,-0.75 4.7,0.1 5.65,0.65 l -1.8,-1.2 c -2.45,-1.55 -5.45,-0.7 -5.45,-0.7 l 1.8,-0.25 -1.8,0.25 0.55,-0.35 c 0.5,-0.35 4.2,-0.5 4.2,-0.5 l -2.3,-0.55 -2.85,-0.1 2.85,0.1 c -2.25,-0.5 -4,0.7 -4.2,-1.4 -0.15,-2.05 1.4,-4.35 2.45,-5.4 0.7,-0.7 3.2,-1.3 5.35,-1.55 l -0.8,-0.35 c 0,0 -0.5,-0.9 -3.3,-0.9 -2.8,0 -5.25,1.05 -6.5,2.3 -1.2,1.2 -2.1,6.25 -2.45,8.55 -0.35,2.25 -2.45,8.7 -2.6,11.15 l -0.15,2.45 c 0,0 2.4,-4.7 11.5,-4.35 9.1,0.35 11.2,4.35 11.2,4.35 q 0.1,-0.95 0,-2.35 z"
             inkscape:connector-curvature="0"
             style="fill:#4c95c9" />
        </g>
        <g
           id="drawingObject10">
          <path
             id="path19"
             d="m 3.301,-25.699 c -0.45,-0.25 -1.3,-0.55 -2.85,-0.55 -2.8,0 -5.25,1.05 -6.5,2.3 -1.2,1.2 -2.1,6.25 -2.45,8.55 -0.35,2.25 -2.45,8.7 -2.6,11.15 l -0.15,2.45 c 0,0 2.4,-4.7 11.5,-4.35 9.1,0.35 11.2,4.35 11.2,4.35 l 0.05,-0.7 c -0.9,-0.75 -2.65,-1.85 -6,-3.3 -7.85,-3.5 -13.1,0.7 -13.1,0.7 l 1.4,-1.25 c 1.4,-1.2 7.7,-1.55 7.7,-1.55 l -3.7,-0.2 c -3.65,-0.15 -5.25,0.2 -5.05,-2.6 0.15,-2.8 3.15,-4.35 3.15,-4.35 l -0.55,0.15 c -0.5,0.2 -2.1,-0.35 -2.1,-2.8 0,-2.4 1.95,-3.8 3.85,-5.9 1.35,-1.45 3.75,-2.05 6.2,-2.1 z"
             inkscape:connector-curvature="0"
             style="fill:#397097" />
        </g>
        <g
           id="drawingObject11">
          <path
             id="path20"
             d="m -7.399,-16.349 -0.55,0.75 c -0.55,0.75 -0.1,2.8 1.95,3 2.05,0.25 0.95,-2 0.95,-2 l 0.3,1.1 -0.3,-1.1 1.1,0.85 -1.1,-0.85 c 0,0 2,2.1 2.9,0.4 0.85,-1.7 -0.8,-2.95 -0.8,-2.95 l 0.7,0.85 -0.7,-0.85 0.65,-0.05 c 0.6,-0.1 0.4,-1.85 -0.9,-2.1 -1.3,-0.2 -1.85,1.05 -1.85,1.05 -0.7,-1.05 -1.65,-2.2 -2.6,-0.1 -0.95,2.15 0.25,2 0.25,2 z m 1.05,-1.4 c 0.4,-0.25 1.35,0.65 1.35,0.65 0,0 0,-0.25 0.45,-0.7 0.4,-0.45 0.9,-0.05 0.9,0.15 0,0.15 -0.85,0.8 -0.85,0.8 l 0.45,0.4 c 0.45,0.25 0.7,1.2 0.25,1.35 -0.45,0.2 -1.2,-1.05 -1.2,-1.05 l -0.45,1.05 q -0.05,0.35 -0.55,0.3 -0.45,-0.05 -0.6,-0.4 c -0.25,-0.55 1.1,-1.4 1.1,-1.4 l -0.65,0.5 0.65,-0.5 c 0,0 -0.45,-0.1 -0.85,-0.35 -0.35,-0.25 -0.4,-0.5 0,-0.8 z"
             inkscape:connector-curvature="0"
             style="fill:#c6e0f2" />
        </g>
        <g
           id="drawingObject12">
          <path
             id="path24"
             d="m -7.649,-18.349 c -0.95,2.15 0.25,2 0.25,2 l -0.55,0.75 c -0.55,0.75 -0.1,2.8 1.95,3 2.05,0.25 0.95,-2 0.95,-2 l 0.3,1.1 -0.3,-1.1 1.1,0.85 -1.1,-0.85 c 0,0 2,2.1 2.9,0.4 0.4,-0.8 0.25,-1.5 0,-2.05 -1.05,-0.65 -1.75,-1.7 -2,-2.9 -0.6,0.25 -0.9,0.9 -0.9,0.9 -0.7,-1.05 -1.65,-2.2 -2.6,-0.1 z m 1.3,0.6 c 0.4,-0.25 1.35,0.65 1.35,0.65 0,0 0,-0.25 0.45,-0.7 0.4,-0.45 0.9,-0.05 0.9,0.15 0,0.15 -0.85,0.8 -0.85,0.8 l 0.45,0.4 c 0.45,0.25 0.7,1.2 0.25,1.35 q -0.45,0.2 -1.2,-1.05 l -0.45,1.05 c -0.1,0.45 -0.95,0.4 -1.15,-0.1 -0.25,-0.55 1.1,-1.4 1.1,-1.4 l -0.65,0.5 0.65,-0.5 c 0,0 -0.45,-0.1 -0.85,-0.35 -0.35,-0.25 -0.4,-0.5 0,-0.8 z"
             inkscape:connector-curvature="0"
             style="fill:#b2c9d9" />
        </g>
        <g
           id="drawingObject13">
          <path
             id="path28"
             d="m -7.399,-16.349 -0.55,0.75 c -0.45,0.65 -0.2,2.3 1.25,2.85 -0.15,-0.55 -0.2,-1.15 -0.15,-1.75 q -0.6,-1.35 -0.2,-2.9 c 0.2,-0.75 0.6,-1.4 1.1,-1.9 -0.55,-0.4 -1.1,-0.35 -1.7,0.95 -0.95,2.15 0.25,2 0.25,2 z"
             inkscape:connector-curvature="0"
             style="fill:#8597a3" />
        </g>
        <g
           id="drawingObject14">
          <path
             id="path29"
             d="m -1.949,-21.049 c 1.2,-0.1 1.45,-1.2 1.1,-1.55 l -0.3,-0.4 c 0,0 0.75,0.05 0.15,-1.05 -0.55,-1.1 -1.15,-0.5 -1.55,0.05 0,0 -0.3,-0.65 -1.1,-0.55 -0.75,0.1 -0.85,1.05 -0.5,1.1 l 0.35,0 c 0,0 -0.95,0.7 -0.45,1.55 0.55,0.9 1.7,-0.2 1.7,-0.2 l -0.15,0.6 0.15,-0.6 c 0,0 -0.65,1.2 0.6,1.05 z m -0.3,-2.1 c 0,0 0.75,0.45 0.65,0.75 q -0.1,0.2 -0.4,0.2 -0.25,0.05 -0.3,-0.15 l -0.25,-0.55 c 0,0 -0.45,0.65 -0.7,0.55 -0.3,-0.1 -0.15,-0.6 0.1,-0.7 l 0.3,-0.2 -0.5,-0.45 c 0,-0.1 0.3,-0.3 0.55,-0.1 0.25,0.25 0.25,0.4 0.25,0.4 l 0.3,-0.2 -0.3,0.2 c 0,0 0.55,-0.45 0.8,-0.35 0.2,0.15 0.2,0.3 0,0.45 l -0.5,0.15 z"
             inkscape:connector-curvature="0"
             style="fill:#c6e0f2" />
        </g>
        <g
           id="drawingObject15">
          <path
             id="path33"
             d="m -0.899,-23.849 -0.1,-0.2 c -0.55,-1.1 -1.15,-0.5 -1.55,0.05 0,0 -0.3,-0.65 -1.1,-0.55 -0.75,0.1 -0.85,1.05 -0.5,1.1 l 0.35,0 c 0,0 -0.95,0.7 -0.45,1.55 q 0.3,0.45 0.9,0.3 l 0.25,-0.4 0.6,-0.75 -0.05,-0.15 c 0,0 -0.45,0.65 -0.7,0.55 -0.3,-0.1 -0.15,-0.6 0.1,-0.7 l 0.3,-0.2 -0.5,-0.45 c 0,-0.1 0.3,-0.3 0.55,-0.1 0.25,0.25 0.25,0.4 0.25,0.4 l 0.3,-0.2 -0.3,0.2 c 0,0 0.55,-0.45 0.8,-0.35 l 0.15,0.25 0.7,-0.35 z"
             inkscape:connector-curvature="0"
             style="fill:#8597a3" />
        </g>
        <g
           id="drawingObject16">
          <path
             id="path34"
             d="m -1.849,-24.649 0,0.05 -0.9,0.9 0.2,0.3 0.3,-0.2 -0.3,0.2 c 0,0 0.55,-0.45 0.8,-0.35 0.2,0.15 0.2,0.3 0,0.45 l -0.5,0.15 c 0,0 0.75,0.45 0.65,0.75 -0.15,0.25 -0.65,0.3 -0.7,0.05 l -0.25,-0.55 c 0,0 -0.45,0.65 -0.7,0.55 -0.3,-0.1 -0.15,-0.6 0.1,-0.7 l 0.3,-0.2 -0.15,-0.15 -1.35,1.25 0.1,0.25 c 0.55,0.9 1.7,-0.2 1.7,-0.2 l -0.15,0.45 0.15,-0.45 c 0,0 -0.4,0.8 0.1,1 0.45,-0.6 0.9,-1.2 1.4,-1.75 l -0.1,-0.15 c 0,0 0.75,0.05 0.15,-1.05 -0.3,-0.55 -0.55,-0.7 -0.85,-0.6 z"
             inkscape:connector-curvature="0"
             style="fill:#b2c9d9" />
        </g>
        <g
           id="drawingObject17">
          <path
             id="path35"
             d="m -7.799,-10.849 c -1.2,-0.1 -1.75,1.3 -1.55,1.9 l 0.2,0.55 -0.3,0.1 0.3,-0.1 c 0,0 -0.65,-0.2 -0.45,1.4 0.2,1.6 0.95,0.9 1.5,0.25 0,0 0.1,1 0.85,1 0.8,0 1.2,-1.25 0.85,-1.35 l -0.35,-0.15 c 0,0 1.15,-0.7 0.9,-1.95 -0.25,-1.3 -1.7,-0.1 -1.7,-0.1 l 0.75,-0.45 -0.75,0.45 c 0,0 1,-1.45 -0.25,-1.55 z m -0.3,1.6 q 0.25,0 0.25,0.25 l 0.1,0.8 c 0,0 0.6,-0.8 0.85,-0.6 0.2,0.2 -0.1,0.8 -0.35,0.95 l -0.35,0.2 0.35,0.7 c 0,0.1 -0.35,0.35 -0.55,-0.05 l -0.1,-0.55 c 0,0 -0.7,0.5 -0.9,0.3 -0.15,-0.25 -0.1,-0.45 0.15,-0.55 l 0.55,-0.15 c 0,0 -0.65,-0.8 -0.45,-1.1 q 0.2,-0.25 0.45,-0.2 z"
             inkscape:connector-curvature="0"
             style="fill:#8597a3" />
        </g>
      </g>
    </g>
  </g>
</svg>
