<?xml version="1.0" encoding="UTF-8" standalone="no"?>
<!-- Generator: flash2svg, http://dissentgraphics.com/tools/flash2svg -->

<svg
   xmlns:dc="http://purl.org/dc/elements/1.1/"
   xmlns:cc="http://creativecommons.org/ns#"
   xmlns:rdf="http://www.w3.org/1999/02/22-rdf-syntax-ns#"
   xmlns:svg="http://www.w3.org/2000/svg"
   xmlns="http://www.w3.org/2000/svg"
   xmlns:sodipodi="http://sodipodi.sourceforge.net/DTD/sodipodi-0.dtd"
   xmlns:inkscape="http://www.inkscape.org/namespaces/inkscape"
   id="AvatarAssets"
   image-rendering="auto"
   version="1.1"
   x="0px"
   y="0px"
   width="22.259209"
   height="23.35"
   viewBox="0 0 22.259209 23.35"
   inkscape:version="0.48.4 r9939"
   sodipodi:docname="AvatarAssets_backShirtTorsoA004.svg">
  <metadata
     id="metadata3072">
    <rdf:RDF>
      <cc:Work
         rdf:about="">
        <dc:format>image/svg+xml</dc:format>
        <dc:type
           rdf:resource="http://purl.org/dc/dcmitype/StillImage" />
      </cc:Work>
    </rdf:RDF>
  </metadata>
  <sodipodi:namedview
     pagecolor="#ffffff"
     bordercolor="#666666"
     borderopacity="1"
     objecttolerance="10"
     gridtolerance="10"
     guidetolerance="10"
     inkscape:pageopacity="0"
     inkscape:pageshadow="2"
     inkscape:window-width="640"
     inkscape:window-height="480"
     id="namedview3070"
     showgrid="false"
     fit-margin-top="0"
     fit-margin-left="0"
     fit-margin-right="0"
     fit-margin-bottom="0"
     inkscape:zoom="1.9032258"
     inkscape:cx="43.149"
     inkscape:cy="-65.199"
     inkscape:window-x="0"
     inkscape:window-y="0"
     inkscape:window-maximized="0"
     inkscape:current-layer="AvatarAssets" />
  <defs
     id="defs3035" />
  <g
     id="backShirtTorsoA5"
     overflow="visible"
     style="overflow:visible"
     transform="translate(11.149,26.549)">
    <g
       id="backShirtTorsoA004_0">
      <g
         id="element">
        <g
           id="drawingObject">
          <path
             id="path"
             d="m 11.051,-3.199 c 0,0 0.382,-3.7 -1.14,-7 -1.521,-3.35 -1.975,-8.7 -2.314,-10 -0.339,-1.35 -1.161,-4.55 -3.853,-5.5 q -0.543,-0.85 -3.243,-0.85 c -2.75,0 -5.159,1 -6.368,2.15 -1.211,1.2 -2.102,6 -2.471,8.2 -0.368,2.15 -2.471,8.35 -2.641,10.65 l -0.17,2.35 c 0,0 2.389,-4.5 11.286,-4.2 8.897,0.35 10.914,4.2 10.914,4.2 z"
             inkscape:connector-curvature="0"
             style="fill:#9cbf6d" />
        </g>
        <g
           id="drawingObject1">
          <path
             id="path1"
             d="m 11.051,-3.199 q 0.108,-0.9 0.019,-2.25 -0.227,-2.7 -1.159,-4.75 c -1.325,-2.9 -1.837,-7.35 -2.17,-9.35 -0.108,1 -0.217,2 -0.173,2.65 0.188,1.5 -0.023,2.7 1.502,5.7 1.524,3 -2.772,2.5 -7.159,1 -4.438,-1.45 -6.703,0.3 -7.043,-0.85 -0.34,-1.15 1.575,-2.85 5.183,-3.85 2.556,-0.7 4.599,0.15 5.545,0.65 l -1.79,-1.15 c -2.388,-1.5 -5.295,-0.65 -5.295,-0.65 l 1.752,-0.25 -1.752,0.25 0.503,-0.35 c 0.553,-0.3 4.104,-0.5 4.104,-0.5 l -2.195,-0.5 c -2.246,-0.5 -3.956,0.7 -4.089,-1.3 -0.183,-2 1.386,-4.2 2.444,-5.2 0.656,-0.65 3.111,-1.25 5.213,-1.45 -0.249,-0.15 -0.498,-0.3 -0.747,-0.35 0,0 -0.543,-0.85 -3.243,-0.85 -2.75,0 -5.159,1 -6.368,2.15 -1.211,1.2 -2.102,6 -2.471,8.2 -0.368,2.15 -2.471,8.35 -2.641,10.65 l -0.17,2.35 c 0,0 2.389,-4.5 11.286,-4.2 8.897,0.35 10.914,4.2 10.914,4.2 z"
             inkscape:connector-curvature="0"
             style="fill:#8cac62" />
        </g>
        <g
           id="drawingObject2">
          <path
             id="path2"
             d="m 11.051,-3.199 0.056,-0.7 c -0.894,-0.7 -2.535,-1.7 -5.823,-3.15 -7.672,-3.3 -12.855,0.65 -12.855,0.65 l 1.409,-1.15 c 1.36,-1.15 7.513,-1.5 7.513,-1.5 l -3.599,-0.15 c -3.598,-0.2 -5.101,0.15 -4.928,-2.5 0.223,-2.7 3.136,-4.2 3.136,-4.2 l -0.552,0.2 c -0.501,0.15 -2.047,-0.35 -2.027,-2.7 0.02,-2.3 1.931,-3.65 3.849,-5.65 1.261,-1.35 3.666,-1.95 6.017,-2 -0.398,-0.25 -1.246,-0.5 -2.746,-0.5 -2.75,0 -5.159,1 -6.368,2.15 -1.211,1.2 -2.102,6 -2.471,8.2 -0.368,2.15 -2.471,8.35 -2.641,10.65 l -0.17,2.35 c 0,0 2.389,-4.5 11.286,-4.2 8.897,0.35 10.914,4.2 10.914,4.2 z"
             inkscape:connector-curvature="0"
             style="fill:#738d50" />
        </g>
        <g
           id="drawingObject3">
          <path
             id="path3"
             d="m 4.864,-16.399 c -1.842,-0.9 -3.24,-1.1 -7.646,-0.4 -2.904,0.45 -4.965,1.7 -6.022,2.55 l -0.258,0.95 c 1.715,-1.75 3.724,-2.9 8.076,-3.1 q 3.501,-0.15 4.598,0.25 0.697,0.3 2.438,1.4 c 2.042,0.95 2.436,1.6 3.129,2.5 l -0.244,-0.8 c -1.188,-1.3 -2.826,-2.7 -4.071,-3.35 z"
             inkscape:connector-curvature="0"
             style="fill:#f5d0d7" />
        </g>
        <g
           id="group1">
          <g
             id="drawingObject4">
            <path
               id="path4"
               d="m -8.804,-14.249 -0.258,0.95 q 1.412,-1.45 3.068,-2.15 1.957,-0.8 5.008,-0.95 c 0.553,-0.3 4.104,-0.5 4.104,-0.5 l -1.497,-0.3 c -1.1,-0.05 -2.451,0.1 -4.403,0.4 -2.904,0.45 -4.965,1.7 -6.022,2.55 z"
               inkscape:connector-curvature="0"
               style="fill:#dcbbc1" />
          </g>
          <g
             id="drawingObject5">
            <path
               id="path5"
               d="m 8.985,-12.999 -1.041,-1.05 0.195,0.55 1.04,1.25 -0.05,-0.1 -0.144,-0.65 z"
               inkscape:connector-curvature="0"
               style="fill:#dcbbc1" />
          </g>
        </g>
        <g
           id="drawingObject6">
          <path
             id="path6"
             d="m -8.804,-14.249 -0.258,0.95 q 1.765,-1.75 3.921,-2.45 l -0.548,-0.3 c -1.405,0.55 -2.411,1.25 -3.115,1.8 z"
             inkscape:connector-curvature="0"
             style="fill:#b4999e" />
        </g>
        <g
           id="drawingObject7">
          <path
             id="path7"
             d="m 2.91,-21.799 c -2.494,-0.7 -4.498,-0.15 -7.002,0.25 -1.552,0.2 -2.708,0.9 -3.513,1.6 l -0.157,0.75 q 0.756,-0.65 1.81,-1.2 c 0.605,-0.5 2.958,-0.85 5.708,-0.9 2.751,-0.1 4.544,0.65 6.287,1.55 0.796,0.4 1.391,1 1.936,1.6 l -0.096,-0.5 c -1.286,-1.6 -2.827,-2.6 -4.973,-3.15 z"
             inkscape:connector-curvature="0"
             style="fill:#f5d0d7" />
        </g>
        <g
           id="drawingObject8">
          <path
             id="path8"
             d="m -7.762,-19.199 c 0.756,-0.65 1.357,-0.8 1.81,-1.2 q 0.705,-0.5 3.307,-0.75 l 0.356,-0.7 -1.803,0.3 c -1.552,0.2 -2.708,0.9 -3.513,1.6 l -0.156,0.7 -10e-4,0.05 z"
             inkscape:connector-curvature="0"
             style="fill:#dcbbc1" />
        </g>
        <g
           id="drawingObject9">
          <path
             id="path9"
             d="m -7.762,-19.199 c 0.655,-0.6 1.257,-0.8 1.659,-1.1 q 0.507,-0.75 0.608,-0.85 c -0.903,0.3 -1.607,0.75 -2.11,1.2 l -0.156,0.7 -10e-4,0.05 z"
             inkscape:connector-curvature="0"
             style="fill:#b4999e" />
        </g>
        <g
           id="drawingObject10">
          <path
             id="path10"
             d="m 6.137,-19.049 c -1.543,-0.85 -4.784,-1.9 -7.786,-1.7 -2.351,0.15 -4.809,1.15 -6.218,2.15 l -0.524,2.8 c 1.361,-1.25 3.868,-2.05 6.219,-2.25 q 4.804,-0.45 7.046,0.55 c 1.096,0.45 2.782,2.1 3.773,3.1 l -0.575,-2.9 c -0.345,-0.55 -0.989,-1.25 -1.935,-1.75 z"
             inkscape:connector-curvature="0"
             style="fill:#627844" />
        </g>
        <g
           id="group2">
          <g
             id="drawingObject11">
            <path
               id="path11"
               d="m 7.577,-17.949 0.128,2.65 0.942,0.9 0,-0.05 c -0.241,-0.95 -0.383,-1.95 -0.526,-2.8 l -0.049,-0.05 -0.495,-0.65 z"
               inkscape:connector-curvature="0"
               style="fill:#586c3d" />
          </g>
          <g
             id="drawingObject12">
            <path
               id="path12"
               d="m -7.867,-18.599 -0.524,2.8 c 1.209,-1.1 3.316,-1.85 5.418,-2.15 q -0.196,-0.4 -0.193,-0.75 c -0.045,-0.65 0.061,-1.3 0.316,-1.9 -1.953,0.35 -3.86,1.15 -5.017,2 z"
               inkscape:connector-curvature="0"
               style="fill:#586c3d" />
          </g>
        </g>
        <g
           id="drawingObject13">
          <path
             id="path13"
             d="m -7.867,-18.599 -0.524,2.8 c 0.504,-0.45 1.208,-0.9 2.01,-1.2 q -0.244,-0.65 -0.238,-1.4 c 0.003,-0.35 0.106,-0.7 0.209,-1.05 -0.552,0.25 -1.054,0.55 -1.457,0.85 z"
             inkscape:connector-curvature="0"
             style="fill:#485932" />
        </g>
      </g>
    </g>
  </g>
</svg>
