<?xml version="1.0" encoding="UTF-8" standalone="no"?>
<!-- Generator: flash2svg, http://dissentgraphics.com/tools/flash2svg -->

<svg
   xmlns:dc="http://purl.org/dc/elements/1.1/"
   xmlns:cc="http://creativecommons.org/ns#"
   xmlns:rdf="http://www.w3.org/1999/02/22-rdf-syntax-ns#"
   xmlns:svg="http://www.w3.org/2000/svg"
   xmlns="http://www.w3.org/2000/svg"
   xmlns:sodipodi="http://sodipodi.sourceforge.net/DTD/sodipodi-0.dtd"
   xmlns:inkscape="http://www.inkscape.org/namespaces/inkscape"
   id="AvatarAssets"
   image-rendering="auto"
   version="1.1"
   x="0px"
   y="0px"
   width="38.653126"
   height="18.20653"
   viewBox="0 0 38.653126 18.20653"
   inkscape:version="0.48.4 r9939"
   sodipodi:docname="AvatarAssets_backSkirtD007b.CLIMB-ANI.svg">
  <metadata
     id="metadata3869">
    <rdf:RDF>
      <cc:Work
         rdf:about="">
        <dc:format>image/svg+xml</dc:format>
        <dc:type
           rdf:resource="http://purl.org/dc/dcmitype/StillImage" />
      </cc:Work>
    </rdf:RDF>
  </metadata>
  <sodipodi:namedview
     pagecolor="#ffffff"
     bordercolor="#666666"
     borderopacity="1"
     objecttolerance="10"
     gridtolerance="10"
     guidetolerance="10"
     inkscape:pageopacity="0"
     inkscape:pageshadow="2"
     inkscape:window-width="640"
     inkscape:window-height="480"
     id="namedview3867"
     showgrid="false"
     fit-margin-top="0"
     fit-margin-left="0"
     fit-margin-right="0"
     fit-margin-bottom="0"
     inkscape:zoom="1.9032258"
     inkscape:cx="52.4"
     inkscape:cy="-50.64347"
     inkscape:window-x="0"
     inkscape:window-y="0"
     inkscape:window-maximized="0"
     inkscape:current-layer="AvatarAssets" />
  <defs
     id="defs3687" />
  <g
     id="backSkirtD007b1"
     overflow="visible"
     style="overflow:visible"
     transform="translate(20.4,6.85)">
    <g
       id="backSkirtD007b_1_1163">
      <g
         id="element26">
        <path
           id="path136"
           d="M 9,-4.6 C 8,-5.3 5.1,-6.1 1.85,-6.55 c -0.5,-0.05 -1,-0.1 -1.8,-0.2 -0.25,0.05 -0.5,0.05 -0.75,0.05 -0.75,0 -1.5,0.1 -2.15,0.25 l -0.05,0 0,0.05 c 0,0.05 0,0.15 0,0.2 l 0,0.05 c 1.2,0.35 2.45,0.55 3.75,0.65 0.3,0.05 0.6,0.05 0.9,0.1 C 1.9,-5.45 2,-5.45 2.1,-5.45 c 0.35,-0.05 0.65,-0.05 0.95,0 0.05,0 0.05,0 0.1,0.05 -0.1,0 -0.2,0 -0.3,0.05 0.4,0 0.8,0 1.2,0 -0.95,0.1 -1.95,0.15 -2.95,0.1 0.2,0 0.4,0 0.6,0 -1.65,0.15 -3.35,0.35 -5,0.6 -1.95,0.3 -3.65,1.05 -5.1,2.3 -0.45,0.4 -0.8,0.9 -1,1.45 0.15,0.85 0.5,1.55 1.05,2.2 0.75,0.85 1.7,1.45 2.85,1.7 0.6,0.1 1.2,0.25 1.75,0.4 2.55,0.8 5.1,1 7.8,0.6 0,-0.05 0,-0.05 0.05,-0.05 0.1,0 0.2,-0.05 0.3,-0.1 0.05,0 0.1,0 0.15,0 0.05,0 0.15,0 0.2,0 0.1,-0.05 0.15,0 0.2,0.05 -0.55,0.65 -1.35,1.05 -2.4,1.2 -3,0.45 -6,0.6 -8.95,0.55 -0.35,0 -0.65,0.05 -1,0.15 -1.15,0.35 -2.2,0.9 -3.15,1.55 1.05,-0.1 2,-0.2 2.95,-0.35 2.25,-0.4 4.15,0.1 5.7,1.45 0.15,0.1 0.25,0.2 0.35,0.25 0.35,0.15 0.7,0.3 0.9,0.4 C -0.85,9 -1.05,8.9 -1.25,8.85 -0.5,8.8 0.25,8.5 0.95,8 1.8,7.4 2.65,6.8 3.55,6.25 4.15,5.9 4.8,5.6 5.45,5.4 c 0.85,-0.1 1.6,0 2.35,0.25 0.75,0.3 1.45,0.7 2.1,1.2 0.05,0.05 0.1,0 0.15,-0.05 0.15,0.15 0.35,0.3 0.55,0.35 0.45,0.25 0.9,0.25 1.4,0.1 0.3,-0.05 0.6,-0.1 0.9,-0.1 0.3,-0.2 0.55,-0.4 0.8,-0.6 0,0.05 0,-0.05 0,-0.15 0,-0.05 0,-0.05 0.05,-0.05 C 13.6,5.05 13.5,4 13.45,3.15 13.2,1.2 12.5,-0.5 11.25,-2 11.15,-2.1 11.1,-2.25 11.1,-2.5 11.05,-2.75 11,-2.9 10.9,-3.05 10.75,-3.2 10.65,-3.35 10.6,-3.4 L 10.575,-3.425 10.55,-3.45 C 10.35,-3.7 9.85,-4.05 9,-4.6 z m -0.05,1.1 c 0.6,0.5 0.95,0.9 1.1,1.25 0.15,0.3 0.25,0.75 0.2,1.35 0,0.55 -0.4,1.3 -1.15,2.2 l 0.55,-1.4 c 0,0 -0.1,0.25 -1,1.1 -0.95,0.8 -2.7,1.5 -2.7,1.5 l 1,-0.45 -1,0.45 L 6.9,1.6 C 7.65,1.05 8.1,0.65 8.25,0.4 8.4,0.15 8.6,-0.2 8.85,-0.75 c 0.25,-0.55 0.3,-1.5 0,-2.85 l 0.1,0.1 z m -29.1,2.5 c 0,0.05 0.1,0.15 0.25,0.25 1.05,0.6 1.75,1.5 2.2,2.65 0.25,0.65 0.4,1.35 0.55,2.05 0.2,1.35 0.8,2.3 1.55,2.7 -0.05,-0.25 -0.05,-0.55 0,-0.9 0.4,-1.65 1.2,-3.1 2.4,-4.35 0.95,-1.05 1.35,-2.2 1.15,-3.5 0,-0.15 -0.1,-0.25 -0.35,-0.25 -2.65,0.05 -5.15,0.45 -7.5,1.2 0.05,-0.05 0.1,-0.1 0.05,-0.1 -0.15,0.1 -0.2,0.15 -0.25,0.2 l -0.025,0 -0.025,0 0,0.025 0,0.025 c -0.05,0 -0.05,0 -0.05,0 l 0.05,0 z"
           inkscape:connector-curvature="0"
           style="fill:#fd88a4" />
        <path
           id="path137"
           d="m 8.95,-3.5 -0.1,-0.1 c 0.3,1.35 0.25,2.3 0,2.85 C 8.6,-0.2 8.4,0.15 8.25,0.4 8.1,0.65 7.65,1.05 6.9,1.6 l -0.95,0.9 1,-0.45 -1,0.45 c 0,0 1.75,-0.7 2.7,-1.5 0.9,-0.85 1,-1.1 1,-1.1 L 9.1,1.3 C 9.85,0.4 10.25,-0.35 10.25,-0.9 10.3,-1.5 10.2,-1.95 10.05,-2.25 9.9,-2.6 9.55,-3 8.95,-3.5 z M 1.7,-5.25 c -0.2,0 -0.4,0 -0.6,0 1,0.05 2,0 2.95,-0.1 -0.4,0 -0.8,0 -1.2,0 0.1,-0.05 0.2,-0.05 0.3,-0.05 -0.05,-0.05 -0.05,-0.05 -0.1,-0.05 -0.3,-0.05 -0.6,-0.05 -0.95,0 -0.1,0 -0.2,0 -0.35,0.05 -0.3,-0.05 -0.6,-0.05 -0.9,-0.1 -1.3,-0.1 -2.55,-0.3 -3.75,-0.65 l 0,-0.05 c 0,-0.05 0,-0.15 0,-0.2 l 0,-0.05 0.05,0 c 0.65,-0.15 1.4,-0.25 2.15,-0.25 0.25,0 0.5,0 0.75,-0.05 l -0.025,0 -1.375,-0.075 0,0.025 C -1.6,-6.85 -1.9,-6.85 -2.15,-6.85 l -0.2,0 C -2.65,-6.8 -3,-6.8 -3.4,-6.8 c -0.05,0 -0.15,0 -0.25,0 q -2.9,0.2 -5.4,2 -0.815,0.587 -1.4,1.15 c 0,0.05 0,0.05 0,0.1 -0.25,0.1 -0.55,0.15 -0.85,0.2 -2,0.25 -4,0.6 -6,1.05 -0.9,0.2 -1.8,0.55 -2.45,1 l -0.025,0 0.025,0 c -0.05,0.05 -0.1,0.1 -0.1,0.05 0.05,0 0,0.05 -0.05,0.1 2.35,-0.75 4.85,-1.15 7.5,-1.2 0.25,0 0.35,0.1 0.35,0.25 0.2,1.3 -0.2,2.45 -1.15,3.5 -1.2,1.25 -2,2.7 -2.4,4.35 -0.05,0.35 -0.05,0.65 0,0.9 0.15,0.05 0.15,0.1 0.05,0.05 0.2,0.05 0.35,0.1 0.25,0.15 0.05,0 0.1,0 0.05,0 l -0.025,0 1.95,0.5 0.025,0 c 0.05,0 0.05,0 0.05,0 l 1.975,0.025 0.025,0.025 c 0.1,-0.05 0.2,-0.05 0.35,-0.05 0.15,0 0.25,0 0.35,0 0.95,-0.65 2,-1.2 3.15,-1.55 0.35,-0.1 0.65,-0.15 1,-0.15 C -3.45,5.7 -0.45,5.55 2.55,5.1 3.6,4.95 4.4,4.55 4.95,3.9 4.9,3.85 4.85,3.8 4.75,3.85 c -0.05,0 -0.15,0 -0.2,0 -0.05,0 -0.1,0 -0.15,0 C 4.3,3.9 4.2,3.95 4.1,3.95 4.05,3.95 4.05,3.95 4.05,4 1.35,4.4 -1.2,4.2 -3.75,3.4 -4.3,3.25 -4.9,3.1 -5.5,3 -6.65,2.75 -7.6,2.15 -8.35,1.3 -8.9,0.65 -9.25,-0.05 -9.4,-0.9 c 0.2,-0.55 0.55,-1.05 1,-1.45 1.45,-1.25 3.15,-2 5.1,-2.3 1.65,-0.25 3.35,-0.45 5,-0.6 z M -1.25,8.85 C -1.05,8.9 -0.85,9 -0.65,9.1 0.95,9.65 2.55,9.85 4.2,9.75 6.05,9.6 7.8,9.3 9.55,8.8 10.4,8.55 11.25,8.2 12.1,7.65 12.35,7.55 12.6,7.35 12.9,7.15 12.6,7.15 12.3,7.2 12,7.25 11.5,7.4 11.05,7.4 10.6,7.15 10.4,7.1 10.2,6.95 10.05,6.8 10,6.85 9.95,6.9 9.9,6.85 9.25,6.35 8.55,5.95 7.8,5.65 7.05,5.4 6.3,5.3 5.45,5.4 4.8,5.6 4.15,5.9 3.55,6.25 2.65,6.8 1.8,7.4 0.95,8 0.25,8.5 -0.5,8.8 -1.25,8.85 z"
           inkscape:connector-curvature="0"
           style="fill:#de7790" />
        <path
           id="path146"
           d="m -15.3,6.85 c 0.1,-0.05 -0.05,-0.1 -0.25,-0.15 0.1,0.05 0.1,0 -0.05,-0.05 0.2,0.1 0.4,0.2 0.3,0.2"
           inkscape:connector-curvature="0"
           style="fill:#fd88a4" />
      </g>
      <g
         id="element27">
        <g
           id="drawingObject36">
          <path
             id="path147"
             d="M 12.03,6.258 C 12.78,6.312 12.735,5.362 12.388,4.76 Q 12.14,4.259 11.789,4.457 11.438,4.655 11.436,5.055 c -0.002,0.55 0.144,1.201 0.594,1.203 z"
             inkscape:connector-curvature="0"
             style="fill:#998a82" />
        </g>
        <g
           id="drawingObject37">
          <path
             id="path148"
             d="m 12.23,6.259 c 0.45,0.003 0.604,-0.847 0.258,-1.498 Q 12.24,4.26 11.939,4.458 11.689,4.557 11.637,5.006 c -0.003,0.55 0.143,1.201 0.593,1.253 z"
             inkscape:connector-curvature="0"
             style="fill:#dbc5ba" />
        </g>
      </g>
      <g
         id="element28">
        <g
           id="drawingObject38">
          <path
             id="path149"
             d="M 12.583,2.985 C 12.584,2.29 12.031,1.85 11.671,1.871 q -0.651,0.024 -0.584,0.7 0.006,0.583 0.368,0.854 c 0.345,0.202 1.169,0.28 1.128,-0.44 z"
             inkscape:connector-curvature="0"
             style="fill:#998a82" />
        </g>
        <g
           id="drawingObject39">
          <path
             id="path150"
             d="M 12.709,2.769 C 12.668,2.05 12.193,1.771 11.833,1.792 q -0.651,0.024 -0.645,0.607 0.006,0.583 0.351,0.785 c 0.363,0.271 1.143,0.323 1.17,-0.415 z"
             inkscape:connector-curvature="0"
             style="fill:#dbc5ba" />
        </g>
      </g>
      <g
         id="element29">
        <g
           id="drawingObject40">
          <path
             id="path151"
             d="M 12.03,6.258 C 12.78,6.312 12.735,5.362 12.388,4.76 Q 12.14,4.259 11.789,4.457 11.438,4.655 11.436,5.055 c -0.002,0.55 0.144,1.201 0.594,1.203 z"
             inkscape:connector-curvature="0"
             style="fill:#998a82" />
        </g>
        <g
           id="drawingObject41">
          <path
             id="path152"
             d="m 12.23,6.259 c 0.45,0.003 0.604,-0.847 0.258,-1.498 Q 12.24,4.26 11.939,4.458 11.689,4.557 11.637,5.006 c -0.003,0.55 0.143,1.201 0.593,1.253 z"
             inkscape:connector-curvature="0"
             style="fill:#dbc5ba" />
        </g>
      </g>
      <g
         id="element30">
        <g
           id="drawingObject42">
          <path
             id="path153"
             d="M 12.583,2.985 C 12.584,2.29 12.031,1.85 11.671,1.871 q -0.651,0.024 -0.584,0.7 0.006,0.583 0.368,0.854 c 0.345,0.202 1.169,0.28 1.128,-0.44 z"
             inkscape:connector-curvature="0"
             style="fill:#998a82" />
        </g>
        <g
           id="drawingObject43">
          <path
             id="path154"
             d="M 12.709,2.769 C 12.668,2.05 12.193,1.771 11.833,1.792 q -0.651,0.024 -0.645,0.607 0.006,0.583 0.351,0.785 c 0.363,0.271 1.143,0.323 1.17,-0.415 z"
             inkscape:connector-curvature="0"
             style="fill:#dbc5ba" />
        </g>
      </g>
      <animate
         attributeName="display"
         begin="0s"
         repeatCount="indefinite"
         dur="0.75s"
         keyTimes="0;1;1"
         values="none;inline;none"
         id="animate3715" />
    </g>
    <g
       id="backSkirtD007b_1_1160">
      <g
         id="element21">
        <path
           id="path117"
           d="M 9,-4.6 C 8,-5.3 5.1,-6.1 1.85,-6.55 c -0.5,-0.05 -1,-0.1 -1.8,-0.2 -0.25,0.05 -0.5,0.05 -0.75,0.05 -0.75,0 -1.5,0.1 -2.15,0.25 l -0.05,0 0,0.05 c 0,0.05 0,0.15 0,0.2 l 0,0.05 c 1.2,0.35 2.45,0.55 3.75,0.65 0.3,0.05 0.6,0.05 0.9,0.1 C 1.9,-5.45 2,-5.45 2.1,-5.45 c 0.35,-0.05 0.65,-0.05 0.95,0 0.05,0 0.05,0 0.1,0.05 -0.1,0 -0.2,0 -0.3,0.05 0.4,0 0.8,0 1.2,0 -0.95,0.1 -1.95,0.15 -2.95,0.1 0.2,0 0.4,0 0.6,0 -1.65,0.15 -3.35,0.35 -5,0.6 -1.95,0.3 -3.65,1.05 -5.1,2.3 -0.45,0.4 -0.8,0.9 -1,1.45 0.15,0.85 0.5,1.55 1.05,2.2 0.75,0.85 1.7,1.45 2.85,1.7 0.6,0.1 1.2,0.25 1.75,0.4 2.55,0.8 5.1,1 7.8,0.6 0,-0.05 0,-0.05 0.05,-0.05 0.1,0 0.2,-0.05 0.3,-0.1 0.05,0 0.1,0 0.15,0 0.05,0 0.15,0 0.2,0 0.1,-0.05 0.15,0 0.2,0.05 -0.55,0.65 -1.35,1.05 -2.4,1.2 -3,0.45 -6,0.6 -8.95,0.55 -0.35,0 -0.65,0.05 -1,0.15 -1.15,0.35 -2.2,0.9 -3.15,1.55 1.05,-0.1 2,-0.2 2.95,-0.35 2.25,-0.4 4.15,0.1 5.7,1.45 0.15,0.1 0.25,0.2 0.35,0.25 0.35,0.15 0.7,0.3 0.9,0.4 C -0.85,9 -1.05,8.9 -1.25,8.85 -0.5,8.8 0.25,8.5 0.95,8 1.8,7.4 2.65,6.8 3.55,6.25 4.15,5.9 4.8,5.6 5.45,5.4 c 0.85,-0.1 1.6,0 2.35,0.25 0.75,0.3 1.45,0.7 2.1,1.2 0.05,0.05 0.1,0 0.15,-0.05 0.15,0.15 0.35,0.3 0.55,0.35 0.45,0.25 0.9,0.25 1.4,0.1 0.3,-0.05 0.6,-0.1 0.9,-0.1 0.3,-0.2 0.55,-0.4 0.8,-0.6 0,0.05 0,-0.05 0,-0.15 0,-0.05 0,-0.05 0.05,-0.05 C 13.6,5.05 13.5,4 13.45,3.15 13.2,1.2 12.5,-0.5 11.25,-2 11.15,-2.1 11.1,-2.25 11.1,-2.5 11.05,-2.75 11,-2.9 10.9,-3.05 10.75,-3.2 10.65,-3.35 10.6,-3.4 L 10.575,-3.425 10.55,-3.45 C 10.35,-3.7 9.85,-4.05 9,-4.6 z m -0.05,1.1 c 0.6,0.5 0.95,0.9 1.1,1.25 0.15,0.3 0.25,0.75 0.2,1.35 0,0.55 -0.4,1.3 -1.15,2.2 l 0.55,-1.4 c 0,0 -0.1,0.25 -1,1.1 -0.95,0.8 -2.7,1.5 -2.7,1.5 l 1,-0.45 -1,0.45 L 6.9,1.6 C 7.65,1.05 8.1,0.65 8.25,0.4 8.4,0.15 8.6,-0.2 8.85,-0.75 c 0.25,-0.55 0.3,-1.5 0,-2.85 l 0.1,0.1 z m -29.1,2.5 c 0,0.05 0.1,0.15 0.25,0.25 1.05,0.6 1.75,1.5 2.2,2.65 0.25,0.65 0.4,1.35 0.55,2.05 0.2,1.35 0.8,2.3 1.55,2.7 -0.05,-0.25 -0.05,-0.55 0,-0.9 0.4,-1.65 1.2,-3.1 2.4,-4.35 0.95,-1.05 1.35,-2.2 1.15,-3.5 0,-0.15 -0.1,-0.25 -0.35,-0.25 -2.65,0.05 -5.15,0.45 -7.5,1.2 0.05,-0.05 0.1,-0.1 0.05,-0.1 -0.15,0.1 -0.2,0.15 -0.25,0.2 l -0.025,0 -0.025,0 0,0.025 0,0.025 c -0.05,0 -0.05,0 -0.05,0 l 0.05,0 z"
           inkscape:connector-curvature="0"
           style="fill:#fd88a4" />
        <path
           id="path118"
           d="m 8.95,-3.5 -0.1,-0.1 c 0.3,1.35 0.25,2.3 0,2.85 C 8.6,-0.2 8.4,0.15 8.25,0.4 8.1,0.65 7.65,1.05 6.9,1.6 l -0.95,0.9 1,-0.45 -1,0.45 c 0,0 1.75,-0.7 2.7,-1.5 0.9,-0.85 1,-1.1 1,-1.1 L 9.1,1.3 C 9.85,0.4 10.25,-0.35 10.25,-0.9 10.3,-1.5 10.2,-1.95 10.05,-2.25 9.9,-2.6 9.55,-3 8.95,-3.5 z M 1.7,-5.25 c -0.2,0 -0.4,0 -0.6,0 1,0.05 2,0 2.95,-0.1 -0.4,0 -0.8,0 -1.2,0 0.1,-0.05 0.2,-0.05 0.3,-0.05 -0.05,-0.05 -0.05,-0.05 -0.1,-0.05 -0.3,-0.05 -0.6,-0.05 -0.95,0 -0.1,0 -0.2,0 -0.35,0.05 -0.3,-0.05 -0.6,-0.05 -0.9,-0.1 -1.3,-0.1 -2.55,-0.3 -3.75,-0.65 l 0,-0.05 c 0,-0.05 0,-0.15 0,-0.2 l 0,-0.05 0.05,0 c 0.65,-0.15 1.4,-0.25 2.15,-0.25 0.25,0 0.5,0 0.75,-0.05 l -0.025,0 -1.375,-0.075 0,0.025 C -1.6,-6.85 -1.9,-6.85 -2.15,-6.85 l -0.2,0 C -2.65,-6.8 -3,-6.8 -3.4,-6.8 c -0.05,0 -0.15,0 -0.25,0 q -2.9,0.2 -5.4,2 -0.815,0.587 -1.4,1.15 c 0,0.05 0,0.05 0,0.1 -0.25,0.1 -0.55,0.15 -0.85,0.2 -2,0.25 -4,0.6 -6,1.05 -0.9,0.2 -1.8,0.55 -2.45,1 l -0.025,0 0.025,0 c -0.05,0.05 -0.1,0.1 -0.1,0.05 0.05,0 0,0.05 -0.05,0.1 2.35,-0.75 4.85,-1.15 7.5,-1.2 0.25,0 0.35,0.1 0.35,0.25 0.2,1.3 -0.2,2.45 -1.15,3.5 -1.2,1.25 -2,2.7 -2.4,4.35 -0.05,0.35 -0.05,0.65 0,0.9 0.15,0.05 0.15,0.1 0.05,0.05 0.2,0.05 0.35,0.1 0.25,0.15 0.05,0 0.1,0 0.05,0 l -0.025,0 1.95,0.5 0.025,0 c 0.05,0 0.05,0 0.05,0 l 1.975,0.025 0.025,0.025 c 0.1,-0.05 0.2,-0.05 0.35,-0.05 0.25,0 0.3,0 0.35,0 0.95,-0.65 2,-1.2 3.15,-1.55 0.35,-0.1 0.65,-0.15 1,-0.15 C -3.45,5.7 -0.45,5.55 2.55,5.1 3.6,4.95 4.4,4.55 4.95,3.9 4.9,3.85 4.85,3.8 4.75,3.85 c -0.05,0 -0.15,0 -0.2,0 -0.05,0 -0.1,0 -0.15,0 C 4.3,3.9 4.2,3.95 4.1,3.95 4.05,3.95 4.05,3.95 4.05,4 1.35,4.4 -1.2,4.2 -3.75,3.4 -4.3,3.25 -4.9,3.1 -5.5,3 -6.65,2.75 -7.6,2.15 -8.35,1.3 -8.9,0.65 -9.25,-0.05 -9.4,-0.9 c 0.2,-0.55 0.55,-1.05 1,-1.45 1.45,-1.25 3.15,-2 5.1,-2.3 1.65,-0.25 3.35,-0.45 5,-0.6 z M -1.25,8.85 C -1.05,8.9 -0.85,9 -0.65,9.1 0.95,9.65 2.55,9.85 4.2,9.75 6.05,9.6 7.8,9.3 9.55,8.8 10.4,8.55 11.25,8.2 12.1,7.65 12.35,7.55 12.6,7.35 12.9,7.15 12.6,7.15 12.3,7.2 12,7.25 11.5,7.4 11.05,7.4 10.6,7.15 10.4,7.1 10.2,6.95 10.05,6.8 10,6.85 9.95,6.9 9.9,6.85 9.25,6.35 8.55,5.95 7.8,5.65 7.05,5.4 6.3,5.3 5.45,5.4 4.8,5.6 4.15,5.9 3.55,6.25 2.65,6.8 1.8,7.4 0.95,8 0.25,8.5 -0.5,8.8 -1.25,8.85 z"
           inkscape:connector-curvature="0"
           style="fill:#de7790" />
        <path
           id="path127"
           d="m -15.3,6.85 c 0.1,-0.05 -0.05,-0.1 -0.25,-0.15 0.1,0.05 0.1,0 -0.05,-0.05 0.2,0.1 0.35,0.2 0.3,0.2"
           inkscape:connector-curvature="0"
           style="fill:#fd88a4" />
      </g>
      <g
         id="element22">
        <g
           id="drawingObject28">
          <path
             id="path128"
             d="M 12.03,6.258 C 12.78,6.312 12.735,5.362 12.388,4.76 Q 12.14,4.259 11.789,4.457 11.438,4.655 11.436,5.055 c -0.002,0.55 0.144,1.201 0.594,1.203 z"
             inkscape:connector-curvature="0"
             style="fill:#998a82" />
        </g>
        <g
           id="drawingObject29">
          <path
             id="path129"
             d="m 12.23,6.259 c 0.45,0.003 0.604,-0.847 0.258,-1.498 Q 12.24,4.26 11.939,4.458 11.689,4.557 11.637,5.006 c -0.003,0.55 0.143,1.201 0.593,1.253 z"
             inkscape:connector-curvature="0"
             style="fill:#dbc5ba" />
        </g>
      </g>
      <g
         id="element23">
        <g
           id="drawingObject30">
          <path
             id="path130"
             d="M 12.583,2.985 C 12.584,2.29 12.031,1.85 11.671,1.871 q -0.651,0.024 -0.584,0.7 0.006,0.583 0.368,0.854 c 0.345,0.202 1.169,0.28 1.128,-0.44 z"
             inkscape:connector-curvature="0"
             style="fill:#998a82" />
        </g>
        <g
           id="drawingObject31">
          <path
             id="path131"
             d="M 12.709,2.769 C 12.668,2.05 12.193,1.771 11.833,1.792 q -0.651,0.024 -0.645,0.607 0.006,0.583 0.351,0.785 c 0.363,0.271 1.143,0.323 1.17,-0.415 z"
             inkscape:connector-curvature="0"
             style="fill:#dbc5ba" />
        </g>
      </g>
      <g
         id="element24">
        <g
           id="drawingObject32">
          <path
             id="path132"
             d="M 12.03,6.258 C 12.78,6.312 12.735,5.362 12.388,4.76 Q 12.14,4.259 11.789,4.457 11.438,4.655 11.436,5.055 c -0.002,0.55 0.144,1.201 0.594,1.203 z"
             inkscape:connector-curvature="0"
             style="fill:#998a82" />
        </g>
        <g
           id="drawingObject33">
          <path
             id="path133"
             d="m 12.23,6.259 c 0.45,0.003 0.604,-0.847 0.258,-1.498 Q 12.24,4.26 11.939,4.458 11.689,4.557 11.637,5.006 c -0.003,0.55 0.143,1.201 0.593,1.253 z"
             inkscape:connector-curvature="0"
             style="fill:#dbc5ba" />
        </g>
      </g>
      <g
         id="element25">
        <g
           id="drawingObject34">
          <path
             id="path134"
             d="M 12.583,2.985 C 12.584,2.29 12.031,1.85 11.671,1.871 q -0.651,0.024 -0.584,0.7 0.006,0.583 0.368,0.854 c 0.345,0.202 1.169,0.28 1.128,-0.44 z"
             inkscape:connector-curvature="0"
             style="fill:#998a82" />
        </g>
        <g
           id="drawingObject35">
          <path
             id="path135"
             d="M 12.709,2.769 C 12.668,2.05 12.193,1.771 11.833,1.792 q -0.651,0.024 -0.645,0.607 0.006,0.583 0.351,0.785 c 0.363,0.271 1.143,0.323 1.17,-0.415 z"
             inkscape:connector-curvature="0"
             style="fill:#dbc5ba" />
        </g>
      </g>
      <animate
         attributeName="display"
         begin="0s"
         repeatCount="indefinite"
         dur="0.75s"
         keyTimes="0;0.833;1"
         values="none;inline;none"
         id="animate3742" />
    </g>
    <g
       id="backSkirtD007b_1_1158">
      <g
         id="element18">
        <path
           id="path103"
           d="M 9,-4.6 C 8,-5.3 5.1,-6.1 1.85,-6.55 c -0.6,-0.1 -1.25,-0.15 -2.1,-0.2 -0.15,0 -0.3,0 -0.45,0 -0.7,0.05 -1.4,0.2 -2.05,0.35 l 0.05,0.05 0,0.05 0.05,0 c 0,0.05 0,0.05 0.05,0.1 1.05,0.3 2.1,0.5 3.25,0.55 0.9,0.05 1.8,0.1 2.75,0.1 -0.2,0 -0.4,0 -0.6,0 0.35,-0.05 0.75,-0.05 1.15,-0.05 -0.15,0 -0.25,0 -0.4,0.05 0.2,0 0.4,0 0.55,0 0.1,0 0.15,0.05 0.2,0.15 -0.75,0.05 -1.55,0.05 -2.3,0.05 -0.05,0 -0.05,0 -0.1,0 -1.6,0.15 -3.2,0.35 -4.8,0.55 -1.85,0.2 -3.4,0.95 -4.55,2.25 -0.85,0.95 -1.15,2 -0.9,3.25 0.65,0.7 1.5,1.25 2.45,1.7 2.05,0.95 4.15,1.45 6.4,1.55 1.85,0.1 3.6,-0.15 5.2,-0.7 l 0,-0.025 -0.025,0 L 5.7,3.2 l 0,0.025 0,0.025 C 5.85,3.2 5.95,3.15 6.05,3.1 5.95,3.15 5.85,3.25 5.75,3.3 5.8,3.6 5.6,3.9 5.15,4.2 3.3,5.4 1.2,5.9 -1.15,5.7 c -2.65,-0.25 -5,0.25 -7.1,1.55 -0.2,0 -0.4,0 -0.6,0.05 0.85,-0.1 1.65,-0.15 2.4,-0.1 2.7,-0.15 4.7,0.2 6,1.05 0.1,0.05 0.15,0.1 0.15,0.1 C 0.35,8 0.95,7.55 1.5,7 2.25,6.3 3.15,5.8 4.2,5.5 4.25,5.45 4.35,5.45 4.45,5.4 c 1.5,0.15 2.95,0.4 4.4,0.85 0.9,0.3 1.8,0.35 2.7,0.2 C 11.95,6.05 12.35,5.7 12.7,5.5 13.35,5.1 14,4.8 14.65,4.55 15.25,4.3 15.5,4.05 15.45,3.75 15.4,3.45 15.2,2.8 14.85,1.85 14.45,0.85 13.95,0 13.35,-0.65 12.8,-1.4 12.1,-1.95 11.25,-2.4 l 0,-0.025 0,0.025 C 11.2,-2.45 11.15,-2.5 11.1,-2.5 11.05,-2.75 11,-2.9 10.9,-3.05 10.75,-3.2 10.65,-3.35 10.6,-3.4 L 10.575,-3.425 10.55,-3.45 C 10.35,-3.7 9.85,-4.05 9,-4.6 z m -24.45,3.55 c -0.35,0.05 -0.65,0.2 -0.9,0.4 -1.05,0.25 -2.05,0.55 -3.1,0.95 -0.1,0.05 -0.2,0.05 -0.25,0.1 0.85,0.45 1.4,1.1 1.8,2.05 0.4,0.95 0.75,1.75 1,2.35 0,-0.15 0,-0.25 0,-0.4 -0.05,-0.45 0,-0.95 0.1,-1.4 0.35,-0.55 0.7,-1.05 1.1,-1.6 0.45,-0.7 1,-1.3 1.6,-1.85 0.2,-0.15 0.35,-0.3 0.4,-0.55 -0.55,-0.15 -1.1,-0.2 -1.75,-0.05 z"
           inkscape:connector-curvature="0"
           style="fill:#fd88a4" />
        <path
           id="path104"
           d="M 9.2,-2.45 C 9.35,-1.6 9.3,-1.1 9.15,-0.75 8.95,-0.2 8.75,0.15 8.6,0.4 8.5,0.65 8.05,1.05 7.35,1.6 l -0.9,0.9 1,-0.45 -1,0.45 c 0,0 1.7,-0.7 2.6,-1.5 C 9.9,0.15 10,-0.1 10,-0.1 L 9.55,1.3 c 0.65,-0.9 1,-1.65 1,-2.2 0,-0.6 -0.15,-1.05 -0.3,-1.35 C 10.1,-2.6 9.7,-3 9.05,-3.5 l -0.1,-0.1 c 0.15,0.5 0.25,0.95 0.25,1.15 z m -7.3,-2.9 c 0.05,0 0.05,0 0.1,0 0.75,0 1.55,0 2.3,-0.05 -0.05,-0.1 -0.1,-0.15 -0.2,-0.15 -0.15,0 -0.35,0 -0.55,0 0.15,-0.05 0.25,-0.05 0.4,-0.05 -0.4,0 -0.8,0 -1.15,0.05 0.2,0 0.4,0 0.6,0 -0.95,0 -1.85,-0.05 -2.75,-0.1 C -0.5,-5.7 -1.55,-5.9 -2.6,-6.2 -2.65,-6.25 -2.65,-6.25 -2.65,-6.3 l -0.05,0 0,-0.05 -0.05,-0.05 c 0.65,-0.15 1.35,-0.3 2.05,-0.35 0.15,0 0.3,0 0.45,0 -0.4,-0.05 -0.85,-0.05 -1.55,-0.1 0.1,0 0,0 -0.1,0 -0.5,0 -1.15,0 -1.75,0.05 q -2.9,0.2 -5.4,2 -0.466,0.335 -0.85,0.65 c -0.05,0.05 -0.1,0.05 -0.15,0.1 -0.15,0.05 -0.25,0.2 -0.3,0.25 0.05,0 0.05,0 0.1,0 -1.05,0.45 -2.85,1.05 -5.45,1.8 -2.6,0.75 -4.1,1.5 -4.45,2.2 -0.05,0.05 -0.05,0.05 -0.05,0.05 0.25,0.05 0.5,0.15 0.5,0.15 0.05,-0.05 0.15,-0.05 0.25,-0.1 1.05,-0.4 2.05,-0.7 3.1,-0.95 0.25,-0.2 0.55,-0.35 0.9,-0.4 0.65,-0.15 1.2,-0.1 1.75,0.05 -0.05,0.25 -0.2,0.4 -0.4,0.55 -0.6,0.55 -1.15,1.15 -1.6,1.85 -0.4,0.55 -0.75,1.05 -1.1,1.6 -0.1,0.45 -0.15,0.95 -0.1,1.4 0,0.15 0,0.25 0,0.4 l 0,-0.025 0.1,0.2 0,0.025 c 0.2,0.45 0.25,0.55 0.3,0.65 0.4,0.85 1.1,1.4 2.15,1.7 1.05,0.25 2.3,0.3 3.85,0.1 0.55,-0.05 1.1,-0.1 1.65,-0.15 0.2,-0.05 0.4,-0.05 0.6,-0.05 2.1,-1.3 4.45,-1.8 7.1,-1.55 C 1.2,5.9 3.3,5.4 5.15,4.2 5.6,3.9 5.8,3.6 5.75,3.3 5.85,3.25 5.95,3.15 6.05,3.1 5.95,3.15 5.85,3.2 5.7,3.25 4.1,3.8 2.35,4.05 0.5,3.95 -1.75,3.85 -3.85,3.35 -5.9,2.4 -6.85,1.95 -7.7,1.4 -8.35,0.7 -8.6,-0.55 -8.3,-1.6 -7.45,-2.55 -6.3,-3.85 -4.75,-4.6 -2.9,-4.8 -1.3,-5 0.3,-5.2 1.9,-5.35 z M -0.3,8.35 C -0.2,8.4 -0.1,8.45 -0.2,8.4 1.1,9.2 2.15,9.5 3.15,9.6 4.3,9.65 5.6,9.6 7.1,9.4 8.6,9.2 9.75,8.6 10.55,7.6 10.9,7.15 11.25,6.8 11.55,6.45 10.65,6.6 9.75,6.55 8.85,6.25 7.4,5.8 5.95,5.55 4.45,5.4 4.35,5.45 4.25,5.45 4.2,5.5 3.15,5.8 2.25,6.3 1.5,7 0.95,7.55 0.35,8 -0.3,8.35 z"
           inkscape:connector-curvature="0"
           style="fill:#de7790" />
        <path
           id="path112"
           d="M 5.7,3.225 5.7,3.2 5.675,3.225 5.7,3.225"
           inkscape:connector-curvature="0"
           style="fill:#de7790" />
      </g>
      <g
         id="element19">
        <g
           id="drawingObject24">
          <path
             id="path113"
             d="m 14.107,3.842 c 0.717,-0.302 0.26,-1.1 -0.323,-1.456 Q 13.336,2.069 13.098,2.403 12.86,2.737 13.033,3.083 c 0.238,0.475 0.657,0.967 1.074,0.759 z"
             inkscape:connector-curvature="0"
             style="fill:#998a82" />
        </g>
        <g
           id="drawingObject25">
          <path
             id="path114"
             d="M 14.293,3.75 C 14.71,3.543 14.481,2.74 13.876,2.34 Q 13.429,2.023 13.237,2.334 13.049,2.536 13.197,2.947 c 0.237,0.475 0.657,0.967 1.096,0.803 z"
             inkscape:connector-curvature="0"
             style="fill:#dbc5ba" />
        </g>
      </g>
      <g
         id="element20">
        <g
           id="drawingObject26">
          <path
             id="path115"
             d="M 13.439,0.92 C 13.137,0.321 12.433,0.199 12.11,0.385 q -0.592,0.323 -0.235,0.875 0.261,0.5 0.714,0.564 c 0.407,0.014 1.203,-0.303 0.85,-0.904 z"
             inkscape:connector-curvature="0"
             style="fill:#998a82" />
        </g>
        <g
           id="drawingObject27">
          <path
             id="path116"
             d="M 13.462,0.676 C 13.109,0.075 12.549,0.056 12.225,0.241 q -0.592,0.324 -0.331,0.823 0.26,0.5 0.667,0.514 c 0.454,0.064 1.198,-0.254 0.901,-0.902 z"
             inkscape:connector-curvature="0"
             style="fill:#dbc5ba" />
        </g>
      </g>
      <animate
         attributeName="display"
         begin="0s"
         repeatCount="indefinite"
         dur="0.75s"
         keyTimes="0;0.722;0.833;1"
         values="none;inline;none;none"
         id="animate3759" />
    </g>
    <g
       id="backSkirtD007b_1_1156">
      <g
         id="element15">
        <path
           id="path83"
           d="m 9,-4.65 c -1,-0.7 -3.9,-1.45 -7.15,-1.9 -0.9,-0.15 -1.9,-0.2 -3,-0.25 0.25,0 0.45,0 0.65,0.05 -0.25,0.05 -0.55,0.05 -0.85,0.1 -0.45,0 -0.85,0.05 -1.25,0.1 -0.1,0.05 -0.15,0.1 -0.15,0.15 0.55,0.35 1.2,0.6 2.05,0.7 1.05,0.15 2.15,0.25 3.2,0.3 0.45,-0.05 0.95,-0.1 1.4,-0.15 0.15,-0.05 0.25,0 0.3,0.15 0.15,-0.05 0.25,-0.05 0.4,-0.05 -0.85,0.1 -1.7,0.15 -2.55,0.15 0.25,0 0.5,0 0.75,0 -2.2,0.15 -4.35,0.45 -6.5,0.85 -2.25,0.4 -3.65,1.65 -4.2,3.7 -0.15,0.4 -0.1,0.8 0.15,1.25 0.65,1.25 1.75,2.05 3.25,2.4 0.35,0.05 0.65,0.15 0.95,0.3 C -2.2,3.75 -0.8,4 0.65,4 2.55,4 4.35,3.6 6,2.85 5.95,2.9 5.9,2.9 5.85,2.95 l 0.05,0 C 5.95,3.15 5.85,3.4 5.5,3.75 4.2,5.05 2.55,5.75 0.6,5.8 -0.25,5.85 -1.1,5.85 -1.95,5.9 -3.9,6 -5.8,6.4 -7.6,7.05 -8.05,7.2 -8.4,7.4 -8.75,7.75 c -0.05,0 -0.15,0 -0.2,0.05 2.4,-0.25 4.7,0.1 6.85,1.1 0.35,0.15 0.7,0.25 0.65,0.25 0.05,0.05 0.15,0.05 0.2,0.1 C -1.35,9.2 -1.45,9.15 -1.5,9.15 -1.3,9 -1.1,8.9 -0.85,8.75 -0.05,8.2 0.7,7.6 1.35,6.9 1.95,6.3 2.7,5.95 3.55,5.85 c 0.1,0 0.15,0 0.1,0 L 3.7,5.8 l 0.05,0 0,-0.05 c 0.2,0.05 0.4,0.05 0.6,0.05 0.1,0 0.2,0 0.3,0.05 0.15,-0.05 0.25,0 0.35,0 0.05,0 0.15,0 0.2,0 l 0.025,0.025 0.025,0 0,-0.025 c 0.05,0 0.05,0 0.1,0 0.9,0.25 1.8,0.4 2.7,0.45 C 8.9,6.35 9.7,6.3 10.5,6.1 10.3,6.2 10.1,6.3 9.95,6.45 L 9.925,6.45 9.975,6.425 10,6.45 c 1.35,-1 2.8,-1.75 4.25,-2.35 l -0.025,0 -0.025,0 C 14.2,3.9 14.3,3.75 14.55,3.65 14.7,3.6 14.8,3.5 14.9,3.35 15,3.2 15.1,3.05 15.25,2.85 c 0.1,-0.2 0.3,-0.5 0.6,-0.85 0.25,-0.4 0.8,-0.65 1.6,-0.8 0,-0.05 0,-0.25 -0.05,-0.45 C 17.3,0.8 17.25,0.85 17.25,0.9 16.3,-0.5 15.05,-1.6 13.55,-2.35 12.1,-3 10.65,-3.7 9.3,-4.4 L 9.25,-4.7 C 9.2,-4.65 9.15,-4.6 9.15,-4.55 9.1,-4.6 9.05,-4.6 9,-4.65 z m 0.05,1.05 0.15,0.1 c 0.65,0.5 1.05,0.9 1.25,1.25 0.2,0.3 0.35,0.75 0.4,1.35 0.05,0.55 -0.25,1.3 -0.9,2.2 l 0.4,-1.4 c 0,0 -0.1,0.25 -0.9,1.1 -0.8,0.8 -2.5,1.5 -2.5,1.5 L 7.9,2.05 6.95,2.5 7.8,1.6 C 8.5,1.05 8.9,0.65 9,0.4 9.1,0.15 9.25,-0.2 9.45,-0.75 9.6,-1.3 9.55,-2.25 9.05,-3.6 z"
           inkscape:connector-curvature="0"
           style="fill:#fd88a4" />
        <path
           id="path84"
           d="m 9.05,-3.6 c 0.5,1.35 0.55,2.3 0.4,2.85 C 9.25,-0.2 9.1,0.15 9,0.4 8.9,0.65 8.5,1.05 7.8,1.6 L 6.95,2.5 7.9,2.05 6.95,2.5 c 0,0 1.7,-0.7 2.5,-1.5 0.8,-0.85 0.9,-1.1 0.9,-1.1 L 9.95,1.3 C 10.6,0.4 10.9,-0.35 10.85,-0.9 10.8,-1.5 10.65,-1.95 10.45,-2.25 10.25,-2.6 9.85,-3 9.2,-3.5 L 9.05,-3.6 z M 2.8,-5.3 c -0.25,0 -0.5,0 -0.75,0 0.85,0 1.7,-0.05 2.55,-0.15 -0.15,0 -0.25,0 -0.4,0.05 C 4.15,-5.55 4.05,-5.6 3.9,-5.55 3.45,-5.5 2.95,-5.45 2.5,-5.4 1.45,-5.45 0.35,-5.55 -0.7,-5.7 c -0.85,-0.1 -1.5,-0.35 -2.05,-0.7 0,-0.05 0.05,-0.1 0.15,-0.15 0.4,-0.05 0.8,-0.1 1.25,-0.1 0.3,-0.05 0.6,-0.05 0.85,-0.1 C -0.7,-6.8 -0.9,-6.8 -1.15,-6.8 l 0,-0.025 -1.375,-0.025 q -0.574,0.017 -1.125,0.05 c -4.05,0.25 -6.65,2.8 -7.1,3.4 0,0.05 0,0.05 0.05,0.05 -0.25,0.1 -0.45,0.45 -0.5,0.8 -0.15,0.05 -0.25,0.15 -0.4,0.2 -0.95,0.55 -2,1 -3.15,1.35 -2.2,0.6 -4,1.7 -5.25,3.45 -0.05,0.1 -0.1,0.2 -0.15,0.3 0.05,-0.1 0.1,-0.2 0.2,-0.25 0.05,0.1 0.1,0.2 0.1,0.1 l -0.025,0 0.025,0.025 0,0.025 c 0.45,-0.25 0.85,-0.55 1.3,-0.9 0.8,-0.65 1.65,-1.05 2.6,-1.15 -0.35,0.35 -0.7,0.75 -1.05,1.15 -0.55,0.65 -0.85,1.35 -0.9,2.15 -0.05,0.45 -0.05,0.85 0.1,1.2 l -0.025,0 0.025,0.05 c 0.05,0.05 0.15,0.15 0.2,0.25 l 0,-0.025 0.2,0.225 c 0.75,0.85 1.45,1.4 2.2,1.9 1.15,0.85 2.4,1.05 3.85,0.7 0.8,-0.2 1.6,-0.35 2.4,-0.4 C -8.9,7.75 -8.8,7.75 -8.75,7.75 -8.4,7.4 -8.05,7.2 -7.6,7.05 -5.8,6.4 -3.9,6 -1.95,5.9 -1.1,5.85 -0.25,5.85 0.6,5.8 2.55,5.75 4.2,5.05 5.5,3.75 5.85,3.4 5.95,3.15 5.9,2.95 l -0.05,0 C 5.9,2.9 5.95,2.9 6,2.85 4.35,3.6 2.55,4 0.65,4 -0.8,4 -2.2,3.75 -3.55,3.2 -3.85,3.05 -4.15,2.95 -4.5,2.9 -6,2.55 -7.1,1.75 -7.75,0.5 -8,0.05 -8.05,-0.35 -7.9,-0.75 c 0.55,-2.05 1.95,-3.3 4.2,-3.7 2.15,-0.4 4.3,-0.7 6.5,-0.85 z m -4.6,-1.5 0.05,0.05 c -0.05,0 -0.05,0 -0.1,0 -0.05,0 -0.1,0 -0.15,0 0.05,-0.05 0.15,-0.05 0.2,-0.05 z m 0.3,15.95 c 0.05,0 0.15,0.05 0.25,0.1 0,0 0,0 0.05,0 0.65,0.25 1,0.35 1.35,0.45 1.6,0.45 3.15,0.5 4.7,0.15 C 5.5,9.7 6.05,9.4 6.55,9 6.75,8.85 6.95,8.65 7.15,8.5 6.9,8.65 6.7,8.8 6.45,8.95 l 0,-0.05 C 7.05,8.5 7.65,8.1 8.3,7.75 8.9,7.4 9.4,7.05 9.75,6.65 L 9.725,6.65 9.8,6.55 C 9.85,6.5 9.9,6.45 10,6.45 L 9.975,6.425 9.925,6.45 9.95,6.45 C 10.1,6.3 10.3,6.2 10.5,6.1 9.7,6.3 8.9,6.35 8.05,6.3 7.15,6.25 6.25,6.1 5.35,5.85 c -0.05,0 -0.05,0 -0.1,0 l 0,0.025 -0.025,0 L 5.2,5.85 c -0.05,0 -0.15,0 -0.2,0 -0.1,0 -0.2,-0.05 -0.35,0 C 4.55,5.8 4.45,5.8 4.35,5.8 c -0.2,0 -0.4,0 -0.6,-0.05 l 0,0.05 -0.05,0 -0.05,0.05 c 0.05,0 0,0 -0.1,0 C 2.7,5.95 1.95,6.3 1.35,6.9 0.7,7.6 -0.05,8.2 -0.85,8.75 -1.1,8.9 -1.3,9 -1.5,9.15 z m 18.95,-7.7 c 0,-0.05 0,-0.1 0,-0.25 -0.8,0.15 -1.35,0.4 -1.6,0.8 -0.3,0.35 -0.5,0.65 -0.6,0.85 C 15.1,3.05 15,3.2 14.9,3.35 14.8,3.5 14.7,3.6 14.55,3.65 14.3,3.75 14.2,3.9 14.2,4.1 l 0.025,0 0.025,0 C 14.5,4 14.75,3.9 14.9,3.85 15.15,3.7 15.3,3.65 15.45,3.6 c 1.2,-0.5 1.85,-1.15 1.95,-2 0,-0.05 0,-0.1 0.05,-0.15 z"
           inkscape:connector-curvature="0"
           style="fill:#de7790" />
        <path
           id="path89"
           d="m -1.8,-6.8 c -0.05,0 -0.15,0 -0.2,0.05 0.05,0 0.1,0 0.15,0 0.05,0 0.05,0 0.1,0 L -1.8,-6.8 z M -17,1.75 c 0.35,-0.4 0.7,-0.8 1.05,-1.15 -0.95,0.1 -1.8,0.5 -2.6,1.15 -0.45,0.35 -0.85,0.65 -1.3,0.9 0.6,0.8 1.1,1.35 1.5,1.8 0.05,0.05 0.05,0.05 0.05,0.05 0.1,0.15 0.15,0.25 0.15,0.15 0.15,0.25 0.2,0.3 0.25,0.35 0.05,0.05 0.1,0.1 0.1,0.1 -0.15,-0.35 -0.15,-0.75 -0.1,-1.2 0.05,-0.8 0.35,-1.5 0.9,-2.15 z"
           inkscape:connector-curvature="0"
           style="fill:#fd88a4" />
        <path
           id="path98"
           d="m 15.7,2.3 0.025,-0.05 m 0.025,0 C 15.6,2.4 15.5,2.6 15.5,2.7 15.55,2.55 15.65,2.45 15.7,2.3"
           inkscape:connector-curvature="0"
           style="fill:#fd88a4" />
      </g>
      <g
         id="element16">
        <g
           id="drawingObject20">
          <path
             id="path99"
             d="m 15.737,1.851 c 0.61,-0.483 -0.043,-1.13 -0.7,-1.318 q -0.516,-0.186 -0.656,0.199 -0.14,0.386 0.118,0.673 c 0.356,0.394 0.892,0.757 1.238,0.446 z"
             inkscape:connector-curvature="0"
             style="fill:#998a82" />
        </g>
        <g
           id="drawingObject21">
          <path
             id="path100"
             d="M 15.891,1.713 C 16.238,1.402 15.804,0.688 15.114,0.464 q -0.516,-0.186 -0.618,0.165 -0.127,0.244 0.125,0.602 c 0.356,0.394 0.891,0.757 1.27,0.482 z"
             inkscape:connector-curvature="0"
             style="fill:#dbc5ba" />
        </g>
      </g>
      <g
         id="element17">
        <g
           id="drawingObject22">
          <path
             id="path101"
             d="m 14.299,-0.88 c -0.45,-0.497 -1.161,-0.427 -1.423,-0.162 q -0.485,0.47 0.007,0.906 0.384,0.412 0.838,0.354 c 0.396,-0.096 1.078,-0.613 0.578,-1.098 z"
             inkscape:connector-curvature="0"
             style="fill:#998a82" />
        </g>
        <g
           id="drawingObject23">
          <path
             id="path102"
             d="m 14.256,-1.122 c -0.5,-0.485 -1.045,-0.354 -1.307,-0.089 q -0.485,0.47 -0.101,0.882 0.384,0.412 0.78,0.317 c 0.455,-0.059 1.087,-0.564 0.628,-1.11 z"
             inkscape:connector-curvature="0"
             style="fill:#dbc5ba" />
        </g>
      </g>
      <animate
         attributeName="display"
         begin="0s"
         repeatCount="indefinite"
         dur="0.75s"
         keyTimes="0;0.611;0.722;1"
         values="none;inline;none;none"
         id="animate3777" />
    </g>
    <g
       id="backSkirtD007b_1_1154">
      <g
         id="element12">
        <path
           id="path65"
           d="m -10.75,-3.3 c 0,0.05 0,0.05 0.05,0.05 -0.25,0.1 -0.45,0.45 -0.55,0.95 -0.15,0.25 -0.35,0.45 -0.5,0.7 -0.45,0.6 -1,1.05 -1.65,1.35 0,0.05 0,0.05 -0.05,0.1 -1.05,1 -2.1,1.9 -3.25,2.7 -1.15,0.8 -2,1.8 -2.55,3 -0.05,0.05 -0.05,0.05 -0.05,0.1 -0.05,-0.05 -0.1,0.05 -0.25,0.25 0,0.05 0.05,0.05 0.1,0.05 0.15,0.1 0.25,0.15 0.2,0.15 0.1,0.1 0.2,0.15 0.1,0.1 0.2,0.2 0.25,0.3 0.3,0.35 0.75,0.6 1.5,1.2 2.2,1.85 1.25,1.15 2.65,1.6 4.2,1.35 0.15,0 0.25,0 0.15,0 l 0,-0.025 0.475,-0.075 0.025,0 c 0.15,0 0.25,0 0.15,0 0.35,0 0.45,-0.05 0.5,-0.1 0.3,-0.05 0.55,-0.1 0.65,-0.1 0.95,-0.7 1.95,-1.4 2.9,-2.05 1.15,-0.75 2.45,-1.2 3.8,-1.25 3.05,-0.1 5.9,-0.8 8.55,-2.1 C 5.55,3.65 5.95,3.15 6,2.55 6.1,2.45 6.2,2.4 6.3,2.35 5.6,2.6 4.85,2.9 4.05,3.25 2.9,3.75 1.65,4 0.35,4 -0.75,4 -1.85,3.9 -3,3.7 -3.9,3.55 -4.7,3.15 -5.4,2.5 -6.3,2.15 -7,1.55 -7.55,0.75 -7.8,0.35 -7.9,-0.05 -7.8,-0.45 c 0.5,-2.15 1.9,-3.5 4.2,-4 2.55,-0.55 5.2,-0.85 7.85,-0.9 l -0.025,-0.05 0.025,0 c 0.05,0 0.05,0 0.1,0 C 4.1,-5.45 3.9,-5.45 3.65,-5.45 2.8,-5.55 1.9,-5.55 1,-5.5 c -1.5,0.05 -2.85,-0.15 -4,-0.7 0.05,-0.05 0.05,-0.05 0.1,-0.1 0.1,-0.1 0.25,-0.15 0.4,-0.2 0.2,-0.05 0.35,-0.1 0.5,-0.15 0.75,0.05 1.45,0 2.2,-0.05 -0.05,0 -0.05,0 -0.05,0 l 0,-0.025 0,-0.025 c -0.25,-0.1 -0.5,-0.1 -0.75,-0.05 l -0.025,0.025 -0.025,0 0,0.025 C -0.8,-6.8 -1.05,-6.8 -1.3,-6.8 c -0.8,-0.05 -1.6,-0.05 -2.35,0 q -2.9,0.2 -5.4,2 -1.059,0.762 -1.725,1.5"
           inkscape:connector-curvature="0"
           style="fill:#de7790" />
        <path
           id="path66"
           d="m -2.9,-6.3 c -0.05,0.05 -0.05,0.05 -0.1,0.1 1.15,0.55 2.5,0.75 4,0.7 0.9,-0.05 1.8,-0.05 2.65,0.05 0.1,-0.05 0.2,-0.05 0.35,-0.05 0.1,0 0.2,0.05 0.25,0.1 C 4,-5.45 3.8,-5.45 3.65,-5.45 c 0.25,0 0.45,0 0.7,0.05 -0.05,0 -0.05,0 -0.1,0 l -0.025,0 0.025,0.05 c -2.65,0.05 -5.3,0.35 -7.85,0.9 -2.3,0.5 -3.7,1.85 -4.2,4 -0.1,0.4 0,0.8 0.25,1.2 C -7,1.55 -6.3,2.15 -5.4,2.5 -4.7,3.15 -3.9,3.55 -3,3.7 -1.85,3.9 -0.75,4 0.35,4 1.65,4 2.9,3.75 4.05,3.25 4.85,2.9 5.6,2.6 6.3,2.35 6.2,2.4 6.1,2.45 6,2.55 c -0.05,0.6 -0.45,1.1 -1.25,1.5 -2.65,1.3 -5.5,2 -8.55,2.1 -1.35,0.05 -2.65,0.5 -3.8,1.25 -0.95,0.65 -1.95,1.35 -2.9,2.05 0.9,-0.25 1.6,-0.4 2.25,-0.55 2.15,-0.55 4.2,-0.35 6.15,0.7 -0.05,0 -0.05,0 -0.05,-0.05 C -1.5,9.3 -0.9,8.85 -0.4,8.25 0.1,7.7 0.65,7.2 1.25,6.75 1.95,6.3 2.75,6.05 3.6,6 4.55,6 5.45,6.15 6.3,6.45 7.15,6.7 7.95,6.65 8.7,6.3 8.95,6.1 9,6.05 9.05,6 9.65,5.6 10.25,5.3 10.85,5.1 10.9,5.05 11,5.05 11.15,5 11,5.05 10.85,5.1 10.75,5.15 c 0.1,-0.1 0.2,-0.2 0.3,-0.3 C 11.4,4.4 11.75,4 12.1,3.55 12.35,3.3 12.55,3 12.75,2.7 12.8,2.65 12.8,2.6 12.85,2.55 c 0.35,-0.6 0.9,-1.05 1.6,-1.3 1.05,-0.35 2.05,-0.8 2.9,-1.45 0.05,-0.05 0.1,-0.1 0.2,-0.15 C 17.6,-0.5 17.7,-0.65 17.8,-0.8 16.9,-1.65 15.85,-2.25 14.7,-2.7 13.55,-3.15 12.4,-3.4 11.25,-3.5 11.1,-3.75 11,-3.85 10.9,-3.8 10.75,-3.75 10.65,-3.8 10.55,-3.95 10.45,-4.1 10.3,-4.15 10.1,-4.15 9.85,-4.2 9.6,-4.3 9.25,-4.45 l 0,-0.025 -0.025,-0.175 0.025,0 C 9.2,-4.6 9.15,-4.55 9.15,-4.5 9.1,-4.55 9,-4.65 8.9,-4.7 l -0.025,0 0.025,0 C 8,-5.3 5.1,-6.1 1.85,-6.55 c -0.5,-0.05 -1,-0.1 -1.7,-0.15 0,0 0,0 0.05,0 -0.75,0.05 -1.45,0.1 -2.2,0.05 -0.15,0.05 -0.3,0.1 -0.5,0.15 -0.15,0.05 -0.3,0.1 -0.4,0.2 z m 12.3,2.8 c 0.65,0.5 1.1,0.9 1.3,1.25 0.2,0.3 0.35,0.75 0.4,1.35 0.1,0.55 -0.2,1.3 -0.8,2.2 l 0.35,-1.4 c 0,0 -0.1,0.25 -0.85,1.1 C 8.95,1.8 7.35,2.5 7.35,2.5 L 8.25,2.05 7.35,2.5 8.15,1.6 C 8.8,1.05 9.2,0.65 9.3,0.4 9.4,0.15 9.55,-0.2 9.75,-0.75 9.9,-1.3 9.8,-2.25 9.3,-3.6 l 0.1,0.1 z"
           inkscape:connector-curvature="0"
           style="fill:#fd88a4" />
        <path
           id="path67"
           d="M 9.4,-3.5 9.3,-3.6 c 0.5,1.35 0.6,2.3 0.45,2.85 C 9.55,-0.2 9.4,0.15 9.3,0.4 9.2,0.65 8.8,1.05 8.15,1.6 L 7.35,2.5 8.25,2.05 7.35,2.5 c 0,0 1.6,-0.7 2.45,-1.5 0.75,-0.85 0.85,-1.1 0.85,-1.1 L 10.3,1.3 C 10.9,0.4 11.2,-0.35 11.1,-0.9 11.05,-1.5 10.9,-1.95 10.7,-2.25 10.5,-2.6 10.05,-3 9.4,-3.5 z M 3.65,-5.45 c 0.15,0 0.35,0 0.6,0.05 C 4.2,-5.45 4.1,-5.5 4,-5.5 c -0.15,0 -0.25,0 -0.35,0.05 z M 17.8,-0.8 c -0.1,0.15 -0.2,0.3 -0.25,0.45 -0.1,0.05 -0.15,0.1 -0.2,0.15 -0.85,0.65 -1.85,1.1 -2.9,1.45 -0.7,0.25 -1.25,0.7 -1.6,1.3 C 12.8,2.6 12.8,2.65 12.75,2.7 12.55,3 12.35,3.3 12.1,3.55 11.75,4 11.4,4.4 11.05,4.85 c -0.1,0.1 -0.2,0.2 -0.3,0.3 C 10.85,5.1 11,5.05 11.15,5 11,5.05 10.9,5.05 10.85,5.1 11,5 11.15,4.95 11.25,4.95 c 0.1,-0.1 0.2,-0.1 0.3,-0.1 1.2,-0.35 2.3,-0.85 3.35,-1.5 1.45,-0.85 2.4,-2 2.9,-3.5 0,-0.05 0.05,-0.25 0.1,-0.45 0.05,-0.1 0.05,-0.2 0.05,-0.3 -0.05,0.05 -0.1,0.05 -0.15,0.1 z M 8.4,6.6 8.425,6.575 8.45,6.6 C 8.45,6.55 8.5,6.5 8.5,6.55 8.55,6.45 8.65,6.35 8.75,6.3 L 8.725,6.3 8.7,6.3 C 7.95,6.65 7.15,6.7 6.3,6.45 5.45,6.15 4.55,6 3.6,6 2.75,6.05 1.95,6.3 1.25,6.75 0.65,7.2 0.1,7.7 -0.4,8.25 c -0.5,0.6 -1.1,1.05 -1.75,1.3 0,0.05 0,0.05 0.05,0.05 0.15,0.1 0.3,0.2 0.25,0.15 3.4,1.6 6,1 8.4,-1.55 C 6.6,8.15 6.65,8.15 6.7,8.1 6.75,8.1 6.75,8.1 6.75,8.05 7.3,7.6 7.85,7.15 8.4,6.6 z"
           inkscape:connector-curvature="0"
           style="fill:#de7790" />
        <path
           id="path70"
           d="M 6,2.45 6,2.4 C 5.95,2.45 5.95,2.45 5.95,2.5 6,2.45 6,2.45 6,2.45"
           inkscape:connector-curvature="0"
           style="fill:#de7790" />
        <path
           id="path78"
           d="m -19.65,6.8 c 0.05,0 0.05,0 0.1,-0.05 0.05,-0.05 0,-0.05 -0.15,0 0.05,0 0.05,0 0.05,0.05"
           inkscape:connector-curvature="0"
           style="fill:#211d1a" />
      </g>
      <g
         id="element13">
        <g
           id="drawingObject16">
          <path
             id="path79"
             d="m 16.637,0.077 c 0.425,-0.62 -0.417,-1.061 -1.112,-1.066 q -0.557,-0.04 -0.564,0.363 -0.006,0.403 0.338,0.607 c 0.473,0.28 1.109,0.483 1.338,0.096 z"
             inkscape:connector-curvature="0"
             style="fill:#998a82" />
        </g>
        <g
           id="drawingObject17">
          <path
             id="path80"
             d="m 16.739,-0.095 c 0.229,-0.388 -0.425,-0.95 -1.163,-0.98 q -0.557,-0.04 -0.538,0.32 -0.042,0.266 0.32,0.538 c 0.473,0.281 1.109,0.483 1.381,0.122 z"
             inkscape:connector-curvature="0"
             style="fill:#dbc5ba" />
        </g>
      </g>
      <g
         id="element14">
        <g
           id="drawingObject18">
          <path
             id="path81"
             d="m 14.208,-2.072 c -0.443,-0.535 -1.149,-0.52 -1.413,-0.274 q -0.486,0.435 -0.002,0.912 0.377,0.445 0.829,0.421 c 0.395,-0.065 1.078,-0.532 0.586,-1.059 z"
             inkscape:connector-curvature="0"
             style="fill:#998a82" />
        </g>
        <g
           id="drawingObject19">
          <path
             id="path82"
             d="M 14.168,-2.318 C 13.676,-2.845 13.133,-2.756 12.87,-2.51 q -0.486,0.434 -0.109,0.879 0.377,0.445 0.771,0.38 c 0.452,-0.024 1.086,-0.483 0.636,-1.067 z"
             inkscape:connector-curvature="0"
             style="fill:#dbc5ba" />
        </g>
      </g>
      <animate
         attributeName="display"
         begin="0s"
         repeatCount="indefinite"
         dur="0.75s"
         keyTimes="0;0.5;0.611;1"
         values="none;inline;none;none"
         id="animate3796" />
    </g>
    <g
       id="backSkirtD007b_1_1150">
      <g
         id="element9">
        <path
           id="path46"
           d="m 1.85,-6.55 c -0.5,-0.1 -1,-0.15 -1.55,-0.15 -0.2,0 -0.4,0 -0.6,0 -0.65,0.05 -1.35,0.1 -2.05,0.15 -0.15,0.05 -0.35,0.1 -0.5,0.15 0,0.05 0,0.05 0,0.1 0.05,0.05 0.05,0.1 0.1,0.15 0.05,0.05 0.15,0.1 0.25,0.1 0.15,0 0.3,0.05 0.45,0.1 0.05,0.05 0.1,0.05 0.15,0.05 0.05,0 0.05,0 0.1,0.05 0.05,0.05 0.05,0.05 0.1,0.05 0.35,0.05 0.7,0.05 1.05,0.1 0.35,0.05 0.75,0.1 1.1,0.15 0.85,0.1 1.65,0.1 2.5,0 0.2,-0.05 0.35,0 0.5,0.1 0.1,0 0.2,0 0.35,-0.05 0.1,0 0.2,0 0.3,0 0.05,-0.05 0.15,-0.05 0.25,-0.05 0.1,0 0.15,0.05 0.15,0.1 C 2.55,-5.2 0.6,-5 -1.35,-4.85 -3,-4.7 -4.55,-4.3 -6,-3.65 c -0.05,0.05 -0.05,0.05 -0.1,0.05 -0.1,0.15 -0.3,0.35 -0.55,0.5 -0.6,0.45 -0.95,1 -1.05,1.75 -0.3,1.7 0.4,2.95 2.05,3.75 2,0.95 4.05,1.45 6.2,1.55 l 0,-0.025 0,0.025 c 1.15,-0.1 2.3,-0.4 3.4,-0.9 0.75,-0.35 1.5,-0.7 2.1,-1.1 0,-0.05 0,-0.1 0,-0.15 0,0.05 0,0.1 0.05,0.15 C 6.2,2.5 6.15,2.95 5.9,3.4 6.1,3.3 6.3,3.25 6.45,3.2 6.3,3.25 6.15,3.3 5.85,3.5 5.55,3.85 5.1,4.15 4.45,4.4 4.1,4.55 3.8,4.6 3.45,4.65 2,4.95 0.8,5.6 -0.25,6.55 c -0.65,0.6 -1.2,1.3 -1.65,2.05 -0.75,1.35 -1.7,2.25 -2.9,2.75 3.15,0.1 5.65,-0.95 7.7,-3.05 1.85,-1.85 4,-3 6.2,-3.55 L 9.325,4.575 9.35,4.6 C 9.45,4.45 9.55,4.35 9.7,4.2 9.75,4.05 9.85,3.9 9.95,3.75 c 0.2,-0.3 0.4,-0.6 0.6,-0.9 0,-0.05 0,-0.1 0,-0.15 l 0.05,0 c 0.05,-0.05 0.05,-0.05 0.1,-0.05 l 0.05,0 c 0.65,-1.25 1.65,-2 3.05,-2.35 0.85,-0.2 1.7,-0.35 2.55,-0.5 0.55,-0.05 0.95,-0.25 1.3,-0.6 0,0.05 0,0.05 0,0.1 0.3,-0.7 0.5,-1.15 0.6,-1.35 0.05,-0.15 -0.5,-0.55 -1.65,-1.1 -1.15,-0.6 -2.35,-1 -3.65,-1.15 -1.3,-0.15 -2.1,-0.2 -2.4,-0.15 -0.35,0.05 -0.55,0 -0.6,-0.15 -0.05,-0.15 -0.2,-0.25 -0.4,-0.25 -0.05,0 -0.1,0 -0.15,0.05 C 9.35,-4.75 9.3,-4.7 9.25,-4.65 9.2,-4.6 9.15,-4.55 9.15,-4.5 9.1,-4.55 9.05,-4.55 9,-4.6 8,-5.3 5.1,-6.1 1.85,-6.55 z m 7.7,3.05 c 0.7,0.5 1.15,0.9 1.4,1.25 0.2,0.3 0.4,0.75 0.45,1.35 0.1,0.55 -0.15,1.3 -0.7,2.2 l 0.25,-1.4 c 0,0 -0.05,0.25 -0.75,1.1 C 9.4,1.8 7.8,2.5 7.8,2.5 L 8.7,2.05 7.8,2.5 8.55,1.6 c 0.65,-0.55 1,-0.95 1.1,-1.2 0.1,-0.25 0.25,-0.6 0.4,-1.15 0.1,-0.55 0,-1.5 -0.6,-2.85 l 0.1,0.1 z M -15.9,8.1 c -0.65,0.4 -1.15,0.7 -1.4,0.85 -0.25,0.15 -0.4,0.2 -0.45,0.25 1.25,-0.3 2.25,-0.4 3.15,-0.25 1,0.15 2.35,0.55 4,1.2 0.25,0.1 0.5,0.2 0.55,0.2 C -10.4,10.2 -11.3,9.7 -12.75,8.85 -14.2,7.95 -15.25,7.7 -15.9,8.1 z M -17.8,7.75 -17.825,7.775 -17.8,7.8 c -0.15,0.55 -0.25,0.95 -0.25,1.1 0,-0.05 0,-0.15 0.05,-0.25 0.15,-0.6 0.25,-0.9 0.2,-0.9 z"
           inkscape:connector-curvature="0"
           style="fill:#fd88a4" />
        <path
           id="path47"
           d="m 9.55,-3.5 -0.1,-0.1 c 0.6,1.35 0.7,2.3 0.6,2.85 C 9.9,-0.2 9.75,0.15 9.65,0.4 9.55,0.65 9.2,1.05 8.55,1.6 L 7.8,2.5 8.7,2.05 7.8,2.5 c 0,0 1.6,-0.7 2.4,-1.5 0.7,-0.85 0.75,-1.1 0.75,-1.1 L 10.7,1.3 C 11.25,0.4 11.5,-0.35 11.4,-0.9 11.35,-1.5 11.15,-1.95 10.95,-2.25 10.7,-2.6 10.25,-3 9.55,-3.5 z M 4.5,-5.45 c 0,-0.05 -0.05,-0.1 -0.15,-0.1 -0.1,0 -0.2,0 -0.25,0.05 -0.1,0 -0.2,0 -0.3,0 -0.15,0.05 -0.25,0.05 -0.35,0.05 -0.15,-0.1 -0.3,-0.15 -0.5,-0.1 -0.85,0.1 -1.65,0.1 -2.5,0 C 0.1,-5.6 -0.3,-5.65 -0.65,-5.7 -1,-5.75 -1.35,-5.75 -1.7,-5.8 c -0.05,0 -0.05,0 -0.1,-0.05 -0.05,-0.05 -0.05,-0.05 -0.1,-0.05 -0.05,0 -0.1,0 -0.15,-0.05 -0.15,-0.05 -0.3,-0.1 -0.45,-0.1 -0.1,0 -0.2,-0.05 -0.25,-0.1 -0.05,-0.05 -0.05,-0.1 -0.1,-0.15 0,-0.05 0,-0.05 0,-0.1 0.15,-0.05 0.35,-0.1 0.5,-0.15 0.7,-0.05 1.4,-0.1 2.05,-0.15 0.2,0 0.4,0 0.6,0 -0.4,-0.1 -0.85,-0.1 -1.45,-0.1 l -0.075,-0.025 0.05,0 L -1.2,-6.8 c -0.8,-0.05 -1.65,-0.05 -2.45,0 q -2.9,0.2 -5.4,2 -1.059,0.762 -1.725,1.5 l 0.025,0 c 0,0.05 0,0.05 0.05,0.05 -0.3,0.15 -0.55,0.7 -0.75,1.55 -0.05,0.1 -0.05,0.2 -0.05,0.35 -0.25,1 -0.65,1.85 -1.2,2.55 -0.55,0.65 -1.2,1.35 -1.85,2.1 -0.65,0.75 -1.45,1.65 -2.3,2.8 -0.55,0.7 -0.9,1.35 -0.85,1.4 l 0,-0.025 -0.1,0.225 c 0,0.1 0,0.1 0,0.1 L -17.825,7.775 -17.8,7.75 c 0.05,0 -0.05,0.3 -0.2,0.9 -0.05,0.1 -0.05,0.2 -0.05,0.25 0,0.2 0,0.25 0,0.3 0,0 0,0 0.05,0.05 0.1,-0.05 0.25,-0.1 0.25,-0.05 0.05,-0.05 0.2,-0.1 0.45,-0.25 0.25,-0.15 0.75,-0.45 1.4,-0.85 0.65,-0.4 1.7,-0.15 3.15,0.75 1.45,0.85 2.35,1.35 2.7,1.5 0.6,0.2 1,0.3 1.25,0.35 0.15,0.05 0.35,0.1 0.55,0.15 l -0.025,-0.025 0.4,0.1 0.025,0.025 c 0.95,0.2 1.7,0.3 2.45,0.35 0.25,0 0.3,0 0.35,0 0.2,0 0.4,0 0.25,0.05 l -0.025,-0.025 0.025,0 0,0.025 c 1.2,-0.5 2.15,-1.4 2.9,-2.75 0.45,-0.75 1,-1.45 1.65,-2.05 C 0.8,5.6 2,4.95 3.45,4.65 3.8,4.6 4.1,4.55 4.45,4.4 5.1,4.15 5.55,3.85 5.85,3.5 6.15,3.3 6.3,3.25 6.45,3.2 6.3,3.25 6.1,3.3 5.9,3.4 6.15,2.95 6.2,2.5 6.1,1.95 6.05,1.9 6.05,1.85 6.05,1.8 c 0,0.05 0,0.1 0,0.15 -0.6,0.4 -1.35,0.75 -2.1,1.1 -1.1,0.5 -2.25,0.8 -3.4,0.9 l 0,-0.025 0,0.025 C -1.6,3.85 -3.65,3.35 -5.65,2.4 -7.3,1.6 -8,0.35 -7.7,-1.35 c 0.1,-0.75 0.45,-1.3 1.05,-1.75 0.25,-0.15 0.45,-0.35 0.55,-0.5 0.05,0 0.05,0 0.1,-0.05 1.45,-0.65 3,-1.05 4.65,-1.2 C 0.6,-5 2.55,-5.2 4.5,-5.45 z m 13.15,4.65 c -0.35,0.35 -0.75,0.55 -1.3,0.6 -0.85,0.15 -1.7,0.3 -2.55,0.5 -1.4,0.35 -2.4,1.1 -3.05,2.35 l -0.05,0 c -0.05,0 -0.05,0 -0.1,0.05 l -0.05,0 c 0,0.05 0,0.1 0,0.15 -0.2,0.3 -0.4,0.6 -0.6,0.9 C 9.85,3.9 9.75,4.05 9.7,4.2 9.55,4.35 9.45,4.45 9.35,4.6 L 9.325,4.575 9.1,4.75 C 9.25,4.7 9.4,4.7 9.4,4.7 9.45,4.7 9.5,4.7 9.5,4.65 9.55,4.6 9.55,4.6 9.6,4.6 c -0.05,0 -0.05,0 -0.05,0.05 0.1,0 0.1,0 0.1,0 C 10.1,4.6 10.35,4.5 10.6,4.45 13.8,4 15.9,2.8 16.85,0.95 17.1,0.4 17.3,-0.1 17.55,-0.4 c 0,-0.2 0.05,-0.25 0.1,-0.3 0,-0.05 0,-0.05 0,-0.1 z"
           inkscape:connector-curvature="0"
           style="fill:#de7790" />
        <path
           id="path54"
           d="M 9.55,4.5 9.575,4.525 M 9.6,4.55 c 0,-0.05 0,-0.05 0,-0.1 0,0.05 0,0.05 -0.05,0.05"
           inkscape:connector-curvature="0"
           style="fill:#fd88a4" />
        <path
           id="path55"
           d="m 9.55,4.65 c 0,-0.05 0,-0.05 0.05,-0.05 -0.05,0 -0.05,0 -0.1,0.05 l 0.05,0"
           inkscape:connector-curvature="0"
           style="fill:#fd88a4" />
        <path
           id="path60"
           d="M -18,9.25 C -18.05,9.2 -18.05,9.2 -18.05,9.2 c 0,0.05 0,0.05 0,0.05 l 0.05,0"
           inkscape:connector-curvature="0"
           style="fill:#fd88a4" />
      </g>
      <g
         id="element10">
        <g
           id="drawingObject12">
          <path
             id="path61"
             d="m 16.845,-1.578 c 0.281,-0.697 -0.637,-0.946 -1.316,-0.801 q -0.553,0.082 -0.472,0.476 0.081,0.395 0.46,0.52 c 0.523,0.172 1.187,0.233 1.328,-0.195 z"
             inkscape:connector-curvature="0"
             style="fill:#998a82" />
        </g>
        <g
           id="drawingObject13">
          <path
             id="path62"
             d="m 16.907,-1.768 c 0.141,-0.427 -0.62,-0.835 -1.347,-0.706 q -0.553,0.082 -0.456,0.429 0.017,0.269 0.428,0.457 c 0.523,0.171 1.187,0.232 1.375,-0.18 z"
             inkscape:connector-curvature="0"
             style="fill:#dbc5ba" />
        </g>
      </g>
      <g
         id="element11">
        <g
           id="drawingObject14">
          <path
             id="path63"
             d="m 14.087,-3.212 c -0.547,-0.427 -1.234,-0.26 -1.439,0.037 q -0.38,0.529 0.195,0.891 0.464,0.353 0.9,0.233 c 0.372,-0.149 0.938,-0.752 0.344,-1.161 z"
             inkscape:connector-curvature="0"
             style="fill:#998a82" />
        </g>
        <g
           id="drawingObject15">
          <path
             id="path64"
             d="M 13.995,-3.444 C 13.4,-3.852 12.89,-3.648 12.686,-3.351 q -0.381,0.529 0.083,0.882 0.464,0.352 0.835,0.204 c 0.437,-0.121 0.957,-0.705 0.391,-1.179 z"
             inkscape:connector-curvature="0"
             style="fill:#dbc5ba" />
        </g>
      </g>
      <animate
         attributeName="display"
         begin="0s"
         repeatCount="indefinite"
         dur="0.75s"
         keyTimes="0;0.278;0.5;1"
         values="none;inline;none;none"
         id="animate3815" />
    </g>
    <g
       id="backSkirtD007b_1_1148">
      <g
         id="element6">
        <path
           id="path28"
           d="M 9,-4.6 C 8,-5.3 5.1,-6.1 1.85,-6.55 c -0.7,-0.1 -1.4,-0.2 -2.3,-0.25 -0.05,0 -0.05,0 -0.1,0 -0.4,0.05 -0.8,0.1 -1.2,0.15 -0.35,0 -0.75,0.05 -1.1,0.2 -0.2,0.05 -0.4,0.2 -0.55,0.35 0.9,0.25 1.85,0.35 2.85,0.4 1.2,0.05 2.4,0.15 3.6,0.3 0.2,0 0.4,0 0.6,-0.05 0.15,0 0.25,0.05 0.3,0.15 0.05,0 0.05,0 0.1,0 0.2,0.05 0.4,0.05 0.55,0.05 -0.85,0.1 -1.7,0.1 -2.6,-0.05 -1.75,0.05 -3.35,0.2 -4.8,0.45 -1.45,0.2 -2.35,0.45 -2.8,0.7 -0.45,0.25 -0.75,0.4 -1,0.55 -0.25,0.15 -0.45,0.25 -0.5,0.3 -0.05,0.05 -0.25,0.3 -0.5,0.65 -0.3,0.35 -0.5,0.95 -0.65,1.8 -0.15,0.8 0.45,1.75 1.8,2.8 1.3,1.05 3.05,1.7 5.2,2 2.15,0.3 4.5,0.4 7.05,0.25 -0.05,0 -0.1,0 -0.25,0.05 0.3,0.2 -0.1,0.5 -1.25,0.9 -1.15,0.45 -2.8,0.65 -4.95,0.7 -2.2,0 -3.6,0.45 -4.2,1.35 -0.35,0.55 -0.45,1.2 -0.4,1.9 0,0.1 0,0.2 0.05,0.35 0.8,-0.5 1.65,-0.85 2.45,-1 0.8,-0.2 1.5,-0.25 2.15,-0.1 0.6,0.1 1.4,0.35 2.45,0.8 1,0.45 1.95,0.7 2.9,0.7 0.45,0 0.9,-0.05 1.15,-0.1 L 5.875,9.725 5.85,9.7 C 5.9,9.55 6,9.45 6.15,9.3 6.3,9.2 6.4,9.1 6.5,8.95 l 0.05,0 C 6.6,8.9 6.7,8.75 6.85,8.6 6.9,8.5 6.9,8.4 6.75,8.3 7.05,7.7 7.3,7.1 7.5,6.45 7.7,5.8 7.95,5.15 8.2,4.55 8.9,3 10.1,2.1 11.75,1.85 c 0.5,0 1,0 1.55,-0.05 0.2,0 0.4,0.05 0.5,0.05 0,-0.05 0,-0.05 0.05,-0.1 C 13.9,1.7 13.95,1.7 14,1.7 c 0.05,0 0.05,0 0.1,0 0.05,0 0.05,0 0.1,0.05 1.05,-1.15 2.25,-1.9 3.7,-2.15 0,-0.6 -0.7,-1.25 -2.1,-1.9 -1.45,-0.65 -2.35,-1 -2.8,-1 -0.45,-0.05 -0.8,-0.1 -1.05,-0.15 -0.25,-0.05 -0.45,-0.15 -0.5,-0.2 -0.15,-0.2 -0.35,-0.3 -0.6,-0.3 -0.05,0 -0.15,0 -0.25,0.05 -0.1,0.05 -0.25,0.1 -0.4,0.1 C 10.05,-3.95 9.65,-4.2 9,-4.6 z m 0.15,1 0.1,0.1 c 0.65,0.5 1.05,0.9 1.25,1.25 0.2,0.3 0.35,0.75 0.4,1.35 0.05,0.55 -0.25,1.3 -0.9,2.2 l 0.4,-1.4 c 0,0 -0.1,0.25 -0.9,1.1 C 8.65,1.8 7,2.5 7,2.5 L 7.95,2.05 7,2.5 7.85,1.6 C 8.5,1.05 8.9,0.65 9.05,0.4 9.15,0.15 9.3,-0.2 9.5,-0.75 9.7,-1.3 9.6,-2.25 9.15,-3.6 z M 5.5,4.15 C 5.55,4.2 5.55,4.2 5.55,4.2 c -0.05,0 -0.15,0 -0.2,0 0.05,0 0.1,0 0.15,-0.05 z m -14.55,6 C -9.3,10.1 -9.55,10 -9.8,9.95 -9.9,9.9 -10,9.8 -10.1,9.75 -10.75,9.25 -11.25,8.6 -11.6,7.75 -11.75,7.3 -12,6 -12.3,3.9 c -0.3,-2.1 -1.3,-2.85 -2.95,-2.25 -1.65,0.55 -2.85,1.15 -3.5,1.8 -0.7,0.65 -1.05,1 -1.1,1.05 -0.05,0.05 -0.05,0.15 -0.1,0.2 0.45,-0.3 0.9,-0.45 1.4,-0.4 0.45,0 1,0.1 1.6,0.35 0.6,0.2 1.15,0.45 1.6,0.7 0.45,0.25 0.8,0.5 1.05,0.75 0.25,0.25 0.5,0.5 0.8,0.85 0.3,0.3 0.9,0.9 1.8,1.8 0.8,0.8 1.8,1.3 2.65,1.4 z"
           inkscape:connector-curvature="0"
           style="fill:#fd88a4" />
        <path
           id="path29"
           d="M 9.15,-3.6 C 9.6,-2.25 9.7,-1.3 9.5,-0.75 9.3,-0.2 9.15,0.15 9.05,0.4 8.9,0.65 8.5,1.05 7.85,1.6 L 7,2.5 7.95,2.05 7,2.5 C 7,2.5 8.65,1.8 9.5,1 10.3,0.15 10.4,-0.1 10.4,-0.1 L 10,1.3 C 10.65,0.4 10.95,-0.35 10.9,-0.9 10.85,-1.5 10.7,-1.95 10.5,-2.25 10.3,-2.6 9.9,-3 9.25,-3.5 l -0.1,-0.1 z"
           inkscape:connector-curvature="0"
           style="fill:#de7790" />
        <path
           id="path32"
           d="M 5.5,4.15 C 5.45,4.2 5.4,4.2 5.35,4.2 c 0.05,0 0.15,0 0.2,0 0,0 0,0 -0.05,-0.05 z M 2,-5.3 c 0.9,0.15 1.75,0.15 2.6,0.05 -0.15,0 -0.35,0 -0.55,-0.05 -0.05,0 -0.05,0 -0.1,0 -0.05,-0.1 -0.15,-0.15 -0.3,-0.15 -0.2,0.05 -0.4,0.05 -0.6,0.05 -1.2,-0.15 -2.4,-0.25 -3.6,-0.3 -1,-0.05 -1.95,-0.15 -2.85,-0.4 0.15,-0.15 0.35,-0.3 0.55,-0.35 0.35,-0.15 0.75,-0.2 1.1,-0.2 0.4,-0.05 0.8,-0.1 1.2,-0.15 -0.25,0 -0.55,0 -1.25,-0.05 0.1,0 0,0 -0.1,0 l -0.05,0 c -0.4,0 -1.1,0 -1.7,0.05 q -2.9,0.2 -5.4,2 -1.25,0.9 -1.95,1.75 c -1.25,0.75 -2.5,1.5 -3.85,2.35 -1.35,0.8 -2.55,1.7 -3.6,2.7 -0.8,0.7 -1.3,1.4 -1.4,2 -0.1,0.3 -0.1,0.5 -0.1,0.7 0.05,-0.05 0.05,-0.15 0.1,-0.2 0.05,-0.05 0.4,-0.4 1.1,-1.05 0.65,-0.65 1.85,-1.25 3.5,-1.8 1.65,-0.6 2.65,0.15 2.95,2.25 0.3,2.1 0.55,3.4 0.7,3.85 0.35,0.85 0.85,1.5 1.5,2 0.1,0.05 0.2,0.15 0.3,0.2 0.25,0.05 0.5,0.15 0.75,0.2 0.05,0 0.05,0 0.05,0 0.35,0.05 0.45,0.05 0.55,0.05 1.2,0.05 2.2,-0.2 2.9,-0.6 0.2,-0.15 0.25,-0.15 0.3,-0.15 0,0 0,0 0.05,0 C -5.25,9.3 -5.25,9.2 -5.25,9.1 -5.3,8.4 -5.2,7.75 -4.85,7.2 c 0.6,-0.9 2,-1.35 4.2,-1.35 C 1.5,5.8 3.15,5.6 4.3,5.15 5.45,4.75 5.85,4.45 5.55,4.25 5.7,4.2 5.75,4.2 5.8,4.2 3.25,4.35 0.9,4.25 -1.25,3.95 -3.4,3.65 -5.15,3 -6.45,1.95 c -1.35,-1.05 -1.95,-2 -1.8,-2.8 0.15,-0.85 0.35,-1.45 0.65,-1.8 0.25,-0.35 0.45,-0.6 0.5,-0.65 0.05,-0.05 0.25,-0.15 0.5,-0.3 0.25,-0.15 0.55,-0.3 1,-0.55 0.45,-0.25 1.35,-0.5 2.8,-0.7 C -1.35,-5.1 0.25,-5.25 2,-5.3 z M 13.85,1.75 C 13.8,1.8 13.8,1.8 13.8,1.85 13.7,1.85 13.5,1.8 13.3,1.8 12.75,1.85 12.25,1.85 11.75,1.85 10.1,2.1 8.9,3 8.2,4.55 7.95,5.15 7.7,5.8 7.5,6.45 7.3,7.1 7.05,7.7 6.75,8.3 6.9,8.4 6.9,8.5 6.85,8.6 6.7,8.75 6.6,8.9 6.55,8.95 l -0.05,0 C 6.4,9.1 6.3,9.2 6.15,9.3 6,9.45 5.9,9.55 5.85,9.7 L 5.875,9.725 5.9,9.75 c 0,0 0,0 0.05,0 C 6,9.75 6,9.75 6.05,9.7 6.75,9.55 7.15,9.45 7.55,9.3 8.5,8.95 9.35,8.45 10.2,7.7 11,6.95 11.95,5.5 13.1,3.35 13.35,2.9 13.6,2.45 13.9,2.1 13.95,2 14,1.9 14.05,1.95 14.1,1.9 14.2,1.85 14.3,1.8 14.25,1.75 14.25,1.75 14.2,1.75 14.15,1.7 14.15,1.7 14.1,1.7 c -0.05,0 -0.05,0 -0.1,0 -0.05,0 -0.1,0 -0.15,0.05 z"
           inkscape:connector-curvature="0"
           style="fill:#de7790" />
        <path
           id="path37"
           d="m -0.45,-6.8 c -0.05,0 -0.05,0 -0.1,0"
           inkscape:connector-curvature="0"
           style="fill:#de7790" />
      </g>
      <g
         id="element7">
        <g
           id="drawingObject8">
          <path
             id="path42"
             d="m 16.174,-0.743 c 0.289,-0.694 -0.627,-0.952 -1.307,-0.814 q -0.554,0.076 -0.477,0.472 0.077,0.396 0.455,0.524 c 0.521,0.177 1.185,0.244 1.329,-0.182 z"
             inkscape:connector-curvature="0"
             style="fill:#998a82" />
        </g>
        <g
           id="drawingObject9">
          <path
             id="path43"
             d="m 16.239,-0.932 c 0.144,-0.426 -0.612,-0.842 -1.34,-0.719 q -0.554,0.076 -0.461,0.424 0.014,0.269 0.424,0.461 c 0.521,0.177 1.185,0.244 1.377,-0.166 z"
             inkscape:connector-curvature="0"
             style="fill:#dbc5ba" />
        </g>
      </g>
      <g
         id="element8">
        <g
           id="drawingObject10">
          <path
             id="path44"
             d="m 13.427,-2.47 c -0.6,-0.35 -1.259,-0.094 -1.422,0.228 q -0.307,0.575 0.312,0.857 0.507,0.288 0.923,0.111 c 0.348,-0.197 0.83,-0.87 0.187,-1.196 z"
             inkscape:connector-curvature="0"
             style="fill:#998a82" />
        </g>
        <g
           id="drawingObject11">
          <path
             id="path45"
             d="m 13.304,-2.688 c -0.643,-0.326 -1.122,-0.055 -1.285,0.266 q -0.308,0.575 0.199,0.863 0.507,0.288 0.856,0.092 c 0.416,-0.178 0.854,-0.826 0.23,-1.221 z"
             inkscape:connector-curvature="0"
             style="fill:#dbc5ba" />
        </g>
      </g>
      <animate
         attributeName="display"
         begin="0s"
         repeatCount="indefinite"
         dur="0.75s"
         keyTimes="0;0.167;0.278;1"
         values="none;inline;none;none"
         id="animate3833" />
    </g>
    <g
       id="backSkirtD007b_1_1146">
      <g
         id="element3">
        <path
           id="path14"
           d="M 9,-4.6 C 8,-5.3 5.1,-6.1 1.85,-6.55 c -0.55,-0.1 -1.1,-0.2 -1.9,-0.2 -0.35,0.05 -0.75,0.05 -1.1,0.05 -0.55,0.05 -1.05,0.1 -1.55,0.15 -0.2,0.05 -0.35,0.1 -0.5,0.2 l 0,0.05 c 0,0.05 0,0.05 0.05,0.1 l 0,0.05 c 1.15,0.45 2.35,0.65 3.6,0.7 0.45,0.05 0.85,0.05 1.3,0.1 0.55,-0.05 1.1,-0.05 1.65,0 l 0.05,0.05 c -0.1,0 -0.2,0 -0.3,0 -0.25,0 -0.45,0 -0.7,0 0.45,0 0.95,0 1.45,0.05 -0.8,0.05 -1.6,0.05 -2.35,0.05 -2,0.15 -4,0.45 -5.95,0.9 -1.35,0.3 -2.5,0.9 -3.5,1.85 -1.2,1.1 -1.3,2.3 -0.3,3.6 0.55,0.65 1.15,1.15 1.8,1.5 -0.25,-0.1 -0.55,-0.2 -0.8,-0.3 0.65,0.3 1.3,0.55 2,0.7 0.45,0.1 0.95,0.2 1.4,0.25 0.05,0 0.15,0 0.2,0 0.25,0 0.55,0 0.85,0.05 2.45,0.55 4.9,0.7 7.35,0.55 0,-0.05 0,-0.05 0.05,-0.05 l 0,0.05 c 0.05,0 0.1,0 0.15,0 -0.05,0 -0.1,0 -0.15,0.05 C 4.6,4.3 4.25,4.6 3.65,4.8 1.4,5.45 -0.85,6 -3.15,6.35 -4.6,6.55 -5.8,7.15 -6.7,8.1 -5.4,7.85 -4.4,7.7 -3.4,7.85 -2.25,8 -1,8.4 0.4,9.15 0.9,9.45 1.4,9.65 1.55,9.7 2,9.65 2.5,9.55 3,9.4 4.15,9 4.95,8.2 5.3,7.05 5.85,5.4 7,4.5 8.7,4.25 c 0.75,0.05 1.5,0.1 2.25,0.25 0.2,0.05 0.4,0.05 0.6,0.05 0.5,0 1,-0.05 1.45,-0.15 -0.15,0.1 -0.25,0.2 -0.4,0.35 0.4,-0.4 0.75,-0.65 1.1,-0.8 0.7,-0.35 1.2,-0.6 1.5,-0.7 0.3,-0.1 0.55,-0.2 0.8,-0.35 0.2,-0.15 0.3,-0.2 0.35,-0.15 0,-0.05 0,-0.05 0,-0.1 0,-0.05 0,-0.05 0.05,-0.05 C 16.35,2.55 16.35,2.5 16.3,2.5 16.15,2.05 15.85,1.6 15.4,1.2 14.9,0.75 14.45,0.25 14,-0.25 13.2,-1.2 12.25,-1.95 11.1,-2.5 11.05,-2.75 11,-2.9 10.9,-3.05 10.75,-3.2 10.65,-3.35 10.6,-3.4 L 10.575,-3.425 10.55,-3.45 C 10.35,-3.7 9.85,-4.05 9,-4.6 z m 0.45,1.35 c 0.45,0.55 0.75,0.95 0.85,1.35 0.1,0.3 0.15,0.75 0,1.35 -0.1,0.6 -0.6,1.3 -1.5,2.15 L 9.6,0.25 c 0,0 -0.2,0.2 -1.15,1 -1.1,0.7 -2.9,1.25 -2.9,1.25 L 6.6,2.15 5.55,2.5 6.6,1.7 C 7.4,1.2 7.95,0.85 8.15,0.6 8.3,0.35 8.55,0.05 8.9,-0.5 9.25,-1.05 9.45,-2 9.35,-3.4 l 0.1,0.15 z M -14,-1.3 c -0.55,0.15 -1.1,0.25 -1.65,0.4 -1.55,0.35 -3,0.8 -4.45,1.35 -0.15,0.15 -0.25,0.25 -0.3,0.4 0.6,0.1 1.3,0.45 2.1,1.05 0.75,0.55 1.35,1.25 1.8,2 0.4,0.75 1,1.65 1.85,2.7 0.45,0.5 1.2,0.95 1.95,1.2 -0.25,-0.1 -0.45,-0.2 -0.6,-0.25 -0.2,-0.35 -0.3,-0.8 -0.25,-1.35 0.05,-1.3 0.4,-2.5 1,-3.6 0.5,-0.95 0.75,-1.95 0.7,-3 -0.35,-0.9 -1.05,-1.2 -2.15,-0.9 z"
           inkscape:connector-curvature="0"
           style="fill:#fd88a4" />
        <path
           id="path15"
           d="M 9.45,-3.25 9.35,-3.4 C 9.45,-2 9.25,-1.05 8.9,-0.5 8.55,0.05 8.3,0.35 8.15,0.6 7.95,0.85 7.4,1.2 6.6,1.7 L 5.55,2.5 6.6,2.15 5.55,2.5 c 0,0 1.8,-0.55 2.9,-1.25 0.95,-0.8 1.15,-1 1.15,-1 L 8.8,1.6 c 0.9,-0.85 1.4,-1.55 1.5,-2.15 0.15,-0.6 0.1,-1.05 0,-1.35 -0.1,-0.4 -0.4,-0.8 -0.85,-1.35 z m -7.7,-2.1 C 1.3,-5.4 0.9,-5.4 0.45,-5.45 -0.8,-5.5 -2,-5.7 -3.15,-6.15 l 0,-0.05 C -3.2,-6.25 -3.2,-6.25 -3.2,-6.3 l 0,-0.05 c 0.15,-0.1 0.3,-0.15 0.5,-0.2 0.5,-0.05 1,-0.1 1.55,-0.15 0.35,0 0.75,0 1.1,-0.05 0,0 -0.15,0 -0.3,0 -0.4,-0.05 -0.85,-0.05 -1.55,-0.1 0.1,0 0.05,0 -0.05,0 -0.5,0 -1.1,0 -1.7,0.05 q -2.9,0.2 -5.4,2 -0.466,0.335 -0.85,0.65 c -0.05,0.05 -0.1,0.05 -0.15,0.1 -0.15,0.05 -0.25,0.2 -0.3,0.35 -1.1,0.45 -2.9,1.1 -5.45,1.9 -2.05,0.65 -3.45,1.4 -4.2,2.1 -0.05,0.05 -0.1,0.1 -0.1,0.15 1.45,-0.55 2.9,-1 4.45,-1.35 0.55,-0.15 1.1,-0.25 1.65,-0.4 1.1,-0.3 1.8,0 2.15,0.9 0.05,1.05 -0.2,2.05 -0.7,3 -0.6,1.1 -0.95,2.3 -1,3.6 -0.05,0.55 0.05,1 0.25,1.35 0.15,0.05 0.35,0.15 0.6,0.25 0.65,0.15 1,0.25 1.35,0.35 1.65,0.35 3.15,0.4 4.2,0.1 C -6.95,8.2 -6.95,8.2 -6.95,8.2 -6.8,8.15 -6.65,8.1 -6.7,8.1 -5.8,7.15 -4.6,6.55 -3.15,6.35 -0.85,6 1.4,5.45 3.65,4.8 4.25,4.6 4.6,4.3 4.65,3.95 4.7,3.9 4.75,3.9 4.8,3.9 c -0.05,0 -0.1,0 -0.15,0 l 0,-0.05 C 4.6,3.85 4.6,3.85 4.6,3.9 2.15,4.05 -0.3,3.9 -2.75,3.35 -3.05,3.3 -3.35,3.3 -3.6,3.3 c -0.05,0 -0.15,0 -0.2,0 -0.45,-0.05 -0.95,-0.15 -1.4,-0.25 -0.7,-0.15 -1.35,-0.4 -2,-0.7 0.25,0.1 0.55,0.2 0.8,0.3 -0.65,-0.35 -1.25,-0.85 -1.8,-1.5 -1,-1.3 -0.9,-2.5 0.3,-3.6 1,-0.95 2.15,-1.55 3.5,-1.85 1.95,-0.45 3.95,-0.75 5.95,-0.9 0.75,0 1.55,0 2.35,-0.05 -0.5,-0.05 -1,-0.05 -1.45,-0.05 0.25,0 0.45,0 0.7,0 0.1,0 0.2,0 0.3,0 L 3.4,-5.35 C 2.85,-5.4 2.3,-5.4 1.75,-5.35 z m 9.8,9.9 c -0.2,0 -0.4,0 -0.6,-0.05 C 10.2,4.35 9.45,4.3 8.7,4.25 7,4.5 5.85,5.4 5.3,7.05 4.95,8.2 4.15,9 3,9.4 2.5,9.55 2,9.65 1.55,9.7 c 0.25,0.1 0.5,0.15 0.5,0.15 1.1,0.2 1.75,0.3 2.4,0.25 C 5.75,9.95 7,9.55 8.25,8.8 9.4,8.05 10.45,7.15 11.35,6.1 11.8,5.55 12.2,5.1 12.6,4.75 12.75,4.6 12.85,4.5 13,4.4 12.55,4.5 12.05,4.55 11.55,4.55 z"
           inkscape:connector-curvature="0"
           style="fill:#de7790" />
      </g>
      <g
         id="element4">
        <g
           id="drawingObject4">
          <path
             id="path24"
             d="M 14.568,2.519 C 15.117,2.005 14.389,1.394 13.711,1.24 Q 13.176,1.081 13.083,1.473 12.99,1.865 13.282,2.138 c 0.402,0.376 0.979,0.71 1.286,0.381 z"
             inkscape:connector-curvature="0"
             style="fill:#998a82" />
        </g>
        <g
           id="drawingObject5">
          <path
             id="path25"
             d="M 14.705,2.373 C 15.012,2.044 14.493,1.355 13.78,1.167 q -0.536,-0.159 -0.595,0.197 -0.097,0.25 0.197,0.594 c 0.402,0.376 0.979,0.71 1.323,0.415 z"
             inkscape:connector-curvature="0"
             style="fill:#dbc5ba" />
        </g>
      </g>
      <g
         id="element5">
        <g
           id="drawingObject6">
          <path
             id="path26"
             d="M 12.546,-0.281 C 12.038,-0.754 11.339,-0.647 11.11,-0.369 q -0.425,0.495 0.117,0.905 0.432,0.391 0.877,0.309 c 0.383,-0.116 0.999,-0.668 0.442,-1.126 z"
             inkscape:connector-curvature="0"
             style="fill:#998a82" />
        </g>
        <g
           id="drawingObject7">
          <path
             id="path27"
             d="m 12.474,-0.52 c -0.556,-0.459 -1.083,-0.299 -1.312,-0.021 q -0.425,0.494 0.007,0.886 0.432,0.391 0.815,0.275 C 12.429,0.538 12.997,0 12.474,-0.52 z"
             inkscape:connector-curvature="0"
             style="fill:#dbc5ba" />
        </g>
      </g>
      <animate
         attributeName="display"
         begin="0s"
         repeatCount="indefinite"
         dur="0.75s"
         keyTimes="0;0.056;0.167;1"
         values="none;inline;none;none"
         id="animate3849" />
    </g>
    <g
       id="backSkirtD007b_1_1145">
      <g
         id="element">
        <path
           id="path"
           d="M 9,-4.6 C 8,-5.3 5.1,-6.1 1.85,-6.55 c -0.5,-0.05 -1,-0.1 -1.8,-0.2 -0.25,0.05 -0.5,0.05 -0.75,0.05 -0.75,0 -1.5,0.1 -2.15,0.25 l -0.05,0 0,0.05 c 0,0.05 0,0.15 0,0.2 l 0,0.05 c 1.2,0.35 2.45,0.55 3.75,0.65 0.3,0.05 0.6,0.05 0.9,0.1 C 1.9,-5.45 2,-5.45 2.1,-5.45 c 0.35,-0.05 0.65,-0.05 0.95,0 0.05,0 0.05,0 0.1,0.05 -0.1,0 -0.2,0 -0.3,0.05 0.4,0 0.8,0 1.2,0 -0.95,0.1 -1.95,0.15 -2.95,0.1 0.2,0 0.4,0 0.6,0 -1.65,0.15 -3.35,0.35 -5,0.6 -1.95,0.3 -3.65,1.05 -5.1,2.3 -0.45,0.4 -0.8,0.9 -1,1.45 0.15,0.85 0.5,1.55 1.05,2.2 0.75,0.85 1.7,1.45 2.85,1.7 0.6,0.1 1.2,0.25 1.75,0.4 2.55,0.8 5.1,1 7.8,0.6 0,-0.05 0,-0.05 0.05,-0.05 0.1,0 0.2,-0.05 0.3,-0.1 0.05,0 0.1,0 0.15,0 0.05,0 0.15,0 0.2,0 0.1,-0.05 0.15,0 0.2,0.05 -0.55,0.65 -1.35,1.05 -2.4,1.2 -3,0.45 -6,0.6 -8.95,0.55 -0.35,0 -0.65,0.05 -1,0.15 -1.15,0.35 -2.2,0.9 -3.15,1.55 1.05,-0.1 2,-0.2 2.95,-0.35 2.25,-0.4 4.15,0.1 5.7,1.45 0.15,0.1 0.25,0.2 0.35,0.25 0.35,0.15 0.7,0.3 0.9,0.4 C -0.85,9 -1.05,8.9 -1.25,8.85 -0.5,8.8 0.25,8.5 0.95,8 1.8,7.4 2.65,6.8 3.55,6.25 4.15,5.9 4.8,5.6 5.45,5.4 c 0.85,-0.1 1.6,0 2.35,0.25 0.75,0.3 1.45,0.7 2.1,1.2 0.05,0.05 0.1,0 0.15,-0.05 0.15,0.15 0.35,0.3 0.55,0.35 0.45,0.25 0.9,0.25 1.4,0.1 0.3,-0.05 0.6,-0.1 0.9,-0.1 0.3,-0.2 0.55,-0.4 0.8,-0.6 0,0.05 0,-0.05 0,-0.15 0,-0.05 0,-0.05 0.05,-0.05 C 13.6,5.05 13.5,4 13.45,3.15 13.2,1.2 12.5,-0.5 11.25,-2 11.15,-2.1 11.1,-2.25 11.1,-2.5 11.05,-2.75 11,-2.9 10.9,-3.05 10.75,-3.2 10.65,-3.35 10.6,-3.4 L 10.575,-3.425 10.55,-3.45 C 10.35,-3.7 9.85,-4.05 9,-4.6 z m -0.05,1.1 c 0.6,0.5 0.95,0.9 1.1,1.25 0.15,0.3 0.25,0.75 0.2,1.35 0,0.55 -0.4,1.3 -1.15,2.2 l 0.55,-1.4 c 0,0 -0.1,0.25 -1,1.1 -0.95,0.8 -2.7,1.5 -2.7,1.5 l 1,-0.45 -1,0.45 L 6.9,1.6 C 7.65,1.05 8.1,0.65 8.25,0.4 8.4,0.15 8.6,-0.2 8.85,-0.75 c 0.25,-0.55 0.3,-1.5 0,-2.85 l 0.1,0.1 z m -28.7,2.2 c -0.15,0.15 -0.25,0.2 -0.35,0.25 l -0.025,0 -0.025,0 0,0.025 L -20.2,-1 c 0,0 0,0 0.05,0 l -0.05,0 0.05,0 c 0,0.05 0.1,0.15 0.25,0.25 1.05,0.6 1.75,1.5 2.2,2.65 0.25,0.65 0.4,1.35 0.55,2.05 0.2,1.35 0.8,2.3 1.55,2.7 -0.05,-0.25 -0.05,-0.55 0,-0.9 0.4,-1.65 1.2,-3.1 2.4,-4.35 0.95,-1.05 1.35,-2.2 1.15,-3.5 0,-0.15 -0.1,-0.25 -0.35,-0.25 -2.65,0.05 -5.15,0.45 -7.5,1.2 0.05,-0.05 0.1,-0.1 0.15,-0.15 z"
           inkscape:connector-curvature="0"
           style="fill:#fd88a4" />
        <path
           id="path1"
           d="m 8.95,-3.5 -0.1,-0.1 c 0.3,1.35 0.25,2.3 0,2.85 C 8.6,-0.2 8.4,0.15 8.25,0.4 8.1,0.65 7.65,1.05 6.9,1.6 l -0.95,0.9 1,-0.45 -1,0.45 c 0,0 1.75,-0.7 2.7,-1.5 0.9,-0.85 1,-1.1 1,-1.1 L 9.1,1.3 C 9.85,0.4 10.25,-0.35 10.25,-0.9 10.3,-1.5 10.2,-1.95 10.05,-2.25 9.9,-2.6 9.55,-3 8.95,-3.5 z M 1.7,-5.25 c -0.2,0 -0.4,0 -0.6,0 1,0.05 2,0 2.95,-0.1 -0.4,0 -0.8,0 -1.2,0 0.1,-0.05 0.2,-0.05 0.3,-0.05 -0.05,-0.05 -0.05,-0.05 -0.1,-0.05 -0.3,-0.05 -0.6,-0.05 -0.95,0 -0.1,0 -0.2,0 -0.35,0.05 -0.3,-0.05 -0.6,-0.05 -0.9,-0.1 -1.3,-0.1 -2.55,-0.3 -3.75,-0.65 l 0,-0.05 c 0,-0.05 0,-0.15 0,-0.2 l 0,-0.05 0.05,0 c 0.65,-0.15 1.4,-0.25 2.15,-0.25 0.25,0 0.5,0 0.75,-0.05 -0.6,-0.05 -1.3,-0.1 -2.2,-0.1 l -0.2,0 c -0.4,0.05 -0.85,0.05 -1.3,0.05 q -2.9,0.2 -5.4,2 -0.815,0.587 -1.4,1.15 c 0,0.05 0,0.05 0,0.1 -0.25,0.1 -0.55,0.15 -0.85,0.2 -2,0.25 -4,0.6 -6,1.05 -0.9,0.2 -1.8,0.55 -2.45,1 l -0.025,0 0.025,0 c -0.05,0.05 -0.1,0.1 -0.15,0.15 2.35,-0.75 4.85,-1.15 7.5,-1.2 0.25,0 0.35,0.1 0.35,0.25 0.2,1.3 -0.2,2.45 -1.15,3.5 -1.2,1.25 -2,2.7 -2.4,4.35 -0.05,0.35 -0.05,0.65 0,0.9 0.1,0.05 0.2,0.1 0.05,0.05 0.2,0.05 0.35,0.1 0.25,0.15 0.9,0.35 1.45,0.45 2.05,0.5 0.9,0 1.8,0 2.35,0 0.25,0 0.3,0 0.35,0 0.95,-0.65 2,-1.2 3.15,-1.55 0.35,-0.1 0.65,-0.15 1,-0.15 C -3.45,5.7 -0.45,5.55 2.55,5.1 3.6,4.95 4.4,4.55 4.95,3.9 4.9,3.85 4.85,3.8 4.75,3.85 c -0.05,0 -0.15,0 -0.2,0 -0.05,0 -0.1,0 -0.15,0 C 4.3,3.9 4.2,3.95 4.1,3.95 4.05,3.95 4.05,3.95 4.05,4 1.35,4.4 -1.2,4.2 -3.75,3.4 -4.3,3.25 -4.9,3.1 -5.5,3 -6.65,2.75 -7.6,2.15 -8.35,1.3 -8.9,0.65 -9.25,-0.05 -9.4,-0.9 c 0.2,-0.55 0.55,-1.05 1,-1.45 1.45,-1.25 3.15,-2 5.1,-2.3 1.65,-0.25 3.35,-0.45 5,-0.6 z M -1.25,8.85 C -1.05,8.9 -0.85,9 -0.65,9.1 0.95,9.65 2.55,9.85 4.2,9.75 6.05,9.6 7.8,9.3 9.55,8.8 10.4,8.55 11.25,8.2 12.1,7.65 12.35,7.55 12.6,7.35 12.9,7.15 12.6,7.15 12.3,7.2 12,7.25 11.5,7.4 11.05,7.4 10.6,7.15 10.4,7.1 10.2,6.95 10.05,6.8 10,6.85 9.95,6.9 9.9,6.85 9.25,6.35 8.55,5.95 7.8,5.65 7.05,5.4 6.3,5.3 5.45,5.4 4.8,5.6 4.15,5.9 3.55,6.25 2.65,6.8 1.8,7.4 0.95,8 0.25,8.5 -0.5,8.8 -1.25,8.85 z"
           inkscape:connector-curvature="0"
           style="fill:#de7790" />
      </g>
      <g
         id="element1">
        <g
           id="drawingObject">
          <path
             id="path10"
             d="M 12.03,6.258 C 12.78,6.312 12.735,5.362 12.388,4.76 Q 12.14,4.259 11.789,4.457 11.438,4.655 11.436,5.055 c -0.002,0.55 0.144,1.201 0.594,1.203 z"
             inkscape:connector-curvature="0"
             style="fill:#998a82" />
        </g>
        <g
           id="drawingObject1">
          <path
             id="path11"
             d="m 12.23,6.259 c 0.45,0.003 0.604,-0.847 0.258,-1.498 Q 12.24,4.26 11.939,4.458 11.689,4.557 11.637,5.006 c -0.003,0.55 0.143,1.201 0.593,1.253 z"
             inkscape:connector-curvature="0"
             style="fill:#dbc5ba" />
        </g>
      </g>
      <g
         id="element2">
        <g
           id="drawingObject2">
          <path
             id="path12"
             d="M 12.583,2.985 C 12.584,2.29 12.031,1.85 11.671,1.871 q -0.651,0.024 -0.584,0.7 0.006,0.583 0.368,0.854 c 0.345,0.202 1.169,0.28 1.128,-0.44 z"
             inkscape:connector-curvature="0"
             style="fill:#998a82" />
        </g>
        <g
           id="drawingObject3">
          <path
             id="path13"
             d="M 12.709,2.769 C 12.668,2.05 12.193,1.771 11.833,1.792 q -0.651,0.024 -0.645,0.607 0.006,0.583 0.351,0.785 c 0.363,0.271 1.143,0.323 1.17,-0.415 z"
             inkscape:connector-curvature="0"
             style="fill:#dbc5ba" />
        </g>
      </g>
      <animate
         attributeName="display"
         begin="0s"
         repeatCount="indefinite"
         dur="0.75s"
         keyTimes="0;0.056;1"
         values="inline;none;none"
         id="animate3865" />
    </g>
  </g>
</svg>
