<?xml version="1.0" encoding="UTF-8" standalone="no"?>
<!-- Generator: flash2svg, http://dissentgraphics.com/tools/flash2svg -->

<svg
   xmlns:dc="http://purl.org/dc/elements/1.1/"
   xmlns:cc="http://creativecommons.org/ns#"
   xmlns:rdf="http://www.w3.org/1999/02/22-rdf-syntax-ns#"
   xmlns:svg="http://www.w3.org/2000/svg"
   xmlns="http://www.w3.org/2000/svg"
   xmlns:sodipodi="http://sodipodi.sourceforge.net/DTD/sodipodi-0.dtd"
   xmlns:inkscape="http://www.inkscape.org/namespaces/inkscape"
   id="AvatarAssets"
   image-rendering="auto"
   version="1.1"
   x="0px"
   y="0px"
   width="22.76"
   height="25.00794"
   viewBox="0 0 22.76 25.00794"
   inkscape:version="0.48.4 r9939"
   sodipodi:docname="AvatarAssets_backShirtTorsoA012.svg">
  <metadata
     id="metadata3339">
    <rdf:RDF>
      <cc:Work
         rdf:about="">
        <dc:format>image/svg+xml</dc:format>
        <dc:type
           rdf:resource="http://purl.org/dc/dcmitype/StillImage" />
      </cc:Work>
    </rdf:RDF>
  </metadata>
  <sodipodi:namedview
     pagecolor="#ffffff"
     bordercolor="#666666"
     borderopacity="1"
     objecttolerance="10"
     gridtolerance="10"
     guidetolerance="10"
     inkscape:pageopacity="0"
     inkscape:pageshadow="2"
     inkscape:window-width="640"
     inkscape:window-height="480"
     id="namedview3337"
     showgrid="false"
     fit-margin-top="0"
     fit-margin-left="0"
     fit-margin-right="0"
     fit-margin-bottom="0"
     inkscape:zoom="1.9032258"
     inkscape:cx="43.349"
     inkscape:cy="-63.799"
     inkscape:window-x="0"
     inkscape:window-y="0"
     inkscape:window-maximized="0"
     inkscape:current-layer="AvatarAssets" />
  <defs
     id="defs3277" />
  <g
     id="backShirtTorsoA13"
     overflow="visible"
     style="overflow:visible"
     transform="translate(11.349,26.806941)">
    <g
       id="backShirtTorsoA012_0">
      <g
         id="element">
        <g
           id="drawingObject">
          <path
             id="path"
             d="m -5.425,-23.499 c 0,0 11.084,2 11.102,-0.35 0.019,-2.35 -3.574,-3.2 -6.726,-2.9 -3.103,0.35 -4.616,1.9 -4.616,1.9 l 1.157,-0.8 -1.157,0.8 0.24,1.35 z"
             inkscape:connector-curvature="0"
             style="fill:#ff7d7d" />
        </g>
        <g
           id="drawingObject1">
          <path
             id="path1"
             d="m -5.425,-23.499 c 0,0 8.537,1.55 10.647,0.35 q 0.507,-0.85 -0.138,-1.55 c -1.736,-1.75 -6.637,-1.55 -7.488,-1.45 -0.551,0.05 0.552,-0.3 1.955,-0.65 l -0.6,0.05 c -3.103,0.35 -4.616,1.9 -4.616,1.9 l 1.157,-0.8 -1.157,0.8 0.24,1.35 z"
             inkscape:connector-curvature="0"
             style="fill:#cc6464" />
        </g>
        <g
           id="drawingObject2">
          <path
             id="path2"
             d="m 11.351,-1.799 c 0,0 0.381,-3.85 -1.141,-7.35 -1.573,-3.45 -2.028,-9.05 -2.367,-10.45 -0.338,-1.4 -1.212,-4.75 -4.004,-5.75 q -0.098,-0.2 -0.596,-0.45 -0.946,-0.45 -2.696,-0.45 c -2.8,0 -5.259,1.05 -6.519,2.3 -1.209,1.2 -2.15,6.25 -2.518,8.55 -0.368,2.25 -2.52,8.7 -2.689,11.15 l -0.17,2.45 c 0,0 2.438,-4.7 11.535,-4.35 9.097,0.35 11.165,4.35 11.165,4.35 z"
             inkscape:connector-curvature="0"
             style="fill:#f5efe9" />
        </g>
        <g
           id="group1">
          <g
             id="drawingObject3">
            <path
               id="path3"
               d="m 7.062,-21.949 c -0.593,-0.8 -1.683,-2.15 -5.179,-2.65 -3.146,-0.45 -6.554,0.6 -8.462,1.6 l -0.46,1.2 c 0.503,-0.35 1.206,-0.7 2.108,-1.05 2.758,-1 7.857,-0.8 9.751,-0.05 1.046,0.45 2.039,1.4 2.683,2.1 l -0.441,-1.15 z"
               inkscape:connector-curvature="0"
               style="fill:#ff7d7d" />
          </g>
          <g
             id="drawingObject4">
            <path
               id="path4"
               d="m 7.938,-18.899 c -1.038,-1.55 -2.978,-2.75 -8.277,-2.85 q -4,0 -7.37,2.5 l -0.26,1.2 c 3.418,-2.3 8.173,-2.9 11.617,-2.1 2.046,0.45 3.539,1.4 4.433,2.1 l -0.143,-0.85 z"
               inkscape:connector-curvature="0"
               style="fill:#ff7d7d" />
          </g>
          <g
             id="drawingObject5">
            <path
               id="path5"
               d="m 11.411,-2.999 c -1.289,-1.4 -4.476,-3.1 -6.87,-3.85 -2.942,-0.95 -6.688,-1.4 -11.303,0.45 -2.157,0.85 -3.564,1.75 -4.47,2.55 l -0.117,2.05 c 0,0 2.438,-4.7 11.535,-4.35 9.097,0.35 11.165,4.35 11.165,4.35 l 0.06,-1.2 z"
               inkscape:connector-curvature="0"
               style="fill:#ff7d7d" />
          </g>
          <g
             id="drawingObject6">
            <path
               id="path6"
               d="m 9.915,-9.749 -0.391,-1.2 -0.545,-0.65 c -1.685,-1.8 -6.622,-3.45 -10.222,-3.4 q -2.701,0.05 -8.126,3.25 l -0.772,2.75 c 0.705,-0.65 1.761,-1.45 3.468,-2.35 3.064,-1.65 7.418,-2.2 11.26,-1.2 2.395,0.65 4.285,1.9 5.328,2.8 z"
               inkscape:connector-curvature="0"
               style="fill:#ff7d7d" />
          </g>
          <g
             id="drawingObject7">
            <path
               id="path7"
               d="m 7.317,-16.349 c -1.438,-1.4 -4.78,-2.4 -7.782,-2.25 q -1.55,0.05 -3.957,0.9 -2.206,0.75 -3.913,1.65 l -0.519,2.4 c 0.653,-0.45 1.658,-1 3.515,-1.9 3.463,-1.6 7.41,-1.25 9.954,-0.45 1.695,0.55 3.384,1.95 4.328,2.75 l -0.194,-0.8 c -0.146,-0.5 -0.489,-1.35 -1.432,-2.3 z"
               inkscape:connector-curvature="0"
               style="fill:#ff7d7d" />
          </g>
          <g
             id="drawingObject8">
            <path
               id="path8"
               d="m 11.228,-5.199 c -0.045,-0.65 -0.189,-1.35 -0.383,-2.05 -0.496,-0.55 -1.191,-1.2 -2.235,-1.9 -2.635,-1.85 -6.085,-1.95 -10.336,-1.75 -3.201,0.15 -6.971,2.55 -8.983,4.15 l -0.259,1.1 c 0.755,-0.6 2.011,-1.35 4.269,-2.4 3.814,-1.75 7.915,-1.85 12.006,-0.75 q 3.093,0.9 5.921,3.6 z"
               inkscape:connector-curvature="0"
               style="fill:#ff7d7d" />
          </g>
        </g>
        <g
           id="drawingObject9">
          <path
             id="path9"
             d="m 11.37,-4.149 q -0.228,-2.8 -1.16,-5 c -1.376,-3.05 -1.889,-7.7 -2.272,-9.75 -0.108,1 -0.217,2.1 -0.123,2.8 0.138,1.55 -0.022,2.8 1.503,5.9 1.575,3.15 -2.821,2.65 -7.359,1.1 -4.487,-1.55 -6.802,0.3 -7.142,-0.9 -0.34,-1.25 1.573,-2.95 5.282,-4 2.606,-0.75 4.699,0.1 5.644,0.65 l -1.79,-1.2 c -2.438,-1.55 -5.444,-0.7 -5.444,-0.7 l 1.802,-0.25 -1.802,0.25 0.552,-0.35 c 0.503,-0.35 4.204,-0.5 4.204,-0.5 l -2.295,-0.55 -2.849,-0.1 2.849,0.1 c -2.246,-0.5 -4.006,0.7 -4.189,-1.4 -0.134,-2.05 1.435,-4.35 2.493,-5.4 0.706,-0.7 3.211,-1.3 5.363,-1.55 l -0.798,-0.35 c 0,0 -0.492,-0.9 -3.292,-0.9 -2.8,0 -5.259,1.05 -6.519,2.3 -1.209,1.2 -2.15,6.25 -2.518,8.55 -0.368,2.25 -2.52,8.7 -2.689,11.15 l -0.17,2.45 c 0,0 2.438,-4.7 11.535,-4.35 9.097,0.35 11.165,4.35 11.165,4.35 q 0.108,-0.95 0.019,-2.35 z"
             inkscape:connector-curvature="0"
             style="fill:#c4bfba" />
        </g>
        <g
           id="group2">
          <g
             id="drawingObject10">
            <path
               id="path10"
               d="m -1.243,-14.999 c -2.401,0.05 -5.916,1.95 -8.126,3.25 l -0.772,2.75 c 0.705,-0.65 1.761,-1.45 3.468,-2.35 1.004,-0.5 2.108,-0.9 3.31,-1.2 0.854,-0.55 2.008,-1.05 3.462,-1.45 2.606,-0.75 4.699,0.1 5.644,0.65 l -0.696,-0.45 c -1.994,-0.75 -4.34,-1.2 -6.29,-1.2 z"
               inkscape:connector-curvature="0"
               style="fill:#cc6464" />
          </g>
          <g
             id="drawingObject11">
            <path
               id="path11"
               d="m -3.219,-18.099 c -1.804,0.5 -3.76,1.3 -5.116,2.05 l -0.519,2.4 q 0.955,-0.65 3.515,-1.9 c 1.857,-0.85 3.909,-1.15 5.609,-1.1 l 0,-0.025 -2.149,-0.075 c -0.85,-0.05 -1.297,-0.45 -1.34,-1.3 l 0,-0.05 z"
               inkscape:connector-curvature="0"
               style="fill:#cc6464" />
          </g>
          <g
             id="drawingObject12">
            <path
               id="path12"
               d="m 11.411,-2.999 c -1.289,-1.4 -4.476,-3.1 -6.87,-3.85 -2.942,-0.95 -6.688,-1.4 -11.303,0.45 -2.157,0.85 -3.564,1.75 -4.47,2.55 l -0.117,2.05 c 0,0 2.438,-4.7 11.535,-4.35 9.097,0.35 11.165,4.35 11.165,4.35 l 0.06,-1.2 z"
               inkscape:connector-curvature="0"
               style="fill:#cc6464" />
          </g>
          <g
             id="drawingObject13">
            <path
               id="path13"
               d="m -7.709,-19.249 -0.26,1.2 q 2.262,-1.5 5.116,-2.05 c 0.205,-0.55 0.459,-1.05 0.712,-1.5 -2.502,0.35 -4.412,1.5 -5.568,2.35 z"
               inkscape:connector-curvature="0"
               style="fill:#cc6464" />
          </g>
          <g
             id="drawingObject14">
            <path
               id="path14"
               d="m 7.813,-15.799 0.186,1.75 0.944,0.8 -0.194,-0.8 c -0.147,-0.4 -0.342,-1 -0.936,-1.75 z"
               inkscape:connector-curvature="0"
               style="fill:#cc6464" />
          </g>
          <g
             id="drawingObject15">
            <path
               id="path15"
               d="m 1.883,-24.599 c -3.146,-0.45 -6.554,0.6 -8.462,1.6 l -0.46,1.2 c 0.503,-0.35 1.206,-0.7 2.108,-1.05 1.154,-0.45 2.756,-0.65 4.356,-0.7 0.503,-0.35 1.506,-0.75 2.708,-1 l -0.25,-0.05 z"
               inkscape:connector-curvature="0"
               style="fill:#cc6464" />
          </g>
          <g
             id="drawingObject16">
            <path
               id="path16"
               d="m 8.979,-11.599 -0.446,-0.4 0.736,1.75 0.646,0.5 -0.391,-1.2 -0.545,-0.65 z"
               inkscape:connector-curvature="0"
               style="fill:#cc6464" />
          </g>
          <g
             id="drawingObject17">
            <path
               id="path17"
               d="m 11.228,-5.199 c -0.045,-0.65 -0.189,-1.35 -0.383,-2.05 q -0.446,-0.5 -1.34,-1.25 c -0.304,0.45 -1.006,0.65 -1.955,0.6 1.593,0.85 2.884,1.95 3.678,2.7 z"
               inkscape:connector-curvature="0"
               style="fill:#cc6464" />
          </g>
          <g
             id="drawingObject18">
            <path
               id="path18"
               d="m -6.699,-8.049 c 2.358,-1.05 4.762,-1.5 7.212,-1.45 q -1.798,-0.35 -4.05,-0.1 -1.501,0.15 -1.646,-0.4 l 0,-0.05 c -2.157,0.85 -4.218,2.25 -5.526,3.3 l -0.259,1.1 c 0.755,-0.6 2.011,-1.35 4.269,-2.4 z"
               inkscape:connector-curvature="0"
               style="fill:#cc6464" />
          </g>
        </g>
        <g
           id="drawingObject19">
          <path
             id="path19"
             d="m 3.392,-25.699 c -0.448,-0.25 -1.295,-0.55 -2.845,-0.55 -2.8,0 -5.259,1.05 -6.519,2.3 -1.209,1.2 -2.15,6.25 -2.518,8.55 -0.368,2.25 -2.52,8.7 -2.689,11.15 l -0.17,2.45 c 0,0 2.438,-4.7 11.535,-4.35 9.097,0.35 11.165,4.35 11.165,4.35 l 0.056,-0.7 c -0.894,-0.75 -2.636,-1.85 -5.974,-3.3 -7.822,-3.5 -13.106,0.7 -13.106,0.7 l 1.41,-1.25 c 1.41,-1.2 7.713,-1.55 7.713,-1.55 l -3.699,-0.2 c -3.648,-0.15 -5.251,0.2 -5.029,-2.6 0.173,-2.8 3.185,-4.35 3.185,-4.35 l -0.551,0.15 c -0.502,0.2 -2.097,-0.35 -2.078,-2.8 0.019,-2.4 1.981,-3.8 3.897,-5.9 1.362,-1.45 3.767,-2.05 6.217,-2.1 z"
             inkscape:connector-curvature="0"
             style="fill:#a4a09c" />
        </g>
        <g
           id="group3">
          <g
             id="drawingObject20">
            <path
               id="path20"
               d="m -8.335,-16.049 -0.519,2.4 q 1.105,-0.7 3.013,-1.65 c -0.348,-0.3 -0.694,-0.8 -0.787,-1.6 l -1.707,0.85 z"
               inkscape:connector-curvature="0"
               style="fill:#ab5454" />
          </g>
          <g
             id="drawingObject21">
            <path
               id="path21"
               d="m -5.955,-13.549 c -1.254,0.55 -2.46,1.25 -3.414,1.8 l -0.772,2.75 c 0.604,-0.6 1.56,-1.25 2.916,-2.05 0.158,-1 0.665,-1.85 1.27,-2.5 z"
               inkscape:connector-curvature="0"
               style="fill:#ab5454" />
          </g>
          <g
             id="drawingObject22">
            <path
               id="path22"
               d="m -11.349,-1.799 c 0,0 2.438,-4.7 11.535,-4.35 9.097,0.35 11.165,4.35 11.165,4.35 l 0.056,-0.7 c -0.894,-0.75 -2.636,-1.85 -5.974,-3.3 -7.822,-3.5 -13.106,0.7 -13.106,0.7 l 1.41,-1.25 c 0.756,-0.65 2.809,-1.05 4.66,-1.25 -1.6,0.1 -3.303,0.45 -5.159,1.2 -2.157,0.85 -3.564,1.75 -4.47,2.55 l -0.117,2.05 z"
               inkscape:connector-curvature="0"
               style="fill:#ab5454" />
          </g>
          <g
             id="drawingObject23">
            <path
               id="path23"
               d="m -7.709,-19.249 -0.26,1.2 1.457,-0.85 c 0.204,-0.55 0.459,-1.1 0.863,-1.6 -0.854,0.4 -1.557,0.85 -2.06,1.25 z"
               inkscape:connector-curvature="0"
               style="fill:#ab5454" />
          </g>
          <g
             id="drawingObject24">
            <path
               id="path24"
               d="m -6.699,-8.049 0.752,-0.3 q -0.898,-0.25 -1.143,-0.8 c -1.456,0.75 -2.713,1.65 -3.619,2.4 l -0.259,1.1 c 0.755,-0.6 2.011,-1.35 4.269,-2.4 z"
               inkscape:connector-curvature="0"
               style="fill:#ab5454" />
          </g>
          <g
             id="drawingObject25">
            <path
               id="path25"
               d="m -6.579,-22.999 -0.46,1.2 q 0.754,-0.5 2.108,-1.05 c 0.502,-0.2 1.153,-0.35 1.854,-0.45 l 0.252,-0.3 c 0.354,-0.4 0.806,-0.7 1.258,-0.95 -1.952,0.25 -3.807,0.9 -5.012,1.55 z"
               inkscape:connector-curvature="0"
               style="fill:#ab5454" />
          </g>
        </g>
      </g>
    </g>
  </g>
</svg>
