<?xml version="1.0" encoding="UTF-8" standalone="no"?>
<!-- Generator: flash2svg, http://dissentgraphics.com/tools/flash2svg -->

<svg
   xmlns:dc="http://purl.org/dc/elements/1.1/"
   xmlns:cc="http://creativecommons.org/ns#"
   xmlns:rdf="http://www.w3.org/1999/02/22-rdf-syntax-ns#"
   xmlns:svg="http://www.w3.org/2000/svg"
   xmlns="http://www.w3.org/2000/svg"
   xmlns:sodipodi="http://sodipodi.sourceforge.net/DTD/sodipodi-0.dtd"
   xmlns:inkscape="http://www.inkscape.org/namespaces/inkscape"
   id="AvatarAssets"
   image-rendering="auto"
   version="1.1"
   x="0px"
   y="0px"
   width="24.15"
   height="24.700001"
   viewBox="0 0 24.15 24.700001"
   inkscape:version="0.48.4 r9939"
   sodipodi:docname="AvatarAssets_backShirtTorso20101122Blouse.svg">
  <metadata
     id="metadata3282">
    <rdf:RDF>
      <cc:Work
         rdf:about="">
        <dc:format>image/svg+xml</dc:format>
        <dc:type
           rdf:resource="http://purl.org/dc/dcmitype/StillImage" />
      </cc:Work>
    </rdf:RDF>
  </metadata>
  <sodipodi:namedview
     pagecolor="#ffffff"
     bordercolor="#666666"
     borderopacity="1"
     objecttolerance="10"
     gridtolerance="10"
     guidetolerance="10"
     inkscape:pageopacity="0"
     inkscape:pageshadow="2"
     inkscape:window-width="640"
     inkscape:window-height="480"
     id="namedview3280"
     showgrid="false"
     fit-margin-top="0"
     fit-margin-left="0"
     fit-margin-right="0"
     fit-margin-bottom="0"
     inkscape:zoom="1.9032258"
     inkscape:cx="44.15"
     inkscape:cy="-64.05"
     inkscape:window-x="0"
     inkscape:window-y="0"
     inkscape:window-maximized="0"
     inkscape:current-layer="AvatarAssets" />
  <defs
     id="defs3249" />
  <g
     id="backShirtTorso20101122Blouse1"
     overflow="visible"
     style="overflow:visible"
     transform="translate(12.15,26.75)">
    <g
       id="backShirtTorso20101122Blouse_2_1">
      <g
         id="element3">
        <path
           id="path80"
           d="M 4.6,-25.1 C 4.55,-25.15 4.55,-25.15 4.5,-25.2 4.45,-25.25 4.35,-25.3 4.3,-25.35 3.15,-26.2 1.9,-26.7 0.6,-26.75 l 4.6,8.7 c -1.55,0.65 -2.15,1.8 -3.75,2 -1.55,0.15 -3.1,-0.2 -4.6,-0.2 -1.65,0.05 -2.2,1.15 -3.35,2.05 -1.35,1.05 -1.95,1.8 -2.15,3.7 -0.15,1.45 -0.15,3.05 0.8,3.95 0.95,0.9 2.4,0.65 3.7,0.65 l 2.15,0 c 1,-0.1 1.8,-0.8 2.65,-0.8 0.45,0.05 1.35,0.65 1.85,0.8 0.8,0.25 1.7,0.35 2.5,0.55 1.35,0.35 2.25,0.6 2.75,0.75 0.95,0.35 1.75,0.75 2.4,1.25 0.05,0.05 0.05,0.05 0.1,0.1 l 0.6,0.35 1.15,0.85 C 11.95,-2.3 11.85,-2.5 11.8,-2.7 L 11.15,-3.4 C 10.15,-4.45 8.75,-5.2 7.5,-5.7 6,-6.35 4.55,-6.7 3,-7.05 2.25,-7.25 1.5,-8.15 0.85,-8.2 c -0.95,-0.1 -1,0.9 -1.55,1.25 -1,0.7 -4.05,0.7 -5,-0.2 -0.75,-0.7 -0.05,-0.5 -0.3,-1.4 -0.05,-0.35 -0.4,-0.5 -0.45,-0.85 -0.2,-1.1 -0.1,-1 0.6,-1.85 1.05,-1.15 1.85,-2.45 3.5,-2.8 1.65,-0.4 2.9,-0.85 4.55,-1.3 1.75,-0.45 2.2,-0.8 3.15,-2.2 0.7,-1.05 1.5,-2.6 1,-3.85 l 0.1,-0.2 0.45,-0.6 c -0.05,-0.15 -0.1,-0.3 -0.2,-0.55 0.05,0.05 0,-0.05 -0.05,-0.1 L 6.6,-22.9 C 6.55,-22.95 6.55,-23 6.5,-23.05 6.45,-23.1 6.45,-23.15 6.4,-23.2 5.9,-23.9 5.3,-24.55 4.6,-25.1 z"
           inkscape:connector-curvature="0"
           style="fill:#5e5e5e" />
        <path
           id="path81"
           d="m 6.7,-22.75 c 0.1,0.25 0.15,0.4 0.2,0.55 l -0.45,0.6 0.05,0.05 c 0.5,0.65 0.5,3.5 0.35,4.3 -0.2,1.2 -1.35,1.55 -2.3,2.25 -0.9,0.7 -2.1,1.15 -3.2,1.45 -1,0.25 -2.9,0.05 -3.05,1.45 -1.15,-0.05 -2,0.25 -2.55,1.35 0.6,0 1.5,-0.2 1.75,0.5 l -0.8,0.05 c 0.35,0.35 1.95,0.9 2.45,0.5 0.5,-0.4 0.3,-1.65 0.55,-2.2 0.3,0.55 0.55,1.7 1.15,2 0.55,0.3 1.9,-0.05 2.5,0 C 6,-9.75 6.8,-8.35 8.6,-6.95 L 8.85,-7.3 c 0.2,0.25 0.4,0.8 0.7,1.1 0.4,0.35 0.85,0.3 1.25,0.65 l 0.05,0.1 0.95,2.75 c -0.55,-1.75 -1,-3 -1.3,-3.7 C 10,-7.55 8,-14.9 7.85,-17.05 c -0.2,-2.6 -0.5,-4.35 -1.15,-5.7 z m -10.6,-2.6 c -0.1,0.05 -0.25,0.2 -0.4,0.4 0.3,-0.3 0.65,-0.55 1,-0.75 0.2,-0.15 0.4,-0.3 0.55,-0.3 -0.4,0.15 -0.8,0.4 -1.15,0.65 z"
           inkscape:connector-curvature="0"
           style="fill:#858585" />
        <path
           id="path82"
           d="m 6.45,-21.6 -0.1,0.2 c 0.5,1.25 -0.3,2.8 -1,3.85 -0.95,1.4 -1.4,1.75 -3.15,2.2 -1.65,0.45 -2.9,0.9 -4.55,1.3 -1.65,0.35 -2.45,1.65 -3.5,2.8 -0.7,0.85 -0.8,0.75 -0.6,1.85 0.05,0.35 0.4,0.5 0.45,0.85 0.25,0.9 -0.45,0.7 0.3,1.4 0.95,0.9 4,0.9 5,0.2 0.55,-0.35 0.6,-1.35 1.55,-1.25 0.65,0.05 1.4,0.95 2.15,1.15 1.55,0.35 3,0.7 4.5,1.35 1.25,0.5 2.65,1.25 3.65,2.3 l 0.65,0.7 -0.95,-2.75 -0.05,-0.1 C 10.4,-5.9 9.95,-5.85 9.55,-6.2 9.25,-6.5 9.05,-7.05 8.85,-7.3 L 8.6,-6.95 C 6.8,-8.35 6,-9.75 3.35,-9.9 c -0.6,-0.05 -1.95,0.3 -2.5,0 -0.6,-0.3 -0.85,-1.45 -1.15,-2 -0.25,0.55 -0.05,1.8 -0.55,2.2 -0.5,0.4 -2.1,-0.15 -2.45,-0.5 l 0.8,-0.05 c -0.25,-0.7 -1.15,-0.5 -1.75,-0.5 0.55,-1.1 1.4,-1.4 2.55,-1.35 0.15,-1.4 2.05,-1.2 3.05,-1.45 1.1,-0.3 2.3,-0.75 3.2,-1.45 0.95,-0.7 2.1,-1.05 2.3,-2.25 C 7,-18.05 7,-20.9 6.5,-21.55 L 6.45,-21.6 z"
           inkscape:connector-curvature="0"
           style="fill:#787878" />
        <path
           id="path83"
           d="m 1.45,-16.05 c 1.6,-0.2 2.2,-1.35 3.75,-2 l -4.6,-8.7 c -0.2,0 -0.4,0 -0.6,0 l -1.75,0.35 c -0.2,0.05 -0.4,0.15 -0.75,0.3 l -0.25,0.1 c -0.15,0 -0.35,0.15 -0.55,0.3 -0.35,0.2 -0.7,0.45 -1,0.75 -0.15,0.15 -0.35,0.3 -0.5,0.45 -0.15,0.15 -0.3,0.35 -0.45,0.55 l -0.15,0.15 c -0.05,0 -0.05,0 -0.05,0.05 -0.05,0.05 -0.15,0.15 -0.2,0.2 q -1.5,1.5 -1.65,4.15 c -0.2,2.35 -2,7.5 -2.5,9.35 -0.5,1.8 -1.7,6.3 -2,6.8 l -0.35,0.5 c 0,0 1.35,0 2.65,-0.8 1.35,-0.85 6.35,-1.7 11.2,-1.5 2.2,0.05 4.2,0.35 5.95,0.8 l 1.1,0.35 c 0.55,0.2 1.05,0.4 1.5,0.65 C 10.2,-3.3 10.2,-3.3 10.15,-3.35 9.5,-3.85 8.7,-4.25 7.75,-4.6 7.25,-4.75 6.35,-5 5,-5.35 4.2,-5.55 3.3,-5.65 2.5,-5.9 2,-6.05 1.1,-6.65 0.65,-6.7 -0.2,-6.7 -1,-6 -2,-5.9 l -2.15,0 c -1.3,0 -2.75,0.25 -3.7,-0.65 -0.95,-0.9 -0.95,-2.5 -0.8,-3.95 0.2,-1.9 0.8,-2.65 2.15,-3.7 1.15,-0.9 1.7,-2 3.35,-2.05 1.5,0 3.05,0.35 4.6,0.2 z"
           inkscape:connector-curvature="0"
           style="fill:#454545" />
      </g>
    </g>
    <g
       id="backShirtTorso20101122Blouse_2_0">
      <g
         id="element2">
        <path
           id="path74"
           d="M 4.6,-25.1 C 4.55,-25.15 4.55,-25.15 4.5,-25.2 4.45,-25.25 4.35,-25.3 4.3,-25.35 3.15,-26.2 1.9,-26.7 0.6,-26.75 l 4.6,8.7 c -1.55,0.65 -2.15,1.8 -3.75,2 -1.55,0.15 -3.1,-0.2 -4.6,-0.2 -1.65,0.05 -2.2,1.15 -3.35,2.05 -1.35,1.05 -1.95,1.8 -2.15,3.7 -0.15,1.45 -0.15,3.05 0.8,3.95 0.95,0.9 2.4,0.65 3.7,0.65 l 2.15,0 c 1,-0.1 1.8,-0.8 2.65,-0.8 0.45,0.05 1.35,0.65 1.85,0.8 0.8,0.25 1.7,0.35 2.5,0.55 1.35,0.35 2.25,0.6 2.75,0.75 0.95,0.35 1.75,0.75 2.4,1.25 0.05,0.05 0.05,0.05 0.1,0.1 l 0.6,0.35 1.15,0.85 C 11.95,-2.3 11.85,-2.5 11.8,-2.7 L 11.15,-3.4 C 10.15,-4.45 8.75,-5.2 7.5,-5.7 6,-6.35 4.55,-6.7 3,-7.05 2.25,-7.25 1.5,-8.15 0.85,-8.2 c -0.95,-0.1 -1,0.9 -1.55,1.25 -1,0.7 -4.05,0.7 -5,-0.2 -0.75,-0.7 -0.05,-0.5 -0.3,-1.4 -0.05,-0.35 -0.4,-0.5 -0.45,-0.85 -0.2,-1.1 -0.1,-1 0.6,-1.85 1.05,-1.15 1.85,-2.45 3.5,-2.8 1.65,-0.4 2.9,-0.85 4.55,-1.3 1.75,-0.45 2.2,-0.8 3.15,-2.2 0.7,-1.05 1.5,-2.6 1,-3.85 l 0.1,-0.2 0.45,-0.6 c -0.05,-0.15 -0.1,-0.3 -0.2,-0.55 0.05,0.05 0,-0.05 -0.05,-0.1 L 6.6,-22.9 C 6.55,-22.95 6.55,-23 6.5,-23.05 6.45,-23.1 6.45,-23.15 6.4,-23.2 5.9,-23.9 5.3,-24.55 4.6,-25.1 z"
           inkscape:connector-curvature="0"
           style="fill:#5e5e5e" />
        <path
           id="path75"
           d="m 6.7,-22.75 c 0.1,0.25 0.15,0.4 0.2,0.55 l -0.45,0.6 0.05,0.05 c 0.5,0.65 0.5,3.5 0.35,4.3 -0.2,1.2 -1.35,1.55 -2.3,2.25 -0.9,0.7 -2.1,1.15 -3.2,1.45 -1,0.25 -2.9,0.05 -3.05,1.45 -1.15,-0.05 -2,0.25 -2.55,1.35 0.6,0 1.5,-0.2 1.75,0.5 l -0.8,0.05 c 0.35,0.35 1.95,0.9 2.45,0.5 0.5,-0.4 0.3,-1.65 0.55,-2.2 0.3,0.55 0.55,1.7 1.15,2 0.55,0.3 1.9,-0.05 2.5,0 C 6,-9.75 6.8,-8.35 8.6,-6.95 L 8.85,-7.3 c 0.2,0.25 0.4,0.8 0.7,1.1 0.4,0.35 0.85,0.3 1.25,0.65 l 0.05,0.1 0.95,2.75 c -0.55,-1.75 -1,-3 -1.3,-3.7 C 10,-7.55 8,-14.9 7.85,-17.05 c -0.2,-2.6 -0.5,-4.35 -1.15,-5.7 z m -10.6,-2.6 c -0.1,0.05 -0.25,0.2 -0.4,0.4 0.3,-0.3 0.65,-0.55 1,-0.75 0.2,-0.15 0.4,-0.3 0.55,-0.3 -0.4,0.15 -0.8,0.4 -1.15,0.65 z"
           inkscape:connector-curvature="0"
           style="fill:#858585" />
        <path
           id="path76"
           d="m 6.45,-21.6 -0.1,0.2 c 0.5,1.25 -0.3,2.8 -1,3.85 -0.95,1.4 -1.4,1.75 -3.15,2.2 -1.65,0.45 -2.9,0.9 -4.55,1.3 -1.65,0.35 -2.45,1.65 -3.5,2.8 -0.7,0.85 -0.8,0.75 -0.6,1.85 0.05,0.35 0.4,0.5 0.45,0.85 0.25,0.9 -0.45,0.7 0.3,1.4 0.95,0.9 4,0.9 5,0.2 0.55,-0.35 0.6,-1.35 1.55,-1.25 0.65,0.05 1.4,0.95 2.15,1.15 1.55,0.35 3,0.7 4.5,1.35 1.25,0.5 2.65,1.25 3.65,2.3 l 0.65,0.7 -0.95,-2.75 -0.05,-0.1 C 10.4,-5.9 9.95,-5.85 9.55,-6.2 9.25,-6.5 9.05,-7.05 8.85,-7.3 L 8.6,-6.95 C 6.8,-8.35 6,-9.75 3.35,-9.9 c -0.6,-0.05 -1.95,0.3 -2.5,0 -0.6,-0.3 -0.85,-1.45 -1.15,-2 -0.25,0.55 -0.05,1.8 -0.55,2.2 -0.5,0.4 -2.1,-0.15 -2.45,-0.5 l 0.8,-0.05 c -0.25,-0.7 -1.15,-0.5 -1.75,-0.5 0.55,-1.1 1.4,-1.4 2.55,-1.35 0.15,-1.4 2.05,-1.2 3.05,-1.45 1.1,-0.3 2.3,-0.75 3.2,-1.45 0.95,-0.7 2.1,-1.05 2.3,-2.25 C 7,-18.05 7,-20.9 6.5,-21.55 L 6.45,-21.6 z"
           inkscape:connector-curvature="0"
           style="fill:#787878" />
        <path
           id="path77"
           d="m 1.45,-16.05 c 1.6,-0.2 2.2,-1.35 3.75,-2 l -4.6,-8.7 c -0.2,0 -0.4,0 -0.6,0 l -1.75,0.35 c -0.2,0.05 -0.4,0.15 -0.75,0.3 l -0.25,0.1 c -0.15,0 -0.35,0.15 -0.55,0.3 -0.35,0.2 -0.7,0.45 -1,0.75 -0.15,0.15 -0.35,0.3 -0.5,0.45 -0.15,0.15 -0.3,0.35 -0.45,0.55 l -0.15,0.15 c -0.05,0 -0.05,0 -0.05,0.05 -0.05,0.05 -0.15,0.15 -0.2,0.2 q -1.5,1.5 -1.65,4.15 c -0.2,2.35 -2,7.5 -2.5,9.35 -0.5,1.8 -1.7,6.3 -2,6.8 l -0.35,0.5 c 0,0 1.35,0 2.65,-0.8 1.35,-0.85 6.35,-1.7 11.2,-1.5 2.2,0.05 4.2,0.35 5.95,0.8 l 1.1,0.35 c 0.55,0.2 1.05,0.4 1.5,0.65 C 10.2,-3.3 10.2,-3.3 10.15,-3.35 9.5,-3.85 8.7,-4.25 7.75,-4.6 7.25,-4.75 6.35,-5 5,-5.35 4.2,-5.55 3.3,-5.65 2.5,-5.9 2,-6.05 1.1,-6.65 0.65,-6.7 -0.2,-6.7 -1,-6 -2,-5.9 l -2.15,0 c -1.3,0 -2.75,0.25 -3.7,-0.65 -0.95,-0.9 -0.95,-2.5 -0.8,-3.95 0.2,-1.9 0.8,-2.65 2.15,-3.7 1.15,-0.9 1.7,-2 3.35,-2.05 1.5,0 3.05,0.35 4.6,0.2 z"
           inkscape:connector-curvature="0"
           style="fill:#454545" />
      </g>
    </g>
    <g
       id="backShirtTorso20101122Blouse_1_1">
      <g
         id="element1">
        <path
           id="path37"
           d="m 3.15,-26.45 c -0.65,-0.2 -1.55,-0.3 -2.9,-0.25 l -3.1,0.4 c -0.2,0.05 -0.4,0.1 -0.85,0.2 l -0.5,0.15 0.05,0.05 2.2,0.05 c 1.1,-0.3 1.95,-0.6 3.15,-0.7 0.5,0 1.3,0.1 1.95,0.1 z m -5.25,1.4 c 1.55,-0.5 3.55,-0.35 5.1,-0.5 -1.35,-0.5 -3.35,0.2 -4.8,-0.2 l -0.45,0.4 c -1.05,-0.2 -1.75,0.4 -2.65,0.85 l -0.15,0.05 -0.15,0.1 -0.1,-0.1 -0.3,0.05 0.2,0.55 c -0.8,1 -2.35,2.55 -1.25,3.15 l 0.3,-0.25 0,0.4 c -0.05,0.2 -0.05,0.4 0,0.55 l 0.1,0.25 0,0.1 0.55,0.45 -0.05,0.1 -0.1,0.15 0.05,0.05 c 0.45,0.5 1,0.85 1.6,1 0.2,0.05 0.45,0.05 0.65,0 l 0.15,-0.6 c 0.3,-1.1 0.45,-2.5 0.35,-3.5 0.4,1.15 0.15,2.45 0.35,3.6 0.05,0.45 0.2,0.85 0.45,1.25 0.3,0.35 0.7,0.6 1.15,0.75 1.15,0.4 2.65,0.25 3.7,0 l 0.05,-0.5 c 0.05,-0.7 0,-1.45 -0.15,-2.15 l -0.2,-0.55 0.3,0.5 c 0.35,0.55 0.65,1.1 0.85,1.7 l 0.05,0.2 c 0.8,0.05 1.5,-0.4 2.15,-0.35 l 0.3,0 c 0.1,-0.25 0.1,-0.6 0.05,-0.95 l -0.35,-0.2 0,-0.2 c 0,-0.6 -0.3,-1.1 -0.55,-1.6 -0.2,-0.35 -0.4,-0.7 -0.45,-1.15 l 0.75,0.9 c 0.2,0.2 0.35,0.35 0.45,0.35 0.8,0.2 0.8,-0.5 1.45,-1.1 l 0.5,-0.35 -0.2,-0.6 c -0.2,-0.45 -0.5,-0.95 -0.8,-1.3 0.3,0.5 0.35,1.25 0.2,1.75 l -0.05,0.15 c -0.25,0.45 -0.55,0.6 -0.85,0.6 l 0,0.05 -0.05,-0.05 -0.15,0 -0.65,-0.6 C 5.2,-22 5,-22.15 5,-22.35 l 0,-0.05 -0.85,-0.95 c 0.15,0 0.7,-0.15 1.75,-0.45 0,-0.05 0,-0.05 0,-0.1 l 0.25,-0.05 0,-0.2 0.2,0.05 L 6,-24.35 c 0,0 0,-0.5 -0.85,-1 -0.1,-0.05 -0.15,-0.1 -0.2,-0.15 0,0.2 0,0.5 -0.1,0.7 l 0.3,-0.05 -0.35,0.15 c -0.2,0.45 -0.65,0.65 -1.15,0.7 l -0.3,0 C 2.7,-24.05 2,-24.25 1.65,-24.5 l 2.75,-0.2 c -0.15,-0.1 -0.3,-0.2 -0.4,-0.15 -0.5,0.05 -1.45,0 -2.35,0.1 l -1,0.25 -0.15,0.05 -0.8,0.2 -0.2,0.05 c -0.6,0.1 -1.25,0 -1.8,-0.15 l 2.25,-0.05 0.1,-0.05 c -1,0.05 -2.15,0 -2.15,-0.6 z m -1.1,2.35 c -0.35,1.15 -0.4,2.85 -0.35,4.15 L -4.7,-18.8 c -0.15,-0.3 -0.3,-0.55 -0.3,-0.75 -0.25,-0.8 -0.4,-1.65 -0.55,-2.45 0.25,-0.35 0.55,-0.6 0.85,-0.85 l 0.25,-0.2 c 0.4,0.25 0.85,0.35 1.25,0.35 z"
           inkscape:connector-curvature="0"
           style="fill:#787878" />
        <path
           id="path38"
           d="m 3,-25.55 c -1.55,0.15 -3.55,0 -5.1,0.5 0,0.6 1.15,0.65 2.15,0.6 l -0.1,0.05 -0.25,0.15 0.8,-0.2 0.15,-0.05 1,-0.25 c 0.9,-0.1 1.85,-0.05 2.35,-0.1 0.1,-0.05 0.25,0.05 0.4,0.15 0.1,0.05 0.2,0.05 0.35,0 l 0.1,-0.1 c 0.1,-0.2 0.1,-0.5 0.1,-0.7 -0.45,-0.35 -0.85,-0.6 -1.25,-0.75 -0.15,-0.05 -0.35,-0.15 -0.55,-0.2 -0.65,0 -1.45,-0.1 -1.95,-0.1 -1.2,0.1 -2.05,0.4 -3.15,0.7 l -0.1,0.05 0.25,0.05 c 1.45,0.4 3.45,-0.3 4.8,0.2 z m 0.35,2.05 0.35,0 c 0.05,0.05 0,0 -0.05,-0.05 l -0.3,0 0,0.05 z m 0,0 -0.05,0 c -0.3,0 -1.4,-0.55 -2.35,-0.6 -0.95,0.55 -2.85,1.2 -3.35,1.35 l -0.15,0.05 c 0.15,1.25 -0.2,2.65 0.2,3.85 l -0.15,0.15 c 0.1,0.15 0.25,0.25 0.4,0.35 l 0.15,0.05 c 1.15,0.7 2.75,0.7 3.85,1.25 l 0.05,-0.45 -0.15,-0.55 0,-0.1 -0.2,-0.65 0.2,-0.05 C 1.65,-20.45 0.85,-22.1 1,-23.8 c 0.15,0.35 0.4,1 0.75,1.9 0.35,0.8 0.7,1.4 1.05,1.85 l 0.05,0.05 0.4,0.65 c 0.35,0.45 0.7,0.8 1.55,0.95 0,-0.6 -0.05,-1.2 -0.2,-1.75 -0.15,-0.6 -0.4,-1.2 -0.75,-1.75 -0.2,-0.55 -0.4,-0.6 -0.5,-1.6 z"
           inkscape:connector-curvature="0"
           style="fill:#858585" />
        <path
           id="path45"
           d="m -3.2,-22.7 c -0.4,0 -0.85,-0.1 -1.25,-0.35 l -0.25,0.2 c -0.3,0.25 -0.6,0.5 -0.85,0.85 0.15,0.8 0.3,1.65 0.55,2.45 0,0.2 0.15,0.45 0.3,0.75 l 1.15,0.25 c -0.05,-1.3 0,-3 0.35,-4.15 z m 9.35,-1.45 0,0.2 -0.25,0.05 c 0,0.05 0,0.05 0,0.1 -1.05,0.3 -1.6,0.45 -1.75,0.45 l 0.85,0.95 0,0.05 c 0,0.2 0.2,0.35 0.25,0.5 l 0.65,0.6 0.15,0 0.05,0.05 0,-0.05 c 0.3,0 0.6,-0.15 0.85,-0.6 L 7,-22 c 0.15,-0.5 0.1,-1.25 -0.2,-1.75 0.3,0.35 0.6,0.85 0.8,1.3 l 0.2,0.6 C 7.65,-22.55 7,-23.7 6.5,-24.05 l -0.5,-0.3 0.35,0.25 -0.2,-0.05 z m -3.85,4.55 0.2,0.55 0.1,-0.05 -0.3,-0.5 z m -6,-6.5 c 0.45,-0.1 0.65,-0.15 0.85,-0.2 -0.25,0.05 -0.45,0.1 -0.7,0.15 l -0.15,0.05 z m -1.6,1.65 -0.1,-0.1 -0.2,0.15 0.3,-0.05 z m -1.05,4.45 0.1,0.25 0,0.1 0.55,0.45 c 0,0 -1.5,-1.15 -1.85,-1.85 0.15,0.3 0.45,0.65 0.8,0.95 l 0.4,0.35 0,-0.25 z m 3.1,3.1 -0.85,-0.2 c -0.65,-0.1 -1.15,-0.2 -1.5,-0.3 0.45,0.15 1.25,0.35 2.35,0.5 z"
           inkscape:connector-curvature="0"
           style="fill:#858585" />
        <path
           id="path48"
           d="m 5.15,-24.85 -0.3,0.05 -0.1,0.1 c -0.15,0.05 -0.25,0.05 -0.35,0 l -2.75,0.2 c 0.35,0.25 1.05,0.45 1.7,0.5 l 0.3,0 c 0.5,-0.05 0.95,-0.25 1.15,-0.7 l 0.35,-0.15 z m 2.15,3.35 c -0.65,0.6 -0.65,1.3 -1.45,1.1 -0.1,0 -0.25,-0.15 -0.45,-0.35 l -0.75,-0.9 c 0.05,0.45 0.25,0.8 0.45,1.15 0.25,0.5 0.55,1 0.55,1.6 l 0,0.2 0.35,0.2 0,-0.275 0,-0.725 1.3,-1.05 c 0,0 0.65,-0.65 0.5,-1.3 l -0.5,0.35 z m -4.7,2.4 -0.1,0.05 c 0.15,0.7 0.2,1.45 0.15,2.15 l -0.05,0.5 c -1.05,0.25 -2.55,0.4 -3.7,0 -0.45,-0.15 -0.85,-0.4 -1.15,-0.75 -0.25,-0.4 -0.4,-0.8 -0.45,-1.25 -0.2,-1.15 0.05,-2.45 -0.35,-3.6 0.1,1 -0.05,2.4 -0.35,3.5 l -0.15,0.6 c -0.2,0.05 -0.45,0.05 -0.65,0 -0.6,-0.15 -1.15,-0.5 -1.6,-1 l -0.05,-0.05 c -0.1,0.15 -0.15,0.3 -0.2,0.45 -0.15,0.5 -0.1,0.8 0.2,0.95 0.05,0.05 0.1,0.05 0.15,0.1 l 0.1,0.05 c 0.35,0.1 0.85,0.2 1.5,0.3 l 0.85,0.2 c 0.05,0 0.1,0 0.15,0.05 l 0.05,0 0.5,0.15 0.1,0.25 -0.1,-0.25 c 0,0 0.1,0.45 0.5,0.8 0.2,0.15 0.45,0.3 0.85,0.35 1.2,0.2 2.35,0 3,0 0.7,0 1.5,0.2 1.5,0.2 l 0.2,-1 2.25,-1 0.2,-0.2 -0.3,0 C 5,-17.6 4.3,-17.15 3.5,-17.2 L 3.45,-17.4 C 3.25,-18 2.95,-18.55 2.6,-19.1 z m -6.75,-6.8 -0.05,-0.05 -0.8,0.25 -0.4,1.15 0.1,0.1 0.1,0.1 0.15,-0.1 0,-0.05 0.15,0 c 0.9,-0.45 1.6,-1.05 2.65,-0.85 l 0.45,-0.4 -0.25,-0.05 0.1,-0.05 -2.2,-0.05 z m 3.85,1.65 0.25,-0.15 -2.25,0.05 c 0.55,0.15 1.2,0.25 1.8,0.15 l 0.2,-0.05 z m -5.55,0 -0.1,0.05 c -0.35,0.25 -0.6,0.55 -0.75,0.85 -0.35,0.65 -1.15,1.65 -0.85,2.3 0.15,0.3 0.45,0.65 0.8,0.95 l 0.4,0.35 0,-0.25 c -0.05,-0.15 -0.05,-0.35 0,-0.55 l 0,-0.4 -0.3,0.25 c -1.1,-0.6 0.45,-2.15 1.25,-3.15 l -0.2,-0.55 -0.05,0 c -0.05,0.05 -0.15,0.1 -0.2,0.15 z"
           inkscape:connector-curvature="0"
           style="fill:#454545" />
        <path
           id="path57"
           d="m 5.95,-17.55 -0.2,0.2 c 0.2,-0.05 0.3,-0.3 0.3,-0.75 C 6,-18.3 6,-18.45 6,-18.75 m 0,-0.025 0,0.275 c 0.05,0.35 0.05,0.7 -0.05,0.95"
           inkscape:connector-curvature="0"
           style="fill:#858585" />
        <path
           id="path66"
           d="m -5.05,-24.5 0,0.05 0.15,-0.05 -0.15,0"
           inkscape:connector-curvature="0"
           style="fill:#858585" />
      </g>
    </g>
    <g
       id="backShirtTorso20101122Blouse_1_0">
      <g
         id="element">
        <path
           id="path"
           d="m 3.15,-26.45 c -0.65,-0.2 -1.55,-0.3 -2.9,-0.25 l -3.1,0.4 c -0.2,0.05 -0.4,0.1 -0.85,0.2 l -0.5,0.15 0.05,0.05 2.2,0.05 c 1.1,-0.3 1.95,-0.6 3.15,-0.7 0.5,0 1.3,0.1 1.95,0.1 z m -5.25,1.4 c 1.55,-0.5 3.55,-0.35 5.1,-0.5 -1.35,-0.5 -3.35,0.2 -4.8,-0.2 l -0.45,0.4 c -1.05,-0.2 -1.75,0.4 -2.65,0.85 l -0.15,0.05 -0.15,0.1 -0.1,-0.1 -0.3,0.05 0.2,0.55 c -0.8,1 -2.35,2.55 -1.25,3.15 l 0.3,-0.25 0,0.4 c -0.05,0.2 -0.05,0.4 0,0.55 l 0.1,0.25 0,0.1 0.55,0.45 -0.05,0.1 -0.1,0.15 0.05,0.05 c 0.45,0.5 1,0.85 1.6,1 0.2,0.05 0.45,0.05 0.65,0 l 0.15,-0.6 c 0.3,-1.1 0.45,-2.5 0.35,-3.5 0.4,1.15 0.15,2.45 0.35,3.6 0.05,0.45 0.2,0.85 0.45,1.25 0.3,0.35 0.7,0.6 1.15,0.75 1.15,0.4 2.65,0.25 3.7,0 l 0.05,-0.5 c 0.05,-0.7 0,-1.45 -0.15,-2.15 l -0.2,-0.55 0.3,0.5 c 0.35,0.55 0.65,1.1 0.85,1.7 l 0.05,0.2 c 0.8,0.05 1.5,-0.4 2.15,-0.35 l 0.3,0 c 0.1,-0.25 0.1,-0.6 0.05,-0.95 l -0.35,-0.2 0,-0.2 c 0,-0.6 -0.3,-1.1 -0.55,-1.6 -0.2,-0.35 -0.4,-0.7 -0.45,-1.15 l 0.75,0.9 c 0.2,0.2 0.35,0.35 0.45,0.35 0.8,0.2 0.8,-0.5 1.45,-1.1 l 0.5,-0.35 -0.2,-0.6 c -0.2,-0.45 -0.5,-0.95 -0.8,-1.3 0.3,0.5 0.35,1.25 0.2,1.75 l -0.05,0.15 c -0.25,0.45 -0.55,0.6 -0.85,0.6 l 0,0.05 -0.05,-0.05 -0.15,0 -0.65,-0.6 C 5.2,-22 5,-22.15 5,-22.35 l 0,-0.05 -0.85,-0.95 c 0.15,0 0.7,-0.15 1.75,-0.45 0,-0.05 0,-0.05 0,-0.1 l 0.25,-0.05 0,-0.2 0.2,0.05 L 6,-24.35 c 0,0 0,-0.5 -0.85,-1 -0.1,-0.05 -0.15,-0.1 -0.2,-0.15 0,0.2 0,0.5 -0.1,0.7 l 0.3,-0.05 -0.35,0.15 c -0.2,0.45 -0.65,0.65 -1.15,0.7 l -0.3,0 C 2.7,-24.05 2,-24.25 1.65,-24.5 l 2.75,-0.2 c -0.15,-0.1 -0.3,-0.2 -0.4,-0.15 -0.5,0.05 -1.45,0 -2.35,0.1 l -1,0.25 -0.15,0.05 -0.8,0.2 -0.2,0.05 c -0.6,0.1 -1.25,0 -1.8,-0.15 l 2.25,-0.05 0.1,-0.05 c -1,0.05 -2.15,0 -2.15,-0.6 z m -1.1,2.35 c -0.35,1.15 -0.4,2.85 -0.35,4.15 L -4.7,-18.8 c -0.15,-0.3 -0.3,-0.55 -0.3,-0.75 -0.25,-0.8 -0.4,-1.65 -0.55,-2.45 0.25,-0.35 0.55,-0.6 0.85,-0.85 l 0.25,-0.2 c 0.4,0.25 0.85,0.35 1.25,0.35 z"
           inkscape:connector-curvature="0"
           style="fill:#787878" />
        <path
           id="path1"
           d="m 3,-25.55 c -1.55,0.15 -3.55,0 -5.1,0.5 0,0.6 1.15,0.65 2.15,0.6 l -0.1,0.05 -0.25,0.15 0.8,-0.2 0.15,-0.05 1,-0.25 c 0.9,-0.1 1.85,-0.05 2.35,-0.1 0.1,-0.05 0.25,0.05 0.4,0.15 0.1,0.05 0.2,0.05 0.35,0 l 0.1,-0.1 c 0.1,-0.2 0.1,-0.5 0.1,-0.7 -0.45,-0.35 -0.85,-0.6 -1.25,-0.75 -0.15,-0.05 -0.35,-0.15 -0.55,-0.2 -0.65,0 -1.45,-0.1 -1.95,-0.1 -1.2,0.1 -2.05,0.4 -3.15,0.7 l -0.1,0.05 0.25,0.05 c 1.45,0.4 3.45,-0.3 4.8,0.2 z m 0.35,2.05 0.35,0 c 0.05,0.05 0,0 -0.05,-0.05 l -0.3,0 0,0.05 z m 0,0 -0.05,0 c -0.3,0 -1.4,-0.55 -2.35,-0.6 -0.95,0.55 -2.85,1.2 -3.35,1.35 l -0.15,0.05 c 0.15,1.25 -0.2,2.65 0.2,3.85 l -0.15,0.15 c 0.1,0.15 0.25,0.25 0.4,0.35 l 0.15,0.05 c 1.15,0.7 2.75,0.7 3.85,1.25 l 0.05,-0.45 -0.15,-0.55 0,-0.1 -0.2,-0.65 0.2,-0.05 C 1.65,-20.45 0.85,-22.1 1,-23.8 c 0.15,0.35 0.4,1 0.75,1.9 0.35,0.8 0.7,1.4 1.05,1.85 l 0.05,0.05 0.4,0.65 c 0.35,0.45 0.7,0.8 1.55,0.95 0,-0.6 -0.05,-1.2 -0.2,-1.75 -0.15,-0.6 -0.4,-1.2 -0.75,-1.75 -0.2,-0.55 -0.4,-0.6 -0.5,-1.6 z"
           inkscape:connector-curvature="0"
           style="fill:#858585" />
        <path
           id="path8"
           d="m -3.2,-22.7 c -0.4,0 -0.85,-0.1 -1.25,-0.35 l -0.25,0.2 c -0.3,0.25 -0.6,0.5 -0.85,0.85 0.15,0.8 0.3,1.65 0.55,2.45 0,0.2 0.15,0.45 0.3,0.75 l 1.15,0.25 c -0.05,-1.3 0,-3 0.35,-4.15 z m 9.35,-1.45 0,0.2 -0.25,0.05 c 0,0.05 0,0.05 0,0.1 -1.05,0.3 -1.6,0.45 -1.75,0.45 l 0.85,0.95 0,0.05 c 0,0.2 0.2,0.35 0.25,0.5 l 0.65,0.6 0.15,0 0.05,0.05 0,-0.05 c 0.3,0 0.6,-0.15 0.85,-0.6 L 7,-22 c 0.15,-0.5 0.1,-1.25 -0.2,-1.75 0.3,0.35 0.6,0.85 0.8,1.3 l 0.2,0.6 C 7.65,-22.55 7,-23.7 6.5,-24.05 l -0.5,-0.3 0.35,0.25 -0.2,-0.05 z m -3.85,4.55 0.2,0.55 0.1,-0.05 -0.3,-0.5 z m -6,-6.5 c 0.45,-0.1 0.65,-0.15 0.85,-0.2 -0.25,0.05 -0.45,0.1 -0.7,0.15 l -0.15,0.05 z m -1.6,1.65 -0.1,-0.1 -0.2,0.15 0.3,-0.05 z m -1.05,4.45 0.1,0.25 0,0.1 0.55,0.45 c 0,0 -1.5,-1.15 -1.85,-1.85 0.15,0.3 0.45,0.65 0.8,0.95 l 0.4,0.35 0,-0.25 z m 3.1,3.1 -0.85,-0.2 c -0.65,-0.1 -1.15,-0.2 -1.5,-0.3 0.45,0.15 1.25,0.35 2.35,0.5 z"
           inkscape:connector-curvature="0"
           style="fill:#858585" />
        <path
           id="path11"
           d="m 5.15,-24.85 -0.3,0.05 -0.1,0.1 c -0.15,0.05 -0.25,0.05 -0.35,0 l -2.75,0.2 c 0.35,0.25 1.05,0.45 1.7,0.5 l 0.3,0 c 0.5,-0.05 0.95,-0.25 1.15,-0.7 l 0.35,-0.15 z m 2.15,3.35 c -0.65,0.6 -0.65,1.3 -1.45,1.1 -0.1,0 -0.25,-0.15 -0.45,-0.35 l -0.75,-0.9 c 0.05,0.45 0.25,0.8 0.45,1.15 0.25,0.5 0.55,1 0.55,1.6 l 0,0.2 0.35,0.2 0,-0.275 0,-0.725 1.3,-1.05 c 0,0 0.65,-0.65 0.5,-1.3 l -0.5,0.35 z m -4.7,2.4 -0.1,0.05 c 0.15,0.7 0.2,1.45 0.15,2.15 l -0.05,0.5 c -1.05,0.25 -2.55,0.4 -3.7,0 -0.45,-0.15 -0.85,-0.4 -1.15,-0.75 -0.25,-0.4 -0.4,-0.8 -0.45,-1.25 -0.2,-1.15 0.05,-2.45 -0.35,-3.6 0.1,1 -0.05,2.4 -0.35,3.5 l -0.15,0.6 c -0.2,0.05 -0.45,0.05 -0.65,0 -0.6,-0.15 -1.15,-0.5 -1.6,-1 l -0.05,-0.05 c -0.1,0.15 -0.15,0.3 -0.2,0.45 -0.15,0.5 -0.1,0.8 0.2,0.95 0.05,0.05 0.1,0.05 0.15,0.1 l 0.1,0.05 c 0.35,0.1 0.85,0.2 1.5,0.3 l 0.85,0.2 c 0.05,0 0.1,0 0.15,0.05 l 0.05,0 0.5,0.15 0.1,0.25 -0.1,-0.25 c 0,0 0.1,0.45 0.5,0.8 0.2,0.15 0.45,0.3 0.85,0.35 1.2,0.2 2.35,0 3,0 0.7,0 1.5,0.2 1.5,0.2 l 0.2,-1 2.25,-1 0.2,-0.2 -0.3,0 C 5,-17.6 4.3,-17.15 3.5,-17.2 L 3.45,-17.4 C 3.25,-18 2.95,-18.55 2.6,-19.1 z m -6.75,-6.8 -0.05,-0.05 -0.8,0.25 -0.4,1.15 0.1,0.1 0.1,0.1 0.15,-0.1 0,-0.05 0.15,0 c 0.9,-0.45 1.6,-1.05 2.65,-0.85 l 0.45,-0.4 -0.25,-0.05 0.1,-0.05 -2.2,-0.05 z m 3.85,1.65 0.25,-0.15 -2.25,0.05 c 0.55,0.15 1.2,0.25 1.8,0.15 l 0.2,-0.05 z m -5.55,0 -0.1,0.05 c -0.35,0.25 -0.6,0.55 -0.75,0.85 -0.35,0.65 -1.15,1.65 -0.85,2.3 0.15,0.3 0.45,0.65 0.8,0.95 l 0.4,0.35 0,-0.25 c -0.05,-0.15 -0.05,-0.35 0,-0.55 l 0,-0.4 -0.3,0.25 c -1.1,-0.6 0.45,-2.15 1.25,-3.15 l -0.2,-0.55 -0.05,0 c -0.05,0.05 -0.15,0.1 -0.2,0.15 z"
           inkscape:connector-curvature="0"
           style="fill:#454545" />
        <path
           id="path20"
           d="m 5.95,-17.55 -0.2,0.2 c 0.2,-0.05 0.3,-0.3 0.3,-0.75 C 6,-18.3 6,-18.45 6,-18.75 m 0,-0.025 0,0.275 c 0.05,0.35 0.05,0.7 -0.05,0.95"
           inkscape:connector-curvature="0"
           style="fill:#858585" />
        <path
           id="path29"
           d="m -5.05,-24.5 0,0.05 0.15,-0.05 -0.15,0"
           inkscape:connector-curvature="0"
           style="fill:#858585" />
      </g>
    </g>
  </g>
</svg>
