<?xml version="1.0" encoding="UTF-8" standalone="no"?>
<!-- Generator: flash2svg, http://dissentgraphics.com/tools/flash2svg -->

<svg
   xmlns:dc="http://purl.org/dc/elements/1.1/"
   xmlns:cc="http://creativecommons.org/ns#"
   xmlns:rdf="http://www.w3.org/1999/02/22-rdf-syntax-ns#"
   xmlns:svg="http://www.w3.org/2000/svg"
   xmlns="http://www.w3.org/2000/svg"
   xmlns:sodipodi="http://sodipodi.sourceforge.net/DTD/sodipodi-0.dtd"
   xmlns:inkscape="http://www.inkscape.org/namespaces/inkscape"
   id="AvatarAssets"
   image-rendering="auto"
   version="1.1"
   x="0px"
   y="0px"
   width="27.23"
   height="30.324133"
   viewBox="0 0 27.23 30.324133"
   inkscape:version="0.48.4 r9939"
   sodipodi:docname="AvatarAssets_backShirtTorsoA011b.svg">
  <metadata
     id="metadata3248">
    <rdf:RDF>
      <cc:Work
         rdf:about="">
        <dc:format>image/svg+xml</dc:format>
        <dc:type
           rdf:resource="http://purl.org/dc/dcmitype/StillImage" />
      </cc:Work>
    </rdf:RDF>
  </metadata>
  <sodipodi:namedview
     pagecolor="#ffffff"
     bordercolor="#666666"
     borderopacity="1"
     objecttolerance="10"
     gridtolerance="10"
     guidetolerance="10"
     inkscape:pageopacity="0"
     inkscape:pageshadow="2"
     inkscape:window-width="640"
     inkscape:window-height="480"
     id="namedview3246"
     showgrid="false"
     fit-margin-top="0"
     fit-margin-left="0"
     fit-margin-right="0"
     fit-margin-bottom="0"
     inkscape:zoom="1.9032258"
     inkscape:cx="45.374"
     inkscape:cy="-59.288951"
     inkscape:window-x="0"
     inkscape:window-y="0"
     inkscape:window-maximized="0"
     inkscape:current-layer="AvatarAssets" />
  <defs
     id="defs3229" />
  <g
     id="backShirtTorsoA011b1"
     overflow="visible"
     style="overflow:visible"
     transform="translate(13.374,27.613084)">
    <g
       id="backShirtTorsoA011b_0">
      <g
         id="element">
        <g
           id="drawingObject">
          <path
             id="path"
             d="m -10.736,-0.973 c 0.145,-0.352 0.451,-3.606 0.451,-3.606 q -1.061,2.865 -2.901,7.29 c 0,0 2.7,0.013 2.545,-0.385 l -0.156,-0.398 c 0,0 -0.084,-2.549 0.061,-2.901 z"
             inkscape:connector-curvature="0"
             style="fill:#517439" />
        </g>
        <g
           id="drawingObject1">
          <path
             id="path1"
             d="M 13.739,0.696 9.373,-4.145 q 0.342,0.412 0.713,0.94 0.766,1.19 0.721,1.54 c -0.094,0.502 0.064,1.05 0.064,1.05 0,0 3.478,2.053 2.868,1.311 z"
             inkscape:connector-curvature="0"
             style="fill:#517439" />
        </g>
        <g
           id="drawingObject2">
          <path
             id="path2"
             d="m 5.958,-23.701 c -0.391,-2.995 -3.754,-3.949 -6.604,-3.911 q -1.8,0.025 -3.288,0.895 l -1.089,0.815 -0.818,2.361 6.015,1.069 -6.015,-1.069 c 0,0 12.139,2.836 11.799,-0.16 z"
             inkscape:connector-curvature="0"
             style="fill:#a3ea74" />
        </g>
        <g
           id="drawingObject3">
          <path
             id="path3"
             d="m -1.02,-26.942 q -1.898,0.176 -3.438,0.947 -2.085,1.078 -2.409,2.983 c -0.231,1.403 -1.106,3.315 -1.415,6.32 -0.309,3.004 -2.109,6.729 -2.243,7.881 -0.135,1.152 -1.617,6.172 -2.09,8.179 l -0.759,3.011 1.422,-2.07 -1.422,2.07 c 0,0 1.45,-3.67 7.128,-5.398 5.726,-1.777 9.742,-0.632 12.948,-0.175 3.207,0.457 5.431,2.227 6.292,3.065 l 0.862,0.838 c 0,0 -2.247,-3.469 -2.986,-6.31 -0.688,-2.841 -3.13,-9.608 -3.153,-11.308 -0.023,-1.65 -0.263,-4.647 -1.082,-5.986 -0.867,-1.288 -2.96,-4.46 -7.655,-4.047 z"
             inkscape:connector-curvature="0"
             style="fill:#a3ea74" />
        </g>
        <g
           id="drawingObject4">
          <path
             id="path4"
             d="m -1.02,-26.942 c -1.848,0.176 -5.336,1.073 -5.847,3.93 -0.231,1.403 -1.106,3.315 -1.415,6.32 -0.309,3.004 -2.109,6.729 -2.243,7.881 -0.135,1.152 -1.617,6.172 -2.09,8.179 l -0.759,3.011 1.422,-2.07 -1.422,2.07 c 0,0 1.45,-3.67 7.128,-5.398 5.726,-1.777 9.742,-0.632 12.948,-0.175 3.207,0.457 5.431,2.227 6.292,3.065 -0.522,-1.643 -3.745,-3.3 -6.11,-4.418 L 2.609,-6.339 1.435,-8.123 C 0.21,-9.957 -0.01,-15.104 -0.01,-15.104 l 0.288,2.796 -0.288,-2.796 0.032,2.3 c 0.031,2.349 -0.578,5.358 -0.578,5.358 0,0 -1.545,0.371 -2.57,-1.465 -1.025,-1.837 -1.043,-3.137 -1.409,-4.332 -0.314,-1.045 0.083,-1.301 0.263,-2.753 1.353,0.231 3.051,0.058 3.051,0.058 l -1.307,-0.482 c -0.602,-0.192 -1.158,-0.634 -1.564,-1.029 l 0.189,-0.853 c 0.4,0.045 0.852,0.189 1.505,0.38 2.209,0.62 4.711,0.786 4.711,0.786 l -2.711,-0.813 c -1.306,-0.382 -2.366,-1.118 -3.124,-1.758 0.43,-1.456 1.012,-2.814 1.551,-3.571 0.786,-1.061 3.57,-2.299 5.514,-2.725 -1.159,-0.685 -2.615,-1.115 -4.563,-0.939 z"
             inkscape:connector-curvature="0"
             style="fill:#8ecb65" />
        </g>
        <g
           id="drawingObject5">
          <path
             id="path5"
             d="m -1.02,-26.942 c -1.848,0.176 -5.336,1.073 -5.847,3.93 -0.231,1.403 -1.106,3.315 -1.415,6.32 -0.309,3.004 -2.109,6.729 -2.243,7.881 -0.135,1.152 -1.617,6.172 -2.09,8.179 l -0.759,3.011 1.422,-2.07 -1.422,2.07 c 0,0 1.45,-3.67 7.128,-5.398 5.726,-1.777 9.742,-0.632 12.948,-0.175 l 0.902,0.138 C 3.478,-4.95 -5.469,-4.679 -7.615,-4.35 q -1.497,0.22 -1.466,-1.18 0.37,-2.206 0.401,-3.656 c 0.112,-2.802 1.921,-5.827 2.23,-8.831 0.31,-3.005 1.426,-5.52 3.452,-7.248 0.989,-0.813 2.933,-1.289 4.58,-1.512 -0.752,-0.19 -1.604,-0.278 -2.602,-0.165 z"
             inkscape:connector-curvature="0"
             style="fill:#75a853" />
        </g>
      </g>
    </g>
  </g>
</svg>
