<?xml version="1.0" encoding="UTF-8" standalone="no"?>
<!-- Generator: flash2svg, http://dissentgraphics.com/tools/flash2svg -->

<svg
   xmlns:dc="http://purl.org/dc/elements/1.1/"
   xmlns:cc="http://creativecommons.org/ns#"
   xmlns:rdf="http://www.w3.org/1999/02/22-rdf-syntax-ns#"
   xmlns:svg="http://www.w3.org/2000/svg"
   xmlns="http://www.w3.org/2000/svg"
   xmlns:sodipodi="http://sodipodi.sourceforge.net/DTD/sodipodi-0.dtd"
   xmlns:inkscape="http://www.inkscape.org/namespaces/inkscape"
   id="AvatarAssets"
   image-rendering="auto"
   version="1.1"
   x="0px"
   y="0px"
   width="22.763006"
   height="24.978529"
   viewBox="0 0 22.763006 24.978529"
   inkscape:version="0.48.4 r9939"
   sodipodi:docname="AvatarAssets_backShirtTorso20101103Black1.svg">
  <metadata
     id="metadata15">
    <rdf:RDF>
      <cc:Work
         rdf:about="">
        <dc:format>image/svg+xml</dc:format>
        <dc:type
           rdf:resource="http://purl.org/dc/dcmitype/StillImage" />
      </cc:Work>
    </rdf:RDF>
  </metadata>
  <sodipodi:namedview
     pagecolor="#ffffff"
     bordercolor="#666666"
     borderopacity="1"
     objecttolerance="10"
     gridtolerance="10"
     guidetolerance="10"
     inkscape:pageopacity="0"
     inkscape:pageshadow="2"
     inkscape:window-width="640"
     inkscape:window-height="480"
     id="namedview13"
     showgrid="false"
     fit-margin-top="0"
     fit-margin-left="0"
     fit-margin-right="0"
     fit-margin-bottom="0"
     inkscape:zoom="1.9032258"
     inkscape:cx="43.35"
     inkscape:cy="-64.1"
     inkscape:window-x="0"
     inkscape:window-y="0"
     inkscape:window-maximized="0"
     inkscape:current-layer="AvatarAssets" />
  <defs
     id="defs3" />
  <g
     id="backShirtTorso20101103Black2"
     overflow="visible"
     style="overflow:visible"
     transform="translate(11.35,27.078528)">
    <g
       id="backShirtTorso20101103Black1_0">
      <g
         id="element">
        <path
           id="path"
           d="m 7.7,-19.9 c -0.25,-1 -0.75,-3 -2.2,-4.55 -0.2,-1.95 -3.3,-2.8 -6.15,-2.6 -1.4,0.3 -2.45,0.65 -1.95,0.6 0.35,-0.05 1.35,-0.1 2.35,0 -0.2,0 -0.4,0 -0.9,0.05 -1.2,0.5 -2.1,1.65 -2.7,2.8 -0.4,0.85 -0.15,1.7 -0.3,2.6 l -0.3,0 c 0.05,0.95 1.7,1.25 2.25,1.75 l -1.65,0 c 0.8,0.4 1.7,0.35 2.45,0.75 -0.5,0.2 -1,-0.05 -1.45,0.35 1.7,0.45 3.5,-0.55 5.1,0.5 -1.45,-0.05 -2.5,0 -3.25,0.15 l -0.05,0 -0.2,0.1 c 0.6,0.05 1.1,0.15 1.55,0.35 -1.1,0.3 -2.1,0.25 -3,0.95 -0.3,0.25 -0.6,0.55 -0.85,0.9 -0.8,1.1 -0.85,1.8 -1,3.1 l -0.05,-0.05 c -0.15,1.1 0.9,2 1.9,2.3 0.95,0.3 2.35,-0.1 3.25,0.45 -0.35,0.15 -0.75,0.1 -1.15,0.25 1.25,-0.05 2.35,0 3.45,0.6 0.7,0.35 1.4,0.7 2.2,0.8 C 6,-7.7 6.9,-7.5 7.9,-7.35 8.25,-7.3 8.65,-7.15 8.95,-7.4 L 8.8,-7.1 c 0.9,0.05 1.45,-0.45 1.65,-1.6 -0.1,-0.25 -0.2,-0.45 -0.3,-0.7 -1.6,-3.5 -2.1,-9.1 -2.45,-10.5 z m -2.95,-5.2 c -0.1,-0.1 -0.55,-0.35 -1.05,-0.55 0,0 0,0 -0.1,-0.1 0.55,0.2 0.9,0.4 1.15,0.65 z"
           inkscape:connector-curvature="0"
           style="fill:#2f3030" />
        <path
           id="path1"
           d="m 4.75,-25.1 c -0.25,-0.25 -0.6,-0.45 -1.15,-0.65 0.1,0.1 0.1,0.1 0.1,0.1 0.5,0.2 0.95,0.45 1.05,0.55 z M 4.5,-7.3 2.2,-7.6 C 1.2,-7.7 0.4,-7.8 -0.5,-8.2 -1.75,-8.75 -3.05,-8.75 -4.3,-9 -4.95,-9.1 -5.6,-9.2 -6.2,-9.55 -6.7,-9.9 -6.65,-9.65 -6.7,-10.4 l 0,-1.35 c -1.1,-0.1 0.35,-3.5 0.85,-4 0.55,-0.55 1.2,-1.3 2.05,-1.45 0.8,-0.1 1.6,-0.05 2.4,-0.25 l -0.2,0.1 0.35,-0.05 0.2,-0.1 0.05,0 0.25,-0.15 c -1.1,-0.1 -2.15,0.1 -3.2,-0.2 -0.3,-0.1 -1.05,-0.25 -1.3,-0.4 -0.5,-0.4 -0.15,-0.35 -0.3,-0.75 l -0.3,-0.75 c -0.35,-1.3 0.1,-3.25 0.75,-4.35 0.45,-0.7 1.15,-1.35 1.9,-1.8 0.55,-0.25 1.25,-0.4 2.05,-0.5 0.5,-0.05 0.7,-0.05 0.9,-0.05 -1,-0.1 -2,-0.05 -2.35,0 -0.5,0.05 0.55,-0.3 1.95,-0.6 -0.2,0.05 -0.4,0.05 -0.6,0.05 -3.1,0.3 -4.6,1.9 -4.6,1.9 l 1.15,-0.85 -1.15,0.85 0.1,0.55 c 0.3,-0.25 0.65,-0.5 1.05,-0.7 -0.25,0.15 -0.45,0.3 -0.7,0.45 -0.6,1.15 -1.3,2.15 -1.35,3.45 -0.05,0.8 -0.25,1.65 -0.3,2.35 0,0.75 0.45,1.4 0.35,2.15 -1.1,-0.1 -0.85,0.6 -0.9,1.45 -0.1,1.05 -0.35,2 -0.35,3.05 0,1.25 -0.1,1.8 -0.65,2.95 -0.45,0.85 -1.3,1.85 -1.45,2.8 0.65,-0.2 1.3,-0.6 1.95,-0.7 -0.35,0.55 -1.1,0.9 -1.45,1.45 0.95,0.35 3.15,-0.85 4.1,-1.05 l -2.05,0.75 2.05,-0.75 c 1.45,-0.35 3.2,-0.3 4.6,-0.05 l 2.1,0.55 6.3,1.4 c 0.65,0.3 1.25,0.65 1.8,1 1,0.65 1.65,1.3 2,1.9 l 0.05,-1.05 c 0.05,-0.8 -0.05,-1.65 -0.2,-2.6 L 11.15,-6 l 0,-0.05 C 11.1,-5.9 11.1,-5.8 11.05,-5.7 l -0.1,0.1 C 10.4,-4.85 9.65,-5.35 9,-5.5 l 0,0.45 C 8.45,-5.5 7.75,-5.7 7.15,-6.05 6.3,-6.55 5.4,-7.05 4.5,-7.3 z"
           inkscape:connector-curvature="0"
           style="fill:#1b1c1c" />
        <path
           id="path4"
           d="M 8.8,-7.1 8.95,-7.4 C 8.65,-7.15 8.25,-7.3 7.9,-7.35 6.9,-7.5 6,-7.7 5.05,-7.75 c -0.8,-0.1 -1.5,-0.45 -2.2,-0.8 -1.1,-0.6 -2.2,-0.65 -3.45,-0.6 0.4,-0.15 0.8,-0.1 1.15,-0.25 -0.9,-0.55 -2.3,-0.15 -3.25,-0.45 -1,-0.3 -2.05,-1.2 -1.9,-2.3 l 0.05,0.05 c 0.15,-1.3 0.2,-2 1,-3.1 0.25,-0.35 0.55,-0.65 0.85,-0.9 0.9,-0.7 1.9,-0.65 3,-0.95 -0.45,-0.2 -0.95,-0.3 -1.55,-0.35 l -0.35,0.05 0.2,-0.1 c -0.8,0.2 -1.6,0.15 -2.4,0.25 -0.85,0.15 -1.5,0.9 -2.05,1.45 -0.5,0.5 -1.95,3.9 -0.85,4 l 0,1.35 c 0.05,0.75 0,0.5 0.5,0.85 0.6,0.35 1.25,0.45 1.9,0.55 1.25,0.25 2.55,0.25 3.8,0.8 0.9,0.4 1.7,0.5 2.7,0.6 l 2.3,0.3 c 0.9,0.25 1.8,0.75 2.65,1.25 0.6,0.35 1.3,0.55 1.85,1 L 9,-5.5 c 0.65,0.15 1.4,0.65 1.95,-0.1 l 0.1,-0.1 C 11.1,-5.8 11.1,-5.9 11.15,-6.05 11,-6.9 10.8,-7.8 10.45,-8.75 l 0,0.05 c -0.2,1.15 -0.75,1.65 -1.65,1.6 z m -9.95,-19.3 c -0.8,0.1 -1.5,0.25 -2.05,0.5 -0.75,0.45 -1.45,1.1 -1.9,1.8 -0.65,1.1 -1.1,3.05 -0.75,4.35 l 0.3,0.75 c 0.15,0.4 -0.2,0.35 0.3,0.75 0.25,0.15 1,0.3 1.3,0.4 1.05,0.3 2.1,0.1 3.2,0.2 L -1,-17.5 c 0.75,-0.15 1.8,-0.2 3.25,-0.15 -1.6,-1.05 -3.4,-0.05 -5.1,-0.5 0.45,-0.4 0.95,-0.15 1.45,-0.35 -0.75,-0.4 -1.65,-0.35 -2.45,-0.75 l 1.65,0 c -0.55,-0.5 -2.2,-0.8 -2.25,-1.75 l 0.3,0 c 0.15,-0.9 -0.1,-1.75 0.3,-2.6 0.6,-1.15 1.5,-2.3 2.7,-2.8 z"
           inkscape:connector-curvature="0"
           style="fill:#232424" />
        <path
           id="path7"
           d="m 0.2,-6.45 c 0.35,0 0.7,0 1.05,0.05 l -2.1,-0.55 C -2.25,-7.2 -4,-7.25 -5.45,-6.9 l -2.05,0.75 2.05,-0.75 c -0.95,0.2 -3.15,1.4 -4.1,1.05 0.35,-0.55 1.1,-0.9 1.45,-1.45 -0.65,0.1 -1.3,0.5 -1.95,0.7 0.15,-0.95 1,-1.95 1.45,-2.8 0.55,-1.15 0.65,-1.7 0.65,-2.95 0,-1.05 0.25,-2 0.35,-3.05 0.05,-0.85 -0.2,-1.55 0.9,-1.45 0.1,-0.75 -0.35,-1.4 -0.35,-2.15 0.05,-0.7 0.25,-1.55 0.3,-2.35 0.05,-1.3 0.75,-2.3 1.35,-3.45 l -0.7,0.55 c -1.25,1.25 -2.1,6.3 -2.45,8.55 -0.35,2.25 -2.45,8.75 -2.65,11.15 l -0.15,2.45 2.35,-2.3 -2.35,2.3 c 0,0 2.45,-4.7 11.55,-4.35 z"
           inkscape:connector-curvature="0"
           style="fill:#121212" />
        <path
           id="path10"
           d="m -5.4,-24.8 c 0.25,-0.15 0.45,-0.3 0.7,-0.45 -0.4,0.2 -0.75,0.45 -1.05,0.7 -0.05,0 -0.2,0.15 -0.35,0.3 l 0.7,-0.55"
           inkscape:connector-curvature="0"
           style="fill:#2f3030" />
      </g>
    </g>
  </g>
</svg>
