<?xml version="1.0" encoding="UTF-8" standalone="no"?>
<!-- Generator: flash2svg, http://dissentgraphics.com/tools/flash2svg -->

<svg
   xmlns:dc="http://purl.org/dc/elements/1.1/"
   xmlns:cc="http://creativecommons.org/ns#"
   xmlns:rdf="http://www.w3.org/1999/02/22-rdf-syntax-ns#"
   xmlns:svg="http://www.w3.org/2000/svg"
   xmlns="http://www.w3.org/2000/svg"
   xmlns:sodipodi="http://sodipodi.sourceforge.net/DTD/sodipodi-0.dtd"
   xmlns:inkscape="http://www.inkscape.org/namespaces/inkscape"
   id="AvatarAssets"
   image-rendering="auto"
   version="1.1"
   x="0px"
   y="0px"
   width="21.728708"
   height="23.35"
   viewBox="0 0 21.728708 23.35"
   inkscape:version="0.48.4 r9939"
   sodipodi:docname="AvatarAssets_backShirtTorsoA002.svg">
  <metadata
     id="metadata3012">
    <rdf:RDF>
      <cc:Work
         rdf:about="">
        <dc:format>image/svg+xml</dc:format>
        <dc:type
           rdf:resource="http://purl.org/dc/dcmitype/StillImage" />
      </cc:Work>
    </rdf:RDF>
  </metadata>
  <sodipodi:namedview
     pagecolor="#ffffff"
     bordercolor="#666666"
     borderopacity="1"
     objecttolerance="10"
     gridtolerance="10"
     guidetolerance="10"
     inkscape:pageopacity="0"
     inkscape:pageshadow="2"
     inkscape:window-width="640"
     inkscape:window-height="480"
     id="namedview3010"
     showgrid="false"
     fit-margin-top="0"
     fit-margin-left="0"
     fit-margin-right="0"
     fit-margin-bottom="0"
     inkscape:zoom="1.9032258"
     inkscape:cx="42.899"
     inkscape:cy="-65.849"
     inkscape:window-x="0"
     inkscape:window-y="0"
     inkscape:window-maximized="0"
     inkscape:current-layer="AvatarAssets" />
  <defs
     id="defs2998" />
  <g
     id="backShirtTorsoA3"
     overflow="visible"
     style="overflow:visible"
     transform="translate(10.899,27.199)">
    <g
       id="backShirtTorsoA002_0">
      <g
         id="element">
        <g
           id="drawingObject">
          <path
             id="path"
             d="m 10.751,-3.849 c 0,0 0.382,-3.7 -1.09,-7 -1.471,-3.35 -1.975,-8.7 -2.264,-10 -0.339,-1.35 -1.111,-4.55 -3.803,-5.5 q -0.493,-0.85 -3.143,-0.85 c -2.65,0 -5.009,1 -6.168,2.15 -1.211,1.2 -2.102,6 -2.42,8.2 -0.369,2.15 -2.422,8.35 -2.591,10.65 l -0.171,2.35 c 0,0 2.339,-4.5 11.036,-4.2 8.647,0.35 10.614,4.2 10.614,4.2 z"
             inkscape:connector-curvature="0"
             style="fill:#a1e2ff" />
        </g>
        <g
           id="group1">
          <g
             id="drawingObject1">
            <path
               id="path1"
               d="m 10.751,-3.849 q 0.382,-3.7 -1.09,-7 c -1.325,-2.9 -1.837,-7.35 -2.12,-9.35 -0.158,1 -0.267,2 -0.172,2.65 0.137,1.5 -0.024,2.7 1.451,5.7 1.474,3 -2.672,2.5 -7.009,1 -4.287,-1.45 -6.502,0.3 -6.842,-0.85 -0.291,-1.15 1.524,-2.85 5.032,-3.85 2.506,-0.7 4.499,0.15 5.445,0.65 l -1.74,-1.15 c -2.337,-1.5 -5.195,-0.65 -5.195,-0.65 l 1.702,-0.25 -1.702,0.25 0.503,-0.35 c 0.503,-0.3 4.005,-0.5 4.005,-0.5 l -2.146,-0.5 c -2.196,-0.5 -3.856,0.7 -3.989,-1.3 -0.183,-2 1.386,-4.2 2.394,-5.2 0.656,-0.65 3.011,-1.25 5.063,-1.45 -0.249,-0.15 -0.448,-0.3 -0.747,-0.35 0,0 -0.493,-0.85 -3.143,-0.85 -2.65,0 -5.009,1 -6.168,2.15 -1.211,1.2 -2.102,6 -2.42,8.2 -0.369,2.15 -2.422,8.35 -2.591,10.65 l -0.171,2.35 c 0,0 2.339,-4.5 11.036,-4.2 8.647,0.35 10.614,4.2 10.614,4.2 z"
               inkscape:connector-curvature="0"
               style="fill:#91cbe5" />
          </g>
        </g>
        <g
           id="drawingObject2">
          <path
             id="path2"
             d="m 10.751,-3.849 0.006,-0.7 c -0.794,-0.7 -2.435,-1.7 -5.623,-3.15 -7.471,-3.3 -12.505,0.65 -12.505,0.65 l 1.31,-1.15 c 1.359,-1.15 7.362,-1.5 7.362,-1.5 l -3.498,-0.15 c -3.499,-0.2 -5.002,0.15 -4.829,-2.5 0.223,-2.7 3.036,-4.2 3.036,-4.2 l -0.502,0.2 c -0.501,0.15 -1.997,-0.35 -1.977,-2.7 0.02,-2.3 1.882,-3.65 3.749,-5.65 1.261,-1.35 3.566,-1.95 5.867,-2 -0.398,-0.25 -1.196,-0.5 -2.696,-0.5 -2.65,0 -5.009,1 -6.168,2.15 -1.211,1.2 -2.102,6 -2.42,8.2 -0.369,2.15 -2.422,8.35 -2.591,10.65 l -0.171,2.35 c 0,0 2.339,-4.5 11.036,-4.2 8.647,0.35 10.614,4.2 10.614,4.2 z"
             inkscape:connector-curvature="0"
             style="fill:#82b6ce" />
        </g>
      </g>
    </g>
  </g>
</svg>
