<?xml version="1.0" encoding="UTF-8" standalone="no"?>
<!-- Generator: flash2svg, http://dissentgraphics.com/tools/flash2svg -->

<svg
   xmlns:dc="http://purl.org/dc/elements/1.1/"
   xmlns:cc="http://creativecommons.org/ns#"
   xmlns:rdf="http://www.w3.org/1999/02/22-rdf-syntax-ns#"
   xmlns:svg="http://www.w3.org/2000/svg"
   xmlns="http://www.w3.org/2000/svg"
   xmlns:sodipodi="http://sodipodi.sourceforge.net/DTD/sodipodi-0.dtd"
   xmlns:inkscape="http://www.inkscape.org/namespaces/inkscape"
   id="AvatarAssets"
   image-rendering="auto"
   version="1.1"
   x="0px"
   y="0px"
   width="22.723211"
   height="17.067745"
   viewBox="0 0 22.723211 17.067745"
   inkscape:version="0.48.4 r9939"
   sodipodi:docname="AvatarAssets_backPantsTopA007b.svg">
  <metadata
     id="metadata3172">
    <rdf:RDF>
      <cc:Work
         rdf:about="">
        <dc:format>image/svg+xml</dc:format>
        <dc:type
           rdf:resource="http://purl.org/dc/dcmitype/StillImage" />
      </cc:Work>
    </rdf:RDF>
  </metadata>
  <sodipodi:namedview
     pagecolor="#ffffff"
     bordercolor="#666666"
     borderopacity="1"
     objecttolerance="10"
     gridtolerance="10"
     guidetolerance="10"
     inkscape:pageopacity="0"
     inkscape:pageshadow="2"
     inkscape:window-width="640"
     inkscape:window-height="480"
     id="namedview3170"
     showgrid="false"
     fit-margin-top="0"
     fit-margin-left="0"
     fit-margin-right="0"
     fit-margin-bottom="0"
     inkscape:zoom="1.9032258"
     inkscape:cx="43.906464"
     inkscape:cy="-54.343149"
     inkscape:window-x="0"
     inkscape:window-y="0"
     inkscape:window-maximized="0"
     inkscape:current-layer="AvatarAssets" />
  <defs
     id="defs3153" />
  <g
     id="backPantsTopA007b1"
     overflow="visible"
     style="overflow:visible"
     transform="translate(11.906464,9.410895)">
    <g
       id="backPantsTopA007b_0">
      <g
         id="element">
        <path
           id="path"
           d="m -11.299,-7.049 0.2,1.25 c -0.1,0.5 -1.7,4.15 -0.1,7.3 1.6,3.2 5.6,7.1 14.25,5.95 7.1,-1 7.9,-7.2 7.75,-8.5 l -0.6,-5.75 c 0,0 -0.15,-0.7 -1.5,-1.45 -1.3,-0.75 -5.3,-1.5 -11.5,-1 q -3.85,0.3 -6.55,1.3 l -1.95,0.9 z"
           inkscape:connector-curvature="0"
           style="fill:#a40120" />
      </g>
      <g
         id="element1">
        <g
           id="drawingObject1">
          <path
             id="path1"
             d="m 8.801,-3.999 0.05,-4.15 -0.15,-0.1 c -0.25,-0.15 -0.65,-0.3 -1.2,-0.45 l 0,5.5 c 0,2.85 0.4,5.85 -2.2,8.7 -0.75,0.8 -1.4,1.4 -1.9,1.85 l 1.25,-0.25 c 1.95,-1.6 4.05,-4.8 4.15,-11.1 z"
             inkscape:connector-curvature="0"
             style="fill:#e17531" />
        </g>
        <g
           id="drawingObject2">
          <path
             id="path2"
             d="m -3.449,7.301 c -2.25,-1.7 -5.1,-4.25 -5.1,-6.65 q 0,-3.1 0.7,-9.05 l -1.45,0.45 c -0.35,1.4 -0.7,3.5 -0.7,5.25 0,3 0.55,7.2 4.95,9.5 l 0.15,0.1 1.45,0.4 z"
             inkscape:connector-curvature="0"
             style="fill:#e17531" />
        </g>
        <g
           id="drawingObject3">
          <path
             id="path3"
             d="m 2.451,-9.349 c 0.2,1.4 0.45,3.45 0.45,4.85 q 0,6.5 -0.35,8.8 c -0.25,1.35 -1.6,2.5 -3.1,3.3 0.5,0.05 1.05,0.05 1.55,0 1.4,-0.8 2.4,-1.9 2.65,-3.45 0.55,-3.5 0,-10.45 0,-13.45 l -1.2,-0.05 z"
             inkscape:connector-curvature="0"
             style="fill:#e17531" />
        </g>
        <g
           id="drawingObject4">
          <path
             id="path4"
             d="m -4.299,-3.999 c 0,1.7 -0.1,7.4 1.85,11.45 l 0.7,0.1 c -0.7,-1.35 -1.25,-3 -1.25,-5.05 0,-5.85 0.2,-8.7 0.2,-11 l 0,-0.75 -1.9,0.2 c 0.2,1.8 0.4,3.9 0.4,5.05 z"
             inkscape:connector-curvature="0"
             style="fill:#e17531" />
        </g>
      </g>
      <g
         id="element2">
        <path
           id="path5"
           d="m -4.999,-1.899 -1.1,0.85 c 0,0 1.05,-1.5 5.75,-2.45 q 4,-0.8 10.9,-0.05 l -0.35,-3.25 c 0,0 -0.15,-0.7 -1.5,-1.45 -1.3,-0.75 -5.3,-1.5 -11.5,-1 -6.15,0.5 -8.5,2.2 -8.5,2.2 l 1.95,-0.9 -1.95,0.9 0.2,1.25 c -0.1,0.5 -1.7,4.15 -0.1,7.3 1.6,3.2 5.6,7.1 14.25,5.95 5.5,-0.75 7.25,-4.65 7.65,-6.95 l -0.25,-0.8 c -1.8,-5.5 -5.15,3.9 -5.15,3.9 l 1.9,-4 -1.9,4 -1.5,-0.75 c -1.5,-0.75 -7.15,-1.65 -7.15,-1.65 l 3,0.55 -3,-0.55 3,0.05 c 2.45,0 4.3,-1.3 4.3,-1.3 l -5.25,0 c -4.3,0 -4.8,-1 -4.8,-1 l 0.8,0.5"
           inkscape:connector-curvature="0"
           style="fill:#000000;fill-opacity:0.2" />
      </g>
    </g>
  </g>
</svg>
