<?xml version="1.0" encoding="UTF-8" standalone="no"?>
<!-- Generator: flash2svg, http://dissentgraphics.com/tools/flash2svg -->

<svg
   xmlns:dc="http://purl.org/dc/elements/1.1/"
   xmlns:cc="http://creativecommons.org/ns#"
   xmlns:rdf="http://www.w3.org/1999/02/22-rdf-syntax-ns#"
   xmlns:svg="http://www.w3.org/2000/svg"
   xmlns="http://www.w3.org/2000/svg"
   xmlns:sodipodi="http://sodipodi.sourceforge.net/DTD/sodipodi-0.dtd"
   xmlns:inkscape="http://www.inkscape.org/namespaces/inkscape"
   id="AvatarAssets"
   image-rendering="auto"
   version="1.1"
   x="0px"
   y="0px"
   width="22.7875"
   height="24.4"
   viewBox="0 0 22.7875 24.4"
   inkscape:version="0.48.4 r9939"
   sodipodi:docname="AvatarAssets_backShirtTorso20101103White.svg">
  <metadata
     id="metadata3049">
    <rdf:RDF>
      <cc:Work
         rdf:about="">
        <dc:format>image/svg+xml</dc:format>
        <dc:type
           rdf:resource="http://purl.org/dc/dcmitype/StillImage" />
      </cc:Work>
    </rdf:RDF>
  </metadata>
  <sodipodi:namedview
     pagecolor="#ffffff"
     bordercolor="#666666"
     borderopacity="1"
     objecttolerance="10"
     gridtolerance="10"
     guidetolerance="10"
     inkscape:pageopacity="0"
     inkscape:pageshadow="2"
     inkscape:window-width="640"
     inkscape:window-height="480"
     id="namedview3047"
     showgrid="false"
     fit-margin-top="0"
     fit-margin-left="0"
     fit-margin-right="0"
     fit-margin-bottom="0"
     inkscape:zoom="1.9032258"
     inkscape:cx="43.6375"
     inkscape:cy="-63.95"
     inkscape:window-x="0"
     inkscape:window-y="0"
     inkscape:window-maximized="0"
     inkscape:current-layer="AvatarAssets" />
  <defs
     id="defs3037" />
  <g
     id="backShirtTorso20101103White1"
     overflow="visible"
     style="overflow:visible"
     transform="translate(11.6375,26.35)">
    <g
       id="backShirtTorso20101103White_0">
      <g
         id="element">
        <path
           id="path"
           d="m 1,-26.25 -0.2,0 0,0.1 0.2,-0.1 z"
           inkscape:connector-curvature="0"
           style="fill:#202121" />
        <path
           id="path1"
           d="m 0.8,-26.25 0.2,0 q -0.8,-0.1 -1.55,-0.1 c -1.15,0 -2.05,0.15 -2.7,0.45 l -0.3,0.2 c 0.65,0 1.4,-0.05 2.15,-0.15 l 2.2,-0.2 0,-0.1 0,-0.1 z m 1.05,4.35 c -0.1,-0.3 0.1,-0.7 0,-1 -0.45,-1.25 -3.3,-1.9 -4.5,-2 -1,-0.1 -1.8,0.05 -2.6,0.2 -1.15,1 -2.05,2.65 -2.65,5 -0.35,1.4 -0.9,6.95 -2.45,10.45 -0.35,0.7 -0.6,1.45 -0.75,2.25 0.45,0.05 1.05,0 1.8,-0.2 1.95,-0.55 3.85,-0.35 5.9,-0.45 L -4.35,-8.4 c 1.45,-0.05 3.2,0.25 4.55,-0.35 -1.8,-0.4 -3.55,-0.9 -5.25,-1.7 2.15,0.85 5.95,1.55 8,0.05 0.5,-0.35 0.35,-0.65 1.1,-0.75 0.4,-0.05 0.8,0.05 1.15,0.1 0,-0.65 0.45,-2.15 0.25,-2.75 -0.3,-0.9 -1.25,-0.55 -1.95,-1.05 0.55,-0.3 0.45,-0.55 -0.4,-0.75 -0.15,-0.05 -0.25,-0.05 -0.35,-0.05 -0.65,-0.05 -1.45,-0.1 -2.5,-0.05 -1.45,0 -2.35,0 -2.75,0 1.05,-0.45 1.7,-0.4 2.1,-1.35 0.6,-1.5 0,-3.35 0.75,-4.85 0.2,0.4 0.5,1.55 0.9,3.45 0.3,0.9 0.65,1.5 1.05,1.85 0.1,-0.15 0.2,-0.25 0.3,-0.3 0.7,-0.6 1.2,-0.75 1.25,-2.05 0,-1.05 -0.5,-1.6 -1.25,-2.3 -0.35,-0.3 -0.55,-0.15 -0.75,-0.65 z"
           inkscape:connector-curvature="0"
           style="fill:#eaf2f2" />
        <path
           id="path2"
           d="m 1,-26.25 -0.2,0.1 0,0.1 -2.2,0.2 -0.25,0.1 c 1.35,-0.05 2,-0.15 3,0.6 0.85,0.6 1.8,1.3 2.5,1.9 0.2,0.15 0.35,-0.05 0.6,0.25 0.3,0.4 0.1,1.25 0.15,1.7 0,0.95 0.35,1.7 0.5,2.6 0.15,1.2 0.55,2.15 0.7,3.4 0.1,0.9 0.15,1.8 0.4,2.65 0.25,1.05 0.65,2.55 0.15,3.6 -0.6,1.4 -2.3,0.15 -3.5,0.6 0.3,0.1 0.45,0.4 0.6,0.5 -1.4,0.8 -3.7,0.15 -5.25,0.7 -0.5,0.15 -0.8,0.6 -1.25,0.75 -0.5,0.15 -1.25,-0.1 -1.8,-0.05 -0.85,0.1 -1.6,0.55 -2.45,0.65 0.6,0 2,-0.3 2.5,0 l 0.15,0.1 c 0.55,-0.15 1.15,-0.25 1.7,-0.3 l 0.55,-0.05 c 0.65,-0.05 1.3,-0.1 2,-0.15 l 5.85,0.6 c 0.55,0.15 1.1,0.35 1.65,0.6 l 0,-0.05 C 6.85,-5.6 6.6,-6.05 6.35,-6.5 c 0.65,-0.05 1.35,0.05 2,-0.05 0.1,-2.7 -0.9,-5.2 -1.1,-7.9 -0.1,-1.35 0.1,-2.8 -0.15,-4.15 -0.2,-1.2 -0.95,-2.35 -1.5,-3.45 -0.1,-0.25 -0.55,-0.85 -1.3,-1.7 -0.6,-0.7 -0.9,-1.3 -0.95,-1.85 l 0,-0.05 C 3,-25.8 2.65,-25.9 2.25,-25.95 1.8,-26.1 1.4,-26.2 1,-26.25 z"
           inkscape:connector-curvature="0"
           style="fill:#aeb3b3" />
        <path
           id="path3"
           d="m 1.35,-25.15 c -1,-0.75 -1.65,-0.65 -3,-0.6 l 0.25,-0.1 c -0.75,0.1 -1.5,0.15 -2.15,0.15 -0.05,0 -0.1,0 -0.15,0 l -0.2,0.2 c -0.5,0.2 -0.95,0.5 -1.35,0.8 0.8,-0.15 1.6,-0.3 2.6,-0.2 1.2,0.1 4.05,0.75 4.5,2 0.1,0.3 -0.1,0.7 0,1 0.2,0.5 0.4,0.35 0.75,0.65 0.75,0.7 1.25,1.25 1.25,2.3 -0.05,1.3 -0.55,1.45 -1.25,2.05 -0.1,0.05 -0.2,0.15 -0.3,0.3 -0.4,-0.35 -0.75,-0.95 -1.05,-1.85 -0.4,-1.9 -0.7,-3.05 -0.9,-3.45 -0.75,1.5 -0.15,3.35 -0.75,4.85 -0.4,0.95 -1.05,0.9 -2.1,1.35 0.4,0 1.3,0 2.75,0 1.05,-0.05 1.85,0 2.5,0.05 0.1,0 0.2,0 0.35,0.05 0.85,0.2 0.95,0.45 0.4,0.75 0.7,0.5 1.65,0.15 1.95,1.05 0.2,0.6 -0.25,2.1 -0.25,2.75 -0.35,-0.05 -0.75,-0.15 -1.15,-0.1 -0.75,0.1 -0.6,0.4 -1.1,0.75 -2.05,1.5 -5.85,0.8 -8,-0.05 1.7,0.8 3.45,1.3 5.25,1.7 -1.35,0.6 -3.1,0.3 -4.55,0.35 l 0.95,0.75 c -2.05,0.1 -3.95,-0.1 -5.9,0.45 -0.75,0.2 -1.35,0.25 -1.8,0.2 l -0.05,0 c -0.35,1.35 -0.5,2.6 -0.45,3.85 l 0,0.6 c -0.05,0.2 -0.05,0.4 0,0.6 0.05,-0.05 0.05,-0.05 0.1,-0.1 l 0.2,-0.3 c 0.25,-0.35 0.65,-0.7 1.1,-1.05 1.4,-1.1 3.25,-1.9 5.55,-2.4 L -4.8,-5.9 c -0.5,-0.3 -1.9,0 -2.5,0 0.85,-0.1 1.6,-0.55 2.45,-0.65 0.55,-0.05 1.3,0.2 1.8,0.05 0.45,-0.15 0.75,-0.6 1.25,-0.75 1.55,-0.55 3.85,0.1 5.25,-0.7 -0.15,-0.1 -0.3,-0.4 -0.6,-0.5 1.2,-0.45 2.9,0.8 3.5,-0.6 0.5,-1.05 0.1,-2.55 -0.15,-3.6 -0.25,-0.85 -0.3,-1.75 -0.4,-2.65 -0.15,-1.25 -0.55,-2.2 -0.7,-3.4 -0.15,-0.9 -0.5,-1.65 -0.5,-2.6 -0.05,-0.45 0.15,-1.3 -0.15,-1.7 -0.25,-0.3 -0.4,-0.1 -0.6,-0.25 -0.7,-0.6 -1.65,-1.3 -2.5,-1.9 z"
           inkscape:connector-curvature="0"
           style="fill:#d8dede" />
        <path
           id="path4"
           d="m 4.25,-25.2 c -0.3,-0.15 -0.6,-0.3 -0.9,-0.45 l 0,0.05 c 0.05,0.55 0.35,1.15 0.95,1.85 0.75,0.85 1.2,1.45 1.3,1.7 0.55,1.1 1.3,2.25 1.5,3.45 0.25,1.35 0.05,2.8 0.15,4.15 0.2,2.7 1.2,5.2 1.1,7.9 -0.65,0.1 -1.35,0 -2,0.05 0.25,0.45 0.5,0.9 0.75,1.35 l 0,0.05 c 3.05,1.25 4.05,3.15 4.05,3.15 l -0.2,-2.4 C 10.8,-6.8 8.7,-13.25 8.35,-15.55 8,-17.8 7.1,-22.85 5.9,-24.1 c -0.45,-0.45 -1,-0.8 -1.65,-1.1 z"
           inkscape:connector-curvature="0"
           style="fill:#8e9191" />
      </g>
    </g>
  </g>
</svg>
