<?xml version="1.0" encoding="UTF-8" standalone="no"?>
<!-- Generator: flash2svg, http://dissentgraphics.com/tools/flash2svg -->

<svg
   xmlns:dc="http://purl.org/dc/elements/1.1/"
   xmlns:cc="http://creativecommons.org/ns#"
   xmlns:rdf="http://www.w3.org/1999/02/22-rdf-syntax-ns#"
   xmlns:svg="http://www.w3.org/2000/svg"
   xmlns="http://www.w3.org/2000/svg"
   xmlns:sodipodi="http://sodipodi.sourceforge.net/DTD/sodipodi-0.dtd"
   xmlns:inkscape="http://www.inkscape.org/namespaces/inkscape"
   id="AvatarAssets"
   image-rendering="auto"
   version="1.1"
   x="0px"
   y="0px"
   width="22.314226"
   height="16.617279"
   viewBox="0 0 22.314226 16.617279"
   inkscape:version="0.48.4 r9939"
   sodipodi:docname="AvatarAssets_backPantsTopA009.svg">
  <metadata
     id="metadata3227">
    <rdf:RDF>
      <cc:Work
         rdf:about="">
        <dc:format>image/svg+xml</dc:format>
        <dc:type
           rdf:resource="http://purl.org/dc/dcmitype/StillImage" />
      </cc:Work>
    </rdf:RDF>
  </metadata>
  <sodipodi:namedview
     pagecolor="#ffffff"
     bordercolor="#666666"
     borderopacity="1"
     objecttolerance="10"
     gridtolerance="10"
     guidetolerance="10"
     inkscape:pageopacity="0"
     inkscape:pageshadow="2"
     inkscape:window-width="640"
     inkscape:window-height="480"
     id="namedview3225"
     showgrid="false"
     fit-margin-top="0"
     fit-margin-left="0"
     fit-margin-right="0"
     fit-margin-bottom="0"
     inkscape:zoom="1.9032258"
     inkscape:cx="43.696669"
     inkscape:cy="-54.560512"
     inkscape:window-x="0"
     inkscape:window-y="0"
     inkscape:window-maximized="0"
     inkscape:current-layer="AvatarAssets" />
  <defs
     id="defs3208" />
  <g
     id="backPantsTopA10"
     overflow="visible"
     style="overflow:visible"
     transform="translate(11.696669,9.1777919)">
    <g
       id="backPantsTopA009_0">
      <g
         id="element">
        <g
           id="drawingObject">
          <path
             id="path"
             d="m -10.796,-5.999 c 0,0 -1.476,3.45 -0.649,6.95 0.776,3.5 5.11,5.8 9.478,6.3 4.318,0.5 7.148,-0.05 9.214,-1 2.017,-0.9 3.424,-6.25 3.369,-7.75 -0.054,-1.5 -0.391,-3.9 -0.391,-3.9 0,0 -0.736,-1 -1.816,-1.85 -1.646,-1.25 -8.241,-2.5 -12.56,-1.65 q -3.823,0.75 -6.645,2.9 z"
             inkscape:connector-curvature="0"
             style="fill:#d69244" />
        </g>
        <g
           id="drawingObject1">
          <path
             id="path1"
             d="m 1.721,-8.299 0.038,1.05 c 0,0 0.059,0.25 -1.002,-0.05 -1.013,-0.35 -6.827,0.65 -6.827,0.65 l -1.428,0.6 -3.61,2.5 c 0,0 0.705,-1.25 0.448,-1.45 -0.254,-0.1 0.36,-1.1 0.694,-1.55 l -0.83,0.55 c 0,0 -1.476,3.45 -0.649,6.95 0.776,3.5 5.11,5.8 9.478,6.3 4.318,0.5 7.148,-0.05 9.214,-1 2.017,-0.9 3.424,-6.25 3.369,-7.75 l -0.007,-0.2 c -1.172,-0.6 -3.64,-1.1 -5.144,0.15 -1.8,1.4 -2.541,1.65 -4.15,1.4 -1.559,-0.25 -3.288,-1.05 -2.872,-2 0.367,-0.9 1.337,-1.75 3.24,-1.65 l 2.452,0.05 c 0,0 -2.297,-1.3 -4.051,-1.4 l -2.453,-0.1 2.269,-0.85 -2.269,0.85 c 0,0 3.681,-1.9 6.905,-1.25 3.175,0.7 4.027,0.75 4.027,0.75 0,0 -4.053,-1.45 -5.01,-1.65 l -1.832,-0.9 z"
             inkscape:connector-curvature="0"
             style="fill:#000000;fill-opacity:0.047" />
        </g>
        <g
           id="drawingObject2">
          <path
             id="path2"
             d="m 7.797,-0.649 c -1.409,-0.25 -2.964,1 -3.627,3.4 -0.661,2.45 -1.652,2.7 -5.061,2.45 -3.459,-0.25 -2.214,-1.75 -2.214,-1.75 l -0.171,0.8 0.171,-0.8 1.15,0 c 1.15,0 3.084,-0.45 3.084,-0.45 0,0 -0.35,0 -2.968,-0.5 -2.568,-0.5 -1.822,-2 -3.59,-5.25 -1.228,-2.15 -0.171,-3.35 0.9,-4.15 l -1.541,0.25 -1.428,0.6 -3.61,2.5 c 0,0 0.705,-1.25 0.448,-1.45 -0.254,-0.1 0.36,-1.1 0.694,-1.55 l -0.83,0.55 c 0,0 -1.476,3.45 -0.649,6.95 0.776,3.5 5.11,5.8 9.478,6.3 4.318,0.5 7.148,-0.05 9.214,-1 q 1.28,-0.55 2.377,-3.4 C 9.26,1.101 8.553,-0.499 7.797,-0.649 z"
             inkscape:connector-curvature="0"
             style="fill:#000000;fill-opacity:0.08600003" />
        </g>
        <g
           id="drawingObject3">
          <path
             id="path3"
             d="m -7.487,-6.049 0.119,-0.85 q -2.165,0.95 -3.281,1.9 l -0.448,1.45 c 0,0 1.457,-1.2 3.315,-2.35 l 0.295,-0.15 z"
             inkscape:connector-curvature="0"
             style="fill:#613a1f" />
        </g>
        <g
           id="drawingObject4">
          <path
             id="path4"
             d="m 0.768,-7.299 -0.04,-1.1 q -3.105,-0.15 -5.926,0.65 l -1.086,0.4 -0.169,0.85 c 1.728,-0.6 4.117,-0.9 7.221,-0.8 z"
             inkscape:connector-curvature="0"
             style="fill:#7a4c2b" />
        </g>
        <g
           id="drawingObject5">
          <path
             id="path5"
             d="m 10.041,-3.899 -0.124,-0.65 q -0.268,-0.5 -0.943,-1.2 c -0.724,-0.65 -2.045,-1.25 -4.472,-2 l -2.77,-0.55 0.038,1.05 1,0 c 5.062,0.35 7.271,3.35 7.271,3.35 z"
             inkscape:connector-curvature="0"
             style="fill:#7a4c2b" />
        </g>
      </g>
    </g>
  </g>
</svg>
