<?xml version="1.0" encoding="UTF-8" standalone="no"?>
<!-- Generator: flash2svg, http://dissentgraphics.com/tools/flash2svg -->

<svg
   xmlns:dc="http://purl.org/dc/elements/1.1/"
   xmlns:cc="http://creativecommons.org/ns#"
   xmlns:rdf="http://www.w3.org/1999/02/22-rdf-syntax-ns#"
   xmlns:svg="http://www.w3.org/2000/svg"
   xmlns="http://www.w3.org/2000/svg"
   xmlns:sodipodi="http://sodipodi.sourceforge.net/DTD/sodipodi-0.dtd"
   xmlns:inkscape="http://www.inkscape.org/namespaces/inkscape"
   id="AvatarAssets"
   image-rendering="auto"
   version="1.1"
   x="0px"
   y="0px"
   width="43.504436"
   height="49.387501"
   viewBox="0 0 43.504436 49.387501"
   inkscape:version="0.48.4 r9939"
   sodipodi:docname="AvatarAssets_backCapeD006.svg">
  <metadata
     id="metadata28">
    <rdf:RDF>
      <cc:Work
         rdf:about="">
        <dc:format>image/svg+xml</dc:format>
        <dc:type
           rdf:resource="http://purl.org/dc/dcmitype/StillImage" />
      </cc:Work>
    </rdf:RDF>
  </metadata>
  <sodipodi:namedview
     pagecolor="#ffffff"
     bordercolor="#666666"
     borderopacity="1"
     objecttolerance="10"
     gridtolerance="10"
     guidetolerance="10"
     inkscape:pageopacity="0"
     inkscape:pageshadow="2"
     inkscape:window-width="640"
     inkscape:window-height="480"
     id="namedview26"
     showgrid="false"
     fit-margin-top="0"
     fit-margin-left="0"
     fit-margin-right="0"
     fit-margin-bottom="0"
     inkscape:zoom="1.9032258"
     inkscape:cx="61.85"
     inkscape:cy="-38.9"
     inkscape:window-x="0"
     inkscape:window-y="0"
     inkscape:window-maximized="0"
     inkscape:current-layer="AvatarAssets" />
  <defs
     id="defs3" />
  <g
     id="backCapeD7"
     overflow="visible"
     style="overflow:visible"
     transform="translate(29.85,26.2875)">
    <g
       id="backCapeD006_1_1">
      <g
         id="element1">
        <path
           id="path20"
           d="M 0.35,-25.675 Q 0.23,-25.72 0.1,-25.75 c -0.45,-0.1 -0.9,-0.1 -1.4,0 l 0,0.05 c -0.1,0.05 -0.2,0.1 -0.25,0.15 -0.05,0.05 -0.1,0.15 -0.15,0.2 -0.05,0.1 -0.1,0.2 -0.1,0.3 -0.05,0.05 -0.05,0.05 -0.05,0.1 0.05,0.2 0.2,0.3 0.35,0.3 0.45,0 0.85,0 1.3,0.05 0.05,0 0.15,0 0.25,0.05 0.05,0.05 0.05,0.05 0.1,0.1 0.05,0.05 0.05,0.05 0.1,0.1 0.05,0.05 0.1,0.15 0.2,0.2 0.05,0.05 0.15,0.1 0.2,0.1 0.05,0 0.15,0 0.2,0 0.1,-0.05 0.2,-0.05 0.3,-0.05 0.15,-0.05 0.25,-0.05 0.35,-0.1 0.05,-0.05 0.05,-0.05 0.1,-0.1 0.05,-0.05 0.05,-0.1 0.1,-0.15 C 1.55,-24.7 1.4,-24.9 1.25,-25.1 1.15,-25.2 1.05,-25.3 0.9,-25.4 0.85,-25.45 0.8,-25.45 0.8,-25.45 0.65,-25.5 0.5,-25.6 0.4,-25.65 l -0.025,-0.025 -0.025,0 z"
           inkscape:connector-curvature="0"
           style="fill:#9c1814" />
        <path
           id="path21"
           d="m 0.1,-25.75 q 0.13,0.03 0.25,0.075 l 0.025,0 0.025,0.025 c -0.45,-0.25 -0.9,-0.45 -1.3,-0.6 -3.45,0.15 -5.95,1.9 -7.4,5.15 -1.65,3.75 -3,7.3 -4.15,10.65 C -13.6,-7.1 -16.5,-2.8 -21.2,2.5 L -20.65,2 c -0.25,0.25 -0.5,0.55 -0.75,0.8 -0.9,0.95 -1.65,2 -2.25,3.15 -1.65,3.05 -3.3,6.15 -5,9.2 -0.15,0.3 -0.3,0.6 -0.45,0.95 -0.15,0 -0.25,0 -0.35,0.05 -0.05,0.05 -0.05,0.1 -0.1,0.15 -0.05,0.05 -0.05,0.05 -0.05,0.1 0,0.05 0,0.05 -0.05,0.1 0,0.05 0,0.1 -0.05,0.15 -0.05,0.05 -0.05,0.1 -0.1,0.15 -0.05,0.05 -0.05,0.05 -0.05,0.1 0,0.05 0,0.05 0,0.1 1.05,-0.55 2.2,-0.95 3.55,-1.2 4.6,-0.95 7.8,-3.55 9.65,-7.7 0.5,-1.1 1.05,-2.2 1.7,-3.25 0.75,-1.2 1.6,-2.3 2.5,-3.3 0,0.05 0,0.15 -0.05,0.25 0.05,-0.15 0.1,-0.25 0.15,-0.35 0.15,-0.35 0.3,-0.65 0.55,-0.8 -0.1,1.6 -0.5,3.25 -1.15,4.9 -1.3,3.2 -1.55,6.4 -0.7,9.55 0.1,0.45 0.4,0.75 0.95,0.85 2.25,0.35 4.15,1.15 5.8,2.45 4.65,-0.95 7.3,-3.7 7.85,-8.25 C 1.6,5.1 2.05,0 2.2,-5.15 c 0.15,-3.6 0.5,-7 1.05,-10.2 0.05,0.15 0.05,0.35 0.05,0.5 0.05,-0.15 0.15,-0.2 0.3,-0.2 0.55,3.7 1.05,7.45 1.4,11.3 C 5.35,0 5.85,3.7 6.5,7.35 6.7,8.4 6.9,9.4 7.15,10.4 7.2,10.75 7.3,11.15 7.35,11.5 7.4,11.3 7.45,11.1 7.5,10.9 8,9.2 8.3,7.45 8.45,5.65 8.85,-0.4 8.7,-6.5 8,-12.55 7.65,-15.5 6.9,-18.35 5.8,-21 c -0.6,-1.4 -1.55,-2.5 -2.9,-3.3 -0.75,-0.45 -1.45,-0.8 -2.1,-1.15 0,0 0.05,0 0.1,0.05 0.15,0.1 0.25,0.2 0.35,0.3 0.15,0.2 0.3,0.4 0.45,0.65 -0.05,0.05 -0.05,0.1 -0.1,0.15 -0.05,0.05 -0.05,0.05 -0.1,0.1 -0.1,0.05 -0.2,0.05 -0.35,0.1 -0.1,0 -0.2,0 -0.3,0.05 -0.05,0 -0.15,0 -0.2,0 -0.05,0 -0.15,-0.05 -0.2,-0.1 -0.1,-0.05 -0.15,-0.15 -0.2,-0.2 -0.05,-0.05 -0.05,-0.05 -0.1,-0.1 -0.05,-0.05 -0.05,-0.05 -0.1,-0.1 -0.1,-0.05 -0.2,-0.05 -0.25,-0.05 -0.45,-0.05 -0.85,-0.05 -1.3,-0.05 -0.15,0 -0.3,-0.1 -0.35,-0.3 0,-0.05 0,-0.05 0.05,-0.1 0,-0.1 0.05,-0.2 0.1,-0.3 0.05,-0.05 0.1,-0.15 0.15,-0.2 0.05,-0.05 0.15,-0.1 0.25,-0.15 l 0,-0.05 c 0.5,-0.1 0.95,-0.1 1.4,0 z m 1.1,4.8 c 0.05,-0.4 0.15,-0.75 0.35,-1 0.45,1.15 0.65,2.4 0.55,3.75 0,0.1 0,0.2 0,0.3 -0.05,0.7 -0.1,1.4 -0.1,2.05 0,0.55 0.05,1.05 0.1,1.55 0.1,0.75 0.05,1.5 -0.15,2.25 -0.1,-0.05 -0.2,-0.05 -0.35,-0.1 -0.15,-0.05 -0.25,-0.2 -0.3,-0.35 0,-0.1 0,-0.2 0,-0.25 -0.25,-0.1 -0.45,0.05 -0.7,0.4 -0.2,0.3 -0.4,0.6 -0.6,0.85 -0.05,0.05 -0.15,0.1 -0.2,0.15 -0.35,-1.25 -0.3,-2.6 0.15,-4.05 0.4,-1.35 0.7,-2.7 0.85,-4.15 0.05,-0.65 0.15,-1.3 0.25,-1.95 0.05,0.15 0.1,0.35 0.15,0.55 z m -4.25,-2.8 c -0.15,0.55 -0.45,1.1 -0.9,1.6 -0.5,0.55 -0.9,1.2 -1.2,1.9 -0.25,0.7 -0.4,1.4 -0.4,2.1 -0.15,0.25 -0.3,0.5 -0.35,0.75 -0.05,0.35 -0.15,0.75 -0.2,1.15 -0.1,0.45 -0.15,0.95 -0.1,1.4 0.05,0.25 -0.05,0.4 -0.3,0.5 -0.05,-0.05 -0.1,-0.15 -0.15,-0.25 -0.1,-0.25 -0.15,-0.45 -0.15,-0.7 0,-0.25 0,-0.55 0,-0.8 0,-0.2 0.05,-0.4 0.1,-0.6 -0.25,0.15 -0.5,0.45 -0.8,0.9 -0.35,0.45 -0.65,0.95 -0.95,1.45 -0.25,0.5 -0.6,0.7 -1.05,0.65 -0.05,-0.35 -0.05,-0.7 0.1,-1 0.15,-0.35 0.3,-0.75 0.45,-1.15 0.15,-0.45 0.35,-0.85 0.6,-1.3 0.05,-0.1 0.1,-0.2 0.15,-0.3 -0.05,-0.7 0.1,-1.45 0.4,-2.2 0.45,-1.05 1.05,-2 1.75,-2.85 0.55,-0.65 1.25,-1.15 2.05,-1.4 0.25,0 0.45,0 0.65,0.05 0.1,0 0.2,0.05 0.3,0.1 z M -8.5,19.6 c 0.9,0.15 1.8,0.2 2.75,0.25 -0.5,-0.15 -1,-0.3 -1.5,-0.45 -0.45,0.05 -0.85,0.15 -1.25,0.2 z"
           inkscape:connector-curvature="0"
           style="fill:#c21d1a" />
        <path
           id="path22"
           d="m 1.2,-20.95 c -0.05,-0.2 -0.1,-0.4 -0.15,-0.55 -0.1,0.65 -0.2,1.3 -0.25,1.95 -0.15,1.45 -0.45,2.8 -0.85,4.15 -0.45,1.45 -0.5,2.8 -0.15,4.05 0.05,-0.05 0.15,-0.1 0.2,-0.15 0.2,-0.25 0.4,-0.55 0.6,-0.85 0.25,-0.35 0.45,-0.5 0.7,-0.4 0,0.05 0,0.15 0,0.25 0.05,0.15 0.15,0.3 0.3,0.35 0.15,0.05 0.25,0.05 0.35,0.1 0.2,-0.75 0.25,-1.5 0.15,-2.25 -0.05,-0.5 -0.1,-1 -0.1,-1.55 0,-0.65 0.05,-1.35 0.1,-2.05 0,-0.1 0,-0.2 0,-0.3 0.1,-1.35 -0.1,-2.6 -0.55,-3.75 -0.2,0.25 -0.3,0.6 -0.35,1 z"
           inkscape:connector-curvature="0"
           style="fill:#cd2520" />
        <path
           id="path25"
           d="m -3.05,-23.75 c -0.1,-0.05 -0.2,-0.1 -0.3,-0.1 -0.2,-0.05 -0.4,-0.05 -0.65,-0.05 -0.8,0.25 -1.5,0.75 -2.05,1.4 -0.7,0.85 -1.3,1.8 -1.75,2.85 -0.3,0.75 -0.45,1.5 -0.4,2.2 -0.05,0.1 -0.1,0.2 -0.15,0.3 -0.25,0.45 -0.45,0.85 -0.6,1.3 -0.15,0.4 -0.3,0.8 -0.45,1.15 -0.15,0.3 -0.15,0.65 -0.1,1 0.45,0.05 0.8,-0.15 1.05,-0.65 0.3,-0.5 0.6,-1 0.95,-1.45 0.3,-0.45 0.55,-0.75 0.8,-0.9 -0.05,0.2 -0.1,0.4 -0.1,0.6 0,0.25 0,0.55 0,0.8 0,0.25 0.05,0.45 0.15,0.7 0.05,0.1 0.1,0.2 0.15,0.25 0.25,-0.1 0.35,-0.25 0.3,-0.5 -0.05,-0.45 0,-0.95 0.1,-1.4 0.05,-0.4 0.15,-0.8 0.2,-1.15 0.05,-0.25 0.2,-0.5 0.35,-0.75 0,-0.7 0.15,-1.4 0.4,-2.1 0.3,-0.7 0.7,-1.35 1.2,-1.9 0.45,-0.5 0.75,-1.05 0.9,-1.6 z"
           inkscape:connector-curvature="0"
           style="fill:#cd2520" />
        <path
           id="path28"
           d="m 0.4,-25.65 c 0.1,0.05 0.25,0.15 0.4,0.2 0.65,0.35 1.35,0.7 2.1,1.15 1.35,0.8 2.3,1.9 2.9,3.3 1.1,2.65 1.85,5.5 2.2,8.45 C 8.7,-6.5 8.85,-0.4 8.45,5.65 8.3,7.45 8,9.2 7.5,10.9 7.45,11.1 7.4,11.3 7.35,11.5 7.3,11.15 7.2,10.75 7.15,10.4 6.9,9.4 6.7,8.4 6.5,7.35 5.85,3.7 5.35,0 5,-3.75 4.65,-7.6 4.15,-11.35 3.6,-15.05 c -0.15,0 -0.25,0.05 -0.3,0.2 0,-0.15 0,-0.35 -0.05,-0.5 -0.55,3.2 -0.9,6.6 -1.05,10.2 C 2.05,0 1.6,5.1 0.95,10.15 c -0.55,4.55 -3.2,7.3 -7.85,8.25 -1.65,-1.3 -3.55,-2.1 -5.8,-2.45 -0.55,-0.1 -0.85,-0.4 -0.95,-0.85 -0.85,-3.15 -0.6,-6.35 0.7,-9.55 0.65,-1.65 1.05,-3.3 1.15,-4.9 -0.25,0.15 -0.4,0.45 -0.55,0.8 -0.05,0.1 -0.1,0.2 -0.15,0.35 0.05,-0.1 0.05,-0.2 0.05,-0.25 -0.9,1 -1.75,2.1 -2.5,3.3 -0.65,1.05 -1.2,2.15 -1.7,3.25 -1.85,4.15 -5.05,6.75 -9.65,7.7 -1.35,0.25 -2.5,0.65 -3.55,1.2 0,0.05 0,0.05 0.05,0.1 0,0.05 0,0.05 0.05,0.05 0.05,0 0.1,0 0.15,0 0.05,0 0.15,0 0.25,-0.05 0.05,-0.05 0.1,-0.05 0.15,-0.1 0.05,-0.05 0.1,-0.05 0.15,-0.1 0.05,-0.05 0.05,-0.1 0.1,-0.15 0.05,-0.05 0.05,-0.05 0.1,-0.1 1.6,-0.35 3.2,-0.5 4.75,-0.5 3.65,-0.1 7.3,0.6 10.9,2.1 0.6,0.25 1.2,0.45 1.8,0.65 0.95,0.3 1.9,0.55 2.9,0.7 0.4,-0.05 0.8,-0.15 1.25,-0.2 0.5,0.15 1,0.3 1.5,0.45 0.15,0 0.3,0 0.45,0 1.75,0 3.55,-0.25 5.4,-0.75 C 4.4,17.9 8,18.9 10.85,22.05 10.8,22.4 10.8,22.75 10.75,23.1 13.2,17.65 14.1,11.85 13.45,5.6 12.75,-1.3 11.7,-8.1 10.25,-14.75 9.7,-17.1 9,-19.45 8.1,-21.75 7.75,-22.6 7.15,-23.4 6.4,-24.05 5.55,-24.8 4.6,-25.3 3.55,-25.55 c 0.4,0.25 0.8,0.5 1.2,0.8 -0.25,-0.1 -0.45,-0.2 -0.7,-0.35 -0.3,-0.15 -0.6,-0.3 -0.9,-0.4 -0.15,-0.05 -0.25,-0.05 -0.4,-0.1 -0.7,-0.2 -1.4,-0.4 -2.05,-0.65 -0.55,-0.05 -1.1,-0.05 -1.6,0 0.4,0.15 0.85,0.35 1.3,0.6 z M 10.35,2.7 c 0.05,-0.05 0.15,-0.05 0.2,-0.05 0.3,2 0.4,4.05 0.3,6.2 -0.05,2.05 -0.25,4.1 -0.5,6.1 C 10.2,16.2 9.75,17.25 9,18 8.4,16.15 8.3,14.15 8.75,12.05 9.1,10.15 9.5,8.2 9.9,6.25 10.15,5.2 10.2,4.2 10.05,3.2 10.15,3.15 10.2,3.1 10.2,3.05 10.25,3 10.25,2.9 10.3,2.8 c 0,-0.05 0,-0.05 0.05,-0.1 z m -5.6,3.1 c 0.45,1.4 0.8,2.85 1.1,4.4 0.3,1.45 0.6,2.9 0.9,4.4 0.2,0.95 0.05,1.75 -0.45,2.45 C 4.5,16.35 3.9,14.9 4.55,12.7 5,11.15 5,9.5 4.6,7.8 4.45,7 4.5,6.35 4.75,5.8 z M -15.4,9.15 c 0.1,-0.35 0.25,-0.65 0.5,-0.85 0.05,0.75 -0.1,1.75 -0.5,2.95 -0.4,1.2 -0.7,2.15 -0.85,2.9 -0.15,0.75 -0.6,1.2 -1.35,1.35 -0.25,-0.05 -0.35,-0.15 -0.4,-0.3 -0.05,-0.1 -0.1,-0.2 -0.15,-0.25 -0.05,-0.1 -0.15,-0.2 -0.2,-0.25 0.55,-0.9 1.1,-1.8 1.65,-2.75 0.6,-0.9 1.05,-1.85 1.3,-2.8 z"
           inkscape:connector-curvature="0"
           style="fill:#b11b18" />
        <path
           id="path29"
           d="M 10.35,2.7 C 10.3,2.75 10.3,2.75 10.3,2.8 10.25,2.9 10.25,3 10.2,3.05 c 0,0.05 -0.05,0.1 -0.15,0.15 0.15,1 0.1,2 -0.15,3.05 C 9.5,8.2 9.1,10.15 8.75,12.05 8.3,14.15 8.4,16.15 9,18 c 0.75,-0.75 1.2,-1.8 1.35,-3.05 0.25,-2 0.45,-4.05 0.5,-6.1 0.1,-2.15 0,-4.2 -0.3,-6.2 -0.05,0 -0.15,0 -0.2,0.05 z"
           inkscape:connector-curvature="0"
           style="fill:#9c1814" />
        <path
           id="path32"
           d="M 4.75,5.8 C 4.5,6.35 4.45,7 4.6,7.8 5,9.5 5,11.15 4.55,12.7 3.9,14.9 4.5,16.35 6.3,17.05 6.8,16.35 6.95,15.55 6.75,14.6 6.45,13.1 6.15,11.65 5.85,10.2 5.55,8.65 5.2,7.2 4.75,5.8 z"
           inkscape:connector-curvature="0"
           style="fill:#9c1814" />
        <path
           id="path35"
           d="m -15.4,9.15 c -0.25,0.95 -0.7,1.9 -1.3,2.8 -0.55,0.95 -1.1,1.85 -1.65,2.75 0.05,0.05 0.15,0.15 0.2,0.25 0.05,0.05 0.1,0.15 0.15,0.25 0.05,0.15 0.15,0.25 0.4,0.3 0.75,-0.15 1.2,-0.6 1.35,-1.35 0.15,-0.75 0.45,-1.7 0.85,-2.9 0.4,-1.2 0.55,-2.2 0.5,-2.95 -0.25,0.2 -0.4,0.5 -0.5,0.85 z"
           inkscape:connector-curvature="0"
           style="fill:#9c1814" />
      </g>
    </g>
    <g
       id="backCapeD006_1_0">
      <g
         id="element">
        <path
           id="path"
           d="M 0.35,-25.675 Q 0.23,-25.72 0.1,-25.75 c -0.45,-0.1 -0.9,-0.1 -1.4,0 l 0,0.05 c -0.1,0.05 -0.2,0.1 -0.25,0.15 -0.05,0.05 -0.1,0.15 -0.15,0.2 -0.05,0.1 -0.1,0.2 -0.1,0.3 -0.05,0.05 -0.05,0.05 -0.05,0.1 0.05,0.2 0.2,0.3 0.35,0.3 0.45,0 0.85,0 1.3,0.05 0.05,0 0.15,0 0.25,0.05 0.05,0.05 0.05,0.05 0.1,0.1 0.05,0.05 0.05,0.05 0.1,0.1 0.05,0.05 0.1,0.15 0.2,0.2 0.05,0.05 0.15,0.1 0.2,0.1 0.05,0 0.15,0 0.2,0 0.1,-0.05 0.2,-0.05 0.3,-0.05 0.15,-0.05 0.25,-0.05 0.35,-0.1 0.05,-0.05 0.05,-0.05 0.1,-0.1 0.05,-0.05 0.05,-0.1 0.1,-0.15 C 1.55,-24.7 1.4,-24.9 1.25,-25.1 1.15,-25.2 1.05,-25.3 0.9,-25.4 0.85,-25.45 0.8,-25.45 0.8,-25.45 0.65,-25.5 0.5,-25.6 0.4,-25.65 l -0.025,-0.025 -0.025,0 z"
           inkscape:connector-curvature="0"
           style="fill:#9c1814" />
        <path
           id="path1"
           d="m 0.1,-25.75 q 0.13,0.03 0.25,0.075 l 0.025,0 0.025,0.025 c -0.45,-0.25 -0.9,-0.45 -1.3,-0.6 -3.45,0.15 -5.95,1.9 -7.4,5.15 -1.65,3.75 -3,7.3 -4.15,10.65 C -13.6,-7.1 -16.5,-2.8 -21.2,2.5 L -20.65,2 c -0.25,0.25 -0.5,0.55 -0.75,0.8 -0.9,0.95 -1.65,2 -2.25,3.15 -1.65,3.05 -3.3,6.15 -5,9.2 -0.15,0.3 -0.3,0.6 -0.45,0.95 -0.15,0 -0.25,0 -0.35,0.05 -0.05,0.05 -0.05,0.1 -0.1,0.15 -0.05,0.05 -0.05,0.05 -0.05,0.1 0,0.05 0,0.05 -0.05,0.1 0,0.05 0,0.1 -0.05,0.15 -0.05,0.05 -0.05,0.1 -0.1,0.15 -0.05,0.05 -0.05,0.05 -0.05,0.1 0,0.05 0,0.05 0,0.1 1.05,-0.55 2.2,-0.95 3.55,-1.2 4.6,-0.95 7.8,-3.55 9.65,-7.7 0.5,-1.1 1.05,-2.2 1.7,-3.25 0.75,-1.2 1.6,-2.3 2.5,-3.3 0,0.05 0,0.15 -0.05,0.25 0.05,-0.15 0.1,-0.25 0.15,-0.35 0.15,-0.35 0.3,-0.65 0.55,-0.8 -0.1,1.6 -0.5,3.25 -1.15,4.9 -1.3,3.2 -1.55,6.4 -0.7,9.55 0.1,0.45 0.4,0.75 0.95,0.85 2.25,0.35 4.15,1.15 5.8,2.45 4.65,-0.95 7.3,-3.7 7.85,-8.25 C 1.6,5.1 2.05,0 2.2,-5.15 c 0.15,-3.6 0.5,-7 1.05,-10.2 0.05,0.15 0.05,0.35 0.05,0.5 0.05,-0.15 0.15,-0.2 0.3,-0.2 0.55,3.7 1.05,7.45 1.4,11.3 C 5.35,0 5.85,3.7 6.5,7.35 6.7,8.4 6.9,9.4 7.15,10.4 7.2,10.75 7.3,11.15 7.35,11.5 7.4,11.3 7.45,11.1 7.5,10.9 8,9.2 8.3,7.45 8.45,5.65 8.85,-0.4 8.7,-6.5 8,-12.55 7.65,-15.5 6.9,-18.35 5.8,-21 c -0.6,-1.4 -1.55,-2.5 -2.9,-3.3 -0.75,-0.45 -1.45,-0.8 -2.1,-1.15 0,0 0.05,0 0.1,0.05 0.15,0.1 0.25,0.2 0.35,0.3 0.15,0.2 0.3,0.4 0.45,0.65 -0.05,0.05 -0.05,0.1 -0.1,0.15 -0.05,0.05 -0.05,0.05 -0.1,0.1 -0.1,0.05 -0.2,0.05 -0.35,0.1 -0.1,0 -0.2,0 -0.3,0.05 -0.05,0 -0.15,0 -0.2,0 -0.05,0 -0.15,-0.05 -0.2,-0.1 -0.1,-0.05 -0.15,-0.15 -0.2,-0.2 -0.05,-0.05 -0.05,-0.05 -0.1,-0.1 -0.05,-0.05 -0.05,-0.05 -0.1,-0.1 -0.1,-0.05 -0.2,-0.05 -0.25,-0.05 -0.45,-0.05 -0.85,-0.05 -1.3,-0.05 -0.15,0 -0.3,-0.1 -0.35,-0.3 0,-0.05 0,-0.05 0.05,-0.1 0,-0.1 0.05,-0.2 0.1,-0.3 0.05,-0.05 0.1,-0.15 0.15,-0.2 0.05,-0.05 0.15,-0.1 0.25,-0.15 l 0,-0.05 c 0.5,-0.1 0.95,-0.1 1.4,0 z m 1.1,4.8 c 0.05,-0.4 0.15,-0.75 0.35,-1 0.45,1.15 0.65,2.4 0.55,3.75 0,0.1 0,0.2 0,0.3 -0.05,0.7 -0.1,1.4 -0.1,2.05 0,0.55 0.05,1.05 0.1,1.55 0.1,0.75 0.05,1.5 -0.15,2.25 -0.1,-0.05 -0.2,-0.05 -0.35,-0.1 -0.15,-0.05 -0.25,-0.2 -0.3,-0.35 0,-0.1 0,-0.2 0,-0.25 -0.25,-0.1 -0.45,0.05 -0.7,0.4 -0.2,0.3 -0.4,0.6 -0.6,0.85 -0.05,0.05 -0.15,0.1 -0.2,0.15 -0.35,-1.25 -0.3,-2.6 0.15,-4.05 0.4,-1.35 0.7,-2.7 0.85,-4.15 0.05,-0.65 0.15,-1.3 0.25,-1.95 0.05,0.15 0.1,0.35 0.15,0.55 z m -4.25,-2.8 c -0.15,0.55 -0.45,1.1 -0.9,1.6 -0.5,0.55 -0.9,1.2 -1.2,1.9 -0.25,0.7 -0.4,1.4 -0.4,2.1 -0.15,0.25 -0.3,0.5 -0.35,0.75 -0.05,0.35 -0.15,0.75 -0.2,1.15 -0.1,0.45 -0.15,0.95 -0.1,1.4 0.05,0.25 -0.05,0.4 -0.3,0.5 -0.05,-0.05 -0.1,-0.15 -0.15,-0.25 -0.1,-0.25 -0.15,-0.45 -0.15,-0.7 0,-0.25 0,-0.55 0,-0.8 0,-0.2 0.05,-0.4 0.1,-0.6 -0.25,0.15 -0.5,0.45 -0.8,0.9 -0.35,0.45 -0.65,0.95 -0.95,1.45 -0.25,0.5 -0.6,0.7 -1.05,0.65 -0.05,-0.35 -0.05,-0.7 0.1,-1 0.15,-0.35 0.3,-0.75 0.45,-1.15 0.15,-0.45 0.35,-0.85 0.6,-1.3 0.05,-0.1 0.1,-0.2 0.15,-0.3 -0.05,-0.7 0.1,-1.45 0.4,-2.2 0.45,-1.05 1.05,-2 1.75,-2.85 0.55,-0.65 1.25,-1.15 2.05,-1.4 0.25,0 0.45,0 0.65,0.05 0.1,0 0.2,0.05 0.3,0.1 z M -8.5,19.6 c 0.9,0.15 1.8,0.2 2.75,0.25 -0.5,-0.15 -1,-0.3 -1.5,-0.45 -0.45,0.05 -0.85,0.15 -1.25,0.2 z"
           inkscape:connector-curvature="0"
           style="fill:#c21d1a" />
        <path
           id="path2"
           d="m 1.2,-20.95 c -0.05,-0.2 -0.1,-0.4 -0.15,-0.55 -0.1,0.65 -0.2,1.3 -0.25,1.95 -0.15,1.45 -0.45,2.8 -0.85,4.15 -0.45,1.45 -0.5,2.8 -0.15,4.05 0.05,-0.05 0.15,-0.1 0.2,-0.15 0.2,-0.25 0.4,-0.55 0.6,-0.85 0.25,-0.35 0.45,-0.5 0.7,-0.4 0,0.05 0,0.15 0,0.25 0.05,0.15 0.15,0.3 0.3,0.35 0.15,0.05 0.25,0.05 0.35,0.1 0.2,-0.75 0.25,-1.5 0.15,-2.25 -0.05,-0.5 -0.1,-1 -0.1,-1.55 0,-0.65 0.05,-1.35 0.1,-2.05 0,-0.1 0,-0.2 0,-0.3 0.1,-1.35 -0.1,-2.6 -0.55,-3.75 -0.2,0.25 -0.3,0.6 -0.35,1 z"
           inkscape:connector-curvature="0"
           style="fill:#cd2520" />
        <path
           id="path5"
           d="m -3.05,-23.75 c -0.1,-0.05 -0.2,-0.1 -0.3,-0.1 -0.2,-0.05 -0.4,-0.05 -0.65,-0.05 -0.8,0.25 -1.5,0.75 -2.05,1.4 -0.7,0.85 -1.3,1.8 -1.75,2.85 -0.3,0.75 -0.45,1.5 -0.4,2.2 -0.05,0.1 -0.1,0.2 -0.15,0.3 -0.25,0.45 -0.45,0.85 -0.6,1.3 -0.15,0.4 -0.3,0.8 -0.45,1.15 -0.15,0.3 -0.15,0.65 -0.1,1 0.45,0.05 0.8,-0.15 1.05,-0.65 0.3,-0.5 0.6,-1 0.95,-1.45 0.3,-0.45 0.55,-0.75 0.8,-0.9 -0.05,0.2 -0.1,0.4 -0.1,0.6 0,0.25 0,0.55 0,0.8 0,0.25 0.05,0.45 0.15,0.7 0.05,0.1 0.1,0.2 0.15,0.25 0.25,-0.1 0.35,-0.25 0.3,-0.5 -0.05,-0.45 0,-0.95 0.1,-1.4 0.05,-0.4 0.15,-0.8 0.2,-1.15 0.05,-0.25 0.2,-0.5 0.35,-0.75 0,-0.7 0.15,-1.4 0.4,-2.1 0.3,-0.7 0.7,-1.35 1.2,-1.9 0.45,-0.5 0.75,-1.05 0.9,-1.6 z"
           inkscape:connector-curvature="0"
           style="fill:#cd2520" />
        <path
           id="path8"
           d="m 0.4,-25.65 c 0.1,0.05 0.25,0.15 0.4,0.2 0.65,0.35 1.35,0.7 2.1,1.15 1.35,0.8 2.3,1.9 2.9,3.3 1.1,2.65 1.85,5.5 2.2,8.45 C 8.7,-6.5 8.85,-0.4 8.45,5.65 8.3,7.45 8,9.2 7.5,10.9 7.45,11.1 7.4,11.3 7.35,11.5 7.3,11.15 7.2,10.75 7.15,10.4 6.9,9.4 6.7,8.4 6.5,7.35 5.85,3.7 5.35,0 5,-3.75 4.65,-7.6 4.15,-11.35 3.6,-15.05 c -0.15,0 -0.25,0.05 -0.3,0.2 0,-0.15 0,-0.35 -0.05,-0.5 -0.55,3.2 -0.9,6.6 -1.05,10.2 C 2.05,0 1.6,5.1 0.95,10.15 c -0.55,4.55 -3.2,7.3 -7.85,8.25 -1.65,-1.3 -3.55,-2.1 -5.8,-2.45 -0.55,-0.1 -0.85,-0.4 -0.95,-0.85 -0.85,-3.15 -0.6,-6.35 0.7,-9.55 0.65,-1.65 1.05,-3.3 1.15,-4.9 -0.25,0.15 -0.4,0.45 -0.55,0.8 -0.05,0.1 -0.1,0.2 -0.15,0.35 0.05,-0.1 0.05,-0.2 0.05,-0.25 -0.9,1 -1.75,2.1 -2.5,3.3 -0.65,1.05 -1.2,2.15 -1.7,3.25 -1.85,4.15 -5.05,6.75 -9.65,7.7 -1.35,0.25 -2.5,0.65 -3.55,1.2 0,0.05 0,0.05 0.05,0.1 0,0.05 0,0.05 0.05,0.05 0.05,0 0.1,0 0.15,0 0.05,0 0.15,0 0.25,-0.05 0.05,-0.05 0.1,-0.05 0.15,-0.1 0.05,-0.05 0.1,-0.05 0.15,-0.1 0.05,-0.05 0.05,-0.1 0.1,-0.15 0.05,-0.05 0.05,-0.05 0.1,-0.1 1.6,-0.35 3.2,-0.5 4.75,-0.5 3.65,-0.1 7.3,0.6 10.9,2.1 0.6,0.25 1.2,0.45 1.8,0.65 0.95,0.3 1.9,0.55 2.9,0.7 0.4,-0.05 0.8,-0.15 1.25,-0.2 0.5,0.15 1,0.3 1.5,0.45 0.15,0 0.3,0 0.45,0 1.75,0 3.55,-0.25 5.4,-0.75 C 4.4,17.9 8,18.9 10.85,22.05 10.8,22.4 10.8,22.75 10.75,23.1 13.2,17.65 14.1,11.85 13.45,5.6 12.75,-1.3 11.7,-8.1 10.25,-14.75 9.7,-17.1 9,-19.45 8.1,-21.75 7.75,-22.6 7.15,-23.4 6.4,-24.05 5.55,-24.8 4.6,-25.3 3.55,-25.55 c 0.4,0.25 0.8,0.5 1.2,0.8 -0.25,-0.1 -0.45,-0.2 -0.7,-0.35 -0.3,-0.15 -0.6,-0.3 -0.9,-0.4 -0.15,-0.05 -0.25,-0.05 -0.4,-0.1 -0.7,-0.2 -1.4,-0.4 -2.05,-0.65 -0.55,-0.05 -1.1,-0.05 -1.6,0 0.4,0.15 0.85,0.35 1.3,0.6 z M 10.35,2.7 c 0.05,-0.05 0.15,-0.05 0.2,-0.05 0.3,2 0.4,4.05 0.3,6.2 -0.05,2.05 -0.25,4.1 -0.5,6.1 C 10.2,16.2 9.75,17.25 9,18 8.4,16.15 8.3,14.15 8.75,12.05 9.1,10.15 9.5,8.2 9.9,6.25 10.15,5.2 10.2,4.2 10.05,3.2 10.15,3.15 10.2,3.1 10.2,3.05 10.25,3 10.25,2.9 10.3,2.8 c 0,-0.05 0,-0.05 0.05,-0.1 z m -5.6,3.1 c 0.45,1.4 0.8,2.85 1.1,4.4 0.3,1.45 0.6,2.9 0.9,4.4 0.2,0.95 0.05,1.75 -0.45,2.45 C 4.5,16.35 3.9,14.9 4.55,12.7 5,11.15 5,9.5 4.6,7.8 4.45,7 4.5,6.35 4.75,5.8 z M -15.4,9.15 c 0.1,-0.35 0.25,-0.65 0.5,-0.85 0.05,0.75 -0.1,1.75 -0.5,2.95 -0.4,1.2 -0.7,2.15 -0.85,2.9 -0.15,0.75 -0.6,1.2 -1.35,1.35 -0.25,-0.05 -0.35,-0.15 -0.4,-0.3 -0.05,-0.1 -0.1,-0.2 -0.15,-0.25 -0.05,-0.1 -0.15,-0.2 -0.2,-0.25 0.55,-0.9 1.1,-1.8 1.65,-2.75 0.6,-0.9 1.05,-1.85 1.3,-2.8 z"
           inkscape:connector-curvature="0"
           style="fill:#b11b18" />
        <path
           id="path9"
           d="M 10.35,2.7 C 10.3,2.75 10.3,2.75 10.3,2.8 10.25,2.9 10.25,3 10.2,3.05 c 0,0.05 -0.05,0.1 -0.15,0.15 0.15,1 0.1,2 -0.15,3.05 C 9.5,8.2 9.1,10.15 8.75,12.05 8.3,14.15 8.4,16.15 9,18 c 0.75,-0.75 1.2,-1.8 1.35,-3.05 0.25,-2 0.45,-4.05 0.5,-6.1 0.1,-2.15 0,-4.2 -0.3,-6.2 -0.05,0 -0.15,0 -0.2,0.05 z"
           inkscape:connector-curvature="0"
           style="fill:#9c1814" />
        <path
           id="path12"
           d="M 4.75,5.8 C 4.5,6.35 4.45,7 4.6,7.8 5,9.5 5,11.15 4.55,12.7 3.9,14.9 4.5,16.35 6.3,17.05 6.8,16.35 6.95,15.55 6.75,14.6 6.45,13.1 6.15,11.65 5.85,10.2 5.55,8.65 5.2,7.2 4.75,5.8 z"
           inkscape:connector-curvature="0"
           style="fill:#9c1814" />
        <path
           id="path15"
           d="m -15.4,9.15 c -0.25,0.95 -0.7,1.9 -1.3,2.8 -0.55,0.95 -1.1,1.85 -1.65,2.75 0.05,0.05 0.15,0.15 0.2,0.25 0.05,0.05 0.1,0.15 0.15,0.25 0.05,0.15 0.15,0.25 0.4,0.3 0.75,-0.15 1.2,-0.6 1.35,-1.35 0.15,-0.75 0.45,-1.7 0.85,-2.9 0.4,-1.2 0.55,-2.2 0.5,-2.95 -0.25,0.2 -0.4,0.5 -0.5,0.85 z"
           inkscape:connector-curvature="0"
           style="fill:#9c1814" />
      </g>
    </g>
  </g>
</svg>
