<?xml version="1.0" encoding="UTF-8" standalone="no"?>
<!-- Generator: flash2svg, http://dissentgraphics.com/tools/flash2svg -->

<svg
   xmlns:dc="http://purl.org/dc/elements/1.1/"
   xmlns:cc="http://creativecommons.org/ns#"
   xmlns:rdf="http://www.w3.org/1999/02/22-rdf-syntax-ns#"
   xmlns:svg="http://www.w3.org/2000/svg"
   xmlns="http://www.w3.org/2000/svg"
   xmlns:sodipodi="http://sodipodi.sourceforge.net/DTD/sodipodi-0.dtd"
   xmlns:inkscape="http://www.inkscape.org/namespaces/inkscape"
   id="AvatarAssets"
   image-rendering="auto"
   version="1.1"
   x="0px"
   y="0px"
   width="22.456343"
   height="17.032114"
   viewBox="0 0 22.456343 17.032114"
   inkscape:version="0.48.4 r9939"
   sodipodi:docname="AvatarAssets_backPantsTopA011b.svg">
  <metadata
     id="metadata3259">
    <rdf:RDF>
      <cc:Work
         rdf:about="">
        <dc:format>image/svg+xml</dc:format>
        <dc:type
           rdf:resource="http://purl.org/dc/dcmitype/StillImage" />
      </cc:Work>
    </rdf:RDF>
  </metadata>
  <sodipodi:namedview
     pagecolor="#ffffff"
     bordercolor="#666666"
     borderopacity="1"
     objecttolerance="10"
     gridtolerance="10"
     guidetolerance="10"
     inkscape:pageopacity="0"
     inkscape:pageshadow="2"
     inkscape:window-width="640"
     inkscape:window-height="480"
     id="namedview3257"
     showgrid="false"
     fit-margin-top="0"
     fit-margin-left="0"
     fit-margin-right="0"
     fit-margin-bottom="0"
     inkscape:zoom="1.9032258"
     inkscape:cx="43.695829"
     inkscape:cy="-54.22878"
     inkscape:window-x="0"
     inkscape:window-y="0"
     inkscape:window-maximized="0"
     inkscape:current-layer="AvatarAssets" />
  <defs
     id="defs3246" />
  <g
     id="backPantsTopA011b1"
     overflow="visible"
     style="overflow:visible"
     transform="translate(11.695829,9.260895)">
    <g
       id="backPantsTopA011b_0">
      <g
         id="element">
        <g
           id="drawingObject">
          <path
             id="path"
             d="m -9.167,-7.849 -1.927,0.9 0.099,0.45 -0.099,-0.45 c 0,0 0.247,0.75 0.149,1.25 -0.05,0.5 -1.631,4.2 -0.05,7.35 1.532,3.15 5.485,7.1 14.082,5.9 7.015,-0.95 7.806,-7.15 7.658,-8.5 l -0.593,-5.75 c 0,0 -0.148,-0.65 -1.482,-1.4 -1.334,-0.75 -5.287,-1.5 -11.364,-1 q -3.805,0.3 -6.473,1.25 z"
             inkscape:connector-curvature="0"
             style="fill:#fe8cd1" />
        </g>
        <g
           id="drawingObject1">
          <path
             id="path1"
             d="m -5.955,-0.949 c 0,0 1.037,-1.5 5.632,-2.4 q 4.151,-0.8 10.771,-0.1 l -0.296,-3.25 c 0,0 -0.148,-0.65 -1.482,-1.4 -1.334,-0.75 -5.287,-1.5 -11.364,-1 -6.077,0.5 -8.4,2.15 -8.4,2.15 l 1.927,-0.9 -1.927,0.9 0.099,0.45 -0.099,-0.45 c 0,0 0.247,0.75 0.149,1.25 -0.05,0.5 -1.631,4.2 -0.05,7.35 1.532,3.15 5.485,7.1 14.082,5.9 5.434,-0.75 7.114,-4.6 7.559,-6.95 l -0.247,-0.8 C 8.571,-5.699 5.31,3.751 5.31,3.751 L 7.187,-0.299 5.31,3.751 3.828,3.001 c -1.483,-0.75 -7.115,-1.7 -7.115,-1.7 l 3.014,0.55 -3.014,-0.55 3.014,0.1 c 2.421,0 4.249,-1.35 4.249,-1.35 l -5.188,0 c -4.298,0 -4.743,-1 -4.743,-1 z"
             inkscape:connector-curvature="0"
             style="fill:#e77dbd" />
        </g>
        <g
           id="drawingObject2">
          <path
             id="path2"
             d="m -0.619,-6.799 -1.631,0 c -1.63,0 -4.594,0.35 -6.077,0.5 -0.642,0.1 -0.938,-0.55 -1.037,-1.45 l -1.73,0.8 0.099,0.45 -0.099,-0.45 c 0,0 0.247,0.75 0.149,1.25 -0.05,0.5 -1.631,4.2 -0.05,7.35 1.532,3.15 5.485,7.1 14.082,5.9 3.211,-0.45 5.138,-2 6.225,-3.65 -0.544,-0.95 -2.866,-0.55 -4.793,0.65 q -1.482,0.9 -3.359,0.95 -1.334,0 -3.755,-0.45 c -2.619,-0.5 -4.595,-1.2 -5.435,-3.5 -0.84,-2.35 -0.297,-4.85 0.346,-5.85 0.642,-1 7.065,-2.5 7.065,-2.5 z"
             inkscape:connector-curvature="0"
             style="fill:#d06ca9" />
        </g>
      </g>
    </g>
  </g>
</svg>
