<?xml version="1.0" encoding="UTF-8" standalone="no"?>
<!-- Generator: flash2svg, http://dissentgraphics.com/tools/flash2svg -->

<svg
   xmlns:dc="http://purl.org/dc/elements/1.1/"
   xmlns:cc="http://creativecommons.org/ns#"
   xmlns:rdf="http://www.w3.org/1999/02/22-rdf-syntax-ns#"
   xmlns:svg="http://www.w3.org/2000/svg"
   xmlns="http://www.w3.org/2000/svg"
   xmlns:sodipodi="http://sodipodi.sourceforge.net/DTD/sodipodi-0.dtd"
   xmlns:inkscape="http://www.inkscape.org/namespaces/inkscape"
   id="AvatarAssets"
   image-rendering="auto"
   version="1.1"
   x="0px"
   y="0px"
   width="27.215"
   height="30.472792"
   viewBox="0 0 27.215 30.472792"
   inkscape:version="0.48.4 r9939"
   sodipodi:docname="AvatarAssets_backShirtTorsoA011.svg">
  <metadata
     id="metadata3226">
    <rdf:RDF>
      <cc:Work
         rdf:about="">
        <dc:format>image/svg+xml</dc:format>
        <dc:type
           rdf:resource="http://purl.org/dc/dcmitype/StillImage" />
      </cc:Work>
    </rdf:RDF>
  </metadata>
  <sodipodi:namedview
     pagecolor="#ffffff"
     bordercolor="#666666"
     borderopacity="1"
     objecttolerance="10"
     gridtolerance="10"
     guidetolerance="10"
     inkscape:pageopacity="0"
     inkscape:pageshadow="2"
     inkscape:window-width="640"
     inkscape:window-height="480"
     id="namedview3224"
     showgrid="false"
     fit-margin-top="0"
     fit-margin-left="0"
     fit-margin-right="0"
     fit-margin-bottom="0"
     inkscape:zoom="1.9032258"
     inkscape:cx="45.196"
     inkscape:cy="-59.285"
     inkscape:window-x="0"
     inkscape:window-y="0"
     inkscape:window-maximized="0"
     inkscape:current-layer="AvatarAssets" />
  <defs
     id="defs3207" />
  <g
     id="backShirtTorsoA12"
     overflow="visible"
     style="overflow:visible"
     transform="translate(13.196,27.757791)">
    <g
       id="backShirtTorsoA011_0">
      <g
         id="element">
        <g
           id="drawingObject">
          <path
             id="path"
             d="m -10.776,-1.038 c 0.194,-0.304 0.424,-3.559 0.424,-3.559 q -0.99,2.821 -2.844,7.312 c 0,0 2.749,-0.059 2.591,-0.456 l -0.157,-0.346 c 0,0 -0.156,-2.598 -0.014,-2.951 z"
             inkscape:connector-curvature="0"
             style="fill:#5b4487" />
        </g>
        <g
           id="drawingObject1">
          <path
             id="path1"
             d="m 13.761,0.438 -4.506,-4.93 q 0.367,0.451 0.773,1.059 0.775,1.183 0.733,1.534 c -0.09,0.502 0.123,1.098 0.123,1.098 0,0 3.493,1.976 2.877,1.239 z"
             inkscape:connector-curvature="0"
             style="fill:#5b4487" />
        </g>
        <g
           id="drawingObject2">
          <path
             id="path2"
             d="m 5.739,-23.896 c -0.414,-2.992 -3.785,-3.92 -6.634,-3.859 q -1.8,0.039 -3.231,0.92 l -1.132,0.874 -0.75,2.317 6.023,1.021 -6.023,-1.021 c 0,0 12.161,2.74 11.747,-0.252 z"
             inkscape:connector-curvature="0"
             style="fill:#ab7ffa" />
        </g>
        <g
           id="drawingObject3">
          <path
             id="path3"
             d="m 6.614,-22.714 c -0.878,-1.332 -2.945,-4.438 -7.638,-4.038 q -1.946,0.192 -3.43,0.974 -2.077,1.094 -2.386,3.001 c -0.22,1.405 -1.128,3.375 -1.414,6.382 -0.235,3.006 -2.007,6.694 -2.182,7.848 -0.124,1.203 -1.517,6.234 -1.974,8.244 -0.457,2.011 -0.786,3.018 -0.786,3.018 l 1.406,-2.081 -1.406,2.081 c 0,0 1.421,-3.731 7.084,-5.503 5.713,-1.772 9.787,-0.709 12.997,-0.278 3.16,0.433 5.399,2.235 6.266,3.017 l 0.868,0.831 c 0,0 -2.275,-3.452 -2.986,-6.287 -0.759,-2.785 -3.255,-9.583 -3.291,-11.232 -0.036,-1.7 -0.25,-4.696 -1.128,-5.977 z"
             inkscape:connector-curvature="0"
             style="fill:#ab7ffa" />
        </g>
        <g
           id="drawingObject4">
          <path
             id="path4"
             d="m -1.024,-26.752 c -1.896,0.191 -5.377,1.115 -5.816,3.975 -0.22,1.405 -1.128,3.375 -1.414,6.382 -0.235,3.006 -2.007,6.694 -2.182,7.848 -0.124,1.203 -1.517,6.234 -1.974,8.244 -0.457,2.011 -0.786,3.018 -0.786,3.018 l 1.406,-2.081 -1.406,2.081 c 0,0 1.421,-3.731 7.084,-5.503 5.713,-1.772 9.787,-0.709 12.997,-0.278 3.16,0.433 5.399,2.235 6.266,3.017 -0.536,-1.639 -3.77,-3.22 -6.145,-4.37 L 2.768,-6.129 1.529,-7.952 C 0.34,-9.777 0.03,-14.922 0.03,-14.922 l 0.31,2.794 -0.31,-2.794 0.05,2.35 c 0.049,2.299 -0.537,5.312 -0.537,5.312 0,0 -1.492,0.382 -2.581,-1.445 -1.038,-1.778 -1.067,-3.128 -1.392,-4.271 -0.373,-1.092 0.021,-1.351 0.19,-2.805 1.356,0.271 3.102,0.034 3.102,0.034 l -1.361,-0.471 c -0.604,-0.187 -1.112,-0.576 -1.522,-1.018 l 0.182,-0.854 1.458,0.369 c 2.215,0.653 4.717,0.749 4.717,0.749 l -2.667,-0.793 c -1.308,-0.372 -2.374,-1.099 -3.138,-1.733 0.42,-1.409 0.94,-2.821 1.475,-3.532 0.826,-1.118 3.6,-2.378 5.491,-2.818 -1.164,-0.626 -2.624,-1.094 -4.521,-0.904 z"
             inkscape:connector-curvature="0"
             style="fill:#9972e2" />
        </g>
        <g
           id="drawingObject5">
          <path
             id="path5"
             d="m -1.024,-26.752 c -1.896,0.191 -5.377,1.115 -5.816,3.975 -0.22,1.405 -1.128,3.375 -1.414,6.382 -0.235,3.006 -2.007,6.694 -2.182,7.848 -0.124,1.203 -1.517,6.234 -1.974,8.244 -0.457,2.011 -0.786,3.018 -0.786,3.018 l 1.406,-2.081 -1.406,2.081 c 0,0 1.421,-3.731 7.084,-5.503 5.713,-1.772 9.787,-0.709 12.997,-0.278 l 0.854,0.182 C 3.647,-4.797 -5.348,-4.455 -7.441,-4.11 q -1.495,0.232 -1.525,-1.167 0.353,-2.208 0.373,-3.609 c 0.139,-2.854 1.924,-5.892 2.16,-8.898 0.286,-3.007 1.432,-5.532 3.396,-7.224 0.982,-0.872 2.923,-1.313 4.617,-1.599 -0.753,-0.134 -1.655,-0.215 -2.604,-0.145 z"
             inkscape:connector-curvature="0"
             style="fill:#815fbe" />
        </g>
      </g>
    </g>
  </g>
</svg>
