<?xml version="1.0" encoding="UTF-8" standalone="no"?>
<!-- Generator: flash2svg, http://dissentgraphics.com/tools/flash2svg -->

<svg
   xmlns:dc="http://purl.org/dc/elements/1.1/"
   xmlns:cc="http://creativecommons.org/ns#"
   xmlns:rdf="http://www.w3.org/1999/02/22-rdf-syntax-ns#"
   xmlns:svg="http://www.w3.org/2000/svg"
   xmlns="http://www.w3.org/2000/svg"
   xmlns:sodipodi="http://sodipodi.sourceforge.net/DTD/sodipodi-0.dtd"
   xmlns:inkscape="http://www.inkscape.org/namespaces/inkscape"
   id="AvatarAssets"
   image-rendering="auto"
   version="1.1"
   x="0px"
   y="0px"
   width="22.75"
   height="24.97296"
   viewBox="0 0 22.75 24.97296"
   inkscape:version="0.48.4 r9939"
   sodipodi:docname="AvatarAssets_backShirtTorsoA012b.svg">
  <metadata
     id="metadata3404">
    <rdf:RDF>
      <cc:Work
         rdf:about="">
        <dc:format>image/svg+xml</dc:format>
        <dc:type
           rdf:resource="http://purl.org/dc/dcmitype/StillImage" />
      </cc:Work>
    </rdf:RDF>
  </metadata>
  <sodipodi:namedview
     pagecolor="#ffffff"
     bordercolor="#666666"
     borderopacity="1"
     objecttolerance="10"
     gridtolerance="10"
     guidetolerance="10"
     inkscape:pageopacity="0"
     inkscape:pageshadow="2"
     inkscape:window-width="640"
     inkscape:window-height="480"
     id="namedview3402"
     showgrid="false"
     fit-margin-top="0"
     fit-margin-left="0"
     fit-margin-right="0"
     fit-margin-bottom="0"
     inkscape:zoom="1.9032258"
     inkscape:cx="43.199"
     inkscape:cy="-63.899"
     inkscape:window-x="0"
     inkscape:window-y="0"
     inkscape:window-maximized="0"
     inkscape:current-layer="AvatarAssets" />
  <defs
     id="defs3342" />
  <g
     id="backShirtTorsoA012b1"
     overflow="visible"
     style="overflow:visible"
     transform="translate(11.199,26.87196)">
    <g
       id="backShirtTorsoA012b_0">
      <g
         id="element">
        <g
           id="drawingObject">
          <path
             id="path"
             d="m 0.101,-22.849 -5.55,-0.7 c 0,0 11.1,2 11.1,-0.35 0,-2.35 -3.6,-3.25 -6.75,-2.9 -3.1,0.35 -4.6,1.9 -4.6,1.9 l 1.15,-0.8 -1.15,0.8 0.25,1.35"
             inkscape:connector-curvature="0"
             style="fill:#403838" />
        </g>
        <g
           id="drawingObject1">
          <path
             id="path1"
             d="m -0.899,-22.949 -4.55,-0.6 c 0,0 8.55,1.55 10.65,0.3 q 0.5,-0.75 -0.15,-1.5 c -1.75,-1.75 -6.65,-1.55 -7.5,-1.45 -0.55,0.05 0.55,-0.35 1.95,-0.65 l -0.6,0.05 c -3.1,0.35 -4.6,1.9 -4.6,1.9 l 1.15,-0.8 -1.15,0.8 0.25,1.35"
             inkscape:connector-curvature="0"
             style="fill:#292424" />
        </g>
        <g
           id="drawingObject2">
          <path
             id="path2"
             d="m 7.851,-19.649 c -0.35,-1.4 -1.25,-4.75 -4.05,-5.8 q -0.5,-0.85 -3.3,-0.85 c -2.8,0 -5.25,1.05 -6.5,2.3 -1.2,1.2 -2.1,6.25 -2.45,8.5 -0.35,2.3 -2.45,8.75 -2.6,11.2 l -0.15,2.4 2.35,-2.3 -2.35,2.3 c 0,0 2.4,-4.7 11.5,-4.35 9.1,0.35 11.2,4.35 11.2,4.35 0,0 0.35,-3.8 -1.2,-7.3 -1.6,-3.5 -2.1,-9.05 -2.45,-10.45 z"
             inkscape:connector-curvature="0"
             style="fill:#f5efe9" />
        </g>
        <g
           id="group1">
          <g
             id="drawingObject3">
            <path
               id="path3"
               d="m -4.949,-22.899 c 2.75,-1 7.85,-0.85 9.75,-0.1 1.05,0.45 2.05,1.4 2.7,2.15 -0.1,-0.4 -0.25,-0.75 -0.45,-1.15 -0.6,-0.8 -1.7,-2.2 -5.2,-2.65 -3.15,-0.45 -6.55,0.6 -8.45,1.55 l -0.45,1.25 c 0.5,-0.35 1.2,-0.75 2.1,-1.05 z"
               inkscape:connector-curvature="0"
               style="fill:#403838" />
          </g>
          <g
             id="drawingObject4">
            <path
               id="path4"
               d="m 7.951,-18.949 c -1.05,-1.55 -3,-2.8 -8.3,-2.85 q -4.1,-0.05 -7.35,2.5 l -0.25,1.2 c 3.4,-2.3 8.15,-2.9 11.6,-2.15 2.05,0.5 3.55,1.4 4.45,2.15 l -0.15,-0.85 z"
               inkscape:connector-curvature="0"
               style="fill:#403838" />
          </g>
          <g
             id="drawingObject5">
            <path
               id="path5"
               d="m 0.301,-6.249 c 9.1,0.35 11.2,4.35 11.2,4.35 l 0.05,-1.15 c -1.3,-1.45 -4.5,-3.1 -6.9,-3.9 -2.95,-0.95 -6.7,-1.35 -11.3,0.45 -2.15,0.85 -3.55,1.8 -4.45,2.55 l -0.1,2.05 2.35,-2.3 -2.35,2.3 c 0,0 2.4,-4.7 11.5,-4.35 z"
               inkscape:connector-curvature="0"
               style="fill:#403838" />
          </g>
          <g
             id="drawingObject6">
            <path
               id="path6"
               d="m 9.051,-11.649 c -1.7,-1.85 -6.65,-3.45 -10.25,-3.4 q -2.7,0.05 -8.1,3.25 l -0.75,2.75 c 0.7,-0.7 1.75,-1.45 3.45,-2.35 3.05,-1.65 7.4,-2.2 11.25,-1.2 2.4,0.6 4.3,1.9 5.35,2.75 l -0.4,-1.15 -0.55,-0.65 z"
               inkscape:connector-curvature="0"
               style="fill:#403838" />
          </g>
          <g
             id="drawingObject7">
            <path
               id="path7"
               d="m -8.299,-16.149 -0.5,2.45 c 0.65,-0.45 1.65,-1.05 3.5,-1.9 3.45,-1.65 7.4,-1.25 9.95,-0.45 1.7,0.55 3.4,1.9 4.35,2.75 l -0.2,-0.8 c -0.15,-0.5 -0.5,-1.4 -1.45,-2.3 -1.45,-1.4 -4.8,-2.4 -7.8,-2.25 q -1.5,0.05 -3.95,0.85 -2.15,0.75 -3.9,1.65 z"
               inkscape:connector-curvature="0"
               style="fill:#403838" />
          </g>
          <g
             id="drawingObject8">
            <path
               id="path8"
               d="m 8.701,-9.249 c -2.65,-1.8 -6.1,-1.9 -10.35,-1.75 -3.2,0.15 -6.95,2.55 -8.95,4.2 l -0.25,1.1 c 0.75,-0.6 2,-1.35 4.25,-2.4 3.8,-1.75 7.9,-1.9 12,-0.75 q 3.2,0.85 5.95,3.6 c -0.05,-0.65 -0.2,-1.35 -0.4,-2.05 -0.5,-0.55 -1.2,-1.25 -2.25,-1.95 z"
               inkscape:connector-curvature="0"
               style="fill:#403838" />
          </g>
        </g>
        <g
           id="drawingObject9">
          <path
             id="path9"
             d="m 0.501,-26.299 c -2.8,0 -5.25,1.05 -6.5,2.3 -1.2,1.2 -2.1,6.25 -2.45,8.5 -0.35,2.3 -2.45,8.75 -2.6,11.2 l -0.15,2.4 2.35,-2.3 -2.35,2.3 c 0,0 2.4,-4.7 11.5,-4.35 9.1,0.35 11.2,4.35 11.2,4.35 q 0.1,-0.95 0,-2.35 -0.25,-2.75 -1.2,-4.95 c -1.4,-3.05 -1.95,-7.7 -2.35,-9.75 -0.1,1 -0.2,2.1 -0.1,2.75 0.15,1.6 0,2.8 1.55,5.95 1.6,3.15 -2.8,2.6 -7.35,1.1 -4.5,-1.55 -6.8,0.3 -7.15,-0.9 -0.35,-1.25 1.55,-3 5.25,-4.05 2.6,-0.75 4.7,0.1 5.65,0.65 l -1.8,-1.15 c -2.45,-1.6 -5.45,-0.7 -5.45,-0.7 l 1.8,-0.25 -1.8,0.25 0.55,-0.35 c 0.5,-0.35 4.2,-0.55 4.2,-0.55 l -2.3,-0.5 -2.85,-0.1 2.85,0.1 c -2.25,-0.5 -4,0.7 -4.2,-1.4 -0.15,-2.1 1.4,-4.35 2.45,-5.4 0.7,-0.7 3.2,-1.3 5.35,-1.55 l -0.8,-0.4 c 0,0 -0.5,-0.85 -3.3,-0.85 z"
             inkscape:connector-curvature="0"
             style="fill:#c4bfba" />
        </g>
        <g
           id="group2">
          <g
             id="drawingObject10">
            <path
               id="path10"
               d="m -1.199,-15.049 c -2.4,0.05 -5.9,1.95 -8.1,3.25 l -0.75,2.75 c 0.7,-0.7 1.75,-1.45 3.45,-2.35 1,-0.55 2.1,-0.95 3.3,-1.25 0.85,-0.5 2,-1.05 3.45,-1.45 2.6,-0.75 4.7,0.1 5.65,0.65 l -0.7,-0.45 c -2,-0.7 -4.35,-1.2 -6.3,-1.15 z"
               inkscape:connector-curvature="0"
               style="fill:#2c2727" />
          </g>
          <g
             id="drawingObject11">
            <path
               id="path11"
               d="m -8.299,-16.149 -0.5,2.45 q 1.25,-0.85 3.5,-1.9 c 1.85,-0.9 3.9,-1.15 5.6,-1.1 l 0,-0.025 -2.15,-0.075 c -0.85,-0.05 -1.3,-0.45 -1.35,-1.3 l 0,-0.05 c -1.8,0.5 -3.75,1.3 -5.1,2 z"
               inkscape:connector-curvature="0"
               style="fill:#2c2727" />
          </g>
          <g
             id="drawingObject12">
            <path
               id="path12"
               d="m 0.301,-6.249 c 9.1,0.35 11.2,4.35 11.2,4.35 l 0.05,-1.15 c -1.3,-1.45 -4.5,-3.1 -6.9,-3.9 -2.95,-0.95 -6.7,-1.35 -11.3,0.45 -2.15,0.85 -3.55,1.8 -4.45,2.55 l -0.1,2.05 2.35,-2.3 -2.35,2.3 c 0,0 2.4,-4.7 11.5,-4.35 z"
               inkscape:connector-curvature="0"
               style="fill:#2c2727" />
          </g>
          <g
             id="drawingObject13">
            <path
               id="path13"
               d="m -7.699,-19.299 -0.25,1.2 q 2,-1.4 5.1,-2.1 l 0.7,-1.45 c -2.5,0.35 -4.4,1.45 -5.55,2.35 z"
               inkscape:connector-curvature="0"
               style="fill:#2c2727" />
          </g>
          <g
             id="drawingObject14">
            <path
               id="path14"
               d="m 7.851,-15.849 0.2,1.75 0.95,0.8 -0.2,-0.8 c -0.15,-0.4 -0.35,-1.05 -0.95,-1.75 z"
               inkscape:connector-curvature="0"
               style="fill:#2c2727" />
          </g>
          <g
             id="drawingObject15">
            <path
               id="path15"
               d="m 1.851,-24.649 c -3.15,-0.45 -6.55,0.6 -8.45,1.55 l -0.45,1.25 c 0.5,-0.35 1.2,-0.75 2.1,-1.05 1.15,-0.45 2.75,-0.65 4.35,-0.7 0.5,-0.4 1.5,-0.75 2.7,-1.05 l -0.25,0 z"
               inkscape:connector-curvature="0"
               style="fill:#2c2727" />
          </g>
          <g
             id="drawingObject16">
            <path
               id="path16"
               d="m 9.601,-11.049 -1,-1 0.75,1.7 0.65,0.5 -0.4,-1.2 z"
               inkscape:connector-curvature="0"
               style="fill:#2c2727" />
          </g>
          <g
             id="drawingObject17">
            <path
               id="path17"
               d="m 11.351,-5.249 c -0.05,-0.65 -0.2,-1.35 -0.4,-2.05 q -0.6,-0.7 -1.35,-1.3 c -0.3,0.45 -1,0.65 -1.95,0.65 1.6,0.85 2.9,1.9 3.7,2.7 z"
               inkscape:connector-curvature="0"
               style="fill:#2c2727" />
          </g>
          <g
             id="drawingObject18">
            <path
               id="path18"
               d="m -5.099,-10.049 0,-0.1 c -2.15,0.9 -4.2,2.3 -5.5,3.35 l -0.25,1.1 c 0.75,-0.6 2,-1.35 4.25,-2.4 2.35,-1.05 4.75,-1.55 7.2,-1.45 q -1.8,-0.4 -4.05,-0.15 -1.5,0.15 -1.65,-0.35 z"
               inkscape:connector-curvature="0"
               style="fill:#2c2727" />
          </g>
        </g>
        <g
           id="drawingObject19">
          <path
             id="path19"
             d="m 0.501,-26.299 c -2.8,0 -5.25,1.05 -6.5,2.3 -1.2,1.2 -2.1,6.25 -2.45,8.5 -0.35,2.3 -2.45,8.75 -2.6,11.2 l -0.15,2.4 2.35,-2.3 -2.35,2.3 c 0,0 2.4,-4.7 11.5,-4.35 9.1,0.35 11.2,4.35 11.2,4.35 l 0.05,-0.7 c -0.9,-0.7 -2.65,-1.8 -6,-3.3 -7.85,-3.45 -13.1,0.7 -13.1,0.7 l 3.6,-1.65 -3.6,1.65 1.4,-1.2 c 1.4,-1.25 7.7,-1.6 7.7,-1.6 l -3.7,-0.15 c -3.65,-0.2 -5.25,0.15 -5.05,-2.6 0.15,-2.8 3.15,-4.4 3.15,-4.4 l -0.55,0.2 c -0.5,0.15 -2.1,-0.35 -2.1,-2.8 0,-2.45 1.95,-3.85 3.85,-5.95 1.35,-1.4 3.75,-2 6.2,-2.1 -0.45,-0.2 -1.3,-0.5 -2.85,-0.5 z"
             inkscape:connector-curvature="0"
             style="fill:#a4a09c" />
        </g>
        <g
           id="group3">
          <g
             id="drawingObject20">
            <path
               id="path20"
               d="m -8.299,-16.149 -0.5,2.45 q 1.1,-0.7 3,-1.65 c -0.35,-0.3 -0.7,-0.8 -0.8,-1.6 -0.65,0.25 -1.2,0.55 -1.7,0.8 z"
               inkscape:connector-curvature="0"
               style="fill:#211d1d" />
          </g>
          <g
             id="drawingObject21">
            <path
               id="path21"
               d="m -5.899,-13.649 c -1.25,0.6 -2.45,1.3 -3.4,1.85 l -0.75,2.75 c 0.6,-0.6 1.55,-1.3 2.9,-2.05 0.15,-1.05 0.65,-1.9 1.25,-2.55 z"
               inkscape:connector-curvature="0"
               style="fill:#211d1d" />
          </g>
          <g
             id="drawingObject22">
            <path
               id="path22"
               d="m 0.301,-6.249 c 9.1,0.35 11.2,4.35 11.2,4.35 l 0.05,-0.7 c -0.9,-0.7 -2.65,-1.8 -6,-3.3 -7.85,-3.45 -13.1,0.7 -13.1,0.7 l 3.6,-1.65 -3.6,1.65 1.4,-1.2 c 0.75,-0.65 2.8,-1.05 4.65,-1.3 -1.6,0.15 -3.3,0.5 -5.15,1.2 -2.15,0.85 -3.55,1.8 -4.45,2.55 l -0.1,2.05 2.35,-2.3 -2.35,2.3 c 0,0 2.4,-4.7 11.5,-4.35 z"
               inkscape:connector-curvature="0"
               style="fill:#211d1d" />
          </g>
          <g
             id="drawingObject23">
            <path
               id="path23"
               d="m -7.699,-19.299 -0.25,1.2 q 0.45,-0.35 1.45,-0.85 c 0.2,-0.6 0.45,-1.1 0.85,-1.6 -0.85,0.4 -1.55,0.85 -2.05,1.25 z"
               inkscape:connector-curvature="0"
               style="fill:#211d1d" />
          </g>
          <g
             id="drawingObject24">
            <path
               id="path24"
               d="m -6.599,-8.099 0.75,-0.3 q -0.85,-0.25 -1.15,-0.8 c -1.45,0.75 -2.7,1.65 -3.6,2.4 l -0.25,1.1 c 0.75,-0.6 2,-1.35 4.25,-2.4 z"
               inkscape:connector-curvature="0"
               style="fill:#211d1d" />
          </g>
          <g
             id="drawingObject25">
            <path
               id="path25"
               d="m -6.599,-23.099 -0.45,1.25 q 0.95,-0.65 2.1,-1.05 c 0.5,-0.2 1.15,-0.35 1.85,-0.45 l 0.25,-0.35 c 0.35,-0.35 0.8,-0.65 1.25,-0.9 -1.95,0.25 -3.8,0.9 -5,1.5 z"
               inkscape:connector-curvature="0"
               style="fill:#211d1d" />
          </g>
        </g>
      </g>
    </g>
  </g>
</svg>
