<?xml version="1.0" encoding="UTF-8" standalone="no"?>
<!-- Generator: flash2svg, http://dissentgraphics.com/tools/flash2svg -->

<svg
   xmlns:dc="http://purl.org/dc/elements/1.1/"
   xmlns:cc="http://creativecommons.org/ns#"
   xmlns:rdf="http://www.w3.org/1999/02/22-rdf-syntax-ns#"
   xmlns:svg="http://www.w3.org/2000/svg"
   xmlns="http://www.w3.org/2000/svg"
   xmlns:sodipodi="http://sodipodi.sourceforge.net/DTD/sodipodi-0.dtd"
   xmlns:inkscape="http://www.inkscape.org/namespaces/inkscape"
   id="AvatarAssets"
   image-rendering="auto"
   version="1.1"
   x="0px"
   y="0px"
   width="22.767424"
   height="16.221134"
   viewBox="0 0 22.767424 16.221134"
   inkscape:version="0.48.4 r9939"
   sodipodi:docname="AvatarAssets_backPantsTop20101122.svg">
  <metadata
     id="metadata3026">
    <rdf:RDF>
      <cc:Work
         rdf:about="">
        <dc:format>image/svg+xml</dc:format>
        <dc:type
           rdf:resource="http://purl.org/dc/dcmitype/StillImage" />
      </cc:Work>
    </rdf:RDF>
  </metadata>
  <sodipodi:namedview
     pagecolor="#ffffff"
     bordercolor="#666666"
     borderopacity="1"
     objecttolerance="10"
     gridtolerance="10"
     guidetolerance="10"
     inkscape:pageopacity="0"
     inkscape:pageshadow="2"
     inkscape:window-width="640"
     inkscape:window-height="480"
     id="namedview3024"
     showgrid="false"
     fit-margin-top="0"
     fit-margin-left="0"
     fit-margin-right="0"
     fit-margin-bottom="0"
     inkscape:zoom="1.9032258"
     inkscape:cx="43.95"
     inkscape:cy="-54.5"
     inkscape:window-x="0"
     inkscape:window-y="0"
     inkscape:window-maximized="0"
     inkscape:current-layer="AvatarAssets" />
  <defs
     id="defs3011" />
  <g
     id="backPantsTop20101123"
     overflow="visible"
     style="overflow:visible"
     transform="translate(11.95,8.7211335)">
    <g
       id="backPantsTop20101122_0">
      <g
         id="element">
        <path
           id="path"
           d="M 9.35,-6.5 C 9.2,-6.6 9.05,-6.7 8.85,-6.8 l 1,0.65 -0.5,-0.35 z M 6.85,-7 C 6.75,-7.05 6.25,-7.3 5.4,-7.8 4.85,-8.1 4.4,-8.25 4.05,-8.3 L 5,-8.25 C 6.55,-7.9 7.9,-7.3 8.8,-6.85 7.75,-7.45 5.5,-8.35 3.2,-8.5 L 3.65,-8.45 0.7,-8.5 c -1.95,0 -4.55,-0.15 -6.3,0.7 l 0,0.45 c 2.35,0.15 4.95,-0.35 7.3,0.25 -1.4,0.3 -3.6,0 -4.8,0.8 -1,0.7 -0.5,1.65 -0.7,2.5 L -4,-3.25 c 0.5,0.05 0.95,0.05 1.3,0.25 l 0.05,0 c -0.4,0.25 -1,0.25 -1.6,0.2 l -0.05,0.15 -1.65,0 C -6,-0.5 -3.5,0.95 -1.85,1.5 -1.8,1.05 -1.8,0.6 -1.9,0.1 l 0.45,0.2 1.8,0.55 c 0,-1.55 0.2,-3.1 0.15,-4.65 0.5,0.9 0.7,1.85 0.85,2.8 l 0.6,2.3 C 2.55,1.4 3.05,1.25 3.7,1.1 L 3.7,1 4.05,0.85 4.05,1 4.3,1.85 l 0,0.2 0.05,0.1 0.1,0.45 0.05,0 L 5.05,3.3 5.3,2.5 C 5.55,1.6 5.8,1.15 7.05,0.45 7.65,0.1 8.25,-0.5 8.35,-0.95 L 9,-1 9.2,-3.35 c 0,-0.5 0.4,-0.35 0.15,-1 -0.15,-0.4 -1.1,-0.8 -1.4,-1.1 l 0.75,0.1 C 9.5,-6.6 7.55,-6.7 6.85,-7 z m -3.3,6.1 c -1,-1.95 0.2,-2.4 1.8,-2.4 l 1.5,0.5 c -2.15,0 -3.35,-0.4 -3.3,1.9 z m 4,-1.75 c 0.6,0.05 1,0.7 0.75,1.25 L 8.05,-1 C 8.1,-1.2 8.05,-1.4 8,-1.6 7.9,-2.15 7.6,-2.6 7.05,-2.65 l 0.5,0 z M -2.6,-3.3 -1.85,-3.15 -1.8,-0.8 C -1.85,-1.5 -2.25,-2.55 -2.65,-3.15 L -2.6,-3.3 z m 12.15,-2 -0.65,0 c 0.75,0.1 0.95,0.3 1.15,0.5 l 0.3,-1 -0.5,-0.35 c 0.15,0.15 0.25,0.35 0.3,0.55 -0.1,0.3 -0.3,0.3 -0.6,0.3 z m 0.5,0.5 0.05,0.3 c 0.05,0.1 0.1,0.25 0.1,0.25 L 10.05,-4.8 z m -18.65,-2.3 -0.2,0.4 0.25,-0.4 -0.05,0 z"
           inkscape:connector-curvature="0"
           style="fill:#666666" />
        <path
           id="path1"
           d="m 8.85,-6.8 c 0,0 0,0 -0.05,-0.05 C 7.9,-7.3 6.55,-7.9 5,-8.25 L 4.05,-8.3 c 0.35,0.05 0.8,0.2 1.35,0.5 0.85,0.5 1.35,0.75 1.45,0.8 0.7,0.3 2.65,0.4 1.85,1.65 l 0.15,0.05 0.05,0 0.65,0 c 0.3,0 0.5,0 0.6,-0.3 C 10.1,-5.8 10,-6 9.85,-6.15 l -1,-0.65 z"
           inkscape:connector-curvature="0"
           style="fill:#7d7d7d" />
        <path
           id="path4"
           d="M 3.55,-0.9 C 3.5,-3.2 4.7,-2.8 6.85,-2.8 l -1.5,-0.5 c -1.6,0 -2.8,0.45 -1.8,2.4 z M 3.65,-8.45 3.2,-8.5 C 0.55,-8.65 -2.3,-9 -5.3,-8.3 l -1.85,0.55 C -7.6,-7.6 -8.1,-7.4 -8.55,-7.2 l 0,0.1 -0.25,0.4 c 1.15,0.1 2.3,-0.15 3.45,-0.15 -2.3,0.1 -3.25,3 -3.3,4.9 0,0.55 0.15,0.9 0.35,1.2 l 0.55,0.45 1.45,0.75 c 1.15,0.7 1.85,1.85 3,2.5 C -1.35,1.7 1.35,2.55 3.8,2.6 3.7,2.05 3.7,1.45 3.7,1.1 3.05,1.25 2.55,1.4 1.95,1.3 L 1.35,-1 C 1.2,-1.95 1,-2.9 0.5,-3.8 0.55,-2.25 0.35,-0.7 0.35,0.85 L -1.45,0.3 -1.9,0.1 c 0.1,0.5 0.1,0.95 0.05,1.4 -1.65,-0.55 -4.15,-2 -4.1,-4.15 l 1.65,0 0.05,-0.15 c 0.6,0.05 1.2,0.05 1.6,-0.2 L -2.7,-3 C -3.05,-3.2 -3.5,-3.2 -4,-3.25 l 0.2,-0.55 c 0.2,-0.85 -0.3,-1.8 0.7,-2.5 1.2,-0.8 3.4,-0.5 4.8,-0.8 -2.35,-0.6 -4.95,-0.1 -7.3,-0.25 l 0,-0.45 c 1.75,-0.85 4.35,-0.7 6.3,-0.7 l 2.95,0.05 z m 6.4,3.65 C 9.85,-5 9.65,-5.2 8.9,-5.3 l -0.05,0 -0.15,0 0,-0.05 -0.75,-0.1 c 0.3,0.3 1.25,0.7 1.4,1.1 0.25,0.65 -0.15,0.5 -0.15,1 L 9,-1 8.35,-0.95 C 8.25,-0.5 7.65,0.1 7.05,0.45 5.8,1.15 5.55,1.6 5.3,2.5 5.9,2.4 6.5,2.15 7.05,1.7 7.6,1.25 7.8,0.6 8.2,0.15 8.5,-0.15 9.5,-0.65 9.65,-1 c 0.45,-0.75 0,-2.6 0.1,-3.45 L 10.1,-4.5 10.05,-4.8 z"
           inkscape:connector-curvature="0"
           style="fill:#4d4d4d" />
        <path
           id="path7"
           d="m 7.55,-2.65 -0.5,0 C 7.6,-2.6 7.9,-2.15 8,-1.6 8.05,-1.4 8.1,-1.2 8.05,-1 L 8.3,-1.4 C 8.55,-1.95 8.15,-2.6 7.55,-2.65 z"
           inkscape:connector-curvature="0"
           style="fill:#7d7d7d" />
        <path
           id="path10"
           d="m -2.6,-3.3 -0.05,0.15 c 0.4,0.6 0.8,1.65 0.85,2.35 L -1.85,-3.15 -2.6,-3.3 z"
           inkscape:connector-curvature="0"
           style="fill:#7d7d7d" />
        <path
           id="path19"
           d="m 8.85,-5.3 -0.15,-0.05 0,0.05 0.15,0"
           inkscape:connector-curvature="0"
           style="fill:#666666" />
        <path
           id="path20"
           d="M 10.1,-4.5 9.75,-4.45 C 9.65,-3.6 10.1,-1.75 9.65,-1 9.5,-0.65 8.5,-0.15 8.2,0.15 7.8,0.6 7.6,1.25 7.05,1.7 6.5,2.15 5.9,2.4 5.3,2.5 L 5.05,3.3 4.5,2.6 4.45,2.6 4.35,2.15 4.3,2.05 4.3,1.85 4.05,1 4.05,0.85 3.7,1 l 0,0.1 c 0,0.35 0,0.95 0.1,1.5 C 1.35,2.55 -1.35,1.7 -3.3,2.95 -4.45,2.3 -5.15,1.15 -6.3,0.45 L -7.75,-0.3 C -6.9,0.45 -6.1,1.2 -5.4,2.2 -4.25,3.75 -3.4,5 -1.3,5 -0.55,5 0.2,4.75 1.05,4.85 1.85,4.95 2.4,5.3 3.3,5.2 4.9,5 7.1,4.45 7.85,3 8.5,1.8 9.2,-0.1 10.8,-0.45 10.75,-1.9 10.4,-3.4 10.2,-4.25 l 0.4,1.9 -0.4,-1.9 c 0,0 -0.05,-0.15 -0.1,-0.25 z m -21.05,-1.3 -0.3,1.2 1.05,-0.2 c 0.5,2 -0.6,2.15 1.25,3.55 l 0.65,0.5 c -0.2,-0.3 -0.35,-0.65 -0.35,-1.2 0.05,-1.9 1,-4.8 3.3,-4.9 -1.15,0 -2.3,0.25 -3.45,0.15 l 0.2,-0.4 0.05,-0.1 -0.55,0.35 q -0.1,0 -0.15,0.05 l -1.7,1 z"
           inkscape:connector-curvature="0"
           style="fill:#3d3d3d" />
        <path
           id="path23"
           d="M 10.8,-0.45 C 9.2,-0.1 8.5,1.8 7.85,3 7.1,4.45 4.9,5 3.3,5.2 2.4,5.3 1.85,4.95 1.05,4.85 0.2,4.75 -0.55,5 -1.3,5 -3.4,5 -4.25,3.75 -5.4,2.2 -6.1,1.2 -6.9,0.45 -7.75,-0.3 L -8.3,-0.75 -8.95,-1.25 C -10.8,-2.65 -9.7,-2.8 -10.2,-4.8 l -1.05,0.2 c -0.25,1.05 -0.55,2.55 -0.65,3.9 l -0.05,2.05 C -11.8,4.2 -4.95,7.5 -0.3,7.5 4.35,7.5 9.25,5.75 10.55,2 10.8,1.3 10.85,0.45 10.8,-0.45 z"
           inkscape:connector-curvature="0"
           style="fill:#2e2e2e" />
      </g>
    </g>
  </g>
</svg>
