<?xml version="1.0" encoding="UTF-8" standalone="no"?>
<!-- Generator: flash2svg, http://dissentgraphics.com/tools/flash2svg -->

<svg
   xmlns:dc="http://purl.org/dc/elements/1.1/"
   xmlns:cc="http://creativecommons.org/ns#"
   xmlns:rdf="http://www.w3.org/1999/02/22-rdf-syntax-ns#"
   xmlns:svg="http://www.w3.org/2000/svg"
   xmlns="http://www.w3.org/2000/svg"
   xmlns:xlink="http://www.w3.org/1999/xlink"
   xmlns:sodipodi="http://sodipodi.sourceforge.net/DTD/sodipodi-0.dtd"
   xmlns:inkscape="http://www.inkscape.org/namespaces/inkscape"
   id="AvatarAssets"
   image-rendering="auto"
   version="1.1"
   x="0px"
   y="0px"
   width="22.388245"
   height="16.718281"
   viewBox="0 0 22.388245 16.718281"
   inkscape:version="0.48.4 r9939"
   sodipodi:docname="AvatarAssets_backPantsTopB011.svg">
  <metadata
     id="metadata3358">
    <rdf:RDF>
      <cc:Work
         rdf:about="">
        <dc:format>image/svg+xml</dc:format>
        <dc:type
           rdf:resource="http://purl.org/dc/dcmitype/StillImage" />
      </cc:Work>
    </rdf:RDF>
  </metadata>
  <sodipodi:namedview
     pagecolor="#ffffff"
     bordercolor="#666666"
     borderopacity="1"
     objecttolerance="10"
     gridtolerance="10"
     guidetolerance="10"
     inkscape:pageopacity="0"
     inkscape:pageshadow="2"
     inkscape:window-width="640"
     inkscape:window-height="480"
     id="namedview3356"
     showgrid="false"
     fit-margin-top="0"
     fit-margin-left="0"
     fit-margin-right="0"
     fit-margin-bottom="0"
     inkscape:zoom="1.9032258"
     inkscape:cx="43.817164"
     inkscape:cy="-54.560512"
     inkscape:window-x="0"
     inkscape:window-y="0"
     inkscape:window-maximized="0"
     inkscape:current-layer="AvatarAssets" />
  <defs
     id="defs3328">
    <pattern
       id="bitmap"
       patternContentUnits="userSpaceOnUse"
       patternUnits="userSpaceOnUse"
       width="200"
       height="200"
       viewBox="0 0 200 200"
       patternTransform="matrix(1 0 0 1 -100.649 -100.999)">
      <symbol
         id="Denim_Texture_symbol"
         viewBox="0 0 200 200">
        <image
           sodipodi:absref="C:\Users\Training\Documents\GitHub\Glitchen-Avatar-Engine\glitch-avatars-svg\base_avatar\AvatarAssets.fla\clothing\back\Denim_Texture"
           xlink:href="Denim_Texture"
           height="200"
           width="200"
           id="Denim_Texture" />
      </symbol>
      <use
         id="Denim_Texture_use"
         width="200"
         height="200"
         y="0"
         x="0"
         xlink:href="#Denim_Texture_symbol"
         externalResourcesRequired="true" />
    </pattern>
    <pattern
       id="bitmap1"
       patternContentUnits="userSpaceOnUse"
       patternUnits="userSpaceOnUse"
       width="200"
       height="200"
       viewBox="0 0 200 200"
       patternTransform="matrix(1 0 0 1 -100.599 -100.949)">
      <symbol
         id="symbol3335"
         viewBox="0 0 200 200">
        <image
           sodipodi:absref="C:\Users\Training\Documents\GitHub\Glitchen-Avatar-Engine\glitch-avatars-svg\base_avatar\AvatarAssets.fla\clothing\back\Denim_Texture"
           xlink:href="Denim_Texture"
           height="200"
           width="200"
           id="image3337" />
      </symbol>
      <use
         id="use3339"
         width="200"
         height="200"
         y="0"
         x="0"
         xlink:href="#Denim_Texture_symbol"
         externalResourcesRequired="true" />
    </pattern>
  </defs>
  <g
     id="backPantsTopB12"
     overflow="visible"
     style="overflow:visible"
     transform="translate(11.817164,9.2787919)">
    <g
       id="backPantsTopB011_0">
      <g
         id="element">
        <g
           id="drawingObject">
          <path
             id="path"
             d="m 10.5,-1.6 c -0.05,-1.5 -0.4,-3.9 -0.4,-3.9 0,0 -0.75,-1 -1.85,-1.85 C 6.6,-8.6 0,-9.85 -4.3,-9 q -3.85,0.75 -6.65,2.9 c 0,0 -1.45,3.45 -0.6,6.95 0.8,3.5 5.15,5.8 9.5,6.3 4.35,0.5 7.15,-0.05 9.25,-1 2,-0.9 3.35,-6.25 3.3,-7.75 z"
             inkscape:connector-curvature="0"
             style="fill:url(#bitmap1)" />
        </g>
        <g
           id="drawingObject1">
          <path
             id="path1"
             d="m 1.276,-0.149 c -1.561,-0.25 -3.294,-1.05 -2.884,-2 0.362,-0.9 1.326,-1.75 3.23,-1.65 l 2.452,0.05 c 0,0 -2.305,-1.3 -4.059,-1.4 l -2.454,-0.1 2.264,-0.85 -2.264,0.85 c 0,0 3.67,-1.9 6.897,-1.25 3.18,0.7 4.032,0.75 4.032,0.75 0,0 -4.061,-1.45 -5.02,-1.65 l -1.838,-0.9 0.045,1.05 c 0,0 0.06,0.25 -1.003,-0.05 -1.014,-0.35 -6.822,0.65 -6.822,0.65 l -1.425,0.6 -3.594,2.5 c 0,0 0.697,-1.25 0.438,-1.45 -0.254,-0.1 0.354,-1.1 0.685,-1.55 l -0.827,0.55 c 0,0 -1.454,3.45 -0.607,6.95 0.798,3.5 5.145,5.8 9.516,6.3 4.321,0.5 7.148,-0.05 9.208,-1 2.012,-0.9 3.386,-6.25 3.323,-7.75 l -0.008,-0.2 c -1.176,-0.6 -3.647,-1.1 -5.144,0.15 -1.791,1.4 -2.53,1.65 -4.141,1.4 z"
             inkscape:connector-curvature="0"
             style="fill:#000000;fill-opacity:0.2" />
        </g>
        <g
           id="drawingObject2">
          <path
             id="path2"
             d="m -4.609,-6.899 -1.539,0.25 -1.425,0.6 -3.594,2.5 c 0,0 0.697,-1.25 0.438,-1.45 -0.254,-0.1 0.354,-1.1 0.685,-1.55 l -0.827,0.55 c 0,0 -1.454,3.45 -0.607,6.95 0.798,3.5 5.145,5.8 9.516,6.3 4.321,0.5 7.148,-0.05 9.208,-1 q 1.277,-0.55 2.356,-3.4 c -0.373,-1.75 -1.091,-3.35 -1.847,-3.5 -1.411,-0.25 -2.958,1 -3.607,3.4 -0.646,2.45 -1.636,2.7 -5.046,2.45 -3.461,-0.25 -2.224,-1.75 -2.224,-1.75 l -0.166,0.8 0.166,-0.8 1.15,0 c 1.15,0 3.081,-0.45 3.081,-0.45 0,0 -0.35,0 -2.971,-0.5 -2.571,-0.5 -1.835,-2 -3.622,-5.25 -1.24,-2.15 -0.191,-3.35 0.875,-4.15 z"
             inkscape:connector-curvature="0"
             style="fill:#000000;fill-opacity:0.2" />
        </g>
        <g
           id="drawingObject3">
          <path
             id="path3"
             d="m -7.568,-6.049 0.114,-0.85 q -2.16,0.95 -3.27,1.9 l -0.439,1.45 c 0,0 1.45,-1.2 3.301,-2.35 l 0.294,-0.15 z"
             inkscape:connector-curvature="0"
             style="fill:#613a1f" />
        </g>
        <g
           id="drawingObject4">
          <path
             id="path4"
             d="m 0.679,-7.299 -0.046,-1.1 q -3.107,-0.15 -5.923,0.65 l -1.083,0.4 -0.164,0.85 c 1.724,-0.6 4.112,-0.9 7.216,-0.8 z"
             inkscape:connector-curvature="0"
             style="fill:#7a4c2b" />
        </g>
        <g
           id="drawingObject5">
          <path
             id="path5"
             d="m 9.972,-3.899 -0.127,-0.65 q -0.271,-0.5 -0.951,-1.2 c -0.727,-0.65 -2.052,-1.25 -4.484,-2 l -2.773,-0.55 0.044,1.05 1,0 c 5.065,0.35 7.291,3.35 7.291,3.35 z"
             inkscape:connector-curvature="0"
             style="fill:#7a4c2b" />
        </g>
      </g>
    </g>
  </g>
</svg>
