<?xml version="1.0" encoding="UTF-8" standalone="no"?>
<!-- Generator: flash2svg, http://dissentgraphics.com/tools/flash2svg -->

<svg
   xmlns:dc="http://purl.org/dc/elements/1.1/"
   xmlns:cc="http://creativecommons.org/ns#"
   xmlns:rdf="http://www.w3.org/1999/02/22-rdf-syntax-ns#"
   xmlns:svg="http://www.w3.org/2000/svg"
   xmlns="http://www.w3.org/2000/svg"
   xmlns:sodipodi="http://sodipodi.sourceforge.net/DTD/sodipodi-0.dtd"
   xmlns:inkscape="http://www.inkscape.org/namespaces/inkscape"
   id="AvatarAssets"
   image-rendering="auto"
   version="1.1"
   x="0px"
   y="0px"
   width="22.41"
   height="25.30201"
   viewBox="0 0 22.41 25.30201"
   inkscape:version="0.48.4 r9939"
   sodipodi:docname="AvatarAssets_backShirtTorsoA11.svg">
  <metadata
     id="metadata3274">
    <rdf:RDF>
      <cc:Work
         rdf:about="">
        <dc:format>image/svg+xml</dc:format>
        <dc:type
           rdf:resource="http://purl.org/dc/dcmitype/StillImage" />
      </cc:Work>
    </rdf:RDF>
  </metadata>
  <sodipodi:namedview
     pagecolor="#ffffff"
     bordercolor="#666666"
     borderopacity="1"
     objecttolerance="10"
     gridtolerance="10"
     guidetolerance="10"
     inkscape:pageopacity="0"
     inkscape:pageshadow="2"
     inkscape:window-width="640"
     inkscape:window-height="480"
     id="namedview3272"
     showgrid="false"
     fit-margin-top="0"
     fit-margin-left="0"
     fit-margin-right="0"
     fit-margin-bottom="0"
     inkscape:zoom="1.9032258"
     inkscape:cx="43.489"
     inkscape:cy="-64.849"
     inkscape:window-x="0"
     inkscape:window-y="0"
     inkscape:window-maximized="0"
     inkscape:current-layer="AvatarAssets" />
  <defs
     id="defs3251" />
  <g
     id="backShirtTorsoA12"
     overflow="visible"
     style="overflow:visible"
     transform="translate(11.489,28.151009)">
    <g
       id="backShirtTorsoA11_0">
      <g
         id="element">
        <g
           id="drawingObject">
          <path
             id="path"
             d="m -5.459,-24.349 c 0,0 11.021,0.9 11.012,0.5 -0.01,-0.4 -0.386,-1.5 -1.268,-2.85 -0.882,-1.35 -2.433,-1.4 -4.634,-1.45 -2.151,-0.05 -4.08,0.85 -4.08,0.85 0,0 -0.233,0.7 -0.571,1.2 q -0.339,0.5 -0.459,1.75 z"
             inkscape:connector-curvature="0"
             style="fill:#a882ff" />
        </g>
        <g
           id="drawingObject1">
          <path
             id="path1"
             d="m -2.504,-24.149 c 2.693,-0.3 6.525,-1.05 5.86,-1.7 q -0.616,-0.65 -1.771,-0.85 -0.703,-0.15 -2.506,-0.25 c -1.901,-0.05 -2.79,0.4 -2.752,-0.1 0.045,-0.2 0.437,-0.55 0.881,-0.8 l -1.637,0.55 c 0,0 -0.233,0.7 -0.571,1.2 -0.339,0.5 -0.459,1.75 -0.459,1.75 l 2.955,0.2 z"
             inkscape:connector-curvature="0"
             style="fill:#7f62c2" />
        </g>
        <g
           id="drawingObject2">
          <path
             id="path2"
             d="m 9.015,-12.799 c -0.643,-1.8 -0.384,-5.65 -0.825,-7.4 -0.492,-1.75 -2.848,-4.1 -4.229,-5.4 q -1.228,-1.2 -5.123,-1 c -2.149,0.05 -4.173,1.15 -4.896,2.3 -0.771,1.2 -1.932,4.95 -1.891,6.7 0.042,1.75 -1.025,3.15 -1.745,6.55 -0.668,3.45 -0.969,5.5 -1.357,6 l -0.438,0.5 c 0,0 5.508,-1.75 8.094,-0.25 2.585,1.5 3.796,1.95 3.796,1.95 l 0.78,-2.95 1.42,2.95 c 0,0 1.848,-2.2 3.685,-2.75 1.885,-0.6 3.435,-0.6 4.035,-0.6 l 0.6,0 c 0,0 -1.262,-4.75 -1.906,-6.6 z"
             inkscape:connector-curvature="0"
             style="fill:#a882ff" />
        </g>
        <g
           id="drawingObject3">
          <path
             id="path3"
             d="m 9.015,-12.799 -0.221,-0.9 q -0.623,3.25 -4.243,2.4 c -2.312,-0.5 -2.73,-1.25 -2.73,-1.25 l 0.511,0.45 -0.511,-0.45 c 0,0 0.029,-0.9 1.32,-1.25 1.243,-0.3 3.553,0.1 3.553,0.1 l -0.866,-0.65 c -0.865,-0.65 -1.96,-0.45 -2.923,-1 -0.915,-0.6 -1.666,-2.75 -1.801,-4.25 -0.076,-1.1 -0.407,-2.4 -0.571,-3 0.061,0.5 -0.239,2.6 -0.51,3.8 -0.318,1.35 -1.066,1.45 -2.19,0.45 -1.123,-1 -1.747,-2 -1.781,-3.45 -0.034,-1.4 0.837,-2.65 1.765,-3.55 0.685,-0.65 2.777,-1 4.777,-1 -1.057,-0.3 -2.357,-0.3 -3.756,-0.25 -2.149,0.05 -4.173,1.15 -4.896,2.3 -0.771,1.2 -1.932,4.95 -1.891,6.7 0.042,1.75 -1.025,3.15 -1.745,6.55 -0.668,3.45 -0.969,5.5 -1.357,6 l -0.438,0.5 c 0,0 5.508,-1.75 8.094,-0.25 2.585,1.5 3.796,1.95 3.796,1.95 l 0.78,-2.95 1.42,2.95 c 0,0 1.848,-2.2 3.685,-2.75 1.885,-0.6 3.435,-0.6 4.035,-0.6 l 0.6,0 c 0,0 -1.262,-4.75 -1.906,-6.6 z"
             inkscape:connector-curvature="0"
             style="fill:#9775e6" />
        </g>
        <g
           id="drawingObject4">
          <path
             id="path4"
             d="m 10.321,-6.199 0.6,0 -1.092,-3.9 c -0.116,1.45 -0.756,1.85 -1.447,2.25 -0.838,0.5 -2.914,-0.6 -5.723,-1 -2.81,-0.4 -5.2,0 -5.2,0 l 1.546,-0.15 -1.546,0.15 1.085,-0.6 c 1.086,-0.6 4.097,-0.15 4.097,-0.15 l -1.311,-0.45 c -1.259,-0.4 -5.968,-0.75 -6.704,-2.3 -0.688,-1.6 -0.006,-4.45 -0.024,-5.2 -0.017,-0.75 -0.427,-3.25 -0.275,-5.3 0.024,-1.1 0.599,-2.15 1.43,-2.95 -0.791,0.4 -1.478,0.95 -1.815,1.5 -0.771,1.2 -1.932,4.95 -1.891,6.7 0.042,1.75 -1.025,3.15 -1.745,6.55 -0.668,3.45 -0.969,5.5 -1.357,6 l -0.438,0.5 c 0,0 5.508,-1.75 8.094,-0.25 2.585,1.5 3.796,1.95 3.796,1.95 l 0.78,-2.95 1.42,2.95 c 0,0 1.848,-2.2 3.685,-2.75 q 1.885,-0.6 4.035,-0.6 z"
             inkscape:connector-curvature="0"
             style="fill:#7f62c2" />
        </g>
        <g
           id="drawingObject5">
          <path
             id="path5"
             d="m 3.012,-27.699 c -1.21,-0.4 -4.665,-0.6 -6.202,-0.05 l 1.597,-0.15 q 1.798,-0.1 2.649,-0.05 c 1.403,0.15 2.564,0.6 3.027,1.15 0.512,0.5 0.72,0.85 0.72,0.85 0,0 -0.581,-1.3 -1.791,-1.75 z"
             inkscape:connector-curvature="0"
             style="fill:#c9b3ff" />
        </g>
        <g
           id="drawingObject6">
          <path
             id="path6"
             d="m 5.598,-24.049 c -0.618,-0.75 -1.182,-1.35 -2.092,-1.8 l 2.427,3.25 c 0.407,0.3 0.763,0.55 0.817,0.75 0.104,0.15 0.611,0.45 0.867,0.7 l 0.206,0.25 c 0,0 -1.608,-2.45 -2.225,-3.15 z"
             inkscape:connector-curvature="0"
             style="fill:#c9b3ff" />
        </g>
        <g
           id="drawingObject7">
          <path
             id="path7"
             d="m -5.568,-24.749 c 0.687,-0.55 0.682,-0.75 0.682,-0.75 q -1.332,0.75 -1.466,1.45 l -0.513,1.55 c 0,0 0.61,-1.7 1.297,-2.25 z"
             inkscape:connector-curvature="0"
             style="fill:#a882ff" />
        </g>
      </g>
    </g>
  </g>
</svg>
