<?xml version="1.0" encoding="UTF-8" standalone="no"?>
<!-- Generator: flash2svg, http://dissentgraphics.com/tools/flash2svg -->

<svg
   xmlns:dc="http://purl.org/dc/elements/1.1/"
   xmlns:cc="http://creativecommons.org/ns#"
   xmlns:rdf="http://www.w3.org/1999/02/22-rdf-syntax-ns#"
   xmlns:svg="http://www.w3.org/2000/svg"
   xmlns="http://www.w3.org/2000/svg"
   xmlns:sodipodi="http://sodipodi.sourceforge.net/DTD/sodipodi-0.dtd"
   xmlns:inkscape="http://www.inkscape.org/namespaces/inkscape"
   id="AvatarAssets"
   image-rendering="auto"
   version="1.1"
   x="0px"
   y="0px"
   width="33.950001"
   height="16.624773"
   viewBox="0 0 33.950001 16.624773"
   inkscape:version="0.48.4 r9939"
   sodipodi:docname="AvatarAssets_backSkirtD007b.svg">
  <metadata
     id="metadata3927">
    <rdf:RDF>
      <cc:Work
         rdf:about="">
        <dc:format>image/svg+xml</dc:format>
        <dc:type
           rdf:resource="http://purl.org/dc/dcmitype/StillImage" />
      </cc:Work>
    </rdf:RDF>
  </metadata>
  <sodipodi:namedview
     pagecolor="#ffffff"
     bordercolor="#666666"
     borderopacity="1"
     objecttolerance="10"
     gridtolerance="10"
     guidetolerance="10"
     inkscape:pageopacity="0"
     inkscape:pageshadow="2"
     inkscape:window-width="640"
     inkscape:window-height="480"
     id="namedview3925"
     showgrid="false"
     fit-margin-top="0"
     fit-margin-left="0"
     fit-margin-right="0"
     fit-margin-bottom="0"
     inkscape:zoom="1.9032258"
     inkscape:cx="52.2"
     inkscape:cy="-52.225227"
     inkscape:window-x="0"
     inkscape:window-y="0"
     inkscape:window-maximized="0"
     inkscape:current-layer="AvatarAssets" />
  <defs
     id="defs3872" />
  <g
     id="backSkirtD007b1"
     overflow="visible"
     style="overflow:visible"
     transform="translate(20.2,6.85)">
    <g
       id="backSkirtD007b_1_1">
      <g
         id="element5">
        <path
           id="path19"
           d="M 9,-4.6 C 8,-5.3 5.1,-6.1 1.85,-6.55 c -0.5,-0.05 -1,-0.1 -1.8,-0.2 -0.25,0.05 -0.5,0.05 -0.75,0.05 -0.75,0 -1.5,0.1 -2.15,0.25 l -0.05,0 0,0.05 c 0,0.05 0,0.15 0,0.2 l 0,0.05 c 1.2,0.35 2.45,0.55 3.75,0.65 0.3,0.05 0.6,0.05 0.9,0.1 C 1.9,-5.45 2,-5.45 2.1,-5.45 c 0.35,-0.05 0.65,-0.05 0.95,0 0.05,0 0.05,0 0.1,0.05 -0.1,0 -0.2,0 -0.3,0.05 0.4,0 0.8,0 1.2,0 -0.95,0.1 -1.95,0.15 -2.95,0.1 0.2,0 0.4,0 0.6,0 -1.65,0.15 -3.35,0.35 -5,0.6 -1.95,0.3 -3.65,1.05 -5.1,2.3 -0.45,0.4 -0.8,0.9 -1,1.45 0.15,0.85 0.5,1.55 1.05,2.2 0.75,0.85 1.7,1.45 2.85,1.7 0.6,0.1 1.2,0.25 1.75,0.4 2.55,0.8 5.1,1 7.8,0.6 0,-0.05 0,-0.05 0.05,-0.05 0.1,0 0.2,-0.05 0.3,-0.1 0.05,0 0.1,0 0.15,0 0.05,0 0.15,0 0.2,0 0.1,-0.05 0.15,0 0.2,0.05 -0.55,0.65 -1.35,1.05 -2.4,1.2 -3,0.45 -6,0.6 -8.95,0.55 -0.35,0 -0.65,0.05 -1,0.15 -1.15,0.35 -2.2,0.9 -3.15,1.55 1.05,-0.1 2,-0.2 2.95,-0.35 2.25,-0.4 4.15,0.1 5.7,1.45 0.15,0.1 0.25,0.2 0.35,0.25 0.35,0.15 0.7,0.3 0.9,0.4 C -0.85,9 -1.05,8.9 -1.25,8.85 -0.5,8.8 0.25,8.5 0.95,8 1.8,7.4 2.65,6.8 3.55,6.25 4.15,5.9 4.8,5.6 5.45,5.4 c 0.85,-0.1 1.6,0 2.35,0.25 0.75,0.3 1.45,0.7 2.1,1.2 0.05,0.05 0.1,0 0.15,-0.05 0.15,0.15 0.35,0.3 0.55,0.35 0.45,0.25 0.9,0.25 1.4,0.1 0.3,-0.05 0.6,-0.1 0.9,-0.1 0.3,-0.2 0.55,-0.4 0.8,-0.6 0,0.05 0,-0.05 0,-0.15 0,-0.05 0,-0.05 0.05,-0.05 C 13.6,5.05 13.5,4 13.45,3.15 13.2,1.2 12.5,-0.5 11.25,-2 11.15,-2.1 11.1,-2.25 11.1,-2.5 11.05,-2.75 11,-2.9 10.9,-3.05 10.75,-3.2 10.65,-3.35 10.6,-3.4 L 10.575,-3.425 10.55,-3.45 C 10.35,-3.7 9.85,-4.05 9,-4.6 z m -0.05,1.1 c 0.6,0.5 0.95,0.9 1.1,1.25 0.15,0.3 0.25,0.75 0.2,1.35 0,0.55 -0.4,1.3 -1.15,2.2 l 0.55,-1.4 c 0,0 -0.1,0.25 -1,1.1 -0.95,0.8 -2.7,1.5 -2.7,1.5 l 1,-0.45 -1,0.45 L 6.9,1.6 C 7.65,1.05 8.1,0.65 8.25,0.4 8.4,0.15 8.6,-0.2 8.85,-0.75 c 0.25,-0.55 0.3,-1.5 0,-2.85 l 0.1,0.1 z m -29.1,2.5 c 0,0.05 0.1,0.15 0.25,0.25 1.05,0.6 1.75,1.5 2.2,2.65 0.25,0.65 0.4,1.35 0.55,2.05 0.2,1.35 0.8,2.3 1.55,2.7 -0.05,-0.25 -0.05,-0.55 0,-0.9 0.4,-1.65 1.2,-3.1 2.4,-4.35 0.95,-1.05 1.35,-2.2 1.15,-3.5 0,-0.15 -0.1,-0.25 -0.35,-0.25 -2.65,0.05 -5.15,0.45 -7.5,1.2 0.05,-0.05 0.1,-0.1 0.05,-0.1 -0.15,0.1 -0.2,0.15 -0.25,0.2 l -0.025,0 -0.025,0 0,0.025 0,0.025 c -0.05,0 -0.05,0 -0.05,0 l 0.05,0 z"
           inkscape:connector-curvature="0"
           style="fill:#fd88a4" />
        <path
           id="path20"
           d="m 8.95,-3.5 -0.1,-0.1 c 0.3,1.35 0.25,2.3 0,2.85 C 8.6,-0.2 8.4,0.15 8.25,0.4 8.1,0.65 7.65,1.05 6.9,1.6 l -0.95,0.9 1,-0.45 -1,0.45 c 0,0 1.75,-0.7 2.7,-1.5 0.9,-0.85 1,-1.1 1,-1.1 L 9.1,1.3 C 9.85,0.4 10.25,-0.35 10.25,-0.9 10.3,-1.5 10.2,-1.95 10.05,-2.25 9.9,-2.6 9.55,-3 8.95,-3.5 z M 1.7,-5.25 c -0.2,0 -0.4,0 -0.6,0 1,0.05 2,0 2.95,-0.1 -0.4,0 -0.8,0 -1.2,0 0.1,-0.05 0.2,-0.05 0.3,-0.05 -0.05,-0.05 -0.05,-0.05 -0.1,-0.05 -0.3,-0.05 -0.6,-0.05 -0.95,0 -0.1,0 -0.2,0 -0.35,0.05 -0.3,-0.05 -0.6,-0.05 -0.9,-0.1 -1.3,-0.1 -2.55,-0.3 -3.75,-0.65 l 0,-0.05 c 0,-0.05 0,-0.15 0,-0.2 l 0,-0.05 0.05,0 c 0.65,-0.15 1.4,-0.25 2.15,-0.25 0.25,0 0.5,0 0.75,-0.05 l -0.025,0 -1.375,-0.075 0,0.025 C -1.6,-6.85 -1.9,-6.85 -2.15,-6.85 l -0.2,0 C -2.65,-6.8 -3,-6.8 -3.4,-6.8 c -0.05,0 -0.15,0 -0.25,0 q -2.9,0.2 -5.4,2 -0.815,0.587 -1.4,1.15 c 0,0.05 0,0.05 0,0.1 -0.25,0.1 -0.55,0.15 -0.85,0.2 -2,0.25 -4,0.6 -6,1.05 -0.9,0.2 -1.8,0.55 -2.45,1 l -0.025,0 0.025,0 c -0.05,0.05 -0.1,0.1 -0.1,0.05 0.05,0 0,0.05 -0.05,0.1 2.35,-0.75 4.85,-1.15 7.5,-1.2 0.25,0 0.35,0.1 0.35,0.25 0.2,1.3 -0.2,2.45 -1.15,3.5 -1.2,1.25 -2,2.7 -2.4,4.35 -0.05,0.35 -0.05,0.65 0,0.9 0.15,0.05 0.15,0.1 0.05,0.05 0.2,0.05 0.35,0.1 0.25,0.15 0.05,0 0.1,0 0.05,0 l -0.025,0 1.95,0.5 0.025,0 c 0.05,0 0.05,0 0.05,0 l 1.975,0.025 0.025,0.025 c 0.1,-0.05 0.2,-0.05 0.35,-0.05 0.15,0 0.25,0 0.35,0 0.95,-0.65 2,-1.2 3.15,-1.55 0.35,-0.1 0.65,-0.15 1,-0.15 C -3.45,5.7 -0.45,5.55 2.55,5.1 3.6,4.95 4.4,4.55 4.95,3.9 4.9,3.85 4.85,3.8 4.75,3.85 c -0.05,0 -0.15,0 -0.2,0 -0.05,0 -0.1,0 -0.15,0 C 4.3,3.9 4.2,3.95 4.1,3.95 4.05,3.95 4.05,3.95 4.05,4 1.35,4.4 -1.2,4.2 -3.75,3.4 -4.3,3.25 -4.9,3.1 -5.5,3 -6.65,2.75 -7.6,2.15 -8.35,1.3 -8.9,0.65 -9.25,-0.05 -9.4,-0.9 c 0.2,-0.55 0.55,-1.05 1,-1.45 1.45,-1.25 3.15,-2 5.1,-2.3 1.65,-0.25 3.35,-0.45 5,-0.6 z M -1.25,8.85 C -1.05,8.9 -0.85,9 -0.65,9.1 0.95,9.65 2.55,9.85 4.2,9.75 6.05,9.6 7.8,9.3 9.55,8.8 10.4,8.55 11.25,8.2 12.1,7.65 12.35,7.55 12.6,7.35 12.9,7.15 12.6,7.15 12.3,7.2 12,7.25 11.5,7.4 11.05,7.4 10.6,7.15 10.4,7.1 10.2,6.95 10.05,6.8 10,6.85 9.95,6.9 9.9,6.85 9.25,6.35 8.55,5.95 7.8,5.65 7.05,5.4 6.3,5.3 5.45,5.4 4.8,5.6 4.15,5.9 3.55,6.25 2.65,6.8 1.8,7.4 0.95,8 0.25,8.5 -0.5,8.8 -1.25,8.85 z"
           inkscape:connector-curvature="0"
           style="fill:#de7790" />
        <path
           id="path29"
           d="m -15.3,6.85 c 0.1,-0.05 -0.05,-0.1 -0.25,-0.15 0.1,0.05 0.1,0 -0.05,-0.05 0.2,0.1 0.4,0.2 0.3,0.2"
           inkscape:connector-curvature="0"
           style="fill:#fd88a4" />
      </g>
      <g
         id="element6">
        <g
           id="drawingObject8">
          <path
             id="path30"
             d="M 12.03,6.258 C 12.78,6.312 12.735,5.362 12.388,4.76 Q 12.14,4.259 11.789,4.457 11.438,4.655 11.436,5.055 c -0.002,0.55 0.144,1.201 0.594,1.203 z"
             inkscape:connector-curvature="0"
             style="fill:#998a82" />
        </g>
        <g
           id="drawingObject9">
          <path
             id="path31"
             d="m 12.23,6.259 c 0.45,0.003 0.604,-0.847 0.258,-1.498 Q 12.24,4.26 11.939,4.458 11.689,4.557 11.637,5.006 c -0.003,0.55 0.143,1.201 0.593,1.253 z"
             inkscape:connector-curvature="0"
             style="fill:#dbc5ba" />
        </g>
      </g>
      <g
         id="element7">
        <g
           id="drawingObject10">
          <path
             id="path32"
             d="M 12.583,2.985 C 12.584,2.29 12.031,1.85 11.671,1.871 q -0.651,0.024 -0.584,0.7 0.006,0.583 0.368,0.854 c 0.345,0.202 1.169,0.28 1.128,-0.44 z"
             inkscape:connector-curvature="0"
             style="fill:#998a82" />
        </g>
        <g
           id="drawingObject11">
          <path
             id="path33"
             d="M 12.709,2.769 C 12.668,2.05 12.193,1.771 11.833,1.792 q -0.651,0.024 -0.645,0.607 0.006,0.583 0.351,0.785 c 0.363,0.271 1.143,0.323 1.17,-0.415 z"
             inkscape:connector-curvature="0"
             style="fill:#dbc5ba" />
        </g>
      </g>
      <g
         id="element8">
        <g
           id="drawingObject12">
          <path
             id="path34"
             d="M 12.03,6.258 C 12.78,6.312 12.735,5.362 12.388,4.76 Q 12.14,4.259 11.789,4.457 11.438,4.655 11.436,5.055 c -0.002,0.55 0.144,1.201 0.594,1.203 z"
             inkscape:connector-curvature="0"
             style="fill:#998a82" />
        </g>
        <g
           id="drawingObject13">
          <path
             id="path35"
             d="m 12.23,6.259 c 0.45,0.003 0.604,-0.847 0.258,-1.498 Q 12.24,4.26 11.939,4.458 11.689,4.557 11.637,5.006 c -0.003,0.55 0.143,1.201 0.593,1.253 z"
             inkscape:connector-curvature="0"
             style="fill:#dbc5ba" />
        </g>
      </g>
      <g
         id="element9">
        <g
           id="drawingObject14">
          <path
             id="path36"
             d="M 12.583,2.985 C 12.584,2.29 12.031,1.85 11.671,1.871 q -0.651,0.024 -0.584,0.7 0.006,0.583 0.368,0.854 c 0.345,0.202 1.169,0.28 1.128,-0.44 z"
             inkscape:connector-curvature="0"
             style="fill:#998a82" />
        </g>
        <g
           id="drawingObject15">
          <path
             id="path37"
             d="M 12.709,2.769 C 12.668,2.05 12.193,1.771 11.833,1.792 q -0.651,0.024 -0.645,0.607 0.006,0.583 0.351,0.785 c 0.363,0.271 1.143,0.323 1.17,-0.415 z"
             inkscape:connector-curvature="0"
             style="fill:#dbc5ba" />
        </g>
      </g>
    </g>
    <g
       id="backSkirtD007b_1_0">
      <g
         id="element">
        <path
           id="path"
           d="M 9,-4.6 C 8,-5.3 5.1,-6.1 1.85,-6.55 c -0.5,-0.05 -1,-0.1 -1.8,-0.2 -0.25,0.05 -0.5,0.05 -0.75,0.05 -0.75,0 -1.5,0.1 -2.15,0.25 l -0.05,0 0,0.05 c 0,0.05 0,0.15 0,0.2 l 0,0.05 c 1.2,0.35 2.45,0.55 3.75,0.65 0.3,0.05 0.6,0.05 0.9,0.1 C 1.9,-5.45 2,-5.45 2.1,-5.45 c 0.35,-0.05 0.65,-0.05 0.95,0 0.05,0 0.05,0 0.1,0.05 -0.1,0 -0.2,0 -0.3,0.05 0.4,0 0.8,0 1.2,0 -0.95,0.1 -1.95,0.15 -2.95,0.1 0.2,0 0.4,0 0.6,0 -1.65,0.15 -3.35,0.35 -5,0.6 -1.95,0.3 -3.65,1.05 -5.1,2.3 -0.45,0.4 -0.8,0.9 -1,1.45 0.15,0.85 0.5,1.55 1.05,2.2 0.75,0.85 1.7,1.45 2.85,1.7 0.6,0.1 1.2,0.25 1.75,0.4 2.55,0.8 5.1,1 7.8,0.6 0,-0.05 0,-0.05 0.05,-0.05 0.1,0 0.2,-0.05 0.3,-0.1 0.05,0 0.1,0 0.15,0 0.05,0 0.15,0 0.2,0 0.1,-0.05 0.15,0 0.2,0.05 -0.55,0.65 -1.35,1.05 -2.4,1.2 -3,0.45 -6,0.6 -8.95,0.55 -0.35,0 -0.65,0.05 -1,0.15 -1.15,0.35 -2.2,0.9 -3.15,1.55 1.05,-0.1 2,-0.2 2.95,-0.35 2.25,-0.4 4.15,0.1 5.7,1.45 0.15,0.1 0.25,0.2 0.35,0.25 0.35,0.15 0.7,0.3 0.9,0.4 C -0.85,9 -1.05,8.9 -1.25,8.85 -0.5,8.8 0.25,8.5 0.95,8 1.8,7.4 2.65,6.8 3.55,6.25 4.15,5.9 4.8,5.6 5.45,5.4 c 0.85,-0.1 1.6,0 2.35,0.25 0.75,0.3 1.45,0.7 2.1,1.2 0.05,0.05 0.1,0 0.15,-0.05 0.15,0.15 0.35,0.3 0.55,0.35 0.45,0.25 0.9,0.25 1.4,0.1 0.3,-0.05 0.6,-0.1 0.9,-0.1 0.3,-0.2 0.55,-0.4 0.8,-0.6 0,0.05 0,-0.05 0,-0.15 0,-0.05 0,-0.05 0.05,-0.05 C 13.6,5.05 13.5,4 13.45,3.15 13.2,1.2 12.5,-0.5 11.25,-2 11.15,-2.1 11.1,-2.25 11.1,-2.5 11.05,-2.75 11,-2.9 10.9,-3.05 10.75,-3.2 10.65,-3.35 10.6,-3.4 L 10.575,-3.425 10.55,-3.45 C 10.35,-3.7 9.85,-4.05 9,-4.6 z m -0.05,1.1 c 0.6,0.5 0.95,0.9 1.1,1.25 0.15,0.3 0.25,0.75 0.2,1.35 0,0.55 -0.4,1.3 -1.15,2.2 l 0.55,-1.4 c 0,0 -0.1,0.25 -1,1.1 -0.95,0.8 -2.7,1.5 -2.7,1.5 l 1,-0.45 -1,0.45 L 6.9,1.6 C 7.65,1.05 8.1,0.65 8.25,0.4 8.4,0.15 8.6,-0.2 8.85,-0.75 c 0.25,-0.55 0.3,-1.5 0,-2.85 l 0.1,0.1 z m -29.1,2.5 c 0,0.05 0.1,0.15 0.25,0.25 1.05,0.6 1.75,1.5 2.2,2.65 0.25,0.65 0.4,1.35 0.55,2.05 0.2,1.35 0.8,2.3 1.55,2.7 -0.05,-0.25 -0.05,-0.55 0,-0.9 0.4,-1.65 1.2,-3.1 2.4,-4.35 0.95,-1.05 1.35,-2.2 1.15,-3.5 0,-0.15 -0.1,-0.25 -0.35,-0.25 -2.65,0.05 -5.15,0.45 -7.5,1.2 0.05,-0.05 0.1,-0.1 0.05,-0.1 -0.15,0.1 -0.2,0.15 -0.25,0.2 l -0.025,0 -0.025,0 0,0.025 0,0.025 c -0.05,0 -0.05,0 -0.05,0 l 0.05,0 z"
           inkscape:connector-curvature="0"
           style="fill:#fd88a4" />
        <path
           id="path1"
           d="m 8.95,-3.5 -0.1,-0.1 c 0.3,1.35 0.25,2.3 0,2.85 C 8.6,-0.2 8.4,0.15 8.25,0.4 8.1,0.65 7.65,1.05 6.9,1.6 l -0.95,0.9 1,-0.45 -1,0.45 c 0,0 1.75,-0.7 2.7,-1.5 0.9,-0.85 1,-1.1 1,-1.1 L 9.1,1.3 C 9.85,0.4 10.25,-0.35 10.25,-0.9 10.3,-1.5 10.2,-1.95 10.05,-2.25 9.9,-2.6 9.55,-3 8.95,-3.5 z M 1.7,-5.25 c -0.2,0 -0.4,0 -0.6,0 1,0.05 2,0 2.95,-0.1 -0.4,0 -0.8,0 -1.2,0 0.1,-0.05 0.2,-0.05 0.3,-0.05 -0.05,-0.05 -0.05,-0.05 -0.1,-0.05 -0.3,-0.05 -0.6,-0.05 -0.95,0 -0.1,0 -0.2,0 -0.35,0.05 -0.3,-0.05 -0.6,-0.05 -0.9,-0.1 -1.3,-0.1 -2.55,-0.3 -3.75,-0.65 l 0,-0.05 c 0,-0.05 0,-0.15 0,-0.2 l 0,-0.05 0.05,0 c 0.65,-0.15 1.4,-0.25 2.15,-0.25 0.25,0 0.5,0 0.75,-0.05 l -0.025,0 -1.375,-0.075 0,0.025 C -1.6,-6.85 -1.9,-6.85 -2.15,-6.85 l -0.2,0 C -2.65,-6.8 -3,-6.8 -3.4,-6.8 c -0.05,0 -0.15,0 -0.25,0 q -2.9,0.2 -5.4,2 -0.815,0.587 -1.4,1.15 c 0,0.05 0,0.05 0,0.1 -0.25,0.1 -0.55,0.15 -0.85,0.2 -2,0.25 -4,0.6 -6,1.05 -0.9,0.2 -1.8,0.55 -2.45,1 l -0.025,0 0.025,0 c -0.05,0.05 -0.1,0.1 -0.1,0.05 0.05,0 0,0.05 -0.05,0.1 2.35,-0.75 4.85,-1.15 7.5,-1.2 0.25,0 0.35,0.1 0.35,0.25 0.2,1.3 -0.2,2.45 -1.15,3.5 -1.2,1.25 -2,2.7 -2.4,4.35 -0.05,0.35 -0.05,0.65 0,0.9 0.15,0.05 0.15,0.1 0.05,0.05 0.2,0.05 0.35,0.1 0.25,0.15 0.05,0 0.1,0 0.05,0 l -0.025,0 1.95,0.5 0.025,0 c 0.05,0 0.05,0 0.05,0 l 1.975,0.025 0.025,0.025 c 0.1,-0.05 0.2,-0.05 0.35,-0.05 0.15,0 0.25,0 0.35,0 0.95,-0.65 2,-1.2 3.15,-1.55 0.35,-0.1 0.65,-0.15 1,-0.15 C -3.45,5.7 -0.45,5.55 2.55,5.1 3.6,4.95 4.4,4.55 4.95,3.9 4.9,3.85 4.85,3.8 4.75,3.85 c -0.05,0 -0.15,0 -0.2,0 -0.05,0 -0.1,0 -0.15,0 C 4.3,3.9 4.2,3.95 4.1,3.95 4.05,3.95 4.05,3.95 4.05,4 1.35,4.4 -1.2,4.2 -3.75,3.4 -4.3,3.25 -4.9,3.1 -5.5,3 -6.65,2.75 -7.6,2.15 -8.35,1.3 -8.9,0.65 -9.25,-0.05 -9.4,-0.9 c 0.2,-0.55 0.55,-1.05 1,-1.45 1.45,-1.25 3.15,-2 5.1,-2.3 1.65,-0.25 3.35,-0.45 5,-0.6 z M -1.25,8.85 C -1.05,8.9 -0.85,9 -0.65,9.1 0.95,9.65 2.55,9.85 4.2,9.75 6.05,9.6 7.8,9.3 9.55,8.8 10.4,8.55 11.25,8.2 12.1,7.65 12.35,7.55 12.6,7.35 12.9,7.15 12.6,7.15 12.3,7.2 12,7.25 11.5,7.4 11.05,7.4 10.6,7.15 10.4,7.1 10.2,6.95 10.05,6.8 10,6.85 9.95,6.9 9.9,6.85 9.25,6.35 8.55,5.95 7.8,5.65 7.05,5.4 6.3,5.3 5.45,5.4 4.8,5.6 4.15,5.9 3.55,6.25 2.65,6.8 1.8,7.4 0.95,8 0.25,8.5 -0.5,8.8 -1.25,8.85 z"
           inkscape:connector-curvature="0"
           style="fill:#de7790" />
        <path
           id="path10"
           d="m -15.3,6.85 c 0.1,-0.05 -0.05,-0.1 -0.25,-0.15 0.1,0.05 0.1,0 -0.05,-0.05 0.2,0.1 0.4,0.2 0.3,0.2"
           inkscape:connector-curvature="0"
           style="fill:#fd88a4" />
      </g>
      <g
         id="element1">
        <g
           id="drawingObject">
          <path
             id="path11"
             d="M 12.03,6.258 C 12.78,6.312 12.735,5.362 12.388,4.76 Q 12.14,4.259 11.789,4.457 11.438,4.655 11.436,5.055 c -0.002,0.55 0.144,1.201 0.594,1.203 z"
             inkscape:connector-curvature="0"
             style="fill:#998a82" />
        </g>
        <g
           id="drawingObject1">
          <path
             id="path12"
             d="m 12.23,6.259 c 0.45,0.003 0.604,-0.847 0.258,-1.498 Q 12.24,4.26 11.939,4.458 11.689,4.557 11.637,5.006 c -0.003,0.55 0.143,1.201 0.593,1.253 z"
             inkscape:connector-curvature="0"
             style="fill:#dbc5ba" />
        </g>
      </g>
      <g
         id="element2">
        <g
           id="drawingObject2">
          <path
             id="path13"
             d="M 12.583,2.985 C 12.584,2.29 12.031,1.85 11.671,1.871 q -0.651,0.024 -0.584,0.7 0.006,0.583 0.368,0.854 c 0.345,0.202 1.169,0.28 1.128,-0.44 z"
             inkscape:connector-curvature="0"
             style="fill:#998a82" />
        </g>
        <g
           id="drawingObject3">
          <path
             id="path14"
             d="M 12.709,2.769 C 12.668,2.05 12.193,1.771 11.833,1.792 q -0.651,0.024 -0.645,0.607 0.006,0.583 0.351,0.785 c 0.363,0.271 1.143,0.323 1.17,-0.415 z"
             inkscape:connector-curvature="0"
             style="fill:#dbc5ba" />
        </g>
      </g>
      <g
         id="element3">
        <g
           id="drawingObject4">
          <path
             id="path15"
             d="M 12.03,6.258 C 12.78,6.312 12.735,5.362 12.388,4.76 Q 12.14,4.259 11.789,4.457 11.438,4.655 11.436,5.055 c -0.002,0.55 0.144,1.201 0.594,1.203 z"
             inkscape:connector-curvature="0"
             style="fill:#998a82" />
        </g>
        <g
           id="drawingObject5">
          <path
             id="path16"
             d="m 12.23,6.259 c 0.45,0.003 0.604,-0.847 0.258,-1.498 Q 12.24,4.26 11.939,4.458 11.689,4.557 11.637,5.006 c -0.003,0.55 0.143,1.201 0.593,1.253 z"
             inkscape:connector-curvature="0"
             style="fill:#dbc5ba" />
        </g>
      </g>
      <g
         id="element4">
        <g
           id="drawingObject6">
          <path
             id="path17"
             d="M 12.583,2.985 C 12.584,2.29 12.031,1.85 11.671,1.871 q -0.651,0.024 -0.584,0.7 0.006,0.583 0.368,0.854 c 0.345,0.202 1.169,0.28 1.128,-0.44 z"
             inkscape:connector-curvature="0"
             style="fill:#998a82" />
        </g>
        <g
           id="drawingObject7">
          <path
             id="path18"
             d="M 12.709,2.769 C 12.668,2.05 12.193,1.771 11.833,1.792 q -0.651,0.024 -0.645,0.607 0.006,0.583 0.351,0.785 c 0.363,0.271 1.143,0.323 1.17,-0.415 z"
             inkscape:connector-curvature="0"
             style="fill:#dbc5ba" />
        </g>
      </g>
    </g>
  </g>
</svg>
