<?xml version="1.0" encoding="UTF-8" standalone="no"?>
<!-- Generator: flash2svg, http://dissentgraphics.com/tools/flash2svg -->

<svg
   xmlns:dc="http://purl.org/dc/elements/1.1/"
   xmlns:cc="http://creativecommons.org/ns#"
   xmlns:rdf="http://www.w3.org/1999/02/22-rdf-syntax-ns#"
   xmlns:svg="http://www.w3.org/2000/svg"
   xmlns="http://www.w3.org/2000/svg"
   xmlns:sodipodi="http://sodipodi.sourceforge.net/DTD/sodipodi-0.dtd"
   xmlns:inkscape="http://www.inkscape.org/namespaces/inkscape"
   id="AvatarAssets"
   image-rendering="auto"
   version="1.1"
   x="0px"
   y="0px"
   width="22.7875"
   height="28.269693"
   viewBox="0 0 22.7875 28.269693"
   inkscape:version="0.48.4 r9939"
   sodipodi:docname="AvatarAssets_backShirtTorso20101103Black3.svg">
  <metadata
     id="metadata3020">
    <rdf:RDF>
      <cc:Work
         rdf:about="">
        <dc:format>image/svg+xml</dc:format>
        <dc:type
           rdf:resource="http://purl.org/dc/dcmitype/StillImage" />
      </cc:Work>
    </rdf:RDF>
  </metadata>
  <sodipodi:namedview
     pagecolor="#ffffff"
     bordercolor="#666666"
     borderopacity="1"
     objecttolerance="10"
     gridtolerance="10"
     guidetolerance="10"
     inkscape:pageopacity="0"
     inkscape:pageshadow="2"
     inkscape:window-width="640"
     inkscape:window-height="480"
     id="namedview3018"
     showgrid="false"
     fit-margin-top="0"
     fit-margin-left="0"
     fit-margin-right="0"
     fit-margin-bottom="0"
     inkscape:zoom="1.9032258"
     inkscape:cx="43.6375"
     inkscape:cy="-64.25"
     inkscape:window-x="0"
     inkscape:window-y="0"
     inkscape:window-maximized="0"
     inkscape:current-layer="AvatarAssets" />
  <defs
     id="defs3007" />
  <g
     id="backShirtTorso20101103Black4"
     overflow="visible"
     style="overflow:visible"
     transform="translate(11.6375,30.519694)">
    <g
       id="backShirtTorso20101103Black3_0">
      <g
         id="element">
        <path
           id="path"
           d="m 2.15,-28.9 0.05,-0.75 0.1,0.85 c 0.35,0.2 0.55,0.55 0.35,1.1 l -0.3,0.05 0.05,0.85 c 0.5,0.1 1,0.15 1.55,0.1 0.25,-0.85 0.45,-1.05 0.1,-1.75 -0.25,-0.55 -1,-1.3 -1.8,-1.85 0.05,0 -0.05,-0.05 -0.15,-0.1 -0.75,-0.15 -1.55,-0.15 -2.75,-0.05 l -0.3,0.05 -0.2,0 c -0.25,0.05 -0.45,0.05 -0.6,0.1 0.4,-0.05 0.85,-0.05 1.3,0 l 0.05,-0.05 0,0.05 0.05,0 c 0.05,0.45 0.15,0.4 0.55,0.65 -0.1,0.05 -0.15,0.2 -0.35,0.25 0.45,0.2 1.6,0.2 2.3,0.5 z m -0.4,1.6 c -0.45,0.05 -1,-0.1 -1.4,-0.15 -0.35,-0.1 -0.6,-0.1 -0.85,-0.1 l 0.05,0.35 c 0.7,0 1.35,0.15 2,0.25 l 0.2,-0.35 z m 3.1,3 C 4.25,-25.05 2.5,-26.05 1.1,-26.5 l -1.7,-0.15 -0.15,0 c 0.45,0.2 1.45,0.65 1.7,0.95 0.35,0.5 0.15,1.05 0.25,1.65 0.05,0.7 0.25,0.95 0.7,1.45 l -0.2,0.05 c -0.05,0.5 0.2,1.25 -0.25,1.5 -0.8,0.4 -1.35,-1.55 -1.45,-2 -0.6,0.75 -0.25,2.35 -0.5,3.35 -0.1,0.6 -0.3,1.15 -0.45,1.75 -0.1,0.45 -0.1,0.65 -0.25,1 -0.1,0.15 -0.4,0.15 -0.5,0.3 -0.1,0.2 0,0.55 -0.15,0.8 -0.3,0.6 0,0.45 -0.75,0.9 -0.4,0.2 -0.95,0.25 -1.35,0.5 0.95,0.2 2,0.15 2.9,0.35 l -2.5,1.7 c 2.5,-0.1 5.1,-0.2 7.25,1.2 -2.15,-0.05 -4.3,-0.1 -6.4,0.15 1.05,0.55 2.3,0.65 3.3,1.25 -1.45,0.1 -2.95,0.1 -4.2,0.85 -0.55,0.3 -1.05,0.85 -1.65,0.95 -0.95,-2.1 -1.85,0.7 -3.2,0.3 -1,-0.3 -0.8,-1.8 -1.4,-2.35 -0.1,-0.1 -0.15,-0.15 -0.2,-0.15 l -0.05,0 -0.25,0.65 -1.1,3.95 c -0.05,0.45 -0.1,0.95 -0.15,1.45 0.05,-0.05 0.15,-0.15 0.25,-0.2 0.55,-0.5 1.25,-1 2.2,-1.45 3.1,-1.5 6.1,-2.15 9.45,-2.15 0.8,0 2.2,0.2 2.9,-0.35 1.25,-1 -0.25,-0.85 -0.4,-1.6 0.6,-0.05 1.5,-0.05 2,-0.55 0.55,-0.55 0.25,-0.8 0.25,-1.5 l 0,-2.35 c 1.4,0.05 0.95,-0.2 0.9,-1.15 -0.05,-0.65 0.3,-1.1 0.2,-1.75 -0.15,-1.15 -1.4,-1.75 -1.6,-3 -0.15,-0.95 0.1,-1.75 0.4,-2.6 0.2,-0.7 0.35,-0.95 -0.1,-1.5 z m -9.75,-1.3 c 0.15,-0.2 0.35,-0.35 0.7,-0.6 -0.05,0 -0.35,0.15 -0.6,0.3 l -0.3,0.15 0.2,0.15 z m 4.25,-1.6 0.05,-0.35 c -0.45,0 -0.8,0.1 -1.35,0.35 l -0.9,0.4 0.85,-0.25 c 0.45,-0.15 0.9,-0.2 1.35,-0.15 z M -5,-25.15 -5.45,-25.5 c -0.45,0.3 -0.8,0.7 -0.75,1.3 0.05,0 0.05,0.05 0.1,0.1 0.3,-0.4 0.65,-0.75 1.1,-1.05 z"
           inkscape:connector-curvature="0"
           style="fill:#202121" />
        <path
           id="path1"
           d="m 2.2,-29.65 -0.05,0.75 c -0.05,0.5 -0.2,1.1 -0.4,1.6 l -0.2,0.35 c -0.15,0.2 -0.3,0.35 -0.35,0.45 0.2,0.05 0.4,0.1 0.6,0.15 l 0.6,0.1 0,-0.55 -0.05,-0.85 -0.05,-1.15 -0.1,-0.85 z"
           inkscape:connector-curvature="0"
           style="fill:#0f0f0f" />
        <path
           id="path2"
           d="m 2.1,-30.4 c 0.1,0.05 0.2,0.1 0.15,0.1 0.8,0.55 1.55,1.3 1.8,1.85 0.35,0.7 0.15,0.9 -0.1,1.75 -0.55,0.05 -1.05,0 -1.55,-0.1 l 0,0.55 -0.6,-0.1 c -0.25,-0.05 -0.45,-0.1 -0.7,-0.15 1.4,0.45 3.15,1.45 3.75,2.2 0.45,0.55 0.3,0.8 0.1,1.5 -0.3,0.85 -0.55,1.65 -0.4,2.6 0.2,1.25 1.45,1.85 1.6,3 0.1,0.65 -0.25,1.1 -0.2,1.75 0.05,0.95 0.5,1.2 -0.9,1.15 l 0,2.35 c 0,0.7 0.3,0.95 -0.25,1.5 -0.5,0.5 -1.4,0.5 -2,0.55 0.15,0.75 1.65,0.6 0.4,1.6 -0.7,0.55 -2.1,0.35 -2.9,0.35 -3.35,0 -6.35,0.65 -9.45,2.15 -0.95,0.45 -1.65,0.95 -2.2,1.45 -0.1,0.05 -0.2,0.15 -0.25,0.2 l 0,1.75 0.2,-0.1 0,-0.05 c 0,-0.05 0,-0.05 0.05,-0.05 0.4,-0.55 1.05,-1.15 1.95,-1.7 l 0.8,-0.45 c 0.8,-0.4 1.75,-0.75 2.8,-1.05 0.1,-0.05 0.2,-0.05 0.35,-0.1 0.05,-0.05 0.05,-0.05 0.1,-0.05 l 1.6,-0.6 c 0.05,-0.05 0.1,-0.05 0.15,-0.05 0.15,-0.05 0.25,-0.1 0.35,-0.15 1.75,-0.6 3.35,-0.7 5.15,-0.7 2.2,0 4.35,0.15 6.5,0.25 0.2,-1.4 -0.1,-2.9 -0.25,-4.25 -0.05,-0.85 0.3,-1.25 0.4,-2 0.15,-0.85 -0.2,-1.7 -0.5,-2.45 -0.65,-1.6 -1.35,-3.35 -1.6,-5.05 -0.1,-0.75 0.05,-1.8 -0.05,-2.7 L 5.9,-24.4 C 5.85,-24.45 5.75,-24.55 5.65,-24.6 L 5.3,-24.9 c -0.35,-0.25 -0.75,-0.5 -1.15,-0.7 0.2,-0.1 0.5,-0.15 0.95,-0.1 0.4,0 0.7,-0.1 0.85,-0.25 l 0.2,-0.45 -0.05,-0.45 c -0.05,-0.1 -0.05,-0.2 -0.05,-0.3 l 0,-0.05 -0.05,-0.05 0,-0.1 -0.2,-0.35 c -0.1,-0.15 -0.3,-0.5 -0.6,-0.85 l -0.55,-0.6 C 4,-29.8 3.15,-30.2 2.1,-30.4 z m 1.25,4.45 c 0.15,-0.1 0.25,-0.25 0.4,-0.4 0.15,-0.15 0.35,-0.6 0.7,-1.4 0,0.75 -0.2,1.45 -0.35,2.15 -0.25,-0.15 -0.5,-0.25 -0.75,-0.35 z M 1.2,-26.5 c 0.05,-0.1 0.2,-0.25 0.35,-0.45 -0.65,-0.1 -1.3,-0.25 -2,-0.25 0.05,0.25 0.15,0.45 0.3,0.55 0.55,0 1,0.05 1.35,0.15 z m -4.15,0.15 c 0,0 -0.05,-0.15 -0.15,-0.35 -0.35,0.1 -0.7,0.25 -1.1,0.5 -0.35,0.25 -0.55,0.4 -0.7,0.6 l 0.2,0.15 0.05,0.05 c 0.25,-0.2 0.5,-0.3 0.75,-0.4 l 0.6,-0.4 -0.6,0.4 c 0,0 0.15,-0.4 0.95,-0.55 z m 2.15,-0.3 c 0,-0.05 0.1,-0.3 0.15,-0.55 -0.45,-0.05 -0.9,0 -1.35,0.15 l -0.85,0.25 c 0.15,0.15 0.3,0.3 0.35,0.35 0.5,-0.15 1.05,-0.2 1.7,-0.2 z"
           inkscape:connector-curvature="0"
           style="fill:#161717" />
        <path
           id="path3"
           d="m 3.35,-25.95 c 0.25,0.1 0.5,0.2 0.75,0.35 0.15,-0.7 0.35,-1.4 0.35,-2.15 -0.35,0.8 -0.55,1.25 -0.7,1.4 -0.15,0.15 -0.25,0.3 -0.4,0.4 z m 2.75,-0.9 0.05,0.45 -0.2,0.45 C 5.8,-25.8 5.5,-25.7 5.1,-25.7 c -0.45,-0.05 -0.75,0 -0.95,0.1 0.4,0.2 0.8,0.45 1.15,0.7 l 0.35,0.3 c 0.1,0.05 0.2,0.15 0.25,0.2 0.15,0.15 0.3,0.35 0.35,0.45 l 0.2,-0.6 0.1,-0.6 c 0.1,-0.5 0,-1.2 -0.55,-2.2 l 0,0.1 0.05,0.05 0,0.05 c 0,0.1 0,0.2 0.05,0.3 z m 0.3,3.2 c 0.1,0.9 -0.05,1.95 0.05,2.7 0.25,1.7 0.95,3.45 1.6,5.05 0.3,0.75 0.65,1.6 0.5,2.45 -0.1,0.75 -0.45,1.15 -0.4,2 C 8.3,-10.1 8.6,-8.6 8.4,-7.2 6.25,-7.3 4.1,-7.45 1.9,-7.45 c -1.8,0 -3.4,0.1 -5.15,0.7 -0.1,0.05 -0.2,0.1 -0.35,0.15 -0.05,0 -0.1,0 -0.15,0.05 l -1.6,0.6 c -0.05,0 -0.05,0 -0.1,0.05 0.7,-0.15 1.55,-0.3 2.4,-0.45 L -0.4,-6.6 c 9.1,-0.35 11.55,4.35 11.55,4.35 l -0.2,-2.4 c -0.15,-2.45 -2.25,-8.9 -2.6,-11.2 -0.3,-2.05 -0.65,-3.7 -1,-5.05 l -0.7,-2.25 c -0.1,-0.2 -0.2,-0.35 -0.25,-0.5 z m -11.5,-2.1 -1.2,-1.15 c -0.05,0.4 0.4,0.95 0.85,1.4 l 0.45,0.35 c 0.05,-0.05 0.2,-0.15 0.35,-0.25 l -0.05,-0.05 -0.2,-0.15 -0.2,-0.15 z m 4.7,-4.55 -0.05,0 c -0.35,0.55 -0.1,1.75 -0.15,2.75 l -0.05,-1.55 0.05,1.55 -0.05,0.35 c -0.05,0.25 -0.15,0.5 -0.15,0.55 l 0.05,0 0.15,0 c 0.15,0 0.3,0 0.45,0 -0.15,-0.1 -0.25,-0.3 -0.3,-0.55 l -0.05,-0.35 c -0.1,-0.9 0.05,-2.1 0.1,-2.75 z m -3.65,1.1 c -0.1,0.75 0.6,1.6 0.95,2.45 l 0.25,-0.05 c -0.65,-0.75 -1.15,-1.85 -1.2,-2.4 z m 1.2,2.4 -0.25,0.1 c 0.1,0.2 0.15,0.35 0.15,0.35 0.15,-0.05 0.3,-0.1 0.45,-0.1 -0.05,-0.05 -0.2,-0.2 -0.35,-0.35 z"
           inkscape:connector-curvature="0"
           style="fill:#0f0f0f" />
        <path
           id="path6"
           d="m 2.15,-28.9 c -0.7,-0.3 -1.85,-0.3 -2.3,-0.5 0.2,-0.05 0.25,-0.2 0.35,-0.25 -0.4,-0.25 -0.5,-0.2 -0.55,-0.65 l -0.05,0 c -0.05,0.65 -0.2,1.85 -0.1,2.75 0.25,0 0.5,0 0.85,0.1 0.4,0.05 0.95,0.2 1.4,0.15 0.2,-0.5 0.35,-1.1 0.4,-1.6 z m -1.05,2.4 c 0.25,0.05 0.45,0.1 0.7,0.15 -0.2,-0.05 -0.4,-0.1 -0.6,-0.15 -0.35,-0.1 -0.8,-0.15 -1.35,-0.15 -0.15,0 -0.3,0 -0.45,0 l 1.7,0.15 z m 1.55,-1.2 c 0.2,-0.55 0,-0.9 -0.35,-1.1 l 0.05,1.15 0.3,-0.05 z m 3.25,3.3 0.5,0.75 c 0.05,0.15 0.15,0.3 0.25,0.5 -0.15,-0.35 -0.25,-0.6 -0.4,-0.8 -0.05,-0.1 -0.2,-0.3 -0.35,-0.45 z M 0,-23.05 c 0.1,0.45 0.65,2.4 1.45,2 0.45,-0.25 0.2,-1 0.25,-1.5 L 1.9,-22.6 C 1.45,-23.1 1.25,-23.35 1.2,-24.05 1.1,-24.65 1.3,-25.2 0.95,-25.7 0.7,-26 -0.3,-26.45 -0.75,-26.65 l -0.05,0 c -0.65,0 -1.2,0.05 -1.7,0.2 -0.15,0 -0.3,0.05 -0.45,0.1 -0.8,0.15 -0.95,0.55 -0.95,0.55 l 0.6,-0.4 -0.6,0.4 c -0.25,0.1 -0.5,0.2 -0.75,0.4 -0.15,0.1 -0.3,0.2 -0.35,0.25 -0.45,0.3 -0.8,0.65 -1.1,1.05 -0.05,-0.05 -0.05,-0.1 -0.1,-0.1 -0.05,-0.6 0.3,-1 0.75,-1.3 -0.45,-0.45 -0.9,-1 -0.85,-1.4 l 1.2,1.15 0.3,-0.15 c 0.25,-0.15 0.55,-0.3 0.6,-0.3 0.4,-0.25 0.75,-0.4 1.1,-0.5 l 0.25,-0.1 -0.25,0.05 c -0.35,-0.85 -1.05,-1.7 -0.95,-2.45 0.05,0.55 0.55,1.65 1.2,2.4 l 0.9,-0.4 c 0.55,-0.25 0.9,-0.35 1.35,-0.35 l -0.05,-1.55 0.05,1.55 c 0.05,-1 -0.2,-2.2 0.15,-2.75 -0.45,-0.05 -0.9,-0.05 -1.3,0 0.15,-0.05 0.35,-0.05 0.6,-0.1 -0.35,0 -0.65,0.05 -1,0.1 -3.25,0.5 -4.4,3.1 -4.75,4.6 q -0.25,0.85 0.25,1.15 0.4,0.3 0.55,0.5 c -1.15,1.25 -1.6,3.1 -1.8,4.05 -0.1,0.45 -0.35,1.95 -0.75,4.45 -0.45,2.2 -0.9,4 -1.4,5.35 0.05,0 0.1,0.05 0.2,0.15 0.6,0.55 0.4,2.05 1.4,2.35 1.35,0.4 2.25,-2.4 3.2,-0.3 0.6,-0.1 1.1,-0.65 1.65,-0.95 1.25,-0.75 2.75,-0.75 4.2,-0.85 -1,-0.6 -2.25,-0.7 -3.3,-1.25 2.1,-0.25 4.25,-0.2 6.4,-0.15 -2.15,-1.4 -4.75,-1.3 -7.25,-1.2 l 2.5,-1.7 c -0.9,-0.2 -1.95,-0.15 -2.9,-0.35 0.4,-0.25 0.95,-0.3 1.35,-0.5 0.75,-0.45 0.45,-0.3 0.75,-0.9 0.15,-0.25 0.05,-0.6 0.15,-0.8 0.1,-0.15 0.4,-0.15 0.5,-0.3 0.15,-0.35 0.15,-0.55 0.25,-1 0.15,-0.6 0.35,-1.15 0.45,-1.75 0.25,-1 -0.1,-2.6 0.5,-3.35 z m -11.4,20.55 -0.2,0.1 0,-1.75 c -0.05,0.75 -0.05,1.35 0,1.9 0.05,-0.1 0.15,-0.2 0.2,-0.25 z"
           inkscape:connector-curvature="0"
           style="fill:#2a2b2b" />
        <path
           id="path29"
           d="m -0.45,-30.3 0.05,0 0,-0.05 -0.05,0.05"
           inkscape:connector-curvature="0"
           style="fill:#2a2b2b" />
      </g>
    </g>
  </g>
</svg>
