<?xml version="1.0" encoding="UTF-8" standalone="no"?>
<!-- Generator: flash2svg, http://dissentgraphics.com/tools/flash2svg -->

<svg
   xmlns:dc="http://purl.org/dc/elements/1.1/"
   xmlns:cc="http://creativecommons.org/ns#"
   xmlns:rdf="http://www.w3.org/1999/02/22-rdf-syntax-ns#"
   xmlns:svg="http://www.w3.org/2000/svg"
   xmlns="http://www.w3.org/2000/svg"
   xmlns:sodipodi="http://sodipodi.sourceforge.net/DTD/sodipodi-0.dtd"
   xmlns:inkscape="http://www.inkscape.org/namespaces/inkscape"
   id="AvatarAssets"
   image-rendering="auto"
   version="1.1"
   x="0px"
   y="0px"
   width="59.900002"
   height="49.8125"
   viewBox="0 0 59.900002 49.8125"
   inkscape:version="0.48.4 r9939"
   sodipodi:docname="AvatarAssets_backCapeD006.svg">
  <metadata
     id="metadata138">
    <rdf:RDF>
      <cc:Work
         rdf:about="">
        <dc:format>image/svg+xml</dc:format>
        <dc:type
           rdf:resource="http://purl.org/dc/dcmitype/StillImage" />
      </cc:Work>
    </rdf:RDF>
  </metadata>
  <sodipodi:namedview
     pagecolor="#ffffff"
     bordercolor="#666666"
     borderopacity="1"
     objecttolerance="10"
     gridtolerance="10"
     guidetolerance="10"
     inkscape:pageopacity="0"
     inkscape:pageshadow="2"
     inkscape:window-width="640"
     inkscape:window-height="480"
     id="namedview136"
     showgrid="false"
     fit-margin-top="0"
     fit-margin-left="0"
     fit-margin-right="0"
     fit-margin-bottom="0"
     inkscape:zoom="1.9032258"
     inkscape:cx="61.85"
     inkscape:cy="-38.8"
     inkscape:window-x="0"
     inkscape:window-y="0"
     inkscape:window-maximized="0"
     inkscape:current-layer="AvatarAssets" />
  <defs
     id="defs3" />
  <g
     id="backCapeD7"
     overflow="visible"
     style="overflow:visible"
     transform="translate(29.85,26.6125)">
    <g
       id="backCapeD006_1_1163">
      <g
         id="element10">
        <path
           id="path208"
           d="M 0.35,-25.675 Q 0.23,-25.72 0.1,-25.75 c -0.45,-0.1 -0.9,-0.1 -1.4,0 l 0,0.05 c -0.1,0.05 -0.2,0.1 -0.25,0.15 -0.05,0.05 -0.1,0.15 -0.15,0.2 -0.05,0.1 -0.1,0.2 -0.1,0.3 -0.05,0.05 -0.05,0.05 -0.05,0.1 0.05,0.2 0.2,0.3 0.35,0.3 0.45,0 0.85,0 1.3,0.05 0.05,0 0.15,0 0.25,0.05 0.05,0.05 0.05,0.05 0.1,0.1 0.05,0.05 0.05,0.05 0.1,0.1 0.05,0.05 0.1,0.15 0.2,0.2 0.05,0.05 0.15,0.1 0.2,0.1 0.05,0 0.15,0 0.2,0 0.1,-0.05 0.2,-0.05 0.3,-0.05 0.15,-0.05 0.25,-0.05 0.35,-0.1 0.05,-0.05 0.05,-0.05 0.1,-0.1 0.05,-0.05 0.05,-0.1 0.1,-0.15 C 1.55,-24.7 1.4,-24.9 1.25,-25.1 1.15,-25.2 1.05,-25.3 0.9,-25.4 0.85,-25.45 0.8,-25.45 0.8,-25.45 0.65,-25.5 0.5,-25.6 0.4,-25.65 l -0.025,-0.025 -0.025,0 z"
           inkscape:connector-curvature="0"
           style="fill:#9c1814" />
        <path
           id="path209"
           d="m 0.1,-25.75 q 0.13,0.03 0.25,0.075 l 0.025,0 0.025,0.025 c -0.45,-0.25 -0.9,-0.45 -1.3,-0.6 -3.45,0.15 -5.95,1.9 -7.4,5.15 -1.65,3.75 -3,7.3 -4.15,10.65 C -13.6,-7.1 -16.5,-2.8 -21.2,2.5 L -20.65,2 c -0.25,0.25 -0.5,0.55 -0.75,0.8 -0.9,0.95 -1.65,2 -2.25,3.15 -1.65,3.05 -3.3,6.15 -5,9.2 -0.15,0.3 -0.3,0.6 -0.45,0.95 -0.15,0 -0.25,0 -0.35,0.05 -0.05,0.05 -0.05,0.1 -0.1,0.15 -0.05,0.05 -0.05,0.05 -0.05,0.1 0,0.05 0,0.05 -0.05,0.1 0,0.05 0,0.1 -0.05,0.15 -0.05,0.05 -0.05,0.1 -0.1,0.15 -0.05,0.05 -0.05,0.05 -0.05,0.1 0,0.05 0,0.05 0,0.1 1.05,-0.55 2.2,-0.95 3.55,-1.2 4.6,-0.95 7.8,-3.55 9.65,-7.7 0.5,-1.1 1.05,-2.2 1.7,-3.25 0.75,-1.2 1.6,-2.3 2.5,-3.3 0,0.05 0,0.15 -0.05,0.25 0.05,-0.15 0.1,-0.25 0.15,-0.35 0.15,-0.35 0.3,-0.65 0.55,-0.8 -0.1,1.6 -0.5,3.25 -1.15,4.9 -1.3,3.2 -1.55,6.4 -0.7,9.55 0.1,0.45 0.4,0.75 0.95,0.85 2.25,0.35 4.15,1.15 5.8,2.45 4.65,-0.95 7.3,-3.7 7.85,-8.25 C 1.6,5.1 2.05,0 2.2,-5.15 c 0.15,-3.6 0.5,-7 1.05,-10.2 0.05,0.15 0.05,0.35 0.05,0.5 0.05,-0.15 0.15,-0.2 0.3,-0.2 0.55,3.7 1.05,7.45 1.4,11.3 C 5.35,0 5.85,3.7 6.5,7.35 6.7,8.4 6.9,9.4 7.15,10.4 7.2,10.75 7.3,11.15 7.35,11.5 7.4,11.3 7.45,11.1 7.5,10.9 8,9.2 8.3,7.45 8.45,5.65 8.85,-0.4 8.7,-6.5 8,-12.55 7.65,-15.5 6.9,-18.35 5.8,-21 c -0.6,-1.4 -1.55,-2.5 -2.9,-3.3 -0.75,-0.45 -1.45,-0.8 -2.1,-1.15 0,0 0.05,0 0.1,0.05 0.15,0.1 0.25,0.2 0.35,0.3 0.15,0.2 0.3,0.4 0.45,0.65 -0.05,0.05 -0.05,0.1 -0.1,0.15 -0.05,0.05 -0.05,0.05 -0.1,0.1 -0.1,0.05 -0.2,0.05 -0.35,0.1 -0.1,0 -0.2,0 -0.3,0.05 -0.05,0 -0.15,0 -0.2,0 -0.05,0 -0.15,-0.05 -0.2,-0.1 -0.1,-0.05 -0.15,-0.15 -0.2,-0.2 -0.05,-0.05 -0.05,-0.05 -0.1,-0.1 -0.05,-0.05 -0.05,-0.05 -0.1,-0.1 -0.1,-0.05 -0.2,-0.05 -0.25,-0.05 -0.45,-0.05 -0.85,-0.05 -1.3,-0.05 -0.15,0 -0.3,-0.1 -0.35,-0.3 0,-0.05 0,-0.05 0.05,-0.1 0,-0.1 0.05,-0.2 0.1,-0.3 0.05,-0.05 0.1,-0.15 0.15,-0.2 0.05,-0.05 0.15,-0.1 0.25,-0.15 l 0,-0.05 c 0.5,-0.1 0.95,-0.1 1.4,0 z m 1.1,4.8 c 0.05,-0.4 0.15,-0.75 0.35,-1 0.45,1.15 0.65,2.4 0.55,3.75 0,0.1 0,0.2 0,0.3 -0.05,0.7 -0.1,1.4 -0.1,2.05 0,0.55 0.05,1.05 0.1,1.55 0.1,0.75 0.05,1.5 -0.15,2.25 -0.1,-0.05 -0.2,-0.05 -0.35,-0.1 -0.15,-0.05 -0.25,-0.2 -0.3,-0.35 0,-0.1 0,-0.2 0,-0.25 -0.25,-0.1 -0.45,0.05 -0.7,0.4 -0.2,0.3 -0.4,0.6 -0.6,0.85 -0.05,0.05 -0.15,0.1 -0.2,0.15 -0.35,-1.25 -0.3,-2.6 0.15,-4.05 0.4,-1.35 0.7,-2.7 0.85,-4.15 0.05,-0.65 0.15,-1.3 0.25,-1.95 0.05,0.15 0.1,0.35 0.15,0.55 z m -4.25,-2.8 c -0.15,0.55 -0.45,1.1 -0.9,1.6 -0.5,0.55 -0.9,1.2 -1.2,1.9 -0.25,0.7 -0.4,1.4 -0.4,2.1 -0.15,0.25 -0.3,0.5 -0.35,0.75 -0.05,0.35 -0.15,0.75 -0.2,1.15 -0.1,0.45 -0.15,0.95 -0.1,1.4 0.05,0.25 -0.05,0.4 -0.3,0.5 -0.05,-0.05 -0.1,-0.15 -0.15,-0.25 -0.1,-0.25 -0.15,-0.45 -0.15,-0.7 0,-0.25 0,-0.55 0,-0.8 0,-0.2 0.05,-0.4 0.1,-0.6 -0.25,0.15 -0.5,0.45 -0.8,0.9 -0.35,0.45 -0.65,0.95 -0.95,1.45 -0.25,0.5 -0.6,0.7 -1.05,0.65 -0.05,-0.35 -0.05,-0.7 0.1,-1 0.15,-0.35 0.3,-0.75 0.45,-1.15 0.15,-0.45 0.35,-0.85 0.6,-1.3 0.05,-0.1 0.1,-0.2 0.15,-0.3 -0.05,-0.7 0.1,-1.45 0.4,-2.2 0.45,-1.05 1.05,-2 1.75,-2.85 0.55,-0.65 1.25,-1.15 2.05,-1.4 0.25,0 0.45,0 0.65,0.05 0.1,0 0.2,0.05 0.3,0.1 z M -8.5,19.6 c 0.9,0.15 1.8,0.2 2.75,0.25 -0.5,-0.15 -1,-0.3 -1.5,-0.45 -0.45,0.05 -0.85,0.15 -1.25,0.2 z"
           inkscape:connector-curvature="0"
           style="fill:#c21d1a" />
        <path
           id="path210"
           d="m 1.2,-20.95 c -0.05,-0.2 -0.1,-0.4 -0.15,-0.55 -0.1,0.65 -0.2,1.3 -0.25,1.95 -0.15,1.45 -0.45,2.8 -0.85,4.15 -0.45,1.45 -0.5,2.8 -0.15,4.05 0.05,-0.05 0.15,-0.1 0.2,-0.15 0.2,-0.25 0.4,-0.55 0.6,-0.85 0.25,-0.35 0.45,-0.5 0.7,-0.4 0,0.05 0,0.15 0,0.25 0.05,0.15 0.15,0.3 0.3,0.35 0.15,0.05 0.25,0.05 0.35,0.1 0.2,-0.75 0.25,-1.5 0.15,-2.25 -0.05,-0.5 -0.1,-1 -0.1,-1.55 0,-0.65 0.05,-1.35 0.1,-2.05 0,-0.1 0,-0.2 0,-0.3 0.1,-1.35 -0.1,-2.6 -0.55,-3.75 -0.2,0.25 -0.3,0.6 -0.35,1 z"
           inkscape:connector-curvature="0"
           style="fill:#cd2520" />
        <path
           id="path213"
           d="m -3.05,-23.75 c -0.1,-0.05 -0.2,-0.1 -0.3,-0.1 -0.2,-0.05 -0.4,-0.05 -0.65,-0.05 -0.8,0.25 -1.5,0.75 -2.05,1.4 -0.7,0.85 -1.3,1.8 -1.75,2.85 -0.3,0.75 -0.45,1.5 -0.4,2.2 -0.05,0.1 -0.1,0.2 -0.15,0.3 -0.25,0.45 -0.45,0.85 -0.6,1.3 -0.15,0.4 -0.3,0.8 -0.45,1.15 -0.15,0.3 -0.15,0.65 -0.1,1 0.45,0.05 0.8,-0.15 1.05,-0.65 0.3,-0.5 0.6,-1 0.95,-1.45 0.3,-0.45 0.55,-0.75 0.8,-0.9 -0.05,0.2 -0.1,0.4 -0.1,0.6 0,0.25 0,0.55 0,0.8 0,0.25 0.05,0.45 0.15,0.7 0.05,0.1 0.1,0.2 0.15,0.25 0.25,-0.1 0.35,-0.25 0.3,-0.5 -0.05,-0.45 0,-0.95 0.1,-1.4 0.05,-0.4 0.15,-0.8 0.2,-1.15 0.05,-0.25 0.2,-0.5 0.35,-0.75 0,-0.7 0.15,-1.4 0.4,-2.1 0.3,-0.7 0.7,-1.35 1.2,-1.9 0.45,-0.5 0.75,-1.05 0.9,-1.6 z"
           inkscape:connector-curvature="0"
           style="fill:#cd2520" />
        <path
           id="path216"
           d="m 0.4,-25.65 c 0.1,0.05 0.25,0.15 0.4,0.2 0.65,0.35 1.35,0.7 2.1,1.15 1.35,0.8 2.3,1.9 2.9,3.3 1.1,2.65 1.85,5.5 2.2,8.45 C 8.7,-6.5 8.85,-0.4 8.45,5.65 8.3,7.45 8,9.2 7.5,10.9 7.45,11.1 7.4,11.3 7.35,11.5 7.3,11.15 7.2,10.75 7.15,10.4 6.9,9.4 6.7,8.4 6.5,7.35 5.85,3.7 5.35,0 5,-3.75 4.65,-7.6 4.15,-11.35 3.6,-15.05 c -0.15,0 -0.25,0.05 -0.3,0.2 0,-0.15 0,-0.35 -0.05,-0.5 -0.55,3.2 -0.9,6.6 -1.05,10.2 C 2.05,0 1.6,5.1 0.95,10.15 c -0.55,4.55 -3.2,7.3 -7.85,8.25 -1.65,-1.3 -3.55,-2.1 -5.8,-2.45 -0.55,-0.1 -0.85,-0.4 -0.95,-0.85 -0.85,-3.15 -0.6,-6.35 0.7,-9.55 0.65,-1.65 1.05,-3.3 1.15,-4.9 -0.25,0.15 -0.4,0.45 -0.55,0.8 -0.05,0.1 -0.1,0.2 -0.15,0.35 0.05,-0.1 0.05,-0.2 0.05,-0.25 -0.9,1 -1.75,2.1 -2.5,3.3 -0.65,1.05 -1.2,2.15 -1.7,3.25 -1.85,4.15 -5.05,6.75 -9.65,7.7 -1.35,0.25 -2.5,0.65 -3.55,1.2 0,0.05 0,0.05 0.05,0.1 0,0.05 0,0.05 0.05,0.05 0.05,0 0.1,0 0.15,0 0.05,0 0.15,0 0.25,-0.05 0.05,-0.05 0.1,-0.05 0.15,-0.1 0.05,-0.05 0.1,-0.05 0.15,-0.1 0.05,-0.05 0.05,-0.1 0.1,-0.15 0.05,-0.05 0.05,-0.05 0.1,-0.1 1.6,-0.35 3.2,-0.5 4.75,-0.5 3.65,-0.1 7.3,0.6 10.9,2.1 0.6,0.25 1.2,0.45 1.8,0.65 0.95,0.3 1.9,0.55 2.9,0.7 0.4,-0.05 0.8,-0.15 1.25,-0.2 0.5,0.15 1,0.3 1.5,0.45 0.15,0 0.3,0 0.45,0 1.75,0 3.55,-0.25 5.4,-0.75 C 4.4,17.9 8,18.9 10.85,22.05 10.8,22.4 10.8,22.75 10.75,23.1 13.2,17.65 14.1,11.85 13.45,5.6 12.75,-1.3 11.7,-8.1 10.25,-14.75 9.7,-17.1 9,-19.45 8.1,-21.75 7.75,-22.6 7.15,-23.4 6.4,-24.05 5.55,-24.8 4.6,-25.3 3.55,-25.55 c 0.4,0.25 0.8,0.5 1.2,0.8 -0.25,-0.1 -0.45,-0.2 -0.7,-0.35 -0.3,-0.15 -0.6,-0.3 -0.9,-0.4 -0.15,-0.05 -0.25,-0.05 -0.4,-0.1 -0.7,-0.2 -1.4,-0.4 -2.05,-0.65 -0.55,-0.05 -1.1,-0.05 -1.6,0 0.4,0.15 0.85,0.35 1.3,0.6 z M 10.35,2.7 c 0.05,-0.05 0.15,-0.05 0.2,-0.05 0.3,2 0.4,4.05 0.3,6.2 -0.05,2.05 -0.25,4.1 -0.5,6.1 C 10.2,16.2 9.75,17.25 9,18 8.4,16.15 8.3,14.15 8.75,12.05 9.1,10.15 9.5,8.2 9.9,6.25 10.15,5.2 10.2,4.2 10.05,3.2 10.15,3.15 10.2,3.1 10.2,3.05 10.25,3 10.25,2.9 10.3,2.8 c 0,-0.05 0,-0.05 0.05,-0.1 z m -5.6,3.1 c 0.45,1.4 0.8,2.85 1.1,4.4 0.3,1.45 0.6,2.9 0.9,4.4 0.2,0.95 0.05,1.75 -0.45,2.45 C 4.5,16.35 3.9,14.9 4.55,12.7 5,11.15 5,9.5 4.6,7.8 4.45,7 4.5,6.35 4.75,5.8 z M -15.4,9.15 c 0.1,-0.35 0.25,-0.65 0.5,-0.85 0.05,0.75 -0.1,1.75 -0.5,2.95 -0.4,1.2 -0.7,2.15 -0.85,2.9 -0.15,0.75 -0.6,1.2 -1.35,1.35 -0.25,-0.05 -0.35,-0.15 -0.4,-0.3 -0.05,-0.1 -0.1,-0.2 -0.15,-0.25 -0.05,-0.1 -0.15,-0.2 -0.2,-0.25 0.55,-0.9 1.1,-1.8 1.65,-2.75 0.6,-0.9 1.05,-1.85 1.3,-2.8 z"
           inkscape:connector-curvature="0"
           style="fill:#b11b18" />
        <path
           id="path217"
           d="M 10.35,2.7 C 10.3,2.75 10.3,2.75 10.3,2.8 10.25,2.9 10.25,3 10.2,3.05 c 0,0.05 -0.05,0.1 -0.15,0.15 0.15,1 0.1,2 -0.15,3.05 C 9.5,8.2 9.1,10.15 8.75,12.05 8.3,14.15 8.4,16.15 9,18 c 0.75,-0.75 1.2,-1.8 1.35,-3.05 0.25,-2 0.45,-4.05 0.5,-6.1 0.1,-2.15 0,-4.2 -0.3,-6.2 -0.05,0 -0.15,0 -0.2,0.05 z"
           inkscape:connector-curvature="0"
           style="fill:#9c1814" />
        <path
           id="path220"
           d="M 4.75,5.8 C 4.5,6.35 4.45,7 4.6,7.8 5,9.5 5,11.15 4.55,12.7 3.9,14.9 4.5,16.35 6.3,17.05 6.8,16.35 6.95,15.55 6.75,14.6 6.45,13.1 6.15,11.65 5.85,10.2 5.55,8.65 5.2,7.2 4.75,5.8 z"
           inkscape:connector-curvature="0"
           style="fill:#9c1814" />
        <path
           id="path223"
           d="m -15.4,9.15 c -0.25,0.95 -0.7,1.9 -1.3,2.8 -0.55,0.95 -1.1,1.85 -1.65,2.75 0.05,0.05 0.15,0.15 0.2,0.25 0.05,0.05 0.1,0.15 0.15,0.25 0.05,0.15 0.15,0.25 0.4,0.3 0.75,-0.15 1.2,-0.6 1.35,-1.35 0.15,-0.75 0.45,-1.7 0.85,-2.9 0.4,-1.2 0.55,-2.2 0.5,-2.95 -0.25,0.2 -0.4,0.5 -0.5,0.85 z"
           inkscape:connector-curvature="0"
           style="fill:#9c1814" />
      </g>
      <animate
         attributeName="display"
         begin="0s"
         repeatCount="indefinite"
         dur="0.75s"
         keyTimes="0;1;1"
         values="none;inline;none"
         id="animate16" />
    </g>
    <g
       id="backCapeD006_1_1162">
      <g
         id="element9">
        <path
           id="path188"
           d="m 0.775,-25.475 q -0.203,-0.1 -0.4,-0.2 l -0.025,0 0,0.025 C 0.3,-25.7 0.2,-25.7 0.1,-25.75 c -0.45,-0.1 -0.9,-0.1 -1.4,0 l 0,0.05 c -0.1,0.05 -0.2,0.1 -0.25,0.15 -0.05,0.05 -0.1,0.15 -0.15,0.2 -0.05,0.1 -0.1,0.2 -0.1,0.3 -0.05,0.05 -0.05,0.05 -0.05,0.1 0.05,0.2 0.2,0.3 0.35,0.3 0.45,0 0.85,0 1.3,0.05 0.05,0 0.15,0 0.25,0.05 0.05,0.05 0.05,0.05 0.1,0.1 0.05,0.05 0.05,0.05 0.1,0.1 0.05,0.05 0.1,0.15 0.2,0.2 0.05,0.05 0.15,0.1 0.2,0.1 0.05,0 0.15,0 0.2,0 0.1,-0.05 0.2,-0.05 0.3,-0.05 0.15,-0.05 0.25,-0.05 0.35,-0.1 0.05,-0.05 0.05,-0.05 0.1,-0.1 0.05,-0.05 0.05,-0.1 0.1,-0.15 -0.15,-0.25 -0.3,-0.45 -0.45,-0.65 -0.1,-0.1 -0.2,-0.2 -0.35,-0.3 -0.05,-0.05 -0.1,-0.05 -0.1,-0.05"
           inkscape:connector-curvature="0"
           style="fill:#9c1814" />
        <path
           id="path189"
           d="m 0.375,-25.675 q 0.197,0.1 0.4,0.2 L 0.8,-25.45 c 0.65,0.35 1.35,0.7 2.1,1.15 1.35,0.8 2.3,1.9 2.9,3.3 1.1,2.65 1.85,5.5 2.2,8.45 C 8.7,-6.5 8.85,-0.4 8.45,5.65 8.3,7.45 8,9.2 7.5,10.9 7.45,11.1 7.4,11.3 7.35,11.5 7.3,11.15 7.2,10.75 7.15,10.4 6.9,9.4 6.7,8.4 6.5,7.35 5.85,3.7 5.35,0 5,-3.75 4.65,-7.6 4.15,-11.35 3.6,-15.05 c -0.15,0 -0.25,0.05 -0.3,0.2 0,-0.15 0,-0.35 -0.05,-0.5 -0.55,3.2 -0.9,6.6 -1.05,10.2 C 2.05,0 1.6,5.1 0.95,10.15 c -0.55,4.55 -3.2,7.3 -7.85,8.25 -1.65,-1.3 -3.55,-2.1 -5.8,-2.45 -0.55,-0.1 -0.85,-0.4 -0.95,-0.85 -0.85,-3.15 -0.6,-6.35 0.7,-9.55 0.65,-1.65 1.05,-3.3 1.15,-4.9 -0.25,0.15 -0.4,0.45 -0.55,0.8 -0.05,0.1 -0.1,0.2 -0.15,0.35 0.05,-0.1 0.05,-0.2 0.05,-0.25 -0.9,1 -1.75,2.1 -2.5,3.3 -0.65,1.05 -1.2,2.15 -1.7,3.25 -1.85,4.15 -5.05,6.75 -9.65,7.7 -1.35,0.25 -2.5,0.65 -3.55,1.2 0,0.05 0,0.05 0.05,0.1 0,0.05 0,0.05 0.05,0.05 0.05,0 0.1,0 0.15,0 0.05,0 0.15,0 0.25,-0.05 0.05,-0.05 0.1,-0.05 0.15,-0.1 0.05,-0.05 0.1,-0.05 0.15,-0.1 0.05,-0.05 0.05,-0.1 0.1,-0.15 0.05,-0.05 0.05,-0.05 0.1,-0.1 1.6,-0.35 3.2,-0.5 4.75,-0.5 3.65,-0.1 7.3,0.6 10.9,2.1 0.6,0.25 1.2,0.45 1.8,0.65 0.95,0.3 1.9,0.55 2.9,0.7 0.4,-0.05 0.8,-0.15 1.25,-0.2 0.5,0.15 1,0.3 1.5,0.45 0.15,0 0.3,0 0.45,0 1.75,0 3.55,-0.25 5.4,-0.75 C 4.4,17.9 8,18.9 10.85,22.05 10.8,22.4 10.8,22.75 10.75,23.1 13.2,17.65 14.1,11.85 13.45,5.6 12.75,-1.3 11.7,-8.1 10.25,-14.75 9.7,-17.1 9,-19.45 8.1,-21.75 7.75,-22.6 7.15,-23.4 6.4,-24.05 5.55,-24.8 4.6,-25.3 3.55,-25.55 c 0.4,0.25 0.8,0.5 1.2,0.8 -0.25,-0.1 -0.45,-0.2 -0.7,-0.35 -0.3,-0.15 -0.6,-0.3 -0.9,-0.4 -0.15,-0.05 -0.25,-0.05 -0.4,-0.1 -0.7,-0.2 -1.4,-0.4 -2.05,-0.65 -0.55,-0.05 -1.1,-0.05 -1.6,0 0.4,0.15 0.85,0.35 1.3,0.6 M 10.3,2.8 c 0,-0.05 0,-0.05 0.05,-0.1 0.05,-0.05 0.15,-0.05 0.2,-0.05 0.3,2 0.4,4.05 0.3,6.2 -0.05,2.05 -0.25,4.1 -0.5,6.1 C 10.2,16.2 9.75,17.25 9,18 8.4,16.15 8.3,14.15 8.75,12.05 9.1,10.15 9.5,8.2 9.9,6.25 10.15,5.2 10.2,4.2 10.05,3.2 10.15,3.15 10.2,3.1 10.2,3.05 10.25,3 10.25,2.9 10.3,2.8 z m -4.45,7.4 c 0.3,1.45 0.6,2.9 0.9,4.4 0.2,0.95 0.05,1.75 -0.45,2.45 C 4.5,16.35 3.9,14.9 4.55,12.7 5,11.15 5,9.5 4.6,7.8 4.45,7 4.5,6.35 4.75,5.8 5.2,7.2 5.55,8.65 5.85,10.2 z M -15.4,9.15 c 0.1,-0.35 0.25,-0.65 0.5,-0.85 0.05,0.75 -0.1,1.75 -0.5,2.95 -0.4,1.2 -0.7,2.15 -0.85,2.9 -0.15,0.75 -0.6,1.2 -1.35,1.35 -0.25,-0.05 -0.35,-0.15 -0.4,-0.3 -0.05,-0.1 -0.1,-0.2 -0.15,-0.25 -0.05,-0.1 -0.15,-0.2 -0.2,-0.25 0.55,-0.9 1.1,-1.8 1.65,-2.75 0.6,-0.9 1.05,-1.85 1.3,-2.8 z"
           inkscape:connector-curvature="0"
           style="fill:#b11b18" />
        <path
           id="path190"
           d="m 10.3,2.8 c -0.05,0.1 -0.05,0.2 -0.1,0.25 0,0.05 -0.05,0.1 -0.15,0.15 0.15,1 0.1,2 -0.15,3.05 C 9.5,8.2 9.1,10.15 8.75,12.05 8.3,14.15 8.4,16.15 9,18 c 0.75,-0.75 1.2,-1.8 1.35,-3.05 0.25,-2 0.45,-4.05 0.5,-6.1 0.1,-2.15 0,-4.2 -0.3,-6.2 -0.05,0 -0.15,0 -0.2,0.05 C 10.3,2.75 10.3,2.75 10.3,2.8 z"
           inkscape:connector-curvature="0"
           style="fill:#9c1814" />
        <path
           id="path193"
           d="M 5.85,10.2 C 5.55,8.65 5.2,7.2 4.75,5.8 4.5,6.35 4.45,7 4.6,7.8 5,9.5 5,11.15 4.55,12.7 3.9,14.9 4.5,16.35 6.3,17.05 6.8,16.35 6.95,15.55 6.75,14.6 6.45,13.1 6.15,11.65 5.85,10.2 z"
           inkscape:connector-curvature="0"
           style="fill:#9c1814" />
        <path
           id="path196"
           d="m -15.4,9.15 c -0.25,0.95 -0.7,1.9 -1.3,2.8 -0.55,0.95 -1.1,1.85 -1.65,2.75 0.05,0.05 0.15,0.15 0.2,0.25 0.05,0.05 0.1,0.15 0.15,0.25 0.05,0.15 0.15,0.25 0.4,0.3 0.75,-0.15 1.2,-0.6 1.35,-1.35 0.15,-0.75 0.45,-1.7 0.85,-2.9 0.4,-1.2 0.55,-2.2 0.5,-2.95 -0.25,0.2 -0.4,0.5 -0.5,0.85 z"
           inkscape:connector-curvature="0"
           style="fill:#9c1814" />
        <path
           id="path199"
           d="m 0.8,-25.45 c 0,0 0.05,0 0.1,0.05 0.15,0.1 0.25,0.2 0.35,0.3 0.15,0.2 0.3,0.4 0.45,0.65 -0.05,0.05 -0.05,0.1 -0.1,0.15 -0.05,0.05 -0.05,0.05 -0.1,0.1 -0.1,0.05 -0.2,0.05 -0.35,0.1 -0.1,0 -0.2,0 -0.3,0.05 -0.05,0 -0.15,0 -0.2,0 -0.05,0 -0.15,-0.05 -0.2,-0.1 -0.1,-0.05 -0.15,-0.15 -0.2,-0.2 -0.05,-0.05 -0.05,-0.05 -0.1,-0.1 -0.05,-0.05 -0.05,-0.05 -0.1,-0.1 -0.1,-0.05 -0.2,-0.05 -0.25,-0.05 -0.45,-0.05 -0.85,-0.05 -1.3,-0.05 -0.15,0 -0.3,-0.1 -0.35,-0.3 0,-0.05 0,-0.05 0.05,-0.1 0,-0.1 0.05,-0.2 0.1,-0.3 0.05,-0.05 0.1,-0.15 0.15,-0.2 0.05,-0.05 0.15,-0.1 0.25,-0.15 l 0,-0.05 c 0.5,-0.1 0.95,-0.1 1.4,0 0.1,0.05 0.2,0.05 0.25,0.1 l 0,-0.025 0.025,0 0.025,0.025 c -0.45,-0.25 -0.9,-0.45 -1.3,-0.6 -3.45,0.15 -5.95,1.9 -7.4,5.15 -1.65,3.75 -3,7.3 -4.15,10.65 C -13.6,-7.1 -16.5,-2.8 -21.2,2.5 L -20.65,2 c -0.25,0.25 -0.5,0.55 -0.75,0.8 -0.9,0.95 -1.65,2 -2.25,3.15 -1.65,3.05 -3.3,6.15 -5,9.2 -0.15,0.3 -0.3,0.6 -0.45,0.95 -0.15,0 -0.25,0 -0.35,0.05 -0.05,0.05 -0.05,0.1 -0.1,0.15 -0.05,0.05 -0.05,0.05 -0.05,0.1 0,0.05 0,0.05 -0.05,0.1 0,0.05 0,0.1 -0.05,0.15 -0.05,0.05 -0.05,0.1 -0.1,0.15 -0.05,0.05 -0.05,0.05 -0.05,0.1 0,0.05 0,0.05 0,0.1 1.05,-0.55 2.2,-0.95 3.55,-1.2 4.6,-0.95 7.8,-3.55 9.65,-7.7 0.5,-1.1 1.05,-2.2 1.7,-3.25 0.75,-1.2 1.6,-2.3 2.5,-3.3 0,0.05 0,0.15 -0.05,0.25 0.05,-0.15 0.1,-0.25 0.15,-0.35 0.15,-0.35 0.3,-0.65 0.55,-0.8 -0.1,1.6 -0.5,3.25 -1.15,4.9 -1.3,3.2 -1.55,6.4 -0.7,9.55 0.1,0.45 0.4,0.75 0.95,0.85 2.25,0.35 4.15,1.15 5.8,2.45 4.65,-0.95 7.3,-3.7 7.85,-8.25 C 1.6,5.1 2.05,0 2.2,-5.15 c 0.15,-3.6 0.5,-7 1.05,-10.2 0.05,0.15 0.05,0.35 0.05,0.5 0.05,-0.15 0.15,-0.2 0.3,-0.2 0.55,3.7 1.05,7.45 1.4,11.3 C 5.35,0 5.85,3.7 6.5,7.35 6.7,8.4 6.9,9.4 7.15,10.4 7.2,10.75 7.3,11.15 7.35,11.5 7.4,11.3 7.45,11.1 7.5,10.9 8,9.2 8.3,7.45 8.45,5.65 8.85,-0.4 8.7,-6.5 8,-12.55 7.65,-15.5 6.9,-18.35 5.8,-21 5.2,-22.4 4.25,-23.5 2.9,-24.3 2.15,-24.75 1.45,-25.1 0.8,-25.45 z m 0.25,3.95 c 0.05,0.15 0.1,0.35 0.15,0.55 0.05,-0.4 0.15,-0.75 0.35,-1 0.45,1.15 0.65,2.4 0.55,3.75 0,0.1 0,0.2 0,0.3 -0.05,0.7 -0.1,1.4 -0.1,2.05 0,0.55 0.05,1.05 0.1,1.55 0.1,0.75 0.05,1.5 -0.15,2.25 -0.1,-0.05 -0.2,-0.05 -0.35,-0.1 -0.15,-0.05 -0.25,-0.2 -0.3,-0.35 0,-0.1 0,-0.2 0,-0.25 -0.25,-0.1 -0.45,0.05 -0.7,0.4 -0.2,0.3 -0.4,0.6 -0.6,0.85 -0.05,0.05 -0.15,0.1 -0.2,0.15 -0.35,-1.25 -0.3,-2.6 0.15,-4.05 0.4,-1.35 0.7,-2.7 0.85,-4.15 0.05,-0.65 0.15,-1.3 0.25,-1.95 z m -4.1,-2.25 c -0.15,0.55 -0.45,1.1 -0.9,1.6 -0.5,0.55 -0.9,1.2 -1.2,1.9 -0.25,0.7 -0.4,1.4 -0.4,2.1 -0.15,0.25 -0.3,0.5 -0.35,0.75 -0.05,0.35 -0.15,0.75 -0.2,1.15 -0.1,0.45 -0.15,0.95 -0.1,1.4 0.05,0.25 -0.05,0.4 -0.3,0.5 -0.05,-0.05 -0.1,-0.15 -0.15,-0.25 -0.1,-0.25 -0.15,-0.45 -0.15,-0.7 0,-0.25 0,-0.55 0,-0.8 0,-0.2 0.05,-0.4 0.1,-0.6 -0.25,0.15 -0.5,0.45 -0.8,0.9 -0.35,0.45 -0.65,0.95 -0.95,1.45 -0.25,0.5 -0.6,0.7 -1.05,0.65 -0.05,-0.35 -0.05,-0.7 0.1,-1 0.15,-0.35 0.3,-0.75 0.45,-1.15 0.15,-0.45 0.35,-0.85 0.6,-1.3 0.05,-0.1 0.1,-0.2 0.15,-0.3 -0.05,-0.7 0.1,-1.45 0.4,-2.2 0.45,-1.05 1.05,-2 1.75,-2.85 0.55,-0.65 1.25,-1.15 2.05,-1.4 0.25,0 0.45,0 0.65,0.05 0.1,0 0.2,0.05 0.3,0.1 z m -4.2,43.15 c -0.45,0.05 -0.85,0.15 -1.25,0.2 0.9,0.15 1.8,0.2 2.75,0.25 -0.5,-0.15 -1,-0.3 -1.5,-0.45 z"
           inkscape:connector-curvature="0"
           style="fill:#c21d1a" />
        <path
           id="path200"
           d="m 1.05,-21.5 c -0.1,0.65 -0.2,1.3 -0.25,1.95 -0.15,1.45 -0.45,2.8 -0.85,4.15 -0.45,1.45 -0.5,2.8 -0.15,4.05 0.05,-0.05 0.15,-0.1 0.2,-0.15 0.2,-0.25 0.4,-0.55 0.6,-0.85 0.25,-0.35 0.45,-0.5 0.7,-0.4 0,0.05 0,0.15 0,0.25 0.05,0.15 0.15,0.3 0.3,0.35 0.15,0.05 0.25,0.05 0.35,0.1 0.2,-0.75 0.25,-1.5 0.15,-2.25 -0.05,-0.5 -0.1,-1 -0.1,-1.55 0,-0.65 0.05,-1.35 0.1,-2.05 0,-0.1 0,-0.2 0,-0.3 0.1,-1.35 -0.1,-2.6 -0.55,-3.75 -0.2,0.25 -0.3,0.6 -0.35,1 -0.05,-0.2 -0.1,-0.4 -0.15,-0.55 z"
           inkscape:connector-curvature="0"
           style="fill:#cd2520" />
        <path
           id="path203"
           d="m -3.05,-23.75 c -0.1,-0.05 -0.2,-0.1 -0.3,-0.1 -0.2,-0.05 -0.4,-0.05 -0.65,-0.05 -0.8,0.25 -1.5,0.75 -2.05,1.4 -0.7,0.85 -1.3,1.8 -1.75,2.85 -0.3,0.75 -0.45,1.5 -0.4,2.2 -0.05,0.1 -0.1,0.2 -0.15,0.3 -0.25,0.45 -0.45,0.85 -0.6,1.3 -0.15,0.4 -0.3,0.8 -0.45,1.15 -0.15,0.3 -0.15,0.65 -0.1,1 0.45,0.05 0.8,-0.15 1.05,-0.65 0.3,-0.5 0.6,-1 0.95,-1.45 0.3,-0.45 0.55,-0.75 0.8,-0.9 -0.05,0.2 -0.1,0.4 -0.1,0.6 0,0.25 0,0.55 0,0.8 0,0.25 0.05,0.45 0.15,0.7 0.05,0.1 0.1,0.2 0.15,0.25 0.25,-0.1 0.35,-0.25 0.3,-0.5 -0.05,-0.45 0,-0.95 0.1,-1.4 0.05,-0.4 0.15,-0.8 0.2,-1.15 0.05,-0.25 0.2,-0.5 0.35,-0.75 0,-0.7 0.15,-1.4 0.4,-2.1 0.3,-0.7 0.7,-1.35 1.2,-1.9 0.45,-0.5 0.75,-1.05 0.9,-1.6 z"
           inkscape:connector-curvature="0"
           style="fill:#cd2520" />
      </g>
      <animate
         attributeName="display"
         begin="0s"
         repeatCount="indefinite"
         dur="0.75s"
         keyTimes="0;0.944;1"
         values="none;inline;none"
         id="animate28" />
    </g>
    <g
       id="backCapeD006_1_1160">
      <g
         id="element8">
        <path
           id="path170"
           d="M 1.55,-25.05 Q 1.5,-25.1 1.5,-25.15 c -0.1,-0.05 -0.2,-0.05 -0.3,-0.1 -0.5,-0.15 -0.95,-0.35 -1.3,-0.5 -0.1,0 -0.2,0 -0.3,0 -0.3,0 -0.6,0 -0.85,0 -0.25,0.05 -0.45,0.05 -0.65,0.05 -0.15,0.05 -0.2,0.1 -0.1,0.2 0.35,0.5 0.9,0.65 1.75,0.45 0.25,-0.05 0.5,0.05 0.65,0.25 0.05,0.1 0.15,0.2 0.25,0.3 0.05,0.05 0.15,0.05 0.2,0.05 0.1,0.05 0.2,0.05 0.3,0.05 0.05,0.05 0.15,0.05 0.2,0.1 0.05,0.05 0.05,0.05 0.1,0.1 0.05,0.05 0.15,0.05 0.2,0.05 0.05,0 0.1,0 0.15,-0.05 0.05,0 0.05,0 0.05,-0.05 0.05,0 0.05,0 0.05,-0.05 0.05,-0.05 0.05,-0.1 0.05,-0.15 0,-0.15 -0.05,-0.3 -0.2,-0.4 -0.1,-0.05 -0.15,-0.15 -0.2,-0.2 z"
           inkscape:connector-curvature="0"
           style="fill:#9c1814" />
        <path
           id="path171"
           d="m 1.5,-25.15 q 0,0.05 0.05,0.1 c 0.05,0.05 0.1,0.15 0.2,0.2 0.15,0.1 0.2,0.25 0.2,0.4 0,0.05 0,0.1 -0.05,0.15 0,0.05 0,0.05 -0.05,0.05 0,0.05 0,0.05 -0.05,0.05 -0.05,0.05 -0.1,0.05 -0.15,0.05 -0.05,0 -0.15,0 -0.2,-0.05 -0.05,-0.05 -0.05,-0.05 -0.1,-0.1 -0.05,-0.05 -0.15,-0.05 -0.2,-0.1 -0.1,0 -0.2,0 -0.3,-0.05 -0.05,0 -0.15,0 -0.2,-0.05 -0.1,-0.1 -0.2,-0.2 -0.25,-0.3 -0.15,-0.2 -0.4,-0.3 -0.65,-0.25 -0.85,0.2 -1.4,0.05 -1.75,-0.45 -0.1,-0.1 -0.05,-0.15 0.1,-0.2 0.2,0 0.4,0 0.65,-0.05 0.25,0 0.55,0 0.85,0 0.1,0 0.2,0 0.3,0 -0.55,-0.25 -0.95,-0.5 -1.25,-0.75 0.25,-0.05 0.45,-0.05 0.7,-0.05 -0.25,0 -0.55,0 -0.85,0.05 -0.55,0.2 -1.15,0.4 -1.75,0.65 -2.25,0.85 -3.9,2.3 -5,4.4 -0.8,1.55 -1.35,3 -1.7,4.45 -0.35,1.4 -0.75,2.9 -1.15,4.5 -0.45,1.55 -1.3,3.6 -2.65,6.05 -1.35,2.4 -2.25,4.1 -2.8,5.1 -0.55,0.95 -1.8,2.7 -3.75,5.15 -2,2.45 -3.2,4.9 -3.6,7.45 -0.4,2.5 -0.6,3.95 -0.55,4.4 0,0.45 -0.05,1.2 -0.15,2.35 -0.1,1.1 0,1.5 0.3,1.15 0.25,-0.3 0.95,-0.8 2.05,-1.55 -0.15,-0.05 -0.25,-0.05 -0.4,-0.05 1.05,-0.75 2.35,-1.45 3.9,-2.05 1.75,-0.7 3.2,-1.8 4.35,-3.35 1.7,-2.35 3.05,-4.85 4.05,-7.6 0.55,-1.45 1.1,-2.75 1.7,-3.95 0,0.05 0,0.05 0,0.1 0.15,-0.45 0.4,-0.85 0.65,-1.25 0.05,0.05 0.05,0.1 0.1,0.15 0.05,0.05 0.05,0.05 0.05,0.1 0.05,0.05 0.05,0.1 0.05,0.15 0.05,0.05 0.05,0.05 0.1,0.1 -1.15,3.8 -1.45,7.75 -0.9,11.8 0.25,2.05 1.1,3.75 2.45,5.15 0.95,0.95 2.1,1.15 3.45,0.6 1.15,-0.45 2.25,-0.5 3.3,-0.15 0.45,0.15 0.9,0.2 1.35,0.05 C 4.1,15.75 5.4,13.2 5.8,9.75 6.1,7.2 6.1,4.6 5.75,2 5.1,-2.55 4.85,-7.1 5,-11.65 c 0.05,-0.9 0.15,-1.7 0.4,-2.35 0,0.65 0,1.35 0.05,2 0,-0.45 0,-0.9 0,-1.35 0.6,3.5 1.4,7 2.4,10.5 1,3.6 2,7.15 3.05,10.6 C 10.95,8 11.05,8.25 11.15,8.5 10.85,5.2 10.55,1.8 10.3,-1.65 9.85,-7.8 8.7,-13.75 6.75,-19.45 5.8,-22.3 4.05,-24.2 1.5,-25.15 z m 0.75,3.4 c 0.65,1 1.05,2.15 1.2,3.45 0.15,1.3 0.35,2.55 0.7,3.8 0.15,0.7 0.2,1.4 0.1,2.1 C 4,-12.25 3.8,-12.3 3.55,-12.5 3.3,-12.7 3,-12.75 2.65,-12.7 2.5,-12.45 2.4,-12.25 2.3,-12 c -0.05,0.25 -0.2,0.45 -0.35,0.65 -0.15,0.2 -0.3,0.25 -0.5,0.1 0,-1.3 0.1,-2.6 0.3,-3.95 0.2,-1.35 0.2,-2.75 0.05,-4.15 -0.1,-1 0.05,-1.8 0.45,-2.4 z M -3.5,-24.2 c 0.05,1.25 -0.3,2.7 -1.05,4.35 -0.3,0.7 -0.55,1.4 -0.7,2.15 -0.35,1.45 -0.45,3 -0.3,4.65 0,0.1 0,0.2 0,0.25 -0.4,0 -0.7,-0.25 -0.95,-0.7 -0.15,-0.3 -0.25,-0.65 -0.3,-1.05 0,-0.25 -0.05,-0.45 -0.2,-0.65 -0.35,0.3 -0.6,0.65 -0.8,1 -0.25,0.4 -0.4,0.8 -0.55,1.2 -0.05,0.25 -0.2,0.5 -0.4,0.7 -0.4,-0.45 -0.4,-1.15 -0.05,-2.1 0.25,-0.7 0.5,-1.4 0.75,-2.15 0.15,-0.45 0.25,-0.95 0.3,-1.4 0.45,-0.85 0.8,-1.8 1.15,-2.75 0.45,-1.25 1.15,-2.25 2.2,-3.1 0.25,-0.2 0.55,-0.35 0.9,-0.4 z"
           inkscape:connector-curvature="0"
           style="fill:#c21d1a" />
        <path
           id="path172"
           d="m 2.25,-21.75 c -0.4,0.6 -0.55,1.4 -0.45,2.4 0.15,1.4 0.15,2.8 -0.05,4.15 -0.2,1.35 -0.3,2.65 -0.3,3.95 0.2,0.15 0.35,0.1 0.5,-0.1 0.15,-0.2 0.3,-0.4 0.35,-0.65 0.1,-0.25 0.2,-0.45 0.35,-0.7 0.35,-0.05 0.65,0 0.9,0.2 0.25,0.2 0.45,0.25 0.7,0.1 0.1,-0.7 0.05,-1.4 -0.1,-2.1 C 3.8,-15.75 3.6,-17 3.45,-18.3 3.3,-19.6 2.9,-20.75 2.25,-21.75 z"
           inkscape:connector-curvature="0"
           style="fill:#cd2520" />
        <path
           id="path175"
           d="m -3.5,-24.2 c -0.35,0.05 -0.65,0.2 -0.9,0.4 -1.05,0.85 -1.75,1.85 -2.2,3.1 -0.35,0.95 -0.7,1.9 -1.15,2.75 -0.05,0.45 -0.15,0.95 -0.3,1.4 -0.25,0.75 -0.5,1.45 -0.75,2.15 -0.35,0.95 -0.35,1.65 0.05,2.1 0.2,-0.2 0.35,-0.45 0.4,-0.7 0.15,-0.4 0.3,-0.8 0.55,-1.2 0.2,-0.35 0.45,-0.7 0.8,-1 0.15,0.2 0.2,0.4 0.2,0.65 0.05,0.4 0.15,0.75 0.3,1.05 0.25,0.45 0.55,0.7 0.95,0.7 0,-0.05 0,-0.15 0,-0.25 -0.15,-1.65 -0.05,-3.2 0.3,-4.65 0.15,-0.75 0.4,-1.45 0.7,-2.15 0.75,-1.65 1.1,-3.1 1.05,-4.35 z"
           inkscape:connector-curvature="0"
           style="fill:#cd2520" />
        <path
           id="path178"
           d="m 1.2,-25.25 c 0.1,0.05 0.2,0.05 0.3,0.1 2.55,0.95 4.3,2.85 5.25,5.7 1.95,5.7 3.1,11.65 3.55,17.8 C 10.55,1.8 10.85,5.2 11.15,8.5 11.05,8.25 10.95,8 10.9,7.75 9.85,4.3 8.85,0.75 7.85,-2.85 c -1,-3.5 -1.8,-7 -2.4,-10.5 0,0.45 0,0.9 0,1.35 C 5.4,-12.65 5.4,-13.35 5.4,-14 5.15,-13.35 5.05,-12.55 5,-11.65 4.85,-7.1 5.1,-2.55 5.75,2 6.1,4.6 6.1,7.2 5.8,9.75 5.4,13.2 4.1,15.75 1.95,17.4 1.5,17.55 1.05,17.5 0.6,17.35 -0.45,17 -1.55,17.05 -2.7,17.5 c -1.35,0.55 -2.5,0.35 -3.45,-0.6 -1.35,-1.4 -2.2,-3.1 -2.45,-5.15 -0.55,-4.05 -0.25,-8 0.9,-11.8 -0.05,-0.05 -0.05,-0.05 -0.1,-0.1 0,-0.05 0,-0.1 -0.05,-0.15 0,-0.05 0,-0.05 -0.05,-0.1 -0.05,-0.05 -0.05,-0.1 -0.1,-0.15 -0.25,0.4 -0.5,0.8 -0.65,1.25 0,-0.05 0,-0.05 0,-0.1 -0.6,1.2 -1.15,2.5 -1.7,3.95 -1,2.75 -2.35,5.25 -4.05,7.6 -1.15,1.55 -2.6,2.65 -4.35,3.35 -1.55,0.6 -2.85,1.3 -3.9,2.05 0.15,0 0.25,0 0.4,0.05 0.15,-0.1 0.3,-0.2 0.45,-0.3 1.35,-0.95 2.9,-1.45 4.65,-1.55 l -0.025,0 0.05,0 0.025,0 c 0,0 0,0 0.05,0 0.1,0 0.2,0 0.3,0 1.65,0.05 3.9,0.8 6.65,2.35 2,1.1 4,1.65 6.05,1.65 0.25,0 0.55,0 0.8,0 l -0.025,-0.025 -0.05,0.025 0.025,0 c 0.35,-0.05 0.75,-0.05 1.1,-0.1 l 0,-0.025 1.05,-0.225 c 0.05,0 0.1,0 0.15,0 l 0,-0.025 0.65,-0.175 c 0.25,-0.05 0.45,-0.1 0.65,-0.15 0.4,-0.1 0.8,-0.2 1.2,-0.25 0.4,-0.05 0.8,-0.15 1.15,-0.2 1.55,-0.25 2.95,-0.3 4.2,-0.25 2.15,0.15 3.7,0.5 4.65,1.1 0.95,0.6 1.5,1 1.65,1.15 0.5,0.55 1.1,0.85 1.8,0.9 0.3,0.05 0.6,0 0.9,-0.15 0.05,-0.05 0.1,-0.05 0.2,-0.1 l 0.05,0.1 C 16.05,21.3 16.05,21.3 16.05,21.25 l 0.05,0 -0.05,0 0.05,0 c 0,0 -0.05,0 -0.05,0 C 14.9,18.25 14.3,15.1 14.3,11.75 14.3,5.9 13.55,0.15 12,-5.5 11.65,-6.95 11.35,-8.45 11.2,-9.9 10.75,-14.15 9.75,-18.05 8.25,-21.7 8.25,-21.95 8.15,-22.25 8,-22.5 7.65,-23.1 7.2,-23.65 6.7,-24.15 6.35,-24.5 5.95,-24.85 5.5,-25.1 5.25,-25.25 5.05,-25.4 4.9,-25.6 4.4,-25.7 3.9,-25.85 3.45,-26 2.7,-26.25 1.9,-26.45 1.05,-26.5 0.7,-26.55 0.4,-26.55 0.05,-26.55 l -0.7,0 c -0.25,0 -0.45,0 -0.7,0.05 0.3,0.25 0.7,0.5 1.25,0.75 0.35,0.15 0.8,0.35 1.3,0.5 z m -11,36.4 c -0.3,0.9 -0.5,1.8 -0.6,2.7 -0.05,0.5 -0.1,1 -0.25,1.5 -1.35,-0.15 -1.7,-0.9 -1.15,-2.25 0.45,-1.05 0.85,-2.15 1.1,-3.25 0.15,-0.45 0.35,-0.8 0.7,-1.05 0.45,0.55 0.5,1.3 0.2,2.35 z M 11.55,6.7 C 11.4,5.75 11.6,4.95 12.1,4.4 c 0.25,1.65 0.45,3.25 0.7,4.85 0.25,1.6 0.3,3.25 0.2,4.9 -0.05,0.85 -0.15,1.75 -0.3,2.7 -1.25,-1 -1.65,-2.6 -1.25,-4.85 0.3,-1.75 0.35,-3.55 0.1,-5.3 z M 9.25,9.95 C 9.3,11.1 9.4,12.35 9.5,13.6 9.55,14.35 9.55,15.05 9.4,15.75 9.15,15.9 8.9,16 8.6,15.95 8.3,15.9 8.05,15.75 7.85,15.55 7.7,14.35 7.7,13.15 7.85,11.95 8.1,10.7 8.2,9.4 8.2,8.1 8.25,7.35 8.45,6.75 8.8,6.35 9.05,7.4 9.2,8.6 9.25,9.95 z"
           inkscape:connector-curvature="0"
           style="fill:#b11b18" />
        <path
           id="path179"
           d="m -9.8,11.15 c 0.3,-1.05 0.25,-1.8 -0.2,-2.35 -0.35,0.25 -0.55,0.6 -0.7,1.05 -0.25,1.1 -0.65,2.2 -1.1,3.25 -0.55,1.35 -0.2,2.1 1.15,2.25 0.15,-0.5 0.2,-1 0.25,-1.5 0.1,-0.9 0.3,-1.8 0.6,-2.7 z"
           inkscape:connector-curvature="0"
           style="fill:#9c1814" />
        <path
           id="path182"
           d="m 11.55,6.7 c 0.25,1.75 0.2,3.55 -0.1,5.3 -0.4,2.25 0,3.85 1.25,4.85 0.15,-0.95 0.25,-1.85 0.3,-2.7 0.1,-1.65 0.05,-3.3 -0.2,-4.9 -0.25,-1.6 -0.45,-3.2 -0.7,-4.85 -0.5,0.55 -0.7,1.35 -0.55,2.3 z"
           inkscape:connector-curvature="0"
           style="fill:#9c1814" />
        <path
           id="path185"
           d="M 9.25,9.95 C 9.2,8.6 9.05,7.4 8.8,6.35 c -0.35,0.4 -0.55,1 -0.6,1.75 0,1.3 -0.1,2.6 -0.35,3.85 -0.15,1.2 -0.15,2.4 0,3.6 0.2,0.2 0.45,0.35 0.75,0.4 C 8.9,16 9.15,15.9 9.4,15.75 9.55,15.05 9.55,14.35 9.5,13.6 9.4,12.35 9.3,11.1 9.25,9.95 z"
           inkscape:connector-curvature="0"
           style="fill:#9c1814" />
      </g>
      <animate
         attributeName="display"
         begin="0s"
         repeatCount="indefinite"
         dur="0.75s"
         keyTimes="0;0.833;0.944;1"
         values="none;inline;none;none"
         id="animate40" />
    </g>
    <g
       id="backCapeD006_1_1158">
      <g
         id="element7">
        <path
           id="path148"
           d="m 0.775,-26.25 -0.225,0 c -0.35,0 -0.75,-0.1 -1.15,-0.3 l -0.025,0 0.025,0 c -0.05,0.05 -0.1,0.1 -0.15,0.1 l -0.025,-0.025 0.025,0 0,0.025 c 4.55,1.55 7.4,4.6 8.55,9.2 1.25,5.15 2.35,10.25 3.3,15.35 -0.75,-2.65 -2,-5.9 -3.75,-9.8 0.15,0.9 0.35,1.9 0.6,3.05 C 9,-3.6 10.3,1.4 11.85,6.3 c 0.15,0.5 0.3,1 0.35,1.3 0.05,0.6 0.1,1.2 0.15,1.75 C 12.4,9.3 12.45,9.2 12.5,9.15 12.85,12.9 11.55,16 8.75,18.55 8,18.35 7.3,18.15 6.55,18 5,17.6 3.8,17.95 3,19.1 2.35,19.35 1.8,19.35 1.35,19.1 0.8,18.85 0.35,18.7 -0.1,18.6 -0.45,18 -0.8,17.45 -1.15,16.85 -2.6,14.2 -3.35,11.3 -3.3,8.15 -3.25,5.1 -3.35,2.1 -3.5,-0.85 -3.55,-0.8 -3.6,-0.8 -3.65,-0.75 -3.85,-0.1 -4,0.55 -4.15,1.2 -4.1,0.6 -4.1,0 -4.15,-0.6 -4.3,-0.15 -4.4,0.35 -4.5,0.95 c -0.45,2.55 -1,5 -1.7,7.35 -1.45,5 -4.95,7.4 -10.5,7.2 0.35,0.45 0.75,0.75 1.25,0.9 0.45,-0.3 0.9,-0.5 1.35,-0.6 0.65,-0.3 1.5,-0.4 2.5,-0.25 0.3,0 0.45,0.05 0.6,0.1 0.95,-0.05 1.65,0.05 2.1,0.35 0.8,0.25 1.75,0.55 2.8,0.9 1.1,0.3 2.15,1 3.15,2.05 0.95,0.9 2.2,1.5 3.7,1.85 0.1,0 0.2,0 0.1,0 l -0.025,0 0.025,0.025 0,0.025 c 0.25,0 0.5,0 0.75,0.05 1.8,0 3.4,-0.35 5.15,-1 l 2.05,-0.625 0,0.025 c 0.2,-0.1 0.35,-0.2 0.55,-0.2 0.05,0 -0.05,0.05 -0.2,0.1 0,0 0,0 -0.1,0 l 0.025,0 0.025,0 C 9.15,19.15 9.25,19.15 9.35,19.1 L 9.7,19 c 0.2,0 0.4,-0.05 0.55,-0.05 0.3,-0.05 0.55,-0.1 0.8,-0.15 0.45,-0.05 0.9,0 1.35,0.05 0.05,0 0.1,0 0.15,0 -0.05,0 -0.05,0 -0.05,0 1.65,-0.1 3.3,0 4.95,0.3 1.65,0.25 3.3,0.55 4.95,0.9 -1.6,-1.25 -2.9,-3 -3.95,-5.15 C 17.4,12.75 16.5,10.4 15.75,7.9 15,5.4 14.35,2.9 13.9,0.35 13.35,-2.2 12.6,-6.05 11.55,-11.1 10.5,-16.15 9.45,-19.65 8.4,-21.55 c -1.05,-1.9 -2.25,-3.15 -3.6,-3.8 -1.35,-0.65 -2.3,-1 -2.85,-0.95 -0.3,0.05 -0.6,0.05 -0.95,0.05 -0.05,0 -0.15,0 -0.2,0 m -4.55,37 c 0,0.95 -0.1,1.85 -0.3,2.8 -0.15,0.55 -0.25,1.1 -0.4,1.65 -0.25,0.25 -0.6,0.3 -1.05,0.15 -0.1,-0.05 -0.2,-0.05 -0.3,-0.1 -0.35,-1.1 -0.2,-2.2 0.35,-3.25 0.45,-0.85 0.7,-1.75 0.75,-2.75 0.05,-0.6 0.25,-1 0.6,-1.25 0.25,0.85 0.35,1.8 0.35,2.75 z M 14.15,8.2 C 14.2,8.15 14.2,8.1 14.25,8.1 14.3,8.05 14.35,8 14.4,8 l 0.05,-0.05 c 0.15,1.15 0.45,2.4 0.9,3.85 0.4,1.45 0.75,2.75 1.05,3.95 0.25,1.15 -0.05,1.7 -0.9,1.55 -0.85,-0.15 -1.45,-0.25 -1.8,-0.25 -0.15,-1.1 -0.1,-2.2 0.15,-3.35 0.25,-1.1 0.3,-2.2 0.2,-3.35 C 14,9.65 14,8.95 14.05,8.3 14.1,8.25 14.1,8.25 14.15,8.2 z M 1.55,20.25 c -0.1,0 -0.25,0 -0.4,0.05 0.05,0.1 0.15,0.2 0.25,0.3 -0.05,-0.1 -0.1,-0.2 -0.35,-0.45 0.15,0.05 0.3,0.05 0.5,0.1 z"
           inkscape:connector-curvature="0"
           style="fill:#b11b18" />
        <path
           id="path149"
           d="m -3.75,10.75 c 0,-0.95 -0.1,-1.9 -0.35,-2.75 -0.35,0.25 -0.55,0.65 -0.6,1.25 -0.05,1 -0.3,1.9 -0.75,2.75 -0.55,1.05 -0.7,2.15 -0.35,3.25 0.1,0.05 0.2,0.05 0.3,0.1 0.45,0.15 0.8,0.1 1.05,-0.15 0.15,-0.55 0.25,-1.1 0.4,-1.65 0.2,-0.95 0.3,-1.85 0.3,-2.8 z"
           inkscape:connector-curvature="0"
           style="fill:#9c1814" />
        <path
           id="path152"
           d="m 14.15,8.2 c -0.05,0.05 -0.05,0.05 -0.1,0.1 -0.05,0.65 -0.05,1.35 0,2.05 0.1,1.15 0.05,2.25 -0.2,3.35 -0.25,1.15 -0.3,2.25 -0.15,3.35 0.35,0 0.95,0.1 1.8,0.25 0.85,0.15 1.15,-0.4 0.9,-1.55 -0.3,-1.2 -0.65,-2.5 -1.05,-3.95 C 14.9,10.35 14.6,9.1 14.45,7.95 L 14.4,8 c -0.05,0 -0.1,0.05 -0.15,0.1 -0.05,0 -0.05,0.05 -0.1,0.1 z"
           inkscape:connector-curvature="0"
           style="fill:#9c1814" />
        <path
           id="path155"
           d="M 1.55,20.25 C 1.35,20.2 1.2,20.2 1.05,20.15 1.3,20.4 1.35,20.5 1.4,20.6 1.3,20.5 1.2,20.4 1.15,20.3 1.3,20.25 1.45,20.25 1.55,20.25 z m 6.4,-28.9 C 7.7,-9.8 7.5,-10.8 7.35,-11.7 c 1.75,3.9 3,7.15 3.75,9.8 -0.95,-5.1 -2.05,-10.2 -3.3,-15.35 -1.15,-4.6 -4,-7.65 -8.55,-9.2 -0.2,0.05 -0.35,0.1 -0.5,0.15 q -1.5,0 -3.2,1 c -0.55,0.45 -1.3,0.95 -2.25,1.55 -0.8,0.45 -1.4,1.2 -1.8,2.15 -0.45,0.95 -0.85,2.85 -1.25,5.8 -0.15,1.1 -0.6,2.85 -1.25,5.25 l -1.1,2.475 -0.175,0.575 -2.975,5.2 -3.55,4.9 c -0.95,1.25 -1.65,2.4 -2.05,3.4 -0.45,1 -0.75,1.95 -0.95,2.85 -0.2,0.9 -0.3,1.8 -0.25,2.75 0.05,0.9 0.05,1.55 0.1,1.9 0.05,0 0.05,0.35 0.1,1 0,0.65 0.1,1.4 0.3,2.25 0.15,0.85 0.45,1.65 0.8,2.5 0.35,0.85 0.6,1.25 0.85,1.2 0.25,-0.05 0.55,-0.2 0.95,-0.55 0.45,-0.45 1.15,-1.2 2.15,-2.3 0.45,-0.5 0.9,-0.9 1.35,-1.2 -0.5,-0.15 -0.9,-0.45 -1.25,-0.9 5.55,0.2 9.05,-2.2 10.5,-7.2 0.7,-2.35 1.25,-4.8 1.7,-7.35 0.1,-0.6 0.2,-1.1 0.35,-1.55 0.05,0.6 0.05,1.2 0,1.8 0.15,-0.65 0.3,-1.3 0.5,-1.95 0.05,-0.05 0.1,-0.05 0.15,-0.1 0.15,2.95 0.25,5.95 0.2,9 -0.05,3.15 0.7,6.05 2.15,8.7 0.35,0.6 0.7,1.15 1.05,1.75 0.45,0.1 0.9,0.25 1.45,0.5 0.45,0.25 1,0.25 1.65,0 C 3.8,17.95 5,17.6 6.55,18 7.3,18.15 8,18.35 8.75,18.55 11.55,16 12.85,12.9 12.5,9.15 12.45,9.2 12.4,9.3 12.35,9.35 12.3,8.8 12.25,8.2 12.2,7.6 12.15,7.3 12,6.8 11.85,6.3 10.3,1.4 9,-3.6 7.95,-8.65 z m -6.7,-16.2 c 0.1,0.1 0.2,0.2 0.25,0.35 0.05,0.15 0.05,0.25 -0.05,0.4 -0.05,0.05 -0.05,0.05 -0.1,0.1 -0.05,0.05 -0.05,0.05 -0.1,0.05 -0.05,0.05 -0.1,0.05 -0.15,0.05 -0.05,0 -0.15,0 -0.2,0 -0.05,0 -0.15,0 -0.2,-0.05 C 0.65,-24 0.6,-24 0.55,-24.05 c 0,-0.05 0,-0.1 0,-0.15 0,-0.05 0,-0.05 0,-0.1 0,-0.05 0,-0.1 0.05,-0.15 0,-0.05 0,-0.1 0,-0.15 -0.15,-0.15 -0.3,-0.3 -0.5,-0.4 -0.45,-0.15 -0.9,-0.3 -1.35,-0.4 -0.45,-0.05 -0.5,-0.2 -0.15,-0.45 l 0,-0.05 c 0.35,-0.05 0.65,-0.05 1,-0.05 0.35,-0.05 0.65,0.05 0.9,0.3 0.15,0.15 0.3,0.25 0.45,0.35 0.05,0.05 0.1,0.05 0.15,0.1 0.05,0.05 0.05,0.1 0.05,0.15 0,0.05 0.05,0.15 0.1,0.2 z m 1.2,4.05 c 0,-0.05 0.05,-0.15 0.1,-0.2 0.05,-0.05 0.1,-0.05 0.15,-0.1 0.75,0.95 1.35,2.1 1.7,3.35 0.35,1.25 0.8,2.45 1.25,3.65 0.25,0.75 0.3,1.45 0.15,2.2 -0.15,-0.05 -0.25,-0.05 -0.35,-0.05 -0.1,-0.05 -0.15,-0.05 -0.2,0 -0.1,0.05 -0.2,0.1 -0.25,0.15 -0.05,0.15 -0.1,0.25 -0.15,0.4 -0.05,0.15 -0.05,0.25 0,0.4 0,0.15 -0.05,0.25 -0.1,0.35 -0.05,0.05 -0.05,0.05 -0.05,0.1 -0.65,-0.7 -0.9,-1.7 -0.85,-3.05 0.05,-1.15 -0.1,-2.25 -0.4,-3.35 C 3.2,-17.8 3,-18.6 2.95,-19.35 2.9,-19.4 2.9,-19.5 2.85,-19.55 2.75,-19.7 2.65,-19.85 2.55,-19.95 2.5,-20 2.45,-20.1 2.4,-20.2 c 0,-0.05 0,-0.15 0,-0.25 0,-0.1 0,-0.2 0.05,-0.35 z m -7,-2.6 c -0.65,1.15 -1.05,2.4 -1.25,3.7 -0.25,1.5 -0.25,3.05 -0.05,4.6 0.1,1.05 0.15,2.1 0.2,3.1 -0.35,0.05 -0.6,-0.1 -0.75,-0.4 -0.15,-0.25 -0.25,-0.45 -0.35,-0.7 -0.15,-0.3 -0.25,-0.6 -0.3,-0.9 -0.1,0.25 -0.2,0.5 -0.3,0.8 -0.15,0.4 -0.25,0.8 -0.35,1.2 -0.15,0.65 -0.45,0.95 -1,1 0.25,-1.55 0.5,-3.15 0.75,-4.7 0.3,-1.9 0.75,-3.75 1.3,-5.5 0.25,-0.75 0.55,-1.4 1,-2.05 0.25,-0.4 0.6,-0.7 0.95,-0.85 0.2,0.05 0.4,0.1 0.55,0.2 0.15,0.05 0.15,0.15 0,0.3 -0.15,0.05 -0.25,0.15 -0.4,0.2 z"
           inkscape:connector-curvature="0"
           style="fill:#c21d1a" />
        <path
           id="path160"
           d="m 1.25,-24.85 c -0.05,-0.05 -0.1,-0.15 -0.1,-0.2 0,-0.05 0,-0.1 -0.05,-0.15 -0.05,-0.05 -0.1,-0.05 -0.15,-0.1 -0.15,-0.1 -0.3,-0.2 -0.45,-0.35 -0.25,-0.25 -0.55,-0.35 -0.9,-0.3 -0.35,0 -0.65,0 -1,0.05 l 0,0.05 c -0.35,0.25 -0.3,0.4 0.15,0.45 0.45,0.1 0.9,0.25 1.35,0.4 0.2,0.1 0.35,0.25 0.5,0.4 0,0.05 0,0.1 0,0.15 -0.05,0.05 -0.05,0.1 -0.05,0.15 0,0.05 0,0.05 0,0.1 0,0.05 0,0.1 0,0.15 0.05,0.05 0.1,0.05 0.15,0.1 0.05,0.05 0.15,0.05 0.2,0.05 0.05,0 0.15,0 0.2,0 0.05,0 0.1,0 0.15,-0.05 0.05,0 0.05,0 0.1,-0.05 0.05,-0.05 0.05,-0.05 0.1,-0.1 0.1,-0.15 0.1,-0.25 0.05,-0.4 -0.05,-0.15 -0.15,-0.25 -0.25,-0.35 z"
           inkscape:connector-curvature="0"
           style="fill:#9c1814" />
        <path
           id="path163"
           d="m 2.45,-20.8 c -0.05,0.15 -0.05,0.25 -0.05,0.35 0,0.1 0,0.2 0,0.25 0.05,0.1 0.1,0.2 0.15,0.25 0.1,0.1 0.2,0.25 0.3,0.4 0.05,0.05 0.05,0.15 0.1,0.2 0.05,0.75 0.25,1.55 0.5,2.4 0.3,1.1 0.45,2.2 0.4,3.35 -0.05,1.35 0.2,2.35 0.85,3.05 0,-0.05 0,-0.05 0.05,-0.1 0.05,-0.1 0.1,-0.2 0.1,-0.35 -0.05,-0.15 -0.05,-0.25 0,-0.4 0.05,-0.15 0.1,-0.25 0.15,-0.4 0.05,-0.05 0.15,-0.1 0.25,-0.15 0.05,-0.05 0.1,-0.05 0.2,0 0.1,0 0.2,0 0.35,0.05 0.15,-0.75 0.1,-1.45 -0.15,-2.2 -0.45,-1.2 -0.9,-2.4 -1.25,-3.65 -0.35,-1.25 -0.95,-2.4 -1.7,-3.35 -0.05,0.05 -0.1,0.05 -0.15,0.1 -0.05,0.05 -0.1,0.15 -0.1,0.2 z"
           inkscape:connector-curvature="0"
           style="fill:#cd2520" />
        <path
           id="path166"
           d="m -4.55,-23.4 c 0.15,-0.05 0.25,-0.15 0.4,-0.2 0.15,-0.15 0.15,-0.25 0,-0.3 -0.15,-0.1 -0.35,-0.15 -0.55,-0.2 -0.35,0.15 -0.7,0.45 -0.95,0.85 -0.45,0.65 -0.75,1.3 -1,2.05 -0.55,1.75 -1,3.6 -1.3,5.5 -0.25,1.55 -0.5,3.15 -0.75,4.7 0.55,-0.05 0.85,-0.35 1,-1 0.1,-0.4 0.2,-0.8 0.35,-1.2 0.1,-0.3 0.2,-0.55 0.3,-0.8 0.05,0.3 0.15,0.6 0.3,0.9 0.1,0.25 0.2,0.45 0.35,0.7 0.15,0.3 0.4,0.45 0.75,0.4 -0.05,-1 -0.1,-2.05 -0.2,-3.1 -0.2,-1.55 -0.2,-3.1 0.05,-4.6 0.2,-1.3 0.6,-2.55 1.25,-3.7 z"
           inkscape:connector-curvature="0"
           style="fill:#cd2520" />
        <path
           id="path169"
           d="M 9.35,19.1 C 9.15,19.1 9,19.2 8.8,19.3 8.9,19.25 9,19.25 9.05,19.2 c 0.1,0 0.1,0 0.1,0 0.15,-0.05 0.25,-0.1 0.2,-0.1"
           inkscape:connector-curvature="0"
           style="fill:#c21d1a" />
      </g>
      <animate
         attributeName="display"
         begin="0s"
         repeatCount="indefinite"
         dur="0.75s"
         keyTimes="0;0.722;0.833;1"
         values="none;inline;none;none"
         id="animate52" />
    </g>
    <g
       id="backCapeD006_1_1156">
      <g
         id="element6">
        <path
           id="path124"
           d="m 1.05,-26.4 c -0.3,0.05 -0.65,0.05 -1,0.05 -0.35,-0.05 -0.65,0.05 -0.9,0.2 -0.2,0 -0.35,0 -0.5,0.05 2.85,0.3 5,1.6 6.4,3.95 2.05,3.5 3.7,7.25 4.85,11.2 0.75,2.7 1.4,5.45 1.85,8.25 l 0.05,0.05 c -0.05,0.05 -0.05,0.05 -0.1,0.05 -0.05,0 -0.05,0 -0.05,0 -1,-2.75 -1.9,-5.5 -2.75,-8.3 0.4,1.55 0.8,3.25 1.2,5.1 0.75,3.25 1.85,6.4 3.2,9.45 1.5,3.35 2.6,6.3 3.3,8.95 -0.15,2.2 -0.4,3.5 -0.75,3.9 -0.4,0.35 -1.45,0.85 -3.1,1.4 -1.7,0.55 -4.2,0.85 -7.45,0.9 0.85,0.15 1.9,0.35 3.05,0.6 0.4,0.05 0.8,0.15 1.15,0.2 0.4,-0.1 0.8,-0.2 1.2,-0.35 1.85,-0.6 3.75,-1.1 5.6,-1.55 3.45,-0.9 6.85,-1.55 10.3,-2 0.25,0.15 0.55,0.25 0.8,0.4 0.1,-0.15 0.1,-0.25 0,-0.3 -0.1,-0.05 -0.2,-0.15 -0.3,-0.2 0.25,-0.05 0.45,-0.05 0.7,-0.1 -0.45,-0.15 -0.85,-0.25 -1.3,-0.3 -2.55,-1.8 -4.75,-3.95 -6.7,-6.45 -3.35,-4.35 -5.45,-9.2 -6.4,-14.6 -0.65,-3.6 -1.6,-7 -2.95,-10.25 0.05,-0.45 0,-0.9 -0.15,-1.35 -0.7,-1.95 -1.65,-3.75 -2.85,-5.4 -0.3,-0.4 -0.6,-0.75 -0.9,-1.05 C 5.3,-25.25 3.85,-26.05 2.2,-26.3 2.1,-26.35 2,-26.4 1.85,-26.35 1.7,-26.4 1.6,-26.4 1.45,-26.4 l -0.025,0 -0.375,0 z M 1,-26.15 c -0.25,0.05 -0.4,0.05 -0.55,0.05 l 0.15,-0.05 c 0.1,0 0.2,0 0.35,-0.05 L 1,-26.15 z m 19.4,41 c -0.5,0.1 -1,0.1 -1.55,0.05 0,-1.1 -0.15,-2.2 -0.5,-3.25 C 18,10.65 17.6,9.7 17.1,8.75 16.55,7.8 16.55,7.05 17.05,6.4 c 0.55,1.3 1.3,2.55 2.25,3.8 0.95,1.25 1.5,2.6 1.65,4.05 0.05,0.3 -0.15,0.5 -0.55,0.6 z m -19.35,4.2 c 0.85,0.3 1.75,0.55 2.6,0.7 0.35,0.05 0.65,0.1 1,0.15 C 5.3,19.95 6,20 6.7,20 5.7,19.7 4.75,19.3 3.85,18.75 2.4,17.95 1.2,16.9 0.15,15.65 -2.1,12.9 -3.45,9.8 -3.95,6.3 -4.1,5.25 -4.15,3.05 -4.2,-0.3 c 0,-0.05 0,-0.1 -0.05,-0.15 -0.25,0.65 -0.4,1.4 -0.5,2.15 -0.45,0.55 -0.7,1.2 -0.8,2 -0.3,2.4 -0.3,4.85 -0.05,7.3 0.1,1.1 -0.2,2.05 -0.85,2.85 -1.45,1.7 -3.35,2.75 -5.7,3.15 0.05,0 0.1,0 0.15,0.05 l -0.025,0 0.025,0 c 0.15,-0.05 0.3,-0.05 0.45,-0.1 l -0.025,0 3.1,-0.175 0.025,0.025 c 0.1,0 0.2,0 0.3,0 3.15,0.35 6.25,1.1 9.2,2.25 z m -4.2,-7.2 c 0.25,0.95 0.6,1.85 1.1,2.6 0.3,0.45 0.4,1 0.25,1.6 -1.35,0.1 -2.05,-0.6 -2.1,-2.1 -0.05,-1.05 -0.2,-2.1 -0.4,-3.1 -0.15,-0.7 0,-1.25 0.35,-1.65 0.35,0.8 0.6,1.7 0.8,2.65 z"
           inkscape:connector-curvature="0"
           style="fill:#b11b18" />
        <path
           id="path125"
           d="M 1,-26.15 0.95,-26.2 c -0.15,0.05 -0.25,0.05 -0.35,0.05 l -0.15,0.05 c 0.15,0 0.3,0 0.55,-0.05 z m 9.1,20.35 c -0.4,-1.85 -0.8,-3.55 -1.2,-5.1 0.85,2.8 1.75,5.55 2.75,8.3 0,0 0,0 0.05,0 0.05,0 0.05,0 0.1,-0.05 L 11.75,-2.7 c -0.45,-2.8 -1.1,-5.55 -1.85,-8.25 -1.15,-3.95 -2.8,-7.7 -4.85,-11.2 -1.4,-2.35 -3.55,-3.65 -6.4,-3.95 -2.3,0.3 -4.25,1.25 -5.9,2.85 -0.75,0.8 -1.25,1.7 -1.5,2.7 -0.1,0.5 -0.2,1 -0.25,1.45 -0.8,1.65 -1.25,3.5 -1.4,5.5 -0.1,1.45 -0.35,2.85 -0.8,4.2 -1.5,4.6 -3.35,9 -5.5,13.2 -2.85,5.45 -3,10.85 -0.45,16.3 -0.05,0.05 -0.05,0.05 -0.05,0.1 0.05,0.05 0.05,0.05 0.1,0.1 0.05,0.05 0.05,0.05 0.1,0.05 0.15,0.25 0.25,0.55 0.4,0.8 -0.1,-0.25 -0.2,-0.55 -0.25,-0.8 0.05,0 0.15,0 0.2,-0.05 0.05,-0.05 0.1,-0.05 0.15,-0.1 0.05,-0.05 0.15,-0.1 0.2,-0.15 0.05,0 0.05,0 0.05,-0.05 0.05,-0.05 0.05,-0.1 0.1,-0.15 0,-0.05 0,-0.05 0,-0.1 0,-0.05 0,-0.1 0,-0.15 0,-0.05 0,-0.05 0,-0.1 -0.05,-0.05 -0.05,-0.1 -0.05,-0.15 1.25,-1.15 2.65,-1.9 4.2,-2.3 C -12.05,17 -12.1,17 -12.15,17 -9.8,16.6 -7.9,15.55 -6.45,13.85 -5.8,13.05 -5.5,12.1 -5.6,11 -5.85,8.55 -5.85,6.1 -5.55,3.7 c 0.1,-0.8 0.35,-1.45 0.8,-2 0.1,-0.75 0.25,-1.5 0.5,-2.15 0.05,0.05 0.05,0.1 0.05,0.15 0.05,3.35 0.1,5.55 0.25,6.6 0.5,3.5 1.85,6.6 4.1,9.35 1.05,1.25 2.25,2.3 3.7,3.1 C 4.75,19.3 5.7,19.7 6.7,20 l -0.025,-0.025 0.025,0 0,0.025 C 7.65,19.95 8.55,19.8 9.5,19.6 9.15,19.55 8.75,19.45 8.35,19.4 7.2,19.15 6.15,18.95 5.3,18.8 c 3.25,-0.05 5.75,-0.35 7.45,-0.9 1.65,-0.55 2.7,-1.05 3.1,-1.4 0.35,-0.4 0.6,-1.7 0.75,-3.9 C 15.9,9.95 14.8,7 13.3,3.65 11.95,0.6 10.85,-2.55 10.1,-5.8 z M 1,-24.25 C 0.75,-24.3 0.45,-24.4 0.2,-24.5 c -0.35,-0.05 -0.7,-0.1 -1.15,-0.1 -0.05,-0.05 -0.05,-0.1 -0.1,-0.15 -0.05,-0.05 -0.05,-0.05 -0.05,-0.1 0,-0.05 0,-0.1 0,-0.15 l 0,-0.05 c -0.1,0 -0.2,0 -0.35,0.05 -0.05,0.05 -0.15,0.1 -0.2,0.15 -0.05,0 -0.05,0 -0.1,0 -0.05,0.05 -0.15,0.05 -0.25,0.1 -0.25,0.15 -0.4,0.05 -0.4,-0.2 0,-0.05 0,-0.1 0,-0.15 0.05,-0.05 0.05,-0.05 0.1,-0.1 0.05,-0.05 0.05,-0.05 0.05,-0.1 0.05,-0.05 0.1,-0.05 0.15,-0.05 0.25,-0.05 0.45,-0.15 0.7,-0.25 0.35,-0.05 0.75,-0.05 1.1,0 0.5,0.05 1,0.15 1.45,0.3 0.45,0.15 0.65,0.5 0.6,0.95 -0.05,0.15 -0.1,0.2 -0.25,0.2 -0.2,0 -0.35,-0.05 -0.5,-0.1 z m 1.45,4 c 0.25,0.7 0.55,1.35 0.95,2 0.4,0.6 0.8,1.2 1.2,1.8 0.25,0.35 0.4,0.75 0.45,1.2 0.45,0.35 0.8,0.85 1.05,1.45 0.2,0.55 0.5,1 0.95,1.45 0.3,0.25 0.45,0.6 0.4,1 -0.05,0.15 -0.1,0.2 -0.25,0.25 -0.25,0.05 -0.55,0.1 -0.8,0.15 -0.15,0.2 -0.2,0.4 -0.2,0.65 0,0.25 -0.05,0.45 -0.2,0.6 C 5.95,-9.6 5.85,-9.5 5.7,-9.45 5.35,-10.55 4.9,-11.75 4.45,-13 4,-14.2 3.65,-15.4 3.3,-16.55 3.05,-17.5 2.65,-18.25 2.1,-18.7 c 0.15,-0.1 0.2,-0.25 0.15,-0.45 -0.05,-0.2 -0.1,-0.4 -0.1,-0.65 -0.05,-0.25 0.05,-0.4 0.25,-0.45 l 0.05,0 z m -9.4,7.1 c -0.25,0.25 -0.5,0.7 -0.75,1.3 -0.2,0.6 -0.45,1.2 -0.75,1.75 -0.2,0.4 -0.5,0.55 -0.85,0.5 0.25,-1.85 0.55,-3.65 0.85,-5.5 0.35,-2.05 1.05,-4 2.15,-5.75 0.6,-0.95 1.35,-1.75 2.2,-2.3 -0.95,1.35 -1.5,2.85 -1.7,4.5 -0.15,1.65 -0.1,3.3 0.2,4.9 0.2,0.95 0.4,1.8 0.55,2.65 -0.35,0.35 -0.75,0.25 -1.15,-0.3 -0.25,-0.35 -0.4,-0.7 -0.55,-1.05 -0.05,-0.25 -0.15,-0.45 -0.2,-0.7 z"
           inkscape:connector-curvature="0"
           style="fill:#c21d1a" />
        <path
           id="path128"
           d="m 20.4,14.85 c 0.4,-0.1 0.6,-0.3 0.55,-0.6 C 20.8,12.8 20.25,11.45 19.3,10.2 18.35,8.95 17.6,7.7 17.05,6.4 c -0.5,0.65 -0.5,1.4 0.05,2.35 0.5,0.95 0.9,1.9 1.25,2.9 0.35,1.05 0.5,2.15 0.5,3.25 0.55,0.05 1.05,0.05 1.55,-0.05 z"
           inkscape:connector-curvature="0"
           style="fill:#9c1814" />
        <path
           id="path131"
           d="m 20.4,13.95 0,-0.1 c -0.05,-0.2 -0.05,-0.35 -0.05,-0.4 -0.05,0.15 0,0.35 0.05,0.5"
           inkscape:connector-curvature="0"
           style="fill:#b11b18" />
        <path
           id="path134"
           d="m 1,-24.25 c 0.15,0.05 0.3,0.1 0.5,0.1 0.15,0 0.2,-0.05 0.25,-0.2 0.05,-0.45 -0.15,-0.8 -0.6,-0.95 -0.45,-0.15 -0.95,-0.25 -1.45,-0.3 -0.35,-0.05 -0.75,-0.05 -1.1,0 -0.25,0.1 -0.45,0.2 -0.7,0.25 -0.05,0 -0.1,0 -0.15,0.05 0,0.05 0,0.05 -0.05,0.1 -0.05,0.05 -0.05,0.05 -0.1,0.1 0,0.05 0,0.1 0,0.15 0,0.25 0.15,0.35 0.4,0.2 0.1,-0.05 0.2,-0.05 0.25,-0.1 0.05,0 0.05,0 0.1,0 0.05,-0.05 0.15,-0.1 0.2,-0.15 0.15,-0.05 0.25,-0.05 0.35,-0.05 l 0,0.05 c 0,0.05 0,0.1 0,0.15 0,0.05 0,0.05 0.05,0.1 0.05,0.05 0.05,0.1 0.1,0.15 0.45,0 0.8,0.05 1.15,0.1 0.25,0.1 0.55,0.2 0.8,0.25 z"
           inkscape:connector-curvature="0"
           style="fill:#9c1814" />
        <path
           id="path137"
           d="m 2.45,-20.25 -0.05,0 c -0.2,0.05 -0.3,0.2 -0.25,0.45 0,0.25 0.05,0.45 0.1,0.65 0.05,0.2 0,0.35 -0.15,0.45 0.55,0.45 0.95,1.2 1.2,2.15 0.35,1.15 0.7,2.35 1.15,3.55 0.45,1.25 0.9,2.45 1.25,3.55 C 5.85,-9.5 5.95,-9.6 6,-9.7 c 0.15,-0.15 0.2,-0.35 0.2,-0.6 0,-0.25 0.05,-0.45 0.2,-0.65 0.25,-0.05 0.55,-0.1 0.8,-0.15 0.15,-0.05 0.2,-0.1 0.25,-0.25 0.05,-0.4 -0.1,-0.75 -0.4,-1 C 6.6,-12.8 6.3,-13.25 6.1,-13.8 5.85,-14.4 5.5,-14.9 5.05,-15.25 5,-15.7 4.85,-16.1 4.6,-16.45 c -0.4,-0.6 -0.8,-1.2 -1.2,-1.8 -0.4,-0.65 -0.7,-1.3 -0.95,-2 z"
           inkscape:connector-curvature="0"
           style="fill:#cd2520" />
        <path
           id="path140"
           d="m -6.95,-13.15 c 0.05,0.25 0.15,0.45 0.2,0.7 0.15,0.35 0.3,0.7 0.55,1.05 0.4,0.55 0.8,0.65 1.15,0.3 -0.15,-0.85 -0.35,-1.7 -0.55,-2.65 -0.3,-1.6 -0.35,-3.25 -0.2,-4.9 0.2,-1.65 0.75,-3.15 1.7,-4.5 -0.85,0.55 -1.6,1.35 -2.2,2.3 -1.1,1.75 -1.8,3.7 -2.15,5.75 -0.3,1.85 -0.6,3.65 -0.85,5.5 0.35,0.05 0.65,-0.1 0.85,-0.5 0.3,-0.55 0.55,-1.15 0.75,-1.75 0.25,-0.6 0.5,-1.05 0.75,-1.3 z"
           inkscape:connector-curvature="0"
           style="fill:#cd2520" />
        <path
           id="path145"
           d="M -3.15,11.85 C -3.35,10.9 -3.6,10 -3.95,9.2 c -0.35,0.4 -0.5,0.95 -0.35,1.65 0.2,1 0.35,2.05 0.4,3.1 0.05,1.5 0.75,2.2 2.1,2.1 0.15,-0.6 0.05,-1.15 -0.25,-1.6 -0.5,-0.75 -0.85,-1.65 -1.1,-2.6 z"
           inkscape:connector-curvature="0"
           style="fill:#9c1814" />
      </g>
      <animate
         attributeName="display"
         begin="0s"
         repeatCount="indefinite"
         dur="0.75s"
         keyTimes="0;0.611;0.722;1"
         values="none;inline;none;none"
         id="animate64" />
    </g>
    <g
       id="backCapeD006_1_1154">
      <g
         id="element5">
        <path
           id="path106"
           d="m 1.3,-25.375 q 0.129,0.124 0.15,0.375 c 0,0.05 0,0.05 0,0.1 0,0.05 0,0.1 0,0.15 -0.05,0.05 -0.05,0.1 -0.05,0.15 -0.05,0 -0.05,0 -0.05,0.05 -0.05,0.05 -0.1,0.05 -0.15,0.05 -0.05,0.05 -0.15,0.05 -0.2,0.05 -0.05,0 -0.1,0 -0.15,0 -0.1,0 -0.2,0 -0.25,-0.05 -0.15,-0.05 -0.3,-0.1 -0.45,-0.15 -0.1,-0.05 -0.2,-0.05 -0.35,-0.05 -0.15,0.05 -0.35,0.05 -0.5,0.05 -0.05,0.05 -0.05,0.1 -0.05,0.15 0,0.05 0,0.05 -0.05,0.1 -0.05,0.1 -0.1,0.2 -0.15,0.25 -0.05,0.05 -0.1,0.05 -0.15,0 -0.05,0 -0.1,-0.05 -0.1,-0.1 -0.05,-0.05 -0.05,-0.05 -0.05,-0.1 -0.05,-0.05 -0.05,-0.05 -0.05,-0.1 0,-0.05 0,-0.1 0,-0.15 0,-0.05 0,-0.15 0,-0.2 l 0,-0.05 c -0.15,0.05 -0.25,0.05 -0.4,0.05 -0.15,0 -0.25,-0.05 -0.4,-0.1 0,-0.05 0,-0.05 0.05,-0.1 0,-0.05 0.05,-0.1 0.1,-0.15 0.05,-0.05 0.15,-0.15 0.25,-0.2 0.05,-0.05 0.05,-0.05 0.1,-0.05 -0.15,-0.05 -0.25,-0.05 -0.35,-0.05 -0.15,0 -0.3,-0.05 -0.45,-0.1 0.15,-0.05 0.35,-0.1 0.5,-0.15 -0.25,0.05 -0.45,0.15 -0.7,0.2 -0.45,0.1 -0.9,0.25 -1.3,0.5 -0.25,0.15 -0.45,0.25 -0.7,0.35 0.4,-0.3 0.8,-0.55 1.2,-0.8 -1.05,0.25 -2,0.75 -2.85,1.5 -0.75,0.65 -1.35,1.45 -1.7,2.3 -0.9,2.3 -1.6,4.65 -2.15,7 -1.45,6.65 -2.55,13.45 -3.25,20.35 -0.65,6.25 0.3,12.05 2.75,17.5 -0.05,-0.35 -0.05,-0.7 -0.1,-1.05 2.45,-2.7 5.45,-3.8 8.95,-3.3 C -1,18.6 -0.3,18.3 0.4,17.9 0.95,17.55 1.3,17.05 1.45,16.35 1.9,13.7 1.75,10.95 1,8.2 0.75,7.25 0.5,6.35 0.25,5.4 0.05,4.95 -0.15,4.55 -0.3,4.15 -0.45,3.8 -0.5,3.5 -0.35,3.25 -0.45,2.85 -0.5,2.5 -0.45,2.2 c 0.1,0.25 0.2,0.55 0.3,0.8 0.05,-0.05 0.05,-0.05 0.1,-0.1 1.5,3.85 3.35,7.45 5.55,10.8 2.65,4 6.15,4.8 10.55,2.35 1.25,-0.65 2.55,-1 3.95,-0.95 0.3,0 0.6,0 0.85,0.05 0.35,-0.2 0.75,-0.4 1.1,-0.65 0.65,-0.35 0.8,-0.9 0.35,-1.6 C 19.75,8.75 17.15,4.85 14.6,1.3 12,-2.25 10.05,-5.7 8.7,-9 8.35,-9.8 8.1,-10.45 7.9,-10.9 c 1,1.4 1.85,2.45 2.6,3.15 0.7,0.7 1.15,1.3 1.35,1.85 -0.2,-2.05 -0.7,-4.05 -1.55,-6 -1.25,-2.95 -2.55,-5.95 -3.85,-8.95 -1.2,-2.75 -2.9,-4.25 -5.15,-4.5 M 3,-17.4 c -0.55,-1.1 -0.6,-1.9 -0.1,-2.4 0.65,1.15 1.25,2.3 1.9,3.45 0.6,1.15 1.25,2.3 2,3.4 0.5,0.75 0.55,1.45 0.1,2.1 -0.3,-0.05 -0.5,-0.05 -0.55,0.05 -0.1,0.15 -0.15,0.3 -0.15,0.45 0,0.25 -0.1,0.35 -0.3,0.4 C 5.35,-11 4.9,-12.2 4.5,-13.6 4.15,-14.9 3.65,-16.15 3,-17.4 z"
           inkscape:connector-curvature="0"
           style="fill:#c21d1a" />
        <path
           id="path107"
           d="m 3,-17.4 c 0.65,1.25 1.15,2.5 1.5,3.8 0.4,1.4 0.85,2.6 1.4,3.65 0.2,-0.05 0.3,-0.15 0.3,-0.4 0,-0.15 0.05,-0.3 0.15,-0.45 0.05,-0.1 0.25,-0.1 0.55,-0.05 0.45,-0.65 0.4,-1.35 -0.1,-2.1 -0.75,-1.1 -1.4,-2.25 -2,-3.4 -0.65,-1.15 -1.25,-2.3 -1.9,-3.45 -0.5,0.5 -0.45,1.3 0.1,2.4 z m 1.7,2.45 c 0,0.05 0,0.1 -0.05,0.15 0,-0.05 0,-0.15 -0.05,-0.25 C 4.55,-15.1 4.55,-15.2 4.55,-15.3 4.5,-15.35 4.5,-15.45 4.5,-15.55 l 0.05,0 c 0.05,0.15 0.05,0.25 0.1,0.4 0.05,0.05 0.05,0.15 0.05,0.2 z"
           inkscape:connector-curvature="0"
           style="fill:#cd2520" />
        <path
           id="path110"
           d="m 4.7,-14.95 c 0,-0.05 0,-0.15 -0.05,-0.2 -0.05,-0.15 -0.05,-0.25 -0.1,-0.4 l -0.05,0 c 0,0.1 0,0.2 0.05,0.25 0,0.1 0,0.2 0.05,0.25 0.05,0.1 0.05,0.2 0.05,0.25 0.05,-0.05 0.05,-0.1 0.05,-0.15 z M -7,-12.9 c -0.25,0.75 -0.55,1.45 -0.8,2.1 -0.15,0.35 -0.25,0.7 -0.4,0.95 -0.25,-1.45 -0.2,-3.2 0.2,-5.2 0.35,-1.85 0.8,-3.65 1.25,-5.35 0.3,-1.05 0.9,-1.7 1.85,-1.95 -0.3,1.35 -0.5,2.8 -0.55,4.35 -0.05,1.55 0.1,3.05 0.5,4.5 0.2,0.8 0.4,1.6 0.55,2.35 -0.6,0.15 -1.05,-0.15 -1.4,-1 -0.25,-0.55 -0.4,-1.15 -0.45,-1.75 -0.05,-0.25 -0.1,-0.55 -0.05,-0.85 -0.25,0.65 -0.45,1.25 -0.7,1.85 z"
           inkscape:connector-curvature="0"
           style="fill:#c21d1a" />
        <path
           id="path113"
           d="m -7,-12.9 c 0.25,-0.6 0.45,-1.2 0.7,-1.85 -0.05,0.3 0,0.6 0.05,0.85 0.05,0.6 0.2,1.2 0.45,1.75 0.35,0.85 0.8,1.15 1.4,1 -0.15,-0.75 -0.35,-1.55 -0.55,-2.35 -0.4,-1.45 -0.55,-2.95 -0.5,-4.5 0.05,-1.55 0.25,-3 0.55,-4.35 -0.95,0.25 -1.55,0.9 -1.85,1.95 -0.45,1.7 -0.9,3.5 -1.25,5.35 -0.4,2 -0.45,3.75 -0.2,5.2 0.15,-0.25 0.25,-0.6 0.4,-0.95 0.25,-0.65 0.55,-1.35 0.8,-2.1 z"
           inkscape:connector-curvature="0"
           style="fill:#cd2520" />
        <path
           id="path116"
           d="M 1.45,-25 Q 1.429,-25.251 1.3,-25.375 l 0,0.025 c -0.45,-0.05 -0.95,-0.1 -1.45,-0.05 0.35,0.05 0.45,0.1 0.35,0.15 -0.25,0.1 -0.5,0.1 -0.75,0.05 -0.35,-0.1 -0.7,-0.15 -1.05,-0.2 -0.05,0 -0.05,0 -0.1,0.05 -0.1,0.05 -0.2,0.15 -0.25,0.2 -0.05,0.05 -0.1,0.1 -0.1,0.15 -0.05,0.05 -0.05,0.05 -0.05,0.1 0.15,0.05 0.25,0.1 0.4,0.1 0.15,0 0.25,0 0.4,-0.05 l 0,0.05 c 0,0.05 0,0.15 0,0.2 0,0.05 0,0.1 0,0.15 0,0.05 0,0.05 0.05,0.1 0,0.05 0,0.05 0.05,0.1 0,0.05 0.05,0.1 0.1,0.1 0.05,0.05 0.1,0.05 0.15,0 0.05,-0.05 0.1,-0.15 0.15,-0.25 0.05,-0.05 0.05,-0.05 0.05,-0.1 0,-0.05 0,-0.1 0.05,-0.15 0.15,0 0.35,0 0.5,-0.05 0.15,0 0.25,0 0.35,0.05 0.15,0.05 0.3,0.1 0.45,0.15 0.05,0.05 0.15,0.05 0.25,0.05 0.05,0 0.1,0 0.15,0 0.05,0 0.15,0 0.2,-0.05 0.05,0 0.1,0 0.15,-0.05 0,-0.05 0,-0.05 0.05,-0.05 0,-0.05 0,-0.1 0.05,-0.15 0,-0.05 0,-0.1 0,-0.15 0,-0.05 0,-0.05 0,-0.1 z"
           inkscape:connector-curvature="0"
           style="fill:#9c1814" />
        <path
           id="path117"
           d="m 7.9,-10.9 c 0.2,0.45 0.45,1.1 0.8,1.9 1.35,3.3 3.3,6.75 5.9,10.3 2.55,3.55 5.15,7.45 7.7,11.6 0.45,0.7 0.3,1.25 -0.35,1.6 -0.35,0.25 -0.75,0.45 -1.1,0.65 C 20.6,15.1 20.3,15.1 20,15.1 18.6,15.05 17.3,15.4 16.05,16.05 11.65,18.5 8.15,17.7 5.5,13.7 3.3,10.35 1.45,6.75 -0.05,2.9 -0.1,2.95 -0.1,2.95 -0.15,3 c -0.1,-0.25 -0.2,-0.55 -0.3,-0.8 -0.05,0.3 0,0.65 0.1,1.05 -0.15,0.25 -0.1,0.55 0.05,0.9 0.15,0.4 0.35,0.8 0.55,1.25 0.25,0.95 0.5,1.85 0.75,2.8 0.75,2.75 0.9,5.5 0.45,8.15 -0.15,0.7 -0.5,1.2 -1.05,1.55 -0.7,0.4 -1.4,0.7 -2.15,0.95 0.6,0.05 1.2,0.2 1.8,0.35 0.15,0.05 0.25,0.05 0.4,0.1 4.4,1.1 8.7,0.8 12.95,-0.95 1.5,-0.65 3,-1.1 4.55,-1.45 l 0,-0.025 -0.025,0.025 0.025,0 c 0.3,-0.05 0.6,-0.15 0.95,-0.2 l 0.925,-0.175 0.025,0.025 c 0.45,-0.1 0.95,-0.15 1.45,-0.2 0.15,-0.05 0.35,-0.05 0.5,-0.05 2.4,-0.2 4.8,-0.05 7.25,0.45 0.05,0.05 0.05,0.05 0.1,0.1 0.05,0.05 0.05,0.1 0.1,0.15 0.05,0.05 0.1,0.05 0.15,0.1 0.05,0.05 0.1,0.05 0.15,0.1 0.1,0.05 0.2,0.05 0.25,0.05 0.05,0 0.1,0 0.15,0 0.05,0 0.05,0 0.05,-0.05 0.05,-0.05 0.05,-0.05 0.05,-0.1 0,-0.05 0,-0.05 0,-0.1 0,-0.05 0,-0.05 -0.05,-0.1 -0.05,-0.05 -0.05,-0.1 -0.1,-0.15 -0.05,-0.05 -0.05,-0.1 -0.05,-0.15 -0.05,-0.05 -0.05,-0.05 -0.05,-0.1 0,-0.05 0,-0.05 -0.05,-0.1 C 29.7,16.35 29.7,16.3 29.65,16.25 29.55,16.2 29.45,16.2 29.3,16.2 29.15,15.85 29,15.55 28.85,15.25 27.15,12.2 25.5,9.1 23.85,6.05 23.25,4.9 22.5,3.85 21.6,2.9 21.35,2.65 21.1,2.35 20.85,2.1 L 20.825,2.075 21.4,2.6 C 16.7,-2.7 13.8,-7 12.65,-10.35 11.5,-13.7 10.1,-17.25 8.45,-21 7.1,-24.05 4.8,-25.75 1.65,-26.1 c -0.7,-0.1 -1.45,-0.1 -2.2,-0.05 -0.1,0.05 -0.2,0.1 -0.35,0.15 l 0,-0.025 -1.025,0.325 0.025,0 c -0.15,0.05 -0.35,0.1 -0.5,0.15 0.15,0.05 0.3,0.1 0.45,0.1 0.1,0 0.2,0 0.35,0.05 0.35,0.05 0.7,0.1 1.05,0.2 0.25,0.05 0.5,0.05 0.75,-0.05 0.1,-0.05 0,-0.1 -0.35,-0.15 0.5,-0.05 1,0 1.45,0.05 2.25,0.25 3.95,1.75 5.15,4.5 1.3,3 2.6,6 3.85,8.95 0.85,1.95 1.35,3.95 1.55,6 C 11.65,-6.45 11.2,-7.05 10.5,-7.75 9.75,-8.45 8.9,-9.5 7.9,-10.9 z M 22.35,9.85 c -0.25,-0.75 -0.6,-1.5 -1,-2.2 -0.5,-0.85 -0.6,-1.5 -0.25,-1.9 0.85,0.9 1.6,1.85 2.2,2.85 0.65,1.05 1.35,2.1 2.1,3.1 0.45,0.6 0.55,1.25 0.25,2 0,0.05 0,0.05 -0.05,0.05 -0.05,0.05 -0.15,0.05 -0.2,0.1 -0.05,0.05 -0.1,0.05 -0.15,0.1 -0.1,0.05 -0.2,0.1 -0.35,0.15 C 24.5,14 24.15,13.75 23.9,13.35 23.7,13.1 23.5,12.8 23.3,12.55 23.15,12.35 23,12.2 22.8,12.1 22.75,11.35 22.6,10.6 22.35,9.85 z M 6.7,17.95 C 5.4,18.65 4.55,18.2 4.2,16.65 3.95,15.6 3.6,14.65 3.05,13.8 2.6,13.1 2.6,12.55 3.15,12.1 c 0.45,0.75 0.9,1.45 1.35,2.2 0.5,0.75 1,1.45 1.45,2.2 0.3,0.5 0.55,1 0.75,1.45 z"
           inkscape:connector-curvature="0"
           style="fill:#b11b18" />
        <path
           id="path118"
           d="m 22.35,9.85 c 0.25,0.75 0.4,1.5 0.45,2.25 0.2,0.1 0.35,0.25 0.5,0.45 0.2,0.25 0.4,0.55 0.6,0.8 0.25,0.4 0.6,0.65 1,0.75 0.15,-0.05 0.25,-0.1 0.35,-0.15 0.05,-0.05 0.1,-0.05 0.15,-0.1 0.05,-0.05 0.15,-0.05 0.2,-0.1 0.05,0 0.05,0 0.05,-0.05 0.3,-0.75 0.2,-1.4 -0.25,-2 -0.75,-1 -1.45,-2.05 -2.1,-3.1 -0.6,-1 -1.35,-1.95 -2.2,-2.85 -0.35,0.4 -0.25,1.05 0.25,1.9 0.4,0.7 0.75,1.45 1,2.2 z"
           inkscape:connector-curvature="0"
           style="fill:#9c1814" />
        <path
           id="path121"
           d="M 6.7,17.95 C 6.5,17.5 6.25,17 5.95,16.5 5.5,15.75 5,15.05 4.5,14.3 4.05,13.55 3.6,12.85 3.15,12.1 c -0.55,0.45 -0.55,1 -0.1,1.7 0.55,0.85 0.9,1.8 1.15,2.85 0.35,1.55 1.2,2 2.5,1.3 z"
           inkscape:connector-curvature="0"
           style="fill:#9c1814" />
      </g>
      <animate
         attributeName="display"
         begin="0s"
         repeatCount="indefinite"
         dur="0.75s"
         keyTimes="0;0.5;0.611;1"
         values="none;inline;none;none"
         id="animate76" />
    </g>
    <g
       id="backCapeD006_1_1152">
      <g
         id="element4">
        <path
           id="path86"
           d="m 0.5,-25.75 q -0.132,0 -0.25,0 C 0,-25.7 -0.2,-25.7 -0.4,-25.7 c -0.35,0 -0.65,0 -0.95,0 l 0,0.05 c -0.2,0.05 -0.4,0.05 -0.55,0.1 -0.05,0.05 -0.15,0.05 -0.2,0.05 -0.05,0.05 -0.1,0.05 -0.15,0.1 -0.05,0 -0.05,0 -0.05,0.05 0.3,0.25 0.65,0.35 1.05,0.35 0.7,0.05 1.4,0.15 2.05,0.35 0.35,0.05 0.65,0.05 0.9,-0.1 0.05,-0.05 0.05,-0.05 0.05,-0.1 0,-0.1 0,-0.2 -0.05,-0.25 0,-0.05 0,-0.1 -0.05,-0.15 C 1.6,-25.3 1.6,-25.3 1.6,-25.3 1.35,-25.4 1.05,-25.5 0.75,-25.65 0.65,-25.7 0.55,-25.7 0.5,-25.75 z"
           inkscape:connector-curvature="0"
           style="fill:#9c1814" />
        <path
           id="path87"
           d="m 0.25,-25.75 q 0.118,0 0.25,0 c -0.45,-0.2 -0.95,-0.35 -1.4,-0.5 -0.25,-0.05 -0.4,-0.1 -0.5,-0.15 -0.6,0.05 -1.2,0.2 -1.75,0.4 -0.45,0.15 -0.95,0.3 -1.45,0.4 -0.15,0.2 -0.35,0.35 -0.6,0.5 -0.45,0.25 -0.85,0.6 -1.2,0.95 -0.5,0.5 -0.95,1.05 -1.3,1.65 -0.15,0.25 -0.25,0.55 -0.25,0.8 -1.5,3.65 -2.5,7.55 -2.95,11.8 -0.15,1.45 -0.45,2.95 -0.8,4.4 -1.55,5.65 -2.3,11.4 -2.3,17.25 0,3.35 -0.6,6.5 -1.75,9.5 0.1,0.05 0.15,0.05 0.2,0.1 0.3,0.15 0.6,0.2 0.9,0.15 0.7,-0.05 1.3,-0.35 1.8,-0.9 0.15,-0.15 0.45,-0.4 1,-0.85 0.55,-0.45 1.5,-0.95 2.85,-1.45 0.8,-0.35 1.55,-0.5 2.3,-0.5 0.25,0 0.55,0.05 0.85,0.1 1.3,0.05 2.45,-0.3 3.5,-1.05 C -1.3,16.1 -0.65,15.6 -0.4,15.3 -0.15,15 0.1,14.7 0.35,14.35 0.6,14 0.7,13.15 0.7,11.7 0.65,9.75 0.35,7.85 -0.2,5.95 -0.55,4.65 -0.85,3.35 -1.05,2.1 l 0.05,0 c 0.1,0.3 0.2,0.6 0.3,0.9 0.05,-0.1 0.15,-0.2 0.25,-0.25 0.8,1.5 1.4,3 1.75,4.5 0.4,1.55 1,3.05 1.75,4.55 0.4,0.8 0.7,1.65 0.95,2.5 0.6,0.9 1.25,1.8 2,2.65 C 6.45,17.5 7,18 7.6,18.4 7.95,18.45 8.3,18.35 8.65,18.15 8.9,18 9.1,17.95 9.25,18.1 c 0,0.05 0,0.05 0,0.1 0,0.05 0,0.1 0,0.15 0,0.05 0,0.05 -0.05,0.1 0.6,-0.3 1.15,-0.7 1.65,-1.25 0.8,-0.85 1.85,-1.3 3.1,-1.25 0.35,0 0.7,0 0.95,-0.05 0.6,0.15 1.2,0.35 1.75,0.5 0.2,-0.3 0.4,-0.6 0.6,-0.9 C 18.7,13.15 18.5,10.85 16.65,8.6 13.5,4.75 11.1,0.65 9.45,-3.8 8.3,-6.8 7.4,-9.75 6.75,-12.7 c 0.6,1.1 1.2,2.15 1.75,3.2 1.2,2.1 2.4,4.2 3.65,6.35 1.4,2.4 3,4.6 4.8,6.65 C 16.4,2.4 15.85,1.35 15.25,0.3 13.1,-3.3 11.5,-7.15 10.45,-11.3 9.25,-15.85 7.35,-19.95 4.75,-23.65 4.2,-24.45 3.45,-25 2.5,-25.3 c -0.2,0.1 -0.5,0.1 -0.9,0 0,0 0,0 0.05,0.05 0.05,0.05 0.05,0.1 0.05,0.15 0.05,0.05 0.05,0.15 0.05,0.25 0,0.05 0,0.05 -0.05,0.1 -0.25,0.15 -0.55,0.15 -0.9,0.1 -0.65,-0.2 -1.35,-0.3 -2.05,-0.35 -0.4,0 -0.75,-0.1 -1.05,-0.35 0,-0.05 0,-0.05 0.05,-0.05 0.05,-0.05 0.1,-0.05 0.15,-0.1 0.05,0 0.15,0 0.2,-0.05 0.15,-0.05 0.35,-0.05 0.55,-0.1 l 0,-0.05 c 0.3,0 0.6,0 0.95,0 0.2,0 0.4,0 0.65,-0.05 z m 1.2,4.55 c 1.05,0.95 1.75,2.1 2.2,3.4 0.45,1.35 0.95,2.65 1.6,3.9 0.4,0.85 0.55,1.55 0.5,2.2 -0.1,-0.05 -0.2,-0.15 -0.3,-0.25 -0.1,-0.1 -0.2,-0.2 -0.3,-0.25 -0.05,0 -0.05,0 -0.1,0.05 C 5,-12.1 5,-12 5,-11.9 c 0,0.1 0,0.2 0,0.35 0,0.1 0,0.2 -0.05,0.25 -0.05,0.05 -0.1,0.1 -0.15,0.15 C 4.25,-12.2 3.85,-13.4 3.6,-14.8 3.35,-16.15 2.85,-17.45 2.15,-18.75 1.7,-19.7 1.45,-20.5 1.45,-21.2 z m -7.05,-0.95 c 0.25,-0.45 0.65,-0.85 1.15,-1.15 -0.8,1.4 -1.25,2.95 -1.35,4.6 -0.1,1.65 0.05,3.25 0.4,4.8 0.25,0.9 0.55,1.75 0.9,2.55 -0.5,0.35 -1,0.3 -1.5,-0.25 -0.35,-0.35 -0.65,-0.85 -0.85,-1.4 -0.05,-0.15 -0.15,-0.3 -0.3,-0.35 -0.15,0.4 -0.35,0.75 -0.5,1.1 -0.25,0.4 -0.4,0.85 -0.5,1.3 -0.05,0.3 -0.25,0.5 -0.6,0.55 0.05,-1.55 0.1,-3.15 0.2,-4.8 0.15,-1.75 0.5,-3.45 1.15,-5.2 0.4,-1 0.95,-1.7 1.7,-2.05 0.05,0.1 0.05,0.2 0.1,0.3 z"
           inkscape:connector-curvature="0"
           style="fill:#c21d1a" />
        <path
           id="path88"
           d="m 1.45,-21.2 c 0,0.7 0.25,1.5 0.7,2.45 0.7,1.3 1.2,2.6 1.45,3.95 0.25,1.4 0.65,2.6 1.2,3.65 0.05,-0.05 0.1,-0.1 0.15,-0.15 C 5,-11.35 5,-11.45 5,-11.55 c 0,-0.15 0,-0.25 0,-0.35 0,-0.1 0,-0.2 0.05,-0.25 0.05,-0.05 0.05,-0.05 0.1,-0.05 0.1,0.05 0.2,0.15 0.3,0.25 0.1,0.1 0.2,0.2 0.3,0.25 0.05,-0.65 -0.1,-1.35 -0.5,-2.2 -0.65,-1.25 -1.15,-2.55 -1.6,-3.9 -0.45,-1.3 -1.15,-2.45 -2.2,-3.4 z"
           inkscape:connector-curvature="0"
           style="fill:#cd2520" />
        <path
           id="path91"
           d="m -5.6,-22.15 c -0.05,-0.1 -0.05,-0.2 -0.1,-0.3 -0.75,0.35 -1.3,1.05 -1.7,2.05 -0.65,1.75 -1,3.45 -1.15,5.2 -0.1,1.65 -0.15,3.25 -0.2,4.8 0.35,-0.05 0.55,-0.25 0.6,-0.55 0.1,-0.45 0.25,-0.9 0.5,-1.3 0.15,-0.35 0.35,-0.7 0.5,-1.1 0.15,0.05 0.25,0.2 0.3,0.35 0.2,0.55 0.5,1.05 0.85,1.4 0.5,0.55 1,0.6 1.5,0.25 -0.35,-0.8 -0.65,-1.65 -0.9,-2.55 -0.35,-1.55 -0.5,-3.15 -0.4,-4.8 0.1,-1.65 0.55,-3.2 1.35,-4.6 -0.5,0.3 -0.9,0.7 -1.15,1.15 z"
           inkscape:connector-curvature="0"
           style="fill:#cd2520" />
        <path
           id="path94"
           d="m 0.5,-25.75 c 0.05,0.05 0.15,0.05 0.25,0.1 0.3,0.15 0.6,0.25 0.85,0.35 0.4,0.1 0.7,0.1 0.9,0 0.95,0.3 1.7,0.85 2.25,1.65 2.6,3.7 4.5,7.8 5.7,12.35 1.05,4.15 2.65,8 4.8,11.6 0.6,1.05 1.15,2.1 1.7,3.2 -1.8,-2.05 -3.4,-4.25 -4.8,-6.65 C 10.9,-5.3 9.7,-7.4 8.5,-9.5 c -0.55,-1.05 -1.15,-2.1 -1.75,-3.2 0.65,2.95 1.55,5.9 2.7,8.9 1.65,4.45 4.05,8.55 7.2,12.4 1.85,2.25 2.05,4.55 0.6,6.9 -0.2,0.3 -0.4,0.6 -0.6,0.9 -0.55,-0.15 -1.15,-0.35 -1.75,-0.5 -0.25,0.05 -0.6,0.05 -0.95,0.05 -1.25,-0.05 -2.3,0.4 -3.1,1.25 -0.5,0.55 -1.05,0.95 -1.65,1.25 0.05,-0.05 0.05,-0.05 0.05,-0.1 0,-0.05 0,-0.1 0,-0.15 0,-0.05 0,-0.05 0,-0.1 C 9.1,17.95 8.9,18 8.65,18.15 8.3,18.35 7.95,18.45 7.6,18.4 7,18 6.45,17.5 6,16.95 5.25,16.1 4.6,15.2 4,14.3 3.75,13.45 3.45,12.6 3.05,11.8 2.3,10.3 1.7,8.8 1.3,7.25 0.95,5.75 0.35,4.25 -0.45,2.75 -0.55,2.8 -0.65,2.9 -0.7,3 -0.8,2.7 -0.9,2.4 -1,2.1 l -0.05,0 c 0.2,1.25 0.5,2.55 0.85,3.85 0.55,1.9 0.85,3.8 0.9,5.75 0,1.45 -0.1,2.3 -0.35,2.65 -0.25,0.35 -0.5,0.65 -0.75,0.95 -0.25,0.3 -0.9,0.8 -1.95,1.55 -1.05,0.75 -2.2,1.1 -3.5,1.05 0.2,0.05 0.4,0.1 0.65,0.15 l -0.025,-0.025 0.1,0.025 0.025,0 c 0.1,0.05 0.2,0.05 0.3,0.1 1.15,0.35 2.8,0.85 4.9,1.45 2.35,0.65 4.95,0.75 7.8,0.3 -0.25,0 -0.45,0 -0.65,-0.05 0.35,0.05 0.7,0.05 1.05,0 0.85,-0.05 1.75,-0.2 2.7,-0.5 0.65,-0.2 1.35,-0.5 2.1,-0.85 0.9,-0.45 1.8,-0.85 2.7,-1.2 0.65,-0.25 1.3,-0.45 1.95,-0.65 0.05,-0.05 0.1,-0.05 0.15,-0.05 0.35,-0.1 0.7,-0.1 1.15,-0.05 1.35,0.1 3.25,0.75 5.8,1.95 C 24.9,17.85 24.65,16 24.2,12.95 23.75,9.9 22.5,7 20.45,4.25 18.4,1.5 16.85,-0.45 15.85,-1.7 c -1,-1.25 -1.85,-3 -2.6,-5.35 -0.65,-2 -1.35,-4.1 -2,-6.3 -0.15,-0.4 -0.25,-0.8 -0.4,-1.2 -0.1,-0.35 -0.25,-1 -0.5,-1.95 -0.4,-1.75 -1,-3.4 -1.8,-4.95 -0.35,-0.75 -0.8,-1.4 -1.35,-1.95 -1.65,-1.6 -3.8,-2.65 -6.5,-3.15 -0.5,0 -1,0 -1.45,0.05 -0.25,0.05 -0.45,0.05 -0.65,0.1 0.1,0.05 0.25,0.1 0.5,0.15 0.45,0.15 0.95,0.3 1.4,0.5 z M 20.95,13.9 c -0.6,-0.2 -1.05,-1 -1.4,-2.35 -0.35,-1.4 -0.8,-2.6 -1.3,-3.6 -0.55,-1 -0.9,-1.8 -1.1,-2.4 0.65,0.1 1.2,0.5 1.65,1.25 0.35,0.55 0.65,1.15 0.95,1.75 0.15,0.35 0.4,0.7 0.7,0.95 C 20.25,9 20.05,8.45 19.9,7.85 19.75,7.2 19.5,6.65 19.2,6.15 18.85,5.55 18.9,5.1 19.25,4.8 c 0.7,1.15 1.35,2.4 1.9,3.65 0.55,1.25 0.9,2.6 1.05,4.05 0.1,1.05 -0.3,1.55 -1.25,1.4 z M 0.75,6.15 C 0.85,6.4 0.85,6.45 0.7,6.3 0.6,6.15 0.55,5.95 0.55,5.8 0.6,5.85 0.7,5.95 0.75,6.15 z m 1.1,6.75 C 1.5,12.15 1.55,11.55 1.9,11.1 c 0.55,0.85 0.95,1.8 1.25,2.75 0.3,0.95 0.65,1.85 1.05,2.8 0.2,0.55 0.35,1.1 0.5,1.6 -0.2,0.25 -0.5,0.3 -0.9,0.2 C 3.45,18.4 3.15,18.25 2.9,18 2.45,17.2 2.25,16.3 2.25,15.35 2.3,14.5 2.15,13.65 1.85,12.9 z"
           inkscape:connector-curvature="0"
           style="fill:#b11b18" />
        <path
           id="path95"
           d="M 20.95,13.9 C 21.9,14.05 22.3,13.55 22.2,12.5 22.05,11.05 21.7,9.7 21.15,8.45 20.6,7.2 19.95,5.95 19.25,4.8 18.9,5.1 18.85,5.55 19.2,6.15 c 0.3,0.5 0.55,1.05 0.7,1.7 0.15,0.6 0.35,1.15 0.55,1.65 -0.3,-0.25 -0.55,-0.6 -0.7,-0.95 -0.3,-0.6 -0.6,-1.2 -0.95,-1.75 -0.45,-0.75 -1,-1.15 -1.65,-1.25 0.2,0.6 0.55,1.4 1.1,2.4 0.5,1 0.95,2.2 1.3,3.6 0.35,1.35 0.8,2.15 1.4,2.35 z"
           inkscape:connector-curvature="0"
           style="fill:#9c1814" />
        <path
           id="path98"
           d="M 0.75,6.15 C 0.7,5.95 0.6,5.85 0.55,5.8 0.55,5.95 0.6,6.15 0.7,6.3 0.85,6.45 0.85,6.4 0.75,6.15 z M 1.8,-26.5 c -0.35,-0.05 -0.75,-0.05 -1.1,-0.05 2.7,0.5 4.85,1.55 6.5,3.15 C 6.25,-24.5 5,-25.3 3.55,-25.85 2.95,-26.1 2.35,-26.3 1.8,-26.5 z"
           inkscape:connector-curvature="0"
           style="fill:#c21d1a" />
        <path
           id="path101"
           d="m 1.85,12.9 c 0.3,0.75 0.45,1.6 0.4,2.45 0,0.95 0.2,1.85 0.65,2.65 0.25,0.25 0.55,0.4 0.9,0.45 0.4,0.1 0.7,0.05 0.9,-0.2 C 4.55,17.75 4.4,17.2 4.2,16.65 3.8,15.7 3.45,14.8 3.15,13.85 2.85,12.9 2.45,11.95 1.9,11.1 1.55,11.55 1.5,12.15 1.85,12.9 z"
           inkscape:connector-curvature="0"
           style="fill:#9c1814" />
      </g>
      <animate
         attributeName="display"
         begin="0s"
         repeatCount="indefinite"
         dur="0.75s"
         keyTimes="0;0.389;0.5;1"
         values="none;inline;none;none"
         id="animate88" />
    </g>
    <g
       id="backCapeD006_1_1150">
      <g
         id="element3">
        <path
           id="path59"
           d="M 1.175,-25.425 1.2,-25.4 c 2.2,0.5 3.8,1.75 4.75,3.75 1,2.05 1.6,4.3 1.85,6.7 0.7,6.65 3.25,12.45 7.65,17.5 2.3,2.65 2.7,5.3 1.25,7.85 C 16.55,10.2 16.35,10 16.1,9.8 14.8,7.45 13.25,5.1 11.4,2.85 9.95,1 8.75,-1 7.8,-3.2 6.85,-5.6 6.15,-8.1 5.7,-10.7 c 0.05,0.3 0.05,0.6 0.05,0.85 C 5.6,-11.4 5.6,-13 5.65,-14.6 c -0.05,1 -0.1,2 -0.1,3 -0.05,-0.25 -0.05,-0.45 -0.1,-0.65 0,-0.2 0,-0.4 -0.05,-0.55 -0.05,0.2 -0.05,0.4 -0.05,0.65 -0.15,1.45 -0.05,2.9 0.3,4.35 0.05,0.25 0.15,0.45 0.2,0.65 0.5,4.5 1.35,8.15 2.55,11 1.2,2.8 2,4.65 2.35,5.6 0.4,0.9 0.8,2 1.15,3.25 0.35,1.25 0.2,2 -0.45,2.35 -0.95,0.05 -1.85,0.05 -2.8,0 C 7.6,14.95 6.45,14.95 5.3,15.1 4.85,15.35 4.4,15.6 3.95,15.9 3.7,16.05 3.4,16.2 3.15,16.3 2.7,16.45 1.9,16.8 0.7,17.25 -0.75,16.5 -1.6,15.4 -1.8,13.95 -2.15,11.6 -2.75,8.2 -3.6,3.7 c -0.1,3.15 -0.35,5.6 -0.8,7.35 -0.45,1.75 -0.9,3.4 -1.45,4.85 -0.55,1.45 -1.85,2.3 -3.9,2.55 l -0.075,-0.025 0.05,0 -0.025,0.025 c 0.15,0 0.3,0 0.45,0.05 l 1.275,0.275 0.025,0.025 c 0.55,0.15 1.1,0.3 1.65,0.5 3.15,1.15 6.15,1 9.1,-0.45 C 3.15,18.6 3.55,18.35 4,18.1 4,18.05 4,18.05 4.05,18.05 5.5,17.1 6.95,16.45 8.4,16.1 c 0.95,-0.25 1.95,-0.35 2.9,-0.3 0.35,0.05 0.7,0.05 1.05,0.1 0.05,0 0.05,0 0.1,0.05 1.65,0.25 3.35,0.9 5,1.95 1,0.65 1.85,1.1 2.55,1.35 l 0,-0.025 0,0.025 0.025,-0.025 0.025,0.025 c 0.15,0.05 0.25,0.05 0.4,0.1 -0.05,-0.2 -0.1,-0.4 -0.15,-0.55 2.1,-3.15 2.6,-6.65 1.45,-10.45 C 21,5.8 19.65,3.5 17.75,1.5 15.7,-0.65 13.95,-3.05 12.5,-5.6 c 0.05,-0.3 -0.05,-0.6 -0.2,-0.85 -0.5,-0.95 -0.85,-1.9 -1.1,-2.9 -0.55,-2.5 -0.95,-5.05 -1.25,-7.6 -0.2,-1.75 -0.75,-3.25 -1.65,-4.5 0,-0.05 0,-0.05 0,-0.1 0,-0.45 -0.15,-0.9 -0.5,-1.25 -0.25,-0.25 -0.4,-0.55 -0.55,-0.9 -0.05,-0.1 -0.1,-0.2 -0.15,-0.3 -0.5,-0.4 -1,-0.8 -1.55,-1.2 -0.85,-0.65 -1.85,-1 -2.95,-1.1 -0.85,-0.05 -1.7,-0.05 -2.55,0 -0.2,0 -0.4,0 -0.6,0.05 l 0,0.05 -1.075,0.1 0.025,0 c -0.15,0.05 -0.25,0.05 -0.35,0.1 l -0.025,-0.025 0.025,0 0,0.025 c 0.35,0.05 0.7,0.15 1.05,0.2 l 0,-0.025 0.025,0 0.025,0.025 c 0.6,0.1 1.2,0.2 1.85,0.35 l 0.05,0 q 0.06,0.02 0.125,0.025 z M -3.45,15.6 c 0.05,-0.8 0,-1.6 -0.05,-2.4 -0.05,-0.65 0.05,-1.1 0.4,-1.45 0.35,0.75 0.55,1.6 0.6,2.5 0.05,0.9 0.2,1.75 0.5,2.55 0.2,0.5 0.25,1 0.1,1.45 C -2.15,18.4 -2.4,18.4 -2.65,18.2 -2.8,18.05 -3.05,17.95 -3.35,17.95 -3.45,17.2 -3.5,16.4 -3.45,15.6 z M 18.4,4.85 c 0.45,1.15 0.85,2.25 1.2,3.4 0.35,1.2 0.3,2.4 -0.05,3.55 -0.2,0.75 -0.65,1.15 -1.3,1.2 0.05,-0.7 0.15,-1.4 0.3,-2.05 0.15,-0.65 0.15,-1.35 0.1,-2 C 18.6,8.5 18.65,8 18.7,7.55 18.45,7.25 18.35,6.9 18.3,6.55 18.25,6.2 18.2,5.9 18.1,5.55 18,5.2 18.1,4.95 18.4,4.85 z m -3.5,4.6 c 0.65,1.15 1.2,2.3 1.6,3.5 0.3,0.85 0.15,1.55 -0.45,2 C 15.15,14.15 14.55,13.1 14.3,11.8 14.05,10.55 13.65,9.35 13,8.25 12.4,7.2 12.3,6.55 12.75,6.3 c 0.85,1 1.55,2.05 2.15,3.15 z m -9,6.8 0.25,0 C 6.1,16.3 6,16.3 5.8,16.35 5.45,16.45 5.5,16.4 5.9,16.25 z"
           inkscape:connector-curvature="0"
           style="fill:#b11b18" />
        <path
           id="path60"
           d="m -3.45,15.6 c -0.05,0.8 0,1.6 0.1,2.35 0.3,0 0.55,0.1 0.7,0.25 0.25,0.2 0.5,0.2 0.75,0.05 C -1.75,17.8 -1.8,17.3 -2,16.8 -2.3,16 -2.45,15.15 -2.5,14.25 c -0.05,-0.9 -0.25,-1.75 -0.6,-2.5 -0.35,0.35 -0.45,0.8 -0.4,1.45 0.05,0.8 0.1,1.6 0.05,2.4 z"
           inkscape:connector-curvature="0"
           style="fill:#9c1814" />
        <path
           id="path63"
           d="m 18.4,4.85 c -0.3,0.1 -0.4,0.35 -0.3,0.7 0.1,0.35 0.15,0.65 0.2,1 0.05,0.35 0.15,0.7 0.4,1 -0.05,0.45 -0.1,0.95 -0.05,1.4 0.05,0.65 0.05,1.35 -0.1,2 -0.15,0.65 -0.25,1.35 -0.3,2.05 0.65,-0.05 1.1,-0.45 1.3,-1.2 C 19.9,10.65 19.95,9.45 19.6,8.25 19.25,7.1 18.85,6 18.4,4.85 z"
           inkscape:connector-curvature="0"
           style="fill:#9c1814" />
        <path
           id="path66"
           d="M 14.9,9.45 C 14.3,8.35 13.6,7.3 12.75,6.3 12.3,6.55 12.4,7.2 13,8.25 c 0.65,1.1 1.05,2.3 1.3,3.55 0.25,1.3 0.85,2.35 1.75,3.15 0.6,-0.45 0.75,-1.15 0.45,-2 -0.4,-1.2 -0.95,-2.35 -1.6,-3.5 z M 1.2,-25.4 1.175,-25.425 Q 1.11,-25.43 1.05,-25.45 l -0.05,0 C 0.35,-25.6 -0.25,-25.7 -0.85,-25.8 l -0.025,-0.025 -0.025,0 0,0.025 c -0.2,0.05 -0.4,0.15 -0.6,0.25 -0.05,0 -0.05,0.05 -0.1,0.1 0,0.05 0,0.05 0,0.1 0.1,0.1 0.2,0.2 0.25,0.3 0.05,0.05 0.05,0.1 0.1,0.2 0,0.05 0,0.05 0.05,0.1 0.05,0.05 0.15,0.05 0.2,0.1 0.05,-0.05 0.1,-0.05 0.15,-0.1 0.45,-0.35 0.95,-0.4 1.5,-0.15 0.4,0.15 0.8,0.2 1.15,0.1 0.05,-0.05 0.1,-0.1 0.15,-0.15 0,-0.05 0,-0.05 -0.05,-0.1 -0.05,-0.15 -0.2,-0.2 -0.35,-0.25 -0.15,0 -0.25,-0.05 -0.35,-0.1 z"
           inkscape:connector-curvature="0"
           style="fill:#9c1814" />
        <path
           id="path69"
           d="M 5.9,16.25 C 5.5,16.4 5.45,16.45 5.8,16.35 6,16.3 6.1,16.3 6.15,16.25 l -0.25,0 z M 1.2,-25.4 c 0.1,0.05 0.2,0.1 0.35,0.1 0.15,0.05 0.3,0.1 0.35,0.25 0.05,0.05 0.05,0.05 0.05,0.1 -0.05,0.05 -0.1,0.1 -0.15,0.15 -0.35,0.1 -0.75,0.05 -1.15,-0.1 -0.55,-0.25 -1.05,-0.2 -1.5,0.15 -0.05,0.05 -0.1,0.05 -0.15,0.1 -0.05,-0.05 -0.15,-0.05 -0.2,-0.1 -0.05,-0.05 -0.05,-0.05 -0.05,-0.1 -0.05,-0.1 -0.05,-0.15 -0.1,-0.2 -0.05,-0.1 -0.15,-0.2 -0.25,-0.3 0,-0.05 0,-0.05 0,-0.1 0.05,-0.05 0.05,-0.1 0.1,-0.1 0.2,-0.1 0.4,-0.2 0.6,-0.25 -0.35,-0.05 -0.7,-0.15 -1.05,-0.2 -0.1,0 -0.2,0 -0.25,0.05 l -0.05,0 c -2.45,0.6 -4.2,1.85 -5.35,3.75 l 0,-0.025 -0.05,0.075 c -0.15,0.25 -0.3,0.55 -0.4,0.9 -0.45,1.35 -0.85,2.7 -1.3,4.05 0,-0.1 0,-0.2 0,-0.3 -0.35,1.1 -0.7,2.8 -1.05,5.05 -0.35,2.25 -1,5 -1.95,8.25 -0.95,3.2 -1.6,7.05 -1.95,11.5 -0.35,4.45 -2,9.1 -4.9,14.05 0.25,-0.15 0.5,-0.35 0.75,-0.55 -0.05,0.1 -0.15,0.2 -0.2,0.3 0.7,-0.05 1.35,-0.35 1.95,-0.9 1,-0.95 2.15,-1.55 3.45,-1.8 -0.05,-0.05 -0.05,-0.15 -0.05,-0.2 0,-0.05 0,-0.05 -0.05,-0.1 0.25,0.05 0.55,0.15 0.8,0.2 0.3,-0.05 0.6,-0.05 0.95,-0.05 0.6,0.05 1.2,0.1 1.85,0.2 2.05,-0.25 3.35,-1.1 3.9,-2.55 0.55,-1.45 1,-3.1 1.45,-4.85 0.45,-1.75 0.7,-4.2 0.8,-7.35 0.85,4.5 1.45,7.9 1.8,10.25 0.2,1.45 1.05,2.55 2.5,3.3 1.2,-0.45 2,-0.8 2.45,-0.95 0.25,-0.1 0.55,-0.25 0.8,-0.4 0.45,-0.3 0.9,-0.55 1.35,-0.8 1.15,-0.15 2.3,-0.15 3.35,-0.05 0.95,0.05 1.85,0.05 2.8,0 0.65,-0.35 0.8,-1.1 0.45,-2.35 C 11.55,11.45 11.15,10.35 10.75,9.45 10.4,8.5 9.6,6.65 8.4,3.85 7.2,1 6.35,-2.65 5.85,-7.15 5.8,-7.35 5.7,-7.55 5.65,-7.8 5.3,-9.25 5.2,-10.7 5.35,-12.15 c -0.15,0.1 -0.3,0.25 -0.35,0.4 -0.1,0.25 -0.25,0.45 -0.4,0.65 -0.05,0.05 -0.05,0.1 -0.1,0.2 -0.05,0.05 -0.15,0.05 -0.2,0.05 -0.15,0 -0.3,0.05 -0.45,0.15 -0.2,0.1 -0.4,0.1 -0.6,0 -0.2,-1.15 -0.35,-2.35 -0.4,-3.6 -0.05,-1.3 -0.25,-2.6 -0.5,-3.85 -0.25,-1.15 -0.25,-2.1 -0.1,-2.9 0.85,0.95 1.45,2.05 1.8,3.2 0.4,1.2 0.8,2.4 1.15,3.55 0.2,0.65 0.3,1.35 0.3,2 l -0.05,0.025 0,0.025 c 0.05,0.2 0.05,0.4 0.1,0.65 0,-1 0.05,-2 0.1,-3 -0.05,1.6 -0.05,3.2 0.1,4.75 0,-0.25 0,-0.55 -0.05,-0.85 0.45,2.6 1.15,5.1 2.1,7.5 0.95,2.2 2.15,4.2 3.6,6.05 1.85,2.25 3.4,4.6 4.7,6.95 0.25,0.2 0.45,0.4 0.6,0.6 C 18.15,7.85 17.75,5.2 15.45,2.55 11.05,-2.5 8.5,-8.3 7.8,-14.95 7.55,-17.35 6.95,-19.6 5.95,-21.65 5,-23.65 3.4,-24.9 1.2,-25.4 z m -8.45,12.8 c -0.2,0.4 -0.4,0.8 -0.55,1.15 -0.15,0.35 -0.3,0.65 -0.35,1 -0.4,-1.65 -0.35,-3.4 0.2,-5.3 0.55,-1.95 1.2,-3.85 2.05,-5.7 0.35,-0.85 0.95,-1.45 1.7,-1.8 -0.75,1.25 -1.15,2.7 -1.15,4.35 0.05,1.65 0.2,3.25 0.45,4.8 0.15,0.9 0.25,1.75 0.3,2.6 -0.45,0.1 -0.85,-0.05 -1.2,-0.45 -0.25,-0.3 -0.45,-0.65 -0.65,-1 -0.05,-0.15 -0.15,-0.35 -0.25,-0.5 -0.25,0.25 -0.4,0.5 -0.55,0.85 z m 5.1,15.8 C -2,2.45 -1.95,1.7 -1.9,1 c 0,0.95 0,1.9 0,2.9 C -1.95,3.7 -2.05,3.45 -2.15,3.2 z"
           inkscape:connector-curvature="0"
           style="fill:#c21d1a" />
        <path
           id="path76"
           d="m -7.25,-12.6 c 0.15,-0.35 0.3,-0.6 0.55,-0.85 0.1,0.15 0.2,0.35 0.25,0.5 0.2,0.35 0.4,0.7 0.65,1 0.35,0.4 0.75,0.55 1.2,0.45 -0.05,-0.85 -0.15,-1.7 -0.3,-2.6 -0.25,-1.55 -0.4,-3.15 -0.45,-4.8 0,-1.65 0.4,-3.1 1.15,-4.35 -0.75,0.35 -1.35,0.95 -1.7,1.8 -0.85,1.85 -1.5,3.75 -2.05,5.7 -0.55,1.9 -0.6,3.65 -0.2,5.3 0.05,-0.35 0.2,-0.65 0.35,-1 0.15,-0.35 0.35,-0.75 0.55,-1.15 z m 9.6,-5.55 c 0.25,1.25 0.45,2.55 0.5,3.85 0.05,1.25 0.2,2.45 0.4,3.6 0.2,0.1 0.4,0.1 0.6,0 0.15,-0.1 0.3,-0.15 0.45,-0.15 0.05,0 0.15,0 0.2,-0.05 0.05,-0.1 0.05,-0.15 0.1,-0.2 0.15,-0.2 0.3,-0.4 0.4,-0.65 0.05,-0.15 0.2,-0.3 0.35,-0.4 0,-0.25 0,-0.45 0.05,-0.65 0.05,0.15 0.05,0.35 0.05,0.55 l 0,-0.025 0.05,-0.025 c 0,-0.65 -0.1,-1.35 -0.3,-2 -0.35,-1.15 -0.75,-2.35 -1.15,-3.55 -0.35,-1.15 -0.95,-2.25 -1.8,-3.2 -0.15,0.8 -0.15,1.75 0.1,2.9 z"
           inkscape:connector-curvature="0"
           style="fill:#cd2520" />
        <path
           id="path79"
           d="m -2.15,3.2 c 0.1,0.25 0.2,0.5 0.25,0.7 0,-1 0,-1.95 0,-2.9 -0.05,0.7 -0.1,1.45 -0.25,2.2 z m -11.1,15.2 c 0.25,-0.05 0.45,-0.1 0.7,-0.1 -0.25,-0.05 -0.55,-0.15 -0.8,-0.2 0.05,0.05 0.05,0.05 0.05,0.1 0,0.05 0,0.15 0.05,0.2 z"
           inkscape:connector-curvature="0"
           style="fill:#b11b18" />
      </g>
      <animate
         attributeName="display"
         begin="0s"
         repeatCount="indefinite"
         dur="0.75s"
         keyTimes="0;0.278;0.389;1"
         values="none;inline;none;none"
         id="animate99" />
    </g>
    <g
       id="backCapeD006_1_1148">
      <g
         id="element2">
        <path
           id="path40"
           d="m 6.1,-23.8 c -1.2,-0.7 -2.65,-2.55 -5.25,-2.6 l -0.4,-0.05 c 1.5,0.55 3.15,1.45 3.55,2.15 0.6,1.15 1.85,2.95 1.9,2.2 0,-0.75 1.6,5.75 2.2,7.7 0.6,1.9 1.4,9.4 2.3,11.7 0.85,2.3 2.2,10.15 2.15,11.5 -0.1,1.4 -0.2,1.25 -1.35,-0.65 C 10.15,6.25 8.3,-0.3 7.65,-4.25 6.9,-8.15 3.55,-15.8 3.55,-15.8 l 1.8,4.3 -1.8,-4.3 0.05,0.375 0.05,0.325 -0.05,-0.325 0,0.025 c 0.1,0.6 0.2,1.5 0.25,3.1 C 4,-9.45 3.8,-8.2 3.7,-3.8 3.6,0.55 5.85,5.6 6,7.85 c 0.05,1.2 0.15,2.8 0.25,4.8 0.05,1.95 -0.45,2.45 -1.6,1.45 -1.15,-1 -2.4,-0.95 -3.8,0.1 l -1,0.6 C -0.9,15.85 -1.8,16.5 -2.8,16.65 -3.8,16.8 -4.75,15.95 -5.6,14.2 -6.55,12.4 -6.95,10.7 -6.9,9.05 -6.85,7.4 -7,5.85 -7.35,4.35 L -7.9,2.5 l -0.4,3 c -0.2,2.1 -1.05,5.6 -1.6,6.8 -0.55,1.25 -1.25,4.3 -3.5,4.95 l -1.75,0.7 c 0.85,-0.15 1.7,-0.15 2.15,0 l 2.2,0.65 c 1.05,0.5 2.65,1 4.55,0.5 1.2,-0.25 2.35,-0.45 3.5,-0.6 1.1,-0.15 2.15,-0.5 3.2,-0.95 1,-0.5 1.9,-0.75 2.75,-0.8 0.8,-0.05 2,-0.1 3.55,-0.1 1.55,0 2.65,0.1 3.35,0.3 0.7,0.15 1.5,0.55 2.35,1.1 0.85,0.55 1.55,1.1 2.05,1.55 0.45,0.45 0.8,0.65 1.05,0.7 0.25,0.05 0.6,-0.35 1,-1.2 0.4,-0.85 0.8,-1.7 1.15,-2.45 0.35,-0.8 0.65,-1.4 0.85,-1.85 0.2,-0.45 0.3,-0.7 0.35,-0.7 L 18.875,14.075 19.1,13.2 c 0.55,-2.15 0.65,-3.9 0.25,-5.3 q -0.6,-2.25 -2.6,-5.5 -2.5,-3.75 -3.7,-5.7 C 10.65,-7.2 9.7,-13.5 9,-16.9 8.3,-20.3 7.8,-22.85 6.1,-23.8 z m 7.25,26.5 c 0.55,1.65 2.6,3.25 2.6,6.15 -0.05,2.85 -0.7,3.75 -0.7,3.75 0,0 -0.55,-1.7 -1.3,-4.5 -0.75,-2.8 -1.2,-7.05 -0.6,-5.4 z m -5.6,0.1 c 1.9,2.5 3.9,8.7 4.55,10.15 0.7,1.4 0.35,3.1 0.35,3.1 l -1,-1.55 C 10.55,12.95 9.15,7.6 8.7,5.85 8.3,4.05 7,1.85 7.75,2.8 z m -15.8,7.7 c 0.75,-2.45 0.75,4.8 0.7,5.8 -0.05,1 -0.65,0.7 -1.55,0.45 -0.8,-0.3 -0.2,-1.05 0.3,-2.75 0.45,-1.75 0.25,-2.4 0.55,-3.5 z"
           inkscape:connector-curvature="0"
           style="fill:#b11b18" />
        <path
           id="path41"
           d="m 13.35,2.7 c -0.6,-1.65 -0.15,2.6 0.6,5.4 0.75,2.8 1.3,4.5 1.3,4.5 0,0 0.65,-0.9 0.7,-3.75 0,-2.9 -2.05,-4.5 -2.6,-6.15 z"
           inkscape:connector-curvature="0"
           style="fill:#9c1814" />
        <path
           id="path44"
           d="M 7.75,2.8 C 7,1.85 8.3,4.05 8.7,5.85 c 0.45,1.75 1.85,7.1 2.95,8.65 l 1,1.55 c 0,0 0.35,-1.7 -0.35,-3.1 C 11.65,11.5 9.65,5.3 7.75,2.8 z"
           inkscape:connector-curvature="0"
           style="fill:#9c1814" />
        <path
           id="path47"
           d="m -8.05,10.5 c -0.3,1.1 -0.1,1.75 -0.55,3.5 -0.5,1.7 -1.1,2.45 -0.3,2.75 0.9,0.25 1.5,0.55 1.55,-0.45 0.05,-1 0.05,-8.25 -0.7,-5.8 z"
           inkscape:connector-curvature="0"
           style="fill:#9c1814" />
        <path
           id="path50"
           d="m 0.45,-26.45 0.4,0.05 c -0.6,-0.25 -1.25,-0.1 -2.2,0.35 l -0.35,0.15 c -0.65,0.05 -4.25,0.6 -6.5,4.25 -0.35,0.65 -1,3.4 -1.95,8.3 -0.95,4.9 -2.25,9.05 -3.8,12.5 -1.6,3.4 -2.9,6.9 -3.9,10.5 -1.05,3.6 -1.95,6.25 -2.75,7.95 -0.85,1.65 -1.65,2.65 -2.45,3 l 5,-1.65 c 2.05,-0.9 3.7,-1.25 5.05,-1 -0.45,-0.15 -1.3,-0.15 -2.15,0 l 1.75,-0.7 c 2.25,-0.65 2.95,-3.7 3.5,-4.95 0.55,-1.2 1.4,-4.7 1.6,-6.8 l 0.4,-3 0.55,1.85 c 0.35,1.5 0.5,3.05 0.45,4.7 -0.05,1.65 0.35,3.35 1.3,5.15 0.85,1.75 1.8,2.6 2.8,2.45 1,-0.15 1.9,-0.8 2.65,-1.85 l 1,-0.6 c 1.4,-1.05 2.65,-1.1 3.8,-0.1 1.15,1 1.65,0.5 1.6,-1.45 C 6.15,10.65 6.05,9.05 6,7.85 5.85,5.6 3.6,0.55 3.7,-3.8 3.8,-8.2 4,-9.45 3.85,-12.3 3.8,-13.9 3.7,-14.8 3.6,-15.4 l 0.05,0.3 -0.05,-0.325 0,0.025 c 0.15,1.95 -0.75,2.55 -1.1,3.65 -0.45,1.2 -0.65,-0.05 -0.8,-1.8 -0.2,-1.75 -0.15,-1.65 0.3,-2.8 0.55,-1.75 -0.65,-5.45 -0.45,-6.05 0.1,-0.65 0.55,0.65 1.15,1.9 0.5,1.3 0.45,2.45 0.85,4.7 l -0.35,-2.7 0.35,2.7 1.8,4.3 -1.8,-4.3 c 0,0 3.35,7.65 4.1,11.55 0.65,3.95 2.5,10.5 3.55,12.4 1.15,1.9 1.25,2.05 1.35,0.65 C 12.6,7.45 11.25,-0.4 10.4,-2.7 9.5,-5 8.7,-12.5 8.1,-14.4 7.5,-16.35 5.9,-22.85 5.9,-22.1 5.85,-21.35 4.6,-23.15 4,-24.3 3.6,-25 1.95,-25.9 0.45,-26.45 z m 1.55,1.3 c -1.55,-0.7 -3.2,-1.15 -3.3,-0.4 -0.2,0.75 4,0.7 3.3,0.4 z m -6.8,3.7 c -0.3,1.05 -0.05,1.1 -0.1,2.75 -0.1,1.6 -0.3,2.25 -0.7,5 -0.4,2.9 -0.55,-0.35 -0.55,-1.05 0.05,-0.75 -0.75,0.2 -0.8,0.9 0,0.75 -0.6,2.8 -1.05,3.05 -0.35,0.25 -0.15,-1.6 0,-4.95 0.2,-3.35 0.6,-4.5 1.05,-5.45 1.6,-3.45 4.6,-3.55 4.6,-3.55 l -0.95,0.6 c -0.85,0.55 -1.15,1.55 -1.5,2.7 z"
           inkscape:connector-curvature="0"
           style="fill:#c21d1a" />
        <path
           id="path51"
           d="m 2,-25.15 c 0.7,0.3 -3.5,0.35 -3.3,-0.4 0.1,-0.75 1.75,-0.3 3.3,0.4 z"
           inkscape:connector-curvature="0"
           style="fill:#9c1814" />
        <path
           id="path54"
           d="m -4.8,-21.45 c 0.35,-1.15 0.65,-2.15 1.5,-2.7 l 0.95,-0.6 c 0,0 -3,0.1 -4.6,3.55 -0.45,0.95 -0.85,2.1 -1.05,5.45 -0.15,3.35 -0.35,5.2 0,4.95 0.45,-0.25 1.05,-2.3 1.05,-3.05 0.05,-0.7 0.85,-1.65 0.8,-0.9 0,0.7 0.15,3.95 0.55,1.05 0.4,-2.75 0.6,-3.4 0.7,-5 0.05,-1.65 -0.2,-1.7 0.1,-2.75 z m 7.5,0.95 c -0.6,-1.25 -1.05,-2.55 -1.15,-1.9 -0.2,0.6 1,4.3 0.45,6.05 -0.45,1.15 -0.5,1.05 -0.3,2.8 0.15,1.75 0.35,3 0.8,1.8 0.35,-1.1 1.25,-1.7 1.1,-3.65 l 0,-0.025 -0.05,-0.375 -0.35,-2.7 0.35,2.7 C 3.15,-18.05 3.2,-19.2 2.7,-20.5 z"
           inkscape:connector-curvature="0"
           style="fill:#cd2520" />
      </g>
      <animate
         attributeName="display"
         begin="0s"
         repeatCount="indefinite"
         dur="0.75s"
         keyTimes="0;0.167;0.278;1"
         values="none;inline;none;none"
         id="animate110" />
    </g>
    <g
       id="backCapeD006_1_1146">
      <g
         id="element1">
        <path
           id="path20"
           d="M 4.95,-25.1 Q 4.35,-25.2 3.8,-25.45 C 3.2,-25.7 2.6,-26 2.05,-26.3 1.5,-26.55 0.95,-26.65 0.3,-26.6 l -0.1,0 c -0.05,0 -0.05,0 -0.1,0.05 -0.2,0 -0.4,0 -0.55,0.05 -0.2,0.05 -0.4,0.1 -0.55,0.15 0.05,0.1 0.2,0.2 0.45,0.25 0.05,0 0.1,0 0.15,0.05 0.45,0.15 0.9,0.3 1.3,0.45 3.2,1.35 5.25,4.2 6.1,8.65 0.95,5 2.05,10.1 3.3,15.3 C 11.55,3.5 11.45,7.8 10,11.15 9.3,10 8.5,6.7 7.65,1.3 6.75,-4.15 5.55,-9.3 4.05,-14.2 4,-13.85 4,-13.45 4,-13.1 c -0.15,-0.7 -0.25,-1.4 -0.4,-2.1 -0.05,1.25 -0.05,2.65 0.05,4.15 0.3,4.95 0.4,9.9 0.35,14.9 -0.05,3.05 -0.05,6.1 0,9.05 0,1.5 -0.7,2.5 -2.15,3 -1.45,0.5 -2.9,0.4 -4.25,-0.3 -0.4,-0.2 -0.75,-0.15 -1.1,0.15 -0.05,0.05 -0.1,0.1 -0.15,0.15 -0.25,0 -0.55,0 -0.8,0.05 -0.1,0 -0.2,0 -0.3,0.05 -0.45,0.2 -0.85,0.45 -1.25,0.7 -0.6,0.35 -1.3,0.6 -2.05,0.65 -0.05,0 -0.05,0 -0.05,0.05 -0.25,-0.15 -0.45,-0.3 -0.65,-0.45 -0.65,-0.9 -1.2,-1.85 -1.65,-2.8 -0.85,-1.75 -0.95,-3.6 -0.4,-5.55 0.5,-1.75 0.7,-3.45 0.65,-5.2 0.15,-0.5 0.25,-1 0.3,-1.55 -0.3,0.55 -0.55,1.2 -0.8,1.95 -0.85,2.5 -1.9,4.9 -3.2,7.25 -2.6,4.75 -6.35,6.8 -11.3,6.25 0.1,0.05 0.2,0.15 0.3,0.2 l -0.025,-0.025 0.025,0 0,0.025 c 0.1,-0.05 0.15,-0.05 0.2,-0.05 0.05,0 0.15,0 0.2,0 0.85,0 2,0.2 3.45,0.55 1.3,0.3 2.85,0.75 4.6,1.35 3.8,1.3 7.75,1.25 11.9,-0.1 0.15,-0.05 0.3,-0.1 0.45,-0.15 l 0.15,-0.05 c 4.25,-1.45 7.75,-2 10.55,-1.65 2.15,0.25 4.05,1.15 5.7,2.7 0.2,0.15 0.4,0.35 0.6,0.6 0.35,0.3 0.65,0.65 0.95,1.05 -0.05,0.15 -0.15,0.3 -0.2,0.45 0.6,-1.5 1.3,-3.7 2.05,-6.65 C 16.6,12.35 16.45,8.8 15.4,4.9 14.35,0.95 13,-2.8 11.4,-6.3 10.5,-9.25 9.95,-11.6 9.8,-13.25 9.6,-14.9 9.25,-16.95 8.75,-19.4 8.2,-21.85 6.95,-23.75 4.95,-25.1 z M 12.9,10 c -0.1,1.25 -0.3,2.55 -0.55,3.85 -0.2,0.9 -0.75,1.2 -1.65,0.95 -0.1,-1.15 0,-2.3 0.3,-3.35 C 11.3,10.3 11.6,9.1 11.85,7.95 12,7.3 12.2,6.75 12.5,6.3 12.9,7.35 13.05,8.6 12.9,10 z M 8.05,9.05 c 0.2,1.35 0.4,2.75 0.65,4.15 0.15,0.85 0.1,1.6 -0.15,2.35 C 8.15,15.7 7.75,15.65 7.3,15.4 7.05,15.25 6.85,15.1 6.65,14.85 6.55,13.6 6.6,12.3 6.75,11.05 6.9,9.8 6.9,8.55 6.7,7.3 6.55,6.45 6.55,5.65 6.75,5 7.4,6.25 7.8,7.6 8.05,9.05 z M -12,11.5 c 0.05,0 0.1,-0.1 0.1,-0.3 0,-0.2 0,-0.4 0.05,-0.6 0.05,-0.15 0.1,-0.3 0.2,-0.35 0.05,-0.05 0.15,-0.05 0.2,-0.05 0.15,1.15 0.1,2.3 -0.25,3.5 -0.35,1.15 -0.55,2.3 -0.7,3.45 -0.05,0.8 -0.45,1.3 -1.15,1.5 -0.45,-0.9 -0.5,-1.9 -0.2,-2.95 0.3,-1.15 0.65,-2.25 1.05,-3.3 0.25,-0.65 0.5,-0.95 0.7,-0.9 z"
           inkscape:connector-curvature="0"
           style="fill:#b11b18" />
        <path
           id="path21"
           d="M 12.9,10 C 13.05,8.6 12.9,7.35 12.5,6.3 12.2,6.75 12,7.3 11.85,7.95 11.6,9.1 11.3,10.3 11,11.45 c -0.3,1.05 -0.4,2.2 -0.3,3.35 0.9,0.25 1.45,-0.05 1.65,-0.95 0.25,-1.3 0.45,-2.6 0.55,-3.85 z"
           inkscape:connector-curvature="0"
           style="fill:#9c1814" />
        <path
           id="path24"
           d="M 8.05,9.05 C 7.8,7.6 7.4,6.25 6.75,5 6.55,5.65 6.55,6.45 6.7,7.3 c 0.2,1.25 0.2,2.5 0.05,3.75 -0.15,1.25 -0.2,2.55 -0.1,3.8 0.2,0.25 0.4,0.4 0.65,0.55 0.45,0.25 0.85,0.3 1.25,0.15 C 8.8,14.8 8.85,14.05 8.7,13.2 8.45,11.8 8.25,10.4 8.05,9.05 z"
           inkscape:connector-curvature="0"
           style="fill:#9c1814" />
        <path
           id="path27"
           d="m -12,11.5 c -0.2,-0.05 -0.45,0.25 -0.7,0.9 -0.4,1.05 -0.75,2.15 -1.05,3.3 -0.3,1.05 -0.25,2.05 0.2,2.95 0.7,-0.2 1.1,-0.7 1.15,-1.5 0.15,-1.15 0.35,-2.3 0.7,-3.45 0.35,-1.2 0.4,-2.35 0.25,-3.5 -0.05,0 -0.15,0 -0.2,0.05 -0.1,0.05 -0.15,0.2 -0.2,0.35 -0.05,0.2 -0.05,0.4 -0.05,0.6 0,0.2 -0.05,0.3 -0.1,0.3 z M 1.3,-24.9 c 0.05,-0.3 -0.1,-0.55 -0.4,-0.7 -0.4,-0.15 -0.85,-0.3 -1.3,-0.45 -0.05,-0.05 -0.1,-0.05 -0.15,-0.05 -0.25,0 -0.55,0.05 -0.85,0.15 -0.05,0.05 -0.1,0.1 -0.2,0.15 -0.1,0.05 -0.2,0.1 -0.25,0.15 -0.15,0.1 -0.35,0.2 -0.55,0.25 -0.05,0.05 -0.05,0.05 -0.05,0.1 -0.05,0.05 -0.05,0.1 -0.05,0.15 0.25,0.25 0.6,0.35 1.15,0.3 0.65,-0.1 1.2,0 1.75,0.3 0.45,0.2 0.75,0.1 0.9,-0.35 z"
           inkscape:connector-curvature="0"
           style="fill:#9c1814" />
        <path
           id="path30"
           d="m 0.9,-25.6 c 0.3,0.15 0.45,0.4 0.4,0.7 -0.15,0.45 -0.45,0.55 -0.9,0.35 -0.55,-0.3 -1.1,-0.4 -1.75,-0.3 -0.55,0.05 -0.9,-0.05 -1.15,-0.3 0,-0.05 0,-0.1 0.05,-0.15 0,-0.05 0,-0.05 0.05,-0.1 0.2,-0.05 0.4,-0.15 0.55,-0.25 0.05,-0.05 0.15,-0.1 0.25,-0.15 0.1,-0.05 0.15,-0.1 0.2,-0.15 0.3,-0.1 0.6,-0.15 0.85,-0.15 -0.25,-0.05 -0.4,-0.15 -0.45,-0.25 0.15,-0.05 0.35,-0.1 0.55,-0.15 -1.05,0.2 -2.1,0.5 -3.15,0.9 -1.65,0.7 -3.05,1.7 -4.2,3 -0.65,0.7 -0.9,1.45 -0.85,2.3 -0.8,1.45 -1.65,4.1 -2.5,7.95 -0.9,3.8 -2.05,6.95 -3.5,9.4 -1.45,2.45 -2.6,4.45 -3.5,6 -0.95,1.55 -2.2,3.95 -3.8,7.2 -1.65,3.25 -2.95,5.3 -3.95,6.1 -1,0.75 -1.5,1.2 -1.45,1.3 0.45,-0.05 0.9,-0.1 1.3,-0.25 0.05,0 0.1,0 0.15,0.05 -0.05,0.05 -0.1,0.1 -0.15,0.15 0.55,-0.05 0.95,-0.1 1.2,-0.1 -0.1,-0.05 -0.2,-0.15 -0.3,-0.2 4.95,0.55 8.7,-1.5 11.3,-6.25 1.3,-2.35 2.35,-4.75 3.2,-7.25 0.25,-0.75 0.5,-1.4 0.8,-1.95 -0.05,0.55 -0.15,1.05 -0.3,1.55 0.05,1.75 -0.15,3.45 -0.65,5.2 -0.55,1.95 -0.45,3.8 0.4,5.55 0.45,0.95 1,1.9 1.65,2.8 0.2,0.15 0.4,0.3 0.65,0.45 0,-0.05 0,-0.05 0.05,-0.05 0.75,-0.05 1.45,-0.3 2.05,-0.65 0.4,-0.25 0.8,-0.5 1.25,-0.7 0.1,-0.05 0.2,-0.05 0.3,-0.05 0.25,-0.05 0.55,-0.05 0.8,-0.05 0.05,-0.05 0.1,-0.1 0.15,-0.15 0.35,-0.3 0.7,-0.35 1.1,-0.15 1.35,0.7 2.8,0.8 4.25,0.3 C 3.3,15.4 4,14.4 4,12.9 3.95,9.95 3.95,6.9 4,3.85 c 0.05,-5 -0.05,-9.95 -0.35,-14.9 -0.1,-1.5 -0.1,-2.9 -0.05,-4.15 0.15,0.7 0.25,1.4 0.4,2.1 0,-0.35 0,-0.75 0.05,-1.1 1.5,4.9 2.7,10.05 3.6,15.5 C 8.5,6.7 9.3,10 10,11.15 11.45,7.8 11.55,3.5 10.3,-1.65 9.05,-6.85 7.95,-11.95 7,-16.95 6.15,-21.4 4.1,-24.25 0.9,-25.6 z m 0.4,13.05 c -0.25,0.3 -0.45,0.6 -0.6,0.9 -0.05,0.15 -0.2,0.2 -0.4,0.15 -0.45,-0.95 -0.35,-2.3 0.2,-4.15 0.5,-1.8 0.7,-4.1 0.6,-6.9 0.65,2.05 1.05,3.7 1.2,4.85 0.15,1.35 0.35,2.65 0.7,3.95 0.2,0.85 0.1,1.55 -0.25,2.15 -0.2,-0.05 -0.35,-0.15 -0.4,-0.4 -0.05,-0.25 -0.15,-0.45 -0.3,-0.65 -0.1,-0.15 -0.2,-0.3 -0.25,-0.45 -0.15,0.15 -0.35,0.35 -0.5,0.55 z M -5,-20.8 c -0.55,1.45 -0.9,2.9 -1.15,4.4 -0.15,1.2 -0.3,2.4 -0.35,3.6 -0.45,0.05 -0.65,-0.15 -0.6,-0.6 0,-0.3 -0.05,-0.6 -0.15,-0.85 -0.1,-0.25 -0.2,-0.55 -0.3,-0.9 -0.15,0.35 -0.3,0.65 -0.5,0.95 -0.3,0.4 -0.55,0.85 -0.75,1.35 -0.2,0.45 -0.5,0.75 -0.85,0.95 0.15,-1.1 0.35,-2.25 0.6,-3.45 0.25,-1.35 0.65,-2.7 1.15,-3.95 0.35,-0.95 0.8,-1.8 1.45,-2.6 0.05,-0.05 0.15,-0.05 0.2,-0.1 0.05,-0.05 0.15,-0.05 0.25,-0.05 0.05,-0.45 0.3,-0.7 0.75,-0.85 0.35,-0.1 0.7,-0.3 0.95,-0.55 0.15,-0.15 0.3,-0.3 0.45,-0.35 -0.3,0.75 -0.7,1.75 -1.15,3 z"
           inkscape:connector-curvature="0"
           style="fill:#c21d1a" />
        <path
           id="path31"
           d="m 0.575,-20.575 -0.025,0.025 0,0.1 0.025,-0.125"
           inkscape:connector-curvature="0"
           style="fill:#cd2520" />
        <path
           id="path32"
           d="m 1.3,-12.55 c 0.15,-0.2 0.35,-0.4 0.5,-0.55 0.05,0.15 0.15,0.3 0.25,0.45 0.15,0.2 0.25,0.4 0.3,0.65 0.05,0.25 0.2,0.35 0.4,0.4 0.35,-0.6 0.45,-1.3 0.25,-2.15 -0.35,-1.3 -0.55,-2.6 -0.7,-3.95 -0.15,-1.15 -0.55,-2.8 -1.2,-4.85 0.1,2.8 -0.1,5.1 -0.6,6.9 -0.55,1.85 -0.65,3.2 -0.2,4.15 0.2,0.05 0.35,0 0.4,-0.15 0.15,-0.3 0.35,-0.6 0.6,-0.9 z"
           inkscape:connector-curvature="0"
           style="fill:#cd2520" />
        <path
           id="path35"
           d="m -5,-20.8 c 0.45,-1.25 0.85,-2.25 1.15,-3 -0.15,0.05 -0.3,0.2 -0.45,0.35 -0.25,0.25 -0.6,0.45 -0.95,0.55 -0.45,0.15 -0.7,0.4 -0.75,0.85 -0.1,0 -0.2,0 -0.25,0.05 -0.05,0.05 -0.15,0.05 -0.2,0.1 -0.65,0.8 -1.1,1.65 -1.45,2.6 -0.5,1.25 -0.9,2.6 -1.15,3.95 -0.25,1.2 -0.45,2.35 -0.6,3.45 0.35,-0.2 0.65,-0.5 0.85,-0.95 0.2,-0.5 0.45,-0.95 0.75,-1.35 0.2,-0.3 0.35,-0.6 0.5,-0.95 0.1,0.35 0.2,0.65 0.3,0.9 0.1,0.25 0.15,0.55 0.15,0.85 -0.05,0.45 0.15,0.65 0.6,0.6 0.05,-1.2 0.2,-2.4 0.35,-3.6 0.25,-1.5 0.6,-2.95 1.15,-4.4 z"
           inkscape:connector-curvature="0"
           style="fill:#cd2520" />
      </g>
      <animate
         attributeName="display"
         begin="0s"
         repeatCount="indefinite"
         dur="0.75s"
         keyTimes="0;0.056;0.167;1"
         values="none;inline;none;none"
         id="animate122" />
    </g>
    <g
       id="backCapeD006_1_1145">
      <g
         id="element">
        <path
           id="path"
           d="M 0.35,-25.675 Q 0.23,-25.72 0.1,-25.75 c -0.45,-0.1 -0.9,-0.1 -1.4,0 l 0,0.05 c -0.1,0.05 -0.2,0.1 -0.25,0.15 -0.05,0.05 -0.1,0.15 -0.15,0.2 -0.05,0.1 -0.1,0.2 -0.1,0.3 -0.05,0.05 -0.05,0.05 -0.05,0.1 0.05,0.2 0.2,0.3 0.35,0.3 0.45,0 0.85,0 1.3,0.05 0.05,0 0.15,0 0.25,0.05 0.05,0.05 0.05,0.05 0.1,0.1 0.05,0.05 0.05,0.05 0.1,0.1 0.05,0.05 0.1,0.15 0.2,0.2 0.05,0.05 0.15,0.1 0.2,0.1 0.05,0 0.15,0 0.2,0 0.1,-0.05 0.2,-0.05 0.3,-0.05 0.15,-0.05 0.25,-0.05 0.35,-0.1 0.05,-0.05 0.05,-0.05 0.1,-0.1 0.05,-0.05 0.05,-0.1 0.1,-0.15 C 1.55,-24.7 1.4,-24.9 1.25,-25.1 1.15,-25.2 1.05,-25.3 0.9,-25.4 0.85,-25.45 0.8,-25.45 0.8,-25.45 0.65,-25.5 0.5,-25.6 0.4,-25.65 l -0.025,-0.025 -0.025,0 z"
           inkscape:connector-curvature="0"
           style="fill:#9c1814" />
        <path
           id="path1"
           d="m 0.1,-25.75 q 0.13,0.03 0.25,0.075 l 0.025,0 0.025,0.025 c -0.45,-0.25 -0.9,-0.45 -1.3,-0.6 -3.45,0.15 -5.95,1.9 -7.4,5.15 -1.65,3.75 -3,7.3 -4.15,10.65 C -13.6,-7.1 -16.5,-2.8 -21.2,2.5 L -20.65,2 c -0.25,0.25 -0.5,0.55 -0.75,0.8 -0.9,0.95 -1.65,2 -2.25,3.15 -1.65,3.05 -3.3,6.15 -5,9.2 -0.15,0.3 -0.3,0.6 -0.45,0.95 -0.15,0 -0.25,0 -0.35,0.05 -0.05,0.05 -0.05,0.1 -0.1,0.15 -0.05,0.05 -0.05,0.05 -0.05,0.1 0,0.05 0,0.05 -0.05,0.1 0,0.05 0,0.1 -0.05,0.15 -0.05,0.05 -0.05,0.1 -0.1,0.15 -0.05,0.05 -0.05,0.05 -0.05,0.1 0,0.05 0,0.05 0,0.1 1.05,-0.55 2.2,-0.95 3.55,-1.2 4.6,-0.95 7.8,-3.55 9.65,-7.7 0.5,-1.1 1.05,-2.2 1.7,-3.25 0.75,-1.2 1.6,-2.3 2.5,-3.3 0,0.05 0,0.15 -0.05,0.25 0.05,-0.15 0.1,-0.25 0.15,-0.35 0.15,-0.35 0.3,-0.65 0.55,-0.8 -0.1,1.6 -0.5,3.25 -1.15,4.9 -1.3,3.2 -1.55,6.4 -0.7,9.55 0.1,0.45 0.4,0.75 0.95,0.85 2.25,0.35 4.15,1.15 5.8,2.45 4.65,-0.95 7.3,-3.7 7.85,-8.25 C 1.6,5.1 2.05,0 2.2,-5.15 c 0.15,-3.6 0.5,-7 1.05,-10.2 0.05,0.15 0.05,0.35 0.05,0.5 0.05,-0.15 0.15,-0.2 0.3,-0.2 0.55,3.7 1.05,7.45 1.4,11.3 C 5.35,0 5.85,3.7 6.5,7.35 6.7,8.4 6.9,9.4 7.15,10.4 7.2,10.75 7.3,11.15 7.35,11.5 7.4,11.3 7.45,11.1 7.5,10.9 8,9.2 8.3,7.45 8.45,5.65 8.85,-0.4 8.7,-6.5 8,-12.55 7.65,-15.5 6.9,-18.35 5.8,-21 c -0.6,-1.4 -1.55,-2.5 -2.9,-3.3 -0.75,-0.45 -1.45,-0.8 -2.1,-1.15 0,0 0.05,0 0.1,0.05 0.15,0.1 0.25,0.2 0.35,0.3 0.15,0.2 0.3,0.4 0.45,0.65 -0.05,0.05 -0.05,0.1 -0.1,0.15 -0.05,0.05 -0.05,0.05 -0.1,0.1 -0.1,0.05 -0.2,0.05 -0.35,0.1 -0.1,0 -0.2,0 -0.3,0.05 -0.05,0 -0.15,0 -0.2,0 -0.05,0 -0.15,-0.05 -0.2,-0.1 -0.1,-0.05 -0.15,-0.15 -0.2,-0.2 -0.05,-0.05 -0.05,-0.05 -0.1,-0.1 -0.05,-0.05 -0.05,-0.05 -0.1,-0.1 -0.1,-0.05 -0.2,-0.05 -0.25,-0.05 -0.45,-0.05 -0.85,-0.05 -1.3,-0.05 -0.15,0 -0.3,-0.1 -0.35,-0.3 0,-0.05 0,-0.05 0.05,-0.1 0,-0.1 0.05,-0.2 0.1,-0.3 0.05,-0.05 0.1,-0.15 0.15,-0.2 0.05,-0.05 0.15,-0.1 0.25,-0.15 l 0,-0.05 c 0.5,-0.1 0.95,-0.1 1.4,0 z m 1.1,4.8 c 0.05,-0.4 0.15,-0.75 0.35,-1 0.45,1.15 0.65,2.4 0.55,3.75 0,0.1 0,0.2 0,0.3 -0.05,0.7 -0.1,1.4 -0.1,2.05 0,0.55 0.05,1.05 0.1,1.55 0.1,0.75 0.05,1.5 -0.15,2.25 -0.1,-0.05 -0.2,-0.05 -0.35,-0.1 -0.15,-0.05 -0.25,-0.2 -0.3,-0.35 0,-0.1 0,-0.2 0,-0.25 -0.25,-0.1 -0.45,0.05 -0.7,0.4 -0.2,0.3 -0.4,0.6 -0.6,0.85 -0.05,0.05 -0.15,0.1 -0.2,0.15 -0.35,-1.25 -0.3,-2.6 0.15,-4.05 0.4,-1.35 0.7,-2.7 0.85,-4.15 0.05,-0.65 0.15,-1.3 0.25,-1.95 0.05,0.15 0.1,0.35 0.15,0.55 z m -4.25,-2.8 c -0.15,0.55 -0.45,1.1 -0.9,1.6 -0.5,0.55 -0.9,1.2 -1.2,1.9 -0.25,0.7 -0.4,1.4 -0.4,2.1 -0.15,0.25 -0.3,0.5 -0.35,0.75 -0.05,0.35 -0.15,0.75 -0.2,1.15 -0.1,0.45 -0.15,0.95 -0.1,1.4 0.05,0.25 -0.05,0.4 -0.3,0.5 -0.05,-0.05 -0.1,-0.15 -0.15,-0.25 -0.1,-0.25 -0.15,-0.45 -0.15,-0.7 0,-0.25 0,-0.55 0,-0.8 0,-0.2 0.05,-0.4 0.1,-0.6 -0.25,0.15 -0.5,0.45 -0.8,0.9 -0.35,0.45 -0.65,0.95 -0.95,1.45 -0.25,0.5 -0.6,0.7 -1.05,0.65 -0.05,-0.35 -0.05,-0.7 0.1,-1 0.15,-0.35 0.3,-0.75 0.45,-1.15 0.15,-0.45 0.35,-0.85 0.6,-1.3 0.05,-0.1 0.1,-0.2 0.15,-0.3 -0.05,-0.7 0.1,-1.45 0.4,-2.2 0.45,-1.05 1.05,-2 1.75,-2.85 0.55,-0.65 1.25,-1.15 2.05,-1.4 0.25,0 0.45,0 0.65,0.05 0.1,0 0.2,0.05 0.3,0.1 z M -8.5,19.6 c 0.9,0.15 1.8,0.2 2.75,0.25 -0.5,-0.15 -1,-0.3 -1.5,-0.45 -0.45,0.05 -0.85,0.15 -1.25,0.2 z"
           inkscape:connector-curvature="0"
           style="fill:#c21d1a" />
        <path
           id="path2"
           d="m 1.2,-20.95 c -0.05,-0.2 -0.1,-0.4 -0.15,-0.55 -0.1,0.65 -0.2,1.3 -0.25,1.95 -0.15,1.45 -0.45,2.8 -0.85,4.15 -0.45,1.45 -0.5,2.8 -0.15,4.05 0.05,-0.05 0.15,-0.1 0.2,-0.15 0.2,-0.25 0.4,-0.55 0.6,-0.85 0.25,-0.35 0.45,-0.5 0.7,-0.4 0,0.05 0,0.15 0,0.25 0.05,0.15 0.15,0.3 0.3,0.35 0.15,0.05 0.25,0.05 0.35,0.1 0.2,-0.75 0.25,-1.5 0.15,-2.25 -0.05,-0.5 -0.1,-1 -0.1,-1.55 0,-0.65 0.05,-1.35 0.1,-2.05 0,-0.1 0,-0.2 0,-0.3 0.1,-1.35 -0.1,-2.6 -0.55,-3.75 -0.2,0.25 -0.3,0.6 -0.35,1 z"
           inkscape:connector-curvature="0"
           style="fill:#cd2520" />
        <path
           id="path5"
           d="m -3.05,-23.75 c -0.1,-0.05 -0.2,-0.1 -0.3,-0.1 -0.2,-0.05 -0.4,-0.05 -0.65,-0.05 -0.8,0.25 -1.5,0.75 -2.05,1.4 -0.7,0.85 -1.3,1.8 -1.75,2.85 -0.3,0.75 -0.45,1.5 -0.4,2.2 -0.05,0.1 -0.1,0.2 -0.15,0.3 -0.25,0.45 -0.45,0.85 -0.6,1.3 -0.15,0.4 -0.3,0.8 -0.45,1.15 -0.15,0.3 -0.15,0.65 -0.1,1 0.45,0.05 0.8,-0.15 1.05,-0.65 0.3,-0.5 0.6,-1 0.95,-1.45 0.3,-0.45 0.55,-0.75 0.8,-0.9 -0.05,0.2 -0.1,0.4 -0.1,0.6 0,0.25 0,0.55 0,0.8 0,0.25 0.05,0.45 0.15,0.7 0.05,0.1 0.1,0.2 0.15,0.25 0.25,-0.1 0.35,-0.25 0.3,-0.5 -0.05,-0.45 0,-0.95 0.1,-1.4 0.05,-0.4 0.15,-0.8 0.2,-1.15 0.05,-0.25 0.2,-0.5 0.35,-0.75 0,-0.7 0.15,-1.4 0.4,-2.1 0.3,-0.7 0.7,-1.35 1.2,-1.9 0.45,-0.5 0.75,-1.05 0.9,-1.6 z"
           inkscape:connector-curvature="0"
           style="fill:#cd2520" />
        <path
           id="path8"
           d="m 0.4,-25.65 c 0.1,0.05 0.25,0.15 0.4,0.2 0.65,0.35 1.35,0.7 2.1,1.15 1.35,0.8 2.3,1.9 2.9,3.3 1.1,2.65 1.85,5.5 2.2,8.45 C 8.7,-6.5 8.85,-0.4 8.45,5.65 8.3,7.45 8,9.2 7.5,10.9 7.45,11.1 7.4,11.3 7.35,11.5 7.3,11.15 7.2,10.75 7.15,10.4 6.9,9.4 6.7,8.4 6.5,7.35 5.85,3.7 5.35,0 5,-3.75 4.65,-7.6 4.15,-11.35 3.6,-15.05 c -0.15,0 -0.25,0.05 -0.3,0.2 0,-0.15 0,-0.35 -0.05,-0.5 -0.55,3.2 -0.9,6.6 -1.05,10.2 C 2.05,0 1.6,5.1 0.95,10.15 c -0.55,4.55 -3.2,7.3 -7.85,8.25 -1.65,-1.3 -3.55,-2.1 -5.8,-2.45 -0.55,-0.1 -0.85,-0.4 -0.95,-0.85 -0.85,-3.15 -0.6,-6.35 0.7,-9.55 0.65,-1.65 1.05,-3.3 1.15,-4.9 -0.25,0.15 -0.4,0.45 -0.55,0.8 -0.05,0.1 -0.1,0.2 -0.15,0.35 0.05,-0.1 0.05,-0.2 0.05,-0.25 -0.9,1 -1.75,2.1 -2.5,3.3 -0.65,1.05 -1.2,2.15 -1.7,3.25 -1.85,4.15 -5.05,6.75 -9.65,7.7 -1.35,0.25 -2.5,0.65 -3.55,1.2 0,0.05 0,0.05 0.05,0.1 0,0.05 0,0.05 0.05,0.05 0.05,0 0.1,0 0.15,0 0.05,0 0.15,0 0.25,-0.05 0.05,-0.05 0.1,-0.05 0.15,-0.1 0.05,-0.05 0.1,-0.05 0.15,-0.1 0.05,-0.05 0.05,-0.1 0.1,-0.15 0.05,-0.05 0.05,-0.05 0.1,-0.1 1.6,-0.35 3.2,-0.5 4.75,-0.5 3.65,-0.1 7.3,0.6 10.9,2.1 0.6,0.25 1.2,0.45 1.8,0.65 0.95,0.3 1.9,0.55 2.9,0.7 0.4,-0.05 0.8,-0.15 1.25,-0.2 0.5,0.15 1,0.3 1.5,0.45 0.15,0 0.3,0 0.45,0 1.75,0 3.55,-0.25 5.4,-0.75 C 4.4,17.9 8,18.9 10.85,22.05 10.8,22.4 10.8,22.75 10.75,23.1 13.2,17.65 14.1,11.85 13.45,5.6 12.75,-1.3 11.7,-8.1 10.25,-14.75 9.7,-17.1 9,-19.45 8.1,-21.75 7.75,-22.6 7.15,-23.4 6.4,-24.05 5.55,-24.8 4.6,-25.3 3.55,-25.55 c 0.4,0.25 0.8,0.5 1.2,0.8 -0.25,-0.1 -0.45,-0.2 -0.7,-0.35 -0.3,-0.15 -0.6,-0.3 -0.9,-0.4 -0.15,-0.05 -0.25,-0.05 -0.4,-0.1 -0.7,-0.2 -1.4,-0.4 -2.05,-0.65 -0.55,-0.05 -1.1,-0.05 -1.6,0 0.4,0.15 0.85,0.35 1.3,0.6 z m 10.45,34.5 c -0.05,2.05 -0.25,4.1 -0.5,6.1 C 10.2,16.2 9.75,17.25 9,18 8.4,16.15 8.3,14.15 8.75,12.05 9.1,10.15 9.5,8.2 9.9,6.25 10.15,5.2 10.2,4.2 10.05,3.2 10.15,3.15 10.2,3.1 10.2,3.05 10.25,3 10.25,2.9 10.3,2.8 c 0,-0.05 0,-0.05 0.05,-0.1 0.05,-0.05 0.15,-0.05 0.2,-0.05 0.3,2 0.4,4.05 0.3,6.2 z M 4.75,5.8 c 0.45,1.4 0.8,2.85 1.1,4.4 0.3,1.45 0.6,2.9 0.9,4.4 0.2,0.95 0.05,1.75 -0.45,2.45 C 4.5,16.35 3.9,14.9 4.55,12.7 5,11.15 5,9.5 4.6,7.8 4.45,7 4.5,6.35 4.75,5.8 z M -15.4,9.15 c 0.1,-0.35 0.25,-0.65 0.5,-0.85 0.05,0.75 -0.1,1.75 -0.5,2.95 -0.4,1.2 -0.7,2.15 -0.85,2.9 -0.15,0.75 -0.6,1.2 -1.35,1.35 -0.25,-0.05 -0.35,-0.15 -0.4,-0.3 -0.05,-0.1 -0.1,-0.2 -0.15,-0.25 -0.05,-0.1 -0.15,-0.2 -0.2,-0.25 0.55,-0.9 1.1,-1.8 1.65,-2.75 0.6,-0.9 1.05,-1.85 1.3,-2.8 z"
           inkscape:connector-curvature="0"
           style="fill:#b11b18" />
        <path
           id="path9"
           d="m 10.85,8.85 c 0.1,-2.15 0,-4.2 -0.3,-6.2 -0.05,0 -0.15,0 -0.2,0.05 C 10.3,2.75 10.3,2.75 10.3,2.8 10.25,2.9 10.25,3 10.2,3.05 c 0,0.05 -0.05,0.1 -0.15,0.15 0.15,1 0.1,2 -0.15,3.05 C 9.5,8.2 9.1,10.15 8.75,12.05 8.3,14.15 8.4,16.15 9,18 c 0.75,-0.75 1.2,-1.8 1.35,-3.05 0.25,-2 0.45,-4.05 0.5,-6.1 z"
           inkscape:connector-curvature="0"
           style="fill:#9c1814" />
        <path
           id="path12"
           d="M 4.75,5.8 C 4.5,6.35 4.45,7 4.6,7.8 5,9.5 5,11.15 4.55,12.7 3.9,14.9 4.5,16.35 6.3,17.05 6.8,16.35 6.95,15.55 6.75,14.6 6.45,13.1 6.15,11.65 5.85,10.2 5.55,8.65 5.2,7.2 4.75,5.8 z"
           inkscape:connector-curvature="0"
           style="fill:#9c1814" />
        <path
           id="path15"
           d="m -15.4,9.15 c -0.25,0.95 -0.7,1.9 -1.3,2.8 -0.55,0.95 -1.1,1.85 -1.65,2.75 0.05,0.05 0.15,0.15 0.2,0.25 0.05,0.05 0.1,0.15 0.15,0.25 0.05,0.15 0.15,0.25 0.4,0.3 0.75,-0.15 1.2,-0.6 1.35,-1.35 0.15,-0.75 0.45,-1.7 0.85,-2.9 0.4,-1.2 0.55,-2.2 0.5,-2.95 -0.25,0.2 -0.4,0.5 -0.5,0.85 z"
           inkscape:connector-curvature="0"
           style="fill:#9c1814" />
      </g>
      <animate
         attributeName="display"
         begin="0s"
         repeatCount="indefinite"
         dur="0.75s"
         keyTimes="0;0.056;1"
         values="inline;none;none"
         id="animate134" />
    </g>
  </g>
</svg>
