<?xml version="1.0" encoding="UTF-8" standalone="no"?>
<!-- Generator: flash2svg, http://dissentgraphics.com/tools/flash2svg -->

<svg
   xmlns:dc="http://purl.org/dc/elements/1.1/"
   xmlns:cc="http://creativecommons.org/ns#"
   xmlns:rdf="http://www.w3.org/1999/02/22-rdf-syntax-ns#"
   xmlns:svg="http://www.w3.org/2000/svg"
   xmlns="http://www.w3.org/2000/svg"
   xmlns:sodipodi="http://sodipodi.sourceforge.net/DTD/sodipodi-0.dtd"
   xmlns:inkscape="http://www.inkscape.org/namespaces/inkscape"
   id="AvatarAssets"
   image-rendering="auto"
   version="1.1"
   x="0px"
   y="0px"
   width="45.703751"
   height="57.589092"
   viewBox="0 0 45.703751 57.589092"
   inkscape:version="0.48.4 r9939"
   sodipodi:docname="AvatarAssets_backCoatC006.svg">
  <metadata
     id="metadata3241">
    <rdf:RDF>
      <cc:Work
         rdf:about="">
        <dc:format>image/svg+xml</dc:format>
        <dc:type
           rdf:resource="http://purl.org/dc/dcmitype/StillImage" />
      </cc:Work>
    </rdf:RDF>
  </metadata>
  <sodipodi:namedview
     pagecolor="#ffffff"
     bordercolor="#666666"
     borderopacity="1"
     objecttolerance="10"
     gridtolerance="10"
     guidetolerance="10"
     inkscape:pageopacity="0"
     inkscape:pageshadow="2"
     inkscape:window-width="640"
     inkscape:window-height="480"
     id="namedview3239"
     showgrid="false"
     fit-margin-top="0"
     fit-margin-left="0"
     fit-margin-right="0"
     fit-margin-bottom="0"
     inkscape:zoom="1.9032258"
     inkscape:cx="63.35"
     inkscape:cy="-32.55"
     inkscape:window-x="224"
     inkscape:window-y="31"
     inkscape:window-maximized="0"
     inkscape:current-layer="AvatarAssets" />
  <defs
     id="defs3222" />
  <g
     id="backCoatC7"
     overflow="visible"
     style="overflow:visible"
     transform="translate(31.35,28.139093)">
    <g
       id="backCoatC006_1_1">
      <g
         id="element1">
        <path
           id="path19"
           d="m 4.65,-27 c 0.4,0.05 1.05,0.2 1.55,0.35 l 0,-0.025 0,-0.025 c 0.2,0.05 0.45,0.15 0.4,0.15 -1.1,-1.4 -6.45,-1.9 -9.15,-1.4 q -1.882,0.396 -3.175,1.175 l 0.025,0.025 c 0.35,-0.05 0.4,-0.05 0.35,-0.05 l -0.025,0 0.125,0 C -4.5,-26.95 -1,-28.15 4.65,-27 z M 9.9,29.4 9.925,29.425 9.95,29.45 c 0.2,-0.3 0.35,-0.55 0.5,-0.8 C 9.85,28.05 9.2,27.5 8.35,26.9 8.1,26.75 7.65,26.45 7.15,26.15 c -0.05,0 -0.1,0 -0.2,-0.1 L 6.925,26.025 6.65,25.875 6.65,25.9 C 5.3,25.15 3.4,24.5 1.2,24.25 0.75,24.2 0.15,24.15 -0.45,24.15 c 0,0 0,0 -0.1,0 -0.95,-0.05 -1.9,0.15 -2.85,0.5 -0.5,0.2 -1,0.35 -1.7,0.55 l -0.025,0 -0.025,0.025 0,0.025 c -0.75,0.15 -1.45,0.3 -2.1,0.4 l 0,-0.025 -0.025,0.025 0.025,0 c -0.05,0 -0.1,0 -0.2,0 0,0 0,0 -0.1,0 -0.4,0.05 -0.8,0.1 -1.35,0.1 -2.35,0.1 -4.95,-0.65 -7.6,-2.2 l -0.025,0 -0.025,0 c -0.05,-0.05 -0.15,-0.1 -0.2,-0.15 l -0.025,0 -0.975,-0.575 0,0.025 C -17.9,22.7 -18.1,22.6 -18.3,22.55 l 0,-0.025 0.025,0 0.025,0.025 c -1.8,-1 -3.75,-1.75 -5.8,-2.2 l 0,-0.025 -0.7,-0.15 0,0.025 c -1.25,-0.25 -2.55,-0.45 -3.9,-0.5 -0.25,0 -0.45,0 -0.65,0.05 l -0.025,0 -0.525,0.05 c -0.45,0.1 -0.85,0.15 -1.25,0.2 0,0 0,0 -0.05,0.05 -0.05,0.45 -0.05,0.7 -0.05,0.9 -0.05,0 -0.05,0 -0.1,0 l -0.05,0.1 c 0.05,0 0.1,0 0.15,0 l 0,-0.025 0,0.025 c 3.15,-0.15 5.75,0.2 7.7,1 1.75,0.75 3.5,1.65 5.2,2.6 3.8,2.2 8,2.6 12.55,1.25 C 0.4,24 5.6,25.15 9.9,29.4 z"
           inkscape:connector-curvature="0"
           style="fill:#2a3b6e" />
        <path
           id="path20"
           d="M 6.2,-26.65 C 5.7,-26.8 5.05,-26.95 4.65,-27 c -5.65,-1.15 -9.15,0.05 -9.9,0.2 l 0.05,0 c 1.2,0.15 2.35,0.65 2.35,0.65 0,0 -1.9,0.05 -4,0.55 -2.1,0.5 -4.45,1.6 -4.45,1.6 l 1.45,-0.6 -1.45,0.6 0.6,1.05 -0.6,-1.05 c 0,0 1,1.7 1.7,3.45 0.55,1.35 0.2,4.6 0.15,6.05 -0.45,1.9 -0.85,3.95 -1.3,6.15 -0.6,2.95 -2.25,5.6 -4.8,7.75 0.3,0.4 0.45,0.9 0.5,1.5 0.05,0.55 0.1,1.15 0.25,1.7 0.05,0.15 0.05,0.35 0.05,0.55 0.4,0.55 0.8,1.25 1.25,2.1 0.45,0.8 1.1,1.35 2,1.6 1.9,0.55 3.55,0.5 5,-0.15 0.2,-0.1 0.4,-0.2 0.65,-0.3 1.05,-0.6 1.95,-1.55 2.75,-2.8 1.25,-1.95 2.1,-4.05 2.55,-6.4 0.1,-0.55 0.25,-1 0.45,-1.45 l 0,-0.025 0,0.1 0.45,-5.025 c 0,-0.2 0,-0.5 0,-0.8 0,-1.35 0.2,-2.7 0.55,-3.5 0.4,-2.45 1.15,-5.6 1.15,-5.6 l -0.7,3.1 0.7,-3.1 0.1,1.35 c 0.05,1 0.55,2.4 0.75,4.8 0.15,2.45 0.7,6 1.5,6.7 0.75,0.65 1.9,-0.85 2.25,-3.35 0.35,-2.5 0.95,-6.6 1.65,-9.35 0.15,-0.6 0.45,-1.05 0.8,-1.35 0,-0.05 0.05,-0.15 0.1,-0.25 0.7,-1.75 1.8,-3.2 1.8,-3.2 l -0.05,0 -4.75,-2.5 0,-0.425 m 2.75,9.875 c 0,-0.2 -0.05,-0.5 -0.05,-1.15 l 0,0.65 0.05,0.475 z"
           inkscape:connector-curvature="0"
           style="fill:#8a131b" />
        <path
           id="path21"
           d="m 6.2,-26.675 0,0.425 4.75,2.5 0.05,0 c 0,0 -0.55,-0.95 -1.95,-1.85 -0.4,-0.25 -1.05,-0.5 -2,-0.8 0,0 -0.2,-0.05 -0.45,-0.15 0.05,0 -0.2,-0.1 -0.4,-0.15 l 0,0.025 z m -11.4,-0.125 -0.05,0 -0.125,0 0.025,0 c 0.05,0 0,0 -0.35,0.05 -0.4,0 -1.5,0.15 -2.8,0.65 0.1,-0.05 0,0 -0.1,0.05 -0.1,0.05 -0.3,0.15 -0.5,0.25 0,0 -0.15,0.1 -0.3,0.2 -1.4,0.9 -1.9,1.6 -1.9,1.6 l 0.45,-0.45 -0.45,0.45 1.45,-0.6 -1.45,0.6 c 0,0 2.35,-1.1 4.45,-1.6 2.1,-0.5 4,-0.55 4,-0.55 0,0 -1.15,-0.5 -2.35,-0.65 z"
           inkscape:connector-curvature="0"
           style="fill:#a9252d" />
        <path
           id="path22"
           d="m 8.95,-19.25 c 0.05,-0.45 0.1,-0.85 0.2,-1.1 0,0 0,0 -0.05,0.05 -0.35,0.3 -0.65,0.75 -0.8,1.35 -0.7,2.75 -1.3,6.85 -1.65,9.35 -0.35,2.5 -1.5,4 -2.25,3.35 -0.8,-0.7 -1.35,-4.25 -1.5,-6.7 -0.2,-2.4 -0.7,-3.8 -0.75,-4.8 l -0.1,-1.35 -0.7,3.1 0.7,-3.1 c 0,0 -0.75,3.15 -1.15,5.6 0.15,-0.65 0.45,-0.95 0.75,-0.5 0.5,0.65 0.1,7.4 -0.4,8.05 -0.5,0.6 -0.8,-1 -0.9,-3.25 l -0.45,5.025 0,-0.1 0,0.025 C -0.3,-3.8 -0.45,-3.35 -0.55,-2.8 -1,-0.45 -1.85,1.65 -3.1,3.6 -3.9,4.85 -4.8,5.8 -5.85,6.4 -6.1,6.5 -6.3,6.6 -6.5,6.7 c -1.45,0.65 -3.1,0.7 -5,0.15 -0.9,-0.25 -1.55,-0.8 -2,-1.6 -0.45,-0.85 -0.85,-1.55 -1.25,-2.1 0,-0.2 0,-0.4 -0.05,-0.55 -0.15,-0.55 -0.2,-1.15 -0.25,-1.7 -0.05,-0.6 -0.2,-1.1 -0.5,-1.5 -0.1,0.05 -0.25,0.2 -0.4,0.35 -0.1,0.1 -0.1,0.1 -0.1,0.1 -0.15,0.1 -0.15,0.1 -0.15,0.1 -3,2.35 -6.3,5.4 -9.95,9.1 -1.7,1.7 -2.85,3.55 -3.4,5.55 -0.25,0.5 -0.45,1.05 -0.6,1.6 -0.05,0.05 -0.05,0.15 -0.1,0.2 -0.25,0.5 -0.35,1 -0.4,1.45 -0.05,0.1 -0.05,0.2 -0.1,0.25 -0.2,0.8 -0.35,1.5 -0.4,1.95 C -31.1,20 -31.1,20 -31.1,20 c 0.4,-0.05 0.8,-0.1 1.25,-0.2 1.05,-1 2,-2.05 2.95,-3.2 0.95,-1.2 1.65,-2.5 2.05,-3.85 0.05,-0.15 0.15,-0.25 0.3,-0.3 0.05,0.15 0.1,0.25 0.15,0.25 0.1,0 0.2,0 0.3,-0.05 0.25,-0.05 0.3,0.05 0.25,0.25 -0.2,0.95 -0.5,1.8 -0.95,2.6 -0.4,0.75 -0.55,1.5 -0.4,2.3 0.1,0.6 0.2,1.2 0.3,1.85 0.3,0.2 0.6,0.45 0.85,0.7 2.05,0.45 4,1.2 5.8,2.2 2.1,-0.25 3.85,-1.2 5.2,-2.95 0.65,-0.85 1.4,-1.6 2.2,-2.25 0.65,1 0.65,2.35 -0.05,4 -0.25,0.65 -0.25,1.25 0.1,1.8 0.75,1.35 1.95,2.05 3.55,2.1 0.15,0 0.3,0.05 0.35,0.15 1.3,-0.95 2.55,-2.1 3.7,-3.4 0.9,-1 1.6,-2.1 2.15,-3.25 0.3,-0.65 0.65,-1.25 1,-1.7 0.35,0.9 0.3,1.9 -0.25,3.05 -0.6,1.25 -0.35,2.15 0.7,2.75 C 0.65,23 0.95,23.1 1.25,23.2 1.1,23.3 0.9,23.4 0.7,23.55 2.1,22.7 3.35,21.6 4.4,20.25 5.65,18.6 6.8,16.9 7.8,15.15 c 0.15,1.4 -0.3,2.95 -1.25,4.6 -1,1.75 -1.05,3.4 -0.1,4.9 0.25,0.4 0.55,0.8 0.85,1.15 0.45,-0.8 0.95,-1.55 1.55,-2.25 0.9,-1.05 2,-1.9 3.3,-2.55 0.3,-0.15 0.6,-0.3 0.85,-0.4 0.95,-4 1.4,-7.8 1.35,-11.7 -0.05,-3.35 -0.65,-6.55 -1.7,-9.6 -0.45,-1.4 -0.9,-2.8 -1.3,-4.15 l 0,-0.025 0.225,-0.025 0.025,0 c -0.15,-0.25 -0.3,-0.5 -0.5,-0.95 -0.25,-0.45 -0.55,-1.25 -0.85,-2.2 -0.4,-1.2 -0.65,-2.7 -0.85,-4 -0.15,-0.8 -0.2,-1.65 -0.25,-2.15 l -0.2,-2.625 -0.05,-0.475 0.05,0.475 0,0.025 c 0,-0.2 -0.05,-0.5 -0.05,-1.15 l -0.025,-0.025 0.05,-1.3 M 4.05,11.05 c -2.45,1.15 -5,1.9 -7.7,2.25 -3.2,0.35 -5.9,-0.55 -8.15,-2.8 -0.05,-0.05 -0.15,-0.1 -0.25,-0.15 C -12.15,10 -12.3,9.7 -12.55,9.4 -12.7,9.15 -12.85,8.9 -13,8.65 -13.1,8.4 -13.2,8.15 -13.25,7.85 -13.3,7.5 -13.5,7.25 -13.8,7 -13.9,6.95 -13.9,6.9 -13.75,6.9 -11,8.6 -7.9,9.45 -4.45,9.5 -1.2,9.55 2,9.1 5.15,8.25 7,7.7 8.8,7.2 10.6,6.65 8.7,8.4 6.5,9.9 4.05,11.05 z"
           inkscape:connector-curvature="0"
           style="fill:#81121a" />
        <path
           id="path23"
           d="M 4.05,11.05 C 6.5,9.9 8.7,8.4 10.6,6.65 8.8,7.2 7,7.7 5.15,8.25 2,9.1 -1.2,9.55 -4.45,9.5 -7.9,9.45 -11,8.6 -13.75,6.9 c -0.15,0 -0.15,0.05 -0.05,0.1 0.3,0.25 0.5,0.5 0.55,0.85 0.05,0.3 0.15,0.55 0.25,0.8 0.15,0.25 0.3,0.5 0.45,0.75 0.25,0.3 0.4,0.6 0.5,0.95 0.1,0.05 0.2,0.1 0.25,0.15 2.25,2.25 4.95,3.15 8.15,2.8 2.7,-0.35 5.25,-1.1 7.7,-2.25 z M 0.9,-13.5 c -0.35,0.8 -0.55,2.15 -0.55,3.5 0,0.3 0,0.6 0,0.8 0.1,2.25 0.4,3.85 0.9,3.25 0.5,-0.65 0.9,-7.4 0.4,-8.05 -0.3,-0.45 -0.6,-0.15 -0.75,0.5 z M 1.25,23.2 C 0.95,23.1 0.65,23 0.4,22.85 c -1.05,-0.6 -1.3,-1.5 -0.7,-2.75 0.55,-1.15 0.6,-2.15 0.25,-3.05 -0.35,0.45 -0.7,1.05 -1,1.7 C -1.6,19.9 -2.3,21 -3.2,22 c -1.15,1.3 -2.4,2.45 -3.7,3.4 -0.05,-0.1 -0.2,-0.15 -0.35,-0.15 -1.6,-0.05 -2.8,-0.75 -3.55,-2.1 -0.35,-0.55 -0.35,-1.15 -0.1,-1.8 0.7,-1.65 0.7,-3 0.05,-4 -0.8,0.65 -1.55,1.4 -2.2,2.25 -1.35,1.75 -3.1,2.7 -5.2,2.95 l -0.025,-0.025 -0.025,0 0,0.025 c 0.2,0.05 0.4,0.15 0.55,0.3 l 0,-0.025 0.975,0.575 0.025,0 c 0.05,0.05 0.15,0.1 0.2,0.15 l 0.025,0 0.025,0 c 2.65,1.55 5.25,2.3 7.6,2.2 0.55,0 0.95,-0.05 1.35,-0.1 0.1,0 0.1,0 0.1,0 0.1,0 0.15,0 0.2,0 l 0,-0.025 -0.025,0.025 0.025,0 c 0.65,-0.1 1.35,-0.25 2.1,-0.4 l 0,-0.025 0.025,-0.025 0.025,0 c 0.7,-0.2 1.2,-0.35 1.7,-0.55 0.95,-0.35 1.9,-0.55 2.85,-0.5 0.1,0 0.1,0 0.1,0 0.6,0 1.2,0.05 1.65,0.1 2.2,0.25 4.1,0.9 5.45,1.65 l 0,-0.025 0.275,0.15 0.025,0.025 c 0.1,0.1 0.15,0.1 0.2,0.1 0.5,0.3 0.95,0.6 1.2,0.75 0.85,0.6 1.5,1.15 2.1,1.75 0.2,-0.25 0.3,-0.45 0.35,-0.55 0.25,-0.6 0.55,-1.2 0.8,-1.8 0.25,-0.5 0.3,-1 0.15,-1.45 0.15,-0.5 0.35,-1 0.5,-1.55 0.15,-0.45 0.3,-0.9 0.4,-1.25 0.15,-0.55 0.3,-1.1 0.35,-1.45 -0.25,0.1 -0.55,0.25 -0.85,0.4 -1.3,0.65 -2.4,1.5 -3.3,2.55 C 8.25,24.25 7.75,25 7.3,25.8 7,25.45 6.7,25.05 6.45,24.65 5.5,23.15 5.55,21.5 6.55,19.75 7.5,18.1 7.95,16.55 7.8,15.15 6.8,16.9 5.65,18.6 4.4,20.25 3.35,21.6 2.1,22.7 0.7,23.55 0.9,23.4 1.1,23.3 1.25,23.2 z M -25.2,17.8 c -0.15,-0.8 0,-1.55 0.4,-2.3 0.45,-0.8 0.75,-1.65 0.95,-2.6 0.05,-0.2 0,-0.3 -0.25,-0.25 -0.1,0.05 -0.2,0.05 -0.3,0.05 -0.05,0 -0.1,-0.1 -0.15,-0.25 -0.15,0.05 -0.25,0.15 -0.3,0.3 -0.4,1.35 -1.1,2.65 -2.05,3.85 -0.95,1.15 -1.9,2.2 -2.95,3.2 l 0.525,-0.05 0.025,0 c 0.2,-0.05 0.4,-0.05 0.65,-0.05 1.35,0.05 2.65,0.25 3.9,0.5 l 0,-0.025 0.7,0.15 0,0.025 C -24.3,20.1 -24.6,19.85 -24.9,19.65 -25,19 -25.1,18.4 -25.2,17.8 z"
           inkscape:connector-curvature="0"
           style="fill:#721016" />
      </g>
    </g>
    <g
       id="backCoatC006_1_0">
      <g
         id="element">
        <path
           id="path"
           d="m 4.65,-27 c 0.4,0.05 1.05,0.2 1.55,0.35 l 0,-0.025 0,-0.025 c 0.2,0.05 0.45,0.15 0.4,0.15 -1.1,-1.4 -6.45,-1.9 -9.15,-1.4 q -1.882,0.396 -3.175,1.175 l 0.025,0.025 c 0.35,-0.05 0.4,-0.05 0.35,-0.05 l -0.025,0 0.125,0 C -4.5,-26.95 -1,-28.15 4.65,-27 z M 9.9,29.4 9.925,29.425 9.95,29.45 c 0.2,-0.3 0.35,-0.55 0.5,-0.8 C 9.85,28.05 9.2,27.5 8.35,26.9 8.1,26.75 7.65,26.45 7.15,26.15 c -0.05,0 -0.1,0 -0.2,-0.1 L 6.925,26.025 6.65,25.875 6.65,25.9 C 5.3,25.15 3.4,24.5 1.2,24.25 0.75,24.2 0.15,24.15 -0.45,24.15 c 0,0 0,0 -0.1,0 -0.95,-0.05 -1.9,0.15 -2.85,0.5 -0.5,0.2 -1,0.35 -1.7,0.55 l -0.025,0 -0.025,0.025 0,0.025 c -0.75,0.15 -1.45,0.3 -2.1,0.4 l 0,-0.025 -0.025,0.025 0.025,0 c -0.05,0 -0.1,0 -0.2,0 0,0 0,0 -0.1,0 -0.4,0.05 -0.8,0.1 -1.35,0.1 -2.35,0.1 -4.95,-0.65 -7.6,-2.2 l -0.025,0 -0.025,0 c -0.05,-0.05 -0.15,-0.1 -0.2,-0.15 l -0.025,0 -0.975,-0.575 0,0.025 C -17.9,22.7 -18.1,22.6 -18.3,22.55 l 0,-0.025 0.025,0 0.025,0.025 c -1.8,-1 -3.75,-1.75 -5.8,-2.2 l 0,-0.025 -0.7,-0.15 0,0.025 c -1.25,-0.25 -2.55,-0.45 -3.9,-0.5 -0.25,0 -0.45,0 -0.65,0.05 l -0.025,0 -0.525,0.05 c -0.45,0.1 -0.85,0.15 -1.25,0.2 0,0 0,0 -0.05,0.05 -0.05,0.45 -0.05,0.7 -0.05,0.9 -0.05,0 -0.05,0 -0.1,0 l -0.05,0.1 c 0.05,0 0.1,0 0.15,0 l 0,-0.025 0,0.025 c 3.15,-0.15 5.75,0.2 7.7,1 1.75,0.75 3.5,1.65 5.2,2.6 3.8,2.2 8,2.6 12.55,1.25 C 0.4,24 5.6,25.15 9.9,29.4 z"
           inkscape:connector-curvature="0"
           style="fill:#2a3b6e" />
        <path
           id="path1"
           d="M 6.2,-26.65 C 5.7,-26.8 5.05,-26.95 4.65,-27 c -5.65,-1.15 -9.15,0.05 -9.9,0.2 l 0.05,0 c 1.2,0.15 2.35,0.65 2.35,0.65 0,0 -1.9,0.05 -4,0.55 -2.1,0.5 -4.45,1.6 -4.45,1.6 l 1.45,-0.6 -1.45,0.6 0.6,1.05 -0.6,-1.05 c 0,0 1,1.7 1.7,3.45 0.55,1.35 0.2,4.6 0.15,6.05 -0.45,1.9 -0.85,3.95 -1.3,6.15 -0.6,2.95 -2.25,5.6 -4.8,7.75 0.3,0.4 0.45,0.9 0.5,1.5 0.05,0.55 0.1,1.15 0.25,1.7 0.05,0.15 0.05,0.35 0.05,0.55 0.4,0.55 0.8,1.25 1.25,2.1 0.45,0.8 1.1,1.35 2,1.6 1.9,0.55 3.55,0.5 5,-0.15 0.2,-0.1 0.4,-0.2 0.65,-0.3 1.05,-0.6 1.95,-1.55 2.75,-2.8 1.25,-1.95 2.1,-4.05 2.55,-6.4 0.1,-0.55 0.25,-1 0.45,-1.45 l 0,-0.025 0,0.1 0.45,-5.025 c 0,-0.2 0,-0.5 0,-0.8 0,-1.35 0.2,-2.7 0.55,-3.5 0.4,-2.45 1.15,-5.6 1.15,-5.6 l -0.7,3.1 0.7,-3.1 0.1,1.35 c 0.05,1 0.55,2.4 0.75,4.8 0.15,2.45 0.7,6 1.5,6.7 0.75,0.65 1.9,-0.85 2.25,-3.35 0.35,-2.5 0.95,-6.6 1.65,-9.35 0.15,-0.6 0.45,-1.05 0.8,-1.35 0,-0.05 0.05,-0.15 0.1,-0.25 0.7,-1.75 1.8,-3.2 1.8,-3.2 l -0.05,0 -4.75,-2.5 0,-0.425 m 2.75,9.875 c 0,-0.2 -0.05,-0.5 -0.05,-1.15 l 0,0.65 0.05,0.475 z"
           inkscape:connector-curvature="0"
           style="fill:#8a131b" />
        <path
           id="path2"
           d="m 6.2,-26.675 0,0.425 4.75,2.5 0.05,0 c 0,0 -0.55,-0.95 -1.95,-1.85 -0.4,-0.25 -1.05,-0.5 -2,-0.8 0,0 -0.2,-0.05 -0.45,-0.15 0.05,0 -0.2,-0.1 -0.4,-0.15 l 0,0.025 z m -11.4,-0.125 -0.05,0 -0.125,0 0.025,0 c 0.05,0 0,0 -0.35,0.05 -0.4,0 -1.5,0.15 -2.8,0.65 0.1,-0.05 0,0 -0.1,0.05 -0.1,0.05 -0.3,0.15 -0.5,0.25 0,0 -0.15,0.1 -0.3,0.2 -1.4,0.9 -1.9,1.6 -1.9,1.6 l 0.45,-0.45 -0.45,0.45 1.45,-0.6 -1.45,0.6 c 0,0 2.35,-1.1 4.45,-1.6 2.1,-0.5 4,-0.55 4,-0.55 0,0 -1.15,-0.5 -2.35,-0.65 z"
           inkscape:connector-curvature="0"
           style="fill:#a9252d" />
        <path
           id="path3"
           d="m 8.95,-19.25 c 0.05,-0.45 0.1,-0.85 0.2,-1.1 0,0 0,0 -0.05,0.05 -0.35,0.3 -0.65,0.75 -0.8,1.35 -0.7,2.75 -1.3,6.85 -1.65,9.35 -0.35,2.5 -1.5,4 -2.25,3.35 -0.8,-0.7 -1.35,-4.25 -1.5,-6.7 -0.2,-2.4 -0.7,-3.8 -0.75,-4.8 l -0.1,-1.35 -0.7,3.1 0.7,-3.1 c 0,0 -0.75,3.15 -1.15,5.6 0.15,-0.65 0.45,-0.95 0.75,-0.5 0.5,0.65 0.1,7.4 -0.4,8.05 -0.5,0.6 -0.8,-1 -0.9,-3.25 l -0.45,5.025 0,-0.1 0,0.025 C -0.3,-3.8 -0.45,-3.35 -0.55,-2.8 -1,-0.45 -1.85,1.65 -3.1,3.6 -3.9,4.85 -4.8,5.8 -5.85,6.4 -6.1,6.5 -6.3,6.6 -6.5,6.7 c -1.45,0.65 -3.1,0.7 -5,0.15 -0.9,-0.25 -1.55,-0.8 -2,-1.6 -0.45,-0.85 -0.85,-1.55 -1.25,-2.1 0,-0.2 0,-0.4 -0.05,-0.55 -0.15,-0.55 -0.2,-1.15 -0.25,-1.7 -0.05,-0.6 -0.2,-1.1 -0.5,-1.5 -0.1,0.05 -0.25,0.2 -0.4,0.35 -0.1,0.1 -0.1,0.1 -0.1,0.1 -0.15,0.1 -0.15,0.1 -0.15,0.1 -3,2.35 -6.3,5.4 -9.95,9.1 -1.7,1.7 -2.85,3.55 -3.4,5.55 -0.25,0.5 -0.45,1.05 -0.6,1.6 -0.05,0.05 -0.05,0.15 -0.1,0.2 -0.25,0.5 -0.35,1 -0.4,1.45 -0.05,0.1 -0.05,0.2 -0.1,0.25 -0.2,0.8 -0.35,1.5 -0.4,1.95 C -31.1,20 -31.1,20 -31.1,20 c 0.4,-0.05 0.8,-0.1 1.25,-0.2 1.05,-1 2,-2.05 2.95,-3.2 0.95,-1.2 1.65,-2.5 2.05,-3.85 0.05,-0.15 0.15,-0.25 0.3,-0.3 0.05,0.15 0.1,0.25 0.15,0.25 0.1,0 0.2,0 0.3,-0.05 0.25,-0.05 0.3,0.05 0.25,0.25 -0.2,0.95 -0.5,1.8 -0.95,2.6 -0.4,0.75 -0.55,1.5 -0.4,2.3 0.1,0.6 0.2,1.2 0.3,1.85 0.3,0.2 0.6,0.45 0.85,0.7 2.05,0.45 4,1.2 5.8,2.2 2.1,-0.25 3.85,-1.2 5.2,-2.95 0.65,-0.85 1.4,-1.6 2.2,-2.25 0.65,1 0.65,2.35 -0.05,4 -0.25,0.65 -0.25,1.25 0.1,1.8 0.75,1.35 1.95,2.05 3.55,2.1 0.15,0 0.3,0.05 0.35,0.15 1.3,-0.95 2.55,-2.1 3.7,-3.4 0.9,-1 1.6,-2.1 2.15,-3.25 0.3,-0.65 0.65,-1.25 1,-1.7 0.35,0.9 0.3,1.9 -0.25,3.05 -0.6,1.25 -0.35,2.15 0.7,2.75 C 0.65,23 0.95,23.1 1.25,23.2 1.1,23.3 0.9,23.4 0.7,23.55 2.1,22.7 3.35,21.6 4.4,20.25 5.65,18.6 6.8,16.9 7.8,15.15 c 0.15,1.4 -0.3,2.95 -1.25,4.6 -1,1.75 -1.05,3.4 -0.1,4.9 0.25,0.4 0.55,0.8 0.85,1.15 0.45,-0.8 0.95,-1.55 1.55,-2.25 0.9,-1.05 2,-1.9 3.3,-2.55 0.3,-0.15 0.6,-0.3 0.85,-0.4 0.95,-4 1.4,-7.8 1.35,-11.7 -0.05,-3.35 -0.65,-6.55 -1.7,-9.6 -0.45,-1.4 -0.9,-2.8 -1.3,-4.15 l 0,-0.025 0.225,-0.025 0.025,0 c -0.15,-0.25 -0.3,-0.5 -0.5,-0.95 -0.25,-0.45 -0.55,-1.25 -0.85,-2.2 -0.4,-1.2 -0.65,-2.7 -0.85,-4 -0.15,-0.8 -0.2,-1.65 -0.25,-2.15 l -0.2,-2.625 -0.05,-0.475 0.05,0.475 0,0.025 c 0,-0.2 -0.05,-0.5 -0.05,-1.15 l -0.025,-0.025 0.05,-1.3 M 4.05,11.05 c -2.45,1.15 -5,1.9 -7.7,2.25 -3.2,0.35 -5.9,-0.55 -8.15,-2.8 -0.05,-0.05 -0.15,-0.1 -0.25,-0.15 C -12.15,10 -12.3,9.7 -12.55,9.4 -12.7,9.15 -12.85,8.9 -13,8.65 -13.1,8.4 -13.2,8.15 -13.25,7.85 -13.3,7.5 -13.5,7.25 -13.8,7 -13.9,6.95 -13.9,6.9 -13.75,6.9 -11,8.6 -7.9,9.45 -4.45,9.5 -1.2,9.55 2,9.1 5.15,8.25 7,7.7 8.8,7.2 10.6,6.65 8.7,8.4 6.5,9.9 4.05,11.05 z"
           inkscape:connector-curvature="0"
           style="fill:#81121a" />
        <path
           id="path4"
           d="M 4.05,11.05 C 6.5,9.9 8.7,8.4 10.6,6.65 8.8,7.2 7,7.7 5.15,8.25 2,9.1 -1.2,9.55 -4.45,9.5 -7.9,9.45 -11,8.6 -13.75,6.9 c -0.15,0 -0.15,0.05 -0.05,0.1 0.3,0.25 0.5,0.5 0.55,0.85 0.05,0.3 0.15,0.55 0.25,0.8 0.15,0.25 0.3,0.5 0.45,0.75 0.25,0.3 0.4,0.6 0.5,0.95 0.1,0.05 0.2,0.1 0.25,0.15 2.25,2.25 4.95,3.15 8.15,2.8 2.7,-0.35 5.25,-1.1 7.7,-2.25 z M 0.9,-13.5 c -0.35,0.8 -0.55,2.15 -0.55,3.5 0,0.3 0,0.6 0,0.8 0.1,2.25 0.4,3.85 0.9,3.25 0.5,-0.65 0.9,-7.4 0.4,-8.05 -0.3,-0.45 -0.6,-0.15 -0.75,0.5 z M 1.25,23.2 C 0.95,23.1 0.65,23 0.4,22.85 c -1.05,-0.6 -1.3,-1.5 -0.7,-2.75 0.55,-1.15 0.6,-2.15 0.25,-3.05 -0.35,0.45 -0.7,1.05 -1,1.7 C -1.6,19.9 -2.3,21 -3.2,22 c -1.15,1.3 -2.4,2.45 -3.7,3.4 -0.05,-0.1 -0.2,-0.15 -0.35,-0.15 -1.6,-0.05 -2.8,-0.75 -3.55,-2.1 -0.35,-0.55 -0.35,-1.15 -0.1,-1.8 0.7,-1.65 0.7,-3 0.05,-4 -0.8,0.65 -1.55,1.4 -2.2,2.25 -1.35,1.75 -3.1,2.7 -5.2,2.95 l -0.025,-0.025 -0.025,0 0,0.025 c 0.2,0.05 0.4,0.15 0.55,0.3 l 0,-0.025 0.975,0.575 0.025,0 c 0.05,0.05 0.15,0.1 0.2,0.15 l 0.025,0 0.025,0 c 2.65,1.55 5.25,2.3 7.6,2.2 0.55,0 0.95,-0.05 1.35,-0.1 0.1,0 0.1,0 0.1,0 0.1,0 0.15,0 0.2,0 l 0,-0.025 -0.025,0.025 0.025,0 c 0.65,-0.1 1.35,-0.25 2.1,-0.4 l 0,-0.025 0.025,-0.025 0.025,0 c 0.7,-0.2 1.2,-0.35 1.7,-0.55 0.95,-0.35 1.9,-0.55 2.85,-0.5 0.1,0 0.1,0 0.1,0 0.6,0 1.2,0.05 1.65,0.1 2.2,0.25 4.1,0.9 5.45,1.65 l 0,-0.025 0.275,0.15 0.025,0.025 c 0.1,0.1 0.15,0.1 0.2,0.1 0.5,0.3 0.95,0.6 1.2,0.75 0.85,0.6 1.5,1.15 2.1,1.75 0.2,-0.25 0.3,-0.45 0.35,-0.55 0.25,-0.6 0.55,-1.2 0.8,-1.8 0.25,-0.5 0.3,-1 0.15,-1.45 0.15,-0.5 0.35,-1 0.5,-1.55 0.15,-0.45 0.3,-0.9 0.4,-1.25 0.15,-0.55 0.3,-1.1 0.35,-1.45 -0.25,0.1 -0.55,0.25 -0.85,0.4 -1.3,0.65 -2.4,1.5 -3.3,2.55 C 8.25,24.25 7.75,25 7.3,25.8 7,25.45 6.7,25.05 6.45,24.65 5.5,23.15 5.55,21.5 6.55,19.75 7.5,18.1 7.95,16.55 7.8,15.15 6.8,16.9 5.65,18.6 4.4,20.25 3.35,21.6 2.1,22.7 0.7,23.55 0.9,23.4 1.1,23.3 1.25,23.2 z M -25.2,17.8 c -0.15,-0.8 0,-1.55 0.4,-2.3 0.45,-0.8 0.75,-1.65 0.95,-2.6 0.05,-0.2 0,-0.3 -0.25,-0.25 -0.1,0.05 -0.2,0.05 -0.3,0.05 -0.05,0 -0.1,-0.1 -0.15,-0.25 -0.15,0.05 -0.25,0.15 -0.3,0.3 -0.4,1.35 -1.1,2.65 -2.05,3.85 -0.95,1.15 -1.9,2.2 -2.95,3.2 l 0.525,-0.05 0.025,0 c 0.2,-0.05 0.4,-0.05 0.65,-0.05 1.35,0.05 2.65,0.25 3.9,0.5 l 0,-0.025 0.7,0.15 0,0.025 C -24.3,20.1 -24.6,19.85 -24.9,19.65 -25,19 -25.1,18.4 -25.2,17.8 z"
           inkscape:connector-curvature="0"
           style="fill:#721016" />
      </g>
    </g>
  </g>
</svg>
