<?xml version="1.0" encoding="UTF-8" standalone="no"?>
<!-- Generator: flash2svg, http://dissentgraphics.com/tools/flash2svg -->

<svg
   xmlns:dc="http://purl.org/dc/elements/1.1/"
   xmlns:cc="http://creativecommons.org/ns#"
   xmlns:rdf="http://www.w3.org/1999/02/22-rdf-syntax-ns#"
   xmlns:svg="http://www.w3.org/2000/svg"
   xmlns="http://www.w3.org/2000/svg"
   xmlns:sodipodi="http://sodipodi.sourceforge.net/DTD/sodipodi-0.dtd"
   xmlns:inkscape="http://www.inkscape.org/namespaces/inkscape"
   id="AvatarAssets"
   image-rendering="auto"
   version="1.1"
   x="0px"
   y="0px"
   width="22.737404"
   height="17.032114"
   viewBox="0 0 22.737404 17.032114"
   inkscape:version="0.48.4 r9939"
   sodipodi:docname="AvatarAssets_backPantsTopA006.svg">
  <metadata
     id="metadata3128">
    <rdf:RDF>
      <cc:Work
         rdf:about="">
        <dc:format>image/svg+xml</dc:format>
        <dc:type
           rdf:resource="http://purl.org/dc/dcmitype/StillImage" />
      </cc:Work>
    </rdf:RDF>
  </metadata>
  <sodipodi:namedview
     pagecolor="#ffffff"
     bordercolor="#666666"
     borderopacity="1"
     objecttolerance="10"
     gridtolerance="10"
     guidetolerance="10"
     inkscape:pageopacity="0"
     inkscape:pageshadow="2"
     inkscape:window-width="640"
     inkscape:window-height="480"
     id="namedview3126"
     showgrid="false"
     fit-margin-top="0"
     fit-margin-left="0"
     fit-margin-right="0"
     fit-margin-bottom="0"
     inkscape:zoom="1.9032258"
     inkscape:cx="44.004404"
     inkscape:cy="-54.47878"
     inkscape:window-x="0"
     inkscape:window-y="0"
     inkscape:window-maximized="0"
     inkscape:current-layer="AvatarAssets" />
  <defs
     id="defs3101" />
  <g
     id="backPantsTopA7"
     overflow="visible"
     style="overflow:visible"
     transform="translate(12.004404,9.510895)">
    <g
       id="backPantsTopA006_0">
      <g
         id="element">
        <g
           id="drawingObject">
          <path
             id="path"
             d="m -11.123,-6.749 -0.089,-0.45 c 0,0 0.232,0.75 0.12,1.25 -0.112,0.5 -1.749,4.2 -0.273,7.35 1.526,3.15 5.433,7.1 14.111,5.9 7.173,-0.95 8.119,-7.15 7.95,-8.5 l -0.414,-5.75 c 0,0 -0.185,-0.65 -1.467,-1.4 -1.333,-0.75 -5.315,-1.5 -11.477,-1 q -3.857,0.3 -6.579,1.25 l -1.971,0.9"
             inkscape:connector-curvature="0"
             style="fill:#d9b558" />
        </g>
        <g
           id="group1">
          <g
             id="drawingObject1">
            <path
               id="path1"
               d="m -11.255,-5.399 -0.269,0.8 c 2.519,-0.8 6.49,-1.7 11.69,-1.7 q 5.95,0 10.302,2.05 l -0.079,-0.9 c -2.027,-0.95 -5.406,-1.85 -10.203,-2 -4.647,-0.1 -9.074,1.05 -11.441,1.75 z"
               inkscape:connector-curvature="0"
               style="fill:#79592b;fill-opacity:0.45100002" />
          </g>
          <g
             id="drawingObject2">
            <path
               id="path2"
               d="m -10.547,2.751 0.825,1.1 c 2.854,-0.2 8.697,0.1 12.041,0.35 q 3.344,0.25 7.54,-1.7 l 0.266,-0.65 -0.3,0 c -1.655,0.2 -3.674,1 -7.374,1 -2.9,0 -8.493,-0.3 -12.998,-0.1 z"
               inkscape:connector-curvature="0"
               style="fill:#79592b;fill-opacity:0.45100002" />
          </g>
          <g
             id="drawingObject3">
            <path
               id="path3"
               d="m -11.913,-0.799 0.086,0.6 c 2.317,-0.75 6.335,-1.5 11.587,-1.6 4.453,-0.1 8.279,0.9 10.91,1.7 l 0.063,-0.55 c -1.978,-0.9 -5.05,-2.1 -10.653,-2 q -5.002,0.1 -11.993,1.85 z"
               inkscape:connector-curvature="0"
               style="fill:#79592b;fill-opacity:0.45100002" />
          </g>
        </g>
        <g
           id="group2">
          <g
             id="drawingObject4">
            <path
               id="path4"
               d="m 8.766,-4.149 0.196,-4.1 -0.147,-0.1 -1.19,-0.45 -0.129,5.5 c -0.067,2.85 0.212,5.85 -2.454,8.65 -0.77,0.85 -1.384,1.45 -1.944,1.9 0.451,-0.05 0.903,-0.15 1.307,-0.3 1.936,-1.55 4.111,-4.75 4.361,-11.1 z"
               inkscape:connector-curvature="0"
               style="fill:#79592b;fill-opacity:0.4" />
          </g>
          <g
             id="drawingObject5">
            <path
               id="path5"
               d="m -5.29,6.701 0.099,0.05 c 0.447,0.15 0.943,0.3 1.491,0.4 -2.261,-1.65 -5.001,-4.2 -4.945,-6.6 q 0.055,-2.35 0.864,-9.1 l -1.46,0.45 c -0.334,1.45 -0.784,3.55 -0.825,5.3 -0.071,3 0.382,7.15 4.776,9.5 z"
               inkscape:connector-curvature="0"
               style="fill:#79592b;fill-opacity:0.4" />
          </g>
          <g
             id="drawingObject6">
            <path
               id="path6"
               d="m 2.542,-9.499 c 0.166,1.45 0.367,3.5 0.336,4.85 q -0.153,6.5 -0.559,8.85 c -0.231,1.35 -1.659,2.5 -3.127,3.3 l 1.55,0 c 1.368,-0.8 2.394,-1.9 2.681,-3.45 0.632,-3.5 0.246,-10.45 0.316,-13.45 l -1.197,-0.1 z"
               inkscape:connector-curvature="0"
               style="fill:#79592b;fill-opacity:0.4" />
          </g>
          <g
             id="drawingObject7">
            <path
               id="path7"
               d="m -4.567,-9.149 c 0.158,1.8 0.309,3.9 0.283,5 -0.041,1.75 -0.324,7.4 1.529,11.5 l 0.748,0.1 c -0.718,-1.35 -1.228,-3.05 -1.18,-5.1 0.136,-5.8 0.403,-8.65 0.459,-11 l 0.016,-0.7 -1.855,0.2 z"
               inkscape:connector-curvature="0"
               style="fill:#79592b;fill-opacity:0.4" />
          </g>
        </g>
        <g
           id="drawingObject8">
          <path
             id="path8"
             d="m 10.256,-6.949 c 0,0 -0.185,-0.65 -1.467,-1.4 -1.333,-0.75 -5.315,-1.5 -11.477,-1 -6.212,0.5 -8.55,2.15 -8.55,2.15 l 1.971,-0.9 -1.971,0.9 0.089,0.45 -0.089,-0.45 c 0,0 0.232,0.75 0.12,1.25 -0.112,0.5 -1.749,4.2 -0.273,7.35 1.526,3.15 5.433,7.1 14.111,5.9 5.567,-0.7 7.359,-4.6 7.814,-6.95 l -0.181,-0.8 C 8.632,-5.949 5.06,3.501 5.06,3.501 L 7.055,-0.549 5.06,3.501 3.578,2.751 c -1.483,-0.75 -7.11,-1.7 -7.11,-1.7 l 2.987,0.55 -2.987,-0.55 3.047,0.1 c 2.45,0 4.332,-1.35 4.332,-1.35 l -5.25,0 c -4.35,0 -4.777,-1 -4.777,-1 l 0.739,0.5 -0.739,-0.5 1.12,-0.85 -1.12,0.85 c 0,0 1.086,-1.5 5.757,-2.4 q 4.219,-0.8 10.902,-0.1 l -0.223,-3.25 z"
             inkscape:connector-curvature="0"
             style="fill:#000000;fill-opacity:0.2" />
        </g>
      </g>
    </g>
  </g>
</svg>
