<?xml version="1.0" encoding="UTF-8" standalone="no"?>
<!-- Generator: flash2svg, http://dissentgraphics.com/tools/flash2svg -->

<svg
   xmlns:dc="http://purl.org/dc/elements/1.1/"
   xmlns:cc="http://creativecommons.org/ns#"
   xmlns:rdf="http://www.w3.org/1999/02/22-rdf-syntax-ns#"
   xmlns:svg="http://www.w3.org/2000/svg"
   xmlns="http://www.w3.org/2000/svg"
   xmlns:sodipodi="http://sodipodi.sourceforge.net/DTD/sodipodi-0.dtd"
   xmlns:inkscape="http://www.inkscape.org/namespaces/inkscape"
   id="AvatarAssets"
   image-rendering="auto"
   version="1.1"
   x="0px"
   y="0px"
   width="22.772223"
   height="25.009279"
   viewBox="0 0 22.772223 25.009279"
   inkscape:version="0.48.4 r9939"
   sodipodi:docname="AvatarAssets_backShirtTorso20101130.svg">
  <metadata
     id="metadata3323">
    <rdf:RDF>
      <cc:Work
         rdf:about="">
        <dc:format>image/svg+xml</dc:format>
        <dc:type
           rdf:resource="http://purl.org/dc/dcmitype/StillImage" />
      </cc:Work>
    </rdf:RDF>
  </metadata>
  <sodipodi:namedview
     pagecolor="#ffffff"
     bordercolor="#666666"
     borderopacity="1"
     objecttolerance="10"
     gridtolerance="10"
     guidetolerance="10"
     inkscape:pageopacity="0"
     inkscape:pageshadow="2"
     inkscape:window-width="640"
     inkscape:window-height="480"
     id="namedview3321"
     showgrid="false"
     fit-margin-top="0"
     fit-margin-left="0"
     fit-margin-right="0"
     fit-margin-bottom="0"
     inkscape:zoom="1.9032258"
     inkscape:cx="43.249"
     inkscape:cy="-63.949"
     inkscape:window-x="0"
     inkscape:window-y="0"
     inkscape:window-maximized="0"
     inkscape:current-layer="AvatarAssets" />
  <defs
     id="defs3285" />
  <g
     id="backShirtTorso20101131"
     overflow="visible"
     style="overflow:visible"
     transform="translate(11.249,26.95828)">
    <g
       id="backShirtTorso20101130_1_0">
      <g
         id="element1"
         overflow="visible"
         style="overflow:visible">
        <g
           id="backShirtTorso20101130Color_4_0">
          <g
             id="element5">
            <path
               id="path135"
               d="m 11.451,-4.299 c -0.15,-1.85 -0.55,-3.55 -1.2,-5 l -1.4,-4.45 c -0.05,-0.25 -0.1,-0.55 -0.15,-0.8 -0.15,-0.9 -0.25,-1.7 -0.35,-2.35 l -0.35,-1.9 c -0.05,-0.1 -0.05,-0.2 -0.05,-0.25 -0.15,1 -0.25,2.1 -0.15,2.8 0.15,1.55 0,2.8 1.55,5.9 1.6,3.15 -2.75,2.65 -7.3,1.1 -4.55,-1.55 -6.85,0.3 -7.2,-0.9 -0.35,-1.25 1.6,-2.95 5.25,-4 2.65,-0.75 4.7,0.1 5.7,0.65 l -1.85,-1.2 c -2.45,-1.55 -5.4,-0.7 -5.4,-0.7 l 1.8,-0.25 -1.8,0.25 0.5,-0.35 c 0.55,-0.35 4.2,-0.5 4.2,-0.5 l -2.25,-0.55 -2.9,-0.1 2.9,0.1 c -2.3,-0.5 -4.05,0.7 -4.2,-1.4 -0.1,-0.95 0.15,-1.95 0.75,-3.05 0.35,-0.65 0.75,-1.25 1.2,-1.75 0.1,0 0.2,0 0.3,0 3.2,0.3 5.25,0.2 6.1,-0.3 l 0.05,-0.05 c 0.3,-0.45 0.3,-0.95 -0.2,-1.5 -0.35,-0.35 -0.75,-0.6 -1.3,-0.8 -0.35,-0.4 -1.15,-0.65 -2.35,-0.7 0.8,0.05 1.45,0.25 1.95,0.5 -2.4,0.05 -4.85,0.65 -6.15,2.1 -1.95,2.1 -3.85,3.5 -3.85,5.9 0,2.45 1.55,3 2.1,2.8 l 0.5,-0.15 c 0,0 -2.95,1.55 -3.15,4.35 -0.15,2.8 1.4,2.45 5.1,2.6 l 3.65,0.2 c 0,0 -6.3,0.35 -7.7,1.55 l -1.4,1.25 c 0,0 5.25,-4.2 13.15,-0.7 3.35,1.45 5.05,2.55 5.95,3.3 0,-0.5 0,-1.05 -0.05,-1.65 z m -17.1,-20.1 c 0.6,-0.55 1.35,-0.95 2.3,-1.3 0.9,-0.35 1.85,-0.55 2.8,-0.65 -0.7,-0.05 -1.35,0 -1.95,0.05 -0.5,0.05 0.55,-0.3 1.95,-0.65 -0.2,0.05 -0.4,0.05 -0.6,0.05 -3.1,0.35 -4.6,1.9 -4.6,1.9 l 0.1,0.6 z"
               inkscape:connector-curvature="0"
               style="fill:#d9d9d9" />
            <path
               id="path136"
               d="m 11.501,-2.499 c 0,-0.05 0,-0.1 0,-0.15 -0.9,-0.75 -2.6,-1.85 -5.95,-3.3 -7.9,-3.5 -13.15,0.7 -13.15,0.7 l 1.4,-1.25 c 1.4,-1.2 7.7,-1.55 7.7,-1.55 l -3.65,-0.2 c -3.7,-0.15 -5.25,0.2 -5.1,-2.6 0.2,-2.8 3.15,-4.35 3.15,-4.35 l -0.5,0.15 c -0.55,0.2 -2.1,-0.35 -2.1,-2.8 0,-2.4 1.9,-3.8 3.85,-5.9 1.3,-1.45 3.75,-2.05 6.15,-2.1 -0.5,-0.25 -1.15,-0.45 -1.95,-0.5 l -0.9,-0.05 c -0.35,0 -0.65,0 -1,0.05 -0.95,0.1 -1.9,0.3 -2.8,0.65 -0.95,0.35 -1.7,0.75 -2.3,1.3 -0.15,0.1 -0.25,0.2 -0.35,0.3 q -1.35,1.3 -2.45,8.55 c -0.35,2.25 -2.45,8.7 -2.65,11.15 l -0.15,2.45 c 0.4,-0.75 1.2,-1.55 2.35,-2.3 2.35,-1.5 5.4,-2.2 9.2,-2.05 9.05,0.35 11.15,4.35 11.15,4.35 0.05,-0.15 0.05,-0.35 0.05,-0.55 z"
               inkscape:connector-curvature="0"
               style="fill:#b8b8b8" />
            <path
               id="path137"
               d="m 5.001,-24.849 c 0.5,0.55 0.5,1.05 0.2,1.5 l -0.05,0.05 c -0.85,0.5 -2.9,0.6 -6.1,0.3 -0.1,0 -0.2,0 -0.3,0 -0.45,0.5 -0.85,1.1 -1.2,1.75 -0.6,1.1 -0.85,2.1 -0.75,3.05 0.15,2.1 1.9,0.9 4.2,1.4 l -2.9,-0.1 2.9,0.1 2.25,0.55 c 0,0 -3.65,0.15 -4.2,0.5 l -0.5,0.35 1.8,-0.25 -1.8,0.25 c 0,0 2.95,-0.85 5.4,0.7 l 1.85,1.2 c -1,-0.55 -3.05,-1.4 -5.7,-0.65 -3.65,1.05 -5.6,2.75 -5.25,4 0.35,1.2 2.65,-0.65 7.2,0.9 4.55,1.55 8.9,2.05 7.3,-1.1 -1.55,-3.1 -1.4,-4.35 -1.55,-5.9 -0.1,-0.7 0,-1.8 0.15,-2.8 -0.05,-0.35 -0.1,-0.55 -0.15,-0.7 -0.55,-2.05 -1.25,-3.6 -2.2,-4.55 -0.15,-0.95 -0.9,-1.7 -2.2,-2.15 -1.15,-0.4 -2.45,-0.55 -3.95,-0.5 -1.4,0.35 -2.45,0.7 -1.95,0.65 0.6,-0.05 1.25,-0.1 1.95,-0.05 0.35,-0.05 0.65,-0.05 1,-0.05 l 0.9,0.05 c 1.2,0.05 2,0.3 2.35,0.7 0.55,0.2 0.95,0.45 1.3,0.8 z"
               inkscape:connector-curvature="0"
               style="fill:#f3efe9" />
            <path
               id="path140"
               d="m -8.899,-4.249 c -1.15,0.75 -1.95,1.55 -2.35,2.3 l 2.35,-2.3"
               inkscape:connector-curvature="0"
               style="fill:#f3efe9" />
          </g>
          <g
             id="element6">
            <path
               id="path141"
               d="m 11.451,-4.299 c -0.15,-1.85 -0.55,-3.55 -1.2,-5 l -1.4,-4.45 c -0.05,-0.25 -0.1,-0.55 -0.15,-0.8 -0.15,-0.9 -0.25,-1.7 -0.35,-2.35 l -0.35,-1.9 c -0.05,-0.1 -0.05,-0.2 -0.05,-0.25 -0.15,1 -0.25,2.1 -0.15,2.8 0.15,1.55 0,2.8 1.55,5.9 1.6,3.15 -2.75,2.65 -7.3,1.1 -4.55,-1.55 -6.85,0.3 -7.2,-0.9 -0.35,-1.25 1.6,-2.95 5.25,-4 2.65,-0.75 4.7,0.1 5.7,0.65 l -1.85,-1.2 c -2.45,-1.55 -5.4,-0.7 -5.4,-0.7 l 1.8,-0.25 -1.8,0.25 0.5,-0.35 c 0.55,-0.35 4.2,-0.5 4.2,-0.5 l -2.25,-0.55 -2.9,-0.1 2.9,0.1 c -2.3,-0.5 -4.05,0.7 -4.2,-1.4 -0.1,-0.95 0.15,-1.95 0.75,-3.05 0.35,-0.65 0.75,-1.25 1.2,-1.75 0.1,0 0.2,0 0.3,0 3.2,0.3 5.25,0.2 6.1,-0.3 l 0.05,-0.05 c 0.3,-0.45 0.3,-0.95 -0.2,-1.5 -0.35,-0.35 -0.75,-0.6 -1.3,-0.8 -0.35,-0.4 -1.15,-0.65 -2.35,-0.7 0.8,0.05 1.45,0.25 1.95,0.5 -2.4,0.05 -4.85,0.65 -6.15,2.1 -1.95,2.1 -3.85,3.5 -3.85,5.9 0,2.45 1.55,3 2.1,2.8 l 0.5,-0.15 c 0,0 -2.95,1.55 -3.15,4.35 -0.15,2.8 1.4,2.45 5.1,2.6 l 3.65,0.2 c 0,0 -6.3,0.35 -7.7,1.55 l -1.4,1.25 c 0,0 5.25,-4.2 13.15,-0.7 3.35,1.45 5.05,2.55 5.95,3.3 0,-0.5 0,-1.05 -0.05,-1.65 z m -17.1,-20.1 c 0.6,-0.55 1.35,-0.95 2.3,-1.3 0.9,-0.35 1.85,-0.55 2.8,-0.65 -0.7,-0.05 -1.35,0 -1.95,0.05 -0.5,0.05 0.55,-0.3 1.95,-0.65 -0.2,0.05 -0.4,0.05 -0.6,0.05 -3.1,0.35 -4.6,1.9 -4.6,1.9 l 0.1,0.6 z"
               inkscape:connector-curvature="0"
               style="fill:#d9d9d9" />
            <path
               id="path142"
               d="m 11.501,-2.499 c 0,-0.05 0,-0.1 0,-0.15 -0.9,-0.75 -2.6,-1.85 -5.95,-3.3 -7.9,-3.5 -13.15,0.7 -13.15,0.7 l 1.4,-1.25 c 1.4,-1.2 7.7,-1.55 7.7,-1.55 l -3.65,-0.2 c -3.7,-0.15 -5.25,0.2 -5.1,-2.6 0.2,-2.8 3.15,-4.35 3.15,-4.35 l -0.5,0.15 c -0.55,0.2 -2.1,-0.35 -2.1,-2.8 0,-2.4 1.9,-3.8 3.85,-5.9 1.3,-1.45 3.75,-2.05 6.15,-2.1 -0.5,-0.25 -1.15,-0.45 -1.95,-0.5 l -0.9,-0.05 c -0.35,0 -0.65,0 -1,0.05 -0.95,0.1 -1.9,0.3 -2.8,0.65 -0.95,0.35 -1.7,0.75 -2.3,1.3 -0.15,0.1 -0.25,0.2 -0.35,0.3 q -1.35,1.3 -2.45,8.55 c -0.35,2.25 -2.45,8.7 -2.65,11.15 l -0.15,2.45 c 0.4,-0.75 1.2,-1.55 2.35,-2.3 2.35,-1.5 5.4,-2.2 9.2,-2.05 9.05,0.35 11.15,4.35 11.15,4.35 0.05,-0.15 0.05,-0.35 0.05,-0.55 z"
               inkscape:connector-curvature="0"
               style="fill:#b8b8b8" />
            <path
               id="path143"
               d="m 5.001,-24.849 c 0.5,0.55 0.5,1.05 0.2,1.5 l -0.05,0.05 c -0.85,0.5 -2.9,0.6 -6.1,0.3 -0.1,0 -0.2,0 -0.3,0 -0.45,0.5 -0.85,1.1 -1.2,1.75 -0.6,1.1 -0.85,2.1 -0.75,3.05 0.15,2.1 1.9,0.9 4.2,1.4 l -2.9,-0.1 2.9,0.1 2.25,0.55 c 0,0 -3.65,0.15 -4.2,0.5 l -0.5,0.35 1.8,-0.25 -1.8,0.25 c 0,0 2.95,-0.85 5.4,0.7 l 1.85,1.2 c -1,-0.55 -3.05,-1.4 -5.7,-0.65 -3.65,1.05 -5.6,2.75 -5.25,4 0.35,1.2 2.65,-0.65 7.2,0.9 4.55,1.55 8.9,2.05 7.3,-1.1 -1.55,-3.1 -1.4,-4.35 -1.55,-5.9 -0.1,-0.7 0,-1.8 0.15,-2.8 -0.05,-0.35 -0.1,-0.55 -0.15,-0.7 -0.55,-2.05 -1.25,-3.6 -2.2,-4.55 -0.15,-0.95 -0.9,-1.7 -2.2,-2.15 -1.15,-0.4 -2.45,-0.55 -3.95,-0.5 -1.4,0.35 -2.45,0.7 -1.95,0.65 0.6,-0.05 1.25,-0.1 1.95,-0.05 0.35,-0.05 0.65,-0.05 1,-0.05 l 0.9,0.05 c 1.2,0.05 2,0.3 2.35,0.7 0.55,0.2 0.95,0.45 1.3,0.8 z"
               inkscape:connector-curvature="0"
               style="fill:#f3efe9" />
            <path
               id="path146"
               d="m -8.899,-4.249 c -1.15,0.75 -1.95,1.55 -2.35,2.3 l 2.35,-2.3"
               inkscape:connector-curvature="0"
               style="fill:#f3efe9" />
          </g>
          <g
             id="element7">
            <path
               id="path147"
               d="m 11.451,-4.299 c -0.15,-1.85 -0.55,-3.55 -1.2,-5 l -1.4,-4.45 c -0.05,-0.25 -0.1,-0.55 -0.15,-0.8 -0.15,-0.9 -0.25,-1.7 -0.35,-2.35 l -0.35,-1.9 c -0.05,-0.1 -0.05,-0.2 -0.05,-0.25 -0.15,1 -0.25,2.1 -0.15,2.8 0.15,1.55 0,2.8 1.55,5.9 1.6,3.15 -2.75,2.65 -7.3,1.1 -4.55,-1.55 -6.85,0.3 -7.2,-0.9 -0.35,-1.25 1.6,-2.95 5.25,-4 2.65,-0.75 4.7,0.1 5.7,0.65 l -1.85,-1.2 c -2.45,-1.55 -5.4,-0.7 -5.4,-0.7 l 1.8,-0.25 -1.8,0.25 0.5,-0.35 c 0.55,-0.35 4.2,-0.5 4.2,-0.5 l -2.25,-0.55 -2.9,-0.1 2.9,0.1 c -2.3,-0.5 -4.05,0.7 -4.2,-1.4 -0.1,-0.95 0.15,-1.95 0.75,-3.05 0.35,-0.65 0.75,-1.25 1.2,-1.75 0.1,0 0.2,0 0.3,0 3.2,0.3 5.25,0.2 6.1,-0.3 l 0.05,-0.05 c 0.3,-0.45 0.3,-0.95 -0.2,-1.5 -0.35,-0.35 -0.75,-0.6 -1.3,-0.8 -0.35,-0.4 -1.15,-0.65 -2.35,-0.7 0.8,0.05 1.45,0.25 1.95,0.5 -2.4,0.05 -4.85,0.65 -6.15,2.1 -1.95,2.1 -3.85,3.5 -3.85,5.9 0,2.45 1.55,3 2.1,2.8 l 0.5,-0.15 c 0,0 -2.95,1.55 -3.15,4.35 -0.15,2.8 1.4,2.45 5.1,2.6 l 3.65,0.2 c 0,0 -6.3,0.35 -7.7,1.55 l -1.4,1.25 c 0,0 5.25,-4.2 13.15,-0.7 3.35,1.45 5.05,2.55 5.95,3.3 0,-0.5 0,-1.05 -0.05,-1.65 z m -17.1,-20.1 c 0.6,-0.55 1.35,-0.95 2.3,-1.3 0.9,-0.35 1.85,-0.55 2.8,-0.65 -0.7,-0.05 -1.35,0 -1.95,0.05 -0.5,0.05 0.55,-0.3 1.95,-0.65 -0.2,0.05 -0.4,0.05 -0.6,0.05 -3.1,0.35 -4.6,1.9 -4.6,1.9 l 0.1,0.6 z"
               inkscape:connector-curvature="0"
               style="fill:#d9d9d9" />
            <path
               id="path148"
               d="m 11.501,-2.499 c 0,-0.05 0,-0.1 0,-0.15 -0.9,-0.75 -2.6,-1.85 -5.95,-3.3 -7.9,-3.5 -13.15,0.7 -13.15,0.7 l 1.4,-1.25 c 1.4,-1.2 7.7,-1.55 7.7,-1.55 l -3.65,-0.2 c -3.7,-0.15 -5.25,0.2 -5.1,-2.6 0.2,-2.8 3.15,-4.35 3.15,-4.35 l -0.5,0.15 c -0.55,0.2 -2.1,-0.35 -2.1,-2.8 0,-2.4 1.9,-3.8 3.85,-5.9 1.3,-1.45 3.75,-2.05 6.15,-2.1 -0.5,-0.25 -1.15,-0.45 -1.95,-0.5 l -0.9,-0.05 c -0.35,0 -0.65,0 -1,0.05 -0.95,0.1 -1.9,0.3 -2.8,0.65 -0.95,0.35 -1.7,0.75 -2.3,1.3 -0.15,0.1 -0.25,0.2 -0.35,0.3 q -1.35,1.3 -2.45,8.55 c -0.35,2.25 -2.45,8.7 -2.65,11.15 l -0.15,2.45 c 0.4,-0.75 1.2,-1.55 2.35,-2.3 2.35,-1.5 5.4,-2.2 9.2,-2.05 9.05,0.35 11.15,4.35 11.15,4.35 0.05,-0.15 0.05,-0.35 0.05,-0.55 z"
               inkscape:connector-curvature="0"
               style="fill:#b8b8b8" />
            <path
               id="path149"
               d="m 5.001,-24.849 c 0.5,0.55 0.5,1.05 0.2,1.5 l -0.05,0.05 c -0.85,0.5 -2.9,0.6 -6.1,0.3 -0.1,0 -0.2,0 -0.3,0 -0.45,0.5 -0.85,1.1 -1.2,1.75 -0.6,1.1 -0.85,2.1 -0.75,3.05 0.15,2.1 1.9,0.9 4.2,1.4 l -2.9,-0.1 2.9,0.1 2.25,0.55 c 0,0 -3.65,0.15 -4.2,0.5 l -0.5,0.35 1.8,-0.25 -1.8,0.25 c 0,0 2.95,-0.85 5.4,0.7 l 1.85,1.2 c -1,-0.55 -3.05,-1.4 -5.7,-0.65 -3.65,1.05 -5.6,2.75 -5.25,4 0.35,1.2 2.65,-0.65 7.2,0.9 4.55,1.55 8.9,2.05 7.3,-1.1 -1.55,-3.1 -1.4,-4.35 -1.55,-5.9 -0.1,-0.7 0,-1.8 0.15,-2.8 -0.05,-0.35 -0.1,-0.55 -0.15,-0.7 -0.55,-2.05 -1.25,-3.6 -2.2,-4.55 -0.15,-0.95 -0.9,-1.7 -2.2,-2.15 -1.15,-0.4 -2.45,-0.55 -3.95,-0.5 -1.4,0.35 -2.45,0.7 -1.95,0.65 0.6,-0.05 1.25,-0.1 1.95,-0.05 0.35,-0.05 0.65,-0.05 1,-0.05 l 0.9,0.05 c 1.2,0.05 2,0.3 2.35,0.7 0.55,0.2 0.95,0.45 1.3,0.8 z"
               inkscape:connector-curvature="0"
               style="fill:#f3efe9" />
            <path
               id="path152"
               d="m -8.899,-4.249 c -1.15,0.75 -1.95,1.55 -2.35,2.3 l 2.35,-2.3"
               inkscape:connector-curvature="0"
               style="fill:#f3efe9" />
          </g>
        </g>
      </g>
    </g>
    <g
       id="backShirtTorso20101130_0_0">
      <g
         id="element"
         overflow="visible"
         style="overflow:visible">
        <g
           id="backShirtTorso20101130Color_2_0">
          <g
             id="element2">
            <path
               id="path"
               d="m 10.001,-9.899 -0.4,-1.2 -0.85,-0.85 -0.15,-0.2 c 0,0.05 0,0.05 0.05,0.1 0.35,0.85 0.55,1.4 0.7,1.65 0.25,0.15 0.45,0.35 0.65,0.5 z m -15.9,-1.95 c 0.85,-0.35 1.7,-0.6 2.6,-0.85 0,0 0,0 0.1,-0.05 0.75,-0.5 1.9,-1 3.3,-1.4 2.65,-0.75 4.75,0.1 5.7,0.65 l -0.7,-0.45 c -2.05,-0.75 -4.4,-1.2 -6.35,-1.2 -2.35,0.05 -5.9,1.95 -8.1,3.25 0.95,-0.55 2.15,-1.25 3.4,-1.8 -0.55,0.65 -1.1,1.5 -1.25,2.5 -1.35,0.8 -2.25,1.45 -2.85,2.05 0.7,-0.65 1.75,-1.45 3.45,-2.35 l 0.7,-0.35 z m 16.85,4.45 c -0.2,-0.25 -0.4,-0.45 -0.65,-0.65 -0.25,-0.2 -0.5,-0.4 -0.75,-0.6 -0.25,0.45 -0.95,0.6 -1.9,0.6 0.1,0.05 0.2,0.1 0.15,0.1 0.3,0.15 0.4,0.2 0.55,0.3 l 3,2.3 c -0.1,-0.65 -0.2,-1.35 -0.4,-2.05 z m -16.05,-2.75 0,-0.05 c -0.15,0.05 -0.25,0.1 -0.35,0.15 -0.5,0.2 -1,0.45 -1.55,0.75 0.15,0.35 0.55,0.65 1.1,0.8 l 0.05,0 c 2.15,-0.85 4.3,-1.2 6.4,-1.15 -1.2,-0.25 -2.55,-0.25 -4,-0.1 -1,0.1 -1.55,-0.05 -1.65,-0.4 z m 7.15,-14.55 -0.25,-0.05 c -1.45,-0.2 -3,-0.1 -4.65,0.25 0.65,-0.1 0.95,-0.15 1.25,-0.2 -0.5,0.25 -0.9,0.55 -1.25,0.95 l -0.25,0.3 1.95,-0.2 c 0.15,-0.05 0.35,-0.05 0.5,-0.05 0.5,-0.35 1.55,-0.75 2.7,-1 z m 3.55,0.9 0.05,-0.2 c 0,-2.15 -3,-3 -6.15,-2.95 -1.45,0.35 -2.5,0.7 -2,0.65 0.25,-0.05 0.75,-0.05 1.25,-0.05 0.5,-0.1 1.2,-0.15 1.9,-0.1 2.05,0.2 3.85,1.05 4.95,2.65 z m -5.6,7 c 0.1,0 0.2,0 0.3,0 l -2.2,-0.1 c -0.8,-0.05 -1.25,-0.45 -1.3,-1.3 l 0,-0.05 c -1.1,0.3 -2.25,0.75 -3.45,1.25 0.25,0.85 0.5,1.3 0.85,1.55 0.15,-0.05 0.3,-0.15 0.45,-0.2 0,-0.05 0,-0.05 0.05,-0.05 1.6,-0.75 3.35,-1.1 5.3,-1.1 z m 7.85,0.85 0,0.1 0.2,1.65 0.4,0.35 0.2,0.15 c 0.05,0.05 0.15,0.15 0.25,0.2 0.05,0.05 0.05,0.05 0.1,0.1 l -0.2,-0.8 c -0.15,-0.4 -0.4,-1 -0.95,-1.75 z m -10,-5.8 c -0.35,0.05 -0.75,0.15 -1.1,0.2 l -1.25,0.4 c -0.35,0.1 -0.7,0.25 -1.2,0.5 -0.35,0.5 -0.65,1.05 -0.8,1.6 l 2.25,-0.85 c 0.45,-0.15 0.95,-0.25 1.4,-0.35 0.15,-0.55 0.4,-1.05 0.7,-1.5 z m 0.1,14.05 c -0.3,0 -0.7,0.1 -1.1,0.15 0,0 -0.25,0.05 -0.25,0.05 -0.8,0.15 -1.45,0.35 -1.9,0.55 -0.35,0.15 -0.65,0.3 -0.85,0.45 l -1.4,1.25 3.6,-1.65 -3.6,1.65 c 0,0 5.25,-4.2 13.1,-0.7 3.35,1.45 5.1,2.55 5.95,3.3 l 0,0.7 c 0,0 0.05,-0.45 0,-1.2 -1.3,-1.4 -4.45,-3.1 -6.85,-3.85 -0.1,-0.05 -0.2,-0.05 -0.25,-0.05 -0.25,-0.1 -0.5,-0.2 -0.75,-0.25 l -5.2,-0.45 -0.05,0 c 0,0 0,0 -0.2,0.05 0.05,-0.05 -0.05,-0.05 -0.1,0 0,0 0,0 -0.15,0 z"
               inkscape:connector-curvature="0"
               style="fill:#545454" />
            <path
               id="path1"
               d="m 9.601,-11.099 -0.6,-0.65 c -0.05,-0.05 -0.15,-0.15 -0.25,-0.2 l 0.85,0.85 z m -12.8,-1.65 c 2.6,-0.6 5.3,-0.6 7.85,0.05 1.65,0.45 3.25,1.25 4.7,2.3 -0.15,-0.25 -0.35,-0.8 -0.7,-1.65 -0.9,-0.8 -2.25,-1.5 -4.05,-2.1 -2.05,-0.7 -4,-1.05 -5.85,-1 1.95,0 4.3,0.45 6.35,1.2 l 0.7,0.45 c -0.95,-0.55 -3.05,-1.4 -5.7,-0.65 -1.4,0.4 -2.55,0.9 -3.3,1.4 z m 12.75,4.1 c 0.25,0.2 0.5,0.4 0.75,0.6 -0.45,-0.45 -1,-0.85 -1.6,-1.25 -2.7,-1.85 -6.15,-1.95 -10.4,-1.75 -1,0.05 -2.1,0.3 -3.4,0.85 l 0,0.05 c 0.1,0.35 0.65,0.5 1.65,0.4 1.45,-0.15 2.8,-0.15 4,0.1 l 0.05,0 c 1.6,0.05 3.15,0.25 4.8,0.7 0.85,0.2 1.7,0.6 2.4,1 0.05,0 -0.05,-0.05 -0.15,-0.1 0.95,0 1.65,-0.15 1.9,-0.6 z m -2.5,-13.45 c -0.65,-0.8 -1.7,-2.15 -5.25,-2.65 l 0.25,0.05 c -1.15,0.25 -2.2,0.65 -2.7,1 -0.15,0 -0.35,0 -0.5,0.05 0.45,-0.05 0.9,-0.05 1.35,-0.05 2.05,0.05 3.55,0.25 4.55,0.65 1.1,0.45 2.1,1.4 2.7,2.1 l -0.4,-1.15 z m 0.8,6.25 c -0.15,-0.25 -0.35,-0.45 -0.55,-0.65 -1.4,-1.4 -4.8,-2.4 -7.8,-2.25 -0.75,0.05 -1.65,0.2 -2.7,0.5 l 0,0.05 c 0.05,0.85 0.5,1.25 1.3,1.3 l 2.2,0.1 c 1.5,0 2.95,0.2 4.35,0.65 1.05,0.35 2.3,1.1 3.8,2.3 l -0.4,-0.35 -0.2,-1.65 z m 0.25,-2.35 -0.15,-0.85 c -1.05,-1.55 -3,-2.75 -8.3,-2.85 -1,0 -1.95,0.1 -2.9,0.35 0.35,-0.05 0.75,-0.15 1.1,-0.2 -0.3,0.45 -0.55,0.95 -0.7,1.5 0.25,-0.05 0.45,-0.1 0.7,-0.15 2.05,-0.35 4,-0.35 5.8,0.1 2.05,0.45 3.55,1.4 4.45,2.1 z"
               inkscape:connector-curvature="0"
               style="fill:#737373" />
            <path
               id="path6"
               d="m -10.049,-9.149 c 0.6,-0.6 1.5,-1.25 2.85,-2.05 0.15,-1 0.7,-1.85 1.25,-2.5 -1.25,0.55 -2.45,1.25 -3.4,1.8 l -0.7,2.75 z m 4.2,0.65 -0.05,0 c -0.55,-0.15 -0.95,-0.45 -1.1,-0.8 -0.15,0.05 -0.25,0.15 -0.35,0.2 l -0.65,0.35 c -1.05,0.65 -1.95,1.3 -2.65,1.85 l -0.2,1.1 c 0.7,-0.6 1.95,-1.35 4.25,-2.4 l 0.75,-0.3 z m 4.25,-16.2 c -0.3,0.05 -0.6,0.1 -1.25,0.2 -1.45,0.35 -2.7,0.8 -3.75,1.35 l -0.45,1.2 c 0.5,-0.35 1.15,-0.7 2.05,-1.05 0.25,-0.1 0.55,-0.15 0.8,-0.25 0.05,0 0.1,0 0.15,0 0.05,-0.05 0.05,-0.05 0.1,-0.05 0.05,0 0.15,0 0.2,-0.05 0.2,-0.05 0.4,-0.05 0.6,-0.1 l 0.05,0 0.25,-0.3 c 0.35,-0.4 0.75,-0.7 1.25,-0.95 z m 1.1,-2.25 c 0,0 -0.3,0 -0.6,0.05 -3.15,0.35 -4.65,1.9 -4.65,1.9 l 0.1,0.55 c 0.55,-0.75 1.35,-1.3 2.3,-1.5 l 2.2,-0.4 c 0,0 0,0 -0.1,0 -0.5,0 -1,0 -1.25,0.05 -0.5,0.05 0.55,-0.3 2,-0.65 z m -6.15,9.95 0,-0.05 -0.35,0.2 c -0.4,0.15 -0.9,0.4 -1.35,0.65 l -0.1,0.65 c -0.05,0.45 -0.2,1.05 -0.4,1.75 0.6,-0.4 1.6,-0.9 3.05,-1.65 -0.35,-0.25 -0.6,-0.7 -0.85,-1.55 z m 0,-3.1 c -0.1,0.05 -0.1,0.05 -0.1,0.05 l -1,0.65 -0.25,1.2 c 0.45,-0.3 0.9,-0.55 1.35,-0.75 0.05,-0.05 0.15,-0.1 0.15,-0.1 0.15,-0.55 0.45,-1.1 0.8,-1.6 -0.35,0.15 -0.7,0.35 -0.95,0.55 z m -0.05,13.55 c -2.15,0.85 -3.5,1.75 -4.4,2.55 l -0.15,2.05 2.35,-2.3 -2.35,2.3 c 0,0 2.45,-4.7 11.55,-4.35 9.1,0.35 11.2,4.35 11.2,4.35 l 0,-0.7 c -0.85,-0.75 -2.6,-1.85 -5.95,-3.3 -7.85,-3.5 -13.1,0.7 -13.1,0.7 l 3.6,-1.65 -3.6,1.65 1.4,-1.25 c 0.2,-0.15 0.5,-0.3 0.85,-0.45 l -0.6,0.15 c -0.25,0.05 -0.55,0.15 -0.8,0.25 z m 3.55,-1 c 0.4,-0.05 0.8,-0.15 1.1,-0.15 0,0 -0.1,0 -0.2,0 -0.3,0.05 -0.6,0.1 -0.9,0.15 z"
               inkscape:connector-curvature="0"
               style="fill:#2e2e2e" />
          </g>
          <g
             id="element3">
            <path
               id="path45"
               d="m 9.601,-11.099 -0.6,-0.65 c -0.05,-0.05 -0.15,-0.15 -0.25,-0.2 l 0.85,0.85 z m -12.8,-1.65 c 2.6,-0.6 5.3,-0.6 7.85,0.05 1.65,0.45 3.25,1.25 4.7,2.3 -0.15,-0.25 -0.35,-0.8 -0.7,-1.65 -0.9,-0.8 -2.25,-1.5 -4.05,-2.1 -2.05,-0.7 -4,-1.05 -5.85,-1 1.95,0 4.3,0.45 6.35,1.2 l 0.7,0.45 c -0.95,-0.55 -3.05,-1.4 -5.7,-0.65 -1.4,0.4 -2.55,0.9 -3.3,1.4 z m 12.75,4.1 c 0.25,0.2 0.5,0.4 0.75,0.6 -0.45,-0.45 -1,-0.85 -1.6,-1.25 -2.7,-1.85 -6.15,-1.95 -10.4,-1.75 -1,0.05 -2.1,0.3 -3.4,0.85 l 0,0.05 c 0.1,0.35 0.65,0.5 1.65,0.4 1.45,-0.15 2.8,-0.15 4,0.1 l 0.05,0 c 1.6,0.05 3.15,0.25 4.8,0.7 0.85,0.2 1.7,0.6 2.4,1 0.05,0 -0.05,-0.05 -0.15,-0.1 0.95,0 1.65,-0.15 1.9,-0.6 z m -2.5,-13.45 c -0.65,-0.8 -1.7,-2.15 -5.25,-2.65 l 0.25,0.05 c -1.15,0.25 -2.2,0.65 -2.7,1 -0.15,0 -0.35,0 -0.5,0.05 0.45,-0.05 0.9,-0.05 1.35,-0.05 2.05,0.05 3.55,0.25 4.55,0.65 1.1,0.45 2.1,1.4 2.7,2.1 l -0.4,-1.15 z m 0.8,6.25 c -0.15,-0.25 -0.35,-0.45 -0.55,-0.65 -1.4,-1.4 -4.8,-2.4 -7.8,-2.25 -0.75,0.05 -1.65,0.2 -2.7,0.5 l 0,0.05 c 0.05,0.85 0.5,1.25 1.3,1.3 l 2.2,0.1 c 1.5,0 2.95,0.2 4.35,0.65 1.05,0.35 2.3,1.1 3.8,2.3 l -0.4,-0.35 -0.2,-1.65 z m 0.25,-2.35 -0.15,-0.85 c -1.05,-1.55 -3,-2.75 -8.3,-2.85 -1,0 -1.95,0.1 -2.9,0.35 0.35,-0.05 0.75,-0.15 1.1,-0.2 -0.3,0.45 -0.55,0.95 -0.7,1.5 0.25,-0.05 0.45,-0.1 0.7,-0.15 2.05,-0.35 4,-0.35 5.8,0.1 2.05,0.45 3.55,1.4 4.45,2.1 z"
               inkscape:connector-curvature="0"
               style="fill:#737373" />
            <path
               id="path46"
               d="m 9.351,-10.399 c 0.25,0.15 0.45,0.35 0.65,0.5 l -0.4,-1.2 -0.85,-0.85 -0.15,-0.2 c 0,0.05 0,0.05 0.05,0.1 0.35,0.85 0.55,1.4 0.7,1.65 z m -12.65,-2.3 c 0,0 0,0 0.1,-0.05 0.75,-0.5 1.9,-1 3.3,-1.4 2.65,-0.75 4.75,0.1 5.7,0.65 l -0.7,-0.45 c -2.05,-0.75 -4.4,-1.2 -6.35,-1.2 -2.35,0.05 -5.9,1.95 -8.1,3.25 0.95,-0.55 2.15,-1.25 3.4,-1.8 -0.55,0.65 -1.1,1.5 -1.25,2.5 -1.35,0.8 -2.25,1.45 -2.85,2.05 0.7,-0.65 1.75,-1.45 3.45,-2.35 l 0.7,-0.35 c 0.85,-0.35 1.7,-0.6 2.6,-0.85 z m 13.6,4.65 c -0.25,-0.2 -0.5,-0.4 -0.75,-0.6 -0.25,0.45 -0.95,0.6 -1.9,0.6 0.1,0.05 0.2,0.1 0.15,0.1 0.3,0.15 0.4,0.2 0.55,0.3 l 3,2.3 c -0.1,-0.65 -0.2,-1.35 -0.4,-2.05 -0.2,-0.25 -0.4,-0.45 -0.65,-0.65 z m -13.75,-1.7 c -1,0.1 -1.55,-0.05 -1.65,-0.4 l 0,-0.05 c -0.15,0.05 -0.25,0.1 -0.35,0.15 -0.5,0.2 -1,0.45 -1.55,0.75 0.15,0.35 0.55,0.65 1.1,0.8 l 0.05,0 c 2.15,-0.85 4.3,-1.2 6.4,-1.15 -1.2,-0.25 -2.55,-0.25 -4,-0.1 z m 9.05,-14.05 0.05,-0.2 c 0,-2.15 -3,-3 -6.15,-2.95 -1.45,0.35 -2.5,0.7 -2,0.65 0.25,-0.05 0.75,-0.05 1.25,-0.05 0.5,-0.1 1.2,-0.15 1.9,-0.1 2.05,0.2 3.85,1.05 4.95,2.65 z m -6.25,0.1 c 0.5,-0.35 1.55,-0.75 2.7,-1 l -0.25,-0.05 c -1.45,-0.2 -3,-0.1 -4.65,0.25 0.65,-0.1 0.95,-0.15 1.25,-0.2 -0.5,0.25 -0.9,0.55 -1.25,0.95 l -0.25,0.3 1.95,-0.2 c 0.15,-0.05 0.35,-0.05 0.5,-0.05 z m 0.65,6.9 c 0.1,0 0.2,0 0.3,0 l -2.2,-0.1 c -0.8,-0.05 -1.25,-0.45 -1.3,-1.3 l 0,-0.05 c -1.1,0.3 -2.25,0.75 -3.45,1.25 0.25,0.85 0.5,1.3 0.85,1.55 0.15,-0.05 0.3,-0.15 0.45,-0.2 0,-0.05 0,-0.05 0.05,-0.05 1.6,-0.75 3.35,-1.1 5.3,-1.1 z m 7.85,0.85 0,0.1 0.2,1.65 0.4,0.35 0.2,0.15 c 0.05,0.05 0.15,0.15 0.25,0.2 0.05,0.05 0.05,0.05 0.1,0.1 l -0.2,-0.8 c -0.15,-0.4 -0.4,-1 -0.95,-1.75 z m -10,-5.8 c -0.35,0.05 -0.75,0.15 -1.1,0.2 l -1.25,0.4 c -0.35,0.1 -0.7,0.25 -1.2,0.5 -0.35,0.5 -0.65,1.05 -0.8,1.6 l 2.25,-0.85 c 0.45,-0.15 0.95,-0.25 1.4,-0.35 0.15,-0.55 0.4,-1.05 0.7,-1.5 z m 0.1,14.05 c -0.3,0 -0.7,0.1 -1.1,0.15 0,0 -0.25,0.05 -0.25,0.05 -0.8,0.15 -1.45,0.35 -1.9,0.55 -0.35,0.15 -0.65,0.3 -0.85,0.45 l -1.4,1.25 3.6,-1.65 -3.6,1.65 c 0,0 5.25,-4.2 13.1,-0.7 3.35,1.45 5.1,2.55 5.95,3.3 l 0,0.7 c 0,0 0.05,-0.45 0,-1.2 -1.3,-1.4 -4.45,-3.1 -6.85,-3.85 -0.1,-0.05 -0.2,-0.05 -0.25,-0.05 -0.25,-0.1 -0.5,-0.2 -0.75,-0.25 l -5.2,-0.45 -0.05,0 c 0,0 0,0 -0.2,0.05 0.05,-0.05 -0.05,-0.05 -0.1,0 0,0 0,0 -0.15,0 z"
               inkscape:connector-curvature="0"
               style="fill:#545454" />
            <path
               id="path51"
               d="m -10.049,-9.149 c 0.6,-0.6 1.5,-1.25 2.85,-2.05 0.15,-1 0.7,-1.85 1.25,-2.5 -1.25,0.55 -2.45,1.25 -3.4,1.8 l -0.7,2.75 z m 4.2,0.65 -0.05,0 c -0.55,-0.15 -0.95,-0.45 -1.1,-0.8 -0.15,0.05 -0.25,0.15 -0.35,0.2 l -0.65,0.35 c -1.05,0.65 -1.95,1.3 -2.65,1.85 l -0.2,1.1 c 0.7,-0.6 1.95,-1.35 4.25,-2.4 l 0.75,-0.3 z m 5.35,-18.45 c 0,0 -0.3,0 -0.6,0.05 -3.15,0.35 -4.65,1.9 -4.65,1.9 l 0.1,0.55 c 0.55,-0.75 1.35,-1.3 2.3,-1.5 l 2.2,-0.4 c 0,0 0,0 -0.1,0 -0.5,0 -1,0 -1.25,0.05 -0.5,0.05 0.55,-0.3 2,-0.65 z m -1.1,2.25 c -0.3,0.05 -0.6,0.1 -1.25,0.2 -1.45,0.35 -2.7,0.8 -3.75,1.35 l -0.45,1.2 c 0.5,-0.35 1.15,-0.7 2.05,-1.05 0.25,-0.1 0.55,-0.15 0.8,-0.25 0.05,0 0.1,0 0.15,0 0.05,-0.05 0.05,-0.05 0.1,-0.05 0.05,0 0.15,0 0.2,-0.05 0.2,-0.05 0.4,-0.05 0.6,-0.1 l 0.05,0 0.25,-0.3 c 0.35,-0.4 0.75,-0.7 1.25,-0.95 z m -5.05,7.7 0,-0.05 -0.35,0.2 c -0.4,0.15 -0.9,0.4 -1.35,0.65 l -0.1,0.65 c -0.05,0.45 -0.2,1.05 -0.4,1.75 0.6,-0.4 1.6,-0.9 3.05,-1.65 -0.35,-0.25 -0.6,-0.7 -0.85,-1.55 z m 0,-3.1 c -0.1,0.05 -0.1,0.05 -0.1,0.05 l -1,0.65 -0.25,1.2 c 0.45,-0.3 0.9,-0.55 1.35,-0.75 0.05,-0.05 0.15,-0.1 0.15,-0.1 0.15,-0.55 0.45,-1.1 0.8,-1.6 -0.35,0.15 -0.7,0.35 -0.95,0.55 z m -0.05,13.55 c -2.15,0.85 -3.5,1.75 -4.4,2.55 l -0.15,2.05 2.35,-2.3 -2.35,2.3 c 0,0 2.45,-4.7 11.55,-4.35 9.1,0.35 11.2,4.35 11.2,4.35 l 0,-0.7 c -0.85,-0.75 -2.6,-1.85 -5.95,-3.3 -7.85,-3.5 -13.1,0.7 -13.1,0.7 l 3.6,-1.65 -3.6,1.65 1.4,-1.25 c 0.2,-0.15 0.5,-0.3 0.85,-0.45 l -0.6,0.15 c -0.25,0.05 -0.55,0.15 -0.8,0.25 z m 3.55,-1 c 0.4,-0.05 0.8,-0.15 1.1,-0.15 0,0 -0.1,0 -0.2,0 -0.3,0.05 -0.6,0.1 -0.9,0.15 z"
               inkscape:connector-curvature="0"
               style="fill:#2e2e2e" />
          </g>
          <g
             id="element4">
            <path
               id="path90"
               d="m 9.601,-11.099 -0.6,-0.65 c -0.05,-0.05 -0.15,-0.15 -0.25,-0.2 l 0.85,0.85 z m -12.8,-1.65 c 2.6,-0.6 5.3,-0.6 7.85,0.05 1.65,0.45 3.25,1.25 4.7,2.3 -0.15,-0.25 -0.35,-0.8 -0.7,-1.65 -0.9,-0.8 -2.25,-1.5 -4.05,-2.1 -2.05,-0.7 -4,-1.05 -5.85,-1 1.95,0 4.3,0.45 6.35,1.2 l 0.7,0.45 c -0.95,-0.55 -3.05,-1.4 -5.7,-0.65 -1.4,0.4 -2.55,0.9 -3.3,1.4 z m 12.75,4.1 c 0.25,0.2 0.5,0.4 0.75,0.6 -0.45,-0.45 -1,-0.85 -1.6,-1.25 -2.7,-1.85 -6.15,-1.95 -10.4,-1.75 -1,0.05 -2.1,0.3 -3.4,0.85 l 0,0.05 c 0.1,0.35 0.65,0.5 1.65,0.4 1.45,-0.15 2.8,-0.15 4,0.1 l 0.05,0 c 1.6,0.05 3.15,0.25 4.8,0.7 0.85,0.2 1.7,0.6 2.4,1 0.05,0 -0.05,-0.05 -0.15,-0.1 0.95,0 1.65,-0.15 1.9,-0.6 z m -2.5,-13.45 c -0.65,-0.8 -1.7,-2.15 -5.25,-2.65 l 0.25,0.05 c -1.15,0.25 -2.2,0.65 -2.7,1 -0.15,0 -0.35,0 -0.5,0.05 0.45,-0.05 0.9,-0.05 1.35,-0.05 2.05,0.05 3.55,0.25 4.55,0.65 1.1,0.45 2.1,1.4 2.7,2.1 l -0.4,-1.15 z m 0.8,6.25 c -0.15,-0.25 -0.35,-0.45 -0.55,-0.65 -1.4,-1.4 -4.8,-2.4 -7.8,-2.25 -0.75,0.05 -1.65,0.2 -2.7,0.5 l 0,0.05 c 0.05,0.85 0.5,1.25 1.3,1.3 l 2.2,0.1 c 1.5,0 2.95,0.2 4.35,0.65 1.05,0.35 2.3,1.1 3.8,2.3 l -0.4,-0.35 -0.2,-1.65 z m 0.25,-2.35 -0.15,-0.85 c -1.05,-1.55 -3,-2.75 -8.3,-2.85 -1,0 -1.95,0.1 -2.9,0.35 0.35,-0.05 0.75,-0.15 1.1,-0.2 -0.3,0.45 -0.55,0.95 -0.7,1.5 0.25,-0.05 0.45,-0.1 0.7,-0.15 2.05,-0.35 4,-0.35 5.8,0.1 2.05,0.45 3.55,1.4 4.45,2.1 z"
               inkscape:connector-curvature="0"
               style="fill:#737373" />
            <path
               id="path91"
               d="m 9.351,-10.399 c 0.25,0.15 0.45,0.35 0.65,0.5 l -0.4,-1.2 -0.85,-0.85 -0.15,-0.2 c 0,0.05 0,0.05 0.05,0.1 0.35,0.85 0.55,1.4 0.7,1.65 z m -12.65,-2.3 c 0,0 0,0 0.1,-0.05 0.75,-0.5 1.9,-1 3.3,-1.4 2.65,-0.75 4.75,0.1 5.7,0.65 l -0.7,-0.45 c -2.05,-0.75 -4.4,-1.2 -6.35,-1.2 -2.35,0.05 -5.9,1.95 -8.1,3.25 0.95,-0.55 2.15,-1.25 3.4,-1.8 -0.55,0.65 -1.1,1.5 -1.25,2.5 -1.35,0.8 -2.25,1.45 -2.85,2.05 0.7,-0.65 1.75,-1.45 3.45,-2.35 l 0.7,-0.35 c 0.85,-0.35 1.7,-0.6 2.6,-0.85 z m 13.6,4.65 c -0.25,-0.2 -0.5,-0.4 -0.75,-0.6 -0.25,0.45 -0.95,0.6 -1.9,0.6 0.1,0.05 0.2,0.1 0.15,0.1 0.3,0.15 0.4,0.2 0.55,0.3 l 3,2.3 c -0.1,-0.65 -0.2,-1.35 -0.4,-2.05 -0.2,-0.25 -0.4,-0.45 -0.65,-0.65 z m -13.75,-1.7 c -1,0.1 -1.55,-0.05 -1.65,-0.4 l 0,-0.05 c -0.15,0.05 -0.25,0.1 -0.35,0.15 -0.5,0.2 -1,0.45 -1.55,0.75 0.15,0.35 0.55,0.65 1.1,0.8 l 0.05,0 c 2.15,-0.85 4.3,-1.2 6.4,-1.15 -1.2,-0.25 -2.55,-0.25 -4,-0.1 z m 9.05,-14.05 0.05,-0.2 c 0,-2.15 -3,-3 -6.15,-2.95 -1.45,0.35 -2.5,0.7 -2,0.65 0.25,-0.05 0.75,-0.05 1.25,-0.05 0.5,-0.1 1.2,-0.15 1.9,-0.1 2.05,0.2 3.85,1.05 4.95,2.65 z m -6.25,0.1 c 0.5,-0.35 1.55,-0.75 2.7,-1 l -0.25,-0.05 c -1.45,-0.2 -3,-0.1 -4.65,0.25 0.65,-0.1 0.95,-0.15 1.25,-0.2 -0.5,0.25 -0.9,0.55 -1.25,0.95 l -0.25,0.3 1.95,-0.2 c 0.15,-0.05 0.35,-0.05 0.5,-0.05 z m 0.65,6.9 c 0.1,0 0.2,0 0.3,0 l -2.2,-0.1 c -0.8,-0.05 -1.25,-0.45 -1.3,-1.3 l 0,-0.05 c -1.1,0.3 -2.25,0.75 -3.45,1.25 0.25,0.85 0.5,1.3 0.85,1.55 0.15,-0.05 0.3,-0.15 0.45,-0.2 0,-0.05 0,-0.05 0.05,-0.05 1.6,-0.75 3.35,-1.1 5.3,-1.1 z m 7.85,0.85 0,0.1 0.2,1.65 0.4,0.35 0.2,0.15 c 0.05,0.05 0.15,0.15 0.25,0.2 0.05,0.05 0.05,0.05 0.1,0.1 l -0.2,-0.8 c -0.15,-0.4 -0.4,-1 -0.95,-1.75 z m -10,-5.8 c -0.35,0.05 -0.75,0.15 -1.1,0.2 l -1.25,0.4 c -0.35,0.1 -0.7,0.25 -1.2,0.5 -0.35,0.5 -0.65,1.05 -0.8,1.6 l 2.25,-0.85 c 0.45,-0.15 0.95,-0.25 1.4,-0.35 0.15,-0.55 0.4,-1.05 0.7,-1.5 z m 0.1,14.05 c -0.3,0 -0.7,0.1 -1.1,0.15 0,0 -0.25,0.05 -0.25,0.05 -0.8,0.15 -1.45,0.35 -1.9,0.55 -0.35,0.15 -0.65,0.3 -0.85,0.45 l -1.4,1.25 3.6,-1.65 -3.6,1.65 c 0,0 5.25,-4.2 13.1,-0.7 3.35,1.45 5.1,2.55 5.95,3.3 l 0,0.7 c 0,0 0.05,-0.45 0,-1.2 -1.3,-1.4 -4.45,-3.1 -6.85,-3.85 -0.1,-0.05 -0.2,-0.05 -0.25,-0.05 -0.25,-0.1 -0.5,-0.2 -0.75,-0.25 l -5.2,-0.45 -0.05,0 c 0,0 0,0 -0.2,0.05 0.05,-0.05 -0.05,-0.05 -0.1,0 0,0 0,0 -0.15,0 z"
               inkscape:connector-curvature="0"
               style="fill:#545454" />
            <path
               id="path96"
               d="m -10.049,-9.149 c 0.6,-0.6 1.5,-1.25 2.85,-2.05 0.15,-1 0.7,-1.85 1.25,-2.5 -1.25,0.55 -2.45,1.25 -3.4,1.8 l -0.7,2.75 z m 4.2,0.65 -0.05,0 c -0.55,-0.15 -0.95,-0.45 -1.1,-0.8 -0.15,0.05 -0.25,0.15 -0.35,0.2 l -0.65,0.35 c -1.05,0.65 -1.95,1.3 -2.65,1.85 l -0.2,1.1 c 0.7,-0.6 1.95,-1.35 4.25,-2.4 l 0.75,-0.3 z m 5.35,-18.45 c 0,0 -0.3,0 -0.6,0.05 -3.15,0.35 -4.65,1.9 -4.65,1.9 l 0.1,0.55 c 0.55,-0.75 1.35,-1.3 2.3,-1.5 l 2.2,-0.4 c 0,0 0,0 -0.1,0 -0.5,0 -1,0 -1.25,0.05 -0.5,0.05 0.55,-0.3 2,-0.65 z m -1.1,2.25 c -0.3,0.05 -0.6,0.1 -1.25,0.2 -1.45,0.35 -2.7,0.8 -3.75,1.35 l -0.45,1.2 c 0.5,-0.35 1.15,-0.7 2.05,-1.05 0.25,-0.1 0.55,-0.15 0.8,-0.25 0.05,0 0.1,0 0.15,0 0.05,-0.05 0.05,-0.05 0.1,-0.05 0.05,0 0.15,0 0.2,-0.05 0.2,-0.05 0.4,-0.05 0.6,-0.1 l 0.05,0 0.25,-0.3 c 0.35,-0.4 0.75,-0.7 1.25,-0.95 z m -5.05,7.7 0,-0.05 -0.35,0.2 c -0.4,0.15 -0.9,0.4 -1.35,0.65 l -0.1,0.65 c -0.05,0.45 -0.2,1.05 -0.4,1.75 0.6,-0.4 1.6,-0.9 3.05,-1.65 -0.35,-0.25 -0.6,-0.7 -0.85,-1.55 z m 0,-3.1 c -0.1,0.05 -0.1,0.05 -0.1,0.05 l -1,0.65 -0.25,1.2 c 0.45,-0.3 0.9,-0.55 1.35,-0.75 0.05,-0.05 0.15,-0.1 0.15,-0.1 0.15,-0.55 0.45,-1.1 0.8,-1.6 -0.35,0.15 -0.7,0.35 -0.95,0.55 z m -0.05,13.55 c -2.15,0.85 -3.5,1.75 -4.4,2.55 l -0.15,2.05 2.35,-2.3 -2.35,2.3 c 0,0 2.45,-4.7 11.55,-4.35 9.1,0.35 11.2,4.35 11.2,4.35 l 0,-0.7 c -0.85,-0.75 -2.6,-1.85 -5.95,-3.3 -7.85,-3.5 -13.1,0.7 -13.1,0.7 l 3.6,-1.65 -3.6,1.65 1.4,-1.25 c 0.2,-0.15 0.5,-0.3 0.85,-0.45 l -0.6,0.15 c -0.25,0.05 -0.55,0.15 -0.8,0.25 z m 3.55,-1 c 0.4,-0.05 0.8,-0.15 1.1,-0.15 0,0 -0.1,0 -0.2,0 -0.3,0.05 -0.6,0.1 -0.9,0.15 z"
               inkscape:connector-curvature="0"
               style="fill:#2e2e2e" />
          </g>
        </g>
      </g>
    </g>
  </g>
</svg>
