<?xml version="1.0" encoding="UTF-8" standalone="no"?>
<!-- Generator: flash2svg, http://dissentgraphics.com/tools/flash2svg -->

<svg
   xmlns:dc="http://purl.org/dc/elements/1.1/"
   xmlns:cc="http://creativecommons.org/ns#"
   xmlns:rdf="http://www.w3.org/1999/02/22-rdf-syntax-ns#"
   xmlns:svg="http://www.w3.org/2000/svg"
   xmlns="http://www.w3.org/2000/svg"
   xmlns:sodipodi="http://sodipodi.sourceforge.net/DTD/sodipodi-0.dtd"
   xmlns:inkscape="http://www.inkscape.org/namespaces/inkscape"
   id="AvatarAssets"
   image-rendering="auto"
   version="1.1"
   x="0px"
   y="0px"
   width="66.849998"
   height="57.589092"
   viewBox="0 0 66.849998 57.589092"
   inkscape:version="0.48.4 r9939"
   sodipodi:docname="AvatarAssets_backCoatC006.CLIMB-ANI.svg">
  <metadata
     id="metadata3219">
    <rdf:RDF>
      <cc:Work
         rdf:about="">
        <dc:format>image/svg+xml</dc:format>
        <dc:type
           rdf:resource="http://purl.org/dc/dcmitype/StillImage" />
      </cc:Work>
    </rdf:RDF>
  </metadata>
  <sodipodi:namedview
     pagecolor="#ffffff"
     bordercolor="#666666"
     borderopacity="1"
     objecttolerance="10"
     gridtolerance="10"
     guidetolerance="10"
     inkscape:pageopacity="0"
     inkscape:pageshadow="2"
     inkscape:window-width="640"
     inkscape:window-height="480"
     id="namedview3217"
     showgrid="false"
     fit-margin-top="0"
     fit-margin-left="0"
     fit-margin-right="0"
     fit-margin-bottom="0"
     inkscape:zoom="1.9032258"
     inkscape:cx="63.35"
     inkscape:cy="-32.55"
     inkscape:window-x="0"
     inkscape:window-y="0"
     inkscape:window-maximized="0"
     inkscape:current-layer="AvatarAssets" />
  <defs
     id="defs3127" />
  <g
     id="backCoatC7"
     overflow="visible"
     style="overflow:visible"
     transform="translate(31.35,28.139093)">
    <g
       id="backCoatC006_1_1163">
      <g
         id="element10">
        <path
           id="path187"
           d="m 4.65,-27 c 0.4,0.05 1.05,0.2 1.55,0.35 l 0,-0.025 0,-0.025 c 0.2,0.05 0.45,0.15 0.4,0.15 -1.1,-1.4 -6.45,-1.9 -9.15,-1.4 q -1.882,0.396 -3.175,1.175 l 0.025,0.025 c 0.35,-0.05 0.4,-0.05 0.35,-0.05 l -0.025,0 0.125,0 C -4.5,-26.95 -1,-28.15 4.65,-27 z M 9.9,29.4 9.925,29.425 9.95,29.45 c 0.2,-0.3 0.35,-0.55 0.5,-0.8 C 9.85,28.05 9.2,27.5 8.35,26.9 8.1,26.75 7.65,26.45 7.15,26.15 c -0.05,0 -0.1,0 -0.2,-0.1 L 6.925,26.025 6.65,25.875 6.65,25.9 C 5.3,25.15 3.4,24.5 1.2,24.25 0.75,24.2 0.15,24.15 -0.45,24.15 c 0,0 0,0 -0.1,0 -0.95,-0.05 -1.9,0.15 -2.85,0.5 -0.5,0.2 -1,0.35 -1.7,0.55 l -0.025,0 -0.025,0.025 0,0.025 c -0.75,0.15 -1.45,0.3 -2.1,0.4 l 0,-0.025 -0.025,0.025 0.025,0 c -0.05,0 -0.1,0 -0.2,0 0,0 0,0 -0.1,0 -0.4,0.05 -0.8,0.1 -1.35,0.1 -2.35,0.1 -4.95,-0.65 -7.6,-2.2 l -0.025,0 -0.025,0 c -0.05,-0.05 -0.15,-0.1 -0.2,-0.15 l -0.025,0 -0.975,-0.575 0,0.025 C -17.9,22.7 -18.1,22.6 -18.3,22.55 l 0,-0.025 0.025,0 0.025,0.025 c -1.8,-1 -3.75,-1.75 -5.8,-2.2 l 0,-0.025 -0.7,-0.15 0,0.025 c -1.25,-0.25 -2.55,-0.45 -3.9,-0.5 -0.25,0 -0.45,0 -0.65,0.05 l -0.025,0 -0.525,0.05 c -0.45,0.1 -0.85,0.15 -1.25,0.2 0,0 0,0 -0.05,0.05 -0.05,0.45 -0.05,0.7 -0.05,0.9 -0.05,0 -0.05,0 -0.1,0 l -0.05,0.1 c 0.05,0 0.1,0 0.15,0 l 0,-0.025 0,0.025 c 3.15,-0.15 5.75,0.2 7.7,1 1.75,0.75 3.5,1.65 5.2,2.6 3.8,2.2 8,2.6 12.55,1.25 C 0.4,24 5.6,25.15 9.9,29.4 z"
           inkscape:connector-curvature="0"
           style="fill:#2a3b6e" />
        <path
           id="path188"
           d="M 6.2,-26.65 C 5.7,-26.8 5.05,-26.95 4.65,-27 c -5.65,-1.15 -9.15,0.05 -9.9,0.2 l 0.05,0 c 1.2,0.15 2.35,0.65 2.35,0.65 0,0 -1.9,0.05 -4,0.55 -2.1,0.5 -4.45,1.6 -4.45,1.6 l 1.45,-0.6 -1.45,0.6 0.6,1.05 -0.6,-1.05 c 0,0 1,1.7 1.7,3.45 0.55,1.35 0.2,4.6 0.15,6.05 -0.45,1.9 -0.85,3.95 -1.3,6.15 -0.6,2.95 -2.25,5.6 -4.8,7.75 0.3,0.4 0.45,0.9 0.5,1.5 0.05,0.55 0.1,1.15 0.25,1.7 0.05,0.15 0.05,0.35 0.05,0.55 0.4,0.55 0.8,1.25 1.25,2.1 0.45,0.8 1.1,1.35 2,1.6 1.9,0.55 3.55,0.5 5,-0.15 0.2,-0.1 0.4,-0.2 0.65,-0.3 1.05,-0.6 1.95,-1.55 2.75,-2.8 1.25,-1.95 2.1,-4.05 2.55,-6.4 0.1,-0.55 0.25,-1 0.45,-1.45 l 0,-0.025 0,0.1 0.45,-5.025 c 0,-0.2 0,-0.5 0,-0.8 0,-1.35 0.2,-2.7 0.55,-3.5 0.4,-2.45 1.15,-5.6 1.15,-5.6 l -0.7,3.1 0.7,-3.1 0.1,1.35 c 0.05,1 0.55,2.4 0.75,4.8 0.15,2.45 0.7,6 1.5,6.7 0.75,0.65 1.9,-0.85 2.25,-3.35 0.35,-2.5 0.95,-6.6 1.65,-9.35 0.15,-0.6 0.45,-1.05 0.8,-1.35 0,-0.05 0.05,-0.15 0.1,-0.25 0.7,-1.75 1.8,-3.2 1.8,-3.2 l -0.05,0 -4.75,-2.5 0,-0.425 m 2.75,9.875 c 0,-0.2 -0.05,-0.5 -0.05,-1.15 l 0,0.65 0.05,0.475 z"
           inkscape:connector-curvature="0"
           style="fill:#8a131b" />
        <path
           id="path189"
           d="m 6.2,-26.675 0,0.425 4.75,2.5 0.05,0 c 0,0 -0.55,-0.95 -1.95,-1.85 -0.4,-0.25 -1.05,-0.5 -2,-0.8 0,0 -0.2,-0.05 -0.45,-0.15 0.05,0 -0.2,-0.1 -0.4,-0.15 l 0,0.025 z m -11.4,-0.125 -0.05,0 -0.125,0 0.025,0 c 0.05,0 0,0 -0.35,0.05 -0.4,0 -1.5,0.15 -2.8,0.65 0.1,-0.05 0,0 -0.1,0.05 -0.1,0.05 -0.3,0.15 -0.5,0.25 0,0 -0.15,0.1 -0.3,0.2 -1.4,0.9 -1.9,1.6 -1.9,1.6 l 0.45,-0.45 -0.45,0.45 1.45,-0.6 -1.45,0.6 c 0,0 2.35,-1.1 4.45,-1.6 2.1,-0.5 4,-0.55 4,-0.55 0,0 -1.15,-0.5 -2.35,-0.65 z"
           inkscape:connector-curvature="0"
           style="fill:#a9252d" />
        <path
           id="path190"
           d="m 8.95,-19.25 c 0.05,-0.45 0.1,-0.85 0.2,-1.1 0,0 0,0 -0.05,0.05 -0.35,0.3 -0.65,0.75 -0.8,1.35 -0.7,2.75 -1.3,6.85 -1.65,9.35 -0.35,2.5 -1.5,4 -2.25,3.35 -0.8,-0.7 -1.35,-4.25 -1.5,-6.7 -0.2,-2.4 -0.7,-3.8 -0.75,-4.8 l -0.1,-1.35 -0.7,3.1 0.7,-3.1 c 0,0 -0.75,3.15 -1.15,5.6 0.15,-0.65 0.45,-0.95 0.75,-0.5 0.5,0.65 0.1,7.4 -0.4,8.05 -0.5,0.6 -0.8,-1 -0.9,-3.25 l -0.45,5.025 0,-0.1 0,0.025 C -0.3,-3.8 -0.45,-3.35 -0.55,-2.8 -1,-0.45 -1.85,1.65 -3.1,3.6 -3.9,4.85 -4.8,5.8 -5.85,6.4 -6.1,6.5 -6.3,6.6 -6.5,6.7 c -1.45,0.65 -3.1,0.7 -5,0.15 -0.9,-0.25 -1.55,-0.8 -2,-1.6 -0.45,-0.85 -0.85,-1.55 -1.25,-2.1 0,-0.2 0,-0.4 -0.05,-0.55 -0.15,-0.55 -0.2,-1.15 -0.25,-1.7 -0.05,-0.6 -0.2,-1.1 -0.5,-1.5 -0.1,0.05 -0.25,0.2 -0.4,0.35 -0.1,0.1 -0.1,0.1 -0.1,0.1 -0.15,0.1 -0.15,0.1 -0.15,0.1 -3,2.35 -6.3,5.4 -9.95,9.1 -1.7,1.7 -2.85,3.55 -3.4,5.55 -0.25,0.5 -0.45,1.05 -0.6,1.6 -0.05,0.05 -0.05,0.15 -0.1,0.2 -0.25,0.5 -0.35,1 -0.4,1.45 -0.05,0.1 -0.05,0.2 -0.1,0.25 -0.2,0.8 -0.35,1.5 -0.4,1.95 C -31.1,20 -31.1,20 -31.1,20 c 0.4,-0.05 0.8,-0.1 1.25,-0.2 1.05,-1 2,-2.05 2.95,-3.2 0.95,-1.2 1.65,-2.5 2.05,-3.85 0.05,-0.15 0.15,-0.25 0.3,-0.3 0.05,0.15 0.1,0.25 0.15,0.25 0.1,0 0.2,0 0.3,-0.05 0.25,-0.05 0.3,0.05 0.25,0.25 -0.2,0.95 -0.5,1.8 -0.95,2.6 -0.4,0.75 -0.55,1.5 -0.4,2.3 0.1,0.6 0.2,1.2 0.3,1.85 0.3,0.2 0.6,0.45 0.85,0.7 2.05,0.45 4,1.2 5.8,2.2 2.1,-0.25 3.85,-1.2 5.2,-2.95 0.65,-0.85 1.4,-1.6 2.2,-2.25 0.65,1 0.65,2.35 -0.05,4 -0.25,0.65 -0.25,1.25 0.1,1.8 0.75,1.35 1.95,2.05 3.55,2.1 0.15,0 0.3,0.05 0.35,0.15 1.3,-0.95 2.55,-2.1 3.7,-3.4 0.9,-1 1.6,-2.1 2.15,-3.25 0.3,-0.65 0.65,-1.25 1,-1.7 0.35,0.9 0.3,1.9 -0.25,3.05 -0.6,1.25 -0.35,2.15 0.7,2.75 C 0.65,23 0.95,23.1 1.25,23.2 1.1,23.3 0.9,23.4 0.7,23.55 2.1,22.7 3.35,21.6 4.4,20.25 5.65,18.6 6.8,16.9 7.8,15.15 c 0.15,1.4 -0.3,2.95 -1.25,4.6 -1,1.75 -1.05,3.4 -0.1,4.9 0.25,0.4 0.55,0.8 0.85,1.15 0.45,-0.8 0.95,-1.55 1.55,-2.25 0.9,-1.05 2,-1.9 3.3,-2.55 0.3,-0.15 0.6,-0.3 0.85,-0.4 0.95,-4 1.4,-7.8 1.35,-11.7 -0.05,-3.35 -0.65,-6.55 -1.7,-9.6 -0.45,-1.4 -0.9,-2.8 -1.3,-4.15 l 0,-0.025 0.225,-0.025 0.025,0 c -0.15,-0.25 -0.3,-0.5 -0.5,-0.95 -0.25,-0.45 -0.55,-1.25 -0.85,-2.2 -0.4,-1.2 -0.65,-2.7 -0.85,-4 -0.15,-0.8 -0.2,-1.65 -0.25,-2.15 l -0.2,-2.625 -0.05,-0.475 0.05,0.475 0,0.025 c 0,-0.2 -0.05,-0.5 -0.05,-1.15 l -0.025,-0.025 0.05,-1.3 M 4.05,11.05 c -2.45,1.15 -5,1.9 -7.7,2.25 -3.2,0.35 -5.9,-0.55 -8.15,-2.8 -0.05,-0.05 -0.15,-0.1 -0.25,-0.15 C -12.15,10 -12.3,9.7 -12.55,9.4 -12.7,9.15 -12.85,8.9 -13,8.65 -13.1,8.4 -13.2,8.15 -13.25,7.85 -13.3,7.5 -13.5,7.25 -13.8,7 -13.9,6.95 -13.9,6.9 -13.75,6.9 -11,8.6 -7.9,9.45 -4.45,9.5 -1.2,9.55 2,9.1 5.15,8.25 7,7.7 8.8,7.2 10.6,6.65 8.7,8.4 6.5,9.9 4.05,11.05 z"
           inkscape:connector-curvature="0"
           style="fill:#81121a" />
        <path
           id="path191"
           d="M 4.05,11.05 C 6.5,9.9 8.7,8.4 10.6,6.65 8.8,7.2 7,7.7 5.15,8.25 2,9.1 -1.2,9.55 -4.45,9.5 -7.9,9.45 -11,8.6 -13.75,6.9 c -0.15,0 -0.15,0.05 -0.05,0.1 0.3,0.25 0.5,0.5 0.55,0.85 0.05,0.3 0.15,0.55 0.25,0.8 0.15,0.25 0.3,0.5 0.45,0.75 0.25,0.3 0.4,0.6 0.5,0.95 0.1,0.05 0.2,0.1 0.25,0.15 2.25,2.25 4.95,3.15 8.15,2.8 2.7,-0.35 5.25,-1.1 7.7,-2.25 z M 0.9,-13.5 c -0.35,0.8 -0.55,2.15 -0.55,3.5 0,0.3 0,0.6 0,0.8 0.1,2.25 0.4,3.85 0.9,3.25 0.5,-0.65 0.9,-7.4 0.4,-8.05 -0.3,-0.45 -0.6,-0.15 -0.75,0.5 z M 1.25,23.2 C 0.95,23.1 0.65,23 0.4,22.85 c -1.05,-0.6 -1.3,-1.5 -0.7,-2.75 0.55,-1.15 0.6,-2.15 0.25,-3.05 -0.35,0.45 -0.7,1.05 -1,1.7 C -1.6,19.9 -2.3,21 -3.2,22 c -1.15,1.3 -2.4,2.45 -3.7,3.4 -0.05,-0.1 -0.2,-0.15 -0.35,-0.15 -1.6,-0.05 -2.8,-0.75 -3.55,-2.1 -0.35,-0.55 -0.35,-1.15 -0.1,-1.8 0.7,-1.65 0.7,-3 0.05,-4 -0.8,0.65 -1.55,1.4 -2.2,2.25 -1.35,1.75 -3.1,2.7 -5.2,2.95 l -0.025,-0.025 -0.025,0 0,0.025 c 0.2,0.05 0.4,0.15 0.55,0.3 l 0,-0.025 0.975,0.575 0.025,0 c 0.05,0.05 0.15,0.1 0.2,0.15 l 0.025,0 0.025,0 c 2.65,1.55 5.25,2.3 7.6,2.2 0.55,0 0.95,-0.05 1.35,-0.1 0.1,0 0.1,0 0.1,0 0.1,0 0.15,0 0.2,0 l 0,-0.025 -0.025,0.025 0.025,0 c 0.65,-0.1 1.35,-0.25 2.1,-0.4 l 0,-0.025 0.025,-0.025 0.025,0 c 0.7,-0.2 1.2,-0.35 1.7,-0.55 0.95,-0.35 1.9,-0.55 2.85,-0.5 0.1,0 0.1,0 0.1,0 0.6,0 1.2,0.05 1.65,0.1 2.2,0.25 4.1,0.9 5.45,1.65 l 0,-0.025 0.275,0.15 0.025,0.025 c 0.1,0.1 0.15,0.1 0.2,0.1 0.5,0.3 0.95,0.6 1.2,0.75 0.85,0.6 1.5,1.15 2.1,1.75 0.2,-0.25 0.3,-0.45 0.35,-0.55 0.25,-0.6 0.55,-1.2 0.8,-1.8 0.25,-0.5 0.3,-1 0.15,-1.45 0.15,-0.5 0.35,-1 0.5,-1.55 0.15,-0.45 0.3,-0.9 0.4,-1.25 0.15,-0.55 0.3,-1.1 0.35,-1.45 -0.25,0.1 -0.55,0.25 -0.85,0.4 -1.3,0.65 -2.4,1.5 -3.3,2.55 C 8.25,24.25 7.75,25 7.3,25.8 7,25.45 6.7,25.05 6.45,24.65 5.5,23.15 5.55,21.5 6.55,19.75 7.5,18.1 7.95,16.55 7.8,15.15 6.8,16.9 5.65,18.6 4.4,20.25 3.35,21.6 2.1,22.7 0.7,23.55 0.9,23.4 1.1,23.3 1.25,23.2 z M -25.2,17.8 c -0.15,-0.8 0,-1.55 0.4,-2.3 0.45,-0.8 0.75,-1.65 0.95,-2.6 0.05,-0.2 0,-0.3 -0.25,-0.25 -0.1,0.05 -0.2,0.05 -0.3,0.05 -0.05,0 -0.1,-0.1 -0.15,-0.25 -0.15,0.05 -0.25,0.15 -0.3,0.3 -0.4,1.35 -1.1,2.65 -2.05,3.85 -0.95,1.15 -1.9,2.2 -2.95,3.2 l 0.525,-0.05 0.025,0 c 0.2,-0.05 0.4,-0.05 0.65,-0.05 1.35,0.05 2.65,0.25 3.9,0.5 l 0,-0.025 0.7,0.15 0,0.025 C -24.3,20.1 -24.6,19.85 -24.9,19.65 -25,19 -25.1,18.4 -25.2,17.8 z"
           inkscape:connector-curvature="0"
           style="fill:#721016" />
      </g>
      <animate
         attributeName="display"
         begin="0s"
         repeatCount="indefinite"
         dur="0.75s"
         keyTimes="0;1;1"
         values="none;inline;none"
         id="animate3137" />
    </g>
    <g
       id="backCoatC006_1_1162">
      <g
         id="element9">
        <path
           id="path168"
           d="m 4.65,-27 c 0.4,0.05 1.05,0.2 1.55,0.35 l 0,-0.025 0,-0.025 c 0.2,0.05 0.45,0.15 0.4,0.15 -1.1,-1.4 -6.45,-1.9 -9.15,-1.4 q -1.882,0.396 -3.175,1.175 l 0.025,0.025 c 0.35,-0.05 0.4,-0.05 0.35,-0.05 l -0.025,0 0.125,0 C -4.5,-26.95 -1,-28.15 4.65,-27 z M 9.9,29.4 9.925,29.425 9.95,29.45 c 0.2,-0.3 0.35,-0.55 0.5,-0.8 C 9.85,28.05 9.2,27.5 8.35,26.9 8.1,26.75 7.65,26.45 7.15,26.15 c -0.05,0 -0.1,0 -0.2,-0.1 L 6.925,26.025 6.65,25.875 6.65,25.9 C 5.3,25.15 3.4,24.5 1.2,24.25 0.75,24.2 0.15,24.15 -0.45,24.15 c 0,0 0,0 -0.1,0 -0.95,-0.05 -1.9,0.15 -2.85,0.5 -0.5,0.2 -1,0.35 -1.7,0.55 l -0.025,0 -0.025,0.025 0,0.025 c -0.75,0.15 -1.45,0.3 -2.1,0.4 l 0,-0.025 -0.025,0.025 0.025,0 c -0.05,0 -0.1,0 -0.2,0 0,0 0,0 -0.1,0 -0.4,0.05 -0.8,0.1 -1.35,0.1 -2.35,0.1 -4.95,-0.65 -7.6,-2.2 l -0.025,0 -0.025,0 c -0.05,-0.05 -0.15,-0.1 -0.2,-0.15 l -0.025,0 -0.975,-0.575 0,0.025 C -17.9,22.7 -18.1,22.6 -18.3,22.55 l 0,-0.025 0.025,0 0.025,0.025 c -1.8,-1 -3.75,-1.75 -5.8,-2.2 l 0,-0.025 -0.7,-0.15 0,0.025 c -1.25,-0.25 -2.55,-0.45 -3.9,-0.5 -0.25,0 -0.45,0 -0.65,0.05 l -0.025,0 -0.525,0.05 c -0.45,0.1 -0.85,0.15 -1.25,0.2 0,0 0,0 -0.05,0.05 -0.05,0.45 -0.05,0.7 -0.05,0.9 -0.05,0 -0.05,0 -0.1,0 l -0.05,0.1 c 0.05,0 0.1,0 0.15,0 l 0,-0.025 0,0.025 c 3.15,-0.15 5.75,0.2 7.7,1 1.75,0.75 3.5,1.65 5.2,2.6 3.8,2.2 8,2.6 12.55,1.25 C 0.4,24 5.6,25.15 9.9,29.4 z"
           inkscape:connector-curvature="0"
           style="fill:#2a3b6e" />
        <path
           id="path169"
           d="M 6.2,-26.65 C 5.7,-26.8 5.05,-26.95 4.65,-27 c -5.65,-1.15 -9.15,0.05 -9.9,0.2 l 0.05,0 c 1.2,0.15 2.35,0.65 2.35,0.65 0,0 -1.9,0.05 -4,0.55 -2.1,0.5 -4.45,1.6 -4.45,1.6 l 1.45,-0.6 -1.45,0.6 0.6,1.05 -0.6,-1.05 c 0,0 1,1.7 1.7,3.45 0.55,1.35 0.2,4.6 0.15,6.05 -0.45,1.9 -0.85,3.95 -1.3,6.15 -0.6,2.95 -2.25,5.6 -4.8,7.75 0.3,0.4 0.45,0.9 0.5,1.5 0.05,0.55 0.1,1.15 0.25,1.7 0.05,0.15 0.05,0.35 0.05,0.55 0.4,0.55 0.8,1.25 1.25,2.1 0.45,0.8 1.1,1.35 2,1.6 1.9,0.55 3.55,0.5 5,-0.15 0.2,-0.1 0.4,-0.2 0.65,-0.3 1.05,-0.6 1.95,-1.55 2.75,-2.8 1.25,-1.95 2.1,-4.05 2.55,-6.4 0.1,-0.55 0.25,-1 0.45,-1.45 l 0,-0.025 0,0.1 0.45,-5.025 c 0,-0.2 0,-0.5 0,-0.8 0,-1.35 0.2,-2.7 0.55,-3.5 0.4,-2.45 1.15,-5.6 1.15,-5.6 l -0.7,3.1 0.7,-3.1 0.1,1.35 c 0.05,1 0.55,2.4 0.75,4.8 0.15,2.45 0.7,6 1.5,6.7 0.75,0.65 1.9,-0.85 2.25,-3.35 0.35,-2.5 0.95,-6.6 1.65,-9.35 0.15,-0.6 0.45,-1.05 0.8,-1.35 0,-0.05 0.05,-0.15 0.1,-0.25 0.7,-1.75 1.8,-3.2 1.8,-3.2 l -0.05,0 -4.75,-2.5 0,-0.425 m 2.75,9.875 c 0,-0.2 -0.05,-0.5 -0.05,-1.15 l 0,0.65 0.05,0.475 z"
           inkscape:connector-curvature="0"
           style="fill:#8a131b" />
        <path
           id="path170"
           d="m 6.2,-26.675 0,0.425 4.75,2.5 0.05,0 c 0,0 -0.55,-0.95 -1.95,-1.85 -0.4,-0.25 -1.05,-0.5 -2,-0.8 0,0 -0.2,-0.05 -0.45,-0.15 0.05,0 -0.2,-0.1 -0.4,-0.15 l 0,0.025 z m -11.4,-0.125 -0.05,0 -0.125,0 0.025,0 c 0.05,0 0,0 -0.35,0.05 -0.4,0 -1.5,0.15 -2.8,0.65 0.1,-0.05 0,0 -0.1,0.05 -0.1,0.05 -0.3,0.15 -0.5,0.25 0,0 -0.15,0.1 -0.3,0.2 -1.4,0.9 -1.9,1.6 -1.9,1.6 l 0.45,-0.45 -0.45,0.45 1.45,-0.6 -1.45,0.6 c 0,0 2.35,-1.1 4.45,-1.6 2.1,-0.5 4,-0.55 4,-0.55 0,0 -1.15,-0.5 -2.35,-0.65 z"
           inkscape:connector-curvature="0"
           style="fill:#a9252d" />
        <path
           id="path171"
           d="m 8.95,-19.25 c 0.05,-0.45 0.1,-0.85 0.2,-1.1 0,0 0,0 -0.05,0.05 -0.35,0.3 -0.65,0.75 -0.8,1.35 -0.7,2.75 -1.3,6.85 -1.65,9.35 -0.35,2.5 -1.5,4 -2.25,3.35 -0.8,-0.7 -1.35,-4.25 -1.5,-6.7 -0.2,-2.4 -0.7,-3.8 -0.75,-4.8 l -0.1,-1.35 -0.7,3.1 0.7,-3.1 c 0,0 -0.75,3.15 -1.15,5.6 0.15,-0.65 0.45,-0.95 0.75,-0.5 0.5,0.65 0.1,7.4 -0.4,8.05 -0.5,0.6 -0.8,-1 -0.9,-3.25 l -0.45,5.025 0,-0.1 0,0.025 C -0.3,-3.8 -0.45,-3.35 -0.55,-2.8 -1,-0.45 -1.85,1.65 -3.1,3.6 -3.9,4.85 -4.8,5.8 -5.85,6.4 -6.1,6.5 -6.3,6.6 -6.5,6.7 c -1.45,0.65 -3.1,0.7 -5,0.15 -0.9,-0.25 -1.55,-0.8 -2,-1.6 -0.45,-0.85 -0.85,-1.55 -1.25,-2.1 0,-0.2 0,-0.4 -0.05,-0.55 -0.15,-0.55 -0.2,-1.15 -0.25,-1.7 -0.05,-0.6 -0.2,-1.1 -0.5,-1.5 -0.1,0.05 -0.25,0.2 -0.4,0.35 -0.1,0.1 -0.1,0.1 -0.1,0.1 -0.15,0.1 -0.15,0.1 -0.15,0.1 -3,2.35 -6.3,5.4 -9.95,9.1 -1.7,1.7 -2.85,3.55 -3.4,5.55 -0.25,0.5 -0.45,1.05 -0.6,1.6 -0.05,0.05 -0.05,0.15 -0.1,0.2 -0.25,0.5 -0.35,1 -0.4,1.45 -0.05,0.1 -0.05,0.2 -0.1,0.25 -0.2,0.8 -0.35,1.5 -0.4,1.95 C -31.1,20 -31.1,20 -31.1,20 c 0.4,-0.05 0.8,-0.1 1.25,-0.2 1.05,-1 2,-2.05 2.95,-3.2 0.95,-1.2 1.65,-2.5 2.05,-3.85 0.05,-0.15 0.15,-0.25 0.3,-0.3 0.05,0.15 0.1,0.25 0.15,0.25 0.1,0 0.2,0 0.3,-0.05 0.25,-0.05 0.3,0.05 0.25,0.25 -0.2,0.95 -0.5,1.8 -0.95,2.6 -0.4,0.75 -0.55,1.5 -0.4,2.3 0.1,0.6 0.2,1.2 0.3,1.85 0.3,0.2 0.6,0.45 0.85,0.7 2.05,0.45 4,1.2 5.8,2.2 2.1,-0.25 3.85,-1.2 5.2,-2.95 0.65,-0.85 1.4,-1.6 2.2,-2.25 0.65,1 0.65,2.35 -0.05,4 -0.25,0.65 -0.25,1.25 0.1,1.8 0.75,1.35 1.95,2.05 3.55,2.1 0.15,0 0.3,0.05 0.35,0.15 1.3,-0.95 2.55,-2.1 3.7,-3.4 0.9,-1 1.6,-2.1 2.15,-3.25 0.3,-0.65 0.65,-1.25 1,-1.7 0.35,0.9 0.3,1.9 -0.25,3.05 -0.6,1.25 -0.35,2.15 0.7,2.75 C 0.65,23 0.95,23.1 1.25,23.2 1.1,23.3 0.9,23.4 0.7,23.55 2.1,22.7 3.35,21.6 4.4,20.25 5.65,18.6 6.8,16.9 7.8,15.15 c 0.15,1.4 -0.3,2.95 -1.25,4.6 -1,1.75 -1.05,3.4 -0.1,4.9 0.25,0.4 0.55,0.8 0.85,1.15 0.45,-0.8 0.95,-1.55 1.55,-2.25 0.9,-1.05 2,-1.9 3.3,-2.55 0.3,-0.15 0.6,-0.3 0.85,-0.4 0.95,-4 1.4,-7.8 1.35,-11.7 -0.05,-3.35 -0.65,-6.55 -1.7,-9.6 -0.45,-1.4 -0.9,-2.8 -1.3,-4.15 l 0,-0.025 0.225,-0.025 0.025,0 c -0.15,-0.25 -0.3,-0.5 -0.5,-0.95 -0.25,-0.45 -0.55,-1.25 -0.85,-2.2 -0.4,-1.2 -0.65,-2.7 -0.85,-4 -0.15,-0.8 -0.2,-1.65 -0.25,-2.15 l -0.2,-2.625 -0.05,-0.475 0.05,0.475 0,0.025 c 0,-0.2 -0.05,-0.5 -0.05,-1.15 l -0.025,-0.025 0.05,-1.3 M 4.05,11.05 c -2.45,1.15 -5,1.9 -7.7,2.25 -3.2,0.35 -5.9,-0.55 -8.15,-2.8 -0.05,-0.05 -0.15,-0.1 -0.25,-0.15 C -12.15,10 -12.3,9.7 -12.55,9.4 -12.7,9.15 -12.85,8.9 -13,8.65 -13.1,8.4 -13.2,8.15 -13.25,7.85 -13.3,7.5 -13.5,7.25 -13.8,7 -13.9,6.95 -13.9,6.9 -13.75,6.9 -11,8.6 -7.9,9.45 -4.45,9.5 -1.2,9.55 2,9.1 5.15,8.25 7,7.7 8.8,7.2 10.6,6.65 8.7,8.4 6.5,9.9 4.05,11.05 z"
           inkscape:connector-curvature="0"
           style="fill:#81121a" />
        <path
           id="path172"
           d="M 4.05,11.05 C 6.5,9.9 8.7,8.4 10.6,6.65 8.8,7.2 7,7.7 5.15,8.25 2,9.1 -1.2,9.55 -4.45,9.5 -7.9,9.45 -11,8.6 -13.75,6.9 c -0.15,0 -0.15,0.05 -0.05,0.1 0.3,0.25 0.5,0.5 0.55,0.85 0.05,0.3 0.15,0.55 0.25,0.8 0.15,0.25 0.3,0.5 0.45,0.75 0.25,0.3 0.4,0.6 0.5,0.95 0.1,0.05 0.2,0.1 0.25,0.15 2.25,2.25 4.95,3.15 8.15,2.8 2.7,-0.35 5.25,-1.1 7.7,-2.25 z M 0.9,-13.5 c -0.35,0.8 -0.55,2.15 -0.55,3.5 0,0.3 0,0.6 0,0.8 0.1,2.25 0.4,3.85 0.9,3.25 0.5,-0.65 0.9,-7.4 0.4,-8.05 -0.3,-0.45 -0.6,-0.15 -0.75,0.5 z M 1.25,23.2 C 0.95,23.1 0.65,23 0.4,22.85 c -1.05,-0.6 -1.3,-1.5 -0.7,-2.75 0.55,-1.15 0.6,-2.15 0.25,-3.05 -0.35,0.45 -0.7,1.05 -1,1.7 C -1.6,19.9 -2.3,21 -3.2,22 c -1.15,1.3 -2.4,2.45 -3.7,3.4 -0.05,-0.1 -0.2,-0.15 -0.35,-0.15 -1.6,-0.05 -2.8,-0.75 -3.55,-2.1 -0.35,-0.55 -0.35,-1.15 -0.1,-1.8 0.7,-1.65 0.7,-3 0.05,-4 -0.8,0.65 -1.55,1.4 -2.2,2.25 -1.35,1.75 -3.1,2.7 -5.2,2.95 l -0.025,-0.025 -0.025,0 0,0.025 c 0.2,0.05 0.4,0.15 0.55,0.3 l 0,-0.025 0.975,0.575 0.025,0 c 0.05,0.05 0.15,0.1 0.2,0.15 l 0.025,0 0.025,0 c 2.65,1.55 5.25,2.3 7.6,2.2 0.55,0 0.95,-0.05 1.35,-0.1 0.1,0 0.1,0 0.1,0 0.1,0 0.15,0 0.2,0 l 0,-0.025 -0.025,0.025 0.025,0 c 0.65,-0.1 1.35,-0.25 2.1,-0.4 l 0,-0.025 0.025,-0.025 0.025,0 c 0.7,-0.2 1.2,-0.35 1.7,-0.55 0.95,-0.35 1.9,-0.55 2.85,-0.5 0.1,0 0.1,0 0.1,0 0.6,0 1.2,0.05 1.65,0.1 2.2,0.25 4.1,0.9 5.45,1.65 l 0,-0.025 0.275,0.15 0.025,0.025 c 0.1,0.1 0.15,0.1 0.2,0.1 0.5,0.3 0.95,0.6 1.2,0.75 0.85,0.6 1.5,1.15 2.1,1.75 0.2,-0.25 0.3,-0.45 0.35,-0.55 0.25,-0.6 0.55,-1.2 0.8,-1.8 0.25,-0.5 0.3,-1 0.15,-1.45 0.15,-0.5 0.35,-1 0.5,-1.55 0.15,-0.45 0.3,-0.9 0.4,-1.25 0.15,-0.55 0.3,-1.1 0.35,-1.45 -0.25,0.1 -0.55,0.25 -0.85,0.4 -1.3,0.65 -2.4,1.5 -3.3,2.55 C 8.25,24.25 7.75,25 7.3,25.8 7,25.45 6.7,25.05 6.45,24.65 5.5,23.15 5.55,21.5 6.55,19.75 7.5,18.1 7.95,16.55 7.8,15.15 6.8,16.9 5.65,18.6 4.4,20.25 3.35,21.6 2.1,22.7 0.7,23.55 0.9,23.4 1.1,23.3 1.25,23.2 z M -25.2,17.8 c -0.15,-0.8 0,-1.55 0.4,-2.3 0.45,-0.8 0.75,-1.65 0.95,-2.6 0.05,-0.2 0,-0.3 -0.25,-0.25 -0.1,0.05 -0.2,0.05 -0.3,0.05 -0.05,0 -0.1,-0.1 -0.15,-0.25 -0.15,0.05 -0.25,0.15 -0.3,0.3 -0.4,1.35 -1.1,2.65 -2.05,3.85 -0.95,1.15 -1.9,2.2 -2.95,3.2 l 0.525,-0.05 0.025,0 c 0.2,-0.05 0.4,-0.05 0.65,-0.05 1.35,0.05 2.65,0.25 3.9,0.5 l 0,-0.025 0.7,0.15 0,0.025 C -24.3,20.1 -24.6,19.85 -24.9,19.65 -25,19 -25.1,18.4 -25.2,17.8 z"
           inkscape:connector-curvature="0"
           style="fill:#721016" />
      </g>
      <animate
         attributeName="display"
         begin="0s"
         repeatCount="indefinite"
         dur="0.75s"
         keyTimes="0;0.944;1"
         values="none;inline;none"
         id="animate3146" />
    </g>
    <g
       id="backCoatC006_1_1160">
      <g
         id="element8" />
      <animate
         attributeName="display"
         begin="0s"
         repeatCount="indefinite"
         dur="0.75s"
         keyTimes="0;0.833;0.944;1"
         values="none;inline;none;none"
         id="animate3150" />
    </g>
    <g
       id="backCoatC006_1_1158">
      <g
         id="element7">
        <path
           id="path132"
           d="m 7.05,-26.4 c 0,0 -0.2,-0.05 -0.45,-0.15 0.05,0 -0.2,-0.1 -0.4,-0.15 l 0,0.025 0,0.425 4.75,2.5 0.05,0 c 0,0 -0.55,-0.95 -1.95,-1.85 -0.4,-0.25 -1.05,-0.5 -2,-0.8 z m -12.25,-0.4 -0.05,0 -0.125,0 0.025,0 c 0.05,0 0,0 -0.35,0.05 -0.4,0 -1.5,0.15 -2.8,0.65 0.1,-0.05 0,0 -0.1,0.05 -0.1,0.05 -0.3,0.15 -0.5,0.25 0,0 -0.15,0.1 -0.3,0.2 -1.4,0.9 -1.9,1.6 -1.9,1.6 l 0.45,-0.45 -0.45,0.45 1.45,-0.6 -1.45,0.6 c 0,0 2.35,-1.1 4.45,-1.6 2.1,-0.5 4,-0.55 4,-0.55 0,0 -1.15,-0.5 -2.35,-0.65 z"
           inkscape:connector-curvature="0"
           style="fill:#a9252d" />
        <path
           id="path133"
           d="m 6.2,-26.675 0,-0.025 c 0.2,0.05 0.45,0.15 0.4,0.15 -1.1,-1.4 -6.45,-1.9 -9.15,-1.4 q -1.882,0.396 -3.175,1.175 l 0.025,0.025 c 0.35,-0.05 0.4,-0.05 0.35,-0.05 l -0.025,0 0.125,0 c 0.75,-0.15 4.25,-1.35 9.9,-0.2 0.4,0.05 1.05,0.2 1.55,0.35 m 15.95,49.1 c -0.5,0.25 -1.05,0.5 -1.65,0.7 -0.35,0.1 -0.75,0.2 -1.25,0.35 l -0.025,0 0.025,0 c 0,0 -0.1,0.05 -0.25,0.05 -2.05,0.5 -4.1,0.8 -6.35,0.9 -0.4,0.05 -0.9,0.05 -1.4,0.05 -0.95,0 -2.05,0 -3.25,-0.1 l 0,-0.025 -0.05,0 0,0.025 C 7.2,24.35 6.45,24.25 5.55,24.15 4.2,23.95 2.7,23.65 1.1,23.25 0.9,23.15 0.65,23.1 0.4,23.05 c -0.05,0 -0.1,0 -0.35,-0.1 -3.75,-1 -7.75,-1.2 -11.7,-0.4 -0.6,0.1 -1.2,0.25 -1.8,0.4 -0.2,0.05 -0.4,0.1 -0.7,0.2 -0.05,0 -0.1,0 -0.1,0.05 l -0.025,0 -2.825,1.375 0,0.025 c -0.7,0.5 -1.3,1.1 -1.8,1.85 0.05,0.3 0.15,0.7 0.3,1.25 3.1,-2.6 6.4,-4 9.85,-4.2 0.65,-0.15 1.55,-0.2 2.6,-0.25 1.1,-0.05 2,0.05 2.7,0.25 0.75,0.15 1.65,0.35 2.8,0.5 1.15,0.15 2.95,0.55 5.3,1.15 2.35,0.55 5.3,0.8 8.85,0.7 3.55,-0.15 6.1,-0.6 7.7,-1.45 1.55,-0.85 2.55,-1.35 2.9,-1.6 0.4,-0.25 1,-0.6 1.8,-1.05 0.85,-0.45 1.5,-0.9 1.95,-1.35 0.5,-0.45 0.8,-0.8 0.9,-1 0.25,0.1 0.45,0.2 0.7,0.35 C 29.2,19.55 29,19.35 28.8,19.2 28.85,19.1 28.85,19 28.85,18.9 28.8,18.95 28.7,19 28.65,19.05 l -0.225,-0.25 0.025,0 c -0.1,-0.05 -0.2,-0.15 -0.25,-0.2 -0.9,0.7 -1.8,1.35 -2.75,2 -0.1,0.05 -0.2,0.15 -0.3,0.2 -0.1,0.05 -0.2,0.1 -0.25,0.15 l 0,-0.025 -0.375,0.225 0.025,0 c -0.7,0.45 -1.55,0.9 -2.4,1.3 z"
           inkscape:connector-curvature="0"
           style="fill:#2a3b6e" />
        <path
           id="path134"
           d="M 6.2,-26.65 C 5.7,-26.8 5.05,-26.95 4.65,-27 c -5.65,-1.15 -9.15,0.05 -9.9,0.2 l 0.05,0 c 1.2,0.15 2.35,0.65 2.35,0.65 0,0 -1.9,0.05 -4,0.55 -2.1,0.5 -4.45,1.6 -4.45,1.6 l 1.45,-0.6 -1.45,0.6 0.6,1.05 -0.6,-1.05 c 0,0 1,1.7 1.7,3.45 0.55,1.4 0.2,4.8 0.1,6.35 -0.1,1 -0.7,4.15 -1.5,7.2 -1.2,2.75 -2.95,5.3 -5,7.45 -0.15,0.15 -0.35,0.45 -0.6,0.9 0.45,0.45 0.95,1.15 1.45,2.1 1.05,1.9 3.25,2.85 6.55,2.85 3.25,0 5.45,-1.3 6.6,-3.95 1.1,-2.65 1.8,-4.8 2.05,-6.5 l 0,-0.025 -0.15,0 0.45,-5.025 c 0,-0.2 0,-0.5 0,-0.8 0,-1.35 0.2,-2.7 0.55,-3.5 0.4,-2.45 1.15,-5.6 1.15,-5.6 l -0.7,3.1 0.7,-3.1 0.1,1.35 c 0.05,1 0.55,2.4 0.75,4.8 0.15,2.45 0.7,6 1.5,6.7 0.75,0.65 1.9,-0.85 2.25,-3.35 0.35,-2.5 0.95,-6.6 1.65,-9.35 0.15,-0.6 0.45,-1.05 0.8,-1.35 0,-0.05 0.05,-0.15 0.1,-0.25 0.7,-1.75 1.8,-3.2 1.8,-3.2 l -0.05,0 -4.75,-2.5 0,-0.425 m 2.7,9.375 0.05,0.475 0,0.025 c 0,-0.2 -0.05,-0.5 -0.05,-1.15 z"
           inkscape:connector-curvature="0"
           style="fill:#8a131b" />
        <path
           id="path135"
           d="m 9.1,-20.3 c -0.35,0.3 -0.65,0.75 -0.8,1.35 -0.7,2.75 -1.3,6.85 -1.65,9.35 -0.35,2.5 -1.5,4 -2.25,3.35 -0.8,-0.7 -1.35,-4.25 -1.5,-6.7 -0.2,-2.4 -0.7,-3.8 -0.75,-4.8 l -0.1,-1.35 -0.7,3.1 0.7,-3.1 c 0,0 -0.75,3.15 -1.15,5.6 0.15,-0.65 0.45,-0.95 0.75,-0.5 0.5,0.65 0.1,7.4 -0.4,8.05 -0.5,0.6 -0.8,-1 -0.9,-3.25 l -0.45,5.025 0.15,0 0,0.025 C -0.2,-2.45 -0.9,-0.3 -2,2.35 -3.15,5 -5.35,6.3 -8.6,6.3 c -3.3,0 -5.5,-0.95 -6.55,-2.85 -0.5,-0.95 -1,-1.65 -1.45,-2.1 l 0.1,-0.375 0,0.025 c -0.2,0.1 -0.05,-0.1 0.5,-0.55 -0.15,0.05 -0.25,0.15 -0.3,0.2 -0.85,0.85 -1.35,1.4 -1.5,1.55 -1.9,1.75 -3.05,3.85 -3.45,6.4 -0.8,5.25 -0.15,10.35 1.9,15.4 -0.1,0.2 -0.15,0.45 -0.15,0.7 0,0.25 0.05,0.5 0.15,0.75 0.05,0.25 0.15,0.45 0.3,0.7 0.05,0.05 0.1,0.15 0.15,0.3 0.5,-0.75 1.1,-1.35 1.8,-1.85 -0.25,0.15 -0.5,0.35 -0.75,0.6 0.2,-0.75 0.3,-1.55 0.35,-2.35 0.05,-0.95 0.1,-1.9 0.1,-2.9 0.05,-0.65 -0.05,-1.35 -0.2,-2 -0.15,-0.5 -0.1,-0.95 0.05,-1.35 0.65,1.05 1.3,2.15 1.85,3.35 0.55,1.2 1.5,1.95 2.75,2.2 0.45,0.1 0.85,0.25 1.3,0.4 3.95,-0.8 7.95,-0.6 11.7,0.4 0.35,-0.35 0.65,-0.8 0.9,-1.3 0.4,-0.8 0.45,-1.65 0.2,-2.5 -0.15,-0.55 -0.1,-1 0.2,-1.35 0.7,0.95 1.35,2.05 1.9,3.3 0.55,1.2 1.35,1.95 2.3,2.3 0.95,0.3 1.6,0.55 2,0.75 0.35,0.15 0.5,0.2 0.45,0.25 1.2,0.1 2.3,0.1 3.25,0.1 -0.05,-0.05 -0.15,-0.05 -0.2,-0.1 1.45,-0.4 2.5,-1.15 3.15,-2.3 0.35,-0.55 0.4,-1.2 0.25,-1.95 -0.15,-0.55 -0.05,-1 0.4,-1.25 l 0,-0.05 c 0.5,0.85 1.05,1.65 1.65,2.5 0.55,0.75 1.3,1.15 2.35,1.15 0.3,0 0.6,0.05 0.85,0.1 0.15,-0.5 0.25,-1.05 0.2,-1.65 C 19.85,20 19.65,19.1 19.2,18.25 18.85,17.6 18.5,17 18.05,16.45 c -0.45,-0.7 -0.4,-1.2 0.05,-1.55 0.95,1 1.75,2.05 2.5,3.15 0.75,1.1 1.75,1.8 3.05,2.15 0.25,0.05 0.55,0.15 0.8,0.25 -0.25,-0.25 -0.65,-1 -0.9,-2 -0.4,-1.35 -0.35,-2.75 0.15,-4.1 0.05,-0.1 0.1,-0.2 0.15,-0.3 -0.2,-0.25 -0.8,-0.85 -1.4,-1.5 C 20.05,10 17.95,7.25 16.1,4.25 13.55,0.1 11.6,-4.3 10.3,-8.9 10.1,-9.65 9.85,-10.4 9.5,-11.15 9.3,-12.35 9.2,-13.55 9.15,-14.2 l -0.2,-2.625 -0.05,-0.475 0.05,0.475 0,0.025 c 0,-0.2 -0.05,-0.5 -0.05,-1.15 l -0.025,-0.025 0.05,-1.3 0.025,0.025 c 0.05,-0.45 0.1,-0.85 0.2,-1.1 0,0 0,0 -0.05,0.05 z M 11.75,4.6 C 11.6,8.45 9.5,11.15 5.45,12.75 1.75,14.3 -1.75,14.15 -5.1,12.4 -6.45,11.65 -7.6,10.65 -8.45,9.35 -8.7,8.95 -9,8.55 -9.3,8.2 -9,8.35 -8.7,8.55 -8.4,8.75 -8.5,8.65 -8.6,8.6 -8.7,8.55 -4.1,9.4 0.6,9.15 5.4,7.8 7.05,7.3 8.55,6.6 9.95,5.65 c 0.4,-0.3 0.75,-0.6 1.1,-0.95 -0.05,-0.15 0,-0.25 0.2,-0.3 0.05,0 0.15,0 0.2,0.05 0.05,0 0.15,0.05 0.2,0.1 0.05,0 0.05,0 0.1,0.05 z"
           inkscape:connector-curvature="0"
           style="fill:#81121a" />
        <path
           id="path136"
           d="M 11.75,4.6 C 11.7,4.55 11.7,4.55 11.65,4.55 11.6,4.5 11.5,4.45 11.45,4.45 11.4,4.4 11.3,4.4 11.25,4.4 11.05,4.45 11,4.55 11.05,4.7 10.7,5.05 10.35,5.35 9.95,5.65 8.55,6.6 7.05,7.3 5.4,7.8 0.6,9.15 -4.1,9.4 -8.7,8.55 c 0.1,0.05 0.2,0.1 0.3,0.2 -0.3,-0.2 -0.6,-0.4 -0.9,-0.55 0.3,0.35 0.6,0.75 0.85,1.15 0.85,1.3 2,2.3 3.35,3.05 3.35,1.75 6.85,1.9 10.55,0.35 4.05,-1.6 6.15,-4.3 6.3,-8.15 z M 0.9,-13.5 c -0.35,0.8 -0.55,2.15 -0.55,3.5 0,0.3 0,0.6 0,0.8 0.1,2.25 0.4,3.85 0.9,3.25 0.5,-0.65 0.9,-7.4 0.4,-8.05 -0.3,-0.45 -0.6,-0.15 -0.75,0.5 z m 22.95,27.55 c -0.05,0.1 -0.1,0.2 -0.15,0.3 -0.5,1.35 -0.55,2.75 -0.15,4.1 0.25,1 0.65,1.75 0.9,2 -0.25,-0.1 -0.55,-0.2 -0.8,-0.25 -1.3,-0.35 -2.3,-1.05 -3.05,-2.15 -0.75,-1.1 -1.55,-2.15 -2.5,-3.15 -0.45,0.35 -0.5,0.85 -0.05,1.55 0.45,0.55 0.8,1.15 1.15,1.8 0.45,0.85 0.65,1.75 0.7,2.7 0.05,0.6 -0.05,1.15 -0.2,1.65 -0.25,-0.05 -0.55,-0.1 -0.85,-0.1 -1.05,0 -1.8,-0.4 -2.35,-1.15 -0.6,-0.85 -1.15,-1.65 -1.65,-2.5 l 0,0.05 c -0.45,0.25 -0.55,0.7 -0.4,1.25 0.15,0.75 0.1,1.4 -0.25,1.95 -0.65,1.15 -1.7,1.9 -3.15,2.3 0.05,0.05 0.15,0.05 0.2,0.1 0.5,0 1,0 1.4,-0.05 2.25,-0.1 4.3,-0.4 6.35,-0.9 0.15,0 0.25,-0.05 0.25,-0.05 l -0.025,0 0.025,0 c 0.5,-0.15 0.9,-0.25 1.25,-0.35 0.6,-0.2 1.15,-0.45 1.65,-0.7 0.85,-0.4 1.7,-0.85 2.4,-1.3 l -0.025,0 0.375,-0.225 0,0.025 c 0.05,-0.05 0.15,-0.1 0.25,-0.15 0.1,-0.05 0.2,-0.15 0.3,-0.2 0.95,-0.65 1.85,-1.3 2.75,-2 0.05,0.05 0.15,0.15 0.25,0.2 -1.25,-1.25 -2.5,-2.5 -3.75,-3.85 -0.15,-0.15 -0.35,-0.35 -0.85,-0.9 z m -5.05,1.9 c 0.1,0.25 0.1,0.3 0,0.15 -0.1,-0.1 -0.15,-0.2 -0.2,-0.35 0.05,-0.05 0.1,0.05 0.2,0.2 z m -17.65,3.2 c 0.25,0.85 0.2,1.7 -0.2,2.5 -0.25,0.5 -0.55,0.95 -0.9,1.3 0.25,0.1 0.3,0.1 0.35,0.1 0.25,0.05 0.5,0.1 0.7,0.2 1.6,0.4 3.1,0.7 4.45,0.9 0.9,0.1 1.65,0.2 2.4,0.25 l 0,-0.025 0.05,0 0,0.025 C 8.05,24.35 7.9,24.3 7.55,24.15 7.15,23.95 6.5,23.7 5.55,23.4 4.6,23.05 3.8,22.3 3.25,21.1 2.7,19.85 2.05,18.75 1.35,17.8 1.05,18.15 1,18.6 1.15,19.15 z m -18.7,-2.55 c -0.15,0.4 -0.2,0.85 -0.05,1.35 0.15,0.65 0.25,1.35 0.2,2 0,1 -0.05,1.95 -0.1,2.9 -0.05,0.8 -0.15,1.6 -0.35,2.35 0.25,-0.25 0.5,-0.45 0.75,-0.6 l 0,-0.025 2.825,-1.375 0.025,0 c 0,-0.05 0.05,-0.05 0.1,-0.05 0.3,-0.1 0.5,-0.15 0.7,-0.2 0.6,-0.15 1.2,-0.3 1.8,-0.4 -0.45,-0.15 -0.85,-0.3 -1.3,-0.4 -1.25,-0.25 -2.2,-1 -2.75,-2.2 -0.55,-1.2 -1.2,-2.3 -1.85,-3.35 z"
           inkscape:connector-curvature="0"
           style="fill:#721016" />
        <path
           id="path145"
           d="m 18.8,15.95 c -0.1,-0.15 -0.15,-0.25 -0.2,-0.2 0.05,0.15 0.1,0.25 0.2,0.35 0.1,0.15 0.1,0.1 0,-0.15 z m -35.4,-14.6 0.1,-0.375 0,0.025 c -0.2,0.1 -0.05,-0.1 0.5,-0.55 -0.15,0.15 -0.35,0.45 -0.6,0.9 z"
           inkscape:connector-curvature="0"
           style="fill:#81121a" />
      </g>
      <animate
         attributeName="display"
         begin="0s"
         repeatCount="indefinite"
         dur="0.75s"
         keyTimes="0;0.722;0.833;1"
         values="none;inline;none;none"
         id="animate3160" />
    </g>
    <g
       id="backCoatC006_1_1156">
      <g
         id="element6">
        <path
           id="path110"
           d="M 6.2,-26.65 C 5.7,-26.8 5.05,-26.95 4.65,-27 c -5.65,-1.15 -9.15,0.05 -9.9,0.2 l 0.05,0 c 1.2,0.15 2.35,0.65 2.35,0.65 0,0 -1.9,0.05 -4,0.55 -2.1,0.5 -4.45,1.6 -4.45,1.6 l 1.45,-0.6 -1.45,0.6 0.6,1.05 -0.6,-1.05 c 0,0 1,1.7 1.7,3.45 0.55,1.4 0.2,4.8 0.1,6.35 0,0.05 0,0.15 0,0.2 -0.85,5.15 -2.55,10 -5.2,14.45 -0.25,0.4 -0.45,0.8 -0.6,1.15 0.05,0.15 0.05,0.35 0,0.6 -0.05,0.4 0,0.8 0.15,1.15 0.2,0.4 0.15,0.55 -0.2,0.45 2.8,3.35 6.15,3.85 10.1,1.4 2.4,-1.45 3.95,-3.5 4.7,-6.15 C -0.25,-2 0,-3.1 0.2,-4.2 L 0.175,-4.2 -0.1,-4.175 0.35,-9.2 c 0,-0.2 0,-0.5 0,-0.8 0,-1.35 0.2,-2.7 0.55,-3.5 0.4,-2.45 1.15,-5.6 1.15,-5.6 l -0.7,3.1 0.7,-3.1 0.1,1.35 c 0.05,1 0.55,2.4 0.75,4.8 0.15,2.45 0.7,6 1.5,6.7 0.75,0.65 1.9,-0.85 2.25,-3.35 0.35,-2.5 0.95,-6.6 1.65,-9.35 0.15,-0.6 0.45,-1.05 0.8,-1.35 0,-0.05 0.05,-0.15 0.1,-0.25 0.7,-1.75 1.8,-3.2 1.8,-3.2 l -0.05,0 -4.75,-2.5 0,-0.425 m 2.7,9.375 0.05,0.475 0,0.025 c 0,-0.2 -0.05,-0.5 -0.05,-1.15 z"
           inkscape:connector-curvature="0"
           style="fill:#8a131b" />
        <path
           id="path111"
           d="m 4.65,-27 c 0.4,0.05 1.05,0.2 1.55,0.35 l 0,-0.025 0,-0.025 c 0.2,0.05 0.45,0.15 0.4,0.15 -1.1,-1.4 -6.45,-1.9 -9.15,-1.4 q -1.882,0.396 -3.175,1.175 l 0.025,0.025 c 0.35,-0.05 0.4,-0.05 0.35,-0.05 l -0.025,0 0.125,0 c 0.75,-0.15 4.25,-1.35 9.9,-0.2 z m 25.3,44.65 c -0.2,0.1 -0.4,0.2 -0.65,0.35 -0.85,0.55 -1.85,1.2 -2.85,1.9 -0.3,0.25 -0.45,0.35 -0.6,0.45 -0.1,0.05 -0.1,0.05 -0.1,0.05 -0.55,0.4 -1.1,0.75 -1.7,1.15 -0.4,0.25 -0.85,0.5 -1.25,0.65 -1.55,0.75 -3.15,1.2 -4.75,1.3 -0.15,0 -0.3,0 -0.45,0.05 l -0.025,-0.025 -1.2,0.075 0.025,0 c -1.75,0.1 -3,0.05 -3.7,-0.15 -0.05,0 -0.1,0 -0.2,-0.05 -0.75,-0.15 -1.55,-0.35 -2.4,-0.5 -1,-0.2 -2.05,-0.3 -3.15,-0.4 -0.25,0 -0.5,0 -0.9,-0.05 -2.5,-0.2 -5.15,0 -7.75,0.55 -0.75,0.15 -1.4,0.3 -2.05,0.5 -1.4,0.4 -2.8,0.8 -4.3,1.45 0.05,-0.05 -0.05,0 -0.15,0.05 -0.4,0.15 -0.75,0.35 -1.05,0.55 -1,0.6 -1.7,1.4 -2.1,2.35 0.1,0.35 0.15,0.4 0.2,0.45 0.05,0.05 0.05,0.15 0.1,0.2 0.05,0.05 0.05,0.05 0.05,0.1 0.05,0 0.05,0 0.1,0.05 0.15,0.15 0.3,0.15 0.6,0.15 0.05,-0.05 0.05,-0.05 0.1,-0.1 0,-0.05 0,-0.15 0,-0.2 0.25,-0.15 0.5,-0.45 0.7,-0.9 0.05,-0.1 0.1,-0.2 0.15,-0.3 0.85,-0.55 1.75,-1.15 2.7,-1.75 1.6,-0.95 3.35,-1.55 5.3,-1.7 1.5,-0.15 3,-0.2 4.45,-0.25 0.65,0.05 1.35,0.15 2.05,0.25 3.45,0.45 7.25,0.7 11.3,0.7 4.05,-0.05 7.7,-1.4 10.95,-4.1 2.2,-1.85 4.7,-2.85 7.45,-3 0.25,0.2 0.45,0.4 0.65,0.6 -0.15,-0.2 -0.3,-0.4 -0.45,-0.6 l 0.05,0 c 0.05,-0.05 0.05,-0.05 0.05,-0.1 -0.1,-0.2 -0.25,-0.3 -0.45,-0.35 -0.15,-0.2 -0.3,-0.4 -0.6,-0.75 -0.55,0 -1.45,0.2 -2.7,0.65 -0.1,0.05 -0.2,0.1 -0.3,0.15 -0.35,0.1 -0.7,0.3 -1.15,0.55 z"
           inkscape:connector-curvature="0"
           style="fill:#2a3b6e" />
        <path
           id="path112"
           d="m 9.05,-25.6 c -0.4,-0.25 -1.05,-0.5 -2,-0.8 0,0 -0.2,-0.05 -0.45,-0.15 0.05,0 -0.2,-0.1 -0.4,-0.15 l 0,0.025 0,0.425 4.75,2.5 0.05,0 c 0,0 -0.55,-0.95 -1.95,-1.85 z m -14.4,-1.2 c 0.05,0 0,0 -0.35,0.05 -0.4,0 -1.5,0.15 -2.8,0.65 0.1,-0.05 0,0 -0.1,0.05 -0.1,0.05 -0.3,0.15 -0.5,0.25 0,0 -0.15,0.1 -0.3,0.2 -1.4,0.9 -1.9,1.6 -1.9,1.6 l 0.45,-0.45 -0.45,0.45 1.45,-0.6 -1.45,0.6 c 0,0 2.35,-1.1 4.45,-1.6 2.1,-0.5 4,-0.55 4,-0.55 0,0 -1.15,-0.5 -2.35,-0.65 l -0.05,0 -0.125,0 z"
           inkscape:connector-curvature="0"
           style="fill:#a9252d" />
        <path
           id="path113"
           d="m 8.95,-19.25 c 0.05,-0.45 0.1,-0.85 0.2,-1.1 0,0 0,0 -0.05,0.05 -0.35,0.3 -0.65,0.75 -0.8,1.35 -0.7,2.75 -1.3,6.85 -1.65,9.35 -0.35,2.5 -1.5,4 -2.25,3.35 -0.8,-0.7 -1.35,-4.25 -1.5,-6.7 -0.2,-2.4 -0.7,-3.8 -0.75,-4.8 l -0.1,-1.35 -0.7,3.1 0.7,-3.1 c 0,0 -0.75,3.15 -1.15,5.6 0.15,-0.65 0.45,-0.95 0.75,-0.5 0.5,0.65 0.1,7.4 -0.4,8.05 -0.5,0.6 -0.8,-1 -0.9,-3.25 L -0.1,-4.175 0.175,-4.2 0.2,-4.2 C 0,-3.1 -0.25,-2 -0.55,-0.95 -1.3,1.7 -2.85,3.75 -5.25,5.2 -9.2,7.65 -12.55,7.15 -15.35,3.8 -15,3.9 -14.95,3.75 -15.15,3.35 -15.3,3 -15.35,2.6 -15.3,2.2 c 0.05,-0.25 0.05,-0.45 0,-0.6 -0.15,0.35 -0.25,0.6 -0.35,0.9 l -0.025,-0.025 -0.2,0.525 0.025,0 c -0.05,0.2 -0.1,0.4 -0.15,0.55 l -0.025,0 0,0.025 L -16,3.6 c -0.05,0 -0.05,0.05 -0.05,0.1 -1.5,6.4 -0.85,12.65 1.95,18.7 0.55,1.2 1.15,2.3 1.85,3.35 0.05,0.35 0.2,0.75 0.35,1.1 0.2,0.4 0.4,0.85 0.55,1.05 0.4,-0.95 1.1,-1.75 2.1,-2.35 0.3,-0.65 0.5,-1.35 0.65,-2.1 0.15,-1.05 0.15,-2.1 0,-3.2 C -8.7,19.5 -8.85,18.7 -9,17.9 c -0.1,-0.4 -0.15,-0.7 -0.15,-0.85 0.1,0 0.2,0 0.25,0 0.05,0 0.15,0 0.2,0 0.05,0.05 0.1,0.05 0.15,0.1 0.5,1.35 1.2,2.65 2.15,3.8 1.15,1.45 2.75,2.1 4.7,2.05 2.6,-0.55 5.25,-0.75 7.75,-0.55 0.1,-0.2 0.2,-0.4 0.3,-0.65 0.4,-0.95 0.45,-1.95 0.15,-3 -0.2,-0.75 -0.15,-1.35 0.2,-1.8 0.3,0.15 0.5,0.35 0.65,0.65 0.15,0.3 0.25,0.6 0.35,0.85 0.05,0.2 0.1,0.4 0.1,0.65 0.45,0.3 0.75,0.7 0.9,1.15 0.2,0.5 0.55,0.9 1.05,1.2 0.3,0.15 0.5,0.4 0.55,0.7 0.4,0.15 0.8,0.3 1.15,0.4 0.45,0.15 0.8,0.4 1.05,0.8 0.1,0.05 0.15,0.05 0.2,0.05 0.7,0.2 1.95,0.25 3.7,0.15 0.25,-0.15 0.5,-0.25 0.75,-0.35 0.7,-0.3 1.25,-0.75 1.7,-1.35 0.1,-0.6 0.15,-1.2 0.1,-1.75 -0.05,-0.55 -0.1,-1.1 -0.15,-1.65 -0.1,-0.45 -0.15,-0.85 -0.1,-1.25 0.05,-0.15 0.1,-0.25 0.25,-0.3 0.4,0.95 0.95,1.85 1.7,2.65 0.7,0.75 1.6,1.2 2.65,1.25 0.4,0.05 0.75,0.1 1.1,0.25 0.45,-0.75 0.85,-1.55 1.15,-2.4 0.35,-0.9 0.25,-1.8 -0.2,-2.65 -0.45,-0.85 -0.9,-1.7 -1.4,-2.55 -0.4,-0.65 -0.4,-1.15 0,-1.5 0.9,0.85 1.7,1.8 2.45,2.8 0.75,0.95 1.65,1.65 2.8,2 0.1,0.05 0.2,0.05 0.35,0.1 C 29.4,16.65 29.3,16.35 29.25,16 29,14.9 28.9,13.75 28.9,12.6 28.85,12.2 28.9,11.8 29,11.4 28.8,11.25 28.45,11 28.05,10.75 25.2,8.85 22.55,6.75 20.1,4.4 17.45,2.55 15.2,0.25 13.3,-2.4 c -1.35,-1.95 -2.4,-4 -3.05,-6.15 -0.25,-0.7 -0.3,-1.4 -0.2,-2.1 -0.2,-0.2 -0.35,-0.45 -0.4,-0.7 -0.05,-0.25 -0.1,-0.45 -0.1,-0.7 0,-0.15 -0.05,-0.25 -0.2,-0.3 0,0.05 0,0.1 0,0.15 -0.1,-0.7 -0.15,-1.5 -0.2,-2 l -0.2,-2.625 -0.05,-0.475 0.05,0.475 0,0.025 c 0,-0.2 -0.05,-0.5 -0.05,-1.15 l -0.025,-0.025 0.05,-1.3 M 12.4,3.45 c 1.65,3.3 0.7,5.95 -2.85,8 C 6.5,13.2 3.25,13.55 -0.2,12.5 -2.15,11.95 -3.85,11.1 -5.4,10 -5.55,9.8 -5.75,9.6 -5.95,9.45 -6.15,9.3 -6.3,9.15 -6.4,9 -6.7,8.8 -7,8.55 -7.25,8.3 c 0.4,0.15 0.8,0.25 1.2,0.4 C -6.25,8.65 -6.45,8.55 -6.65,8.5 -6.7,8.45 -6.7,8.4 -6.7,8.35 -6.45,8 -6.2,8.05 -5.85,8.4 -5.7,8.55 -5.6,8.7 -5.45,8.9 -2.3,9.75 0.95,9.65 4.3,8.7 6.05,8.15 7.7,7.35 9.2,6.2 10.2,5.45 11.2,4.65 12.15,3.8 12.1,3.6 12.2,3.5 12.4,3.45 z"
           inkscape:connector-curvature="0"
           style="fill:#81121a" />
        <path
           id="path114"
           d="M 12.4,3.45 C 12.2,3.5 12.1,3.6 12.15,3.8 11.2,4.65 10.2,5.45 9.2,6.2 7.7,7.35 6.05,8.15 4.3,8.7 0.95,9.65 -2.3,9.75 -5.45,8.9 -5.6,8.7 -5.7,8.55 -5.85,8.4 -6.2,8.05 -6.45,8 -6.7,8.35 c 0,0.05 0,0.1 0.05,0.15 0.2,0.05 0.4,0.15 0.6,0.2 -0.4,-0.15 -0.8,-0.25 -1.2,-0.4 0.25,0.25 0.55,0.5 0.85,0.7 0.1,0.15 0.25,0.3 0.45,0.45 0.2,0.15 0.4,0.35 0.55,0.55 1.55,1.1 3.25,1.95 5.2,2.5 3.45,1.05 6.7,0.7 9.75,-1.05 3.55,-2.05 4.5,-4.7 2.85,-8 z M 1.65,-14 c -0.3,-0.45 -0.6,-0.15 -0.75,0.5 -0.35,0.8 -0.55,2.15 -0.55,3.5 0,0.3 0,0.6 0,0.8 0.1,2.25 0.4,3.85 0.9,3.25 0.5,-0.65 0.9,-7.4 0.4,-8.05 z m 28.3,26.15 C 29.75,12 29.4,11.7 29,11.4 c -0.1,0.4 -0.15,0.8 -0.1,1.2 0,1.15 0.1,2.3 0.35,3.4 0.05,0.35 0.15,0.65 0.3,0.9 -0.15,-0.05 -0.25,-0.05 -0.35,-0.1 -1.15,-0.35 -2.05,-1.05 -2.8,-2 -0.75,-1 -1.55,-1.95 -2.45,-2.8 -0.4,0.35 -0.4,0.85 0,1.5 0.5,0.85 0.95,1.7 1.4,2.55 0.45,0.85 0.55,1.75 0.2,2.65 -0.3,0.85 -0.7,1.65 -1.15,2.4 -0.35,-0.15 -0.7,-0.2 -1.1,-0.25 -1.05,-0.05 -1.95,-0.5 -2.65,-1.25 -0.75,-0.8 -1.3,-1.7 -1.7,-2.65 -0.15,0.05 -0.2,0.15 -0.25,0.3 -0.05,0.4 0,0.8 0.1,1.25 0.05,0.55 0.1,1.1 0.15,1.65 0.05,0.55 0,1.15 -0.1,1.75 -0.45,0.6 -1,1.05 -1.7,1.35 -0.25,0.1 -0.5,0.2 -0.75,0.35 l -0.025,0 1.2,-0.075 0.025,0.025 c 0.15,-0.05 0.3,-0.05 0.45,-0.05 1.6,-0.1 3.2,-0.55 4.75,-1.3 0.4,-0.15 0.85,-0.4 1.25,-0.65 0.6,-0.4 1.15,-0.75 1.7,-1.15 0,0 0,0 0.1,-0.05 0.15,-0.1 0.3,-0.2 0.6,-0.45 1,-0.7 2,-1.35 2.85,-1.9 0.25,-0.15 0.45,-0.25 0.65,-0.35 0.45,-0.25 0.8,-0.45 1.15,-0.55 0.1,-0.05 0.2,-0.1 0.3,-0.15 1.25,-0.45 2.15,-0.65 2.7,-0.65 -1.05,-1.4 -2.4,-2.75 -4.15,-4.15 z m -22.6,5.5 C 7.2,17.35 7,17.15 6.7,17 c -0.35,0.45 -0.4,1.05 -0.2,1.8 0.3,1.05 0.25,2.05 -0.15,3 -0.1,0.25 -0.2,0.45 -0.3,0.65 0.4,0.05 0.65,0.05 0.9,0.05 1.1,0.1 2.15,0.2 3.15,0.4 0.85,0.15 1.65,0.35 2.4,0.5 C 12.25,23 11.9,22.75 11.45,22.6 11.1,22.5 10.7,22.35 10.3,22.2 10.25,21.9 10.05,21.65 9.75,21.5 9.25,21.2 8.9,20.8 8.7,20.3 8.55,19.85 8.25,19.45 7.8,19.15 7.8,18.9 7.75,18.7 7.7,18.5 7.6,18.25 7.5,17.95 7.35,17.65 z m -15.9,-0.5 c -0.05,-0.05 -0.1,-0.05 -0.15,-0.1 -0.05,0 -0.15,0 -0.2,0 -0.05,0 -0.15,0 -0.25,0 0,0.15 0.05,0.45 0.15,0.85 0.15,0.8 0.3,1.6 0.4,2.35 0.15,1.1 0.15,2.15 0,3.2 -0.15,0.75 -0.35,1.45 -0.65,2.1 0.3,-0.2 0.65,-0.4 1.05,-0.55 0.1,-0.05 0.2,-0.1 0.15,-0.05 1.5,-0.65 2.9,-1.05 4.3,-1.45 0.65,-0.2 1.3,-0.35 2.05,-0.5 -1.95,0.05 -3.55,-0.6 -4.7,-2.05 -0.95,-1.15 -1.65,-2.45 -2.15,-3.8 z"
           inkscape:connector-curvature="0"
           style="fill:#721016" />
        <path
           id="path131"
           d="m -10.2,28.75 c -0.05,0.05 -0.05,0.05 -0.1,0.1 0,-0.05 0.05,-0.05 0.1,-0.05 l 0,-0.05"
           inkscape:connector-curvature="0"
           style="fill:#81121a" />
      </g>
      <animate
         attributeName="display"
         begin="0s"
         repeatCount="indefinite"
         dur="0.75s"
         keyTimes="0;0.611;0.722;1"
         values="none;inline;none;none"
         id="animate3170" />
    </g>
    <g
       id="backCoatC006_1_1154">
      <g
         id="element5" />
      <animate
         attributeName="display"
         begin="0s"
         repeatCount="indefinite"
         dur="0.75s"
         keyTimes="0;0.5;0.611;1"
         values="none;inline;none;none"
         id="animate3174" />
    </g>
    <g
       id="backCoatC006_1_1152">
      <g
         id="element4">
        <path
           id="path82"
           d="m 4.65,-27 c 0.4,0.05 1.05,0.2 1.55,0.35 l 0,-0.025 0,-0.025 c 0.2,0.05 0.45,0.15 0.4,0.15 -1.1,-1.4 -6.45,-1.9 -9.15,-1.4 q -1.882,0.396 -3.175,1.175 l 0.025,0.025 c 0.35,-0.05 0.4,-0.05 0.35,-0.05 l -0.025,0 0.125,0 c 0.75,-0.15 4.25,-1.35 9.9,-0.2 z m 19.2,49.65 c -0.2,0.15 -0.45,0.35 -0.7,0.5 -0.2,0.15 -0.4,0.3 -0.7,0.45 -1.9,1.1 -3.85,1.65 -5.95,1.55 C 16.4,25.1 16.2,25.1 16,25.1 c -0.2,0 -0.4,0 -0.55,-0.05 -1.75,-0.15 -3.5,-0.35 -5.25,-0.6 -0.1,0 -0.2,0 -0.5,-0.05 C 8.8,24.3 7.8,24.1 6.6,23.9 6.05,23.8 5.35,23.7 4.6,23.55 3.95,23.4 3.25,23.35 2.5,23.3 2.1,23.25 1.65,23.25 1.15,23.25 c -2.45,0 -5.3,0.65 -8.35,1.9 -0.05,0.05 -0.3,0.15 -0.55,0.25 -0.2,0 -0.25,0.05 -0.3,0.1 -0.05,-0.05 -0.1,0 -0.15,0.05 -0.05,0 -0.1,0 -0.15,0.1 -2.2,0.85 -4.4,1.15 -6.65,0.6 -0.1,0 -0.15,0 -0.2,-0.05 l -0.025,0 -0.225,-0.05 c 0,0 0,0 -0.15,-0.05 -0.65,-0.2 -1.45,-0.45 -2.25,-0.7 -0.05,0.75 -0.1,1.2 -0.15,1.65 0.1,-0.25 0.2,-0.45 0.25,-0.65 1.1,1.25 2.65,1.85 4.7,1.7 0.65,-0.05 1.2,-0.15 1.75,-0.4 l 0.05,-0.025 0,0.025 c 0.75,-0.05 1.7,-0.3 2.85,-0.75 1.1,-0.45 2.3,-0.8 3.55,-1.15 1.25,-0.35 2.3,-0.6 3.1,-0.75 1.8,-0.25 3.65,-0.4 5.5,-0.4 0.7,0 3.2,0.45 7.5,1.35 4.3,0.9 7.9,0.5 10.8,-1.15 2.9,-1.7 4.3,-2.9 4.15,-3.65 0.1,-0.3 0.15,-0.6 0.25,-1 -0.85,0.95 -1.7,1.75 -2.6,2.45 z"
           inkscape:connector-curvature="0"
           style="fill:#2a3b6e" />
        <path
           id="path83"
           d="M 6.2,-26.65 C 5.7,-26.8 5.05,-26.95 4.65,-27 c -5.65,-1.15 -9.15,0.05 -9.9,0.2 l 0.05,0 c 1.2,0.15 2.35,0.65 2.35,0.65 0,0 -1.9,0.05 -4,0.55 -2.1,0.5 -4.45,1.6 -4.45,1.6 l 1.45,-0.6 -1.45,0.6 0.6,1.05 -0.6,-1.05 c 0,0 1,1.7 1.7,3.45 0.55,1.4 0.2,4.8 0.1,6.35 -0.05,0.5 -0.25,1.5 -0.4,2.65 -0.15,0.3 -0.35,0.6 -0.55,0.85 0,0.05 0,0.05 0,0.1 0,0.05 0,0.1 0,0.15 0,0.05 0,0.05 0,0.1 0.05,0.05 0.05,0.1 0.1,0.15 -0.05,0.05 -0.05,0.05 -0.1,0.1 -0.05,0.05 -0.05,0.1 -0.1,0.15 -0.05,0.05 -0.1,0.1 -0.15,0.15 -0.1,1.15 -0.35,2.3 -0.7,3.5 -0.55,2.05 -1.25,4.1 -2.05,6.15 -0.4,1.05 -0.75,2.1 -0.9,3.1 1.35,3.35 4,4.4 7.95,3.2 1.65,-0.5 3,-1.5 3.95,-3 0.85,-1.35 1.4,-2.85 1.75,-4.5 0.2,-1 0.4,-1.95 0.6,-2.9 L 0.35,-9.2 c 0,-0.2 0,-0.5 0,-0.8 0,-1.35 0.2,-2.7 0.55,-3.5 0.4,-2.45 1.15,-5.6 1.15,-5.6 l -0.7,3.1 0.7,-3.1 0.1,1.35 c 0.05,1 0.55,2.4 0.75,4.8 0.15,2.45 0.7,6 1.5,6.7 0.75,0.65 1.9,-0.85 2.25,-3.35 0.35,-2.5 0.95,-6.6 1.65,-9.35 0.15,-0.6 0.45,-1.05 0.8,-1.35 0,-0.05 0.05,-0.15 0.1,-0.25 0.7,-1.75 1.8,-3.2 1.8,-3.2 l -0.05,0 -4.75,-2.5 0,-0.425 m 2.7,9.375 0.05,0.475 0,0.025 c 0,-0.2 -0.05,-0.5 -0.05,-1.15 z"
           inkscape:connector-curvature="0"
           style="fill:#8a131b" />
        <path
           id="path84"
           d="m 6.2,-26.675 0,0.425 4.75,2.5 0.05,0 c 0,0 -0.55,-0.95 -1.95,-1.85 -0.4,-0.25 -1.05,-0.5 -2,-0.8 0,0 -0.2,-0.05 -0.45,-0.15 0.05,0 -0.2,-0.1 -0.4,-0.15 l 0,0.025 z m -11.4,-0.125 -0.05,0 -0.125,0 0.025,0 c 0.05,0 0,0 -0.35,0.05 -0.4,0 -1.5,0.15 -2.8,0.65 0.1,-0.05 0,0 -0.1,0.05 -0.1,0.05 -0.3,0.15 -0.5,0.25 0,0 -0.15,0.1 -0.3,0.2 -1.4,0.9 -1.9,1.6 -1.9,1.6 l 0.45,-0.45 -0.45,0.45 1.45,-0.6 -1.45,0.6 c 0,0 2.35,-1.1 4.45,-1.6 2.1,-0.5 4,-0.55 4,-0.55 0,0 -1.15,-0.5 -2.35,-0.65 z"
           inkscape:connector-curvature="0"
           style="fill:#a9252d" />
        <path
           id="path85"
           d="m 8.95,-19.25 c 0.05,-0.45 0.1,-0.85 0.2,-1.1 0,0 0,0 -0.05,0.05 -0.35,0.3 -0.65,0.75 -0.8,1.35 -0.7,2.75 -1.3,6.85 -1.65,9.35 -0.35,2.5 -1.5,4 -2.25,3.35 -0.8,-0.7 -1.35,-4.25 -1.5,-6.7 -0.2,-2.4 -0.7,-3.8 -0.75,-4.8 l -0.1,-1.35 -0.7,3.1 0.7,-3.1 c 0,0 -0.75,3.15 -1.15,5.6 0.15,-0.65 0.45,-0.95 0.75,-0.5 0.5,0.65 0.1,7.4 -0.4,8.05 -0.5,0.6 -0.8,-1 -0.9,-3.25 l -0.45,4.95 c -0.2,0.95 -0.4,1.9 -0.6,2.9 -0.35,1.65 -0.9,3.15 -1.75,4.5 -0.95,1.5 -2.3,2.5 -3.95,3 -3.95,1.2 -6.6,0.15 -7.95,-3.2 -0.05,0.15 -0.05,0.2 -0.05,0.25 -0.1,0.45 -0.2,0.95 -0.2,1.15 -0.15,0.85 -0.2,1.4 -0.25,2 -0.35,1.65 -0.7,3.35 -1.05,5.1 -0.5,2.55 -0.95,5.15 -1.3,7.8 -0.3,2.25 -0.55,4.35 -0.65,6.15 0.8,0.25 1.6,0.5 2.25,0.7 1.25,-1.05 2.25,-2.2 3.1,-3.45 0.8,-1.35 1.2,-2.55 1.2,-3.65 0,-1.1 0.25,-0.05 0.75,3.2 l 0,-0.05 c 0.15,0.35 0.3,0.65 0.55,0.95 0.75,0.95 1.7,1.6 2.8,2.05 3.05,-1.25 5.9,-1.9 8.35,-1.9 C 2,22.6 2.7,21.75 3.25,20.7 3.7,19.75 4.15,18.8 4.5,17.85 4.55,17.7 4.65,17.65 4.8,17.7 c 0.25,0.7 0.35,1.5 0.35,2.35 0.05,0.85 0.3,1.55 0.75,2.1 0.3,0.4 0.65,0.8 1,1.15 1.15,0.45 2.3,0.7 3.55,0.7 0.15,0 0.25,0 0.4,0 0.55,-0.35 1.15,-0.7 1.8,-1.05 0.55,-0.3 0.9,-0.8 1.05,-1.45 0.05,-0.15 0.15,-0.25 0.3,-0.3 0.35,0.1 0.55,0.35 0.5,0.8 -0.05,0.2 -0.05,0.4 0,0.65 0.45,1.05 0.85,1.6 1.2,1.7 0.2,0.05 0.4,0.15 0.55,0.25 -0.25,0.15 -0.45,0.3 -0.7,0.45 1.6,-0.9 2.75,-2.2 3.4,-3.95 0.45,-1.15 0.65,-2.4 0.7,-3.65 0.05,-0.9 0.15,-1.75 0.4,-2.55 0,-0.05 0.05,-0.05 0.1,-0.1 0.6,0.85 0.85,1.85 0.7,3.05 -0.1,1.15 0,2.2 0.35,3.25 0.2,0.5 0.5,1 0.9,1.5 0.3,0.05 0.6,0.15 0.95,0.2 0,0.05 0,0.15 0.05,0.2 -0.15,-0.65 -0.15,-1.35 0.05,-2.2 0.35,-1.4 0.9,-2.7 1.7,-3.95 0.5,-0.75 1.1,-1.4 1.8,-1.9 C 26.4,13.15 25.85,11.3 24.9,9.45 23.95,7.6 22.85,5.9 21.5,4.35 20.25,2.9 18.85,1.6 17.3,0.5 12.8,-2.6 10.2,-6.85 9.45,-12.2 c 0,0.3 0,0.6 0.05,0.85 -0.2,-1.1 -0.3,-2.25 -0.35,-2.85 l -0.2,-2.625 -0.05,-0.475 0.05,0.475 0,0.025 c 0,-0.2 -0.05,-0.5 -0.05,-1.15 l -0.025,-0.025 0.05,-1.3 M 12.6,4.55 c 0.25,0.35 0.2,0.75 -0.2,1.2 0.1,-0.1 0.2,-0.2 0.25,-0.3 C 13.4,9.6 11.85,12.1 8,12.85 4.15,13.6 1.05,13.55 -1.4,12.75 -3.85,11.9 -5.6,11.2 -6.55,10.6 -7.55,9.95 -8.15,9.4 -8.3,8.95 -8.1,9 -7.9,9.1 -7.7,9.2 c 0,0 0,0 0.05,0 C -7.9,9.05 -8.15,8.8 -8.35,8.55 -3.8,9.5 0.85,9.35 5.5,8.05 7.15,7.6 8.75,6.95 10.2,6 11.05,5.5 11.85,5 12.6,4.55 z"
           inkscape:connector-curvature="0"
           style="fill:#81121a" />
        <path
           id="path86"
           d="M 12.6,4.55 C 11.85,5 11.05,5.5 10.2,6 8.75,6.95 7.15,7.6 5.5,8.05 0.85,9.35 -3.8,9.5 -8.35,8.55 c 0.2,0.25 0.45,0.5 0.7,0.65 -0.05,0 -0.05,0 -0.05,0 C -7.9,9.1 -8.1,9 -8.3,8.95 c 0.15,0.45 0.75,1 1.75,1.65 0.95,0.6 2.7,1.3 5.15,2.15 2.45,0.8 5.55,0.85 9.4,0.1 3.85,-0.75 5.4,-3.25 4.65,-7.4 -0.05,0.1 -0.15,0.2 -0.25,0.3 0.4,-0.45 0.45,-0.85 0.2,-1.2 z M 0.9,-13.5 c -0.35,0.8 -0.55,2.15 -0.55,3.5 0,0.3 0,0.6 0,0.8 0.1,2.25 0.4,3.85 0.9,3.25 0.5,-0.65 0.9,-7.4 0.4,-8.05 -0.3,-0.45 -0.6,-0.15 -0.75,0.5 z m 25.9,30.2 c 0,-0.6 -0.05,-1.2 -0.15,-1.75 -0.7,0.5 -1.3,1.15 -1.8,1.9 -0.8,1.25 -1.35,2.55 -1.7,3.95 -0.2,0.85 -0.2,1.55 -0.05,2.2 -0.05,-0.05 -0.05,-0.15 -0.05,-0.2 -0.35,-0.05 -0.65,-0.15 -0.95,-0.2 -0.4,-0.5 -0.7,-1 -0.9,-1.5 -0.35,-1.05 -0.45,-2.1 -0.35,-3.25 0.15,-1.2 -0.1,-2.2 -0.7,-3.05 -0.05,0.05 -0.1,0.05 -0.1,0.1 -0.25,0.8 -0.35,1.65 -0.4,2.55 -0.05,1.25 -0.25,2.5 -0.7,3.65 -0.65,1.75 -1.8,3.05 -3.4,3.95 C 15.8,24.9 16,24.75 16.25,24.6 16.1,24.5 15.9,24.4 15.7,24.35 15.35,24.25 14.95,23.7 14.5,22.65 14.45,22.4 14.45,22.2 14.5,22 14.55,21.55 14.35,21.3 14,21.2 c -0.15,0.05 -0.25,0.15 -0.3,0.3 -0.15,0.65 -0.5,1.15 -1.05,1.45 C 12,23.3 11.4,23.65 10.85,24 10.7,24 10.6,24 10.45,24 9.2,24 8.05,23.75 6.9,23.3 6.55,22.95 6.2,22.55 5.9,22.15 5.45,21.6 5.2,20.9 5.15,20.05 5.15,19.2 5.05,18.4 4.8,17.7 4.65,17.65 4.55,17.7 4.5,17.85 4.15,18.8 3.7,19.75 3.25,20.7 2.7,21.75 2,22.6 1.15,23.25 c 0.5,0 0.95,0 1.35,0.05 0.75,0.05 1.45,0.1 2.1,0.25 0.75,0.15 1.45,0.25 2,0.35 1.2,0.2 2.2,0.4 3.1,0.5 0.3,0.05 0.4,0.05 0.5,0.05 1.75,0.25 3.5,0.45 5.25,0.6 0.15,0.05 0.35,0.05 0.55,0.05 0.2,0 0.4,0 0.5,0.05 2.1,0.1 4.05,-0.45 5.95,-1.55 0.3,-0.15 0.5,-0.3 0.7,-0.45 0.25,-0.15 0.5,-0.35 0.7,-0.5 0.9,-0.7 1.75,-1.5 2.6,-2.45 0.25,-1.1 0.35,-2.2 0.35,-3.5 z m -37.35,5.45 0,0.05 c -0.5,-3.25 -0.75,-4.3 -0.75,-3.2 0,1.1 -0.4,2.3 -1.2,3.65 -0.85,1.25 -1.85,2.4 -3.1,3.45 0.15,0.05 0.15,0.05 0.15,0.05 l 0.225,0.05 0.025,0 c 0.05,0.05 0.1,0.05 0.2,0.05 2.25,0.55 4.45,0.25 6.65,-0.6 0.05,-0.1 0.1,-0.1 0.15,-0.1 0.05,-0.05 0.1,-0.1 0.15,-0.05 0.05,-0.05 0.1,-0.1 0.3,-0.1 0.25,-0.1 0.5,-0.2 0.55,-0.25 -1.1,-0.45 -2.05,-1.1 -2.8,-2.05 -0.25,-0.3 -0.4,-0.6 -0.55,-0.95 z"
           inkscape:connector-curvature="0"
           style="fill:#721016" />
      </g>
      <animate
         attributeName="display"
         begin="0s"
         repeatCount="indefinite"
         dur="0.75s"
         keyTimes="0;0.389;0.5;1"
         values="none;inline;none;none"
         id="animate3183" />
    </g>
    <g
       id="backCoatC006_1_1150">
      <g
         id="element3">
        <path
           id="path57"
           d="m 4.65,-27 c 0.4,0.05 1.05,0.2 1.55,0.35 l 0,-0.025 0,-0.025 c 0.2,0.05 0.45,0.15 0.4,0.15 -1.1,-1.4 -6.45,-1.9 -9.15,-1.4 q -1.882,0.396 -3.175,1.175 l 0.025,0.025 c 0.35,-0.05 0.4,-0.05 0.35,-0.05 l -0.025,0 0.125,0 c 0.75,-0.15 4.25,-1.35 9.9,-0.2 z m 16.8,50.8 c -0.25,0.15 -0.45,0.3 -0.6,0.45 -0.3,0.2 -0.6,0.4 -0.85,0.55 -0.4,0.25 -0.75,0.45 -1.1,0.6 -0.5,0.25 -0.95,0.45 -1.45,0.6 -0.4,0.1 -0.65,0.2 -0.9,0.25 -0.05,0 -0.1,0 -0.1,0.05 -0.35,0.15 -0.8,0.2 -1.25,0.2 -0.05,-0.05 -0.05,-0.05 -0.05,0 -1.4,0.15 -2.85,0 -4.5,-0.35 C 10.45,26.1 10.25,26 9.8,25.9 9.35,25.7 8.65,25.5 7.95,25.2 7,24.75 6,24.45 5.05,24.25 4.85,24.2 4.75,24.15 4.7,24.1 4.55,24.05 4.35,24.05 4.2,24.05 2.25,23.7 0.35,23.7 -1.45,24.05 l -0.475,0.05 0.025,0 c -0.3,0.05 -0.6,0.15 -0.85,0.2 l -0.025,-0.025 0,0.025 0.025,0 c -0.95,0.2 -2.05,0.55 -3.15,1.05 -2.5,1.05 -4.85,1.55 -7.05,1.5 -1,-0.1 -2,-0.25 -2.95,-0.55 -1.5,-0.5 -3.05,-1.4 -4.5,-2.75 -0.5,-0.45 -1.05,-1 -1.55,-1.65 -0.05,-0.05 -0.1,-0.05 -0.15,-0.1 -0.05,-0.05 -0.15,-0.1 -0.2,-0.1 -0.2,0.35 -0.35,0.65 -0.5,0.9 l 0,0.05 c -0.05,0.05 -0.05,0.05 -0.05,0.05 0.55,1.75 1.95,3.15 4.3,4.15 3.95,1.7 8,1.7 12.15,-0.05 4.85,-2.05 9.8,-2.15 14.8,-0.3 5.05,1.95 9.7,1.25 13.95,-2.15 0.2,-0.7 0.25,-1 0.15,-0.9 0.1,-0.25 0.2,-0.5 0.3,-0.8 -0.15,0.15 -0.35,0.25 -0.5,0.4 -0.3,0.3 -0.6,0.55 -0.85,0.75 z m -43.8,-2.1 -0.05,-0.025 0,0.025 c -0.05,0.2 -0.05,0.2 -0.05,0.2 0,-0.05 0,-0.1 0.1,-0.2 z"
           inkscape:connector-curvature="0"
           style="fill:#2a3b6e" />
        <path
           id="path58"
           d="M 6.2,-26.65 C 5.7,-26.8 5.05,-26.95 4.65,-27 c -5.65,-1.15 -9.15,0.05 -9.9,0.2 l 0.05,0 c 1.2,0.15 2.35,0.65 2.35,0.65 0,0 -1.9,0.05 -4,0.55 -2.1,0.5 -4.45,1.6 -4.45,1.6 l 1.45,-0.6 -1.45,0.6 0.6,1.05 -0.6,-1.05 c 0,0 1,1.7 1.7,3.45 0.55,1.4 0.2,4.8 0.1,6.35 -0.1,0.85 -0.55,3.3 -1.2,5.9 -1.4,3.15 -2.6,6.4 -3.65,9.8 -0.15,0.5 -0.3,1 -0.35,1.15 0.55,1.45 1.8,2.7 3.65,3.75 1.85,1 3.9,0.75 6.15,-0.8 2.25,-1.55 3.55,-3.25 3.95,-5.1 0.4,-1.85 0.75,-3.7 1.05,-5.55 L -0.1,-4.175 0.35,-9.2 c 0,-0.2 0,-0.5 0,-0.8 0,-1.35 0.2,-2.7 0.55,-3.5 0.4,-2.45 1.15,-5.6 1.15,-5.6 l -0.7,3.1 0.7,-3.1 0.1,1.35 c 0.05,1 0.55,2.4 0.75,4.8 0.15,2.45 0.7,6 1.5,6.7 0.75,0.65 1.9,-0.85 2.25,-3.35 0.35,-2.5 0.95,-6.6 1.65,-9.35 0.15,-0.6 0.45,-1.05 0.8,-1.35 0,-0.05 0.05,-0.15 0.1,-0.25 0.7,-1.75 1.8,-3.2 1.8,-3.2 l -0.05,0 -4.75,-2.5 0,-0.425 m 2.7,9.375 0.05,0.475 0,0.025 c 0,-0.2 -0.05,-0.5 -0.05,-1.15 z"
           inkscape:connector-curvature="0"
           style="fill:#8a131b" />
        <path
           id="path59"
           d="m 6.2,-26.675 0,0.425 4.75,2.5 0.05,0 c 0,0 -0.55,-0.95 -1.95,-1.85 -0.4,-0.25 -1.05,-0.5 -2,-0.8 0,0 -0.2,-0.05 -0.45,-0.15 0.05,0 -0.2,-0.1 -0.4,-0.15 l 0,0.025 z m -11.4,-0.125 -0.05,0 -0.125,0 0.025,0 c 0.05,0 0,0 -0.35,0.05 -0.4,0 -1.5,0.15 -2.8,0.65 0.1,-0.05 0,0 -0.1,0.05 -0.1,0.05 -0.3,0.15 -0.5,0.25 0,0 -0.15,0.1 -0.3,0.2 -1.4,0.9 -1.9,1.6 -1.9,1.6 l 0.45,-0.45 -0.45,0.45 1.45,-0.6 -1.45,0.6 c 0,0 2.35,-1.1 4.45,-1.6 2.1,-0.5 4,-0.55 4,-0.55 0,0 -1.15,-0.5 -2.35,-0.65 z"
           inkscape:connector-curvature="0"
           style="fill:#a9252d" />
        <path
           id="path60"
           d="m 8.95,-19.25 c 0.05,-0.45 0.1,-0.85 0.2,-1.1 0,0 0,0 -0.05,0.05 -0.35,0.3 -0.65,0.75 -0.8,1.35 -0.7,2.75 -1.3,6.85 -1.65,9.35 -0.35,2.5 -1.5,4 -2.25,3.35 -0.8,-0.7 -1.35,-4.25 -1.5,-6.7 -0.2,-2.4 -0.7,-3.8 -0.75,-4.8 l -0.1,-1.35 -0.7,3.1 0.7,-3.1 c 0,0 -0.75,3.15 -1.15,5.6 0.15,-0.65 0.45,-0.95 0.75,-0.5 0.5,0.65 0.1,7.4 -0.4,8.05 -0.5,0.6 -0.8,-1 -0.9,-3.25 L -0.1,-4.175 0.1,-5.05 c -0.3,1.85 -0.65,3.7 -1.05,5.55 -0.4,1.85 -1.7,3.55 -3.95,5.1 -2.25,1.55 -4.3,1.8 -6.15,0.8 -1.85,-1.05 -3.1,-2.3 -3.65,-3.75 l -0.025,-0.025 0,0.025 0.025,0 c -0.05,0.1 -0.1,0.25 -0.15,0.4 l 0,-0.025 -0.125,0.375 0.025,0 c -0.85,2.4 -1.75,4.5 -2.75,6.55 -2.1,4.2 -3.7,8.2 -4.7,11.75 l 0,-0.025 0.05,0.025 c 0.15,-0.35 0.45,-0.75 0.7,-1.15 -0.05,0.1 -0.15,0.2 -0.2,0.3 -0.2,0.3 -0.35,0.6 -0.45,0.85 0.05,0 0.15,0.05 0.2,0.1 0.05,0.05 0.1,0.05 0.15,0.1 0.5,0.65 1.05,1.2 1.55,1.65 -0.1,-0.1 -0.2,-0.2 -0.3,-0.3 0.75,-0.8 1.45,-1.6 2.2,-2.45 0.9,-1.05 1.7,-2.05 2.4,-3.05 0.15,-0.2 0.3,-0.3 0.55,-0.35 -0.5,1.35 -0.85,2.85 -1,4.5 -0.15,1.75 0.5,3.1 1.95,4.15 0.5,0.35 1.05,0.65 1.65,0.8 2.2,0.05 4.55,-0.45 7.05,-1.5 1.1,-0.5 2.2,-0.85 3.15,-1.05 0.3,-0.4 0.7,-0.8 1.25,-1.15 0.5,-0.4 1.1,-1.05 1.8,-1.9 l 0,0.05 c 0.15,-0.25 0.4,-0.65 0.75,-1.3 0.25,-0.5 0.5,-1 0.7,-1.5 0.1,-0.25 0.3,-0.4 0.55,-0.45 0.4,0.6 0.7,1.3 0.9,2.15 0.15,0.75 0.5,1.4 0.95,2 0.35,0.4 0.55,0.85 0.6,1.35 0.3,0.3 0.65,0.6 1,0.85 C 5.5,24.35 5.3,24.3 5.05,24.25 6,24.45 7,24.75 7.95,25.2 c 0.7,0.3 1.4,0.5 1.85,0.7 0.35,-0.35 0.7,-0.75 1.05,-1.1 0.55,-0.55 0.8,-1.15 0.85,-1.9 0,-0.35 0.15,-0.6 0.4,-0.65 0.25,1 0.7,1.9 1.35,2.7 0.65,0.85 1.45,1.05 2.4,0.6 0.2,-0.1 0.35,-0.15 0.65,-0.25 0.75,-1.8 1.1,-3.4 1.05,-4.85 C 17.5,18.6 17.35,16.8 17.2,15 c 0,-0.05 0.05,-0.1 0.15,-0.1 0.1,0.4 0.2,0.8 0.25,1.15 l 0.05,0.25 c 0.15,0.75 0.25,1.45 0.35,2.2 0,-0.05 0.05,-0.15 0.1,-0.2 0.75,3.35 1.35,5.45 1.8,6.3 0.05,0.05 0.05,0.15 0.1,0.2 0.25,-0.15 0.55,-0.35 0.85,-0.55 -0.15,-1.05 -0.1,-2.25 0.2,-3.6 0.3,-1.35 0.65,-2.4 1.05,-3.2 0.4,-0.85 0.9,-1.5 1.55,-1.95 0,-2.6 -0.75,-5.4 -1.9,-8.1 -1.35,-3.2 -3.1,-5.8 -5.3,-7.85 -1.05,-1.05 -1.8,-1.7 -2.2,-2 -0.4,-0.35 -0.7,-0.6 -0.85,-0.85 -0.2,-0.25 -0.75,-1 -1.6,-2.25 0.5,0.55 0.5,0.45 -0.05,-0.2 C 11.2,-6.45 10.7,-7.4 10.2,-8.6 10,-9.05 9.85,-9.45 9.75,-9.8 9.7,-10.05 9.65,-10.35 9.6,-10.7 9.35,-12.05 9.25,-13.45 9.15,-14.2 l -0.2,-2.625 -0.05,-0.475 0.05,0.475 0,0.025 c 0,-0.2 -0.05,-0.5 -0.05,-1.15 l -0.025,-0.025 0.05,-1.3 M 12.55,5.4 C 12.5,5.95 12.3,6.4 11.85,6.85 11.4,10.1 9.3,12.25 5.55,13.3 1.9,14.35 -1.55,14.05 -4.8,12.4 -6.65,11.45 -8,10.15 -8.85,8.45 c 0.15,0.1 0.25,0.2 0.4,0.35 1.25,-0.1 2.85,0 4.7,0.25 3.6,0.45 7.1,0.1 10.45,-1.1 C 8.35,7.4 9.95,6.7 11.4,5.9 11.8,5.65 12.2,5.5 12.55,5.4 z"
           inkscape:connector-curvature="0"
           style="fill:#81121a" />
        <path
           id="path61"
           d="M 12.55,5.4 C 12.2,5.5 11.8,5.65 11.4,5.9 9.95,6.7 8.35,7.4 6.7,7.95 3.35,9.15 -0.15,9.5 -3.75,9.05 -5.6,8.8 -7.2,8.7 -8.45,8.8 -8.6,8.65 -8.7,8.55 -8.85,8.45 c 0.85,1.7 2.2,3 4.05,3.95 3.25,1.65 6.7,1.95 10.35,0.9 C 9.3,12.25 11.4,10.1 11.85,6.85 12.3,6.4 12.5,5.95 12.55,5.4 z M 0.9,-13.5 c -0.35,0.8 -0.55,2.15 -0.55,3.5 0,0.3 0,0.6 0,0.8 0.1,2.25 0.4,3.85 0.9,3.25 0.5,-0.65 0.9,-7.4 0.4,-8.05 -0.3,-0.45 -0.6,-0.15 -0.75,0.5 z m 22.75,29 c -0.65,0.45 -1.15,1.1 -1.55,1.95 -0.4,0.8 -0.75,1.85 -1.05,3.2 -0.3,1.35 -0.35,2.55 -0.2,3.6 0.15,-0.15 0.35,-0.3 0.6,-0.45 0.25,-0.2 0.55,-0.45 0.85,-0.75 0.15,-0.15 0.35,-0.25 0.5,-0.4 0.55,-1.65 0.85,-3.5 0.9,-5.4 0,-0.05 0,-0.1 0,-0.25 0,-0.1 0,-0.2 0,-0.35 l -0.025,-0.8 0.025,0 c 0,-0.1 0,-0.2 -0.05,-0.35 z M 2.3,18.05 C 2.05,18.1 1.85,18.25 1.75,18.5 1.55,19 1.3,19.5 1.05,20 0.7,20.65 0.45,21.05 0.3,21.3 l 0,-0.05 c -0.7,0.85 -1.3,1.5 -1.8,1.9 -0.55,0.35 -0.95,0.75 -1.25,1.15 l -0.025,-0.025 0,0.025 0.025,0 c 0.25,-0.05 0.55,-0.15 0.85,-0.2 l -0.025,0 0.475,-0.05 c 1.8,-0.35 3.7,-0.35 5.65,0 0.15,0 0.35,0 0.5,0.05 0.05,0.05 0.15,0.1 0.35,0.15 0.25,0.05 0.45,0.1 0.7,0.15 C 5.4,24.15 5.05,23.85 4.75,23.55 4.7,23.05 4.5,22.6 4.15,22.2 3.7,21.6 3.35,20.95 3.2,20.2 3,19.35 2.7,18.65 2.3,18.05 z M 19.9,24.6 C 19.45,23.75 18.85,21.65 18.1,18.3 18.05,18.35 18,18.45 18,18.5 17.9,17.75 17.8,17.05 17.65,16.3 L 17.6,16.05 C 17.55,15.7 17.45,15.3 17.35,14.9 c -0.1,0 -0.15,0.05 -0.15,0.1 0.15,1.8 0.3,3.6 0.35,5.45 0.05,1.45 -0.3,3.05 -1.05,4.85 -0.3,0.1 -0.45,0.15 -0.65,0.25 -0.95,0.45 -1.75,0.25 -2.4,-0.6 -0.65,-0.8 -1.1,-1.7 -1.35,-2.7 -0.25,0.05 -0.4,0.3 -0.4,0.65 -0.05,0.75 -0.3,1.35 -0.85,1.9 -0.35,0.35 -0.7,0.75 -1.05,1.1 0.45,0.1 0.65,0.2 0.85,0.25 1.65,0.35 3.1,0.5 4.5,0.35 0,-0.05 0,-0.05 0.05,0 0.45,0 0.9,-0.05 1.25,-0.2 0,-0.05 0.05,-0.05 0.1,-0.05 0.25,-0.05 0.5,-0.15 0.9,-0.25 0.5,-0.15 0.95,-0.35 1.45,-0.6 0.35,-0.15 0.7,-0.35 1.1,-0.6 -0.05,-0.05 -0.05,-0.15 -0.1,-0.2 z m -36.45,-2.7 c 0.15,-1.65 0.5,-3.15 1,-4.5 -0.25,0.05 -0.4,0.15 -0.55,0.35 -0.7,1 -1.5,2 -2.4,3.05 -0.75,0.85 -1.45,1.65 -2.2,2.45 0.1,0.1 0.2,0.2 0.3,0.3 1.45,1.35 3,2.25 4.5,2.75 0.95,0.3 1.95,0.45 2.95,0.55 -0.6,-0.15 -1.15,-0.45 -1.65,-0.8 -1.45,-1.05 -2.1,-2.4 -1.95,-4.15 z"
           inkscape:connector-curvature="0"
           style="fill:#721016" />
      </g>
      <animate
         attributeName="display"
         begin="0s"
         repeatCount="indefinite"
         dur="0.75s"
         keyTimes="0;0.278;0.389;1"
         values="none;inline;none;none"
         id="animate3192" />
    </g>
    <g
       id="backCoatC006_1_1148">
      <g
         id="element2">
        <path
           id="path28"
           d="m 4.65,-27 c 0.4,0.05 1.05,0.2 1.55,0.35 l 0,-0.025 0,-0.025 c 0.2,0.05 0.45,0.15 0.4,0.15 -1.1,-1.4 -6.45,-1.9 -9.15,-1.4 q -1.882,0.396 -3.175,1.175 l 0.025,0.025 c 0.35,-0.05 0.4,-0.05 0.35,-0.05 l -0.025,0 0.125,0 c 0.75,-0.15 4.25,-1.35 9.9,-0.2 z m 0.4,49.5 C 4.5,22.55 4,22.55 3.5,22.6 c -1.65,0.15 -3.35,0.35 -5,0.6 -0.7,0.1 -1.4,0.25 -2.1,0.4 -0.05,0 -0.1,0 -0.15,0 -2.15,0.45 -4.2,0.7 -6.25,0.75 l -0.025,-0.025 -0.775,0 0,0.025 c -3.1,0 -6.1,-0.45 -8.95,-1.3 l -0.025,-0.025 0.025,0.025 c -0.35,-0.1 -0.7,-0.2 -1.05,-0.35 l -0.35,-0.125 0,0.025 c -0.1,-0.05 -0.2,-0.05 -0.25,-0.1 -0.05,-0.05 -0.15,-0.1 -0.4,-0.2 0,0 -0.2,-0.05 -0.4,-0.15 -0.6,-0.2 -1.2,-0.45 -2,-0.8 -1.25,-0.6 -2.85,-1.45 -4.45,-2.55 -0.15,0.15 -0.2,0.2 -0.25,0.25 -0.05,-0.05 -0.15,-0.1 -0.2,-0.15 0,0.1 0,0.2 0.05,0.3 -0.2,0.15 -0.4,0.35 -0.6,0.55 0.2,-0.15 0.4,-0.25 0.65,-0.35 0.1,0.2 0.4,0.55 0.9,1 0.45,0.45 1.1,0.9 1.95,1.35 0.8,0.45 1.4,0.8 1.8,1.05 0.35,0.25 1.35,0.75 2.8,1.55 1,0.35 2,0.6 3.05,0.85 0.8,0.15 1.6,0.35 2.35,0.5 0.85,0.05 1.55,0.1 2.35,0.15 3.55,0.1 6.45,-0.15 8.8,-0.7 2.35,-0.6 4.1,-1 5.25,-1.15 1.15,-0.15 2.05,-0.35 2.8,-0.5 0.7,-0.2 1.6,-0.3 2.65,-0.25 1.05,0.05 1.95,0.1 2.6,0.25 3.45,0.2 6.7,1.6 9.8,4.2 0.2,-0.9 0.35,-1.4 0.4,-1.45 C 17.75,25.6 16.95,25 16.1,24.5 l 0,0.025 0,0.025 c -0.3,-0.2 -0.6,-0.35 -0.85,-0.5 l -0.025,-0.025 0,0.025 0.025,0 C 14.6,23.7 13.9,23.45 13.2,23.2 l 0,-0.025 -0.825,-0.25 0.025,0.025 C 12.3,22.9 12.2,22.9 12.1,22.85 11.35,22.7 10.65,22.55 9.9,22.5 l -0.025,-0.025 -0.625,-0.05 0,0.025 C 8.85,22.4 8.45,22.4 8.05,22.4 l -0.5,0 C 6.7,22.45 5.9,22.45 5.05,22.5 z"
           inkscape:connector-curvature="0"
           style="fill:#2a3b6e" />
        <path
           id="path29"
           d="M 6.2,-26.65 C 5.7,-26.8 5.05,-26.95 4.65,-27 c -5.65,-1.15 -9.15,0.05 -9.9,0.2 l 0.05,0 c 1.2,0.15 2.35,0.65 2.35,0.65 0,0 -1.9,0.05 -4,0.55 -2.1,0.5 -4.45,1.6 -4.45,1.6 l 1.45,-0.6 -1.45,0.6 0.6,1.05 -0.6,-1.05 c 0,0 1,1.7 1.7,3.45 0.55,1.4 0.2,4.8 0.1,6.35 -0.05,0.7 -0.35,2.3 -0.75,4.05 -0.15,0.4 -0.25,0.8 -0.4,1.25 -1.1,3.85 -2.6,7.5 -4.5,11.05 0.5,1.4 1.45,2.55 2.9,3.45 1.65,0.95 3.35,1.05 5.1,0.25 3,-1.35 5,-3.6 6.05,-6.8 0.45,-1.3 0.8,-2.6 1.05,-3.85 l 0.4,-4.4 c 0,-0.2 0,-0.5 0,-0.8 0,-1.35 0.2,-2.7 0.55,-3.5 0.4,-2.45 1.15,-5.6 1.15,-5.6 l -0.7,3.1 0.7,-3.1 0.1,1.35 c 0.05,1 0.55,2.4 0.75,4.8 0.15,2.45 0.7,6 1.5,6.7 0.75,0.65 1.9,-0.85 2.25,-3.35 0.35,-2.5 0.95,-6.6 1.65,-9.35 0.15,-0.6 0.45,-1.05 0.8,-1.35 0,-0.05 0.05,-0.15 0.1,-0.25 0.7,-1.75 1.8,-3.2 1.8,-3.2 l -0.05,0 -4.75,-2.5 0,-0.425 m 2.7,9.375 0.05,0.475 0,0.025 c 0,-0.2 -0.05,-0.5 -0.05,-1.15 z"
           inkscape:connector-curvature="0"
           style="fill:#8a131b" />
        <path
           id="path30"
           d="m 6.2,-26.675 0,0.425 4.75,2.5 0.05,0 c 0,0 -0.55,-0.95 -1.95,-1.85 -0.4,-0.25 -1.05,-0.5 -2,-0.8 0,0 -0.2,-0.05 -0.45,-0.15 0.05,0 -0.2,-0.1 -0.4,-0.15 l 0,0.025 z m -11.4,-0.125 -0.05,0 -0.125,0 0.025,0 c 0.05,0 0,0 -0.35,0.05 -0.4,0 -1.5,0.15 -2.8,0.65 0.1,-0.05 0,0 -0.1,0.05 -0.1,0.05 -0.3,0.15 -0.5,0.25 0,0 -0.15,0.1 -0.3,0.2 -1.4,0.9 -1.9,1.6 -1.9,1.6 l 0.45,-0.45 -0.45,0.45 1.45,-0.6 -1.45,0.6 c 0,0 2.35,-1.1 4.45,-1.6 2.1,-0.5 4,-0.55 4,-0.55 0,0 -1.15,-0.5 -2.35,-0.65 z"
           inkscape:connector-curvature="0"
           style="fill:#a9252d" />
        <path
           id="path31"
           d="m 8.95,-19.25 c 0.05,-0.45 0.1,-0.85 0.2,-1.1 0,0 0,0 -0.05,0.05 -0.35,0.3 -0.65,0.75 -0.8,1.35 -0.7,2.75 -1.3,6.85 -1.65,9.35 -0.35,2.5 -1.5,4 -2.25,3.35 -0.8,-0.7 -1.35,-4.25 -1.5,-6.7 -0.2,-2.4 -0.7,-3.8 -0.75,-4.8 l -0.1,-1.35 -0.7,3.1 0.7,-3.1 c 0,0 -0.75,3.15 -1.15,5.6 0.15,-0.65 0.45,-0.95 0.75,-0.5 0.5,0.65 0.1,7.4 -0.4,8.05 -0.5,0.6 -0.8,-1 -0.9,-3.25 l -0.4,4.4 c -0.25,1.25 -0.6,2.55 -1.05,3.85 -1.05,3.2 -3.05,5.45 -6.05,6.8 -1.75,0.8 -3.45,0.7 -5.1,-0.25 -1.45,-0.9 -2.4,-2.05 -2.9,-3.45 -0.15,0.25 -0.3,0.5 -0.45,0.75 -0.25,0.45 -0.5,0.9 -0.8,1.35 -1.85,3 -3.95,5.75 -6.3,8.3 -2.1,2.3 -4.15,4.4 -5.95,6.25 1.6,1.1 3.2,1.95 4.45,2.55 -0.6,-0.3 -1.3,-0.65 -2.1,-1.1 -0.35,-0.2 -0.7,-0.4 -1.05,-0.65 0.85,-0.3 1.8,-0.65 2.75,-1 1.25,-0.45 2.4,-1.15 3.45,-2.1 0.2,-0.2 0.45,-0.35 0.7,-0.45 0.3,-0.35 0.6,-0.65 0.9,-0.9 0.35,0.45 0.15,1.2 -0.5,2.2 -0.85,1.35 -1.05,2.75 -0.6,4.3 0.15,0.55 0.45,1 0.9,1.4 2.85,0.85 5.85,1.3 8.95,1.3 1.45,-0.55 2.65,-1.45 3.55,-2.8 0.6,-0.95 1.05,-1.95 1.3,-3.05 0.1,-0.4 0.35,-0.65 0.7,-0.8 0.45,0.95 0.7,2.05 0.8,3.3 0.05,0.8 0.5,1.35 1.3,1.65 0.55,0.2 1.1,0.4 1.65,0.55 1.65,-0.25 3.35,-0.45 5,-0.6 0.5,-0.45 1,-0.85 1.5,-1.3 0.7,-0.65 1.2,-1.4 1.5,-2.3 0.15,-0.45 0.15,-0.9 0.1,-1.25 0.05,0 0.05,0 0.1,0 0.05,0 0.1,0 0.15,-0.05 0.05,-0.05 0.15,-0.15 0.2,-0.2 0.05,-0.05 0.05,-0.05 0.1,-0.05 0.3,0.85 0.5,1.9 0.6,3.05 0.05,0.9 0.6,1.3 1.55,1.2 0.1,0 0.2,0 0.35,0 0.6,-0.65 1.15,-1.35 1.65,-2.1 0.95,-1.45 1.6,-2.95 1.95,-4.6 0.1,-0.45 0.25,-0.75 0.5,-0.95 0.5,1.25 0.5,2.65 -0.05,4.3 -0.45,1.45 -0.65,2.95 -0.55,4.4 0,0.15 0,0.3 0.05,0.45 0.7,0.25 1.4,0.5 2.05,0.85 -0.05,-0.5 0.1,-1.05 0.35,-1.65 0.8,-1.85 2.05,-3.25 3.8,-4.2 0.45,-0.25 0.85,-0.45 1.3,-0.65 -0.05,0.15 -0.05,0.35 -0.1,0.5 0.55,-3 0.6,-6.2 0.15,-9.45 C 20.35,6.05 19.2,3.95 17.3,2.2 14.4,-0.45 12.2,-3.45 10.7,-6.8 9.5,-9.5 9.3,-12.95 9.15,-14.2 l -0.2,-2.625 -0.05,-0.475 0.05,0.475 0,0.025 c 0,-0.2 -0.05,-0.5 -0.05,-1.15 l -0.025,-0.025 0.05,-1.3 M 11.9,6.1 C 11.45,8.35 9.95,10.15 7.4,11.55 3.95,13.5 0.25,14.2 -3.75,13.7 c -3.6,-0.45 -6.1,-2.3 -7.55,-5.5 0.05,0.1 0.15,0.2 0.25,0.3 1.3,-0.1 2.9,0 4.8,0.3 C -2.6,9.35 1.05,9.15 4.7,8.3 6.8,7.75 8.8,7 10.75,5.95 11.1,5.75 11.5,5.6 11.9,5.5 11.95,5.4 11.95,5.3 12,5.25 12,5.3 12,5.4 12,5.45 12.25,5.4 12.5,5.35 12.75,5.3 12.5,5.55 12.2,5.85 11.9,6.1 z M -11,8.85 c -0.15,-0.1 -0.25,-0.2 -0.3,-0.35 0.05,0 0.1,0 0.15,0 0.05,0.1 0.1,0.2 0.15,0.35 z m -10.55,15.5 c 1,0.35 2,0.6 3.05,0.85 0.8,0.15 1.6,0.35 2.35,0.5 -2.25,-0.2 -4.1,-0.65 -5.3,-1.3 0,0 0,0 -0.1,-0.05 z"
           inkscape:connector-curvature="0"
           style="fill:#81121a" />
        <path
           id="path32"
           d="M 11.9,6.1 C 12.2,5.85 12.5,5.55 12.75,5.3 12.5,5.35 12.25,5.4 12,5.45 12,5.4 12,5.3 12,5.25 11.95,5.3 11.95,5.4 11.9,5.5 11.5,5.6 11.1,5.75 10.75,5.95 8.8,7 6.8,7.75 4.7,8.3 1.05,9.15 -2.6,9.35 -6.25,8.8 c -1.9,-0.3 -3.5,-0.4 -4.8,-0.3 -0.1,-0.1 -0.2,-0.2 -0.25,-0.3 1.45,3.2 3.95,5.05 7.55,5.5 4,0.5 7.7,-0.2 11.15,-2.15 2.55,-1.4 4.05,-3.2 4.5,-5.45 z"
           inkscape:connector-curvature="0"
           style="fill:#721016" />
        <path
           id="path35"
           d="M -11,8.85 C -11.05,8.7 -11.1,8.6 -11.15,8.5 c -0.05,0 -0.1,0 -0.15,0 0.05,0.15 0.15,0.25 0.3,0.35 z M 0.9,-13.5 c -0.35,0.8 -0.55,2.15 -0.55,3.5 0,0.3 0,0.6 0,0.8 0.1,2.25 0.4,3.85 0.9,3.25 0.5,-0.65 0.9,-7.4 0.4,-8.05 -0.3,-0.45 -0.6,-0.15 -0.75,0.5 z m 19.7,31.55 c 0.05,-0.15 0.05,-0.35 0.1,-0.5 -0.45,0.2 -0.85,0.4 -1.3,0.65 -1.75,0.95 -3,2.35 -3.8,4.2 -0.25,0.6 -0.4,1.15 -0.35,1.65 l -0.025,-0.025 0,0.025 0.025,0 c 0.25,0.15 0.55,0.3 0.85,0.5 l 0,-0.025 0,-0.025 c 0.85,0.5 1.65,1.1 2.4,1.75 0.05,-0.1 0.05,-0.1 0.05,-0.1 0.15,-0.25 0.25,-0.45 0.3,-0.7 C 18.95,25.2 19,24.95 19,24.7 19,24.45 18.95,24.2 18.85,24 19.65,22.05 20.2,20.1 20.6,18.05 z M 7.15,17.45 c -0.05,0 -0.05,0 -0.1,0.05 -0.05,0.05 -0.15,0.15 -0.2,0.2 -0.05,0.05 -0.1,0.05 -0.15,0.05 -0.05,0 -0.05,0 -0.1,0 C 6.65,18.1 6.65,18.55 6.5,19 6.2,19.9 5.7,20.65 5,21.3 4.5,21.75 4,22.15 3.5,22.6 4,22.55 4.5,22.55 5.05,22.5 5.9,22.45 6.7,22.45 7.55,22.4 l 0.5,0 c 0.4,0 0.8,0 1.2,0.05 l 0,-0.025 0.625,0.05 L 9.9,22.5 c 0.75,0.05 1.45,0.2 2.2,0.35 0.1,0.05 0.2,0.05 0.3,0.1 l -0.025,-0.025 0.825,0.25 0,0.025 c -0.05,-0.15 -0.05,-0.3 -0.05,-0.45 -0.1,-1.45 0.1,-2.95 0.55,-4.4 0.55,-1.65 0.55,-3.05 0.05,-4.3 -0.25,0.2 -0.4,0.5 -0.5,0.95 -0.35,1.65 -1,3.15 -1.95,4.6 -0.5,0.75 -1.05,1.45 -1.65,2.1 -0.15,0 -0.25,0 -0.35,0 -0.95,0.1 -1.5,-0.3 -1.55,-1.2 -0.1,-1.15 -0.3,-2.2 -0.6,-3.05 z m -27.2,-0.1 c 0.65,-1 0.85,-1.75 0.5,-2.2 -0.3,0.25 -0.6,0.55 -0.9,0.9 -0.25,0.1 -0.5,0.25 -0.7,0.45 -1.05,0.95 -2.2,1.65 -3.45,2.1 -0.95,0.35 -1.9,0.7 -2.75,1 0.35,0.25 0.7,0.45 1.05,0.65 0.8,0.45 1.5,0.8 2.1,1.1 0.8,0.35 1.4,0.6 2,0.8 0.2,0.1 0.4,0.15 0.4,0.15 0.25,0.1 0.35,0.15 0.4,0.2 0.05,0.05 0.15,0.05 0.25,0.1 l 0,-0.025 0.35,0.125 c 0.35,0.15 0.7,0.25 1.05,0.35 l -0.025,-0.025 0.025,0.025 c -0.45,-0.4 -0.75,-0.85 -0.9,-1.4 -0.45,-1.55 -0.25,-2.95 0.6,-4.3 z M -3.6,23.6 c 0.7,-0.15 1.4,-0.3 2.1,-0.4 -0.55,-0.15 -1.1,-0.35 -1.65,-0.55 -0.8,-0.3 -1.25,-0.85 -1.3,-1.65 -0.1,-1.25 -0.35,-2.35 -0.8,-3.3 -0.35,0.15 -0.6,0.4 -0.7,0.8 -0.25,1.1 -0.7,2.1 -1.3,3.05 -0.9,1.35 -2.1,2.25 -3.55,2.8 l 0,-0.025 0.775,0 0.025,0.025 c 2.05,-0.05 4.1,-0.3 6.25,-0.75 0.05,0 0.1,0 0.15,0 z"
           inkscape:connector-curvature="0"
           style="fill:#721016" />
      </g>
      <animate
         attributeName="display"
         begin="0s"
         repeatCount="indefinite"
         dur="0.75s"
         keyTimes="0;0.167;0.278;1"
         values="none;inline;none;none"
         id="animate3202" />
    </g>
    <g
       id="backCoatC006_1_1146">
      <g
         id="element1" />
      <animate
         attributeName="display"
         begin="0s"
         repeatCount="indefinite"
         dur="0.75s"
         keyTimes="0;0.056;0.167;1"
         values="none;inline;none;none"
         id="animate3206" />
    </g>
    <g
       id="backCoatC006_1_1145">
      <g
         id="element">
        <path
           id="path"
           d="M 6.2,-26.65 C 5.7,-26.8 5.05,-26.95 4.65,-27 c -5.65,-1.15 -9.15,0.05 -9.9,0.2 l 0.05,0 c 1.2,0.15 2.35,0.65 2.35,0.65 0,0 -1.9,0.05 -4,0.55 -2.1,0.5 -4.45,1.6 -4.45,1.6 l 1.45,-0.6 -1.45,0.6 0.6,1.05 -0.6,-1.05 c 0,0 1,1.7 1.7,3.45 0.55,1.35 0.2,4.6 0.15,6.05 -0.45,1.9 -0.85,3.95 -1.3,6.15 -0.6,2.95 -2.25,5.6 -4.8,7.75 0.3,0.4 0.45,0.9 0.5,1.5 0.05,0.55 0.1,1.15 0.25,1.7 0.05,0.15 0.05,0.35 0.05,0.55 0.4,0.55 0.8,1.25 1.25,2.1 0.45,0.8 1.1,1.35 2,1.6 1.9,0.55 3.55,0.5 5,-0.15 0.2,-0.1 0.4,-0.2 0.65,-0.3 1.05,-0.6 1.95,-1.55 2.75,-2.8 1.25,-1.95 2.1,-4.05 2.55,-6.4 0.1,-0.55 0.25,-1 0.45,-1.45 l 0,-0.025 0,0.1 0.45,-5.025 c 0,-0.2 0,-0.5 0,-0.8 0,-1.35 0.2,-2.7 0.55,-3.5 0.4,-2.45 1.15,-5.6 1.15,-5.6 l -0.7,3.1 0.7,-3.1 0.1,1.35 c 0.05,1 0.55,2.4 0.75,4.8 0.15,2.45 0.7,6 1.5,6.7 0.75,0.65 1.9,-0.85 2.25,-3.35 0.35,-2.5 0.95,-6.6 1.65,-9.35 0.15,-0.6 0.45,-1.05 0.8,-1.35 0,-0.05 0.05,-0.15 0.1,-0.25 0.7,-1.75 1.8,-3.2 1.8,-3.2 l -0.05,0 -4.75,-2.5 0,-0.425 m 2.7,9.375 0.05,0.475 0,0.025 c 0,-0.2 -0.05,-0.5 -0.05,-1.15 z"
           inkscape:connector-curvature="0"
           style="fill:#8a131b" />
        <path
           id="path1"
           d="m 4.65,-27 c 0.4,0.05 1.05,0.2 1.55,0.35 l 0,-0.025 0,-0.025 c 0.2,0.05 0.45,0.15 0.4,0.15 -1.1,-1.4 -6.45,-1.9 -9.15,-1.4 q -1.882,0.396 -3.175,1.175 l 0.025,0.025 c 0.35,-0.05 0.4,-0.05 0.35,-0.05 l -0.025,0 0.125,0 C -4.5,-26.95 -1,-28.15 4.65,-27 z M 9.9,29.4 9.925,29.425 9.95,29.45 c 0.2,-0.3 0.35,-0.55 0.5,-0.8 C 9.85,28.05 9.2,27.5 8.35,26.9 8.1,26.75 7.65,26.45 7.15,26.15 c -0.05,0 -0.1,0 -0.2,-0.1 L 6.925,26.025 6.65,25.875 6.65,25.9 C 5.3,25.15 3.4,24.5 1.2,24.25 0.75,24.2 0.15,24.15 -0.45,24.15 c 0,0 0,0 -0.1,0 -0.95,-0.05 -1.9,0.15 -2.85,0.5 -0.5,0.2 -1,0.35 -1.7,0.55 l -0.025,0 -0.025,0.025 0,0.025 c -0.75,0.15 -1.45,0.3 -2.1,0.4 l 0,-0.025 -0.025,0.025 0.025,0 c -0.05,0 -0.1,0 -0.2,0 0,0 0,0 -0.1,0 -0.4,0.05 -0.8,0.1 -1.35,0.1 -2.35,0.1 -4.95,-0.65 -7.6,-2.2 l -0.025,0 -0.025,0 c -0.05,-0.05 -0.15,-0.1 -0.2,-0.15 l -0.025,0 -0.975,-0.575 0,0.025 C -17.9,22.7 -18.1,22.6 -18.3,22.55 l 0,-0.025 0.025,0 0.025,0.025 c -1.8,-1 -3.75,-1.75 -5.8,-2.2 l 0,-0.025 -0.7,-0.15 0,0.025 c -1.25,-0.25 -2.55,-0.45 -3.9,-0.5 -0.25,0 -0.45,0 -0.65,0.05 l -0.025,0 -0.525,0.05 c -0.45,0.1 -0.85,0.15 -1.25,0.2 0,0 0,0 -0.05,0.05 -0.05,0.45 -0.05,0.7 -0.05,0.9 -0.05,0 -0.05,0 -0.1,0 l -0.05,0.1 c 0.05,0 0.1,0 0.15,0 l 0,-0.025 0,0.025 c 3.15,-0.15 5.75,0.2 7.7,1 1.75,0.75 3.5,1.65 5.2,2.6 3.8,2.2 8,2.6 12.55,1.25 C 0.4,24 5.6,25.15 9.9,29.4 z"
           inkscape:connector-curvature="0"
           style="fill:#2a3b6e" />
        <path
           id="path2"
           d="m 9.05,-25.6 c -0.4,-0.25 -1.05,-0.5 -2,-0.8 0,0 -0.2,-0.05 -0.45,-0.15 0.05,0 -0.2,-0.1 -0.4,-0.15 l 0,0.025 0,0.425 4.75,2.5 0.05,0 c 0,0 -0.55,-0.95 -1.95,-1.85 z m -14.4,-1.2 c 0.05,0 0,0 -0.35,0.05 -0.4,0 -1.5,0.15 -2.8,0.65 0.1,-0.05 0,0 -0.1,0.05 -0.1,0.05 -0.3,0.15 -0.5,0.25 0,0 -0.15,0.1 -0.3,0.2 -1.4,0.9 -1.9,1.6 -1.9,1.6 l 0.45,-0.45 -0.45,0.45 1.45,-0.6 -1.45,0.6 c 0,0 2.35,-1.1 4.45,-1.6 2.1,-0.5 4,-0.55 4,-0.55 0,0 -1.15,-0.5 -2.35,-0.65 l -0.05,0 -0.125,0 z"
           inkscape:connector-curvature="0"
           style="fill:#a9252d" />
        <path
           id="path3"
           d="m 8.95,-19.25 c 0.05,-0.45 0.1,-0.85 0.2,-1.1 0,0 0,0 -0.05,0.05 -0.35,0.3 -0.65,0.75 -0.8,1.35 -0.7,2.75 -1.3,6.85 -1.65,9.35 -0.35,2.5 -1.5,4 -2.25,3.35 -0.8,-0.7 -1.35,-4.25 -1.5,-6.7 -0.2,-2.4 -0.7,-3.8 -0.75,-4.8 l -0.1,-1.35 -0.7,3.1 0.7,-3.1 c 0,0 -0.75,3.15 -1.15,5.6 0.15,-0.65 0.45,-0.95 0.75,-0.5 0.5,0.65 0.1,7.4 -0.4,8.05 -0.5,0.6 -0.8,-1 -0.9,-3.25 l -0.45,5.025 0,-0.1 0,0.025 C -0.3,-3.8 -0.45,-3.35 -0.55,-2.8 -1,-0.45 -1.85,1.65 -3.1,3.6 -3.9,4.85 -4.8,5.8 -5.85,6.4 -6.1,6.5 -6.3,6.6 -6.5,6.7 c -1.45,0.65 -3.1,0.7 -5,0.15 -0.9,-0.25 -1.55,-0.8 -2,-1.6 -0.45,-0.85 -0.85,-1.55 -1.25,-2.1 0,-0.2 0,-0.4 -0.05,-0.55 -0.15,-0.55 -0.2,-1.15 -0.25,-1.7 -0.05,-0.6 -0.2,-1.1 -0.5,-1.5 -0.1,0.05 -0.25,0.2 -0.4,0.35 -0.1,0.1 -0.1,0.1 -0.1,0.1 -0.15,0.1 -0.15,0.1 -0.15,0.1 -3,2.35 -6.3,5.4 -9.95,9.1 -1.7,1.7 -2.85,3.55 -3.4,5.55 -0.25,0.5 -0.45,1.05 -0.6,1.6 -0.05,0.05 -0.05,0.15 -0.1,0.2 -0.25,0.5 -0.35,1 -0.4,1.45 -0.05,0.1 -0.05,0.2 -0.1,0.25 -0.2,0.8 -0.35,1.5 -0.4,1.95 C -31.1,20 -31.1,20 -31.1,20 c 0.4,-0.05 0.8,-0.1 1.25,-0.2 1.05,-1 2,-2.05 2.95,-3.2 0.95,-1.2 1.65,-2.5 2.05,-3.85 0.05,-0.15 0.15,-0.25 0.3,-0.3 0.05,0.15 0.1,0.25 0.15,0.25 0.1,0 0.2,0 0.3,-0.05 0.25,-0.05 0.3,0.05 0.25,0.25 -0.2,0.95 -0.5,1.8 -0.95,2.6 -0.4,0.75 -0.55,1.5 -0.4,2.3 0.1,0.6 0.2,1.2 0.3,1.85 0.3,0.2 0.6,0.45 0.85,0.7 2.05,0.45 4,1.2 5.8,2.2 2.1,-0.25 3.85,-1.2 5.2,-2.95 0.65,-0.85 1.4,-1.6 2.2,-2.25 0.65,1 0.65,2.35 -0.05,4 -0.25,0.65 -0.25,1.25 0.1,1.8 0.75,1.35 1.95,2.05 3.55,2.1 0.15,0 0.3,0.05 0.35,0.15 1.3,-0.95 2.55,-2.1 3.7,-3.4 0.9,-1 1.6,-2.1 2.15,-3.25 0.3,-0.65 0.65,-1.25 1,-1.7 0.35,0.9 0.3,1.9 -0.25,3.05 -0.6,1.25 -0.35,2.15 0.7,2.75 C 0.65,23 0.95,23.1 1.25,23.2 1.1,23.3 0.9,23.4 0.7,23.55 2.1,22.7 3.35,21.6 4.4,20.25 5.65,18.6 6.8,16.9 7.8,15.15 c 0.15,1.4 -0.3,2.95 -1.25,4.6 -1,1.75 -1.05,3.4 -0.1,4.9 0.25,0.4 0.55,0.8 0.85,1.15 0.45,-0.8 0.95,-1.55 1.55,-2.25 0.9,-1.05 2,-1.9 3.3,-2.55 0.3,-0.15 0.6,-0.3 0.85,-0.4 0.95,-4 1.4,-7.8 1.35,-11.7 -0.05,-3.35 -0.65,-6.55 -1.7,-9.6 -0.45,-1.4 -0.9,-2.8 -1.3,-4.15 l 0,-0.025 0.225,-0.025 0.025,0 c -0.15,-0.25 -0.3,-0.5 -0.5,-0.95 -0.25,-0.45 -0.55,-1.25 -0.85,-2.2 -0.4,-1.2 -0.65,-2.7 -0.85,-4 -0.15,-0.8 -0.2,-1.65 -0.25,-2.15 l -0.2,-2.625 -0.05,-0.475 0.05,0.475 0,0.025 c 0,-0.2 -0.05,-0.5 -0.05,-1.15 l -0.025,-0.025 0.05,-1.3 M 4.05,11.05 c -2.45,1.15 -5,1.9 -7.7,2.25 -3.2,0.35 -5.9,-0.55 -8.15,-2.8 -0.05,-0.05 -0.15,-0.1 -0.25,-0.15 C -12.15,10 -12.3,9.7 -12.55,9.4 -12.7,9.15 -12.85,8.9 -13,8.65 -13.1,8.4 -13.2,8.15 -13.25,7.85 -13.3,7.5 -13.5,7.25 -13.8,7 -13.9,6.95 -13.9,6.9 -13.75,6.9 -11,8.6 -7.9,9.45 -4.45,9.5 -1.2,9.55 2,9.1 5.15,8.25 7,7.7 8.8,7.2 10.6,6.65 8.7,8.4 6.5,9.9 4.05,11.05 z"
           inkscape:connector-curvature="0"
           style="fill:#81121a" />
        <path
           id="path4"
           d="M 4.05,11.05 C 6.5,9.9 8.7,8.4 10.6,6.65 8.8,7.2 7,7.7 5.15,8.25 2,9.1 -1.2,9.55 -4.45,9.5 -7.9,9.45 -11,8.6 -13.75,6.9 c -0.15,0 -0.15,0.05 -0.05,0.1 0.3,0.25 0.5,0.5 0.55,0.85 0.05,0.3 0.15,0.55 0.25,0.8 0.15,0.25 0.3,0.5 0.45,0.75 0.25,0.3 0.4,0.6 0.5,0.95 0.1,0.05 0.2,0.1 0.25,0.15 2.25,2.25 4.95,3.15 8.15,2.8 2.7,-0.35 5.25,-1.1 7.7,-2.25 z M 1.65,-14 c -0.3,-0.45 -0.6,-0.15 -0.75,0.5 -0.35,0.8 -0.55,2.15 -0.55,3.5 0,0.3 0,0.6 0,0.8 0.1,2.25 0.4,3.85 0.9,3.25 0.5,-0.65 0.9,-7.4 0.4,-8.05 z M 1.25,23.2 C 0.95,23.1 0.65,23 0.4,22.85 c -1.05,-0.6 -1.3,-1.5 -0.7,-2.75 0.55,-1.15 0.6,-2.15 0.25,-3.05 -0.35,0.45 -0.7,1.05 -1,1.7 C -1.6,19.9 -2.3,21 -3.2,22 c -1.15,1.3 -2.4,2.45 -3.7,3.4 -0.05,-0.1 -0.2,-0.15 -0.35,-0.15 -1.6,-0.05 -2.8,-0.75 -3.55,-2.1 -0.35,-0.55 -0.35,-1.15 -0.1,-1.8 0.7,-1.65 0.7,-3 0.05,-4 -0.8,0.65 -1.55,1.4 -2.2,2.25 -1.35,1.75 -3.1,2.7 -5.2,2.95 l -0.025,-0.025 -0.025,0 0,0.025 c 0.2,0.05 0.4,0.15 0.55,0.3 l 0,-0.025 0.975,0.575 0.025,0 c 0.05,0.05 0.15,0.1 0.2,0.15 l 0.025,0 0.025,0 c 2.65,1.55 5.25,2.3 7.6,2.2 0.55,0 0.95,-0.05 1.35,-0.1 0.1,0 0.1,0 0.1,0 0.1,0 0.15,0 0.2,0 l 0,-0.025 -0.025,0.025 0.025,0 c 0.65,-0.1 1.35,-0.25 2.1,-0.4 l 0,-0.025 0.025,-0.025 0.025,0 c 0.7,-0.2 1.2,-0.35 1.7,-0.55 0.95,-0.35 1.9,-0.55 2.85,-0.5 0.1,0 0.1,0 0.1,0 0.6,0 1.2,0.05 1.65,0.1 2.2,0.25 4.1,0.9 5.45,1.65 l 0,-0.025 0.275,0.15 0.025,0.025 c 0.1,0.1 0.15,0.1 0.2,0.1 0.5,0.3 0.95,0.6 1.2,0.75 0.85,0.6 1.5,1.15 2.1,1.75 0.2,-0.25 0.3,-0.45 0.35,-0.55 0.25,-0.6 0.55,-1.2 0.8,-1.8 0.25,-0.5 0.3,-1 0.15,-1.45 0.15,-0.5 0.35,-1 0.5,-1.55 0.15,-0.45 0.3,-0.9 0.4,-1.25 0.15,-0.55 0.3,-1.1 0.35,-1.45 -0.25,0.1 -0.55,0.25 -0.85,0.4 -1.3,0.65 -2.4,1.5 -3.3,2.55 C 8.25,24.25 7.75,25 7.3,25.8 7,25.45 6.7,25.05 6.45,24.65 5.5,23.15 5.55,21.5 6.55,19.75 7.5,18.1 7.95,16.55 7.8,15.15 6.8,16.9 5.65,18.6 4.4,20.25 3.35,21.6 2.1,22.7 0.7,23.55 0.9,23.4 1.1,23.3 1.25,23.2 z M -25.2,17.8 c -0.15,-0.8 0,-1.55 0.4,-2.3 0.45,-0.8 0.75,-1.65 0.95,-2.6 0.05,-0.2 0,-0.3 -0.25,-0.25 -0.1,0.05 -0.2,0.05 -0.3,0.05 -0.05,0 -0.1,-0.1 -0.15,-0.25 -0.15,0.05 -0.25,0.15 -0.3,0.3 -0.4,1.35 -1.1,2.65 -2.05,3.85 -0.95,1.15 -1.9,2.2 -2.95,3.2 l 0.525,-0.05 0.025,0 c 0.2,-0.05 0.4,-0.05 0.65,-0.05 1.35,0.05 2.65,0.25 3.9,0.5 l 0,-0.025 0.7,0.15 0,0.025 C -24.3,20.1 -24.6,19.85 -24.9,19.65 -25,19 -25.1,18.4 -25.2,17.8 z"
           inkscape:connector-curvature="0"
           style="fill:#721016" />
      </g>
      <animate
         attributeName="display"
         begin="0s"
         repeatCount="indefinite"
         dur="0.75s"
         keyTimes="0;0.056;1"
         values="inline;none;none"
         id="animate3215" />
    </g>
  </g>
</svg>
