<?xml version="1.0" encoding="UTF-8" standalone="no"?>
<!-- Generator: flash2svg, http://dissentgraphics.com/tools/flash2svg -->

<svg
   xmlns:dc="http://purl.org/dc/elements/1.1/"
   xmlns:cc="http://creativecommons.org/ns#"
   xmlns:rdf="http://www.w3.org/1999/02/22-rdf-syntax-ns#"
   xmlns:svg="http://www.w3.org/2000/svg"
   xmlns="http://www.w3.org/2000/svg"
   xmlns:xlink="http://www.w3.org/1999/xlink"
   xmlns:sodipodi="http://sodipodi.sourceforge.net/DTD/sodipodi-0.dtd"
   xmlns:inkscape="http://www.inkscape.org/namespaces/inkscape"
   id="Avatar"
   image-rendering="auto"
   version="1.1"
   x="0px"
   y="0px"
   width="10.193155"
   height="12.556512"
   viewBox="0 0 10.193155 12.556512"
   inkscape:version="0.48.4 r9939"
   sodipodi:docname="Avatar_backHandLeftContainer.svg">
  <metadata
     id="metadata3112">
    <rdf:RDF>
      <cc:Work
         rdf:about="">
        <dc:format>image/svg+xml</dc:format>
        <dc:type
           rdf:resource="http://purl.org/dc/dcmitype/StillImage" />
      </cc:Work>
    </rdf:RDF>
  </metadata>
  <sodipodi:namedview
     pagecolor="#ffffff"
     bordercolor="#666666"
     borderopacity="1"
     objecttolerance="10"
     gridtolerance="10"
     guidetolerance="10"
     inkscape:pageopacity="0"
     inkscape:pageshadow="2"
     inkscape:window-width="640"
     inkscape:window-height="480"
     id="namedview3110"
     showgrid="false"
     fit-margin-top="0"
     fit-margin-left="0"
     fit-margin-right="0"
     fit-margin-bottom="0"
     inkscape:zoom="1.8730159"
     inkscape:cx="24.307024"
     inkscape:cy="-39.572101"
     inkscape:window-x="510"
     inkscape:window-y="161"
     inkscape:window-maximized="0"
     inkscape:current-layer="Avatar" />
  <defs
     id="defs3088">
    <pattern
       id="bitmap"
       patternContentUnits="userSpaceOnUse"
       patternUnits="userSpaceOnUse"
       width="200"
       height="200"
       viewBox="0 0 200 200"
       patternTransform="matrix(1 0 0 1 -86.249 -45.999)">
      <symbol
         id="Avatar_Texture_symbol"
         viewBox="0 0 200 200">
        <image
           sodipodi:absref="C:\Users\Training\Documents\GitHub\Glitchen-Avatar-Engine\glitch-avatars-svg\base_avatar\Avatar.fla\~containers\backContainers\backArmLeft\Avatar_Texture"
           xlink:href="Avatar_Texture"
           height="200"
           width="200"
           id="Avatar_Texture" />
      </symbol>
      <use
         id="Avatar_Texture_use"
         width="200"
         height="200"
         y="0"
         x="0"
         xlink:href="#Avatar_Texture_symbol"
         externalResourcesRequired="true" />
    </pattern>
    <pattern
       id="bitmap1"
       patternContentUnits="userSpaceOnUse"
       patternUnits="userSpaceOnUse"
       width="200"
       height="200"
       viewBox="0 0 200 200"
       patternTransform="matrix(1 0 0 1 -101.149 -103.599)">
      <symbol
         id="symbol3095"
         viewBox="0 0 200 200">
        <image
           sodipodi:absref="C:\Users\Training\Documents\GitHub\Glitchen-Avatar-Engine\glitch-avatars-svg\base_avatar\Avatar.fla\~containers\backContainers\backArmLeft\Avatar_Texture"
           xlink:href="Avatar_Texture"
           height="200"
           width="200"
           id="image3097" />
      </symbol>
      <use
         id="use3099"
         width="200"
         height="200"
         y="0"
         x="0"
         xlink:href="#Avatar_Texture_symbol"
         externalResourcesRequired="true" />
    </pattern>
  </defs>
  <g
     id="backHandLeftContainer1"
     overflow="visible"
     transform="translate(6.323973,9.9506473)"
     style="overflow:visible">
    <g
       id="backHandLeftContainer_0_0">
      <g
         id="element"
         overflow="visible"
         style="overflow:visible">
        <g
           id="backHandLeft_0">
          <g
             id="element1">
            <g
               id="drawingObject">
              <path
                 id="path"
                 d="m 0.451,-8.249 c 0.05,-0.65 -0.4,-1.75 -1.05,-1.7 -0.55,0.05 -1.65,1 -1.65,2.45 -0.15,-0.45 -0.35,-0.9 -0.7,-1.1 -0.7,-0.4 -1.5,0.2 -1.65,1.5 -0.05,0.4 -0.05,0.8 0,1.15 l -0.2,-0.3 c -0.3,-0.55 -1.35,-0.4 -1.5,1.15 -0.15,1.45 0.4,2.85 1,3.75 l 0.35,0.65 c 0.8,1.35 2.35,2.7 2.95,3 2.85,1.25 5.45,-1.55 5,-4.65 -0.05,-0.2 -0.05,-1.9 -0.3,-2.2 q 0.55,-0.6 0.8,-0.95 0.45,-0.6 0.35,-1 c -0.35,-1.7 -1.5,-1.1 -2.25,0 -0.1,0.2 -0.2,0.3 -0.3,0.35 l -0.35,-0.4 c -0.5,-0.6 -0.5,-1.2 -0.5,-1.7 z"
                 inkscape:connector-curvature="0"
                 style="fill:url(#bitmap1)" />
            </g>
            <g
               id="drawingObject1">
              <path
                 id="path1"
                 d="m 0.101,-0.549 c -2.75,0 -4.75,-2.3 -5.6,-3.9 -0.4,-0.75 -0.45,-1.35 -0.35,-1.8 -0.25,0.25 -0.4,0.6 -0.45,1.15 -0.15,1.45 0.4,2.85 1,3.75 l 0.35,0.65 c 0.8,1.35 2.35,2.7 2.95,3 1.9,0.8 3.65,-0.15 4.5,-1.8 q -0.95,-1.05 -2.4,-1.05 z"
                 inkscape:connector-curvature="0"
                 style="fill:#000000;fill-opacity:0.2" />
            </g>
          </g>
        </g>
      </g>
    </g>
  </g>
</svg>
