<?xml version="1.0" encoding="UTF-8" standalone="no"?>
<!-- Generator: flash2svg, http://dissentgraphics.com/tools/flash2svg -->

<svg
   xmlns:dc="http://purl.org/dc/elements/1.1/"
   xmlns:cc="http://creativecommons.org/ns#"
   xmlns:rdf="http://www.w3.org/1999/02/22-rdf-syntax-ns#"
   xmlns:svg="http://www.w3.org/2000/svg"
   xmlns="http://www.w3.org/2000/svg"
   xmlns:sodipodi="http://sodipodi.sourceforge.net/DTD/sodipodi-0.dtd"
   xmlns:inkscape="http://www.inkscape.org/namespaces/inkscape"
   id="Avatar"
   image-rendering="auto"
   version="1.1"
   x="0px"
   y="0px"
   width="14.977317"
   height="12.849824"
   viewBox="0 0 14.977317 12.849824"
   inkscape:version="0.48.4 r9939"
   sodipodi:docname="Avatar_backLegUpperRight1.svg">
  <metadata
     id="metadata14">
    <rdf:RDF>
      <cc:Work
         rdf:about="">
        <dc:format>image/svg+xml</dc:format>
        <dc:type
           rdf:resource="http://purl.org/dc/dcmitype/StillImage" />
      </cc:Work>
    </rdf:RDF>
  </metadata>
  <sodipodi:namedview
     pagecolor="#ffffff"
     bordercolor="#666666"
     borderopacity="1"
     objecttolerance="10"
     gridtolerance="10"
     guidetolerance="10"
     inkscape:pageopacity="0"
     inkscape:pageshadow="2"
     inkscape:window-width="640"
     inkscape:window-height="480"
     id="namedview12"
     showgrid="false"
     inkscape:zoom="1.8730159"
     inkscape:cx="32.064896"
     inkscape:cy="-48.716968"
     inkscape:window-x="0"
     inkscape:window-y="0"
     inkscape:window-maximized="0"
     inkscape:current-layer="Avatar"
     fit-margin-top="0"
     fit-margin-left="0"
     fit-margin-right="0"
     fit-margin-bottom="0" />
  <defs
     id="defs3" />
  <g
     id="backLegUpperRight2"
     overflow="visible"
     transform="translate(2.86998,2.3040803)"
     style="overflow:visible">
    <g
       id="backLegUpperRight1_0">
      <g
         id="element">
        <g
           id="drawingObject">
          <path
             id="path"
             d="m -1.749,5.651 c 1.9,1.7 4.25,2.15 5.7,2.95 q 0.7,0.4 2.85,1.65 2.05,0.8 3.2,-0.6 c 1.85,-2.2 2.7,-2.55 1.65,-4.8 -2.65,-6.05 -8.4,-8.05 -11.7,-6.8 -2.4,1.1 -4,5.5 -1.7,7.6 z"
             inkscape:connector-curvature="0"
             style="fill:#ff0000" />
        </g>
        <g
           id="drawingObject1">
          <path
             id="path1"
             d="m -1.149,-1.149 c -1.7,1.7 -2.55,5.05 -0.6,6.8 1.9,1.7 4.25,2.15 5.7,2.95 1.4,0.8 4.2,3.25 6.05,1.05 q 1.25,-1.4 1.6,-1.95 0.55,-0.75 0.45,-1.55 c -0.85,1.85 -2.9,0.05 -4.7,-0.45 -2.25,-0.65 -5.5,-0.15 -7.6,-2.15 -1.35,-1.25 -1.2,-3.35 -0.9,-4.7 z"
             inkscape:connector-curvature="0"
             style="fill:#000000;fill-opacity:0.2" />
        </g>
      </g>
    </g>
  </g>
</svg>
