<?xml version="1.0" encoding="UTF-8" standalone="no"?>
<!-- Generator: flash2svg, http://dissentgraphics.com/tools/flash2svg -->

<svg
   xmlns:dc="http://purl.org/dc/elements/1.1/"
   xmlns:cc="http://creativecommons.org/ns#"
   xmlns:rdf="http://www.w3.org/1999/02/22-rdf-syntax-ns#"
   xmlns:svg="http://www.w3.org/2000/svg"
   xmlns="http://www.w3.org/2000/svg"
   xmlns:sodipodi="http://sodipodi.sourceforge.net/DTD/sodipodi-0.dtd"
   xmlns:inkscape="http://www.inkscape.org/namespaces/inkscape"
   id="Avatar"
   image-rendering="auto"
   version="1.1"
   x="0px"
   y="0px"
   width="8.8151112"
   height="11.137013"
   viewBox="0 0 8.8151112 11.137013"
   inkscape:version="0.48.4 r9939"
   sodipodi:docname="Avatar_backHandRight1.svg">
  <metadata
     id="metadata14">
    <rdf:RDF>
      <cc:Work
         rdf:about="">
        <dc:format>image/svg+xml</dc:format>
        <dc:type
           rdf:resource="http://purl.org/dc/dcmitype/StillImage" />
      </cc:Work>
    </rdf:RDF>
  </metadata>
  <sodipodi:namedview
     pagecolor="#ffffff"
     bordercolor="#666666"
     borderopacity="1"
     objecttolerance="10"
     gridtolerance="10"
     guidetolerance="10"
     inkscape:pageopacity="0"
     inkscape:pageshadow="2"
     inkscape:window-width="640"
     inkscape:window-height="480"
     id="namedview12"
     showgrid="false"
     inkscape:zoom="1.8730159"
     inkscape:cx="32.696189"
     inkscape:cy="-50.685714"
     inkscape:window-x="0"
     inkscape:window-y="0"
     inkscape:window-maximized="0"
     inkscape:current-layer="Avatar"
     fit-margin-top="0"
     fit-margin-left="0"
     fit-margin-right="0"
     fit-margin-bottom="0" />
  <defs
     id="defs3" />
  <g
     id="backHandRight2"
     overflow="visible"
     transform="translate(3.5012727,7.899)"
     style="overflow:visible">
    <g
       id="backHandRight1_0">
      <g
         id="element">
        <g
           id="drawingObject">
          <path
             id="path"
             d="m 3.851,-5.449 c -0.1,-1.15 -0.8,-1.65 -1.4,-1.25 -0.3,0.15 -0.5,0.55 -0.65,0.95 0.05,-1.3 -0.9,-2.15 -1.35,-2.15 -0.6,0 -1,0.95 -0.95,1.55 0,0.4 -0.05,0.9 -0.45,1.45 l -0.3,0.4 -0.3,-0.3 c -0.65,-0.95 -1.6,-1.5 -1.95,0 q -0.05,0.4 1,1.75 c -0.25,0.25 -0.25,1.75 -0.25,1.95 -0.45,2.7 1.75,5.2 4.25,4.05 0.5,-0.25 1.85,-1.5 2.55,-2.7 l 0.3,-0.55 c 0.55,-0.8 1.05,-2.05 0.95,-3.35 -0.1,-1.4 -1.05,-1.5 -1.3,-1 -0.05,0.1 -0.1,0.2 -0.2,0.25 0.05,-0.3 0.1,-0.65 0.05,-1.05 z"
             inkscape:connector-curvature="0"
             style="fill:#ff0000" />
        </g>
        <g
           id="drawingObject1">
          <path
             id="path1"
             d="m 5.301,-3.649 c -0.05,-0.75 -0.35,-1.1 -0.65,-1.25 l 0,0.1 c -0.1,1.05 -1.6,1.25 -1.6,1.25 l 0.15,-0.45 c 0.2,-0.4 0.2,-1.75 0.2,-1.75 0,0 -0.1,0.45 -0.35,0.75 -0.25,0.35 -1.25,1 -1.25,1 l 0.5,2.1 -0.5,1 0.5,-1 c 0,0 -1.65,1.85 0.75,2.4 l 0.75,0.2 0.55,-1 c 0.55,-0.8 1.05,-2.05 0.95,-3.35 z"
             inkscape:connector-curvature="0"
             style="fill:#000000;fill-opacity:0.2" />
        </g>
      </g>
    </g>
  </g>
</svg>
