<?xml version="1.0" encoding="UTF-8" standalone="no"?>
<!-- Generator: flash2svg, http://dissentgraphics.com/tools/flash2svg -->

<svg
   xmlns:dc="http://purl.org/dc/elements/1.1/"
   xmlns:cc="http://creativecommons.org/ns#"
   xmlns:rdf="http://www.w3.org/1999/02/22-rdf-syntax-ns#"
   xmlns:svg="http://www.w3.org/2000/svg"
   xmlns="http://www.w3.org/2000/svg"
   xmlns:sodipodi="http://sodipodi.sourceforge.net/DTD/sodipodi-0.dtd"
   xmlns:inkscape="http://www.inkscape.org/namespaces/inkscape"
   id="Avatar"
   image-rendering="auto"
   version="1.1"
   x="0px"
   y="0px"
   width="9.5983591"
   height="17.292791"
   viewBox="0 0 9.5983591 17.292791"
   inkscape:version="0.48.4 r9939"
   sodipodi:docname="Avatar_sideLegUpperClose1.svg">
  <metadata
     id="metadata16">
    <rdf:RDF>
      <cc:Work
         rdf:about="">
        <dc:format>image/svg+xml</dc:format>
        <dc:type
           rdf:resource="http://purl.org/dc/dcmitype/StillImage" />
      </cc:Work>
    </rdf:RDF>
  </metadata>
  <sodipodi:namedview
     pagecolor="#ffffff"
     bordercolor="#666666"
     borderopacity="1"
     objecttolerance="10"
     gridtolerance="10"
     guidetolerance="10"
     inkscape:pageopacity="0"
     inkscape:pageshadow="2"
     inkscape:window-width="640"
     inkscape:window-height="480"
     id="namedview14"
     showgrid="false"
     inkscape:zoom="1.8730159"
     inkscape:cx="32.950218"
     inkscape:cy="-44.060022"
     inkscape:window-x="0"
     inkscape:window-y="0"
     inkscape:window-maximized="0"
     inkscape:current-layer="Avatar"
     fit-margin-top="0"
     fit-margin-left="0"
     fit-margin-right="0"
     fit-margin-bottom="0" />
  <defs
     id="defs3" />
  <g
     id="sideLegUpperClose2"
     overflow="visible"
     transform="translate(4.823099,2.624)"
     style="overflow:visible">
    <g
       id="sideLegUpperClose1_0">
      <g
         id="element">
        <g
           id="drawingObject">
          <path
             id="path"
             d="m 4.651,9.951 c 0.5,-3.75 -0.35,-11.7 -5.5,-12.55 q -0.9,-0.15 -1.85,0.6 -0.95,0.75 -1.7,2.1 c -0.95,1.8 0,6.25 -0.05,8.8 -0.05,2.5 0.95,5.15 4.05,5.65 3.1,0.55 4.55,-0.8 5.05,-4.6 z"
             inkscape:connector-curvature="0"
             style="fill:#ff0000" />
        </g>
        <g
           id="drawingObject1">
          <path
             id="path1"
             d="m -0.849,-2.599 c -1.2,-0.2 -2.55,0.9 -3.55,2.7 -0.95,1.8 0,6.25 -0.05,8.8 -0.05,2.15 0.7,4.4 2.85,5.3 q 0.8,-1.3 0.95,-2 c 0.35,-1.95 -1.55,-6.3 -0.7,-10.2 0.7,-2.9 1.9,-3.65 2.45,-3.8 -0.55,-0.4 -1.2,-0.7 -1.95,-0.8 z"
             inkscape:connector-curvature="0"
             style="fill:#000000;fill-opacity:0.2" />
        </g>
        <g
           id="drawingObject2">
          <path
             id="path2"
             d="m -0.849,-2.599 c -1.2,-0.2 -2.55,0.9 -3.55,2.7 -0.95,1.8 0,6.25 -0.05,8.8 0,1.25 0.2,2.55 0.85,3.6 q 0.95,-2.2 0.6,-3.8 c -0.4,-2.05 -1.85,-3.85 -0.4,-8.05 0.8,-2.15 2.35,-2.85 3.15,-3.1 l -0.6,-0.15 z"
             inkscape:connector-curvature="0"
             style="fill:#000000;fill-opacity:0.2" />
        </g>
      </g>
    </g>
  </g>
</svg>
