<?xml version="1.0" encoding="UTF-8" standalone="no"?>
<!-- Generator: flash2svg, http://dissentgraphics.com/tools/flash2svg -->

<svg
   xmlns:dc="http://purl.org/dc/elements/1.1/"
   xmlns:cc="http://creativecommons.org/ns#"
   xmlns:rdf="http://www.w3.org/1999/02/22-rdf-syntax-ns#"
   xmlns:svg="http://www.w3.org/2000/svg"
   xmlns="http://www.w3.org/2000/svg"
   xmlns:sodipodi="http://sodipodi.sourceforge.net/DTD/sodipodi-0.dtd"
   xmlns:inkscape="http://www.inkscape.org/namespaces/inkscape"
   id="Avatar"
   image-rendering="auto"
   version="1.1"
   x="0px"
   y="0px"
   width="8.9819021"
   height="14.771577"
   viewBox="0 0 8.9819021 14.771577"
   inkscape:version="0.48.4 r9939"
   sodipodi:docname="Avatar_sideLegUpperOffside1.svg">
  <metadata
     id="metadata18">
    <rdf:RDF>
      <cc:Work
         rdf:about="">
        <dc:format>image/svg+xml</dc:format>
        <dc:type
           rdf:resource="http://purl.org/dc/dcmitype/StillImage" />
      </cc:Work>
    </rdf:RDF>
  </metadata>
  <sodipodi:namedview
     pagecolor="#ffffff"
     bordercolor="#666666"
     borderopacity="1"
     objecttolerance="10"
     gridtolerance="10"
     guidetolerance="10"
     inkscape:pageopacity="0"
     inkscape:pageshadow="2"
     inkscape:window-width="640"
     inkscape:window-height="480"
     id="namedview16"
     showgrid="false"
     inkscape:zoom="1.8730159"
     inkscape:cx="32.623021"
     inkscape:cy="-46.449902"
     inkscape:window-x="0"
     inkscape:window-y="0"
     inkscape:window-maximized="0"
     inkscape:current-layer="Avatar"
     fit-margin-top="0"
     fit-margin-left="0"
     fit-margin-right="0"
     fit-margin-bottom="0" />
  <defs
     id="defs3" />
  <g
     id="sideLegUpperOffside2"
     overflow="visible"
     transform="translate(4.4959017,0.8909718)"
     style="overflow:visible">
    <g
       id="sideLegUpperOffside1_0">
      <g
         id="element">
        <g
           id="drawingObject">
          <path
             id="path"
             d="M 4.117,10.344 C 4.854,7.229 4.793,0.496 0.002,-0.81 Q -1.779,-1.212 -3.56,1.049 c -1.106,1.406 -0.553,5.225 -0.799,7.335 -0.246,2.11 0.43,4.422 3.317,5.226 2.825,0.803 4.361,-0.151 5.159,-3.266 z"
             inkscape:connector-curvature="0"
             style="fill:#ff0000" />
        </g>
        <g
           id="drawingObject1">
          <path
             id="path1"
             d="m -3.56,1.049 c -1.106,1.406 -0.553,5.225 -0.799,7.335 -0.246,2.01 0.369,4.221 3.01,5.125 C -1.841,11.6 -1.165,9.339 -0.366,7.731 0.309,6.224 3.196,6.575 4.486,7.028 4.486,3.862 3.442,0.144 0.002,-0.81 Q -1.779,-1.212 -3.56,1.049 z"
             inkscape:connector-curvature="0"
             style="fill:#000000;fill-opacity:0.2" />
        </g>
        <g
           id="drawingObject2">
          <path
             id="path2"
             d="m -1.699,-0.523 c -0.85,0.385 -1.45,0.898 -1.85,1.497 -0.4,0.556 -0.65,2.01 -0.7,4.277 -0.05,2.267 -0.1,3.85 -0.1,4.705 -0.05,0.856 0.25,1.625 0.85,2.31 0.25,-0.941 0.5,-2.353 0.75,-4.192 0.15,-1.411 1.05,-2.481 2.65,-3.251 q 2.6,-1.155 4.4,0.727 c -0.65,-3.464 -1.6,-5.432 -2.85,-5.902 -1.25,-0.514 -2.3,-0.556 -3.15,-0.171 z"
             inkscape:connector-curvature="0"
             style="fill:#000000;fill-opacity:0.2" />
        </g>
        <g
           id="drawingObject3">
          <path
             id="path3"
             d="m -0.049,-0.823 q -1.8,-0.428 -3.6,1.839 c -1.1,1.369 -0.55,5.219 -0.8,7.315 -0.25,2.138 0.45,4.405 3.3,5.261 2.85,0.77 4.4,-0.171 5.2,-3.294 0.7,-3.122 0.65,-9.838 -4.1,-11.121 z"
             inkscape:connector-curvature="0"
             style="fill:#000000;fill-opacity:0.08600003" />
        </g>
      </g>
    </g>
  </g>
</svg>
