<?xml version="1.0" encoding="UTF-8" standalone="no"?>
<!-- Generator: flash2svg, http://dissentgraphics.com/tools/flash2svg -->

<svg
   xmlns:dc="http://purl.org/dc/elements/1.1/"
   xmlns:cc="http://creativecommons.org/ns#"
   xmlns:rdf="http://www.w3.org/1999/02/22-rdf-syntax-ns#"
   xmlns:svg="http://www.w3.org/2000/svg"
   xmlns="http://www.w3.org/2000/svg"
   xmlns:sodipodi="http://sodipodi.sourceforge.net/DTD/sodipodi-0.dtd"
   xmlns:inkscape="http://www.inkscape.org/namespaces/inkscape"
   id="Avatar"
   image-rendering="auto"
   version="1.1"
   x="0px"
   y="0px"
   width="15.659085"
   height="14.374205"
   viewBox="0 0 15.659085 14.374205"
   inkscape:version="0.48.4 r9939"
   sodipodi:docname="Avatar_backArmUpperRight1.svg">
  <metadata
     id="metadata14">
    <rdf:RDF>
      <cc:Work
         rdf:about="">
        <dc:format>image/svg+xml</dc:format>
        <dc:type
           rdf:resource="http://purl.org/dc/dcmitype/StillImage" />
      </cc:Work>
    </rdf:RDF>
  </metadata>
  <sodipodi:namedview
     pagecolor="#ffffff"
     bordercolor="#666666"
     borderopacity="1"
     objecttolerance="10"
     gridtolerance="10"
     guidetolerance="10"
     inkscape:pageopacity="0"
     inkscape:pageshadow="2"
     inkscape:window-width="640"
     inkscape:window-height="480"
     id="namedview12"
     showgrid="false"
     inkscape:zoom="1.8730159"
     inkscape:cx="32.104887"
     inkscape:cy="-47.137609"
     inkscape:window-x="0"
     inkscape:window-y="0"
     inkscape:window-maximized="0"
     inkscape:current-layer="Avatar"
     fit-margin-top="0"
     fit-margin-left="0"
     fit-margin-right="0"
     fit-margin-bottom="0" />
  <defs
     id="defs3" />
  <g
     id="backArmUpperRight2"
     overflow="visible"
     transform="translate(-0.29341841,1.7152046)"
     style="overflow:visible">
    <g
       id="backArmUpperRight1_0">
      <g
         id="element">
        <g
           id="drawingObject">
          <path
             id="path"
             d="m 10.551,2.751 c -7.15,-5.6 -9.75,-5.8 -10.25,-1.35 q -0.1,0.85 1.2,2.7 1.25,1.8 2.95,3.25 c 2.2,1.85 6.9,5.15 8.4,5.3 1.95,0.15 3.15,-1.85 3.1,-3.55 -0.05,-2.95 -2.65,-4.2 -5.4,-6.35 z"
             inkscape:connector-curvature="0"
             style="fill:#ff0000" />
        </g>
        <g
           id="drawingObject1">
          <path
             id="path1"
             d="m 0.301,1.401 c -0.15,1.15 1.95,4.05 4.15,5.95 2.2,1.85 6.9,5.15 8.4,5.3 1.3,0.1 2.25,-0.75 2.75,-1.85 q -1.1,0 -3.2,-1 c -2.5,-1.25 -5.7,-5 -7.2,-7.25 -1.15,-1.75 -2.15,-3.05 -3.2,-4.2 -0.95,0.3 -1.5,1.3 -1.7,3.05 z"
             inkscape:connector-curvature="0"
             style="fill:#000000;fill-opacity:0.2" />
        </g>
      </g>
    </g>
  </g>
</svg>
