<?xml version="1.0" encoding="UTF-8" standalone="no"?>
<!-- Generator: flash2svg, http://dissentgraphics.com/tools/flash2svg -->

<svg
   xmlns:dc="http://purl.org/dc/elements/1.1/"
   xmlns:cc="http://creativecommons.org/ns#"
   xmlns:rdf="http://www.w3.org/1999/02/22-rdf-syntax-ns#"
   xmlns:svg="http://www.w3.org/2000/svg"
   xmlns="http://www.w3.org/2000/svg"
   xmlns:sodipodi="http://sodipodi.sourceforge.net/DTD/sodipodi-0.dtd"
   xmlns:inkscape="http://www.inkscape.org/namespaces/inkscape"
   id="Avatar"
   image-rendering="optimizeQuality"
   version="1.1"
   x="0px"
   y="0px"
   width="10.149123"
   height="12.1525"
   viewBox="0 0 10.149123 12.1525"
   inkscape:version="0.48.4 r9939"
   sodipodi:docname="Avatar_backArmLowerRight1.svg">
  <metadata
     id="metadata14">
    <rdf:RDF>
      <cc:Work
         rdf:about="">
        <dc:format>image/svg+xml</dc:format>
        <dc:type
           rdf:resource="http://purl.org/dc/dcmitype/StillImage" />
      </cc:Work>
    </rdf:RDF>
  </metadata>
  <sodipodi:namedview
     pagecolor="#ffffff"
     bordercolor="#666666"
     borderopacity="1"
     objecttolerance="10"
     gridtolerance="10"
     guidetolerance="10"
     inkscape:pageopacity="0"
     inkscape:pageshadow="2"
     inkscape:window-width="640"
     inkscape:window-height="480"
     id="namedview12"
     showgrid="false"
     inkscape:zoom="1.8730159"
     inkscape:cx="33.045046"
     inkscape:cy="-49.457135"
     inkscape:window-x="0"
     inkscape:window-y="0"
     inkscape:window-maximized="0"
     inkscape:current-layer="Avatar"
     fit-margin-top="0"
     fit-margin-left="0"
     fit-margin-right="0"
     fit-margin-bottom="0" />
  <defs
     id="defs3" />
  <g
     id="backArmLowerRight2"
     overflow="visible"
     transform="translate(2.7823333,9.8215)"
     style="overflow:visible">
    <g
       id="backArmLowerRight1_0">
      <g
         id="element">
        <g
           id="drawingObject">
          <path
             id="path"
             d="m 5.251,-9.399 q -1.15,-0.65 -2.25,-0.3 -1.2,0.35 -2.15,1.75 -0.8,1.2 -1.8,2.4 -0.8,0.95 -1.3,1.85 -0.8,1.35 -0.4,3.3 0.35,2 1.6,2.2 0.5,0.1 1.5,0.5 0.85,0.15 1.6,-0.45 2.9,-2.45 4.8,-6.2 0.85,-1.65 0.2,-3.1 -0.5,-1.15 -1.8,-1.95 z"
             inkscape:connector-curvature="0"
             style="fill:#ff0000" />
        </g>
        <g
           id="drawingObject1">
          <path
             id="path1"
             d="m 6.851,-4.349 q 1.4,-2.7 -1,-4.6 0,2.3 -0.9,4.3 -0.9,2.2 -2.3,3.4 -1.25,1.05 -2.6,1.05 l -1.95,1.55 q 0.4,0.4 0.85,0.45 0.5,0.1 1.5,0.5 0.85,0.15 1.6,-0.45 2.9,-2.45 4.8,-6.2 z"
             inkscape:connector-curvature="0"
             style="fill:#000000;fill-opacity:0.2" />
        </g>
      </g>
    </g>
  </g>
</svg>
