<?xml version="1.0" encoding="UTF-8" standalone="no"?>
<!-- Generator: flash2svg, http://dissentgraphics.com/tools/flash2svg -->

<svg
   xmlns:dc="http://purl.org/dc/elements/1.1/"
   xmlns:cc="http://creativecommons.org/ns#"
   xmlns:rdf="http://www.w3.org/1999/02/22-rdf-syntax-ns#"
   xmlns:svg="http://www.w3.org/2000/svg"
   xmlns="http://www.w3.org/2000/svg"
   xmlns:xlink="http://www.w3.org/1999/xlink"
   xmlns:sodipodi="http://sodipodi.sourceforge.net/DTD/sodipodi-0.dtd"
   xmlns:inkscape="http://www.inkscape.org/namespaces/inkscape"
   id="Avatar"
   image-rendering="auto"
   version="1.1"
   x="0px"
   y="0px"
   width="8.9530077"
   height="13.284139"
   viewBox="0 0 8.9530077 13.284139"
   inkscape:version="0.48.4 r9939"
   sodipodi:docname="Avatar_sideLegLowerCloseContainer.svg">
  <metadata
     id="metadata3043">
    <rdf:RDF>
      <cc:Work
         rdf:about="">
        <dc:format>image/svg+xml</dc:format>
        <dc:type
           rdf:resource="http://purl.org/dc/dcmitype/StillImage" />
      </cc:Work>
    </rdf:RDF>
  </metadata>
  <sodipodi:namedview
     pagecolor="#ffffff"
     bordercolor="#666666"
     borderopacity="1"
     objecttolerance="10"
     gridtolerance="10"
     guidetolerance="10"
     inkscape:pageopacity="0"
     inkscape:pageshadow="2"
     inkscape:window-width="640"
     inkscape:window-height="480"
     id="namedview3041"
     showgrid="false"
     fit-margin-top="0"
     fit-margin-left="0"
     fit-margin-right="0"
     fit-margin-bottom="0"
     inkscape:zoom="1.8730159"
     inkscape:cx="38.255893"
     inkscape:cy="-52.634"
     inkscape:window-x="66"
     inkscape:window-y="268"
     inkscape:window-maximized="0"
     inkscape:current-layer="Avatar" />
  <defs
     id="defs3013">
    <pattern
       id="bitmap"
       patternContentUnits="userSpaceOnUse"
       patternUnits="userSpaceOnUse"
       width="200"
       height="200"
       viewBox="0 0 200 200"
       patternTransform="matrix(1 0 0 1 -82.749 -0.199)">
      <symbol
         id="Avatar_Texture_symbol"
         viewBox="0 0 200 200">
        <image
           sodipodi:absref="C:\Users\Training\Documents\GitHub\glitch-avatars\base_avatar\Avatar_Texture"
           xlink:href="Avatar_Texture"
           height="200"
           width="200"
           id="Avatar_Texture" />
      </symbol>
      <use
         id="Avatar_Texture_use"
         width="200"
         height="200"
         y="0"
         x="0"
         xlink:href="#Avatar_Texture_symbol"
         externalResourcesRequired="true" />
    </pattern>
    <pattern
       id="bitmap1"
       patternContentUnits="userSpaceOnUse"
       patternUnits="userSpaceOnUse"
       width="200"
       height="200"
       viewBox="0 0 200 200"
       patternTransform="matrix(1 0 0 1 -99.699 -96.199)">
      <symbol
         id="symbol3020"
         viewBox="0 0 200 200">
        <image
           sodipodi:absref="C:\Users\Training\Documents\GitHub\glitch-avatars\base_avatar\Avatar_Texture"
           xlink:href="Avatar_Texture"
           height="200"
           width="200"
           id="image3022" />
      </symbol>
      <use
         id="use3024"
         width="200"
         height="200"
         y="0"
         x="0"
         xlink:href="#Avatar_Texture_symbol"
         externalResourcesRequired="true" />
    </pattern>
  </defs>
  <g
     id="sideLegLowerCloseContainer1"
     overflow="visible"
     style="overflow:visible"
     transform="translate(4.2558929,2.9181383)">
    <g
       id="sideLegLowerCloseContainer_0_0">
      <g
         id="element"
         overflow="visible"
         style="overflow:visible">
        <g
           id="sideLegLowerClose_0">
          <g
             id="element1">
            <g
               id="drawingObject">
              <path
                 id="path"
                 d="m 4.301,-1.399 c -0.55,-1.75 -7.8,-2.65 -8.3,1.05 q -0.05,0.35 -0.05,1.6 0.05,1.35 -0.05,2.2 c -0.2,1.6 -0.4,4.25 0.7,5.7 1.1,1.45 3.95,1.55 5.65,0.4 1.7,-1.15 1.65,-1.2 2.05,-6.15 0.25,-2.75 0.75,-2.4 0,-4.8 z"
                 inkscape:connector-curvature="0"
                 style="fill:url(#bitmap1)" />
            </g>
            <g
               id="drawingObject1">
              <path
                 id="path1"
                 d="m -3.999,-0.349 c -0.15,0.8 0.1,2.2 -0.1,3.8 -0.2,1.6 -0.4,4.25 0.7,5.7 0.7,0.9 2.1,1.3 3.4,1.2 l 0,-0.05 c -1.8,-2.35 0.3,-7.95 -0.1,-9.85 q -0.15,-0.85 -1.7,-3.1 c -1.15,0.4 -2.05,1.1 -2.2,2.3 z"
                 inkscape:connector-curvature="0"
                 style="fill:#000000;fill-opacity:0.2" />
            </g>
            <g
               id="drawingObject2">
              <path
                 id="path2"
                 d="m -3.999,-0.349 c -0.15,0.8 0.1,2.2 -0.1,3.8 -0.2,1.6 -0.4,4.25 0.7,5.7 q 0.3,0.35 0.7,0.6 c -0.75,-1.25 -0.5,-3 -0.3,-4.9 0.3,-2.75 0.55,-4.75 -0.45,-6.45 -0.3,0.35 -0.5,0.75 -0.55,1.25 z"
                 inkscape:connector-curvature="0"
                 style="fill:#000000;fill-opacity:0.2" />
            </g>
            <g
               id="drawingObject3">
              <path
                 id="path3"
                 d="m 1.351,2.301 -0.3,-0.8 c 0,0 0.3,1.55 1.55,1.6 1.25,0.1 1.5,-1.5 1.5,-1.5 q -1.05,0.75 -2.05,0.35 l -1,-0.45"
                 inkscape:connector-curvature="0"
                 style="fill:#000000;fill-opacity:0.2" />
            </g>
            <g
               id="drawingObject4">
              <path
                 id="path4"
                 d="m 2.501,1.251 c 1.1,0.35 2.3,-1.15 0.55,-1.5 q -0.7,-0.1 -1,0.55 -0.35,0.65 0.45,0.95 z"
                 inkscape:connector-curvature="0"
                 style="fill:#ffffff;fill-opacity:0.2" />
            </g>
          </g>
        </g>
      </g>
    </g>
  </g>
</svg>
