<?xml version="1.0" encoding="utf-8"?>
<!-- Generator: flash2svg, http://dissentgraphics.com/tools/flash2svg -->
<svg xmlns:xlink="http://www.w3.org/1999/xlink" id="Avatar" image-rendering="auto" baseProfile="basic" version="1.1" x="0px" y="0px" width="68" height="126" xmlns="http://www.w3.org/2000/svg" viewBox="0 0 68 126">
  <defs/>
  <g id="backLegLowerRight3" overflow="visible">
    <g id="backLegLowerRight2_4">
      <g id="element2">
        <path id="path19" fill="#630" d="M2.3,-0.45 Q2.15,-1 1.65,-1.25 L1.75,-1.3 C1.7,-1.3 1.6,-1.3 1.55,-1.3 1.6,-1.2 1.6,-1.1 1.6,-0.95 L1.6,-0.9 C1.65,-0.8 1.7,-0.7 1.75,-0.6 1.9,-0.15 1.9,0.45 1.75,1.15 1.6,1.7 1.45,2.2 1.3,2.7 1.35,2.65 1.4,2.65 1.45,2.6 1.45,2.65 1.4,2.75 1.35,2.8 0.25,5.45 -0.9,7.45 -2.1,8.75 -3.35,10.1 -4.35,10.85 -5.1,11.1 -6.15,11 -7.2,10.65 -8.15,10.05 -8.45,9.85 -8.65,9.6 -8.8,9.3 L-8.85,9.3 C-9.35,7.4 -9,5.5 -7.75,3.55 -7.55,3.2 -7.35,2.85 -7.1,2.5 -7.05,2.3 -6.95,2.1 -6.85,1.95 -6.3,1 -5.7,0.25 -4.95,-0.4 -4.8,-0.6 -4.65,-0.85 -4.5,-1.1 -4.1,-1.6 -3.65,-2 -3.1,-2.35 -3.15,-2.35 -3.15,-2.35 -3.2,-2.35 -4.65,-1.75 -5.75,-0.8 -6.5,0.55 -6.55,0.7 -6.6,0.85 -6.75,1 -8.2,2.95 -9.15,5.15 -9.55,7.55 -9.8,9 -9.35,10.1 -8.2,10.85 -8.25,10.8 -8.3,10.7 -8.35,10.65 -7.9,11.05 -7.25,11.3 -6.3,11.45 -4.25,11.1 -2.65,10.3 -1.5,9.1 -1.55,9.15 -1.55,9.2 -1.6,9.25 -0.45,8 0.5,6.55 1.25,4.8 1.6,4 1.85,3.3 2,2.65 1.7,3.05 1.45,3.5 1.2,3.95 1.5,3.25 1.75,2.6 1.95,2.05 2.4,1.4 2.5,0.6 2.3,-0.45z"/>
        <path id="path20" fill="#FFC" d="M1.6,-0.95 C1.6,-1.1 1.6,-1.2 1.55,-1.3 1.45,-1.35 1.35,-1.4 1.25,-1.45 L1.15,-1.45 C-0.05,-1.8 -1.3,-2.1 -2.6,-2.3 -2.8,-2.3 -2.95,-2.3 -3.1,-2.35 -3.65,-2 -4.1,-1.6 -4.5,-1.1 -4.65,-0.85 -4.8,-0.6 -4.95,-0.4 -5.7,0.25 -6.3,1 -6.85,1.95 -6.95,2.1 -7.05,2.3 -7.1,2.5 -7.35,2.85 -7.55,3.2 -7.75,3.55 -9,5.5 -9.35,7.4 -8.85,9.3 L-8.8,9.3 C-8.65,9.6 -8.45,9.85 -8.15,10.05 -7.2,10.65 -6.15,11 -5.1,11.1 -4.35,10.85 -3.35,10.1 -2.1,8.75 -0.9,7.45 0.25,5.45 1.35,2.8 L1.3,2.7 C1.45,2.2 1.6,1.7 1.75,1.15 1.9,0.45 1.9,-0.15 1.75,-0.6 1.7,-0.7 1.65,-0.8 1.6,-0.9 L1.6,-0.95z"/>
      </g>
      <animate attributeName="display" begin="0s" repeatCount="indefinite" dur="0.167s" keyTimes="0;0.798;1" values="none;inline;none"/>
    </g>
    <g id="backLegLowerRight2_2">
      <g id="element1">
        <path id="path10" fill="#FFC" d="M-14.191,-3.269 Q-14.133,-3.27 -14.064,-3.267 C-12.995,-3.236 -11.97,-3.01 -11.096,-2.561 -11.253,-2.544 -11.4,-2.577 -11.557,-2.56 -11.324,-2.457 -11.052,-2.295 -10.83,-2.144 -10.781,-2.133 -10.781,-2.133 -10.792,-2.084 -10.677,-1.905 -10.612,-1.737 -10.547,-1.569 -10.454,-1.293 -10.4,-1.076 -10.405,-0.821 -10.328,-0.702 -10.252,-0.583 -10.225,-0.474 L-10.214,-0.523 C-10.229,0.242 -10.559,1.039 -11.203,1.87 -11.636,2.44 -11.874,3.053 -11.916,3.71 L-11.848,3.75 L-11.878,3.769 C-12.64,5.137 -13.452,6.494 -14.301,7.792 -14.372,7.879 -14.393,7.976 -14.453,8.014 -14.632,8.129 -14.751,8.205 -14.881,8.33 L-14.919,8.27 C-15.91,9.28 -17.135,9.727 -18.594,9.61 -18.995,9.573 -19.396,9.535 -19.847,9.487 -20.883,8.849 -21.482,7.847 -21.581,6.442 -21.658,5.862 -21.529,5.276 -21.215,4.782 -20.512,3.452 -19.831,2.22 -19.198,0.977 L-19.193,0.953 L-19.101,0.999 C-18.355,-0.527 -17.51,-1.569 -16.519,-2.118 -16.367,-2.341 -16.178,-2.504 -15.988,-2.667 -15.679,-2.906 -15.381,-3.096 -15.083,-3.287 -14.975,-3.314 -14.877,-3.292 -14.78,-3.271 L-14.774,-3.295 L-14.191,-3.269z"/>
        <path id="path11" fill="#630" d="M-15.23,-3.319 C-15.181,-3.308 -15.132,-3.297 -15.083,-3.287 -15.381,-3.096 -15.679,-2.906 -15.988,-2.667 -16.178,-2.504 -16.367,-2.341 -16.519,-2.118 -17.51,-1.569 -18.355,-0.527 -19.101,0.999 -19.128,0.89 -19.106,0.793 -19.074,0.646 -19.096,0.744 -19.117,0.841 -19.198,0.977 -19.831,2.22 -20.512,3.452 -21.215,4.782 -21.529,5.276 -21.658,5.862 -21.581,6.442 -21.482,7.847 -20.883,8.849 -19.847,9.487 -19.396,9.535 -18.995,9.573 -18.594,9.61 -17.135,9.727 -15.91,9.28 -14.919,8.27 -14.929,8.319 -14.94,8.368 -14.951,8.417 -14.891,8.378 -14.891,8.378 -14.881,8.33 -14.751,8.205 -14.632,8.129 -14.453,8.014 -14.393,7.976 -14.372,7.879 -14.301,7.792 -13.452,6.494 -12.64,5.137 -11.878,3.769 -11.797,3.634 -11.775,3.536 -11.694,3.4 -11.764,3.487 -11.835,3.574 -11.916,3.71 -11.874,3.053 -11.636,2.44 -11.203,1.87 -10.559,1.039 -10.229,0.242 -10.214,-0.523 L-10.225,-0.474 C-10.252,-0.583 -10.328,-0.702 -10.405,-0.821 -10.4,-1.076 -10.454,-1.293 -10.547,-1.569 -10.612,-1.737 -10.677,-1.905 -10.792,-2.084 -10.743,-2.073 -10.645,-2.052 -10.607,-1.992 -10.645,-2.052 -10.645,-2.052 -10.683,-2.111 -9.934,-1.793 -9.641,-1.267 -9.873,-0.448 -9.991,0.089 -10.158,0.616 -10.364,1.082 -10.341,1.446 -10.428,1.836 -10.692,2.341 -10.947,2.797 -11.449,3.915 -12.2,5.695 -12.951,7.475 -14.473,9.034 -16.716,10.383 -16.754,10.323 -16.743,10.274 -16.684,10.236 -16.315,9.959 -15.947,9.682 -15.617,9.345 -15.676,9.383 -15.676,9.383 -15.736,9.421 -15.855,9.497 -15.974,9.573 -16.093,9.649 -17.334,10.4 -18.543,10.543 -19.612,10.051 -20.356,9.938 -21.023,9.484 -21.518,8.709 -21.785,8.292 -21.943,7.847 -21.943,7.386 -21.915,4.474 -20.845,1.945 -18.783,-0.211 -18.691,-0.396 -18.599,-0.58 -18.447,-0.803 -17.609,-2.052 -16.552,-2.894 -15.23,-3.319z"/>
      </g>
      <animate attributeName="display" begin="0s" repeatCount="indefinite" dur="0.167s" keyTimes="0;0.399;0.798;1" values="none;inline;none;none"/>
    </g>
    <g id="backLegLowerRight2_0">
      <g id="element">
        <path id="path" fill="#FFC" d="M1.55,-1.3 C1.1,-1.65 0.6,-1.9 0.05,-2.1 -0.05,-2.15 -0.15,-2.15 -0.25,-2.2 L-0.25,-2.25 C-0.25,-2.3 -0.25,-2.3 -0.3,-2.3 -0.3,-2.4 -0.35,-2.45 -0.45,-2.5 -0.6,-2.5 -0.75,-2.55 -0.9,-2.6 -1.05,-2.55 -1.15,-2.55 -1.2,-2.5 -1.25,-2.5 -1.35,-2.5 -1.4,-2.45 -1.7,-2.5 -2,-2.5 -2.3,-2.55 -2.45,-2.6 -2.65,-2.6 -2.8,-2.55 -3.05,-2.5 -3.3,-2.4 -3.5,-2.3 -3.45,-2.25 -3.35,-2.25 -3.3,-2.2 -3.9,-2 -4.5,-1.5 -5.05,-0.65 -5.9,0.7 -6.65,2.15 -7.4,3.8 L-7.45,3.75 C-7.8,4.55 -8.2,5.3 -8.65,6.05 -8.65,6.15 -8.7,6.25 -8.75,6.3 -9.05,6.95 -9.15,7.65 -9.05,8.3 -8.85,8.45 -8.7,8.7 -8.55,9 -7.7,10.55 -6.3,11.1 -4.4,10.65 -3.95,10.35 -3.55,10 -3.15,9.6 -1.05,7.65 0.55,5.35 1.6,2.7 1.35,2.95 1,3.2 0.6,3.4 0.95,3 1.25,2.55 1.5,2.1 1.55,2.05 1.55,2.05 1.55,2 1.65,1.7 1.75,1.4 1.8,1.1 2,0.4 1.95,-0.3 1.65,-0.95 1.65,-1.1 1.6,-1.2 1.55,-1.3z M-0.6,-2.25 C-0.9,-2.3 -1.2,-2.3 -1.5,-2.25 -1.25,-2.3 -0.95,-2.35 -0.7,-2.3 -0.65,-2.3 -0.65,-2.3 -0.6,-2.25z"/>
        <path id="path1" fill="#630" d="M-0.6,-2.25 C-0.65,-2.3 -0.65,-2.3 -0.7,-2.3 -0.95,-2.35 -1.25,-2.3 -1.5,-2.25 -1.2,-2.3 -0.9,-2.3 -0.6,-2.25z M1.55,-1.3 C1.6,-1.2 1.65,-1.1 1.65,-0.95 1.95,-0.3 2,0.4 1.8,1.1 1.75,1.4 1.65,1.7 1.55,2 1.55,2.05 1.55,2.05 1.5,2.1 1.25,2.55 0.95,3 0.6,3.4 1,3.2 1.35,2.95 1.6,2.7 0.55,5.35 -1.05,7.65 -3.15,9.6 -3.55,10 -3.95,10.35 -4.4,10.65 -6.3,11.1 -7.7,10.55 -8.55,9 -8.7,8.7 -8.85,8.45 -9.05,8.3 -9.15,7.65 -9.05,6.95 -8.75,6.3 -8.7,6.25 -8.65,6.15 -8.65,6.05 -8.2,5.3 -7.8,4.55 -7.45,3.75 -7.45,3.7 -7.4,3.65 -7.35,3.6 -7.4,3.65 -7.4,3.75 -7.4,3.8 -6.65,2.15 -5.9,0.7 -5.05,-0.65 -4.5,-1.5 -3.9,-2 -3.3,-2.2 -3.35,-2.25 -3.45,-2.25 -3.5,-2.3 -4.95,-1.6 -6,-0.45 -6.65,1.2 -7.25,2.2 -7.85,3.2 -8.45,4.2 -8.65,4.5 -8.8,4.8 -8.9,5.05 -9.5,6.1 -9.7,7.3 -9.45,8.6 -9.35,9.1 -9.15,9.45 -8.9,9.7 -8.55,10.45 -7.75,10.95 -6.45,11.2 -6,11.25 -5.6,11.25 -5.25,11.2 -5,11.15 -4.8,11.15 -4.6,11.1 -1.95,9.75 0.05,7.6 1.4,4.65 1.8,3.75 2.05,2.85 2.1,2 2.35,1.45 2.5,0.8 2.55,0.05 2.55,-0.55 2.35,-0.95 1.9,-1.2 1.95,-1.15 1.95,-1.05 2,-0.95 1.85,-1.1 1.7,-1.2 1.55,-1.3z M-7.4,3.8 L-7.45,3.75 C-7.45,3.7 -7.4,3.65 -7.35,3.6 -7.4,3.65 -7.4,3.75 -7.4,3.8z"/>
      </g>
      <animate attributeName="display" begin="0s" repeatCount="indefinite" dur="0.167s" keyTimes="0;0.399;1" values="inline;none;none"/>
    </g>
  </g>
</svg>