<?xml version="1.0" encoding="UTF-8" standalone="no"?>
<!-- Generator: flash2svg, http://dissentgraphics.com/tools/flash2svg -->

<svg
   xmlns:dc="http://purl.org/dc/elements/1.1/"
   xmlns:cc="http://creativecommons.org/ns#"
   xmlns:rdf="http://www.w3.org/1999/02/22-rdf-syntax-ns#"
   xmlns:svg="http://www.w3.org/2000/svg"
   xmlns="http://www.w3.org/2000/svg"
   xmlns:sodipodi="http://sodipodi.sourceforge.net/DTD/sodipodi-0.dtd"
   xmlns:inkscape="http://www.inkscape.org/namespaces/inkscape"
   id="Avatar"
   image-rendering="auto"
   version="1.1"
   x="0px"
   y="0px"
   width="17.987499"
   height="10.3379"
   viewBox="0 0 17.987499 10.3379"
   inkscape:version="0.48.4 r9939"
   sodipodi:docname="Avatar_sideFootClose2.svg">
  <metadata
     id="metadata3106">
    <rdf:RDF>
      <cc:Work
         rdf:about="">
        <dc:format>image/svg+xml</dc:format>
        <dc:type
           rdf:resource="http://purl.org/dc/dcmitype/StillImage" />
      </cc:Work>
    </rdf:RDF>
  </metadata>
  <sodipodi:namedview
     pagecolor="#ffffff"
     bordercolor="#666666"
     borderopacity="1"
     objecttolerance="10"
     gridtolerance="10"
     guidetolerance="10"
     inkscape:pageopacity="0"
     inkscape:pageshadow="2"
     inkscape:window-width="640"
     inkscape:window-height="480"
     id="namedview3104"
     showgrid="false"
     fit-margin-top="0"
     fit-margin-left="0"
     fit-margin-right="0"
     fit-margin-bottom="0"
     inkscape:zoom="1.8730159"
     inkscape:cx="38.425"
     inkscape:cy="-50.429523"
     inkscape:window-x="0"
     inkscape:window-y="0"
     inkscape:window-maximized="0"
     inkscape:current-layer="Avatar" />
  <defs
     id="defs3083" />
  <g
     id="sideFootClose3"
     overflow="visible"
     style="overflow:visible"
     transform="translate(4.425,-2.2325765)">
    <g
       id="sideFootClose2_4">
      <g
         id="element2">
        <path
           id="path23"
           d="M 12.85,5.65 Q 12.899,5.894 13,6.225 L 13,6.25 C 12.25,5.4 11.3,5.1 10.05,5.45 9.8,5.2 9.55,5 9.3,4.85 8.85,4.55 8.4,4.3 7.95,4.05 7.9,4 7.8,4 7.75,3.95 6.35,3.1 4.85,2.6 3.3,2.5 2.85,2.25 2.3,2.2 1.75,2.25 0.4,2.4 -0.85,2.75 -2.05,3.35 -2.15,3.3 -2.25,3.25 -2.4,3.3 c -0.25,0.1 -0.45,0.2 -0.65,0.35 -0.3,0.2 -0.55,0.5 -0.7,0.85 0,-0.05 0,-0.15 0,-0.2 C -3.9,4.55 -3.95,4.75 -4,5 -4.05,5.65 -4.2,6.2 -4.4,6.75 -4.35,6.7 -4.25,6.7 -4.2,6.65 -4.25,6.8 -4.25,6.95 -4.3,7.1 -4.45,7.95 -4.2,8.65 -3.55,9.15 -3,9.6 -2.4,9.85 -1.8,9.9 c 0.05,0.15 0.2,0.3 0.5,0.4 0.35,0.15 0.7,0.25 1.05,0.4 0.05,0 0.1,0 0.15,0.05 1,0.35 1.95,0.6 2.85,0.8 1,0.35 1.9,0.4 2.75,0.15 0.1,0.15 0.25,0.25 0.4,0.3 0.05,0.05 0.15,0.15 0.3,0.2 0.95,0.5 1.85,0.5 2.8,-0.05 -0.05,0 -0.05,0 -0.05,0.05 C 9.1,12.15 9.3,12 9.45,11.85 9.7,11.5 9.85,11.25 9.8,11 c 0.05,0 0.15,0 0.2,0 0.35,-0.05 0.6,-0.15 0.85,-0.3 1.05,-0.75 1.3,-1.4 0.7,-2 1,0.15 1.65,-0.25 1.9,-1.2 0.05,-0.2 0.05,-0.4 0,-0.55 0,-0.5 -0.2,-0.95 -0.6,-1.3 z"
           inkscape:connector-curvature="0"
           style="fill:#663300" />
        <path
           id="path24"
           d="M 13.1,7 C 13.05,6.9 13,6.8 12.95,6.7 12.6,6.05 12,5.75 11.2,5.7 10.65,5.7 10.15,5.65 9.7,5.5 9.65,5.5 9.65,5.5 9.65,5.5 9.55,5.45 9.45,5.45 9.4,5.4 9.05,5.25 8.7,5.05 8.35,4.75 8.15,4.6 7.95,4.4 7.75,4.25 7.25,4.05 6.75,3.85 6.2,3.7 5.7,3.55 5.3,3.4 5,3.25 L 5.05,3.2 5.075,3.1 5.1,3.1 C 4.55,2.95 4,2.85 3.45,2.8 3.25,2.75 3.1,2.75 2.95,2.7 1.7,2.6 0.4,2.8 -0.85,3.25 -1.55,3.5 -2.2,3.75 -2.85,4 l -0.075,-0.05 0.025,0 C -3.25,4.3 -3.45,4.8 -3.6,5.4 -3.7,5.8 -3.8,6.15 -3.9,6.45 l -0.05,0 c 0,0.65 0.1,1.35 0.25,2.05 0.05,0.3 0.2,0.5 0.45,0.6 0.45,0.15 0.85,0.35 1.3,0.55 L -1.975,9.625 -1.95,9.6 c 1.75,0.45 3.5,1 5.2,1.65 0.7,0.25 1.4,0.35 2.1,0.25 -0.05,-0.05 0,-0.15 0.05,-0.2 0.1,0.1 0.2,0.2 0.35,0.3 -0.05,-0.05 -0.05,-0.15 0,-0.2 0.9,0.8 1.9,0.95 2.95,0.5 0.5,-0.2 0.7,-0.55 0.65,-1.05 0.05,0.05 0.15,0.15 0.2,0.2 0,-0.05 0,-0.05 0,-0.1 0,-0.05 0,-0.05 0.05,-0.05 -0.1,-0.05 -0.2,-0.1 -0.25,-0.2 0.1,0 0.2,0 0.3,0 l -0.025,0 0.025,-0.05 c 0,0 0,0 0.05,0.05 0.55,-0.05 1,-0.25 1.45,-0.65 C 11.75,9.5 11.7,9 11,8.55 10.8,8.4 10.75,8.25 10.8,8.1 11,8.2 11.15,8.3 11.3,8.45 11.75,8.4 12.15,8.25 12.6,8.05 12.75,8 12.85,7.9 12.95,7.85 13.15,7.6 13.2,7.35 13.1,7 z"
           inkscape:connector-curvature="0"
           style="fill:#ffffcc" />
      </g>
      <animate
         attributeName="display"
         begin="0s"
         repeatCount="indefinite"
         dur="0.167s"
         keyTimes="0;0.798;1"
         values="none;inline;none"
         id="animate3090" />
    </g>
    <g
       id="sideFootClose2_2">
      <g
         id="element1">
        <path
           id="path11"
           d="M 13,8.45 Q 13.4,8.1 13.45,7.65 C 13.6,6.55 13.2,5.85 12.3,5.6 11.75,5.25 11.05,5.2 10.15,5.5 9.65,4.95 9.05,4.45 8.3,4.1 6.75,3.3 5.1,2.7 3.35,2.3 3.4,2.35 3.5,2.45 3.6,2.55 3.45,2.5 3.3,2.45 3.15,2.4 2.9,2.35 2.7,2.35 2.55,2.35 c -1.7,-0.05 -3.35,0.3 -4.9,1 l 0,0.025 0,0.025 C -2.5,3.45 -2.7,3.55 -2.85,3.6 -3.3,3.85 -3.6,4.25 -3.75,4.7 -3.8,4.75 -3.8,4.85 -3.8,4.95 c 0,-0.2 0,-0.4 0,-0.55 -0.35,0.75 -0.5,1.5 -0.55,2.35 -0.1,0.25 -0.1,0.6 0,0.95 -0.05,0.6 0.25,1.1 0.85,1.55 0.65,0.4 1.3,0.7 2.05,0.9 0.4,0.1 0.75,0.15 1.1,0.2 0.9,0.55 1.95,1.05 3.1,1.5 1.05,0.35 2.05,0.4 3,0.05 0.05,0.05 0.15,0.15 0.3,0.2 0.45,0.25 0.9,0.35 1.35,0.4 0.9,0.05 1.5,-0.15 1.85,-0.6 C 9.3,11.85 9.4,11.8 9.5,11.7 9.65,11.5 9.75,11.3 9.8,11.15 10.25,11.2 10.75,11.05 11.25,10.6 12.1,9.85 12.2,9.25 11.6,8.85 11.85,8.9 12.15,8.8 12.4,8.65 l 0.05,-0.025 0,0.025 c 0.2,0 0.4,-0.05 0.55,-0.2 z M 13.25,7.4 c 0.05,-0.3 0,-0.55 -0.2,-0.8 0.05,0.05 0.05,0.15 0.1,0.25 0.05,0.2 0.1,0.4 0.1,0.55 z M 9.8,10.85 c 0.05,0 0.15,0 0.25,0 -0.1,0 -0.2,0 -0.25,0.05 l 0,-0.025 0,-0.05 z"
           inkscape:connector-curvature="0"
           style="fill:#663300" />
        <path
           id="path14"
           d="M 12.9,7.35 C 12.95,7 12.9,6.7 12.75,6.45 12.35,5.8 11.75,5.6 10.95,5.75 10.4,5.85 10.1,5.75 10.1,5.5 l 0.025,0 0.025,0 C 9.95,5.45 9.75,5.35 9.6,5.3 9.75,5.45 9.85,5.55 10,5.7 9.5,5.5 8.95,5.2 8.35,4.75 8.2,4.65 8.1,4.55 8,4.45 6.95,3.8 5.9,3.3 4.75,2.95 L 4.725,2.95 4.7,3 C 4.05,3 3.3,2.9 2.5,2.75 1.75,2.55 0.95,2.55 0.15,2.8 -0.7,3.05 -1.5,3.3 -2.35,3.6 -3,4.05 -3.35,4.7 -3.5,5.55 c -0.05,0.35 -0.2,0.7 -0.35,1 0,0.25 0,0.45 0,0.7 0,0.15 0,0.35 0.05,0.5 0.05,0.15 0.15,0.25 0.25,0.35 0.05,0.15 0.1,0.3 0.05,0.45 0.05,0.05 0.15,0.15 0.25,0.2 -0.15,0 -0.25,0 -0.35,-0.05 0.5,0.6 1.25,0.95 2.25,1.1 0.65,0.05 1.3,0.2 1.9,0.45 -0.15,0.05 -0.3,0.05 -0.45,0.1 1.15,0.45 2.35,0.9 3.6,1.25 0.65,0.2 1.25,0.25 1.9,0.15 C 5.55,11.6 5.5,11.5 5.45,11.4 c 0.15,0.1 0.25,0.2 0.4,0.3 0.05,0 0.15,0 0.2,0.05 l 0,0.05 c 0.75,0.4 1.6,0.4 2.5,0.05 C 9,11.7 9.3,11.4 9.5,11.05 9.35,11 9.2,10.9 9.05,10.8 c 0.15,0.05 0.35,0.05 0.5,0.1 l 0.05,-0.025 -0.05,0 0.05,0.025 c 0,-0.05 0,-0.1 -0.05,-0.15 0.05,0 0.1,0 0.15,0 0,0 0,0 0.05,0.05 0.85,-0.2 1.35,-0.7 1.55,-1.5 0,-0.1 0,-0.2 0.05,-0.3 0,-0.05 0,-0.05 0.05,-0.05 0.1,0.15 0.2,0.3 0.25,0.45 C 11.7,9.15 11.55,8.95 11.25,8.85 11.1,8.8 11.1,8.75 11.15,8.65 11.1,8.6 11.1,8.6 11.05,8.6 c 0.05,0 0.05,0 0.1,0 l 0.025,0 0.025,0 c 0.9,0.05 1.45,-0.35 1.7,-1.25 z"
           inkscape:connector-curvature="0"
           style="fill:#ffffcc" />
      </g>
      <animate
         attributeName="display"
         begin="0s"
         repeatCount="indefinite"
         dur="0.167s"
         keyTimes="0;0.399;0.798;1"
         values="none;inline;none;none"
         id="animate3096" />
    </g>
    <g
       id="sideFootClose2_0">
      <g
         id="element">
        <path
           id="path"
           d="M 13.3,7.95 C 13.65,7.4 13.65,6.9 13.3,6.45 12.55,5.35 11.45,5 10.05,5.45 10,5.5 10,5.5 10,5.55 l -0.05,0 C 9.6,5.2 9.15,4.85 8.7,4.55 8.55,4.4 8.35,4.25 8.2,4.1 6.85,3.1 5.3,2.5 3.65,2.35 3.7,2.4 3.7,2.4 3.75,2.45 L 3.85,2.5 C 3.8,2.45 3.8,2.45 3.75,2.45 2,2.15 0.35,2.35 -1.25,3 -1.45,3.05 -1.65,3.1 -1.8,3.2 -1.65,3.1 -1.55,3 -1.4,2.95 -1.6,3 -1.8,3.1 -2,3.2 -2.3,3.3 -2.6,3.4 -2.9,3.55 -3.15,3.75 -3.4,4 -3.6,4.25 -3.65,4.3 -3.7,4.4 -3.75,4.5 c 0,-0.15 0,-0.25 -0.05,-0.4 -0.1,0.15 -0.15,0.35 -0.2,0.55 -0.15,0.7 -0.25,1.3 -0.35,1.75 0.05,0 0.05,0.1 0,0.3 C -4.4,7 -4.4,7.3 -4.4,7.55 l 0.025,-0.05 0.025,0 c 0,0.35 0.1,0.6 0.25,0.85 0.05,0.2 0.15,0.35 0.3,0.5 0.15,0.15 0.3,0.35 0.45,0.55 0.05,0 0.15,0 0.2,0.05 0.15,0.05 0.25,0.15 0.35,0.3 0.45,-0.05 0.85,0.05 1.3,0.2 0.6,0.2 1.15,0.4 1.7,0.6 0.25,0.15 0.55,0.35 0.85,0.5 1.55,0.85 3.2,1.15 4.85,0.9 0.25,0.25 0.6,0.45 1.05,0.55 0.55,0.15 1.1,0.05 1.6,-0.2 0.9,-0.15 1.35,-0.6 1.3,-1.45 0.35,0.05 0.75,0 1.15,-0.15 0.25,-0.05 0.5,-0.2 0.65,-0.45 0.5,-0.65 0.6,-1.15 0.3,-1.55 0.55,0.05 1,-0.2 1.35,-0.75 z"
           inkscape:connector-curvature="0"
           style="fill:#663300" />
        <path
           id="path1"
           d="M 12.85,6.2 Q 12.25,5.75 11.5,5.75 C 10.95,5.7 10.45,5.7 9.9,5.7 c 0,-0.05 0,-0.05 0,-0.1 L 9.925,5.575 9.95,5.6 C 9.8,5.55 9.7,5.45 9.55,5.4 9.6,5.45 9.7,5.55 9.75,5.65 9.4,5.45 9.1,5.25 8.75,5 7.9,4.55 7.05,4.05 6.2,3.6 5.95,3.45 5.75,3.35 5.55,3.25 4.9,3.1 4.2,3 3.45,2.85 1.2,2.45 -0.85,2.85 -2.7,4 -2.6,3.9 -2.5,3.8 -2.35,3.7 -2.5,3.75 -2.6,3.85 -2.75,3.9 l -0.025,0 0.025,0 c -0.25,0.25 -0.5,0.55 -0.7,0.85 -0.15,0.3 -0.3,0.6 -0.35,0.95 0,0.05 0,0.05 0,0.1 C -3.85,6 -3.9,6.25 -3.95,6.5 -4,6.75 -4.1,6.95 -4.15,7.15 c 0,0.1 0,0.2 0.05,0.3 0.15,0.25 0.25,0.5 0.4,0.75 0.05,0.05 0.05,0.15 0.05,0.2 0.5,0.65 1.2,1.05 2.15,1.2 0.15,0 0.3,0 0.55,0.05 0.25,0 0.45,0.05 0.65,0.2 -0.05,0 -0.05,0 -0.1,0 0.25,0.1 0.45,0.25 0.7,0.45 L 0.275,10.325 0.3,10.35 c 0.05,0 0.15,0.05 0.2,0.1 1.15,0.45 2.4,0.85 3.65,1.1 0.55,0.1 1.1,0.2 1.65,0.25 0,-0.05 0,-0.05 -0.05,-0.1 0.05,0.05 0.1,0.05 0.15,0.1 0.05,0 0.1,0 0.15,0 0.05,0 0.15,0 0.2,0.05 -0.05,0 -0.05,0 -0.1,0.05 l 0,-0.025 0,0.05 0,0.025 C 7.1,12.15 8,12.1 8.85,11.85 9.2,11.6 9.35,11.2 9.2,10.75 L 9.225,10.725 9.25,10.75 C 9.2,10.7 9.1,10.7 9.05,10.65 9.6,10.55 10.2,10.45 10.9,10.3 11,10.25 11.1,10.25 11.2,10.25 11.4,10 11.5,9.7 11.5,9.3 c 0,-0.1 0,-0.2 0.05,-0.3 0,0.05 0,0.05 0.05,0.1 l 0,-0.025 0.05,-0.025 C 11.6,8.8 11.5,8.55 11.4,8.3 l 0,-0.05 c 0.2,0.1 0.35,0.25 0.5,0.4 0.75,-0.3 1.2,-0.9 1.25,-1.8 0,-0.25 -0.1,-0.5 -0.3,-0.65 z"
           inkscape:connector-curvature="0"
           style="fill:#ffffcc" />
      </g>
      <animate
         attributeName="display"
         begin="0s"
         repeatCount="indefinite"
         dur="0.167s"
         keyTimes="0;0.399;1"
         values="inline;none;none"
         id="animate3102" />
    </g>
  </g>
</svg>
