<?xml version="1.0" encoding="UTF-8" standalone="no"?>
<!-- Generator: flash2svg, http://dissentgraphics.com/tools/flash2svg -->

<svg
   xmlns:dc="http://purl.org/dc/elements/1.1/"
   xmlns:cc="http://creativecommons.org/ns#"
   xmlns:rdf="http://www.w3.org/1999/02/22-rdf-syntax-ns#"
   xmlns:svg="http://www.w3.org/2000/svg"
   xmlns="http://www.w3.org/2000/svg"
   xmlns:sodipodi="http://sodipodi.sourceforge.net/DTD/sodipodi-0.dtd"
   xmlns:inkscape="http://www.inkscape.org/namespaces/inkscape"
   id="Avatar"
   image-rendering="auto"
   version="1.1"
   x="0px"
   y="0px"
   width="9.3092995"
   height="13.763556"
   viewBox="0 0 9.3092995 13.763556"
   inkscape:version="0.48.4 r9939"
   sodipodi:docname="Avatar_sideLegLowerClose2.svg">
  <metadata
     id="metadata3291">
    <rdf:RDF>
      <cc:Work
         rdf:about="">
        <dc:format>image/svg+xml</dc:format>
        <dc:type
           rdf:resource="http://purl.org/dc/dcmitype/StillImage" />
      </cc:Work>
    </rdf:RDF>
  </metadata>
  <sodipodi:namedview
     pagecolor="#ffffff"
     bordercolor="#666666"
     borderopacity="1"
     objecttolerance="10"
     gridtolerance="10"
     guidetolerance="10"
     inkscape:pageopacity="0"
     inkscape:pageshadow="2"
     inkscape:window-width="640"
     inkscape:window-height="480"
     id="namedview3289"
     showgrid="false"
     fit-margin-top="0"
     fit-margin-left="0"
     fit-margin-right="0"
     fit-margin-bottom="0"
     inkscape:zoom="1.8730159"
     inkscape:cx="38.479687"
     inkscape:cy="-52.504626"
     inkscape:window-x="0"
     inkscape:window-y="0"
     inkscape:window-maximized="0"
     inkscape:current-layer="Avatar" />
  <defs
     id="defs3265" />
  <g
     id="sideLegLowerClose3"
     overflow="visible"
     style="overflow:visible"
     transform="translate(4.4796875,3.2681818)">
    <g
       id="sideLegLowerClose2_4">
      <g
         id="element2">
        <path
           id="path29"
           d="M 2.175,-3.05 Q 1.64,-3.166 1.1,-3.2 c -0.25,-0.05 -0.45,-0.05 -0.7,0 -0.65,0 -1.25,0.1 -1.85,0.25 -0.15,-0.05 -0.25,-0.05 -0.4,0 -0.45,0.1 -0.8,0.25 -1.15,0.5 -0.4,0.25 -0.7,0.6 -0.9,0.95 0,0.25 0,0.45 0.05,0.7 0.05,0.15 0.1,0.3 0.2,0.45 C -3.7,-0.2 -3.7,-0.1 -3.7,0 -3.75,0.85 -3.8,1.65 -3.85,2.4 l -0.05,0 c 0.05,1.5 0,3 -0.15,4.45 -0.05,0.55 0.1,1 0.45,1.45 0.15,0.25 0.35,0.45 0.6,0.65 -0.15,-0.15 -0.3,-0.3 -0.45,-0.45 0.1,0.3 0.25,0.6 0.4,0.9 1.1,0.95 2.35,1.2 3.8,0.75 C 1,10.1 1.3,10 1.55,9.9 1.6,9.9 1.65,9.9 1.7,9.85 L 1.675,9.85 2.55,9.4 C 2.8,9.25 3,9.05 3.2,8.85 L 3.2,8.825 3.2,8.8 C 3.35,8.25 3.5,7.75 3.6,7.2 3.75,6.6 3.9,6 4.05,5.4 3.95,4.3 4,3.2 4.15,2.1 4,2.25 3.85,2.35 3.7,2.4 3,3.05 2.3,3.1 1.55,2.45 1.35,2.3 1.25,2.1 1.2,1.9 1.2,1.95 1.2,1.95 1.25,1.95 1.15,1.8 1.1,1.7 1.15,1.55 1.7,2.2 2.4,2.35 3.25,2.05 3.6,1.9 3.9,1.85 4.15,1.85 4.2,1.65 4.2,1.45 4.25,1.25 4.3,0.9 4.4,0.5 4.5,0.15 L 4.475,0.15 4.5,0 C 4.45,0 4.4,-0.15 4.35,-0.4 4,-1.45 3.85,-2.05 3.9,-2.3 3.35,-2.65 2.95,-2.9 2.65,-2.95 c -0.05,0 -0.05,0 -0.1,0 C 2.4,-3 2.3,-3 2.2,-3.05"
           inkscape:connector-curvature="0"
           style="fill:#ffffcc" />
        <path
           id="path30"
           d="M 3.55,-2 C 3.5,-2 3.5,-2 3.5,-2 3.55,-1.95 3.6,-1.9 3.65,-1.85 3.6,-1.9 3.6,-1.95 3.55,-2"
           inkscape:connector-curvature="0"
           style="fill:#663300" />
        <path
           id="path31"
           d="m 3.875,-2.325 0,0.025 0.025,0 C 3.85,-2.05 4,-1.45 4.35,-0.4 4.4,-0.15 4.45,0 4.5,0 L 4.475,0.15 4.5,0.15 C 4.4,0.5 4.3,0.9 4.25,1.25 4.2,1.45 4.2,1.65 4.15,1.85 3.9,1.85 3.6,1.9 3.25,2.05 2.4,2.35 1.7,2.2 1.15,1.55 1.1,1.7 1.15,1.8 1.25,1.95 1.2,1.95 1.2,1.95 1.2,1.9 1.25,2.1 1.35,2.3 1.55,2.45 2.3,3.1 3,3.05 3.7,2.4 3.85,2.35 4,2.25 4.15,2.1 4,3.2 3.95,4.3 4.05,5.4 3.9,6 3.75,6.6 3.6,7.2 3.5,7.75 3.35,8.25 3.2,8.8 3.55,8.35 3.8,7.85 3.9,7.25 4.15,6.8 4.3,6.2 4.35,5.55 4.35,5.25 4.35,4.95 4.4,4.7 4.45,4.4 4.45,4.1 4.5,3.8 4.55,2.85 4.6,1.95 4.65,1 4.65,0.75 4.7,0.25 4.75,-0.5 4.8,-1.05 4.65,-1.45 4.4,-1.8 4.05,-2.35 3.9,-2.5 3.9,-2.3 m -7.8,0.8 c -0.25,0.35 -0.35,0.75 -0.35,1.2 -0.05,0.6 0,1.2 0.15,1.85 -0.05,1.45 -0.15,2.9 -0.3,4.35 -0.15,1.45 0.2,2.5 1,3.2 0.05,0.05 0.1,0.1 0.15,0.15 0.05,0.05 0.15,0.1 0.2,0.15 C -3.2,9.1 -3.35,8.8 -3.45,8.5 -3.3,8.65 -3.15,8.8 -3,8.95 -3.25,8.75 -3.45,8.55 -3.6,8.3 -3.95,7.85 -4.1,7.4 -4.05,6.85 -3.9,5.4 -3.85,3.9 -3.9,2.4 c 0,-0.05 0,-0.05 0,-0.1 0.05,0.05 0.05,0.05 0.05,0.1 0.05,-0.75 0.1,-1.55 0.15,-2.4 0,-0.1 0,-0.2 0.05,-0.35 C -3.75,-0.5 -3.8,-0.65 -3.85,-0.8 -3.9,-1.05 -3.9,-1.25 -3.9,-1.5 z"
           inkscape:connector-curvature="0"
           style="fill:#663300" />
      </g>
      <animate
         attributeName="display"
         begin="0s"
         repeatCount="indefinite"
         dur="0.167s"
         keyTimes="0;0.798;1"
         values="none;inline;none"
         id="animate3273" />
    </g>
    <g
       id="sideLegLowerClose2_2">
      <g
         id="element1">
        <path
           id="path11"
           d="M 4.275,-1.775 4.15,-1.9 C 3.8,-2.55 3.65,-2.8 3.7,-2.6 c 0,0.05 0,0.15 0.05,0.3 0.05,0.25 0.15,0.55 0.3,1 0.2,0.65 0.3,0.95 0.3,1 0,0.65 0,1.3 -0.05,1.95 C 4.25,1.75 4.25,1.85 4.25,1.9 4.2,2.15 4.2,2.45 4.15,2.75 4.15,2.9 4.15,3 4.1,3.1 3.95,4.15 3.85,5.15 3.8,6.15 3.7,6.7 3.6,7.25 3.45,7.8 l 0,0.025 0,0.025 C 3.4,7.9 3.35,8 3.3,8.05 3.2,8.4 3.1,8.7 2.95,9.05 3.95,8.25 4.35,7.3 4.1,6.15 4.05,6.6 3.95,7.05 3.75,7.4 3.8,7.15 3.9,6.9 3.95,6.65 4.05,6.2 4.1,5.7 4.15,5.2 4.3,3.95 4.45,2.95 4.5,2.3 4.55,1.65 4.65,0.85 4.8,0 4.9,-0.65 4.75,-1.2 4.3,-1.75 M 3.55,2.15 C 3.4,2.15 3.2,2.2 3.05,2.25 2.45,2.3 1.9,2.15 1.45,1.8 1.3,1.7 1.2,1.6 1.1,1.5 1.05,1.8 1.2,2.05 1.5,2.25 1.55,2.3 1.6,2.3 1.65,2.35 1.8,2.45 1.95,2.55 2.1,2.6 2.25,2.8 2.5,2.85 2.85,2.8 3.3,2.75 3.65,2.55 3.9,2.3 4.05,2.2 4.15,2.05 4.25,1.9 4.2,1.9 4.15,1.9 4.1,1.95 4.15,1.85 4.15,1.75 4.2,1.65 4,1.75 3.8,1.9 3.55,2.1 L 3.525,2.125 z M -3.8,-0.5 c -0.1,-0.25 -0.15,-0.5 -0.1,-0.85 0,-0.05 0,-0.15 0.05,-0.2 -0.3,0.45 -0.4,1.05 -0.35,1.7 0.05,0.3 0.05,0.6 0.1,0.9 -0.45,2.2 -0.5,4.4 -0.15,6.6 0.15,0.95 0.5,1.6 1.15,1.95 C -3.3,9.4 -3.45,9.15 -3.6,8.9 -3.75,8.6 -3.8,8.35 -3.7,8.1 -3.75,7.95 -3.75,7.75 -3.8,7.55 -3.95,6.1 -4.05,4.6 -4.05,3.15 c 0,-0.35 0,-0.7 0,-1.05 C -4,2.45 -4,2.8 -4,3.15 c 0.25,-0.8 0.3,-1.65 0.2,-2.5 -0.05,-0.45 -0.05,-0.8 0,-1.15 z"
           inkscape:connector-curvature="0"
           style="fill:#663300" />
        <path
           id="path12"
           d="M 3.6,-2.35 C 3.35,-2.5 3.1,-2.65 2.8,-2.7 1.2,-3.15 -0.4,-3.2 -2,-2.85 l 0.05,0 c -0.35,0.1 -0.7,0.25 -1.05,0.4 l -0.5,0.4 c -0.15,0.15 -0.25,0.35 -0.35,0.5 l -0.025,-0.025 0,0.025 0.025,0 c -0.05,0.05 -0.05,0.15 -0.05,0.2 -0.05,0.35 0,0.6 0.1,0.85 -0.05,0.35 -0.05,0.7 0,1.15 0.1,0.85 0.05,1.7 -0.2,2.5 l -0.075,0 0.025,0 c 0,1.45 0.1,2.95 0.25,4.4 0.05,0.2 0.05,0.4 0.1,0.55 -0.1,0.25 -0.05,0.5 0.1,0.8 0.15,0.25 0.3,0.5 0.5,0.7 l -0.025,0 0.025,0.025 0,0.025 c 0.15,0.05 0.3,0.1 0.45,0.15 0,0 0,0 0.05,0 0.45,0.25 0.85,0.45 1.25,0.55 l 0.05,0 0.05,0.025 0,0.025 c 1.05,0.25 2.1,0 3.15,-0.65 C 2.15,9.6 2.35,9.5 2.55,9.35 2.7,9.25 2.8,9.15 2.95,9.05 3.1,8.7 3.2,8.4 3.3,8.05 3.35,8 3.4,7.9 3.45,7.85 l 0,-0.025 0,-0.025 C 3.6,7.25 3.7,6.7 3.8,6.15 3.85,5.15 3.95,4.15 4.1,3.1 4.15,3 4.15,2.9 4.15,2.75 4.2,2.45 4.2,2.15 4.25,1.9 4.15,2.05 4.05,2.2 3.9,2.3 3.65,2.55 3.3,2.75 2.85,2.8 2.5,2.85 2.25,2.8 2.1,2.6 1.95,2.55 1.8,2.45 1.65,2.35 1.6,2.3 1.55,2.3 1.5,2.25 1.2,2.05 1.05,1.8 1.1,1.5 1.2,1.6 1.3,1.7 1.45,1.8 1.9,2.15 2.45,2.3 3.05,2.25 3.2,2.2 3.4,2.15 3.55,2.15 L 3.525,2.125 3.55,2.1 C 3.8,1.9 4,1.75 4.2,1.65 l 0.075,0 0.025,0 C 4.35,1 4.35,0.35 4.35,-0.3 c 0,-0.05 -0.1,-0.35 -0.3,-1 C 3.9,-1.75 3.8,-2.05 3.75,-2.3 L 3.7,-2.325 3.725,-2.3 3.7,-2.3 C 3.65,-2.35 3.65,-2.35 3.6,-2.4 l 0,0.05 z M -1.85,9.85 -1.875,9.925 -1.85,9.95 C -1.9,9.9 -2,9.9 -2.05,9.85 c 0.05,0 0.15,0 0.2,0 z"
           inkscape:connector-curvature="0"
           style="fill:#ffffcc" />
        <path
           id="path28"
           d="m -1.35,10.35 c 0.05,0 0.05,0 0.1,0.05 m 0,-0.025 -0.05,-0.025 -0.05,0"
           inkscape:connector-curvature="0"
           style="fill:#663300" />
      </g>
      <animate
         attributeName="display"
         begin="0s"
         repeatCount="indefinite"
         dur="0.167s"
         keyTimes="0;0.399;0.798;1"
         values="none;inline;none;none"
         id="animate3280" />
    </g>
    <g
       id="sideLegLowerClose2_0">
      <g
         id="element">
        <path
           id="path"
           d="M 4.2,-0.2 Q 3.591,-2.323 3.675,-2.475 L 3.7,-2.45 C 3.45,-2.7 3.05,-2.9 2.6,-3.05 0.85,-3.45 -0.8,-3.3 -2.45,-2.6 c -0.15,0.1 -0.3,0.2 -0.45,0.3 -0.25,0.15 -0.4,0.35 -0.55,0.6 -0.05,0 -0.05,0 -0.05,0.05 l -0.025,-0.025 0,0.025 0.025,0 c -0.05,0.1 -0.05,0.2 -0.1,0.25 0.05,0.05 0.05,0.05 0.1,0.1 -0.4,1.2 -0.55,2.5 -0.45,3.85 0,0.35 0,0.65 -0.05,0.95 0.05,1.2 0.1,2.45 0.15,3.7 0.05,0.55 0.2,1 0.55,1.4 0,0.05 0,0.15 0.05,0.2 0.15,0.25 0.25,0.55 0.4,0.8 l 0.025,0.025 0.025,0 0,0.025 c 0.35,0.3 0.75,0.5 1.3,0.55 0.85,0.15 1.65,0.2 2.35,0.05 l 0,-0.025 0,-0.025 0.025,0.025 L 0.9,10.25 C 1.85,10 2.65,9.5 3.3,8.75 3.65,7.9 3.85,7.1 3.85,6.25 4.1,5.35 4.2,4.4 4.2,3.45 L 4.125,3.425 4.15,3.45 C 4.1,3.5 4.1,3.6 4.05,3.65 4.1,3.35 4.15,3.05 4.2,2.75 4.15,2.4 4.15,2.1 4.2,1.85 3.7,2.85 2.85,3.05 1.7,2.4 1.4,2.25 1.2,2 1.15,1.7 1.8,2.25 2.55,2.4 3.3,2.1 3.65,1.95 3.95,1.8 4.25,1.65 4.3,1 4.25,0.4 4.2,-0.2 z"
           inkscape:connector-curvature="0"
           style="fill:#ffffcc" />
        <path
           id="path1"
           d="M 3.675,-2.475 Q 3.591,-2.323 4.2,-0.2 C 4.25,0.4 4.3,1 4.25,1.65 3.95,1.8 3.65,1.95 3.3,2.1 2.55,2.4 1.8,2.25 1.15,1.7 1.2,2 1.4,2.25 1.7,2.4 2.85,3.05 3.7,2.85 4.2,1.85 4.25,1.8 4.25,1.75 4.25,1.7 c 0,0.05 0,0.1 0,0.15 0,0.05 0,0.15 0,0.2 C 4.2,1.95 4.2,1.9 4.2,1.85 4.15,2.1 4.15,2.4 4.2,2.75 4.15,3.05 4.1,3.35 4.05,3.65 4.1,3.6 4.1,3.5 4.15,3.45 c 0,-0.05 0,-0.15 0.05,-0.2 0,0.05 0,0.15 0,0.2 0,0.95 -0.1,1.9 -0.35,2.8 0,0.85 -0.2,1.65 -0.55,2.5 0.1,-0.1 0.2,-0.2 0.25,-0.3 l 0,0.05 C 3.8,8.25 3.95,8 4.1,7.65 4.15,7.5 4.25,7.4 4.3,7.25 4.25,7.25 4.25,7.25 4.25,7.3 4.3,7.05 4.3,6.85 4.35,6.6 4.5,5.4 4.5,4.25 4.4,3.1 4.45,2.3 4.55,1.4 4.7,0.45 4.8,-0.25 4.7,-0.9 4.4,-1.45 4.15,-1.85 3.95,-2.2 3.75,-2.45 3.7,-2.5 3.7,-2.5 3.7,-2.45 m -7.2,1.15 c -0.05,-0.05 -0.05,-0.05 -0.1,-0.1 0.05,-0.05 0.05,-0.15 0.1,-0.25 -0.55,0.45 -0.8,1 -0.75,1.75 0.05,1.5 0,3 -0.15,4.45 0.05,-0.1 0.15,-0.2 0.2,-0.35 -0.05,0.65 -0.1,1.25 -0.1,1.9 -0.05,1.65 0.45,2.85 1.45,3.5 C -3,9.35 -3.1,9.05 -3.25,8.8 -3.3,8.75 -3.3,8.65 -3.3,8.6 -3.65,8.2 -3.8,7.75 -3.85,7.2 -3.9,5.95 -3.95,4.7 -4,3.5 -3.95,3.2 -3.95,2.9 -3.95,2.55 -4.05,1.2 -3.9,-0.1 -3.5,-1.3 z"
           inkscape:connector-curvature="0"
           style="fill:#663300" />
        <path
           id="path8"
           d="m 0.85,10.2 0,0.025 0.025,0 L 0.85,10.2"
           inkscape:connector-curvature="0"
           style="fill:#663300" />
      </g>
      <animate
         attributeName="display"
         begin="0s"
         repeatCount="indefinite"
         dur="0.167s"
         keyTimes="0;0.399;1"
         values="inline;none;none"
         id="animate3287" />
    </g>
  </g>
</svg>
