<?xml version="1.0" encoding="UTF-8" standalone="no"?>
<!-- Generator: flash2svg, http://dissentgraphics.com/tools/flash2svg -->

<svg
   xmlns:dc="http://purl.org/dc/elements/1.1/"
   xmlns:cc="http://creativecommons.org/ns#"
   xmlns:rdf="http://www.w3.org/1999/02/22-rdf-syntax-ns#"
   xmlns:svg="http://www.w3.org/2000/svg"
   xmlns="http://www.w3.org/2000/svg"
   xmlns:sodipodi="http://sodipodi.sourceforge.net/DTD/sodipodi-0.dtd"
   xmlns:inkscape="http://www.inkscape.org/namespaces/inkscape"
   id="Avatar"
   image-rendering="auto"
   version="1.1"
   x="0px"
   y="0px"
   width="12.262736"
   height="14.358048"
   viewBox="0 0 12.262736 14.358048"
   inkscape:version="0.48.4 r9939"
   sodipodi:docname="Avatar_backArmLowerLeft2.svg">
  <metadata
     id="metadata26">
    <rdf:RDF>
      <cc:Work
         rdf:about="">
        <dc:format>image/svg+xml</dc:format>
        <dc:type
           rdf:resource="http://purl.org/dc/dcmitype/StillImage" />
      </cc:Work>
    </rdf:RDF>
  </metadata>
  <sodipodi:namedview
     pagecolor="#ffffff"
     bordercolor="#666666"
     borderopacity="1"
     objecttolerance="10"
     gridtolerance="10"
     guidetolerance="10"
     inkscape:pageopacity="0"
     inkscape:pageshadow="2"
     inkscape:window-width="640"
     inkscape:window-height="480"
     id="namedview24"
     showgrid="false"
     fit-margin-top="0"
     fit-margin-left="0"
     fit-margin-right="0"
     fit-margin-bottom="0"
     inkscape:zoom="1.8730159"
     inkscape:cx="43.1875"
     inkscape:cy="-60.498231"
     inkscape:window-x="0"
     inkscape:window-y="0"
     inkscape:window-maximized="0"
     inkscape:current-layer="Avatar" />
  <defs
     id="defs3" />
  <g
     id="backArmLowerLeft3"
     overflow="visible"
     style="overflow:visible"
     transform="translate(9.1875,11.856279)">
    <g
       id="backArmLowerLeft2_4">
      <g
         id="element2">
        <path
           id="path8"
           d="M -3.875,-10.775 Q -4.343,-11.339 -4.8,-11.6 l -0.025,-0.025 0.025,0.025 c -0.25,-0.05 -0.5,-0.1 -0.75,-0.05 l -0.7,0.15 c -0.65,0.25 -1.2,0.55 -1.6,0.95 0.25,-0.35 0.6,-0.6 1.05,-0.85 -0.2,0.05 -0.35,0.1 -0.5,0.2 -0.25,0.15 -0.45,0.25 -0.7,0.35 -0.45,0.4 -0.8,0.85 -1,1.35 0,0.05 0,0.05 0,0.1 0,1.15 0.25,2.05 0.8,2.7 0.15,0.45 0.3,0.9 0.55,1.3 l -0.1,0.075 0,0.025 c 0.75,1.4 1.65,2.75 2.65,4.05 L -5.025,-1.275 -5,-1.25 C -5.05,-1.4 -5.1,-1.5 -5.15,-1.6 -4.6,-0.8 -4,-0.15 -3.3,0.35 -3.15,0.5 -2.95,0.6 -2.75,0.7 l -0.025,0.05 0.025,0 C -1.9,1.3 -0.9,1.7 0.2,1.85 0.45,1.9 0.75,1.85 1,1.7 1.25,1.55 1.45,1.45 1.7,1.4 3.05,-0.7 2.75,-2.9 0.85,-5.15 0.8,-5.2 0.45,-5.6 -0.2,-6.25 -0.55,-6.6 -0.95,-7.05 -1.3,-7.5 c -0.35,-0.45 -0.65,-0.95 -1,-1.5 -0.5,-0.85 -1,-1.45 -1.55,-1.75"
           inkscape:connector-curvature="0"
           style="fill:#ffffcc" />
        <path
           id="path9"
           d="m -4.8,-11.6 q 0.457,0.261 0.925,0.825 l 0.025,0.025 c 0.55,0.3 1.05,0.9 1.55,1.75 0.35,0.55 0.65,1.05 1,1.5 0.35,0.45 0.75,0.9 1.1,1.25 0.65,0.65 1,1.05 1.05,1.1 C 2.75,-2.9 3.05,-0.7 1.7,1.4 1.45,1.45 1.25,1.55 1,1.7 0.75,1.85 0.45,1.9 0.2,1.85 -0.9,1.7 -1.9,1.3 -2.75,0.75 -2.8,0.7 -2.8,0.7 -2.85,0.7 c 0.05,0 0.05,0 0.1,0 C -2.95,0.6 -3.15,0.5 -3.3,0.35 -4,-0.15 -4.6,-0.8 -5.15,-1.6 c 0.05,0.1 0.1,0.2 0.15,0.35 0,0.05 0,0.15 0.05,0.2 C -5,-1.1 -5.05,-1.2 -5.1,-1.25 -6.1,-2.55 -7,-3.9 -7.75,-5.3 -7.8,-5.4 -7.8,-5.45 -7.85,-5.5 c 0.05,0.05 0.15,0.05 0.2,0.1 C -7.9,-5.8 -8.05,-6.25 -8.2,-6.7 -8.75,-7.35 -9,-8.25 -9,-9.4 c 0,-0.05 0,-0.05 0,-0.1 -0.25,0.65 -0.25,1.4 0,2.25 0.15,0.35 0.3,0.7 0.45,0.95 0.05,0.25 0.1,0.5 0.25,0.8 0.75,1.45 1.6,2.85 2.45,4.15 0.55,0.75 1.15,1.35 1.8,1.7 L -4.075,0.325 -4.05,0.35 c 1.55,1.95 3.25,2.55 5.1,1.9 0.05,0 0.05,0 0.1,0 L 1.125,2.225 1.35,2.15 C 1.55,2.1 1.75,2 1.95,1.9 2.3,1.7 2.6,1.45 2.95,1.2 c -0.1,0 -0.2,0 -0.3,0 C 2.9,0.85 3,0.35 3,-0.2 3.1,-2.85 2.05,-5.05 -0.1,-6.7 -0.15,-6.75 -0.2,-6.8 -0.25,-6.85 -0.85,-7.6 -1.4,-8.4 -1.9,-9.2 c 0,0.05 0,0.15 0,0.25 -0.1,-0.2 -0.2,-0.4 -0.3,-0.6 -0.45,-0.95 -1.1,-1.55 -2,-1.75 -0.05,-0.1 -0.2,-0.2 -0.35,-0.25 -0.1,-0.05 -0.2,-0.05 -0.25,-0.05 z"
           inkscape:connector-curvature="0"
           style="fill:#663300" />
      </g>
      <animate
         attributeName="display"
         begin="0s"
         repeatCount="indefinite"
         dur="0.167s"
         keyTimes="0;0.798;1"
         values="none;inline;none"
         id="animate10" />
    </g>
    <g
       id="backArmLowerLeft2_2">
      <g
         id="element1">
        <path
           id="path2"
           d="M 2.35,-1.875 Q 1.902,-3.305 1,-4.6 c -0.55,-0.8 -1.05,-1.5 -1.5,-2.1 -0.55,-0.6 -1.1,-1.25 -1.55,-2 -0.35,-0.55 -0.65,-1 -0.9,-1.35 l 0,-0.125 0,0.025 c -0.3,-0.3 -0.6,-0.55 -0.9,-0.75 -0.1,-0.05 -0.2,-0.1 -0.25,-0.15 -0.1,-0.15 -0.2,-0.25 -0.35,-0.35 -0.1,-0.1 -0.2,-0.2 -0.3,-0.25 l -0.025,-0.025 0.025,0 0,0.025 c -0.5,-0.1 -1.05,-0.05 -1.6,0.1 -0.35,0.15 -0.7,0.35 -1.05,0.6 0.15,-0.2 0.35,-0.4 0.6,-0.55 -1.15,0.45 -1.85,1.25 -2.15,2.4 -0.05,0.2 -0.1,0.4 -0.1,0.65 -0.05,0.15 -0.05,0.25 0,0.4 0,0.25 0.1,0.3 0.3,0.25 0.05,0.25 0.15,0.45 0.3,0.7 0.05,0.15 0.15,0.3 0.2,0.45 -0.05,-0.25 -0.05,-0.55 -0.05,-0.8 0.05,0.5 0.1,1 0.2,1.5 0.65,1.05 1.35,2.05 2.15,3 0.55,0.65 0.95,1.3 1.2,2 0.95,1.05 2.15,1.9 3.5,2.45 0.65,0.3 1.35,0.45 2,0.4 l 0,-0.05 C 1.3,1.65 1.7,1.35 1.95,0.9 2.05,0.75 2.15,0.65 2.2,0.55 c 0,0 0,0 0.05,0.05 0.1,-0.25 0.2,-0.45 0.3,-0.7 -0.05,-0.55 -0.1,-1.15 -0.2,-1.75"
           inkscape:connector-curvature="0"
           style="fill:#ffffcc" />
        <path
           id="path3"
           d="m 1,-4.6 q 0.902,1.295 1.35,2.725 l 0,0.025 c 0.1,0.6 0.15,1.2 0.2,1.75 C 2.45,0.15 2.35,0.35 2.25,0.6 2.2,0.55 2.2,0.55 2.2,0.55 2.15,0.65 2.05,0.75 1.95,0.9 1.7,1.35 1.3,1.65 0.75,1.85 c 0,0 0,0 0.05,0.05 l -0.05,0 C 0.1,1.95 -0.6,1.8 -1.25,1.5 -2.6,0.95 -3.8,0.1 -4.75,-0.95 c -0.25,-0.7 -0.65,-1.35 -1.2,-2 -0.8,-0.95 -1.5,-1.95 -2.15,-3 -0.1,-0.5 -0.15,-1 -0.2,-1.5 0,0.25 0,0.55 0.05,0.8 -0.05,-0.15 -0.15,-0.3 -0.2,-0.45 -0.15,-0.25 -0.25,-0.45 -0.3,-0.7 -0.2,0.05 -0.3,0 -0.3,-0.25 -0.05,-0.15 -0.05,-0.25 0,-0.4 -0.1,0.7 0,1.35 0.35,1.9 0.05,0.55 0.3,1.15 0.7,1.7 0.75,1.15 1.55,2.2 2.4,3.1 0.35,0.75 0.85,1.45 1.5,2.2 1.45,1.55 3,2.15 4.7,1.7 C 0.75,2.1 0.85,2.1 1,2.05 1.2,2.1 1.4,2.05 1.65,1.95 2.15,1.7 2.4,1.45 2.45,1.15 2.55,1.05 2.65,0.95 2.7,0.9 l 0,-0.025 0,-0.025 C 2.9,0.6 3,0.25 3.05,-0.2 3.1,-1.05 2.9,-1.85 2.55,-2.5 2.25,-3.85 1.5,-5.05 0.3,-6.1 c -0.4,-0.65 -0.75,-1.3 -1.1,-1.95 -0.55,-1.05 -1.3,-1.9 -2.15,-2.5 -0.1,-0.15 -0.2,-0.3 -0.35,-0.4 -0.45,-0.4 -0.9,-0.65 -1.45,-0.7 0.1,0.05 0.2,0.15 0.3,0.25 0.15,0.1 0.25,0.2 0.35,0.35 0.05,0.05 0.15,0.1 0.25,0.15 0.3,0.2 0.6,0.45 0.9,0.75 0.25,0.25 0.55,0.5 0.85,0.8 -0.25,-0.25 -0.55,-0.5 -0.85,-0.7 0.25,0.35 0.55,0.8 0.9,1.35 0.45,0.75 1,1.4 1.55,2 0.45,0.6 0.95,1.3 1.5,2.1 z"
           inkscape:connector-curvature="0"
           style="fill:#663300" />
      </g>
      <animate
         attributeName="display"
         begin="0s"
         repeatCount="indefinite"
         dur="0.167s"
         keyTimes="0;0.399;0.798;1"
         values="none;inline;none;none"
         id="animate16" />
    </g>
    <g
       id="backArmLowerLeft2_0">
      <g
         id="element">
        <path
           id="path"
           d="m 2.5,-2.9 q -0.777,-1.607 -1.825,-3 l 0.025,0 c -0.8,-1.25 -1.7,-2.4 -2.65,-3.5 -0.2,-0.45 -0.45,-0.8 -0.75,-1.15 -0.7,-0.85 -1.45,-1.25 -2.3,-1.3 0.6,0.35 1.1,0.85 1.5,1.5 0.3,0.2 0.6,0.45 0.9,0.7 0.3,0.65 0.75,1.3 1.4,1.85 0.3,0.65 0.75,1.3 1.35,1.95 0.9,0.9 1.6,1.9 2.1,2.95 0.25,1.05 0.3,2.2 0.15,3.35 C 2,1 1.4,1.4 0.6,1.55 -0.45,1.75 -1.35,1.65 -2.15,1.3 -2.6,0.6 -3.1,-0.05 -3.7,-0.6 -4.1,-1 -4.5,-1.4 -4.9,-1.75 -5.1,-2.1 -5.35,-2.4 -5.6,-2.7 -6.15,-3.3 -6.65,-3.9 -7.15,-4.55 -7.5,-5.2 -7.8,-5.85 -8.05,-6.5 -8.2,-6.85 -8.35,-7.25 -8.4,-7.6 c -0.25,-0.35 -0.4,-0.8 -0.45,-1.35 0,-0.05 0,-0.05 0,-0.1 -0.05,0.35 -0.1,0.65 -0.05,1 0.05,1 0.3,1.85 0.8,2.6 0.15,0.35 0.3,0.65 0.55,1 0.15,0.25 0.3,0.45 0.45,0.65 0.3,0.5 0.65,1.05 1.1,1.6 0.55,0.75 1.2,1.4 1.85,1.95 -0.05,0.05 -0.05,0.05 0,0.1 0.85,1.4 2.1,2.2 3.7,2.35 C 0.8,2.35 1.65,2.1 2.15,1.55 2.1,1.65 2.1,1.75 2.05,1.85 2.65,1.1 2.95,0.3 3,-0.55 3,-0.4 3,-0.2 3.05,-0.05 3.15,-1.05 2.95,-2 2.5,-2.9 z"
           inkscape:connector-curvature="0"
           style="fill:#663300" />
        <path
           id="path1"
           d="M 2.25,-2.9 C 1.75,-3.95 1.05,-4.95 0.15,-5.85 -0.45,-6.5 -0.9,-7.15 -1.2,-7.8 -1.85,-8.35 -2.3,-9 -2.6,-9.65 c -0.3,-0.25 -0.6,-0.5 -0.9,-0.7 -0.4,-0.65 -0.9,-1.15 -1.5,-1.5 -0.65,-0.05 -1.35,0.2 -2.1,0.7 -0.25,0.15 -0.55,0.35 -0.8,0.5 -0.15,0.1 -0.25,0.2 -0.3,0.3 0.1,-0.25 0.2,-0.45 0.3,-0.65 -0.55,0.55 -0.85,1.2 -0.95,1.95 l -0.025,-0.025 0,0.025 0.025,0 c 0,0.05 0,0.05 0,0.1 0.05,0.55 0.2,1 0.45,1.35 0.05,0.35 0.2,0.75 0.35,1.1 0.25,0.65 0.55,1.3 0.9,1.95 0.5,0.65 1,1.25 1.55,1.85 0.25,0.3 0.5,0.6 0.7,0.95 0.4,0.35 0.8,0.75 1.2,1.15 0.6,0.55 1.1,1.2 1.55,1.9 0.8,0.35 1.7,0.45 2.75,0.25 C 1.4,1.4 2,1 2.4,0.45 2.55,-0.7 2.5,-1.85 2.25,-2.9 z"
           inkscape:connector-curvature="0"
           style="fill:#ffffcc" />
      </g>
      <animate
         attributeName="display"
         begin="0s"
         repeatCount="indefinite"
         dur="0.167s"
         keyTimes="0;0.399;1"
         values="inline;none;none"
         id="animate22" />
    </g>
  </g>
</svg>
