<?xml version="1.0" encoding="UTF-8" standalone="no"?>
<!-- Generator: flash2svg, http://dissentgraphics.com/tools/flash2svg -->

<svg
   xmlns:dc="http://purl.org/dc/elements/1.1/"
   xmlns:cc="http://creativecommons.org/ns#"
   xmlns:rdf="http://www.w3.org/1999/02/22-rdf-syntax-ns#"
   xmlns:svg="http://www.w3.org/2000/svg"
   xmlns="http://www.w3.org/2000/svg"
   xmlns:sodipodi="http://sodipodi.sourceforge.net/DTD/sodipodi-0.dtd"
   xmlns:inkscape="http://www.inkscape.org/namespaces/inkscape"
   id="Avatar"
   image-rendering="auto"
   version="1.1"
   x="0px"
   y="0px"
   width="21.340569"
   height="43.502083"
   viewBox="0 0 21.340569 43.502083"
   inkscape:version="0.48.4 r9939"
   sodipodi:docname="Avatar_sideTorso2.svg">
  <metadata
     id="metadata3425">
    <rdf:RDF>
      <cc:Work
         rdf:about="">
        <dc:format>image/svg+xml</dc:format>
        <dc:type
           rdf:resource="http://purl.org/dc/dcmitype/StillImage" />
      </cc:Work>
    </rdf:RDF>
  </metadata>
  <sodipodi:namedview
     pagecolor="#ffffff"
     bordercolor="#666666"
     borderopacity="1"
     objecttolerance="10"
     gridtolerance="10"
     guidetolerance="10"
     inkscape:pageopacity="0"
     inkscape:pageshadow="2"
     inkscape:window-width="640"
     inkscape:window-height="480"
     id="namedview3423"
     showgrid="false"
     fit-margin-top="0"
     fit-margin-left="0"
     fit-margin-right="0"
     fit-margin-bottom="0"
     inkscape:zoom="1.8730159"
     inkscape:cx="34.0304"
     inkscape:cy="-29.065714"
     inkscape:window-x="0"
     inkscape:window-y="0"
     inkscape:window-maximized="0"
     inkscape:current-layer="Avatar" />
  <defs
     id="defs3401" />
  <g
     id="sideTorso3"
     overflow="visible"
     transform="translate(9.6405694,40)"
     style="overflow:visible">
    <g
       id="sideTorso2_4">
      <g
         id="element2">
        <path
           id="path45"
           d="m 5.35,-38.6 c -0.05,0.1 -0.1,0.2 -0.15,0.35 l -1.95,-0.9 c -0.9,-0.05 -1.8,-0.05 -2.7,-0.1 -0.65,-0.05 -1.3,-0.15 -1.95,-0.3 l -0.025,0 0.025,0 c -0.05,-0.05 -0.05,-0.05 -0.05,-0.1 0,0.05 0,0.05 0,0.1 -0.15,0.05 -0.2,0.15 -0.15,0.3 0,0.25 0.05,0.55 0.1,0.8 0.05,-0.05 0.05,-0.05 0.1,-0.05 -0.05,1.4 -0.35,2.75 -0.9,4.1 -0.15,0.25 -0.3,0.5 -0.5,0.7 -1.4,1.15 -2.3,2.55 -2.75,4.15 -0.05,0.15 -0.15,0.3 -0.2,0.45 -1.25,2.85 -1.75,5.75 -1.6,8.6 -0.45,3.45 -1.05,6.95 -1.8,10.4 -0.25,1 -0.3,1.9 -0.15,2.7 -0.05,0.15 -0.05,0.35 -0.05,0.55 -0.05,0.9 -0.05,1.8 0.05,2.7 0.05,0.55 0.2,1.1 0.35,1.6 -0.25,-0.45 -0.45,-0.9 -0.6,-1.35 0,0.6 0.2,1.25 0.6,1.9 0.15,0.25 0.35,0.55 0.5,0.8 0.7,1.35 1.8,2.3 3.25,2.95 0.9,0.45 1.9,0.8 3.05,1 C 0.4,3.7 3,3.75 5.7,2.9 6.25,2.75 6.6,2.5 6.85,2.25 6.9,2.2 6.9,2.2 6.95,2.2 8.4,1.65 9.4,0.6 9.95,-0.9 c 1.1,-1.85 1.5,-3.9 1.25,-6.15 0,-0.25 0,-0.55 0,-0.8 0,-2.05 -0.1,-4.05 -0.3,-6.05 -0.05,0.25 -0.05,0.55 -0.1,0.85 0,-0.15 0,-0.3 0,-0.45 0,-0.75 -0.05,-1.5 -0.15,-2.25 -0.05,-0.15 -0.05,-0.35 -0.05,-0.5 0,0.05 0,0.05 0,0.1 -0.15,-0.9 -0.35,-1.8 -0.6,-2.65 0,0.05 0,0.05 0,0.1 -0.05,-0.25 -0.1,-0.45 -0.15,-0.65 0,-0.05 0,-0.1 -0.05,-0.15 -0.25,-1.05 -0.5,-2.05 -0.8,-3 -0.25,-0.75 -0.5,-1.45 -0.75,-2.1 -0.05,-0.15 -0.1,-0.25 -0.15,-0.4 0,0.05 0,0.05 0,0.1 -0.35,-0.85 -0.8,-1.7 -1.25,-2.5 -0.35,-1 -0.75,-2 -1.2,-3 -0.55,-1.25 -0.9,-2.55 -0.95,-3.85 0,-0.1 0,-0.2 0,-0.3 0,-0.5 0.05,-1 0.1,-1.5 l -0.025,0 0.025,-0.2 c 0,-0.05 0,-0.1 0.05,-0.15 0.05,-0.15 0.05,-0.25 0.1,-0.4 0.1,-0.35 0.15,-0.75 0.2,-1.1 0.05,-0.25 0.15,-0.45 0.25,-0.7 l 0.05,-0.15 c -0.05,0.05 -0.05,0.1 -0.05,0.15 -0.05,-0.05 -0.15,-0.05 -0.2,-0.1 0,-0.15 0,-0.25 0,-0.4 -0.05,0.1 -0.1,0.2 -0.15,0.35 m 1.8,24 c -0.05,-0.35 -0.1,-0.75 -0.15,-1.1 0,0.05 0,0.15 0,0.25 0,0.05 0,0.15 0,0.2 l 0,-0.025 0,0.225 c 0,0.75 0,1.5 0.05,2.3 0.15,2.15 0.05,4.2 -0.2,6.15 C 3.9,-6.5 1.3,-6.5 -1.3,-6.8 c 1.15,0.25 2.4,0.4 3.65,0.45 0.35,0.05 0.75,0.05 1.15,0.05 -0.4,0 -0.8,0 -1.15,0 -0.2,-0.05 -0.4,-0.05 -0.65,-0.05 -1,-0.05 -2,-0.15 -3,-0.25 -2.4,-0.3 -4.75,-0.8 -7.05,-1.45 0.4,0.25 1,0.5 1.75,0.7 0.95,0.25 1.85,0.45 2.8,0.65 1.55,0.3 3.1,0.5 4.65,0.6 1.5,0.05 3,-0.05 4.5,-0.2 0.35,-0.05 0.75,-0.05 1.1,-0.1 l 0,-0.025 0.025,0 L 6.5,-6.4 c -0.05,0.05 -0.05,0.1 -0.05,0.15 -0.35,0.05 -0.75,0.05 -1.1,0.1 -1.5,0.1 -3,0.15 -4.5,0.15 -0.35,0 -0.75,0 -1.1,0 1.2,0.2 2.45,0.25 3.75,0.2 1.15,-0.05 2.25,-0.15 3.3,-0.3 -0.2,1.4 -0.35,2.75 -0.45,4.05 0.35,-1.35 0.6,-2.7 0.75,-4.1 0.65,-0.1 1.35,-0.25 2,-0.4 -0.2,0 -0.4,0 -0.6,0.05 -0.45,0.05 -0.9,0.15 -1.35,0.2 l -0.05,-0.025 0.05,0 L 7.1,-6.3 c 0,-0.05 0,-0.15 0.05,-0.2 1.15,-0.15 2.25,-0.35 3.3,-0.65 -0.6,0.05 -1.2,0.1 -1.8,0.15 -0.5,0.05 -1,0.15 -1.5,0.2 0.2,-2.65 0.1,-5.3 -0.3,-7.95 z m -0.35,8.5 c 0,-0.05 0,-0.1 0,-0.15 0.1,-0.05 0.2,-0.05 0.3,-0.05 0,0.05 0,0.1 0,0.15 -0.1,0 -0.2,0 -0.3,0.05 z m 0.35,-0.5 c -0.1,0 -0.2,0 -0.3,0 0.15,-0.85 0.3,-1.65 0.35,-2.45 0.1,-1 0.15,-2 0.1,-2.95 0.15,1.75 0.1,3.55 -0.15,5.35 l 0,0.025 z M 5.35,-38.6 c -0.05,0.1 -0.1,0.2 -0.15,0.35 0,-0.15 0,-0.25 0,-0.3 0.05,-0.05 0.1,-0.05 0.15,-0.05 z m 5.05,24 c -0.15,-0.8 -0.25,-1.6 -0.4,-2.35 0.15,0.65 0.25,1.3 0.4,1.95 0,0.15 0,0.25 0,0.4 z"
           inkscape:connector-curvature="0"
           style="fill:#663300" />
        <path
           id="path47"
           d="m 4.8,-38.1 q 0.053,-0.158 0.1,-0.3 c -1.85,-0.05 -3.7,-0.3 -5.55,-0.7 -0.35,-0.1 -0.55,-0.2 -0.65,-0.25 0,0.15 0,0.3 0,0.5 0.45,2.65 -0.35,4.95 -2.4,6.9 -1.4,2.2 -2.35,4.65 -2.85,7.3 -0.05,0.1 -0.05,0.2 -0.05,0.35 -0.15,3.95 -0.6,7.9 -1.45,11.75 -0.3,1.35 -0.55,2.65 -0.8,4 -0.3,2.1 -0.15,4.2 0.45,6.25 0.2,0.75 0.55,1.35 1,1.9 0.7,0.7 1.55,1.3 2.55,1.75 0.15,0.05 0.35,0.15 0.5,0.25 l 0,-0.025 0.075,0.025 0.05,0.025 0.025,0.025 c 0.05,0 0.1,0 0.15,0.05 0.15,0.05 0.3,0.15 0.45,0.2 2.05,0.65 4.1,1 6.2,1 C 3,2.95 3.4,2.95 3.75,3 3.8,2.95 3.8,2.95 3.85,3 L 3.825,2.975 3.75,2.8 c 4.45,-1.05 6.85,-3.8 7.2,-8.35 0,-0.05 0,-0.1 0,-0.15 C 10.9,-6.35 10.9,-7 10.9,-7.65 10.65,-9.5 10.5,-11.4 10.35,-13.3 10.15,-14.15 10,-15 9.85,-15.95 9.75,-16.6 9.75,-17.15 9.8,-17.7 9.4,-19.1 9,-20.5 8.55,-21.95 8.4,-22.4 8.3,-22.9 8.25,-23.35 7.9,-24.1 7.55,-24.9 7.2,-25.65 6.85,-26.5 6.55,-27.3 6.3,-28.05 5.4,-29.6 4.85,-31.3 4.65,-33.15 c 0,-0.05 0,-0.05 0,-0.05 -0.05,0 -0.05,0 -0.05,0.05 l -0.125,0 0.025,0 c 0,0.15 0,0.25 0,0.4 0.1,0.75 0.2,1.45 0.3,2.15 -0.65,-1.5 -0.85,-3.15 -0.7,-4.9 0.05,-0.55 0.2,-1.1 0.45,-1.55 0.05,-0.35 0.1,-0.7 0.25,-1.05 z M 5.35,-6.3 C 5.7,-6.35 6.1,-6.35 6.45,-6.4 l 0,-0.025 0.025,0 L 6.5,-6.4 C 6.45,-6.35 6.45,-6.3 6.45,-6.25 6.1,-6.2 5.7,-6.2 5.35,-6.15 l -0.025,-0.025 0,-0.15 z m -3,-0.05 C 2.7,-6.3 3.1,-6.3 3.5,-6.3 c -0.4,0 -0.8,0 -1.15,0 l 0,-0.025 0,-0.025 z"
           inkscape:connector-curvature="0"
           style="fill:#ffffcc" />
      </g>
      <animate
         attributeName="display"
         begin="0s"
         repeatCount="indefinite"
         dur="0.167s"
         keyTimes="0;0.798;1"
         values="none;inline;none"
         id="animate3408" />
    </g>
    <g
       id="sideTorso2_2">
      <g
         id="element1">
        <path
           id="path19"
           d="m 5.1,-38.95 c -0.05,0.05 -0.15,0.15 -0.2,0.3 -0.45,-0.3 -0.95,-0.45 -1.55,-0.5 -1,-0.1 -2,-0.2 -3,-0.3 -0.25,-0.15 -0.6,-0.2 -1.05,-0.15 -0.15,0 -0.3,0 -0.45,0.05 -0.05,-0.05 -0.15,-0.05 -0.2,-0.05 -0.05,0 -0.1,0 -0.15,0 l -0.025,0 0.025,0 c -0.05,-0.05 -0.05,-0.15 -0.1,-0.2 0,0.05 0,0.15 0.05,0.2 l -0.05,0 c 0,0.05 0,0.05 -0.05,0.05 -0.05,0 -0.05,0 -0.05,0.05 0,0.05 0,0.05 0,0.1 0.05,0.05 0.15,0.05 0.2,0.1 0,0.05 0,0.1 0.05,0.15 -0.05,0.05 -0.05,0.15 -0.05,0.2 0,0.3 0.05,0.55 0.1,0.8 -0.05,1.35 -0.45,2.65 -1.25,3.9 -0.85,1.3 -1.7,2.45 -2.55,3.5 0.15,-0.1 0.35,-0.2 0.5,-0.35 -0.15,0.3 -0.35,0.6 -0.5,0.9 -1,2.05 -1.6,4.2 -1.8,6.35 -0.15,0.65 -0.25,1.3 -0.3,1.95 -0.3,3.15 -0.7,6.3 -1.25,9.45 0.05,-0.2 0.15,-0.4 0.25,-0.6 -0.3,1.7 -0.6,3.4 -0.85,5.05 0.05,-0.2 0.15,-0.4 0.25,-0.6 -0.25,1 -0.4,2 -0.5,3.05 -0.35,3.35 0.85,5.75 3.6,7.25 -0.6,-0.55 -1.15,-1.1 -1.6,-1.75 1.25,1.25 2.7,2.1 4.35,2.5 0.8,0.3 1.65,0.55 2.55,0.75 2.45,0.55 4.65,0.35 6.7,-0.65 1.85,-0.55 3.2,-1.7 4,-3.45 -0.05,0 -0.1,0 -0.1,0.05 -0.1,0.15 -0.2,0.25 -0.3,0.4 0.65,-1 1.05,-2.1 1.2,-3.25 0.25,-0.85 0.4,-1.65 0.45,-2.45 C 11.4,-6.1 11.4,-6 11.4,-5.95 11.45,-6.3 11.45,-6.7 11.45,-7.05 11.5,-7.1 11.6,-7.1 11.7,-7.15 11.65,-7.2 11.65,-7.2 11.6,-7.25 11.55,-7.3 11.5,-7.3 11.45,-7.3 11.4,-7.65 11.35,-8 11.3,-8.35 c 0.15,-1.9 0,-3.75 -0.55,-5.55 0,-0.35 0,-0.75 -0.05,-1.1 -0.05,-1.35 -0.25,-2.7 -0.6,-3.95 -0.05,-0.35 -0.15,-0.7 -0.2,-1.05 -0.15,-0.45 -0.25,-0.85 -0.4,-1.3 -0.05,-0.15 -0.05,-0.25 -0.1,-0.4 0.05,0.15 0.15,0.35 0.25,0.5 -0.25,-1.15 -0.7,-2.2 -1.35,-3.2 -0.3,-0.5 -0.6,-1 -0.9,-1.5 -0.45,-0.85 -0.9,-1.75 -1.25,-2.6 0,0.05 0,0.05 0.05,0.1 -0.15,-1 -0.35,-2 -0.7,-3 -0.75,-2.25 -0.85,-4.5 -0.4,-6.8 -0.05,0.15 -0.1,0.25 -0.15,0.4 0.05,-0.15 0.05,-0.35 0.1,-0.5 0.1,0 0.2,0 0.35,0 -0.1,-0.1 -0.2,-0.2 -0.3,-0.25 0,-0.15 0,-0.25 0,-0.4 z m -6.3,32.6 C -2.1,-6.5 -3,-6.6 -3.85,-6.75 -1.7,-6.2 0.5,-6 2.75,-6.05 1.4,-6.1 0.1,-6.2 -1.2,-6.35 z"
           inkscape:connector-curvature="0"
           style="fill:#663300" />
        <path
           id="path20"
           d="M 0.425,-39.15 Q 0.324,-39.1 0.2,-39.1 c -0.45,0.05 -0.9,0 -1.3,-0.1 0.05,0.35 0.05,0.65 0,1 -0.05,0.15 -0.05,0.25 -0.05,0.35 0.15,1.7 -0.4,3.3 -1.65,4.85 -0.35,0.45 -0.7,0.85 -1.1,1.2 -0.95,1.85 -1.7,3.85 -2.2,5.95 -0.1,0.4 -0.2,0.8 -0.3,1.25 -0.3,2.65 -0.65,5.3 -1.05,8 -0.05,0.35 -0.15,0.75 -0.2,1.1 -0.15,1.35 -0.3,2.65 -0.5,4 0,-0.05 0,-0.05 0,-0.1 -0.05,0.05 -0.05,0.15 -0.05,0.25 -0.05,0.3 -0.1,0.6 -0.15,0.9 -0.45,2.45 -0.55,4.9 -0.3,7.4 0.05,0.65 0.25,1.25 0.5,1.85 1,1.4 2.35,2.35 4,2.85 0.45,0.15 0.85,0.3 1.2,0.5 1.65,0.45 3.35,0.65 5.15,0.7 0.25,0 0.5,0 0.75,0 l 0,-0.1 c 1.1,-0.1 2.2,-0.3 3.35,-0.6 1.75,-0.95 3,-2.35 3.85,-4.1 L 10,-2.05 c 0.35,-0.95 0.6,-1.9 0.75,-2.9 l 0,-0.025 -0.2,-0.075 C 10.6,-5.7 10.7,-6.3 10.75,-6.9 10.6,-6.85 10.5,-6.85 10.4,-6.8 l 0,-0.025 0,0.025 c -1.05,0.35 -2.15,0.6 -3.25,0.75 -0.05,0.4 -0.1,0.8 -0.15,1.2 -0.2,1.4 -0.5,2.75 -0.95,4 C 6.2,-1.6 6.3,-2.35 6.4,-3.1 6.35,-2.85 6.25,-2.65 6.15,-2.4 6.3,-3.05 6.45,-3.75 6.55,-4.4 6.6,-4.95 6.65,-5.45 6.7,-5.95 5.55,-5.8 4.4,-5.7 3.25,-5.7 0.3,-5.65 -2.4,-6.1 -4.85,-6.95 -5.15,-7 -5.45,-7.05 -5.7,-7.1 c 0.25,0.05 0.5,0.1 0.75,0.15 -0.5,-0.15 -0.95,-0.35 -1.4,-0.55 0.65,0.25 1.3,0.45 1.95,0.6 3.7,0.55 7.4,0.6 11.15,0.25 0.05,-1.05 0.1,-2.15 0.1,-3.2 0.05,-1.4 0.05,-2.7 0,-3.95 l 0.075,-0.025 0.025,0.025 c -0.05,-0.55 -0.05,-1.05 -0.1,-1.5 0.25,1.7 0.35,3.4 0.4,5.05 0.05,1.15 0,2.35 -0.05,3.55 0.65,-0.1 1.35,-0.2 2,-0.3 0.55,-0.05 1.05,-0.15 1.55,-0.25 0.1,-1.4 0.1,-2.8 0,-4.2 0,-0.1 0,-0.2 0,-0.3 l 0,-0.025 -0.2,0.025 c -0.25,-2.35 -0.6,-4.65 -1,-6.95 -0.1,-0.6 -0.2,-1.2 -0.3,-1.75 C 8.95,-21.1 8.7,-21.8 8.45,-22.5 L 8.425,-22.525 8.3,-22.5 c -0.85,-1.7 -1.65,-3.45 -2.45,-5.25 -0.35,-0.85 -0.6,-1.7 -0.65,-2.45 0.05,0.15 0.15,0.35 0.25,0.55 C 5.35,-29.9 5.3,-30.2 5.25,-30.45 4.7,-32 4.4,-33.6 4.45,-35.3 c 0,-0.55 0.05,-1.1 0.2,-1.6 -0.15,0.3 -0.3,0.6 -0.5,0.85 0.05,-0.65 0.2,-1.35 0.45,-2 0.05,-0.1 0.1,-0.2 0.15,-0.3 -1.05,-0.1 -2.1,-0.3 -3.25,-0.55 -0.35,-0.1 -0.7,-0.2 -1.05,-0.25"
           inkscape:connector-curvature="0"
           style="fill:#ffffcc" />
        <path
           id="path43"
           d="M -1.2,-6.35 C -2.1,-6.5 -3,-6.6 -3.85,-6.75 -1.7,-6.2 0.5,-6 2.75,-6.05 1.4,-6.1 0.1,-6.2 -1.2,-6.35 z"
           inkscape:connector-curvature="0"
           style="fill:#ffffcc" />
      </g>
      <animate
         attributeName="display"
         begin="0s"
         repeatCount="indefinite"
         dur="0.167s"
         keyTimes="0;0.399;0.798;1"
         values="none;inline;none;none"
         id="animate3415" />
    </g>
    <g
       id="sideTorso2_0">
      <g
         id="element">
        <path
           id="path"
           d="m 5.2,-38.9 c -0.05,0.05 -0.05,0.15 -0.05,0.25 l -2.2,-0.3 c -1.75,-0.15 -3.4,-0.5 -5,-1.05 0.05,0.25 0.25,0.45 0.6,0.65 -0.05,0.15 -0.1,0.35 -0.1,0.6 0.1,0.95 0,1.8 -0.35,2.6 -0.4,0.95 -0.75,1.9 -1.05,2.85 l -0.025,-0.025 0,0.025 0.025,0 c -0.2,0.25 -0.4,0.55 -0.6,0.8 -0.05,0.05 -0.05,0.1 -0.1,0.15 0.1,-0.25 0.2,-0.45 0.3,-0.7 -0.35,0.65 -0.7,1.25 -1.05,1.9 -0.65,1.05 -1.2,2.1 -1.7,3.2 0.05,-0.05 0.15,-0.1 0.25,-0.15 -0.8,1.95 -1.25,3.9 -1.35,5.95 -0.15,0.15 -0.25,0.4 -0.3,0.7 -0.15,1 -0.25,2 -0.3,3 -0.25,2.45 -0.6,4.9 -1.1,7.35 -0.1,0.55 -0.2,1.05 -0.35,1.55 -0.1,0.45 -0.2,0.95 -0.25,1.4 -0.15,1.15 -0.2,2.2 -0.05,3.2 0,0.25 0.05,0.5 0.1,0.75 0,0.15 0,0.25 0,0.4 0.15,2.55 1.4,4.5 3.65,5.75 C -6.2,1.5 -6.6,1 -7,0.5 c 0.05,0.05 0.15,0.15 0.25,0.2 1.85,1.4 3.9,2.2 6.2,2.45 C 1.8,3.7 4.1,3.5 6.25,2.55 6.3,2.5 6.35,2.5 6.4,2.5 7.25,2.3 8,1.85 8.65,1.1 8.75,1 8.85,0.9 8.95,0.8 c 0.6,-0.6 1.05,-1.3 1.4,-2.05 -0.1,0.15 -0.2,0.3 -0.3,0.45 0.85,-1.55 1.2,-3.2 1.15,-5.05 0.2,-1.2 0.2,-2.4 -0.05,-3.6 -0.05,-2.15 -0.25,-4.3 -0.6,-6.4 0.05,-0.55 0.05,-1.15 0,-1.75 -0.1,-1.85 -0.55,-3.55 -1.4,-5.1 C 9.1,-22.95 9,-23.15 8.9,-23.4 c -0.25,-0.65 -0.6,-1.25 -0.95,-1.8 -0.8,-1.15 -1.45,-2.4 -2,-3.65 -0.05,-0.2 -0.15,-0.4 -0.2,-0.55 -0.2,-0.75 -0.4,-1.55 -0.55,-2.3 -0.35,-1.45 -0.45,-2.85 -0.3,-4.25 0.05,-0.75 0.2,-1.5 0.35,-2.25 0.15,-0.05 0.3,-0.05 0.45,-0.05 0.05,-0.05 0.05,-0.1 0,-0.15 -0.15,-0.05 -0.25,-0.05 -0.35,-0.1 0,-0.1 0,-0.2 0.05,-0.25 -0.05,0.05 -0.05,0.15 -0.1,0.25 -0.05,-0.05 -0.05,-0.05 -0.1,-0.05 0,-0.05 0,-0.1 0,-0.15 l -0.025,0.025 0.025,0.025 c 0,-0.1 0,-0.2 0,-0.25 z M -8.95,-10 c 0.05,-0.15 0.15,-0.35 0.25,-0.5 -0.1,0.7 -0.2,1.4 -0.3,2.1 0,-0.55 0,-1.05 0.05,-1.6 z"
           inkscape:connector-curvature="0"
           style="fill:#663300" />
        <path
           id="path2"
           d="m 4.75,-38.225 0,0.025 c -1.95,-0.05 -3.85,-0.35 -5.7,-0.95 -0.15,-0.05 -0.3,-0.15 -0.45,-0.2 0.35,1.8 0.1,3.45 -0.75,5 0,0 0,0 0,0.05 -0.05,0.1 -0.15,0.2 -0.2,0.3 -0.6,1.4 -1.35,2.8 -2.25,4.15 -0.05,0.05 -0.05,0.1 -0.1,0.15 -0.6,1.65 -1.15,3.3 -1.6,5 -0.2,0.65 -0.35,1.35 -0.5,2 0,0.05 0,0.15 -0.05,0.25 -0.15,1.55 -0.35,3.1 -0.5,4.65 l -0.05,0.575 0,0.025 c -0.1,1.3 -0.25,2.6 -0.45,3.95 -0.05,0.45 -0.15,0.9 -0.3,1.35 -0.15,1.5 -0.4,3 -0.65,4.55 -0.1,0.45 -0.15,0.9 -0.2,1.35 0.05,0.7 0.1,1.4 0.15,2.15 0.15,1.15 0.5,2.15 1.1,3.05 l -0.175,0.1 0.025,0 c 0.05,0.15 0.15,0.3 0.3,0.45 l 0.075,-0.025 0.025,0.025 c -0.05,-0.05 -0.05,-0.15 -0.05,-0.2 1.65,1.55 3.6,2.45 5.9,2.7 1.1,0.15 2.1,0.4 3,0.75 C 3.1,2.95 4.75,2.6 6.35,1.9 6.7,1.75 7,1.55 7.35,1.3 7.45,1.25 7.55,1.2 7.65,1.15 L 7.675,1.175 7.7,1.2 C 9.05,0.05 9.95,-1.4 10.45,-3.15 L 10.4,-3.2 c 0.05,-1.05 0.15,-2.15 0.3,-3.25 -0.1,0.15 -0.2,0.35 -0.25,0.5 0.05,-0.35 0.05,-0.7 0.1,-1.05 -1.1,0.35 -2.2,0.65 -3.35,0.85 -0.05,0.5 -0.15,1 -0.25,1.55 C 6.7,-3.35 6.35,-2.1 5.9,-0.95 6.1,-1.7 6.3,-2.45 6.45,-3.2 6.25,-2.45 6,-1.75 5.7,-1.1 c 0.35,-1.65 0.65,-3.3 0.85,-4.95 -2.05,0.25 -4.15,0.25 -6.3,0 -1.75,-0.1 -3.45,-0.3 -5.1,-0.6 1.1,0.15 2.2,0.25 3.3,0.3 -1.65,-0.3 -3.25,-0.65 -4.8,-1.05 -0.4,-0.1 -0.7,-0.2 -0.85,-0.3 3.45,0.8 7,1.25 10.6,1.3 1.05,-0.05 2.15,-0.2 3.2,-0.35 0.15,-1.5 0.2,-3 0.2,-4.5 0,-0.25 0,-0.45 0,-0.65 -0.05,-0.35 -0.15,-0.7 -0.2,-1.05 0.05,0.25 0.15,0.55 0.2,0.8 0,-1.25 0,-2.45 0.05,-3.6 0.25,2 0.4,4.05 0.35,6.1 0.1,0.9 0.1,1.85 0.05,2.8 C 7.5,-6.9 7.8,-6.95 8.05,-7 8.8,-7.15 9.6,-7.3 10.35,-7.4 l 0.225,0 0.025,0 c 0.1,-2.15 0.05,-4.3 -0.2,-6.45 -0.05,-0.7 -0.1,-1.35 -0.15,-2 -0.05,-0.6 -0.15,-1.2 -0.25,-1.8 0,0.85 -0.05,1.65 -0.2,2.5 0.1,-3.25 -0.45,-6.25 -1.7,-9.05 -0.35,-0.8 -0.8,-1.6 -1.25,-2.35 0.35,0.8 0.7,1.6 1.15,2.4 -1.05,-1.45 -1.9,-3 -2.45,-4.65 C 5.5,-28.9 5.45,-29 5.4,-29.1 5,-29.95 4.8,-30.75 4.75,-31.6 c -0.3,-1.3 -0.4,-2.7 -0.25,-4.15 0.05,-0.55 0.15,-1.05 0.3,-1.55 -0.15,0.2 -0.25,0.35 -0.35,0.45 -0.05,-0.4 0.05,-0.85 0.3,-1.35"
           inkscape:connector-curvature="0"
           style="fill:#ffffcc" />
      </g>
      <animate
         attributeName="display"
         begin="0s"
         repeatCount="indefinite"
         dur="0.167s"
         keyTimes="0;0.399;1"
         values="inline;none;none"
         id="animate3421" />
    </g>
  </g>
</svg>
