<?xml version="1.0" encoding="utf-8"?>
<!-- Generator: flash2svg, http://dissentgraphics.com/tools/flash2svg -->
<svg xmlns:xlink="http://www.w3.org/1999/xlink" id="Avatar" image-rendering="auto" baseProfile="basic" version="1.1" x="0px" y="0px" width="68" height="126" xmlns="http://www.w3.org/2000/svg" viewBox="0 0 68 126">
  <defs/>
  <g id="sideArmLowerClose3" overflow="visible">
    <g id="sideArmLowerClose2_4">
      <g id="element2">
        <path id="path8" fill="#630" d="M-0.425,-1.125 Q-0.357,-1.188 -0.3,-1.25 L-0.35,-1.3 C-1.15,-0.75 -1.7,-0.1 -2.05,0.65 -2.05,0.6 -2.05,0.5 -2,0.45 L-2.05,0.45 C-2.95,1.7 -3.45,3.05 -3.6,4.5 -3.8,5.35 -3.9,6.15 -3.95,7 -4.2,7.85 -4.3,8.8 -4.3,9.75 -4.4,10.25 -4.45,10.75 -4.4,11.25 -4.45,11.25 -4.5,11.3 -4.5,11.45 -4.4,12.4 -4.1,13.25 -3.65,13.9 -3.65,13.9 -3.65,13.9 -3.6,13.95 -3.65,13.85 -3.65,13.75 -3.65,13.65 -3.8,13.5 -3.85,13.3 -3.75,13.05 -3.7,13.2 -3.6,13.35 -3.5,13.5 -3.65,13.35 -3.75,13.15 -3.8,13 -4,12.25 -4.1,11.45 -4.1,10.7 -3.95,9.55 -3.85,8.35 -3.7,7.2 -3.5,5.65 -3.25,4.2 -2.9,2.8 -2.65,2.1 -2.4,1.45 -2.15,0.8 -2.25,1.05 -2.35,1.35 -2.4,1.7 L-2.35,1.65 C-1.9,0.85 -1.45,0.15 -0.9,-0.5 -0.45,-0.75 0,-0.95 0.45,-1.05 1.3,-0.35 1.8,0.55 2,1.6 2.05,0.7 1.75,-0.1 1,-0.75 0.85,-0.9 0.65,-1 0.5,-1.05 L0.475,-1.05 L0.525,-1.05 L0.55,-1.05 C1.2,-0.8 1.65,-0.3 1.9,0.45 L1.875,0.425 L1.85,0.4 C1.9,0.55 1.9,0.65 1.95,0.75 2.2,1.5 2.4,2.25 2.55,2.95 2.6,3.5 2.7,4.05 2.75,4.6 L2.725,4.575 L2.7,4.65 C2.5,5.9 2.5,7.2 2.65,8.5 2.6,8.8 2.6,9.1 2.6,9.4 2.5,10.2 2.5,11 2.55,11.8 2.6,11.8 2.6,11.8 2.65,11.85 2.7,11.85 2.7,11.85 2.75,11.9 2.8,12 2.8,12.1 2.8,12.25 2.8,11.5 2.8,10.8 2.85,10.15 2.9,9.15 2.95,8.15 2.9,7.2 2.9,6.3 2.9,5.4 2.9,4.55 2.95,3.95 2.9,3.35 2.8,2.8 2.75,2.2 2.6,1.6 2.4,1.05 2.3,0.7 2.15,0.4 2,0.1 1.9,-0.35 1.65,-0.75 1.2,-1.1 1.15,-1.15 1.05,-1.15 0.95,-1.2 0.6,-1.35 0.35,-1.4 0.1,-1.25 -0.1,-1.25 -0.25,-1.2 -0.4,-1.1 M2,0.55 C2.05,0.65 2.1,0.75 2.15,0.9 2.15,0.95 2.15,0.95 2.15,1 2.1,0.85 2.05,0.75 2,0.6 L1.975,0.6 L1.975,0.55z"/>
        <path id="path12" fill="#FFC" d="M0.5,-1.05 C0.65,-1 0.85,-0.9 1,-0.75 1.75,-0.1 2.05,0.7 2,1.6 1.8,0.55 1.3,-0.35 0.45,-1.05 0,-0.95 -0.45,-0.75 -0.9,-0.5 -1.45,0.15 -1.9,0.85 -2.35,1.65 L-2.4,1.7 C-2.35,1.35 -2.25,1.05 -2.15,0.8 -2.4,1.45 -2.65,2.1 -2.9,2.8 -3.25,4.2 -3.5,5.65 -3.7,7.2 -3.85,8.35 -3.95,9.55 -4.1,10.7 -4.1,11.45 -4,12.25 -3.8,13 -3.75,13.15 -3.65,13.35 -3.5,13.5 -3.6,13.35 -3.7,13.2 -3.75,13.05 -3.85,13.3 -3.8,13.5 -3.65,13.65 -3.65,13.75 -3.65,13.85 -3.6,13.95 -3.55,14.05 -3.45,14.15 -3.4,14.3 L-3.4,14.25 C-2.55,15.35 -1.55,15.8 -0.4,15.65 -0.05,15.7 0.35,15.65 0.7,15.5 1.6,15.35 2.25,14.8 2.6,13.8 2.6,13.85 2.6,13.9 2.6,13.95 L2.65,13.9 C2.7,13.75 2.7,13.55 2.7,13.4 2.7,13.3 2.7,13.2 2.75,13.1 2.75,13.2 2.75,13.3 2.8,13.4 L2.8,13.35 C2.8,13 2.8,12.6 2.8,12.25 2.8,12.1 2.8,12 2.75,11.9 2.7,11.85 2.7,11.85 2.65,11.85 2.6,11.8 2.6,11.8 2.55,11.8 2.5,11 2.5,10.2 2.6,9.4 2.6,9.1 2.6,8.8 2.65,8.5 2.5,7.2 2.5,5.9 2.7,4.65 L2.725,4.575 L2.75,4.6 C2.7,4.05 2.6,3.5 2.55,2.95 2.4,2.25 2.2,1.5 1.95,0.75 1.9,0.65 1.9,0.55 1.85,0.4 L1.875,0.425 L1.9,0.45 C1.65,-0.3 1.2,-0.8 0.55,-1.05 L0.525,-1.05 L0.475,-1.05"/>
      </g>
      <animate attributeName="display" begin="0s" repeatCount="indefinite" dur="0.167s" keyTimes="0;0.798;1" values="none;inline;none"/>
    </g>
    <g id="sideArmLowerClose2_2">
      <g id="element1">
        <path id="path5" fill="#630" d="M1.9,-0.3 Q1.59,-0.933 0.9,-1.4 C0.7,-1.45 0.5,-1.5 0.25,-1.45 -0.05,-1.4 -0.3,-1.25 -0.45,-1.05 -1.25,-0.7 -1.8,-0.15 -2.1,0.6 -2.15,0.55 -2.15,0.55 -2.2,0.6 -2.75,1.55 -3.15,2.5 -3.3,3.45 -3.4,3.85 -3.5,4.25 -3.6,4.7 -3.75,5.15 -3.85,5.55 -3.9,6 L-3.9,6.05 C-4.25,7.4 -4.4,8.75 -4.35,10.1 -4.4,10.1 -4.4,10.15 -4.45,10.25 -4.7,11.7 -4.45,12.9 -3.75,13.9 -3.8,13.75 -3.8,13.65 -3.85,13.5 -3.9,13.45 -3.9,13.35 -3.85,13.25 -3.8,13.3 -3.75,13.3 -3.7,13.35 -3.75,13.3 -3.75,13.2 -3.75,13.15 -3.75,13.2 -3.7,13.3 -3.65,13.35 -3.75,13.2 -3.85,13 -3.9,12.8 -3.95,12 -4,11.2 -4,10.4 -3.95,9.7 -3.9,9 -3.85,8.3 -3.75,7.55 -3.65,6.85 -3.55,6.1 -3.5,5.85 -3.45,5.6 -3.4,5.35 -3.4,5.4 -3.4,5.5 -3.4,5.55 -3.35,5.55 -3.35,5.55 -3.35,5.5 -3.15,3.85 -2.75,2.3 -2.15,0.8 -2.3,1.2 -2.4,1.65 -2.4,2.1 -2.15,1.55 -1.9,0.95 -1.6,0.4 -1.3,-0.2 -0.85,-0.6 -0.25,-0.75 -0.1,-0.8 0.05,-0.85 0.2,-0.9 1.15,-0.6 1.7,0 1.95,0.85 2,1.05 2.05,1.3 2.05,1.55 2.1,1.9 2.2,2.3 2.35,2.65 L2.35,2.6 C2.35,2.25 2.35,1.95 2.3,1.65 2.35,2.1 2.45,2.5 2.6,2.95 2.6,3.45 2.65,4 2.75,4.55 2.65,5.4 2.65,6.15 2.75,6.9 2.7,7.55 2.65,8.15 2.7,8.8 2.65,8.8 2.65,8.85 2.6,8.9 2.5,9.85 2.5,10.8 2.6,11.65 2.65,11.9 2.75,12.2 2.9,12.45 2.85,12.3 2.85,12.2 2.9,12.1 2.9,12.2 2.9,12.3 2.95,12.45 L3,12.45 C3.05,11.3 3.05,10.2 2.95,9.1 2.95,8.65 2.95,8.25 2.95,7.85 2.95,7.9 2.95,8 3,8.05 L3,8 C2.95,7.2 2.95,6.4 2.95,5.65 2.95,5.7 2.95,5.8 3,5.85 L3,5.8 C3.05,5.15 3,4.45 2.9,3.8 2.95,3.9 2.95,4 3,4.05 L3,4 C2.85,2.85 2.6,1.7 2.25,0.6 2.2,0.6 2.2,0.6 2.15,0.6 2.1,0.25 2.05,-0.05 1.9,-0.3z"/>
        <path id="path6" fill="#FFC" d="M0.2,-0.9 C0.05,-0.85 -0.1,-0.8 -0.25,-0.75 -0.85,-0.6 -1.3,-0.2 -1.6,0.4 -1.9,0.95 -2.15,1.55 -2.4,2.1 -2.4,1.65 -2.3,1.2 -2.15,0.8 -2.75,2.3 -3.15,3.85 -3.35,5.5 -3.35,5.55 -3.35,5.55 -3.4,5.55 -3.4,5.5 -3.4,5.4 -3.4,5.35 -3.45,5.6 -3.5,5.85 -3.55,6.1 -3.65,6.85 -3.75,7.55 -3.85,8.3 -3.9,9 -3.95,9.7 -4,10.4 -4,11.2 -3.95,12 -3.9,12.8 -3.85,13 -3.75,13.2 -3.65,13.35 -3.7,13.3 -3.75,13.2 -3.75,13.15 -3.75,13.2 -3.75,13.3 -3.7,13.35 -3.75,13.3 -3.8,13.3 -3.85,13.25 -3.9,13.35 -3.9,13.45 -3.85,13.5 -3.8,13.65 -3.8,13.75 -3.75,13.9 -3.5,14.25 -3.1,14.6 -2.65,14.95 L-2.675,14.95 L-2.65,14.95 C-2.6,14.95 -2.6,14.95 -2.6,15 -2.55,15.05 -2.5,15.05 -2.45,15.1 -2.5,15.05 -2.5,15.05 -2.5,15.05 -1.6,15.7 -0.55,15.9 0.6,15.7 0.55,15.65 0.45,15.65 0.4,15.65 0.35,15.65 0.25,15.65 0.2,15.65 0.95,15.6 1.55,15.25 2,14.65 2.5,14.2 2.75,13.65 2.8,12.95 2.8,13 2.8,13.1 2.85,13.2 L2.85,13.15 C2.85,13.1 2.85,13.1 2.85,13.1 2.85,12.85 2.85,12.65 2.9,12.45 2.75,12.2 2.65,11.9 2.6,11.65 2.5,10.8 2.5,9.85 2.6,8.9 2.65,8.85 2.65,8.8 2.7,8.8 2.65,8.15 2.7,7.55 2.75,6.9 2.65,6.15 2.65,5.4 2.75,4.55 2.65,4 2.6,3.45 2.6,2.95 2.45,2.5 2.35,2.1 2.3,1.65 2.35,1.95 2.35,2.25 2.35,2.6 L2.35,2.65 C2.2,2.3 2.1,1.9 2.05,1.55 2.05,1.3 2,1.05 1.95,0.85 1.7,0 1.15,-0.6 0.2,-0.9z"/>
        <path id="path7" fill="#630" d="M-2.6,15 C-2.6,14.95 -2.6,14.95 -2.65,14.95 L-2.675,14.95"/>
      </g>
      <animate attributeName="display" begin="0s" repeatCount="indefinite" dur="0.167s" keyTimes="0;0.399;0.798;1" values="none;inline;none;none"/>
    </g>
    <g id="sideArmLowerClose2_0">
      <g id="element">
        <path id="path" fill="#630" d="M0.8,-1.45 Q0.6,-1.6 0.3,-1.55 C0.1,-1.5 -0.1,-1.45 -0.25,-1.35 -0.5,-1.3 -0.7,-1.2 -0.85,-1.05 -1.3,-0.6 -1.65,-0.15 -1.9,0.35 -1.85,0.2 -1.75,0.05 -1.7,-0.1 -2.05,0.25 -2.35,0.65 -2.6,1.15 -2.95,1.9 -3.2,2.75 -3.35,3.6 -3.35,3.45 -3.35,3.25 -3.35,3.05 L-3.4,3.05 C-3.6,3.75 -3.75,4.45 -3.8,5.15 -3.95,5.4 -4.1,5.65 -4.15,6 -4.3,6.65 -4.4,7.35 -4.35,8 -4.35,8.1 -4.35,8.2 -4.35,8.25 -4.45,8.95 -4.5,9.65 -4.45,10.3 -4.5,10.45 -4.55,10.55 -4.6,10.7 -4.55,10.8 -4.5,10.9 -4.55,11.05 -4.65,11.3 -4.65,11.55 -4.6,11.8 -4.55,12.1 -4.45,12.35 -4.3,12.55 -4.25,12.55 -4.25,12.55 -4.25,12.5 -4.25,12.45 -4.25,12.45 -4.25,12.4 -4.2,12.55 -4.15,12.7 -4.1,12.85 -4.05,12.95 -4.05,13.05 -4,13.1 -4,13.05 -4,12.95 -4,12.85 -4,12.7 -3.95,12.55 -3.85,12.5 -3.9,12.45 -3.9,12.45 -3.9,12.4 -3.95,12.2 -3.95,12 -4,11.75 -4.05,11.4 -4.1,11 -4.1,10.65 -4.1,10.55 -4.1,10.45 -4.1,10.35 -4,10 -3.95,9.6 -3.95,9.15 -3.95,8.45 -3.95,7.75 -3.9,7.05 -3.9,6.9 -3.9,6.8 -3.85,6.7 -3.85,6.7 -3.85,6.7 -3.85,6.65 -3.8,6.5 -3.8,6.35 -3.75,6.2 -3.7,6.15 -3.7,6.1 -3.7,6.05 -3.65,5.7 -3.55,5.4 -3.4,5.05 -3.3,4.75 -3.2,4.45 -3.1,4.15 -3.05,4.1 -3.05,4.05 -3.05,4 -3.1,3.85 -3.1,3.65 -3.05,3.5 -2.9,2.95 -2.7,2.45 -2.55,1.9 -2.5,1.75 -2.45,1.6 -2.4,1.45 -2.35,1.4 -2.35,1.35 -2.3,1.3 -2.4,1.65 -2.4,1.95 -2.35,2.3 -2.2,2 -2.1,1.7 -1.95,1.4 -1.7,0.85 -1.4,0.3 -1.15,-0.2 -1,-0.4 -0.85,-0.6 -0.7,-0.75 -0.65,-0.8 -0.55,-0.85 -0.4,-0.9 -0.25,-0.95 -0.1,-1.05 0,-1.2 -0.15,-1.2 -0.25,-1.15 -0.35,-1.05 -0.4,-0.95 -0.5,-0.9 -0.6,-0.85 -0.5,-1 -0.4,-1.1 -0.25,-1.2 L-0.2,-1.2 C0,-1.25 0.15,-1.2 0.3,-1.1 1.1,-0.65 1.6,-0.05 1.8,0.8 1.8,0.75 1.8,0.65 1.85,0.6 1.9,0.7 1.9,0.8 1.95,0.95 2.2,1.55 2.4,2.15 2.45,2.8 2.5,3.6 2.6,4.35 2.7,5.1 2.7,5.35 2.7,5.6 2.65,5.85 2.6,6.2 2.55,6.5 2.45,6.8 2.55,7.2 2.6,7.6 2.6,8 2.55,8.55 2.5,9.05 2.45,9.6 2.4,10.1 2.45,10.55 2.5,11 2.55,10.95 2.55,10.9 2.6,10.85 L2.6,10.825 L2.6,10.85 C2.6,11.05 2.6,11.25 2.6,11.45 2.65,11.4 2.7,11.7 2.8,12.45 2.8,11.95 2.85,11.8 2.9,12.05 2.85,11.7 2.85,11.3 2.9,10.95 2.95,10.3 2.95,9.7 2.9,9.05 2.95,8.8 2.95,8.6 2.95,8.35 3,8.5 3,8.6 3.05,8.75 L3.1,8.7 C3.05,7.5 3,6.3 3,5.1 3.2,3.1 2.8,1.25 1.75,-0.5 1.75,-0.45 1.75,-0.45 1.7,-0.4 1.55,-0.85 1.25,-1.2 0.8,-1.45z M-3.675,13.825 L-3.65,13.85 C-3.9,13.45 -4.1,13.05 -4.25,12.6 -4.3,12.8 -4.25,13.1 -4.05,13.45 -3.9,13.75 -3.75,14.05 -3.55,14.3 -3.6,14.15 -3.6,14 -3.65,13.85z"/>
        <path id="path1" fill="#FFC" d="M2.65,5.85 C2.7,5.6 2.7,5.35 2.7,5.1 2.6,4.35 2.5,3.6 2.45,2.8 2.4,2.15 2.2,1.55 1.95,0.95 1.9,0.8 1.9,0.7 1.85,0.6 1.8,0.65 1.8,0.75 1.8,0.8 1.6,-0.05 1.1,-0.65 0.3,-1.1 0.15,-1.2 0,-1.25 -0.2,-1.2 L-0.25,-1.2 C-0.4,-1.1 -0.5,-1 -0.6,-0.85 -0.5,-0.9 -0.4,-0.95 -0.35,-1.05 -0.25,-1.15 -0.15,-1.2 0,-1.2 -0.1,-1.05 -0.25,-0.95 -0.4,-0.9 -0.55,-0.85 -0.65,-0.8 -0.7,-0.75 -0.85,-0.6 -1,-0.4 -1.15,-0.2 -1.4,0.3 -1.7,0.85 -1.95,1.4 -2.1,1.7 -2.2,2 -2.35,2.3 -2.4,1.95 -2.4,1.65 -2.3,1.3 -2.35,1.35 -2.35,1.4 -2.4,1.45 -2.45,1.6 -2.5,1.75 -2.55,1.9 -2.7,2.45 -2.9,2.95 -3.05,3.5 -3.1,3.65 -3.1,3.85 -3.05,4 -3.05,4.05 -3.05,4.1 -3.1,4.15 -3.2,4.45 -3.3,4.75 -3.4,5.05 -3.55,5.4 -3.65,5.7 -3.7,6.05 -3.7,6.1 -3.7,6.15 -3.75,6.2 -3.8,6.35 -3.8,6.5 -3.85,6.65 -3.85,6.7 -3.85,6.7 -3.85,6.7 -3.9,6.8 -3.9,6.9 -3.9,7.05 -3.95,7.75 -3.95,8.45 -3.95,9.15 -3.95,9.6 -4,10 -4.1,10.35 -4.1,10.45 -4.1,10.55 -4.1,10.65 -4.1,11 -4.05,11.4 -4,11.75 -3.95,12 -3.95,12.2 -3.9,12.4 -3.9,12.45 -3.9,12.45 -3.85,12.5 -3.95,12.55 -4,12.7 -4,12.85 -4,12.95 -4,13.05 -4,13.1 -3.9,13.35 -3.8,13.55 -3.65,13.75 -3.65,13.8 -3.65,13.8 -3.65,13.85 L-3.675,13.825 L-3.65,13.85 C-3.6,14 -3.6,14.15 -3.55,14.3 L-3.575,14.3 L-3.575,14.325 L-3.55,14.35 C-3.55,14.35 -3.55,14.35 -3.5,14.4 L-3.525,14.4 L-3.5,14.425 L-3.5,14.45 C-3.35,14.85 -3.15,15.2 -2.9,15.55 -2.85,15.4 -2.85,15.3 -2.85,15.15 -2.55,15.4 -2.2,15.55 -1.8,15.6 -1.85,15.5 -1.9,15.4 -1.95,15.35 -1.6,15.5 -1.25,15.65 -0.85,15.75 -0.8,15.7 -0.8,15.7 -0.75,15.7 -0.7,15.65 -0.65,15.65 -0.6,15.65 -0.35,15.7 -0.05,15.7 0.25,15.65 0.9,15.6 1.5,15.4 2.05,14.95 2.1,14.9 2.15,14.8 2.2,14.75 2.25,14.7 2.3,14.6 2.35,14.55 2.4,14.5 2.4,14.4 2.45,14.35 2.45,14.3 2.45,14.2 2.5,14.15 2.55,14.05 2.55,13.95 2.6,13.8 2.6,13.75 2.6,13.75 2.65,13.75 2.85,13.5 2.95,13.2 2.9,12.85 2.9,12.6 2.9,12.3 2.9,12.05 2.85,11.8 2.8,11.95 2.8,12.45 2.7,11.7 2.65,11.4 2.6,11.45 2.6,11.25 2.6,11.05 2.6,10.85 L2.6,10.825 L2.6,10.85 C2.55,10.9 2.55,10.95 2.5,11 2.45,10.55 2.4,10.1 2.45,9.6 2.5,9.05 2.55,8.55 2.6,8 2.6,7.6 2.55,7.2 2.45,6.8 2.55,6.5 2.6,6.2 2.65,5.85z"/>
      </g>
      <animate attributeName="display" begin="0s" repeatCount="indefinite" dur="0.167s" keyTimes="0;0.399;1" values="inline;none;none"/>
    </g>
  </g>
</svg>