<?xml version="1.0" encoding="utf-8"?>
<!-- Generator: flash2svg, http://dissentgraphics.com/tools/flash2svg -->
<svg xmlns:xlink="http://www.w3.org/1999/xlink" id="Avatar" image-rendering="auto" baseProfile="basic" version="1.1" x="0px" y="0px" width="68" height="126" xmlns="http://www.w3.org/2000/svg" viewBox="0 0 68 126">
  <defs/>
  <g id="sideLegLowerOffside3" overflow="visible">
    <g id="sideLegLowerOffside2_4">
      <g id="element2">
        <path id="path10" fill="#630" d="M-5.05,-0.9 Q-5.129,-0.585 -5.1,-0.25 C-5.15,-0.1 -5.15,0.05 -5.15,0.2 -5.3,1.35 -5.3,2.5 -5.15,3.6 -5.25,4.55 -5.1,5.45 -4.7,6.35 -4.45,7 -4.05,7.45 -3.55,7.75 -3.9,7.35 -4.1,6.9 -4.2,6.4 -4.85,5.2 -5.05,3.9 -4.85,2.45 -4.9,2.4 -4.9,2.4 -4.9,2.45 -4.85,2.05 -4.85,1.65 -4.8,1.2 -4.8,1.05 -4.8,0.95 -4.8,0.8 L-4.8,0.775 L-4.8,0.8 C-4.75,0.65 -4.75,0.45 -4.75,0.2 -5,-1.25 -4.4,-2.2 -2.95,-2.65 -2.9,-2.65 -2.85,-2.65 -2.8,-2.7 -2.35,-2.75 -1.9,-2.75 -1.45,-2.8 0.05,-2.9 1.45,-2.6 2.7,-1.9 2.85,-1.65 2.95,-1.4 3,-1.1 3.05,-0.45 3.05,0.2 3.05,0.85 L3.05,0.875 L3.05,0.9 C2.95,1.2 2.95,1.5 3,1.8 2.85,2.3 2.8,2.8 2.85,3.3 2.85,3.4 2.85,3.5 2.9,3.65 2.8,3.8 2.7,4 2.65,4.25 2.5,4.9 2.35,5.5 2.2,6.15 2.15,6.2 2.15,6.2 2.15,6.25 2.2,6.4 2.2,6.55 2.1,6.8 2.45,6.55 2.65,6.2 2.7,5.8 2.7,5.75 2.7,5.65 2.75,5.55 2.95,4.8 3.05,4.05 3.1,3.3 3.05,3.35 3.05,3.35 3.05,3.4 3.1,2.65 3.15,2.05 3.2,1.6 3.25,1.15 3.3,0.55 3.4,-0.2 3.45,-0.95 3.25,-1.55 2.8,-2 2.3,-2.45 2,-2.7 1.95,-2.65 1.65,-2.8 1.35,-2.9 1.05,-2.95 0.8,-3 0.5,-3 0.25,-3.05 -0.1,-3.1 -0.45,-3.1 -0.8,-3.1 -1.3,-3.15 -1.8,-3.1 -2.3,-3 -2.25,-3.05 -2.2,-3.15 -2.2,-3.25 -3.05,-3.1 -3.8,-2.75 -4.35,-2.1 -4.5,-1.95 -4.6,-1.8 -4.7,-1.65 -4.5,-2.1 -4.15,-2.55 -3.65,-2.9 -4.6,-2.55 -5.05,-1.9 -5.05,-0.9z"/>
        <path id="path11" fill="#FFC" d="M-1.45,-2.8 C-1.9,-2.75 -2.35,-2.75 -2.8,-2.7 -2.85,-2.65 -2.9,-2.65 -2.95,-2.65 -4.4,-2.2 -5,-1.25 -4.75,0.2 -4.75,0.45 -4.75,0.65 -4.8,0.8 L-4.8,0.775 L-4.8,0.8 C-4.8,0.95 -4.8,1.05 -4.8,1.2 -4.85,1.65 -4.85,2.05 -4.9,2.45 -4.9,2.4 -4.9,2.4 -4.85,2.45 -5.05,3.9 -4.85,5.2 -4.2,6.4 -4.1,6.9 -3.9,7.35 -3.55,7.75 -3.25,7.95 -2.9,8.1 -2.5,8.15 -2.1,8.3 -1.7,8.35 -1.25,8.3 0.15,8.25 1.25,7.8 2.1,6.85 L2.075,6.825 L2.1,6.8 C2.2,6.55 2.2,6.4 2.15,6.25 2.15,6.2 2.15,6.2 2.2,6.15 2.35,5.5 2.5,4.9 2.65,4.25 2.7,4 2.8,3.8 2.9,3.65 2.85,3.5 2.85,3.4 2.85,3.3 2.8,2.8 2.85,2.3 3,1.8 2.95,1.5 2.95,1.2 3.05,0.9 L3.05,0.875 L3.05,0.85 C3.05,0.2 3.05,-0.45 3,-1.1 2.95,-1.4 2.85,-1.65 2.7,-1.9 1.45,-2.6 0.05,-2.9 -1.45,-2.8z"/>
      </g>
      <animate attributeName="display" begin="0s" repeatCount="indefinite" dur="0.167s" keyTimes="0;0.798;1" values="none;inline;none"/>
    </g>
    <g id="sideLegLowerOffside2_2">
      <g id="element1">
        <path id="path5" fill="#630" d="M0,-3.1 Q-0.234,-3.053 -0.525,-3.05 L-0.55,-3.05 C-0.7,-3.05 -0.8,-3.05 -0.9,-3 -0.85,-3.05 -0.85,-3.05 -0.8,-3.1 -1.05,-3.1 -1.3,-3.1 -1.55,-3.1 -2.3,-3.05 -3.05,-2.9 -3.8,-2.65 -3.95,-2.55 -4.05,-2.45 -4.15,-2.35 -4.1,-2.4 -4.1,-2.45 -4.05,-2.5 -4.55,-2.3 -4.85,-1.95 -4.95,-1.45 -5.1,-0.6 -5.15,0.15 -5,0.85 -5,0.9 -5,1 -5.05,1.05 -5.15,1.45 -5.15,1.8 -5.1,2.15 -5.15,2.3 -5.15,2.5 -5.2,2.65 -5.55,4.8 -5,6.6 -3.6,8 -3.55,7.95 -3.6,7.85 -3.65,7.75 -3.9,7.5 -4.05,7.2 -4.2,6.9 -4.15,6.95 -4.1,7.05 -4,7.15 -4.15,6.95 -4.25,6.75 -4.3,6.5 -4.35,6.35 -4.4,6.2 -4.4,6.1 -4.45,6.05 -4.45,6.05 -4.45,6 -4.5,6.05 -4.5,6.1 -4.5,6.15 -4.5,6.1 -4.5,6.1 -4.5,6.05 -4.55,6 -4.55,6 -4.55,5.95 -4.8,4.8 -4.85,3.7 -4.8,2.55 -4.75,2.4 -4.75,2.25 -4.75,2.1 -4.7,1.75 -4.65,1.45 -4.65,1.15 -4.65,1.1 -4.65,1 -4.65,0.95 L-4.675,0.95 L-4.65,0.95 C-4.65,0.7 -4.7,0.4 -4.75,0.15 -4.8,0 -4.8,-0.15 -4.8,-0.3 -4.75,-0.25 -4.7,-0.15 -4.65,-0.1 -4.7,-1.55 -4,-2.4 -2.45,-2.55 -2,-2.6 -1.65,-2.7 -1.3,-2.85 -0.95,-2.8 -0.55,-2.8 -0.1,-2.75 0.95,-2.65 1.9,-2.35 2.75,-1.8 2.95,-1.35 3.05,-0.8 3,-0.25 2.95,0.5 2.9,1.2 2.95,1.8 2.7,2.8 2.55,3.85 2.6,4.95 2.6,5.25 2.55,5.5 2.45,5.75 2.45,5.7 2.45,5.7 2.5,5.65 2.6,6.05 2.5,6.45 2.2,6.9 2.15,6.95 2.15,7 2.1,7.05 2.15,7 2.15,7 2.2,6.95 2.35,6.8 2.45,6.7 2.5,6.55 2.85,5.65 3.1,4.75 3.15,3.8 3.2,2.65 3.25,1.55 3.4,0.45 3.65,-0.6 3.45,-1.4 2.85,-2.05 2.8,-2.2 2.65,-2.35 2.45,-2.45 2,-2.7 1.55,-2.85 1.05,-3 0.7,-3.1 0.35,-3.15 0,-3.1z"/>
        <path id="path6" fill="#FFC" d="M-4.65,-0.1 C-4.7,-0.15 -4.75,-0.25 -4.8,-0.3 -4.8,-0.15 -4.8,0 -4.75,0.15 -4.7,0.4 -4.65,0.7 -4.65,0.95 L-4.675,0.95 L-4.65,0.95 C-4.65,1 -4.65,1.1 -4.65,1.15 -4.65,1.45 -4.7,1.75 -4.75,2.1 -4.75,2.25 -4.75,2.4 -4.8,2.55 -4.85,3.7 -4.8,4.8 -4.55,5.95 -4.55,6 -4.55,6 -4.5,6.05 L-4.525,6.025 L-4.45,6 C-4.45,6.05 -4.45,6.05 -4.4,6.1 -4.4,6.2 -4.35,6.35 -4.3,6.5 -4.25,6.75 -4.15,6.95 -4,7.15 -3.9,7.25 -3.8,7.35 -3.65,7.45 L-3.675,7.45 L-3.65,7.475 L-3.65,7.5 C-3.6,7.55 -3.5,7.6 -3.45,7.65 -3.4,7.65 -3.4,7.65 -3.35,7.7 L-2.975,7.925 L-2.95,7.95 C-2.95,7.95 -2.95,7.95 -2.9,7.95 -2.8,8 -2.7,8.05 -2.6,8.1 -2,8.35 -1.4,8.4 -0.85,8.35 -0.8,8.4 -0.7,8.45 -0.6,8.5 0.4,8.15 1.3,7.7 2.1,7.05 2.15,7 2.15,6.95 2.2,6.9 2.5,6.45 2.6,6.05 2.5,5.65 2.45,5.7 2.45,5.7 2.45,5.75 2.55,5.5 2.6,5.25 2.6,4.95 2.55,3.85 2.7,2.8 2.95,1.8 2.9,1.2 2.95,0.5 3,-0.25 3.05,-0.8 2.95,-1.35 2.75,-1.8 1.9,-2.35 0.95,-2.65 -0.1,-2.75 -0.55,-2.8 -0.95,-2.8 -1.3,-2.85 -1.65,-2.7 -2,-2.6 -2.45,-2.55 -4,-2.4 -4.7,-1.55 -4.65,-0.1z"/>
      </g>
      <animate attributeName="display" begin="0s" repeatCount="indefinite" dur="0.167s" keyTimes="0;0.399;0.798;1" values="none;inline;none;none"/>
    </g>
    <g id="sideLegLowerOffside2_0">
      <g id="element">
        <path id="path" fill="#630" d="M-2.9,-3 Q-3.3,-3 -3.7,-2.8 C-4.15,-2.6 -4.55,-2.3 -4.9,-1.9 -4.95,-1.75 -4.95,-1.6 -5,-1.45 -5.05,-1.3 -5.05,-1.2 -5.1,-1.1 -5.05,-0.95 -5,-0.75 -4.95,-0.6 -5,0.65 -5.15,2 -5.3,3.45 -5.4,4.3 -5.35,5.1 -5.2,5.75 -5.15,5.5 -5.1,5.3 -5.05,5.1 -5,5.75 -4.7,6.4 -4.25,7 -4.3,6.7 -4.4,6.4 -4.5,6.1 -4.5,6.05 -4.5,6.05 -4.5,6.05 -4.4,6.25 -4.25,6.45 -4.1,6.6 -4.35,6.3 -4.55,6 -4.7,5.65 -4.75,5.55 -4.75,5.45 -4.8,5.35 -4.75,5.4 -4.7,5.5 -4.65,5.6 -4.8,5.15 -4.85,4.7 -4.8,4.35 -4.8,3.8 -4.8,3.4 -4.8,3.15 -4.8,2.8 -4.75,2.5 -4.7,2.2 -4.65,1.75 -4.6,1.35 -4.55,0.95 -4.5,0.9 -4.5,0.8 -4.5,0.75 -4.5,0.65 -4.5,0.55 -4.45,0.5 -4.45,0.5 -4.45,0.5 -4.45,0.45 -4.5,0.3 -4.5,0.1 -4.55,-0.05 -4.55,-0.25 -4.6,-0.45 -4.7,-0.65 -4.75,-1.1 -4.6,-1.55 -4.25,-1.9 -3.95,-2.15 -3.7,-2.4 -3.45,-2.6 -2.7,-2.8 -1.9,-2.9 -1.05,-2.9 0.1,-2.9 1.2,-2.7 2.2,-2.3 2.8,-1.75 3.05,-1.1 2.9,-0.25 2.7,1.15 2.7,2.5 2.9,3.85 2.75,4.2 2.65,4.6 2.6,5.05 2.55,5.3 2.5,5.5 2.35,5.65 2.3,6.1 2.15,6.55 1.9,6.95 1.85,7 1.75,7.1 1.7,7.15 1.95,6.9 2.2,6.65 2.35,6.4 2.9,5.45 3.15,4.35 3.1,3.15 3.1,3.2 3.1,3.25 3.05,3.3 3.1,2.5 3.2,1.7 3.35,0.95 3.6,-0.2 3.4,-1.2 2.75,-2.05 2.85,-2 2.95,-2 3,-1.95 2.75,-2.1 2.45,-2.3 2.2,-2.5 1.85,-2.75 1.6,-2.85 1.45,-2.9 0.95,-2.95 0.45,-3.05 0,-3.1 -1.1,-3.3 -2.15,-3.2 -3.2,-2.8 -3.1,-2.85 -3,-2.95 -2.9,-3z"/>
        <path id="path1" fill="#FFC" d="M-3.45,-2.6 C-3.7,-2.4 -3.95,-2.15 -4.25,-1.9 -4.6,-1.55 -4.75,-1.1 -4.7,-0.65 -4.6,-0.45 -4.55,-0.25 -4.55,-0.05 -4.5,0.1 -4.5,0.3 -4.45,0.45 -4.45,0.5 -4.45,0.5 -4.45,0.5 -4.5,0.55 -4.5,0.65 -4.5,0.75 -4.5,0.8 -4.5,0.9 -4.55,0.95 -4.6,1.35 -4.65,1.75 -4.7,2.2 -4.75,2.5 -4.8,2.8 -4.8,3.15 -4.8,3.4 -4.8,3.8 -4.8,4.35 -4.85,4.7 -4.8,5.15 -4.65,5.6 L-4.7,5.625 L-4.7,5.65 C-4.55,6 -4.35,6.3 -4.1,6.6 -4.25,6.45 -4.4,6.25 -4.5,6.05 -4.5,6.05 -4.5,6.05 -4.5,6.1 -4.4,6.4 -4.3,6.7 -4.25,7 L-4.275,6.975 L-4.275,7 L-4.25,7 C-4.2,7.05 -4.1,7.15 -4.05,7.25 L-4.075,7.225 L-4,7.3 C-3.25,8.15 -2.3,8.4 -1.25,8.15 L-1.275,8.125 L-1.25,8.15 C-0.25,8.2 0.7,7.85 1.6,7.2 L1.675,7.15 L1.7,7.15 C1.75,7.1 1.85,7 1.9,6.95 2.15,6.55 2.3,6.1 2.35,5.65 2.5,5.5 2.55,5.3 2.6,5.05 2.65,4.6 2.75,4.2 2.9,3.85 2.7,2.5 2.7,1.15 2.9,-0.25 3.05,-1.1 2.8,-1.75 2.2,-2.3 1.2,-2.7 0.1,-2.9 -1.05,-2.9 -1.9,-2.9 -2.7,-2.8 -3.45,-2.6z"/>
      </g>
      <animate attributeName="display" begin="0s" repeatCount="indefinite" dur="0.167s" keyTimes="0;0.399;1" values="inline;none;none"/>
    </g>
  </g>
</svg>