<?xml version="1.0" encoding="utf-8"?>
<!-- Generator: flash2svg, http://dissentgraphics.com/tools/flash2svg -->
<svg xmlns:xlink="http://www.w3.org/1999/xlink" id="Avatar" image-rendering="auto" baseProfile="basic" version="1.1" x="0px" y="0px" width="68" height="126" xmlns="http://www.w3.org/2000/svg" viewBox="0 0 68 126">
  <defs/>
  <g id="backArmUpperLeft3" overflow="visible">
    <g id="backArmUpperLeft2_4">
      <g id="element2">
        <path id="path7" fill="#FFC" d="M-15.225,-1.25 Q-15.664,-1.346 -16,-1.35 C-16.35,-1.2 -16.6,-1 -16.85,-0.75 -17.1,-0.5 -17.35,-0.25 -17.5,0.1 -17.65,0.45 -17.7,0.95 -17.65,1.5 -17.5,3.25 -17.2,4.25 -16.7,4.45 -16.3,4.6 -15.95,4.75 -15.7,4.95 -14.65,5.3 -13.5,5.45 -12.25,5.4 L-12.25,5.35 C-12.5,5.3 -12.75,5.2 -13,5.1 -8.35,5.15 -5,4.65 -3,3.6 -1.05,2.5 -0.05,1.65 0,1.05 0,0.4 0.15,0 0.4,-0.15 0.2,-1.7 -0.85,-2.4 -2.8,-2.25 -3.45,-2.2 -4.1,-2.2 -4.65,-2.3 -5.4,-2.15 -6.2,-2.1 -7,-2.05 -7.5,-2 -7.9,-2.05 -8.25,-2.2 -9.35,-2.15 -10.4,-2.05 -11.45,-1.9 -12.9,-1.75 -14.15,-1.5 -15.2,-1.25"/>
        <path id="path8" fill="#630" d="M-16,-1.35 Q-15.664,-1.346 -15.225,-1.25 L-15.2,-1.25 C-14.15,-1.5 -12.9,-1.75 -11.45,-1.9 -10.4,-2.05 -9.35,-2.15 -8.25,-2.2 -7.9,-2.05 -7.5,-2 -7,-2.05 -6.2,-2.1 -5.4,-2.15 -4.65,-2.3 -4.1,-2.2 -3.45,-2.2 -2.8,-2.25 -0.85,-2.4 0.2,-1.7 0.4,-0.15 0.15,0 0,0.4 0,1.05 -0.05,1.65 -1.05,2.5 -3,3.6 -5,4.65 -8.35,5.15 -13,5.1 -12.75,5.2 -12.5,5.3 -12.25,5.35 -12.2,5.4 -12.1,5.4 -12.05,5.4 -12.1,5.4 -12.2,5.4 -12.25,5.4 -13.5,5.45 -14.65,5.3 -15.7,4.95 -15.95,4.75 -16.3,4.6 -16.7,4.45 -17.2,4.25 -17.5,3.25 -17.65,1.5 -17.7,0.95 -17.65,0.45 -17.5,0.1 -17.55,0.2 -17.65,0.35 -17.7,0.5 -18.45,2.25 -18.35,3.55 -17.45,4.35 -17.15,4.95 -16.6,5.35 -15.8,5.55 -14.05,5.95 -12.45,5.95 -10.9,5.5 L-10.85,5.5 C-8.85,5.5 -6.9,5.3 -5,4.9 -2.05,4.25 -0.2,2.65 0.6,0.1 0.7,-0.1 0.75,-0.3 0.75,-0.55 0.7,-1.3 0.4,-1.9 -0.25,-2.35 -0.8,-2.8 -1.45,-3 -2.2,-3 -2.45,-3 -2.7,-2.95 -2.95,-2.9 -3.3,-3 -3.95,-2.95 -4.8,-2.8 -5.65,-2.65 -7.3,-2.6 -9.65,-2.6 -11.5,-2.65 -13.3,-2.25 -15.15,-1.5 -15.45,-1.5 -15.75,-1.45 -16,-1.35z"/>
      </g>
      <animate attributeName="display" begin="0s" repeatCount="indefinite" dur="0.167s" keyTimes="0;0.798;1" values="none;inline;none"/>
    </g>
    <g id="backArmUpperLeft2_2">
      <g id="element1">
        <path id="path5" fill="#FFC" d="M-16.65,-0.875 Q-16.916,-0.662 -17.15,-0.425 L-17.15,-0.4 C-17.3,-0.3 -17.4,-0.2 -17.5,-0.05 -17.55,0 -17.65,0.05 -17.7,0.1 -17.7,0.15 -17.7,0.2 -17.75,0.25 -18.2,2.25 -17.65,3.8 -16.05,4.85 -15.45,5.25 -14.75,5.4 -14,5.35 -14.15,5.3 -14.3,5.25 -14.45,5.2 -11.5,5.1 -8.5,4.7 -5.55,4.05 -4.8,3.85 -4,3.75 -3.2,3.7 -2.2,3.25 -1.35,2.55 -0.65,1.6 -0.3,1.05 0.05,0.6 0.3,0.15 0.35,-1 -0.2,-1.75 -1.45,-2.2 -1.65,-2.25 -1.85,-2.35 -2.1,-2.45 -2.4,-2.4 -2.75,-2.35 -3.2,-2.35 -5.55,-2.2 -7.95,-2.15 -10.4,-2.2 -12.2,-1.85 -13.8,-1.6 -15.25,-1.35 -15.8,-1.25 -16.3,-1.1 -16.65,-0.85"/>
        <path id="path6" fill="#630" d="M-10.575,-2.475 L-10.925,-2.45 L-10.9,-2.45 C-11.15,-2.4 -11.35,-2.4 -11.6,-2.4 -12.05,-2.35 -12.45,-2.35 -12.85,-2.3 -14.35,-2.15 -15.6,-1.7 -16.65,-0.85 -16.3,-1.1 -15.8,-1.25 -15.25,-1.35 -13.8,-1.6 -12.2,-1.85 -10.4,-2.2 -7.95,-2.15 -5.55,-2.2 -3.2,-2.35 -2.75,-2.35 -2.4,-2.4 -2.1,-2.45 -1.85,-2.35 -1.65,-2.25 -1.45,-2.2 -0.2,-1.75 0.35,-1 0.3,0.15 0.05,0.6 -0.3,1.05 -0.65,1.6 -1.35,2.55 -2.2,3.25 -3.2,3.7 -4,3.75 -4.8,3.85 -5.55,4.05 -8.5,4.7 -11.5,5.1 -14.45,5.2 -14.3,5.25 -14.15,5.3 -14,5.35 -14.75,5.4 -15.45,5.25 -16.05,4.85 -17.65,3.8 -18.2,2.25 -17.75,0.25 -18,0.6 -18.25,0.95 -18.45,1.35 -18.3,1.35 -18.2,1.3 -18.1,1.2 -18.15,1.45 -18.2,1.75 -18.15,2.1 -17.95,5.05 -16.4,6.2 -13.45,5.5 -13.45,5.45 -13.45,5.45 -13.45,5.45 -12.55,5.6 -11.6,5.65 -10.55,5.6 -8.1,5.35 -5.75,4.9 -3.45,4.15 -3.1,4.1 -2.7,3.95 -2.25,3.8 -0.7,3.15 0.2,2.05 0.4,0.5 0.65,0.25 0.7,-0.05 0.65,-0.45 0.5,-1.3 0.1,-2 -0.65,-2.55 -1.2,-2.75 -1.8,-2.9 -2.4,-3 -2.75,-3.05 -3.05,-3.05 -3.35,-3 -3.8,-3.05 -4.3,-3 -4.75,-2.95 -6.7,-2.75 -8.65,-2.6 -10.55,-2.45"/>
      </g>
      <animate attributeName="display" begin="0s" repeatCount="indefinite" dur="0.167s" keyTimes="0;0.399;0.798;1" values="none;inline;none;none"/>
    </g>
    <g id="backArmUpperLeft2_0">
      <g id="element">
        <path id="path" fill="#630" d="M0.7,-0.2 Q0.7,-0.35 0.7,-0.45 C0.7,-0.5 0.7,-0.5 0.7,-0.5 0.75,-0.65 0.75,-0.75 0.7,-0.9 0.55,-1.45 0.25,-1.9 -0.25,-2.3 -1.2,-2.85 -2.2,-3.1 -3.25,-3.05 -4.3,-3 -5.3,-2.9 -6.3,-2.7 -8.35,-2.65 -10.4,-2.55 -12.45,-2.4 -14.2,-2.25 -15.55,-1.75 -16.55,-0.85 -16,-1.25 -15,-1.55 -13.45,-1.7 -11.1,-2 -8.55,-2.3 -5.8,-2.55 -5.1,-2.55 -4.35,-2.6 -3.55,-2.65 -1.6,-2.8 -0.25,-2.15 0.4,-0.7 0.25,-0.3 0.1,0.15 0,0.7 -0.15,1.2 -0.55,1.8 -1.3,2.55 -1.8,3 -2.45,3.4 -3.25,3.65 -2.9,3.45 -2.6,3.2 -2.35,2.9 -2.65,3.1 -3,3.25 -3.45,3.4 -4.75,3.75 -6.05,4.1 -7.4,4.35 -9.65,4.65 -11.95,4.85 -14.25,4.9 -14.45,4.85 -14.65,4.85 -14.8,4.8 -14.45,5.1 -14,5.3 -13.55,5.45 -13.3,5.5 -13.1,5.55 -12.85,5.55 -11.35,5.6 -9.9,5.5 -8.5,5.25 -8.7,5.2 -8.9,5.2 -9.1,5.15 -8,5 -6.9,4.85 -5.8,4.6 -5.7,4.55 -5.6,4.55 -5.5,4.55 -2.2,4.35 -0.15,2.75 0.7,-0.2z M-13.55,5.5 C-16.85,6.05 -18.35,4.6 -18.05,1.25 -18,0.7 -17.8,0.3 -17.55,-0.05 -18.35,1.6 -17.95,3.2 -16.35,4.65 -15.95,5 -15.45,5.2 -14.9,5.25 -14.35,5.25 -13.9,5.35 -13.55,5.5z"/>
        <path id="path1" fill="#FFC" d="M-17.3,-0.5 C-17.4,-0.35 -17.5,-0.2 -17.55,-0.05 -18.35,1.6 -17.95,3.2 -16.35,4.65 -15.95,5 -15.45,5.2 -14.9,5.25 -14.35,5.25 -13.9,5.35 -13.55,5.5 L-13.55,5.45 C-14,5.3 -14.45,5.1 -14.8,4.8 -14.65,4.85 -14.45,4.85 -14.25,4.9 -11.95,4.85 -9.65,4.65 -7.4,4.35 -6.05,4.1 -4.75,3.75 -3.45,3.4 -3,3.25 -2.65,3.1 -2.35,2.9 -2.6,3.2 -2.9,3.45 -3.25,3.65 -2.45,3.4 -1.8,3 -1.3,2.55 -0.55,1.8 -0.15,1.2 0,0.7 0.1,0.15 0.25,-0.3 0.4,-0.7 -0.25,-2.15 -1.6,-2.8 -3.55,-2.65 -4.35,-2.6 -5.1,-2.55 -5.8,-2.55 -8.55,-2.3 -11.1,-2 -13.45,-1.7 -15,-1.55 -16,-1.25 -16.55,-0.85 -16.65,-0.8 -16.75,-0.7 -16.8,-0.6 -16.85,-0.6 -16.85,-0.6 -16.85,-0.55 -16.95,-0.5 -17.05,-0.5 -17.1,-0.45 -17.15,-0.45 -17.25,-0.45 -17.3,-0.5z"/>
      </g>
      <animate attributeName="display" begin="0s" repeatCount="indefinite" dur="0.167s" keyTimes="0;0.399;1" values="inline;none;none"/>
    </g>
  </g>
</svg>