<?xml version="1.0" encoding="utf-8"?>
<!-- Generator: flash2svg, http://dissentgraphics.com/tools/flash2svg -->
<svg xmlns:xlink="http://www.w3.org/1999/xlink" id="Avatar" image-rendering="auto" baseProfile="basic" version="1.1" x="0px" y="0px" width="68" height="126" xmlns="http://www.w3.org/2000/svg" viewBox="0 0 68 126">
  <defs/>
  <g id="backArmLowerLeft3" overflow="visible">
    <g id="backArmLowerLeft2_4">
      <g id="element2">
        <path id="path8" fill="#FFC" d="M-3.875,-10.775 Q-4.343,-11.339 -4.8,-11.6 L-4.825,-11.625 L-4.8,-11.6 C-5.05,-11.65 -5.3,-11.7 -5.55,-11.65 L-6.25,-11.5 C-6.9,-11.25 -7.45,-10.95 -7.85,-10.55 -7.6,-10.9 -7.25,-11.15 -6.8,-11.4 -7,-11.35 -7.15,-11.3 -7.3,-11.2 -7.55,-11.05 -7.75,-10.95 -8,-10.85 -8.45,-10.45 -8.8,-10 -9,-9.5 -9,-9.45 -9,-9.45 -9,-9.4 -9,-8.25 -8.75,-7.35 -8.2,-6.7 -8.05,-6.25 -7.9,-5.8 -7.65,-5.4 L-7.75,-5.325 L-7.75,-5.3 C-7,-3.9 -6.1,-2.55 -5.1,-1.25 L-5.025,-1.275 L-5,-1.25 C-5.05,-1.4 -5.1,-1.5 -5.15,-1.6 -4.6,-0.8 -4,-0.15 -3.3,0.35 -3.15,0.5 -2.95,0.6 -2.75,0.7 L-2.775,0.75 L-2.75,0.75 C-1.9,1.3 -0.9,1.7 0.2,1.85 0.45,1.9 0.75,1.85 1,1.7 1.25,1.55 1.45,1.45 1.7,1.4 3.05,-0.7 2.75,-2.9 0.85,-5.15 0.8,-5.2 0.45,-5.6 -0.2,-6.25 -0.55,-6.6 -0.95,-7.05 -1.3,-7.5 -1.65,-7.95 -1.95,-8.45 -2.3,-9 -2.8,-9.85 -3.3,-10.45 -3.85,-10.75"/>
        <path id="path9" fill="#630" d="M-4.8,-11.6 Q-4.343,-11.339 -3.875,-10.775 L-3.85,-10.75 C-3.3,-10.45 -2.8,-9.85 -2.3,-9 -1.95,-8.45 -1.65,-7.95 -1.3,-7.5 -0.95,-7.05 -0.55,-6.6 -0.2,-6.25 0.45,-5.6 0.8,-5.2 0.85,-5.15 2.75,-2.9 3.05,-0.7 1.7,1.4 1.45,1.45 1.25,1.55 1,1.7 0.75,1.85 0.45,1.9 0.2,1.85 -0.9,1.7 -1.9,1.3 -2.75,0.75 -2.8,0.7 -2.8,0.7 -2.85,0.7 -2.8,0.7 -2.8,0.7 -2.75,0.7 -2.95,0.6 -3.15,0.5 -3.3,0.35 -4,-0.15 -4.6,-0.8 -5.15,-1.6 -5.1,-1.5 -5.05,-1.4 -5,-1.25 -5,-1.2 -5,-1.1 -4.95,-1.05 -5,-1.1 -5.05,-1.2 -5.1,-1.25 -6.1,-2.55 -7,-3.9 -7.75,-5.3 -7.8,-5.4 -7.8,-5.45 -7.85,-5.5 -7.8,-5.45 -7.7,-5.45 -7.65,-5.4 -7.9,-5.8 -8.05,-6.25 -8.2,-6.7 -8.75,-7.35 -9,-8.25 -9,-9.4 -9,-9.45 -9,-9.45 -9,-9.5 -9.25,-8.85 -9.25,-8.1 -9,-7.25 -8.85,-6.9 -8.7,-6.55 -8.55,-6.3 -8.5,-6.05 -8.45,-5.8 -8.3,-5.5 -7.55,-4.05 -6.7,-2.65 -5.85,-1.35 -5.3,-0.6 -4.7,0 -4.05,0.35 L-4.075,0.325 L-4.05,0.35 C-2.5,2.3 -0.8,2.9 1.05,2.25 1.1,2.25 1.1,2.25 1.15,2.25 L1.125,2.225 L1.35,2.15 C1.55,2.1 1.75,2 1.95,1.9 2.3,1.7 2.6,1.45 2.95,1.2 2.85,1.2 2.75,1.2 2.65,1.2 2.9,0.85 3,0.35 3,-0.2 3.1,-2.85 2.05,-5.05 -0.1,-6.7 -0.15,-6.75 -0.2,-6.8 -0.25,-6.85 -0.85,-7.6 -1.4,-8.4 -1.9,-9.2 -1.9,-9.15 -1.9,-9.05 -1.9,-8.95 -2,-9.15 -2.1,-9.35 -2.2,-9.55 -2.65,-10.5 -3.3,-11.1 -4.2,-11.3 -4.25,-11.4 -4.4,-11.5 -4.55,-11.55 -4.65,-11.6 -4.75,-11.6 -4.8,-11.6z"/>
      </g>
      <animate attributeName="display" begin="0s" repeatCount="indefinite" dur="0.167s" keyTimes="0;0.798;1" values="none;inline;none"/>
    </g>
    <g id="backArmLowerLeft2_2">
      <g id="element1">
        <path id="path2" fill="#FFC" d="M2.35,-1.875 Q1.902,-3.305 1,-4.6 C0.45,-5.4 -0.05,-6.1 -0.5,-6.7 -1.05,-7.3 -1.6,-7.95 -2.05,-8.7 -2.4,-9.25 -2.7,-9.7 -2.95,-10.05 L-2.95,-10.175 L-2.95,-10.15 C-3.25,-10.45 -3.55,-10.7 -3.85,-10.9 -3.95,-10.95 -4.05,-11 -4.1,-11.05 -4.2,-11.2 -4.3,-11.3 -4.45,-11.4 -4.55,-11.5 -4.65,-11.6 -4.75,-11.65 L-4.775,-11.675 L-4.75,-11.675 L-4.75,-11.65 C-5.25,-11.75 -5.8,-11.7 -6.35,-11.55 -6.7,-11.4 -7.05,-11.2 -7.4,-10.95 -7.25,-11.15 -7.05,-11.35 -6.8,-11.5 -7.95,-11.05 -8.65,-10.25 -8.95,-9.1 -9,-8.9 -9.05,-8.7 -9.05,-8.45 -9.1,-8.3 -9.1,-8.2 -9.05,-8.05 -9.05,-7.8 -8.95,-7.75 -8.75,-7.8 -8.7,-7.55 -8.6,-7.35 -8.45,-7.1 -8.4,-6.95 -8.3,-6.8 -8.25,-6.65 -8.3,-6.9 -8.3,-7.2 -8.3,-7.45 -8.25,-6.95 -8.2,-6.45 -8.1,-5.95 -7.45,-4.9 -6.75,-3.9 -5.95,-2.95 -5.4,-2.3 -5,-1.65 -4.75,-0.95 -3.8,0.1 -2.6,0.95 -1.25,1.5 -0.6,1.8 0.1,1.95 0.75,1.9 L0.75,1.85 C1.3,1.65 1.7,1.35 1.95,0.9 2.05,0.75 2.15,0.65 2.2,0.55 2.2,0.55 2.2,0.55 2.25,0.6 2.35,0.35 2.45,0.15 2.55,-0.1 2.5,-0.65 2.45,-1.25 2.35,-1.85"/>
        <path id="path3" fill="#630" d="M1,-4.6 Q1.902,-3.305 2.35,-1.875 L2.35,-1.85 C2.45,-1.25 2.5,-0.65 2.55,-0.1 2.45,0.15 2.35,0.35 2.25,0.6 2.2,0.55 2.2,0.55 2.2,0.55 2.15,0.65 2.05,0.75 1.95,0.9 1.7,1.35 1.3,1.65 0.75,1.85 0.75,1.85 0.75,1.85 0.8,1.9 L0.75,1.9 C0.1,1.95 -0.6,1.8 -1.25,1.5 -2.6,0.95 -3.8,0.1 -4.75,-0.95 -5,-1.65 -5.4,-2.3 -5.95,-2.95 -6.75,-3.9 -7.45,-4.9 -8.1,-5.95 -8.2,-6.45 -8.25,-6.95 -8.3,-7.45 -8.3,-7.2 -8.3,-6.9 -8.25,-6.65 -8.3,-6.8 -8.4,-6.95 -8.45,-7.1 -8.6,-7.35 -8.7,-7.55 -8.75,-7.8 -8.95,-7.75 -9.05,-7.8 -9.05,-8.05 -9.1,-8.2 -9.1,-8.3 -9.05,-8.45 -9.15,-7.75 -9.05,-7.1 -8.7,-6.55 -8.65,-6 -8.4,-5.4 -8,-4.85 -7.25,-3.7 -6.45,-2.65 -5.6,-1.75 -5.25,-1 -4.75,-0.3 -4.1,0.45 -2.65,2 -1.1,2.6 0.6,2.15 0.75,2.1 0.85,2.1 1,2.05 1.2,2.1 1.4,2.05 1.65,1.95 2.15,1.7 2.4,1.45 2.45,1.15 2.55,1.05 2.65,0.95 2.7,0.9 L2.7,0.875 L2.7,0.85 C2.9,0.6 3,0.25 3.05,-0.2 3.1,-1.05 2.9,-1.85 2.55,-2.5 2.25,-3.85 1.5,-5.05 0.3,-6.1 -0.1,-6.75 -0.45,-7.4 -0.8,-8.05 -1.35,-9.1 -2.1,-9.95 -2.95,-10.55 -3.05,-10.7 -3.15,-10.85 -3.3,-10.95 -3.75,-11.35 -4.2,-11.6 -4.75,-11.65 -4.65,-11.6 -4.55,-11.5 -4.45,-11.4 -4.3,-11.3 -4.2,-11.2 -4.1,-11.05 -4.05,-11 -3.95,-10.95 -3.85,-10.9 -3.55,-10.7 -3.25,-10.45 -2.95,-10.15 -2.7,-9.9 -2.4,-9.65 -2.1,-9.35 -2.35,-9.6 -2.65,-9.85 -2.95,-10.05 -2.7,-9.7 -2.4,-9.25 -2.05,-8.7 -1.6,-7.95 -1.05,-7.3 -0.5,-6.7 -0.05,-6.1 0.45,-5.4 1,-4.6z"/>
      </g>
      <animate attributeName="display" begin="0s" repeatCount="indefinite" dur="0.167s" keyTimes="0;0.399;0.798;1" values="none;inline;none;none"/>
    </g>
    <g id="backArmLowerLeft2_0">
      <g id="element">
        <path id="path" fill="#630" d="M2.5,-2.9 Q1.723,-4.507 0.675,-5.9 L0.7,-5.9 C-0.1,-7.15 -1,-8.3 -1.95,-9.4 -2.15,-9.85 -2.4,-10.2 -2.7,-10.55 -3.4,-11.4 -4.15,-11.8 -5,-11.85 -4.4,-11.5 -3.9,-11 -3.5,-10.35 -3.2,-10.15 -2.9,-9.9 -2.6,-9.65 -2.3,-9 -1.85,-8.35 -1.2,-7.8 -0.9,-7.15 -0.45,-6.5 0.15,-5.85 1.05,-4.95 1.75,-3.95 2.25,-2.9 2.5,-1.85 2.55,-0.7 2.4,0.45 2,1 1.4,1.4 0.6,1.55 -0.45,1.75 -1.35,1.65 -2.15,1.3 -2.6,0.6 -3.1,-0.05 -3.7,-0.6 -4.1,-1 -4.5,-1.4 -4.9,-1.75 -5.1,-2.1 -5.35,-2.4 -5.6,-2.7 -6.15,-3.3 -6.65,-3.9 -7.15,-4.55 -7.5,-5.2 -7.8,-5.85 -8.05,-6.5 -8.2,-6.85 -8.35,-7.25 -8.4,-7.6 -8.65,-7.95 -8.8,-8.4 -8.85,-8.95 -8.85,-9 -8.85,-9 -8.85,-9.05 -8.9,-8.7 -8.95,-8.4 -8.9,-8.05 -8.85,-7.05 -8.6,-6.2 -8.1,-5.45 -7.95,-5.1 -7.8,-4.8 -7.55,-4.45 -7.4,-4.2 -7.25,-4 -7.1,-3.8 -6.8,-3.3 -6.45,-2.75 -6,-2.2 -5.45,-1.45 -4.8,-0.8 -4.15,-0.25 -4.2,-0.2 -4.2,-0.2 -4.15,-0.15 -3.3,1.25 -2.05,2.05 -0.45,2.2 0.8,2.35 1.65,2.1 2.15,1.55 2.1,1.65 2.1,1.75 2.05,1.85 2.65,1.1 2.95,0.3 3,-0.55 3,-0.4 3,-0.2 3.05,-0.05 3.15,-1.05 2.95,-2 2.5,-2.9z"/>
        <path id="path1" fill="#FFC" d="M2.25,-2.9 C1.75,-3.95 1.05,-4.95 0.15,-5.85 -0.45,-6.5 -0.9,-7.15 -1.2,-7.8 -1.85,-8.35 -2.3,-9 -2.6,-9.65 -2.9,-9.9 -3.2,-10.15 -3.5,-10.35 -3.9,-11 -4.4,-11.5 -5,-11.85 -5.65,-11.9 -6.35,-11.65 -7.1,-11.15 -7.35,-11 -7.65,-10.8 -7.9,-10.65 -8.05,-10.55 -8.15,-10.45 -8.2,-10.35 -8.1,-10.6 -8,-10.8 -7.9,-11 -8.45,-10.45 -8.75,-9.8 -8.85,-9.05 L-8.875,-9.075 L-8.875,-9.05 L-8.85,-9.05 C-8.85,-9 -8.85,-9 -8.85,-8.95 -8.8,-8.4 -8.65,-7.95 -8.4,-7.6 -8.35,-7.25 -8.2,-6.85 -8.05,-6.5 -7.8,-5.85 -7.5,-5.2 -7.15,-4.55 -6.65,-3.9 -6.15,-3.3 -5.6,-2.7 -5.35,-2.4 -5.1,-2.1 -4.9,-1.75 -4.5,-1.4 -4.1,-1 -3.7,-0.6 -3.1,-0.05 -2.6,0.6 -2.15,1.3 -1.35,1.65 -0.45,1.75 0.6,1.55 1.4,1.4 2,1 2.4,0.45 2.55,-0.7 2.5,-1.85 2.25,-2.9z"/>
      </g>
      <animate attributeName="display" begin="0s" repeatCount="indefinite" dur="0.167s" keyTimes="0;0.399;1" values="inline;none;none"/>
    </g>
  </g>
</svg>