<?xml version="1.0" encoding="UTF-8" standalone="no"?>
<!-- Generator: flash2svg, http://dissentgraphics.com/tools/flash2svg -->

<svg
   xmlns:dc="http://purl.org/dc/elements/1.1/"
   xmlns:cc="http://creativecommons.org/ns#"
   xmlns:rdf="http://www.w3.org/1999/02/22-rdf-syntax-ns#"
   xmlns:svg="http://www.w3.org/2000/svg"
   xmlns="http://www.w3.org/2000/svg"
   xmlns:sodipodi="http://sodipodi.sourceforge.net/DTD/sodipodi-0.dtd"
   xmlns:inkscape="http://www.inkscape.org/namespaces/inkscape"
   id="Avatar"
   image-rendering="auto"
   version="1.1"
   x="0px"
   y="0px"
   width="8.2083607"
   height="14.952026"
   viewBox="0 0 8.2083607 14.952026"
   inkscape:version="0.48.4 r9939"
   sodipodi:docname="Avatar_sideArmLowerOffside2.svg">
  <metadata
     id="metadata3028">
    <rdf:RDF>
      <cc:Work
         rdf:about="">
        <dc:format>image/svg+xml</dc:format>
        <dc:type
           rdf:resource="http://purl.org/dc/dcmitype/StillImage" />
      </cc:Work>
    </rdf:RDF>
  </metadata>
  <sodipodi:namedview
     pagecolor="#ffffff"
     bordercolor="#666666"
     borderopacity="1"
     objecttolerance="10"
     gridtolerance="10"
     guidetolerance="10"
     inkscape:pageopacity="0"
     inkscape:pageshadow="2"
     inkscape:window-width="640"
     inkscape:window-height="480"
     id="namedview3026"
     showgrid="false"
     fit-margin-top="0"
     fit-margin-left="0"
     fit-margin-right="0"
     fit-margin-bottom="0"
     inkscape:zoom="1.8730159"
     inkscape:cx="37.069615"
     inkscape:cy="-49.2"
     inkscape:window-x="0"
     inkscape:window-y="0"
     inkscape:window-maximized="0"
     inkscape:current-layer="Avatar" />
  <defs
     id="defs3005" />
  <g
     id="sideArmLowerOffside3"
     overflow="visible"
     style="overflow:visible"
     transform="translate(3.0696152,1.1520259)">
    <g
       id="sideArmLowerOffside2_4">
      <g
         id="element2">
        <path
           id="path7"
           d="M 0.725,-0.725 Q 0.542,-1.022 0.15,-1.1 c -0.65,-0.15 -1.2,0.05 -1.65,0.65 -0.25,0.35 -0.45,0.7 -0.65,1.05 -0.3,0.65 -0.45,1.25 -0.5,1.8 L -2.625,2.375 -2.6,2.4 c -0.15,0.55 -0.25,1.1 -0.25,1.7 0,0.55 0,1.05 0.05,1.55 0,-0.1 0,-0.2 -0.05,-0.3 0,1.35 0.05,2.75 0.15,4.1 0.1,1.05 0.4,1.9 0.9,2.55 0.05,0.3 0.25,0.55 0.6,0.8 1.25,0.8 2.55,1 3.95,0.6 -0.05,0 -0.15,0 -0.2,-0.05 C 3,13.4 3.4,13.2 3.85,12.85 5.05,11.85 5.4,10.8 4.95,9.7 4.8,9 4.65,8.3 4.45,7.55 4,5.9 3.55,4.25 3.15,2.6 3.15,2.75 3.15,2.85 3.2,3 3.15,2.75 3.05,2.45 2.95,2.15 2.5,0.9 1.8,-0.05 0.75,-0.7"
           inkscape:connector-curvature="0"
           style="fill:#663300" />
        <path
           id="path8"
           d="M 3.4,5.15 C 3.35,4.7 3.3,4.2 3.25,3.75 2.8,2.65 2.2,1.6 1.45,0.65 1.15,0.25 0.9,-0.15 0.7,-0.6 c -1.3,-0.45 -2.2,0.15 -2.65,1.8 -0.1,0.35 -0.25,0.6 -0.4,0.85 -0.3,1.45 -0.3,3.05 -0.05,4.8 0.1,0.7 0.15,1.45 0.2,2.2 0.05,0.45 0.15,0.95 0.25,1.45 0.15,0.7 0.4,1.4 0.75,2.05 0.65,0.5 1.45,0.75 2.4,0.7 0.25,0 0.55,0 0.8,0.05 L 2,13.275 2,13.25 C 3.85,13 4.7,11.95 4.55,10.15 4.55,9.8 4.5,9.4 4.35,9.05 4.35,9 4.35,8.9 4.4,8.85 l 0.075,0 0.025,0 C 3.95,7.7 3.55,6.5 3.4,5.15 z"
           inkscape:connector-curvature="0"
           style="fill:#ffffcc" />
      </g>
      <animate
         attributeName="display"
         begin="0s"
         repeatCount="indefinite"
         dur="0.167s"
         keyTimes="0;0.798;1"
         values="none;inline;none"
         id="animate3012" />
    </g>
    <g
       id="sideArmLowerOffside2_2">
      <g
         id="element1">
        <path
           id="path3"
           d="m -0.3,-1.1 q -0.65,0.2 -1.2,0.65 c -0.45,0.6 -0.8,1.25 -1.05,1.9 -0.25,0.7 -0.35,1.4 -0.3,2.05 -0.15,0.7 -0.2,1.45 -0.05,2.2 0.1,0.55 0.15,1.15 0.2,1.7 -0.1,-0.35 -0.2,-0.75 -0.25,-1.1 0.05,0.75 0.15,1.55 0.25,2.35 0,0.5 0.05,0.95 0.2,1.3 0.05,0.25 0.05,0.55 0.1,0.8 0.3,1.75 1.25,2.75 2.8,3 C 0.4,13.65 0.35,13.6 0.3,13.6 0.15,13.55 0,13.45 -0.15,13.4 0.5,13.75 1.25,13.8 2.1,13.55 2.85,13.35 3.4,13.05 3.85,12.7 4.1,12.55 4.3,12.35 4.45,12.1 4.85,11.55 5,10.9 4.9,10.15 5,9.4 4.9,8.55 4.65,7.7 4.05,5.75 3.4,3.9 2.75,2.05 2.7,1.8 2.6,1.5 2.5,1.2 2.05,0 1.3,-0.75 0.15,-1 0.05,-1.15 -0.1,-1.2 -0.3,-1.1 z m -2,2.95 c 0.3,-1.5 1.05,-2.4 2.25,-2.7 0.45,0.2 0.8,0.5 1.1,0.85 0.6,0.65 1.1,1.4 1.5,2.2 0.15,0.5 0.3,1 0.45,1.5 0.65,2.05 1.2,4.2 1.6,6.4 -0.05,0.3 -0.15,0.65 -0.2,1 C 4.35,11.35 4.3,11.55 4.15,11.7 2.9,13.4 1.3,13.85 -0.6,13.1 -0.95,12.85 -1.25,12.45 -1.4,12 -1.75,10.9 -2.1,9.8 -2.35,8.75 -2.4,8.65 -2.4,8.55 -2.4,8.45 -2.5,6.7 -2.6,5.05 -2.65,3.5 -2.55,2.95 -2.45,2.4 -2.3,1.85 z"
           inkscape:connector-curvature="0"
           style="fill:#663300" />
        <path
           id="path4"
           d="m -2.3,1.85 c -0.15,0.55 -0.25,1.1 -0.35,1.65 0.05,1.55 0.15,3.2 0.25,4.95 0,0.1 0,0.2 0.05,0.3 0.25,1.05 0.6,2.15 0.95,3.25 0.15,0.45 0.45,0.85 0.8,1.1 1.9,0.75 3.5,0.3 4.75,-1.4 0.15,-0.15 0.2,-0.35 0.25,-0.6 0.05,-0.35 0.15,-0.7 0.2,-1 C 4.2,7.9 3.65,5.75 3,3.7 2.85,3.2 2.7,2.7 2.55,2.2 2.15,1.4 1.65,0.65 1.05,0 0.75,-0.35 0.4,-0.65 -0.05,-0.85 -1.25,-0.55 -2,0.35 -2.3,1.85 z"
           inkscape:connector-curvature="0"
           style="fill:#ffffcc" />
      </g>
      <animate
         attributeName="display"
         begin="0s"
         repeatCount="indefinite"
         dur="0.167s"
         keyTimes="0;0.399;0.798;1"
         values="none;inline;none;none"
         id="animate3018" />
    </g>
    <g
       id="sideArmLowerOffside2_0">
      <g
         id="element">
        <path
           id="path"
           d="m -0.05,-1.1 q -0.85,0.1 -1.5,0.65 c -0.05,0.05 -0.1,0.15 -0.15,0.25 -0.7,0.9 -1.1,1.9 -1.15,3.05 0,0.25 0,0.5 0,0.75 -0.05,0.15 -0.05,0.35 -0.1,0.5 -0.1,0.55 -0.15,1.15 -0.1,1.7 0.05,1.1 0.15,2.15 0.4,3.2 -0.1,0.65 0,1.35 0.25,2.05 0.65,1.8 1.9,2.7 3.75,2.75 C 1.4,13.7 1.4,13.65 1.25,13.6 1.7,13.7 2.2,13.65 2.75,13.45 4.6,12.75 5.35,11.6 4.9,10 4.85,9.55 4.75,9.15 4.6,8.8 4.5,8.15 4.35,7.5 4.15,6.85 3.8,5.8 3.55,4.65 3.4,3.5 3.25,2.25 2.85,1.25 2.1,0.45 2.1,0.2 2,-0.05 1.85,-0.25 1.5,-0.65 1,-0.9 0.45,-0.95 0.3,-1.05 0.15,-1.1 -0.05,-1.1 z"
           inkscape:connector-curvature="0"
           style="fill:#663300" />
        <path
           id="path1"
           d="m 0.75,-0.4 c -0.2,-0.1 -0.4,-0.25 -0.55,-0.4 -0.85,0.15 -1.5,0.5 -2,1.15 -0.35,0.6 -0.6,1.25 -0.75,1.95 l -0.025,0 0.025,0 c -0.05,0.55 -0.1,1.1 -0.1,1.65 0,0.25 0,0.45 0.05,0.65 0.15,0.95 0.25,1.85 0.2,2.75 C -2.5,7 -2.55,6.7 -2.6,6.4 c 0.05,0.75 0.1,1.45 0.25,2.2 0.15,0.95 0.35,1.85 0.6,2.8 0.25,0.55 0.65,1 1.2,1.3 0.5,0.25 1.2,0.5 2.1,0.65 C 2.4,13.5 3.4,12.8 4.5,11.35 4.55,10.9 4.6,10.5 4.6,10.1 4.6,10.05 4.6,10 4.6,9.95 3.85,7.4 3.2,4.85 2.55,2.25 2.3,1.35 1.95,0.6 1.4,0 1.2,-0.15 1,-0.3 0.75,-0.4 z"
           inkscape:connector-curvature="0"
           style="fill:#ffffcc" />
      </g>
      <animate
         attributeName="display"
         begin="0s"
         repeatCount="indefinite"
         dur="0.167s"
         keyTimes="0;0.399;1"
         values="inline;none;none"
         id="animate3024" />
    </g>
  </g>
</svg>
