<?xml version="1.0" encoding="UTF-8" standalone="no"?>
<!-- Generator: flash2svg, http://dissentgraphics.com/tools/flash2svg -->

<svg
   xmlns:dc="http://purl.org/dc/elements/1.1/"
   xmlns:cc="http://creativecommons.org/ns#"
   xmlns:rdf="http://www.w3.org/1999/02/22-rdf-syntax-ns#"
   xmlns:svg="http://www.w3.org/2000/svg"
   xmlns="http://www.w3.org/2000/svg"
   xmlns:sodipodi="http://sodipodi.sourceforge.net/DTD/sodipodi-0.dtd"
   xmlns:inkscape="http://www.inkscape.org/namespaces/inkscape"
   id="Avatar"
   image-rendering="auto"
   version="1.1"
   x="0px"
   y="0px"
   width="23.75631"
   height="35.768913"
   viewBox="0 0 23.75631 35.768913"
   inkscape:version="0.48.4 r9939"
   sodipodi:docname="Avatar_backTorso2.svg">
  <metadata
     id="metadata3351">
    <rdf:RDF>
      <cc:Work
         rdf:about="">
        <dc:format>image/svg+xml</dc:format>
        <dc:type
           rdf:resource="http://purl.org/dc/dcmitype/StillImage" />
      </cc:Work>
    </rdf:RDF>
  </metadata>
  <sodipodi:namedview
     pagecolor="#ffffff"
     bordercolor="#666666"
     borderopacity="1"
     objecttolerance="10"
     gridtolerance="10"
     guidetolerance="10"
     inkscape:pageopacity="0"
     inkscape:pageshadow="2"
     inkscape:window-width="640"
     inkscape:window-height="480"
     id="namedview3349"
     showgrid="false"
     fit-margin-top="0"
     fit-margin-left="0"
     fit-margin-right="0"
     fit-margin-bottom="0"
     inkscape:zoom="1.8730159"
     inkscape:cx="30.53936"
     inkscape:cy="-22.095492"
     inkscape:window-x="0"
     inkscape:window-y="0"
     inkscape:window-maximized="0"
     inkscape:current-layer="Avatar" />
  <defs
     id="defs3323" />
  <g
     id="backTorso3"
     overflow="visible"
     transform="translate(12.556309,28.5)"
     style="overflow:visible">
    <g
       id="backTorso2_4">
      <g
         id="element2">
        <path
           id="path23"
           d="M 3,-25.725 Q 3.012,-26.099 2.8,-26.5 c -0.55,-1.2 -1.5,-1.85 -2.75,-2 -0.7,0.05 -1.4,0.25 -2.1,0.55 -1.1,0.5 -1.75,1.3 -2,2.35 -0.05,0 -0.15,0 -0.2,0.05 -0.05,-0.05 -0.05,-0.1 -0.05,-0.15 -0.1,0.05 -0.2,0.1 -0.3,0.15 -0.05,0 -0.05,0 -0.1,0 0.2,-0.1 0.4,-0.2 0.6,-0.25 -1.65,0.2 -2.7,1 -3.15,2.4 -0.55,0.85 -0.85,1.75 -0.8,2.7 -0.05,0.2 -0.05,0.4 -0.1,0.6 -0.25,1.85 -0.25,3.55 -0.1,5.1 -1.55,3 -2.6,6.2 -3.25,9.65 -0.85,4.4 0.15,8 2.9,10.85 C -8.85,5.15 -9.05,4.75 -9.25,4.4 -9.15,4.55 -9,4.7 -8.8,4.85 -6.6,6.7 -4.15,7.45 -1.4,7.2 0.05,7.35 1.55,7.25 3.1,6.95 2.75,6.9 2.45,6.9 2.15,6.85 2.8,6.8 3.5,6.7 4.2,6.55 7.35,5.9 9.1,4.3 9.5,1.85 9.75,1.35 9.95,0.75 10.05,0.1 c 0.45,-3.15 0.1,-6.2 -0.95,-9.2 0,0.2 0,0.4 0,0.6 C 9.05,-8.75 9,-8.95 8.95,-9.2 8.5,-11.3 8,-13.35 7.5,-15.4 c -0.05,0.15 -0.1,0.25 -0.1,0.4 0,-0.4 0,-0.8 -0.05,-1.2 0,-0.2 0,-0.4 -0.05,-0.6 0.1,-0.5 0.15,-1 0.1,-1.55 -0.05,-0.55 -0.1,-1.05 -0.15,-1.55 0.05,0.1 0.05,0.2 0.1,0.3 C 7.4,-20.45 7.3,-21.25 7,-22.1 6.25,-24.05 4.95,-25.25 3,-25.7"
           inkscape:connector-curvature="0"
           style="fill:#663300" />
        <path
           id="path24"
           d="m 3,-25.55 c -0.05,0.2 -0.1,0.4 -0.25,0.6 C 1.8,-28 0,-28.45 -2.7,-26.4 c -0.4,0.3 -0.8,0.55 -1.25,0.8 0.2,0 0.35,0.05 0.45,0.2 -0.25,0.35 -0.55,0.5 -0.95,0.55 -0.05,0 -0.05,0 -0.1,0 -0.35,0.45 -0.9,0.95 -1.75,1.55 -0.25,0.2 -0.5,0.4 -0.7,0.65 -0.15,0.5 -0.2,1.05 -0.2,1.7 0,0.2 0,0.4 0,0.6 0.05,1.15 -0.05,2.3 -0.25,3.45 -0.15,0.9 -0.4,1.7 -0.75,2.35 l -0.1,-0.025 0,0.025 c -1.1,3.35 -1.8,6.85 -2.05,10.45 0.05,0 0.1,0 0.15,-0.05 0.85,-0.25 1.65,-0.4 2.5,-0.5 0.5,-0.05 1,-0.1 1.55,-0.15 0.45,0 0.85,0 1.25,0.05 0.05,0 0.05,0 0.05,0.05 0.35,-0.1 0.75,-0.15 1.1,-0.2 0.55,-0.05 1.1,-0.1 1.65,-0.15 0.05,0 0.1,0 0.15,0 l 0,-0.2 c 0.75,-0.15 1.5,-0.25 2.3,-0.25 1.85,0 3.75,0.2 5.6,0.55 0.25,0.05 0.45,0.1 0.7,0.15 -0.7,-0.25 -1,-0.5 -0.95,-0.7 0.85,0.25 1.65,0.55 2.45,0.9 0.45,0.15 0.9,0.4 1.3,0.65 -0.6,-0.15 -1.2,-0.3 -1.85,-0.5 0.3,0.1 0.6,0.25 0.95,0.45 -1.8,-0.15 -3.7,-0.35 -5.7,-0.65 -2.15,-0.05 -4.35,0.1 -6.6,0.35 -1.45,0.2 -2.8,0.35 -4.1,0.5 -0.35,0.1 -0.75,0.2 -1.15,0.3 -0.55,0.15 -1,0.2 -1.4,0.2 -0.05,0.75 -0.1,1.55 -0.1,2.35 -0.05,1.55 0.2,2.95 0.75,4.3 l -0.025,-0.025 0.125,0.1 0,0.025 c 0.05,-0.15 0.1,-0.25 0.25,-0.3 1.2,1.8 3.05,2.9 5.6,3.3 0.35,0.05 0.65,0.1 1,0.15 0.4,0.05 0.85,0.05 1.3,0.05 0.45,0 0.95,0 1.4,0 3.15,0.05 5.75,-1 7.9,-3.15 L 7.775,3.5 7.75,3.45 C 9.7,0.8 10.25,-2.25 9.5,-5.6 9.45,-5.85 9.4,-6.05 9.35,-6.3 8.5,-8.15 7.8,-10.25 7.35,-12.55 7.3,-12.9 7.25,-13.2 7.2,-13.55 6.75,-15.3 6.45,-17.15 6.3,-19.2 6.25,-19.8 6.25,-20.4 6.3,-20.95 6.25,-21.2 6.25,-21.45 6.25,-21.65 5.8,-22.3 5.3,-23 4.7,-23.65 4.1,-24.3 3.55,-24.95 3,-25.55 z m -2.5,7 c 0.15,1.65 0.15,3.3 0.1,4.95 -0.05,1 -0.15,1.95 -0.3,2.9 -0.05,-0.9 -0.1,-1.85 -0.15,-2.8 -0.15,0.65 -0.4,1.3 -0.65,1.95 0.25,-2.05 0.4,-4.25 0.5,-6.55 0.05,-1.05 0.1,-1.95 0.25,-2.8 0.1,0.75 0.2,1.55 0.25,2.35 z"
           inkscape:connector-curvature="0"
           style="fill:#ffffcc" />
        <path
           id="path25"
           d="m 0.5,-18.55 c -0.05,-0.8 -0.15,-1.6 -0.25,-2.35 -0.15,0.85 -0.2,1.75 -0.25,2.8 -0.1,2.3 -0.25,4.5 -0.5,6.55 0.25,-0.65 0.5,-1.3 0.65,-1.95 0.05,0.95 0.1,1.9 0.15,2.8 0.15,-0.95 0.25,-1.9 0.3,-2.9 0.05,-1.65 0.05,-3.3 -0.1,-4.95 z m -8.8,4 c 0.05,-0.05 0.05,-0.15 0.1,-0.2 0,0.05 0,0.15 0,0.2 l -0.1,-0.025 z m 6.35,9.3 c 1,0.05 2.05,0.15 3.1,0.3 C 0.1,-5 -0.9,-5.05 -1.95,-5.05 l 0,-0.2 z m -8.4,1.35 c 0.6,0 1.25,-0.1 2,-0.25 1.05,-0.2 2.05,-0.35 3.1,-0.5 -0.55,0.1 -1.05,0.2 -1.55,0.35 -0.55,0.05 -1.05,0.15 -1.6,0.25 -0.7,0.15 -1.35,0.35 -2,0.6 0,-0.15 0,-0.3 0.05,-0.45 z"
           inkscape:connector-curvature="0"
           style="fill:#663300" />
        <path
           id="path37"
           d="m -10.35,-3.9 c -0.05,0.15 -0.05,0.3 -0.05,0.45 0.65,-0.25 1.3,-0.45 2,-0.6 0.55,-0.1 1.05,-0.2 1.6,-0.25 0.5,-0.15 1,-0.25 1.55,-0.35 -1.05,0.15 -2.05,0.3 -3.1,0.5 -0.75,0.15 -1.4,0.25 -2,0.25 z"
           inkscape:connector-curvature="0"
           style="fill:#ffffcc" />
      </g>
      <animate
         attributeName="display"
         begin="0s"
         repeatCount="indefinite"
         dur="0.167s"
         keyTimes="0;0.798;1"
         values="none;inline;none"
         id="animate3332" />
    </g>
    <g
       id="backTorso2_2">
      <g
         id="element1">
        <path
           id="path11"
           d="M 3.025,-25.9 Q 3.182,-26.896 2.3,-27.5 c -1.2,-0.8 -2.55,-1.05 -4.05,-0.7 -0.15,0.05 -0.3,0.1 -0.45,0.15 -0.8,0.35 -1.4,0.85 -1.75,1.55 -0.15,0.25 -0.2,0.5 -0.25,0.75 -1.6,0.3 -2.65,1.2 -3.2,2.75 -0.35,0.95 -0.35,1.85 -0.1,2.7 -0.15,0.35 -0.3,0.7 -0.4,1.1 -0.3,1.35 -0.4,2.55 -0.35,3.6 -0.1,0.3 -0.2,0.6 -0.35,0.9 -0.8,1.75 -1.4,3.55 -1.75,5.4 -0.65,1.75 -1.1,3.55 -1.4,5.35 -0.55,3 -0.1,5.5 1.25,7.5 0.15,0.25 0.35,0.55 0.6,0.8 0.45,0.45 0.95,0.9 1.5,1.35 -0.15,-0.2 -0.35,-0.4 -0.5,-0.6 0.25,0.15 0.55,0.3 0.9,0.45 3.5,1.45 7.05,1.85 10.7,1.2 0.25,0 0.55,0 0.8,0 C 4.5,6.8 5.45,6.5 6.35,5.9 9,4.25 10.4,1.85 10.6,-1.3 10.35,-0.9 10.15,-0.45 10,0 c 0.15,-0.55 0.25,-1.1 0.35,-1.65 0.05,0.1 0.15,0.2 0.25,0.35 0.05,0.1 0.15,0.2 0.2,0.3 -0.1,-0.35 -0.25,-0.7 -0.4,-1.05 0,-0.2 0,-0.4 0,-0.55 0.05,0.05 0.15,0.05 0.2,0.1 -0.05,-0.05 -0.15,-0.1 -0.2,-0.15 0.05,-1.65 -0.25,-3.4 -0.95,-5.2 C 9.4,-8.1 9.35,-8.3 9.3,-8.55 8.65,-11.7 7.9,-14.75 7.15,-17.75 7.1,-18.75 7,-19.9 6.85,-21.25 6.55,-23.6 5.3,-25.15 3.05,-25.9"
           inkscape:connector-curvature="0"
           style="fill:#663300" />
        <path
           id="path12"
           d="m 3.1,-25.15 c -0.55,-0.3 -0.65,-0.55 -0.2,-0.8 -1.1,-1.65 -2.85,-2 -5.2,-0.95 -0.55,0.25 -0.95,0.6 -1.3,1.1 0.1,0 0.2,0 0.3,0.05 0.05,0 0.05,0.05 0.05,0.1 -0.2,0.05 -0.4,0.1 -0.55,0.15 -0.15,0.1 -0.3,0.15 -0.45,0.15 -1.35,0.55 -2.2,1.55 -2.55,3 -0.15,0.45 -0.2,0.9 -0.25,1.35 l -0.025,0 0.025,0 c 0.05,1.45 -0.1,2.95 -0.55,4.4 -0.05,0.1 -0.05,0.2 -0.05,0.3 -0.15,1.75 -0.6,3.55 -1.4,5.3 -0.15,0.3 -0.3,0.6 -0.45,0.9 -0.55,2 -0.85,4.05 -1,6.1 0.45,-0.25 0.9,-0.4 1.4,-0.55 1.35,-0.45 2.75,-0.7 4.2,-0.75 0.55,-0.05 1.05,-0.05 1.6,-0.05 0.05,0 0.1,0 0.15,0 0.3,-0.05 0.6,-0.15 0.95,-0.25 2.2,0.05 4.35,0.1 6.5,0.15 0.75,0 1.4,0.2 1.95,0.55 0.95,0.3 1.9,0.7 2.8,1.25 0.25,0.15 0.45,0.35 0.7,0.5 C 9.7,-3.7 9.65,-4.3 9.55,-4.9 9.5,-5.3 9.45,-5.7 9.45,-6.05 8.8,-8.6 8.05,-11.2 7.3,-13.75 6.95,-14.9 6.8,-16.05 6.9,-17.1 c -0.25,-1.85 -0.75,-3.7 -1.4,-5.45 -0.45,-1.15 -1.25,-2 -2.4,-2.6 z m -2.2,10.8 c -0.05,1.15 -0.2,2.15 -0.55,3.1 -0.35,-2.25 -0.55,-4.7 -0.6,-7.25 0,-1.3 0.1,-2.25 0.3,-2.9 0.6,2.25 0.9,4.6 0.85,7.05 z"
           inkscape:connector-curvature="0"
           style="fill:#ffffcc" />
        <path
           id="path13"
           d="m 0.9,-14.35 c 0.05,-2.45 -0.25,-4.8 -0.85,-7.05 -0.2,0.65 -0.3,1.6 -0.3,2.9 0.05,2.55 0.25,5 0.6,7.25 0.35,-0.95 0.5,-1.95 0.55,-3.1 z m 5.9,9.95 c 0.3,0.15 0.6,0.3 0.95,0.45 0.7,0.35 1.4,0.7 2.05,1.05 l -0.025,-0.025 0,0.05 -0.05,-0.05 L 9.75,-2.9 C 9.8,-2.75 9.8,-2.55 9.8,-2.3 9.8,1.65 7.95,4.35 4.3,5.9 3.05,5.95 1.7,6.05 0.35,6.3 -3.55,7 -6.85,6.25 -9.6,4 c -0.6,-1.1 -0.95,-2.35 -1,-3.7 -0.05,-1.35 -0.05,-2.7 0.05,-4.05 1.15,-0.4 2.4,-0.7 3.75,-0.9 0.35,-0.05 0.75,-0.1 1.1,-0.15 -1.05,0.25 -2.15,0.5 -3.25,0.8 1.05,0.15 2.15,0.1 3.3,-0.15 3.75,-0.95 7.3,-1.05 10.75,-0.4 1.1,0.3 2.2,0.7 3.25,1.2 C 7.95,-3.6 7.55,-3.85 7.1,-4.1 7,-4.2 6.9,-4.3 6.8,-4.4 z"
           inkscape:connector-curvature="0"
           style="fill:#663300" />
        <path
           id="path17"
           d="m 6.8,-4.4 c 0.1,0.1 0.2,0.2 0.3,0.3 0.45,0.25 0.85,0.5 1.25,0.75 -1.05,-0.5 -2.15,-0.9 -3.25,-1.2 -3.45,-0.65 -7,-0.55 -10.75,0.4 -1.15,0.25 -2.25,0.3 -3.3,0.15 1.1,-0.3 2.2,-0.55 3.25,-0.8 -0.35,0.05 -0.75,0.1 -1.1,0.15 -1.35,0.2 -2.6,0.5 -3.75,0.9 -0.1,1.35 -0.1,2.7 -0.05,4.05 0.05,1.35 0.4,2.6 1,3.7 2.75,2.25 6.05,3 9.95,2.3 C 1.7,6.05 3.05,5.95 4.3,5.9 7.95,4.35 9.8,1.65 9.8,-2.3 c 0,-0.25 0,-0.45 -0.05,-0.6 l -0.025,-0.025 0.05,0.05 0,-0.05 L 9.8,-2.9 C 9.15,-3.25 8.45,-3.6 7.75,-3.95 7.4,-4.1 7.1,-4.25 6.8,-4.4 z m 3.8,3.1 c -0.25,0.4 -0.45,0.85 -0.6,1.3 0.15,-0.55 0.25,-1.1 0.35,-1.65 0.05,0.1 0.15,0.2 0.25,0.35 z"
           inkscape:connector-curvature="0"
           style="fill:#ffffcc" />
      </g>
      <animate
         attributeName="display"
         begin="0s"
         repeatCount="indefinite"
         dur="0.167s"
         keyTimes="0;0.399;0.798;1"
         values="none;inline;none;none"
         id="animate3340" />
    </g>
    <g
       id="backTorso2_0">
      <g
         id="element">
        <path
           id="path"
           d="m 2.95,-25.85 q -0.271,-0.671 -0.8,-1.2 c -1.05,-1 -2.35,-1.3 -3.9,-0.95 -0.75,0.35 -1.35,0.9 -1.9,1.6 -0.2,0.25 -0.35,0.55 -0.4,0.8 -1.05,0.35 -1.9,1 -2.6,1.85 -0.95,1.15 -1.3,2.35 -1.05,3.6 -0.05,1.35 -0.2,2.65 -0.5,3.95 0.05,0 0.05,0 0.1,0 -0.15,0.25 -0.25,0.55 -0.35,0.85 -0.75,2.05 -1.25,4.05 -1.6,6 -0.35,0.95 -0.7,1.9 -0.95,2.9 -0.3,1.15 -0.45,2.25 -0.5,3.3 -0.15,0.05 -0.25,0.1 -0.4,0.15 -0.45,0.25 -0.7,0.45 -0.65,0.65 0.15,-0.05 0.35,-0.15 0.5,-0.25 0.15,-0.05 0.35,-0.15 0.5,-0.2 -0.05,2.05 0.4,3.95 1.35,5.65 -0.2,-0.25 -0.4,-0.5 -0.6,-0.75 0.25,1 0.85,1.9 1.8,2.65 C -6.45,6.8 -3.45,7.6 -0.05,7.1 1.4,7.3 2.85,7.25 4.3,7 4.25,7 4.2,7 4.15,7.05 4.3,7.25 4.55,7.25 4.8,7.1 5.15,6.95 5.45,6.75 5.75,6.6 5.9,6.55 6,6.5 6.15,6.45 7.7,5.9 8.35,5.35 8.2,4.7 8.05,4.75 7.9,4.85 7.75,4.95 9.8,2.8 10.7,0.3 10.45,-2.55 c 0,-0.15 0,-0.25 0,-0.4 0.25,0.1 0.5,0.2 0.75,0.3 C 10.95,-2.9 10.7,-3.1 10.45,-3.25 10.4,-4 10.3,-4.75 10.15,-5.5 9.8,-7.2 9.4,-8.9 8.95,-10.55 c -0.05,-0.35 -0.1,-0.75 -0.2,-1.1 -0.55,-2.25 -1,-4.5 -1.45,-6.7 -0.15,0.35 -0.25,0.75 -0.3,1.2 -0.05,-0.05 -0.05,-0.1 -0.05,-0.1 0.25,-0.9 0.4,-1.85 0.35,-2.85 -0.15,-2.95 -1.6,-4.85 -4.35,-5.75 z"
           inkscape:connector-curvature="0"
           style="fill:#663300" />
        <path
           id="path1"
           d="m 3.2,-25.25 c -0.5,-0.2 -0.6,-0.4 -0.35,-0.55 -1.15,-1.55 -2.75,-1.8 -4.9,-0.85 -0.65,0.3 -1.25,0.75 -1.7,1.35 -0.1,0.1 -0.2,0.2 -0.35,0.25 l -0.2,-0.25 c -0.85,0.7 -1.65,1.7 -2.4,3.05 -0.2,0.35 -0.35,0.7 -0.5,1.05 0.05,1.05 0,2.2 -0.1,3.35 0.05,-0.05 0.05,-0.1 0.1,-0.15 -0.3,2.05 -0.85,4.15 -1.65,6.3 -0.25,0.65 -0.5,1.25 -0.8,1.85 -0.6,2.05 -0.95,4.15 -1,6.3 0.25,-0.1 0.55,-0.2 0.85,-0.3 0.75,-0.25 1.45,-0.45 2.15,-0.65 -0.15,-0.05 -0.3,-0.05 -0.45,-0.05 0.5,-0.15 1.05,-0.3 1.6,-0.35 1.2,-0.15 2.35,-0.25 3.5,-0.4 2.45,-0.25 4.9,-0.2 7.35,0.1 1.1,0.15 2.15,0.45 3.2,1 C 7.2,-4.3 6.9,-4.4 6.6,-4.45 6.85,-4.3 7.15,-4.15 7.4,-3.9 3.55,-4.95 -0.55,-5.15 -5,-4.4 c -0.5,0.1 -1,0.15 -1.5,0.2 -0.2,0.05 -0.4,0.05 -0.6,0.1 -1.25,0.2 -2.4,0.5 -3.55,0.95 -0.05,1 0,2 0.1,3.05 0.1,1.25 0.4,2.5 0.95,3.65 1.55,1.5 3.2,2.35 5.05,2.6 1.85,0.25 3.25,0.4 4.3,0.55 C 1.8,6.65 3.85,6.35 5.9,5.7 6.15,5.65 6.4,5.55 6.65,5.45 8.3,4.05 9.35,2.25 9.8,0.1 9.8,-1.05 9.75,-2.15 9.7,-3.3 9.45,-3.4 9.15,-3.5 8.85,-3.65 7.9,-4.05 7.2,-4.4 6.65,-4.75 7.7,-4.5 8.7,-4.1 9.7,-3.65 9.55,-5.6 9.25,-7.5 8.8,-9.45 8.7,-9.2 8.6,-9 8.45,-8.8 7.9,-10.95 7.4,-13.15 7.05,-15.4 7,-15.8 6.95,-16.15 6.95,-16.5 l 0,-0.025 -0.25,0.025 c 0,-2.1 -0.4,-4.2 -1.2,-6.25 -0.45,-1.15 -1.2,-2 -2.3,-2.5 z m -2.75,10.7 c -0.05,1.1 -0.3,2.1 -0.7,3 0.05,-2.25 0.05,-4.45 -0.05,-6.7 -0.05,-1.1 0.1,-2.1 0.35,-2.95 0.4,2.2 0.55,4.4 0.4,6.65 z"
           inkscape:connector-curvature="0"
           style="fill:#ffffcc" />
        <path
           id="path2"
           d="m 0.45,-14.55 c 0.15,-2.25 0,-4.45 -0.4,-6.65 -0.25,0.85 -0.4,1.85 -0.35,2.95 0.1,2.25 0.1,4.45 0.05,6.7 0.4,-0.9 0.65,-1.9 0.7,-3 z m 6.5,-1.975 -0.25,0.025 c 0.05,-0.2 0.15,-0.4 0.2,-0.55 0,0.05 0,0.15 0.05,0.25 0,0.1 0,0.2 0,0.3 z M -4.3,-25.3 c 0.05,-0.05 0.15,-0.1 0.2,-0.15 -0.05,0.15 -0.05,0.25 0,0.4 l -0.2,-0.25 z"
           inkscape:connector-curvature="0"
           style="fill:#663300" />
      </g>
      <animate
         attributeName="display"
         begin="0s"
         repeatCount="indefinite"
         dur="0.167s"
         keyTimes="0;0.399;1"
         values="inline;none;none"
         id="animate3347" />
    </g>
  </g>
</svg>
