<?xml version="1.0" encoding="UTF-8" standalone="no"?>
<!-- Generator: flash2svg, http://dissentgraphics.com/tools/flash2svg -->

<svg
   xmlns:dc="http://purl.org/dc/elements/1.1/"
   xmlns:cc="http://creativecommons.org/ns#"
   xmlns:rdf="http://www.w3.org/1999/02/22-rdf-syntax-ns#"
   xmlns:svg="http://www.w3.org/2000/svg"
   xmlns="http://www.w3.org/2000/svg"
   xmlns:sodipodi="http://sodipodi.sourceforge.net/DTD/sodipodi-0.dtd"
   xmlns:inkscape="http://www.inkscape.org/namespaces/inkscape"
   id="Avatar"
   image-rendering="auto"
   version="1.1"
   x="0px"
   y="0px"
   width="10.738125"
   height="13.131442"
   viewBox="0 0 10.738125 13.131442"
   inkscape:version="0.48.4 r9939"
   sodipodi:docname="Avatar_sideHandClose2.svg">
  <metadata
     id="metadata3230">
    <rdf:RDF>
      <cc:Work
         rdf:about="">
        <dc:format>image/svg+xml</dc:format>
        <dc:type
           rdf:resource="http://purl.org/dc/dcmitype/StillImage" />
      </cc:Work>
    </rdf:RDF>
  </metadata>
  <sodipodi:namedview
     pagecolor="#ffffff"
     bordercolor="#666666"
     borderopacity="1"
     objecttolerance="10"
     gridtolerance="10"
     guidetolerance="10"
     inkscape:pageopacity="0"
     inkscape:pageshadow="2"
     inkscape:window-width="640"
     inkscape:window-height="480"
     id="namedview3228"
     showgrid="false"
     fit-margin-top="0"
     fit-margin-left="0"
     fit-margin-right="0"
     fit-margin-bottom="0"
     inkscape:zoom="1.8730159"
     inkscape:cx="38.283596"
     inkscape:cy="-51.931058"
     inkscape:window-x="0"
     inkscape:window-y="0"
     inkscape:window-maximized="0"
     inkscape:current-layer="Avatar" />
  <defs
     id="defs3163" />
  <g
     id="sideHandClose3"
     overflow="visible"
     style="overflow:visible"
     transform="translate(4.2835963,2.0625)">
    <g
       id="sideHandClose2_4">
      <g
         id="element2">
        <path
           id="path87"
           vector-effect="non-scaling-stroke"
           d="m 2.15,-1.25 c 0.15,0.1 0.35,0.2 0.55,0.3 C 3.25,-0.6 3.6,-0.1 3.75,0.5 3.8,0.65 3.8,0.8 3.85,0.95 3.9,1.1 4,1.3 4.05,1.5 4.2,1.75 4.35,2 4.55,2.25 c 0.05,0 0.1,0 0.15,0.05 L 4.75,2.35 C 5.8,3.05 6,3.8 5.3,4.6 5.15,4.75 4.9,4.85 4.65,4.9 c -0.25,0 -0.5,0 -0.7,-0.05 0.55,0.75 1,1.5 1.4,2.25 0.1,0.25 0.1,0.45 0,0.7 C 5.3,7.9 5.2,8.1 5.05,8.35 4.9,8.6 4.6,8.75 4.2,8.8 3.8,8.85 3.5,8.85 3.35,8.75 3.6,9.15 3.65,9.5 3.5,9.75 3.45,10.3 3,10.6 2.15,10.55 1.6,10.5 1.1,10.3 0.75,9.85 c -0.05,0.35 -0.3,0.55 -0.8,0.6 -0.2,0 -0.4,-0.05 -0.6,-0.1 0.15,-0.05 0.25,-0.05 0.4,-0.1 C -0.9,10.35 -1.55,9.95 -2.1,9 -2.2,8.85 -2.3,8.7 -2.35,8.55 m 0,-0.025 0,-0.025 C -3,7.55 -3.4,6.45 -3.55,5.2 -3.6,4.7 -3.6,4.3 -3.55,4"
           inkscape:connector-curvature="0"
           style="fill:none;stroke:#663300;stroke-width:1;stroke-linecap:round;stroke-linejoin:round" />
        <path
           id="path88"
           d="m -3.35,-0.05 q 0.021,-0.204 0.075,-0.425 L -3.25,-0.45 C -3.55,0 -3.75,0.5 -3.85,1.15 -3.9,1.4 -3.9,1.7 -3.95,1.95 -4,3 -3.95,4.05 -3.7,5 c 0.05,-0.3 0.05,-0.6 0.1,-0.95 0.05,-0.5 0,-1 -0.05,-1.45 -0.15,-1.05 0,-1.95 0.4,-2.7 l -0.1,0.05 z M 2.7,-0.95 C 2.5,-1.05 2.3,-1.15 2.15,-1.25 2.3,-1.2 2.45,-1.1 2.6,-1 2.75,-0.85 2.8,-0.7 2.85,-0.5 2.8,-0.55 2.7,-0.55 2.6,-0.6 c 0.25,0.25 0.5,0.5 0.7,0.8 0,0.15 0,0.25 0.05,0.4 0.1,0.65 0.35,1.15 0.8,1.45 C 4.2,2.1 4.2,2.1 4.25,2.1 4.7,2.55 5.1,3 5.45,3.55 5.55,3.7 5.55,3.9 5.4,4.05 4.9,4.6 4.3,4.75 3.65,4.45 3.4,4.35 3.2,4.2 2.95,4 3.15,4.35 3.4,4.6 3.7,4.75 3.8,5.3 4.1,5.8 4.65,6.3 4.75,6.4 4.85,6.5 4.9,6.6 5.25,7.65 4.9,8.25 3.9,8.45 3.3,8.4 3,8.25 3,8.1 2.95,8.2 2.95,8.3 2.95,8.4 3,8.45 3.05,8.5 3.1,8.55 c 0,0.1 0,0.2 0.05,0.35 C 3.4,10 2.85,10.35 1.6,9.95 1.65,10 1.7,10.1 1.75,10.15 1.15,10 0.75,9.6 0.5,9.05 0.55,9.15 0.6,9.25 0.65,9.35 0.55,9.3 0.45,9.3 0.4,9.25 0.45,9.35 0.5,9.45 0.55,9.55 0.45,9.5 0.35,9.55 0.3,9.65 0.25,9.8 0.15,9.9 0.05,10 -0.25,10.05 -0.5,10 -0.75,9.8 -1.4,9.25 -1.95,8.6 -2.4,7.95 -2.45,7.65 -2.55,7.35 -2.65,7.1 -3,6.05 -3.25,4.95 -3.5,3.85 c 0,0.05 0,0.1 -0.05,0.15 -0.05,0.3 -0.05,0.7 0,1.2 0.15,1.25 0.55,2.35 1.2,3.3 l 0,0.025 0,0.025 C -2.3,8.7 -2.2,8.85 -2.1,9 c 0.55,0.95 1.2,1.35 1.85,1.25 -0.15,0.05 -0.25,0.05 -0.4,0.1 0.2,0.05 0.4,0.1 0.6,0.1 C 0.45,10.4 0.7,10.2 0.75,9.85 1.1,10.3 1.6,10.5 2.15,10.55 3,10.6 3.45,10.3 3.5,9.75 3.65,9.5 3.6,9.15 3.35,8.75 3.5,8.85 3.8,8.85 4.2,8.8 4.6,8.75 4.9,8.6 5.05,8.35 5.2,8.1 5.3,7.9 5.35,7.8 5.45,7.55 5.45,7.35 5.35,7.1 4.95,6.35 4.5,5.6 3.95,4.85 4.15,4.9 4.4,4.9 4.65,4.9 4.9,4.85 5.15,4.75 5.3,4.6 6,3.8 5.8,3.05 4.75,2.35 L 4.7,2.3 C 4.65,2.25 4.6,2.25 4.55,2.25 4.35,2 4.2,1.75 4.05,1.5 4,1.3 3.9,1.1 3.85,0.95 3.8,0.8 3.8,0.65 3.75,0.5 3.6,-0.1 3.25,-0.6 2.7,-0.95 z"
           inkscape:connector-curvature="0"
           style="fill:#663300" />
        <path
           id="path89"
           vector-effect="non-scaling-stroke"
           d="m -3.6,4.05 c 0.05,-0.5 0,-1 -0.05,-1.45 -0.15,-1.05 0,-1.95 0.4,-2.7 l -0.1,0.05 q 0.021,-0.204 0.075,-0.425"
           inkscape:connector-curvature="0"
           style="fill:none;stroke:#663300;stroke-width:1;stroke-linecap:round;stroke-linejoin:round" />
        <path
           id="path90"
           d="m -3.275,-0.475 q -0.054,0.221 -0.075,0.425 l 0.1,-0.05 c -0.4,0.75 -0.55,1.65 -0.4,2.7 0.05,0.45 0.1,0.95 0.05,1.45 L -3.55,4 C -3.5,3.95 -3.5,3.9 -3.5,3.85 c 0.25,1.1 0.5,2.2 0.85,3.25 0.1,0.25 0.2,0.55 0.25,0.85 0.45,0.65 1,1.3 1.65,1.85 0.25,0.2 0.5,0.25 0.8,0.2 C 0.15,9.9 0.25,9.8 0.3,9.65 0.35,9.55 0.45,9.5 0.55,9.55 0.5,9.45 0.45,9.35 0.4,9.25 0.45,9.3 0.55,9.3 0.65,9.35 0.6,9.25 0.55,9.15 0.5,9.05 0.75,9.6 1.15,10 1.75,10.15 1.7,10.1 1.65,10 1.6,9.95 2.85,10.35 3.4,10 3.15,8.9 3.1,8.75 3.1,8.65 3.1,8.55 3.05,8.5 3,8.45 2.95,8.4 2.95,8.3 2.95,8.2 3,8.1 3,8.25 3.3,8.4 3.9,8.45 4.9,8.25 5.25,7.65 4.9,6.6 4.85,6.5 4.75,6.4 4.65,6.3 4.1,5.8 3.8,5.3 3.7,4.75 3.4,4.6 3.15,4.35 2.95,4 3.2,4.2 3.4,4.35 3.65,4.45 4.3,4.75 4.9,4.6 5.4,4.05 5.55,3.9 5.55,3.7 5.45,3.55 5.1,3 4.7,2.55 4.25,2.1 4.2,2.1 4.2,2.1 4.15,2.05 3.7,1.75 3.45,1.25 3.35,0.6 3.3,0.45 3.3,0.35 3.3,0.2 3.1,-0.1 2.85,-0.35 2.6,-0.6 2.7,-0.55 2.8,-0.55 2.85,-0.5 2.8,-0.7 2.75,-0.85 2.6,-1 2.45,-1.1 2.3,-1.2 2.15,-1.25 l -0.8,-0.325 0,0.025 C 1.3,-1.6 1.2,-1.6 1.15,-1.65 1,-1.7 0.9,-1.7 0.75,-1.75 0.4,-1.85 0.05,-1.9 -0.3,-1.85 l 0,-0.025 0,0.025 c -0.05,-0.05 -0.05,-0.05 -0.05,0 -0.25,0 -0.45,0.05 -0.7,0.1 0,0 0.05,0 0.1,0 -0.2,0 -0.4,0.05 -0.55,0.1 0.05,-0.05 0.1,-0.05 0.15,-0.1 -0.85,0.2 -1.5,0.65 -1.9,1.3 M 0.5,-1.5 C 0.3,-1.55 0.1,-1.6 -0.05,-1.65 0.1,-1.6 0.3,-1.6 0.5,-1.55 l 0,0.05 z"
           inkscape:connector-curvature="0"
           style="fill:#ffffcc" />
        <path
           id="path91"
           vector-effect="non-scaling-stroke"
           d="m -3.275,-0.475 q -0.054,0.221 -0.075,0.425 l 0.1,-0.05 c -0.4,0.75 -0.55,1.65 -0.4,2.7 0.05,0.45 0.1,0.95 0.05,1.45"
           inkscape:connector-curvature="0"
           style="fill:none;stroke:#663300;stroke-width:1;stroke-linecap:round;stroke-linejoin:round" />
        <path
           id="path92"
           vector-effect="non-scaling-stroke"
           d="M -3.55,4 C -3.5,3.95 -3.5,3.9 -3.5,3.85 c 0.25,1.1 0.5,2.2 0.85,3.25 0.1,0.25 0.2,0.55 0.25,0.85 0.45,0.65 1,1.3 1.65,1.85 0.25,0.2 0.5,0.25 0.8,0.2 C 0.15,9.9 0.25,9.8 0.3,9.65 0.35,9.55 0.45,9.5 0.55,9.55 0.5,9.45 0.45,9.35 0.4,9.25 0.45,9.3 0.55,9.3 0.65,9.35 0.6,9.25 0.55,9.15 0.5,9.05 0.75,9.6 1.15,10 1.75,10.15 1.7,10.1 1.65,10 1.6,9.95 2.85,10.35 3.4,10 3.15,8.9 3.1,8.75 3.1,8.65 3.1,8.55 3.05,8.5 3,8.45 2.95,8.4 2.95,8.3 2.95,8.2 3,8.1 3,8.25 3.3,8.4 3.9,8.45 4.9,8.25 5.25,7.65 4.9,6.6 4.85,6.5 4.75,6.4 4.65,6.3 4.1,5.8 3.8,5.3 3.7,4.75 3.4,4.6 3.15,4.35 2.95,4 3.2,4.2 3.4,4.35 3.65,4.45 4.3,4.75 4.9,4.6 5.4,4.05 5.55,3.9 5.55,3.7 5.45,3.55 5.1,3 4.7,2.55 4.25,2.1 4.2,2.1 4.2,2.1 4.15,2.05 3.7,1.75 3.45,1.25 3.35,0.6 3.3,0.45 3.3,0.35 3.3,0.2 3.1,-0.1 2.85,-0.35 2.6,-0.6 2.7,-0.55 2.8,-0.55 2.85,-0.5 2.8,-0.7 2.75,-0.85 2.6,-1 2.45,-1.1 2.3,-1.2 2.15,-1.25"
           inkscape:connector-curvature="0"
           style="fill:none;stroke:#663300;stroke-width:1;stroke-linecap:round;stroke-linejoin:round" />
        <path
           id="path96"
           d="m -0.95,-1.75 c -0.05,0 -0.1,0 -0.1,0 -0.05,0 -0.1,0 -0.15,0 0.05,0 0.15,0 0.25,0"
           inkscape:connector-curvature="0"
           style="fill:#663300" />
        <path
           id="path97"
           d="m -0.3,-1.85 0,-0.025 m -0.05,0.025 c 0,-0.05 0,-0.05 0.05,0"
           inkscape:connector-curvature="0"
           style="fill:#663300" />
        <path
           id="path99"
           vector-effect="non-scaling-stroke"
           d="M 2.7,-0.95 C 2.5,-1.05 2.3,-1.15 2.15,-1.25 2.3,-1.2 2.45,-1.1 2.6,-1 2.75,-0.85 2.8,-0.7 2.85,-0.5 2.8,-0.55 2.7,-0.55 2.6,-0.6 c 0.25,0.25 0.5,0.5 0.7,0.8 0,0.15 0,0.25 0.05,0.4 0.1,0.65 0.35,1.15 0.8,1.45 C 4.2,2.1 4.2,2.1 4.25,2.1 4.7,2.55 5.1,3 5.45,3.55 5.55,3.7 5.55,3.9 5.4,4.05 4.9,4.6 4.3,4.75 3.65,4.45 3.4,4.35 3.2,4.2 2.95,4 3.15,4.35 3.4,4.6 3.7,4.75 3.8,5.3 4.1,5.8 4.65,6.3 4.75,6.4 4.85,6.5 4.9,6.6 5.25,7.65 4.9,8.25 3.9,8.45 3.3,8.4 3,8.25 3,8.1 2.95,8.2 2.95,8.3 2.95,8.4 3,8.45 3.05,8.5 3.1,8.55 c 0,0.1 0,0.2 0.05,0.35 C 3.4,10 2.85,10.35 1.6,9.95 1.65,10 1.7,10.1 1.75,10.15 1.15,10 0.75,9.6 0.5,9.05 0.55,9.15 0.6,9.25 0.65,9.35 0.55,9.3 0.45,9.3 0.4,9.25 0.45,9.35 0.5,9.45 0.55,9.55 0.45,9.5 0.35,9.55 0.3,9.65 0.25,9.8 0.15,9.9 0.05,10 -0.25,10.05 -0.5,10 -0.75,9.8 -1.4,9.25 -1.95,8.6 -2.4,7.95 -2.45,7.65 -2.55,7.35 -2.65,7.1 -3,6.05 -3.25,4.95 -3.5,3.85 c 0,0.05 0,0.1 -0.05,0.15 -0.05,0.3 -0.05,0.7 0,1.2 0.15,1.25 0.55,2.35 1.2,3.3 l 0,0.025 m 0,0.025 C -2.3,8.7 -2.2,8.85 -2.1,9 c 0.55,0.95 1.2,1.35 1.85,1.25 -0.15,0.05 -0.25,0.05 -0.4,0.1 0.2,0.05 0.4,0.1 0.6,0.1 C 0.45,10.4 0.7,10.2 0.75,9.85 1.1,10.3 1.6,10.5 2.15,10.55 3,10.6 3.45,10.3 3.5,9.75 3.65,9.5 3.6,9.15 3.35,8.75 3.5,8.85 3.8,8.85 4.2,8.8 4.6,8.75 4.9,8.6 5.05,8.35 5.2,8.1 5.3,7.9 5.35,7.8 5.45,7.55 5.45,7.35 5.35,7.1 4.95,6.35 4.5,5.6 3.95,4.85 4.15,4.9 4.4,4.9 4.65,4.9 4.9,4.85 5.15,4.75 5.3,4.6 6,3.8 5.8,3.05 4.75,2.35 L 4.7,2.3 C 4.65,2.25 4.6,2.25 4.55,2.25 4.35,2 4.2,1.75 4.05,1.5 4,1.3 3.9,1.1 3.85,0.95 3.8,0.8 3.8,0.65 3.75,0.5 3.6,-0.1 3.25,-0.6 2.7,-0.95"
           inkscape:connector-curvature="0"
           style="fill:none;stroke:#663300;stroke-width:1;stroke-linecap:round;stroke-linejoin:round" />
      </g>
      <animate
         attributeName="display"
         begin="0s"
         repeatCount="indefinite"
         dur="0.167s"
         keyTimes="0;0.798;1"
         values="none;inline;none"
         id="animate3177" />
    </g>
    <g
       id="sideHandClose2_2">
      <g
         id="element1">
        <path
           id="path76"
           vector-effect="non-scaling-stroke"
           d="m 4.9,2.6 c 0.05,0.05 0.15,0.05 0.2,0.1 l 0.05,0 C 5.45,2.9 5.65,3.15 5.8,3.5 5.85,3.65 5.9,3.85 5.95,4 5.6,4.85 4.95,5.1 4,4.65 3.85,4.6 3.7,4.5 3.6,4.4 c 0.35,0.55 0.65,1.1 1,1.65 0.5,0.35 0.75,0.8 0.75,1.3 0,0.05 0,0.15 -0.05,0.2 C 5.25,7.7 5.25,7.8 5.2,7.95 5.05,8.3 4.85,8.5 4.5,8.65 l -0.075,0 0.025,0 C 4.4,8.65 4.3,8.7 4.25,8.75 3.95,8.75 3.7,8.7 3.45,8.65 3.85,9.5 3.5,10.1 2.35,10.45 2.1,10.5 1.9,10.5 1.65,10.35 1.5,10.3 1.4,10.2 1.3,10.15 1.15,10.1 1.05,10 0.95,9.9 1,9.95 1.05,9.95 1.1,9.95 1,9.9 0.9,9.8 0.85,9.7 0.7,10.05 0.35,10.3 -0.1,10.35 -0.35,10.4 -0.5,10.3 -0.6,10.15 -0.9,10.05 -1.2,9.8 -1.55,9.45 -2.05,8.85 -2.45,8.2 -2.7,7.5 -3.35,6.35 -3.7,5 -3.7,3.55 c 0,-0.25 0,-0.55 -0.05,-0.8 0,-0.1 0,-0.2 0.05,-0.3 -0.3,-1.15 -0.05,-2.2 0.8,-3.2 0.05,-0.1 0.1,-0.2 0.15,-0.25"
           inkscape:connector-curvature="0"
           style="fill:none;stroke:#663300;stroke-width:1;stroke-linecap:round;stroke-linejoin:round" />
        <path
           id="path77"
           vector-effect="non-scaling-stroke"
           d="M 2.6,-1.1 C 3.25,-0.55 3.7,0.15 3.9,0.95 4,1.3 4.05,1.65 4.1,2 4.25,2.15 4.45,2.3 4.65,2.45 4.75,2.5 4.85,2.6 4.9,2.65"
           inkscape:connector-curvature="0"
           style="fill:none;stroke:#663300;stroke-width:1;stroke-linecap:round;stroke-linejoin:round" />
        <path
           id="path78"
           d="m 1.05,-1.775 q 0.15,0.011 0.3,0.025 C 0.7,-2 -0.05,-2.1 -0.85,-2.05 -1.75,-2 -2.4,-1.65 -2.75,-1 -2.8,-0.8 -2.85,-0.6 -2.8,-0.45 -3.15,0.1 -3.35,0.7 -3.4,1.4 c -0.05,0.4 -0.05,0.75 -0.1,1.1 0.15,1.35 0.4,2.7 0.75,4.05 0.2,0.7 0.5,1.35 0.85,1.9 0.05,0.05 0.05,0.1 0,0.1 C -2,8.45 -2.1,8.35 -2.15,8.25 -1.7,8.8 -1.2,9.3 -0.55,9.75 -0.15,10 0.2,10 0.5,9.8 0.55,9.75 0.6,9.65 0.65,9.55 L 0.675,9.525 0.7,9.55 C 0.65,9.45 0.55,9.35 0.5,9.3 0.55,9.25 0.6,9.25 0.65,9.2 c 0,-0.05 0,-0.05 0,-0.05 0.05,0.1 0.15,0.2 0.25,0.25 l -0.025,0 0.025,0 0,0.025 0,0.025 C 1.2,9.7 1.55,9.9 1.95,10.1 2.25,10.05 2.55,9.95 2.8,9.8 2.95,9.7 3.05,9.65 3.1,9.6 2.95,9.95 2.75,10.15 2.5,10.25 2.85,10.3 3.1,10.1 3.25,9.7 3.35,9.45 3.4,9.2 3.4,8.9 3.35,8.75 3.25,8.65 3.15,8.5 2.95,8.35 2.8,8.2 2.7,8.05 2.45,7.85 2.3,7.6 2.15,7.35 2.25,7.5 2.35,7.65 2.5,7.8 2.75,8 3,8.15 3.35,8.25 L 3.2,8.1 C 3.25,8.15 3.3,8.2 3.35,8.25 4.1,8.6 4.65,8.35 5.05,7.45 5.1,7.35 5.1,7.25 5.1,7.2 5.1,7.05 5.05,6.95 4.95,6.8 4.9,6.75 4.85,6.65 4.8,6.6 4.85,6.65 4.85,6.7 4.85,6.75 4.2,6.2 3.75,5.5 3.4,4.65 3.3,4.45 3.25,4.25 3.3,4.1 3.25,4.05 3.25,4 3.2,3.95 3.25,4 3.25,4 3.3,4.05 3.3,3.9 3.35,3.8 3.4,3.75 3.45,3.9 3.45,4.05 3.5,4.2 4.05,4.5 4.6,4.55 5.25,4.4 5.4,4.35 5.5,4.25 5.5,4 5.55,3.45 5.35,3 4.9,2.6 l 0,0.025 0,0.025 C 5,2.7 5.1,2.8 5.15,2.95 4.55,2.75 4.05,2.4 3.7,1.85 3.55,1.6 3.5,1.45 3.65,1.3 l 0.025,0 0.025,0 C 3.5,0.9 3.3,0.5 3.15,0.1 3.05,-0.15 2.9,-0.4 2.7,-0.55 2.7,-0.75 2.65,-0.95 2.6,-1.1 2.5,-1.2 2.4,-1.3 2.3,-1.35 2.1,-1.4 1.9,-1.5 1.65,-1.6 1.45,-1.65 1.25,-1.7 1.05,-1.75"
           inkscape:connector-curvature="0"
           style="fill:#ffffcc" />
        <path
           id="path79"
           vector-effect="non-scaling-stroke"
           d="m -2.75,-1 c -0.05,0.2 -0.1,0.4 -0.05,0.55 -0.35,0.55 -0.55,1.15 -0.6,1.85 -0.05,0.4 -0.05,0.75 -0.1,1.1 0.15,1.35 0.4,2.7 0.75,4.05 0.2,0.7 0.5,1.35 0.85,1.9 0.05,0.05 0.05,0.1 0,0.1 C -2,8.45 -2.1,8.35 -2.15,8.25 -1.7,8.8 -1.2,9.3 -0.55,9.75 -0.15,10 0.2,10 0.5,9.8 0.55,9.75 0.6,9.65 0.65,9.55 L 0.675,9.525 0.7,9.55 C 0.65,9.45 0.55,9.35 0.5,9.3 0.55,9.25 0.6,9.25 0.65,9.2 c 0,-0.05 0,-0.05 0,-0.05 0.05,0.1 0.15,0.2 0.25,0.25 l -0.025,0 0.025,0 0,0.025 0,0.025 C 1.2,9.7 1.55,9.9 1.95,10.1 2.25,10.05 2.55,9.95 2.8,9.8 2.95,9.7 3.05,9.65 3.1,9.6 2.95,9.95 2.75,10.15 2.5,10.25 2.85,10.3 3.1,10.1 3.25,9.7 3.35,9.45 3.4,9.2 3.4,8.9 3.35,8.75 3.25,8.65 3.15,8.5 2.95,8.35 2.8,8.2 2.7,8.05 2.45,7.85 2.3,7.6 2.15,7.35 2.25,7.5 2.35,7.65 2.5,7.8 2.75,8 3,8.15 3.35,8.25 L 3.2,8.1 C 3.25,8.15 3.3,8.2 3.35,8.25 4.1,8.6 4.65,8.35 5.05,7.45 5.1,7.35 5.1,7.25 5.1,7.2 5.1,7.05 5.05,6.95 4.95,6.8 4.9,6.75 4.85,6.65 4.8,6.6 4.85,6.65 4.85,6.7 4.85,6.75 4.2,6.2 3.75,5.5 3.4,4.65 3.3,4.45 3.25,4.25 3.3,4.1 3.25,4.05 3.25,4 3.2,3.95 3.25,4 3.25,4 3.3,4.05 3.3,3.9 3.35,3.8 3.4,3.75 3.45,3.9 3.45,4.05 3.5,4.2 4.05,4.5 4.6,4.55 5.25,4.4 5.4,4.35 5.5,4.25 5.5,4 5.55,3.45 5.35,3 4.9,2.6"
           inkscape:connector-curvature="0"
           style="fill:none;stroke:#663300;stroke-width:1;stroke-linecap:round;stroke-linejoin:round" />
        <path
           id="path80"
           d="m 2.65,-0.625 0,-0.025 C 2.6,-0.7 2.6,-0.7 2.55,-0.7 c 0.05,0.05 0.05,0.05 0.1,0.1"
           inkscape:connector-curvature="0"
           style="fill:#663300" />
        <path
           id="path81"
           d="m 2.6,-1.1 c 0.05,0.15 0.1,0.35 0.1,0.55 0.2,0.15 0.35,0.4 0.45,0.65 C 3.3,0.5 3.5,0.9 3.7,1.3 3.75,1.4 3.8,1.5 3.85,1.65 3.75,1.5 3.7,1.4 3.65,1.3 3.5,1.45 3.55,1.6 3.7,1.85 4.05,2.4 4.55,2.75 5.15,2.95 5.1,2.8 5,2.7 4.9,2.65 4.85,2.6 4.75,2.5 4.65,2.45 4.45,2.3 4.25,2.15 4.1,2 4.05,1.65 4,1.3 3.9,0.95 3.7,0.15 3.25,-0.55 2.6,-1.1 z M 5.5,4 C 5.5,4.25 5.4,4.35 5.25,4.4 4.6,4.55 4.05,4.5 3.5,4.2 3.45,4.05 3.45,3.9 3.4,3.75 3.35,3.8 3.3,3.9 3.3,4.05 3.25,4 3.25,4 3.2,3.95 3.25,4 3.25,4.05 3.3,4.1 3.25,4.25 3.3,4.45 3.4,4.65 3.75,5.5 4.2,6.2 4.85,6.75 4.85,6.7 4.85,6.65 4.8,6.6 4.85,6.65 4.9,6.75 4.95,6.8 5.05,6.95 5.1,7.05 5.1,7.2 5.1,7.25 5.1,7.35 5.05,7.45 4.65,8.35 4.1,8.6 3.35,8.25 L 3.2,8.1 C 3.25,8.15 3.3,8.2 3.35,8.25 3,8.15 2.75,8 2.5,7.8 2.35,7.65 2.25,7.5 2.15,7.35 2.3,7.6 2.45,7.85 2.7,8.05 2.8,8.2 2.95,8.35 3.15,8.5 3.25,8.65 3.35,8.75 3.4,8.9 3.4,9.2 3.35,9.45 3.25,9.7 3.1,10.1 2.85,10.3 2.5,10.25 2.75,10.15 2.95,9.95 3.1,9.6 3.05,9.65 2.95,9.7 2.8,9.8 2.55,9.95 2.25,10.05 1.95,10.1 1.55,9.9 1.2,9.7 0.9,9.45 l 0,-0.025 0,-0.025 -0.025,0 0.025,0 C 0.8,9.35 0.7,9.25 0.65,9.15 c 0,0 0,0 0,0.05 C 0.6,9.25 0.55,9.25 0.5,9.3 0.55,9.35 0.65,9.45 0.7,9.55 L 0.675,9.525 0.65,9.55 C 0.6,9.65 0.55,9.75 0.5,9.8 0.2,10 -0.15,10 -0.55,9.75 -1.2,9.3 -1.7,8.8 -2.15,8.25 c 0.05,0.1 0.15,0.2 0.25,0.3 0.05,0 0.05,-0.05 0,-0.1 C -2.25,7.9 -2.55,7.25 -2.75,6.55 -3.1,5.2 -3.35,3.85 -3.5,2.5 c 0.05,-0.35 0.05,-0.7 0.1,-1.1 0.05,-0.7 0.25,-1.3 0.6,-1.85 -0.05,-0.15 0,-0.35 0.05,-0.55 -0.05,0.05 -0.1,0.15 -0.15,0.25 -0.85,1 -1.1,2.05 -0.8,3.2 -0.05,0.1 -0.05,0.2 -0.05,0.3 0.05,0.25 0.05,0.55 0.05,0.8 0,1.45 0.35,2.8 1,3.95 0.25,0.7 0.65,1.35 1.15,1.95 0.35,0.35 0.65,0.6 0.95,0.7 0.1,0.15 0.25,0.25 0.5,0.2 C 0.35,10.3 0.7,10.05 0.85,9.7 0.9,9.8 1,9.9 1.1,9.95 1.05,9.95 1,9.95 0.95,9.9 c 0.1,0.1 0.2,0.2 0.35,0.25 0.1,0.05 0.2,0.15 0.35,0.2 0.25,0.15 0.45,0.15 0.7,0.1 C 3.5,10.1 3.85,9.5 3.45,8.65 3.7,8.7 3.95,8.75 4.25,8.75 4.3,8.7 4.4,8.65 4.45,8.65 l -0.025,0 0.075,0 C 4.85,8.5 5.05,8.3 5.2,7.95 5.25,7.8 5.25,7.7 5.3,7.55 5.35,7.5 5.35,7.4 5.35,7.35 5.35,6.85 5.1,6.4 4.6,6.05 4.25,5.5 3.95,4.95 3.6,4.4 3.7,4.5 3.85,4.6 4,4.65 4.95,5.1 5.6,4.85 5.95,4 5.9,3.85 5.85,3.65 5.8,3.5 5.65,3.15 5.45,2.9 5.15,2.7 L 5.1,2.7 C 5.05,2.65 4.95,2.65 4.9,2.6 5.35,3 5.55,3.45 5.5,4 z"
           inkscape:connector-curvature="0"
           style="fill:#663300" />
        <path
           id="path82"
           vector-effect="non-scaling-stroke"
           d="M 4.9,2.65 C 4.85,2.6 4.75,2.5 4.65,2.45 4.45,2.3 4.25,2.15 4.1,2 4.05,1.65 4,1.3 3.9,0.95 3.7,0.15 3.25,-0.55 2.6,-1.1"
           inkscape:connector-curvature="0"
           style="fill:none;stroke:#663300;stroke-width:1;stroke-linecap:round;stroke-linejoin:round" />
        <path
           id="path84"
           vector-effect="non-scaling-stroke"
           d="M 5.5,4 C 5.5,4.25 5.4,4.35 5.25,4.4 4.6,4.55 4.05,4.5 3.5,4.2 3.45,4.05 3.45,3.9 3.4,3.75 3.35,3.8 3.3,3.9 3.3,4.05 3.25,4 3.25,4 3.2,3.95 3.25,4 3.25,4.05 3.3,4.1 3.25,4.25 3.3,4.45 3.4,4.65 3.75,5.5 4.2,6.2 4.85,6.75 4.85,6.7 4.85,6.65 4.8,6.6 4.85,6.65 4.9,6.75 4.95,6.8 5.05,6.95 5.1,7.05 5.1,7.2 5.1,7.25 5.1,7.35 5.05,7.45 4.65,8.35 4.1,8.6 3.35,8.25 M 3.2,8.1 C 3.25,8.15 3.3,8.2 3.35,8.25 3,8.15 2.75,8 2.5,7.8 2.35,7.65 2.25,7.5 2.15,7.35 2.3,7.6 2.45,7.85 2.7,8.05 2.8,8.2 2.95,8.35 3.15,8.5 3.25,8.65 3.35,8.75 3.4,8.9 3.4,9.2 3.35,9.45 3.25,9.7 3.1,10.1 2.85,10.3 2.5,10.25 2.75,10.15 2.95,9.95 3.1,9.6 3.05,9.65 2.95,9.7 2.8,9.8 2.55,9.95 2.25,10.05 1.95,10.1 1.55,9.9 1.2,9.7 0.9,9.45 m 0,-0.025 0,-0.025 m -0.025,0 0.025,0 C 0.8,9.35 0.7,9.25 0.65,9.15 c 0,0 0,0 0,0.05 C 0.6,9.25 0.55,9.25 0.5,9.3 0.55,9.35 0.65,9.45 0.7,9.55 M 0.675,9.525 0.65,9.55 C 0.6,9.65 0.55,9.75 0.5,9.8 0.2,10 -0.15,10 -0.55,9.75 -1.2,9.3 -1.7,8.8 -2.15,8.25 c 0.05,0.1 0.15,0.2 0.25,0.3 0.05,0 0.05,-0.05 0,-0.1 C -2.25,7.9 -2.55,7.25 -2.75,6.55 -3.1,5.2 -3.35,3.85 -3.5,2.5 c 0.05,-0.35 0.05,-0.7 0.1,-1.1 0.05,-0.7 0.25,-1.3 0.6,-1.85 -0.05,-0.15 0,-0.35 0.05,-0.55 -0.05,0.05 -0.1,0.15 -0.15,0.25 -0.85,1 -1.1,2.05 -0.8,3.2 -0.05,0.1 -0.05,0.2 -0.05,0.3 0.05,0.25 0.05,0.55 0.05,0.8 0,1.45 0.35,2.8 1,3.95 0.25,0.7 0.65,1.35 1.15,1.95 0.35,0.35 0.65,0.6 0.95,0.7 0.1,0.15 0.25,0.25 0.5,0.2 C 0.35,10.3 0.7,10.05 0.85,9.7 0.9,9.8 1,9.9 1.1,9.95 1.05,9.95 1,9.95 0.95,9.9 c 0.1,0.1 0.2,0.2 0.35,0.25 0.1,0.05 0.2,0.15 0.35,0.2 0.25,0.15 0.45,0.15 0.7,0.1 C 3.5,10.1 3.85,9.5 3.45,8.65 3.7,8.7 3.95,8.75 4.25,8.75 4.3,8.7 4.4,8.65 4.45,8.65 m -0.025,0 0.075,0 C 4.85,8.5 5.05,8.3 5.2,7.95 5.25,7.8 5.25,7.7 5.3,7.55 5.35,7.5 5.35,7.4 5.35,7.35 5.35,6.85 5.1,6.4 4.6,6.05 4.25,5.5 3.95,4.95 3.6,4.4 3.7,4.5 3.85,4.6 4,4.65 4.95,5.1 5.6,4.85 5.95,4 5.9,3.85 5.85,3.65 5.8,3.5 5.65,3.15 5.45,2.9 5.15,2.7 L 5.1,2.7 C 5.05,2.65 4.95,2.65 4.9,2.6 5.35,3 5.55,3.45 5.5,4"
           inkscape:connector-curvature="0"
           style="fill:none;stroke:#663300;stroke-width:1;stroke-linecap:round;stroke-linejoin:round" />
      </g>
      <animate
         attributeName="display"
         begin="0s"
         repeatCount="indefinite"
         dur="0.167s"
         keyTimes="0;0.399;0.798;1"
         values="none;inline;none;none"
         id="animate3189" />
    </g>
    <g
       id="sideHandClose2_0">
      <g
         id="element">
        <path
           id="path"
           vector-effect="non-scaling-stroke"
           d="m -2.95,-0.95 c 0,0 0,0.05 0,0.05"
           inkscape:connector-curvature="0"
           style="fill:none;stroke:#663300;stroke-width:1;stroke-linecap:round;stroke-linejoin:round" />
        <path
           id="path1"
           d="m 2.95,-0.75 0,-0.025 Q 2.86,-0.849 2.775,-0.925 L 2.75,-0.95 c -0.05,0 -0.05,0 -0.1,-0.05 0,0 0,0 -0.05,-0.05 C 2.45,-1.2 2.25,-1.4 2.05,-1.55 1.4,-1.9 0.75,-2.05 0,-2.05 -0.9,-2.1 -1.7,-1.9 -2.45,-1.55 -2.3,-1.6 -2.1,-1.6 -1.95,-1.65 -2,-1.6 -2,-1.6 -2.05,-1.55 c -0.3,0.05 -0.55,0.2 -0.8,0.45 l -0.025,0.025 0.025,0.025 C -2.9,-1 -2.9,-1 -2.95,-0.95 l -0.025,0 0,0.025 0.025,-0.025 C -3,-0.9 -3,-0.85 -3,-0.8 c -0.05,0.15 -0.15,0.35 -0.3,0.5 -0.05,0.05 -0.05,0.05 -0.05,0.1 0,-0.05 0,-0.1 0.05,-0.15 -0.05,0.05 -0.05,0.05 -0.05,0.1 l 0,0.025 0,-0.025 L -3,-0.8 c -0.1,0.15 -0.2,0.3 -0.3,0.45 l -0.05,0.15 c 0,0 0,0 0.05,0.05 l 0.05,0 C -3.2,-0.2 -3.15,-0.2 -3.1,-0.2 l -0.025,0.025 0.025,0 0,0.025 c -0.15,0.25 -0.25,0.5 -0.3,0.8 -0.05,0.1 -0.05,0.2 -0.1,0.35 l 0,-0.025 0,0.05 0,0.025 c 0,0.05 0,0.15 -0.05,0.2 0,0.05 0,0.15 0,0.25 0.05,0.45 0.1,0.95 0.15,1.45 0,0.15 0,0.3 0,0.45 0.05,0.55 0.1,1.1 0.15,1.65 l 0,0.05 c 0,0.1 0,0.2 0.05,0.3 0,0.1 0,0.2 0,0.3 0.4,1.45 1.1,2.7 2.1,3.75 0.05,0.05 0.1,0.1 0.15,0.15 -0.15,-0.15 -0.25,-0.35 -0.3,-0.5 0.1,0.15 0.2,0.3 0.3,0.4 C -1.1,9.35 -1.2,9.2 -1.25,9.05 -0.85,9.75 -0.35,10 0.3,9.8 0.4,9.75 0.5,9.75 0.55,9.7 0.5,9.55 0.45,9.4 0.4,9.25 L 0.3,8.95 c 0.05,0.1 0.05,0.2 0.1,0.3 0.15,0.05 0.2,0.1 0.25,0.2 0.05,0 0.05,0 0.05,0 l 0,0.05 0.05,0.05 c 0.75,0.85 1.5,0.9 2.2,0.1 C 3,9.6 3.05,9.55 3.1,9.55 3.15,9.35 3.15,9.15 3.1,8.9 3.05,8.75 3.05,8.6 3.05,8.5 3,8.45 3,8.45 2.95,8.4 2.9,8.3 2.8,8.25 2.75,8.2 l 0,-0.025 0,-0.025 C 2.7,8.1 2.7,8 2.7,7.95 L 2.7,7.9 C 2.75,7.95 2.75,7.95 2.8,7.95 2.95,8.1 3.15,8.15 3.35,8.2 3.5,8.25 3.7,8.35 3.9,8.4 4.25,8.35 4.6,8.1 4.85,7.6 4.9,7.55 4.9,7.55 4.9,7.55 l 0,-0.025 0,-0.1 0,0.025 C 4.9,7.3 4.85,7.15 4.75,7 4.7,6.9 4.65,6.8 4.65,6.7 4.65,6.65 4.65,6.55 4.7,6.5 L 4.625,6.475 4.675,6.5 4.65,6.5 C 4.55,6.4 4.45,6.35 4.4,6.3 4.2,5.9 3.95,5.5 3.7,5.1 3.55,4.85 3.4,4.55 3.3,4.25 L 3.325,4.225 3.3,4.2 3.325,4.175 3.35,4.2 C 3.3,4.15 3.25,4.05 3.2,4 3.25,4 3.25,4 3.25,4.05 3.2,4 3.2,4 3.2,3.95 3.25,4 3.35,4.05 3.4,4.1 3.4,4.05 3.4,4.05 3.45,4.05 3.4,4 3.4,3.95 3.35,3.9 3.3,3.85 3.3,3.85 3.35,3.8 3.3,3.75 3.3,3.75 3.35,3.7 3.4,3.85 3.5,4.05 3.55,4.2 4.35,4.65 4.95,4.5 5.4,3.75 5.45,3.65 5.5,3.55 5.5,3.5 5.45,3.3 5.35,3.15 5.15,3 4.8,2.85 4.55,2.65 4.35,2.4 4.3,2.35 4.2,2.3 4.15,2.25 4,2.1 3.9,1.95 3.8,1.75 3.75,1.6 3.75,1.5 3.75,1.45 3.65,1.25 3.6,1.05 3.55,0.85 3.5,0.7 3.5,0.6 3.5,0.45 L 3.5,0.425 3.5,0.4 C 3.35,0.1 3.2,-0.15 3,-0.4 l -0.025,0 0.025,0 0,-0.05 c 0,-0.1 0,-0.2 -0.05,-0.3 z m -3.45,-1.1 c 0.15,0 0.25,0 0.4,0 l -0.025,0 -0.025,0.05 c -0.25,0 -0.55,0 -0.8,0 0.15,-0.05 0.3,-0.05 0.45,-0.05 z"
           inkscape:connector-curvature="0"
           style="fill:#ffffcc" />
        <path
           id="path2"
           vector-effect="non-scaling-stroke"
           d="m -3,-0.8 c -0.05,0.15 -0.15,0.35 -0.3,0.5 -0.05,0.05 -0.05,0.05 -0.05,0.1 0,-0.05 0,-0.1 0.05,-0.15"
           inkscape:connector-curvature="0"
           style="fill:none;stroke:#663300;stroke-width:1;stroke-linecap:round;stroke-linejoin:round" />
        <path
           id="path3"
           vector-effect="non-scaling-stroke"
           d="m -3.5,0.975 0,0.05"
           inkscape:connector-curvature="0"
           style="fill:none;stroke:#663300;stroke-width:1;stroke-linecap:round;stroke-linejoin:round" />
        <path
           id="path4"
           vector-effect="non-scaling-stroke"
           d="M -0.95,9.6 C -1.1,9.45 -1.2,9.25 -1.25,9.1 c 0.1,0.15 0.2,0.3 0.3,0.4"
           inkscape:connector-curvature="0"
           style="fill:none;stroke:#663300;stroke-width:1;stroke-linecap:round;stroke-linejoin:round" />
        <path
           id="path5"
           vector-effect="non-scaling-stroke"
           d="M 0.55,9.7 C 0.5,9.55 0.45,9.4 0.4,9.25 L 0.3,8.95 c 0.05,0.1 0.05,0.2 0.1,0.3 0.15,0.05 0.2,0.1 0.25,0.2"
           inkscape:connector-curvature="0"
           style="fill:none;stroke:#663300;stroke-width:1;stroke-linecap:round;stroke-linejoin:round" />
        <path
           id="path6"
           vector-effect="non-scaling-stroke"
           d="M 3.1,9.55 C 3.15,9.35 3.15,9.15 3.1,8.9 3.05,8.75 3.05,8.6 3.05,8.5 3,8.45 3,8.45 2.95,8.4 2.9,8.3 2.8,8.25 2.75,8.2 l 0,-0.025 0,-0.025 C 2.7,8.1 2.7,8 2.7,7.95"
           inkscape:connector-curvature="0"
           style="fill:none;stroke:#663300;stroke-width:1;stroke-linecap:round;stroke-linejoin:round" />
        <path
           id="path7"
           vector-effect="non-scaling-stroke"
           d="m 4.9,7.525 0,-0.1 0,0.025 C 4.9,7.3 4.85,7.15 4.75,7 4.7,6.9 4.65,6.8 4.65,6.7"
           inkscape:connector-curvature="0"
           style="fill:none;stroke:#663300;stroke-width:1;stroke-linecap:round;stroke-linejoin:round" />
        <path
           id="path8"
           vector-effect="non-scaling-stroke"
           d="M 4.65,6.5 C 4.55,6.4 4.45,6.35 4.4,6.3 4.2,5.9 3.95,5.5 3.7,5.1 3.55,4.85 3.4,4.55 3.3,4.25 L 3.325,4.225"
           inkscape:connector-curvature="0"
           style="fill:none;stroke:#663300;stroke-width:1;stroke-linecap:round;stroke-linejoin:round" />
        <path
           id="path9"
           vector-effect="non-scaling-stroke"
           d="M 3.35,4.2 C 3.3,4.15 3.25,4.05 3.2,4 3.25,4 3.25,4 3.25,4.05"
           inkscape:connector-curvature="0"
           style="fill:none;stroke:#663300;stroke-width:1;stroke-linecap:round;stroke-linejoin:round" />
        <path
           id="path10"
           vector-effect="non-scaling-stroke"
           d="M 3.45,4.05 C 3.4,4 3.4,3.95 3.35,3.9 3.3,3.85 3.3,3.85 3.35,3.8"
           inkscape:connector-curvature="0"
           style="fill:none;stroke:#663300;stroke-width:1;stroke-linecap:round;stroke-linejoin:round" />
        <path
           id="path11"
           vector-effect="non-scaling-stroke"
           d="M 3.5,0.425 3.5,0.4"
           inkscape:connector-curvature="0"
           style="fill:none;stroke:#663300;stroke-width:1;stroke-linecap:round;stroke-linejoin:round" />
        <path
           id="path12"
           vector-effect="non-scaling-stroke"
           d="M 2.975,-0.4 3,-0.4 3,-0.45 c 0,-0.1 0,-0.2 -0.05,-0.3"
           inkscape:connector-curvature="0"
           style="fill:none;stroke:#663300;stroke-width:1;stroke-linecap:round;stroke-linejoin:round" />
        <path
           id="path17"
           vector-effect="non-scaling-stroke"
           d="m 3,-0.45 0,0.05 -0.025,0 0.025,0"
           inkscape:connector-curvature="0"
           style="fill:none;stroke:#663300;stroke-width:1;stroke-linecap:round;stroke-linejoin:round" />
        <path
           id="path21"
           d="M 2.95,-0.8 C 3,-0.7 3,-0.6 3,-0.45 c 0.2,0.25 0.35,0.5 0.5,0.8 l 0,0.05 0,0.025 0,0.025 c 0,0.15 0,0.25 0.05,0.4 0.05,0.2 0.1,0.4 0.2,0.55 0,0.05 0,0.15 0.05,0.3 C 3.95,1.95 4.1,2.2 4.35,2.35 4.55,2.6 4.8,2.8 5.15,2.95 5.4,3.1 5.5,3.3 5.5,3.5 5.5,3.55 5.45,3.65 5.4,3.75 4.95,4.5 4.35,4.65 3.55,4.2 3.5,4.05 3.4,3.85 3.35,3.7 3.3,3.75 3.3,3.75 3.35,3.8 L 3.325,3.8 3.35,3.85 C 3.4,3.9 3.4,3.95 3.45,4 L 3.425,4.025 3.45,4.05 C 3.4,4.05 3.4,4.05 3.4,4.1 3.35,4.05 3.25,4 3.2,3.95 3.2,4 3.2,4 3.25,4.05 3.3,4.1 3.3,4.1 3.35,4.15 L 3.325,4.175 3.3,4.2 3.325,4.225 3.35,4.25 c 0.05,0.25 0.2,0.55 0.35,0.8 0.25,0.4 0.5,0.8 0.7,1.2 0.05,0.05 0.15,0.1 0.2,0.15 0,0.05 0,0.05 0.05,0.05 C 4.6,6.4 4.6,6.4 4.6,6.35 4.65,6.4 4.65,6.4 4.7,6.45 l -0.025,0.025 0,0.025 0.025,0 C 4.65,6.55 4.65,6.65 4.65,6.7 4.7,6.8 4.7,6.9 4.75,6.95 4.85,7.1 4.9,7.25 4.9,7.45 l 0,-0.025 0,0.1 0,0.025 c 0,0 0,0 -0.05,0.05 C 4.6,8.1 4.25,8.35 3.9,8.4 3.7,8.35 3.5,8.25 3.35,8.2 3.15,8.15 2.95,8.1 2.8,7.95 2.75,7.95 2.75,7.95 2.7,7.9 l 0,0.05 C 2.7,8 2.7,8.1 2.75,8.15 2.8,8.2 2.9,8.25 2.95,8.35 3,8.4 3,8.4 3.05,8.45 c 0,0.1 0,0.25 0.05,0.4 0.05,0.25 0.05,0.45 0,0.65 L 3.075,9.525 3.1,9.55 C 3.05,9.55 3,9.6 2.95,9.65 2.25,10.45 1.5,10.4 0.75,9.55 L 0.7,9.5 0.7,9.45 c 0,0 0,0 -0.05,0 C 0.6,9.4 0.5,9.4 0.45,9.4 l 0,0.025 0,0.025 C 0.5,9.5 0.5,9.6 0.55,9.65 L 0.525,9.675 0.55,9.7 C 0.5,9.75 0.4,9.75 0.3,9.8 -0.35,10 -0.85,9.75 -1.25,9.05 -1.2,9.2 -1.1,9.35 -0.95,9.5 -0.9,9.6 -0.8,9.7 -0.75,9.75 -0.8,9.7 -0.9,9.65 -0.95,9.6 -1,9.55 -1.05,9.5 -1.1,9.45 -2.1,8.4 -2.8,7.15 -3.2,5.7 c 0,-0.1 0,-0.2 0,-0.3 C -3.25,5.3 -3.25,5.2 -3.25,5.1 l 0,-0.05 C -3.3,4.5 -3.35,3.95 -3.4,3.4 c 0,-0.15 0,-0.3 0,-0.45 -0.05,-0.5 -0.1,-1 -0.15,-1.45 0,-0.1 0,-0.2 0,-0.25 0,-0.1 0,-0.2 0.05,-0.25 l 0,-0.025 0,-0.025 C -3.45,0.8 -3.45,0.7 -3.4,0.6 -3.35,0.3 -3.25,0.05 -3.1,-0.15 L -3.125,-0.175 -3.1,-0.2 c -0.05,0 -0.1,0 -0.15,0.05 l -0.05,0 C -3.35,-0.2 -3.35,-0.2 -3.35,-0.2 l 0,-0.025 0,-0.025 c 0,-0.05 0,-0.05 0.05,-0.1 0.1,-0.15 0.2,-0.3 0.3,-0.45 0,-0.05 0,-0.1 0.05,-0.15 L -2.975,-0.925 -2.95,-0.9 C -3.4,-0.35 -3.65,0.3 -3.7,0.95 -3.8,1 -3.85,1.1 -3.8,1.25 c 0,0.1 0,0.2 0,0.35 0,0.25 0,0.55 0,0.85 0,0.05 0,0.1 0,0.15 -0.1,1.45 0.1,2.9 0.65,4.3 0.05,-0.05 0.05,-0.05 0.05,-0.1 0.35,1.25 1,2.25 2,3 0.45,0.35 0.85,0.45 1.2,0.4 0.2,0 0.4,-0.1 0.55,-0.35 0.05,0.05 0.05,0.15 0.1,0.2 0,-0.05 0,-0.05 0.05,-0.1 0.1,0.15 0.25,0.3 0.5,0.4 0.35,0.15 0.75,0.15 1.15,0 0.7,-0.2 1,-0.65 0.9,-1.3 C 3.3,8.9 3.3,8.8 3.25,8.65 3.4,8.8 3.6,8.8 3.85,8.7 4.15,8.75 4.45,8.65 4.75,8.5 4.7,8.5 4.6,8.5 4.55,8.5 4.9,8.3 5.1,8 5.15,7.65 5.2,7.55 5.2,7.45 5.15,7.35 5.1,7.1 5,6.8 4.85,6.45 4.8,6.4 4.8,6.4 4.75,6.35 4.7,6.3 4.65,6.3 4.65,6.25 4.65,6.2 4.65,6.2 4.6,6.2 4.55,6.15 4.55,6.15 4.5,6.15 4.2,5.6 3.95,5 3.7,4.45 4,4.7 4.4,4.75 4.9,4.65 5.05,4.6 5.2,4.55 5.3,4.4 5.95,3.65 5.85,3.05 4.9,2.55 l 0.05,0 C 4.75,2.4 4.6,2.25 4.45,2.1 l -0.05,0 c 0,0.05 0,0.05 0,0.1 C 4.35,2.15 4.35,2.1 4.3,2.05 4.15,1.9 4.05,1.7 3.95,1.55 c 0,-0.05 0,-0.15 0,-0.2 0,-0.25 0,-0.45 0,-0.65 L 3.9,0.65 C 3.65,0.1 3.35,-0.35 2.95,-0.8 z"
           inkscape:connector-curvature="0"
           style="fill:#663300" />
        <path
           id="path22"
           vector-effect="non-scaling-stroke"
           d="m 3.5,0.4 0,0.025"
           inkscape:connector-curvature="0"
           style="fill:none;stroke:#663300;stroke-width:1;stroke-linecap:round;stroke-linejoin:round" />
        <path
           id="path23"
           vector-effect="non-scaling-stroke"
           d="m 4.6,6.4 c 0,0.05 0,0.05 0.05,0.05"
           inkscape:connector-curvature="0"
           style="fill:none;stroke:#663300;stroke-width:1;stroke-linecap:round;stroke-linejoin:round" />
        <path
           id="path24"
           vector-effect="non-scaling-stroke"
           d="m 4.9,7.425 0,0.1"
           inkscape:connector-curvature="0"
           style="fill:none;stroke:#663300;stroke-width:1;stroke-linecap:round;stroke-linejoin:round" />
        <path
           id="path25"
           vector-effect="non-scaling-stroke"
           d="m 2.7,7.95 c 0,0.05 0,0.15 0.05,0.2"
           inkscape:connector-curvature="0"
           style="fill:none;stroke:#663300;stroke-width:1;stroke-linecap:round;stroke-linejoin:round" />
        <path
           id="path26"
           vector-effect="non-scaling-stroke"
           d="m -3.5,0.975 0,-0.025"
           inkscape:connector-curvature="0"
           style="fill:none;stroke:#663300;stroke-width:1;stroke-linecap:round;stroke-linejoin:round" />
        <path
           id="path28"
           vector-effect="non-scaling-stroke"
           d="m -3.5,0.95 0,0.025"
           inkscape:connector-curvature="0"
           style="fill:none;stroke:#663300;stroke-width:1;stroke-linecap:round;stroke-linejoin:round" />
        <path
           id="path33"
           vector-effect="non-scaling-stroke"
           d="m -3.5,1.025 0,-0.05"
           inkscape:connector-curvature="0"
           style="fill:none;stroke:#663300;stroke-width:1;stroke-linecap:round;stroke-linejoin:round" />
        <path
           id="path35"
           vector-effect="non-scaling-stroke"
           d="m -0.95,9.5 c -0.1,-0.1 -0.2,-0.25 -0.3,-0.4 0.05,0.15 0.15,0.35 0.3,0.5"
           inkscape:connector-curvature="0"
           style="fill:none;stroke:#663300;stroke-width:1;stroke-linecap:round;stroke-linejoin:round" />
        <path
           id="path43"
           vector-effect="non-scaling-stroke"
           d="M 3.35,3.8 C 3.3,3.85 3.3,3.85 3.35,3.9 3.4,3.95 3.4,4 3.45,4.05"
           inkscape:connector-curvature="0"
           style="fill:none;stroke:#663300;stroke-width:1;stroke-linecap:round;stroke-linejoin:round" />
        <path
           id="path48"
           vector-effect="non-scaling-stroke"
           d="M 3.325,4.225 3.3,4.25 C 3.4,4.55 3.55,4.85 3.7,5.1 3.95,5.5 4.2,5.9 4.4,6.3 4.45,6.35 4.55,6.4 4.65,6.5 4.6,6.45 4.6,6.45 4.6,6.4"
           inkscape:connector-curvature="0"
           style="fill:none;stroke:#663300;stroke-width:1;stroke-linecap:round;stroke-linejoin:round" />
        <path
           id="path53"
           vector-effect="non-scaling-stroke"
           d="M 3.25,4.05 C 3.25,4 3.25,4 3.2,4 3.25,4.05 3.3,4.15 3.35,4.2"
           inkscape:connector-curvature="0"
           style="fill:none;stroke:#663300;stroke-width:1;stroke-linecap:round;stroke-linejoin:round" />
        <path
           id="path55"
           vector-effect="non-scaling-stroke"
           d="M 4.65,6.45 4.675,6.475"
           inkscape:connector-curvature="0"
           style="fill:none;stroke:#663300;stroke-width:1;stroke-linecap:round;stroke-linejoin:round" />
        <path
           id="path57"
           vector-effect="non-scaling-stroke"
           d="M 4.675,6.475 4.65,6.45 c -0.05,0 -0.05,0 -0.05,-0.05 0,0.05 0,0.05 0.05,0.1"
           inkscape:connector-curvature="0"
           style="fill:none;stroke:#663300;stroke-width:1;stroke-linecap:round;stroke-linejoin:round" />
        <path
           id="path59"
           vector-effect="non-scaling-stroke"
           d="M 4.65,6.7 C 4.65,6.8 4.7,6.9 4.75,7 4.85,7.15 4.9,7.3 4.9,7.45"
           inkscape:connector-curvature="0"
           style="fill:none;stroke:#663300;stroke-width:1;stroke-linecap:round;stroke-linejoin:round" />
        <path
           id="path64"
           vector-effect="non-scaling-stroke"
           d="m 2.75,8.15 0,0.025 0,0.025 C 2.8,8.25 2.9,8.3 2.95,8.4 3,8.45 3,8.45 3.05,8.5 c 0,0.1 0,0.25 0.05,0.4 0.05,0.25 0.05,0.45 0,0.65"
           inkscape:connector-curvature="0"
           style="fill:none;stroke:#663300;stroke-width:1;stroke-linecap:round;stroke-linejoin:round" />
        <path
           id="path68"
           d="m 0.45,9.425 0,-0.025 c 0.05,0 0.15,0 0.2,0.05 C 0.6,9.35 0.55,9.3 0.4,9.25 c 0,0.05 0,0.15 0.05,0.2"
           inkscape:connector-curvature="0"
           style="fill:#ffffcc" />
        <path
           id="path69"
           vector-effect="non-scaling-stroke"
           d="M 0.65,9.45 C 0.6,9.35 0.55,9.3 0.4,9.25 c 0,0.05 0,0.15 0.05,0.2"
           inkscape:connector-curvature="0"
           style="fill:none;stroke:#663300;stroke-width:1;stroke-linecap:round;stroke-linejoin:round" />
        <path
           id="path72"
           vector-effect="non-scaling-stroke"
           d="M 0.45,9.45 C 0.4,9.4 0.4,9.3 0.4,9.25 0.45,9.4 0.5,9.55 0.55,9.7"
           inkscape:connector-curvature="0"
           style="fill:none;stroke:#663300;stroke-width:1;stroke-linecap:round;stroke-linejoin:round" />
      </g>
      <animate
         attributeName="display"
         begin="0s"
         repeatCount="indefinite"
         dur="0.167s"
         keyTimes="0;0.399;1"
         values="inline;none;none"
         id="animate3226" />
    </g>
  </g>
</svg>
