<?xml version="1.0" encoding="UTF-8" standalone="no"?>
<!-- Generator: flash2svg, http://dissentgraphics.com/tools/flash2svg -->

<svg
   xmlns:dc="http://purl.org/dc/elements/1.1/"
   xmlns:cc="http://creativecommons.org/ns#"
   xmlns:rdf="http://www.w3.org/1999/02/22-rdf-syntax-ns#"
   xmlns:svg="http://www.w3.org/2000/svg"
   xmlns="http://www.w3.org/2000/svg"
   xmlns:sodipodi="http://sodipodi.sourceforge.net/DTD/sodipodi-0.dtd"
   xmlns:inkscape="http://www.inkscape.org/namespaces/inkscape"
   id="Avatar"
   image-rendering="auto"
   version="1.1"
   x="0px"
   y="0px"
   width="20.862736"
   height="13.038718"
   viewBox="0 0 20.862736 13.038718"
   inkscape:version="0.48.4 r9939"
   sodipodi:docname="Avatar_backHandLeft2.svg">
  <metadata
     id="metadata3157">
    <rdf:RDF>
      <cc:Work
         rdf:about="">
        <dc:format>image/svg+xml</dc:format>
        <dc:type
           rdf:resource="http://purl.org/dc/dcmitype/StillImage" />
      </cc:Work>
    </rdf:RDF>
  </metadata>
  <sodipodi:namedview
     pagecolor="#ffffff"
     bordercolor="#666666"
     borderopacity="1"
     objecttolerance="10"
     gridtolerance="10"
     guidetolerance="10"
     inkscape:pageopacity="0"
     inkscape:pageshadow="2"
     inkscape:window-width="640"
     inkscape:window-height="480"
     id="namedview3155"
     showgrid="false"
     fit-margin-top="0"
     fit-margin-left="0"
     fit-margin-right="0"
     fit-margin-bottom="0"
     inkscape:zoom="1.8730159"
     inkscape:cx="51.112735"
     inkscape:cy="-60.11"
     inkscape:window-x="0"
     inkscape:window-y="0"
     inkscape:window-maximized="0"
     inkscape:current-layer="Avatar" />
  <defs
     id="defs3134" />
  <g
     id="backHandLeft3"
     overflow="visible"
     style="overflow:visible"
     transform="translate(17.112735,10.148718)">
    <g
       id="backHandLeft2_4">
      <g
         id="element2">
        <path
           id="path16"
           d="m -11.917,-9.789 c 0.055,-0.058 0.055,-0.058 0.111,-0.061 0.166,-0.065 0.277,-0.126 0.388,-0.188 0.888,0.119 1.333,0.65 1.389,1.592 10e-4,0.389 0.057,0.83 0.112,1.216 l 0.028,-0.029 0.028,0.026 c 0.167,0.213 0.333,0.426 0.445,0.642 0.166,-0.231 0.388,-0.465 0.61,-0.644 0.055,-0.058 0.166,-0.064 0.222,-0.067 0.166,-0.176 0.388,-0.355 0.554,-0.475 l 0.056,-0.003 c 0.111,-0.061 0.222,-0.123 0.333,-0.073 0.111,0.049 0.222,-0.012 0.388,-0.077 0.056,0.053 0.112,0.105 0.167,0.158 0.167,0.269 0.334,0.593 0.445,0.92 0.111,0.328 0.112,0.661 0.057,0.997 -0.167,0.176 -0.333,0.352 -0.444,0.635 -0.166,0.398 -0.443,0.691 -0.776,0.82 0.277,0.374 0.444,0.865 0.501,1.473 0.168,2.491 -0.774,4.431 -2.771,5.817 0.055,-0.115 0.166,-0.232 0.277,-0.349 -0.277,0.182 -0.666,0.259 -1.11,0.227 -1.721,0.037 -2.998,-0.671 -3.832,-2.071 0.055,-0.003 0.055,-0.003 0.111,0.05 -0.056,-0.108 -0.167,-0.213 -0.222,-0.321 -0.834,-1.233 -1.502,-2.475 -2.113,-3.775 0.055,0.053 0.111,0.105 0.166,0.158 -0.055,-0.053 -0.055,-0.053 -0.055,-0.108 -0.501,-1.084 -0.28,-1.985 0.663,-2.759 0.167,-0.064 0.389,-0.132 0.666,-0.091 0.056,-0.003 0.056,-0.003 0.112,0.049 -0.056,-0.052 -0.056,-0.163 -0.056,-0.219 -0.168,-0.935 0.165,-1.675 1.053,-2.223 0.055,-0.003 0.055,-0.003 0.111,-0.062 0.055,-0.003 0.055,-0.003 0.111,-0.006 0.277,-0.071 0.555,-0.03 0.832,0.177 0.223,0.21 0.389,0.424 0.501,0.64 0,-0.056 0,-0.056 0,-0.111 0.054,-0.781 0.387,-1.41 0.942,-1.885 z m 0.222,0.155 c -0.056,0.059 -0.111,0.173 -0.167,0.231 0.167,-0.064 0.278,-0.126 0.444,-0.19 l 0.028,-0.03 q -0.126,-0.021 -0.277,-0.012 z"
           inkscape:connector-curvature="0"
           style="fill:#663300" />
        <path
           id="path20"
           d="m -13.414,-7.819 c 0.055,0.053 0.055,0.053 0.111,0.105 0.111,0.272 0.278,0.485 0.444,0.643 0,-0.056 0,-0.111 -0.055,-0.164 0.055,0.053 0.111,0.05 0.166,0.102 0,-0.055 0,-0.166 0,-0.222 0.056,0.108 0.167,0.213 0.333,0.26 -0.055,-0.164 -0.055,-0.275 -0.055,-0.386 -0.056,-0.275 0.055,-0.614 0.221,-1.012 0.388,-0.799 0.72,-1.15 1.053,-1.112 0.722,0.127 1.056,0.776 1.001,1.945 10e-4,0.112 10e-4,0.223 10e-4,0.278 l 0.027,-0.001 -0.027,0.001 c 0,0.167 0,0.278 0.056,0.386 0.055,0.219 0.167,0.436 0.333,0.704 0.056,0.053 0.056,0.108 0.111,0.161 -0.11,0.173 -0.11,0.395 0.001,0.555 0.055,-0.169 0.166,-0.286 0.277,-0.403 0.056,-0.003 0.056,-0.003 0.056,-0.003 0,0.055 0,0.055 0,0.111 0.111,-0.229 0.222,-0.401 0.388,-0.577 0.277,-0.293 0.666,-0.536 1.054,-0.724 0.277,-0.181 0.5,-0.082 0.666,0.242 0.111,-0.061 0.167,-0.175 0.111,-0.284 0.278,0.43 0.279,0.874 0.001,1.334 -0.277,0.459 -0.498,0.916 -0.776,1.319 0,0 0,0 -0.055,-0.052 0,0.055 0,0.055 0,0.111 0,0.056 0,0.111 -0.055,0.17 0.055,-0.003 0.055,-0.003 0.111,-0.006 0.501,1.695 0.28,3.373 -0.717,5.094 -0.222,0.401 -0.444,0.746 -0.721,1.15 -0.222,0.068 -0.389,0.188 -0.555,0.364 -1.443,0.3 -2.72,-0.02 -3.831,-0.96 l -0.028,-0.026 -0.028,0.029 c -0.611,-1.078 -1.223,-2.156 -1.946,-3.228 -0.167,-0.269 -0.389,-0.479 -0.555,-0.692 -0.168,-0.713 -0.168,-1.547 -0.114,-2.439 0.056,-0.28 0.222,-0.456 0.499,-0.527 0.278,-0.07 0.5,-0.138 0.666,-0.147 0.112,0.161 0.223,0.266 0.389,0.368 -0.111,-0.605 -0.167,-1.213 -0.112,-1.827 0.055,-0.503 0.276,-0.848 0.776,-1.153 0.277,0.04 0.444,0.198 0.611,0.356 0.055,0.052 0.111,0.105 0.167,0.157 z"
           inkscape:connector-curvature="0"
           style="fill:#ffffcc" />
      </g>
      <animate
         attributeName="display"
         begin="0s"
         repeatCount="indefinite"
         dur="0.167s"
         keyTimes="0;0.798;1"
         values="none;inline;none"
         id="animate3141" />
    </g>
    <g
       id="backHandLeft2_2">
      <g
         id="element1">
        <path
           id="path8"
           d="m -12.804,-8.216 q 0.05,-1.102 1.137,-1.728 c 0.61,-0.2 0.999,-0.11 1.277,0.264 0.444,0.087 0.666,0.409 0.722,0.961 0,0.333 10e-4,0.667 10e-4,0.944 0.167,0.269 0.278,0.597 0.389,0.924 0.056,-0.003 0.111,-0.006 0.112,0.049 0.055,-0.058 0.166,-0.12 0.221,-0.178 0.167,-0.12 0.278,-0.238 0.389,-0.299 0.055,-0.059 0.055,-0.059 0.055,-0.059 0.056,-0.003 0.056,-0.003 0.056,-0.003 0.222,-0.178 0.444,-0.357 0.665,-0.536 1.055,-0.168 1.5,0.253 1.389,1.259 -0.054,0.836 -0.498,1.582 -1.219,2.177 0.333,0.315 0.556,0.803 0.668,1.464 0.224,2.265 -0.497,3.86 -2.106,4.891 0.056,-0.058 0.167,-0.064 0.222,-0.067 -1.109,0.838 -2.386,0.907 -3.774,0.204 -0.611,-0.3 -1.056,-0.721 -1.445,-1.2 -0.278,-0.374 -0.611,-0.8 -0.889,-1.23 -0.556,-0.803 -1.056,-1.665 -1.501,-2.585 0.055,0.053 0.055,0.053 0.111,0.105 -0.334,-0.704 -0.446,-1.309 -0.335,-1.815 -0.112,-0.716 0.221,-1.234 1.053,-1.613 0.056,-0.003 0.167,-0.009 0.222,0.044 l 0.028,0.026 -0.027,0.029 c 0.111,-0.006 0.222,-0.012 0.333,0.038 l 0.027,-0.002 -0.027,0.002 c 0,-0.056 0,-0.056 0,-0.111 -0.168,-0.824 -0.057,-1.608 0.386,-2.354 0.388,-0.299 0.832,-0.379 1.221,-0.122 0.278,0.152 0.5,0.362 0.611,0.522 m 3.221,0.993 c 0,0.056 0,0.111 0,0.167 0.056,-0.003 0.056,-0.003 0.056,-0.003 0,-0.056 0,-0.111 -0.056,-0.164 z"
           inkscape:connector-curvature="0"
           style="fill:#663300" />
        <path
           id="path9"
           d="m -11.112,-9.474 c 0.167,-0.065 0.333,-0.129 0.5,-0.083 0.166,0.158 0.222,0.488 0.278,0.874 0.056,0.719 0.223,1.432 0.502,2.084 0.055,0.219 0.167,0.435 0.278,0.596 0,-0.111 -10e-4,-0.222 -0.056,-0.386 0.111,0.161 0.278,0.263 0.444,0.365 0.167,0.102 0.389,0.146 0.555,0.081 0,-0.166 -0.055,-0.275 -0.111,-0.383 0.167,-0.12 0.277,-0.292 0.444,-0.524 0.055,-0.114 0.166,-0.231 0.221,-0.401 0.333,-0.073 0.667,0.02 0.944,0.283 0.278,0.207 0.278,0.485 0.112,0.771 -0.388,0.633 -0.665,1.259 -0.886,1.937 0.055,-0.058 0.166,-0.064 0.222,-0.123 0.334,1.649 0.058,3.33 -0.773,4.987 -0.277,0.515 -0.61,0.977 -1.109,1.337 -1.61,0.143 -2.998,-0.171 -4.054,-0.947 l 0.028,-0.029 0.083,-0.144 c -0.611,-0.856 -1.223,-1.767 -1.834,-2.734 -0.056,-0.053 -0.056,-0.053 -0.111,-0.105 -0.279,-0.929 -0.502,-1.862 -0.613,-2.8 -0.057,-0.719 0.221,-1.012 0.887,-0.826 0.167,0.046 0.278,0.04 0.389,0.034 0.055,0.053 0.166,0.103 0.222,0.155 0,-0.055 0,-0.167 -0.056,-0.219 l 0.028,-0.002 0.028,-10e-4 c 0,-0.056 0,-0.056 -0.056,-0.053 -0.056,-0.441 -0.056,-0.886 -0.057,-1.385 0,-0.389 0.055,-0.781 0.221,-1.179 0.611,-0.422 1.055,-0.279 1.388,0.314 0.112,0.16 0.223,0.321 0.334,0.426 0.056,0.275 0.167,0.547 0.334,0.76 -0.223,-1.266 0.22,-2.179 1.274,-2.68 z"
           inkscape:connector-curvature="0"
           style="fill:#ffffcc" />
      </g>
      <animate
         attributeName="display"
         begin="0s"
         repeatCount="indefinite"
         dur="0.167s"
         keyTimes="0;0.399;0.798;1"
         values="none;inline;none;none"
         id="animate3147" />
    </g>
    <g
       id="backHandLeft2_0">
      <g
         id="element">
        <path
           id="path"
           d="M 0.7,-7.8 Q 0.65,-7.9 0.6,-8 c 0.05,-0.5 -0.05,-1 -0.3,-1.55 -0.25,-0.5 -0.7,-0.7 -1.35,-0.55 -0.1,0.05 -0.2,0.1 -0.25,0.15 -0.05,0 -0.05,0 -0.1,0 -0.55,0.6 -0.85,1.25 -1,1.9 l 0,0.05 C -2.45,-8.15 -2.55,-8.3 -2.7,-8.45 -3.05,-8.9 -3.45,-9.1 -3.9,-9 c -0.75,0.6 -1,1.4 -0.8,2.45 0,0.05 0.05,0.15 0.1,0.2 -0.25,-0.25 -0.5,-0.3 -0.8,-0.2 -0.75,0.45 -1.1,1.05 -1.05,1.85 0,0.35 0.1,0.7 0.25,0.95 0.05,0.4 0.2,0.8 0.35,1.25 0.05,0.15 0.15,0.35 0.3,0.55 0.45,1.15 1.15,2.15 2.1,2.9 C -3.5,0.9 -3.6,0.9 -3.7,0.9 -2.85,2.05 -1.8,2.5 -0.5,2.35 0.25,2.4 0.95,2.1 1.6,1.55 1.55,1.65 1.55,1.75 1.55,1.85 1.5,1.9 1.5,1.9 1.55,1.95 2.6,0.7 3.1,-0.85 3.05,-2.7 3.2,-3.2 3.2,-3.8 2.95,-4.45 2.9,-4.6 2.8,-4.7 2.75,-4.75 2.8,-4.8 2.9,-4.9 3,-5.05 3.5,-5.7 3.75,-6.15 3.75,-6.5 c 0,-0.35 0,-0.65 -0.05,-0.9 -0.1,-0.35 -0.3,-0.55 -0.6,-0.55 -0.05,0 -0.05,0 -0.1,0 -0.15,0 -0.4,0.05 -0.65,0.1 -0.2,0.1 -0.4,0.25 -0.6,0.5 l -0.05,0 C 1.65,-7.3 1.65,-7.3 1.6,-7.25 1.55,-7.15 1.45,-7.05 1.3,-6.9 1.25,-6.85 1.25,-6.8 1.2,-6.75 L 1.15,-6.7 c 0,0.05 0,0.05 -0.05,0.1 0,0.1 0,0.2 -0.05,0.25 0.05,-0.05 0.05,-0.05 0.1,-0.1 l 0,-0.1 c 0.05,0 0.05,0 0.05,-0.05 l 0,0.05 c 0.25,-0.2 0.6,-0.4 1.05,-0.65 0.55,-0.35 0.85,-0.4 0.95,-0.25 0.05,0.05 0.05,0.1 0.05,0.15 0,0.25 0,0.55 0.05,0.8 -0.05,0.15 -0.1,0.3 -0.2,0.45 -0.05,0.1 -0.15,0.2 -0.25,0.35 -0.05,0.15 -0.15,0.25 -0.2,0.4 -0.05,0.05 -0.1,0.15 -0.15,0.3 -0.05,0.05 -0.1,0.15 -0.15,0.2 0.05,0 0.1,0 0.15,-0.05 l 0.05,0 0,0.05 -0.05,-0.05 c 0,0.05 0,0.15 0,0.2 0.05,0 0.05,0.05 0,0.15 0.15,1.45 0,2.9 -0.45,4.3 C 1.9,0.15 1.8,0.45 1.75,0.75 1.4,1.15 1,1.45 0.55,1.7 -2.15,2.05 -4,0.8 -5.05,-1.95 c -0.15,-0.3 -0.3,-0.55 -0.45,-0.8 -0.05,-0.4 -0.15,-0.8 -0.2,-1.2 -0.05,-0.45 -0.2,-0.8 -0.35,-1.05 0.15,-0.35 0.35,-0.7 0.6,-0.95 0.3,-0.35 0.55,-0.4 0.7,-0.05 0.1,0.15 0.2,0.15 0.35,0.05 0.1,0.15 0.25,0.25 0.4,0.4 -0.15,-0.55 -0.25,-1.2 -0.3,-1.85 0,-0.5 0.15,-0.9 0.5,-1.25 0.05,0 0.15,0 0.25,0 0.05,0.05 0.15,0.05 0.25,0.05 0.05,0.2 0.2,0.4 0.35,0.6 0.15,0.25 0.35,0.4 0.5,0.55 0.05,-0.05 0.05,-0.05 0.05,-0.1 l 0,0.05 c 0.05,0.1 0.15,0.2 0.2,0.35 0.1,-0.65 0.35,-1.4 0.75,-2.15 0.1,-0.2 0.25,-0.35 0.4,-0.45 0.8,-0.25 1.2,0.15 1.15,1.15 -0.05,0.25 0,0.5 0.05,0.75 0.1,0.25 0.25,0.5 0.45,0.75 l 0,0.05 c 0.05,0.1 0.1,0.2 0.15,0.3 0.05,0.15 0.2,0.2 0.35,0.15 0,-0.05 0,-0.05 0,-0.1 l 0.05,0 c 0,-0.05 0,-0.05 0,-0.1 0,-0.25 -0.05,-0.45 -0.2,-0.6 C 0.9,-7.45 0.85,-7.5 0.8,-7.55 0.75,-7.6 0.75,-7.7 0.7,-7.8 z m 0.9,9.15 c 0,0.05 0,0.05 0,0.1 C 1.55,1.45 1.5,1.5 1.45,1.55 1.5,1.45 1.55,1.4 1.6,1.35 z"
           inkscape:connector-curvature="0"
           style="fill:#663300" />
        <path
           id="path4"
           d="M 0.15,-7.85 C 0.1,-8.1 0.05,-8.35 0.1,-8.6 c 0.05,-1 -0.35,-1.4 -1.15,-1.15 -0.15,0.1 -0.3,0.25 -0.4,0.45 -0.4,0.75 -0.65,1.5 -0.75,2.15 C -2.25,-7.3 -2.35,-7.4 -2.4,-7.5 l -0.05,0.05 C -2.6,-7.6 -2.8,-7.75 -2.95,-8 -3.1,-8.2 -3.25,-8.4 -3.3,-8.6 c -0.1,0 -0.2,0 -0.25,-0.05 -0.1,0 -0.2,0 -0.25,0 -0.35,0.35 -0.5,0.75 -0.5,1.25 0.05,0.65 0.15,1.3 0.3,1.85 -0.15,-0.15 -0.3,-0.25 -0.4,-0.4 -0.15,0.1 -0.25,0.1 -0.35,-0.05 -0.15,-0.35 -0.4,-0.3 -0.7,0.05 -0.25,0.25 -0.45,0.6 -0.6,0.95 0.15,0.25 0.3,0.6 0.35,1.05 0.05,0.4 0.15,0.8 0.2,1.2 0.15,0.25 0.3,0.5 0.45,0.8 1.05,2.75 2.9,4 5.6,3.65 C 1,1.45 1.4,1.15 1.75,0.75 1.8,0.45 1.9,0.15 2.05,-0.2 2.5,-1.6 2.65,-3.05 2.5,-4.5 c 0.05,-0.1 0.05,-0.15 0,-0.15 0,-0.05 0,-0.15 0,-0.2 C 2.45,-4.8 2.4,-4.8 2.35,-4.8 2.4,-4.85 2.45,-4.95 2.5,-5 2.55,-5.15 2.6,-5.25 2.65,-5.3 2.7,-5.45 2.8,-5.55 2.85,-5.7 2.95,-5.85 3.05,-5.95 3.1,-6.05 3.2,-6.2 3.25,-6.35 3.3,-6.5 3.25,-6.75 3.25,-7.05 3.25,-7.3 3.25,-7.35 3.25,-7.4 3.2,-7.45 3.1,-7.6 2.8,-7.55 2.25,-7.2 1.8,-6.95 1.45,-6.75 1.2,-6.55 l 0,-0.05 c 0,0.05 0,0.05 -0.05,0.05 l 0,0.1 C 1.1,-6.4 1.1,-6.4 1.05,-6.35 1.1,-6.4 1.1,-6.5 1.1,-6.6 0.95,-6.55 0.8,-6.6 0.75,-6.75 0.7,-6.85 0.65,-6.95 0.6,-7.05 l 0,-0.05 C 0.4,-7.35 0.25,-7.6 0.15,-7.85 z"
           inkscape:connector-curvature="0"
           style="fill:#ffffcc" />
      </g>
      <animate
         attributeName="display"
         begin="0s"
         repeatCount="indefinite"
         dur="0.167s"
         keyTimes="0;0.399;1"
         values="inline;none;none"
         id="animate3153" />
    </g>
  </g>
</svg>
