<?xml version="1.0" encoding="utf-8"?>
<!-- Generator: flash2svg, http://dissentgraphics.com/tools/flash2svg -->
<svg xmlns:xlink="http://www.w3.org/1999/xlink" id="Avatar" image-rendering="auto" baseProfile="basic" version="1.1" x="0px" y="0px" width="68" height="126" xmlns="http://www.w3.org/2000/svg" viewBox="0 0 68 126">
  <defs/>
  <g id="backHandLeft3" overflow="visible">
    <g id="backHandLeft2_4">
      <g id="element2">
        <path id="path16" fill="#630" d="M-11.917,-9.789 C-11.862,-9.847 -11.862,-9.847 -11.806,-9.85 -11.64,-9.915 -11.529,-9.976 -11.418,-10.038 -10.53,-9.919 -10.085,-9.388 -10.029,-8.446 -10.028,-8.057 -9.972,-7.616 -9.917,-7.23 L-9.889,-7.259 L-9.861,-7.233 C-9.694,-7.02 -9.528,-6.807 -9.416,-6.591 -9.25,-6.822 -9.028,-7.056 -8.806,-7.235 -8.751,-7.293 -8.64,-7.299 -8.584,-7.302 -8.418,-7.478 -8.196,-7.657 -8.03,-7.777 L-7.974,-7.78 C-7.863,-7.841 -7.752,-7.903 -7.641,-7.853 -7.53,-7.804 -7.419,-7.865 -7.253,-7.93 -7.197,-7.877 -7.141,-7.825 -7.086,-7.772 -6.919,-7.503 -6.752,-7.179 -6.641,-6.852 -6.53,-6.524 -6.529,-6.191 -6.584,-5.855 -6.751,-5.679 -6.917,-5.503 -7.028,-5.22 -7.194,-4.822 -7.471,-4.529 -7.804,-4.4 -7.527,-4.026 -7.36,-3.535 -7.303,-2.927 -7.135,-0.436 -8.077,1.504 -10.074,2.89 -10.019,2.775 -9.908,2.658 -9.797,2.541 -10.074,2.723 -10.463,2.8 -10.907,2.768 -12.628,2.805 -13.905,2.097 -14.739,0.697 -14.684,0.694 -14.684,0.694 -14.628,0.747 -14.684,0.639 -14.795,0.534 -14.85,0.426 -15.684,-0.807 -16.352,-2.049 -16.963,-3.349 -16.908,-3.296 -16.852,-3.244 -16.797,-3.191 -16.852,-3.244 -16.852,-3.244 -16.852,-3.299 -17.353,-4.383 -17.132,-5.284 -16.189,-6.058 -16.022,-6.122 -15.8,-6.19 -15.523,-6.149 -15.467,-6.152 -15.467,-6.152 -15.411,-6.1 -15.467,-6.152 -15.467,-6.263 -15.467,-6.319 -15.635,-7.254 -15.302,-7.994 -14.414,-8.542 -14.359,-8.545 -14.359,-8.545 -14.303,-8.604 -14.248,-8.607 -14.248,-8.607 -14.192,-8.61 -13.915,-8.681 -13.637,-8.64 -13.36,-8.433 -13.137,-8.223 -12.971,-8.009 -12.859,-7.793 -12.859,-7.849 -12.859,-7.849 -12.859,-7.904 -12.805,-8.685 -12.472,-9.314 -11.917,-9.789z M-11.695,-9.634 C-11.751,-9.575 -11.806,-9.461 -11.862,-9.403 -11.695,-9.467 -11.584,-9.529 -11.418,-9.593 L-11.39,-9.623 Q-11.516,-9.644 -11.667,-9.635z"/>
        <path id="path20" fill="#FFC" d="M-13.414,-7.819 C-13.359,-7.766 -13.359,-7.766 -13.303,-7.714 -13.192,-7.442 -13.025,-7.229 -12.859,-7.071 -12.859,-7.127 -12.859,-7.182 -12.914,-7.235 -12.859,-7.182 -12.803,-7.185 -12.748,-7.133 -12.748,-7.188 -12.748,-7.299 -12.748,-7.355 -12.692,-7.247 -12.581,-7.142 -12.415,-7.095 -12.47,-7.259 -12.47,-7.37 -12.47,-7.481 -12.526,-7.756 -12.415,-8.095 -12.249,-8.493 -11.861,-9.292 -11.529,-9.643 -11.196,-9.605 -10.474,-9.478 -10.14,-8.829 -10.195,-7.66 -10.194,-7.548 -10.194,-7.437 -10.194,-7.382 L-10.167,-7.383 L-10.194,-7.382 C-10.194,-7.215 -10.194,-7.104 -10.138,-6.996 -10.083,-6.777 -9.971,-6.56 -9.805,-6.292 -9.749,-6.239 -9.749,-6.184 -9.694,-6.131 -9.804,-5.958 -9.804,-5.736 -9.693,-5.576 -9.638,-5.745 -9.527,-5.862 -9.416,-5.979 -9.36,-5.982 -9.36,-5.982 -9.36,-5.982 -9.36,-5.927 -9.36,-5.927 -9.36,-5.871 -9.249,-6.1 -9.138,-6.272 -8.972,-6.448 -8.695,-6.741 -8.306,-6.984 -7.918,-7.172 -7.641,-7.353 -7.418,-7.254 -7.252,-6.93 -7.141,-6.991 -7.085,-7.105 -7.141,-7.214 -6.863,-6.784 -6.862,-6.34 -7.14,-5.88 -7.417,-5.421 -7.638,-4.964 -7.916,-4.561 -7.916,-4.561 -7.916,-4.561 -7.971,-4.613 -7.971,-4.558 -7.971,-4.558 -7.971,-4.502 -7.971,-4.446 -7.971,-4.391 -8.026,-4.332 -7.971,-4.335 -7.971,-4.335 -7.915,-4.338 -7.414,-2.643 -7.635,-0.965 -8.632,0.756 -8.854,1.157 -9.076,1.502 -9.353,1.906 -9.575,1.974 -9.742,2.094 -9.908,2.27 -11.351,2.57 -12.628,2.25 -13.739,1.31 L-13.767,1.284 L-13.795,1.313 C-14.406,0.235 -15.018,-0.843 -15.741,-1.915 -15.908,-2.184 -16.13,-2.394 -16.296,-2.607 -16.464,-3.32 -16.464,-4.154 -16.41,-5.046 -16.354,-5.326 -16.188,-5.502 -15.911,-5.573 -15.633,-5.643 -15.411,-5.711 -15.245,-5.72 -15.133,-5.559 -15.022,-5.454 -14.856,-5.352 -14.967,-5.957 -15.023,-6.565 -14.968,-7.179 -14.913,-7.682 -14.692,-8.027 -14.192,-8.332 -13.915,-8.292 -13.748,-8.134 -13.581,-7.976 -13.526,-7.924 -13.47,-7.871 -13.414,-7.819z"/>
      </g>
      <animate attributeName="display" begin="0s" repeatCount="indefinite" dur="0.167s" keyTimes="0;0.798;1" values="none;inline;none"/>
    </g>
    <g id="backHandLeft2_2">
      <g id="element1">
        <path id="path8" fill="#630" d="M-12.804,-8.216 Q-12.754,-9.318 -11.667,-9.944 C-11.057,-10.144 -10.668,-10.054 -10.39,-9.68 -9.946,-9.593 -9.724,-9.271 -9.668,-8.719 -9.668,-8.386 -9.667,-8.052 -9.667,-7.775 -9.5,-7.506 -9.389,-7.178 -9.278,-6.851 -9.222,-6.854 -9.167,-6.857 -9.166,-6.802 -9.111,-6.86 -9,-6.922 -8.945,-6.98 -8.778,-7.1 -8.667,-7.218 -8.556,-7.279 -8.501,-7.338 -8.501,-7.338 -8.501,-7.338 -8.445,-7.341 -8.445,-7.341 -8.445,-7.341 -8.223,-7.519 -8.001,-7.698 -7.78,-7.877 -6.725,-8.045 -6.28,-7.624 -6.391,-6.618 -6.445,-5.782 -6.889,-5.036 -7.61,-4.441 -7.277,-4.126 -7.054,-3.638 -6.942,-2.977 -6.718,-0.712 -7.439,0.883 -9.048,1.914 -8.992,1.856 -8.881,1.85 -8.826,1.847 -9.935,2.685 -11.212,2.754 -12.6,2.051 -13.211,1.751 -13.656,1.33 -14.045,0.851 -14.323,0.477 -14.656,0.051 -14.934,-0.379 -15.49,-1.182 -15.99,-2.044 -16.435,-2.964 -16.38,-2.911 -16.38,-2.911 -16.324,-2.859 -16.658,-3.563 -16.77,-4.168 -16.659,-4.674 -16.771,-5.39 -16.438,-5.908 -15.606,-6.287 -15.55,-6.29 -15.439,-6.296 -15.384,-6.243 L-15.356,-6.217 L-15.383,-6.188 C-15.272,-6.194 -15.161,-6.2 -15.05,-6.15 L-15.023,-6.152 L-15.05,-6.15 C-15.05,-6.206 -15.05,-6.206 -15.05,-6.261 -15.218,-7.085 -15.107,-7.869 -14.664,-8.615 -14.276,-8.914 -13.832,-8.994 -13.443,-8.737 -13.165,-8.585 -12.943,-8.375 -12.832,-8.215 M-9.611,-7.222 C-9.611,-7.166 -9.611,-7.111 -9.611,-7.055 -9.555,-7.058 -9.555,-7.058 -9.555,-7.058 -9.555,-7.114 -9.555,-7.169 -9.611,-7.222z"/>
        <path id="path9" fill="#FFC" d="M-11.112,-9.474 C-10.945,-9.539 -10.779,-9.603 -10.612,-9.557 -10.446,-9.399 -10.39,-9.069 -10.334,-8.683 -10.278,-7.964 -10.111,-7.251 -9.832,-6.599 -9.777,-6.38 -9.665,-6.164 -9.554,-6.003 -9.554,-6.114 -9.555,-6.225 -9.61,-6.389 -9.499,-6.228 -9.332,-6.126 -9.166,-6.024 -8.999,-5.922 -8.777,-5.878 -8.611,-5.943 -8.611,-6.109 -8.666,-6.218 -8.722,-6.326 -8.555,-6.446 -8.445,-6.618 -8.278,-6.85 -8.223,-6.964 -8.112,-7.081 -8.057,-7.251 -7.724,-7.324 -7.39,-7.231 -7.113,-6.968 -6.835,-6.761 -6.835,-6.483 -7.001,-6.197 -7.389,-5.564 -7.666,-4.938 -7.887,-4.26 -7.832,-4.318 -7.721,-4.324 -7.665,-4.383 -7.331,-2.734 -7.607,-1.053 -8.438,0.604 -8.715,1.119 -9.048,1.581 -9.547,1.941 -11.157,2.084 -12.545,1.77 -13.601,0.994 L-13.573,0.965 L-13.49,0.821 C-14.101,-0.035 -14.713,-0.946 -15.324,-1.913 -15.38,-1.966 -15.38,-1.966 -15.435,-2.018 -15.714,-2.947 -15.937,-3.88 -16.048,-4.818 -16.105,-5.537 -15.827,-5.83 -15.161,-5.644 -14.994,-5.598 -14.883,-5.604 -14.772,-5.61 -14.717,-5.557 -14.606,-5.507 -14.55,-5.455 -14.55,-5.51 -14.55,-5.622 -14.606,-5.674 L-14.578,-5.676 L-14.55,-5.677 C-14.55,-5.733 -14.55,-5.733 -14.606,-5.73 -14.662,-6.171 -14.662,-6.616 -14.663,-7.115 -14.663,-7.504 -14.608,-7.896 -14.442,-8.294 -13.831,-8.716 -13.387,-8.573 -13.054,-7.98 -12.942,-7.82 -12.831,-7.659 -12.72,-7.554 -12.664,-7.279 -12.553,-7.007 -12.386,-6.794 -12.609,-8.06 -12.166,-8.973 -11.112,-9.474z"/>
      </g>
      <animate attributeName="display" begin="0s" repeatCount="indefinite" dur="0.167s" keyTimes="0;0.399;0.798;1" values="none;inline;none;none"/>
    </g>
    <g id="backHandLeft2_0">
      <g id="element">
        <path id="path" fill="#630" d="M0.7,-7.8 Q0.65,-7.9 0.6,-8 C0.65,-8.5 0.55,-9 0.3,-9.55 0.05,-10.05 -0.4,-10.25 -1.05,-10.1 -1.15,-10.05 -1.25,-10 -1.3,-9.95 -1.35,-9.95 -1.35,-9.95 -1.4,-9.95 -1.95,-9.35 -2.25,-8.7 -2.4,-8.05 L-2.4,-8 C-2.45,-8.15 -2.55,-8.3 -2.7,-8.45 -3.05,-8.9 -3.45,-9.1 -3.9,-9 -4.65,-8.4 -4.9,-7.6 -4.7,-6.55 -4.7,-6.5 -4.65,-6.4 -4.6,-6.35 -4.85,-6.6 -5.1,-6.65 -5.4,-6.55 -6.15,-6.1 -6.5,-5.5 -6.45,-4.7 -6.45,-4.35 -6.35,-4 -6.2,-3.75 -6.15,-3.35 -6,-2.95 -5.85,-2.5 -5.8,-2.35 -5.7,-2.15 -5.55,-1.95 -5.1,-0.8 -4.4,0.2 -3.45,0.95 -3.5,0.9 -3.6,0.9 -3.7,0.9 -2.85,2.05 -1.8,2.5 -0.5,2.35 0.25,2.4 0.95,2.1 1.6,1.55 1.55,1.65 1.55,1.75 1.55,1.85 1.5,1.9 1.5,1.9 1.55,1.95 2.6,0.7 3.1,-0.85 3.05,-2.7 3.2,-3.2 3.2,-3.8 2.95,-4.45 2.9,-4.6 2.8,-4.7 2.75,-4.75 2.8,-4.8 2.9,-4.9 3,-5.05 3.5,-5.7 3.75,-6.15 3.75,-6.5 3.75,-6.85 3.75,-7.15 3.7,-7.4 3.6,-7.75 3.4,-7.95 3.1,-7.95 3.05,-7.95 3.05,-7.95 3,-7.95 2.85,-7.95 2.6,-7.9 2.35,-7.85 2.15,-7.75 1.95,-7.6 1.75,-7.35 L1.7,-7.35 C1.65,-7.3 1.65,-7.3 1.6,-7.25 1.55,-7.15 1.45,-7.05 1.3,-6.9 1.25,-6.85 1.25,-6.8 1.2,-6.75 L1.15,-6.7 C1.15,-6.65 1.15,-6.65 1.1,-6.6 1.1,-6.5 1.1,-6.4 1.05,-6.35 1.1,-6.4 1.1,-6.4 1.15,-6.45 L1.15,-6.55 C1.2,-6.55 1.2,-6.55 1.2,-6.6 L1.2,-6.55 C1.45,-6.75 1.8,-6.95 2.25,-7.2 2.8,-7.55 3.1,-7.6 3.2,-7.45 3.25,-7.4 3.25,-7.35 3.25,-7.3 3.25,-7.05 3.25,-6.75 3.3,-6.5 3.25,-6.35 3.2,-6.2 3.1,-6.05 3.05,-5.95 2.95,-5.85 2.85,-5.7 2.8,-5.55 2.7,-5.45 2.65,-5.3 2.6,-5.25 2.55,-5.15 2.5,-5 2.45,-4.95 2.4,-4.85 2.35,-4.8 2.4,-4.8 2.45,-4.8 2.5,-4.85 L2.55,-4.85 2.55,-4.8 2.5,-4.85 C2.5,-4.8 2.5,-4.7 2.5,-4.65 2.55,-4.65 2.55,-4.6 2.5,-4.5 2.65,-3.05 2.5,-1.6 2.05,-0.2 1.9,0.15 1.8,0.45 1.75,0.75 1.4,1.15 1,1.45 0.55,1.7 -2.15,2.05 -4,0.8 -5.05,-1.95 -5.2,-2.25 -5.35,-2.5 -5.5,-2.75 -5.55,-3.15 -5.65,-3.55 -5.7,-3.95 -5.75,-4.4 -5.9,-4.75 -6.05,-5 -5.9,-5.35 -5.7,-5.7 -5.45,-5.95 -5.15,-6.3 -4.9,-6.35 -4.75,-6 -4.65,-5.85 -4.55,-5.85 -4.4,-5.95 -4.3,-5.8 -4.15,-5.7 -4,-5.55 -4.15,-6.1 -4.25,-6.75 -4.3,-7.4 -4.3,-7.9 -4.15,-8.3 -3.8,-8.65 -3.75,-8.65 -3.65,-8.65 -3.55,-8.65 -3.5,-8.6 -3.4,-8.6 -3.3,-8.6 -3.25,-8.4 -3.1,-8.2 -2.95,-8 -2.8,-7.75 -2.6,-7.6 -2.45,-7.45 -2.4,-7.5 -2.4,-7.5 -2.4,-7.55 L-2.4,-7.5 C-2.35,-7.4 -2.25,-7.3 -2.2,-7.15 -2.1,-7.8 -1.85,-8.55 -1.45,-9.3 -1.35,-9.5 -1.2,-9.65 -1.05,-9.75 -0.25,-10 0.15,-9.6 0.1,-8.6 0.05,-8.35 0.1,-8.1 0.15,-7.85 0.25,-7.6 0.4,-7.35 0.6,-7.1 L0.6,-7.05 C0.65,-6.95 0.7,-6.85 0.75,-6.75 0.8,-6.6 0.95,-6.55 1.1,-6.6 1.1,-6.65 1.1,-6.65 1.1,-6.7 L1.15,-6.7 C1.15,-6.75 1.15,-6.75 1.15,-6.8 1.15,-7.05 1.1,-7.25 0.95,-7.4 0.9,-7.45 0.85,-7.5 0.8,-7.55 0.75,-7.6 0.75,-7.7 0.7,-7.8z M1.6,1.35 C1.6,1.4 1.6,1.4 1.6,1.45 1.55,1.45 1.5,1.5 1.45,1.55 1.5,1.45 1.55,1.4 1.6,1.35z"/>
        <path id="path4" fill="#FFC" d="M0.15,-7.85 C0.1,-8.1 0.05,-8.35 0.1,-8.6 0.15,-9.6 -0.25,-10 -1.05,-9.75 -1.2,-9.65 -1.35,-9.5 -1.45,-9.3 -1.85,-8.55 -2.1,-7.8 -2.2,-7.15 -2.25,-7.3 -2.35,-7.4 -2.4,-7.5 L-2.45,-7.45 C-2.6,-7.6 -2.8,-7.75 -2.95,-8 -3.1,-8.2 -3.25,-8.4 -3.3,-8.6 -3.4,-8.6 -3.5,-8.6 -3.55,-8.65 -3.65,-8.65 -3.75,-8.65 -3.8,-8.65 -4.15,-8.3 -4.3,-7.9 -4.3,-7.4 -4.25,-6.75 -4.15,-6.1 -4,-5.55 -4.15,-5.7 -4.3,-5.8 -4.4,-5.95 -4.55,-5.85 -4.65,-5.85 -4.75,-6 -4.9,-6.35 -5.15,-6.3 -5.45,-5.95 -5.7,-5.7 -5.9,-5.35 -6.05,-5 -5.9,-4.75 -5.75,-4.4 -5.7,-3.95 -5.65,-3.55 -5.55,-3.15 -5.5,-2.75 -5.35,-2.5 -5.2,-2.25 -5.05,-1.95 -4,0.8 -2.15,2.05 0.55,1.7 1,1.45 1.4,1.15 1.75,0.75 1.8,0.45 1.9,0.15 2.05,-0.2 2.5,-1.6 2.65,-3.05 2.5,-4.5 2.55,-4.6 2.55,-4.65 2.5,-4.65 2.5,-4.7 2.5,-4.8 2.5,-4.85 2.45,-4.8 2.4,-4.8 2.35,-4.8 2.4,-4.85 2.45,-4.95 2.5,-5 2.55,-5.15 2.6,-5.25 2.65,-5.3 2.7,-5.45 2.8,-5.55 2.85,-5.7 2.95,-5.85 3.05,-5.95 3.1,-6.05 3.2,-6.2 3.25,-6.35 3.3,-6.5 3.25,-6.75 3.25,-7.05 3.25,-7.3 3.25,-7.35 3.25,-7.4 3.2,-7.45 3.1,-7.6 2.8,-7.55 2.25,-7.2 1.8,-6.95 1.45,-6.75 1.2,-6.55 L1.2,-6.6 C1.2,-6.55 1.2,-6.55 1.15,-6.55 L1.15,-6.45 C1.1,-6.4 1.1,-6.4 1.05,-6.35 1.1,-6.4 1.1,-6.5 1.1,-6.6 0.95,-6.55 0.8,-6.6 0.75,-6.75 0.7,-6.85 0.65,-6.95 0.6,-7.05 L0.6,-7.1 C0.4,-7.35 0.25,-7.6 0.15,-7.85z"/>
      </g>
      <animate attributeName="display" begin="0s" repeatCount="indefinite" dur="0.167s" keyTimes="0;0.399;1" values="inline;none;none"/>
    </g>
  </g>
</svg>