<?xml version="1.0" encoding="UTF-8" standalone="no"?>
<!-- Generator: flash2svg, http://dissentgraphics.com/tools/flash2svg -->

<svg
   xmlns:dc="http://purl.org/dc/elements/1.1/"
   xmlns:cc="http://creativecommons.org/ns#"
   xmlns:rdf="http://www.w3.org/1999/02/22-rdf-syntax-ns#"
   xmlns:svg="http://www.w3.org/2000/svg"
   xmlns="http://www.w3.org/2000/svg"
   xmlns:sodipodi="http://sodipodi.sourceforge.net/DTD/sodipodi-0.dtd"
   xmlns:inkscape="http://www.inkscape.org/namespaces/inkscape"
   id="Avatar"
   image-rendering="auto"
   version="1.1"
   x="0px"
   y="0px"
   width="22.845686"
   height="14.338903"
   viewBox="0 0 22.845686 14.338903"
   inkscape:version="0.48.4 r9939"
   sodipodi:docname="Avatar_backFootRight2.svg">
  <metadata
     id="metadata3131">
    <rdf:RDF>
      <cc:Work
         rdf:about="">
        <dc:format>image/svg+xml</dc:format>
        <dc:type
           rdf:resource="http://purl.org/dc/dcmitype/StillImage" />
      </cc:Work>
    </rdf:RDF>
  </metadata>
  <sodipodi:namedview
     pagecolor="#ffffff"
     bordercolor="#666666"
     borderopacity="1"
     objecttolerance="10"
     gridtolerance="10"
     guidetolerance="10"
     inkscape:pageopacity="0"
     inkscape:pageshadow="2"
     inkscape:window-width="640"
     inkscape:window-height="480"
     id="namedview3129"
     showgrid="false"
     fit-margin-top="0"
     fit-margin-left="0"
     fit-margin-right="0"
     fit-margin-bottom="0"
     inkscape:zoom="1.8730159"
     inkscape:cx="50.247049"
     inkscape:cy="-51.816346"
     inkscape:window-x="0"
     inkscape:window-y="0"
     inkscape:window-maximized="0"
     inkscape:current-layer="Avatar" />
  <defs
     id="defs3108" />
  <g
     id="backFootRight3"
     overflow="visible"
     style="overflow:visible"
     transform="translate(16.247049,3.15525)">
    <g
       id="backFootRight2_4">
      <g
         id="element2">
        <path
           id="path11"
           d="M 1.65,-2.05 Q 1.6,-2.1 1.5,-2.15 C 1.4,-2.2 1.3,-2.25 1.15,-2.3 1.1,-2.35 1.05,-2.4 0.95,-2.45 0.95,-2.5 0.9,-2.5 0.85,-2.5 0.8,-2.55 0.75,-2.55 0.7,-2.55 0.65,-2.6 0.6,-2.6 0.55,-2.6 0.55,-2.65 0.55,-2.65 0.5,-2.65 0.45,-2.7 0.4,-2.7 0.35,-2.7 c -0.05,0 -0.15,0 -0.2,0.05 -0.2,-0.05 -0.4,-0.05 -0.6,-0.05 l -0.1,0 c -0.45,0.2 -0.8,0.45 -1.15,0.75 -0.2,0.15 -0.35,0.3 -0.45,0.45 -1.15,0.75 -1.8,1.9 -1.95,3.35 0.05,0.15 0.05,0.35 0.05,0.5 0,0.1 -0.05,0.2 -0.15,0.3 L -4.25,2.7 c 0.45,1.25 1.3,2.2 2.65,2.85 L -1.65,5.6 C -0.9,5.9 -0.2,6.25 0.4,6.6 0.7,6.75 1,6.85 1.25,7 1.2,7 1.1,7 1.05,7.05 1.4,7.3 1.75,7.55 2.05,7.8 1.45,7.55 0.8,7.3 0.1,6.95 -0.25,6.8 -0.55,6.6 -0.85,6.45 l -0.05,0.1 c 1.6,1.7 3.5,3 5.65,3.95 0.25,0 0.5,-0.05 0.8,-0.2 C 5.5,10.2 5.4,10.1 5.35,10 5.25,9.85 5.25,9.65 5.3,9.5 c 0.05,0.05 0.1,0.05 0.15,0.1 0,-0.05 0,-0.05 -0.05,-0.1 0,-0.05 0,-0.05 0.05,-0.1 0.05,0 0.1,0 0.1,0.05 C 5.7,9.3 5.9,9.25 6.05,9.2 6,9 5.95,8.8 5.95,8.65 5.95,8.55 5.95,8.45 5.9,8.35 5.7,8.15 5.5,7.95 5.3,7.8 5.25,7.75 5.25,7.7 5.2,7.65 l -0.05,0 0.1,-0.05 c 0.1,0.05 0.2,0.05 0.25,0.1 l 0,-0.05 C 5.8,6.9 5.7,6.2 5.2,5.65 5.05,5.5 4.95,5.35 4.85,5.2 L 4.8,5.2 C 4.75,5.15 4.65,5.1 4.55,5.05 4.6,5.7 4.65,6.25 4.7,6.65 4.45,6 4.25,5.35 4.1,4.6 3.95,4.4 3.8,4.2 3.75,3.95 3.8,3.95 3.9,3.95 3.95,4 3.95,3.85 3.95,3.75 3.9,3.6 3.75,3 3.65,2.4 3.5,1.75 3.55,1.4 3.55,0.95 3.45,0.45 3.4,0.35 3.4,0.25 3.35,0.15 3.3,0 3.25,-0.1 3.2,-0.2 L 1.65,-2.05 z"
           inkscape:connector-curvature="0"
           style="fill:#ffffcc" />
        <path
           id="path12"
           d="m -0.55,-2.7 c -0.2,0 -0.4,0.05 -0.6,0.1 -1.6,0.35 -2.7,1.35 -3.25,3.05 C -4.5,0.7 -4.55,0.95 -4.55,1.2 -4.6,1.3 -4.6,1.4 -4.65,1.55 L -4.7,1.65 C -4.9,3.1 -4.45,4.2 -3.35,5 c 0.3,0.25 0.6,0.45 0.95,0.5 0.05,0 0.05,0 0.05,0.05 1.15,1.65 2.7,3.05 4.55,4.1 0.35,0.15 0.65,0.35 0.95,0.5 0.1,0.05 0.15,0.1 0.2,0.15 L 3.3,10.35 C 3.95,11.2 4.75,11.4 5.7,10.95 5.9,10.9 6.05,10.75 6.15,10.6 6.1,10.3 6,10.05 5.8,9.8 5.95,9.75 6.15,9.6 6.3,9.45 c 0.05,0 0.05,0 0.1,-0.05 0,-0.05 0,-0.05 0,-0.1 C 6.75,9.05 6.65,8.65 6,8.05 5.95,7.9 5.85,7.8 5.7,7.7 6.15,7.25 6.2,6.7 5.85,6.05 5.8,5.9 5.75,5.8 5.7,5.65 5.65,5.55 5.55,5.45 5.5,5.35 5.55,5.3 5.6,5.3 5.65,5.25 5.25,5 4.85,4.7 4.4,4.4 4.35,3.35 4.15,2.3 3.8,1.25 3.7,0.95 3.6,0.7 3.45,0.45 3.55,0.95 3.55,1.4 3.5,1.75 3.65,2.4 3.75,3 3.9,3.6 3.95,3.75 3.95,3.85 3.95,4 3.9,3.95 3.8,3.95 3.75,3.95 3.8,4.2 3.95,4.4 4.1,4.6 4.25,5.35 4.45,6 4.7,6.65 4.65,6.25 4.6,5.7 4.55,5.05 4.65,5.1 4.75,5.15 4.8,5.2 l 0.05,0 c 0.1,0.15 0.2,0.3 0.35,0.45 0.5,0.55 0.6,1.25 0.3,2 l 0,0.05 C 5.45,7.65 5.35,7.65 5.25,7.6 l -0.1,0.05 0.05,0 C 5.25,7.7 5.25,7.75 5.3,7.8 5.5,7.95 5.7,8.15 5.9,8.35 5.95,8.45 5.95,8.55 5.95,8.65 5.95,8.8 6,9 6.05,9.2 5.9,9.25 5.7,9.3 5.55,9.45 5.55,9.4 5.5,9.4 5.45,9.4 5.4,9.45 5.4,9.45 5.4,9.5 5.45,9.55 5.45,9.55 5.45,9.6 5.4,9.55 5.35,9.55 5.3,9.5 5.25,9.65 5.25,9.85 5.35,10 5.4,10.1 5.5,10.2 5.55,10.3 5.25,10.45 5,10.5 4.75,10.5 2.6,9.55 0.7,8.25 -0.9,6.55 -1,6.45 -1.1,6.35 -1.15,6.3 c 0.1,0.05 0.2,0.1 0.3,0.15 0.3,0.15 0.6,0.35 0.95,0.5 C 0.8,7.3 1.45,7.55 2.05,7.8 1.75,7.55 1.4,7.3 1.05,7.05 1.1,7 1.2,7 1.25,7 1,6.85 0.7,6.75 0.4,6.6 -0.2,6.25 -0.9,5.9 -1.65,5.6 l -0.05,0 C -1.65,5.55 -1.65,5.55 -1.6,5.55 -2.95,4.9 -3.8,3.95 -4.25,2.7 l 0,-0.05 0.05,0 c 0.1,-0.1 0.15,-0.2 0.15,-0.3 0,-0.15 0,-0.35 -0.05,-0.5 0.15,-1.45 0.8,-2.6 1.95,-3.35 0.1,-0.15 0.25,-0.3 0.45,-0.45 0.35,-0.3 0.7,-0.55 1.15,-0.75 z m 6.3,13.2 c 0,-0.05 0,-0.15 0,-0.2 0,0.05 0,0.1 0.05,0.15 L 5.75,10.5 z"
           inkscape:connector-curvature="0"
           style="fill:#663300" />
      </g>
      <animate
         attributeName="display"
         begin="0s"
         repeatCount="indefinite"
         dur="0.167s"
         keyTimes="0;0.798;1"
         values="none;inline;none"
         id="animate3115" />
    </g>
    <g
       id="backFootRight2_2">
      <g
         id="element1">
        <path
           id="path5"
           d="m -11.789,-3.141 q -0.915,0.239 -1.602,0.887 l -0.026,0.024 c -1.123,0.388 -1.934,1.444 -2.431,3.169 0.045,0.103 0.039,0.203 0.031,0.352 0.047,0.955 0.299,1.82 0.809,2.549 0.438,0.225 0.826,0.447 1.267,0.622 1.706,0.847 3.15,1.879 4.232,3.141 -0.63,-0.386 -1.259,-0.771 -1.994,-1.063 -0.341,-0.169 -0.635,-0.286 -0.976,-0.455 -0.047,-0.053 -0.144,-0.108 -0.241,-0.164 0.097,0.056 0.191,0.161 0.238,0.214 1.655,1.745 3.585,3.055 5.837,3.982 0.203,-0.039 0.402,-0.028 0.555,-0.07 C -6.037,10 -6.037,10 -6.035,9.95 -6.076,9.798 -6.071,9.698 -6.112,9.545 -6.159,9.493 -6.154,9.393 -6.201,9.34 -6.301,9.335 -6.401,9.329 -6.55,9.321 l 0.002,-0.05 C -6.337,9.082 -6.082,8.996 -5.782,9.013 -5.571,8.824 -5.56,8.625 -5.699,8.417 -6.02,7.898 -6.248,7.485 -6.281,7.182 -6.137,7.29 -5.992,7.399 -5.851,7.557 -5.981,7.199 -5.962,6.85 -5.84,6.456 -5.765,6.009 -5.845,5.654 -6.186,5.485 -6.718,5.155 -7.004,4.888 -7.143,4.68 -7.19,4.628 -7.19,4.628 -7.24,4.625 c 0,0 0,0 -0.002,0.05 0.063,0.654 0.127,1.309 0.14,1.961 C -7.459,5.865 -7.708,4.949 -7.802,3.942 -7.899,2.986 -8.096,2.023 -8.298,1.16 c 0.119,-0.343 0.142,-0.743 0.067,-1.198 -0.042,-0.152 -0.086,-0.255 -0.13,-0.358 0.135,0.258 0.218,0.564 0.302,0.869 0.335,1.17 0.57,2.335 0.706,3.494 0.15,0.009 0.297,0.067 0.441,0.175 0.241,0.164 0.333,0.319 0.374,0.472 0.391,0.172 0.674,0.488 0.901,0.902 0.408,0.774 0.366,1.522 -0.12,2.146 0.047,0.053 0.142,0.158 0.189,0.211 0.552,0.882 0.424,1.376 -0.433,1.478 0.044,0.103 0.138,0.208 0.186,0.261 0.041,0.153 0.083,0.305 0.124,0.458 -0.327,0.482 -0.785,0.607 -1.376,0.424 -1.128,-0.414 -2.102,-0.919 -2.867,-1.563 -1.697,-0.996 -3.078,-2.275 -4.09,-3.884 -0.491,-0.177 -0.92,-0.552 -1.295,-1.024 -0.928,-1.303 -1.15,-2.718 -0.711,-4.296 -0.003,0.05 -0.006,0.1 0.041,0.153 0.061,-0.197 0.122,-0.394 0.233,-0.588 0.725,-1.312 1.823,-2.152 3.241,-2.423 0.252,-0.036 0.452,-0.025 0.701,-0.011"
           inkscape:connector-curvature="0"
           style="fill:#663300" />
        <path
           id="path6"
           d="m -13.391,-2.254 q 0.687,-0.648 1.602,-0.887 l -0.025,-10e-4 c 0.447,0.075 0.891,0.2 1.279,0.422 0.438,0.224 0.773,0.494 1.106,0.813 -0.047,-0.053 -0.047,-0.053 -0.044,-0.103 0.144,0.108 0.238,0.214 0.33,0.369 0.235,0.264 0.471,0.527 0.654,0.838 -0.05,-0.003 -0.05,-0.003 -0.1,-0.006 0.05,0.003 0.05,0.003 0.047,0.053 l 0.025,0.001 0.157,0.335 -0.001,0.024 c 0.044,0.103 0.088,0.206 0.13,0.358 0.075,0.455 0.052,0.855 -0.067,1.198 0.202,0.863 0.399,1.826 0.496,2.782 0.094,1.007 0.343,1.923 0.7,2.694 C -7.115,5.984 -7.179,5.329 -7.242,4.675 L -7.116,4.657 -7.143,4.68 c 0.139,0.208 0.425,0.475 0.957,0.805 0.341,0.169 0.421,0.524 0.346,0.971 -0.122,0.394 -0.141,0.743 -0.011,1.101 -0.141,-0.158 -0.286,-0.267 -0.43,-0.375 0.033,0.303 0.261,0.716 0.582,1.235 0.139,0.208 0.128,0.407 -0.083,0.596 -0.3,-0.017 -0.555,0.069 -0.766,0.258 l -0.002,0.05 c 0.149,0.008 0.249,0.014 0.349,0.019 0.047,0.053 0.042,0.153 0.089,0.205 0.041,0.153 0.036,0.253 0.077,0.405 C -6.037,10 -6.037,10 -6.09,10.047 -6.243,10.089 -6.442,10.078 -6.645,10.117 -8.897,9.19 -10.827,7.88 -12.482,6.135 l 0.029,-0.074 -0.026,0.024 c 0.341,0.169 0.635,0.286 0.976,0.455 0.735,0.292 1.364,0.677 1.994,1.063 -1.082,-1.262 -2.526,-2.294 -4.232,-3.141 -0.441,-0.175 -0.829,-0.397 -1.267,-0.622 -0.51,-0.729 -0.762,-1.594 -0.809,-2.549 0.008,-0.149 0.014,-0.249 -0.031,-0.352 0.497,-1.725 1.308,-2.781 2.431,-3.169"
           inkscape:connector-curvature="0"
           style="fill:#ffffcc" />
      </g>
      <animate
         attributeName="display"
         begin="0s"
         repeatCount="indefinite"
         dur="0.167s"
         keyTimes="0;0.399;0.798;1"
         values="none;inline;none;none"
         id="animate3121" />
    </g>
    <g
       id="backFootRight2_0">
      <g
         id="element">
        <path
           id="path"
           d="M 3.25,-0.4 Q 3,-0.9 2.7,-1.35 C 2.3,-1.9 1.8,-2.25 1.15,-2.4 c 0.15,0 0.25,0 0.4,0.05 C 1,-3 0.25,-3.15 -0.7,-2.85 l -0.05,0 c -0.05,0.05 -0.1,0.05 -0.15,0.1 -0.3,0.15 -0.6,0.35 -0.85,0.5 -0.3,0.2 -0.5,0.45 -0.6,0.8 -1.1,0.85 -1.75,2 -1.9,3.45 0.05,0.05 0.05,0.05 0.05,0.1 0.25,1 0.7,1.9 1.35,2.65 0.35,0.15 0.75,0.35 1.1,0.5 1.6,0.8 2.9,1.75 3.95,2.8 C 1.5,7.9 0.8,7.6 0.15,7.15 0,7.05 -0.2,6.95 -0.35,6.85 1,8.35 2.6,9.5 4.5,10.3 l 0,0.1 c 0.3,0.05 0.6,0.05 0.85,0 0.1,-0.05 0.2,-0.05 0.3,-0.1 0,-0.05 0,-0.05 -0.05,-0.1 C 5.55,10.05 5.5,9.95 5.45,9.9 5.3,9.7 5.3,9.55 5.4,9.5 l 0.1,0 C 5.65,9.35 5.8,9.25 6,9.15 5.95,8.95 5.9,8.75 5.8,8.6 5.55,8.25 5.4,7.9 5.3,7.5 5.45,7.6 5.55,7.7 5.65,7.8 5.65,7.45 5.6,7.15 5.5,6.8 5.35,5.95 5,5.35 4.45,5 4.6,5.85 4.65,6.65 4.7,7.5 4.4,7.05 4.2,6.55 4.15,6 4.1,5.45 4,4.9 3.95,4.35 3.9,4.2 3.9,4.05 3.9,3.9 3.8,3.55 3.7,3.15 3.65,2.8 3.75,2.35 3.7,1.8 3.45,1.15 3.3,0.8 3.25,0.45 3.3,0.1 c 0,-0.15 0,-0.35 -0.05,-0.5 z"
           inkscape:connector-curvature="0"
           style="fill:#ffffcc" />
        <path
           id="path1"
           d="M 3.3,0.1 C 3.25,0.45 3.3,0.8 3.45,1.15 3.7,1.8 3.75,2.35 3.65,2.8 3.7,3.15 3.8,3.55 3.9,3.9 3.9,4.05 3.9,4.2 3.95,4.35 4,4.9 4.1,5.45 4.15,6 4.2,6.55 4.4,7.05 4.7,7.5 4.65,6.65 4.6,5.85 4.45,5 5,5.35 5.35,5.95 5.5,6.8 5.6,7.15 5.65,7.45 5.65,7.8 5.55,7.7 5.45,7.6 5.3,7.5 5.4,7.9 5.55,8.25 5.8,8.6 5.9,8.75 5.95,8.95 6,9.15 5.8,9.25 5.65,9.35 5.5,9.5 l -0.1,0 c -0.1,0.05 -0.1,0.2 0.05,0.4 0.05,0.05 0.1,0.15 0.15,0.3 0.05,0.05 0.05,0.05 0.05,0.1 -0.1,0.05 -0.2,0.05 -0.3,0.1 C 5.1,10.45 4.8,10.45 4.5,10.4 4.25,10.35 4.05,10.25 3.8,10.15 4.05,10.2 4.3,10.25 4.5,10.3 2.6,9.5 1,8.35 -0.35,6.85 -0.2,6.95 0,7.05 0.15,7.15 0.8,7.6 1.5,7.9 2.2,8.05 1.15,7 -0.15,6.05 -1.75,5.25 -2.1,5.1 -2.5,4.9 -2.85,4.75 -3.5,4 -3.95,3.1 -4.2,2.1 c 0,-0.05 0,-0.05 -0.05,-0.1 0.15,-1.45 0.8,-2.6 1.9,-3.45 0.1,-0.35 0.3,-0.6 0.6,-0.8 0.25,-0.15 0.55,-0.35 0.85,-0.5 0.05,-0.05 0.1,-0.05 0.15,-0.1 -0.35,0.15 -0.7,0.2 -1.05,0.2 -1.45,0.7 -2.35,1.85 -2.65,3.5 0,-0.15 0,-0.3 0,-0.45 -0.75,2.1 -0.2,3.8 1.7,5.05 0.35,0.2 0.7,0.4 1.05,0.6 0.85,1.65 2.15,2.8 3.8,3.5 0.15,0.1 0.3,0.15 0.45,0.2 0.05,0.05 0.1,0.05 0.15,0.1 -0.05,0 -0.15,0 -0.25,0 0.6,0.5 1.35,0.85 2.3,1 0.1,0.05 0.2,0.1 0.3,0.1 C 5.4,10.9 5.75,10.75 6,10.5 6.05,10.3 6,10.1 5.95,9.9 5.9,9.8 5.85,9.7 5.8,9.65 6.4,9.4 6.45,8.95 6,8.2 5.95,8.15 5.85,8.05 5.8,7.95 6.35,7.25 6.35,6.45 5.7,5.6 5.35,5.2 4.9,4.95 4.45,4.85 4.45,4.7 4.45,4.6 4.4,4.45 4.4,3.7 4.3,2.9 4.1,2.1 4.15,2.1 4.15,2.1 4.15,2.15 4,1.25 3.7,0.4 3.25,-0.4 3.3,-0.25 3.3,-0.05 3.3,0.1 z"
           inkscape:connector-curvature="0"
           style="fill:#663300" />
      </g>
      <animate
         attributeName="display"
         begin="0s"
         repeatCount="indefinite"
         dur="0.167s"
         keyTimes="0;0.399;1"
         values="inline;none;none"
         id="animate3127" />
    </g>
  </g>
</svg>
