<?xml version="1.0" encoding="UTF-8" standalone="no"?>
<!-- Generator: flash2svg, http://dissentgraphics.com/tools/flash2svg -->

<svg
   xmlns:dc="http://purl.org/dc/elements/1.1/"
   xmlns:cc="http://creativecommons.org/ns#"
   xmlns:rdf="http://www.w3.org/1999/02/22-rdf-syntax-ns#"
   xmlns:svg="http://www.w3.org/2000/svg"
   xmlns="http://www.w3.org/2000/svg"
   xmlns:sodipodi="http://sodipodi.sourceforge.net/DTD/sodipodi-0.dtd"
   xmlns:inkscape="http://www.inkscape.org/namespaces/inkscape"
   id="Avatar"
   image-rendering="auto"
   version="1.1"
   x="0px"
   y="0px"
   width="9.6968985"
   height="10.6675"
   viewBox="0 0 9.6968985 10.6675"
   inkscape:version="0.48.4 r9939"
   sodipodi:docname="Avatar_sideHandOffside2.svg">
  <metadata
     id="metadata3262">
    <rdf:RDF>
      <cc:Work
         rdf:about="">
        <dc:format>image/svg+xml</dc:format>
        <dc:type
           rdf:resource="http://purl.org/dc/dcmitype/StillImage" />
      </cc:Work>
    </rdf:RDF>
  </metadata>
  <sodipodi:namedview
     pagecolor="#ffffff"
     bordercolor="#666666"
     borderopacity="1"
     objecttolerance="10"
     gridtolerance="10"
     guidetolerance="10"
     inkscape:pageopacity="0"
     inkscape:pageshadow="2"
     inkscape:window-width="640"
     inkscape:window-height="480"
     id="namedview3260"
     showgrid="false"
     fit-margin-top="0"
     fit-margin-left="0"
     fit-margin-right="0"
     fit-margin-bottom="0"
     inkscape:zoom="1.8730159"
     inkscape:cx="37.419694"
     inkscape:cy="-53.6"
     inkscape:window-x="0"
     inkscape:window-y="0"
     inkscape:window-maximized="0"
     inkscape:current-layer="Avatar" />
  <defs
     id="defs3233" />
  <g
     id="sideHandOffside3"
     overflow="visible"
     style="overflow:visible"
     transform="translate(3.4196938,1.2675)">
    <g
       id="sideHandOffside2_4">
      <g
         id="element2">
        <path
           id="path19"
           d="M 2.3,-0.85 C 2.1,-0.9 1.9,-0.95 1.75,-1 0.5,-1.3 -0.65,-1.2 -1.8,-0.65 c 0,0 0,0 0.05,-0.05 -0.05,-0.05 -0.15,-0.05 -0.25,0 -0.05,0 -0.05,0 -0.05,0.05 l 0,-0.025 -0.15,0.1 0,0.025 c -0.05,0 -0.1,0.05 -0.15,0.1 0,0.1 0,0.2 0,0.3 0.05,-0.05 0.15,-0.15 0.25,-0.2 -0.65,0.6 -0.95,1.35 -0.95,2.3 0,0.4 -0.05,0.8 -0.1,1.15 0.1,0.75 0.3,1.45 0.55,2.2 0.15,0.4 0.35,0.8 0.5,1.25 0.15,0.25 0.25,0.45 0.4,0.7 0.15,0.25 0.25,0.45 0.3,0.65 0.7,0.7 1.5,1 2.35,0.85 C 1.15,8.7 1.3,8.6 1.4,8.4 1.4,8.15 1.4,7.9 1.35,7.6 1.3,7.25 1.2,6.9 1.15,6.55 1.3,6.7 1.4,6.9 1.5,7.1 1.45,6.85 1.4,6.55 1.3,6.3 1.9,7.15 2,7.85 1.65,8.45 1.7,8.4 1.75,8.4 1.8,8.4 l 0,0.05 C 2.1,8.6 2.4,8.7 2.65,8.75 3.1,8.7 3.5,8.5 3.85,8.05 4,7.8 3.95,7.6 3.8,7.35 3.6,7.1 3.55,6.9 3.7,6.75 3.6,6.65 3.55,6.55 3.55,6.4 3.7,6.55 3.85,6.65 4,6.8 4.05,6.85 4.15,6.9 4.2,6.95 5.55,7.05 6.05,6.55 5.7,5.5 5.65,5.3 5.5,5.1 5.35,4.95 4.95,4.8 4.6,4.5 4.35,4.1 4.2,3.85 4.1,3.65 4.1,3.4 4.15,3.45 4.25,3.55 4.35,3.6 5.6,3.65 6,3.05 5.65,1.85 l 0,-0.025 0,0.025 C 5.5,1.7 5.3,1.55 5.15,1.4 4.8,1.25 4.45,1.15 4.1,1 3.8,0.9 3.7,0.75 3.75,0.6 3.65,0.5 3.55,0.4 3.45,0.35 3.2,0.15 2.9,-0.05 2.65,-0.2 2.55,-0.35 2.45,-0.5 2.4,-0.65 2.35,-0.7 2.35,-0.8 2.3,-0.85 z M 1.1,4.3 C 0.8,4.35 0.6,4.35 0.45,4.2 1,4.05 1.5,3.85 2,3.6 2.2,3.45 2.4,3.4 2.65,3.35 l -0.025,0 0.025,0 C 2.85,3.2 3.05,3.15 3.3,3.2 2.95,3.4 2.6,3.6 2.25,3.8 1.95,4.05 1.55,4.2 1.1,4.3 z M 0.25,4.05 C 0.6,3.15 0.55,2.25 0.15,1.4 0.05,1.15 -0.05,0.95 -0.1,0.8 0.65,1.3 0.95,2.05 0.8,3.05 0.7,3.45 0.5,3.8 0.25,4.05 z"
           inkscape:connector-curvature="0"
           style="fill:#ffffcc" />
        <path
           id="path20"
           d="M 1.15,-0.85 Q 0.977,-0.87 0.775,-0.875 L 0.8,-0.85 C 0.75,-0.9 0.75,-0.9 0.75,-0.95 c 0,0.05 0,0.05 0,0.1 -0.2,0 -0.4,0 -0.6,0.05 0.35,-0.05 0.65,-0.1 1,-0.05 z"
           inkscape:connector-curvature="0"
           style="fill:#663300" />
        <path
           id="path21"
           d="m 1.25,-0.85 c -0.05,0 -0.05,0 -0.1,-0.05 l 0,0.05 c 0.1,0 0.2,0 0.3,0.05 C 1.4,-0.85 1.3,-0.85 1.25,-0.85"
           inkscape:connector-curvature="0"
           style="fill:#663300" />
        <path
           id="path22"
           d="M 1.1,4.3 C 1.55,4.2 1.95,4.05 2.25,3.8 2.6,3.6 2.95,3.4 3.3,3.2 3.05,3.15 2.85,3.2 2.65,3.35 l -0.025,0 0.025,0 C 2.4,3.4 2.2,3.45 2,3.6 1.5,3.85 1,4.05 0.45,4.2 0.6,4.35 0.8,4.35 1.1,4.3 z"
           inkscape:connector-curvature="0"
           style="fill:#663300" />
        <path
           id="path25"
           d="M 0.25,4.05 C 0.5,3.8 0.7,3.45 0.8,3.05 0.95,2.05 0.65,1.3 -0.1,0.8 c 0.05,0.15 0.15,0.35 0.25,0.6 0.4,0.85 0.45,1.75 0.1,2.65 z m 2.3,-4.8 C 2.5,-0.8 2.45,-0.8 2.4,-0.85 c 0,0.05 0,0.05 0.05,0.1 C 2.4,-0.8 2.35,-0.8 2.3,-0.85 2.35,-0.8 2.35,-0.7 2.4,-0.65 2.45,-0.5 2.55,-0.35 2.65,-0.2 2.9,-0.05 3.2,0.15 3.45,0.35 3.55,0.4 3.65,0.5 3.75,0.6 3.7,0.75 3.8,0.9 4.1,1 4.45,1.15 4.8,1.25 5.15,1.4 5.3,1.55 5.5,1.7 5.65,1.85 l 0,-0.025 0,0.025 C 6,3.05 5.6,3.65 4.35,3.6 4.25,3.55 4.15,3.45 4.1,3.4 c 0,0.25 0.1,0.45 0.25,0.7 0.25,0.4 0.6,0.7 1,0.85 C 5.5,5.1 5.65,5.3 5.7,5.5 6.05,6.55 5.55,7.05 4.2,6.95 4.15,6.9 4.05,6.85 4,6.8 3.85,6.65 3.7,6.55 3.55,6.4 3.55,6.55 3.6,6.65 3.7,6.75 3.55,6.9 3.6,7.1 3.8,7.35 3.95,7.6 4,7.8 3.85,8.05 3.5,8.5 3.1,8.7 2.65,8.75 2.4,8.7 2.1,8.6 1.8,8.45 1.85,8.5 1.9,8.6 1.95,8.65 1.9,8.6 1.85,8.6 1.8,8.6 c 0,-0.05 0,-0.1 0,-0.15 L 1.8,8.4 C 1.75,8.4 1.7,8.4 1.65,8.45 2,7.85 1.9,7.15 1.3,6.3 1.4,6.55 1.45,6.85 1.5,7.1 1.4,6.9 1.3,6.7 1.15,6.55 1.2,6.9 1.3,7.25 1.35,7.6 1.4,7.9 1.4,8.15 1.4,8.4 1.3,8.6 1.15,8.7 0.95,8.75 0.1,8.9 -0.7,8.6 -1.4,7.9 -1.45,7.7 -1.55,7.5 -1.7,7.25 -1.85,7 -1.95,6.8 -2.1,6.55 -2.25,6.1 -2.45,5.7 -2.6,5.3 -2.85,4.55 -3.05,3.85 -3.15,3.1 c 0.05,-0.35 0.1,-0.75 0.1,-1.15 0,-0.95 0.3,-1.7 0.95,-2.3 -0.1,0.05 -0.2,0.15 -0.25,0.2 0,-0.1 0,-0.2 0,-0.3 0.05,-0.05 0.1,-0.1 0.15,-0.1 -0.05,0.05 -0.15,0.05 -0.2,0.1 -0.55,0.5 -0.9,1.1 -0.95,1.8 -0.05,0.45 -0.05,0.85 0,1.3 -0.05,0.35 -0.05,0.75 0,1.15 0.1,0.75 0.35,1.45 0.7,2.1 0,0.15 0.05,0.25 0.1,0.35 0.3,0.75 0.7,1.4 1.15,2 0,-0.05 0,-0.05 0,-0.1 0.3,0.45 0.7,0.8 1.2,1.05 C 0,9.3 0.2,9.35 0.35,9.35 0.6,9.45 0.8,9.4 1.05,9.2 1.1,9.25 1.25,9.2 1.4,9.1 1.55,9.05 1.7,8.9 1.8,8.75 1.85,8.9 2,8.95 2.15,9 2.65,9.15 3.1,9.1 3.55,8.85 3.6,8.8 3.6,8.8 3.65,8.8 4.1,8.5 4.35,8.2 4.35,7.85 c 0,0.6 -0.3,1 -0.85,1.2 C 3.75,9.1 4,9.05 4.2,8.8 4.6,8.4 4.7,8 4.45,7.6 4.4,7.65 4.35,7.75 4.35,7.8 c 0,-0.05 0,-0.15 0,-0.2 C 4.3,7.5 4.25,7.4 4.2,7.3 4.45,7.25 4.65,7.2 4.9,7.2 5.15,7.15 5.4,7.1 5.55,6.95 6.35,6.2 6.5,5.6 5.95,5.1 6,5.1 6.05,5.1 6.1,5.1 5.9,4.9 5.7,4.7 5.45,4.55 5.15,4.3 4.85,4.1 4.6,3.85 4.9,3.9 5.2,3.8 5.5,3.45 6.65,2.35 6.45,1.5 5,0.9 c 0,0 0,0 0,0.05 -0.05,0 -0.05,0 -0.05,0 C 4.8,0.85 4.65,0.75 4.55,0.7 4.3,0.55 4.05,0.4 3.8,0.25 3.65,-0.05 3.4,-0.25 3.15,-0.4 c 0,0.05 0,0.05 0,0.1 -0.2,-0.2 -0.4,-0.35 -0.6,-0.45 z m -0.6,9.4 C 1.9,8.6 1.85,8.6 1.8,8.6 c 0,-0.05 0,-0.1 0,-0.15 0.05,0.05 0.1,0.15 0.15,0.2 z"
           inkscape:connector-curvature="0"
           style="fill:#663300" />
      </g>
      <animate
         attributeName="display"
         begin="0s"
         repeatCount="indefinite"
         dur="0.167s"
         keyTimes="0;0.798;1"
         values="none;inline;none"
         id="animate3243" />
    </g>
    <g
       id="sideHandOffside2_2">
      <g
         id="element1">
        <path
           id="path9"
           d="M 3.2,-0.25 Q 2.727,-0.658 2.2,-0.9 c 0.15,0.2 0.3,0.4 0.4,0.65 0.55,0.35 1,0.8 1.45,1.35 C 4.05,1.05 4.05,1 4,0.95 L 4,0.925 4.025,0.95 4.05,0.95 C 4.35,1.1 4.65,1.2 4.9,1.2 5,1.25 5.1,1.35 5.2,1.4 5.25,1.45 5.3,1.45 5.35,1.5 5.45,1.65 5.55,1.8 5.65,2 5.7,2.15 5.75,2.25 5.8,2.4 5.8,2.5 5.75,2.6 5.7,2.7 5.4,3.3 5,3.55 4.5,3.5 4.35,3.35 4.15,3.2 4,3.05 4.05,3.2 4.05,3.3 4.1,3.45 4.3,4.2 4.7,4.75 5.3,5.05 5.35,5.1 5.45,5.1 5.5,5.15 5.75,5.3 5.9,5.5 5.85,5.75 l 0,0.025 0,0.025 L 5.825,5.825 5.85,5.85 C 5.8,5.8 5.8,5.8 5.8,5.8 5.7,5.55 5.5,5.3 5.25,5.1 5.25,5.25 5.3,5.4 5.4,5.55 5.55,5.8 5.65,6.05 5.7,6.3 5.35,7.2 4.6,7.3 3.5,6.55 3.5,6.6 3.55,6.7 3.6,6.75 3.6,6.95 3.7,7.15 3.9,7.3 4.05,7.55 4.1,7.75 3.95,8 3.45,8.9 2.8,9.1 1.95,8.55 1.85,8.5 1.8,8.45 1.75,8.4 1.8,8.1 1.8,7.8 1.7,7.55 1.65,7.05 1.45,6.6 1.1,6.15 c -0.05,0.15 0,0.35 0.1,0.6 0.05,0.1 0.1,0.2 0.15,0.3 L 1.325,7.025 1.3,7 C 1.25,7.1 1.25,7.2 1.3,7.35 1.35,7.75 1.35,8.1 1.25,8.45 1.2,8.55 1.1,8.65 1,8.75 0.8,8.7 0.6,8.7 0.45,8.65 -0.4,8.45 -1.1,8 -1.65,7.35 -1.85,6.9 -2.05,6.45 -2.25,6 -2.7,4.9 -3,3.75 -3.15,2.5 -3.1,2.3 -3.1,2.1 -3.1,1.85 -3.05,1.3 -2.9,0.8 -2.65,0.35 c 0,-0.15 0,-0.3 0.05,-0.45 -0.35,0.3 -0.6,0.7 -0.7,1.2 -0.15,0.55 -0.15,1.1 -0.05,1.6 0,0.45 0,0.95 0.05,1.45 0.15,1.25 0.65,2.4 1.5,3.35 l -0.025,0 0.025,0.05 c 0.55,0.95 1.35,1.5 2.35,1.65 0.2,0 0.35,0 0.5,-0.05 C 1,9.2 0.95,9.2 0.9,9.25 1.05,9.2 1.2,9.15 1.35,9.05 1.5,8.95 1.65,8.85 1.75,8.75 1.9,8.9 2.05,9 2.25,9.05 2.5,9.15 2.8,9.15 3.05,9.05 4.4,8.55 4.75,7.9 4.05,7.1 4.65,7.5 5.2,7.45 5.65,6.95 5.65,7 5.65,7.1 5.6,7.15 5.75,7.05 5.85,6.9 5.9,6.7 5.95,6.55 6.05,6.35 6.15,6.05 6.25,5.7 6,5.35 5.45,4.95 4.85,4.55 4.6,4.15 4.65,3.7 c 0.1,0 0.2,0 0.3,0 0.4,0 0.7,-0.15 0.85,-0.4 C 5.75,3.45 5.65,3.65 5.55,3.85 5.85,3.6 6.05,3.25 6.15,2.8 6.25,1.95 5.95,1.4 5.3,1.1 5.15,0.95 4.95,0.85 4.7,0.8 4.45,0.65 4.15,0.55 3.9,0.55 L 3.875,0.575 3.9,0.6 C 3.75,0.25 3.5,0 3.2,-0.25 z"
           inkscape:connector-curvature="0"
           style="fill:#663300" />
        <path
           id="path11"
           d="M 2.6,-0.25 C 2.5,-0.5 2.35,-0.7 2.2,-0.9 1.45,-1.25 0.65,-1.35 -0.2,-1.2 c 0.05,0 0.15,0 0.2,0.05 -0.7,0.05 -1.4,0.25 -2.05,0.6 -0.05,0 -0.05,0 -0.05,0.05 -0.05,0 -0.05,0 -0.1,0.05 -0.05,0.05 -0.15,0.1 -0.2,0.15 -0.05,0.05 -0.15,0.15 -0.2,0.2 -0.05,0.15 -0.05,0.3 -0.05,0.45 -0.25,0.45 -0.4,0.95 -0.45,1.5 0,0.25 0,0.45 -0.05,0.65 0.15,1.25 0.45,2.4 0.9,3.5 0.2,0.45 0.4,0.9 0.6,1.35 C -1.1,8 -0.4,8.45 0.45,8.65 0.6,8.7 0.8,8.7 1,8.75 1.1,8.65 1.2,8.55 1.25,8.45 1.35,8.1 1.35,7.75 1.3,7.35 1.25,7.2 1.25,7.1 1.3,7 L 1.325,7.025 1.35,7.05 C 1.3,6.95 1.25,6.85 1.2,6.75 1.1,6.5 1.05,6.3 1.1,6.15 1.45,6.6 1.65,7.05 1.7,7.55 1.8,7.8 1.8,8.1 1.75,8.4 1.8,8.45 1.85,8.5 1.95,8.55 2.8,9.1 3.45,8.9 3.95,8 4.1,7.75 4.05,7.55 3.9,7.3 3.7,7.15 3.6,6.95 3.6,6.75 3.55,6.7 3.5,6.6 3.5,6.55 4.6,7.3 5.35,7.2 5.7,6.3 5.65,6.05 5.55,5.8 5.4,5.55 5.3,5.4 5.25,5.25 5.25,5.1 5.5,5.3 5.7,5.55 5.8,5.8 l 0,-0.025 0.05,0 0,-0.025 C 5.9,5.5 5.75,5.3 5.5,5.15 5.45,5.1 5.35,5.1 5.3,5.05 4.7,4.75 4.3,4.2 4.1,3.45 4.05,3.3 4.05,3.2 4,3.05 4.15,3.2 4.35,3.35 4.5,3.5 5,3.55 5.4,3.3 5.7,2.7 5.75,2.6 5.8,2.5 5.8,2.4 5.75,2.25 5.7,2.15 5.65,2 5.55,1.8 5.45,1.65 5.35,1.5 5.3,1.45 5.25,1.45 5.2,1.4 5.1,1.35 5,1.25 4.9,1.2 4.65,1.2 4.35,1.1 4.05,0.95 L 4.025,0.95 4,0.925 4.025,0.95 4,0.95 C 4.05,1 4.05,1.05 4.05,1.1 3.6,0.55 3.15,0.1 2.6,-0.25 z M 0.3,1.4 C 0.25,1.2 0.15,1.05 0,0.9 -0.05,0.85 -0.1,0.75 -0.05,0.7 0.1,0.85 0.25,1 0.4,1.15 0.35,1 0.3,0.9 0.25,0.8 0.4,1 0.5,1.2 0.6,1.45 0.85,1.85 0.9,2.35 0.85,2.9 0.8,3.3 0.65,3.65 0.5,3.95 0.5,3.8 0.5,3.7 0.5,3.6 0.4,3.8 0.25,4 0.05,4.15 0.25,3.7 0.4,3.2 0.45,2.75 0.4,2.3 0.35,1.85 0.3,1.4 z M 0.6,4.2 C 1.15,4.05 1.7,3.85 2.2,3.5 2.45,3.35 2.75,3.2 3,3.15 2.45,3.8 1.7,4.2 0.85,4.4 0.55,4.45 0.4,4.4 0.4,4.25 c 0.05,0 0.15,0 0.2,-0.05 z"
           inkscape:connector-curvature="0"
           style="fill:#ffffcc" />
        <path
           id="path12"
           d="M 0.3,1.4 C 0.35,1.85 0.4,2.3 0.45,2.75 0.4,3.2 0.25,3.7 0.05,4.15 0.25,4 0.4,3.8 0.5,3.6 c 0,0.1 0,0.2 0,0.35 C 0.65,3.65 0.8,3.3 0.85,2.9 0.9,2.35 0.85,1.85 0.6,1.45 0.5,1.2 0.4,1 0.25,0.8 0.3,0.9 0.35,1 0.4,1.15 0.25,1 0.1,0.85 -0.05,0.7 -0.1,0.75 -0.05,0.85 0,0.9 0.15,1.05 0.25,1.2 0.3,1.4 z"
           inkscape:connector-curvature="0"
           style="fill:#663300" />
        <path
           id="path15"
           d="m 0.6,4.2 c 0,0 0,0 0,0 C 0.55,4.25 0.45,4.25 0.4,4.25 0.4,4.4 0.55,4.45 0.85,4.4 1.7,4.2 2.45,3.8 3,3.15 2.75,3.2 2.45,3.35 2.2,3.5 1.7,3.85 1.15,4.05 0.6,4.2 z"
           inkscape:connector-curvature="0"
           style="fill:#663300" />
      </g>
      <animate
         attributeName="display"
         begin="0s"
         repeatCount="indefinite"
         dur="0.167s"
         keyTimes="0;0.399;0.798;1"
         values="none;inline;none;none"
         id="animate3251" />
    </g>
    <g
       id="sideHandOffside2_0">
      <g
         id="element">
        <path
           id="path"
           d="M 1.9,-1 Q 1.548,-1.132 1.175,-1.2 l -1.65,0.15 -0.05,0 -0.05,0.025 L -0.55,-1 c -0.05,0 -0.15,0 -0.2,0.05 -0.05,0 -0.1,0 -0.15,0 -0.2,0.05 -0.4,0.1 -0.55,0.15 -0.05,-0.05 -0.15,-0.05 -0.25,0 -0.25,0.1 -0.5,0.25 -0.75,0.45 0,0 0,0 -0.05,0.05 -0.05,0.05 -0.15,0.15 -0.2,0.25 -0.1,0.2 -0.15,0.4 -0.2,0.65 0.05,0.05 0.05,0.05 0.1,0.1 C -3.05,1.2 -3.1,1.8 -3.05,2.55 -3,2.8 -3,3 -3,3.2 c 0,-0.15 0,-0.25 0.05,-0.35 -0.1,1.05 0.05,2.1 0.5,3.05 0.1,0.25 0.2,0.55 0.3,0.8 0.55,0.85 1.25,1.5 2.2,1.95 0.35,0.2 0.7,0.3 1.05,0.3 C 1.35,8.7 1.5,8.45 1.55,8.2 1.4,7.75 1.25,7.35 1.15,6.9 1.05,6.65 1,6.4 1,6.2 1.05,6.3 1.15,6.4 1.25,6.55 1.2,6.45 1.2,6.35 1.2,6.3 1.7,6.95 1.9,7.7 1.75,8.45 2.8,9.1 3.5,8.85 3.95,7.8 4,7.65 4,7.5 3.85,7.35 3.45,6.85 3.15,6.35 2.95,5.85 3.45,6.2 3.8,6.55 4,6.9 L 4,6.875 4,6.85 C 4.05,6.9 4.1,6.95 4.15,7 5.2,7.2 5.75,6.75 5.7,5.6 5.7,5.35 5.6,5.2 5.35,5.05 4.7,4.6 4.35,4.05 4.3,3.35 4.35,3.4 4.4,3.45 4.45,3.5 l 0,-0.05 C 4.4,3.4 4.4,3.35 4.4,3.3 5.45,3.35 5.85,2.95 5.6,2.1 5.55,1.95 5.45,1.8 5.4,1.7 5.35,1.7 5.25,1.7 5.2,1.65 5.15,1.6 5,1.5 4.85,1.35 4.65,1.2 4.4,1.05 4.1,0.9 3.75,0.75 3.6,0.65 3.55,0.5 3.2,0.25 2.9,0 2.55,-0.2 2.5,-0.35 2.5,-0.45 2.45,-0.55 2.25,-0.7 2.1,-0.8 1.95,-0.95 1.9,-1 1.9,-1 1.9,-1 z M 0.85,2.95 C 0.8,3.4 0.7,3.75 0.45,4.05 0.6,3.15 0.55,2.25 0.3,1.35 0.25,1.1 0.15,0.85 0.1,0.7 0.7,1.3 0.95,2.05 0.85,2.95 z m 1.3,0.5 C 2.5,3.35 2.8,3.3 3.05,3.25 2.5,3.65 1.9,4 1.2,4.3 0.8,4.45 0.5,4.5 0.25,4.35 0.85,4 1.5,3.7 2.15,3.45 z"
           inkscape:connector-curvature="0"
           style="fill:#ffffcc" />
        <path
           id="path1"
           d="M 0.85,2.95 C 0.95,2.05 0.7,1.3 0.1,0.7 0.15,0.85 0.25,1.1 0.3,1.35 0.55,2.25 0.6,3.15 0.45,4.05 0.7,3.75 0.8,3.4 0.85,2.95 z"
           inkscape:connector-curvature="0"
           style="fill:#663300" />
        <path
           id="path4"
           d="M 2.15,3.45 C 1.5,3.7 0.85,4 0.25,4.35 0.5,4.5 0.8,4.45 1.2,4.3 1.9,4 2.5,3.65 3.05,3.25 2.8,3.3 2.5,3.35 2.15,3.45 z M 1.175,-1.2 Q 1.548,-1.132 1.9,-1 c 0,0 0,0 0.05,0.05 0.15,0.15 0.3,0.25 0.5,0.4 0.05,0.1 0.05,0.2 0.1,0.35 C 2.9,0 3.2,0.25 3.55,0.5 3.6,0.65 3.75,0.75 4.1,0.9 4.4,1.05 4.65,1.2 4.85,1.35 5,1.5 5.15,1.6 5.2,1.65 5.25,1.7 5.35,1.7 5.4,1.7 5.45,1.8 5.55,1.95 5.6,2.1 5.85,2.95 5.45,3.35 4.4,3.3 c 0,0.05 0,0.1 0.05,0.15 l 0,0.05 C 4.4,3.45 4.35,3.4 4.3,3.35 4.35,4.05 4.7,4.6 5.35,5.05 5.6,5.2 5.7,5.35 5.7,5.6 5.75,6.75 5.2,7.2 4.15,7 4.1,6.95 4.05,6.9 4,6.85 L 4,6.875 4,6.9 C 3.8,6.55 3.45,6.2 2.95,5.85 c 0.2,0.5 0.5,1 0.9,1.5 C 4,7.5 4,7.65 3.95,7.8 3.5,8.85 2.8,9.1 1.75,8.45 1.9,7.7 1.7,6.95 1.2,6.3 1.2,6.35 1.2,6.45 1.25,6.55 1.15,6.4 1.05,6.3 1,6.2 1,6.4 1.05,6.65 1.15,6.9 1.25,7.35 1.4,7.75 1.55,8.2 1.5,8.45 1.35,8.7 1.1,8.95 0.75,8.95 0.4,8.85 0.05,8.65 -0.9,8.2 -1.6,7.55 -2.15,6.7 -2.25,6.45 -2.35,6.15 -2.45,5.9 -2.9,4.95 -3.05,3.9 -2.95,2.85 -3,2.95 -3,3.05 -3,3.2 -3,3 -3,2.8 -3.05,2.55 -3.1,1.8 -3.05,1.2 -2.8,0.7 -2.85,0.65 -2.85,0.65 -2.9,0.6 -2.85,0.35 -2.8,0.15 -2.7,-0.05 -3.15,0.4 -3.4,1 -3.4,1.75 c 0,0.95 0.1,1.9 0.3,2.85 0,-0.05 0,-0.1 0.05,-0.15 0,0.05 0,0.15 0,0.25 0.05,0.85 0.3,1.55 0.75,2.15 0.2,0.45 0.45,0.9 0.8,1.3 C -0.75,9.1 0.1,9.45 1.05,9.2 1.2,9.15 1.4,9.05 1.55,9 1.6,8.95 1.7,8.85 1.8,8.8 1.75,8.85 1.65,8.85 1.6,8.85 1.65,8.8 1.65,8.7 1.7,8.65 1.9,8.95 2.25,9.15 2.75,9.2 3.2,9.25 3.6,9.1 3.85,8.7 4.2,8.2 4.3,7.7 4.15,7.25 4.65,7.6 5.05,7.6 5.4,7.15 L 5.375,7.125 5.4,7.15 C 5.55,7 5.75,6.85 5.95,6.65 6.1,6.45 6.15,6.25 6.1,6 5.75,5.1 5.25,4.3 4.55,3.6 5,3.75 5.45,3.7 5.85,3.35 6.1,3.15 6.2,2.95 6.15,2.7 6.2,2.55 6.15,2.4 6.1,2.2 5.95,1.9 5.75,1.6 5.5,1.35 5.15,1.05 4.8,0.8 4.45,0.65 4.1,0.5 3.9,0.4 3.85,0.4 3.8,0.4 3.75,0.35 3.65,0.3 3.4,0 3.15,-0.25 2.85,-0.5 2.3,-0.85 1.75,-1.1 1.2,-1.2 z"
           inkscape:connector-curvature="0"
           style="fill:#663300" />
      </g>
      <animate
         attributeName="display"
         begin="0s"
         repeatCount="indefinite"
         dur="0.167s"
         keyTimes="0;0.399;1"
         values="inline;none;none"
         id="animate3258" />
    </g>
  </g>
</svg>
