<?xml version="1.0" encoding="utf-8"?>
<!-- Generator: flash2svg, http://dissentgraphics.com/tools/flash2svg -->
<svg xmlns:xlink="http://www.w3.org/1999/xlink" id="Avatar" image-rendering="auto" baseProfile="basic" version="1.1" x="0px" y="0px" width="68" height="126" xmlns="http://www.w3.org/2000/svg" viewBox="0 0 68 126">
  <defs/>
  <g id="backArmUpperRight3" overflow="visible">
    <g id="backArmUpperRight2_4">
      <g id="element2">
        <path id="path7" fill="#630" d="M0.45,-0.75 Q0.25,-0.45 0.25,-0.1 C-0.3,2.5 0.5,4.8 2.75,6.8 4.2,8.1 5.8,9.25 7.55,10.2 L7.6,10.25 C8.75,11.35 10.15,12.15 11.85,12.7 12.65,12.9 13.35,12.8 13.9,12.45 14.95,12.2 15.6,11.35 15.9,9.85 15.85,10 15.75,10.1 15.65,10.25 14.55,11.6 13.75,12.25 13.2,12.2 12.75,12.1 12.4,12.05 12.05,12.1 10.95,11.9 9.85,11.45 8.8,10.8 8.75,10.75 8.7,10.75 8.65,10.7 8.7,10.75 8.8,10.75 8.85,10.75 9.1,10.85 9.35,10.9 9.6,10.9 5.5,8.65 2.85,6.6 1.65,4.7 0.5,2.75 0.05,1.5 0.3,0.95 0.65,0.4 0.7,0.05 0.55,-0.2 1.5,-1.45 2.75,-1.55 4.4,-0.5 4.95,-0.1 5.45,0.2 6,0.35 6.6,0.85 7.25,1.3 7.95,1.7 8.35,2 8.75,2.2 9.1,2.25 10,2.85 10.85,3.45 11.7,4.05 12.95,4.9 13.95,5.7 14.7,6.45 15.15,6.75 15.55,7.1 15.8,7.45 15.55,6.9 15.2,6.5 14.75,6.2 13.55,4.65 12.15,3.4 10.5,2.55 8.45,1.4 7.05,0.55 6.35,0 5.7,-0.55 5.15,-0.9 4.8,-1 4.65,-1.15 4.45,-1.3 4.2,-1.45 3.55,-1.8 2.9,-1.95 2.2,-1.85 1.45,-1.75 0.85,-1.4 0.45,-0.75z"/>
        <path id="path8" fill="#FFC" d="M4.4,-0.5 C2.75,-1.55 1.5,-1.45 0.55,-0.2 0.7,0.05 0.65,0.4 0.3,0.95 0.05,1.5 0.5,2.75 1.65,4.7 2.85,6.6 5.5,8.65 9.6,10.9 9.35,10.9 9.1,10.85 8.85,10.75 L8.8,10.8 C9.85,11.45 10.95,11.9 12.05,12.1 12.4,12.05 12.75,12.1 13.2,12.2 13.75,12.25 14.55,11.6 15.65,10.25 15.75,10.1 15.85,10 15.9,9.85 15.95,9.65 15.95,9.45 16,9.2 16.05,8.5 16,7.9 15.8,7.45 15.55,7.1 15.15,6.75 14.7,6.45 13.95,5.7 12.95,4.9 11.7,4.05 10.85,3.45 10,2.85 9.1,2.25 8.75,2.2 8.35,2 7.95,1.7 7.25,1.3 6.6,0.85 6,0.35 5.45,0.2 4.95,-0.1 4.4,-0.5z"/>
      </g>
      <animate attributeName="display" begin="0s" repeatCount="indefinite" dur="0.167s" keyTimes="0;0.798;1" values="none;inline;none"/>
    </g>
    <g id="backArmUpperRight2_2">
      <g id="element1">
        <path id="path5" fill="#630" d="M2.65,-1.8 Q1.3,-1.65 0.5,-0.65 C0.25,-0.3 0.15,0 0.25,0.35 -0.35,1.8 -0.15,3.15 0.9,4.5 1.2,4.85 1.5,5.15 1.8,5.35 3.45,7.15 5.25,8.75 7.25,10.15 8.15,10.7 9,11.1 9.85,11.45 L9.8,11.5 C12.05,13.55 13.95,13.3 15.6,10.85 15.75,10.6 15.9,10.35 16,10.1 15.15,11.4 13.95,12.1 12.4,12.2 11.7,12.25 11.05,12.05 10.4,11.6 10.55,11.65 10.7,11.65 10.85,11.7 8.3,10.15 5.95,8.4 3.7,6.35 3.15,5.8 2.5,5.3 1.8,4.9 1.15,3.95 0.75,2.95 0.6,1.8 0.55,1.15 0.55,0.55 0.5,0.1 1,-0.95 1.9,-1.35 3.15,-1.1 3.35,-1.05 3.6,-1.05 3.85,-1.05 4.1,-0.8 4.4,-0.6 4.8,-0.4 6.75,0.9 8.8,2.15 10.95,3.3 12.35,4.45 13.7,5.55 14.95,6.55 15.2,6.8 15.45,7 15.6,7.2 15.1,6.1 14.3,5.15 13.15,4.4 12.8,4.15 12.45,3.9 12.1,3.65 11.9,3.55 11.7,3.45 11.55,3.3 L11.25,3.1 C9.65,2.05 8.05,1 6.4,-0.15 6,-0.45 5.6,-0.7 5.2,-0.9 4.95,-1.1 4.7,-1.25 4.4,-1.35 3.8,-1.6 3.2,-1.75 2.65,-1.8z"/>
        <path id="path6" fill="#FFC" d="M4.8,-0.4 C4.4,-0.6 4.1,-0.8 3.85,-1.05 3.6,-1.05 3.35,-1.05 3.15,-1.1 1.9,-1.35 1,-0.95 0.5,0.1 0.55,0.55 0.55,1.15 0.6,1.8 0.75,2.95 1.15,3.95 1.8,4.9 2.5,5.3 3.15,5.8 3.7,6.35 5.95,8.4 8.3,10.15 10.85,11.7 10.7,11.65 10.55,11.65 10.4,11.6 11.05,12.05 11.7,12.25 12.4,12.2 13.95,12.1 15.15,11.4 16,10.1 16,10.05 16,10.05 16,10 L16,10.025 L16,10.05 C16.05,9.9 16.15,9.8 16.2,9.7 16.35,9.45 16.35,9.25 16.25,9.15 16.2,9 16.2,8.95 16.15,8.9 16.1,8.85 16.1,8.85 16.1,8.8 16.25,8.3 16.1,7.75 15.6,7.2 15.45,7 15.2,6.8 14.95,6.55 13.7,5.55 12.35,4.45 10.95,3.3 8.8,2.15 6.75,0.9 4.8,-0.4z"/>
      </g>
      <animate attributeName="display" begin="0s" repeatCount="indefinite" dur="0.167s" keyTimes="0;0.399;0.798;1" values="none;inline;none;none"/>
    </g>
    <g id="backArmUpperRight2_0">
      <g id="element">
        <path id="path" fill="#630" d="M0.75,-0.7 Q2.7,-2.15 5.2,-0.5 C5.85,-0.05 6.5,0.35 7.1,0.7 9.35,2.3 11.55,3.95 13.7,5.65 14.35,6.15 14.95,6.7 15.5,7.3 15.05,6.1 14.15,5.05 12.8,4.1 11.1,2.95 9.35,1.85 7.6,0.8 6.8,0.15 5.95,-0.45 5.05,-1 4.2,-1.55 3.2,-1.8 2.1,-1.8 1.45,-1.65 0.95,-1.4 0.6,-1.05 0.5,-0.95 0.45,-0.85 0.4,-0.7 L0.4,-0.65 C0.35,-0.6 0.3,-0.5 0.25,-0.4 -0.5,2.55 0.55,4.95 3.35,6.75 3.4,6.8 3.5,6.85 3.55,6.9 4.4,7.65 5.3,8.4 6.15,9.05 5.95,9 5.75,8.9 5.6,8.85 6.7,9.8 7.9,10.6 9.25,11.25 9.45,11.35 9.65,11.45 9.9,11.5 10.35,11.6 10.85,11.6 11.3,11.55 11.15,11.5 10.95,11.4 10.75,11.3 8.8,10.15 6.9,8.9 5.1,7.5 4.05,6.65 3.05,5.7 2.1,4.7 1.8,4.4 1.55,4.1 1.4,3.8 1.5,4.15 1.65,4.5 1.8,4.85 1.25,4.25 0.9,3.6 0.65,2.95 0.35,1.9 0.3,1.15 0.45,0.65 0.6,0.15 0.7,-0.3 0.75,-0.7z M15.85,10.05 C14.5,13.1 12.5,13.6 9.85,11.55 10.3,11.6 10.7,11.75 11.15,12 11.65,12.25 12.2,12.3 12.75,12.15 14.65,11.7 15.75,10.7 16.1,9.15 16.05,9.4 16,9.7 15.85,10.05z"/>
        <path id="path1" fill="#FFC" d="M5.2,-0.5 Q2.7,-2.15 0.75,-0.7 C0.7,-0.3 0.6,0.15 0.45,0.65 0.3,1.15 0.35,1.9 0.65,2.95 0.9,3.6 1.25,4.25 1.8,4.85 1.65,4.5 1.5,4.15 1.4,3.8 1.55,4.1 1.8,4.4 2.1,4.7 3.05,5.7 4.05,6.65 5.1,7.5 6.9,8.9 8.8,10.15 10.75,11.3 10.95,11.4 11.15,11.5 11.3,11.55 10.85,11.6 10.35,11.6 9.9,11.5 L9.85,11.55 C10.3,11.6 10.7,11.75 11.15,12 11.65,12.25 12.2,12.3 12.75,12.15 14.65,11.7 15.75,10.7 16.1,9.15 16.15,8.8 16.2,8.45 16.2,8.1 15.95,7.8 15.75,7.55 15.5,7.3 14.95,6.7 14.35,6.15 13.7,5.65 11.55,3.95 9.35,2.3 7.1,0.7 6.5,0.35 5.85,-0.05 5.2,-0.5z"/>
      </g>
      <animate attributeName="display" begin="0s" repeatCount="indefinite" dur="0.167s" keyTimes="0;0.399;1" values="inline;none;none"/>
    </g>
  </g>
</svg>