<?xml version="1.0" encoding="UTF-8" standalone="no"?>
<!-- Generator: flash2svg, http://dissentgraphics.com/tools/flash2svg -->

<svg
   xmlns:dc="http://purl.org/dc/elements/1.1/"
   xmlns:cc="http://creativecommons.org/ns#"
   xmlns:rdf="http://www.w3.org/1999/02/22-rdf-syntax-ns#"
   xmlns:svg="http://www.w3.org/2000/svg"
   xmlns="http://www.w3.org/2000/svg"
   xmlns:sodipodi="http://sodipodi.sourceforge.net/DTD/sodipodi-0.dtd"
   xmlns:inkscape="http://www.inkscape.org/namespaces/inkscape"
   id="Avatar"
   image-rendering="auto"
   version="1.1"
   x="0px"
   y="0px"
   width="8.8572903"
   height="11.75"
   viewBox="0 0 8.8572903 11.75"
   inkscape:version="0.48.4 r9939"
   sodipodi:docname="Avatar_sideLegLowerOffside2.svg">
  <metadata
     id="metadata3317">
    <rdf:RDF>
      <cc:Work
         rdf:about="">
        <dc:format>image/svg+xml</dc:format>
        <dc:type
           rdf:resource="http://purl.org/dc/dcmitype/StillImage" />
      </cc:Work>
    </rdf:RDF>
  </metadata>
  <sodipodi:namedview
     pagecolor="#ffffff"
     bordercolor="#666666"
     borderopacity="1"
     objecttolerance="10"
     gridtolerance="10"
     guidetolerance="10"
     inkscape:pageopacity="0"
     inkscape:pageshadow="2"
     inkscape:window-width="640"
     inkscape:window-height="480"
     id="namedview3315"
     showgrid="false"
     fit-margin-top="0"
     fit-margin-left="0"
     fit-margin-right="0"
     fit-margin-bottom="0"
     inkscape:zoom="1.8730159"
     inkscape:cx="39.352026"
     inkscape:cy="-54.5"
     inkscape:window-x="0"
     inkscape:window-y="0"
     inkscape:window-maximized="0"
     inkscape:current-layer="Avatar" />
  <defs
     id="defs3294" />
  <g
     id="sideLegLowerOffside3"
     overflow="visible"
     style="overflow:visible"
     transform="translate(5.3520259,3.25)">
    <g
       id="sideLegLowerOffside2_4">
      <g
         id="element2">
        <path
           id="path10"
           d="m -5.05,-0.9 q -0.079,0.315 -0.05,0.65 c -0.05,0.15 -0.05,0.3 -0.05,0.45 -0.15,1.15 -0.15,2.3 0,3.4 -0.1,0.95 0.05,1.85 0.45,2.75 0.25,0.65 0.65,1.1 1.15,1.4 C -3.9,7.35 -4.1,6.9 -4.2,6.4 -4.85,5.2 -5.05,3.9 -4.85,2.45 -4.9,2.4 -4.9,2.4 -4.9,2.45 c 0.05,-0.4 0.05,-0.8 0.1,-1.25 0,-0.15 0,-0.25 0,-0.4 l 0,-0.025 0,0.025 c 0.05,-0.15 0.05,-0.35 0.05,-0.6 -0.25,-1.45 0.35,-2.4 1.8,-2.85 0.05,0 0.1,0 0.15,-0.05 0.45,-0.05 0.9,-0.05 1.35,-0.1 1.5,-0.1 2.9,0.2 4.15,0.9 0.15,0.25 0.25,0.5 0.3,0.8 0.05,0.65 0.05,1.3 0.05,1.95 l 0,0.025 0,0.025 C 2.95,1.2 2.95,1.5 3,1.8 2.85,2.3 2.8,2.8 2.85,3.3 c 0,0.1 0,0.2 0.05,0.35 C 2.8,3.8 2.7,4 2.65,4.25 2.5,4.9 2.35,5.5 2.2,6.15 2.15,6.2 2.15,6.2 2.15,6.25 2.2,6.4 2.2,6.55 2.1,6.8 2.45,6.55 2.65,6.2 2.7,5.8 2.7,5.75 2.7,5.65 2.75,5.55 2.95,4.8 3.05,4.05 3.1,3.3 3.05,3.35 3.05,3.35 3.05,3.4 3.1,2.65 3.15,2.05 3.2,1.6 3.25,1.15 3.3,0.55 3.4,-0.2 3.45,-0.95 3.25,-1.55 2.8,-2 2.3,-2.45 2,-2.7 1.95,-2.65 1.65,-2.8 1.35,-2.9 1.05,-2.95 0.8,-3 0.5,-3 0.25,-3.05 -0.1,-3.1 -0.45,-3.1 -0.8,-3.1 c -0.5,-0.05 -1,0 -1.5,0.1 0.05,-0.05 0.1,-0.15 0.1,-0.25 -0.85,0.15 -1.6,0.5 -2.15,1.15 -0.15,0.15 -0.25,0.3 -0.35,0.45 0.2,-0.45 0.55,-0.9 1.05,-1.25 -0.95,0.35 -1.4,1 -1.4,2 z"
           inkscape:connector-curvature="0"
           style="fill:#663300" />
        <path
           id="path11"
           d="m -1.45,-2.8 c -0.45,0.05 -0.9,0.05 -1.35,0.1 -0.05,0.05 -0.1,0.05 -0.15,0.05 -1.45,0.45 -2.05,1.4 -1.8,2.85 0,0.25 0,0.45 -0.05,0.6 l 0,-0.025 0,0.025 c 0,0.15 0,0.25 0,0.4 -0.05,0.45 -0.05,0.85 -0.1,1.25 0,-0.05 0,-0.05 0.05,0 -0.2,1.45 0,2.75 0.65,3.95 0.1,0.5 0.3,0.95 0.65,1.35 0.3,0.2 0.65,0.35 1.05,0.4 0.4,0.15 0.8,0.2 1.25,0.15 C 0.15,8.25 1.25,7.8 2.1,6.85 L 2.075,6.825 2.1,6.8 C 2.2,6.55 2.2,6.4 2.15,6.25 2.15,6.2 2.15,6.2 2.2,6.15 2.35,5.5 2.5,4.9 2.65,4.25 2.7,4 2.8,3.8 2.9,3.65 2.85,3.5 2.85,3.4 2.85,3.3 2.8,2.8 2.85,2.3 3,1.8 2.95,1.5 2.95,1.2 3.05,0.9 l 0,-0.025 0,-0.025 C 3.05,0.2 3.05,-0.45 3,-1.1 2.95,-1.4 2.85,-1.65 2.7,-1.9 1.45,-2.6 0.05,-2.9 -1.45,-2.8 z"
           inkscape:connector-curvature="0"
           style="fill:#ffffcc" />
      </g>
      <animate
         attributeName="display"
         begin="0s"
         repeatCount="indefinite"
         dur="0.167s"
         keyTimes="0;0.798;1"
         values="none;inline;none"
         id="animate3301" />
    </g>
    <g
       id="sideLegLowerOffside2_2">
      <g
         id="element1">
        <path
           id="path5"
           d="m 0,-3.1 q -0.234,0.047 -0.525,0.05 l -0.025,0 c -0.15,0 -0.25,0 -0.35,0.05 0.05,-0.05 0.05,-0.05 0.1,-0.1 -0.25,0 -0.5,0 -0.75,0 -0.75,0.05 -1.5,0.2 -2.25,0.45 -0.15,0.1 -0.25,0.2 -0.35,0.3 0.05,-0.05 0.05,-0.1 0.1,-0.15 -0.5,0.2 -0.8,0.55 -0.9,1.05 C -5.1,-0.6 -5.15,0.15 -5,0.85 -5,0.9 -5,1 -5.05,1.05 -5.15,1.45 -5.15,1.8 -5.1,2.15 -5.15,2.3 -5.15,2.5 -5.2,2.65 -5.55,4.8 -5,6.6 -3.6,8 -3.55,7.95 -3.6,7.85 -3.65,7.75 -3.9,7.5 -4.05,7.2 -4.2,6.9 -4.15,6.95 -4.1,7.05 -4,7.15 -4.15,6.95 -4.25,6.75 -4.3,6.5 -4.35,6.35 -4.4,6.2 -4.4,6.1 -4.45,6.05 -4.45,6.05 -4.45,6 -4.5,6.05 -4.5,6.1 -4.5,6.15 c 0,-0.05 0,-0.05 0,-0.1 C -4.55,6 -4.55,6 -4.55,5.95 -4.8,4.8 -4.85,3.7 -4.8,2.55 -4.75,2.4 -4.75,2.25 -4.75,2.1 c 0.05,-0.35 0.1,-0.65 0.1,-0.95 0,-0.05 0,-0.15 0,-0.2 l -0.025,0 0.025,0 C -4.65,0.7 -4.7,0.4 -4.75,0.15 -4.8,0 -4.8,-0.15 -4.8,-0.3 c 0.05,0.05 0.1,0.15 0.15,0.2 -0.05,-1.45 0.65,-2.3 2.2,-2.45 0.45,-0.05 0.8,-0.15 1.15,-0.3 0.35,0.05 0.75,0.05 1.2,0.1 1.05,0.1 2,0.4 2.85,0.95 0.2,0.45 0.3,1 0.25,1.55 C 2.95,0.5 2.9,1.2 2.95,1.8 2.7,2.8 2.55,3.85 2.6,4.95 2.6,5.25 2.55,5.5 2.45,5.75 2.45,5.7 2.45,5.7 2.5,5.65 2.6,6.05 2.5,6.45 2.2,6.9 2.15,6.95 2.15,7 2.1,7.05 2.15,7 2.15,7 2.2,6.95 2.35,6.8 2.45,6.7 2.5,6.55 2.85,5.65 3.1,4.75 3.15,3.8 3.2,2.65 3.25,1.55 3.4,0.45 3.65,-0.6 3.45,-1.4 2.85,-2.05 2.8,-2.2 2.65,-2.35 2.45,-2.45 2,-2.7 1.55,-2.85 1.05,-3 0.7,-3.1 0.35,-3.15 0,-3.1 z"
           inkscape:connector-curvature="0"
           style="fill:#663300" />
        <path
           id="path6"
           d="m -4.65,-0.1 c -0.05,-0.05 -0.1,-0.15 -0.15,-0.2 0,0.15 0,0.3 0.05,0.45 0.05,0.25 0.1,0.55 0.1,0.8 l -0.025,0 0.025,0 c 0,0.05 0,0.15 0,0.2 0,0.3 -0.05,0.6 -0.1,0.95 0,0.15 0,0.3 -0.05,0.45 -0.05,1.15 0,2.25 0.25,3.4 0,0.05 0,0.05 0.05,0.1 L -4.525,6.025 -4.45,6 c 0,0.05 0,0.05 0.05,0.1 0,0.1 0.05,0.25 0.1,0.4 0.05,0.25 0.15,0.45 0.3,0.65 0.1,0.1 0.2,0.2 0.35,0.3 l -0.025,0 0.025,0.025 0,0.025 c 0.05,0.05 0.15,0.1 0.2,0.15 0.05,0 0.05,0 0.1,0.05 l 0.375,0.225 0.025,0.025 c 0,0 0,0 0.05,0 0.1,0.05 0.2,0.1 0.3,0.15 0.6,0.25 1.2,0.3 1.75,0.25 C -0.8,8.4 -0.7,8.45 -0.6,8.5 0.4,8.15 1.3,7.7 2.1,7.05 2.15,7 2.15,6.95 2.2,6.9 2.5,6.45 2.6,6.05 2.5,5.65 2.45,5.7 2.45,5.7 2.45,5.75 2.55,5.5 2.6,5.25 2.6,4.95 2.55,3.85 2.7,2.8 2.95,1.8 2.9,1.2 2.95,0.5 3,-0.25 3.05,-0.8 2.95,-1.35 2.75,-1.8 1.9,-2.35 0.95,-2.65 -0.1,-2.75 -0.55,-2.8 -0.95,-2.8 -1.3,-2.85 -1.65,-2.7 -2,-2.6 -2.45,-2.55 -4,-2.4 -4.7,-1.55 -4.65,-0.1 z"
           inkscape:connector-curvature="0"
           style="fill:#ffffcc" />
      </g>
      <animate
         attributeName="display"
         begin="0s"
         repeatCount="indefinite"
         dur="0.167s"
         keyTimes="0;0.399;0.798;1"
         values="none;inline;none;none"
         id="animate3307" />
    </g>
    <g
       id="sideLegLowerOffside2_0">
      <g
         id="element">
        <path
           id="path"
           d="m -2.9,-3 q -0.4,0 -0.8,0.2 c -0.45,0.2 -0.85,0.5 -1.2,0.9 -0.05,0.15 -0.05,0.3 -0.1,0.45 -0.05,0.15 -0.05,0.25 -0.1,0.35 0.05,0.15 0.1,0.35 0.15,0.5 C -5,0.65 -5.15,2 -5.3,3.45 -5.4,4.3 -5.35,5.1 -5.2,5.75 -5.15,5.5 -5.1,5.3 -5.05,5.1 -5,5.75 -4.7,6.4 -4.25,7 -4.3,6.7 -4.4,6.4 -4.5,6.1 c 0,-0.05 0,-0.05 0,-0.05 0.1,0.2 0.25,0.4 0.4,0.55 C -4.35,6.3 -4.55,6 -4.7,5.65 -4.75,5.55 -4.75,5.45 -4.8,5.35 -4.75,5.4 -4.7,5.5 -4.65,5.6 -4.8,5.15 -4.85,4.7 -4.8,4.35 c 0,-0.55 0,-0.95 0,-1.2 C -4.8,2.8 -4.75,2.5 -4.7,2.2 -4.65,1.75 -4.6,1.35 -4.55,0.95 -4.5,0.9 -4.5,0.8 -4.5,0.75 c 0,-0.1 0,-0.2 0.05,-0.25 0,0 0,0 0,-0.05 -0.05,-0.15 -0.05,-0.35 -0.1,-0.5 0,-0.2 -0.05,-0.4 -0.15,-0.6 -0.05,-0.45 0.1,-0.9 0.45,-1.25 0.3,-0.25 0.55,-0.5 0.8,-0.7 0.75,-0.2 1.55,-0.3 2.4,-0.3 1.15,0 2.25,0.2 3.25,0.6 0.6,0.55 0.85,1.2 0.7,2.05 -0.2,1.4 -0.2,2.75 0,4.1 C 2.75,4.2 2.65,4.6 2.6,5.05 2.55,5.3 2.5,5.5 2.35,5.65 2.3,6.1 2.15,6.55 1.9,6.95 1.85,7 1.75,7.1 1.7,7.15 1.95,6.9 2.2,6.65 2.35,6.4 2.9,5.45 3.15,4.35 3.1,3.15 3.1,3.2 3.1,3.25 3.05,3.3 3.1,2.5 3.2,1.7 3.35,0.95 3.6,-0.2 3.4,-1.2 2.75,-2.05 2.85,-2 2.95,-2 3,-1.95 2.75,-2.1 2.45,-2.3 2.2,-2.5 1.85,-2.75 1.6,-2.85 1.45,-2.9 0.95,-2.95 0.45,-3.05 0,-3.1 -1.1,-3.3 -2.15,-3.2 -3.2,-2.8 -3.1,-2.85 -3,-2.95 -2.9,-3 z"
           inkscape:connector-curvature="0"
           style="fill:#663300" />
        <path
           id="path1"
           d="m -3.45,-2.6 c -0.25,0.2 -0.5,0.45 -0.8,0.7 -0.35,0.35 -0.5,0.8 -0.45,1.25 0.1,0.2 0.15,0.4 0.15,0.6 0.05,0.15 0.05,0.35 0.1,0.5 0,0.05 0,0.05 0,0.05 -0.05,0.05 -0.05,0.15 -0.05,0.25 0,0.05 0,0.15 -0.05,0.2 -0.05,0.4 -0.1,0.8 -0.15,1.25 -0.05,0.3 -0.1,0.6 -0.1,0.95 0,0.25 0,0.65 0,1.2 -0.05,0.35 0,0.8 0.15,1.25 l -0.05,0.025 0,0.025 C -4.55,6 -4.35,6.3 -4.1,6.6 -4.25,6.45 -4.4,6.25 -4.5,6.05 c 0,0 0,0 0,0.05 0.1,0.3 0.2,0.6 0.25,0.9 l -0.025,-0.025 0,0.025 0.025,0 c 0.05,0.05 0.15,0.15 0.2,0.25 L -4.075,7.225 -4,7.3 c 0.75,0.85 1.7,1.1 2.75,0.85 L -1.275,8.125 -1.25,8.15 C -0.25,8.2 0.7,7.85 1.6,7.2 L 1.675,7.15 1.7,7.15 C 1.75,7.1 1.85,7 1.9,6.95 2.15,6.55 2.3,6.1 2.35,5.65 2.5,5.5 2.55,5.3 2.6,5.05 2.65,4.6 2.75,4.2 2.9,3.85 2.7,2.5 2.7,1.15 2.9,-0.25 3.05,-1.1 2.8,-1.75 2.2,-2.3 c -1,-0.4 -2.1,-0.6 -3.25,-0.6 -0.85,0 -1.65,0.1 -2.4,0.3 z"
           inkscape:connector-curvature="0"
           style="fill:#ffffcc" />
      </g>
      <animate
         attributeName="display"
         begin="0s"
         repeatCount="indefinite"
         dur="0.167s"
         keyTimes="0;0.399;1"
         values="inline;none;none"
         id="animate3313" />
    </g>
  </g>
</svg>
