<?xml version="1.0" encoding="utf-8"?>
<!-- Generator: flash2svg, http://dissentgraphics.com/tools/flash2svg -->
<svg xmlns:xlink="http://www.w3.org/1999/xlink" id="Avatar" image-rendering="auto" baseProfile="basic" version="1.1" x="0px" y="0px" width="68" height="126" xmlns="http://www.w3.org/2000/svg" viewBox="0 0 68 126">
  <defs/>
  <g id="sideLegLowerClose3" overflow="visible">
    <g id="sideLegLowerClose2_4">
      <g id="element2">
        <path id="path29" fill="#FFC" d="M2.175,-3.05 Q1.64,-3.166 1.1,-3.2 C0.85,-3.25 0.65,-3.25 0.4,-3.2 -0.25,-3.2 -0.85,-3.1 -1.45,-2.95 -1.6,-3 -1.7,-3 -1.85,-2.95 -2.3,-2.85 -2.65,-2.7 -3,-2.45 -3.4,-2.2 -3.7,-1.85 -3.9,-1.5 -3.9,-1.25 -3.9,-1.05 -3.85,-0.8 -3.8,-0.65 -3.75,-0.5 -3.65,-0.35 -3.7,-0.2 -3.7,-0.1 -3.7,0 -3.75,0.85 -3.8,1.65 -3.85,2.4 L-3.9,2.4 C-3.85,3.9 -3.9,5.4 -4.05,6.85 -4.1,7.4 -3.95,7.85 -3.6,8.3 -3.45,8.55 -3.25,8.75 -3,8.95 -3.15,8.8 -3.3,8.65 -3.45,8.5 -3.35,8.8 -3.2,9.1 -3.05,9.4 -1.95,10.35 -0.7,10.6 0.75,10.15 1,10.1 1.3,10 1.55,9.9 1.6,9.9 1.65,9.9 1.7,9.85 L1.675,9.85 L2.55,9.4 C2.8,9.25 3,9.05 3.2,8.85 L3.2,8.825 L3.2,8.8 C3.35,8.25 3.5,7.75 3.6,7.2 3.75,6.6 3.9,6 4.05,5.4 3.95,4.3 4,3.2 4.15,2.1 4,2.25 3.85,2.35 3.7,2.4 3,3.05 2.3,3.1 1.55,2.45 1.35,2.3 1.25,2.1 1.2,1.9 1.2,1.95 1.2,1.95 1.25,1.95 1.15,1.8 1.1,1.7 1.15,1.55 1.7,2.2 2.4,2.35 3.25,2.05 3.6,1.9 3.9,1.85 4.15,1.85 4.2,1.65 4.2,1.45 4.25,1.25 4.3,0.9 4.4,0.5 4.5,0.15 L4.475,0.15 L4.5,0 C4.45,0 4.4,-0.15 4.35,-0.4 4,-1.45 3.85,-2.05 3.9,-2.3 3.35,-2.65 2.95,-2.9 2.65,-2.95 2.6,-2.95 2.6,-2.95 2.55,-2.95 2.4,-3 2.3,-3 2.2,-3.05"/>
        <path id="path30" fill="#630" d="M3.55,-2 C3.5,-2 3.5,-2 3.5,-2 3.55,-1.95 3.6,-1.9 3.65,-1.85 3.6,-1.9 3.6,-1.95 3.55,-2"/>
        <path id="path31" fill="#630" d="M3.875,-2.325 L3.875,-2.3 L3.9,-2.3 C3.85,-2.05 4,-1.45 4.35,-0.4 4.4,-0.15 4.45,0 4.5,0 L4.475,0.15 L4.5,0.15 C4.4,0.5 4.3,0.9 4.25,1.25 4.2,1.45 4.2,1.65 4.15,1.85 3.9,1.85 3.6,1.9 3.25,2.05 2.4,2.35 1.7,2.2 1.15,1.55 1.1,1.7 1.15,1.8 1.25,1.95 1.2,1.95 1.2,1.95 1.2,1.9 1.25,2.1 1.35,2.3 1.55,2.45 2.3,3.1 3,3.05 3.7,2.4 3.85,2.35 4,2.25 4.15,2.1 4,3.2 3.95,4.3 4.05,5.4 3.9,6 3.75,6.6 3.6,7.2 3.5,7.75 3.35,8.25 3.2,8.8 3.55,8.35 3.8,7.85 3.9,7.25 4.15,6.8 4.3,6.2 4.35,5.55 4.35,5.25 4.35,4.95 4.4,4.7 4.45,4.4 4.45,4.1 4.5,3.8 4.55,2.85 4.6,1.95 4.65,1 4.65,0.75 4.7,0.25 4.75,-0.5 4.8,-1.05 4.65,-1.45 4.4,-1.8 4.05,-2.35 3.9,-2.5 3.9,-2.3 M-3.9,-1.5 C-4.15,-1.15 -4.25,-0.75 -4.25,-0.3 -4.3,0.3 -4.25,0.9 -4.1,1.55 -4.15,3 -4.25,4.45 -4.4,5.9 -4.55,7.35 -4.2,8.4 -3.4,9.1 -3.35,9.15 -3.3,9.2 -3.25,9.25 -3.2,9.3 -3.1,9.35 -3.05,9.4 -3.2,9.1 -3.35,8.8 -3.45,8.5 -3.3,8.65 -3.15,8.8 -3,8.95 -3.25,8.75 -3.45,8.55 -3.6,8.3 -3.95,7.85 -4.1,7.4 -4.05,6.85 -3.9,5.4 -3.85,3.9 -3.9,2.4 -3.9,2.35 -3.9,2.35 -3.9,2.3 -3.85,2.35 -3.85,2.35 -3.85,2.4 -3.8,1.65 -3.75,0.85 -3.7,0 -3.7,-0.1 -3.7,-0.2 -3.65,-0.35 -3.75,-0.5 -3.8,-0.65 -3.85,-0.8 -3.9,-1.05 -3.9,-1.25 -3.9,-1.5z"/>
      </g>
      <animate attributeName="display" begin="0s" repeatCount="indefinite" dur="0.167s" keyTimes="0;0.798;1" values="none;inline;none"/>
    </g>
    <g id="sideLegLowerClose2_2">
      <g id="element1">
        <path id="path11" fill="#630" d="M4.275,-1.775 L4.15,-1.9 C3.8,-2.55 3.65,-2.8 3.7,-2.6 3.7,-2.55 3.7,-2.45 3.75,-2.3 3.8,-2.05 3.9,-1.75 4.05,-1.3 4.25,-0.65 4.35,-0.35 4.35,-0.3 4.35,0.35 4.35,1 4.3,1.65 4.25,1.75 4.25,1.85 4.25,1.9 4.2,2.15 4.2,2.45 4.15,2.75 4.15,2.9 4.15,3 4.1,3.1 3.95,4.15 3.85,5.15 3.8,6.15 3.7,6.7 3.6,7.25 3.45,7.8 L3.45,7.825 L3.45,7.85 C3.4,7.9 3.35,8 3.3,8.05 3.2,8.4 3.1,8.7 2.95,9.05 3.95,8.25 4.35,7.3 4.1,6.15 4.05,6.6 3.95,7.05 3.75,7.4 3.8,7.15 3.9,6.9 3.95,6.65 4.05,6.2 4.1,5.7 4.15,5.2 4.3,3.95 4.45,2.95 4.5,2.3 4.55,1.65 4.65,0.85 4.8,0 4.9,-0.65 4.75,-1.2 4.3,-1.75 M3.55,2.15 C3.4,2.15 3.2,2.2 3.05,2.25 2.45,2.3 1.9,2.15 1.45,1.8 1.3,1.7 1.2,1.6 1.1,1.5 1.05,1.8 1.2,2.05 1.5,2.25 1.55,2.3 1.6,2.3 1.65,2.35 1.8,2.45 1.95,2.55 2.1,2.6 2.25,2.8 2.5,2.85 2.85,2.8 3.3,2.75 3.65,2.55 3.9,2.3 4.05,2.2 4.15,2.05 4.25,1.9 4.2,1.9 4.15,1.9 4.1,1.95 4.15,1.85 4.15,1.75 4.2,1.65 4,1.75 3.8,1.9 3.55,2.1 L3.525,2.125z M-3.8,-0.5 C-3.9,-0.75 -3.95,-1 -3.9,-1.35 -3.9,-1.4 -3.9,-1.5 -3.85,-1.55 -4.15,-1.1 -4.25,-0.5 -4.2,0.15 -4.15,0.45 -4.15,0.75 -4.1,1.05 -4.55,3.25 -4.6,5.45 -4.25,7.65 -4.1,8.6 -3.75,9.25 -3.1,9.6 -3.3,9.4 -3.45,9.15 -3.6,8.9 -3.75,8.6 -3.8,8.35 -3.7,8.1 -3.75,7.95 -3.75,7.75 -3.8,7.55 -3.95,6.1 -4.05,4.6 -4.05,3.15 -4.05,2.8 -4.05,2.45 -4.05,2.1 -4,2.45 -4,2.8 -4,3.15 -3.75,2.35 -3.7,1.5 -3.8,0.65 -3.85,0.2 -3.85,-0.15 -3.8,-0.5z"/>
        <path id="path12" fill="#FFC" d="M3.6,-2.35 C3.35,-2.5 3.1,-2.65 2.8,-2.7 1.2,-3.15 -0.4,-3.2 -2,-2.85 L-1.95,-2.85 C-2.3,-2.75 -2.65,-2.6 -3,-2.45 L-3.5,-2.05 C-3.65,-1.9 -3.75,-1.7 -3.85,-1.55 L-3.875,-1.575 L-3.875,-1.55 L-3.85,-1.55 C-3.9,-1.5 -3.9,-1.4 -3.9,-1.35 -3.95,-1 -3.9,-0.75 -3.8,-0.5 -3.85,-0.15 -3.85,0.2 -3.8,0.65 -3.7,1.5 -3.75,2.35 -4,3.15 L-4.075,3.15 L-4.05,3.15 C-4.05,4.6 -3.95,6.1 -3.8,7.55 -3.75,7.75 -3.75,7.95 -3.7,8.1 -3.8,8.35 -3.75,8.6 -3.6,8.9 -3.45,9.15 -3.3,9.4 -3.1,9.6 L-3.125,9.6 L-3.1,9.625 L-3.1,9.65 C-2.95,9.7 -2.8,9.75 -2.65,9.8 -2.65,9.8 -2.65,9.8 -2.6,9.8 -2.15,10.05 -1.75,10.25 -1.35,10.35 L-1.3,10.35 -1.25,10.375 L-1.25,10.4 C-0.2,10.65 0.85,10.4 1.9,9.75 2.15,9.6 2.35,9.5 2.55,9.35 2.7,9.25 2.8,9.15 2.95,9.05 3.1,8.7 3.2,8.4 3.3,8.05 3.35,8 3.4,7.9 3.45,7.85 L3.45,7.825 L3.45,7.8 C3.6,7.25 3.7,6.7 3.8,6.15 3.85,5.15 3.95,4.15 4.1,3.1 4.15,3 4.15,2.9 4.15,2.75 4.2,2.45 4.2,2.15 4.25,1.9 4.15,2.05 4.05,2.2 3.9,2.3 3.65,2.55 3.3,2.75 2.85,2.8 2.5,2.85 2.25,2.8 2.1,2.6 1.95,2.55 1.8,2.45 1.65,2.35 1.6,2.3 1.55,2.3 1.5,2.25 1.2,2.05 1.05,1.8 1.1,1.5 1.2,1.6 1.3,1.7 1.45,1.8 1.9,2.15 2.45,2.3 3.05,2.25 3.2,2.2 3.4,2.15 3.55,2.15 L3.525,2.125 L3.55,2.1 C3.8,1.9 4,1.75 4.2,1.65 L4.275,1.65 L4.3,1.65 C4.35,1 4.35,0.35 4.35,-0.3 4.35,-0.35 4.25,-0.65 4.05,-1.3 3.9,-1.75 3.8,-2.05 3.75,-2.3 L3.7,-2.325 L3.725,-2.3 L3.7,-2.3 C3.65,-2.35 3.65,-2.35 3.6,-2.4 L3.6,-2.35z M-1.85,9.85 L-1.875,9.925 L-1.85,9.95 C-1.9,9.9 -2,9.9 -2.05,9.85 -2,9.85 -1.9,9.85 -1.85,9.85z"/>
        <path id="path28" fill="#630" d="M-1.35,10.35 C-1.3,10.35 -1.3,10.35 -1.25,10.4 M-1.25,10.375 L-1.3,10.35 -1.35,10.35"/>
      </g>
      <animate attributeName="display" begin="0s" repeatCount="indefinite" dur="0.167s" keyTimes="0;0.399;0.798;1" values="none;inline;none;none"/>
    </g>
    <g id="sideLegLowerClose2_0">
      <g id="element">
        <path id="path" fill="#FFC" d="M4.2,-0.2 Q3.591,-2.323 3.675,-2.475 L3.7,-2.45 C3.45,-2.7 3.05,-2.9 2.6,-3.05 0.85,-3.45 -0.8,-3.3 -2.45,-2.6 -2.6,-2.5 -2.75,-2.4 -2.9,-2.3 -3.15,-2.15 -3.3,-1.95 -3.45,-1.7 -3.5,-1.7 -3.5,-1.7 -3.5,-1.65 L-3.525,-1.675 L-3.525,-1.65 L-3.5,-1.65 C-3.55,-1.55 -3.55,-1.45 -3.6,-1.4 -3.55,-1.35 -3.55,-1.35 -3.5,-1.3 -3.9,-0.1 -4.05,1.2 -3.95,2.55 -3.95,2.9 -3.95,3.2 -4,3.5 -3.95,4.7 -3.9,5.95 -3.85,7.2 -3.8,7.75 -3.65,8.2 -3.3,8.6 -3.3,8.65 -3.3,8.75 -3.25,8.8 -3.1,9.05 -3,9.35 -2.85,9.6 L-2.825,9.625 -2.8,9.625 L-2.8,9.65 C-2.45,9.95 -2.05,10.15 -1.5,10.2 -0.65,10.35 0.15,10.4 0.85,10.25 L0.85,10.225 L0.85,10.2 0.875,10.225 L0.9,10.25 C1.85,10 2.65,9.5 3.3,8.75 3.65,7.9 3.85,7.1 3.85,6.25 4.1,5.35 4.2,4.4 4.2,3.45 L4.125,3.425 L4.15,3.45 C4.1,3.5 4.1,3.6 4.05,3.65 4.1,3.35 4.15,3.05 4.2,2.75 4.15,2.4 4.15,2.1 4.2,1.85 3.7,2.85 2.85,3.05 1.7,2.4 1.4,2.25 1.2,2 1.15,1.7 1.8,2.25 2.55,2.4 3.3,2.1 3.65,1.95 3.95,1.8 4.25,1.65 4.3,1 4.25,0.4 4.2,-0.2z"/>
        <path id="path1" fill="#630" d="M3.675,-2.475 Q3.591,-2.323 4.2,-0.2 C4.25,0.4 4.3,1 4.25,1.65 3.95,1.8 3.65,1.95 3.3,2.1 2.55,2.4 1.8,2.25 1.15,1.7 1.2,2 1.4,2.25 1.7,2.4 2.85,3.05 3.7,2.85 4.2,1.85 4.25,1.8 4.25,1.75 4.25,1.7 4.25,1.75 4.25,1.8 4.25,1.85 4.25,1.9 4.25,2 4.25,2.05 4.2,1.95 4.2,1.9 4.2,1.85 4.15,2.1 4.15,2.4 4.2,2.75 4.15,3.05 4.1,3.35 4.05,3.65 4.1,3.6 4.1,3.5 4.15,3.45 4.15,3.4 4.15,3.3 4.2,3.25 4.2,3.3 4.2,3.4 4.2,3.45 4.2,4.4 4.1,5.35 3.85,6.25 3.85,7.1 3.65,7.9 3.3,8.75 3.4,8.65 3.5,8.55 3.55,8.45 L3.55,8.5 C3.8,8.25 3.95,8 4.1,7.65 4.15,7.5 4.25,7.4 4.3,7.25 4.25,7.25 4.25,7.25 4.25,7.3 4.3,7.05 4.3,6.85 4.35,6.6 4.5,5.4 4.5,4.25 4.4,3.1 4.45,2.3 4.55,1.4 4.7,0.45 4.8,-0.25 4.7,-0.9 4.4,-1.45 4.15,-1.85 3.95,-2.2 3.75,-2.45 3.7,-2.5 3.7,-2.5 3.7,-2.45 M-3.5,-1.3 C-3.55,-1.35 -3.55,-1.35 -3.6,-1.4 -3.55,-1.45 -3.55,-1.55 -3.5,-1.65 -4.05,-1.2 -4.3,-0.65 -4.25,0.1 -4.2,1.6 -4.25,3.1 -4.4,4.55 -4.35,4.45 -4.25,4.35 -4.2,4.2 -4.25,4.85 -4.3,5.45 -4.3,6.1 -4.35,7.75 -3.85,8.95 -2.85,9.6 -3,9.35 -3.1,9.05 -3.25,8.8 -3.3,8.75 -3.3,8.65 -3.3,8.6 -3.65,8.2 -3.8,7.75 -3.85,7.2 -3.9,5.95 -3.95,4.7 -4,3.5 -3.95,3.2 -3.95,2.9 -3.95,2.55 -4.05,1.2 -3.9,-0.1 -3.5,-1.3z"/>
        <path id="path8" fill="#630" d="M0.85,10.2 L0.85,10.225 0.875,10.225 0.85,10.2"/>
      </g>
      <animate attributeName="display" begin="0s" repeatCount="indefinite" dur="0.167s" keyTimes="0;0.399;1" values="inline;none;none"/>
    </g>
  </g>
</svg>