<?xml version="1.0" encoding="UTF-8" standalone="no"?>
<!-- Generator: flash2svg, http://dissentgraphics.com/tools/flash2svg -->

<svg
   xmlns:dc="http://purl.org/dc/elements/1.1/"
   xmlns:cc="http://creativecommons.org/ns#"
   xmlns:rdf="http://www.w3.org/1999/02/22-rdf-syntax-ns#"
   xmlns:svg="http://www.w3.org/2000/svg"
   xmlns="http://www.w3.org/2000/svg"
   xmlns:sodipodi="http://sodipodi.sourceforge.net/DTD/sodipodi-0.dtd"
   xmlns:inkscape="http://www.inkscape.org/namespaces/inkscape"
   id="Avatar"
   image-rendering="auto"
   version="1.1"
   x="0px"
   y="0px"
   width="9.5164967"
   height="11.7"
   viewBox="0 0 9.5164967 11.7"
   inkscape:version="0.48.4 r9939"
   sodipodi:docname="Avatar_backHandRight2.svg">
  <metadata
     id="metadata3183">
    <rdf:RDF>
      <cc:Work
         rdf:about="">
        <dc:format>image/svg+xml</dc:format>
        <dc:type
           rdf:resource="http://purl.org/dc/dcmitype/StillImage" />
      </cc:Work>
    </rdf:RDF>
  </metadata>
  <sodipodi:namedview
     pagecolor="#ffffff"
     bordercolor="#666666"
     borderopacity="1"
     objecttolerance="10"
     gridtolerance="10"
     guidetolerance="10"
     inkscape:pageopacity="0"
     inkscape:pageshadow="2"
     inkscape:window-width="640"
     inkscape:window-height="480"
     id="namedview3181"
     showgrid="false"
     fit-margin-top="0"
     fit-margin-left="0"
     fit-margin-right="0"
     fit-margin-bottom="0"
     inkscape:zoom="1.8730159"
     inkscape:cx="37.782843"
     inkscape:cy="-59.55"
     inkscape:window-x="0"
     inkscape:window-y="0"
     inkscape:window-maximized="0"
     inkscape:current-layer="Avatar" />
  <defs
     id="defs3160" />
  <g
     id="backHandRight3"
     overflow="visible"
     style="overflow:visible"
     transform="translate(3.7828427,8.25)">
    <g
       id="backHandRight2_4">
      <g
         id="element2">
        <path
           id="path16"
           d="M 0.95,-8.1 C 0.8,-8.15 0.7,-8.2 0.6,-8.25 c -0.8,0.15 -1.2,0.65 -1.25,1.5 0,0.35 -0.05,0.75 -0.1,1.1 L -0.775,-5.675 -0.8,-5.65 c -0.15,0.2 -0.3,0.4 -0.4,0.6 -0.15,-0.2 -0.35,-0.4 -0.55,-0.55 -0.05,-0.05 -0.15,-0.05 -0.2,-0.05 -0.15,-0.15 -0.35,-0.3 -0.5,-0.4 l -0.05,0 c -0.1,-0.05 -0.2,-0.1 -0.3,-0.05 -0.1,0.05 -0.2,0 -0.35,-0.05 -0.05,0.05 -0.1,0.1 -0.15,0.15 -0.15,0.25 -0.3,0.55 -0.4,0.85 -0.1,0.3 -0.1,0.6 -0.05,0.9 0.15,0.15 0.3,0.3 0.4,0.55 0.15,0.35 0.4,0.6 0.7,0.7 -0.25,0.35 -0.4,0.8 -0.45,1.35 -0.15,2.25 0.7,3.95 2.5,5.1 -0.05,-0.1 -0.15,-0.2 -0.25,-0.3 0.25,0.15 0.6,0.2 1,0.15 C 1.7,3.25 2.85,2.55 3.6,1.25 3.55,1.25 3.55,1.25 3.5,1.3 3.55,1.2 3.65,1.1 3.7,1 4.45,-0.15 5.05,-1.3 5.6,-2.5 5.55,-2.45 5.5,-2.4 5.45,-2.35 5.5,-2.4 5.5,-2.4 5.5,-2.45 5.95,-3.45 5.75,-4.25 4.9,-4.9 4.75,-4.95 4.55,-5 4.3,-4.95 c -0.05,0 -0.05,0 -0.1,0.05 C 4.25,-4.95 4.25,-5.05 4.25,-5.1 4.4,-5.95 4.1,-6.6 3.3,-7.05 c -0.05,0 -0.05,0 -0.1,-0.05 -0.05,0 -0.05,0 -0.1,0 -0.25,-0.05 -0.5,0 -0.75,0.2 -0.2,0.2 -0.35,0.4 -0.45,0.6 0,-0.05 0,-0.05 0,-0.1 C 1.85,-7.1 1.55,-7.65 1.05,-8.05 1,-8.1 1,-8.1 0.95,-8.1 z M 1,-7.7 C 0.85,-7.75 0.75,-7.8 0.6,-7.85 0.65,-7.9 0.75,-7.9 0.85,-7.9 l -0.025,0 Q 0.924,-7.821 1,-7.725 z"
           inkscape:connector-curvature="0"
           style="fill:#663300" />
        <path
           id="path20"
           d="M 2.4,-6.35 C 2.35,-6.3 2.35,-6.3 2.3,-6.25 2.2,-6 2.05,-5.8 1.9,-5.65 c 0,-0.05 0,-0.1 0.05,-0.15 -0.05,0.05 -0.1,0.05 -0.15,0.1 0,-0.05 0,-0.15 0,-0.2 C 1.75,-5.8 1.65,-5.7 1.5,-5.65 1.55,-5.8 1.55,-5.9 1.55,-6 1.6,-6.25 1.5,-6.55 1.35,-6.9 1,-7.6 0.7,-7.9 0.4,-7.85 c -0.65,0.15 -0.95,0.75 -0.9,1.8 0,0.1 0,0.2 0,0.25 l -0.025,0 0.025,0 c 0,0.15 0,0.25 -0.05,0.35 -0.05,0.2 -0.15,0.4 -0.3,0.65 -0.05,0.05 -0.05,0.1 -0.1,0.15 0.1,0.15 0.1,0.35 0,0.5 C -1,-4.3 -1.1,-4.4 -1.2,-4.5 c -0.05,0 -0.05,0 -0.05,0 0,0.05 0,0.05 0,0.1 -0.1,-0.2 -0.2,-0.35 -0.35,-0.5 -0.25,-0.25 -0.6,-0.45 -0.95,-0.6 -0.25,-0.15 -0.45,-0.05 -0.6,0.25 -0.1,-0.05 -0.15,-0.15 -0.1,-0.25 -0.25,0.4 -0.25,0.8 0,1.2 0.25,0.4 0.45,0.8 0.7,1.15 0,0 0,0 0.05,-0.05 0,0.05 0,0.05 0,0.1 0,0.05 0,0.1 0.05,0.15 -0.05,0 -0.05,0 -0.1,0 C -3,-1.4 -2.8,0.1 -1.9,1.6 c 0.2,0.35 0.4,0.65 0.65,1 0.2,0.05 0.35,0.15 0.5,0.3 C 0.55,3.1 1.7,2.75 2.7,1.85 L 2.725,1.825 2.75,1.85 c 0.55,-1 1.1,-2 1.75,-3 C 4.65,-1.4 4.85,-1.6 5,-1.8 5.15,-2.45 5.15,-3.2 5.1,-4 5.05,-4.25 4.9,-4.4 4.65,-4.45 4.4,-4.5 4.2,-4.55 4.05,-4.55 3.95,-4.4 3.85,-4.3 3.7,-4.2 3.8,-4.75 3.85,-5.3 3.8,-5.85 3.75,-6.3 3.55,-6.6 3.1,-6.85 2.85,-6.8 2.7,-6.65 2.55,-6.5 2.5,-6.45 2.45,-6.4 2.4,-6.35 z"
           inkscape:connector-curvature="0"
           style="fill:#ffffcc" />
      </g>
      <animate
         attributeName="display"
         begin="0s"
         repeatCount="indefinite"
         dur="0.167s"
         keyTimes="0;0.798;1"
         values="none;inline;none"
         id="animate3167" />
    </g>
    <g
       id="backHandRight2_2">
      <g
         id="element1">
        <path
           id="path8"
           d="M 2.1,-6.6 C 2.05,-7.25 1.7,-7.75 1.05,-8.1 0.5,-8.25 0.15,-8.15 -0.1,-7.8 c -0.4,0.1 -0.6,0.4 -0.65,0.9 0,0.3 0,0.6 0,0.85 C -0.9,-5.8 -1,-5.5 -1.1,-5.2 c -0.05,0 -0.1,0 -0.1,0.05 C -1.25,-5.2 -1.35,-5.25 -1.4,-5.3 -1.55,-5.4 -1.65,-5.5 -1.75,-5.55 -1.8,-5.6 -1.8,-5.6 -1.8,-5.6 c -0.05,0 -0.05,0 -0.05,0 -0.2,-0.15 -0.4,-0.3 -0.6,-0.45 -0.95,-0.1 -1.35,0.3 -1.25,1.2 0.05,0.75 0.45,1.4 1.1,1.9 -0.3,0.3 -0.5,0.75 -0.6,1.35 -0.2,2.05 0.45,3.45 1.9,4.3 -0.05,-0.05 -0.15,-0.05 -0.2,-0.05 1,0.7 2.15,0.7 3.4,0 C 2.45,2.35 2.85,1.95 3.2,1.5 3.45,1.15 3.75,0.75 4,0.35 4.5,-0.4 4.95,-1.2 5.35,-2.05 5.3,-2 5.3,-2 5.25,-1.95 5.55,-2.6 5.65,-3.15 5.55,-3.6 5.65,-4.25 5.35,-4.7 4.6,-5 4.55,-5 4.45,-5 4.4,-4.95 L 4.375,-4.925 4.4,-4.9 c -0.1,0 -0.2,0 -0.3,0.05 l -0.025,0 0.025,0 c 0,-0.05 0,-0.05 0,-0.1 C 4.25,-5.7 4.15,-6.4 3.75,-7.05 3.4,-7.3 3,-7.35 2.65,-7.1 2.4,-6.95 2.2,-6.75 2.1,-6.6 z m -2.9,1.05 c 0,0.05 0,0.1 0,0.15 -0.05,0 -0.05,0 -0.05,0 0,-0.05 0,-0.1 0.05,-0.15 z"
           inkscape:connector-curvature="0"
           style="fill:#663300" />
        <path
           id="path9"
           d="M 0.55,-7.65 Q 0.291,-7.77 0.1,-7.725 l 0,0.025 c -0.15,0.15 -0.2,0.45 -0.25,0.8 -0.05,0.65 -0.2,1.3 -0.45,1.9 -0.05,0.2 -0.15,0.4 -0.25,0.55 0,-0.1 0,-0.2 0.05,-0.35 -0.1,0.15 -0.25,0.25 -0.4,0.35 -0.15,0.1 -0.35,0.15 -0.5,0.1 0,-0.15 0.05,-0.25 0.1,-0.35 -0.15,-0.1 -0.25,-0.25 -0.4,-0.45 -0.05,-0.1 -0.15,-0.2 -0.2,-0.35 -0.3,-0.05 -0.6,0.05 -0.85,0.3 -0.25,0.2 -0.25,0.45 -0.1,0.7 0.35,0.55 0.6,1.1 0.8,1.7 -0.05,-0.05 -0.15,-0.05 -0.2,-0.1 -0.3,1.5 -0.05,3 0.7,4.45 C -1.6,2 -1.3,2.4 -0.85,2.7 0.6,2.75 1.85,2.4 2.8,1.65 L 2.775,1.625 2.7,1.5 C 3.25,0.7 3.8,-0.15 4.35,-1.05 4.4,-1.1 4.4,-1.1 4.45,-1.15 4.7,-2 4.9,-2.85 5,-3.7 5.05,-4.35 4.8,-4.6 4.2,-4.4 4.05,-4.35 3.95,-4.35 3.85,-4.35 3.8,-4.3 3.7,-4.25 3.65,-4.2 c 0,-0.05 0,-0.15 0.05,-0.2 l -0.025,0 -0.025,0 c 0,-0.05 0,-0.05 0.05,-0.05 0.05,-0.4 0.05,-0.8 0.05,-1.25 0,-0.35 -0.05,-0.7 -0.2,-1.05 C 3,-7.1 2.6,-6.95 2.3,-6.4 2.2,-6.25 2.1,-6.1 2,-6 1.95,-5.75 1.85,-5.5 1.7,-5.3 1.9,-6.45 1.5,-7.25 0.55,-7.65 z"
           inkscape:connector-curvature="0"
           style="fill:#ffffcc" />
      </g>
      <animate
         attributeName="display"
         begin="0s"
         repeatCount="indefinite"
         dur="0.167s"
         keyTimes="0;0.399;0.798;1"
         values="none;inline;none;none"
         id="animate3173" />
    </g>
    <g
       id="backHandRight2_0">
      <g
         id="element">
        <path
           id="path"
           d="M 0.875,-7.925 Q 0.784,-7.966 0.7,-8.05 c -0.6,-0.1 -1,0.1 -1.25,0.6 -0.2,0.45 -0.3,0.95 -0.25,1.4 -0.05,0.05 -0.05,0.1 -0.1,0.15 -0.05,0.1 -0.05,0.2 -0.1,0.25 -0.05,0.05 -0.05,0.05 -0.1,0.1 -0.15,0.2 -0.2,0.4 -0.2,0.6 0,0.05 0,0.05 0,0.1 C -1.35,-4.9 -1.35,-4.9 -1.35,-4.9 -1.4,-4.95 -1.4,-5 -1.45,-5.05 c -0.1,-0.1 -0.2,-0.2 -0.25,-0.3 -0.05,-0.05 -0.05,-0.05 -0.1,-0.1 -0.05,0 -0.05,0 -0.05,0 C -2,-5.6 -2.2,-5.75 -2.4,-5.85 -2.65,-5.9 -2.8,-5.95 -2.95,-5.9 c -0.05,0 -0.05,0 -0.1,0 l -0.025,0 0.025,0 c -0.25,0 -0.45,0.15 -0.55,0.5 -0.05,0.2 -0.05,0.45 -0.05,0.8 0,0.3 0.25,0.75 0.7,1.3 0.05,0.1 0.15,0.2 0.2,0.25 -0.05,0.05 -0.1,0.15 -0.15,0.3 -0.25,0.6 -0.25,1.15 -0.1,1.6 -0.05,1.65 0.4,3 1.35,4.1 0.05,-0.05 0.05,-0.05 0,-0.1 0,-0.1 0,-0.2 -0.05,-0.3 0.55,0.5 1.2,0.7 1.9,0.65 C 1.35,3.3 2.3,2.8 3.05,1.7 3,1.75 2.9,1.75 2.85,1.8 3.7,1.05 4.3,0.15 4.75,-0.95 4.85,-1.1 4.95,-1.3 5,-1.45 5.15,-1.8 5.25,-2.2 5.3,-2.55 5.45,-2.8 5.55,-3.1 5.55,-3.45 5.6,-4.2 5.25,-4.7 4.6,-5.05 4.35,-5.1 4.1,-5.05 3.9,-4.85 3.95,-4.9 3.95,-5 3.95,-5.05 4.15,-6 3.9,-6.7 3.25,-7.2 2.8,-7.25 2.45,-7.1 2.15,-6.65 2.05,-6.5 1.95,-6.35 1.9,-6.2 l 0,-0.05 C 1.75,-6.85 1.45,-7.4 1,-7.9 c -0.05,0 -0.05,0 -0.1,0 M -1.55,2.55 C -1.6,2.5 -1.65,2.5 -1.7,2.5 c 0,-0.05 0,-0.05 0,-0.1 0.05,0.05 0.1,0.1 0.15,0.15 z"
           inkscape:connector-curvature="0"
           style="fill:#663300" />
        <path
           id="path1"
           d="m 1.05,-7.35 c -0.1,-0.15 -0.2,-0.3 -0.35,-0.4 -0.75,-0.15 -1.1,0.25 -1.05,1.1 0.05,0.25 0,0.45 -0.05,0.7 -0.1,0.25 -0.25,0.45 -0.4,0.7 L -0.825,-5.225 -0.8,-5.2 c -0.05,0.05 -0.1,0.15 -0.15,0.25 -0.05,0.15 -0.15,0.2 -0.3,0.2 l -0.025,0 0.025,0 c 0,0.05 0,0.15 0.05,0.2 l 0,-0.025 0,0.025 C -1.25,-4.6 -1.25,-4.6 -1.3,-4.65 l 0,-0.025 -0.025,-0.025 0.025,0 c -0.05,0 -0.05,0 -0.05,-0.05 l -0.025,0 0,0.025 0.025,0.025 C -1.6,-4.9 -1.9,-5.1 -2.3,-5.25 -2.75,-5.5 -3.05,-5.6 -3.15,-5.45 -3.2,-5.4 -3.2,-5.35 -3.2,-5.3 c 0,0.25 0,0.45 -0.05,0.7 0.05,0.15 0.1,0.25 0.2,0.4 0.05,0.1 0.15,0.2 0.2,0.3 0.05,0.1 0.15,0.2 0.2,0.35 0.05,0.05 0.1,0.15 0.15,0.25 l 0.05,-0.1 c -0.05,0.05 -0.05,0.05 -0.05,0.1 0.05,0.05 0.05,0.15 0.1,0.2 -0.05,0 -0.05,0 -0.1,-0.05 0,0.05 0,0.15 0,0.2 -0.05,0 -0.05,0.05 0,0.1 -0.15,1.35 -0.05,2.65 0.4,3.9 0.1,0.25 0.2,0.55 0.25,0.8 0.35,0.35 0.7,0.65 1.1,0.8 2.45,0.2 4.1,-1 5.05,-3.55 C 4.4,-1.15 4.55,-1.4 4.7,-1.65 4.75,-2 4.8,-2.4 4.85,-2.75 4.9,-3.15 5.05,-3.45 5.2,-3.7 5.05,-4.05 4.9,-4.3 4.65,-4.55 4.4,-4.85 4.15,-4.85 4,-4.55 3.95,-4.4 3.85,-4.4 3.7,-4.45 3.6,-4.3 3.5,-4.2 3.35,-4.1 3.5,-4.6 3.55,-5.15 3.6,-5.75 3.6,-6.2 3.45,-6.6 3.15,-6.9 3.1,-6.9 3,-6.9 2.95,-6.85 2.9,-6.8 2.8,-6.8 2.7,-6.8 2.65,-6.6 2.55,-6.4 2.4,-6.25 2.25,-6.05 2.1,-5.85 1.95,-5.7 l -0.075,-0.05 0.025,0 c -0.05,0.1 -0.15,0.2 -0.2,0.3 -0.05,-0.6 -0.3,-1.25 -0.65,-1.9 z"
           inkscape:connector-curvature="0"
           style="fill:#ffffcc" />
      </g>
      <animate
         attributeName="display"
         begin="0s"
         repeatCount="indefinite"
         dur="0.167s"
         keyTimes="0;0.399;1"
         values="inline;none;none"
         id="animate3179" />
    </g>
  </g>
</svg>
