<?xml version="1.0" encoding="UTF-8" standalone="no"?>
<!-- Generator: flash2svg, http://dissentgraphics.com/tools/flash2svg -->

<svg
   xmlns:dc="http://purl.org/dc/elements/1.1/"
   xmlns:cc="http://creativecommons.org/ns#"
   xmlns:rdf="http://www.w3.org/1999/02/22-rdf-syntax-ns#"
   xmlns:svg="http://www.w3.org/2000/svg"
   xmlns="http://www.w3.org/2000/svg"
   xmlns:xlink="http://www.w3.org/1999/xlink"
   xmlns:sodipodi="http://sodipodi.sourceforge.net/DTD/sodipodi-0.dtd"
   xmlns:inkscape="http://www.inkscape.org/namespaces/inkscape"
   id="Avatar"
   image-rendering="auto"
   version="1.1"
   x="0px"
   y="0px"
   width="18.468298"
   height="10.639236"
   viewBox="0 0 18.468298 10.639236"
   inkscape:version="0.48.4 r9939"
   sodipodi:docname="Avatar_sideFootOffside2.svg">
  <metadata
     id="metadata3160">
    <rdf:RDF>
      <cc:Work
         rdf:about="">
        <dc:format>image/svg+xml</dc:format>
        <dc:type
           rdf:resource="http://purl.org/dc/dcmitype/StillImage" />
      </cc:Work>
    </rdf:RDF>
  </metadata>
  <sodipodi:namedview
     pagecolor="#ffffff"
     bordercolor="#666666"
     borderopacity="1"
     objecttolerance="10"
     gridtolerance="10"
     guidetolerance="10"
     inkscape:pageopacity="0"
     inkscape:pageshadow="2"
     inkscape:window-width="640"
     inkscape:window-height="480"
     id="namedview3158"
     showgrid="false"
     fit-margin-top="0"
     fit-margin-left="0"
     fit-margin-right="0"
     fit-margin-bottom="0"
     inkscape:zoom="1.8730159"
     inkscape:cx="40.816405"
     inkscape:cy="-53.012024"
     inkscape:window-x="0"
     inkscape:window-y="0"
     inkscape:window-maximized="0"
     inkscape:current-layer="Avatar" />
  <defs
     id="defs3109">
    <pattern
       id="bitmap"
       patternContentUnits="userSpaceOnUse"
       patternUnits="userSpaceOnUse"
       width="200"
       height="200"
       viewBox="0 0 200 200"
       patternTransform="matrix(1 0 0 1 -51.699 19.7)">
      <symbol
         id="Avatar_Texture_symbol"
         viewBox="0 0 200 200">
        <image
           sodipodi:absref="C:\Users\Training\Documents\GitHub\Glitchen-Avatar-Engine\glitch-avatars-svg\base_avatar\Avatar.fla\placeholder symbols 2\Avatar_Texture"
           xlink:href="Avatar_Texture"
           height="200"
           width="200"
           id="Avatar_Texture" />
      </symbol>
      <use
         id="Avatar_Texture_use"
         width="200"
         height="200"
         y="0"
         x="0"
         xlink:href="#Avatar_Texture_symbol"
         externalResourcesRequired="true" />
    </pattern>
    <pattern
       id="bitmap1"
       patternContentUnits="userSpaceOnUse"
       patternUnits="userSpaceOnUse"
       width="200"
       height="200"
       viewBox="0 0 200 200"
       patternTransform="matrix(1.08154296875 0 0 1.0880126953125 -105.599 -104.199)">
      <symbol
         id="symbol3116"
         viewBox="0 0 200 200">
        <image
           sodipodi:absref="C:\Users\Training\Documents\GitHub\Glitchen-Avatar-Engine\glitch-avatars-svg\base_avatar\Avatar.fla\placeholder symbols 2\Avatar_Texture"
           xlink:href="Avatar_Texture"
           height="200"
           width="200"
           id="image3118" />
      </symbol>
      <use
         id="use3120"
         width="200"
         height="200"
         y="0"
         x="0"
         xlink:href="#Avatar_Texture_symbol"
         externalResourcesRequired="true" />
    </pattern>
  </defs>
  <g
     id="sideFootOffside3"
     overflow="visible"
     style="overflow:visible"
     transform="translate(6.8164055,0.65126011)">
    <g
       id="sideFootOffside2_1_0">
      <g
         id="element3">
        <path
           id="path16"
           d="M 4.765,0.728 C 2.872,0.13 1.628,-0.197 1.088,-0.306 0.547,-0.414 -0.21,-0.523 -1.13,-0.578 c -0.973,-0.163 -1.838,-0.054 -2.649,0.327 -0.92,0.326 -1.515,0.707 -1.785,1.142 -0.162,0.327 -0.487,0.707 -0.703,1.034 -0.162,0.272 -0.216,0.544 -0.216,0.816 -0.108,0.435 -0.108,0.979 0.054,1.578 -0.054,0.326 0,0.544 0.108,0.761 0.162,0.707 0.649,1.197 1.19,1.578 0.757,0.326 1.189,0.544 1.352,0.489 q 0.108,-0.054 1.46,0.762 c 0.703,0.544 1.73,0.816 2.595,1.034 0.649,0.163 1.244,0.272 1.731,0.326 0.162,0 0.27,0 0.433,0.054 L 4.711,9.16 5.684,9.487 C 5.955,9.65 6.387,9.704 7.144,9.65 7.847,9.487 8.496,9.16 8.983,8.725 c 0,0 0,0 0.108,-0.054 C 9.578,8.344 9.632,7.855 9.47,7.311 L 8.875,6.821 9.307,6.93 c 0.271,0.054 0.595,0 0.92,-0.055 0.324,-0.054 0.703,-0.38 0.919,-0.761 0.27,-0.544 0.162,-0.979 -0.162,-1.36 L 10.713,4.645 c 0.433,0 0.757,-0.163 0.757,-0.598 C 11.524,3.666 11.362,3.285 11.092,2.959 10.767,2.795 10.335,2.686 9.686,2.741 8.929,2.85 8.334,2.686 8.064,2.251 7.739,1.816 6.658,1.381 4.765,0.728 z"
           inkscape:connector-curvature="0"
           style="fill:url(#bitmap1)" />
      </g>
      <g
         id="element4">
        <g
           id="drawingObject1">
          <path
             id="path17"
             d="M 11.156,5.157 C 10.669,6.027 10.02,6.462 9.155,6.408 L 8.29,6.081 8.776,6.625 C 9.155,6.897 9.642,6.897 10.128,6.68 10.615,6.462 10.94,6.245 11.048,5.973 11.156,5.646 11.21,5.429 11.264,5.211 L 11.156,5.157 z"
             inkscape:connector-curvature="0"
             style="fill:#000000;fill-opacity:0.2" />
        </g>
        <g
           id="drawingObject2">
          <path
             id="path18"
             d="m 1.301,1.001 0.45,-0.75 c -0.6,-0.35 -1.4,-0.5 -2.45,-0.45 -1,0 -2.2,0.2 -3.6,0.7 -1.4,0.5 -2.15,1.15 -2.3,1.95 -0.1,0.8 -0.05,1.7 0.2,2.55 0.2,0.85 0.75,1.5 1.6,1.85 0.8,0.4 1.5,0.7 2,0.95 0.5,0.2 1.1,0.5 1.9,0.85 0.75,0.4 2.05,0.6 3.95,0.65 l 1.05,-0.1 1.05,0.4 c 0.3,0.2 0.8,0.3 1.5,0.25 0.75,0 1.3,-0.1 1.8,-0.45 0.5,-0.25 0.7,-0.5 0.7,-0.95 -0.7,0.65 -1.55,0.95 -2.4,0.85 q -0.85,-0.05 -1.35,-0.55 l -0.45,-0.45 -0.55,0 c -0.5,0 -1.85,-0.1 -3.2,-0.35 -0.6,-0.15 -1.1,-0.4 -1.7,-0.65 l -0.65,-0.6 -1.1,-0.55 c -1.05,-1.15 -1.05,-1.85 0,-2.1 1.05,-0.25 2.2,-1.25 3.55,-3.05 z"
             inkscape:connector-curvature="0"
             style="fill:#000000;fill-opacity:0.2" />
        </g>
        <g
           id="drawingObject3">
          <path
             id="path19"
             d="m 9.966,3.688 0.757,0.544 0.487,-0.109 c 0.054,-0.109 0.054,-0.109 0.054,-0.109 -0.054,0 0,-0.163 0.108,-0.272 l -0.054,0 0,-0.761 c -0.162,0.598 -0.649,0.87 -1.352,0.707 z"
             inkscape:connector-curvature="0"
             style="fill:#000000;fill-opacity:0.2" />
        </g>
      </g>
      <g
         id="element5">
        <g
           id="drawingObject4">
          <path
             id="path20"
             d="m 1.051,4.151 c 0.05,-0.15 0.55,-0.75 1.4,-1.8 0.85,-1 0.65,-1.8 -0.65,-2.4 0.3,-0.3 -0.6,-0.35 -2.8,-0.15 -2.25,0.3 -3.65,0.5 -4.1,0.65 -0.5,0.2 -0.95,0.95 -1.2,2.2 -0.35,1.25 -0.25,2.2 0.25,2.95 0.5,0.7 1.15,1.1 1.95,1.35 0.75,0.15 1.25,0.4 1.5,0.7 0.3,0.25 1,0.6 2.25,0.95 1.2,0.35 2.1,0.5 2.8,0.55 l 2.25,-0.1 1,0.5 0.7,0.1 c 0.5,0.05 1.15,-0.1 1.95,-0.5 0.8,-0.35 1.2,-0.9 1,-1.5 -0.05,0.25 -0.3,0.5 -0.8,0.6 -0.6,0.1 -1.15,0.15 -1.55,0.15 q -0.7,0 -1.05,-0.7 c -0.25,-0.5 -0.2,-0.95 0.05,-1.35 l -0.4,-0.1 c -0.5,0.15 -1.25,0.2 -2.35,0.25 -1.15,0.05 -1.9,-0.2 -2.35,-0.75 -0.5,-0.55 -0.6,-0.95 -0.35,-1.1 0.2,-0.15 0.4,-0.3 0.5,-0.5 z"
             inkscape:connector-curvature="0"
             style="fill:#000000;fill-opacity:0.2" />
        </g>
        <g
           id="drawingObject5">
          <path
             id="path21"
             d="M 9.425,3.525 C 9.912,3.579 10.94,4.558 10.94,4.558 11.318,4.177 11.535,3.851 11.481,3.47 11.426,3.144 11.264,2.926 11.102,2.981 11.048,3.416 10.345,3.579 8.993,3.416 l 0.432,0.109 z"
             inkscape:connector-curvature="0"
             style="fill:#000000;fill-opacity:0.2" />
        </g>
        <g
           id="drawingObject6">
          <path
             id="path22"
             d="M 11.048,4.721 10.886,4.449 C 10.832,4.939 10.399,5.32 9.642,5.592 8.885,5.864 8.127,5.809 7.424,5.374 l 1.407,1.143 0.054,0 c 0.27,0.163 0.649,0.217 1.189,0 0.541,-0.055 0.866,-0.381 1.136,-0.816 0.108,-0.164 0.054,-0.49 -0.162,-0.98 z"
             inkscape:connector-curvature="0"
             style="fill:#000000;fill-opacity:0.2" />
        </g>
      </g>
    </g>
    <g
       id="sideFootOffside2_0_4">
      <g
         id="element2">
        <path
           id="path12"
           d="M 2.8,-0.2 Q 1.741,-0.348 0.7,-0.375 l 0,0.025 C -0.75,-0.55 -2.2,-0.45 -3.65,-0.1 -4.9,0.25 -5.8,0.8 -6.25,1.6 -6.5,1.85 -6.7,2.25 -6.75,2.7 -7,4.45 -6.55,5.75 -5.3,6.7 -5.35,6.65 -5.35,6.65 -5.4,6.6 -4.65,7.15 -3.85,7.55 -2.95,7.75 -1.3,8.8 0.55,9.3 2.6,9.35 3.35,9.4 3.95,9.3 4.3,9.1 4.45,9.2 4.6,9.3 4.75,9.35 4.9,9.4 5.05,9.4 5.2,9.45 6.2,9.9 7.25,9.85 8.35,9.3 9.7,8.65 10,7.9 9.25,6.95 c 0.15,0 0.35,0 0.55,-0.05 0.25,-0.05 0.5,-0.15 0.65,-0.25 0.85,-0.4 1,-1 0.55,-1.8 0.05,-0.05 0.15,-0.05 0.2,-0.1 0.35,-0.25 0.5,-0.6 0.4,-1 0.15,-0.55 -0.1,-1 -0.7,-1.25 -0.15,0 -0.35,0 -0.55,-0.05 C 9.8,2.4 9.35,2.45 8.95,2.6 8.8,2.6 8.7,2.6 8.6,2.65 8.45,2.45 8.3,2.25 8.05,2.1 7.35,1.65 6.65,1.25 5.9,0.85 5.65,0.8 5.4,0.7 5.15,0.6 4.55,0.4 3.95,0.25 3.35,0.1 3.6,0.1 3.9,0.1 4.15,0.15 3.7,0 3.25,-0.1 2.8,-0.2 z m 8.45,4.15 C 11.1,4.2 10.95,4.4 10.85,4.6 10.8,4.5 10.7,4.4 10.6,4.3 L 10.5,4.25 c 0.1,0.2 0.15,0.4 0.2,0.6 L 10.675,4.825 10.65,4.85 l 0.025,0 0.025,0 c 0,0.1 0,0.2 0,0.3 0.05,0.45 0,0.8 -0.15,1.05 C 10,6.45 9.45,6.55 8.8,6.5 8.75,6.45 8.75,6.45 8.7,6.4 8.65,6.4 8.65,6.4 8.65,6.45 L 8.625,6.475 8.65,6.5 C 8.5,6.45 8.4,6.45 8.25,6.4 8.3,6.5 8.4,6.6 8.45,6.65 8.4,6.6 8.4,6.6 8.35,6.6 8.4,6.65 8.5,6.7 8.6,6.75 8.65,6.9 8.75,7.15 9,7.4 9.3,7.7 9.3,8 9.05,8.3 8,9.35 6.85,9.7 5.55,9.35 5.5,9.25 5.45,9.2 5.3,9.15 5.1,9.05 4.9,8.95 4.65,8.85 l 0,0.05 C 4.6,8.85 4.5,8.85 4.4,8.9 L 4.375,8.925 4.4,8.95 C 3.35,9.05 2.25,9 1.2,8.85 -0.25,8.65 -1.65,8.2 -2.9,7.55 -3.05,7.3 -3.35,7.15 -3.7,7 -4.45,6.65 -5.2,6.25 -5.9,5.75 -5.95,5.6 -6.05,5.4 -6.1,5.25 -6.45,4.25 -6.55,3.3 -6.4,2.35 -6.15,1.8 -5.8,1.4 -5.25,1.05 c 1.05,-0.6 2.2,-1 3.35,-1.25 0.1,0.05 0.2,0.05 0.3,0.05 l 0.025,0 0.025,0 c 0.45,0.05 0.9,0.1 1.45,0.1 0.55,0 1.05,0 1.55,0.05 2.7,0.35 5.15,1.3 7.3,2.95 C 8.7,2.9 8.7,2.9 8.7,2.85 8.8,2.9 8.95,2.9 9.1,2.9 9.45,2.85 9.75,2.85 10,2.8 10.05,2.85 10.1,2.85 10.15,2.85 11,3 11.4,3.35 11.4,3.85 11.35,3.9 11.3,3.9 11.25,3.95 z"
           inkscape:connector-curvature="0"
           style="fill:#663300" />
        <path
           id="path13"
           d="M 11.25,3.95 C 11.3,3.9 11.35,3.9 11.4,3.85 11.4,3.35 11,3 10.15,2.85 10.1,2.85 10.05,2.85 10,2.8 9.75,2.85 9.45,2.85 9.1,2.9 8.95,2.9 8.8,2.9 8.7,2.85 8.7,2.9 8.7,2.9 8.75,2.95 6.6,1.3 4.15,0.35 1.45,0 c -0.5,-0.05 -1,-0.05 -1.55,-0.05 -0.55,0 -1,-0.05 -1.45,-0.1 l -0.025,0 -0.025,0 c -0.1,0 -0.2,0 -0.3,-0.05 -1.15,0.25 -2.3,0.65 -3.35,1.25 -0.55,0.35 -0.9,0.75 -1.15,1.3 -0.15,0.95 -0.05,1.9 0.3,2.9 0.05,0.15 0.15,0.35 0.2,0.5 0.7,0.5 1.45,0.9 2.2,1.25 0.35,0.15 0.65,0.3 0.8,0.55 1.25,0.65 2.65,1.1 4.1,1.3 1.05,0.15 2.15,0.2 3.2,0.1 L 4.375,8.925 4.4,8.9 c 0.1,-0.05 0.2,-0.05 0.25,0 l 0,-0.05 C 4.9,8.95 5.1,9.05 5.3,9.15 5.45,9.2 5.5,9.25 5.55,9.35 6.85,9.7 8,9.35 9.05,8.3 9.3,8 9.3,7.7 9,7.4 8.75,7.15 8.65,6.9 8.6,6.75 8.5,6.7 8.4,6.65 8.35,6.6 8.4,6.6 8.4,6.6 8.45,6.65 8.4,6.6 8.3,6.5 8.25,6.4 8.4,6.45 8.5,6.45 8.65,6.5 L 8.625,6.475 8.65,6.45 C 8.65,6.4 8.65,6.4 8.7,6.4 8.75,6.45 8.75,6.45 8.8,6.5 9.45,6.55 10,6.45 10.55,6.2 10.7,5.95 10.75,5.6 10.7,5.15 c 0,-0.1 0,-0.2 0,-0.3 l -0.025,0 -0.025,0 0.025,-0.025 0.025,0.025 c -0.05,-0.2 -0.1,-0.4 -0.2,-0.6 l 0.1,0.05 c 0.1,0.1 0.2,0.2 0.25,0.3 0.1,-0.2 0.25,-0.4 0.4,-0.65 z"
           inkscape:connector-curvature="0"
           style="fill:#ffffcc" />
      </g>
      <animate
         attributeName="display"
         begin="0s"
         repeatCount="indefinite"
         dur="0.167s"
         keyTimes="0;0.798;1"
         values="none;inline;none"
         id="animate3144" />
    </g>
    <g
       id="sideFootOffside2_0_2">
      <g
         id="element1">
        <path
           id="path6"
           d="M -1,-0.425 Q -1.962,-0.497 -2.9,-0.45 c 0.25,0.05 0.55,0.05 0.8,0.1 -0.75,0.05 -1.45,0.25 -2.15,0.5 -0.05,0.05 -0.15,0.05 -0.2,0.1 0.25,-0.15 0.6,-0.3 0.95,-0.45 -1.95,0.4 -3,1.55 -3.25,3.5 -0.15,1.2 0.1,2.1 0.75,2.7 0.15,0.15 0.3,0.25 0.45,0.4 0.85,0.7 1.75,1.15 2.75,1.35 0.4,0.4 0.9,0.7 1.55,0.95 0.95,0.35 1.9,0.6 2.85,0.75 0.35,0.05 0.7,0.1 1.05,0.05 0.1,0 0.2,0 0.3,0 C 3.4,9.45 3.8,9.4 4.15,9.25 4.35,9.35 4.6,9.45 4.9,9.5 5.05,9.55 5.25,9.55 5.4,9.6 5.7,9.7 6,9.8 6.35,9.85 7.25,10 8.05,9.75 8.7,9.2 9.65,8.4 9.85,7.7 9.4,7.1 9.55,7.05 9.7,7.05 9.85,7 10.6,6.85 11.1,6.45 11.35,5.85 11.3,5.95 11.2,6.05 11.05,6.1 11.05,6.05 11.05,6 11.1,5.95 11.35,5.5 11.35,5.1 11.1,4.7 11.2,4.65 11.3,4.5 11.45,4.3 11.85,3.55 11.65,3 10.9,2.55 10.75,2.5 10.6,2.5 10.45,2.45 9.75,2.3 9.1,2.3 8.55,2.55 c 0.1,0 0.2,0 0.35,0.05 -0.15,0 -0.25,0 -0.35,0.05 C 8.4,2.35 8.15,2.1 7.8,1.85 6.95,1.35 6.05,0.95 5,0.6 4.65,0.45 4.35,0.35 4,0.25 2.75,-0.05 1.45,-0.25 0.2,-0.3 0.05,-0.35 -0.05,-0.35 -0.15,-0.35 c 0.15,0 0.25,0 0.4,0 C -0.2,-0.4 -0.6,-0.45 -1,-0.4"
           inkscape:connector-curvature="0"
           style="fill:#663300" />
        <path
           id="path7"
           d="M -0.75,-0.15 C -1,-0.2 -1.2,-0.2 -1.45,-0.25 c -1.4,0.2 -2.7,0.7 -3.9,1.55 -0.4,0.3 -0.7,0.65 -0.9,1.1 -0.15,0.4 -0.2,0.85 -0.2,1.3 -0.05,0.45 0,0.9 0.15,1.35 0.45,0.95 1.25,1.6 2.3,1.9 0.35,0.1 0.7,0.25 0.95,0.5 C -3.1,7.4 -3.1,7.35 -3.15,7.3 -1.9,8.2 -0.4,8.75 1.3,9 c 1,0.1 2,0.1 3,-0.05 C 4.25,8.9 4.25,8.9 4.2,8.85 4.25,8.9 4.25,8.9 4.3,8.9 L 4.35,8.9 4.325,8.925 4.35,8.95 C 4.4,9 4.5,9.05 4.6,9.1 5.2,9.15 5.8,9.2 6.45,9.3 6.8,9.35 7.15,9.35 7.5,9.3 L 7.55,9.4 C 8.2,9.15 8.7,8.6 9.15,7.8 9.25,7.65 9.25,7.5 9.1,7.35 9.05,7.25 8.95,7.15 8.9,7.1 8.55,7.05 8.3,6.9 8.05,6.65 8.2,6.7 8.35,6.7 8.5,6.75 8.35,6.6 8.15,6.5 8,6.45 8,6.4 8,6.4 8.05,6.4 8.15,6.35 8.25,6.35 8.35,6.35 l 0.05,0 c 0.15,0.1 0.3,0.2 0.45,0.25 0.15,0.05 0.3,0.05 0.45,0.1 0.05,0 0.1,0 0.15,0.05 0.45,0 0.75,-0.1 1,-0.35 C 10.5,6.35 10.55,6.3 10.6,6.25 10.7,6.05 10.8,5.8 10.85,5.5 10.9,4.95 10.75,4.5 10.3,4.15 10.1,4 10,3.85 10,3.75 10.45,4 10.75,4.3 10.95,4.55 11.65,3.7 11.45,3.15 10.35,2.8 10.25,2.95 9.9,3 9.25,2.95 9.05,2.9 8.85,2.9 8.65,2.85 c 0,0 0,0 0,0.05 C 8.6,2.85 8.55,2.85 8.5,2.8 8.4,2.75 8.3,2.75 8.2,2.7 c 0.05,0 0.05,0 0.1,0 C 6.75,1.7 5.1,0.95 3.3,0.5 2.05,0.25 0.7,0.05 -0.75,-0.15 z"
           inkscape:connector-curvature="0"
           style="fill:#ffffcc" />
      </g>
      <animate
         attributeName="display"
         begin="0s"
         repeatCount="indefinite"
         dur="0.167s"
         keyTimes="0;0.399;0.798;1"
         values="none;inline;none;none"
         id="animate3150" />
    </g>
    <g
       id="sideFootOffside2_0_0">
      <g
         id="element">
        <path
           id="path"
           d="M 1.95,-0.15 Q 1.752,-0.174 1.55,-0.2 C 1.7,-0.25 1.8,-0.25 1.9,-0.3 1.35,-0.35 0.75,-0.35 0.15,-0.35 c -1.4,-0.15 -2.75,0 -4.1,0.35 0.05,-0.05 0.15,-0.05 0.2,-0.1 -0.9,0.05 -1.6,0.4 -2.1,1.15 -1.3,2.05 -1.25,4 0.15,5.8 -0.15,-0.35 -0.3,-0.65 -0.4,-1 0.75,1.05 1.85,1.7 3.25,1.9 1.4,1.05 3.05,1.6 4.9,1.75 C 3,9.55 3.75,9.45 4.3,9.2 4.75,9.65 5.3,9.9 6.05,9.95 7.3,10.1 8.2,9.8 8.7,9.15 9.5,8.6 9.7,7.95 9.25,7.2 9.8,7.25 10.25,7.1 10.6,6.85 10.4,6.9 10.2,6.9 9.95,6.85 9.8,6.85 9.7,6.85 9.55,6.8 l 0.05,0 C 10.25,6.75 10.75,6.65 11.05,6.4 11.5,6.05 11.55,5.5 11.1,4.7 11.25,4.6 11.35,4.45 11.45,4.3 11.8,3.6 11.7,3.05 11.05,2.7 11,2.65 10.9,2.65 10.85,2.6 c -0.05,0 -0.05,0 -0.1,0 C 9.95,2.35 9.2,2.4 8.45,2.65 8.2,2.3 7.9,2 7.45,1.75 6.3,1.1 5.15,0.6 3.9,0.15 3.25,0 2.6,-0.1 1.95,-0.15 z M -3.8,0.05 C -4.35,0.25 -4.85,0.5 -5.3,0.85 -5.05,0.55 -4.7,0.3 -4.25,0.1 -4.1,0.05 -3.95,0.05 -3.8,0.05 z"
           inkscape:connector-curvature="0"
           style="fill:#663300" />
        <path
           id="path5"
           d="m 10.95,4.45 0.05,0 C 11.05,4.4 11.05,4.4 11.05,4.35 11.3,3.9 11.3,3.55 11.05,3.3 10.8,2.95 10.2,2.8 9.35,2.8 9.05,2.8 8.75,2.75 8.5,2.7 8.55,2.75 8.6,2.85 8.65,2.95 6.95,1.75 4.95,0.9 2.7,0.35 1.2,0.15 -0.35,0 -1.9,-0.05 c -0.1,0 -0.2,0 -0.25,0 -1.15,0.15 -2.2,0.45 -3.2,0.9 -0.85,0.8 -1.2,1.9 -1.05,3.35 0,0.05 0,0.05 0,0.1 l 0,-0.025 0,0.075 0.025,0.275 0.025,0.025 c 0,0.2 0.05,0.4 0.1,0.6 C -5.8,6.1 -5,6.7 -3.9,7 c 0.55,0.15 1,0.4 1.35,0.75 C -1.2,8.4 0.25,8.85 1.8,9 2.55,9.05 3.35,9.05 4.15,9 L 4.125,8.975 4.1,8.95 C 4.1,8.95 4.15,9 4.15,9 4.35,8.95 4.55,8.95 4.7,8.9 4.6,8.95 4.5,9.05 4.45,9.1 5.8,9.65 7.1,9.55 8.3,8.9 8.45,8.75 8.6,8.6 8.75,8.45 8.95,8.2 9.1,8 9.15,7.8 9.1,7.7 9.1,7.6 9.05,7.55 9,7.4 8.9,7.25 8.85,7.1 L 8.8,7.1 C 8.45,7.05 8.25,6.85 8.2,6.6 8.3,6.65 8.4,6.65 8.55,6.65 8.35,6.6 8.15,6.5 7.95,6.35 8,6.35 8.05,6.35 8.1,6.4 8.05,6.35 7.95,6.3 7.9,6.25 8.1,6.3 8.3,6.35 8.5,6.4 8.45,6.3 8.4,6.2 8.35,6.15 l 0.05,0 C 8.5,6.2 8.6,6.3 8.65,6.4 9.2,6.45 9.7,6.35 10.25,6.15 10.85,5.95 11,5.55 10.7,4.95 10.5,4.5 10.35,4.2 10.3,4.05 l 0.1,0 c 0.15,0.15 0.25,0.3 0.4,0.45 0.05,-0.05 0.1,-0.05 0.15,-0.05 z"
           inkscape:connector-curvature="0"
           style="fill:#ffffcc" />
      </g>
      <animate
         attributeName="display"
         begin="0s"
         repeatCount="indefinite"
         dur="0.167s"
         keyTimes="0;0.399;1"
         values="inline;none;none"
         id="animate3156" />
    </g>
  </g>
</svg>
