<?xml version="1.0" encoding="UTF-8" standalone="no"?>
<!-- Generator: flash2svg, http://dissentgraphics.com/tools/flash2svg -->

<svg
   xmlns:dc="http://purl.org/dc/elements/1.1/"
   xmlns:cc="http://creativecommons.org/ns#"
   xmlns:rdf="http://www.w3.org/1999/02/22-rdf-syntax-ns#"
   xmlns:svg="http://www.w3.org/2000/svg"
   xmlns="http://www.w3.org/2000/svg"
   xmlns:sodipodi="http://sodipodi.sourceforge.net/DTD/sodipodi-0.dtd"
   xmlns:inkscape="http://www.inkscape.org/namespaces/inkscape"
   id="Avatar"
   image-rendering="auto"
   version="1.1"
   x="0px"
   y="0px"
   width="7.7328429"
   height="17.336737"
   viewBox="0 0 7.7328429 17.336737"
   inkscape:version="0.48.4 r9939"
   sodipodi:docname="Avatar_sideArmLowerClose2.svg">
  <metadata
     id="metadata27">
    <rdf:RDF>
      <cc:Work
         rdf:about="">
        <dc:format>image/svg+xml</dc:format>
        <dc:type
           rdf:resource="http://purl.org/dc/dcmitype/StillImage" />
      </cc:Work>
    </rdf:RDF>
  </metadata>
  <sodipodi:namedview
     pagecolor="#ffffff"
     bordercolor="#666666"
     borderopacity="1"
     objecttolerance="10"
     gridtolerance="10"
     guidetolerance="10"
     inkscape:pageopacity="0"
     inkscape:pageshadow="2"
     inkscape:window-width="640"
     inkscape:window-height="480"
     id="namedview25"
     showgrid="false"
     fit-margin-top="0"
     fit-margin-left="0"
     fit-margin-right="0"
     fit-margin-bottom="0"
     inkscape:zoom="1.8730159"
     inkscape:cx="38.632843"
     inkscape:cy="-47.225763"
     inkscape:window-x="0"
     inkscape:window-y="0"
     inkscape:window-maximized="0"
     inkscape:current-layer="Avatar" />
  <defs
     id="defs3" />
  <g
     id="sideArmLowerClose3"
     overflow="visible"
     style="overflow:visible"
     transform="translate(4.6328427,1.5625)">
    <g
       id="sideArmLowerClose2_4">
      <g
         id="element2">
        <path
           id="path8"
           d="M -0.425,-1.125 Q -0.357,-1.188 -0.3,-1.25 L -0.35,-1.3 c -0.8,0.55 -1.35,1.2 -1.7,1.95 0,-0.05 0,-0.15 0.05,-0.2 l -0.05,0 C -2.95,1.7 -3.45,3.05 -3.6,4.5 -3.8,5.35 -3.9,6.15 -3.95,7 -4.2,7.85 -4.3,8.8 -4.3,9.75 c -0.1,0.5 -0.15,1 -0.1,1.5 -0.05,0 -0.1,0.05 -0.1,0.2 0.1,0.95 0.4,1.8 0.85,2.45 0,0 0,0 0.05,0.05 -0.05,-0.1 -0.05,-0.2 -0.05,-0.3 -0.15,-0.15 -0.2,-0.35 -0.1,-0.6 0.05,0.15 0.15,0.3 0.25,0.45 -0.15,-0.15 -0.25,-0.35 -0.3,-0.5 -0.2,-0.75 -0.3,-1.55 -0.3,-2.3 0.15,-1.15 0.25,-2.35 0.4,-3.5 0.2,-1.55 0.45,-3 0.8,-4.4 0.25,-0.7 0.5,-1.35 0.75,-2 -0.1,0.25 -0.2,0.55 -0.25,0.9 L -2.35,1.65 C -1.9,0.85 -1.45,0.15 -0.9,-0.5 -0.45,-0.75 0,-0.95 0.45,-1.05 1.3,-0.35 1.8,0.55 2,1.6 2.05,0.7 1.75,-0.1 1,-0.75 0.85,-0.9 0.65,-1 0.5,-1.05 l -0.025,0 0.05,0 0.025,0 C 1.2,-0.8 1.65,-0.3 1.9,0.45 L 1.875,0.425 1.85,0.4 C 1.9,0.55 1.9,0.65 1.95,0.75 2.2,1.5 2.4,2.25 2.55,2.95 2.6,3.5 2.7,4.05 2.75,4.6 L 2.725,4.575 2.7,4.65 C 2.5,5.9 2.5,7.2 2.65,8.5 2.6,8.8 2.6,9.1 2.6,9.4 2.5,10.2 2.5,11 2.55,11.8 c 0.05,0 0.05,0 0.1,0.05 0.05,0 0.05,0 0.1,0.05 0.05,0.1 0.05,0.2 0.05,0.35 0,-0.75 0,-1.45 0.05,-2.1 0.05,-1 0.1,-2 0.05,-2.95 0,-0.9 0,-1.8 0,-2.65 C 2.95,3.95 2.9,3.35 2.8,2.8 2.75,2.2 2.6,1.6 2.4,1.05 2.3,0.7 2.15,0.4 2,0.1 1.9,-0.35 1.65,-0.75 1.2,-1.1 1.15,-1.15 1.05,-1.15 0.95,-1.2 0.6,-1.35 0.35,-1.4 0.1,-1.25 c -0.2,0 -0.35,0.05 -0.5,0.15 M 2,0.55 c 0.05,0.1 0.1,0.2 0.15,0.35 0,0.05 0,0.05 0,0.1 C 2.1,0.85 2.05,0.75 2,0.6 l -0.025,0 0,-0.05 z"
           inkscape:connector-curvature="0"
           style="fill:#663300" />
        <path
           id="path12"
           d="M 0.5,-1.05 C 0.65,-1 0.85,-0.9 1,-0.75 1.75,-0.1 2.05,0.7 2,1.6 1.8,0.55 1.3,-0.35 0.45,-1.05 0,-0.95 -0.45,-0.75 -0.9,-0.5 -1.45,0.15 -1.9,0.85 -2.35,1.65 L -2.4,1.7 c 0.05,-0.35 0.15,-0.65 0.25,-0.9 -0.25,0.65 -0.5,1.3 -0.75,2 -0.35,1.4 -0.6,2.85 -0.8,4.4 -0.15,1.15 -0.25,2.35 -0.4,3.5 0,0.75 0.1,1.55 0.3,2.3 0.05,0.15 0.15,0.35 0.3,0.5 -0.1,-0.15 -0.2,-0.3 -0.25,-0.45 -0.1,0.25 -0.05,0.45 0.1,0.6 0,0.1 0,0.2 0.05,0.3 0.05,0.1 0.15,0.2 0.2,0.35 l 0,-0.05 c 0.85,1.1 1.85,1.55 3,1.4 0.35,0.05 0.75,0 1.1,-0.15 0.9,-0.15 1.55,-0.7 1.9,-1.7 0,0.05 0,0.1 0,0.15 L 2.65,13.9 C 2.7,13.75 2.7,13.55 2.7,13.4 c 0,-0.1 0,-0.2 0.05,-0.3 0,0.1 0,0.2 0.05,0.3 l 0,-0.05 c 0,-0.35 0,-0.75 0,-1.1 C 2.8,12.1 2.8,12 2.75,11.9 2.7,11.85 2.7,11.85 2.65,11.85 2.6,11.8 2.6,11.8 2.55,11.8 2.5,11 2.5,10.2 2.6,9.4 2.6,9.1 2.6,8.8 2.65,8.5 2.5,7.2 2.5,5.9 2.7,4.65 L 2.725,4.575 2.75,4.6 C 2.7,4.05 2.6,3.5 2.55,2.95 2.4,2.25 2.2,1.5 1.95,0.75 1.9,0.65 1.9,0.55 1.85,0.4 L 1.875,0.425 1.9,0.45 C 1.65,-0.3 1.2,-0.8 0.55,-1.05 l -0.025,0 -0.05,0"
           inkscape:connector-curvature="0"
           style="fill:#ffffcc" />
      </g>
      <animate
         attributeName="display"
         begin="0s"
         repeatCount="indefinite"
         dur="0.167s"
         keyTimes="0;0.798;1"
         values="none;inline;none"
         id="animate10" />
    </g>
    <g
       id="sideArmLowerClose2_2">
      <g
         id="element1">
        <path
           id="path5"
           d="M 1.9,-0.3 Q 1.59,-0.933 0.9,-1.4 C 0.7,-1.45 0.5,-1.5 0.25,-1.45 c -0.3,0.05 -0.55,0.2 -0.7,0.4 -0.8,0.35 -1.35,0.9 -1.65,1.65 -0.05,-0.05 -0.05,-0.05 -0.1,0 -0.55,0.95 -0.95,1.9 -1.1,2.85 -0.1,0.4 -0.2,0.8 -0.3,1.25 -0.15,0.45 -0.25,0.85 -0.3,1.3 l 0,0.05 c -0.35,1.35 -0.5,2.7 -0.45,4.05 -0.05,0 -0.05,0.05 -0.1,0.15 -0.25,1.45 0,2.65 0.7,3.65 -0.05,-0.15 -0.05,-0.25 -0.1,-0.4 -0.05,-0.05 -0.05,-0.15 0,-0.25 0.05,0.05 0.1,0.05 0.15,0.1 -0.05,-0.05 -0.05,-0.15 -0.05,-0.2 0,0.05 0.05,0.15 0.1,0.2 C -3.75,13.2 -3.85,13 -3.9,12.8 -3.95,12 -4,11.2 -4,10.4 -3.95,9.7 -3.9,9 -3.85,8.3 c 0.1,-0.75 0.2,-1.45 0.3,-2.2 0.05,-0.25 0.1,-0.5 0.15,-0.75 0,0.05 0,0.15 0,0.2 0.05,0 0.05,0 0.05,-0.05 0.2,-1.65 0.6,-3.2 1.2,-4.7 -0.15,0.4 -0.25,0.85 -0.25,1.3 0.25,-0.55 0.5,-1.15 0.8,-1.7 0.3,-0.6 0.75,-1 1.35,-1.15 C -0.1,-0.8 0.05,-0.85 0.2,-0.9 1.15,-0.6 1.7,0 1.95,0.85 2,1.05 2.05,1.3 2.05,1.55 2.1,1.9 2.2,2.3 2.35,2.65 l 0,-0.05 c 0,-0.35 0,-0.65 -0.05,-0.95 0.05,0.45 0.15,0.85 0.3,1.3 0,0.5 0.05,1.05 0.15,1.6 -0.1,0.85 -0.1,1.6 0,2.35 C 2.7,7.55 2.65,8.15 2.7,8.8 2.65,8.8 2.65,8.85 2.6,8.9 c -0.1,0.95 -0.1,1.9 0,2.75 0.05,0.25 0.15,0.55 0.3,0.8 -0.05,-0.15 -0.05,-0.25 0,-0.35 0,0.1 0,0.2 0.05,0.35 l 0.05,0 C 3.05,11.3 3.05,10.2 2.95,9.1 c 0,-0.45 0,-0.85 0,-1.25 0,0.05 0,0.15 0.05,0.2 L 3,8 C 2.95,7.2 2.95,6.4 2.95,5.65 2.95,5.7 2.95,5.8 3,5.85 L 3,5.8 C 3.05,5.15 3,4.45 2.9,3.8 2.95,3.9 2.95,4 3,4.05 L 3,4 C 2.85,2.85 2.6,1.7 2.25,0.6 2.2,0.6 2.2,0.6 2.15,0.6 2.1,0.25 2.05,-0.05 1.9,-0.3 z"
           inkscape:connector-curvature="0"
           style="fill:#663300" />
        <path
           id="path6"
           d="m 0.2,-0.9 c -0.15,0.05 -0.3,0.1 -0.45,0.15 -0.6,0.15 -1.05,0.55 -1.35,1.15 -0.3,0.55 -0.55,1.15 -0.8,1.7 0,-0.45 0.1,-0.9 0.25,-1.3 -0.6,1.5 -1,3.05 -1.2,4.7 0,0.05 0,0.05 -0.05,0.05 0,-0.05 0,-0.15 0,-0.2 -0.05,0.25 -0.1,0.5 -0.15,0.75 -0.1,0.75 -0.2,1.45 -0.3,2.2 -0.05,0.7 -0.1,1.4 -0.15,2.1 0,0.8 0.05,1.6 0.1,2.4 0.05,0.2 0.15,0.4 0.25,0.55 -0.05,-0.05 -0.1,-0.15 -0.1,-0.2 0,0.05 0,0.15 0.05,0.2 -0.05,-0.05 -0.1,-0.05 -0.15,-0.1 -0.05,0.1 -0.05,0.2 0,0.25 0.05,0.15 0.05,0.25 0.1,0.4 0.25,0.35 0.65,0.7 1.1,1.05 l -0.025,0 0.025,0 c 0.05,0 0.05,0 0.05,0.05 0.05,0.05 0.1,0.05 0.15,0.1 -0.05,-0.05 -0.05,-0.05 -0.05,-0.05 0.9,0.65 1.95,0.85 3.1,0.65 -0.05,-0.05 -0.15,-0.05 -0.2,-0.05 -0.05,0 -0.15,0 -0.2,0 0.75,-0.05 1.35,-0.4 1.8,-1 0.5,-0.45 0.75,-1 0.8,-1.7 0,0.05 0,0.15 0.05,0.25 l 0,-0.05 c 0,-0.05 0,-0.05 0,-0.05 0,-0.25 0,-0.45 0.05,-0.65 C 2.75,12.2 2.65,11.9 2.6,11.65 2.5,10.8 2.5,9.85 2.6,8.9 2.65,8.85 2.65,8.8 2.7,8.8 2.65,8.15 2.7,7.55 2.75,6.9 2.65,6.15 2.65,5.4 2.75,4.55 2.65,4 2.6,3.45 2.6,2.95 2.45,2.5 2.35,2.1 2.3,1.65 2.35,1.95 2.35,2.25 2.35,2.6 l 0,0.05 C 2.2,2.3 2.1,1.9 2.05,1.55 2.05,1.3 2,1.05 1.95,0.85 1.7,0 1.15,-0.6 0.2,-0.9 z"
           inkscape:connector-curvature="0"
           style="fill:#ffffcc" />
        <path
           id="path7"
           d="m -2.6,15 c 0,-0.05 0,-0.05 -0.05,-0.05 l -0.025,0"
           inkscape:connector-curvature="0"
           style="fill:#663300" />
      </g>
      <animate
         attributeName="display"
         begin="0s"
         repeatCount="indefinite"
         dur="0.167s"
         keyTimes="0;0.399;0.798;1"
         values="none;inline;none;none"
         id="animate17" />
    </g>
    <g
       id="sideArmLowerClose2_0">
      <g
         id="element">
        <path
           id="path"
           d="M 0.8,-1.45 Q 0.6,-1.6 0.3,-1.55 c -0.2,0.05 -0.4,0.1 -0.55,0.2 -0.25,0.05 -0.45,0.15 -0.6,0.3 -0.45,0.45 -0.8,0.9 -1.05,1.4 0.05,-0.15 0.15,-0.3 0.2,-0.45 -0.35,0.35 -0.65,0.75 -0.9,1.25 -0.35,0.75 -0.6,1.6 -0.75,2.45 0,-0.15 0,-0.35 0,-0.55 l -0.05,0 c -0.2,0.7 -0.35,1.4 -0.4,2.1 -0.15,0.25 -0.3,0.5 -0.35,0.85 -0.15,0.65 -0.25,1.35 -0.2,2 0,0.1 0,0.2 0,0.25 -0.1,0.7 -0.15,1.4 -0.1,2.05 -0.05,0.15 -0.1,0.25 -0.15,0.4 0.05,0.1 0.1,0.2 0.05,0.35 -0.1,0.25 -0.1,0.5 -0.05,0.75 0.05,0.3 0.15,0.55 0.3,0.75 0.05,0 0.05,0 0.05,-0.05 0,-0.05 0,-0.05 0,-0.1 0.05,0.15 0.1,0.3 0.15,0.45 0.05,0.1 0.05,0.2 0.1,0.25 0,-0.05 0,-0.15 0,-0.25 0,-0.15 0.05,-0.3 0.15,-0.35 C -3.9,12.45 -3.9,12.45 -3.9,12.4 -3.95,12.2 -3.95,12 -4,11.75 -4.05,11.4 -4.1,11 -4.1,10.65 c 0,-0.1 0,-0.2 0,-0.3 0.1,-0.35 0.15,-0.75 0.15,-1.2 0,-0.7 0,-1.4 0.05,-2.1 0,-0.15 0,-0.25 0.05,-0.35 0,0 0,0 0,-0.05 C -3.8,6.5 -3.8,6.35 -3.75,6.2 -3.7,6.15 -3.7,6.1 -3.7,6.05 -3.65,5.7 -3.55,5.4 -3.4,5.05 -3.3,4.75 -3.2,4.45 -3.1,4.15 -3.05,4.1 -3.05,4.05 -3.05,4 -3.1,3.85 -3.1,3.65 -3.05,3.5 -2.9,2.95 -2.7,2.45 -2.55,1.9 -2.5,1.75 -2.45,1.6 -2.4,1.45 -2.35,1.4 -2.35,1.35 -2.3,1.3 -2.4,1.65 -2.4,1.95 -2.35,2.3 -2.2,2 -2.1,1.7 -1.95,1.4 c 0.25,-0.55 0.55,-1.1 0.8,-1.6 0.15,-0.2 0.3,-0.4 0.45,-0.55 0.05,-0.05 0.15,-0.1 0.3,-0.15 0.15,-0.05 0.3,-0.15 0.4,-0.3 -0.15,0 -0.25,0.05 -0.35,0.15 -0.05,0.1 -0.15,0.15 -0.25,0.2 0.1,-0.15 0.2,-0.25 0.35,-0.35 l 0.05,0 c 0.2,-0.05 0.35,0 0.5,0.1 0.8,0.45 1.3,1.05 1.5,1.9 0,-0.05 0,-0.15 0.05,-0.2 C 1.9,0.7 1.9,0.8 1.95,0.95 2.2,1.55 2.4,2.15 2.45,2.8 2.5,3.6 2.6,4.35 2.7,5.1 2.7,5.35 2.7,5.6 2.65,5.85 2.6,6.2 2.55,6.5 2.45,6.8 2.55,7.2 2.6,7.6 2.6,8 2.55,8.55 2.5,9.05 2.45,9.6 2.4,10.1 2.45,10.55 2.5,11 2.55,10.95 2.55,10.9 2.6,10.85 l 0,-0.025 0,0.025 c 0,0.2 0,0.4 0,0.6 0.05,-0.05 0.1,0.25 0.2,1 0,-0.5 0.05,-0.65 0.1,-0.4 C 2.85,11.7 2.85,11.3 2.9,10.95 2.95,10.3 2.95,9.7 2.9,9.05 2.95,8.8 2.95,8.6 2.95,8.35 3,8.5 3,8.6 3.05,8.75 L 3.1,8.7 C 3.05,7.5 3,6.3 3,5.1 3.2,3.1 2.8,1.25 1.75,-0.5 c 0,0.05 0,0.05 -0.05,0.1 C 1.55,-0.85 1.25,-1.2 0.8,-1.45 z m -4.475,15.275 0.025,0.025 c -0.25,-0.4 -0.45,-0.8 -0.6,-1.25 -0.05,0.2 0,0.5 0.2,0.85 0.15,0.3 0.3,0.6 0.5,0.85 C -3.6,14.15 -3.6,14 -3.65,13.85 z"
           inkscape:connector-curvature="0"
           style="fill:#663300" />
        <path
           id="path1"
           d="M 2.65,5.85 C 2.7,5.6 2.7,5.35 2.7,5.1 2.6,4.35 2.5,3.6 2.45,2.8 2.4,2.15 2.2,1.55 1.95,0.95 1.9,0.8 1.9,0.7 1.85,0.6 1.8,0.65 1.8,0.75 1.8,0.8 1.6,-0.05 1.1,-0.65 0.3,-1.1 0.15,-1.2 0,-1.25 -0.2,-1.2 l -0.05,0 c -0.15,0.1 -0.25,0.2 -0.35,0.35 0.1,-0.05 0.2,-0.1 0.25,-0.2 0.1,-0.1 0.2,-0.15 0.35,-0.15 -0.1,0.15 -0.25,0.25 -0.4,0.3 -0.15,0.05 -0.25,0.1 -0.3,0.15 C -0.85,-0.6 -1,-0.4 -1.15,-0.2 -1.4,0.3 -1.7,0.85 -1.95,1.4 -2.1,1.7 -2.2,2 -2.35,2.3 -2.4,1.95 -2.4,1.65 -2.3,1.3 -2.35,1.35 -2.35,1.4 -2.4,1.45 -2.45,1.6 -2.5,1.75 -2.55,1.9 -2.7,2.45 -2.9,2.95 -3.05,3.5 c -0.05,0.15 -0.05,0.35 0,0.5 0,0.05 0,0.1 -0.05,0.15 -0.1,0.3 -0.2,0.6 -0.3,0.9 -0.15,0.35 -0.25,0.65 -0.3,1 0,0.05 0,0.1 -0.05,0.15 -0.05,0.15 -0.05,0.3 -0.1,0.45 0,0.05 0,0.05 0,0.05 -0.05,0.1 -0.05,0.2 -0.05,0.35 -0.05,0.7 -0.05,1.4 -0.05,2.1 0,0.45 -0.05,0.85 -0.15,1.2 0,0.1 0,0.2 0,0.3 0,0.35 0.05,0.75 0.1,1.1 0.05,0.25 0.05,0.45 0.1,0.65 0,0.05 0,0.05 0.05,0.1 -0.1,0.05 -0.15,0.2 -0.15,0.35 0,0.1 0,0.2 0,0.25 0.1,0.25 0.2,0.45 0.35,0.65 0,0.05 0,0.05 0,0.1 l -0.025,-0.025 0.025,0.025 c 0.05,0.15 0.05,0.3 0.1,0.45 l -0.025,0 0,0.025 0.025,0.025 c 0,0 0,0 0.05,0.05 l -0.025,0 0.025,0.025 0,0.025 c 0.15,0.4 0.35,0.75 0.6,1.1 0.05,-0.15 0.05,-0.25 0.05,-0.4 0.3,0.25 0.65,0.4 1.05,0.45 -0.05,-0.1 -0.1,-0.2 -0.15,-0.25 0.35,0.15 0.7,0.3 1.1,0.4 0.05,-0.05 0.05,-0.05 0.1,-0.05 0.05,-0.05 0.1,-0.05 0.15,-0.05 0.25,0.05 0.55,0.05 0.85,0 C 0.9,15.6 1.5,15.4 2.05,14.95 2.1,14.9 2.15,14.8 2.2,14.75 2.25,14.7 2.3,14.6 2.35,14.55 2.4,14.5 2.4,14.4 2.45,14.35 c 0,-0.05 0,-0.15 0.05,-0.2 0.05,-0.1 0.05,-0.2 0.1,-0.35 0,-0.05 0,-0.05 0.05,-0.05 0.2,-0.25 0.3,-0.55 0.25,-0.9 0,-0.25 0,-0.55 0,-0.8 -0.05,-0.25 -0.1,-0.1 -0.1,0.4 -0.1,-0.75 -0.15,-1.05 -0.2,-1 0,-0.2 0,-0.4 0,-0.6 l 0,-0.025 0,0.025 C 2.55,10.9 2.55,10.95 2.5,11 2.45,10.55 2.4,10.1 2.45,9.6 2.5,9.05 2.55,8.55 2.6,8 2.6,7.6 2.55,7.2 2.45,6.8 2.55,6.5 2.6,6.2 2.65,5.85 z"
           inkscape:connector-curvature="0"
           style="fill:#ffffcc" />
      </g>
      <animate
         attributeName="display"
         begin="0s"
         repeatCount="indefinite"
         dur="0.167s"
         keyTimes="0;0.399;1"
         values="inline;none;none"
         id="animate23" />
    </g>
  </g>
</svg>
