<?xml version="1.0" encoding="utf-8"?>
<!-- Generator: flash2svg, http://dissentgraphics.com/tools/flash2svg -->
<svg xmlns:xlink="http://www.w3.org/1999/xlink" id="Avatar" image-rendering="auto" baseProfile="basic" version="1.1" x="0px" y="0px" width="68" height="126" xmlns="http://www.w3.org/2000/svg" viewBox="0 0 68 126">
  <defs/>
  <g id="sideArmLowerOffside3" overflow="visible">
    <g id="sideArmLowerOffside2_4">
      <g id="element2">
        <path id="path7" fill="#630" d="M0.725,-0.725 Q0.542,-1.022 0.15,-1.1 C-0.5,-1.25 -1.05,-1.05 -1.5,-0.45 -1.75,-0.1 -1.95,0.25 -2.15,0.6 -2.45,1.25 -2.6,1.85 -2.65,2.4 L-2.625,2.375 L-2.6,2.4 C-2.75,2.95 -2.85,3.5 -2.85,4.1 -2.85,4.65 -2.85,5.15 -2.8,5.65 -2.8,5.55 -2.8,5.45 -2.85,5.35 -2.85,6.7 -2.8,8.1 -2.7,9.45 -2.6,10.5 -2.3,11.35 -1.8,12 -1.75,12.3 -1.55,12.55 -1.2,12.8 0.05,13.6 1.35,13.8 2.75,13.4 2.7,13.4 2.6,13.4 2.55,13.35 3,13.4 3.4,13.2 3.85,12.85 5.05,11.85 5.4,10.8 4.95,9.7 4.8,9 4.65,8.3 4.45,7.55 4,5.9 3.55,4.25 3.15,2.6 3.15,2.75 3.15,2.85 3.2,3 3.15,2.75 3.05,2.45 2.95,2.15 2.5,0.9 1.8,-0.05 0.75,-0.7"/>
        <path id="path8" fill="#FFC" d="M3.4,5.15 C3.35,4.7 3.3,4.2 3.25,3.75 2.8,2.65 2.2,1.6 1.45,0.65 1.15,0.25 0.9,-0.15 0.7,-0.6 -0.6,-1.05 -1.5,-0.45 -1.95,1.2 -2.05,1.55 -2.2,1.8 -2.35,2.05 -2.65,3.5 -2.65,5.1 -2.4,6.85 -2.3,7.55 -2.25,8.3 -2.2,9.05 -2.15,9.5 -2.05,10 -1.95,10.5 -1.8,11.2 -1.55,11.9 -1.2,12.55 -0.55,13.05 0.25,13.3 1.2,13.25 1.45,13.25 1.75,13.25 2,13.3 L2,13.275 L2,13.25 C3.85,13 4.7,11.95 4.55,10.15 4.55,9.8 4.5,9.4 4.35,9.05 4.35,9 4.35,8.9 4.4,8.85 L4.475,8.85 L4.5,8.85 C3.95,7.7 3.55,6.5 3.4,5.15z"/>
      </g>
      <animate attributeName="display" begin="0s" repeatCount="indefinite" dur="0.167s" keyTimes="0;0.798;1" values="none;inline;none"/>
    </g>
    <g id="sideArmLowerOffside2_2">
      <g id="element1">
        <path id="path3" fill="#630" d="M-0.3,-1.1 Q-0.95,-0.9 -1.5,-0.45 C-1.95,0.15 -2.3,0.8 -2.55,1.45 -2.8,2.15 -2.9,2.85 -2.85,3.5 -3,4.2 -3.05,4.95 -2.9,5.7 -2.8,6.25 -2.75,6.85 -2.7,7.4 -2.8,7.05 -2.9,6.65 -2.95,6.3 -2.9,7.05 -2.8,7.85 -2.7,8.65 -2.7,9.15 -2.65,9.6 -2.5,9.95 -2.45,10.2 -2.45,10.5 -2.4,10.75 -2.1,12.5 -1.15,13.5 0.4,13.75 0.4,13.65 0.35,13.6 0.3,13.6 0.15,13.55 0,13.45 -0.15,13.4 0.5,13.75 1.25,13.8 2.1,13.55 2.85,13.35 3.4,13.05 3.85,12.7 4.1,12.55 4.3,12.35 4.45,12.1 4.85,11.55 5,10.9 4.9,10.15 5,9.4 4.9,8.55 4.65,7.7 4.05,5.75 3.4,3.9 2.75,2.05 2.7,1.8 2.6,1.5 2.5,1.2 2.05,0 1.3,-0.75 0.15,-1 0.05,-1.15 -0.1,-1.2 -0.3,-1.1z M-2.3,1.85 C-2,0.35 -1.25,-0.55 -0.05,-0.85 0.4,-0.65 0.75,-0.35 1.05,0 1.65,0.65 2.15,1.4 2.55,2.2 2.7,2.7 2.85,3.2 3,3.7 3.65,5.75 4.2,7.9 4.6,10.1 4.55,10.4 4.45,10.75 4.4,11.1 4.35,11.35 4.3,11.55 4.15,11.7 2.9,13.4 1.3,13.85 -0.6,13.1 -0.95,12.85 -1.25,12.45 -1.4,12 -1.75,10.9 -2.1,9.8 -2.35,8.75 -2.4,8.65 -2.4,8.55 -2.4,8.45 -2.5,6.7 -2.6,5.05 -2.65,3.5 -2.55,2.95 -2.45,2.4 -2.3,1.85z"/>
        <path id="path4" fill="#FFC" d="M-2.3,1.85 C-2.45,2.4 -2.55,2.95 -2.65,3.5 -2.6,5.05 -2.5,6.7 -2.4,8.45 -2.4,8.55 -2.4,8.65 -2.35,8.75 -2.1,9.8 -1.75,10.9 -1.4,12 -1.25,12.45 -0.95,12.85 -0.6,13.1 1.3,13.85 2.9,13.4 4.15,11.7 4.3,11.55 4.35,11.35 4.4,11.1 4.45,10.75 4.55,10.4 4.6,10.1 4.2,7.9 3.65,5.75 3,3.7 2.85,3.2 2.7,2.7 2.55,2.2 2.15,1.4 1.65,0.65 1.05,0 0.75,-0.35 0.4,-0.65 -0.05,-0.85 -1.25,-0.55 -2,0.35 -2.3,1.85z"/>
      </g>
      <animate attributeName="display" begin="0s" repeatCount="indefinite" dur="0.167s" keyTimes="0;0.399;0.798;1" values="none;inline;none;none"/>
    </g>
    <g id="sideArmLowerOffside2_0">
      <g id="element">
        <path id="path" fill="#630" d="M-0.05,-1.1 Q-0.9,-1 -1.55,-0.45 C-1.6,-0.4 -1.65,-0.3 -1.7,-0.2 -2.4,0.7 -2.8,1.7 -2.85,2.85 -2.85,3.1 -2.85,3.35 -2.85,3.6 -2.9,3.75 -2.9,3.95 -2.95,4.1 -3.05,4.65 -3.1,5.25 -3.05,5.8 -3,6.9 -2.9,7.95 -2.65,9 -2.75,9.65 -2.65,10.35 -2.4,11.05 -1.75,12.85 -0.5,13.75 1.35,13.8 1.4,13.7 1.4,13.65 1.25,13.6 1.7,13.7 2.2,13.65 2.75,13.45 4.6,12.75 5.35,11.6 4.9,10 4.85,9.55 4.75,9.15 4.6,8.8 4.5,8.15 4.35,7.5 4.15,6.85 3.8,5.8 3.55,4.65 3.4,3.5 3.25,2.25 2.85,1.25 2.1,0.45 2.1,0.2 2,-0.05 1.85,-0.25 1.5,-0.65 1,-0.9 0.45,-0.95 0.3,-1.05 0.15,-1.1 -0.05,-1.1z"/>
        <path id="path1" fill="#FFC" d="M0.75,-0.4 C0.55,-0.5 0.35,-0.65 0.2,-0.8 -0.65,-0.65 -1.3,-0.3 -1.8,0.35 -2.15,0.95 -2.4,1.6 -2.55,2.3 L-2.575,2.3 L-2.55,2.3 C-2.6,2.85 -2.65,3.4 -2.65,3.95 -2.65,4.2 -2.65,4.4 -2.6,4.6 -2.45,5.55 -2.35,6.45 -2.4,7.35 -2.5,7 -2.55,6.7 -2.6,6.4 -2.55,7.15 -2.5,7.85 -2.35,8.6 -2.2,9.55 -2,10.45 -1.75,11.4 -1.5,11.95 -1.1,12.4 -0.55,12.7 -0.05,12.95 0.65,13.2 1.55,13.35 2.4,13.5 3.4,12.8 4.5,11.35 4.55,10.9 4.6,10.5 4.6,10.1 4.6,10.05 4.6,10 4.6,9.95 3.85,7.4 3.2,4.85 2.55,2.25 2.3,1.35 1.95,0.6 1.4,0 1.2,-0.15 1,-0.3 0.75,-0.4z"/>
      </g>
      <animate attributeName="display" begin="0s" repeatCount="indefinite" dur="0.167s" keyTimes="0;0.399;1" values="inline;none;none"/>
    </g>
  </g>
</svg>