<?xml version="1.0" encoding="utf-8"?>
<!-- Generator: flash2svg, http://dissentgraphics.com/tools/flash2svg -->
<svg xmlns:xlink="http://www.w3.org/1999/xlink" id="Avatar" image-rendering="auto" baseProfile="basic" version="1.1" x="0px" y="0px" width="68" height="126" xmlns="http://www.w3.org/2000/svg" viewBox="0 0 68 126">
  <defs/>
  <g id="sideHandClose3" overflow="visible">
    <g id="sideHandClose2_4">
      <g id="element2">
        <path id="path87" fill="none" stroke="#630" stroke-width="1" stroke-linecap="round" stroke-linejoin="round" vector-effect="non-scaling-stroke" d="M2.15,-1.25 C2.3,-1.15 2.5,-1.05 2.7,-0.95 3.25,-0.6 3.6,-0.1 3.75,0.5 3.8,0.65 3.8,0.8 3.85,0.95 3.9,1.1 4,1.3 4.05,1.5 4.2,1.75 4.35,2 4.55,2.25 4.6,2.25 4.65,2.25 4.7,2.3 L4.75,2.35 C5.8,3.05 6,3.8 5.3,4.6 5.15,4.75 4.9,4.85 4.65,4.9 4.4,4.9 4.15,4.9 3.95,4.85 4.5,5.6 4.95,6.35 5.35,7.1 5.45,7.35 5.45,7.55 5.35,7.8 5.3,7.9 5.2,8.1 5.05,8.35 4.9,8.6 4.6,8.75 4.2,8.8 3.8,8.85 3.5,8.85 3.35,8.75 3.6,9.15 3.65,9.5 3.5,9.75 3.45,10.3 3,10.6 2.15,10.55 1.6,10.5 1.1,10.3 0.75,9.85 0.7,10.2 0.45,10.4 -0.05,10.45 -0.25,10.45 -0.45,10.4 -0.65,10.35 -0.5,10.3 -0.4,10.3 -0.25,10.25 -0.9,10.35 -1.55,9.95 -2.1,9 -2.2,8.85 -2.3,8.7 -2.35,8.55 M-2.35,8.525 L-2.35,8.5 C-3,7.55 -3.4,6.45 -3.55,5.2 -3.6,4.7 -3.6,4.3 -3.55,4"/>
        <path id="path88" fill="#630" d="M-3.35,-0.05 Q-3.329,-0.254 -3.275,-0.475 L-3.25,-0.45 C-3.55,0 -3.75,0.5 -3.85,1.15 -3.9,1.4 -3.9,1.7 -3.95,1.95 -4,3 -3.95,4.05 -3.7,5 -3.65,4.7 -3.65,4.4 -3.6,4.05 -3.55,3.55 -3.6,3.05 -3.65,2.6 -3.8,1.55 -3.65,0.65 -3.25,-0.1 L-3.35,-0.05z M2.7,-0.95 C2.5,-1.05 2.3,-1.15 2.15,-1.25 2.3,-1.2 2.45,-1.1 2.6,-1 2.75,-0.85 2.8,-0.7 2.85,-0.5 2.8,-0.55 2.7,-0.55 2.6,-0.6 2.85,-0.35 3.1,-0.1 3.3,0.2 3.3,0.35 3.3,0.45 3.35,0.6 3.45,1.25 3.7,1.75 4.15,2.05 4.2,2.1 4.2,2.1 4.25,2.1 4.7,2.55 5.1,3 5.45,3.55 5.55,3.7 5.55,3.9 5.4,4.05 4.9,4.6 4.3,4.75 3.65,4.45 3.4,4.35 3.2,4.2 2.95,4 3.15,4.35 3.4,4.6 3.7,4.75 3.8,5.3 4.1,5.8 4.65,6.3 4.75,6.4 4.85,6.5 4.9,6.6 5.25,7.65 4.9,8.25 3.9,8.45 3.3,8.4 3,8.25 3,8.1 2.95,8.2 2.95,8.3 2.95,8.4 3,8.45 3.05,8.5 3.1,8.55 3.1,8.65 3.1,8.75 3.15,8.9 3.4,10 2.85,10.35 1.6,9.95 1.65,10 1.7,10.1 1.75,10.15 1.15,10 0.75,9.6 0.5,9.05 0.55,9.15 0.6,9.25 0.65,9.35 0.55,9.3 0.45,9.3 0.4,9.25 0.45,9.35 0.5,9.45 0.55,9.55 0.45,9.5 0.35,9.55 0.3,9.65 0.25,9.8 0.15,9.9 0.05,10 -0.25,10.05 -0.5,10 -0.75,9.8 -1.4,9.25 -1.95,8.6 -2.4,7.95 -2.45,7.65 -2.55,7.35 -2.65,7.1 -3,6.05 -3.25,4.95 -3.5,3.85 -3.5,3.9 -3.5,3.95 -3.55,4 -3.6,4.3 -3.6,4.7 -3.55,5.2 -3.4,6.45 -3,7.55 -2.35,8.5 L-2.35,8.525 L-2.35,8.55 C-2.3,8.7 -2.2,8.85 -2.1,9 -1.55,9.95 -0.9,10.35 -0.25,10.25 -0.4,10.3 -0.5,10.3 -0.65,10.35 -0.45,10.4 -0.25,10.45 -0.05,10.45 0.45,10.4 0.7,10.2 0.75,9.85 1.1,10.3 1.6,10.5 2.15,10.55 3,10.6 3.45,10.3 3.5,9.75 3.65,9.5 3.6,9.15 3.35,8.75 3.5,8.85 3.8,8.85 4.2,8.8 4.6,8.75 4.9,8.6 5.05,8.35 5.2,8.1 5.3,7.9 5.35,7.8 5.45,7.55 5.45,7.35 5.35,7.1 4.95,6.35 4.5,5.6 3.95,4.85 4.15,4.9 4.4,4.9 4.65,4.9 4.9,4.85 5.15,4.75 5.3,4.6 6,3.8 5.8,3.05 4.75,2.35 L4.7,2.3 C4.65,2.25 4.6,2.25 4.55,2.25 4.35,2 4.2,1.75 4.05,1.5 4,1.3 3.9,1.1 3.85,0.95 3.8,0.8 3.8,0.65 3.75,0.5 3.6,-0.1 3.25,-0.6 2.7,-0.95z"/>
        <path id="path89" fill="none" stroke="#630" stroke-width="1" stroke-linecap="round" stroke-linejoin="round" vector-effect="non-scaling-stroke" d="M-3.6,4.05 C-3.55,3.55 -3.6,3.05 -3.65,2.6 -3.8,1.55 -3.65,0.65 -3.25,-0.1 L-3.35,-0.05 Q-3.329,-0.254 -3.275,-0.475"/>
        <path id="path90" fill="#FFC" d="M-3.275,-0.475 Q-3.329,-0.254 -3.35,-0.05 L-3.25,-0.1 C-3.65,0.65 -3.8,1.55 -3.65,2.6 -3.6,3.05 -3.55,3.55 -3.6,4.05 L-3.55,4 C-3.5,3.95 -3.5,3.9 -3.5,3.85 -3.25,4.95 -3,6.05 -2.65,7.1 -2.55,7.35 -2.45,7.65 -2.4,7.95 -1.95,8.6 -1.4,9.25 -0.75,9.8 -0.5,10 -0.25,10.05 0.05,10 0.15,9.9 0.25,9.8 0.3,9.65 0.35,9.55 0.45,9.5 0.55,9.55 0.5,9.45 0.45,9.35 0.4,9.25 0.45,9.3 0.55,9.3 0.65,9.35 0.6,9.25 0.55,9.15 0.5,9.05 0.75,9.6 1.15,10 1.75,10.15 1.7,10.1 1.65,10 1.6,9.95 2.85,10.35 3.4,10 3.15,8.9 3.1,8.75 3.1,8.65 3.1,8.55 3.05,8.5 3,8.45 2.95,8.4 2.95,8.3 2.95,8.2 3,8.1 3,8.25 3.3,8.4 3.9,8.45 4.9,8.25 5.25,7.65 4.9,6.6 4.85,6.5 4.75,6.4 4.65,6.3 4.1,5.8 3.8,5.3 3.7,4.75 3.4,4.6 3.15,4.35 2.95,4 3.2,4.2 3.4,4.35 3.65,4.45 4.3,4.75 4.9,4.6 5.4,4.05 5.55,3.9 5.55,3.7 5.45,3.55 5.1,3 4.7,2.55 4.25,2.1 4.2,2.1 4.2,2.1 4.15,2.05 3.7,1.75 3.45,1.25 3.35,0.6 3.3,0.45 3.3,0.35 3.3,0.2 3.1,-0.1 2.85,-0.35 2.6,-0.6 2.7,-0.55 2.8,-0.55 2.85,-0.5 2.8,-0.7 2.75,-0.85 2.6,-1 2.45,-1.1 2.3,-1.2 2.15,-1.25 L1.35,-1.575 L1.35,-1.55 C1.3,-1.6 1.2,-1.6 1.15,-1.65 1,-1.7 0.9,-1.7 0.75,-1.75 0.4,-1.85 0.05,-1.9 -0.3,-1.85 L-0.3,-1.875 L-0.3,-1.85 C-0.35,-1.9 -0.35,-1.9 -0.35,-1.85 -0.6,-1.85 -0.8,-1.8 -1.05,-1.75 -1.05,-1.75 -1,-1.75 -0.95,-1.75 -1.15,-1.75 -1.35,-1.7 -1.5,-1.65 -1.45,-1.7 -1.4,-1.7 -1.35,-1.75 -2.2,-1.55 -2.85,-1.1 -3.25,-0.45 M0.5,-1.5 C0.3,-1.55 0.1,-1.6 -0.05,-1.65 0.1,-1.6 0.3,-1.6 0.5,-1.55 L0.5,-1.5z"/>
        <path id="path91" fill="none" stroke="#630" stroke-width="1" stroke-linecap="round" stroke-linejoin="round" vector-effect="non-scaling-stroke" d="M-3.275,-0.475 Q-3.329,-0.254 -3.35,-0.05 L-3.25,-0.1 C-3.65,0.65 -3.8,1.55 -3.65,2.6 -3.6,3.05 -3.55,3.55 -3.6,4.05"/>
        <path id="path92" fill="none" stroke="#630" stroke-width="1" stroke-linecap="round" stroke-linejoin="round" vector-effect="non-scaling-stroke" d="M-3.55,4 C-3.5,3.95 -3.5,3.9 -3.5,3.85 -3.25,4.95 -3,6.05 -2.65,7.1 -2.55,7.35 -2.45,7.65 -2.4,7.95 -1.95,8.6 -1.4,9.25 -0.75,9.8 -0.5,10 -0.25,10.05 0.05,10 0.15,9.9 0.25,9.8 0.3,9.65 0.35,9.55 0.45,9.5 0.55,9.55 0.5,9.45 0.45,9.35 0.4,9.25 0.45,9.3 0.55,9.3 0.65,9.35 0.6,9.25 0.55,9.15 0.5,9.05 0.75,9.6 1.15,10 1.75,10.15 1.7,10.1 1.65,10 1.6,9.95 2.85,10.35 3.4,10 3.15,8.9 3.1,8.75 3.1,8.65 3.1,8.55 3.05,8.5 3,8.45 2.95,8.4 2.95,8.3 2.95,8.2 3,8.1 3,8.25 3.3,8.4 3.9,8.45 4.9,8.25 5.25,7.65 4.9,6.6 4.85,6.5 4.75,6.4 4.65,6.3 4.1,5.8 3.8,5.3 3.7,4.75 3.4,4.6 3.15,4.35 2.95,4 3.2,4.2 3.4,4.35 3.65,4.45 4.3,4.75 4.9,4.6 5.4,4.05 5.55,3.9 5.55,3.7 5.45,3.55 5.1,3 4.7,2.55 4.25,2.1 4.2,2.1 4.2,2.1 4.15,2.05 3.7,1.75 3.45,1.25 3.35,0.6 3.3,0.45 3.3,0.35 3.3,0.2 3.1,-0.1 2.85,-0.35 2.6,-0.6 2.7,-0.55 2.8,-0.55 2.85,-0.5 2.8,-0.7 2.75,-0.85 2.6,-1 2.45,-1.1 2.3,-1.2 2.15,-1.25"/>
        <path id="path96" fill="#630" d="M-0.95,-1.75 C-1,-1.75 -1.05,-1.75 -1.05,-1.75 -1.1,-1.75 -1.15,-1.75 -1.2,-1.75 -1.15,-1.75 -1.05,-1.75 -0.95,-1.75"/>
        <path id="path97" fill="#630" d="M-0.3,-1.85 L-0.3,-1.875 M-0.35,-1.85 C-0.35,-1.9 -0.35,-1.9 -0.3,-1.85"/>
        <path id="path99" fill="none" stroke="#630" stroke-width="1" stroke-linecap="round" stroke-linejoin="round" vector-effect="non-scaling-stroke" d="M2.7,-0.95 C2.5,-1.05 2.3,-1.15 2.15,-1.25 2.3,-1.2 2.45,-1.1 2.6,-1 2.75,-0.85 2.8,-0.7 2.85,-0.5 2.8,-0.55 2.7,-0.55 2.6,-0.6 2.85,-0.35 3.1,-0.1 3.3,0.2 3.3,0.35 3.3,0.45 3.35,0.6 3.45,1.25 3.7,1.75 4.15,2.05 4.2,2.1 4.2,2.1 4.25,2.1 4.7,2.55 5.1,3 5.45,3.55 5.55,3.7 5.55,3.9 5.4,4.05 4.9,4.6 4.3,4.75 3.65,4.45 3.4,4.35 3.2,4.2 2.95,4 3.15,4.35 3.4,4.6 3.7,4.75 3.8,5.3 4.1,5.8 4.65,6.3 4.75,6.4 4.85,6.5 4.9,6.6 5.25,7.65 4.9,8.25 3.9,8.45 3.3,8.4 3,8.25 3,8.1 2.95,8.2 2.95,8.3 2.95,8.4 3,8.45 3.05,8.5 3.1,8.55 3.1,8.65 3.1,8.75 3.15,8.9 3.4,10 2.85,10.35 1.6,9.95 1.65,10 1.7,10.1 1.75,10.15 1.15,10 0.75,9.6 0.5,9.05 0.55,9.15 0.6,9.25 0.65,9.35 0.55,9.3 0.45,9.3 0.4,9.25 0.45,9.35 0.5,9.45 0.55,9.55 0.45,9.5 0.35,9.55 0.3,9.65 0.25,9.8 0.15,9.9 0.05,10 -0.25,10.05 -0.5,10 -0.75,9.8 -1.4,9.25 -1.95,8.6 -2.4,7.95 -2.45,7.65 -2.55,7.35 -2.65,7.1 -3,6.05 -3.25,4.95 -3.5,3.85 -3.5,3.9 -3.5,3.95 -3.55,4 -3.6,4.3 -3.6,4.7 -3.55,5.2 -3.4,6.45 -3,7.55 -2.35,8.5 L-2.35,8.525 M-2.35,8.55 C-2.3,8.7 -2.2,8.85 -2.1,9 -1.55,9.95 -0.9,10.35 -0.25,10.25 -0.4,10.3 -0.5,10.3 -0.65,10.35 -0.45,10.4 -0.25,10.45 -0.05,10.45 0.45,10.4 0.7,10.2 0.75,9.85 1.1,10.3 1.6,10.5 2.15,10.55 3,10.6 3.45,10.3 3.5,9.75 3.65,9.5 3.6,9.15 3.35,8.75 3.5,8.85 3.8,8.85 4.2,8.8 4.6,8.75 4.9,8.6 5.05,8.35 5.2,8.1 5.3,7.9 5.35,7.8 5.45,7.55 5.45,7.35 5.35,7.1 4.95,6.35 4.5,5.6 3.95,4.85 4.15,4.9 4.4,4.9 4.65,4.9 4.9,4.85 5.15,4.75 5.3,4.6 6,3.8 5.8,3.05 4.75,2.35 L4.7,2.3 C4.65,2.25 4.6,2.25 4.55,2.25 4.35,2 4.2,1.75 4.05,1.5 4,1.3 3.9,1.1 3.85,0.95 3.8,0.8 3.8,0.65 3.75,0.5 3.6,-0.1 3.25,-0.6 2.7,-0.95"/>
      </g>
      <animate attributeName="display" begin="0s" repeatCount="indefinite" dur="0.167s" keyTimes="0;0.798;1" values="none;inline;none"/>
    </g>
    <g id="sideHandClose2_2">
      <g id="element1">
        <path id="path76" fill="none" stroke="#630" stroke-width="1" stroke-linecap="round" stroke-linejoin="round" vector-effect="non-scaling-stroke" d="M4.9,2.6 C4.95,2.65 5.05,2.65 5.1,2.7 L5.15,2.7 C5.45,2.9 5.65,3.15 5.8,3.5 5.85,3.65 5.9,3.85 5.95,4 5.6,4.85 4.95,5.1 4,4.65 3.85,4.6 3.7,4.5 3.6,4.4 3.95,4.95 4.25,5.5 4.6,6.05 5.1,6.4 5.35,6.85 5.35,7.35 5.35,7.4 5.35,7.5 5.3,7.55 5.25,7.7 5.25,7.8 5.2,7.95 5.05,8.3 4.85,8.5 4.5,8.65 L4.425,8.65 L4.45,8.65 C4.4,8.65 4.3,8.7 4.25,8.75 3.95,8.75 3.7,8.7 3.45,8.65 3.85,9.5 3.5,10.1 2.35,10.45 2.1,10.5 1.9,10.5 1.65,10.35 1.5,10.3 1.4,10.2 1.3,10.15 1.15,10.1 1.05,10 0.95,9.9 1,9.95 1.05,9.95 1.1,9.95 1,9.9 0.9,9.8 0.85,9.7 0.7,10.05 0.35,10.3 -0.1,10.35 -0.35,10.4 -0.5,10.3 -0.6,10.15 -0.9,10.05 -1.2,9.8 -1.55,9.45 -2.05,8.85 -2.45,8.2 -2.7,7.5 -3.35,6.35 -3.7,5 -3.7,3.55 -3.7,3.3 -3.7,3 -3.75,2.75 -3.75,2.65 -3.75,2.55 -3.7,2.45 -4,1.3 -3.75,0.25 -2.9,-0.75 -2.85,-0.85 -2.8,-0.95 -2.75,-1"/>
        <path id="path77" fill="none" stroke="#630" stroke-width="1" stroke-linecap="round" stroke-linejoin="round" vector-effect="non-scaling-stroke" d="M2.6,-1.1 C3.25,-0.55 3.7,0.15 3.9,0.95 4,1.3 4.05,1.65 4.1,2 4.25,2.15 4.45,2.3 4.65,2.45 4.75,2.5 4.85,2.6 4.9,2.65"/>
        <path id="path78" fill="#FFC" d="M1.05,-1.775 Q1.2,-1.764 1.35,-1.75 C0.7,-2 -0.05,-2.1 -0.85,-2.05 -1.75,-2 -2.4,-1.65 -2.75,-1 -2.8,-0.8 -2.85,-0.6 -2.8,-0.45 -3.15,0.1 -3.35,0.7 -3.4,1.4 -3.45,1.8 -3.45,2.15 -3.5,2.5 -3.35,3.85 -3.1,5.2 -2.75,6.55 -2.55,7.25 -2.25,7.9 -1.9,8.45 -1.85,8.5 -1.85,8.55 -1.9,8.55 -2,8.45 -2.1,8.35 -2.15,8.25 -1.7,8.8 -1.2,9.3 -0.55,9.75 -0.15,10 0.2,10 0.5,9.8 0.55,9.75 0.6,9.65 0.65,9.55 L0.675,9.525 L0.7,9.55 C0.65,9.45 0.55,9.35 0.5,9.3 0.55,9.25 0.6,9.25 0.65,9.2 0.65,9.15 0.65,9.15 0.65,9.15 0.7,9.25 0.8,9.35 0.9,9.4 L0.875,9.4 L0.9,9.4 0.9,9.425 L0.9,9.45 C1.2,9.7 1.55,9.9 1.95,10.1 2.25,10.05 2.55,9.95 2.8,9.8 2.95,9.7 3.05,9.65 3.1,9.6 2.95,9.95 2.75,10.15 2.5,10.25 2.85,10.3 3.1,10.1 3.25,9.7 3.35,9.45 3.4,9.2 3.4,8.9 3.35,8.75 3.25,8.65 3.15,8.5 2.95,8.35 2.8,8.2 2.7,8.05 2.45,7.85 2.3,7.6 2.15,7.35 2.25,7.5 2.35,7.65 2.5,7.8 2.75,8 3,8.15 3.35,8.25 L3.2,8.1 C3.25,8.15 3.3,8.2 3.35,8.25 4.1,8.6 4.65,8.35 5.05,7.45 5.1,7.35 5.1,7.25 5.1,7.2 5.1,7.05 5.05,6.95 4.95,6.8 4.9,6.75 4.85,6.65 4.8,6.6 4.85,6.65 4.85,6.7 4.85,6.75 4.2,6.2 3.75,5.5 3.4,4.65 3.3,4.45 3.25,4.25 3.3,4.1 3.25,4.05 3.25,4 3.2,3.95 3.25,4 3.25,4 3.3,4.05 3.3,3.9 3.35,3.8 3.4,3.75 3.45,3.9 3.45,4.05 3.5,4.2 4.05,4.5 4.6,4.55 5.25,4.4 5.4,4.35 5.5,4.25 5.5,4 5.55,3.45 5.35,3 4.9,2.6 L4.9,2.625 L4.9,2.65 C5,2.7 5.1,2.8 5.15,2.95 4.55,2.75 4.05,2.4 3.7,1.85 3.55,1.6 3.5,1.45 3.65,1.3 L3.675,1.3 L3.7,1.3 C3.5,0.9 3.3,0.5 3.15,0.1 3.05,-0.15 2.9,-0.4 2.7,-0.55 2.7,-0.75 2.65,-0.95 2.6,-1.1 2.5,-1.2 2.4,-1.3 2.3,-1.35 2.1,-1.4 1.9,-1.5 1.65,-1.6 1.45,-1.65 1.25,-1.7 1.05,-1.75"/>
        <path id="path79" fill="none" stroke="#630" stroke-width="1" stroke-linecap="round" stroke-linejoin="round" vector-effect="non-scaling-stroke" d="M-2.75,-1 C-2.8,-0.8 -2.85,-0.6 -2.8,-0.45 -3.15,0.1 -3.35,0.7 -3.4,1.4 -3.45,1.8 -3.45,2.15 -3.5,2.5 -3.35,3.85 -3.1,5.2 -2.75,6.55 -2.55,7.25 -2.25,7.9 -1.9,8.45 -1.85,8.5 -1.85,8.55 -1.9,8.55 -2,8.45 -2.1,8.35 -2.15,8.25 -1.7,8.8 -1.2,9.3 -0.55,9.75 -0.15,10 0.2,10 0.5,9.8 0.55,9.75 0.6,9.65 0.65,9.55 L0.675,9.525 L0.7,9.55 C0.65,9.45 0.55,9.35 0.5,9.3 0.55,9.25 0.6,9.25 0.65,9.2 0.65,9.15 0.65,9.15 0.65,9.15 0.7,9.25 0.8,9.35 0.9,9.4 L0.875,9.4 L0.9,9.4 0.9,9.425 L0.9,9.45 C1.2,9.7 1.55,9.9 1.95,10.1 2.25,10.05 2.55,9.95 2.8,9.8 2.95,9.7 3.05,9.65 3.1,9.6 2.95,9.95 2.75,10.15 2.5,10.25 2.85,10.3 3.1,10.1 3.25,9.7 3.35,9.45 3.4,9.2 3.4,8.9 3.35,8.75 3.25,8.65 3.15,8.5 2.95,8.35 2.8,8.2 2.7,8.05 2.45,7.85 2.3,7.6 2.15,7.35 2.25,7.5 2.35,7.65 2.5,7.8 2.75,8 3,8.15 3.35,8.25 L3.2,8.1 C3.25,8.15 3.3,8.2 3.35,8.25 4.1,8.6 4.65,8.35 5.05,7.45 5.1,7.35 5.1,7.25 5.1,7.2 5.1,7.05 5.05,6.95 4.95,6.8 4.9,6.75 4.85,6.65 4.8,6.6 4.85,6.65 4.85,6.7 4.85,6.75 4.2,6.2 3.75,5.5 3.4,4.65 3.3,4.45 3.25,4.25 3.3,4.1 3.25,4.05 3.25,4 3.2,3.95 3.25,4 3.25,4 3.3,4.05 3.3,3.9 3.35,3.8 3.4,3.75 3.45,3.9 3.45,4.05 3.5,4.2 4.05,4.5 4.6,4.55 5.25,4.4 5.4,4.35 5.5,4.25 5.5,4 5.55,3.45 5.35,3 4.9,2.6"/>
        <path id="path80" fill="#630" d="M2.65,-0.625 L2.65,-0.65 C2.6,-0.7 2.6,-0.7 2.55,-0.7 2.6,-0.65 2.6,-0.65 2.65,-0.6"/>
        <path id="path81" fill="#630" d="M2.6,-1.1 C2.65,-0.95 2.7,-0.75 2.7,-0.55 2.9,-0.4 3.05,-0.15 3.15,0.1 3.3,0.5 3.5,0.9 3.7,1.3 3.75,1.4 3.8,1.5 3.85,1.65 3.75,1.5 3.7,1.4 3.65,1.3 3.5,1.45 3.55,1.6 3.7,1.85 4.05,2.4 4.55,2.75 5.15,2.95 5.1,2.8 5,2.7 4.9,2.65 4.85,2.6 4.75,2.5 4.65,2.45 4.45,2.3 4.25,2.15 4.1,2 4.05,1.65 4,1.3 3.9,0.95 3.7,0.15 3.25,-0.55 2.6,-1.1z M5.5,4 C5.5,4.25 5.4,4.35 5.25,4.4 4.6,4.55 4.05,4.5 3.5,4.2 3.45,4.05 3.45,3.9 3.4,3.75 3.35,3.8 3.3,3.9 3.3,4.05 3.25,4 3.25,4 3.2,3.95 3.25,4 3.25,4.05 3.3,4.1 3.25,4.25 3.3,4.45 3.4,4.65 3.75,5.5 4.2,6.2 4.85,6.75 4.85,6.7 4.85,6.65 4.8,6.6 4.85,6.65 4.9,6.75 4.95,6.8 5.05,6.95 5.1,7.05 5.1,7.2 5.1,7.25 5.1,7.35 5.05,7.45 4.65,8.35 4.1,8.6 3.35,8.25 L3.2,8.1 C3.25,8.15 3.3,8.2 3.35,8.25 3,8.15 2.75,8 2.5,7.8 2.35,7.65 2.25,7.5 2.15,7.35 2.3,7.6 2.45,7.85 2.7,8.05 2.8,8.2 2.95,8.35 3.15,8.5 3.25,8.65 3.35,8.75 3.4,8.9 3.4,9.2 3.35,9.45 3.25,9.7 3.1,10.1 2.85,10.3 2.5,10.25 2.75,10.15 2.95,9.95 3.1,9.6 3.05,9.65 2.95,9.7 2.8,9.8 2.55,9.95 2.25,10.05 1.95,10.1 1.55,9.9 1.2,9.7 0.9,9.45 L0.9,9.425 L0.9,9.4 L0.875,9.4 L0.9,9.4 C0.8,9.35 0.7,9.25 0.65,9.15 0.65,9.15 0.65,9.15 0.65,9.2 0.6,9.25 0.55,9.25 0.5,9.3 0.55,9.35 0.65,9.45 0.7,9.55 L0.675,9.525 L0.65,9.55 C0.6,9.65 0.55,9.75 0.5,9.8 0.2,10 -0.15,10 -0.55,9.75 -1.2,9.3 -1.7,8.8 -2.15,8.25 -2.1,8.35 -2,8.45 -1.9,8.55 -1.85,8.55 -1.85,8.5 -1.9,8.45 -2.25,7.9 -2.55,7.25 -2.75,6.55 -3.1,5.2 -3.35,3.85 -3.5,2.5 -3.45,2.15 -3.45,1.8 -3.4,1.4 -3.35,0.7 -3.15,0.1 -2.8,-0.45 -2.85,-0.6 -2.8,-0.8 -2.75,-1 -2.8,-0.95 -2.85,-0.85 -2.9,-0.75 -3.75,0.25 -4,1.3 -3.7,2.45 -3.75,2.55 -3.75,2.65 -3.75,2.75 -3.7,3 -3.7,3.3 -3.7,3.55 -3.7,5 -3.35,6.35 -2.7,7.5 -2.45,8.2 -2.05,8.85 -1.55,9.45 -1.2,9.8 -0.9,10.05 -0.6,10.15 -0.5,10.3 -0.35,10.4 -0.1,10.35 0.35,10.3 0.7,10.05 0.85,9.7 0.9,9.8 1,9.9 1.1,9.95 1.05,9.95 1,9.95 0.95,9.9 1.05,10 1.15,10.1 1.3,10.15 1.4,10.2 1.5,10.3 1.65,10.35 1.9,10.5 2.1,10.5 2.35,10.45 3.5,10.1 3.85,9.5 3.45,8.65 3.7,8.7 3.95,8.75 4.25,8.75 4.3,8.7 4.4,8.65 4.45,8.65 L4.425,8.65 L4.5,8.65 C4.85,8.5 5.05,8.3 5.2,7.95 5.25,7.8 5.25,7.7 5.3,7.55 5.35,7.5 5.35,7.4 5.35,7.35 5.35,6.85 5.1,6.4 4.6,6.05 4.25,5.5 3.95,4.95 3.6,4.4 3.7,4.5 3.85,4.6 4,4.65 4.95,5.1 5.6,4.85 5.95,4 5.9,3.85 5.85,3.65 5.8,3.5 5.65,3.15 5.45,2.9 5.15,2.7 L5.1,2.7 C5.05,2.65 4.95,2.65 4.9,2.6 5.35,3 5.55,3.45 5.5,4z"/>
        <path id="path82" fill="none" stroke="#630" stroke-width="1" stroke-linecap="round" stroke-linejoin="round" vector-effect="non-scaling-stroke" d="M4.9,2.65 C4.85,2.6 4.75,2.5 4.65,2.45 4.45,2.3 4.25,2.15 4.1,2 4.05,1.65 4,1.3 3.9,0.95 3.7,0.15 3.25,-0.55 2.6,-1.1"/>
        <path id="path84" fill="none" stroke="#630" stroke-width="1" stroke-linecap="round" stroke-linejoin="round" vector-effect="non-scaling-stroke" d="M5.5,4 C5.5,4.25 5.4,4.35 5.25,4.4 4.6,4.55 4.05,4.5 3.5,4.2 3.45,4.05 3.45,3.9 3.4,3.75 3.35,3.8 3.3,3.9 3.3,4.05 3.25,4 3.25,4 3.2,3.95 3.25,4 3.25,4.05 3.3,4.1 3.25,4.25 3.3,4.45 3.4,4.65 3.75,5.5 4.2,6.2 4.85,6.75 4.85,6.7 4.85,6.65 4.8,6.6 4.85,6.65 4.9,6.75 4.95,6.8 5.05,6.95 5.1,7.05 5.1,7.2 5.1,7.25 5.1,7.35 5.05,7.45 4.65,8.35 4.1,8.6 3.35,8.25 M3.2,8.1 C3.25,8.15 3.3,8.2 3.35,8.25 3,8.15 2.75,8 2.5,7.8 2.35,7.65 2.25,7.5 2.15,7.35 2.3,7.6 2.45,7.85 2.7,8.05 2.8,8.2 2.95,8.35 3.15,8.5 3.25,8.65 3.35,8.75 3.4,8.9 3.4,9.2 3.35,9.45 3.25,9.7 3.1,10.1 2.85,10.3 2.5,10.25 2.75,10.15 2.95,9.95 3.1,9.6 3.05,9.65 2.95,9.7 2.8,9.8 2.55,9.95 2.25,10.05 1.95,10.1 1.55,9.9 1.2,9.7 0.9,9.45 M0.9,9.425 L0.9,9.4 M0.875,9.4 L0.9,9.4 C0.8,9.35 0.7,9.25 0.65,9.15 0.65,9.15 0.65,9.15 0.65,9.2 0.6,9.25 0.55,9.25 0.5,9.3 0.55,9.35 0.65,9.45 0.7,9.55 M0.675,9.525 L0.65,9.55 C0.6,9.65 0.55,9.75 0.5,9.8 0.2,10 -0.15,10 -0.55,9.75 -1.2,9.3 -1.7,8.8 -2.15,8.25 -2.1,8.35 -2,8.45 -1.9,8.55 -1.85,8.55 -1.85,8.5 -1.9,8.45 -2.25,7.9 -2.55,7.25 -2.75,6.55 -3.1,5.2 -3.35,3.85 -3.5,2.5 -3.45,2.15 -3.45,1.8 -3.4,1.4 -3.35,0.7 -3.15,0.1 -2.8,-0.45 -2.85,-0.6 -2.8,-0.8 -2.75,-1 -2.8,-0.95 -2.85,-0.85 -2.9,-0.75 -3.75,0.25 -4,1.3 -3.7,2.45 -3.75,2.55 -3.75,2.65 -3.75,2.75 -3.7,3 -3.7,3.3 -3.7,3.55 -3.7,5 -3.35,6.35 -2.7,7.5 -2.45,8.2 -2.05,8.85 -1.55,9.45 -1.2,9.8 -0.9,10.05 -0.6,10.15 -0.5,10.3 -0.35,10.4 -0.1,10.35 0.35,10.3 0.7,10.05 0.85,9.7 0.9,9.8 1,9.9 1.1,9.95 1.05,9.95 1,9.95 0.95,9.9 1.05,10 1.15,10.1 1.3,10.15 1.4,10.2 1.5,10.3 1.65,10.35 1.9,10.5 2.1,10.5 2.35,10.45 3.5,10.1 3.85,9.5 3.45,8.65 3.7,8.7 3.95,8.75 4.25,8.75 4.3,8.7 4.4,8.65 4.45,8.65 M4.425,8.65 L4.5,8.65 C4.85,8.5 5.05,8.3 5.2,7.95 5.25,7.8 5.25,7.7 5.3,7.55 5.35,7.5 5.35,7.4 5.35,7.35 5.35,6.85 5.1,6.4 4.6,6.05 4.25,5.5 3.95,4.95 3.6,4.4 3.7,4.5 3.85,4.6 4,4.65 4.95,5.1 5.6,4.85 5.95,4 5.9,3.85 5.85,3.65 5.8,3.5 5.65,3.15 5.45,2.9 5.15,2.7 L5.1,2.7 C5.05,2.65 4.95,2.65 4.9,2.6 5.35,3 5.55,3.45 5.5,4"/>
      </g>
      <animate attributeName="display" begin="0s" repeatCount="indefinite" dur="0.167s" keyTimes="0;0.399;0.798;1" values="none;inline;none;none"/>
    </g>
    <g id="sideHandClose2_0">
      <g id="element">
        <path id="path" fill="none" stroke="#630" stroke-width="1" stroke-linecap="round" stroke-linejoin="round" vector-effect="non-scaling-stroke" d="M-2.95,-0.95 C-2.95,-0.95 -2.95,-0.9 -2.95,-0.9"/>
        <path id="path1" fill="#FFC" d="M2.95,-0.75 L2.95,-0.775 Q2.86,-0.849 2.775,-0.925 L2.75,-0.95 C2.7,-0.95 2.7,-0.95 2.65,-1 2.65,-1 2.65,-1 2.6,-1.05 2.45,-1.2 2.25,-1.4 2.05,-1.55 1.4,-1.9 0.75,-2.05 0,-2.05 -0.9,-2.1 -1.7,-1.9 -2.45,-1.55 -2.3,-1.6 -2.1,-1.6 -1.95,-1.65 -2,-1.6 -2,-1.6 -2.05,-1.55 -2.35,-1.5 -2.6,-1.35 -2.85,-1.1 L-2.875,-1.075 L-2.85,-1.05 C-2.9,-1 -2.9,-1 -2.95,-0.95 L-2.975,-0.95 L-2.975,-0.925 -2.95,-0.95 C-3,-0.9 -3,-0.85 -3,-0.8 -3.05,-0.65 -3.15,-0.45 -3.3,-0.3 -3.35,-0.25 -3.35,-0.25 -3.35,-0.2 -3.35,-0.25 -3.35,-0.3 -3.3,-0.35 -3.35,-0.3 -3.35,-0.3 -3.35,-0.25 L-3.35,-0.225 L-3.35,-0.25 L-3,-0.8 C-3.1,-0.65 -3.2,-0.5 -3.3,-0.35 L-3.35,-0.2 C-3.35,-0.2 -3.35,-0.2 -3.3,-0.15 L-3.25,-0.15 C-3.2,-0.2 -3.15,-0.2 -3.1,-0.2 L-3.125,-0.175 -3.1,-0.175 L-3.1,-0.15 C-3.25,0.1 -3.35,0.35 -3.4,0.65 -3.45,0.75 -3.45,0.85 -3.5,1 L-3.5,0.975 L-3.5,1.025 L-3.5,1.05 C-3.5,1.1 -3.5,1.2 -3.55,1.25 -3.55,1.3 -3.55,1.4 -3.55,1.5 -3.5,1.95 -3.45,2.45 -3.4,2.95 -3.4,3.1 -3.4,3.25 -3.4,3.4 -3.35,3.95 -3.3,4.5 -3.25,5.05 L-3.25,5.1 C-3.25,5.2 -3.25,5.3 -3.2,5.4 -3.2,5.5 -3.2,5.6 -3.2,5.7 -2.8,7.15 -2.1,8.4 -1.1,9.45 -1.05,9.5 -1,9.55 -0.95,9.6 -1.1,9.45 -1.2,9.25 -1.25,9.1 -1.15,9.25 -1.05,9.4 -0.95,9.5 -1.1,9.35 -1.2,9.2 -1.25,9.05 -0.85,9.75 -0.35,10 0.3,9.8 0.4,9.75 0.5,9.75 0.55,9.7 0.5,9.55 0.45,9.4 0.4,9.25 L0.3,8.95 C0.35,9.05 0.35,9.15 0.4,9.25 0.55,9.3 0.6,9.35 0.65,9.45 0.7,9.45 0.7,9.45 0.7,9.45 L0.7,9.5 0.75,9.55 C1.5,10.4 2.25,10.45 2.95,9.65 3,9.6 3.05,9.55 3.1,9.55 3.15,9.35 3.15,9.15 3.1,8.9 3.05,8.75 3.05,8.6 3.05,8.5 3,8.45 3,8.45 2.95,8.4 2.9,8.3 2.8,8.25 2.75,8.2 L2.75,8.175 L2.75,8.15 C2.7,8.1 2.7,8 2.7,7.95 L2.7,7.9 C2.75,7.95 2.75,7.95 2.8,7.95 2.95,8.1 3.15,8.15 3.35,8.2 3.5,8.25 3.7,8.35 3.9,8.4 4.25,8.35 4.6,8.1 4.85,7.6 4.9,7.55 4.9,7.55 4.9,7.55 L4.9,7.525 L4.9,7.425 L4.9,7.45 C4.9,7.3 4.85,7.15 4.75,7 4.7,6.9 4.65,6.8 4.65,6.7 4.65,6.65 4.65,6.55 4.7,6.5 L4.625,6.475 L4.675,6.5 L4.65,6.5 C4.55,6.4 4.45,6.35 4.4,6.3 4.2,5.9 3.95,5.5 3.7,5.1 3.55,4.85 3.4,4.55 3.3,4.25 L3.325,4.225 3.3,4.2 3.325,4.175 L3.35,4.2 C3.3,4.15 3.25,4.05 3.2,4 3.25,4 3.25,4 3.25,4.05 3.2,4 3.2,4 3.2,3.95 3.25,4 3.35,4.05 3.4,4.1 3.4,4.05 3.4,4.05 3.45,4.05 3.4,4 3.4,3.95 3.35,3.9 3.3,3.85 3.3,3.85 3.35,3.8 3.3,3.75 3.3,3.75 3.35,3.7 3.4,3.85 3.5,4.05 3.55,4.2 4.35,4.65 4.95,4.5 5.4,3.75 5.45,3.65 5.5,3.55 5.5,3.5 5.45,3.3 5.35,3.15 5.15,3 4.8,2.85 4.55,2.65 4.35,2.4 4.3,2.35 4.2,2.3 4.15,2.25 4,2.1 3.9,1.95 3.8,1.75 3.75,1.6 3.75,1.5 3.75,1.45 3.65,1.25 3.6,1.05 3.55,0.85 3.5,0.7 3.5,0.6 3.5,0.45 L3.5,0.425 L3.5,0.4 C3.35,0.1 3.2,-0.15 3,-0.4 L2.975,-0.4 L3,-0.4 3,-0.45 C3,-0.55 3,-0.65 2.95,-0.75z M-0.5,-1.85 C-0.35,-1.85 -0.25,-1.85 -0.1,-1.85 L-0.125,-1.85 L-0.15,-1.8 C-0.4,-1.8 -0.7,-1.8 -0.95,-1.8 -0.8,-1.85 -0.65,-1.85 -0.5,-1.85z"/>
        <path id="path2" fill="none" stroke="#630" stroke-width="1" stroke-linecap="round" stroke-linejoin="round" vector-effect="non-scaling-stroke" d="M-3,-0.8 C-3.05,-0.65 -3.15,-0.45 -3.3,-0.3 -3.35,-0.25 -3.35,-0.25 -3.35,-0.2 -3.35,-0.25 -3.35,-0.3 -3.3,-0.35"/>
        <path id="path3" fill="none" stroke="#630" stroke-width="1" stroke-linecap="round" stroke-linejoin="round" vector-effect="non-scaling-stroke" d="M-3.5,0.975 L-3.5,1.025"/>
        <path id="path4" fill="none" stroke="#630" stroke-width="1" stroke-linecap="round" stroke-linejoin="round" vector-effect="non-scaling-stroke" d="M-0.95,9.6 C-1.1,9.45 -1.2,9.25 -1.25,9.1 -1.15,9.25 -1.05,9.4 -0.95,9.5"/>
        <path id="path5" fill="none" stroke="#630" stroke-width="1" stroke-linecap="round" stroke-linejoin="round" vector-effect="non-scaling-stroke" d="M0.55,9.7 C0.5,9.55 0.45,9.4 0.4,9.25 L0.3,8.95 C0.35,9.05 0.35,9.15 0.4,9.25 0.55,9.3 0.6,9.35 0.65,9.45"/>
        <path id="path6" fill="none" stroke="#630" stroke-width="1" stroke-linecap="round" stroke-linejoin="round" vector-effect="non-scaling-stroke" d="M3.1,9.55 C3.15,9.35 3.15,9.15 3.1,8.9 3.05,8.75 3.05,8.6 3.05,8.5 3,8.45 3,8.45 2.95,8.4 2.9,8.3 2.8,8.25 2.75,8.2 L2.75,8.175 L2.75,8.15 C2.7,8.1 2.7,8 2.7,7.95"/>
        <path id="path7" fill="none" stroke="#630" stroke-width="1" stroke-linecap="round" stroke-linejoin="round" vector-effect="non-scaling-stroke" d="M4.9,7.525 L4.9,7.425 L4.9,7.45 C4.9,7.3 4.85,7.15 4.75,7 4.7,6.9 4.65,6.8 4.65,6.7"/>
        <path id="path8" fill="none" stroke="#630" stroke-width="1" stroke-linecap="round" stroke-linejoin="round" vector-effect="non-scaling-stroke" d="M4.65,6.5 C4.55,6.4 4.45,6.35 4.4,6.3 4.2,5.9 3.95,5.5 3.7,5.1 3.55,4.85 3.4,4.55 3.3,4.25 L3.325,4.225"/>
        <path id="path9" fill="none" stroke="#630" stroke-width="1" stroke-linecap="round" stroke-linejoin="round" vector-effect="non-scaling-stroke" d="M3.35,4.2 C3.3,4.15 3.25,4.05 3.2,4 3.25,4 3.25,4 3.25,4.05"/>
        <path id="path10" fill="none" stroke="#630" stroke-width="1" stroke-linecap="round" stroke-linejoin="round" vector-effect="non-scaling-stroke" d="M3.45,4.05 C3.4,4 3.4,3.95 3.35,3.9 3.3,3.85 3.3,3.85 3.35,3.8"/>
        <path id="path11" fill="none" stroke="#630" stroke-width="1" stroke-linecap="round" stroke-linejoin="round" vector-effect="non-scaling-stroke" d="M3.5,0.425 L3.5,0.4"/>
        <path id="path12" fill="none" stroke="#630" stroke-width="1" stroke-linecap="round" stroke-linejoin="round" vector-effect="non-scaling-stroke" d="M2.975,-0.4 L3,-0.4 3,-0.45 C3,-0.55 3,-0.65 2.95,-0.75"/>
        <path id="path17" fill="none" stroke="#630" stroke-width="1" stroke-linecap="round" stroke-linejoin="round" vector-effect="non-scaling-stroke" d="M3,-0.45 L3,-0.4 L2.975,-0.4 L3,-0.4"/>
        <path id="path21" fill="#630" d="M2.95,-0.8 C3,-0.7 3,-0.6 3,-0.45 3.2,-0.2 3.35,0.05 3.5,0.35 L3.5,0.4 3.5,0.425 L3.5,0.45 C3.5,0.6 3.5,0.7 3.55,0.85 3.6,1.05 3.65,1.25 3.75,1.4 3.75,1.45 3.75,1.55 3.8,1.7 3.95,1.95 4.1,2.2 4.35,2.35 4.55,2.6 4.8,2.8 5.15,2.95 5.4,3.1 5.5,3.3 5.5,3.5 5.5,3.55 5.45,3.65 5.4,3.75 4.95,4.5 4.35,4.65 3.55,4.2 3.5,4.05 3.4,3.85 3.35,3.7 3.3,3.75 3.3,3.75 3.35,3.8 L3.325,3.8 L3.35,3.85 C3.4,3.9 3.4,3.95 3.45,4 L3.425,4.025 L3.45,4.05 C3.4,4.05 3.4,4.05 3.4,4.1 3.35,4.05 3.25,4 3.2,3.95 3.2,4 3.2,4 3.25,4.05 3.3,4.1 3.3,4.1 3.35,4.15 L3.325,4.175 3.3,4.2 3.325,4.225 L3.35,4.25 C3.4,4.5 3.55,4.8 3.7,5.05 3.95,5.45 4.2,5.85 4.4,6.25 4.45,6.3 4.55,6.35 4.6,6.4 4.6,6.45 4.6,6.45 4.65,6.45 4.6,6.4 4.6,6.4 4.6,6.35 4.65,6.4 4.65,6.4 4.7,6.45 L4.675,6.475 4.675,6.5 L4.7,6.5 C4.65,6.55 4.65,6.65 4.65,6.7 4.7,6.8 4.7,6.9 4.75,6.95 4.85,7.1 4.9,7.25 4.9,7.45 L4.9,7.425 L4.9,7.525 L4.9,7.55 C4.9,7.55 4.9,7.55 4.85,7.6 4.6,8.1 4.25,8.35 3.9,8.4 3.7,8.35 3.5,8.25 3.35,8.2 3.15,8.15 2.95,8.1 2.8,7.95 2.75,7.95 2.75,7.95 2.7,7.9 L2.7,7.95 C2.7,8 2.7,8.1 2.75,8.15 2.8,8.2 2.9,8.25 2.95,8.35 3,8.4 3,8.4 3.05,8.45 3.05,8.55 3.05,8.7 3.1,8.85 3.15,9.1 3.15,9.3 3.1,9.5 L3.075,9.525 L3.1,9.55 C3.05,9.55 3,9.6 2.95,9.65 2.25,10.45 1.5,10.4 0.75,9.55 L0.7,9.5 0.7,9.45 C0.7,9.45 0.7,9.45 0.65,9.45 0.6,9.4 0.5,9.4 0.45,9.4 L0.45,9.425 L0.45,9.45 C0.5,9.5 0.5,9.6 0.55,9.65 L0.525,9.675 L0.55,9.7 C0.5,9.75 0.4,9.75 0.3,9.8 -0.35,10 -0.85,9.75 -1.25,9.05 -1.2,9.2 -1.1,9.35 -0.95,9.5 -0.9,9.6 -0.8,9.7 -0.75,9.75 -0.8,9.7 -0.9,9.65 -0.95,9.6 -1,9.55 -1.05,9.5 -1.1,9.45 -2.1,8.4 -2.8,7.15 -3.2,5.7 -3.2,5.6 -3.2,5.5 -3.2,5.4 -3.25,5.3 -3.25,5.2 -3.25,5.1 L-3.25,5.05 C-3.3,4.5 -3.35,3.95 -3.4,3.4 -3.4,3.25 -3.4,3.1 -3.4,2.95 -3.45,2.45 -3.5,1.95 -3.55,1.5 -3.55,1.4 -3.55,1.3 -3.55,1.25 -3.55,1.15 -3.55,1.05 -3.5,1 L-3.5,0.975 L-3.5,0.95 C-3.45,0.8 -3.45,0.7 -3.4,0.6 -3.35,0.3 -3.25,0.05 -3.1,-0.15 L-3.125,-0.175 L-3.1,-0.2 C-3.15,-0.2 -3.2,-0.2 -3.25,-0.15 L-3.3,-0.15 C-3.35,-0.2 -3.35,-0.2 -3.35,-0.2 L-3.35,-0.225 L-3.35,-0.25 C-3.35,-0.3 -3.35,-0.3 -3.3,-0.35 -3.2,-0.5 -3.1,-0.65 -3,-0.8 -3,-0.85 -3,-0.9 -2.95,-0.95 L-2.975,-0.925 L-2.95,-0.9 C-3.4,-0.35 -3.65,0.3 -3.7,0.95 -3.8,1 -3.85,1.1 -3.8,1.25 -3.8,1.35 -3.8,1.45 -3.8,1.6 -3.8,1.85 -3.8,2.15 -3.8,2.45 -3.8,2.5 -3.8,2.55 -3.8,2.6 -3.9,4.05 -3.7,5.5 -3.15,6.9 -3.1,6.85 -3.1,6.85 -3.1,6.8 -2.75,8.05 -2.1,9.05 -1.1,9.8 -0.65,10.15 -0.25,10.25 0.1,10.2 0.3,10.2 0.5,10.1 0.65,9.85 0.7,9.9 0.7,10 0.75,10.05 0.75,10 0.75,10 0.8,9.95 0.9,10.1 1.05,10.25 1.3,10.35 1.65,10.5 2.05,10.5 2.45,10.35 3.15,10.15 3.45,9.7 3.35,9.05 3.3,8.9 3.3,8.8 3.25,8.65 3.4,8.8 3.6,8.8 3.85,8.7 4.15,8.75 4.45,8.65 4.75,8.5 4.7,8.5 4.6,8.5 4.55,8.5 4.9,8.3 5.1,8 5.15,7.65 5.2,7.55 5.2,7.45 5.15,7.35 5.1,7.1 5,6.8 4.85,6.45 4.8,6.4 4.8,6.4 4.75,6.35 4.7,6.3 4.65,6.3 4.65,6.25 4.65,6.2 4.65,6.2 4.6,6.2 4.55,6.15 4.55,6.15 4.5,6.15 4.2,5.6 3.95,5 3.7,4.45 4,4.7 4.4,4.75 4.9,4.65 5.05,4.6 5.2,4.55 5.3,4.4 5.95,3.65 5.85,3.05 4.9,2.55 L4.95,2.55 C4.75,2.4 4.6,2.25 4.45,2.1 L4.4,2.1 C4.4,2.15 4.4,2.15 4.4,2.2 4.35,2.15 4.35,2.1 4.3,2.05 4.15,1.9 4.05,1.7 3.95,1.55 3.95,1.5 3.95,1.4 3.95,1.35 3.95,1.1 3.95,0.9 3.95,0.7 L3.9,0.65 C3.65,0.1 3.35,-0.35 2.95,-0.8z"/>
        <path id="path22" fill="none" stroke="#630" stroke-width="1" stroke-linecap="round" stroke-linejoin="round" vector-effect="non-scaling-stroke" d="M3.5,0.4 L3.5,0.425"/>
        <path id="path23" fill="none" stroke="#630" stroke-width="1" stroke-linecap="round" stroke-linejoin="round" vector-effect="non-scaling-stroke" d="M4.6,6.4 C4.6,6.45 4.6,6.45 4.65,6.45"/>
        <path id="path24" fill="none" stroke="#630" stroke-width="1" stroke-linecap="round" stroke-linejoin="round" vector-effect="non-scaling-stroke" d="M4.9,7.425 L4.9,7.525"/>
        <path id="path25" fill="none" stroke="#630" stroke-width="1" stroke-linecap="round" stroke-linejoin="round" vector-effect="non-scaling-stroke" d="M2.7,7.95 C2.7,8 2.7,8.1 2.75,8.15"/>
        <path id="path26" fill="none" stroke="#630" stroke-width="1" stroke-linecap="round" stroke-linejoin="round" vector-effect="non-scaling-stroke" d="M-3.5,0.975 L-3.5,0.95"/>
        <path id="path28" fill="none" stroke="#630" stroke-width="1" stroke-linecap="round" stroke-linejoin="round" vector-effect="non-scaling-stroke" d="M-3.5,0.95 L-3.5,0.975"/>
        <path id="path33" fill="none" stroke="#630" stroke-width="1" stroke-linecap="round" stroke-linejoin="round" vector-effect="non-scaling-stroke" d="M-3.5,1.025 L-3.5,0.975"/>
        <path id="path35" fill="none" stroke="#630" stroke-width="1" stroke-linecap="round" stroke-linejoin="round" vector-effect="non-scaling-stroke" d="M-0.95,9.5 C-1.05,9.4 -1.15,9.25 -1.25,9.1 -1.2,9.25 -1.1,9.45 -0.95,9.6"/>
        <path id="path43" fill="none" stroke="#630" stroke-width="1" stroke-linecap="round" stroke-linejoin="round" vector-effect="non-scaling-stroke" d="M3.35,3.8 C3.3,3.85 3.3,3.85 3.35,3.9 3.4,3.95 3.4,4 3.45,4.05"/>
        <path id="path48" fill="none" stroke="#630" stroke-width="1" stroke-linecap="round" stroke-linejoin="round" vector-effect="non-scaling-stroke" d="M3.325,4.225 L3.3,4.25 C3.4,4.55 3.55,4.85 3.7,5.1 3.95,5.5 4.2,5.9 4.4,6.3 4.45,6.35 4.55,6.4 4.65,6.5 4.6,6.45 4.6,6.45 4.6,6.4"/>
        <path id="path53" fill="none" stroke="#630" stroke-width="1" stroke-linecap="round" stroke-linejoin="round" vector-effect="non-scaling-stroke" d="M3.25,4.05 C3.25,4 3.25,4 3.2,4 3.25,4.05 3.3,4.15 3.35,4.2"/>
        <path id="path55" fill="none" stroke="#630" stroke-width="1" stroke-linecap="round" stroke-linejoin="round" vector-effect="non-scaling-stroke" d="M4.65,6.45 L4.675,6.475"/>
        <path id="path57" fill="none" stroke="#630" stroke-width="1" stroke-linecap="round" stroke-linejoin="round" vector-effect="non-scaling-stroke" d="M4.675,6.475 L4.65,6.45 C4.6,6.45 4.6,6.45 4.6,6.4 4.6,6.45 4.6,6.45 4.65,6.5"/>
        <path id="path59" fill="none" stroke="#630" stroke-width="1" stroke-linecap="round" stroke-linejoin="round" vector-effect="non-scaling-stroke" d="M4.65,6.7 C4.65,6.8 4.7,6.9 4.75,7 4.85,7.15 4.9,7.3 4.9,7.45"/>
        <path id="path64" fill="none" stroke="#630" stroke-width="1" stroke-linecap="round" stroke-linejoin="round" vector-effect="non-scaling-stroke" d="M2.75,8.15 L2.75,8.175 L2.75,8.2 C2.8,8.25 2.9,8.3 2.95,8.4 3,8.45 3,8.45 3.05,8.5 3.05,8.6 3.05,8.75 3.1,8.9 3.15,9.15 3.15,9.35 3.1,9.55"/>
        <path id="path68" fill="#FFC" d="M0.45,9.425 L0.45,9.4 C0.5,9.4 0.6,9.4 0.65,9.45 0.6,9.35 0.55,9.3 0.4,9.25 0.4,9.3 0.4,9.4 0.45,9.45"/>
        <path id="path69" fill="none" stroke="#630" stroke-width="1" stroke-linecap="round" stroke-linejoin="round" vector-effect="non-scaling-stroke" d="M0.65,9.45 C0.6,9.35 0.55,9.3 0.4,9.25 0.4,9.3 0.4,9.4 0.45,9.45"/>
        <path id="path72" fill="none" stroke="#630" stroke-width="1" stroke-linecap="round" stroke-linejoin="round" vector-effect="non-scaling-stroke" d="M0.45,9.45 C0.4,9.4 0.4,9.3 0.4,9.25 0.45,9.4 0.5,9.55 0.55,9.7"/>
      </g>
      <animate attributeName="display" begin="0s" repeatCount="indefinite" dur="0.167s" keyTimes="0;0.399;1" values="inline;none;none"/>
    </g>
  </g>
</svg>