<?xml version="1.0" encoding="utf-8"?>
<!-- Generator: flash2svg, http://dissentgraphics.com/tools/flash2svg -->
<svg xmlns:xlink="http://www.w3.org/1999/xlink" id="Avatar" image-rendering="auto" baseProfile="basic" version="1.1" x="0px" y="0px" width="68" height="126" xmlns="http://www.w3.org/2000/svg" viewBox="0 0 68 126">
  <defs/>
  <g id="sideSkull3" overflow="visible">
    <g id="sideSkull2_4">
      <g id="element2">
        <path id="path27" fill="#630" d="M11.6,-25.35 C10.85,-25.55 10.15,-25.7 9.4,-25.8 2.2,-27.8 -8.6,-28.2 -15,-24.35 -17.15,-23.05 -19.05,-20.95 -20.8,-18.1 -22.55,-15.25 -24.1,-11.85 -25.45,-7.95 -25.45,-7.45 -25.25,-7.2 -25.25,-6.85 L-25.075,-6.9 L-25.05,-6.9 C-25.9,-1.95 -25.4,2.8 -23.6,7.45 -23.05,8.9 -22.3,10.25 -21.35,11.55 -18.6,15.5 -15.25,18.7 -11.65,21.1 -10.9,21.75 -9.95,22.35 -8.8,23 -7.05,23.95 -5.3,24.85 -3.5,25.65 -0.75,26.9 1.85,27.45 4.4,27.25 5.15,27.7 6.9,27.65 9.6,27.1 12.3,26.55 15.05,24.8 17.85,21.85 20.65,18.85 22.5,15.8 23.45,12.7 24.4,9.6 24.95,6.75 25.2,4.15 25.3,4.1 25.3,4.1 25.3,4.1 25.3,4.1 25.3,4.1 25.2,4.1 25.4,1.65 25.4,-0.8 25.25,-3.4 25.8,-3.85 26,-4.5 25.9,-5.45 25.75,-6.65 25.55,-7.8 25.2,-8.9 25.05,-9.45 24.85,-10.4 24.55,-11.45 23.7,-14.25 22.6,-16.45 21.25,-18 19.9,-19.55 18.5,-20.85 17.05,-21.8 16.3,-22.7 15,-23.55 13.2,-24.5 13.2,-24.55 13.2,-24.55 13.25,-24.6 12.8,-24.95 12.25,-25.2 11.6,-25.35z M8.5,-24.95 C10,-24.95 11.45,-24.55 12.4,-24.1 12.3,-24.1 12.2,-24.1 12.15,-24.1 11.7,-24.15 11.2,-24.15 10.7,-24.15 11.95,-23.9 13.3,-23.35 14.65,-22.5 16,-21.65 17.3,-20.7 18.45,-19.65 19.6,-18.65 20.8,-17.15 22.15,-15.2 22.35,-14.65 22.6,-14.15 22.95,-13.7 23.1,-13.05 23.4,-12.2 23.85,-11.2 24.2,-10.4 24.5,-9.55 24.65,-8.7 24.7,-8.05 24.7,-7.65 24.7,-7.25 24.65,-6.25 24.5,-5.35 24.2,-4.5 24.45,-4.75 24.7,-5.05 24.9,-5.35 24.65,-2.25 24.5,0.7 24.35,3.7 L24.35,3.675 Q24.1,3.489 24.1,3.45 C23.25,3.5 19.35,4.35 15.4,4.95 14.9,5 14.2,5.05 13.3,5.05 13.3,4.9 13.3,4.7 13.3,4.55 13.3,4.15 13.3,3.75 13.3,3.2 L13.3,3.175 L13.9,-3.35 C13.9,-6.1 13.1,-8.9 12.2,-11.95 12.1,-12.3 12.05,-12.55 12.05,-12.7 12.05,-13.35 11.6,-14.7 11.3,-15.35 L11.175,-15.35 L11.2,-15.35 C11.15,-15.35 11.15,-15.4 11.15,-15.45 L10.95,-15.45 C11.05,-15 11.2,-14.55 11.25,-14.4 11.55,-13.1 12,-11.75 12,-10.8 12,-10.05 12.75,-5.4 12.75,-5.35 12.75,-4.1 12.7,0.6 12.35,5.1 10.2,5.95 7.95,6.05 5.7,5.35 2.75,5.4 0,5.3 -2.5,4.95 -4.4,4.4 -6.9,3.85 -10.05,3.4 -10.4,3.35 -10.75,3.3 -11.1,3.25 -11.65,3.15 -12.4,3 -13.2,2.85 L-13.4,2.95 -12.75,3.15 C-9.8,4.1 -3.75,6.2 3.9,6.2 L7.75,6.55 12.15,6.175 L12.15,6.2 C12.05,8.4 11.65,10.6 10.95,12.75 10.25,14.9 9.65,16.55 9.1,17.6 8.55,18.65 8.35,19.2 8.4,19.25 8.45,19.3 8.5,19.3 8.65,19.35 9.6,18.1 10.65,15.85 11.5,13.4 11.05,15.95 10.6,17.65 10.1,18.75 10.75,17.4 11.45,15.2 12.15,12.05 12.7,9.5 13.05,7.5 13.2,6.05 14.3,5.85 15.25,5.7 16.2,5.55 19.35,5.4 21.3,5.2 24.3,4.4 24.25,5.4 23.9,7.45 23.3,10.6 22.7,13.75 20.95,16.95 18.1,20.25 15.25,23.55 12.55,25.45 10.1,26 7.55,26.5 5.1,26.65 2.75,26.5 0.4,26.3 -2.1,25.55 -4.7,24.2 -6.9,23.15 -9.1,22 -11.3,20.75 -13.7,18.8 -15.45,17.3 -16.6,16.2 -17.75,15.1 -19.15,13.7 -20.75,11.95 -21.5,9.9 -22.4,7.4 -23.55,4.45 -24.7,1.5 -25.1,-1.9 -24.65,-5.75 -24.25,-9.65 -23.15,-13.05 -21.4,-15.95 -21,-16.75 -20.5,-17.55 -19.9,-18.35 L-19.9,-18.375 L-19.9,-18.35 C-19.95,-18 -19.9,-17.95 -19.65,-18.2 -19.45,-18.35 -19.4,-18.55 -19.5,-18.75 -19.55,-18.75 -19.55,-18.75 -19.6,-18.75 -16.85,-22.4 -12.6,-25.6 -6.45,-26.4 -6.55,-26.4 -6.65,-26.4 -6.7,-26.35 -6.8,-26.3 -6.9,-26.2 -7,-26.1 -6.55,-26.05 -6.1,-26.05 -5.7,-26.1 -5.25,-26.15 -4.85,-26.15 -4.45,-26.15 -3.65,-26.1 -2.85,-26.1 -2.1,-26.1 0.15,-26.05 2.45,-25.9 4.75,-25.65 6.35,-25.25 7.45,-24.95 8.5,-24.95z M1.05,-26.5 C1,-26.45 0.9,-26.45 0.85,-26.45 0,-26.5 -0.8,-26.55 -1.6,-26.55 -3.15,-26.55 -4.7,-26.5 -6.25,-26.45 -6.3,-26.45 -6.3,-26.45 -6.3,-26.45 -4.55,-26.7 -3.15,-26.8 -1.65,-26.8 -0.5,-26.8 0.6,-26.65 1.15,-26.5 1.1,-26.5 1.1,-26.5 1.05,-26.5z M24.35,4.1 C23.9,4.1 23.35,4.15 22.85,4.2 23.9,3.95 24.4,3.85 24.35,3.85 24.35,3.9 24.35,4 24.35,4.1z"/>
        <path id="path28" fill="#FFC" d="M8.5,-24.95 C7.45,-24.95 6.35,-25.25 4.75,-25.65 2.45,-25.9 0.15,-26.05 -2.1,-26.1 -2.85,-26.1 -3.65,-26.1 -4.45,-26.15 -4.85,-26.15 -5.25,-26.15 -5.7,-26.1 -6.1,-26.05 -6.55,-26.05 -7,-26.1 -6.9,-26.2 -6.8,-26.3 -6.7,-26.35 -6.65,-26.4 -6.55,-26.4 -6.45,-26.4 -12.6,-25.6 -16.85,-22.4 -19.6,-18.75 -19.55,-18.75 -19.55,-18.75 -19.5,-18.75 -19.4,-18.55 -19.45,-18.35 -19.65,-18.2 -19.9,-17.95 -19.95,-18 -19.9,-18.35 L-19.9,-18.375 L-19.9,-18.35 C-20.5,-17.55 -21,-16.75 -21.4,-15.95 -23.15,-13.05 -24.25,-9.65 -24.65,-5.75 -25.1,-1.9 -24.7,1.5 -23.55,4.45 -22.4,7.4 -21.5,9.9 -20.75,11.95 -19.15,13.7 -17.75,15.1 -16.6,16.2 -15.45,17.3 -13.7,18.8 -11.3,20.75 -9.1,22 -6.9,23.15 -4.7,24.2 -2.1,25.55 0.4,26.3 2.75,26.5 5.1,26.65 7.55,26.5 10.1,26 12.55,25.45 15.25,23.55 18.1,20.25 20.95,16.95 22.7,13.75 23.3,10.6 23.9,7.45 24.25,5.4 24.3,4.4 21.3,5.2 19.35,5.4 16.2,5.55 15.25,5.7 14.3,5.85 13.2,6.05 13.05,7.5 12.7,9.5 12.15,12.05 11.45,15.2 10.75,17.4 10.1,18.75 10.6,17.65 11.05,15.95 11.5,13.4 10.65,15.85 9.6,18.1 8.65,19.35 8.5,19.3 8.45,19.3 8.4,19.25 8.35,19.2 8.55,18.65 9.1,17.6 9.65,16.55 10.25,14.9 10.95,12.75 11.65,10.6 12.05,8.4 12.15,6.2 L12.15,6.175 L7.75,6.55 3.9,6.2 C-3.75,6.2 -9.8,4.1 -12.75,3.15 L-13.4,2.95 -13.2,2.85 C-12.4,3 -11.65,3.15 -11.1,3.25 -10.75,3.3 -10.4,3.35 -10.05,3.4 -6.9,3.85 -4.4,4.4 -2.5,4.95 0,5.3 2.75,5.4 5.7,5.35 7.95,6.05 10.2,5.95 12.35,5.1 12.7,0.6 12.75,-4.1 12.75,-5.35 12.75,-5.4 12,-10.05 12,-10.8 12,-11.75 11.55,-13.1 11.25,-14.4 11.2,-14.55 11.05,-15 10.95,-15.45 L11.15,-15.45 C11.15,-15.4 11.15,-15.35 11.2,-15.35 L11.175,-15.35 L11.3,-15.35 C11.6,-14.7 12.05,-13.35 12.05,-12.7 12.05,-12.55 12.1,-12.3 12.2,-11.95 13.1,-8.9 13.9,-6.1 13.9,-3.35 L13.3,3.175 L13.3,3.2 C13.3,3.75 13.3,4.15 13.3,4.55 13.3,4.7 13.3,4.9 13.3,5.05 14.2,5.05 14.9,5 15.4,4.95 19.35,4.35 23.25,3.5 24.1,3.45 Q24.1,3.489 24.35,3.675 L24.35,3.7 C24.5,0.7 24.65,-2.25 24.9,-5.35 24.7,-5.05 24.45,-4.75 24.2,-4.5 24.5,-5.35 24.65,-6.25 24.7,-7.25 24.7,-7.65 24.7,-8.05 24.65,-8.7 24.5,-9.55 24.2,-10.4 23.85,-11.2 23.4,-12.2 23.1,-13.05 22.95,-13.7 22.6,-14.15 22.35,-14.65 22.15,-15.2 20.8,-17.15 19.6,-18.65 18.45,-19.65 17.3,-20.7 16,-21.65 14.65,-22.5 13.3,-23.35 11.95,-23.9 10.7,-24.15 11.2,-24.15 11.7,-24.15 12.15,-24.1 12.2,-24.1 12.3,-24.1 12.4,-24.1 11.45,-24.55 10,-24.95 8.5,-24.95z"/>
      </g>
      <animate attributeName="display" begin="0s" repeatCount="indefinite" dur="0.167s" keyTimes="0;0.798;1" values="none;inline;none"/>
    </g>
    <g id="sideSkull2_2">
      <g id="element1">
        <path id="path8" fill="#630" d="M10.35,-25.2 C12.45,-24.55 13.6,-24.1 14.05,-23.95 L14.1,-23.85 Q14.15,-23.8 14.15,-24.1 C14.15,-24.9 8.1,-26.65 3.05,-27.45 -1.35,-27.75 -4.85,-27.25 -7.05,-26.9 -11.15,-26.2 -14.05,-25.35 -16.2,-23.75 -16.5,-23.5 -16.8,-23.25 -16.95,-23.1 -16.95,-23.15 -17.05,-23.1 -17.05,-23.1 -17.35,-22.85 -17.75,-22.35 -18.3,-21.55 -18.85,-20.8 -19.3,-20.3 -19.55,-20.05 -19.8,-19.8 -20,-19.55 -20.05,-19.2 -20.15,-18.9 -20.9,-17.65 -22.3,-15.4 -23.75,-13.15 -24.6,-11.4 -24.85,-10.15 -25.1,-8.9 -25.2,-8.25 -25.15,-8.3 L-25.1,-8.4 C-24.95,-8.45 -24.95,-8.6 -24.9,-8.6 -24.5,-9.95 -24.05,-11.15 -23.5,-12.35 -24.65,-8.9 -25.3,-5.6 -25.3,-3.2 -25.3,-3 -24.7,2.35 -24.7,3.3 -24.7,7.1 -18.65,16.4 -15.05,19.3 L-14.725,19.125 L-14.7,19.15 C-10.25,23.25 -4.6,26.2 1.6,26.95 2.25,27.1 2.85,27.2 3.55,27.2 3.95,27.2 4.35,27.2 4.5,27.2 5.25,27.25 5.75,27.25 6.25,27.25 6.4,27.25 6.65,27.25 6.8,27.25 7,27.3 7,27.3 7,27.3 7.45,27.2 7.9,27.1 8.05,27.05 8.8,26.9 9.65,26.7 10.05,26.65 9.95,26.65 9.95,26.65 9.95,26.65 9.95,26.75 9.95,26.85 9.95,26.75 10,26.7 10.1,26.6 10.15,26.6 11.8,26.2 12.9,25.9 12.9,25.7 12.9,25.2 12.8,25.5 12.8,25.5 L12.85,25.4 L12.8,25.5 C12.7,25.5 12.6,25.5 12.35,25.6 15.05,24.25 16.9,23.05 17.9,21.9 18.85,20.75 19.55,19.95 19.9,19.5 20.95,18.25 21.65,17.45 21.9,17.15 22.15,16.9 22.7,15.75 23.45,13.75 24.2,11.75 24.55,9.35 24.6,6.6 24.6,3.85 24.95,1.4 25.7,-0.75 25.85,-1.9 25.85,-2.85 25.75,-3.6 L25.75,-3.625 L26,-7.4 C26,-8 23.9,-13.7 23.05,-14.95 L23,-14.95 C21.85,-17.7 16.3,-22.45 10.35,-25.2z M1.35,-26.45 L1.5,-26.4 C6.85,-26.75 11.9,-24.9 16.55,-20.95 21.2,-17 23.65,-13.55 23.9,-10.6 24.15,-7.7 24.3,-5.8 24.25,-4.9 24.45,-5.5 24.65,-6.3 24.8,-7.15 24.85,-6.8 24.9,-5.7 25,-3.8 25.05,-1.95 24.95,-0.3 24.7,1.1 24.45,2.5 24.1,3.65 23.75,4.6 24.05,5.3 24.1,6.4 23.9,7.95 23.65,9.45 23.4,10.6 23.15,11.45 23.15,11.4 23.2,11.35 23.25,11.35 23.5,11.3 23.55,11.2 23.65,11.15 23.6,11.15 23.6,11.15 23.6,11.2 23.5,11.7 22.8,13.15 21.55,15.55 20.25,17.95 18.6,20.05 16.55,21.8 14.5,23.55 13.1,24.6 12.35,24.9 11.6,25.2 10.1,25.65 7.95,26.25 5.8,26.85 3.6,26.9 1.35,26.35 -0.85,25.8 -2.9,25.15 -4.8,24.35 -6.75,23.55 -8.35,22.8 -9.65,22.1 -11,21.35 -12.3,20.45 -13.65,19.35 -15,18.2 -16.45,16.7 -18,14.8 -19.55,12.85 -20.65,11.15 -21.4,9.6 -21.15,10.15 -20.9,10.7 -20.8,10.95 -23.55,6.1 -24.45,1.55 -24.45,-3.3 -24.45,-10.95 -21.1,-15.9 -19.75,-18.45 -19.7,-18.5 -19.7,-18.55 -19.65,-18.6 -19.3,-19 -18.85,-19.5 -18.25,-20.15 -17.7,-20.8 -16.7,-21.75 -15.25,-22.9 -13.8,-24.1 -11.45,-25.15 -8.3,-26.1 -8.4,-26.1 -8.55,-26.1 -8.7,-26.05 -5.95,-26.7 -3.3,-27.05 -0.3,-27.05 -0.1,-27.05 1,-26.95 1.9,-26.85 1.7,-26.8 1.45,-26.75 1.2,-26.7 1.2,-26.45 1.5,-26.4 1.5,-26.4z"/>
        <path id="path9" fill="#FFC" d="M1.5,-26.4 C1.5,-26.4 1.2,-26.45 1.2,-26.7 1.45,-26.75 1.7,-26.8 1.9,-26.85 1,-26.95 -0.1,-27.05 -0.3,-27.05 -3.3,-27.05 -5.95,-26.7 -8.7,-26.05 -8.55,-26.1 -8.4,-26.1 -8.3,-26.1 -11.45,-25.15 -13.8,-24.1 -15.25,-22.9 -16.7,-21.75 -17.7,-20.8 -18.25,-20.15 -18.85,-19.5 -19.3,-19 -19.65,-18.6 -19.7,-18.55 -19.7,-18.5 -19.75,-18.45 -21.1,-15.9 -24.45,-10.95 -24.45,-3.3 -24.45,1.55 -23.55,6.1 -20.8,10.95 -20.9,10.7 -21.15,10.15 -21.4,9.6 -20.65,11.15 -19.55,12.85 -18,14.8 -16.45,16.7 -15,18.2 -13.65,19.35 -12.3,20.45 -11,21.35 -9.65,22.1 -8.35,22.8 -6.75,23.55 -4.8,24.35 -2.9,25.15 -0.85,25.8 1.35,26.35 3.6,26.9 5.8,26.85 7.95,26.25 10.1,25.65 11.6,25.2 12.35,24.9 13.1,24.6 14.5,23.55 16.55,21.8 18.6,20.05 20.25,17.95 21.55,15.55 22.8,13.15 23.5,11.7 23.6,11.2 23.6,11.15 23.6,11.15 23.65,11.15 23.55,11.2 23.5,11.3 23.25,11.35 23.2,11.35 23.15,11.4 23.15,11.45 23.4,10.6 23.65,9.45 23.9,7.95 24.1,6.4 24.05,5.3 23.75,4.6 24.1,3.65 24.45,2.5 24.7,1.1 24.95,-0.3 25.05,-1.95 25,-3.8 24.9,-5.7 24.85,-6.8 24.8,-7.15 24.65,-6.3 24.45,-5.5 24.25,-4.9 24.3,-5.8 24.15,-7.7 23.9,-10.6 23.65,-13.55 21.2,-17 16.55,-20.95 11.9,-24.9 6.85,-26.75 1.5,-26.4z M10.55,-18.95 C10.7,-18.4 10.8,-17.55 10.8,-17.05 11,-15.95 11.2,-15.05 11.4,-14.25 11.6,-13.65 11.85,-12.7 12.1,-11.4 12.35,-10.15 12.6,-8.75 12.85,-7.25 13.1,-5.7 13.2,-4.75 13.25,-4.4 13.3,-4.05 13.3,-3.8 13.3,-3.65 L13.7,3.25 C13.7,3.8 13.65,4.4 13.65,4.85 14.3,4.95 15.9,4.9 18.55,4.75 21.2,4.5 22.5,4.25 22.45,3.95 L22.5,4.1 C23,4.05 23.5,4 23.85,4 22.85,4.3 22,4.55 21.25,4.7 21.85,4.65 22.25,4.65 22.6,4.7 L22.65,4.85 C21.75,5.15 20,5.45 17.4,5.75 16.25,5.85 15.65,5.9 15.65,5.95 L15.625,5.95 L13.5,6.05 C12.9,11 11.15,16.5 10.05,20 L9.6,20 C9.6,20 9.5,20.25 9.5,19.75 9.5,19.7 9.65,19.2 9.95,18.2 9.8,18.35 9.75,18.45 9.7,18.55 9.7,18.55 9.45,18.5 9.35,18.35 10.5,15.6 11.35,10.9 11.85,6.15 L11.85,6.125 L8.55,6.3 C8.05,6.3 7.5,6.3 6.7,6.25 6.1,6.3 5.2,6.3 4.35,6.3 L-3.7,5.25 C-4.85,5.15 -5.95,4.9 -7.45,4.5 -9.7,4.3 -12.2,4.05 -14.1,3.9 L-14.15,3.3 C-13.4,3.35 -12.25,3.45 -10.9,3.55 -11.9,3.35 -13,3.1 -13.9,2.9 L-13.7,2.8 C-12.85,2.95 -11.2,3.35 -9.2,3.7 -6.05,4.5 -0.9,5 6.3,5.2 7.9,5.2 9.3,5.2 10.35,5.15 10.9,5.1 11.5,5.05 11.95,5 12,4.05 12.05,2.9 12.05,1.85 12.05,1.35 12.35,-0.45 12.35,-1.75 12.35,-2.15 12.4,-2.65 12.5,-3.4 L12.475,-3.425 L12.25,-7.05 C12.25,-7.95 11.1,-13.15 11.1,-14.9 11.1,-16.3 10.6,-16.85 10.25,-18.55 L10.375,-18.575 L10.4,-18.55 C10.35,-18.6 10.3,-18.8 10.3,-18.9 L10.55,-18.95z"/>
        <path id="path12" fill="#630" d="M10.55,-18.95 L10.3,-18.9 C10.3,-18.8 10.35,-18.6 10.4,-18.55 L10.375,-18.575 L10.25,-18.55 C10.6,-16.85 11.1,-16.3 11.1,-14.9 11.1,-13.15 12.25,-7.95 12.25,-7.05 L12.475,-3.425 L12.5,-3.4 C12.4,-2.65 12.35,-2.15 12.35,-1.75 12.35,-0.45 12.05,1.35 12.05,1.85 12.05,2.9 12,4.05 11.95,5 11.5,5.05 10.9,5.1 10.35,5.15 9.3,5.2 7.9,5.2 6.3,5.2 -0.9,5 -6.05,4.5 -9.2,3.7 -11.2,3.35 -12.85,2.95 -13.7,2.8 L-13.9,2.9 C-13,3.1 -11.9,3.35 -10.9,3.55 -12.25,3.45 -13.4,3.35 -14.15,3.3 L-14.1,3.9 C-12.2,4.05 -9.7,4.3 -7.45,4.5 -5.95,4.9 -4.85,5.15 -3.7,5.25 L4.35,6.3 C5.2,6.3 6.1,6.3 6.7,6.25 7.5,6.3 8.05,6.3 8.55,6.3 L11.85,6.125 L11.85,6.15 C11.35,10.9 10.5,15.6 9.35,18.35 9.45,18.5 9.7,18.55 9.7,18.55 9.75,18.45 9.8,18.35 9.95,18.2 9.65,19.2 9.5,19.7 9.5,19.75 9.5,20.25 9.6,20 9.6,20 L10.05,20 C11.15,16.5 12.9,11 13.5,6.05 L15.625,5.95 L15.65,5.95 C15.65,5.9 16.25,5.85 17.4,5.75 20,5.45 21.75,5.15 22.65,4.85 L22.6,4.7 C22.25,4.65 21.85,4.65 21.25,4.7 22,4.55 22.85,4.3 23.85,4 23.5,4 23,4.05 22.5,4.1 L22.45,3.95 C22.5,4.25 21.2,4.5 18.55,4.75 15.9,4.9 14.3,4.95 13.65,4.85 13.65,4.4 13.7,3.8 13.7,3.25 L13.3,-3.65 C13.3,-3.8 13.3,-4.05 13.25,-4.4 13.2,-4.75 13.1,-5.7 12.85,-7.25 12.6,-8.75 12.35,-10.15 12.1,-11.4 11.85,-12.7 11.6,-13.65 11.4,-14.25 11.2,-15.05 11,-15.95 10.8,-17.05 10.8,-17.55 10.7,-18.4 10.55,-18.95z M12.65,6.1 C12.6,6.7 12.5,7.2 12.4,7.7 12.4,7.25 12.4,6.7 12.45,6.1 L12.425,6.1 L12.65,6.1z M12.8,4.95 C12.8,4.95 12.65,4.95 12.5,4.95 12.55,3.55 12.65,2.3 12.75,1 L12.75,0.975 L12.9,3.3 C12.9,3.85 12.85,4.45 12.8,4.95z M23.2,-14.15 C23.7,-13.1 24.1,-12.1 24.3,-11.4 23.8,-12.4 23.2,-13.45 23.2,-13.85 23.2,-13.95 23.2,-14.05 23.2,-14.15z M-16.95,-22.35 C-15.1,-23.65 -12.95,-24.75 -10.8,-25.45 -12.55,-24.75 -14.95,-23.5 -17.05,-22.05 -17,-22.15 -16.95,-22.25 -16.95,-22.35z"/>
        <path id="path15" fill="#FFC" d="M12.65,6.1 L12.425,6.1 L12.45,6.1 C12.4,6.7 12.4,7.25 12.4,7.7 12.5,7.2 12.6,6.7 12.65,6.1z"/>
        <path id="path18" fill="#FFC" d="M12.8,4.95 C12.85,4.45 12.9,3.85 12.9,3.3 L12.75,0.975 L12.75,1 C12.65,2.3 12.55,3.55 12.5,4.95 12.65,4.95 12.8,4.95 12.8,4.95z"/>
      </g>
      <animate attributeName="display" begin="0s" repeatCount="indefinite" dur="0.167s" keyTimes="0;0.399;0.798;1" values="none;inline;none;none"/>
    </g>
    <g id="sideSkull2_0">
      <g id="element">
        <path id="path" fill="#630" d="M3.85,-26.5 C3.25,-26.5 2.65,-26.5 1.9,-26.55 0.9,-26.65 -0.15,-26.7 -1.2,-26.75 -1.15,-26.75 -1.3,-26.75 -1.4,-26.75 L-1.425,-26.75 Q-3.504,-26.825 -5,-26.7 -6.325,-26.571 -7.675,-26.25 L-7.65,-26.25 C-10.95,-25.65 -13.7,-24.65 -15.75,-23.4 -22.8,-20.6 -25.65,-9.2 -25.65,-3.6 -25.65,-2.7 -25,1.8 -25,1.9 -25,2.1 -24.95,2.45 -24.9,2.55 L-24.925,2.55 L-24.95,2.55 -25,3 C-25,3.65 -24.7,4.7 -24.35,5.7 -24.25,6 -24.25,6.1 -24.25,6.2 -24.25,6.7 -23.8,7.05 -23.8,7.55 -23.8,8.05 -23.35,8.35 -23.35,8.85 -23.35,8.95 -23.2,9.3 -22.95,9.6 -22.05,12 -20.3,14.05 -18.45,16.15 L-18.25,15.85 C-18.3,15.8 -18.35,15.7 -18.35,15.6 -15.9,18.45 -13.2,21.15 -11.6,21.15 -11.1,21.45 -10.55,21.8 -10.35,21.95 -7.1,24.5 -3.6,26.55 0.95,27.25 1.85,27.55 3.05,27.65 5.2,27.65 5.8,27.65 6.4,27.6 6.8,27.55 7.55,27.45 8.25,27.4 8.65,27.3 8.6,27.3 8.55,27.3 8.45,27.25 8.65,27.2 8.65,27.2 8.65,27.2 9.4,27.05 9.8,26.9 10.2,26.75 14.55,25.05 18.45,21.55 21.15,18.15 24.9,14 25.15,9.9 25.15,4.85 25.15,4.65 25.15,4.45 25.15,4.2 25.65,4.1 26,4.05 26.35,4 25.95,4 25.55,4.05 25.15,4.1 25.15,4.05 25.15,4 25.15,3.85 25.85,3.7 26.15,3.65 26.4,3.6 26.1,3.55 25.7,3.55 25.15,3.6 25.15,-0.35 25.45,-1.65 25.45,-3.45 25.45,-3.95 25.35,-3.8 25.4,-3.8 25.45,-4.65 25.5,-5.55 25.5,-6.2 25.5,-11.4 22.3,-20.85 10.65,-25.25 10.4,-25.45 10,-25.65 9.05,-25.8 7.4,-26.35 5.35,-26.8 3.05,-27.1 L2.9,-27 C3.9,-26.8 4.85,-26.55 5.5,-26.3 5.15,-26.4 4.55,-26.45 3.85,-26.5z M24.1,4.15 C23.55,4.2 22.95,4.25 22.25,4.3 23.1,4.2 23.65,4.1 24.1,4 24.1,4.15 24.1,4.15 24.1,4.15z"/>
        <path id="path1" fill="#FFC" d="M10.75,-15.5 L10.875,-15.525 L10.9,-15.5 C10.5,-16.9 10,-18.6 9.85,-19.65 L10.05,-19.65 C11.15,-14.7 12.35,-12.9 12.35,-8.7 12.35,-8.2 12.85,-6.2 12.85,-5.7 L12.825,-4.45 L12.85,-4.45 C13.1,-2.25 13.3,-0.25 13.3,1.7 12.9,2.75 12.8,3.9 12.95,5.05 13.2,5.05 13.3,5.05 13.4,5.05 16.8,4.55 21.35,3.8 24.15,3.65 24.2,3.4 24.25,2.9 24.3,2.4 24.2,2.55 24.1,2.7 24,2.85 23.95,2.4 24.05,1.9 24.3,1.3 24.55,0.7 24.75,-0.2 24.95,-1.45 25.15,-2.7 25.1,-4.9 24.85,-8 24.55,-11.15 23.15,-14.15 20.6,-16.95 18.05,-19.8 16.2,-21.6 14.95,-22.45 13.7,-23.3 11.3,-24.15 7.65,-24.9 4,-25.7 1,-26.05 -1.35,-25.9 -3.75,-25.8 -5.25,-25.75 -5.9,-25.7 -6.35,-25.65 -6.8,-25.55 -7.25,-25.45 -8.2,-25.3 -9.5,-25.15 -11.25,-25 -13,-24.9 -15.5,-23.4 -18.7,-20.5 -21.95,-17.65 -23.25,-13.75 -22.7,-8.9 L-22.95,-8.9 C-22.95,-9.2 -23.15,-9.55 -23.15,-10.05 -23.15,-10.65 -23.1,-11.25 -23.05,-12.05 -23.05,-12 -23.05,-12 -23.1,-11.95 -23.6,-10.1 -24,-8.6 -24.35,-7.25 -24.15,-8.35 -23.9,-9.5 -23.65,-10.75 -24.4,-8.85 -24.8,-6.6 -24.9,-4.05 -25,-0.85 -24.6,2.15 -23.7,4.9 -22.85,7.65 -22.05,9.5 -21.4,10.4 -20.75,11.3 -20.4,11.85 -20.3,12.1 -19.9,12.45 -19.65,12.75 -19.5,13.05 -17.8,15.55 -15.2,17.9 -11.7,20.15 -10.9,20.8 -10.25,21.35 -9.55,21.7 -8.1,22.65 -5.7,23.95 -2.25,25.5 1.15,27.05 4.35,27.45 7.3,26.7 10.25,25.9 12.7,24.7 14.7,23.15 14.05,23.55 13.25,24 12.4,24.45 12.4,24.45 12.15,24.3 12.05,24.15 15.3,22.6 17.65,20.95 19.1,19.2 20.55,17.4 21.5,16.1 21.95,15.25 22.4,14.4 22.7,13.8 22.85,13.55 22.9,13.45 23.15,12.95 23.5,12 23.6,11.55 23.8,10.7 24.05,9.35 24.3,8.05 24.3,6.4 24.05,4.4 20.6,4.9 18.2,5.45 14.3,5.6 13.9,5.7 13.5,5.8 12.85,5.8 L12.65,7.65 C12.6,8.15 11.75,12.3 11.75,13.5 11.75,13.65 11.65,14.1 11.5,14.6 11.05,17.1 10.7,18.95 10.6,19.25 10.6,19.25 10.45,19.55 10.45,19.05 10.45,18.55 10.8,17 10.8,16.5 10.8,16.5 10.8,16.5 10.85,16.35 10.25,17.8 9.65,19.2 9.6,19.25 9.6,19.25 9.45,19.3 9.3,19.2 9.4,18.85 10.45,13.85 11.4,8.9 11.45,8.25 11.55,7.15 11.65,6 10.5,6.15 9.3,6.15 7.95,6.05 6.6,5.9 3.9,5.7 -0.05,5.4 -4,5.05 -7.15,4.55 -9.4,3.85 L-14.9,3.25 -15.05,2.75 -14.7,2.65 -2.85,4 C-0.9,4.25 0.4,4.55 1.1,4.95 2.85,5.3 4.85,5.3 7.1,4.95 7.4,4.85 10.65,5 11.7,5.05 12.25,1.6 12.4,-1.2 12.1,-3.45 11.7,-7.65 11,-12.5 10.75,-15.5z"/>
      </g>
      <animate attributeName="display" begin="0s" repeatCount="indefinite" dur="0.167s" keyTimes="0;0.399;1" values="inline;none;none"/>
    </g>
  </g>
</svg>