<?xml version="1.0" encoding="utf-8"?>
<!-- Generator: flash2svg, http://dissentgraphics.com/tools/flash2svg -->
<svg xmlns:xlink="http://www.w3.org/1999/xlink" id="Avatar" image-rendering="auto" baseProfile="basic" version="1.1" x="0px" y="0px" width="68" height="126" xmlns="http://www.w3.org/2000/svg" viewBox="0 0 68 126">
  <defs>
    <pattern id="bitmap" patternContentUnits="userSpaceOnUse" patternUnits="userSpaceOnUse" width="200" height="200" viewBox="0 0 200 200" patternTransform="matrix(1 0 0 1 -51.699 19.7)">
      <symbol id="Avatar_Texture_symbol" viewBox="0 0 200 200">
        <image id="Avatar_Texture" xlink:href="Avatar_Texture" width="200" height="200"/>
      </symbol>
      <use id="Avatar_Texture_use" width="200" height="200" y="0" x="0" xlink:href="#Avatar_Texture_symbol" externalResourcesRequired="true"/>
    </pattern>
    <pattern id="bitmap1" patternContentUnits="userSpaceOnUse" patternUnits="userSpaceOnUse" width="200" height="200" viewBox="0 0 200 200" patternTransform="matrix(1.08154296875 0 0 1.0880126953125 -105.599 -104.199)">
      <symbol id="Avatar_Texture_symbol" viewBox="0 0 200 200">
        <image id="Avatar_Texture" xlink:href="Avatar_Texture" width="200" height="200"/>
      </symbol>
      <use id="Avatar_Texture_use" width="200" height="200" y="0" x="0" xlink:href="#Avatar_Texture_symbol" externalResourcesRequired="true"/>
    </pattern>
  </defs>
  <g id="sideFootOffside3" overflow="visible">
    <g id="sideFootOffside2_1_0">
      <g id="element3">
        <path id="path16" fill="url(#bitmap1)" d="M4.765,0.728 C2.872,0.13 1.628,-0.197 1.088,-0.306 0.547,-0.414 -0.21,-0.523 -1.13,-0.578 -2.103,-0.741 -2.968,-0.632 -3.779,-0.251 -4.699,0.075 -5.294,0.456 -5.564,0.891 -5.726,1.218 -6.051,1.598 -6.267,1.925 -6.429,2.197 -6.483,2.469 -6.483,2.741 -6.591,3.176 -6.591,3.72 -6.429,4.319 -6.483,4.645 -6.429,4.863 -6.321,5.08 -6.159,5.787 -5.672,6.277 -5.131,6.658 -4.374,6.984 -3.942,7.202 -3.779,7.147 Q-3.671,7.093 -2.319,7.909 C-1.616,8.453 -0.589,8.725 0.276,8.943 0.925,9.106 1.52,9.215 2.007,9.269 2.169,9.269 2.277,9.269 2.44,9.323 L4.711,9.16 5.684,9.487 C5.955,9.65 6.387,9.704 7.144,9.65 7.847,9.487 8.496,9.16 8.983,8.725 8.983,8.725 8.983,8.725 9.091,8.671 9.578,8.344 9.632,7.855 9.47,7.311 L8.875,6.821 9.307,6.93 C9.578,6.984 9.902,6.93 10.227,6.875 10.551,6.821 10.93,6.495 11.146,6.114 11.416,5.57 11.308,5.135 10.984,4.754 L10.713,4.645 C11.146,4.645 11.47,4.482 11.47,4.047 11.524,3.666 11.362,3.285 11.092,2.959 10.767,2.795 10.335,2.686 9.686,2.741 8.929,2.85 8.334,2.686 8.064,2.251 7.739,1.816 6.658,1.381 4.765,0.728z"/>
      </g>
      <g id="element4">
        <g id="drawingObject1">
          <path id="path17" fill="#000" fill-opacity="0.2" d="M11.156,5.157 C10.669,6.027 10.02,6.462 9.155,6.408 L8.29,6.081 8.776,6.625 C9.155,6.897 9.642,6.897 10.128,6.68 10.615,6.462 10.94,6.245 11.048,5.973 11.156,5.646 11.21,5.429 11.264,5.211 L11.156,5.157z"/>
        </g>
        <g id="drawingObject2">
          <path id="path18" fill="#000" fill-opacity="0.2" d="M1.301,1.001 L1.751,0.251 C1.151,-0.099 0.351,-0.249 -0.699,-0.199 -1.699,-0.199 -2.899,0.001 -4.299,0.501 -5.699,1.001 -6.449,1.651 -6.599,2.451 -6.699,3.251 -6.649,4.151 -6.399,5.001 -6.199,5.851 -5.649,6.501 -4.799,6.851 -3.999,7.251 -3.299,7.551 -2.799,7.801 -2.299,8.001 -1.699,8.301 -0.899,8.651 -0.149,9.051 1.151,9.251 3.051,9.301 L4.101,9.201 5.151,9.601 C5.451,9.801 5.951,9.901 6.651,9.851 7.401,9.851 7.951,9.751 8.451,9.401 8.951,9.151 9.151,8.901 9.151,8.451 8.451,9.101 7.601,9.401 6.751,9.301 Q5.901,9.251 5.401,8.751 L4.951,8.301 4.401,8.301 C3.901,8.301 2.551,8.201 1.201,7.951 0.601,7.801 0.101,7.551 -0.499,7.301 L-1.149,6.701 -2.249,6.151 C-3.299,5.001 -3.299,4.301 -2.249,4.051 -1.199,3.801 -0.049,2.801 1.301,1.001z"/>
        </g>
        <g id="drawingObject3">
          <path id="path19" fill="#000" fill-opacity="0.2" d="M9.966,3.688 L10.723,4.232 11.21,4.123 C11.264,4.014 11.264,4.014 11.264,4.014 11.21,4.014 11.264,3.851 11.372,3.742 L11.318,3.742 11.318,2.981 C11.156,3.579 10.669,3.851 9.966,3.688z"/>
        </g>
      </g>
      <g id="element5">
        <g id="drawingObject4">
          <path id="path20" fill="#000" fill-opacity="0.2" d="M1.051,4.151 C1.101,4.001 1.601,3.401 2.451,2.351 3.301,1.351 3.101,0.551 1.801,-0.049 2.101,-0.349 1.201,-0.399 -0.999,-0.199 -3.249,0.101 -4.649,0.301 -5.099,0.451 -5.599,0.651 -6.049,1.401 -6.299,2.651 -6.649,3.901 -6.549,4.851 -6.049,5.601 -5.549,6.301 -4.899,6.701 -4.099,6.951 -3.349,7.101 -2.849,7.351 -2.599,7.651 -2.299,7.901 -1.599,8.251 -0.349,8.601 0.851,8.951 1.751,9.101 2.451,9.151 L4.701,9.051 5.701,9.551 6.401,9.651 C6.901,9.701 7.551,9.551 8.351,9.151 9.151,8.801 9.551,8.251 9.351,7.651 9.301,7.901 9.051,8.151 8.551,8.251 7.951,8.351 7.401,8.401 7.001,8.401 Q6.301,8.401 5.951,7.701 C5.701,7.201 5.751,6.751 6.001,6.351 L5.601,6.251 C5.101,6.401 4.351,6.451 3.251,6.501 2.101,6.551 1.351,6.301 0.901,5.751 0.401,5.201 0.301,4.801 0.551,4.651 0.751,4.501 0.951,4.351 1.051,4.151z"/>
        </g>
        <g id="drawingObject5">
          <path id="path21" fill="#000" fill-opacity="0.2" d="M9.425,3.525 C9.912,3.579 10.94,4.558 10.94,4.558 11.318,4.177 11.535,3.851 11.481,3.47 11.426,3.144 11.264,2.926 11.102,2.981 11.048,3.416 10.345,3.579 8.993,3.416 L9.425,3.525z"/>
        </g>
        <g id="drawingObject6">
          <path id="path22" fill="#000" fill-opacity="0.2" d="M11.048,4.721 L10.886,4.449 C10.832,4.939 10.399,5.32 9.642,5.592 8.885,5.864 8.127,5.809 7.424,5.374 L8.831,6.517 8.885,6.517 C9.155,6.68 9.534,6.734 10.074,6.517 10.615,6.462 10.94,6.136 11.21,5.701 11.318,5.537 11.264,5.211 11.048,4.721z"/>
        </g>
      </g>
    </g>
    <g id="sideFootOffside2_0_4">
      <g id="element2">
        <path id="path12" fill="#630" d="M2.8,-0.2 Q1.741,-0.348 0.7,-0.375 L0.7,-0.35 C-0.75,-0.55 -2.2,-0.45 -3.65,-0.1 -4.9,0.25 -5.8,0.8 -6.25,1.6 -6.5,1.85 -6.7,2.25 -6.75,2.7 -7,4.45 -6.55,5.75 -5.3,6.7 -5.35,6.65 -5.35,6.65 -5.4,6.6 -4.65,7.15 -3.85,7.55 -2.95,7.75 -1.3,8.8 0.55,9.3 2.6,9.35 3.35,9.4 3.95,9.3 4.3,9.1 4.45,9.2 4.6,9.3 4.75,9.35 4.9,9.4 5.05,9.4 5.2,9.45 6.2,9.9 7.25,9.85 8.35,9.3 9.7,8.65 10,7.9 9.25,6.95 9.4,6.95 9.6,6.95 9.8,6.9 10.05,6.85 10.3,6.75 10.45,6.65 11.3,6.25 11.45,5.65 11,4.85 11.05,4.8 11.15,4.8 11.2,4.75 11.55,4.5 11.7,4.15 11.6,3.75 11.75,3.2 11.5,2.75 10.9,2.5 10.75,2.5 10.55,2.5 10.35,2.45 9.8,2.4 9.35,2.45 8.95,2.6 8.8,2.6 8.7,2.6 8.6,2.65 8.45,2.45 8.3,2.25 8.05,2.1 7.35,1.65 6.65,1.25 5.9,0.85 5.65,0.8 5.4,0.7 5.15,0.6 4.55,0.4 3.95,0.25 3.35,0.1 3.6,0.1 3.9,0.1 4.15,0.15 3.7,0 3.25,-0.1 2.8,-0.2z M11.25,3.95 C11.1,4.2 10.95,4.4 10.85,4.6 10.8,4.5 10.7,4.4 10.6,4.3 L10.5,4.25 C10.6,4.45 10.65,4.65 10.7,4.85 L10.675,4.825 L10.65,4.85 10.675,4.85 L10.7,4.85 C10.7,4.95 10.7,5.05 10.7,5.15 10.75,5.6 10.7,5.95 10.55,6.2 10,6.45 9.45,6.55 8.8,6.5 8.75,6.45 8.75,6.45 8.7,6.4 8.65,6.4 8.65,6.4 8.65,6.45 L8.625,6.475 L8.65,6.5 C8.5,6.45 8.4,6.45 8.25,6.4 8.3,6.5 8.4,6.6 8.45,6.65 8.4,6.6 8.4,6.6 8.35,6.6 8.4,6.65 8.5,6.7 8.6,6.75 8.65,6.9 8.75,7.15 9,7.4 9.3,7.7 9.3,8 9.05,8.3 8,9.35 6.85,9.7 5.55,9.35 5.5,9.25 5.45,9.2 5.3,9.15 5.1,9.05 4.9,8.95 4.65,8.85 L4.65,8.9 C4.6,8.85 4.5,8.85 4.4,8.9 L4.375,8.925 L4.4,8.95 C3.35,9.05 2.25,9 1.2,8.85 -0.25,8.65 -1.65,8.2 -2.9,7.55 -3.05,7.3 -3.35,7.15 -3.7,7 -4.45,6.65 -5.2,6.25 -5.9,5.75 -5.95,5.6 -6.05,5.4 -6.1,5.25 -6.45,4.25 -6.55,3.3 -6.4,2.35 -6.15,1.8 -5.8,1.4 -5.25,1.05 -4.2,0.45 -3.05,0.05 -1.9,-0.2 -1.8,-0.15 -1.7,-0.15 -1.6,-0.15 L-1.575,-0.15 L-1.55,-0.15 C-1.1,-0.1 -0.65,-0.05 -0.1,-0.05 0.45,-0.05 0.95,-0.05 1.45,0 4.15,0.35 6.6,1.3 8.75,2.95 8.7,2.9 8.7,2.9 8.7,2.85 8.8,2.9 8.95,2.9 9.1,2.9 9.45,2.85 9.75,2.85 10,2.8 10.05,2.85 10.1,2.85 10.15,2.85 11,3 11.4,3.35 11.4,3.85 11.35,3.9 11.3,3.9 11.25,3.95z"/>
        <path id="path13" fill="#FFC" d="M11.25,3.95 C11.3,3.9 11.35,3.9 11.4,3.85 11.4,3.35 11,3 10.15,2.85 10.1,2.85 10.05,2.85 10,2.8 9.75,2.85 9.45,2.85 9.1,2.9 8.95,2.9 8.8,2.9 8.7,2.85 8.7,2.9 8.7,2.9 8.75,2.95 6.6,1.3 4.15,0.35 1.45,0 0.95,-0.05 0.45,-0.05 -0.1,-0.05 -0.65,-0.05 -1.1,-0.1 -1.55,-0.15 L-1.575,-0.15 L-1.6,-0.15 C-1.7,-0.15 -1.8,-0.15 -1.9,-0.2 -3.05,0.05 -4.2,0.45 -5.25,1.05 -5.8,1.4 -6.15,1.8 -6.4,2.35 -6.55,3.3 -6.45,4.25 -6.1,5.25 -6.05,5.4 -5.95,5.6 -5.9,5.75 -5.2,6.25 -4.45,6.65 -3.7,7 -3.35,7.15 -3.05,7.3 -2.9,7.55 -1.65,8.2 -0.25,8.65 1.2,8.85 2.25,9 3.35,9.05 4.4,8.95 L4.375,8.925 L4.4,8.9 C4.5,8.85 4.6,8.85 4.65,8.9 L4.65,8.85 C4.9,8.95 5.1,9.05 5.3,9.15 5.45,9.2 5.5,9.25 5.55,9.35 6.85,9.7 8,9.35 9.05,8.3 9.3,8 9.3,7.7 9,7.4 8.75,7.15 8.65,6.9 8.6,6.75 8.5,6.7 8.4,6.65 8.35,6.6 8.4,6.6 8.4,6.6 8.45,6.65 8.4,6.6 8.3,6.5 8.25,6.4 8.4,6.45 8.5,6.45 8.65,6.5 L8.625,6.475 L8.65,6.45 C8.65,6.4 8.65,6.4 8.7,6.4 8.75,6.45 8.75,6.45 8.8,6.5 9.45,6.55 10,6.45 10.55,6.2 10.7,5.95 10.75,5.6 10.7,5.15 10.7,5.05 10.7,4.95 10.7,4.85 L10.675,4.85 L10.65,4.85 10.675,4.825 L10.7,4.85 C10.65,4.65 10.6,4.45 10.5,4.25 L10.6,4.3 C10.7,4.4 10.8,4.5 10.85,4.6 10.95,4.4 11.1,4.2 11.25,3.95z"/>
      </g>
      <animate attributeName="display" begin="0s" repeatCount="indefinite" dur="0.167s" keyTimes="0;0.798;1" values="none;inline;none"/>
    </g>
    <g id="sideFootOffside2_0_2">
      <g id="element1">
        <path id="path6" fill="#630" d="M-1,-0.425 Q-1.962,-0.497 -2.9,-0.45 C-2.65,-0.4 -2.35,-0.4 -2.1,-0.35 -2.85,-0.3 -3.55,-0.1 -4.25,0.15 -4.3,0.2 -4.4,0.2 -4.45,0.25 -4.2,0.1 -3.85,-0.05 -3.5,-0.2 -5.45,0.2 -6.5,1.35 -6.75,3.3 -6.9,4.5 -6.65,5.4 -6,6 -5.85,6.15 -5.7,6.25 -5.55,6.4 -4.7,7.1 -3.8,7.55 -2.8,7.75 -2.4,8.15 -1.9,8.45 -1.25,8.7 -0.3,9.05 0.65,9.3 1.6,9.45 1.95,9.5 2.3,9.55 2.65,9.5 2.75,9.5 2.85,9.5 2.95,9.5 3.4,9.45 3.8,9.4 4.15,9.25 4.35,9.35 4.6,9.45 4.9,9.5 5.05,9.55 5.25,9.55 5.4,9.6 5.7,9.7 6,9.8 6.35,9.85 7.25,10 8.05,9.75 8.7,9.2 9.65,8.4 9.85,7.7 9.4,7.1 9.55,7.05 9.7,7.05 9.85,7 10.6,6.85 11.1,6.45 11.35,5.85 11.3,5.95 11.2,6.05 11.05,6.1 11.05,6.05 11.05,6 11.1,5.95 11.35,5.5 11.35,5.1 11.1,4.7 11.2,4.65 11.3,4.5 11.45,4.3 11.85,3.55 11.65,3 10.9,2.55 10.75,2.5 10.6,2.5 10.45,2.45 9.75,2.3 9.1,2.3 8.55,2.55 8.65,2.55 8.75,2.55 8.9,2.6 8.75,2.6 8.65,2.6 8.55,2.65 8.4,2.35 8.15,2.1 7.8,1.85 6.95,1.35 6.05,0.95 5,0.6 4.65,0.45 4.35,0.35 4,0.25 2.75,-0.05 1.45,-0.25 0.2,-0.3 0.05,-0.35 -0.05,-0.35 -0.15,-0.35 0,-0.35 0.1,-0.35 0.25,-0.35 -0.2,-0.4 -0.6,-0.45 -1,-0.4"/>
        <path id="path7" fill="#FFC" d="M-0.75,-0.15 C-1,-0.2 -1.2,-0.2 -1.45,-0.25 -2.85,-0.05 -4.15,0.45 -5.35,1.3 -5.75,1.6 -6.05,1.95 -6.25,2.4 -6.4,2.8 -6.45,3.25 -6.45,3.7 -6.5,4.15 -6.45,4.6 -6.3,5.05 -5.85,6 -5.05,6.65 -4,6.95 -3.65,7.05 -3.3,7.2 -3.05,7.45 -3.1,7.4 -3.1,7.35 -3.15,7.3 -1.9,8.2 -0.4,8.75 1.3,9 2.3,9.1 3.3,9.1 4.3,8.95 4.25,8.9 4.25,8.9 4.2,8.85 4.25,8.9 4.25,8.9 4.3,8.9 L4.35,8.9 4.325,8.925 L4.35,8.95 C4.4,9 4.5,9.05 4.6,9.1 5.2,9.15 5.8,9.2 6.45,9.3 6.8,9.35 7.15,9.35 7.5,9.3 L7.55,9.4 C8.2,9.15 8.7,8.6 9.15,7.8 9.25,7.65 9.25,7.5 9.1,7.35 9.05,7.25 8.95,7.15 8.9,7.1 8.55,7.05 8.3,6.9 8.05,6.65 8.2,6.7 8.35,6.7 8.5,6.75 8.35,6.6 8.15,6.5 8,6.45 8,6.4 8,6.4 8.05,6.4 8.15,6.35 8.25,6.35 8.35,6.35 L8.4,6.35 C8.55,6.45 8.7,6.55 8.85,6.6 9,6.65 9.15,6.65 9.3,6.7 9.35,6.7 9.4,6.7 9.45,6.75 9.9,6.75 10.2,6.65 10.45,6.4 10.5,6.35 10.55,6.3 10.6,6.25 10.7,6.05 10.8,5.8 10.85,5.5 10.9,4.95 10.75,4.5 10.3,4.15 10.1,4 10,3.85 10,3.75 10.45,4 10.75,4.3 10.95,4.55 11.65,3.7 11.45,3.15 10.35,2.8 10.25,2.95 9.9,3 9.25,2.95 9.05,2.9 8.85,2.9 8.65,2.85 8.65,2.85 8.65,2.85 8.65,2.9 8.6,2.85 8.55,2.85 8.5,2.8 8.4,2.75 8.3,2.75 8.2,2.7 8.25,2.7 8.25,2.7 8.3,2.7 6.75,1.7 5.1,0.95 3.3,0.5 2.05,0.25 0.7,0.05 -0.75,-0.15z"/>
      </g>
      <animate attributeName="display" begin="0s" repeatCount="indefinite" dur="0.167s" keyTimes="0;0.399;0.798;1" values="none;inline;none;none"/>
    </g>
    <g id="sideFootOffside2_0_0">
      <g id="element">
        <path id="path" fill="#630" d="M1.95,-0.15 Q1.752,-0.174 1.55,-0.2 C1.7,-0.25 1.8,-0.25 1.9,-0.3 1.35,-0.35 0.75,-0.35 0.15,-0.35 -1.25,-0.5 -2.6,-0.35 -3.95,0 -3.9,-0.05 -3.8,-0.05 -3.75,-0.1 -4.65,-0.05 -5.35,0.3 -5.85,1.05 -7.15,3.1 -7.1,5.05 -5.7,6.85 -5.85,6.5 -6,6.2 -6.1,5.85 -5.35,6.9 -4.25,7.55 -2.85,7.75 -1.45,8.8 0.2,9.35 2.05,9.5 3,9.55 3.75,9.45 4.3,9.2 4.75,9.65 5.3,9.9 6.05,9.95 7.3,10.1 8.2,9.8 8.7,9.15 9.5,8.6 9.7,7.95 9.25,7.2 9.8,7.25 10.25,7.1 10.6,6.85 10.4,6.9 10.2,6.9 9.95,6.85 9.8,6.85 9.7,6.85 9.55,6.8 L9.6,6.8 C10.25,6.75 10.75,6.65 11.05,6.4 11.5,6.05 11.55,5.5 11.1,4.7 11.25,4.6 11.35,4.45 11.45,4.3 11.8,3.6 11.7,3.05 11.05,2.7 11,2.65 10.9,2.65 10.85,2.6 10.8,2.6 10.8,2.6 10.75,2.6 9.95,2.35 9.2,2.4 8.45,2.65 8.2,2.3 7.9,2 7.45,1.75 6.3,1.1 5.15,0.6 3.9,0.15 3.25,0 2.6,-0.1 1.95,-0.15z M-3.8,0.05 C-4.35,0.25 -4.85,0.5 -5.3,0.85 -5.05,0.55 -4.7,0.3 -4.25,0.1 -4.1,0.05 -3.95,0.05 -3.8,0.05z"/>
        <path id="path5" fill="#FFC" d="M10.95,4.45 L11,4.45 C11.05,4.4 11.05,4.4 11.05,4.35 11.3,3.9 11.3,3.55 11.05,3.3 10.8,2.95 10.2,2.8 9.35,2.8 9.05,2.8 8.75,2.75 8.5,2.7 8.55,2.75 8.6,2.85 8.65,2.95 6.95,1.75 4.95,0.9 2.7,0.35 1.2,0.15 -0.35,0 -1.9,-0.05 -2,-0.05 -2.1,-0.05 -2.15,-0.05 -3.3,0.1 -4.35,0.4 -5.35,0.85 -6.2,1.65 -6.55,2.75 -6.4,4.2 -6.4,4.25 -6.4,4.25 -6.4,4.3 L-6.4,4.275 L-6.4,4.35 -6.375,4.625 L-6.35,4.65 C-6.35,4.85 -6.3,5.05 -6.25,5.25 -5.8,6.1 -5,6.7 -3.9,7 -3.35,7.15 -2.9,7.4 -2.55,7.75 -1.2,8.4 0.25,8.85 1.8,9 2.55,9.05 3.35,9.05 4.15,9 L4.125,8.975 L4.1,8.95 C4.1,8.95 4.15,9 4.15,9 4.35,8.95 4.55,8.95 4.7,8.9 4.6,8.95 4.5,9.05 4.45,9.1 5.8,9.65 7.1,9.55 8.3,8.9 8.45,8.75 8.6,8.6 8.75,8.45 8.95,8.2 9.1,8 9.15,7.8 9.1,7.7 9.1,7.6 9.05,7.55 9,7.4 8.9,7.25 8.85,7.1 L8.8,7.1 C8.45,7.05 8.25,6.85 8.2,6.6 8.3,6.65 8.4,6.65 8.55,6.65 8.35,6.6 8.15,6.5 7.95,6.35 8,6.35 8.05,6.35 8.1,6.4 8.05,6.35 7.95,6.3 7.9,6.25 8.1,6.3 8.3,6.35 8.5,6.4 8.45,6.3 8.4,6.2 8.35,6.15 L8.4,6.15 C8.5,6.2 8.6,6.3 8.65,6.4 9.2,6.45 9.7,6.35 10.25,6.15 10.85,5.95 11,5.55 10.7,4.95 10.5,4.5 10.35,4.2 10.3,4.05 L10.4,4.05 C10.55,4.2 10.65,4.35 10.8,4.5 10.85,4.45 10.9,4.45 10.95,4.45z"/>
      </g>
      <animate attributeName="display" begin="0s" repeatCount="indefinite" dur="0.167s" keyTimes="0;0.399;1" values="inline;none;none"/>
    </g>
  </g>
</svg>