<?xml version="1.0" encoding="UTF-8" standalone="no"?>
<!-- Generator: flash2svg, http://dissentgraphics.com/tools/flash2svg -->

<svg
   xmlns:dc="http://purl.org/dc/elements/1.1/"
   xmlns:cc="http://creativecommons.org/ns#"
   xmlns:rdf="http://www.w3.org/1999/02/22-rdf-syntax-ns#"
   xmlns:svg="http://www.w3.org/2000/svg"
   xmlns="http://www.w3.org/2000/svg"
   xmlns:sodipodi="http://sodipodi.sourceforge.net/DTD/sodipodi-0.dtd"
   xmlns:inkscape="http://www.inkscape.org/namespaces/inkscape"
   id="Avatar"
   image-rendering="auto"
   version="1.1"
   x="0px"
   y="0px"
   width="11.719887"
   height="13.886995"
   viewBox="0 0 11.719887 13.886995"
   inkscape:version="0.48.4 r9939"
   sodipodi:docname="Avatar_backFootLeft2.svg">
  <metadata
     id="metadata3105">
    <rdf:RDF>
      <cc:Work
         rdf:about="">
        <dc:format>image/svg+xml</dc:format>
        <dc:type
           rdf:resource="http://purl.org/dc/dcmitype/StillImage" />
      </cc:Work>
    </rdf:RDF>
  </metadata>
  <sodipodi:namedview
     pagecolor="#ffffff"
     bordercolor="#666666"
     borderopacity="1"
     objecttolerance="10"
     gridtolerance="10"
     guidetolerance="10"
     inkscape:pageopacity="0"
     inkscape:pageshadow="2"
     inkscape:window-width="640"
     inkscape:window-height="480"
     id="namedview3103"
     showgrid="false"
     fit-margin-top="0"
     fit-margin-left="0"
     fit-margin-right="0"
     fit-margin-bottom="0"
     inkscape:zoom="1.8730159"
     inkscape:cx="40.53375"
     inkscape:cy="-52.614322"
     inkscape:window-x="0"
     inkscape:window-y="0"
     inkscape:window-maximized="0"
     inkscape:current-layer="Avatar" />
  <defs
     id="defs3082" />
  <g
     id="backFootLeft3"
     overflow="visible"
     style="overflow:visible"
     transform="translate(6.53375,3.5013174)">
    <g
       id="backFootLeft2_4">
      <g
         id="element2">
        <path
           id="path12"
           d="M 0.2,-3.2 Q 0.164,-3.19 0.125,-3.175 L 0.15,-3.15 c -0.05,0 -0.1,0 -0.15,0.05 -0.05,0 -0.15,0 -0.2,0.05 -0.05,0 -0.1,0 -0.1,0.05 -0.1,0.05 -0.15,0.05 -0.2,0.1 -0.15,0.05 -0.25,0.1 -0.35,0.15 -0.05,0.05 -0.1,0.05 -0.15,0.1 l -0.025,-0.025 -1.65,1.775 0.025,0 c -0.05,0.1 -0.1,0.2 -0.15,0.35 -0.2,0.6 -0.3,1.15 -0.25,1.6 -0.15,0.6 -0.35,1.2 -0.5,1.8 C -3.6,3 -3.6,3.1 -3.65,3.25 -3.6,3.2 -3.5,3.2 -3.45,3.2 -3.5,3.45 -3.65,3.65 -3.8,3.85 c -0.15,0.7 -0.4,1.35 -0.7,2 0.05,-0.4 0.15,-0.95 0.2,-1.6 -0.1,0.05 -0.2,0.1 -0.25,0.15 L -4.575,4.375 -4.6,4.4 c -0.1,0.15 -0.2,0.25 -0.35,0.4 -0.55,0.55 -0.7,1.25 -0.45,2 l -0.025,0 0.025,0 L -5.425,6.825 -5.4,6.85 C -5.35,6.8 -5.25,6.8 -5.1,6.75 l -0.025,0 0.05,0.025 L -5.1,6.8 c -0.05,0.05 -0.05,0.1 -0.1,0.15 l 0.025,-0.05 0.025,0 c -0.2,0.2 -0.4,0.4 -0.65,0.55 -0.05,0.1 -0.05,0.2 -0.1,0.3 0,0.15 -0.05,0.35 -0.1,0.55 0.15,0.05 0.3,0.15 0.45,0.3 l -0.025,0 0.025,0 c 0.05,-0.05 0.1,-0.05 0.15,-0.05 0,0.05 0,0.05 0,0.1 l 0.05,0 c -0.05,0 -0.05,0 -0.05,0 C -5.45,8.7 -5.45,8.7 -5.45,8.75 -5.4,8.7 -5.35,8.7 -5.3,8.65 -5.25,8.8 -5.25,9 -5.35,9.15 -5.4,9.25 -5.5,9.35 -5.55,9.45 -5.3,9.6 -5.05,9.65 -4.8,9.7 -2.55,8.85 -0.6,7.65 1.05,6.05 L 1,5.95 C 0.7,6.1 0.4,6.25 0.05,6.4 -0.7,6.7 -1.35,6.95 -1.95,7.15 -1.6,6.9 -1.25,6.65 -0.9,6.45 -0.95,6.4 -1.05,6.4 -1.1,6.4 -0.85,6.25 -0.55,6.15 -0.25,6.05 0.4,5.7 1.1,5.4 1.85,5.15 L 1.825,5.15 1.8,5.1 C 3.15,4.55 4.1,3.65 4.6,2.4 L 4.575,2.375 4.55,2.35 C 4.5,2.25 4.45,2.15 4.45,2.05 4.45,1.9 4.45,1.7 4.5,1.55 4.45,0.1 3.9,-1.05 2.75,-1.9 2.65,-2.05 2.5,-2.2 2.35,-2.35 2,-2.7 1.65,-2.95 1.25,-3.2 l -0.025,0 -0.075,0 c -0.2,0 -0.4,0 -0.6,0.05 -0.05,-0.05 -0.15,-0.1 -0.2,-0.1 -0.05,0 -0.1,0 -0.15,0.05 z"
           inkscape:connector-curvature="0"
           style="fill:#ffffcc" />
        <path
           id="path13"
           d="m 1.25,-3.2 c 0.4,0.25 0.75,0.5 1.1,0.85 0.15,0.15 0.3,0.3 0.4,0.45 1.15,0.85 1.7,2 1.75,3.45 -0.05,0.15 -0.05,0.35 -0.05,0.5 0,0.1 0.05,0.2 0.1,0.3 l 0.025,0 0,0.025 L 4.6,2.4 C 4.1,3.65 3.15,4.55 1.8,5.1 c 0.05,0 0.05,0 0.1,0.05 -0.05,0 -0.05,0 -0.05,0 -0.75,0.25 -1.45,0.55 -2.1,0.9 -0.3,0.1 -0.6,0.2 -0.85,0.35 0.05,0 0.15,0 0.2,0.05 -0.35,0.2 -0.7,0.45 -1.05,0.7 0.6,-0.2 1.25,-0.45 2,-0.75 C 0.4,6.25 0.7,6.1 1,5.95 1.1,5.9 1.2,5.85 1.35,5.8 1.25,5.85 1.15,5.95 1.05,6.05 -0.6,7.65 -2.55,8.85 -4.8,9.7 -5.05,9.65 -5.3,9.6 -5.55,9.45 -5.5,9.35 -5.4,9.25 -5.35,9.15 -5.25,9 -5.25,8.8 -5.3,8.65 -5.35,8.7 -5.4,8.7 -5.45,8.75 c 0,-0.05 0,-0.05 0.05,-0.1 l 0.05,0 c -0.05,0 -0.05,0 -0.05,0 0,-0.05 0,-0.05 0,-0.1 -0.05,0 -0.1,0 -0.15,0.05 l -0.025,0 0.025,0 C -5.7,8.45 -5.85,8.35 -6,8.3 -5.95,8.1 -5.9,7.9 -5.9,7.75 -5.85,7.65 -5.85,7.55 -5.8,7.45 -5.55,7.3 -5.35,7.1 -5.15,6.9 L -5.175,6.9 -5.2,6.95 C -5.15,6.9 -5.15,6.85 -5.1,6.8 l 0.025,-0.025 -0.05,-0.025 0.025,0 C -5.25,6.8 -5.35,6.8 -5.4,6.85 L -5.425,6.825 -5.4,6.8 l -0.025,0 0.025,0 C -5.65,6.05 -5.5,5.35 -4.95,4.8 -4.8,4.65 -4.7,4.55 -4.6,4.4 L -4.575,4.375 -4.55,4.4 C -4.5,4.35 -4.4,4.3 -4.3,4.25 c -0.05,0.65 -0.15,1.2 -0.2,1.6 0.3,-0.65 0.55,-1.3 0.7,-2 0.15,-0.2 0.3,-0.4 0.35,-0.65 -0.05,0 -0.15,0 -0.2,0.05 0.05,-0.15 0.05,-0.25 0.1,-0.4 0.15,-0.6 0.35,-1.2 0.5,-1.8 -0.05,-0.45 0.05,-1 0.25,-1.6 0.05,-0.15 0.1,-0.25 0.15,-0.35 -0.1,0.2 -0.2,0.4 -0.25,0.6 -0.15,0.25 -0.3,0.5 -0.45,0.8 -0.4,1.05 -0.65,2.1 -0.75,3.1 -0.45,0.3 -0.85,0.55 -1.3,0.8 0.05,0.05 0.1,0.05 0.15,0.1 -0.05,0.1 -0.15,0.2 -0.2,0.3 -0.05,0.15 -0.15,0.25 -0.2,0.4 -0.4,0.65 -0.4,1.2 0.05,1.65 -0.15,0.05 -0.25,0.15 -0.3,0.3 -0.65,0.55 -0.8,1 -0.45,1.25 0,0.05 0,0.05 0,0.1 0.05,0.05 0.05,0.05 0.1,0.05 0.15,0.15 0.3,0.3 0.45,0.35 -0.2,0.25 -0.35,0.5 -0.4,0.8 0.1,0.15 0.25,0.3 0.45,0.4 0.9,0.5 1.7,0.35 2.4,-0.5 C -3.4,9.55 -3.4,9.55 -3.4,9.55 -3.35,9.5 -3.25,9.45 -3.15,9.4 -2.85,9.25 -2.55,9.1 -2.2,8.95 -0.25,8 1.3,6.75 2.55,5.15 2.55,5.1 2.55,5.1 2.6,5.1 2.95,5.05 3.25,4.9 3.6,4.65 4.75,3.9 5.25,2.85 5.1,1.4 L 5.1,1.375 5.1,1.3 C 5.05,1.15 5.05,1.05 5,0.95 5,0.7 4.95,0.45 4.9,0.15 4.45,-1.55 3.4,-2.6 1.8,-3.05 1.65,-3.1 1.45,-3.15 1.25,-3.2 z m -7,12.65 C -5.8,9.5 -5.8,9.55 -5.8,9.6 c 0,0 0,0 -0.05,-0.05 0.05,-0.05 0.05,-0.05 0.1,-0.1 z"
           inkscape:connector-curvature="0"
           style="fill:#663300" />
      </g>
      <animate
         attributeName="display"
         begin="0s"
         repeatCount="indefinite"
         dur="0.167s"
         keyTimes="0;0.798;1"
         values="none;inline;none"
         id="animate3089" />
    </g>
    <g
       id="backFootLeft2_2">
      <g
         id="element1">
        <path
           id="path6"
           d="m 0.875,-3.25 q 0.9,0.29 1.55,0.975 L 2.45,-2.25 C 3.55,-1.8 4.3,-0.7 4.7,1.05 4.65,1.15 4.65,1.25 4.65,1.4 4.55,2.35 4.25,3.2 3.7,3.9 3.25,4.1 2.85,4.3 2.4,4.45 0.65,5.2 -0.85,6.15 -2,7.35 -1.35,7 -0.7,6.65 0.05,6.4 0.4,6.25 0.7,6.15 1.05,6 1.1,5.95 1.2,5.9 1.3,5.85 1.2,5.9 1.1,6 1.05,6.05 -0.7,7.7 -2.7,8.9 -5,9.7 -5.2,9.65 -5.4,9.65 -5.55,9.6 -5.6,9.55 -5.6,9.55 -5.6,9.5 c 0.05,-0.15 0.05,-0.25 0.1,-0.4 0.05,-0.05 0.05,-0.15 0.1,-0.2 0.1,0 0.2,0 0.35,0 l 0,-0.05 C -5.25,8.65 -5.5,8.55 -5.8,8.55 -6,8.35 -6,8.15 -5.85,7.95 -5.5,7.45 -5.25,7.05 -5.2,6.75 -5.35,6.85 -5.5,6.95 -5.65,7.1 -5.5,6.75 -5.5,6.4 -5.6,6 -5.65,5.55 -5.55,5.2 -5.2,5.05 c 0.55,-0.3 0.85,-0.55 1,-0.75 0.05,-0.05 0.05,-0.05 0.1,-0.05 0,0 0,0 0,0.05 -0.1,0.65 -0.2,1.3 -0.25,1.95 0.4,-0.75 0.7,-1.65 0.85,-2.65 0.15,-0.95 0.4,-1.9 0.65,-2.75 -0.1,-0.35 -0.1,-0.75 0,-1.2 0.05,-0.15 0.1,-0.25 0.15,-0.35 -0.15,0.25 -0.25,0.55 -0.35,0.85 -0.4,1.15 -0.7,2.3 -0.9,3.45 -0.15,0 -0.3,0.05 -0.45,0.15 -0.25,0.15 -0.35,0.3 -0.4,0.45 -0.4,0.15 -0.7,0.45 -0.95,0.85 -0.45,0.75 -0.45,1.5 0,2.15 -0.05,0.05 -0.15,0.15 -0.2,0.2 -0.6,0.85 -0.5,1.35 0.35,1.5 -0.05,0.1 -0.15,0.2 -0.2,0.25 -0.05,0.15 -0.1,0.3 -0.15,0.45 0.3,0.5 0.75,0.65 1.35,0.5 C -3.45,9.75 -2.45,9.3 -1.65,8.7 0.1,7.8 1.55,6.6 2.65,5.05 3.15,4.9 3.6,4.55 4,4.1 5,2.85 5.3,1.45 4.95,-0.15 4.95,-0.1 4.95,-0.05 4.9,0 4.85,-0.2 4.8,-0.4 4.7,-0.6 4.05,-1.95 3,-2.85 1.6,-3.2 1.35,-3.25 1.15,-3.25 0.9,-3.25"
           inkscape:connector-curvature="0"
           style="fill:#663300" />
        <path
           id="path7"
           d="M 2.425,-2.275 Q 1.775,-2.96 0.875,-3.25 l 0.025,0 C 0.45,-3.2 0,-3.1 -0.4,-2.9 c -0.45,0.2 -0.8,0.45 -1.15,0.75 0.05,-0.05 0.05,-0.05 0.05,-0.1 -0.15,0.1 -0.25,0.2 -0.35,0.35 -0.25,0.25 -0.5,0.5 -0.7,0.8 0.05,0 0.05,0 0.1,0 -0.05,0 -0.05,0 -0.05,0.05 l -0.025,0 -0.175,0.325 0,0.025 c -0.05,0.1 -0.1,0.2 -0.15,0.35 -0.1,0.45 -0.1,0.85 0,1.2 C -3.1,1.7 -3.35,2.65 -3.5,3.6 -3.65,4.6 -3.95,5.5 -4.35,6.25 -4.3,5.6 -4.2,4.95 -4.1,4.3 L -4.225,4.275 -4.2,4.3 c -0.15,0.2 -0.45,0.45 -1,0.75 -0.35,0.15 -0.45,0.5 -0.4,0.95 0.1,0.4 0.1,0.75 -0.05,1.1 0.15,-0.15 0.3,-0.25 0.45,-0.35 -0.05,0.3 -0.3,0.7 -0.65,1.2 -0.15,0.2 -0.15,0.4 0.05,0.6 0.3,0 0.55,0.1 0.75,0.3 l 0,0.05 c -0.15,0 -0.25,0 -0.35,0 -0.05,0.05 -0.05,0.15 -0.1,0.2 -0.05,0.15 -0.05,0.25 -0.1,0.4 0,0.05 0,0.05 0.05,0.1 0.15,0.05 0.35,0.05 0.55,0.1 2.3,-0.8 4.3,-2 6.05,-3.65 L 1.025,5.975 1.05,6 C 0.7,6.15 0.4,6.25 0.05,6.4 -0.7,6.65 -1.35,7 -2,7.35 -0.85,6.15 0.65,5.2 2.4,4.45 2.85,4.3 3.25,4.1 3.7,3.9 4.25,3.2 4.55,2.35 4.65,1.4 4.65,1.25 4.65,1.15 4.7,1.05 4.3,-0.7 3.55,-1.8 2.45,-2.25"
           inkscape:connector-curvature="0"
           style="fill:#ffffcc" />
      </g>
      <animate
         attributeName="display"
         begin="0s"
         repeatCount="indefinite"
         dur="0.167s"
         keyTimes="0;0.399;0.798;1"
         values="none;inline;none;none"
         id="animate3095" />
    </g>
    <g
       id="backFootLeft2_0">
      <g
         id="element">
        <path
           id="path"
           d="M 2.45,-3.05 Q 1.956,-3.099 1.425,-3.3 l 0.025,0 c 0.05,0.05 0.1,0.05 0.15,0.1 0.25,0.15 0.55,0.35 0.8,0.55 0.3,0.2 0.5,0.45 0.55,0.8 C 4,-0.9 4.6,0.25 4.65,1.7 4.6,1.75 4.6,1.75 4.6,1.8 4.25,2.8 3.75,3.65 3.1,4.35 2.75,4.5 2.35,4.65 2,4.8 0.35,5.5 -1,6.35 -2.1,7.4 -1.4,7.25 -0.7,7 0,6.6 0.15,6.5 0.35,6.4 0.5,6.35 L 0.6,6.25 C 0.55,6.3 0.55,6.3 0.5,6.35 -0.9,7.75 -2.6,8.8 -4.55,9.5 -4.3,9.45 -4.05,9.45 -3.8,9.4 c -0.25,0.05 -0.5,0.15 -0.75,0.2 -0.3,0 -0.6,0 -0.85,-0.05 -0.1,-0.05 -0.2,-0.05 -0.25,-0.1 0,-0.05 0,-0.05 0.05,-0.1 0.05,-0.15 0.1,-0.25 0.15,-0.3 0.15,-0.2 0.15,-0.35 0.05,-0.4 -0.05,0 -0.1,0 -0.1,0 -0.1,-0.15 -0.25,-0.25 -0.45,-0.4 0.05,-0.2 0.1,-0.35 0.2,-0.5 0.25,-0.35 0.45,-0.7 0.6,-1.1 -0.15,0.1 -0.3,0.2 -0.4,0.3 0.05,-0.35 0.1,-0.65 0.2,-1 0.25,-0.85 0.6,-1.4 1.15,-1.75 -0.15,0.85 -0.3,1.65 -0.35,2.5 0.3,-0.45 0.5,-0.9 0.6,-1.45 0.1,-0.55 0.2,-1.1 0.3,-1.65 0.05,-0.15 0.05,-0.3 0.1,-0.45 0.1,-0.35 0.2,-0.75 0.3,-1.1 -0.05,-0.45 0.05,-1 0.3,-1.6 0.15,-0.35 0.2,-0.7 0.2,-1.05 0,-0.15 0,-0.35 0.05,-0.5 -0.45,0.75 -0.8,1.6 -1.05,2.5 C -3.7,1.35 -3.7,1.35 -3.65,1.35 -3.9,2.1 -4.05,2.9 -4.1,3.65 -4.15,3.8 -4.15,3.9 -4.15,4.05 -4.65,4.1 -5.1,4.35 -5.45,4.75 -6.15,5.6 -6.25,6.35 -5.7,7.1 -5.75,7.15 -5.85,7.25 -5.9,7.3 -6.4,8.05 -6.35,8.5 -5.8,8.75 -5.85,8.8 -5.9,8.9 -5.95,9 -6,9.2 -6.05,9.4 -6.05,9.6 c 0.25,0.3 0.6,0.45 0.95,0.5 0.1,0 0.2,0 0.3,-0.05 0.95,-0.15 1.7,-0.45 2.35,-0.9 -0.1,0 -0.2,0 -0.25,0 C -2.65,9.1 -2.6,9.1 -2.55,9.05 -2.4,9 -2.25,8.95 -2.1,8.9 -0.4,8.25 0.95,7.15 1.9,5.6 2.25,5.45 2.6,5.25 2.95,5.05 4.9,3.9 5.6,2.25 4.95,0.1 c 0,0.15 0,0.3 -0.05,0.45 -0.2,-1.65 -1,-2.85 -2.45,-3.6 z"
           inkscape:connector-curvature="0"
           style="fill:#663300" />
        <path
           id="path1"
           d="M 2.95,-1.85 C 2.9,-2.2 2.7,-2.45 2.4,-2.65 2.15,-2.85 1.85,-3.05 1.6,-3.2 1.55,-3.25 1.5,-3.25 1.45,-3.3 l -0.025,0 -0.025,0 C 0.45,-3.65 -0.3,-3.55 -0.9,-2.95 -0.75,-3 -0.65,-3 -0.5,-3 c -0.65,0.15 -1.15,0.45 -1.6,1 -0.2,0.25 -0.4,0.55 -0.6,0.9 -0.05,0.15 -0.05,0.35 -0.05,0.5 0,0.35 -0.05,0.7 -0.2,1.05 -0.25,0.6 -0.35,1.15 -0.3,1.6 -0.1,0.35 -0.2,0.75 -0.3,1.1 -0.05,0.15 -0.05,0.3 -0.1,0.45 -0.1,0.55 -0.2,1.1 -0.3,1.65 -0.1,0.55 -0.3,1 -0.6,1.45 0.05,-0.85 0.2,-1.65 0.35,-2.5 -0.55,0.35 -0.9,0.9 -1.15,1.75 -0.1,0.35 -0.15,0.65 -0.2,1 0.1,-0.1 0.25,-0.2 0.4,-0.3 -0.15,0.4 -0.35,0.75 -0.6,1.1 -0.1,0.15 -0.15,0.3 -0.2,0.5 0.2,0.15 0.35,0.25 0.45,0.4 0,0 0.05,0 0.1,0 0.1,0.05 0.1,0.2 -0.05,0.4 C -5.5,9.1 -5.55,9.2 -5.6,9.35 -5.65,9.4 -5.65,9.4 -5.65,9.45 -5.6,9.5 -5.5,9.5 -5.4,9.55 -5.15,9.6 -4.85,9.6 -4.55,9.6 L -4.575,9.575 -4.55,9.5 C -2.6,8.8 -0.9,7.75 0.5,6.35 L 0.475,6.325 0.5,6.35 C 0.35,6.4 0.15,6.5 0,6.6 -0.7,7 -1.4,7.25 -2.1,7.4 -1,6.35 0.35,5.5 2,4.8 2.35,4.65 2.75,4.5 3.1,4.35 3.75,3.65 4.25,2.8 4.6,1.8 4.6,1.75 4.6,1.75 4.65,1.7 4.6,0.25 4,-0.9 2.95,-1.85 z"
           inkscape:connector-curvature="0"
           style="fill:#ffffcc" />
      </g>
      <animate
         attributeName="display"
         begin="0s"
         repeatCount="indefinite"
         dur="0.167s"
         keyTimes="0;0.399;1"
         values="inline;none;none"
         id="animate3101" />
    </g>
  </g>
</svg>
