<?xml version="1.0" encoding="utf-8"?>
<!-- Generator: flash2svg, http://dissentgraphics.com/tools/flash2svg -->
<svg xmlns:xlink="http://www.w3.org/1999/xlink" id="Avatar" image-rendering="auto" baseProfile="basic" version="1.1" x="0px" y="0px" width="68" height="126" xmlns="http://www.w3.org/2000/svg" viewBox="0 0 68 126">
  <defs/>
  <g id="backHandRight3" overflow="visible">
    <g id="backHandRight2_4">
      <g id="element2">
        <path id="path16" fill="#630" d="M0.95,-8.1 C0.8,-8.15 0.7,-8.2 0.6,-8.25 -0.2,-8.1 -0.6,-7.6 -0.65,-6.75 -0.65,-6.4 -0.7,-6 -0.75,-5.65 L-0.775,-5.675 L-0.8,-5.65 C-0.95,-5.45 -1.1,-5.25 -1.2,-5.05 -1.35,-5.25 -1.55,-5.45 -1.75,-5.6 -1.8,-5.65 -1.9,-5.65 -1.95,-5.65 -2.1,-5.8 -2.3,-5.95 -2.45,-6.05 L-2.5,-6.05 C-2.6,-6.1 -2.7,-6.15 -2.8,-6.1 -2.9,-6.05 -3,-6.1 -3.15,-6.15 -3.2,-6.1 -3.25,-6.05 -3.3,-6 -3.45,-5.75 -3.6,-5.45 -3.7,-5.15 -3.8,-4.85 -3.8,-4.55 -3.75,-4.25 -3.6,-4.1 -3.45,-3.95 -3.35,-3.7 -3.2,-3.35 -2.95,-3.1 -2.65,-3 -2.9,-2.65 -3.05,-2.2 -3.1,-1.65 -3.25,0.6 -2.4,2.3 -0.6,3.45 -0.65,3.35 -0.75,3.25 -0.85,3.15 -0.6,3.3 -0.25,3.35 0.15,3.3 1.7,3.25 2.85,2.55 3.6,1.25 3.55,1.25 3.55,1.25 3.5,1.3 3.55,1.2 3.65,1.1 3.7,1 4.45,-0.15 5.05,-1.3 5.6,-2.5 5.55,-2.45 5.5,-2.4 5.45,-2.35 5.5,-2.4 5.5,-2.4 5.5,-2.45 5.95,-3.45 5.75,-4.25 4.9,-4.9 4.75,-4.95 4.55,-5 4.3,-4.95 4.25,-4.95 4.25,-4.95 4.2,-4.9 4.25,-4.95 4.25,-5.05 4.25,-5.1 4.4,-5.95 4.1,-6.6 3.3,-7.05 3.25,-7.05 3.25,-7.05 3.2,-7.1 3.15,-7.1 3.15,-7.1 3.1,-7.1 2.85,-7.15 2.6,-7.1 2.35,-6.9 2.15,-6.7 2,-6.5 1.9,-6.3 1.9,-6.35 1.9,-6.35 1.9,-6.4 1.85,-7.1 1.55,-7.65 1.05,-8.05 1,-8.1 1,-8.1 0.95,-8.1z M1,-7.7 C0.85,-7.75 0.75,-7.8 0.6,-7.85 0.65,-7.9 0.75,-7.9 0.85,-7.9 L0.825,-7.9 Q0.924,-7.821 1,-7.725z"/>
        <path id="path20" fill="#FFC" d="M2.4,-6.35 C2.35,-6.3 2.35,-6.3 2.3,-6.25 2.2,-6 2.05,-5.8 1.9,-5.65 1.9,-5.7 1.9,-5.75 1.95,-5.8 1.9,-5.75 1.85,-5.75 1.8,-5.7 1.8,-5.75 1.8,-5.85 1.8,-5.9 1.75,-5.8 1.65,-5.7 1.5,-5.65 1.55,-5.8 1.55,-5.9 1.55,-6 1.6,-6.25 1.5,-6.55 1.35,-6.9 1,-7.6 0.7,-7.9 0.4,-7.85 -0.25,-7.7 -0.55,-7.1 -0.5,-6.05 -0.5,-5.95 -0.5,-5.85 -0.5,-5.8 L-0.525,-5.8 L-0.5,-5.8 C-0.5,-5.65 -0.5,-5.55 -0.55,-5.45 -0.6,-5.25 -0.7,-5.05 -0.85,-4.8 -0.9,-4.75 -0.9,-4.7 -0.95,-4.65 -0.85,-4.5 -0.85,-4.3 -0.95,-4.15 -1,-4.3 -1.1,-4.4 -1.2,-4.5 -1.25,-4.5 -1.25,-4.5 -1.25,-4.5 -1.25,-4.45 -1.25,-4.45 -1.25,-4.4 -1.35,-4.6 -1.45,-4.75 -1.6,-4.9 -1.85,-5.15 -2.2,-5.35 -2.55,-5.5 -2.8,-5.65 -3,-5.55 -3.15,-5.25 -3.25,-5.3 -3.3,-5.4 -3.25,-5.5 -3.5,-5.1 -3.5,-4.7 -3.25,-4.3 -3,-3.9 -2.8,-3.5 -2.55,-3.15 -2.55,-3.15 -2.55,-3.15 -2.5,-3.2 -2.5,-3.15 -2.5,-3.15 -2.5,-3.1 -2.5,-3.05 -2.5,-3 -2.45,-2.95 -2.5,-2.95 -2.5,-2.95 -2.55,-2.95 -3,-1.4 -2.8,0.1 -1.9,1.6 -1.7,1.95 -1.5,2.25 -1.25,2.6 -1.05,2.65 -0.9,2.75 -0.75,2.9 0.55,3.1 1.7,2.75 2.7,1.85 L2.725,1.825 L2.75,1.85 C3.3,0.85 3.85,-0.15 4.5,-1.15 4.65,-1.4 4.85,-1.6 5,-1.8 5.15,-2.45 5.15,-3.2 5.1,-4 5.05,-4.25 4.9,-4.4 4.65,-4.45 4.4,-4.5 4.2,-4.55 4.05,-4.55 3.95,-4.4 3.85,-4.3 3.7,-4.2 3.8,-4.75 3.85,-5.3 3.8,-5.85 3.75,-6.3 3.55,-6.6 3.1,-6.85 2.85,-6.8 2.7,-6.65 2.55,-6.5 2.5,-6.45 2.45,-6.4 2.4,-6.35z"/>
      </g>
      <animate attributeName="display" begin="0s" repeatCount="indefinite" dur="0.167s" keyTimes="0;0.798;1" values="none;inline;none"/>
    </g>
    <g id="backHandRight2_2">
      <g id="element1">
        <path id="path8" fill="#630" d="M2.1,-6.6 C2.05,-7.25 1.7,-7.75 1.05,-8.1 0.5,-8.25 0.15,-8.15 -0.1,-7.8 -0.5,-7.7 -0.7,-7.4 -0.75,-6.9 -0.75,-6.6 -0.75,-6.3 -0.75,-6.05 -0.9,-5.8 -1,-5.5 -1.1,-5.2 -1.15,-5.2 -1.2,-5.2 -1.2,-5.15 -1.25,-5.2 -1.35,-5.25 -1.4,-5.3 -1.55,-5.4 -1.65,-5.5 -1.75,-5.55 -1.8,-5.6 -1.8,-5.6 -1.8,-5.6 -1.85,-5.6 -1.85,-5.6 -1.85,-5.6 -2.05,-5.75 -2.25,-5.9 -2.45,-6.05 -3.4,-6.15 -3.8,-5.75 -3.7,-4.85 -3.65,-4.1 -3.25,-3.45 -2.6,-2.95 -2.9,-2.65 -3.1,-2.2 -3.2,-1.6 -3.4,0.45 -2.75,1.85 -1.3,2.7 -1.35,2.65 -1.45,2.65 -1.5,2.65 -0.5,3.35 0.65,3.35 1.9,2.65 2.45,2.35 2.85,1.95 3.2,1.5 3.45,1.15 3.75,0.75 4,0.35 4.5,-0.4 4.95,-1.2 5.35,-2.05 5.3,-2 5.3,-2 5.25,-1.95 5.55,-2.6 5.65,-3.15 5.55,-3.6 5.65,-4.25 5.35,-4.7 4.6,-5 4.55,-5 4.45,-5 4.4,-4.95 L4.375,-4.925 L4.4,-4.9 C4.3,-4.9 4.2,-4.9 4.1,-4.85 L4.075,-4.85 L4.1,-4.85 C4.1,-4.9 4.1,-4.9 4.1,-4.95 4.25,-5.7 4.15,-6.4 3.75,-7.05 3.4,-7.3 3,-7.35 2.65,-7.1 2.4,-6.95 2.2,-6.75 2.1,-6.6z M-0.8,-5.55 C-0.8,-5.5 -0.8,-5.45 -0.8,-5.4 -0.85,-5.4 -0.85,-5.4 -0.85,-5.4 -0.85,-5.45 -0.85,-5.5 -0.8,-5.55z"/>
        <path id="path9" fill="#FFC" d="M0.55,-7.65 Q0.291,-7.77 0.1,-7.725 L0.1,-7.7 C-0.05,-7.55 -0.1,-7.25 -0.15,-6.9 -0.2,-6.25 -0.35,-5.6 -0.6,-5 -0.65,-4.8 -0.75,-4.6 -0.85,-4.45 -0.85,-4.55 -0.85,-4.65 -0.8,-4.8 -0.9,-4.65 -1.05,-4.55 -1.2,-4.45 -1.35,-4.35 -1.55,-4.3 -1.7,-4.35 -1.7,-4.5 -1.65,-4.6 -1.6,-4.7 -1.75,-4.8 -1.85,-4.95 -2,-5.15 -2.05,-5.25 -2.15,-5.35 -2.2,-5.5 -2.5,-5.55 -2.8,-5.45 -3.05,-5.2 -3.3,-5 -3.3,-4.75 -3.15,-4.5 -2.8,-3.95 -2.55,-3.4 -2.35,-2.8 -2.4,-2.85 -2.5,-2.85 -2.55,-2.9 -2.85,-1.4 -2.6,0.1 -1.85,1.55 -1.6,2 -1.3,2.4 -0.85,2.7 0.6,2.75 1.85,2.4 2.8,1.65 L2.775,1.625 L2.7,1.5 C3.25,0.7 3.8,-0.15 4.35,-1.05 4.4,-1.1 4.4,-1.1 4.45,-1.15 4.7,-2 4.9,-2.85 5,-3.7 5.05,-4.35 4.8,-4.6 4.2,-4.4 4.05,-4.35 3.95,-4.35 3.85,-4.35 3.8,-4.3 3.7,-4.25 3.65,-4.2 3.65,-4.25 3.65,-4.35 3.7,-4.4 L3.675,-4.4 L3.65,-4.4 C3.65,-4.45 3.65,-4.45 3.7,-4.45 3.75,-4.85 3.75,-5.25 3.75,-5.7 3.75,-6.05 3.7,-6.4 3.55,-6.75 3,-7.1 2.6,-6.95 2.3,-6.4 2.2,-6.25 2.1,-6.1 2,-6 1.95,-5.75 1.85,-5.5 1.7,-5.3 1.9,-6.45 1.5,-7.25 0.55,-7.65z"/>
      </g>
      <animate attributeName="display" begin="0s" repeatCount="indefinite" dur="0.167s" keyTimes="0;0.399;0.798;1" values="none;inline;none;none"/>
    </g>
    <g id="backHandRight2_0">
      <g id="element">
        <path id="path" fill="#630" d="M0.875,-7.925 Q0.784,-7.966 0.7,-8.05 C0.1,-8.15 -0.3,-7.95 -0.55,-7.45 -0.75,-7 -0.85,-6.5 -0.8,-6.05 -0.85,-6 -0.85,-5.95 -0.9,-5.9 -0.95,-5.8 -0.95,-5.7 -1,-5.65 -1.05,-5.6 -1.05,-5.6 -1.1,-5.55 -1.25,-5.35 -1.3,-5.15 -1.3,-4.95 -1.3,-4.9 -1.3,-4.9 -1.3,-4.85 -1.35,-4.9 -1.35,-4.9 -1.35,-4.9 -1.4,-4.95 -1.4,-5 -1.45,-5.05 -1.55,-5.15 -1.65,-5.25 -1.7,-5.35 -1.75,-5.4 -1.75,-5.4 -1.8,-5.45 -1.85,-5.45 -1.85,-5.45 -1.85,-5.45 -2,-5.6 -2.2,-5.75 -2.4,-5.85 -2.65,-5.9 -2.8,-5.95 -2.95,-5.9 -3,-5.9 -3,-5.9 -3.05,-5.9 L-3.075,-5.9 L-3.05,-5.9 C-3.3,-5.9 -3.5,-5.75 -3.6,-5.4 -3.65,-5.2 -3.65,-4.95 -3.65,-4.6 -3.65,-4.3 -3.4,-3.85 -2.95,-3.3 -2.9,-3.2 -2.8,-3.1 -2.75,-3.05 -2.8,-3 -2.85,-2.9 -2.9,-2.75 -3.15,-2.15 -3.15,-1.6 -3,-1.15 -3.05,0.5 -2.6,1.85 -1.65,2.95 -1.6,2.9 -1.6,2.9 -1.65,2.85 -1.65,2.75 -1.65,2.65 -1.7,2.55 -1.15,3.05 -0.5,3.25 0.2,3.2 1.35,3.3 2.3,2.8 3.05,1.7 3,1.75 2.9,1.75 2.85,1.8 3.7,1.05 4.3,0.15 4.75,-0.95 4.85,-1.1 4.95,-1.3 5,-1.45 5.15,-1.8 5.25,-2.2 5.3,-2.55 5.45,-2.8 5.55,-3.1 5.55,-3.45 5.6,-4.2 5.25,-4.7 4.6,-5.05 4.35,-5.1 4.1,-5.05 3.9,-4.85 3.95,-4.9 3.95,-5 3.95,-5.05 4.15,-6 3.9,-6.7 3.25,-7.2 2.8,-7.25 2.45,-7.1 2.15,-6.65 2.05,-6.5 1.95,-6.35 1.9,-6.2 L1.9,-6.25 C1.75,-6.85 1.45,-7.4 1,-7.9 0.95,-7.9 0.95,-7.9 0.9,-7.9 M-1.55,2.55 C-1.6,2.5 -1.65,2.5 -1.7,2.5 -1.7,2.45 -1.7,2.45 -1.7,2.4 -1.65,2.45 -1.6,2.5 -1.55,2.55z"/>
        <path id="path1" fill="#FFC" d="M1.05,-7.35 C0.95,-7.5 0.85,-7.65 0.7,-7.75 -0.05,-7.9 -0.4,-7.5 -0.35,-6.65 -0.3,-6.4 -0.35,-6.2 -0.4,-5.95 -0.5,-5.7 -0.65,-5.5 -0.8,-5.25 L-0.825,-5.225 L-0.8,-5.2 C-0.85,-5.15 -0.9,-5.05 -0.95,-4.95 -1,-4.8 -1.1,-4.75 -1.25,-4.75 L-1.275,-4.75 L-1.25,-4.75 C-1.25,-4.7 -1.25,-4.6 -1.2,-4.55 L-1.2,-4.575 L-1.2,-4.55 C-1.25,-4.6 -1.25,-4.6 -1.3,-4.65 L-1.3,-4.675 L-1.325,-4.7 L-1.3,-4.7 C-1.35,-4.7 -1.35,-4.7 -1.35,-4.75 L-1.375,-4.75 L-1.375,-4.725 L-1.35,-4.7 C-1.6,-4.9 -1.9,-5.1 -2.3,-5.25 -2.75,-5.5 -3.05,-5.6 -3.15,-5.45 -3.2,-5.4 -3.2,-5.35 -3.2,-5.3 -3.2,-5.05 -3.2,-4.85 -3.25,-4.6 -3.2,-4.45 -3.15,-4.35 -3.05,-4.2 -3,-4.1 -2.9,-4 -2.85,-3.9 -2.8,-3.8 -2.7,-3.7 -2.65,-3.55 -2.6,-3.5 -2.55,-3.4 -2.5,-3.3 L-2.45,-3.4 C-2.5,-3.35 -2.5,-3.35 -2.5,-3.3 -2.45,-3.25 -2.45,-3.15 -2.4,-3.1 -2.45,-3.1 -2.45,-3.1 -2.5,-3.15 -2.5,-3.1 -2.5,-3 -2.5,-2.95 -2.55,-2.95 -2.55,-2.9 -2.5,-2.85 -2.65,-1.5 -2.55,-0.2 -2.1,1.05 -2,1.3 -1.9,1.6 -1.85,1.85 -1.5,2.2 -1.15,2.5 -0.75,2.65 1.7,2.85 3.35,1.65 4.3,-0.9 4.4,-1.15 4.55,-1.4 4.7,-1.65 4.75,-2 4.8,-2.4 4.85,-2.75 4.9,-3.15 5.05,-3.45 5.2,-3.7 5.05,-4.05 4.9,-4.3 4.65,-4.55 4.4,-4.85 4.15,-4.85 4,-4.55 3.95,-4.4 3.85,-4.4 3.7,-4.45 3.6,-4.3 3.5,-4.2 3.35,-4.1 3.5,-4.6 3.55,-5.15 3.6,-5.75 3.6,-6.2 3.45,-6.6 3.15,-6.9 3.1,-6.9 3,-6.9 2.95,-6.85 2.9,-6.8 2.8,-6.8 2.7,-6.8 2.65,-6.6 2.55,-6.4 2.4,-6.25 2.25,-6.05 2.1,-5.85 1.95,-5.7 L1.875,-5.75 L1.9,-5.75 C1.85,-5.65 1.75,-5.55 1.7,-5.45 1.65,-6.05 1.4,-6.7 1.05,-7.35z"/>
      </g>
      <animate attributeName="display" begin="0s" repeatCount="indefinite" dur="0.167s" keyTimes="0;0.399;1" values="inline;none;none"/>
    </g>
  </g>
</svg>