<?xml version="1.0" encoding="utf-8"?>
<!-- Generator: flash2svg, http://dissentgraphics.com/tools/flash2svg -->
<svg xmlns:xlink="http://www.w3.org/1999/xlink" id="Avatar" image-rendering="auto" baseProfile="basic" version="1.1" x="0px" y="0px" width="68" height="126" xmlns="http://www.w3.org/2000/svg" viewBox="0 0 68 126">
  <defs/>
  <g id="sideTorso3" overflow="visible">
    <g id="sideTorso2_4">
      <g id="element2">
        <path id="path45" fill="#630" d="M5.35,-38.6 C5.3,-38.5 5.25,-38.4 5.2,-38.25 L3.25,-39.15 C2.35,-39.2 1.45,-39.2 0.55,-39.25 -0.1,-39.3 -0.75,-39.4 -1.4,-39.55 L-1.425,-39.55 L-1.4,-39.55 C-1.45,-39.6 -1.45,-39.6 -1.45,-39.65 -1.45,-39.6 -1.45,-39.6 -1.45,-39.55 -1.6,-39.5 -1.65,-39.4 -1.6,-39.25 -1.6,-39 -1.55,-38.7 -1.5,-38.45 -1.45,-38.5 -1.45,-38.5 -1.4,-38.5 -1.45,-37.1 -1.75,-35.75 -2.3,-34.4 -2.45,-34.15 -2.6,-33.9 -2.8,-33.7 -4.2,-32.55 -5.1,-31.15 -5.55,-29.55 -5.6,-29.4 -5.7,-29.25 -5.75,-29.1 -7,-26.25 -7.5,-23.35 -7.35,-20.5 -7.8,-17.05 -8.4,-13.55 -9.15,-10.1 -9.4,-9.1 -9.45,-8.2 -9.3,-7.4 -9.35,-7.25 -9.35,-7.05 -9.35,-6.85 -9.4,-5.95 -9.4,-5.05 -9.3,-4.15 -9.25,-3.6 -9.1,-3.05 -8.95,-2.55 -9.2,-3 -9.4,-3.45 -9.55,-3.9 -9.55,-3.3 -9.35,-2.65 -8.95,-2 -8.8,-1.75 -8.6,-1.45 -8.45,-1.2 -7.75,0.15 -6.65,1.1 -5.2,1.75 -4.3,2.2 -3.3,2.55 -2.15,2.75 0.4,3.7 3,3.75 5.7,2.9 6.25,2.75 6.6,2.5 6.85,2.25 6.9,2.2 6.9,2.2 6.95,2.2 8.4,1.65 9.4,0.6 9.95,-0.9 11.05,-2.75 11.45,-4.8 11.2,-7.05 11.2,-7.3 11.2,-7.6 11.2,-7.85 11.2,-9.9 11.1,-11.9 10.9,-13.9 10.85,-13.65 10.85,-13.35 10.8,-13.05 10.8,-13.2 10.8,-13.35 10.8,-13.5 10.8,-14.25 10.75,-15 10.65,-15.75 10.6,-15.9 10.6,-16.1 10.6,-16.25 10.6,-16.2 10.6,-16.2 10.6,-16.15 10.45,-17.05 10.25,-17.95 10,-18.8 10,-18.75 10,-18.75 10,-18.7 9.95,-18.95 9.9,-19.15 9.85,-19.35 9.85,-19.4 9.85,-19.45 9.8,-19.5 9.55,-20.55 9.3,-21.55 9,-22.5 8.75,-23.25 8.5,-23.95 8.25,-24.6 8.2,-24.75 8.15,-24.85 8.1,-25 8.1,-24.95 8.1,-24.95 8.1,-24.9 7.75,-25.75 7.3,-26.6 6.85,-27.4 6.5,-28.4 6.1,-29.4 5.65,-30.4 5.1,-31.65 4.75,-32.95 4.7,-34.25 4.7,-34.35 4.7,-34.45 4.7,-34.55 4.7,-35.05 4.75,-35.55 4.8,-36.05 L4.775,-36.05 L4.8,-36.25 C4.8,-36.3 4.8,-36.35 4.85,-36.4 4.9,-36.55 4.9,-36.65 4.95,-36.8 5.05,-37.15 5.1,-37.55 5.15,-37.9 5.2,-38.15 5.3,-38.35 5.4,-38.6 L5.45,-38.75 C5.4,-38.7 5.4,-38.65 5.4,-38.6 5.35,-38.65 5.25,-38.65 5.2,-38.7 5.2,-38.85 5.2,-38.95 5.2,-39.1 5.15,-39 5.1,-38.9 5.05,-38.75 M6.85,-14.75 C6.8,-15.1 6.75,-15.5 6.7,-15.85 6.7,-15.8 6.7,-15.7 6.7,-15.6 6.7,-15.55 6.7,-15.45 6.7,-15.4 L6.7,-15.425 L6.7,-15.2 C6.7,-14.45 6.7,-13.7 6.75,-12.9 6.9,-10.75 6.8,-8.7 6.55,-6.75 3.9,-6.5 1.3,-6.5 -1.3,-6.8 -0.15,-6.55 1.1,-6.4 2.35,-6.35 2.7,-6.3 3.1,-6.3 3.5,-6.3 3.1,-6.3 2.7,-6.3 2.35,-6.3 2.15,-6.35 1.95,-6.35 1.7,-6.35 0.7,-6.4 -0.3,-6.5 -1.3,-6.6 -3.7,-6.9 -6.05,-7.4 -8.35,-8.05 -7.95,-7.8 -7.35,-7.55 -6.6,-7.35 -5.65,-7.1 -4.75,-6.9 -3.8,-6.7 -2.25,-6.4 -0.7,-6.2 0.85,-6.1 2.35,-6.05 3.85,-6.15 5.35,-6.3 5.7,-6.35 6.1,-6.35 6.45,-6.4 L6.45,-6.425 L6.475,-6.425 L6.5,-6.4 C6.45,-6.35 6.45,-6.3 6.45,-6.25 6.1,-6.2 5.7,-6.2 5.35,-6.15 3.85,-6.05 2.35,-6 0.85,-6 0.5,-6 0.1,-6 -0.25,-6 0.95,-5.8 2.2,-5.75 3.5,-5.8 4.65,-5.85 5.75,-5.95 6.8,-6.1 6.6,-4.7 6.45,-3.35 6.35,-2.05 6.7,-3.4 6.95,-4.75 7.1,-6.15 7.75,-6.25 8.45,-6.4 9.1,-6.55 8.9,-6.55 8.7,-6.55 8.5,-6.5 8.05,-6.45 7.6,-6.35 7.15,-6.3 L7.1,-6.325 L7.15,-6.325 L7.1,-6.3 C7.1,-6.35 7.1,-6.45 7.15,-6.5 8.3,-6.65 9.4,-6.85 10.45,-7.15 9.85,-7.1 9.25,-7.05 8.65,-7 8.15,-6.95 7.65,-6.85 7.15,-6.8 7.35,-9.45 7.25,-12.1 6.85,-14.75z M6.5,-6.25 C6.5,-6.3 6.5,-6.35 6.5,-6.4 6.6,-6.45 6.7,-6.45 6.8,-6.45 6.8,-6.4 6.8,-6.35 6.8,-6.3 6.7,-6.3 6.6,-6.3 6.5,-6.25z M6.85,-6.75 C6.75,-6.75 6.65,-6.75 6.55,-6.75 6.7,-7.6 6.85,-8.4 6.9,-9.2 7,-10.2 7.05,-11.2 7,-12.15 7.15,-10.4 7.1,-8.6 6.85,-6.8 L6.85,-6.775z M5.35,-38.6 C5.3,-38.5 5.25,-38.4 5.2,-38.25 5.2,-38.4 5.2,-38.5 5.2,-38.55 5.25,-38.6 5.3,-38.6 5.35,-38.6z M10.4,-14.6 C10.25,-15.4 10.15,-16.2 10,-16.95 10.15,-16.3 10.25,-15.65 10.4,-15 10.4,-14.85 10.4,-14.75 10.4,-14.6z"/>
        <path id="path47" fill="#FFC" d="M4.8,-38.1 Q4.853,-38.258 4.9,-38.4 C3.05,-38.45 1.2,-38.7 -0.65,-39.1 -1,-39.2 -1.2,-39.3 -1.3,-39.35 -1.3,-39.2 -1.3,-39.05 -1.3,-38.85 -0.85,-36.2 -1.65,-33.9 -3.7,-31.95 -5.1,-29.75 -6.05,-27.3 -6.55,-24.65 -6.6,-24.55 -6.6,-24.45 -6.6,-24.3 -6.75,-20.35 -7.2,-16.4 -8.05,-12.55 -8.35,-11.2 -8.6,-9.9 -8.85,-8.55 -9.15,-6.45 -9,-4.35 -8.4,-2.3 -8.2,-1.55 -7.85,-0.95 -7.4,-0.4 -6.7,0.3 -5.85,0.9 -4.85,1.35 -4.7,1.4 -4.5,1.5 -4.35,1.6 L-4.35,1.575 L-4.275,1.6 -4.225,1.625 L-4.2,1.65 C-4.15,1.65 -4.1,1.65 -4.05,1.7 -3.9,1.75 -3.75,1.85 -3.6,1.9 -1.55,2.55 0.5,2.9 2.6,2.9 3,2.95 3.4,2.95 3.75,3 3.8,2.95 3.8,2.95 3.85,3 L3.825,2.975 L3.75,2.8 C8.2,1.75 10.6,-1 10.95,-5.55 10.95,-5.6 10.95,-5.65 10.95,-5.7 10.9,-6.35 10.9,-7 10.9,-7.65 10.65,-9.5 10.5,-11.4 10.35,-13.3 10.15,-14.15 10,-15 9.85,-15.95 9.75,-16.6 9.75,-17.15 9.8,-17.7 9.4,-19.1 9,-20.5 8.55,-21.95 8.4,-22.4 8.3,-22.9 8.25,-23.35 7.9,-24.1 7.55,-24.9 7.2,-25.65 6.85,-26.5 6.55,-27.3 6.3,-28.05 5.4,-29.6 4.85,-31.3 4.65,-33.15 4.65,-33.2 4.65,-33.2 4.65,-33.2 4.6,-33.2 4.6,-33.2 4.6,-33.15 L4.475,-33.15 L4.5,-33.15 C4.5,-33 4.5,-32.9 4.5,-32.75 4.6,-32 4.7,-31.3 4.8,-30.6 4.15,-32.1 3.95,-33.75 4.1,-35.5 4.15,-36.05 4.3,-36.6 4.55,-37.05 4.6,-37.4 4.65,-37.75 4.8,-38.1z M5.35,-6.3 C5.7,-6.35 6.1,-6.35 6.45,-6.4 L6.45,-6.425 L6.475,-6.425 L6.5,-6.4 C6.45,-6.35 6.45,-6.3 6.45,-6.25 6.1,-6.2 5.7,-6.2 5.35,-6.15 L5.325,-6.175 L5.325,-6.325z M2.35,-6.35 C2.7,-6.3 3.1,-6.3 3.5,-6.3 3.1,-6.3 2.7,-6.3 2.35,-6.3 L2.35,-6.325 L2.35,-6.35z"/>
      </g>
      <animate attributeName="display" begin="0s" repeatCount="indefinite" dur="0.167s" keyTimes="0;0.798;1" values="none;inline;none"/>
    </g>
    <g id="sideTorso2_2">
      <g id="element1">
        <path id="path19" fill="#630" d="M5.1,-38.95 C5.05,-38.9 4.95,-38.8 4.9,-38.65 4.45,-38.95 3.95,-39.1 3.35,-39.15 2.35,-39.25 1.35,-39.35 0.35,-39.45 0.1,-39.6 -0.25,-39.65 -0.7,-39.6 -0.85,-39.6 -1,-39.6 -1.15,-39.55 -1.2,-39.6 -1.3,-39.6 -1.35,-39.6 -1.4,-39.6 -1.45,-39.6 -1.5,-39.6 L-1.525,-39.6 L-1.5,-39.6 C-1.55,-39.65 -1.55,-39.75 -1.6,-39.8 -1.6,-39.75 -1.6,-39.65 -1.55,-39.6 L-1.6,-39.6 C-1.6,-39.55 -1.6,-39.55 -1.65,-39.55 -1.7,-39.55 -1.7,-39.55 -1.7,-39.5 -1.7,-39.45 -1.7,-39.45 -1.7,-39.4 -1.65,-39.35 -1.55,-39.35 -1.5,-39.3 -1.5,-39.25 -1.5,-39.2 -1.45,-39.15 -1.5,-39.1 -1.5,-39 -1.5,-38.95 -1.5,-38.65 -1.45,-38.4 -1.4,-38.15 -1.45,-36.8 -1.85,-35.5 -2.65,-34.25 -3.5,-32.95 -4.35,-31.8 -5.2,-30.75 -5.05,-30.85 -4.85,-30.95 -4.7,-31.1 -4.85,-30.8 -5.05,-30.5 -5.2,-30.2 -6.2,-28.15 -6.8,-26 -7,-23.85 -7.15,-23.2 -7.25,-22.55 -7.3,-21.9 -7.6,-18.75 -8,-15.6 -8.55,-12.45 -8.5,-12.65 -8.4,-12.85 -8.3,-13.05 -8.6,-11.35 -8.9,-9.65 -9.15,-8 -9.1,-8.2 -9,-8.4 -8.9,-8.6 -9.15,-7.6 -9.3,-6.6 -9.4,-5.55 -9.75,-2.2 -8.55,0.2 -5.8,1.7 -6.4,1.15 -6.95,0.6 -7.4,-0.05 -6.15,1.2 -4.7,2.05 -3.05,2.45 -2.25,2.75 -1.4,3 -0.5,3.2 1.95,3.75 4.15,3.55 6.2,2.55 8.05,2 9.4,0.85 10.2,-0.9 10.15,-0.9 10.1,-0.9 10.1,-0.85 10,-0.7 9.9,-0.6 9.8,-0.45 10.45,-1.45 10.85,-2.55 11,-3.7 11.25,-4.55 11.4,-5.35 11.45,-6.15 11.4,-6.1 11.4,-6 11.4,-5.95 11.45,-6.3 11.45,-6.7 11.45,-7.05 11.5,-7.1 11.6,-7.1 11.7,-7.15 11.65,-7.2 11.65,-7.2 11.6,-7.25 11.55,-7.3 11.5,-7.3 11.45,-7.3 11.4,-7.65 11.35,-8 11.3,-8.35 11.45,-10.25 11.3,-12.1 10.75,-13.9 10.75,-14.25 10.75,-14.65 10.7,-15 10.65,-16.35 10.45,-17.7 10.1,-18.95 10.05,-19.3 9.95,-19.65 9.9,-20 9.75,-20.45 9.65,-20.85 9.5,-21.3 9.45,-21.45 9.45,-21.55 9.4,-21.7 9.45,-21.55 9.55,-21.35 9.65,-21.2 9.4,-22.35 8.95,-23.4 8.3,-24.4 8,-24.9 7.7,-25.4 7.4,-25.9 6.95,-26.75 6.5,-27.65 6.15,-28.5 6.15,-28.45 6.15,-28.45 6.2,-28.4 6.05,-29.4 5.85,-30.4 5.5,-31.4 4.75,-33.65 4.65,-35.9 5.1,-38.2 5.05,-38.05 5,-37.95 4.95,-37.8 5,-37.95 5,-38.15 5.05,-38.3 5.15,-38.3 5.25,-38.3 5.4,-38.3 5.3,-38.4 5.2,-38.5 5.1,-38.55 5.1,-38.7 5.1,-38.8 5.1,-38.95z M-1.2,-6.35 C-2.1,-6.5 -3,-6.6 -3.85,-6.75 -1.7,-6.2 0.5,-6 2.75,-6.05 1.4,-6.1 0.1,-6.2 -1.2,-6.35z"/>
        <path id="path20" fill="#FFC" d="M0.425,-39.15 Q0.324,-39.1 0.2,-39.1 C-0.25,-39.05 -0.7,-39.1 -1.1,-39.2 -1.05,-38.85 -1.05,-38.55 -1.1,-38.2 -1.15,-38.05 -1.15,-37.95 -1.15,-37.85 -1,-36.15 -1.55,-34.55 -2.8,-33 -3.15,-32.55 -3.5,-32.15 -3.9,-31.8 -4.85,-29.95 -5.6,-27.95 -6.1,-25.85 -6.2,-25.45 -6.3,-25.05 -6.4,-24.6 -6.7,-21.95 -7.05,-19.3 -7.45,-16.6 -7.5,-16.25 -7.6,-15.85 -7.65,-15.5 -7.8,-14.15 -7.95,-12.85 -8.15,-11.5 -8.15,-11.55 -8.15,-11.55 -8.15,-11.6 -8.2,-11.55 -8.2,-11.45 -8.2,-11.35 -8.25,-11.05 -8.3,-10.75 -8.35,-10.45 -8.8,-8 -8.9,-5.55 -8.65,-3.05 -8.6,-2.4 -8.4,-1.8 -8.15,-1.2 -7.15,0.2 -5.8,1.15 -4.15,1.65 -3.7,1.8 -3.3,1.95 -2.95,2.15 -1.3,2.6 0.4,2.8 2.2,2.85 2.45,2.85 2.7,2.85 2.95,2.85 L2.95,2.75 C4.05,2.65 5.15,2.45 6.3,2.15 8.05,1.2 9.3,-0.2 10.15,-1.95 L10,-2.05 C10.35,-3 10.6,-3.95 10.75,-4.95 L10.75,-4.975 L10.55,-5.05 C10.6,-5.7 10.7,-6.3 10.75,-6.9 10.6,-6.85 10.5,-6.85 10.4,-6.8 L10.4,-6.825 L10.4,-6.8 C9.35,-6.45 8.25,-6.2 7.15,-6.05 7.1,-5.65 7.05,-5.25 7,-4.85 6.8,-3.45 6.5,-2.1 6.05,-0.85 6.2,-1.6 6.3,-2.35 6.4,-3.1 6.35,-2.85 6.25,-2.65 6.15,-2.4 6.3,-3.05 6.45,-3.75 6.55,-4.4 6.6,-4.95 6.65,-5.45 6.7,-5.95 5.55,-5.8 4.4,-5.7 3.25,-5.7 0.3,-5.65 -2.4,-6.1 -4.85,-6.95 -5.15,-7 -5.45,-7.05 -5.7,-7.1 -5.45,-7.05 -5.2,-7 -4.95,-6.95 -5.45,-7.1 -5.9,-7.3 -6.35,-7.5 -5.7,-7.25 -5.05,-7.05 -4.4,-6.9 -0.7,-6.35 3,-6.3 6.75,-6.65 6.8,-7.7 6.85,-8.8 6.85,-9.85 6.9,-11.25 6.9,-12.55 6.85,-13.8 L6.925,-13.825 L6.95,-13.8 C6.9,-14.35 6.9,-14.85 6.85,-15.3 7.1,-13.6 7.2,-11.9 7.25,-10.25 7.3,-9.1 7.25,-7.9 7.2,-6.7 7.85,-6.8 8.55,-6.9 9.2,-7 9.75,-7.05 10.25,-7.15 10.75,-7.25 10.85,-8.65 10.85,-10.05 10.75,-11.45 10.75,-11.55 10.75,-11.65 10.75,-11.75 L10.75,-11.775 L10.55,-11.75 C10.3,-14.1 9.95,-16.4 9.55,-18.7 9.45,-19.3 9.35,-19.9 9.25,-20.45 8.95,-21.1 8.7,-21.8 8.45,-22.5 L8.425,-22.525 L8.3,-22.5 C7.45,-24.2 6.65,-25.95 5.85,-27.75 5.5,-28.6 5.25,-29.45 5.2,-30.2 5.25,-30.05 5.35,-29.85 5.45,-29.65 5.35,-29.9 5.3,-30.2 5.25,-30.45 4.7,-32 4.4,-33.6 4.45,-35.3 4.45,-35.85 4.5,-36.4 4.65,-36.9 4.5,-36.6 4.35,-36.3 4.15,-36.05 4.2,-36.7 4.35,-37.4 4.6,-38.05 4.65,-38.15 4.7,-38.25 4.75,-38.35 3.7,-38.45 2.65,-38.65 1.5,-38.9 1.15,-39 0.8,-39.1 0.45,-39.15"/>
        <path id="path43" fill="#FFC" d="M-1.2,-6.35 C-2.1,-6.5 -3,-6.6 -3.85,-6.75 -1.7,-6.2 0.5,-6 2.75,-6.05 1.4,-6.1 0.1,-6.2 -1.2,-6.35z"/>
      </g>
      <animate attributeName="display" begin="0s" repeatCount="indefinite" dur="0.167s" keyTimes="0;0.399;0.798;1" values="none;inline;none;none"/>
    </g>
    <g id="sideTorso2_0">
      <g id="element">
        <path id="path" fill="#630" d="M5.2,-38.9 C5.15,-38.85 5.15,-38.75 5.15,-38.65 L2.95,-38.95 C1.2,-39.1 -0.45,-39.45 -2.05,-40 -2,-39.75 -1.8,-39.55 -1.45,-39.35 -1.5,-39.2 -1.55,-39 -1.55,-38.75 -1.45,-37.8 -1.55,-36.95 -1.9,-36.15 -2.3,-35.2 -2.65,-34.25 -2.95,-33.3 L-2.975,-33.325 L-2.975,-33.3 L-2.95,-33.3 C-3.15,-33.05 -3.35,-32.75 -3.55,-32.5 -3.6,-32.45 -3.6,-32.4 -3.65,-32.35 -3.55,-32.6 -3.45,-32.8 -3.35,-33.05 -3.7,-32.4 -4.05,-31.8 -4.4,-31.15 -5.05,-30.1 -5.6,-29.05 -6.1,-27.95 -6.05,-28 -5.95,-28.05 -5.85,-28.1 -6.65,-26.15 -7.1,-24.2 -7.2,-22.15 -7.35,-22 -7.45,-21.75 -7.5,-21.45 -7.65,-20.45 -7.75,-19.45 -7.8,-18.45 -8.05,-16 -8.4,-13.55 -8.9,-11.1 -9,-10.55 -9.1,-10.05 -9.25,-9.55 -9.35,-9.1 -9.45,-8.6 -9.5,-8.15 -9.65,-7 -9.7,-5.95 -9.55,-4.95 -9.55,-4.7 -9.5,-4.45 -9.45,-4.2 -9.45,-4.05 -9.45,-3.95 -9.45,-3.8 -9.3,-1.25 -8.05,0.7 -5.8,1.95 -6.2,1.5 -6.6,1 -7,0.5 -6.95,0.55 -6.85,0.65 -6.75,0.7 -4.9,2.1 -2.85,2.9 -0.55,3.15 1.8,3.7 4.1,3.5 6.25,2.55 6.3,2.5 6.35,2.5 6.4,2.5 7.25,2.3 8,1.85 8.65,1.1 8.75,1 8.85,0.9 8.95,0.8 9.55,0.2 10,-0.5 10.35,-1.25 10.25,-1.1 10.15,-0.95 10.05,-0.8 10.9,-2.35 11.25,-4 11.2,-5.85 11.4,-7.05 11.4,-8.25 11.15,-9.45 11.1,-11.6 10.9,-13.75 10.55,-15.85 10.6,-16.4 10.6,-17 10.55,-17.6 10.45,-19.45 10,-21.15 9.15,-22.7 9.1,-22.95 9,-23.15 8.9,-23.4 8.65,-24.05 8.3,-24.65 7.95,-25.2 7.15,-26.35 6.5,-27.6 5.95,-28.85 5.9,-29.05 5.8,-29.25 5.75,-29.4 5.55,-30.15 5.35,-30.95 5.2,-31.7 4.85,-33.15 4.75,-34.55 4.9,-35.95 4.95,-36.7 5.1,-37.45 5.25,-38.2 5.4,-38.25 5.55,-38.25 5.7,-38.25 5.75,-38.3 5.75,-38.35 5.7,-38.4 5.55,-38.45 5.45,-38.45 5.35,-38.5 5.35,-38.6 5.35,-38.7 5.4,-38.75 5.35,-38.7 5.35,-38.6 5.3,-38.5 5.25,-38.55 5.25,-38.55 5.2,-38.55 5.2,-38.6 5.2,-38.65 5.2,-38.7 L5.175,-38.675 L5.2,-38.65 C5.2,-38.75 5.2,-38.85 5.2,-38.9z M-8.95,-10 C-8.9,-10.15 -8.8,-10.35 -8.7,-10.5 -8.8,-9.8 -8.9,-9.1 -9,-8.4 -9,-8.95 -9,-9.45 -8.95,-10z"/>
        <path id="path2" fill="#FFC" d="M4.75,-38.225 L4.75,-38.2 C2.8,-38.25 0.9,-38.55 -0.95,-39.15 -1.1,-39.2 -1.25,-39.3 -1.4,-39.35 -1.05,-37.55 -1.3,-35.9 -2.15,-34.35 -2.15,-34.35 -2.15,-34.35 -2.15,-34.3 -2.2,-34.2 -2.3,-34.1 -2.35,-34 -2.95,-32.6 -3.7,-31.2 -4.6,-29.85 -4.65,-29.8 -4.65,-29.75 -4.7,-29.7 -5.3,-28.05 -5.85,-26.4 -6.3,-24.7 -6.5,-24.05 -6.65,-23.35 -6.8,-22.7 -6.8,-22.65 -6.8,-22.55 -6.85,-22.45 -7,-20.9 -7.2,-19.35 -7.35,-17.8 L-7.4,-17.225 L-7.4,-17.2 C-7.5,-15.9 -7.65,-14.6 -7.85,-13.25 -7.9,-12.8 -8,-12.35 -8.15,-11.9 -8.3,-10.4 -8.55,-8.9 -8.8,-7.35 -8.9,-6.9 -8.95,-6.45 -9,-6 -8.95,-5.3 -8.9,-4.6 -8.85,-3.85 -8.7,-2.7 -8.35,-1.7 -7.75,-0.8 L-7.925,-0.7 L-7.9,-0.7 C-7.85,-0.55 -7.75,-0.4 -7.6,-0.25 L-7.525,-0.275 L-7.5,-0.25 C-7.55,-0.3 -7.55,-0.4 -7.55,-0.45 -5.9,1.1 -3.95,2 -1.65,2.25 -0.55,2.4 0.45,2.65 1.35,3 3.1,2.95 4.75,2.6 6.35,1.9 6.7,1.75 7,1.55 7.35,1.3 7.45,1.25 7.55,1.2 7.65,1.15 L7.675,1.175 L7.7,1.2 C9.05,0.05 9.95,-1.4 10.45,-3.15 L10.4,-3.2 C10.45,-4.25 10.55,-5.35 10.7,-6.45 10.6,-6.3 10.5,-6.1 10.45,-5.95 10.5,-6.3 10.5,-6.65 10.55,-7 9.45,-6.65 8.35,-6.35 7.2,-6.15 7.15,-5.65 7.05,-5.15 6.95,-4.6 6.7,-3.35 6.35,-2.1 5.9,-0.95 6.1,-1.7 6.3,-2.45 6.45,-3.2 6.25,-2.45 6,-1.75 5.7,-1.1 6.05,-2.75 6.35,-4.4 6.55,-6.05 4.5,-5.8 2.4,-5.8 0.25,-6.05 -1.5,-6.15 -3.2,-6.35 -4.85,-6.65 -3.75,-6.5 -2.65,-6.4 -1.55,-6.35 -3.2,-6.65 -4.8,-7 -6.35,-7.4 -6.75,-7.5 -7.05,-7.6 -7.2,-7.7 -3.75,-6.9 -0.2,-6.45 3.4,-6.4 4.45,-6.45 5.55,-6.6 6.6,-6.75 6.75,-8.25 6.8,-9.75 6.8,-11.25 6.8,-11.5 6.8,-11.7 6.8,-11.9 6.75,-12.25 6.65,-12.6 6.6,-12.95 6.65,-12.7 6.75,-12.4 6.8,-12.15 6.8,-13.4 6.8,-14.6 6.85,-15.75 7.1,-13.75 7.25,-11.7 7.2,-9.65 7.3,-8.75 7.3,-7.8 7.25,-6.85 7.5,-6.9 7.8,-6.95 8.05,-7 8.8,-7.15 9.6,-7.3 10.35,-7.4 L10.575,-7.4 L10.6,-7.4 C10.7,-9.55 10.65,-11.7 10.4,-13.85 10.35,-14.55 10.3,-15.2 10.25,-15.85 10.2,-16.45 10.1,-17.05 10,-17.65 10,-16.8 9.95,-16 9.8,-15.15 9.9,-18.4 9.35,-21.4 8.1,-24.2 7.75,-25 7.3,-25.8 6.85,-26.55 7.2,-25.75 7.55,-24.95 8,-24.15 6.95,-25.6 6.1,-27.15 5.55,-28.8 5.5,-28.9 5.45,-29 5.4,-29.1 5,-29.95 4.8,-30.75 4.75,-31.6 4.45,-32.9 4.35,-34.3 4.5,-35.75 4.55,-36.3 4.65,-36.8 4.8,-37.3 4.65,-37.1 4.55,-36.95 4.45,-36.85 4.4,-37.25 4.5,-37.7 4.75,-38.2"/>
      </g>
      <animate attributeName="display" begin="0s" repeatCount="indefinite" dur="0.167s" keyTimes="0;0.399;1" values="inline;none;none"/>
    </g>
  </g>
</svg>