<?xml version="1.0" encoding="utf-8"?>
<!-- Generator: flash2svg, http://dissentgraphics.com/tools/flash2svg -->
<svg xmlns:xlink="http://www.w3.org/1999/xlink" id="Avatar" image-rendering="auto" baseProfile="basic" version="1.1" x="0px" y="0px" width="68" height="126" xmlns="http://www.w3.org/2000/svg" viewBox="0 0 68 126">
  <defs/>
  <g id="backFootLeft3" overflow="visible">
    <g id="backFootLeft2_4">
      <g id="element2">
        <path id="path12" fill="#FFC" d="M0.2,-3.2 Q0.164,-3.19 0.125,-3.175 L0.15,-3.15 C0.1,-3.15 0.05,-3.15 0,-3.1 -0.05,-3.1 -0.15,-3.1 -0.2,-3.05 -0.25,-3.05 -0.3,-3.05 -0.3,-3 -0.4,-2.95 -0.45,-2.95 -0.5,-2.9 -0.65,-2.85 -0.75,-2.8 -0.85,-2.75 -0.9,-2.7 -0.95,-2.7 -1,-2.65 L-1.025,-2.675 L-2.675,-0.9 L-2.65,-0.9 C-2.7,-0.8 -2.75,-0.7 -2.8,-0.55 -3,0.05 -3.1,0.6 -3.05,1.05 -3.2,1.65 -3.4,2.25 -3.55,2.85 -3.6,3 -3.6,3.1 -3.65,3.25 -3.6,3.2 -3.5,3.2 -3.45,3.2 -3.5,3.45 -3.65,3.65 -3.8,3.85 -3.95,4.55 -4.2,5.2 -4.5,5.85 -4.45,5.45 -4.35,4.9 -4.3,4.25 -4.4,4.3 -4.5,4.35 -4.55,4.4 L-4.575,4.375 L-4.6,4.4 C-4.7,4.55 -4.8,4.65 -4.95,4.8 -5.5,5.35 -5.65,6.05 -5.4,6.8 L-5.425,6.8 L-5.4,6.8 -5.425,6.825 L-5.4,6.85 C-5.35,6.8 -5.25,6.8 -5.1,6.75 L-5.125,6.75 L-5.075,6.775 -5.1,6.8 C-5.15,6.85 -5.15,6.9 -5.2,6.95 L-5.175,6.9 L-5.15,6.9 C-5.35,7.1 -5.55,7.3 -5.8,7.45 -5.85,7.55 -5.85,7.65 -5.9,7.75 -5.9,7.9 -5.95,8.1 -6,8.3 -5.85,8.35 -5.7,8.45 -5.55,8.6 L-5.575,8.6 L-5.55,8.6 C-5.5,8.55 -5.45,8.55 -5.4,8.55 -5.4,8.6 -5.4,8.6 -5.4,8.65 L-5.35,8.65 C-5.4,8.65 -5.4,8.65 -5.4,8.65 -5.45,8.7 -5.45,8.7 -5.45,8.75 -5.4,8.7 -5.35,8.7 -5.3,8.65 -5.25,8.8 -5.25,9 -5.35,9.15 -5.4,9.25 -5.5,9.35 -5.55,9.45 -5.3,9.6 -5.05,9.65 -4.8,9.7 -2.55,8.85 -0.6,7.65 1.05,6.05 L1,5.95 C0.7,6.1 0.4,6.25 0.05,6.4 -0.7,6.7 -1.35,6.95 -1.95,7.15 -1.6,6.9 -1.25,6.65 -0.9,6.45 -0.95,6.4 -1.05,6.4 -1.1,6.4 -0.85,6.25 -0.55,6.15 -0.25,6.05 0.4,5.7 1.1,5.4 1.85,5.15 L1.825,5.15 L1.8,5.1 C3.15,4.55 4.1,3.65 4.6,2.4 L4.575,2.375 L4.55,2.35 C4.5,2.25 4.45,2.15 4.45,2.05 4.45,1.9 4.45,1.7 4.5,1.55 4.45,0.1 3.9,-1.05 2.75,-1.9 2.65,-2.05 2.5,-2.2 2.35,-2.35 2,-2.7 1.65,-2.95 1.25,-3.2 L1.225,-3.2 L1.15,-3.2 C0.95,-3.2 0.75,-3.2 0.55,-3.15 0.5,-3.2 0.4,-3.25 0.35,-3.25 0.3,-3.25 0.25,-3.25 0.2,-3.2z"/>
        <path id="path13" fill="#630" d="M1.25,-3.2 C1.65,-2.95 2,-2.7 2.35,-2.35 2.5,-2.2 2.65,-2.05 2.75,-1.9 3.9,-1.05 4.45,0.1 4.5,1.55 4.45,1.7 4.45,1.9 4.45,2.05 4.45,2.15 4.5,2.25 4.55,2.35 L4.575,2.35 4.575,2.375 L4.6,2.4 C4.1,3.65 3.15,4.55 1.8,5.1 1.85,5.1 1.85,5.1 1.9,5.15 1.85,5.15 1.85,5.15 1.85,5.15 1.1,5.4 0.4,5.7 -0.25,6.05 -0.55,6.15 -0.85,6.25 -1.1,6.4 -1.05,6.4 -0.95,6.4 -0.9,6.45 -1.25,6.65 -1.6,6.9 -1.95,7.15 -1.35,6.95 -0.7,6.7 0.05,6.4 0.4,6.25 0.7,6.1 1,5.95 1.1,5.9 1.2,5.85 1.35,5.8 1.25,5.85 1.15,5.95 1.05,6.05 -0.6,7.65 -2.55,8.85 -4.8,9.7 -5.05,9.65 -5.3,9.6 -5.55,9.45 -5.5,9.35 -5.4,9.25 -5.35,9.15 -5.25,9 -5.25,8.8 -5.3,8.65 -5.35,8.7 -5.4,8.7 -5.45,8.75 -5.45,8.7 -5.45,8.7 -5.4,8.65 L-5.35,8.65 C-5.4,8.65 -5.4,8.65 -5.4,8.65 -5.4,8.6 -5.4,8.6 -5.4,8.55 -5.45,8.55 -5.5,8.55 -5.55,8.6 L-5.575,8.6 L-5.55,8.6 C-5.7,8.45 -5.85,8.35 -6,8.3 -5.95,8.1 -5.9,7.9 -5.9,7.75 -5.85,7.65 -5.85,7.55 -5.8,7.45 -5.55,7.3 -5.35,7.1 -5.15,6.9 L-5.175,6.9 L-5.2,6.95 C-5.15,6.9 -5.15,6.85 -5.1,6.8 L-5.075,6.775 -5.125,6.75 L-5.1,6.75 C-5.25,6.8 -5.35,6.8 -5.4,6.85 L-5.425,6.825 L-5.4,6.8 L-5.425,6.8 L-5.4,6.8 C-5.65,6.05 -5.5,5.35 -4.95,4.8 -4.8,4.65 -4.7,4.55 -4.6,4.4 L-4.575,4.375 L-4.55,4.4 C-4.5,4.35 -4.4,4.3 -4.3,4.25 -4.35,4.9 -4.45,5.45 -4.5,5.85 -4.2,5.2 -3.95,4.55 -3.8,3.85 -3.65,3.65 -3.5,3.45 -3.45,3.2 -3.5,3.2 -3.6,3.2 -3.65,3.25 -3.6,3.1 -3.6,3 -3.55,2.85 -3.4,2.25 -3.2,1.65 -3.05,1.05 -3.1,0.6 -3,0.05 -2.8,-0.55 -2.75,-0.7 -2.7,-0.8 -2.65,-0.9 -2.75,-0.7 -2.85,-0.5 -2.9,-0.3 -3.05,-0.05 -3.2,0.2 -3.35,0.5 -3.75,1.55 -4,2.6 -4.1,3.6 -4.55,3.9 -4.95,4.15 -5.4,4.4 -5.35,4.45 -5.3,4.45 -5.25,4.5 -5.3,4.6 -5.4,4.7 -5.45,4.8 -5.5,4.95 -5.6,5.05 -5.65,5.2 -6.05,5.85 -6.05,6.4 -5.6,6.85 -5.75,6.9 -5.85,7 -5.9,7.15 -6.55,7.7 -6.7,8.15 -6.35,8.4 -6.35,8.45 -6.35,8.45 -6.35,8.5 -6.3,8.55 -6.3,8.55 -6.25,8.55 -6.1,8.7 -5.95,8.85 -5.8,8.9 -6,9.15 -6.15,9.4 -6.2,9.7 -6.1,9.85 -5.95,10 -5.75,10.1 -4.85,10.6 -4.05,10.45 -3.35,9.6 -3.4,9.55 -3.4,9.55 -3.4,9.55 -3.35,9.5 -3.25,9.45 -3.15,9.4 -2.85,9.25 -2.55,9.1 -2.2,8.95 -0.25,8 1.3,6.75 2.55,5.15 2.55,5.1 2.55,5.1 2.6,5.1 2.95,5.05 3.25,4.9 3.6,4.65 4.75,3.9 5.25,2.85 5.1,1.4 L5.1,1.375 L5.1,1.3 C5.05,1.15 5.05,1.05 5,0.95 5,0.7 4.95,0.45 4.9,0.15 4.45,-1.55 3.4,-2.6 1.8,-3.05 1.65,-3.1 1.45,-3.15 1.25,-3.2z M-5.75,9.45 C-5.8,9.5 -5.8,9.55 -5.8,9.6 -5.8,9.6 -5.8,9.6 -5.85,9.55 -5.8,9.5 -5.8,9.5 -5.75,9.45z"/>
      </g>
      <animate attributeName="display" begin="0s" repeatCount="indefinite" dur="0.167s" keyTimes="0;0.798;1" values="none;inline;none"/>
    </g>
    <g id="backFootLeft2_2">
      <g id="element1">
        <path id="path6" fill="#630" d="M0.875,-3.25 Q1.775,-2.96 2.425,-2.275 L2.45,-2.25 C3.55,-1.8 4.3,-0.7 4.7,1.05 4.65,1.15 4.65,1.25 4.65,1.4 4.55,2.35 4.25,3.2 3.7,3.9 3.25,4.1 2.85,4.3 2.4,4.45 0.65,5.2 -0.85,6.15 -2,7.35 -1.35,7 -0.7,6.65 0.05,6.4 0.4,6.25 0.7,6.15 1.05,6 1.1,5.95 1.2,5.9 1.3,5.85 1.2,5.9 1.1,6 1.05,6.05 -0.7,7.7 -2.7,8.9 -5,9.7 -5.2,9.65 -5.4,9.65 -5.55,9.6 -5.6,9.55 -5.6,9.55 -5.6,9.5 -5.55,9.35 -5.55,9.25 -5.5,9.1 -5.45,9.05 -5.45,8.95 -5.4,8.9 -5.3,8.9 -5.2,8.9 -5.05,8.9 L-5.05,8.85 C-5.25,8.65 -5.5,8.55 -5.8,8.55 -6,8.35 -6,8.15 -5.85,7.95 -5.5,7.45 -5.25,7.05 -5.2,6.75 -5.35,6.85 -5.5,6.95 -5.65,7.1 -5.5,6.75 -5.5,6.4 -5.6,6 -5.65,5.55 -5.55,5.2 -5.2,5.05 -4.65,4.75 -4.35,4.5 -4.2,4.3 -4.15,4.25 -4.15,4.25 -4.1,4.25 -4.1,4.25 -4.1,4.25 -4.1,4.3 -4.2,4.95 -4.3,5.6 -4.35,6.25 -3.95,5.5 -3.65,4.6 -3.5,3.6 -3.35,2.65 -3.1,1.7 -2.85,0.85 -2.95,0.5 -2.95,0.1 -2.85,-0.35 -2.8,-0.5 -2.75,-0.6 -2.7,-0.7 -2.85,-0.45 -2.95,-0.15 -3.05,0.15 -3.45,1.3 -3.75,2.45 -3.95,3.6 -4.1,3.6 -4.25,3.65 -4.4,3.75 -4.65,3.9 -4.75,4.05 -4.8,4.2 -5.2,4.35 -5.5,4.65 -5.75,5.05 -6.2,5.8 -6.2,6.55 -5.75,7.2 -5.8,7.25 -5.9,7.35 -5.95,7.4 -6.55,8.25 -6.45,8.75 -5.6,8.9 -5.65,9 -5.75,9.1 -5.8,9.15 -5.85,9.3 -5.9,9.45 -5.95,9.6 -5.65,10.1 -5.2,10.25 -4.6,10.1 -3.45,9.75 -2.45,9.3 -1.65,8.7 0.1,7.8 1.55,6.6 2.65,5.05 3.15,4.9 3.6,4.55 4,4.1 5,2.85 5.3,1.45 4.95,-0.15 4.95,-0.1 4.95,-0.05 4.9,0 4.85,-0.2 4.8,-0.4 4.7,-0.6 4.05,-1.95 3,-2.85 1.6,-3.2 1.35,-3.25 1.15,-3.25 0.9,-3.25"/>
        <path id="path7" fill="#FFC" d="M2.425,-2.275 Q1.775,-2.96 0.875,-3.25 L0.9,-3.25 C0.45,-3.2 0,-3.1 -0.4,-2.9 -0.85,-2.7 -1.2,-2.45 -1.55,-2.15 -1.5,-2.2 -1.5,-2.2 -1.5,-2.25 -1.65,-2.15 -1.75,-2.05 -1.85,-1.9 -2.1,-1.65 -2.35,-1.4 -2.55,-1.1 -2.5,-1.1 -2.5,-1.1 -2.45,-1.1 -2.5,-1.1 -2.5,-1.1 -2.5,-1.05 L-2.525,-1.05 L-2.7,-0.725 L-2.7,-0.7 C-2.75,-0.6 -2.8,-0.5 -2.85,-0.35 -2.95,0.1 -2.95,0.5 -2.85,0.85 -3.1,1.7 -3.35,2.65 -3.5,3.6 -3.65,4.6 -3.95,5.5 -4.35,6.25 -4.3,5.6 -4.2,4.95 -4.1,4.3 L-4.225,4.275 L-4.2,4.3 C-4.35,4.5 -4.65,4.75 -5.2,5.05 -5.55,5.2 -5.65,5.55 -5.6,6 -5.5,6.4 -5.5,6.75 -5.65,7.1 -5.5,6.95 -5.35,6.85 -5.2,6.75 -5.25,7.05 -5.5,7.45 -5.85,7.95 -6,8.15 -6,8.35 -5.8,8.55 -5.5,8.55 -5.25,8.65 -5.05,8.85 L-5.05,8.9 C-5.2,8.9 -5.3,8.9 -5.4,8.9 -5.45,8.95 -5.45,9.05 -5.5,9.1 -5.55,9.25 -5.55,9.35 -5.6,9.5 -5.6,9.55 -5.6,9.55 -5.55,9.6 -5.4,9.65 -5.2,9.65 -5,9.7 -2.7,8.9 -0.7,7.7 1.05,6.05 L1.025,5.975 L1.05,6 C0.7,6.15 0.4,6.25 0.05,6.4 -0.7,6.65 -1.35,7 -2,7.35 -0.85,6.15 0.65,5.2 2.4,4.45 2.85,4.3 3.25,4.1 3.7,3.9 4.25,3.2 4.55,2.35 4.65,1.4 4.65,1.25 4.65,1.15 4.7,1.05 4.3,-0.7 3.55,-1.8 2.45,-2.25"/>
      </g>
      <animate attributeName="display" begin="0s" repeatCount="indefinite" dur="0.167s" keyTimes="0;0.399;0.798;1" values="none;inline;none;none"/>
    </g>
    <g id="backFootLeft2_0">
      <g id="element">
        <path id="path" fill="#630" d="M2.45,-3.05 Q1.956,-3.099 1.425,-3.3 L1.45,-3.3 C1.5,-3.25 1.55,-3.25 1.6,-3.2 1.85,-3.05 2.15,-2.85 2.4,-2.65 2.7,-2.45 2.9,-2.2 2.95,-1.85 4,-0.9 4.6,0.25 4.65,1.7 4.6,1.75 4.6,1.75 4.6,1.8 4.25,2.8 3.75,3.65 3.1,4.35 2.75,4.5 2.35,4.65 2,4.8 0.35,5.5 -1,6.35 -2.1,7.4 -1.4,7.25 -0.7,7 0,6.6 0.15,6.5 0.35,6.4 0.5,6.35 L0.6,6.25 C0.55,6.3 0.55,6.3 0.5,6.35 -0.9,7.75 -2.6,8.8 -4.55,9.5 -4.3,9.45 -4.05,9.45 -3.8,9.4 -4.05,9.45 -4.3,9.55 -4.55,9.6 -4.85,9.6 -5.15,9.6 -5.4,9.55 -5.5,9.5 -5.6,9.5 -5.65,9.45 -5.65,9.4 -5.65,9.4 -5.6,9.35 -5.55,9.2 -5.5,9.1 -5.45,9.05 -5.3,8.85 -5.3,8.7 -5.4,8.65 -5.45,8.65 -5.5,8.65 -5.5,8.65 -5.6,8.5 -5.75,8.4 -5.95,8.25 -5.9,8.05 -5.85,7.9 -5.75,7.75 -5.5,7.4 -5.3,7.05 -5.15,6.65 -5.3,6.75 -5.45,6.85 -5.55,6.95 -5.5,6.6 -5.45,6.3 -5.35,5.95 -5.1,5.1 -4.75,4.55 -4.2,4.2 -4.35,5.05 -4.5,5.85 -4.55,6.7 -4.25,6.25 -4.05,5.8 -3.95,5.25 -3.85,4.7 -3.75,4.15 -3.65,3.6 -3.6,3.45 -3.6,3.3 -3.55,3.15 -3.45,2.8 -3.35,2.4 -3.25,2.05 -3.3,1.6 -3.2,1.05 -2.95,0.45 -2.8,0.1 -2.75,-0.25 -2.75,-0.6 -2.75,-0.75 -2.75,-0.95 -2.7,-1.1 -3.15,-0.35 -3.5,0.5 -3.75,1.4 -3.7,1.35 -3.7,1.35 -3.65,1.35 -3.9,2.1 -4.05,2.9 -4.1,3.65 -4.15,3.8 -4.15,3.9 -4.15,4.05 -4.65,4.1 -5.1,4.35 -5.45,4.75 -6.15,5.6 -6.25,6.35 -5.7,7.1 -5.75,7.15 -5.85,7.25 -5.9,7.3 -6.4,8.05 -6.35,8.5 -5.8,8.75 -5.85,8.8 -5.9,8.9 -5.95,9 -6,9.2 -6.05,9.4 -6.05,9.6 -5.8,9.9 -5.45,10.05 -5.1,10.1 -5,10.1 -4.9,10.1 -4.8,10.05 -3.85,9.9 -3.1,9.6 -2.45,9.15 -2.55,9.15 -2.65,9.15 -2.7,9.15 -2.65,9.1 -2.6,9.1 -2.55,9.05 -2.4,9 -2.25,8.95 -2.1,8.9 -0.4,8.25 0.95,7.15 1.9,5.6 2.25,5.45 2.6,5.25 2.95,5.05 4.9,3.9 5.6,2.25 4.95,0.1 4.95,0.25 4.95,0.4 4.9,0.55 4.7,-1.1 3.9,-2.3 2.45,-3.05z"/>
        <path id="path1" fill="#FFC" d="M2.95,-1.85 C2.9,-2.2 2.7,-2.45 2.4,-2.65 2.15,-2.85 1.85,-3.05 1.6,-3.2 1.55,-3.25 1.5,-3.25 1.45,-3.3 L1.425,-3.3 L1.4,-3.3 C0.45,-3.65 -0.3,-3.55 -0.9,-2.95 -0.75,-3 -0.65,-3 -0.5,-3 -1.15,-2.85 -1.65,-2.55 -2.1,-2 -2.3,-1.75 -2.5,-1.45 -2.7,-1.1 -2.75,-0.95 -2.75,-0.75 -2.75,-0.6 -2.75,-0.25 -2.8,0.1 -2.95,0.45 -3.2,1.05 -3.3,1.6 -3.25,2.05 -3.35,2.4 -3.45,2.8 -3.55,3.15 -3.6,3.3 -3.6,3.45 -3.65,3.6 -3.75,4.15 -3.85,4.7 -3.95,5.25 -4.05,5.8 -4.25,6.25 -4.55,6.7 -4.5,5.85 -4.35,5.05 -4.2,4.2 -4.75,4.55 -5.1,5.1 -5.35,5.95 -5.45,6.3 -5.5,6.6 -5.55,6.95 -5.45,6.85 -5.3,6.75 -5.15,6.65 -5.3,7.05 -5.5,7.4 -5.75,7.75 -5.85,7.9 -5.9,8.05 -5.95,8.25 -5.75,8.4 -5.6,8.5 -5.5,8.65 -5.5,8.65 -5.45,8.65 -5.4,8.65 -5.3,8.7 -5.3,8.85 -5.45,9.05 -5.5,9.1 -5.55,9.2 -5.6,9.35 -5.65,9.4 -5.65,9.4 -5.65,9.45 -5.6,9.5 -5.5,9.5 -5.4,9.55 -5.15,9.6 -4.85,9.6 -4.55,9.6 L-4.575,9.575 L-4.55,9.5 C-2.6,8.8 -0.9,7.75 0.5,6.35 L0.475,6.325 L0.5,6.35 C0.35,6.4 0.15,6.5 0,6.6 -0.7,7 -1.4,7.25 -2.1,7.4 -1,6.35 0.35,5.5 2,4.8 2.35,4.65 2.75,4.5 3.1,4.35 3.75,3.65 4.25,2.8 4.6,1.8 4.6,1.75 4.6,1.75 4.65,1.7 4.6,0.25 4,-0.9 2.95,-1.85z"/>
      </g>
      <animate attributeName="display" begin="0s" repeatCount="indefinite" dur="0.167s" keyTimes="0;0.399;1" values="inline;none;none"/>
    </g>
  </g>
</svg>