<?xml version="1.0" encoding="UTF-8" standalone="no"?>
<!-- Generator: flash2svg, http://dissentgraphics.com/tools/flash2svg -->

<svg
   xmlns:dc="http://purl.org/dc/elements/1.1/"
   xmlns:cc="http://creativecommons.org/ns#"
   xmlns:rdf="http://www.w3.org/1999/02/22-rdf-syntax-ns#"
   xmlns:svg="http://www.w3.org/2000/svg"
   xmlns="http://www.w3.org/2000/svg"
   xmlns:sodipodi="http://sodipodi.sourceforge.net/DTD/sodipodi-0.dtd"
   xmlns:inkscape="http://www.inkscape.org/namespaces/inkscape"
   id="Avatar"
   image-rendering="auto"
   version="1.1"
   x="0px"
   y="0px"
   width="50.370331"
   height="55.602024"
   viewBox="0 0 50.370331 55.602024"
   inkscape:version="0.48.4 r9939"
   sodipodi:docname="Avatar_backHead2.svg">
  <metadata
     id="metadata3215">
    <rdf:RDF>
      <cc:Work
         rdf:about="">
        <dc:format>image/svg+xml</dc:format>
        <dc:type
           rdf:resource="http://purl.org/dc/dcmitype/StillImage" />
      </cc:Work>
    </rdf:RDF>
  </metadata>
  <sodipodi:namedview
     pagecolor="#ffffff"
     bordercolor="#666666"
     borderopacity="1"
     objecttolerance="10"
     gridtolerance="10"
     guidetolerance="10"
     inkscape:pageopacity="0"
     inkscape:pageshadow="2"
     inkscape:window-width="640"
     inkscape:window-height="480"
     id="namedview3213"
     showgrid="false"
     fit-margin-top="0"
     fit-margin-left="0"
     fit-margin-right="0"
     fit-margin-bottom="0"
     inkscape:zoom="1.8730159"
     inkscape:cx="59.6535"
     inkscape:cy="61.818455"
     inkscape:window-x="0"
     inkscape:window-y="0"
     inkscape:window-maximized="0"
     inkscape:current-layer="Avatar" />
  <defs
     id="defs3186" />
  <g
     id="backHead3"
     overflow="visible"
     style="overflow:visible"
     transform="translate(25.6535,49.652026)">
    <g
       id="backHead2_4">
      <g
         id="element2">
        <path
           id="path47"
           d="m 24.3,-24.95 c 0,-0.65 -0.05,-1.25 -0.1,-1.85 0.05,-0.95 0,-1.9 -0.1,-2.9 -0.3,-2.6 -1.45,-6.5 -3.45,-11.65 0.05,0.25 0.1,0.45 0.15,0.7 -0.15,0.1 -1.2,-0.95 -3.1,-3.2 -1.95,-2.25 -6.2,-4.1 -12.85,-5.45 -0.7,-0.15 -1.45,-0.2 -2.3,-0.15 -0.85,-0.05 -1.65,-0.05 -2.45,0 -0.45,-0.05 -1,-0.1 -1.6,-0.05 -0.05,0 -0.05,0 -0.1,0.05 -0.25,-0.05 -0.45,-0.05 -0.65,-0.1 -7.55,-0.05 -13.7,2.65 -18.55,8.2 -0.45,0.5 -0.8,1 -1.05,1.55 -0.7,0.9 -1.3,1.9 -1.75,3 -1.85,4.45 -2.45,8.85 -1.8,13.3 -0.25,7.25 2.1,13.4 7.1,18.35 0.05,-0.05 0.05,-0.1 0.05,-0.15 0.25,0.3 0.5,0.6 0.75,0.95 3.65,4.55 8.15,7.55 13.4,9 C -4.55,4.3 -4.95,4 -5.4,3.7 c 1.95,0.85 3.8,1.6 5.65,2.25 0,-0.2 0,-0.4 -0.05,-0.55 1.4,0.2 2.85,-0.05 4.35,-0.7 3.55,-1.55 6.8,-3.55 9.65,-6.1 -0.55,0.15 -1.1,0.35 -1.65,0.6 0.45,-0.3 0.85,-0.65 1.3,-1 -0.05,0 -0.05,0 -0.1,0.05 2.2,-1.45 4.15,-3.4 5.8,-5.8 1.25,-1.75 2.25,-3.6 3,-5.45 0.05,-0.1 0.1,-0.2 0.15,-0.3 -0.05,0 -0.05,0 -0.05,0.05 1.5,-3.75 2.1,-7.7 1.75,-11.85 -0.05,0.05 -0.05,0.1 -0.1,0.15 z m -2.075,-9.025 -0.175,0.025 c 0.05,-0.15 0.05,-0.35 0.1,-0.5 l -0.025,0 q 0.052,0.237 0.1,0.475 z"
           inkscape:connector-curvature="0"
           style="fill:#663300" />
        <path
           id="path51"
           d="M 22.225,-33.975 22.05,-33.95 C 21,-39 18.05,-42.9 13.2,-45.75 10.8,-47.15 8.3,-48.1 5.7,-48.6 3.85,-48.65 2,-48.75 0.05,-48.9 c -4.55,-0.05 -9.05,0.8 -13.4,2.55 -1.6,1.25 -3.15,2.6 -4.7,4.15 -0.65,0.65 -1.3,1.05 -1.95,1.25 -0.85,1.05 -1.55,2.2 -2.15,3.35 -0.1,0.3 -0.2,0.6 -0.3,0.95 0,-0.15 0,-0.25 0,-0.35 -0.75,1.5 -1.35,3.1 -1.7,4.8 l -0.025,-0.025 0.325,0.075 c -1.15,6.55 -0.65,13 1.55,19.25 0.5,1.4 1.15,2.75 1.9,4 l -0.025,0 0.125,-0.05 c 2.85,3.9 6.4,7.2 10.65,9.85 0.65,0.4 1.3,0.8 1.95,1.2 l -0.025,0 0.025,-0.05 c 1.95,0.85 4,1.45 6.05,1.9 C -0.8,4.1 -0.2,4.5 0.05,5.05 3,4.1 6,2.75 9.05,1.05 L 9.05,1.025 8.95,0.8 c 2.9,-1.55 5.4,-3.45 7.55,-5.75 3.2,-4.25 5.35,-8.9 6.45,-14.05 0.2,-0.95 0.4,-1.85 0.6,-2.8 -0.05,-0.45 -0.05,-0.95 -0.05,-1.4 l -0.05,0 C 23.4,-26.8 23,-30.4 22.25,-33.95 M 8,-34.15 c -1.6,-0.4 -3.2,-0.7 -4.85,-0.85 1.75,0.05 3.45,0.2 5.2,0.4 1.3,0.15 2.45,0.55 3.45,1.15 1.6,0.35 3.15,0.75 4.6,1.25 -1.25,-0.25 -2.5,-0.5 -3.75,-0.7 0.2,0.15 0.4,0.35 0.65,0.55 -0.65,-0.25 -1.3,-0.5 -1.95,-0.75 -3.65,-0.55 -7.35,-0.85 -11,-0.8 0.45,5.6 0.45,11.25 0.1,16.9 -0.1,1.8 -0.25,3.6 -0.4,5.4 0,0 0,0 0,0.05 l 0,0.05 c -0.1,1.25 -0.25,2.55 -0.4,3.8 0.05,-6.75 0.05,-13.65 0,-20.8 -0.05,-1.85 0,-3.65 0.1,-5.4 -2.75,0 -5.55,0.15 -8.3,0.45 -2.25,0.25 -4.4,0.7 -6.55,1.3 2.45,-1.05 5,-1.7 7.7,-1.9 2.4,-0.2 4.8,-0.4 7.15,-0.6 0.05,-1.1 0.15,-2.15 0.2,-3.2 0.1,1.05 0.2,2.1 0.3,3.15 2.6,0 5.2,0.2 7.75,0.55 z M -10.85,-34 c 0.75,-0.1 1.45,-0.2 2.15,-0.3 -0.15,0.05 -0.35,0.05 -0.55,0.1 -1.65,0.4 -3.25,0.7 -4.7,0.85 0.15,-0.05 0.3,-0.1 0.45,-0.15 0.85,-0.2 1.75,-0.35 2.65,-0.5 z"
           inkscape:connector-curvature="0"
           style="fill:#ffffcc" />
        <path
           id="path52"
           d="M 8,-34.15 C 5.45,-34.5 2.85,-34.7 0.25,-34.7 c -0.1,-1.05 -0.2,-2.1 -0.3,-3.15 -0.05,1.05 -0.15,2.1 -0.2,3.2 -2.35,0.2 -4.75,0.4 -7.15,0.6 -2.7,0.2 -5.25,0.85 -7.7,1.9 2.15,-0.6 4.3,-1.05 6.55,-1.3 2.75,-0.3 5.55,-0.45 8.3,-0.45 -0.1,1.75 -0.15,3.55 -0.1,5.4 0.05,7.15 0.05,14.05 0,20.8 0.15,-1.25 0.3,-2.55 0.4,-3.8 l 0,-0.05 c 0,-0.05 0,-0.05 0,-0.05 0.15,-1.8 0.3,-3.6 0.4,-5.4 0.35,-5.65 0.35,-11.3 -0.1,-16.9 3.65,-0.05 7.35,0.25 11,0.8 0.65,0.25 1.3,0.5 1.95,0.75 -0.25,-0.2 -0.45,-0.4 -0.65,-0.55 1.25,0.2 2.5,0.45 3.75,0.7 -1.45,-0.5 -3,-0.9 -4.6,-1.25 -1,-0.6 -2.15,-1 -3.45,-1.15 -1.75,-0.2 -3.45,-0.35 -5.2,-0.4 1.65,0.15 3.25,0.45 4.85,0.85 z"
           inkscape:connector-curvature="0"
           style="fill:#663300" />
        <path
           id="path55"
           d="m -10.85,-34 c -0.9,0.15 -1.8,0.3 -2.65,0.5 -0.15,0.05 -0.3,0.1 -0.45,0.15 1.45,-0.15 3.05,-0.45 4.7,-0.85 0.2,-0.05 0.4,-0.05 0.55,-0.1 -0.7,0.1 -1.4,0.2 -2.15,0.3 z M 9.05,1.025 8.95,0.8 C 9.3,0.7 9.6,0.6 9.95,0.5 9.65,0.65 9.35,0.85 9.05,1.05 z m -33.225,-33.25 0.325,0.075 c -0.3,0.85 -0.55,1.7 -0.75,2.6 -0.05,0.2 -0.05,0.4 -0.1,0.6 0,-0.2 0,-0.4 0.05,-0.6 0.1,-0.9 0.25,-1.8 0.5,-2.65 z M -20.3,-8.95 c 0.1,0.25 0.25,0.55 0.4,0.85 -0.2,-0.25 -0.35,-0.55 -0.5,-0.8 l -0.025,0 0.125,-0.05 z"
           inkscape:connector-curvature="0"
           style="fill:#663300" />
      </g>
      <animate
         attributeName="display"
         begin="0s"
         repeatCount="indefinite"
         dur="0.167s"
         keyTimes="0;0.798;1"
         values="none;inline;none"
         id="animate3195" />
    </g>
    <g
       id="backHead2_2">
      <g
         id="element1">
        <path
           id="path22"
           d="m 1.1,-49.55 0,0.05 c -0.25,0 -0.45,0.05 -0.7,0.1 -0.05,0 -0.05,0 -0.1,0.05 0.7,0.15 1.4,0.35 2.1,0.5 C 1.85,-48.9 1.35,-48.9 0.85,-48.95 0,-49.3 -1,-49.4 -2.1,-49.35 c -1.45,0.05 -2.85,0.1 -4.3,0.05 -1.8,0.25 -3.6,0.65 -5.35,1.2 -5.15,1.55 -8.85,4.8 -11.05,9.65 -0.35,0.75 -0.45,1.4 -0.35,2.05 -0.25,0.35 -0.45,0.75 -0.6,1.2 -0.35,0.95 -0.5,1.8 -0.5,2.6 -1.4,4.6 -1.65,9.1 -0.8,13.55 0.05,-0.3 0.05,-0.6 0.1,-0.9 0.05,0.35 0.15,0.75 0.2,1.1 0.55,2.5 1.3,4.85 2.35,7 -0.3,-0.4 -0.6,-0.8 -0.95,-1.15 0.05,0.7 0.4,1.5 1,2.35 0.95,1.45 1.9,2.75 2.85,3.9 l -0.025,-0.025 0.025,0.025 c 0.5,0.65 1.1,1.4 1.75,2.2 2.5,3.05 5.45,5.3 8.8,6.7 0.05,0.05 0.15,0.1 0.2,0.15 3.15,1.95 6.4,2.95 9.85,3 C 1,5.25 0.9,5.2 0.85,5.15 1.2,5.05 1.5,4.9 1.7,4.7 2.95,4.65 4.15,4.3 5.4,3.65 c 3.45,-1.8 6.55,-3.9 9.3,-6.25 -0.2,0.1 -0.4,0.2 -0.6,0.3 0.35,-0.35 0.75,-0.7 1.1,-1.05 0.65,-0.45 1.25,-1.05 1.8,-1.75 1.9,-2.25 3.45,-4.55 4.65,-7 0.05,-0.05 0.05,-0.15 0.1,-0.2 1.05,-1.75 1.75,-3.65 2.2,-5.7 0.95,-4.55 0.85,-8.95 -0.25,-13.3 -0.2,-1.4 -0.4,-2.8 -0.65,-4.15 -0.1,0.25 -0.15,0.55 -0.2,0.8 -0.15,-0.85 -0.4,-1.7 -0.7,-2.5 -1.15,-3.1 -3,-5.5 -5.5,-7.2 -0.05,-0.05 -0.05,-0.15 -0.1,-0.2 0.05,0 0.05,0 0.1,0.05 -0.05,-0.1 -0.4,-0.45 -1,-1.1 C 15,-46.25 13.45,-46.95 10.9,-47.65 8.35,-48.4 5.1,-49 1.1,-49.55 z m 1.95,14.6 C 2.1,-35 1.1,-35 0.15,-34.95 c 0.05,-1.7 0.05,-3.4 0.1,-5.1 -0.25,1.65 -0.5,3.35 -0.65,5.1 -2.85,0.1 -5.65,0.4 -8.45,0.85 -2.35,0.4 -4.65,0.95 -6.95,1.7 0.75,0.05 1.55,-0.1 2.4,-0.35 4.4,-1.35 8.75,-2.05 13,-2.1 -0.15,1.5 -0.2,3.05 -0.25,4.65 -0.2,7.55 -0.3,14.9 -0.35,22.15 0.25,-1.85 0.45,-3.7 0.6,-5.6 0,2.45 0.05,4.9 0.1,7.25 C 0,-8.65 0.15,-11 0.2,-13.35 0.3,-18.4 0.3,-23.5 0.15,-28.6 c -0.05,0.75 -0.15,1.55 -0.2,2.35 0,-0.8 0,-1.6 0.05,-2.35 0.05,-2.1 0.1,-4.2 0.15,-6.25 5.55,0 11.05,1.1 16.4,3.3 -1.05,-1.15 -2.4,-1.9 -4.05,-2.35 -3.1,-0.75 -6.25,-1.1 -9.45,-1.05 z"
           inkscape:connector-curvature="0"
           style="fill:#663300" />
        <path
           id="path23"
           d="m 23,-31.3 -0.1,0 c -0.95,-3.85 -2.3,-7 -4.1,-9.55 -1.8,-2.55 -3.7,-4.3 -5.75,-5.3 l 0.025,-0.1 0.025,0 c -1.55,-0.6 -3.25,-1.05 -5,-1.4 -2.95,-0.55 -5.9,-0.95 -8.9,-1.2 -4.6,0.05 -9,0.9 -13.2,2.65 -3.3,1.4 -5.7,3.5 -7.25,6.35 -1.55,4.4 -2.55,9 -3.05,13.8 -0.1,0.95 -0.2,1.95 -0.3,2.9 0.45,5.45 2.4,10.4 5.75,14.85 0.85,1.15 1.75,2.25 2.65,3.35 0.65,0.75 1.25,1.55 1.75,2.35 0.75,0.55 1.5,1.1 2.3,1.65 0.55,0.35 1.05,0.7 1.5,1.1 l -0.025,0 0.025,0.025 0,0.025 c 0.1,0.1 0.2,0.2 0.35,0.3 2.35,1.55 4.9,2.65 7.65,3.3 C -1.8,4 -1.05,4.25 -0.3,4.55 0.15,4.3 0.7,4.1 1.4,4 1.55,3.95 1.75,3.95 1.95,3.95 L 2,4.075 2,4.1 C 2.8,3.75 3.6,3.45 4.35,3.1 L 4.35,3.075 6.075,2.225 6.1,2.25 c 4.1,-2.2 7.75,-5.1 10.9,-8.65 1.55,-1.8 2.85,-3.7 3.9,-5.7 2.15,-4.75 3,-9.75 2.45,-15.1 C 23.2,-28.5 23.1,-29.75 23.05,-31 23,-31.1 23,-31.2 23,-31.3 z m -23.025,2.7 0.175,0 c -0.05,0.75 -0.15,1.55 -0.2,2.35 0,-0.8 0,-1.6 0.05,-2.35 z M -10.65,0.15 c -0.05,-0.05 0.05,-0.1 0.2,-0.15 0.35,0.25 0.4,0.35 0.05,0.25 -0.15,-0.05 -0.2,-0.05 -0.25,-0.1 z"
           inkscape:connector-curvature="0"
           style="fill:#ffffcc" />
        <path
           id="path29"
           d="m -10.65,0.15 c 0.05,0.05 0.1,0.05 0.25,0.1 0.35,0.1 0.3,0 -0.05,-0.25 -0.15,0.05 -0.25,0.1 -0.2,0.15 z M 22.9,-31.3 c 0.05,-0.05 0.05,-0.05 0.1,-0.1 0,0.05 0,0.05 0,0.1 l -0.1,0 z m -9.8,-14.95 c 0.15,0.05 0.35,0.15 0.5,0.2 0.15,0.1 0.35,0.2 0.55,0.35 -0.35,-0.15 -0.75,-0.3 -1.1,-0.45 l 0.05,-0.1 z m 7,35.85 c 0.2,-0.45 0.4,-0.85 0.65,-1.3 0.1,0 0.2,0 0.3,-0.05 -0.3,0.35 -0.6,0.75 -0.85,1.15 -0.05,0.05 -0.05,0.15 -0.1,0.2 z m -39.8,2.95 c 0.15,0.15 0.25,0.35 0.4,0.5 -0.15,-0.1 -0.25,-0.2 -0.35,-0.3 -0.05,-0.05 -0.05,-0.15 -0.05,-0.2 z"
           inkscape:connector-curvature="0"
           style="fill:#663300" />
        <path
           id="path35"
           d="m 13.1,-46.25 c 0,0 0,0 0,0 m -0.025,0 -0.025,0.1 0.05,-0.1"
           inkscape:connector-curvature="0"
           style="fill:#ffffff" />
      </g>
      <animate
         attributeName="display"
         begin="0s"
         repeatCount="indefinite"
         dur="0.167s"
         keyTimes="0;0.399;0.798;1"
         values="none;inline;none;none"
         id="animate3203" />
    </g>
    <g
       id="backHead2_0">
      <g
         id="element">
        <path
           id="path"
           d="M 21.225,-38.825 Q 21.168,-38.982 21.1,-39.15 c -1.3,-3.45 -3.6,-5.85 -6.9,-7.2 -1,-0.65 -2.05,-1.15 -3.2,-1.5 -4.25,-1.25 -8.7,-1.8 -13.25,-1.75 -0.75,-0.1 -1.5,-0.05 -2.25,0.1 -1.75,0.45 -3.5,0.85 -5.25,1.25 -0.6,0.15 -1.15,0.35 -1.65,0.65 -4.45,1.2 -8.05,3.8 -10.85,7.75 -0.85,1.25 -1.35,2.4 -1.4,3.5 -0.75,1.35 -1.05,2.7 -1,4.05 -0.15,0.4 -0.25,0.85 -0.3,1.3 -0.6,3.55 -0.6,6.95 -0.05,10.2 -0.05,1.05 0.05,2.2 0.3,3.4 0.45,2.35 1.25,4.5 2.4,6.45 0,0.05 0,0.1 0.05,0.2 0.8,1.65 1.75,3.15 2.85,4.6 C -14.05,0.65 -7.3,4.65 0.9,5.9 0.95,5.75 0.9,5.65 0.75,5.6 0.5,5.55 0.3,5.45 0.05,5.4 0.5,5.4 1,5.35 1.55,5.2 1.9,5.15 2.25,5 2.55,4.8 2.5,4.8 2.5,4.8 2.45,4.75 3.2,4.6 4,4.4 4.8,4.05 9.1,2.2 12.85,-0.25 16.1,-3.4 c -0.35,0.2 -0.7,0.4 -1.05,0.6 0.15,-0.15 0.25,-0.25 0.4,-0.4 2.35,-2.3 4.15,-4.75 5.45,-7.4 0.9,-1.4 1.6,-2.9 2.15,-4.55 1.85,-5.65 2.15,-11.3 0.95,-17 0.05,-0.6 0,-1.25 -0.2,-1.95 -0.6,-2.1 -1.5,-4.1 -2.65,-5.95 -0.05,0.35 0,0.8 0.1,1.25"
           inkscape:connector-curvature="0"
           style="fill:#663300" />
        <path
           id="path1"
           d="m 22.45,-34.475 -0.15,0.025 c -0.55,-2.25 -1.6,-4.35 -3.15,-6.35 -1.6,-2 -2.7,-3.25 -3.35,-3.75 -5.9,-2.95 -12.4,-4.3 -19.5,-3.95 -2.05,0.15 -4.05,0.4 -6,0.85 -0.05,0 -0.05,0 -0.1,0.05 -3.95,1.35 -7.35,3.65 -10.3,6.85 -0.85,0.95 -1.6,2.05 -2.2,3.2 l -0.025,0 0.225,0.15 c -1.55,4.55 -2.2,9.35 -2.05,14.45 0.1,2.15 0.2,4.25 0.35,6.3 0.8,2.35 2,4.6 3.65,6.65 1.25,1.55 2.4,3.15 3.45,4.8 l -0.15,0.175 0,0.025 c 2.85,2.85 6.05,5.25 9.7,7.25 1.55,0.85 3.2,1.65 4.95,2.35 L -2.225,4.575 -2.2,4.55 C -2.25,4.5 -2.25,4.45 -2.1,4.4 -2.05,4.35 -2,4.35 -1.95,4.35 -1.25,4.4 -0.55,4.4 0.1,4.4 3.35,3.65 6.4,2.45 9.35,0.85 L 9.35,0.825 9.3,0.7 c 5.05,-3.55 9,-8 11.85,-13.4 0.75,-1.45 1.35,-2.85 1.8,-4.3 0.85,-3.25 1.05,-6.65 0.7,-10.2 -0.1,-0.85 -0.2,-1.7 -0.25,-2.55 -0.05,0.3 -0.15,0.6 -0.3,0.85 -0.1,-1.75 -0.3,-3.55 -0.6,-5.3 0,-0.1 0,-0.2 -0.05,-0.25 M 16.3,-31.2 C 11.05,-33.3 5.6,-34.35 0,-34.3 c 0.35,6.8 0.4,13.65 0.05,20.5 0,0.35 0,0.65 -0.05,0.95 l -0.175,3.3 0.025,0 c -0.05,0.95 -0.15,1.85 -0.25,2.8 0,-0.05 0,-0.05 0,-0.1 -0.15,1.65 -0.3,3.25 -0.45,4.9 0.15,-2.95 0.3,-5.9 0.4,-8.85 -0.1,-5.1 -0.2,-10.2 -0.25,-15.35 0,-2.85 0,-5.55 -0.05,-8.15 -2.8,0.05 -5.6,0.4 -8.45,0.95 -2.9,0.55 -5.65,1.45 -8.2,2.6 1.8,-1.15 3.95,-1.95 6.45,-2.5 3.15,-0.65 6.3,-1.1 9.45,-1.35 0.25,-0.05 0.45,-0.05 0.7,-0.05 0,-0.05 0,-0.15 0,-0.2 0,0.05 0,0.15 0.05,0.2 0.1,0 0.2,0 0.35,0 -0.05,-1.95 -0.05,-3.9 -0.05,-5.75 0.15,1.9 0.3,3.8 0.4,5.75 3.75,-0.15 7.45,0.25 11.05,1.2 1.85,0.5 3.65,1.25 5.3,2.25 z"
           inkscape:connector-curvature="0"
           style="fill:#ffffcc" />
        <path
           id="path2"
           d="m 16.3,-31.2 c -1.65,-1 -3.45,-1.75 -5.3,-2.25 -3.6,-0.95 -7.3,-1.35 -11.05,-1.2 -0.1,-1.95 -0.25,-3.85 -0.4,-5.75 0,1.85 0,3.8 0.05,5.75 -0.15,0 -0.25,0 -0.35,0 -0.05,-0.05 -0.05,-0.15 -0.05,-0.2 0,0.05 0,0.15 0,0.2 -0.25,0 -0.45,0 -0.7,0.05 -3.15,0.25 -6.3,0.7 -9.45,1.35 -2.5,0.55 -4.65,1.35 -6.45,2.5 2.55,-1.15 5.3,-2.05 8.2,-2.6 2.85,-0.55 5.65,-0.9 8.45,-0.95 0.05,2.6 0.05,5.3 0.05,8.15 0.05,5.15 0.15,10.25 0.25,15.35 -0.1,2.95 -0.25,5.9 -0.4,8.85 0.15,-1.65 0.3,-3.25 0.45,-4.9 0,0.05 0,0.05 0,0.1 0.1,-0.95 0.2,-1.85 0.25,-2.8 l -0.025,0 0.175,-3.3 c 0.05,-0.3 0.05,-0.6 0.05,-0.95 0.35,-6.85 0.3,-13.7 -0.05,-20.5 5.6,-0.05 11.05,1 16.3,3.1 z m -16.7,-3.1 c 0,1.4 0,2.8 0.05,4.25 -0.15,-1.45 -0.25,-2.85 -0.4,-4.25 0.1,0 0.2,0 0.35,0 z m 22.7,-0.15 c -0.1,-0.8 -0.25,-1.6 -0.45,-2.4 0.2,0.45 0.4,0.95 0.6,1.45 -0.05,0.3 -0.05,0.6 0,0.95 l 0,-0.025 -0.15,0.025 z M 9.3,0.7 C 9.55,0.65 9.75,0.55 10,0.5 9.75,0.6 9.55,0.7 9.35,0.85 L 9.35,0.825 9.3,0.7 z m -31.4,-38.1 c -0.3,0.35 -0.6,0.75 -0.85,1.15 0.15,-0.45 0.35,-0.85 0.6,-1.25 l 0,-0.025 0.25,0.125 z m 5.4,32.2 -0.15,0.175 0,0.025 c -0.3,-0.35 -0.6,-0.65 -0.9,-0.95 0.35,0.25 0.7,0.5 1.05,0.75 z"
           inkscape:connector-curvature="0"
           style="fill:#663300" />
        <path
           id="path14"
           d="m -22.1,-37.4 -0.225,-0.15 -0.025,0.025 0.25,0.125"
           inkscape:connector-curvature="0"
           style="fill:#ffffff" />
      </g>
      <animate
         attributeName="display"
         begin="0s"
         repeatCount="indefinite"
         dur="0.167s"
         keyTimes="0;0.399;1"
         values="inline;none;none"
         id="animate3211" />
    </g>
  </g>
</svg>
