<?xml version="1.0" encoding="UTF-8" standalone="no"?>
<!-- Generator: flash2svg, http://dissentgraphics.com/tools/flash2svg -->

<svg
   xmlns:dc="http://purl.org/dc/elements/1.1/"
   xmlns:cc="http://creativecommons.org/ns#"
   xmlns:rdf="http://www.w3.org/1999/02/22-rdf-syntax-ns#"
   xmlns:svg="http://www.w3.org/2000/svg"
   xmlns="http://www.w3.org/2000/svg"
   xmlns:xlink="http://www.w3.org/1999/xlink"
   xmlns:sodipodi="http://sodipodi.sourceforge.net/DTD/sodipodi-0.dtd"
   xmlns:inkscape="http://www.inkscape.org/namespaces/inkscape"
   id="AvatarAssets"
   image-rendering="auto"
   version="1.1"
   x="0px"
   y="0px"
   width="13.340474"
   height="13.312621"
   viewBox="0 0 13.340474 13.312621"
   inkscape:version="0.48.4 r9939"
   sodipodi:docname="AvatarAssets_sideEarClose0005.svg">
  <metadata
     id="metadata3093">
    <rdf:RDF>
      <cc:Work
         rdf:about="">
        <dc:format>image/svg+xml</dc:format>
        <dc:type
           rdf:resource="http://purl.org/dc/dcmitype/StillImage" />
      </cc:Work>
    </rdf:RDF>
  </metadata>
  <sodipodi:namedview
     pagecolor="#ffffff"
     bordercolor="#666666"
     borderopacity="1"
     objecttolerance="10"
     gridtolerance="10"
     guidetolerance="10"
     inkscape:pageopacity="0"
     inkscape:pageshadow="2"
     inkscape:window-width="640"
     inkscape:window-height="480"
     id="namedview3091"
     showgrid="false"
     fit-margin-top="0"
     fit-margin-left="0"
     fit-margin-right="0"
     fit-margin-bottom="0"
     inkscape:zoom="1.9032258"
     inkscape:cx="40.503416"
     inkscape:cy="-52.511268"
     inkscape:window-x="0"
     inkscape:window-y="0"
     inkscape:window-maximized="0"
     inkscape:current-layer="AvatarAssets" />
  <defs
     id="defs3065">
    <pattern
       id="bitmap"
       patternContentUnits="userSpaceOnUse"
       patternUnits="userSpaceOnUse"
       width="200"
       height="200"
       viewBox="0 0 200 200"
       patternTransform="matrix(1 0 0 1 -75.999 -50.149)">
      <symbol
         id="Avatar_Texture_symbol"
         viewBox="0 0 200 200">
        <image
           sodipodi:absref="C:\Users\Training\Documents\GitHub\glitch-avatars\base_avatar\Avatar_Texture"
           xlink:href="Avatar_Texture"
           height="200"
           width="200"
           id="Avatar_Texture" />
      </symbol>
      <use
         id="Avatar_Texture_use"
         width="200"
         height="200"
         y="0"
         x="0"
         xlink:href="#Avatar_Texture_symbol"
         externalResourcesRequired="true" />
    </pattern>
    <pattern
       id="bitmap1"
       patternContentUnits="userSpaceOnUse"
       patternUnits="userSpaceOnUse"
       width="200"
       height="200"
       viewBox="0 0 200 200"
       patternTransform="matrix(1.275634765625 -0.0474090576171875 0.0474090576171875 1.275634765625 -134.099 -119.749)">
      <symbol
         id="symbol3072"
         viewBox="0 0 200 200">
        <image
           sodipodi:absref="C:\Users\Training\Documents\GitHub\glitch-avatars\base_avatar\Avatar_Texture"
           xlink:href="Avatar_Texture"
           height="200"
           width="200"
           id="image3074" />
      </symbol>
      <use
         id="use3076"
         width="200"
         height="200"
         y="0"
         x="0"
         xlink:href="#Avatar_Texture_symbol"
         externalResourcesRequired="true" />
    </pattern>
  </defs>
  <g
     id="sideEarClose6"
     overflow="visible"
     style="overflow:visible"
     transform="translate(8.5034156,3.8238893)">
    <g
       id="sideEarClose0005_0">
      <g
         id="element">
        <g
           id="drawingObject">
          <path
             id="path"
             d="m -6.06,-3.214 c -1.875,1.092 -2.55,3.544 -2.43,5.072 0.121,1.529 0.87,2.778 4.036,3.746 3.165,0.969 4.065,1.127 4.417,2.008 0.289,0.883 1.841,3.125 3.23,0.966 C 4.579,6.354 5.354,4.857 4.444,2.719 3.537,0.645 2.369,-1.547 1.654,-1.904 q -5.465,-2.671 -7.714,-1.31 z"
             inkscape:connector-curvature="0"
             style="fill:url(#bitmap1)" />
        </g>
        <g
           id="drawingObject1">
          <path
             id="path1"
             d="m 1.852,-1.72 0.406,0.624 C 3.142,0.34 4.697,4.37 3.807,6.192 2.501,8.859 1.307,7.69 0.634,6.757 -0.039,5.824 -1.135,5.545 -2.862,5.481 -3.758,5.451 -5.045,5.179 -6.011,4.96 l 1.557,0.644 c 3.165,0.969 4.065,1.127 4.417,2.008 0.289,0.883 1.841,3.125 3.23,0.966 C 4.579,6.354 5.354,4.857 4.444,2.719 3.607,0.834 2.58,-1.044 1.852,-1.72 z"
             inkscape:connector-curvature="0"
             style="fill:#000000;fill-opacity:0.28200001" />
        </g>
        <g
           id="drawingObject2">
          <path
             id="path2"
             d="M 2.059,-1.61 1.596,-2.04 c -2.667,-1.306 -5.84,-2.465 -7.713,-1.31 -1.189,0.683 -1.906,1.987 -2.244,3.213 q 1.644,-2.169 3.363,-2.296 c 2.034,-0.267 4.916,-0.055 7.057,0.823 z"
             inkscape:connector-curvature="0"
             style="fill:#ffffff;fill-opacity:0.25099996" />
        </g>
        <g
           id="drawingObject3">
          <path
             id="path3"
             d="M 0.74,1.004 C -0.238,0.466 -1.807,-0.498 -3.864,0.856 q -1.309,0.879 -1.283,1.581 -0.05,0.385 0.213,0.567 c 0.39,1.901 3.113,1.289 4.519,1.301 0.576,0.042 1.028,0.153 1.358,0.46 C 0.941,4.701 0.87,4.512 0.861,4.257 0.693,3.178 2.105,3.381 2.105,3.381 c 0,0 -0.39,-1.902 -1.365,-2.377 z"
             inkscape:connector-curvature="0"
             style="fill:#000000;fill-opacity:0.25099996" />
        </g>
        <g
           id="drawingObject4">
          <path
             id="path4"
             d="M 1.399,5.004 C 2.068,5.809 4.08,4.968 2.831,3.992 Q 2.172,3.442 1.55,3.912 0.929,4.382 1.399,5.004 z"
             inkscape:connector-curvature="0"
             style="fill:#ffffff;fill-opacity:0.4" />
        </g>
      </g>
    </g>
  </g>
</svg>
