<?xml version="1.0" encoding="UTF-8" standalone="no"?>
<!-- Generator: flash2svg, http://dissentgraphics.com/tools/flash2svg -->

<svg
   xmlns:dc="http://purl.org/dc/elements/1.1/"
   xmlns:cc="http://creativecommons.org/ns#"
   xmlns:rdf="http://www.w3.org/1999/02/22-rdf-syntax-ns#"
   xmlns:svg="http://www.w3.org/2000/svg"
   xmlns="http://www.w3.org/2000/svg"
   xmlns:xlink="http://www.w3.org/1999/xlink"
   xmlns:sodipodi="http://sodipodi.sourceforge.net/DTD/sodipodi-0.dtd"
   xmlns:inkscape="http://www.inkscape.org/namespaces/inkscape"
   id="AvatarAssets"
   image-rendering="auto"
   version="1.1"
   x="0px"
   y="0px"
   width="14.330515"
   height="15.868624"
   viewBox="0 0 14.330515 15.868624"
   inkscape:version="0.48.4 r9939"
   sodipodi:docname="AvatarAssets_sideEarClose0003.svg">
  <metadata
     id="metadata3062">
    <rdf:RDF>
      <cc:Work
         rdf:about="">
        <dc:format>image/svg+xml</dc:format>
        <dc:type
           rdf:resource="http://purl.org/dc/dcmitype/StillImage" />
      </cc:Work>
    </rdf:RDF>
  </metadata>
  <sodipodi:namedview
     pagecolor="#ffffff"
     bordercolor="#666666"
     borderopacity="1"
     objecttolerance="10"
     gridtolerance="10"
     guidetolerance="10"
     inkscape:pageopacity="0"
     inkscape:pageshadow="2"
     inkscape:window-width="640"
     inkscape:window-height="480"
     id="namedview3060"
     showgrid="false"
     fit-margin-top="0"
     fit-margin-left="0"
     fit-margin-right="0"
     fit-margin-bottom="0"
     inkscape:zoom="1.9032258"
     inkscape:cx="41.602633"
     inkscape:cy="-53.345376"
     inkscape:window-x="0"
     inkscape:window-y="0"
     inkscape:window-maximized="0"
     inkscape:current-layer="AvatarAssets" />
  <defs
     id="defs3036">
    <pattern
       id="bitmap"
       patternContentUnits="userSpaceOnUse"
       patternUnits="userSpaceOnUse"
       width="200"
       height="200"
       viewBox="0 0 200 200"
       patternTransform="matrix(1 0 0 1 -76.499 -53.149)">
      <symbol
         id="Avatar_Texture_symbol"
         viewBox="0 0 200 200">
        <image
           sodipodi:absref="C:\Users\Training\Documents\GitHub\glitch-avatars\base_avatar\Avatar_Texture"
           xlink:href="Avatar_Texture"
           height="200"
           width="200"
           id="Avatar_Texture" />
      </symbol>
      <use
         id="Avatar_Texture_use"
         width="200"
         height="200"
         y="0"
         x="0"
         xlink:href="#Avatar_Texture_symbol"
         externalResourcesRequired="true" />
    </pattern>
    <pattern
       id="bitmap1"
       patternContentUnits="userSpaceOnUse"
       patternUnits="userSpaceOnUse"
       width="200"
       height="200"
       viewBox="0 0 200 200"
       patternTransform="matrix(0.9975433349609375 0.0697784423828125 -0.0697784423828125 0.9975433349609375 -95.099 -105.799)">
      <symbol
         id="symbol3043"
         viewBox="0 0 200 200">
        <image
           sodipodi:absref="C:\Users\Training\Documents\GitHub\glitch-avatars\base_avatar\Avatar_Texture"
           xlink:href="Avatar_Texture"
           height="200"
           width="200"
           id="image3045" />
      </symbol>
      <use
         id="use3047"
         width="200"
         height="200"
         y="0"
         x="0"
         xlink:href="#Avatar_Texture_symbol"
         externalResourcesRequired="true" />
    </pattern>
  </defs>
  <g
     id="sideEarClose4"
     overflow="visible"
     style="overflow:visible"
     transform="translate(9.6026334,7.214)">
    <g
       id="sideEarClose0003_0">
      <g
         id="element">
        <g
           id="drawingObject">
          <path
             id="path"
             d="m -9.284,-7.172 c 0,0 -1.682,6.849 2.683,10.362 3.891,3.129 4.48,4.022 6.961,5.098 C 2.791,9.36 5.393,7.989 4.574,5.375 3.8,2.815 3.236,1.573 2.999,0.654 Q 2.945,-0.002 2.402,-0.841 1.313,-2.471 -1.075,-3.44 c -3.849,-1.573 -4.533,-1.119 -6.833,-2.634 -1.437,-0.952 -1.376,-1.098 -1.376,-1.098 z"
             inkscape:connector-curvature="0"
             style="fill:url(#bitmap1)" />
        </g>
        <g
           id="drawingObject1">
          <path
             id="path1"
             d="M 0.36,8.288 C 2.791,9.36 5.393,7.989 4.574,5.375 Q 3.536,2.295 3.246,1.423 C 3.756,4.165 3.802,6.374 2.553,7.038 0.883,7.974 -1.153,6.278 -3.991,4.576 -5.824,3.545 -7.597,1.667 -8.667,0.489 c 0.432,0.983 1.117,1.933 2.066,2.701 3.891,3.129 4.48,4.022 6.961,5.098 z"
             inkscape:connector-curvature="0"
             style="fill:#000000;fill-opacity:0.29800002" />
        </g>
        <g
           id="drawingObject2">
          <path
             id="path2"
             d="m 2.984,0.588 c 0,0 -0.271,-2.576 -4.074,-4.095 -3.85,-1.572 -4.533,-1.119 -6.833,-2.633 -0.716,-0.501 -1.048,-0.775 -1.38,-1.049 l 0.002,-0.025 -0.101,0.72 q 0.905,2.118 2.423,2.626 c 2.691,0.94 7.963,2.962 10.207,5.275 L 2.984,0.588 z"
             inkscape:connector-curvature="0"
             style="fill:#ffffff;fill-opacity:0.25099996" />
        </g>
        <g
           id="drawingObject3">
          <path
             id="path3"
             d="M -2.345,0.38 -3.734,0.183 -4.283,2.3 -2.907,3.398 -2.877,1.546 -0.604,2.006 0.103,2.657 0.918,4.618 0.105,4.06 -0.16,3.54 -1.425,3.001 -1.558,4.896 -0.866,5.045 C -0.179,5.243 1.461,6.16 1.461,6.16 L 1.985,3.69 c 0,0 -1.075,-1.829 -2.177,-2.558 C -1.24,0.357 -3.734,0.183 -3.734,0.183"
             inkscape:connector-curvature="0"
             style="fill:#000000;fill-opacity:0.29800002" />
        </g>
      </g>
    </g>
  </g>
</svg>
