<?xml version="1.0" encoding="UTF-8" standalone="no"?>
<!-- Generator: flash2svg, http://dissentgraphics.com/tools/flash2svg -->

<svg
   xmlns:dc="http://purl.org/dc/elements/1.1/"
   xmlns:cc="http://creativecommons.org/ns#"
   xmlns:rdf="http://www.w3.org/1999/02/22-rdf-syntax-ns#"
   xmlns:svg="http://www.w3.org/2000/svg"
   xmlns="http://www.w3.org/2000/svg"
   xmlns:sodipodi="http://sodipodi.sourceforge.net/DTD/sodipodi-0.dtd"
   xmlns:inkscape="http://www.inkscape.org/namespaces/inkscape"
   id="AvatarAssets"
   image-rendering="auto"
   version="1.1"
   x="0px"
   y="0px"
   width="11.651998"
   height="14.4875"
   viewBox="0 0 11.651998 14.4875"
   inkscape:version="0.48.4 r9939"
   sodipodi:docname="AvatarAssets_backHoodieSleeveLowerRight20101122.svg">
  <metadata
     id="metadata3065">
    <rdf:RDF>
      <cc:Work
         rdf:about="">
        <dc:format>image/svg+xml</dc:format>
        <dc:type
           rdf:resource="http://purl.org/dc/dcmitype/StillImage" />
      </cc:Work>
    </rdf:RDF>
  </metadata>
  <sodipodi:namedview
     pagecolor="#ffffff"
     bordercolor="#666666"
     borderopacity="1"
     objecttolerance="10"
     gridtolerance="10"
     guidetolerance="10"
     inkscape:pageopacity="0"
     inkscape:pageshadow="2"
     inkscape:window-width="640"
     inkscape:window-height="480"
     id="namedview3063"
     showgrid="false"
     fit-margin-top="0"
     fit-margin-left="0"
     fit-margin-right="0"
     fit-margin-bottom="0"
     inkscape:zoom="1.9032258"
     inkscape:cx="35.3"
     inkscape:cy="-59.5125"
     inkscape:window-x="0"
     inkscape:window-y="0"
     inkscape:window-maximized="0"
     inkscape:current-layer="AvatarAssets" />
  <defs
     id="defs3051" />
  <g
     id="backHoodieSleeveLowerRight20101123"
     overflow="visible"
     style="overflow:visible"
     transform="translate(3.3,12)">
    <g
       id="backHoodieSleeveLowerRight20101122_0">
      <g
         id="element">
        <path
           id="path"
           d="m 7.7,-9.4 0,-0.05 C 7.65,-9.5 7.65,-9.6 7.55,-9.75 7.2,-10.3 6.8,-10.7 6.3,-11.05 L 6.175,-11.125 6.2,-11.1 c -0.2,-0.15 -0.6,-0.35 -1.15,-0.5 0.45,0.2 0.8,0.45 1.05,0.75 0.2,0.25 0.95,1.1 1.05,1.4 0.2,0.6 -0.4,0.5 -0.65,0.5 l 0.1,0.15 c 0.05,0.05 0.05,0.05 0.1,0.1 0.15,0.3 0.25,0.4 0.3,0.55 0.2,0 0.4,-0.05 0.55,-0.2 C 7.7,-8.55 7.75,-9 7.7,-9.4 z M 6.05,-9.45 c 0.05,0.05 0.1,0.1 0.15,0.15 0,-0.15 0,-0.35 -0.05,-0.55 0,0.2 -0.1,0.4 -0.1,0.4 z m -1.1,-1.65 0,-0.1 c -0.35,0.05 -0.6,0.45 -0.7,0.5 0.05,0 0.1,0 0.25,0.1 0.2,-0.1 0.25,-0.3 0.45,-0.5 z m -3.5,0.55 C 1.4,-10.5 1.55,-10.65 2,-10.8 l 0,-0.05 c -0.15,-0.15 -0.35,0 -0.55,0.3 z M 7.3,-7.8 c 0,0.05 -0.05,-0.05 -0.1,-0.15 l 0,0.025 0,0.025 c 0,0.55 0.05,0.95 -0.2,1.5 -0.3,0.75 -0.6,1.3 -0.8,2 -0.35,0.9 -0.85,1.85 -1.75,2.1 -0.8,0.2 -1.05,-0.6 -1.5,-1.15 -0.75,-0.8 -1.6,-1 -2.4,-0.8 L 0.75,-4.75 0.6,-5.05 0.4,-5.4 C 0,-5.85 -0.5,-6.15 -1,-6.05 l -0.75,1.15 -0.15,0.2 -0.05,0.4 c 0,0.65 0,1.35 0.15,1.6 l 0.1,0.1 c -0.35,0.45 -0.6,1 -0.75,1.5 L -2.9,0.55 c 0.15,0.25 0.3,0.5 0.45,0.75 l 0.3,0.35 0.3,0.25 C -1.75,2 -1.65,2.05 -1.7,2 L -1.725,1.975 -1.4,2.15 c 0.5,0.15 0.85,0.25 1.2,0.3 L 1.6,1.35 C 2.35,0.8 2.7,0.1 3.15,-0.7 c 0.2,0.05 0.3,0.15 0.35,0.35 0.85,0.25 2.3,-2.3 2.7,-3 0.45,-0.65 0.95,-1.1 1.4,-1.7 0.35,-0.5 0.3,-1.1 0.2,-1.7 -0.1,-0.3 -0.25,-0.6 -0.5,-1.05 z"
           inkscape:connector-curvature="0"
           style="fill:#4f4f4f" />
        <path
           id="path1"
           d="m 7.7,-9.45 0,0.05 C 7.75,-9 7.7,-8.55 7.55,-8.35 7.4,-8.2 7.2,-8.15 7,-8.15 l 0.2,0.2 c 0.05,0.1 0.1,0.2 0.1,0.15 0.3,0.6 0.5,1 0.6,1.2 -0.1,-0.05 -0.1,-0.1 -0.1,-0.15 0.1,0.6 0.15,1.2 -0.2,1.7 -0.45,0.6 -0.95,1.05 -1.4,1.7 -0.4,0.7 -1.85,3.25 -2.7,3 C 3.45,-0.55 3.35,-0.65 3.15,-0.7 2.7,0.1 2.35,0.8 1.6,1.35 l -1.8,1.1 c 0.25,0.05 0.5,0 0.95,0 L 1.05,2.4 C 1.9,2.25 2.75,1.9 3.6,1.3 4.75,0.45 6.45,-2.1 6.95,-2.75 7.5,-3.4 8.4,-4.2 8.35,-5.05 L 8.3,-5.3 C 8.25,-5.6 8.15,-6 7.95,-6.45 q 0.2,-0.25 0.2,-0.9 L 7.9,-8.95 C 7.85,-9.1 7.8,-9.3 7.7,-9.45 z m -2.25,-0.5 c 0.05,0 0.1,0.05 0.15,0.1 0.15,0.1 0.3,0.25 0.45,0.4 0,0 0.1,-0.2 0.1,-0.4 l 0.1,-0.45 c -0.35,0.05 -0.6,0.3 -0.8,0.35 z m -0.4,-1.25 -0.1,0.1 c -0.2,0.2 -0.25,0.4 -0.45,0.5 0.2,0.05 0.4,0.15 0.6,0.4 l -0.05,-1 z"
           inkscape:connector-curvature="0"
           style="fill:#3b3b3b" />
        <path
           id="path2"
           d="M 5.6,-9.85 C 5.55,-9.9 5.5,-9.95 5.45,-9.95 5.7,-9.65 5.8,-9.5 5.9,-9.3 5.45,-9.05 4.7,-9.55 4.2,-9.65 L 3,-9.7 c 0.65,0.15 2.5,0.9 2.45,2.1 C 5.4,-7.35 5.1,-7.05 5,-6.7 4.85,-6.35 4.85,-5.8 4.65,-5.5 4.1,-4.7 2.75,-4.9 2.05,-5.1 1.55,-5.25 0.95,-5.35 0.4,-5.4 l 0.2,0.35 c 0.35,0 0.75,0.1 1.05,0.2 0.6,0.25 1.1,0.65 1.6,0.9 0.3,0.15 0.4,0.3 0.7,0.2 0.6,-0.15 0.3,-0.4 0.55,-0.85 0.45,-0.65 1.3,-0.75 1.65,-1.7 0.2,-0.75 -0.1,-1.35 -0.2,-2.15 L 6.3,-8.2 5.95,-8.45 c 0.25,0.1 0.4,0.4 0.75,0.3 0.05,-0.15 0,-0.35 0,-0.55 C 6.65,-8.75 6.65,-8.75 6.6,-8.8 L 6.5,-8.95 C 6.35,-9.1 6.3,-9.25 6.2,-9.3 6.15,-9.35 6.1,-9.4 6.05,-9.45 5.9,-9.6 5.75,-9.75 5.6,-9.85 z m -7.5,5.15 -0.25,0.35 -0.1,0.15 c -0.15,0.2 -0.2,0.25 -0.25,0.3 -0.1,0.1 -0.15,0.2 -0.1,0.15 -0.1,0.2 -0.25,0.4 -0.3,0.5 0.25,-0.4 0.6,-0.75 0.95,-1.05 l 0.05,-0.4 z"
           inkscape:connector-curvature="0"
           style="fill:#787878" />
        <path
           id="path7"
           d="m 6.15,-9.85 c 0.05,0.2 0.05,0.4 0.05,0.55 0.1,0.05 0.15,0.2 0.3,0.35 0.25,0 0.85,0.1 0.65,-0.5 C 7.05,-9.75 6.3,-10.6 6.1,-10.85 5.85,-11.15 5.5,-11.4 5.05,-11.6 5.6,-11.45 6,-11.25 6.2,-11.1 5.25,-11.7 4.2,-12 3,-12 c -1.45,0 -2.05,0.55 -1.9,1.7 -0.4,0.3 -0.75,1.55 -0.9,2.1 0,0.35 -0.6,1.3 -1.2,2.15 0.5,-0.1 1,0.2 1.4,0.65 0.55,0.05 1.15,0.15 1.65,0.3 0.7,0.2 2.05,0.4 2.6,-0.4 C 4.85,-5.8 4.85,-6.35 5,-6.7 5.1,-7.05 5.4,-7.35 5.45,-7.6 5.5,-8.8 3.65,-9.55 3,-9.7 l 1.2,0.05 c 0.5,0.1 1.25,0.6 1.7,0.35 -0.1,-0.2 -0.2,-0.35 -0.45,-0.65 0.2,-0.05 0.45,-0.3 0.8,-0.35 l -0.1,0.45 z m -2.6,-1.55 0.15,-0.15 c 0.05,0.3 0.05,0.55 0.1,0.65 C 3.5,-10.95 3.35,-11 3.25,-11 L 3.3,-11.05 3.25,-11 c 0.05,-0.05 0.15,-0.3 0.3,-0.4 z M 7.9,-6.6 C 7.8,-6.8 7.6,-7.2 7.3,-7.8 c 0.25,0.45 0.4,0.75 0.5,1.05 0,0.05 0,0.1 0.1,0.15 z M -2.45,1.3 c -0.3,-0.35 -0.5,-0.7 -0.6,-1.1 0.05,0.15 0.1,0.25 0.15,0.35 0.15,0.25 0.3,0.5 0.45,0.75 z m 2.25,1.15 c 0.25,0.05 0.5,0 0.95,0 -0.75,0.1 -1.35,0 -2.15,-0.3 0.5,0.15 0.85,0.25 1.2,0.3 z"
           inkscape:connector-curvature="0"
           style="fill:#858585" />
        <path
           id="path12"
           d="M 3.55,-11.4 C 3.4,-11.3 3.3,-11.05 3.25,-11 L 3.3,-11.05 3.25,-11 c 0.1,0 0.25,0.05 0.55,0.1 -0.05,-0.1 -0.05,-0.35 -0.1,-0.65 l -0.15,0.15 z m -1.45,-0.05 -0.1,0.6 0,0.05 c 0,0 0,0 0.2,-0.05 C 2.15,-11 2.1,-11.2 2.1,-11.45 z"
           inkscape:connector-curvature="0"
           style="fill:#3b3b3b" />
        <path
           id="path21"
           d="M 7.2,-7.95 7,-8.15 C 6.95,-8.3 6.85,-8.4 6.7,-8.7 c 0,0.2 0.05,0.4 0,0.55 -0.35,0.1 -0.5,-0.2 -0.75,-0.3 L 6.3,-8.2 5.95,-8.45 c 0.1,0.8 0.4,1.4 0.2,2.15 -0.35,0.95 -1.2,1.05 -1.65,1.7 -0.25,0.45 0.05,0.7 -0.55,0.85 -0.3,0.1 -0.4,-0.05 -0.7,-0.2 -0.5,-0.25 -1,-0.65 -1.6,-0.9 -0.3,-0.1 -0.7,-0.2 -1.05,-0.2 l 0.15,0.3 -0.2,0.5 c 0.8,-0.2 1.65,0 2.4,0.8 0.45,0.55 0.7,1.35 1.5,1.15 0.9,-0.25 1.4,-1.2 1.75,-2.1 0.2,-0.7 0.5,-1.25 0.8,-2 0.25,-0.55 0.2,-0.95 0.2,-1.5 l 0,-0.025 0,-0.025 z m -10.1,4.7 -0.05,0.1 c -0.2,0.75 -0.3,1.35 -0.35,1.75 0,0.3 0.1,0.6 0.05,0.65 l 0.1,0.6 c 0,0.1 0.05,0.2 0.1,0.35 0.05,0.15 0.1,0.25 0.15,0.35 l 0.45,-1.65 c 0.15,-0.5 0.4,-1.05 0.75,-1.5 l -0.1,-0.1 c -0.15,-0.25 -0.15,-0.95 -0.15,-1.6 -0.35,0.3 -0.7,0.65 -0.95,1.05 z"
           inkscape:connector-curvature="0"
           style="fill:#666666" />
        <path
           id="path24"
           d="m -1.75,-4.9 c -0.15,0.15 -0.3,0.35 -0.4,0.55 l 0.25,-0.35 0.15,-0.2"
           inkscape:connector-curvature="0"
           style="fill:#858585" />
      </g>
    </g>
  </g>
</svg>
