<?xml version="1.0" encoding="UTF-8" standalone="no"?>
<!-- Generator: flash2svg, http://dissentgraphics.com/tools/flash2svg -->

<svg
   xmlns:dc="http://purl.org/dc/elements/1.1/"
   xmlns:cc="http://creativecommons.org/ns#"
   xmlns:rdf="http://www.w3.org/1999/02/22-rdf-syntax-ns#"
   xmlns:svg="http://www.w3.org/2000/svg"
   xmlns="http://www.w3.org/2000/svg"
   xmlns:sodipodi="http://sodipodi.sourceforge.net/DTD/sodipodi-0.dtd"
   xmlns:inkscape="http://www.inkscape.org/namespaces/inkscape"
   id="AvatarAssets"
   image-rendering="auto"
   version="1.1"
   x="0px"
   y="0px"
   width="10.639585"
   height="11.972238"
   viewBox="0 0 10.639585 11.972238"
   inkscape:version="0.48.4 r9939"
   sodipodi:docname="AvatarAssets_backSleeveLowerRightA001.svg">
  <metadata
     id="metadata3154">
    <rdf:RDF>
      <cc:Work
         rdf:about="">
        <dc:format>image/svg+xml</dc:format>
        <dc:type
           rdf:resource="http://purl.org/dc/dcmitype/StillImage" />
      </cc:Work>
    </rdf:RDF>
  </metadata>
  <sodipodi:namedview
     pagecolor="#ffffff"
     bordercolor="#666666"
     borderopacity="1"
     objecttolerance="10"
     gridtolerance="10"
     guidetolerance="10"
     inkscape:pageopacity="0"
     inkscape:pageshadow="2"
     inkscape:window-width="640"
     inkscape:window-height="480"
     id="namedview3152"
     showgrid="false"
     fit-margin-top="0"
     fit-margin-left="0"
     fit-margin-right="0"
     fit-margin-bottom="0"
     inkscape:zoom="1.9032258"
     inkscape:cx="35.049625"
     inkscape:cy="-59.009283"
     inkscape:window-x="367"
     inkscape:window-y="327"
     inkscape:window-maximized="0"
     inkscape:current-layer="AvatarAssets" />
  <defs
     id="defs3141" />
  <g
     id="backSleeveLowerRightA2"
     overflow="visible"
     style="overflow:visible"
     transform="translate(3.0496253,8.98152)">
    <g
       id="backSleeveLowerRightA001_0">
      <g
         id="element">
        <g
           id="drawingObject">
          <path
             id="path"
             d="m 0.513,-8.343 c 0,0 -1.163,1.662 -1.342,2.246 -0.134,0.584 -1.477,1.662 -2.103,3.998 -0.627,2.381 1.387,4.852 2.864,5.077 C 1.408,3.157 2.93,1.405 3.825,0.327 L 5.883,-2.189 6.331,-2.638 C 6.778,-3.087 7.225,-3.402 7.539,-4.3 7.852,-5.199 6.51,-7.759 3.959,-8.658 Q 2.348,-9.197 1.274,-8.838 l -0.761,0.495 z"
             inkscape:connector-curvature="0"
             style="fill:#e7e3b1" />
        </g>
        <g
           id="drawingObject1">
          <path
             id="path1"
             d="M 1.095,-3.042 0.513,-3.087 c 0,0 0.761,1.033 -0.134,0.898 q -0.537,-0.09 -1.163,0.45 l -0.493,0.584 -1.521,1.392 c 0.492,1.438 1.745,2.561 2.73,2.741 C 1.408,3.157 2.93,1.405 3.825,0.327 L 5.883,-2.189 6.331,-2.638 C 6.778,-3.087 7.225,-3.402 7.539,-4.3 7.762,-4.974 7.046,-6.636 5.525,-7.804 5.615,-6.636 5.659,-5.693 4.988,-5.962 4.272,-6.232 2.974,-6.142 2.035,-6.501 L 1.14,-6.861 2.348,-6.142 1.14,-6.861 c 0,0 2.371,1.078 2.506,2.426 0.179,1.348 0.179,1.393 -1.03,1.438 -1.208,0.045 -2.103,-0.09 -2.103,-0.09"
             inkscape:connector-curvature="0"
             style="fill:#ceca9e" />
        </g>
        <g
           id="drawingObject2">
          <path
             id="path2"
             d="m -1.635,2.034 c 0.493,0.494 1.074,0.854 1.567,0.944 C 1.408,3.157 2.93,1.405 3.825,0.327 l 2.058,-2.516 0.448,-0.449 c 0.447,-0.449 0.894,-0.764 1.208,-1.662 0.134,-0.315 0,-0.899 -0.358,-1.573 -0.135,0.27 -0.224,0.495 -0.403,0.674 -0.716,0.899 -1.477,0.315 -1.477,0.315 l 0.493,0.18 -0.493,-0.18 c 0,0 0.314,0.898 -0.313,1.797 C 4.406,-2.189 3.825,-1.021 3.064,-0.122 2.303,0.776 1.856,1.226 0.379,1.675 q -0.537,0.18 -2.014,0.359 z"
             inkscape:connector-curvature="0"
             style="fill:#aaa582" />
        </g>
      </g>
    </g>
  </g>
</svg>
