<?xml version="1.0" encoding="UTF-8" standalone="no"?>
<!-- Generator: flash2svg, http://dissentgraphics.com/tools/flash2svg -->

<svg
   xmlns:dc="http://purl.org/dc/elements/1.1/"
   xmlns:cc="http://creativecommons.org/ns#"
   xmlns:rdf="http://www.w3.org/1999/02/22-rdf-syntax-ns#"
   xmlns:svg="http://www.w3.org/2000/svg"
   xmlns="http://www.w3.org/2000/svg"
   xmlns:sodipodi="http://sodipodi.sourceforge.net/DTD/sodipodi-0.dtd"
   xmlns:inkscape="http://www.inkscape.org/namespaces/inkscape"
   id="AvatarAssets"
   image-rendering="auto"
   version="1.1"
   x="0px"
   y="0px"
   width="11.05286"
   height="11.701073"
   viewBox="0 0 11.05286 11.701073"
   inkscape:version="0.48.4 r9939"
   sodipodi:docname="AvatarAssets_backSleeveLowerRightA011b.svg">
  <metadata
     id="metadata3186">
    <rdf:RDF>
      <cc:Work
         rdf:about="">
        <dc:format>image/svg+xml</dc:format>
        <dc:type
           rdf:resource="http://purl.org/dc/dcmitype/StillImage" />
      </cc:Work>
    </rdf:RDF>
  </metadata>
  <sodipodi:namedview
     pagecolor="#ffffff"
     bordercolor="#666666"
     borderopacity="1"
     objecttolerance="10"
     gridtolerance="10"
     guidetolerance="10"
     inkscape:pageopacity="0"
     inkscape:pageshadow="2"
     inkscape:window-width="640"
     inkscape:window-height="480"
     id="namedview3184"
     showgrid="false"
     fit-margin-top="0"
     fit-margin-left="0"
     fit-margin-right="0"
     fit-margin-bottom="0"
     inkscape:zoom="1.9032258"
     inkscape:cx="35.21457"
     inkscape:cy="-59.572303"
     inkscape:window-x="0"
     inkscape:window-y="0"
     inkscape:window-maximized="0"
     inkscape:current-layer="AvatarAssets" />
  <defs
     id="defs3173" />
  <g
     id="backSleeveLowerRightA011b1"
     overflow="visible"
     style="overflow:visible"
     transform="translate(3.21457,9.273375)">
    <g
       id="backSleeveLowerRightA011b_0">
      <g
         id="element">
        <g
           id="drawingObject">
          <path
             id="path"
             d="M 7.656,-4.835 C 7.836,-5.21 5.773,-8.16 3.944,-8.697 2.167,-9.179 -0.03,-10.038 -0.009,-7.839 q -0.215,0.644 -0.726,1.341 c -0.612,0.698 -0.676,2.253 -1.073,2.307 -0.397,0.053 -2.408,2.574 -0.779,4.934 1.63,2.36 3.854,1.877 5.642,0.751 1.741,-1.073 3.102,-3.594 3.896,-4.613 0.794,-1.019 0.5,0 0.794,-1.019 0.294,-1.019 -0.212,-0.214 -0.089,-0.697 z"
             inkscape:connector-curvature="0"
             style="fill:#a3ea74" />
        </g>
        <g
           id="drawingObject1">
          <path
             id="path1"
             d="M 3.874,-4.513 C 4.098,-4.084 4.033,-5.264 3.397,-5.908 2.715,-6.498 2.097,-6.82 2.02,-7.302 1.944,-7.785 1.635,-7.946 2.77,-8.214 L 4.403,-8.536 3.944,-8.697 c -1.777,-0.482 -3.974,-1.341 -3.953,0.858 0,0 -0.215,0.644 -0.726,1.341 -0.612,0.698 -0.676,2.253 -1.073,2.307 q -0.247,0.053 -0.756,0.804 -0.503,0.858 -0.602,1.77 c 0.52,0.375 1.185,0.644 1.732,0.59 2.391,-0.161 1.035,-0.268 2.014,-1.555 1.03,-1.288 2.842,-0.161 2.842,-0.161 L 3.136,-3.387 C 2.901,-4.031 0.615,-5.586 0.615,-5.586 l 1.197,0.858 -1.197,-0.858 0.65,0 c 0.55,0 2.435,0.644 2.609,1.073 z"
             inkscape:connector-curvature="0"
             style="fill:#8ecb65" />
        </g>
        <g
           id="drawingObject2">
          <path
             id="path2"
             d="m 3.471,-6.39 c 2.065,1.18 2.45,1.823 2.73,2.359 Q 5.68,-5.318 4.015,-6.498 C 2.4,-7.678 0.988,-7.892 0.638,-7.892 c -0.4,0 -0.806,0.804 -0.806,0.804 l 0.28,-0.375 -0.28,0.375 0.891,-0.161 -0.891,0.161 c 0,0 1.162,-0.697 3.639,0.698 z"
             inkscape:connector-curvature="0"
             style="fill:#75a853" />
        </g>
      </g>
    </g>
  </g>
</svg>
