<?xml version="1.0" encoding="UTF-8" standalone="no"?>
<!-- Generator: flash2svg, http://dissentgraphics.com/tools/flash2svg -->

<svg
   xmlns:dc="http://purl.org/dc/elements/1.1/"
   xmlns:cc="http://creativecommons.org/ns#"
   xmlns:rdf="http://www.w3.org/1999/02/22-rdf-syntax-ns#"
   xmlns:svg="http://www.w3.org/2000/svg"
   xmlns="http://www.w3.org/2000/svg"
   xmlns:sodipodi="http://sodipodi.sourceforge.net/DTD/sodipodi-0.dtd"
   xmlns:inkscape="http://www.inkscape.org/namespaces/inkscape"
   id="AvatarAssets"
   image-rendering="auto"
   version="1.1"
   x="0px"
   y="0px"
   width="11.105984"
   height="12.000125"
   viewBox="0 0 11.105984 12.000125"
   inkscape:version="0.48.4 r9939"
   sodipodi:docname="AvatarAssets_backSleeveLowerRight20101103Black3.svg">
  <metadata
     id="metadata3108">
    <rdf:RDF>
      <cc:Work
         rdf:about="">
        <dc:format>image/svg+xml</dc:format>
        <dc:type
           rdf:resource="http://purl.org/dc/dcmitype/StillImage" />
      </cc:Work>
    </rdf:RDF>
  </metadata>
  <sodipodi:namedview
     pagecolor="#ffffff"
     bordercolor="#666666"
     borderopacity="1"
     objecttolerance="10"
     gridtolerance="10"
     guidetolerance="10"
     inkscape:pageopacity="0"
     inkscape:pageshadow="2"
     inkscape:window-width="640"
     inkscape:window-height="480"
     id="namedview3106"
     showgrid="false"
     fit-margin-top="0"
     fit-margin-left="0"
     fit-margin-right="0"
     fit-margin-bottom="0"
     inkscape:zoom="1.9032258"
     inkscape:cx="35.487949"
     inkscape:cy="-59.49"
     inkscape:window-x="763"
     inkscape:window-y="296"
     inkscape:window-maximized="0"
     inkscape:current-layer="AvatarAssets" />
  <defs
     id="defs3097" />
  <g
     id="backSleeveLowerRight20101103Black4"
     overflow="visible"
     style="overflow:visible"
     transform="translate(3.4879493,9.4901251)">
    <g
       id="backSleeveLowerRight20101103Black3_0">
      <g
         id="element">
        <path
           id="path"
           d="m 6.65,-6.8 0.1,0.3 C 6.35,-6.9 6,-7.3 5.55,-7.65 5.65,-7.2 6,-6.65 5.95,-6.1 5.6,-6.25 5.35,-6.65 5,-6.9 4.7,-7.1 4.3,-7.25 4,-7.35 l 0.7,0.7 C 4.25,-6.9 3.65,-7.4 3.15,-7.45 3.8,-6.7 5.05,-5.9 5.3,-4.9 4.6,-5.3 4.1,-6 3.4,-6.45 L 2.45,-7.1 1.5,-7.45 C 1,-7.65 0.85,-7.6 0.35,-7.65 L 0.5,-7.95 C 0.45,-8.15 0.5,-8.5 0.6,-8.75 0.55,-8.7 0.55,-8.65 0.5,-8.6 0.15,-8.05 0,-8.05 -0.45,-7.65 L -0.5,-7.6 c -0.1,0.1 -0.15,0.25 -0.15,0.5 0.45,-0.3 1.2,-0.45 1.5,-0.4 0.3,0.1 0.6,0.25 0.9,0.45 L 1.725,-7.075 1.75,-7.05 1.85,-7 c 0.05,0 0.05,0 0.1,0.05 l 0.05,0 0,0.05 c 0.3,0.15 0.6,0.4 0.85,0.65 l 0.1,0.15 0.05,0 c 0.75,0.65 1.55,1.65 2.4,2.05 0.8,0.35 0.3,-0.1 0.4,-0.55 0.1,-0.45 0.55,-0.35 0.4,-1 l 0.6,0.35 C 7.05,-5.45 7.15,-5.8 7.15,-6.1 l -0.5,-0.7 z m -6.3,-0.25 c -0.05,0 -0.05,0 -0.1,0.05 1.8,0.3 1.8,2.3 2.65,3.85 C 2.55,-3 2.2,-2.8 1.95,-2.5 l -0.2,-0.15 c -0.2,0.45 -0.9,1.15 -1.3,1.3 -0.6,0.2 -0.75,0.1 -1.25,0.25 -0.75,0.2 -0.55,0.8 -1.55,0.25 -0.45,-0.25 -0.8,-0.65 -1.1,-1.1 -0.1,0.9 0.1,1.85 0.85,2.65 l 1.05,-0.15 c 0.65,0 1.75,0.2 2.35,0 0.85,-0.3 1.7,-1.6 2.3,-2.25 0.65,-0.7 1.25,-1.2 1.1,-2.25 -0.05,-0.2 -0.1,-0.4 -0.25,-0.65 l 0,-0.05 C 2.35,-6.7 1.05,-7.15 0.4,-7.05 l -0.075,0 z"
           inkscape:connector-curvature="0"
           style="fill:#202121" />
        <path
           id="path1"
           d="m 6.75,-6.5 -0.1,-0.3 0.5,0.7 0.3,0.5 C 7.2,-6.3 6.3,-7.25 5.1,-8.35 3.95,-9.35 1.65,-9.6 1.35,-9.45 1.15,-9.4 0.9,-9.15 0.6,-8.75 0.5,-8.5 0.45,-8.15 0.5,-7.95 l -0.15,0.3 c 0.5,0.05 0.65,0 1.15,0.2 L 2.45,-7.1 3.4,-6.45 C 4.1,-6 4.6,-5.3 5.3,-4.9 5.05,-5.9 3.8,-6.7 3.15,-7.45 c 0.5,0.05 1.1,0.55 1.55,0.8 L 4,-7.35 c 0.3,0.1 0.7,0.25 1,0.45 0.35,0.25 0.6,0.65 0.95,0.8 C 6,-6.65 5.65,-7.2 5.55,-7.65 6,-7.3 6.35,-6.9 6.75,-6.5 z M 0.25,-7 C 0.3,-7.05 0.3,-7.05 0.35,-7.05 0,-7 -0.3,-6.9 -0.5,-6.7 L -1.25,-6 -0.5,-6.7 c -0.9,0.85 -2.05,1.95 -2.45,2.85 -0.6,1.4 -1,3.25 0.5,4.75 L -2.6,0.7 c -0.75,-0.8 -0.95,-1.75 -0.85,-2.65 0.3,0.45 0.65,0.85 1.1,1.1 1,0.55 0.8,-0.05 1.55,-0.25 0.5,-0.15 0.65,-0.05 1.25,-0.25 0.4,-0.15 1.1,-0.85 1.3,-1.3 l 0.2,0.15 C 2.2,-2.8 2.55,-3 2.9,-3.15 2.05,-4.7 2.05,-6.7 0.25,-7 z m 1.5,-0.05 c -0.3,-0.2 -0.6,-0.35 -0.9,-0.45 -0.3,-0.05 -1.05,0.1 -1.5,0.4 0,-0.25 0.05,-0.4 0.15,-0.5 -0.2,0.2 -0.25,0.4 -0.15,0.65 0.3,-0.25 0.45,-0.35 0.8,-0.4 0.6,-0.1 1.15,0 1.6,0.3 z m 1.1,0.8 C 2.6,-6.5 2.3,-6.75 2,-6.9 l 0.95,0.8 -0.1,-0.15 z"
           inkscape:connector-curvature="0"
           style="fill:#2a2b2b" />
        <path
           id="path6"
           d="m 0.325,-7.05 0.075,0 c 0.65,-0.1 1.95,0.35 3.55,2.4 l 0,0.05 c 0.1,0.1 0.2,0.2 0.25,0.3 l 0.65,1.15 C 4.9,-3 4.9,-2.9 4.95,-2.75 4.9,-2.3 4.8,-1.85 4.6,-1.5 4,-0.45 2.9,0.25 1.95,0.95 1,1.65 -0.35,1.45 -1.4,1.8 l -0.05,0 c 0.35,0.25 0.7,0.4 1.1,0.55 q 1.2,0.4 2.3,-0.2 C 2.5,1.9 3.3,1.15 4.45,-0.1 l 1.6,-1.85 C 6.1,-2 6.15,-2.1 6.2,-2.2 c 0.2,-0.4 1,-1.1 1.2,-1.35 0.2,-0.15 0.25,-0.5 0.2,-1.1 l -0.05,0.1 C 7.35,-3.9 7.25,-3.9 6.7,-4.45 6.35,-4.1 6.5,-3.1 5.9,-2.95 5.45,-2.9 4.95,-3.9 4.75,-4.2 4.15,-4.85 3.6,-5.5 2.95,-6.1 L 2,-6.9 l 0,-0.05 -0.05,0 C 1.9,-7 1.9,-7 1.85,-7 L 1.75,-7.05 1.725,-7.075 1.75,-7.05 c -0.45,-0.3 -1,-0.4 -1.6,-0.3 -0.35,0.05 -0.5,0.15 -0.8,0.4 C -0.6,-6.8 -0.5,-6.7 -0.5,-6.7 -0.3,-6.9 0,-7 0.35,-7.05"
           inkscape:connector-curvature="0"
           style="fill:#0f0f0f" />
        <path
           id="path11"
           d="m 2.95,-6.1 c 0.65,0.6 1.2,1.25 1.8,1.9 0.2,0.3 0.7,1.3 1.15,1.25 0.6,-0.15 0.45,-1.15 0.8,-1.5 0.55,0.55 0.65,0.55 0.85,-0.1 l 0.05,-0.1 0,-0.05 C 7.55,-5 7.5,-5.3 7.45,-5.6 l -0.3,-0.5 c 0,0.3 -0.1,0.65 -0.35,0.85 L 6.2,-5.6 c 0.15,0.65 -0.3,0.55 -0.4,1 -0.1,0.45 0.4,0.9 -0.4,0.55 C 4.55,-4.45 3.75,-5.45 3,-6.1 l -0.05,0 z M 4.2,-4.3 C 4.15,-4.4 4.05,-4.5 3.95,-4.6 4.1,-4.35 4.15,-4.15 4.2,-3.95 4.35,-2.9 3.75,-2.4 3.1,-1.7 2.5,-1.05 1.65,0.25 0.8,0.55 c -0.6,0.2 -1.7,0 -2.35,0 L -2.6,0.7 -2.45,0.9 c 0.35,0.4 0.7,0.65 1,0.9 l 0.05,0 C -0.35,1.45 1,1.65 1.95,0.95 2.9,0.25 4,-0.45 4.6,-1.5 4.8,-1.85 4.9,-2.3 4.95,-2.75 4.9,-2.9 4.9,-3 4.85,-3.15 L 4.2,-4.3 z"
           inkscape:connector-curvature="0"
           style="fill:#161717" />
      </g>
    </g>
  </g>
</svg>
