<?xml version="1.0" encoding="UTF-8" standalone="no"?>
<!-- Generator: flash2svg, http://dissentgraphics.com/tools/flash2svg -->

<svg
   xmlns:dc="http://purl.org/dc/elements/1.1/"
   xmlns:cc="http://creativecommons.org/ns#"
   xmlns:rdf="http://www.w3.org/1999/02/22-rdf-syntax-ns#"
   xmlns:svg="http://www.w3.org/2000/svg"
   xmlns="http://www.w3.org/2000/svg"
   xmlns:sodipodi="http://sodipodi.sourceforge.net/DTD/sodipodi-0.dtd"
   xmlns:inkscape="http://www.inkscape.org/namespaces/inkscape"
   id="AvatarAssets"
   image-rendering="auto"
   version="1.1"
   x="0px"
   y="0px"
   width="12.2"
   height="11.573508"
   viewBox="0 0 12.2 11.573508"
   inkscape:version="0.48.4 r9939"
   sodipodi:docname="AvatarAssets_backSleeveUpperRightA005.svg">
  <metadata
     id="metadata3083">
    <rdf:RDF>
      <cc:Work
         rdf:about="">
        <dc:format>image/svg+xml</dc:format>
        <dc:type
           rdf:resource="http://purl.org/dc/dcmitype/StillImage" />
      </cc:Work>
    </rdf:RDF>
  </metadata>
  <sodipodi:namedview
     pagecolor="#ffffff"
     bordercolor="#666666"
     borderopacity="1"
     objecttolerance="10"
     gridtolerance="10"
     guidetolerance="10"
     inkscape:pageopacity="0"
     inkscape:pageshadow="2"
     inkscape:window-width="640"
     inkscape:window-height="480"
     id="namedview3081"
     showgrid="false"
     inkscape:zoom="1.9032258"
     inkscape:cx="32.349"
     inkscape:cy="-52.375492"
     inkscape:window-x="0"
     inkscape:window-y="0"
     inkscape:window-maximized="0"
     inkscape:current-layer="AvatarAssets"
     fit-margin-top="0"
     fit-margin-left="0"
     fit-margin-right="0"
     fit-margin-bottom="0" />
  <defs
     id="defs3064" />
  <g
     id="backSleeveUpperRightA6"
     overflow="visible"
     style="overflow:visible"
     transform="translate(0.349,1.949)">
    <g
       id="backSleeveUpperRightA005_0">
      <g
         id="element">
        <g
           id="drawingObject">
          <path
             id="path"
             d="m 11.851,3.251 -0.1,-1 -3.65,-2.35 c -1.2,-0.75 -4.25,-1.85 -5.4,-1.85 -1.2,0.05 -3,0.75 -3.05,2.6 q 0,1.55 1.5,3.55 c 1.2,1.6 2.4,2.95 3.1,3.75 0.75,0.8 1.35,1.65 1.35,1.65 l 1.3,-0.1 -1.3,0.1 c 0,0 2.15,0.4 4.05,-2.1 1.9,-2.45 2.2,-3.6 2.2,-4.25 z"
             inkscape:connector-curvature="0"
             style="fill:#55a6e0" />
        </g>
        <g
           id="drawingObject1">
          <path
             id="path1"
             d="m 11.851,3.251 -0.05,-0.65 c -0.4,1.05 -1.15,2.5 -2.45,3.05 -2.05,0.85 -2.7,0.5 -3.4,-0.95 -0.75,-1.45 -1.15,-2.3 -1.35,-2.45 -0.2,-0.1 -0.05,-2.45 -0.9,-3.9 l -0.15,-0.15 -0.85,-0.15 c -1.2,0.05 -3,0.75 -3.05,2.6 0,1.05 0.3,1.95 1.5,3.55 1.2,1.6 2.4,2.95 3.1,3.75 0.75,0.8 1.35,1.65 1.35,1.65 l 1.3,-0.1 -1.3,0.1 c 0,0 2.15,0.4 4.05,-2.1 1.9,-2.45 2.2,-3.6 2.2,-4.25 z"
             inkscape:connector-curvature="0"
             style="fill:#4c95c9" />
        </g>
        <g
           id="drawingObject2">
          <path
             id="path2"
             d="m -0.349,0.651 c 0,1.05 0.3,1.95 1.5,3.55 1.2,1.6 2.4,2.95 3.1,3.75 0.75,0.8 1.35,1.65 1.35,1.65 l 1.25,-0.1 -1.25,0.1 c 0,0 2,0.35 3.85,-1.8 -0.65,0.4 -1.2,0.5 -2.15,0.1 -1.8,-0.85 -1.9,-0.1 -2.7,-1.7 -0.85,-1.6 -1.9,-2.5 -1.95,-3.4 0,-0.95 -0.1,-3.6 -0.65,-4.5 l -0.15,-0.1 q -2.15,0.5 -2.2,2.45 z"
             inkscape:connector-curvature="0"
             style="fill:#397097" />
        </g>
        <g
           id="drawingObject3">
          <path
             id="path3"
             d="m 5.901,0.401 c 0,0 -1.6,-0.15 -1.4,1.05 0.25,1.15 2.3,1.05 2.3,1.05 0,0 -1.45,0.6 0.15,1.35 1.65,0.8 2.5,0.05 2.3,-0.55 l -0.25,-0.55 0.45,0.1 -0.45,-0.1 c 0,0 0.9,0.55 0.75,-0.85 -0.15,-1.4 -1.2,-1.25 -2,-1.05 0,0 -0.05,-0.85 -1.1,-1.3 -1.05,-0.5 -1.65,0.25 -1.2,0.55 l 0.45,0.3 z m 1.4,0.4 c 0.2,0.4 0.15,0.55 0.15,0.55 l 0.5,0.05 -0.5,-0.05 c 0,0 0.95,0 1.15,0.3 0.25,0.3 0.15,0.4 -0.2,0.35 l -0.7,-0.2 c 0,0 0.75,0.95 0.45,1.1 q -0.25,0.1 -0.6,-0.05 -0.35,-0.2 -0.35,-0.4 l -0.05,-0.65 c 0,0 -0.9,0.25 -1.2,-0.05 -0.25,-0.3 0.2,-0.6 0.6,-0.55 0.4,0.1 0.45,0.05 0.45,0.05 l -0.45,-0.75 c 0.05,-0.1 0.55,-0.1 0.75,0.3 z"
             inkscape:connector-curvature="0"
             style="fill:#c6e0f2" />
        </g>
        <g
           id="drawingObject4">
          <path
             id="path7"
             d="m 7.451,6.101 -0.05,0.35 c 0,0 -0.65,-0.9 -1.55,-0.5 -0.95,0.35 0.1,1.45 0.1,1.45 0,0 -1.15,-0.65 -1.1,0.45 0.05,1.05 1.15,1.35 1.55,1.05 l 0.4,-0.25 c 0,0 -0.1,0.65 1.05,0.25 1.2,-0.45 0.6,-0.95 0.05,-1.35 0,0 0.7,-0.25 0.65,-0.9 -0.1,-0.7 -1.05,-0.85 -1.1,-0.55 z m 0.25,1.2 c -0.25,0.2 -0.4,0.2 -0.4,0.2 0,0 0.45,0.5 0.3,0.7 -0.15,0.2 -0.3,0.15 -0.45,-0.05 l -0.15,-0.45 c 0,0 -0.5,0.65 -0.8,0.55 q -0.2,-0.1 -0.2,-0.35 0,-0.25 0.2,-0.25 l 0.6,-0.2 c 0,0 -0.65,-0.45 -0.55,-0.65 0.1,-0.25 0.6,-0.05 0.75,0.15 l 0.15,0.3 0.5,-0.45 c 0.1,0 0.3,0.3 0.05,0.5 z"
             inkscape:connector-curvature="0"
             style="fill:#b2c9d9" />
        </g>
        <g
           id="drawingObject5">
          <path
             id="path11"
             d="m 6.201,8.251 c -0.25,-0.15 -0.25,-0.6 0,-0.6 l 0.2,-0.05 -0.55,-0.3 0.1,0.1 c 0,0 -1.15,-0.65 -1.1,0.45 0.05,1.05 1.15,1.35 1.55,1.05 l 0.4,-0.25 c 0,0 -0.1,0.65 1.05,0.25 0.85,-0.3 0.8,-0.7 0.45,-1 l -0.75,-0.05 q 0.1,0.25 0.05,0.35 c -0.15,0.2 -0.3,0.15 -0.45,-0.05 l -0.15,-0.35 0,-0.05 c -0.15,0.15 -0.55,0.6 -0.8,0.5 z"
             inkscape:connector-curvature="0"
             style="fill:#8597a3" />
        </g>
      </g>
    </g>
  </g>
</svg>
