<?xml version="1.0" encoding="UTF-8" standalone="no"?>
<!-- Generator: flash2svg, http://dissentgraphics.com/tools/flash2svg -->

<svg
   xmlns:dc="http://purl.org/dc/elements/1.1/"
   xmlns:cc="http://creativecommons.org/ns#"
   xmlns:rdf="http://www.w3.org/1999/02/22-rdf-syntax-ns#"
   xmlns:svg="http://www.w3.org/2000/svg"
   xmlns="http://www.w3.org/2000/svg"
   xmlns:sodipodi="http://sodipodi.sourceforge.net/DTD/sodipodi-0.dtd"
   xmlns:inkscape="http://www.inkscape.org/namespaces/inkscape"
   id="AvatarAssets"
   image-rendering="auto"
   version="1.1"
   x="0px"
   y="0px"
   width="16.454222"
   height="15.525"
   viewBox="0 0 16.454222 15.525"
   inkscape:version="0.48.4 r9939"
   sodipodi:docname="AvatarAssets_backSleeveUpperRight20101103Black3.svg">
  <metadata
     id="metadata3018">
    <rdf:RDF>
      <cc:Work
         rdf:about="">
        <dc:format>image/svg+xml</dc:format>
        <dc:type
           rdf:resource="http://purl.org/dc/dcmitype/StillImage" />
      </cc:Work>
    </rdf:RDF>
  </metadata>
  <sodipodi:namedview
     pagecolor="#ffffff"
     bordercolor="#666666"
     borderopacity="1"
     objecttolerance="10"
     gridtolerance="10"
     guidetolerance="10"
     inkscape:pageopacity="0"
     inkscape:pageshadow="2"
     inkscape:window-width="640"
     inkscape:window-height="480"
     id="namedview3016"
     showgrid="false"
     fit-margin-top="0"
     fit-margin-left="0"
     fit-margin-right="0"
     fit-margin-bottom="0"
     inkscape:zoom="1.9032258"
     inkscape:cx="32.132"
     inkscape:cy="-48.94375"
     inkscape:window-x="0"
     inkscape:window-y="0"
     inkscape:window-maximized="0"
     inkscape:current-layer="AvatarAssets" />
  <defs
     id="defs3007" />
  <g
     id="backSleeveUpperRight20101103Black4"
     overflow="visible"
     style="overflow:visible"
     transform="translate(0.132,2.46875)">
    <g
       id="backSleeveUpperRight20101103Black3_0">
      <g
         id="element">
        <path
           id="path"
           d="m 2.55,-2.45 c -0.35,0 -0.8,0.05 -1.15,0.3 0.3,-0.15 0.55,-0.25 0.85,-0.3 0.15,0 0.3,0 0.3,0 z M 3.65,-2.3 3.55,-2.25 3.5,-2.3 C 3.25,-2.4 3,-2.45 2.6,-2.45 c 0.3,-0.05 0.65,0 1.05,0.15 z m 0,0 C 5,-2 7.2,-0.6 10.45,1.95 12.55,3.6 14.75,4.8 15.7,6.5 15.65,7.45 15.05,8.55 13.45,6.7 12.75,7.55 12.1,6.75 11.35,6.3 10.75,5.9 8.2,4.8 8.65,4.1 7.5,3.15 5.95,2.85 5.35,1.5 L 5.25,0.7 C 5.2,0.1 5.25,0 5.05,-0.5 4.8,-1.1 4.2,-1.95 3.65,-2.3 z m 10.8,14.6 c 0.35,-0.25 0.6,-0.55 0.85,-0.95 0.3,-0.25 0.45,-0.65 0.65,-0.95 -0.25,0.6 -0.65,1.15 -1.15,1.6 -0.1,0.1 -0.25,0.2 -0.35,0.3 z"
           inkscape:connector-curvature="0"
           style="fill:#2a2b2b" />
        <path
           id="path1"
           d="m 2.55,-2.45 c 0,0 -0.15,0 -0.3,0 C 1.95,-2.4 1.7,-2.3 1.4,-2.15 L -0.1,1.2 q -0.2,0.95 0.85,2.75 1,1.8 2.55,3.2 c 2.05,2 6.75,5.65 8.45,5.85 0.85,0.15 1.65,0 2.35,-0.45 l 0.35,-0.25 c 0.35,-0.25 0.6,-0.55 0.85,-0.95 L 15,11.5 C 13.75,12.1 13.05,11.8 11.75,11.35 10.65,11 9.25,10.45 8.3,9.7 7.45,9 6.6,8.1 5.8,7.35 5.1,6.75 3.2,5.8 3.2,4.85 3.1,3.85 4.3,2.45 4.4,1.4 4.55,0.45 4.15,-0.55 3.8,-1.55 L 3.5,-2.3 C 3.25,-2.4 3,-2.45 2.6,-2.45 c 0.1,0 0.05,0 -0.05,0 z"
           inkscape:connector-curvature="0"
           style="fill:#0f0f0f" />
        <path
           id="path8"
           d="M 5.05,-0.5 C 4.8,-1.1 4.2,-1.95 3.65,-2.3 L 3.55,-2.25 3.5,-2.3 3.8,-1.55 c 0.25,0.25 0.5,0.45 0.6,0.6 0.75,1.05 0.2,2.45 0.2,3.5 -0.05,0.95 0.35,2.2 1.1,2.9 0.75,0.7 1.55,1.45 2.45,2.05 0.3,0.25 0.8,0.65 1.2,0.8 0.55,0.25 1.3,-0.05 1.85,0.15 0.2,0.1 0.75,0.65 1,0.8 0.35,0.25 1.15,0.6 1.65,0.7 0.95,0.05 2,-0.45 2.45,-1.4 0.05,-0.1 0,-0.2 0,-0.25 C 16.3,7.55 16.05,7 15.75,6.45 L 15.7,6.5 C 15.65,7.45 15.05,8.55 13.45,6.7 12.75,7.55 12.1,6.75 11.35,6.3 10.75,5.9 8.2,4.8 8.65,4.1 7.5,3.15 5.95,2.85 5.35,1.5 L 5.25,0.7 C 5.2,0.1 5.25,0 5.05,-0.5 z"
           inkscape:connector-curvature="0"
           style="fill:#202121" />
        <path
           id="path9"
           d="M 4.4,-0.95 C 4.3,-1.1 4.05,-1.3 3.8,-1.55 c 0.35,1 0.75,2 0.6,2.95 C 4.3,2.45 3.1,3.85 3.2,4.85 3.2,5.8 5.1,6.75 5.8,7.35 6.6,8.1 7.45,9 8.3,9.7 c 0.95,0.75 2.35,1.3 3.45,1.65 1.3,0.45 2,0.75 3.25,0.15 l 0.3,-0.15 c 0.3,-0.25 0.45,-0.65 0.65,-0.95 l 0.3,-1.15 C 16.3,9 16.35,8.8 16.3,8.55 15.85,9.5 14.8,10 13.85,9.95 13.35,9.85 12.55,9.5 12.2,9.25 11.95,9.1 11.4,8.55 11.2,8.45 10.65,8.25 9.9,8.55 9.35,8.3 8.95,8.15 8.45,7.75 8.15,7.5 7.25,6.9 6.45,6.15 5.7,5.45 4.95,4.75 4.55,3.5 4.6,2.55 4.6,1.5 5.15,0.1 4.4,-0.95 z"
           inkscape:connector-curvature="0"
           style="fill:#161717" />
      </g>
    </g>
  </g>
</svg>
