<?xml version="1.0" encoding="UTF-8" standalone="no"?>
<!-- Generator: flash2svg, http://dissentgraphics.com/tools/flash2svg -->

<svg
   xmlns:dc="http://purl.org/dc/elements/1.1/"
   xmlns:cc="http://creativecommons.org/ns#"
   xmlns:rdf="http://www.w3.org/1999/02/22-rdf-syntax-ns#"
   xmlns:svg="http://www.w3.org/2000/svg"
   xmlns="http://www.w3.org/2000/svg"
   xmlns:sodipodi="http://sodipodi.sourceforge.net/DTD/sodipodi-0.dtd"
   xmlns:inkscape="http://www.inkscape.org/namespaces/inkscape"
   id="AvatarAssets"
   image-rendering="auto"
   version="1.1"
   x="0px"
   y="0px"
   width="16.60701"
   height="14.843663"
   viewBox="0 0 16.60701 14.843663"
   inkscape:version="0.48.4 r9939"
   sodipodi:docname="AvatarAssets_backSleeveUpperRightA011.svg">
  <metadata
     id="metadata3155">
    <rdf:RDF>
      <cc:Work
         rdf:about="">
        <dc:format>image/svg+xml</dc:format>
        <dc:type
           rdf:resource="http://purl.org/dc/dcmitype/StillImage" />
      </cc:Work>
    </rdf:RDF>
  </metadata>
  <sodipodi:namedview
     pagecolor="#ffffff"
     bordercolor="#666666"
     borderopacity="1"
     objecttolerance="10"
     gridtolerance="10"
     guidetolerance="10"
     inkscape:pageopacity="0"
     inkscape:pageshadow="2"
     inkscape:window-width="640"
     inkscape:window-height="480"
     id="namedview3153"
     showgrid="false"
     fit-margin-top="0"
     fit-margin-left="0"
     fit-margin-right="0"
     fit-margin-bottom="0"
     inkscape:zoom="1.9032258"
     inkscape:cx="32.31909"
     inkscape:cy="-48.97243"
     inkscape:window-x="0"
     inkscape:window-y="0"
     inkscape:window-maximized="0"
     inkscape:current-layer="AvatarAssets" />
  <defs
     id="defs3142" />
  <g
     id="backSleeveUpperRightA12"
     overflow="visible"
     style="overflow:visible"
     transform="translate(0.31909013,1.8160929)">
    <g
       id="backSleeveUpperRightA011_0">
      <g
         id="element">
        <g
           id="drawingObject">
          <path
             id="path"
             d="M 14.574,5.047 Q 14.264,4.516 13.311,4.065 12.11,3.466 11.763,3.202 c 0,0 -3.17,-1.886 -5.134,-3.285 -1.988,-1.355 -4.572,-2.316 -5.821,-1.326 -1.248,0.989 -1.55,2.542 -0.377,3.99 1.191,1.517 2.806,4.556 4.287,5.841 1.48,1.285 2.861,2.452 4.413,3.607 1.576,1.11 3.822,1.291 5.311,0.561 1.472,-0.799 1.66,-3.343 1.828,-4.052 0.185,-0.64 -1.11,-2.565 -1.696,-3.491 z"
             inkscape:connector-curvature="0"
             style="fill:#ab7ffa" />
        </g>
        <g
           id="drawingObject1">
          <path
             id="path1"
             d="m 9.131,12.029 c 1.147,0.797 2.661,1.12 4.012,0.943 C 11.501,12.283 9.96,11.309 8.828,9.885 5.618,6.071 5.835,6.373 5.072,5.572 4.373,4.753 4.199,4.072 4.213,2.348 4.241,1.095 4.365,-0.332 4.169,-1.373 2.856,-1.865 1.565,-1.998 0.808,-1.409 q -0.958,0.758 -1.105,1.825 -0.128,1.136 0.728,2.165 c 1.191,1.517 2.806,4.556 4.287,5.841 1.48,1.285 2.861,2.452 4.413,3.607 z"
             inkscape:connector-curvature="0"
             style="fill:#9972e2" />
        </g>
        <g
           id="drawingObject2">
          <path
             id="path2"
             d="m 9.131,12.029 c 0.594,0.411 1.301,0.715 2.037,0.865 C 10.128,12.102 8.458,10.762 7.355,9.586 5.605,7.795 4.029,6.684 3.443,5.759 Q 3.051,5.179 2.821,3.599 2.776,3.283 2.434,0.309 C 2.297,-0.639 1.579,-1.124 0.743,-1.39 c -1.207,1.014 -1.485,2.523 -0.312,3.971 1.191,1.517 2.806,4.556 4.287,5.841 1.48,1.285 2.861,2.452 4.413,3.607 z"
             inkscape:connector-curvature="0"
             style="fill:#815fbe" />
        </g>
      </g>
    </g>
  </g>
</svg>
