<?xml version="1.0" encoding="UTF-8" standalone="no"?>
<!-- Generator: flash2svg, http://dissentgraphics.com/tools/flash2svg -->

<svg
   xmlns:dc="http://purl.org/dc/elements/1.1/"
   xmlns:cc="http://creativecommons.org/ns#"
   xmlns:rdf="http://www.w3.org/1999/02/22-rdf-syntax-ns#"
   xmlns:svg="http://www.w3.org/2000/svg"
   xmlns="http://www.w3.org/2000/svg"
   xmlns:sodipodi="http://sodipodi.sourceforge.net/DTD/sodipodi-0.dtd"
   xmlns:inkscape="http://www.inkscape.org/namespaces/inkscape"
   id="AvatarAssets"
   image-rendering="auto"
   version="1.1"
   x="0px"
   y="0px"
   width="11.028363"
   height="11.587998"
   viewBox="0 0 11.028363 11.587998"
   inkscape:version="0.48.4 r9939"
   sodipodi:docname="AvatarAssets_backSleeveLowerRightA011.svg">
  <metadata
     id="metadata3170">
    <rdf:RDF>
      <cc:Work
         rdf:about="">
        <dc:format>image/svg+xml</dc:format>
        <dc:type
           rdf:resource="http://purl.org/dc/dcmitype/StillImage" />
      </cc:Work>
    </rdf:RDF>
  </metadata>
  <sodipodi:namedview
     pagecolor="#ffffff"
     bordercolor="#666666"
     borderopacity="1"
     objecttolerance="10"
     gridtolerance="10"
     guidetolerance="10"
     inkscape:pageopacity="0"
     inkscape:pageshadow="2"
     inkscape:window-width="640"
     inkscape:window-height="480"
     id="namedview3168"
     showgrid="false"
     fit-margin-top="0"
     fit-margin-left="0"
     fit-margin-right="0"
     fit-margin-bottom="0"
     inkscape:zoom="1.9032258"
     inkscape:cx="35.300966"
     inkscape:cy="-59.532798"
     inkscape:window-x="676"
     inkscape:window-y="343"
     inkscape:window-maximized="0"
     inkscape:current-layer="AvatarAssets" />
  <defs
     id="defs3157" />
  <g
     id="backSleeveLowerRightA12"
     overflow="visible"
     style="overflow:visible"
     transform="translate(3.3009655,9.1207965)">
    <g
       id="backSleeveLowerRightA011_0">
      <g
         id="element">
        <g
           id="drawingObject">
          <path
             id="path"
             d="M 3.769,-8.456 C 1.965,-9.017 -0.2,-9.913 -0.175,-7.714 q -0.21,0.65 -0.73,1.291 c -0.557,0.688 -0.632,2.23 -1.023,2.267 -0.391,0.037 -2.352,2.513 -0.757,4.893 1.64,2.381 3.863,1.922 5.646,0.891 1.74,-1.032 3.081,-3.524 3.861,-4.487 0.817,-1.008 0.487,0.013 0.817,-1.008 C 7.932,-4.842 7.39,-4.061 7.54,-4.525 7.697,-4.942 5.618,-7.895 3.769,-8.456 z"
             inkscape:connector-curvature="0"
             style="fill:#ab7ffa" />
        </g>
        <g
           id="drawingObject1">
          <path
             id="path1"
             d="m -0.905,-6.423 c -0.557,0.688 -0.632,2.23 -1.023,2.267 q -0.258,0.04 -0.72,0.777 -0.535,0.829 -0.614,1.762 c 0.544,0.388 1.154,0.638 1.767,0.606 2.369,-0.08 1.02,-0.255 1.978,-1.493 1.003,-1.238 2.811,-0.07 2.811,-0.07 L 3.018,-3.236 C 2.792,-3.85 0.477,-5.452 0.477,-5.452 l 1.19,0.872 -1.19,-0.872 0.62,0.016 c 0.575,0.014 2.438,0.67 2.635,1.096 C 3.973,-3.913 3.928,-5.084 3.26,-5.709 2.548,-6.335 1.922,-6.679 1.851,-7.148 1.78,-7.618 1.449,-7.767 2.601,-8.018 l 1.588,-0.287 -0.42,-0.151 c -1.804,-0.561 -3.969,-1.457 -3.944,0.742 0,0 -0.21,0.65 -0.73,1.291 z"
             inkscape:connector-curvature="0"
             style="fill:#9972e2" />
        </g>
        <g
           id="drawingObject2">
          <path
             id="path2"
             d="m 3.321,-6.175 c 2.081,1.222 2.484,1.84 2.791,2.409 Q 5.558,-5.089 3.875,-6.302 C 2.237,-7.513 0.792,-7.736 0.438,-7.745 0.084,-7.754 -0.326,-6.969 -0.326,-6.969 l 0.253,-0.368 -0.253,0.368 0.901,-0.165 -0.901,0.165 c 0,0 1.132,-0.673 3.647,0.794 z"
             inkscape:connector-curvature="0"
             style="fill:#815fbe" />
        </g>
      </g>
    </g>
  </g>
</svg>
