<?xml version="1.0" encoding="UTF-8" standalone="no"?>
<!-- Generator: flash2svg, http://dissentgraphics.com/tools/flash2svg -->

<svg
   xmlns:dc="http://purl.org/dc/elements/1.1/"
   xmlns:cc="http://creativecommons.org/ns#"
   xmlns:rdf="http://www.w3.org/1999/02/22-rdf-syntax-ns#"
   xmlns:svg="http://www.w3.org/2000/svg"
   xmlns="http://www.w3.org/2000/svg"
   xmlns:sodipodi="http://sodipodi.sourceforge.net/DTD/sodipodi-0.dtd"
   xmlns:inkscape="http://www.inkscape.org/namespaces/inkscape"
   id="AvatarAssets"
   image-rendering="auto"
   version="1.1"
   x="0px"
   y="0px"
   width="15.94575"
   height="14.89572"
   viewBox="0 0 15.94575 14.89572"
   inkscape:version="0.48.4 r9939"
   sodipodi:docname="AvatarAssets_backSleeveUpperRight20101103White.svg">
  <metadata
     id="metadata3046">
    <rdf:RDF>
      <cc:Work
         rdf:about="">
        <dc:format>image/svg+xml</dc:format>
        <dc:type
           rdf:resource="http://purl.org/dc/dcmitype/StillImage" />
      </cc:Work>
    </rdf:RDF>
  </metadata>
  <sodipodi:namedview
     pagecolor="#ffffff"
     bordercolor="#666666"
     borderopacity="1"
     objecttolerance="10"
     gridtolerance="10"
     guidetolerance="10"
     inkscape:pageopacity="0"
     inkscape:pageshadow="2"
     inkscape:window-width="640"
     inkscape:window-height="480"
     id="namedview3044"
     showgrid="false"
     fit-margin-top="0"
     fit-margin-left="0"
     fit-margin-right="0"
     fit-margin-bottom="0"
     inkscape:zoom="1.9032258"
     inkscape:cx="31.893103"
     inkscape:cy="-49.175856"
     inkscape:window-x="0"
     inkscape:window-y="0"
     inkscape:window-maximized="0"
     inkscape:current-layer="AvatarAssets" />
  <defs
     id="defs3035" />
  <g
     id="backSleeveUpperRight20101103White1"
     overflow="visible"
     style="overflow:visible"
     transform="translate(-0.10689655,2.0715766)">
    <g
       id="backSleeveUpperRight20101103White_0">
      <g
         id="element">
        <path
           id="path"
           d="M 2.85,-2.05 C 2.1,-2.15 1.45,-1.9 1,-1.35 0.65,-1 0.4,-0.4 0.25,0.4 L 0.15,1.15 Q -0.1,2.05 1.1,3.9 2.25,5.8 3.95,7.3 C 6.2,9.2 11,12.65 12.5,12.8 13.35,12.9 14,12.7 14.8,12 13.8,11.4 11.9,11.2 10.85,10.7 9.15,10 7.7,8.7 6.25,7.6 5.35,6.85 5,6.1 4.4,5.15 3.75,4.3 4.1,4.5 4.1,3.55 4.2,2.85 3.95,2.2 3.85,1.5 L 4.05,2.55 3.85,1.5 3.75,-1.4 2.85,-2.05 z"
           inkscape:connector-curvature="0"
           style="fill:#8e9191" />
        <path
           id="path1"
           d="m 3.65,-1.85 -0.8,-0.2 0.9,0.65 0.1,2.9 0.2,1.05 L 3.85,1.5 C 3.95,2.2 4.2,2.85 4.1,3.55 4.1,4.5 3.75,4.3 4.4,5.15 5,6.1 5.35,6.85 6.25,7.6 c 1.45,1.1 2.9,2.4 4.6,3.1 1.05,0.5 2.95,0.7 3.95,1.3 l 0.05,-0.1 c -0.65,-0.25 -1.4,-0.95 -1.75,-1.15 -0.5,-0.25 -0.7,-0.2 -1.25,-0.4 -0.9,-0.3 -1.6,-0.8 -2.4,-1.3 C 8.6,8.45 7.6,8 6.9,7.25 6.45,6.85 5.85,6.3 5.7,5.65 5.55,5.05 6,4.65 5.95,4.15 5.9,3.45 5.35,2.65 5.2,1.95 4.9,0.7 5.1,-0.5 4.1,-1.45 l -0.45,-0.4 z"
           inkscape:connector-curvature="0"
           style="fill:#aeb3b3" />
        <path
           id="path2"
           d="m 5.75,-0.85 c -0.8,-0.45 -1.5,-0.8 -2.1,-1 l 0.45,0.4 c 1,0.95 0.8,2.15 1.1,3.4 0.15,0.7 0.7,1.5 0.75,2.2 0.05,0.5 -0.4,0.9 -0.25,1.5 0.15,0.65 0.75,1.2 1.2,1.6 0.7,0.75 1.7,1.2 2.55,1.8 0.8,0.5 1.5,1 2.4,1.3 0.55,0.2 0.75,0.15 1.25,0.4 0.35,0.2 1.1,0.9 1.75,1.15 0.05,0 0.05,-0.05 0.15,-0.05 l 0.05,-0.1 c 0.2,-0.3 0.45,-0.65 0.65,-1 C 14.85,10.85 13.6,10.3 12.9,9.9 12.25,9.55 12.3,9.2 11.8,8.75 11.05,7.8 9.7,7.05 8.75,6.35 8.85,6 9.15,5.8 9.55,5.75 9.1,5.35 8.45,5.1 8.05,4.7 7.45,4.1 7.65,3.7 7.45,2.95 7.3,2.3 6.7,2.1 6.5,1.55 6.3,1.2 6.3,0.55 6.1,0.1 L 5.8,-0.75 5.75,-0.85 z"
           inkscape:connector-curvature="0"
           style="fill:#cbd1d1" />
        <path
           id="path3"
           d="M 16.05,9.25 C 16.15,6.3 13.4,4.85 10.65,2.65 8.6,1.05 7,-0.15 5.8,-0.75 L 6.1,0.1 c 0.2,0.45 0.2,1.1 0.4,1.45 0.2,0.55 0.8,0.75 0.95,1.4 0.2,0.75 0,1.15 0.6,1.75 0.4,0.4 1.05,0.65 1.5,1.05 -0.4,0.05 -0.7,0.25 -0.8,0.6 0.95,0.7 2.3,1.45 3.05,2.4 0.5,0.45 0.45,0.8 1.1,1.15 0.7,0.4 1.95,0.95 2.8,0.85 0.15,-0.25 0.35,-0.9 0.35,-1.5 z M 14.8,12 c -0.05,0.05 0.05,-0.05 0.2,-0.15 -0.1,0 -0.1,0.05 -0.15,0.05 L 14.8,12 z"
           inkscape:connector-curvature="0"
           style="fill:#eaf2f2" />
      </g>
    </g>
  </g>
</svg>
