<?xml version="1.0" encoding="UTF-8" standalone="no"?>
<!-- Generator: flash2svg, http://dissentgraphics.com/tools/flash2svg -->

<svg
   xmlns:dc="http://purl.org/dc/elements/1.1/"
   xmlns:cc="http://creativecommons.org/ns#"
   xmlns:rdf="http://www.w3.org/1999/02/22-rdf-syntax-ns#"
   xmlns:svg="http://www.w3.org/2000/svg"
   xmlns="http://www.w3.org/2000/svg"
   xmlns:sodipodi="http://sodipodi.sourceforge.net/DTD/sodipodi-0.dtd"
   xmlns:inkscape="http://www.inkscape.org/namespaces/inkscape"
   id="AvatarAssets"
   image-rendering="auto"
   version="1.1"
   x="0px"
   y="0px"
   width="17.205502"
   height="15.219283"
   viewBox="0 0 17.205502 15.219283"
   inkscape:version="0.48.4 r9939"
   sodipodi:docname="AvatarAssets_backSleeveUpperRightA11.svg">
  <metadata
     id="metadata3188">
    <rdf:RDF>
      <cc:Work
         rdf:about="">
        <dc:format>image/svg+xml</dc:format>
        <dc:type
           rdf:resource="http://purl.org/dc/dcmitype/StillImage" />
      </cc:Work>
    </rdf:RDF>
  </metadata>
  <sodipodi:namedview
     pagecolor="#ffffff"
     bordercolor="#666666"
     borderopacity="1"
     objecttolerance="10"
     gridtolerance="10"
     guidetolerance="10"
     inkscape:pageopacity="0"
     inkscape:pageshadow="2"
     inkscape:window-width="640"
     inkscape:window-height="480"
     id="namedview3186"
     showgrid="false"
     fit-margin-top="0"
     fit-margin-left="0"
     fit-margin-right="0"
     fit-margin-bottom="0"
     inkscape:zoom="1.9032258"
     inkscape:cx="32.469"
     inkscape:cy="-48.591115"
     inkscape:window-x="0"
     inkscape:window-y="0"
     inkscape:window-maximized="0"
     inkscape:current-layer="AvatarAssets" />
  <defs
     id="defs3174" />
  <g
     id="backSleeveUpperRightA12"
     overflow="visible"
     style="overflow:visible"
     transform="translate(0.469,1.8103982)">
    <g
       id="backSleeveUpperRightA11_0">
      <g
         id="element">
        <g
           id="group1">
          <g
             id="drawingObject">
            <path
               id="path"
               d="m 16.601,7.601 c -0.8,-2.35 -5.65,-5.95 -7.4,-6.95 -1.75,-1.05 -7.35,-4 -9.35,-1.45 q -0.4,0.5 -0.3,1.55 0.15,1.1 0.75,2 c 0.8,1.25 3.3,4.3 4.95,5.95 1.7,1.65 4.95,4.5 6.9,4.7 1.95,0.2 5.3,-3.45 4.45,-5.8 z"
               inkscape:connector-curvature="0"
               style="fill:#7f62c2" />
          </g>
          <g
             id="drawingObject1">
            <path
               id="path1"
               d="m 13.051,5.351 c 0,0 -0.2,-1.95 -1.5,-2.95 -1.25,-1.05 -5.45,-3.55 -7.75,-3.95 -1.5,-0.25 -2.75,-0.45 -3.25,1.8 q -0.25,1 0.65,2.3 0.5,0.8 2.1,2.55 c 1.7,1.8 2.7,2.75 4.1,3 1.45,0.25 2.2,0.15 2.2,0.15 0,0 -1,0.2 -1.35,0.55 -0.3,0.3 1.05,2.35 1.5,2.6 0.45,0.25 4.7,0.7 5.9,-0.4 1.8,-1.55 0.8,-4.1 0.05,-4.9 -0.3,-0.3 -0.35,-0.05 -1.1,-1.05 -0.65,-0.85 -1.4,-1.15 -1.4,-1.15 l 0.45,0.25 -0.45,-0.25 c 0,0 0.2,0.8 0,1.1 l -0.15,0.35 z"
               inkscape:connector-curvature="0"
               style="fill:#9775e6" />
          </g>
          <g
             id="drawingObject2">
            <path
               id="path2"
               d="m 12.401,4.251 c -0.25,-0.95 -0.3,-1.65 -2.95,-3.3 -2.65,-1.65 -7.25,-3.7 -7.7,-2.1 q -0.4,1.7 1.35,3.55 c 0.9,0.95 3.25,3 3.95,3.5 0.75,0.55 1.75,0.75 2.4,0.8 0.65,0 1.6,-0.7 1.9,-1.6 l 0.35,-0.9 c 0,0 0.15,1.4 0,1.85 l -0.15,0.4 c 0,0 1.1,-1.25 0.85,-2.2 z"
               inkscape:connector-curvature="0"
               style="fill:#a882ff" />
          </g>
        </g>
      </g>
    </g>
  </g>
</svg>
