<?xml version="1.0" encoding="UTF-8" standalone="no"?>
<!-- Generator: flash2svg, http://dissentgraphics.com/tools/flash2svg -->

<svg
   xmlns:dc="http://purl.org/dc/elements/1.1/"
   xmlns:cc="http://creativecommons.org/ns#"
   xmlns:rdf="http://www.w3.org/1999/02/22-rdf-syntax-ns#"
   xmlns:svg="http://www.w3.org/2000/svg"
   xmlns="http://www.w3.org/2000/svg"
   xmlns:sodipodi="http://sodipodi.sourceforge.net/DTD/sodipodi-0.dtd"
   xmlns:inkscape="http://www.inkscape.org/namespaces/inkscape"
   id="AvatarAssets"
   image-rendering="auto"
   version="1.1"
   x="0px"
   y="0px"
   width="12.2"
   height="11.55"
   viewBox="0 0 12.2 11.55"
   inkscape:version="0.48.4 r9939"
   sodipodi:docname="AvatarAssets_backSleeveUpperRight20101130.svg">
  <metadata
     id="metadata3084">
    <rdf:RDF>
      <cc:Work
         rdf:about="">
        <dc:format>image/svg+xml</dc:format>
        <dc:type
           rdf:resource="http://purl.org/dc/dcmitype/StillImage" />
      </cc:Work>
    </rdf:RDF>
  </metadata>
  <sodipodi:namedview
     pagecolor="#ffffff"
     bordercolor="#666666"
     borderopacity="1"
     objecttolerance="10"
     gridtolerance="10"
     guidetolerance="10"
     inkscape:pageopacity="0"
     inkscape:pageshadow="2"
     inkscape:window-width="640"
     inkscape:window-height="480"
     id="namedview3082"
     showgrid="false"
     fit-margin-top="0"
     fit-margin-left="0"
     fit-margin-right="0"
     fit-margin-bottom="0"
     inkscape:zoom="1.9032258"
     inkscape:cx="32.15"
     inkscape:cy="-52.4"
     inkscape:window-x="0"
     inkscape:window-y="0"
     inkscape:window-maximized="0"
     inkscape:current-layer="AvatarAssets" />
  <defs
     id="defs3063" />
  <g
     id="backSleeveUpperRight20101131"
     overflow="visible"
     style="overflow:visible"
     transform="translate(0.15,1.95)">
    <g
       id="backSleeveUpperRight20101130_0">
      <g
         id="element">
        <path
           id="path"
           d="M 8.3,-0.1 C 7.1,-0.85 4.05,-1.95 2.9,-1.95 l 0.85,0.15 0.15,0.15 c 0.85,1.45 0.7,3.8 0.9,3.9 0.2,0.15 0.6,1 1.35,2.45 0.7,1.45 1.35,1.8 3.4,0.95 1.3,-0.55 2.05,-2 2.45,-3 L 11.95,2.25 8.3,-0.1 z"
           inkscape:connector-curvature="0"
           style="fill:#737373" />
        <path
           id="path1"
           d="M 3.75,-1.8 2.9,-1.95 c -0.3,0 -0.65,0.05 -1.2,0.25 0.05,0 0.2,-0.05 0.35,-0.1 l 0.15,0.1 c 0.55,0.9 0.65,3.55 0.65,4.5 0.05,0.9 1.1,1.8 1.95,3.4 0.8,1.6 0.9,0.85 2.7,1.7 0.9,0.35 1.4,0.3 2.05,-0.05 0.1,-0.05 0.2,-0.2 0.3,-0.35 1.9,-2.45 2.2,-3.6 2.2,-4.25 L 12,2.65 c -0.4,1 -1.15,2.45 -2.45,3 C 7.5,6.5 6.85,6.15 6.15,4.7 5.4,3.25 5,2.4 4.8,2.25 4.6,2.15 4.75,-0.2 3.9,-1.65 L 3.75,-1.8 z"
           inkscape:connector-curvature="0"
           style="fill:#545454" />
        <path
           id="path2"
           d="M 2.05,-1.8 C 1.9,-1.75 1.75,-1.7 1.7,-1.7 0.6,-1.35 0,-0.7 -0.1,0.35 l -0.05,0.3 q 0,1.55 1.5,3.55 c 1.2,1.6 2.4,2.95 3.1,3.75 C 5.2,8.75 5.8,9.6 5.8,9.6 L 7.05,9.5 C 7.2,9.45 7.3,9.45 7.45,9.4 8.25,9.05 8.95,8.6 9.65,7.8 9.6,7.85 9.55,7.85 9.55,7.85 8.9,8.2 8.4,8.25 7.5,7.9 5.7,7.05 5.6,7.8 4.8,6.2 3.95,4.6 2.9,3.7 2.85,2.8 2.85,1.85 2.75,-0.8 2.2,-1.7 L 2.05,-1.8 z"
           inkscape:connector-curvature="0"
           style="fill:#2e2e2e" />
        <path
           id="path3"
           d="m 7.1,9.5 -0.05,0 C 7.2,9.5 7.3,9.45 7.45,9.4 7.3,9.45 7.2,9.45 7.05,9.5"
           inkscape:connector-curvature="0"
           style="fill:#545454" />
      </g>
      <g
         id="element1">
        <path
           id="path4"
           d="M 8.3,-0.1 C 7.1,-0.85 4.05,-1.95 2.9,-1.95 l 0.85,0.15 0.15,0.15 c 0.85,1.45 0.7,3.8 0.9,3.9 0.2,0.15 0.6,1 1.35,2.45 0.7,1.45 1.35,1.8 3.4,0.95 1.3,-0.55 2.05,-2 2.45,-3 L 11.95,2.25 8.3,-0.1 z"
           inkscape:connector-curvature="0"
           style="fill:#737373" />
        <path
           id="path5"
           d="M 3.75,-1.8 2.9,-1.95 c -0.3,0 -0.65,0.05 -1.2,0.25 0.05,0 0.2,-0.05 0.35,-0.1 l 0.15,0.1 c 0.55,0.9 0.65,3.55 0.65,4.5 0.05,0.9 1.1,1.8 1.95,3.4 0.8,1.6 0.9,0.85 2.7,1.7 0.9,0.35 1.4,0.3 2.05,-0.05 0.1,-0.05 0.2,-0.2 0.3,-0.35 1.9,-2.45 2.2,-3.6 2.2,-4.25 L 12,2.65 c -0.4,1 -1.15,2.45 -2.45,3 C 7.5,6.5 6.85,6.15 6.15,4.7 5.4,3.25 5,2.4 4.8,2.25 4.6,2.15 4.75,-0.2 3.9,-1.65 L 3.75,-1.8 z"
           inkscape:connector-curvature="0"
           style="fill:#545454" />
        <path
           id="path6"
           d="M 2.05,-1.8 C 1.9,-1.75 1.75,-1.7 1.7,-1.7 0.6,-1.35 0,-0.7 -0.1,0.35 l -0.05,0.3 q 0,1.55 1.5,3.55 c 1.2,1.6 2.4,2.95 3.1,3.75 C 5.2,8.75 5.8,9.6 5.8,9.6 L 7.05,9.5 C 7.2,9.45 7.3,9.45 7.45,9.4 8.25,9.05 8.95,8.6 9.65,7.8 9.6,7.85 9.55,7.85 9.55,7.85 8.9,8.2 8.4,8.25 7.5,7.9 5.7,7.05 5.6,7.8 4.8,6.2 3.95,4.6 2.9,3.7 2.85,2.8 2.85,1.85 2.75,-0.8 2.2,-1.7 L 2.05,-1.8 z"
           inkscape:connector-curvature="0"
           style="fill:#2e2e2e" />
        <path
           id="path7"
           d="m 7.1,9.5 -0.05,0 C 7.2,9.5 7.3,9.45 7.45,9.4 7.3,9.45 7.2,9.45 7.05,9.5"
           inkscape:connector-curvature="0"
           style="fill:#545454" />
      </g>
      <g
         id="element2">
        <path
           id="path8"
           d="M 8.3,-0.1 C 7.1,-0.85 4.05,-1.95 2.9,-1.95 l 0.85,0.15 0.15,0.15 c 0.85,1.45 0.7,3.8 0.9,3.9 0.2,0.15 0.6,1 1.35,2.45 0.7,1.45 1.35,1.8 3.4,0.95 1.3,-0.55 2.05,-2 2.45,-3 L 11.95,2.25 8.3,-0.1 z"
           inkscape:connector-curvature="0"
           style="fill:#737373" />
        <path
           id="path9"
           d="M 3.75,-1.8 2.9,-1.95 c -0.3,0 -0.65,0.05 -1.2,0.25 0.05,0 0.2,-0.05 0.35,-0.1 l 0.15,0.1 c 0.55,0.9 0.65,3.55 0.65,4.5 0.05,0.9 1.1,1.8 1.95,3.4 0.8,1.6 0.9,0.85 2.7,1.7 0.9,0.35 1.4,0.3 2.05,-0.05 0.1,-0.05 0.2,-0.2 0.3,-0.35 1.9,-2.45 2.2,-3.6 2.2,-4.25 L 12,2.65 c -0.4,1 -1.15,2.45 -2.45,3 C 7.5,6.5 6.85,6.15 6.15,4.7 5.4,3.25 5,2.4 4.8,2.25 4.6,2.15 4.75,-0.2 3.9,-1.65 L 3.75,-1.8 z"
           inkscape:connector-curvature="0"
           style="fill:#545454" />
        <path
           id="path10"
           d="M 2.05,-1.8 C 1.9,-1.75 1.75,-1.7 1.7,-1.7 0.6,-1.35 0,-0.7 -0.1,0.35 l -0.05,0.3 q 0,1.55 1.5,3.55 c 1.2,1.6 2.4,2.95 3.1,3.75 C 5.2,8.75 5.8,9.6 5.8,9.6 L 7.05,9.5 C 7.2,9.45 7.3,9.45 7.45,9.4 8.25,9.05 8.95,8.6 9.65,7.8 9.6,7.85 9.55,7.85 9.55,7.85 8.9,8.2 8.4,8.25 7.5,7.9 5.7,7.05 5.6,7.8 4.8,6.2 3.95,4.6 2.9,3.7 2.85,2.8 2.85,1.85 2.75,-0.8 2.2,-1.7 L 2.05,-1.8 z"
           inkscape:connector-curvature="0"
           style="fill:#2e2e2e" />
        <path
           id="path11"
           d="m 7.1,9.5 -0.05,0 C 7.2,9.5 7.3,9.45 7.45,9.4 7.3,9.45 7.2,9.45 7.05,9.5"
           inkscape:connector-curvature="0"
           style="fill:#545454" />
      </g>
    </g>
  </g>
</svg>
