<?xml version="1.0" encoding="UTF-8" standalone="no"?>
<!-- Generator: flash2svg, http://dissentgraphics.com/tools/flash2svg -->

<svg
   xmlns:dc="http://purl.org/dc/elements/1.1/"
   xmlns:cc="http://creativecommons.org/ns#"
   xmlns:rdf="http://www.w3.org/1999/02/22-rdf-syntax-ns#"
   xmlns:svg="http://www.w3.org/2000/svg"
   xmlns="http://www.w3.org/2000/svg"
   xmlns:sodipodi="http://sodipodi.sourceforge.net/DTD/sodipodi-0.dtd"
   xmlns:inkscape="http://www.inkscape.org/namespaces/inkscape"
   id="AvatarAssets"
   image-rendering="auto"
   version="1.1"
   x="0px"
   y="0px"
   width="13.431156"
   height="12.057502"
   viewBox="0 0 13.431156 12.057502"
   inkscape:version="0.48.4 r9939"
   sodipodi:docname="AvatarAssets_backSleeveUpperRightA008.svg">
  <metadata
     id="metadata3123">
    <rdf:RDF>
      <cc:Work
         rdf:about="">
        <dc:format>image/svg+xml</dc:format>
        <dc:type
           rdf:resource="http://purl.org/dc/dcmitype/StillImage" />
      </cc:Work>
    </rdf:RDF>
  </metadata>
  <sodipodi:namedview
     pagecolor="#ffffff"
     bordercolor="#666666"
     borderopacity="1"
     objecttolerance="10"
     gridtolerance="10"
     guidetolerance="10"
     inkscape:pageopacity="0"
     inkscape:pageshadow="2"
     inkscape:window-width="640"
     inkscape:window-height="480"
     id="namedview3121"
     showgrid="false"
     fit-margin-top="0"
     fit-margin-left="0"
     fit-margin-right="0"
     fit-margin-bottom="0"
     inkscape:zoom="1.9032258"
     inkscape:cx="32.437842"
     inkscape:cy="-51.826956"
     inkscape:window-x="0"
     inkscape:window-y="0"
     inkscape:window-maximized="0"
     inkscape:current-layer="AvatarAssets" />
  <defs
     id="defs3110" />
  <g
     id="backSleeveUpperRightA9"
     overflow="visible"
     style="overflow:visible"
     transform="translate(0.43784182,1.884458)">
    <g
       id="backSleeveUpperRightA008_0">
      <g
         id="element">
        <g
           id="drawingObject">
          <path
             id="path"
             d="M 6.728,10.044 5.171,8.28 C 4.282,7.478 2.867,6.026 1.456,4.345 Q -0.29,2.24 -0.413,0.668 c -0.069,-1.888 1.816,-2.589 3.082,-2.551 1.291,-0.005 4.609,1.16 6.01,1.969 l 4.15,2.511 0.155,1.071 c 0.063,0.672 -0.149,1.819 -2.037,4.309 -1.888,2.489 -4.219,2.067 -4.219,2.067 z"
             inkscape:connector-curvature="0"
             style="fill:#2c3444" />
        </g>
        <g
           id="drawingObject1">
          <path
             id="path1"
             d="m 6.658,5.096 c 0.927,1.517 1.603,1.907 3.832,1.058 1.348,-0.55 2.003,-2.02 2.36,-3.084 l 0.111,0.7 c 0.063,0.671 -0.149,1.819 -2.037,4.308 -1.888,2.49 -4.219,2.068 -4.219,2.068 L 5.148,8.381 C 4.259,7.579 2.844,6.127 1.433,4.446 0.021,2.765 -0.355,1.855 -0.436,0.769 -0.505,-1.118 1.38,-1.819 2.646,-1.781 q 0.342,-0.034 0.899,0.115 L 3.737,-1.44 C 4.762,0.018 4.848,2.434 5.041,2.546 L 4.673,1.063 5.041,2.546 c 0.241,0.139 0.739,1.061 1.617,2.55 z"
             inkscape:connector-curvature="0"
             style="fill:#000000;fill-opacity:0.08600003" />
        </g>
        <g
           id="drawingObject2">
          <path
             id="path2"
             d="m 2.964,3.021 c 0.131,0.999 1.335,1.925 2.357,3.612 0.998,1.616 1.107,0.87 3.09,1.784 1.089,0.456 1.65,0.376 2.29,-0.063 -1.835,2.174 -3.996,1.792 -3.996,1.792 L 5.148,8.381 C 4.259,7.579 2.844,6.127 1.433,4.446 0.021,2.765 -0.355,1.855 -0.436,0.769 q -0.044,-1.93 2.204,-2.48 l 0.095,0.171 c 0.693,0.919 0.993,3.633 1.101,4.561 z"
             inkscape:connector-curvature="0"
             style="fill:#000000;fill-opacity:0.08600003" />
        </g>
      </g>
    </g>
  </g>
</svg>
