<?xml version="1.0" encoding="UTF-8" standalone="no"?>
<!-- Generator: flash2svg, http://dissentgraphics.com/tools/flash2svg -->

<svg
   xmlns:dc="http://purl.org/dc/elements/1.1/"
   xmlns:cc="http://creativecommons.org/ns#"
   xmlns:rdf="http://www.w3.org/1999/02/22-rdf-syntax-ns#"
   xmlns:svg="http://www.w3.org/2000/svg"
   xmlns="http://www.w3.org/2000/svg"
   xmlns:sodipodi="http://sodipodi.sourceforge.net/DTD/sodipodi-0.dtd"
   xmlns:inkscape="http://www.inkscape.org/namespaces/inkscape"
   id="AvatarAssets"
   image-rendering="auto"
   version="1.1"
   x="0px"
   y="0px"
   width="16.403126"
   height="14.87732"
   viewBox="0 0 16.403126 14.87732"
   inkscape:version="0.48.4 r9939"
   sodipodi:docname="AvatarAssets_backSleeveLowerRight20101122Blouse.svg">
  <metadata
     id="metadata3138">
    <rdf:RDF>
      <cc:Work
         rdf:about="">
        <dc:format>image/svg+xml</dc:format>
        <dc:type
           rdf:resource="http://purl.org/dc/dcmitype/StillImage" />
      </cc:Work>
    </rdf:RDF>
  </metadata>
  <sodipodi:namedview
     pagecolor="#ffffff"
     bordercolor="#666666"
     borderopacity="1"
     objecttolerance="10"
     gridtolerance="10"
     guidetolerance="10"
     inkscape:pageopacity="0"
     inkscape:pageshadow="2"
     inkscape:window-width="640"
     inkscape:window-height="480"
     id="namedview3136"
     showgrid="false"
     fit-margin-top="0"
     fit-margin-left="0"
     fit-margin-right="0"
     fit-margin-bottom="0"
     inkscape:zoom="1.9032258"
     inkscape:cx="40.203125"
     inkscape:cy="-54.52268"
     inkscape:window-x="643"
     inkscape:window-y="242"
     inkscape:window-maximized="0"
     inkscape:current-layer="AvatarAssets" />
  <defs
     id="defs3126" />
  <g
     id="backSleeveLowerRight20101122Blouse1"
     overflow="visible"
     style="overflow:visible"
     transform="translate(8.203125,7.4)">
    <g
       id="backSleeveLowerRight20101122Blouse_0">
      <g
         id="element">
        <path
           id="path"
           d="m 2.3,-6.85 0.05,0 0,0.4 0.05,-0.4 0.2,0 0.2,0.05 0,0.05 c 0.1,0.4 0.2,0.95 0.45,1.15 0.5,0.3 0.65,-0.2 0.95,-0.45 l 0.2,0.4 0.25,0.4 0.05,0.05 0.2,0.3 -0.05,0.05 C 4.7,-4.5 4.05,-4.2 3.8,-3.85 4.2,-4.1 4.6,-4.45 4.85,-4.8 4.65,-4.3 4.15,-3.9 4,-3.3 l -0.2,0 c 0.35,0.4 1.55,0 2.5,-0.35 C 6.25,-3.75 6.2,-3.85 6.1,-3.95 5.8,-4.3 5.45,-4.3 5.15,-4.6 4.85,-4.9 4.8,-5.35 4.6,-5.7 4.55,-5.8 4.45,-5.9 4.4,-5.95 L 4.35,-6.1 c -0.4,-0.45 -0.9,-0.7 -1.5,-0.85 l 0,0.05 -0.05,0 0,-0.05 L 2.55,-7 2.35,-7 C 2.3,-7 2.3,-7 2.25,-7 1.6,-7.05 0.6,-7.1 -0.7,-7.1 l -0.05,0 C -1.15,-7.15 -1.6,-7.2 -2.1,-7.35 -2.3,-7.4 -2.5,-7.4 -2.65,-7.35 -2.7,-7.4 -2.7,-7.4 -2.75,-7.4 l -0.2,0.05 c -0.2,0.05 -0.4,0.1 -0.55,0.15 -0.25,0.05 -0.85,0.7 -1.15,0.8 l 0.1,-0.2 -0.05,0 0.05,-0.05 -0.05,0 c 0,0 -0.55,0.25 -0.55,0.25 -0.1,0.05 -0.15,0.15 -0.25,0.2 -0.05,0.05 -0.05,0.05 -0.1,0.1 -0.05,0.05 -0.05,0.15 -0.1,0.2 l -0.05,0.05 c -0.05,0.2 -0.05,0.35 0.05,0.4 0.05,0 0.15,0 0.2,0 0.2,-0.05 0.6,0.3 1,0.45 0.45,0.25 -0.05,0.85 0.25,1.3 -0.3,0.6 -1.35,1.7 -2.6,3.6 l 1.35,-0.6 1.6,-0.05 c 0.15,-0.35 1.35,-0.35 1.75,-0.45 1.2,-0.45 0.8,-1.1 0.65,-2 -0.05,0.05 -0.15,0 -0.25,0.2 0.05,-0.65 -0.4,-1.15 -0.4,-1.75 -0.35,0.1 -0.55,0.4 -0.7,0.7 C -2.9,-4.2 -3.65,-4.2 -3.7,-4.4 -3.8,-4.6 -3.5,-4.75 -3.25,-4.8 -3.8,-5 -4.75,-5.45 -5.2,-5.9 L -5,-6.15 -4.9,-6.2 c 0.1,-0.1 0.25,-0.15 0.35,-0.15 l 0.05,-0.05 0.05,0 c 0.35,0.6 0.85,1 1.35,1.45 l -0.3,-0.1 0.25,0.2 L -3,-4.9 c 0.75,-0.25 1.3,-0.4 2.1,-0.15 0.7,0.2 1.25,0.5 1.85,0.35 0.25,-0.35 0.7,-0.6 0.95,-0.95 0.35,-0.4 0.35,-0.75 0.4,-1.2 z m -5.6,-0.05 0.1,0 c -0.2,0.25 -0.35,0.55 -0.35,1 -0.25,0 -0.35,-0.25 -0.4,-0.55 l 0.4,-0.1 c 0.1,-0.05 0.1,-0.3 0.25,-0.35 z m 10.4,5.1 0.05,0.1 -0.05,0.45 c 0.3,0.1 0.6,0.1 0.9,0.1 l 0.05,0 c 0.1,0.1 0.15,0.2 0.15,0.25 C 8.2,-1 8.15,-1.1 8.05,-1.2 7.65,-1.6 7.4,-1.3 7.1,-1.8 z m 0.75,1.25 C 7.95,-0.6 8.05,-0.65 8.1,-0.7 7.65,-0.55 7.25,-0.5 6.9,-0.45 7.45,-0.5 7.75,-0.5 7.85,-0.55 z m -11.6,-4.7 0.05,0.15 0.3,0.05 -0.35,-0.2 z m 0.75,0.5 -0.15,-0.1 -0.1,0.05 0.25,0.05 z m -1.4,-1 0.15,0.1 C -4.45,-5.8 -4.4,-5.95 -4.5,-6.3 l 0.05,0.4 0.05,0.15 z m -3.65,9.95 0,0.2 C -8,4.75 -7.95,5 -7.9,5.1 -7.9,5.15 -7.95,5.05 -7.95,4.95 -8.4,3.6 -8.25,2.35 -7.5,1.1 -8.1,2.15 -8.25,3.25 -8.1,4.2 l 0.05,0 z m 3.8,3.15 C -4.85,7.55 -5.5,7.5 -6.05,7.3 l 1.35,0.1 c 0.2,0 0.4,-0.05 0.45,-0.05 z"
           inkscape:connector-curvature="0"
           style="fill:#858585" />
        <path
           id="path1"
           d="m -3.3,-6.9 c -0.15,0.05 -0.15,0.3 -0.25,0.35 l -0.4,0.1 c 0.05,0.3 0.15,0.55 0.4,0.55 0,-0.45 0.15,-0.75 0.35,-1 l -0.1,0 z m 7.5,0.85 C 3.9,-5.8 3.75,-5.3 3.25,-5.6 3,-5.8 2.9,-6.35 2.8,-6.75 c -0.05,0.6 0.1,1.5 -0.2,1.55 l -0.05,0 C 2.2,-4.95 1.2,-4.6 0.85,-4.55 L 0.95,-4.7 C 0.35,-4.55 -0.2,-4.85 -0.9,-5.05 -1.7,-5.3 -2.25,-5.15 -3,-4.9 l -0.15,0.05 0.15,0.1 -0.25,-0.05 c -0.25,0.05 -0.55,0.2 -0.45,0.4 0.05,0.2 0.8,0.2 0.95,0.35 0.15,-0.3 0.35,-0.6 0.7,-0.7 0,0.6 0.45,1.1 0.4,1.75 0.1,-0.2 0.2,-0.15 0.25,-0.2 0.15,0.9 0.55,1.55 -0.65,2 -0.4,0.1 -1.6,0.1 -1.75,0.45 l -1.6,0.05 -1.35,0.6 q -0.4,0.6 -0.75,1.2 c -0.6,1.05 -0.75,2.15 -0.6,3.1 l 0.05,0 0,-1 3.15,-3.65 c 0.95,0.2 1.7,0.3 2.65,0.3 0.95,0 1.15,-0.25 1.85,-0.6 C 0.3,-1.05 0.7,-1 0.5,-1.95 0.4,-2.6 0.05,-3 -0.35,-3.45 c 0.55,-0.15 1.45,0.1 2,0.3 0.25,0.1 0.65,0.3 0.9,0.5 0.3,0.25 0.35,0.55 0.6,0.8 1.1,1 2.3,-0.6 3.25,-1.6 l 0.05,-0.05 -0.1,-0.15 -0.05,0 C 5.35,-3.3 4.15,-2.9 3.8,-3.3 3.45,-3.25 3.5,-3.5 3.65,-3.75 l -0.3,0.2 C 3.5,-4.15 3.85,-4.3 4.15,-4.8 4.3,-5.05 4.35,-5.35 4.4,-5.65 L 4.2,-6.05 z M 7.15,-1.7 7.1,-1.8 7.05,-1.85 l -0.1,-0.2 -1.05,0.6 -0.1,0.3 c 0.05,0.1 0.2,0.2 0.5,0.25 0.4,0.1 1.05,-0.1 1.7,-0.25 -0.3,0 -0.6,0 -0.9,-0.1 L 7.15,-1.7 z"
           inkscape:connector-curvature="0"
           style="fill:#787878" />
        <path
           id="path4"
           d="m 2.35,-6.85 -0.05,0 c -0.05,0.45 -0.05,0.8 -0.4,1.2 -0.25,0.35 -0.7,0.6 -0.95,0.95 l -0.1,0.15 C 1.2,-4.6 2.2,-4.95 2.55,-5.2 l 0.1,-0.15 c 0.2,-0.3 0.05,-0.9 -0.05,-1.5 l -0.2,0 -0.05,0.4 0,-0.4 z M 4.9,-4.9 4.7,-5.2 4.2,-4.5 C 4.1,-4.4 3.8,-4.05 3.65,-3.75 3.5,-3.5 3.45,-3.25 3.8,-3.3 l 0.2,0 C 4.15,-3.9 4.65,-4.3 4.85,-4.8 4.6,-4.45 4.2,-4.1 3.8,-3.85 4.05,-4.2 4.7,-4.5 4.85,-4.85 L 4.9,-4.9 z m -3.4,2.75 c 0.35,1.25 0.2,1.95 -0.9,2.7 -0.8,0.5 -1.65,1.1 -2.75,1 l -5.9,2.65 0,0.2 c 0.05,0.35 0.1,0.6 0.15,0.7 0.05,0.25 0.1,0.35 0.15,0.45 l 0.1,0.25 c 0.4,0.7 0.95,1.2 1.6,1.5 l 1.35,0.1 c 0.2,0 0.4,-0.05 0.45,-0.05 0.4,-0.15 0.65,-0.25 0.95,-0.4 l 1.75,-1.1 C -0.55,5.1 2,1.8 2.7,1.1 3.35,0.45 5.35,0.1 5.35,0.1 L 4.25,0.35 5.35,0.1 C 5.6,-0.25 5.9,-0.4 6.35,-0.45 5.8,-0.55 5.7,-0.8 5.8,-1.15 L 5.9,-1.45 6.15,-1.9 5.1,-1.4 C 4.55,-1.1 4.6,-1.1 3.95,-1.2 3.5,-1.3 2.9,-1.15 2.5,-1.3 2.1,-1.45 1.9,-2 1.5,-2.15 z m -5.95,-4.25 -0.05,0 -0.05,0.05 c -0.1,0 -0.25,0.05 -0.35,0.15 0.1,0.05 0.25,0.05 0.35,0.15 l 0.1,0.15 -0.05,-0.4 c 0.1,0.35 0.05,0.5 0.25,0.65 0.05,0.15 0.15,0.3 0.3,0.4 l 0.25,0.15 -0.05,-0.15 0.35,0.2 0.3,0.1 C -3.6,-5.4 -4.1,-5.8 -4.45,-6.4 z"
           inkscape:connector-curvature="0"
           style="fill:#454545" />
        <path
           id="path5"
           d="M 2.8,-6.8 2.6,-6.85 c 0.1,0.6 0.25,1.2 0.05,1.5 l -0.1,0.15 0.05,0 c 0.3,-0.05 0.15,-0.95 0.2,-1.55 l 0,-0.05 z M 4.7,-5.2 4.65,-5.25 4.4,-5.65 c -0.05,0.3 -0.1,0.6 -0.25,0.85 -0.3,0.5 -0.65,0.65 -0.8,1.25 l 0.3,-0.2 C 3.8,-4.05 4.1,-4.4 4.2,-4.5 L 4.7,-5.2 z M 0.6,0.55 c 1.1,-0.75 1.25,-1.45 0.9,-2.7 0.4,0.15 0.6,0.7 1,0.85 0.4,0.15 1,0 1.45,0.1 0.65,0.1 0.6,0.1 1.15,-0.2 L 6.15,-1.9 5.9,-1.45 6.95,-2.05 C 6.9,-2.1 6.9,-2.2 6.9,-2.25 6.75,-2.8 6.6,-3.25 6.45,-3.5 L 6.4,-3.45 c -0.95,1 -2.15,2.6 -3.25,1.6 C 2.9,-2.1 2.85,-2.4 2.55,-2.65 2.3,-2.85 1.9,-3.05 1.65,-3.15 1.1,-3.35 0.2,-3.6 -0.35,-3.45 0.05,-3 0.4,-2.6 0.5,-1.95 c 0.2,0.95 -0.2,0.9 -0.9,1.2 -0.7,0.35 -0.9,0.6 -1.85,0.6 -0.95,0 -1.7,-0.1 -2.65,-0.3 l -3.15,3.65 0,1 5.9,-2.65 c 1.1,0.1 1.95,-0.5 2.75,-1 z M 6.3,-0.9 C 6,-0.95 5.85,-1.05 5.8,-1.15 c -0.1,0.35 0,0.6 0.55,0.7 l 0.05,0 c 0.05,0 0.1,0 0.15,0 0.15,0 0.25,0 0.35,0 0.35,-0.05 0.75,-0.1 1.2,-0.25 0.05,-0.05 0.1,-0.15 0.1,-0.2 0,-0.05 -0.05,-0.15 -0.15,-0.25 L 8,-1.15 C 7.35,-1 6.7,-0.8 6.3,-0.9 z M -3.4,-5.05 -3.7,-5.1 -3.95,-5.25 C -4.1,-5.35 -4.2,-5.5 -4.25,-5.65 L -4.4,-5.75 -4.45,-5.9 -4.55,-6.05 C -4.65,-6.15 -4.8,-6.15 -4.9,-6.2 L -5,-6.15 -5.2,-5.9 c 0.45,0.45 1.4,0.9 1.95,1.1 l 0.1,-0.05 -0.25,-0.2 z"
           inkscape:connector-curvature="0"
           style="fill:#5e5e5e" />
        <path
           id="path20"
           d="m 6.9,-2.25 c 0,0.05 0,0.15 0.05,0.2 l 0.1,0.2 c 0,-0.05 -0.1,-0.2 -0.15,-0.4"
           inkscape:connector-curvature="0"
           style="fill:#858585" />
      </g>
    </g>
  </g>
</svg>
