<?xml version="1.0" encoding="UTF-8" standalone="no"?>
<!-- Generator: flash2svg, http://dissentgraphics.com/tools/flash2svg -->

<svg
   xmlns:dc="http://purl.org/dc/elements/1.1/"
   xmlns:cc="http://creativecommons.org/ns#"
   xmlns:rdf="http://www.w3.org/1999/02/22-rdf-syntax-ns#"
   xmlns:svg="http://www.w3.org/2000/svg"
   xmlns="http://www.w3.org/2000/svg"
   xmlns:sodipodi="http://sodipodi.sourceforge.net/DTD/sodipodi-0.dtd"
   xmlns:inkscape="http://www.inkscape.org/namespaces/inkscape"
   id="AvatarAssets"
   image-rendering="auto"
   version="1.1"
   x="0px"
   y="0px"
   width="19.826038"
   height="8.776886"
   viewBox="0 0 19.826038 8.776886"
   inkscape:version="0.48.4 r9939"
   sodipodi:docname="AvatarAssets_backSleeveUpperRight20101122Blouse.svg">
  <metadata
     id="metadata3060">
    <rdf:RDF>
      <cc:Work
         rdf:about="">
        <dc:format>image/svg+xml</dc:format>
        <dc:type
           rdf:resource="http://purl.org/dc/dcmitype/StillImage" />
      </cc:Work>
    </rdf:RDF>
  </metadata>
  <sodipodi:namedview
     pagecolor="#ffffff"
     bordercolor="#666666"
     borderopacity="1"
     objecttolerance="10"
     gridtolerance="10"
     guidetolerance="10"
     inkscape:pageopacity="0"
     inkscape:pageshadow="2"
     inkscape:window-width="640"
     inkscape:window-height="480"
     id="namedview3058"
     showgrid="false"
     fit-margin-top="0"
     fit-margin-left="0"
     fit-margin-right="0"
     fit-margin-bottom="0"
     inkscape:zoom="1.9032258"
     inkscape:cx="41.854104"
     inkscape:cy="-57.610614"
     inkscape:window-x="0"
     inkscape:window-y="0"
     inkscape:window-maximized="0"
     inkscape:current-layer="AvatarAssets" />
  <defs
     id="defs3049" />
  <g
     id="backSleeveUpperRight20101122Blouse1"
     overflow="visible"
     style="overflow:visible"
     transform="translate(9.8541041,4.3875)">
    <g
       id="backSleeveUpperRight20101122Blouse_0">
      <g
         id="element">
        <path
           id="path"
           d="m 0.3,-0.6 c 1.1,0.2 2.3,0.15 3.5,0.15 1.35,0 2.9,0.25 3.45,-1.05 0.2,-0.45 0.25,-0.85 0.1,-1.2 L 7.15,-3.05 C 7,-3.15 6.9,-3.25 6.75,-3.3 Q 5.95,-3.7 3.05,-3.95 1.5,-4.1 -1.4,-4.3 c -1,-0.1 -2.05,-0.1 -3.2,-0.05 l 0.2,0 c 0.7,-0.05 1.35,-0.05 2,0 l 0.05,0.55 c -0.05,0.8 -1.35,1.6 -0.7,2.45 0.35,0.5 2.7,0.6 3.35,0.75 z m 7.75,-1.85 c 0.4,0.3 0.75,0.6 1,0.95 0.1,0.1 0.15,0.2 0.25,0.35 -0.05,-0.1 -0.1,-0.2 -0.15,-0.3 -0.3,-0.35 -0.65,-0.7 -1.1,-1 z"
           inkscape:connector-curvature="0"
           style="fill:#858585" />
        <path
           id="path1"
           d="M 3.8,-0.45 C 2.6,-0.45 1.4,-0.4 0.3,-0.6 -0.35,-0.75 -2.7,-0.85 -3.05,-1.35 -3.7,-2.2 -2.4,-3 -2.35,-3.8 L -2.4,-4.35 c -0.65,-0.05 -1.3,-0.05 -2,0 0.15,0.25 0.2,0.55 0.2,1.05 0.05,1.1 -0.25,3.2 0.6,3.9 0.85,0.7 3,0.25 4.1,0.55 1.8,0.6 3,0.95 5,0.45 C 6.9,1.2 8.75,0.4 8.3,-1.45 8.2,-1.85 7.8,-2.3 7.35,-2.7 c 0.15,0.35 0.1,0.75 -0.1,1.2 -0.55,1.3 -2.1,1.05 -3.45,1.05 z"
           inkscape:connector-curvature="0"
           style="fill:#787878" />
        <path
           id="path2"
           d="m 7.15,-3.05 0.2,0.35 C 7.8,-2.3 8.2,-1.85 8.3,-1.45 8.75,0.4 6.9,1.2 5.5,1.6 3.5,2.1 2.3,1.75 0.5,1.15 -0.6,0.85 -2.75,1.3 -3.6,0.6 c -0.85,-0.7 -0.55,-2.8 -0.6,-3.9 0,-0.5 -0.05,-0.8 -0.2,-1.05 l -0.2,0 c 0,1.8 -0.7,3.65 0.2,5.2 0.65,1.1 3.85,1.45 5.35,1.65 C 2.85,2.75 6.55,3.35 8.3,2.2 9.15,1.65 9.45,-0.2 9.05,-1.5 8.8,-1.85 8.45,-2.15 8.05,-2.45 7.8,-2.7 7.5,-2.9 7.15,-3.1 l 0,0.05 z"
           inkscape:connector-curvature="0"
           style="fill:#5e5e5e" />
        <path
           id="path5"
           d="M 9.5,-0.85 C 9.45,-0.95 9.4,-1.05 9.3,-1.15 9.2,-1.3 9.15,-1.4 9.05,-1.5 9.45,-0.2 9.15,1.65 8.3,2.2 6.55,3.35 2.85,2.75 0.95,2.5 -0.55,2.3 -3.75,1.95 -4.4,0.85 -5.3,-0.7 -4.6,-2.55 -4.6,-4.35 l -0.05,0 -0.9,0.1 c -0.9,0.05 -1.7,0.2 -2.4,0.35 -1.05,0.25 -1.65,0.5 -1.8,0.8 -0.5,0.8 0.85,4.5 3,5.5 2.2,1 6,1.15 9.2,1.65 3.15,0.5 6.3,0.85 7.3,-2 0.35,-1.05 0.3,-2 -0.25,-2.9 z"
           inkscape:connector-curvature="0"
           style="fill:#454545" />
      </g>
    </g>
  </g>
</svg>
