<?xml version="1.0" encoding="UTF-8" standalone="no"?>
<!-- Generator: flash2svg, http://dissentgraphics.com/tools/flash2svg -->

<svg
   xmlns:dc="http://purl.org/dc/elements/1.1/"
   xmlns:cc="http://creativecommons.org/ns#"
   xmlns:rdf="http://www.w3.org/1999/02/22-rdf-syntax-ns#"
   xmlns:svg="http://www.w3.org/2000/svg"
   xmlns="http://www.w3.org/2000/svg"
   xmlns:sodipodi="http://sodipodi.sourceforge.net/DTD/sodipodi-0.dtd"
   xmlns:inkscape="http://www.inkscape.org/namespaces/inkscape"
   id="AvatarAssets"
   image-rendering="auto"
   version="1.1"
   x="0px"
   y="0px"
   width="11.283763"
   height="12.171577"
   viewBox="0 0 11.283763 12.171577"
   inkscape:version="0.48.4 r9939"
   sodipodi:docname="AvatarAssets_backSleeveLowerRightD007.svg">
  <metadata
     id="metadata3245">
    <rdf:RDF>
      <cc:Work
         rdf:about="">
        <dc:format>image/svg+xml</dc:format>
        <dc:type
           rdf:resource="http://purl.org/dc/dcmitype/StillImage" />
      </cc:Work>
    </rdf:RDF>
  </metadata>
  <sodipodi:namedview
     pagecolor="#ffffff"
     bordercolor="#666666"
     borderopacity="1"
     objecttolerance="10"
     gridtolerance="10"
     guidetolerance="10"
     inkscape:pageopacity="0"
     inkscape:pageshadow="2"
     inkscape:window-width="640"
     inkscape:window-height="480"
     id="namedview3243"
     showgrid="false"
     fit-margin-top="0"
     fit-margin-left="0"
     fit-margin-right="0"
     fit-margin-bottom="0"
     inkscape:zoom="1.9032258"
     inkscape:cx="35.218"
     inkscape:cy="-59.599179"
     inkscape:window-x="527"
     inkscape:window-y="290"
     inkscape:window-maximized="0"
     inkscape:current-layer="AvatarAssets" />
  <defs
     id="defs3230" />
  <g
     id="backSleeveLowerRightD8"
     overflow="visible"
     style="overflow:visible"
     transform="translate(3.218,9.7707566)">
    <g
       id="backSleeveLowerRightD007_0">
      <g
         id="element">
        <g
           id="drawingObject">
          <path
             id="path"
             d="M 8.011,-5.291 C 8.404,-7.219 6.619,-9.163 4.667,-9.543 2.714,-9.924 -0.405,-10.082 -0.285,-7.886 q -0.2,0.714 -0.71,1.397 c -0.499,0.732 -0.518,2.286 -0.896,2.409 -0.438,0.077 -2.389,2.752 -0.541,4.992 1.848,2.241 4.187,1.596 5.948,0.385 1.811,-1.214 3.064,-3.845 3.849,-4.895 0.784,-1.051 -0.068,0.154 0.207,-0.915 0.286,-1.019 0.335,-0.321 0.439,-0.778 z"
             inkscape:connector-curvature="0"
             style="fill:#b80e1f" />
        </g>
        <g
           id="drawingObject1">
          <path
             id="path1"
             d="M 5.966,-1.409 7.365,-3.598 C 5.804,-5.205 3.072,-7.091 -0.41,-7.527 c -0.135,0.309 -0.31,0.67 -0.585,1.038 l -0.039,0.052 c 2.43,0.952 5.669,2.606 7,5.028 z"
             inkscape:connector-curvature="0"
             style="fill:#382833" />
        </g>
        <g
           id="drawingObject2">
          <path
             id="path2"
             d="M 4.282,-8.916 3.85,-9.04 c -1.952,-0.38 -4.279,-1.088 -4.159,1.108 0,0 -0.2,0.714 -0.71,1.396 -0.5,0.732 -0.519,2.286 -0.896,2.41 q -0.3,0.018 -0.739,0.797 -0.517,0.883 -0.564,1.838 c 0.584,0.364 1.237,0.575 1.924,0.482 2.463,-0.302 0.984,-0.361 1.965,-1.674 0.97,-1.362 2.962,-0.333 2.962,-0.333 L 3.345,-3.649 C 3.007,-4.279 0.53,-5.679 0.53,-5.679 L 1.809,-4.907 0.53,-5.679 1.129,-5.716 c 0.649,-0.04 2.623,0.439 2.869,0.875 C 4.233,-4.455 4.187,-5.604 3.4,-6.207 2.673,-6.763 1.95,-7.069 1.854,-7.514 L 1.747,-8.008 1.854,-7.514 C 1.758,-7.959 1.416,-8.138 2.61,-8.462 l 1.672,-0.454 z"
             inkscape:connector-curvature="0"
             style="fill:#000000;fill-opacity:0.08600003" />
        </g>
        <g
           id="drawingObject3">
          <path
             id="path3"
             d="M 6.549,-4.498 Q 5.862,-5.808 4.07,-6.849 C 2.217,-7.937 0.738,-7.996 0.339,-7.972 c -0.399,0.025 -0.777,0.85 -0.777,0.85 l 0.264,-0.417 -0.264,0.417 0.966,-0.21 -0.966,0.21 c 0,0 1.198,-0.776 3.891,0.461 2.302,1.06 2.73,1.635 3.096,2.163 z"
             inkscape:connector-curvature="0"
             style="fill:#000000;fill-opacity:0.08600003" />
        </g>
      </g>
    </g>
  </g>
</svg>
