<?xml version="1.0" encoding="UTF-8" standalone="no"?>
<!-- Generator: flash2svg, http://dissentgraphics.com/tools/flash2svg -->

<svg
   xmlns:dc="http://purl.org/dc/elements/1.1/"
   xmlns:cc="http://creativecommons.org/ns#"
   xmlns:rdf="http://www.w3.org/1999/02/22-rdf-syntax-ns#"
   xmlns:svg="http://www.w3.org/2000/svg"
   xmlns="http://www.w3.org/2000/svg"
   xmlns:sodipodi="http://sodipodi.sourceforge.net/DTD/sodipodi-0.dtd"
   xmlns:inkscape="http://www.inkscape.org/namespaces/inkscape"
   id="AvatarAssets"
   image-rendering="auto"
   version="1.1"
   x="0px"
   y="0px"
   width="12.2"
   height="11.573508"
   viewBox="0 0 12.2 11.573508"
   inkscape:version="0.48.4 r9939"
   sodipodi:docname="AvatarAssets_backSleeveUpperRightA012.svg">
  <metadata
     id="metadata3204">
    <rdf:RDF>
      <cc:Work
         rdf:about="">
        <dc:format>image/svg+xml</dc:format>
        <dc:type
           rdf:resource="http://purl.org/dc/dcmitype/StillImage" />
      </cc:Work>
    </rdf:RDF>
  </metadata>
  <sodipodi:namedview
     pagecolor="#ffffff"
     bordercolor="#666666"
     borderopacity="1"
     objecttolerance="10"
     gridtolerance="10"
     guidetolerance="10"
     inkscape:pageopacity="0"
     inkscape:pageshadow="2"
     inkscape:window-width="640"
     inkscape:window-height="480"
     id="namedview3202"
     showgrid="false"
     fit-margin-top="0"
     fit-margin-left="0"
     fit-margin-right="0"
     fit-margin-bottom="0"
     inkscape:zoom="1.9032258"
     inkscape:cx="32.399"
     inkscape:cy="-52.475492"
     inkscape:window-x="0"
     inkscape:window-y="0"
     inkscape:window-maximized="0"
     inkscape:current-layer="AvatarAssets" />
  <defs
     id="defs3191" />
  <g
     id="backSleeveUpperRightA13"
     overflow="visible"
     style="overflow:visible"
     transform="translate(0.399,2.049)">
    <g
       id="backSleeveUpperRightA012_0">
      <g
         id="element">
        <g
           id="drawingObject">
          <path
             id="path"
             d="m 11.801,3.151 -0.1,-1 -3.65,-2.35 c -1.2,-0.75 -4.25,-1.85 -5.4,-1.85 -1.2,0.05 -3,0.75 -3.05,2.6 q 0,1.55 1.5,3.55 c 1.2,1.6 2.4,2.95 3.1,3.75 0.75,0.8 1.35,1.65 1.35,1.65 l 1.3,-0.1 -1.3,0.1 c 0,0 2.15,0.4 4.05,-2.1 1.9,-2.45 2.2,-3.6 2.2,-4.25 z"
             inkscape:connector-curvature="0"
             style="fill:#ff7d7d" />
        </g>
        <g
           id="drawingObject1">
          <path
             id="path1"
             d="m 11.801,3.151 -0.05,-0.65 c -0.4,1.05 -1.15,2.5 -2.45,3.05 -2.05,0.85 -2.7,0.5 -3.4,-0.95 -0.75,-1.45 -1.15,-2.3 -1.35,-2.45 -0.2,-0.1 -0.05,-2.45 -0.9,-3.9 l -0.15,-0.15 -0.85,-0.15 c -1.2,0.05 -3,0.75 -3.05,2.6 0,1.05 0.3,1.95 1.5,3.55 1.2,1.6 2.4,2.95 3.1,3.75 0.75,0.8 1.35,1.65 1.35,1.65 l 1.3,-0.1 -1.3,0.1 c 0,0 2.15,0.4 4.05,-2.1 1.9,-2.45 2.2,-3.6 2.2,-4.25 z"
             inkscape:connector-curvature="0"
             style="fill:#cc6464" />
        </g>
        <g
           id="drawingObject2">
          <path
             id="path2"
             d="m -0.399,0.551 c 0,1.05 0.3,1.95 1.5,3.55 1.2,1.6 2.4,2.95 3.1,3.75 0.75,0.8 1.35,1.65 1.35,1.65 l 1.25,-0.1 -1.25,0.1 c 0,0 2,0.35 3.85,-1.8 -0.65,0.4 -1.2,0.5 -2.15,0.1 -1.8,-0.85 -1.9,-0.1 -2.7,-1.7 -0.85,-1.6 -1.9,-2.5 -1.95,-3.4 0,-0.95 -0.1,-3.6 -0.65,-4.5 l -0.15,-0.1 q -2.15,0.5 -2.2,2.45 z"
             inkscape:connector-curvature="0"
             style="fill:#ab5454" />
        </g>
      </g>
    </g>
  </g>
</svg>
