<?xml version="1.0" encoding="UTF-8" standalone="no"?>
<!-- Generator: flash2svg, http://dissentgraphics.com/tools/flash2svg -->

<svg
   xmlns:dc="http://purl.org/dc/elements/1.1/"
   xmlns:cc="http://creativecommons.org/ns#"
   xmlns:rdf="http://www.w3.org/1999/02/22-rdf-syntax-ns#"
   xmlns:svg="http://www.w3.org/2000/svg"
   xmlns="http://www.w3.org/2000/svg"
   xmlns:sodipodi="http://sodipodi.sourceforge.net/DTD/sodipodi-0.dtd"
   xmlns:inkscape="http://www.inkscape.org/namespaces/inkscape"
   id="AvatarAssets"
   image-rendering="auto"
   version="1.1"
   x="0px"
   y="0px"
   width="12.807735"
   height="12.198028"
   viewBox="0 0 12.807735 12.198028"
   inkscape:version="0.48.4 r9939"
   sodipodi:docname="AvatarAssets_backSleeveLowerRight20101103Black2.svg">
  <metadata
     id="metadata3094">
    <rdf:RDF>
      <cc:Work
         rdf:about="">
        <dc:format>image/svg+xml</dc:format>
        <dc:type
           rdf:resource="http://purl.org/dc/dcmitype/StillImage" />
      </cc:Work>
    </rdf:RDF>
  </metadata>
  <sodipodi:namedview
     pagecolor="#ffffff"
     bordercolor="#666666"
     borderopacity="1"
     objecttolerance="10"
     gridtolerance="10"
     guidetolerance="10"
     inkscape:pageopacity="0"
     inkscape:pageshadow="2"
     inkscape:window-width="640"
     inkscape:window-height="480"
     id="namedview3092"
     showgrid="false"
     fit-margin-top="0"
     fit-margin-left="0"
     fit-margin-right="0"
     fit-margin-bottom="0"
     inkscape:zoom="1.9032258"
     inkscape:cx="35.407735"
     inkscape:cy="-59.623973"
     inkscape:window-x="0"
     inkscape:window-y="0"
     inkscape:window-maximized="0"
     inkscape:current-layer="AvatarAssets" />
  <defs
     id="defs3083" />
  <g
     id="backSleeveLowerRight20101103Black3"
     overflow="visible"
     style="overflow:visible"
     transform="translate(3.407735,9.822)">
    <g
       id="backSleeveLowerRight20101103Black2_0">
      <g
         id="element">
        <path
           id="path"
           d="m 7.05,-7.1 0.05,0.05 0,-0.05 c 1,0.1 2.3,1.15 2.3,1.15 l -0.8,-0.55 0.8,0.55 -0.9,-1 0.9,1 c 0,0 -1.1,-1.6 -3.85,-2.9 -2.8,-1.35 -4.85,-0.9 -4.85,-0.9 l -2,4.1 c -0.15,0.25 -0.35,0.5 -0.4,0.55 0,0 0.15,-0.1 0.25,-0.3 0.8,-0.4 1.6,-0.5 2.4,0.3 0.35,0.35 0.55,0.75 0.7,1.2 0.2,0.5 0.25,0.95 0.1,1.3 -0.25,0.65 -0.85,0.8 -1.4,0.9 -1.2,0.2 -2.6,0.1 -3.7,-0.4 -0.05,0.4 -0.1,0.75 0,1.1 1.4,0.8 2.5,0.6 4,0.05 1.15,-0.45 1.1,-0.6 1.6,-1.6 0.35,-0.5 1.1,-0.95 0.5,-1.55 0.65,-0.8 2.05,-0.3 2.6,-1.2 0.15,-0.2 0.35,-1.85 0.4,-2.3 0.4,0.15 0.85,0.3 1.35,0.55"
           inkscape:connector-curvature="0"
           style="fill:#2a2b2b" />
        <path
           id="path1"
           d="M 7.05,-7.1 7.1,-7.05 C 6.6,-7.3 6.15,-7.45 5.75,-7.6 5.7,-7.15 5.5,-5.5 5.35,-5.3 4.8,-4.4 3.4,-4.9 2.75,-4.1 c 0.6,0.6 -0.15,1.05 -0.5,1.55 -0.5,1 -0.45,1.15 -1.6,1.6 -1.5,0.55 -2.6,0.75 -4,-0.05 l -0.05,-0.05 0.05,0.2 0.1,0.05 0.5,0.35 C -0.95,0.15 0.85,0.8 2.6,-0.4 3.25,-0.85 4.5,-1.8 4.8,-2.6 5.25,-3.7 4.35,-3 3.85,-3.75 4.45,-4.2 6.9,-5.55 7.1,-7.05 M 1.65,-3.9 C 1.5,-4.35 1.3,-4.75 0.95,-5.1 c -0.8,-0.8 -1.6,-0.7 -2.4,-0.3 -0.1,0.2 -0.25,0.3 -0.25,0.3 -0.3,0.35 -0.55,0.6 -0.65,0.75 -0.2,0.2 -0.45,0.45 -0.6,0.75 -0.15,0.35 -0.3,0.95 -0.4,1.5 1.1,0.5 2.5,0.6 3.7,0.4 0.55,-0.1 1.15,-0.25 1.4,-0.9 0.15,-0.35 0.1,-0.8 -0.1,-1.3 z"
           inkscape:connector-curvature="0"
           style="fill:#202121" />
        <path
           id="path2"
           d="m 7.1,-7.1 0,0.05 C 6.9,-5.55 4.45,-4.2 3.85,-3.75 4.35,-3 5.25,-3.7 4.8,-2.6 4.5,-1.8 3.25,-0.85 2.6,-0.4 0.85,0.8 -0.95,0.15 -2.75,-0.45 -2.4,-0.1 -2,0.4 -1.7,0.55 -1.3,0.8 -0.75,1.1 -0.25,1.2 0.35,1.4 1,1.3 1.6,1.2 3.3,0.8 3.85,-0.35 4.85,-1.65 L 3.45,0.1 4.85,-1.65 C 5.1,-2 5.65,-2.35 5.8,-2.75 5.85,-2.95 5.6,-3.25 5.65,-3.45 5.95,-4 7.1,-4.2 8.2,-4.55 l 0.05,0 1.15,-1.4 -0.8,-0.55 0.8,0.55 c 0,0 -1.3,-1.05 -2.3,-1.15 z"
           inkscape:connector-curvature="0"
           style="fill:#161717" />
        <path
           id="path5"
           d="m 5.5,-1.2 1.2,-1.5 c 0.1,-0.05 0.2,-0.15 0.25,-0.25 0.4,-0.5 0.9,-1.05 1.3,-1.6 l -0.05,0 C 7.1,-4.2 5.95,-4 5.65,-3.45 c -0.05,0.2 0.2,0.5 0.15,0.7 -0.15,0.4 -0.7,0.75 -0.95,1.1 L 3.45,0.1 4.85,-1.65 C 3.85,-0.35 3.3,0.8 1.6,1.2 1,1.3 0.35,1.4 -0.25,1.2 -0.75,1.1 -1.3,0.8 -1.7,0.55 -2,0.4 -2.4,-0.1 -2.75,-0.45 l -0.5,-0.35 -0.1,-0.05 0.05,0.25 c 0.05,0.35 0.2,0.7 0.25,0.8 0.4,0.7 0.85,1.2 1.6,1.6 Q 1.1,3.25 3.5,1.05 c 0.4,-0.35 1.05,-1.1 2,-2.25 z"
           inkscape:connector-curvature="0"
           style="fill:#0f0f0f" />
      </g>
    </g>
  </g>
</svg>
