<?xml version="1.0" encoding="UTF-8" standalone="no"?>
<!-- Generator: flash2svg, http://dissentgraphics.com/tools/flash2svg -->

<svg
   xmlns:dc="http://purl.org/dc/elements/1.1/"
   xmlns:cc="http://creativecommons.org/ns#"
   xmlns:rdf="http://www.w3.org/1999/02/22-rdf-syntax-ns#"
   xmlns:svg="http://www.w3.org/2000/svg"
   xmlns="http://www.w3.org/2000/svg"
   xmlns:sodipodi="http://sodipodi.sourceforge.net/DTD/sodipodi-0.dtd"
   xmlns:inkscape="http://www.inkscape.org/namespaces/inkscape"
   id="AvatarAssets"
   image-rendering="auto"
   version="1.1"
   x="0px"
   y="0px"
   width="10.901337"
   height="11.267091"
   viewBox="0 0 10.901337 11.267091"
   inkscape:version="0.48.4 r9939"
   sodipodi:docname="AvatarAssets_backSleeveLowerRightC005.svg">
  <metadata
     id="metadata3227">
    <rdf:RDF>
      <cc:Work
         rdf:about="">
        <dc:format>image/svg+xml</dc:format>
        <dc:type
           rdf:resource="http://purl.org/dc/dcmitype/StillImage" />
      </cc:Work>
    </rdf:RDF>
  </metadata>
  <sodipodi:namedview
     pagecolor="#ffffff"
     bordercolor="#666666"
     borderopacity="1"
     objecttolerance="10"
     gridtolerance="10"
     guidetolerance="10"
     inkscape:pageopacity="0"
     inkscape:pageshadow="2"
     inkscape:window-width="640"
     inkscape:window-height="480"
     id="namedview3225"
     showgrid="false"
     fit-margin-top="0"
     fit-margin-left="0"
     fit-margin-right="0"
     fit-margin-bottom="0"
     inkscape:zoom="1.9032258"
     inkscape:cx="34.800337"
     inkscape:cy="-59.211676"
     inkscape:window-x="0"
     inkscape:window-y="0"
     inkscape:window-maximized="0"
     inkscape:current-layer="AvatarAssets" />
  <defs
     id="defs3212" />
  <g
     id="backSleeveLowerRightC6"
     overflow="visible"
     style="overflow:visible"
     transform="translate(2.800337,8.4787669)">
    <g
       id="backSleeveLowerRightC005_0">
      <g
         id="element">
        <g
           id="drawingObject">
          <path
             id="path"
             d="m 2.896,-8.383 c -2.903,-0.401 -4.264,0.587 -4.264,0.587 l 1.02,-0.456 -1.02,0.456 0.138,1.646 q 0.042,0.534 -0.046,0.803 -0.139,0.283 -0.671,0.913 c -0.698,0.819 -1.188,2.18 -0.573,4.546 0.666,2.353 2.228,2.848 3.631,2.393 C 2.514,2.05 4.352,-0.344 5.468,-1.617 6.636,-2.902 8.049,-3.705 8.049,-3.705 L 7.336,-5.453 C 6.842,-6.811 5.735,-8.015 2.896,-8.383 z"
             inkscape:connector-curvature="0"
             style="fill:#a16d29" />
        </g>
        <g
           id="drawingObject1">
          <path
             id="path1"
             d="m 2.471,-6.989 c 2.71,0.302 4.026,2.243 4.662,3.912 L 8.049,-3.705 7.336,-5.453 c -0.494,-1.358 -1.601,-2.562 -4.44,-2.93 -2.903,-0.401 -4.264,0.587 -4.264,0.587 l 1.02,-0.456 -1.02,0.456 0.108,0.962 q 1.25,-0.416 3.731,-0.155 z"
             inkscape:connector-curvature="0"
             style="fill:#dcc041" />
        </g>
        <g
           id="drawingObject2">
          <path
             id="path2"
             d="m 1.388,-7.515 -0.357,0.091 c 0,0 3.286,0.403 3.494,0.944 0.259,0.527 0.217,1.923 -0.396,2.078 -0.612,0.156 -1.623,-0.132 -1.943,-0.101 -0.37,0.045 0.734,0.853 0.161,1.147 -0.535,0.234 -2.152,-0.839 -4.564,-0.277 l -0.153,0.038 q -0.732,1.472 -0.116,3.838 c 0.666,2.353 2.228,2.847 3.631,2.393 1.402,-0.455 3.24,-2.85 4.357,-4.122 1.167,-1.285 2.581,-2.088 2.581,-2.088 L 7.369,-5.322 C 7.083,-6.14 6.542,-6.893 5.554,-7.483 5.838,-7.06 6.07,-6.625 5.558,-6.891 4.622,-7.296 3.586,-7.479 2.525,-7.556 1.464,-7.633 1.031,-7.424 1.031,-7.424"
             inkscape:connector-curvature="0"
             style="fill:#000000;fill-opacity:0.08600003" />
        </g>
        <g
           id="drawingObject3">
          <path
             id="path3"
             d="m 5.09,-2.849 c -0.37,0.35 -0.528,0.95 -2.483,0.4 q -1.162,-0.35 -2.166,-0.25 l -0.898,0.15 c -1.532,2.35 -1.902,3.75 -1.11,4.1 0.74,0.35 1.321,0.65 1.744,0.85 0.422,0.15 0.687,0.25 0.792,0.25 l 0.159,0 c 1.426,-0.5 3.275,-2.85 4.385,-4.1 1.162,-1.35 2.588,-2.1 2.588,-2.1 l -0.739,-1.75 -0.053,-0.35 c -0.159,0.6 -0.317,1.1 -0.687,1.4 -0.792,0.55 -1.69,0.85 -1.69,0.85 l 0.528,-0.2 -0.528,0.2 c 0,0 0.528,0.2 0.158,0.55 z"
             inkscape:connector-curvature="0"
             style="fill:#000000;fill-opacity:0.08600003" />
        </g>
      </g>
    </g>
  </g>
</svg>
