<?xml version="1.0" encoding="UTF-8" standalone="no"?>
<!-- Generator: flash2svg, http://dissentgraphics.com/tools/flash2svg -->

<svg
   xmlns:dc="http://purl.org/dc/elements/1.1/"
   xmlns:cc="http://creativecommons.org/ns#"
   xmlns:rdf="http://www.w3.org/1999/02/22-rdf-syntax-ns#"
   xmlns:svg="http://www.w3.org/2000/svg"
   xmlns="http://www.w3.org/2000/svg"
   xmlns:sodipodi="http://sodipodi.sourceforge.net/DTD/sodipodi-0.dtd"
   xmlns:inkscape="http://www.inkscape.org/namespaces/inkscape"
   id="AvatarAssets"
   image-rendering="auto"
   version="1.1"
   x="0px"
   y="0px"
   width="11.965517"
   height="12.142718"
   viewBox="0 0 11.965517 12.142718"
   inkscape:version="0.48.4 r9939"
   sodipodi:docname="AvatarAssets_backSleeveUpperRight20101103Black1.svg">
  <metadata
     id="metadata15">
    <rdf:RDF>
      <cc:Work
         rdf:about="">
        <dc:format>image/svg+xml</dc:format>
        <dc:type
           rdf:resource="http://purl.org/dc/dcmitype/StillImage" />
      </cc:Work>
    </rdf:RDF>
  </metadata>
  <sodipodi:namedview
     pagecolor="#ffffff"
     bordercolor="#666666"
     borderopacity="1"
     objecttolerance="10"
     gridtolerance="10"
     guidetolerance="10"
     inkscape:pageopacity="0"
     inkscape:pageshadow="2"
     inkscape:window-width="640"
     inkscape:window-height="480"
     id="namedview13"
     showgrid="false"
     fit-margin-top="0"
     fit-margin-left="0"
     fit-margin-right="0"
     fit-margin-bottom="0"
     inkscape:zoom="1.9032258"
     inkscape:cx="32.015517"
     inkscape:cy="-52.104086"
     inkscape:window-x="0"
     inkscape:window-y="0"
     inkscape:window-maximized="0"
     inkscape:current-layer="AvatarAssets" />
  <defs
     id="defs3" />
  <g
     id="backSleeveUpperRight20101103Black2"
     overflow="visible"
     style="overflow:visible"
     transform="translate(0.01551724,2.2468042)">
    <g
       id="backSleeveUpperRight20101103Black1_0">
      <g
         id="element">
        <path
           id="path"
           d="M 2.35,-2.2 C 2.05,-2.15 1.75,-2.15 1.4,-2.05 1.25,-1.75 1,-1.5 0.8,-1.3 l 0,0.05 c 0.15,-0.05 0.55,-0.35 1.05,-0.5 -0.15,0.2 -0.1,0.15 0.1,0 0.05,0 0.1,-0.05 0.2,-0.05 -0.3,0.25 0.7,-0.5 0.7,-0.25 L 2.8,-0.7 c 0,0.15 -0.05,0.35 -0.1,0.6 L 2.75,-0.15 2.7,-0.1 c 0,0 0.25,-0.05 0.1,-0.15 l 0.15,-0.4 C 2.85,-1.35 3.05,-1.2 3.15,-1.6 3.15,-1.75 3.1,-2 3.05,-1.95 2.8,-2.25 2.55,-2.3 2.35,-2.2 z M 11.5,3.85 C 11.1,4.85 10.2,5.7 9.55,6 l 0.4,-0.65 -0.7,0.1 C 9.3,5.15 9.5,4.85 9.6,4.55 9.15,4.5 8.9,4.65 8.5,4.35 8.2,4.1 7.1,4.55 6.65,4.55 5.5,4.7 4.65,3.45 3.8,3 3.5,2.85 3.35,2.4 3.15,1.7 2.95,1 2.75,0.6 2.6,0.3 2.45,1.2 2.2,1.85 2.7,2.4 3.35,3.15 3.55,4.1 4.3,4.7 4.95,5.15 4.5,5.05 4.75,5.6 4.9,5.95 5.1,6.2 5.5,6.6 6,6.95 6.6,7.1 7.2,6.95 L 7.1,7.15 C 8.45,7.15 9.85,6.4 10.85,5.4 11.25,4.75 11.4,4.25 11.5,3.85 z"
           inkscape:connector-curvature="0"
           style="fill:#232424" />
        <path
           id="path1"
           d="m 1.95,-1.75 c -0.2,0.15 -0.25,0.2 -0.1,0 -0.5,0.15 -0.9,0.45 -1.05,0.5 -0.35,0.3 -0.6,0.75 -0.7,1.1 L 0,0.05 c 0.05,0 0,0.2 0,0.35 Q -0.15,1.9 1.15,4.05 C 2.2,5.75 3.35,7.15 4,8 l 1.2,1.85 c 0,0 2.1,0.5 4.2,-1.8 L 9.5,7.9 C 9.05,8.3 8.45,8.65 7.95,8.85 L 6.6,9.3 C 6.35,9.3 5.75,9.4 5.55,9.15 L 5.5,8.9 5.3,8.65 C 5,8.3 4.8,8.1 4.7,7.7 4.1,6.65 3,6.05 2.45,5.05 2.2,4.6 2.1,4.15 1.9,3.75 1.65,3.5 1.4,3.4 1.4,3 1.4,2.7 1.5,2.5 1.6,2.3 1.85,1.85 1.85,1.4 1.95,0.9 L 2.2,0.2 C 2.3,-0.2 2.3,-0.55 2.3,-1.05 2.35,-1.25 2.35,-1.5 2.25,-1.75 L 2.15,-1.8 c -0.1,0 -0.15,0.05 -0.2,0.05 z"
           inkscape:connector-curvature="0"
           style="fill:#121212" />
        <path
           id="path2"
           d="m 2.85,-2.05 c 0,-0.25 -1,0.5 -0.7,0.25 l 0.1,0.05 c 0.1,0.25 0.1,0.5 0.05,0.7 0,0.5 0,0.85 -0.1,1.25 L 1.95,0.9 C 1.85,1.4 1.85,1.85 1.6,2.3 1.5,2.5 1.4,2.7 1.4,3 1.4,3.4 1.65,3.5 1.9,3.75 2.1,4.15 2.2,4.6 2.45,5.05 3,6.05 4.1,6.65 4.7,7.7 4.8,8.1 5,8.3 5.3,8.65 L 5.5,8.9 5.55,9.15 C 5.75,9.4 6.35,9.3 6.6,9.3 L 7.95,8.85 C 8.45,8.65 9.05,8.3 9.5,7.9 L 9.4,8.05 C 9.75,7.7 10.05,7.3 10.45,6.75 l 0.5,-0.7 c 0.1,-0.1 0.2,-0.2 0.25,-0.3 -0.9,0.95 -2.35,1.7 -3.7,1.7 L 7.6,7.25 C 6.9,7.3 6.35,7.2 5.75,6.8 5.6,6.65 5.45,6.55 5.5,6.6 5.1,6.2 4.9,5.95 4.75,5.6 4.5,5.05 4.95,5.15 4.3,4.7 3.55,4.1 3.35,3.15 2.7,2.4 2.2,1.85 2.45,1.2 2.6,0.3 2.65,0.2 2.7,0.05 2.65,0.1 2.7,0.05 2.7,0.05 2.7,0.05 c 0,-0.1 0,-0.1 0,-0.15 0.05,-0.25 0.1,-0.45 0.1,-0.6 l 0.05,-1.35 z"
           inkscape:connector-curvature="0"
           style="fill:#1b1c1c" />
        <path
           id="path3"
           d="m 3.05,-1.95 c 0.05,-0.05 0.1,0.2 0.1,0.35 -0.1,0.4 -0.3,0.25 -0.2,0.95 L 2.8,-0.25 C 2.95,-0.15 2.7,-0.1 2.7,-0.1 L 2.75,-0.15 2.7,-0.1 c 0,0.05 0,0.05 0,0.15 l 0.05,0.05 -0.1,0 C 2.7,0.05 2.65,0.2 2.6,0.3 2.75,0.6 2.95,1 3.15,1.7 3.35,2.4 3.5,2.85 3.8,3 4.65,3.45 5.5,4.7 6.65,4.55 7.1,4.55 8.2,4.1 8.5,4.35 8.9,4.65 9.15,4.5 9.6,4.55 9.5,4.85 9.3,5.15 9.25,5.45 L 9.95,5.35 9.55,6 C 10.2,5.7 11.1,4.85 11.5,3.85 c -0.1,0.4 -0.25,0.9 -0.65,1.55 -1,1 -2.4,1.75 -3.75,1.75 L 7.2,6.95 C 6.6,7.1 6,6.95 5.5,6.6 5.45,6.55 5.6,6.65 5.75,6.8 6.35,7.2 6.9,7.3 7.6,7.25 l -0.1,0.2 c 1.35,0 2.8,-0.75 3.7,-1.7 C 11.75,5.1 11.95,4.45 11.9,4 L 11.95,2.95 8.45,0.35 C 7.3,-0.5 4.4,-1.85 3.25,-1.9 c -0.05,0 -0.15,0 -0.2,-0.05 z"
           inkscape:connector-curvature="0"
           style="fill:#2f3030" />
        <path
           id="path6"
           d="M 2.75,0.1 2.7,0.05 c 0,0 0,0 -0.05,0.05 l 0.1,0"
           inkscape:connector-curvature="0"
           style="fill:#232424" />
      </g>
    </g>
  </g>
</svg>
