<?xml version="1.0" encoding="UTF-8" standalone="no"?>
<!-- Generator: flash2svg, http://dissentgraphics.com/tools/flash2svg -->

<svg
   xmlns:dc="http://purl.org/dc/elements/1.1/"
   xmlns:cc="http://creativecommons.org/ns#"
   xmlns:rdf="http://www.w3.org/1999/02/22-rdf-syntax-ns#"
   xmlns:svg="http://www.w3.org/2000/svg"
   xmlns="http://www.w3.org/2000/svg"
   xmlns:sodipodi="http://sodipodi.sourceforge.net/DTD/sodipodi-0.dtd"
   xmlns:inkscape="http://www.inkscape.org/namespaces/inkscape"
   id="AvatarAssets"
   image-rendering="auto"
   version="1.1"
   x="0px"
   y="0px"
   width="16.9547"
   height="14.653517"
   viewBox="0 0 16.9547 14.653517"
   inkscape:version="0.48.4 r9939"
   sodipodi:docname="AvatarAssets_backSleeveUpperRightD007.svg">
  <metadata
     id="metadata3261">
    <rdf:RDF>
      <cc:Work
         rdf:about="">
        <dc:format>image/svg+xml</dc:format>
        <dc:type
           rdf:resource="http://purl.org/dc/dcmitype/StillImage" />
      </cc:Work>
    </rdf:RDF>
  </metadata>
  <sodipodi:namedview
     pagecolor="#ffffff"
     bordercolor="#666666"
     borderopacity="1"
     objecttolerance="10"
     gridtolerance="10"
     guidetolerance="10"
     inkscape:pageopacity="0"
     inkscape:pageshadow="2"
     inkscape:window-width="640"
     inkscape:window-height="480"
     id="namedview3259"
     showgrid="false"
     fit-margin-top="0"
     fit-margin-left="0"
     fit-margin-right="0"
     fit-margin-bottom="0"
     inkscape:zoom="1.9032258"
     inkscape:cx="32.563986"
     inkscape:cy="-49.236505"
     inkscape:window-x="0"
     inkscape:window-y="0"
     inkscape:window-maximized="0"
     inkscape:current-layer="AvatarAssets" />
  <defs
     id="defs3239" />
  <g
     id="backSleeveUpperRightD8"
     overflow="visible"
     style="overflow:visible"
     transform="translate(0.56398621,1.8900217)">
    <g
       id="backSleeveUpperRightD007_0">
      <g
         id="element">
        <g
           id="drawingObject">
          <path
             id="path"
             d="M 14.591,4.726 Q 14.254,4.23 13.291,3.792 12.087,3.206 11.702,2.911 c 0,0 -3.226,-1.812 -5.248,-3.138 -2.023,-1.326 -4.623,-2.246 -5.923,-1.23 -1.251,1.015 -1.54,2.568 -0.288,4.053 1.251,1.435 2.888,4.466 4.429,5.698 1.541,1.232 2.937,2.415 4.526,3.496 1.637,1.131 3.9,1.254 5.393,0.486 1.492,-0.817 1.637,-3.369 1.781,-4.071 0.193,-0.652 -1.156,-2.536 -1.781,-3.479 z"
             inkscape:connector-curvature="0"
             style="fill:#b80e1f" />
        </g>
        <g
           id="group1">
          <g
             id="drawingObject1">
            <path
               id="path1"
               d="m 9.198,11.79 c 0.867,0.59 1.926,0.927 2.937,0.965 0.337,-0.504 0.674,-1.158 1.059,-1.962 1.06,-2.163 0.819,-4.81 0.337,-6.904 l -0.626,-0.293 0.049,0.4 c 0.577,2.993 -2.504,6.379 -3.9,7.696 l 0.144,0.098 z"
               inkscape:connector-curvature="0"
               style="fill:#382833" />
          </g>
          <g
             id="drawingObject2">
            <path
               id="path2"
               d="M 7.224,0.264 5.731,-0.669 5.105,1.289 C 4.576,2.895 3.324,4.61 2.457,5.67 2.939,6.364 3.468,7.058 3.998,7.652 4.383,7.197 5.057,6.339 6.068,4.677 7.08,2.965 7.272,1.313 7.224,0.264 z"
               inkscape:connector-curvature="0"
               style="fill:#382833" />
          </g>
          <g
             id="drawingObject3">
            <path
               id="path3"
               d="M 9.054,1.392 C 9.102,2.341 8.957,3.693 8.38,5.05 7.657,6.908 6.309,8.274 5.491,8.934 l 1.54,1.282 C 7.609,9.859 8.428,9.149 9.439,7.537 10.691,5.623 11.028,3.769 11.124,2.617 L 9.054,1.392 z"
               inkscape:connector-curvature="0"
               style="fill:#382833" />
          </g>
        </g>
        <g
           id="drawingObject4">
          <path
             id="path4"
             d="m 0.23,2.587 c 1.252,1.435 2.889,4.466 4.43,5.698 1.54,1.231 2.937,2.415 4.526,3.496 1.203,0.836 2.744,1.117 4.092,0.901 C 11.641,12.002 10.052,11.071 8.849,9.685 5.575,5.924 5.767,6.221 4.997,5.431 4.226,4.64 4.034,3.942 4.034,2.242 4.034,0.992 4.178,-0.46 3.986,-1.458 2.589,-1.941 1.338,-2.076 0.519,-1.466 q -0.963,0.811 -1.059,1.862 -0.145,1.102 0.77,2.191 z"
             inkscape:connector-curvature="0"
             style="fill:#000000;fill-opacity:0.08600003" />
        </g>
        <g
           id="drawingObject5">
          <path
             id="path5"
             d="M 2.204,0.214 C 2.06,-0.735 1.338,-1.176 0.471,-1.416 -0.733,-0.402 -0.974,1.151 0.23,2.587 1.482,4.022 3.119,7.053 4.66,8.285 6.2,9.516 7.597,10.7 9.186,11.781 c 0.625,0.443 1.396,0.733 2.118,0.875 C 10.197,11.819 8.512,10.539 7.356,9.403 5.575,7.674 3.937,6.543 3.36,5.65 Q 2.926,5.055 2.686,3.508 2.589,3.009 2.204,0.214 z"
             inkscape:connector-curvature="0"
             style="fill:#000000;fill-opacity:0.08600003" />
        </g>
        <g
           id="drawingObject6">
          <path
             id="path6"
             d="m 13.086,3.835 -0.145,0.151 -0.048,0.651 0.048,-0.651 c 0,0 -0.193,1.153 0.096,1.599 0.289,0.447 0.434,-0.655 0.434,-0.655 L 14.193,6.022 13.471,4.93 c 0,0 1.396,2.034 1.492,2.733 0.097,0.648 0.145,-0.152 0.145,-0.652 Q 15.06,6.611 14.674,5.816 14.289,4.971 13.952,4.575 C 12.989,3.436 12.941,3.986 12.941,3.986"
             inkscape:connector-curvature="0"
             style="fill:#000000;fill-opacity:0.2" />
        </g>
      </g>
    </g>
  </g>
</svg>
