<?xml version="1.0" encoding="UTF-8" standalone="no"?>
<!-- Generator: flash2svg, http://dissentgraphics.com/tools/flash2svg -->

<svg
   xmlns:dc="http://purl.org/dc/elements/1.1/"
   xmlns:cc="http://creativecommons.org/ns#"
   xmlns:rdf="http://www.w3.org/1999/02/22-rdf-syntax-ns#"
   xmlns:svg="http://www.w3.org/2000/svg"
   xmlns="http://www.w3.org/2000/svg"
   xmlns:sodipodi="http://sodipodi.sourceforge.net/DTD/sodipodi-0.dtd"
   xmlns:inkscape="http://www.inkscape.org/namespaces/inkscape"
   id="AvatarAssets"
   image-rendering="auto"
   version="1.1"
   x="0px"
   y="0px"
   width="19.826038"
   height="8.776886"
   viewBox="0 0 19.826038 8.776886"
   inkscape:version="0.48.4 r9939"
   sodipodi:docname="AvatarAssets_backSleeveUpperLeft20101122Blouse.svg">
  <metadata
     id="metadata3281">
    <rdf:RDF>
      <cc:Work
         rdf:about="">
        <dc:format>image/svg+xml</dc:format>
        <dc:type
           rdf:resource="http://purl.org/dc/dcmitype/StillImage" />
      </cc:Work>
    </rdf:RDF>
  </metadata>
  <sodipodi:namedview
     pagecolor="#ffffff"
     bordercolor="#666666"
     borderopacity="1"
     objecttolerance="10"
     gridtolerance="10"
     guidetolerance="10"
     inkscape:pageopacity="0"
     inkscape:pageshadow="2"
     inkscape:window-width="640"
     inkscape:window-height="480"
     id="namedview3279"
     showgrid="false"
     fit-margin-top="0"
     fit-margin-left="0"
     fit-margin-right="0"
     fit-margin-bottom="0"
     inkscape:zoom="1.9032258"
     inkscape:cx="41.921934"
     inkscape:cy="-57.610614"
     inkscape:window-x="0"
     inkscape:window-y="0"
     inkscape:window-maximized="0"
     inkscape:current-layer="AvatarAssets" />
  <defs
     id="defs3270" />
  <g
     id="backSleeveUpperLeft20101122Blouse1"
     overflow="visible"
     style="overflow:visible"
     transform="translate(9.9219337,4.3875)">
    <g
       id="backSleeveUpperLeft20101122Blouse_0">
      <g
         id="element">
        <path
           id="path"
           d="m 4.65,-4.35 -0.2,0 C 4.3,-4.1 4.25,-3.8 4.25,-3.3 4.2,-2.2 4.5,-0.1 3.65,0.6 c -0.85,0.7 -3,0.25 -4.1,0.55 -1.8,0.6 -3,0.95 -5,0.45 -1.4,-0.4 -3.25,-1.2 -2.8,-3.05 0.1,-0.4 0.5,-0.85 0.95,-1.25 l 0.2,-0.35 0,-0.05 c -0.35,0.2 -0.65,0.4 -0.9,0.65 -0.4,0.3 -0.75,0.6 -1,0.95 -0.4,1.3 -0.1,3.15 0.75,3.7 1.75,1.15 5.45,0.55 7.35,0.3 1.5,-0.2 4.7,-0.55 5.35,-1.65 0.9,-1.55 0.2,-3.4 0.2,-5.2 z"
           inkscape:connector-curvature="0"
           style="fill:#5e5e5e" />
        <path
           id="path1"
           d="m 4.45,-4.35 0.2,0 C 3.5,-4.4 2.45,-4.4 1.45,-4.3 q -2.9,0.2 -4.45,0.35 -2.9,0.25 -3.7,0.65 c -0.15,0.05 -0.25,0.15 -0.4,0.25 l -0.2,0.35 c -0.15,0.35 -0.1,0.75 0.1,1.2 0.55,1.3 2.1,1.05 3.45,1.05 1.2,0 2.4,0.05 3.5,-0.15 0.65,-0.15 3,-0.25 3.35,-0.75 C 3.75,-2.2 2.45,-3 2.4,-3.8 l 0.05,-0.55 c 0.65,-0.05 1.3,-0.05 2,0 z M -9,-1.5 c 0.25,-0.35 0.6,-0.65 1,-0.95 -0.45,0.3 -0.8,0.65 -1.1,1 -0.05,0.1 -0.1,0.2 -0.15,0.3 C -9.15,-1.3 -9.1,-1.4 -9,-1.5 z"
           inkscape:connector-curvature="0"
           style="fill:#858585" />
        <path
           id="path2"
           d="m 4.25,-3.3 c 0,-0.5 0.05,-0.8 0.2,-1.05 -0.7,-0.05 -1.35,-0.05 -2,0 L 2.4,-3.8 c 0.05,0.8 1.35,1.6 0.7,2.45 -0.35,0.5 -2.7,0.6 -3.35,0.75 -1.1,0.2 -2.3,0.15 -3.5,0.15 -1.35,0 -2.9,0.25 -3.45,-1.05 -0.2,-0.45 -0.25,-0.85 -0.1,-1.2 -0.45,0.4 -0.85,0.85 -0.95,1.25 -0.45,1.85 1.4,2.65 2.8,3.05 2,0.5 3.2,0.15 5,-0.45 C 0.65,0.85 2.8,1.3 3.65,0.6 4.5,-0.1 4.2,-2.2 4.25,-3.3 z"
           inkscape:connector-curvature="0"
           style="fill:#787878" />
        <path
           id="path3"
           d="m 4.7,-4.35 -0.05,0 c 0,1.8 0.7,3.65 -0.2,5.2 C 3.8,1.95 0.6,2.3 -0.9,2.5 -2.8,2.75 -6.5,3.35 -8.25,2.2 -9.1,1.65 -9.4,-0.2 -9,-1.5 c -0.1,0.1 -0.15,0.2 -0.25,0.35 -0.1,0.1 -0.15,0.2 -0.2,0.3 -0.55,0.9 -0.6,1.85 -0.25,2.9 1,2.85 4.15,2.5 7.3,2 3.2,-0.5 7,-0.65 9.2,-1.65 2.15,-1 3.5,-4.7 3,-5.5 C 9.65,-3.4 9.05,-3.65 8,-3.9 7.3,-4.05 6.5,-4.2 5.6,-4.25 l -0.9,-0.1 z"
           inkscape:connector-curvature="0"
           style="fill:#454545" />
      </g>
    </g>
  </g>
</svg>
