<?xml version="1.0" encoding="UTF-8" standalone="no"?>
<!-- Generator: flash2svg, http://dissentgraphics.com/tools/flash2svg -->

<svg
   xmlns:dc="http://purl.org/dc/elements/1.1/"
   xmlns:cc="http://creativecommons.org/ns#"
   xmlns:rdf="http://www.w3.org/1999/02/22-rdf-syntax-ns#"
   xmlns:svg="http://www.w3.org/2000/svg"
   xmlns="http://www.w3.org/2000/svg"
   xmlns:sodipodi="http://sodipodi.sourceforge.net/DTD/sodipodi-0.dtd"
   xmlns:inkscape="http://www.inkscape.org/namespaces/inkscape"
   id="AvatarAssets"
   image-rendering="auto"
   version="1.1"
   x="0px"
   y="0px"
   width="12.59199"
   height="9.6000004"
   viewBox="0 0 12.59199 9.6000004"
   inkscape:version="0.48.4 r9939"
   sodipodi:docname="AvatarAssets_backSleeveUpperLeftA005.svg">
  <metadata
     id="metadata3071">
    <rdf:RDF>
      <cc:Work
         rdf:about="">
        <dc:format>image/svg+xml</dc:format>
        <dc:type
           rdf:resource="http://purl.org/dc/dcmitype/StillImage" />
      </cc:Work>
    </rdf:RDF>
  </metadata>
  <sodipodi:namedview
     pagecolor="#ffffff"
     bordercolor="#666666"
     borderopacity="1"
     objecttolerance="10"
     gridtolerance="10"
     guidetolerance="10"
     inkscape:pageopacity="0"
     inkscape:pageshadow="2"
     inkscape:window-width="640"
     inkscape:window-height="480"
     id="namedview3069"
     showgrid="false"
     fit-margin-top="0"
     fit-margin-left="0"
     fit-margin-right="0"
     fit-margin-bottom="0"
     inkscape:zoom="1.9032258"
     inkscape:cx="43.25349"
     inkscape:cy="-55.899"
     inkscape:window-x="0"
     inkscape:window-y="0"
     inkscape:window-maximized="0"
     inkscape:current-layer="AvatarAssets" />
  <defs
     id="defs3050" />
  <g
     id="backSleeveUpperLeftA6"
     overflow="visible"
     style="overflow:visible"
     transform="translate(11.25349,3.499)">
    <g
       id="backSleeveUpperLeftA005_0">
      <g
         id="element">
        <g
           id="drawingObject">
          <path
             id="path"
             d="m 1.001,1.551 c 0.9,-1.6 -0.25,-3.15 -1.25,-3.75 -1,-0.65 -4.15,-1.3 -5.6,-1.3 l -4.3,0.1 -0.6,0.85 c -0.4,0.5 -0.7,1.65 -0.35,4.75 0.3,3.1 2.35,3.9 2.35,3.9 0,0 0.95,-0.45 2,-0.75 1.05,-0.3 2.8,-0.8 4.65,-1.55 q 2.3,-0.95 3.1,-2.25 z"
             inkscape:connector-curvature="0"
             style="fill:#55a6e0" />
        </g>
        <g
           id="drawingObject1">
          <path
             id="path1"
             d="m 1.001,1.551 c 0.9,-1.6 -0.25,-3.15 -1.25,-3.75 q -0.25,-0.2 -0.8,-0.35 l -0.2,0.1 c -1.45,0.75 -2.6,2.8 -2.8,2.8 l 0.95,-1.1 -0.95,1.1 c -0.25,0 -1.05,0.55 -2.4,1.4 -1.4,0.85 -2.1,0.85 -3.45,-1 -0.8,-1.15 -0.7,-2.8 -0.5,-3.85 l -0.35,0.55 c -0.4,0.5 -0.7,1.65 -0.35,4.75 0.3,3.1 2.35,3.9 2.35,3.9 0,0 0.95,-0.45 2,-0.75 1.05,-0.3 2.8,-0.8 4.65,-1.55 1.85,-0.75 2.55,-1.35 3.1,-2.25 z"
             inkscape:connector-curvature="0"
             style="fill:#4c95c9" />
        </g>
        <g
           id="drawingObject2">
          <path
             id="path2"
             d="m 0.401,-1.699 -0.15,0.05 c -0.95,0.5 -2.4,2.7 -2.95,3.45 -0.5,0.8 -1.85,1 -3.4,1.95 -1.55,0.9 -1.25,0.2 -3.2,0 -1.05,-0.15 -1.45,-0.5 -1.75,-1.2 0.45,2.8 2.3,3.55 2.3,3.55 0,0 0.95,-0.45 2,-0.75 1.05,-0.3 2.8,-0.8 4.65,-1.55 1.85,-0.75 2.55,-1.35 3.1,-2.25 q 0.9,-1.65 -0.6,-3.25 z"
             inkscape:connector-curvature="0"
             style="fill:#397097" />
        </g>
        <g
           id="drawingObject3">
          <path
             id="path3"
             d="m -4.149,-1.249 -0.5,-0.4 0.45,-0.1 -0.45,0.1 c 0,0 1.05,0.05 0.25,-1.1 -0.85,-1.15 -1.7,-0.5 -2.3,0.05 0,0 -0.45,-0.65 -1.6,-0.55 -1.15,0.1 -1.3,1.1 -0.75,1.1 l 0.5,0.05 c 0,0 -1.4,0.7 -0.65,1.6 0.8,0.9 2.5,-0.25 2.5,-0.25 l -0.25,0.6 0.25,-0.6 c 0,0 -0.95,1.2 0.85,1.1 1.8,-0.1 2.15,-1.25 1.7,-1.6 z m -1.4,-0.75 -0.75,0.2 c 0,0 1.15,0.45 0.95,0.75 q -0.15,0.2 -0.55,0.2 -0.35,0.05 -0.45,-0.15 l -0.35,-0.55 c 0,0 -0.7,0.65 -1.1,0.55 -0.4,-0.1 -0.15,-0.6 0.25,-0.75 0.35,-0.1 0.4,-0.2 0.4,-0.2 l -0.75,-0.45 c 0,-0.05 0.45,-0.3 0.8,-0.05 0.35,0.25 0.4,0.4 0.4,0.4 l 0.45,-0.25 -0.45,0.25 c 0,0 0.8,-0.5 1.15,-0.35 0.35,0.15 0.3,0.3 0,0.4 z"
             inkscape:connector-curvature="0"
             style="fill:#c6e0f2" />
        </g>
        <g
           id="drawingObject4">
          <path
             id="path7"
             d="m -5.549,-1.999 c 0.3,-0.1 0.35,-0.25 0,-0.4 q -0.2,-0.1 -0.7,0.1 l -0.45,0.25 c 0,0 -0.05,-0.15 -0.4,-0.4 -0.35,-0.25 -0.8,0 -0.8,0.05 l 0.75,0.45 c 0,0 -0.05,0.1 -0.4,0.2 -0.4,0.15 -0.65,0.65 -0.25,0.75 0.4,0.1 1.1,-0.55 1.1,-0.55 l 0.35,0.55 c 0.1,0.25 0.8,0.2 1,-0.05 0.2,-0.3 -0.95,-0.75 -0.95,-0.75 l 0.75,-0.2 z"
             inkscape:connector-curvature="0"
             style="fill:#55a6e0" />
        </g>
        <g
           id="drawingObject5">
          <path
             id="path8"
             d="m -4.999,1.301 0.05,0.35 c 0,0 -1,-0.75 -1.85,0 -0.85,0.75 0.65,1.6 0.65,1.6 0,0 -1.5,-0.35 -1.05,0.8 0.4,1.15 1.7,1.1 2.05,0.7 l 0.35,-0.45 0.2,0.25 -0.2,-0.25 c 0,0 0.1,0.75 1.2,-0.1 1.1,-0.85 0.3,-1.25 -0.45,-1.5 0,0 0.7,-0.5 0.4,-1.2 -0.35,-0.7 -1.4,-0.6 -1.35,-0.2 z m 0.65,1.2 c -0.2,0.3 -0.35,0.35 -0.35,0.35 0,0 0.65,0.4 0.55,0.7 -0.1,0.25 -0.25,0.25 -0.45,0.1 l -0.3,-0.45 c 0,0 -0.35,0.9 -0.7,0.85 q -0.25,-0.05 -0.3,-0.3 -0.1,-0.25 0.1,-0.35 l 0.55,-0.4 c 0,0 -0.85,-0.25 -0.8,-0.55 0.05,-0.3 0.65,-0.3 0.85,-0.05 l 0.25,0.2 0.4,-0.6 c 0.1,-0.05 0.4,0.2 0.2,0.5 z"
             inkscape:connector-curvature="0"
             style="fill:#8597a3" />
        </g>
        <g
           id="drawingObject6">
          <path
             id="path12"
             d="m -6.049,2.451 c 0.05,-0.3 0.65,-0.3 0.85,-0.05 l 0.25,0.2 0.4,-0.6 c 0.1,-0.05 0.4,0.2 0.2,0.5 -0.2,0.3 -0.35,0.35 -0.35,0.35 l 0.4,0.3 0.6,-0.3 -0.35,-0.15 c 0,0 0.7,-0.5 0.4,-1.2 -0.35,-0.7 -1.4,-0.6 -1.35,-0.2 l 0.05,0.35 c 0,0 -1,-0.75 -1.85,0 -0.85,0.75 0.65,1.6 0.65,1.6 0,0 -1.5,-0.35 -1.05,0.8 l 0.05,0.1 0.7,-0.1 0.55,-0.2 0.05,0 c -0.1,-0.2 -0.1,-0.4 0.05,-0.45 l 0.55,-0.4 c 0,0 -0.85,-0.25 -0.8,-0.55 z"
             inkscape:connector-curvature="0"
             style="fill:#b2c9d9" />
        </g>
      </g>
    </g>
  </g>
</svg>
