<?xml version="1.0" encoding="UTF-8" standalone="no"?>
<!-- Generator: flash2svg, http://dissentgraphics.com/tools/flash2svg -->

<svg
   xmlns:dc="http://purl.org/dc/elements/1.1/"
   xmlns:cc="http://creativecommons.org/ns#"
   xmlns:rdf="http://www.w3.org/1999/02/22-rdf-syntax-ns#"
   xmlns:svg="http://www.w3.org/2000/svg"
   xmlns="http://www.w3.org/2000/svg"
   xmlns:sodipodi="http://sodipodi.sourceforge.net/DTD/sodipodi-0.dtd"
   xmlns:inkscape="http://www.inkscape.org/namespaces/inkscape"
   id="AvatarAssets"
   image-rendering="auto"
   version="1.1"
   x="0px"
   y="0px"
   width="12.62959"
   height="9.5500002"
   viewBox="0 0 12.62959 9.5500002"
   inkscape:version="0.48.4 r9939"
   sodipodi:docname="AvatarAssets_backSleeveUpperLeftA002b.svg">
  <metadata
     id="metadata3031">
    <rdf:RDF>
      <cc:Work
         rdf:about="">
        <dc:format>image/svg+xml</dc:format>
        <dc:type
           rdf:resource="http://purl.org/dc/dcmitype/StillImage" />
      </cc:Work>
    </rdf:RDF>
  </metadata>
  <sodipodi:namedview
     pagecolor="#ffffff"
     bordercolor="#666666"
     borderopacity="1"
     objecttolerance="10"
     gridtolerance="10"
     guidetolerance="10"
     inkscape:pageopacity="0"
     inkscape:pageshadow="2"
     inkscape:window-width="640"
     inkscape:window-height="480"
     id="namedview3029"
     showgrid="false"
     fit-margin-top="0"
     fit-margin-left="0"
     fit-margin-right="0"
     fit-margin-bottom="0"
     inkscape:zoom="1.9032258"
     inkscape:cx="43.293975"
     inkscape:cy="-55.899"
     inkscape:window-x="0"
     inkscape:window-y="0"
     inkscape:window-maximized="0"
     inkscape:current-layer="AvatarAssets" />
  <defs
     id="defs3018" />
  <g
     id="backSleeveUpperLeftA002b1"
     overflow="visible"
     style="overflow:visible"
     transform="translate(11.293975,3.449)">
    <g
       id="backSleeveUpperLeftA002b_0">
      <g
         id="element">
        <g
           id="drawingObject">
          <path
             id="path"
             d="m 0.951,1.601 c 0.95,-1.6 -0.25,-3.2 -1.25,-3.8 -1,-0.6 -4.1,-1.25 -5.55,-1.25 l -4.35,0.1 -0.6,0.8 c -0.35,0.55 -0.7,1.65 -0.35,4.75 0.35,3.15 2.35,3.9 2.35,3.9 l 2.05,-0.7 c 1.05,-0.3 2.75,-0.85 4.6,-1.55 q 2.3,-0.95 3.1,-2.25 z"
             inkscape:connector-curvature="0"
             style="fill:#f6a7bd" />
        </g>
        <g
           id="drawingObject1">
          <path
             id="path1"
             d="m 0.951,1.601 c 0.95,-1.6 -0.25,-3.2 -1.25,-3.8 l -0.75,-0.35 -0.25,0.1 c -1.45,0.75 -2.6,2.85 -2.8,2.85 l 0.95,-1.15 -0.95,1.15 c -0.2,0 -1,0.5 -2.4,1.35 -1.4,0.85 -2.1,0.85 -3.4,-1 -0.85,-1.15 -0.7,-2.75 -0.5,-3.8 l -0.4,0.5 c -0.35,0.55 -0.7,1.65 -0.35,4.75 0.35,3.15 2.35,3.9 2.35,3.9 l 2.05,-0.7 c 1.05,-0.3 2.75,-0.85 4.6,-1.55 1.85,-0.75 2.55,-1.35 3.1,-2.25 z"
             inkscape:connector-curvature="0"
             style="fill:#d8869d" />
        </g>
        <g
           id="drawingObject2">
          <path
             id="path2"
             d="m -2.149,3.851 c 1.85,-0.75 2.55,-1.35 3.1,-2.25 q 1,-1.65 -0.6,-3.25 l -0.15,0.05 c -0.95,0.45 -2.4,2.65 -2.9,3.45 -0.55,0.75 -1.9,1 -3.45,1.9 -1.5,0.95 -1.2,0.25 -3.2,0 -1.05,-0.1 -1.4,-0.5 -1.75,-1.2 0.45,2.85 2.3,3.55 2.3,3.55 l 2.05,-0.7 c 1.05,-0.3 2.75,-0.85 4.6,-1.55 z"
             inkscape:connector-curvature="0"
             style="fill:#c17187" />
        </g>
      </g>
    </g>
  </g>
</svg>
