<?xml version="1.0" encoding="UTF-8" standalone="no"?>
<!-- Generator: flash2svg, http://dissentgraphics.com/tools/flash2svg -->

<svg
   xmlns:dc="http://purl.org/dc/elements/1.1/"
   xmlns:cc="http://creativecommons.org/ns#"
   xmlns:rdf="http://www.w3.org/1999/02/22-rdf-syntax-ns#"
   xmlns:svg="http://www.w3.org/2000/svg"
   xmlns="http://www.w3.org/2000/svg"
   xmlns:sodipodi="http://sodipodi.sourceforge.net/DTD/sodipodi-0.dtd"
   xmlns:inkscape="http://www.inkscape.org/namespaces/inkscape"
   id="AvatarAssets"
   image-rendering="auto"
   version="1.1"
   x="0px"
   y="0px"
   width="14.250681"
   height="14.353678"
   viewBox="0 0 14.250681 14.353678"
   inkscape:version="0.48.4 r9939"
   sodipodi:docname="AvatarAssets_backCoatSleeveLowerLeftC006.svg">
  <metadata
     id="metadata32">
    <rdf:RDF>
      <cc:Work
         rdf:about="">
        <dc:format>image/svg+xml</dc:format>
        <dc:type
           rdf:resource="http://purl.org/dc/dcmitype/StillImage" />
      </cc:Work>
    </rdf:RDF>
  </metadata>
  <sodipodi:namedview
     pagecolor="#ffffff"
     bordercolor="#666666"
     borderopacity="1"
     objecttolerance="10"
     gridtolerance="10"
     guidetolerance="10"
     inkscape:pageopacity="0"
     inkscape:pageshadow="2"
     inkscape:window-width="640"
     inkscape:window-height="480"
     id="namedview30"
     showgrid="false"
     fit-margin-top="0"
     fit-margin-left="0"
     fit-margin-right="0"
     fit-margin-bottom="0"
     inkscape:zoom="8.1883493"
     inkscape:cx="6.8824873"
     inkscape:cy="10.712954"
     inkscape:window-x="1221"
     inkscape:window-y="393"
     inkscape:window-maximized="0"
     inkscape:current-layer="AvatarAssets" />
  <defs
     id="defs3" />
  <g
     id="backCoatSleeveLowerLeftC7"
     overflow="visible"
     style="overflow:visible"
     transform="translate(10.910974,12.103916)">
    <g
       id="backCoatSleeveLowerLeftC006_0">
      <g
         id="element">
        <g
           id="drawingObject">
          <path
             id="path"
             d="m -0.08,-7.965 c -0.594,-0.507 -1.639,-0.92 -1.639,-0.92 l 0.597,0.258 -0.597,-0.258 c 0,0 -5.963,1.077 -6.131,2.475 q -0.382,2.645 -0.143,3.498 c 0.193,0.603 0.488,1.006 0.488,1.006 l 2.33,1.629 c 0.247,0.253 0.892,0.611 1.489,0.919 0.595,0.357 1.583,1.369 2.731,1.533 C 0.192,2.39 3.543,2.331 3.33,-0.672 3.117,-3.675 0.637,-5.256 0.547,-6.107 0.508,-6.957 0.514,-7.457 -0.08,-7.965 z"
             inkscape:connector-curvature="0"
             style="fill:#8a131b" />
        </g>
        <g
           id="drawingObject1">
          <path
             id="path1"
             d="M -0.08,-7.965 C -0.525,-8.32 -1.172,-8.628 -1.52,-8.782 l -4.865,1.19 c -0.804,0.34 -1.41,0.782 -1.465,1.182 -0.164,1.198 -0.286,2.946 -0.143,3.498 0.193,0.603 0.488,1.006 0.488,1.006 l 2.33,1.629 c 0.247,0.253 0.892,0.611 1.489,0.919 0.595,0.357 1.583,1.369 2.731,1.533 C 0.192,2.39 3.543,2.331 3.33,-0.672 3.116,-3.525 0.935,-5.102 0.595,-5.956 q -1.346,-0.267 -3.114,1.162 l -1.519,1.481 c 0,0 -0.103,0.299 -0.096,-0.301 l 0.424,-1.895 -0.655,0.392 c -0.656,0.442 -1.167,1.335 -1.167,1.335 l 0.356,-0.495 -0.356,0.495 c 0,0 0.015,-1.199 0.525,-1.993 0.664,-1.142 2.271,-1.722 3.775,-2.054 l 1.202,-0.085 -0.05,-0.051 z"
             inkscape:connector-curvature="0"
             style="fill:#721016" />
        </g>
        <g
           id="drawingObject2">
          <path
             id="path2"
             d="M -0.08,-7.965 C -0.525,-8.32 -1.172,-8.628 -1.52,-8.782 l -4.865,1.19 c -0.804,0.34 -1.41,0.782 -1.465,1.182 -0.164,1.198 -0.286,2.946 -0.143,3.498 0.193,0.603 0.488,1.006 0.488,1.006 l 2.33,1.629 c 0.247,0.253 0.892,0.611 1.489,0.919 0.595,0.357 1.583,1.369 2.731,1.533 C 0.192,2.39 3.543,2.331 3.33,-0.672 Q 3.202,-2.424 2.022,-4.038 0.79,-5.504 0.595,-5.956 c -0.699,-0.009 -1.301,0.134 -1.804,0.328 l -0.604,0.342 c -1.463,1.032 -1.336,2.934 -1.336,2.934 L -2.954,-2 -3.149,-2.352 c 0,0 0.242,0.653 0.689,0.859 0.447,0.255 0.575,2.007 -0.075,1.999 -0.649,-0.008 -1.446,-0.268 -1.593,-0.52 -0.147,-0.252 -1.39,-0.817 -1.785,-1.272 -0.445,-0.406 -0.937,-1.062 -0.976,-1.962 0.012,-0.9 0.429,-2.295 2.749,-3.917 2.32,-1.571 4.06,-0.8 4.06,-0.8 z"
             inkscape:connector-curvature="0"
             style="fill:#510b0f" />
        </g>
        <g
           id="drawingObject3">
          <path
             id="path3"
             d="m -0.798,-10.574 c -0.243,-0.553 0.115,-1.148 -1.132,-1.414 q -0.799,-0.11 -1.95,-0.024 -2.252,0.172 -3.816,1.303 c -2.523,1.819 -2.13,2.374 -2.648,3.868 -0.519,1.494 -0.768,1.39 -0.372,1.745 l 0.939,0.862 c 0.247,0.253 0.537,1.057 0.98,1.662 0.393,0.605 1.292,0.666 1.292,0.666 0,0 -0.477,-1.906 1.298,-3.884 1.521,-1.681 3.479,-2.307 4.53,-2.444 1.102,-0.137 1.597,0.269 1.597,0.269 0,0 0.01,-0.8 -0.136,-1.151 -0.195,-0.353 -0.339,-0.855 -0.582,-1.458 z"
             inkscape:connector-curvature="0"
             style="fill:#364c8e" />
        </g>
        <g
           id="drawingObject4">
          <path
             id="path4"
             d="m -1.677,-8.234 c 1.102,-0.137 1.597,0.269 1.597,0.269 0,0 0.01,-0.8 -0.136,-1.151 -0.195,-0.353 -0.339,-0.855 -0.582,-1.458 l -0.095,-0.401 c -0.447,-0.205 -1.045,-0.413 -1.844,-0.473 -1.999,-0.124 -3.963,1.052 -4.974,1.939 -1.011,0.838 -1.174,1.886 -1.329,2.334 -0.205,0.397 -0.222,1.747 -0.222,1.747 l 0.156,-0.498 c 0.157,-0.548 0.965,-1.188 0.965,-1.188 L -8.4,-6.417 -8.619,-4.87 -7.85,-6.41 c 0.716,-1.242 2.721,-1.617 2.721,-1.617 0,0 -0.302,0.146 -0.858,0.59 -0.605,0.442 -1.572,1.78 -1.791,3.328 -0.06,0.799 0.03,1.6 0.123,2.201 l 0.15,0.002 c 0,0 -0.477,-1.906 1.298,-3.884 q 1.926,-2.076 4.53,-2.444 z"
             inkscape:connector-curvature="0"
             style="fill:#2a3b6e" />
        </g>
        <g
           id="drawingObject5">
          <path
             id="path5"
             d="m -5.008,-9.776 -0.603,0.243 c 0,0 0.907,-0.539 2.104,-0.324 l 1.396,0.317 c 0.249,0.153 1.145,0.414 0.744,0.509 -0.352,0.146 -4.315,1.197 -4.993,3.439 l 0.153,-0.198 c 1.521,-1.681 3.479,-2.307 4.53,-2.444 1.102,-0.137 1.597,0.269 1.597,0.269 q 0.01,-0.8 -0.136,-1.151 c -0.195,-0.353 -0.339,-0.855 -0.582,-1.458 l -0.095,-0.401 c -0.447,-0.205 -1.045,-0.413 -1.844,-0.473 -1.249,-0.065 -2.455,0.37 -3.411,0.858 0.551,-0.043 2.104,-0.274 2.801,-0.065 l 0.848,0.21 c 0,0 -1.751,0.029 -2.456,0.47 l -0.656,0.442"
             inkscape:connector-curvature="0"
             style="fill:#202d55" />
        </g>
        <g
           id="drawingObject6">
          <path
             id="path6"
             d="m -2.58,-12.046 c 0,0 -2.294,-0.428 -4.663,1.043 -2.418,1.47 -2.327,2.171 -2.584,2.768 -0.257,0.547 -0.164,1.098 0.24,0.803 q 0.005,-0.4 0.211,-0.897 0.364,-1.096 1.423,-1.833 c 1.615,-1.23 3.221,-1.71 4.072,-1.8 0.902,-0.139 1.301,-0.084 1.301,-0.084 z"
             inkscape:connector-curvature="0"
             style="fill:#6381da" />
        </g>
        <g
           id="drawingObject7">
          <path
             id="path7"
             d="m -7.908,-5.761 c 1.121,-1.686 2.578,-2.218 2.578,-2.218 0,0 -0.701,0.091 -1.557,0.58 q -0.555,0.344 -0.965,1.189 -0.464,1.094 -0.056,0.449 z"
             inkscape:connector-curvature="0"
             style="fill:#6381da" />
        </g>
        <g
           id="drawingObject8">
          <path
             id="path8"
             d="m -9.218,-4.927 c -0.164,1.098 0.733,1.359 1.035,1.263 0.301,-0.097 0.957,-0.638 0.52,-1.644 q -0.341,-0.704 -0.946,-0.362 -0.553,0.294 -0.609,0.743 z"
             inkscape:connector-curvature="0"
             style="fill:#bb8b36" />
        </g>
        <g
           id="drawingObject9">
          <path
             id="path9"
             d="m -9.172,-4.577 c 0.188,0.953 0.891,0.712 0.942,0.612 0.101,-0.049 0.606,-0.442 0.217,-1.347 q -0.293,-0.604 -0.748,-0.16 -0.505,0.394 -0.411,0.895 z"
             inkscape:connector-curvature="0"
             style="fill:#fcbb49" />
        </g>
        <g
           id="drawingObject10">
          <path
             id="path10"
             d="m -8.974,-4.474 c 0.194,0.552 0.55,0.007 0.354,-0.246 q -0.098,-0.201 -0.25,-0.053 -0.151,0.098 -0.104,0.299 z"
             inkscape:connector-curvature="0"
             style="fill:#fde2ac" />
        </g>
      </g>
    </g>
  </g>
</svg>
