<?xml version="1.0" encoding="UTF-8" standalone="no"?>
<!-- Generator: flash2svg, http://dissentgraphics.com/tools/flash2svg -->

<svg
   xmlns:dc="http://purl.org/dc/elements/1.1/"
   xmlns:cc="http://creativecommons.org/ns#"
   xmlns:rdf="http://www.w3.org/1999/02/22-rdf-syntax-ns#"
   xmlns:svg="http://www.w3.org/2000/svg"
   xmlns="http://www.w3.org/2000/svg"
   xmlns:sodipodi="http://sodipodi.sourceforge.net/DTD/sodipodi-0.dtd"
   xmlns:inkscape="http://www.inkscape.org/namespaces/inkscape"
   id="AvatarAssets"
   image-rendering="auto"
   version="1.1"
   x="0px"
   y="0px"
   width="19.196058"
   height="9.4262552"
   viewBox="0 0 19.196058 9.4262552"
   inkscape:version="0.48.4 r9939"
   sodipodi:docname="AvatarAssets_backHoodieSleeveUpperLeft20101122.svg">
  <metadata
     id="metadata3023">
    <rdf:RDF>
      <cc:Work
         rdf:about="">
        <dc:format>image/svg+xml</dc:format>
        <dc:type
           rdf:resource="http://purl.org/dc/dcmitype/StillImage" />
      </cc:Work>
    </rdf:RDF>
  </metadata>
  <sodipodi:namedview
     pagecolor="#ffffff"
     bordercolor="#666666"
     borderopacity="1"
     objecttolerance="10"
     gridtolerance="10"
     guidetolerance="10"
     inkscape:pageopacity="0"
     inkscape:pageshadow="2"
     inkscape:window-width="640"
     inkscape:window-height="480"
     id="namedview3021"
     showgrid="false"
     fit-margin-top="0"
     fit-margin-left="0"
     fit-margin-right="0"
     fit-margin-bottom="0"
     inkscape:zoom="1.9032258"
     inkscape:cx="50.322222"
     inkscape:cy="-56.1"
     inkscape:window-x="0"
     inkscape:window-y="0"
     inkscape:window-maximized="0"
     inkscape:current-layer="AvatarAssets" />
  <defs
     id="defs3010" />
  <g
     id="backHoodieSleeveUpperLeft20101123"
     overflow="visible"
     style="overflow:visible"
     transform="translate(18.322222,3.5262551)">
    <g
       id="backHoodieSleeveUpperLeft20101122_0">
      <g
         id="element">
        <path
           id="path"
           d="m 0.7,-0.35 c -0.05,-0.6 -0.2,-1.2 -0.5,-1.7 l -0.4,-0.3 C -0.75,-2.7 -1.3,-2.95 -2,-2.9 c -0.45,0.05 -1.35,0.2 -1.65,0.65 -0.2,0.3 -0.25,1.15 -0.4,1.55 l -0.2,0.65 -0.25,0.75 0,0.1 c -0.05,0.3 -0.05,0.7 -0.15,0.95 -0.15,0.35 -0.5,0.6 -1.1,0.8 l -3.4,0.85 c -0.5,0.05 -0.8,0.35 -1.3,0.45 -1.45,0.35 -3.3,0.1 -4.8,0 -1.7,-0.1 -2.65,-0.75 -2.95,-2.15 0,0.05 0,0.1 -0.05,0.15 0,0.05 0,0.1 0,0.15 -0.05,0.1 -0.05,0.15 -0.05,0.2 0,0.1 -0.05,0.25 0,0.4 0,0.15 0,0.3 0.05,0.45 0.05,0.2 0.05,0.35 0.15,0.55 0.7,0.45 1.75,0.55 2.25,0.6 1.3,0.05 2.45,0.5 3.7,0.5 1.65,0 3.4,0.2 4.95,-0.3 0.7,-0.25 1.8,-0.7 2.15,-1.35 0.45,-0.7 0.45,-1.8 0.95,-2.5 0.55,-0.85 1.85,-1.5 2.75,-1.9 0.75,-0.35 1.25,-0.1 1.7,0.45 l 0.35,0.55 z"
           inkscape:connector-curvature="0"
           style="fill:#4f4f4f" />
        <path
           id="path1"
           d="m 0.2,-2.05 c 0.3,0.5 0.45,1.1 0.5,1.7 0.05,0.5 0.05,1 0,1.5 -0.1,1.05 -0.4,1.7 -0.8,2 0.9,-0.65 1.2,-2 0.8,-3.95 -0.45,-2.15 -1.65,-3 -3.65,-2.65 0.6,-0.1 1.1,-0.1 1.55,0.05 l 0.7,0.35 c 0.35,0.25 0.7,0.6 0.9,1 z m -16.25,0.3 c -0.3,0.2 -0.55,0.55 -0.85,0.85 0.6,-0.85 1.6,-1.5 2.35,-1.55 1.8,-0.2 3.85,-0.35 5.95,-0.35 q 1.95,0 5.2,-0.55 l -0.1,0.05 c -0.75,1 -0.85,1.55 -2.2,1.9 -0.45,0.1 -1.35,0.05 -1.1,0.7 0.1,0.25 0.45,0 0.4,0.45 0,0.25 -0.1,0.25 -0.25,0.4 -0.75,0.6 -2.5,0.4 -3.4,0.4 -0.45,0 -0.85,0 -1.25,0.15 -1.1,0.4 -2.05,0.4 -3.2,0.3 -1.15,-0.15 -2.6,0.2 -2.25,-1.45 0,-0.45 0.3,-0.9 0.7,-1.3 z M -16.4,5.3 c -0.75,-0.35 -1.3,-0.85 -1.7,-1.7 0.35,0.85 1,1.45 2,1.8 0,0 -0.15,-0.05 -0.3,-0.1 z"
           inkscape:connector-curvature="0"
           style="fill:#858585" />
        <path
           id="path2"
           d="M 0.7,-0.35 0.35,-0.9 c -0.45,-0.55 -0.95,-0.8 -1.7,-0.45 -0.9,0.4 -2.2,1.05 -2.75,1.9 -0.5,0.7 -0.5,1.8 -0.95,2.5 -0.35,0.65 -1.45,1.1 -2.15,1.35 -1.55,0.5 -3.3,0.3 -4.95,0.3 -1.25,0 -2.4,-0.45 -3.7,-0.5 -0.5,-0.05 -1.55,-0.15 -2.25,-0.6 0.35,0.85 1,1.45 2,1.8 0.2,0.05 0.45,0.1 0.7,0.2 l 2.85,0.3 c 0.05,0 0.15,0 0.15,0 0.25,0 0.5,0 0.75,0 4.35,0 9.8,-1.7 11.45,-2.7 0.05,-0.05 0.05,-0.05 0.1,-0.05 0.4,-0.3 0.7,-0.95 0.8,-2 0.05,-0.5 0.05,-1 0,-1.5 z"
           inkscape:connector-curvature="0"
           style="fill:#3b3b3b" />
        <path
           id="path3"
           d="m -16.75,-0.45 c 0,-0.45 0.3,-0.9 0.7,-1.3 -0.3,0.2 -0.55,0.55 -0.85,0.85 l -0.25,0.35 c 0,0 0,0 -0.1,0.1 l -0.05,0.1 c -0.1,0.1 -0.2,0.25 -0.3,0.45 -0.05,0.2 -0.05,0.35 0,0.55 0.15,1.4 1.9,1.45 3.05,1.55 0.95,0.05 1.8,0.35 2.75,0.4 l 1.7,0.05 C -9.35,2.6 -8.7,2.2 -8,2.05 -6.65,1.85 -5.85,2.3 -4.9,1.3 l 0.4,-0.5 0,-0.1 0.25,-0.75 0.05,-0.7 c -0.05,-0.3 0,-0.8 0.05,-1.1 0.2,-0.95 1.35,-1.35 2.2,-1.55 l 0.55,0 c -0.45,-0.15 -0.95,-0.15 -1.55,-0.05 l -0.45,0.05 0,0.05 -0.1,0.05 c -0.75,1 -0.85,1.55 -2.2,1.9 -0.45,0.1 -1.35,0.05 -1.1,0.7 0.1,0.25 0.45,0 0.4,0.45 0,0.25 -0.1,0.25 -0.25,0.4 -0.75,0.6 -2.5,0.4 -3.4,0.4 -0.45,0 -0.85,0 -1.25,0.15 -1.1,0.4 -2.05,0.4 -3.2,0.3 -1.15,-0.15 -2.6,0.2 -2.25,-1.45 z m 16.05,-2.6 c 0.15,0.15 0.35,0.4 0.5,0.7 l 0.4,0.3 c -0.2,-0.4 -0.55,-0.75 -0.9,-1 z"
           inkscape:connector-curvature="0"
           style="fill:#787878" />
        <path
           id="path7"
           d="m -1.4,-3.4 -0.55,0 c -0.85,0.2 -2,0.6 -2.2,1.55 -0.05,0.3 -0.1,0.8 -0.05,1.1 l -0.05,0.7 0.2,-0.65 c 0.15,-0.4 0.2,-1.25 0.4,-1.55 0.3,-0.45 1.2,-0.6 1.65,-0.65 0.7,-0.05 1.25,0.2 1.8,0.55 -0.15,-0.3 -0.35,-0.55 -0.5,-0.7 L -1.4,-3.4 z M -4.5,0.8 -4.9,1.3 C -5.85,2.3 -6.65,1.85 -8,2.05 -8.7,2.2 -9.35,2.6 -10.1,2.65 L -11.8,2.6 c -0.95,-0.05 -1.8,-0.35 -2.75,-0.4 -1.15,-0.1 -2.9,-0.15 -3.05,-1.55 -0.05,-0.2 -0.05,-0.35 0,-0.55 l -0.325,0.625 0.025,0.025 c -0.15,0.35 -0.25,0.65 -0.3,0.95 0.3,1.4 1.25,2.05 2.95,2.15 1.5,0.1 3.35,0.35 4.8,0 0.5,-0.1 0.8,-0.4 1.3,-0.45 l 3.4,-0.85 c 0.6,-0.2 0.95,-0.45 1.1,-0.8 0.1,-0.25 0.1,-0.65 0.15,-0.95 z"
           inkscape:connector-curvature="0"
           style="fill:#666666" />
        <path
           id="path12"
           d="m -18.2,1.7 c 0.05,-0.3 0.15,-0.6 0.3,-0.95 -0.2,0.35 -0.3,0.75 -0.35,1.1 0.05,-0.05 0.05,-0.1 0.05,-0.15"
           inkscape:connector-curvature="0"
           style="fill:#858585" />
      </g>
    </g>
  </g>
</svg>
