<?xml version="1.0" encoding="UTF-8" standalone="no"?>
<!-- Generator: flash2svg, http://dissentgraphics.com/tools/flash2svg -->

<svg
   xmlns:dc="http://purl.org/dc/elements/1.1/"
   xmlns:cc="http://creativecommons.org/ns#"
   xmlns:rdf="http://www.w3.org/1999/02/22-rdf-syntax-ns#"
   xmlns:svg="http://www.w3.org/2000/svg"
   xmlns="http://www.w3.org/2000/svg"
   xmlns:sodipodi="http://sodipodi.sourceforge.net/DTD/sodipodi-0.dtd"
   xmlns:inkscape="http://www.inkscape.org/namespaces/inkscape"
   id="AvatarAssets"
   image-rendering="auto"
   version="1.1"
   x="0px"
   y="0px"
   width="18.802027"
   height="9.1621428"
   viewBox="0 0 18.802027 9.1621428"
   inkscape:version="0.48.4 r9939"
   sodipodi:docname="AvatarAssets_backSleeveUpperLeft20101103Black3.svg">
  <metadata
     id="metadata3237">
    <rdf:RDF>
      <cc:Work
         rdf:about="">
        <dc:format>image/svg+xml</dc:format>
        <dc:type
           rdf:resource="http://purl.org/dc/dcmitype/StillImage" />
      </cc:Work>
    </rdf:RDF>
  </metadata>
  <sodipodi:namedview
     pagecolor="#ffffff"
     bordercolor="#666666"
     borderopacity="1"
     objecttolerance="10"
     gridtolerance="10"
     guidetolerance="10"
     inkscape:pageopacity="0"
     inkscape:pageshadow="2"
     inkscape:window-width="640"
     inkscape:window-height="480"
     id="namedview3235"
     showgrid="false"
     fit-margin-top="0"
     fit-margin-left="0"
     fit-margin-right="0"
     fit-margin-bottom="0"
     inkscape:zoom="1.9032258"
     inkscape:cx="50.202026"
     inkscape:cy="-55.967544"
     inkscape:window-x="204"
     inkscape:window-y="110"
     inkscape:window-maximized="0"
     inkscape:current-layer="AvatarAssets" />
  <defs
     id="defs3226" />
  <g
     id="backSleeveUpperLeft20101103Black4"
     overflow="visible"
     style="overflow:visible"
     transform="translate(18.202026,3.1296875)">
    <g
       id="backSleeveUpperLeft20101103Black3_0">
      <g
         id="element">
        <path
           id="path"
           d="M 0.6,-1.4 C 0.45,-1.65 0.3,-1.9 0.1,-2.1 -0.2,-2.35 -0.55,-2.55 -1.05,-2.7 l -0.65,0.5 c -0.8,0.65 -1.7,1.25 -2.1,2.15 -0.45,0.95 -0.25,2.75 -0.8,3.55 -0.55,0.8 -2.65,0.55 -3.55,0.7 -1.05,0.15 -2.2,0.45 -3.3,0.55 -1.2,0.15 -2.6,-0.15 -3.7,-0.45 -1.35,-0.35 -2.1,-0.5 -2.8,-1.65 l -0.2,-0.3 c 0.05,0.45 0.1,0.85 0.25,1.25 l 0.15,0.4 c 0.35,0.75 0.9,1.3 1.65,1.65 C -14.55,6.4 -8.7,5.9 -6,5.4 Q -3.95,5 -2.15,4.05 -0.3,3.1 0.05,2.2 L 0.6,-1.4 z"
           inkscape:connector-curvature="0"
           style="fill:#0f0f0f" />
        <path
           id="path1"
           d="m 0.1,-2.1 c 0.2,0.2 0.35,0.45 0.5,0.7 -0.15,-0.4 -0.45,-0.7 -0.8,-0.95 -0.25,-0.15 -0.55,-0.3 -1,-0.4 l 0.1,0.05 0.05,0 c 0.5,0.15 0.85,0.35 1.15,0.6 z m -9.2,-0.8 c -2.6,0.2 -5,0.05 -6.75,0.95 -0.5,0.8 -0.55,2.05 1.8,1.4 0.1,1.1 1.05,0.8 1.9,0.8 0.7,0 3.4,0.45 3.4,-0.35 1.45,-0.2 2.95,0.4 4.15,-0.4 l 0.5,-0.65 C -3.75,-1.6 -3.75,-1.7 -3.3,-2 -2.75,-2.4 -1.85,-2.8 -1.2,-2.75 -2.45,-3.2 -5,-3.25 -9.1,-2.9 z m -9.05,5.25 c 0.05,0.45 0.1,0.85 0.25,1.25 -0.05,-0.15 -0.1,-0.3 -0.15,-0.45 -0.15,-0.65 -0.2,-1.3 -0.1,-1.95 0,0.35 -0.05,0.75 0,1.15 z"
           inkscape:connector-curvature="0"
           style="fill:#2a2b2b" />
        <path
           id="path4"
           d="m -17.3,-0.75 c -0.05,0.05 -0.1,0.1 -0.15,0.2 -0.15,1.05 0.45,2.05 1.3,2.5 0.4,0.2 1.3,0.35 1.75,0.35 0.3,0 1,-0.2 1.2,-0.15 0.6,0.1 1.05,0.75 1.65,0.9 0.4,0.05 1.05,0 1.4,-0.05 1.05,0 2.1,-0.2 3.1,-0.4 1,-0.15 2,-1 2.5,-1.8 0.55,-0.9 0.85,-2.35 2,-2.8 0.2,-0.1 0.5,-0.15 0.85,-0.2 l 0.65,-0.5 -0.05,0 -0.1,-0.05 C -1.85,-2.8 -2.75,-2.4 -3.3,-2 c -0.45,0.3 -0.45,0.4 -0.8,0.85 l -0.5,0.65 c -1.2,0.8 -2.7,0.2 -4.15,0.4 0,0.8 -2.7,0.35 -3.4,0.35 -0.85,0 -1.8,0.3 -1.9,-0.8 -2.35,0.65 -2.3,-0.6 -1.8,-1.4 l 0,-0.05 c -0.55,0.25 -1.05,0.65 -1.45,1.25 z"
           inkscape:connector-curvature="0"
           style="fill:#202121" />
        <path
           id="path5"
           d="m -2.55,-2 c -1.15,0.45 -1.45,1.9 -2,2.8 -0.5,0.8 -1.5,1.65 -2.5,1.8 -1,0.2 -2.05,0.4 -3.1,0.4 -0.35,0.05 -1,0.1 -1.4,0.05 -0.6,-0.15 -1.05,-0.8 -1.65,-0.9 -0.2,-0.05 -0.9,0.15 -1.2,0.15 -0.45,0 -1.35,-0.15 -1.75,-0.35 -0.85,-0.45 -1.45,-1.45 -1.3,-2.5 -0.15,0.2 -0.25,0.4 -0.35,0.6 l -0.35,1.15 c 0,0.35 -0.05,0.75 0,1.15 l 0.2,0.3 c 0.7,1.15 1.45,1.3 2.8,1.65 1.1,0.3 2.5,0.6 3.7,0.45 1.1,-0.1 2.25,-0.4 3.3,-0.55 0.9,-0.15 3,0.1 3.55,-0.7 0.55,-0.8 0.35,-2.6 0.8,-3.55 0.4,-0.9 1.3,-1.5 2.1,-2.15 -0.35,0.05 -0.65,0.1 -0.85,0.2 z"
           inkscape:connector-curvature="0"
           style="fill:#161717" />
      </g>
    </g>
  </g>
</svg>
