<?xml version="1.0" encoding="UTF-8" standalone="no"?>
<!-- Generator: flash2svg, http://dissentgraphics.com/tools/flash2svg -->

<svg
   xmlns:dc="http://purl.org/dc/elements/1.1/"
   xmlns:cc="http://creativecommons.org/ns#"
   xmlns:rdf="http://www.w3.org/1999/02/22-rdf-syntax-ns#"
   xmlns:svg="http://www.w3.org/2000/svg"
   xmlns="http://www.w3.org/2000/svg"
   xmlns:sodipodi="http://sodipodi.sourceforge.net/DTD/sodipodi-0.dtd"
   xmlns:inkscape="http://www.inkscape.org/namespaces/inkscape"
   id="AvatarAssets"
   image-rendering="auto"
   version="1.1"
   x="0px"
   y="0px"
   width="19.307501"
   height="9.5500002"
   viewBox="0 0 19.307501 9.5500002"
   inkscape:version="0.48.4 r9939"
   sodipodi:docname="AvatarAssets_backSleeveUpperLeftA001.svg">
  <metadata
     id="metadata24">
    <rdf:RDF>
      <cc:Work
         rdf:about="">
        <dc:format>image/svg+xml</dc:format>
        <dc:type
           rdf:resource="http://purl.org/dc/dcmitype/StillImage" />
      </cc:Work>
    </rdf:RDF>
  </metadata>
  <sodipodi:namedview
     pagecolor="#ffffff"
     bordercolor="#666666"
     borderopacity="1"
     objecttolerance="10"
     gridtolerance="10"
     guidetolerance="10"
     inkscape:pageopacity="0"
     inkscape:pageshadow="2"
     inkscape:window-width="640"
     inkscape:window-height="480"
     id="namedview22"
     showgrid="false"
     fit-margin-top="0"
     fit-margin-left="0"
     fit-margin-right="0"
     fit-margin-bottom="0"
     inkscape:zoom="1.9032258"
     inkscape:cx="50.149"
     inkscape:cy="-55.549"
     inkscape:window-x="0"
     inkscape:window-y="0"
     inkscape:window-maximized="0"
     inkscape:current-layer="AvatarAssets" />
  <defs
     id="defs3" />
  <g
     id="backSleeveUpperLeftA2"
     overflow="visible"
     style="overflow:visible"
     transform="translate(18.149,3.099)">
    <g
       id="backSleeveUpperLeftA001_0">
      <g
         id="element">
        <g
           id="group1">
          <g
             id="drawingObject">
            <path
               id="path"
               d="m -18.149,1.801 c 0.05,2.25 0.5,3.65 3.5,3.8 3,0.2 8.7,-0.75 10.85,-1.3 2.1,-0.55 5.15,-5 3.85,-6.2 -1.35,-1.15 -7.2,-1.15 -9,-1 q -3.3,0.35 -5.5,1 c -1.7,0.5 -3.7,1.45 -3.7,3.7 z"
               inkscape:connector-curvature="0"
               style="fill:#e7e3b1" />
          </g>
          <g
             id="drawingObject1">
            <path
               id="path1"
               d="m -18.149,1.801 c 0.05,2.25 0.5,3.65 3.5,3.8 3,0.2 8.7,-0.75 10.85,-1.3 1.75,-0.45 4.1,-3.55 4.15,-5.3 -0.65,-0.65 -1.3,-1.2 -1.8,-1.35 q -1.85,-0.6 -5.5,1.65 c -2.2,1.35 -2.2,2.15 -3,3.15 -0.85,1 -3.7,1 -5.7,0.35 -1.2,-0.4 -1.9,-1.45 -2.15,-2.5 -0.2,0.4 -0.35,0.9 -0.35,1.5 z"
               inkscape:connector-curvature="0"
               style="fill:#ceca9e" />
          </g>
          <g
             id="drawingObject2">
            <path
               id="path2"
               d="m -17.999,3.251 c 0.25,1.4 1.1,2.25 3.35,2.35 3,0.2 8.7,-0.75 10.85,-1.3 1.4,-0.4 3.2,-2.4 3.85,-4.1 l -1.5,-2.55 c 0,0 -1.5,0.3 -4.7,3.3 -3.15,3 -3.8,3.15 -7.8,3.35 q -2.75,0.1 -4.05,-1.05 z"
               inkscape:connector-curvature="0"
               style="fill:#aaa582" />
          </g>
        </g>
        <g
           id="group2">
          <g
             id="drawingObject3">
            <path
               id="path3"
               d="m -9.149,6.451 2,-0.7 c 1.05,-0.3 2.75,-0.85 4.6,-1.55 q 2.4,-0.95 3.1,-2.25 c 0.45,-0.75 0.65,-1.55 0.6,-2.45 -0.05,-0.9 -0.45,-1.45 -1.2,-1.65 -0.75,-0.2 -1.8,-0.4 -3.1,-0.6 -1.3,-0.25 -2.35,-0.35 -3.1,-0.35 l -4.35,0.1 -0.55,0.8 c -0.4,0.55 -0.7,1.65 -0.4,4.75 0.35,3.15 2.4,3.9 2.4,3.9 z"
               inkscape:connector-curvature="0"
               style="fill:#4a6f28" />
          </g>
          <g
             id="drawingObject4">
            <path
               id="path4"
               d="m 0.551,1.951 c 0.95,-1.6 -0.2,-3.2 -1.2,-3.8 l -0.8,-0.35 -0.2,0.1 c -1.5,0.75 -2.6,2.85 -2.85,2.85 -0.2,0 -1,0.5 -2.4,1.35 -1.35,0.85 -2.1,0.85 -3.4,-1 -0.8,-1.15 -0.7,-2.75 -0.5,-3.8 l -0.35,0.5 c -0.4,0.55 -0.7,1.65 -0.4,4.75 0.35,3.15 2.4,3.9 2.4,3.9 l 2,-0.7 c 1.05,-0.3 2.75,-0.85 4.6,-1.55 1.85,-0.75 2.6,-1.35 3.1,-2.25 z"
               inkscape:connector-curvature="0"
               style="fill:#3f5f22" />
          </g>
          <g
             id="drawingObject5">
            <path
               id="path5"
               d="m -6.499,4.101 c -1.55,0.95 -1.25,0.25 -3.2,0 -1.05,-0.1 -1.45,-0.5 -1.8,-1.2 0.45,2.85 2.35,3.55 2.35,3.55 l 2,-0.7 c 1.05,-0.3 2.75,-0.85 4.6,-1.55 1.85,-0.75 2.6,-1.35 3.1,-2.25 0.65,-1.15 0.7,-2.2 0.1,-3.2 -1.25,0.35 -2.5,1.5 -3.75,3.45 q -0.3,0.45 -1.3,0.9 -1.6,0.7 -2.1,1 z"
               inkscape:connector-curvature="0"
               style="fill:#38531e" />
          </g>
        </g>
      </g>
    </g>
  </g>
</svg>
