<?xml version="1.0" encoding="UTF-8" standalone="no"?>
<!-- Generator: flash2svg, http://dissentgraphics.com/tools/flash2svg -->

<svg
   xmlns:dc="http://purl.org/dc/elements/1.1/"
   xmlns:cc="http://creativecommons.org/ns#"
   xmlns:rdf="http://www.w3.org/1999/02/22-rdf-syntax-ns#"
   xmlns:svg="http://www.w3.org/2000/svg"
   xmlns="http://www.w3.org/2000/svg"
   xmlns:sodipodi="http://sodipodi.sourceforge.net/DTD/sodipodi-0.dtd"
   xmlns:inkscape="http://www.inkscape.org/namespaces/inkscape"
   id="AvatarAssets"
   image-rendering="auto"
   version="1.1"
   x="0px"
   y="0px"
   width="19.788624"
   height="9.7383757"
   viewBox="0 0 19.788624 9.7383757"
   inkscape:version="0.48.4 r9939"
   sodipodi:docname="AvatarAssets_backSleeveUpperLeftA11.svg">
  <metadata
     id="metadata3180">
    <rdf:RDF>
      <cc:Work
         rdf:about="">
        <dc:format>image/svg+xml</dc:format>
        <dc:type
           rdf:resource="http://purl.org/dc/dcmitype/StillImage" />
      </cc:Work>
    </rdf:RDF>
  </metadata>
  <sodipodi:namedview
     pagecolor="#ffffff"
     bordercolor="#666666"
     borderopacity="1"
     objecttolerance="10"
     gridtolerance="10"
     guidetolerance="10"
     inkscape:pageopacity="0"
     inkscape:pageshadow="2"
     inkscape:window-width="640"
     inkscape:window-height="480"
     id="namedview3178"
     showgrid="false"
     fit-margin-top="0"
     fit-margin-left="0"
     fit-margin-right="0"
     fit-margin-bottom="0"
     inkscape:zoom="1.9032258"
     inkscape:cx="50.134052"
     inkscape:cy="-55.663721"
     inkscape:window-x="0"
     inkscape:window-y="0"
     inkscape:window-maximized="0"
     inkscape:current-layer="AvatarAssets" />
  <defs
     id="defs3166" />
  <g
     id="backSleeveUpperLeftA12"
     overflow="visible"
     style="overflow:visible"
     transform="translate(18.134052,3.4020967)">
    <g
       id="backSleeveUpperLeftA11_0">
      <g
         id="element">
        <g
           id="group1">
          <g
             id="drawingObject">
            <path
               id="path"
               d="m 1.651,0.251 c -0.4,-3.2 -6.7,-3.6 -8.75,-3.65 -2,-0.05 -8.05,0.5 -9.95,2.05 -1.9,1.6 -1,6.45 0.75,7.3 1.8,0.85 6.05,0.1 8.35,-0.4 2.3,-0.55 6,-1.85 7.35,-2.5 q 1,-0.45 1.65,-1.3 0.65,-0.85 0.6,-1.5 z"
               inkscape:connector-curvature="0"
               style="fill:#7f62c2" />
          </g>
          <g
             id="drawingObject1">
            <path
               id="path1"
               d="m 0.501,0.801 c 0.75,-2.2 -0.4,-2.65 -1.85,-3.25 -2.15,-0.85 -7.05,-0.9 -8.65,-0.7 -1.65,0.2 -2.8,1.7 -2.8,1.7 l 0,-0.35 c 0.05,-0.35 0.55,-0.9 0.55,-0.9 0,0 -0.75,-0.15 -1.75,0.25 -1.15,0.45 -1.1,0.2 -1.5,0.3 -1,0.3 -3.2,1.95 -2.5,4.2 0.45,1.55 4.3,3.4 4.8,3.45 0.5,0 2.75,-1 2.65,-1.45 -0.1,-0.45 -0.9,-1.2 -0.9,-1.2 l 0.4,0.45 -0.4,-0.45 0.5,0.3 -0.5,-0.3 c 0,0 0.65,0.5 2,1.05 1.35,0.5 2.65,0.25 5.05,-0.45 q 2.3,-0.65 3.15,-1 1.4,-0.7 1.75,-1.65 z"
               inkscape:connector-curvature="0"
               style="fill:#9775e6" />
          </g>
          <g
             id="drawingObject2">
            <path
               id="path2"
               d="m 0.201,-0.999 c 0.45,-1.6 -4.55,-2.3 -7.65,-2.3 -3.15,0.05 -3.55,0.6 -4.25,1.3 -0.7,0.7 -0.45,2.3 -0.45,2.3 l 0.1,-0.4 c 0.1,-0.45 1,-1.6 1,-1.6 l -0.2,0.95 c -0.2,0.95 0.2,2 0.8,2.35 0.55,0.35 1.55,0.7 2.4,0.6 0.9,-0.1 4,-0.55 5.25,-0.9 q 2.55,-0.7 3,-2.3 z"
               inkscape:connector-curvature="0"
               style="fill:#a882ff" />
          </g>
        </g>
      </g>
    </g>
  </g>
</svg>
