<?xml version="1.0" encoding="UTF-8" standalone="no"?>
<!-- Generator: flash2svg, http://dissentgraphics.com/tools/flash2svg -->

<svg
   xmlns:dc="http://purl.org/dc/elements/1.1/"
   xmlns:cc="http://creativecommons.org/ns#"
   xmlns:rdf="http://www.w3.org/1999/02/22-rdf-syntax-ns#"
   xmlns:svg="http://www.w3.org/2000/svg"
   xmlns="http://www.w3.org/2000/svg"
   xmlns:sodipodi="http://sodipodi.sourceforge.net/DTD/sodipodi-0.dtd"
   xmlns:inkscape="http://www.inkscape.org/namespaces/inkscape"
   id="AvatarAssets"
   image-rendering="auto"
   version="1.1"
   x="0px"
   y="0px"
   width="12.536593"
   height="9.6000004"
   viewBox="0 0 12.536593 9.6000004"
   inkscape:version="0.48.4 r9939"
   sodipodi:docname="AvatarAssets_backSleeveUpperLeft20101103Brown.svg">
  <metadata
     id="metadata3252">
    <rdf:RDF>
      <cc:Work
         rdf:about="">
        <dc:format>image/svg+xml</dc:format>
        <dc:type
           rdf:resource="http://purl.org/dc/dcmitype/StillImage" />
      </cc:Work>
    </rdf:RDF>
  </metadata>
  <sodipodi:namedview
     pagecolor="#ffffff"
     bordercolor="#666666"
     borderopacity="1"
     objecttolerance="10"
     gridtolerance="10"
     guidetolerance="10"
     inkscape:pageopacity="0"
     inkscape:pageshadow="2"
     inkscape:window-width="640"
     inkscape:window-height="480"
     id="namedview3250"
     showgrid="false"
     fit-margin-top="0"
     fit-margin-left="0"
     fit-margin-right="0"
     fit-margin-bottom="0"
     inkscape:zoom="1.9032258"
     inkscape:cx="43.619615"
     inkscape:cy="-55.95"
     inkscape:window-x="278"
     inkscape:window-y="121"
     inkscape:window-maximized="0"
     inkscape:current-layer="AvatarAssets" />
  <defs
     id="defs3240" />
  <g
     id="backSleeveUpperLeft20101103Brown1"
     overflow="visible"
     style="overflow:visible"
     transform="translate(11.619615,3.55)">
    <g
       id="backSleeveUpperLeft20101103Brown_0">
      <g
         id="element">
        <path
           id="path"
           d="m 0.2,-1.55 c 0.05,0 0,-0.05 -0.05,-0.1 -0.05,0 -0.25,-0.65 -0.4,-0.5 l -0.05,0.1 -0.7,1 c -0.65,0.8 -0.6,2.3 -1.75,2.6 -0.95,0.2 -1.65,0.85 -2.6,0.9 -0.8,0 -0.4,0.15 -0.9,0.45 -0.5,0.3 -1,0.4 -1.55,0.4 C -8.55,3.25 -9,3.05 -9.6,2.55 l 0,0.2 c -1.1,-0.75 -1.8,-2.2 -2,-3.55 0,0.1 0,0.1 0,0.1 -0.05,0.8 0,1.7 0.1,2.85 l 0,-0.15 c 0.2,0.6 0.45,1.2 0.75,1.65 0.25,0.4 0.5,0.8 0.85,1.15 0.15,0.15 0.6,0.55 0.85,0.5 l 0.2,-0.2 0.35,-0.05 c 0.4,-0.1 0.7,-0.2 1.1,-0.4 1.05,-0.5 2.3,-0.35 3.4,-0.85 0.4,-0.2 0.7,-0.55 1.1,-0.7 0.35,-0.1 0.6,0 0.85,-0.35 0.15,-0.2 0.25,-0.45 0.3,-0.65 0.1,-0.5 0.3,-0.9 0.5,-1.35 l 0.2,-0.7 c 0.1,-0.4 0.4,-0.7 0.65,-1.1 0.1,-0.2 0.2,-0.4 0.45,-0.5 l 0.15,0 z"
           inkscape:connector-curvature="0"
           style="fill:#403221" />
        <path
           id="path1"
           d="m 0.2,-1.55 -0.15,0 c -0.25,0.1 -0.35,0.3 -0.45,0.5 -0.25,0.4 -0.55,0.7 -0.65,1.1 l -0.2,0.7 C -1.45,1.2 -1.65,1.6 -1.75,2.1 -1.8,2.3 -1.9,2.55 -2.05,2.75 -2.3,3.1 -2.55,3 -2.9,3.1 -3.3,3.25 -3.6,3.6 -4,3.8 c -1.1,0.5 -2.35,0.35 -3.4,0.85 -0.4,0.2 -0.7,0.3 -1.1,0.4 L -8.85,5.1 -9.05,5.3 C -9.3,5.35 -9.75,4.95 -9.9,4.8 -10.25,4.45 -10.5,4.05 -10.75,3.65 -11.05,3.2 -11.3,2.6 -11.5,2 l 0,0.15 c 0.35,3.1 2.4,3.9 2.4,3.9 l 2,-0.75 C -6.05,5 -4.35,4.5 -2.5,3.75 Q -0.1,2.8 0.6,1.5 C 0.95,0.9 1,0.3 0.8,-0.6 0.75,-0.65 0.6,-0.95 0.4,-1.3 c 0,0.05 0,0.1 -0.05,-0.05 0,0 0,0 -0.05,-0.05 L 0.2,-1.55 z"
           inkscape:connector-curvature="0"
           style="fill:#2f2519" />
        <path
           id="path2"
           d="m 0.35,-1.35 0,-0.05 c 0,0 0,0 -0.05,-0.05 l 0,0.05 c 0.05,0.05 0.05,0.05 0.05,0.05"
           inkscape:connector-curvature="0"
           style="fill:#403221" />
        <path
           id="path3"
           d="m 0.35,-1.4 0,0.05 c 0.05,0.15 0.05,0.1 0.05,0.05 0.2,0.35 0.35,0.65 0.4,0.7 0,-0.05 0,-0.1 -0.05,-0.15 C 0.65,-1 0.5,-1.2 0.35,-1.4 z m -11.6,-0.9 c 0,-0.05 0,-0.1 0,-0.15 -0.15,0.35 -0.3,0.85 -0.35,1.65 0.2,1.35 0.9,2.8 2,3.55 l 0,-0.2 c 0.6,0.5 1.05,0.7 1.8,0.75 0.55,0 1.05,-0.1 1.55,-0.4 0.5,-0.3 0.1,-0.45 0.9,-0.45 0.95,-0.05 1.65,-0.7 2.6,-0.9 1.15,-0.3 1.1,-1.8 1.75,-2.6 l 0.7,-1 c 0,-0.05 -0.05,-0.1 -0.15,-0.15 -0.35,-0.3 -0.7,0 -0.8,0.2 -0.15,0.4 0.05,0.4 -0.35,0.9 l -0.15,0.4 c -0.25,0 0.15,0.35 -0.1,0.3 l -0.05,0 0.05,0.25 C -2.8,0.05 -4.05,-0.7 -5,-0.8 c -0.95,-0.1 -1.85,0.1 -2.75,0.25 -0.4,0.05 -0.95,0.25 -1.35,0.25 -0.45,0 -0.6,-0.25 -1,-0.5 -0.1,0.3 -0.1,0.65 -0.25,0.9 l -0.5,-0.45 0,0.75 c -0.4,-0.55 -0.6,-1.7 -0.4,-2.7 z"
           inkscape:connector-curvature="0"
           style="fill:#57442c" />
        <path
           id="path4"
           d="m -10.55,-3.45 -0.55,0.85 -0.15,0.15 c 0,0.05 0,0.1 0,0.15 -0.2,1 0,2.15 0.4,2.7 l 0,-0.75 0.5,0.45 c 0.15,-0.25 0.15,-0.6 0.25,-0.9 0.4,0.25 0.55,0.5 1,0.5 0.4,0 0.95,-0.2 1.35,-0.25 0.9,-0.15 1.8,-0.35 2.75,-0.25 0.95,0.1 2.2,0.85 3.15,0.65 l -0.05,-0.25 0.05,0 c 0.25,0.05 -0.15,-0.3 0.1,-0.3 l 0.15,-0.4 c 0.4,-0.5 0.2,-0.5 0.35,-0.9 0.1,-0.2 0.45,-0.5 0.8,-0.2 L -0.6,-2.3 c -1,-0.6 -4.15,-1.25 -5.6,-1.25 l -4.35,0.1 z"
           inkscape:connector-curvature="0"
           style="fill:#6a5335" />
      </g>
    </g>
  </g>
</svg>
