<?xml version="1.0" encoding="UTF-8" standalone="no"?>
<!-- Generator: flash2svg, http://dissentgraphics.com/tools/flash2svg -->

<svg
   xmlns:dc="http://purl.org/dc/elements/1.1/"
   xmlns:cc="http://creativecommons.org/ns#"
   xmlns:rdf="http://www.w3.org/1999/02/22-rdf-syntax-ns#"
   xmlns:svg="http://www.w3.org/2000/svg"
   xmlns="http://www.w3.org/2000/svg"
   xmlns:sodipodi="http://sodipodi.sourceforge.net/DTD/sodipodi-0.dtd"
   xmlns:inkscape="http://www.inkscape.org/namespaces/inkscape"
   id="AvatarAssets"
   image-rendering="auto"
   version="1.1"
   x="0px"
   y="0px"
   width="12.605975"
   height="9.6000004"
   viewBox="0 0 12.605975 9.6000004"
   inkscape:version="0.48.4 r9939"
   sodipodi:docname="AvatarAssets_backSleeveUpperLeftA005b.svg">
  <metadata
     id="metadata3095">
    <rdf:RDF>
      <cc:Work
         rdf:about="">
        <dc:format>image/svg+xml</dc:format>
        <dc:type
           rdf:resource="http://purl.org/dc/dcmitype/StillImage" />
      </cc:Work>
    </rdf:RDF>
  </metadata>
  <sodipodi:namedview
     pagecolor="#ffffff"
     bordercolor="#666666"
     borderopacity="1"
     objecttolerance="10"
     gridtolerance="10"
     guidetolerance="10"
     inkscape:pageopacity="0"
     inkscape:pageshadow="2"
     inkscape:window-width="640"
     inkscape:window-height="480"
     id="namedview3093"
     showgrid="false"
     fit-margin-top="0"
     fit-margin-left="0"
     fit-margin-right="0"
     fit-margin-bottom="0"
     inkscape:zoom="1.9032258"
     inkscape:cx="43.343975"
     inkscape:cy="-55.899"
     inkscape:window-x="0"
     inkscape:window-y="0"
     inkscape:window-maximized="0"
     inkscape:current-layer="AvatarAssets" />
  <defs
     id="defs3074" />
  <g
     id="backSleeveUpperLeftA005b1"
     overflow="visible"
     style="overflow:visible"
     transform="translate(11.343975,3.499)">
    <g
       id="backSleeveUpperLeftA005b_0">
      <g
         id="element">
        <g
           id="drawingObject">
          <path
             id="path"
             d="m 0.901,1.551 c 0.95,-1.6 -0.25,-3.15 -1.25,-3.75 -1,-0.65 -4.1,-1.3 -5.55,-1.3 l -4.35,0.1 -0.6,0.85 c -0.35,0.5 -0.7,1.65 -0.35,4.75 0.35,3.1 2.35,3.9 2.35,3.9 l 2.05,-0.75 c 1.05,-0.3 2.75,-0.8 4.6,-1.55 q 2.3,-0.95 3.1,-2.25 z"
             inkscape:connector-curvature="0"
             style="fill:#dc4894" />
        </g>
        <g
           id="group1">
          <g
             id="drawingObject1">
            <path
               id="path1"
               d="m -9.299,-0.599 c 0,0.9 1.3,2.4 1.95,0.35 l 0,0.95 q 0.15,0.95 0.8,1.2 c 1.05,0.45 2.25,-0.25 2,-1.2 -0.2,-1 -1,-1.4 -1,-1.4 l 0.45,0.35 -0.45,-0.35 c 0,0 1.5,0.15 1.75,-1 0.25,-1.15 -1.1,-2.05 -2,-1.45 -0.85,0.6 -0.8,0.85 -0.8,0.85 l 0.1,-0.2 -0.1,0.2 c 0,0 -0.3,-1.6 -1.6,-1.1 -1.3,0.5 -1.15,1.45 -0.8,1.75 l 0.35,0.3 c 0,0 -0.7,-0.15 -0.65,0.75 z"
               inkscape:connector-curvature="0"
               style="fill:#eeecd5" />
          </g>
          <g
             id="drawingObject2">
            <path
               id="path2"
               d="m -7.549,-2.299 c -0.4,-0.35 -0.8,0.25 -0.65,0.5 0.1,0.25 0.85,0.8 0.85,0.8 l -0.65,0.05 c -0.25,0.05 -0.55,0.4 -0.3,0.7 0.25,0.3 1.25,-0.5 1.25,-0.5 l 0.35,0.95 c 0.2,0.35 0.55,0.2 0.7,-0.15 q 0.1,-0.4 -0.55,-0.9 l 0.75,-0.65 c 0.5,-0.35 0.2,-0.65 -0.1,-0.7 -0.3,-0.05 -1,0.8 -1,0.8 l 0.4,-0.4 -0.4,0.4 c 0,0 -0.3,-0.6 -0.65,-0.9 z"
               inkscape:connector-curvature="0"
               style="fill:#dc4894" />
          </g>
          <g
             id="drawingObject3">
            <path
               id="path3"
               d="m -5.749,4.051 c 0,0 -0.25,-1.65 -1.6,-1.15 -1.3,0.55 -1.1,1.45 -0.75,1.75 l 0.35,0.3 c 0,0 -0.7,-0.15 -0.7,0.75 l 0,0.15 3.05,-0.75 0.1,0 0.9,-0.3 c 0.45,-0.3 0.95,-0.55 1.45,-0.75 -0.15,-0.85 -1.2,-1.4 -1.95,-0.9 -0.9,0.6 -0.85,0.9 -0.85,0.9 z"
               inkscape:connector-curvature="0"
               style="fill:#eeecd5" />
          </g>
        </g>
        <g
           id="group2">
          <g
             id="drawingObject4">
            <path
               id="path4"
               d="m -0.349,-2.199 q -0.15,-0.15 -0.75,-0.35 l -0.25,0.1 c -1.45,0.75 -2.6,2.8 -2.8,2.8 l 0.95,-1.1 -0.95,1.1 c -0.2,0 -1,0.55 -2.4,1.4 -1.4,0.85 -2.1,0.85 -3.4,-1 -0.85,-1.15 -0.7,-2.8 -0.5,-3.85 l -0.4,0.55 c -0.35,0.5 -0.7,1.65 -0.35,4.75 0.35,3.1 2.35,3.9 2.35,3.9 l 2.05,-0.75 c 1.05,-0.3 2.75,-0.8 4.6,-1.55 1.85,-0.75 2.55,-1.35 3.1,-2.25 0.95,-1.6 -0.25,-3.15 -1.25,-3.75 z"
               inkscape:connector-curvature="0"
               style="fill:#000000;fill-opacity:0.08600003" />
          </g>
          <g
             id="drawingObject5">
            <path
               id="path5"
               d="m 0.301,-1.699 -0.15,0.05 c -0.95,0.5 -2.4,2.7 -2.9,3.45 -0.55,0.8 -1.9,1 -3.45,1.95 -1.5,0.9 -1.2,0.2 -3.2,0 -1.05,-0.15 -1.4,-0.5 -1.75,-1.2 0.45,2.8 2.3,3.55 2.3,3.55 l 2.05,-0.75 c 1.05,-0.3 2.75,-0.8 4.6,-1.55 1.85,-0.75 2.55,-1.35 3.1,-2.25 q 0.95,-1.6 -0.6,-3.25 z"
               inkscape:connector-curvature="0"
               style="fill:#000000;fill-opacity:0.08600003" />
          </g>
        </g>
      </g>
    </g>
  </g>
</svg>
