<?xml version="1.0" encoding="UTF-8" standalone="no"?>
<!-- Generator: flash2svg, http://dissentgraphics.com/tools/flash2svg -->

<svg
   xmlns:dc="http://purl.org/dc/elements/1.1/"
   xmlns:cc="http://creativecommons.org/ns#"
   xmlns:rdf="http://www.w3.org/1999/02/22-rdf-syntax-ns#"
   xmlns:svg="http://www.w3.org/2000/svg"
   xmlns="http://www.w3.org/2000/svg"
   xmlns:sodipodi="http://sodipodi.sourceforge.net/DTD/sodipodi-0.dtd"
   xmlns:inkscape="http://www.inkscape.org/namespaces/inkscape"
   id="AvatarAssets"
   image-rendering="auto"
   version="1.1"
   x="0px"
   y="0px"
   width="18.838135"
   height="8.4129887"
   viewBox="0 0 18.838135 8.4129887"
   inkscape:version="0.48.4 r9939"
   sodipodi:docname="AvatarAssets_backSleeveUpperLeft20101103White.svg">
  <metadata
     id="metadata3267">
    <rdf:RDF>
      <cc:Work
         rdf:about="">
        <dc:format>image/svg+xml</dc:format>
        <dc:type
           rdf:resource="http://purl.org/dc/dcmitype/StillImage" />
      </cc:Work>
    </rdf:RDF>
  </metadata>
  <sodipodi:namedview
     pagecolor="#ffffff"
     bordercolor="#666666"
     borderopacity="1"
     objecttolerance="10"
     gridtolerance="10"
     guidetolerance="10"
     inkscape:pageopacity="0"
     inkscape:pageshadow="2"
     inkscape:window-width="640"
     inkscape:window-height="480"
     id="namedview3265"
     showgrid="false"
     fit-margin-top="0"
     fit-margin-left="0"
     fit-margin-right="0"
     fit-margin-bottom="0"
     inkscape:zoom="1.9032258"
     inkscape:cx="50.220711"
     inkscape:cy="-56.437011"
     inkscape:window-x="0"
     inkscape:window-y="0"
     inkscape:window-maximized="0"
     inkscape:current-layer="AvatarAssets" />
  <defs
     id="defs3255" />
  <g
     id="backSleeveUpperLeft20101103White1"
     overflow="visible"
     style="overflow:visible"
     transform="translate(18.220711,2.85)">
    <g
       id="backSleeveUpperLeft20101103White_0">
      <g
         id="element">
        <path
           id="path"
           d="m -5.55,-1.2 c -0.5,0.3 -1.05,0.25 -1.55,0.7 -0.6,0.5 -0.55,0.95 -1.4,1.15 -0.6,0.1 -1.25,0.05 -1.85,0.1 0.3,0.25 0.45,0.6 0.35,0.95 -1.15,0.05 -2.7,0 -3.9,0.4 l -0.65,0.25 0.65,-0.25 c -0.6,0.15 -0.75,0.45 -1.5,0.4 -0.75,-0.05 -2.15,-0.2 -2.8,-0.7 -0.05,0.4 0,0.85 0.05,1.2 l 0,0.1 c 0.05,0 0.05,0.05 0.05,0.1 0.7,0.1 1.75,-0.1 2.1,-0.05 0.6,0.05 0.7,0.2 1.25,0.35 0.9,0.15 1.8,0.15 2.75,0.15 1.05,-0.05 2.1,0.05 3.1,-0.2 0.6,-0.1 1.35,-0.3 1.85,-0.75 0.5,-0.45 0.25,-1 0.6,-1.4 0.4,-0.6 1.3,-0.95 1.8,-1.5 0.9,-0.9 1.35,-2 2.7,-2.3 l 0.6,-0.05 c -0.6,-0.2 -1.4,-0.3 -2.35,-0.3 l -0.05,0.05 -0.75,0.55 c -0.35,0.35 -0.7,0.85 -1.05,1.05 z"
           inkscape:connector-curvature="0"
           style="fill:#cbd1d1" />
        <path
           id="path1"
           d="m -7.1,-0.5 c 0.5,-0.45 1.05,-0.4 1.55,-0.7 0.35,-0.2 0.7,-0.7 1.05,-1.05 l 0.75,-0.55 c -1.3,-0.1 -3.35,0.05 -5.9,0.35 -3.55,0.45 -6.55,0.15 -8.05,2.75 -0.3,0.5 -0.5,1.2 -0.5,1.5 0.65,0.5 2.05,0.65 2.8,0.7 0.75,0.05 0.9,-0.25 1.5,-0.4 l -0.65,0.25 0.65,-0.25 c 1.2,-0.4 2.75,-0.35 3.9,-0.4 0.1,-0.35 -0.05,-0.7 -0.35,-0.95 0.6,-0.05 1.25,0 1.85,-0.1 0.85,-0.2 0.8,-0.65 1.4,-1.15 z"
           inkscape:connector-curvature="0"
           style="fill:#eaf2f2" />
        <path
           id="path2"
           d="m -1.7,-2.25 1.15,-0.1 -0.8,-0.2 -0.6,0.05 c -1.35,0.3 -1.8,1.4 -2.7,2.3 -0.5,0.55 -1.4,0.9 -1.8,1.5 -0.35,0.4 -0.1,0.95 -0.6,1.4 -0.5,0.45 -1.25,0.65 -1.85,0.75 -1,0.25 -2.05,0.15 -3.1,0.2 -0.95,0 -1.85,0 -2.75,-0.15 C -15.3,3.35 -15.4,3.2 -16,3.15 -16.35,3.1 -17.4,3.3 -18.1,3.2 l 0,0.1 c 1.2,0.05 2.9,0.85 4.05,1 1.8,0.3 3.7,-0.05 5.55,-0.25 1.1,-0.15 1.8,-0.6 2.8,-1.1 1.05,-0.35 0.65,-0.35 1.1,-1.2 0.3,-0.65 0.9,-1.1 1.3,-1.6 L -4,0.9 l 0.7,-0.75 1.6,-2.4 z"
           inkscape:connector-curvature="0"
           style="fill:#aeb3b3" />
        <path
           id="path3"
           d="M -0.55,-2.35 -1.7,-2.25 -3.3,0.15 -4,0.9 -3.3,0.15 c -0.4,0.5 -1,0.95 -1.3,1.6 -0.45,0.85 -0.05,0.85 -1.1,1.2 -1,0.5 -1.7,0.95 -2.8,1.1 -1.85,0.2 -3.75,0.55 -5.55,0.25 -1.15,-0.15 -2.85,-0.95 -4.05,-1 0.35,1 0.8,1.55 1.5,1.9 1.4,0.7 7.3,0.25 10.2,-0.2 q 2.2,-0.4 4.15,-1.35 2,-0.95 2.3,-1.8 L 0.35,1.1 C 0.6,0.3 0.65,-0.3 0.6,-0.75 0.5,-1.45 0.1,-2 -0.55,-2.35 z"
           inkscape:connector-curvature="0"
           style="fill:#8e9191" />
        <path
           id="path4"
           d="m -18.15,3.1 c 0.05,0.2 0.1,0.25 0.05,0.2 l 0,-0.1 c 0,-0.05 0,-0.1 -0.05,-0.1"
           inkscape:connector-curvature="0"
           style="fill:#eaf2f2" />
      </g>
    </g>
  </g>
</svg>
