<?xml version="1.0" encoding="UTF-8" standalone="no"?>
<!-- Generator: flash2svg, http://dissentgraphics.com/tools/flash2svg -->

<svg
   xmlns:dc="http://purl.org/dc/elements/1.1/"
   xmlns:cc="http://creativecommons.org/ns#"
   xmlns:rdf="http://www.w3.org/1999/02/22-rdf-syntax-ns#"
   xmlns:svg="http://www.w3.org/2000/svg"
   xmlns="http://www.w3.org/2000/svg"
   xmlns:sodipodi="http://sodipodi.sourceforge.net/DTD/sodipodi-0.dtd"
   xmlns:inkscape="http://www.inkscape.org/namespaces/inkscape"
   id="AvatarAssets"
   image-rendering="auto"
   version="1.1"
   x="0px"
   y="0px"
   width="12.597005"
   height="9.6000004"
   viewBox="0 0 12.597005 9.6000004"
   inkscape:version="0.48.4 r9939"
   sodipodi:docname="AvatarAssets_backSleeveUpperLeft20101103Black1.svg">
  <metadata
     id="metadata3209">
    <rdf:RDF>
      <cc:Work
         rdf:about="">
        <dc:format>image/svg+xml</dc:format>
        <dc:type
           rdf:resource="http://purl.org/dc/dcmitype/StillImage" />
      </cc:Work>
    </rdf:RDF>
  </metadata>
  <sodipodi:namedview
     pagecolor="#ffffff"
     bordercolor="#666666"
     borderopacity="1"
     objecttolerance="10"
     gridtolerance="10"
     guidetolerance="10"
     inkscape:pageopacity="0"
     inkscape:pageshadow="2"
     inkscape:window-width="640"
     inkscape:window-height="480"
     id="namedview3207"
     showgrid="false"
     fit-margin-top="0"
     fit-margin-left="0"
     fit-margin-right="0"
     fit-margin-bottom="0"
     inkscape:zoom="1.9032258"
     inkscape:cx="43.606435"
     inkscape:cy="-55.95"
     inkscape:window-x="0"
     inkscape:window-y="0"
     inkscape:window-maximized="0"
     inkscape:current-layer="AvatarAssets" />
  <defs
     id="defs3197" />
  <g
     id="backSleeveUpperLeft20101103Black2"
     overflow="visible"
     style="overflow:visible"
     transform="translate(11.606435,3.55)">
    <g
       id="backSleeveUpperLeft20101103Black1_0">
      <g
         id="element">
        <path
           id="path"
           d="M 0.9,-1.3 C 0.7,-1.6 0.45,-1.8 0.25,-2 0.1,-2.2 -0.1,-2.3 -0.5,-2.2 c 0,-0.1 -0.2,0.1 -0.25,0.2 -0.2,0.4 0.05,0.4 -0.4,0.9 l -0.1,0.4 c -0.2,0 -0.05,0.2 -0.05,0.2 l 0,-0.05 0,0.05 c 0.1,-0.25 0.2,-0.4 0.3,-0.55 l 0.75,-1.1 c 0.15,-0.2 0.5,1 0.45,0.6 0.05,0.05 0.05,0.1 0.1,0.15 0.05,0.25 0.05,0.3 0.1,0.1 0.25,0.4 0.45,0.85 0.5,1 l 0,-0.05 C 0.95,-0.65 0.85,-1 0.9,-1.3 z m -11.25,1.7 c -0.4,-0.6 -0.65,-1.85 -0.4,-2.85 -0.15,0.35 -0.3,0.85 -0.35,1.65 0.2,1.35 0.9,2.8 2,3.55 l 0,-0.2 c 0.45,0.45 1,0.7 1.65,0.75 0.55,-0.1 0.85,-0.2 1.15,-0.4 0.55,-0.3 0.15,-0.45 0.95,-0.45 0.9,-0.05 1.65,-0.7 2.6,-0.9 0.7,-0.2 0.9,-0.85 1.3,-1.65 C -2.3,0.05 -3.1,1.45 -4,1.35 -4.95,1.25 -6.35,1.7 -7.25,0.95 -7.6,0.7 -8.2,-0.3 -8.6,-0.3 c -0.5,0 -0.6,-0.25 -1,-0.5 -0.1,0.3 -0.1,0.65 -0.25,0.9 l -0.5,-0.45 0,0.75 z"
           inkscape:connector-curvature="0"
           style="fill:#232424" />
        <path
           id="path1"
           d="m 0.2,-1.55 c 0.05,0.4 -0.3,-0.8 -0.45,-0.6 L -1,-1.05 c -0.1,0.15 -0.2,0.3 -0.3,0.55 0,0.05 0,0.05 -0.05,0.1 0,0 0,0 0,0.1 0,-0.1 -0.05,0.05 -0.1,0.2 -0.4,0.8 -0.6,1.45 -1.3,1.65 -0.95,0.2 -1.7,0.85 -2.6,0.9 -0.8,0 -0.4,0.15 -0.95,0.45 -0.3,0.2 -0.6,0.3 -1.15,0.4 0.05,0 -0.15,0 -0.35,0 C -8.55,3.25 -9.05,3.05 -9.6,2.55 l 0,0.2 c -1.05,-0.7 -1.7,-2 -2,-3.5 0,0.15 0,0.25 0,0.4 l 0,0.85 c 0,0.7 0.05,1.15 0.1,1.65 l 0,-0.15 c 0.15,0.6 0.45,1.2 0.7,1.65 l 0.85,1.15 c 0.2,0.15 0.6,0.55 0.9,0.5 l 0.2,-0.2 0.3,-0.05 c 0.45,-0.1 0.75,-0.2 1.1,-0.4 1.1,-0.5 2.35,-0.35 3.4,-0.85 0.4,-0.2 0.75,-0.55 1.15,-0.7 0.35,-0.1 0.6,0 0.85,-0.35 0.15,-0.2 0.2,-0.45 0.25,-0.65 0.1,-0.5 0.3,-0.9 0.55,-1.35 l 0.2,-0.7 c 0.1,-0.4 0.4,-0.7 0.65,-1.1 0.1,-0.2 0.2,-0.4 0.45,-0.5 l 0.15,0 z"
           inkscape:connector-curvature="0"
           style="fill:#1b1c1c" />
        <path
           id="path2"
           d="M 0.3,-1.4 C 0.25,-1.45 0.25,-1.5 0.2,-1.55 l -0.15,0 c -0.25,0.1 -0.35,0.3 -0.45,0.5 -0.25,0.4 -0.55,0.7 -0.65,1.1 l -0.2,0.7 C -1.5,1.2 -1.7,1.6 -1.8,2.1 -1.85,2.3 -1.9,2.55 -2.05,2.75 -2.3,3.1 -2.55,3 -2.9,3.1 c -0.4,0.15 -0.75,0.5 -1.15,0.7 -1.05,0.5 -2.3,0.35 -3.4,0.85 -0.35,0.2 -0.65,0.3 -1.1,0.4 l -0.3,0.05 -0.2,0.2 c -0.3,0.05 -0.7,-0.35 -0.9,-0.5 L -10.8,3.65 C -11.05,3.2 -11.35,2.6 -11.5,2 l 0,0.15 c 0.35,3.1 2.35,3.9 2.35,3.9 L -7.1,5.3 C -6.05,5 -4.35,4.5 -2.5,3.75 Q -0.2,2.8 0.6,1.5 C 0.7,1.35 0.75,1.2 0.8,1.2 L 0.85,1 C 1,0.65 1.05,0.15 0.9,-0.3 0.85,-0.45 0.65,-0.9 0.4,-1.3 0.35,-1.1 0.35,-1.15 0.3,-1.4 z"
           inkscape:connector-curvature="0"
           style="fill:#121212" />
        <path
           id="path3"
           d="m -11.15,-2.6 c -0.25,0.35 -0.5,1 -0.45,1.85 0.3,1.5 0.95,2.8 2,3.5 l 0,-0.2 c 0.55,0.5 1.05,0.7 1.8,0.75 0.2,0 0.4,0 0.35,0 C -8.1,3.25 -8.65,3 -9.1,2.55 l 0,0.2 c -1.1,-0.75 -1.8,-2.2 -2,-3.55 0.05,-0.8 0.2,-1.3 0.35,-1.65 -0.25,1 0,2.25 0.4,2.85 l 0,-0.75 0.5,0.45 c 0.15,-0.25 0.15,-0.6 0.25,-0.9 0.4,0.25 0.5,0.5 1,0.5 0.4,0 1,1 1.35,1.25 0.9,0.75 2.3,0.3 3.25,0.4 0.9,0.1 1.7,-1.3 2.55,-1.45 0.05,-0.15 0.1,-0.3 0.1,-0.2 l -0.05,-0.1 0.05,0 c 0.05,-0.05 0.05,-0.05 0.05,-0.1 l 0,-0.05 0,0.05 c 0,0 -0.15,-0.2 0.05,-0.2 l 0.1,-0.4 c 0.45,-0.5 0.2,-0.5 0.4,-0.9 0.05,-0.1 0.25,-0.3 0.25,-0.2 -0.05,0 -0.1,-0.05 -0.15,-0.1 -1,-0.6 -4.1,-1.25 -5.55,-1.25 l -4.35,0.1 -0.6,0.85 z"
           inkscape:connector-curvature="0"
           style="fill:#2f3030" />
        <path
           id="path6"
           d="m -1.35,-0.4 -0.05,0 0.05,0.1 c 0,-0.1 0,-0.1 0,-0.1"
           inkscape:connector-curvature="0"
           style="fill:#232424" />
      </g>
    </g>
  </g>
</svg>
