<?xml version="1.0" encoding="UTF-8" standalone="no"?>
<!-- Generator: flash2svg, http://dissentgraphics.com/tools/flash2svg -->

<svg
   xmlns:dc="http://purl.org/dc/elements/1.1/"
   xmlns:cc="http://creativecommons.org/ns#"
   xmlns:rdf="http://www.w3.org/1999/02/22-rdf-syntax-ns#"
   xmlns:svg="http://www.w3.org/2000/svg"
   xmlns="http://www.w3.org/2000/svg"
   xmlns:sodipodi="http://sodipodi.sourceforge.net/DTD/sodipodi-0.dtd"
   xmlns:inkscape="http://www.inkscape.org/namespaces/inkscape"
   id="AvatarAssets"
   image-rendering="auto"
   version="1.1"
   x="0px"
   y="0px"
   width="13.45"
   height="11.975868"
   viewBox="0 0 13.45 11.975868"
   inkscape:version="0.48.4 r9939"
   sodipodi:docname="AvatarAssets_backSleeveLowerLeft20101103White.svg">
  <metadata
     id="metadata3066">
    <rdf:RDF>
      <cc:Work
         rdf:about="">
        <dc:format>image/svg+xml</dc:format>
        <dc:type
           rdf:resource="http://purl.org/dc/dcmitype/StillImage" />
      </cc:Work>
    </rdf:RDF>
  </metadata>
  <sodipodi:namedview
     pagecolor="#ffffff"
     bordercolor="#666666"
     borderopacity="1"
     objecttolerance="10"
     gridtolerance="10"
     guidetolerance="10"
     inkscape:pageopacity="0"
     inkscape:pageshadow="2"
     inkscape:window-width="640"
     inkscape:window-height="480"
     id="namedview3064"
     showgrid="false"
     fit-margin-top="0"
     fit-margin-left="0"
     fit-margin-right="0"
     fit-margin-bottom="0"
     inkscape:zoom="1.9032258"
     inkscape:cx="41.9"
     inkscape:cy="-59.674286"
     inkscape:window-x="0"
     inkscape:window-y="0"
     inkscape:window-maximized="0"
     inkscape:current-layer="AvatarAssets" />
  <defs
     id="defs3054" />
  <g
     id="backSleeveLowerLeft20101103White1"
     overflow="visible"
     style="overflow:visible"
     transform="translate(9.9,9.6501543)">
    <g
       id="backSleeveLowerLeft20101103White_0">
      <g
         id="element">
        <path
           id="path"
           d="m 0.9,-5.7 -0.05,0 c -0.8,-0.25 -1.6,-0.25 -2.3,0.7 -0.25,0.35 -0.4,0.8 -0.5,1.25 -0.1,0.5 -0.05,0.95 0.15,1.3 0.35,0.65 0.95,0.7 1.55,0.7 1.2,0 2.55,-0.35 3.6,-1.05 C 3.25,-3.35 2.9,-3.9 2.65,-4.15 2.6,-4.25 2.55,-4.35 2.25,-4.6 1.95,-4.95 1.4,-5.2 0.9,-5.7 z M 3.55,-1.75 3.5,-1.7 C 2.9,-1.25 2.3,-0.95 1.65,-0.85 1.1,-0.75 0.45,-0.8 -0.4,-1 -1.65,-1.25 -1.65,-1.35 -2.35,-2.25 -2.7,-2.75 -3.5,-3.1 -3.05,-3.75 -3.8,-4.45 -5.1,-3.65 -5.8,-4.45 -6,-4.7 -6.45,-6.3 -6.55,-6.75 -6.95,-6.5 -7.35,-6.3 -7.8,-5.9 l 0.05,-0.05 -0.05,0.05 c 0.45,1.4 3.05,2.3 3.75,2.65 -0.4,0.85 -1.4,0.3 -0.75,1.4 0.45,0.65 1.8,1.4 2.5,1.75 1.95,0.9 3.6,-0.1 5.3,-0.95 l 0.45,-0.45 0.1,0 0,-0.25 z"
           inkscape:connector-curvature="0"
           style="fill:#cbd1d1" />
        <path
           id="path1"
           d="m 0.85,-5.7 c 0,0.05 -0.1,-0.05 -0.2,-0.2 l -2.6,-3.75 c 0,0 -2.05,-0.05 -4.6,1.65 -2.6,1.75 -3.35,3.55 -3.35,3.55 0,0 1.1,-1.25 2.1,-1.55 0,0.1 0,0.2 0,0.1 l 0.05,-0.05 -0.05,0.05 c 0.45,-0.4 0.85,-0.6 1.25,-0.85 0.1,0.45 0.55,2.05 0.75,2.3 0.7,0.8 2,0 2.75,0.7 -0.45,0.65 0.35,1 0.7,1.5 0.7,0.9 0.7,1 1.95,1.25 0.85,0.2 1.5,0.25 2.05,0.15 0.65,-0.1 1.25,-0.4 1.85,-0.85 0,-0.35 -0.05,-0.7 -0.15,-1.1 -1.05,0.7 -2.4,1.05 -3.6,1.05 -0.6,0 -1.2,-0.05 -1.55,-0.7 -0.2,-0.35 -0.25,-0.8 -0.15,-1.3 0.1,-0.45 0.25,-0.9 0.5,-1.25 0.7,-0.95 1.5,-0.95 2.3,-0.7 z"
           inkscape:connector-curvature="0"
           style="fill:#eaf2f2" />
        <path
           id="path4"
           d="m 3.55,-1.3 0,-0.2 -0.1,0 L 3,-1.05 3.55,-1.3 z"
           inkscape:connector-curvature="0"
           style="fill:#0f0f0f" />
        <path
           id="path5"
           d="M 3.4,-0.4 C 3.45,-0.6 3.55,-0.95 3.55,-1.3 L 3,-1.05 C 2.7,-0.6 2.35,-0.1 2.1,0.1 1.75,0.4 1.25,0.8 0.8,1 0.25,1.25 -0.45,1.3 -1.05,1.25 -2.75,1.2 -3.5,0.1 -4.7,-1 -5,-1.25 -5.6,-1.55 -5.8,-1.9 -5.9,-2.05 -5.7,-2.45 -5.8,-2.6 -6,-2.85 -6.4,-3.05 -7,-3.1 -7.7,-3.15 -8.2,-3.2 -8.5,-3.25 l -0.05,0 c 0.15,0.1 0.25,0.2 0.4,0.35 l 0.05,0.05 1.15,1 c 1.8,1.6 3.4,2.9 4.05,3.35 Q -0.2,3.2 2.05,1.4 C 2.75,0.8 3.15,0.1 3.4,-0.4 z"
           inkscape:connector-curvature="0"
           style="fill:#8e9191" />
        <path
           id="path6"
           d="M 0.8,1 C 1.25,0.8 1.75,0.4 2.1,0.1 2.35,-0.1 2.7,-0.6 3,-1.05 1.3,-0.2 -0.35,0.8 -2.3,-0.1 -3,-0.45 -4.35,-1.2 -4.8,-1.85 c -0.65,-1.1 0.35,-0.55 0.75,-1.4 -0.7,-0.35 -3.3,-1.25 -3.75,-2.65 0,0.1 0,0 0,-0.1 -1,0.3 -2.1,1.55 -2.1,1.55 l 1.35,1.2 0.05,0 c 0.3,0.05 0.8,0.1 1.5,0.15 0.6,0.05 1,0.25 1.2,0.5 0.1,0.15 -0.1,0.55 0,0.7 0.2,0.35 0.8,0.65 1.1,0.9 1.2,1.1 1.95,2.2 3.65,2.25 0.6,0.05 1.3,0 1.85,-0.25 z"
           inkscape:connector-curvature="0"
           style="fill:#aeb3b3" />
      </g>
    </g>
  </g>
</svg>
