<?xml version="1.0" encoding="UTF-8" standalone="no"?>
<!-- Generator: flash2svg, http://dissentgraphics.com/tools/flash2svg -->

<svg
   xmlns:dc="http://purl.org/dc/elements/1.1/"
   xmlns:cc="http://creativecommons.org/ns#"
   xmlns:rdf="http://www.w3.org/1999/02/22-rdf-syntax-ns#"
   xmlns:svg="http://www.w3.org/2000/svg"
   xmlns="http://www.w3.org/2000/svg"
   xmlns:sodipodi="http://sodipodi.sourceforge.net/DTD/sodipodi-0.dtd"
   xmlns:inkscape="http://www.inkscape.org/namespaces/inkscape"
   id="AvatarAssets"
   image-rendering="auto"
   version="1.1"
   x="0px"
   y="0px"
   width="14.015161"
   height="13.50273"
   viewBox="0 0 14.015161 13.50273"
   inkscape:version="0.48.4 r9939"
   sodipodi:docname="AvatarAssets_backSleeveLowerLeftC005.svg">
  <metadata
     id="metadata3174">
    <rdf:RDF>
      <cc:Work
         rdf:about="">
        <dc:format>image/svg+xml</dc:format>
        <dc:type
           rdf:resource="http://purl.org/dc/dcmitype/StillImage" />
      </cc:Work>
    </rdf:RDF>
  </metadata>
  <sodipodi:namedview
     pagecolor="#ffffff"
     bordercolor="#666666"
     borderopacity="1"
     objecttolerance="10"
     gridtolerance="10"
     guidetolerance="10"
     inkscape:pageopacity="0"
     inkscape:pageshadow="2"
     inkscape:window-width="640"
     inkscape:window-height="480"
     id="namedview3172"
     showgrid="false"
     fit-margin-top="0"
     fit-margin-left="0"
     fit-margin-right="0"
     fit-margin-bottom="0"
     inkscape:zoom="1.9032258"
     inkscape:cx="42.849"
     inkscape:cy="-59.495551"
     inkscape:window-x="0"
     inkscape:window-y="0"
     inkscape:window-maximized="0"
     inkscape:current-layer="AvatarAssets" />
  <defs
     id="defs3159" />
  <g
     id="backSleeveLowerLeftC6"
     overflow="visible"
     style="overflow:visible"
     transform="translate(10.849,10.998282)">
    <g
       id="backSleeveLowerLeftC005_0">
      <g
         id="element">
        <g
           id="drawingObject">
          <path
             id="path"
             d="m -1.399,-8.899 -0.65,-2 c 0,0 -2,-0.6 -5.1,1.15 -3.1,1.75 -3.75,3.7 -3.65,5.5 l 0.05,2.45 1.25,0.3 -1.25,-0.3 c 0,0 2,0.3 3.95,1.3 1.9,1 5.15,3.1 7,3 1.8,-0.05 3.3,-1.4 2.9,-4.5 -0.4,-3.05 -1.65,-4.5 -2.85,-5.15 q -0.9,-0.5 -1.2,-0.85 -0.15,-0.2 -0.45,-0.9 z"
             inkscape:connector-curvature="0"
             style="fill:#a16d29" />
        </g>
        <g
           id="drawingObject1">
          <path
             id="path1"
             d="m -2.049,-10.899 c 0,0 -2,-0.6 -5.1,1.15 -3.1,1.75 -3.75,3.7 -3.65,5.5 l 0.05,2.45 1.35,0.3 c -0.1,-2.25 0.45,-5.15 3.4,-6.75 q 2.55,-1.35 4.3,-1.45 l -0.35,-1.2 z"
             inkscape:connector-curvature="0"
             style="fill:#dcc041" />
        </g>
        <g
           id="drawingObject2">
          <path
             id="path2"
             d="m 0.201,2.501 c 1.8,-0.05 3.3,-1.4 2.9,-4.5 q -0.4,-2.95 -1.95,-4.5 l -0.2,0 c -3,0.45 -4.35,2.45 -5.1,2.35 -0.75,-0.1 0.1,-1.5 -0.35,-1.4 -0.4,0.1 -1.4,0.9 -2.15,1 -0.75,0.1 -1.5,-1.6 -1.5,-2.35 0,-0.75 3.55,-2.7 3.55,-2.7 0,0 -0.65,-0.05 -1.8,0.55 -1.15,0.6 -2.25,1.25 -3.1,2.15 -0.45,0.5 -0.4,-0.05 -0.25,-0.7 -0.9,1.1 -1.1,2.25 -1.05,3.35 l 0.05,2.45 1.25,0.3 -1.25,-0.3 c 0,0 2,0.3 3.95,1.3 1.9,1 5.15,3.1 7,3 z"
             inkscape:connector-curvature="0"
             style="fill:#000000;fill-opacity:0.08600003" />
        </g>
        <g
           id="drawingObject3">
          <path
             id="path3"
             d="m 1.651,1.851 c 0.2,-0.4 0.45,-0.65 0.7,-0.75 1.5,-2.7 0.55,-4.55 -2.9,-5.5 q -1.5,0 -3.45,1.5 c -1.9,1.5 -2.4,0.85 -3,0.6 -0.55,-0.25 -0.05,-0.75 -0.05,-0.75 l -0.2,0.3 0.2,-0.3 c 0,0 -1.2,0.05 -2.35,-0.25 -0.6,-0.15 -1.05,-0.7 -1.45,-1.35 l 0.05,0.4 0.05,2.45 1.25,0.3 -1.25,-0.3 c 0,0 2,0.3 3.95,1.3 1.9,1 5.15,3.1 7,3 l 0.15,0 c 0.65,-0.05 1.1,-0.3 1.3,-0.65 z"
             inkscape:connector-curvature="0"
             style="fill:#000000;fill-opacity:0.08600003" />
        </g>
      </g>
    </g>
  </g>
</svg>
