<?xml version="1.0" encoding="UTF-8" standalone="no"?>
<!-- Generator: flash2svg, http://dissentgraphics.com/tools/flash2svg -->

<svg
   xmlns:dc="http://purl.org/dc/elements/1.1/"
   xmlns:cc="http://creativecommons.org/ns#"
   xmlns:rdf="http://www.w3.org/1999/02/22-rdf-syntax-ns#"
   xmlns:svg="http://www.w3.org/2000/svg"
   xmlns="http://www.w3.org/2000/svg"
   xmlns:sodipodi="http://sodipodi.sourceforge.net/DTD/sodipodi-0.dtd"
   xmlns:inkscape="http://www.inkscape.org/namespaces/inkscape"
   id="AvatarAssets"
   image-rendering="auto"
   version="1.1"
   x="0px"
   y="0px"
   width="19.339214"
   height="9.2987766"
   viewBox="0 0 19.339214 9.2987766"
   inkscape:version="0.48.4 r9939"
   sodipodi:docname="AvatarAssets_backSleeveUpperLeftD007.svg">
  <metadata
     id="metadata3253">
    <rdf:RDF>
      <cc:Work
         rdf:about="">
        <dc:format>image/svg+xml</dc:format>
        <dc:type
           rdf:resource="http://purl.org/dc/dcmitype/StillImage" />
      </cc:Work>
    </rdf:RDF>
  </metadata>
  <sodipodi:namedview
     pagecolor="#ffffff"
     bordercolor="#666666"
     borderopacity="1"
     objecttolerance="10"
     gridtolerance="10"
     guidetolerance="10"
     inkscape:pageopacity="0"
     inkscape:pageshadow="2"
     inkscape:window-width="640"
     inkscape:window-height="480"
     id="namedview3251"
     showgrid="false"
     fit-margin-top="0"
     fit-margin-left="0"
     fit-margin-right="0"
     fit-margin-bottom="0"
     inkscape:zoom="1.9032258"
     inkscape:cx="50.195844"
     inkscape:cy="-55.437372"
     inkscape:window-x="0"
     inkscape:window-y="0"
     inkscape:window-maximized="0"
     inkscape:current-layer="AvatarAssets" />
  <defs
     id="defs3231" />
  <g
     id="backSleeveUpperLeftD8"
     overflow="visible"
     style="overflow:visible"
     transform="translate(18.195844,2.7361484)">
    <g
       id="backSleeveUpperLeftD007_0">
      <g
         id="element">
        <g
           id="drawingObject">
          <path
             id="path"
             d="m -17.809,4.239 c 0.955,1.4 3.01,2.4 4.921,2.25 1.911,-0.2 3.679,-0.5 5.59,-0.85 1.911,-0.35 4.73,-2.15 6.498,-2.85 C 0.968,2.14 1.445,0.64 0.824,-0.86 c -0.669,-1.5 -3.344,-2 -5.733,-1.851 l -6.068,0.2 q -0.43,0.05 -1.815,-0.05 -1.004,-0.1 -1.529,0.2 c -0.956,0.5 -3.058,1.5 -3.201,2.15 -0.144,0.7 -1.243,3 -0.287,4.45 z"
             inkscape:connector-curvature="0"
             style="fill:#b80e1f" />
        </g>
        <g
           id="group1">
          <g
             id="drawingObject1">
            <path
               id="path1"
               d="m -15.898,3.639 c -0.048,0.9 -0.048,1.6 0,2.2 0.908,0.5 1.959,0.75 3.01,0.65 l 0.191,-0.05 c -0.621,-1.85 -1.72,-6.3 0.144,-8.65 l 0.239,-0.3 -0.669,-0.05 c -1.434,1.6 -2.867,3.8 -2.915,6.2 z"
               inkscape:connector-curvature="0"
               style="fill:#382833" />
          </g>
          <g
             id="drawingObject2">
            <path
               id="path2"
               d="m -4.097,-2.71 -1.72,0.099 c -0.525,0.85 -1.146,2.4 -1.003,4.4 0.048,1.95 0.286,3.05 0.43,3.6 0.716,-0.25 1.481,-0.6 2.245,-0.95 -0.286,-1.35 -0.621,-3.45 -0.286,-5.15 l 0.334,-1.999 z"
               inkscape:connector-curvature="0"
               style="fill:#382833" />
          </g>
          <g
             id="drawingObject3">
            <path
               id="path3"
               d="m -9.066,0.989 c 0.144,-1.5 0.669,-2.7 1.147,-3.55 l -2.389,0.05 c -0.478,1.1 -1.003,2.9 -0.812,5.15 0.143,1.9 0.525,2.95 0.86,3.5 l 1.959,-0.3 c -0.43,-1.05 -0.956,-2.85 -0.765,-4.85 z"
               inkscape:connector-curvature="0"
               style="fill:#382833" />
          </g>
        </g>
        <g
           id="drawingObject4">
          <path
             id="path4"
             d="m -12.835,6.55 c 1.912,-0.2 3.679,-0.5 5.59,-0.85 1.912,-0.35 4.73,-2.15 6.498,-2.85 q 1.29,-0.45 1.72,-1.5 0.383,-1 -0.095,-2.15 c -0.43,-0.9 -1.625,-1.45 -3.01,-1.7 -0.621,0.8 -1.195,2.1 -1.768,3.2 -0.812,1.5 -1.29,2 -2.341,2.35 -1.004,0.3 -0.717,0.15 -5.304,1.8 -1.72,0.65 -3.535,0.7 -5.255,0.449 1.051,0.85 2.532,1.351 3.965,1.251 z"
             inkscape:connector-curvature="0"
             style="fill:#000000;fill-opacity:0.08600003" />
        </g>
        <g
           id="drawingObject5">
          <path
             id="path5"
             d="m -12.835,6.55 c 1.912,-0.2 3.679,-0.5 5.59,-0.85 1.912,-0.35 4.73,-2.15 6.498,-2.85 1.72,-0.65 2.198,-2.1 1.625,-3.6 -0.812,-0.2 -1.672,-0.15 -2.246,0.6 q -1.72,2.4 -1.911,2.65 -0.956,1.25 -1.577,1.55 c -0.955,0.5 -2.866,0.65 -5.255,1.3 -1.529,0.45 -3.631,0.75 -4.969,0.9 0.717,0.25 1.481,0.35 2.245,0.3 z"
             inkscape:connector-curvature="0"
             style="fill:#000000;fill-opacity:0.08600003" />
        </g>
        <g
           id="drawingObject6">
          <path
             id="path6"
             d="m -15.94,0.1 c 0.382,-0.55 2.532,-1.65 2.532,-1.65 l -0.143,0.45 0.143,-0.45 c 0,0 -0.382,1 0.096,0.75 0.478,-0.25 0.812,-1.35 0.812,-1.35 0,0 0.239,-0.5 -1.147,0 q -0.525,0.2 -1.242,0.75 -0.716,0.55 -0.908,0.85 c -0.238,0.4 -0.525,1.15 -0.143,0.65 z"
             inkscape:connector-curvature="0"
             style="fill:#000000;fill-opacity:0.2" />
        </g>
      </g>
    </g>
  </g>
</svg>
