<?xml version="1.0" encoding="UTF-8" standalone="no"?>
<!-- Generator: flash2svg, http://dissentgraphics.com/tools/flash2svg -->

<svg
   xmlns:dc="http://purl.org/dc/elements/1.1/"
   xmlns:cc="http://creativecommons.org/ns#"
   xmlns:rdf="http://www.w3.org/1999/02/22-rdf-syntax-ns#"
   xmlns:svg="http://www.w3.org/2000/svg"
   xmlns="http://www.w3.org/2000/svg"
   xmlns:sodipodi="http://sodipodi.sourceforge.net/DTD/sodipodi-0.dtd"
   xmlns:inkscape="http://www.inkscape.org/namespaces/inkscape"
   id="AvatarAssets"
   image-rendering="auto"
   version="1.1"
   x="0px"
   y="0px"
   width="12.537183"
   height="13.173953"
   viewBox="0 0 12.537183 13.173953"
   inkscape:version="0.48.4 r9939"
   sodipodi:docname="AvatarAssets_backSleeveLowerLeftD007.svg">
  <metadata
     id="metadata3194">
    <rdf:RDF>
      <cc:Work
         rdf:about="">
        <dc:format>image/svg+xml</dc:format>
        <dc:type
           rdf:resource="http://purl.org/dc/dcmitype/StillImage" />
      </cc:Work>
    </rdf:RDF>
  </metadata>
  <sodipodi:namedview
     pagecolor="#ffffff"
     bordercolor="#666666"
     borderopacity="1"
     objecttolerance="10"
     gridtolerance="10"
     guidetolerance="10"
     inkscape:pageopacity="0"
     inkscape:pageshadow="2"
     inkscape:window-width="640"
     inkscape:window-height="480"
     id="namedview3192"
     showgrid="false"
     fit-margin-top="0"
     fit-margin-left="0"
     fit-margin-right="0"
     fit-margin-bottom="0"
     inkscape:zoom="1.9032258"
     inkscape:cx="41.155183"
     inkscape:cy="-59.553952"
     inkscape:window-x="0"
     inkscape:window-y="0"
     inkscape:window-maximized="0"
     inkscape:current-layer="AvatarAssets" />
  <defs
     id="defs3177" />
  <g
     id="backSleeveLowerLeftD8"
     overflow="visible"
     style="overflow:visible"
     transform="translate(9.1551833,10.727906)">
    <g
       id="backSleeveLowerLeftD007_0">
      <g
         id="element">
        <g
           id="drawingObject">
          <path
             id="path"
             d="m -0.535,-8.571 c -0.164,-2.378 -3.487,-2.309 -5.477,-2.006 -1.995,0.352 -3.647,2.297 -3.001,4.372 0.144,0.567 0.119,-0.189 0.562,0.91 0.437,1.15 -0.632,-0.214 0.303,0.986 0.94,1.149 2.661,4.035 4.685,5.394 C -1.438,2.444 1.094,3.25 2.786,0.907 4.428,-1.44 2.061,-4.391 1.618,-4.486 1.175,-4.581 0.992,-6.257 0.37,-7.073 q -0.403,-0.493 -0.701,-1.025 l -0.204,-0.473 z"
             inkscape:connector-curvature="0"
             style="fill:#b80e1f" />
        </g>
        <g
           id="drawingObject1">
          <path
             id="path1"
             d="m -6.377,-1.921 c 1.105,-2.502 4.339,-4.188 6.742,-5.103 L 0.37,-7.073 c -0.363,-0.388 -0.622,-0.816 -0.741,-1.13 -3.652,0.337 -6.304,2.232 -7.777,3.894 l 1.771,2.388 z"
             inkscape:connector-curvature="0"
             style="fill:#382833" />
        </g>
        <g
           id="drawingObject2">
          <path
             id="path2"
             d="m -0.233,-7.946 -0.204,-0.473 c -0.163,-2.378 -2.541,-1.712 -4.537,-1.359 l -0.462,0.104 1.806,0.533 c 1.313,0.433 0.999,0.552 0.95,1.05 -0.05,0.497 -0.782,0.776 -1.493,1.357 -0.712,0.582 -0.687,1.841 -0.493,1.408 0.244,-0.427 2.249,-0.88 2.945,-0.81 l 0.647,0.065 c 0,0 -2.453,1.412 -2.717,2.039 L -4.01,-3.35 -2.871,-3.688 -4.01,-3.35 c 0,0 1.96,-1.01 3.119,0.463 1.209,1.478 -0.299,1.478 2.323,1.891 0.741,0.125 1.413,-0.059 1.95,-0.407 Q 3.233,-2.423 2.577,-3.393 2.01,-4.254 1.717,-4.334 C 1.274,-4.429 1.09,-6.105 0.469,-6.921 -0.158,-7.688 -0.437,-8.419 -0.437,-8.419"
             inkscape:connector-curvature="0"
             style="fill:#000000;fill-opacity:0.08600003" />
        </g>
        <g
           id="drawingObject3">
          <path
             id="path3"
             d="m -0.587,-8.519 c -0.109,1.094 -0.04,1.403 -1.284,2.283 q -0.811,0.572 -1.448,2.418 -0.294,0.925 -0.473,1.711 L -4.673,0.166 C -4.31,0.555 -3.942,0.893 -3.514,1.137 -1.49,2.496 1.042,3.302 2.734,0.959 4.377,-1.388 2.009,-4.339 1.567,-4.434 1.124,-4.529 0.94,-6.205 0.319,-7.021 -0.308,-7.788 -0.587,-8.519 -0.587,-8.519 z"
             inkscape:connector-curvature="0"
             style="fill:#000000;fill-opacity:0.08600003" />
        </g>
        <g
           id="drawingObject4">
          <path
             id="path4"
             d="m -7.084,-5.267 c 0.473,-0.706 1.393,-1.367 2.811,-1.979 2.687,-1.238 4.055,-0.347 4.055,-0.347 0,0 -0.512,-0.906 -0.91,-0.946 q -1.741,-0.174 -3.826,1.074 c -0.752,0.477 -1.359,1.019 -1.822,1.626 l -0.308,0.572 z"
             inkscape:connector-curvature="0"
             style="fill:#000000;fill-opacity:0.08600003" />
        </g>
      </g>
    </g>
  </g>
</svg>
