<?xml version="1.0" encoding="UTF-8" standalone="no"?>
<!-- Generator: flash2svg, http://dissentgraphics.com/tools/flash2svg -->

<svg
   xmlns:dc="http://purl.org/dc/elements/1.1/"
   xmlns:cc="http://creativecommons.org/ns#"
   xmlns:rdf="http://www.w3.org/1999/02/22-rdf-syntax-ns#"
   xmlns:svg="http://www.w3.org/2000/svg"
   xmlns="http://www.w3.org/2000/svg"
   xmlns:sodipodi="http://sodipodi.sourceforge.net/DTD/sodipodi-0.dtd"
   xmlns:inkscape="http://www.inkscape.org/namespaces/inkscape"
   id="AvatarAssets"
   image-rendering="auto"
   version="1.1"
   x="0px"
   y="0px"
   width="11.105984"
   height="12.000125"
   viewBox="0 0 11.105984 12.000125"
   inkscape:version="0.48.4 r9939"
   sodipodi:docname="AvatarAssets_backSleeveLowerLeft20101103Black3.svg">
  <metadata
     id="metadata3051">
    <rdf:RDF>
      <cc:Work
         rdf:about="">
        <dc:format>image/svg+xml</dc:format>
        <dc:type
           rdf:resource="http://purl.org/dc/dcmitype/StillImage" />
      </cc:Work>
    </rdf:RDF>
  </metadata>
  <sodipodi:namedview
     pagecolor="#ffffff"
     bordercolor="#666666"
     borderopacity="1"
     objecttolerance="10"
     gridtolerance="10"
     guidetolerance="10"
     inkscape:pageopacity="0"
     inkscape:pageshadow="2"
     inkscape:window-width="640"
     inkscape:window-height="480"
     id="namedview3049"
     showgrid="false"
     fit-margin-top="0"
     fit-margin-left="0"
     fit-margin-right="0"
     fit-margin-bottom="0"
     inkscape:zoom="1.9032258"
     inkscape:cx="39.618034"
     inkscape:cy="-59.34"
     inkscape:window-x="0"
     inkscape:window-y="0"
     inkscape:window-maximized="0"
     inkscape:current-layer="AvatarAssets" />
  <defs
     id="defs3040" />
  <g
     id="backSleeveLowerLeft20101103Black4"
     overflow="visible"
     style="overflow:visible"
     transform="translate(7.618034,9.3401251)">
    <g
       id="backSleeveLowerLeft20101103Black3_0">
      <g
         id="element">
        <path
           id="path"
           d="m 0.65,-6.8 c 0.1,-0.25 0.05,-0.45 -0.15,-0.65 0.1,0.35 0.15,0.4 0.15,0.5 -0.45,-0.3 -1.2,-0.45 -1.5,-0.4 -0.3,0.1 -0.6,0.25 -0.85,0.45 0.4,-0.3 0.95,-0.4 1.55,-0.3 0.35,0.05 0.5,0.15 0.8,0.4 z m 2.3,3.1 C 2.55,-4.6 1.4,-5.7 0.5,-6.55 l 0.75,0.7 -0.75,-0.7 C 0.35,-6.7 0.1,-6.8 -0.3,-6.9 l 0.05,0.05 c -1.8,0.3 -1.8,2.3 -2.65,3.85 0.35,0.15 0.7,0.35 0.95,0.65 l 0.2,-0.15 c 0.2,0.45 0.9,1.15 1.3,1.3 0.6,0.2 0.75,0.1 1.25,0.25 0.75,0.2 0.55,0.8 1.55,0.25 0.45,-0.25 0.8,-0.65 1.1,-1.1 0.1,0.9 -0.1,1.85 -0.85,2.65 l -0.15,0.2 c 1.5,-1.5 1.1,-3.35 0.5,-4.75 z M -4.7,-6.5 c 0.45,-0.25 1.05,-0.75 1.55,-0.8 -0.65,0.75 -1.9,1.55 -2.15,2.55 0.7,-0.4 1.2,-1.1 1.9,-1.55 l 0.95,-0.65 0.95,-0.35 c 0.5,-0.2 0.65,-0.15 1.15,-0.2 L -0.5,-7.8 c 0.05,-0.2 0,-0.55 -0.1,-0.8 -0.3,-0.4 -0.55,-0.65 -0.75,-0.7 -0.3,-0.15 -2.6,0.1 -3.75,1.1 -1.2,1.1 -2.1,2.05 -2.35,2.75 l 0.3,-0.5 0.5,-0.7 -0.1,0.3 c 0.4,-0.4 0.75,-0.8 1.2,-1.15 -0.1,0.45 -0.45,1 -0.4,1.55 0.35,-0.15 0.6,-0.55 0.95,-0.8 0.3,-0.2 0.7,-0.35 1,-0.45 l -0.7,0.7 z m 1.85,0.4 -0.1,0.15 0.95,-0.8 c -0.3,0.15 -0.6,0.4 -0.85,0.65 z"
           inkscape:connector-curvature="0"
           style="fill:#2a2b2b" />
        <path
           id="path1"
           d="m 0.5,-6.55 c 0,0 0.1,-0.1 0.15,-0.25 -0.3,-0.25 -0.45,-0.35 -0.8,-0.4 -0.6,-0.1 -1.15,0 -1.55,0.3 l -0.05,0 -0.1,0.05 c -0.05,0 -0.05,0 -0.1,0.05 l -0.05,0 0,0.05 -0.95,0.8 c -0.65,0.6 -1.2,1.25 -1.8,1.9 -0.2,0.3 -0.7,1.3 -1.15,1.25 -0.6,-0.15 -0.45,-1.15 -0.8,-1.5 -0.55,0.55 -0.65,0.55 -0.85,-0.1 L -7.6,-4.5 c -0.05,0.6 0,0.95 0.2,1.1 0.2,0.25 1,0.95 1.2,1.35 0.05,0.1 0.1,0.2 0.15,0.25 l 1.6,1.85 c 1.15,1.25 1.95,2 2.5,2.25 q 1.1,0.6 2.3,0.2 C 0.75,2.35 1.1,2.2 1.45,1.95 l -0.05,0 C 0.35,1.6 -1,1.8 -1.95,1.1 -2.9,0.4 -4,-0.3 -4.6,-1.35 -4.8,-1.7 -4.9,-2.15 -4.95,-2.6 -4.9,-2.75 -4.9,-2.85 -4.85,-3 l 0.65,-1.15 c 0.05,-0.1 0.15,-0.2 0.25,-0.3 l 0,-0.05 c 1.6,-2.05 2.9,-2.5 3.55,-2.4 l 0.1,0 c 0.4,0.1 0.65,0.2 0.8,0.35 z"
           inkscape:connector-curvature="0"
           style="fill:#0f0f0f" />
        <path
           id="path2"
           d="M 0.5,-7.45 0.45,-7.5 C 0,-7.9 -0.15,-7.9 -0.5,-8.45 -0.55,-8.5 -0.55,-8.55 -0.6,-8.6 c 0.1,0.25 0.15,0.6 0.1,0.8 l 0.15,0.3 c -0.5,0.05 -0.65,0 -1.15,0.2 l -0.95,0.35 -0.95,0.65 c -0.7,0.45 -1.2,1.15 -1.9,1.55 0.25,-1 1.5,-1.8 2.15,-2.55 -0.5,0.05 -1.1,0.55 -1.55,0.8 L -4,-7.2 c -0.3,0.1 -0.7,0.25 -1,0.45 -0.35,0.25 -0.6,0.65 -0.95,0.8 -0.05,-0.55 0.3,-1.1 0.4,-1.55 -0.45,0.35 -0.8,0.75 -1.2,1.15 l 0.1,-0.3 -0.5,0.7 c 0,0.3 0.1,0.65 0.35,0.85 l 0.6,-0.35 c -0.15,0.65 0.3,0.55 0.4,1 0.1,0.45 -0.4,0.9 0.4,0.55 0.85,-0.4 1.65,-1.4 2.4,-2.05 l 0.05,0 0.1,-0.15 C -2.6,-6.35 -2.3,-6.6 -2,-6.75 l 0,-0.05 0.05,0 c 0.05,-0.05 0.05,-0.05 0.1,-0.05 l 0.1,-0.05 0.05,0 c 0.25,-0.2 0.55,-0.35 0.85,-0.45 0.3,-0.05 1.05,0.1 1.5,0.4 0,-0.1 -0.05,-0.15 -0.15,-0.5 z M 3.45,-1.8 C 3.15,-1.35 2.8,-0.95 2.35,-0.7 1.35,-0.15 1.55,-0.75 0.8,-0.95 0.3,-1.1 0.15,-1 -0.45,-1.2 c -0.4,-0.15 -1.1,-0.85 -1.3,-1.3 l -0.2,0.15 c -0.25,-0.3 -0.6,-0.5 -0.95,-0.65 0.85,-1.55 0.85,-3.55 2.65,-3.85 l -0.05,-0.05 -0.1,0 c -0.65,-0.1 -1.95,0.35 -3.55,2.4 l 0,0.05 C -4.1,-4.2 -4.15,-4 -4.2,-3.8 c -0.15,1.05 0.45,1.55 1.1,2.25 0.6,0.65 1.45,1.95 2.3,2.25 0.6,0.2 1.7,0 2.35,0 L 2.6,0.85 C 3.35,0.05 3.55,-0.9 3.45,-1.8 z"
           inkscape:connector-curvature="0"
           style="fill:#202121" />
        <path
           id="path7"
           d="m 1.45,1.95 c 0.3,-0.25 0.65,-0.5 1,-0.9 L 2.6,0.85 1.55,0.7 c -0.65,0 -1.75,0.2 -2.35,0 -0.85,-0.3 -1.7,-1.6 -2.3,-2.25 -0.65,-0.7 -1.25,-1.2 -1.1,-2.25 0.05,-0.2 0.1,-0.4 0.25,-0.65 -0.1,0.1 -0.2,0.2 -0.25,0.3 L -4.85,-3 c -0.05,0.15 -0.05,0.25 -0.1,0.4 0.05,0.45 0.15,0.9 0.35,1.25 C -4,-0.3 -2.9,0.4 -1.95,1.1 -1,1.8 0.35,1.6 1.4,1.95 l 0.05,0 z m -7.25,-6.4 c -0.1,-0.45 -0.55,-0.35 -0.4,-1 l -0.6,0.35 c -0.25,-0.2 -0.35,-0.55 -0.35,-0.85 l -0.3,0.5 c -0.05,0.3 -0.1,0.6 -0.15,0.9 l 0,0.05 0.05,0.1 c 0.2,0.65 0.3,0.65 0.85,0.1 0.35,0.35 0.2,1.35 0.8,1.5 0.45,0.05 0.95,-0.95 1.15,-1.25 0.6,-0.65 1.15,-1.3 1.8,-1.9 l -0.05,0 C -3.75,-5.3 -4.55,-4.3 -5.4,-3.9 -6.2,-3.55 -5.7,-4 -5.8,-4.45 z"
           inkscape:connector-curvature="0"
           style="fill:#161717" />
      </g>
    </g>
  </g>
</svg>
