<?xml version="1.0" encoding="UTF-8" standalone="no"?>
<!-- Generator: flash2svg, http://dissentgraphics.com/tools/flash2svg -->

<svg
   xmlns:dc="http://purl.org/dc/elements/1.1/"
   xmlns:cc="http://creativecommons.org/ns#"
   xmlns:rdf="http://www.w3.org/1999/02/22-rdf-syntax-ns#"
   xmlns:svg="http://www.w3.org/2000/svg"
   xmlns="http://www.w3.org/2000/svg"
   xmlns:sodipodi="http://sodipodi.sourceforge.net/DTD/sodipodi-0.dtd"
   xmlns:inkscape="http://www.inkscape.org/namespaces/inkscape"
   id="AvatarAssets"
   image-rendering="auto"
   version="1.1"
   x="0px"
   y="0px"
   width="19.343376"
   height="9.2403364"
   viewBox="0 0 19.343376 9.2403364"
   inkscape:version="0.48.4 r9939"
   sodipodi:docname="AvatarAssets_backSleeveUpperLeftA011.svg">
  <metadata
     id="metadata3145">
    <rdf:RDF>
      <cc:Work
         rdf:about="">
        <dc:format>image/svg+xml</dc:format>
        <dc:type
           rdf:resource="http://purl.org/dc/dcmitype/StillImage" />
      </cc:Work>
    </rdf:RDF>
  </metadata>
  <sodipodi:namedview
     pagecolor="#ffffff"
     bordercolor="#666666"
     borderopacity="1"
     objecttolerance="10"
     gridtolerance="10"
     guidetolerance="10"
     inkscape:pageopacity="0"
     inkscape:pageshadow="2"
     inkscape:window-width="640"
     inkscape:window-height="480"
     id="namedview3143"
     showgrid="false"
     fit-margin-top="0"
     fit-margin-left="0"
     fit-margin-right="0"
     fit-margin-bottom="0"
     inkscape:zoom="1.9032258"
     inkscape:cx="50.184512"
     inkscape:cy="-55.484111"
     inkscape:window-x="0"
     inkscape:window-y="0"
     inkscape:window-maximized="0"
     inkscape:current-layer="AvatarAssets" />
  <defs
     id="defs3130" />
  <g
     id="backSleeveUpperLeftA12"
     overflow="visible"
     style="overflow:visible"
     transform="translate(18.184512,2.7244475)">
    <g
       id="backSleeveUpperLeftA011_0">
      <g
         id="element">
        <g
           id="drawingObject">
          <path
             id="path"
             d="m -17.797,4.251 c 0.959,1.4 3.019,2.4 4.936,2.25 1.917,-0.2 3.69,-0.5 5.607,-0.85 1.917,-0.35 4.744,-2.15 6.517,-2.85 1.773,-0.65 2.253,-2.15 1.63,-3.65 -0.671,-1.5 -3.355,-2 -5.751,-1.85 l -6.086,0.2 q -0.431,0.05 -1.821,-0.05 -1.006,-0.1 -1.534,0.2 c -0.958,0.5 -3.067,1.5 -3.21,2.15 -0.144,0.7 -1.246,3 -0.288,4.45 z"
             inkscape:connector-curvature="0"
             style="fill:#ab7ffa" />
        </g>
        <g
           id="drawingObject1">
          <path
             id="path1"
             d="m 0.893,-0.849 c -0.432,-0.9 -1.63,-1.45 -3.019,-1.7 -0.623,0.8 -1.199,2.1 -1.774,3.2 -0.814,1.5 -1.293,2 -2.348,2.35 -1.006,0.3 -0.719,0.15 -5.319,1.8 -1.725,0.65 -3.546,0.7 -5.271,0.45 1.054,0.85 2.539,1.35 3.977,1.25 1.917,-0.2 3.69,-0.5 5.607,-0.85 1.917,-0.35 4.744,-2.15 6.517,-2.85 q 1.294,-0.45 1.725,-1.5 0.384,-1 -0.095,-2.15 z"
             inkscape:connector-curvature="0"
             style="fill:#9972e2" />
        </g>
        <g
           id="drawingObject2">
          <path
             id="path2"
             d="m 0.893,-0.799 c -0.815,-0.2 -1.678,-0.15 -2.253,0.6 q -1.725,2.4 -1.917,2.65 -0.958,1.25 -1.581,1.55 c -0.958,0.5 -2.875,0.65 -5.271,1.3 -1.534,0.45 -3.642,0.75 -4.984,0.9 0.719,0.25 1.485,0.35 2.252,0.3 1.917,-0.2 3.69,-0.5 5.607,-0.85 1.917,-0.35 4.744,-2.15 6.517,-2.85 1.725,-0.65 2.205,-2.1 1.63,-3.6 z"
             inkscape:connector-curvature="0"
             style="fill:#815fbe" />
        </g>
        <g
           id="drawingObject3">
          <path
             id="path3"
             d="m -15.976,0.051 c 0.384,-0.55 2.54,-1.65 2.54,-1.65 l -0.144,0.45 0.144,-0.45 c 0,0 -0.383,1 0.096,0.75 0.479,-0.25 0.815,-1.35 0.815,-1.35 0,0 0.239,-0.5 -1.151,0 q -0.527,0.2 -1.246,0.75 -0.718,0.55 -0.91,0.85 c -0.24,0.4 -0.527,1.15 -0.144,0.65 z"
             inkscape:connector-curvature="0"
             style="fill:#9972e2" />
        </g>
      </g>
    </g>
  </g>
</svg>
