<?xml version="1.0" encoding="UTF-8" standalone="no"?>
<!-- Generator: flash2svg, http://dissentgraphics.com/tools/flash2svg -->

<svg
   xmlns:dc="http://purl.org/dc/elements/1.1/"
   xmlns:cc="http://creativecommons.org/ns#"
   xmlns:rdf="http://www.w3.org/1999/02/22-rdf-syntax-ns#"
   xmlns:svg="http://www.w3.org/2000/svg"
   xmlns="http://www.w3.org/2000/svg"
   xmlns:sodipodi="http://sodipodi.sourceforge.net/DTD/sodipodi-0.dtd"
   xmlns:inkscape="http://www.inkscape.org/namespaces/inkscape"
   id="AvatarAssets"
   image-rendering="auto"
   version="1.1"
   x="0px"
   y="0px"
   width="12.822474"
   height="12.559084"
   viewBox="0 0 12.822474 12.559084"
   inkscape:version="0.48.4 r9939"
   sodipodi:docname="AvatarAssets_backSleeveLowerLeftA011b.svg">
  <metadata
     id="metadata3133">
    <rdf:RDF>
      <cc:Work
         rdf:about="">
        <dc:format>image/svg+xml</dc:format>
        <dc:type
           rdf:resource="http://purl.org/dc/dcmitype/StillImage" />
      </cc:Work>
    </rdf:RDF>
  </metadata>
  <sodipodi:namedview
     pagecolor="#ffffff"
     bordercolor="#666666"
     borderopacity="1"
     objecttolerance="10"
     gridtolerance="10"
     guidetolerance="10"
     inkscape:pageopacity="0"
     inkscape:pageshadow="2"
     inkscape:window-width="640"
     inkscape:window-height="480"
     id="namedview3131"
     showgrid="false"
     fit-margin-top="0"
     fit-margin-left="0"
     fit-margin-right="0"
     fit-margin-bottom="0"
     inkscape:zoom="1.9032258"
     inkscape:cx="41.347209"
     inkscape:cy="-59.580155"
     inkscape:window-x="0"
     inkscape:window-y="0"
     inkscape:window-maximized="0"
     inkscape:current-layer="AvatarAssets" />
  <defs
     id="defs3118" />
  <g
     id="backSleeveLowerLeftA011b1"
     overflow="visible"
     style="overflow:visible"
     transform="translate(9.3472086,10.139239)">
    <g
       id="backSleeveLowerLeftA011b_0">
      <g
         id="element">
        <g
           id="drawingObject">
          <path
             id="path"
             d="m -0.557,-8.046 -0.226,-0.463 c -0.278,-2.367 -2.621,-1.588 -4.597,-1.141 -1.976,0.448 -4.035,3.445 -3.759,3.91 0.224,0.512 -0.531,-0.378 -0.037,0.699 0.443,1.124 0,0 0.992,1.153 0.994,1.103 2.85,3.904 4.937,5.164 C -1.159,2.537 1.408,3.221 2.987,0.8 4.515,-1.623 2.009,-4.458 1.562,-4.531 1.116,-4.604 0.852,-6.27 0.192,-7.056 q -0.426,-0.473 -0.749,-0.99 z"
             inkscape:connector-curvature="0"
             style="fill:#a3ea74" />
        </g>
        <g
           id="drawingObject1">
          <path
             id="path1"
             d="m -0.557,-8.046 -0.226,-0.463 c -0.278,-2.367 -2.621,-1.588 -4.597,-1.141 l -0.457,0.127 1.829,0.446 c 1.332,0.37 1.025,0.504 0.999,1.003 -0.026,0.499 -0.743,0.812 -1.426,1.428 -0.683,0.615 -0.599,1.871 -0.426,1.429 0.224,-0.439 2.205,-0.986 2.904,-0.95 l 0.649,0.034 c 0,0 -2.383,1.528 -2.616,2.167 l -0.187,0.691 1.122,-0.392 -1.122,0.392 c 0,0 1.91,-1.102 3.138,0.314 1.278,1.419 -0.228,1.49 2.411,1.778 0.746,0.089 1.408,-0.127 1.929,-0.5 Q 3.169,-2.695 2.467,-3.633 1.859,-4.465 1.562,-4.531 C 1.116,-4.604 0.852,-6.27 0.192,-7.056 -0.47,-7.791 -0.783,-8.509 -0.783,-8.509"
             inkscape:connector-curvature="0"
             style="fill:#8ecb65" />
        </g>
        <g
           id="drawingObject2">
          <path
             id="path2"
             d="m -0.783,-8.509 c -0.058,1.099 0.026,1.404 -1.174,2.342 q -0.783,0.61 -1.331,2.484 -0.25,0.939 -0.391,1.732 l -0.772,2.313 c 0.382,0.371 0.765,0.691 1.204,0.914 C -1.159,2.537 1.408,3.221 2.987,0.8 4.515,-1.623 2.009,-4.458 1.562,-4.531 1.116,-4.604 0.852,-6.27 0.192,-7.056 -0.47,-7.791 -0.783,-8.509 -0.783,-8.509 z"
             inkscape:connector-curvature="0"
             style="fill:#75a853" />
        </g>
        <g
           id="drawingObject3">
          <path
             id="path3"
             d="m -7.273,-5.042 c 0.439,-0.728 1.327,-1.433 2.714,-2.111 2.624,-1.366 4.033,-0.541 4.033,-0.541 0,0 -0.554,-0.88 -0.954,-0.901 -0.449,-0.023 -2.008,0.096 -3.77,1.255 q -1.091,0.744 -1.742,1.712 l -0.281,0.586 z"
             inkscape:connector-curvature="0"
             style="fill:#75a853" />
        </g>
      </g>
    </g>
  </g>
</svg>
