<?xml version="1.0" encoding="UTF-8" standalone="no"?>
<!-- Generator: flash2svg, http://dissentgraphics.com/tools/flash2svg -->

<svg
   xmlns:dc="http://purl.org/dc/elements/1.1/"
   xmlns:cc="http://creativecommons.org/ns#"
   xmlns:rdf="http://www.w3.org/1999/02/22-rdf-syntax-ns#"
   xmlns:svg="http://www.w3.org/2000/svg"
   xmlns="http://www.w3.org/2000/svg"
   xmlns:sodipodi="http://sodipodi.sourceforge.net/DTD/sodipodi-0.dtd"
   xmlns:inkscape="http://www.inkscape.org/namespaces/inkscape"
   id="AvatarAssets"
   image-rendering="auto"
   version="1.1"
   x="0px"
   y="0px"
   width="13.55"
   height="14.411485"
   viewBox="0 0 13.55 14.411485"
   inkscape:version="0.48.4 r9939"
   sodipodi:docname="AvatarAssets_backHoodieSleeveLowerLeft20101122.svg">
  <metadata
     id="metadata3007">
    <rdf:RDF>
      <cc:Work
         rdf:about="">
        <dc:format>image/svg+xml</dc:format>
        <dc:type
           rdf:resource="http://purl.org/dc/dcmitype/StillImage" />
      </cc:Work>
    </rdf:RDF>
  </metadata>
  <sodipodi:namedview
     pagecolor="#ffffff"
     bordercolor="#666666"
     borderopacity="1"
     objecttolerance="10"
     gridtolerance="10"
     guidetolerance="10"
     inkscape:pageopacity="0"
     inkscape:pageshadow="2"
     inkscape:window-width="640"
     inkscape:window-height="480"
     id="namedview3005"
     showgrid="false"
     fit-margin-top="0"
     fit-margin-left="0"
     fit-margin-right="0"
     fit-margin-bottom="0"
     inkscape:zoom="1.9032258"
     inkscape:cx="42.1"
     inkscape:cy="-59.701282"
     inkscape:window-x="0"
     inkscape:window-y="0"
     inkscape:window-maximized="0"
     inkscape:current-layer="AvatarAssets" />
  <defs
     id="defs2994" />
  <g
     id="backHoodieSleeveLowerLeft20101123"
     overflow="visible"
     style="overflow:visible"
     transform="translate(10.1,12.112767)">
    <g
       id="backHoodieSleeveLowerLeft20101122_0">
      <g
         id="element">
        <path
           id="path"
           d="m 0.65,-6.2 c -0.7,-0.85 -1.4,-1.8 -1.5,-2.15 -0.15,-0.55 -0.6,-1.8 -1.1,-2.1 0.35,-2.5 -4.3,-1.7 -6,-0.7 0.35,-0.2 0.85,-0.4 1.4,-0.55 -0.45,0.2 -0.85,0.45 -1.15,0.75 -0.25,0.25 -1.05,1.1 -1.15,1.4 -0.2,0.6 0.45,0.5 0.75,0.5 0.15,-0.15 0.25,-0.3 0.35,-0.35 0,-0.15 0,-0.35 0,-0.55 l -0.1,-0.45 c 0.4,0.05 0.7,0.3 0.95,0.35 -0.2,0.2 -0.4,0.4 -0.5,0.65 0.5,0.25 1.4,-0.25 1.95,-0.35 l 1.4,-0.05 c -0.75,0.15 -2.9,0.9 -2.75,2.1 0.05,0.25 0.4,0.55 0.5,0.9 0.15,0.35 0.2,0.85 0.45,1.15 0.65,0.8 2.2,0.55 3,0.35 0.6,-0.15 1.25,-0.25 1.9,-0.3 0.45,-0.45 1.05,-0.7 1.6,-0.6 z m -5.65,-5.45 0.25,0.15 c 0.15,0.1 0.3,0.35 0.35,0.4 l -0.05,-0.05 0.05,0.05 c -0.1,0 -0.3,0.05 -0.65,0.1 C -5,-11.1 -5,-11.35 -5,-11.65 z m 7.95,8.2 c 0.3,0.65 0.45,1.4 0.5,1.85 C 3.4,-2.15 3.25,-2.8 3,-3.35 l -0.05,-0.1 z m -0.9,-1.1 C 1.9,-4.75 1.7,-4.95 1.55,-5.1 l 0.15,0.2 0.35,0.35 z M 1.9,1.7 c -0.75,0.5 -1.7,0.7 -2.95,0.55 0.5,0 0.8,0.05 1.1,0 C 0.7,2.2 1.35,2.05 1.9,1.7 z M 3.05,0.35 c 0.1,-0.2 0.2,-0.4 0.3,-0.65 C 3.2,0.25 2.9,0.75 2.5,1.2 2.7,0.95 2.9,0.65 3.05,0.35 z"
           inkscape:connector-curvature="0"
           style="fill:#858585" />
        <path
           id="path1"
           d="m -2.95,-11 -0.15,-0.6 c 0,0.25 -0.05,0.45 -0.1,0.6 0.25,0.05 0.25,0.05 0.25,0.05 l 0,-0.05 z"
           inkscape:connector-curvature="0"
           style="fill:#3b3b3b" />
        <path
           id="path2"
           d="m -2.95,-11 0,0.05 c 0.5,0.15 0.7,0.3 0.6,0.25 -0.2,-0.3 -0.45,-0.45 -0.6,-0.3 z m -3.4,-0.3 0,0.1 c 0.2,0.2 0.25,0.4 0.5,0.5 0.2,-0.1 0.25,-0.1 0.3,-0.1 -0.15,-0.05 -0.4,-0.45 -0.8,-0.5 z M 1.7,-4.9 1.55,-5.1 0.65,-6.2 c -0.55,-0.1 -1.15,0.15 -1.6,0.6 l -0.25,0.35 -0.15,0.3 0.3,0.5 c -0.95,-0.2 -1.9,0 -2.75,0.8 -0.55,0.6 -0.75,1.4 -1.7,1.2 -1.05,-0.25 -1.65,-1.2 -2.05,-2.1 -0.3,-0.7 -0.65,-1.25 -1.05,-1.95 -0.3,-0.55 -0.25,-0.95 -0.25,-1.55 -0.3,0.4 -0.5,0.8 -0.7,1.2 -0.05,0.6 -0.1,1.15 0.3,1.65 0.55,0.6 1.15,1.05 1.65,1.7 0.55,0.7 2.25,3.25 3.25,3 0.05,-0.2 0.2,-0.3 0.4,-0.4 0.55,0.8 1,1.5 1.85,2.05 l 2.15,1.1 C 0.7,2.2 1.35,2.05 1.9,1.7 L 2.25,1.45 2.5,1.2 C 2.7,0.95 2.9,0.65 3.05,0.35 L 2.45,-1.3 C 2.3,-1.8 2,-2.35 1.6,-2.8 L 1.7,-2.9 C 1.85,-3.15 1.85,-3.85 1.8,-4.5 L 1.7,-4.9 z m -9.65,-6.25 c -0.6,0.4 -1.05,0.85 -1.35,1.3 -0.1,0.15 -0.15,0.25 -0.2,0.3 l 0,0.05 c -0.05,0.4 0,0.85 0.2,1.05 0.15,0.15 0.4,0.2 0.6,0.2 0.1,-0.2 0.2,-0.35 0.4,-0.55 0.05,-0.05 0.05,-0.05 0.1,-0.1 l 0.1,-0.15 c -0.3,0 -0.95,0.1 -0.75,-0.5 0.1,-0.3 0.9,-1.15 1.15,-1.4 0.3,-0.3 0.7,-0.55 1.15,-0.75 -0.55,0.15 -1.05,0.35 -1.4,0.55 z m 0.35,1.6 c 0,0 -0.1,-0.2 -0.15,-0.4 0,0.2 0,0.4 0,0.55 0.05,-0.05 0.1,-0.1 0.15,-0.15 z"
           inkscape:connector-curvature="0"
           style="fill:#4f4f4f" />
        <path
           id="path3"
           d="m -5,-11.65 c 0,0.3 0,0.55 -0.05,0.65 0.35,-0.05 0.55,-0.1 0.65,-0.1 l -0.05,-0.05 0.05,0.05 c -0.05,-0.05 -0.2,-0.3 -0.35,-0.4 L -5,-11.65 z m -1.35,0.45 -0.15,-0.1 -0.05,1 c 0.25,-0.25 0.5,-0.35 0.7,-0.4 -0.25,-0.1 -0.3,-0.3 -0.5,-0.5 z m -0.75,1.25 c 0.05,-0.05 0.1,-0.1 0.2,-0.1 -0.25,-0.05 -0.55,-0.3 -0.95,-0.35 l 0.1,0.45 c 0.05,0.2 0.15,0.4 0.15,0.4 0.2,-0.15 0.35,-0.3 0.5,-0.4 z m -2.4,0.45 0,-0.05 c -0.1,0.15 -0.15,0.35 -0.2,0.5 l -0.25,1.6 q 0,0.65 0.25,0.9 c -0.2,0.45 -0.3,0.8 -0.35,1.1 l -0.05,0.25 c 0,0.85 1.05,1.65 1.7,2.3 0.6,0.65 2.6,3.2 4,4.05 0.95,0.55 1.95,0.9 2.95,1.05 l 0.4,0.05 c 0.5,0 0.8,0.05 1.1,0 L -2.1,1.15 C -2.95,0.6 -3.4,-0.1 -3.95,-0.9 c -0.2,0.1 -0.35,0.2 -0.4,0.4 -1,0.25 -2.7,-2.3 -3.25,-3 -0.5,-0.65 -1.1,-1.1 -1.65,-1.7 -0.4,-0.5 -0.35,-1.05 -0.3,-1.65 0.2,-0.4 0.4,-0.8 0.7,-1.2 l 0.15,-0.2 c -0.2,0 -0.45,-0.05 -0.6,-0.2 -0.2,-0.2 -0.25,-0.65 -0.2,-1.05 z"
           inkscape:connector-curvature="0"
           style="fill:#3b3b3b" />
        <path
           id="path10"
           d="M 2.95,-3.45 C 2.85,-3.55 2.7,-3.75 2.55,-3.95 2.65,-3.9 2.55,-4 2.45,-4.1 2.4,-4.15 2.35,-4.2 2.2,-4.4 L 2.05,-4.55 1.7,-4.9 1.8,-4.5 c 0.45,0.3 0.85,0.65 1.15,1.05 z m -9.85,-6.6 c -0.1,0 -0.15,0.05 -0.2,0.1 -0.15,0.1 -0.3,0.25 -0.5,0.4 -0.05,0.05 -0.1,0.1 -0.15,0.15 -0.1,0.05 -0.2,0.2 -0.35,0.35 l -0.1,0.15 c -0.05,0.05 -0.05,0.05 -0.1,0.1 -0.05,0.2 -0.1,0.4 -0.05,0.55 0.4,0.1 0.6,-0.2 0.9,-0.3 l -0.4,0.25 0.4,-0.25 c -0.05,0.8 -0.4,1.4 -0.1,2.15 0.4,0.9 1.35,1 1.9,1.65 0.35,0.45 -0.05,0.7 0.65,0.85 0.35,0.1 0.5,-0.05 0.8,-0.2 0.6,-0.3 1.15,-0.7 1.8,-0.95 0.35,-0.1 0.8,-0.2 1.2,-0.2 l 0.25,-0.35 c -0.65,0.05 -1.3,0.15 -1.9,0.3 -0.8,0.2 -2.35,0.45 -3,-0.35 -0.25,-0.3 -0.3,-0.8 -0.45,-1.15 -0.1,-0.35 -0.45,-0.65 -0.5,-0.9 -0.15,-1.2 2,-1.95 2.75,-2.1 l -1.4,0.05 c -0.55,0.1 -1.45,0.6 -1.95,0.35 0.1,-0.25 0.3,-0.45 0.5,-0.65 z"
           inkscape:connector-curvature="0"
           style="fill:#787878" />
        <path
           id="path11"
           d="M 3,-3.35 2.95,-3.45 C 2.65,-3.85 2.25,-4.2 1.8,-4.5 c 0.05,0.65 0.05,1.35 -0.1,1.6 l -0.1,0.1 c 0.4,0.45 0.7,1 0.85,1.5 l 0.6,1.65 c 0.1,-0.2 0.2,-0.4 0.3,-0.65 l 0,-0.1 c -0.05,0.1 0,0 0.05,-0.1 0,-0.1 0,-0.1 0,-0.1 L 3.45,-0.95 C 3.4,-1 3.45,-1.3 3.45,-1.6 3.4,-2.15 3.25,-2.8 3,-3.35 z M -8.3,-8.8 c -0.2,0.2 -0.3,0.35 -0.4,0.55 l -0.15,0.2 c 0,0.6 -0.05,1 0.25,1.55 0.4,0.7 0.75,1.25 1.05,1.95 0.4,0.9 1,1.85 2.05,2.1 0.95,0.2 1.15,-0.6 1.7,-1.2 0.85,-0.8 1.8,-1 2.75,-0.8 l -0.3,-0.5 0.15,-0.3 c -0.4,0 -0.85,0.1 -1.2,0.2 -0.65,0.25 -1.2,0.65 -1.8,0.95 -0.3,0.15 -0.45,0.3 -0.8,0.2 -0.7,-0.15 -0.3,-0.4 -0.65,-0.85 -0.55,-0.65 -1.5,-0.75 -1.9,-1.65 -0.3,-0.75 0.05,-1.35 0.1,-2.15 l -0.4,0.25 0.4,-0.25 c -0.3,0.1 -0.5,0.4 -0.9,0.3 -0.05,-0.15 0,-0.35 0.05,-0.55 z"
           inkscape:connector-curvature="0"
           style="fill:#666666" />
      </g>
    </g>
  </g>
</svg>
