<?xml version="1.0" encoding="UTF-8" standalone="no"?>
<!-- Generator: flash2svg, http://dissentgraphics.com/tools/flash2svg -->

<svg
   xmlns:dc="http://purl.org/dc/elements/1.1/"
   xmlns:cc="http://creativecommons.org/ns#"
   xmlns:rdf="http://www.w3.org/1999/02/22-rdf-syntax-ns#"
   xmlns:svg="http://www.w3.org/2000/svg"
   xmlns="http://www.w3.org/2000/svg"
   xmlns:xlink="http://www.w3.org/1999/xlink"
   xmlns:sodipodi="http://sodipodi.sourceforge.net/DTD/sodipodi-0.dtd"
   xmlns:inkscape="http://www.inkscape.org/namespaces/inkscape"
   id="Avatar"
   image-rendering="auto"
   version="1.1"
   x="0px"
   y="0px"
   width="9.4905176"
   height="10.304545"
   viewBox="0 0 9.4905176 10.304545"
   inkscape:version="0.48.4 r9939"
   sodipodi:docname="Avatar_sideHandOffsideContainer.svg">
  <metadata
     id="metadata3127">
    <rdf:RDF>
      <cc:Work
         rdf:about="">
        <dc:format>image/svg+xml</dc:format>
        <dc:type
           rdf:resource="http://purl.org/dc/dcmitype/StillImage" />
      </cc:Work>
    </rdf:RDF>
  </metadata>
  <sodipodi:namedview
     pagecolor="#ffffff"
     bordercolor="#666666"
     borderopacity="1"
     objecttolerance="10"
     gridtolerance="10"
     guidetolerance="10"
     inkscape:pageopacity="0"
     inkscape:pageshadow="2"
     inkscape:window-width="640"
     inkscape:window-height="480"
     id="namedview3125"
     showgrid="false"
     fit-margin-top="0"
     fit-margin-left="0"
     fit-margin-right="0"
     fit-margin-bottom="0"
     inkscape:zoom="1.8730159"
     inkscape:cx="37.375"
     inkscape:cy="-53.845455"
     inkscape:window-x="635"
     inkscape:window-y="215"
     inkscape:window-maximized="0"
     inkscape:current-layer="Avatar" />
  <defs
     id="defs3092">
    <pattern
       id="bitmap"
       patternContentUnits="userSpaceOnUse"
       patternUnits="userSpaceOnUse"
       width="200"
       height="200"
       viewBox="0 0 200 200"
       patternTransform="matrix(1 0 0 1 -72.799 -17.649)">
      <symbol
         id="Avatar_Texture_symbol"
         viewBox="0 0 200 200">
        <image
           sodipodi:absref="C:\Users\Training\Documents\GitHub\glitch-avatars\base_avatar\Avatar_Texture"
           xlink:href="Avatar_Texture"
           height="200"
           width="200"
           id="Avatar_Texture" />
      </symbol>
      <use
         id="Avatar_Texture_use"
         width="200"
         height="200"
         y="0"
         x="0"
         xlink:href="#Avatar_Texture_symbol"
         externalResourcesRequired="true" />
    </pattern>
    <pattern
       id="bitmap1"
       patternContentUnits="userSpaceOnUse"
       patternUnits="userSpaceOnUse"
       width="200"
       height="200"
       viewBox="0 0 200 200"
       patternTransform="matrix(1 0 0 1 -72.749 -17.599)">
      <symbol
         id="symbol3099"
         viewBox="0 0 200 200">
        <image
           sodipodi:absref="C:\Users\Training\Documents\GitHub\glitch-avatars\base_avatar\Avatar_Texture"
           xlink:href="Avatar_Texture"
           height="200"
           width="200"
           id="image3101" />
      </symbol>
      <use
         id="use3103"
         width="200"
         height="200"
         y="0"
         x="0"
         xlink:href="#Avatar_Texture_symbol"
         externalResourcesRequired="true" />
    </pattern>
  </defs>
  <g
     id="sideHandOffsideContainer1"
     overflow="visible"
     style="overflow:visible"
     transform="translate(3.375,1.15)">
    <g
       id="sideHandOffsideContainer_0_0">
      <g
         id="element"
         overflow="visible"
         style="overflow:visible">
        <g
           id="sideHandOffside_0_0">
          <g
             id="element1">
            <g
               id="group1">
              <path
                 id="path"
                 d="M 3.1,-0.2 C 2.7,-0.75 2,-1.05 0.95,-1.1 -0.1,-1.15 -1,-0.95 -1.8,-0.5 c -0.8,0.45 -1.3,0.95 -1.45,1.6 -0.15,0.65 -0.2,1.4 0.05,2.4 0.15,0.9 0.35,1.7 0.65,2.4 l 0.3,0.6 c 0.5,1.1 1.15,1.95 1.9,2.25 0.75,0.4 1.3,0.5 1.65,0.3 C 1.55,8.9 1.65,8.7 1.55,8.55 1.7,8.7 1.95,8.75 2.4,8.85 2.8,9 3.2,8.9 3.65,8.75 4.05,8.5 4.3,8.2 4.3,7.85 4.25,7.45 4.15,7.15 3.85,6.95 4.35,7.2 4.75,7.15 5.1,7.05 5.45,6.95 5.7,6.7 5.9,6.5 6.1,6.2 6.1,5.9 5.9,5.5 5.7,5.2 5.4,4.85 4.9,4.5 4.55,4.3 4.35,4.1 4.15,3.5 l 0.2,0.1 0,-0.05 C 5.2,3.7 5.95,3.35 6.1,2.2 Q 6.25,1.75 4.95,1.2 C 4.1,0.8 3.45,0.35 3.1,-0.2 z"
                 inkscape:connector-curvature="0"
                 style="fill:url(#bitmap1)" />
            </g>
            <g
               id="group2">
              <path
                 id="path1"
                 d="M 3.1,-0.2 C 2.7,-0.75 2,-1.05 0.95,-1.1 -0.1,-1.15 -1,-0.95 -1.8,-0.5 c -0.8,0.45 -1.3,0.95 -1.45,1.6 -0.15,0.65 -0.2,1.4 0.05,2.4 0.15,0.9 0.35,1.7 0.65,2.4 l 0.3,0.6 c 0.5,1.1 1.15,1.95 1.9,2.25 0.75,0.4 1.3,0.5 1.65,0.3 C 1.55,8.9 1.65,8.7 1.55,8.55 1.7,8.7 1.95,8.75 2.4,8.85 2.8,9 3.2,8.9 3.65,8.75 4.05,8.5 4.3,8.2 4.3,7.85 4.25,7.45 4.15,7.15 3.85,6.95 4.35,7.2 4.75,7.15 5.1,7.05 5.45,6.95 5.7,6.7 5.9,6.5 6.1,6.2 6.1,5.9 5.9,5.5 5.7,5.2 5.4,4.85 4.9,4.5 4.55,4.3 4.35,4.1 4.15,3.5 l 0.2,0.1 0,-0.05 C 5.2,3.7 5.95,3.35 6.1,2.2 Q 6.25,1.75 4.95,1.2 C 4.1,0.8 3.45,0.35 3.1,-0.2 z"
                 inkscape:connector-curvature="0"
                 style="fill:#000000;fill-opacity:0.2" />
            </g>
            <g
               id="group3">
              <g
                 id="drawingObject">
                <path
                   id="path2"
                   d="m 1.501,2.751 c 0,0 0.95,-0.45 0.8,-1.9 -0.1,-1.5 -1.1,-1.7 -1.1,-1.7 l 0.5,0.3 -0.5,-0.3 0.1,0.3 -0.1,-0.3 c 0,0 0.2,0.25 0.35,1.45 q 0.15,1.2 -0.05,2.15 z"
                   inkscape:connector-curvature="0"
                   style="fill:#000000;fill-opacity:0.2" />
              </g>
              <g
                 id="drawingObject1">
                <path
                   id="path3"
                   d="m 3.525,0.325 q 0.176,0.99 1.025,1.35 l 0,0.025 C 5.1,1.95 5.5,2.4 5.75,3.1 6.5,2.1 5.85,1.3 3.85,0.7 L 3.55,0.25 3.525,0.325 z"
                   inkscape:connector-curvature="0"
                   style="fill:#000000;fill-opacity:0.2" />
              </g>
              <g
                 id="drawingObject2">
                <path
                   id="path4"
                   d="M 2.9,4.95 2.1,3.6 2.35,5 c 0.2,0.95 0.7,1.3 1,1.5 0.4,0.45 0.85,0.65 1.4,0.6 C 5.25,7 5.6,6.8 5.85,6.5 L 6,6.1 C 5.75,6.15 5.5,6.25 5.1,6.25 3.2,6.35 2.1,3.6 2.1,3.6"
                   inkscape:connector-curvature="0"
                   style="fill:#000000;fill-opacity:0.2" />
              </g>
              <g
                 id="drawingObject3">
                <path
                   id="path5"
                   d="m 1,-1.05 -0.7,-0.1 c -0.9,0.1 -1.6,0.3 -2.15,0.65 -0.55,0.35 -0.95,0.7 -1.2,1.05 -0.45,0.75 -0.35,2.3 0.2,4.7 l 0.25,0.7 c 0.25,0.6 0.6,1.2 1.05,1.85 0.4,0.6 1.05,1.05 1.9,1.3 0.85,0.2 1.3,-0.15 1.3,-1.05 L 0.7,8.3 C 0.05,8.55 -0.6,7.9 -1.25,6.45 q -1.3,-2.7 -0.1,-5.4 c 0.5,-1.1 1.3,-1.8 2.35,-2.1 z"
                   inkscape:connector-curvature="0"
                   style="fill:#000000;fill-opacity:0.2" />
              </g>
              <g
                 id="drawingObject4">
                <path
                   id="path6"
                   d="m 1.35,8.15 c 0.05,0.3 0.3,0.55 0.8,0.7 0.5,0.15 1,0.1 1.5,-0.1 C 4.1,8.55 4.3,8.1 4.25,7.45 L 4.1,7.65 3.3,7.9 C 2.05,8.3 0.75,5.95 0.75,5.95 L 1.55,7.1 0.75,5.95 0.9,6.25 C 1.15,7.2 1.3,7.8 1.35,8.15 z"
                   inkscape:connector-curvature="0"
                   style="fill:#000000;fill-opacity:0.2" />
              </g>
            </g>
          </g>
        </g>
      </g>
    </g>
  </g>
</svg>
