<?xml version="1.0" encoding="UTF-8" standalone="no"?>
<!-- Generator: flash2svg, http://dissentgraphics.com/tools/flash2svg -->

<svg
   xmlns:dc="http://purl.org/dc/elements/1.1/"
   xmlns:cc="http://creativecommons.org/ns#"
   xmlns:rdf="http://www.w3.org/1999/02/22-rdf-syntax-ns#"
   xmlns:svg="http://www.w3.org/2000/svg"
   xmlns="http://www.w3.org/2000/svg"
   xmlns:sodipodi="http://sodipodi.sourceforge.net/DTD/sodipodi-0.dtd"
   xmlns:inkscape="http://www.inkscape.org/namespaces/inkscape"
   id="AvatarAssets"
   image-rendering="auto"
   version="1.1"
   x="0px"
   y="0px"
   width="53.755108"
   height="56.05901"
   viewBox="0 0 53.755108 56.05901"
   inkscape:version="0.48.4 r9939"
   sodipodi:docname="AvatarAssets_backHair01.svg">
  <metadata
     id="metadata90">
    <rdf:RDF>
      <cc:Work
         rdf:about="">
        <dc:format>image/svg+xml</dc:format>
        <dc:type
           rdf:resource="http://purl.org/dc/dcmitype/StillImage" />
      </cc:Work>
    </rdf:RDF>
  </metadata>
  <sodipodi:namedview
     pagecolor="#ffffff"
     bordercolor="#666666"
     borderopacity="1"
     objecttolerance="10"
     gridtolerance="10"
     guidetolerance="10"
     inkscape:pageopacity="0"
     inkscape:pageshadow="2"
     inkscape:window-width="640"
     inkscape:window-height="480"
     id="namedview88"
     showgrid="false"
     fit-margin-top="0"
     fit-margin-left="0"
     fit-margin-right="0"
     fit-margin-bottom="0"
     inkscape:zoom="1.9032258"
     inkscape:cx="58.455832"
     inkscape:cy="-56.649"
     inkscape:window-x="0"
     inkscape:window-y="0"
     inkscape:window-maximized="0"
     inkscape:current-layer="AvatarAssets" />
  <defs
     id="defs3" />
  <g
     id="backHair2"
     overflow="visible"
     style="overflow:visible"
     transform="translate(26.455832,50.708011)">
    <g
       id="backHair01_2_1">
      <g
         id="element3">
        <g
           id="group8">
          <g
             id="drawingObject24">
            <path
               id="path28"
               d="m 27.051,-27.249 c -0.95,-4.15 -2.2,-5.55 -5,-10.35 -2.8,-4.8 -8.2,-10.4 -14.85,-12.25 -6.7,-1.85 -22.2,-0.3 -25.6,4.5 -3.4,4.8 -3.75,6.8 -3.75,6.8 0,0 -4.55,5.9 -4.1,12.45 l -0.05,0.45 c -0.5,4.35 2.5,11.85 3.35,14.35 0.55,1.7 1.75,2.9 3.25,4.1 0.25,1.15 0.05,3.6 0.25,4.4 1.15,5.5 1.8,5.15 1.8,5.15 0,0 -1,-4.8 -0.55,-8.4 l 0.75,0.6 c 1.35,1.1 2.3,2.05 3.1,2.7 0.6,0.7 1.1,1.3 1.45,1.6 1.65,1.6 5.75,2.8 6.7,3.2 0.95,0.4 -1.05,-2.2 -1.35,-2.9 l -0.3,-0.7 2.4,1.45 0.5,0.2 c 0,0 -1.55,-2.05 -1.65,-3.4 l -0.2,-2.2 0.95,1.6 -0.95,-1.6 c 0,0 1.65,3.1 2.45,3.65 l 0.8,0.5 c 0,0 -0.8,-1.2 -0.7,-2.7 l 0.1,-2.15 1.65,3.25 c 0,0 0.6,-2.15 0.65,-2.65 l 0,-0.5 0.7,2.4 c 0,0 0.6,-1.5 0.6,-2.5 l 0.05,-1 0.35,1.2 -0.35,-1.2 c 0,0 0.75,2.2 0.7,2.9 l -0.05,0.65 c 0,0 1.8,-2.4 2.15,-3.25 l 0.4,-0.8 -0.2,4 c 0,0 1.5,-1.1 1.6,-2.6 l 0.05,-1.5 0.2,1.3 -0.2,-1.3 c 0,0 0.55,2.2 0,3.7 l -0.55,1.45 c 0,0 1,-0.45 1.35,-1.45 l 0.4,-0.95 0.1,0.9 -0.1,-0.9 c 0,0 0.25,1.5 0.2,2.5 l -0.05,1 2.1,-2.55 0.1,1.05 -0.1,-1.05 c 0,0 0.25,2 0.05,2.5 l -0.2,0.5 c 0,0 1,0.05 1.55,-1.3 l 0.55,-1.3 -0.25,1.5 0.25,-1.5 c 0,0 -0.45,2.85 -0.8,3.5 l -0.4,0.65 c 0,0 1.15,0.2 3.05,-1.55 1.9,-1.75 3.05,-4.7 4.4,-5.3 1.35,-0.6 4,-1.45 4.7,-2.25 0.7,-0.8 4.1,-4.85 4.9,-9.55 0,1.55 -0.2,3 -0.7,4.25 -2.35,6.05 0.45,10.7 -0.95,15.35 -0.7,2.35 -1.35,3.45 -1.8,3.95 1.05,-0.7 2.85,-2.2 3.05,-4.75 0.3,-3.55 -1.05,-8.35 0,-11.15 q 1,-2.45 1.8,-7.8 0.85,-6.05 0.25,-8.9 z"
               inkscape:connector-curvature="0"
               style="fill:#707070" />
          </g>
          <g
             id="group9">
            <g
               id="drawingObject25">
              <path
                 id="path29"
                 d="m 21.25,-27.9 -0.8,-2.15 c 0,0 1,8.15 0,12.8 l -1,4.7 c 0,0 0.65,-8.35 -0.2,-11.7 l -0.8,-3.3 0.65,4.4 -0.65,-4.4 c 0,0 1.8,7.65 -0.35,12.15 -2.15,4.5 -2.5,5.5 -2.5,5.5 0,0 1.85,-6.65 1.5,-10.5 l -0.35,-3.85 c 0,0 0,5.5 -1.65,9 l -1.65,3.5 c 0,0 1.8,-4.45 0.5,-11.15 -1.35,-6.65 -2.5,-9 -2.5,-9 0,0 2,7.65 1.5,12.15 -0.5,4.5 -1,5.5 -1,5.5 0,0 -0.7,-5 -1.2,-7.3 -0.5,-2.35 -1.3,-3.7 -1.3,-3.7 l 0.45,0.95 -0.45,-0.95 0.45,2.05 -0.45,-2.05 c 0,0 1.15,3 0.15,7.5 -1,4.5 -2.35,6 -2.35,6 0,0 1,-4.65 0.35,-8.8 -0.65,-4.2 -1.65,-5.7 -1.65,-5.7 l 0.6,1.3 -0.6,-1.3 0.3,3.65 -0.3,-3.65 c 0,0 0.65,6.55 0.3,9.35 l -0.075,0.7 0.025,0 c 0.15,-1.95 -0.2,-4.05 -0.95,-6.2 -2,-5.65 -0.5,-9.35 0.85,-10.35 1.35,-1 2.85,-0.15 2.8,-0.2 -1.35,-0.7 -2.3,-1.35 -2.85,-2 l -0.8,-0.95 1.55,0.15 -1.55,-0.15 c 0,0 2.85,0.15 3.7,0.65 l 0.8,0.5 c 0,0 -0.65,-2.3 -2.15,-3.5 l -1.5,-1.15 2.2,0.85 -2.2,-0.85 c 0,0 3.85,1.2 6,3 1,0.85 1.6,1.45 1.9,1.85 -0.8,-1.15 -2.65,-3.65 -4.9,-5 l -3,-1.85 2.1,0.35 -2.1,-0.35 c 0,0 3.5,0.35 6.15,1.85 2,1.1 2.65,1.75 2.9,2 -0.55,-0.7 -2.95,-3.75 -4.9,-4.5 -2.15,-0.85 -3,-0.65 -2.15,-0.85 0.85,-0.15 5.65,1.15 8.15,3.35 l 3.2,2.8 c 0,0 -2,-4.15 -5.5,-6.65 -3.5,-2.5 -6.2,-3.15 -6.2,-3.15 l 1.8,0.65 -1.8,-0.65 1.85,-0.1 -1.85,0.1 c 0,0 3.2,-0.5 5.35,0.5 l 2.15,1 c 0,0 0.1,-0.15 0.1,-0.4 -2.4,-2 -5.2,-3.65 -8.25,-4.5 -6.7,-1.85 -22.2,-0.3 -25.6,4.5 -2.1,2.95 -3.05,4.85 -3.45,5.85 l -0.3,0.95 c 0,0 1.85,-4.6 4.35,-6.1 q 2.5,-1.5 3.15,-1.65 c 0,0 -3,2.5 -3.8,5 l -0.85,2.5 c 0,0 2.35,-3.5 3.35,-4 l 1,-0.5 -2.7,5.65 c 0,0 2.2,-1.95 3.5,-2.15 l 1.35,-0.15 -0.8,2.1 0.8,-2.1 c 0,0 -1.65,3.8 -1.65,5.5 l 0,1.65 c 0,0 3.8,-4 6.8,-6.35 l 3,-2.3 c 0,0 -4.15,4.65 -6.15,8.3 -2,3.7 -2,4.7 -2,4.7 0,0 3.15,-4.35 5,-5.5 l 1.85,-1.2 c 0,0 -5.7,9.2 -5.35,14 0.35,4.85 0.35,7.2 0.35,7.2 0,0 -1.85,-4.85 -1.7,-7.5 l 0.2,-3.35 -0.8,3.25 0.8,-3.25 c 0,0 -1.85,5.5 -1,9.5 l 0.8,4 c 0,0 -2.65,-8.65 -2.3,-12.15 l 0.3,-3.5 -0.85,3.35 0.85,-3.35 c 0,0 -1.8,5.85 -1.3,9.15 l 0.5,3.35 c 0,0 -2.7,-5.85 -2.35,-10.7 0.35,-4.8 0.35,-5.65 0.35,-5.65 l -1,2.55 1,-2.55 c 0,0 -2,3.85 -1.85,9 0.15,5.15 1.15,10.2 2.85,12.5 l 1.65,2.35 c 0,0 -5,-6.2 -6,-12 l -1,-5.85 -0.15,2.65 0.15,-2.65 c 0,0 -0.35,4.65 -0.15,7.15 l 0.15,2.5 c 0,0 -2,-5.15 -1.35,-10 l 0.7,-4.8 -1.15,1.35 1.15,-1.35 c 0,0 -2.2,2.15 -2.7,4.3 l -0.5,2.2 c 0,0 -0.35,-2.5 -0.55,-4.85 -0.05,0.75 -0.1,1.45 -0.05,2.2 l -0.05,0.45 c -0.5,4.35 2.5,11.85 3.35,14.35 0.55,1.7 1.75,2.9 3.25,4.1 0.25,1.15 0.05,3.6 0.25,4.4 1.15,5.5 1.8,5.15 1.8,5.15 0,0 -0.8,-3.7 -0.65,-7.15 0.8,1.15 2,2.05 3.6,2.65 1,0.5 1.7,1.1 2.1,1.8 0.35,0.65 1.2,1.35 2.55,2 1.3,0.65 2.4,1.1 3.25,1.35 0.85,0.2 1,-0.35 0.35,-1.6 -0.25,-0.55 -0.5,-1 -0.65,-1.35 0.6,0.95 1.55,1.8 2.85,2.65 L -4.8,1.125 -4.8,1.15 C -4.95,0.9 -5.05,0.6 -5.2,0.35 l 2.15,1.2 C -3.2,1 -3.55,0.1 -4.1,-1.15 c 0.75,1.05 1.4,1.75 1.85,2 0.05,-1.15 0.1,-2.1 0.15,-2.95 0.2,0.6 0.5,1.25 0.9,1.9 0.4,-0.95 0.75,-1.8 1,-2.5 -0.05,1.05 -0.05,1.9 0,2.65 0.2,-0.3 0.45,-0.9 0.75,-1.75 0.2,0.45 0.45,0.9 0.7,1.35 C 2,-1.6 2.6,-2.4 2.95,-2.9 l -0.3,2.6 C 3.3,-0.55 3.85,-0.75 4.3,-1 L 3,0.9 C 4.85,0.3 6.15,-0.35 6.95,-1.05 l -1.3,2.7 C 6.7,1.2 7.55,0.75 8.2,0.3 L 8.2,0.275 6.2,2.9 C 7.9,2.65 9.25,2.25 10.25,1.7 11.2,1.15 12.2,0.6 13.15,0.1 c 0.95,-0.5 2.1,-1.55 3.4,-3.2 1.3,-1.65 2.2,-2.9 2.7,-3.75 0.5,-0.9 1.5,-2.2 3,-3.95 1.45,-1.75 2.5,-4.25 3.05,-7.5 0,1.55 -0.2,3 -0.7,4.25 1.85,-2.5 2.15,-5.35 1.85,-7.35 l -0.35,-2.65 -0.6,2.5 0.6,-2.5 c 0,0 -1,4.5 -1.85,6.5 l -0.8,2 c 0,0 2.3,-7.35 0.65,-12.5 -1.65,-5.2 -2.65,-6.5 -2.65,-6.5 l 0.7,1.3 -0.7,-1.3 0.85,2.6 -0.85,-2.6 c 0,0 1.8,3.5 1.5,10.3 -0.35,6.85 -0.5,7.5 -0.5,7.5 0,0 -0.35,-8.95 -1.2,-11.15 z m -17,21.3 C 4.2,-6.55 4.1,-6.45 4,-6.4 4.1,-6.5 4.2,-6.6 4.25,-6.65 l 0,-0.025 0,0.075 z"
                 inkscape:connector-curvature="0"
                 style="fill:#595959" />
            </g>
          </g>
          <g
             id="drawingObject26">
            <path
               id="path34"
               d="m -18.149,-39.299 c 0,0 -0.65,-1.15 -2.8,1.15 l -1.3,1.45 q -1.45,2.05 -2.4,4.75 l -1.2,3.45 c 0.85,-2.2 1.75,-3.75 2.7,-4.65 l 1.7,-1.5 -0.85,1.6 0.85,-1.6 c 0,0 -1.7,3 -1.7,3.85 l 0,0.85 c 0,0 3.35,-6.2 5,-7.35 l 1.7,-1.15 c 0,0 -2.85,1.3 -3.85,2.15 l -1,0.85 c 0,0 0.85,-2.85 2,-3.35 l 1.15,-0.5 z"
               inkscape:connector-curvature="0"
               style="fill:#8a8a8a" />
          </g>
          <g
             id="drawingObject27">
            <path
               id="path35"
               d="m -16.299,-37.149 q -1.05,0.8 -2.15,2.25 -2.2,2.85 -2.5,5.95 l -0.5,5 c 0,0 1.5,-5.7 2,-6.85 l 0.5,-1.15 -0.5,3.65 0,0.85 c 0,0 0.3,-4 2.5,-6.7 l 2.15,-2.65 c 0,0 -1.15,-0.15 -2.15,1.35 l -1,1.5 c 0,0 1.3,-2.7 1.65,-3.2 z"
               inkscape:connector-curvature="0"
               style="fill:#8a8a8a" />
          </g>
          <g
             id="drawingObject28">
            <path
               id="path36"
               d="m -11.649,-33.799 -2.8,1 -1.25,1.4 q -1.25,1.8 -1.25,4.1 l 0,3.65 c 0,0 0.5,-4.5 2.15,-6.65 1.65,-2.15 3.15,-3.5 3.15,-3.5 z"
               inkscape:connector-curvature="0"
               style="fill:#8a8a8a" />
          </g>
          <g
             id="drawingObject29">
            <path
               id="path37"
               d="m -11.449,-28.649 c 1.3,-1.5 0.5,-3.3 -1.35,0.2 l -0.5,1.15 q -0.5,1.45 -0.5,3 l 0,2.5 c 0,0 1,-5.35 2.35,-6.85 z"
               inkscape:connector-curvature="0"
               style="fill:#8a8a8a" />
          </g>
          <g
             id="drawingObject30">
            <path
               id="path38"
               d="m 9.051,-31.649 1.3,4.5 c 0.65,2.2 1.7,7.85 1.7,7.85 0,0 0.15,-1 -0.5,-5.5 q -0.45,-2.8 -1.5,-5.1 l -1,-1.75 z"
               inkscape:connector-curvature="0"
               style="fill:#8a8a8a" />
          </g>
          <g
             id="drawingObject31">
            <path
               id="path39"
               d="m 15.451,-28.199 -0.25,-0.95 0.75,1.45 -0.75,-1.45 c 0,0 1.5,2.2 1.65,5 l 0.2,2.85 c 0,0 0.65,-4.15 -0.35,-7.65 -1,-3.5 -2.6,-5.5 -2.6,-5.5 l 0.95,1.45 -0.95,-1.45 0.6,4.5 c 0,0 -2.5,-2.85 -3.35,-3.5 l 1.6,4.25 q 1.65,4.65 1.75,6.75 l 0.15,3.3 c 0,0 1.15,-2 1,-5.5 -0.15,-3.5 -0.65,-4.5 -0.65,-4.5"
               inkscape:connector-curvature="0"
               style="fill:#8a8a8a" />
          </g>
          <g
             id="drawingObject32">
            <path
               id="path40"
               d="m 16.601,-36.399 -1.9,-0.9 2,2.4 q 2.1,2.95 2.5,5.75 l 0.65,4.5 c 0,0 0.65,-5.3 -0.5,-8.5 -1.15,-3.15 -4.65,-4.15 -4.65,-4.15"
               inkscape:connector-curvature="0"
               style="fill:#8a8a8a" />
          </g>
          <g
             id="drawingObject33">
            <path
               id="path41"
               d="m 19.951,-38.849 -2.1,-1.6 2.15,2.55 q 2.35,3.3 3.2,6.95 l 1.35,5.8 c 0,0 0.65,-6 -1.2,-9.5 -1.8,-3.5 -5.5,-5.8 -5.5,-5.8"
               inkscape:connector-curvature="0"
               style="fill:#8a8a8a" />
          </g>
        </g>
      </g>
    </g>
    <g
       id="backHair01_2_0">
      <g
         id="element2">
        <g
           id="group5">
          <g
             id="drawingObject14">
            <path
               id="path14"
               d="m 27.051,-27.249 c -0.95,-4.15 -2.2,-5.55 -5,-10.35 -2.8,-4.8 -8.2,-10.4 -14.85,-12.25 -6.7,-1.85 -22.2,-0.3 -25.6,4.5 -3.4,4.8 -3.75,6.8 -3.75,6.8 0,0 -4.55,5.9 -4.1,12.45 l -0.05,0.45 c -0.5,4.35 2.5,11.85 3.35,14.35 0.55,1.7 1.75,2.9 3.25,4.1 0.25,1.15 0.05,3.6 0.25,4.4 1.15,5.5 1.8,5.15 1.8,5.15 0,0 -1,-4.8 -0.55,-8.4 l 0.75,0.6 c 1.35,1.1 2.3,2.05 3.1,2.7 0.6,0.7 1.1,1.3 1.45,1.6 1.65,1.6 5.75,2.8 6.7,3.2 0.95,0.4 -1.05,-2.2 -1.35,-2.9 l -0.3,-0.7 2.4,1.45 0.5,0.2 c 0,0 -1.55,-2.05 -1.65,-3.4 l -0.2,-2.2 0.95,1.6 -0.95,-1.6 c 0,0 1.65,3.1 2.45,3.65 l 0.8,0.5 c 0,0 -0.8,-1.2 -0.7,-2.7 l 0.1,-2.15 1.65,3.25 c 0,0 0.6,-2.15 0.65,-2.65 l 0,-0.5 0.7,2.4 c 0,0 0.6,-1.5 0.6,-2.5 l 0.05,-1 0.35,1.2 -0.35,-1.2 c 0,0 0.75,2.2 0.7,2.9 l -0.05,0.65 c 0,0 1.8,-2.4 2.15,-3.25 l 0.4,-0.8 -0.2,4 c 0,0 1.5,-1.1 1.6,-2.6 l 0.05,-1.5 0.2,1.3 -0.2,-1.3 c 0,0 0.55,2.2 0,3.7 l -0.55,1.45 c 0,0 1,-0.45 1.35,-1.45 l 0.4,-0.95 0.1,0.9 -0.1,-0.9 c 0,0 0.25,1.5 0.2,2.5 l -0.05,1 2.1,-2.55 0.1,1.05 -0.1,-1.05 c 0,0 0.25,2 0.05,2.5 l -0.2,0.5 c 0,0 1,0.05 1.55,-1.3 l 0.55,-1.3 -0.25,1.5 0.25,-1.5 c 0,0 -0.45,2.85 -0.8,3.5 l -0.4,0.65 c 0,0 1.15,0.2 3.05,-1.55 1.9,-1.75 3.05,-4.7 4.4,-5.3 1.35,-0.6 4,-1.45 4.7,-2.25 0.7,-0.8 4.1,-4.85 4.9,-9.55 0,1.55 -0.2,3 -0.7,4.25 -2.35,6.05 0.45,10.7 -0.95,15.35 -0.7,2.35 -1.35,3.45 -1.8,3.95 1.05,-0.7 2.85,-2.2 3.05,-4.75 0.3,-3.55 -1.05,-8.35 0,-11.15 q 1,-2.45 1.8,-7.8 0.85,-6.05 0.25,-8.9 z"
               inkscape:connector-curvature="0"
               style="fill:#707070" />
          </g>
          <g
             id="group6">
            <g
               id="drawingObject15">
              <path
                 id="path15"
                 d="m 21.25,-27.9 -0.8,-2.15 c 0,0 1,8.15 0,12.8 l -1,4.7 c 0,0 0.65,-8.35 -0.2,-11.7 l -0.8,-3.3 0.65,4.4 -0.65,-4.4 c 0,0 1.8,7.65 -0.35,12.15 -2.15,4.5 -2.5,5.5 -2.5,5.5 0,0 1.85,-6.65 1.5,-10.5 l -0.35,-3.85 c 0,0 0,5.5 -1.65,9 l -1.65,3.5 c 0,0 1.8,-4.45 0.5,-11.15 -1.35,-6.65 -2.5,-9 -2.5,-9 0,0 2,7.65 1.5,12.15 -0.5,4.5 -1,5.5 -1,5.5 0,0 -0.7,-5 -1.2,-7.3 -0.5,-2.35 -1.3,-3.7 -1.3,-3.7 l 0.45,0.95 -0.45,-0.95 0.45,2.05 -0.45,-2.05 c 0,0 1.15,3 0.15,7.5 -1,4.5 -2.35,6 -2.35,6 0,0 1,-4.65 0.35,-8.8 -0.65,-4.2 -1.65,-5.7 -1.65,-5.7 l 0.6,1.3 -0.6,-1.3 0.3,3.65 -0.3,-3.65 c 0,0 0.65,6.55 0.3,9.35 l -0.075,0.7 0.025,0 c 0.15,-1.95 -0.2,-4.05 -0.95,-6.2 -2,-5.65 -0.5,-9.35 0.85,-10.35 1.35,-1 2.85,-0.15 2.8,-0.2 -1.35,-0.7 -2.3,-1.35 -2.85,-2 l -0.8,-0.95 1.55,0.15 -1.55,-0.15 c 0,0 2.85,0.15 3.7,0.65 l 0.8,0.5 c 0,0 -0.65,-2.3 -2.15,-3.5 l -1.5,-1.15 2.2,0.85 -2.2,-0.85 c 0,0 3.85,1.2 6,3 1,0.85 1.6,1.45 1.9,1.85 -0.8,-1.15 -2.65,-3.65 -4.9,-5 l -3,-1.85 2.1,0.35 -2.1,-0.35 c 0,0 3.5,0.35 6.15,1.85 2,1.1 2.65,1.75 2.9,2 -0.55,-0.7 -2.95,-3.75 -4.9,-4.5 -2.15,-0.85 -3,-0.65 -2.15,-0.85 0.85,-0.15 5.65,1.15 8.15,3.35 l 3.2,2.8 c 0,0 -2,-4.15 -5.5,-6.65 -3.5,-2.5 -6.2,-3.15 -6.2,-3.15 l 1.8,0.65 -1.8,-0.65 1.85,-0.1 -1.85,0.1 c 0,0 3.2,-0.5 5.35,0.5 l 2.15,1 c 0,0 0.1,-0.15 0.1,-0.4 -2.4,-2 -5.2,-3.65 -8.25,-4.5 -6.7,-1.85 -22.2,-0.3 -25.6,4.5 -2.1,2.95 -3.05,4.85 -3.45,5.85 l -0.3,0.95 c 0,0 1.85,-4.6 4.35,-6.1 q 2.5,-1.5 3.15,-1.65 c 0,0 -3,2.5 -3.8,5 l -0.85,2.5 c 0,0 2.35,-3.5 3.35,-4 l 1,-0.5 -2.7,5.65 c 0,0 2.2,-1.95 3.5,-2.15 l 1.35,-0.15 -0.8,2.1 0.8,-2.1 c 0,0 -1.65,3.8 -1.65,5.5 l 0,1.65 c 0,0 3.8,-4 6.8,-6.35 l 3,-2.3 c 0,0 -4.15,4.65 -6.15,8.3 -2,3.7 -2,4.7 -2,4.7 0,0 3.15,-4.35 5,-5.5 l 1.85,-1.2 c 0,0 -5.7,9.2 -5.35,14 0.35,4.85 0.35,7.2 0.35,7.2 0,0 -1.85,-4.85 -1.7,-7.5 l 0.2,-3.35 -0.8,3.25 0.8,-3.25 c 0,0 -1.85,5.5 -1,9.5 l 0.8,4 c 0,0 -2.65,-8.65 -2.3,-12.15 l 0.3,-3.5 -0.85,3.35 0.85,-3.35 c 0,0 -1.8,5.85 -1.3,9.15 l 0.5,3.35 c 0,0 -2.7,-5.85 -2.35,-10.7 0.35,-4.8 0.35,-5.65 0.35,-5.65 l -1,2.55 1,-2.55 c 0,0 -2,3.85 -1.85,9 0.15,5.15 1.15,10.2 2.85,12.5 l 1.65,2.35 c 0,0 -5,-6.2 -6,-12 l -1,-5.85 -0.15,2.65 0.15,-2.65 c 0,0 -0.35,4.65 -0.15,7.15 l 0.15,2.5 c 0,0 -2,-5.15 -1.35,-10 l 0.7,-4.8 -1.15,1.35 1.15,-1.35 c 0,0 -2.2,2.15 -2.7,4.3 l -0.5,2.2 c 0,0 -0.35,-2.5 -0.55,-4.85 -0.05,0.75 -0.1,1.45 -0.05,2.2 l -0.05,0.45 c -0.5,4.35 2.5,11.85 3.35,14.35 0.55,1.7 1.75,2.9 3.25,4.1 0.25,1.15 0.05,3.6 0.25,4.4 1.15,5.5 1.8,5.15 1.8,5.15 0,0 -0.8,-3.7 -0.65,-7.15 0.8,1.15 2,2.05 3.6,2.65 1,0.5 1.7,1.1 2.1,1.8 0.35,0.65 1.2,1.35 2.55,2 1.3,0.65 2.4,1.1 3.25,1.35 0.85,0.2 1,-0.35 0.35,-1.6 -0.25,-0.55 -0.5,-1 -0.65,-1.35 0.6,0.95 1.55,1.8 2.85,2.65 L -4.8,1.125 -4.8,1.15 C -4.95,0.9 -5.05,0.6 -5.2,0.35 l 2.15,1.2 C -3.2,1 -3.55,0.1 -4.1,-1.15 c 0.75,1.05 1.4,1.75 1.85,2 0.05,-1.15 0.1,-2.1 0.15,-2.95 0.2,0.6 0.5,1.25 0.9,1.9 0.4,-0.95 0.75,-1.8 1,-2.5 -0.05,1.05 -0.05,1.9 0,2.65 0.2,-0.3 0.45,-0.9 0.75,-1.75 0.2,0.45 0.45,0.9 0.7,1.35 C 2,-1.6 2.6,-2.4 2.95,-2.9 l -0.3,2.6 C 3.3,-0.55 3.85,-0.75 4.3,-1 L 3,0.9 C 4.85,0.3 6.15,-0.35 6.95,-1.05 l -1.3,2.7 C 6.7,1.2 7.55,0.75 8.2,0.3 L 8.2,0.275 6.2,2.9 C 7.9,2.65 9.25,2.25 10.25,1.7 11.2,1.15 12.2,0.6 13.15,0.1 c 0.95,-0.5 2.1,-1.55 3.4,-3.2 1.3,-1.65 2.2,-2.9 2.7,-3.75 0.5,-0.9 1.5,-2.2 3,-3.95 1.45,-1.75 2.5,-4.25 3.05,-7.5 0,1.55 -0.2,3 -0.7,4.25 1.85,-2.5 2.15,-5.35 1.85,-7.35 l -0.35,-2.65 -0.6,2.5 0.6,-2.5 c 0,0 -1,4.5 -1.85,6.5 l -0.8,2 c 0,0 2.3,-7.35 0.65,-12.5 -1.65,-5.2 -2.65,-6.5 -2.65,-6.5 l 0.7,1.3 -0.7,-1.3 0.85,2.6 -0.85,-2.6 c 0,0 1.8,3.5 1.5,10.3 -0.35,6.85 -0.5,7.5 -0.5,7.5 0,0 -0.35,-8.95 -1.2,-11.15 z m -17,21.3 C 4.2,-6.55 4.1,-6.45 4,-6.4 4.1,-6.5 4.2,-6.6 4.25,-6.65 l 0,-0.025 0,0.075 z"
                 inkscape:connector-curvature="0"
                 style="fill:#595959" />
            </g>
          </g>
          <g
             id="drawingObject16">
            <path
               id="path20"
               d="m -18.149,-39.299 c 0,0 -0.65,-1.15 -2.8,1.15 l -1.3,1.45 q -1.45,2.05 -2.4,4.75 l -1.2,3.45 c 0.85,-2.2 1.75,-3.75 2.7,-4.65 l 1.7,-1.5 -0.85,1.6 0.85,-1.6 c 0,0 -1.7,3 -1.7,3.85 l 0,0.85 c 0,0 3.35,-6.2 5,-7.35 l 1.7,-1.15 c 0,0 -2.85,1.3 -3.85,2.15 l -1,0.85 c 0,0 0.85,-2.85 2,-3.35 l 1.15,-0.5 z"
               inkscape:connector-curvature="0"
               style="fill:#8a8a8a" />
          </g>
          <g
             id="drawingObject17">
            <path
               id="path21"
               d="m -16.299,-37.149 q -1.05,0.8 -2.15,2.25 -2.2,2.85 -2.5,5.95 l -0.5,5 c 0,0 1.5,-5.7 2,-6.85 l 0.5,-1.15 -0.5,3.65 0,0.85 c 0,0 0.3,-4 2.5,-6.7 l 2.15,-2.65 c 0,0 -1.15,-0.15 -2.15,1.35 l -1,1.5 c 0,0 1.3,-2.7 1.65,-3.2 z"
               inkscape:connector-curvature="0"
               style="fill:#8a8a8a" />
          </g>
          <g
             id="drawingObject18">
            <path
               id="path22"
               d="m -11.649,-33.799 -2.8,1 -1.25,1.4 q -1.25,1.8 -1.25,4.1 l 0,3.65 c 0,0 0.5,-4.5 2.15,-6.65 1.65,-2.15 3.15,-3.5 3.15,-3.5 z"
               inkscape:connector-curvature="0"
               style="fill:#8a8a8a" />
          </g>
          <g
             id="drawingObject19">
            <path
               id="path23"
               d="m -11.449,-28.649 c 1.3,-1.5 0.5,-3.3 -1.35,0.2 l -0.5,1.15 q -0.5,1.45 -0.5,3 l 0,2.5 c 0,0 1,-5.35 2.35,-6.85 z"
               inkscape:connector-curvature="0"
               style="fill:#8a8a8a" />
          </g>
          <g
             id="drawingObject20">
            <path
               id="path24"
               d="m 9.051,-31.649 1.3,4.5 c 0.65,2.2 1.7,7.85 1.7,7.85 0,0 0.15,-1 -0.5,-5.5 q -0.45,-2.8 -1.5,-5.1 l -1,-1.75 z"
               inkscape:connector-curvature="0"
               style="fill:#8a8a8a" />
          </g>
          <g
             id="drawingObject21">
            <path
               id="path25"
               d="m 15.451,-28.199 -0.25,-0.95 0.75,1.45 -0.75,-1.45 c 0,0 1.5,2.2 1.65,5 l 0.2,2.85 c 0,0 0.65,-4.15 -0.35,-7.65 -1,-3.5 -2.6,-5.5 -2.6,-5.5 l 0.95,1.45 -0.95,-1.45 0.6,4.5 c 0,0 -2.5,-2.85 -3.35,-3.5 l 1.6,4.25 q 1.65,4.65 1.75,6.75 l 0.15,3.3 c 0,0 1.15,-2 1,-5.5 -0.15,-3.5 -0.65,-4.5 -0.65,-4.5"
               inkscape:connector-curvature="0"
               style="fill:#8a8a8a" />
          </g>
          <g
             id="drawingObject22">
            <path
               id="path26"
               d="m 16.601,-36.399 -1.9,-0.9 2,2.4 q 2.1,2.95 2.5,5.75 l 0.65,4.5 c 0,0 0.65,-5.3 -0.5,-8.5 -1.15,-3.15 -4.65,-4.15 -4.65,-4.15"
               inkscape:connector-curvature="0"
               style="fill:#8a8a8a" />
          </g>
          <g
             id="drawingObject23">
            <path
               id="path27"
               d="m 19.951,-38.849 -2.1,-1.6 2.15,2.55 q 2.35,3.3 3.2,6.95 l 1.35,5.8 c 0,0 0.65,-6 -1.2,-9.5 -1.8,-3.5 -5.5,-5.8 -5.5,-5.8"
               inkscape:connector-curvature="0"
               style="fill:#8a8a8a" />
          </g>
        </g>
      </g>
    </g>
    <g
       id="backHair01_1_1">
      <g
         id="element1">
        <g
           id="group3">
          <g
             id="drawingObject7">
            <path
               id="path7"
               d="m 5.546,-24.768 c 1.078,-2.119 7.082,-9.852 5.135,-14.227 q -1.785,-3.91 -4.034,-5.851 -3.054,-2.509 -7.505,-2.072 l -1.827,0.25 c -5.401,0.409 -8.6,2.704 -9.916,7.713 -1.535,5.844 0.35,9.159 0.35,9.159 0,0 -0.655,-3.014 0.052,-5.514 0.658,-2.504 1.438,-2.842 1.438,-2.842 l -0.769,3.248 0.769,-3.248 c 0,0 -1.892,5.313 -0.38,10.103 1.458,4.836 2.026,7.693 0.796,11.053 l -1.321,3.855 c 0,0 3.311,-2.437 2.759,-10.961 -0.406,-7.258 -0.306,-7.25 -0.306,-7.25 l 0.781,4.53 -0.781,-4.53 c 0,0 1.693,8.067 1.054,12.178 -0.59,4.115 -2.937,7.033 -2.687,12.522 0.274,7.648 4.486,9.5 4.486,9.5 0,0 -3.139,-3.921 -2.646,-9.299 0.485,-4.676 1.526,-5.744 1.526,-5.744 l -0.592,1.105 0.592,-1.105 -0.539,4.722 0.539,-4.722 c 0,0 -1.851,8.477 1.042,12.327 2.898,3.801 3.919,3.584 7.204,3.303 C 3.647,3.17 4.314,1.77 4.314,1.77 L 3.601,2.514 4.314,1.77 c 0,0 -2.545,-0.159 -4.411,-1.266 -0.299,-0.627 -0.695,-1.914 -0.078,-3.92 0.898,-2.986 4.851,-6.524 4.161,-11.547 -0.69,-5.024 -1.482,-8.199 -0.785,-9.346 l 0.696,-1.147 0.077,2.114 -0.077,-2.114 c 0,0 -0.079,4.007 0.74,5.028 l 0.769,1.016 c 0,0 -0.892,-3.184 0.14,-5.356 z"
               inkscape:connector-curvature="0"
               style="fill:#707070" />
          </g>
          <g
             id="drawingObject8">
            <path
               id="path8"
               d="m 5.546,-24.768 c 0.713,-1.346 3.313,-4.895 4.659,-8.446 -1.732,3.369 -4.504,5.348 -4.504,5.348 l 0.75,-5.457 c 0,0 -1.125,3.921 -2.797,5.941 -1.671,2.019 -1.353,4.253 -1.353,4.253 l -1.733,-1.497 0.976,4.595 c 0.926,4.592 -0.253,9.161 -0.253,9.161 l 0.018,-2.658 c 0.068,-2.653 -1.5,-6.144 -1.5,-6.144 l 0.782,2.071 -0.782,-2.071 0.357,4.194 c 0.303,4.239 -1.225,8.779 -1.225,8.779 l 0.287,-3.488 c 0.288,-3.489 -1.466,-9.001 -1.466,-9.001 l 0.842,3.18 -0.842,-3.18 0.144,2.52 -0.144,-2.52 c 0,0 0.369,4.044 0.041,8.03 -0.328,3.987 -0.938,8.954 -0.938,8.954 l -0.5,-1.848 c -0.496,-1.897 0.134,-7.715 0.134,-7.715 l -0.259,3.14 0.259,-3.14 -0.469,0.815 0.469,-0.815 c 0,0 -0.718,0.794 -1.503,4.241 -0.786,3.447 -0.247,6.652 -0.247,6.652 0,0 -0.785,-0.215 -1.679,-5.807 -0.894,-5.592 1.735,-8.888 1.735,-8.888 l -1.198,2.36 1.198,-2.36 -1.257,1.251 c -1.307,1.247 -2.996,5.925 -2.996,5.925 0,0 0.545,-2.966 2.26,-7.34 1.714,-4.374 0.859,-8.608 -0.498,-12.232 -1.357,-3.623 -0.394,-7.407 -0.394,-7.407 l -0.292,2.334 0.292,-2.334 -1.468,1.384 c -0.71,0.694 -1.037,1.62 -1.202,2.41 l 0.369,-4.485 c 0.214,-2.592 1.043,-4.129 1.772,-5.072 -1.178,0.906 -3.182,2.096 -3.182,2.096 l 1.351,-2.397 c 0.817,-1.388 2.048,-2.942 3.413,-4.285 -2.851,1.12 -4.685,3.277 -5.574,6.766 -1.535,5.844 0.35,9.159 0.35,9.159 0,0 -0.655,-3.014 0.052,-5.514 0.658,-2.504 1.438,-2.842 1.438,-2.842 l -0.769,3.248 0.769,-3.248 c 0,0 -1.892,5.313 -0.38,10.103 1.458,4.836 2.026,7.693 0.796,11.053 l -1.321,3.855 c 0,0 3.311,-2.437 2.759,-10.961 -0.406,-7.258 -0.306,-7.25 -0.306,-7.25 l 0.781,4.53 -0.781,-4.53 c 0,0 1.693,8.067 1.054,12.178 -0.59,4.115 -2.937,7.033 -2.687,12.522 0.274,7.648 4.486,9.5 4.486,9.5 0,0 -3.139,-3.921 -2.646,-9.299 0.485,-4.676 1.526,-5.744 1.526,-5.744 l -0.592,1.105 0.592,-1.105 -0.539,4.722 0.539,-4.722 c 0,0 -1.851,8.477 1.042,12.327 2.898,3.801 3.919,3.584 7.204,3.303 C 3.141,3.229 3.974,2.244 4.202,1.912 2.36,2.964 -0.256,3.049 -1.636,2.133 Q -3.73,0.757 -1.086,-4.544 C 0.29,-7.24 2.84,-11.395 3.235,-14.373 3.631,-17.35 2.247,-22.481 2.247,-22.481 l 0.659,2.964 -0.659,-2.964 0.862,1.726 c -0.21,-1.723 -0.261,-2.931 0.092,-3.554 l 0.696,-1.147 0.077,2.114 -0.077,-2.114 c 0,0 -0.079,4.007 0.74,5.028 l 0.769,1.016 c 0,0 -0.892,-3.184 0.14,-5.356 z"
               inkscape:connector-curvature="0"
               style="fill:#595959" />
          </g>
          <g
             id="drawingObject9">
            <path
               id="path9"
               d="m 2.777,-45.365 c 0,0 -3.136,-0.91 -6.398,0.326 -3.263,1.237 -4.988,3.904 -4.988,3.904 0,0 1.532,-0.325 2.57,-0.742 q -0.41,0.719 -0.887,1.633 -0.903,1.832 -0.99,2.879 l -0.135,1.644 c 0,0 1.024,-2.073 1.753,-3.016 l 0.73,-0.944 -0.749,1.795 0.749,-1.795 c 0,0 -1.7,2.369 -0.885,7.102 l 0.76,4.778 c 0,0 -0.129,-4.526 0.441,-7.188 0.517,-2.616 0.935,-3.435 0.935,-3.435 l -0.487,2.268 0.487,-2.268 c 0,0 -1.175,3.917 -0.359,6.192 l 0.82,2.225 c 0,0 0.083,-4.659 1.342,-7.766 1.255,-3.058 3.172,-4.405 3.172,-4.405 l -0.531,4.622 c 0.128,-0.943 0.559,-1.911 1.243,-2.908 1.31,-1.899 1.766,-3.166 1.766,-3.166 0,0 -2.679,-0.371 -3.919,0.681 l -1.241,1.052 c 0,0 1.672,-2.02 3.236,-2.744 l 1.565,-0.724 z"
               inkscape:connector-curvature="0"
               style="fill:#8a8a8a" />
          </g>
          <g
             id="drawingObject10">
            <path
               id="path10"
               d="m 5.082,-36.797 c 1.011,-1.923 0.33,-5.842 -1.249,-3.113 q -0.469,0.814 -1.762,2.514 -1.083,1.566 -1.21,3.111 l -0.328,3.987 c 0,0 2.055,-4.848 2.984,-5.775 L 4.446,-37 c 0,0 -0.915,2.584 -1.715,4.374 l -0.795,1.741 3.146,-5.912 z"
               inkscape:connector-curvature="0"
               style="fill:#8a8a8a" />
          </g>
          <g
             id="drawingObject11">
            <path
               id="path11"
               d="m 7.873,-40.229 -0.312,3.787 q 0.222,1.573 -0.304,3.687 l -0.728,2.75 c 0,0 1.602,-1.173 1.781,-5.172 0.128,-4.002 -0.437,-5.052 -0.437,-5.052 z"
               inkscape:connector-curvature="0"
               style="fill:#8a8a8a" />
          </g>
          <g
             id="drawingObject12">
            <path
               id="path12"
               d="m -3.297,-23.389 -0.151,-1.217 -0.865,2.588 -0.832,-2.075 q 0.021,0.955 0.011,2.91 -0.044,1.753 -0.354,3.082 l -0.525,2.114 c 0,0 1.55,-2.381 1.64,-3.477 l -0.024,0.299 c -0.153,1.241 -0.45,2.421 -0.798,3.596 -0.882,2.787 -0.827,3.946 -0.827,3.946 0,0 2.527,-2.652 2.746,-7.149 0.22,-4.497 -0.172,-5.834 -0.172,-5.834"
               inkscape:connector-curvature="0"
               style="fill:#8a8a8a" />
          </g>
          <g
             id="drawingObject13">
            <path
               id="path13"
               d="m -0.784,-14.302 c 0.226,-2.741 0.294,-4.792 0.164,-6.258 -0.123,-2.167 -1.439,-2.627 -1.439,-2.627 l 0.66,0.506 -0.66,-0.506 q -0.011,1.354 0.372,2.79 0.542,1.951 0.671,2.815 c 0.18,1.469 0.24,2.578 0.232,3.28 z"
               inkscape:connector-curvature="0"
               style="fill:#8a8a8a" />
          </g>
        </g>
      </g>
    </g>
    <g
       id="backHair01_1_0">
      <g
         id="element">
        <g
           id="group1">
          <g
             id="drawingObject">
            <path
               id="path"
               d="m 5.546,-24.768 c 1.078,-2.119 7.082,-9.852 5.135,-14.227 q -1.785,-3.91 -4.034,-5.851 -3.054,-2.509 -7.505,-2.072 l -1.827,0.25 c -5.401,0.409 -8.6,2.704 -9.916,7.713 -1.535,5.844 0.35,9.159 0.35,9.159 0,0 -0.655,-3.014 0.052,-5.514 0.658,-2.504 1.438,-2.842 1.438,-2.842 l -0.769,3.248 0.769,-3.248 c 0,0 -1.892,5.313 -0.38,10.103 1.458,4.836 2.026,7.693 0.796,11.053 l -1.321,3.855 c 0,0 3.311,-2.437 2.759,-10.961 -0.406,-7.258 -0.306,-7.25 -0.306,-7.25 l 0.781,4.53 -0.781,-4.53 c 0,0 1.693,8.067 1.054,12.178 -0.59,4.115 -2.937,7.033 -2.687,12.522 0.274,7.648 4.486,9.5 4.486,9.5 0,0 -3.139,-3.921 -2.646,-9.299 0.485,-4.676 1.526,-5.744 1.526,-5.744 l -0.592,1.105 0.592,-1.105 -0.539,4.722 0.539,-4.722 c 0,0 -1.851,8.477 1.042,12.327 2.898,3.801 3.919,3.584 7.204,3.303 C 3.647,3.17 4.314,1.77 4.314,1.77 L 3.601,2.514 4.314,1.77 c 0,0 -2.545,-0.159 -4.411,-1.266 -0.299,-0.627 -0.695,-1.914 -0.078,-3.92 0.898,-2.986 4.851,-6.524 4.161,-11.547 -0.69,-5.024 -1.482,-8.199 -0.785,-9.346 l 0.696,-1.147 0.077,2.114 -0.077,-2.114 c 0,0 -0.079,4.007 0.74,5.028 l 0.769,1.016 c 0,0 -0.892,-3.184 0.14,-5.356 z"
               inkscape:connector-curvature="0"
               style="fill:#707070" />
          </g>
          <g
             id="drawingObject1">
            <path
               id="path1"
               d="m 5.546,-24.768 c 0.713,-1.346 3.313,-4.895 4.659,-8.446 -1.732,3.369 -4.504,5.348 -4.504,5.348 l 0.75,-5.457 c 0,0 -1.125,3.921 -2.797,5.941 -1.671,2.019 -1.353,4.253 -1.353,4.253 l -1.733,-1.497 0.976,4.595 c 0.926,4.592 -0.253,9.161 -0.253,9.161 l 0.018,-2.658 c 0.068,-2.653 -1.5,-6.144 -1.5,-6.144 l 0.782,2.071 -0.782,-2.071 0.357,4.194 c 0.303,4.239 -1.225,8.779 -1.225,8.779 l 0.287,-3.488 c 0.288,-3.489 -1.466,-9.001 -1.466,-9.001 l 0.842,3.18 -0.842,-3.18 0.144,2.52 -0.144,-2.52 c 0,0 0.369,4.044 0.041,8.03 -0.328,3.987 -0.938,8.954 -0.938,8.954 l -0.5,-1.848 c -0.496,-1.897 0.134,-7.715 0.134,-7.715 l -0.259,3.14 0.259,-3.14 -0.469,0.815 0.469,-0.815 c 0,0 -0.718,0.794 -1.503,4.241 -0.786,3.447 -0.247,6.652 -0.247,6.652 0,0 -0.785,-0.215 -1.679,-5.807 -0.894,-5.592 1.735,-8.888 1.735,-8.888 l -1.198,2.36 1.198,-2.36 -1.257,1.251 c -1.307,1.247 -2.996,5.925 -2.996,5.925 0,0 0.545,-2.966 2.26,-7.34 1.714,-4.374 0.859,-8.608 -0.498,-12.232 -1.357,-3.623 -0.394,-7.407 -0.394,-7.407 l -0.292,2.334 0.292,-2.334 -1.468,1.384 c -0.71,0.694 -1.037,1.62 -1.202,2.41 l 0.369,-4.485 c 0.214,-2.592 1.043,-4.129 1.772,-5.072 -1.178,0.906 -3.182,2.096 -3.182,2.096 l 1.351,-2.397 c 0.817,-1.388 2.048,-2.942 3.413,-4.285 -2.851,1.12 -4.685,3.277 -5.574,6.766 -1.535,5.844 0.35,9.159 0.35,9.159 0,0 -0.655,-3.014 0.052,-5.514 0.658,-2.504 1.438,-2.842 1.438,-2.842 l -0.769,3.248 0.769,-3.248 c 0,0 -1.892,5.313 -0.38,10.103 1.458,4.836 2.026,7.693 0.796,11.053 l -1.321,3.855 c 0,0 3.311,-2.437 2.759,-10.961 -0.406,-7.258 -0.306,-7.25 -0.306,-7.25 l 0.781,4.53 -0.781,-4.53 c 0,0 1.693,8.067 1.054,12.178 -0.59,4.115 -2.937,7.033 -2.687,12.522 0.274,7.648 4.486,9.5 4.486,9.5 0,0 -3.139,-3.921 -2.646,-9.299 0.485,-4.676 1.526,-5.744 1.526,-5.744 l -0.592,1.105 0.592,-1.105 -0.539,4.722 0.539,-4.722 c 0,0 -1.851,8.477 1.042,12.327 2.898,3.801 3.919,3.584 7.204,3.303 C 3.141,3.229 3.974,2.244 4.202,1.912 2.36,2.964 -0.256,3.049 -1.636,2.133 Q -3.73,0.757 -1.086,-4.544 C 0.29,-7.24 2.84,-11.395 3.235,-14.373 3.631,-17.35 2.247,-22.481 2.247,-22.481 l 0.659,2.964 -0.659,-2.964 0.862,1.726 c -0.21,-1.723 -0.261,-2.931 0.092,-3.554 l 0.696,-1.147 0.077,2.114 -0.077,-2.114 c 0,0 -0.079,4.007 0.74,5.028 l 0.769,1.016 c 0,0 -0.892,-3.184 0.14,-5.356 z"
               inkscape:connector-curvature="0"
               style="fill:#595959" />
          </g>
          <g
             id="drawingObject2">
            <path
               id="path2"
               d="m 2.777,-45.365 c 0,0 -3.136,-0.91 -6.398,0.326 -3.263,1.237 -4.988,3.904 -4.988,3.904 0,0 1.532,-0.325 2.57,-0.742 q -0.41,0.719 -0.887,1.633 -0.903,1.832 -0.99,2.879 l -0.135,1.644 c 0,0 1.024,-2.073 1.753,-3.016 l 0.73,-0.944 -0.749,1.795 0.749,-1.795 c 0,0 -1.7,2.369 -0.885,7.102 l 0.76,4.778 c 0,0 -0.129,-4.526 0.441,-7.188 0.517,-2.616 0.935,-3.435 0.935,-3.435 l -0.487,2.268 0.487,-2.268 c 0,0 -1.175,3.917 -0.359,6.192 l 0.82,2.225 c 0,0 0.083,-4.659 1.342,-7.766 1.255,-3.058 3.172,-4.405 3.172,-4.405 l -0.531,4.622 c 0.128,-0.943 0.559,-1.911 1.243,-2.908 1.31,-1.899 1.766,-3.166 1.766,-3.166 0,0 -2.679,-0.371 -3.919,0.681 l -1.241,1.052 c 0,0 1.672,-2.02 3.236,-2.744 l 1.565,-0.724 z"
               inkscape:connector-curvature="0"
               style="fill:#8a8a8a" />
          </g>
          <g
             id="drawingObject3">
            <path
               id="path3"
               d="m 5.082,-36.797 c 1.011,-1.923 0.33,-5.842 -1.249,-3.113 q -0.469,0.814 -1.762,2.514 -1.083,1.566 -1.21,3.111 l -0.328,3.987 c 0,0 2.055,-4.848 2.984,-5.775 L 4.446,-37 c 0,0 -0.915,2.584 -1.715,4.374 l -0.795,1.741 3.146,-5.912 z"
               inkscape:connector-curvature="0"
               style="fill:#8a8a8a" />
          </g>
          <g
             id="drawingObject4">
            <path
               id="path4"
               d="m 7.873,-40.229 -0.312,3.787 q 0.222,1.573 -0.304,3.687 l -0.728,2.75 c 0,0 1.602,-1.173 1.781,-5.172 0.128,-4.002 -0.437,-5.052 -0.437,-5.052 z"
               inkscape:connector-curvature="0"
               style="fill:#8a8a8a" />
          </g>
          <g
             id="drawingObject5">
            <path
               id="path5"
               d="m -3.297,-23.389 -0.151,-1.217 -0.865,2.588 -0.832,-2.075 q 0.021,0.955 0.011,2.91 -0.044,1.753 -0.354,3.082 l -0.525,2.114 c 0,0 1.55,-2.381 1.64,-3.477 l -0.024,0.299 c -0.153,1.241 -0.45,2.421 -0.798,3.596 -0.882,2.787 -0.827,3.946 -0.827,3.946 0,0 2.527,-2.652 2.746,-7.149 0.22,-4.497 -0.172,-5.834 -0.172,-5.834"
               inkscape:connector-curvature="0"
               style="fill:#8a8a8a" />
          </g>
          <g
             id="drawingObject6">
            <path
               id="path6"
               d="m -0.784,-14.302 c 0.226,-2.741 0.294,-4.792 0.164,-6.258 -0.123,-2.167 -1.439,-2.627 -1.439,-2.627 l 0.66,0.506 -0.66,-0.506 q -0.011,1.354 0.372,2.79 0.542,1.951 0.671,2.815 c 0.18,1.469 0.24,2.578 0.232,3.28 z"
               inkscape:connector-curvature="0"
               style="fill:#8a8a8a" />
          </g>
        </g>
      </g>
    </g>
  </g>
</svg>
