<?xml version="1.0" encoding="UTF-8" standalone="no"?>
<!-- Generator: flash2svg, http://dissentgraphics.com/tools/flash2svg -->

<svg
   xmlns:dc="http://purl.org/dc/elements/1.1/"
   xmlns:cc="http://creativecommons.org/ns#"
   xmlns:rdf="http://www.w3.org/1999/02/22-rdf-syntax-ns#"
   xmlns:svg="http://www.w3.org/2000/svg"
   xmlns="http://www.w3.org/2000/svg"
   xmlns:sodipodi="http://sodipodi.sourceforge.net/DTD/sodipodi-0.dtd"
   xmlns:inkscape="http://www.inkscape.org/namespaces/inkscape"
   id="AvatarAssets"
   image-rendering="auto"
   version="1.1"
   x="0px"
   y="0px"
   width="8.6499996"
   height="6.9160495"
   viewBox="0 0 8.6499996 6.9160495"
   inkscape:version="0.48.4 r9939"
   sodipodi:docname="AvatarAssets_sideNose0010.svg">
  <metadata
     id="metadata3051">
    <rdf:RDF>
      <cc:Work
         rdf:about="">
        <dc:format>image/svg+xml</dc:format>
        <dc:type
           rdf:resource="http://purl.org/dc/dcmitype/StillImage" />
      </cc:Work>
    </rdf:RDF>
  </metadata>
  <sodipodi:namedview
     pagecolor="#ffffff"
     bordercolor="#666666"
     borderopacity="1"
     objecttolerance="10"
     gridtolerance="10"
     guidetolerance="10"
     inkscape:pageopacity="0"
     inkscape:pageshadow="2"
     inkscape:window-width="640"
     inkscape:window-height="480"
     id="namedview3049"
     showgrid="false"
     fit-margin-top="0"
     fit-margin-left="0"
     fit-margin-right="0"
     fit-margin-bottom="0"
     inkscape:zoom="1.9032258"
     inkscape:cx="36.149"
     inkscape:cy="-57.599"
     inkscape:window-x="0"
     inkscape:window-y="0"
     inkscape:window-maximized="0"
     inkscape:current-layer="AvatarAssets" />
  <defs
     id="defs3038" />
  <g
     id="sideNose11"
     overflow="visible"
     style="overflow:visible"
     transform="translate(4.149,2.5150494)">
    <g
       id="sideNose0010_0">
      <g
         id="element">
        <g
           id="drawingObject">
          <path
             id="path"
             d="m 2.901,2.151 0.25,-0.25 c -0.65,0.4 -1.7,0.85 -3,0.75 -1.3,-0.1 -2.2,-0.35 -3.05,-0.7 l 3.2,2.45 c 0,0 0.1,-1.25 0.7,-1.45 0.55,-0.2 1.65,-0.55 1.9,-0.8 z"
             inkscape:connector-curvature="0"
             style="fill:#000000;fill-opacity:0.2" />
          <path
             id="path1"
             d="m 3.151,1.901 c 0.9,-0.6 1.35,-1.15 1.35,-1.15 0,0 -0.95,1.1 -4.15,1.2 -1.05,0.05 -1.9,-0.05 -2.8,-0.2 q -0.795,-0.282 -1.7,-0.75 c 0,0 0.35,0.55 1.25,0.95 0.85,0.35 1.75,0.6 3.05,0.7 1.3,0.1 2.35,-0.35 3,-0.75 z"
             inkscape:connector-curvature="0"
             style="fill:#000000;fill-opacity:0.4" />
          <path
             id="path2"
             d="m 2.551,1.251 c 1.55,-0.4 1.75,-1.15 1.55,-1.45 -0.25,-0.35 -0.7,-1.25 -2.55,-1.4 -1.55,-0.15 -3.85,0.85 -3.2,1.9 0.65,1 2.7,1.4 4.2,0.95 z m -0.35,-0.7 c -0.55,0 -1,-0.25 -1,-0.55 0,-0.3 0.45,-0.55 1,-0.55 0.5,0 0.95,0.25 0.95,0.55 0,0.3 -0.45,0.55 -0.95,0.55 z"
             inkscape:connector-curvature="0"
             style="fill:#ffffff;fill-opacity:0.08600003" />
          <path
             id="path3"
             d="m 2.201,0.551 c 0.5,0 0.95,-0.25 0.95,-0.55 0,-0.3 -0.45,-0.55 -0.95,-0.55 -0.55,0 -1,0.25 -1,0.55 0,0.3 0.45,0.55 1,0.55 z"
             inkscape:connector-curvature="0"
             style="fill:#ffffff" />
          <path
             id="path6"
             d="m 0.651,-2.499 c -1.15,-0.1 -1.9,0.3 -1.9,0.3 0,0 0.4,-0.1 1.35,-0.1 0.95,0 2.9,0.6 2.9,0.6 0,0 -1.25,-0.7 -2.35,-0.8 z"
             inkscape:connector-curvature="0"
             style="fill:#000000;fill-opacity:0.08600003" />
        </g>
      </g>
    </g>
  </g>
</svg>
