<?xml version="1.0" encoding="UTF-8" standalone="no"?>
<!-- Generator: flash2svg, http://dissentgraphics.com/tools/flash2svg -->

<svg
   xmlns:dc="http://purl.org/dc/elements/1.1/"
   xmlns:cc="http://creativecommons.org/ns#"
   xmlns:rdf="http://www.w3.org/1999/02/22-rdf-syntax-ns#"
   xmlns:svg="http://www.w3.org/2000/svg"
   xmlns="http://www.w3.org/2000/svg"
   xmlns:sodipodi="http://sodipodi.sourceforge.net/DTD/sodipodi-0.dtd"
   xmlns:inkscape="http://www.inkscape.org/namespaces/inkscape"
   id="AvatarAssets"
   image-rendering="auto"
   version="1.1"
   x="0px"
   y="0px"
   width="10.405118"
   height="10.03915"
   viewBox="0 0 10.405118 10.03915"
   inkscape:version="0.48.4 r9939"
   sodipodi:docname="AvatarAssets_sideNose20101109B.svg">
  <metadata
     id="metadata3405">
    <rdf:RDF>
      <cc:Work
         rdf:about="">
        <dc:format>image/svg+xml</dc:format>
        <dc:type
           rdf:resource="http://purl.org/dc/dcmitype/StillImage" />
      </cc:Work>
    </rdf:RDF>
  </metadata>
  <sodipodi:namedview
     pagecolor="#ffffff"
     bordercolor="#666666"
     borderopacity="1"
     objecttolerance="10"
     gridtolerance="10"
     guidetolerance="10"
     inkscape:pageopacity="0"
     inkscape:pageshadow="2"
     inkscape:window-width="640"
     inkscape:window-height="480"
     id="namedview3403"
     showgrid="false"
     fit-margin-top="0"
     fit-margin-left="0"
     fit-margin-right="0"
     fit-margin-bottom="0"
     inkscape:zoom="1.9032258"
     inkscape:cx="38.017"
     inkscape:cy="-55.512"
     inkscape:window-x="0"
     inkscape:window-y="0"
     inkscape:window-maximized="0"
     inkscape:current-layer="AvatarAssets" />
  <defs
     id="defs3338">
    <linearGradient
       gradientUnits="userSpaceOnUse"
       color-interpolation="sRGB"
       x1="283.23749"
       y1="186.27499"
       x2="294.0625"
       y2="187.325"
       id="linearGradient">
      <stop
         stop-color="#000"
         stop-opacity="0.08627450980392157"
         offset="0"
         id="stop3341" />
      <stop
         stop-color="#000"
         stop-opacity="0.08627450980392157"
         offset="1"
         id="stop3343" />
    </linearGradient>
    <linearGradient
       gradientUnits="userSpaceOnUse"
       color-interpolation="sRGB"
       x1="-4.974"
       y1="2.9124999"
       x2="4.276"
       y2="2.7874999"
       id="linearGradient1">
      <stop
         stop-color="#000"
         stop-opacity="0.2980392156862745"
         offset="0"
         id="stop3346" />
      <stop
         stop-color="#000"
         stop-opacity="0.2980392156862745"
         offset="0.85882"
         id="stop3348" />
      <stop
         stop-color="#000"
         stop-opacity="0.2980392156862745"
         offset="1"
         id="stop3350" />
    </linearGradient>
    <linearGradient
       gradientUnits="userSpaceOnUse"
       color-interpolation="sRGB"
       x1="308.33749"
       y1="196.10001"
       x2="314.36249"
       y2="196.10001"
       id="linearGradient2">
      <stop
         stop-color="#FFF"
         stop-opacity="0.2980392156862745"
         offset="0.07451"
         id="stop3353" />
      <stop
         stop-color="#FFF"
         stop-opacity="0.2980392156862745"
         offset="0.26275"
         id="stop3355" />
    </linearGradient>
    <linearGradient
       gradientUnits="userSpaceOnUse"
       color-interpolation="sRGB"
       x1="308.17499"
       y1="195.3"
       x2="313.82501"
       y2="195.3"
       id="linearGradient3">
      <stop
         stop-color="#000"
         stop-opacity="0.2980392156862745"
         offset="0"
         id="stop3358" />
      <stop
         stop-color="#000"
         stop-opacity="0.2980392156862745"
         offset="0.85882"
         id="stop3360" />
      <stop
         stop-color="#000"
         stop-opacity="0.2980392156862745"
         offset="1"
         id="stop3362" />
    </linearGradient>
    <linearGradient
       gradientUnits="userSpaceOnUse"
       color-interpolation="sRGB"
       x1="-6.1240001"
       y1="2.7119999"
       x2="4.1589999"
       y2="3.7090001"
       id="linearGradient4">
      <stop
         stop-color="#000"
         stop-opacity="0.08627450980392157"
         offset="0"
         id="stop3365" />
      <stop
         stop-color="#000"
         stop-opacity="0.08627450980392157"
         offset="1"
         id="stop3367" />
    </linearGradient>
    <linearGradient
       gradientUnits="userSpaceOnUse"
       color-interpolation="sRGB"
       x1="-4.974"
       y1="2.9130001"
       x2="4.276"
       y2="2.7880001"
       id="linearGradient5">
      <stop
         stop-color="#000"
         stop-opacity="0.2980392156862745"
         offset="0"
         id="stop3370" />
      <stop
         stop-color="#000"
         stop-opacity="0.2980392156862745"
         offset="0.85882"
         id="stop3372" />
      <stop
         stop-color="#000"
         stop-opacity="0.2980392156862745"
         offset="1"
         id="stop3374" />
    </linearGradient>
    <linearGradient
       gradientUnits="userSpaceOnUse"
       color-interpolation="sRGB"
       x1="-3.836"
       y1="-2.24"
       x2="1.875"
       y2="-1.8710001"
       id="linearGradient6">
      <stop
         stop-color="#FFF"
         stop-opacity="0.2980392156862745"
         offset="0.07451"
         id="stop3377" />
      <stop
         stop-color="#FFF"
         stop-opacity="0.2980392156862745"
         offset="0.26275"
         id="stop3379" />
    </linearGradient>
    <linearGradient
       gradientUnits="userSpaceOnUse"
       color-interpolation="sRGB"
       x1="-3.941"
       y1="-3.0079999"
       x2="1.414"
       y2="-2.6619999"
       id="linearGradient7">
      <stop
         stop-color="#000"
         stop-opacity="0.2980392156862745"
         offset="0"
         id="stop3382" />
      <stop
         stop-color="#000"
         stop-opacity="0.2980392156862745"
         offset="0.85882"
         id="stop3384" />
      <stop
         stop-color="#000"
         stop-opacity="0.2980392156862745"
         offset="1"
         id="stop3386" />
    </linearGradient>
  </defs>
  <g
     id="sideNose20101109B1"
     overflow="visible"
     style="overflow:visible"
     transform="translate(6.017,3.5511504)">
    <g
       id="sideNose20101109B_0">
      <g
         id="element">
        <g
           id="drawingObject">
          <path
             id="path"
             d="M 0.49,0.74 C -2.502,0.93 -3.31,0.55 -4.402,0.408 -5.447,0.313 -6.017,1.453 -6.017,1.453 l 0.38,-0.523 -0.38,0.523 0.427,0.38 -0.427,-0.38 c 0,0 0.665,0.665 1.377,1.045 0.713,0.38 1.615,0.617 2.47,1.33 0.808,0.712 1.805,2.66 1.805,2.66 L 0.11,5.68 -0.365,6.488 c 0,0 0.76,-1.473 1.425,-2.043 0.665,-0.522 1.188,-1.14 1.188,-1.14 L 2.723,2.83 2.248,3.305 c 0,0 0.807,-0.855 1.472,-1.235 L 4.338,1.69 c 0,0 0.332,-1.615 -0.713,-1.235 Q 3.53,0.55 0.49,0.74 z"
             inkscape:connector-curvature="0"
             style="fill:url(#linearGradient4)" />
        </g>
        <g
           id="drawingObject1">
          <path
             id="path1"
             d="M 2.9,2.45 C 2.55,2.6 2.15,2.8 1.8,2.95 1.45,3.1 0.8,3.2 -0.1,3.2 -1,3.2 -1.9,3 -2.85,2.65 l -0.025,0 Q -4.303,2.097 -4.9,2.3 c 0.35,0.1 0.7,0.25 1.1,0.5 0.35,0.2 0.85,0.45 1.45,0.75 0.65,0.25 1.35,0.55 2,0.6 0.85,0.1 1.6,-0.1 2.4,-0.6 C 2.6,3.15 3.25,2.5 4,1.6 3.95,1.65 3.9,1.7 3.8,1.75 3.55,2 3.25,2.25 2.9,2.45 z"
             inkscape:connector-curvature="0"
             style="fill:url(#linearGradient5)" />
        </g>
        <g
           id="drawingObject2">
          <path
             id="path2"
             d="M -0.679,3.066 -0.829,2.437 Q -1.358,1.784 -2.658,1.272 -4.052,0.754 -4.784,1.04 c -0.292,0.838 1.657,0.868 2.125,0.994 0.705,0.14 1.334,0.704 1.98,1.032 z"
             inkscape:connector-curvature="0"
             style="fill:#2b1f0e" />
        </g>
        <g
           id="drawingObject3">
          <path
             id="path3"
             d="M 2.15,2.475 2.435,2.493 C 2.699,2.082 4.495,1.531 3.853,1.157 Q 3.439,0.94 2.83,1.519 2.373,1.965 2.15,2.475 z"
             inkscape:connector-curvature="0"
             style="fill:#2b1f0e" />
        </g>
        <g
           id="drawingObject4">
          <path
             id="path4"
             d="m -0.123,-2.809 -0.515,-0.129 q -3.46,-0.223 -3.194,1.555 c 0.85,0.103 1.532,-0.139 2.385,-0.084 l 2.18,0.141 c 0.761,0.001 1.623,-0.086 0.864,-0.849 -0.355,-0.403 -1.202,-0.553 -1.72,-0.634 z"
             inkscape:connector-curvature="0"
             style="fill:url(#linearGradient6)" />
        </g>
        <g
           id="drawingObject5">
          <path
             id="path5"
             d="m -3.96,-2.343 0.136,0.104 c 0.807,-0.709 1.574,-0.802 2.611,-0.64 0.897,0.105 1.773,0.542 2.626,0.597 q -1.007,-1.35 -2.631,-1.264 -1.431,0.051 -2.742,1.203 z"
             inkscape:connector-curvature="0"
             style="fill:url(#linearGradient7)" />
        </g>
      </g>
    </g>
  </g>
</svg>
