<?xml version="1.0" encoding="UTF-8" standalone="no"?>
<!-- Generator: flash2svg, http://dissentgraphics.com/tools/flash2svg -->

<svg
   xmlns:dc="http://purl.org/dc/elements/1.1/"
   xmlns:cc="http://creativecommons.org/ns#"
   xmlns:rdf="http://www.w3.org/1999/02/22-rdf-syntax-ns#"
   xmlns:svg="http://www.w3.org/2000/svg"
   xmlns="http://www.w3.org/2000/svg"
   xmlns:sodipodi="http://sodipodi.sourceforge.net/DTD/sodipodi-0.dtd"
   xmlns:inkscape="http://www.inkscape.org/namespaces/inkscape"
   id="AvatarAssets"
   image-rendering="auto"
   version="1.1"
   x="0px"
   y="0px"
   width="12.976456"
   height="12.401"
   viewBox="0 0 12.976456 12.401"
   inkscape:version="0.48.4 r9939"
   sodipodi:docname="AvatarAssets_sideNose0009.svg">
  <metadata
     id="metadata3035">
    <rdf:RDF>
      <cc:Work
         rdf:about="">
        <dc:format>image/svg+xml</dc:format>
        <dc:type
           rdf:resource="http://purl.org/dc/dcmitype/StillImage" />
      </cc:Work>
    </rdf:RDF>
  </metadata>
  <sodipodi:namedview
     pagecolor="#ffffff"
     bordercolor="#666666"
     borderopacity="1"
     objecttolerance="10"
     gridtolerance="10"
     guidetolerance="10"
     inkscape:pageopacity="0"
     inkscape:pageshadow="2"
     inkscape:window-width="640"
     inkscape:window-height="480"
     id="namedview3033"
     showgrid="false"
     fit-margin-top="0"
     fit-margin-left="0"
     fit-margin-right="0"
     fit-margin-bottom="0"
     inkscape:zoom="1.9032258"
     inkscape:cx="39.12419"
     inkscape:cy="-56.099"
     inkscape:window-x="0"
     inkscape:window-y="0"
     inkscape:window-maximized="0"
     inkscape:current-layer="AvatarAssets" />
  <defs
     id="defs3012" />
  <g
     id="sideNose10"
     overflow="visible"
     style="overflow:visible"
     transform="translate(7.1241899,6.5)">
    <g
       id="sideNose0009_0">
      <g
         id="element">
        <g
           id="drawingObject">
          <path
             id="path"
             d="M 2.275,2.795 C 3.671,2.662 4.296,2.116 4.575,1.515 4.176,1.764 2.896,2.378 0.563,1.874 -1.251,1.429 -2.14,0.619 -2.757,-0.573 -3.374,-1.766 -3.299,-4.286 -3.289,-4.634 l -0.13,-0.004 c 0,0 0.092,1.308 -1.123,2.663 -1.17,1.314 -2.226,1.717 -2.226,1.717 0,0 0.876,-0.191 1.916,-0.073 q 0.998,0.073 1.517,1.654 l 0.347,0.011 0.253,0.268 -0.253,-0.268 c 0,0 0.334,0.488 1.063,0.814 0.559,0.234 1.497,0.871 4.2,0.647 z"
             inkscape:connector-curvature="0"
             style="fill:#000000;fill-opacity:0.06700003" />
        </g>
        <g
           id="drawingObject1">
          <path
             id="path1"
             d="m 3.291,-2.133 c 0,0 1.02,0.813 1.337,1.866 L 4.715,1.171 Q 4.368,2.596 2.275,2.795 C -0.428,3.019 -1.366,2.382 -1.925,2.148 -2.654,1.822 -2.988,1.334 -2.988,1.334 l 0.253,0.268 -0.253,-0.268 c 0,0 -0.733,-0.196 -1.364,0.524 C -4.983,2.622 -6.105,2.328 -6.52,1.663 -6.978,0.954 -7.048,0.386 -7.048,0.386 l 0.075,0.394 -0.075,-0.394 -0.03,1 0.03,-1 c 0,0 -0.578,1.897 1.45,2.436 1.337,0.387 1.494,-0.521 2.18,-0.196 0.688,0.281 1.319,0.996 3.747,1.242 C 1.978,4.004 3.822,3.406 4.466,2.251 4.649,1.952 4.78,1.913 4.78,1.913 L 5.049,1.66 4.78,1.913 c 0,0 0.496,-0.594 0.744,-0.152 0.247,0.486 0.108,0.742 0.108,0.742 0,0 0.441,-0.204 0.075,-1.041 C 5.38,0.756 5.113,0.966 5.113,0.966 L 5.287,0.971 5.113,0.966 C 5.113,0.966 5.09,0.269 4.6,-0.789 4.274,-1.538 3.291,-2.133 3.291,-2.133 z"
             inkscape:connector-curvature="0"
             style="fill:#000000;fill-opacity:0.29800002" />
        </g>
        <g
           id="drawingObject2">
          <path
             id="path2"
             d="m 1.686,-3.906 c 0.367,1.083 1.409,1.738 1.409,1.738 Q 2.179,-3.11 1.963,-4.087 C 1.711,-5.014 1.626,-6.5 1.626,-6.5 c 0,0 -0.272,1.461 0.06,2.594 z"
             inkscape:connector-curvature="0"
             style="fill:#ffffff" />
        </g>
        <g
           id="drawingObject3">
          <path
             id="path3"
             d="M 5.037,2.511 C 4.913,2.29 4.697,2.24 4.611,2.237 Q 4.522,2.278 4.43,2.449 C 4.292,2.706 4.068,2.917 3.845,3.128 L 4.627,3.151 C 4.886,3.202 5.16,2.775 5.037,2.511 z"
             inkscape:connector-curvature="0"
             style="fill:#000000;fill-opacity:0.29800002" />
        </g>
        <g
           id="drawingObject4">
          <path
             id="path4"
             d="m -6.158,2.631 c 0.378,0.446 0.845,0.851 1.534,1.089 1.85,0.664 3.143,1.051 3.656,1.37 0.513,0.277 0.932,0.811 0.932,0.811 0,0 0.651,-1.416 1.978,-2.159 C 1.417,3.857 0.849,3.927 0.329,3.868 Q -1.189,3.736 -2.176,3.271 -3.074,2.766 -3.418,2.626 c -0.686,-0.325 -0.843,0.583 -2.18,0.196 l -0.56,-0.191 z"
             inkscape:connector-curvature="0"
             style="fill:#000000;fill-opacity:0.08600003" />
        </g>
        <g
           id="drawingObject5">
          <path
             id="path5"
             d="M 2.364,1.275 C 3.884,1.321 4.698,0.301 3.357,0.044 Q 1.886,-0.218 1.516,0.511 1.148,1.196 2.364,1.275 z"
             inkscape:connector-curvature="0"
             style="fill:#ffffff;fill-opacity:0.49800002" />
        </g>
        <g
           id="drawingObject6">
          <path
             id="path6"
             d="m -4.937,1.058 c 0.779,0.154 1.107,-0.663 0.42,-0.944 q -0.73,-0.326 -0.878,0.278 -0.147,0.561 0.458,0.666 z"
             inkscape:connector-curvature="0"
             style="fill:#dfdfdf;fill-opacity:0.49800002" />
        </g>
        <g
           id="drawingObject7">
          <path
             id="path7"
             d="m 0.229,-3.007 c -1.223,0.181 -1.932,0.638 -1.932,0.638 0,0 1.054,-0.36 2.403,-0.363 q 1.391,-0.002 2.038,0.191 c 0,0 -0.938,-0.637 -2.509,-0.466 z"
             inkscape:connector-curvature="0"
             style="fill:#000000;fill-opacity:0.29800002" />
        </g>
      </g>
    </g>
  </g>
</svg>
