<?xml version="1.0" encoding="UTF-8" standalone="no"?>
<!-- Generator: flash2svg, http://dissentgraphics.com/tools/flash2svg -->

<svg
   xmlns:dc="http://purl.org/dc/elements/1.1/"
   xmlns:cc="http://creativecommons.org/ns#"
   xmlns:rdf="http://www.w3.org/1999/02/22-rdf-syntax-ns#"
   xmlns:svg="http://www.w3.org/2000/svg"
   xmlns="http://www.w3.org/2000/svg"
   xmlns:sodipodi="http://sodipodi.sourceforge.net/DTD/sodipodi-0.dtd"
   xmlns:inkscape="http://www.inkscape.org/namespaces/inkscape"
   id="AvatarAssets"
   image-rendering="auto"
   version="1.1"
   x="0px"
   y="0px"
   width="7.9302297"
   height="8.0530548"
   viewBox="0 0 7.9302297 8.0530548"
   inkscape:version="0.48.4 r9939"
   sodipodi:docname="AvatarAssets_sideNose20101109D.svg">
  <metadata
     id="metadata3620">
    <rdf:RDF>
      <cc:Work
         rdf:about="">
        <dc:format>image/svg+xml</dc:format>
        <dc:type
           rdf:resource="http://purl.org/dc/dcmitype/StillImage" />
      </cc:Work>
    </rdf:RDF>
  </metadata>
  <sodipodi:namedview
     pagecolor="#ffffff"
     bordercolor="#666666"
     borderopacity="1"
     objecttolerance="10"
     gridtolerance="10"
     guidetolerance="10"
     inkscape:pageopacity="0"
     inkscape:pageshadow="2"
     inkscape:window-width="640"
     inkscape:window-height="480"
     id="namedview3618"
     showgrid="false"
     fit-margin-top="0"
     fit-margin-left="0"
     fit-margin-right="0"
     fit-margin-bottom="0"
     inkscape:zoom="1.9032258"
     inkscape:cx="36.993971"
     inkscape:cy="-56.4"
     inkscape:window-x="0"
     inkscape:window-y="0"
     inkscape:window-maximized="0"
     inkscape:current-layer="AvatarAssets" />
  <defs
     id="defs3538">
    <linearGradient
       gradientUnits="userSpaceOnUse"
       color-interpolation="sRGB"
       x1="0.73750001"
       y1="-0.17399999"
       x2="2.9625001"
       y2="-0.024"
       id="linearGradient">
      <stop
         stop-color="#000"
         stop-opacity="0.6941176470588235"
         offset="0"
         id="stop3541" />
      <stop
         stop-color="#000"
         stop-opacity="0.6941176470588235"
         offset="0.85882"
         id="stop3543" />
      <stop
         stop-color="#000"
         stop-opacity="0.6941176470588235"
         offset="1"
         id="stop3545" />
    </linearGradient>
    <linearGradient
       gradientUnits="userSpaceOnUse"
       color-interpolation="sRGB"
       x1="0.92500001"
       y1="-0.17399999"
       x2="2.9749999"
       y2="-0.024"
       id="linearGradient1">
      <stop
         stop-color="#FFF"
         stop-opacity="0.2"
         offset="0"
         id="stop3548" />
      <stop
         stop-color="#FFF"
         stop-opacity="0.2"
         offset="0.85882"
         id="stop3550" />
      <stop
         stop-color="#FFF"
         stop-opacity="0.2"
         offset="1"
         id="stop3552" />
    </linearGradient>
    <linearGradient
       gradientUnits="userSpaceOnUse"
       color-interpolation="sRGB"
       x1="-4.9990001"
       y1="2.0125"
       x2="2.3010001"
       y2="2.4875"
       id="linearGradient2">
      <stop
         stop-color="#000"
         stop-opacity="0.08627450980392157"
         offset="0"
         id="stop3555" />
      <stop
         stop-color="#000"
         stop-opacity="0.08627450980392157"
         offset="0.85882"
         id="stop3557" />
      <stop
         stop-color="#000"
         stop-opacity="0.08627450980392157"
         offset="1"
         id="stop3559" />
    </linearGradient>
    <linearGradient
       gradientUnits="userSpaceOnUse"
       color-interpolation="sRGB"
       x1="-3.224"
       y1="-0.34900001"
       x2="-0.27399999"
       y2="-0.149"
       id="linearGradient3">
      <stop
         stop-color="#000"
         stop-opacity="0.6941176470588235"
         offset="0"
         id="stop3562" />
      <stop
         stop-color="#000"
         stop-opacity="0.6941176470588235"
         offset="0.85882"
         id="stop3564" />
      <stop
         stop-color="#000"
         stop-opacity="0.6941176470588235"
         offset="1"
         id="stop3566" />
    </linearGradient>
    <linearGradient
       gradientUnits="userSpaceOnUse"
       color-interpolation="sRGB"
       x1="-2.1115"
       y1="-0.2615"
       x2="-0.28650001"
       y2="-0.1365"
       id="linearGradient4">
      <stop
         stop-color="#FFF"
         stop-opacity="0.2"
         offset="0"
         id="stop3569" />
      <stop
         stop-color="#FFF"
         stop-opacity="0.2"
         offset="0.85882"
         id="stop3571" />
      <stop
         stop-color="#FFF"
         stop-opacity="0.2"
         offset="1"
         id="stop3573" />
    </linearGradient>
    <linearGradient
       gradientUnits="userSpaceOnUse"
       color-interpolation="sRGB"
       x1="0.73799998"
       y1="-0.17399999"
       x2="2.9630001"
       y2="-0.024"
       id="linearGradient5">
      <stop
         stop-color="#000"
         stop-opacity="0.6941176470588235"
         offset="0"
         id="stop3576" />
      <stop
         stop-color="#000"
         stop-opacity="0.6941176470588235"
         offset="0.85882"
         id="stop3578" />
      <stop
         stop-color="#000"
         stop-opacity="0.6941176470588235"
         offset="1"
         id="stop3580" />
    </linearGradient>
    <linearGradient
       gradientUnits="userSpaceOnUse"
       color-interpolation="sRGB"
       x1="0.92500001"
       y1="-0.17399999"
       x2="2.9749999"
       y2="-0.024"
       id="linearGradient6">
      <stop
         stop-color="#FFF"
         stop-opacity="0.2"
         offset="0"
         id="stop3583" />
      <stop
         stop-color="#FFF"
         stop-opacity="0.2"
         offset="0.85882"
         id="stop3585" />
      <stop
         stop-color="#FFF"
         stop-opacity="0.2"
         offset="1"
         id="stop3587" />
    </linearGradient>
    <linearGradient
       gradientUnits="userSpaceOnUse"
       color-interpolation="sRGB"
       x1="-4.9990001"
       y1="2.013"
       x2="2.3010001"
       y2="2.4879999"
       id="linearGradient7">
      <stop
         stop-color="#000"
         stop-opacity="0.08627450980392157"
         offset="0"
         id="stop3590" />
      <stop
         stop-color="#000"
         stop-opacity="0.08627450980392157"
         offset="0.85882"
         id="stop3592" />
      <stop
         stop-color="#000"
         stop-opacity="0.08627450980392157"
         offset="1"
         id="stop3594" />
    </linearGradient>
    <linearGradient
       gradientUnits="userSpaceOnUse"
       color-interpolation="sRGB"
       x1="-3.224"
       y1="-0.34900001"
       x2="-0.27399999"
       y2="-0.149"
       id="linearGradient8">
      <stop
         stop-color="#000"
         stop-opacity="0.6941176470588235"
         offset="0"
         id="stop3597" />
      <stop
         stop-color="#000"
         stop-opacity="0.6941176470588235"
         offset="0.85882"
         id="stop3599" />
      <stop
         stop-color="#000"
         stop-opacity="0.6941176470588235"
         offset="1"
         id="stop3601" />
    </linearGradient>
    <linearGradient
       gradientUnits="userSpaceOnUse"
       color-interpolation="sRGB"
       x1="-2.112"
       y1="-0.26100001"
       x2="-0.28600001"
       y2="-0.13600001"
       id="linearGradient9">
      <stop
         stop-color="#FFF"
         stop-opacity="0.2"
         offset="0"
         id="stop3604" />
      <stop
         stop-color="#FFF"
         stop-opacity="0.2"
         offset="0.85882"
         id="stop3606" />
      <stop
         stop-color="#FFF"
         stop-opacity="0.2"
         offset="1"
         id="stop3608" />
    </linearGradient>
  </defs>
  <g
     id="sideNose20101109D1"
     overflow="visible"
     style="overflow:visible"
     transform="translate(4.9939713,2.4530544)">
    <g
       id="sideNose20101109D_0">
      <g
         id="element">
        <path
           id="path"
           d="M 1.2,-2.35 C 0.6,-2 0.65,1.75 1,2.05 2.2,1.95 2.55,1.4 2.3,0.6 2.15,-0.1 1.45,-1.6 1.05,-2.05 l 0.15,-0.3 z"
           inkscape:connector-curvature="0"
           style="fill:url(#linearGradient5)" />
        <path
           id="path1"
           d="M 1.05,-2.05 C 1.45,-1.6 2.15,-0.1 2.3,0.6 2.55,1.4 2.2,1.95 1,2.05 1.35,2.3 2.6,2.2 2.9,1.4 3.2,0.75 1.55,-2.6 1.2,-2.35 l -0.15,0.3 z"
           inkscape:connector-curvature="0"
           style="fill:url(#linearGradient6)" />
        <path
           id="path2"
           d="M 1.55,2.7 C 1.7,2.65 1.9,2.6 2.05,2.6 1.75,2.6 1.35,2.6 0.9,2.65 -0.05,2.8 -0.4,2.6 -0.4,2.6 l 0.3,0.1 -0.3,-0.1 c 0,0 -0.9,0.15 -1.95,0.05 C -3.45,2.5 -3.8,2.3 -4.3,1.45 c -0.25,-0.5 0,-1.35 0.45,-2.1 l -0.75,1 c -0.6,0.95 -0.5,1.7 0.2,2.15 1.3,0.7 2.95,0.7 3.55,1.1 0.6,0.35 0.65,2 0.65,2 L -0.1,4.75 C -0.05,3.95 0.35,3.5 0.6,3.15 0.75,3.05 1.05,2.9 1.55,2.7 z"
           inkscape:connector-curvature="0"
           style="fill:url(#linearGradient7)" />
        <path
           id="path3"
           d="M -0.85,-2.35 Q -1.9,-1.1 -2.5,-0.3 -3.55,1 -3.25,1.3 c 0.4,0.45 0.9,0.7 1.5,0.75 C -1.85,2 -2.05,2 -2.25,1.95 -1.1,2.1 -0.9,1.05 -0.8,0.15 c 0,-0.85 0,-1.65 -0.1,-2.4 l 0.05,-0.1 z"
           inkscape:connector-curvature="0"
           style="fill:url(#linearGradient8)" />
        <path
           id="path4"
           d="m -0.85,-2.35 -0.05,0.1 c 0.1,0.75 0.1,1.55 0.1,2.4 -0.1,0.9 -0.3,1.95 -1.45,1.8 0.2,0.05 0.4,0.05 0.5,0.1 0.65,0.05 1.05,-0.1 1.2,-0.45 0.4,-0.65 0.3,-4.75 -0.3,-3.95 z"
           inkscape:connector-curvature="0"
           style="fill:url(#linearGradient9)" />
      </g>
    </g>
  </g>
</svg>
