<?xml version="1.0" encoding="UTF-8" standalone="no"?>
<!-- Generator: flash2svg, http://dissentgraphics.com/tools/flash2svg -->

<svg
   xmlns:dc="http://purl.org/dc/elements/1.1/"
   xmlns:cc="http://creativecommons.org/ns#"
   xmlns:rdf="http://www.w3.org/1999/02/22-rdf-syntax-ns#"
   xmlns:svg="http://www.w3.org/2000/svg"
   xmlns="http://www.w3.org/2000/svg"
   xmlns:sodipodi="http://sodipodi.sourceforge.net/DTD/sodipodi-0.dtd"
   xmlns:inkscape="http://www.inkscape.org/namespaces/inkscape"
   id="AvatarAssets"
   image-rendering="auto"
   version="1.1"
   x="0px"
   y="0px"
   width="8.649106"
   height="16"
   viewBox="0 0 8.649106 16"
   inkscape:version="0.48.4 r9939"
   sodipodi:docname="AvatarAssets_sideNose20101109C.svg">
  <metadata
     id="metadata3535">
    <rdf:RDF>
      <cc:Work
         rdf:about="">
        <dc:format>image/svg+xml</dc:format>
        <dc:type
           rdf:resource="http://purl.org/dc/dcmitype/StillImage" />
      </cc:Work>
    </rdf:RDF>
  </metadata>
  <sodipodi:namedview
     pagecolor="#ffffff"
     bordercolor="#666666"
     borderopacity="1"
     objecttolerance="10"
     gridtolerance="10"
     guidetolerance="10"
     inkscape:pageopacity="0"
     inkscape:pageshadow="2"
     inkscape:window-width="640"
     inkscape:window-height="480"
     id="namedview3533"
     showgrid="false"
     fit-margin-top="0"
     fit-margin-left="0"
     fit-margin-right="0"
     fit-margin-bottom="0"
     inkscape:zoom="1.9032258"
     inkscape:cx="37.329"
     inkscape:cy="-56.7"
     inkscape:window-x="0"
     inkscape:window-y="0"
     inkscape:window-maximized="0"
     inkscape:current-layer="AvatarAssets" />
  <defs
     id="defs3408">
    <linearGradient
       gradientUnits="userSpaceOnUse"
       color-interpolation="sRGB"
       x1="1.3375"
       y1="-5.6865001"
       x2="2.5625"
       y2="-5.8115001"
       id="linearGradient">
      <stop
         stop-color="#FFF"
         stop-opacity="0.4980392156862745"
         offset="0.07451"
         id="stop3411" />
      <stop
         stop-color="#FFF"
         stop-opacity="0.4980392156862745"
         offset="0.26275"
         id="stop3413" />
    </linearGradient>
    <radialGradient
       gradientUnits="userSpaceOnUse"
       color-interpolation="sRGB"
       r="4.9491096"
       cx="1.4"
       cy="0.80000001"
       fx="1.4"
       fy="0.80000001"
       gradientTransform="matrix(-0.97999573,0.19999695,0.33999634,1.3600006,2.5,-0.599)"
       id="radialGradient">
      <stop
         stop-color="#AD3927"
         stop-opacity="0.48627450980392156"
         offset="0"
         id="stop3416" />
      <stop
         stop-color="#AD3927"
         stop-opacity="0"
         offset="0.95686"
         id="stop3418" />
    </radialGradient>
    <linearGradient
       gradientUnits="userSpaceOnUse"
       color-interpolation="sRGB"
       x1="0.41249999"
       y1="0.88749999"
       x2="2.8875"
       y2="1.4125"
       id="linearGradient1">
      <stop
         stop-color="#FFF"
         stop-opacity="0.2980392156862745"
         offset="0.07451"
         id="stop3421" />
      <stop
         stop-color="#FFF"
         stop-opacity="0.2980392156862745"
         offset="0.26275"
         id="stop3423" />
    </linearGradient>
    <linearGradient
       gradientUnits="userSpaceOnUse"
       color-interpolation="sRGB"
       x1="0.41249999"
       y1="0.88749999"
       x2="2.8875"
       y2="1.4125"
       id="linearGradient2">
      <stop
         stop-color="#FFF"
         stop-opacity="0.2980392156862745"
         offset="0.07451"
         id="stop3426" />
      <stop
         stop-color="#FFF"
         stop-opacity="0.2980392156862745"
         offset="0.26275"
         id="stop3428" />
    </linearGradient>
    <linearGradient
       gradientUnits="userSpaceOnUse"
       color-interpolation="sRGB"
       x1="0.41249999"
       y1="0.88749999"
       x2="2.8875"
       y2="1.4125"
       id="linearGradient3">
      <stop
         stop-color="#FFF"
         stop-opacity="0.2980392156862745"
         offset="0.07451"
         id="stop3431" />
      <stop
         stop-color="#FFF"
         stop-opacity="0.2980392156862745"
         offset="0.26275"
         id="stop3433" />
    </linearGradient>
    <linearGradient
       gradientUnits="userSpaceOnUse"
       color-interpolation="sRGB"
       x1="1.175"
       y1="1.325"
       x2="2.5250001"
       y2="1.375"
       id="linearGradient4">
      <stop
         stop-color="#FFF"
         stop-opacity="0.8"
         offset="0.07451"
         id="stop3436" />
      <stop
         stop-color="#FFF"
         stop-opacity="0.8"
         offset="0.26275"
         id="stop3438" />
    </linearGradient>
    <linearGradient
       gradientUnits="userSpaceOnUse"
       color-interpolation="sRGB"
       x1="1.175"
       y1="1.325"
       x2="2.5250001"
       y2="1.375"
       id="linearGradient5">
      <stop
         stop-color="#FFF"
         stop-opacity="0.8"
         offset="0.07451"
         id="stop3441" />
      <stop
         stop-color="#FFF"
         stop-opacity="0.8"
         offset="0.26275"
         id="stop3443" />
    </linearGradient>
    <linearGradient
       gradientUnits="userSpaceOnUse"
       color-interpolation="sRGB"
       x1="1.175"
       y1="1.325"
       x2="2.5250001"
       y2="1.375"
       id="linearGradient6">
      <stop
         stop-color="#FFF"
         stop-opacity="0.8"
         offset="0.07451"
         id="stop3446" />
      <stop
         stop-color="#FFF"
         stop-opacity="0.8"
         offset="0.26275"
         id="stop3448" />
    </linearGradient>
    <linearGradient
       gradientUnits="userSpaceOnUse"
       color-interpolation="sRGB"
       x1="-2.8625"
       y1="3.5125"
       x2="3.3625"
       y2="2.8875"
       id="linearGradient7">
      <stop
         stop-color="#000"
         stop-opacity="0.4"
         offset="0"
         id="stop3451" />
      <stop
         stop-color="#000"
         stop-opacity="0.4"
         offset="0.85882"
         id="stop3453" />
      <stop
         stop-color="#000"
         stop-opacity="0.4"
         offset="1"
         id="stop3455" />
    </linearGradient>
    <linearGradient
       gradientUnits="userSpaceOnUse"
       color-interpolation="sRGB"
       x1="-3.8115001"
       y1="3.8499999"
       x2="2.2135"
       y2="3.25"
       id="linearGradient8">
      <stop
         stop-color="#000"
         stop-opacity="0.08627450980392157"
         offset="0"
         id="stop3458" />
      <stop
         stop-color="#000"
         stop-opacity="0.08627450980392157"
         offset="0.85882"
         id="stop3460" />
      <stop
         stop-color="#000"
         stop-opacity="0.08627450980392157"
         offset="1"
         id="stop3462" />
    </linearGradient>
    <linearGradient
       gradientUnits="userSpaceOnUse"
       color-interpolation="sRGB"
       x1="-5.5865002"
       y1="-2.5615001"
       x2="-2.7114999"
       y2="-2.8364999"
       id="linearGradient9">
      <stop
         stop-color="#000"
         stop-opacity="0.08627450980392157"
         offset="0"
         id="stop3465" />
      <stop
         stop-color="#000"
         stop-opacity="0.08627450980392157"
         offset="0.85882"
         id="stop3467" />
      <stop
         stop-color="#000"
         stop-opacity="0.08627450980392157"
         offset="1"
         id="stop3469" />
    </linearGradient>
    <linearGradient
       gradientUnits="userSpaceOnUse"
       color-interpolation="sRGB"
       x1="-4.4239998"
       y1="0.5"
       x2="-2.474"
       y2="0.30000001"
       id="linearGradient10">
      <stop
         stop-color="#FFF"
         stop-opacity="0.2980392156862745"
         offset="0.07451"
         id="stop3472" />
      <stop
         stop-color="#FFF"
         stop-opacity="0.2980392156862745"
         offset="0.26275"
         id="stop3474" />
    </linearGradient>
    <linearGradient
       gradientUnits="userSpaceOnUse"
       color-interpolation="sRGB"
       x1="1.3380001"
       y1="-5.6859999"
       x2="2.563"
       y2="-5.8109999"
       id="linearGradient11">
      <stop
         stop-color="#FFF"
         stop-opacity="0.4980392156862745"
         offset="0.07451"
         id="stop3477" />
      <stop
         stop-color="#FFF"
         stop-opacity="0.4980392156862745"
         offset="0.26275"
         id="stop3479" />
    </linearGradient>
    <radialGradient
       gradientUnits="userSpaceOnUse"
       color-interpolation="sRGB"
       r="4.9499998"
       cx="3.9000001"
       cy="0.25099999"
       fx="3.9000001"
       fy="0.25099999"
       gradientTransform="matrix(-0.98,0.2,0.34,1.36,5.05,-0.299)"
       id="radialGradient1">
      <stop
         stop-color="#AD3927"
         stop-opacity="0.48627450980392156"
         offset="0"
         id="stop3482" />
      <stop
         stop-color="#AD3927"
         stop-opacity="0"
         offset="0.95686"
         id="stop3484" />
    </radialGradient>
    <linearGradient
       gradientUnits="userSpaceOnUse"
       color-interpolation="sRGB"
       x1="0.412"
       y1="0.88800001"
       x2="2.888"
       y2="1.4119999"
       id="linearGradient12">
      <stop
         stop-color="#FFF"
         stop-opacity="0.2980392156862745"
         offset="0.07451"
         id="stop3487" />
      <stop
         stop-color="#FFF"
         stop-opacity="0.2980392156862745"
         offset="0.26275"
         id="stop3489" />
    </linearGradient>
    <linearGradient
       gradientUnits="userSpaceOnUse"
       color-interpolation="sRGB"
       x1="1.175"
       y1="1.325"
       x2="2.5250001"
       y2="1.375"
       id="linearGradient13">
      <stop
         stop-color="#FFF"
         stop-opacity="0.8"
         offset="0.07451"
         id="stop3492" />
      <stop
         stop-color="#FFF"
         stop-opacity="0.8"
         offset="0.26275"
         id="stop3494" />
    </linearGradient>
    <linearGradient
       gradientUnits="userSpaceOnUse"
       color-interpolation="sRGB"
       x1="-2.8629999"
       y1="3.513"
       x2="3.3629999"
       y2="2.888"
       id="linearGradient14">
      <stop
         stop-color="#000"
         stop-opacity="0.4"
         offset="0"
         id="stop3497" />
      <stop
         stop-color="#000"
         stop-opacity="0.4"
         offset="0.85882"
         id="stop3499" />
      <stop
         stop-color="#000"
         stop-opacity="0.4"
         offset="1"
         id="stop3501" />
    </linearGradient>
    <linearGradient
       gradientUnits="userSpaceOnUse"
       color-interpolation="sRGB"
       x1="-3.8110001"
       y1="3.8499999"
       x2="2.214"
       y2="3.25"
       id="linearGradient15">
      <stop
         stop-color="#000"
         stop-opacity="0.08627450980392157"
         offset="0"
         id="stop3504" />
      <stop
         stop-color="#000"
         stop-opacity="0.08627450980392157"
         offset="0.85882"
         id="stop3506" />
      <stop
         stop-color="#000"
         stop-opacity="0.08627450980392157"
         offset="1"
         id="stop3508" />
    </linearGradient>
    <linearGradient
       gradientUnits="userSpaceOnUse"
       color-interpolation="sRGB"
       x1="-5.586"
       y1="-2.5610001"
       x2="-2.711"
       y2="-2.836"
       id="linearGradient16">
      <stop
         stop-color="#000"
         stop-opacity="0.08627450980392157"
         offset="0"
         id="stop3511" />
      <stop
         stop-color="#000"
         stop-opacity="0.08627450980392157"
         offset="0.85882"
         id="stop3513" />
      <stop
         stop-color="#000"
         stop-opacity="0.08627450980392157"
         offset="1"
         id="stop3515" />
    </linearGradient>
    <linearGradient
       gradientUnits="userSpaceOnUse"
       color-interpolation="sRGB"
       x1="-4.4239998"
       y1="0.5"
       x2="-2.474"
       y2="0.30000001"
       id="linearGradient17">
      <stop
         stop-color="#FFF"
         stop-opacity="0.2980392156862745"
         offset="0.07451"
         id="stop3518" />
      <stop
         stop-color="#FFF"
         stop-opacity="0.2980392156862745"
         offset="0.26275"
         id="stop3520" />
    </linearGradient>
  </defs>
  <g
     id="sideNose20101109C1"
     overflow="visible"
     style="overflow:visible"
     transform="translate(5.329,10.7)">
    <g
       id="sideNose20101109C_0">
      <g
         id="element">
        <path
           id="path"
           d="m 1.8,-8.4 0.05,-2.3 -0.35,2.1 q -0.3,2.35 0,4.05 c 0.1,0.6 0.25,1.15 0.4,1.55 0.35,0.7 0.8,1.45 0.95,1.95 0.15,0.2 0.2,0.25 0.2,0.25 C 3.05,-0.8 2.1,-3 1.9,-4.75 1.75,-6.5 1.85,-10.7 1.85,-10.7"
           inkscape:connector-curvature="0"
           style="fill:url(#linearGradient11)" />
        <path
           id="path1"
           d="M 1.75,-3.15 C 1.55,-3.4 1.1,-4.9 0.05,-4.8 c -1.1,0.05 -2.95,2.55 -2.9,3.45 l 0.1,1.1 c 0.1,0.15 0.3,0.3 0.35,0.35 0.7,0.85 1.2,1.9 0.8,2.65 0.2,0.05 0.45,0.15 0.8,0.2 l 0.1,0 c 0.1,0 0.15,0 0.15,0 0.15,0 0.2,0 0.25,0 l 0.05,0 C -0.1,2.95 0.05,2.9 0,3 L 1.1,2.9 C 1.45,2.8 1.8,2.65 2.15,2.5 3.7,1.9 3.35,0.55 3.1,-0.3 3.05,-0.45 2.95,-0.65 2.85,-1.05 2.7,-1.55 2.25,-2.3 1.9,-3 1.9,-2.95 1.8,-3.1 1.75,-3.15 z M 2.2,0.35 C 3.75,1.35 2.4,2 1.6,2.05 0.9,2.15 0.25,1.85 0.3,1.3 0.3,0.75 1.2,-0.3 2.2,0.35 z"
           inkscape:connector-curvature="0"
           style="fill:url(#radialGradient1)" />
        <path
           id="path2"
           d="M 2.2,0.35 C 1.2,-0.3 0.3,0.75 0.3,1.3 0.25,1.85 0.9,2.15 1.6,2.05 2.4,2 3.75,1.35 2.2,0.35 z M 2.1,0.9 C 2.95,1.25 2.4,1.7 2,1.75 1.65,1.85 1.25,1.75 1.15,1.5 1.15,1.2 1.55,0.6 2.1,0.9 z"
           inkscape:connector-curvature="0"
           style="fill:url(#linearGradient12)" />
        <path
           id="path5"
           d="M 2.1,0.9 C 1.55,0.6 1.15,1.2 1.15,1.5 1.25,1.75 1.65,1.85 2,1.75 2.4,1.7 2.95,1.25 2.1,0.9 z"
           inkscape:connector-curvature="0"
           style="fill:url(#linearGradient13)" />
        <path
           id="path8"
           d="M 1.1,2.9 0,3 C 0.05,2.9 -0.1,2.95 -0.25,2.95 l -0.05,0 c -0.05,0 -0.1,0 -0.25,0 0,0 -0.05,0 -0.15,0 l -0.1,0 C -1.7,2.9 -2.35,2.8 -2.7,2.65 l -0.35,-0.3 0.3,0.55 c 0.3,0.35 0.7,0.65 1.15,0.8 C -0.45,4.15 0,4.45 0,4.45 L 0.2,3.75 C 0.3,3.6 0.95,3.45 0.95,3.45 l 0.8,-0.2 C 1.9,3.15 2.05,3.1 2.2,3 l 0,0.05 C 2.55,2.85 3.05,2.45 3.2,1.7 3.1,1.9 2.85,2.15 2.45,2.4 2.1,2.6 1.65,2.75 1.1,2.9 z"
           inkscape:connector-curvature="0"
           style="fill:url(#linearGradient14)" />
        <path
           id="path9"
           d="M 2.2,3.05 2.2,3 C 2.05,3.1 1.9,3.15 1.75,3.25 l -0.8,0.2 c 0,0 -0.65,0.15 -0.75,0.3 L 0,4.45 C 0,4.45 -0.45,4.15 -1.6,3.7 -2.05,3.55 -2.45,3.25 -2.75,2.9 -2.8,2.9 -2.9,2.7 -2.95,2.55 L -4,2.15 c 0.7,0.5 0.9,1.2 1.7,1.6 0.8,0.45 1.9,0.8 2.4,1.55 C 0.35,4.55 2.15,3.8 2.2,3.05 z"
           inkscape:connector-curvature="0"
           style="fill:url(#linearGradient15)" />
        <path
           id="path10"
           d="m -4.05,-4.65 -0.05,-1.2 c -0.2,1.1 -0.5,3.1 -0.65,3.6 -0.05,0.45 -0.45,0.55 -0.55,1.45 -0.2,0.9 0.7,1.05 0.7,1.05 l -0.05,-0.55 0.25,-0.2 -0.25,0.2 c 0,0 0.45,-0.4 1.1,-0.2 0.75,0.1 1.15,0.75 1.15,0.75 l 0,-0.15 C -2.45,0.05 -2.65,-0.1 -2.75,-0.25 l -0.1,-1.1 C -3,-1.55 -3.15,-2 -3.5,-2.55 c -0.7,-1.2 -0.6,-3.3 -0.6,-3.3"
           inkscape:connector-curvature="0"
           style="fill:url(#linearGradient16)" />
        <path
           id="path11"
           d="m -4.45,0.1 c -0.05,0.4 0.7,0.8 1.3,0.85 0.95,0.1 0.85,-0.55 0.3,-0.9 -0.6,-0.4 -1.5,-0.4 -1.6,0.05 z"
           inkscape:connector-curvature="0"
           style="fill:url(#linearGradient17)" />
      </g>
    </g>
  </g>
</svg>
