<?xml version="1.0" encoding="UTF-8" standalone="no"?>
<!-- Generator: flash2svg, http://dissentgraphics.com/tools/flash2svg -->

<svg
   xmlns:dc="http://purl.org/dc/elements/1.1/"
   xmlns:cc="http://creativecommons.org/ns#"
   xmlns:rdf="http://www.w3.org/1999/02/22-rdf-syntax-ns#"
   xmlns:svg="http://www.w3.org/2000/svg"
   xmlns="http://www.w3.org/2000/svg"
   xmlns:xlink="http://www.w3.org/1999/xlink"
   xmlns:sodipodi="http://sodipodi.sourceforge.net/DTD/sodipodi-0.dtd"
   xmlns:inkscape="http://www.inkscape.org/namespaces/inkscape"
   id="Avatar"
   image-rendering="auto"
   version="1.1"
   x="0px"
   y="0px"
   width="21.621096"
   height="34.950001"
   viewBox="0 0 21.621096 34.950001"
   inkscape:version="0.48.4 r9939"
   sodipodi:docname="Avatar_backTorso.svg">
  <metadata
     id="metadata29">
    <rdf:RDF>
      <cc:Work
         rdf:about="">
        <dc:format>image/svg+xml</dc:format>
        <dc:type
           rdf:resource="http://purl.org/dc/dcmitype/StillImage" />
      </cc:Work>
    </rdf:RDF>
  </metadata>
  <sodipodi:namedview
     pagecolor="#ffffff"
     bordercolor="#666666"
     borderopacity="1"
     objecttolerance="10"
     gridtolerance="10"
     guidetolerance="10"
     inkscape:pageopacity="0"
     inkscape:pageshadow="2"
     inkscape:window-width="640"
     inkscape:window-height="480"
     id="namedview27"
     showgrid="false"
     inkscape:zoom="1.8730159"
     inkscape:cx="32.39599"
     inkscape:cy="81.721307"
     inkscape:window-x="0"
     inkscape:window-y="0"
     inkscape:window-maximized="0"
     inkscape:current-layer="Avatar"
     fit-margin-top="0"
     fit-margin-left="0"
     fit-margin-right="0"
     fit-margin-bottom="0" />
  <defs
     id="defs3">
    <pattern
       id="bitmap"
       patternContentUnits="userSpaceOnUse"
       patternUnits="userSpaceOnUse"
       width="200"
       height="200"
       viewBox="0 0 200 200"
       patternTransform="matrix(1 0 0 1 -59.249 -25.399)">
      <symbol
         id="Avatar_Texture.png_symbol"
         viewBox="0 0 200 200">
        <image
           sodipodi:absref="C:\Users\Training\Documents\GitHub\Glitchen-Avatar-Engine\glitch-avatars-svg\base_avatar\Avatar.fla\body parts\back\Avatar_Texture.png"
           xlink:href="Avatar_Texture.png"
           id="Avatar_Texture.png"
           width="200"
           height="200" />
      </symbol>
      <use
         id="Avatar_Texture.png_use"
         width="200"
         height="200"
         y="0"
         x="0"
         xlink:href="#Avatar_Texture.png_symbol"
         externalResourcesRequired="true" />
    </pattern>
    <pattern
       id="bitmap1"
       patternContentUnits="userSpaceOnUse"
       patternUnits="userSpaceOnUse"
       width="200"
       height="200"
       viewBox="0 0 200 200"
       patternTransform="matrix(1 0 0 1 -100.299 -110.399)">
      <symbol
         id="symbol10"
         viewBox="0 0 200 200">
        <image
           sodipodi:absref="C:\Users\Training\Documents\GitHub\Glitchen-Avatar-Engine\glitch-avatars-svg\base_avatar\Avatar.fla\body parts\back\Avatar_Texture.png"
           xlink:href="Avatar_Texture.png"
           id="image12"
           width="200"
           height="200" />
      </symbol>
      <use
         id="use14"
         width="200"
         height="200"
         y="0"
         x="0"
         xlink:href="#Avatar_Texture.png_symbol"
         externalResourcesRequired="true" />
    </pattern>
  </defs>
  <g
     id="backTorso1"
     overflow="visible"
     transform="translate(11.209548,27.999)"
     style="overflow:visible">
    <g
       id="backTorso_0">
      <g
         id="element">
        <g
           id="drawingObject">
          <path
             id="path"
             d="m -5.549,-24.449 1.6,-1.2 c 0,0 -3.15,2 -3.5,3.75 -0.4,1.75 0,4.35 -0.9,6.85 -0.85,2.5 -4.1,12.75 -2.25,16.65 1.9,3.85 3.75,4.75 7.5,5.25 1.35,0.15 2.2,0.1 2.7,0.05 0.55,0.05 1.4,0.1 2.75,-0.05 3.75,-0.5 5.6,-1.4 7.5,-5.25 1.85,-3.9 -1.4,-14.15 -2.25,-16.65 q -0.5,-1.45 -0.65,-3.7 -0.1,-2.6 -0.25,-3.15 c -0.35,-1.75 -3.5,-3.75 -3.5,-3.75 l 1.6,1.2 -1.6,-1.2 c 0,0 -0.85,-2.3 -3.55,-2.3 -2.65,0 -3.6,2.3 -3.6,2.3"
             inkscape:connector-curvature="0"
             style="fill:url(#bitmap1)" />
        </g>
        <g
           id="drawingObject1">
          <path
             id="path1"
             d="m -5.549,-24.449 1.6,-1.2 c 0,0 -3.15,2 -3.5,3.75 -0.4,1.75 0,4.35 -0.9,6.85 -0.85,2.5 -4.1,12.75 -2.25,16.65 1.9,3.85 3.75,4.75 7.5,5.25 1.35,0.15 2.2,0.1 2.7,0.05 0.55,0.05 1.4,0.1 2.75,-0.05 3.75,-0.5 5.6,-1.4 7.5,-5.25 l 0.25,-0.8 q -0.9,-1.45 -1.4,-1.45 c -0.85,0 -2.25,2.85 -3.25,4.25 -1,1.35 -4.5,-0.4 -4.5,-0.4 l 1.9,0.7 -1.9,-0.7 -1.85,0.75 c -1.9,0.75 -5.65,-1.6 -8,-4.5 -2.4,-2.85 -0.15,-7.85 0.35,-11.1 0.5,-3.25 1.9,-6.9 1.9,-9 0,-2.15 1.75,-3.65 4.1,-5 1.65,-0.95 2.6,-1.65 4,-1.9 -0.5,-0.25 -1.05,-0.4 -1.8,-0.4 -2.65,0 -3.6,2.3 -3.6,2.3"
             inkscape:connector-curvature="0"
             style="fill:#000000;fill-opacity:0.2" />
        </g>
        <g
           id="drawingObject2">
          <path
             id="path2"
             d="m -5.599,-24.499 1.6,-1.2 c 0,0 -3.15,2 -3.5,3.75 -0.4,1.75 0,4.35 -0.9,6.85 -0.85,2.5 -4.1,12.75 -2.25,16.65 1.9,3.85 3.75,4.75 7.5,5.25 1.35,0.15 2.2,0.1 2.7,0.05 0.55,0.05 1.4,0.1 2.75,-0.05 q 2.95,-0.4 4.45,-1.35 1.7,-1.15 3.05,-3.9 c 0.65,-1.4 0.65,-3.65 0.35,-6.05 -0.45,0.95 -1.4,2.45 -2.45,3.4 -1.6,1.4 -4.25,2.35 -8,2.15 -3.75,-0.15 -3.85,-1.15 -5.75,-2.3 -1.9,-1.2 -1.75,-4.85 -1.4,-7.1 0.3,-2.25 1.05,-7.35 1.05,-9.4 0,-2.1 2.2,-5.85 6,-7.35 1.4,-0.55 2.5,-0.85 3.35,-1.05 -0.4,-0.65 -1.4,-1.85 -3.35,-1.85 -2.65,0 -3.6,2.3 -3.6,2.3"
             inkscape:connector-curvature="0"
             style="fill:#000000;fill-opacity:0.2" />
        </g>
        <g
           id="drawingObject3">
          <path
             id="path3"
             d="m 0.701,-18.199 -0.15,3.75 c -0.15,3.3 -0.5,6.25 0.05,6.25 q 0.45,0 1.8,0.3 1.182,0.236 1.525,0.425 l 0.025,0.025 c -1.35,-0.85 -2.15,-1.75 -2.4,-2.7 -0.35,-1.4 -0.85,-8.05 -0.85,-8.05 z"
             inkscape:connector-curvature="0"
             style="fill:#000000;fill-opacity:0.2" />
        </g>
      </g>
    </g>
  </g>
</svg>
