<?xml version="1.0" encoding="UTF-8" standalone="no"?>
<!-- Generator: flash2svg, http://dissentgraphics.com/tools/flash2svg -->

<svg
   xmlns:dc="http://purl.org/dc/elements/1.1/"
   xmlns:cc="http://creativecommons.org/ns#"
   xmlns:rdf="http://www.w3.org/1999/02/22-rdf-syntax-ns#"
   xmlns:svg="http://www.w3.org/2000/svg"
   xmlns="http://www.w3.org/2000/svg"
   xmlns:xlink="http://www.w3.org/1999/xlink"
   xmlns:sodipodi="http://sodipodi.sourceforge.net/DTD/sodipodi-0.dtd"
   xmlns:inkscape="http://www.inkscape.org/namespaces/inkscape"
   id="Avatar"
   image-rendering="auto"
   version="1.1"
   x="0px"
   y="0px"
   width="11.202876"
   height="13.052961"
   viewBox="0 0 11.202876 13.052961"
   inkscape:version="0.48.4 r9939"
   sodipodi:docname="Avatar_backFootLeft.svg">
  <metadata
     id="metadata25">
    <rdf:RDF>
      <cc:Work
         rdf:about="">
        <dc:format>image/svg+xml</dc:format>
        <dc:type
           rdf:resource="http://purl.org/dc/dcmitype/StillImage" />
      </cc:Work>
    </rdf:RDF>
  </metadata>
  <sodipodi:namedview
     pagecolor="#ffffff"
     bordercolor="#666666"
     borderopacity="1"
     objecttolerance="10"
     gridtolerance="10"
     guidetolerance="10"
     inkscape:pageopacity="0"
     inkscape:pageshadow="2"
     inkscape:window-width="701"
     inkscape:window-height="799"
     id="namedview23"
     showgrid="false"
     inkscape:zoom="7.77"
     inkscape:cx="33.64996"
     inkscape:cy="-14.19608"
     inkscape:window-x="1089"
     inkscape:window-y="305"
     inkscape:window-maximized="0"
     inkscape:current-layer="Avatar"
     fit-margin-top="0"
     fit-margin-left="0"
     fit-margin-right="0"
     fit-margin-bottom="0" />
  <defs
     id="defs3">
    <pattern
       id="bitmap"
       patternContentUnits="userSpaceOnUse"
       patternUnits="userSpaceOnUse"
       width="200"
       height="200"
       viewBox="0 0 200 200"
       patternTransform="matrix(1 0 0 1 -65.099 12.5)">
      <symbol
         id="Avatar_Texture.png_symbol"
         viewBox="0 0 200 200">
        <image
           sodipodi:absref="C:\Users\Training\Documents\GitHub\Glitchen-Avatar-Engine\glitch-avatars-svg\base_avatar\Avatar.fla\body parts\back\Avatar_Texture.png"
           xlink:href="Avatar_Texture.png"
           id="Avatar_Texture.png"
           width="200"
           height="200" />
      </symbol>
      <use
         id="Avatar_Texture.png_use"
         width="200"
         height="200"
         y="0"
         x="0"
         xlink:href="#Avatar_Texture.png_symbol"
         externalResourcesRequired="true" />
    </pattern>
    <pattern
       id="bitmap1"
       patternContentUnits="userSpaceOnUse"
       patternUnits="userSpaceOnUse"
       width="200"
       height="200"
       viewBox="0 0 200 200"
       patternTransform="matrix(1 0 0 1 -100.499 -96.349)">
      <symbol
         id="symbol10"
         viewBox="0 0 200 200">
        <image
           sodipodi:absref="C:\Users\Training\Documents\GitHub\Glitchen-Avatar-Engine\glitch-avatars-svg\base_avatar\Avatar.fla\body parts\back\Avatar_Texture.png"
           xlink:href="Avatar_Texture.png"
           id="image12"
           width="200"
           height="200" />
      </symbol>
      <use
         id="use14"
         width="200"
         height="200"
         y="0"
         x="0"
         xlink:href="#Avatar_Texture.png_symbol"
         externalResourcesRequired="true" />
    </pattern>
  </defs>
  <g
     id="backFootLeft1"
     overflow="visible"
     transform="translate(6.2136667,2.8853056)"
     style="overflow:visible">
    <g
       id="backFootLeft_0">
      <g
         id="element">
        <g
           id="drawingObject">
          <path
             id="path"
             d="m 4.501,-0.549 c -1.75,-3.55 -5.75,-2.5 -6.85,-0.5 q -1,1.9 -1.35,3.6 c -0.25,1.6 -0.15,1.65 -0.35,1.7 -1.35,0 -1.6,1.4 -1.55,2.05 0.1,0.65 0.3,0.55 0.3,0.55 l -0.5,0.4 0.5,-0.4 c 0,0 -1.05,0.65 -0.9,1.35 0.15,0.75 0.45,0.7 0.45,0.7 l -0.1,0.4 0.1,-0.4 c 0,0 -0.4,0.75 0.2,1.1 0.7,0.45 1.35,-0.1 2.4,-0.6 1.25,-0.6 5.3,-3.75 6.7,-5.2 1.4,-1.45 1.9,-2.8 0.95,-4.75 z"
             inkscape:connector-curvature="0"
             style="fill:url(#bitmap1)" />
        </g>
        <g
           id="drawingObject1">
          <path
             id="path1"
             d="m 4.801,0.201 q -1.7,-0.45 -3.45,1.15 c -1.4,1.25 -3.35,4.25 -4.65,6.15 -0.9,-0.8 -0.7,-2.2 -0.65,-3.35 l -0.1,0.1 c -1.35,0 -1.6,1.4 -1.55,2.05 0.1,0.65 0.3,0.55 0.3,0.55 l -0.5,0.4 0.5,-0.4 c 0,0 -1.05,0.65 -0.9,1.35 0.15,0.75 0.45,0.7 0.45,0.7 l -0.05,0.2 c -0.05,0.1 -0.1,0.25 -0.05,0.45 l 0,0.05 0.05,0.15 0.25,0.25 c 0.7,0.45 1.35,-0.1 2.4,-0.6 l 0.3,-0.15 0.1,-0.1 0.2,-0.1 0.1,-0.1 0.4,-0.2 0.35,-0.25 c 1.7,-1.25 4.2,-3.2 5.25,-4.3 1.2,-1.25 1.75,-2.45 1.25,-4 z"
             inkscape:connector-curvature="0"
             style="fill:#000000;fill-opacity:0.2" />
        </g>
      </g>
    </g>
  </g>
</svg>
