<?xml version="1.0" encoding="UTF-8" standalone="no"?>
<!-- Generator: flash2svg, http://dissentgraphics.com/tools/flash2svg -->

<svg
   xmlns:dc="http://purl.org/dc/elements/1.1/"
   xmlns:cc="http://creativecommons.org/ns#"
   xmlns:rdf="http://www.w3.org/1999/02/22-rdf-syntax-ns#"
   xmlns:svg="http://www.w3.org/2000/svg"
   xmlns="http://www.w3.org/2000/svg"
   xmlns:sodipodi="http://sodipodi.sourceforge.net/DTD/sodipodi-0.dtd"
   xmlns:inkscape="http://www.inkscape.org/namespaces/inkscape"
   id="AvatarAssets"
   image-rendering="auto"
   version="1.1"
   x="0px"
   y="0px"
   width="7.6500001"
   height="12.174201"
   viewBox="0 0 7.6500001 12.174201"
   inkscape:version="0.48.4 r9939"
   sodipodi:docname="AvatarAssets_sleeveLowerOffside20101103Black2.svg">
  <metadata
     id="metadata3094">
    <rdf:RDF>
      <cc:Work
         rdf:about="">
        <dc:format>image/svg+xml</dc:format>
        <dc:type
           rdf:resource="http://purl.org/dc/dcmitype/StillImage" />
      </cc:Work>
    </rdf:RDF>
  </metadata>
  <sodipodi:namedview
     pagecolor="#ffffff"
     bordercolor="#666666"
     borderopacity="1"
     objecttolerance="10"
     gridtolerance="10"
     guidetolerance="10"
     inkscape:pageopacity="0"
     inkscape:pageshadow="2"
     inkscape:window-width="640"
     inkscape:window-height="480"
     id="namedview3092"
     showgrid="false"
     fit-margin-top="0"
     fit-margin-left="0"
     fit-margin-right="0"
     fit-margin-bottom="0"
     inkscape:zoom="1.9032258"
     inkscape:cx="35.2"
     inkscape:cy="-51.1"
     inkscape:window-x="0"
     inkscape:window-y="0"
     inkscape:window-maximized="0"
     inkscape:current-layer="AvatarAssets" />
  <defs
     id="defs3083" />
  <g
     id="sleeveLowerOffside20101103Black3"
     overflow="visible"
     style="overflow:visible"
     transform="translate(3.2,1.274201)">
    <g
       id="sleeveLowerOffside20101103Black2_0">
      <g
         id="element">
        <path
           id="path"
           d="M 3.55,1.65 C 3.5,1.25 3.2,0.4 2.4,-0.5 L 1.3,-0.95 c -0.05,0.1 -0.15,0.2 -0.4,0.2 0,0.55 -1,0.9 -1.2,1.45 -0.05,0.2 0.05,0.3 0,0.45 -0.1,0.5 -0.65,1.5 -0.45,2 0.1,0.25 0.35,0.05 0.4,0.2 0.05,0.25 0,0.7 0.2,0.9 0.25,0.25 0.75,0.1 1,0.4 L -0.25,5 C 0.6,5.1 2.1,5 2.6,5.65 1.85,5.85 1.1,5.9 0.35,6.1 0.75,6.2 1.25,6.2 1.55,6.45 1.7,6.5 1.75,6.75 1.85,6.8 2.2,6.95 3,7 3.3,6.75 4.05,6.25 3.65,4.95 3.2,4.5 L 3.35,4.55 C 3.35,4.3 3.1,4.15 2.95,4 l 0.6,-0.1 c 0,-0.25 0,-0.6 0,-1.05 0.05,-0.5 0.05,-0.9 0,-1.2 z M 1.3,-0.95 1.4,-1.1 C 1.15,-1.25 0.55,-1.35 -0.2,-1.2 l 0.65,-0.05 0.85,0.3 z"
           inkscape:connector-curvature="0"
           style="fill:#2a2b2b" />
        <path
           id="path1"
           d="M 1.3,-0.95 2.4,-0.5 C 2.25,-0.6 1.9,-0.9 1.4,-1.1 l -0.1,0.15 z m -0.4,0.2 c 0.25,0 0.35,-0.1 0.4,-0.2 L 0.45,-1.25 -0.2,-1.2 c -0.15,0.05 -0.3,0.1 -0.45,0.15 l -0.3,0.05 0,0.05 c 0,0.35 -0.35,0.85 -0.85,1.55 -0.25,0.65 -0.55,1.6 -0.3,2.3 l 0.1,0 c 0.2,0.7 0.05,1.5 0.35,2.15 0.05,0.2 0.25,0.3 0.3,0.65 0.05,0.3 -0.15,0.6 0,0.9 0.3,0.05 0.5,0.15 0.7,0.35 L -0.8,7.05 C -0.35,7.3 0.15,7 0.5,7.2 0.1,7.4 -1.5,7.55 -1.1,8.35 l 0.15,0.1 C -0.65,8.3 -0.3,8.15 0.05,8 L 0.35,7.9 C 1.85,7.45 3.15,7.45 4.2,7.85 4.15,7.75 4.15,7.65 4.1,7.55 L 4.35,7.8 C 4.4,7.85 4.4,7.9 4.4,7.95 l 0.05,0 L 3.55,4 3.55,3.9 2.95,4 c 0.15,0.15 0.4,0.3 0.4,0.55 L 3.2,4.5 C 3.65,4.95 4.05,6.25 3.3,6.75 3,7 2.2,6.95 1.85,6.8 1.75,6.75 1.7,6.5 1.55,6.45 1.25,6.2 0.75,6.2 0.35,6.1 1.1,5.9 1.85,5.85 2.6,5.65 2.1,5 0.6,5.1 -0.25,5 L 0.85,4.65 C 0.6,4.35 0.1,4.5 -0.15,4.25 -0.35,4.05 -0.3,3.6 -0.35,3.35 -0.4,3.2 -0.65,3.4 -0.75,3.15 -0.95,2.65 -0.4,1.65 -0.3,1.15 -0.25,1 -0.35,0.9 -0.3,0.7 -0.1,0.15 0.9,-0.2 0.9,-0.75 z"
           inkscape:connector-curvature="0"
           style="fill:#202121" />
        <path
           id="path6"
           d="m 4.1,7.55 c 0.05,0.1 0.05,0.2 0.1,0.3 0.05,0.2 0.1,0.35 0.15,0.4 C 4.4,8.15 4.4,8.05 4.4,7.95 4.4,7.9 4.4,7.85 4.35,7.8 L 4.1,7.55 z m -6.6,-6.8 0.2,-0.6 c -0.3,0.5 -0.55,1.15 -0.7,1.9 -0.15,1.45 -0.15,7.35 -0.15,8 L -3.2,10.2 c 0.25,0.25 0.55,0.55 0.85,0.7 -0.05,-0.3 0,-0.85 0,-1.5 C -2.15,9.2 -1.9,8.95 -1.5,8.75 -1.55,8.5 -1.7,8.35 -2.05,8.3 -1.95,8.1 -1.9,7.9 -1.9,7.7 -2.05,7.65 -2.3,7.65 -2.55,7.7 -2.7,6.85 -2.8,5.95 -2.85,5.05 -2.9,4.25 -2.6,3.5 -2.4,2.75 -2.2,2 -2.55,1.45 -2.5,0.75 z"
           inkscape:connector-curvature="0"
           style="fill:#0f0f0f" />
        <path
           id="path7"
           d="m -2,-0.25 -0.05,0.15 c -0.1,0.05 -0.2,0.15 -0.25,0.25 l -0.2,0.6 c -0.05,0.7 0.3,1.25 0.1,2 -0.2,0.75 -0.5,1.5 -0.45,2.3 0.05,0.9 0.15,1.8 0.3,2.65 0.25,-0.05 0.5,-0.05 0.65,0 0,0.2 -0.05,0.4 -0.15,0.6 0.35,0.05 0.5,0.2 0.55,0.45 L -0.95,8.45 -1.1,8.35 C -1.5,7.55 0.1,7.4 0.5,7.2 0.15,7 -0.35,7.3 -0.8,7.05 l 0.15,-0.1 C -0.85,6.75 -1.05,6.65 -1.35,6.6 -1.5,6.3 -1.3,6 -1.35,5.7 -1.4,5.35 -1.6,5.25 -1.65,5.05 -1.95,4.4 -1.8,3.6 -2,2.9 l -0.1,0 c -0.25,-0.7 0.05,-1.65 0.3,-2.3 0.5,-0.7 0.85,-1.2 0.85,-1.55 l 0,-0.05 c -0.35,0.15 -0.7,0.4 -1.05,0.75 z"
           inkscape:connector-curvature="0"
           style="fill:#161717" />
      </g>
    </g>
  </g>
</svg>
