<?xml version="1.0" encoding="UTF-8" standalone="no"?>
<!-- Generator: flash2svg, http://dissentgraphics.com/tools/flash2svg -->

<svg
   xmlns:dc="http://purl.org/dc/elements/1.1/"
   xmlns:cc="http://creativecommons.org/ns#"
   xmlns:rdf="http://www.w3.org/1999/02/22-rdf-syntax-ns#"
   xmlns:svg="http://www.w3.org/2000/svg"
   xmlns="http://www.w3.org/2000/svg"
   xmlns:sodipodi="http://sodipodi.sourceforge.net/DTD/sodipodi-0.dtd"
   xmlns:inkscape="http://www.inkscape.org/namespaces/inkscape"
   id="AvatarAssets"
   image-rendering="auto"
   version="1.1"
   x="0px"
   y="0px"
   width="8.2222223"
   height="10.297093"
   viewBox="0 0 8.2222223 10.297093"
   inkscape:version="0.48.4 r9939"
   sodipodi:docname="AvatarAssets_sleeveUpperOffside20101130Color_3.svg">
  <metadata
     id="metadata3117">
    <rdf:RDF>
      <cc:Work
         rdf:about="">
        <dc:format>image/svg+xml</dc:format>
        <dc:type
           rdf:resource="http://purl.org/dc/dcmitype/StillImage" />
      </cc:Work>
    </rdf:RDF>
  </metadata>
  <sodipodi:namedview
     pagecolor="#ffffff"
     bordercolor="#666666"
     borderopacity="1"
     objecttolerance="10"
     gridtolerance="10"
     guidetolerance="10"
     inkscape:pageopacity="0"
     inkscape:pageshadow="2"
     inkscape:window-width="640"
     inkscape:window-height="480"
     id="namedview3115"
     showgrid="false"
     fit-margin-top="0"
     fit-margin-left="0"
     fit-margin-right="0"
     fit-margin-bottom="0"
     inkscape:zoom="1.9032258"
     inkscape:cx="36.1"
     inkscape:cy="-56.842893"
     inkscape:window-x="0"
     inkscape:window-y="0"
     inkscape:window-maximized="0"
     inkscape:current-layer="AvatarAssets" />
  <defs
     id="defs3092">
    <radialGradient
       gradientUnits="userSpaceOnUse"
       color-interpolation="sRGB"
       r="2.8084941"
       cx="0.5"
       cy="3.3"
       fx="0.5"
       fy="3.3"
       gradientTransform="matrix(0.91630554,-0.40087891,-0.40087891,-0.91630554,1.35,6.5)"
       id="radialGradient">
      <stop
         stop-color="#000"
         stop-opacity="0.2"
         offset="0"
         id="stop3095" />
      <stop
         stop-color="#000"
         stop-opacity="0.2"
         offset="0.85882"
         id="stop3097" />
      <stop
         stop-color="#000"
         stop-opacity="0.2"
         offset="1"
         id="stop3099" />
    </radialGradient>
    <radialGradient
       gradientUnits="userSpaceOnUse"
       color-interpolation="sRGB"
       r="2.809"
       cx="1.85"
       cy="9.8009996"
       fx="1.85"
       fy="9.8009996"
       gradientTransform="matrix(0.916,-0.401,-0.401,-0.916,2.75,12.9)"
       id="radialGradient1">
      <stop
         stop-color="#000"
         stop-opacity="0.2"
         offset="0"
         id="stop3102" />
      <stop
         stop-color="#000"
         stop-opacity="0.2"
         offset="0.85882"
         id="stop3104" />
      <stop
         stop-color="#000"
         stop-opacity="0.2"
         offset="1"
         id="stop3106" />
    </radialGradient>
  </defs>
  <g
     id="sleeveUpperOffside20101130Color_4"
     overflow="visible"
     style="overflow:visible"
     transform="translate(4.1,5.1399865)">
    <g
       id="sleeveUpperOffside20101130Color_3_0">
      <g
         id="element">
        <path
           id="path"
           d="m 2.7,-2.05 c -1.75,-2.9 -2.75,-3.45 -4.5,-2.9 0,0 0,0 -0.05,0.05 -0.95,0.85 -1.1,3.45 -0.7,4.35 1.05,2.35 1.45,1.95 2.3,2.15 L -1.3,1.35 -0.25,1.6 c 1,0.2 1,0.45 1,0.45 0,0 -1.3,-0.45 -1.55,0.25 C -1.05,2.95 0.85,4 2.35,3 2.4,3 2.75,2.8 3.5,2.35 3.75,2.15 3.95,1.95 4.1,1.7 l 0,-0.05 C 4.05,1 3.75,-0.35 2.7,-2.05 z"
           inkscape:connector-curvature="0"
           style="fill:#696969" />
        <path
           id="path1"
           d="m 4.1,2.65 c 0,0 0.05,-0.3 0,-0.95 C 3.95,1.95 3.75,2.15 3.5,2.35 2.75,2.8 2.4,3 2.35,3 0.85,4 -1.05,2.95 -0.8,2.3 -0.55,1.6 0.75,2.05 0.75,2.05 c 0,0 0,-0.25 -1,-0.45 L -1.3,1.35 -0.25,1.6 c -0.85,-0.2 -1.25,0.2 -2.3,-2.15 -0.4,-0.9 -0.25,-3.5 0.7,-4.35 l 0,-0.05 c -0.05,0 -0.1,0 -0.25,0.15 -0.9,0.4 -1.6,1.2 -1.75,2.3 l 0.8,-1.5 c -0.3,1 -0.25,2.2 -0.15,3.3 0.15,1.55 0.25,3.15 0.6,3.5 0.35,0.3 1.25,0.8 1.8,0.9 L -0.2,3.8 -2,3.85 c -0.45,0 1.3,0.85 3.75,0.25 l -0.025,0 0.025,0 C 3.4,3.5 4.1,2.65 4.1,2.65 z m -8,-4.45 0,0.7 0.05,-1.4 C -3.9,-2.2 -3.9,-2 -3.9,-1.8 z m 0.65,6.1 c 0.3,0.15 0.35,0.15 0.4,0.15 C -2.7,4.5 -2.55,4.5 -2.4,4.5 -2.8,4.45 -3.1,4.35 -3.35,4.25 l 0.1,0.05 z m 2.6,0.25 C -0.8,4.6 -1,4.6 -1.25,4.6 c 0.25,0 0.35,0 0.4,0 0.15,-0.05 0.2,-0.05 0.2,-0.05 z"
           inkscape:connector-curvature="0"
           style="fill:#545454" />
        <path
           id="path2"
           d="m 1.7,4.15 c 0,0 0,0 0.05,-0.05 C -0.7,4.7 -2.45,3.85 -2,3.85 L -0.2,3.8 -0.8,3.7 C -1.35,3.6 -2.25,3.1 -2.6,2.8 -2.95,2.45 -3.05,0.85 -3.2,-0.7 -3.3,-1.8 -3.35,-3 -3.05,-4 l -0.8,1.5 -0.05,1.4 -0.2,4.6 0.5,0.6 0.25,0.15 c 0.25,0.1 0.55,0.2 0.95,0.25 l 0.6,0.1 c 0.3,0 0.35,0 0.4,0 0.15,0 0.25,0 0.15,0 0.25,0 0.45,0 0.6,-0.05 l 0.05,0 C 0.35,4.5 1.15,4.3 1.7,4.15 z"
           inkscape:connector-curvature="0"
           style="fill:#2e2e2e" />
        <path
           id="path3"
           d="M 1.75,4.1 C 1.7,4.15 1.7,4.15 1.7,4.15 1.15,4.3 0.35,4.5 -0.6,4.55 l -0.05,0 c 0,0 -0.05,0 -0.2,0.05 -0.05,0 -0.15,0 -0.4,0 0.1,0 0,0 -0.15,0 -0.05,0 -0.1,0 -0.4,0 L -2.4,4.5 c -0.15,0 -0.3,0 -0.45,-0.05 0.85,0.5 2.05,1 3.75,0.5 Q 2.95,4.4 3.75,3.5 4.15,3 4.1,2.65 c 0,0 -0.7,0.85 -2.35,1.45 z"
           inkscape:connector-curvature="0"
           style="fill:url(#radialGradient1)" />
      </g>
    </g>
  </g>
</svg>
