<?xml version="1.0" encoding="UTF-8" standalone="no"?>
<!-- Generator: flash2svg, http://dissentgraphics.com/tools/flash2svg -->

<svg
   xmlns:dc="http://purl.org/dc/elements/1.1/"
   xmlns:cc="http://creativecommons.org/ns#"
   xmlns:rdf="http://www.w3.org/1999/02/22-rdf-syntax-ns#"
   xmlns:svg="http://www.w3.org/2000/svg"
   xmlns="http://www.w3.org/2000/svg"
   xmlns:sodipodi="http://sodipodi.sourceforge.net/DTD/sodipodi-0.dtd"
   xmlns:inkscape="http://www.inkscape.org/namespaces/inkscape"
   id="AvatarAssets"
   image-rendering="auto"
   version="1.1"
   x="0px"
   y="0px"
   width="7.8000002"
   height="10.8"
   viewBox="0 0 7.8000002 10.8"
   inkscape:version="0.48.4 r9939"
   sodipodi:docname="AvatarAssets_sleeveLowerOffside20101103White.svg">
  <metadata
     id="metadata3121">
    <rdf:RDF>
      <cc:Work
         rdf:about="">
        <dc:format>image/svg+xml</dc:format>
        <dc:type
           rdf:resource="http://purl.org/dc/dcmitype/StillImage" />
      </cc:Work>
    </rdf:RDF>
  </metadata>
  <sodipodi:namedview
     pagecolor="#ffffff"
     bordercolor="#666666"
     borderopacity="1"
     objecttolerance="10"
     gridtolerance="10"
     guidetolerance="10"
     inkscape:pageopacity="0"
     inkscape:pageshadow="2"
     inkscape:window-width="640"
     inkscape:window-height="480"
     id="namedview3119"
     showgrid="false"
     fit-margin-top="0"
     fit-margin-left="0"
     fit-margin-right="0"
     fit-margin-bottom="0"
     inkscape:zoom="1.9032258"
     inkscape:cx="35.45"
     inkscape:cy="-52.45"
     inkscape:window-x="0"
     inkscape:window-y="0"
     inkscape:window-maximized="0"
     inkscape:current-layer="AvatarAssets" />
  <defs
     id="defs3110" />
  <g
     id="sleeveLowerOffside20101103White1"
     overflow="visible"
     style="overflow:visible"
     transform="translate(3.45,1.25)">
    <g
       id="sleeveLowerOffside20101103White_0">
      <g
         id="element">
        <path
           id="path"
           d="m 1.35,-1.1 -0.15,0.15 1.1,0.4 C 2.05,-0.8 1.7,-1 1.35,-1.1 z M -0.4,0.65 c 0.2,-0.55 1.2,-0.9 1.2,-1.4 0.25,0 0.35,-0.1 0.4,-0.2 L 0.35,-1.25 -0.3,-1.2 -1,-0.95 C -1.1,-0.5 -1.7,0.1 -1.95,0.5 -2.25,1.15 -2.5,2.05 -2.25,2.7 l 0.1,0 C -2,3.35 -2.1,4.1 -1.85,4.75 -1.8,4.9 -1.55,5 -1.5,5.3 c 0,0.3 -0.15,0.6 -0.05,0.9 0.25,0 0.55,0.1 0.7,0.3 l -0.1,0.1 C -0.6,6.8 0,6.5 0.3,6.75 c -0.35,0.2 -2,0.3 -1.6,1.05 l 0.1,0.1 C -0.75,7.7 -0.35,7.55 0.15,7.4 2.25,6.85 3.65,7.15 4.1,7.3 c 0.05,0 0.15,0 0.2,0.05 l 0.05,0 -0.85,-3.7 0,-0.1 -0.65,0.1 C 3,3.8 3.25,3.95 3.25,4.2 L 3.1,4.15 C 3.6,4.55 3.95,5.8 3.2,6.25 2.85,6.5 2.05,6.45 1.75,6.35 1.6,6.25 1.55,6.05 1.45,6 1.1,5.8 0.6,5.75 0.2,5.65 0.95,5.5 1.75,5.45 2.5,5.2 2,4.65 0.45,4.75 -0.4,4.65 L 0.75,4.3 C 0.45,4.05 -0.05,4.15 -0.3,3.95 -0.5,3.8 -0.45,3.3 -0.55,3.1 -0.6,2.95 -0.8,3.15 -0.9,2.9 -1.05,2.45 -0.55,1.5 -0.4,1.05 c 0.05,-0.15 -0.05,-0.3 0,-0.4 z"
           inkscape:connector-curvature="0"
           style="fill:#d8dede" />
        <path
           id="path1"
           d="M 1.2,-0.95 1.35,-1.1 c 0.35,0.1 0.7,0.3 0.95,0.55 l -1.1,-0.4 z m -2.2,0 c -0.6,0.2 -1.05,0.6 -1.45,1.05 0.5,-0.65 1.2,-1.1 2.15,-1.3 L -1,-0.95 z"
           inkscape:connector-curvature="0"
           style="fill:#eaf2f2" />
        <path
           id="path4"
           d="M 4.3,7.35 C 4.25,7.3 4.15,7.3 4.1,7.3 4.15,7.55 4.2,7.6 4.25,7.65 4.3,7.6 4.3,7.5 4.3,7.35 z m -6.85,-4.8 c 0.2,-0.7 -0.15,-1.2 -0.1,-1.85 l 0.2,-0.6 C -2.8,0.55 -3,1.15 -3.15,1.9 Q -3.4,3.4 -3.4,9.45 l -0.05,0.1 0.9,0 c 0,-0.3 0,-0.55 -0.05,-0.7 l 0,-0.05 C -2.35,8.55 -2.05,8.35 -1.7,8.2 -1.8,7.95 -1.95,7.8 -2.2,7.8 L -2.05,7.2 C -2.3,7.15 -2.55,7.2 -2.75,7.25 -2.9,6.45 -3.05,5.6 -3.05,4.75 -3.1,4 -2.8,3.3 -2.55,2.55 z"
           inkscape:connector-curvature="0"
           style="fill:#8e9191" />
        <path
           id="path8"
           d="m -2.25,2.7 c -0.25,-0.65 0,-1.55 0.3,-2.2 0.25,-0.4 0.85,-1 0.95,-1.45 -0.6,0.2 -1.05,0.6 -1.45,1.05 l -0.2,0.6 c -0.05,0.65 0.3,1.15 0.1,1.85 -0.25,0.75 -0.55,1.45 -0.5,2.2 0,0.85 0.15,1.7 0.3,2.5 0.2,-0.05 0.45,-0.1 0.7,-0.05 L -2.2,7.8 c 0.25,0 0.4,0.15 0.5,0.4 L -1.2,7.9 -1.3,7.8 C -1.7,7.05 -0.05,6.95 0.3,6.75 0,6.5 -0.6,6.8 -0.95,6.6 l 0.1,-0.1 C -1,6.3 -1.3,6.2 -1.55,6.2 -1.65,5.9 -1.5,5.6 -1.5,5.3 -1.55,5 -1.8,4.9 -1.85,4.75 -2.1,4.1 -2,3.35 -2.15,2.7 l -0.1,0 z"
           inkscape:connector-curvature="0"
           style="fill:#aeb3b3" />
      </g>
    </g>
  </g>
</svg>
