<?xml version="1.0" encoding="UTF-8" standalone="no"?>
<!-- Generator: flash2svg, http://dissentgraphics.com/tools/flash2svg -->

<svg
   xmlns:dc="http://purl.org/dc/elements/1.1/"
   xmlns:cc="http://creativecommons.org/ns#"
   xmlns:rdf="http://www.w3.org/1999/02/22-rdf-syntax-ns#"
   xmlns:svg="http://www.w3.org/2000/svg"
   xmlns="http://www.w3.org/2000/svg"
   xmlns:sodipodi="http://sodipodi.sourceforge.net/DTD/sodipodi-0.dtd"
   xmlns:inkscape="http://www.inkscape.org/namespaces/inkscape"
   id="AvatarAssets"
   image-rendering="auto"
   version="1.1"
   x="0px"
   y="0px"
   width="7.9239025"
   height="18.313267"
   viewBox="0 0 7.9239025 18.313267"
   inkscape:version="0.48.4 r9939"
   sodipodi:docname="AvatarAssets_sleeveUpperOffside20101103Black2.svg">
  <metadata
     id="metadata3002">
    <rdf:RDF>
      <cc:Work
         rdf:about="">
        <dc:format>image/svg+xml</dc:format>
        <dc:type
           rdf:resource="http://purl.org/dc/dcmitype/StillImage" />
      </cc:Work>
    </rdf:RDF>
  </metadata>
  <sodipodi:namedview
     pagecolor="#ffffff"
     bordercolor="#666666"
     borderopacity="1"
     objecttolerance="10"
     gridtolerance="10"
     guidetolerance="10"
     inkscape:pageopacity="0"
     inkscape:pageshadow="2"
     inkscape:window-width="640"
     inkscape:window-height="480"
     id="namedview3000"
     showgrid="false"
     fit-margin-top="0"
     fit-margin-left="0"
     fit-margin-right="0"
     fit-margin-bottom="0"
     inkscape:zoom="1.9032258"
     inkscape:cx="35.183333"
     inkscape:cy="-45.056427"
     inkscape:window-x="0"
     inkscape:window-y="0"
     inkscape:window-maximized="0"
     inkscape:current-layer="AvatarAssets" />
  <defs
     id="defs2991" />
  <g
     id="sleeveUpperOffside20101103Black3"
     overflow="visible"
     style="overflow:visible"
     transform="translate(3.1833333,1.3696938)">
    <g
       id="sleeveUpperOffside20101103Black2_0">
      <g
         id="element">
        <path
           id="path"
           d="m -1.85,-0.5 0.1,-0.1 c -0.1,0.15 0.05,-0.2 0.2,-0.55 0.05,-0.05 0.05,-0.05 0.05,-0.1 -0.1,0.05 -0.2,0.15 -0.3,0.25 -0.45,0.5 -0.8,1.5 -1.05,2.95 0,1.55 -0.15,3.15 0.1,4.65 0.15,1 0.45,1.85 0.55,2.8 0.2,1.75 0.65,5.7 2.95,5.7 -0.25,0.95 1.35,0.3 1.7,0.25 0.1,0 0.65,-0.15 1.65,-0.5 0,-0.05 0,-0.05 0.05,-0.05 0,0 0,0 0.1,-0.2 0,0 0,0 0.05,-0.2 -0.05,0.15 0.05,-0.15 0.15,-0.45 -0.25,0.15 -0.5,0.35 -0.75,0.5 l -1.7,0.7 -0.05,0 C 1.8,15.1 1.7,15.1 1.6,15.05 0.8,14.75 1.5,14.55 1.8,14.1 1.25,14.2 0.55,14.25 0,13.9 c -0.55,-0.35 -1.3,-1.55 -1.35,-2.2 -0.1,-0.65 0.15,-0.25 0.3,-0.85 0.1,-0.35 0.05,-0.3 0,-0.75 C -1.15,9.45 -1.4,8.8 -1.5,8.15 -1.8,6.6 -1.7,5.15 -2.1,3.65 -2.4,2.5 -2.55,1.45 -2.25,0.4 l 0.4,-0.9 z"
           inkscape:connector-curvature="0"
           style="fill:#161717" />
        <path
           id="path1"
           d="m -1.75,-0.6 -0.1,0.1 -0.4,0.9 c -0.3,1.05 -0.15,2.1 0.15,3.25 0.4,1.5 0.3,2.95 0.6,4.5 0.1,0.65 0.35,1.3 0.45,1.95 0.05,0.45 0.1,0.4 0,0.75 -0.15,0.6 -0.4,0.2 -0.3,0.85 0.05,0.65 0.8,1.85 1.35,2.2 0.55,0.35 1.25,0.3 1.8,0.2 -0.3,0.45 -1,0.65 -0.2,0.95 0.1,0.05 0.2,0.05 0.35,0.1 l 0.05,0 1.7,-0.7 c 0.25,-0.15 0.5,-0.35 0.75,-0.5 -0.1,0.3 -0.2,0.6 -0.15,0.45 L 4.5,13.85 4.7,12.65 4.65,12.7 C 4.2,13.4 3.75,13.8 3.25,13.85 2.8,13.9 2.2,13.6 2.15,13.05 2.65,12.95 3.25,13.1 3.6,12.75 3.05,12.7 2.5,12.55 2.05,12.05 1.65,11.65 0.85,10.4 1.9,10.55 1.7,10.1 1.2,9.9 1.15,9.35 1.45,9.3 1.8,9.45 2.1,9.6 1.9,9 1.35,8.5 1.15,7.8 L 0.9,6.95 C 0.7,6.4 0.35,6.05 0.15,5.55 -0.1,5.1 -0.2,4.65 -0.25,4.15 -0.25,3.7 -0.1,3.35 -0.1,2.9 -0.1,1.9 -0.8,1 -0.75,0 c 0.1,-0.55 0.25,-1 0.45,-1.25 l 0,-0.05 c -0.4,-0.1 -0.8,-0.1 -1.2,0.05 0,0.05 0,0.05 0,0.1 -0.15,0.15 -0.25,0.3 -0.25,0.55 z"
           inkscape:connector-curvature="0"
           style="fill:#202121" />
        <path
           id="path2"
           d="m -1.55,-1.15 c -0.15,0.35 -0.3,0.7 -0.2,0.55 0,-0.25 0.1,-0.4 0.25,-0.55 l -0.05,0 z M -0.1,2.9 c 0,0.45 -0.15,0.8 -0.15,1.25 0.05,0.5 0.15,0.95 0.4,1.4 0.2,0.5 0.55,0.85 0.75,1.4 L 1.15,7.8 C 1.35,8.5 1.9,9 2.1,9.6 1.8,9.45 1.45,9.3 1.15,9.35 1.2,9.9 1.7,10.1 1.9,10.55 c -1.05,-0.15 -0.25,1.1 0.15,1.5 0.45,0.5 1,0.65 1.55,0.7 -0.35,0.35 -0.95,0.2 -1.45,0.3 0.05,0.55 0.65,0.85 1.1,0.8 C 3.75,13.8 4.2,13.4 4.65,12.7 4.8,11.65 4.75,10.5 4.6,9.15 4.05,4.4 1.8,-0.95 0.35,-1.2 0.1,-1.25 -0.1,-1.25 -0.3,-1.25 -0.5,-1 -0.65,-0.55 -0.75,0 -0.8,1 -0.1,1.9 -0.1,2.9 z"
           inkscape:connector-curvature="0"
           style="fill:#2a2b2b" />
        <path
           id="path6"
           d="m -2.85,1.95 -0.2,1.95 q -0.2,2.5 -0.1,5.55 0.1,3.55 0.5,4.55 c 0.8,1.85 3.1,3.6 4.9,2.7 0.8,-0.35 1.45,-0.95 1.9,-1.9 -0.05,0 -0.05,0 -0.05,0.05 -1,0.35 -1.55,0.5 -1.65,0.5 C 2.1,15.4 0.5,16.05 0.75,15.1 -1.55,15.1 -2,11.15 -2.2,9.4 -2.3,8.45 -2.6,7.6 -2.75,6.6 -3,5.1 -2.85,3.5 -2.85,1.95 z"
           inkscape:connector-curvature="0"
           style="fill:#0f0f0f" />
      </g>
    </g>
  </g>
</svg>
