<?xml version="1.0" encoding="UTF-8" standalone="no"?>
<!-- Generator: flash2svg, http://dissentgraphics.com/tools/flash2svg -->

<svg
   xmlns:dc="http://purl.org/dc/elements/1.1/"
   xmlns:cc="http://creativecommons.org/ns#"
   xmlns:rdf="http://www.w3.org/1999/02/22-rdf-syntax-ns#"
   xmlns:svg="http://www.w3.org/2000/svg"
   xmlns="http://www.w3.org/2000/svg"
   xmlns:sodipodi="http://sodipodi.sourceforge.net/DTD/sodipodi-0.dtd"
   xmlns:inkscape="http://www.inkscape.org/namespaces/inkscape"
   id="AvatarAssets"
   image-rendering="auto"
   version="1.1"
   x="0px"
   y="0px"
   width="7.5228291"
   height="18.254713"
   viewBox="0 0 7.5228291 18.254713"
   inkscape:version="0.48.4 r9939"
   sodipodi:docname="AvatarAssets_sleeveUpperOffsideD007.svg">
  <metadata
     id="metadata3373">
    <rdf:RDF>
      <cc:Work
         rdf:about="">
        <dc:format>image/svg+xml</dc:format>
        <dc:type
           rdf:resource="http://purl.org/dc/dcmitype/StillImage" />
      </cc:Work>
    </rdf:RDF>
  </metadata>
  <sodipodi:namedview
     pagecolor="#ffffff"
     bordercolor="#666666"
     borderopacity="1"
     objecttolerance="10"
     gridtolerance="10"
     guidetolerance="10"
     inkscape:pageopacity="0"
     inkscape:pageshadow="2"
     inkscape:window-width="640"
     inkscape:window-height="480"
     id="namedview3371"
     showgrid="false"
     fit-margin-top="0"
     fit-margin-left="0"
     fit-margin-right="0"
     fit-margin-bottom="0"
     inkscape:zoom="1.9032258"
     inkscape:cx="34.858931"
     inkscape:cy="-45.037287"
     inkscape:window-x="0"
     inkscape:window-y="0"
     inkscape:window-maximized="0"
     inkscape:current-layer="AvatarAssets" />
  <defs
     id="defs3355" />
  <g
     id="sleeveUpperOffsideD8"
     overflow="visible"
     style="overflow:visible"
     transform="translate(2.8589315,1.292)">
    <g
       id="sleeveUpperOffsideD007_0">
      <g
         id="element">
        <g
           id="drawingObject">
          <path
             id="path"
             d="m -0.599,-1.292 q -0.75,0 -1.3,0.818 -0.7,1.023 -0.75,3.221 c -0.1,3.22 -0.25,9.61 -0.2,10.888 0.1,1.278 2.35,3.834 4.7,3.221 2.3,-0.562 3.05,-2.709 2.75,-8.486 -0.35,-5.828 -2.7,-9.559 -5.2,-9.662 z"
             inkscape:connector-curvature="0"
             style="fill:#970c19" />
        </g>
        <g
           id="group1">
          <g
             id="drawingObject1">
            <path
               id="path1"
               d="m -2.549,1.418 -0.15,2.147 c 0.4,-0.205 0.95,-0.46 1.6,-0.665 q 2.3,-0.767 4.7,0.307 c -0.4,-1.125 -0.85,-2.045 -1.4,-2.761 -1.65,-0.409 -3.6,0.205 -4.75,0.972 z"
               inkscape:connector-curvature="0"
               style="fill:#291d25" />
          </g>
          <g
             id="drawingObject2">
            <path
               id="path2"
               d="m 1.501,4.587 c -2.1,0 -3.45,0.614 -4.25,1.176 l -0.05,2.556 c 0.7,-0.562 1.9,-1.022 3.8,-1.176 1.7,-0.102 2.8,0.256 3.55,0.716 L 4.151,5.098 C 3.501,4.792 2.651,4.587 1.501,4.587 z"
               inkscape:connector-curvature="0"
               style="fill:#291d25" />
          </g>
          <g
             id="drawingObject3">
            <path
               id="path3"
               d="m -2.849,13.073 c 0.65,-0.767 1.75,-1.687 3.2,-1.84 q 2.35,-0.256 4.25,0.818 l 0.05,-2.045 c -0.5,-0.307 -1.25,-0.562 -2.25,-0.614 -2.6,-0.204 -4.3,0.716 -5.25,1.483 l 0,2.198 z"
               inkscape:connector-curvature="0"
               style="fill:#291d25" />
          </g>
        </g>
        <g
           id="drawingObject4">
          <path
             id="path4"
             d="m -0.599,-1.278 c -0.75,0 -2,0.766 -2.05,4.038 -0.1,3.221 -0.25,9.611 -0.2,10.889 0.1,1.278 2.35,3.834 4.7,3.22 1.4,-0.358 2.25,-1.329 2.6,-3.374 l -0.1,0 q -2.9,0.614 -4.2,-6.032 c -0.55,-3.016 -0.75,-7.208 -0.5,-8.69 l -0.25,-0.051 z"
             inkscape:connector-curvature="0"
             style="fill:#000000;fill-opacity:0.29800002" />
        </g>
      </g>
    </g>
  </g>
</svg>
