<?xml version="1.0" encoding="UTF-8" standalone="no"?>
<!-- Generator: flash2svg, http://dissentgraphics.com/tools/flash2svg -->

<svg
   xmlns:dc="http://purl.org/dc/elements/1.1/"
   xmlns:cc="http://creativecommons.org/ns#"
   xmlns:rdf="http://www.w3.org/1999/02/22-rdf-syntax-ns#"
   xmlns:svg="http://www.w3.org/2000/svg"
   xmlns="http://www.w3.org/2000/svg"
   xmlns:sodipodi="http://sodipodi.sourceforge.net/DTD/sodipodi-0.dtd"
   xmlns:inkscape="http://www.inkscape.org/namespaces/inkscape"
   id="AvatarAssets"
   image-rendering="auto"
   version="1.1"
   x="0px"
   y="0px"
   width="8.8000002"
   height="11.778687"
   viewBox="0 0 8.8000002 11.778687"
   inkscape:version="0.48.4 r9939"
   sodipodi:docname="AvatarAssets_sleeveUpperOffside20101103Black1.svg">
  <metadata
     id="metadata13">
    <rdf:RDF>
      <cc:Work
         rdf:about="">
        <dc:format>image/svg+xml</dc:format>
        <dc:type
           rdf:resource="http://purl.org/dc/dcmitype/StillImage" />
      </cc:Work>
    </rdf:RDF>
  </metadata>
  <sodipodi:namedview
     pagecolor="#ffffff"
     bordercolor="#666666"
     borderopacity="1"
     objecttolerance="10"
     gridtolerance="10"
     guidetolerance="10"
     inkscape:pageopacity="0"
     inkscape:pageshadow="2"
     inkscape:window-width="640"
     inkscape:window-height="480"
     id="namedview11"
     showgrid="false"
     fit-margin-top="0"
     fit-margin-left="0"
     fit-margin-right="0"
     fit-margin-bottom="0"
     inkscape:zoom="1.9032258"
     inkscape:cx="35.8"
     inkscape:cy="-51.585333"
     inkscape:window-x="0"
     inkscape:window-y="0"
     inkscape:window-maximized="0"
     inkscape:current-layer="AvatarAssets" />
  <defs
     id="defs3" />
  <g
     id="sleeveUpperOffside20101103Black2"
     overflow="visible"
     style="overflow:visible"
     transform="translate(3.8,1.3640203)">
    <g
       id="sleeveUpperOffside20101103Black1_0">
      <g
         id="element">
        <path
           id="path"
           d="m -1.15,-1.25 c 0.1,-0.05 -0.05,0 -0.25,0.15 0,0 -0.1,0.05 -0.2,0.1 l -0.05,0 c 0,-0.05 -0.05,0 -0.1,0.05 -0.35,0.2 -0.7,0.55 -1,1.05 0.15,-0.2 0.25,-0.35 0.35,-0.5 -0.3,1.1 -0.5,2.6 -0.45,3.45 0.05,1.2 -0.15,3.75 0.4,4.9 0.35,0.7 0.9,1.25 1.7,1.65 0.45,0.25 1,0.4 1.6,0.55 0.35,0.1 0.8,0.1 1.2,0.1 L 0.65,10.4 C 2.3,10.3 3.55,10.05 4.4,9.6 4.65,9.45 4.85,9.35 5,9.2 L 4.85,8.45 C 4.35,8.85 3.7,9.1 2.85,9.2 1.95,9.3 1.1,9.25 0.35,9 -0.35,8.75 -0.9,8.35 -1.3,7.7 L -1.75,6.8 -0.9,7.4 c 1.5,1.15 3.4,0.35 3.4,0.35 0,0 -2.35,-1.2 -2.95,-1.8 C -1,5.35 -2.25,3.9 -2.3,2.3 -2.35,1.2 -1.8,-0.3 -1.15,-1.25 z"
           inkscape:connector-curvature="0"
           style="fill:#1b1c1c" />
        <path
           id="path1"
           d="m -0.8,-1.35 q -0.19,0.027 -0.35,0.1 C -1.8,-0.3 -2.35,1.2 -2.3,2.3 c 0.05,1.6 1.3,3.05 1.85,3.65 0.6,0.6 2.95,1.8 2.95,1.8 0,0 -1.9,0.8 -3.4,-0.35 L -1.75,6.8 -1.3,7.7 c 0.4,0.65 0.95,1.05 1.65,1.3 0.75,0.25 1.6,0.3 2.5,0.2 0.85,-0.1 1.5,-0.35 2,-0.75 L 3.95,4.25 C 3.7,2.95 2.05,-1.65 -0.8,-1.35 z"
           inkscape:connector-curvature="0"
           style="fill:#232424" />
        <path
           id="path2"
           d="M -3.35,1.6 C -3.6,3.25 -3.5,7.55 -3.65,8.5 l -0.15,1 1.3,0.5 -1.3,-0.5 c 0,0 1.95,1.05 4.45,0.9 l 1.4,-0.15 c -0.4,0 -0.85,0 -1.2,-0.1 C 0.25,10 -0.3,9.85 -0.75,9.6 -1.55,9.2 -2.1,8.65 -2.45,7.95 -3,6.8 -2.8,4.25 -2.85,3.05 -2.9,2.2 -2.7,0.7 -2.4,-0.4 -2.5,-0.25 -2.6,-0.1 -2.75,0.1 -2.8,0.15 -2.8,0.2 -2.85,0.25 L -2.9,0.3 c -0.2,0.35 -0.35,0.8 -0.45,1.3 z"
           inkscape:connector-curvature="0"
           style="fill:#121212" />
      </g>
    </g>
  </g>
</svg>
