<?xml version="1.0" encoding="UTF-8" standalone="no"?>
<!-- Generator: flash2svg, http://dissentgraphics.com/tools/flash2svg -->

<svg
   xmlns:dc="http://purl.org/dc/elements/1.1/"
   xmlns:cc="http://creativecommons.org/ns#"
   xmlns:rdf="http://www.w3.org/1999/02/22-rdf-syntax-ns#"
   xmlns:svg="http://www.w3.org/2000/svg"
   xmlns="http://www.w3.org/2000/svg"
   xmlns:sodipodi="http://sodipodi.sourceforge.net/DTD/sodipodi-0.dtd"
   xmlns:inkscape="http://www.inkscape.org/namespaces/inkscape"
   id="AvatarAssets"
   image-rendering="auto"
   version="1.1"
   x="0px"
   y="0px"
   width="12"
   height="13.557735"
   viewBox="0 0 12 13.557735"
   inkscape:version="0.48.4 r9939"
   sodipodi:docname="AvatarAssets_shortSleeveLowerOffside20101122Blouse.svg">
  <metadata
     id="metadata3064">
    <rdf:RDF>
      <cc:Work
         rdf:about="">
        <dc:format>image/svg+xml</dc:format>
        <dc:type
           rdf:resource="http://purl.org/dc/dcmitype/StillImage" />
      </cc:Work>
    </rdf:RDF>
  </metadata>
  <sodipodi:namedview
     pagecolor="#ffffff"
     bordercolor="#666666"
     borderopacity="1"
     objecttolerance="10"
     gridtolerance="10"
     guidetolerance="10"
     inkscape:pageopacity="0"
     inkscape:pageshadow="2"
     inkscape:window-width="640"
     inkscape:window-height="480"
     id="namedview3062"
     showgrid="false"
     fit-margin-top="0"
     fit-margin-left="0"
     fit-margin-right="0"
     fit-margin-bottom="0"
     inkscape:zoom="1.9032258"
     inkscape:cx="36.55"
     inkscape:cy="-49.792265"
     inkscape:window-x="0"
     inkscape:window-y="0"
     inkscape:window-maximized="0"
     inkscape:current-layer="AvatarAssets" />
  <defs
     id="defs3034">
    <linearGradient
       gradientUnits="userSpaceOnUse"
       color-interpolation="sRGB"
       x1="-2.5125"
       y1="8.6374998"
       x2="4.1125002"
       y2="6.8625002"
       id="linearGradient">
      <stop
         stop-color="#000"
         stop-opacity="0.2980392156862745"
         offset="0"
         id="stop3037" />
      <stop
         stop-color="#000"
         stop-opacity="0.2980392156862745"
         offset="0.85882"
         id="stop3039" />
      <stop
         stop-color="#000"
         stop-opacity="0.2980392156862745"
         offset="1"
         id="stop3041" />
    </linearGradient>
    <linearGradient
       gradientUnits="userSpaceOnUse"
       color-interpolation="sRGB"
       x1="-2.5120001"
       y1="8.6379995"
       x2="4.1129999"
       y2="6.8629999"
       id="linearGradient1">
      <stop
         stop-color="#000"
         stop-opacity="0.2980392156862745"
         offset="0"
         id="stop3044" />
      <stop
         stop-color="#000"
         stop-opacity="0.2980392156862745"
         offset="0.85882"
         id="stop3046" />
      <stop
         stop-color="#000"
         stop-opacity="0.2980392156862745"
         offset="1"
         id="stop3048" />
    </linearGradient>
  </defs>
  <g
     id="shortSleeveLowerOffside20101122Blouse1"
     overflow="visible"
     style="overflow:visible"
     transform="translate(4.55,1.35)">
    <g
       id="shortSleeveLowerOffside20101122Blouse_0">
      <g
         id="element">
        <path
           id="path"
           d="M 1.3,-1.3 C 1.2,-1.35 1.1,-1.35 1,-1.3 0.95,-1.35 0.75,-1.35 0.55,-1.35 c -0.6,0.2 -1.05,0.75 -1.35,1.1 -0.7,0.85 -1,1.6 -1,2.6 l 0.1,0.8 0.3,0.85 0.05,0.55 C -1.4,4.85 -1.2,5.2 -1.1,5.5 l 0.3,0.6 0.3,0.4 C 0.6,7.25 1.9,7.3 3.15,7.15 L 3.2,7.1 C 3.6,7.05 3.65,7 3.9,6.85 4.2,6.65 4.3,6.85 4.5,7.1 L 4.55,7.2 C 4.9,7.25 4.95,7.25 5,7.3 5.25,7.4 5.55,7.4 5.55,7.45 L 5.6,7.4 5.65,7.4 5.7,7.45 c 0.05,0 0.1,0.05 0.15,0.1 0.05,0 0.05,0 0.1,0 0.3,0.1 0.6,0.2 0.75,0.35 C 6.65,7.7 6.5,7.5 6.4,7.35 6.1,7.05 5.9,6.9 5.65,7.05 5.55,7.1 5.6,7.35 5.35,7.3 5.2,7.2 5,6.8 4.9,6.65 4.6,6.35 4.05,5.7 3.8,6.4 3.7,6.75 3.75,6.8 3.25,6.85 2.8,7 2.25,6.8 1.95,6.45 1.7,6.15 1.9,5.85 1.55,5.7 1.3,5.65 0.95,5.85 0.7,5.7 0.55,5.65 0.55,5.55 0.6,5.45 0.65,5.35 0.85,5.2 1.1,5.1 0.75,5.15 0.35,5.2 0.05,5.15 L 0,5.15 C 0.2,4.8 1.4,4.65 1.85,4.6 l 0.5,0 0.25,-0.05 0.3,-0.1 -1,-0.3 C 2.1,4.05 2.6,4 2.7,4 2.6,3.6 1.8,3.8 1.45,3.8 1.25,3.85 1.05,3.95 0.85,3.8 0.6,3.75 0.7,3.45 0.55,3.4 L 0.5,3.35 C 0.65,3.2 0.85,3.05 0.85,2.95 L -0.1,2.75 C -0.3,2.7 -0.55,2.7 -0.7,2.55 -0.8,2.3 -0.45,2.15 -0.4,1.95 l -0.15,-1.1 c 0,-0.3 0.2,-0.55 0.35,-0.8 0.6,-0.65 1.35,-0.9 2.25,-1.1 C 1.8,-1.15 1.6,-1.25 1.3,-1.3 z m -1.7,8.6 -0.2,-0.05 0.25,0.2 0.05,0 C -0.35,7.4 -0.35,7.35 -0.4,7.3 z m -0.65,-0.45 0.35,0.3 c 0.05,0 0.05,0 0.1,0 L -1.5,6.4 C -1.65,6.3 -1.8,6.1 -2.05,6.1 c -0.4,0.1 -0.45,0.75 -0.5,1 -0.05,0.45 0.1,0.85 0.15,1.25 0,0.15 0,0.3 0.05,0.3 0,-0.2 0.05,-0.35 0.2,-0.55 C -2.1,8.05 -2.05,8.05 -2,8 -2,7.85 -2,7.75 -2,7.6 -2.05,7.35 -1.95,6.8 -1.65,6.65 c 0.15,-0.1 0.45,0.1 0.6,0.2 z m -2,2.75 C -3,9.55 -3,9.5 -2.95,9.45 -2.9,9.35 -2.95,9.2 -3.3,9.15 -3.65,9.1 -3.9,9.3 -4.05,9.5 -4.15,9.65 -4.2,9.85 -4.25,10 l -0.05,0.25 c -0.05,0.2 0,0.35 0.05,0.45 0,-0.15 0.05,-0.2 0.1,-0.25 0,0.05 0,-0.2 0.05,-0.4 0,-0.3 0.2,-0.55 0.6,-0.65 0.2,0 0.35,0.15 0.4,0.25 L -3.05,9.6 z"
           inkscape:connector-curvature="0"
           style="fill:#4f4f4f" />
        <path
           id="path1"
           d="m 1.3,-1.3 c 0.3,0.05 0.5,0.15 0.75,0.25 -0.9,0.2 -1.65,0.45 -2.25,1.1 -0.15,0.25 -0.35,0.5 -0.35,0.8 l 0.15,1.1 c -0.05,0.2 -0.4,0.35 -0.3,0.6 0.15,0.15 0.4,0.15 0.6,0.2 l 0.95,0.2 c 0,0.1 -0.2,0.25 -0.35,0.4 L 0.55,3.4 c 0.15,0.05 0.05,0.35 0.3,0.4 0.2,0.15 0.4,0.05 0.6,0 C 1.8,3.8 2.6,3.6 2.7,4 2.6,4 2.1,4.05 1.9,4.15 l 1,0.3 L 2.6,4.55 2.35,4.6 3.45,4.9 4.1,5.25 C 3.45,5 3,4.95 2.3,4.95 L 1.7,4.95 1.45,5.1 1.1,5.1 C 0.85,5.2 0.65,5.35 0.6,5.45 0.55,5.55 0.55,5.65 0.7,5.7 0.95,5.85 1.3,5.65 1.55,5.7 1.9,5.85 1.7,6.15 1.95,6.45 2.25,6.8 2.8,7 3.25,6.85 3.75,6.8 3.7,6.75 3.8,6.4 4.05,5.7 4.6,6.35 4.9,6.65 5,6.8 5.2,7.2 5.35,7.3 5.6,7.35 5.55,7.1 5.65,7.05 5.9,6.9 6.1,7.05 6.4,7.35 6.5,7.5 6.65,7.7 6.7,7.9 6.75,7.95 6.75,7.95 6.8,8 7.05,8.25 7.25,8.6 7.4,9 7.4,8.5 7.25,8.05 7,7.75 6.6,7.05 4.9,5.6 4.6,5.2 4.4,4.8 4.25,3.9 4.05,2.9 3.85,1.55 3.5,0.7 3.3,0.2 2.85,-0.65 2.2,-1.15 1.3,-1.3 z m -2.4,8.85 0,-0.1 c 0.15,0 0.4,0 0.75,0 L -0.6,7.25 -1.1,7.05 c 0.1,0.05 0.25,0.1 0.4,0.1 L -1.05,6.85 C -1.2,6.75 -1.5,6.55 -1.65,6.65 -1.95,6.8 -2.05,7.35 -2,7.6 -2,7.75 -2,7.85 -2,8 -1.75,7.8 -1.45,7.6 -1.1,7.55 z m 0.8,-0.1 0.05,0 0,-0.05 L -0.35,7.35 -0.4,7.3 c 0.05,0.05 0.05,0.1 0.1,0.15 z m -2.95,2.2 0.15,0 C -3.15,9.55 -3.3,9.4 -3.5,9.4 c -0.4,0.1 -0.6,0.35 -0.6,0.65 -0.05,0.2 -0.05,0.45 -0.05,0.4 0.25,-0.35 0.5,-0.65 0.9,-0.8 z m -1.25,2.05 0,0.1 0.05,0.15 c 0,-0.05 0,-0.1 0.05,-0.15 l -0.05,0 C -4.5,11.75 -4.5,11.75 -4.5,11.7 z M -2.6,0.1 c 0.7,-0.9 1.7,-1.35 2.9,-1.4 -0.7,0.05 -1.35,0.25 -2,0.65 -0.35,0.2 -0.6,0.45 -0.9,0.75 z"
           inkscape:connector-curvature="0"
           style="fill:#666666" />
        <path
           id="path2"
           d="M 0.55,-1.35 0.3,-1.3 c -0.7,0.05 -1.35,0.25 -2,0.65 l -0.1,0.1 C -2,-0.25 -2.2,0.1 -2.4,0.4 -2.95,1.35 -3.1,2.45 -3,3.45 c 0.15,1 0.15,1.95 0.05,2.9 l -0.15,0.9 c 0,0.35 0,0.75 0.2,1.05 0.1,0.4 0.25,0.8 0.25,1 l 0.1,-0.15 c 0.05,-0.2 0.1,-0.4 0.2,-0.5 -0.05,0 -0.05,-0.15 -0.05,-0.3 -0.05,-0.4 -0.2,-0.8 -0.15,-1.25 0.05,-0.25 0.1,-0.9 0.5,-1 0.25,0 0.4,0.2 0.55,0.3 l 0.9,0.75 0.05,0 L -1,6.65 c 0.35,0.25 1.05,0.4 1.35,0.55 0.4,0.15 0.7,0.2 1,0.25 0.05,0 0.1,0 0.15,0 l 0.05,0 C 2.1,7.35 2.65,7.15 3.15,7.15 1.9,7.3 0.6,7.25 -0.5,6.5 L -0.8,6.1 -1.1,5.5 C -1.2,5.2 -1.4,4.85 -1.35,4.55 L -1.4,4 -1.7,3.15 -1.8,2.35 c 0,-1 0.3,-1.75 1,-2.6 0.3,-0.35 0.75,-0.9 1.35,-1.1 z M 4,7.4 c 0.05,-0.05 0.15,-0.05 0.2,0 0.1,0 0.2,0 0.3,0 C 4.25,7.3 4,7.3 3.65,7.4 L 3.3,7.45 C 3.6,7.4 3.8,7.4 4,7.4 z M 4.55,7.2 4.5,7.1 C 4.3,6.85 4.2,6.65 3.9,6.85 3.65,7 3.6,7.05 3.2,7.1 3.85,7.05 4.35,7.15 4.55,7.2 z"
           inkscape:connector-curvature="0"
           style="fill:#3b3b3b" />
        <path
           id="path3"
           d="m 2.35,4.6 -0.5,0 C 1.4,4.65 0.2,4.8 0,5.15 l 0.05,0 c 0.3,0.05 0.7,0 1.05,-0.05 l 0.35,0 0.25,-0.15 0.6,0 C 3,4.95 3.45,5 4.1,5.25 L 3.45,4.9 2.35,4.6 z M 5,7.3 C 4.95,7.25 4.9,7.25 4.55,7.2 4.35,7.15 3.85,7.05 3.2,7.1 L 3.15,7.15 c -0.5,0 -1.05,0.2 -1.6,0.3 l 1.2,0 0.6,-0.1 L 2.95,7.5 3,7.5 C 3,7.5 3.3,7.45 3.3,7.45 L 3.65,7.4 C 3.8,7.3 4.05,7.15 4.25,7.2 4.45,7.25 4.45,7.25 4.5,7.4 4.6,7.45 4.7,7.45 4.85,7.45 L 4.9,7.5 C 4.95,7.55 5.05,7.55 5.1,7.6 5.15,7.65 5.15,7.65 5.2,7.65 L 5.25,7.7 C 5.4,7.75 5.5,7.85 5.65,7.85 l 0.2,0.1 c 0.05,0 0.05,0 0.1,0 L 6,8 6.15,8.05 C 6.45,8.1 6.6,8.2 6.75,8.35 6.8,8.4 6.8,8.4 6.85,8.4 c 0,0.05 0,0.05 0.05,0.05 0,0.05 0,0.05 0.05,0.1 l 0.1,0.1 C 7.1,8.8 7.2,8.9 7.3,9.05 7.35,9.1 7.4,9.2 7.45,9.25 7.45,9.2 7.4,9.1 7.4,9 7.25,8.6 7.05,8.25 6.8,8 6.75,7.95 6.75,7.95 6.7,7.9 6.55,7.75 6.25,7.65 5.95,7.55 c -0.05,0 -0.05,0 -0.1,0 l -0.05,0 C 5.75,7.5 5.75,7.45 5.7,7.45 L 5.65,7.4 5.6,7.4 5.55,7.45 C 5.55,7.4 5.25,7.4 5,7.3 z M -1.05,7.6 -1.1,7.55 C -1.45,7.6 -1.75,7.8 -2,8 c -0.05,0.05 -0.1,0.05 -0.15,0.1 -0.15,0.2 -0.2,0.35 -0.2,0.55 -0.1,0.1 -0.15,0.3 -0.2,0.5 l -0.1,0.15 -0.1,0.1 0,0.35 c 0,-0.05 0.05,-0.1 0.1,-0.15 l 0.25,-0.35 0.05,-0.1 0.1,-0.1 0,-0.05 C -1.7,8.15 -1.4,7.85 -0.05,7.75 l 0.1,0 -1.1,-0.15 z m -2.8,1.4 -0.05,0 0,0.05 c 0,0.05 0,0.15 -0.05,0.25 C -4,9.35 -4,9.45 -4.05,9.5 -3.9,9.3 -3.65,9.1 -3.3,9.15 c 0.35,0.05 0.4,0.2 0.35,0.3 0,-0.05 0,-0.1 0,-0.25 C -3.15,8.95 -3.4,8.85 -3.7,8.9 L -3.85,9 z m 0.25,1.05 0.4,-0.3 c 0,0 0.05,-0.05 0.1,-0.1 l -0.15,0 c -0.4,0.15 -0.65,0.45 -0.9,0.8 -0.05,0.05 -0.1,0.1 -0.1,0.25 0,-0.05 0.05,-0.1 0.1,-0.15 0.1,-0.15 0.2,-0.25 0.3,-0.3 0.1,-0.05 0.15,-0.1 0.25,-0.2 z M -4.25,10.7 C -4.3,10.6 -4.35,10.45 -4.3,10.25 L -4.25,10 c -0.1,0.25 -0.2,0.5 -0.2,0.7 l -0.1,0.55 0.05,0.15 0,-0.05 c 0.05,-0.15 0.1,-0.25 0.15,-0.45 0.05,-0.1 0.1,-0.2 0.1,-0.15 l 0,-0.05 z"
           inkscape:connector-curvature="0"
           style="fill:#5e5e5e" />
        <path
           id="path4"
           d="M 4.2,7.4 C 4.15,7.35 4.05,7.35 4,7.4 3.8,7.4 3.6,7.4 3.3,7.45 3.3,7.45 3,7.5 3,7.5 l -0.05,0 -2.9,0.25 -0.1,0 C -1.4,7.85 -1.7,8.15 -2.25,9 l 0,0.05 -0.1,0.1 C -2.3,9.3 -2.3,9.3 -2.3,9.3 l 0.05,0.35 Q -2.1,9.45 -1.8,9.3 -1.3,8.9 -0.8,8.75 C 0.05,8.4 1.4,8.25 2.25,8.2 3.05,8.1 3.95,7.95 4.2,8.05 l 0.2,0.1 -0.15,-0.6 0,-0.05 C 4.2,7.45 4.2,7.45 4.2,7.4 z"
           inkscape:connector-curvature="0"
           style="fill:url(#linearGradient1)" />
        <path
           id="path7"
           d="m 4.25,7.5 0,0.05 0.05,0.05 c 0.25,0.65 0.05,1.45 0.5,2 L 4.85,9.7 5.2,9.65 c 0,-0.2 0,-0.4 0.15,-0.45 L 6.25,9.15 C 6.65,9.15 7,9.25 7,9.55 7.25,9.45 7.4,9.3 7.3,9.05 7.2,8.9 7.1,8.8 7.05,8.65 L 6.95,8.55 C 6.9,8.5 6.9,8.5 6.9,8.45 6.85,8.45 6.85,8.45 6.85,8.4 6.8,8.4 6.8,8.4 6.75,8.35 6.6,8.2 6.45,8.1 6.15,8.05 L 6,8 5.95,7.95 c -0.05,0 -0.05,0 -0.1,0 L 5.65,7.85 C 5.5,7.85 5.4,7.75 5.25,7.7 L 5.2,7.65 5.15,7.65 4.9,7.5 4.85,7.45 c -0.15,0 -0.25,0 -0.35,-0.05 -0.1,0 -0.2,0 -0.3,0 0,0.05 0,0.05 0.05,0.1 z m -6.6,1.65 -0.05,0.1 -0.25,0.35 c -0.05,0.05 -0.1,0.1 -0.1,0.15 l 0,0.05 c 0,0 -0.05,0.05 -0.15,0.15 -0.2,0.1 -0.35,0.15 -0.55,0.25 -0.05,0 -0.05,0 -0.15,0.05 l -0.3,0.3 c -0.05,0.05 -0.1,0.1 -0.15,0.2 -0.15,0.3 -0.2,0.4 -0.25,0.5 l 0,0.15 c 0.25,-0.2 0.45,-0.25 0.7,-0.25 l 0.3,0.1 c 0.1,0.05 0.2,0 0.3,0.1 0.65,0.55 -0.95,0.6 -1.4,0.7 0.05,0.05 0.15,0.05 0.15,0.1 0.55,0.1 1.1,0.05 1.25,0 L -1.65,12.05 -2,11.25 -2.25,9.65 -2.3,9.3 c 0,0 0,0 -0.05,-0.15 z"
           inkscape:connector-curvature="0"
           style="fill:#1d1a21" />
        <path
           id="path12"
           d="M 4.5,7.4 C 4.45,7.25 4.45,7.25 4.25,7.2 4.05,7.15 3.8,7.3 3.65,7.4 4,7.3 4.25,7.3 4.5,7.4 z m -1.55,0.1 0.4,-0.15 -0.6,0.1 -1.2,0 -0.05,0 c -0.05,0 -0.1,0 -0.15,0 C 1.05,7.4 0.75,7.35 0.35,7.2 0.05,7.05 -0.65,6.9 -1,6.65 l 0.45,0.5 -0.05,0 c -0.05,0 -0.05,0 -0.1,0 -0.15,0 -0.3,-0.05 -0.4,-0.1 l 0.5,0.2 0.2,0.05 0.05,0.05 0.1,0.05 0,0.05 -0.05,0 -0.05,0 c -0.35,0 -0.6,0 -0.75,0 l 0,0.1 0.05,0.05 1.1,0.15 2.9,-0.25 z M 6.25,9.15 5.35,9.2 C 5.2,9.25 5.2,9.45 5.2,9.65 L 5.8,9.5 C 6.2,9.45 6.6,9.6 6.95,9.55 L 7,9.55 C 7,9.25 6.65,9.15 6.25,9.15 z m -8.05,-9.7 0.1,-0.1 c -0.35,0.2 -0.6,0.45 -0.9,0.75 -0.65,0.7 -0.8,2.7 -0.8,3.9 0.05,1.2 0.1,2.15 0.15,2.65 l 0,0.05 C -3.2,6.95 -3.3,7.55 -3.6,8.4 -3.7,8.55 -3.8,8.8 -3.9,9 l 0.05,0 0.15,-0.1 c 0.3,-0.05 0.55,0.05 0.75,0.3 0,0.15 0,0.2 0,0.25 C -3,9.5 -3,9.55 -3.05,9.6 L -3.1,9.65 c -0.05,0.05 -0.1,0.1 -0.1,0.1 l -0.4,0.3 c -0.1,0.1 -0.15,0.15 -0.25,0.2 -0.1,0.05 -0.2,0.15 -0.3,0.3 -0.05,0.05 -0.1,0.1 -0.1,0.15 l 0,0.05 c 0,-0.05 -0.05,0.05 -0.1,0.15 -0.05,0.2 -0.1,0.3 -0.15,0.45 l 0,0.05 c 0,0.1 0,0.2 0,0.3 0,0.05 0,0.05 0.05,0.1 l 0.05,0 c -0.05,0.05 -0.05,0.1 -0.05,0.15 l -0.05,-0.15 0,0.05 c 0,0.2 0.15,0.3 0.25,0.3 0,-0.05 -0.1,-0.05 -0.15,-0.1 0.45,-0.1 2.05,-0.15 1.4,-0.7 -0.1,-0.1 -0.2,-0.05 -0.3,-0.1 l -0.3,-0.1 c -0.25,0 -0.45,0.05 -0.7,0.25 l 0,-0.15 c 0.05,-0.1 0.1,-0.2 0.25,-0.5 0.05,-0.1 0.1,-0.15 0.15,-0.2 l 0.3,-0.3 c 0.1,-0.05 0.1,-0.05 0.15,-0.05 0.2,-0.1 0.35,-0.15 0.55,-0.25 0.1,-0.1 0.15,-0.15 0.15,-0.15 l 0,-0.05 0,-0.35 0.1,-0.1 C -2.65,9.1 -2.8,8.7 -2.9,8.3 -3.1,8 -3.1,7.6 -3.1,7.25 l 0.15,-0.9 c 0.1,-0.95 0.1,-1.9 -0.05,-2.9 -0.1,-1 0.05,-2.1 0.6,-3.05 0.2,-0.3 0.4,-0.65 0.6,-0.95 z"
           inkscape:connector-curvature="0"
           style="fill:#454545" />
        <path
           id="path15"
           d="m 5.15,7.65 0.05,0 C 5.15,7.65 5.15,7.65 5.1,7.6 5.05,7.55 4.95,7.55 4.9,7.5 l 0.25,0.15"
           inkscape:connector-curvature="0"
           style="fill:#4f4f4f" />
        <path
           id="path16"
           d="m 5.7,7.45 c 0.05,0 0.05,0.05 0.1,0.1 l 0.05,0 C 5.8,7.5 5.75,7.45 5.7,7.45"
           inkscape:connector-curvature="0"
           style="fill:#666666" />
      </g>
    </g>
  </g>
</svg>
