<?xml version="1.0" encoding="UTF-8" standalone="no"?>
<!-- Generator: flash2svg, http://dissentgraphics.com/tools/flash2svg -->

<svg
   xmlns:dc="http://purl.org/dc/elements/1.1/"
   xmlns:cc="http://creativecommons.org/ns#"
   xmlns:rdf="http://www.w3.org/1999/02/22-rdf-syntax-ns#"
   xmlns:svg="http://www.w3.org/2000/svg"
   xmlns="http://www.w3.org/2000/svg"
   xmlns:sodipodi="http://sodipodi.sourceforge.net/DTD/sodipodi-0.dtd"
   xmlns:inkscape="http://www.inkscape.org/namespaces/inkscape"
   id="AvatarAssets"
   image-rendering="auto"
   version="1.1"
   x="0px"
   y="0px"
   width="8.2393389"
   height="11.07378"
   viewBox="0 0 8.2393389 11.07378"
   inkscape:version="0.48.4 r9939"
   sodipodi:docname="AvatarAssets_sleeveLowerOffsideA001.svg">
  <metadata
     id="metadata18">
    <rdf:RDF>
      <cc:Work
         rdf:about="">
        <dc:format>image/svg+xml</dc:format>
        <dc:type
           rdf:resource="http://purl.org/dc/dcmitype/StillImage" />
      </cc:Work>
    </rdf:RDF>
  </metadata>
  <sodipodi:namedview
     pagecolor="#ffffff"
     bordercolor="#666666"
     borderopacity="1"
     objecttolerance="10"
     gridtolerance="10"
     guidetolerance="10"
     inkscape:pageopacity="0"
     inkscape:pageshadow="2"
     inkscape:window-width="640"
     inkscape:window-height="480"
     id="namedview16"
     showgrid="false"
     fit-margin-top="0"
     fit-margin-left="0"
     fit-margin-right="0"
     fit-margin-bottom="0"
     inkscape:zoom="1.9032258"
     inkscape:cx="35.338339"
     inkscape:cy="-52.049"
     inkscape:window-x="0"
     inkscape:window-y="0"
     inkscape:window-maximized="0"
     inkscape:current-layer="AvatarAssets" />
  <defs
     id="defs3" />
  <g
     id="sleeveLowerOffsideA2"
     overflow="visible"
     style="overflow:visible"
     transform="translate(3.3383391,1.12278)">
    <g
       id="sleeveLowerOffsideA001_0">
      <g
         id="element">
        <g
           id="drawingObject">
          <path
             id="path"
             d="m 4.851,8.351 c 0,0 -0.55,-1.75 -1.6,-2.4 q -1.35,-0.75 -4,1.25 c -1,0.75 -1.85,2.75 -1.85,2.75 0,0 1.2,-1.5 3.95,-1.65 2.75,-0.2 3.5,0.05 3.5,0.05 z"
             inkscape:connector-curvature="0"
             style="fill:#000000;fill-opacity:0.19599998" />
        </g>
        <g
           id="drawingObject1">
          <path
             id="path1"
             d="m 1.951,-0.099 c -2,-1.8 -3.8,-1 -4.9,0.95 0,0.95 -0.1,2.1 -0.2,2.95 -0.2,1.4 -0.3,3.4 0,4.25 0.3,0.8 0.25,1.15 0.3,1.5 0.1,0.3 0.25,0.4 0.25,0.4 0,0 0.15,-1.4 3.25,-2.05 3.2,-0.6 4.25,0.5 4.25,0.5 0,0 -0.05,-1 -0.4,-2.3 -0.25,-0.8 -0.6,-2 -0.8,-3.15 q -0.1,-0.2 -0.75,-1.55 -0.45,-1 -1,-1.5 z"
             inkscape:connector-curvature="0"
             style="fill:#c8c59a" />
        </g>
        <g
           id="drawingObject2">
          <path
             id="path2"
             d="m 1.851,-0.199 c -1.95,-1.65 -3.75,-0.9 -4.8,1.05 0,0.95 -0.1,2.1 -0.2,2.95 -0.2,1.4 -0.3,3.4 0,4.25 0.3,0.8 0.25,1.15 0.3,1.5 0.1,0.3 0.25,0.4 0.25,0.4 0,0 0.15,-1.4 3.25,-2.05 2.8,-0.55 3.95,0.25 4.2,0.45 -1.95,-1.9 -5.3,-0.5 -6.1,-0.4 q -0.55,0.1 -0.25,-0.55 0.25,-0.6 0.75,-1.05 c 0.5,-0.45 3.5,0 3.5,0 l -0.65,-0.3 c -0.35,-0.2 -1.2,-0.15 -2.45,-0.4 -1.25,-0.25 -0.15,-0.5 0.25,-1.35 0.45,-0.9 2.2,-2 2.2,-2 l -0.95,0.65 0.95,-0.65 -0.75,0.05 -2.1,0.45 0.3,-0.7 c 0.3,-0.7 0.55,-1.25 2.05,-2.15 l 0.25,-0.15 z"
             inkscape:connector-curvature="0"
             style="fill:#b2ac88" />
        </g>
        <g
           id="drawingObject3">
          <path
             id="path3"
             d="m -1.349,0.801 c 0.6,-1.15 1.45,-1.25 2.4,-1.55 -1.6,-0.9 -3.05,-0.1 -4,1.6 0,0.95 -0.1,2.1 -0.2,2.95 -0.2,1.4 -0.3,3.4 0,4.25 0.3,0.8 0.25,1.15 0.3,1.5 0.1,0.3 0.25,0.4 0.25,0.4 0,0 0.1,-0.85 1.65,-1.55 l -0.45,0 c -0.85,0.15 -1,-0.2 -0.85,-1.1 0.1,-0.95 0.65,-1.45 0.65,-1.45 l -0.3,0.35 0.3,-0.35 -0.6,0.3 0.25,-1.3 c 0.25,-1.3 1.85,-1.8 1.85,-1.8 l -0.85,0.4 0.85,-0.4 -2,0.4 q -0.1,-1 0.75,-2.65 z"
             inkscape:connector-curvature="0"
             style="fill:#9b9676" />
        </g>
      </g>
    </g>
  </g>
</svg>
