<?xml version="1.0" encoding="UTF-8" standalone="no"?>
<!-- Generator: flash2svg, http://dissentgraphics.com/tools/flash2svg -->

<svg
   xmlns:dc="http://purl.org/dc/elements/1.1/"
   xmlns:cc="http://creativecommons.org/ns#"
   xmlns:rdf="http://www.w3.org/1999/02/22-rdf-syntax-ns#"
   xmlns:svg="http://www.w3.org/2000/svg"
   xmlns="http://www.w3.org/2000/svg"
   xmlns:sodipodi="http://sodipodi.sourceforge.net/DTD/sodipodi-0.dtd"
   xmlns:inkscape="http://www.inkscape.org/namespaces/inkscape"
   id="AvatarAssets"
   image-rendering="auto"
   version="1.1"
   x="0px"
   y="0px"
   width="8.8000002"
   height="11.812687"
   viewBox="0 0 8.8000002 11.812687"
   inkscape:version="0.48.4 r9939"
   sodipodi:docname="AvatarAssets_sleeveUpperOffsideA002.svg">
  <metadata
     id="metadata3156">
    <rdf:RDF>
      <cc:Work
         rdf:about="">
        <dc:format>image/svg+xml</dc:format>
        <dc:type
           rdf:resource="http://purl.org/dc/dcmitype/StillImage" />
      </cc:Work>
    </rdf:RDF>
  </metadata>
  <sodipodi:namedview
     pagecolor="#ffffff"
     bordercolor="#666666"
     borderopacity="1"
     objecttolerance="10"
     gridtolerance="10"
     guidetolerance="10"
     inkscape:pageopacity="0"
     inkscape:pageshadow="2"
     inkscape:window-width="640"
     inkscape:window-height="480"
     id="namedview3154"
     showgrid="false"
     fit-margin-top="0"
     fit-margin-left="0"
     fit-margin-right="0"
     fit-margin-bottom="0"
     inkscape:zoom="1.9032258"
     inkscape:cx="35.799"
     inkscape:cy="-51.442573"
     inkscape:window-x="0"
     inkscape:window-y="0"
     inkscape:window-maximized="0"
     inkscape:current-layer="AvatarAssets" />
  <defs
     id="defs3143" />
  <g
     id="sleeveUpperOffsideA3"
     overflow="visible"
     style="overflow:visible"
     transform="translate(3.799,1.2552594)">
    <g
       id="sleeveUpperOffsideA002_0">
      <g
         id="element">
        <g
           id="drawingObject">
          <path
             id="path"
             d="m 4.101,4.501 c -0.25,-1.3 -1.8,-5.95 -4.65,-5.75 q -0.85,0.1 -1.6,0.85 -0.8,0.85 -1,2.05 c -0.3,1.65 -0.3,5.95 -0.45,6.95 l -0.2,0.95 c 0,0 1.95,1.1 4.45,1 3.15,-0.1 4.35,-1.1 4.35,-1.1 l -0.9,-4.95 z"
             inkscape:connector-curvature="0"
             style="fill:#a1e2ff" />
        </g>
        <g
           id="drawingObject1">
          <path
             id="path1"
             d="m -0.899,-1.149 c -0.95,0.25 -2,1.35 -2.25,2.8 -0.3,1.65 -0.3,5.95 -0.45,6.95 l -0.2,0.95 c 0,0 1.95,1.1 4.45,1 q 3.15,-0.1 4.35,-1.1 l -0.15,-0.75 c -1,0.75 -2.9,1 -4.5,0.45 -1.6,-0.55 -2.25,-2.8 -2.25,-2.8 l 0.6,0.55 c 0.4,0.25 1.55,0.6 1.55,0.6 l -0.6,-0.65 c -0.55,-0.6 -1.75,-2.85 -1.8,-4.45 -0.05,-1.1 0.55,-2.6 1.25,-3.55 z"
             inkscape:connector-curvature="0"
             style="fill:#91cbe5" />
        </g>
        <g
           id="drawingObject2">
          <path
             id="path2"
             d="m -2.699,3.151 c -0.05,-0.85 0.2,-2.4 0.5,-3.5 -0.45,0.5 -0.85,1.2 -0.95,2 -0.3,1.65 -0.3,5.95 -0.45,6.95 l -0.2,0.95 c 0,0 1.95,1.1 4.45,1 0.55,0 1,-0.05 1.4,-0.15 -0.4,0 -0.85,0 -1.2,-0.1 q -2.45,-0.65 -3.25,-2.3 c -0.55,-1.15 -0.3,-3.7 -0.3,-4.85 z"
             inkscape:connector-curvature="0"
             style="fill:#6f9baf" />
        </g>
      </g>
    </g>
  </g>
</svg>
