<?xml version="1.0" encoding="UTF-8" standalone="no"?>
<!-- Generator: flash2svg, http://dissentgraphics.com/tools/flash2svg -->

<svg
   xmlns:dc="http://purl.org/dc/elements/1.1/"
   xmlns:cc="http://creativecommons.org/ns#"
   xmlns:rdf="http://www.w3.org/1999/02/22-rdf-syntax-ns#"
   xmlns:svg="http://www.w3.org/2000/svg"
   xmlns="http://www.w3.org/2000/svg"
   xmlns:sodipodi="http://sodipodi.sourceforge.net/DTD/sodipodi-0.dtd"
   xmlns:inkscape="http://www.inkscape.org/namespaces/inkscape"
   id="AvatarAssets"
   image-rendering="auto"
   version="1.1"
   x="0px"
   y="0px"
   width="8.75"
   height="11.778687"
   viewBox="0 0 8.75 11.778687"
   inkscape:version="0.48.4 r9939"
   sodipodi:docname="AvatarAssets_sleeveUpperOffside20101103Brown.svg">
  <metadata
     id="metadata3029">
    <rdf:RDF>
      <cc:Work
         rdf:about="">
        <dc:format>image/svg+xml</dc:format>
        <dc:type
           rdf:resource="http://purl.org/dc/dcmitype/StillImage" />
      </cc:Work>
    </rdf:RDF>
  </metadata>
  <sodipodi:namedview
     pagecolor="#ffffff"
     bordercolor="#666666"
     borderopacity="1"
     objecttolerance="10"
     gridtolerance="10"
     guidetolerance="10"
     inkscape:pageopacity="0"
     inkscape:pageshadow="2"
     inkscape:window-width="640"
     inkscape:window-height="480"
     id="namedview3027"
     showgrid="false"
     fit-margin-top="0"
     fit-margin-left="0"
     fit-margin-right="0"
     fit-margin-bottom="0"
     inkscape:zoom="1.9032258"
     inkscape:cx="35.7"
     inkscape:cy="-51.535333"
     inkscape:window-x="0"
     inkscape:window-y="0"
     inkscape:window-maximized="0"
     inkscape:current-layer="AvatarAssets" />
  <defs
     id="defs3019" />
  <g
     id="sleeveUpperOffside20101103Brown1"
     overflow="visible"
     style="overflow:visible"
     transform="translate(3.7,1.3140203)">
    <g
       id="sleeveUpperOffside20101103Brown_0">
      <g
         id="element">
        <path
           id="path"
           d="m -1.1,-1.2 c 0.1,-0.05 0,0 -0.15,0.05 -0.05,0 -0.1,0.05 -0.2,0.1 -0.35,0.15 -0.7,0.45 -1,0.8 C -2.6,-0.1 -2.7,0.1 -2.8,0.3 c 0.15,-0.25 0.3,-0.45 0.45,-0.65 -0.3,1.1 -0.5,2.6 -0.45,3.45 0.05,1.2 -0.15,3.75 0.4,4.9 0.6,1.1 2,1.9 3.3,2.2 0.4,0.1 0.8,0.1 1.25,0.1 C 4.3,9.9 5.05,9.25 5.05,9.25 L 4.9,8.5 C 3.9,9.25 2,9.55 0.4,9.05 -1.25,8.5 -1.7,6.85 -1.7,6.85 l 0.45,0.9 -0.45,-0.9 0.9,0.6 C 0.65,8.6 2.6,7.8 2.6,7.8 2.6,7.8 0.2,6.6 -0.35,6 -0.95,5.4 -2.2,3.95 -2.25,2.35 -2.3,1.25 -1.75,-0.25 -1.1,-1.2 z M -2.85,0.35 C -3.05,0.65 -3.2,1.1 -3.3,1.65 -3.2,1.15 -3.05,0.7 -2.8,0.3 l -0.05,0.05 z"
           inkscape:connector-curvature="0"
           style="fill:#403221" />
        <path
           id="path1"
           d="m -0.75,-1.3 q -0.2,0.05 -0.35,0.1 c -0.65,0.95 -1.2,2.45 -1.15,3.55 0.05,1.6 1.3,3.05 1.9,3.65 0.55,0.6 2.95,1.8 2.95,1.8 0,0 -1.95,0.8 -3.4,-0.35 l -0.9,-0.6 0.45,0.9 -0.45,-0.9 c 0,0 0.45,1.65 2.1,2.2 C 2,9.55 3.9,9.25 4.9,8.5 L 4.05,4.3 C 3.75,3 2.1,-1.6 -0.75,-1.3 z"
           inkscape:connector-curvature="0"
           style="fill:#57442c" />
        <path
           id="path2"
           d="M -2.4,8 C -2.95,6.85 -2.75,4.3 -2.8,3.1 -2.85,2.25 -2.65,0.75 -2.35,-0.35 -2.5,-0.15 -2.65,0.05 -2.8,0.3 -3.05,0.7 -3.2,1.15 -3.3,1.65 -3.55,3.3 -3.45,7.6 -3.6,8.55 l -0.1,1 1.3,0.5 -1.3,-0.5 c 0,0 1.95,1.05 4.4,0.9 C 1.3,10.4 1.8,10.35 2.15,10.3 1.7,10.3 1.3,10.3 0.9,10.2 -0.4,9.9 -1.8,9.1 -2.4,8 z"
           inkscape:connector-curvature="0"
           style="fill:#2f2519" />
      </g>
    </g>
  </g>
</svg>
