<?xml version="1.0" encoding="UTF-8" standalone="no"?>
<!-- Generator: flash2svg, http://dissentgraphics.com/tools/flash2svg -->

<svg
   xmlns:dc="http://purl.org/dc/elements/1.1/"
   xmlns:cc="http://creativecommons.org/ns#"
   xmlns:rdf="http://www.w3.org/1999/02/22-rdf-syntax-ns#"
   xmlns:svg="http://www.w3.org/2000/svg"
   xmlns="http://www.w3.org/2000/svg"
   xmlns:sodipodi="http://sodipodi.sourceforge.net/DTD/sodipodi-0.dtd"
   xmlns:inkscape="http://www.inkscape.org/namespaces/inkscape"
   id="AvatarAssets"
   image-rendering="auto"
   version="1.1"
   x="0px"
   y="0px"
   width="9.6499996"
   height="12.754"
   viewBox="0 0 9.6499996 12.754"
   inkscape:version="0.48.4 r9939"
   sodipodi:docname="AvatarAssets_sleeveUpperOffsideA005.svg">
  <metadata
     id="metadata3212">
    <rdf:RDF>
      <cc:Work
         rdf:about="">
        <dc:format>image/svg+xml</dc:format>
        <dc:type
           rdf:resource="http://purl.org/dc/dcmitype/StillImage" />
      </cc:Work>
    </rdf:RDF>
  </metadata>
  <sodipodi:namedview
     pagecolor="#ffffff"
     bordercolor="#666666"
     borderopacity="1"
     objecttolerance="10"
     gridtolerance="10"
     guidetolerance="10"
     inkscape:pageopacity="0"
     inkscape:pageshadow="2"
     inkscape:window-width="640"
     inkscape:window-height="480"
     id="namedview3210"
     showgrid="false"
     fit-margin-top="0"
     fit-margin-left="0"
     fit-margin-right="0"
     fit-margin-bottom="0"
     inkscape:zoom="1.9032258"
     inkscape:cx="35.949"
     inkscape:cy="-50.493305"
     inkscape:window-x="0"
     inkscape:window-y="0"
     inkscape:window-maximized="0"
     inkscape:current-layer="AvatarAssets" />
  <defs
     id="defs3191" />
  <g
     id="sleeveUpperOffsideA6"
     overflow="visible"
     style="overflow:visible"
     transform="translate(3.949,1.2473043)">
    <g
       id="sleeveUpperOffsideA005_0">
      <g
         id="element">
        <g
           id="drawingObject">
          <path
             id="path"
             d="m 3.951,4.401 c -0.6,-1.5 -2.1,-6.4 -5,-5.55 q -1.75,0.45 -2.05,5.4 c -0.15,3.55 -0.55,4.9 -0.65,5.45 l -0.2,0.65 c 0,0 1.8,1.25 3.9,1.15 2.05,-0.05 3.65,-0.45 4.3,-0.95 0.65,-0.55 1.45,-1.4 1.45,-1.4 l -1.75,-4.75 z"
             inkscape:connector-curvature="0"
             style="fill:#4a90c2" />
        </g>
        <g
           id="drawingObject1">
          <path
             id="path1"
             d="m -0.249,2.851 c 0.7,-1.1 0.15,-2.1 -0.3,-2.1 l -0.5,0 c 0,0 0.65,-1.2 -0.05,-1.55 -0.4,-0.15 -0.75,0.2 -1.1,0.8 -0.35,0.65 -0.6,1.6 -0.75,2.9 0.1,0.45 0.25,0.8 0.55,0.65 0.65,-0.4 0.55,-0.85 0.55,-0.85 0,0 0.95,1.2 1.6,0.15 z"
             inkscape:connector-curvature="0"
             style="fill:#afcce0" />
        </g>
        <g
           id="drawingObject2">
          <path
             id="path2"
             d="m 3.751,4.201 c -0.3,-0.7 -0.45,-1.25 -0.95,-1 -0.5,0.25 -0.45,0.95 -0.45,0.95 0,0 -0.05,-0.95 -0.9,-0.75 -0.85,0.15 -1.85,1.4 -1.3,1.7 0.6,0.3 1.15,0.35 1.15,0.35 l -0.4,0.35 0.4,-0.35 c 0,0 -0.8,0.55 -0.7,1.2 0.1,0.65 1.7,1.65 2,1.1 l 0.5,-1 c 0,0 0.3,1.3 0.85,0.9 0.6,-0.35 0.8,-0.9 0.55,-1.45 -0.25,-0.6 -0.75,-0.8 -0.75,-0.8 l 0.3,0.2 -0.3,-0.2 q 0.3,-0.5 0,-1.2 z"
             inkscape:connector-curvature="0"
             style="fill:#afcce0" />
        </g>
        <g
           id="drawingObject3">
          <path
             id="path3"
             d="m -0.299,7.601 q -0.1,-1.2 -0.65,-1.25 c -0.5,-0.1 -0.7,0 -0.8,0.1 0.15,-0.25 0.55,-0.95 0.2,-1.25 -0.3,-0.25 -1,-0.3 -1.6,-0.1 -0.15,2.7 -0.45,3.9 -0.6,4.45 0.2,0.45 0.75,1.1 1.3,0.9 0.75,-0.3 0.55,-1.35 0.5,-1.5 l 0,-0.2 c 0,0 1,0.8 1.35,0.35 q 0.35,-0.45 0.3,-1.5 z"
             inkscape:connector-curvature="0"
             style="fill:#afcce0" />
        </g>
        <g
           id="drawingObject4">
          <path
             id="path4"
             d="m -2.349,1.101 c 0,0 -0.1,-0.2 -0.3,0.2 -0.15,0.4 0.1,0.5 0.1,0.5 0,0 -0.35,0.9 0.1,0.85 0.4,0 0.45,-0.9 0.45,-0.9 l 0.35,0.25 c 0.15,0.15 0.95,0.25 0.9,-0.1 -0.05,-0.4 -1.35,-0.6 -1.35,-0.6 l 0.65,0.15 -0.65,-0.15 0.35,-0.5 c 0.25,-0.3 0.55,-0.95 0.05,-0.75 q -0.5,0.2 -0.65,1.05 z"
             inkscape:connector-curvature="0"
             style="fill:#4a90c2" />
        </g>
        <g
           id="drawingObject5">
          <path
             id="path5"
             d="m 2.251,4.551 c -0.3,-0.45 -0.85,-0.35 -0.8,0 q 0.05,0.35 0.9,0.8 c 0,0 0,0.15 -0.2,0.45 -0.15,0.3 -0.5,0.8 0,0.95 0.5,0.2 0.75,-0.85 0.75,-0.85 l 0.5,0.65 c 0.3,0.3 0.5,0.1 0.55,-0.2 0.05,-0.3 -0.85,-0.8 -0.85,-0.8 l 0.3,-0.65 c 0.15,-0.3 0.05,-0.75 -0.3,-0.8 -0.35,-0.05 -0.3,1.15 -0.3,1.15 l -0.55,-0.7 z"
             inkscape:connector-curvature="0"
             style="fill:#4a90c2" />
        </g>
        <g
           id="drawingObject6">
          <path
             id="path6"
             d="m -1.299,7.601 c -0.05,-0.45 -1.5,-0.3 -1.5,-0.3 l 0.5,-1.05 c 0.2,-0.45 -0.05,-0.6 -0.4,-0.4 q -0.4,0.2 -0.45,1.2 c -0.2,0.15 -0.3,1.05 -0.3,1.05 l 0.25,0.1 -0.05,0.3 c 0,0.3 0.05,1.05 0.5,0.95 0.4,-0.05 -0.05,-1.6 -0.05,-1.6 l 0.9,0.3 c 0.25,0 0.7,-0.15 0.6,-0.55 z"
             inkscape:connector-curvature="0"
             style="fill:#4a90c2" />
        </g>
      </g>
    </g>
  </g>
</svg>
