<?xml version="1.0" encoding="UTF-8" standalone="no"?>
<!-- Generator: flash2svg, http://dissentgraphics.com/tools/flash2svg -->

<svg
   xmlns:dc="http://purl.org/dc/elements/1.1/"
   xmlns:cc="http://creativecommons.org/ns#"
   xmlns:rdf="http://www.w3.org/1999/02/22-rdf-syntax-ns#"
   xmlns:svg="http://www.w3.org/2000/svg"
   xmlns="http://www.w3.org/2000/svg"
   xmlns:sodipodi="http://sodipodi.sourceforge.net/DTD/sodipodi-0.dtd"
   xmlns:inkscape="http://www.inkscape.org/namespaces/inkscape"
   id="AvatarAssets"
   image-rendering="auto"
   version="1.1"
   x="0px"
   y="0px"
   width="11.58276"
   height="15.270509"
   viewBox="0 0 11.58276 15.270509"
   inkscape:version="0.48.4 r9939"
   sodipodi:docname="AvatarAssets_coatSleeveLowerOffsideC006.svg">
  <metadata
     id="metadata37">
    <rdf:RDF>
      <cc:Work
         rdf:about="">
        <dc:format>image/svg+xml</dc:format>
        <dc:type
           rdf:resource="http://purl.org/dc/dcmitype/StillImage" />
      </cc:Work>
    </rdf:RDF>
  </metadata>
  <sodipodi:namedview
     pagecolor="#ffffff"
     bordercolor="#666666"
     borderopacity="1"
     objecttolerance="10"
     gridtolerance="10"
     guidetolerance="10"
     inkscape:pageopacity="0"
     inkscape:pageshadow="2"
     inkscape:window-width="640"
     inkscape:window-height="480"
     id="namedview35"
     showgrid="false"
     fit-margin-top="0"
     fit-margin-left="0"
     fit-margin-right="0"
     fit-margin-bottom="0"
     inkscape:zoom="1.9032258"
     inkscape:cx="36.570993"
     inkscape:cy="-48.187956"
     inkscape:window-x="0"
     inkscape:window-y="0"
     inkscape:window-maximized="0"
     inkscape:current-layer="AvatarAssets" />
  <defs
     id="defs3" />
  <g
     id="coatSleeveLowerOffsideC7"
     overflow="visible"
     style="overflow:visible"
     transform="translate(4.5709928,1.458464)">
    <g
       id="coatSleeveLowerOffsideC006_0">
      <g
         id="element">
        <g
           id="drawingObject">
          <path
             id="path"
             d="M 4.003,6.294 C 3.988,5.694 -2.541,6.61 -2.541,6.61 L 0.751,6.226 -2.541,6.61 q -0.079,0.802 0.24,3.545 l 0.17,0.796 0.463,-1.462 0.098,-0.103 0.68,1.183 0.837,-0.521 -0.837,0.521 c 0,0 1.126,-0.979 3.117,-1.329 1.993,-0.301 2.447,-0.162 2.447,-0.162 0,0 -0.657,-2.234 -0.671,-2.784 z"
             inkscape:connector-curvature="0"
             style="fill:#000000;fill-opacity:0.2" />
        </g>
        <g
           id="drawingObject1">
          <path
             id="path1"
             d="M -1.799,6.782 -1.557,6.476 4.141,6.332 4.125,7.682 5.034,10.01 c 0,0 2.04,-0.452 1.925,-1.049 C 6.843,8.364 5.892,6.337 5.688,6.192 5.483,5.997 3.753,4.841 3.052,4.809 q -0.7,0.017 -2.594,0.265 -2.095,0.203 -2.242,0.357 l -1.768,3.246 c -0.408,1.661 -1.027,4.877 -0.976,4.926 l 2.005,0.149 0.849,-0.021 c 0,0 -1.017,-4.626 -0.646,-5.786 0.371,-1.159 0.763,-1.469 0.763,-1.469"
             inkscape:connector-curvature="0"
             style="fill:#1c274b" />
        </g>
        <g
           id="drawingObject2">
          <path
             id="path2"
             d="M 3.877,-0.164 C 3.649,-1.258 1.527,-2.105 -1.091,-0.788 q -0.641,0.366 -1.208,1.681 -0.522,1.113 -0.74,2.369 C -3.308,4.469 -3.381,7.522 -3.496,8.926 -3.127,7.666 -2.249,6.793 -0.91,6.359 2.562,5.221 6.085,8.033 6.085,8.033 L 5.011,3.158 C 4.671,1.567 4.044,0.532 3.877,-0.164 z m -7.373,9.09 c -0.048,0.051 -0.046,0.151 -0.095,0.202 -0.183,0.655 -0.217,1.306 -0.152,1.904 l 0.171,-1.154 c 0.045,-0.201 0.039,-0.451 0.076,-0.952 z"
             inkscape:connector-curvature="0"
             style="fill:#650e14" />
        </g>
        <g
           id="group1">
          <g
             id="drawingObject3">
            <path
               id="path5"
               d="m -3.656,10.48 0.203,-1.856 q -0.376,0.96 -0.353,1.86 l 0.15,-0.004 z"
               inkscape:connector-curvature="0"
               style="fill:#510b0f" />
          </g>
          <g
             id="drawingObject4">
            <path
               id="path6"
               d="m -1.387,1.32 c 0,0 -0.975,1.025 -0.943,0.324 q 0.085,-0.603 0.557,-1.715 C -2.401,0.795 -2.867,2.157 -3.039,3.262 -3.261,4.368 -3.345,6.971 -3.453,8.624 -3.124,7.816 -2.445,6.948 -1.207,6.467 -1.715,6.18 -2.427,5.697 -2.49,5.199 -2.56,4.4 -1.387,1.32 -1.387,1.32 z"
               inkscape:connector-curvature="0"
               style="fill:#510b0f" />
          </g>
        </g>
        <g
           id="drawingObject5">
          <path
             id="path7"
             d="m -1.943,7.036 0.219,0.744 0.636,1.435 0.346,-0.159 C 0.002,8.787 0.697,8.569 1.344,8.453 L 1.494,8.449 C 3.841,8.29 4.643,8.369 5.399,8.6 l 1.012,0.475 c 0,0 -0.29,0.407 -0.538,0.464 L 4.929,9.813 4.986,10.061 6.228,9.73 C 6.625,9.62 7.021,9.46 6.959,8.961 L 6.905,8.812 Q 6.903,8.762 6.992,8.31 7.086,8.058 6.733,7.966 L 6.607,6.919 C 6.635,6.068 6.36,5.075 6.36,5.075 L 6.475,5.672 6.36,5.075 c 0,0 -1.435,-1.364 -4.032,-1.198 -2.598,0.115 -3.381,0.785 -3.381,0.785 l 0.741,-0.368 -0.741,0.368 c 0,0 -0.214,-0.544 -0.294,-1.743 L -1.387,1.32 -1.966,2.185 -1.387,1.32 c 0,0 -1.115,1.428 -1.334,2.634 -0.269,1.258 -0.552,1.915 -0.552,1.915 l -0.859,1.622 -0.339,0.459 -0.073,5.003 c -0.041,0.352 -0.035,0.601 0.016,0.65 0.153,0.096 0.906,0.227 1.706,0.207 l 1.148,-0.079 -0.06,-0.399 c 0,0 -0.848,0.072 -1.351,-0.015 -0.503,-0.138 -0.849,0.021 -0.714,-0.583 0.183,-0.654 1.045,-2.177 1.192,-2.28 L -2.461,10.3 -2.571,9.902 c 0.12,-1.203 0.628,-2.866 0.628,-2.866 z"
             inkscape:connector-curvature="0"
             style="fill:#364c8e" />
        </g>
        <g
           id="drawingObject6">
          <path
             id="path8"
             d="M -0.934,5.41 C -0.99,5.161 -1.444,5.022 -1.755,4.58 -2.115,4.189 -2.025,3.787 -1.99,3.186 L -1.582,1.525 C -1.871,1.982 -2.545,3 -2.721,3.954 -2.99,5.212 -3.273,5.869 -3.273,5.869 L -4.132,7.491 -4.471,7.95 -4.543,13.003 -2.827,9.659 C -2.731,9.506 -2.701,8.705 -2.71,8.355 -2.717,8.056 -2.233,7.443 -1.991,7.137 l 0.048,-0.101 0.001,0.05 0.098,-0.103 0.675,0.983 c 0.366,0.641 0.46,0.389 0.91,0.377 0.399,-0.01 1.04,-0.376 2.386,-0.56 Q 3.972,7.536 3.468,7.399 C 3.115,7.308 1.916,7.338 1.417,7.401 0.87,7.515 1.907,6.988 2.006,6.936 L 1.557,6.997 C 1.16,7.107 0.959,7.062 0.252,6.83 -0.455,6.548 -1.662,6.278 -1.417,6.072 -1.221,5.917 -0.876,5.708 -0.934,5.41 z"
             inkscape:connector-curvature="0"
             style="fill:#2a3b6e" />
        </g>
        <g
           id="drawingObject7">
          <path
             id="path9"
             d="M -3.285,7.37 -3.096,6.915 -3.29,7.17 c -0.195,0.205 -0.334,0.658 -0.396,0.16 l -0.015,-0.6 -0.431,0.761 -0.339,0.459 -0.072,5.053 0.906,-1.773 c 0.036,-0.551 0.359,-1.61 0.4,-1.961 C -3.25,8.769 -3.5,8.776 -3.462,8.274 -3.476,7.725 -3.096,6.915 -3.096,6.915"
             inkscape:connector-curvature="0"
             style="fill:#202d55" />
        </g>
        <g
           id="drawingObject8">
          <path
             id="path10"
             d="M 3.846,0.587 C 3.682,0.041 3.865,-0.614 2.955,-0.991 Q 1.996,-1.367 0.258,-0.873 C -0.536,-0.602 -1.258,0.516 -1.094,1.062 -0.88,1.607 -0.176,1.739 0.478,1.923 1.083,2.108 2.626,1.818 2.776,1.815 2.876,1.812 2.087,2.232 1.339,2.351 0.592,2.47 -0.001,2.735 0.402,2.875 0.807,3.065 1.698,2.692 2.548,2.671 3.349,2.7 4.053,2.833 4.145,2.53 4.237,2.228 4.027,1.833 4.025,1.733 4.021,1.583 4.008,1.083 3.846,0.587 z"
             inkscape:connector-curvature="0"
             style="fill:#85121a" />
        </g>
        <g
           id="drawingObject9">
          <path
             id="path11"
             d="M 4.778,3.815 C 4.77,3.515 4.709,3.066 3.507,2.996 Q 2.054,2.933 0.564,3.321 C -0.23,3.591 -0.764,4.205 -0.317,4.094 0.079,3.934 1.77,3.541 2.421,3.574 3.072,3.608 4.735,4.116 4.778,3.815 z"
             inkscape:connector-curvature="0"
             style="fill:#8a131b" />
        </g>
        <g
           id="drawingObject10">
          <path
             id="path12"
             d="M 2.436,4.174 0.052,4.834 0.699,4.718 C 1.345,4.552 3.042,4.409 3.694,4.492 4.345,4.526 5.704,4.841 5.704,4.841 Q 5.047,4.558 3.939,4.286 C 3.486,4.147 2.985,4.11 2.436,4.174 z"
             inkscape:connector-curvature="0"
             style="fill:#6381da" />
        </g>
        <g
           id="drawingObject11">
          <path
             id="path13"
             d="m 5.772,7.541 -2,0 1.855,0.203 0.906,0.228 c 0,0 -0.257,-0.294 -0.761,-0.431 z"
             inkscape:connector-curvature="0"
             style="fill:#6381da" />
        </g>
        <g
           id="drawingObject12">
          <path
             id="path14"
             d="M 3.964,7.236 5.361,7.101 Q 5.202,6.755 4.804,6.815 l -0.84,0.421 z"
             inkscape:connector-curvature="0"
             style="fill:#6381da" />
        </g>
      </g>
    </g>
  </g>
</svg>
