<?xml version="1.0" encoding="UTF-8" standalone="no"?>
<!-- Generator: flash2svg, http://dissentgraphics.com/tools/flash2svg -->

<svg
   xmlns:dc="http://purl.org/dc/elements/1.1/"
   xmlns:cc="http://creativecommons.org/ns#"
   xmlns:rdf="http://www.w3.org/1999/02/22-rdf-syntax-ns#"
   xmlns:svg="http://www.w3.org/2000/svg"
   xmlns="http://www.w3.org/2000/svg"
   xmlns:sodipodi="http://sodipodi.sourceforge.net/DTD/sodipodi-0.dtd"
   xmlns:inkscape="http://www.inkscape.org/namespaces/inkscape"
   id="AvatarAssets"
   image-rendering="auto"
   version="1.1"
   x="0px"
   y="0px"
   width="7.8805695"
   height="18.313267"
   viewBox="0 0 7.8805695 18.313267"
   inkscape:version="0.48.4 r9939"
   sodipodi:docname="AvatarAssets_sleeveUpperOffside20101103White.svg">
  <metadata
     id="metadata3043">
    <rdf:RDF>
      <cc:Work
         rdf:about="">
        <dc:format>image/svg+xml</dc:format>
        <dc:type
           rdf:resource="http://purl.org/dc/dcmitype/StillImage" />
      </cc:Work>
    </rdf:RDF>
  </metadata>
  <sodipodi:namedview
     pagecolor="#ffffff"
     bordercolor="#666666"
     borderopacity="1"
     objecttolerance="10"
     gridtolerance="10"
     guidetolerance="10"
     inkscape:pageopacity="0"
     inkscape:pageshadow="2"
     inkscape:window-width="640"
     inkscape:window-height="480"
     id="namedview3041"
     showgrid="false"
     fit-margin-top="0"
     fit-margin-left="0"
     fit-margin-right="0"
     fit-margin-bottom="0"
     inkscape:zoom="1.9032258"
     inkscape:cx="35.14"
     inkscape:cy="-45.056427"
     inkscape:window-x="0"
     inkscape:window-y="0"
     inkscape:window-maximized="0"
     inkscape:current-layer="AvatarAssets" />
  <defs
     id="defs3032" />
  <g
     id="sleeveUpperOffside20101103White1"
     overflow="visible"
     style="overflow:visible"
     transform="translate(3.14,1.3696938)">
    <g
       id="sleeveUpperOffside20101103White_0">
      <g
         id="element">
        <path
           id="path"
           d="m -0.25,-1.25 c -0.3,0.35 -0.45,0.75 -0.45,1.2 -0.1,1.05 0.65,1.95 0.65,2.9 0,0.5 -0.2,0.85 -0.15,1.3 0,0.45 0.15,0.95 0.35,1.4 C 0.4,6.05 0.7,6.4 0.9,6.95 L 1.15,7.8 C 1.35,8.5 1.9,9 2.15,9.6 1.8,9.45 1.5,9.3 1.15,9.35 c 0.1,0.55 0.6,0.75 0.75,1.2 -1.05,-0.15 -0.2,1.1 0.15,1.5 0.45,0.5 1.05,0.65 1.6,0.7 -0.4,0.35 -1,0.2 -1.45,0.3 0.05,0.55 0.65,0.85 1.1,0.8 0.5,-0.1 0.95,-0.5 1.35,-1.15 C 4.8,11.65 4.75,10.5 4.6,9.15 4.05,4.4 1.8,-0.95 0.35,-1.2 0.1,-1.25 -0.1,-1.25 -0.25,-1.25 z m -1.4,0.15 c -0.55,0.45 -0.95,1.45 -1.2,3.05 l -0.2,1.95 c 0.15,-2.75 0.6,-4.4 1.3,-4.95 0.05,-0.05 0.05,-0.05 0.1,-0.05 z"
           inkscape:connector-curvature="0"
           style="fill:#eaf2f2" />
        <path
           id="path1"
           d="m -0.7,-0.05 c 0,-0.45 0.15,-0.85 0.45,-1.2 l 0,-0.05 c -0.45,-0.1 -0.85,-0.1 -1.2,0.05 l 0,0.05 c -0.4,0.6 -0.65,1.15 -0.75,1.6 -0.35,1.05 -0.15,2.1 0.1,3.25 0.4,1.5 0.3,2.95 0.6,4.5 0.1,0.65 0.35,1.3 0.45,1.95 0.1,0.45 0.15,0.4 0.05,0.75 -0.2,0.6 -0.45,0.2 -0.35,0.85 0.1,0.65 0.8,1.85 1.4,2.2 0.5,0.35 1.2,0.3 1.75,0.2 -0.25,0.45 -1,0.65 -0.2,0.95 0.2,0.05 0.4,0.1 0.65,0.1 L 3.8,14.4 C 4,14.25 4.25,14.05 4.5,13.95 l 0,-0.1 0.2,-1.2 -0.05,0.05 C 4.25,13.35 3.8,13.75 3.3,13.85 2.85,13.9 2.25,13.6 2.2,13.05 2.65,12.95 3.25,13.1 3.65,12.75 3.1,12.7 2.5,12.55 2.05,12.05 1.7,11.65 0.85,10.4 1.9,10.55 1.75,10.1 1.25,9.9 1.15,9.35 1.5,9.3 1.8,9.45 2.15,9.6 1.9,9 1.35,8.5 1.15,7.8 L 0.9,6.95 C 0.7,6.4 0.4,6.05 0.15,5.55 -0.05,5.1 -0.2,4.6 -0.2,4.15 -0.25,3.7 -0.05,3.35 -0.05,2.85 -0.05,1.9 -0.8,1 -0.7,-0.05 z"
           inkscape:connector-curvature="0"
           style="fill:#d8dede" />
        <path
           id="path5"
           d="m -1.45,-1.25 c -0.05,0.05 -0.15,0.1 -0.2,0.15 -0.55,0.45 -0.95,1.45 -1.2,3.05 0,1.55 -0.1,3.15 0.15,4.65 0.15,1 0.4,1.85 0.5,2.8 0.2,1.75 0.65,5.7 2.95,5.7 -0.2,0.95 1.35,0.3 1.7,0.25 l 0.05,0 1,-0.3 C 3.7,15 3.9,14.9 4.15,14.8 L 4.5,13.95 C 4.25,14.05 4,14.25 3.8,14.4 L 2.25,15.15 C 2,15.15 1.8,15.1 1.6,15.05 0.8,14.75 1.55,14.55 1.8,14.1 1.25,14.2 0.55,14.25 0.05,13.9 -0.55,13.55 -1.25,12.35 -1.35,11.7 -1.45,11.05 -1.2,11.45 -1,10.85 -0.9,10.5 -0.95,10.55 -1.05,10.1 -1.15,9.45 -1.4,8.8 -1.5,8.15 -1.8,6.6 -1.7,5.15 -2.1,3.65 -2.35,2.5 -2.55,1.45 -2.2,0.4 c 0.1,-0.45 0.35,-1 0.75,-1.6 l 0,-0.05 z"
           inkscape:connector-curvature="0"
           style="fill:#aeb3b3" />
        <path
           id="path6"
           d="m -2.85,1.95 -0.2,1.95 q -0.15,2.75 -0.05,5.55 0.05,3.6 0.5,4.55 c 0.75,1.85 3.05,3.6 4.85,2.7 l 0.6,-0.3 C 3.4,16 3.8,15.45 4.15,14.8 3.9,14.9 3.7,15 3.5,15.05 l -1,0.3 -0.05,0 C 2.1,15.4 0.55,16.05 0.75,15.1 -1.55,15.1 -2,11.15 -2.2,9.4 -2.3,8.45 -2.55,7.6 -2.7,6.6 -2.95,5.1 -2.85,3.5 -2.85,1.95 z"
           inkscape:connector-curvature="0"
           style="fill:#8e9191" />
      </g>
    </g>
  </g>
</svg>
