<?xml version="1.0" encoding="UTF-8" standalone="no"?>
<!-- Generator: flash2svg, http://dissentgraphics.com/tools/flash2svg -->

<svg
   xmlns:dc="http://purl.org/dc/elements/1.1/"
   xmlns:cc="http://creativecommons.org/ns#"
   xmlns:rdf="http://www.w3.org/1999/02/22-rdf-syntax-ns#"
   xmlns:svg="http://www.w3.org/2000/svg"
   xmlns="http://www.w3.org/2000/svg"
   xmlns:sodipodi="http://sodipodi.sourceforge.net/DTD/sodipodi-0.dtd"
   xmlns:inkscape="http://www.inkscape.org/namespaces/inkscape"
   id="AvatarAssets"
   image-rendering="auto"
   version="1.1"
   x="0px"
   y="0px"
   width="9.4499998"
   height="12.852"
   viewBox="0 0 9.4499998 12.852"
   inkscape:version="0.48.4 r9939"
   sodipodi:docname="AvatarAssets_hoodieSleeveLowerOffside20101122.svg">
  <metadata
     id="metadata3015">
    <rdf:RDF>
      <cc:Work
         rdf:about="">
        <dc:format>image/svg+xml</dc:format>
        <dc:type
           rdf:resource="http://purl.org/dc/dcmitype/StillImage" />
      </cc:Work>
    </rdf:RDF>
  </metadata>
  <sodipodi:namedview
     pagecolor="#ffffff"
     bordercolor="#666666"
     borderopacity="1"
     objecttolerance="10"
     gridtolerance="10"
     guidetolerance="10"
     inkscape:pageopacity="0"
     inkscape:pageshadow="2"
     inkscape:window-width="640"
     inkscape:window-height="480"
     id="namedview3013"
     showgrid="false"
     fit-margin-top="0"
     fit-margin-left="0"
     fit-margin-right="0"
     fit-margin-bottom="0"
     inkscape:zoom="1.9032258"
     inkscape:cx="36"
     inkscape:cy="-50.45"
     inkscape:window-x="0"
     inkscape:window-y="0"
     inkscape:window-maximized="0"
     inkscape:current-layer="AvatarAssets" />
  <defs
     id="defs3000" />
  <g
     id="hoodieSleeveLowerOffside20101123"
     overflow="visible"
     style="overflow:visible"
     transform="translate(4,1.302)">
    <g
       id="hoodieSleeveLowerOffside20101122_0">
      <g
         id="element">
        <path
           id="path"
           d="M 1.9,-0.8 C 1.65,-0.9 1.4,-0.95 1.2,-1 0.75,-1.2 0.35,-1.3 -0.1,-1.3 l -0.025,0 -0.125,0 -0.1,0.1 c -0.25,0.1 -0.65,0.25 -0.8,0.4 l -0.1,0.1 0.1,-0.1 c -0.45,0.4 -0.8,0.85 -0.85,1.65 -0.1,1.5 -0.2,4.1 0.15,4.75 0.25,0.3 0.35,0.5 0.4,0.55 0.1,0 0.25,0.1 0.4,0.15 C -1,6.25 -0.95,6.25 -0.9,6.25 l 0.55,0.05 -0.4,0.35 C -0.85,6.7 -0.9,6.8 -0.9,6.85 -0.95,7 -0.95,7.05 -0.85,7 l 1.7,-0.25 c -0.05,0 -0.05,0 -0.1,0 C 1.05,6.2 2.25,6.2 2.85,6.05 2.45,5.85 2.05,5.7 1.7,5.65 1.45,5.6 1.15,5.6 0.9,5.6 c -0.15,0 -0.25,0 -0.4,0.05 -0.45,0 -0.8,0 -1.05,0.05 -0.05,0.05 -0.15,0.05 -0.2,0 L -1,4.9 c -0.1,-0.5 0,-0.55 0.35,-1 -0.9,-0.55 -1,-2.15 -0.6,-3 C -0.65,-0.45 0.4,-0.3 1.8,0.05 1.6,-0.15 1.35,-0.4 1.05,-0.6 1.8,-0.3 3.3,0.25 3.45,1.15 L 3.5,1.1 C 3.3,0.5 2.7,-0.5 2.1,-0.7 L 1.875,-0.8"
           inkscape:connector-curvature="0"
           style="fill:#787878" />
        <path
           id="path1"
           d="m 1.2,-1 c 0.2,0.05 0.45,0.1 0.7,0.2 -0.55,-0.25 -1.05,-0.4 -1.55,-0.5 -0.15,0 -0.3,0 -0.45,0 0.45,0 0.85,0.1 1.3,0.3 z M 3.55,1.25 C 3.45,0.65 2.75,-0.5 2.1,-0.7 2.7,-0.5 3.3,0.5 3.5,1.1 L 3.45,1.15 C 3.3,0.25 1.8,-0.3 1.05,-0.6 1.35,-0.4 1.6,-0.15 1.8,0.05 0.4,-0.3 -0.65,-0.45 -1.25,0.9 c -0.4,0.85 -0.3,2.45 0.6,3 C -1,4.35 -1.1,4.4 -1,4.9 l 0.25,0.8 c 0.05,0.05 0.15,0.05 0.2,0 C -0.3,5.65 0.05,5.65 0.5,5.65 0.65,5.6 0.75,5.6 0.9,5.6 c 0.25,0 0.55,0 0.8,0.05 0.35,0.05 0.75,0.2 1.15,0.4 -0.6,0.15 -1.8,0.15 -2.1,0.7 0.05,0 0.05,0 0.1,0 l 0.2,0.05 0.55,0 C 2.2,6.75 2.8,6.75 3.3,6.85 3.65,6.95 3.95,7.05 4.2,7.15 4.3,7.2 4.4,7.2 4.5,7.3 5.1,7.6 5.3,7.8 5.2,8.05 l -0.45,0.4 0,0.05 0.05,0 0.65,-0.7 c 0,0 -0.8,-1.9 -0.9,-2.75 -0.1,-0.8 -0.85,-3.25 -1,-3.8 z"
           inkscape:connector-curvature="0"
           style="fill:#858585" />
        <path
           id="path4"
           d="M 4.6,7.55 C 4.45,7.45 4.3,7.35 4.15,7.3 3.9,7.2 3.55,7.1 3.15,7.05 3.1,7 3,7 2.95,7.05 2.7,7.05 2.35,7 2,7 1.65,7.05 1.3,7.1 0.95,7.15 0.1,7.15 -0.65,7.3 -1.15,7.5 -1.8,7.7 -2,7.75 -2.05,7.45 -2.1,7.25 -2.65,7.25 -2.75,6.9 -2.95,6.55 -2.9,4.95 -2.95,3.8 -3,3.2 -2.85,2.3 -2.75,1.55 -2.8,1.8 -2.85,1.95 -2.9,2.1 -3.15,2.75 -3.25,3.3 -3.3,3.7 L -3.3,3.675 -3,0.3 -3.4,2.25 -3,0.3 c 0,0 -0.75,3.45 -0.6,5.5 0.25,1.95 0.5,2.95 0.8,3 0.15,0.1 0.7,-0.1 1.65,-0.55 C -1,8.15 -0.85,8.1 -0.7,8 L 0.3,7.55 -0.3,7.9 C 0.25,7.65 0.85,7.55 1.6,7.5 1.95,7.4 2.35,7.4 2.7,7.4 c 0.25,0 0.4,0 0.5,0 0.1,0.05 0.1,0.05 0.1,0.05 0.15,0 0.3,0 0.4,0 L 3.2,7.5 3.25,7.9 C 3.2,8.2 3.15,8.4 2.95,8.5 L 2.8,7.95 2.75,7.95 2.9,8.7 1.95,8.85 1.9,8 1.8,8.05 C 1.8,8.2 1.8,8.4 1.65,8.4 1.55,8.45 1.5,8.3 1.4,8.1 l -0.05,0 0.25,0.85 -1,0.1 0,0.05 -0.15,0 -0.25,0.05 c -0.5,0.1 -0.85,0.05 -0.6,-0.5 0.1,-0.2 0.35,-0.3 0.6,-0.4 L 0.1,8.1 0.15,8.05 0.1,7.9 c -0.4,0.1 -0.75,0.25 -1.15,0.45 0.1,0.55 0.1,1.05 -0.1,1.45 -0.3,0 -0.5,-0.5 -0.55,-0.85 L -1.85,9.1 c -0.75,1.3 1.4,0.8 2,0.6 0.4,-0.15 1,-0.4 1.7,-0.6 l 0.1,-0.05 1.3,-0.2 C 3.75,8.8 4.2,8.8 4.55,9.05 L 4.6,9.05 4.85,9.3 4.95,9.35 4.85,9 4.65,8.85 4.8,8.6 l 0,-0.1 -0.05,0 0,-0.05 -0.05,0 L 4.75,8 C 4.7,7.85 4.65,7.7 4.6,7.55 z m -1.15,0.3 0.7,-0.1 0.2,1 C 4.05,8.65 3.7,8.65 3.35,8.7 3.45,8.45 3.45,8.15 3.45,7.85 z M 2.75,7.95 2.7,7.6 1.85,7.65 1.9,8 2.75,7.95 z m -2.4,0 0.1,0.3 c 0.05,0.2 0,0.35 -0.05,0.55 0,0 0,0 -0.1,-0.15 -0.05,0 -0.1,-0.1 -0.1,-0.2 0,0.1 0,0.2 0.05,0.35 0.05,0.15 0.1,0.25 0.2,0.3 L 0.6,9.05 C 0.65,8.75 0.6,8.5 0.55,8.2 L 1.35,8.1 1.35,7.9 1.4,7.85 1.35,7.7 0.4,7.85 0.35,7.95 z m -2.75,-8.45 0,-0.05 c -0.15,0.1 -0.3,0.15 -0.45,0.3 -0.2,0.2 -0.4,0.7 -0.65,1.75 C -3.35,1 -3.2,0.65 -3,0.3 -3,0 -2.75,-0.25 -2.4,-0.5 z m -0.65,10.45 0.45,0.2 0.1,0.05 0,-0.4 c -0.2,0.1 -0.4,0.1 -0.55,0.15 z"
           inkscape:connector-curvature="0"
           style="fill:#4f4f4f" />
        <path
           id="path5"
           d="m 3.45,7.85 c 0,0.3 0,0.6 -0.1,0.85 0.35,-0.05 0.7,-0.05 1,0.05 l -0.2,-1 -0.7,0.1 z M 2.9,8.7 2.75,7.95 1.9,8 1.95,8.85 2.9,8.7 z M 0.25,8.4 C 0.2,8.35 0.2,8.3 0.2,8.25 c -0.25,0.1 -0.5,0.2 -0.6,0.4 -0.25,0.55 0.1,0.6 0.6,0.5 L 0.45,9.1 C 0.35,9.05 0.3,8.95 0.25,8.8 0.2,8.65 0.2,8.55 0.2,8.45 L 0.25,8.4 z M 0.55,8.2 C 0.6,8.5 0.65,8.75 0.6,9.05 L 1.6,8.95 1.35,8.1 0.55,8.2 z"
           inkscape:connector-curvature="0"
           style="fill:#858585" />
        <path
           id="path8"
           d="M 4.15,7.3 C 4.3,7.35 4.45,7.45 4.6,7.55 4.65,7.7 4.7,7.85 4.75,8 L 4.7,8.45 4.75,8.45 5.2,8.05 C 5.3,7.8 5.1,7.6 4.5,7.3 4.4,7.2 4.3,7.2 4.2,7.15 3.95,7.05 3.65,6.95 3.3,6.85 2.8,6.75 2.2,6.75 1.6,6.8 L 1.05,6.8 0.85,6.75 -0.85,7 c -0.1,0.05 -0.1,0 -0.05,-0.15 0,-0.05 0.05,-0.15 0.15,-0.2 L -0.35,6.3 -0.9,6.25 c -0.05,0 -0.1,0 -0.15,0.05 C -1.2,6.25 -1.35,6.15 -1.45,6.15 -1.5,6.1 -1.6,5.9 -1.85,5.6 -2.2,4.95 -2.1,2.35 -2,0.85 -1.95,0.05 -1.6,-0.4 -1.15,-0.8 l -0.1,0.1 0.1,-0.1 c 0.15,-0.15 0.55,-0.3 0.8,-0.4 l -0.8,0.3 0.8,-0.3 c -0.3,0.05 -1.6,0.5 -1.95,1.2 -0.1,0.3 -0.3,0.85 -0.4,1.25 0,0.1 0,0.2 -0.05,0.25 l 0,0.025 0,0.025 C -2.85,2.3 -3,3.2 -2.95,3.8 c 0.05,1.15 0,2.75 0.2,3.1 0.1,0.35 0.65,0.35 0.7,0.55 C -2,7.75 -1.8,7.7 -1.15,7.5 -0.65,7.3 0.1,7.15 0.95,7.15 1.3,7.1 1.65,7.05 2,7 2.35,7 2.7,7.05 2.95,7.05 3,7 3.1,7 3.15,7.05 3.55,7.1 3.9,7.2 4.15,7.3 z M -2.4,-0.5 c 0.2,-0.15 0.45,-0.35 0.75,-0.45 -0.15,0.05 -0.4,0.15 -0.75,0.4 l 0,0.05 z"
           inkscape:connector-curvature="0"
           style="fill:#666666" />
        <path
           id="path9"
           d="m 3.7,7.45 c -0.1,0 -0.25,0 -0.4,0 0,0 0,0 -0.1,-0.05 -0.1,0 -0.25,0 -0.5,0 -0.35,0 -0.75,0 -1.1,0.1 C 0.85,7.55 0.25,7.65 -0.3,7.9 L 0.3,7.55 -0.7,8 C -0.85,8.1 -1,8.15 -1.15,8.25 -2.1,8.7 -2.65,8.9 -2.8,8.8 -3.1,8.75 -3.35,7.75 -3.6,5.8 -3.75,3.75 -3,0.3 -3,0.3 L -3.4,2.25 -3,0.3 C -3.2,0.65 -3.35,1 -3.5,1.5 -3.85,2.5 -4,3.75 -4,5.2 -4,5.35 -4,5.5 -3.95,5.6 -3.95,5.7 -4,5.8 -4,5.9 l 0.35,3.85 0.6,0.2 C -2.9,9.9 -2.7,9.9 -2.5,9.8 l 0,0.4 -0.1,-0.05 c -0.05,0.25 -0.05,0.5 0,0.75 q 0.05,0.45 0.4,0.65 c 0,0 0.4,-1.15 2.4,-1.75 C 0.45,9.75 0.7,9.7 1,9.6 L 1.1,9.55 2.35,9.3 c 0.4,-0.05 0.85,-0.1 1.3,-0.1 0.5,0 0.9,0.05 1.2,0.1 L 4.6,9.05 4.55,9.05 C 4.2,8.8 3.75,8.8 3.25,8.85 l -1.3,0.2 -0.1,0.05 c -0.7,0.2 -1.3,0.45 -1.7,0.6 -0.6,0.2 -2.75,0.7 -2,-0.6 L -1.7,8.95 c 0.05,0.35 0.25,0.85 0.55,0.85 0.2,-0.4 0.2,-0.9 0.1,-1.45 C -0.65,8.15 -0.3,8 0.1,7.9 L 0.15,8.05 0.1,8.1 0.2,8.25 c 0,0.05 0,0.1 0.05,0.15 L 0.2,8.45 c 0,0.1 0.05,0.2 0.1,0.2 C 0.4,8.8 0.4,8.8 0.4,8.8 0.45,8.6 0.5,8.45 0.45,8.25 L 0.35,7.95 0.4,7.85 1.35,7.7 1.4,7.85 1.35,7.9 l 0,0.2 0.05,0 C 1.5,8.3 1.55,8.45 1.65,8.4 1.8,8.4 1.8,8.2 1.8,8.05 L 1.9,8 1.85,7.65 1.8,7.7 1.8,7.65 1.85,7.65 2.7,7.6 2.75,7.95 2.8,7.95 2.95,8.5 C 3.15,8.4 3.2,8.2 3.25,7.9 L 3.2,7.5 3.7,7.45 z M 4.65,8.85 4.85,9 4.95,9.35 C 4.9,9.1 4.8,8.85 4.8,8.6 L 4.65,8.85 z m -6.3,-9.8 c -0.3,0.1 -0.55,0.3 -0.75,0.45 C -2.75,-0.25 -3,0 -3,0.3 l -0.3,3.375 0,0.025 c 0.05,-0.4 0.15,-0.95 0.4,-1.6 0.05,-0.15 0.1,-0.3 0.15,-0.55 l 0,-0.025 0,-0.025 C -2.7,1.45 -2.7,1.35 -2.7,1.25 -2.6,0.85 -2.4,0.3 -2.3,0 c 0.35,-0.7 1.65,-1.15 1.95,-1.2 l -0.8,0.3 0.8,-0.3 0.1,-0.1 -0.05,0 c 0.05,0 -0.55,-0.05 -1.35,0.35 z"
           inkscape:connector-curvature="0"
           style="fill:#3b3b3b" />
        <path
           id="path16"
           d="m 1.85,7.65 -0.05,0 0,0.05 0.05,-0.05"
           inkscape:connector-curvature="0"
           style="fill:#4f4f4f" />
        <path
           id="path21"
           d="M 0.45,9.1 0.6,9.1 0.6,9.05 0.45,9.1"
           inkscape:connector-curvature="0"
           style="fill:#3b3b3b" />
      </g>
    </g>
  </g>
</svg>
