<?xml version="1.0" encoding="UTF-8" standalone="no"?>
<!-- Generator: flash2svg, http://dissentgraphics.com/tools/flash2svg -->

<svg
   xmlns:dc="http://purl.org/dc/elements/1.1/"
   xmlns:cc="http://creativecommons.org/ns#"
   xmlns:rdf="http://www.w3.org/1999/02/22-rdf-syntax-ns#"
   xmlns:svg="http://www.w3.org/2000/svg"
   xmlns="http://www.w3.org/2000/svg"
   xmlns:sodipodi="http://sodipodi.sourceforge.net/DTD/sodipodi-0.dtd"
   xmlns:inkscape="http://www.inkscape.org/namespaces/inkscape"
   id="AvatarAssets"
   image-rendering="auto"
   version="1.1"
   x="0px"
   y="0px"
   width="8.4824085"
   height="18.382336"
   viewBox="0 0 8.4824085 18.382336"
   inkscape:version="0.48.4 r9939"
   sodipodi:docname="AvatarAssets_coatSleeveUpperOffsideC006.svg">
  <metadata
     id="metadata22">
    <rdf:RDF>
      <cc:Work
         rdf:about="">
        <dc:format>image/svg+xml</dc:format>
        <dc:type
           rdf:resource="http://purl.org/dc/dcmitype/StillImage" />
      </cc:Work>
    </rdf:RDF>
  </metadata>
  <sodipodi:namedview
     pagecolor="#ffffff"
     bordercolor="#666666"
     borderopacity="1"
     objecttolerance="10"
     gridtolerance="10"
     guidetolerance="10"
     inkscape:pageopacity="0"
     inkscape:pageshadow="2"
     inkscape:window-width="640"
     inkscape:window-height="480"
     id="namedview20"
     showgrid="false"
     fit-margin-top="0"
     fit-margin-left="0"
     fit-margin-right="0"
     fit-margin-bottom="0"
     inkscape:zoom="1.9032258"
     inkscape:cx="35.65906"
     inkscape:cy="-45.017684"
     inkscape:window-x="0"
     inkscape:window-y="0"
     inkscape:window-maximized="0"
     inkscape:current-layer="AvatarAssets" />
  <defs
     id="defs3" />
  <g
     id="coatSleeveUpperOffsideC7"
     overflow="visible"
     style="overflow:visible"
     transform="translate(3.6590601,1.4000204)">
    <g
       id="coatSleeveUpperOffsideC006_0">
      <g
         id="element">
        <g
           id="drawingObject">
          <path
             id="path"
             d="m 4.101,6.851 c -0.5,-3.75 -2.5,-8.15 -5.2,-7.7 q -1.45,0.25 -1.65,6.05 c -0.05,3 -0.15,8.45 1,9.45 1.2,0.95 3.6,2 5,0.95 1.4,-1.05 1.4,-5.15 0.85,-8.75 z"
             inkscape:connector-curvature="0"
             style="fill:#ff0000" />
        </g>
        <g
           id="drawingObject1">
          <path
             id="path1"
             d="m -1.749,11.001 c -0.6,-3.4 -0.75,-8.2 -0.5,-10.2 q -0.4,1.65 -0.5,4.4 c -0.05,3 -0.15,8.45 1,9.45 l 1.2,0.75 c -0.5,-1.2 -0.9,-2.6 -1.2,-4.4 z"
             inkscape:connector-curvature="0"
             style="fill:#000000" />
        </g>
        <g
           id="drawingObject2">
          <path
             id="path2"
             d="m 3.151,8.751 c 0.35,-3.55 -3.4,-10.7 -3.1,-7.15 q 0.05,0.35 0.25,3.9 0.25,3.5 0.7,4.1 c 0.65,0.95 1.8,2.65 2.15,-0.85 z"
             inkscape:connector-curvature="0"
             style="fill:#ffffff" />
        </g>
        <g
           id="drawingObject3">
          <path
             id="path3"
             d="m 4.401,6.451 c -0.5,-3.25 -2.3,-6.55 -3.4,-7.3 -1.05,-0.75 -2.55,-1 -3.45,1 q -0.9,2.05 -1.2,8.6 c -0.1,2.3 0.65,5.3 2,6.95 1.35,1.65 4.55,1.8 5.65,-0.1 1.1,-1.85 0.95,-5.9 0.4,-9.15 z"
             inkscape:connector-curvature="0"
             style="fill:#650e14" />
        </g>
        <g
           id="drawingObject4">
          <path
             id="path4"
             d="m -2.049,-0.549 -0.4,0.7 c -0.95,2.15 -1.1,6.3 -1.2,8.6 -0.1,2.15 0.55,4.95 1.75,6.65 l 0.25,-0.6 c 0.25,-0.45 -0.15,-2.1 -0.15,-2.1 l 0.15,0.9 -0.15,-0.9 c 0,0 -0.5,-0.4 -0.7,-0.95 -0.2,-0.5 -0.5,-1.3 -0.35,-2.3 0.15,-1 0.55,-1.45 0.55,-1.45 l -0.2,0.35 0.2,-0.35 c 0,0 -0.2,-0.1 -0.5,-1.95 -0.25,-1.65 0.3,-5.25 0.75,-6.6 z"
             inkscape:connector-curvature="0"
             style="fill:#510b0f" />
        </g>
        <g
           id="drawingObject5">
          <path
             id="path5"
             d="m 1.901,0.551 c -0.7,-0.75 -1.35,-1.85 -2.1,-1.35 q -0.7,0.5 -1.15,1.9 -0.45,1.3 -0.35,2.4 c 0.1,1.35 0.2,2.2 0.5,2.35 0.25,0.15 1.2,0.35 1.05,0.5 l -1,1.15 1.1,-0.15 -1.1,0.15 c 0,0 1.9,-0.35 3.15,-0.1 1.25,0.3 1.95,0.4 1.85,0.15 -0.05,-0.2 -0.75,-0.85 -0.75,-1 -0.05,-0.1 1.05,-0.2 0.7,-1.7 -0.35,-1.5 -1.15,-3.6 -1.9,-4.3 z"
             inkscape:connector-curvature="0"
             style="fill:#85121a" />
        </g>
      </g>
    </g>
  </g>
</svg>
