<?xml version="1.0" encoding="UTF-8" standalone="no"?>
<!-- Generator: flash2svg, http://dissentgraphics.com/tools/flash2svg -->

<svg
   xmlns:dc="http://purl.org/dc/elements/1.1/"
   xmlns:cc="http://creativecommons.org/ns#"
   xmlns:rdf="http://www.w3.org/1999/02/22-rdf-syntax-ns#"
   xmlns:svg="http://www.w3.org/2000/svg"
   xmlns="http://www.w3.org/2000/svg"
   xmlns:sodipodi="http://sodipodi.sourceforge.net/DTD/sodipodi-0.dtd"
   xmlns:inkscape="http://www.inkscape.org/namespaces/inkscape"
   id="AvatarAssets"
   image-rendering="auto"
   version="1.1"
   x="0px"
   y="0px"
   width="8.2222223"
   height="10.297093"
   viewBox="0 0 8.2222223 10.297093"
   inkscape:version="0.48.4 r9939"
   sodipodi:docname="AvatarAssets_sleeveUpperOffside20101130.svg">
  <metadata
     id="metadata3089">
    <rdf:RDF>
      <cc:Work
         rdf:about="">
        <dc:format>image/svg+xml</dc:format>
        <dc:type
           rdf:resource="http://purl.org/dc/dcmitype/StillImage" />
      </cc:Work>
    </rdf:RDF>
  </metadata>
  <sodipodi:namedview
     pagecolor="#ffffff"
     bordercolor="#666666"
     borderopacity="1"
     objecttolerance="10"
     gridtolerance="10"
     guidetolerance="10"
     inkscape:pageopacity="0"
     inkscape:pageshadow="2"
     inkscape:window-width="640"
     inkscape:window-height="480"
     id="namedview3087"
     showgrid="false"
     fit-margin-top="0"
     fit-margin-left="0"
     fit-margin-right="0"
     fit-margin-bottom="0"
     inkscape:zoom="1.9032258"
     inkscape:cx="35.75"
     inkscape:cy="-53.092893"
     inkscape:window-x="0"
     inkscape:window-y="0"
     inkscape:window-maximized="0"
     inkscape:current-layer="AvatarAssets" />
  <defs
     id="defs3062">
    <radialGradient
       gradientUnits="userSpaceOnUse"
       color-interpolation="sRGB"
       r="2.8084941"
       cx="0.5"
       cy="3.3"
       fx="0.5"
       fy="3.3"
       gradientTransform="matrix(0.91630554,-0.40087891,-0.40087891,-0.91630554,1.35,6.5)"
       id="radialGradient">
      <stop
         stop-color="#000"
         stop-opacity="0.2"
         offset="0"
         id="stop3065" />
      <stop
         stop-color="#000"
         stop-opacity="0.2"
         offset="0.85882"
         id="stop3067" />
      <stop
         stop-color="#000"
         stop-opacity="0.2"
         offset="1"
         id="stop3069" />
    </radialGradient>
    <radialGradient
       gradientUnits="userSpaceOnUse"
       color-interpolation="sRGB"
       r="2.809"
       cx="2.2"
       cy="13.551"
       fx="2.2"
       fy="13.551"
       gradientTransform="matrix(0.916,-0.401,-0.401,-0.916,4.3,20.25)"
       id="radialGradient1">
      <stop
         stop-color="#000"
         stop-opacity="0.2"
         offset="0"
         id="stop3072" />
      <stop
         stop-color="#000"
         stop-opacity="0.2"
         offset="0.85882"
         id="stop3074" />
      <stop
         stop-color="#000"
         stop-opacity="0.2"
         offset="1"
         id="stop3076" />
    </radialGradient>
  </defs>
  <g
     id="sleeveUpperOffside20101131"
     overflow="visible"
     style="overflow:visible"
     transform="translate(3.75,1.3899865)">
    <g
       id="sleeveUpperOffside20101130_0">
      <g
         id="element"
         overflow="visible"
         style="overflow:visible">
        <g
           id="sleeveUpperOffside20101130Color_3_0">
          <g
             id="element1">
            <path
               id="path"
               d="M 3.05,1.7 C 1.3,-1.2 0.3,-1.75 -1.45,-1.2 c 0,0 0,0 -0.05,0.05 -0.95,0.85 -1.1,3.45 -0.7,4.35 1.05,2.35 1.45,1.95 2.3,2.15 L -0.95,5.1 0.1,5.35 c 1,0.2 1,0.45 1,0.45 0,0 -1.3,-0.45 -1.55,0.25 C -0.7,6.7 1.2,7.75 2.7,6.75 2.75,6.75 3.1,6.55 3.85,6.1 4.1,5.9 4.3,5.7 4.45,5.45 l 0,-0.05 C 4.4,4.75 4.1,3.4 3.05,1.7 z"
               inkscape:connector-curvature="0"
               style="fill:#696969" />
            <path
               id="path1"
               d="m 4.45,6.4 c 0,0 0.05,-0.3 0,-0.95 C 4.3,5.7 4.1,5.9 3.85,6.1 3.1,6.55 2.75,6.75 2.7,6.75 1.2,7.75 -0.7,6.7 -0.45,6.05 -0.2,5.35 1.1,5.8 1.1,5.8 c 0,0 0,-0.25 -1,-0.45 L -0.95,5.1 0.1,5.35 C -0.75,5.15 -1.15,5.55 -2.2,3.2 -2.6,2.3 -2.45,-0.3 -1.5,-1.15 l 0,-0.05 c -0.05,0 -0.1,0 -0.25,0.15 -0.9,0.4 -1.6,1.2 -1.75,2.3 l 0.8,-1.5 c -0.3,1 -0.25,2.2 -0.15,3.3 0.15,1.55 0.25,3.15 0.6,3.5 0.35,0.3 1.25,0.8 1.8,0.9 l 0.6,0.1 -1.8,0.05 c -0.45,0 1.3,0.85 3.75,0.25 l -0.025,0 0.025,0 C 3.75,7.25 4.45,6.4 4.45,6.4 z m -8,-4.45 0,0.7 0.05,-1.4 c -0.05,0.3 -0.05,0.5 -0.05,0.7 z m 0.65,6.1 c 0.3,0.15 0.35,0.15 0.4,0.15 0.15,0.05 0.3,0.05 0.45,0.05 C -2.45,8.2 -2.75,8.1 -3,8 l 0.1,0.05 z m 2.6,0.25 c -0.15,0.05 -0.35,0.05 -0.6,0.05 0.25,0 0.35,0 0.4,0 C -0.35,8.3 -0.3,8.3 -0.3,8.3 z"
               inkscape:connector-curvature="0"
               style="fill:#545454" />
            <path
               id="path2"
               d="m 2.05,7.9 c 0,0 0,0 0.05,-0.05 C -0.35,8.45 -2.1,7.6 -1.65,7.6 l 1.8,-0.05 -0.6,-0.1 C -1,7.35 -1.9,6.85 -2.25,6.55 -2.6,6.2 -2.7,4.6 -2.85,3.05 -2.95,1.95 -3,0.75 -2.7,-0.25 l -0.8,1.5 -0.05,1.4 -0.2,4.6 0.5,0.6 L -3,8 c 0.25,0.1 0.55,0.2 0.95,0.25 l 0.6,0.1 c 0.3,0 0.35,0 0.4,0 0.15,0 0.25,0 0.15,0 0.25,0 0.45,0 0.6,-0.05 l 0.05,0 C 0.7,8.25 1.5,8.05 2.05,7.9 z"
               inkscape:connector-curvature="0"
               style="fill:#2e2e2e" />
            <path
               id="path3"
               d="M 2.1,7.85 C 2.05,7.9 2.05,7.9 2.05,7.9 1.5,8.05 0.7,8.25 -0.25,8.3 l -0.05,0 c 0,0 -0.05,0 -0.2,0.05 -0.05,0 -0.15,0 -0.4,0 0.1,0 0,0 -0.15,0 -0.05,0 -0.1,0 -0.4,0 l -0.6,-0.1 c -0.15,0 -0.3,0 -0.45,-0.05 0.85,0.5 2.05,1 3.75,0.5 Q 3.3,8.15 4.1,7.25 4.5,6.75 4.45,6.4 c 0,0 -0.7,0.85 -2.35,1.45 z"
               inkscape:connector-curvature="0"
               style="fill:url(#radialGradient1)" />
          </g>
        </g>
      </g>
    </g>
  </g>
</svg>
