<?xml version="1.0" encoding="UTF-8" standalone="no"?>
<!-- Generator: flash2svg, http://dissentgraphics.com/tools/flash2svg -->

<svg
   xmlns:dc="http://purl.org/dc/elements/1.1/"
   xmlns:cc="http://creativecommons.org/ns#"
   xmlns:rdf="http://www.w3.org/1999/02/22-rdf-syntax-ns#"
   xmlns:svg="http://www.w3.org/2000/svg"
   xmlns="http://www.w3.org/2000/svg"
   xmlns:sodipodi="http://sodipodi.sourceforge.net/DTD/sodipodi-0.dtd"
   xmlns:inkscape="http://www.inkscape.org/namespaces/inkscape"
   id="AvatarAssets"
   image-rendering="auto"
   version="1.1"
   x="0px"
   y="0px"
   width="8.75"
   height="18.186752"
   viewBox="0 0 8.75 18.186752"
   inkscape:version="0.48.4 r9939"
   sodipodi:docname="AvatarAssets_sleeveUpperOffside20101103Black3.svg">
  <metadata
     id="metadata3016">
    <rdf:RDF>
      <cc:Work
         rdf:about="">
        <dc:format>image/svg+xml</dc:format>
        <dc:type
           rdf:resource="http://purl.org/dc/dcmitype/StillImage" />
      </cc:Work>
    </rdf:RDF>
  </metadata>
  <sodipodi:namedview
     pagecolor="#ffffff"
     bordercolor="#666666"
     borderopacity="1"
     objecttolerance="10"
     gridtolerance="10"
     guidetolerance="10"
     inkscape:pageopacity="0"
     inkscape:pageshadow="2"
     inkscape:window-width="640"
     inkscape:window-height="480"
     id="namedview3014"
     showgrid="false"
     fit-margin-top="0"
     fit-margin-left="0"
     fit-margin-right="0"
     fit-margin-bottom="0"
     inkscape:zoom="1.9032258"
     inkscape:cx="35.55"
     inkscape:cy="-45.113247"
     inkscape:window-x="0"
     inkscape:window-y="0"
     inkscape:window-maximized="0"
     inkscape:current-layer="AvatarAssets" />
  <defs
     id="defs3005" />
  <g
     id="sleeveUpperOffside20101103Black4"
     overflow="visible"
     style="overflow:visible"
     transform="translate(3.55,1.3)">
    <g
       id="sleeveUpperOffside20101103Black3_0">
      <g
         id="element">
        <path
           id="path"
           d="m -1.05,-1.25 c -0.2,0.05 -0.4,0.15 -0.75,0.35 l -0.35,0.3 C -2.4,-0.4 -2.7,-0.05 -2.85,0.45 -3,0.75 -3.1,1.1 -3.1,1.5 -3.15,2.25 -3.2,2.75 -3.25,3.1 -3.3,3.45 -3.35,3.6 -3.4,3.75 c 0.15,0.8 0.5,1.55 0.55,2.4 0,1 -0.35,1.95 -0.2,3 0.2,1.7 1.15,2.75 2.7,3.45 -0.6,0.45 -2.35,-0.8 -2.3,0.55 0,0.4 0.25,0.7 0.15,1 -0.05,0.15 -0.15,0.15 -0.2,0.35 l 0,0.1 c 0.1,0.2 0.25,0.4 0.3,0.5 0.65,0.7 1.45,1.25 2.55,1.55 l 0.8,0.2 c 0.85,0.1 1.65,0 2.35,-0.35 0.25,-0.15 0.5,-0.35 0.75,-0.6 L 4,15.65 C 3.55,15.6 3.2,15.85 2.75,15.85 2.25,15.8 1.8,15.6 1.35,15.35 0.7,15.05 0.6,14.6 0.4,13.9 l 1.95,-0.35 c 0.55,-0.2 1.9,-0.4 2.25,-0.85 -2,0.55 -4.15,0 -5.65,-1.35 C -1.55,10.8 -2.3,9.2 -1.15,8.9 -1.15,8.6 -1.45,8.05 -1.6,7.65 L -1.85,6.35 C -1.95,5.9 -2.15,5.55 -2,5.05 c 0.15,-0.35 0.25,-0.5 0.2,-1 -0.05,-0.6 0.3,-1.15 0.3,-1.75 0,-0.5 -0.35,-0.9 -0.25,-1.45 0.1,-0.8 0.3,-1.5 0.7,-2.1 z"
           inkscape:connector-curvature="0"
           style="fill:#161717" />
        <path
           id="path1"
           d="M -1.05,-1.25 -0.3,-1.3 c 0,0.45 0.25,0.8 0.25,1.25 0,0.45 -0.5,0.8 -0.55,1.25 l 0.15,0.7 c 0.05,0.45 -0.15,0.9 -0.1,1.35 0,0.7 0.3,1.3 0.8,1.75 0.3,0.3 0.6,0.5 0.7,0.85 -1,-0.55 -0.1,1.2 0.1,1.5 C 0.55,7.6 0.5,7.45 0.55,8 0.6,8.35 0.8,8.8 0.95,9.15 1.05,9.5 1.25,10 1.6,10.25 1.85,10.5 2.2,10.5 2.45,10.7 L 1.9,10.9 c 0.1,0.8 1,0.95 1.6,0.8 0.6,-0.15 1.1,-0.35 1.65,-0.5 0,0.3 0,0.6 0.05,0.95 0,-0.6 -0.05,-1.3 -0.1,-2.05 C 4.95,8.25 4.75,6.85 4.45,5.8 3.95,4.15 2.4,-0.1 0.7,-1 0.2,-1.25 -0.3,-1.35 -1.05,-1.25 z m -2.35,5 C -3.35,3.6 -3.3,3.45 -3.25,3.1 -3.4,3.6 -3.5,3.95 -3.5,4.3 c 0,-0.25 0.05,-0.4 0.1,-0.55 z m 0.7,10.85 c 0.1,0.2 0.25,0.4 0.3,0.5 -0.2,-0.2 -0.35,-0.5 -0.45,-0.9 0.05,0.3 0.1,0.35 0.15,0.4 z m 6.75,1.3 c 0.15,-0.15 0.3,-0.35 0.45,-0.55 -0.3,0.5 -0.7,0.9 -1.2,1.15 0.25,-0.15 0.5,-0.35 0.75,-0.6 z"
           inkscape:connector-curvature="0"
           style="fill:#2a2b2b" />
        <path
           id="path2"
           d="m -0.3,-1.3 -0.75,0.05 c -0.4,0.6 -0.6,1.3 -0.7,2.1 -0.1,0.55 0.25,0.95 0.25,1.45 0,0.6 -0.35,1.15 -0.3,1.75 0.05,0.5 -0.05,0.65 -0.2,1 -0.15,0.5 0.05,0.85 0.15,1.3 l 0.25,1.3 c 0.15,0.4 0.45,0.95 0.45,1.25 -1.15,0.3 -0.4,1.9 0.1,2.45 1.5,1.35 3.65,1.9 5.65,1.35 -0.35,0.45 -1.7,0.65 -2.25,0.85 L 0.4,13.9 c 0.2,0.7 0.3,1.15 0.95,1.45 0.45,0.25 0.9,0.45 1.4,0.5 0.45,0 0.8,-0.25 1.25,-0.2 l 0.05,0.25 c 0.15,-0.15 0.3,-0.35 0.45,-0.55 0.15,-0.2 0.25,-0.45 0.35,-0.7 0,-0.05 0,-0.1 0.15,-0.45 L 5.2,12.15 C 5.15,11.8 5.15,11.5 5.15,11.2 4.6,11.35 4.1,11.55 3.5,11.7 2.9,11.85 2,11.7 1.9,10.9 L 2.45,10.7 C 2.2,10.5 1.85,10.5 1.6,10.25 1.25,10 1.05,9.5 0.95,9.15 0.8,8.8 0.6,8.35 0.55,8 0.5,7.45 0.55,7.6 1.05,7.35 0.85,7.05 -0.05,5.3 0.95,5.85 0.85,5.5 0.55,5.3 0.25,5 -0.25,4.55 -0.55,3.95 -0.55,3.25 -0.6,2.8 -0.4,2.35 -0.45,1.9 L -0.6,1.2 c 0.05,-0.45 0.55,-0.8 0.55,-1.25 0,-0.45 -0.25,-0.8 -0.25,-1.25 z"
           inkscape:connector-curvature="0"
           style="fill:#202121" />
        <path
           id="path5"
           d="M -2.85,6.15 C -2.9,5.3 -3.25,4.55 -3.4,3.75 -3.45,3.9 -3.5,4.05 -3.5,4.3 l -0.05,0.8 c 0,0.2 0,0.25 0,0.3 q 0.1,1.95 0.6,8.4 l 0,0.1 c 0,0.05 0.05,0.15 0.1,0.3 0.05,0.3 0.1,0.35 0.15,0.4 l 0,-0.1 c 0.05,-0.2 0.15,-0.2 0.2,-0.35 0.1,-0.3 -0.15,-0.6 -0.15,-1 -0.05,-1.35 1.7,-0.1 2.3,-0.55 -1.55,-0.7 -2.5,-1.75 -2.7,-3.45 -0.15,-1.05 0.2,-2 0.2,-3 z"
           inkscape:connector-curvature="0"
           style="fill:#0f0f0f" />
      </g>
    </g>
  </g>
</svg>
