<?xml version="1.0" encoding="UTF-8" standalone="no"?>
<!-- Generator: flash2svg, http://dissentgraphics.com/tools/flash2svg -->

<svg
   xmlns:dc="http://purl.org/dc/elements/1.1/"
   xmlns:cc="http://creativecommons.org/ns#"
   xmlns:rdf="http://www.w3.org/1999/02/22-rdf-syntax-ns#"
   xmlns:svg="http://www.w3.org/2000/svg"
   xmlns="http://www.w3.org/2000/svg"
   xmlns:sodipodi="http://sodipodi.sourceforge.net/DTD/sodipodi-0.dtd"
   xmlns:inkscape="http://www.inkscape.org/namespaces/inkscape"
   id="AvatarAssets"
   image-rendering="auto"
   version="1.1"
   x="0px"
   y="0px"
   width="8.529623"
   height="10.226038"
   viewBox="0 0 8.529623 10.226038"
   inkscape:version="0.48.4 r9939"
   sodipodi:docname="AvatarAssets_sleeveUpperOffsideA012b.svg">
  <metadata
     id="metadata3026">
    <rdf:RDF>
      <cc:Work
         rdf:about="">
        <dc:format>image/svg+xml</dc:format>
        <dc:type
           rdf:resource="http://purl.org/dc/dcmitype/StillImage" />
      </cc:Work>
    </rdf:RDF>
  </metadata>
  <sodipodi:namedview
     pagecolor="#ffffff"
     bordercolor="#666666"
     borderopacity="1"
     objecttolerance="10"
     gridtolerance="10"
     guidetolerance="10"
     inkscape:pageopacity="0"
     inkscape:pageshadow="2"
     inkscape:window-width="640"
     inkscape:window-height="480"
     id="namedview3024"
     showgrid="false"
     fit-margin-top="0"
     fit-margin-left="0"
     fit-margin-right="0"
     fit-margin-bottom="0"
     inkscape:zoom="1.9032258"
     inkscape:cx="35.922093"
     inkscape:cy="-53.189962"
     inkscape:window-x="0"
     inkscape:window-y="0"
     inkscape:window-maximized="0"
     inkscape:current-layer="AvatarAssets" />
  <defs
     id="defs3011" />
  <g
     id="sleeveUpperOffsideA012b1"
     overflow="visible"
     style="overflow:visible"
     transform="translate(3.9220932,1.416)">
    <g
       id="sleeveUpperOffsideA012b_0">
      <g
         id="element">
        <g
           id="drawingObject">
          <path
             id="path"
             d="M -1.791,8.373 -2.738,7.668 c 0,0 1.228,1.456 3.831,1.08 C 4.396,8.264 4.528,6.812 4.528,6.812 Q 3.783,5.053 3.229,4.438 l -5.967,3.23"
             inkscape:connector-curvature="0"
             style="fill:#000000;fill-opacity:0.29800002" />
        </g>
        <g
           id="drawingObject1">
          <path
             id="path1"
             d="m -0.692,-1.232 c -1.144,0.192 -2.26,1.159 -2.463,2.894 l -0.767,5.199 0.41,0.659 -0.41,-0.659 c 0,0 -0.066,1.327 3.315,1.446 3.396,0.167 4.922,-1.343 4.922,-1.343 0,0 0.519,-1.727 -0.903,-4.848 Q 2.363,-0.125 1.512,-0.859 0.691,-1.497 -0.692,-1.232 z"
             inkscape:connector-curvature="0"
             style="fill:#4a4040" />
        </g>
        <g
           id="drawingObject2">
          <path
             id="path2"
             d="m -0.542,-1.416 c -1.081,0.225 -2.197,1.192 -2.4,2.927 l -0.767,5.199 0.41,0.659 -0.41,-0.659 c 0,0 -0.066,1.327 3.315,1.446 C 3.002,8.323 4.528,6.812 4.528,6.812 Q 4.632,6.467 4.6,5.849 C 4.235,6.536 3.827,6.399 2.69,6.955 1.118,7.8 -0.621,6.553 -0.351,5.895 -0.019,5.271 1.248,5.826 1.248,5.826 c 0,0 -0.011,-0.206 -0.951,-0.546 -0.83,-0.322 -1.25,0.015 -2.041,-2.41 -0.277,-0.908 0.152,-3.444 1.202,-4.286 z"
             inkscape:connector-curvature="0"
             style="fill:#000000;fill-opacity:0.08600003" />
        </g>
        <g
           id="drawingObject3">
          <path
             id="path3"
             d="m -1.812,-0.611 -1.018,1.46 -0.879,5.861 0.41,0.659 -0.41,-0.659 c 0,0 -0.066,1.327 3.315,1.446 C 0.521,8.243 1.316,8.105 1.952,7.964 -0.508,8.295 -2.127,7.273 -1.7,7.3 L 0.082,7.488 -0.498,7.299 C -1.064,7.158 -1.871,6.568 -2.194,6.196 -2.516,5.824 -2.38,4.214 -2.339,2.633 -2.343,1.59 -2.248,0.358 -1.812,-0.611 z"
             inkscape:connector-curvature="0"
             style="fill:#000000;fill-opacity:0.08600003" />
        </g>
      </g>
    </g>
  </g>
</svg>
