<?xml version="1.0" encoding="UTF-8" standalone="no"?>
<!-- Generator: flash2svg, http://dissentgraphics.com/tools/flash2svg -->

<svg
   xmlns:dc="http://purl.org/dc/elements/1.1/"
   xmlns:cc="http://creativecommons.org/ns#"
   xmlns:rdf="http://www.w3.org/1999/02/22-rdf-syntax-ns#"
   xmlns:svg="http://www.w3.org/2000/svg"
   xmlns="http://www.w3.org/2000/svg"
   xmlns:sodipodi="http://sodipodi.sourceforge.net/DTD/sodipodi-0.dtd"
   xmlns:inkscape="http://www.inkscape.org/namespaces/inkscape"
   id="AvatarAssets"
   image-rendering="auto"
   version="1.1"
   x="0px"
   y="0px"
   width="9.1744213"
   height="13.161737"
   viewBox="0 0 9.1744213 13.161737"
   inkscape:version="0.48.4 r9939"
   sodipodi:docname="AvatarAssets_sleeveUpperOffsideA008b.svg">
  <metadata
     id="metadata3266">
    <rdf:RDF>
      <cc:Work
         rdf:about="">
        <dc:format>image/svg+xml</dc:format>
        <dc:type
           rdf:resource="http://purl.org/dc/dcmitype/StillImage" />
      </cc:Work>
    </rdf:RDF>
  </metadata>
  <sodipodi:namedview
     pagecolor="#ffffff"
     bordercolor="#666666"
     borderopacity="1"
     objecttolerance="10"
     gridtolerance="10"
     guidetolerance="10"
     inkscape:pageopacity="0"
     inkscape:pageshadow="2"
     inkscape:window-width="640"
     inkscape:window-height="480"
     id="namedview3264"
     showgrid="false"
     fit-margin-top="0"
     fit-margin-left="0"
     fit-margin-right="0"
     fit-margin-bottom="0"
     inkscape:zoom="1.9032258"
     inkscape:cx="35.649"
     inkscape:cy="-50.185263"
     inkscape:window-x="0"
     inkscape:window-y="0"
     inkscape:window-maximized="0"
     inkscape:current-layer="AvatarAssets" />
  <defs
     id="defs3255" />
  <g
     id="sleeveUpperOffsideA008b1"
     overflow="visible"
     style="overflow:visible"
     transform="translate(3.649,1.347)">
    <g
       id="sleeveUpperOffsideA008b_0">
      <g
         id="element">
        <g
           id="drawingObject">
          <path
             id="path"
             d="m 1.451,-0.699 q -1,-0.9 -2.5,-0.55 c -1.25,0.3 -2.35,1.6 -2.4,3.95 0,2.35 -0.2,7.1 -0.2,7.1 l 0.5,0.95 -0.5,-0.95 c 0,0 0.05,1.8 3.85,2 3.75,0.2 5.3,-1.85 5.3,-1.85 l -1.25,1 1.25,-1 c 0,0 0.35,-2.35 -1.6,-6.55 q -1.4,-3.1 -2.45,-4.1 z"
             inkscape:connector-curvature="0"
             style="fill:#b1000e" />
        </g>
        <g
           id="drawingObject1">
          <path
             id="path1"
             d="m -1.099,-1.249 c -1.2,0.3 -2.3,1.6 -2.35,3.95 0,2.35 -0.2,7.1 -0.2,7.1 l 0.5,0.95 -0.5,-0.95 c 0,0 0.05,1.8 3.85,2 3.75,0.2 5.3,-1.85 5.3,-1.85 l -1.25,1 1.25,-1 q 0.05,-0.45 -0.05,-1.35 c -0.35,0.95 -0.8,0.75 -1.95,1.55 l 1.3,-0.7 -1.3,0.7 c -1.7,1.1 -3.75,-0.55 -3.5,-1.45 0.25,-0.85 1.75,-0.1 1.75,-0.1 0,0 -0.05,-0.3 -1.1,-0.75 -0.95,-0.4 -1.45,0.05 -2.55,-3.25 -0.45,-1.3 -0.3,-4.75 0.8,-5.85 z"
             inkscape:connector-curvature="0"
             style="fill:#000000;fill-opacity:0.2" />
        </g>
      </g>
    </g>
  </g>
</svg>
