<?xml version="1.0" encoding="UTF-8" standalone="no"?>
<!-- Generator: flash2svg, http://dissentgraphics.com/tools/flash2svg -->

<svg
   xmlns:dc="http://purl.org/dc/elements/1.1/"
   xmlns:cc="http://creativecommons.org/ns#"
   xmlns:rdf="http://www.w3.org/1999/02/22-rdf-syntax-ns#"
   xmlns:svg="http://www.w3.org/2000/svg"
   xmlns="http://www.w3.org/2000/svg"
   xmlns:sodipodi="http://sodipodi.sourceforge.net/DTD/sodipodi-0.dtd"
   xmlns:inkscape="http://www.inkscape.org/namespaces/inkscape"
   id="AvatarAssets"
   image-rendering="auto"
   version="1.1"
   x="0px"
   y="0px"
   width="10.4"
   height="13.562152"
   viewBox="0 0 10.4 13.562152"
   inkscape:version="0.48.4 r9939"
   sodipodi:docname="AvatarAssets_sleeveUpperOffsideStaff01.svg">
  <metadata
     id="metadata3403">
    <rdf:RDF>
      <cc:Work
         rdf:about="">
        <dc:format>image/svg+xml</dc:format>
        <dc:type
           rdf:resource="http://purl.org/dc/dcmitype/StillImage" />
      </cc:Work>
    </rdf:RDF>
  </metadata>
  <sodipodi:namedview
     pagecolor="#ffffff"
     bordercolor="#666666"
     borderopacity="1"
     objecttolerance="10"
     gridtolerance="10"
     guidetolerance="10"
     inkscape:pageopacity="0"
     inkscape:pageshadow="2"
     inkscape:window-width="640"
     inkscape:window-height="480"
     id="namedview3401"
     showgrid="false"
     fit-margin-top="0"
     fit-margin-left="0"
     fit-margin-right="0"
     fit-margin-bottom="0"
     inkscape:zoom="1.9032258"
     inkscape:cx="36.35"
     inkscape:cy="-49.793547"
     inkscape:window-x="0"
     inkscape:window-y="0"
     inkscape:window-maximized="0"
     inkscape:current-layer="AvatarAssets" />
  <defs
     id="defs3376">
    <linearGradient
       gradientUnits="userSpaceOnUse"
       color-interpolation="sRGB"
       x1="-3.5114999"
       y1="8.6125002"
       x2="3.3134999"
       y2="6.2874999"
       id="linearGradient">
      <stop
         stop-color="#000"
         stop-opacity="0.2980392156862745"
         offset="0"
         id="stop3379" />
      <stop
         stop-color="#000"
         stop-opacity="0.2980392156862745"
         offset="0.85882"
         id="stop3381" />
      <stop
         stop-color="#000"
         stop-opacity="0.2980392156862745"
         offset="1"
         id="stop3383" />
    </linearGradient>
    <linearGradient
       gradientUnits="userSpaceOnUse"
       color-interpolation="sRGB"
       x1="-3.5120001"
       y1="8.6129999"
       x2="3.3139999"
       y2="6.2880001"
       id="linearGradient1">
      <stop
         stop-color="#000"
         stop-opacity="0.2980392156862745"
         offset="0"
         id="stop3386" />
      <stop
         stop-color="#000"
         stop-opacity="0.2980392156862745"
         offset="0.85882"
         id="stop3388" />
      <stop
         stop-color="#000"
         stop-opacity="0.2980392156862745"
         offset="1"
         id="stop3390" />
    </linearGradient>
  </defs>
  <g
     id="sleeveUpperOffsideStaff2"
     overflow="visible"
     style="overflow:visible"
     transform="translate(4.35,1.3556987)">
    <g
       id="sleeveUpperOffsideStaff01_0">
      <g
         id="element">
        <path
           id="path"
           d="M -2.95,0.225 -3.3,0.9 C -3.35,0.95 -3.35,0.95 -3.35,1 L -3.9,2.8 c -0.15,1.1 -0.15,1.95 -0.15,2.55 l 0.1,-1.6 c 0.1,0.6 0.2,1.2 0.3,1.45 L -3.2,6.15 -3.65,5.9 -3.75,6.75 -3.65,5.9 c 0,0 -0.25,1.45 -0.05,2.3 0.2,0.75 1.45,1.9 2.95,2.25 1.55,0.3 2.85,0.2 2.85,0.2 0,0 -2.8,0.35 -3.95,-0.2 C -2.8,10 -3.7,9.55 -4,9.65 L -3.55,10.2 -4,9.65 c 0.25,0.4 0.7,0.75 1.3,1.05 0.65,0.35 1.5,0.5 2.5,0.5 1.8,0.1 3.8,-0.45 4.75,-0.75 1,-0.45 1.5,-0.6 1.5,-0.6 0,0 -0.3,-0.5 -0.65,-2.2 C 5.35,7.35 5.3,7 5.1,6.4 l 0,-0.05 c 0,0 0,-0.1 -0.05,-0.2 l 0,0.05 C 4.9,6.75 4.65,6.9 4.65,6.9 l 0.3,0.75 C 5.05,8.2 4.1,9.05 2.7,9.4 1.25,9.85 -0.1,9.6 -1.5,8.9 -2.85,8.25 -2.5,6.75 -2.5,6.75 l 0,0.8 0,-0.8 0.9,0.5 c 0.8,0.4 1.65,0.4 1.65,0.4 0,0 -0.2,-0.05 -1.45,-0.75 -1.25,-0.7 -1.55,-2.85 -1.75,-3.75 -0.15,-0.75 0.2,-2.4 0.65,-3.5 -0.2,0.15 -0.35,0.4 -0.45,0.6"
           inkscape:connector-curvature="0"
           style="fill:#1a1a17" />
        <path
           id="path1"
           d="m -3.15,3.15 c 0.2,0.9 0.5,3.05 1.75,3.75 1.25,0.7 1.45,0.75 1.45,0.75 0,0 -0.85,0 -1.65,-0.4 l -0.9,-0.5 0,0.8 0,-0.8 c 0,0 -0.35,1.5 1,2.15 1.4,0.7 2.75,0.95 4.2,0.5 C 4.1,9.05 5.05,8.2 4.95,7.65 L 4.65,6.9 c 0,0 0.25,-0.15 0.4,-0.7 -0.4,-1.25 -1.15,-3.3 -2,-5 -1.1,-2.2 -3.4,-2.75 -4.2,-2.5 -1,0.35 -1.65,1.05 -1.8,1.55 0.1,-0.2 0.25,-0.45 0.45,-0.6 -0.45,1.1 -0.8,2.75 -0.65,3.5 z M 4.3,5.25 C 4.35,5.55 3.9,6.2 2.45,6.7 0.95,7.15 -0.05,6.2 -0.05,6.2 L 1.6,6.1 C 2.65,6 3.4,5.25 3.75,4.9 4.2,4.4 4.25,4.9 4.3,5.25 z M 4.1,7.65 C 3.75,8.05 3.4,8.2 2.25,8.55 1.15,8.8 0,8.2 -0.15,8.15 L 1.6,7.9 C 2.55,7.8 3.2,8.05 3.8,7.4 4.05,7.2 4.45,7.25 4.1,7.65 z"
           inkscape:connector-curvature="0"
           style="fill:#1f1f1d" />
        <path
           id="path2"
           d="M 4.3,5.25 C 4.25,4.9 4.2,4.4 3.75,4.9 3.4,5.25 2.65,6 1.6,6.1 l -1.65,0.1 c 0,0 1,0.95 2.5,0.5 C 3.9,6.2 4.35,5.55 4.3,5.25 z"
           inkscape:connector-curvature="0"
           style="fill:#1a1a17" />
        <path
           id="path5"
           d="M 4.1,7.65 C 4.45,7.25 4.05,7.2 3.8,7.4 3.2,8.05 2.55,7.8 1.6,7.9 L -0.15,8.15 C 0,8.2 1.15,8.8 2.25,8.55 3.4,8.2 3.75,8.05 4.1,7.65 z"
           inkscape:connector-curvature="0"
           style="fill:#1a1a17" />
        <path
           id="path8"
           d="m -3.95,3.75 -0.1,1.6 c 0,1.85 -0.3,3.9 -0.3,3.9 l 0.25,0.4 c 0,0 0,0 0.1,0 0.3,-0.1 1.2,0.35 2.15,0.8 1.15,0.55 3.95,0.2 3.95,0.2 0,0 -1.3,0.1 -2.85,-0.2 C -2.25,10.1 -3.5,8.95 -3.7,8.2 -3.9,7.35 -3.65,5.9 -3.65,5.9 L -3.75,6.75 -3.65,5.9 -3.2,6.15 -3.65,5.2 c -0.1,-0.25 -0.2,-0.85 -0.3,-1.45 z"
           inkscape:connector-curvature="0"
           style="fill:#121211" />
        <path
           id="path9"
           d="m -2.7,10.7 0.05,0.25 q 0.45,0.75 1.05,0.9 c 0.9,0.3 1.9,0.6 3.8,0.05 1.05,-0.35 1.7,-0.55 1.9,-0.65 0.25,-0.15 0.4,-0.45 0.45,-0.8 -0.95,0.3 -2.95,0.85 -4.75,0.75 -1,0 -1.85,-0.15 -2.5,-0.5 z"
           inkscape:connector-curvature="0"
           style="fill:url(#linearGradient1)" />
      </g>
    </g>
  </g>
</svg>
