<?xml version="1.0" encoding="UTF-8" standalone="no"?>
<!-- Generator: flash2svg, http://dissentgraphics.com/tools/flash2svg -->

<svg
   xmlns:dc="http://purl.org/dc/elements/1.1/"
   xmlns:cc="http://creativecommons.org/ns#"
   xmlns:rdf="http://www.w3.org/1999/02/22-rdf-syntax-ns#"
   xmlns:svg="http://www.w3.org/2000/svg"
   xmlns="http://www.w3.org/2000/svg"
   xmlns:sodipodi="http://sodipodi.sourceforge.net/DTD/sodipodi-0.dtd"
   xmlns:inkscape="http://www.inkscape.org/namespaces/inkscape"
   id="AvatarAssets"
   image-rendering="auto"
   version="1.1"
   x="0px"
   y="0px"
   width="8.1537819"
   height="18.437294"
   viewBox="0 0 8.1537819 18.437294"
   inkscape:version="0.48.4 r9939"
   sodipodi:docname="AvatarAssets_hoodieSleeveUpperOffside20101122.svg">
  <metadata
     id="metadata3031">
    <rdf:RDF>
      <cc:Work
         rdf:about="">
        <dc:format>image/svg+xml</dc:format>
        <dc:type
           rdf:resource="http://purl.org/dc/dcmitype/StillImage" />
      </cc:Work>
    </rdf:RDF>
  </metadata>
  <sodipodi:namedview
     pagecolor="#ffffff"
     bordercolor="#666666"
     borderopacity="1"
     objecttolerance="10"
     gridtolerance="10"
     guidetolerance="10"
     inkscape:pageopacity="0"
     inkscape:pageshadow="2"
     inkscape:window-width="640"
     inkscape:window-height="480"
     id="namedview3029"
     showgrid="false"
     fit-margin-top="0"
     fit-margin-left="0"
     fit-margin-right="0"
     fit-margin-bottom="0"
     inkscape:zoom="1.9032258"
     inkscape:cx="35.503782"
     inkscape:cy="-44.97367"
     inkscape:window-x="0"
     inkscape:window-y="0"
     inkscape:window-maximized="0"
     inkscape:current-layer="AvatarAssets" />
  <defs
     id="defs3018" />
  <g
     id="hoodieSleeveUpperOffside20101123"
     overflow="visible"
     style="overflow:visible"
     transform="translate(3.5037819,1.4109647)">
    <g
       id="hoodieSleeveUpperOffside20101122_0">
      <g
         id="element">
        <path
           id="path"
           d="m -1.8,-0.8 c -0.05,0.05 -0.1,0.1 -0.25,0.35 -0.25,0.3 -0.55,0.8 -0.7,1.5 L -2.85,1.55 -3.5,10 c -0.05,1 0.4,3.9 1.1,4.95 0.65,0.95 3.6,2.7 5,1.85 -0.5,-0.15 -2.75,-0.6 -3.3,-1.25 -0.45,-0.5 -0.9,-1.25 -1.2,-1.8 l -0.3,0.1 c 0,0 -0.25,0.15 -0.3,-0.6 -0.1,-0.8 -0.7,-3.8 -0.65,-4.6 0.3,-4.95 0.6,-7.6 0.85,-8.15 l -0.1,1 c -0.05,0.35 -0.05,0.7 -0.05,1.05 0.05,-1 0.2,-1.95 0.3,-2.3 L -1.8,-0.8 z"
           inkscape:connector-curvature="0"
           style="fill:#3b3b3b" />
        <path
           id="path1"
           d="m -1.2,-1.3 0.5,-0.1 C -0.95,-0.8 -1.2,0.2 -1.1,1.1 -0.9,2.55 0.05,6.5 0.05,7.65 0,8.8 0.3,10.8 1.25,11.6 c 0.95,0.8 2.25,0.35 2.25,0.35 0,0 -0.4,0.5 -1.05,0.75 0.2,0.1 0.2,0.1 0.2,0.1 C 3,12.95 3.25,13.1 3.3,13.15 3.6,12.9 3.75,12.8 3.85,12.65 4.3,12.05 4.5,11.2 4.6,10.5 4.55,10.55 4.55,10.35 4.55,10.15 4.2,6.1 3.1,2.05 2,0.5 0.95,-1 -0.15,-1.7 -1.2,-1.3 z m 5.45,15.9 c 0,-0.05 0,-0.1 0.1,-0.3 C 4.1,15 3.9,15.5 3.6,15.85 3.85,15.5 4.1,15.1 4.25,14.6 z"
           inkscape:connector-curvature="0"
           style="fill:#858585" />
        <path
           id="path2"
           d="m -0.7,-1.4 -0.5,0.1 c -0.2,0.1 -0.4,0.25 -0.6,0.5 0.15,-0.2 0.35,-0.3 0.45,-0.4 -0.2,0.35 -0.3,0.8 -0.35,1.25 -0.1,1.4 -0.1,5.9 0.35,8.55 0.45,2.55 3.05,3.75 3.8,4.1 C 3.1,12.45 3.5,11.95 3.5,11.95 3.5,11.95 2.2,12.4 1.25,11.6 0.3,10.8 0,8.8 0.05,7.65 0.05,6.5 -0.9,2.55 -1.1,1.1 -1.2,0.2 -0.95,-0.8 -0.7,-1.4 z m 5.3,11.8 c 0,0 0,0 0,0.1 -0.1,0.7 -0.3,1.55 -0.75,2.15 -0.1,0.15 -0.25,0.25 -0.55,0.5 0.5,0.3 0.75,0.45 1.15,0.65 0,-0.05 0,-0.1 0.1,-0.35 0.05,-0.1 0.05,-0.2 0.05,-0.35 l 0.05,-1.2 c 0,-0.05 0,-0.05 0,-0.1 0,-0.25 0,-0.8 -0.05,-1.4 z"
           inkscape:connector-curvature="0"
           style="fill:#787878" />
        <path
           id="path3"
           d="m -1.35,-1.2 c -0.1,0.1 -0.3,0.2 -0.45,0.4 l -0.35,1.05 c -0.1,0.35 -0.25,1.3 -0.3,2.3 -0.05,0.35 -0.05,0.7 0,1 0.1,1.2 -0.1,5.75 0.4,7.1 0.5,1.4 0.85,1.7 1.2,1.75 0.35,0.1 1.65,0.05 1.65,0.05 l -2.7,1.3 c 0.3,0.55 0.75,1.3 1.2,1.8 0.55,0.65 2.8,1.1 3.3,1.25 0.3,-0.2 0.6,-0.45 0.85,-0.85 L 3.6,15.85 C 3.9,15.5 4.1,15 4.35,14.3 c 0,-0.05 0,-0.1 0.05,-0.25 -0.05,0.05 0,-0.1 0.05,-0.25 C 4.05,13.6 3.8,13.45 3.3,13.15 3.25,13.1 3,12.95 2.65,12.8 c 0,0 0,0 -0.2,-0.1 C 1.7,12.35 -0.9,11.15 -1.35,8.6 -1.8,5.95 -1.8,1.45 -1.7,0.05 c 0.05,-0.45 0.15,-0.9 0.35,-1.25 z"
           inkscape:connector-curvature="0"
           style="fill:#666666" />
        <path
           id="path4"
           d="m -2.45,3.55 c -0.05,-0.3 -0.05,-0.65 0,-1 0,-0.35 0,-0.7 0.05,-1.05 l 0.1,-1 c -0.25,0.55 -0.55,3.2 -0.85,8.15 -0.05,0.8 0.55,3.8 0.65,4.6 0.05,0.75 0.3,0.6 0.3,0.6 l 0.3,-0.1 2.7,-1.3 c 0,0 -1.3,0.05 -1.65,-0.05 -0.35,-0.05 -0.7,-0.35 -1.2,-1.75 -0.5,-1.35 -0.3,-5.9 -0.4,-7.1 z"
           inkscape:connector-curvature="0"
           style="fill:#4f4f4f" />
        <path
           id="path7"
           d="m 4.55,13.45 c -0.1,0.25 -0.1,0.3 -0.1,0.35 -0.05,0.15 -0.1,0.3 -0.05,0.25 0,-0.1 0.05,-0.3 0.15,-0.6"
           inkscape:connector-curvature="0"
           style="fill:#858585" />
      </g>
    </g>
  </g>
</svg>
