<?xml version="1.0" encoding="UTF-8" standalone="no"?>
<!-- Generator: flash2svg, http://dissentgraphics.com/tools/flash2svg -->

<svg
   xmlns:dc="http://purl.org/dc/elements/1.1/"
   xmlns:cc="http://creativecommons.org/ns#"
   xmlns:rdf="http://www.w3.org/1999/02/22-rdf-syntax-ns#"
   xmlns:svg="http://www.w3.org/2000/svg"
   xmlns="http://www.w3.org/2000/svg"
   xmlns:sodipodi="http://sodipodi.sourceforge.net/DTD/sodipodi-0.dtd"
   xmlns:inkscape="http://www.inkscape.org/namespaces/inkscape"
   id="AvatarAssets"
   image-rendering="auto"
   version="1.1"
   x="0px"
   y="0px"
   width="8.2352276"
   height="18.138643"
   viewBox="0 0 8.2352276 18.138643"
   inkscape:version="0.48.4 r9939"
   sodipodi:docname="AvatarAssets_sleeveUpperOffsideA011b.svg">
  <metadata
     id="metadata3239">
    <rdf:RDF>
      <cc:Work
         rdf:about="">
        <dc:format>image/svg+xml</dc:format>
        <dc:type
           rdf:resource="http://purl.org/dc/dcmitype/StillImage" />
      </cc:Work>
    </rdf:RDF>
  </metadata>
  <sodipodi:namedview
     pagecolor="#ffffff"
     bordercolor="#666666"
     borderopacity="1"
     objecttolerance="10"
     gridtolerance="10"
     guidetolerance="10"
     inkscape:pageopacity="0"
     inkscape:pageshadow="2"
     inkscape:window-width="640"
     inkscape:window-height="480"
     id="namedview3237"
     showgrid="false"
     fit-margin-top="0"
     fit-margin-left="0"
     fit-margin-right="0"
     fit-margin-bottom="0"
     inkscape:zoom="1.9032258"
     inkscape:cx="35.154513"
     inkscape:cy="-45.17127"
     inkscape:window-x="0"
     inkscape:window-y="0"
     inkscape:window-maximized="0"
     inkscape:current-layer="AvatarAssets" />
  <defs
     id="defs3224" />
  <g
     id="sleeveUpperOffsideA011b1"
     overflow="visible"
     style="overflow:visible"
     transform="translate(3.1545126,1.3099134)">
    <g
       id="sleeveUpperOffsideA011b_0">
      <g
         id="element">
        <g
           id="drawingObject">
          <path
             id="path"
             d="m 4.651,15.082 c 0.95,-2.022 0.1,-7.533 -0.4,-9.302 -0.5,-1.82 -2.2,-7.381 -5,-7.078 q -0.55,0.101 -1.15,0.859 -0.55,0.759 -0.75,1.719 c -0.25,1.365 -0.55,4.955 -0.5,7.129 0.1,2.123 0.4,6.117 1.5,7.532 1.1,1.365 5.4,1.214 6.3,-0.859 z"
             inkscape:connector-curvature="0"
             style="fill:#76a74c" />
        </g>
        <g
           id="drawingObject1">
          <path
             id="path1"
             d="m 2.151,0.825 c -0.75,-1.162 -1.45,-2.072 -3.1,-0.96 q -0.75,0.455 -1.05,1.87 -0.15,0.961 -0.15,3.034 c -0.05,2.275 0,3.539 0.75,4.6 0.75,1.112 1.3,1.567 1.3,1.567 0,0 -0.8,-0.505 -1.2,-0.556 -0.4,0 -0.8,2.225 -0.65,2.68 0.15,0.455 2.25,0.91 3.6,0.556 1.35,-0.354 2.95,0 3.15,-0.303 0.15,-0.354 -0.1,-0.253 0.15,-1.163 0.25,-0.961 -0.15,-1.669 -0.15,-1.669 l 0.15,0.455 -0.15,-0.455 c 0,0 -0.35,0.607 -0.65,0.708 l -0.3,0.101 c 0,0 1,-1.365 0.85,-2.881 -0.2,-1.466 -1.3,-5.814 -2.55,-7.584 z"
             inkscape:connector-curvature="0"
             style="fill:#8fca5c" />
        </g>
        <g
           id="drawingObject2">
          <path
             id="path2"
             d="m 4.251,6.134 c -0.7,-2.831 -2.35,-7.129 -3.6,-6.37 q -1.3,0.758 -1.3,3.134 c -0.05,1.213 0.25,4.045 0.35,4.853 0.1,0.809 0.65,1.618 1.05,2.073 0.4,0.455 1.4,0.607 2.15,0.202 l 0.75,-0.353 c 0,0 -0.75,1.011 -1.1,1.213 l -0.35,0.152 c 0,0 1.45,-0.102 1.9,-0.86 0.4,-0.758 0.8,-1.264 0.15,-4.044 z"
             inkscape:connector-curvature="0"
             style="fill:#a1e567" />
        </g>
        <g
           id="drawingObject3">
          <path
             id="path3"
             d="m 4.351,12.756 c 0.4,-0.707 0.4,-1.516 -0.5,-1.162 q -0.4,0.202 -0.65,0.303 -0.45,0.202 -1.2,0.253 c -1.25,0.05 -1.95,-0.051 -1.7,0.354 0.25,0.404 1.35,0.657 2.1,0.505 0.75,-0.151 1.55,0.405 1.95,-0.253 z"
             inkscape:connector-curvature="0"
             style="fill:#a1e567" />
        </g>
      </g>
    </g>
  </g>
</svg>
