<?xml version="1.0" encoding="utf-8"?>
<!-- Generator: flash2svg, http://dissentgraphics.com/tools/flash2svg -->
<svg xmlns:xlink="http://www.w3.org/1999/xlink" id="Avatar" image-rendering="auto" baseProfile="basic" version="1.1" x="0px" y="0px" width="68" height="126" xmlns="http://www.w3.org/2000/svg" viewBox="0 0 68 126">
  <defs>
    <radialGradient gradientUnits="userSpaceOnUse" color-interpolation="sRGB" r="8.033279105872312" cx="1.15" cy="6.6" fx="1.1500000000000004" fy="6.6" gradientTransform="matrix(-0.9322052001953125 0.3636322021484375 0.3574676513671875 1.003082275390625 -0.149 -0.399)" id="radialGradient">
      <stop stop-color="#FFF" stop-opacity="0.7058823529411765" offset="0"/>
      <stop stop-color="#FFF" stop-opacity="0.2980392156862745" offset="1"/>
    </radialGradient>
    <radialGradient gradientUnits="userSpaceOnUse" color-interpolation="sRGB" r="8.038" cx="1.052" cy="6.255" fx="1.052" fy="6.255" gradientTransform="matrix(-0.932 0.363 0.357 1.002 0 0)" id="radialGradient1">
      <stop stop-color="#FFF" stop-opacity="0.7058823529411765" offset="0"/>
      <stop stop-color="#FFF" stop-opacity="0.2980392156862745" offset="1"/>
    </radialGradient>
  </defs>
  <g id="sideLegUpperOffside4" overflow="visible">
    <g id="sideLegUpperOffside3_0">
      <g id="element">
        <path id="path" fill="url(#radialGradient1)" d="M0.3,-1.25 L0.25,-1.3 -1.5,-1.2 C-2.3,-1.15 -2.9,-0.9 -3.35,-0.5 L-3.35,-0.525 L-3.4,-0.625 L-3.4,-0.6 C-3.5,-0.6 -3.6,-0.5 -3.65,-0.35 L-3.65,-0.375 L-4,-0.15 -4,-0.1 C-4.75,0.65 -5.15,1.6 -5.1,2.7 -5.1,3 -5.05,3.35 -5,3.7 L-5,3.675 L-5.1,3.775 -5,3.875 L-5,3.9 C-4.95,4.65 -4.9,5.45 -4.9,6.25 -4.85,9.1 -4.55,10.9 -3.95,11.65 -3.45,12.4 -2.85,13.05 -2.1,13.55 L-2.1,13.525 L-1.825,13.775 -1.775,13.675 L-1.75,13.7 C-1.25,14 -0.75,14.15 -0.25,14.2 -0.2,14.2 -0.1,14.2 0.05,14.2 0.8,14 1.35,13.8 1.8,13.55 L1.775,13.55 L2,13.45 C2.55,13 3.05,12.45 3.5,11.8 L3.55,11.8 3.55,11.75 C3.9,11.1 4.2,10.3 4.45,9.35 L4.425,9.35 L4.525,9.3 4.425,9.25 L4.45,9.25 C4.65,8.2 4.75,7.15 4.8,6.15 4.75,5 4.55,3.9 4.2,2.85 3.95,1.7 3.5,0.75 2.95,0.1 L2.925,0.1 L3.025,0.05 2.325,-0.475 2.125,-0.825 1.975,-0.675 L2,-0.65 C1.35,-1.05 0.8,-1.25 0.3,-1.25z M0.625,-0.375 L-1.775,-0.225 L-1.75,-0.2 C-1.7,-0.65 -1.55,-0.9 -1.3,-1.05 L0.15,-1.1 C0.3,-0.95 0.45,-0.7 0.65,-0.35z M0.7,-0.2 C0.85,0.35 0.95,1.25 1,2.4 L1.1,2.5 0.9,2.5 C-0.05,2.55 -1.05,2.45 -2,2.25 L-2.025,2.25 L-2.075,2.05 L-2.05,2.05 C-2.1,1.1 -2.05,0.35 -1.95,-0.15 -1.1,-0.2 -0.25,-0.25 0.55,-0.2 L0.525,-0.2 L0.675,-0.2z M0.55,-1.05 C1.1,-0.95 1.65,-0.7 2.2,-0.3 L2.225,-0.275 L2.175,-0.325 L2.225,-0.275 L0.825,-0.425 0.55,-1.05z M3.775,2.4 L3.95,2.875 4.225,4.2 L4.25,4.2 C4.2,4.35 4,4.45 3.65,4.6 L3.625,4.6 L3.175,2.475 L3.2,2.5 C3.55,2.45 3.75,2.45 3.8,2.4z M3.775,2.15 L3.125,2.35 L3.15,2.35 C3.1,1.55 2.9,0.8 2.6,0.1 3.1,0.65 3.5,1.35 3.8,2.15z M1.35,2.4 L0.925,-0.2 L0.95,-0.2 C1.55,-0.2 2,-0.15 2.35,0 2.55,0.45 2.75,1.2 3,2.35 L2.975,2.35 L1.375,2.5 1.35,2.4z M1.175,2.675 L1.6,4.9 0.425,5 L0.45,5 C-0.2,4.95 -0.95,4.85 -1.8,4.7 L-1.975,2.5 L-1.95,2.5 C-0.9,2.65 0.05,2.75 1,2.7 L0.975,2.675 L1.175,2.675z M1.6,5.1 C1.65,5.65 1.7,6.4 1.75,7.4 L-0.05,7.4 C-0.55,7.35 -1.1,7.3 -1.65,7.15 L-1.675,7.15 L-1.75,4.95 C-0.9,5.05 -0.15,5.1 0.45,5.15 L1.6,5.1z M4.325,4.5 L4.525,6.675 L4.55,6.7 C4.4,6.75 4.15,6.9 3.8,7.05 L3.775,7.05 L3.525,4.8 4.325,4.5z M1.8,4.9 L1.375,2.625 2.975,2.475 3.375,4.7 L3.4,4.7 C2.95,4.75 2.4,4.85 1.8,4.9z M3.4,4.9 C3.5,5.7 3.55,6.45 3.5,7.15 L3.475,7.15 L1.95,7.4 C1.9,6.2 1.85,5.45 1.8,5.1 2.4,5.05 2.95,4.95 3.4,4.9z M4.55,7 C4.5,7.95 4.35,8.65 4.2,9.2 4,9.4 3.75,9.55 3.5,9.6 3.6,9 3.7,8.25 3.75,7.35 4.05,7.3 4.3,7.15 4.55,7z M1.875,10.075 L3.225,9.85 3.175,10.325 L3.2,10.35 C3.1,10.85 2.95,11.35 2.7,11.9 2.35,12.05 2,12.1 1.55,12.15 L1.875,10.075z M0.55,10 C0.05,9.9 -0.65,9.85 -1.6,9.8 L-1.6,9.775 L-1.625,7.4 L-1.6,7.4 C-1.05,7.55 -0.55,7.6 -0.1,7.6 0.65,7.6 1.25,7.6 1.75,7.65 L1.575,9.875 0.55,9.975z M1.6,10.1 C1.55,10.85 1.4,11.5 1.2,12.15 0.7,12.15 0.1,12.15 -0.6,12.2 L-0.6,12.175 L-1.125,12.075 L-1.1,12.1 C-1.3,11.45 -1.45,10.75 -1.5,9.95 -0.85,10.1 -0.15,10.2 0.5,10.2 L0.5,10.175 L1.575,10.075z M3.05,11.75 L3.525,9.8 4.125,9.55 L4.15,9.55 C4,10.3 3.7,11 3.3,11.6 L3.05,11.75z M3.475,7.4 L3.275,9.65 1.825,9.875 1.95,7.65 C2.5,7.6 3,7.5 3.5,7.4z M0.25,13.8 L-0.175,13.925 -0.375,13.925 L-0.35,13.95 C-0.6,13.55 -0.8,13 -0.95,12.35 L-0.975,12.325 L-0.55,12.375 L-0.55,12.4 C0.05,12.45 0.65,12.5 1.2,12.45 0.9,13.2 0.6,13.65 0.25,13.8z M0.8,13.65 C1.05,13.4 1.25,13 1.45,12.4 1.95,12.35 2.3,12.25 2.5,12.2 2.35,12.55 2.1,12.95 1.75,13.3 1.3,13.5 1,13.6 0.8,13.65z M-2.075,-0.275 L-3.45,-0.2 C-3.1,-0.55 -2.5,-0.8 -1.75,-0.95 L-2.075,-0.275z M-2.275,2.2 L-3.95,1.8 C-3.95,1.05 -3.85,0.5 -3.6,0.05 L-2.125,-0.1 L-2.1,-0.1 C-2.25,0.7 -2.3,1.4 -2.25,2 L-2.275,2 L-2.275,2.2z M-4.05,1.7 L-4.7,1.575 L-4.7,1.6 C-4.45,1.05 -4.2,0.55 -3.9,0.2 -4.05,0.65 -4.1,1.15 -4.05,1.7z M-4.15,1.9 L-3.975,4.075 -4.75,3.675 L-4.75,3.7 C-4.9,3 -4.9,2.35 -4.7,1.7 L-4.15,1.9z M-3.975,4.275 L-3.825,6.25 -4.65,5.75 -4.7,3.925 -3.975,4.275z M-3.65,4.4 C-3.2,4.6 -2.65,4.75 -2,4.85 L-1.875,7.1 L-1.85,7.1 C-2.3,6.95 -2.85,6.7 -3.55,6.4 L-3.575,6.4 L-3.625,4.475 -3.675,4.375z M-3.7,4.2 C-3.85,3.45 -3.95,2.7 -3.9,2 L-2.275,2.45 -2,4.625 L-2,4.65 C-2.35,4.55 -2.95,4.4 -3.7,4.2z M-3.525,6.7 L-1.875,7.25 -1.875,9.675 L-1.85,9.7 C-2.6,9.5 -3.1,9.35 -3.35,9.2 L-3.35,9.175 L-3.525,6.7z M-3.6,9.275 L-3.4,10.9 -3.25,11.525 -4.075,10.95 -4.125,11 L-4.1,11 C-4.3,10.5 -4.4,9.8 -4.45,8.85 L-4.475,8.825 L-3.6,9.275z M-3.675,9.025 L-4.65,8.575 -4.65,6.05 -3.725,6.55 -3.675,9.025z M-3.35,9.45 C-2.55,9.7 -2.05,9.8 -1.85,9.85 -1.8,10.6 -1.65,11.3 -1.3,12.05 -1.8,12 -2.35,11.85 -2.95,11.65 L-2.975,11.625 L-3.35,9.425z M-3.15,11.775 L-2.525,12.85 L-2.5,12.85 C-2.95,12.55 -3.4,12.1 -3.8,11.55 L-3.8,11.525 L-3.85,11.375 -3.15,11.775z M-1.275,12.325 L-0.6,13.925 L-0.6,13.95 C-1,13.8 -1.45,13.6 -1.9,13.35 -2.25,13 -2.55,12.5 -2.8,11.9 L-2.825,11.875 L-1.275,12.325z"/>
      </g>
    </g>
  </g>
</svg>