<?xml version="1.0" encoding="UTF-8" standalone="no"?>
<!-- Generator: flash2svg, http://dissentgraphics.com/tools/flash2svg -->

<svg
   xmlns:dc="http://purl.org/dc/elements/1.1/"
   xmlns:cc="http://creativecommons.org/ns#"
   xmlns:rdf="http://www.w3.org/1999/02/22-rdf-syntax-ns#"
   xmlns:svg="http://www.w3.org/2000/svg"
   xmlns="http://www.w3.org/2000/svg"
   xmlns:sodipodi="http://sodipodi.sourceforge.net/DTD/sodipodi-0.dtd"
   xmlns:inkscape="http://www.inkscape.org/namespaces/inkscape"
   id="Avatar"
   image-rendering="auto"
   version="1.1"
   x="0px"
   y="0px"
   width="9.096385"
   height="11.25"
   viewBox="0 0 9.096385 11.25"
   inkscape:version="0.48.4 r9939"
   sodipodi:docname="Avatar_backHandRight3.svg">
  <metadata
     id="metadata3143">
    <rdf:RDF>
      <cc:Work
         rdf:about="">
        <dc:format>image/svg+xml</dc:format>
        <dc:type
           rdf:resource="http://purl.org/dc/dcmitype/StillImage" />
      </cc:Work>
    </rdf:RDF>
  </metadata>
  <sodipodi:namedview
     pagecolor="#ffffff"
     bordercolor="#666666"
     borderopacity="1"
     objecttolerance="10"
     gridtolerance="10"
     guidetolerance="10"
     inkscape:pageopacity="0"
     inkscape:pageshadow="2"
     inkscape:window-width="640"
     inkscape:window-height="480"
     id="namedview3141"
     showgrid="false"
     fit-margin-top="0"
     fit-margin-left="0"
     fit-margin-right="0"
     fit-margin-bottom="0"
     inkscape:zoom="1.8730159"
     inkscape:cx="37.86951"
     inkscape:cy="-43.828938"
     inkscape:window-x="11"
     inkscape:window-y="27"
     inkscape:window-maximized="0"
     inkscape:current-layer="Avatar" />
  <defs
     id="defs3125">
    <radialGradient
       gradientUnits="userSpaceOnUse"
       color-interpolation="sRGB"
       r="8.9548759"
       cx="-0.29899999"
       cy="-5.4990001"
       fx="-0.29899999"
       fy="-5.4990001"
       gradientTransform="matrix(-0.75794983,0.65422058,-0.63900757,-0.74549866,-3.949,-9.349)"
       id="radialGradient">
      <stop
         stop-color="#FFF"
         stop-opacity="1"
         offset="0"
         id="stop3128" />
      <stop
         stop-color="#FFF"
         stop-opacity="0.40784313725490196"
         offset="1"
         id="stop3130" />
    </radialGradient>
    <radialGradient
       gradientUnits="userSpaceOnUse"
       color-interpolation="sRGB"
       r="8.9659996"
       cx="-4.198"
       cy="-14.805"
       fx="-4.198"
       fy="-14.805"
       gradientTransform="matrix(-0.757,0.653,-0.638,-0.745,-12.649,-13.649)"
       id="radialGradient1">
      <stop
         stop-color="#FFF"
         stop-opacity="1"
         offset="0"
         id="stop3133" />
      <stop
         stop-color="#FFF"
         stop-opacity="0.40784313725490196"
         offset="1"
         id="stop3135" />
    </radialGradient>
  </defs>
  <g
     id="backHandRight4"
     overflow="visible"
     style="overflow:visible"
     transform="translate(3.8695097,8.05)">
    <g
       id="backHandRight3_0">
      <g
         id="element">
        <path
           id="path"
           d="m 2.75,-6.95 c -0.1,0 -0.3,0.05 -0.45,0.15 -0.25,0.15 -0.5,0.55 -0.65,1 C 1.7,-7.15 0.7,-8.05 0.25,-8.05 l -0.2,0 c -0.5,0.15 -0.8,1 -0.85,1.55 0,0.45 0,0.95 -0.45,1.5 l -0.3,0.4 -0.3,-0.35 c -0.35,-0.5 -0.85,-0.9 -1.25,-0.9 -0.35,0 -0.6,0.25 -0.75,0.9 -0.15,0.55 0.6,1.25 1.05,1.8 -0.3,0.25 -0.35,1.75 -0.35,1.95 -0.1,0.35 -0.05,0.7 -0.05,1.05 -0.05,0.05 -0.05,0.15 0.05,0.2 0.1,0.9 0.5,1.7 1.1,2.3 -0.05,0.1 0.05,0.2 0.15,0.2 l 0.05,0 C -1.3,2.95 -0.65,3.2 0,3.2 0.4,3.2 0.85,3.1 1.3,2.95 L 2.15,2.3 C 2.25,2.35 2.35,2.25 2.3,2.15 2.8,1.7 3.35,1.1 3.8,0.5 3.9,0.55 4.05,0.45 4,0.35 L 3.95,0.3 4.25,-0.3 C 4.85,-1.1 5.35,-2.35 5.2,-3.65 5.2,-4.6 4.8,-4.95 4.35,-4.95 4.2,-4.95 4,-4.9 3.9,-4.7 L 3.75,-4.45 C 3.8,-4.75 3.8,-5.1 3.75,-5.5 3.7,-6.2 3.5,-6.65 3.1,-6.8 3,-6.9 2.9,-6.95 2.75,-6.95 z m 0.2,0.35 c 0.05,0.95 0.1,1.95 0,2.95 C 2.65,-4.2 2.15,-4.7 1.55,-4.6 L 1.5,-4.65 1.9,-5.75 c 0.15,-0.3 0.25,-0.7 0.55,-0.85 l 0.3,-0.1 0.2,0.1 z m -1.6,0.8 0,1.05 L 0.8,-5.1 c -0.05,-1.05 -0.2,-2 -0.45,-2.65 0.4,0.15 1.05,0.85 1,1.95 z m 3.1,1.15 -0.1,1.45 C 4,-3.35 3.6,-3.35 3.2,-3.25 L 3.15,-3.2 3.1,-3.3 c 0.2,-1 0.2,-2.05 0.05,-3.05 0.2,0.2 0.3,0.55 0.35,0.9 l -0.05,0.95 -0.2,0.95 0.9,-1 C 4.2,-4.65 4.3,-4.7 4.35,-4.7 l 0.1,0.05 z m 0.5,1 c 0.05,0.3 0.05,0.6 0,0.9 l -0.3,-0.35 0.1,-1.4 c 0.1,0.15 0.2,0.45 0.2,0.85 z m -3.4,-0.7 c 0.65,-0.1 1.05,0.6 1.35,1.2 -0.05,0.4 -0.15,0.85 -0.3,1.3 -0.5,-0.55 -1.15,-1 -1.85,-1.3 0.05,-0.55 0.1,-1.1 0.05,-1.65 l 0.45,0.3 c -0.05,0.05 0,0.15 0.1,0.15 l 0,0.1 0.05,-0.1 0.15,0 z M 0.5,-3.2 C -0.25,-3.5 -1,-3.5 -1.85,-3.25 -1.95,-3.6 -2.15,-4 -2.3,-4.3 c 0.1,-0.15 0.15,-0.35 0.15,-0.6 l 0.1,0.1 c 0.1,0.2 0.2,0.3 0.35,0.4 l 0.2,0.15 0.35,-0.4 0.15,0 c 0.5,-0.45 1.05,-0.45 1.55,-0.3 0.05,0.55 0,1.15 -0.05,1.75 z m 0.25,0.35 c 0.65,0.25 1.3,0.7 1.8,1.3 L 2.5,-1.5 C 2.2,-0.7 1.85,-0.05 1.35,0.45 1,0.15 0.55,-0.1 0.1,-0.25 0.4,-1 0.65,-1.9 0.75,-2.85 z m 4.1,0.7 c -0.1,0.4 -0.3,0.8 -0.5,1.15 0.2,-0.55 0.25,-1.15 0.3,-1.75 0.1,0.15 0.2,0.35 0.2,0.6 z M 3.3,-3 c 0.35,-0.1 0.75,-0.1 1.05,0.1 0,0.95 -0.15,1.95 -0.55,2.8 -0.3,-0.55 -0.6,-1.1 -1,-1.55 L 3.05,-2.9 3.25,-3 3.3,-3 z m -0.65,1.65 c 0.4,0.45 0.75,1 1,1.55 C 3.5,0.45 3.35,0.7 3.2,0.85 L 2.2,1.9 C 2.05,1.45 1.85,1.05 1.6,0.75 1.95,0.4 2.2,0 2.4,-0.45 l 0.25,-0.9 z M 0.55,-5.2 c -0.45,-0.2 -0.95,-0.15 -1.4,0.1 0.3,-0.5 0.35,-1 0.35,-1.4 0.05,-0.3 0.15,-0.85 0.45,-1.1 l 0.1,-0.1 c 0.3,0.55 0.4,1.45 0.5,2.5 z M 0,2.95 c -0.55,0 -1.1,-0.2 -1.55,-0.5 C -0.45,2.15 0.65,1.7 1.4,0.95 1.65,1.25 1.9,1.65 2,2.1 1.65,2.4 1.35,2.6 1.15,2.7 0.75,2.85 0.4,2.95 0,2.95 z M -2.45,-5.1 c 0.1,0.2 0.05,0.4 -0.05,0.6 l -0.65,-0.95 c -0.05,-0.05 -0.1,-0.05 -0.15,0 0.05,-0.1 0.15,-0.15 0.2,-0.15 0.2,0 0.4,0.15 0.7,0.4 l -0.05,0.1 z m 0.35,1.95 -0.55,0.2 L -2.7,-2.9 -2.65,-3 -2.5,-3.15 -3.1,-3.9 c 0.25,0 0.4,-0.1 0.6,-0.15 l 0.4,0.9 z m -1.3,-2.15 0.7,1 c -0.1,0.1 -0.3,0.15 -0.5,0.15 l -0.05,0.05 c -0.2,-0.35 -0.35,-0.6 -0.35,-0.8 0,-0.1 0.1,-0.35 0.2,-0.5 l 0,0.1 z m 0.65,2.5 c 0.05,0.05 0.1,0.15 0.2,0.1 l 0.5,-0.2 c 0.15,0.5 0.15,1.05 -0.05,1.7 l -0.2,0.8 -0.6,0.15 c -0.05,-0.25 -0.05,-0.65 0,-0.95 l 0.15,-1.6 z m 2.45,2.7 c -0.45,0.9 -1.15,1.5 -2.05,1.55 0.1,-0.55 0.25,-1.1 0.4,-1.6 0.55,-0.1 1.1,-0.05 1.65,0.05 z M -1.75,-3 c 0.75,-0.2 1.5,-0.2 2.2,0.05 -0.1,0.95 -0.3,1.85 -0.6,2.6 C -0.7,-0.5 -1.3,-0.5 -1.9,-0.45 -1.75,-1.2 -1.5,-1.9 -1.65,-2.65 L -1.75,-3 z m -1.1,3 0.5,-0.1 -0.2,1.3 C -2.7,0.8 -2.8,0.4 -2.85,0 z m 0.6,1.7 c 1,-0.05 1.7,-0.75 2.2,-1.75 0.5,0.15 0.9,0.4 1.2,0.7 Q 0.1,1.7 -1.8,2.2 L -2.25,1.7 z"
           inkscape:connector-curvature="0"
           style="fill:url(#radialGradient1)" />
      </g>
    </g>
  </g>
</svg>
