<?xml version="1.0" encoding="utf-8"?>
<!-- Generator: flash2svg, http://dissentgraphics.com/tools/flash2svg -->
<svg xmlns:xlink="http://www.w3.org/1999/xlink" id="Avatar" image-rendering="auto" baseProfile="basic" version="1.1" x="0px" y="0px" width="68" height="126" xmlns="http://www.w3.org/2000/svg" viewBox="0 0 68 126">
  <defs>
    <radialGradient gradientUnits="userSpaceOnUse" color-interpolation="sRGB" r="11.847105759172486" cx="2.7" cy="-0.349" fx="2.6999999999999993" fy="-0.349" gradientTransform="matrix(-0.413787841796875 0.9111785888671875 -0.9111785888671875 -0.413787841796875 3.55 -2.849)" id="radialGradient">
      <stop stop-color="#FFF" stop-opacity="1" offset="0"/>
      <stop stop-color="#FFF" stop-opacity="0.40784313725490196" offset="1"/>
    </radialGradient>
    <radialGradient gradientUnits="userSpaceOnUse" color-interpolation="sRGB" r="11.856" cx="6.252" cy="-3.148" fx="6.252" fy="-3.148" gradientTransform="matrix(-0.413 0.911 -0.911 -0.413 2.5 -7.099)" id="radialGradient1">
      <stop stop-color="#FFF" stop-opacity="1" offset="0"/>
      <stop stop-color="#FFF" stop-opacity="0.40784313725490196" offset="1"/>
    </radialGradient>
  </defs>
  <g id="backFootRight4" overflow="visible">
    <g id="backFootRight3_0">
      <g id="element">
        <path id="path" fill="url(#radialGradient1)" d="M3.1,-0.55 C2.6,-1.55 1.3,-2.35 -0.05,-2.45 -1.35,-2.55 -2.7,-2.05 -3.7,-0.4 -4.1,0.3 -4.3,0.95 -4.35,1.55 L-4.4,1.55 C-4.4,1.7 -4.35,1.85 -4.25,2 -4.2,2.8 -3.8,3.6 -3.1,4.4 -1.8,5.9 2,9.4 3.15,10.1 L3.3,10.2 3.3,10.3 3.6,10.35 C4.1,10.7 4.55,10.95 4.95,11 5.15,11 5.3,10.95 5.5,10.85 6.1,10.55 5.75,9.8 5.75,9.8 L5.85,10.2 L5.75,9.8 5.8,9.8 C5.85,9.8 6.1,9.75 6.3,9.1 6.5,8.45 5.5,7.7 5.5,7.7 L5.95,8.15 L5.5,7.7 C5.6,7.7 5.7,7.65 5.85,7.2 5.95,6.6 5.85,5.35 4.75,5.1 L4.45,5.05 C4.25,5.05 4.35,4.95 4.2,3.3 4.1,2.35 3.1,-0.55 3.1,-0.55z M1.3,-1.8 L1.85,-1.45 3.15,1.7 3.1,2.95 C3,3.35 2.8,3.7 2.35,4 1.95,4.25 1.35,4.4 0.7,4.45 0.4,3.75 0.15,2.7 0.05,1.4 -0.05,0.1 1,-1.4 1.3,-1.8z M2.9,-0.25 L3,-0.05 3.1,0.65 2.35,-1 C2.6,-0.8 2.8,-0.5 2.9,-0.25z M3.45,2.55 L3.9,5.75 C3.8,6.3 3.55,6.9 3,7.1 L2.55,7.15 0.9,4.75 C1.45,4.65 2.1,4.5 2.55,4.2 3.05,3.9 3.3,3.45 3.35,2.95 L3.45,2.55z M3.4,1 C3.7,1.75 3.9,2.55 3.9,3.35 L3.95,4.05 3.45,1.65 3.4,1z M4.45,5.35 L4.7,5.35 C4.8,5.5 5.05,5.7 5,6.25 L4.9,7.2 4.55,6.8 C4.4,6.65 4.3,6.25 4.25,5.8 L4.3,5.3 4.45,5.35z M4.3,7 C4.5,7.25 4.65,7.45 4.85,7.55 L4.85,7.7 5.2,7.95 C5.3,8.05 5.35,8.2 5.4,8.35 5.35,8.8 5.05,9.3 5.05,9.3 L5.05,9.35 4.95,9.55 L5.05,9.35 C5.05,9.35 4.95,9.75 4.5,10 L4.2,10.1 2.75,7.45 3.05,7.35 C3.55,7.2 3.85,6.8 4.05,6.35 L4.3,7z M0.85,6.9 L-1.8,4.25 -0.65,4.65 0.55,4.8 2.2,7.2 C1.75,7.15 1.25,7.05 0.85,6.9z M2.05,7.5 L2.4,7.45 C2.95,8.45 3.55,9.45 3.85,10.1 3.35,9.6 2.3,8.5 1.4,7.55 L1.25,7.3 2.05,7.5z M4.7,10.25 C5.05,10.1 5.25,9.75 5.3,9.55 L5.5,9.9 5.55,10.2 L5.5,9.9 C5.5,9.9 5.7,10.45 5.35,10.6 L4.95,10.7 C4.75,10.65 4.5,10.6 4.3,10.4 L4.7,10.25z M3,9.6 C2.2,9 0.75,7.85 -0.5,6.65 -0.15,6.8 0.2,7 0.65,7.1 L3,9.6z M5.5,7.55 L5.15,7.35 5.3,6.3 5.25,5.75 C5.55,6.2 5.55,6.8 5.55,7.1 L5.4,7.45 5.5,7.4 5.5,7.55z M6,9.05 C5.9,9.45 5.75,9.5 5.75,9.5 L5.35,9.4 C5.45,9.25 5.65,8.8 5.65,8.35 L5.65,8.25 C5.9,8.5 6.05,8.8 6,9.05z M-1.25,-2.05 C-1.7,-1.6 -2.4,-0.9 -2.5,0.15 L-2.75,1 C-2.9,1.8 -3.05,2.55 -2.7,3.45 -3.35,3 -3.8,2.5 -4,1.9 -4.05,1.2 -3.85,0.55 -3.45,-0.25 -2.85,-1.2 -2.1,-1.8 -1.25,-2.05z M-0.55,-2.2 L-0.05,-2.15 1,-1.9 C0.65,-1.45 -0.35,0.05 -0.25,1.4 -0.15,2.75 0.1,3.7 0.4,4.5 0,4.5 -0.35,4.5 -0.6,4.4 -1,4.3 -1.6,4.05 -2.2,3.75 -2.8,2.8 -2.65,2 -2.45,1.1 L-2.2,0.2 C-2,-1.3 -0.7,-2.15 -0.55,-2.2z M-1.65,4.85 C-1.15,5.25 -0.55,5.85 0.15,6.6 -0.45,6.35 -0.95,6.05 -1.3,5.8 L-1.3,5.85 -2.9,4.25 C-3.25,3.8 -3.5,3.4 -3.7,3 -3.3,3.4 -2.85,3.7 -2.4,3.95 L-1.65,4.85z"/>
      </g>
    </g>
  </g>
</svg>