<?xml version="1.0" encoding="utf-8"?>
<!-- Generator: flash2svg, http://dissentgraphics.com/tools/flash2svg -->
<svg xmlns:xlink="http://www.w3.org/1999/xlink" id="Avatar" image-rendering="auto" baseProfile="basic" version="1.1" x="0px" y="0px" width="68" height="126" xmlns="http://www.w3.org/2000/svg" viewBox="0 0 68 126">
  <defs>
    <radialGradient gradientUnits="userSpaceOnUse" color-interpolation="sRGB" r="10.749790954589844" cx="-8.699" cy="1.25" fx="-8.699000000000002" fy="1.25" gradientTransform="matrix(1 0 0 -1 0 2.5)" id="radialGradient">
      <stop stop-color="#FFF" stop-opacity="1" offset="0"/>
      <stop stop-color="#FFF" stop-opacity="0.40784313725490196" offset="1"/>
    </radialGradient>
    <radialGradient gradientUnits="userSpaceOnUse" color-interpolation="sRGB" r="10.75" cx="-8.699" cy="3.75" fx="-8.699" fy="3.75" gradientTransform="matrix(1 0 0 -1 0 4.95)" id="radialGradient1">
      <stop stop-color="#FFF" stop-opacity="1" offset="0"/>
      <stop stop-color="#FFF" stop-opacity="0.40784313725490196" offset="1"/>
    </radialGradient>
  </defs>
  <g id="backArmUpperLeft4" overflow="visible">
    <g id="backArmUpperLeft3_0">
      <g id="element">
        <path id="path" fill="url(#radialGradient1)" d="M-13.25,-2.1 L-13.5,-1.95 C-15,-1.7 -16.3,-1.25 -17.2,0 L-17.4,0.1 -17.35,0.2 C-18,1.2 -18.15,2.6 -17.65,3.7 L-17.7,3.7 -17.65,3.75 C-17.4,4.2 -17.05,4.6 -16.55,4.9 -16.15,5.05 -15.45,5.15 -14.6,5.2 L-14.55,5.3 -14.5,5.2 -13.3,5.25 C-12.2,5.25 -10.95,5.2 -9.75,5.1 L-9.55,5.15 -9.55,5.1 -5.4,4.5 -4.8,4.55 -4.75,4.3 C-2.55,3.65 -0.55,2.6 -0.15,1.75 1.2,-1.2 0.7,-2.6 -3.3,-2.75 L-3.35,-2.8 -3.45,-2.75 -4,-2.75 C-4.9,-2.75 -6.05,-2.7 -7.35,-2.55 L-7.35,-2.6 -7.45,-2.55 -13.2,-2 -13.25,-2.1z M0.2,-0.9 L-4.4,0 -4.4,-0.4 C-4.35,-0.85 -4.2,-1.25 -4.05,-1.55 -2.2,-1.65 -0.65,-1.65 -0.05,-1.3 L0,-1.4 0.2,-0.9z M-14.55,-0.75 L-16.65,-0.2 C-15.95,-0.95 -15,-1.35 -13.9,-1.6 -14.1,-1.35 -14.35,-1.1 -14.55,-0.75z M-13.35,-1.7 L-11.1,-1.9 -10.9,-1.95 C-11.05,-1.75 -11.25,-1.55 -11.4,-1.2 L-14.15,-0.85 C-13.85,-1.25 -13.55,-1.5 -13.35,-1.7z M-10.45,-1.95 L-7.75,-2.25 -8.2,-1.5 -11.05,-1.25 -10.45,-1.95z M-11.1,-0.9 L-8.35,-1.15 C-8.5,-0.7 -8.6,-0.1 -8.6,0.7 L-8.6,0.75 -11.65,1.1 -11.65,0.75 C-11.6,0.05 -11.4,-0.5 -11.2,-0.9 L-11.1,-0.9z M-11.55,-0.9 C-11.75,-0.45 -11.9,0.1 -11.9,0.75 L-11.9,1.1 -15,1.55 -14.8,0.55 C-14.7,0.15 -14.55,-0.2 -14.35,-0.5 L-11.55,-0.9z M-7.3,-2.25 C-6,-2.4 -4.9,-2.45 -4,-2.45 L-3.8,-2.45 -4.25,-1.85 -7.85,-1.5 C-7.65,-1.9 -7.45,-2.15 -7.3,-2.25z M-7.85,-1.2 L-4.4,-1.5 C-4.55,-1.2 -4.65,-0.85 -4.65,-0.4 -4.7,-0.25 -4.7,-0.1 -4.65,0.1 L-8.3,0.7 -8.3,0.65 C-8.3,-0.15 -8.2,-0.75 -8,-1.2 L-7.85,-1.2z M-3.35,-2.45 C-1.75,-2.4 -0.75,-2.15 -0.25,-1.7 -0.95,-1.95 -2.3,-1.95 -3.9,-1.85 -3.7,-2.15 -3.5,-2.35 -3.35,-2.45z M-4.2,1.95 C-5.25,2.25 -6.45,2.5 -7.75,2.75 -8,2.3 -8.2,1.7 -8.25,1 L-4.65,0.4 C-4.6,0.9 -4.45,1.45 -4.2,1.95z M-4.35,0.3 L-0.1,-0.55 C-0.45,-0.15 -1.2,0.65 -2.5,1.3 L-3.95,1.85 C-4.15,1.4 -4.3,0.85 -4.35,0.3z M-3.8,2.1 L-2.4,1.55 C-0.9,0.85 -0.1,0 0.2,-0.45 0.15,0.1 -0.05,0.75 -0.4,1.65 Q-0.75,2.35 -2.5,3.15 L-2.5,3.1 C-2.85,3.1 -3.15,2.95 -3.4,2.65 -3.55,2.5 -3.7,2.35 -3.8,2.1z M-3.65,2.9 L-2.9,3.35 -5.4,4.2 -5.9,4.1 C-6.5,4.05 -7.1,3.7 -7.55,3.05 -6.25,2.8 -5.1,2.5 -4.1,2.2 L-3.65,2.9z M-8.05,2.85 L-11.25,3.4 C-11.5,2.75 -11.6,2.05 -11.65,1.4 L-8.55,1.05 C-8.5,1.75 -8.3,2.35 -8.05,2.85z M-6.65,4.45 C-7.5,4.6 -8.6,4.7 -9.75,4.8 -10.4,4.65 -10.85,4.2 -11.15,3.7 L-7.9,3.1 C-7.45,3.8 -6.8,4.2 -6.2,4.35 L-6.65,4.45z M-14.85,4.9 C-15.8,4.85 -16.2,4.7 -16.4,4.6 -16.7,4.45 -17,4.2 -17.2,3.95 -16.8,4.05 -16.3,4.15 -15.5,4.15 L-15.1,4.15 -14.85,4.9z M-14.8,4.15 C-14,4.1 -12.9,3.95 -11.5,3.75 L-11.45,3.75 C-11.2,4.25 -10.85,4.6 -10.4,4.85 L-14.45,4.9 C-14.6,4.75 -14.7,4.5 -14.8,4.15z M-11.9,1.4 C-11.9,2.2 -11.75,2.9 -11.55,3.45 -13,3.7 -14.05,3.8 -14.9,3.85 -15,3.25 -15.05,2.55 -15,1.85 L-11.9,1.4z M-17.6,2.3 L-15.3,1.9 C-15.35,2.6 -15.3,3.25 -15.2,3.85 -16.4,3.9 -17,3.7 -17.4,3.5 L-17.55,3.15 C-17.65,2.8 -17.65,2.45 -17.65,2.05 L-17.6,2.3z M-17.65,2.05 C-17.6,1.45 -17.4,0.85 -17.1,0.4 L-17,0.25 C-16.6,0.1 -15.8,-0.15 -14.75,-0.4 L-15.1,0.45 -15.3,1.6 -17.65,2.05z"/>
      </g>
    </g>
  </g>
</svg>