<?xml version="1.0" encoding="UTF-8" standalone="no"?>
<!-- Generator: flash2svg, http://dissentgraphics.com/tools/flash2svg -->

<svg
   xmlns:dc="http://purl.org/dc/elements/1.1/"
   xmlns:cc="http://creativecommons.org/ns#"
   xmlns:rdf="http://www.w3.org/1999/02/22-rdf-syntax-ns#"
   xmlns:svg="http://www.w3.org/2000/svg"
   xmlns="http://www.w3.org/2000/svg"
   xmlns:sodipodi="http://sodipodi.sourceforge.net/DTD/sodipodi-0.dtd"
   xmlns:inkscape="http://www.inkscape.org/namespaces/inkscape"
   id="Avatar"
   image-rendering="auto"
   version="1.1"
   x="0px"
   y="0px"
   width="10.761592"
   height="17.85"
   viewBox="0 0 10.761592 17.85"
   inkscape:version="0.48.4 r9939"
   sodipodi:docname="Avatar_backLegUpperLeft3.svg">
  <metadata
     id="metadata3227">
    <rdf:RDF>
      <cc:Work
         rdf:about="">
        <dc:format>image/svg+xml</dc:format>
        <dc:type
           rdf:resource="http://purl.org/dc/dcmitype/StillImage" />
      </cc:Work>
    </rdf:RDF>
  </metadata>
  <sodipodi:namedview
     pagecolor="#ffffff"
     bordercolor="#666666"
     borderopacity="1"
     objecttolerance="10"
     gridtolerance="10"
     guidetolerance="10"
     inkscape:pageopacity="0"
     inkscape:pageshadow="2"
     inkscape:window-width="640"
     inkscape:window-height="480"
     id="namedview3225"
     showgrid="false"
     fit-margin-top="0"
     fit-margin-left="0"
     fit-margin-right="0"
     fit-margin-bottom="0"
     inkscape:zoom="1.8730159"
     inkscape:cx="38.744884"
     inkscape:cy="6.8993343"
     inkscape:window-x="0"
     inkscape:window-y="0"
     inkscape:window-maximized="0"
     inkscape:current-layer="Avatar" />
  <defs
     id="defs3209">
    <radialGradient
       gradientUnits="userSpaceOnUse"
       color-interpolation="sRGB"
       r="15.257239"
       cx="-0.699"
       cy="1.5"
       fx="-0.699"
       fy="1.5"
       gradientTransform="matrix(0.25384521,0.96755981,0.96755981,-0.25384521,-1.949,2.55)"
       id="radialGradient">
      <stop
         stop-color="#FFF"
         stop-opacity="1"
         offset="0"
         id="stop3212" />
      <stop
         stop-color="#FFF"
         stop-opacity="0.40784313725490196"
         offset="1"
         id="stop3214" />
    </radialGradient>
    <radialGradient
       gradientUnits="userSpaceOnUse"
       color-interpolation="sRGB"
       r="15.262"
       cx="-2.598"
       cy="4.0500002"
       fx="-2.598"
       fy="4.0500002"
       gradientTransform="matrix(0.254,0.967,0.967,-0.254,-3.799,5)"
       id="radialGradient1">
      <stop
         stop-color="#FFF"
         stop-opacity="1"
         offset="0"
         id="stop3217" />
      <stop
         stop-color="#FFF"
         stop-opacity="0.40784313725490196"
         offset="1"
         id="stop3219" />
    </radialGradient>
  </defs>
  <g
     id="backLegUpperLeft4"
     overflow="visible"
     style="overflow:visible"
     transform="translate(4.7448843,2.65)">
    <g
       id="backLegUpperLeft3_0">
      <g
         id="element">
        <path
           id="path"
           d="M 5.4,-0.1 C 4.4,-1.65 2.45,-2.55 0.7,-2.55 L 0.6,-2.6 0.55,-2.55 -0.1,-2.5 -0.2,-2.65 -0.5,-2.4 -1.2,-2.1 c -0.85,0.6 -1.65,1.5 -2.25,2.7 l -0.05,0.05 0.05,0 c -0.45,0.85 -0.8,1.8 -1,2.85 l -0.05,0 0,0.1 c -0.4,2.15 -0.35,4.65 0.45,7.25 l 0,0.05 0.05,0.05 c 0.25,0.75 0.5,1.5 0.85,2.25 0.85,1.7 1.45,2 2.7,2 L 1.8,15.1 C 3.9,15.05 4.4,12.85 4.6,10.95 L 4.65,10.9 4.6,10.85 4.85,8.6 4.9,8.6 4.9,8.55 C 5.25,6.75 6.15,4.5 6,1.85 5.95,1.15 5.75,0.55 5.45,0 l 0,-0.1 -0.05,0 z M 0.95,-0.2 c 1,0.15 1.85,0.5 2.55,0.95 -0.1,0.95 -0.3,2 -0.55,3 C 2.4,3.45 1.75,3.2 1,3 l -1.65,-0.2 0,-0.05 c 0.1,-1.05 0.35,-2.1 0.65,-3 0.3,0 0.6,0 0.95,0.05 z M 3.7,-1.35 3.55,-1.3 c 0.05,0.5 0.05,1.1 0,1.7 C 2.85,0 1.95,-0.35 1,-0.5 0.65,-0.55 0.4,-0.55 0.1,-0.55 c 0.25,-0.8 0.5,-1.4 0.65,-1.7 1,0 2.05,0.35 2.95,0.9 z M 5.35,1.95 5.45,0.7 C 5.6,1.1 5.7,1.45 5.7,1.9 L 5.7,2.5 5.35,1.95 z M 5.1,1.65 C 4.75,1.25 4.35,0.9 3.85,0.6 3.9,-0.05 3.9,-0.7 3.85,-1.25 4.4,-0.9 4.8,-0.45 5.15,0.1 L 5.1,1.65 z M 5.3,5.7 4.75,5.05 C 5,4.2 5.2,3.25 5.3,2.4 5.45,2.7 5.6,2.95 5.65,3.2 l 0.05,0 C 5.65,4.05 5.45,4.9 5.3,5.7 z M 3.8,0.9 C 4.3,1.25 4.75,1.65 5.05,2.05 4.95,2.9 4.8,3.9 4.5,4.85 4.15,4.55 3.75,4.2 3.25,3.9 3.45,2.9 3.7,1.9 3.8,0.9 z M 2.9,4.05 2.25,6.8 C 1.75,6.6 1.2,6.5 0.55,6.45 L -0.9,6.4 -0.7,3.1 0.95,3.3 C 1.7,3.45 2.35,3.75 2.9,4.05 z m 1.5,1.1 C 4.1,5.95 3.95,6.75 3.8,7.5 3.5,7.3 3.05,7.05 2.55,6.85 l 0.6,-2.6 c 0.5,0.3 0.9,0.6 1.25,0.9 z m 0.15,3.45 -0.2,2.05 -0.55,-0.3 0,-0.2 C 3.85,9.55 3.9,8.85 4.05,8.05 L 4.55,8.6 z M 4.1,7.7 C 4.2,6.95 4.35,6.2 4.6,5.4 L 5.2,6.05 4.65,8.25 4.1,7.7 z M 2.2,7.1 1.85,9.8 0.8,9.7 C 0.2,9.6 -0.35,9.65 -0.85,9.7 -0.95,8.8 -1,7.75 -0.95,6.7 l 1.5,0.05 C 1.2,6.8 1.75,6.9 2.2,7.1 z m -0.4,3 -0.3,2.5 c -0.25,-0.05 -0.55,-0.05 -0.9,0 l -0.45,0.05 c -0.3,-0.55 -0.6,-1.15 -0.8,-1.8 L -0.85,10 c 0.5,-0.05 1.05,-0.1 1.6,0 l 1.05,0.1 z m 1.7,0.15 C 3.15,10.1 2.7,10 2.15,9.9 L 2.5,7.15 C 3,7.4 3.45,7.6 3.75,7.85 3.6,8.7 3.55,9.5 3.5,10.15 l 0,0.1 z M 3.35,11.6 C 3.3,12.05 3.2,12.6 3.05,13.05 2.75,12.9 2.3,12.75 1.8,12.65 L 2.1,10.2 c 0.6,0.1 1.05,0.25 1.35,0.35 L 3.35,11.6 z M 3.75,10.65 4.3,11 C 4.2,12 4,12.9 3.65,13.55 L 3.3,13.25 c 0.2,-0.55 0.3,-1.1 0.35,-1.6 l 0.1,-1 z M 3.5,13.85 C 3.1,14.45 2.6,14.8 1.8,14.8 l -0.3,0 0,-0.1 c 0.9,-0.15 1.4,-0.6 1.65,-1.15 0.2,0.1 0.3,0.2 0.35,0.3 z m -2.85,-0.95 0.8,0 -0.2,1.35 -0.95,-1.3 0.35,-0.05 z m 0.5,1.65 0.1,0.15 0.15,0.15 -0.85,0 C 0.2,14.9 -0.1,14.9 -0.35,14.9 L 0.9,14.65 1.15,14.55 z M 0.25,14.2 C 0,14.1 -0.5,13.8 -1.05,13.3 -0.75,13.2 -0.4,13.05 0,13 c 0.35,0.6 0.75,1.05 1,1.35 L 0.25,14.2 z m 0,0.3 c -0.55,0.1 -1.3,0.2 -1.85,0.2 -0.2,-0.1 -0.35,-0.25 -0.5,-0.4 0.05,-0.2 0.3,-0.5 0.8,-0.85 0.6,0.6 1.15,0.95 1.45,1 l 0.1,0.05 z m 1.5,-1.55 c 0.5,0.05 0.9,0.2 1.15,0.4 -0.2,0.5 -0.65,0.9 -1.35,1.05 l 0.2,-1.45 z M -1,-1.85 c -0.35,0.4 -0.75,0.95 -1.1,1.7 L -2.9,0.2 c 0.55,-0.9 1.2,-1.6 1.85,-2.05 l 0.05,0 z M -0.35,-2.1 0.4,-2.2 c -0.15,0.35 -0.4,0.95 -0.6,1.65 -0.55,0 -1.05,0.1 -1.5,0.25 0.45,-0.9 1,-1.5 1.35,-1.8 z m -0.6,4.9 c -0.65,0 -1.2,0.05 -1.7,0.15 L -2.4,1.6 -1.9,0.1 c 0.45,-0.2 0.95,-0.3 1.6,-0.35 -0.3,0.9 -0.55,1.95 -0.65,3 l 0,0.05 z M -3,3.05 -4.1,3.35 C -3.9,2.4 -3.6,1.55 -3.25,0.8 L -2.3,0.25 c -0.15,0.4 -0.3,0.8 -0.4,1.3 L -3,3.05 z m -0.05,0.3 C -3.25,4.45 -3.4,5.6 -3.45,6.8 L -4.4,7.15 C -4.5,5.9 -4.4,4.75 -4.2,3.7 L -3.05,3.35 z M -1,3.1 -1.25,6.4 C -1.95,6.45 -2.6,6.6 -3.1,6.7 -3.05,5.7 -2.95,4.55 -2.7,3.3 -2.2,3.2 -1.65,3.1 -1,3.1 z m -2.45,4 c 0,1.1 0.05,2.15 0.25,3.1 l 0.05,0.1 -0.65,0.35 C -4.1,9.55 -4.3,8.5 -4.4,7.45 L -3.45,7.1 z m 0.4,3.5 c 0.35,1.1 0.9,2 1.5,2.65 -0.4,0.3 -0.65,0.6 -0.75,0.8 -0.2,-0.25 -0.35,-0.6 -0.55,-1 -0.35,-0.7 -0.6,-1.4 -0.85,-2.1 L -3.05,10.6 z M -2.9,10.1 C -3.1,9.25 -3.15,8.2 -3.15,7 l 1.9,-0.3 c -0.05,1.1 0,2.1 0.1,3 -0.7,0.1 -1.3,0.3 -1.75,0.5 l 0,-0.1 z m 1.95,0.85 c 0.2,0.65 0.5,1.25 0.8,1.75 -0.45,0.1 -0.8,0.25 -1.1,0.4 -0.6,-0.65 -1.2,-1.55 -1.55,-2.65 0.45,-0.15 1,-0.35 1.65,-0.45 l 0.2,0.95 z"
           inkscape:connector-curvature="0"
           style="fill:url(#radialGradient1)" />
      </g>
    </g>
  </g>
</svg>
