<?xml version="1.0" encoding="utf-8"?>
<!-- Generator: flash2svg, http://dissentgraphics.com/tools/flash2svg -->
<svg xmlns:xlink="http://www.w3.org/1999/xlink" id="Avatar" image-rendering="auto" baseProfile="basic" version="1.1" x="0px" y="0px" width="68" height="126" xmlns="http://www.w3.org/2000/svg" viewBox="0 0 68 126">
  <defs>
    <radialGradient gradientUnits="userSpaceOnUse" color-interpolation="sRGB" r="29.350322546338294" cx="1.95" cy="-21.549" fx="1.9499999999999993" fy="-21.549" gradientTransform="matrix(-0.2782440185546875 0.960784912109375 0.960784912109375 0.2782440185546875 23.15 -17.349)" id="radialGradient">
      <stop stop-color="#FFF" stop-opacity="1" offset="0"/>
      <stop stop-color="#FFF" stop-opacity="0.40784313725490196" offset="1"/>
    </radialGradient>
    <radialGradient gradientUnits="userSpaceOnUse" color-interpolation="sRGB" r="29.358" cx="25.101" cy="-38.854" fx="25.101" fy="-38.854" gradientTransform="matrix(-0.278 0.961 0.961 0.278 46.15 -34.649)" id="radialGradient1">
      <stop stop-color="#FFF" stop-opacity="1" offset="0"/>
      <stop stop-color="#FFF" stop-opacity="0.40784313725490196" offset="1"/>
    </radialGradient>
  </defs>
  <g id="backTorso4" overflow="visible">
    <g id="backTorso3_0">
      <g id="element">
        <path id="path" fill="url(#radialGradient1)" d="M1.7,-28 L1.6,-27.95 C1.05,-28.25 0.4,-28.5 -0.5,-28.5 -1.3,-28.5 -1.95,-28.3 -2.5,-27.95 L-2.55,-28 -2.65,-27.9 C-3.7,-27.2 -4.1,-26.2 -4.1,-26.2 L-4.2,-26.15 -4.25,-26.15 C-4.85,-25.75 -7.25,-24 -7.6,-22.45 -7.7,-22.1 -7.75,-21.65 -7.75,-21.2 L-7.8,-21.15 -7.75,-21.15 C-7.85,-19.5 -7.8,-17.5 -8.5,-15.6 -9.3,-13.25 -12.2,-4.15 -11.05,0.2 L-11.05,0.25 -11,0.3 -10.75,1.05 C-8.85,4.9 -7,5.8 -3.25,6.3 -2.5,6.4 -1.9,6.4 -1.4,6.4 -1.05,6.4 -0.75,6.4 -0.5,6.35 -0.3,6.4 0,6.4 0.35,6.4 0.85,6.4 1.45,6.4 2.2,6.3 3,6.15 3.75,6.05 4.4,5.85 L4.85,5.85 4.85,5.75 C5.85,5.45 6.65,5 7.4,4.35 L7.6,4.3 7.55,4.2 C8.35,3.45 9,2.45 9.7,1.05 10.5,-0.6 10.35,-3.3 9.9,-6.1 L9.95,-6.15 9.9,-6.2 C9.6,-8 9.15,-9.85 8.75,-11.45 L8.85,-11.5 8.65,-11.8 7.45,-15.6 C6.55,-18.1 6.95,-20.7 6.55,-22.45 6.2,-24.2 3.05,-26.2 3.05,-26.2 L4.65,-25 L3.05,-26.2 C3.05,-26.2 2.75,-27.05 1.9,-27.7 L1.7,-28z M1.45,-26.7 L0.85,-27.95 C1.15,-27.85 1.45,-27.7 1.7,-27.5 L2.4,-26.45 1.45,-26.7z M1.25,-26.45 L2.45,-23.55 0.6,-23.7 0.1,-26.6 1.25,-26.45z M0.05,-26.9 L-0.2,-28.2 0.45,-28.1 1.1,-26.75 C0.8,-26.85 0.4,-26.9 0.05,-26.9z M2.7,-26.05 L4.55,-22.95 C4.05,-23.15 3.5,-23.35 2.8,-23.45 L1.65,-26.35 2.7,-26.05z M6.45,-21.05 L6.65,-17.95 5.95,-18.45 C5.7,-20.15 5.45,-21.3 5.15,-22.25 6.05,-21.65 6.3,-21 6.3,-21 L6.45,-21.05z M6.4,-21.45 C6.2,-21.75 5.75,-22.25 4.95,-22.7 4.65,-23.4 4.35,-24 3.95,-24.65 L3.25,-25.75 C4.05,-25.2 6,-23.7 6.3,-22.4 L6.4,-21.45z M4.7,-22.5 C5.05,-21.55 5.35,-20.4 5.65,-18.6 5.2,-18.8 4.7,-19 4,-19.15 3.75,-20.45 3.4,-21.8 2.95,-23.1 3.65,-22.95 4.25,-22.75 4.7,-22.5z M3.7,-19.2 C3.05,-19.35 2.25,-19.45 1.35,-19.45 L0.7,-23.4 2.6,-23.2 C3.05,-21.85 3.4,-20.5 3.7,-19.2z M3.75,-18.9 L4.5,-14.4 C3.8,-14.6 2.95,-14.8 2.05,-14.9 L1.4,-19.15 C2.35,-19.1 3.1,-19 3.75,-18.9z M1.05,-19.45 L-1.9,-19.35 -1.25,-23.35 0.35,-23.4 1.05,-19.45z M4.35,-16.95 C4.3,-17.55 4.2,-18.2 4.05,-18.8 4.8,-18.65 5.3,-18.4 5.7,-18.2 5.9,-16.75 6.3,-15.1 6.75,-13.4 6.25,-13.7 5.6,-14.05 4.8,-14.3 L4.35,-16.95z M4.55,-14.05 L5.6,-9.35 C4.75,-9.7 3.8,-9.95 2.65,-10.15 L2.1,-14.45 2.1,-14.6 C3.05,-14.5 3.85,-14.3 4.55,-14.05z M1.8,-14.4 L2.35,-10.2 C1.45,-10.3 0.5,-10.35 -0.55,-10.35 L-3.2,-10.1 -2.65,-14.4 -2.6,-14.65 -0.4,-14.8 -0.05,-14.75 C0.6,-14.75 1.2,-14.7 1.75,-14.65 L1.8,-14.4z M6.7,-17.65 C6.75,-16.95 6.9,-16.2 7.15,-15.5 7.5,-14.6 7.85,-13.5 8.2,-12.3 L7.15,-13.15 C6.7,-14.85 6.25,-16.55 6,-18.05 L6.6,-17.6 6.7,-17.65z M7.25,-12.7 C7.8,-12.25 8.2,-11.9 8.35,-11.65 8.8,-10.05 9.2,-8.35 9.5,-6.7 9.25,-7 8.9,-7.35 8.4,-7.75 8.2,-9.05 7.75,-10.75 7.3,-12.5 L7.25,-12.7z M7,-12.45 C7.45,-10.8 7.85,-9.25 8.05,-8 7.5,-8.45 6.8,-8.85 5.9,-9.2 L4.9,-13.95 C5.7,-13.65 6.35,-13.3 6.85,-12.95 L7,-12.45z M1.75,-14.95 L-0.05,-15.1 C-0.95,-15.1 -1.8,-15.05 -2.6,-14.95 L-1.95,-19 C-1.5,-19.1 -0.95,-19.15 -0.4,-19.15 L1.1,-19.15 1.75,-14.95z M8.2,-7.15 L8.2,-6.75 C8.35,-5.4 8.5,-3.85 8.15,-2.25 7.75,-2.75 7.2,-3.2 6.6,-3.6 L6.6,-4.05 C6.55,-5.6 6.3,-7.25 6,-8.85 6.9,-8.45 7.6,-8 8.1,-7.6 L8.2,-7.15z M8.45,-7.3 C9.1,-6.75 9.45,-6.3 9.6,-6.1 10,-3.75 10.1,-1.55 9.75,0 9.55,-0.4 9.15,-1.15 8.45,-2 8.8,-3.7 8.65,-5.35 8.5,-6.75 L8.45,-7.2 8.45,-7.3z M2.8,-5.1 C2,-5.25 1.15,-5.35 0.2,-5.35 L-0.3,-5.35 C-1.55,-5.3 -2.65,-5.1 -3.65,-4.9 L-3.65,-5.3 C-3.65,-6.6 -3.5,-7.8 -3.25,-9.75 -2.45,-9.9 -1.55,-10 -0.55,-10 0.55,-10.05 1.5,-10 2.4,-9.85 2.65,-7.85 2.8,-6.65 2.8,-5.3 L2.8,-5.1z M3.1,-5.3 C3.1,-6.65 2.95,-7.85 2.7,-9.85 3.85,-9.65 4.85,-9.35 5.65,-9 6,-7.35 6.25,-5.65 6.3,-4.05 L6.3,-3.8 C5.4,-4.3 4.35,-4.75 3.1,-5.05 L3.1,-5.3z M2.8,-4.8 C2.75,-3.1 2.55,-1.1 1.95,0.9 1.4,0.85 0.75,0.8 0.1,0.8 -0.7,0.8 -1.45,0.85 -2.1,0.9 -2.95,-1.2 -3.45,-3.25 -3.6,-4.6 -2.6,-4.8 -1.55,-5 -0.3,-5 L0.2,-5.05 C1.15,-5.05 2,-4.95 2.8,-4.8z M8.1,-1.95 C7.8,-0.7 7.2,0.5 6.1,1.7 L5.75,2.1 C5.35,1.85 4.85,1.6 4.25,1.4 5.35,0.05 6.35,-1.55 6.55,-3.25 7.2,-2.85 7.7,-2.35 8.1,-1.95z M6.25,-3.45 C6.1,-1.75 5.1,-0.1 3.9,1.3 3.45,1.15 2.9,1 2.25,0.95 2.85,-1.05 3.05,-3.05 3.1,-4.7 4.35,-4.45 5.4,-4 6.25,-3.45z M9.65,0.35 L9.45,0.9 C8.8,2.2 8.15,3.15 7.45,3.9 Q7.05,3 6,2.25 L6.3,1.95 C7.4,0.75 8,-0.45 8.35,-1.65 9.2,-0.55 9.55,0.35 9.55,0.35 L9.65,0.35z M7.2,4.1 C6.4,4.85 5.5,5.25 4.35,5.55 L3.95,5.55 C4.4,5.3 4.7,4.95 4.7,4.55 4.7,4.25 4.5,3.95 4.2,3.7 4.7,3.4 5.25,3 5.75,2.5 6.65,3.1 7.05,3.75 7.2,4.1z M4.05,1.65 C4.6,1.85 5.1,2.05 5.5,2.3 4.95,2.8 4.45,3.2 3.95,3.5 3.6,3.3 3.2,3.15 2.75,3 L4.05,1.65z M1.85,1.2 C1.7,1.75 1.5,2.25 1.25,2.75 L0.9,2.75 C0.6,2.75 0.3,2.75 0.05,2.8 L-1.1,2.95 C-1.45,2.4 -1.7,1.8 -1.95,1.2 -1.35,1.15 -0.65,1.1 0.1,1.1 0.75,1.1 1.3,1.15 1.85,1.2z M1.15,3.05 C0.9,3.6 0.6,4.15 0.25,4.65 L0.2,4.6 C0,4.45 -0.15,4.45 -0.2,4.5 L-0.95,3.25 0.1,3.1 C0.35,3.05 0.6,3.05 0.9,3.05 L1.15,3.05z M1.6,2.8 L2.2,1.25 C2.75,1.3 3.25,1.4 3.7,1.55 L2.35,2.9 1.6,2.8z M0.2,4.95 C0.85,5.45 1.8,5.7 2.65,5.8 2.15,5.95 1.6,6 1.05,6 L-0.3,5.85 -0.25,5.05 0,4.95 0.2,4.95z M2.45,3.25 C2.9,3.35 3.3,3.5 3.65,3.7 2.45,4.35 1.4,4.6 0.8,4.65 L2.45,3.25z M2.1,3.15 L0.85,4.25 1.45,3.1 2.1,3.15z M3.35,5.55 C2.5,5.5 1.5,5.35 0.75,4.95 1.35,4.9 2.55,4.7 3.95,3.85 4.25,4.1 4.45,4.35 4.45,4.55 4.45,4.9 4,5.25 3.35,5.55z M-0.65,-28.2 L-0.85,-26.95 -1.9,-26.85 -1.3,-28.1 -0.65,-28.2z M-3.95,-25.95 L-4.8,-24.65 C-5.25,-23.9 -5.6,-23.25 -5.9,-22.4 -6.65,-22.05 -7.15,-21.7 -7.45,-21.45 L-7.3,-22.4 C-7,-23.85 -4.55,-25.55 -4.05,-25.9 L-3.95,-25.95z M-0.95,-26.65 L-1.5,-23.65 C-2.2,-23.6 -2.8,-23.45 -3.4,-23.35 -3,-24.4 -2.6,-25.45 -2.1,-26.5 L-0.95,-26.65z M-0.4,-27.7 L-0.3,-26.95 -0.55,-26.95 -0.4,-27.7z M-0.2,-26.65 L0.3,-23.7 -0.7,-23.7 -1.15,-23.65 -0.6,-26.65 -0.2,-26.65z M-2.45,-26.45 L-3.75,-23.25 C-4.4,-23.05 -5,-22.85 -5.5,-22.6 -5.25,-23.3 -4.95,-23.85 -4.55,-24.45 L-3.5,-26.1 -2.45,-26.45z M-1.7,-28 L-2.3,-26.75 C-2.65,-26.7 -2.95,-26.6 -3.2,-26.5 -2.85,-27.05 -2.6,-27.45 -2.4,-27.65 L-1.7,-28z M-3.5,-23 C-2.9,-23.15 -2.25,-23.25 -1.55,-23.3 L-2.25,-19.3 -4.6,-18.8 C-4.35,-20.2 -4,-21.6 -3.5,-23z M-4.95,-18.75 L-6.55,-18.2 -6.55,-18.3 C-6.25,-20.1 -6,-21.25 -5.7,-22.2 -5.15,-22.45 -4.55,-22.7 -3.85,-22.9 -4.35,-21.5 -4.7,-20.1 -4.95,-18.75z M-6.05,-22 C-6.35,-21.1 -6.6,-19.95 -6.8,-18.3 L-6.85,-18.05 -7.7,-17.65 -7.45,-21.05 -6.05,-22z M-7.7,-17.3 L-6.95,-17.7 C-7.2,-16.2 -7.6,-14.55 -8.05,-12.9 -8.65,-12.45 -9.1,-12.05 -9.35,-11.75 -9,-13.15 -8.55,-14.45 -8.2,-15.5 -8,-16.1 -7.85,-16.75 -7.75,-17.35 L-7.7,-17.3z M-7.8,-12.7 C-7.25,-13.05 -6.6,-13.45 -5.75,-13.8 L-6.8,-9.1 C-7.65,-8.75 -8.35,-8.4 -8.9,-8 -8.7,-9.25 -8.3,-10.8 -7.85,-12.45 L-7.8,-12.7z M-7.65,-13.15 C-7.25,-14.75 -6.85,-16.4 -6.6,-17.85 L-5,-18.4 -5.2,-16.95 C-5.3,-16.1 -5.5,-15.15 -5.7,-14.15 -6.5,-13.8 -7.15,-13.5 -7.65,-13.15z M-2.95,-14.45 L-3.5,-10.05 C-4.65,-9.85 -5.65,-9.55 -6.45,-9.25 L-5.45,-13.9 C-4.7,-14.2 -3.9,-14.4 -2.95,-14.55 L-2.95,-14.45z M-2.9,-14.9 C-3.8,-14.75 -4.65,-14.5 -5.35,-14.25 L-4.65,-18.5 C-4,-18.7 -3.2,-18.85 -2.3,-19 L-2.9,-14.9z M-10.65,-6.15 L-10.55,-6.1 C-10.55,-6.1 -10.15,-6.65 -9.3,-7.35 L-9.3,-7.2 -9.35,-6.75 C-9.5,-5.3 -9.65,-3.7 -9.25,-2 -10.05,-1.25 -10.55,-0.6 -10.8,-0.2 -11.15,-1.75 -11,-3.85 -10.65,-6.15z M-9.45,-11.2 C-9.4,-11.25 -9,-11.75 -8.15,-12.4 -8.65,-10.7 -9.05,-9.05 -9.25,-7.8 -9.9,-7.3 -10.35,-6.85 -10.55,-6.55 -10.3,-8.15 -9.9,-9.75 -9.5,-11.25 L-9.45,-11.2z M-8.95,-7.6 C-8.45,-7.95 -7.75,-8.4 -6.85,-8.75 -7.15,-7.2 -7.4,-5.6 -7.45,-4.05 L-7.4,-3.35 C-8.05,-3 -8.55,-2.6 -9,-2.2 -9.35,-3.8 -9.2,-5.35 -9.05,-6.75 L-9.05,-7.15 -8.95,-7.6z M-7.35,-3.05 C-7.05,-1.4 -5.9,0.15 -4.65,1.45 L-6.45,2.2 -6.95,1.7 C-8.05,0.55 -8.65,-0.7 -8.95,-1.9 L-7.35,-3.05z M-7.15,-4.05 C-7.1,-5.6 -6.85,-7.25 -6.55,-8.9 -5.7,-9.2 -4.7,-9.5 -3.55,-9.7 -3.8,-7.8 -3.95,-6.6 -3.95,-5.3 L-3.9,-4.8 C-5.15,-4.5 -6.25,-4.05 -7.1,-3.55 L-7.15,-4.05z M-3.9,-4.5 C-3.75,-3.05 -3.2,-1.05 -2.4,0.95 L-4.3,1.35 C-5.65,0.05 -6.8,-1.6 -7.1,-3.2 -6.2,-3.75 -5.15,-4.2 -3.9,-4.5z M-1.4,3 L-2.25,3.15 C-2.85,2.7 -3.45,2.2 -4.05,1.6 L-2.25,1.25 -1.4,3z M-3.9,4.55 C-3.9,4.45 -3.9,4.3 -3.8,4.2 -2.65,4.7 -1.55,4.9 -0.9,4.95 -1.7,5.15 -2.45,5.25 -3.2,5.25 -3.6,5.1 -3.85,4.85 -3.9,4.55z M-3.9,3.85 C-4.65,3.5 -5.45,3.05 -6.2,2.45 -5.7,2.15 -5.1,1.9 -4.4,1.7 -3.8,2.3 -3.2,2.8 -2.65,3.25 -3.2,3.4 -3.65,3.6 -3.9,3.85z M-3.2,5.55 C-2.55,5.8 -1.65,5.95 -0.8,6.1 L-1.4,6.1 C-1.95,6.1 -2.55,6.05 -3.2,6 -4.95,5.75 -6.3,5.45 -7.4,4.75 -6.75,5 -5.15,5.55 -3.25,5.55 L-3.2,5.55z M-3.8,5.25 C-6,5.1 -7.6,4.35 -7.6,4.3 L-7.7,4.5 -8.25,4.1 C-8.1,3.9 -7.6,3.25 -6.45,2.6 -5.7,3.25 -4.9,3.75 -4.1,4.1 L-4.2,4.6 C-4.15,4.85 -4.05,5.05 -3.8,5.25z M-0.65,4.35 L-1.95,3.4 -1.25,3.3 -0.65,4.35z M-0.65,5.8 C-1.2,5.7 -1.8,5.65 -2.35,5.5 -1.75,5.45 -1.15,5.35 -0.55,5.15 L-0.65,5.8z M-0.7,4.65 C-1.35,4.6 -2.4,4.45 -3.6,4 -3.3,3.75 -2.85,3.6 -2.35,3.5 L-0.7,4.65z M-8.45,3.9 C-9.2,3.15 -9.8,2.2 -10.45,0.9 L-10.7,0.25 C-10.55,-0.05 -10.05,-0.8 -9.2,-1.65 -8.85,-0.45 -8.25,0.75 -7.15,1.95 L-6.7,2.35 C-7.75,3 -8.3,3.6 -8.45,3.9z"/>
      </g>
    </g>
  </g>
</svg>