<?xml version="1.0" encoding="UTF-8" standalone="no"?>
<!-- Generator: flash2svg, http://dissentgraphics.com/tools/flash2svg -->

<svg
   xmlns:dc="http://purl.org/dc/elements/1.1/"
   xmlns:cc="http://creativecommons.org/ns#"
   xmlns:rdf="http://www.w3.org/1999/02/22-rdf-syntax-ns#"
   xmlns:svg="http://www.w3.org/2000/svg"
   xmlns="http://www.w3.org/2000/svg"
   xmlns:sodipodi="http://sodipodi.sourceforge.net/DTD/sodipodi-0.dtd"
   xmlns:inkscape="http://www.inkscape.org/namespaces/inkscape"
   id="Avatar"
   image-rendering="auto"
   version="1.1"
   x="0px"
   y="0px"
   width="8.9875002"
   height="11.7"
   viewBox="0 0 8.9875002 11.7"
   inkscape:version="0.48.4 r9939"
   sodipodi:docname="Avatar_sideLegLowerOffside3.svg">
  <metadata
     id="metadata3185">
    <rdf:RDF>
      <cc:Work
         rdf:about="">
        <dc:format>image/svg+xml</dc:format>
        <dc:type
           rdf:resource="http://purl.org/dc/dcmitype/StillImage" />
      </cc:Work>
    </rdf:RDF>
  </metadata>
  <sodipodi:namedview
     pagecolor="#ffffff"
     bordercolor="#666666"
     borderopacity="1"
     objecttolerance="10"
     gridtolerance="10"
     guidetolerance="10"
     inkscape:pageopacity="0"
     inkscape:pageshadow="2"
     inkscape:window-width="640"
     inkscape:window-height="480"
     id="namedview3183"
     showgrid="false"
     fit-margin-top="0"
     fit-margin-left="0"
     fit-margin-right="0"
     fit-margin-bottom="0"
     inkscape:zoom="1.8730159"
     inkscape:cx="39.6875"
     inkscape:cy="-38.357671"
     inkscape:window-x="0"
     inkscape:window-y="0"
     inkscape:window-maximized="0"
     inkscape:current-layer="Avatar" />
  <defs
     id="defs3167">
    <radialGradient
       gradientUnits="userSpaceOnUse"
       color-interpolation="sRGB"
       r="7.6103191"
       cx="0.85000002"
       cy="2.1500001"
       fx="0.85000002"
       fy="2.1500001"
       gradientTransform="matrix(-0.70080566,0.71382141,0.71382141,0.70080566,-0.099,0.05)"
       id="radialGradient">
      <stop
         stop-color="#FFF"
         stop-opacity="0.7058823529411765"
         offset="0"
         id="stop3170" />
      <stop
         stop-color="#FFF"
         stop-opacity="0.2980392156862745"
         offset="1"
         id="stop3172" />
    </radialGradient>
    <radialGradient
       gradientUnits="userSpaceOnUse"
       color-interpolation="sRGB"
       r="7.6129999"
       cx="0.801"
       cy="2.201"
       fx="0.801"
       fy="2.201"
       gradientTransform="matrix(-0.701,0.714,0.714,0.701,0,0.05)"
       id="radialGradient1">
      <stop
         stop-color="#FFF"
         stop-opacity="0.7058823529411765"
         offset="0"
         id="stop3175" />
      <stop
         stop-color="#FFF"
         stop-opacity="0.2980392156862745"
         offset="1"
         id="stop3177" />
    </radialGradient>
  </defs>
  <g
     id="sideLegLowerOffside4"
     overflow="visible"
     style="overflow:visible"
     transform="translate(5.6875,3.55)">
    <g
       id="sideLegLowerOffside3_0">
      <g
         id="element">
        <path
           id="path"
           d="M 2.55,-1.95 C 2.35,-2.15 2,-2.45 1.55,-2.8 0.9,-3.25 0,-3.5 -1.15,-3.55 l -0.025,0 -1.575,0.1 c -0.3,0.05 -0.55,0.15 -0.75,0.3 -0.55,0.25 -0.95,0.6 -1.2,0.95 l -0.025,0 0,0.05 -0.15,0.05 0.05,0.05 0.025,0 c -0.25,0.25 -0.45,0.75 -0.55,1.45 -0.25,0.45 -0.35,1 -0.3,1.65 -0.05,0.05 -0.05,0.15 0,0.3 -0.05,0.55 0.05,1.15 0.2,1.8 0.05,0.45 0.15,1.15 0.2,2.05 L -5.275,5.175 -5.25,6.25 c 0.15,1 1.1,1.65 2.85,1.9 L -2.425,8.125 0,8.075 0,8.1 C 0.65,7.95 1.2,7.75 1.65,7.6 l 0,-0.025 0,0.05 0.05,-0.05 0,0.025 C 2.2,7.35 2.55,7.05 2.7,6.75 l -0.025,0 0.525,-1.075 0.1,-0.05 -0.1,0 0,0.025 C 3.25,5.5 3.25,5.1 3.3,4.5 L 3.3,4.475 3.1,2.5 c 0,-1.75 0,-2.85 -0.05,-3.35 -0.1,-0.5 -0.25,-0.85 -0.5,-1.1 z m -2.1,0.175 -2.025,0.025 -0.6,0.1 0.025,0 c -0.05,-0.35 0.1,-0.7 0.4,-1.05 l -0.025,-0.025 0.55,-0.05 0.025,0.025 c 0.45,-0.1 0.9,-0.1 1.35,0 l -0.025,-0.025 0.325,1 z m 0,-0.925 c 0.55,0.05 0.95,0.2 1.2,0.4 0.05,0.05 0.2,0.35 0.4,0.85 C 1.2,-1.7 0.7,-1.8 0.65,-1.75 0.55,-2.3 0.5,-2.6 0.45,-2.7 z m 0.025,2.5 -0.1,0.425 -2.9,0.025 0.025,0 c 0,-0.55 0.1,-1.1 0.25,-1.6 0.45,-0.15 0.85,-0.25 1.3,-0.2 0.3,-0.05 0.75,-0.05 1.4,0.05 l -0.025,0 0.05,1.3 z M 2.15,-2 c 0.25,0.25 0.45,0.5 0.6,0.8 l -0.025,-0.025 -0.45,-0.15 -0.15,-0.65 z m 0.025,0.775 0.15,1.525 -1.7,-0.125 0.075,-1.65 0,0.025 c 0.55,0.05 1.05,0.1 1.5,0.25 z m 0.65,0.45 0.05,1.2 -0.35,-0.075 -0.15,-1.325 0.45,0.2 z m 0,3.825 -0.35,0.1 -0.05,-0.05 0.1,-2.55 0.35,0.1 0.05,2.25 -0.1,0.15 z M 2.225,0.5 2.275,3.1 2.225,3.2 0.575,3.5 0.675,0.375 2.225,0.5 z M 2,5.925 0.575,6.2 0.525,3.65 0.55,3.65 C 1.1,3.6 1.7,3.5 2.25,3.4 L 2.225,3.4 2,5.925 z M 2.375,3.4 2.925,3.3 2.95,3.3 C 2.85,3.75 2.85,4.15 3,4.5 3,5.05 3,5.4 2.95,5.65 L 2.925,5.625 2.325,5.85 2.35,5.85 C 2.4,5.35 2.45,4.9 2.4,4.55 l -0.025,0 0,-1.15 z m -2,0.15 -0.825,0.025 0,0.025 c -0.8,0 -1.55,0 -2.3,0 l 0,-0.025 0.175,-3.075 3.05,-0.075 -0.1,3.125 z m 2.55,2.275 -0.4,0.975 0.025,0 C 2.35,6.95 2.1,7.15 1.85,7.35 2,7 2.15,6.6 2.35,6.05 l -0.025,0 0.6,-0.225 z M 0.55,6.4 C 0.9,6.3 1.35,6.2 2,6.15 1.9,6.8 1.75,7.25 1.55,7.5 1.2,7.55 0.75,7.65 0.1,7.8 0.25,7.5 0.4,7.05 0.55,6.4 z M 0.375,6.225 -0.65,6.35 c -0.55,0.05 -1.2,0 -1.95,-0.1 l -0.025,0 -0.175,-2.525 0,0.025 c 0.75,0.05 1.5,0.05 2.3,0 l 0,-0.025 0.875,-0.025 0,2.525 z m -0.55,-9.425 0.05,0.15 -1.05,0 -0.3,0.075 -0.05,0 0.025,0.025 c 0.05,-0.2 0.15,-0.3 0.4,-0.3 l -0.025,0 0.95,0.05 z m -1.35,-0.15 -0.35,0.425 -1.875,0.4 0.35,-0.45 0,0.025 c 0.5,-0.2 1,-0.3 1.55,-0.3 l -0.025,0 0.35,-0.1 z m -2.775,1.3 -0.2,1 -0.625,0.25 0.025,0 C -5,-1.3 -4.8,-1.7 -4.55,-2 l 0.25,-0.05 z m 0.35,-0.15 c 0.35,-0.15 1,-0.3 1.85,-0.45 -0.25,0.4 -0.4,0.75 -0.35,1.05 -0.75,0.05 -1.35,0.25 -1.8,0.5 0,-0.45 0.1,-0.8 0.3,-1.1 z m 1.45,0.85 c -0.15,0.4 -0.25,0.95 -0.2,1.65 l -0.025,0 -1.725,0.25 0.1,-1.4 c 1.1,-0.35 1.7,-0.5 1.85,-0.5 z m -2.15,0.55 c -0.05,0.15 -0.05,0.55 0,1.25 L -4.7,0.55 -5.3,0.8 -5.225,-0.55 -4.65,-0.8 z m 1.9,1.35 C -2.85,1 -2.9,2 -2.95,3.6 l 0,-0.025 L -4.425,3.4 -4.45,0.75 -2.775,0.525 z m -2.3,5.125 0.4,0.2 0,0.025 C -4.5,6.55 -4.3,7.05 -4,7.4 -4.6,7.05 -4.95,6.6 -5,6.15 L -5.05,5.675 z m 0,-0.2 -0.075,-2.05 0.5,0.1 -0.025,2.15 -0.4,-0.2 z m 2.1,-1.75 0.025,2.45 L -2.9,6.2 C -3.55,6.05 -4.05,5.9 -4.45,5.75 l 0,-0.025 0.025,-2.15 L -4.4,3.6 c 0.3,0.05 0.8,0.1 1.45,0.15 z M -4.65,3.3 C -4.95,3.25 -5.1,3.2 -5.15,3.2 L -5.175,3.175 -5.3,0.975 -4.7,0.85 -4.675,3.275 z m 4,3.2 L 0.375,6.425 0.4,6.45 C 0.15,7.1 0,7.55 -0.1,7.9 l 0,-0.025 -2.125,0.05 0.025,0.025 c -0.25,-0.5 -0.45,-1 -0.5,-1.5 0.75,0.05 1.45,0.05 2.05,0.05 z M -2.4,7.9 C -2.95,7.8 -3.4,7.7 -3.7,7.6 -4.05,7.15 -4.25,6.65 -4.3,6.05 c 0.3,0.1 0.8,0.2 1.45,0.35 0,0.6 0.15,1.1 0.45,1.5 z"
           inkscape:connector-curvature="0"
           style="fill:url(#radialGradient1)" />
      </g>
    </g>
  </g>
</svg>
