<?xml version="1.0" encoding="UTF-8" standalone="no"?>
<!-- Generator: flash2svg, http://dissentgraphics.com/tools/flash2svg -->

<svg
   xmlns:dc="http://purl.org/dc/elements/1.1/"
   xmlns:cc="http://creativecommons.org/ns#"
   xmlns:rdf="http://www.w3.org/1999/02/22-rdf-syntax-ns#"
   xmlns:svg="http://www.w3.org/2000/svg"
   xmlns="http://www.w3.org/2000/svg"
   xmlns:sodipodi="http://sodipodi.sourceforge.net/DTD/sodipodi-0.dtd"
   xmlns:inkscape="http://www.inkscape.org/namespaces/inkscape"
   id="Avatar"
   image-rendering="auto"
   version="1.1"
   x="0px"
   y="0px"
   width="21.585121"
   height="34.900002"
   viewBox="0 0 21.585121 34.900002"
   inkscape:version="0.48.4 r9939"
   sodipodi:docname="Avatar_backTorso3.svg">
  <metadata
     id="metadata3269">
    <rdf:RDF>
      <cc:Work
         rdf:about="">
        <dc:format>image/svg+xml</dc:format>
        <dc:type
           rdf:resource="http://purl.org/dc/dcmitype/StillImage" />
      </cc:Work>
    </rdf:RDF>
  </metadata>
  <sodipodi:namedview
     pagecolor="#ffffff"
     bordercolor="#666666"
     borderopacity="1"
     objecttolerance="10"
     gridtolerance="10"
     guidetolerance="10"
     inkscape:pageopacity="0"
     inkscape:pageshadow="2"
     inkscape:window-width="640"
     inkscape:window-height="480"
     id="namedview3267"
     showgrid="false"
     fit-margin-top="0"
     fit-margin-left="0"
     fit-margin-right="0"
     fit-margin-bottom="0"
     inkscape:zoom="1.8730159"
     inkscape:cx="45.316182"
     inkscape:cy="-13.888136"
     inkscape:window-x="0"
     inkscape:window-y="0"
     inkscape:window-maximized="0"
     inkscape:current-layer="Avatar" />
  <defs
     id="defs3251">
    <radialGradient
       gradientUnits="userSpaceOnUse"
       color-interpolation="sRGB"
       r="29.350323"
       cx="1.95"
       cy="-21.549"
       fx="1.95"
       fy="-21.549"
       gradientTransform="matrix(-0.27824402,0.96078491,0.96078491,0.27824402,23.15,-17.349)"
       id="radialGradient">
      <stop
         stop-color="#FFF"
         stop-opacity="1"
         offset="0"
         id="stop3254" />
      <stop
         stop-color="#FFF"
         stop-opacity="0.40784313725490196"
         offset="1"
         id="stop3256" />
    </radialGradient>
    <radialGradient
       gradientUnits="userSpaceOnUse"
       color-interpolation="sRGB"
       r="29.358"
       cx="25.101"
       cy="-38.854"
       fx="25.101"
       fy="-38.854"
       gradientTransform="matrix(-0.278,0.961,0.961,0.278,46.15,-34.649)"
       id="radialGradient1">
      <stop
         stop-color="#FFF"
         stop-opacity="1"
         offset="0"
         id="stop3259" />
      <stop
         stop-color="#FFF"
         stop-opacity="0.40784313725490196"
         offset="1"
         id="stop3261" />
    </radialGradient>
  </defs>
  <g
     id="backTorso4"
     overflow="visible"
     style="overflow:visible"
     transform="translate(11.316182,28.5)">
    <g
       id="backTorso3_0">
      <g
         id="element">
        <path
           id="path"
           d="m 1.7,-28 -0.1,0.05 c -0.55,-0.3 -1.2,-0.55 -2.1,-0.55 -0.8,0 -1.45,0.2 -2,0.55 l -0.05,-0.05 -0.1,0.1 c -1.05,0.7 -1.45,1.7 -1.45,1.7 l -0.1,0.05 -0.05,0 c -0.6,0.4 -3,2.15 -3.35,3.7 -0.1,0.35 -0.15,0.8 -0.15,1.25 l -0.05,0.05 0.05,0 c -0.1,1.65 -0.05,3.65 -0.75,5.55 -0.8,2.35 -3.7,11.45 -2.55,15.8 l 0,0.05 0.05,0.05 0.25,0.75 c 1.9,3.85 3.75,4.75 7.5,5.25 0.75,0.1 1.35,0.1 1.85,0.1 0.35,0 0.65,0 0.9,-0.05 C -0.3,6.4 0,6.4 0.35,6.4 0.85,6.4 1.45,6.4 2.2,6.3 3,6.15 3.75,6.05 4.4,5.85 l 0.45,0 0,-0.1 C 5.85,5.45 6.65,5 7.4,4.35 L 7.6,4.3 7.55,4.2 C 8.35,3.45 9,2.45 9.7,1.05 10.5,-0.6 10.35,-3.3 9.9,-6.1 L 9.95,-6.15 9.9,-6.2 C 9.6,-8 9.15,-9.85 8.75,-11.45 l 0.1,-0.05 -0.2,-0.3 -1.2,-3.8 c -0.9,-2.5 -0.5,-5.1 -0.9,-6.85 -0.35,-1.75 -3.5,-3.75 -3.5,-3.75 l 1.6,1.2 -1.6,-1.2 c 0,0 -0.3,-0.85 -1.15,-1.5 L 1.7,-28 z m -0.25,1.3 -0.6,-1.25 c 0.3,0.1 0.6,0.25 0.85,0.45 l 0.7,1.05 -0.95,-0.25 z m -0.2,0.25 1.2,2.9 -1.85,-0.15 -0.5,-2.9 1.15,0.15 z m -1.2,-0.45 -0.25,-1.3 0.65,0.1 0.65,1.35 C 0.8,-26.85 0.4,-26.9 0.05,-26.9 z m 2.65,0.85 1.85,3.1 c -0.5,-0.2 -1.05,-0.4 -1.75,-0.5 l -1.15,-2.9 1.05,0.3 z m 3.75,5 0.2,3.1 -0.7,-0.5 c -0.25,-1.7 -0.5,-2.85 -0.8,-3.8 0.9,0.6 1.15,1.25 1.15,1.25 l 0.15,-0.05 z m -0.05,-0.4 c -0.2,-0.3 -0.65,-0.8 -1.45,-1.25 -0.3,-0.7 -0.6,-1.3 -1,-1.95 l -0.7,-1.1 c 0.8,0.55 2.75,2.05 3.05,3.35 l 0.1,0.95 z M 4.7,-22.5 c 0.35,0.95 0.65,2.1 0.95,3.9 C 5.2,-18.8 4.7,-19 4,-19.15 3.75,-20.45 3.4,-21.8 2.95,-23.1 c 0.7,0.15 1.3,0.35 1.75,0.6 z m -1,3.3 c -0.65,-0.15 -1.45,-0.25 -2.35,-0.25 l -0.65,-3.95 1.9,0.2 c 0.45,1.35 0.8,2.7 1.1,4 z m 0.05,0.3 0.75,4.5 C 3.8,-14.6 2.95,-14.8 2.05,-14.9 L 1.4,-19.15 c 0.95,0.05 1.7,0.15 2.35,0.25 z m -2.7,-0.55 -2.95,0.1 0.65,-4 1.6,-0.05 0.7,3.95 z m 3.3,2.5 c -0.05,-0.6 -0.15,-1.25 -0.3,-1.85 0.75,0.15 1.25,0.4 1.65,0.6 0.2,1.45 0.6,3.1 1.05,4.8 -0.5,-0.3 -1.15,-0.65 -1.95,-0.9 l -0.45,-2.65 z m 0.2,2.9 1.05,4.7 C 4.75,-9.7 3.8,-9.95 2.65,-10.15 l -0.55,-4.3 0,-0.15 c 0.95,0.1 1.75,0.3 2.45,0.55 z m -2.75,-0.35 0.55,4.2 c -0.9,-0.1 -1.85,-0.15 -2.9,-0.15 l -2.65,0.25 0.55,-4.3 0.05,-0.25 2.2,-0.15 0.35,0.05 c 0.65,0 1.25,0.05 1.8,0.1 l 0.05,0.25 z m 4.9,-3.25 c 0.05,0.7 0.2,1.45 0.45,2.15 0.35,0.9 0.7,2 1.05,3.2 l -1.05,-0.85 c -0.45,-1.7 -0.9,-3.4 -1.15,-4.9 l 0.6,0.45 0.1,-0.05 z m 0.55,4.95 c 0.55,0.45 0.95,0.8 1.1,1.05 0.45,1.6 0.85,3.3 1.15,4.95 C 9.25,-7 8.9,-7.35 8.4,-7.75 8.2,-9.05 7.75,-10.75 7.3,-12.5 L 7.25,-12.7 z M 7,-12.45 C 7.45,-10.8 7.85,-9.25 8.05,-8 7.5,-8.45 6.8,-8.85 5.9,-9.2 l -1,-4.75 c 0.8,0.3 1.45,0.65 1.95,1 l 0.15,0.5 z m -5.25,-2.5 -1.8,-0.15 c -0.9,0 -1.75,0.05 -2.55,0.15 L -1.95,-19 c 0.45,-0.1 1,-0.15 1.55,-0.15 l 1.5,0 0.65,4.2 z m 6.45,7.8 0,0.4 c 0.15,1.35 0.3,2.9 -0.05,4.5 C 7.75,-2.75 7.2,-3.2 6.6,-3.6 l 0,-0.45 C 6.55,-5.6 6.3,-7.25 6,-8.85 6.9,-8.45 7.6,-8 8.1,-7.6 l 0.1,0.45 z M 8.45,-7.3 c 0.65,0.55 1,1 1.15,1.2 0.4,2.35 0.5,4.55 0.15,6.1 -0.2,-0.4 -0.6,-1.15 -1.3,-2 0.35,-1.7 0.2,-3.35 0.05,-4.75 l -0.05,-0.45 0,-0.1 z M 2.8,-5.1 C 2,-5.25 1.15,-5.35 0.2,-5.35 l -0.5,0 c -1.25,0.05 -2.35,0.25 -3.35,0.45 l 0,-0.4 c 0,-1.3 0.15,-2.5 0.4,-4.45 0.8,-0.15 1.7,-0.25 2.7,-0.25 1.1,-0.05 2.05,0 2.95,0.15 0.25,2 0.4,3.2 0.4,4.55 l 0,0.2 z m 0.3,-0.2 c 0,-1.35 -0.15,-2.55 -0.4,-4.55 1.15,0.2 2.15,0.5 2.95,0.85 0.35,1.65 0.6,3.35 0.65,4.95 l 0,0.25 C 5.4,-4.3 4.35,-4.75 3.1,-5.05 l 0,-0.25 z M 2.8,-4.8 C 2.75,-3.1 2.55,-1.1 1.95,0.9 1.4,0.85 0.75,0.8 0.1,0.8 c -0.8,0 -1.55,0.05 -2.2,0.1 -0.85,-2.1 -1.35,-4.15 -1.5,-5.5 1,-0.2 2.05,-0.4 3.3,-0.4 l 0.5,-0.05 c 0.95,0 1.8,0.1 2.6,0.25 z m 5.3,2.85 C 7.8,-0.7 7.2,0.5 6.1,1.7 L 5.75,2.1 C 5.35,1.85 4.85,1.6 4.25,1.4 c 1.1,-1.35 2.1,-2.95 2.3,-4.65 0.65,0.4 1.15,0.9 1.55,1.3 z M 6.25,-3.45 C 6.1,-1.75 5.1,-0.1 3.9,1.3 3.45,1.15 2.9,1 2.25,0.95 c 0.6,-2 0.8,-4 0.85,-5.65 1.25,0.25 2.3,0.7 3.15,1.25 z m 3.4,3.8 -0.2,0.55 c -0.65,1.3 -1.3,2.25 -2,3 Q 7.05,3 6,2.25 l 0.3,-0.3 c 1.1,-1.2 1.7,-2.4 2.05,-3.6 0.85,1.1 1.2,2 1.2,2 l 0.1,0 z M 7.2,4.1 C 6.4,4.85 5.5,5.25 4.35,5.55 l -0.4,0 C 4.4,5.3 4.7,4.95 4.7,4.55 4.7,4.25 4.5,3.95 4.2,3.7 4.7,3.4 5.25,3 5.75,2.5 6.65,3.1 7.05,3.75 7.2,4.1 z M 4.05,1.65 C 4.6,1.85 5.1,2.05 5.5,2.3 4.95,2.8 4.45,3.2 3.95,3.5 3.6,3.3 3.2,3.15 2.75,3 L 4.05,1.65 z M 1.85,1.2 C 1.7,1.75 1.5,2.25 1.25,2.75 l -0.35,0 c -0.3,0 -0.6,0 -0.85,0.05 L -1.1,2.95 C -1.45,2.4 -1.7,1.8 -1.95,1.2 -1.35,1.15 -0.65,1.1 0.1,1.1 0.75,1.1 1.3,1.15 1.85,1.2 z M 1.15,3.05 C 0.9,3.6 0.6,4.15 0.25,4.65 L 0.2,4.6 C 0,4.45 -0.15,4.45 -0.2,4.5 L -0.95,3.25 0.1,3.1 C 0.35,3.05 0.6,3.05 0.9,3.05 l 0.25,0 z M 1.6,2.8 2.2,1.25 C 2.75,1.3 3.25,1.4 3.7,1.55 L 2.35,2.9 1.6,2.8 z M 0.2,4.95 C 0.85,5.45 1.8,5.7 2.65,5.8 2.15,5.95 1.6,6 1.05,6 L -0.3,5.85 -0.25,5.05 0,4.95 l 0.2,0 z M 2.45,3.25 C 2.9,3.35 3.3,3.5 3.65,3.7 2.45,4.35 1.4,4.6 0.8,4.65 L 2.45,3.25 z M 2.1,3.15 0.85,4.25 1.45,3.1 2.1,3.15 z m 1.25,2.4 C 2.5,5.5 1.5,5.35 0.75,4.95 1.35,4.9 2.55,4.7 3.95,3.85 c 0.3,0.25 0.5,0.5 0.5,0.7 0,0.35 -0.45,0.7 -1.1,1 z m -4,-33.75 -0.2,1.25 -1.05,0.1 0.6,-1.25 0.65,-0.1 z m -3.3,2.25 -0.85,1.3 c -0.45,0.75 -0.8,1.4 -1.1,2.25 -0.75,0.35 -1.25,0.7 -1.55,0.95 l 0.15,-0.95 c 0.3,-1.45 2.75,-3.15 3.25,-3.5 l 0.1,-0.05 z m 3,-0.7 -0.55,3 c -0.7,0.05 -1.3,0.2 -1.9,0.3 0.4,-1.05 0.8,-2.1 1.3,-3.15 l 1.15,-0.15 z m 0.55,-1.05 0.1,0.75 -0.25,0 0.15,-0.75 z m 0.2,1.05 0.5,2.95 -1,0 -0.45,0.05 0.55,-3 0.4,0 z m -2.25,0.2 -1.3,3.2 c -0.65,0.2 -1.25,0.4 -1.75,0.65 0.25,-0.7 0.55,-1.25 0.95,-1.85 l 1.05,-1.65 1.05,-0.35 z m 0.75,-1.55 -0.6,1.25 c -0.35,0.05 -0.65,0.15 -0.9,0.25 0.35,-0.55 0.6,-0.95 0.8,-1.15 L -1.7,-28 z m -1.8,5 c 0.6,-0.15 1.25,-0.25 1.95,-0.3 l -0.7,4 -2.35,0.5 c 0.25,-1.4 0.6,-2.8 1.1,-4.2 z m -1.45,4.25 -1.6,0.55 0,-0.1 c 0.3,-1.8 0.55,-2.95 0.85,-3.9 0.55,-0.25 1.15,-0.5 1.85,-0.7 -0.5,1.4 -0.85,2.8 -1.1,4.15 z M -6.05,-22 c -0.3,0.9 -0.55,2.05 -0.75,3.7 l -0.05,0.25 -0.85,0.4 0.25,-3.4 1.4,-0.95 z m -1.65,4.7 0.75,-0.4 c -0.25,1.5 -0.65,3.15 -1.1,4.8 -0.6,0.45 -1.05,0.85 -1.3,1.15 0.35,-1.4 0.8,-2.7 1.15,-3.75 0.2,-0.6 0.35,-1.25 0.45,-1.85 l 0.05,0.05 z m -0.1,4.6 c 0.55,-0.35 1.2,-0.75 2.05,-1.1 l -1.05,4.7 c -0.85,0.35 -1.55,0.7 -2.1,1.1 0.2,-1.25 0.6,-2.8 1.05,-4.45 l 0.05,-0.25 z m 0.15,-0.45 c 0.4,-1.6 0.8,-3.25 1.05,-4.7 l 1.6,-0.55 -0.2,1.45 c -0.1,0.85 -0.3,1.8 -0.5,2.8 -0.8,0.35 -1.45,0.65 -1.95,1 z m 4.7,-1.3 -0.55,4.4 c -1.15,0.2 -2.15,0.5 -2.95,0.8 l 1,-4.65 c 0.75,-0.3 1.55,-0.5 2.5,-0.65 l 0,0.1 z m 0.05,-0.45 c -0.9,0.15 -1.75,0.4 -2.45,0.65 l 0.7,-4.25 C -4,-18.7 -3.2,-18.85 -2.3,-19 l -0.6,4.1 z m -7.75,8.75 0.1,0.05 c 0,0 0.4,-0.55 1.25,-1.25 l 0,0.15 -0.05,0.45 c -0.15,1.45 -0.3,3.05 0.1,4.75 -0.8,0.75 -1.3,1.4 -1.55,1.8 -0.35,-1.55 -0.2,-3.65 0.15,-5.95 z m 1.2,-5.05 c 0.05,-0.05 0.45,-0.55 1.3,-1.2 -0.5,1.7 -0.9,3.35 -1.1,4.6 -0.65,0.5 -1.1,0.95 -1.3,1.25 0.25,-1.6 0.65,-3.2 1.05,-4.7 l 0.05,0.05 z m 0.5,3.6 c 0.5,-0.35 1.2,-0.8 2.1,-1.15 -0.3,1.55 -0.55,3.15 -0.6,4.7 l 0.05,0.7 C -8.05,-3 -8.55,-2.6 -9,-2.2 -9.35,-3.8 -9.2,-5.35 -9.05,-6.75 l 0,-0.4 0.1,-0.45 z m 1.6,4.55 c 0.3,1.65 1.45,3.2 2.7,4.5 l -1.8,0.75 -0.5,-0.5 c -1.1,-1.15 -1.7,-2.4 -2,-3.6 l 1.6,-1.15 z m 0.2,-1 c 0.05,-1.55 0.3,-3.2 0.6,-4.85 0.85,-0.3 1.85,-0.6 3,-0.8 -0.25,1.9 -0.4,3.1 -0.4,4.4 l 0.05,0.5 c -1.25,0.3 -2.35,0.75 -3.2,1.25 l -0.05,-0.5 z M -3.9,-4.5 c 0.15,1.45 0.7,3.45 1.5,5.45 l -1.9,0.4 c -1.35,-1.3 -2.5,-2.95 -2.8,-4.55 0.9,-0.55 1.95,-1 3.2,-1.3 z M -1.4,3 -2.25,3.15 C -2.85,2.7 -3.45,2.2 -4.05,1.6 L -2.25,1.25 -1.4,3 z m -2.5,1.55 c 0,-0.1 0,-0.25 0.1,-0.35 1.15,0.5 2.25,0.7 2.9,0.75 -0.8,0.2 -1.55,0.3 -2.3,0.3 -0.4,-0.15 -0.65,-0.4 -0.7,-0.7 z m 0,-0.7 C -4.65,3.5 -5.45,3.05 -6.2,2.45 -5.7,2.15 -5.1,1.9 -4.4,1.7 c 0.6,0.6 1.2,1.1 1.75,1.55 -0.55,0.15 -1,0.35 -1.25,0.6 z m 0.7,1.7 c 0.65,0.25 1.55,0.4 2.4,0.55 l -0.6,0 C -1.95,6.1 -2.55,6.05 -3.2,6 -4.95,5.75 -6.3,5.45 -7.4,4.75 c 0.65,0.25 2.25,0.8 4.15,0.8 l 0.05,0 z M -3.8,5.25 C -6,5.1 -7.6,4.35 -7.6,4.3 L -7.7,4.5 -8.25,4.1 C -8.1,3.9 -7.6,3.25 -6.45,2.6 -5.7,3.25 -4.9,3.75 -4.1,4.1 l -0.1,0.5 c 0.05,0.25 0.15,0.45 0.4,0.65 z m 3.15,-0.9 -1.3,-0.95 0.7,-0.1 0.6,1.05 z m 0,1.45 C -1.2,5.7 -1.8,5.65 -2.35,5.5 c 0.6,-0.05 1.2,-0.15 1.8,-0.35 L -0.65,5.8 z M -0.7,4.65 C -1.35,4.6 -2.4,4.45 -3.6,4 -3.3,3.75 -2.85,3.6 -2.35,3.5 L -0.7,4.65 z M -8.45,3.9 c -0.75,-0.75 -1.35,-1.7 -2,-3 L -10.7,0.25 c 0.15,-0.3 0.65,-1.05 1.5,-1.9 0.35,1.2 0.95,2.4 2.05,3.6 l 0.45,0.4 C -7.75,3 -8.3,3.6 -8.45,3.9 z"
           inkscape:connector-curvature="0"
           style="fill:url(#radialGradient1)" />
      </g>
    </g>
  </g>
</svg>
