<?xml version="1.0" encoding="UTF-8" standalone="no"?>
<!-- Generator: flash2svg, http://dissentgraphics.com/tools/flash2svg -->

<svg
   xmlns:dc="http://purl.org/dc/elements/1.1/"
   xmlns:cc="http://creativecommons.org/ns#"
   xmlns:rdf="http://www.w3.org/1999/02/22-rdf-syntax-ns#"
   xmlns:svg="http://www.w3.org/2000/svg"
   xmlns="http://www.w3.org/2000/svg"
   xmlns:sodipodi="http://sodipodi.sourceforge.net/DTD/sodipodi-0.dtd"
   xmlns:inkscape="http://www.inkscape.org/namespaces/inkscape"
   id="Avatar"
   image-rendering="auto"
   version="1.1"
   x="0px"
   y="0px"
   width="8.9020262"
   height="14.225"
   viewBox="0 0 8.9020262 14.225"
   inkscape:version="0.48.4 r9939"
   sodipodi:docname="Avatar_sideArmLowerOffside3.svg">
  <metadata
     id="metadata3010">
    <rdf:RDF>
      <cc:Work
         rdf:about="">
        <dc:format>image/svg+xml</dc:format>
        <dc:type
           rdf:resource="http://purl.org/dc/dcmitype/StillImage" />
      </cc:Work>
    </rdf:RDF>
  </metadata>
  <sodipodi:namedview
     pagecolor="#ffffff"
     bordercolor="#666666"
     borderopacity="1"
     objecttolerance="10"
     gridtolerance="10"
     guidetolerance="10"
     inkscape:pageopacity="0"
     inkscape:pageshadow="2"
     inkscape:window-width="640"
     inkscape:window-height="480"
     id="namedview3008"
     showgrid="false"
     fit-margin-top="0"
     fit-margin-left="0"
     fit-margin-right="0"
     fit-margin-bottom="0"
     inkscape:zoom="1.8730159"
     inkscape:cx="37.35"
     inkscape:cy="36.464022"
     inkscape:window-x="226"
     inkscape:window-y="89"
     inkscape:window-maximized="0"
     inkscape:current-layer="Avatar" />
  <defs
     id="defs2992">
    <radialGradient
       gradientUnits="userSpaceOnUse"
       color-interpolation="sRGB"
       r="10.92107"
       cx="4.5"
       cy="3.25"
       fx="4.5"
       fy="3.25"
       gradientTransform="matrix(0.2936554,0.95690918,0.77098083,-0.24943542,0.7,-0.249)"
       id="radialGradient">
      <stop
         stop-color="#FFF"
         stop-opacity="0.7058823529411765"
         offset="0"
         id="stop2995" />
      <stop
         stop-color="#FFF"
         stop-opacity="0.2980392156862745"
         offset="1"
         id="stop2997" />
    </radialGradient>
    <radialGradient
       gradientUnits="userSpaceOnUse"
       color-interpolation="sRGB"
       r="10.932"
       cx="5.204"
       cy="3.0539999"
       fx="5.204"
       fy="3.0539999"
       gradientTransform="matrix(0.293,0.956,0.77,-0.249,0.6,-0.799)"
       id="radialGradient1">
      <stop
         stop-color="#FFF"
         stop-opacity="0.7058823529411765"
         offset="0"
         id="stop3000" />
      <stop
         stop-color="#FFF"
         stop-opacity="0.2980392156862745"
         offset="1"
         id="stop3002" />
    </radialGradient>
  </defs>
  <g
     id="sideArmLowerOffside4"
     overflow="visible"
     style="overflow:visible"
     transform="translate(3.35,1.225)">
    <g
       id="sideArmLowerOffside3_0">
      <g
         id="element">
        <path
           id="path"
           d="M 5.4,11.75 C 5.55,11.25 5.6,10.5 5.5,9.6 5.5,8.85 5.15,7.4 4.55,5.1 3.7,1.75 2.45,-0.3 0.9,-1 c -0.75,-0.3 -1.4,-0.3 -2.25,0 -0.1,0.05 -0.25,0.1 -0.5,0.3 -0.35,0.35 -0.65,0.85 -0.9,1.55 -0.1,0.25 -0.15,0.5 -0.25,0.8 -0.25,1.1 -0.35,2.1 -0.35,3.15 0,1.4 0.2,2.9 0.6,4.4 0.4,1.65 0.95,2.65 1.7,2.9 0.3,0.1 0.6,0.3 0.85,0.4 1,0.3 1.95,0.45 2.95,0.5 l 0.35,0 c 0.65,0 1.2,-0.2 1.7,-0.35 L 4.9,12.5 c 0.25,-0.15 0.35,-0.4 0.5,-0.75 z m -4.9,-12 c -0.25,-0.2 -0.45,-0.4 -0.75,-0.55 -0.15,-0.1 -0.3,-0.15 -0.5,-0.15 0.5,-0.05 1,-0.05 1.5,0.15 l 0.5,0.35 -0.75,0.2 z m 0.95,0 C 1.75,0 2.05,0.3 2.35,0.8 L 1.5,0.95 C 1.4,0.65 1.15,0.3 0.75,-0.1 l 0.7,-0.15 z M 3.35,2.55 2.45,2.6 1.75,1.25 2.6,1.15 C 2.95,1.7 3.15,2.2 3.35,2.55 z m 0.1,0.3 C 3.8,3.65 4,4.3 4.15,4.75 L 3.25,4.7 C 3.1,4.3 2.9,3.65 2.55,2.8 l 0.9,0.05 z M 2.15,2.55 C 1.4,2.65 0.8,2.8 0.2,2.95 L -0.15,1.7 1.45,1.25 2.15,2.55 z M 1.3,1.05 C 1.1,1.1 0.65,1.2 -0.2,1.4 L -0.55,0.4 0.4,0 C 0.6,0.2 0.95,0.65 1.3,1.05 z M 0.2,3.2 C 0.8,3.05 1.45,2.9 2.25,2.85 L 2.95,4.7 C 2.25,4.7 1.5,4.75 0.65,4.95 L 0.2,3.2 z M 3.3,4.95 3.4,4.9 4.15,5 4.3,5.2 4.7,6.75 3.9,6.65 3.8,6.65 3.45,5.3 3.3,4.95 z m -0.35,0 0.6,1.75 C 2.7,6.65 1.9,6.7 1.05,6.8 L 0.7,5.2 C 1.45,5 2.15,5 2.95,4.95 z m 1.1,4.1 -0.5,-0.1 C 2.95,8.9 2.25,8.85 1.5,8.95 L 1.1,7.05 C 1.9,6.95 2.7,6.85 3.55,6.9 l 0.5,2.15 z M 3.9,6.85 4.75,7 5.15,9.25 C 4.65,9.1 4.35,9.1 4.3,9.1 L 3.85,6.85 3.9,6.85 z M 1.2,8.95 C 0.3,9.05 -0.65,9.35 -1.65,9.75 -1.65,9.65 -1.8,9.1 -2.1,8.1 -1.05,7.6 -0.05,7.3 0.8,7.15 l 0.4,1.8 z m 3.45,1.9 0.7,0.1 C 5.2,11.65 5,12.15 4.65,12.4 l -0.8,0.3 0,-0.05 c 0.4,-0.3 0.65,-0.9 0.7,-1.8 l 0.1,0 z M 4.5,10.6 4.35,9.3 5.2,9.45 c 0.05,0.6 0.1,1.05 0.05,1.25 L 4.6,10.65 4.5,10.6 z m -0.25,0 C 3.4,10.5 2.65,10.45 1.95,10.55 L 1.6,9.15 4.1,9.25 4.25,10.6 z M 4.2,10.8 C 4.25,11.65 4,12.25 3.65,12.55 L 3.1,12.75 2.4,12.8 2,10.85 c 0.85,-0.1 1.55,-0.1 2.2,-0.05 z M 1.65,10.65 C 0.6,10.8 -0.3,11.05 -0.95,11.4 -1.25,11.05 -1.4,10.55 -1.55,10 -0.7,9.55 0.3,9.25 1.35,9.2 l 0.3,1.45 z M 0.8,6.9 c -0.9,0.15 -1.9,0.45 -2.95,0.95 l -0.4,-1.6 c 1,-0.45 1.95,-0.8 2.95,-1 L 0.8,6.9 z M 0.2,12.4 C -0.25,12.3 -0.55,12 -0.85,11.55 -0.05,11.2 0.8,11 1.65,10.85 L 2.1,12.75 0.25,12.45 0.2,12.4 z m -1.5,-13.25 0.1,0.05 -0.05,0 0,0.05 c -0.25,0.15 -0.4,0.35 -0.4,0.5 L -2.15,1 -2.65,1.3 c 0.2,-0.9 0.6,-1.5 0.95,-1.9 l 0.4,-0.25 z M -0.1,3 C -1.15,3.3 -1.95,3.7 -2.65,4.1 L -2.4,2.75 C -1.65,2.3 -1.05,2.1 -0.45,1.85 L -0.1,3 z m -0.75,-2.5 0.3,1.1 C -1.05,1.8 -1.6,2 -2.35,2.45 L -2,1.1 -0.85,0.5 z m -1.05,0.3 0.65,-1.3 0.35,0.8 -1,0.5 z m -1.05,2.05 c 0.05,-0.6 0.15,-1 0.2,-1.25 l 0.5,-0.3 -0.3,1.3 -0.4,0.25 z m -0.1,1.6 0.05,-1.35 0.45,-0.25 -0.3,1.3 -0.2,0.3 z M -2.6,4.35 C -1.85,3.9 -1,3.6 -0.05,3.25 L 0.3,5 c -0.95,0.25 -1.9,0.6 -2.9,1.05 l 0,-1.7 z M -2.8,6.15 -3,6.3 -3.1,4.65 -2.85,4.5 C -2.8,5.4 -2.8,6 -2.8,6.15 z M -2.75,6.35 -2.3,8 -2.75,8.25 -3,6.5 -2.75,6.35 z m 0.5,3.75 C -2.45,9.75 -2.6,9.2 -2.7,8.4 l 0.4,-0.2 0.45,1.65 -0.4,0.25 z m 0.5,-0.1 c 0.1,0.55 0.35,1.1 0.6,1.55 L -1.4,11.6 C -1.7,11.3 -1.9,10.9 -2.2,10.25 L -1.75,10 z m 1.05,2.1 -0.55,-0.3 0.2,-0.1 0.35,0.4 z m -0.2,-12.8 1.1,0.55 -0.8,0.3 -0.3,-0.85 z"
           inkscape:connector-curvature="0"
           style="fill:url(#radialGradient1)" />
      </g>
    </g>
  </g>
</svg>
