<?xml version="1.0" encoding="UTF-8" standalone="no"?>
<!-- Generator: flash2svg, http://dissentgraphics.com/tools/flash2svg -->

<svg
   xmlns:dc="http://purl.org/dc/elements/1.1/"
   xmlns:cc="http://creativecommons.org/ns#"
   xmlns:rdf="http://www.w3.org/1999/02/22-rdf-syntax-ns#"
   xmlns:svg="http://www.w3.org/2000/svg"
   xmlns="http://www.w3.org/2000/svg"
   xmlns:sodipodi="http://sodipodi.sourceforge.net/DTD/sodipodi-0.dtd"
   xmlns:inkscape="http://www.inkscape.org/namespaces/inkscape"
   id="Avatar"
   image-rendering="auto"
   version="1.1"
   x="0px"
   y="0px"
   width="11.264667"
   height="13"
   viewBox="0 0 11.264667 13"
   inkscape:version="0.48.4 r9939"
   sodipodi:docname="Avatar_backFootLeft3.svg">
  <metadata
     id="metadata3080">
    <rdf:RDF>
      <cc:Work
         rdf:about="">
        <dc:format>image/svg+xml</dc:format>
        <dc:type
           rdf:resource="http://purl.org/dc/dcmitype/StillImage" />
      </cc:Work>
    </rdf:RDF>
  </metadata>
  <sodipodi:namedview
     pagecolor="#ffffff"
     bordercolor="#666666"
     borderopacity="1"
     objecttolerance="10"
     gridtolerance="10"
     guidetolerance="10"
     inkscape:pageopacity="0"
     inkscape:pageshadow="2"
     inkscape:window-width="640"
     inkscape:window-height="480"
     id="namedview3078"
     showgrid="false"
     fit-margin-top="0"
     fit-margin-left="0"
     fit-margin-right="0"
     fit-margin-bottom="0"
     inkscape:zoom="1.8730159"
     inkscape:cx="40.364667"
     inkscape:cy="-53.15"
     inkscape:window-x="0"
     inkscape:window-y="0"
     inkscape:window-maximized="0"
     inkscape:current-layer="Avatar" />
  <defs
     id="defs3062">
    <radialGradient
       gradientUnits="userSpaceOnUse"
       color-interpolation="sRGB"
       r="11.845355"
       cx="-1.999"
       cy="-1.299"
       fx="-1.999"
       fy="-1.299"
       gradientTransform="matrix(0.34169006,0.94044495,0.94044495,-0.34169006,-0.099,0.15)"
       id="radialGradient">
      <stop
         stop-color="#FFF"
         stop-opacity="1"
         offset="0"
         id="stop3065" />
      <stop
         stop-color="#FFF"
         stop-opacity="0.40784313725490196"
         offset="1"
         id="stop3067" />
    </radialGradient>
    <radialGradient
       gradientUnits="userSpaceOnUse"
       color-interpolation="sRGB"
       r="11.852"
       cx="-2.049"
       cy="-1.15"
       fx="-2.049"
       fy="-1.15"
       gradientTransform="matrix(0.341,0.94,0.94,-0.341,-0.099,0.2)"
       id="radialGradient1">
      <stop
         stop-color="#FFF"
         stop-opacity="1"
         offset="0"
         id="stop3070" />
      <stop
         stop-color="#FFF"
         stop-opacity="0.40784313725490196"
         offset="1"
         id="stop3072" />
    </radialGradient>
  </defs>
  <g
     id="backFootLeft4"
     overflow="visible"
     style="overflow:visible"
     transform="translate(6.3646667,3.15)">
    <g
       id="backFootLeft3_0">
      <g
         id="element">
        <path
           id="path"
           d="M 4.35,-0.85 C 3.5,-2.55 2.2,-3.15 0.9,-3.15 c -1.35,0 -2.7,0.7 -3.3,1.65 L -3.05,0 -2.4,-1.5 c 0,0 -1.25,2.8 -1.4,3.75 -0.3,1.6 -0.2,1.7 -0.4,1.7 l -0.3,0 C -5.6,4.15 -5.8,5.4 -5.75,6 c 0.1,0.5 0.2,0.55 0.3,0.55 l -0.5,0.4 0.5,-0.4 c 0,0 -1.05,0.65 -0.9,1.35 0.15,0.65 0.4,0.7 0.45,0.7 l 0.05,0 L -6,9 -5.85,8.6 c 0,0 -0.4,0.75 0.15,1.1 0.2,0.1 0.35,0.15 0.55,0.15 0.4,0 0.85,-0.2 1.4,-0.5 l 0.3,-0.05 0,-0.1 0.2,-0.1 C -2.05,8.5 2,5.35 3.4,3.9 4.15,3.15 4.6,2.4 4.75,1.6 4.85,1.45 4.9,1.3 4.9,1.15 l -0.05,0 c 0,-0.6 -0.15,-1.25 -0.5,-2 z M 4.1,-0.7 C 4.45,0.1 4.6,0.8 4.5,1.45 4.25,2.05 3.75,2.5 3.1,2.9 3.5,2.05 3.4,1.3 3.3,0.5 L 3.15,-0.4 C 3.1,-1.45 2.5,-2.2 2.05,-2.65 2.9,-2.35 3.6,-1.7 4.1,-0.7 z M 2.85,-0.35 3,0.55 C 3.15,1.45 3.25,2.25 2.55,3.15 1.95,3.4 1.35,3.6 0.9,3.7 0.65,3.75 0.3,3.75 -0.1,3.7 0.3,2.95 0.6,2 0.8,0.7 1,-0.65 0.15,-2.2 -0.2,-2.7 l 1.1,-0.15 0.5,0 c 0.1,0.05 1.35,1 1.45,2.5 z M 1.5,5.2 C 1.15,5.4 0.6,5.65 0,5.85 0.75,5.2 1.4,4.6 1.95,4.2 L 2.75,3.4 C 3.2,3.15 3.7,2.9 4.1,2.55 3.9,2.9 3.6,3.3 3.2,3.7 L 1.5,5.25 1.5,5.2 z M 2.1,3.65 -0.7,6.1 C -1.15,6.25 -1.65,6.3 -2.1,6.3 L -0.25,4 0.95,3.95 2.1,3.65 z m -1.6,-3 C 0.3,1.95 0,2.95 -0.4,3.65 -1,3.55 -1.6,3.35 -2,3.05 -2.4,2.75 -2.6,2.35 -2.65,1.95 l 0.05,-1.25 1.55,-3 0.55,-0.3 c 0.3,0.4 1.2,1.95 1,3.25 z M -2.3,-1 -2.2,-1.2 c 0.1,-0.25 0.35,-0.5 0.6,-0.7 L -2.45,-0.3 -2.3,-1 z M -2.8,0 -2.9,0.65 -3.65,3 -3.5,2.3 C -3.4,1.5 -3.15,0.75 -2.8,0 z m -0.1,1.95 c 0,0.5 0.25,0.95 0.7,1.3 0.45,0.35 1.05,0.55 1.6,0.65 l -1.85,2.35 -0.4,-0.1 C -3.45,5.9 -3.65,5.3 -3.7,4.7 l 0.75,-3.15 0.05,0.4 z m -1.3,2.3 0.15,-0.05 0,0.5 c -0.1,0.5 -0.25,0.9 -0.4,1.05 L -4.8,6.1 -4.85,5.1 c 0,-0.55 0.25,-0.75 0.4,-0.85 l 0.25,0 z m 0.3,1.05 c 0.15,0.5 0.45,0.9 0.95,1.1 l 0.3,0.1 -1.7,2.55 -0.3,-0.15 c -0.4,-0.25 -0.5,-0.7 -0.5,-0.7 l 0.1,0.25 -0.1,-0.25 0,-0.05 c 0,0 -0.25,-0.5 -0.25,-0.95 0.05,-0.15 0.1,-0.3 0.25,-0.4 l 0.35,-0.2 0,-0.15 c 0.2,-0.1 0.4,-0.25 0.6,-0.5 L -3.9,5.3 z m -1.45,1 -0.1,-0.35 c 0,-0.3 0.05,-0.95 0.4,-1.35 l -0.1,0.5 0.05,1.15 -0.35,0.15 0,-0.15 0.1,0.05 z m -0.3,0.9 c -0.05,0.45 0.15,0.9 0.2,1.05 L -5.85,8.3 C -5.85,8.3 -6,8.25 -6.05,7.85 -6.1,7.6 -5.9,7.3 -5.65,7.1 l 0,0.1 z m 0.25,1.2 c 0.05,0.2 0.2,0.55 0.55,0.75 l 0.4,0.2 c -0.25,0.15 -0.5,0.2 -0.7,0.2 l -0.4,-0.1 C -5.85,9.25 -5.6,8.75 -5.6,8.75 l -0.1,0.3 0.1,-0.3 0.2,-0.35 z m 3.45,-1.8 0.8,-0.1 -0.15,0.2 c -1,0.9 -2.1,1.9 -2.7,2.35 0.35,-0.6 1.05,-1.55 1.7,-2.5 l 0.35,0.05 z m 1.4,-0.25 C -0.1,6.25 0.3,6.1 0.65,5.95 -0.7,7.05 -2.2,8.1 -3.05,8.65 l 2.5,-2.3 z"
           inkscape:connector-curvature="0"
           style="fill:url(#radialGradient1)" />
      </g>
    </g>
  </g>
</svg>
