<?xml version="1.0" encoding="utf-8"?>
<!-- Generator: flash2svg, http://dissentgraphics.com/tools/flash2svg -->
<svg xmlns:xlink="http://www.w3.org/1999/xlink" id="Avatar" image-rendering="auto" baseProfile="basic" version="1.1" x="0px" y="0px" width="68" height="126" xmlns="http://www.w3.org/2000/svg" viewBox="0 0 68 126">
  <defs>
    <radialGradient gradientUnits="userSpaceOnUse" color-interpolation="sRGB" r="10.285084561324" cx="-2.099" cy="0.5" fx="-2.099" fy="0.5" gradientTransform="matrix(-0.4584808349609375 0.8892974853515625 -0.8892974853515625 -0.4584808349609375 -2.549 2.55)" id="radialGradient">
      <stop stop-color="#FFF" stop-opacity="1" offset="0"/>
      <stop stop-color="#FFF" stop-opacity="0.40784313725490196" offset="1"/>
    </radialGradient>
    <radialGradient gradientUnits="userSpaceOnUse" color-interpolation="sRGB" r="10.29" cx="-4.599" cy="3.05" fx="-4.599" fy="3.05" gradientTransform="matrix(-0.458 0.889 -0.889 -0.458 -1.349 5.9)" id="radialGradient1">
      <stop stop-color="#FFF" stop-opacity="1" offset="0"/>
      <stop stop-color="#FFF" stop-opacity="0.40784313725490196" offset="1"/>
    </radialGradient>
  </defs>
  <g id="backLegLowerRight4" overflow="visible">
    <g id="backLegLowerRight3_0">
      <g id="element">
        <path id="path" fill="url(#radialGradient1)" d="M1.15,-1.6 L1.1,-1.6 C0.25,-2 -0.85,-2.3 -1.65,-2.5 L-2.55,-2.6 C-4.5,-2.7 -5.1,-1.1 -6.45,0.55 -7.7,2.25 -8.25,3.65 -9.15,5.6 -10.05,7.5 -10,10.1 -6.65,10.85 L-6.6,10.85 C-4.45,11.25 -1.25,8.7 0.05,5.65 L1.45,2.5 1.5,2.45 1.45,2.45 C2.05,1.05 2.35,-0.05 2.1,-0.7 2,-1 1.65,-1.3 1.2,-1.55 L1.15,-1.6z M1.85,-0.6 C2,-0.05 1.75,0.95 1.25,2.15 L0.65,1.45 C1,0.2 1.1,-0.65 1.15,-1.15 1.55,-1 1.75,-0.8 1.85,-0.6z M1.15,2.45 L-0.1,5.35 C-0.2,5.1 -0.3,4.7 -0.6,4.3 L0.5,1.75 1.15,2.45z M0.4,1.15 C-0.05,0.7 -0.65,0.3 -1.35,-0.05 L-0.5,-1.8 0.9,-1.35 C0.85,-0.95 0.75,-0.05 0.4,1.15z M-5.3,-0.15 C-5.05,-0.3 -4.75,-0.4 -4.4,-0.45 L-5.7,1.45 C-6.25,1.5 -6.65,1.65 -6.95,1.75 -6.7,1.45 -6.5,1.1 -6.15,0.75 L-5.35,-0.3 -5.3,-0.15z M-4.25,-0.7 C-4.6,-0.75 -4.95,-0.65 -5.25,-0.5 -4.5,-1.5 -3.95,-2.2 -2.9,-2.25 -3.4,-1.95 -3.85,-1.35 -4.25,-0.7z M-2.55,-2.15 L-2.55,-2.3 -0.75,-1.95 -1.65,-0.2 C-2.45,-0.55 -3.2,-0.7 -3.95,-0.75 -3.5,-1.35 -3.05,-1.95 -2.55,-2.15z M-1.5,0.2 C-0.8,0.5 -0.2,1.05 0.3,1.5 L-0.25,3 -0.75,4 C-1.15,3.4 -1.75,2.7 -2.5,2.2 L-1.5,0.2z M-2.9,2.3 L-4.2,4.75 C-5.05,4.25 -5.9,3.95 -6.75,3.9 L-5.5,1.75 C-4.95,1.7 -4.25,1.75 -3.45,2.05 L-2.9,2.3z M-3.35,1.75 C-4.15,1.5 -4.8,1.4 -5.35,1.4 L-4.1,-0.4 C-3.4,-0.45 -2.6,-0.3 -1.8,0.05 L-2.8,2.1 -3.35,1.75z M-0.2,5.55 C-0.6,6.6 -1.35,7.55 -2.1,8.35 L-2.45,7.25 C-1.9,6.55 -1.3,5.65 -0.75,4.6 L-0.35,5.55 -0.2,5.55z M-2.65,2.45 C-1.85,3 -1.35,3.75 -0.95,4.3 -1.5,5.3 -2.05,6.25 -2.55,6.85 -2.85,6.2 -3.25,5.4 -3.95,4.9 L-2.65,2.45z M-5.9,1.8 L-7.05,3.9 C-7.45,3.9 -7.8,4 -8.15,4.1 L-7.25,2.3 C-7.2,2.3 -6.75,1.95 -5.9,1.8z M-8.35,4.55 C-8,4.35 -7.65,4.25 -7.2,4.2 L-7.95,5.75 C-8.15,6.25 -8.25,6.75 -8.35,7.2 -8.55,7.15 -8.7,7.25 -8.85,7.3 Q-9.15,7.45 -9.3,7.75 C-9.35,7.15 -9.2,6.45 -8.9,5.7 L-8.35,4.55z M-5.8,8 C-5.45,7.55 -4.8,6.4 -4.1,5.2 -3.4,5.65 -3.05,6.45 -2.75,7.2 L-3.65,8.35 C-3.95,8.6 -4.8,9.1 -5.55,9.45 -5.65,9.1 -5.85,8.75 -6.15,8.4 L-5.8,8z M-6.55,8.35 C-7.25,9.1 -7.75,9.45 -8,9.6 -8.1,9.3 -8.25,8.55 -8.1,7.5 -7.8,7.6 -7.45,7.75 -7.1,7.95 L-6.55,8.35z M-6.9,7.7 C-7.4,7.4 -7.75,7.3 -8.1,7.2 L-6.9,4.15 C-6.05,4.2 -5.2,4.5 -4.35,5.05 -5.05,6.25 -5.65,7.35 -5.95,7.8 L-6.3,8.15 -6.9,7.7z M-9.3,8.2 L-9.15,8.25 C-9.1,7.9 -8.95,7.65 -8.7,7.6 -8.6,7.5 -8.5,7.5 -8.4,7.5 -8.55,8.5 -8.45,9.25 -8.35,9.65 L-8.6,9.6 -9.05,8.95 -9.3,8.2z M-5.35,10.45 L-5.45,9.75 C-4.65,9.35 -3.75,8.8 -3.45,8.55 L-2.65,7.55 -2.4,8.55 -2.35,8.6 C-3.7,9.95 -5.35,10.85 -6.55,10.6 L-7.1,10.45 -7,10.35 -7.5,10.05 -6.75,10.1 C-6.45,10.1 -6.1,10 -5.75,9.85 L-5.65,10.45 -5.35,10.45z M-6.75,9.75 L-7.6,9.75 C-7.3,9.55 -6.9,9.15 -6.35,8.6 -6.1,8.9 -5.95,9.25 -5.8,9.6 L-6.75,9.75z"/>
      </g>
    </g>
  </g>
</svg>