<?xml version="1.0" encoding="utf-8"?>
<!-- Generator: flash2svg, http://dissentgraphics.com/tools/flash2svg -->
<svg xmlns:xlink="http://www.w3.org/1999/xlink" id="Avatar" image-rendering="auto" baseProfile="basic" version="1.1" x="0px" y="0px" width="68" height="126" xmlns="http://www.w3.org/2000/svg" viewBox="0 0 68 126">
  <defs>
    <radialGradient gradientUnits="userSpaceOnUse" color-interpolation="sRGB" r="15.25723973159079" cx="-0.699" cy="1.5" fx="-0.6989999999999998" fy="1.5" gradientTransform="matrix(0.25384521484375 0.967559814453125 0.967559814453125 -0.25384521484375 -1.949 2.55)" id="radialGradient">
      <stop stop-color="#FFF" stop-opacity="1" offset="0"/>
      <stop stop-color="#FFF" stop-opacity="0.40784313725490196" offset="1"/>
    </radialGradient>
    <radialGradient gradientUnits="userSpaceOnUse" color-interpolation="sRGB" r="15.262" cx="-2.598" cy="4.05" fx="-2.598" fy="4.05" gradientTransform="matrix(0.254 0.967 0.967 -0.254 -3.799 5)" id="radialGradient1">
      <stop stop-color="#FFF" stop-opacity="1" offset="0"/>
      <stop stop-color="#FFF" stop-opacity="0.40784313725490196" offset="1"/>
    </radialGradient>
  </defs>
  <g id="backLegUpperLeft4" overflow="visible">
    <g id="backLegUpperLeft3_0">
      <g id="element">
        <path id="path" fill="url(#radialGradient1)" d="M5.4,-0.1 C4.4,-1.65 2.45,-2.55 0.7,-2.55 L0.6,-2.6 0.55,-2.55 -0.1,-2.5 -0.2,-2.65 -0.5,-2.4 -1.2,-2.1 C-2.05,-1.5 -2.85,-0.6 -3.45,0.6 L-3.5,0.65 -3.45,0.65 C-3.9,1.5 -4.25,2.45 -4.45,3.5 L-4.5,3.5 -4.5,3.6 C-4.9,5.75 -4.85,8.25 -4.05,10.85 L-4.05,10.9 -4,10.95 C-3.75,11.7 -3.5,12.45 -3.15,13.2 -2.3,14.9 -1.7,15.2 -0.45,15.2 L1.8,15.1 C3.9,15.05 4.4,12.85 4.6,10.95 L4.65,10.9 4.6,10.85 4.85,8.6 4.9,8.6 4.9,8.55 C5.25,6.75 6.15,4.5 6,1.85 5.95,1.15 5.75,0.55 5.45,0 L5.45,-0.1 5.4,-0.1z M0.95,-0.2 C1.95,-0.05 2.8,0.3 3.5,0.75 3.4,1.7 3.2,2.75 2.95,3.75 2.4,3.45 1.75,3.2 1,3 L-0.65,2.8 -0.65,2.75 C-0.55,1.7 -0.3,0.65 0,-0.25 0.3,-0.25 0.6,-0.25 0.95,-0.2z M3.7,-1.35 L3.55,-1.3 C3.6,-0.8 3.6,-0.2 3.55,0.4 2.85,0 1.95,-0.35 1,-0.5 0.65,-0.55 0.4,-0.55 0.1,-0.55 0.35,-1.35 0.6,-1.95 0.75,-2.25 1.75,-2.25 2.8,-1.9 3.7,-1.35z M5.35,1.95 L5.45,0.7 C5.6,1.1 5.7,1.45 5.7,1.9 L5.7,2.5 5.35,1.95z M5.1,1.65 C4.75,1.25 4.35,0.9 3.85,0.6 3.9,-0.05 3.9,-0.7 3.85,-1.25 4.4,-0.9 4.8,-0.45 5.15,0.1 L5.1,1.65z M5.3,5.7 L4.75,5.05 C5,4.2 5.2,3.25 5.3,2.4 5.45,2.7 5.6,2.95 5.65,3.2 L5.7,3.2 C5.65,4.05 5.45,4.9 5.3,5.7z M3.8,0.9 C4.3,1.25 4.75,1.65 5.05,2.05 4.95,2.9 4.8,3.9 4.5,4.85 4.15,4.55 3.75,4.2 3.25,3.9 3.45,2.9 3.7,1.9 3.8,0.9z M2.9,4.05 L2.25,6.8 C1.75,6.6 1.2,6.5 0.55,6.45 L-0.9,6.4 -0.7,3.1 0.95,3.3 C1.7,3.45 2.35,3.75 2.9,4.05z M4.4,5.15 C4.1,5.95 3.95,6.75 3.8,7.5 3.5,7.3 3.05,7.05 2.55,6.85 L3.15,4.25 C3.65,4.55 4.05,4.85 4.4,5.15z M4.55,8.6 L4.35,10.65 3.8,10.35 3.8,10.15 C3.85,9.55 3.9,8.85 4.05,8.05 L4.55,8.6z M4.1,7.7 C4.2,6.95 4.35,6.2 4.6,5.4 L5.2,6.05 4.65,8.25 4.1,7.7z M2.2,7.1 L1.85,9.8 0.8,9.7 C0.2,9.6 -0.35,9.65 -0.85,9.7 -0.95,8.8 -1,7.75 -0.95,6.7 L0.55,6.75 C1.2,6.8 1.75,6.9 2.2,7.1z M1.8,10.1 L1.5,12.6 C1.25,12.55 0.95,12.55 0.6,12.6 L0.15,12.65 C-0.15,12.1 -0.45,11.5 -0.65,10.85 L-0.85,10 C-0.35,9.95 0.2,9.9 0.75,10 L1.8,10.1z M3.5,10.25 C3.15,10.1 2.7,10 2.15,9.9 L2.5,7.15 C3,7.4 3.45,7.6 3.75,7.85 3.6,8.7 3.55,9.5 3.5,10.15 L3.5,10.25z M3.35,11.6 C3.3,12.05 3.2,12.6 3.05,13.05 2.75,12.9 2.3,12.75 1.8,12.65 L2.1,10.2 C2.7,10.3 3.15,10.45 3.45,10.55 L3.35,11.6z M3.75,10.65 L4.3,11 C4.2,12 4,12.9 3.65,13.55 L3.3,13.25 C3.5,12.7 3.6,12.15 3.65,11.65 L3.75,10.65z M3.5,13.85 C3.1,14.45 2.6,14.8 1.8,14.8 L1.5,14.8 1.5,14.7 C2.4,14.55 2.9,14.1 3.15,13.55 3.35,13.65 3.45,13.75 3.5,13.85z M0.65,12.9 L1.45,12.9 1.25,14.25 0.3,12.95 0.65,12.9z M1.15,14.55 L1.25,14.7 1.4,14.85 0.55,14.85 C0.2,14.9 -0.1,14.9 -0.35,14.9 L0.9,14.65 1.15,14.55z M0.25,14.2 C0,14.1 -0.5,13.8 -1.05,13.3 -0.75,13.2 -0.4,13.05 0,13 0.35,13.6 0.75,14.05 1,14.35 L0.25,14.2z M0.25,14.5 C-0.3,14.6 -1.05,14.7 -1.6,14.7 -1.8,14.6 -1.95,14.45 -2.1,14.3 -2.05,14.1 -1.8,13.8 -1.3,13.45 -0.7,14.05 -0.15,14.4 0.15,14.45 L0.25,14.5z M1.75,12.95 C2.25,13 2.65,13.15 2.9,13.35 2.7,13.85 2.25,14.25 1.55,14.4 L1.75,12.95z M-1,-1.85 C-1.35,-1.45 -1.75,-0.9 -2.1,-0.15 L-2.9,0.2 C-2.35,-0.7 -1.7,-1.4 -1.05,-1.85 L-1,-1.85z M-0.35,-2.1 L0.4,-2.2 C0.25,-1.85 0,-1.25 -0.2,-0.55 -0.75,-0.55 -1.25,-0.45 -1.7,-0.3 -1.25,-1.2 -0.7,-1.8 -0.35,-2.1z M-0.95,2.8 C-1.6,2.8 -2.15,2.85 -2.65,2.95 L-2.4,1.6 -1.9,0.1 C-1.45,-0.1 -0.95,-0.2 -0.3,-0.25 -0.6,0.65 -0.85,1.7 -0.95,2.75 L-0.95,2.8z M-3,3.05 L-4.1,3.35 C-3.9,2.4 -3.6,1.55 -3.25,0.8 L-2.3,0.25 C-2.45,0.65 -2.6,1.05 -2.7,1.55 L-3,3.05z M-3.05,3.35 C-3.25,4.45 -3.4,5.6 -3.45,6.8 L-4.4,7.15 C-4.5,5.9 -4.4,4.75 -4.2,3.7 L-3.05,3.35z M-1,3.1 L-1.25,6.4 C-1.95,6.45 -2.6,6.6 -3.1,6.7 -3.05,5.7 -2.95,4.55 -2.7,3.3 -2.2,3.2 -1.65,3.1 -1,3.1z M-3.45,7.1 C-3.45,8.2 -3.4,9.25 -3.2,10.2 L-3.15,10.3 -3.8,10.65 C-4.1,9.55 -4.3,8.5 -4.4,7.45 L-3.45,7.1z M-3.05,10.6 C-2.7,11.7 -2.15,12.6 -1.55,13.25 -1.95,13.55 -2.2,13.85 -2.3,14.05 -2.5,13.8 -2.65,13.45 -2.85,13.05 -3.2,12.35 -3.45,11.65 -3.7,10.95 L-3.05,10.6z M-2.9,10.1 C-3.1,9.25 -3.15,8.2 -3.15,7 L-1.25,6.7 C-1.3,7.8 -1.25,8.8 -1.15,9.7 -1.85,9.8 -2.45,10 -2.9,10.2 L-2.9,10.1z M-0.95,10.95 C-0.75,11.6 -0.45,12.2 -0.15,12.7 -0.6,12.8 -0.95,12.95 -1.25,13.1 -1.85,12.45 -2.45,11.55 -2.8,10.45 -2.35,10.3 -1.8,10.1 -1.15,10 L-0.95,10.95z"/>
      </g>
    </g>
  </g>
</svg>