<?xml version="1.0" encoding="UTF-8" standalone="no"?>
<!-- Generator: flash2svg, http://dissentgraphics.com/tools/flash2svg -->

<svg
   xmlns:dc="http://purl.org/dc/elements/1.1/"
   xmlns:cc="http://creativecommons.org/ns#"
   xmlns:rdf="http://www.w3.org/1999/02/22-rdf-syntax-ns#"
   xmlns:svg="http://www.w3.org/2000/svg"
   xmlns="http://www.w3.org/2000/svg"
   xmlns:sodipodi="http://sodipodi.sourceforge.net/DTD/sodipodi-0.dtd"
   xmlns:inkscape="http://www.inkscape.org/namespaces/inkscape"
   id="Avatar"
   image-rendering="auto"
   version="1.1"
   x="0px"
   y="0px"
   width="9.9041843"
   height="15.5"
   viewBox="0 0 9.9041843 15.5"
   inkscape:version="0.48.4 r9939"
   sodipodi:docname="Avatar_sideLegUpperOffside3.svg">
  <metadata
     id="metadata3227">
    <rdf:RDF>
      <cc:Work
         rdf:about="">
        <dc:format>image/svg+xml</dc:format>
        <dc:type
           rdf:resource="http://purl.org/dc/dcmitype/StillImage" />
      </cc:Work>
    </rdf:RDF>
  </metadata>
  <sodipodi:namedview
     pagecolor="#ffffff"
     bordercolor="#666666"
     borderopacity="1"
     objecttolerance="10"
     gridtolerance="10"
     guidetolerance="10"
     inkscape:pageopacity="0"
     inkscape:pageshadow="2"
     inkscape:window-width="640"
     inkscape:window-height="480"
     id="namedview3225"
     showgrid="false"
     fit-margin-top="0"
     fit-margin-left="0"
     fit-margin-right="0"
     fit-margin-bottom="0"
     inkscape:zoom="1.8730159"
     inkscape:cx="39.104184"
     inkscape:cy="8.11506"
     inkscape:window-x="0"
     inkscape:window-y="0"
     inkscape:window-maximized="0"
     inkscape:current-layer="Avatar" />
  <defs
     id="defs3209">
    <radialGradient
       gradientUnits="userSpaceOnUse"
       color-interpolation="sRGB"
       r="8.0332794"
       cx="1.15"
       cy="6.5999999"
       fx="1.15"
       fy="6.5999999"
       gradientTransform="matrix(-0.9322052,0.3636322,0.35746765,1.0030823,-0.149,-0.399)"
       id="radialGradient">
      <stop
         stop-color="#FFF"
         stop-opacity="0.7058823529411765"
         offset="0"
         id="stop3212" />
      <stop
         stop-color="#FFF"
         stop-opacity="0.2980392156862745"
         offset="1"
         id="stop3214" />
    </radialGradient>
    <radialGradient
       gradientUnits="userSpaceOnUse"
       color-interpolation="sRGB"
       r="8.0380001"
       cx="1.052"
       cy="6.2550001"
       fx="1.052"
       fy="6.2550001"
       gradientTransform="matrix(-0.932,0.363,0.357,1.002,0,0)"
       id="radialGradient1">
      <stop
         stop-color="#FFF"
         stop-opacity="0.7058823529411765"
         offset="0"
         id="stop3217" />
      <stop
         stop-color="#FFF"
         stop-opacity="0.2980392156862745"
         offset="1"
         id="stop3219" />
    </radialGradient>
  </defs>
  <g
     id="sideLegUpperOffside4"
     overflow="visible"
     style="overflow:visible"
     transform="translate(5.104184,1.3)">
    <g
       id="sideLegUpperOffside3_0">
      <g
         id="element">
        <path
           id="path"
           d="M 0.3,-1.25 0.25,-1.3 -1.5,-1.2 c -0.8,0.05 -1.4,0.3 -1.85,0.7 l 0,-0.025 -0.05,-0.1 0,0.025 c -0.1,0 -0.2,0.1 -0.25,0.25 l 0,-0.025 -0.35,0.225 0,0.05 c -0.75,0.75 -1.15,1.7 -1.1,2.8 0,0.3 0.05,0.65 0.1,1 l 0,-0.025 -0.1,0.1 0.1,0.1 0,0.025 c 0.05,0.75 0.1,1.55 0.1,2.35 0.05,2.85 0.35,4.65 0.95,5.4 0.5,0.75 1.1,1.4 1.85,1.9 l 0,-0.025 0.275,0.25 0.05,-0.1 0.025,0.025 c 0.5,0.3 1,0.45 1.5,0.5 0.05,0 0.15,0 0.3,0 C 0.8,14 1.35,13.8 1.8,13.55 l -0.025,0 L 2,13.45 C 2.55,13 3.05,12.45 3.5,11.8 l 0.05,0 0,-0.05 C 3.9,11.1 4.2,10.3 4.45,9.35 l -0.025,0 0.1,-0.05 -0.1,-0.05 0.025,0 C 4.65,8.2 4.75,7.15 4.8,6.15 4.75,5 4.55,3.9 4.2,2.85 3.95,1.7 3.5,0.75 2.95,0.1 l -0.025,0 0.1,-0.05 -0.7,-0.525 -0.2,-0.35 -0.15,0.15 L 2,-0.65 c -0.65,-0.4 -1.2,-0.6 -1.7,-0.6 z m 0.325,0.875 -2.4,0.15 0.025,0.025 c 0.05,-0.45 0.2,-0.7 0.45,-0.85 L 0.15,-1.1 c 0.15,0.15 0.3,0.4 0.5,0.75 z M 0.7,-0.2 C 0.85,0.35 0.95,1.25 1,2.4 l 0.1,0.1 -0.2,0 C -0.05,2.55 -1.05,2.45 -2,2.25 l -0.025,0 -0.05,-0.2 0.025,0 c -0.05,-0.95 0,-1.7 0.1,-2.2 0.85,-0.05 1.7,-0.1 2.5,-0.05 l -0.025,0 0.15,0 z M 0.55,-1.05 c 0.55,0.1 1.1,0.35 1.65,0.75 l 0.025,0.025 -0.05,-0.05 0.05,0.05 -1.4,-0.15 L 0.55,-1.05 z M 3.775,2.4 3.95,2.875 4.225,4.2 4.25,4.2 C 4.2,4.35 4,4.45 3.65,4.6 L 3.625,4.6 3.175,2.475 3.2,2.5 C 3.55,2.45 3.75,2.45 3.8,2.4 z m 0,-0.25 -0.65,0.2 0.025,0 C 3.1,1.55 2.9,0.8 2.6,0.1 3.1,0.65 3.5,1.35 3.8,2.15 z M 1.35,2.4 0.925,-0.2 0.95,-0.2 C 1.55,-0.2 2,-0.15 2.35,0 2.55,0.45 2.75,1.2 3,2.35 L 2.975,2.35 1.375,2.5 1.35,2.4 z M 1.175,2.675 1.6,4.9 0.425,5 0.45,5 C -0.2,4.95 -0.95,4.85 -1.8,4.7 l -0.175,-2.2 0.025,0 c 1.05,0.15 2,0.25 2.95,0.2 l -0.025,-0.025 0.2,0 z M 1.6,5.1 c 0.05,0.55 0.1,1.3 0.15,2.3 l -1.8,0 C -0.55,7.35 -1.1,7.3 -1.65,7.15 l -0.025,0 -0.075,-2.2 c 0.85,0.1 1.6,0.15 2.2,0.2 L 1.6,5.1 z M 4.325,4.5 4.525,6.675 4.55,6.7 C 4.4,6.75 4.15,6.9 3.8,7.05 l -0.025,0 -0.25,-2.25 0.8,-0.3 z M 1.8,4.9 1.375,2.625 2.975,2.475 3.375,4.7 3.4,4.7 C 2.95,4.75 2.4,4.85 1.8,4.9 z m 1.6,0 C 3.5,5.7 3.55,6.45 3.5,7.15 L 3.475,7.15 1.95,7.4 C 1.9,6.2 1.85,5.45 1.8,5.1 2.4,5.05 2.95,4.95 3.4,4.9 z M 4.55,7 C 4.5,7.95 4.35,8.65 4.2,9.2 4,9.4 3.75,9.55 3.5,9.6 3.6,9 3.7,8.25 3.75,7.35 4.05,7.3 4.3,7.15 4.55,7 z M 1.875,10.075 3.225,9.85 3.175,10.325 3.2,10.35 c -0.1,0.5 -0.25,1 -0.5,1.55 C 2.35,12.05 2,12.1 1.55,12.15 L 1.875,10.075 z M 0.55,10 C 0.05,9.9 -0.65,9.85 -1.6,9.8 l 0,-0.025 -0.025,-2.375 0.025,0 c 0.55,0.15 1.05,0.2 1.5,0.2 0.75,0 1.35,0 1.85,0.05 L 1.575,9.875 0.55,9.975 z m 1.05,0.1 c -0.05,0.75 -0.2,1.4 -0.4,2.05 -0.5,0 -1.1,0 -1.8,0.05 l 0,-0.025 -0.525,-0.1 0.025,0.025 c -0.2,-0.65 -0.35,-1.35 -0.4,-2.15 0.65,0.15 1.35,0.25 2,0.25 l 0,-0.025 1.075,-0.1 z m 1.45,1.65 0.475,-1.95 0.6,-0.25 0.025,0 C 4,10.3 3.7,11 3.3,11.6 L 3.05,11.75 z M 3.475,7.4 3.275,9.65 1.825,9.875 1.95,7.65 C 2.5,7.6 3,7.5 3.5,7.4 z m -3.225,6.4 -0.425,0.125 -0.2,0 0.025,0.025 C -0.6,13.55 -0.8,13 -0.95,12.35 l -0.025,-0.025 0.425,0.05 0,0.025 c 0.6,0.05 1.2,0.1 1.75,0.05 -0.3,0.75 -0.6,1.2 -0.95,1.35 z M 0.8,13.65 C 1.05,13.4 1.25,13 1.45,12.4 1.95,12.35 2.3,12.25 2.5,12.2 2.35,12.55 2.1,12.95 1.75,13.3 1.3,13.5 1,13.6 0.8,13.65 z M -2.075,-0.275 -3.45,-0.2 c 0.35,-0.35 0.95,-0.6 1.7,-0.75 l -0.325,0.675 z M -2.275,2.2 -3.95,1.8 c 0,-0.75 0.1,-1.3 0.35,-1.75 l 1.475,-0.15 0.025,0 C -2.25,0.7 -2.3,1.4 -2.25,2 l -0.025,0 0,0.2 z M -4.05,1.7 -4.7,1.575 -4.7,1.6 c 0.25,-0.55 0.5,-1.05 0.8,-1.4 -0.15,0.45 -0.2,0.95 -0.15,1.5 z m -0.1,0.2 0.175,2.175 -0.775,-0.4 0,0.025 C -4.9,3 -4.9,2.35 -4.7,1.7 l 0.55,0.2 z m 0.175,2.375 0.15,1.975 -0.825,-0.5 -0.05,-1.825 0.725,0.35 z M -3.65,4.4 c 0.45,0.2 1,0.35 1.65,0.45 l 0.125,2.25 0.025,0 c -0.45,-0.15 -1,-0.4 -1.7,-0.7 l -0.025,0 -0.05,-1.925 -0.05,-0.1 z M -3.7,4.2 C -3.85,3.45 -3.95,2.7 -3.9,2 L -2.275,2.45 -2,4.625 -2,4.65 C -2.35,4.55 -2.95,4.4 -3.7,4.2 z m 0.175,2.5 1.65,0.55 0,2.425 L -1.85,9.7 C -2.6,9.5 -3.1,9.35 -3.35,9.2 l 0,-0.025 L -3.525,6.7 z M -3.6,9.275 -3.4,10.9 -3.25,11.525 -4.075,10.95 -4.125,11 -4.1,11 C -4.3,10.5 -4.4,9.8 -4.45,8.85 L -4.475,8.825 -3.6,9.275 z m -0.075,-0.25 -0.975,-0.45 0,-2.525 0.925,0.5 0.05,2.475 z M -3.35,9.45 c 0.8,0.25 1.3,0.35 1.5,0.4 0.05,0.75 0.2,1.45 0.55,2.2 -0.5,-0.05 -1.05,-0.2 -1.65,-0.4 l -0.025,-0.025 -0.375,-2.2 z m 0.2,2.325 0.625,1.075 0.025,0 c -0.45,-0.3 -0.9,-0.75 -1.3,-1.3 l 0,-0.025 -0.05,-0.15 0.7,0.4 z m 1.875,0.55 0.675,1.6 0,0.025 C -1,13.8 -1.45,13.6 -1.9,13.35 -2.25,13 -2.55,12.5 -2.8,11.9 l -0.025,-0.025 1.55,0.45 z"
           inkscape:connector-curvature="0"
           style="fill:url(#radialGradient1)" />
      </g>
    </g>
  </g>
</svg>
