<?xml version="1.0" encoding="UTF-8" standalone="no"?>
<!-- Generator: flash2svg, http://dissentgraphics.com/tools/flash2svg -->

<svg
   xmlns:dc="http://purl.org/dc/elements/1.1/"
   xmlns:cc="http://creativecommons.org/ns#"
   xmlns:rdf="http://www.w3.org/1999/02/22-rdf-syntax-ns#"
   xmlns:svg="http://www.w3.org/2000/svg"
   xmlns="http://www.w3.org/2000/svg"
   xmlns:sodipodi="http://sodipodi.sourceforge.net/DTD/sodipodi-0.dtd"
   xmlns:inkscape="http://www.inkscape.org/namespaces/inkscape"
   id="Avatar"
   image-rendering="auto"
   version="1.1"
   x="0px"
   y="0px"
   width="7.8020835"
   height="17.42732"
   viewBox="0 0 7.8020835 17.42732"
   inkscape:version="0.48.4 r9939"
   sodipodi:docname="Avatar_sideArmLowerClose3.svg">
  <metadata
     id="metadata21">
    <rdf:RDF>
      <cc:Work
         rdf:about="">
        <dc:format>image/svg+xml</dc:format>
        <dc:type
           rdf:resource="http://purl.org/dc/dcmitype/StillImage" />
      </cc:Work>
    </rdf:RDF>
  </metadata>
  <sodipodi:namedview
     pagecolor="#ffffff"
     bordercolor="#666666"
     borderopacity="1"
     objecttolerance="10"
     gridtolerance="10"
     guidetolerance="10"
     inkscape:pageopacity="0"
     inkscape:pageshadow="2"
     inkscape:window-width="640"
     inkscape:window-height="472"
     id="namedview19"
     showgrid="false"
     fit-margin-top="0"
     fit-margin-left="0"
     fit-margin-right="0"
     fit-margin-bottom="0"
     inkscape:zoom="1.8730159"
     inkscape:cx="38.152083"
     inkscape:cy="40.985507"
     inkscape:window-x="216"
     inkscape:window-y="103"
     inkscape:window-maximized="0"
     inkscape:current-layer="Avatar" />
  <defs
     id="defs3">
    <radialGradient
       gradientUnits="userSpaceOnUse"
       color-interpolation="sRGB"
       r="12.42028"
       cx="0.1"
       cy="2.2"
       fx="0.1"
       fy="2.2"
       gradientTransform="matrix(-0.00895691,1,0.6892395,0.02191162,-1.399,2.05)"
       id="radialGradient">
      <stop
         stop-color="#FFF"
         stop-opacity="0.7058823529411765"
         offset="0"
         id="stop6" />
      <stop
         stop-color="#FFF"
         stop-opacity="0.2980392156862745"
         offset="1"
         id="stop8" />
    </radialGradient>
    <radialGradient
       gradientUnits="userSpaceOnUse"
       color-interpolation="sRGB"
       r="12.421"
       cx="-1.249"
       cy="4.25"
       fx="-1.249"
       fy="4.25"
       gradientTransform="matrix(-0.009,1,0.689,0.022,-2.699,3.3)"
       id="radialGradient1">
      <stop
         stop-color="#FFF"
         stop-opacity="0.7058823529411765"
         offset="0"
         id="stop11" />
      <stop
         stop-color="#FFF"
         stop-opacity="0.2980392156862745"
         offset="1"
         id="stop13" />
    </radialGradient>
  </defs>
  <g
     id="sideArmLowerClose4"
     overflow="visible"
     style="overflow:visible"
     transform="translate(4.1520833,1.4)">
    <g
       id="sideArmLowerClose3_0">
      <g
         id="element">
        <path
           id="path"
           d="M 3.65,7.4 C 3.65,5.95 3.55,4.55 3.25,3.2 2.9,1.6 2.35,0.45 1.65,-0.35 1.15,-1 0.5,-1.35 -0.2,-1.4 l -0.55,0.1 c -0.9,0.55 -1.7,2.4 -2.3,5.55 -1.15,5.45 -1.4,8.65 -0.75,9.55 0.9,1.05 1.9,1.7 3.05,2.05 L -0.9,15.9 c 0.1,0.05 0.25,0.05 0.4,0 0.5,0.2 1.1,0.15 1.6,-0.05 l 0,-0.05 C 1.85,15.45 2.45,14.35 2.9,12.6 3.3,11.15 3.5,9.45 3.65,7.4 z M 1.55,-0.2 1.9,0.35 1.3,0.3 0.75,-0.65 0.25,-1.05 c 0.5,0.15 0.9,0.4 1.3,0.85 z m -1,-0.25 0.5,0.7 -0.7,0 -0.2,-1.05 0.4,0.35 z m 1.5,1.1 c 0.25,0.4 0.5,0.95 0.7,1.6 L 2.05,2 C 1.85,1.5 1.7,1.05 1.5,0.55 l 0.55,0.1 z M 1.2,0.55 C 1.4,1 1.6,1.45 1.75,1.95 L 0.5,1.85 0.35,0.55 1.2,0.55 z M 0.15,1.8 C -0.45,1.85 -1,1.9 -1.6,2 L -1.05,0.7 0.05,0.55 0.15,1.8 z M 1.9,2.3 2.25,3.95 C 1.5,3.75 0.9,3.6 0.55,3.6 L 0.5,2.1 1.9,2.3 z m 0.35,1.95 c 0.1,0.5 0.2,1.2 0.2,2.25 C 1.7,6.15 1,6 0.5,5.95 L 0.55,3.9 c 0.8,0.1 1.4,0.25 1.7,0.35 z M 0.2,5.9 C -0.7,5.75 -1.65,5.8 -2.7,5.95 -2.65,5.4 -2.5,4.75 -2.3,4 -1.35,3.85 -0.5,3.8 0.25,3.85 L 0.2,5.9 z M 3.25,4.65 C 3.35,5.4 3.35,6.1 3.4,6.95 L 2.85,6.6 l -0.2,0 c 0,-0.75 0,-1.45 -0.1,-2.25 l 0.7,0.3 z M 2.5,4.05 2.15,2.4 2.8,2.55 C 3.05,3.15 3.15,3.7 3.25,4.3 L 2.5,4.05 z M 0.25,3.55 c -0.85,-0.05 -1.7,0 -2.5,0.15 l 0.5,-1.4 C -1.2,2.2 -0.55,2.15 0.2,2.1 l 0.05,1.45 z m 3,5.65 C 3.15,9.05 2.95,9 2.7,8.9 l -0.1,-0.05 0.05,-2 0.05,0 0.7,0.35 -0.15,2 z M 2.3,8.75 C 1.7,8.45 1,8.25 0.35,8.15 l 0.1,-2 c 0.75,0.15 1.4,0.35 2,0.65 l 0,0.45 -0.15,1.5 z M 2.3,9 2,11.5 1.65,11.3 C 1.15,11.05 0.6,10.8 0,10.65 L 0.3,8.45 C 1.1,8.6 1.75,8.75 2.3,9 z M 1.95,11.75 1.5,13.35 C 0.9,13 0.25,12.85 -0.35,12.75 l 0.3,-1.8 c 0.7,0.2 1.25,0.35 1.65,0.65 l 0.35,0.15 z m 0.85,0.3 C 2.65,11.85 2.4,11.7 2.25,11.6 L 2.6,9.15 3.25,9.45 C 3.1,10.45 3,11.3 2.8,12.05 z M 2.75,12.3 C 2.5,13.2 2.4,13.75 2.3,13.8 l -0.45,-0.3 -0.1,-0.05 0.4,-1.6 0.6,0.45 z M 0.05,8.1 C -0.95,8 -1.9,8 -2.85,8.25 l 0.1,-2 C -1.7,6.1 -0.75,6 0.2,6.15 L 0.05,8.1 z m 1.7,5.65 0.5,0.3 c -0.4,0.8 -0.8,1.3 -1.2,1.5 L 1,15.65 c -0.15,0.05 -0.4,0.15 -0.7,0.1 0.5,-0.25 0.95,-0.9 1.35,-2 l 0.1,0 z M 0.1,15.55 -0.45,15.65 -1,15.5 -0.4,13 c 0.65,0.1 1.3,0.35 1.85,0.6 -0.35,1.05 -0.8,1.65 -1.3,1.9 L 0.1,15.55 z M -0.15,-1.1 C -0.4,-1 -0.6,-0.9 -0.65,-0.7 L -1.2,0.5 -1.75,0.55 c 0.4,-0.9 0.75,-1.4 1.15,-1.6 0.15,-0.05 0.3,-0.05 0.4,-0.05 l 0.05,0 z m 0,0.3 0.15,1.15 -0.95,0.05 0.5,-0.9 0.3,-0.3 z m -1.2,1.55 -0.5,1.3 -0.5,0.1 0.5,-1.25 0.5,-0.15 z m -0.6,1.6 -0.45,1.45 -0.35,0.05 0.35,-1.4 0.45,-0.1 z m -1.25,3.8 0.4,-1.8 c 0,-0.05 0,-0.1 0.05,-0.2 L -2.5,4.05 C -2.65,4.65 -2.8,5.3 -2.95,6 L -3.2,6.15 z m -0.05,0.2 0.3,-0.1 -0.2,2.05 -0.5,0.1 0.4,-2.05 z m 0.1,2.15 -0.25,2.2 -0.55,0.1 0.3,-2.15 0.5,-0.15 z m -0.3,2.45 c -0.1,1.1 -0.15,1.75 -0.1,2.05 l -0.3,0.1 c -0.1,-0.5 -0.1,-1.1 -0.1,-2.05 l 0.5,-0.1 z m 3.15,-0.05 -0.35,1.8 c -0.9,-0.1 -1.85,-0.05 -2.7,0.25 0,-0.7 0,-1.4 0.15,-2.05 0.9,-0.2 1.9,-0.2 2.9,0 z m -2.95,-0.25 0.3,-2.2 c 1.15,-0.15 2.1,-0.2 2.9,-0.05 l -0.2,2.2 c -1.05,-0.2 -2.05,-0.2 -3,0.05 z m 1.95,4.75 c -0.5,-0.2 -0.95,-0.55 -1.35,-0.85 l -0.1,-0.1 c -0.3,-0.25 -0.45,-0.7 -0.6,-1.25 0.95,-0.25 1.8,-0.3 2.6,-0.2 l -0.55,2.4 z m -2.1,-1.6 -0.25,-0.2 -0.15,-0.3 0.25,-0.1 0.15,0.6 z"
           inkscape:connector-curvature="0"
           style="fill:url(#radialGradient1)" />
      </g>
    </g>
  </g>
</svg>
