<?xml version="1.0" encoding="UTF-8" standalone="no"?>
<!-- Generator: flash2svg, http://dissentgraphics.com/tools/flash2svg -->

<svg
   xmlns:dc="http://purl.org/dc/elements/1.1/"
   xmlns:cc="http://creativecommons.org/ns#"
   xmlns:rdf="http://www.w3.org/1999/02/22-rdf-syntax-ns#"
   xmlns:svg="http://www.w3.org/2000/svg"
   xmlns="http://www.w3.org/2000/svg"
   xmlns:sodipodi="http://sodipodi.sourceforge.net/DTD/sodipodi-0.dtd"
   xmlns:inkscape="http://www.inkscape.org/namespaces/inkscape"
   id="Avatar"
   image-rendering="auto"
   version="1.1"
   x="0px"
   y="0px"
   width="10.363884"
   height="12.356371"
   viewBox="0 0 10.363884 12.356371"
   inkscape:version="0.48.4 r9939"
   sodipodi:docname="Avatar_backArmLowerRight3.svg">
  <metadata
     id="metadata3017">
    <rdf:RDF>
      <cc:Work
         rdf:about="">
        <dc:format>image/svg+xml</dc:format>
        <dc:type
           rdf:resource="http://purl.org/dc/dcmitype/StillImage" />
      </cc:Work>
    </rdf:RDF>
  </metadata>
  <sodipodi:namedview
     pagecolor="#ffffff"
     bordercolor="#666666"
     borderopacity="1"
     objecttolerance="10"
     gridtolerance="10"
     guidetolerance="10"
     inkscape:pageopacity="0"
     inkscape:pageshadow="2"
     inkscape:window-width="640"
     inkscape:window-height="480"
     id="namedview3015"
     showgrid="false"
     fit-margin-top="0"
     fit-margin-left="0"
     fit-margin-right="0"
     fit-margin-bottom="0"
     inkscape:zoom="1.8730159"
     inkscape:cx="37.054508"
     inkscape:cy="-60.133347"
     inkscape:window-x="47"
     inkscape:window-y="66"
     inkscape:window-maximized="0"
     inkscape:current-layer="Avatar" />
  <defs
     id="defs2999">
    <radialGradient
       gradientUnits="userSpaceOnUse"
       color-interpolation="sRGB"
       r="9.171833"
       cx="0.80000001"
       cy="-6.1989999"
       fx="0.80000001"
       fy="-6.1989999"
       gradientTransform="matrix(-0.54251099,0.84075928,-0.91767883,-0.60728455,-4.399,-10.549)"
       id="radialGradient">
      <stop
         stop-color="#FFF"
         stop-opacity="1"
         offset="0"
         id="stop3002" />
      <stop
         stop-color="#FFF"
         stop-opacity="0.40784313725490196"
         offset="1"
         id="stop3004" />
    </radialGradient>
    <radialGradient
       gradientUnits="userSpaceOnUse"
       color-interpolation="sRGB"
       r="9.1780005"
       cx="-3.549"
       cy="-16.702"
       fx="-3.549"
       fy="-16.702"
       gradientTransform="matrix(-0.542,0.84,-0.917,-0.607,-16.249,-13.199)"
       id="radialGradient1">
      <stop
         stop-color="#FFF"
         stop-opacity="1"
         offset="0"
         id="stop3007" />
      <stop
         stop-color="#FFF"
         stop-opacity="0.40784313725490196"
         offset="1"
         id="stop3009" />
    </radialGradient>
  </defs>
  <g
     id="backArmLowerRight4"
     overflow="visible"
     style="overflow:visible"
     transform="translate(3.0545085,10.106371)">
    <g
       id="backArmLowerRight3_0">
      <g
         id="element">
        <path
           id="path"
           d="m 5.1,-9.5 0,-0.05 -0.1,0 c -0.8,-0.35 -1.4,-0.6 -1.95,-0.55 -1.15,-0.05 -2,0.8 -2.65,2.3 -0.45,1 -1,1.95 -1.65,2.55 -0.75,0.75 -1.25,1.4 -1.4,1.9 -0.2,0.1 -0.35,0.4 -0.35,0.75 l 0.05,0.1 c -0.1,0.5 -0.15,1.1 -0.05,1.65 0,0.35 0.15,0.65 0.35,1.1 0.3,0.95 0.85,1.5 1.55,1.55 0.75,0.15 1.35,0.3 1.8,0.3 l 0.05,0 0.05,0.15 0.05,0 C 1.1,2.25 1.25,2.2 1.4,2.05 L 2,1.6 C 2.8,0.85 3.5,0.15 4.15,-0.5 4.55,-1 5.05,-1.6 5.7,-2.55 l 0.15,0 -0.1,-0.3 1.1,-1.75 C 7.2,-5.45 7.35,-6.15 7.3,-6.8 7.15,-7.2 7.05,-7.6 6.75,-7.95 l 0,-0.1 C 6.5,-8.6 5.9,-9.1 5.1,-9.5 z m 0.2,2.05 -0.65,-0.4 0.4,-1.35 c 0.6,0.25 1.15,0.75 1.4,1.3 C 6.5,-7.55 6.4,-7.05 6.25,-6.4 5.9,-6.95 5.55,-7.2 5.3,-7.45 z M 4.8,-9.35 4.35,-7.9 C 3.45,-8.35 2.65,-8.55 1.9,-8.5 2.05,-9 2.4,-9.3 2.7,-9.5 L 3.05,-9.8 C 3.5,-9.85 4.1,-9.65 4.8,-9.35 z m -3.45,1.4 c -0.2,0.55 -0.5,1.1 -0.8,1.75 l -0.6,-0.05 0.8,-1.65 0.65,-0.15 -0.05,0.1 z m 0.4,-0.25 c 0.75,-0.15 1.55,0.05 2.6,0.5 -0.3,0.5 -0.6,1 -0.85,1.45 L 3.1,-5.6 C 2.25,-6 1.55,-6.2 0.85,-6.25 1.1,-6.7 1.4,-7.25 1.65,-7.9 l 0.1,-0.3 z M 0.95,-8.25 C 1.3,-9 1.8,-9.45 2.4,-9.7 2.05,-9.45 1.7,-9.05 1.55,-8.45 l -0.6,0.2 z m 3.95,4.3 -1.4,2 C 3.15,-2.35 2.75,-2.7 2.4,-3.05 l -0.2,-0.1 c 0.35,-0.9 0.7,-1.65 1,-2.1 l 0.35,0.15 c 0.6,0.3 1.05,0.7 1.35,1.15 z M 3.35,-5.5 3.75,-6.1 C 4,-6.45 4.25,-6.9 4.55,-7.55 l 0.6,0.3 C 5.5,-7.05 5.8,-6.6 6.1,-6 5.85,-5.35 5.55,-4.9 5.35,-4.6 L 5.1,-4.25 C 4.7,-4.65 4.15,-5.1 3.7,-5.3 L 3.35,-5.5 z M 2.2,-2.8 c 0.5,0.3 0.85,0.7 1.2,1.05 C 2.6,-0.75 2,0 1.55,0.4 1.35,-0.05 1.2,-0.45 0.85,-0.9 1.25,-1.25 1.5,-1.6 1.65,-1.95 l 0.4,-0.95 0.15,0.1 z m -0.8,0.75 c -0.05,0.2 -0.3,0.55 -0.75,0.9 l -0.2,-0.2 c -0.6,-0.5 -1.3,-0.95 -2.05,-1.1 0.1,-0.5 0.4,-0.95 0.75,-1.45 0.85,0.1 1.8,0.45 2.65,0.9 l -0.4,0.95 z m -0.95,1.1 c -0.75,0.55 -1.5,0.85 -2.05,0.9 l 0,-0.1 -0.15,0.05 -0.1,-0.85 C -1.9,-1.3 -1.9,-1.75 -1.7,-2.2 c 0.7,0.1 1.35,0.5 2,1.05 l 0.15,0.2 z m 3.45,0.3 C 3.25,0.15 2.55,0.8 1.8,1.45 L 1.6,1.55 C 1.65,1.3 1.65,1 1.65,0.8 c 0.4,-0.45 1.1,-1.25 1.95,-2.25 0.15,0.25 0.25,0.5 0.3,0.8 z m -0.2,-1.05 1.5,-2 c 0.15,0.25 0.25,0.55 0.3,0.8 C 5.2,-2.4 4.7,-1.75 4.1,-0.95 4.05,-1.1 3.9,-1.35 3.7,-1.7 z M 1.95,-3.15 C 1,-3.7 0.15,-4.05 -0.7,-4.15 l 0,-0.2 0.35,-0.3 c 0.4,-0.5 0.8,-0.9 1.05,-1.35 0.6,0 1.35,0.15 2.3,0.6 -0.3,0.45 -0.7,1.15 -1.05,2.25 z M 6.6,-4.75 C 6.25,-4.2 5.95,-3.7 5.65,-3.2 5.55,-3.55 5.4,-3.8 5.3,-4 l 0.3,-0.45 c 0.25,-0.3 0.4,-0.65 0.7,-1 0.05,0.25 0.1,0.45 0.15,0.7 l 0.15,0 z M 6.4,-6 6.8,-7.5 C 7.05,-6.8 6.95,-6 6.6,-5.05 6.6,-5.4 6.5,-5.75 6.4,-6 z M 1.1,0.95 1.35,0.95 1.25,1.9 0.65,1.85 C 0.6,1.85 0.3,1.85 -0.3,1.7 L -0.25,1.6 C -0.85,1.35 -1.25,1 -1.5,0.55 -0.95,0.9 -0.35,1.15 0.3,1.2 0.55,1.15 0.8,1.1 1.1,0.95 z M 1,0.8 C 0.3,1.05 -0.55,0.85 -1.5,0.25 -0.8,0.15 -0.05,-0.2 0.6,-0.8 1,-0.35 1.15,0.2 1.25,0.7 L 1,0.8 z M -0.35,-5.9 0.25,-6 c -0.2,0.45 -0.5,0.75 -0.8,1.15 l -0.45,0.6 -0.65,-0.05 1.3,-1.6 z m -1.6,1.9 0.75,-0.05 -0.6,1.5 c -0.3,-0.05 -0.55,-0.05 -0.85,-0.1 0.1,-0.3 0.2,-0.55 0.25,-0.6 L -1.95,-4 z m -0.75,1.7 c 0.15,0 0.4,0 0.75,0.05 -0.2,0.5 -0.2,0.95 -0.15,1.3 l 0.15,0.8 C -2.4,-0.4 -2.7,-0.8 -2.75,-1.15 -2.85,-1.6 -2.8,-2 -2.7,-2.3 z M -0.85,1.55 -1.2,1.5 C -1.55,1.4 -1.85,1.2 -2.15,0.8 l -0.1,-0.15 0.35,-0.3 c 0.1,0.45 0.45,0.85 1.05,1.2 z m -1.6,-1.2 -0.15,-0.8 0.45,0.6 -0.3,0.2 z"
           inkscape:connector-curvature="0"
           style="fill:url(#radialGradient1)" />
      </g>
    </g>
  </g>
</svg>
