<?xml version="1.0" encoding="UTF-8" standalone="no"?>
<!-- Generator: flash2svg, http://dissentgraphics.com/tools/flash2svg -->

<svg
   xmlns:dc="http://purl.org/dc/elements/1.1/"
   xmlns:cc="http://creativecommons.org/ns#"
   xmlns:rdf="http://www.w3.org/1999/02/22-rdf-syntax-ns#"
   xmlns:svg="http://www.w3.org/2000/svg"
   xmlns="http://www.w3.org/2000/svg"
   xmlns:sodipodi="http://sodipodi.sourceforge.net/DTD/sodipodi-0.dtd"
   xmlns:inkscape="http://www.inkscape.org/namespaces/inkscape"
   id="Avatar"
   image-rendering="auto"
   version="1.1"
   x="0px"
   y="0px"
   width="10.179626"
   height="14.05"
   viewBox="0 0 10.179626 14.05"
   inkscape:version="0.48.4 r9939"
   sodipodi:docname="Avatar_backLegLowerLeft3.svg">
  <metadata
     id="metadata21">
    <rdf:RDF>
      <cc:Work
         rdf:about="">
        <dc:format>image/svg+xml</dc:format>
        <dc:type
           rdf:resource="http://purl.org/dc/dcmitype/StillImage" />
      </cc:Work>
    </rdf:RDF>
  </metadata>
  <sodipodi:namedview
     pagecolor="#ffffff"
     bordercolor="#666666"
     borderopacity="1"
     objecttolerance="10"
     gridtolerance="10"
     guidetolerance="10"
     inkscape:pageopacity="0"
     inkscape:pageshadow="2"
     inkscape:window-width="640"
     inkscape:window-height="480"
     id="namedview19"
     showgrid="false"
     fit-margin-top="0"
     fit-margin-left="0"
     fit-margin-right="0"
     fit-margin-bottom="0"
     inkscape:zoom="1.8730159"
     inkscape:cx="36.94411"
     inkscape:cy="-16.07038"
     inkscape:window-x="0"
     inkscape:window-y="0"
     inkscape:window-maximized="0"
     inkscape:current-layer="Avatar" />
  <defs
     id="defs3">
    <radialGradient
       gradientUnits="userSpaceOnUse"
       color-interpolation="sRGB"
       r="10.286922"
       cx="1.2"
       cy="1.9"
       fx="1.2"
       fy="1.9"
       gradientTransform="matrix(0.27316284,0.96269226,0.96269226,-0.27316284,-0.999,1.25)"
       id="radialGradient">
      <stop
         stop-color="#FFF"
         stop-opacity="1"
         offset="0"
         id="stop6" />
      <stop
         stop-color="#FFF"
         stop-opacity="0.40784313725490196"
         offset="1"
         id="stop8" />
    </radialGradient>
    <radialGradient
       gradientUnits="userSpaceOnUse"
       color-interpolation="sRGB"
       r="10.294"
       cx="0.252"
       cy="3.151"
       fx="0.252"
       fy="3.151"
       gradientTransform="matrix(0.273,0.962,0.962,-0.273,-1.799,2.45)"
       id="radialGradient1">
      <stop
         stop-color="#FFF"
         stop-opacity="1"
         offset="0"
         id="stop11" />
      <stop
         stop-color="#FFF"
         stop-opacity="0.40784313725490196"
         offset="1"
         id="stop13" />
    </radialGradient>
  </defs>
  <g
     id="backLegLowerLeft4"
     overflow="visible"
     style="overflow:visible"
     transform="translate(2.9441095,1.1)">
    <g
       id="backLegLowerLeft3_0">
      <g
         id="element">
        <path
           id="path"
           d="M 2.25,-1.05 1.35,-1.1 C 0.5,-1.1 -0.6,-1 -1.5,-0.8 l -0.1,0 -0.05,0.05 c -0.5,0.15 -0.9,0.35 -1.05,0.6 -0.35,0.65 -0.3,1.75 0,3.25 l -0.05,0 0.05,0.05 0.75,3.35 c 0.7,3.25 3.3,6.45 5.5,6.45 l 0.05,0 C 7,12.9 7.55,10.35 7.1,8.3 6.6,6.2 6.35,4.7 5.4,2.85 4.45,0.95 4.2,-0.75 2.25,-1.05 z M 2.2,-0.75 2.15,-0.6 C 2.6,-0.3 2.9,0.4 3.2,1.05 2.5,0.95 1.75,0.95 0.85,1.15 l -0.5,-1.9 1.85,0 z M 5.65,4.1 C 5.4,3.95 5.05,3.7 4.55,3.55 l -0.9,-2.1 c 0.3,0.1 0.6,0.25 0.8,0.45 l 0.1,-0.15 0.55,1.2 c 0.25,0.4 0.4,0.8 0.55,1.15 z M 4.45,1.55 C 4.2,1.35 3.9,1.2 3.55,1.15 3.25,0.45 2.95,-0.25 2.5,-0.65 3.55,-0.4 3.95,0.45 4.45,1.55 z M 2.2,3.7 C 3.05,3.55 3.75,3.65 4.3,3.8 L 5.05,6.15 C 4.25,6.05 3.3,6.15 2.4,6.5 L 1.6,3.85 2.2,3.7 z M 1.55,3.6 0.95,1.4 c 0.9,-0.15 1.7,-0.15 2.35,0 L 4.2,3.45 C 3.65,3.35 2.95,3.3 2.15,3.4 L 1.55,3.6 z M 1.25,3.65 C 0.4,4 -0.3,4.55 -0.8,5.05 L -1.1,4 -1.35,2.4 c 0.55,-0.35 1.25,-0.75 2,-0.9 l 0.6,2.15 z M 2.2,6.9 c 0.45,1.35 0.85,2.55 1.1,3.05 l 0.3,0.5 c -0.4,0.3 -0.65,0.6 -0.85,0.9 C 2.1,10.9 1.4,10.25 1.15,9.9 L 0.45,8.6 C 0.9,7.95 1.45,7.2 2.2,6.9 z M 0.35,8.25 C 0,7.5 -0.35,6.5 -0.7,5.4 -0.2,4.9 0.45,4.3 1.35,3.95 L 2.1,6.6 C 1.35,6.95 0.75,7.6 0.35,8.25 z m 3.45,2 L 3.55,9.8 C 3.3,9.3 2.9,8.15 2.5,6.8 3.4,6.45 4.35,6.3 5.15,6.45 l 0.4,1.8 0.15,1.4 C 5.35,9.65 5,9.7 4.45,9.9 L 3.8,10.25 z M 4.6,10.2 C 5,10.05 5.35,9.95 5.65,9.95 5.6,11 5.3,11.7 5.15,12 4.95,11.8 4.5,11.35 4,10.5 l 0.6,-0.3 z m -1.7,1.6 c 0.3,0.2 0.65,0.35 0.95,0.4 l 0.75,0.1 -0.55,0.2 0.05,0.1 -0.55,0.05 c -1.25,0 -2.7,-1.15 -3.75,-2.8 l 0.05,0 0.45,-0.95 0.6,1.15 c 0.25,0.35 1,1.05 1.7,1.6 L 2.4,12.3 2.65,12.35 2.9,11.8 z m 1,0.1 L 3,11.55 c 0.2,-0.3 0.4,-0.6 0.75,-0.85 0.4,0.65 0.75,1.1 1,1.35 L 3.9,11.9 z M 6.5,7.1 6.8,8.35 c 0.15,0.8 0.15,1.5 0,2.1 Q 6.7,10.1 6.45,9.9 C 6.35,9.8 6.2,9.7 5.95,9.7 6,9.25 5.95,8.75 5.85,8.2 L 5.45,6.55 C 5.85,6.65 6.2,6.85 6.5,7.1 z M 5.35,6.2 4.65,3.95 c 0.8,0.3 1.15,0.7 1.2,0.7 l 0.55,2 C 6.1,6.45 5.75,6.3 5.35,6.2 z m 0.9,3.95 c 0.25,0.15 0.35,0.4 0.3,0.75 l 0.15,0 -0.35,0.65 -0.65,0.55 -0.25,0 c 0.2,-0.35 0.45,-1.05 0.5,-2.1 0.15,0 0.25,0.05 0.3,0.15 z M 0.55,1.2 C -0.2,1.4 -0.85,1.7 -1.4,2.05 -1.5,0.8 -1.4,-0.1 -1.35,-0.5 l 1.4,-0.2 0.5,1.9 z m -1.6,4.15 C -1.4,5.7 -1.6,6.05 -1.75,6.25 L -2.4,3.2 -1.65,2.6 -1.05,5.35 z M -2.45,0 c 0.1,-0.15 0.35,-0.3 0.75,-0.4 -0.05,0.5 -0.1,1.4 0,2.65 l -0.75,0.6 c -0.25,-1.3 -0.3,-2.3 0,-2.85 z m 0.9,6.5 0.6,-0.85 C -0.6,6.8 -0.2,7.8 0.15,8.6 l -0.55,1 C -0.95,8.65 -1.45,7.55 -1.7,6.45 l 0.15,0.05 z"
           inkscape:connector-curvature="0"
           style="fill:url(#radialGradient1)" />
      </g>
    </g>
  </g>
</svg>
