<?xml version="1.0" encoding="utf-8"?>
<!-- Generator: flash2svg, http://dissentgraphics.com/tools/flash2svg -->
<svg xmlns:xlink="http://www.w3.org/1999/xlink" id="Avatar" image-rendering="auto" baseProfile="basic" version="1.1" x="0px" y="0px" width="68" height="126" xmlns="http://www.w3.org/2000/svg" viewBox="0 0 68 126">
  <defs>
    <radialGradient gradientUnits="userSpaceOnUse" color-interpolation="sRGB" r="10.921069714080648" cx="4.5" cy="3.25" fx="4.5" fy="3.25" gradientTransform="matrix(0.2936553955078125 0.9569091796875 0.7709808349609375 -0.2494354248046875 0.7 -0.249)" id="radialGradient">
      <stop stop-color="#FFF" stop-opacity="0.7058823529411765" offset="0"/>
      <stop stop-color="#FFF" stop-opacity="0.2980392156862745" offset="1"/>
    </radialGradient>
    <radialGradient gradientUnits="userSpaceOnUse" color-interpolation="sRGB" r="10.932" cx="5.204" cy="3.054" fx="5.204" fy="3.054" gradientTransform="matrix(0.293 0.956 0.77 -0.249 0.6 -0.799)" id="radialGradient1">
      <stop stop-color="#FFF" stop-opacity="0.7058823529411765" offset="0"/>
      <stop stop-color="#FFF" stop-opacity="0.2980392156862745" offset="1"/>
    </radialGradient>
  </defs>
  <g id="sideArmLowerOffside4" overflow="visible">
    <g id="sideArmLowerOffside3_0">
      <g id="element">
        <path id="path" fill="url(#radialGradient1)" d="M5.4,11.75 C5.55,11.25 5.6,10.5 5.5,9.6 5.5,8.85 5.15,7.4 4.55,5.1 3.7,1.75 2.45,-0.3 0.9,-1 0.15,-1.3 -0.5,-1.3 -1.35,-1 -1.45,-0.95 -1.6,-0.9 -1.85,-0.7 -2.2,-0.35 -2.5,0.15 -2.75,0.85 -2.85,1.1 -2.9,1.35 -3,1.65 -3.25,2.75 -3.35,3.75 -3.35,4.8 -3.35,6.2 -3.15,7.7 -2.75,9.2 -2.35,10.85 -1.8,11.85 -1.05,12.1 -0.75,12.2 -0.45,12.4 -0.2,12.5 0.8,12.8 1.75,12.95 2.75,13 L3.1,13 C3.75,13 4.3,12.8 4.8,12.65 L4.9,12.5 C5.15,12.35 5.25,12.1 5.4,11.75z M0.5,-0.25 C0.25,-0.45 0.05,-0.65 -0.25,-0.8 -0.4,-0.9 -0.55,-0.95 -0.75,-0.95 -0.25,-1 0.25,-1 0.75,-0.8 L1.25,-0.45 0.5,-0.25z M1.45,-0.25 C1.75,0 2.05,0.3 2.35,0.8 L1.5,0.95 C1.4,0.65 1.15,0.3 0.75,-0.1 L1.45,-0.25z M3.35,2.55 L2.45,2.6 1.75,1.25 2.6,1.15 C2.95,1.7 3.15,2.2 3.35,2.55z M3.45,2.85 C3.8,3.65 4,4.3 4.15,4.75 L3.25,4.7 C3.1,4.3 2.9,3.65 2.55,2.8 L3.45,2.85z M2.15,2.55 C1.4,2.65 0.8,2.8 0.2,2.95 L-0.15,1.7 1.45,1.25 2.15,2.55z M1.3,1.05 C1.1,1.1 0.65,1.2 -0.2,1.4 L-0.55,0.4 0.4,0 C0.6,0.2 0.95,0.65 1.3,1.05z M0.2,3.2 C0.8,3.05 1.45,2.9 2.25,2.85 L2.95,4.7 C2.25,4.7 1.5,4.75 0.65,4.95 L0.2,3.2z M3.3,4.95 L3.4,4.9 4.15,5 4.3,5.2 4.7,6.75 3.9,6.65 3.8,6.65 3.45,5.3 3.3,4.95z M2.95,4.95 L3.55,6.7 C2.7,6.65 1.9,6.7 1.05,6.8 L0.7,5.2 C1.45,5 2.15,5 2.95,4.95z M4.05,9.05 L3.55,8.95 C2.95,8.9 2.25,8.85 1.5,8.95 L1.1,7.05 C1.9,6.95 2.7,6.85 3.55,6.9 L4.05,9.05z M3.9,6.85 L4.75,7 5.15,9.25 C4.65,9.1 4.35,9.1 4.3,9.1 L3.85,6.85 3.9,6.85z M1.2,8.95 C0.3,9.05 -0.65,9.35 -1.65,9.75 -1.65,9.65 -1.8,9.1 -2.1,8.1 -1.05,7.6 -0.05,7.3 0.8,7.15 L1.2,8.95z M4.65,10.85 L5.35,10.95 C5.2,11.65 5,12.15 4.65,12.4 L3.85,12.7 3.85,12.65 C4.25,12.35 4.5,11.75 4.55,10.85 L4.65,10.85z M4.5,10.6 L4.35,9.3 5.2,9.45 C5.25,10.05 5.3,10.5 5.25,10.7 L4.6,10.65 4.5,10.6z M4.25,10.6 C3.4,10.5 2.65,10.45 1.95,10.55 L1.6,9.15 4.1,9.25 4.25,10.6z M4.2,10.8 C4.25,11.65 4,12.25 3.65,12.55 L3.1,12.75 2.4,12.8 2,10.85 C2.85,10.75 3.55,10.75 4.2,10.8z M1.65,10.65 C0.6,10.8 -0.3,11.05 -0.95,11.4 -1.25,11.05 -1.4,10.55 -1.55,10 -0.7,9.55 0.3,9.25 1.35,9.2 L1.65,10.65z M0.8,6.9 C-0.1,7.05 -1.1,7.35 -2.15,7.85 L-2.55,6.25 C-1.55,5.8 -0.6,5.45 0.4,5.25 L0.8,6.9z M0.2,12.4 C-0.25,12.3 -0.55,12 -0.85,11.55 -0.05,11.2 0.8,11 1.65,10.85 L2.1,12.75 0.25,12.45 0.2,12.4z M-1.3,-0.85 L-1.2,-0.8 -1.25,-0.8 -1.25,-0.75 C-1.5,-0.6 -1.65,-0.4 -1.65,-0.25 L-2.15,1 -2.65,1.3 C-2.45,0.4 -2.05,-0.2 -1.7,-0.6 L-1.3,-0.85z M-0.1,3 C-1.15,3.3 -1.95,3.7 -2.65,4.1 L-2.4,2.75 C-1.65,2.3 -1.05,2.1 -0.45,1.85 L-0.1,3z M-0.85,0.5 L-0.55,1.6 C-1.05,1.8 -1.6,2 -2.35,2.45 L-2,1.1 -0.85,0.5z M-1.9,0.8 L-1.25,-0.5 -0.9,0.3 -1.9,0.8z M-2.95,2.85 C-2.9,2.25 -2.8,1.85 -2.75,1.6 L-2.25,1.3 -2.55,2.6 -2.95,2.85z M-3.05,4.45 L-3,3.1 -2.55,2.85 -2.85,4.15 -3.05,4.45z M-2.6,4.35 C-1.85,3.9 -1,3.6 -0.05,3.25 L0.3,5 C-0.65,5.25 -1.6,5.6 -2.6,6.05 L-2.6,4.35z M-2.8,6.15 L-3,6.3 -3.1,4.65 -2.85,4.5 C-2.8,5.4 -2.8,6 -2.8,6.15z M-2.75,6.35 L-2.3,8 -2.75,8.25 -3,6.5 -2.75,6.35z M-2.25,10.1 C-2.45,9.75 -2.6,9.2 -2.7,8.4 L-2.3,8.2 -1.85,9.85 -2.25,10.1z M-1.75,10 C-1.65,10.55 -1.4,11.1 -1.15,11.55 L-1.4,11.6 C-1.7,11.3 -1.9,10.9 -2.2,10.25 L-1.75,10z M-0.7,12.1 L-1.25,11.8 -1.05,11.7 -0.7,12.1z M-0.9,-0.7 L0.2,-0.15 -0.6,0.15 -0.9,-0.7z"/>
      </g>
    </g>
  </g>
</svg>