<?xml version="1.0" encoding="utf-8"?>
<!-- Generator: flash2svg, http://dissentgraphics.com/tools/flash2svg -->
<svg xmlns:xlink="http://www.w3.org/1999/xlink" id="Avatar" image-rendering="auto" baseProfile="basic" version="1.1" x="0px" y="0px" width="68" height="126" xmlns="http://www.w3.org/2000/svg" viewBox="0 0 68 126">
  <defs>
    <radialGradient gradientUnits="userSpaceOnUse" color-interpolation="sRGB" r="11.338518998288261" cx="6.45" cy="5.05" fx="6.450000000000001" fy="5.05" gradientTransform="matrix(0.9989013671875 0.0589447021484375 0.1266326904296875 -0.871185302734375 -0.649 9.05)" id="radialGradient">
      <stop stop-color="#FFF" stop-opacity="0.7058823529411765" offset="0"/>
      <stop stop-color="#FFF" stop-opacity="0.2980392156862745" offset="1"/>
    </radialGradient>
    <radialGradient gradientUnits="userSpaceOnUse" color-interpolation="sRGB" r="11.346" cx="5.855" cy="14.103" fx="5.855" fy="14.103" gradientTransform="matrix(0.998 0.059 0.127 -0.871 -1.149 16.95)" id="radialGradient1">
      <stop stop-color="#FFF" stop-opacity="0.7058823529411765" offset="0"/>
      <stop stop-color="#FFF" stop-opacity="0.2980392156862745" offset="1"/>
    </radialGradient>
  </defs>
  <g id="sideFootClose4" overflow="visible">
    <g id="sideFootClose3_0">
      <g id="element">
        <path id="path" fill="url(#radialGradient1)" d="M10.45,5.45 L10.35,5.45 C10,5.05 9.5,4.65 8.85,4.3 7.85,3.75 6.8,3.35 5.65,2.95 L5,2.8 5.05,2.6 4.7,2.65 4.6,2.65 C4.4,2.55 4.1,2.45 3.7,2.45 3,2.4 2,2.55 0.6,2.75 L0.55,2.75 C-1.8,3.25 -3.2,3.75 -3.55,4.3 -3.7,4.5 -3.9,5 -4,5.65 -4.2,6.4 -4.3,7.05 -4.25,7.55 L-4.35,7.55 -4.3,7.75 -4.2,8 C-4.05,8.65 -3.35,9.2 -2.1,9.65 L-2.05,9.65 C-1.65,9.85 -1.2,9.95 -0.7,10.05 -0.45,10.1 0.05,10.35 0.85,10.7 L1.8,11.15 1.95,11.25 2,11.2 C2.4,11.4 2.75,11.45 3,11.5 3.3,11.55 3.8,11.65 4.45,11.65 L5.8,11.7 6.05,11.65 6.8,12.15 C6.9,12.25 7.15,12.35 7.4,12.35 7.75,12.35 8.3,12.25 8.9,12.05 9.5,11.8 9.85,11.4 9.95,10.8 L10,10.9 10.1,10.75 C10.3,10.75 10.65,10.65 11.05,10.6 11.6,10.4 11.95,10.05 11.95,9.4 L11.95,9.15 12.1,9.1 11.9,8.6 C12.3,8.55 12.55,8.4 12.7,8.25 13.1,7.95 13.2,7.5 13.05,6.9 13,6.45 12.8,6.2 12.35,6 11.9,5.7 11.3,5.6 10.55,5.55 L10.4,5.55 10.45,5.45z M10.3,5.75 L10.55,5.75 C11.1,5.8 11.6,5.95 12.05,6.05 L11.7,6.15 C11.35,6 10.95,5.95 10.45,5.95 10.1,5.95 9.8,5.95 9.6,6 L9.55,6 C9.65,5.9 9.85,5.85 10.25,5.7 L10.3,5.75z M12.4,6.35 C12.65,6.45 12.8,6.65 12.85,6.9 12.9,7.4 12.8,7.85 12.5,8.2 12.8,7.6 12.7,7.1 12.25,6.6 12.2,6.4 12.1,6.4 11.95,6.35 L12.4,6.35z M12.05,6.7 C12.55,7.25 12.55,7.8 12.2,8.25 L12.3,8.3 C12.1,8.4 11.95,8.45 11.7,8.4 11.4,8.1 11.15,7.8 10.85,7.7 L10.45,7.45 C10.6,7.45 10.65,7.45 10.65,7.5 L10.85,7.55 10.85,7.4 C10.9,7.1 11.05,6.85 11.3,6.6 L11.65,6.4 12.05,6.7z M11.15,6.45 C10.95,6.65 10.8,6.9 10.6,7.25 10.4,7.25 10.2,7.25 10.05,7.35 9.8,7.25 9.35,7.15 8.7,7.1 L9.35,6.15 9.4,6.25 10.15,6.2 C10.65,6.2 11.05,6.2 11.35,6.25 L11.15,6.45z M11.3,8.65 L11.5,8.85 C11.65,8.95 11.7,9.15 11.7,9.35 11.7,9.9 11.45,10.25 10.95,10.4 L10.2,10.55 C10.15,10.15 10,9.65 9.75,9.25 9.65,9.05 9.5,8.85 9.2,8.65 L9.25,8.5 C9.2,8.3 9.35,8 9.75,7.75 L10.05,7.55 C10.3,7.6 10.55,7.75 10.7,7.85 10.95,8 11.2,8.2 11.4,8.45 L10.75,8.45 11.3,8.65z M5.5,4.95 L5.95,5.2 C7.15,6 8,6.7 8.35,7.2 8.05,7.25 7.8,7.3 7.55,7.5 7.4,7.65 7.25,7.9 7.2,8.1 L3.85,6 C4.55,5.5 5.1,5.2 5.45,5 L5.5,4.95z M5.55,4.7 C4.65,4.2 3.6,3.75 2.4,3.3 L3.75,3 C4.85,3.3 5.75,3.65 6.6,4.1 L6.8,4.3 5.55,4.7z M5.8,4.9 L7.1,4.4 C8.1,5 8.75,5.5 9.2,6 L9.2,6.05 8.55,7 C8.25,6.55 7.45,5.85 6.1,5 L5.8,4.9z M6.7,4 C5.85,3.55 5.05,3.2 4.25,2.95 L4.65,2.85 C4.75,2.9 5.05,3.05 5.55,3.2 6.6,3.55 7.4,3.8 7.85,4.05 L7.15,4.2 6.7,4z M8.7,4.45 C9.3,4.85 9.75,5.2 10.05,5.55 L9.35,5.85 C8.95,5.4 8.3,4.9 7.4,4.35 7.8,4.3 8.05,4.25 8.25,4.25 L8.25,4.2 8.7,4.45z M2.35,2.7 L3.2,2.85 2.05,3.2 1.05,2.9 2.35,2.7z M0.25,4.2 L-1.6,3.5 0.5,2.95 1.7,3.35 C1.1,3.6 0.65,3.85 0.25,4.2z M2.05,3.45 C3.15,3.75 4.25,4.25 5.3,4.85 4.6,5.2 4.05,5.6 3.65,5.85 2.7,5.3 1.65,4.8 0.45,4.3 0.85,4 1.35,3.65 2.05,3.45z M3.45,6 C2.95,6.4 2.45,6.8 2.1,7.25 L1.45,6.9 C0.9,6.65 0,6.35 -1.25,6 -0.85,5.5 -0.4,4.95 0.25,4.45 1.25,4.85 2.3,5.4 3.45,6z M5,9.1 C4.35,8.5 3.45,7.9 2.35,7.3 L3.7,6.1 6.9,8.2 C6.15,8.2 5.55,8.45 5.05,9 L5,9.1z M1.65,7.9 C1.4,8.6 1.3,9.3 1.4,10.05 L0.8,9.65 0.75,9.6 C0.5,9.45 -0.3,9.25 -1.65,9 L-2.2,8.8 C-2.35,8.1 -2.1,7.2 -1.35,6.15 L2,7.4 1.65,7.9z M2.15,7.5 C3.25,8 4.15,8.65 4.9,9.25 4.55,9.75 4.5,10.25 4.6,10.75 L3.05,10.55 C2.5,10.5 2.05,10.4 1.6,10.2 1.55,9.4 1.65,8.65 1.9,8 L2.15,7.5z M1.55,10.8 L1,10.45 C0.25,10.1 -0.25,9.9 -0.6,9.85 L-1.9,9.5 -2.1,9.1 0.65,9.7 C0.7,9.95 1,10.1 1.4,10.35 L1.55,10.8z M1.7,10.45 C2,10.6 2.45,10.75 3,10.8 3.95,10.95 4.9,11 5.9,11.05 6,11.2 6.1,11.35 6.25,11.45 L6.225,11.45 L6.15,11.4 6.1,11.4 5.8,11.45 3.05,11.3 C2.85,11.2 2.45,11.15 1.9,10.9 L1.7,10.45z M4.9,10.7 C4.75,10.3 4.8,9.9 5.05,9.45 L6.6,10.75 C6.55,11.1 6.55,11.35 6.6,11.45 L6.1,10.95 6.05,10.85 4.7,10.75 4.9,10.7z M9.55,7.6 C9.2,7.85 9.05,8.15 9,8.45 L8.95,8.45 C8.55,8.3 8.05,8.2 7.45,8.15 7.5,7.95 7.55,7.8 7.75,7.65 7.9,7.6 8.1,7.45 8.45,7.35 L8.6,7.35 8.6,7.3 C9.25,7.35 9.65,7.4 9.8,7.45 L9.55,7.6z M7.25,8.4 L7.45,8.4 7.45,8.35 C7.85,8.4 8.2,8.45 8.45,8.5 7.8,8.7 7.35,8.95 7.15,9.35 L7.15,9.4 6.65,10.45 5.2,9.25 5.35,9.1 C5.65,8.75 6.05,8.6 6.5,8.45 6.7,8.4 7,8.4 7.25,8.4z M7.4,9.4 C7.6,9 8.1,8.8 8.85,8.7 9.2,8.8 9.4,9.1 9.55,9.4 9.85,9.85 10,10.3 9.95,10.6 L9.8,10.55 9.65,10.55 9.65,11 C8.65,11.25 7.75,11.15 6.85,10.6 6.95,10.4 7.1,10 7.35,9.45 L7.4,9.4z M6.8,10.85 C7.35,11.15 7.85,11.3 8.45,11.35 8.8,11.35 9.2,11.35 9.6,11.25 9.45,11.5 9.2,11.7 8.85,11.8 L8.3,11.95 8.35,11.9 C7.8,11.85 7.35,11.85 7,11.65 6.85,11.45 6.75,11.2 6.8,10.85z M-1.6,6.05 C-2.3,7.05 -2.6,7.9 -2.5,8.75 -3.3,8.4 -3.8,8 -4,7.65 -4.1,7.15 -4,6.4 -3.7,5.5 L-1.6,6.05z M-1.85,3.7 L0,4.35 C-0.6,4.85 -1.05,5.35 -1.5,5.9 L-3.65,5.3 -3.35,4.4 C-3.15,4.1 -2.65,3.85 -1.85,3.6 L-1.85,3.7z M-2.3,9.3 C-3.15,8.95 -3.7,8.55 -3.9,8.15 -3.5,8.5 -2.95,8.8 -2.45,9 L-2.3,9.3z"/>
      </g>
    </g>
  </g>
</svg>