<?xml version="1.0" encoding="utf-8"?>
<!-- Generator: flash2svg, http://dissentgraphics.com/tools/flash2svg -->
<svg xmlns:xlink="http://www.w3.org/1999/xlink" id="Avatar" image-rendering="auto" baseProfile="basic" version="1.1" x="0px" y="0px" width="68" height="126" xmlns="http://www.w3.org/2000/svg" viewBox="0 0 68 126">
  <defs>
    <radialGradient gradientUnits="userSpaceOnUse" color-interpolation="sRGB" r="8.126769493248895" cx="1" cy="1.6" fx="1" fy="1.6" gradientTransform="matrix(0.8948211669921875 0.4496917724609375 0.411590576171875 -0.900909423828125 -0.549 2.6)" id="radialGradient">
      <stop stop-color="#FFF" stop-opacity="0.7058823529411765" offset="0"/>
      <stop stop-color="#FFF" stop-opacity="0.2980392156862745" offset="1"/>
    </radialGradient>
    <radialGradient gradientUnits="userSpaceOnUse" color-interpolation="sRGB" r="8.139" cx="0.502" cy="4.202" fx="0.502" fy="4.202" gradientTransform="matrix(0.894 0.449 0.411 -0.9 -1.099 5.1)" id="radialGradient1">
      <stop stop-color="#FFF" stop-opacity="0.7058823529411765" offset="0"/>
      <stop stop-color="#FFF" stop-opacity="0.2980392156862745" offset="1"/>
    </radialGradient>
  </defs>
  <g id="sideHandClose4" overflow="visible">
    <g id="sideHandClose3_0">
      <g id="element">
        <path id="path" fill="url(#radialGradient1)" d="M2.75,-1.5 C2.2,-1.85 1.5,-2.15 0.65,-2.25 -0.15,-2.3 -0.8,-2.25 -1.45,-2 -2.5,-1.65 -3.25,-0.9 -3.55,0.2 -3.55,0.4 -3.6,0.9 -3.65,1.6 L-3.65,1.7 C-3.75,1.8 -3.75,1.85 -3.6,1.9 -3.7,2.75 -3.6,3.65 -3.5,4.55 L-3.6,4.75 C-3.65,4.8 -3.7,4.85 -3.6,4.85 -3.55,4.9 -3.5,4.95 -3.45,4.9 L-3.4,5.7 -3.05,7.25 -3.1,7.3 C-3.1,7.4 -3.15,7.4 -3.15,7.45 -3.1,7.5 -3,7.5 -2.95,7.5 -2.85,8.1 -2.65,8.7 -2.35,9.25 -2.4,9.3 -2.35,9.35 -2.25,9.4 -2.1,9.65 -1.9,10 -1.55,10.4 -1.15,10.8 -0.75,11 -0.35,10.85 0.1,10.7 0.35,10.35 0.3,9.8 L0.7,10.3 C1.25,10.7 1.7,10.9 2.1,10.75 L2.25,10.65 2.3,10.65 C2.55,10.5 2.8,10.15 2.85,9.75 2.85,9.45 2.9,9.05 2.8,8.65 3.2,9 3.65,9.1 4.15,9.05 4.55,9 4.95,8.85 5.15,8.55 5.35,8.2 5.35,7.8 5.3,7.2 5.15,6.75 5.05,6.35 4.75,6.1 L4.55,5.8 4.55,5.6 C4.6,5.55 4.55,5.5 4.5,5.45 L4.45,5.5 C4.25,5.15 4.15,4.75 4.1,4.4 L4.05,3.95 4.1,3.8 4.4,3.85 C4.65,3.9 5.05,3.85 5.35,3.75 5.7,3.6 6,3.35 6.1,3 6.3,2.65 6.2,2.1 5.95,1.5 5.75,1.1 5.15,0.95 4.1,1.05 L4.05,1.1 4,0.05 C3.85,-0.5 3.45,-1.05 2.75,-1.5z M3.1,-0.95 L2.95,-0.85 C2.95,-0.5 2.95,-0.1 3.05,0.2 2.55,-0.05 2.1,-0.25 1.6,-0.4 1.6,-0.85 1.55,-1.35 1.55,-1.7 1.9,-1.65 2.25,-1.5 2.7,-1.25 L3.1,-0.95z M1.3,-1.75 C1.3,-1.45 1.3,-1 1.35,-0.45 0.8,-0.5 0.35,-0.55 -0.15,-0.5 -0.25,-1.15 -0.3,-1.65 -0.25,-1.95 0.25,-2.05 0.75,-2 1.3,-1.8 L1.3,-1.75z M5.3,2.1 C5,2 4.75,1.9 4.6,1.9 4.35,1.85 4.1,1.7 3.95,1.55 4.5,1.45 5.05,1.45 5.55,1.6 L5.65,1.55 5.7,1.6 C5.95,2.05 6.05,2.55 5.9,2.85 5.9,2.5 5.7,2.25 5.3,2.1z M5.25,3.5 C4.95,3.6 4.7,3.6 4.4,3.55 L3.95,3.65 3.8,3.7 3.45,3.9 C3.05,3.4 2.65,2.8 2.35,2.05 L3.7,1.6 C3.9,1.85 4.05,2.05 4.25,2.1 4.45,2.15 4.75,2.25 5.25,2.3 5.65,2.5 5.75,2.85 5.5,3.25 L5.55,3.3 5.25,3.5z M3.75,1.15 L3.8,1.25 3.75,1.35 3.75,1.3 C3.7,1.25 3.6,1.15 3.45,0.85 L3.75,1.15z M3.3,0.45 C3.15,-0.05 3.2,-0.45 3.25,-0.8 3.5,-0.45 3.7,-0.2 3.75,0.05 L3.75,0.8 3.3,0.45z M3.5,1.4 L2.2,1.8 C1.95,1.3 1.8,0.65 1.65,-0.1 2.1,0 2.6,0.25 3.1,0.6 L3.5,1.4z M0.55,2.4 C0.25,1.4 0.05,0.55 -0.05,-0.25 0.4,-0.3 0.85,-0.3 1.4,-0.2 1.45,0.5 1.7,1.2 1.95,1.9 L0.55,2.4z M1.05,2.5 C1.4,2.45 1.75,2.3 2.1,2.15 2.4,2.8 2.8,3.5 3.25,4.05 L1.45,4.95 0.6,2.65 1.05,2.5z M3.95,4.55 L3.6,4.15 3.85,4 3.9,4.45 3.95,4.55z M4.3,5.8 C4.2,6.55 3.75,7.05 3.25,7.4 2.7,7.05 2.15,6.25 1.6,5.15 L3.4,4.3 3.9,4.9 3.95,4.9 C4.05,5.3 4.15,5.6 4.3,5.8z M1.2,5.05 L-0.55,5.9 C-0.8,5.1 -1,4.2 -1.15,3.2 L0.35,2.7 C0.65,3.6 0.9,4.4 1.2,5.05z M2.6,8.1 L3.25,7.75 C3.85,8.1 4.45,8.25 5.1,8.1 L4.9,8.4 C4.8,8.7 4.45,8.8 4,8.8 3.45,8.8 3,8.6 2.65,8.1 L2.6,8.1z M3.5,7.6 C4,7.2 4.3,6.7 4.5,6.1 L4.6,6.25 C4.95,6.65 5.1,7.25 5.1,7.9 L5,7.85 C4.55,8 4.05,7.85 3.5,7.6z M0,8.9 C-0.5,9.1 -0.9,9.15 -1.1,9.15 -1.35,8.7 -1.65,7.95 -1.95,6.9 L-0.75,6.25 C-0.5,7.05 -0.1,7.9 0.45,8.75 L0.1,8.9 0,8.8 0,8.9z M0,9.25 L0.05,9.7 C0.1,9.95 0.05,10.1 0,10.3 L-0.05,10.25 C-0.45,10.1 -0.75,9.8 -0.95,9.4 L0.05,9.15 0,9.25z M0.6,8.9 C1.05,9.6 1.55,10.1 2,10.5 1.7,10.6 1.3,10.5 0.9,10.1 0.7,9.9 0.4,9.65 0.2,9.2 L0.2,9.1 0.6,8.9z M2.4,8.25 C2.6,8.85 2.7,9.3 2.6,9.7 2.55,10 2.4,10.15 2.25,10.4 1.7,10 1.25,9.5 0.8,8.85 L2.15,8.3 2.35,8.2 2.4,8.25z M2.3,7.95 L0.65,8.65 C0.15,7.85 -0.25,6.95 -0.5,6.15 L1.35,5.3 C1.8,6.25 2.4,7 3.05,7.6 L2.45,7.9 2.15,7.55 2.3,7.95z M-1.35,-1.75 L-0.55,-1.95 -0.35,-0.5 C-0.8,-0.4 -1.25,-0.3 -1.4,-0.2 L-1.6,-1.65 -1.35,-1.75z M-2.5,-1.1 L-1.8,-1.55 -1.65,-0.1 -2.6,0.5 -2.5,-1 -2.5,-1.1z M-1.35,3 C-1.8,3.2 -2.2,3.45 -2.55,3.7 -2.7,2.65 -2.65,1.7 -2.6,0.9 -2.25,0.55 -1.9,0.3 -1.7,0.15 L-1.35,3z M-1.45,0.1 C-1.2,-0.05 -0.85,-0.1 -0.3,-0.25 -0.15,0.85 0.05,1.7 0.3,2.45 L-1.15,2.9 -1.45,0.1z M-3.35,1.25 C-3.35,0.8 -3.4,0.4 -3.3,0.2 -3.15,-0.15 -3,-0.5 -2.7,-0.8 L-2.85,0.75 -3.35,1.25z M-2.85,1 C-2.8,2.35 -2.85,3.25 -2.8,3.85 L-3.3,4.3 C-3.35,3.05 -3.4,2.15 -3.4,1.7 L-2.85,1z M-2.8,4.15 C-2.6,5.15 -2.45,5.9 -2.35,6.4 L-2.25,6.75 -2.85,7.15 -3.25,4.65 -2.8,4.15z M-0.8,6 L-2,6.65 -2.15,5.95 C-2.4,5.35 -2.5,4.65 -2.6,3.95 -2.25,3.7 -1.8,3.5 -1.35,3.25 -1.25,4.35 -1,5.25 -0.8,6z M-2.15,9.2 C-2.45,8.6 -2.7,7.95 -2.8,7.4 L-2.2,7 C-1.9,8 -1.65,8.7 -1.4,9.2 L-2.15,9.2z M-1.35,10.2 L-2,9.45 -1.2,9.45 C-0.95,9.95 -0.65,10.25 -0.25,10.5 L-0.4,10.6 C-0.7,10.7 -1.05,10.55 -1.35,10.2z"/>
      </g>
    </g>
  </g>
</svg>