<?xml version="1.0" encoding="utf-8"?>
<!-- Generator: flash2svg, http://dissentgraphics.com/tools/flash2svg -->
<svg xmlns:xlink="http://www.w3.org/1999/xlink" id="Avatar" image-rendering="auto" baseProfile="basic" version="1.1" x="0px" y="0px" width="68" height="126" xmlns="http://www.w3.org/2000/svg" viewBox="0 0 68 126">
  <defs>
    <radialGradient gradientUnits="userSpaceOnUse" color-interpolation="sRGB" r="9.234344241600663" cx="4.4" cy="7.2" fx="4.4" fy="7.2" gradientTransform="matrix(-0.983917236328125 0.18231201171875 0.2587127685546875 1.3981170654296875 6.9 -3.649)" id="radialGradient">
      <stop stop-color="#FFF" stop-opacity="0.7058823529411765" offset="0"/>
      <stop stop-color="#FFF" stop-opacity="0.2980392156862745" offset="1"/>
    </radialGradient>
    <radialGradient gradientUnits="userSpaceOnUse" color-interpolation="sRGB" r="9.24" cx="11.303" cy="3.606" fx="11.303" fy="3.606" gradientTransform="matrix(-0.983 0.182 0.259 1.397 14.55 0.15)" id="radialGradient1">
      <stop stop-color="#FFF" stop-opacity="0.7058823529411765" offset="0"/>
      <stop stop-color="#FFF" stop-opacity="0.2980392156862745" offset="1"/>
    </radialGradient>
  </defs>
  <g id="sideArmUpperOffside4" overflow="visible">
    <g id="sideArmUpperOffside3_0">
      <g id="element">
        <path id="path" fill="url(#radialGradient1)" d="M4.85,7 C4.65,5.45 4.3,3.95 3.75,2.6 3.1,0.95 2.3,-0.2 1.45,-0.85 0.65,-1.45 -0.1,-1.65 -0.8,-1.55 -1,-1.55 -1.05,-1.5 -1.3,-1.4 -2.2,-0.7 -2.75,1.4 -2.9,4.95 -3.05,7.6 -3.05,9.55 -3.05,10.8 -2.9,13.15 -2.6,14.6 -2.05,15.1 -1.05,16 0.05,16.55 1.3,16.7 L1.2,16.8 1.5,16.75 C2.35,16.8 3,16.7 3.55,16.35 L3.6,16.3 C4.35,15.8 4.85,14.5 4.95,12.6 5.1,10.95 5.05,9.1 4.85,7z M1.1,-0.15 L-0.1,0.1 -0.45,-1.1 -0.35,-1.2 C-0.05,-1.1 0.25,-0.95 0.45,-0.7 L1.1,-0.15z M0.2,-1.25 C0.55,-1.15 0.95,-0.95 1.3,-0.65 L1.75,-0.15 1.45,-0.15 0.65,-0.95 0.2,-1.25z M2.55,1.55 L1.65,0.15 2.05,0.1 C2.4,0.65 2.8,1.15 3.05,1.7 L2.55,1.55z M3.2,2 L3.9,3.75 3.3,3.65 2.65,1.9 3.2,2z M2.2,1.55 C1.75,1.55 1.15,1.6 0.3,1.7 L0,0.4 1.35,0.15 C1.75,0.75 2,1.25 2.2,1.55z M2.4,1.9 L3,3.6 C2,3.5 1.2,3.4 0.55,3.55 L0.35,2.05 C0.95,1.9 1.7,1.85 2.4,1.9z M0.6,6.05 C-0.35,6.15 -1.25,6.35 -2.2,6.7 -2.25,6.1 -2.2,5.35 -2.05,4.55 -1.25,4.2 -0.4,4 0.3,3.85 L0.6,6.05z M0.6,3.85 C1.45,3.75 2.25,3.8 3.1,3.9 3.25,4.25 3.35,5.05 3.6,6.2 2.6,6 1.7,6 0.85,6 L0.85,5.75 0.6,3.85z M4,4.1 C4.15,4.75 4.35,5.5 4.55,6.45 L3.85,6.25 C3.75,5.4 3.6,4.65 3.35,4 L4,4.1z M0.25,3.55 C-0.45,3.65 -1.25,3.9 -2.05,4.2 L-1.8,2.6 0,2.1 0.25,3.55z M4,8.7 L3.9,6.6 4.55,6.8 4.6,7 4.7,8.85 4,8.7z M3.8,8.6 C2.95,8.45 2.1,8.4 1.15,8.4 L0.9,6.25 C1.8,6.2 2.75,6.35 3.6,6.55 L3.8,8.6z M4.75,9.2 C4.9,10.2 4.85,11.1 4.75,12 L4.05,11.65 C4.1,10.65 4.15,9.75 4.05,8.95 L4.75,9.2z M0.85,8.4 C0,8.45 -0.95,8.7 -2.05,9.1 L-2.2,6.95 C-1.25,6.6 -0.35,6.4 0.65,6.35 L0.85,8.4z M4.75,12.3 C4.7,13.05 4.55,13.6 4.45,13.95 L3.75,13.7 4.05,11.95 C4.35,12.05 4.6,12.15 4.75,12.3z M3.75,11.85 C3.75,12.5 3.65,13.15 3.5,13.65 2.95,13.5 2.25,13.4 1.45,13.35 L1.45,11.4 C2.2,11.4 2.85,11.55 3.35,11.75 L3.75,11.85z M3.4,11.45 C2.65,11.25 2,11.1 1.45,11.05 L1.2,8.7 C2.1,8.6 3,8.7 3.8,8.9 3.85,9.75 3.85,10.65 3.7,11.6 L3.4,11.45z M1.15,11.05 C0.2,11.1 -0.85,11.25 -2,11.7 L-2.05,9.4 C-1,9 0,8.75 0.95,8.7 L1.15,11.05z M4.45,14.2 C4.2,15.1 3.85,15.75 3.5,16.1 L3.4,16.1 C3,16.35 2.6,16.5 2.15,16.5 L2.45,16.35 C2.95,15.95 3.35,15.2 3.65,14 L4.45,14.2z M1.7,16.4 L1.6,16.5 1.1,16.4 C1.35,15.6 1.45,14.7 1.4,13.7 2.2,13.65 2.85,13.75 3.45,13.95 3.15,15 2.85,15.75 2.3,16.1 L2.25,16.15 C2.1,16.3 1.9,16.4 1.7,16.4z M0.85,16.35 C0.25,16.15 -0.3,15.95 -0.75,15.7 L-0.8,15.6 C-1.2,15.45 -1.5,15.05 -1.6,14.45 -0.85,14.05 0.1,13.75 1.2,13.7 1.15,14.75 1.05,15.6 0.85,16.35z M1.2,13.35 C0.15,13.5 -0.85,13.75 -1.7,14.15 -1.85,13.55 -1.9,12.8 -1.95,12 -0.95,11.6 0.1,11.4 1.15,11.4 1.15,12 1.2,12.65 1.2,13.35z M-0.6,-1.3 C-0.85,-1.15 -1.05,-1 -1.1,-0.75 -1.2,-0.65 -1.35,-0.15 -1.55,0.55 L-2.1,0.75 C-1.85,-0.25 -1.5,-0.9 -1.15,-1.2 L-0.75,-1.35 -0.6,-1.3z M-0.7,-0.9 L-0.4,0.15 -1.25,0.45 -0.9,-0.6 -0.7,-0.9z M-1.65,0.9 L-2,2.35 -2.45,2.6 -2.2,1.1 -1.65,0.9z M-2,2.75 L-2.3,4.3 -2.6,4.4 -2.45,2.85 -2,2.75z M-0.25,0.4 L0,1.8 C-0.65,1.9 -1.25,2.05 -1.7,2.25 L-1.4,0.8 -0.25,0.4z M-2.6,4.75 L-2.35,4.65 -2.45,6.8 -2.7,6.9 -2.7,4.95 -2.6,4.75z M-2.3,9.2 L-2.8,9.4 -2.75,7.15 -2.45,7.05 -2.3,9.2z M-2.75,9.7 L-2.3,9.45 -2.15,11.8 -2.7,12.05 -2.75,9.7z M-2.2,12.1 C-2.1,13.15 -2.1,13.85 -1.95,14.3 L-2.25,14.35 C-2.4,13.95 -2.6,13.3 -2.65,12.35 L-2.2,12.1z M-2.1,14.65 L-1.9,14.5 -1.65,15.1 -2.1,14.65z"/>
      </g>
    </g>
  </g>
</svg>