<?xml version="1.0" encoding="utf-8"?>
<!-- Generator: flash2svg, http://dissentgraphics.com/tools/flash2svg -->
<svg xmlns:xlink="http://www.w3.org/1999/xlink" id="Avatar" image-rendering="auto" baseProfile="basic" version="1.1" x="0px" y="0px" width="68" height="126" xmlns="http://www.w3.org/2000/svg" viewBox="0 0 68 126">
  <defs>
    <radialGradient gradientUnits="userSpaceOnUse" color-interpolation="sRGB" r="49.45417241503874" cx="5.45" cy="-36.799" fx="5.450000000000003" fy="-36.799" gradientTransform="matrix(-0.4190673828125 0.9081878662109375 0.9081878662109375 0.4190673828125 41.1 -26.299)" id="radialGradient">
      <stop stop-color="#FFF" stop-opacity="1" offset="0"/>
      <stop stop-color="#FFF" stop-opacity="0.40784313725490196" offset="1"/>
    </radialGradient>
    <radialGradient gradientUnits="userSpaceOnUse" color-interpolation="sRGB" r="49.465" cx="46.551" cy="-63.056" fx="46.551" fy="-63.056" gradientTransform="matrix(-0.419 0.908 0.908 0.419 82.1 -52.499)" id="radialGradient1">
      <stop stop-color="#FFF" stop-opacity="1" offset="0"/>
      <stop stop-color="#FFF" stop-opacity="0.40784313725490196" offset="1"/>
    </radialGradient>
  </defs>
  <g id="backHead4" overflow="visible">
    <g id="backHead3_0">
      <g id="element">
        <path id="path" fill="url(#radialGradient1)" d="M20.9,-39.9 L20.8,-39.85 C19.95,-41.3 18.95,-42.5 17.8,-43.45 13.4,-47.1 8.35,-48.6 3.5,-48.9 L2.8,-49 2.8,-48.95 0.45,-48.95 0.1,-49.05 0.05,-48.95 -0.2,-48.9 -0.25,-49.05 -0.6,-48.95 -2.95,-48.95 -2.95,-49 -3.5,-48.9 C-8.55,-48.65 -13.7,-47.2 -18.25,-43.45 -22.5,-39.9 -24.8,-32.9 -24.75,-23.1 L-24.75,-22.95 C-24.7,-20.7 -24.4,-18.6 -23.9,-16.6 L-24,-16.55 -23.85,-16.4 -23.9,-16.25 -23.8,-16.25 C-22.2,-10.45 -18.65,-5.6 -14.2,-1.65 L-14.05,-1.55 -14.1,-1.45 -14.15,-1.4 -14,-1.15 -13.8,-1.3 -13.55,-1.15 C-10.2,1.55 -5.55,3.75 -1.3,5.1 L-0.45,5.45 -0.8,5.75 -0.35,5.55 -0.8,5.95 -0.05,5.65 0.65,5.95 0.2,5.55 0.65,5.75 0.3,5.45 1.7,4.8 C5.45,3.55 9.45,1.65 12.5,-0.65 L13.6,-1.25 13.65,-1.25 13.85,-1.4 13.8,-1.45 13.8,-1.5 13.75,-1.5 13.85,-1.6 13.8,-1.7 C15.25,-2.95 16.6,-4.35 17.8,-5.8 18.6,-6.4 19,-6.85 19.05,-6.85 L18.95,-6.95 19.05,-7.05 18.9,-7.2 19,-7.35 19.15,-7.5 C21,-10.1 22.45,-13 23.35,-16.15 L23.65,-16.25 23.6,-16.4 23.65,-16.4 23.6,-16.6 23.65,-16.7 23.5,-16.8 C24,-18.7 24.3,-20.75 24.3,-22.95 L24.3,-23.1 C24.35,-30.15 23.2,-35.7 20.95,-39.6 L20.9,-39.9z M20.8,-39.05 C21.8,-37.3 22.55,-35.2 23.05,-32.8 22.8,-33.05 21.8,-33.9 20.1,-34.9 19.7,-36.3 19.2,-37.65 18.65,-38.8 L20.4,-39.25 20.7,-38.95 20.8,-39.05z M23.15,-32.35 C22.95,-32.25 22.2,-32.05 20.95,-31.8 L20.25,-34.5 C22,-33.35 22.9,-32.5 22.95,-32.5 L23.1,-32.65 23.15,-32.35z M23.25,-31.85 C23.65,-29.95 23.85,-27.85 23.95,-25.6 23.6,-25.85 22.85,-26.35 21.7,-27 21.55,-28.5 21.35,-29.95 21.05,-31.35 L23.25,-31.85z M23.95,-25.1 L21.85,-24.8 21.7,-26.65 C23.15,-25.85 23.95,-25.25 23.95,-25.25 L23.95,-25.1z M21.3,-27.2 C19.85,-28 17.85,-28.95 15.35,-29.85 L15.3,-30.4 C17.55,-30.7 19.35,-31 20.7,-31.25 20.95,-29.95 21.2,-28.6 21.3,-27.2z M13.05,-38.3 L13,-38.3 C10.85,-39.1 8.35,-39.75 5.5,-40.15 4.5,-44.05 3.05,-46.3 1.95,-47.55 L2.6,-47.55 C5.2,-46.4 9.05,-44.45 10.7,-42.45 11.6,-41.3 12.4,-39.9 13.05,-38.3z M10.9,-42.8 C9.5,-44.55 6.6,-46.15 4.15,-47.35 8.7,-46.7 12.4,-45.05 15.15,-43.4 L16.45,-41.95 C17,-41.15 17.55,-40.25 18.05,-39.2 16.85,-38.95 15.35,-38.65 13.45,-38.35 12.75,-40.1 11.9,-41.6 10.9,-42.8z M16.55,-42.45 C18.2,-41.35 19.35,-40.3 20,-39.65 L18.45,-39.25 C17.9,-40.45 17.3,-41.45 16.65,-42.3 L16.55,-42.45z M20.15,-40.1 C19.3,-40.95 17.65,-42.4 15.3,-43.8 13.45,-45.55 11.05,-46.7 8.85,-47.5 12.1,-46.65 15.05,-45.15 17.6,-43 18.55,-42.2 19.4,-41.25 20.15,-40.1z M18.25,-38.75 C18.75,-37.65 19.2,-36.5 19.65,-35.2 18.2,-36.1 16.3,-37.1 14,-37.95 15.75,-38.25 17.15,-38.5 18.25,-38.75z M0.45,-48.15 L-0.9,-48.1 -0.45,-48.45 0.25,-48.45 0.7,-48.1 0.45,-48.15z M1.3,-47.6 C2.4,-46.5 3.95,-44.3 5.15,-40.2 3.65,-40.35 2.15,-40.5 0.5,-40.5 L0.2,-40.5 C-1.75,-40.5 -3.55,-40.35 -5.3,-40.1 -4.15,-44.25 -2.6,-46.45 -1.45,-47.55 -0.95,-47.6 -0.4,-47.65 0.15,-47.65 L1.3,-47.6z M3.55,-48.4 C5.15,-48.15 9.1,-47.3 12.5,-45.35 9.8,-46.6 6.55,-47.65 2.7,-48 L1.6,-48.45 3.55,-48.4z M0.3,-37.5 C-1.85,-37.5 -3.95,-37.6 -5.85,-37.7 L-5.4,-39.8 C-3.6,-40.05 -1.75,-40.2 0.2,-40.2 L0.5,-40.2 C2.15,-40.2 3.7,-40.05 5.2,-39.85 L5.75,-37.65 C4.15,-37.55 2.45,-37.5 0.6,-37.5 L0.3,-37.5z M5.6,-39.8 C8.1,-39.5 10.35,-38.9 12.35,-38.25 10.55,-38 8.45,-37.8 6.05,-37.65 5.95,-38.45 5.75,-39.15 5.6,-39.8z M0.6,-37 C2.45,-37 4.2,-37.05 5.8,-37.15 6.1,-35.65 6.3,-33.9 6.45,-31.95 4.55,-32.2 2.55,-32.35 0.45,-32.4 L0.05,-32.4 C-2.3,-32.4 -4.5,-32.2 -6.6,-31.9 -6.45,-33.9 -6.25,-35.65 -5.95,-37.2 -4,-37.1 -1.9,-37 0.3,-37 L0.6,-37z M0.4,-32.05 C2.6,-32.05 4.6,-31.9 6.45,-31.65 L6.55,-30.8 6.55,-30.15 C4.75,-30.05 2.8,-30 0.75,-30 L0.45,-29.95 C-2.1,-29.95 -4.5,-30.05 -6.7,-30.2 L-6.7,-30.8 -6.6,-31.6 C-4.55,-31.9 -2.3,-32.1 0.05,-32.1 L0.4,-32.05z M0.75,-29.5 C2.85,-29.5 4.75,-29.55 6.55,-29.65 L6.7,-23.75 C4.75,-23.65 2.7,-23.65 0.45,-23.65 L0.1,-23.6 C-2.35,-23.6 -4.7,-23.65 -6.85,-23.75 L-6.7,-29.7 C-4.5,-29.55 -2.1,-29.5 0.45,-29.5 L0.75,-29.5z M6.8,-31.6 C8.7,-31.3 10.45,-30.95 12.05,-30.55 10.5,-30.35 8.75,-30.25 6.85,-30.15 L6.8,-31.6z M15,-29.65 C15.1,-28.35 15.2,-27.05 15.2,-25.75 L15.15,-24.15 C12.85,-24 10.1,-23.85 7,-23.75 L6.9,-29.65 13.35,-30.15 15,-29.65z M15.4,-29.5 C17.9,-28.6 19.95,-27.65 21.35,-26.85 21.45,-26.15 21.5,-25.45 21.5,-24.75 20.05,-24.6 18.05,-24.35 15.5,-24.2 L15.5,-25.75 C15.55,-27.05 15.5,-28.3 15.4,-29.5z M14.1,-30.25 L14.95,-30.35 15,-29.95 14.1,-30.25z M12.9,-30.6 C11.05,-31.15 9,-31.6 6.75,-31.9 6.65,-33.85 6.45,-35.6 6.15,-37.2 8.85,-37.35 11.2,-37.6 13.2,-37.85 14,-35.8 14.55,-33.4 14.9,-30.85 L12.9,-30.6z M19.75,-34.8 L20.6,-31.75 C19.25,-31.5 17.5,-31.15 15.25,-30.9 14.95,-33.4 14.4,-35.7 13.65,-37.8 16.2,-36.8 18.25,-35.75 19.75,-34.8z M15.45,-23.7 L21.5,-24.25 C21.55,-22.75 21.5,-21.2 21.3,-19.75 L21.05,-18.35 C19.6,-19.15 17.65,-20.1 15.25,-21 L15.45,-23.7z M14.9,-21.1 C12.65,-21.9 10,-22.6 7,-23.05 L7,-23.25 C10.1,-23.35 12.8,-23.5 15.1,-23.65 L14.9,-21.1z M13.55,-13.75 L12.8,-11.6 C11,-12.45 8.85,-13.25 6.4,-13.75 L6.5,-14.4 C9.25,-14.5 11.7,-14.65 13.8,-14.85 L13.55,-13.75z M14.15,-14.9 C16.7,-15.15 18.75,-15.4 20.3,-15.65 19.5,-13.2 18.35,-11.05 17.05,-9.15 16.05,-9.85 14.75,-10.7 13.1,-11.45 13.4,-12.15 13.65,-12.8 13.8,-13.5 L14.15,-14.9z M13.95,-15.35 C11.8,-15.15 9.3,-15 6.55,-14.9 6.8,-17.1 6.95,-19.65 7,-22.75 10,-22.3 12.65,-21.6 14.85,-20.8 14.65,-19 14.35,-17.15 13.95,-15.35z M15.2,-20.7 C17.65,-19.8 19.6,-18.85 20.95,-18.05 20.85,-17.4 20.65,-16.75 20.5,-16.15 18.95,-15.9 16.85,-15.65 14.3,-15.4 14.7,-17.15 15,-18.95 15.2,-20.7z M6.7,-23.25 L6.7,-23.1 5.9,-23.2 6.7,-23.25z M0.45,-14.1 C2.45,-14.1 4.35,-13.85 6.05,-13.5 5.65,-10.7 5.15,-8.45 4.65,-6.2 L4.5,-5.65 C3.2,-5.9 1.75,-6.05 0.2,-6.1 L0,-6.1 C-1.65,-6.1 -3.25,-5.9 -4.65,-5.6 L-4.8,-6.2 C-5.3,-8.4 -5.8,-10.65 -6.2,-13.4 -4.25,-13.85 -2.1,-14.1 0.15,-14.1 L0.45,-14.1z M6.1,-13.8 C5.05,-14 4,-14.2 2.85,-14.3 L6.15,-14.4 6.1,-13.8z M6.7,-22.8 C6.65,-19.65 6.5,-17.1 6.2,-14.85 L0.15,-14.75 C-2.15,-14.75 -4.35,-14.8 -6.35,-14.9 -6.65,-17.1 -6.8,-19.65 -6.85,-22.7 -5.6,-22.9 -4.35,-23.05 -3,-23.15 L3.35,-23.15 C4.55,-23.1 5.65,-22.95 6.7,-22.8z M4.8,-5.3 C6.15,-5 7.4,-4.6 8.45,-4.2 7.6,-3.05 6.75,-1.95 5.85,-0.95 L3.55,-0.6 C3.9,-1.55 4.2,-2.55 4.45,-3.75 L4.8,-5.3z M4.15,-4 C3.85,-2.7 3.5,-1.55 3.15,-0.55 L0.25,-0.4 C-1,-0.4 -2.2,-0.5 -3.35,-0.65 -3.7,-1.65 -4.05,-2.75 -4.3,-4 L-4.6,-5.3 C-3.2,-5.6 -1.65,-5.8 0,-5.8 L0.2,-5.8 C1.75,-5.75 3.15,-5.6 4.45,-5.35 L4.15,-4z M4.95,-5.95 C5.45,-8.25 6,-10.55 6.35,-13.45 8.8,-12.95 10.9,-12.15 12.65,-11.35 11.65,-8.95 10.2,-6.6 8.65,-4.45 7.55,-4.9 6.25,-5.3 4.85,-5.6 L4.95,-5.95z M8.85,-4.05 C9.9,-3.6 10.8,-3.15 11.5,-2.7 10.05,-2.1 8.4,-1.5 6.55,-1.1 7.3,-2 8.1,-3 8.85,-4.05z M5.35,-0.4 L3.8,1.35 2.7,1.45 3.35,-0.1 C4.05,-0.15 4.7,-0.25 5.35,-0.4z M18.65,-7.55 L17.6,-6.2 C16.65,-5.45 15.1,-4.4 13.05,-3.4 14.35,-4.85 15.85,-6.6 17.2,-8.7 L18.65,-7.55z M17.4,-8.95 C18.7,-10.9 19.9,-13.15 20.7,-15.7 L22.95,-16.1 C22.1,-13.2 20.75,-10.4 18.85,-7.8 L17.4,-8.95z M11.85,-2.85 C11.1,-3.3 10.15,-3.8 9,-4.3 10.6,-6.45 12,-8.8 13,-11.2 14.6,-10.4 15.9,-9.6 16.9,-8.9 15.4,-6.7 13.75,-4.85 12.4,-3.3 L12.1,-2.95 11.85,-2.85z M12.1,-2.35 L13.05,-1.65 12.35,-1.1 C11.7,-0.75 10.8,-0.4 9.7,0 10.45,-0.6 11.15,-1.2 11.65,-1.8 L12.1,-2.35z M13.3,-1.85 L12.35,-2.55 C13.9,-3.25 15.25,-4 16.25,-4.7 15.45,-3.8 14.55,-2.95 13.6,-2.1 L13.3,-1.85z M11.35,-2.1 C10.6,-1.25 9.55,-0.4 8.4,0.4 7.25,0.75 5.95,1.05 4.45,1.25 4.95,0.7 5.5,0.15 6,-0.5 8,-0.9 9.8,-1.45 11.35,-2.1z M21.85,-24.3 L24,-24.6 24,-23.1 C24,-21 23.7,-18.95 23.2,-17 L21.35,-18.2 21.55,-19.5 C21.8,-21.1 21.85,-22.7 21.85,-24.3z M23.1,-16.6 L20.85,-16.2 21.3,-17.85 23.15,-16.7 23.1,-16.6z M8.5,0.9 L10.3,0.3 C8.8,1.2 7.1,2.1 5.3,2.9 6.4,2.25 7.5,1.6 8.5,0.9z M0.25,1.6 L-2.4,1.5 -3.15,-0.15 C-2.05,0 -0.9,0.05 0.25,0.05 L2.95,-0.05 2.25,1.5 C1.6,1.55 0.95,1.6 0.25,1.6z M1.35,4.4 L3.95,1.85 C5.1,1.7 6.2,1.45 7.2,1.25 5.15,2.55 3,3.65 1.6,4.35 L1.35,4.4z M2.45,1.95 C2.7,1.95 3,1.95 3.25,1.9 L1.25,3.9 C1.6,3.4 2,2.8 2.45,1.95z M-1.75,-48.45 L-3.05,-47.9 C-7.25,-47.45 -10.9,-46.1 -13.8,-44.6 -10.15,-47.15 -5.3,-48.15 -3.6,-48.4 -3.05,-48.45 -2.45,-48.5 -1.9,-48.5 L-1.75,-48.45z M-2.15,-47.55 C-3.25,-46.25 -4.65,-43.95 -5.7,-40.05 -8.2,-39.65 -10.55,-39.05 -12.6,-38.35 L-13.15,-38.4 C-12.5,-39.95 -11.75,-41.35 -10.85,-42.45 -9.25,-44.4 -5.55,-46.3 -2.95,-47.45 L-2.15,-47.55z M-6.2,-37.7 C-8.3,-37.85 -10.2,-38.05 -11.95,-38.25 -10.05,-38.85 -8,-39.35 -5.8,-39.7 L-6.2,-37.7z M-15.65,-43.05 C-12.8,-44.75 -9,-46.45 -4.6,-47.2 -6.95,-46.05 -9.7,-44.45 -11.05,-42.8 -12.05,-41.6 -12.9,-40.15 -13.55,-38.45 L-18.15,-39.25 C-17.65,-40.25 -17.15,-41.2 -16.6,-41.95 L-15.65,-43.05z M-18.55,-39.35 L-20.35,-39.7 C-19.55,-40.35 -18.4,-41.3 -16.8,-42.3 -17.45,-41.5 -18,-40.45 -18.55,-39.35z M-13.75,-37.95 C-16.15,-37.05 -18.2,-36.05 -19.8,-35.2 -19.4,-36.5 -18.9,-37.7 -18.4,-38.8 -17.2,-38.55 -15.6,-38.25 -13.75,-38 L-13.75,-37.95z M-13,-37.9 C-11.05,-37.65 -8.8,-37.4 -6.3,-37.25 -6.55,-35.65 -6.8,-33.85 -6.9,-31.85 -8.95,-31.55 -10.8,-31.15 -12.5,-30.65 L-15,-30.95 C-14.7,-33.45 -14.15,-35.75 -13.4,-37.75 L-13,-37.9z M-13,-30.2 L-7.05,-29.7 -7.15,-23.75 C-10.2,-23.85 -12.95,-24 -15.3,-24.2 L-15.35,-25.75 C-15.35,-27.05 -15.25,-28.3 -15.15,-29.55 L-13,-30.2z M-15.1,-30.45 L-13.75,-30.3 -15.15,-29.85 -15.1,-30.45z M-15.5,-29.75 C-17.95,-28.9 -19.95,-27.95 -21.45,-27.2 -21.35,-28.6 -21.1,-30 -20.8,-31.35 L-15.45,-30.5 -15.5,-29.75z M-15.65,-25.8 L-15.65,-24.2 -21.65,-24.75 -21.5,-26.85 C-20,-27.6 -18,-28.55 -15.55,-29.4 -15.65,-28.25 -15.7,-27.05 -15.65,-25.8z M-7,-30.2 L-11.7,-30.55 C-10.2,-30.95 -8.6,-31.3 -6.95,-31.55 L-7,-30.2z M-8,-47.85 C-10.6,-47 -13.65,-45.65 -15.8,-43.5 -18.1,-42.15 -19.75,-40.8 -20.65,-40 -19.9,-41.2 -19.05,-42.2 -18.05,-43 -15.15,-45.4 -11.8,-47 -8,-47.85z M-13.85,-37.6 C-14.6,-35.6 -15.1,-33.4 -15.4,-31 -17.6,-31.3 -19.4,-31.6 -20.7,-31.85 -20.5,-32.85 -20.2,-33.8 -19.9,-34.75 -18.35,-35.65 -16.3,-36.65 -13.85,-37.6z M-20.8,-39.35 L-18.8,-38.85 C-19.35,-37.65 -19.85,-36.35 -20.3,-34.9 -21.95,-33.95 -23.05,-33.15 -23.5,-32.8 -23,-35.1 -22.3,-37.1 -21.35,-38.85 L-21.35,-38.8 -20.8,-39.35z M-23.5,-32.1 L-23.45,-32.1 -23.5,-31.9 -21.2,-31.45 C-21.5,-30 -21.7,-28.5 -21.85,-27 -23.1,-26.35 -23.95,-25.8 -24.4,-25.55 -24.3,-28 -24.05,-30.3 -23.6,-32.35 -23.55,-32.4 -22.4,-33.3 -20.4,-34.5 L-21.1,-31.9 -23.4,-32.4 -23.5,-32.1z M-24.4,-25.15 C-24.15,-25.35 -23.3,-25.9 -21.85,-26.65 L-22,-24.8 -24.4,-25.1 -24.4,-25.15z M-21.7,-19.5 L-21.45,-18.1 C-22.5,-17.55 -23.2,-17.1 -23.6,-16.8 -24.15,-18.85 -24.4,-20.95 -24.45,-23.1 L-24.45,-24.6 C-24.1,-24.6 -23.3,-24.45 -22,-24.3 -22,-22.7 -21.95,-21.1 -21.7,-19.5z M-21.65,-24.3 C-20.15,-24.1 -18.1,-23.9 -15.6,-23.7 L-15.35,-20.85 C-17.75,-19.95 -19.7,-19.05 -21.15,-18.25 L-21.45,-19.75 C-21.65,-21.25 -21.7,-22.75 -21.65,-24.3z M-21,-16.25 L-23.3,-16.65 -21.4,-17.8 -21,-16.25z M-21.1,-17.95 C-19.7,-18.7 -17.7,-19.65 -15.3,-20.5 -15.1,-18.85 -14.85,-17.15 -14.45,-15.45 -17,-15.7 -19.1,-16 -20.65,-16.2 L-21.1,-17.95z M-20.85,-15.75 C-20.05,-13.15 -18.8,-10.8 -17.45,-8.8 L-19.1,-7.55 C-21.1,-10.3 -22.55,-13.15 -23.45,-16.2 L-20.85,-15.75z M-6.85,-23.25 L-5.5,-23.2 -6.85,-23 -6.85,-23.25z M-7.15,-23 C-10.1,-22.5 -12.75,-21.75 -15.05,-20.95 L-15.25,-23.7 C-12.9,-23.5 -10.2,-23.35 -7.15,-23.25 L-7.15,-23z M-6.55,-13.65 C-8.95,-13.05 -11.05,-12.25 -12.85,-11.45 -13.2,-12.2 -13.45,-13 -13.7,-13.75 L-13.95,-14.9 -6.65,-14.4 -6.55,-13.65z M-6.3,-14.4 L-2.45,-14.3 C-3.75,-14.15 -5,-13.95 -6.2,-13.7 L-6.3,-14.4z M-6.7,-14.9 L-14.1,-15.4 C-14.5,-17.15 -14.8,-18.9 -15,-20.65 -12.75,-21.45 -10.1,-22.2 -7.15,-22.7 -7.1,-19.65 -6.95,-17.1 -6.7,-14.9z M-18.9,-7.25 L-18.95,-7.35 -17.3,-8.55 C-16.1,-6.85 -14.9,-5.35 -13.75,-4.05 -16.9,-5.7 -18.75,-7.35 -18.75,-7.4 L-18.9,-7.25z M-14,-2.1 C-15.55,-3.4 -16.9,-4.8 -18.05,-6.25 -17.1,-5.5 -15.35,-4.3 -12.95,-3.1 L-12.8,-2.9 -12.45,-2.55 -13.65,-1.8 -14,-2.1z M-11.8,-2.6 C-10.2,-1.85 -8.4,-1.2 -6.35,-0.75 L-4.65,1.2 C-6.15,0.95 -7.55,0.65 -8.75,0.3 -9.85,-0.5 -10.85,-1.35 -11.6,-2.2 L-11.9,-2.55 -11.8,-2.6z M-11.8,-1.8 C-11.35,-1.25 -10.7,-0.7 -10.05,-0.15 -11.6,-0.7 -12.75,-1.25 -13.4,-1.6 L-12.25,-2.3 -11.8,-1.8z M-12.75,-3.55 C-14.05,-5 -15.55,-6.75 -16.95,-8.8 -15.95,-9.45 -14.65,-10.25 -13.05,-11 -12.1,-8.65 -10.65,-6.35 -9.15,-4.25 -10.1,-3.85 -10.95,-3.4 -11.65,-3 L-12.75,-3.55z M-17.1,-9.05 C-18.45,-11 -19.65,-13.2 -20.45,-15.7 -18.9,-15.45 -16.85,-15.2 -14.35,-14.95 L-13.2,-11.25 C-14.8,-10.5 -16.1,-9.7 -17.1,-9.05z M-6.9,-1.35 C-8.5,-1.8 -10,-2.3 -11.3,-2.85 -10.6,-3.25 -9.85,-3.6 -8.95,-4 -8.3,-3.05 -7.6,-2.2 -6.9,-1.35z M-8.55,-4.15 C-7.5,-4.55 -6.25,-4.95 -4.95,-5.25 L-4.6,-3.75 C-4.35,-2.6 -4.05,-1.6 -3.75,-0.7 L-6.2,-1.2 C-7,-2.1 -7.8,-3.1 -8.55,-4.15z M-5,-5.55 C-6.35,-5.2 -7.65,-4.8 -8.75,-4.4 -10.3,-6.5 -11.75,-8.8 -12.75,-11.15 -10.95,-12 -8.85,-12.75 -6.5,-13.35 -6.1,-10.5 -5.6,-8.2 -5.1,-5.95 L-5,-5.55z M-3.55,-0.2 L-2.85,1.45 -4,1.3 -5.65,-0.55 -3.55,-0.2z M-2.6,1.95 C-2.2,2.75 -1.75,3.4 -1.4,3.9 L-3.45,1.85 -2.6,1.95z M-0.1,4.8 C-0.1,4.75 -1.05,3.9 -2.15,2 L1.95,2 Q0.9,3.9 -0.05,4.8 L0,4.85 -0.2,4.9 -0.1,4.8z M-1.45,4.5 C-2.85,3.8 -5.25,2.55 -7.5,1.1 -6.45,1.35 -5.35,1.6 -4.1,1.8 L-1.45,4.5z M-4.55,3.4 C-7.15,2.35 -9.5,1.15 -11.5,-0.2 -10.75,0.1 -9.85,0.45 -8.85,0.75 -7.5,1.7 -5.95,2.65 -4.55,3.4z"/>
      </g>
    </g>
  </g>
</svg>