<?xml version="1.0" encoding="UTF-8" standalone="no"?>
<!-- Generator: flash2svg, http://dissentgraphics.com/tools/flash2svg -->

<svg
   xmlns:dc="http://purl.org/dc/elements/1.1/"
   xmlns:cc="http://creativecommons.org/ns#"
   xmlns:rdf="http://www.w3.org/1999/02/22-rdf-syntax-ns#"
   xmlns:svg="http://www.w3.org/2000/svg"
   xmlns="http://www.w3.org/2000/svg"
   xmlns:sodipodi="http://sodipodi.sourceforge.net/DTD/sodipodi-0.dtd"
   xmlns:inkscape="http://www.inkscape.org/namespaces/inkscape"
   id="Avatar"
   image-rendering="auto"
   version="1.1"
   x="0px"
   y="0px"
   width="49.052361"
   height="55"
   viewBox="0 0 49.052361 55"
   inkscape:version="0.48.4 r9939"
   sodipodi:docname="Avatar_backHead3.svg">
  <metadata
     id="metadata3164">
    <rdf:RDF>
      <cc:Work
         rdf:about="">
        <dc:format>image/svg+xml</dc:format>
        <dc:type
           rdf:resource="http://purl.org/dc/dcmitype/StillImage" />
      </cc:Work>
    </rdf:RDF>
  </metadata>
  <sodipodi:namedview
     pagecolor="#ffffff"
     bordercolor="#666666"
     borderopacity="1"
     objecttolerance="10"
     gridtolerance="10"
     guidetolerance="10"
     inkscape:pageopacity="0"
     inkscape:pageshadow="2"
     inkscape:window-width="640"
     inkscape:window-height="480"
     id="namedview3162"
     showgrid="false"
     fit-margin-top="0"
     fit-margin-left="0"
     fit-margin-right="0"
     fit-margin-bottom="0"
     inkscape:zoom="1.8730159"
     inkscape:cx="58.750798"
     inkscape:cy="-7.239009"
     inkscape:window-x="31"
     inkscape:window-y="67"
     inkscape:window-maximized="0"
     inkscape:current-layer="Avatar" />
  <defs
     id="defs3146">
    <radialGradient
       gradientUnits="userSpaceOnUse"
       color-interpolation="sRGB"
       r="49.454174"
       cx="5.4499998"
       cy="-36.799"
       fx="5.4499998"
       fy="-36.799"
       gradientTransform="matrix(-0.41906738,0.90818787,0.90818787,0.41906738,41.1,-26.299)"
       id="radialGradient">
      <stop
         stop-color="#FFF"
         stop-opacity="1"
         offset="0"
         id="stop3149" />
      <stop
         stop-color="#FFF"
         stop-opacity="0.40784313725490196"
         offset="1"
         id="stop3151" />
    </radialGradient>
    <radialGradient
       gradientUnits="userSpaceOnUse"
       color-interpolation="sRGB"
       r="49.465"
       cx="46.550999"
       cy="-63.056"
       fx="46.550999"
       fy="-63.056"
       gradientTransform="matrix(-0.419,0.908,0.908,0.419,82.1,-52.499)"
       id="radialGradient1">
      <stop
         stop-color="#FFF"
         stop-opacity="1"
         offset="0"
         id="stop3154" />
      <stop
         stop-color="#FFF"
         stop-opacity="0.40784313725490196"
         offset="1"
         id="stop3156" />
    </radialGradient>
  </defs>
  <g
     id="backHead4"
     overflow="visible"
     style="overflow:visible"
     transform="translate(24.750798,49.05)">
    <g
       id="backHead3_0">
      <g
         id="element">
        <path
           id="path"
           d="m 20.9,-39.9 -0.1,0.05 c -0.85,-1.45 -1.85,-2.65 -3,-3.6 C 13.4,-47.1 8.35,-48.6 3.5,-48.9 l -0.7,-0.1 0,0.05 -2.35,0 -0.35,-0.1 -0.05,0.1 -0.25,0.05 -0.05,-0.15 -0.35,0.1 -2.35,0 0,-0.05 -0.55,0.1 c -5.05,0.25 -10.2,1.7 -14.75,5.45 -4.25,3.55 -6.55,10.55 -6.5,20.35 l 0,0.15 c 0.05,2.25 0.35,4.35 0.85,6.35 l -0.1,0.05 0.15,0.15 -0.05,0.15 0.1,0 c 1.6,5.8 5.15,10.65 9.6,14.6 l 0.15,0.1 -0.05,0.1 -0.05,0.05 0.15,0.25 0.2,-0.15 0.25,0.15 c 3.35,2.7 8,4.9 12.25,6.25 l 0.85,0.35 -0.35,0.3 0.45,-0.2 -0.45,0.4 0.75,-0.3 0.7,0.3 L 0.2,5.55 0.65,5.75 0.3,5.45 1.7,4.8 C 5.45,3.55 9.45,1.65 12.5,-0.65 l 1.1,-0.6 0.05,0 0.2,-0.15 -0.05,-0.05 0,-0.05 -0.05,0 0.1,-0.1 -0.05,-0.1 c 1.45,-1.25 2.8,-2.65 4,-4.1 0.8,-0.6 1.2,-1.05 1.25,-1.05 l -0.1,-0.1 0.1,-0.1 L 18.9,-7.2 19,-7.35 19.15,-7.5 c 1.85,-2.6 3.3,-5.5 4.2,-8.65 l 0.3,-0.1 -0.05,-0.15 0.05,0 -0.05,-0.2 0.05,-0.1 -0.15,-0.1 c 0.5,-1.9 0.8,-3.95 0.8,-6.15 l 0,-0.15 c 0.05,-7.05 -1.1,-12.6 -3.35,-16.5 l -0.05,-0.3 z m -0.1,0.85 c 1,1.75 1.75,3.85 2.25,6.25 -0.25,-0.25 -1.25,-1.1 -2.95,-2.1 -0.4,-1.4 -0.9,-2.75 -1.45,-3.9 l 1.75,-0.45 0.3,0.3 0.1,-0.1 z m 2.35,6.7 c -0.2,0.1 -0.95,0.3 -2.2,0.55 l -0.7,-2.7 c 1.75,1.15 2.65,2 2.7,2 l 0.15,-0.15 0.05,0.3 z m 0.1,0.5 c 0.4,1.9 0.6,4 0.7,6.25 -0.35,-0.25 -1.1,-0.75 -2.25,-1.4 -0.15,-1.5 -0.35,-2.95 -0.65,-4.35 l 2.2,-0.5 z m 0.7,6.75 -2.1,0.3 -0.15,-1.85 c 1.45,0.8 2.25,1.4 2.25,1.4 l 0,0.15 z m -2.65,-2.1 c -1.45,-0.8 -3.45,-1.75 -5.95,-2.65 L 15.3,-30.4 c 2.25,-0.3 4.05,-0.6 5.4,-0.85 0.25,1.3 0.5,2.65 0.6,4.05 z m -8.25,-11.1 -0.05,0 c -2.15,-0.8 -4.65,-1.45 -7.5,-1.85 -1,-3.9 -2.45,-6.15 -3.55,-7.4 l 0.65,0 c 2.6,1.15 6.45,3.1 8.1,5.1 0.9,1.15 1.7,2.55 2.35,4.15 z m -2.15,-4.5 c -1.4,-1.75 -4.3,-3.35 -6.75,-4.55 4.55,0.65 8.25,2.3 11,3.95 l 1.3,1.45 c 0.55,0.8 1.1,1.7 1.6,2.75 -1.2,0.25 -2.7,0.55 -4.6,0.85 -0.7,-1.75 -1.55,-3.25 -2.55,-4.45 z m 5.65,0.35 c 1.65,1.1 2.8,2.15 3.45,2.8 l -1.55,0.4 c -0.55,-1.2 -1.15,-2.2 -1.8,-3.05 l -0.1,-0.15 z m 3.6,2.35 c -0.85,-0.85 -2.5,-2.3 -4.85,-3.7 -1.85,-1.75 -4.25,-2.9 -6.45,-3.7 3.25,0.85 6.2,2.35 8.75,4.5 0.95,0.8 1.8,1.75 2.55,2.9 z m -1.9,1.35 c 0.5,1.1 0.95,2.25 1.4,3.55 -1.45,-0.9 -3.35,-1.9 -5.65,-2.75 1.75,-0.3 3.15,-0.55 4.25,-0.8 z m -17.8,-9.4 -1.35,0.05 0.45,-0.35 0.7,0 0.45,0.35 -0.25,-0.05 z m 0.85,0.55 c 1.1,1.1 2.65,3.3 3.85,7.4 -1.5,-0.15 -3,-0.3 -4.65,-0.3 l -0.3,0 c -1.95,0 -3.75,0.15 -5.5,0.4 1.15,-4.15 2.7,-6.35 3.85,-7.45 0.5,-0.05 1.05,-0.1 1.6,-0.1 l 1.15,0.05 z m 2.25,-0.8 c 1.6,0.25 5.55,1.1 8.95,3.05 C 9.8,-46.6 6.55,-47.65 2.7,-48 l -1.1,-0.45 1.95,0.05 z M 0.3,-37.5 c -2.15,0 -4.25,-0.1 -6.15,-0.2 l 0.45,-2.1 c 1.8,-0.25 3.65,-0.4 5.6,-0.4 l 0.3,0 c 1.65,0 3.2,0.15 4.7,0.35 l 0.55,2.2 c -1.6,0.1 -3.3,0.15 -5.15,0.15 l -0.3,0 z m 5.3,-2.3 c 2.5,0.3 4.75,0.9 6.75,1.55 -1.8,0.25 -3.9,0.45 -6.3,0.6 -0.1,-0.8 -0.3,-1.5 -0.45,-2.15 z m -5,2.8 c 1.85,0 3.6,-0.05 5.2,-0.15 0.3,1.5 0.5,3.25 0.65,5.2 -1.9,-0.25 -3.9,-0.4 -6,-0.45 l -0.4,0 c -2.35,0 -4.55,0.2 -6.65,0.5 0.15,-2 0.35,-3.75 0.65,-5.3 1.95,0.1 4.05,0.2 6.25,0.2 l 0.3,0 z m -0.2,4.95 c 2.2,0 4.2,0.15 6.05,0.4 l 0.1,0.85 0,0.65 C 4.75,-30.05 2.8,-30 0.75,-30 l -0.3,0.05 c -2.55,0 -4.95,-0.1 -7.15,-0.25 l 0,-0.6 0.1,-0.8 c 2.05,-0.3 4.3,-0.5 6.65,-0.5 l 0.35,0.05 z m 0.35,2.55 c 2.1,0 4,-0.05 5.8,-0.15 l 0.15,5.9 c -1.95,0.1 -4,0.1 -6.25,0.1 L 0.1,-23.6 c -2.45,0 -4.8,-0.05 -6.95,-0.15 l 0.15,-5.95 c 2.2,0.15 4.6,0.2 7.15,0.2 l 0.3,0 z m 6.05,-2.1 c 1.9,0.3 3.65,0.65 5.25,1.05 -1.55,0.2 -3.3,0.3 -5.2,0.4 L 6.8,-31.6 z m 8.2,1.95 c 0.1,1.3 0.2,2.6 0.2,3.9 l -0.05,1.6 c -2.3,0.15 -5.05,0.3 -8.15,0.4 l -0.1,-5.9 6.45,-0.5 1.65,0.5 z m 0.4,0.15 c 2.5,0.9 4.55,1.85 5.95,2.65 0.1,0.7 0.15,1.4 0.15,2.1 -1.45,0.15 -3.45,0.4 -6,0.55 l 0,-1.55 c 0.05,-1.3 0,-2.55 -0.1,-3.75 z m -1.3,-0.75 0.85,-0.1 0.05,0.4 -0.9,-0.3 z m -1.2,-0.35 c -1.85,-0.55 -3.9,-1 -6.15,-1.3 -0.1,-1.95 -0.3,-3.7 -0.6,-5.3 2.7,-0.15 5.05,-0.4 7.05,-0.65 0.8,2.05 1.35,4.45 1.7,7 l -2,0.25 z m 6.85,-4.2 0.85,3.05 c -1.35,0.25 -3.1,0.6 -5.35,0.85 -0.3,-2.5 -0.85,-4.8 -1.6,-6.9 2.55,1 4.6,2.05 6.1,3 z m -4.3,11.1 6.05,-0.55 c 0.05,1.5 0,3.05 -0.2,4.5 l -0.25,1.4 c -1.45,-0.8 -3.4,-1.75 -5.8,-2.65 l 0.2,-2.7 z m -0.55,2.6 C 12.65,-21.9 10,-22.6 7,-23.05 l 0,-0.2 c 3.1,-0.1 5.8,-0.25 8.1,-0.4 l -0.2,2.55 z m -1.35,7.35 -0.75,2.15 C 11,-12.45 8.85,-13.25 6.4,-13.75 l 0.1,-0.65 c 2.75,-0.1 5.2,-0.25 7.3,-0.45 l -0.25,1.1 z m 0.6,-1.15 c 2.55,-0.25 4.6,-0.5 6.15,-0.75 -0.8,2.45 -1.95,4.6 -3.25,6.5 -1,-0.7 -2.3,-1.55 -3.95,-2.3 0.3,-0.7 0.55,-1.35 0.7,-2.05 l 0.35,-1.4 z m -0.2,-0.45 c -2.15,0.2 -4.65,0.35 -7.4,0.45 0.25,-2.2 0.4,-4.75 0.45,-7.85 3,0.45 5.65,1.15 7.85,1.95 -0.2,1.8 -0.5,3.65 -0.9,5.45 z m 1.25,-5.35 c 2.45,0.9 4.4,1.85 5.75,2.65 -0.1,0.65 -0.3,1.3 -0.45,1.9 -1.55,0.25 -3.65,0.5 -6.2,0.75 0.4,-1.75 0.7,-3.55 0.9,-5.3 z m -8.5,-2.55 0,0.15 -0.8,-0.1 0.8,-0.05 z m -6.25,9.15 c 2,0 3.9,0.25 5.6,0.6 -0.4,2.8 -0.9,5.05 -1.4,7.3 L 4.5,-5.65 C 3.2,-5.9 1.75,-6.05 0.2,-6.1 l -0.2,0 c -1.65,0 -3.25,0.2 -4.65,0.5 L -4.8,-6.2 c -0.5,-2.2 -1,-4.45 -1.4,-7.2 1.95,-0.45 4.1,-0.7 6.35,-0.7 l 0.3,0 z m 5.65,0.3 C 5.05,-14 4,-14.2 2.85,-14.3 l 3.3,-0.1 -0.05,0.6 z m 0.6,-9 c -0.05,3.15 -0.2,5.7 -0.5,7.95 l -6.05,0.1 c -2.3,0 -4.5,-0.05 -6.5,-0.15 -0.3,-2.2 -0.45,-4.75 -0.5,-7.8 1.25,-0.2 2.5,-0.35 3.85,-0.45 l 6.35,0 c 1.2,0.05 2.3,0.2 3.35,0.35 z M 4.8,-5.3 c 1.35,0.3 2.6,0.7 3.65,1.1 -0.85,1.15 -1.7,2.25 -2.6,3.25 L 3.55,-0.6 C 3.9,-1.55 4.2,-2.55 4.45,-3.75 L 4.8,-5.3 z M 4.15,-4 c -0.3,1.3 -0.65,2.45 -1,3.45 l -2.9,0.15 c -1.25,0 -2.45,-0.1 -3.6,-0.25 -0.35,-1 -0.7,-2.1 -0.95,-3.35 l -0.3,-1.3 c 1.4,-0.3 2.95,-0.5 4.6,-0.5 l 0.2,0 c 1.55,0.05 2.95,0.2 4.25,0.45 L 4.15,-4 z m 0.8,-1.95 c 0.5,-2.3 1.05,-4.6 1.4,-7.5 2.45,0.5 4.55,1.3 6.3,2.1 -1,2.4 -2.45,4.75 -4,6.9 C 7.55,-4.9 6.25,-5.3 4.85,-5.6 l 0.1,-0.35 z m 3.9,1.9 C 9.9,-3.6 10.8,-3.15 11.5,-2.7 10.05,-2.1 8.4,-1.5 6.55,-1.1 7.3,-2 8.1,-3 8.85,-4.05 z M 5.35,-0.4 3.8,1.35 2.7,1.45 3.35,-0.1 c 0.7,-0.05 1.35,-0.15 2,-0.3 z m 13.3,-7.15 -1.05,1.35 c -0.95,0.75 -2.5,1.8 -4.55,2.8 1.3,-1.45 2.8,-3.2 4.15,-5.3 l 1.45,1.15 z m -1.25,-1.4 c 1.3,-1.95 2.5,-4.2 3.3,-6.75 l 2.25,-0.4 c -0.85,2.9 -2.2,5.7 -4.1,8.3 L 17.4,-8.95 z m -5.55,6.1 C 11.1,-3.3 10.15,-3.8 9,-4.3 c 1.6,-2.15 3,-4.5 4,-6.9 1.6,0.8 2.9,1.6 3.9,2.3 -1.5,2.2 -3.15,4.05 -4.5,5.6 l -0.3,0.35 -0.25,0.1 z m 0.25,0.5 0.95,0.7 -0.7,0.55 C 11.7,-0.75 10.8,-0.4 9.7,0 c 0.75,-0.6 1.45,-1.2 1.95,-1.8 l 0.45,-0.55 z m 1.2,0.5 -0.95,-0.7 c 1.55,-0.7 2.9,-1.45 3.9,-2.15 -0.8,0.9 -1.7,1.75 -2.65,2.6 l -0.3,0.25 z M 11.35,-2.1 C 10.6,-1.25 9.55,-0.4 8.4,0.4 7.25,0.75 5.95,1.05 4.45,1.25 4.95,0.7 5.5,0.15 6,-0.5 8,-0.9 9.8,-1.45 11.35,-2.1 z m 10.5,-22.2 2.15,-0.3 0,1.5 c 0,2.1 -0.3,4.15 -0.8,6.1 l -1.85,-1.2 0.2,-1.3 c 0.25,-1.6 0.3,-3.2 0.3,-4.8 z m 1.25,7.7 -2.25,0.4 0.45,-1.65 1.85,1.15 -0.05,0.1 z M 8.5,0.9 10.3,0.3 C 8.8,1.2 7.1,2.1 5.3,2.9 6.4,2.25 7.5,1.6 8.5,0.9 z M 0.25,1.6 -2.4,1.5 -3.15,-0.15 c 1.1,0.15 2.25,0.2 3.4,0.2 l 2.7,-0.1 -0.7,1.55 c -0.65,0.05 -1.3,0.1 -2,0.1 z m 1.1,2.8 2.6,-2.55 C 5.1,1.7 6.2,1.45 7.2,1.25 5.15,2.55 3,3.65 1.6,4.35 L 1.35,4.4 z m 1.1,-2.45 c 0.25,0 0.55,0 0.8,-0.05 l -2,2 C 1.6,3.4 2,2.8 2.45,1.95 z m -4.2,-50.4 -1.3,0.55 c -4.2,0.45 -7.85,1.8 -10.75,3.3 3.65,-2.55 8.5,-3.55 10.2,-3.8 0.55,-0.05 1.15,-0.1 1.7,-0.1 l 0.15,0.05 z m -0.4,0.9 c -1.1,1.3 -2.5,3.6 -3.55,7.5 -2.5,0.4 -4.85,1 -6.9,1.7 l -0.55,-0.05 c 0.65,-1.55 1.4,-2.95 2.3,-4.05 1.6,-1.95 5.3,-3.85 7.9,-5 l 0.8,-0.1 z m -4.05,9.85 c -2.1,-0.15 -4,-0.35 -5.75,-0.55 1.9,-0.6 3.95,-1.1 6.15,-1.45 l -0.4,2 z m -9.45,-5.35 c 2.85,-1.7 6.65,-3.4 11.05,-4.15 -2.35,1.15 -5.1,2.75 -6.45,4.4 -1,1.2 -1.85,2.65 -2.5,4.35 l -4.6,-0.8 c 0.5,-1 1,-1.95 1.55,-2.7 l 0.95,-1.1 z m -2.9,3.7 -1.8,-0.35 c 0.8,-0.65 1.95,-1.6 3.55,-2.6 -0.65,0.8 -1.2,1.85 -1.75,2.95 z m 4.8,1.4 c -2.4,0.9 -4.45,1.9 -6.05,2.75 0.4,-1.3 0.9,-2.5 1.4,-3.6 1.2,0.25 2.8,0.55 4.65,0.8 l 0,0.05 z m 0.75,0.05 c 1.95,0.25 4.2,0.5 6.7,0.65 -0.25,1.6 -0.5,3.4 -0.6,5.4 -2.05,0.3 -3.9,0.7 -5.6,1.2 l -2.5,-0.3 c 0.3,-2.5 0.85,-4.8 1.6,-6.8 l 0.4,-0.15 z m 0,7.7 5.95,0.5 -0.1,5.95 c -3.05,-0.1 -5.8,-0.25 -8.15,-0.45 l -0.05,-1.55 c 0,-1.3 0.1,-2.55 0.2,-3.8 L -13,-30.2 z m -2.1,-0.25 1.35,0.15 -1.4,0.45 0.05,-0.6 z m -0.4,0.7 c -2.45,0.85 -4.45,1.8 -5.95,2.55 0.1,-1.4 0.35,-2.8 0.65,-4.15 l 5.35,0.85 -0.05,0.75 z m -0.15,3.95 0,1.6 -6,-0.55 0.15,-2.1 c 1.5,-0.75 3.5,-1.7 5.95,-2.55 -0.1,1.15 -0.15,2.35 -0.1,3.6 z m 8.65,-4.4 -4.7,-0.35 c 1.5,-0.4 3.1,-0.75 4.75,-1 L -7,-30.2 z m -1,-17.65 c -2.6,0.85 -5.65,2.2 -7.8,4.35 -2.3,1.35 -3.95,2.7 -4.85,3.5 0.75,-1.2 1.6,-2.2 2.6,-3 2.9,-2.4 6.25,-4 10.05,-4.85 z m -5.85,10.25 c -0.75,2 -1.25,4.2 -1.55,6.6 -2.2,-0.3 -4,-0.6 -5.3,-0.85 0.2,-1 0.5,-1.95 0.8,-2.9 1.55,-0.9 3.6,-1.9 6.05,-2.85 z m -6.95,-1.75 2,0.5 c -0.55,1.2 -1.05,2.5 -1.5,3.95 -1.65,0.95 -2.75,1.75 -3.2,2.1 0.5,-2.3 1.2,-4.3 2.15,-6.05 l 0,0.05 0.55,-0.55 z m -2.7,7.25 0.05,0 -0.05,0.2 2.3,0.45 c -0.3,1.45 -0.5,2.95 -0.65,4.45 -1.25,0.65 -2.1,1.2 -2.55,1.45 0.1,-2.45 0.35,-4.75 0.8,-6.8 0.05,-0.05 1.2,-0.95 3.2,-2.15 l -0.7,2.6 -2.3,-0.5 -0.1,0.3 z m -0.9,6.95 c 0.25,-0.2 1.1,-0.75 2.55,-1.5 l -0.15,1.85 -2.4,-0.3 0,-0.05 z m 2.7,5.65 0.25,1.4 c -1.05,0.55 -1.75,1 -2.15,1.3 -0.55,-2.05 -0.8,-4.15 -0.85,-6.3 l 0,-1.5 c 0.35,0 1.15,0.15 2.45,0.3 0,1.6 0.05,3.2 0.3,4.8 z m 0.05,-4.8 c 1.5,0.2 3.55,0.4 6.05,0.6 l 0.25,2.85 c -2.4,0.9 -4.35,1.8 -5.8,2.6 l -0.3,-1.5 c -0.2,-1.5 -0.25,-3 -0.2,-4.55 z m 0.65,8.05 -2.3,-0.4 1.9,-1.15 0.4,1.55 z m -0.1,-1.7 c 1.4,-0.75 3.4,-1.7 5.8,-2.55 0.2,1.65 0.45,3.35 0.85,5.05 -2.55,-0.25 -4.65,-0.55 -6.2,-0.75 l -0.45,-1.75 z m 0.25,2.2 c 0.8,2.6 2.05,4.95 3.4,6.95 l -1.65,1.25 c -2,-2.75 -3.45,-5.6 -4.35,-8.65 l 2.6,0.45 z m 14,-7.5 1.35,0.05 -1.35,0.2 0,-0.25 z m -0.3,0.25 c -2.95,0.5 -5.6,1.25 -7.9,2.05 l -0.2,-2.75 c 2.35,0.2 5.05,0.35 8.1,0.45 l 0,0.25 z m 0.6,9.35 c -2.4,0.6 -4.5,1.4 -6.3,2.2 -0.35,-0.75 -0.6,-1.55 -0.85,-2.3 l -0.25,-1.15 7.3,0.5 0.1,0.75 z m 0.25,-0.75 3.85,0.1 c -1.3,0.15 -2.55,0.35 -3.75,0.6 l -0.1,-0.7 z m -0.4,-0.5 -7.4,-0.5 c -0.4,-1.75 -0.7,-3.5 -0.9,-5.25 2.25,-0.8 4.9,-1.55 7.85,-2.05 0.05,3.05 0.2,5.6 0.45,7.8 z m -12.2,7.65 -0.05,-0.1 1.65,-1.2 c 1.2,1.7 2.4,3.2 3.55,4.5 -3.15,-1.65 -5,-3.3 -5,-3.35 l -0.15,0.15 z m 4.9,5.15 c -1.55,-1.3 -2.9,-2.7 -4.05,-4.15 0.95,0.75 2.7,1.95 5.1,3.15 l 0.15,0.2 0.35,0.35 -1.2,0.75 -0.35,-0.3 z m 2.2,-0.5 c 1.6,0.75 3.4,1.4 5.45,1.85 l 1.7,1.95 c -1.5,-0.25 -2.9,-0.55 -4.1,-0.9 -1.1,-0.8 -2.1,-1.65 -2.85,-2.5 l -0.3,-0.35 0.1,-0.05 z m 0,0.8 c 0.45,0.55 1.1,1.1 1.75,1.65 -1.55,-0.55 -2.7,-1.1 -3.35,-1.45 l 1.15,-0.7 0.45,0.5 z m -0.95,-1.75 c -1.3,-1.45 -2.8,-3.2 -4.2,-5.25 1,-0.65 2.3,-1.45 3.9,-2.2 0.95,2.35 2.4,4.65 3.9,6.75 -0.95,0.4 -1.8,0.85 -2.5,1.25 l -1.1,-0.55 z m -4.35,-5.5 c -1.35,-1.95 -2.55,-4.15 -3.35,-6.65 1.55,0.25 3.6,0.5 6.1,0.75 l 1.15,3.7 c -1.6,0.75 -2.9,1.55 -3.9,2.2 z m 10.2,7.7 c -1.6,-0.45 -3.1,-0.95 -4.4,-1.5 0.7,-0.4 1.45,-0.75 2.35,-1.15 0.65,0.95 1.35,1.8 2.05,2.65 z m -1.65,-2.8 c 1.05,-0.4 2.3,-0.8 3.6,-1.1 l 0.35,1.5 c 0.25,1.15 0.55,2.15 0.85,3.05 L -6.2,-1.2 C -7,-2.1 -7.8,-3.1 -8.55,-4.15 z M -5,-5.55 c -1.35,0.35 -2.65,0.75 -3.75,1.15 -1.55,-2.1 -3,-4.4 -4,-6.75 1.8,-0.85 3.9,-1.6 6.25,-2.2 0.4,2.85 0.9,5.15 1.4,7.4 l 0.1,0.4 z m 1.45,5.35 0.7,1.65 L -4,1.3 l -1.65,-1.85 2.1,0.35 z m 0.95,2.15 c 0.4,0.8 0.85,1.45 1.2,1.95 L -3.45,1.85 -2.6,1.95 z M -0.1,4.8 C -0.1,4.75 -1.05,3.9 -2.15,2 l 4.1,0 q -1.05,1.9 -2,2.8 L 0,4.85 -0.2,4.9 -0.1,4.8 z M -1.45,4.5 c -1.4,-0.7 -3.8,-1.95 -6.05,-3.4 1.05,0.25 2.15,0.5 3.4,0.7 l 2.65,2.7 z m -3.1,-1.1 c -2.6,-1.05 -4.95,-2.25 -6.95,-3.6 0.75,0.3 1.65,0.65 2.65,0.95 1.35,0.95 2.9,1.9 4.3,2.65 z"
           inkscape:connector-curvature="0"
           style="fill:url(#radialGradient1)" />
      </g>
    </g>
  </g>
</svg>
