<?xml version="1.0" encoding="UTF-8" standalone="no"?>
<!-- Generator: flash2svg, http://dissentgraphics.com/tools/flash2svg -->

<svg
   xmlns:dc="http://purl.org/dc/elements/1.1/"
   xmlns:cc="http://creativecommons.org/ns#"
   xmlns:rdf="http://www.w3.org/1999/02/22-rdf-syntax-ns#"
   xmlns:svg="http://www.w3.org/2000/svg"
   xmlns="http://www.w3.org/2000/svg"
   xmlns:sodipodi="http://sodipodi.sourceforge.net/DTD/sodipodi-0.dtd"
   xmlns:inkscape="http://www.inkscape.org/namespaces/inkscape"
   id="Avatar"
   image-rendering="auto"
   version="1.1"
   x="0px"
   y="0px"
   width="10.264583"
   height="12.505452"
   viewBox="0 0 10.264583 12.505452"
   inkscape:version="0.48.4 r9939"
   sodipodi:docname="Avatar_backHandLeft3.svg">
  <metadata
     id="metadata3122">
    <rdf:RDF>
      <cc:Work
         rdf:about="">
        <dc:format>image/svg+xml</dc:format>
        <dc:type
           rdf:resource="http://purl.org/dc/dcmitype/StillImage" />
      </cc:Work>
    </rdf:RDF>
  </metadata>
  <sodipodi:namedview
     pagecolor="#ffffff"
     bordercolor="#666666"
     borderopacity="1"
     objecttolerance="10"
     gridtolerance="10"
     guidetolerance="10"
     inkscape:pageopacity="0"
     inkscape:pageshadow="2"
     inkscape:window-width="640"
     inkscape:window-height="480"
     id="namedview3120"
     showgrid="false"
     fit-margin-top="0"
     fit-margin-left="0"
     fit-margin-right="0"
     fit-margin-bottom="0"
     inkscape:zoom="1.8730159"
     inkscape:cx="40.397939"
     inkscape:cy="-33.310574"
     inkscape:window-x="0"
     inkscape:window-y="0"
     inkscape:window-maximized="0"
     inkscape:current-layer="Avatar" />
  <defs
     id="defs3104">
    <radialGradient
       gradientUnits="userSpaceOnUse"
       color-interpolation="sRGB"
       r="9.8729563"
       cx="-0.098999999"
       cy="-7.099"
       fx="-0.098999999"
       fy="-7.099"
       gradientTransform="matrix(0.73182678,0.68170166,0.68170166,-0.73182678,4.8,-12.149)"
       id="radialGradient">
      <stop
         stop-color="#FFF"
         stop-opacity="1"
         offset="0"
         id="stop3107" />
      <stop
         stop-color="#FFF"
         stop-opacity="0.40784313725490196"
         offset="1"
         id="stop3109" />
    </radialGradient>
    <radialGradient
       gradientUnits="userSpaceOnUse"
       color-interpolation="sRGB"
       r="9.8739996"
       cx="4.7010002"
       cy="-19.198999"
       fx="4.7010002"
       fy="-19.198999"
       gradientTransform="matrix(0.732,0.682,0.682,-0.732,9.5,-24.099)"
       id="radialGradient1">
      <stop
         stop-color="#FFF"
         stop-opacity="1"
         offset="0"
         id="stop3112" />
      <stop
         stop-color="#FFF"
         stop-opacity="0.40784313725490196"
         offset="1"
         id="stop3114" />
    </radialGradient>
  </defs>
  <g
     id="backHandLeft4"
     overflow="visible"
     style="overflow:visible"
     transform="translate(6.3979393,9.95)">
    <g
       id="backHandLeft3_0">
      <g
         id="element">
        <path
           id="path"
           d="m 0.5,-8.2 c 0,-0.6 -0.3,-1.55 -0.85,-1.75 l -0.2,0 c -0.5,0 -1.6,0.9 -1.65,2.4 -0.2,-0.45 -0.4,-0.9 -0.7,-1.1 -0.15,-0.1 -0.35,-0.15 -0.5,-0.15 -0.15,0 -0.25,0 -0.4,0.1 -0.4,0.2 -0.7,0.7 -0.8,1.45 -0.05,0.45 -0.05,0.85 0,1.2 l -0.2,-0.3 c -0.1,-0.2 -0.3,-0.3 -0.5,-0.35 -0.45,0 -0.9,0.4 -1.05,1.45 -0.2,1.45 0.25,2.85 0.9,3.75 l 0.3,0.7 -0.05,0.05 c -0.05,0.15 0.1,0.25 0.2,0.2 0.45,0.65 1.05,1.35 1.6,1.9 -0.05,0.1 0.05,0.2 0.15,0.15 l 0.95,0.7 c 0.45,0.25 0.95,0.35 1.4,0.35 C -0.15,2.6 0.6,2.3 1.2,1.9 l 0.05,0 C 1.4,1.95 1.5,1.8 1.45,1.7 2.1,1.05 2.6,0.15 2.8,-0.8 2.9,-0.85 2.9,-0.95 2.85,-1.05 2.85,-1.4 2.9,-1.8 2.8,-2.2 2.85,-2.45 2.9,-4.1 2.6,-4.45 3.1,-5 4,-5.75 3.85,-6.35 3.7,-7.1 3.45,-7.4 3.05,-7.4 2.6,-7.45 2,-7 1.6,-6.4 L 1.3,-6.05 0.95,-6.55 C 0.45,-7.15 0.5,-7.7 0.5,-8.2 z m 0,1.55 C 0,-6.9 -0.55,-7 -1.05,-6.8 -0.9,-8 -0.65,-9 -0.35,-9.6 l 0.15,0.15 c 0.3,0.3 0.4,0.9 0.4,1.25 0,0.45 0,1 0.3,1.55 z M 2.25,-6.7 C 2.55,-7 2.8,-7.15 3,-7.1 c 0.1,0 0.2,0.05 0.25,0.15 C 3.2,-7 3.15,-7 3.1,-6.95 l -0.75,1 C 2.25,-6.15 2.2,-6.35 2.3,-6.6 L 2.25,-6.7 z m -0.3,0.35 c 0,0.25 0.05,0.5 0.2,0.65 -0.3,0.35 -0.5,0.75 -0.65,1.15 -0.9,-0.3 -1.75,-0.3 -2.6,-0.05 -0.05,-0.65 0,-1.3 0.05,-1.9 0.55,-0.2 1.2,-0.15 1.75,0.35 l 0.15,0 0.4,0.45 0.2,-0.1 c 0.15,-0.1 0.3,-0.25 0.4,-0.45 l 0.1,-0.1 z m 1.6,0.05 C 3.6,-6.1 3.4,-5.8 3.15,-5.45 L 3.1,-5.5 c -0.25,0 -0.45,-0.1 -0.55,-0.2 l 0.8,-1.05 0,-0.1 c 0.1,0.15 0.2,0.4 0.2,0.55 z m -1.75,1.85 0.5,-1 c 0.15,0.1 0.35,0.2 0.6,0.25 l -0.65,0.75 0.15,0.2 0.05,0.1 L 2.4,-4.2 1.8,-4.45 z m 0.45,0.55 c 0.1,0.05 0.15,-0.05 0.25,-0.15 l 0.05,1.8 c 0.05,0.35 0.05,0.75 0,1.05 l -0.7,-0.15 -0.2,-0.9 C 1.55,-3 1.55,-3.6 1.75,-4.15 l 0.5,0.25 z m -1,0.05 c -0.15,0.75 0,1.6 0.15,2.45 -0.65,-0.15 -1.3,-0.1 -1.9,0.05 -0.35,-0.9 -0.5,-1.9 -0.55,-2.95 0.8,-0.25 1.6,-0.25 2.45,0.05 l -0.15,0.4 z M 2.5,-0.9 C 2.4,-0.45 2.25,0 2.05,0.4 L 1.9,-1.05 2.5,-0.9 z M 1.15,1.55 Q -0.95,0.9 -2.05,-0.3 C -1.7,-0.65 -1.2,-0.9 -0.65,-1.05 -0.2,0.1 0.6,0.85 1.65,1 l -0.2,0.25 -0.3,0.3 z M 1.8,0.7 c -1,-0.1 -1.7,-0.8 -2.15,-1.8 0.6,-0.1 1.2,-0.15 1.85,0 0.1,0.6 0.25,1.2 0.3,1.8 z m -5.7,-8.9 c -0.2,1.15 -0.2,2.3 -0.1,3.4 l -0.05,0.1 -0.05,-0.05 c -0.45,-0.1 -0.9,-0.1 -1.3,0 l 0,-1.6 0.1,-0.05 c 0.1,0.05 0.2,0.1 0.25,0.2 l 0.9,1.15 -0.2,-2.15 c 0.1,-0.4 0.25,-0.75 0.45,-1 z m 0.5,-0.3 0.35,0.1 c 0.25,0.15 0.4,0.6 0.55,0.95 l 0.4,1.2 -0.05,0.05 c -0.7,-0.1 -1.3,0.45 -1.65,1 -0.05,-1.1 0,-2.2 0.2,-3.25 l 0.2,-0.05 z m 2.75,-1.15 C -1,-8.9 -1.2,-7.85 -1.35,-6.7 l -0.6,0.4 0.05,-1.2 c 0,-1.2 0.8,-1.95 1.25,-2.15 z m -5.1,5.45 c 0.05,0.65 0.1,1.3 0.2,1.9 -0.15,-0.35 -0.3,-0.8 -0.45,-1.25 0,-0.3 0.1,-0.5 0.25,-0.65 z m -0.3,-1.05 C -6,-5.7 -5.85,-6 -5.7,-6.2 l 0,1.6 -0.35,0.35 c -0.05,-0.3 -0.05,-0.65 0,-1 z m 4.1,-0.5 0,-0.1 c 0.1,0 0.2,-0.1 0.15,-0.2 l 0.45,-0.3 c -0.05,0.6 -0.1,1.2 -0.05,1.85 -0.75,0.25 -1.5,0.75 -2.1,1.35 -0.15,-0.45 -0.25,-1 -0.25,-1.5 0.3,-0.6 0.85,-1.35 1.6,-1.25 l 0.15,0 0.05,0.15 z m -2.2,1.3 0.2,0.1 0.25,1.45 c -0.55,0.45 -0.9,1.05 -1.2,1.65 -0.45,-0.95 -0.55,-2.1 -0.5,-3.15 0.35,-0.15 0.8,-0.15 1.2,-0.05 l 0.05,0 z m 0.55,1.9 0.25,1 c 0.2,0.5 0.45,0.95 0.8,1.3 -0.3,0.35 -0.55,0.8 -0.75,1.3 l -1,-1.2 c -0.2,-0.2 -0.35,-0.45 -0.5,-0.75 0.3,-0.6 0.7,-1.2 1.2,-1.65 z m 0.2,-0.25 c 0.55,-0.65 1.25,-1.15 2.05,-1.4 0.05,1.05 0.2,2.05 0.55,2.9 -0.5,0.15 -1,0.45 -1.45,0.75 -0.5,-0.55 -0.9,-1.3 -1.15,-2.2 l 0,-0.05 z M -2.35,0 c 0.8,0.85 2,1.4 3.2,1.75 -0.5,0.35 -1.1,0.55 -1.7,0.5 C -1.3,2.25 -1.7,2.15 -2.15,2 -2.35,1.85 -2.7,1.6 -3.05,1.25 -2.9,0.75 -2.65,0.35 -2.35,0 z"
           inkscape:connector-curvature="0"
           style="fill:url(#radialGradient1)" />
      </g>
    </g>
  </g>
</svg>
