<?xml version="1.0" encoding="UTF-8" standalone="no"?>
<!-- Generator: flash2svg, http://dissentgraphics.com/tools/flash2svg -->

<svg
   xmlns:dc="http://purl.org/dc/elements/1.1/"
   xmlns:cc="http://creativecommons.org/ns#"
   xmlns:rdf="http://www.w3.org/1999/02/22-rdf-syntax-ns#"
   xmlns:svg="http://www.w3.org/2000/svg"
   xmlns="http://www.w3.org/2000/svg"
   xmlns:sodipodi="http://sodipodi.sourceforge.net/DTD/sodipodi-0.dtd"
   xmlns:inkscape="http://www.inkscape.org/namespaces/inkscape"
   id="Avatar"
   image-rendering="auto"
   version="1.1"
   x="0px"
   y="0px"
   width="17.466208"
   height="9.9096909"
   viewBox="0 0 17.466208 9.9096909"
   inkscape:version="0.48.4 r9939"
   sodipodi:docname="Avatar_sideFootClose3.svg">
  <metadata
     id="metadata3080">
    <rdf:RDF>
      <cc:Work
         rdf:about="">
        <dc:format>image/svg+xml</dc:format>
        <dc:type
           rdf:resource="http://purl.org/dc/dcmitype/StillImage" />
      </cc:Work>
    </rdf:RDF>
  </metadata>
  <sodipodi:namedview
     pagecolor="#ffffff"
     bordercolor="#666666"
     borderopacity="1"
     objecttolerance="10"
     gridtolerance="10"
     guidetolerance="10"
     inkscape:pageopacity="0"
     inkscape:pageshadow="2"
     inkscape:window-width="640"
     inkscape:window-height="480"
     id="namedview3078"
     showgrid="false"
     fit-margin-top="0"
     fit-margin-left="0"
     fit-margin-right="0"
     fit-margin-bottom="0"
     inkscape:zoom="1.8730159"
     inkscape:cx="38.35"
     inkscape:cy="74.271026"
     inkscape:window-x="0"
     inkscape:window-y="0"
     inkscape:window-maximized="0"
     inkscape:current-layer="Avatar" />
  <defs
     id="defs3062">
    <radialGradient
       gradientUnits="userSpaceOnUse"
       color-interpolation="sRGB"
       r="11.338519"
       cx="6.4499998"
       cy="5.0500002"
       fx="6.4499998"
       fy="5.0500002"
       gradientTransform="matrix(0.99890137,0.0589447,0.12663269,-0.8711853,-0.649,9.05)"
       id="radialGradient">
      <stop
         stop-color="#FFF"
         stop-opacity="0.7058823529411765"
         offset="0"
         id="stop3065" />
      <stop
         stop-color="#FFF"
         stop-opacity="0.2980392156862745"
         offset="1"
         id="stop3067" />
    </radialGradient>
    <radialGradient
       gradientUnits="userSpaceOnUse"
       color-interpolation="sRGB"
       r="11.346"
       cx="5.855"
       cy="14.103"
       fx="5.855"
       fy="14.103"
       gradientTransform="matrix(0.998,0.059,0.127,-0.871,-1.149,16.95)"
       id="radialGradient1">
      <stop
         stop-color="#FFF"
         stop-opacity="0.7058823529411765"
         offset="0"
         id="stop3070" />
      <stop
         stop-color="#FFF"
         stop-opacity="0.2980392156862745"
         offset="1"
         id="stop3072" />
    </radialGradient>
  </defs>
  <g
     id="sideFootClose4"
     overflow="visible"
     style="overflow:visible"
     transform="translate(4.35,-2.4403093)">
    <g
       id="sideFootClose3_0">
      <g
         id="element">
        <path
           id="path"
           d="m 10.45,5.45 -0.1,0 C 10,5.05 9.5,4.65 8.85,4.3 7.85,3.75 6.8,3.35 5.65,2.95 L 5,2.8 5.05,2.6 4.7,2.65 4.6,2.65 C 4.4,2.55 4.1,2.45 3.7,2.45 3,2.4 2,2.55 0.6,2.75 l -0.05,0 C -1.8,3.25 -3.2,3.75 -3.55,4.3 -3.7,4.5 -3.9,5 -4,5.65 -4.2,6.4 -4.3,7.05 -4.25,7.55 l -0.1,0 0.05,0.2 0.1,0.25 c 0.15,0.65 0.85,1.2 2.1,1.65 l 0.05,0 c 0.4,0.2 0.85,0.3 1.35,0.4 0.25,0.05 0.75,0.3 1.55,0.65 L 1.8,11.15 1.95,11.25 2,11.2 c 0.4,0.2 0.75,0.25 1,0.3 0.3,0.05 0.8,0.15 1.45,0.15 l 1.35,0.05 0.25,-0.05 0.75,0.5 c 0.1,0.1 0.35,0.2 0.6,0.2 0.35,0 0.9,-0.1 1.5,-0.3 C 9.5,11.8 9.85,11.4 9.95,10.8 l 0.05,0.1 0.1,-0.15 c 0.2,0 0.55,-0.1 0.95,-0.15 0.55,-0.2 0.9,-0.55 0.9,-1.2 l 0,-0.25 L 12.1,9.1 11.9,8.6 C 12.3,8.55 12.55,8.4 12.7,8.25 13.1,7.95 13.2,7.5 13.05,6.9 13,6.45 12.8,6.2 12.35,6 11.9,5.7 11.3,5.6 10.55,5.55 l -0.15,0 0.05,-0.1 z m -0.15,0.3 0.25,0 c 0.55,0.05 1.05,0.2 1.5,0.3 L 11.7,6.15 C 11.35,6 10.95,5.95 10.45,5.95 10.1,5.95 9.8,5.95 9.6,6 L 9.55,6 c 0.1,-0.1 0.3,-0.15 0.7,-0.3 l 0.05,0.05 z m 2.1,0.6 c 0.25,0.1 0.4,0.3 0.45,0.55 C 12.9,7.4 12.8,7.85 12.5,8.2 12.8,7.6 12.7,7.1 12.25,6.6 12.2,6.4 12.1,6.4 11.95,6.35 l 0.45,0 z M 12.05,6.7 c 0.5,0.55 0.5,1.1 0.15,1.55 L 12.3,8.3 C 12.1,8.4 11.95,8.45 11.7,8.4 11.4,8.1 11.15,7.8 10.85,7.7 l -0.4,-0.25 c 0.15,0 0.2,0 0.2,0.05 l 0.2,0.05 0,-0.15 C 10.9,7.1 11.05,6.85 11.3,6.6 l 0.35,-0.2 0.4,0.3 z m -0.9,-0.25 c -0.2,0.2 -0.35,0.45 -0.55,0.8 -0.2,0 -0.4,0 -0.55,0.1 C 9.8,7.25 9.35,7.15 8.7,7.1 L 9.35,6.15 9.4,6.25 10.15,6.2 c 0.5,0 0.9,0 1.2,0.05 l -0.2,0.2 z m 0.15,2.2 0.2,0.2 c 0.15,0.1 0.2,0.3 0.2,0.5 0,0.55 -0.25,0.9 -0.75,1.05 L 10.2,10.55 C 10.15,10.15 10,9.65 9.75,9.25 9.65,9.05 9.5,8.85 9.2,8.65 L 9.25,8.5 C 9.2,8.3 9.35,8 9.75,7.75 l 0.3,-0.2 c 0.25,0.05 0.5,0.2 0.65,0.3 0.25,0.15 0.5,0.35 0.7,0.6 l -0.65,0 0.55,0.2 z M 5.5,4.95 5.95,5.2 C 7.15,6 8,6.7 8.35,7.2 8.05,7.25 7.8,7.3 7.55,7.5 7.4,7.65 7.25,7.9 7.2,8.1 L 3.85,6 C 4.55,5.5 5.1,5.2 5.45,5 L 5.5,4.95 z M 5.55,4.7 C 4.65,4.2 3.6,3.75 2.4,3.3 L 3.75,3 c 1.1,0.3 2,0.65 2.85,1.1 L 6.8,4.3 5.55,4.7 z M 5.8,4.9 7.1,4.4 C 8.1,5 8.75,5.5 9.2,6 L 9.2,6.05 8.55,7 C 8.25,6.55 7.45,5.85 6.1,5 L 5.8,4.9 z M 6.7,4 C 5.85,3.55 5.05,3.2 4.25,2.95 l 0.4,-0.1 c 0.1,0.05 0.4,0.2 0.9,0.35 1.05,0.35 1.85,0.6 2.3,0.85 L 7.15,4.2 6.7,4 z m 2,0.45 c 0.6,0.4 1.05,0.75 1.35,1.1 l -0.7,0.3 C 8.95,5.4 8.3,4.9 7.4,4.35 7.8,4.3 8.05,4.25 8.25,4.25 L 8.25,4.2 8.7,4.45 z M 2.35,2.7 3.2,2.85 2.05,3.2 1.05,2.9 2.35,2.7 z M 0.25,4.2 -1.6,3.5 0.5,2.95 1.7,3.35 C 1.1,3.6 0.65,3.85 0.25,4.2 z m 1.8,-0.75 c 1.1,0.3 2.2,0.8 3.25,1.4 C 4.6,5.2 4.05,5.6 3.65,5.85 2.7,5.3 1.65,4.8 0.45,4.3 0.85,4 1.35,3.65 2.05,3.45 z M 3.45,6 C 2.95,6.4 2.45,6.8 2.1,7.25 L 1.45,6.9 C 0.9,6.65 0,6.35 -1.25,6 -0.85,5.5 -0.4,4.95 0.25,4.45 1.25,4.85 2.3,5.4 3.45,6 z M 5,9.1 C 4.35,8.5 3.45,7.9 2.35,7.3 L 3.7,6.1 6.9,8.2 C 6.15,8.2 5.55,8.45 5.05,9 L 5,9.1 z M 1.65,7.9 C 1.4,8.6 1.3,9.3 1.4,10.05 L 0.8,9.65 0.75,9.6 C 0.5,9.45 -0.3,9.25 -1.65,9 L -2.2,8.8 C -2.35,8.1 -2.1,7.2 -1.35,6.15 L 2,7.4 1.65,7.9 z m 0.5,-0.4 c 1.1,0.5 2,1.15 2.75,1.75 -0.35,0.5 -0.4,1 -0.3,1.5 L 3.05,10.55 C 2.5,10.5 2.05,10.4 1.6,10.2 1.55,9.4 1.65,8.65 1.9,8 L 2.15,7.5 z M 1.55,10.8 1,10.45 C 0.25,10.1 -0.25,9.9 -0.6,9.85 L -1.9,9.5 -2.1,9.1 0.65,9.7 C 0.7,9.95 1,10.1 1.4,10.35 L 1.55,10.8 z M 1.7,10.45 c 0.3,0.15 0.75,0.3 1.3,0.35 0.95,0.15 1.9,0.2 2.9,0.25 0.1,0.15 0.2,0.3 0.35,0.4 l -0.025,0 L 6.15,11.4 6.1,11.4 5.8,11.45 3.05,11.3 C 2.85,11.2 2.45,11.15 1.9,10.9 L 1.7,10.45 z M 4.9,10.7 C 4.75,10.3 4.8,9.9 5.05,9.45 l 1.55,1.3 c -0.05,0.35 -0.05,0.6 0,0.7 L 6.1,10.95 6.05,10.85 4.7,10.75 4.9,10.7 z M 9.55,7.6 C 9.2,7.85 9.05,8.15 9,8.45 l -0.05,0 C 8.55,8.3 8.05,8.2 7.45,8.15 7.5,7.95 7.55,7.8 7.75,7.65 7.9,7.6 8.1,7.45 8.45,7.35 l 0.15,0 0,-0.05 C 9.25,7.35 9.65,7.4 9.8,7.45 L 9.55,7.6 z m -2.3,0.8 0.2,0 0,-0.05 c 0.4,0.05 0.75,0.1 1,0.15 -0.65,0.2 -1.1,0.45 -1.3,0.85 l 0,0.05 -0.5,1.05 L 5.2,9.25 5.35,9.1 C 5.65,8.75 6.05,8.6 6.5,8.45 6.7,8.4 7,8.4 7.25,8.4 z m 0.15,1 C 7.6,9 8.1,8.8 8.85,8.7 9.2,8.8 9.4,9.1 9.55,9.4 c 0.3,0.45 0.45,0.9 0.4,1.2 l -0.15,-0.05 -0.15,0 0,0.45 c -1,0.25 -1.9,0.15 -2.8,-0.4 C 6.95,10.4 7.1,10 7.35,9.45 L 7.4,9.4 z m -0.6,1.45 c 0.55,0.3 1.05,0.45 1.65,0.5 0.35,0 0.75,0 1.15,-0.1 C 9.45,11.5 9.2,11.7 8.85,11.8 L 8.3,11.95 8.35,11.9 C 7.8,11.85 7.35,11.85 7,11.65 6.85,11.45 6.75,11.2 6.8,10.85 z m -8.4,-4.8 c -0.7,1 -1,1.85 -0.9,2.7 C -3.3,8.4 -3.8,8 -4,7.65 -4.1,7.15 -4,6.4 -3.7,5.5 l 2.1,0.55 z M -1.85,3.7 0,4.35 c -0.6,0.5 -1.05,1 -1.5,1.55 l -2.15,-0.6 0.3,-0.9 c 0.2,-0.3 0.7,-0.55 1.5,-0.8 l 0,0.1 z M -2.3,9.3 C -3.15,8.95 -3.7,8.55 -3.9,8.15 -3.5,8.5 -2.95,8.8 -2.45,9 l 0.15,0.3 z"
           inkscape:connector-curvature="0"
           style="fill:url(#radialGradient1)" />
      </g>
    </g>
  </g>
</svg>
