<?xml version="1.0" encoding="utf-8"?>
<!-- Generator: flash2svg, http://dissentgraphics.com/tools/flash2svg -->
<svg xmlns:xlink="http://www.w3.org/1999/xlink" id="Avatar" image-rendering="auto" baseProfile="basic" version="1.1" x="0px" y="0px" width="68" height="126" xmlns="http://www.w3.org/2000/svg" viewBox="0 0 68 126">
  <defs>
    <radialGradient gradientUnits="userSpaceOnUse" color-interpolation="sRGB" r="8.954875676194332" cx="-0.299" cy="-5.499" fx="-0.2989999999999995" fy="-5.499" gradientTransform="matrix(-0.7579498291015625 0.6542205810546875 -0.639007568359375 -0.7454986572265625 -3.949 -9.349)" id="radialGradient">
      <stop stop-color="#FFF" stop-opacity="1" offset="0"/>
      <stop stop-color="#FFF" stop-opacity="0.40784313725490196" offset="1"/>
    </radialGradient>
    <radialGradient gradientUnits="userSpaceOnUse" color-interpolation="sRGB" r="8.966" cx="-4.198" cy="-14.805" fx="-4.198" fy="-14.805" gradientTransform="matrix(-0.757 0.653 -0.638 -0.745 -12.649 -13.649)" id="radialGradient1">
      <stop stop-color="#FFF" stop-opacity="1" offset="0"/>
      <stop stop-color="#FFF" stop-opacity="0.40784313725490196" offset="1"/>
    </radialGradient>
  </defs>
  <g id="backHandRight4" overflow="visible">
    <g id="backHandRight3_0">
      <g id="element">
        <path id="path" fill="url(#radialGradient1)" d="M2.75,-6.95 C2.65,-6.95 2.45,-6.9 2.3,-6.8 2.05,-6.65 1.8,-6.25 1.65,-5.8 1.7,-7.15 0.7,-8.05 0.25,-8.05 L0.05,-8.05 C-0.45,-7.9 -0.75,-7.05 -0.8,-6.5 -0.8,-6.05 -0.8,-5.55 -1.25,-5 L-1.55,-4.6 -1.85,-4.95 C-2.2,-5.45 -2.7,-5.85 -3.1,-5.85 -3.45,-5.85 -3.7,-5.6 -3.85,-4.95 -4,-4.4 -3.25,-3.7 -2.8,-3.15 -3.1,-2.9 -3.15,-1.4 -3.15,-1.2 -3.25,-0.85 -3.2,-0.5 -3.2,-0.15 -3.25,-0.1 -3.25,0 -3.15,0.05 -3.05,0.95 -2.65,1.75 -2.05,2.35 -2.1,2.45 -2,2.55 -1.9,2.55 L-1.85,2.55 C-1.3,2.95 -0.65,3.2 0,3.2 0.4,3.2 0.85,3.1 1.3,2.95 L2.15,2.3 C2.25,2.35 2.35,2.25 2.3,2.15 2.8,1.7 3.35,1.1 3.8,0.5 3.9,0.55 4.05,0.45 4,0.35 L3.95,0.3 4.25,-0.3 C4.85,-1.1 5.35,-2.35 5.2,-3.65 5.2,-4.6 4.8,-4.95 4.35,-4.95 4.2,-4.95 4,-4.9 3.9,-4.7 L3.75,-4.45 C3.8,-4.75 3.8,-5.1 3.75,-5.5 3.7,-6.2 3.5,-6.65 3.1,-6.8 3,-6.9 2.9,-6.95 2.75,-6.95z M2.95,-6.6 C3,-5.65 3.05,-4.65 2.95,-3.65 2.65,-4.2 2.15,-4.7 1.55,-4.6 L1.5,-4.65 1.9,-5.75 C2.05,-6.05 2.15,-6.45 2.45,-6.6 L2.75,-6.7 2.95,-6.6z M1.35,-5.8 L1.35,-4.75 0.8,-5.1 C0.75,-6.15 0.6,-7.1 0.35,-7.75 0.75,-7.6 1.4,-6.9 1.35,-5.8z M4.45,-4.65 L4.35,-3.2 C4,-3.35 3.6,-3.35 3.2,-3.25 L3.15,-3.2 3.1,-3.3 C3.3,-4.3 3.3,-5.35 3.15,-6.35 3.35,-6.15 3.45,-5.8 3.5,-5.45 L3.45,-4.5 3.25,-3.55 4.15,-4.55 C4.2,-4.65 4.3,-4.7 4.35,-4.7 L4.45,-4.65z M4.95,-3.65 C5,-3.35 5,-3.05 4.95,-2.75 L4.65,-3.1 4.75,-4.5 C4.85,-4.35 4.95,-4.05 4.95,-3.65z M1.55,-4.35 C2.2,-4.45 2.6,-3.75 2.9,-3.15 2.85,-2.75 2.75,-2.3 2.6,-1.85 2.1,-2.4 1.45,-2.85 0.75,-3.15 0.8,-3.7 0.85,-4.25 0.8,-4.8 L1.25,-4.5 C1.2,-4.45 1.25,-4.35 1.35,-4.35 L1.35,-4.25 1.4,-4.35 1.55,-4.35z M0.5,-3.2 C-0.25,-3.5 -1,-3.5 -1.85,-3.25 -1.95,-3.6 -2.15,-4 -2.3,-4.3 -2.2,-4.45 -2.15,-4.65 -2.15,-4.9 L-2.05,-4.8 C-1.95,-4.6 -1.85,-4.5 -1.7,-4.4 L-1.5,-4.25 -1.15,-4.65 -1,-4.65 C-0.5,-5.1 0.05,-5.1 0.55,-4.95 0.6,-4.4 0.55,-3.8 0.5,-3.2z M0.75,-2.85 C1.4,-2.6 2.05,-2.15 2.55,-1.55 L2.5,-1.5 C2.2,-0.7 1.85,-0.05 1.35,0.45 1,0.15 0.55,-0.1 0.1,-0.25 0.4,-1 0.65,-1.9 0.75,-2.85z M4.85,-2.15 C4.75,-1.75 4.55,-1.35 4.35,-1 4.55,-1.55 4.6,-2.15 4.65,-2.75 4.75,-2.6 4.85,-2.4 4.85,-2.15z M3.3,-3 C3.65,-3.1 4.05,-3.1 4.35,-2.9 4.35,-1.95 4.2,-0.95 3.8,-0.1 3.5,-0.65 3.2,-1.2 2.8,-1.65 L3.05,-2.9 3.25,-3 3.3,-3z M2.65,-1.35 C3.05,-0.9 3.4,-0.35 3.65,0.2 3.5,0.45 3.35,0.7 3.2,0.85 L2.2,1.9 C2.05,1.45 1.85,1.05 1.6,0.75 1.95,0.4 2.2,0 2.4,-0.45 L2.65,-1.35z M0.55,-5.2 C0.1,-5.4 -0.4,-5.35 -0.85,-5.1 -0.55,-5.6 -0.5,-6.1 -0.5,-6.5 -0.45,-6.8 -0.35,-7.35 -0.05,-7.6 L0.05,-7.7 C0.35,-7.15 0.45,-6.25 0.55,-5.2z M0,2.95 C-0.55,2.95 -1.1,2.75 -1.55,2.45 -0.45,2.15 0.65,1.7 1.4,0.95 1.65,1.25 1.9,1.65 2,2.1 1.65,2.4 1.35,2.6 1.15,2.7 0.75,2.85 0.4,2.95 0,2.95z M-2.45,-5.1 C-2.35,-4.9 -2.4,-4.7 -2.5,-4.5 L-3.15,-5.45 C-3.2,-5.5 -3.25,-5.5 -3.3,-5.45 -3.25,-5.55 -3.15,-5.6 -3.1,-5.6 -2.9,-5.6 -2.7,-5.45 -2.4,-5.2 L-2.45,-5.1z M-2.1,-3.15 L-2.65,-2.95 -2.7,-2.9 -2.65,-3 -2.5,-3.15 -3.1,-3.9 C-2.85,-3.9 -2.7,-4 -2.5,-4.05 L-2.1,-3.15z M-3.4,-5.3 L-2.7,-4.3 C-2.8,-4.2 -3,-4.15 -3.2,-4.15 L-3.25,-4.1 C-3.45,-4.45 -3.6,-4.7 -3.6,-4.9 -3.6,-5 -3.5,-5.25 -3.4,-5.4 L-3.4,-5.3z M-2.75,-2.8 C-2.7,-2.75 -2.65,-2.65 -2.55,-2.7 L-2.05,-2.9 C-1.9,-2.4 -1.9,-1.85 -2.1,-1.2 L-2.3,-0.4 -2.9,-0.25 C-2.95,-0.5 -2.95,-0.9 -2.9,-1.2 L-2.75,-2.8z M-0.3,-0.1 C-0.75,0.8 -1.45,1.4 -2.35,1.45 -2.25,0.9 -2.1,0.35 -1.95,-0.15 -1.4,-0.25 -0.85,-0.2 -0.3,-0.1z M-1.75,-3 C-1,-3.2 -0.25,-3.2 0.45,-2.95 0.35,-2 0.15,-1.1 -0.15,-0.35 -0.7,-0.5 -1.3,-0.5 -1.9,-0.45 -1.75,-1.2 -1.5,-1.9 -1.65,-2.65 L-1.75,-3z M-2.85,0 L-2.35,-0.1 -2.55,1.2 C-2.7,0.8 -2.8,0.4 -2.85,0z M-2.25,1.7 C-1.25,1.65 -0.55,0.95 -0.05,-0.05 0.45,0.1 0.85,0.35 1.15,0.65 Q0.1,1.7 -1.8,2.2 L-2.25,1.7z"/>
      </g>
    </g>
  </g>
</svg>