<?xml version="1.0" encoding="UTF-8" standalone="no"?>
<!-- Generator: flash2svg, http://dissentgraphics.com/tools/flash2svg -->

<svg
   xmlns:dc="http://purl.org/dc/elements/1.1/"
   xmlns:cc="http://creativecommons.org/ns#"
   xmlns:rdf="http://www.w3.org/1999/02/22-rdf-syntax-ns#"
   xmlns:svg="http://www.w3.org/2000/svg"
   xmlns="http://www.w3.org/2000/svg"
   xmlns:sodipodi="http://sodipodi.sourceforge.net/DTD/sodipodi-0.dtd"
   xmlns:inkscape="http://www.inkscape.org/namespaces/inkscape"
   id="Avatar"
   image-rendering="auto"
   version="1.1"
   x="0px"
   y="0px"
   width="8.6806192"
   height="16.948528"
   viewBox="0 0 8.6806192 16.948528"
   inkscape:version="0.48.4 r9939"
   sodipodi:docname="Avatar_sideArmUpperClose3.svg">
  <metadata
     id="metadata3038">
    <rdf:RDF>
      <cc:Work
         rdf:about="">
        <dc:format>image/svg+xml</dc:format>
        <dc:type
           rdf:resource="http://purl.org/dc/dcmitype/StillImage" />
      </cc:Work>
    </rdf:RDF>
  </metadata>
  <sodipodi:namedview
     pagecolor="#ffffff"
     bordercolor="#666666"
     borderopacity="1"
     objecttolerance="10"
     gridtolerance="10"
     guidetolerance="10"
     inkscape:pageopacity="0"
     inkscape:pageshadow="2"
     inkscape:window-width="640"
     inkscape:window-height="480"
     id="namedview3036"
     showgrid="false"
     fit-margin-top="0"
     fit-margin-left="0"
     fit-margin-right="0"
     fit-margin-bottom="0"
     inkscape:zoom="1.8730159"
     inkscape:cx="39.224225"
     inkscape:cy="21.310667"
     inkscape:window-x="0"
     inkscape:window-y="0"
     inkscape:window-maximized="0"
     inkscape:current-layer="Avatar" />
  <defs
     id="defs3020">
    <radialGradient
       gradientUnits="userSpaceOnUse"
       color-interpolation="sRGB"
       r="8.8820133"
       cx="0.5"
       cy="3.05"
       fx="0.5"
       fy="3.05"
       gradientTransform="matrix(-0.29525757,0.95542908,0.73258972,0.22145081,-1.599,1.85)"
       id="radialGradient">
      <stop
         stop-color="#FFF"
         stop-opacity="0.7058823529411765"
         offset="0"
         id="stop3023" />
      <stop
         stop-color="#FFF"
         stop-opacity="0.2980392156862745"
         offset="1"
         id="stop3025" />
    </radialGradient>
    <radialGradient
       gradientUnits="userSpaceOnUse"
       color-interpolation="sRGB"
       r="8.882"
       cx="-1.049"
       cy="4.9000001"
       fx="-1.049"
       fy="4.9000001"
       gradientTransform="matrix(-0.295,0.955,0.733,0.221,-3.249,2.9)"
       id="radialGradient1">
      <stop
         stop-color="#FFF"
         stop-opacity="0.7058823529411765"
         offset="0"
         id="stop3028" />
      <stop
         stop-color="#FFF"
         stop-opacity="0.2980392156862745"
         offset="1"
         id="stop3030" />
    </radialGradient>
  </defs>
  <g
     id="sideArmUpperClose4"
     overflow="visible"
     style="overflow:visible"
     transform="translate(5.2242248,1.7)">
    <g
       id="sideArmUpperClose3_0">
      <g
         id="element">
        <path
           id="path"
           d="m 2.25,-0.5 c -0.5,-0.7 -1.1,-1.1 -1.75,-1.2 -0.2,0 -0.35,0 -0.55,0.05 C -1,-1.3 -2,0.45 -3.15,3.5 -5,8.75 -5.6,11.85 -5,12.7 c 0.65,0.9 1.5,1.75 2.55,2.25 L -2.6,15 l 0.3,0 c 0.75,0.3 1.45,0.3 1.95,0.15 l 0.1,-0.05 C 0.5,14.8 1.2,13.85 1.85,12.25 2.4,10.85 2.85,9.2 3.2,7.25 3.45,5.8 3.55,4.45 3.35,3.05 3.25,1.5 2.85,0.35 2.25,-0.5 z M 0.55,-1.4 C 0.35,-1.4 0.2,-1.25 0,-1.1 -0.3,-0.7 -0.55,-0.4 -0.75,0 L -1.3,0.1 c 0.5,-0.9 0.95,-1.35 1.35,-1.5 L 0.4,-1.45 0.55,-1.4 z m -0.15,1.35 -0.85,0 0.55,-0.8 0.25,-0.2 0.05,1 z M 0.8,-1.2 c 0.25,0.2 0.45,0.45 0.55,0.55 0.2,0.25 0.35,0.45 0.45,0.7 L 0.65,0 0.65,-1.15 0.8,-1.2 z m 0.45,0.05 C 1.6,-0.9 1.9,-0.65 2.1,-0.4 L 2.4,0.2 2.05,0.15 C 1.9,-0.2 1.75,-0.5 1.6,-0.75 L 1.25,-1.15 z M 3,2.1 2.6,1.95 C 2.45,1.4 2.35,0.95 2.15,0.45 L 2.6,0.5 3,2.1 z M 3.1,2.5 3.25,4.2 2.75,3.9 2.65,2.25 3.1,2.5 z M 0.3,1.4 c -0.4,0 -1,0 -1.65,0.05 l 0.7,-1.2 1,-0.05 L 0.3,1.4 z M 2.35,1.8 0.6,1.5 0.65,0.2 C 0.8,0.2 1.3,0.25 1.9,0.35 2.15,1 2.25,1.5 2.35,1.8 z m 0,0.4 C 2.45,2.7 2.45,3.25 2.5,3.8 1.95,3.55 1.25,3.3 0.3,3.1 L 0.55,1.8 c 0.65,0 1.25,0.1 1.8,0.4 z M 2.5,4.15 2.35,6.25 C 1.6,5.85 0.8,5.55 -0.05,5.35 l 0.3,-1.9 C 0.95,3.5 1.7,3.75 2.5,4.15 z M 3.25,4.55 3.1,6.7 2.5,6.4 C 2.65,5.6 2.7,4.9 2.75,4.25 l 0.5,0.3 z M 0.1,3.1 C -0.5,3.05 -1.2,2.95 -2.15,3.1 L -1.5,1.75 C -0.95,1.7 -0.35,1.65 0.25,1.7 L 0.1,3.1 z M 3,7.2 2.65,8.85 2.05,8.55 2.05,8.5 2.5,6.95 2.5,6.65 3,6.95 3,7.2 z M 1.9,8.4 C 1.05,7.95 0.25,7.7 -0.4,7.6 l 0.3,-1.95 c 0.85,0.15 1.65,0.5 2.4,0.9 L 1.9,8.4 z M 0.8,10.8 C 0.35,10.55 -0.2,10.2 -0.9,10 L -0.45,7.8 C 0.3,7.95 1.05,8.25 1.75,8.7 1.7,9.35 1.45,10.1 1.1,11.05 L 0.8,10.8 z m 0.15,0.45 -0.6,1.5 c -0.6,-0.35 -1.15,-0.6 -1.8,-0.75 0.05,-0.15 0.3,-0.75 0.5,-1.75 0.5,0.15 1,0.45 1.6,0.85 l 0.3,0.15 z m 0.85,0.6 c -0.4,0.85 -0.6,1.3 -0.7,1.4 L 0.55,12.9 1.2,11.4 1.8,11.85 z M 1.25,11.15 2.05,8.8 2.6,9.15 C 2.4,9.95 2.2,10.7 1.85,11.6 l -0.6,-0.45 z m -0.3,2.4 c -0.4,0.7 -0.85,1.2 -1.3,1.35 l -0.1,0.05 c -0.4,0.1 -0.8,0.1 -1.2,0 l 0.2,-0.05 0.1,-0.05 c 0.6,-0.2 1.2,-0.75 1.7,-1.75 l 0.6,0.45 z M -1.6,1.45 -2.1,1.55 -1.45,0.3 -0.9,0.3 -1.6,1.45 z M -1.75,1.8 c -0.3,0.5 -0.55,1 -0.6,1.3 l -0.35,0 0.5,-1.25 0.45,-0.05 z m -1.5,3.65 -0.45,1.95 -0.45,0.05 0.6,-1.9 0.3,-0.1 z M -3.45,5.3 -2.8,3.45 -2.5,3.4 C -2.7,3.8 -2.95,4.45 -3.25,5.25 L -3.45,5.3 z M -0.3,5.6 -0.65,7.55 C -1.45,7.4 -2.4,7.35 -3.45,7.4 l 0.4,-1.95 c 0.95,-0.05 1.9,0 2.75,0.15 z M -2.95,5.2 -2.25,3.35 C -1.5,3.25 -0.7,3.3 0.05,3.4 L -0.3,5.35 C -1.4,5.2 -2.25,5.1 -2.95,5.2 z m -0.75,2.45 -0.55,2.05 -0.5,0.1 0.5,-2.05 0.55,-0.1 z m -0.95,4.55 0,0.55 -0.1,-0.2 C -4.85,12.5 -4.9,12.4 -4.9,12.2 l 0.25,0 z M -4.95,12 c -0.1,-0.35 0,-1 0.1,-1.95 L -4.35,10 c -0.25,1.05 -0.3,1.75 -0.3,1.95 L -4.95,12 z M -4.1,9.95 c 1.05,-0.15 2,0 2.9,0.25 l -0.5,1.75 c -0.95,-0.15 -1.8,-0.2 -2.75,0 0,-0.55 0.15,-1.15 0.35,-2 z m 0.55,-2.3 c 0.9,-0.1 1.8,-0.05 2.85,0.15 L -1.15,9.95 C -1.95,9.7 -2.9,9.6 -4,9.65 l 0.45,-2 z m 1.75,4.6 c -0.35,0.9 -0.65,1.65 -1,2.25 L -4,13.55 -4.05,13.5 c -0.3,-0.3 -0.45,-0.75 -0.4,-1.35 0.85,-0.1 1.8,-0.1 2.65,0.1 z m 0.35,2.45 -0.6,0.1 -0.05,0 -0.4,-0.2 c 0.35,-0.6 0.65,-1.4 1,-2.3 0.65,0.15 1.2,0.4 1.7,0.75 -0.6,0.85 -1.1,1.4 -1.6,1.6 l -0.05,0.05 z"
           inkscape:connector-curvature="0"
           style="fill:url(#radialGradient1)" />
      </g>
    </g>
  </g>
</svg>
