<?xml version="1.0" encoding="utf-8"?>
<!-- Generator: flash2svg, http://dissentgraphics.com/tools/flash2svg -->
<svg xmlns:xlink="http://www.w3.org/1999/xlink" id="Avatar" image-rendering="auto" baseProfile="basic" version="1.1" x="0px" y="0px" width="68" height="126" xmlns="http://www.w3.org/2000/svg" viewBox="0 0 68 126">
  <defs>
    <radialGradient gradientUnits="userSpaceOnUse" color-interpolation="sRGB" r="9.87295667942553" cx="-0.099" cy="-7.099" fx="-0.0990000000000002" fy="-7.099" gradientTransform="matrix(0.7318267822265625 0.68170166015625 0.68170166015625 -0.7318267822265625 4.8 -12.149)" id="radialGradient">
      <stop stop-color="#FFF" stop-opacity="1" offset="0"/>
      <stop stop-color="#FFF" stop-opacity="0.40784313725490196" offset="1"/>
    </radialGradient>
    <radialGradient gradientUnits="userSpaceOnUse" color-interpolation="sRGB" r="9.874" cx="4.701" cy="-19.199" fx="4.701" fy="-19.199" gradientTransform="matrix(0.732 0.682 0.682 -0.732 9.5 -24.099)" id="radialGradient1">
      <stop stop-color="#FFF" stop-opacity="1" offset="0"/>
      <stop stop-color="#FFF" stop-opacity="0.40784313725490196" offset="1"/>
    </radialGradient>
  </defs>
  <g id="backHandLeft4" overflow="visible">
    <g id="backHandLeft3_0">
      <g id="element">
        <path id="path" fill="url(#radialGradient1)" d="M0.5,-8.2 C0.5,-8.8 0.2,-9.75 -0.35,-9.95 L-0.55,-9.95 C-1.05,-9.95 -2.15,-9.05 -2.2,-7.55 -2.4,-8 -2.6,-8.45 -2.9,-8.65 -3.05,-8.75 -3.25,-8.8 -3.4,-8.8 -3.55,-8.8 -3.65,-8.8 -3.8,-8.7 -4.2,-8.5 -4.5,-8 -4.6,-7.25 -4.65,-6.8 -4.65,-6.4 -4.6,-6.05 L-4.8,-6.35 C-4.9,-6.55 -5.1,-6.65 -5.3,-6.7 -5.75,-6.7 -6.2,-6.3 -6.35,-5.25 -6.55,-3.8 -6.1,-2.4 -5.45,-1.5 L-5.15,-0.8 -5.2,-0.75 C-5.25,-0.6 -5.1,-0.5 -5,-0.55 -4.55,0.1 -3.95,0.8 -3.4,1.35 -3.45,1.45 -3.35,1.55 -3.25,1.5 L-2.3,2.2 C-1.85,2.45 -1.35,2.55 -0.9,2.55 -0.15,2.6 0.6,2.3 1.2,1.9 L1.25,1.9 C1.4,1.95 1.5,1.8 1.45,1.7 2.1,1.05 2.6,0.15 2.8,-0.8 2.9,-0.85 2.9,-0.95 2.85,-1.05 2.85,-1.4 2.9,-1.8 2.8,-2.2 2.85,-2.45 2.9,-4.1 2.6,-4.45 3.1,-5 4,-5.75 3.85,-6.35 3.7,-7.1 3.45,-7.4 3.05,-7.4 2.6,-7.45 2,-7 1.6,-6.4 L1.3,-6.05 0.95,-6.55 C0.45,-7.15 0.5,-7.7 0.5,-8.2z M0.5,-6.65 C0,-6.9 -0.55,-7 -1.05,-6.8 -0.9,-8 -0.65,-9 -0.35,-9.6 L-0.2,-9.45 C0.1,-9.15 0.2,-8.55 0.2,-8.2 0.2,-7.75 0.2,-7.2 0.5,-6.65z M2.25,-6.7 C2.55,-7 2.8,-7.15 3,-7.1 3.1,-7.1 3.2,-7.05 3.25,-6.95 3.2,-7 3.15,-7 3.1,-6.95 L2.35,-5.95 C2.25,-6.15 2.2,-6.35 2.3,-6.6 L2.25,-6.7z M1.95,-6.35 C1.95,-6.1 2,-5.85 2.15,-5.7 1.85,-5.35 1.65,-4.95 1.5,-4.55 0.6,-4.85 -0.25,-4.85 -1.1,-4.6 -1.15,-5.25 -1.1,-5.9 -1.05,-6.5 -0.5,-6.7 0.15,-6.65 0.7,-6.15 L0.85,-6.15 1.25,-5.7 1.45,-5.8 C1.6,-5.9 1.75,-6.05 1.85,-6.25 L1.95,-6.35z M3.55,-6.3 C3.6,-6.1 3.4,-5.8 3.15,-5.45 L3.1,-5.5 C2.85,-5.5 2.65,-5.6 2.55,-5.7 L3.35,-6.75 3.35,-6.85 C3.45,-6.7 3.55,-6.45 3.55,-6.3z M1.8,-4.45 L2.3,-5.45 C2.45,-5.35 2.65,-5.25 2.9,-5.2 L2.25,-4.45 2.4,-4.25 2.45,-4.15 2.4,-4.2 1.8,-4.45z M2.25,-3.9 C2.35,-3.85 2.4,-3.95 2.5,-4.05 L2.55,-2.25 C2.6,-1.9 2.6,-1.5 2.55,-1.2 L1.85,-1.35 1.65,-2.25 C1.55,-3 1.55,-3.6 1.75,-4.15 L2.25,-3.9z M1.25,-3.85 C1.1,-3.1 1.25,-2.25 1.4,-1.4 0.75,-1.55 0.1,-1.5 -0.5,-1.35 -0.85,-2.25 -1,-3.25 -1.05,-4.3 -0.25,-4.55 0.55,-4.55 1.4,-4.25 L1.25,-3.85z M2.5,-0.9 C2.4,-0.45 2.25,0 2.05,0.4 L1.9,-1.05 2.5,-0.9z M1.15,1.55 Q-0.95,0.9 -2.05,-0.3 C-1.7,-0.65 -1.2,-0.9 -0.65,-1.05 -0.2,0.1 0.6,0.85 1.65,1 L1.45,1.25 1.15,1.55z M1.8,0.7 C0.8,0.6 0.1,-0.1 -0.35,-1.1 0.25,-1.2 0.85,-1.25 1.5,-1.1 1.6,-0.5 1.75,0.1 1.8,0.7z M-3.9,-8.2 C-4.1,-7.05 -4.1,-5.9 -4,-4.8 L-4.05,-4.7 -4.1,-4.75 C-4.55,-4.85 -5,-4.85 -5.4,-4.75 L-5.4,-6.35 -5.3,-6.4 C-5.2,-6.35 -5.1,-6.3 -5.05,-6.2 L-4.15,-5.05 -4.35,-7.2 C-4.25,-7.6 -4.1,-7.95 -3.9,-8.2z M-3.4,-8.5 L-3.05,-8.4 C-2.8,-8.25 -2.65,-7.8 -2.5,-7.45 L-2.1,-6.25 -2.15,-6.2 C-2.85,-6.3 -3.45,-5.75 -3.8,-5.2 -3.85,-6.3 -3.8,-7.4 -3.6,-8.45 L-3.4,-8.5z M-0.65,-9.65 C-1,-8.9 -1.2,-7.85 -1.35,-6.7 L-1.95,-6.3 -1.9,-7.5 C-1.9,-8.7 -1.1,-9.45 -0.65,-9.65z M-5.75,-4.2 C-5.7,-3.55 -5.65,-2.9 -5.55,-2.3 -5.7,-2.65 -5.85,-3.1 -6,-3.55 -6,-3.85 -5.9,-4.05 -5.75,-4.2z M-6.05,-5.25 C-6,-5.7 -5.85,-6 -5.7,-6.2 L-5.7,-4.6 -6.05,-4.25 C-6.1,-4.55 -6.1,-4.9 -6.05,-5.25z M-1.95,-5.75 L-1.95,-5.85 C-1.85,-5.85 -1.75,-5.95 -1.8,-6.05 L-1.35,-6.35 C-1.4,-5.75 -1.45,-5.15 -1.4,-4.5 -2.15,-4.25 -2.9,-3.75 -3.5,-3.15 -3.65,-3.6 -3.75,-4.15 -3.75,-4.65 -3.45,-5.25 -2.9,-6 -2.15,-5.9 L-2,-5.9 -1.95,-5.75z M-4.15,-4.45 L-3.95,-4.35 -3.7,-2.9 C-4.25,-2.45 -4.6,-1.85 -4.9,-1.25 -5.35,-2.2 -5.45,-3.35 -5.4,-4.4 -5.05,-4.55 -4.6,-4.55 -4.2,-4.45 L-4.15,-4.45z M-3.6,-2.55 L-3.35,-1.55 C-3.15,-1.05 -2.9,-0.6 -2.55,-0.25 -2.85,0.1 -3.1,0.55 -3.3,1.05 L-4.3,-0.15 C-4.5,-0.35 -4.65,-0.6 -4.8,-0.9 -4.5,-1.5 -4.1,-2.1 -3.6,-2.55z M-3.4,-2.8 C-2.85,-3.45 -2.15,-3.95 -1.35,-4.2 -1.3,-3.15 -1.15,-2.15 -0.8,-1.3 -1.3,-1.15 -1.8,-0.85 -2.25,-0.55 -2.75,-1.1 -3.15,-1.85 -3.4,-2.75 L-3.4,-2.8z M-2.35,0 C-1.55,0.85 -0.35,1.4 0.85,1.75 0.35,2.1 -0.25,2.3 -0.85,2.25 -1.3,2.25 -1.7,2.15 -2.15,2 -2.35,1.85 -2.7,1.6 -3.05,1.25 -2.9,0.75 -2.65,0.35 -2.35,0z"/>
      </g>
    </g>
  </g>
</svg>