<?xml version="1.0" encoding="UTF-8" standalone="no"?>
<!-- Generator: flash2svg, http://dissentgraphics.com/tools/flash2svg -->

<svg
   xmlns:dc="http://purl.org/dc/elements/1.1/"
   xmlns:cc="http://creativecommons.org/ns#"
   xmlns:rdf="http://www.w3.org/1999/02/22-rdf-syntax-ns#"
   xmlns:svg="http://www.w3.org/2000/svg"
   xmlns="http://www.w3.org/2000/svg"
   xmlns:sodipodi="http://sodipodi.sourceforge.net/DTD/sodipodi-0.dtd"
   xmlns:inkscape="http://www.inkscape.org/namespaces/inkscape"
   id="Avatar"
   image-rendering="auto"
   version="1.1"
   x="0px"
   y="0px"
   width="11.834726"
   height="13.495931"
   viewBox="0 0 11.834726 13.495931"
   inkscape:version="0.48.4 r9939"
   sodipodi:docname="Avatar_backLegLowerRight3.svg">
  <metadata
     id="metadata3206">
    <rdf:RDF>
      <cc:Work
         rdf:about="">
        <dc:format>image/svg+xml</dc:format>
        <dc:type
           rdf:resource="http://purl.org/dc/dcmitype/StillImage" />
      </cc:Work>
    </rdf:RDF>
  </metadata>
  <sodipodi:namedview
     pagecolor="#ffffff"
     bordercolor="#666666"
     borderopacity="1"
     objecttolerance="10"
     gridtolerance="10"
     guidetolerance="10"
     inkscape:pageopacity="0"
     inkscape:pageshadow="2"
     inkscape:window-width="640"
     inkscape:window-height="480"
     id="namedview3204"
     showgrid="false"
     fit-margin-top="0"
     fit-margin-left="0"
     fit-margin-right="0"
     fit-margin-bottom="0"
     inkscape:zoom="1.8730159"
     inkscape:cx="43.64631"
     inkscape:cy="-52.108524"
     inkscape:window-x="0"
     inkscape:window-y="0"
     inkscape:window-maximized="0"
     inkscape:current-layer="Avatar" />
  <defs
     id="defs3188">
    <radialGradient
       gradientUnits="userSpaceOnUse"
       color-interpolation="sRGB"
       r="10.285085"
       cx="-2.099"
       cy="0.5"
       fx="-2.099"
       fy="0.5"
       gradientTransform="matrix(-0.45848083,0.88929749,-0.88929749,-0.45848083,-2.549,2.55)"
       id="radialGradient">
      <stop
         stop-color="#FFF"
         stop-opacity="1"
         offset="0"
         id="stop3191" />
      <stop
         stop-color="#FFF"
         stop-opacity="0.40784313725490196"
         offset="1"
         id="stop3193" />
    </radialGradient>
    <radialGradient
       gradientUnits="userSpaceOnUse"
       color-interpolation="sRGB"
       r="10.29"
       cx="-4.599"
       cy="3.05"
       fx="-4.599"
       fy="3.05"
       gradientTransform="matrix(-0.458,0.889,-0.889,-0.458,-1.349,5.9)"
       id="radialGradient1">
      <stop
         stop-color="#FFF"
         stop-opacity="1"
         offset="0"
         id="stop3196" />
      <stop
         stop-color="#FFF"
         stop-opacity="0.40784313725490196"
         offset="1"
         id="stop3198" />
    </radialGradient>
  </defs>
  <g
     id="backLegLowerRight4"
     overflow="visible"
     style="overflow:visible"
     transform="translate(9.6463096,2.6044547)">
    <g
       id="backLegLowerRight3_0">
      <g
         id="element">
        <path
           id="path"
           d="m 1.15,-1.6 -0.05,0 C 0.25,-2 -0.85,-2.3 -1.65,-2.5 l -0.9,-0.1 c -1.95,-0.1 -2.55,1.5 -3.9,3.15 -1.25,1.7 -1.8,3.1 -2.7,5.05 -0.9,1.9 -0.85,4.5 2.5,5.25 l 0.05,0 c 2.15,0.4 5.35,-2.15 6.65,-5.2 L 1.45,2.5 1.5,2.45 1.45,2.45 C 2.05,1.05 2.35,-0.05 2.1,-0.7 2,-1 1.65,-1.3 1.2,-1.55 L 1.15,-1.6 z m 0.7,1 C 2,-0.05 1.75,0.95 1.25,2.15 L 0.65,1.45 C 1,0.2 1.1,-0.65 1.15,-1.15 1.55,-1 1.75,-0.8 1.85,-0.6 z M 1.15,2.45 -0.1,5.35 C -0.2,5.1 -0.3,4.7 -0.6,4.3 L 0.5,1.75 1.15,2.45 z M 0.4,1.15 C -0.05,0.7 -0.65,0.3 -1.35,-0.05 l 0.85,-1.75 1.4,0.45 c -0.05,0.4 -0.15,1.3 -0.5,2.5 z m -5.7,-1.3 c 0.25,-0.15 0.55,-0.25 0.9,-0.3 l -1.3,1.9 c -0.55,0.05 -0.95,0.2 -1.25,0.3 0.25,-0.3 0.45,-0.65 0.8,-1 l 0.8,-1.05 0.05,0.15 z m 1.05,-0.55 c -0.35,-0.05 -0.7,0.05 -1,0.2 0.75,-1 1.3,-1.7 2.35,-1.75 -0.5,0.3 -0.95,0.9 -1.35,1.55 z m 1.7,-1.45 0,-0.15 1.8,0.35 -0.9,1.75 c -0.8,-0.35 -1.55,-0.5 -2.3,-0.55 0.45,-0.6 0.9,-1.2 1.4,-1.4 z M -1.5,0.2 c 0.7,0.3 1.3,0.85 1.8,1.3 L -0.25,3 -0.75,4 c -0.4,-0.6 -1,-1.3 -1.75,-1.8 l 1,-2 z M -2.9,2.3 -4.2,4.75 C -5.05,4.25 -5.9,3.95 -6.75,3.9 L -5.5,1.75 c 0.55,-0.05 1.25,0 2.05,0.3 L -2.9,2.3 z M -3.35,1.75 C -4.15,1.5 -4.8,1.4 -5.35,1.4 l 1.25,-1.8 c 0.7,-0.05 1.5,0.1 2.3,0.45 l -1,2.05 -0.55,-0.35 z m 3.15,3.8 c -0.4,1.05 -1.15,2 -1.9,2.8 l -0.35,-1.1 c 0.55,-0.7 1.15,-1.6 1.7,-2.65 l 0.4,0.95 0.15,0 z m -2.45,-3.1 c 0.8,0.55 1.3,1.3 1.7,1.85 -0.55,1 -1.1,1.95 -1.6,2.55 C -2.85,6.2 -3.25,5.4 -3.95,4.9 l 1.3,-2.45 z M -5.9,1.8 -7.05,3.9 c -0.4,0 -0.75,0.1 -1.1,0.2 l 0.9,-1.8 c 0.05,0 0.5,-0.35 1.35,-0.5 z M -8.35,4.55 C -8,4.35 -7.65,4.25 -7.2,4.2 l -0.75,1.55 c -0.2,0.5 -0.3,1 -0.4,1.45 -0.2,-0.05 -0.35,0.05 -0.5,0.1 Q -9.15,7.45 -9.3,7.75 C -9.35,7.15 -9.2,6.45 -8.9,5.7 L -8.35,4.55 z M -5.8,8 c 0.35,-0.45 1,-1.6 1.7,-2.8 0.7,0.45 1.05,1.25 1.35,2 l -0.9,1.15 C -3.95,8.6 -4.8,9.1 -5.55,9.45 -5.65,9.1 -5.85,8.75 -6.15,8.4 L -5.8,8 z M -6.55,8.35 C -7.25,9.1 -7.75,9.45 -8,9.6 -8.1,9.3 -8.25,8.55 -8.1,7.5 c 0.3,0.1 0.65,0.25 1,0.45 l 0.55,0.4 z M -6.9,7.7 C -7.4,7.4 -7.75,7.3 -8.1,7.2 l 1.2,-3.05 c 0.85,0.05 1.7,0.35 2.55,0.9 -0.7,1.2 -1.3,2.3 -1.6,2.75 L -6.3,8.15 -6.9,7.7 z m -2.4,0.5 0.15,0.05 c 0.05,-0.35 0.2,-0.6 0.45,-0.65 0.1,-0.1 0.2,-0.1 0.3,-0.1 -0.15,1 -0.05,1.75 0.05,2.15 L -8.6,9.6 -9.05,8.95 -9.3,8.2 z m 3.95,2.25 -0.1,-0.7 c 0.8,-0.4 1.7,-0.95 2,-1.2 l 0.8,-1 0.25,1 0.05,0.05 c -1.35,1.35 -3,2.25 -4.2,2 l -0.55,-0.15 0.1,-0.1 -0.5,-0.3 0.75,0.05 c 0.3,0 0.65,-0.1 1,-0.25 l 0.1,0.6 0.3,0 z m -1.4,-0.7 -0.85,0 c 0.3,-0.2 0.7,-0.6 1.25,-1.15 0.25,0.3 0.4,0.65 0.55,1 l -0.95,0.15 z"
           inkscape:connector-curvature="0"
           style="fill:url(#radialGradient1)" />
      </g>
    </g>
  </g>
</svg>
