<?xml version="1.0" encoding="UTF-8" standalone="no"?>
<!-- Generator: flash2svg, http://dissentgraphics.com/tools/flash2svg -->

<svg
   xmlns:dc="http://purl.org/dc/elements/1.1/"
   xmlns:cc="http://creativecommons.org/ns#"
   xmlns:rdf="http://www.w3.org/1999/02/22-rdf-syntax-ns#"
   xmlns:svg="http://www.w3.org/2000/svg"
   xmlns="http://www.w3.org/2000/svg"
   xmlns:sodipodi="http://sodipodi.sourceforge.net/DTD/sodipodi-0.dtd"
   xmlns:inkscape="http://www.inkscape.org/namespaces/inkscape"
   id="AvatarAssets"
   image-rendering="auto"
   version="1.1"
   x="0px"
   y="0px"
   width="18.243"
   height="11.265511"
   viewBox="0 0 18.243 11.265511"
   inkscape:version="0.48.4 r9939"
   sodipodi:docname="AvatarAssets_shoeCloseA012b.svg">
  <metadata
     id="metadata3217">
    <rdf:RDF>
      <cc:Work
         rdf:about="">
        <dc:format>image/svg+xml</dc:format>
        <dc:type
           rdf:resource="http://purl.org/dc/dcmitype/StillImage" />
      </cc:Work>
    </rdf:RDF>
  </metadata>
  <sodipodi:namedview
     pagecolor="#ffffff"
     bordercolor="#666666"
     borderopacity="1"
     objecttolerance="10"
     gridtolerance="10"
     guidetolerance="10"
     inkscape:pageopacity="0"
     inkscape:pageshadow="2"
     inkscape:window-width="640"
     inkscape:window-height="480"
     id="namedview3215"
     showgrid="false"
     fit-margin-top="0"
     fit-margin-left="0"
     fit-margin-right="0"
     fit-margin-bottom="0"
     inkscape:zoom="1.9032258"
     inkscape:cx="36.703"
     inkscape:cy="-48.957489"
     inkscape:window-x="0"
     inkscape:window-y="0"
     inkscape:window-maximized="0"
     inkscape:current-layer="AvatarAssets" />
  <defs
     id="defs3195" />
  <g
     id="shoeCloseA012b1"
     overflow="visible"
     style="overflow:visible"
     transform="translate(4.703,-1.777)">
    <g
       id="shoeCloseA012b_0">
      <g
         id="element">
        <g
           id="group1">
          <g
             id="drawingObject">
            <path
               id="path"
               d="M 12.138,7.994 11.87,7.386 0.38,6.724 -4.322,7.773 -4.109,8.601 -4.322,7.773 c 0,0 0.213,1.38 0.587,1.933 0.481,0.497 4.062,1.767 5.932,2.319 1.817,0.607 4.062,1.381 5.719,0.828 1.496,-0.552 3.473,-1.435 4.061,-3.092 C 12.565,8.159 11.87,7.386 11.87,7.386"
               inkscape:connector-curvature="0"
               style="fill:#f5dae4" />
          </g>
          <g
             id="drawingObject1">
            <path
               id="path1"
               d="M 10.214,8.933 11.603,7.165 0.38,6.613 -4.216,7.607 -4.162,8.38 -4.216,7.607 c 0,0 0.054,1.381 0.535,1.933 0.481,0.497 4.115,1.767 5.878,2.375 1.497,0.441 3.153,1.049 4.596,0.994 -0.32,-0.332 0.161,-0.718 0.428,-1.105 0.267,-0.386 4.81,-2.871 4.97,-2.982 l -1.977,0.111 z"
               inkscape:connector-curvature="0"
               style="fill:#000000;fill-opacity:0.08600003" />
          </g>
          <g
             id="drawingObject2">
            <path
               id="path2"
               d="M 4.503,1.777 C 4.3,2.301 3.995,2.721 3.64,3.088 2.472,3.928 1.457,4.348 0.594,4.348 -0.218,4.295 -1.081,4.295 -1.945,4.243 -3.315,3.77 -4.077,3.298 -4.178,3.036 l 0.101,0.525 c -0.254,0.577 -0.457,1.311 -0.558,1.941 q -0.102,1.364 -0.051,1.941 0.051,0.629 0.66,1.154 c 0.761,0.682 3.96,1.836 4.874,2.256 0.558,0.315 1.624,0.577 3.351,1.101 1.675,0.368 2.944,0.525 3.706,0.42 C 8.666,12.269 9.428,11.902 10.291,11.22 11.052,10.486 11.56,9.856 12.017,9.174 12.322,8.44 12.525,7.758 12.474,6.918 12.372,6.131 12.271,5.502 11.915,5.134 11.509,4.662 10.545,4.085 9.022,3.561 7.448,3.036 5.975,2.511 4.503,1.777 z"
               inkscape:connector-curvature="0"
               style="fill:#436fbc" />
          </g>
          <g
             id="drawingObject3">
            <path
               id="path3"
               d="m 4.351,11.954 c 1.472,0.315 2.691,0.473 3.706,0.473 1.015,-0.053 2.031,-0.368 2.995,-1.05 0.965,-0.682 1.574,-1.364 1.93,-2.046 0.406,-0.682 0.558,-1.416 0.558,-2.098 q 0,-1.102 -0.254,-1.784 C 13.032,4.977 11.966,4.452 10.189,3.98 8.819,4.348 7.448,5.187 5.975,6.498 4.503,7.81 3.945,9.646 4.351,11.954 z"
               inkscape:connector-curvature="0"
               style="fill:#f5dae4" />
          </g>
          <g
             id="drawingObject4">
            <path
               id="path4"
               d="M -0.787,7.922 C -0.246,6.842 -0.471,4.93 -1.932,4.701 q -0.62,-0.055 -1.157,0.906 -0.594,0.961 -0.165,1.736 c 0.589,1.072 1.985,1.599 2.467,0.579 z"
               inkscape:connector-curvature="0"
               style="fill:#f5dae4" />
          </g>
          <g
             id="drawingObject5">
            <path
               id="path5"
               d="M 8.311,3.088 C 7.6,2.879 6.534,3.193 5.214,4.138 3.945,4.977 3.234,5.816 3.132,6.603 2.929,7.39 3.64,7.128 5.112,5.869 L 5.975,5.239 C 6.382,4.977 6.737,4.61 7.245,4.295 7.651,3.928 8.159,3.613 8.615,3.561 9.123,3.456 9.022,3.298 8.311,3.088 z"
               inkscape:connector-curvature="0"
               style="fill:#d7a749" />
          </g>
          <g
             id="drawingObject6">
            <path
               id="path6"
               d="M 4.96,7.6 C 5.112,7.233 5.315,6.918 5.468,6.551 5.62,6.079 5.925,5.712 6.382,5.502 L 9.123,3.456 C 7.752,3.298 6.585,3.665 5.62,4.452 4.605,5.239 3.894,6.026 3.335,6.656 2.929,7.023 2.625,7.18 2.422,7.023 2.117,6.813 1.965,6.551 1.965,6.394 1.965,6.184 2.219,5.816 2.777,5.239 3.285,4.715 3.995,3.77 4.859,2.511 4.199,3.403 3.132,4.085 1.812,4.4 0.442,4.767 -0.523,4.715 -0.98,4.243 -2.097,4.085 -3.011,3.718 -3.823,3.193 l -0.152,0.472 c -0.508,0.787 -0.711,1.574 -0.61,2.309 0.102,0.734 0.153,1.259 0.254,1.731 0,0.367 0.254,0.787 0.762,1.207 0.508,0.367 2.081,1.049 4.772,2.098 q 0.914,0.472 3.249,0.944 2.485,0.624 3.503,0.473 c 0.66,-0.105 1.422,-0.368 2.184,-0.84 C 10.9,11.063 11.712,10.433 12.525,9.751 13.286,9.017 13.54,7.6 13.286,5.449 12.271,6.971 11.002,7.967 9.479,8.492 7.905,9.017 6.737,9.069 5.925,8.702 5.062,8.335 4.757,7.967 4.96,7.6 z"
               inkscape:connector-curvature="0"
               style="fill:#000000;fill-opacity:0.2" />
          </g>
        </g>
      </g>
    </g>
  </g>
</svg>
