<?xml version="1.0" encoding="UTF-8" standalone="no"?>
<!-- Generator: flash2svg, http://dissentgraphics.com/tools/flash2svg -->

<svg
   xmlns:dc="http://purl.org/dc/elements/1.1/"
   xmlns:cc="http://creativecommons.org/ns#"
   xmlns:rdf="http://www.w3.org/1999/02/22-rdf-syntax-ns#"
   xmlns:svg="http://www.w3.org/2000/svg"
   xmlns="http://www.w3.org/2000/svg"
   xmlns:sodipodi="http://sodipodi.sourceforge.net/DTD/sodipodi-0.dtd"
   xmlns:inkscape="http://www.inkscape.org/namespaces/inkscape"
   id="AvatarAssets"
   image-rendering="auto"
   version="1.1"
   x="0px"
   y="0px"
   width="20.272257"
   height="11.43677"
   viewBox="0 0 20.272257 11.43677"
   inkscape:version="0.48.4 r9939"
   sodipodi:docname="AvatarAssets_sockCloseC004b.svg">
  <metadata
     id="metadata3409">
    <rdf:RDF>
      <cc:Work
         rdf:about="">
        <dc:format>image/svg+xml</dc:format>
        <dc:type
           rdf:resource="http://purl.org/dc/dcmitype/StillImage" />
      </cc:Work>
    </rdf:RDF>
  </metadata>
  <sodipodi:namedview
     pagecolor="#ffffff"
     bordercolor="#666666"
     borderopacity="1"
     objecttolerance="10"
     gridtolerance="10"
     guidetolerance="10"
     inkscape:pageopacity="0"
     inkscape:pageshadow="2"
     inkscape:window-width="640"
     inkscape:window-height="480"
     id="namedview3407"
     showgrid="false"
     fit-margin-top="0"
     fit-margin-left="0"
     fit-margin-right="0"
     fit-margin-bottom="0"
     inkscape:zoom="1.9032258"
     inkscape:cx="37.203756"
     inkscape:cy="-48.56323"
     inkscape:window-x="0"
     inkscape:window-y="0"
     inkscape:window-maximized="0"
     inkscape:current-layer="AvatarAssets" />
  <defs
     id="defs3393" />
  <g
     id="sockCloseC004b1"
     overflow="visible"
     style="overflow:visible"
     transform="translate(5.2037563,-2)">
    <g
       id="sockCloseC004b_0">
      <g
         id="element">
        <g
           id="drawingObject">
          <path
             id="path"
             d="M 14.35,6.8 C 14.05,6.15 13.35,5.55 12.3,5.05 11.2,4.5 10,3.95 8.7,3.3 7.35,2.65 5.95,2.25 4.45,2 L 1.65,3.75 C -0.75,3.65 -2.3,3.4 -2.95,2.95 -3.65,2.5 -4.15,2.55 -4.4,3.15 -4.7,3.75 -4.9,4.45 -5.05,5.2 -5.2,5.95 -5.2,6.65 -5.1,7.25 c 0.05,0.65 0.25,1.25 0.55,1.7 0.25,0.55 0.75,1.05 1.5,1.45 0.75,0.35 2.55,1 5.35,1.85 2.75,0.75 4.95,1 6.4,0.75 1.45,-0.4 2.7,-0.95 3.65,-1.75 Q 13.8,10.05 13.8,9.5 C 13.9,9.05 14.1,8.7 14.35,8.35 14.6,8 14.6,7.45 14.35,6.8 z"
             inkscape:connector-curvature="0"
             style="fill:#e9dfd2" />
        </g>
        <g
           id="group1">
          <g
             id="drawingObject1">
            <path
               id="path1"
               d="M -1.144,11.166 C -2.732,8.96 -3.94,7.716 -4.826,7.439 c -0.019,1.28 0.534,2.177 1.607,2.815 q 0.597,0.409 2.075,0.912 z"
               inkscape:connector-curvature="0"
               style="fill:#3c372e" />
          </g>
          <g
             id="drawingObject2">
            <path
               id="path2"
               d="m 15.001,8.301 c 0.15,-0.4 0.05,-1 -0.3,-1.75 -0.4,-0.8 -1,-1.25 -1.75,-1.35 l -1.7,-0.7 c -1.25,0.55 -2.6,1.45 -4,2.7 -1.45,1.25 -2.3,2.45 -2.6,3.6 -0.35,1.15 0.15,1.95 1.5,2.4 1.35,0.45 2.8,0.25 4.45,-0.55 1.65,-0.8 2.75,-1.6 3.3,-2.45 0.55,-0.85 0.9,-1.5 1.1,-1.9 z"
               inkscape:connector-curvature="0"
               style="fill:#3c372e" />
          </g>
        </g>
        <g
           id="drawingObject3">
          <path
             id="path3"
             d="m 10.35,9.9 1.2,-0.1 C 11.55,9.8 9.2,9.1 8.25,8.7 7.4,8.4 6,7.75 5.5,7.1 5.1,6.35 6.05,5.1 6.5,4.4 L 7.05,3.8 C 5.25,4.45 4.15,5 3.55,5.3 L 1.15,5.45 3.25,5 C 3.5,4.85 3.85,4.6 4.3,4.2 4.8,3.75 4.6,3.25 4.1,2.65 4.2,3 4,3.45 3.25,3.9 2.45,4.4 1.8,4.65 1.2,4.75 0.65,4.75 -0.35,4.5 -1.8,4.2 L -3.25,4.1 -4.55,3.55 c -0.05,0 -0.15,0.35 -0.3,1 -0.2,0.65 -0.3,1.5 -0.35,2.65 -0.05,1.1 0.4,2 1.3,2.65 0.9,0.65 1.65,1.1 2.3,1.25 0.6,0.15 2.2,0.6 4.75,1.35 2.55,0.75 4.4,0.95 5.5,0.65 1.1,-0.4 2.05,-0.75 2.85,-1.05 0.85,-0.3 1.55,-0.9 2.2,-1.75 -1.7,0.35 -2.8,0.55 -3.25,0.6 C 10,10.9 9.7,10.95 9.4,11.25 9.05,11.35 8.95,11.45 8.85,11.5 8.65,11.55 8.6,11.5 8.5,11.45 8.45,11.35 8.3,11.25 8.45,11 q 0.05,-0.65 0.5,-0.9 0.4,-0.05 1.4,-0.2 z"
             inkscape:connector-curvature="0"
             style="fill:#231f20;fill-opacity:0.08600003" />
        </g>
      </g>
    </g>
  </g>
</svg>
