<?xml version="1.0" encoding="UTF-8" standalone="no"?>
<!-- Generator: flash2svg, http://dissentgraphics.com/tools/flash2svg -->

<svg
   xmlns:dc="http://purl.org/dc/elements/1.1/"
   xmlns:cc="http://creativecommons.org/ns#"
   xmlns:rdf="http://www.w3.org/1999/02/22-rdf-syntax-ns#"
   xmlns:svg="http://www.w3.org/2000/svg"
   xmlns="http://www.w3.org/2000/svg"
   xmlns:sodipodi="http://sodipodi.sourceforge.net/DTD/sodipodi-0.dtd"
   xmlns:inkscape="http://www.inkscape.org/namespaces/inkscape"
   id="AvatarAssets"
   image-rendering="auto"
   version="1.1"
   x="0px"
   y="0px"
   width="10.15"
   height="17.529903"
   viewBox="0 0 10.15 17.529903"
   inkscape:version="0.48.4 r9939"
   sodipodi:docname="AvatarAssets_pantsLegUpperClose20101122.svg">
  <metadata
     id="metadata3380">
    <rdf:RDF>
      <cc:Work
         rdf:about="">
        <dc:format>image/svg+xml</dc:format>
        <dc:type
           rdf:resource="http://purl.org/dc/dcmitype/StillImage" />
      </cc:Work>
    </rdf:RDF>
  </metadata>
  <sodipodi:namedview
     pagecolor="#ffffff"
     bordercolor="#666666"
     borderopacity="1"
     objecttolerance="10"
     gridtolerance="10"
     guidetolerance="10"
     inkscape:pageopacity="0"
     inkscape:pageshadow="2"
     inkscape:window-width="640"
     inkscape:window-height="480"
     id="namedview3378"
     showgrid="false"
     fit-margin-top="0"
     fit-margin-left="0"
     fit-margin-right="0"
     fit-margin-bottom="0"
     inkscape:zoom="1.9032258"
     inkscape:cx="37.05"
     inkscape:cy="-47.3"
     inkscape:window-x="0"
     inkscape:window-y="0"
     inkscape:window-maximized="0"
     inkscape:current-layer="AvatarAssets" />
  <defs
     id="defs3346" />
  <g
     id="pantsLegUpperClose20101123"
     overflow="visible"
     style="overflow:visible"
     transform="translate(5.05,2.8299038)">
    <g
       id="pantsLegUpperClose20101122_3_0">
      <g
         id="element3"
         overflow="visible"
         style="overflow:visible">
        <g
           id="pantsLegUpperClose20101122Color_7_0">
          <g
             id="element6">
            <path
               id="path30"
               d="M 3.7,5.35 C 3.65,5.3 3.6,5.3 3.55,5.3 3.3,5.25 2.4,5.05 1.1,4.9 0.15,4.8 -1.1,4.65 -2.2,4.65 l -0.05,0 c -0.05,0 -0.05,0 -0.1,0 C -4,4.85 -4.6,5 -4.75,5.15 l 0,0.05 c 0.05,0.25 0.05,0.55 0.1,0.85 0,0.15 0,0.25 0,0.4 q 0.05,0.65 0.1,1.4 l 0.05,0.4 c 0,0.15 0,0.25 0,0.4 0,0.05 0,0.1 0,0.15 l 0,0.15 c 0,0.05 0,0.05 0,0.1 0,0.25 0,0.5 0.05,0.75 0,0.05 0,0.1 0.05,0.15 0,0.05 0,0.15 0,0.2 l 0.25,1.25 c 0.05,0.15 0.15,0.3 0.2,0.45 0.05,0.15 0.15,0.35 0.25,0.5 0.25,0.4 0.5,0.75 0.85,1.05 l 0.15,0.15 c 0.65,0.55 1.4,0.85 2.35,1 l 1.15,0.1 C 1.85,14.6 2.7,14.3 3.25,13.75 3.5,13.5 3.7,13.2 3.9,12.85 4,12.65 4.1,12.4 4.2,12.15 4.4,11.5 4.55,10.75 4.7,9.8 4.75,9.65 4.75,9.55 4.75,9.4 4.9,8.25 4.9,7.15 4.85,6.05 4.8,6 4.8,5.9 4.8,5.85 L 4.7,5.9 4.65,5.85 C 4.5,5.75 4.4,5.65 4.25,5.55 4.2,5.55 4.2,5.55 4.15,5.5 4.1,5.45 4,5.45 3.95,5.4 3.9,5.4 3.9,5.4 3.85,5.4 3.8,5.35 3.75,5.35 3.7,5.35 z"
               inkscape:connector-curvature="0"
               style="fill:#edede4" />
          </g>
        </g>
      </g>
    </g>
    <g
       id="pantsLegUpperClose20101122_2_0">
      <g
         id="element2"
         overflow="visible"
         style="overflow:visible">
        <g
           id="pantsLegUpperClose20101122Color_5_0">
          <g
             id="element5">
            <path
               id="path25"
               d="M 4.25,6.75 C 3.55,6.55 2,6.3 0.55,6.15 L -0.2,6.1 -0.45,6.05 l -1.5,0 c -0.75,0.05 -1.65,0.15 -2.7,0.4 0.05,0.5 0.1,0.95 0.1,1.4 l 0.25,0 0.35,-0.05 0.1,0 0.1,-0.05 0.3,0 0.1,-0.05 0.3,0 0.45,-0.05 0.15,0 0.2,-0.05 0.75,0 0,-0.05 2.95,0 c 1.45,0.1 2.9,0.5 3.35,0.6 L 4.8,7 4.25,6.75 z m -0.05,5.4 c 0,-0.1 0,-0.2 0.05,-0.3 -0.45,0.2 -1.7,0.45 -3.65,0.3 -0.75,0 -1.6,-0.15 -2.4,-0.25 l -0.55,-0.1 -0.05,0 -1.7,-0.4 -0.05,0 c 0.05,0.15 0.15,0.3 0.2,0.45 0.15,0.35 0.35,0.7 0.6,1 l 3.5,0.7 0.7,0.05 c 0.8,0.05 1.6,0 2.2,-0.1 l 0.4,-0.1 0.1,-0.05 C 3.7,13.2 3.8,13 3.9,12.85 4,12.65 4.1,12.4 4.2,12.15 z m -3.25,-1.4 0.05,0 c 1.8,0.1 3,-0.05 3.55,-0.1 L 4.75,9.4 -4.5,8.9 l 0,0.05 c 0,0.05 0,0.05 0,0.1 0,0.25 0,0.5 0.05,0.75 0,0.05 0,0.1 0.05,0.15 0,0.05 0,0.15 0,0.2 l 0.15,0.05 0.05,0 0.45,0.1 0.05,0 1.4,0.15 c 1,0.15 2.15,0.25 3.25,0.3 z"
               inkscape:connector-curvature="0"
               style="fill:#3d3d3b" />
          </g>
        </g>
      </g>
    </g>
    <g
       id="pantsLegUpperClose20101122_1_0">
      <g
         id="element1">
        <path
           id="path"
           d="m 0.5,6.2 0.05,0 C 0.6,6.15 0.65,6.15 0.7,6.1 0.85,6 1,5.95 1.15,5.9 1.8,5.65 2.7,5.8 3.35,5.85 L 4.7,6 4.7,5.95 4.65,5.9 C 4.45,5.9 4.15,5.85 3.8,5.7 3.4,5.55 3.1,5.5 2.9,5.45 L 1.75,5.4 C 1.15,5.25 0.55,5.2 -0.1,5.4 l -0.15,0.05 c -0.3,0.1 -0.9,0.15 -1,0.5 l -0.8,0.85 0,0.05 -0.25,0.4 -0.15,0.45 C -2.6,8.15 -2.7,8.65 -2.65,9.15 l 0.1,0.55 0.25,0.6 0,0.2 c 0.1,0.5 0.25,1 0.5,1.45 l 0.55,0.7 1.1,0.7 0.35,0.15 0.65,0.15 -0.7,-0.05 1.35,0.15 c 0.5,0 1,-0.1 1.55,-0.2 l 0.4,-0.1 0.1,-0.05 C 3.7,13.25 3.8,13.05 3.9,12.9 4,12.7 4.1,12.45 4.2,12.2 c 0,-0.1 0,-0.2 0.05,-0.3 l 0.2,-0.75 -0.15,0.1 -0.85,0.4 Q 2.5,11.85 1.8,11.55 C 1.65,11.45 1.3,11.25 1.35,11.1 L 1.8,11.1 0.75,10.7 0.5,10.5 0.4,10.4 0.15,10 C 0.05,9.75 -0.05,9.55 -0.05,9.35 l 0,-0.7 -0.1,-0.55 0.05,-0.55 0,-0.1 C 0,7.15 0,6.9 0.15,6.65 L 0.5,6.2 z"
           inkscape:connector-curvature="0"
           style="fill:#30302f;fill-opacity:0.29800002" />
        <path
           id="path1"
           d="M 2.9,5.45 C 3.1,5.5 3.4,5.55 3.8,5.7 4.15,5.85 4.45,5.9 4.65,5.9 4.5,5.8 4.4,5.7 4.25,5.6 4.2,5.6 4.2,5.6 4.15,5.55 4.1,5.5 4,5.5 3.95,5.45 c -0.05,0 -0.05,0 -0.1,0 C 3.8,5.4 3.75,5.4 3.7,5.4 3.65,5.35 3.6,5.35 3.55,5.35 3.3,5.3 2.4,5.1 1.1,4.95 0.15,4.85 -1.1,4.7 -2.2,4.7 l -0.05,0 c -0.05,0 -0.05,0 -0.1,0 C -4,4.9 -4.6,5.05 -4.75,5.2 l 0,0.05 c 0.05,0.25 0.05,0.55 0.1,0.85 0,0.15 0,0.25 0,0.4 0.05,0.5 0.1,0.95 0.1,1.4 l 0.05,0.4 c 0,0.15 0,0.25 0,0.4 0,0.05 0,0.1 0,0.15 l 0,0.15 c 0,0.05 0,0.05 0,0.1 0,0.25 0,0.5 0.05,0.75 0,0.05 0,0.1 0.05,0.15 0,0.05 0,0.15 0,0.2 l 0.25,1.25 c 0.05,0.15 0.15,0.3 0.2,0.45 0.05,0.15 0.15,0.35 0.25,0.5 0.25,0.4 0.5,0.75 0.85,1.05 l 0.15,0.15 c 0.65,0.55 1.4,0.85 2.35,1 L 0.8,14.7 C 1.85,14.65 2.7,14.35 3.25,13.8 3.5,13.55 3.7,13.25 3.9,12.9 3.8,13.05 3.7,13.25 3.55,13.4 l -0.1,0.05 -0.4,0.1 C 2.5,13.65 2,13.75 1.5,13.75 L 0.15,13.6 0.85,13.65 0.2,13.5 -0.15,13.35 -1.25,12.65 -1.8,11.95 C -2.05,11.5 -2.2,11 -2.3,10.5 l 0,-0.2 -0.25,-0.6 -0.1,-0.55 c -0.05,-0.5 0.05,-1 0.2,-1.45 l 0.15,-0.45 0.25,-0.4 0,-0.05 0.8,-0.85 c 0.1,-0.35 0.7,-0.4 1,-0.5 L -0.1,5.4 C 0.55,5.2 1.15,5.25 1.75,5.4 L 2.9,5.45 z"
           inkscape:connector-curvature="0"
           style="fill:#30302f;fill-opacity:0.65899999" />
      </g>
    </g>
    <g
       id="pantsLegUpperClose20101122_0_0">
      <g
         id="element"
         overflow="visible"
         style="overflow:visible">
        <g
           id="pantsLegUpperClose20101122Color_3_0">
          <g
             id="element4">
            <path
               id="path2"
               d="M 4.65,3.8 C 4.25,1.75 3.4,-0.35 1.75,-1.8 1.65,-1.8 1.6,-1.75 1.55,-1.7 1.3,-1.55 1.15,-1.15 1.15,-0.5 1.15,0.1 0.7,0.35 0.2,0.7 0,0.85 -0.25,0.95 -0.25,1.2 -0.2,1.45 0.1,1.65 0.3,1.7 1.1,1.95 1.9,1.9 2.6,2.45 l -1,0 C 1.75,2.7 2.5,2.85 2.75,2.95 2.9,3 3.05,3.1 3.25,3.2 3.35,3.25 3.45,3.35 3.6,3.4 3.65,3.35 3.75,3.3 3.9,3.25 c 0.05,0 0.15,0 0.25,0 0.05,0 0.15,0 0.2,-0.05 l 0.15,0 0.15,0.6 z m -6.2,-6.5 c -0.05,0 -0.15,0.05 -0.25,0.1 -0.15,0.05 -0.3,0.1 -0.6,0.35 0.25,-0.2 0.55,-0.35 0.85,-0.45 z"
               inkscape:connector-curvature="0"
               style="fill:#666666" />
            <path
               id="path3"
               d="M 1.35,-2.05 0.55,-2.5 C 0.5,-2.55 0.25,-2.65 0,-2.7 c -0.15,0.05 -0.25,0.1 -0.35,0.15 -0.15,0.05 -0.25,0.1 -0.3,0.15 l -0.9,0.9 c -0.35,0.5 -0.65,0.95 -0.7,1.55 -0.05,0.5 -0.05,0.9 0.25,1.3 0.05,0.1 0.15,0.2 0.3,0.3 0.35,0.25 0.8,0.4 1.45,0.55 -0.15,0.05 -0.35,0 -0.45,0.1 0.3,0.35 1,0.2 1.35,0.25 l 0.8,0.2 C 1.5,2.8 1.8,2.95 2.35,3.2 2.4,3.25 2.5,3.25 2.6,3.3 2.75,3.35 2.85,3.4 2.95,3.45 l 0.4,0.2 c 0.05,0 0.05,0 0.1,0 0.1,0 0.2,0 0.3,0.05 0.05,0 0.2,0 0.45,0 0.15,0 0.25,0.05 0.35,0.1 l 0.1,0 L 4.5,3.2 4.35,3.2 C 4.3,3.25 4.2,3.25 4.15,3.25 c -0.1,0 -0.2,0 -0.25,0 C 3.75,3.3 3.65,3.35 3.6,3.4 3.45,3.35 3.35,3.25 3.25,3.2 3.05,3.1 2.9,3 2.75,2.95 2.5,2.85 1.75,2.7 1.6,2.45 l 1,0 C 1.9,1.9 1.1,1.95 0.3,1.7 0.1,1.65 -0.2,1.45 -0.25,1.2 -0.25,0.95 0,0.85 0.2,0.7 0.7,0.35 1.15,0.1 1.15,-0.5 c 0,-0.65 0.15,-1.05 0.4,-1.2 0.05,-0.05 0.1,-0.1 0.2,-0.1 -0.05,-0.05 -0.1,-0.1 -0.4,-0.25 z"
               inkscape:connector-curvature="0"
               style="fill:#4d4d4d" />
            <path
               id="path7"
               d="m -1.8,-2.6 c -0.15,0.05 -0.3,0.1 -0.6,0.35 L -2.5,-2.2 C -3.15,-1.7 -3.7,-0.95 -4.25,0 -4.7,0.8 -4.9,2 -4.85,3.45 -4.8,3.4 -4.75,3.4 -4.7,3.35 -4.5,3.25 -4.2,3.15 -3.85,3 -3.6,2.95 -2.9,2.9 -1.8,2.9 c 0.05,0 0.05,0 0.1,0 1,0 2,0.05 2.55,0.15 0.35,0.05 0.7,0.15 1,0.25 1.15,0.25 1.9,0.45 2.25,0.65 0.2,0.1 0.4,0.2 0.55,0.3 L 4.75,4.35 4.7,4 4.65,3.95 4.2,3.95 3.35,3.65 2.95,3.45 -0.4,2.65 -0.85,2.5 c -0.05,0 0.05,-0.15 0,-0.15 L -1.2,2.25 c -0.6,0 -1.1,0 -1.65,-0.15 0,-0.15 0,-0.2 0.1,-0.3 C -3,1.55 -3.5,1.85 -3.7,1.5 c -0.1,-0.3 -0.05,-0.95 0,-1.25 0,-0.8 0.35,-1.35 0.85,-1.9 0.25,-0.25 0.5,-0.5 0.7,-0.65 0.15,-0.15 0.25,-0.25 0.35,-0.3 z"
               inkscape:connector-curvature="0"
               style="fill:#2e2e2e" />
            <path
               id="path8"
               d="m -1.55,-2.7 c -0.05,0 -0.15,0.05 -0.25,0.1 -0.1,0.05 -0.2,0.15 -0.35,0.3 -0.2,0.15 -0.45,0.4 -0.7,0.65 -0.5,0.55 -0.85,1.1 -0.85,1.9 -0.05,0.3 -0.1,0.95 0,1.25 0.2,0.35 0.7,0.05 0.95,0.3 -0.1,0.1 -0.1,0.15 -0.1,0.3 0.55,0.15 1.05,0.15 1.65,0.15 l 0.35,0.1 c 0.05,0 -0.05,0.15 0,0.15 l 0.45,0.15 3.35,0.8 C 2.85,3.4 2.75,3.35 2.6,3.3 2.5,3.25 2.4,3.25 2.35,3.2 1.8,2.95 1.5,2.8 1.45,2.75 L 0.65,2.55 C 0.3,2.5 -0.4,2.65 -0.7,2.3 -0.6,2.2 -0.4,2.25 -0.25,2.2 -0.9,2.05 -1.35,1.9 -1.7,1.65 -1.85,1.55 -1.95,1.45 -2,1.35 -2.3,0.95 -2.3,0.55 -2.25,0.05 -2.2,-0.55 -1.9,-1 -1.55,-1.5 l 0.9,-0.9 c 0.05,-0.05 0.15,-0.1 0.3,-0.15 0.1,-0.05 0.2,-0.1 0.35,-0.15 l -0.2,0 c 0.1,0 -0.15,-0.05 -0.4,-0.1 -0.3,-0.05 -0.6,-0.05 -0.95,0.1 z m 0.05,7.25 c 0,0 -0.2,0 -0.35,0 -1.85,-0.1 -2.6,0.3 -2.85,0.45 -0.2,0.2 0.1,0.2 0.1,0.2 0.15,-0.15 0.75,-0.3 2.4,-0.5 0.05,0 0.05,0 0.1,0 l 0.05,0 c 1.1,0 2.35,0.15 3.3,0.25 1.3,0.15 2.2,0.35 2.45,0.4 0.05,0 0.1,0 0.15,0.05 0.1,0 0.1,0 0.1,0 L 4,5.45 c 0.05,0 0.05,0 0.1,0 C 4.15,5.5 4.25,5.5 4.3,5.55 4.35,5.6 4.35,5.6 4.4,5.6 4.55,5.7 4.65,5.8 4.8,5.9 L 4.85,5.95 4.95,5.9 C 4.95,5.9 4.6,5.6 3.7,5.25 3.65,5.25 3.6,5.25 3.5,5.15 3.35,5.1 3.25,5.1 3.1,5.05 L 1.75,4.8 C 0.9,4.65 -0.2,4.6 -1.5,4.55 z M 3.75,3.7 C 3.65,3.65 3.55,3.65 3.45,3.65 c -0.05,0 -0.05,0 -0.1,0 l 0.85,0.3 0.45,0 L 4.7,4 4.65,3.8 4.55,3.8 C 4.45,3.75 4.35,3.7 4.2,3.7 c -0.25,0 -0.4,0 -0.45,0 z"
               inkscape:connector-curvature="0"
               style="fill:#3d3d3d" />
            <path
               id="path9"
               d="m -0.35,2.95 -0.25,0 0,0.4 0.8,0.3 c 0,0 -0.9,-0.05 -0.9,0.1 -0.05,0.15 0.1,0.6 0.5,0.65 0.4,0.05 2.65,0.3 3.25,0.45 L 4.8,5.45 4.85,5.5 4.9,5.5 C 5,5.55 5.05,5.55 5.05,5.45 L 4.8,5 5.1,5.15 5.05,4.8 C 5,4.65 4.9,4.5 4.75,4.35 L 4.65,4.25 C 4.5,4.15 4.3,4.05 4.1,3.95 3.75,3.75 3,3.55 1.85,3.3 1.55,3.2 1.2,3.1 0.85,3.05 0.3,2.95 -0.7,2.9 -1.7,2.9 l 1.35,0.05 z M -3.85,3 C -3.6,2.95 -2.9,2.9 -1.8,2.9 L -3.05,2.95 -3.85,3 z"
               inkscape:connector-curvature="0"
               style="fill:#52524e" />
            <path
               id="path10"
               d="m -0.6,2.95 0.25,0 L -1.7,2.9 c -0.2,0.1 -0.4,0.2 -0.4,0.35 -0.05,0.3 0.15,0.3 0.15,0.3 l -0.65,0.4 c 0,0.2 0.25,0.45 0.95,0.45 1.35,0.1 2.45,0.25 3.4,0.4 L 3.1,5.05 C 3.35,5.1 3.6,5.15 3.95,5.25 4.2,5.3 4.4,5.4 4.6,5.5 l 0.1,0.05 c 0.05,0 0.1,0 0.15,0.05 L 4.9,5.65 C 4.95,5.7 5,5.7 5.05,5.75 L 5.1,5.25 5.1,5.15 4.8,5 5.05,5.45 C 5.05,5.55 5,5.55 4.9,5.5 L 4.85,5.5 4.8,5.45 3.05,4.85 C 2.45,4.7 0.2,4.45 -0.2,4.4 -0.6,4.35 -0.75,3.9 -0.7,3.75 -0.7,3.6 0.2,3.65 0.2,3.65 l -0.8,-0.3 0,-0.4 z"
               inkscape:connector-curvature="0"
               style="fill:#454541" />
            <path
               id="path11"
               d="m -1.7,2.9 c -0.05,0 -0.05,0 -0.1,0 l -1.25,0.05 c -0.3,0.1 -0.6,0.25 -0.65,0.4 0,0.3 -0.25,0.85 0.5,1 0.4,0.1 1,0.15 1.7,0.2 C -0.2,4.6 0.9,4.65 1.75,4.8 0.8,4.65 -0.3,4.5 -1.65,4.4 -2.35,4.4 -2.6,4.15 -2.6,3.95 l 0.65,-0.4 c 0,0 -0.2,0 -0.15,-0.3 C -2.1,3.1 -1.9,3 -1.7,2.9 z m 6.75,2.9 0,-0.05 C 5,5.7 4.95,5.7 4.9,5.65 L 4.85,5.6 C 4.8,5.55 4.75,5.55 4.7,5.55 L 4.6,5.5 C 4.4,5.4 4.2,5.3 3.95,5.25 3.6,5.15 3.35,5.1 3.1,5.05 3.25,5.1 3.35,5.1 3.5,5.15 4.2,5.35 4.7,5.6 4.95,5.9 l 0.1,-0.1 z"
               inkscape:connector-curvature="0"
               style="fill:#3d3d3a" />
            <path
               id="path14"
               d="m -1.85,4.55 c 0.15,0 0.35,0 0.35,0 -0.7,-0.05 -1.3,-0.1 -1.7,-0.2 -0.75,-0.15 -0.5,-0.7 -0.5,-1 0.05,-0.15 0.35,-0.3 0.65,-0.4 L -3.85,3 C -4.2,3.15 -4.5,3.25 -4.7,3.35 -4.75,3.4 -4.8,3.4 -4.85,3.45 c -0.15,0 -0.2,0.05 -0.2,0.1 l 0.1,1.45 0.05,0.05 0.15,0.2 c 0.05,0.05 0.1,0 0.15,-0.05 0,0 -0.3,0 -0.1,-0.2 0.25,-0.15 1,-0.55 2.85,-0.45 z"
               inkscape:connector-curvature="0"
               style="fill:#30302e" />
            <path
               id="path18"
               d="m -4.6,5.25 0,-0.05 c -0.05,0.05 -0.1,0.1 -0.15,0.05 0.15,0 0.15,0 0.15,0"
               inkscape:connector-curvature="0"
               style="fill:#52524e" />
            <path
               id="path21"
               d="m 3.95,5.4 c 0,0 0,0 -0.1,0 C 4,5.45 4,5.45 4,5.45 L 3.95,5.4"
               inkscape:connector-curvature="0"
               style="fill:#52524e" />
            <path
               id="path24"
               d="m 3.5,5.15 c 0.1,0.1 0.15,0.1 0.2,0.1 C 4.6,5.6 4.95,5.9 4.95,5.9 4.7,5.6 4.2,5.35 3.5,5.15"
               inkscape:connector-curvature="0"
               style="fill:#30302e" />
          </g>
        </g>
      </g>
    </g>
  </g>
</svg>
