<?xml version="1.0" encoding="UTF-8" standalone="no"?>
<!-- Generator: flash2svg, http://dissentgraphics.com/tools/flash2svg -->

<svg
   xmlns:dc="http://purl.org/dc/elements/1.1/"
   xmlns:cc="http://creativecommons.org/ns#"
   xmlns:rdf="http://www.w3.org/1999/02/22-rdf-syntax-ns#"
   xmlns:svg="http://www.w3.org/2000/svg"
   xmlns="http://www.w3.org/2000/svg"
   xmlns:sodipodi="http://sodipodi.sourceforge.net/DTD/sodipodi-0.dtd"
   xmlns:inkscape="http://www.inkscape.org/namespaces/inkscape"
   id="AvatarAssets"
   image-rendering="auto"
   version="1.1"
   x="0px"
   y="0px"
   width="18.15761"
   height="10.292536"
   viewBox="0 0 18.15761 10.292536"
   inkscape:version="0.48.4 r9939"
   sodipodi:docname="AvatarAssets_shoeCloseA010.svg">
  <metadata
     id="metadata3136">
    <rdf:RDF>
      <cc:Work
         rdf:about="">
        <dc:format>image/svg+xml</dc:format>
        <dc:type
           rdf:resource="http://purl.org/dc/dcmitype/StillImage" />
      </cc:Work>
    </rdf:RDF>
  </metadata>
  <sodipodi:namedview
     pagecolor="#ffffff"
     bordercolor="#666666"
     borderopacity="1"
     objecttolerance="10"
     gridtolerance="10"
     guidetolerance="10"
     inkscape:pageopacity="0"
     inkscape:pageshadow="2"
     inkscape:window-width="640"
     inkscape:window-height="480"
     id="namedview3134"
     showgrid="false"
     fit-margin-top="0"
     fit-margin-left="0"
     fit-margin-right="0"
     fit-margin-bottom="0"
     inkscape:zoom="1.9032258"
     inkscape:cx="36.58061"
     inkscape:cy="-48.741449"
     inkscape:window-x="0"
     inkscape:window-y="0"
     inkscape:window-maximized="0"
     inkscape:current-layer="AvatarAssets" />
  <defs
     id="defs3103" />
  <g
     id="shoeCloseA11"
     overflow="visible"
     style="overflow:visible"
     transform="translate(4.5806096,-2.9660147)">
    <g
       id="shoeCloseA010_0">
      <g
         id="element">
        <g
           id="group1">
          <g
             id="drawingObject">
            <path
               id="path"
               d="m 11.661,9.151 c 0.151,0.15 0.252,0.35 0.252,0.6 0,0.5 -0.252,0.85 -0.807,1 l -1.26,0.2 c 0,0 0.303,0.8 -0.907,1.15 -1.109,0.4 -1.714,0.4 -2.118,0.15 l -0.806,-0.4 0,-0.05 -0.101,0 -0.454,0.9 c 0,0 -0.05,0.1 -0.151,0.45 0.353,0.05 0.655,0.05 1.008,0.05 1.462,0 2.42,-0.1 2.773,-0.25 0.353,-0.2 1.159,-0.7 2.47,-1.5 1.311,-0.85 1.966,-1.7 1.966,-2.45 0,-0.8 -0.1,-1.1 -0.302,-0.9 -0.151,0.2 -0.353,0.4 -0.555,0.6 q -0.181,0.18 -0.68,0.25 l -0.328,0.2 z"
               inkscape:connector-curvature="0"
               style="fill:#d9526a" />
          </g>
          <g
             id="drawingObject1">
            <path
               id="path1"
               d="m 7.779,13.251 c 0.151,0.05 0.202,-0.15 0.151,-0.55 l 0.807,-0.55 c -0.907,0.4 -1.412,0.35 -1.714,0.15 l -0.706,-0.4 0,-0.05 -0.302,0 c 0,0 -1.16,0.1 -2.521,-0.15 -0.454,-0.05 -1.109,-0.25 -1.815,-0.6 -0.706,-0.4 -1.311,-0.6 -1.714,-0.65 -0.404,-0.05 -0.908,-0.1 -1.361,-0.25 -0.404,-0.1 -1.009,-0.3 -1.715,-0.75 l -1.361,-1 c -0.353,0.65 0.151,1.3 1.563,2 1.412,0.7 3.025,1.3 4.84,1.95 1.764,0.55 3.227,0.85 4.436,0.85 l 1.412,0 z"
               inkscape:connector-curvature="0"
               style="fill:#99394b" />
          </g>
          <g
             id="drawingObject2">
            <path
               id="path2"
               d="m 12.72,8.351 q -0.252,0.25 -0.857,0.3 l -0.555,0.05 0.353,0.1 c 0.151,0.2 0.202,0.5 0.05,0.9 -0.151,0.4 -0.403,0.65 -0.806,0.7 l -1.16,0.25 c -0.151,0.6 -0.554,1 -1.26,1.25 -0.706,0.2 -1.311,0.15 -1.765,-0.15 l -0.705,-0.35 -0.656,-0.05 c -0.907,0 -1.563,0 -1.916,-0.05 -0.403,-0.05 -1.058,-0.25 -1.915,-0.6 -0.857,-0.35 -1.311,-0.55 -1.412,-0.65 -0.101,-0.1 -0.504,-0.2 -1.16,-0.25 -0.705,-0.05 -1.361,-0.35 -1.966,-0.8 -0.706,-0.5 -1.109,-0.95 -1.21,-1.35 -0.302,0.25 -0.353,0.6 -0.151,1.05 0.151,0.4 1.613,1.1 4.386,2.1 2.773,0.95 4.89,1.5 6.352,1.65 1.412,0.05 2.32,0.05 2.672,-0.05 0.353,-0.15 0.958,-0.5 1.765,-0.95 0.807,-0.45 1.512,-0.95 2.067,-1.6 0.504,-0.55 0.605,-1.1 0.504,-1.45 -0.151,-0.45 -0.201,-0.65 -0.252,-0.6 -0.05,0.15 -0.151,0.4 -0.403,0.55 z"
               inkscape:connector-curvature="0"
               style="fill:#ba465b" />
          </g>
          <g
             id="drawingObject3">
            <path
               id="path3"
               d="m 8.082,12.551 0.756,-0.15 c 0.252,-0.15 0.454,-0.25 0.706,-0.35 0.705,-0.25 1.663,-0.85 2.672,-1.6 0.756,-0.5 1.21,-1 1.361,-1.75 q -0.101,0.7 -1.361,1.6 c -1.412,0.95 -2.219,1.45 -2.572,1.55 l -1.562,0.7 z"
               inkscape:connector-curvature="0"
               style="fill:#f7afbc" />
          </g>
        </g>
        <g
           id="group2">
          <g
             id="drawingObject4">
            <path
               id="path4"
               d="M 7.26,3.691 C 7.09,3.005 6.58,2.793 5.731,3.11 c 0,1.584 -0.114,3.168 -0.284,4.752 q -0.283,2.376 -0.849,3.643 l 1.189,0.317 c 0.793,0.158 1.36,-0.106 1.36,-0.106 0,0 -0.283,-1.953 0.17,-3.062 C 7.487,8.179 7.6,7.44 7.6,6.331 7.543,5.222 7.43,4.377 7.26,3.691 z"
               inkscape:connector-curvature="0"
               style="fill:#c44a61" />
          </g>
          <g
             id="drawingObject5">
            <path
               id="path5"
               d="M 10.648,5.539 Q 10.374,4.804 8.567,4.542 c 0,0 -2.683,0.367 -5.531,1.207 -2.793,0.839 -4.381,2.675 -4.546,3.41 l -0.219,0.734 c 1.479,0.735 2.3,1.102 2.465,1.102 0.274,0 -0.165,-2.046 3.176,-3.568 3.834,-1.626 6.736,-1.888 6.736,-1.888 z"
               inkscape:connector-curvature="0"
               style="fill:#db536b" />
          </g>
          <g
             id="drawingObject6">
            <path
               id="path6"
               d="M 8.95,4.804 C 8.457,4.699 7.636,4.804 5.665,5.171 3.693,5.591 1.776,6.378 0.626,7.165 Q -0.195,7.637 0.407,8.267 0.9,8.792 1.283,8.477 C 1.667,8.214 3.912,7.165 4.46,6.955 L 10.1,5.381 C 10.429,5.329 9.388,4.804 8.95,4.804 z"
               inkscape:connector-curvature="0"
               style="fill:#eb677e" />
          </g>
          <g
             id="drawingObject7">
            <path
               id="path7"
               d="m 6.783,9.197 c 0.169,-0.74 0.283,-2.324 0,-2.218 Q 5.65,7.401 5.48,7.771 C 5.366,8.193 5.197,9.302 5.31,9.513 5.366,9.725 6.556,9.989 6.783,9.197 z"
               inkscape:connector-curvature="0"
               style="fill:#e35671" />
          </g>
          <g
             id="drawingObject8">
            <path
               id="path8"
               d="m 6.76,4.489 c 0,0 -0.055,-0.419 -0.219,-0.577 Q 6.486,3.702 6.212,3.755 5.938,3.807 5.938,3.965 l 0,0.577 0.822,-0.053 z"
               inkscape:connector-curvature="0"
               style="fill:#e35671" />
          </g>
          <g
             id="drawingObject9">
            <path
               id="path9"
               d="M 5.82,6.609 C 8.425,5.818 10.238,5.606 10.125,5.501 L 9.162,5.078 c 0,0 0.226,0.106 0.17,0.317 -0.057,0.264 -1.19,0.37 -2.889,0.739 Q 4.12,6.715 1.741,8.246 L 1.288,8.669 3.044,7.824 1.288,8.669 c 0,0 3.116,-1.584 4.532,-2.06 z"
               inkscape:connector-curvature="0"
               style="fill:#f7afbc" />
          </g>
          <g
             id="drawingObject10">
            <path
               id="path10"
               d="M 6.952,8.669 C 7.066,7.613 6.839,6.662 6.783,6.979 Q 6.839,8.088 6.669,8.774 C 6.556,9.461 6.443,9.672 6.443,9.672 c 0,0 0.34,0.053 0.509,-1.003 z"
               inkscape:connector-curvature="0"
               style="fill:#f7afbc" />
          </g>
          <g
             id="drawingObject11">
            <path
               id="path11"
               d="M 6.76,4.489 C 6.815,4.384 6.486,3.755 6.431,3.755 q -0.164,-0.053 0,0.367 0.274,0.472 0.329,0.367 z"
               inkscape:connector-curvature="0"
               style="fill:#f7afbc" />
          </g>
        </g>
      </g>
    </g>
  </g>
</svg>
