<?xml version="1.0" encoding="UTF-8" standalone="no"?>
<!-- Generator: flash2svg, http://dissentgraphics.com/tools/flash2svg -->

<svg
   xmlns:dc="http://purl.org/dc/elements/1.1/"
   xmlns:cc="http://creativecommons.org/ns#"
   xmlns:rdf="http://www.w3.org/1999/02/22-rdf-syntax-ns#"
   xmlns:svg="http://www.w3.org/2000/svg"
   xmlns="http://www.w3.org/2000/svg"
   xmlns:sodipodi="http://sodipodi.sourceforge.net/DTD/sodipodi-0.dtd"
   xmlns:inkscape="http://www.inkscape.org/namespaces/inkscape"
   id="AvatarAssets"
   image-rendering="auto"
   version="1.1"
   x="0px"
   y="0px"
   width="17.891579"
   height="12.057564"
   viewBox="0 0 17.891579 12.057564"
   inkscape:version="0.48.4 r9939"
   sodipodi:docname="AvatarAssets_shoeCloseD009.svg">
  <metadata
     id="metadata3300">
    <rdf:RDF>
      <cc:Work
         rdf:about="">
        <dc:format>image/svg+xml</dc:format>
        <dc:type
           rdf:resource="http://purl.org/dc/dcmitype/StillImage" />
      </cc:Work>
    </rdf:RDF>
  </metadata>
  <sodipodi:namedview
     pagecolor="#ffffff"
     bordercolor="#666666"
     borderopacity="1"
     objecttolerance="10"
     gridtolerance="10"
     guidetolerance="10"
     inkscape:pageopacity="0"
     inkscape:pageshadow="2"
     inkscape:window-width="640"
     inkscape:window-height="480"
     id="namedview3298"
     showgrid="false"
     fit-margin-top="0"
     fit-margin-left="0"
     fit-margin-right="0"
     fit-margin-bottom="0"
     inkscape:zoom="1.9032258"
     inkscape:cx="36.678004"
     inkscape:cy="-47.855936"
     inkscape:window-x="0"
     inkscape:window-y="0"
     inkscape:window-maximized="0"
     inkscape:current-layer="AvatarAssets" />
  <defs
     id="defs3260" />
  <g
     id="shoeCloseD10"
     overflow="visible"
     style="overflow:visible"
     transform="translate(4.6780038,-2.0865)">
    <g
       id="shoeCloseD009_0">
      <g
         id="element">
        <g
           id="group1">
          <g
             id="drawingObject">
            <path
               id="path"
               d="m 12.266,8.768 -0.654,0 c 0.164,0.221 0.273,0.498 0.273,0.775 -0.055,0.609 -0.273,1.051 -0.763,1.328 l -1.09,0.222 c 0,0 0.218,0.941 -0.817,1.384 -0.98,0.442 -1.525,0.442 -1.906,0.221 L 6.6,12.2 l 0,-0.056 -0.272,0 C 5.511,12.2 4.748,12.255 4.04,12.2 3.332,12.034 2.678,11.812 1.97,11.535 1.371,11.259 0.662,11.037 -0.046,10.871 -0.863,10.705 -1.408,10.428 -1.735,10.152 -2.061,9.875 -2.606,9.653 -3.369,9.432 L -4.676,8.38 -4.622,8.546 c -0.054,0.941 0.327,1.55 1.09,1.827 0.762,0.277 1.416,0.609 2.015,0.996 0.6,0.333 1.798,0.831 3.596,1.55 1.798,0.665 3.051,0.997 3.813,1.052 0.708,0.056 1.362,0.111 1.907,0.166 0.817,0.056 1.58,-0.221 2.288,-0.83 1.634,-1.439 2.778,-2.657 2.942,-3.488 C 13.301,9.1 13.192,8.435 13.192,8.435 L 12.375,8.38 12.266,8.768 z"
               inkscape:connector-curvature="0"
               style="fill:#875113" />
          </g>
          <g
             id="drawingObject1">
            <path
               id="path1"
               d="m 13.192,8.103 -0.708,0.388 c -0.055,-0.056 -0.272,0 -0.654,0.055 l -0.545,0.111 0.382,-0.055 c 0.109,0.387 0.163,0.775 0.109,1.273 -0.055,0.498 -0.273,0.83 -0.654,0.996 l -1.09,0.222 C 10.196,11.702 9.978,12.2 9.433,12.532 8.888,12.809 8.017,12.809 6.873,12.477 L 6.6,12.2 l 0,-0.056 -0.272,0 c 0,0 -1.253,0.111 -2.669,-0.11 C 3.168,11.978 2.569,11.702 1.752,11.203 0.935,10.705 0.118,10.318 -0.591,9.985 -1.353,9.653 -1.952,9.432 -2.443,9.377 -2.933,9.321 -3.369,9.1 -3.641,8.768 L -4.186,7.882 c -0.926,0.609 -0.545,1.273 1.144,1.993 1.58,0.719 3.214,1.384 4.848,1.993 1.58,0.609 3.16,0.941 4.631,1.051 1.525,0.111 2.615,0 3.323,-0.276 0.436,-0.277 0.926,-0.72 1.525,-1.329 1.09,-1.162 1.907,-2.38 1.907,-2.879 0,-0.166 0,-0.276 0,-0.332 z"
               inkscape:connector-curvature="0"
               style="fill:#c79140" />
          </g>
          <g
             id="group2">
            <g
               id="drawingObject2">
              <path
                 id="path2"
                 d="m 11.83,9.819 c -0.163,0.222 -0.381,0.443 -0.708,0.665 C 10.795,10.76 10.305,10.816 9.651,10.76 9.27,11.425 8.943,11.868 8.671,12.034 8.398,12.2 8.071,12.255 7.799,12.2 L 6.6,12.034 l 0,-0.056 -0.272,0 C 6.056,11.591 5.402,11.425 4.476,11.591 3.495,11.757 2.678,11.591 1.97,11.148 1.262,10.65 0.771,10.428 0.608,10.373 0.39,10.318 -0.318,10.041 -1.517,9.653 c 0.926,0.554 1.526,0.886 1.798,1.052 0.327,0.111 0.708,0.332 1.199,0.609 0.49,0.277 1.144,0.498 2.015,0.72 0.817,0.221 1.852,0.332 3.105,0.276 0.273,0.167 0.654,0.277 1.035,0.333 l 0.055,0.055 c 0.599,0.055 1.035,0.111 1.253,0.055 1.035,-0.332 1.198,-0.941 1.253,-1.273 l 0.054,-0.332 c 1.035,-0.055 1.58,-0.498 1.58,-1.329 z"
                 inkscape:connector-curvature="0"
                 style="fill:#875113" />
            </g>
            <g
               id="drawingObject3">
              <path
                 id="path3"
                 d="m 12.756,8.435 c 0.109,-0.11 0.109,-0.221 0,-0.332 l -0.054,0.111 c -0.273,0.388 -1.199,0.388 -1.199,0.388 l 0.491,-0.111 -0.491,0.111 0.436,0.553 c 0.273,-0.166 0.545,-0.332 0.817,-0.72 z"
                 inkscape:connector-curvature="0"
                 style="fill:#875113" />
            </g>
          </g>
        </g>
        <g
           id="group3">
          <g
             id="drawingObject4">
            <path
               id="path4"
               d="M 10.325,5.27 C 9.784,5.326 9.026,5.27 8.052,5.102 7.078,4.991 6.482,4.991 6.212,5.158 5.941,5.27 5.346,6.444 4.534,8.736 3.722,10.917 3.451,11.867 3.614,11.588 l 1.082,0.391 c -0.054,0.391 0,0.28 0.163,-0.224 0.324,-1.062 0.595,-1.677 0.866,-1.9 q 0.433,-0.336 0.866,-0.559 0.324,0 0.595,-0.112 C 7.24,9.184 7.348,8.848 7.619,8.233 7.89,7.618 8.269,7.227 8.756,6.947 9.243,6.724 9.622,6.668 9.946,6.724 9.784,6.444 9.892,5.941 10.325,5.27 z"
               inkscape:connector-curvature="0"
               style="fill:#000000;fill-opacity:0.2" />
          </g>
          <g
             id="drawingObject5">
            <path
               id="path5"
               d="m 6.482,7.451 c 2.274,-2.404 4.06,-2.069 4.06,-2.069 Q 10.109,4.655 9.026,3.928 C 7.944,3.146 6.428,2.587 6.428,2.587 L 7.294,2.978 6.428,2.587 c 0,0 -2.598,0.615 -4.005,2.236 C 1.016,6.5 0.42,7.898 0.312,9.184 l -0.054,1.397 0.595,0.448 -0.595,-0.448 c 0,0 0.812,0.839 2.327,1.174 1.353,0.392 1.949,0.392 1.949,0.392 0,0 -0.379,-2.181 1.948,-4.696 z"
               inkscape:connector-curvature="0"
               style="fill:#649022" />
          </g>
          <g
             id="drawingObject6">
            <path
               id="path6"
               d="M 10.554,5.73 10.269,5.401 9.562,5.179 C 8.733,5.015 6.564,5.489 5.467,6.011 4.43,6.535 1.151,7.847 1.151,7.847 L 2.019,8.52 c 0.64,0.409 2.479,0.681 2.479,0.681 L 3.819,9.741 C 3.451,9.978 3.372,10.418 2.243,10.305 1.59,10.212 0.948,9.867 0.544,9.532 L 0.476,9.719 0.418,11.111 0.995,11.58 0.418,11.111 c 0,0 0.8,0.86 2.279,1.179 1.417,0.38 2.013,0.406 2.013,0.406 0,0 -0.421,-1.349 0.109,-2.594 C 5.348,8.858 6.173,7.691 7.708,6.681 8.693,5.964 9.896,5.764 10.554,5.73 z"
               inkscape:connector-curvature="0"
               style="fill:#4f711a" />
          </g>
          <g
             id="drawingObject7">
            <path
               id="path7"
               d="m 10.755,5.142 0.372,-1.438 c 0,0 -0.946,0.289 -2.695,0.409 C 6.746,4.236 4.721,6.526 4.721,6.526 Q 3.274,5.404 2.714,5.379 C 2.217,5.357 1.512,5.854 0.544,6.67 c -0.968,0.816 -1.72,0.915 -1.72,0.915 l 1.34,0.721 -1.34,-0.721 c 0,0 2.117,1.482 4.43,1.255 C 5.57,8.546 5.708,8.222 6.682,7.274 7.655,6.326 8.485,5.834 9.233,5.801 c 0.811,-0.03 1.314,-0.14 1.522,-0.659 z"
               inkscape:connector-curvature="0"
               style="fill:#507918" />
          </g>
          <g
             id="drawingObject8">
            <path
               id="path8"
               d="M 10.755,5.142 11.127,3.704 10.32,5.122 C 10.193,5.183 8.953,5.062 9.529,4.691 l 0.514,-0.374 c 0,0 -0.822,0.294 -1.3,-0.19 L 8.684,4.058 8.432,4.113 C 6.746,4.236 4.721,6.526 4.721,6.526 4.359,6.245 3.149,5.398 2.714,5.379 L 2.277,5.425 2.116,6.278 C 2.165,6.61 0.832,7.212 0.832,7.212 L 1.648,7.05 0.832,7.212 c 0,0 1.26,-0.341 2.494,-0.087 C 4.563,7.312 4.855,7.787 4.474,7.969 4.217,8.156 3.468,8.188 2.161,8.196 0.729,8.199 -0.384,8.017 -1.116,7.654 L -1.115,7.621 0.164,8.306 C 1.266,8.751 2.317,8.93 3.254,8.84 Q 4.819,8.645 5.457,8.277 5.838,8.096 6.682,7.274 c 0.973,-0.948 1.803,-1.44 2.551,-1.473 0.811,-0.03 1.314,-0.14 1.522,-0.659 z"
               inkscape:connector-curvature="0"
               style="fill:#406211" />
          </g>
          <g
             id="drawingObject9">
            <path
               id="path9"
               d="M 4.473,7.172 C 5.615,7.604 7.248,7.82 8.173,6.687 9.044,5.607 9.533,5.338 9.316,4.798 9.207,4.205 9.425,2.478 6.105,2.1 Q 5.506,2.046 4.527,2.208 3.384,2.424 3.166,2.856 C 2.84,3.449 2.241,4.366 2.568,5.068 2.84,5.823 3.33,6.849 4.473,7.172 z"
               inkscape:connector-curvature="0"
               style="fill:#f72c5b" />
          </g>
          <g
             id="drawingObject10">
            <path
               id="path10"
               d="m 3.983,4.474 0.054,0.54 c -0.054,0.54 0.599,2.05 0.599,2.05 0,0 -0.599,-0.431 -1.034,-1.457 C 3.221,4.528 2.568,4.205 2.568,4.205 l 0.381,0.269 -0.381,-0.269 -0.055,0 C 2.459,4.528 2.459,4.798 2.568,5.068 2.84,5.823 3.33,6.849 4.473,7.172 5.615,7.604 7.248,7.82 8.173,6.687 Q 9.37,5.284 9.37,5.014 L 9.098,5.23 C 8.554,5.554 7.738,6.525 7.411,6.579 7.03,6.633 7.738,5.769 7.738,5.769 L 7.411,6.201 7.738,5.769 6.704,6.255 C 6.105,6.633 5.724,6.471 5.289,6.039 L 3.983,4.474 z"
               inkscape:connector-curvature="0"
               style="fill:#ca254b" />
          </g>
          <g
             id="drawingObject11">
            <path
               id="path11"
               d="M 7.004,2.51 5.783,2.456 C 5.139,2.427 4.739,2.752 4.739,2.752 L 5.002,2.627 4.739,2.752 5.324,2.641 4.739,2.752 c 0,0 0.918,-0.37 2.064,-0.045 C 7.882,3.097 8.256,3.387 8.304,3.8 8.351,4.212 8.325,4.827 7.808,4.872 7.226,4.915 6.759,5.304 6.001,4.928 5.244,4.553 5.124,4.342 4.752,3.984 4.381,3.625 4.325,3.417 4.336,3.144 L 4.888,2.279 Q 4.695,2.271 4.298,2.527 3.833,2.848 3.752,3.255 C 3.662,3.867 4.235,4.029 4.601,4.524 5.031,5.022 5.973,5.611 6.49,5.566 7.005,5.589 7.978,5.427 8.319,4.963 8.725,4.502 8.815,3.891 8.385,3.393 7.955,2.895 7.455,2.53 7.004,2.51 z"
               inkscape:connector-curvature="0"
               style="fill:#a91e3e" />
          </g>
          <g
             id="drawingObject12">
            <path
               id="path12"
               d="M 7.739,3.432 7.227,3.341 c 0,0 -0.014,0.342 -0.461,0.253 C 6.383,3.509 6.321,3.438 6.584,3.313 L 6.783,3.185 6.341,2.96 Q 5.455,2.578 5.625,3.133 C 5.863,3.623 6.363,3.987 6.88,3.941 7.462,3.899 7.713,4.047 7.725,3.774 L 7.739,3.432 z"
               inkscape:connector-curvature="0"
               style="fill:#a91e3e" />
          </g>
          <g
             id="drawingObject13">
            <path
               id="path13"
               d="M 4.845,3.304 5.181,2.977 c 0,0 -0.728,0.446 -0.686,0.995 -0.026,0.615 0.553,0.64 0.553,0.64 L 4.945,3.992 Q 4.898,3.58 5.041,3.244 l 0.14,-0.267"
               inkscape:connector-curvature="0"
               style="fill:#a91e3e" />
          </g>
          <g
             id="drawingObject14">
            <path
               id="path14"
               d="m 6.31,6.789 c 0,0 -0.926,0.575 -1.499,0.412 Q 4.316,6.7 4.096,5.801 C 3.943,4.837 4.226,4.234 3.858,3.807 l -0.612,-0.78 0.46,1.32 c 0.036,0.686 0.2,1.378 0.429,2.072 0.229,0.694 0.717,1.331 1.442,0.953 L 6.31,6.789 z"
               inkscape:connector-curvature="0"
               style="fill:#a91e3e" />
          </g>
        </g>
      </g>
    </g>
  </g>
</svg>
