<?xml version="1.0" encoding="UTF-8" standalone="no"?>
<!-- Generator: flash2svg, http://dissentgraphics.com/tools/flash2svg -->

<svg
   xmlns:dc="http://purl.org/dc/elements/1.1/"
   xmlns:cc="http://creativecommons.org/ns#"
   xmlns:rdf="http://www.w3.org/1999/02/22-rdf-syntax-ns#"
   xmlns:svg="http://www.w3.org/2000/svg"
   xmlns="http://www.w3.org/2000/svg"
   xmlns:sodipodi="http://sodipodi.sourceforge.net/DTD/sodipodi-0.dtd"
   xmlns:inkscape="http://www.inkscape.org/namespaces/inkscape"
   id="AvatarAssets"
   image-rendering="auto"
   version="1.1"
   x="0px"
   y="0px"
   width="18.581299"
   height="9.8644705"
   viewBox="0 0 18.581299 9.8644705"
   inkscape:version="0.48.4 r9939"
   sodipodi:docname="AvatarAssets_bootCloseC010.svg">
  <metadata
     id="metadata17">
    <rdf:RDF>
      <cc:Work
         rdf:about="">
        <dc:format>image/svg+xml</dc:format>
        <dc:type
           rdf:resource="http://purl.org/dc/dcmitype/StillImage" />
      </cc:Work>
    </rdf:RDF>
  </metadata>
  <sodipodi:namedview
     pagecolor="#ffffff"
     bordercolor="#666666"
     borderopacity="1"
     objecttolerance="10"
     gridtolerance="10"
     guidetolerance="10"
     inkscape:pageopacity="0"
     inkscape:pageshadow="2"
     inkscape:window-width="640"
     inkscape:window-height="480"
     id="namedview15"
     showgrid="false"
     fit-margin-top="0"
     fit-margin-left="0"
     fit-margin-right="0"
     fit-margin-bottom="0"
     inkscape:zoom="9.410171"
     inkscape:cx="10.322452"
     inkscape:cy="1.3269044"
     inkscape:window-x="0"
     inkscape:window-y="0"
     inkscape:window-maximized="0"
     inkscape:current-layer="AvatarAssets" />
  <defs
     id="defs3" />
  <g
     id="bootCloseC11"
     overflow="visible"
     style="overflow:visible"
     transform="translate(4.7842979,-2.6785636)">
    <g
       id="bootCloseC010_0">
      <g
         id="element">
        <g
           id="drawingObject">
          <path
             id="path"
             d="M 7.533,2.963 4.87,2.74 C 4.315,4.466 2.651,5.246 -0.068,5.134 -2.12,4.577 -3.341,3.909 -3.674,3.13 l -0.554,0.668 q -0.555,0.891 -0.555,2.004 c 0,1.615 -0.111,2.784 1.72,3.842 1.775,1.003 5.159,1.894 6.38,2.172 1.276,0.278 3.218,0.668 4.549,0.724 1.221,0.056 2.497,-0.668 3.662,-1.782 C 13.026,9.366 13.691,8.085 13.636,6.805 13.525,5.468 12.804,4.577 11.417,4.188 10.03,3.798 8.754,3.352 7.533,2.963 z"
             inkscape:connector-curvature="0"
             style="fill:#333636" />
        </g>
        <g
           id="group1">
          <g
             id="drawingObject1">
            <path
               id="path1"
               d="M 4.371,6.415 C 3.761,6.081 3.539,5.468 3.816,4.522 c -1.72,0.724 -3.384,0.724 -4.993,0 -1.609,-0.724 -2.386,-1.17 -2.33,-1.448 l -0.555,0.668 0.555,-0.668 c 0,0 -1.11,0.891 -1.11,2.673 0,1.614 -0.055,2.839 1.72,3.842 1.775,1.002 5.16,1.949 6.38,2.171 1.276,0.334 3.218,0.669 4.549,0.78 1.221,0.056 2.553,-0.724 3.718,-1.838 1.664,-1.503 2.052,-3.062 1.941,-4.287 q 0,-0.613 -0.554,-1.114 c 0.277,0.501 0.332,1.114 0.111,1.726 C 12.915,7.807 10.363,9.199 9.309,9.199 8.31,9.255 7.755,8.642 8.088,8.141 8.365,7.528 10.252,5.969 10.252,5.969 L 9.253,6.805 10.252,5.969 c 0,0 -1.276,0.557 -3.385,0.836 -0.998,0.167 -1.83,0 -2.496,-0.39 z"
               inkscape:connector-curvature="0"
               style="fill:#2c2e2e" />
          </g>
        </g>
        <g
           id="drawingObject2">
          <path
             id="path2"
             d="m 11.944,10.413 c 1.085,-0.966 1.673,-1.933 1.853,-2.9 -0.271,0.677 -0.858,1.45 -1.853,2.32 q -1.13,0.967 -1.898,1.354 -0.769,0.338 -0.814,0 C 9.187,10.703 10.001,9.688 10.001,9.688 l -0.407,0.58 0.407,-0.58 -0.543,0.194 C 9.097,10.027 8.283,9.833 7.967,9.833 7.741,9.833 6.611,8.576 5.752,8.528 4.893,8.48 4.622,8.48 2.949,7.851 1.322,7.271 1.413,6.256 1.548,5.531 1.548,5.435 1.639,5.241 1.774,4.951 0.644,5 -0.802,4.564 -2.52,3.646 -3.198,2.728 -3.695,2.486 -3.966,2.824 l -0.09,0.725 c -0.498,1.015 -0.678,1.886 -0.588,2.514 0.09,0.628 0.181,1.257 0.271,1.788 0.091,0.532 0.814,1.112 2.215,1.837 1.356,0.725 3.119,1.257 5.333,1.692 2.08,0.532 3.752,0.822 4.972,0.87 1.221,0.048 2.486,-0.58 3.797,-1.837 z"
             inkscape:connector-curvature="0"
             style="fill:#242626" />
        </g>
      </g>
    </g>
  </g>
</svg>
