<?xml version="1.0" encoding="UTF-8" standalone="no"?>
<!-- Generator: flash2svg, http://dissentgraphics.com/tools/flash2svg -->

<svg
   xmlns:dc="http://purl.org/dc/elements/1.1/"
   xmlns:cc="http://creativecommons.org/ns#"
   xmlns:rdf="http://www.w3.org/1999/02/22-rdf-syntax-ns#"
   xmlns:svg="http://www.w3.org/2000/svg"
   xmlns="http://www.w3.org/2000/svg"
   xmlns:sodipodi="http://sodipodi.sourceforge.net/DTD/sodipodi-0.dtd"
   xmlns:inkscape="http://www.inkscape.org/namespaces/inkscape"
   id="AvatarAssets"
   image-rendering="auto"
   version="1.1"
   x="0px"
   y="0px"
   width="10.073772"
   height="17.466244"
   viewBox="0 0 10.073772 17.466244"
   inkscape:version="0.48.4 r9939"
   sodipodi:docname="AvatarAssets_pantsLegUpperCloseA009.svg">
  <metadata
     id="metadata3638">
    <rdf:RDF>
      <cc:Work
         rdf:about="">
        <dc:format>image/svg+xml</dc:format>
        <dc:type
           rdf:resource="http://purl.org/dc/dcmitype/StillImage" />
      </cc:Work>
    </rdf:RDF>
  </metadata>
  <sodipodi:namedview
     pagecolor="#ffffff"
     bordercolor="#666666"
     borderopacity="1"
     objecttolerance="10"
     gridtolerance="10"
     guidetolerance="10"
     inkscape:pageopacity="0"
     inkscape:pageshadow="2"
     inkscape:window-width="640"
     inkscape:window-height="480"
     id="namedview3636"
     showgrid="false"
     fit-margin-top="0"
     fit-margin-left="0"
     fit-margin-right="0"
     fit-margin-bottom="0"
     inkscape:zoom="1.9032258"
     inkscape:cx="37.11468"
     inkscape:cy="-47.14487"
     inkscape:window-x="0"
     inkscape:window-y="0"
     inkscape:window-maximized="0"
     inkscape:current-layer="AvatarAssets" />
  <defs
     id="defs3625" />
  <g
     id="pantsLegUpperCloseA10"
     overflow="visible"
     style="overflow:visible"
     transform="translate(5.1146805,2.6111125)">
    <g
       id="pantsLegUpperCloseA009_0">
      <g
         id="element">
        <g
           id="drawingObject">
          <path
             id="path"
             d="m 4.801,5.575 c -0.25,-2.097 -1.2,-7.877 -5.85,-8.184 q -1.3,-0.052 -2.45,1.176 -1.15,1.177 -1.45,2.66 c -0.4,1.944 0.05,5.013 0.05,6.292 0,1.279 -0.05,3.734 0.85,5.115 1.35,2.098 6.5,3.07 8,1.023 1.2,-1.636 1.1,-6.036 0.85,-8.082 z"
             inkscape:connector-curvature="0"
             style="fill:#d4924d" />
        </g>
        <g
           id="drawingObject1">
          <path
             id="path1"
             d="m 4.301,7.485 0.25,0.256 c 0.15,0.256 0.6,1.126 -0.6,3.325 -1.25,2.251 -4.5,-1.586 -5.05,-3.018 -0.6,-1.432 -0.6,-3.12 -0.55,-5.729 0,-1.944 0.25,-3.581 0.85,-4.809 l -0.25,-0.051 c -1.8,-0.102 -3.5,1.944 -3.9,3.837 -0.4,1.944 0.05,5.013 0.05,6.292 0,1.279 -0.05,3.734 0.85,5.115 1.35,2.097 6.5,3.069 8,1.023 q 0.8,-1.074 0.95,-3.888 0.15,-2.148 -0.1,-4.194 l -0.05,-0.307 0,0.051 c -0.1,1.688 -0.3,2.097 -0.45,2.097 z"
             inkscape:connector-curvature="0"
             style="fill:#000000;fill-opacity:0.08600003" />
        </g>
        <g
           id="drawingObject2">
          <path
             id="path2"
             d="m -4.949,1.296 c -0.4,1.944 0.05,5.013 0.05,6.292 0,1.279 -0.05,3.734 0.85,5.115 0.6,0.972 2.05,1.688 3.55,1.995 l -0.1,-0.153 q -1.55,-1.893 -1.8,-3.735 0.1,-1.585 0.05,-1.79 c -0.1,-0.358 -0.4,-0.87 -0.6,-1.586 -0.2,-0.665 -0.6,-0.767 -0.75,-2.864 -0.05,-1.075 -0.1,-0.768 0.3,-3.428 0.25,-1.585 0.7,-2.66 1.35,-3.478 -1.4,0.511 -2.55,2.097 -2.9,3.632 z"
             inkscape:connector-curvature="0"
             style="fill:#000000;fill-opacity:0.08600003" />
        </g>
      </g>
    </g>
  </g>
</svg>
