<?xml version="1.0" encoding="UTF-8" standalone="no"?>
<!-- Generator: flash2svg, http://dissentgraphics.com/tools/flash2svg -->

<svg
   xmlns:dc="http://purl.org/dc/elements/1.1/"
   xmlns:cc="http://creativecommons.org/ns#"
   xmlns:rdf="http://www.w3.org/1999/02/22-rdf-syntax-ns#"
   xmlns:svg="http://www.w3.org/2000/svg"
   xmlns="http://www.w3.org/2000/svg"
   xmlns:sodipodi="http://sodipodi.sourceforge.net/DTD/sodipodi-0.dtd"
   xmlns:inkscape="http://www.inkscape.org/namespaces/inkscape"
   id="AvatarAssets"
   image-rendering="auto"
   version="1.1"
   x="0px"
   y="0px"
   width="19.9"
   height="13.25792"
   viewBox="0 0 19.9 13.25792"
   inkscape:version="0.48.4 r9939"
   sodipodi:docname="AvatarAssets_shoeCloseB006.svg">
  <metadata
     id="metadata3257">
    <rdf:RDF>
      <cc:Work
         rdf:about="">
        <dc:format>image/svg+xml</dc:format>
        <dc:type
           rdf:resource="http://purl.org/dc/dcmitype/StillImage" />
      </cc:Work>
    </rdf:RDF>
  </metadata>
  <sodipodi:namedview
     pagecolor="#ffffff"
     bordercolor="#666666"
     borderopacity="1"
     objecttolerance="10"
     gridtolerance="10"
     guidetolerance="10"
     inkscape:pageopacity="0"
     inkscape:pageshadow="2"
     inkscape:window-width="640"
     inkscape:window-height="480"
     id="namedview3255"
     showgrid="false"
     fit-margin-top="0"
     fit-margin-left="0"
     fit-margin-right="0"
     fit-margin-bottom="0"
     inkscape:zoom="1.9032258"
     inkscape:cx="37.449"
     inkscape:cy="-48.59108"
     inkscape:window-x="0"
     inkscape:window-y="0"
     inkscape:window-maximized="0"
     inkscape:current-layer="AvatarAssets" />
  <defs
     id="defs3220" />
  <g
     id="shoeCloseB7"
     overflow="visible"
     style="overflow:visible"
     transform="translate(5.449,-0.151)">
    <g
       id="shoeCloseB006_0">
      <g
         id="element">
        <g
           id="group1">
          <g
             id="drawingObject">
            <path
               id="path"
               d="m 13.121,11.333 c 0.361,-0.615 0.662,-1.062 0.843,-1.397 L 14.204,8.763 6.983,7.589 C 6.803,7.477 -4.269,7.03 -4.269,7.03 L -4.51,8.26 -4.39,8.707 -4.51,8.26 c 0,0 0,0.782 0.602,1.229 0.602,0.503 2.527,1.062 3.971,1.397 1.505,0.503 4.213,1.229 5.958,1.677 1.384,0.335 2.527,0.614 3.309,0.782 0.782,0.168 1.505,0 2.227,-0.447 0.662,-0.447 1.203,-0.95 1.564,-1.565 z"
               inkscape:connector-curvature="0"
               style="fill:#c2945c" />
          </g>
          <g
             id="drawingObject1">
            <path
               id="path1"
               d="M 10.112,13.345 C 10.052,12.73 9.631,12.451 8.909,12.563 8.187,12.618 7.705,12.339 7.525,11.724 c -0.181,-0.559 0,-0.838 0.481,-0.838 l 0.121,0 L 3.914,7.589 -4.329,7.198 -4.63,8.483 -4.51,8.874 -4.63,8.483 c 0,0 0.06,0.782 0.662,1.23 0.601,0.447 2.527,0.95 3.971,1.397 1.505,0.503 4.212,1.173 5.957,1.676 1.866,0.503 3.25,0.671 4.152,0.559 z"
               inkscape:connector-curvature="0"
               style="fill:#84643f" />
          </g>
          <g
             id="drawingObject2">
            <path
               id="path2"
               d="M 4.039,6.274 C 4.549,6.07 5.925,5.252 5.925,5.252 c 0,0 -1.325,0.511 -3.161,0.767 Q 0.623,6.274 -2.283,5.252 L -3.914,4.18 -3.761,5.559 C -3.659,5.968 -1.722,6.376 0.368,6.58 2.509,6.836 3.58,6.478 4.039,6.274 z"
               inkscape:connector-curvature="0"
               style="fill:#362f28" />
          </g>
          <g
             id="drawingObject3">
            <path
               id="path3"
               d="m 6.101,3.151 -1.2,1.25 c -0.9,0 -1.55,0.2 -1.95,0.6 -0.35,0.35 -0.85,0.7 -1.4,0.85 -0.9,-0.25 -1.85,-0.4 -2.9,-0.45 -1.05,-0.05 -1.75,-0.45 -2.2,-1.3 l -0.5,-2.25 -0.1,-0.3 0,-0.35 -0.5,-1.05 -0.8,0.4 0.05,0.65 c 0.1,0.3 0.45,0.6 0.65,0.7 l -0.3,0.45 0.4,0.7 c 0.2,0.35 0.15,0.55 0.1,0.9 -0.5,0.8 -1.1,2.15 -0.7,4.15 0.4,1.4 3.5,1.7 6.2,2.9 2.6,1.05 7.2,2 8.7,2 1.55,0.05 3.4,-2.1 4,-2.95 0.55,-0.9 0.75,-2.7 0.8,-3.6 q -0.2,-0.55 -0.9,-0.85 -1.15,-0.7 -2.05,-1.2 c -0.75,-0.35 -1.7,-0.8 -2.9,-1.1 l -2.5,-0.15 z"
               inkscape:connector-curvature="0"
               style="fill:#211f1a" />
          </g>
          <g
             id="drawingObject4">
            <path
               id="path4"
               d="m 12.501,5.001 c 0,0 0.15,-0.2 -0.2,-0.35 -0.4,-0.2 -1.15,0.15 -2.6,1.35 -1.4,1.25 -1.7,2.25 -1.95,2.7 -0.15,0.4 0.6,0.5 0.6,0.5 l 1.5,-1.8 q 0.7,-0.7 1.75,-1.6 l 0.9,-0.8 z"
               inkscape:connector-curvature="0"
               style="fill:#1a1814" />
          </g>
          <g
             id="group2">
            <g
               id="drawingObject5">
              <path
                 id="path5"
                 d="M 2.24,10.707 5.161,9.873 5.212,10.311 5.851,12.503 7.065,12.746 6.701,12.058 5.394,8.617 3.046,9.635 2.742,9.073 2.091,7.258 l -4.456,2.6 0.764,0.246 C -0.417,9.281 1.977,8.827 1.977,8.827 l 0.263,1.88 z"
                 inkscape:connector-curvature="0"
                 style="fill:#ddc7ad" />
            </g>
            <g
               id="drawingObject6">
              <path
                 id="path6"
                 d="M -0.646,10.412 1.01,10.966 1.049,9.711 -0.646,10.412 z"
                 inkscape:connector-curvature="0"
                 style="fill:#ddc7ad" />
            </g>
            <g
               id="drawingObject7">
              <path
                 id="path7"
                 d="m 3.107,11.768 1.34,0.367 -0.162,-1.002 -1.178,0.635 z"
                 inkscape:connector-curvature="0"
                 style="fill:#ddc7ad" />
            </g>
          </g>
          <g
             id="drawingObject8">
            <path
               id="path8"
               d="m 5.351,8.051 c 0,-0.45 0.45,-0.5 1.25,-0.5 0.25,0 0.5,0.05 0.75,0.1 0.2,-0.1 0.3,-0.35 0.35,-0.7 0.05,-0.35 0.05,-0.8 0.1,-1.3 0,-0.55 0.6,-1.3 1.75,-2.2 -2.2,0.9 -3.5,1.4 -3.85,1.5 -1.05,0.85 -2.05,1.5 -6.1,0.9 -2.15,-0.4 -3.15,-1.1 -3.4,-1.6 -0.3,-0.65 -0.3,-1.75 -0.35,-2.35 -0.1,0.1 -0.25,0.3 -0.25,0.6 0,0.45 0.25,1.1 0.15,1.3 l -0.4,0.15 0,0.05 c -0.4,0.8 -1,2.15 -0.65,4.1 0.35,1.5 3.55,1.7 6.25,2.9 2.6,1.05 7.1,2 8.7,2 1.55,0.05 3.4,-2.1 4,-2.85 0.55,-0.95 0.75,-2.8 0.75,-3.7 l -0.15,-0.15 -0.3,0.55 c 0.55,1.05 -0.75,2.75 -1.8,3.1 -0.25,0.05 -0.7,-0.2 -0.75,-0.45 l 0,-0.2 c -0.85,0.6 -1.45,0.5 -2.15,0.5 -0.7,-0.15 -1.3,-0.25 -2.35,-0.7 l -1.05,-0.65 1.05,0.65 c -0.95,-0.6 -1.5,-0.75 -1.55,-1.05 z"
               inkscape:connector-curvature="0"
               style="fill:#000000;fill-opacity:0.2" />
          </g>
          <g
             id="drawingObject9">
            <path
               id="path9"
               d="M 8.969,11.333 C 8.488,12.06 7.946,12.227 6.502,12.06 5.058,11.892 3.553,10.663 3.012,10.215 2.591,9.824 1.989,9.545 0.725,9.377 -0.538,9.154 -1.02,8.204 -1.381,7.254 -1.501,6.807 -1.381,6.136 -0.96,5.465 -2.705,5.074 -3.547,4.46 -3.788,3.957 -3.848,3.733 -4.029,3.286 -4.029,2.839 c -0.06,1.229 -0.361,1.229 -0.722,1.285 -0.481,0.839 -0.842,2.068 -0.481,3.8 0.301,1.509 3.55,1.733 6.138,2.85 2.587,1.174 7.221,2.068 8.725,2.124 1.264,0.056 2.708,-1.453 3.49,-2.403 q -0.842,0.894 -2.046,1.509 -1.023,0.503 -1.203,0.223 l -0.301,-1.9 -0.602,1.006 z"
               inkscape:connector-curvature="0"
               style="fill:#000000;fill-opacity:0.2" />
          </g>
          <g
             id="drawingObject10">
            <path
               id="path10"
               d="m 6.401,1.851 -1.85,0.05 -0.85,1.5 c 0.25,-0.05 -0.1,0.25 -1.05,0.8 -0.8,0.65 -1.55,1.2 -2.2,1.65 l 1.45,0 c 0.75,0.15 1.45,0.4 2.05,0.6 q 2.55,1.45 2.9,0.75 c 0.4,-0.75 0.5,-2.25 1.1,-2.85 0.6,-0.45 2.55,-0.75 1.9,-1.3 -0.55,-0.65 -1.7,-1.05 -3.45,-1.2 z"
               inkscape:connector-curvature="0"
               style="fill:#36322b" />
          </g>
          <g
             id="drawingObject11">
            <path
               id="path11"
               d="M 7.946,4.236 C 8.006,4.18 8.488,3.957 9.27,3.565 9.932,3.342 9.992,3.118 9.511,2.895 9.39,3.398 8.728,3.621 7.525,3.621 L 5.9,3.677 6.923,4.236 c 0.602,0.335 0.241,0.335 0,1.006 C 6.803,5.857 6.382,6.918 5.599,6.639 L 2.591,5.465 C 2.29,5.298 1.869,5.242 1.447,5.242 L 0.545,5.857 1.808,5.968 C 3.132,6.248 4.215,6.639 5.058,7.142 5.84,7.645 6.382,7.701 6.622,7.365 6.803,6.974 7.044,6.415 7.284,5.577 7.525,4.963 7.766,4.515 7.946,4.236 z"
               inkscape:connector-curvature="0"
               style="fill:#1f1d18" />
          </g>
          <g
             id="drawingObject12">
            <path
               id="path12"
               d="M 10.233,8.93 C 10.714,9.377 11.376,8.595 12.038,8.371 12.76,8.092 12.82,8.204 12.7,8.427 L 12.519,8.93 c 0,0 1.685,-1.341 1.685,-1.956 0.061,-0.559 -0.301,-1.285 -1.143,-0.95 Q 12.459,6.192 11.196,7.421 9.992,8.651 10.233,8.93 z"
               inkscape:connector-curvature="0"
               style="fill:#36322b" />
          </g>
          <g
             id="drawingObject13">
            <path
               id="path13"
               d="m 10.474,5.41 c 0.541,-0.392 1.263,-1.006 0.18,-0.95 Q 10.233,4.571 9.691,5.186 9.27,5.633 9.09,5.968 L 8.849,6.471 10.474,5.41 z"
               inkscape:connector-curvature="0"
               style="fill:#36322b" />
          </g>
        </g>
      </g>
    </g>
  </g>
</svg>
