<?xml version="1.0" encoding="UTF-8" standalone="no"?>
<!-- Generator: flash2svg, http://dissentgraphics.com/tools/flash2svg -->

<svg
   xmlns:dc="http://purl.org/dc/elements/1.1/"
   xmlns:cc="http://creativecommons.org/ns#"
   xmlns:rdf="http://www.w3.org/1999/02/22-rdf-syntax-ns#"
   xmlns:svg="http://www.w3.org/2000/svg"
   xmlns="http://www.w3.org/2000/svg"
   xmlns:sodipodi="http://sodipodi.sourceforge.net/DTD/sodipodi-0.dtd"
   xmlns:inkscape="http://www.inkscape.org/namespaces/inkscape"
   id="AvatarAssets"
   image-rendering="auto"
   version="1.1"
   x="0px"
   y="0px"
   width="10.977976"
   height="17.514826"
   viewBox="0 0 10.977976 17.514826"
   inkscape:version="0.48.4 r9939"
   sodipodi:docname="AvatarAssets_pantsLegUpperCloseA006.svg">
  <metadata
     id="metadata3540">
    <rdf:RDF>
      <cc:Work
         rdf:about="">
        <dc:format>image/svg+xml</dc:format>
        <dc:type
           rdf:resource="http://purl.org/dc/dcmitype/StillImage" />
      </cc:Work>
    </rdf:RDF>
  </metadata>
  <sodipodi:namedview
     pagecolor="#ffffff"
     bordercolor="#666666"
     borderopacity="1"
     objecttolerance="10"
     gridtolerance="10"
     guidetolerance="10"
     inkscape:pageopacity="0"
     inkscape:pageshadow="2"
     inkscape:window-width="640"
     inkscape:window-height="480"
     id="namedview3538"
     showgrid="false"
     fit-margin-top="0"
     fit-margin-left="0"
     fit-margin-right="0"
     fit-margin-bottom="0"
     inkscape:zoom="1.9032258"
     inkscape:cx="37.608375"
     inkscape:cy="-47.134"
     inkscape:window-x="0"
     inkscape:window-y="0"
     inkscape:window-maximized="0"
     inkscape:current-layer="AvatarAssets" />
  <defs
     id="defs3505" />
  <g
     id="pantsLegUpperCloseA7"
     overflow="visible"
     style="overflow:visible"
     transform="translate(5.608375,2.6488252)">
    <g
       id="pantsLegUpperCloseA006_0">
      <g
         id="element">
        <g
           id="drawingObject">
          <path
             id="path"
             d="m 0.451,9.659 1.8,-2.032 c 0,0 -3.1,3.289 -5.3,6.432 1.35,0.581 3,0.774 4.5,0.774 q 1.35,-0.483 2.45,-1.257 L 2.251,7.627"
             inkscape:connector-curvature="0"
             style="fill:#000000" />
        </g>
        <g
           id="drawingObject1">
          <path
             id="path1"
             d="m -5.099,1.486 c -0.1,1.789 0.35,7.012 -0.05,8.173 -0.35,1.112 -0.5,1.305 -0.45,1.596 l 0.2,1.063 q 1.75,2.515 6.85,2.515 c 0.95,-0.338 1.85,-0.774 2.75,-1.451 0.4,-0.29 0.65,-0.773 0.95,-1.305 0.15,-2.177 0.35,-5.562 0.1,-6.481 -0.4,-1.257 -1.5,-4.836 -2.45,-6.093 -0.95,-1.306 -2,-2.322 -4,-2.128 -1.75,0.145 -3.75,2.273 -3.9,4.111 z"
             inkscape:connector-curvature="0"
             style="fill:#d9b558" />
        </g>
        <g
           id="group1">
          <g
             id="drawingObject2">
            <path
               id="path2"
               d="m -1.199,-2.625 -0.2,0.048 c -0.55,1.741 -1.25,3.24 -1.35,5.175 -0.05,2.37 0.4,4.643 0.35,6.916 0,0.773 -0.35,1.595 -0.3,2.321 l 0.1,2.418 0.75,0.242 c 0,-1.451 0.05,-2.854 0.2,-4.304 0.15,-1.935 -0.3,-3.869 -0.4,-5.804 -0.05,-1.451 0.15,-2.901 0.4,-4.352 0.15,-0.919 0.65,-1.79 1,-2.66 l -0.55,0 z"
               inkscape:connector-curvature="0"
               style="fill:#79592b;fill-opacity:0.4" />
          </g>
          <g
             id="drawingObject3">
            <path
               id="path3"
               d="m -4.449,7.579 c 0.15,1.209 -0.3,2.273 -0.3,3.385 l 0.2,2.273 0.65,0.436 -0.15,-1.306 c -0.25,-1.161 0.1,-2.273 0.2,-3.385 0.1,-1.016 -0.2,-2.128 -0.3,-3.144 -0.3,-2.466 -0.2,-6.142 1.85,-8.125 -0.55,0.291 -1.05,0.677 -1.5,1.113 -1.35,2.611 -0.95,6.19 -0.65,8.753 z"
               inkscape:connector-curvature="0"
               style="fill:#79592b;fill-opacity:0.4" />
          </g>
          <g
             id="drawingObject4">
            <path
               id="path4"
               d="m 0.801,0.954 c 0.65,2.466 0.2,5.464 0.2,7.979 q 0,1.935 -0.05,5.9 l 0.5,0 0.3,-0.096 0,-10.882 c 0,-0.822 0,-1.644 -0.1,-2.418 -0.2,-1.257 -0.95,-2.563 -1.05,-3.82 l -0.75,-0.194 c 0.05,1.209 0.6,2.273 0.95,3.531 z"
               inkscape:connector-curvature="0"
               style="fill:#79592b;fill-opacity:0.4" />
          </g>
          <g
             id="drawingObject5">
            <path
               id="path5"
               d="m 2.451,-0.449 c 0.55,0.919 0.7,2.467 1,3.53 q 0.35,1.355 0.3,3.386 0,1.16 -0.15,3.385 l 0,3.966 0.4,-0.29 c 0,-2.128 0.1,-4.256 0.15,-6.336 0.05,-2.031 -0.1,-3.724 -0.6,-5.755 -0.2,-0.677 -0.4,-1.257 -0.65,-1.789 l -0.1,-0.145 c -0.45,-0.581 -0.9,-1.113 -1.45,-1.499 0.35,0.483 0.75,0.967 1.1,1.547 z"
               inkscape:connector-curvature="0"
               style="fill:#79592b;fill-opacity:0.4" />
          </g>
        </g>
        <g
           id="group2">
          <g
             id="drawingObject6">
            <path
               id="path6"
               d="m -0.049,5.741 c 1.55,0.049 3.5,-0.145 5.05,-0.87 l -0.3,-0.967 c -1.25,0.628 -2.85,0.822 -4.05,0.918 -2.1,0.097 -4.15,-0.531 -5.75,-1.741 l 0.05,1.21 c 1.45,0.918 3.15,1.402 5,1.45 z"
               inkscape:connector-curvature="0"
               style="fill:#79592b;fill-opacity:0.45100002" />
          </g>
          <g
             id="drawingObject7">
            <path
               id="path7"
               d="m -4.399,-0.352 -0.45,0.87 q 2.95,1.064 4.6,1.064 c 1.2,0.049 2.65,-0.338 3.75,-0.773 l -0.45,-0.871 c -0.95,0.387 -1.95,0.677 -3.25,0.58 -1.5,-0.145 -2.8,-0.048 -4.2,-0.87 z"
               inkscape:connector-curvature="0"
               style="fill:#79592b;fill-opacity:0.45100002" />
          </g>
          <g
             id="drawingObject8">
            <path
               id="path8"
               d="m 0.301,13.431 c -1.25,0.193 -4.15,-0.435 -5.7,-1.354 l 0,0.241 c 0.4,0.581 0.9,1.016 1.5,1.355 q 1.95,0.725 2.7,0.773 c 1.5,0.049 3,-0.193 4.4,-0.677 0.55,-0.193 0.95,-0.435 1.35,-0.725 l 0.6,-0.967 0.05,-0.822 -1,0.967 c -0.8,0.87 -2.75,1.064 -3.9,1.209 z"
               inkscape:connector-curvature="0"
               style="fill:#79592b;fill-opacity:0.45100002" />
          </g>
          <g
             id="drawingObject9">
            <path
               id="path9"
               d="m 5.351,7.579 c -1.45,1.306 -2.95,2.08 -5.2,2.031 q -2.35,0 -5.15,-1.644 l -0.05,1.112 c 1.65,0.871 3.5,1.451 5.25,1.499 2.1,0.097 3.65,-0.58 5.1,-1.692 l 0.05,-1.306 z"
               inkscape:connector-curvature="0"
               style="fill:#79592b;fill-opacity:0.45100002" />
          </g>
        </g>
        <g
           id="drawingObject10">
          <path
             id="path10"
             d="m 1.401,11.481 c -0.25,0.145 -0.8,0.339 -1.6,0.242 -1,-0.145 -0.5,-1.403 -0.5,-3.385 0,-1.983 -0.9,-3.096 -1.05,-6.046 -0.15,-2.079 0.9,-3.82 1.9,-4.787 -0.4,-0.097 -0.85,-0.145 -1.35,-0.097 -1.75,0.145 -3.75,2.273 -3.9,4.111 -0.1,1.789 0.35,7.012 -0.05,8.173 -0.35,1.112 -0.5,1.305 -0.45,1.596 l 0.2,1.064 q 1.6,2.321 6.35,2.514 c -0.5,-0.387 -0.4,-1.499 -0.35,-2.176 0.05,-0.677 0.55,-1.064 0.8,-1.209 z"
             inkscape:connector-curvature="0"
             style="fill:#000000;fill-opacity:0.08600003" />
        </g>
        <g
           id="drawingObject11">
          <path
             id="path11"
             d="m -2.799,-2.013 c -1.2,0.822 -2.2,2.224 -2.3,3.482 -0.1,1.789 0.35,7.012 -0.05,8.173 -0.35,1.112 -0.5,1.305 -0.45,1.596 l 0.2,1.064 q 1,1.547 3.75,2.224 l -0.05,-0.725 c -0.2,-0.919 0.55,-1.064 0.85,-1.113 -0.4,0 -1.6,-0.241 -2.35,-1.064 -0.9,-0.967 -0.2,-2.176 -0.3,-4.352 l -0.3,-5.658 c -0.05,-1.403 0.45,-2.66 1,-3.627 z"
             inkscape:connector-curvature="0"
             style="fill:#000000;fill-opacity:0.08600003" />
        </g>
        <g
           id="drawingObject12">
          <path
             id="path12"
             d="m 4.551,11.331 c 0.25,-0.58 -0.15,-1.499 -0.95,-1.354 q -0.65,0.145 -1.3,0.774 -0.7,0.725 0.2,1.015 c 1.3,0.484 1.85,0.145 2.05,-0.435 z"
             inkscape:connector-curvature="0"
             style="fill:#ffffff;fill-opacity:0.08600003" />
        </g>
      </g>
    </g>
  </g>
</svg>
