<?xml version="1.0" encoding="UTF-8" standalone="no"?>
<!-- Generator: flash2svg, http://dissentgraphics.com/tools/flash2svg -->

<svg
   xmlns:dc="http://purl.org/dc/elements/1.1/"
   xmlns:cc="http://creativecommons.org/ns#"
   xmlns:rdf="http://www.w3.org/1999/02/22-rdf-syntax-ns#"
   xmlns:svg="http://www.w3.org/2000/svg"
   xmlns="http://www.w3.org/2000/svg"
   xmlns:sodipodi="http://sodipodi.sourceforge.net/DTD/sodipodi-0.dtd"
   xmlns:inkscape="http://www.inkscape.org/namespaces/inkscape"
   id="AvatarAssets"
   image-rendering="auto"
   version="1.1"
   x="0px"
   y="0px"
   width="8.92941"
   height="7.9499998"
   viewBox="0 0 8.92941 7.9499998"
   inkscape:version="0.48.4 r9939"
   sodipodi:docname="AvatarAssets_sockUpperCloseB006.svg">
  <metadata
     id="metadata3467">
    <rdf:RDF>
      <cc:Work
         rdf:about="">
        <dc:format>image/svg+xml</dc:format>
        <dc:type
           rdf:resource="http://purl.org/dc/dcmitype/StillImage" />
      </cc:Work>
    </rdf:RDF>
  </metadata>
  <sodipodi:namedview
     pagecolor="#ffffff"
     bordercolor="#666666"
     borderopacity="1"
     objecttolerance="10"
     gridtolerance="10"
     guidetolerance="10"
     inkscape:pageopacity="0"
     inkscape:pageshadow="2"
     inkscape:window-width="640"
     inkscape:window-height="480"
     id="namedview3465"
     showgrid="false"
     fit-margin-top="0"
     fit-margin-left="0"
     fit-margin-right="0"
     fit-margin-bottom="0"
     inkscape:zoom="1.9032258"
     inkscape:cx="35.98741"
     inkscape:cy="-56.499"
     inkscape:window-x="0"
     inkscape:window-y="0"
     inkscape:window-maximized="0"
     inkscape:current-layer="AvatarAssets" />
  <defs
     id="defs3450" />
  <g
     id="sockUpperCloseB7"
     overflow="visible"
     style="overflow:visible"
     transform="translate(3.9874099,2.449)">
    <g
       id="sockUpperCloseB006_0">
      <g
         id="element">
        <g
           id="drawingObject">
          <path
             id="path"
             d="m 0.093,-1.249 c -2.147,-0.1 -3.72,-1.2 -3.72,-1.2 l 1.037,0.55 -1.037,-0.55 -0.302,2.1 0.302,-2.1 c 0,0 -0.741,3.65 -0.098,5.95 0.643,2.25 3.5,2 5.001,1.95 1.501,-0.05 3.141,-1.65 3.236,-3.45 l 0.43,-4.175 q -0.074,0.246 -0.537,0.475 -1.165,0.6 -4.312,0.45 z"
             inkscape:connector-curvature="0"
             style="fill:#292520" />
        </g>
        <g
           id="drawingObject1">
          <path
             id="path1"
             d="m -3.812,-1.049 c 0.388,0.5 1.373,1.1 3.414,1.45 q 3.538,0.5 5.116,-0.65 l 0.128,-1.1 c -0.324,0.95 -2.335,1.4 -5.175,1 -2.043,-0.3 -2.976,-0.95 -3.415,-1.4 l -0.068,0.7 z"
             inkscape:connector-curvature="0"
             style="fill:#ddc7ad" />
        </g>
        <g
           id="drawingObject2">
          <path
             id="path2"
             d="m 1.421,1.651 c -2.755,0.2 -4.526,-0.95 -5.361,-1.55 l -0.018,0.7 c 0.678,0.9 2.006,1.75 5.005,1.8 1.65,0 2.865,-0.6 3.521,-0.85 l 0.074,-0.95 c -0.615,0.6 -1.467,0.7 -3.221,0.85 z"
             inkscape:connector-curvature="0"
             style="fill:#ddc7ad" />
        </g>
        <g
           id="drawingObject3">
          <path
             id="path3"
             d="m 4.02,3.651 -0.204,0.15 c -2.04,1.6 -4.33,-0.8 -4.199,-2.05 0.073,-0.9 0.299,-1.95 0.625,-3 l -0.1,0 c -2.147,-0.1 -3.72,-1.2 -3.72,-1.2 l 1.037,0.55 -1.037,-0.55 -0.302,2.1 0.302,-2.1 c 0,0 -0.741,3.65 -0.098,5.95 0.643,2.25 3.5,2 5.001,1.95 q 1.652,-0.1 2.695,-1.8 z"
             inkscape:connector-curvature="0"
             style="fill:#000000;fill-opacity:0.2" />
        </g>
        <g
           id="drawingObject4">
          <path
             id="path4"
             d="m -3.578,-2.449 c 0,0 -0.741,3.65 -0.098,5.95 0.553,1.85 2.5,2 4.05,2 -0.89,-0.4 -1.673,-1.1 -2.34,-2.4 q -0.908,-1.7 -0.278,-4.9 l -1.334,-0.65 z"
             inkscape:connector-curvature="0"
             style="fill:#000000;fill-opacity:0.2" />
        </g>
      </g>
    </g>
  </g>
</svg>
