<?xml version="1.0" encoding="UTF-8" standalone="no"?>
<!-- Generator: flash2svg, http://dissentgraphics.com/tools/flash2svg -->

<svg
   xmlns:dc="http://purl.org/dc/elements/1.1/"
   xmlns:cc="http://creativecommons.org/ns#"
   xmlns:rdf="http://www.w3.org/1999/02/22-rdf-syntax-ns#"
   xmlns:svg="http://www.w3.org/2000/svg"
   xmlns="http://www.w3.org/2000/svg"
   xmlns:sodipodi="http://sodipodi.sourceforge.net/DTD/sodipodi-0.dtd"
   xmlns:inkscape="http://www.inkscape.org/namespaces/inkscape"
   id="AvatarAssets"
   image-rendering="auto"
   version="1.1"
   x="0px"
   y="0px"
   width="11"
   height="11.866439"
   viewBox="0 0 11 11.866439"
   inkscape:version="0.48.4 r9939"
   sodipodi:docname="AvatarAssets_pantsLegUpperCloseA002.svg">
  <metadata
     id="metadata3461">
    <rdf:RDF>
      <cc:Work
         rdf:about="">
        <dc:format>image/svg+xml</dc:format>
        <dc:type
           rdf:resource="http://purl.org/dc/dcmitype/StillImage" />
      </cc:Work>
    </rdf:RDF>
  </metadata>
  <sodipodi:namedview
     pagecolor="#ffffff"
     bordercolor="#666666"
     borderopacity="1"
     objecttolerance="10"
     gridtolerance="10"
     guidetolerance="10"
     inkscape:pageopacity="0"
     inkscape:pageshadow="2"
     inkscape:window-width="640"
     inkscape:window-height="480"
     id="namedview3459"
     showgrid="false"
     fit-margin-top="0"
     fit-margin-left="0"
     fit-margin-right="0"
     fit-margin-bottom="0"
     inkscape:zoom="1.9032258"
     inkscape:cx="37.599"
     inkscape:cy="-53.032561"
     inkscape:window-x="0"
     inkscape:window-y="0"
     inkscape:window-maximized="0"
     inkscape:current-layer="AvatarAssets" />
  <defs
     id="defs3426" />
  <g
     id="pantsLegUpperCloseA3"
     overflow="visible"
     style="overflow:visible"
     transform="translate(5.599,2.899)">
    <g
       id="pantsLegUpperCloseA002_0">
      <g
         id="element">
        <g
           id="drawingObject">
          <path
             id="path"
             d="m 1.701,8.451 -0.05,0.05 -0.85,0.05 -0.05,0 -0.2,0.05 c -0.3,0 -0.65,0 -0.9,-0.05 -1.75,-0.2 -3.2,-1.35 -3.2,-1.35 l -0.75,0.75 -0.1,0.05 c 0.4,0.85 1.7,0.15 1.7,0.15 l 1.3,0.55 c 0.75,0.25 2.2,0.4 3.5,0.1 0.6,-0.15 1.25,-0.5 1.75,-0.85 l -1.1,0.3 -0.05,0.05 -1,0.15 z"
             inkscape:connector-curvature="0"
             style="fill:#000000;fill-opacity:0.4" />
        </g>
        <g
           id="drawingObject1">
          <path
             id="path1"
             d="m 5.151,6.051 0,-0.1 -0.05,-0.1 c -0.1,-0.7 -0.5,-3.4 -0.95,-4.65 -0.5,-1.3 -2,-3.4 -3.95,-3.95 -0.45,0.7 -1,1.75 -1.25,2.5 -0.35,1.05 -0.3,2.6 0.15,3.5 q 0.4,0.85 1.35,1.25 c 0,0 -0.8,0.05 -1.25,-0.25 l -0.45,-0.3 0.25,1.05 -0.25,-1.05 c 0,0 0.25,2 1.4,2.5 1.1,0.5 3.1,-0.1 3.1,-0.1 0,0 -1.5,0.5 -2.5,0.5 l -1.6,-0.15 0.15,0.3 -0.15,-0.3 c 0,0 0.15,0.5 0.9,0.9 0.7,0 1.5,-0.1 2.35,-0.3 1.95,-0.5 2.75,-1.25 2.75,-1.25 z"
             inkscape:connector-curvature="0"
             style="fill:#b33120" />
        </g>
        <g
           id="drawingObject2">
          <path
             id="path2"
             d="m 5.151,6.001 0,0.05 c 0,0 -0.8,0.75 -2.75,1.25 -0.85,0.2 -1.65,0.3 -2.35,0.3 0.35,0.15 0.85,0.35 1.55,0.4 0.8,0.1 1.45,0.05 1.9,0.05 l -0.025,0 0.375,-0.1 1.55,-0.75 -0.25,-1.2 z"
             inkscape:connector-curvature="0"
             style="fill:#ded8d7" />
        </g>
        <g
           id="drawingObject3">
          <path
             id="path3"
             d="m -0.299,-2.849 -0.1,0 -0.5,-0.05 0.1,0.05 c -0.4,0.3 -0.85,0.65 -1.25,0.85 q -1.05,1.55 -1,3.45 l 0,0.75 c 0.1,0.3 0.25,0.5 0.4,0.75 0.3,0.5 0.6,0.75 0.6,0.75 0,0 -0.85,-0.1 -0.75,0.75 0.1,0.6 0.7,2.05 1.2,2.9 0.5,0.15 1.05,0.2 1.65,0.25 -0.75,-0.4 -0.9,-0.9 -0.9,-0.9 l 0.15,0.3 -0.15,-0.3 1.6,0.15 c 1,0 2.5,-0.5 2.5,-0.5 0,0 -2,0.6 -3.1,0.1 -1.15,-0.5 -1.4,-2.5 -1.4,-2.5 l 0.25,1.05 -0.25,-1.05 0.45,0.3 c 0.45,0.3 1.25,0.25 1.25,0.25 0,0 -0.95,-0.4 -1.35,-1.25 -0.45,-0.9 -0.5,-2.45 -0.15,-3.5 0.25,-0.75 0.8,-1.8 1.25,-2.5 l -0.5,-0.1 z"
             inkscape:connector-curvature="0"
             style="fill:#b33120" />
        </g>
        <g
           id="drawingObject4">
          <path
             id="path4"
             d="m -0.299,-2.849 -0.1,0 -0.5,-0.05 0.1,0.05 c -0.4,0.3 -0.85,0.65 -1.25,0.85 q -1.05,1.55 -1,3.45 l 0,0.75 c 0.1,0.3 0.25,0.5 0.4,0.75 0.3,0.5 0.6,0.75 0.6,0.75 0,0 -0.85,-0.1 -0.75,0.75 0.1,0.6 0.7,2.05 1.2,2.9 0.5,0.15 1.05,0.2 1.65,0.25 -0.75,-0.4 -0.9,-0.9 -0.9,-0.9 l 0.15,0.3 -0.15,-0.3 1.6,0.15 c 1,0 2.5,-0.5 2.5,-0.5 0,0 -2,0.6 -3.1,0.1 -1.15,-0.5 -1.4,-2.5 -1.4,-2.5 l 0.25,1.05 -0.25,-1.05 0.45,0.3 c 0.45,0.3 1.25,0.25 1.25,0.25 0,0 -0.95,-0.4 -1.35,-1.25 -0.45,-0.9 -0.5,-2.45 -0.15,-3.5 0.25,-0.75 0.8,-1.8 1.25,-2.5 l -0.5,-0.1 z"
             inkscape:connector-curvature="0"
             style="fill:#9c2b1c" />
        </g>
        <g
           id="drawingObject5">
          <path
             id="path5"
             d="m -1.599,7.351 0.45,0.6 q 0.3,0.3 1.4,0.4 0.571,0.088 1.45,0.1 l 1,-0.15 0.05,-0.05 0.9,-0.2 c -0.5,0 -1.2,0.05 -2.05,-0.05 -0.7,-0.05 -1.2,-0.25 -1.55,-0.4 -0.6,-0.05 -1.15,-0.1 -1.65,-0.25 z m 3.25,1.15 0.025,-0.025 -0.775,0.075 0.75,-0.05 z"
             inkscape:connector-curvature="0"
             style="fill:#ded8d7" />
        </g>
        <g
           id="drawingObject6">
          <path
             id="path8"
             d="m -3.049,2.201 0,-0.75 q -0.05,-1.9 1,-3.45 c -0.8,0.45 -1.15,1.6 -1.2,2.75 -0.05,0.65 0.05,1.1 0.2,1.45 z"
             inkscape:connector-curvature="0"
             style="fill:#ded8d7" />
        </g>
        <g
           id="drawingObject7">
          <path
             id="path9"
             d="m -3.049,2.201 0,-0.75 q -0.05,-1.9 1,-3.45 c -0.8,0.45 -1.15,1.6 -1.2,2.75 -0.05,0.65 0.05,1.1 0.2,1.45 z"
             inkscape:connector-curvature="0"
             style="fill:#ded8d7" />
        </g>
        <g
           id="drawingObject8">
          <path
             id="path10"
             d="m -1.299,-2.799 c -0.15,0.1 -0.5,0.45 -0.75,0.8 q 0.35,-0.15 1.25,-0.85 l -0.1,-0.05 -0.4,0.1 z"
             inkscape:connector-curvature="0"
             style="fill:#b33120" />
        </g>
        <g
           id="drawingObject9">
          <path
             id="path11"
             d="m -1.299,-2.799 c -0.15,0.1 -0.5,0.45 -0.75,0.8 q 0.35,-0.15 1.25,-0.85 l -0.1,-0.05 -0.4,0.1 z"
             inkscape:connector-curvature="0"
             style="fill:#ded8d7" />
        </g>
        <g
           id="drawingObject10">
          <path
             id="path12"
             d="m -3.349,-1.799 -0.5,0.45 -0.35,0.4 -0.05,0.05 -0.3,0.5 c -0.55,1.35 -0.8,4.6 -0.85,5.95 l -0.1,1.4 c 0,0 0.8,0.2 1.25,-0.1 l 0,-0.25 c 0,-0.55 0.25,-3.5 0.2,-4.9 -0.05,-1.9 0.8,-3.3 1.25,-3.85 l -0.55,0.35 z"
             inkscape:connector-curvature="0"
             style="fill:#822417" />
        </g>
        <g
           id="drawingObject11">
          <path
             id="path13"
             d="m -2.649,2.951 c -0.15,-0.25 -0.3,-0.45 -0.4,-0.75 -0.05,1 -0.2,1.7 0,3.25 l 0.15,1.3 c 0.15,0.15 0.35,0.25 0.6,0.35 l 0.7,0.25 c -0.5,-0.85 -1.1,-2.3 -1.2,-2.9 -0.1,-0.85 0.75,-0.75 0.75,-0.75 q -0.3,-0.25 -0.6,-0.75 z"
             inkscape:connector-curvature="0"
             style="fill:#b33120" />
        </g>
        <g
           id="drawingObject12">
          <path
             id="path14"
             d="m -2.649,2.951 c -0.15,-0.25 -0.3,-0.45 -0.4,-0.75 -0.05,1 -0.2,1.7 0,3.25 l 0.15,1.3 c 0.15,0.15 0.35,0.25 0.6,0.35 l 0.7,0.25 c -0.5,-0.85 -1.1,-2.3 -1.2,-2.9 -0.1,-0.85 0.75,-0.75 0.75,-0.75 q -0.3,-0.25 -0.6,-0.75 z"
             inkscape:connector-curvature="0"
             style="fill:#822417" />
        </g>
        <g
           id="drawingObject13">
          <path
             id="path15"
             d="m -2.799,-2.149 c -0.45,0.55 -1.3,1.95 -1.25,3.85 0.05,1.4 -0.2,4.35 -0.2,4.9 l 0,0.25 c -0.45,0.3 -1.25,0.1 -1.25,0.1 l -0.1,1.1 c 0,0 0.85,0.05 1.2,-0.05 l 0.1,-0.05 0.75,-0.75 q 1.45,1.15 3.2,1.35 c 0.3,0.05 0.7,0.05 1.05,0 l 0.2,0 1.05,-0.1 c -0.85,-0.05 -2.6,0 -3.1,-0.5 l -0.45,-0.6 -0.7,-0.25 c -0.25,-0.1 -0.45,-0.2 -0.6,-0.35 l -0.15,-1.3 c -0.2,-1.55 -0.05,-2.25 0,-3.25 -0.15,-0.35 -0.25,-0.8 -0.2,-1.45 0.05,-1.15 0.4,-2.3 1.2,-2.75 0.25,-0.35 0.6,-0.7 0.75,-0.8 l 0.05,-0.1 -0.85,0.15 -0.45,0.25 -0.25,0.35 z"
             inkscape:connector-curvature="0"
             style="fill:#aba6a5" />
        </g>
      </g>
    </g>
  </g>
</svg>
