<?xml version="1.0" encoding="UTF-8" standalone="no"?>
<!-- Generator: flash2svg, http://dissentgraphics.com/tools/flash2svg -->

<svg
   xmlns:dc="http://purl.org/dc/elements/1.1/"
   xmlns:cc="http://creativecommons.org/ns#"
   xmlns:rdf="http://www.w3.org/1999/02/22-rdf-syntax-ns#"
   xmlns:svg="http://www.w3.org/2000/svg"
   xmlns="http://www.w3.org/2000/svg"
   xmlns:sodipodi="http://sodipodi.sourceforge.net/DTD/sodipodi-0.dtd"
   xmlns:inkscape="http://www.inkscape.org/namespaces/inkscape"
   id="AvatarAssets"
   image-rendering="auto"
   version="1.1"
   x="0px"
   y="0px"
   width="10.15"
   height="8.7799034"
   viewBox="0 0 10.15 8.7799034"
   inkscape:version="0.48.4 r9939"
   sodipodi:docname="AvatarAssets_pantsLegUpperClose20101122Color_3.svg">
  <metadata
     id="metadata3423">
    <rdf:RDF>
      <cc:Work
         rdf:about="">
        <dc:format>image/svg+xml</dc:format>
        <dc:type
           rdf:resource="http://purl.org/dc/dcmitype/StillImage" />
      </cc:Work>
    </rdf:RDF>
  </metadata>
  <sodipodi:namedview
     pagecolor="#ffffff"
     bordercolor="#666666"
     borderopacity="1"
     objecttolerance="10"
     gridtolerance="10"
     guidetolerance="10"
     inkscape:pageopacity="0"
     inkscape:pageshadow="2"
     inkscape:window-width="640"
     inkscape:window-height="480"
     id="namedview3421"
     showgrid="false"
     fit-margin-top="0"
     fit-margin-left="0"
     fit-margin-right="0"
     fit-margin-bottom="0"
     inkscape:zoom="1.9032258"
     inkscape:cx="37.05"
     inkscape:cy="-57.55"
     inkscape:window-x="0"
     inkscape:window-y="0"
     inkscape:window-maximized="0"
     inkscape:current-layer="AvatarAssets" />
  <defs
     id="defs3405" />
  <g
     id="pantsLegUpperClose20101122Color_4"
     overflow="visible"
     style="overflow:visible"
     transform="translate(5.05,4.3299038)">
    <g
       id="pantsLegUpperClose20101122Color_3_0">
      <g
         id="element">
        <path
           id="path"
           d="M 4.65,2.3 C 4.25,0.25 3.4,-1.85 1.75,-3.3 c -0.1,0 -0.15,0.05 -0.2,0.1 -0.25,0.15 -0.4,0.55 -0.4,1.2 0,0.6 -0.45,0.85 -0.95,1.2 -0.2,0.15 -0.45,0.25 -0.45,0.5 0.05,0.25 0.35,0.45 0.55,0.5 0.8,0.25 1.6,0.2 2.3,0.75 l -1,0 C 1.75,1.2 2.5,1.35 2.75,1.45 2.9,1.5 3.05,1.6 3.25,1.7 3.35,1.75 3.45,1.85 3.6,1.9 3.65,1.85 3.75,1.8 3.9,1.75 c 0.05,0 0.15,0 0.25,0 0.05,0 0.15,0 0.2,-0.05 l 0.15,0 0.15,0.6 z m -6.2,-6.5 c -0.05,0 -0.15,0.05 -0.25,0.1 -0.15,0.05 -0.3,0.1 -0.6,0.35 0.25,-0.2 0.55,-0.35 0.85,-0.45 z"
           inkscape:connector-curvature="0"
           style="fill:#666666" />
        <path
           id="path1"
           d="M 1.35,-3.55 0.55,-4 C 0.5,-4.05 0.25,-4.15 0,-4.2 c -0.15,0.05 -0.25,0.1 -0.35,0.15 -0.15,0.05 -0.25,0.1 -0.3,0.15 l -0.9,0.9 c -0.35,0.5 -0.65,0.95 -0.7,1.55 -0.05,0.5 -0.05,0.9 0.25,1.3 0.05,0.1 0.15,0.2 0.3,0.3 0.35,0.25 0.8,0.4 1.45,0.55 -0.15,0.05 -0.35,0 -0.45,0.1 0.3,0.35 1,0.2 1.35,0.25 l 0.8,0.2 C 1.5,1.3 1.8,1.45 2.35,1.7 2.4,1.75 2.5,1.75 2.6,1.8 2.75,1.85 2.85,1.9 2.95,1.95 l 0.4,0.2 c 0.05,0 0.05,0 0.1,0 0.1,0 0.2,0 0.3,0.05 0.05,0 0.2,0 0.45,0 0.15,0 0.25,0.05 0.35,0.1 l 0.1,0 L 4.5,1.7 4.35,1.7 C 4.3,1.75 4.2,1.75 4.15,1.75 c -0.1,0 -0.2,0 -0.25,0 C 3.75,1.8 3.65,1.85 3.6,1.9 3.45,1.85 3.35,1.75 3.25,1.7 3.05,1.6 2.9,1.5 2.75,1.45 2.5,1.35 1.75,1.2 1.6,0.95 l 1,0 C 1.9,0.4 1.1,0.45 0.3,0.2 0.1,0.15 -0.2,-0.05 -0.25,-0.3 -0.25,-0.55 0,-0.65 0.2,-0.8 0.7,-1.15 1.15,-1.4 1.15,-2 c 0,-0.65 0.15,-1.05 0.4,-1.2 0.05,-0.05 0.1,-0.1 0.2,-0.1 -0.05,-0.05 -0.1,-0.1 -0.4,-0.25 z"
           inkscape:connector-curvature="0"
           style="fill:#4d4d4d" />
        <path
           id="path5"
           d="m -1.8,-4.1 c -0.15,0.05 -0.3,0.1 -0.6,0.35 l -0.1,0.05 c -0.65,0.5 -1.2,1.25 -1.75,2.2 -0.45,0.8 -0.65,2 -0.6,3.45 0.05,-0.05 0.1,-0.05 0.15,-0.1 0.2,-0.1 0.5,-0.2 0.85,-0.35 0.25,-0.05 0.95,-0.1 2.05,-0.1 0.05,0 0.05,0 0.1,0 1,0 2,0.05 2.55,0.15 0.35,0.05 0.7,0.15 1,0.25 1.15,0.25 1.9,0.45 2.25,0.65 0.2,0.1 0.4,0.2 0.55,0.3 L 4.75,2.85 4.7,2.5 4.65,2.45 4.2,2.45 3.35,2.15 2.95,1.95 -0.4,1.15 -0.85,1 c -0.05,0 0.05,-0.15 0,-0.15 L -1.2,0.75 c -0.6,0 -1.1,0 -1.65,-0.15 0,-0.15 0,-0.2 0.1,-0.3 C -3,0.05 -3.5,0.35 -3.7,0 c -0.1,-0.3 -0.05,-0.95 0,-1.25 0,-0.8 0.35,-1.35 0.85,-1.9 0.25,-0.25 0.5,-0.5 0.7,-0.65 0.15,-0.15 0.25,-0.25 0.35,-0.3 z"
           inkscape:connector-curvature="0"
           style="fill:#2e2e2e" />
        <path
           id="path6"
           d="m -1.55,-4.2 c -0.05,0 -0.15,0.05 -0.25,0.1 -0.1,0.05 -0.2,0.15 -0.35,0.3 -0.2,0.15 -0.45,0.4 -0.7,0.65 -0.5,0.55 -0.85,1.1 -0.85,1.9 -0.05,0.3 -0.1,0.95 0,1.25 0.2,0.35 0.7,0.05 0.95,0.3 -0.1,0.1 -0.1,0.15 -0.1,0.3 0.55,0.15 1.05,0.15 1.65,0.15 l 0.35,0.1 c 0.05,0 -0.05,0.15 0,0.15 l 0.45,0.15 3.35,0.8 C 2.85,1.9 2.75,1.85 2.6,1.8 2.5,1.75 2.4,1.75 2.35,1.7 1.8,1.45 1.5,1.3 1.45,1.25 L 0.65,1.05 C 0.3,1 -0.4,1.15 -0.7,0.8 -0.6,0.7 -0.4,0.75 -0.25,0.7 -0.9,0.55 -1.35,0.4 -1.7,0.15 c -0.15,-0.1 -0.25,-0.2 -0.3,-0.3 -0.3,-0.4 -0.3,-0.8 -0.25,-1.3 0.05,-0.6 0.35,-1.05 0.7,-1.55 l 0.9,-0.9 c 0.05,-0.05 0.15,-0.1 0.3,-0.15 0.1,-0.05 0.2,-0.1 0.35,-0.15 l -0.2,0 c 0.1,0 -0.15,-0.05 -0.4,-0.1 -0.3,-0.05 -0.6,-0.05 -0.95,0.1 z m 0.05,7.25 c 0,0 -0.2,0 -0.35,0 -1.85,-0.1 -2.6,0.3 -2.85,0.45 -0.2,0.2 0.1,0.2 0.1,0.2 0.15,-0.15 0.75,-0.3 2.4,-0.5 0.05,0 0.05,0 0.1,0 l 0.05,0 c 1.1,0 2.35,0.15 3.3,0.25 1.3,0.15 2.2,0.35 2.45,0.4 0.05,0 0.1,0 0.15,0.05 0.1,0 0.1,0 0.1,0 L 4,3.95 c 0.05,0 0.05,0 0.1,0 C 4.15,4 4.25,4 4.3,4.05 4.35,4.1 4.35,4.1 4.4,4.1 4.55,4.2 4.65,4.3 4.8,4.4 L 4.85,4.45 4.95,4.4 C 4.95,4.4 4.6,4.1 3.7,3.75 3.65,3.75 3.6,3.75 3.5,3.65 3.35,3.6 3.25,3.6 3.1,3.55 L 1.75,3.3 C 0.9,3.15 -0.2,3.1 -1.5,3.05 z M 3.75,2.2 C 3.65,2.15 3.55,2.15 3.45,2.15 c -0.05,0 -0.05,0 -0.1,0 l 0.85,0.3 0.45,0 L 4.7,2.5 4.65,2.3 4.55,2.3 C 4.45,2.25 4.35,2.2 4.2,2.2 c -0.25,0 -0.4,0 -0.45,0 z"
           inkscape:connector-curvature="0"
           style="fill:#3d3d3d" />
        <path
           id="path7"
           d="m -0.35,1.45 -0.25,0 0,0.4 0.8,0.3 c 0,0 -0.9,-0.05 -0.9,0.1 -0.05,0.15 0.1,0.6 0.5,0.65 0.4,0.05 2.65,0.3 3.25,0.45 L 4.8,3.95 4.85,4 4.9,4 C 5,4.05 5.05,4.05 5.05,3.95 L 4.8,3.5 5.1,3.65 5.05,3.3 C 5,3.15 4.9,3 4.75,2.85 L 4.65,2.75 C 4.5,2.65 4.3,2.55 4.1,2.45 3.75,2.25 3,2.05 1.85,1.8 1.55,1.7 1.2,1.6 0.85,1.55 0.3,1.45 -0.7,1.4 -1.7,1.4 l 1.35,0.05 z M -3.85,1.5 C -3.6,1.45 -2.9,1.4 -1.8,1.4 l -1.25,0.05 -0.8,0.05 z"
           inkscape:connector-curvature="0"
           style="fill:#52524e" />
        <path
           id="path8"
           d="m -0.6,1.45 0.25,0 L -1.7,1.4 c -0.2,0.1 -0.4,0.2 -0.4,0.35 -0.05,0.3 0.15,0.3 0.15,0.3 l -0.65,0.4 c 0,0.2 0.25,0.45 0.95,0.45 C -0.3,3 0.8,3.15 1.75,3.3 L 3.1,3.55 C 3.35,3.6 3.6,3.65 3.95,3.75 4.2,3.8 4.4,3.9 4.6,4 l 0.1,0.05 c 0.05,0 0.1,0 0.15,0.05 L 4.9,4.15 C 4.95,4.2 5,4.2 5.05,4.25 L 5.1,3.75 5.1,3.65 4.8,3.5 5.05,3.95 C 5.05,4.05 5,4.05 4.9,4 L 4.85,4 4.8,3.95 3.05,3.35 C 2.45,3.2 0.2,2.95 -0.2,2.9 -0.6,2.85 -0.75,2.4 -0.7,2.25 -0.7,2.1 0.2,2.15 0.2,2.15 l -0.8,-0.3 0,-0.4 z"
           inkscape:connector-curvature="0"
           style="fill:#454541" />
        <path
           id="path9"
           d="m -1.7,1.4 c -0.05,0 -0.05,0 -0.1,0 l -1.25,0.05 c -0.3,0.1 -0.6,0.25 -0.65,0.4 0,0.3 -0.25,0.85 0.5,1 0.4,0.1 1,0.15 1.7,0.2 C -0.2,3.1 0.9,3.15 1.75,3.3 0.8,3.15 -0.3,3 -1.65,2.9 -2.35,2.9 -2.6,2.65 -2.6,2.45 l 0.65,-0.4 c 0,0 -0.2,0 -0.15,-0.3 0,-0.15 0.2,-0.25 0.4,-0.35 z m 6.75,2.9 0,-0.05 C 5,4.2 4.95,4.2 4.9,4.15 L 4.85,4.1 C 4.8,4.05 4.75,4.05 4.7,4.05 L 4.6,4 C 4.4,3.9 4.2,3.8 3.95,3.75 3.6,3.65 3.35,3.6 3.1,3.55 3.25,3.6 3.35,3.6 3.5,3.65 4.2,3.85 4.7,4.1 4.95,4.4 l 0.1,-0.1 z"
           inkscape:connector-curvature="0"
           style="fill:#3d3d3a" />
        <path
           id="path12"
           d="m -1.85,3.05 c 0.15,0 0.35,0 0.35,0 C -2.2,3 -2.8,2.95 -3.2,2.85 -3.95,2.7 -3.7,2.15 -3.7,1.85 -3.65,1.7 -3.35,1.55 -3.05,1.45 L -3.85,1.5 C -4.2,1.65 -4.5,1.75 -4.7,1.85 -4.75,1.9 -4.8,1.9 -4.85,1.95 -5,1.95 -5.05,2 -5.05,2.05 l 0.1,1.45 0.05,0.05 0.15,0.2 c 0.05,0.05 0.1,0 0.15,-0.05 0,0 -0.3,0 -0.1,-0.2 0.25,-0.15 1,-0.55 2.85,-0.45 z"
           inkscape:connector-curvature="0"
           style="fill:#30302e" />
        <path
           id="path16"
           d="m -4.6,3.75 0,-0.05 c -0.05,0.05 -0.1,0.1 -0.15,0.05 0.15,0 0.15,0 0.15,0"
           inkscape:connector-curvature="0"
           style="fill:#52524e" />
        <path
           id="path19"
           d="m 3.95,3.9 c 0,0 0,0 -0.1,0 C 4,3.95 4,3.95 4,3.95 L 3.95,3.9"
           inkscape:connector-curvature="0"
           style="fill:#52524e" />
        <path
           id="path22"
           d="m 3.5,3.65 c 0.1,0.1 0.15,0.1 0.2,0.1 C 4.6,4.1 4.95,4.4 4.95,4.4 4.7,4.1 4.2,3.85 3.5,3.65"
           inkscape:connector-curvature="0"
           style="fill:#30302e" />
      </g>
    </g>
  </g>
</svg>
