<?xml version="1.0" encoding="UTF-8" standalone="no"?>
<!-- Generator: flash2svg, http://dissentgraphics.com/tools/flash2svg -->

<svg
   xmlns:dc="http://purl.org/dc/elements/1.1/"
   xmlns:cc="http://creativecommons.org/ns#"
   xmlns:rdf="http://www.w3.org/1999/02/22-rdf-syntax-ns#"
   xmlns:svg="http://www.w3.org/2000/svg"
   xmlns="http://www.w3.org/2000/svg"
   xmlns:sodipodi="http://sodipodi.sourceforge.net/DTD/sodipodi-0.dtd"
   xmlns:inkscape="http://www.inkscape.org/namespaces/inkscape"
   id="AvatarAssets"
   image-rendering="auto"
   version="1.1"
   x="0px"
   y="0px"
   width="10.888584"
   height="16.200001"
   viewBox="0 0 10.888584 16.200001"
   inkscape:version="0.48.4 r9939"
   sodipodi:docname="AvatarAssets_pantsLegUpperCloseA005.svg">
  <metadata
     id="metadata3502">
    <rdf:RDF>
      <cc:Work
         rdf:about="">
        <dc:format>image/svg+xml</dc:format>
        <dc:type
           rdf:resource="http://purl.org/dc/dcmitype/StillImage" />
      </cc:Work>
    </rdf:RDF>
  </metadata>
  <sodipodi:namedview
     pagecolor="#ffffff"
     bordercolor="#666666"
     borderopacity="1"
     objecttolerance="10"
     gridtolerance="10"
     guidetolerance="10"
     inkscape:pageopacity="0"
     inkscape:pageshadow="2"
     inkscape:window-width="640"
     inkscape:window-height="480"
     id="namedview3500"
     showgrid="false"
     fit-margin-top="0"
     fit-margin-left="0"
     fit-margin-right="0"
     fit-margin-bottom="0"
     inkscape:zoom="1.9032258"
     inkscape:cx="37.649"
     inkscape:cy="-48.699"
     inkscape:window-x="0"
     inkscape:window-y="0"
     inkscape:window-maximized="0"
     inkscape:current-layer="AvatarAssets" />
  <defs
     id="defs3489" />
  <g
     id="pantsLegUpperCloseA6"
     overflow="visible"
     style="overflow:visible"
     transform="translate(5.649,2.899)">
    <g
       id="pantsLegUpperCloseA005_0">
      <g
         id="element">
        <g
           id="drawingObject">
          <path
             id="path"
             d="m 4.001,0.301 c -0.75,-1.3 -2.4,-3.5 -5,-3.15 q -1.05,0.3 -2.1,1.05 -2.1,1.55 -2.15,4.1 c -0.1,4.1 0.15,4.6 0.1,5.45 l -0.5,3.25 0.8,-0.85 1.45,2.15 0.3,0.35 c 0,0 0.2,-1.85 0.45,-2.35 l 0.25,-0.5 0.45,0.9 -0.45,-0.9 c 0,0 0.9,1.6 1.05,2.35 l 0.2,0.75 c 0,0 0.3,-0.6 0.5,-1.25 l 0.3,-1.25 1.1,2.9 1,-2.65 1.6,2 c 0.4,0.4 0.65,0.4 0.65,0.4 0,0 -0.25,-1.3 -0.25,-1.75 l 0,-0.4 0.5,0.45 -0.5,-0.45 c 0,0 0.9,0.75 1.1,1.35 l 0.15,0.55 c 0,0 -0.15,-1.1 0.15,-2.65 0.35,-1.6 -0.4,-8.5 -1.15,-9.85 z"
             inkscape:connector-curvature="0"
             style="fill:#ab4d16" />
        </g>
        <g
           id="drawingObject1">
          <path
             id="path1"
             d="m -5.249,2.301 c -0.1,4.1 0.15,4.6 0.1,5.45 l -0.5,3.25 0.8,-0.85 1.45,2.15 0.3,0.35 c 0,0 0.2,-1.85 0.45,-2.35 l 0.25,-0.5 0.45,0.9 -0.45,-0.9 c 0,0 0.9,1.6 1.05,2.35 l 0.2,0.75 c 0,0 0.3,-0.6 0.5,-1.25 l 0.3,-1.25 1.1,2.9 0.35,-0.95 c -0.9,-0.9 -0.5,-2.65 -0.95,-4.05 q -0.7,-1.75 -1.1,-2.6 -0.65,-1.6 -0.7,-2.7 c -0.05,-0.55 0,-1.1 0.05,-1.6 -0.1,-1.45 0.1,-3.55 1.4,-4.3 -0.25,0 -0.55,0 -0.8,0.05 0,0 -4.15,1.1 -4.25,5.15 z"
             inkscape:connector-curvature="0"
             style="fill:#823a10" />
        </g>
        <g
           id="drawingObject2">
          <path
             id="path2"
             d="m -2.249,-2.349 -0.4,0.25 q -0.25,1 -0.25,1.85 c 0,0.8 0.25,4.15 0.15,7.5 -0.05,1.1 -0.05,2.25 0,3.35 l 0.1,-0.3 0.25,-0.5 0.1,0.2 c -0.05,-1.35 0,-2.6 0.05,-3.2 0.1,-0.9 -0.1,-2.65 -0.25,-6.1 -0.05,-1.3 0.05,-2.3 0.25,-3.05 z"
             inkscape:connector-curvature="0"
             style="fill:#4a220a" />
        </g>
      </g>
    </g>
  </g>
</svg>
