<?xml version="1.0" encoding="UTF-8" standalone="no"?>
<!-- Generator: flash2svg, http://dissentgraphics.com/tools/flash2svg -->

<svg
   xmlns:dc="http://purl.org/dc/elements/1.1/"
   xmlns:cc="http://creativecommons.org/ns#"
   xmlns:rdf="http://www.w3.org/1999/02/22-rdf-syntax-ns#"
   xmlns:svg="http://www.w3.org/2000/svg"
   xmlns="http://www.w3.org/2000/svg"
   xmlns:sodipodi="http://sodipodi.sourceforge.net/DTD/sodipodi-0.dtd"
   xmlns:inkscape="http://www.inkscape.org/namespaces/inkscape"
   id="AvatarAssets"
   image-rendering="auto"
   version="1.1"
   x="0px"
   y="0px"
   width="19.687641"
   height="10.210885"
   viewBox="0 0 19.687641 10.210885"
   inkscape:version="0.48.4 r9939"
   sodipodi:docname="AvatarAssets_shoeCloseA005.svg">
  <metadata
     id="metadata3043">
    <rdf:RDF>
      <cc:Work
         rdf:about="">
        <dc:format>image/svg+xml</dc:format>
        <dc:type
           rdf:resource="http://purl.org/dc/dcmitype/StillImage" />
      </cc:Work>
    </rdf:RDF>
  </metadata>
  <sodipodi:namedview
     pagecolor="#ffffff"
     bordercolor="#666666"
     borderopacity="1"
     objecttolerance="10"
     gridtolerance="10"
     guidetolerance="10"
     inkscape:pageopacity="0"
     inkscape:pageshadow="2"
     inkscape:window-width="640"
     inkscape:window-height="480"
     id="namedview3041"
     showgrid="false"
     fit-margin-top="0"
     fit-margin-left="0"
     fit-margin-right="0"
     fit-margin-bottom="0"
     inkscape:zoom="1.9032258"
     inkscape:cx="37.649392"
     inkscape:cy="-48.697115"
     inkscape:window-x="0"
     inkscape:window-y="0"
     inkscape:window-maximized="0"
     inkscape:current-layer="AvatarAssets" />
  <defs
     id="defs3026" />
  <g
     id="shoeCloseA6"
     overflow="visible"
     style="overflow:visible"
     transform="translate(5.6493924,-3.092)">
    <g
       id="shoeCloseA005_0">
      <g
         id="element">
        <g
           id="group1">
          <g
             id="drawingObject">
            <path
               id="path"
               d="m 11.282,8.633 0.054,0.053 0.27,0.158 -0.27,-0.158 c -0.054,-0.053 0.593,0.211 0.539,0.685 0,0.105 0,0.105 0,0.105 l 0,0.053 c 0,0.316 -0.269,0.579 -0.754,0.842 l -0.216,0.211 c -0.862,0.053 -1.293,0.053 -1.293,0.053 -0.054,-0.053 -0.108,0.052 -0.054,0.316 0.054,0.21 -0.054,0.421 -0.323,0.684 -0.216,0.211 -0.432,0.369 -0.647,0.474 -0.162,0.106 -0.485,0.211 -1.078,0.211 0,0 0,0 -0.108,0 -0.054,0 -0.107,0 -0.377,-0.052 C 6.648,12.215 6.271,12.004 5.947,11.635 l 0,0.053 -0.323,-0.263 C 4.762,11.688 3.953,11.741 3.145,11.583 2.337,11.425 1.582,11.109 0.774,10.529 0.72,10.477 0.666,10.477 0.612,10.424 -0.25,10.213 -2.136,9.581 -2.244,9.529 -3.43,8.949 -4.076,8.159 -4.076,7.527 c 0,-0.052 0,-0.105 0.053,-0.421 C -4.184,6.948 -4.184,6.842 -4.076,6.737 -3.969,6.632 -4.184,6.79 -4.723,7.211 -5.316,7.58 -5.585,7.896 -5.639,8.054 c 0.161,0.369 0.431,0.685 0.754,1.001 0.27,0.316 1.725,0.895 4.258,1.79 2.532,0.843 4.796,1.423 6.79,1.686 0.754,0.053 1.455,0.053 2.102,-0.053 1.293,-0.263 2.479,-0.843 3.718,-1.738 1.886,-1.369 2.371,-2.265 1.401,-2.686 L 13.223,7.843 12.684,8.528 c -0.162,0.053 -0.485,0.053 -0.809,0.053 l -0.593,0.052 z"
               inkscape:connector-curvature="0"
               style="fill:#4d3b16" />
            <path
               id="path1"
               d="m 11.336,8.686 -0.054,0 0.324,0.211 q 0.273,0.222 0.269,0.474 C 11.929,8.897 11.282,8.633 11.336,8.686 z m 2.048,-0.685 0,0.053 c 0.97,0.421 0.485,1.317 -1.401,2.686 -1.239,0.895 -2.425,1.475 -3.718,1.738 -0.108,0.422 -0.108,0.632 0,0.79 1.239,-0.052 2.586,-0.737 4.041,-1.949 1.887,-1.58 2.21,-2.738 1.078,-3.318 z"
               inkscape:connector-curvature="0"
               style="fill:#755a21" />
            <path
               id="path4"
               d="M 8.265,12.478 C 7.618,12.584 6.917,12.584 6.163,12.531 4.169,12.268 1.905,11.688 -0.627,10.845 -3.16,9.95 -4.615,9.371 -4.885,9.055 -5.208,8.739 -5.478,8.423 -5.639,8.054 c -0.054,0.421 0.107,0.948 0.377,1.58 0.269,0.632 1.778,1.369 4.419,2.159 2.641,0.791 4.796,1.265 6.413,1.423 1.617,0.105 2.533,0.105 2.695,0.052 -0.108,-0.158 -0.108,-0.368 0,-0.79 z"
               inkscape:connector-curvature="0"
               style="fill:#69501d" />
          </g>
        </g>
        <g
           id="group2">
          <g
             id="drawingObject1">
            <path
               id="path5"
               d="M 6.835,3.372 5.834,3.092 c 0,0 -2.278,0.013 -4.404,2.511 C 1.166,5.884 0.952,6.168 0.787,6.502 0.711,7.131 0.891,7.673 1.171,8.266 1.977,9.609 3.819,10.357 4.715,9.467 4.978,9.233 5.19,8.998 5.299,8.808 4.77,9.372 4.4,9.747 4.249,9.741 c 0,0 1.077,-1.613 2.604,-3.063 C 8.119,5.412 8.727,5.386 9.044,5.058 9.31,4.727 8.819,4.369 8.819,4.369 L 9.268,4.531 C 9.12,4.429 8.774,4.221 8.428,4.014 7.639,3.499 5.834,3.092 5.834,3.092 M 4.481,4.014 C 5.462,3.516 6.37,3.598 6.37,3.598 c 0,0 -0.253,-0.009 -1.176,0.297 -0.978,0.401 -2.082,1.43 -2.082,1.43 L 3.792,4.766 3.112,5.325 3.386,4.8 3.112,5.325 c 0,0 0.389,-0.861 1.369,-1.311 z m 6.067,1.391 c 0,0 -0.148,-0.103 -0.443,-0.308 0,0 -1.003,-0.231 -2.529,1.219 1.46,-1.064 2.529,-1.219 2.972,-0.911 z"
               inkscape:connector-curvature="0"
               style="fill:#826326" />
            <path
               id="path6"
               d="M 4.481,4.014 C 3.501,4.464 3.112,5.325 3.112,5.325 L 3.386,4.8 3.112,5.325 3.792,4.766 3.112,5.325 c 0,0 1.104,-1.029 2.082,-1.43 C 6.117,3.589 6.37,3.598 6.37,3.598 c 0,0 -0.908,-0.082 -1.889,0.416 z M 9.268,4.531 8.819,4.369 c 0,0 0.491,0.358 0.225,0.689 C 8.727,5.386 8.119,5.412 6.853,6.678 5.326,8.128 4.249,9.741 4.249,9.741 4.4,9.747 4.77,9.372 5.299,8.808 5.832,8.147 6.679,7.206 7.576,6.316 9.102,4.866 10.105,5.097 10.105,5.097 L 9.816,4.746 C 9.767,4.696 9.569,4.591 9.268,4.531 z"
               inkscape:connector-curvature="0"
               style="fill:#bf9137" />
            <path
               id="path9"
               d="M 6.36,3.841 C 5.501,3.809 3.843,4.768 3.308,5.478 3.096,5.713 3.084,6.004 3.177,6.202 L 3.178,6.178 Q 3.733,5.314 5.005,4.811 C 6.805,4.1 7.851,4.528 7.72,5.252 8.292,4.884 8.028,3.902 6.36,3.841 z M 7.576,6.316 C 6.679,7.206 5.832,8.147 5.299,8.808 5.19,8.998 4.978,9.233 4.715,9.467 3.819,10.357 1.977,9.609 1.171,8.266 0.891,7.673 0.711,7.131 0.787,6.502 L 0.789,6.454 c -1.027,1.614 -1.038,3.121 -0.962,3.756 0.04,0.244 0.085,0.392 0.085,0.392 l 1.498,0.492 -1.498,-0.492 c 0,0 2.591,1.019 3.955,1.069 l 1.314,0.049 c 0,0 0.11,-2.718 1.848,-4.404 C 8.717,5.629 10.548,5.405 10.548,5.405 10.105,5.097 9.036,5.252 7.576,6.316 z"
               inkscape:connector-curvature="0"
               style="fill:#664e1e" />
          </g>
        </g>
      </g>
    </g>
  </g>
</svg>
