<?xml version="1.0" encoding="UTF-8" standalone="no"?>
<!-- Generator: flash2svg, http://dissentgraphics.com/tools/flash2svg -->

<svg
   xmlns:dc="http://purl.org/dc/elements/1.1/"
   xmlns:cc="http://creativecommons.org/ns#"
   xmlns:rdf="http://www.w3.org/1999/02/22-rdf-syntax-ns#"
   xmlns:svg="http://www.w3.org/2000/svg"
   xmlns="http://www.w3.org/2000/svg"
   xmlns:sodipodi="http://sodipodi.sourceforge.net/DTD/sodipodi-0.dtd"
   xmlns:inkscape="http://www.inkscape.org/namespaces/inkscape"
   id="AvatarAssets"
   image-rendering="auto"
   version="1.1"
   x="0px"
   y="0px"
   width="12.21388"
   height="20.052361"
   viewBox="0 0 12.21388 20.052361"
   inkscape:version="0.48.4 r9939"
   sodipodi:docname="AvatarAssets_pantsLegUpperCloseA011b.svg">
  <metadata
     id="metadata3710">
    <rdf:RDF>
      <cc:Work
         rdf:about="">
        <dc:format>image/svg+xml</dc:format>
        <dc:type
           rdf:resource="http://purl.org/dc/dcmitype/StillImage" />
      </cc:Work>
    </rdf:RDF>
  </metadata>
  <sodipodi:namedview
     pagecolor="#ffffff"
     bordercolor="#666666"
     borderopacity="1"
     objecttolerance="10"
     gridtolerance="10"
     guidetolerance="10"
     inkscape:pageopacity="0"
     inkscape:pageshadow="2"
     inkscape:window-width="640"
     inkscape:window-height="480"
     id="namedview3708"
     showgrid="false"
     fit-margin-top="0"
     fit-margin-left="0"
     fit-margin-right="0"
     fit-margin-bottom="0"
     inkscape:zoom="1.9032258"
     inkscape:cx="38.349"
     inkscape:cy="-44.599"
     inkscape:window-x="0"
     inkscape:window-y="0"
     inkscape:window-maximized="0"
     inkscape:current-layer="AvatarAssets" />
  <defs
     id="defs3677" />
  <g
     id="pantsLegUpperCloseA011b1"
     overflow="visible"
     style="overflow:visible"
     transform="translate(6.349,2.6513596)">
    <g
       id="pantsLegUpperCloseA011b_0">
      <g
         id="element">
        <g
           id="drawingObject">
          <path
             id="path"
             d="m 1.701,13.951 c 1.85,-0.35 2.5,-0.8 2.7,-1.3 q 0.15,-0.3 0.05,-0.95 l -0.15,-0.6 -6.85,-4.7 -0.65,0.85 0.65,-0.85 c 0,0 -1.25,0.85 -1.55,4.25 -0.35,3.4 0.5,3.1 0.5,3.1 l 0.55,-2 0.25,0.85 c 0.15,0.55 1.2,1.6 1.2,1.6 l 1,0.05 -1,-0.05 c 0,0 1.5,0.15 3.3,-0.25 z"
             inkscape:connector-curvature="0"
             style="fill:#000000;fill-opacity:0.25099996" />
        </g>
        <g
           id="drawingObject1">
          <path
             id="path1"
             d="m -1.499,13.301 c -0.45,0 -1.95,-0.25 -2.5,-0.65 q -0.1,-0.05 -0.1,0.25 0,0.15 0.05,0.3 l 0.75,0.3 -0.75,-0.3 c 0,0 1.2,0.65 2.2,0.45 1,-0.2 0.85,-0.35 0.35,-0.35 z"
             inkscape:connector-curvature="0"
             style="fill:#af6593" />
        </g>
        <g
           id="drawingObject2">
          <path
             id="path2"
             d="m 5.851,12.001 c 0.15,-2.85 -0.95,-8.75 -1.65,-9.95 q -1.05,-1.95 -1.85,-2.9 -1.45,-1.75 -3.15,-1.8 c -2.75,-0.1 -4.25,3 -4.45,5.2 -0.2,1.6 -1,6.55 -1.1,9.55 0.35,0.5 1.3,0.85 2.3,1.1 l 0.85,-4.1 1.05,4.5 0.3,0.05 c 3.55,0.75 6.65,-0.75 7.7,-1.65 z"
             inkscape:connector-curvature="0"
             style="fill:#fe8cd1" />
        </g>
        <g
           id="drawingObject3">
          <path
             id="path3"
             d="m -1.699,3.751 c -0.25,-0.5 -1.35,-2.35 -1.05,-2.85 0.35,-0.5 1.3,-1.65 2.25,-2.2 0.6,-0.35 1.95,0.1 3,0.65 -0.8,-1.1 -1.85,-2 -3.3,-2 -2.75,-0.1 -4.25,3 -4.45,5.2 -0.2,1.6 -1,6.55 -1.1,9.55 0.2,0.25 0.55,0.5 1,0.65 -0.1,-0.5 0.65,0.15 0.9,-0.3 0.3,-0.5 0.9,-2.5 1.15,-2.85 l 0.1,-0.5 1.05,4.5 0.3,0.05 c 2.05,0.45 2.8,0.1 4.25,-0.45 1.65,-0.35 2.8,-1.05 3.45,-1.55 l -0.05,-1.35 q -0.6,1.35 -1.85,1.85 c 0,0 -1.2,0.45 -2.3,0 -1.1,-0.45 -2.5,-1.7 -3.05,-2.25 -0.55,-0.55 -1.4,-1.65 -1.8,-1.95 -0.35,-0.3 -1.05,-0.6 -1.45,-0.85 -0.35,-0.25 0.4,-1.85 0.9,-2.1 0.5,-0.25 2.65,1.15 3.85,1.7 1.25,0.55 1.55,0.5 1.55,0.5 l -1.2,-1 c -1.2,-1 -1.9,-1.95 -2.15,-2.45 z"
             inkscape:connector-curvature="0"
             style="fill:#c371a4" />
        </g>
        <g
           id="drawingObject4">
          <path
             id="path4"
             d="m -2.949,13.751 c 0.15,0 0.15,-0.35 0.15,-0.45 l -0.05,-0.15 c 0,0 0,-0.15 -0.2,-0.25 -0.25,-0.05 -0.5,0.2 -0.55,0.45 0,0.2 0.5,0.45 0.65,0.4 z"
             inkscape:connector-curvature="0"
             style="fill:#af6593" />
        </g>
        <g
           id="drawingObject5">
          <path
             id="path5"
             d="m -2.999,15.901 c 0.1,-0.8 0,-1.25 0.05,-1.6 0.05,-0.35 0.05,-0.95 -0.05,-0.85 l -0.35,1.85 c -0.05,0.85 0,0.85 -0.15,1.2 l -0.35,0.6 0.05,0.15 -0.05,-0.15 c 0,0 0.05,0.3 0.35,0.3 l 0.3,0 0.2,-1.5 z"
             inkscape:connector-curvature="0"
             style="fill:#93567b" />
        </g>
        <g
           id="drawingObject6">
          <path
             id="path6"
             d="m -3.149,13.651 q 0,0.05 -1.1,2.05 l -1.2,0.95 0.05,0.2 -0.05,-0.2 c 0,0 0,0.4 0.2,0.4 l 0.15,0 c 0,0 0.3,-0.4 0.65,-0.65 0.3,-0.25 0.6,-0.65 0.85,-1.3 0.3,-0.7 0.4,-1.3 0.55,-1.4 0.15,-0.05 -0.1,-0.05 -0.1,-0.05 z"
             inkscape:connector-curvature="0"
             style="fill:#93567b" />
        </g>
        <g
           id="drawingObject7">
          <path
             id="path7"
             d="m -3.099,13.301 -0.05,1.2 c -0.05,0.4 0.2,1.5 0.7,1.8 0.55,0.3 1.15,0.25 1.35,0 0.15,-0.25 0.25,-0.75 -0.05,-1.1 l -1,-1.2 c -0.25,-0.3 -0.75,-0.75 -0.75,-0.7 l 0.3,0.6 c 0.2,0.25 0.7,0.8 0.85,1.15 0.2,0.35 0.35,0.6 0.2,0.85 -0.15,0.25 -0.5,0.05 -0.8,-0.2 -0.3,-0.25 -0.55,-1.15 -0.5,-1.7 0,-0.55 -0.05,-0.8 -0.25,-0.7 z"
             inkscape:connector-curvature="0"
             style="fill:#af6593" />
        </g>
        <g
           id="drawingObject8">
          <path
             id="path8"
             d="m -4.799,13.751 c -0.7,0.05 -1.45,0.65 -1.4,0.95 0,0.3 0.55,0.6 1.25,0.7 0.7,0.05 1.1,-0.35 1.4,-0.85 0.35,-0.5 0.4,-1 0.4,-1 l -0.05,0.3 0.05,-0.3 -0.1,-0.1 0.05,-0.1 c 0.05,-0.15 -0.25,-0.05 -0.25,-0.05 l 0.15,-0.05 -0.15,0.05 c -0.05,0 -0.65,0.4 -1.35,0.45 z m 0.35,0.25 1.05,-0.45 -0.2,0.2 q -0.15,0.3 -0.4,0.7 -0.2,0.3 -0.5,0.35 c -0.5,0.1 -0.85,0 -0.95,-0.05 l 0,-0.2 c 0,0 0.5,-0.45 1,-0.55 z"
             inkscape:connector-curvature="0"
             style="fill:#af6593" />
        </g>
        <g
           id="drawingObject9">
          <path
             id="path12"
             d="m -0.949,1.401 2,1.15 c 0,0 -1.4,0.35 -1.8,0 q -0.45,-0.4 0.25,0.8 0.65,1.2 1.1,1.7 c 0.6,0.6 1.75,1.45 2.6,1.75 0.85,0.35 1.75,-0.2 1.75,-0.9 0,-0.7 -0.6,-3 -0.75,-3.45 -0.2,-0.45 -1,-1.9 -1.85,-2.35 -0.85,-0.4 -1.8,-0.3 -2.3,0.1 -0.5,0.35 -1,1.2 -1,1.2 z"
             inkscape:connector-curvature="0"
             style="fill:#fea4da" />
        </g>
        <g
           id="drawingObject10">
          <path
             id="path13"
             d="m -1.049,7.351 -1.25,-1 c 0,0 2.2,1.8 3.4,2.45 1.2,0.7 2.45,0.85 3.25,0.65 0.8,-0.2 0.8,-1.55 0.45,-1.65 q -0.1,0 -1.4,0.05 -1.15,0.1 -2.05,-0.15 c -1.5,-0.4 -2.35,-1 -3,-1.15 l -0.65,-0.2"
             inkscape:connector-curvature="0"
             style="fill:#fea4da" />
        </g>
        <g
           id="drawingObject11">
          <path
             id="path14"
             d="m -0.549,9.751 -0.6,-0.45 1,1.1 -1,-1.1 c 0,0 1.75,2.15 2.9,2.5 1.15,0.3 2.5,-0.05 2.95,-0.4 0.45,-0.35 0.75,-1.6 0.35,-1.4 q -1.35,0.9 -2.5,0.8 c -1.2,-0.15 -2.8,-0.8 -3.1,-1.05 z"
             inkscape:connector-curvature="0"
             style="fill:#fea4da" />
        </g>
        <g
           id="drawingObject12">
          <path
             id="path15"
             d="m -2.749,4.501 c 0.1,-0.9 -0.05,-1.15 -0.05,-1.8 l 0,-1.6 0.1,-0.95 -0.35,1.9 c -0.15,1.15 0,2.6 -0.15,3.15 -0.2,0.6 -0.25,1.35 -0.25,1.35 l 0.85,0.4 q -0.25,-0.9 -0.15,-2.45 z"
             inkscape:connector-curvature="0"
             style="fill:#fe8cd1" />
        </g>
      </g>
    </g>
  </g>
</svg>
