<?xml version="1.0" encoding="UTF-8" standalone="no"?>
<!-- Generator: flash2svg, http://dissentgraphics.com/tools/flash2svg -->

<svg
   xmlns:dc="http://purl.org/dc/elements/1.1/"
   xmlns:cc="http://creativecommons.org/ns#"
   xmlns:rdf="http://www.w3.org/1999/02/22-rdf-syntax-ns#"
   xmlns:svg="http://www.w3.org/2000/svg"
   xmlns="http://www.w3.org/2000/svg"
   xmlns:sodipodi="http://sodipodi.sourceforge.net/DTD/sodipodi-0.dtd"
   xmlns:inkscape="http://www.inkscape.org/namespaces/inkscape"
   id="AvatarAssets"
   image-rendering="auto"
   version="1.1"
   x="0px"
   y="0px"
   width="10.852009"
   height="13.35"
   viewBox="0 0 10.852009 13.35"
   inkscape:version="0.48.4 r9939"
   sodipodi:docname="AvatarAssets_pantsLegLowerCloseA007.svg">
  <metadata
     id="metadata3079">
    <rdf:RDF>
      <cc:Work
         rdf:about="">
        <dc:format>image/svg+xml</dc:format>
        <dc:type
           rdf:resource="http://purl.org/dc/dcmitype/StillImage" />
      </cc:Work>
    </rdf:RDF>
  </metadata>
  <sodipodi:namedview
     pagecolor="#ffffff"
     bordercolor="#666666"
     borderopacity="1"
     objecttolerance="10"
     gridtolerance="10"
     guidetolerance="10"
     inkscape:pageopacity="0"
     inkscape:pageshadow="2"
     inkscape:window-width="640"
     inkscape:window-height="480"
     id="namedview3077"
     showgrid="false"
     fit-margin-top="0"
     fit-margin-left="0"
     fit-margin-right="0"
     fit-margin-bottom="0"
     inkscape:zoom="1.9032258"
     inkscape:cx="37.151009"
     inkscape:cy="-51.949"
     inkscape:window-x="0"
     inkscape:window-y="0"
     inkscape:window-maximized="0"
     inkscape:current-layer="AvatarAssets" />
  <defs
     id="defs3057" />
  <g
     id="pantsLegLowerCloseA8"
     overflow="visible"
     style="overflow:visible"
     transform="translate(5.1510088,3.299)">
    <g
       id="pantsLegLowerCloseA007_0">
      <g
         id="element">
        <g
           id="drawingObject">
          <path
             id="path"
             d="m 4.551,-1.999 c -0.95,-0.55 -1.95,-0.85 -3.05,-1.05 -0.7,-0.15 -1.5,-0.2 -2.3,-0.25 -1.9,0.35 -3.5,1.15 -3.65,2.85 l -0.1,0.7 c 0.1,1.15 0.25,2.25 0.25,2.8 0,1 -0.9,3.7 -0.85,4.5 l 0.1,0.8 0.9,0.85 -0.9,-0.85 c 0,0 1.05,1.7 3.85,1.7 2.8,0 5,-0.8 5.95,-2.15 l 0.95,-1.3 c 0,0 -0.95,-3.85 -0.9,-4.6 l 0.25,-2.25 c -0.1,-0.3 -0.1,-0.65 -0.1,-1 -0.1,-0.3 -0.2,-0.55 -0.4,-0.75 z"
             inkscape:connector-curvature="0"
             style="fill:#80a92d" />
        </g>
        <g
           id="group1">
          <g
             id="drawingObject1">
            <path
               id="path1"
               d="m -0.949,-3.249 -0.85,0.2 c 0.25,3.2 0.6,6.6 0.55,8.05 l -0.4,5 0.45,0.05 c 0.6,0 1.15,-0.05 1.65,-0.1 l -1.4,-13.2 z"
               inkscape:connector-curvature="0"
               style="fill:#b6c837" />
          </g>
          <g
             id="drawingObject2">
            <path
               id="path2"
               d="m -3.199,-2.449 -0.55,0.45 0.25,5.8 c 0,1.1 -0.55,3.6 -0.8,5.35 0.35,0.2 0.75,0.45 1.3,0.65 0,-1.35 0.1,-3.35 0.25,-4.5 0.15,-1.1 -0.2,-4.5 -0.45,-7.75 z"
               inkscape:connector-curvature="0"
               style="fill:#b6c837" />
          </g>
          <g
             id="drawingObject3">
            <path
               id="path3"
               d="m 4.551,-1.999 -0.65,-0.35 0.05,3.6 c 0.05,1.85 0.5,5.15 1.25,6.05 l 0.5,-0.7 c 0,0 -0.95,-3.85 -0.9,-4.6 l 0.25,-2.25 c -0.1,-0.3 -0.1,-0.65 -0.1,-1 -0.1,-0.3 -0.2,-0.55 -0.4,-0.75 z"
               inkscape:connector-curvature="0"
               style="fill:#b6c837" />
          </g>
          <g
             id="drawingObject4">
            <path
               id="path4"
               d="m 2.351,-2.849 -1.05,-0.25 q 0.25,3.75 0.25,4.1 c 0.05,2.9 0.7,4.75 0.9,6.8 0.05,0.65 0.15,1.15 0.25,1.6 0.6,-0.25 1.1,-0.55 1.5,-0.9 -0.4,-1.4 -1.1,-3.65 -1.35,-4.7 -0.25,-1.05 -0.4,-4.05 -0.5,-6.65 z"
               inkscape:connector-curvature="0"
               style="fill:#b6c837" />
          </g>
        </g>
        <g
           id="drawingObject5">
          <path
             id="path5"
             d="m 5.001,3.351 c 0.3,2 -0.5,3.2 -2.4,3.55 -2,0.35 -3.1,0 -3.3,-1.05 -0.25,-1.1 0.15,-2 1.2,-2.7 l 0.15,-0.45 c -1.5,0.75 -2.1,0.6 -1.8,-0.35 0.3,-1 0.9,-1.9 1.75,-2.65 l 0.95,-0.7 -1,-0.15 c -1,-0.1 -1.55,0 -2.05,-2 -1.6,0.4 -2.85,1.2 -2.95,2.7 l -0.1,0.7 c 0.1,1.15 0.25,2.25 0.25,2.8 0,1 -0.9,3.7 -0.85,4.5 l 0.1,0.8 0.9,0.85 -0.9,-0.85 c 0,0 1.05,1.7 3.85,1.7 2.8,0 5,-0.8 5.95,-2.15 l 0.95,-1.3 c 0,0 -0.4,-1.65 -0.7,-3.25 z"
             inkscape:connector-curvature="0"
             style="fill:#000000;fill-opacity:0.08600003" />
        </g>
        <g
           id="drawingObject6">
          <path
             id="path6"
             d="m 4.751,7.901 0.65,-0.95 c -0.9,0.7 -2.45,1.4 -4.15,1.15 q -2.75,-0.35 -3.15,-3.7 c -0.15,-1.65 0.5,-3.9 0.5,-3.9 l -0.3,1.35 0.3,-1.35 c 0,0 -0.55,0.1 -0.9,-0.6 -0.2,-0.3 -0.35,-1.25 -0.45,-2.6 -0.95,0.45 -1.6,1.2 -1.7,2.25 l -0.1,0.7 c 0.1,1.15 0.25,2.25 0.25,2.8 0,1 -0.9,3.7 -0.85,4.5 l 0.1,0.8 0.9,0.85 -0.9,-0.85 c 0,0 1.05,1.7 3.85,1.7 2.8,0 5,-0.8 5.95,-2.15 z"
             inkscape:connector-curvature="0"
             style="fill:#000000;fill-opacity:0.08600003" />
        </g>
      </g>
    </g>
  </g>
</svg>
