<?xml version="1.0" encoding="UTF-8" standalone="no"?>
<!-- Generator: flash2svg, http://dissentgraphics.com/tools/flash2svg -->

<svg
   xmlns:dc="http://purl.org/dc/elements/1.1/"
   xmlns:cc="http://creativecommons.org/ns#"
   xmlns:rdf="http://www.w3.org/1999/02/22-rdf-syntax-ns#"
   xmlns:svg="http://www.w3.org/2000/svg"
   xmlns="http://www.w3.org/2000/svg"
   xmlns:sodipodi="http://sodipodi.sourceforge.net/DTD/sodipodi-0.dtd"
   xmlns:inkscape="http://www.inkscape.org/namespaces/inkscape"
   id="AvatarAssets"
   image-rendering="auto"
   version="1.1"
   x="0px"
   y="0px"
   width="20.649122"
   height="13.962"
   viewBox="0 0 20.649122 13.962"
   inkscape:version="0.48.4 r9939"
   sodipodi:docname="AvatarAssets_shoeCloseA008.svg">
  <metadata
     id="metadata3071">
    <rdf:RDF>
      <cc:Work
         rdf:about="">
        <dc:format>image/svg+xml</dc:format>
        <dc:type
           rdf:resource="http://purl.org/dc/dcmitype/StillImage" />
      </cc:Work>
    </rdf:RDF>
  </metadata>
  <sodipodi:namedview
     pagecolor="#ffffff"
     bordercolor="#666666"
     borderopacity="1"
     objecttolerance="10"
     gridtolerance="10"
     guidetolerance="10"
     inkscape:pageopacity="0"
     inkscape:pageshadow="2"
     inkscape:window-width="640"
     inkscape:window-height="480"
     id="namedview3069"
     showgrid="false"
     fit-margin-top="0"
     fit-margin-left="0"
     fit-margin-right="0"
     fit-margin-bottom="0"
     inkscape:zoom="1.9032258"
     inkscape:cx="37.949"
     inkscape:cy="-48.137"
     inkscape:window-x="0"
     inkscape:window-y="0"
     inkscape:window-maximized="0"
     inkscape:current-layer="AvatarAssets" />
  <defs
     id="defs3046" />
  <g
     id="shoeCloseA9"
     overflow="visible"
     style="overflow:visible"
     transform="translate(5.949,0.099)">
    <g
       id="shoeCloseA008_0">
      <g
         id="element">
        <g
           id="drawingObject">
          <path
             id="path"
             d="m 11.606,13.308 c 0.994,-0.434 1.772,-1.21 2.333,-2.326 L 14.469,9.533 7.188,8.43 C 7.009,8.281 -3.424,8.141 -3.424,8.141 l 0.056,0.809 -0.079,0.709 c 0.263,0.343 0.486,0.542 0.711,0.693 0.179,0.15 1.046,0.47 2.597,1.055 1.551,0.585 3.337,1.084 5.358,1.546 1.976,0.413 3.309,0.704 3.953,0.825 0.597,0.119 1.44,-0.036 2.434,-0.47 z"
             inkscape:connector-curvature="0"
             style="fill:#c2945c" />
        </g>
        <g
           id="drawingObject1">
          <path
             id="path1"
             d="M 10.096,13.863 C 10.179,13.06 10.009,12.721 9.636,12.753 9.217,12.784 8.813,12.482 8.42,11.944 7.983,11.357 7.996,11.073 8.415,11.043 l 0.046,0.001 c 0,0 -1.971,-1.551 -4.037,-3.058 L -3.363,7.812 -3.556,8.99 -3.483,9.42 -3.556,8.99 c 0,0 0.056,0.809 0.595,1.211 0.315,0.202 1.134,0.568 2.409,1.094 1.278,0.479 3.109,1.028 5.497,1.552 2.389,0.524 4.09,0.878 5.151,1.016 z"
             inkscape:connector-curvature="0"
             style="fill:#84643f" />
        </g>
        <g
           id="drawingObject2">
          <path
             id="path2"
             d="m 4.851,2.251 -0.35,1.9 c -0.65,0.4 -1,0.65 -1.15,0.8 -0.15,0.15 -0.4,0.25 -0.8,0.35 -0.35,0.15 -1.2,0.15 -2.5,0 -1.35,-0.15 -2.25,-0.55 -2.8,-1.2 -0.65,-0.6 -0.9,-1.05 -0.8,-1.4 l -0.2,-0.05 c -0.15,-1.3 -0.25,-2 -0.4,-2.05 -0.15,-0.15 -0.4,-0.35 -0.65,-0.7 l -1.15,1 0.5,0.95 c 0.15,0.05 0.55,0.25 1.1,0.55 l 0.2,0.55 -0.25,0.7 c 0.25,0.6 0.25,1.3 0,1.9 -0.25,0.6 -0.15,1.4 0.1,2.4 0.3,0.95 1.15,1.65 2.45,2.05 0.75,0.15 2.1,0.55 3.8,1.05 1.15,0.75 2.6,1.3 4.35,1.7 1.75,0.4 3,0.55 3.75,0.4 0.75,-0.1 1.55,-0.55 2.35,-1.4 0.6,-0.6 1.1,-1.15 1.45,-1.7 0.5,-0.95 0.65,-2.8 0.5,-3.5 q -0.1,-0.5 -0.8,-0.95 -1.05,-0.55 -1.9,-0.9 c -0.75,-0.5 -1.7,-0.75 -2.85,-1.15 l -3.95,-1.3 z m -10.15,-1.15 c -0.1,-0.15 0.2,0 0.9,0.35 l 0.3,0.8 -1.1,-0.8 c 0.05,-0.15 0,-0.25 -0.1,-0.35 z"
             inkscape:connector-curvature="0"
             style="fill:#dfd3b3" />
        </g>
        <g
           id="drawingObject3">
          <path
             id="path6"
             d="m 7.718,4.372 c 0.057,0.158 0.286,0.263 0.629,0.263 0.171,0 0.857,0.158 1.315,0.316 L 9.547,5.004 C 9.376,5.11 7.546,6.954 6.975,7.692 L 6.46,7.534 C 5.888,7.534 5.317,7.481 4.631,7.112 L 3.487,6.48 l -0.228,0 c 0.686,0.579 1.886,1.106 2.515,1.159 l 1.086,0.106 -0.228,0.263 -0.343,0 C 6.06,8.113 5.774,8.219 5.774,8.588 5.717,9.062 5.946,9.431 6.46,9.378 6.86,9.378 7.261,9.009 7.261,8.64 L 7.146,8.272 7.489,7.903 7.832,8.008 C 8.29,8.272 8.29,8.219 8.918,8.166 9.433,8.166 9.49,8.113 9.947,7.85 9.49,7.903 9.033,8.166 8.29,8.008 L 7.546,7.797 C 8.004,7.323 8.861,6.164 9.376,5.742 l 0.743,-0.738 c 0.286,0.158 0.686,0.369 0.858,0.633 0.171,0.158 0.4,0.632 0.343,0.895 -0.058,0.159 -0.229,0.475 -0.515,0.844 0.457,-0.264 0.743,-0.58 0.686,-0.949 -0.114,-0.58 -0.343,-1.317 -1.2,-1.476 l 0.686,-0.237 0,-0.342 C 10.462,4.53 10.062,4.688 9.89,4.846 9.147,4.688 8.461,4.53 7.832,4.214 7.146,3.95 7.032,4.003 6.517,3.423 l -0.171,-0.105 -0.343,0 0.057,0.105 1.658,0.949 z"
             inkscape:connector-curvature="0"
             style="fill:#897558" />
        </g>
        <g
           id="drawingObject4">
          <path
             id="path7"
             d="M 6.306,8.971 C 6.634,9.131 6.853,8.758 7.017,8.066 7.182,7.267 7.784,6.415 8.879,5.403 l 1.97,-1.118 c 0,0 -0.109,-0.267 -0.438,-0.32 C 10.138,3.858 9.7,4.125 8.714,4.657 7.948,4.924 7.236,5.563 6.579,6.521 5.923,7.373 5.649,8.012 5.758,8.332 5.813,8.652 6.032,8.865 6.306,8.971 z"
             inkscape:connector-curvature="0"
             style="fill:#eaddbb" />
        </g>
        <g
           id="drawingObject5">
          <path
             id="path8"
             d="m 14.292,6.796 c -0.057,0.316 -0.343,0.79 -0.8,1.476 C 12.978,8.904 12.177,9.378 11.091,9.747 10.005,10.063 9.204,10.169 8.69,10.011 8.175,9.853 7.889,9.853 7.832,9.905 7.718,9.958 7.546,10.274 7.261,10.854 q -0.115,0.632 -0.115,0.948 c 0.286,1.265 1.201,1.265 2.173,1.423 0.857,0.053 1.658,0.264 2.801,-0.685 1.143,-0.896 2.172,-2.108 2.401,-3.425 0.172,-1.212 0.4,-2.53 -0.286,-2.846 l 0.057,0.527 z"
             inkscape:connector-curvature="0"
             style="fill:#eadcbd" />
        </g>
        <g
           id="drawingObject6">
          <path
             id="path9"
             d="M 13.892,8.43 C 14.464,7.745 14.693,7.218 14.578,6.743 L 14.521,6.48 14.35,6.374 14.407,6.901 C 14.292,7.27 13.892,7.85 13.149,8.588 12.406,9.273 11.777,9.694 11.262,9.8 c -0.514,0.105 -1.257,0.105 -2.115,0 -0.629,0 -1.029,0.053 -1.2,0.105 l -0.286,0.369 c 0.228,-0.105 0.4,-0.211 0.686,-0.105 0.571,0 0.972,0.052 2.058,0.052 0.743,-0.052 1.315,-0.21 1.829,-0.474 0.515,-0.263 1.029,-0.685 1.658,-1.317 z"
             inkscape:connector-curvature="0"
             style="fill:#f6ebd1" />
        </g>
        <g
           id="drawingObject7">
          <path
             id="path10"
             d="M 5.431,4.741 C 5.031,5.162 4.516,5.531 3.945,5.847 3.373,6.111 2.23,6.269 0.514,6.269 -1.258,6.216 -2.287,5.689 -2.687,4.583 l -0.343,-2.425 -0.057,0 0,-0.263 -0.343,-0.896 c -0.172,0.105 -0.286,0.158 -0.286,0.211 -0.229,0.105 -0.057,0.421 0.114,0.737 l 0.172,0.317 0,0.052 -0.172,0.159 0,0.052 c 0,0.158 -0.057,0.211 -0.343,0.211 l -0.057,0.158 0.457,0.633 c 0.172,0.368 0.115,0.632 0.115,0.948 -0.629,1.16 -0.915,2.266 -0.686,3.268 0.114,0.948 0.857,1.739 2.229,2.055 1.315,0.369 2.573,0.896 3.888,1.528 1.315,0.58 2.458,1.001 3.487,1.265 1.029,0.263 2.23,0.474 3.602,0.632 1.372,0.158 3.03,-0.79 5.031,-2.845 l 0.286,-0.949 c 0,-0.422 0,-0.843 0.057,-1.318 0,-0.421 0,-0.737 -0.057,-0.79 l -0.572,1.001 c -0.514,0.791 -1.143,1.37 -1.944,1.739 -0.8,0.369 -1.372,0.58 -1.772,0.633 -0.4,0.052 -0.858,0.052 -1.429,0.052 C 8.118,10.696 7.432,10.538 6.689,10.274 5.831,9.905 5.374,9.589 5.374,9.167 5.26,8.746 5.317,8.324 5.603,8.008 5.831,7.586 6.174,6.901 6.803,5.742 7.432,4.635 8.575,3.95 10.291,3.95 L 6.06,2.527 C 6.117,3.581 5.888,4.319 5.431,4.741 z"
             inkscape:connector-curvature="0"
             style="fill:#000000;fill-opacity:0.2" />
        </g>
        <g
           id="drawingObject8">
          <path
             id="path11"
             d="M 6.003,4.583 C 6.003,4.003 5.888,3.739 5.717,3.739 5.888,4.372 5.66,4.951 5.031,5.426 4.345,6.005 3.716,6.48 3.087,6.743 2.458,7.007 1.429,7.007 -0.114,6.849 -1.658,6.743 -2.573,6.005 -2.801,4.688 -2.63,3.581 -2.744,2.949 -3.087,2.685 l -0.115,0.317 -0.171,0.263 0,0.685 c 0,0.158 -0.057,0.316 -0.172,0.369 l 0,0.264 c -0.686,1.106 -0.857,2.318 -0.686,3.372 0.172,1.002 0.858,1.739 1.83,2.056 1.086,0.263 2.401,0.737 3.944,1.317 1.487,0.58 3.031,1.054 4.688,1.423 1.601,0.369 2.859,0.474 3.774,0.369 0.914,-0.105 1.658,-0.422 2.229,-0.896 -0.629,0.211 -0.972,0.316 -1.143,0.316 q -0.343,0.053 -0.4,-0.527 l 0.114,-0.527 c 0,-0.105 -0.343,-0.158 -0.4,-0.052 -0.114,0.052 -1.029,0.316 -1.372,0.474 -0.343,0 -0.801,0.843 -1.601,0.316 C 6.689,11.75 7.146,10.38 7.146,10.38 L 7.032,11.117 7.146,10.38 6.517,11.486 C 6.289,11.961 5.888,11.961 5.26,11.697 4.574,11.539 4.059,11.117 3.03,10.696 2.63,10.485 2.344,10.327 2.23,10.169 2.172,10.116 2.115,9.958 2.001,9.589 1.829,9.22 1.887,8.746 2.287,8.272 2.687,7.797 3.201,7.428 3.945,7.165 4.688,6.901 5.374,6.058 6.003,4.583 z"
             inkscape:connector-curvature="0"
             style="fill:#000000;fill-opacity:0.2" />
        </g>
      </g>
    </g>
  </g>
</svg>
