<?xml version="1.0" encoding="UTF-8" standalone="no"?>
<!-- Generator: flash2svg, http://dissentgraphics.com/tools/flash2svg -->

<svg
   xmlns:dc="http://purl.org/dc/elements/1.1/"
   xmlns:cc="http://creativecommons.org/ns#"
   xmlns:rdf="http://www.w3.org/1999/02/22-rdf-syntax-ns#"
   xmlns:svg="http://www.w3.org/2000/svg"
   xmlns="http://www.w3.org/2000/svg"
   xmlns:sodipodi="http://sodipodi.sourceforge.net/DTD/sodipodi-0.dtd"
   xmlns:inkscape="http://www.inkscape.org/namespaces/inkscape"
   id="AvatarAssets"
   image-rendering="auto"
   version="1.1"
   x="0px"
   y="0px"
   width="18.968027"
   height="11.403827"
   viewBox="0 0 18.968027 11.403827"
   inkscape:version="0.48.4 r9939"
   sodipodi:docname="AvatarAssets_shoeCloseA012.svg">
  <metadata
     id="metadata3192">
    <rdf:RDF>
      <cc:Work
         rdf:about="">
        <dc:format>image/svg+xml</dc:format>
        <dc:type
           rdf:resource="http://purl.org/dc/dcmitype/StillImage" />
      </cc:Work>
    </rdf:RDF>
  </metadata>
  <sodipodi:namedview
     pagecolor="#ffffff"
     bordercolor="#666666"
     borderopacity="1"
     objecttolerance="10"
     gridtolerance="10"
     guidetolerance="10"
     inkscape:pageopacity="0"
     inkscape:pageshadow="2"
     inkscape:window-width="640"
     inkscape:window-height="480"
     id="namedview3190"
     showgrid="false"
     fit-margin-top="0"
     fit-margin-left="0"
     fit-margin-right="0"
     fit-margin-bottom="0"
     inkscape:zoom="1.9032258"
     inkscape:cx="37.035026"
     inkscape:cy="-48.894174"
     inkscape:window-x="0"
     inkscape:window-y="0"
     inkscape:window-maximized="0"
     inkscape:current-layer="AvatarAssets" />
  <defs
     id="defs3170" />
  <g
     id="shoeCloseA13"
     overflow="visible"
     style="overflow:visible"
     transform="translate(5.0350263,-1.702)">
    <g
       id="shoeCloseA012_0">
      <g
         id="element">
        <g
           id="group1">
          <g
             id="drawingObject">
            <path
               id="path"
               d="M 13.247,7.494 12.88,6.874 0.458,6.672 -4.56,7.98 -4.376,8.798 -4.56,7.98 c 0,0 0.184,1.454 0.674,2.005 0.55,0.483 4.466,1.706 6.486,2.251 1.958,0.547 4.467,1.261 6.18,0.611 1.652,-0.647 3.794,-1.698 4.345,-3.44 C 13.736,7.663 12.88,6.874 12.88,6.874"
               inkscape:connector-curvature="0"
               style="fill:#f5dae4" />
          </g>
          <g
             id="drawingObject1">
            <path
               id="path1"
               d="M 11.117,8.529 12.566,6.556 0.383,6.406 -4.608,7.713 -4.447,8.532 -4.608,7.713 c 0,0 0.161,1.455 0.644,2.006 0.59,0.482 4.508,1.704 6.494,2.25 1.61,0.437 3.434,0.99 4.991,0.856 -0.376,-0.301 0.161,-0.77 0.429,-1.164 0.268,-0.457 5.099,-3.219 5.313,-3.356 l -2.146,0.224 z"
               inkscape:connector-curvature="0"
               style="fill:#000000;fill-opacity:0.08600003" />
          </g>
          <g
             id="drawingObject2">
            <path
               id="path2"
               d="M 13.829,6.479 C 13.777,5.596 13.518,4.973 13.154,4.558 12.739,4.09 11.701,3.571 9.987,2.948 8.326,2.533 6.404,2.117 4.224,1.702 4.379,2.013 4.276,2.481 3.964,3.052 3.601,3.623 2.822,3.986 1.524,4.09 0.226,4.194 -1.176,4.142 -2.578,3.934 L -4.344,3.208 -4.551,3.779 c -0.312,1.194 -0.468,2.077 -0.468,2.7 -0.051,0.623 0.052,1.09 0.208,1.454 0.156,0.311 0.416,0.675 0.831,1.038 q 0.883,0.675 5.296,2.129 c 0.623,0.311 1.869,0.623 3.687,0.986 1.817,0.364 3.167,0.52 4.049,0.364 0.883,-0.104 1.714,-0.571 2.545,-1.35 0.83,-0.779 1.402,-1.506 1.765,-2.233 0.364,-0.779 0.519,-1.558 0.467,-2.388 z"
               inkscape:connector-curvature="0"
               style="fill:#bc4377" />
          </g>
          <g
             id="drawingObject3">
            <path
               id="path3"
               d="M 11.337,3.467 C 10.558,3.934 9.156,4.817 7.235,6.115 5.314,7.413 4.691,9.386 5.47,12.138 c 1.298,0.312 2.388,0.519 3.323,0.468 0.934,-0.104 1.817,-0.52 2.7,-1.247 q 1.35,-1.194 1.869,-2.232 C 13.777,8.296 13.933,7.569 13.933,6.79 13.881,6.011 13.777,5.388 13.57,4.973 13.31,4.454 12.531,3.934 11.337,3.467 z"
               inkscape:connector-curvature="0"
               style="fill:#f5dae4" />
          </g>
          <g
             id="drawingObject4">
            <path
               id="path4"
               d="m -1.133,7.761 c 0.551,-1.169 0.245,-3.19 -1.346,-3.373 q -0.673,-0.033 -1.224,1.009 -0.612,1.045 -0.122,1.85 c 0.673,1.114 2.203,1.618 2.692,0.514 z"
               inkscape:connector-curvature="0"
               style="fill:#f5dae4" />
          </g>
          <g
             id="drawingObject5">
            <path
               id="path5"
               d="M 8.344,2.15 C 7.559,1.925 6.451,2.319 5.066,3.331 3.681,4.287 2.942,5.187 2.849,6.031 2.711,6.875 3.45,6.593 4.973,5.187 L 5.897,4.456 C 6.313,4.175 6.728,3.781 7.236,3.387 7.698,2.994 8.206,2.712 8.714,2.6 9.222,2.487 9.129,2.319 8.344,2.15 z"
               inkscape:connector-curvature="0"
               style="fill:#d7a749" />
          </g>
          <g
             id="drawingObject6">
            <path
               id="path6"
               d="M 5.574,6.167 C 5.781,5.7 6.197,5.077 6.768,4.35 7.028,3.934 7.754,3.363 8.949,2.688 7.754,2.636 6.664,3.104 5.678,4.038 4.639,4.921 3.86,5.7 3.289,6.375 2.822,6.842 2.51,6.998 2.354,6.894 2.199,6.738 2.095,6.531 2.095,6.375 2.043,6.167 2.303,5.804 2.874,5.284 3.445,4.765 4.276,3.831 5.262,2.481 4.224,3.727 3.029,4.506 1.628,4.765 0.122,5.025 -0.865,4.921 -1.436,4.506 -2.682,4.038 -3.513,3.623 -3.98,3.156 l -0.208,0.311 c -0.415,0.779 -0.675,1.558 -0.779,2.233 -0.155,1.661 -0.103,2.544 0.779,3.271 0.831,0.675 4.31,1.765 5.296,2.129 1.039,0.415 5.712,1.609 7.321,1.246 1.61,-0.312 3.947,-2.077 4.881,-3.479 C 13.881,7.725 13.777,6.375 13.57,5.544 12.064,7.725 8.897,8.348 6.664,7.933 Q 5.003,7.673 5.003,7.309 5.366,6.738 5.574,6.167 z"
               inkscape:connector-curvature="0"
               style="fill:#000000;fill-opacity:0.2" />
          </g>
        </g>
      </g>
    </g>
  </g>
</svg>
