<?xml version="1.0" encoding="UTF-8" standalone="no"?>
<!-- Generator: flash2svg, http://dissentgraphics.com/tools/flash2svg -->

<svg
   xmlns:dc="http://purl.org/dc/elements/1.1/"
   xmlns:cc="http://creativecommons.org/ns#"
   xmlns:rdf="http://www.w3.org/1999/02/22-rdf-syntax-ns#"
   xmlns:svg="http://www.w3.org/2000/svg"
   xmlns="http://www.w3.org/2000/svg"
   xmlns:sodipodi="http://sodipodi.sourceforge.net/DTD/sodipodi-0.dtd"
   xmlns:inkscape="http://www.inkscape.org/namespaces/inkscape"
   id="AvatarAssets"
   image-rendering="auto"
   version="1.1"
   x="0px"
   y="0px"
   width="10.457782"
   height="8.6206474"
   viewBox="0 0 10.457782 8.6206474"
   inkscape:version="0.48.4 r9939"
   sodipodi:docname="AvatarAssets_bootUpperCloseC010.svg">
  <metadata
     id="metadata3008">
    <rdf:RDF>
      <cc:Work
         rdf:about="">
        <dc:format>image/svg+xml</dc:format>
        <dc:type
           rdf:resource="http://purl.org/dc/dcmitype/StillImage" />
      </cc:Work>
    </rdf:RDF>
  </metadata>
  <sodipodi:namedview
     pagecolor="#ffffff"
     bordercolor="#666666"
     borderopacity="1"
     objecttolerance="10"
     gridtolerance="10"
     guidetolerance="10"
     inkscape:pageopacity="0"
     inkscape:pageshadow="2"
     inkscape:window-width="640"
     inkscape:window-height="480"
     id="namedview3006"
     showgrid="false"
     fit-margin-top="0"
     fit-margin-left="0"
     fit-margin-right="0"
     fit-margin-bottom="0"
     inkscape:zoom="1.9032258"
     inkscape:cx="36.904831"
     inkscape:cy="-56.279352"
     inkscape:window-x="0"
     inkscape:window-y="0"
     inkscape:window-maximized="0"
     inkscape:current-layer="AvatarAssets" />
  <defs
     id="defs2995" />
  <g
     id="bootUpperCloseC11"
     overflow="visible"
     style="overflow:visible"
     transform="translate(4.9048313,2.9)">
    <g
       id="bootUpperCloseC010_0">
      <g
         id="element">
        <g
           id="drawingObject">
          <path
             id="path"
             d="M 4.85,0.35 C 5,-0.1 5.6,-1.25 5.55,-1.85 Q 5.5,-2.2 5.2,-2.35 L 4.85,-2.4 c 0,0 -1.65,0.95 -4.55,0.65 C -2.6,-2 -3.9,-2.9 -3.9,-2.9 l 1,0.5 -1,-0.5 -0.5,0.15 0.5,-0.15 c 0,0 -0.95,0.1 -1,0.85 -0.05,0.4 0.3,2.05 0.5,3.35 l 0.25,2.5 C -3.9,4.45 -2.9,5 -1.1,5.45 1.25,6.1 3.05,5.4 4.35,3.25 c 0,0 0.15,-1.8 0.5,-2.9 z"
             inkscape:connector-curvature="0"
             style="fill:#333636" />
        </g>
        <g
           id="drawingObject1">
          <path
             id="path1"
             d="m 2.7,-1 c -0.85,0.1 -3.1,-0.1 -3.55,-0.35 -0.4,-0.25 0.4,-0.3 1.15,-0.4 C -2.6,-2 -3.9,-2.9 -3.9,-2.9 l 1,0.5 -1,-0.5 -0.5,0.15 0.5,-0.15 c 0,0 -0.95,0.1 -1,0.85 -0.05,0.4 0.3,2.05 0.5,3.35 l 0.25,2.5 c 0.2,0.45 0.8,0.9 1.85,1.3 1.55,0.65 2.9,0.8 4.1,0.4 l 0,-0.1 C 1.9,4.75 3.25,4.2 3.8,4 L 3.85,3.95 3.35,4.1 C 2.9,4.25 1.75,4.6 0.95,4.1 0.15,3.6 0.7,1.75 1.15,0.85 1.65,0 3.6,-1.05 3.6,-1.05 L 2.55,-0.4 3.6,-1.05 2.7,-1 z"
             inkscape:connector-curvature="0"
             style="fill:#2c2e2e" />
        </g>
        <g
           id="drawingObject2">
          <path
             id="path2"
             d="m -3.35,-2.6 -0.55,-0.3 -0.5,0.15 0.5,-0.15 c 0,0 -0.95,0.1 -1,0.85 -0.05,0.4 0.3,2.05 0.5,3.35 l 0.25,2.4 c 0.05,0.4 0.5,0.8 1.35,1.25 0.85,0.45 1.85,0.7 2.95,0.75 C 0.5,5.3 1.2,5 1.2,5 L 0.8,5.2 1.2,5 Q 0.989,5.1 0.25,5.1 c -0.75,0 -1.65,-0.4 -2,-1.25 -0.3,-0.9 -0.35,-3.5 -0.15,-4.15 0.15,-0.6 1.8,-0.45 1.8,-0.45 0,0 -1.2,-0.25 -1.75,-0.45 C -2.4,-1.4 -2.75,-1.5 -2.4,-1.8 -2.3,-1.9 -2,-2 -1.6,-2.05 -3.2,-2.4 -3.9,-2.9 -3.9,-2.9"
             inkscape:connector-curvature="0"
             style="fill:#242626" />
        </g>
      </g>
    </g>
  </g>
</svg>
