<?xml version="1.0" encoding="UTF-8" standalone="no"?>
<!-- Generator: flash2svg, http://dissentgraphics.com/tools/flash2svg -->

<svg
   xmlns:dc="http://purl.org/dc/elements/1.1/"
   xmlns:cc="http://creativecommons.org/ns#"
   xmlns:rdf="http://www.w3.org/1999/02/22-rdf-syntax-ns#"
   xmlns:svg="http://www.w3.org/2000/svg"
   xmlns="http://www.w3.org/2000/svg"
   xmlns:sodipodi="http://sodipodi.sourceforge.net/DTD/sodipodi-0.dtd"
   xmlns:inkscape="http://www.inkscape.org/namespaces/inkscape"
   id="AvatarAssets"
   image-rendering="auto"
   version="1.1"
   x="0px"
   y="0px"
   width="9.6299038"
   height="10"
   viewBox="0 0 9.6299038 10"
   inkscape:version="0.48.4 r9939"
   sodipodi:docname="AvatarAssets_pantsLegUpperClose20101122Color_1.svg">
  <metadata
     id="metadata3391">
    <rdf:RDF>
      <cc:Work
         rdf:about="">
        <dc:format>image/svg+xml</dc:format>
        <dc:type
           rdf:resource="http://purl.org/dc/dcmitype/StillImage" />
      </cc:Work>
    </rdf:RDF>
  </metadata>
  <sodipodi:namedview
     pagecolor="#ffffff"
     bordercolor="#666666"
     borderopacity="1"
     objecttolerance="10"
     gridtolerance="10"
     guidetolerance="10"
     inkscape:pageopacity="0"
     inkscape:pageshadow="2"
     inkscape:window-width="640"
     inkscape:window-height="480"
     id="namedview3389"
     showgrid="false"
     fit-margin-top="0"
     fit-margin-left="0"
     fit-margin-right="0"
     fit-margin-bottom="0"
     inkscape:zoom="1.9032258"
     inkscape:cx="36.75"
     inkscape:cy="-56.95"
     inkscape:window-x="0"
     inkscape:window-y="0"
     inkscape:window-maximized="0"
     inkscape:current-layer="AvatarAssets" />
  <defs
     id="defs3383" />
  <g
     id="pantsLegUpperClose20101122Color_2"
     overflow="visible"
     style="overflow:visible"
     transform="translate(4.75,4.95)">
    <g
       id="pantsLegUpperClose20101122Color_1_0">
      <g
         id="element">
        <path
           id="path"
           d="M 3.7,-4.25 C 3.65,-4.3 3.6,-4.3 3.55,-4.3 3.3,-4.35 2.4,-4.55 1.1,-4.7 0.15,-4.8 -1.1,-4.95 -2.2,-4.95 l -0.05,0 c -0.05,0 -0.05,0 -0.1,0 -1.65,0.2 -2.25,0.35 -2.4,0.5 l 0,0.05 c 0.05,0.25 0.05,0.55 0.1,0.85 0,0.15 0,0.25 0,0.4 q 0.05,0.65 0.1,1.4 l 0.05,0.4 c 0,0.15 0,0.25 0,0.4 0,0.05 0,0.1 0,0.15 l 0,0.15 c 0,0.05 0,0.05 0,0.1 0,0.25 0,0.5 0.05,0.75 0,0.05 0,0.1 0.05,0.15 0,0.05 0,0.15 0,0.2 l 0.25,1.25 c 0.05,0.15 0.15,0.3 0.2,0.45 0.05,0.15 0.15,0.35 0.25,0.5 0.25,0.4 0.5,0.75 0.85,1.05 l 0.15,0.15 c 0.65,0.55 1.4,0.85 2.35,1 L 0.8,5.05 C 1.85,5 2.7,4.7 3.25,4.15 3.5,3.9 3.7,3.6 3.9,3.25 4,3.05 4.1,2.8 4.2,2.55 4.4,1.9 4.55,1.15 4.7,0.2 4.75,0.05 4.75,-0.05 4.75,-0.2 4.9,-1.35 4.9,-2.45 4.85,-3.55 4.8,-3.6 4.8,-3.7 4.8,-3.75 L 4.7,-3.7 4.65,-3.75 C 4.5,-3.85 4.4,-3.95 4.25,-4.05 4.2,-4.05 4.2,-4.05 4.15,-4.1 4.1,-4.15 4,-4.15 3.95,-4.2 c -0.05,0 -0.05,0 -0.1,0 C 3.8,-4.25 3.75,-4.25 3.7,-4.25 z"
           inkscape:connector-curvature="0"
           style="fill:#edede4" />
      </g>
    </g>
  </g>
</svg>
