<?xml version="1.0" encoding="UTF-8" standalone="no"?>
<!-- Generator: flash2svg, http://dissentgraphics.com/tools/flash2svg -->

<svg
   xmlns:dc="http://purl.org/dc/elements/1.1/"
   xmlns:cc="http://creativecommons.org/ns#"
   xmlns:rdf="http://www.w3.org/1999/02/22-rdf-syntax-ns#"
   xmlns:svg="http://www.w3.org/2000/svg"
   xmlns="http://www.w3.org/2000/svg"
   xmlns:xlink="http://www.w3.org/1999/xlink"
   xmlns:sodipodi="http://sodipodi.sourceforge.net/DTD/sodipodi-0.dtd"
   xmlns:inkscape="http://www.inkscape.org/namespaces/inkscape"
   id="AvatarAssets"
   image-rendering="auto"
   version="1.1"
   x="0px"
   y="0px"
   width="9.8563232"
   height="17.457066"
   viewBox="0 0 9.8563232 17.457066"
   inkscape:version="0.48.4 r9939"
   sodipodi:docname="AvatarAssets_pantsLegUpperCloseA004.svg">
  <metadata
     id="metadata3486">
    <rdf:RDF>
      <cc:Work
         rdf:about="">
        <dc:format>image/svg+xml</dc:format>
        <dc:type
           rdf:resource="http://purl.org/dc/dcmitype/StillImage" />
      </cc:Work>
    </rdf:RDF>
  </metadata>
  <sodipodi:namedview
     pagecolor="#ffffff"
     bordercolor="#666666"
     borderopacity="1"
     objecttolerance="10"
     gridtolerance="10"
     guidetolerance="10"
     inkscape:pageopacity="0"
     inkscape:pageshadow="2"
     inkscape:window-width="640"
     inkscape:window-height="480"
     id="namedview3484"
     showgrid="false"
     fit-margin-top="0"
     fit-margin-left="0"
     fit-margin-right="0"
     fit-margin-bottom="0"
     inkscape:zoom="1.9032258"
     inkscape:cx="36.939667"
     inkscape:cy="-47.249657"
     inkscape:window-x="0"
     inkscape:window-y="0"
     inkscape:window-maximized="0"
     inkscape:current-layer="AvatarAssets" />
  <defs
     id="defs3464">
    <pattern
       id="bitmap"
       patternContentUnits="userSpaceOnUse"
       patternUnits="userSpaceOnUse"
       width="200"
       height="200"
       viewBox="0 0 200 200"
       patternTransform="matrix(1 0 0 1 -87.249 -2.899)">
      <symbol
         id="Denim_Texture_navy_symbol"
         viewBox="0 0 200 200">
        <image
           sodipodi:absref="C:\Users\Training\Documents\GitHub\Glitchen-Avatar-Engine\glitch-avatars-svg\base_avatar\AvatarAssets.fla\clothing\side\Denim_Texture_navy"
           xlink:href="Denim_Texture_navy"
           height="200"
           width="200"
           id="Denim_Texture_navy" />
      </symbol>
      <use
         id="Denim_Texture_navy_use"
         width="200"
         height="200"
         y="0"
         x="0"
         xlink:href="#Denim_Texture_navy_symbol"
         externalResourcesRequired="true" />
    </pattern>
    <pattern
       id="bitmap1"
       patternContentUnits="userSpaceOnUse"
       patternUnits="userSpaceOnUse"
       width="200"
       height="200"
       viewBox="0 0 200 200"
       patternTransform="matrix(0.975250244140625 0 0 1.0264739990234375 -97.449 -96.549)">
      <symbol
         id="symbol3471"
         viewBox="0 0 200 200">
        <image
           sodipodi:absref="C:\Users\Training\Documents\GitHub\Glitchen-Avatar-Engine\glitch-avatars-svg\base_avatar\AvatarAssets.fla\clothing\side\Denim_Texture_navy"
           xlink:href="Denim_Texture_navy"
           height="200"
           width="200"
           id="image3473" />
      </symbol>
      <use
         id="use3475"
         width="200"
         height="200"
         y="0"
         x="0"
         xlink:href="#Denim_Texture_navy_symbol"
         externalResourcesRequired="true" />
    </pattern>
  </defs>
  <g
     id="pantsLegUpperCloseA5"
     overflow="visible"
     style="overflow:visible"
     transform="translate(4.9396667,2.7067226)">
    <g
       id="pantsLegUpperCloseA004_0">
      <g
         id="element">
        <g
           id="drawingObject">
          <path
             id="path"
             d="M 4.764,5.508 C 4.52,3.404 3.545,-2.395 -0.941,-2.703 q -1.268,-0.052 -2.389,1.18 -1.122,1.18 -1.415,2.669 c -0.438,1.95 0,5.03 0,6.313 0,1.283 0,3.746 0.829,5.132 1.366,2.104 6.34,3.079 7.802,1.027 1.171,-1.643 1.122,-6.057 0.878,-8.11 z"
             inkscape:connector-curvature="0"
             style="fill:url(#bitmap1)" />
        </g>
        <g
           id="drawingObject1">
          <path
             id="path1"
             d="m -0.941,-2.703 c -1.755,-0.103 -3.413,1.95 -3.804,3.849 -0.438,1.95 0,5.03 0,6.313 0,1.283 0,3.746 0.829,5.132 1.366,2.104 6.34,3.079 7.802,1.027 Q 4.667,12.54 4.862,9.717 5.008,7.51 4.764,5.508 L 4.715,5.2 l 0,0.052 C 4.618,6.945 4.423,7.356 4.277,7.356 L 4.52,7.613 C 4.667,7.869 5.057,8.742 3.886,10.949 2.716,13.207 -0.453,9.358 -1.039,7.921 -1.575,6.484 -1.575,4.79 -1.575,2.172 c 0.049,-1.95 0.244,-3.592 0.829,-4.824 l -0.195,-0.051 z"
             inkscape:connector-curvature="0"
             style="fill:#000000;fill-opacity:0.25099996" />
        </g>
      </g>
    </g>
  </g>
</svg>
