<?xml version="1.0" encoding="UTF-8" standalone="no"?>
<!-- Generator: flash2svg, http://dissentgraphics.com/tools/flash2svg -->

<svg
   xmlns:dc="http://purl.org/dc/elements/1.1/"
   xmlns:cc="http://creativecommons.org/ns#"
   xmlns:rdf="http://www.w3.org/1999/02/22-rdf-syntax-ns#"
   xmlns:svg="http://www.w3.org/2000/svg"
   xmlns="http://www.w3.org/2000/svg"
   xmlns:sodipodi="http://sodipodi.sourceforge.net/DTD/sodipodi-0.dtd"
   xmlns:inkscape="http://www.inkscape.org/namespaces/inkscape"
   id="AvatarAssets"
   image-rendering="auto"
   version="1.1"
   x="0px"
   y="0px"
   width="21.352751"
   height="13.896128"
   viewBox="0 0 21.352751 13.896128"
   inkscape:version="0.48.4 r9939"
   sodipodi:docname="AvatarAssets_shoeCloseA009.svg">
  <metadata
     id="metadata3100">
    <rdf:RDF>
      <cc:Work
         rdf:about="">
        <dc:format>image/svg+xml</dc:format>
        <dc:type
           rdf:resource="http://purl.org/dc/dcmitype/StillImage" />
      </cc:Work>
    </rdf:RDF>
  </metadata>
  <sodipodi:namedview
     pagecolor="#ffffff"
     bordercolor="#666666"
     borderopacity="1"
     objecttolerance="10"
     gridtolerance="10"
     guidetolerance="10"
     inkscape:pageopacity="0"
     inkscape:pageshadow="2"
     inkscape:window-width="640"
     inkscape:window-height="480"
     id="namedview3098"
     showgrid="false"
     fit-margin-top="0"
     fit-margin-left="0"
     fit-margin-right="0"
     fit-margin-bottom="0"
     inkscape:zoom="1.9032258"
     inkscape:cx="38.299"
     inkscape:cy="-48.202873"
     inkscape:window-x="0"
     inkscape:window-y="0"
     inkscape:window-maximized="0"
     inkscape:current-layer="AvatarAssets" />
  <defs
     id="defs3074" />
  <g
     id="shoeCloseA10"
     overflow="visible"
     style="overflow:visible"
     transform="translate(6.299,0.099)">
    <g
       id="shoeCloseA009_0">
      <g
         id="element">
        <g
           id="group1">
          <g
             id="drawingObject">
            <path
               id="path"
               d="m 10.495,13.352 c 1.448,-0.81 2.356,-1.941 2.929,-3.119 L 13.918,8.49 5.965,7.465 C 5.762,7.336 -5.695,7.547 -5.695,7.547 l -0.234,1.44 0.144,0.489 -0.144,-0.489 c 0,0 0.087,0.92 0.697,1.377 0.61,0.457 2.687,0.957 4.228,1.35 1.477,0.469 4.422,1.052 6.165,1.503 1.741,0.38 3.888,1.017 5.334,0.135 z"
               inkscape:connector-curvature="0"
               style="fill:#c6baa0" />
          </g>
          <g
             id="drawingObject1">
            <path
               id="path1"
               d="m 3.209,13.108 c 2.716,0.619 5.13,0.743 7.303,0.372 C 9.305,13.17 8.46,13.046 7.977,12.985 q -0.724,0 -1.086,-1.115 -0.242,-0.928 0.482,-0.99 l 0.061,0 c 0,0 -2.173,-1.795 -4.466,-3.528 l -8.571,0.123 -0.181,1.424 0.121,0.495 c 0.06,0.434 0.181,0.743 0.362,0.929 0.181,0.186 0.966,0.495 2.354,1.052 1.388,0.557 3.44,1.114 6.156,1.733 z"
               inkscape:connector-curvature="0"
               style="fill:#8e8572" />
          </g>
          <g
             id="drawingObject2">
            <path
               id="path2"
               d="m 14.701,8.001 c -0.05,-0.8 -0.05,-1.45 -0.1,-1.95 -0.15,-0.5 -0.45,-0.85 -1,-1.1 -0.75,-0.45 -1.45,-0.9 -2.1,-1.25 -0.8,-0.3 -1.9,-0.65 -3.2,-0.9 l -3.85,-1 c 0.15,0.95 -0.05,1.75 -0.55,2.4 -0.25,0.3 -0.55,0.6 -1,0.85 -0.5,0.25 -1.05,0.45 -1.55,0.5 -0.6,0.05 -1.55,0 -2.9,-0.15 -1.35,-0.15 -2.1,-0.8 -2.15,-2.05 -0.05,-1.25 -0.15,-2.05 -0.25,-2.35 l -0.025,-0.025 -1.525,-1.025 -0.35,0.1 -0.45,0.55 0.25,0.7 c 0.05,0.3 0.3,0.5 0.6,0.65 l -0.45,0.5 0.45,0.75 c 0.3,0.45 0.3,0.65 0.25,1.05 -0.4,0.9 -1.05,2.55 -0.5,4.7 0.4,1.6 3.8,1.8 6.65,2.85 1.3,0.6 2.85,0.95 4.6,1.2 1.8,0.2 3.05,0.35 3.75,0.4 0.7,0.05 1.55,-0.3 2.6,-1.15 1,-0.75 1.75,-1.5 2.2,-2.15 0.4,-0.65 0.6,-1.35 0.6,-2.1 z m -20.45,-7 0.45,0.7 0,0.05 -0.15,0.15 c -0.35,-0.55 -0.3,-0.9 -0.3,-0.9 z"
               inkscape:connector-curvature="0"
               style="fill:#3b862b" />
          </g>
          <g
             id="drawingObject3">
            <path
               id="path6"
               d="M 3.57,5.436 2.744,5.492 C 4.12,6.339 5.221,6.791 5.991,6.847 l 1.211,0.339 -0.165,0.169 -0.44,0 C 6.432,7.412 5.991,7.581 5.991,8.033 5.991,8.484 6.157,8.936 6.707,8.88 7.147,8.936 7.643,8.484 7.643,8.033 L 7.478,7.807 7.918,7.355 8.303,7.468 c 0.441,0.17 0.441,0.17 1.156,0.283 0.606,0 0.661,-0.113 1.321,-0.396 0.055,-0.056 -0.055,0 -0.22,0 q -0.44,0.113 -0.771,0.17 -0.605,0 -1.045,-0.113 L 7.973,7.242 C 8.468,6.621 9.459,5.38 10.065,4.871 l 0.77,-0.62 c 0.33,0.112 0.716,0.282 0.936,0.508 0.11,0.282 0.33,0.903 0.275,1.242 C 11.991,6.226 11.606,6.678 11.11,7.186 11.826,6.678 12.321,6.339 12.266,5.831 12.211,5.097 11.991,4.307 11,4.081 l 0.551,-0.056 c 0,-0.113 0.22,-0.113 -0.166,-0.283 C 11,3.686 10.78,3.799 10.56,3.968 9.954,3.799 9.404,3.573 8.909,3.291 8.413,3.009 7.478,2.783 6.047,2.726 l -1.487,0 3.523,0.621 c 0.165,0.113 0.44,0.283 0.771,0.226 0.165,0 0.99,0.226 1.486,0.508 l -0.11,0 C 9.954,4.251 7.973,6.226 7.257,6.96 L 6.707,6.847 C 6.102,6.791 5.496,6.678 4.836,6.226 L 3.57,5.436 z"
               inkscape:connector-curvature="0"
               style="fill:#235019" />
          </g>
          <g
             id="drawingObject4">
            <path
               id="path7"
               d="M 9.129,5.041 C 10.23,4.081 11,3.63 11.441,3.686 10.945,3.404 10.56,3.234 10.175,3.291 9.789,3.291 9.239,3.573 8.523,4.081 7.808,4.589 7.202,5.267 6.652,6.17 6.047,7.073 5.826,7.694 5.936,8.089 5.991,8.428 6.707,8.597 6.872,8.202 Q 7.808,6.226 9.129,5.041 z"
               inkscape:connector-curvature="0"
               style="fill:#eaddbb" />
          </g>
          <g
             id="drawingObject5">
            <path
               id="path8"
               d="m 14.193,5.185 0.061,0.681 C 14.133,6.361 13.59,7.104 12.685,8.032 11.779,8.961 10.995,9.456 10.331,9.518 9.667,9.58 9.063,9.58 8.46,9.58 7.796,9.518 7.434,9.58 7.313,9.642 q -0.241,0.248 -0.664,1.3 c -0.181,0.495 -0.181,0.866 -0.121,1.238 0.242,1.362 1.268,1.3 2.354,1.424 0.664,0.123 1.207,0.123 1.63,0.061 0.362,-0.123 1.147,-0.68 2.354,-1.671 1.146,-1.052 1.871,-2.043 2.052,-3.095 0.181,-1.052 0.181,-1.919 0,-2.538 -0.181,-0.619 -0.423,-0.99 -0.725,-1.176 z"
               inkscape:connector-curvature="0"
               style="fill:#eadcbd" />
          </g>
          <g
             id="drawingObject6">
            <path
               id="path9"
               d="M 14.435,5.742 14.375,5.433 14.193,5.247 14.254,5.928 14.193,5.247 c 0,0 0.302,0.928 -0.603,2.166 -0.966,1.3 -2.052,2.105 -3.259,2.229 C 9.184,9.704 7.675,9.394 7.313,9.704 l -0.362,0.495 c 0.181,-0.186 0.422,-0.309 0.785,-0.186 0.663,0 1.026,0.062 2.233,-0.062 1.146,-0.061 2.112,-0.061 3.017,-1.3 q 1.69,-2.042 1.449,-2.909 z"
               inkscape:connector-curvature="0"
               style="fill:#f6ebd1" />
          </g>
          <g
             id="drawingObject7">
            <path
               id="path10"
               d="m 14.601,8.901 c 0.35,-0.65 0.35,-2.1 0.25,-2.2 l -0.7,1.2 0.7,-1.2 c -0.1,-0.15 -0.8,2.1 -2.55,3.25 -1.35,1.15 -3.45,0.95 -4.45,0.6 -0.85,-0.55 -0.85,-0.5 -1.95,-0.6 -1.2,-0.4 -1.75,-0.8 -1.6,-1.4 0,-0.55 0.35,-1.55 0.95,-2.7 0.7,-1.15 1.25,-2 1.8,-2.35 0.55,-0.35 1.45,-0.5 2.75,-0.45 l -4.65,-0.9 c -0.6,1.1 -1.15,1.9 -1.6,2.35 -0.55,0.35 -0.85,0.7 -1.15,1 -0.25,0.15 -1.25,0.2 -2.9,0.1 -1.75,0 -2.7,-0.9 -2.85,-2.5 0,-0.9 -0.15,-1.55 -0.5,-2.05 l -0.65,0.2 0,-0.25 -0.45,-1.1 c -0.25,0.15 -0.3,0.35 -0.3,0.35 -0.15,0.15 0,0.4 0.1,0.85 l 0.3,0.25 0,0.15 -0.15,0.1 -0.15,-0.3 0.15,0.35 c 0,0.35 -0.15,0.45 -0.3,0.45 l -0.15,0.05 0.4,0.8 c 0.35,0.35 0.35,0.7 0.3,1.05 -1.15,1.4 -1.5,2.75 -1.15,4 0.35,1.25 0.9,2 1.75,2.25 0.85,0.25 2.7,0.7 5.5,1.25 1.3,0.5 2.7,1 4.25,1.55 1.55,0.45 2.95,0.6 4.3,0.45 1.25,-0.15 2.75,-1.35 4.4,-3.6 l 0.3,-1 z"
               inkscape:connector-curvature="0"
               style="fill:#000000;fill-opacity:0.08600003" />
          </g>
          <g
             id="drawingObject8">
            <path
               id="path11"
               d="m -3.949,4.451 c -0.4,-1.35 -0.55,-2.3 -0.5,-2.95 l -1.15,0.7 0.95,1.05 c 0,0.2 -0.05,0.4 -0.1,0.45 l 0,0.3 c -0.75,1.35 -1.1,2.65 -1.05,3.9 0.05,1.25 0.65,2.05 1.75,2.3 1.05,0.3 2.45,0.75 4.25,1.35 2.05,0.45 3.85,0.95 5.35,1.5 1.5,0.45 2.8,0.6 3.95,0.45 1.05,-0.1 2,-0.45 2.75,-1.05 -0.25,0.1 -0.6,0.3 -0.8,0.3 q -0.45,0.1 -0.55,-0.5 0.1,-0.55 0.1,-0.65 c 0,-0.1 -0.2,-0.2 -0.45,-0.05 -0.05,0.15 -1.05,0.45 -1.4,0.55 -0.45,0.05 -0.9,1.2 -1.85,0.55 -0.75,-0.6 -0.25,-2.15 -0.25,-2.15 l -0.2,0.8 0.2,-0.8 -0.65,1.25 c -0.3,0.5 -0.65,0.5 -1.45,0.4 -0.7,-0.2 -1.25,-0.75 -2.25,-1.2 -1.15,-0.45 -1.15,-0.55 -1.3,-1.35 -0.05,-0.2 -0.15,-0.6 0,-1.25 0,-0.5 0.75,-1.1 2.1,-1.9 0.85,-0.7 1.45,-1.35 1.65,-2.15 0.25,-0.8 0.2,-1.5 -0.15,-2.4 0.1,1.2 -0.05,2.05 -0.4,2.5 -0.35,0.45 -0.95,0.9 -1.7,1.35 -0.8,0.45 -2.05,0.65 -3.7,0.65 -1.7,0 -2.75,-0.65 -3.15,-1.95 z"
               inkscape:connector-curvature="0"
               style="fill:#000000;fill-opacity:0.2" />
          </g>
        </g>
      </g>
    </g>
  </g>
</svg>
