<?xml version="1.0" encoding="UTF-8" standalone="no"?>
<!-- Generator: flash2svg, http://dissentgraphics.com/tools/flash2svg -->

<svg
   xmlns:dc="http://purl.org/dc/elements/1.1/"
   xmlns:cc="http://creativecommons.org/ns#"
   xmlns:rdf="http://www.w3.org/1999/02/22-rdf-syntax-ns#"
   xmlns:svg="http://www.w3.org/2000/svg"
   xmlns="http://www.w3.org/2000/svg"
   xmlns:sodipodi="http://sodipodi.sourceforge.net/DTD/sodipodi-0.dtd"
   xmlns:inkscape="http://www.inkscape.org/namespaces/inkscape"
   id="AvatarAssets"
   image-rendering="auto"
   version="1.1"
   x="0px"
   y="0px"
   width="10.277615"
   height="17.75375"
   viewBox="0 0 10.277615 17.75375"
   inkscape:version="0.48.4 r9939"
   sodipodi:docname="AvatarAssets_pantsLegUpperCloseA007b.svg">
  <metadata
     id="metadata3591">
    <rdf:RDF>
      <cc:Work
         rdf:about="">
        <dc:format>image/svg+xml</dc:format>
        <dc:type
           rdf:resource="http://purl.org/dc/dcmitype/StillImage" />
      </cc:Work>
    </rdf:RDF>
  </metadata>
  <sodipodi:namedview
     pagecolor="#ffffff"
     bordercolor="#666666"
     borderopacity="1"
     objecttolerance="10"
     gridtolerance="10"
     guidetolerance="10"
     inkscape:pageopacity="0"
     inkscape:pageshadow="2"
     inkscape:window-width="640"
     inkscape:window-height="480"
     id="namedview3589"
     showgrid="false"
     fit-margin-top="0"
     fit-margin-left="0"
     fit-margin-right="0"
     fit-margin-bottom="0"
     inkscape:zoom="1.9032258"
     inkscape:cx="36.976614"
     inkscape:cy="-46.955"
     inkscape:window-x="0"
     inkscape:window-y="0"
     inkscape:window-maximized="0"
     inkscape:current-layer="AvatarAssets" />
  <defs
     id="defs3570" />
  <g
     id="pantsLegUpperCloseA007b1"
     overflow="visible"
     style="overflow:visible"
     transform="translate(4.9766142,2.70875)">
    <g
       id="pantsLegUpperCloseA007b_0">
      <g
         id="element">
        <path
           id="path"
           d="m -4.799,9.387 0.1,1.206 0.25,0.82 c 0.05,0.483 0.15,0.917 0.3,1.254 0.95,0.676 1.8,1.448 2.9,1.93 0.7,0.338 1.5,0.434 2.35,0.434 0.7,-0.193 1.4,-0.482 2.15,-0.916 l 0.05,0 1.7,-2.654 c 0.15,-1.447 0.3,-3.232 0.3,-4.148 -0.1,-1.495 -0.5,-5.789 -1.5,-6.85 -1,-1.109 -2.45,-3.328 -4.95,-3.135 -1.9,0.144 -3.75,2.315 -3.8,3.907 -0.1,1.544 0.1,6.705 0.15,8.152 z"
           inkscape:connector-curvature="0"
           style="fill:#a60c1b" />
      </g>
      <g
         id="element1">
        <path
           id="path1"
           d="m -1.799,2.214 c -0.35,-0.724 -0.8,-2.316 -0.8,-2.846 0,-0.531 0.05,-0.724 0.5,-1.399 0.15,-0.241 0.45,-0.434 0.75,-0.579 -1.85,0.241 -3.55,2.364 -3.6,3.859 -0.1,1.544 0.1,6.705 0.15,8.152 l 0.1,1.206 0.25,0.82 c 0.05,0.483 0.15,0.917 0.3,1.255 0.95,0.675 1.8,1.447 2.9,1.929 0.7,0.338 1.5,0.434 2.35,0.434 l 0.25,-0.096 -1.7,-1.206 c -1.5,-1.158 -1.1,-3.28 -1.05,-3.618 0.05,-0.386 0.75,-0.145 0.35,-0.675 -0.35,-0.531 -0.85,-1.351 -1.05,-2.46 -0.2,-1.158 -0.5,-3.136 -0.2,-3.57 0.35,-0.434 1.15,0.241 1.15,0.241 0,0 -0.25,-0.724 -0.65,-1.447 z"
           inkscape:connector-curvature="0"
           style="fill:#000000;fill-opacity:0.2" />
      </g>
      <g
         id="element2">
        <path
           id="path2"
           d="m -3.199,-1.742 c -1,0.772 -1.75,2.026 -1.75,2.991 -0.1,1.544 0.1,6.705 0.15,8.152 l 0.1,1.206 0.25,0.82 c 0.05,0.483 0.15,0.917 0.3,1.255 l 2.55,1.736 -0.25,-0.193 q -1.65,-1.495 -1.1,-4.968 c 0.05,-0.579 0.65,-0.049 0.65,-0.049 l -0.65,-1.013 c -0.7,-1.061 -0.9,-4.245 -0.85,-5.016 0.1,-0.772 0.2,-1.978 0.2,-2.798 0,-0.386 0.15,-1.254 0.4,-2.123 z"
           inkscape:connector-curvature="0"
           style="fill:#000000;fill-opacity:0.2" />
      </g>
      <g
         id="element3">
        <g
           id="drawingObject3">
          <path
             id="path3"
             d="m -1.349,14.549 0.1,0.048 1.05,0.289 c -0.4,-3.087 -1.15,-8.683 -1.15,-10.998 0,-2.315 0.45,-5.451 0.65,-6.56 -0.3,-0.049 -0.15,-0.049 -0.45,0 l -0.1,0 c -0.45,1.688 -0.9,4.245 -0.9,6.415 0,2.557 0.6,7.67 0.8,10.806 z"
             inkscape:connector-curvature="0"
             style="fill:#c76c27" />
        </g>
        <g
           id="drawingObject4">
          <path
             id="path4"
             d="m -4.299,3.406 c 0.35,2.653 0.6,6.946 0.7,9.696 l 0.75,0.53 c -0.25,-3.28 -0.75,-7.863 -0.7,-9.937 0.1,-2.315 0.2,-4.438 0.85,-5.837 l -0.95,0.772 c -0.5,1.158 -0.9,2.701 -0.65,4.776 z"
             inkscape:connector-curvature="0"
             style="fill:#c76c27" />
        </g>
        <g
           id="drawingObject5">
          <path
             id="path5"
             d="m 1.251,-2.095 c 1.1,1.109 2.15,3.232 2.4,5.258 0.3,2.556 0.2,7.766 0.25,9.647 l 0,0.338 1.1,-1.737 c 0.15,-1.447 0.3,-3.232 0.3,-4.148 -0.1,-1.495 -0.5,-5.789 -1.5,-6.85 -0.65,-0.675 -1.45,-1.833 -2.55,-2.508 z"
             inkscape:connector-curvature="0"
             style="fill:#c76c27" />
        </g>
        <g
           id="drawingObject6">
          <path
             id="path6"
             d="m -0.299,-2.624 c 0.45,0.868 1,3.328 1.1,5.306 0.05,2.219 0.65,7.091 0.75,9.937 q 0,1.206 0.15,2.219 l 1,-0.386 c -0.3,-2.267 -0.45,-6.801 -0.5,-8.876 -0.05,-1.977 -0.6,-5.885 -1.75,-8.055 l -0.75,-0.145 z"
             inkscape:connector-curvature="0"
             style="fill:#c76c27" />
        </g>
      </g>
    </g>
  </g>
</svg>
