<?xml version="1.0" encoding="UTF-8" standalone="no"?>
<!-- Generator: flash2svg, http://dissentgraphics.com/tools/flash2svg -->

<svg
   xmlns:dc="http://purl.org/dc/elements/1.1/"
   xmlns:cc="http://creativecommons.org/ns#"
   xmlns:rdf="http://www.w3.org/1999/02/22-rdf-syntax-ns#"
   xmlns:svg="http://www.w3.org/2000/svg"
   xmlns="http://www.w3.org/2000/svg"
   xmlns:sodipodi="http://sodipodi.sourceforge.net/DTD/sodipodi-0.dtd"
   xmlns:inkscape="http://www.inkscape.org/namespaces/inkscape"
   id="AvatarAssets"
   image-rendering="auto"
   version="1.1"
   x="0px"
   y="0px"
   width="20.483"
   height="11.24648"
   viewBox="0 0 20.483 11.24648"
   inkscape:version="0.48.4 r9939"
   sodipodi:docname="AvatarAssets_shoeCloseD010.svg">
  <metadata
     id="metadata3327">
    <rdf:RDF>
      <cc:Work
         rdf:about="">
        <dc:format>image/svg+xml</dc:format>
        <dc:type
           rdf:resource="http://purl.org/dc/dcmitype/StillImage" />
      </cc:Work>
    </rdf:RDF>
  </metadata>
  <sodipodi:namedview
     pagecolor="#ffffff"
     bordercolor="#666666"
     borderopacity="1"
     objecttolerance="10"
     gridtolerance="10"
     guidetolerance="10"
     inkscape:pageopacity="0"
     inkscape:pageshadow="2"
     inkscape:window-width="640"
     inkscape:window-height="480"
     id="namedview3325"
     showgrid="false"
     fit-margin-top="0"
     fit-margin-left="0"
     fit-margin-right="0"
     fit-margin-bottom="0"
     inkscape:zoom="1.9032258"
     inkscape:cx="37.599"
     inkscape:cy="-48.30252"
     inkscape:window-x="0"
     inkscape:window-y="0"
     inkscape:window-maximized="0"
     inkscape:current-layer="AvatarAssets" />
  <defs
     id="defs3303" />
  <g
     id="shoeCloseD11"
     overflow="visible"
     style="overflow:visible"
     transform="translate(5.599,-2.451)">
    <g
       id="shoeCloseD010_0">
      <g
         id="element">
        <g
           id="drawingObject">
          <path
             id="path"
             d="M 14.68,9.733 C 15.062,7.84 14.06,7 14.06,7 L 14.537,7.63 14.06,7 0.597,6.632 -4.655,7.946 -4.894,7.788 c -0.429,0.999 -0.191,1.734 0.621,2.26 0.812,0.473 3.39,1.367 7.734,2.575 2.244,0.684 4.965,1.525 6.732,0.789 1.766,-0.683 3.962,-1.787 4.487,-3.679 z"
             inkscape:connector-curvature="0"
             style="fill:#f5dae4" />
        </g>
        <g
           id="drawingObject1">
          <path
             id="path1"
             d="m 3.127,12.571 c 2.626,0.736 4.392,1.104 5.299,1.104 C 8.379,13.464 8.379,13.202 8.522,12.939 8.713,12.676 8.856,12.466 8.904,12.308 9.19,11.835 14.155,8.997 14.346,8.839 L 12.055,8.997 13.487,6.894 0.262,6.526 -4.989,7.84 -4.798,8.734 -4.989,7.84 c 0,0 0.239,1.577 0.907,2.208 0.621,0.578 5.013,1.892 7.209,2.523 z"
             inkscape:connector-curvature="0"
             style="fill:#000000;fill-opacity:0.08600003" />
        </g>
        <g
           id="drawingObject2">
          <path
             id="path2"
             d="m 4.451,2.451 c 0.1,0.7 -0.2,1.2 -0.85,1.55 -0.65,0.3 -1.85,0.55 -3.5,0.6 -1.65,0.1 -3.1,-0.35 -4.3,-1.35 l -0.15,-0.75 -0.75,1.05 c -0.3,0.5 -0.45,1.15 -0.5,1.9 q 0,1.5 0.15,2.15 0.25,0.9 0.95,1.45 c 1,0.75 4.85,1.85 5.95,2.5 0.8,0.25 2.2,0.6 4.25,1 1.95,0.45 3.35,0.55 4.2,0.45 0.9,-0.2 1.75,-0.65 2.65,-1.45 0.95,-0.8 1.55,-1.5 1.85,-2.35 0.4,-0.7 0.45,-1.5 0.3,-2.5 -0.15,-0.7 -0.55,-1.2 -1.25,-1.65 -0.8,-0.55 -2.15,-1.05 -4,-1.55 -1.85,-0.55 -3.55,-0.9 -5,-1.05 z"
             inkscape:connector-curvature="0"
             style="fill:#3d3632" />
        </g>
        <g
           id="group1">
          <path
             id="path3"
             d="m 5.9,5.8 c -1.85,1.25 -2.35,3.4 -1.5,6.35 2.45,0.6 4.1,0.9 5.05,0.85 0.9,-0.05 1.8,-0.5 2.8,-1.3 q 1.5,-1.35 2.05,-2.5 C 14.65,8.45 14.8,7.7 14.7,6.85 14.6,6 14,5.2 12.85,4.5 11.7,3.75 10.75,3.5 9.9,3.65 9.05,3.8 7.75,4.55 5.9,5.8 z"
             inkscape:connector-curvature="0"
             style="fill:#f5dae4" />
          <g
             id="drawingObject3">
            <path
               id="path4"
               d="M 7.068,8.714 6.206,8.334 c 0,0 1.416,0.634 3.201,0.824 1.785,0.127 2.277,0.064 3.631,-0.761 1.292,-0.761 1.846,-1.775 1.846,-1.775 Q 14.638,6.748 14.269,7.065 13.53,7.636 12.915,8.017 C 11.93,8.651 10.576,9.158 8.853,8.841 7.13,8.651 6.206,8.334 6.206,8.334 l 0.677,0.19"
               inkscape:connector-curvature="0"
               style="fill:#ffffff" />
          </g>
        </g>
        <g
           id="drawingObject4">
          <path
             id="path5"
             d="M -1.743,8.629 C -1.361,7.578 -1.886,5.633 -3.366,5.475 q -0.573,-0.105 -1.05,0.894 -0.43,0.998 0.047,1.734 c 0.717,1.051 2.149,1.63 2.626,0.526 z"
             inkscape:connector-curvature="0"
             style="fill:#f5dae4" />
        </g>
        <g
           id="drawingObject5">
          <path
             id="path6"
             d="M 9.095,3.425 C 9.477,3.425 9.572,3.32 9.429,3.057 9.286,2.795 8.904,2.742 8.379,2.795 7.806,2.847 7.185,3.057 6.517,3.425 5.18,4.161 4.464,4.634 4.32,5.212 4.13,5.685 5.132,5.633 5.132,5.633 L 6.087,4.792 C 6.517,4.477 7.089,4.109 7.901,3.741 8.331,3.531 8.713,3.425 9.095,3.425 z"
             inkscape:connector-curvature="0"
             style="fill:#f5dae4" />
        </g>
        <g
           id="drawingObject6">
          <path
             id="path7"
             d="m 4.151,4.601 0.1,0 0.1,-0.15 c 0,0 -0.05,0 -0.2,0.15 z m 0.8,0.05 c -1.5,0.85 -1.75,2.4 -2.45,2.05 -0.65,-0.5 -0.4,-1.05 0.85,-1.65 -0.3,0.1 -0.65,0.2 -0.95,0.3 -1.65,0.5 -3.5,0.25 -5.55,-0.8 -0.7,0.05 -1.15,-0.5 -1.4,-1.6 l -0.4,0.5 c -0.25,0.45 -0.45,1.05 -0.6,1.8 -0.05,1.9 0.2,2.75 1.15,3.6 1,0.8 4.8,1.9 6.05,2.45 1.05,0.45 6.3,1.85 8.05,1.45 1.7,-0.35 4.1,-2.2 4.9,-3.7 0.2,-0.65 0.3,-1.3 0.2,-2.3 -0.05,0 -0.15,0.15 -0.2,0.3 -0.25,0.25 -0.5,0.5 -0.75,0.8 -0.8,0.8 -1.5,1.3 -2.1,1.55 -0.3,0.25 -0.95,0.6 -1.4,0.6 -1.85,0 -3.9,-1.35 -4.7,-2.5 -0.3,-0.25 -0.3,-0.55 -0.05,-0.9 0.2,-0.35 0.3,-0.55 0.3,-0.6 0.45,-1.35 3.2,-3 3.2,-3 l -1.4,0.95 1.4,-0.95 -0.6,0.15 c -0.65,0 -2.05,0.75 -3.55,1.5 z"
             inkscape:connector-curvature="0"
             style="fill:#000000;fill-opacity:0.2" />
          <path
             id="path10"
             d="m 14.801,6.751 0,-0.05 c 0,0 0,0 -0.05,0.1 l 0.05,-0.05"
             inkscape:connector-curvature="0"
             style="fill:#000000;fill-opacity:0.2" />
        </g>
      </g>
    </g>
  </g>
</svg>
