<?xml version="1.0" encoding="UTF-8" standalone="no"?>
<!-- Generator: flash2svg, http://dissentgraphics.com/tools/flash2svg -->

<svg
   xmlns:dc="http://purl.org/dc/elements/1.1/"
   xmlns:cc="http://creativecommons.org/ns#"
   xmlns:rdf="http://www.w3.org/1999/02/22-rdf-syntax-ns#"
   xmlns:svg="http://www.w3.org/2000/svg"
   xmlns="http://www.w3.org/2000/svg"
   xmlns:sodipodi="http://sodipodi.sourceforge.net/DTD/sodipodi-0.dtd"
   xmlns:inkscape="http://www.inkscape.org/namespaces/inkscape"
   id="AvatarAssets"
   image-rendering="auto"
   version="1.1"
   x="0px"
   y="0px"
   width="10.267765"
   height="17.611418"
   viewBox="0 0 10.267765 17.611418"
   inkscape:version="0.48.4 r9939"
   sodipodi:docname="AvatarAssets_pantsLegUpperCloseA007.svg">
  <metadata
     id="metadata3567">
    <rdf:RDF>
      <cc:Work
         rdf:about="">
        <dc:format>image/svg+xml</dc:format>
        <dc:type
           rdf:resource="http://purl.org/dc/dcmitype/StillImage" />
      </cc:Work>
    </rdf:RDF>
  </metadata>
  <sodipodi:namedview
     pagecolor="#ffffff"
     bordercolor="#666666"
     borderopacity="1"
     objecttolerance="10"
     gridtolerance="10"
     guidetolerance="10"
     inkscape:pageopacity="0"
     inkscape:pageshadow="2"
     inkscape:window-width="640"
     inkscape:window-height="480"
     id="namedview3565"
     showgrid="false"
     fit-margin-top="0"
     fit-margin-left="0"
     fit-margin-right="0"
     fit-margin-bottom="0"
     inkscape:zoom="1.9032258"
     inkscape:cx="37.006957"
     inkscape:cy="-47.105"
     inkscape:window-x="0"
     inkscape:window-y="0"
     inkscape:window-maximized="0"
     inkscape:current-layer="AvatarAssets" />
  <defs
     id="defs3543" />
  <g
     id="pantsLegUpperCloseA8"
     overflow="visible"
     style="overflow:visible"
     transform="translate(5.0069575,2.7164177)">
    <g
       id="pantsLegUpperCloseA007_0">
      <g
         id="element">
        <g
           id="drawingObject">
          <path
             id="path"
             d="m -4.999,1.18 c -0.05,1.582 0.15,6.666 0.2,8.104 l 0.1,1.247 0.2,0.767 c 0.1,0.528 0.15,0.912 0.3,1.295 1,0.624 1.85,1.391 2.9,1.918 0.7,0.288 1.55,0.384 2.4,0.384 0.7,-0.144 1.4,-0.432 2.15,-0.863 l 0.05,-0.048 1.45,-2.302 0.25,-0.288 c 0.15,-1.486 0.3,-3.261 0.25,-4.124 -0.05,-1.534 -0.5,-5.755 -1.5,-6.857 -1,-1.055 -2.45,-3.309 -4.95,-3.118 -1.9,0.144 -3.75,2.35 -3.8,3.885 z"
             inkscape:connector-curvature="0"
             style="fill:#80a92d" />
        </g>
        <g
           id="group1">
          <g
             id="drawingObject1">
            <path
               id="path1"
               d="m -1.299,-2.657 c -0.4,1.679 -0.9,4.172 -0.9,6.378 0,2.542 0.65,7.625 0.85,10.742 l 0.05,0.048 q 0.55,0.24 1.1,0.288 c -0.4,-3.069 -1.15,-8.68 -1.15,-10.982 0,-2.254 0.4,-5.371 0.6,-6.522 l -0.45,0 -0.1,0.048 z"
               inkscape:connector-curvature="0"
               style="fill:#b6c837" />
          </g>
          <g
             id="drawingObject2">
            <path
               id="path2"
               d="m -3.649,-1.41 c -0.55,1.199 -0.9,2.686 -0.65,4.748 0.3,2.637 0.55,6.953 0.65,9.639 l 0.75,0.527 c -0.25,-3.213 -0.75,-7.816 -0.65,-9.831 0.1,-2.349 0.2,-4.459 0.85,-5.85 -0.35,0.24 -0.7,0.479 -0.95,0.767 z"
               inkscape:connector-curvature="0"
               style="fill:#b6c837" />
          </g>
          <g
             id="drawingObject3">
            <path
               id="path3"
               d="m 1.201,-2.081 c 1.1,1.103 2.15,3.261 2.45,5.275 0.3,2.494 0.15,7.721 0.25,9.591 l 0,0.336 0.85,-1.439 0.25,-0.288 c 0.15,-1.486 0.3,-3.261 0.25,-4.124 -0.05,-1.534 -0.5,-5.755 -1.5,-6.857 -0.65,-0.672 -1.4,-1.775 -2.55,-2.494 z"
               inkscape:connector-curvature="0"
               style="fill:#b6c837" />
          </g>
          <g
             id="drawingObject4">
            <path
               id="path4"
               d="m 0.751,2.618 c 0.05,2.254 0.7,7.098 0.75,9.927 q 0,0.192 0.15,2.206 c 0.35,-0.144 0.7,-0.24 1,-0.431 -0.25,-2.206 -0.4,-6.762 -0.45,-8.824 -0.05,-1.918 -0.65,-5.803 -1.8,-7.961 l -0.7,-0.192 c 0.4,0.864 1,3.309 1.05,5.275 z"
               inkscape:connector-curvature="0"
               style="fill:#b6c837" />
          </g>
        </g>
        <g
           id="drawingObject5">
          <path
             id="path5"
             d="m 4.151,12.42 c 0.25,-0.096 0.4,-1.679 -0.35,-1.535 q -1.15,0.336 -1.35,0.384 -0.6,0.287 -0.3,0.767 c 0.5,0.719 1.75,0.48 2,0.384 z"
             inkscape:connector-curvature="0"
             style="fill:#ffffff;fill-opacity:0.08600003" />
        </g>
        <g
           id="drawingObject6">
          <path
             id="path6"
             d="m -2.099,-2.069 c 0.15,-0.24 0.4,-0.432 0.7,-0.623 -1.85,0.287 -3.55,2.349 -3.6,3.836 -0.05,1.583 0.15,6.666 0.2,8.104 l 0.1,1.247 0.2,0.768 c 0.1,0.527 0.15,0.911 0.3,1.294 1,0.624 1.85,1.391 2.9,1.919 0.7,0.287 1.55,0.383 2.4,0.383 l 0.25,-0.048 c -0.45,-0.287 -1,-0.671 -1.7,-1.247 -1.5,-1.151 -1.15,-3.213 -1.1,-3.596 0.1,-0.336 0.75,-0.096 0.4,-0.672 -0.4,-0.527 -0.9,-1.294 -1.05,-2.445 -0.2,-1.151 -0.5,-3.117 -0.2,-3.549 0.3,-0.384 1.1,0.24 1.1,0.24 l -0.6,-1.439 c -0.4,-0.719 -0.8,-2.254 -0.8,-2.781 0,-0.576 0.05,-0.72 0.5,-1.391 z"
             inkscape:connector-curvature="0"
             style="fill:#000000;fill-opacity:0.08600003" />
        </g>
        <g
           id="drawingObject7">
          <path
             id="path7"
             d="m -3.199,-1.779 c -1,0.815 -1.75,2.014 -1.8,2.973 -0.05,1.583 0.15,6.666 0.2,8.104 l 0.1,1.247 0.2,0.768 c 0.1,0.527 0.15,0.911 0.3,1.294 0.9,0.576 1.65,1.247 2.6,1.727 l -0.25,-0.24 q -1.45,-1.295 -1.15,-4.891 c 0.05,-0.624 0.7,-0.096 0.7,-0.096 L -2.999,8.1 c -0.7,-1.008 -0.85,-4.173 -0.8,-4.988 0.05,-0.767 0.2,-1.966 0.2,-2.733 0,-0.384 0.15,-1.295 0.4,-2.158 z"
             inkscape:connector-curvature="0"
             style="fill:#000000;fill-opacity:0.08600003" />
        </g>
      </g>
    </g>
  </g>
</svg>
