<?xml version="1.0" encoding="UTF-8" standalone="no"?>
<!-- Generator: flash2svg, http://dissentgraphics.com/tools/flash2svg -->

<svg
   xmlns:dc="http://purl.org/dc/elements/1.1/"
   xmlns:cc="http://creativecommons.org/ns#"
   xmlns:rdf="http://www.w3.org/1999/02/22-rdf-syntax-ns#"
   xmlns:svg="http://www.w3.org/2000/svg"
   xmlns="http://www.w3.org/2000/svg"
   xmlns:sodipodi="http://sodipodi.sourceforge.net/DTD/sodipodi-0.dtd"
   xmlns:inkscape="http://www.inkscape.org/namespaces/inkscape"
   id="AvatarAssets"
   image-rendering="auto"
   version="1.1"
   x="0px"
   y="0px"
   width="10.757756"
   height="13.3875"
   viewBox="0 0 10.757756 13.3875"
   inkscape:version="0.48.4 r9939"
   sodipodi:docname="AvatarAssets_pantsLegLowerCloseA007b.svg">
  <metadata
     id="metadata3104">
    <rdf:RDF>
      <cc:Work
         rdf:about="">
        <dc:format>image/svg+xml</dc:format>
        <dc:type
           rdf:resource="http://purl.org/dc/dcmitype/StillImage" />
      </cc:Work>
    </rdf:RDF>
  </metadata>
  <sodipodi:namedview
     pagecolor="#ffffff"
     bordercolor="#666666"
     borderopacity="1"
     objecttolerance="10"
     gridtolerance="10"
     guidetolerance="10"
     inkscape:pageopacity="0"
     inkscape:pageshadow="2"
     inkscape:window-width="640"
     inkscape:window-height="480"
     id="namedview3102"
     showgrid="false"
     fit-margin-top="0"
     fit-margin-left="0"
     fit-margin-right="0"
     fit-margin-bottom="0"
     inkscape:zoom="1.9032258"
     inkscape:cx="37.106756"
     inkscape:cy="-52.1115"
     inkscape:window-x="0"
     inkscape:window-y="0"
     inkscape:window-maximized="0"
     inkscape:current-layer="AvatarAssets" />
  <defs
     id="defs3082" />
  <g
     id="pantsLegLowerCloseA007b1"
     overflow="visible"
     style="overflow:visible"
     transform="translate(5.1067562,3.499)">
    <g
       id="pantsLegLowerCloseA007b_0">
      <g
         id="element">
        <g
           id="drawingObject">
          <path
             id="path"
             d="m 5.651,6.851 c 0,0 -0.9,-3.95 -0.85,-4.7 l 0.25,-2.2 -0.1,-1.05 c -0.05,-0.3 -0.2,-0.55 -0.35,-0.8 -0.95,-0.55 -1.95,-0.95 -3.05,-1.2 -0.7,-0.2 -1.5,-0.3 -2.25,-0.4 -1.95,0.2 -3.55,0.9 -3.7,2.6 l -0.1,0.7 0.2,2.85 c 0,1 -0.9,3.6 -0.8,4.45 l 0.05,0.8 0.9,0.9 -0.9,-0.9 c 0,0 1.05,1.75 3.85,1.95 2.8,0.15 5,-0.5 5.9,-1.75 l 0.95,-1.25 z"
             inkscape:connector-curvature="0"
             style="fill:#a60c1b" />
        </g>
        <g
           id="group1">
          <g
             id="drawingObject1">
            <path
               id="path1"
               d="m -0.049,3.901 -0.85,-7.35 q -0.4,0 -0.85,0.15 c 0.25,3.2 0.6,6.65 0.5,8.05 l -0.4,5.05 0.45,0.05 c 0.6,0.05 1.15,0.05 1.65,0 -0.1,-1.45 -0.25,-3.95 -0.5,-5.95 z"
               inkscape:connector-curvature="0"
               style="fill:#c76c27" />
          </g>
          <g
             id="drawingObject2">
            <path
               id="path2"
               d="m -3.149,-2.799 -0.55,0.4 q 0.2,3.6 0.2,5.85 c 0,1.1 -0.55,3.55 -0.8,5.3 0.35,0.25 0.75,0.5 1.3,0.7 0.05,-1.35 0.1,-3.3 0.25,-4.45 0.15,-1.1 -0.15,-4.55 -0.4,-7.8 z"
               inkscape:connector-curvature="0"
               style="fill:#c76c27" />
          </g>
          <g
             id="drawingObject3">
            <path
               id="path3"
               d="m 4.601,-1.899 -0.65,-0.35 0,3.6 c 0.05,1.85 0.5,5.2 1.2,6.15 l 0.5,-0.65 c 0,0 -0.9,-3.95 -0.85,-4.7 l 0.25,-2.2 -0.1,-1.05 c -0.05,-0.3 -0.2,-0.55 -0.35,-0.8 z"
               inkscape:connector-curvature="0"
               style="fill:#c76c27" />
          </g>
          <g
             id="drawingObject4">
            <path
               id="path4"
               d="m 2.401,-2.899 -1.05,-0.25 0.25,4.1 c 0.05,2.95 0.65,4.8 0.8,6.85 0.05,0.7 0.15,1.2 0.25,1.65 0.65,-0.25 1.15,-0.5 1.55,-0.85 -0.4,-1.4 -1.1,-3.65 -1.3,-4.75 -0.25,-1.1 -0.4,-4.1 -0.5,-6.75 z"
               inkscape:connector-curvature="0"
               style="fill:#c76c27" />
          </g>
        </g>
        <g
           id="drawingObject5">
          <path
             id="path5"
             d="m 4.951,3.351 c -1.05,2.35 -3.45,1.55 -3.9,0.65 q -0.3,-0.7 0.35,-1.65 l 0.7,-0.8 c 0,0 -2.45,0.9 -2.45,-0.35 0,-1.25 1.95,-2.25 1.95,-2.25 l -0.95,0.65 0.95,-0.65 -1,-0.2 c -1,-0.2 -1.55,-0.1 -2,-2.15 -1.6,0.3 -2.85,1 -3,2.5 l -0.1,0.7 0.2,2.85 c 0,1 -0.9,3.6 -0.8,4.45 l 0.05,0.8 0.9,0.9 -0.9,-0.9 c 0,0 1.05,1.75 3.85,1.95 2.8,0.15 5,-0.5 5.9,-1.75 l 0.95,-1.25 -0.7,-3.5 z"
             inkscape:connector-curvature="0"
             style="fill:#000000;fill-opacity:0.2" />
        </g>
        <g
           id="drawingObject6">
          <path
             id="path6"
             d="m 4.701,8.101 0.7,-0.95 c -0.9,0.65 -2.5,1.25 -4.15,0.9 q -2.8,-0.55 -3.1,-3.9 c -0.2,-1.7 0.5,-3.9 0.5,-3.9 l -0.3,1.3 0.3,-1.3 c 0,0 -0.55,0.1 -0.9,-0.6 -0.2,-0.35 -0.35,-1.3 -0.45,-2.7 -0.95,0.4 -1.6,1.1 -1.7,2.15 l -0.1,0.7 0.2,2.85 c 0,1 -0.9,3.6 -0.8,4.45 l 0.05,0.8 0.9,0.9 -0.9,-0.9 c 0,0 1.05,1.75 3.85,1.95 2.8,0.15 5,-0.5 5.9,-1.75 z"
             inkscape:connector-curvature="0"
             style="fill:#000000;fill-opacity:0.2" />
        </g>
      </g>
    </g>
  </g>
</svg>
