<?xml version="1.0" encoding="UTF-8" standalone="no"?>
<!-- Generator: flash2svg, http://dissentgraphics.com/tools/flash2svg -->

<svg
   xmlns:dc="http://purl.org/dc/elements/1.1/"
   xmlns:cc="http://creativecommons.org/ns#"
   xmlns:rdf="http://www.w3.org/1999/02/22-rdf-syntax-ns#"
   xmlns:svg="http://www.w3.org/2000/svg"
   xmlns="http://www.w3.org/2000/svg"
   xmlns:sodipodi="http://sodipodi.sourceforge.net/DTD/sodipodi-0.dtd"
   xmlns:inkscape="http://www.inkscape.org/namespaces/inkscape"
   id="AvatarAssets"
   image-rendering="auto"
   version="1.1"
   x="0px"
   y="0px"
   width="18.447378"
   height="10.142589"
   viewBox="0 0 18.447378 10.142589"
   inkscape:version="0.48.4 r9939"
   sodipodi:docname="AvatarAssets_shoeCloseA004.svg">
  <metadata
     id="metadata3023">
    <rdf:RDF>
      <cc:Work
         rdf:about="">
        <dc:format>image/svg+xml</dc:format>
        <dc:type
           rdf:resource="http://purl.org/dc/dcmitype/StillImage" />
      </cc:Work>
    </rdf:RDF>
  </metadata>
  <sodipodi:namedview
     pagecolor="#ffffff"
     bordercolor="#666666"
     borderopacity="1"
     objecttolerance="10"
     gridtolerance="10"
     guidetolerance="10"
     inkscape:pageopacity="0"
     inkscape:pageshadow="2"
     inkscape:window-width="640"
     inkscape:window-height="480"
     id="namedview3021"
     showgrid="false"
     fit-margin-top="0"
     fit-margin-left="0"
     fit-margin-right="0"
     fit-margin-bottom="0"
     inkscape:zoom="1.9032258"
     inkscape:cx="36.636242"
     inkscape:cy="-49.254411"
     inkscape:window-x="0"
     inkscape:window-y="0"
     inkscape:window-maximized="0"
     inkscape:current-layer="AvatarAssets" />
  <defs
     id="defs3010" />
  <g
     id="shoeCloseA5"
     overflow="visible"
     style="overflow:visible"
     transform="translate(4.6362422,-2.603)">
    <g
       id="shoeCloseA004_0">
      <g
         id="element">
        <g
           id="drawingObject">
          <path
             id="path"
             d="M 8.724,3.562 5.045,2.603 C 4.298,3.936 3.072,4.682 1.313,4.842 -0.446,5.055 -1.993,4.629 -3.272,3.616 c -0.16,-0.054 -0.267,0 -0.427,0.213 -0.266,0.426 -0.479,1.119 -0.693,2.026 -0.16,0.693 -0.213,1.226 -0.213,1.653 -0.053,0.159 0,0.373 0.053,0.533 0.214,1.119 1.386,1.972 3.572,2.559 0.587,0.16 1.6,0.426 3.039,0.853 1.227,0.373 2.239,0.586 2.933,0.64 0.586,0 1.279,0.053 2.132,0.213 0.64,0.106 1.333,0.106 2.026,0.053 0.8,-0.053 1.599,-0.373 2.399,-0.906 0.8,-0.64 1.386,-1.493 1.813,-2.559 0.48,-1.173 0.586,-1.92 0.266,-2.293 C 13.309,6.121 13.042,5.748 12.775,5.482 12.562,5.215 11.229,4.575 8.724,3.562 z"
             inkscape:connector-curvature="0"
             style="fill:#6b5425" />
        </g>
        <g
           id="drawingObject1">
          <path
             id="path1"
             d="M 8.288,4.71 Q 5.744,4.419 3.183,5.562 l 0.022,0 C 1.481,6.344 0.067,6.022 -0.994,4.641 -1.922,4.319 -2.674,3.996 -3.248,3.582 c -0.133,-0.046 -0.31,0 -0.442,0.23 -0.221,0.414 -0.442,1.105 -0.663,2.026 -0.177,0.599 -0.266,1.151 -0.266,1.565 -0.044,0.185 0,0.369 0.089,0.599 0.177,1.059 1.37,1.934 3.536,2.532 0.619,0.139 1.635,0.415 3.094,0.875 1.238,0.369 2.21,0.553 2.917,0.599 0.531,0.046 1.238,0.138 2.078,0.23 0.265,0.046 0.53,0.046 0.84,0.046 0.132,0 0.309,0 0.486,0 0.221,-0.046 0.398,-0.092 0.619,-0.046 0.751,-0.046 1.591,-0.368 2.431,-0.921 0.751,-0.598 1.326,-1.243 1.768,-1.934 0.177,-0.414 0.309,-0.92 0.398,-1.427 0,-0.138 0,-0.322 0.044,-0.46 C 13.637,7.219 13.637,6.943 13.592,6.621 l -0.022,0 -0.331,-0.254 0,0.024 c 0.177,0.138 0.265,0.322 0.265,0.644 C 13.46,7.265 13.327,7.588 13.106,7.956 12.62,8.647 11.869,9.153 10.94,9.429 8.907,10.028 7.979,9.798 8.156,8.739 8.288,7.956 8.819,7.219 9.658,6.575 10.012,6.206 10.366,5.976 10.719,5.838 9.172,6.344 7.89,6.897 6.962,7.496 6.564,7.772 6.432,7.68 6.564,7.219 6.874,6.529 7.006,6.114 7.051,5.884 7.183,5.424 7.625,5.055 8.288,4.733"
             inkscape:connector-curvature="0"
             style="fill:#594620" />
        </g>
        <g
           id="drawingObject2">
          <path
             id="path2"
             d="M 4.885,4.522 4.938,3.562 C 4.352,4.682 3.499,5.215 2.379,5.162 1.153,5.108 0.033,4.895 -1.033,4.629 -1.886,4.362 -2.526,4.042 -3.006,3.776 c -0.266,0.373 -0.426,0.906 -0.426,1.492 -0.107,0.587 0,1.013 0.266,1.333 0.16,0.48 0.64,1.173 1.333,1.973 L -2.099,8.307 C -3.112,7.401 -3.752,6.974 -4.125,7.028 c -0.16,0 -0.32,0.16 -0.48,0.48 l 0.053,0.479 c 0.16,1.067 1.333,1.92 3.519,2.559 0.64,0.107 1.599,0.374 2.826,0.8 1.226,0.427 2.026,0.693 2.505,0.8 0.427,0.053 0.907,0.16 1.44,0.32 0.533,0.106 0.906,0.16 1.12,0.16 0.213,0 0.586,0.053 1.119,0.106 0.48,0.054 1.066,-0.053 1.653,-0.32 0.586,-0.266 1.226,-0.693 1.973,-1.226 0.746,-0.533 1.279,-1.119 1.546,-1.812 l 0.479,-1.067 c -0.533,0.8 -1.172,1.493 -1.919,2.08 -0.906,0.639 -1.653,0.959 -2.346,1.012 -0.693,0 -1.066,-0.213 -1.119,-0.639 l 0.053,-0.587 -0.373,0 C 7.018,10.28 6.111,10.227 5.205,10.013 4.245,9.747 3.445,9.32 2.806,8.627 2.113,7.934 2.006,7.294 2.379,6.761 2.806,6.121 3.659,5.375 4.885,4.522 z"
             inkscape:connector-curvature="0"
             style="fill:#4f3e1d" />
        </g>
      </g>
    </g>
  </g>
</svg>
