<?xml version="1.0" encoding="UTF-8" standalone="no"?>
<!-- Generator: flash2svg, http://dissentgraphics.com/tools/flash2svg -->

<svg
   xmlns:dc="http://purl.org/dc/elements/1.1/"
   xmlns:cc="http://creativecommons.org/ns#"
   xmlns:rdf="http://www.w3.org/1999/02/22-rdf-syntax-ns#"
   xmlns:svg="http://www.w3.org/2000/svg"
   xmlns="http://www.w3.org/2000/svg"
   xmlns:sodipodi="http://sodipodi.sourceforge.net/DTD/sodipodi-0.dtd"
   xmlns:inkscape="http://www.inkscape.org/namespaces/inkscape"
   id="AvatarAssets"
   image-rendering="auto"
   version="1.1"
   x="0px"
   y="0px"
   width="9.3374996"
   height="13.700703"
   viewBox="0 0 9.3374996 13.700703"
   inkscape:version="0.48.4 r9939"
   sodipodi:docname="AvatarAssets_pantsLegLowerClose20101122Color_1.svg">
  <metadata
     id="metadata11">
    <rdf:RDF>
      <cc:Work
         rdf:about="">
        <dc:format>image/svg+xml</dc:format>
        <dc:type
           rdf:resource="http://purl.org/dc/dcmitype/StillImage" />
      </cc:Work>
    </rdf:RDF>
  </metadata>
  <sodipodi:namedview
     pagecolor="#ffffff"
     bordercolor="#666666"
     borderopacity="1"
     objecttolerance="10"
     gridtolerance="10"
     guidetolerance="10"
     inkscape:pageopacity="0"
     inkscape:pageshadow="2"
     inkscape:window-width="640"
     inkscape:window-height="480"
     id="namedview9"
     showgrid="false"
     fit-margin-top="0"
     fit-margin-left="0"
     fit-margin-right="0"
     fit-margin-bottom="0"
     inkscape:zoom="1.9032258"
     inkscape:cx="36.6"
     inkscape:cy="-55.099297"
     inkscape:window-x="0"
     inkscape:window-y="0"
     inkscape:window-maximized="0"
     inkscape:current-layer="AvatarAssets" />
  <defs
     id="defs3" />
  <g
     id="pantsLegLowerClose20101122Color_2"
     overflow="visible"
     style="overflow:visible"
     transform="translate(4.6,6.8)">
    <g
       id="pantsLegLowerClose20101122Color_1_0">
      <g
         id="element">
        <path
           id="path"
           d="M 4.65,-4.25 C 4.6,-4.5 4.55,-4.8 4.45,-5.1 4.2,-6.05 2.05,-6.8 -0.2,-6.8 l -1.45,0.15 C -1.8,-6.6 -2,-6.6 -2.15,-6.55 l -0.1,0.05 c -0.05,0 -0.1,0 -0.15,0 -0.75,0.05 -1.95,0.75 -2.15,2.2 0,0.1 0,0.3 0,0.55 l 0,0.3 0.05,0 0,0.05 -0.05,-0.05 0.05,0.7 c 0,0.05 0,0.15 0,0.2 0.05,0.45 0.05,0.8 0.1,1.15 l -0.1,1.6 c -0.05,0.7 -0.1,1.25 -0.1,1.8 0,0.05 0,0.1 0,0.15 l 0.1,1.2 c 0,0.2 0,0.4 0.05,0.55 0.05,0.3 0.1,0.55 0.2,0.75 0.05,0.3 0.2,0.6 0.35,0.85 0.1,0.05 0.15,0.15 0.2,0.2 q 0.3,0.4 0.75,0.7 C -1.35,7.15 0.75,7.05 2.1,6.15 2.2,6.1 2.35,6.05 2.35,6 L 2.4,5.95 C 2.75,5.7 3,5.5 3.2,5.25 3.4,5 3.55,4.75 3.65,4.45 3.7,4.35 3.7,4.2 3.75,3.95 L 3.9,3.5 3.9,3.45 C 3.95,3.25 4,2.95 4.05,2.6 l 0.2,-1.95 0,-0.05 c 0,-0.2 0,-0.5 0.05,-0.8 0.2,-1.4 0.35,-2.3 0.4,-2.65 0.05,-0.35 0.05,-0.75 0,-1.25 L 4.65,-4.25 z"
           inkscape:connector-curvature="0"
           style="fill:#edede4" />
      </g>
    </g>
  </g>
</svg>
