<?xml version="1.0" encoding="UTF-8" standalone="no"?>
<!-- Generator: flash2svg, http://dissentgraphics.com/tools/flash2svg -->

<svg
   xmlns:dc="http://purl.org/dc/elements/1.1/"
   xmlns:cc="http://creativecommons.org/ns#"
   xmlns:rdf="http://www.w3.org/1999/02/22-rdf-syntax-ns#"
   xmlns:svg="http://www.w3.org/2000/svg"
   xmlns="http://www.w3.org/2000/svg"
   xmlns:sodipodi="http://sodipodi.sourceforge.net/DTD/sodipodi-0.dtd"
   xmlns:inkscape="http://www.inkscape.org/namespaces/inkscape"
   id="AvatarAssets"
   image-rendering="auto"
   version="1.1"
   x="0px"
   y="0px"
   width="8.7772541"
   height="7.9071069"
   viewBox="0 0 8.7772541 7.9071069"
   inkscape:version="0.48.4 r9939"
   sodipodi:docname="AvatarAssets_sockUpperCloseA002.svg">
  <metadata
     id="metadata3447">
    <rdf:RDF>
      <cc:Work
         rdf:about="">
        <dc:format>image/svg+xml</dc:format>
        <dc:type
           rdf:resource="http://purl.org/dc/dcmitype/StillImage" />
      </cc:Work>
    </rdf:RDF>
  </metadata>
  <sodipodi:namedview
     pagecolor="#ffffff"
     bordercolor="#666666"
     borderopacity="1"
     objecttolerance="10"
     gridtolerance="10"
     guidetolerance="10"
     inkscape:pageopacity="0"
     inkscape:pageshadow="2"
     inkscape:window-width="640"
     inkscape:window-height="480"
     id="namedview3445"
     showgrid="false"
     fit-margin-top="0"
     fit-margin-left="0"
     fit-margin-right="0"
     fit-margin-bottom="0"
     inkscape:zoom="1.9032258"
     inkscape:cx="35.976254"
     inkscape:cy="-56.491893"
     inkscape:window-x="0"
     inkscape:window-y="0"
     inkscape:window-maximized="0"
     inkscape:current-layer="AvatarAssets" />
  <defs
     id="defs3412" />
  <g
     id="sockUpperCloseA3"
     overflow="visible"
     style="overflow:visible"
     transform="translate(3.9762542,2.399)">
    <g
       id="sockUpperCloseA002_0">
      <g
         id="element">
        <g
           id="drawingObject">
          <path
             id="path"
             d="m 3.051,-0.699 -1.1,0.4 c 1.2,-0.15 2.3,-0.45 2.8,-0.9 l 0.05,-0.4 c 0,0 -1.4,0.9 -4.8,0.6 -0.75,-0.05 -1.35,-0.2 -1.8,-0.35 l 0.55,0.3 0.05,0 0.6,0.2 c 0.3,0.1 0.55,0.15 0.85,0.15 l 2.8,0 z"
             inkscape:connector-curvature="0"
             style="fill:#ded8d7" />
        </g>
        <g
           id="drawingObject1">
          <path
             id="path1"
             d="m 4.601,0.451 c -1.65,0.8 -2.8,1 -4.6,0.95 q 0.15,0.8 1.4,1.25 1.25,0.5 2.05,-0.1 c 0.6,-0.4 0.95,-0.95 1.1,-1.4 l 0.05,-0.7 z"
             inkscape:connector-curvature="0"
             style="fill:#ded8d7" />
        </g>
        <g
           id="drawingObject2">
          <path
             id="path2"
             d="m 4.651,-0.149 0.05,-0.45 q -1.45,0.6 -3.6,0.7 c -0.5,0.25 -0.9,0.6 -1.05,0.95 1.9,0.1 3.8,-0.3 4.6,-1.2 z"
             inkscape:connector-curvature="0"
             style="fill:#ded8d7" />
        </g>
        <g
           id="drawingObject3">
          <path
             id="path3"
             d="m 1.951,-0.299 -0.85,0.4 q 2.15,-0.1 3.6,-0.7 l 0,-0.05 0.05,-0.55 c -0.5,0.45 -1.6,0.75 -2.8,0.9 z"
             inkscape:connector-curvature="0"
             style="fill:#b33120" />
        </g>
        <g
           id="drawingObject4">
          <path
             id="path4"
             d="m 4.651,-0.149 c -0.8,0.9 -2.7,1.3 -4.6,1.2 l -0.05,0.1 0,0.25 c 1.8,0.05 2.95,-0.15 4.6,-0.95 l 0.05,-0.6 z"
             inkscape:connector-curvature="0"
             style="fill:#b33120" />
        </g>
        <g
           id="drawingObject5">
          <path
             id="path5"
             d="m 3.451,2.551 q -0.8,0.6 -2.05,0.1 -1.25,-0.45 -1.4,-1.25 l -0.7,0 -0.9,-0.15 c 0.05,1.75 1.65,3.15 3.75,2.4 l 2.125,-0.8 0.025,0 c 0.15,-0.4 0.2,-0.65 0.2,-0.8 l 0,-0.15 0.05,-0.15 0,-0.6 c -0.15,0.45 -0.5,1 -1.1,1.4 z"
             inkscape:connector-curvature="0"
             style="fill:#c2bdbc" />
        </g>
        <g
           id="drawingObject6">
          <path
             id="path6"
             d="m 1.101,0.101 -2,-0.1 -0.35,-0.1 c -0.15,0.3 -0.25,0.6 -0.3,0.9 0.5,0.15 1.05,0.2 1.6,0.25 0.15,-0.35 0.55,-0.7 1.05,-0.95 z"
             inkscape:connector-curvature="0"
             style="fill:#c2bdbc" />
        </g>
        <g
           id="drawingObject7">
          <path
             id="path7"
             d="m -0.999,-0.449 c 0.95,0.2 2,0.25 2.95,0.15 l 1.1,-0.4 -2.8,0 c -0.3,0 -0.55,-0.05 -0.85,-0.15 l -0.4,0.4 z"
             inkscape:connector-curvature="0"
             style="fill:#c2bdbc" />
        </g>
        <g
           id="drawingObject8">
          <path
             id="path8"
             d="m 1.951,-0.299 c -0.95,0.1 -2,0.05 -2.95,-0.15 l -0.25,0.35 0.35,0.1 2,0.1 0.85,-0.4 z"
             inkscape:connector-curvature="0"
             style="fill:#99291c" />
        </g>
        <g
           id="drawingObject9">
          <path
             id="path9"
             d="m -1.549,0.801 -0.05,0.3 0,0.15 0.9,0.15 0.7,0 0,-0.25 0.05,-0.1 c -0.55,-0.05 -1.1,-0.1 -1.6,-0.25 z"
             inkscape:connector-curvature="0"
             style="fill:#99291c" />
        </g>
        <g
           id="drawingObject10">
          <path
             id="path10"
             d="m -1.199,-1.049 -0.05,0 -0.65,-0.35 -0.65,-0.25 -0.15,-0.1 -0.25,-0.1 -0.1,-0.1 -0.3,-0.2 -0.25,-0.25 -0.075,0.55 0.025,0 c 0.55,0.65 1.4,1.1 2.65,1.4 l 0.4,-0.4 -0.6,-0.2 z"
             inkscape:connector-curvature="0"
             style="fill:#a39f9e" />
        </g>
        <g
           id="drawingObject11">
          <path
             id="path11"
             d="m 4.301,2.851 -2.15,0.8 q -1.5,0.55 -2.65,-0.25 -1.05,-0.75 -1.1,-2.15 c -0.8,-0.2 -1.8,-0.6 -2.3,-1 l 0.05,-0.55 c 0.55,0.55 1.35,0.9 2.3,1.1 0.05,-0.3 0.15,-0.6 0.3,-0.9 -1,-0.1 -1.85,-0.45 -2.5,-1.15 l 0,-0.35 c -0.1,1.1 -0.3,2.85 -0.2,3.7 0.2,1.25 1,2.7 2.1,3.2 1.05,0.5 3.15,0 4.5,-0.5 l 0.5,-0.25 0.35,-0.3 0,-0.05 0.3,-0.35 0.05,-0.1 0.3,-0.5 0.05,-0.2 0.1,-0.2 z"
             inkscape:connector-curvature="0"
             style="fill:#a39f9e" />
        </g>
        <g
           id="drawingObject12">
          <path
             id="path12"
             d="m -3.749,-1.249 c 0.65,0.7 1.5,1.05 2.5,1.15 l 0.25,-0.35 c -1.1,-0.25 -2.1,-0.7 -2.7,-1.45 l 0,0.3 -0.05,0 0,0.35 z"
             inkscape:connector-curvature="0"
             style="fill:#7a2117" />
        </g>
        <g
           id="drawingObject13">
          <path
             id="path13"
             d="m -1.599,1.101 0.05,-0.3 q -1.5,-0.3 -2.3,-1.1 l -0.05,0.55 c 0.5,0.4 1.5,0.8 2.3,1 l 0,-0.15 z"
             inkscape:connector-curvature="0"
             style="fill:#7a2117" />
        </g>
      </g>
    </g>
  </g>
</svg>
