<?xml version="1.0" encoding="UTF-8" standalone="no"?>
<!-- Generator: flash2svg, http://dissentgraphics.com/tools/flash2svg -->

<svg
   xmlns:dc="http://purl.org/dc/elements/1.1/"
   xmlns:cc="http://creativecommons.org/ns#"
   xmlns:rdf="http://www.w3.org/1999/02/22-rdf-syntax-ns#"
   xmlns:svg="http://www.w3.org/2000/svg"
   xmlns="http://www.w3.org/2000/svg"
   xmlns:sodipodi="http://sodipodi.sourceforge.net/DTD/sodipodi-0.dtd"
   xmlns:inkscape="http://www.inkscape.org/namespaces/inkscape"
   id="AvatarAssets"
   image-rendering="auto"
   version="1.1"
   x="0px"
   y="0px"
   width="18.335619"
   height="11.195756"
   viewBox="0 0 18.335619 11.195756"
   inkscape:version="0.48.4 r9939"
   sodipodi:docname="AvatarAssets_shoeCloseA011.svg">
  <metadata
     id="metadata3167">
    <rdf:RDF>
      <cc:Work
         rdf:about="">
        <dc:format>image/svg+xml</dc:format>
        <dc:type
           rdf:resource="http://purl.org/dc/dcmitype/StillImage" />
      </cc:Work>
    </rdf:RDF>
  </metadata>
  <sodipodi:namedview
     pagecolor="#ffffff"
     bordercolor="#666666"
     borderopacity="1"
     objecttolerance="10"
     gridtolerance="10"
     guidetolerance="10"
     inkscape:pageopacity="0"
     inkscape:pageshadow="2"
     inkscape:window-width="640"
     inkscape:window-height="480"
     id="namedview3165"
     showgrid="false"
     fit-margin-top="0"
     fit-margin-left="0"
     fit-margin-right="0"
     fit-margin-bottom="0"
     inkscape:zoom="1.9032258"
     inkscape:cx="36.751679"
     inkscape:cy="-47.851244"
     inkscape:window-x="0"
     inkscape:window-y="0"
     inkscape:window-maximized="0"
     inkscape:current-layer="AvatarAssets" />
  <defs
     id="defs3139" />
  <g
     id="shoeCloseA12"
     overflow="visible"
     style="overflow:visible"
     transform="translate(4.7516786,-2.953)">
    <g
       id="shoeCloseA011_0">
      <g
         id="element">
        <g
           id="group1">
          <g
             id="drawingObject">
            <path
               id="path"
               d="m 12.988,8.328 -0.965,0.185 q 0.114,0.256 0.121,0.601 c 0.013,0.604 -0.245,1.104 -0.778,1.335 l -1.178,0.299 c 0,0 0.291,0.983 -0.829,1.501 -1.064,0.571 -1.603,0.528 -1.985,0.316 L 6.608,11.977 6.606,11.922 6.283,11.929 c 0,0 -1.234,0.19 -2.748,-0.108 C 2.024,11.633 0.974,10.392 -0.268,10.253 -0.865,10.046 -1.461,9.838 -2.168,9.524 -2.986,9.046 -3.585,8.729 -3.859,8.515 L -4.242,8.249 -4.723,8.424 c 0.002,0.054 0.006,0.274 0.015,0.658 0.008,0.385 0.338,0.707 0.94,1.134 0.653,0.316 2.011,0.892 4.346,1.777 2.225,0.832 3.693,1.461 4.452,1.72 0.706,0.26 1.731,0.348 2.863,0.434 0.916,0.036 1.982,-0.481 3.303,-1.607 1.266,-1.18 2.001,-2.074 2.2,-2.793 0.2,-0.718 0.241,-1.323 0.12,-1.925 l -0.528,0.506 z"
               inkscape:connector-curvature="0"
               style="fill:#875113" />
          </g>
          <g
             id="drawingObject1">
            <path
               id="path1"
               d="m 11.801,8.351 -0.4,-0.15 q 0.2,0.3 0.2,0.7 c 0.05,0.6 -0.25,1.05 -0.8,1.3 l -1.1,0.3 c 0,0 0.3,0.9 -0.8,1.35 -1.05,0.6 -1.6,0.55 -1.95,0.35 l -0.75,-0.5 0,-0.1 -0.65,-0.05 c -1.25,-0.05 -2.1,0 -2.5,-0.05 -0.4,-0.05 -1,-0.3 -1.8,-0.75 -0.8,-0.5 -1.35,-0.75 -1.75,-0.8 -0.7,-0.1 -1.35,-0.35 -2,-0.75 -0.85,-0.4 -1.4,-0.9 -1.65,-1.45 -0.75,0.25 -0.8,0.65 -0.15,1.15 0.7,0.5 2.15,1.25 4.45,2.1 2.35,0.9 4.1,1.5 5.45,1.85 1.35,0.2 2.35,0.2 3.1,-0.05 0.75,-0.4 1.9,-1.2 3.35,-2.65 1.4,-1.35 1.85,-2.3 1.2,-2.65 -0.1,0.65 -0.6,0.9 -1.45,0.85 z"
               inkscape:connector-curvature="0"
               style="fill:#c79140" />
          </g>
          <g
             id="group2">
            <g
               id="drawingObject2">
              <path
                 id="path2"
                 d="m 11.19,9.793 -0.477,0.34 -1.124,0.298 c -0.041,0.605 -0.299,1.105 -0.831,1.391 -0.532,0.286 -1.232,0.3 -2.097,0.154 0.055,0.053 0.11,0.107 0.165,0.161 L 6.061,11.604 6.06,11.549 5.626,11.393 C 4.497,11.472 3.689,11.489 3.15,11.445 2.611,11.401 1.959,11.14 1.141,10.663 0.323,10.186 -0.22,9.977 -0.598,9.93 -0.761,9.879 -1.302,9.725 -2.117,9.413 c 0.924,0.365 1.523,0.682 1.849,0.84 0.273,0.159 0.656,0.426 1.146,0.69 0.436,0.266 1.357,0.521 2.765,0.876 1.354,0.356 2.163,0.449 2.375,0.28 0.111,0.162 0.33,0.323 0.655,0.426 0.326,0.103 0.916,0.035 1.72,-0.146 0.802,-0.237 1.222,-0.74 1.368,-1.457 l 0.048,-0.276 c 0,0 1.294,0.083 1.381,-0.853 z"
                 inkscape:connector-curvature="0"
                 style="fill:#875113" />
            </g>
            <g
               id="drawingObject3">
              <path
                 id="path3"
                 d="m 12.286,8.232 c 0.053,-0.056 -0.215,0.005 -0.804,0.127 l -0.216,0.005 0.443,0.54 c 0.38,0.157 0.647,0.041 0.802,-0.237 0.154,-0.333 0.364,-0.612 0.629,-0.782 l -0.854,0.347 z"
                 inkscape:connector-curvature="0"
                 style="fill:#875113" />
            </g>
          </g>
        </g>
        <g
           id="group3">
          <g
             id="drawingObject4">
            <path
               id="path4"
               d="M 8.273,3.902 5.792,3.003 C 5.935,3.402 5.935,3.852 5.888,4.401 L 5.697,5.15 c 0,0 -0.191,0.799 -1.05,0.899 -0.858,0.2 -2.337,1.348 -2.385,1.698 -0.143,0.3 0,0.699 0,0.699 L 3.169,7.747 2.262,8.446 c 0,0 1.574,-1.398 2.719,-1.748 C 6.174,6.349 6.985,6.199 7.223,5.7 7.462,5.25 7.51,4.9 7.51,4.9 L 7.796,5.1 7.51,4.9 c 0,0 0.524,0.3 0.572,0.65 l 0.143,0.399 c 0,0 0.382,0.4 -0.381,0.899 -0.764,0.499 -3.53,0.999 -3.912,1.998 -0.286,0.949 0,2.946 0,2.946 0,0 1.049,-2.647 2.147,-2.946 l 1.24,-0.25 0.095,-0.35 -0.095,0.35 c 0,0 0.048,-0.599 0.572,-0.899 0.525,-0.399 1.05,-0.449 1.431,-0.449 l 0.287,0 L 9.466,5.3 9.656,4.751 c 0,0 -0.62,-0.1 -0.763,-0.2 L 8.273,3.902 z"
               inkscape:connector-curvature="0"
               style="fill:#000000;fill-opacity:0.29800002" />
          </g>
          <g
             id="drawingObject5">
            <path
               id="path5"
               d="m 5.84,2.953 c 0.143,0.05 0.286,0.3 0.429,0.699 0.143,0.549 0.191,1.099 0.143,1.648 0,0 -0.667,-0.4 -3.196,0.999 -3.1,1.748 -3.911,4.095 -3.911,4.095 l 2.385,0.999 c 2.003,0.849 2.624,0.599 2.624,0.599 0,0 0.095,-1.948 1.383,-2.997 1.622,-1.498 3.482,-1.648 3.482,-1.648 0,0 0.668,-2.297 -0.095,-3.146 C 8.416,3.502 7.319,3.103 5.84,2.953 z M 7.223,5.55 C 7.891,5.1 7.653,4.101 7.653,4.101 8.416,4.701 8.464,6.449 8.464,6.449 L 5.983,6.848 Q 5.172,6.948 3.789,7.647 L 2.501,8.246 3.026,7.747 2.501,8.246 c 0,0 0.763,-0.948 2.003,-1.548 C 5.697,6.149 6.603,6.149 7.223,5.55 z"
               inkscape:connector-curvature="0"
               style="fill:#fff4b8" />
          </g>
          <g
             id="drawingObject6">
            <path
               id="path9"
               d="M 8.855,6.7 C 8.862,7.087 8.459,7.291 7.586,7.311 6.773,7.394 5.966,7.801 5.733,7.806 5.559,7.81 5.96,7.478 6.132,7.344 6.247,7.277 5.491,7.359 4.567,7.704 L 2.488,8.528 c 0,0 -0.009,-0.453 0.443,-1.109 C 3.383,6.697 3.957,6.296 3.957,6.296 l -2.476,1.35 c -1.545,1.393 -2.041,2.762 -2.041,2.762 l 2.347,0.98 c 1.644,0.673 2.342,0.657 2.515,0.588 C 4.344,11.135 4.672,10.093 5.01,9.504 5.404,8.848 6.261,7.988 7.417,7.573 Q 7.995,7.366 8.747,7.155 9.209,6.95 9.205,6.756 C 9.257,6.432 8.844,6.183 8.844,6.183 L 9.023,6.373 8.844,6.183 8.855,6.7 z"
               inkscape:connector-curvature="0"
               style="fill:#e3daa4" />
          </g>
          <g
             id="drawingObject7">
            <path
               id="path10"
               d="M 1.665,8.159 C 1.603,7.966 1.255,8.039 0.91,8.241 c -1.084,1.124 -1.47,2.167 -1.47,2.167 l 2.347,0.98 c 1.644,0.673 2.342,0.657 2.515,0.588 C 4.344,11.135 4.672,10.093 5.01,9.504 5.235,9.111 5.635,8.713 6.151,8.314 L 5.159,8.207 C 4.983,8.147 4.75,8.152 4.519,8.222 Q 4.404,8.289 4.466,8.482 4.527,8.61 4.586,8.673 L 3.712,8.629 C 3.596,8.631 3.254,9.027 2.965,9.098 2.675,9.17 2.384,9.176 2.149,9.053 1.913,8.929 1.789,8.544 1.665,8.159 z"
               inkscape:connector-curvature="0"
               style="fill:#c9bf83" />
          </g>
          <g
             id="drawingObject8">
            <path
               id="path11"
               d="M 7.653,3.402 6.508,3.153 6.842,4.851 c 0,0 0.286,-0.7 0.286,-0.949 0,-0.3 0.286,0.05 0.143,0.549 L 7.51,3.752 c 0.143,0 0.524,0.399 0.906,1.049 L 8.75,5.55 8.845,4.851 9.132,4.501 C 8.559,3.902 8.082,3.552 7.653,3.402 z"
               inkscape:connector-curvature="0"
               style="fill:#fff8d4" />
          </g>
        </g>
      </g>
    </g>
  </g>
</svg>
