<?xml version="1.0" encoding="UTF-8" standalone="no"?>
<!-- Generator: flash2svg, http://dissentgraphics.com/tools/flash2svg -->

<svg
   xmlns:dc="http://purl.org/dc/elements/1.1/"
   xmlns:cc="http://creativecommons.org/ns#"
   xmlns:rdf="http://www.w3.org/1999/02/22-rdf-syntax-ns#"
   xmlns:svg="http://www.w3.org/2000/svg"
   xmlns="http://www.w3.org/2000/svg"
   xmlns:sodipodi="http://sodipodi.sourceforge.net/DTD/sodipodi-0.dtd"
   xmlns:inkscape="http://www.inkscape.org/namespaces/inkscape"
   id="AvatarAssets"
   image-rendering="auto"
   version="1.1"
   x="0px"
   y="0px"
   width="18.362658"
   height="10.963459"
   viewBox="0 0 18.362658 10.963459"
   inkscape:version="0.48.4 r9939"
   sodipodi:docname="AvatarAssets_shoeCloseD011.svg">
  <metadata
     id="metadata3352">
    <rdf:RDF>
      <cc:Work
         rdf:about="">
        <dc:format>image/svg+xml</dc:format>
        <dc:type
           rdf:resource="http://purl.org/dc/dcmitype/StillImage" />
      </cc:Work>
    </rdf:RDF>
  </metadata>
  <sodipodi:namedview
     pagecolor="#ffffff"
     bordercolor="#666666"
     borderopacity="1"
     objecttolerance="10"
     gridtolerance="10"
     guidetolerance="10"
     inkscape:pageopacity="0"
     inkscape:pageshadow="2"
     inkscape:window-width="640"
     inkscape:window-height="480"
     id="namedview3350"
     showgrid="false"
     fit-margin-top="0"
     fit-margin-left="0"
     fit-margin-right="0"
     fit-margin-bottom="0"
     inkscape:zoom="1.9032258"
     inkscape:cx="36.94224"
     inkscape:cy="-48.075725"
     inkscape:window-x="0"
     inkscape:window-y="0"
     inkscape:window-maximized="0"
     inkscape:current-layer="AvatarAssets" />
  <defs
     id="defs3330" />
  <g
     id="shoeCloseD12"
     overflow="visible"
     style="overflow:visible"
     transform="translate(4.9422397,-2.9608158)">
    <g
       id="shoeCloseD011_0">
      <g
         id="element">
        <g
           id="group1">
          <g
             id="drawingObject">
            <path
               id="path"
               d="M 13.237,7.598 12.084,8.202 11.103,8.41 11.371,8.586 11.103,8.41 c 0,0 0.537,0.239 0.522,0.923 -0.067,0.569 -0.293,0.964 -0.84,1.18 l -1.088,0.149 c 0,0 0.197,0.917 -0.842,1.294 -1.041,0.435 -1.527,0.368 -1.903,0.189 L 6.258,11.618 6.26,11.561 5.989,11.555 c 0,0 -1.196,0.09 -2.6,-0.167 C 1.984,11.131 1.033,10.028 -0.048,9.834 -0.642,9.708 -1.233,9.468 -1.823,9.17 -2.627,8.755 -3.163,8.459 -3.375,8.226 L -4.942,7.966 C -4.946,8.137 -4.9,8.48 -4.8,8.881 c 0.045,0.4 0.471,0.751 1.167,1.165 0.696,0.413 1.983,1.067 3.97,1.963 1.987,0.897 3.494,1.441 4.629,1.635 1.026,0.193 1.892,0.267 2.489,0.28 0.596,0.012 1.472,-0.369 2.576,-1.202 1.103,-0.833 1.99,-1.67 2.715,-2.567 0.672,-0.956 0.854,-1.808 0.491,-2.557 z"
               inkscape:connector-curvature="0"
               style="fill:#875113" />
          </g>
          <g
             id="drawingObject1">
            <path
               id="path1"
               d="M 13.227,8.054 C 13.179,7.768 13.181,7.654 13.236,7.655 L 12.304,8.092 Q 12.082,8.316 11.593,8.363 L 11.103,8.41 11.371,8.586 11.103,8.41 c 0,0 0.537,0.239 0.522,0.923 -0.067,0.569 -0.293,0.964 -0.84,1.18 l -1.088,0.149 c 0,0 0.197,0.917 -0.842,1.294 -1.041,0.435 -1.527,0.368 -1.903,0.189 L 6.258,11.618 6.26,11.561 5.989,11.555 c 0,0 -1.196,0.09 -2.6,-0.167 C 2.902,11.321 2.312,11.023 1.563,10.552 0.813,10.137 0.169,9.839 -0.371,9.714 -0.91,9.588 -1.61,9.346 -2.523,8.928 -3.436,8.51 -4.022,8.042 -4.281,7.523 -4.991,7.737 -5,8.136 -4.362,8.719 c 0.585,0.525 2.247,1.358 4.937,2.383 2.689,1.025 4.629,1.578 5.821,1.659 1.191,0.082 2.117,-0.07 2.775,-0.399 0.605,-0.387 1.489,-1.11 2.545,-2.229 1.055,-1.118 1.559,-1.792 1.511,-2.079 z"
               inkscape:connector-curvature="0"
               style="fill:#c79140" />
          </g>
          <g
             id="group2">
            <g
               id="drawingObject2">
              <path
                 id="path2"
                 d="m 9.909,10.895 c 0,0 1.19,0.138 1.372,-0.714 l -0.496,0.332 -1.362,0.258 c -0.179,0.737 -0.405,1.132 -0.734,1.296 -0.382,0.106 -0.871,0.153 -1.469,0.198 0.65,0.07 1.192,0.082 1.57,0.146 0.378,0.065 0.768,-0.383 1.059,-1.29 l 0.06,-0.226 z M 6.258,11.618 6.26,11.561 5.989,11.555 c 0,0 -1.196,0.09 -2.6,-0.167 C 1.984,11.131 1.033,10.028 -0.048,9.834 -0.211,9.831 -0.319,9.829 -0.643,9.765 c 0.324,0.064 0.592,0.183 0.915,0.304 0.539,0.182 0.967,0.419 1.285,0.768 0.212,0.232 1.019,0.534 2.366,0.904 1.294,0.369 2.053,0.384 2.276,0.104 0.32,0.235 0.644,0.298 0.968,0.362 C 7.114,12.149 7.006,12.147 6.952,12.145 L 6.258,11.618 z"
                 inkscape:connector-curvature="0"
                 style="fill:#875113" />
            </g>
            <g
               id="drawingObject3">
              <path
                 id="path5"
                 d="M 12.38,8.185 C 12.491,8.069 12.494,7.951 12.388,7.831 L 12.33,7.948 c -0.28,0.348 -1.207,0.329 -1.207,0.329 l 0.492,-0.049 -0.492,0.049 0.424,0.539 C 11.823,8.704 12.099,8.532 12.38,8.185 z"
                 inkscape:connector-curvature="0"
                 style="fill:#875113" />
            </g>
          </g>
        </g>
        <g
           id="group3">
          <g
             id="drawingObject4">
            <path
               id="path6"
               d="M 10.93,6.701 Q 9.894,5.746 7.446,6.026 l 0,0.025 c -1.611,0.15 -3.171,0.45 -4.627,0.85 -1.456,0.4 -2.392,1.1 -2.756,2.15 -0.416,1 -0.364,1.55 0.104,1.65 0.468,0.1 1.04,-0.25 1.716,-1.1 0.624,-0.85 1.768,-1.45 3.38,-1.75 1.611,-0.35 2.911,-0.45 3.951,-0.4 1.04,0.05 1.56,0.1 1.612,0.25 0.052,0.1 0.312,0.3 0.884,0.55 0.156,-0.4 -0.104,-0.9 -0.78,-1.55 z"
               inkscape:connector-curvature="0"
               style="fill:#583d10" />
          </g>
          <g
             id="drawingObject5">
            <path
               id="path7"
               d="m 7.602,3.851 0.572,0.55 c 0.364,1 0.416,1.75 0.052,2.25 l 0.52,0.15 0.468,0.4 C 9.474,6.451 9.63,5.751 9.682,5.151 9.734,4.501 9.37,3.901 8.694,3.301 8.018,2.701 7.654,2.901 7.602,3.851 z"
               inkscape:connector-curvature="0"
               style="fill:#583d10" />
          </g>
        </g>
      </g>
    </g>
  </g>
</svg>
