<?xml version="1.0" encoding="UTF-8" standalone="no"?>
<!-- Generator: flash2svg, http://dissentgraphics.com/tools/flash2svg -->

<svg
   xmlns:dc="http://purl.org/dc/elements/1.1/"
   xmlns:cc="http://creativecommons.org/ns#"
   xmlns:rdf="http://www.w3.org/1999/02/22-rdf-syntax-ns#"
   xmlns:svg="http://www.w3.org/2000/svg"
   xmlns="http://www.w3.org/2000/svg"
   xmlns:xlink="http://www.w3.org/1999/xlink"
   xmlns:sodipodi="http://sodipodi.sourceforge.net/DTD/sodipodi-0.dtd"
   xmlns:inkscape="http://www.inkscape.org/namespaces/inkscape"
   id="AvatarAssets"
   image-rendering="auto"
   version="1.1"
   x="0px"
   y="0px"
   width="13.05"
   height="13.373631"
   viewBox="0 0 13.05 13.373631"
   inkscape:version="0.48.4 r9939"
   sodipodi:docname="AvatarAssets_pantsLegLowerClose20101103Black.svg">
  <metadata
     id="metadata3156">
    <rdf:RDF>
      <cc:Work
         rdf:about="">
        <dc:format>image/svg+xml</dc:format>
        <dc:type
           rdf:resource="http://purl.org/dc/dcmitype/StillImage" />
      </cc:Work>
    </rdf:RDF>
  </metadata>
  <sodipodi:namedview
     pagecolor="#ffffff"
     bordercolor="#666666"
     borderopacity="1"
     objecttolerance="10"
     gridtolerance="10"
     guidetolerance="10"
     inkscape:pageopacity="0"
     inkscape:pageshadow="2"
     inkscape:window-width="640"
     inkscape:window-height="480"
     id="namedview3154"
     showgrid="false"
     fit-margin-top="0"
     fit-margin-left="0"
     fit-margin-right="0"
     fit-margin-bottom="0"
     inkscape:zoom="1.9032258"
     inkscape:cx="38.099"
     inkscape:cy="-51.892462"
     inkscape:window-x="0"
     inkscape:window-y="0"
     inkscape:window-maximized="0"
     inkscape:current-layer="AvatarAssets" />
  <defs
     id="defs3011">
    <pattern
       id="bitmap"
       patternContentUnits="userSpaceOnUse"
       patternUnits="userSpaceOnUse"
       width="200"
       height="200"
       viewBox="0 0 200 200"
       patternTransform="matrix(1 0 0 1 171.45 152.45)">
      <symbol
         id="Denim_Texture_Black_symbol"
         viewBox="0 0 200 200">
        <image
           sodipodi:absref="C:\Users\Training\Documents\GitHub\Glitchen-Avatar-Engine\glitch-avatars-svg\base_avatar\AvatarAssets.fla\clothing\side\Denim Texture Black"
           xlink:href="Denim Texture Black"
           height="200"
           width="200"
           id="Denim_Texture_Black" />
      </symbol>
      <use
         id="Denim_Texture_Black_use"
         width="200"
         height="200"
         y="0"
         x="0"
         xlink:href="#Denim_Texture_Black_symbol"
         externalResourcesRequired="true" />
    </pattern>
    <linearGradient
       gradientUnits="userSpaceOnUse"
       color-interpolation="sRGB"
       x1="372.07501"
       y1="697.45001"
       x2="383.22501"
       y2="697.45001"
       id="linearGradient">
      <stop
         stop-color="#000"
         stop-opacity="0.24705882352941178"
         offset="0"
         id="stop3018" />
      <stop
         stop-color="#000"
         stop-opacity="0.24705882352941178"
         offset="0.85882"
         id="stop3020" />
      <stop
         stop-color="#000"
         stop-opacity="0.24705882352941178"
         offset="1"
         id="stop3022" />
    </linearGradient>
    <linearGradient
       gradientUnits="userSpaceOnUse"
       color-interpolation="sRGB"
       x1="375.08749"
       y1="696.79999"
       x2="376.41251"
       y2="696.79999"
       id="linearGradient1">
      <stop
         stop-color="#000"
         stop-opacity="0.24705882352941178"
         offset="0"
         id="stop3025" />
      <stop
         stop-color="#000"
         stop-opacity="0.24705882352941178"
         offset="0.85882"
         id="stop3027" />
      <stop
         stop-color="#000"
         stop-opacity="0.24705882352941178"
         offset="1"
         id="stop3029" />
    </linearGradient>
    <linearGradient
       gradientUnits="userSpaceOnUse"
       color-interpolation="sRGB"
       x1="375.91251"
       y1="697.54999"
       x2="380.6875"
       y2="697.54999"
       id="linearGradient2">
      <stop
         stop-color="#F7FFFF"
         stop-opacity="0.08627450980392157"
         offset="0"
         id="stop3032" />
      <stop
         stop-color="#F7FFFF"
         stop-opacity="0.08627450980392157"
         offset="0.85882"
         id="stop3034" />
      <stop
         stop-color="#F7FFFF"
         stop-opacity="0.08627450980392157"
         offset="1"
         id="stop3036" />
    </linearGradient>
    <linearGradient
       gradientUnits="userSpaceOnUse"
       color-interpolation="sRGB"
       x1="372.07501"
       y1="697.29999"
       x2="376.72501"
       y2="697.29999"
       id="linearGradient3">
      <stop
         stop-color="#000"
         stop-opacity="0.24705882352941178"
         offset="0"
         id="stop3039" />
      <stop
         stop-color="#000"
         stop-opacity="0.24705882352941178"
         offset="0.85882"
         id="stop3041" />
      <stop
         stop-color="#000"
         stop-opacity="0.24705882352941178"
         offset="1"
         id="stop3043" />
    </linearGradient>
    <pattern
       id="bitmap1"
       patternContentUnits="userSpaceOnUse"
       patternUnits="userSpaceOnUse"
       width="200"
       height="200"
       viewBox="0 0 200 200"
       patternTransform="matrix(1 0 0 1 171.9 157)">
      <symbol
         id="Denim_Texture_Black_symbol1"
         viewBox="0 0 200 200">
        <image
           sodipodi:absref="C:\Users\Training\Documents\GitHub\Glitchen-Avatar-Engine\glitch-avatars-svg\base_avatar\AvatarAssets.fla\clothing\side\Denim Texture Black"
           xlink:href="Denim Texture Black"
           height="200"
           width="200"
           id="Denim_Texture_Black1" />
      </symbol>
      <use
         id="Denim_Texture_Black_use1"
         width="200"
         height="200"
         y="0"
         x="0"
         xlink:href="#Denim_Texture_Black_symbol1"
         externalResourcesRequired="true" />
    </pattern>
    <linearGradient
       gradientUnits="userSpaceOnUse"
       color-interpolation="sRGB"
       x1="372.35001"
       y1="700.65002"
       x2="383.04999"
       y2="700.65002"
       id="linearGradient4">
      <stop
         stop-color="#F7FFFF"
         stop-opacity="0.08627450980392157"
         offset="0"
         id="stop3050" />
      <stop
         stop-color="#F7FFFF"
         stop-opacity="0.08627450980392157"
         offset="0.85882"
         id="stop3052" />
      <stop
         stop-color="#F7FFFF"
         stop-opacity="0.08627450980392157"
         offset="1"
         id="stop3054" />
    </linearGradient>
    <linearGradient
       gradientUnits="userSpaceOnUse"
       color-interpolation="sRGB"
       x1="371.5625"
       y1="702.15002"
       x2="384.63751"
       y2="702.15002"
       id="linearGradient5">
      <stop
         stop-color="#000"
         stop-opacity="0.24705882352941178"
         offset="0"
         id="stop3057" />
      <stop
         stop-color="#000"
         stop-opacity="0.24705882352941178"
         offset="0.85882"
         id="stop3059" />
      <stop
         stop-color="#000"
         stop-opacity="0.24705882352941178"
         offset="1"
         id="stop3061" />
    </linearGradient>
    <linearGradient
       gradientUnits="userSpaceOnUse"
       color-interpolation="sRGB"
       x1="371.53751"
       y1="702.15002"
       x2="379.0625"
       y2="702.15002"
       id="linearGradient6">
      <stop
         stop-color="#000"
         stop-opacity="0.24705882352941178"
         offset="0"
         id="stop3064" />
      <stop
         stop-color="#000"
         stop-opacity="0.24705882352941178"
         offset="0.85882"
         id="stop3066" />
      <stop
         stop-color="#000"
         stop-opacity="0.24705882352941178"
         offset="1"
         id="stop3068" />
    </linearGradient>
    <pattern
       id="bitmap2"
       patternContentUnits="userSpaceOnUse"
       patternUnits="userSpaceOnUse"
       width="200"
       height="200"
       viewBox="0 0 200 200"
       patternTransform="matrix(1 0 0 1 -99.999 -97.049)">
      <symbol
         id="symbol3071"
         viewBox="0 0 200 200">
        <image
           sodipodi:absref="C:\Users\Training\Documents\GitHub\Glitchen-Avatar-Engine\glitch-avatars-svg\base_avatar\AvatarAssets.fla\clothing\side\Denim Texture Black"
           xlink:href="Denim Texture Black"
           height="200"
           width="200"
           id="image3073" />
      </symbol>
      <use
         id="use3075"
         width="200"
         height="200"
         y="0"
         x="0"
         xlink:href="#Denim_Texture_Black_symbol"
         externalResourcesRequired="true" />
    </pattern>
    <linearGradient
       gradientUnits="userSpaceOnUse"
       color-interpolation="sRGB"
       x1="-5.5739999"
       y1="3.0009999"
       x2="5.5760002"
       y2="3.0009999"
       id="linearGradient7">
      <stop
         stop-color="#000"
         stop-opacity="0.24705882352941178"
         offset="0"
         id="stop3078" />
      <stop
         stop-color="#000"
         stop-opacity="0.24705882352941178"
         offset="0.85882"
         id="stop3080" />
      <stop
         stop-color="#000"
         stop-opacity="0.24705882352941178"
         offset="1"
         id="stop3082" />
    </linearGradient>
    <linearGradient
       gradientUnits="userSpaceOnUse"
       color-interpolation="sRGB"
       x1="-2.562"
       y1="2.3510001"
       x2="-1.2359999"
       y2="2.3510001"
       id="linearGradient8">
      <stop
         stop-color="#000"
         stop-opacity="0.24705882352941178"
         offset="0"
         id="stop3085" />
      <stop
         stop-color="#000"
         stop-opacity="0.24705882352941178"
         offset="0.85882"
         id="stop3087" />
      <stop
         stop-color="#000"
         stop-opacity="0.24705882352941178"
         offset="1"
         id="stop3089" />
    </linearGradient>
    <linearGradient
       gradientUnits="userSpaceOnUse"
       color-interpolation="sRGB"
       x1="-1.7359999"
       y1="3.1010001"
       x2="3.0380001"
       y2="3.1010001"
       id="linearGradient9">
      <stop
         stop-color="#F7FFFF"
         stop-opacity="0.08627450980392157"
         offset="0"
         id="stop3092" />
      <stop
         stop-color="#F7FFFF"
         stop-opacity="0.08627450980392157"
         offset="0.85882"
         id="stop3094" />
      <stop
         stop-color="#F7FFFF"
         stop-opacity="0.08627450980392157"
         offset="1"
         id="stop3096" />
    </linearGradient>
    <linearGradient
       gradientUnits="userSpaceOnUse"
       color-interpolation="sRGB"
       x1="-5.5739999"
       y1="2.8510001"
       x2="-0.92400002"
       y2="2.8510001"
       id="linearGradient10">
      <stop
         stop-color="#000"
         stop-opacity="0.24705882352941178"
         offset="0"
         id="stop3099" />
      <stop
         stop-color="#000"
         stop-opacity="0.24705882352941178"
         offset="0.85882"
         id="stop3101" />
      <stop
         stop-color="#000"
         stop-opacity="0.24705882352941178"
         offset="1"
         id="stop3103" />
    </linearGradient>
    <pattern
       id="bitmap3"
       patternContentUnits="userSpaceOnUse"
       patternUnits="userSpaceOnUse"
       width="200"
       height="200"
       viewBox="0 0 200 200"
       patternTransform="matrix(1 0 0 1 -99.549 -92.499)">
      <symbol
         id="symbol3106"
         viewBox="0 0 200 200">
        <image
           sodipodi:absref="C:\Users\Training\Documents\GitHub\Glitchen-Avatar-Engine\glitch-avatars-svg\base_avatar\AvatarAssets.fla\clothing\side\Denim Texture Black"
           xlink:href="Denim Texture Black"
           height="200"
           width="200"
           id="image3108" />
      </symbol>
      <use
         id="use3110"
         width="200"
         height="200"
         y="0"
         x="0"
         xlink:href="#Denim_Texture_Black_symbol1"
         externalResourcesRequired="true" />
    </pattern>
    <linearGradient
       gradientUnits="userSpaceOnUse"
       color-interpolation="sRGB"
       x1="-5.2989998"
       y1="6.2010002"
       x2="5.401"
       y2="6.2010002"
       id="linearGradient11">
      <stop
         stop-color="#F7FFFF"
         stop-opacity="0.08627450980392157"
         offset="0"
         id="stop3113" />
      <stop
         stop-color="#F7FFFF"
         stop-opacity="0.08627450980392157"
         offset="0.85882"
         id="stop3115" />
      <stop
         stop-color="#F7FFFF"
         stop-opacity="0.08627450980392157"
         offset="1"
         id="stop3117" />
    </linearGradient>
    <linearGradient
       gradientUnits="userSpaceOnUse"
       color-interpolation="sRGB"
       x1="-6.0869999"
       y1="7.7010002"
       x2="6.9889998"
       y2="7.7010002"
       id="linearGradient12">
      <stop
         stop-color="#000"
         stop-opacity="0.24705882352941178"
         offset="0"
         id="stop3120" />
      <stop
         stop-color="#000"
         stop-opacity="0.24705882352941178"
         offset="0.85882"
         id="stop3122" />
      <stop
         stop-color="#000"
         stop-opacity="0.24705882352941178"
         offset="1"
         id="stop3124" />
    </linearGradient>
    <linearGradient
       gradientUnits="userSpaceOnUse"
       color-interpolation="sRGB"
       x1="-6.1110001"
       y1="7.7010002"
       x2="1.413"
       y2="7.7010002"
       id="linearGradient13">
      <stop
         stop-color="#000"
         stop-opacity="0.24705882352941178"
         offset="0"
         id="stop3127" />
      <stop
         stop-color="#000"
         stop-opacity="0.24705882352941178"
         offset="0.85882"
         id="stop3129" />
      <stop
         stop-color="#000"
         stop-opacity="0.24705882352941178"
         offset="1"
         id="stop3131" />
    </linearGradient>
  </defs>
  <g
     id="pantsLegLowerClose20101103Black1"
     overflow="visible"
     style="overflow:visible"
     transform="translate(6.099,3.2660933)">
    <g
       id="pantsLegLowerClose20101103Black_0">
      <g
         id="element">
        <g
           id="drawingObject">
          <path
             id="path"
             d="m 5.051,-0.799 c -0.25,-1.05 -2.25,-2.65 -4.95,-2.45 q -1.15,0.1 -2.5,0.7 -1.4,0.6 -1.8,1.3 c -0.55,0.95 -0.35,2.45 -0.5,4.15 -0.2,1.7 -0.9,3.75 -0.9,3.75 l 1.05,1.1 -1.05,-1.1 c 0,0 1.3,2.1 4.4,2.35 3.1,0.25 4.4,-0.4 5.5,-1.1 1.1,-0.7 1.25,-1.6 1.25,-1.6 l -0.2,0.55 0.2,-0.55 c 0,0 -0.7,-3.75 -0.6,-5 0.1,-1.2 0.15,-1.85 0.1,-2.1 z"
             inkscape:connector-curvature="0"
             style="fill:url(#bitmap2)" />
        </g>
        <g
           id="drawingObject1">
          <path
             id="path1"
             d="m 4.701,3.701 0.25,-1.9 c -0.15,1.1 0.15,2.8 -2.1,3.5 q -1.45,0.45 -2.5,-0.55 -0.75,-0.7 -1.1,-1.9 c -0.4,-1.1 -0.3,-1.7 0.8,-1.85 1.1,-0.2 3.4,0.05 3.4,0.05 l -0.75,-0.25 c -0.75,-0.2 -1.7,-0.75 -2.9,-2.25 -0.6,-0.8 -0.8,-1.25 -0.85,-1.6 -1.35,0.35 -2.75,1.05 -3.15,1.8 -0.55,0.95 -0.35,2.45 -0.5,4.15 -0.2,1.7 -0.9,3.75 -0.9,3.75 l 1.05,1.1 -1.05,-1.1 c 0,0 1.3,2.1 4.4,2.35 3.1,0.25 4.4,-0.4 5.5,-1.1 1.1,-0.7 1.25,-1.6 1.25,-1.6 l -0.2,0.55 0.2,-0.55 c 0,0 -0.55,-3 -0.6,-4.5"
             inkscape:connector-curvature="0"
             style="fill:url(#linearGradient7)" />
        </g>
        <g
           id="drawingObject2">
          <path
             id="path2"
             d="m -1.899,2.551 c 0.2,-0.9 0.7,-2.1 0.7,-2.85 l -0.1,-1.65 -0.05,1.05 q -0.1,1.2 -0.45,2 c -0.5,1.25 -0.65,2.45 -0.7,3.85 -0.1,1.35 0,1.75 0,1.75 0,0 0.35,-3.3 0.6,-4.15 z"
             inkscape:connector-curvature="0"
             style="fill:url(#linearGradient8)" />
        </g>
        <g
           id="drawingObject3">
          <path
             id="path3"
             d="m -1.099,-0.549 q -0.05,1.3 -0.35,2.1 c -0.4,1.35 -0.3,3.45 -0.3,4.05 0,0.65 0.45,1.5 1,1.85 0.5,0.35 1.75,0.6 2.8,0.35 L 2.476,7.726 2.501,7.751 c -0.25,0 -0.55,0 -0.8,0.05 -1,0 -1.7,-0.25 -2.15,-0.75 -1.05,-1.15 -1.2,-2.55 -0.95,-4.2 0.35,-2.05 0.65,-4.2 0.3,-4.55 l 0,1.15 z"
             inkscape:connector-curvature="0"
             style="fill:url(#linearGradient9)" />
        </g>
        <g
           id="drawingObject4">
          <path
             id="path4"
             d="m -0.949,7.901 -1.1,-0.6 q -0.7,-0.4 -0.95,-0.75 -0.2,-0.4 -0.35,-0.65 c -0.25,-0.45 -0.15,-1.7 -0.05,-2.55 l 0.35,-2.85 0.7,-0.65 c 0.05,-0.1 -0.3,-0.2 -0.45,-0.85 -0.1,-0.45 0.05,-1 0.25,-1.5 -0.75,0.35 -1.4,0.8 -1.65,1.25 -0.55,0.95 -0.35,2.45 -0.5,4.15 -0.2,1.7 -0.9,3.75 -0.9,3.75 l 0.45,0.5 -0.45,-0.5 c 0,0 0.55,0.85 1.75,1.55 l -0.05,-0.1 c -0.1,-0.4 0.3,-0.85 1.1,-0.65 l 1.85,0.45 z"
             inkscape:connector-curvature="0"
             style="fill:url(#linearGradient10)" />
        </g>
        <g
           id="drawingObject5">
          <path
             id="path5"
             d="m 5.401,4.801 c 0,0 -0.55,1.05 -2.4,1.8 q -1.5,0.6 -2.45,0.6 -1.1,0.05 -3.45,-0.5 c -2,-0.45 -2.4,-1.35 -2.4,-1.35 l 0.45,0.5 -0.45,-0.5 -0.1,0.5 c -0.1,0.5 -0.7,1.05 -0.7,1.05 l 0.25,0.65 c 0.25,0.6 2,2.05 3.6,2.25 1.55,0.2 4.4,1 6.85,-1.2 0.95,-0.9 2.35,-1.55 2.35,-1.55 l -0.8,0.45 0.8,-0.45 c 0,0 -0.55,-0.2 -1.05,-0.7 -0.45,-0.45 -0.5,-1.55 -0.5,-1.55 z"
             inkscape:connector-curvature="0"
             style="fill:url(#bitmap3)" />
        </g>
        <g
           id="drawingObject6">
          <path
             id="path6"
             d="m 3.001,6.601 c -1.9,0.75 -2.65,0.85 -5.9,0.1 -2,-0.45 -2.4,-1.35 -2.4,-1.35 l 0.45,0.5 -0.45,-0.5 0.35,0.5 -0.35,-0.5 c 0,0 0.2,0.85 2.3,1.55 q 2.65,0.9 4,0.7 c 0.7,-0.15 1.6,-0.45 2.45,-0.9 0.8,-0.45 2,-1.4 1.95,-1.9 0,0 -0.55,1.05 -2.4,1.8 z"
             inkscape:connector-curvature="0"
             style="fill:url(#linearGradient11)" />
        </g>
        <g
           id="drawingObject7">
          <path
             id="path7"
             d="m 0.401,8.201 c -1.05,-0.05 -2.5,-0.95 -2.8,-1.4 l -0.5,-0.1 c -2,-0.45 -2.4,-1.35 -2.4,-1.35 l 0.45,0.5 -0.45,-0.5 -0.1,0.5 c -0.1,0.5 -0.7,1.05 -0.7,1.05 l 0.25,0.65 c 0.25,0.6 2,2.05 3.6,2.25 1.55,0.2 4.4,1 6.85,-1.2 0.95,-0.9 2.35,-1.55 2.35,-1.55 l -0.8,0.45 0.8,-0.45 0,-0.05 c -0.95,0.15 -2.6,1.15 -3.3,1.7 -0.75,0.6 -1.55,0.65 -1.6,0.15 q 0,-0.3 0.9,-1 l 0.9,-0.65 -0.8,0.4 c -0.65,0.35 -1.5,0.65 -2.65,0.6 z"
             inkscape:connector-curvature="0"
             style="fill:url(#linearGradient12)" />
        </g>
        <g
           id="drawingObject8">
          <path
             id="path8"
             d="m -2.249,9.801 c 0.9,0.1 2.25,0.4 3.7,0.25 q -1.95,-0.1 -3.75,-0.95 c -1.4,-0.7 -1.65,-1.8 -1.6,-2.7 -1.1,-0.5 -1.4,-1.05 -1.4,-1.05 l 0.3,0.35 -0.3,-0.35 -0.1,0.5 c -0.1,0.5 -0.7,1.05 -0.7,1.05 l 0.25,0.65 c 0.25,0.6 2,2.05 3.6,2.25 z"
             inkscape:connector-curvature="0"
             style="fill:url(#linearGradient13)" />
        </g>
      </g>
    </g>
  </g>
</svg>
