<?xml version="1.0" encoding="UTF-8" standalone="no"?>
<!-- Generator: flash2svg, http://dissentgraphics.com/tools/flash2svg -->

<svg
   xmlns:dc="http://purl.org/dc/elements/1.1/"
   xmlns:cc="http://creativecommons.org/ns#"
   xmlns:rdf="http://www.w3.org/1999/02/22-rdf-syntax-ns#"
   xmlns:svg="http://www.w3.org/2000/svg"
   xmlns="http://www.w3.org/2000/svg"
   xmlns:sodipodi="http://sodipodi.sourceforge.net/DTD/sodipodi-0.dtd"
   xmlns:inkscape="http://www.inkscape.org/namespaces/inkscape"
   id="AvatarAssets"
   image-rendering="auto"
   version="1.1"
   x="0px"
   y="0px"
   width="75.618904"
   height="60.223988"
   viewBox="0 0 75.618904 60.223988"
   inkscape:version="0.48.4 r9939"
   sodipodi:docname="AvatarAssets_sideHair01.svg">
  <metadata
     id="metadata102">
    <rdf:RDF>
      <cc:Work
         rdf:about="">
        <dc:format>image/svg+xml</dc:format>
        <dc:type
           rdf:resource="http://purl.org/dc/dcmitype/StillImage" />
      </cc:Work>
    </rdf:RDF>
  </metadata>
  <sodipodi:namedview
     pagecolor="#ffffff"
     bordercolor="#666666"
     borderopacity="1"
     objecttolerance="10"
     gridtolerance="10"
     guidetolerance="10"
     inkscape:pageopacity="0"
     inkscape:pageshadow="2"
     inkscape:window-width="640"
     inkscape:window-height="480"
     id="namedview100"
     showgrid="false"
     fit-margin-top="0"
     fit-margin-left="0"
     fit-margin-right="0"
     fit-margin-bottom="0"
     inkscape:zoom="1.9032258"
     inkscape:cx="75.196394"
     inkscape:cy="-31.049"
     inkscape:window-x="0"
     inkscape:window-y="0"
     inkscape:window-maximized="0"
     inkscape:current-layer="AvatarAssets" />
  <defs
     id="defs3" />
  <g
     id="sideHair2"
     overflow="visible"
     style="overflow:visible"
     transform="translate(43.196394,29.272986)">
    <g
       id="sideHair01_1_1">
      <g
         id="element10">
        <path
           id="path20"
           d="m 27.601,-7.299 c 0,0 0.05,-3 -1,-4.4 -1.1,-1.4 -29.85,-11.75 -33.75,-11.1 -3.95,0.7 -7.85,3.6 -9.6,7.85 -1.75,4.25 -3.9,11.4 -3.35,12.6 0.6,1.15 2.7,3.4 3.2,3.8 0.5,0.45 1.4,2.35 1.4,2.35 l 1.05,3 q -0.1,-0.4 -0.15,-0.9 -0.35,-2.9 0.95,-6.1 c 2.05,-5.1 3.4,-6.1 3.4,-6.1 l -0.3,4.8 0.3,-4.8 c 0,0 -0.75,8.95 0,11.6 0.75,2.65 1.4,5.5 0.35,8.85 -1.1,3.3 0.15,5.25 0.65,5.9 l 0.5,0.65 c 0,0 -0.75,-2 0.15,-4.5 0.95,-2.5 1.5,-7.3 1.1,-11.5 -0.4,-4.15 -1,-6.75 0.6,-10.25 1.55,-3.5 2.3,-7 2.25,-8.8 l -0.1,-2.6 6.1,3.85 -6.1,-3.85 c 0,0 9.6,7.25 20,8.9 10.4,1.7 12.35,0.75 12.35,0.75 z"
           inkscape:connector-curvature="0"
           style="fill:#000000;fill-opacity:0.08600003" />
      </g>
      <g
         id="element11">
        <path
           id="path21"
           d="m -19.449,-17.799 c 0,0 -3.65,-7.5 -10.75,-7.5 -7.15,0 -11.15,2.25 -12.5,8.15 -1.4,5.85 0.6,9.1 0.6,9.1 0,0 -0.75,-3 -0.1,-5.5 0.6,-2.5 1.35,-2.85 1.35,-2.85 l -0.45,0.5 0.45,-0.5 -0.65,3.25 0.65,-3.25 c 0,0 -1.75,5.35 -0.1,10.1 1.6,4.75 2.25,7.65 1.1,11 l -1.25,3.9 c 0,0 3.25,-2.5 2.5,-11 -0.6,-7.25 -0.5,-7.25 -0.5,-7.25 l 0.9,4.5 -0.9,-4.5 c 0,0 1.9,8 1.4,12.1 -0.5,4.15 -2.75,7.15 -2.4,12.65 0.5,7.6 4.75,9.35 4.75,9.35 0,0 -3.25,-3.85 -2.85,-9.25 0.3,-4.65 1.35,-5.75 1.35,-5.75 l -0.55,1.15 0.55,-1.15 -0.4,4.7 0.4,-4.7 c 0,0 -1.6,8.5 1.4,12.25 3,3.75 4,3.5 7.25,3.15 2.9,-0.35 3.5,-1.75 3.5,-1.75 l -0.65,0.75 0.65,-0.75 c 0,0 -3.4,-0.15 -5.25,-1.75 -1.5,-1.3 -2.5,-1.5 -2,-5.5 0.45,-3.6 1.75,-5.4 1.75,-5.4 l -0.7,1.35 0.7,-1.35 -0.75,1.95 0.75,-1.95 c 0,0 -1.65,3.25 -1.25,5.9 0.35,2.6 0.6,1.25 0.6,1.25 0,0 -1,-1.25 1.4,-5 2.35,-3.75 2.5,-1.9 2.35,-8.4 -0.1,-6.6 -2,-7.5 -0.35,-10.35 1.6,-2.9 1.6,-2.65 4.25,-1 2.6,1.6 4.25,1.85 5.5,0.5 1.25,-1.4 7.25,-9.9 7.5,-10.5 0.25,-0.65 -4.75,-7.9 -4.75,-7.9 q -1.9,2.25 -2.9,4.4 c -1,2.1 -1.6,2.85 -1.6,2.85 z"
           inkscape:connector-curvature="0"
           style="fill:#707070" />
      </g>
      <g
         id="element12">
        <g
           id="drawingObject22">
          <path
             id="path22"
             d="m -28.499,-21.699 -0.35,0.05 1.95,0.25 -0.1,-0.05 c -1.5,-0.4 -1.85,-0.2 -1.85,-0.2"
             inkscape:connector-curvature="0"
             style="fill:#595959" />
        </g>
        <g
           id="drawingObject23">
          <path
             id="path23"
             d="m -12.749,-13.399 c -0.25,-1.3 -0.5,-2.25 -0.7,-2.65 q -1.3,-2.3 -4.15,-5.05 l -0.25,0.45 c -1,2.1 -1.6,2.85 -1.6,2.85 0,0 -1.3,-2.6 -3.8,-4.75 l -0.35,0.1 1,0.85 c 1,0.9 1.85,2.65 1.85,2.65 l -2.25,-1.25 c -1.2,-0.65 -2.7,-1 -3.9,-1.2 1.55,0.45 5.15,3.2 5.15,3.2 l -1.35,-0.4 c -1.4,-0.35 -3.25,-0.25 -3.25,-0.25 l 1.1,0 -1.1,0 1.75,0.4 c 1.75,0.35 3.35,2.1 3.35,2.1 0,0 -0.6,-0.5 -4.35,-0.85 -3.75,-0.4 -4.25,0.1 -4.25,0.1 l 0.65,0.05 -0.65,-0.05 c 0,0 0.75,0 3,0.5 2.25,0.5 3.85,2.15 3.85,2.15 l -1.6,0 c -1.65,0 -3.75,0.35 -3.75,0.35 l 1.25,-0.15 -1.25,0.15 1.5,0 c 1.5,0 2.85,1.4 2.85,1.4 l -3.6,0.25 c -3.65,0.25 -4.4,2.85 -4.4,2.85 l 1.15,-1 c 1.1,-1 3.1,-0.75 3.1,-0.75 l -1.35,1.15 c -1.4,1.1 -2.25,3.75 -0.75,7.1 1.5,3.4 1.35,8.9 1.35,8.9 l -0.1,-1.65 c -0.15,-1.6 -1.4,-2.5 -1.4,-2.5 l 0.65,0.65 -0.65,-0.65 0.4,1.75 c 0.35,1.75 0,4.5 0,4.5 0,0 0,-0.6 -0.65,-3 -0.6,-2.35 -1.75,-4.85 -1.75,-4.85 l 0.65,1.55 -0.65,-1.55 0.65,3.85 c 0.6,3.9 -0.65,8.75 -0.65,8.75 l 0,-2 c 0,-2 -0.85,-6.25 -0.85,-6.25 l 0.45,2.4 -0.45,-2.4 0,2.15 c 0,0.85 -0.5,3.5 -0.9,6.5 -0.35,3 0.75,8 0.75,8 l -1,-2.15 c -0.55,-1.1 -0.7,-2.7 -0.55,-4.8 l -0.025,0 -0.275,2.7 c -0.4,3.75 1.6,6.5 1.6,6.5 l -1,-1.25 c -1,-1.25 -2.1,-5.5 -1.6,-11.5 0.5,-6 -0.15,-12.75 -0.15,-12.75 l 0.25,4.15 -0.25,-4.15 0,3 c 0,2.35 -0.1,3.1 -1.25,6.25 -1.1,3.1 -2.1,8.6 -2.1,8.6 0,0 -0.15,-0.5 0.35,-4.5 0.5,-4 2,-8.25 1.9,-11.85 -0.15,-3.65 -1.9,-11.25 -1.9,-11.25 l 0.9,4.25 -0.9,-4.25 -0.35,1.25 c -0.4,1.25 -1.15,4.1 -1.15,4.1 0,0 -0.25,-0.75 -0.5,-5 -0.25,-4.25 1.15,-7.5 1.15,-7.5 l -0.65,2.15 0.65,-2.15 -0.3,0.3 0.3,-0.3 c 0,0 -0.5,0.4 -1,1.25 -0.5,0.9 -1.25,1.15 -1.25,1.15 l 0.1,-0.5 c 0.1,-0.35 0.2,-1.9 0.95,-3.9 -0.75,1.1 -1.3,2.4 -1.65,3.95 -1.4,5.85 0.6,9.1 0.6,9.1 0,0 -0.75,-3 -0.1,-5.5 0.6,-2.5 1.35,-2.85 1.35,-2.85 l -0.45,0.5 0.45,-0.5 -0.65,3.25 0.65,-3.25 c 0,0 -1.75,5.35 -0.1,10.1 1.6,4.75 2.25,7.65 1.1,11 l -1.25,3.9 c 0,0 3.25,-2.5 2.5,-11 -0.6,-7.25 -0.5,-7.25 -0.5,-7.25 l 0.9,4.5 -0.9,-4.5 c 0,0 1.9,8 1.4,12.1 -0.5,4.15 -2.75,7.15 -2.4,12.65 0.5,7.6 4.75,9.35 4.75,9.35 0,0 -3.25,-3.85 -2.85,-9.25 0.3,-4.65 1.35,-5.75 1.35,-5.75 l -0.55,1.15 0.55,-1.15 -0.4,4.7 0.4,-4.7 c 0,0 -1.6,8.5 1.4,12.25 3,3.75 4,3.5 7.25,3.15 2.9,-0.35 3.5,-1.75 3.5,-1.75 l -0.65,0.75 0.65,-0.75 c 0,0 -3.4,-0.15 -5.25,-1.75 -1.5,-1.3 -2.5,-1.5 -2,-5.5 0.45,-3.6 1.75,-5.4 1.75,-5.4 l -0.7,1.35 0.7,-1.35 -0.75,1.95 0.75,-1.95 c 0,0 -1.65,3.25 -1.25,5.9 0.35,2.6 0.6,1.25 0.6,1.25 0,0 -1,-1.25 1.4,-5 2.35,-3.75 2.5,-1.9 2.35,-8.4 -0.1,-6.6 -2,-7.5 -0.35,-10.35 1.6,-2.9 1.6,-2.65 4.25,-1 2.6,1.6 4.25,1.85 5.5,0.5 0.75,-0.8 3.1,-4.05 4.95,-6.75 z"
             inkscape:connector-curvature="0"
             style="fill:#595959" />
        </g>
      </g>
      <g
         id="element13">
        <g
           id="drawingObject24">
          <path
             id="path24"
             d="m -29.949,-23.649 -0.4,0 0.5,-0.3 q 0.7,-0.3 1.9,-0.2 c 1.1,0.05 2,0.4 2.6,0.65 -0.85,-0.45 -2.35,-1.15 -3.1,-1.4 0,0 -2.75,-0.65 -5.4,0.1 -2.6,0.75 -4.1,2 -4.1,2 0,0 2.1,-1 4.35,-1.1 l 0.65,-0.05 c -1.1,0.2 -2.6,0.6 -3.65,1.8 -1.85,2.1 -2,2.6 -2,2.6 0,0 1.15,-2.25 4.5,-3.1 3.4,-0.9 6.4,0 6.4,0 0,0 -1.9,-1 -2.25,-1 z"
             inkscape:connector-curvature="0"
             style="fill:#8a8a8a" />
        </g>
        <g
           id="drawingObject25">
          <path
             id="path25"
             d="m -32.199,-22.299 c 0,0 -2,-0.1 -4,1.75 l -0.95,0.9 c 0.9,-0.7 2.35,-1.6 4.05,-1.75 3,-0.25 4.25,-0.25 4.25,-0.25 0,0 -2.1,-0.65 -3.35,-0.65 z"
             inkscape:connector-curvature="0"
             style="fill:#8a8a8a" />
        </g>
        <g
           id="drawingObject26">
          <path
             id="path26"
             d="m -37.499,-15.399 c 0.4,-0.8 1.2,-1.8 2.65,-2.4 q 2.75,-1.1 4,-1.1 c 0,0 -0.35,-0.25 -2.25,-0.65 0,0 -2.85,-0.1 -3.85,2.65 l -0.55,1.5 z"
             inkscape:connector-curvature="0"
             style="fill:#8a8a8a" />
        </g>
        <g
           id="drawingObject27">
          <path
             id="path27"
             d="m -33.349,-16.649 c -0.5,0.15 -1.75,0.35 -2.5,2.1 -0.75,1.75 -0.6,3.4 -0.6,3.4 0,0 1,-2.15 1.6,-2.9 l 0.65,-0.75 -0.45,1.5 0.45,-1.5 c 0,0 -0.9,2.5 -0.75,4.65 l 0.1,2.6 c 0,0 0.25,-2.6 1,-5 0.75,-2.35 1.4,-2.75 1.4,-2.75 l -0.45,1.9 0.45,-1.9 c 0,0 -0.9,3.4 -0.9,5 l 0,1.25 c 0.05,-0.55 0.2,-3.05 1.4,-4.75 1.1,-1.6 2.4,-1.75 2.85,-1.75 l -2.6,-0.1 c 0,0 0.75,-1.15 1.5,-1 l 0.75,0.1 c 0,0 -2,-0.6 -3.9,-0.1 z"
             inkscape:connector-curvature="0"
             style="fill:#8a8a8a" />
        </g>
      </g>
      <g
         id="element14">
        <path
           id="path28"
           d="m 26.851,-15.299 c -3,-5.15 -8.85,-11.15 -16,-13.15 -7.2,-2 -23.85,-0.35 -27.5,4.85 -3.7,5.15 -4,7.3 -4,7.3 0,0 -6.2,8 -4,16 2.15,8 4.65,10.85 6.15,12 l 1.5,1.2 c 0,0 -1.15,-1.35 -1.65,-3.5 -0.5,-2.2 -0.2,-3.5 -0.2,-3.5 l -0.1,0.95 0.1,-0.95 1.45,2.5 -1.45,-2.5 c 0,0 2.5,4.65 4.2,6.15 l 1.575,1.425 0.025,0.025 c -0.45,-0.4 -0.85,-0.95 -1.3,-1.7 -0.95,-1.45 -1.5,-3 -1.65,-4.6 l -0.35,-3.8 2.5,5.3 c 0,0 -1.3,-3.15 -1.15,-7 0.15,-3.8 1.15,-6.3 3.15,-9.5 1.05,-1.65 1.6,-2.75 2.05,-3.7 -0.55,1.85 -1.1,3.9 -1.55,6.05 -1,4.8 -1.2,8.15 -0.65,10 1.35,4.5 1.85,5.65 0.65,11 -1.15,5.35 -1.3,7.85 -0.15,9.65 l 1.15,1.85 c 0,0 -2.3,-4 -1,-6.35 1.35,-2.3 3.35,-8.65 2.7,-13.15 -0.7,-4.5 -0.5,-10.35 1.3,-16.35 1.85,-6 1,-9.5 1,-9.5 l 0.2,2.5 -0.2,-2.5 5.55,3 q 6.9,3.25 13.45,4.5 c 10.5,2 14.95,3 14.95,3 l 1.95,6.55 -1.95,-6.55 c 0,0 4.55,11.5 2.05,18 -2.5,6.5 0.5,11.5 -1,16.5 -0.65,2.2 -1.25,3.35 -1.75,4.1 l 0,-0.025 0.95,-0.675 c 1.3,-1.2 2,-2.6 2.15,-4.2 0.35,-3.85 -1.15,-9 0,-12 1.15,-3 3.15,-13.5 2.15,-18 -1,-4.5 -2.3,-6 -5.3,-11.2 z"
           inkscape:connector-curvature="0"
           style="fill:#707070" />
      </g>
      <g
         id="element15">
        <g
           id="drawingObject29">
          <path
             id="path29"
             d="m 9.251,-28.049 c 0,0 -8.25,-1.15 -11.9,0.1 -2.1,0.7 -3.7,1.6 -4.95,2.5 l 0.15,-0.25 c 0,0 -0.95,-0.1 -2.7,2 l -1.75,2.05 0.3,-0.6 -0.3,0.6 c 0,0 0.4,-1 1,-1.8 l 0.9,-1.25 c 0,0 -1.95,1.1 -3,2.1 l -2.25,2.15 c 0,0 0.3,-1.2 1.1,-1.9 l 1.05,-0.85 c 0,0 -2.05,0.85 -3.25,3 l -1.15,2.1 c 0,0 -0.4,-0.35 0.25,-1.55 l 0.6,-1.2 c 0,0 -1.35,0.9 -1.7,1.95 l -0.3,1.05 c 0,0 -0.45,0 -0.1,-0.8 l 0.4,-1.2 c 0,0 -0.4,0.05 -1.15,1.65 -0.75,1.55 -0.55,1.75 -1.15,1.9 0,0 -6.2,8 -4,16 2.15,8 4.65,10.85 6.15,12 l 1.5,1.2 c 0,0 -1.15,-1.35 -1.65,-3.5 -0.5,-2.2 -0.2,-3.5 -0.2,-3.5 l -0.1,0.95 0.1,-0.95 1.45,2.5 -1.45,-2.5 c 0,0 2.5,4.65 4.2,6.15 l 1.575,1.425 0.025,0.025 c -0.45,-0.4 -0.85,-0.95 -1.3,-1.7 -0.95,-1.45 -1.5,-3 -1.65,-4.6 l -0.35,-3.8 2.5,5.3 c 0,0 -1.3,-3.15 -1.15,-7 0.15,-3.8 1.15,-6.3 3.15,-9.5 1.3,-2 1.85,-3.2 2.05,-3.85 -0.65,2.35 -3.35,12.25 -2.2,16.2 1.35,4.5 1.85,5.65 0.65,11 -1.15,5.35 -1.3,7.85 -0.15,9.65 l 1.15,1.85 c 0,0 -2.3,-4 -1,-6.35 0.7,-1.15 1.55,-3.4 2.15,-5.9 l 0.05,-3.85 c 0.15,-2.9 -1.1,-6.4 -1,-9 0.15,-2.55 1.95,-9.35 2.05,-12.65 0.15,-3.35 -0.15,-4.2 -0.25,-5.25 l 0,-0.5 q -0.1,0.8 -0.5,1.35 c -1.9,2.85 -5.5,5.3 -6.8,9.65 -0.8,2.5 -1,3.55 -1.05,3.95 -0.1,-1 -0.3,-4.45 0.7,-7.05 1.15,-3.05 1.55,-3.8 1.55,-3.8 0,0 -1.9,2.7 -2.75,4.8 l -0.9,2.15 c 0,0 0.15,-2.4 1.5,-5.7 l 1.4,-3.3 c 0,0 -2.3,2.05 -3.7,6.35 -1.35,4.35 -1.45,5.15 -1.45,5.15 0,0 -0.65,-3.55 0.15,-6.2 l 0.95,-3 c 0,0 -1.65,2.7 -2.45,6.45 -0.8,3.75 -0.75,4.25 -0.75,4.25 0,0 -0.8,-2.45 -0.5,-4.55 l 0.3,-2.4 -0.95,4.55 -0.05,0.85 c 0,0 -0.55,-3.25 1.05,-6.95 1.65,-3.7 3.35,-6 3.35,-6 l -0.6,1.3 0.65,-0.65 -0.65,0.65 c 0,0 1,-1.1 2,-1.8 l 1,-0.7 -0.1,1.45 0.3,-0.4 -0.3,0.4 c 0,0 0.25,-0.5 1.8,-1.75 1.55,-1.25 2.2,-2.7 2.2,-2.7 l -0.3,2.7 c -0.1,1.1 -0.2,1.35 -0.2,1.35 l 2.2,-5 c 0,0 0.4,0.7 0,2.2 l -0.45,1.5 c 0,0 1.35,-0.75 1.45,-2.1 l 0.05,-1.65 0.1,0.65 c 0.05,-0.25 0.2,-0.55 0.45,-0.9 0.25,-0.3 0.4,-0.65 0.5,-0.95 l 0.3,0 c 2.45,0 4.85,0.25 6.25,0.6 1.45,0.35 1.1,-0.4 -1.8,-0.75 -2.95,-0.35 -2.5,-0.65 -2.5,-0.65 l 0.15,0.2 -0.15,-0.2 0.75,-0.3 -0.75,0.3 c 0,0 1,-0.6 3.15,-0.6 l 2.5,0 c 0,0 -4.1,-0.4 -6.25,0 l -1.2,0.25 0.15,-0.45 c 1.1,-0.7 3.6,-1.85 8.2,-2.2 6.75,-0.5 8.25,-0.2 8.25,-0.2 0,0 -2.9,-0.8 -6.75,-0.75 l -3.8,0.1 2.6,-0.55 -2.6,0.55 c 0,0 4.25,-1.1 8.05,-1.1 l 3.85,0 z"
             inkscape:connector-curvature="0"
             style="fill:#595959" />
        </g>
        <g
           id="drawingObject30">
          <path
             id="path30"
             d="m 18.501,-22.099 2.35,1.8 c 1.65,1.35 3,3.5 3,3.5 0,0 -1.5,-1.3 -7.5,-4.3 -6,-3 -12,-3.85 -12,-3.85 l 3.75,0.8 -3.75,-0.8 6.8,2.65 c 6.2,2.5 10.7,6.85 10.7,6.85 l -2.7,-1.15 c -2.65,-1.2 -8,-1.7 -8,-1.7 l 3,0.4 -3,-0.4 1.8,0.65 -1.8,-0.65 c 0,0 2.35,0.7 7.2,3 4.8,2.35 8.5,4.5 8.5,4.5 l -3.85,-0.3 c -3.85,-0.35 -10,-1.2 -19.65,-4.85 -6.25,-2.35 -9.6,-3.8 -11.25,-4.55 l -1.25,-0.6 3,4.8 -0.2,-2 5.55,3 -5.55,-3 c 0,0 8.5,5.5 19,7.5 10.5,2 14.95,3 14.95,3 l 1.95,6.55 -1.95,-6.55 c 0,0 4.55,11.5 2.05,18 -2.5,6.5 0.5,11.5 -1,16.5 -0.75,2.6 -1.45,3.75 -1.9,4.25 1.05,-0.7 3,-2.3 3.25,-5.05 0.2,-2.4 -0.3,-5.35 -0.4,-7.9 -0.5,-1.85 0.35,-6.15 1.05,-8.95 1,-4 0,-11 -0.15,-13.65 -0.1,-1.6 0.45,-1.95 0.85,-2.3 q -0.55,-1.65 -1.75,-3.7 -1.6,-2.7 -2.75,-4.7 l -0.8,-1.25 c -3.7,-3.55 -7.55,-5.55 -7.55,-5.55 z"
             inkscape:connector-curvature="0"
             style="fill:#595959" />
        </g>
      </g>
      <g
         id="element16">
        <g
           id="drawingObject31">
          <path
             id="path31"
             d="m -19.249,-17.599 -0.1,0.5 c -0.05,0.4 -0.7,0.75 -1.4,0.95 l -0.5,0.7 c 0.45,0.15 0.35,0.45 0.2,0.7 l 0.05,-0.05 1.9,-1.55 0.6,-0.25 c 0.6,-0.25 2.25,-1.75 2.25,-1.75 l 0,0.4 1.1,-0.4 c 1.05,-0.45 2,-2.25 2,-2.25 l 0.55,-0.45 c -0.15,0.15 -0.7,0.55 -1.25,0.85 -0.65,0.4 -0.65,0.85 -0.9,0.9 -0.25,0.1 0,0 -0.25,-0.25 -0.25,-0.25 -0.4,0.25 -1.35,0.85 -0.9,0.6 -0.4,0.4 -1.75,1.15 -1.3,0.75 -1.15,-0.05 -1.15,-0.05 z"
             inkscape:connector-curvature="0"
             style="fill:#595959" />
        </g>
      </g>
      <g
         id="element17">
        <g
           id="drawingObject32">
          <path
             id="path32"
             d="m -22.249,-10.849 0.85,-0.85 -0.425,2.95 0.025,0 c 0,-0.1 0.4,-2.3 1.55,-3.95 l 1.25,-1.75 -1.85,1.5 -0.4,0.4 0.65,-1.3 c 0.45,-0.6 -0.55,0.4 -0.55,0.4 0,0 -1.35,1.5 -1.95,3.15 l -0.55,1.7 c 0,0 0.55,-1.45 1.4,-2.25 z"
             inkscape:connector-curvature="0"
             style="fill:#8a8a8a" />
        </g>
        <g
           id="drawingObject33">
          <path
             id="path33"
             d="m -15.899,-14.199 c 1.15,-1.35 1.55,-2.4 1.75,-2.65 l 0.15,-0.25 -2.15,2.05 q -0.05,-0.1 -0.05,-0.25 -0.05,-0.35 0.2,-0.65 l 0.4,-0.5 c 0,0 -1.4,1.4 -1.75,1.85 -0.3,0.4 0,-0.6 0,-0.6 l -0.1,0.45 0.1,-0.45 c 0,0 -1.25,1.1 -2.25,3.6 -1,2.5 -1,3 -1,3 0,0 1.35,-3 2.35,-4.2 l 1.5,-1.65 -1.6,2.85 -0.4,0.9 c 0,0 1.65,-2.15 2.85,-3.5 z"
             inkscape:connector-curvature="0"
             style="fill:#8a8a8a" />
        </g>
        <g
           id="drawingObject34">
          <path
             id="path34"
             d="m -9.499,-17.849 0.25,-0.95 c 0,0 -0.75,1.6 -1.4,2.35 l -0.7,0.75 q -0.25,-0.6 0,-1.25 l 0.05,-0.15 c -0.1,0.25 -0.35,0.5 -0.7,0.75 0,0 -1.1,0.75 -2,1.8 l -1.25,1.6 3.35,-2.35 c 0,0 -0.85,1.2 -1.75,2.7 l -1.1,1.8 3.5,-4.15 c 1.4,-1.6 1.75,-2.6 1.75,-2.9 z"
             inkscape:connector-curvature="0"
             style="fill:#8a8a8a" />
        </g>
        <g
           id="drawingObject35">
          <path
             id="path35"
             d="m 6.851,-17.599 c 0,0 0.55,-0.2 3.05,0.3 q 2.5,0.5 5.2,1.35 c 0,0 -2.35,-1.4 -5.35,-2.4 -3,-1 -3.85,-1.25 -5.85,-1.6 l -3,-0.4 1.35,0.6 -1.35,-0.6 c 0,0 2.25,1.05 3.85,1.5 l 1.6,0.4 -3.25,0 3.3,1.75 0.85,0.35 c 0,0 -5.7,-1.5 -7.55,-2.6 l 0,-0.025 1.2,0.975 c 1.25,0.8 2.8,1.5 4.6,2.05 3.75,1.15 6.15,1.45 6.75,1.5 -0.35,-0.05 -1.45,-0.25 -2.9,-1.35 l -2.5,-1.8 z"
             inkscape:connector-curvature="0"
             style="fill:#8a8a8a" />
        </g>
        <g
           id="drawingObject36">
          <path
             id="path36"
             d="m 17.351,-18.599 c 0,0 -4,-2.35 -5.95,-3.35 -1.9,-1 -6.75,-2 -8.65,-2.1 l -1.9,-0.05 1.65,0.45 -1.65,-0.45 c 0,0 3,0.9 4.3,1.05 l 1.75,0.25 c 0,0 -2.3,-0.15 -4.15,-0.15 l -1.85,0 4.95,1 1.3,0.15 -1.3,-0.15 c 0,0 1.8,0 4.9,1 3.1,1 6.6,2.35 6.6,2.35 z"
             inkscape:connector-curvature="0"
             style="fill:#8a8a8a" />
        </g>
        <g
           id="drawingObject37">
          <path
             id="path37"
             d="m 22.401,-18.449 -1.55,-1.85 c -0.95,-1.05 -3,-2.25 -6.95,-3.75 -3.9,-1.5 -6.8,-1.75 -6.8,-1.75 l 1.95,0.3 -1.95,-0.3 -3.725,0 0.025,0 c 0.85,0.05 2.15,0.25 3.9,0.7 1.15,0.3 3.25,0.85 6.3,1.65 5.05,1.25 8.8,5 8.8,5 z"
             inkscape:connector-curvature="0"
             style="fill:#8a8a8a" />
        </g>
        <g
           id="drawingObject38">
          <path
             id="path38"
             d="m 14.151,-25.599 c 3.45,1.3 5.35,2.3 5.35,2.3 q -2.15,-1.8 -4.65,-2.75 c -2.5,-0.9 -7.1,-1.05 -7.1,-1.05 l 2.6,0.2 -2.6,-0.2 1.95,0.25 -1.95,-0.25 c 0,0 3,0.15 6.4,1.5 z"
             inkscape:connector-curvature="0"
             style="fill:#8a8a8a" />
        </g>
      </g>
      <g
         id="element18" />
      <g
         id="element19">
        <path
           id="path39"
           d="m -33.349,-6.949 0.15,-0.05 c 0,0 -0.15,-0.5 -0.85,1.7 q -1.2,3.7 -1,8.5 c 0.2,4 0.2,5.8 0.2,7.3 l 0,1.5 c 0,0 1.15,-7.35 1.15,-9.65 l 0,-2.35 0.6,1.3 -0.6,-1.3 c 0,0 1.15,2.2 1.35,3.7 l 0.15,1.5 c 0,0 0,-2.7 -0.65,-5.2 -0.3,-1.05 -0.45,-2.3 -0.45,-3.75 l 0.1,-3.25"
           inkscape:connector-curvature="0"
           style="fill:#8a8a8a" />
      </g>
    </g>
    <g
       id="sideHair01_1_0">
      <g
         id="element">
        <path
           id="path"
           d="m 27.601,-7.299 c 0,0 0.05,-3 -1,-4.4 -1.1,-1.4 -29.85,-11.75 -33.75,-11.1 -3.95,0.7 -7.85,3.6 -9.6,7.85 -1.75,4.25 -3.9,11.4 -3.35,12.6 0.6,1.15 2.7,3.4 3.2,3.8 0.5,0.45 1.4,2.35 1.4,2.35 l 1.05,3 q -0.1,-0.4 -0.15,-0.9 -0.35,-2.9 0.95,-6.1 c 2.05,-5.1 3.4,-6.1 3.4,-6.1 l -0.3,4.8 0.3,-4.8 c 0,0 -0.75,8.95 0,11.6 0.75,2.65 1.4,5.5 0.35,8.85 -1.1,3.3 0.15,5.25 0.65,5.9 l 0.5,0.65 c 0,0 -0.75,-2 0.15,-4.5 0.95,-2.5 1.5,-7.3 1.1,-11.5 -0.4,-4.15 -1,-6.75 0.6,-10.25 1.55,-3.5 2.3,-7 2.25,-8.8 l -0.1,-2.6 6.1,3.85 -6.1,-3.85 c 0,0 9.6,7.25 20,8.9 10.4,1.7 12.35,0.75 12.35,0.75 z"
           inkscape:connector-curvature="0"
           style="fill:#000000;fill-opacity:0.08600003" />
      </g>
      <g
         id="element1">
        <path
           id="path1"
           d="m -19.449,-17.799 c 0,0 -3.65,-7.5 -10.75,-7.5 -7.15,0 -11.15,2.25 -12.5,8.15 -1.4,5.85 0.6,9.1 0.6,9.1 0,0 -0.75,-3 -0.1,-5.5 0.6,-2.5 1.35,-2.85 1.35,-2.85 l -0.45,0.5 0.45,-0.5 -0.65,3.25 0.65,-3.25 c 0,0 -1.75,5.35 -0.1,10.1 1.6,4.75 2.25,7.65 1.1,11 l -1.25,3.9 c 0,0 3.25,-2.5 2.5,-11 -0.6,-7.25 -0.5,-7.25 -0.5,-7.25 l 0.9,4.5 -0.9,-4.5 c 0,0 1.9,8 1.4,12.1 -0.5,4.15 -2.75,7.15 -2.4,12.65 0.5,7.6 4.75,9.35 4.75,9.35 0,0 -3.25,-3.85 -2.85,-9.25 0.3,-4.65 1.35,-5.75 1.35,-5.75 l -0.55,1.15 0.55,-1.15 -0.4,4.7 0.4,-4.7 c 0,0 -1.6,8.5 1.4,12.25 3,3.75 4,3.5 7.25,3.15 2.9,-0.35 3.5,-1.75 3.5,-1.75 l -0.65,0.75 0.65,-0.75 c 0,0 -3.4,-0.15 -5.25,-1.75 -1.5,-1.3 -2.5,-1.5 -2,-5.5 0.45,-3.6 1.75,-5.4 1.75,-5.4 l -0.7,1.35 0.7,-1.35 -0.75,1.95 0.75,-1.95 c 0,0 -1.65,3.25 -1.25,5.9 0.35,2.6 0.6,1.25 0.6,1.25 0,0 -1,-1.25 1.4,-5 2.35,-3.75 2.5,-1.9 2.35,-8.4 -0.1,-6.6 -2,-7.5 -0.35,-10.35 1.6,-2.9 1.6,-2.65 4.25,-1 2.6,1.6 4.25,1.85 5.5,0.5 1.25,-1.4 7.25,-9.9 7.5,-10.5 0.25,-0.65 -4.75,-7.9 -4.75,-7.9 q -1.9,2.25 -2.9,4.4 c -1,2.1 -1.6,2.85 -1.6,2.85 z"
           inkscape:connector-curvature="0"
           style="fill:#707070" />
      </g>
      <g
         id="element2">
        <g
           id="drawingObject2">
          <path
             id="path2"
             d="m -28.499,-21.699 -0.35,0.05 1.95,0.25 -0.1,-0.05 c -1.5,-0.4 -1.85,-0.2 -1.85,-0.2"
             inkscape:connector-curvature="0"
             style="fill:#595959" />
        </g>
        <g
           id="drawingObject3">
          <path
             id="path3"
             d="m -12.749,-13.399 c -0.25,-1.3 -0.5,-2.25 -0.7,-2.65 q -1.3,-2.3 -4.15,-5.05 l -0.25,0.45 c -1,2.1 -1.6,2.85 -1.6,2.85 0,0 -1.3,-2.6 -3.8,-4.75 l -0.35,0.1 1,0.85 c 1,0.9 1.85,2.65 1.85,2.65 l -2.25,-1.25 c -1.2,-0.65 -2.7,-1 -3.9,-1.2 1.55,0.45 5.15,3.2 5.15,3.2 l -1.35,-0.4 c -1.4,-0.35 -3.25,-0.25 -3.25,-0.25 l 1.1,0 -1.1,0 1.75,0.4 c 1.75,0.35 3.35,2.1 3.35,2.1 0,0 -0.6,-0.5 -4.35,-0.85 -3.75,-0.4 -4.25,0.1 -4.25,0.1 l 0.65,0.05 -0.65,-0.05 c 0,0 0.75,0 3,0.5 2.25,0.5 3.85,2.15 3.85,2.15 l -1.6,0 c -1.65,0 -3.75,0.35 -3.75,0.35 l 1.25,-0.15 -1.25,0.15 1.5,0 c 1.5,0 2.85,1.4 2.85,1.4 l -3.6,0.25 c -3.65,0.25 -4.4,2.85 -4.4,2.85 l 1.15,-1 c 1.1,-1 3.1,-0.75 3.1,-0.75 l -1.35,1.15 c -1.4,1.1 -2.25,3.75 -0.75,7.1 1.5,3.4 1.35,8.9 1.35,8.9 l -0.1,-1.65 c -0.15,-1.6 -1.4,-2.5 -1.4,-2.5 l 0.65,0.65 -0.65,-0.65 0.4,1.75 c 0.35,1.75 0,4.5 0,4.5 0,0 0,-0.6 -0.65,-3 -0.6,-2.35 -1.75,-4.85 -1.75,-4.85 l 0.65,1.55 -0.65,-1.55 0.65,3.85 c 0.6,3.9 -0.65,8.75 -0.65,8.75 l 0,-2 c 0,-2 -0.85,-6.25 -0.85,-6.25 l 0.45,2.4 -0.45,-2.4 0,2.15 c 0,0.85 -0.5,3.5 -0.9,6.5 -0.35,3 0.75,8 0.75,8 l -1,-2.15 c -0.55,-1.1 -0.7,-2.7 -0.55,-4.8 l -0.025,0 -0.275,2.7 c -0.4,3.75 1.6,6.5 1.6,6.5 l -1,-1.25 c -1,-1.25 -2.1,-5.5 -1.6,-11.5 0.5,-6 -0.15,-12.75 -0.15,-12.75 l 0.25,4.15 -0.25,-4.15 0,3 c 0,2.35 -0.1,3.1 -1.25,6.25 -1.1,3.1 -2.1,8.6 -2.1,8.6 0,0 -0.15,-0.5 0.35,-4.5 0.5,-4 2,-8.25 1.9,-11.85 -0.15,-3.65 -1.9,-11.25 -1.9,-11.25 l 0.9,4.25 -0.9,-4.25 -0.35,1.25 c -0.4,1.25 -1.15,4.1 -1.15,4.1 0,0 -0.25,-0.75 -0.5,-5 -0.25,-4.25 1.15,-7.5 1.15,-7.5 l -0.65,2.15 0.65,-2.15 -0.3,0.3 0.3,-0.3 c 0,0 -0.5,0.4 -1,1.25 -0.5,0.9 -1.25,1.15 -1.25,1.15 l 0.1,-0.5 c 0.1,-0.35 0.2,-1.9 0.95,-3.9 -0.75,1.1 -1.3,2.4 -1.65,3.95 -1.4,5.85 0.6,9.1 0.6,9.1 0,0 -0.75,-3 -0.1,-5.5 0.6,-2.5 1.35,-2.85 1.35,-2.85 l -0.45,0.5 0.45,-0.5 -0.65,3.25 0.65,-3.25 c 0,0 -1.75,5.35 -0.1,10.1 1.6,4.75 2.25,7.65 1.1,11 l -1.25,3.9 c 0,0 3.25,-2.5 2.5,-11 -0.6,-7.25 -0.5,-7.25 -0.5,-7.25 l 0.9,4.5 -0.9,-4.5 c 0,0 1.9,8 1.4,12.1 -0.5,4.15 -2.75,7.15 -2.4,12.65 0.5,7.6 4.75,9.35 4.75,9.35 0,0 -3.25,-3.85 -2.85,-9.25 0.3,-4.65 1.35,-5.75 1.35,-5.75 l -0.55,1.15 0.55,-1.15 -0.4,4.7 0.4,-4.7 c 0,0 -1.6,8.5 1.4,12.25 3,3.75 4,3.5 7.25,3.15 2.9,-0.35 3.5,-1.75 3.5,-1.75 l -0.65,0.75 0.65,-0.75 c 0,0 -3.4,-0.15 -5.25,-1.75 -1.5,-1.3 -2.5,-1.5 -2,-5.5 0.45,-3.6 1.75,-5.4 1.75,-5.4 l -0.7,1.35 0.7,-1.35 -0.75,1.95 0.75,-1.95 c 0,0 -1.65,3.25 -1.25,5.9 0.35,2.6 0.6,1.25 0.6,1.25 0,0 -1,-1.25 1.4,-5 2.35,-3.75 2.5,-1.9 2.35,-8.4 -0.1,-6.6 -2,-7.5 -0.35,-10.35 1.6,-2.9 1.6,-2.65 4.25,-1 2.6,1.6 4.25,1.85 5.5,0.5 0.75,-0.8 3.1,-4.05 4.95,-6.75 z"
             inkscape:connector-curvature="0"
             style="fill:#595959" />
        </g>
      </g>
      <g
         id="element3">
        <g
           id="drawingObject4">
          <path
             id="path4"
             d="m -29.949,-23.649 -0.4,0 0.5,-0.3 q 0.7,-0.3 1.9,-0.2 c 1.1,0.05 2,0.4 2.6,0.65 -0.85,-0.45 -2.35,-1.15 -3.1,-1.4 0,0 -2.75,-0.65 -5.4,0.1 -2.6,0.75 -4.1,2 -4.1,2 0,0 2.1,-1 4.35,-1.1 l 0.65,-0.05 c -1.1,0.2 -2.6,0.6 -3.65,1.8 -1.85,2.1 -2,2.6 -2,2.6 0,0 1.15,-2.25 4.5,-3.1 3.4,-0.9 6.4,0 6.4,0 0,0 -1.9,-1 -2.25,-1 z"
             inkscape:connector-curvature="0"
             style="fill:#8a8a8a" />
        </g>
        <g
           id="drawingObject5">
          <path
             id="path5"
             d="m -32.199,-22.299 c 0,0 -2,-0.1 -4,1.75 l -0.95,0.9 c 0.9,-0.7 2.35,-1.6 4.05,-1.75 3,-0.25 4.25,-0.25 4.25,-0.25 0,0 -2.1,-0.65 -3.35,-0.65 z"
             inkscape:connector-curvature="0"
             style="fill:#8a8a8a" />
        </g>
        <g
           id="drawingObject6">
          <path
             id="path6"
             d="m -37.499,-15.399 c 0.4,-0.8 1.2,-1.8 2.65,-2.4 q 2.75,-1.1 4,-1.1 c 0,0 -0.35,-0.25 -2.25,-0.65 0,0 -2.85,-0.1 -3.85,2.65 l -0.55,1.5 z"
             inkscape:connector-curvature="0"
             style="fill:#8a8a8a" />
        </g>
        <g
           id="drawingObject7">
          <path
             id="path7"
             d="m -33.349,-16.649 c -0.5,0.15 -1.75,0.35 -2.5,2.1 -0.75,1.75 -0.6,3.4 -0.6,3.4 0,0 1,-2.15 1.6,-2.9 l 0.65,-0.75 -0.45,1.5 0.45,-1.5 c 0,0 -0.9,2.5 -0.75,4.65 l 0.1,2.6 c 0,0 0.25,-2.6 1,-5 0.75,-2.35 1.4,-2.75 1.4,-2.75 l -0.45,1.9 0.45,-1.9 c 0,0 -0.9,3.4 -0.9,5 l 0,1.25 c 0.05,-0.55 0.2,-3.05 1.4,-4.75 1.1,-1.6 2.4,-1.75 2.85,-1.75 l -2.6,-0.1 c 0,0 0.75,-1.15 1.5,-1 l 0.75,0.1 c 0,0 -2,-0.6 -3.9,-0.1 z"
             inkscape:connector-curvature="0"
             style="fill:#8a8a8a" />
        </g>
      </g>
      <g
         id="element4">
        <path
           id="path8"
           d="m 26.851,-15.299 c -3,-5.15 -8.85,-11.15 -16,-13.15 -7.2,-2 -23.85,-0.35 -27.5,4.85 -3.7,5.15 -4,7.3 -4,7.3 0,0 -6.2,8 -4,16 2.15,8 4.65,10.85 6.15,12 l 1.5,1.2 c 0,0 -1.15,-1.35 -1.65,-3.5 -0.5,-2.2 -0.2,-3.5 -0.2,-3.5 l -0.1,0.95 0.1,-0.95 1.45,2.5 -1.45,-2.5 c 0,0 2.5,4.65 4.2,6.15 l 1.575,1.425 0.025,0.025 c -0.45,-0.4 -0.85,-0.95 -1.3,-1.7 -0.95,-1.45 -1.5,-3 -1.65,-4.6 l -0.35,-3.8 2.5,5.3 c 0,0 -1.3,-3.15 -1.15,-7 0.15,-3.8 1.15,-6.3 3.15,-9.5 1.05,-1.65 1.6,-2.75 2.05,-3.7 -0.55,1.85 -1.1,3.9 -1.55,6.05 -1,4.8 -1.2,8.15 -0.65,10 1.35,4.5 1.85,5.65 0.65,11 -1.15,5.35 -1.3,7.85 -0.15,9.65 l 1.15,1.85 c 0,0 -2.3,-4 -1,-6.35 1.35,-2.3 3.35,-8.65 2.7,-13.15 -0.7,-4.5 -0.5,-10.35 1.3,-16.35 1.85,-6 1,-9.5 1,-9.5 l 0.2,2.5 -0.2,-2.5 5.55,3 q 6.9,3.25 13.45,4.5 c 10.5,2 14.95,3 14.95,3 l 1.95,6.55 -1.95,-6.55 c 0,0 4.55,11.5 2.05,18 -2.5,6.5 0.5,11.5 -1,16.5 -0.65,2.2 -1.25,3.35 -1.75,4.1 l 0,-0.025 0.95,-0.675 c 1.3,-1.2 2,-2.6 2.15,-4.2 0.35,-3.85 -1.15,-9 0,-12 1.15,-3 3.15,-13.5 2.15,-18 -1,-4.5 -2.3,-6 -5.3,-11.2 z"
           inkscape:connector-curvature="0"
           style="fill:#707070" />
      </g>
      <g
         id="element5">
        <g
           id="drawingObject9">
          <path
             id="path9"
             d="m 9.251,-28.049 c 0,0 -8.25,-1.15 -11.9,0.1 -2.1,0.7 -3.7,1.6 -4.95,2.5 l 0.15,-0.25 c 0,0 -0.95,-0.1 -2.7,2 l -1.75,2.05 0.3,-0.6 -0.3,0.6 c 0,0 0.4,-1 1,-1.8 l 0.9,-1.25 c 0,0 -1.95,1.1 -3,2.1 l -2.25,2.15 c 0,0 0.3,-1.2 1.1,-1.9 l 1.05,-0.85 c 0,0 -2.05,0.85 -3.25,3 l -1.15,2.1 c 0,0 -0.4,-0.35 0.25,-1.55 l 0.6,-1.2 c 0,0 -1.35,0.9 -1.7,1.95 l -0.3,1.05 c 0,0 -0.45,0 -0.1,-0.8 l 0.4,-1.2 c 0,0 -0.4,0.05 -1.15,1.65 -0.75,1.55 -0.55,1.75 -1.15,1.9 0,0 -6.2,8 -4,16 2.15,8 4.65,10.85 6.15,12 l 1.5,1.2 c 0,0 -1.15,-1.35 -1.65,-3.5 -0.5,-2.2 -0.2,-3.5 -0.2,-3.5 l -0.1,0.95 0.1,-0.95 1.45,2.5 -1.45,-2.5 c 0,0 2.5,4.65 4.2,6.15 l 1.575,1.425 0.025,0.025 c -0.45,-0.4 -0.85,-0.95 -1.3,-1.7 -0.95,-1.45 -1.5,-3 -1.65,-4.6 l -0.35,-3.8 2.5,5.3 c 0,0 -1.3,-3.15 -1.15,-7 0.15,-3.8 1.15,-6.3 3.15,-9.5 1.3,-2 1.85,-3.2 2.05,-3.85 -0.65,2.35 -3.35,12.25 -2.2,16.2 1.35,4.5 1.85,5.65 0.65,11 -1.15,5.35 -1.3,7.85 -0.15,9.65 l 1.15,1.85 c 0,0 -2.3,-4 -1,-6.35 0.7,-1.15 1.55,-3.4 2.15,-5.9 l 0.05,-3.85 c 0.15,-2.9 -1.1,-6.4 -1,-9 0.15,-2.55 1.95,-9.35 2.05,-12.65 0.15,-3.35 -0.15,-4.2 -0.25,-5.25 l 0,-0.5 q -0.1,0.8 -0.5,1.35 c -1.9,2.85 -5.5,5.3 -6.8,9.65 -0.8,2.5 -1,3.55 -1.05,3.95 -0.1,-1 -0.3,-4.45 0.7,-7.05 1.15,-3.05 1.55,-3.8 1.55,-3.8 0,0 -1.9,2.7 -2.75,4.8 l -0.9,2.15 c 0,0 0.15,-2.4 1.5,-5.7 l 1.4,-3.3 c 0,0 -2.3,2.05 -3.7,6.35 -1.35,4.35 -1.45,5.15 -1.45,5.15 0,0 -0.65,-3.55 0.15,-6.2 l 0.95,-3 c 0,0 -1.65,2.7 -2.45,6.45 -0.8,3.75 -0.75,4.25 -0.75,4.25 0,0 -0.8,-2.45 -0.5,-4.55 l 0.3,-2.4 -0.95,4.55 -0.05,0.85 c 0,0 -0.55,-3.25 1.05,-6.95 1.65,-3.7 3.35,-6 3.35,-6 l -0.6,1.3 0.65,-0.65 -0.65,0.65 c 0,0 1,-1.1 2,-1.8 l 1,-0.7 -0.1,1.45 0.3,-0.4 -0.3,0.4 c 0,0 0.25,-0.5 1.8,-1.75 1.55,-1.25 2.2,-2.7 2.2,-2.7 l -0.3,2.7 c -0.1,1.1 -0.2,1.35 -0.2,1.35 l 2.2,-5 c 0,0 0.4,0.7 0,2.2 l -0.45,1.5 c 0,0 1.35,-0.75 1.45,-2.1 l 0.05,-1.65 0.1,0.65 c 0.05,-0.25 0.2,-0.55 0.45,-0.9 0.25,-0.3 0.4,-0.65 0.5,-0.95 l 0.3,0 c 2.45,0 4.85,0.25 6.25,0.6 1.45,0.35 1.1,-0.4 -1.8,-0.75 -2.95,-0.35 -2.5,-0.65 -2.5,-0.65 l 0.15,0.2 -0.15,-0.2 0.75,-0.3 -0.75,0.3 c 0,0 1,-0.6 3.15,-0.6 l 2.5,0 c 0,0 -4.1,-0.4 -6.25,0 l -1.2,0.25 0.15,-0.45 c 1.1,-0.7 3.6,-1.85 8.2,-2.2 6.75,-0.5 8.25,-0.2 8.25,-0.2 0,0 -2.9,-0.8 -6.75,-0.75 l -3.8,0.1 2.6,-0.55 -2.6,0.55 c 0,0 4.25,-1.1 8.05,-1.1 l 3.85,0 z"
             inkscape:connector-curvature="0"
             style="fill:#595959" />
        </g>
        <g
           id="drawingObject10">
          <path
             id="path10"
             d="m 18.501,-22.099 2.35,1.8 c 1.65,1.35 3,3.5 3,3.5 0,0 -1.5,-1.3 -7.5,-4.3 -6,-3 -12,-3.85 -12,-3.85 l 3.75,0.8 -3.75,-0.8 6.8,2.65 c 6.2,2.5 10.7,6.85 10.7,6.85 l -2.7,-1.15 c -2.65,-1.2 -8,-1.7 -8,-1.7 l 3,0.4 -3,-0.4 1.8,0.65 -1.8,-0.65 c 0,0 2.35,0.7 7.2,3 4.8,2.35 8.5,4.5 8.5,4.5 l -3.85,-0.3 c -3.85,-0.35 -10,-1.2 -19.65,-4.85 -6.25,-2.35 -9.6,-3.8 -11.25,-4.55 l -1.25,-0.6 3,4.8 -0.2,-2 5.55,3 -5.55,-3 c 0,0 8.5,5.5 19,7.5 10.5,2 14.95,3 14.95,3 l 1.95,6.55 -1.95,-6.55 c 0,0 4.55,11.5 2.05,18 -2.5,6.5 0.5,11.5 -1,16.5 -0.75,2.6 -1.45,3.75 -1.9,4.25 1.05,-0.7 3,-2.3 3.25,-5.05 0.2,-2.4 -0.3,-5.35 -0.4,-7.9 -0.5,-1.85 0.35,-6.15 1.05,-8.95 1,-4 0,-11 -0.15,-13.65 -0.1,-1.6 0.45,-1.95 0.85,-2.3 q -0.55,-1.65 -1.75,-3.7 -1.6,-2.7 -2.75,-4.7 l -0.8,-1.25 c -3.7,-3.55 -7.55,-5.55 -7.55,-5.55 z"
             inkscape:connector-curvature="0"
             style="fill:#595959" />
        </g>
      </g>
      <g
         id="element6">
        <g
           id="drawingObject11">
          <path
             id="path11"
             d="m -19.249,-17.599 -0.1,0.5 c -0.05,0.4 -0.7,0.75 -1.4,0.95 l -0.5,0.7 c 0.45,0.15 0.35,0.45 0.2,0.7 l 0.05,-0.05 1.9,-1.55 0.6,-0.25 c 0.6,-0.25 2.25,-1.75 2.25,-1.75 l 0,0.4 1.1,-0.4 c 1.05,-0.45 2,-2.25 2,-2.25 l 0.55,-0.45 c -0.15,0.15 -0.7,0.55 -1.25,0.85 -0.65,0.4 -0.65,0.85 -0.9,0.9 -0.25,0.1 0,0 -0.25,-0.25 -0.25,-0.25 -0.4,0.25 -1.35,0.85 -0.9,0.6 -0.4,0.4 -1.75,1.15 -1.3,0.75 -1.15,-0.05 -1.15,-0.05 z"
             inkscape:connector-curvature="0"
             style="fill:#595959" />
        </g>
      </g>
      <g
         id="element7">
        <g
           id="drawingObject12">
          <path
             id="path12"
             d="m -22.249,-10.849 0.85,-0.85 -0.425,2.95 0.025,0 c 0,-0.1 0.4,-2.3 1.55,-3.95 l 1.25,-1.75 -1.85,1.5 -0.4,0.4 0.65,-1.3 c 0.45,-0.6 -0.55,0.4 -0.55,0.4 0,0 -1.35,1.5 -1.95,3.15 l -0.55,1.7 c 0,0 0.55,-1.45 1.4,-2.25 z"
             inkscape:connector-curvature="0"
             style="fill:#8a8a8a" />
        </g>
        <g
           id="drawingObject13">
          <path
             id="path13"
             d="m -15.899,-14.199 c 1.15,-1.35 1.55,-2.4 1.75,-2.65 l 0.15,-0.25 -2.15,2.05 q -0.05,-0.1 -0.05,-0.25 -0.05,-0.35 0.2,-0.65 l 0.4,-0.5 c 0,0 -1.4,1.4 -1.75,1.85 -0.3,0.4 0,-0.6 0,-0.6 l -0.1,0.45 0.1,-0.45 c 0,0 -1.25,1.1 -2.25,3.6 -1,2.5 -1,3 -1,3 0,0 1.35,-3 2.35,-4.2 l 1.5,-1.65 -1.6,2.85 -0.4,0.9 c 0,0 1.65,-2.15 2.85,-3.5 z"
             inkscape:connector-curvature="0"
             style="fill:#8a8a8a" />
        </g>
        <g
           id="drawingObject14">
          <path
             id="path14"
             d="m -9.499,-17.849 0.25,-0.95 c 0,0 -0.75,1.6 -1.4,2.35 l -0.7,0.75 q -0.25,-0.6 0,-1.25 l 0.05,-0.15 c -0.1,0.25 -0.35,0.5 -0.7,0.75 0,0 -1.1,0.75 -2,1.8 l -1.25,1.6 3.35,-2.35 c 0,0 -0.85,1.2 -1.75,2.7 l -1.1,1.8 3.5,-4.15 c 1.4,-1.6 1.75,-2.6 1.75,-2.9 z"
             inkscape:connector-curvature="0"
             style="fill:#8a8a8a" />
        </g>
        <g
           id="drawingObject15">
          <path
             id="path15"
             d="m 6.851,-17.599 c 0,0 0.55,-0.2 3.05,0.3 q 2.5,0.5 5.2,1.35 c 0,0 -2.35,-1.4 -5.35,-2.4 -3,-1 -3.85,-1.25 -5.85,-1.6 l -3,-0.4 1.35,0.6 -1.35,-0.6 c 0,0 2.25,1.05 3.85,1.5 l 1.6,0.4 -3.25,0 3.3,1.75 0.85,0.35 c 0,0 -5.7,-1.5 -7.55,-2.6 l 0,-0.025 1.2,0.975 c 1.25,0.8 2.8,1.5 4.6,2.05 3.75,1.15 6.15,1.45 6.75,1.5 -0.35,-0.05 -1.45,-0.25 -2.9,-1.35 l -2.5,-1.8 z"
             inkscape:connector-curvature="0"
             style="fill:#8a8a8a" />
        </g>
        <g
           id="drawingObject16">
          <path
             id="path16"
             d="m 17.351,-18.599 c 0,0 -4,-2.35 -5.95,-3.35 -1.9,-1 -6.75,-2 -8.65,-2.1 l -1.9,-0.05 1.65,0.45 -1.65,-0.45 c 0,0 3,0.9 4.3,1.05 l 1.75,0.25 c 0,0 -2.3,-0.15 -4.15,-0.15 l -1.85,0 4.95,1 1.3,0.15 -1.3,-0.15 c 0,0 1.8,0 4.9,1 3.1,1 6.6,2.35 6.6,2.35 z"
             inkscape:connector-curvature="0"
             style="fill:#8a8a8a" />
        </g>
        <g
           id="drawingObject17">
          <path
             id="path17"
             d="m 22.401,-18.449 -1.55,-1.85 c -0.95,-1.05 -3,-2.25 -6.95,-3.75 -3.9,-1.5 -6.8,-1.75 -6.8,-1.75 l 1.95,0.3 -1.95,-0.3 -3.725,0 0.025,0 c 0.85,0.05 2.15,0.25 3.9,0.7 1.15,0.3 3.25,0.85 6.3,1.65 5.05,1.25 8.8,5 8.8,5 z"
             inkscape:connector-curvature="0"
             style="fill:#8a8a8a" />
        </g>
        <g
           id="drawingObject18">
          <path
             id="path18"
             d="m 14.151,-25.599 c 3.45,1.3 5.35,2.3 5.35,2.3 q -2.15,-1.8 -4.65,-2.75 c -2.5,-0.9 -7.1,-1.05 -7.1,-1.05 l 2.6,0.2 -2.6,-0.2 1.95,0.25 -1.95,-0.25 c 0,0 3,0.15 6.4,1.5 z"
             inkscape:connector-curvature="0"
             style="fill:#8a8a8a" />
        </g>
      </g>
      <g
         id="element8" />
      <g
         id="element9">
        <path
           id="path19"
           d="m -33.349,-6.949 0.15,-0.05 c 0,0 -0.15,-0.5 -0.85,1.7 q -1.2,3.7 -1,8.5 c 0.2,4 0.2,5.8 0.2,7.3 l 0,1.5 c 0,0 1.15,-7.35 1.15,-9.65 l 0,-2.35 0.6,1.3 -0.6,-1.3 c 0,0 1.15,2.2 1.35,3.7 l 0.15,1.5 c 0,0 0,-2.7 -0.65,-5.2 -0.3,-1.05 -0.45,-2.3 -0.45,-3.75 l 0.1,-3.25"
           inkscape:connector-curvature="0"
           style="fill:#8a8a8a" />
      </g>
    </g>
  </g>
</svg>
